<svg version="1.1" viewBox="0 0 512 512" xmlns="http://www.w3.org/2000/svg" xmlns:xlink="http://www.w3.org/1999/xlink"><defs><linearGradient id="a"><stop stop-color="#0096ff" offset="0"/><stop stop-color="#0096ff" stop-opacity="0" offset="1"/></linearGradient><filter id="d" color-interpolation-filters="sRGB"><feGaussianBlur stdDeviation="26.972571"/></filter><linearGradient id="c" x1="4602.2" x2="4283.5" y1="3056.6" y2="1453.8" gradientTransform="matrix(1.2485 0 0 1.2485 -763.14 -413.04)" gradientUnits="userSpaceOnUse" xlink:href="#a"/><linearGradient id="b" x1="3180.1" x2="1950" y1="3557.4" y2="1361.3" gradientTransform="matrix(1.2485 0 0 1.2485 -763.14 -413.04)" gradientUnits="userSpaceOnUse" xlink:href="#a"/></defs><g transform="matrix(.091903 0 0 .091903 -51.544 67.77)"><g transform="matrix(1.1041 0 0 1.1041 -348.49 -264.56)"><path transform="matrix(1.2485 0 0 1.2485 -763.14 -413.04)" d="m2961.7 1822.4 115.06 38.344c764.93 48.1 1277.3 454.88 1845.2 813.94-103.04-43.921-211.19-77.622-330.25-89.5l-556.91 82.937c-243.55 52.31-27.251 216.94 57.25 352.53-75.706 39.617-121.77 25.802-135.59 24.125-90.861-109.58-198.5-174.43-313.38-219.97-113.35-42.452-223.12-67.026-328.44-69.313l-1021.9 72.594c-149.89 8.6124-227.17 77.728-281.25 166.19l-545.47-681.81c-71.241-122.25-43.87-202.26-4.25-277 38.803-69.434 36.188-93.581-46.875-29.812-63.909 54.282-106.38 126.94-58.812 276.78l625.56 814.12c40.341 114.58 162.75 160.8 298.31 196.03 479.53 34.074 847.97-9.6761 1248.6-34.094 168.43-16.226 320.98-48.364 417.62-136.38 94.133 0.8341 184.95 7.1107 247.16-31.969 50.588 45.006 272.35 27.841 315.06 25.594 337.47-5.8865 739.19-96.125 739.19-192.59-11.066-100.52-171.43-199.47-295.72-274.03-867.34-654.4-1434.3-751.04-1990.1-826.72zm1589.8 832.84c170.49-1.1405 482.27 87.401 586.72 191.69 116.28 126.24-528.44 237.84-744.09 213.5-145.15 0-219.45-41.37-255.62-100.47l-95.969-156.84c-76.031-122.27 371.38-141.19 484.88-147.03 7.6597-0.4986 15.709-0.7877 24.094-0.8438zm-1318.8 170.28c23.156-0.083 43.729 0.2475 60.938 1.0937 275.72 13.561 464.24 86.247 548.22 225.19 115.6 144.62-1069.8 209.8-1292.9 182.62-245-4.4889-385.05-57.511-415.59-126.44-24.109-54.403-2.1429-99.603 12.062-146.34 21.923-72.134 246.33-92.794 445.72-102.53 94.042-4.5926 453.04-32.919 641.59-33.594z" fill="#1a1a1a" fill-opacity=".35417" filter="url(#d)"/><path d="m905.16 1286.6c-78.532-0.1989-56.051 78.731-35.544 130.51l76.674 193.6c12.281 31.009 78.127 175.11 89.967 210.84 5.5281 16.684 4.6852 59.077 21.646 72.813 27.56 22.319 58.685-17.397 13.778-131.53l-100.51-255.44c-26.617-67.647-63.012-118.74 67.733-56.418l526.68 263.32c143.18 74.842 150.87 152.46 153.8 277.56l16.543 624.18c8.4898 320.48 321.41 537.12 594.92 578.65 144.85 21.995 437.85-8.3124 653.68-41.318 378.22-57.839 731.92-571.91 847.12-1164.5 18.198-72.492-29.142-218.48 109.71-197.42 125.99-15.048 143.08-17.49 124.15 80.881-172.05 249.66-97.58 548.72 69.605 869.05l3.3555-2.536c45.92 121.94 124.16 197.3 230.94 219.55 87.79 18.289 301.29-18.911 432.11-46.312 254.72-93.114 312.19-284.62 393.75-472.8 86.141-198.75 209.54-525.29 257-742.21 22.729-103.62 41.581-160.36-168.79-183.26-519.52-44.264-1028.7-81.628-1526.9-111.7-134.43 12.714-227.2 32.084-275.68 66.818-89.756-25.666-181.12-30.999-277.22-26.788 0 0-100.52 2.4917-240.3 6.5939-440.79-20.203-865.71 11.701-1284.8 62.621-269.57-24.691-350.82-83.003-650.87-195.82-57.272-20.382-96.296-28.845-122.47-28.911zm2858.5 205.66c133.16-0.083 289.96 25.549 476.78 54.623-63.248 34.032-98.678 79.428-285.91 65.86-169.25 6.0678-236.46-62.689-336.71-107.22 45.247-9.2437 93.737-13.234 145.84-13.266zm-556.53 33.32c287.37 0.4067 583.13 132.67 510.45 500.35-104.85 530.42-407.96 980.41-752.2 1032.2-196.44 29.542-463.13 56.674-594.96 36.988-248.94-37.174-533.74-231.1-541.47-517.94l-15.06-558.64c-7.727-286.84 197.97-445.33 503.86-462.46 285.93-16.018 847.08-29.574 847.08-29.574 14.047-0.6057 28.161-0.9174 42.294-0.8974zm1805.1 76.355c167.9-0.7372 357.66 47.855 257.63 415.17-116.3 427.05-273.5 778.1-477.37 820.87-116.33 24.407-306.2 57.466-384.27 41.201-147.42-30.712-233.68-175.27-246.15-411.97l-19.547-371.08c-12.472-236.7 117.21-453.02 298.36-467.18 169.33-13.234 501.63-24.463 501.63-24.463 22.184-1.334 45.737-2.4307 69.722-2.5361z"/><path d="m3377.9 1526.8-382.16 271.66c-67.23 47.094-120.63 78.928-13.301 77.146 43.195 19.716 76.512 15.747 98.428-21.282l399.03-316.56z"/><path d="m4440.8 1629c169.33-13.234 501.65-24.453 501.65-24.453 177.47-10.671 441.66-7.1579 327.34 412.64-116.3 427.05-273.51 778.09-477.37 820.86-116.33 24.407-306.2 57.472-384.27 41.207-147.42-30.712-233.7-175.26-246.17-411.96l-19.553-371.09c-12.472-236.7 117.23-453.04 298.38-467.2z" fill="url(#c)" fill-rule="evenodd"/><path d="m5251.2 2083.5c-126.35 391.45-293.79 705.12-507.72 745.1-102.44 19.139-256.43 43.682-358.4 44.752 7.5126 2.2824 15.196 4.2535 23.059 5.8914 78.073 16.265 267.94-16.795 384.27-41.201 193.2-40.534 344.51-357.96 458.79-754.54z" fill="#fff" fill-rule="evenodd"/><path d="m3728.8 1767c-24.74 173.06-71.646 274.3-152.16 418.1-63.015 203.85-132.26 413.93-209.46 631.97 234.48-280.1 387.39-619.83 361.63-1050.1z"/><path d="m2317.7 1556.1c285.93-16.018 847.08-29.598 847.08-29.598 299.68-12.917 629 113.69 552.75 499.45-104.85 530.42-407.94 980.43-752.18 1032.2-196.44 29.542-463.14 56.684-594.97 36.997-248.94-37.174-533.73-231.11-541.46-517.95l-15.048-558.65c-7.727-286.84 197.95-445.32 503.84-462.46z" fill="url(#b)" fill-rule="evenodd"/><path d="m3671.5 2212.7c-134.6 430.36-412.48 772.57-723.13 816.5-200.8 28.393-473.42 54.465-608.19 35.544-100.51-14.112-206.74-51.746-298.98-109.09 98.003 74.338 217.21 122.76 329.18 139.48 131.83 19.687 398.52-7.4459 594.96-36.988 302.97-45.562 574.03-399.61 706.16-845.45z" fill="#fff" fill-rule="evenodd"/><path d="m905.16 1286.6c-36.312-0.092-47.917 15.976-49.317 38.743 5.0464-0.989 10.817-1.4993 17.401-1.4826 26.177 0.067 65.201 8.5293 122.47 28.911 300.05 112.82 381.31 171.13 650.87 195.82 868.73-123.15 1074.7-81.824 1739-78.335-169.89-33.105-277.8-25.767-422.21-21.547-440.79-20.203-865.71 11.701-1284.8 62.621-269.57-24.691-350.82-83.003-650.87-195.82-57.272-20.382-96.296-28.845-122.47-28.911z" fill="#4d4d4d"/><path d="m3498.1 1458.3c56.956-3.862 156.74-32.319 214.27-37.598 217.7 17.079 1571.2 93.118 1571.2 93.118 0 0-1028.7-81.628-1526.9-111.7-119.98 11.347-206.74 28.04-258.48 56.184z" fill="#333"/><path d="m3920.3 1652.3c185.25 30.375 214.68-46.459 277.93-80.491-105.26 48.562-160.28 38.671-246.02 43.23 0 0-155.86 16.937-31.916 37.261z" fill="#999"/><path d="m3846.8 1834c-60.01 28.672-32.506 134.01-47.093 192.12-65.057 334.67-206.17 644.27-384.82 860.82 193.69-217.44 347.85-543.71 416.73-898.08 10.674-42.518-1.1967-110.3 15.178-154.86z" fill="#333"/><g fill="#fff"><g><path d="m1809.3 1529.8s-79.966 45.599-124.32 47.999c-62.284 3.3691-180.82-48.172-180.82-48.172l180.82 14.378z"/><path d="m3085.7 2992.2c-75.533 65.062-124.54 81.477-227.76 49.941 0 0 50.987-66.204 113.88-66.204 62.895 0 113.88 16.263 113.88 16.263z"/><path d="m4925.2 2761.3s-57.349 51.155-97.29 51.155c-39.941 0-47.35 38.218-47.35 23.756s32.379-76.126 72.32-76.126c39.941 0 72.32 1.2144 72.32 1.2144z"/></g><path d="m4759.9 1636.5c1.9086 22.39 4.9735 93.996 9.0521 114.71 143.32-2.7572 187.28 118.89 199.38 172.22 54.606-8.8987 91.655-37.144 91.655-37.144 0 0 11.568-141.59 15.178-249.36-109.04-18.112-217.84-4.5497-315.27-0.4291z" fill-opacity=".78431"/><path d="m5241.4 1789.9c-129.25 128.88-131.34 164.57-120.94-114.28 60.084-9.7672 122.45 56.664 120.94 114.28z" fill-opacity=".78431"/></g></g></g></svg>
