<svg xmlns="http://www.w3.org/2000/svg" xmlns:xlink="http://www.w3.org/1999/xlink" viewBox="0 0 540 412"><defs><linearGradient id="b"><stop stop-color="#dcdcdc" offset="0"/><stop stop-color="#e5e5e5" stop-opacity=".678" offset=".5"/><stop stop-opacity=".278" offset="1"/></linearGradient><linearGradient id="a"><stop stop-color="#ffba02" offset="0"/><stop stop-color="#cfab19" offset=".673"/><stop stop-color="#c58022" offset=".841"/><stop stop-color="#a86a00" offset=".905"/><stop stop-color="#352100" offset="1"/></linearGradient><linearGradient id="d" x1="5.938" xlink:href="#a" gradientUnits="userSpaceOnUse" y1="354.37" gradientTransform="translate(-258.3 -1704) scale(5.7089)" x2="76.562" y2="380.44"/><linearGradient id="e" x1="42.808" xlink:href="#a" gradientUnits="userSpaceOnUse" y1="379.41" gradientTransform="translate(-258.3 -1704) scale(5.7089)" x2="96.695" y2="377.81"/><linearGradient id="m" x1="-46.018" xlink:href="#b" gradientUnits="userSpaceOnUse" y1="379.97" gradientTransform="translate(-244.92 -1538.1) scale(5.3205)" x2="79.092" y2="379.97"/><radialGradient id="k" xlink:href="#b" gradientUnits="userSpaceOnUse" cy="380.16" cx="40.305" gradientTransform="matrix(3.8659 -1.3527 .68097 1.9462 -444.94 -200.71)" r="32.269"/><linearGradient id="j" x1="-41.979" xlink:href="#b" spreadMethod="reflect" gradientUnits="userSpaceOnUse" y1="344.48" gradientTransform="translate(-248.21 -1620.7) scale(5.4079)" x2="72.25" y2="344.48"/><radialGradient id="h" xlink:href="#b" gradientUnits="userSpaceOnUse" cy="343.46" cx="40.305" gradientTransform="matrix(6.6983 2.1132 -.54587 1.7303 -112.73 -443.07)" r="32.269"/><linearGradient id="l" x1="7.679" xlink:href="#b" spreadMethod="reflect" gradientUnits="userSpaceOnUse" y1="383.38" gradientTransform="translate(-258.3 -1704) scale(5.7089)" x2="72.217" y2="383.38"/><linearGradient id="i" x1="7.679" xlink:href="#b" spreadMethod="reflect" gradientUnits="userSpaceOnUse" y1="339.89" gradientTransform="translate(-258.3 -1704) scale(5.7089)" x2="72.217" y2="339.89"/><linearGradient id="c" x1="16.938" xlink:href="#a" gradientUnits="userSpaceOnUse" y1="333.75" gradientTransform="translate(-258.3 -1704) scale(5.7089)" x2="72.875" y2="340.71"/><linearGradient id="f" x1="52.254" xlink:href="#a" gradientUnits="userSpaceOnUse" y1="324.77" gradientTransform="translate(-258.3 -1704) scale(5.7089)" x2="94.002" y2="344.95"/><radialGradient id="g" xlink:href="#a" gradientUnits="userSpaceOnUse" cy="361.95" cx="58.356" gradientTransform="matrix(7.4716 0 0 2.0091 -346.26 -364.9)" r="37.022"/></defs><path style="block-progression:tb;text-transform:none;text-indent:0" fill="url(#c)" d="M59.611 158.32c10.425 23.065 11.086 45.46 16.948 68.506s17.343 46.555 49.061 69.934c4.004 2.951 7.967 9.601 12.488 15.878 2.26 3.138 4.65 6.25 7.85 8.563s7.245 3.713 11.775 3.39l-.535-7.671c-2.655.189-4.517-.456-6.601-1.963s-4.198-3.938-6.244-6.78c-4.093-5.681-7.85-13.058-14.094-17.661-30.468-22.46-40.608-43.68-46.198-65.65-7.478-15.74-5.395-75.12-24.441-66.55z" color="#000" transform="translate(214.43 -155.49)"/><path style="block-progression:tb;text-transform:none;text-indent:0" fill="url(#d)" d="M178.78 400.42c-4.29-1.488-8.708-1.154-12.488.178-3.78 1.333-7.01 3.506-10.169 5.887-6.318 4.763-12.232 10.29-16.948 12.131-36.701 14.34-53.827 33.858-65.474 54.591-11.646 20.733-18.017 42.161-34.075 61.727 16.818 11.02 34.315-45.952 40.854-57.802 11.103-19.766 26.283-37.6 61.549-51.38 7.142-2.79 12.997-8.7 18.732-13.023 2.868-2.161 5.655-3.917 8.206-4.816 2.551-.9 4.8-1.051 7.315-.179z" color="#000" transform="translate(214.43 -155.49)"/><path style="block-progression:tb;text-transform:none;text-indent:0" fill="url(#e)" d="M134.72 399.35l-2.854 7.314c13.12 5.491 26.989 8.475 35.502 17.128 32.67 33.203 76.868 60.124 111.14 98.835 17.838-12.436-91.778-90.404-105.61-104.19-10.697-10.872-26.032-14.006-38.178-19.09z" color="#000" transform="translate(214.43 -155.49)"/><path style="block-progression:tb;text-transform:none;text-indent:0" fill="url(#f)" d="M276.55 203.64c-34.277 38.71-78.475 65.632-111.14 98.835-8.513 8.652-22.56 11.814-35.68 17.305l3.033 7.136c12.146-5.083 27.48-8.039 38.178-18.91 17.14-23.023 122.35-89.66 105.61-104.37z" color="#000" transform="translate(214.43 -155.49)"/><path fill-rule="evenodd" fill="url(#g)" d="M33.743 287.84c-61.165.557-124.14 6.398-180.4 32.072-16.29 7.814-34.798 19.365-37.975 38.628-2.295 21.15 17.262 35.743 34.11 44.11 47.232 22.987 100.47 30.199 152.38 33.169 20.572.434 41.41 1.997 61.858-.283 13.188-8.678 26.808-23.894 43.403-28.34 15.751 6.052 32.425 16.621 48.886 15.118 15.526.483 29.969-6.312 43.944-10.224 12.187 10.135 33.575 8.507 35.419-10.199 4.007-23.077 3.06-46.79 1.532-70.064 1.234-15.319-13.099-33.55-28.757-23.442-13.19 10.857-26.173-7-40.861-5.072-19.113-1.51-38.977 6.217-57.452 13.318-23.339-6.254-32.103-15.274-43.741-26.758-10.194-3.592-21.694-1.354-32.342-2.032z" transform="translate(214.43 -155.49)"/><path fill-rule="evenodd" d="M432.32 170.62c4.846 8.67 12.177 13.669 16.374 11.166 4.197-2.503 5.293-17.146.446-25.816-4.846-8.67-13.799-8.082-17.996-5.58s-3.67 11.56 1.176 20.23zM98.32 153.41c-1.543.537-3.105 1.041-4.638 1.606-1.298 12.043-2.61 27.63-3.033 34.788-.718 12.143-24.084 16.056-24.084 16.056s23.367 5.697 24.084 17.84c.434 7.346 1.885 23.55 3.211 35.68 1.477.49 2.978.957 4.46 1.427 1.024-12.133 1.606-31.297 1.606-54.056 0-22.352-.613-41.148-1.606-53.342zM58.17 171.6c-1.132.705-2.244 1.383-3.39 2.14-.776 7.857-1.71 16.839-1.962 21.23-.48 8.405-16.056 11.062-16.056 11.062s15.575 4.083 16.056 12.488c.275 4.803 1.294 15.129 2.14 23.37 1.018.63 1.993 1.367 3.034 1.963.673-8.426 1.07-21.536 1.07-37.108 0-14.312-.31-26.626-.892-35.145zM137.564 142.7c-1.08.223-2.133.48-3.211.714-1.487 12.709-3.406 35.814-3.925 45.136-.729 13.078-24.441 17.127-24.441 17.127s23.713 6.367 24.441 19.446c.523 9.39 2.434 32.673 3.925 45.314 1.065.225 2.144.497 3.211.713 1.33-11.793 2.32-35.959 2.32-64.403 0-28.33-.998-52.199-2.32-64.046zM181.451 136.1c-1.137.11-2.253.239-3.39.357-1.44 15.227-3.261 38.934-3.746 49.06-.729 15.209-24.441 19.982-24.441 19.982s23.713 7.27 24.441 22.479c.487 10.164 2.304 34.025 3.746 49.239 1.244.14 2.503.226 3.747.357 1.168-14.71 1.962-40.266 1.962-70.826 0-30.445-.801-55.903-1.962-70.647-.118.011-.239-.012-.357 0zM241.394 132.71c-6.092-1.403-3.809 6.391-5.185 10.14-1.875 13.054-3.259 26.189-4.61 39.291-2.888 8.585-11.54 13.286-19.014 17.386a111.143 111.143 0 0 1-14.008 5.97c11.045 4.272 22.638 9.21 30.393 18.519 4.305 5.222 2.855 12.358 3.967 18.572 1.32 12.82 2.814 25.626 4.71 38.374 4.144.183 8.876.926 7.93-4.676 2.968-30.99 3.029-62.186 2.515-93.289-.47-16.786-.913-33.624-3.13-50.288-1.067-.1-2.82.462-3.568 0zM271.008 132.71c-2.897 7.255 3.035 13.475 10.156 12.369 9.824 5.734 10.9 19.184 6.834 28.843-2.322 6.198-3.888 16.945-12.93 13.318-8.223-1.566-8.675 8.843-12.387 13.648-7.26 5.613-.12 10.173 2.467 16.517 1.424 7.798 8.041 10.796 15.276 8.623 6.226 3.39 6.885 13.52 9.356 20.102 1.912 8.888-1.731 20.22-10.923 23.415-8.56-4.524-12.656 15.59-2.498 10.704 7.017-1.346 10.975-8.285 16.988-11.746 7.59-2.953 5.128-10.777 5.932-17.254 1.771-9.67-2.546-19.128-1.868-28.803 6.773.022 15.479 6.954 20.74-.186 5.19-5.568 9.374-13.449 6.393-21.098-2.964-5.56-6.793-14.027-14.36-12.93-5.36.75-15.898 6.695-12.565-3.394.923-8.082 3.071-16.164 1.524-24.32.6-7.456-.48-13.88-7.964-17.23-5.989-3.84-10.85-11.13-18.745-10.4l-1.427-.178zm95.445 15.699c-4.68 5.655-14.742-.95-21.882 3.087-11.536 2.333-18.142 15.294-14.988 26.271 1.164 7.492 7.6 13.215 5.53 21.087-1.553 8.782 2.798 18.761-2.313 26.495-6.105 10.934-5.145 27.32 6.496 34.177 7.425 4.193 16.486 4.656 24.66 2.703 5.07 8.14 15.705-2.433 21.62-5.439 15.383-10.71 28.58-24.369 40.176-39.025 6.869-6.305 6.508-15.847-.287-22.02-8.896-11.195-18.774-21.717-29.552-31.099-8.738-6.178-17.325-13.565-27.883-16.263l-1.577.023zm-7.136 14.094c7.18-.332 2.02 11.96 4.06 17.251-.581 6.694 3.158 18.624-.08 21.855-10.711-3.802-19.241-12.846-22.712-23.585.491-9.462 9.765-15.74 18.732-15.521zm5.53 49.239c-.823 13.131-2.077 26.257-1.962 39.427-8.5.724-19.667-2.557-21.874-11.762-.82-7.77 5.518-13.82 9.99-19.402 3.962-3.615 8.669-6.748 13.847-8.264z"/><path style="block-progression:tb;text-transform:none;text-indent:0" d="M398.92 151.98c10.544 12.854 21.663 23.426 29.972 38.892 5.155 9.316 5.799 20.899 1.07 30.507-7.634 15.999-17.916 26.866-29.615 39.605 2.092-.686 4.18-1.288 6.245-1.962.118-.046.235-.138.356-.179.108-.034.25.035.357 0 2.364-.767 4.801-1.665 7.136-2.319.167.139.365.222.535.357 4.775-6.32 9.89-15.66 15.521-20.338 7.093-6 14.082-6.89 21.765-12.13.029-.597-.021-1.19 0-1.785.194-5.365.178-10.713 0-15.878.07-2.04.158-4.15.179-6.244-.017-.658.02-1.305 0-1.962.002-1.532-.148-3.095-.179-4.639-.051-1.255-.117-2.493-.178-3.746-2.445-1.515-9.684-3.173-11.775-4.995-9.69-7.74-14.265-15.642-22.835-24.62-1.227-1.352-2.262-2.867-3.39-4.281-5.012.297-9.988-1.947-15.164-4.282z" color="#000"/><path fill-rule="evenodd" d="M79.76 181.52a6.127 6.127 0 1 1-12.255 0 6.127 6.127 0 0 1 12.255 0zM123.006 174.47a6.127 6.127 0 1 1-12.255 0 6.127 6.127 0 0 1 12.255 0zM166.618 168.94a6.127 6.127 0 1 1-12.255 0 6.127 6.127 0 0 1 12.255 0zM218.159 163.41a6.127 6.127 0 1 1-12.255 0 6.127 6.127 0 0 1 12.255 0zM214.194 253.88a6.127 6.127 0 1 1-12.254 0 6.127 6.127 0 0 1 12.254 0zM163.735 247.87a6.127 6.127 0 1 1-12.255 0 6.127 6.127 0 0 1 12.255 0zM121.204 241.87a6.127 6.127 0 1 1-12.255 0 6.127 6.127 0 0 1 12.255 0zM80.48 232.29a6.127 6.127 0 1 1-12.255 0 6.127 6.127 0 0 1 12.255 0zM432.32 242.97c4.846-8.67 12.177-13.669 16.374-11.166 4.197 2.503 5.293 17.146.446 25.816-4.846 8.67-13.799 8.082-17.996 5.58s-3.67-11.56 1.176-20.23zM331.12 152.96c-8.575.196-17.001 2.833-21.162 7.888-5.968 7.08-5.674 15.483-2.52 23.17.286.697.425 1.287.756 1.973.418.974 1.011 2.003 1.512 2.958.71 1.354 1.424 2.642 2.267 3.944-.536 9.351-.627 18.75 0 28.1-5.345 7.807-8.392 16.808-5.542 25.308.302.9.56 1.907 1.008 2.793.195.438.252.728.504 1.15.385.65.75 1.363 1.26 1.973.431.64.985 1.348 1.51 1.972 5.549 6.74 18.5 9.373 29.476 7.23 1.906-.343 3.745-.833 5.542-1.314v-10.353c-3.009.502-6.133.77-9.321.657-3.05-.198-5.912-.813-8.566-1.808-4.107-1.63-7.032-4.003-8.817-6.737-.238-.364-.554-.774-.756-1.15-.062-.166.053-.329 0-.494-2.064-6.432 3.234-11.686 7.306-16.926 3.28-4.221 9.127-7.682 15.116-10.188a34.57 34.57 0 0 1 5.039-1.643v-7.724c-1.984-.489-4.004-1.058-5.795-1.807-5.988-2.507-11.835-5.803-15.116-10.024-2.982-3.839-6.33-7.652-7.306-11.996-.057-.255.039-.564 0-.822.87-5.05 3.987-9.935 10.833-12.653 2.654-.995 5.768-1.446 8.818-1.643 2.983-.106 5.736.23 8.565.657v-10.353c-2.022-.57-4.135-1.09-6.298-1.479-2.744-.536-5.455-.723-8.314-.657z"/><path d="M152.55 310.15c-4.407 16.448-51.054-12.363-128.44-26.958-196.55-37.07-248.56-63.278-235.17-101.25 29.24-84.139 341.11 73.199 363.61 128.21z" fill-rule="evenodd" stroke="url(#h)" stroke-width="2.854" fill="url(#i)" transform="translate(214.43 -155.49)"/><path style="block-progression:tb;text-transform:none;text-indent:0" fill="url(#j)" d="M-188.05 168.95c-.468.271-.903.557-1.352.845l44.446 19.941 29.574 13.351-37.686-14.872-41.573-14.196c-.391.392-.816.77-1.183 1.183l41.911 14.196.507.168 62.528 24.504 63.204 24.842 62.528 24.673c41.515 16.677 94.072 39.264 107.31 44.953.172-.414.174-.911.338-1.352-14.496-6.223-65.861-28.167-106.81-44.615l-62.528-24.673-63.035-24.842-54.248-24.335-43.939-19.772zm91.089 10.478l-.676.845-.676.676.676.169 114.41 62.36.507.169 62.697 22.814c.27.177.745.16 1.014.338 16.548 10.72 41.166 24.63 58.979 34.475-.814-1.23-1.834-2.584-2.873-3.887-17.945-9.974-39.654-22.284-54.248-31.771l-.507-.169-27.715-19.772-28.729-20.11.17-.169-.508-.168-.507-.338-18.758-13.351c-3.597-1.725-7.182-3.564-10.816-5.24l17.576 12.676-38.193-18.927-1.183-.507-27.715-13.858a589.967 589.967 0 0 0-14.196-5.07l32.278 16.224-60.5-17.238-.507-.169zm7.267 4.056l62.19 17.576 1.014.338 49.178 24.504.507.338.507.169 28.222 19.94 23.32 16.563-57.291-20.96-107.65-58.47zm-113.57 13.35c.042.678.069 1.356.169 2.028l.845.338.507.169 56.613 21.8 56.275 21.8.507.169 42.08 16.393-27.715-7.436h-1.352l-19.265 1.69-.507-.338-43.432-11.323v1.183c3.234 1.083 6.627 2.122 10.14 3.21l33.123 8.789.507.338h.676l19.94-1.69 41.236 10.816 1.52.507.508.338.169-.338 43.432 11.66 43.263 11.493c26.283 7.626 61.968 20.033 81.963 27.039.456-.487.927-.94 1.352-1.521-19.651-6.894-55.881-19.444-82.64-27.208l-43.77-11.66-43.093-11.154-.507-.17-55.262-21.63-49.178-32.447-2.704.507 42.249 28.222-48.502-18.59-56.444-21.8-.507-.168-2.197-1.014z" color="#000" transform="translate(214.43 -155.49)"/><path d="M152.55 413.59c-7.978-29.774-51.054 12.363-128.44 26.958-196.55 37.07-248.56 63.278-235.17 101.25 29.24 84.139 341.11-73.199 363.61-128.21z" fill-rule="evenodd" stroke="url(#k)" stroke-width="2.854" fill="url(#l)" transform="translate(214.43 -155.49)"/><path style="block-progression:tb;text-transform:none;text-indent:0" fill="url(#m)" d="M125.53 406.71c-19.672 8.483-54.78 23.52-80.639 32.754L2.327 453.43l-42.73 14.133-.166-.498-.499.498-1.496.498-40.57 13.135-19.618-1.995h-.665l-.5.332-32.587 10.641c-3.456 1.318-6.794 2.68-9.976 3.99v1.331l42.73-13.634.499-.498 18.954 2.161h1.33l27.268-9.145-41.4 19.952-.5.167-55.366 26.437-44.227 20.95c.304.583.659 1.109.997 1.662l44.227-20.95 47.718-22.612-41.567 34.251 2.66.665 48.385-39.405 54.369-26.104.499-.333 42.398-13.468 43.063-14.133c26.325-9.4 61.97-24.574 81.304-32.92-.418-.703-.882-1.24-1.33-1.83zm4.157 8.48c-13.026 6.888-64.734 34.176-105.58 54.369l-61.52 29.928-62.183 30.094-61.52 29.595-.498.166-1.663.665c1.17.107 2.28.269 3.492.332l36.08-17.458-29.097 16.128-2.494 1.33c.977.012 1.991.012 2.993 0l.332-.166 53.372-29.429 62.017-30.094 61.52-29.928c40.282-19.915 90.818-46.501 105.08-54.037-.163-.534-.164-.995-.333-1.496zm-2.162 8.812C110 435.922 85.78 452.755 69.498 465.735c-.264.216-.732.119-.997.332l-61.685 27.6-.5.166-69.831 46.887c2.301-.812 4.666-1.477 6.983-2.328.115-.04.218-.123.333-.166l63.676-42.56 56.364-25.27-22.945 19.95-10.142 8.98c3.022-1.585 6.018-3.218 8.978-4.821l3.824-3.326 27.268-23.942.499-.166c14.358-11.488 35.716-26.33 53.372-38.408 1.022-1.578 2.025-3.167 2.826-4.655z" color="#000" transform="translate(214.43 -155.49)"/><path style="block-progression:tb;text-transform:none;text-indent:0" d="M532.72 82.6c-3.185 0-5.709 5.992-5.709 13.38 0 3.314.567 6.227 1.427 8.563-.4.942-1.516 2.444-3.746 4.639-27.611 27.168-53.635 61.44-84.027 92.055.846 6.48 1.487 7.644 0 11.06 30.393 30.616 56.416 64.889 84.027 92.056 2.23 2.194 3.347 3.696 3.746 4.638-.86 2.337-1.427 5.25-1.427 8.564 0 7.388 2.524 13.38 5.709 13.38s5.887-5.992 5.887-13.38c0-5.005-1.278-9.302-3.032-11.596-.188-.247-.336-.518-.535-.714-1.014-2.02-2.466-4.11-4.817-6.423-27.035-26.6-53.041-60.946-84.028-92.055 30.986-31.109 56.993-65.455 84.027-92.055 2.35-2.313 3.803-4.402 4.817-6.422.2-.197.347-.468.535-.714 1.754-2.294 3.032-6.591 3.032-11.596 0-7.388-2.702-13.38-5.887-13.38z" color="#000"/></svg>