<svg xmlns="http://www.w3.org/2000/svg" width="440.387" height="335.827"><path d="M151.428 250.073c-.832.43-1.742 6.96-3.798 9.7-6.22 8.295-11.919 6.116-9.239 16.836.334 1.333 3.54 7.44 4.517 8.417 1.045 1.045 6.682 5.768 7.391 7.186 2.942 5.884 8.83 15.946 11.051 22.612.282.845-.92 3.434.924 5.308 3.313 3.368 3.122 5.6 3.122 5.6-.143 1.63-.28 7.675.806 8.402 3.673 2.456 12.626.952 18.625 1.05 6.348.103-.947-13.817-4.3-16.18-2.25-1.806-1.86-4.23-2.76-6.358-5.401-12.772-18.59-26.191-15.847-38.465 11.315-24.055 35.108-44.373 29.85-72.919m-26.797 66.677c11.889-.842 21.948-10.595 31.626-16.584 9.723-7.927 9.819-19.728 9.099-25.482-.815-6.512 13.073-11.58 25.6-12.593 12.25-1.225 32.102-5.418 42.546-11.96.182-.137.15-.105.24-.171-.302.239-.577.455.394-.24.315-.568 2.625-.438 12.508-7.505 21.784-13.262 23.476-12.287 34.339-23.15.944-.944 11.202.052 17.652-.205 4.786-.19 21.056-.696 28.732.41 3.47.501 6.259 1.733 8.226 3.701 4.559 4.558 10.443 7.583 15.18 12.321 1.53 1.529 2.202 4.653 3.7 6.15 1.792 1.793 7.324 4.46 8.415 6.098 1.893 2.84-.374 8.282 2.661 10.022 5.126 2.369 16.55.743 17.661-.714 3.019-2.342-4.472-11.395-8.158-13.4-8.116-5.447-13.508-15.62-22.224-20.889-4.936-5.204-7.481-9.495-11.846-11.677-6.595-3.752-12.921-4.877-19.59-6.83-4.092-1.197-8.313-3.158-12.803-4.894l-15.823-10.535 15.948 10.688 12.762 4.924c3.903-1.951 14.353-6.647 17.389-8.165 7.943-3.972 25.657 8.2 29.781 12.325 1.949 1.948 7.646 2.571 8.74 3.664 1.53 1.53 1.612 6.595 4.385 7.417.59.176 4.272.514 9.613-.462 5.158-.943 11.946-2.825 6.203-8.568-.913-.913-7.122-6.768-8.414-6.768-1.698 0-7.599-1.448-9.235-3.084-4.798-4.798-16.034-8.208-21.967-11.292-1.668-1.112-3.27-3.839-5.963-4.918-3.634-1.457-11.427-2.823-11.427-2.823s-16.903 3.812-20.671 5.697c-1.667.833-11.108.75-12.853.75.904-13.196-3.145-24.314-13.681-34.887-2.417-2.417-4.089-5.539-2.782-35.154.145-3.304-.325-11.529 2.692-14.546 1.349-1.35 4.151-2.526 5.5-3.17 1.465.964 7.176 3.007 9.601.581 3.064-3.063 13.086-3.583 17.97-2.74.765.132 3.93.024 5.26-.448.151.905 4.856 1.524 6.177.605 3.54-2.464 11.104-11.219 6.876-15.683-3.397-3.587.355.077-4.965-6.441-2.344-2.872-7.571-3.993-12.115-6.717-17.165-8.926-26.078-10.308-28.341-11.595-4.433-2.297-5.556-2.043-6.23-2.818-1.357-1.562-1.99-3.03-4.385-4.228-1.106-.392-7.827-1.982-8.256-1.62-2.769 2.768 6.102 10.335 1.821 8.195-3.645-1.823-16.826-7.023-16.826-7.023-4.568 1.229 6.458 10.457 5.329 12.715-1.326 2.65-6.053 9.632-7.54 11.118-6.41 1.76-13.026 3.61-18.315 8.183-13.735 4.244-46.593 61.56-40.044 65.287 2.787 1.394 22.842-3.617 12.738 4.315-2.444 1.92-11.821 19.208-12.74 20.127-1.42 1.42-5.635 4.09-6.563 5.946-1.403 2.805-15.571 8.016-17.855 10.47-79.632 17.347-68.663 42.398-81.683 41.397-6.665-.512-17.122-10.837-34.972-8.104-15.55 2.38-34.664 14.547-34.664 14.547l18.9-18.883c.005.005-57.5-10.058-48.784 32.009C28.699 214.365.677 215.988.677 215.988s24.387 22.434 43.471 16.072c5.117-1.705-8.056 34.155-2.278 28.033 8.764-9.286 49.415-52.67 67.58-48.15 2.755.325.23 3.52-3.134 10.763-4.052 8.722-11.62 14.272-11.62 14.272-3.153 3.584 23.809 2.897 33.316-11.309 8.339-12.46 8.966-22.407 9.145-24.589.423-5.187.058-8.23.189-9.561.562-5.732-.966 18.516.84 23.698.09.26 14.548 25.228 14.581 26.285 2.842 15.75-18.625 15.717-26.285 23.2-1.628 1.591 3.445 12.346 4.524 13.966 4.93 7.395 13.124 31.429 8.413 40.85-1.3 2.598-.024 1.366 1.234 5.14.782 2.347-2.162 5.699.618 8.551 1.991 2.043 19.094 1.688 19.441.364.529-2.526-.153-10.725-3.557-13.264-.848-.633-1.172-3.546-1.37-4.223-2.486-8.463-3.847-17.995-4.701-22.39" stroke="#000" stroke-width=".548"/></svg>