<svg viewBox="0 0 510 400" xmlns="http://www.w3.org/2000/svg" xmlns:xlink="http://www.w3.org/1999/xlink"><defs><linearGradient id="a"><stop stop-color="#fff" offset="0"/><stop stop-color="#fff" stop-opacity="0" offset="1"/></linearGradient><radialGradient id="c" cx="-468.08" cy="506.99" r="190.75" gradientTransform="matrix(-.95179 0 0 -.74654 -954.98 874)" gradientUnits="userSpaceOnUse"><stop stop-color="#ff4545" offset="0"/><stop stop-color="#d60000" offset=".632"/><stop stop-color="#ad0000" offset=".875"/><stop stop-color="maroon" offset="1"/></radialGradient><radialGradient id="d" cx="-568.72" cy="538.19" r="22.223" gradientTransform="matrix(4.4561 -3.3862 .8984 3.4334 1500.5 -3290.6)" gradientUnits="userSpaceOnUse" xlink:href="#a"/><linearGradient id="b" x1="-709.42" x2="-658.52" y1="557.28" y2="557.28" gradientTransform="translate(-2.143 .357)" gradientUnits="userSpaceOnUse" xlink:href="#a"/><radialGradient id="e" cx="-545.68" cy="512.21" r="20.629" gradientTransform="matrix(1 0 0 .89189 -13.132 36.184)" gradientUnits="userSpaceOnUse" xlink:href="#a"/></defs><path d="M269.16 251.459a1.112 1.112 0 0 0-.287.211c-11.307 24.031-11.958 50.607-34.658 67.653-.92.319-15.143 9.109-15.743 10.091-.728 1.193-2.373 13.293-2.483 15.048-.026 6.755 1.03 12.063 2.392 16.092.222.657-15.252 11.07-15.252 11.07s-2.755 5.864-.747 7.204c6.817 4.548 21.748-9.394 21.605-11.733-.616-10.036-2.148-28.89-1.125-32.206 1.328-2.747 27.904-17.167 29.885-18.62 2.36-3.355 20.132-62.107 21.28-66.71-.343-.097-3.83 1.31-4.866 1.9z" color="#000" style="block-progression:tb;text-indent:0;text-transform:none"/><g fill-rule="evenodd"><path d="M-709.71 551.35l18.415 39.038c9.508 7.194 18.667 9.47 23.43 6.357 13.649-8.922 4.959-21.244-2-31.58l-18.128-46.768c-23.496-6.752-26.32 16.059-21.717 32.953z" fill="url(#b)" transform="matrix(-1 0 0 1 -284.06 -321.731)"/><path d="M406.84 232.599c-2.11 23.436-3.147 59.448-7.875 82.219-1.834 8.833-1.525 4.988-6.781 13.09-3.543 18.649 9.23 18.255 10.62 6.18 3.96-32.05 3.71-67.559 4.876-94.32-.217-1.832 1.117-9.3-.84-7.17z" color="#000" fill="#520" style="block-progression:tb;text-indent:0;text-transform:none"/><path d="M380.98 239.309c21.293-6.704 77.153-18.591 80.532-23.383 4.875-6.915 13.395-11.29 19.28-5.361 3.196 10.122-66.883 21.616-92.954 28.263-1.753.12-8.383 2.956-6.858.481z" color="#000" fill="#520" style="block-progression:tb;text-indent:0;text-transform:none"/></g><g fill-rule="evenodd"><path d="M416.59 229.749c3.795 13.982 2.952 29.304 6.718 43.3 1.488 5.528 8.75 11.045 9.78 15.611 1.168 5.178-.139 7.101-4.381 9.097-2.174 1.023-5.028 2.755-7.068.754-1.756-1.723-1.258-4.787-.664-7.13 1.866-7.361.022-11.502-1.247-18.981-2.15-12.664-3.403-25.522-4.162-38.388-.066-1.118.313-6.886 1.025-4.263zM419.55 225.789c6.99 7.877 12.456 17.207 20.235 24.278 4.131 3.755 15.662 3.431 13.827 11.358-1.233 5.323-8.28 6.929-9.272.526-.994-6.406-7.156-10.012-10.822-14.95-5.051-6.801-10.523-13.344-14.73-20.721-.2-.35.512-.772.763-.49z" color="#000" style="block-progression:tb;text-indent:0;text-transform:none"/><path d="M196.69 12.619c67.203-.428 137.94 30.832 172.17 90.686 17.15 29.837 22.37 66.388 13.447 99.7-6.991 14.271-16.18 37.945-30.08 52.128-55.237 64.047-151.34 81.942-229.46 54.594-54.252-18.408-103.19-62.722-113.8-120.79-4.503-24.13-1.997-49.483 7.022-72.305 10.5-14.313 19.37-33.903 34.019-46.676 38.244-38.355 93.079-57.443 146.68-57.336z"/></g><path d="M318.63 221.939c-9.536.915-17.938 31.818-3.821 63.594-.8.803-10.814 15.703-10.863 16.719-.06 1.233 10.448 15.064 11.4 16.25.932 1.012 9.168 9.196 16.034 16.007 4.67 4.633 8.706 8.63 9.38 9.305.649.616 13.65 9.52 14.015 9.125-.976-1.37-8.887-10.287-17.643-20.242-11.488-13.062-24.43-27.91-25.073-29.852-.241-2.61 19.67-29.127 20.922-31.344-.782-36.775-7.825-50.189-14.35-49.562zM215.17 264.049a1.183 1.183 0 0 0-.375.042c-23.123 16.072-37.81 40.13-67.692 43.749-1.014-.196-18.734.335-19.806.919-1.301.708-13.47 18.294-14.5 19.848-3.604 6.19-5.45 11.623-6.334 16.045-12.302 5.838-27.584 1.85-26.841 12.561 0 0 27.412-1.359 28.52-3.584 4.756-9.542 17.587-35.014 20.284-37.516 2.676-1.818 34.724-.97 37.314-1.253 3.946-1.83 51.414-46.358 54.906-49.975-.262-.272-4.211-.829-5.474-.836z" color="#000" style="block-progression:tb;text-indent:0;text-transform:none"/><path d="M333.71 211.279c-9.904 19.88-116.23 111.91 33.629 80.545 23.717-4.964 65.892-44.098 59.482-94.452-5.206-40.894-53.201-81.743-76.71-79.191-24.09 2.614 6.237 47.665-16.4 93.099z"/><g fill-rule="evenodd"><path d="M-478.72 332c-105.35 0-190.75 71.387-190.75 159.44 0 11.616 1.49 22.934 4.313 33.844 15.26-17.524 36.275-33.306 61.719-46.688 55.016-28.934 130.88-46.781 214.62-46.781 31.427 0 61.739 2.52 90.25 7.188-25.95-62.283-96.796-107-180.16-107zm89.906 102.12c-83.358 0-158.82 17.779-213.31 46.438-25.925 13.635-47.054 29.706-62.094 47.438 20.087 70.063 95.517 122.16 185.5 122.16 105.35 0 190.75-71.387 190.75-159.44 0-17.144-3.258-33.649-9.25-49.125-28.884-4.832-59.654-7.469-91.594-7.469z" fill="url(#c)" transform="matrix(-1 0 0 1 -284.06 -321.731)"/><path d="M404.25 163.349c2.394-1.581 6.94 6.59 7.96 8.352 2.842 5.498 5.11 11.416 6.464 17.628-6.69 1.399-13.22-2.463-18.246-7.222-3.508-3.338-6.719-7.532-7.943-12.675-.473-3.503 2.833-5.374 5.433-4.638 3.42.217 3.147-2.762 6.333-1.445zM360.89 268.539c1.548.02 2.905.535 4.476 1.35 6.814 4.705 11.278 6.05 9.268 9.666-5.12 3.54-10.063 5.897-14.273 6.778-9.404 1.969-17.582 3.491-24.732 4.634-.132-.382-.187-.819-.186-1.324.546-3.833 5.503-9.533 8.024-12.128 4.894-4.416 8.93-4.687 14.325-8.447 1.176-.37 2.17-.542 3.098-.53z" fill="#fff"/></g><g fill-rule="evenodd"><path d="M432.16 232.439l-18.414 39.038c-9.508 7.194-18.667 9.47-23.43 6.357-13.65-8.921-10.44-25.54-3.358-34.793 23.458-30.651 9.704-38.92 25.245-39.208 11.624-.216 24.56 11.712 19.957 28.606z"/><path d="M427.5 226.039c-5.106-2.949-8.324 5.325-11.272 10.432l-10.645 18.438c-2.949 5.107-4.287 10.631.82 13.58s14.668 2.172 17.617-2.935l10.645-18.438c2.949-5.107-2.057-18.13-7.164-21.077z"/><path d="M426.06 257.149c1.816 3.892 4.994 12.906 2.595 12.969-2.73-2.667-2.942-5.472-5.47-8l2.876-4.969zM434.16 245.739c1.37 5.028 4.237 14.877 1.282 15.062-1.784-3.122-2.281-7.633-3.906-10.562l2.625-4.5z" color="#000" style="block-progression:tb;text-indent:0;text-transform:none"/></g><g fill-rule="evenodd"><path d="M407.37 221.409c-6.77 5.888 7.624 15.096 9.493 5.816 1.436-5.044-5.707-10.694-9.492-5.816zM394.12 242.139c-6.77 5.888 7.624 15.096 9.493 5.816 1.436-5.044-5.707-10.694-9.492-5.816z" fill="#f2f2f2"/><path d="M340.69 170.349c-53.576 23.207 41.062 92.639 51.76 32.698 8.225-32.579-45.547-80.638-51.76-32.698z"/><path d="M379.93 207.549c-3.39 11.824-6.586 20.645-12.932 31.281-10.6-21.9-13.913-52.062 12.933-31.281zM382.79 168.949c.81-.018 1.624.007 2.47.094.029 1.15.062 2.312.062 3.469 0 11.144-.325 17.002-2.928 27.5-15.95-11.994-22.56-31.143.397-31.062z" fill="#fff"/></g><g fill-rule="evenodd"><path d="M189.22 137.239c17.217 2.043 27.284 24.241 17.678 38.667-6.484 12.737-21.898 19.975-35.748 15.789-11.207-2.452-21.911-12.747-19.634-25.011 2.145-18.068 20.552-29.524 37.705-29.445zM215.13 59.669c9.412.267 17.796 4.8 23.587 11.143 10.992 12.04 12.643 30.604-5.75 38.91-20.364 9.196-45.246-14.791-41.48-34.73 1.497-7.927 16.575-15.524 23.644-15.323zM230.8 259.009c16.14.632 32.822 13.965 32.43 32.663-1.89 18.407-22.728 24.398-36.57 18.76-14.758-4.76-27.574-25.019-18.245-40.912 5.631-7.7 13.932-10.842 22.386-10.511zM47.4 192.529c22.7-1.537 32.562 28.67 23.95 46.016-17.363 19.39-47.131-5.877-40.496-27.862.958-8.601 6.745-18.275 16.547-18.154zM278.95 26.639c14.73 6.075 28.408 13.686 40.689 22.594-1.066 20.252-40.708 17.39-46.5-3.031-3.88-10.727-.56-16.837 5.812-19.562zM89.69 39.429c2.829.256 5.523.951 7.904 2.123 14.195 12.6-4.29 34.2-20.384 29.387-6.297-.696-13.39-4.883-13.3-11.995a17.375 17.375 0 0 1 0-2.072c7.802-6.545 16.417-12.393 25.73-17.443.017.001.034-.002.051 0z"/></g><path d="M-451.23 407.75c11.027 42.14-24.372 109.99-79.064 151.55-54.692 41.561-107.97 41.091-118.99-1.049-11.027-42.14 24.372-109.99 79.064-151.55 54.692-41.56 107.97-41.09 118.99 1.05z" fill="url(#d)" fill-rule="evenodd" transform="matrix(-1 0 0 1 -284.06 -321.731)"/><path d="M-538.62 478.51c2.314 6.254-4.85 17.816-16.004 25.823-11.153 8.008-22.07 9.43-24.385 3.176-2.314-6.254 4.851-17.816 16.004-25.823 11.153-8.008 22.07-9.43 24.385-3.176z" fill="url(#e)" fill-rule="evenodd" transform="matrix(-1 0 0 1 -284.06 -321.731)"/></svg>