<svg xmlns="http://www.w3.org/2000/svg" xmlns:xlink="http://www.w3.org/1999/xlink" height="289.335" width="240.237"><defs><linearGradient id="h"><stop offset="0"/><stop offset="1" stop-opacity="0"/></linearGradient><linearGradient id="i"><stop offset="0" stop-color="#a19e83"/><stop offset=".409" stop-color="#6b5e3e"/><stop offset="1" stop-color="#31220d"/></linearGradient><linearGradient id="e"><stop offset="0" stop-color="#a19e83"/><stop offset=".399" stop-color="#6b5e3e"/><stop offset="1" stop-color="#31220d"/></linearGradient><linearGradient id="b"><stop offset="0" stop-color="#a19e83"/><stop offset=".5" stop-color="#6b5e3e"/><stop offset="1" stop-color="#9a7643"/></linearGradient><filter id="t" color-interpolation-filters="sRGB"><feGaussianBlur stdDeviation="1.974"/></filter><filter height="1.141" y="-.071" width="1.539" x="-.27" id="L" color-interpolation-filters="sRGB"><feGaussianBlur stdDeviation=".806"/></filter><filter id="z" color-interpolation-filters="sRGB"><feGaussianBlur stdDeviation=".501"/></filter><filter height="1.204" y="-.102" width="1.181" x="-.091" id="F" color-interpolation-filters="sRGB"><feGaussianBlur stdDeviation=".88"/></filter><filter height="1.224" y="-.112" width="1.17" x="-.085" id="y" color-interpolation-filters="sRGB"><feGaussianBlur stdDeviation="3.575"/></filter><linearGradient id="f"><stop offset="0" stop-color="#6d6d6d"/><stop offset=".226"/><stop offset="1"/></linearGradient><linearGradient id="c"><stop offset="0" stop-color="#7c8777"/><stop offset="1" stop-color="#fff" stop-opacity="0"/></linearGradient><linearGradient id="d"><stop offset="0" stop-color="#312c27"/><stop offset=".075" stop-color="#6a4931"/><stop offset=".567" stop-color="#120d09"/><stop offset="1" stop-color="#453021"/></linearGradient><linearGradient id="g"><stop offset="0" stop-color="#fff"/><stop offset="1" stop-color="#fff" stop-opacity="0"/></linearGradient><linearGradient id="a"><stop offset="0"/><stop offset=".5" stop-opacity="0"/><stop offset="1" stop-opacity="0"/></linearGradient><filter id="B" color-interpolation-filters="sRGB"><feGaussianBlur stdDeviation="1.872"/></filter><filter id="ar" color-interpolation-filters="sRGB"><feGaussianBlur stdDeviation="1.295"/></filter><filter id="ao" x="-.102" width="1.203" y="-.166" height="1.331" color-interpolation-filters="sRGB"><feGaussianBlur stdDeviation="1.749"/></filter><filter id="aq" color-interpolation-filters="sRGB"><feGaussianBlur stdDeviation="1.044"/></filter><filter id="V" color-interpolation-filters="sRGB"><feGaussianBlur stdDeviation="1.328"/></filter><filter id="m" color-interpolation-filters="sRGB"><feGaussianBlur stdDeviation=".511"/></filter><filter id="q" color-interpolation-filters="sRGB"><feGaussianBlur stdDeviation="3.536"/></filter><filter id="M" x="-.304" width="1.607" y="-.317" height="1.634"><feGaussianBlur stdDeviation="5.022"/></filter><radialGradient xlink:href="#b" id="l" gradientUnits="userSpaceOnUse" gradientTransform="matrix(.98589 -.1674 .21928 1.29148 227.9 -6.367)" cx="324.29" cy="342.259" fx="324.29" fy="342.259" r="114.092"/><radialGradient xlink:href="#a" id="s" gradientUnits="userSpaceOnUse" gradientTransform="matrix(1.50813 .5034 -.39327 1.17816 567.21 -89.103)" spreadMethod="reflect" cx="178.587" cy="350.938" fx="178.587" fy="350.938" r="24.124"/><linearGradient xlink:href="#b" id="x" gradientUnits="userSpaceOnUse" gradientTransform="rotate(-9.636 740.948 -1409.59)" x1="293.179" y1="312.601" x2="413.715" y2="447.497"/><radialGradient xlink:href="#h" id="an" gradientUnits="userSpaceOnUse" gradientTransform="matrix(1.35073 0 0 .80913 -228.54 58.452)" cx="655.899" cy="316.556" fx="655.899" fy="316.556" r="24.822"/><radialGradient xlink:href="#b" id="ap" gradientUnits="userSpaceOnUse" gradientTransform="matrix(3.89342 2.46699 -1.71911 2.71311 26.397 -1203.145)" cx="291.955" cy="320.46" fx="291.955" fy="320.46" r="39.646"/><radialGradient xlink:href="#b" id="am" gradientUnits="userSpaceOnUse" gradientTransform="matrix(1 0 0 1.4375 298.122 -117.146)" cx="380.939" cy="357.123" fx="380.939" fy="357.123" r="2.652"/><radialGradient xlink:href="#b" id="al" gradientUnits="userSpaceOnUse" gradientTransform="matrix(1 0 0 .23055 508.454 359.58)" cx="201.797" cy="165.938" fx="201.797" fy="165.938" r="5.422"/><radialGradient xlink:href="#b" id="ak" gradientUnits="userSpaceOnUse" gradientTransform="matrix(1 0 0 .19922 508.454 369.921)" cx="202.375" cy="172.359" fx="202.375" fy="172.359" r="4"/><radialGradient xlink:href="#b" id="aj" gradientUnits="userSpaceOnUse" gradientTransform="matrix(1 0 0 .19436 508.454 376.57)" cx="204.047" cy="179.574" fx="204.047" fy="179.574" r="4.078"/><radialGradient xlink:href="#b" id="ai" gradientUnits="userSpaceOnUse" gradientTransform="matrix(1 0 0 .22069 508.454 375.234)" cx="205.938" cy="183.926" fx="205.938" fy="183.926" r="5.188"/><radialGradient xlink:href="#b" id="ah" gradientUnits="userSpaceOnUse" gradientTransform="matrix(1 0 0 .15805 508.454 391.186)" cx="179.781" cy="189.188" fx="179.781" fy="189.188" r="5.969"/><radialGradient xlink:href="#b" id="ag" gradientUnits="userSpaceOnUse" gradientTransform="matrix(1 0 0 .22086 508.454 374.36)" cx="180.906" cy="182.844" fx="180.906" fy="182.844" r="5.094"/><radialGradient xlink:href="#b" id="af" gradientUnits="userSpaceOnUse" gradientTransform="matrix(1 0 0 .27356 508.454 359.435)" cx="181.047" cy="175.563" fx="181.047" fy="175.563" r="5.141"/><radialGradient xlink:href="#b" id="ae" gradientUnits="userSpaceOnUse" gradientTransform="matrix(1 0 0 .31845 508.454 347.943)" cx="179.438" cy="170.266" fx="179.438" fy="170.266" r="5.25"/><linearGradient xlink:href="#b" id="ad" gradientUnits="userSpaceOnUse" gradientTransform="translate(298.122 39.096)" x1="376.984" y1="323.856" x2="396.508" y2="310.068"/><linearGradient xlink:href="#b" id="ac" gradientUnits="userSpaceOnUse" gradientTransform="translate(298.122 39.096)" x1="376.984" y1="323.856" x2="396.508" y2="310.068"/><linearGradient xlink:href="#b" id="ab" gradientUnits="userSpaceOnUse" gradientTransform="translate(298.122 39.096)" x1="376.984" y1="323.856" x2="396.508" y2="310.068"/><linearGradient xlink:href="#b" id="aa" gradientUnits="userSpaceOnUse" gradientTransform="translate(298.122 39.096)" x1="376.984" y1="323.856" x2="396.508" y2="310.068"/><linearGradient xlink:href="#b" id="Z" gradientUnits="userSpaceOnUse" gradientTransform="translate(298.122 39.096)" x1="376.984" y1="323.856" x2="396.508" y2="310.068"/><linearGradient xlink:href="#b" id="Y" gradientUnits="userSpaceOnUse" gradientTransform="translate(298.122 39.096)" x1="425.551" y1="309.981" x2="435.028" y2="309.981"/><linearGradient xlink:href="#b" id="X" gradientUnits="userSpaceOnUse" gradientTransform="translate(298.122 39.096)" x1="425.551" y1="309.981" x2="435.028" y2="309.981"/><linearGradient xlink:href="#b" id="W" gradientUnits="userSpaceOnUse" gradientTransform="translate(298.122 39.096)" x1="425.551" y1="309.981" x2="435.028" y2="309.981"/><radialGradient xlink:href="#b" id="U" gradientUnits="userSpaceOnUse" gradientTransform="matrix(1 0 0 .70187 298.122 179.386)" cx="352.656" cy="470.572" fx="352.656" fy="470.572" r="8.755"/><radialGradient xlink:href="#b" id="T" gradientUnits="userSpaceOnUse" gradientTransform="matrix(1 0 0 .78625 298.122 139.89)" cx="340.618" cy="471.538" fx="340.618" fy="471.538" r="8.907"/><radialGradient xlink:href="#b" id="S" gradientUnits="userSpaceOnUse" gradientTransform="matrix(1 0 0 .67141 298.122 193.535)" cx="328.721" cy="470.014" fx="328.721" fy="470.014" r="9.04"/><radialGradient xlink:href="#b" id="R" gradientUnits="userSpaceOnUse" gradientTransform="matrix(1 0 0 .3314 298.122 348.635)" cx="433.788" cy="462.967" fx="433.788" fy="462.967" r="11.925"/><radialGradient xlink:href="#b" id="Q" gradientUnits="userSpaceOnUse" gradientTransform="matrix(1 0 0 .3932 298.122 321.166)" cx="425.994" cy="464.844" fx="425.994" fy="464.844" r="12.882"/><radialGradient xlink:href="#b" id="P" gradientUnits="userSpaceOnUse" gradientTransform="matrix(1 0 0 .47222 298.122 285.035)" cx="417.659" cy="465.988" fx="417.659" fy="465.988" r="12.245"/><linearGradient xlink:href="#b" id="O" gradientUnits="userSpaceOnUse" gradientTransform="translate(298.122 39.096)" x1="448.538" y1="480.19" x2="399.521" y2="456.502"/><radialGradient xlink:href="#f" id="N" gradientUnits="userSpaceOnUse" gradientTransform="matrix(1.76947 .16613 -.07903 .84172 -4.577 5.1)" cx="420.686" cy="322.81" fx="420.686" fy="322.81" r="8.425"/><radialGradient xlink:href="#g" id="K" gradientUnits="userSpaceOnUse" gradientTransform="matrix(5.53766 -.36703 .2028 3.05972 -1760.286 -472.906)" cx="438.241" cy="317.079" fx="438.241" fy="317.079" r="4.469"/><radialGradient xlink:href="#f" id="J" gradientUnits="userSpaceOnUse" gradientTransform="rotate(45 1071.727 -42.357) scale(2.54491 1.6598)" cx="422.527" cy="275.761" fx="422.527" fy="275.761" r="2.986"/><radialGradient xlink:href="#f" id="I" gradientUnits="userSpaceOnUse" gradientTransform="matrix(2.08548 1.20406 -.46357 .80293 -.23 -370.453)" cx="379.759" cy="267.204" fx="379.759" fy="267.204" r="11.703"/><radialGradient xlink:href="#b" id="H" gradientUnits="userSpaceOnUse" gradientTransform="matrix(.98589 -.1674 .14966 .88147 249.562 129.166)" cx="379.222" cy="272.921" fx="379.222" fy="272.921" r="11.703"/><radialGradient xlink:href="#b" id="G" gradientUnits="userSpaceOnUse" gradientTransform="matrix(.98589 -.1674 .14966 .88147 250.246 126.724)" cx="379.222" cy="272.921" fx="379.222" fy="272.921" r="11.703"/><radialGradient xlink:href="#b" id="E" gradientUnits="userSpaceOnUse" gradientTransform="matrix(.9112 -.41196 .66267 1.46576 149.674 65.97)" cx="354.302" cy="245.685" fx="354.302" fy="245.685" r="10.004"/><radialGradient xlink:href="#b" id="D" gradientUnits="userSpaceOnUse" gradientTransform="matrix(2.25913 .25789 -.39285 3.44134 -65.047 -1017.232)" cx="412.296" cy="382.868" fx="412.296" fy="382.868" r="12.949"/><radialGradient xlink:href="#i" id="C" gradientUnits="userSpaceOnUse" gradientTransform="matrix(2.16504 1.94477 -1.3709 1.52618 369.628 -825.259)" cx="349.091" cy="349.016" fx="349.091" fy="349.016" r="50.654"/><radialGradient xlink:href="#e" id="A" gradientUnits="userSpaceOnUse" gradientTransform="matrix(-.83111 1.43953 -1.53474 -.88608 1621.158 322.04)" spreadMethod="reflect" cx="305.061" cy="498.477" fx="305.061" fy="498.477" r="88.3"/><radialGradient xlink:href="#d" id="w" gradientUnits="userSpaceOnUse" gradientTransform="matrix(-1.15362 -2.52977 2.2368 -.59734 145.83 1099.568)" spreadMethod="reflect" cx="166.426" cy="319.063" fx="166.426" fy="319.063" r="24.124"/><radialGradient xlink:href="#d" id="v" gradientUnits="userSpaceOnUse" gradientTransform="matrix(0 2.76453 -2.29136 0 1500.379 -123.942)" spreadMethod="reflect" cx="166.426" cy="319.063" fx="166.426" fy="319.063" r="24.124"/><radialGradient xlink:href="#d" id="u" gradientUnits="userSpaceOnUse" gradientTransform="matrix(0 2.87098 -2.25067 0 1471.627 -146.48)" spreadMethod="reflect" cx="186.729" cy="332.467" fx="186.729" fy="332.467" r="24.124"/><linearGradient xlink:href="#b" id="r" gradientUnits="userSpaceOnUse" gradientTransform="translate(298.122 39.096)" x1="309.581" y1="510.486" x2="315.391" y2="448.968"/><radialGradient xlink:href="#b" id="p" gradientUnits="userSpaceOnUse" gradientTransform="matrix(-.62154 -.18543 1.9506 -6.53835 351.627 1005.453)" cx="23.375" cy="115.303" fx="23.375" fy="115.303" r="42.515"/><radialGradient xlink:href="#c" id="o" gradientUnits="userSpaceOnUse" gradientTransform="matrix(.98646 -.16397 .14196 .854 255.479 150.298)" cx="371.646" cy="403.449" fx="371.646" fy="403.449" r="71.331"/><linearGradient xlink:href="#a" id="n" gradientUnits="userSpaceOnUse" x1="744.268" y1="520.225" x2="658.211" y2="356.162"/><linearGradient xlink:href="#b" id="k" gradientUnits="userSpaceOnUse" gradientTransform="translate(508.454 231.899)" x1="174.612" y1="217.277" x2="169.305" y2="134.546"/><radialGradient xlink:href="#a" id="j" gradientUnits="userSpaceOnUse" gradientTransform="matrix(2.29717 -.39004 .1802 1.0613 -183.034 140.357)" cx="313.072" cy="490.138" fx="313.072" fy="490.138" r="69.957"/></defs><path style="text-indent:0;text-align:start;line-height:normal;text-transform:none;block-progression:tb;marker:none;-inkscape-font-specification:Sans" d="M657.039 352.186c-13.535 2.4-23.49 4.182-35.386 12.252-10.438 8.448-12.374 22.737-19.93 33.274-7.804 17.98-13.063 38.113-9.406 57.733 3.086 15.253 8.233 33.103 21.75 39.986 20.546 10.463 58.347 8.538 90.223 1.005-.055-.778 1.155-2.145 4.19-4.261 10.939-11.065 23.32-24.4 21.426-41.263.728-11.933-5.218-23.714-8.933-53.731-2.787-22.513-5.946-32.27-3.137-38.075.01-.022.01-.044.02-.067-10.785 8.468-28.702 8.92-40.385 1.85-19.836-16.21-18.426-4.904-20.432-8.703z" font-weight="400" color="#000" fill="url(#j)" overflow="visible" enable-background="accumulate" font-family="Sans" transform="translate(-506.711 -229.438)"/><path d="M661.58 351.836c-3.357-.164-3.403 2.48-4.532.344-13.534 2.4-23.51 4.18-35.406 12.25-10.438 8.448-12.35 22.744-19.906 33.281-7.804 17.98-13.063 38.099-9.407 57.719 3.087 15.253 8.233 33.117 21.75 40 20.547 10.463 58.344 8.533 90.22 1-.056-.778 1.152-2.134 4.187-4.25 10.94-11.065 23.3-24.419 21.406-41.281.728-11.934-5.191-23.702-8.906-53.719-2.787-22.513-5.966-32.257-3.157-38.062.01-.023.021-.072.032-.094-10.786 8.468-28.693 8.945-40.375 1.875-8.679-7.091-13.296-8.935-15.907-9.063z" style="text-indent:0;text-align:start;line-height:normal;text-transform:none;block-progression:tb;marker:none;-inkscape-font-specification:Sans" font-weight="400" opacity=".595" color="#000" fill="url(#k)" overflow="visible" enable-background="accumulate" font-family="Sans" transform="translate(-506.711 -229.438)"/><path d="M572.874 238.238c-15.313 3.07-21.518 19.882-22.414 33.784-6.365 34.51-29.307 63.697-33.414 98.862-12.616 75.408 13.235 118.41 87.26 129.662 12.69 2.556 14.886 14.78 27.224 15.886 21.825 1.95 36.127 1.564 30.684-2.953-2.612-2.545-12.23-9.389-12.12-10.246.312-.948 5.826-.35 8.42-.472 12.062-.566 28.43-4.936 51.206 7.597 9.498 4.546 20.77 4.174 31.448 2.489 11.314-5.33-1.483-11.98-5.873-15.153-5.546-4.01-14.462-1.043-20.503-1.043-2.498 0-14.048 1.082-6.068-4.482 10.94-11.065 23.337-24.395 21.442-41.257.729-11.934-5.237-23.708-8.952-53.725-3.716-30.017-8.055-37.397 1.91-42.903 8.18-8.203 1.372-19.07 1.2-28.634-.056-3.059 2.463-5.641 2.578-8.647.167-4.342-.801-8.928-2.756-12.74-4.309-8.405-12.808-14.905-19.935-20.842-.57-4.27-3.745-9.054-6.922-9.793-.98-.229-1.838-.074-2.387.594-1.418 2.693-.711 5.045-1.927 4.593a32.135 32.135 0 0 0-2.2-.832c-12.536-4.224-26.406-.47-39.313-.376-2.814-10.397-20.28-23.465-26.31-13.256-.867 1.467-1.73 3.86-1.814 5.922-.12 2.928 1.247 5.685 1.883 8.585 2.99 13.627 5.502 27.951-1.893 40.643-14.602 25.803-39.4 45.288-49.162 74-7.196 19.765-10.613 43.705 2.03 62.111 14.307 21.508 12.233 32.06-4.994 22.148-17.624-10.401-37.825-30.322-34.979-50.844 4.4-42.478 32.463-77.143 43.926-117.53 5.447-18.423 10.739-37.376 10.966-56.685-.325-9.337-9.068-16.317-18.241-14.463z" style="text-indent:0;text-align:start;line-height:normal;text-transform:none;block-progression:tb;marker:none;-inkscape-font-specification:Sans" font-weight="400" color="#000" fill="url(#l)" overflow="visible" filter="url(#m)" enable-background="accumulate" font-family="Sans" transform="translate(-506.711 -229.438)"/><path d="M661.58 351.836c-3.357-.164-3.403 2.48-4.532.344-13.534 2.4-23.51 4.18-35.406 12.25-10.438 8.448-12.35 22.744-19.906 33.281-7.804 17.98-13.063 38.099-9.407 57.719 3.087 15.253 8.233 33.117 21.75 40 20.547 10.463 58.344 8.533 90.22 1-.056-.778 1.152-2.134 4.187-4.25 10.94-11.065 23.3-24.419 21.406-41.281.728-11.934-5.191-23.702-8.906-53.719-2.787-22.513-5.966-32.257-3.157-38.062.01-.023.021-.072.032-.094-10.786 8.468-28.693 8.945-40.375 1.875-8.679-7.091-13.296-8.935-15.907-9.063z" style="text-indent:0;text-align:start;line-height:normal;text-transform:none;block-progression:tb;marker:none;-inkscape-font-specification:Sans" font-weight="400" opacity=".595" color="#000" fill="url(#n)" overflow="visible" enable-background="accumulate" font-family="Sans" transform="translate(-506.711 -229.438)"/><path style="text-indent:0;text-align:start;line-height:normal;text-transform:none;block-progression:tb;marker:none;-inkscape-font-specification:Sans" d="M661.58 351.836c-3.357-.164-3.403 2.48-4.532.344-13.534 2.4-23.51 4.18-35.406 12.25-10.438 8.448-12.35 22.744-19.906 33.281-7.804 17.98-13.063 38.099-9.407 57.719 3.087 15.253 8.233 33.117 21.75 40 20.547 10.463 58.344 8.533 90.22 1-.056-.778 1.152-2.134 4.187-4.25 10.94-11.065 23.3-24.419 21.406-41.281.728-11.934-5.191-23.702-8.906-53.719-2.787-22.513-5.966-32.257-3.157-38.062.01-.023.021-.072.032-.094-10.786 8.468-28.693 8.945-40.375 1.875-8.679-7.091-13.296-8.935-15.907-9.063z" font-weight="400" opacity=".595" color="#000" fill="url(#o)" overflow="visible" enable-background="accumulate" font-family="Sans" transform="translate(-506.711 -229.438)"/><path d="M576.267 237.93c-1.118-.032-2.26.08-3.406.313-15.313 3.07-21.512 19.879-22.407 33.78-6.365 34.511-29.3 63.71-33.406 98.876-12.303 73.614 38.842 132.343 91.084 127.4-33.664-34.882-11.004-6.16-30.87-16.723-1.754-.765-3.762-2.004-6.058-3.802-17.624-10.401-37.815-30.321-34.968-50.844 4.4-42.478 32.443-77.143 43.906-117.531 5.447-18.422 10.741-37.379 10.969-56.688-.284-8.17-7.02-14.56-14.844-14.781z" style="text-indent:0;text-align:start;line-height:normal;text-transform:none;block-progression:tb;marker:none;-inkscape-font-specification:Sans" font-weight="400" color="#000" fill="url(#p)" overflow="visible" filter="url(#q)" enable-background="accumulate" font-family="Sans" transform="translate(-506.711 -229.438)"/><path style="text-indent:0;text-align:start;line-height:normal;text-transform:none;block-progression:tb;marker:none;-inkscape-font-specification:Sans" d="M606.642 496.055l.562 5.313c10.205 3.669 12.982 14.046 24.313 15.062 21.824 1.95 36.13 1.58 30.687-2.937-1.728-1.685-6.453-5.25-9.468-7.72-16.236-.277-31.747-3.721-46.094-9.718z" font-weight="400" color="#000" fill="url(#r)" overflow="visible" enable-background="accumulate" font-family="Sans" transform="translate(-506.711 -229.438)"/><path style="marker:none" d="M694.048 382.711a11.937 11.937 0 0 0-4.031.782c-11.922 4.586-18.123 20.535-18.969 33.28-.5 7.528 2.701 16.145 8.5 20.97 5.335 4.438 14.084 7.08 20.406 4.218 11.638-5.266 18.251-20.559 18.97-33.312.37-6.6-2.939-13.754-7.813-18.219-4.432-4.06-11.045-7.862-17.063-7.719z" color="#000" fill="url(#s)" overflow="visible" filter="url(#t)" enable-background="accumulate" transform="translate(-506.711 -229.438)"/><path style="marker:none" d="M696.492 376.72c-1.552.03-3.053.255-4.5.718-13.327 4.264-20.273 19.09-21.218 30.938-.559 6.996 3.017 15.016 9.5 19.5 5.963 4.125 15.744 6.534 22.812 3.875 13.01-4.895 20.416-19.083 21.219-30.938.415-6.134-3.301-12.787-8.75-16.937-4.955-3.773-12.335-7.29-19.063-7.156z" color="#000" fill="url(#u)" overflow="visible" enable-background="accumulate" transform="translate(-506.711 -229.438)"/><path style="marker:none" d="M702.149 386.22c-12.217.444-17.8 12.958-16.313 23.53.942 6.696 3.866 16.624 15.531 16.72 11.666.096 17.652-15.148 18.469-26.563.423-5.907-3.384-12.316-15.156-13.625a19.44 19.44 0 0 0-2.531-.062z" color="#000" fill="url(#v)" overflow="visible" enable-background="accumulate" transform="translate(-506.711 -229.438)"/><path style="marker:none" d="M704.274 387.876c-1.824-.023-3.795.196-5.938.75-11.428 2.953-13.122 17.435-9.156 28.094 2.052 5.515 12.737 11.847 17.719 7.75 6.186-5.09 15.351-15.993 11.906-26.375-1.716-5.17-6.629-10.122-14.531-10.22z" color="#000" fill="url(#w)" overflow="visible" enable-background="accumulate" transform="translate(-506.711 -229.438)"/><path style="text-indent:0;text-align:start;line-height:normal;text-transform:none;block-progression:tb;marker:none;-inkscape-font-specification:Sans" d="M625.392 362.618c-18.787.682-54.892 36.025-15.5 39.406 15.475.647 38.49 2.435 51.719 7.469 3.462 1.317 5.2 3.462 9.125 6.406 3.887 2.916 8.03 7.596 12.875 7.969 4.845.372 10.325-2.705 12.406-4.313 0 0-14.346 2.648-15.563-1.5 6.993.343 11.543-2.37 16.188-5.062 0 0-16.095 1.242-15.75-1.25 5.714-.123 11.072-3.225 15.531-7.094-2.24 1.371-13.2 4.437-14.031.156-.928-4.776 12.504 1.105 13.719-4.969-8.77-2.238-18.12.723-27.094-.343-18.073-2.148-29.221-18.803-34.5-31-1.349-4.352-4.79-6.033-9.125-5.875zm71.031 42.03c.239-.145.42-.278.438-.374-.144.127-.293.249-.438.375z" font-weight="400" color="#000" fill="url(#x)" overflow="visible" filter="url(#y)" enable-background="accumulate" font-family="Sans" transform="translate(-506.711 -229.438)"/><path style="text-indent:0;text-align:start;line-height:normal;text-transform:none;block-progression:tb;marker:none;-inkscape-font-specification:Sans" d="M674.298 349.743l-.437.906s7.487 5.51 10.687 6.844c3.2 1.334 7.055 2.776 9.875 3.187 4 .583 8.423.852 12.25-.812.815-.355 1.62-1.156 2.313-1.875-.04.197-.115.394-.125.593-.025.464.04.96.375 1.344.779.893 1.975 1.266 3.28 1.375 1.307.11 1.876-.344 1.876-.344l2.75-2.593s-3.364 2.035-4.531 1.937c-1.168-.098-2.101-.43-2.625-1.031-.08-.092-.174-.3-.157-.625.017-.325.159-.743.282-1.125.232-.721.464-1.276.5-1.344l.062-.094-.812-.5-.063.063c-.045.059-.53.632-1.219 1.375-.722.778-1.68 1.631-2.312 1.906-3.527 1.534-7.782 1.324-11.719.75-2.615-.381-6.455-1.804-9.625-3.125s-10.625-6.812-10.625-6.812z" font-weight="400" color="#000" overflow="visible" filter="url(#z)" enable-background="accumulate" font-family="Sans" transform="translate(-506.711 -229.438)"/><path style="text-indent:0;text-align:start;line-height:normal;text-transform:none;block-progression:tb;marker:none;-inkscape-font-specification:Sans" d="M629.086 266.095c-1.254-.043-3.652.859-2.406.562.259-.061.513-.09.781-.125a9.499 9.499 0 0 1 2.313 0c.002-.286-.28-.423-.688-.437zm.688.437a.841.841 0 0 1-.125.438c-.867 1.467-1.73 3.874-1.813 5.937-.119 2.927 1.239 5.662 1.875 8.563 2.99 13.627 5.49 27.964-1.906 40.656-14.602 25.803-39.394 45.289-49.156 74-7.196 19.766-10.612 43.687 2.03 62.094 2.423 7.234 9.76 13.845 14.938 20.312-8.044-17.295-4.646-38.017 1.719-55.5 9.762-28.711 34.554-48.197 49.156-74 1.975-3.388 3.226-6.889 3.969-10.469v-19.437c-.546-3.607-1.283-7.2-2.062-10.75-.637-2.9-2.026-5.635-1.907-8.563 5.34-13.951 3.107-30.2-16.718-33.28z" font-weight="400" color="#000" fill="url(#A)" overflow="visible" filter="url(#B)" enable-background="accumulate" font-family="Sans" transform="translate(-506.711 -229.438)"/><path style="text-indent:0;text-align:start;line-height:normal;text-transform:none;block-progression:tb;marker:none;-inkscape-font-specification:Sans" d="M618.33 369.313c-2.682 8.591-1.416 31.507 44.843 39.648 3.649.642 5.2 3.432 9.125 6.375 3.888 2.916 8.03 7.627 12.875 8 4.846.373 10.325-2.704 12.406-4.312 0 0-14.346 2.617-15.562-1.531 6.992.343 11.542-2.37 16.187-5.063 0 0-16.407.586-16.062-1.906 5.9-.126 16.062-5.75 16.062-5.75s-9.985 2.184-14.78 1.656c-6.303-.693 14.25-7.125 14.25-7.125s-9.303 1.503-19.47 1.406l5.19-10.435-8.533 10.342c-7.416-.354-14.81-1.713-19-5.313-6.747-5.798-16.434-15.25-19.094-22.219 9.416-45.305-10.674-30.23-18.436-3.774z" font-weight="400" color="#000" fill="url(#C)" overflow="visible" enable-background="accumulate" font-family="Sans" transform="translate(-506.711 -229.438)"/><path style="text-indent:0;text-align:start;line-height:normal;text-transform:none;block-progression:tb;marker:none;-inkscape-font-specification:Sans" d="M717.814 394.989c-7.356 1.29-16.174 4.616-16.174 4.616.276.518 20.252-1.388 18.905.574-1.804 2.628-17.706 3.763-17.576 4.082 0 0 13.246 2.779 18.67 1.012 1.148 2.238-16.18 6.933-16.18 6.933s10.47 2.067 16.958-.565c-1.163 3.103-15.014 2.785-15.014 2.785s9.056 4.584 13.507 2.633c1.39-.61 3.05-.486 4.107-1.676.01-.01.017-.025.026-.036a3.98 3.98 0 0 0 .417-1.465c.099-1.17-.332-2.52-1.597-3.057a.522.522 0 0 0-.036-.026l-.581-.25c.093-.052.092-.073.2-.129 1.216-.628 3.124-1.425 3.946-3.079.62-1.246 1.029-2.598.384-3.9-.604-1.22-1.892-1.818-2.956-2.288-.139-.061-.178-.048-.267-.081.035-.044.08-.142.128-.18.162-.13.797-.432 1.39-.775.288-.168.615-.36.902-.66.3-.315.542-.749.576-1.271a4.538 4.538 0 0 0-.882-2.957c-.608-.831-1.496-1.53-8.853-.24z" font-weight="400" color="#000" fill="url(#D)" overflow="visible" enable-background="accumulate" font-family="Sans" transform="translate(-506.711 -229.438)"/><path style="marker:none" d="M633.086 263.97c-.894.076-1.828.35-2.781.78-5.084 2.3-5.094 8.559-1.531 16.438 3.562 7.88.947 19.142 6.03 16.844 3.108-1.405 9.174-8.717 9.188-13.125.01-2.804.542-8.686-.843-11.75-2.672-5.91-5.7-8.992-9.188-9.187a6.142 6.142 0 0 0-.875 0z" opacity=".972" color="#000" fill="url(#E)" overflow="visible" enable-background="accumulate" transform="translate(-506.711 -229.438)"/><path d="M655.926 294.746c-1.066.227-1.898.55-2.468.958-.327.233-.521.583-.655.999-.133.415-.216.904-.257 1.47-.082 1.13.017 2.515.264 3.98.493 2.931 2.749 5.289 4.701 6.968 2.561 2.202 6.056 3.883 10.23 4.063 2.089.09 4.052.006 5.61-.191.78-.099 1.451-.25 1.993-.402.541-.153.975-.268 1.267-.564.522-.529.665-1.412.742-2.535.077-1.123-.002-2.486-.222-3.924-.441-2.877-3.302-5.71-5.145-7.526a4.77 4.77 0 0 0-.263-.241c-2.552-2.162-5.062-3.333-9.089-3.497-2.013-.081-3.96.008-5.568.248-.402.06-.784.118-1.14.194z" style="text-indent:0;text-align:start;line-height:normal;text-transform:none;block-progression:tb;marker:none;-inkscape-font-specification:Sans" font-weight="400" opacity=".573" color="#000" fill="url(#G)" overflow="visible" enable-background="accumulate" font-family="Sans" transform="translate(-506.711 -229.438)"/><path d="M214.771 82.508a18.59 18.59 0 0 0-1.47 2.132c-.95 1.602-1.2 2.776-1.152 4.122.002.047.008.098.013.144.115 1.013.294 2.586 1.093 3.222.4.318.821.577 1.195.728.374.15.696.224.993.105.166-.066.298-.209.481-.396.183-.187.413-.432.638-.72.45-.579.955-1.342 1.446-2.173.981-1.662 1.318-3.282 1.26-4.639-.045-1.034-.225-2.293-1.028-2.958-.402-.333-.82-.6-1.197-.75a1.926 1.926 0 0 0-.53-.137.77.77 0 0 0-.478.096c-.36.21-.788.633-1.264 1.224z" style="text-indent:0;text-align:start;line-height:normal;text-transform:none;block-progression:tb;marker:none;-inkscape-font-specification:Sans" font-weight="400" opacity=".56" color="#000" overflow="visible" enable-background="accumulate" font-family="Sans"/><path style="text-indent:0;text-align:start;line-height:normal;text-transform:none;block-progression:tb;marker:none;-inkscape-font-specification:Sans" d="M664.805 283.938c-.387.002-.718.01-1.063.032a9.437 9.437 0 0 0-1.406.187c-.41.09-.797.229-1.094.375-.34.168-.567.425-.75.781-.182.356-.32.81-.437 1.313a12.053 12.053 0 0 0-.25 1.844c.58-.256 1.353-.438 2.312-.5.345-.023.739.002 1.125 0 1.547-.01 3.366.167 5.25.5 3.768.664 5.988 2.012 8.094 4.28.074.08.15.165.219.25 1.486 1.868 3.76 4.768 3.781 7.407.005.65-.009 1.285-.062 1.875.115-.041.217-.056.312-.125.564-.408.836-1.19 1.063-2.187.226-.998.322-2.243.312-3.563-.02-2.639-2.358-5.54-3.844-7.406-.068-.086-.113-.17-.187-.25-2.106-2.269-4.326-3.648-8.094-4.313-1.884-.332-3.734-.509-5.281-.5z" font-weight="400" opacity=".168" color="#000" fill="#fff" overflow="visible" filter="url(#F)" enable-background="accumulate" font-family="Sans" transform="translate(-506.711 -229.438)"/><path style="text-indent:0;text-align:start;line-height:normal;text-transform:none;block-progression:tb;marker:none;-inkscape-font-specification:Sans" d="M723.08 307.586c-.201.023-.417.087-.657.157-.16.046-.325.092-.5.156-.7.253-1.516.644-2.312 1.125-1.593.962-2.364 2.009-2.938 3.5-.02.052-.015.133-.031.187-.36 1.186-.931 3.015-.5 4.344.215.665.45 1.286.719 1.75.269.464.52.796.843.906a.48.48 0 0 0 .157.031 11.38 11.38 0 0 1-.344-.937c-.431-1.33.14-3.158.5-4.344.016-.054.042-.135.062-.187.574-1.492 1.345-2.538 2.938-3.5.796-.482 1.58-.872 2.281-1.125.175-.064.34-.141.5-.188.444-.129.851-.156 1.156-.125a6.703 6.703 0 0 0-.437-.875c-.136-.233-.264-.445-.406-.594a.9.9 0 0 0-.5-.28 2.012 2.012 0 0 0-.532 0z" font-weight="400" opacity=".366" color="#000" fill="#fff" overflow="visible" filter="url(#F)" enable-background="accumulate" font-family="Sans" transform="translate(-506.711 -229.438)"/><path style="text-indent:0;text-align:start;line-height:normal;text-transform:none;block-progression:tb;marker:none;-inkscape-font-specification:Sans" d="M721.517 304.524a.48.48 0 0 0-.281.031c-.527.181-8.477 3.95-10 8.313a5.55 5.55 0 0 0-.063.312c-.402 2.314-1.026 5.888-.281 8.563.372 1.337.79 2.587 1.219 3.53.43.945.839 1.657 1.312 1.907.08.042.134.054.219.063a31.72 31.72 0 0 1-.594-1.907c-.745-2.674-.12-6.248.281-8.562.019-.106.04-.21.063-.313.677-2.898 1.688-4.934 3.875-6.687 1.093-.877 2.177-1.565 3.156-2 .245-.109.495-.205.719-.281.623-.213 1.185-.28 1.625-.188-.378-1.126-.66-2.61-1.25-2.781z" font-weight="400" opacity=".112" color="#000" overflow="visible" filter="url(#F)" enable-background="accumulate" font-family="Sans" transform="translate(-506.711 -229.438)"/><path style="text-indent:0;text-align:start;line-height:normal;text-transform:none;block-progression:tb;marker:none;-inkscape-font-specification:Sans" d="M213.685 82.51c-.476.591-.995 1.333-1.47 2.134-.95 1.6-1.2 2.775-1.153 4.122.002.047.008.097.014.143.115 1.014.294 2.586 1.093 3.222.4.318.821.578 1.195.728.374.151.696.225.993.106.166-.067.298-.21.481-.397.183-.187.412-.432.638-.72.45-.578.954-1.341 1.445-2.173.982-1.662 1.319-3.282 1.26-4.639-.044-1.034-.224-2.293-1.027-2.958-.402-.333-.82-.599-1.197-.749a1.926 1.926 0 0 0-.53-.138.77.77 0 0 0-.478.096c-.361.21-.788.634-1.264 1.224z" font-weight="400" opacity=".56" color="#000" overflow="visible" enable-background="accumulate" font-family="Sans"/><path style="text-indent:0;text-align:start;line-height:normal;text-transform:none;block-progression:tb;marker:none;-inkscape-font-specification:Sans" d="M655.243 297.187c-1.067.228-1.898.551-2.469.958-.327.234-.521.583-.654.999-.133.416-.217.905-.258 1.47-.082 1.13.018 2.515.264 3.98.494 2.931 2.75 5.29 4.702 6.968 2.56 2.203 6.055 3.883 10.23 4.064 2.088.09 4.051.006 5.61-.192.78-.099 1.45-.25 1.992-.401.542-.154.976-.269 1.267-.564.523-.53.666-1.412.743-2.535.077-1.123-.002-2.486-.223-3.925-.44-2.877-3.302-5.71-5.145-7.526a4.77 4.77 0 0 0-.263-.24c-2.551-2.163-5.062-3.334-9.088-3.497-2.013-.082-3.96.008-5.568.248-.403.06-.785.117-1.14.193z" font-weight="400" color="#000" fill="url(#H)" overflow="visible" enable-background="accumulate" font-family="Sans" transform="translate(-506.711 -229.438)"/><path d="M656.046 297.23c-.926.196-1.646.477-2.141.83-.284.202-.452.505-.568.866-.115.36-.187.785-.223 1.275-.071.98.015 2.181.229 3.452.428 2.542 2.384 4.587 4.077 6.043 2.221 1.91 5.252 3.367 8.873 3.524 1.81.078 3.513.005 4.865-.166a11.988 11.988 0 0 0 1.728-.348c.47-.133.846-.233 1.099-.49.453-.458.576-1.224.643-2.198.067-.974-.002-2.156-.193-3.403-.382-2.496-2.863-4.953-4.462-6.528a4.12 4.12 0 0 0-.227-.208c-2.214-1.876-4.39-2.891-7.883-3.033-1.746-.07-3.434.007-4.829.215-.349.052-.68.102-.988.168z" style="text-indent:0;text-align:start;line-height:normal;text-transform:none;block-progression:tb;marker:none;-inkscape-font-specification:Sans" font-weight="400" color="#000" fill="url(#I)" overflow="visible" enable-background="accumulate" font-family="Sans" transform="translate(-506.711 -229.438)"/><path d="M720.738 312.666a15.57 15.57 0 0 0-1.23 1.786c-.797 1.34-1.006 2.324-.966 3.452.002.04.007.081.011.12.097.849.247 2.165.916 2.698.335.266.688.484 1 .61.314.126.584.188.832.088.14-.055.25-.175.403-.332a7.18 7.18 0 0 0 .534-.603c.377-.484.8-1.123 1.21-1.82.823-1.391 1.105-2.748 1.056-3.884-.037-.866-.188-1.92-.86-2.478-.337-.278-.687-.501-1.003-.627a1.613 1.613 0 0 0-.444-.115.643.643 0 0 0-.4.08c-.302.176-.66.53-1.059 1.025z" style="text-indent:0;text-align:start;line-height:normal;text-transform:none;block-progression:tb;marker:none;-inkscape-font-specification:Sans" font-weight="400" color="#000" fill="url(#J)" overflow="visible" enable-background="accumulate" font-family="Sans" transform="translate(-506.711 -229.438)"/><path style="marker:none" d="M722.68 324.938c-4.751 4.683-5.311 11.563-4.25 17.813.716 4.217 1.028 7.16 4.25 9.969 6.194-8.013.132-18.194-.031-27.22-.003-.19.015-.374.03-.562z" opacity=".185" color="#000" fill="url(#K)" overflow="visible" filter="url(#L)" enable-background="accumulate" transform="translate(-506.711 -229.438)"/><path style="marker:none" d="M667.524 320.345c-1.384 12.527 7.458 22.67 18.156 29.843 7.218 4.84 11.947 8.473 21.406 8.157-.913-18.94-25.684-25.032-38.812-37.157-.279-.256-.51-.567-.75-.843z" opacity=".142" color="#000" fill="#fff" overflow="visible" filter="url(#M)" enable-background="accumulate" transform="translate(-506.711 -229.438)"/><path d="M712.211 343.595a5.915 5.915 0 0 0-.687.062c-3.592.61-6.697 4.747-7.032 8.375-.172 1.865 1.215 3.85 2.782 4.875 1.86 1.217 4.414.92 6.625.688 2.117-.223 4.686-.345 6.062-1.97 1.394-1.645 1.894-4.426.969-6.374-1.466-3.085-5.287-5.829-8.719-5.656z" fill="url(#N)" fill-rule="evenodd" transform="translate(-506.711 -229.438)"/><path style="text-indent:0;text-align:start;line-height:normal;text-transform:none;block-progression:tb;marker:none;-inkscape-font-specification:Sans" d="M706.017 494.868c-6.707 3-13.674 5.45-20.875 7.25 7.247.911 15.394 3.187 24.594 8.25 9.497 4.546 20.76 4.154 31.437 2.468 11.314-5.33-1.485-11.982-5.875-15.156-5.546-4.01-14.458-1.031-20.5-1.031-1.974 0-9.61.683-8.781-1.781z" font-weight="400" color="#000" fill="url(#O)" overflow="visible" enable-background="accumulate" font-family="Sans" transform="translate(-506.711 -229.438)"/><path d="M704.374 499.302l-.839 5.613 24.491 5.952z" fill="url(#P)" fill-rule="evenodd" transform="translate(-506.711 -229.438)"/><path d="M715.311 498.875l-4.077 2.674 25.763 7.456z" fill="url(#Q)" fill-rule="evenodd" transform="translate(-506.711 -229.438)"/><path d="M729.136 498.11l-9.15 1.428 23.85 6.477z" fill="url(#R)" fill-rule="evenodd" transform="translate(-506.711 -229.438)"/><path d="M622.76 503.04l-4.957 4.491 18.08 7.648z" fill="url(#S)" fill-rule="evenodd" transform="translate(-506.711 -229.438)"/><path d="M635.92 503.63l-6.087 3.563 17.814 10.444z" fill="url(#T)" fill-rule="evenodd" transform="translate(-506.711 -229.438)"/><path d="M646.68 503.522l-4.658 3 17.51 9.29z" fill="url(#U)" fill-rule="evenodd" transform="translate(-506.711 -229.438)"/><path style="text-indent:0;text-align:start;line-height:normal;text-transform:none;block-progression:tb;marker:none;-inkscape-font-specification:Sans" d="M632.774 317.5c-4.032 3.912-8.072 7.804-12.094 11.72-14.763 24.3-37.975 43.35-47.344 70.906a126.747 126.747 0 0 0-2.187 6.562c-.008.032-.024.062-.032.094a96.393 96.393 0 0 0-.812 3.438c-1.605 9.006-1.96 18.137-.375 27 1.086 4.477 2.785 8.878 5.375 13.156.603-9.955.049-25.798 3.969-38.063 8.996-36.491 34.85-71.095 53.5-94.812z" font-weight="400" opacity=".684" color="#000" overflow="visible" filter="url(#V)" enable-background="accumulate" font-family="Sans" transform="translate(-506.711 -229.438)"/><path style="text-indent:0;text-align:start;line-height:normal;text-transform:none;block-progression:tb;marker:none;-inkscape-font-specification:Sans" d="M725.135 344.511l-.368.505 6.547 4.364z" font-weight="400" color="#000" fill="url(#W)" overflow="visible" enable-background="accumulate" font-family="Sans" transform="translate(-506.711 -229.438)"/><path style="text-indent:0;text-align:start;line-height:normal;text-transform:none;block-progression:tb;marker:none;-inkscape-font-specification:Sans" d="M724.283 341.482l.021.696 8.846-.587z" font-weight="400" color="#000" fill="url(#X)" overflow="visible" enable-background="accumulate" font-family="Sans" transform="translate(-506.711 -229.438)"/><path style="text-indent:0;text-align:start;line-height:normal;text-transform:none;block-progression:tb;marker:none;-inkscape-font-specification:Sans" d="M724.106 350.641l-.433.626 8.39 5.405z" font-weight="400" color="#000" fill="url(#Y)" overflow="visible" enable-background="accumulate" font-family="Sans" transform="translate(-506.711 -229.438)"/><path style="text-indent:0;text-align:start;line-height:normal;text-transform:none;block-progression:tb;marker:none;-inkscape-font-specification:Sans" d="M681.348 344.433l-26.041 7.844 26.212-7.253z" font-weight="400" color="#000" fill="url(#Z)" overflow="visible" enable-background="accumulate" font-family="Sans" transform="translate(-506.711 -229.438)"/><path style="text-indent:0;text-align:start;line-height:normal;text-transform:none;block-progression:tb;marker:none;-inkscape-font-specification:Sans" d="M686.608 345.71l-16.17 12.374 16.593-11.796z" font-weight="400" color="#000" fill="url(#aa)" overflow="visible" enable-background="accumulate" font-family="Sans" transform="translate(-506.711 -229.438)"/><path style="text-indent:0;text-align:start;line-height:normal;text-transform:none;block-progression:tb;marker:none;-inkscape-font-specification:Sans" d="M684.352 351.54l-10.072 14.375 10.625-13.993z" font-weight="400" color="#000" fill="url(#ab)" overflow="visible" enable-background="accumulate" font-family="Sans" transform="translate(-506.711 -229.438)"/><path d="M694.332 355.64l-5.428 7.746 5.726-7.54z" style="text-indent:0;text-align:start;line-height:normal;text-transform:none;block-progression:tb;marker:none;-inkscape-font-specification:Sans" font-weight="400" color="#000" fill="url(#ac)" overflow="visible" enable-background="accumulate" font-family="Sans" transform="translate(-506.711 -229.438)"/><path style="text-indent:0;text-align:start;line-height:normal;text-transform:none;block-progression:tb;marker:none;-inkscape-font-specification:Sans" d="M691.21 353.69l-5.427 7.746 5.725-7.54z" font-weight="400" color="#000" fill="url(#ad)" overflow="visible" enable-background="accumulate" font-family="Sans" transform="translate(-506.711 -229.438)"/><path d="M693.142 400.493l-10.5 1.375c.294.635.578 1.29.812 1.968l9.688-3.343z" fill="url(#ae)" fill-rule="evenodd" transform="translate(-506.711 -229.438)"/><path d="M694.642 406.055c-4.07.642-6.686 1.486-10.281 1.313.084.492.133.994.187 1.5l10.094-2.813z" fill="url(#af)" fill-rule="evenodd" transform="translate(-506.711 -229.438)"/><path d="M684.58 413.618c-.072.765-.172 1.515-.313 2.25l10.187-1.875-9.875-.375z" fill="url(#ag)" fill-rule="evenodd" transform="translate(-506.711 -229.438)"/><path d="M682.986 420.149c-.216.52-.468 1.008-.72 1.5 3.893 1.237 7.743-.88 11.938-1.5-4.024-.097-8.098 1.206-11.218 0z" fill="url(#ah)" fill-rule="evenodd" transform="translate(-506.711 -229.438)"/><path d="M709.204 414.68c3.279 1.064 6.416 2.409 10.375 2.281a18.063 18.063 0 0 1-1.312-1.718c-2.966.29-6.023-.183-9.063-.563z" fill="url(#ai)" fill-rule="evenodd" transform="translate(-506.711 -229.438)"/><path d="M715.986 410.68c-2.209.881-4.822 1.236-7.563 1.406 2.744.153 5.493.263 8.156.094-.21-.485-.416-.99-.593-1.5z" fill="url(#aj)" fill-rule="evenodd" transform="translate(-506.711 -229.438)"/><path d="M714.767 403.461l-7.938.907 8 .687a24.286 24.286 0 0 1-.062-1.594z" fill="url(#ak)" fill-rule="evenodd" transform="translate(-506.711 -229.438)"/><path d="M715.673 396.586l-10.844 2.5 10.407-.593c.129-.651.256-1.284.437-1.907z" fill="url(#al)" fill-rule="evenodd" transform="translate(-506.711 -229.438)"/><path d="M681.712 392.407l-5.303 6.806c.657.24 1.32.504 1.967.817z" fill="url(#am)" fill-rule="evenodd" transform="translate(-506.711 -229.438)"/><path style="text-indent:0;text-align:start;line-height:normal;text-transform:none;block-progression:tb;marker:none;-inkscape-font-specification:Sans" d="M634.63 296.164c-.284.03-.601.235-.938.75l-2.937 2.593c-2.503 1.521 1.92 3.65 2.562 5.375 9.706 16.69 26.626 24.115 45.344 24.47 1.87-.211 6.322 1.491 6.469-.782-2.44-.585-5.332.137-7.688-1.125-3.38-1.522-6.24-3.927-10-4.781-16.142.815-23.707-12.341-30.531-24.157-.775-.789-1.432-2.435-2.281-2.343z" font-weight="400" color="#000" fill="url(#an)" overflow="visible" filter="url(#ao)" enable-background="accumulate" font-family="Sans" transform="translate(-506.711 -229.438)"/><path style="text-indent:0;text-align:start;line-height:normal;text-transform:none;block-progression:tb;marker:none;-inkscape-font-specification:Sans" d="M621.518 383.916c11.06 8.744 30.039 17.38 46.416 25.461 3.294 2.187 6.447 5.575 9.5 7.406 2.703-1.348-1.64-3.761-.093-6.28.18-1.577 1.084-4.988-1.844-3.782-11.387.15-23.312-3.684-30.094-13.313-5.483-6.104-10.101-12.966-13.787-20.3-1.97-3.846-11.765 6.325-10.098 10.808z" font-weight="400" opacity=".53" color="#000" fill="url(#ap)" overflow="visible" filter="url(#aq)" enable-background="accumulate" font-family="Sans" transform="translate(-506.711 -229.438)"/><path style="text-indent:0;text-align:start;line-height:normal;text-transform:none;block-progression:tb;marker:none;-inkscape-font-specification:Sans" d="M645.992 332.22s-36.581 27.398-46.437 47.125c-13.49 26.997-26.223 54.762-13.375 89.53 3.566 10.609 1.132-22.938 2.562-26.374-6.918-38.234 57.25-110.281 57.25-110.281z" font-weight="400" opacity=".577" color="#000" overflow="visible" filter="url(#ar)" enable-background="accumulate" font-family="Sans" transform="translate(-506.711 -229.438)"/></svg>