<svg xmlns="http://www.w3.org/2000/svg" xmlns:xlink="http://www.w3.org/1999/xlink" width="617.576" height="580.784"><defs><linearGradient id="b"><stop offset="0" stop-color="#40556a"/><stop offset="1" stop-color="#6a8095"/></linearGradient><linearGradient id="a"><stop offset="0" stop-color="#404055"/><stop offset="1" stop-color="#6a8095"/></linearGradient><linearGradient id="c"><stop offset="0" stop-color="#80aaea"/><stop offset="1" stop-color="#6a8095"/></linearGradient><linearGradient id="d"><stop offset="0" stop-color="#fff"/><stop offset="1" stop-color="#fff" stop-opacity="0"/></linearGradient><filter id="o" x="-.046" width="1.093" y="-.214" height="1.428" color-interpolation-filters="sRGB"><feGaussianBlur stdDeviation="2.498"/></filter><filter id="B" color-interpolation-filters="sRGB"><feGaussianBlur stdDeviation=".818"/></filter><filter id="S" x="-.045" width="1.091" y="-.243" height="1.485" color-interpolation-filters="sRGB"><feGaussianBlur stdDeviation="4.001"/></filter><filter id="v" color-interpolation-filters="sRGB"><feGaussianBlur stdDeviation="4.139"/></filter><filter id="O" x="-.137" width="1.274" y="-.436" height="1.872" color-interpolation-filters="sRGB"><feGaussianBlur stdDeviation="1.827"/></filter><filter id="aa" color-interpolation-filters="sRGB"><feGaussianBlur stdDeviation="1.392"/></filter><filter id="T" x="-.63" width="2.26" y="-1" height="3" color-interpolation-filters="sRGB"><feGaussianBlur stdDeviation="3.578"/></filter><filter id="q" color-interpolation-filters="sRGB"><feGaussianBlur stdDeviation="3.215"/></filter><filter id="y" color-interpolation-filters="sRGB"><feGaussianBlur stdDeviation=".328"/></filter><clipPath clipPathUnits="userSpaceOnUse" id="j"><path d="M-347.93 119.635c46.845 14.977 45.495 41.45 41.428 68.572 11.645 5.93 18.577 12.225 17.857 19.107 13.646 22.563-20.813 25.612-36.071 24.107-26.936 1.463-51.332 5.813-67.857 19.107 31.007 54.435-4.952 114.968-33.214 120.179-4.324 1.329-8.56-5.636-6.397-15.843 3.802-17.943-2.863-42.54-19.259-58.767-4.26-4.216 4.575-5.954 8.008-16.243.406-1.215.247-2.75-.745-3.254-1.257-.639-2.13-.155-3.885 1.67-26.655 27.714-202.898 99.881-253.549 149.09-31.398 30.503-53.76 91.5-61.64 116.459-1.656 5.242-1.665 5.577-1.105 8.316.486 2.374 3.71 6.252 3.71 6.252 84.152 39.58 90.344 104.092 75.926 95.195-79.946-47.866-134.99-28.527-199.814 11.5-7.812 4.257-8.372-2.924-8.375-6.446-.051-51.504 62.93-92.65 88.74-101.452 8.235-2.809 5.336-4.504 5.17-7.549-9.022-165.734 81.66-300.588 99.643-318.571 13.444-13.443 28.259-41 21.429-52.857-4.7-8.157-29.186-6.07 4.643-27.857 15.353-8.661 31.257-7.37 50.227-1.008 2.273.762 5.7 2.694 8.701 2.436 2.1-.18 4.648-2.175 5.71-2.72 83.27-42.73 167.22-61.078 260.719-29.423z" fill="#6a8095"/></clipPath><filter id="w"><feGaussianBlur stdDeviation="1.19"/></filter><filter id="V"><feGaussianBlur stdDeviation="1.487"/></filter><filter id="z" x="-.072" width="1.144" y="-.147" height="1.294"><feGaussianBlur stdDeviation=".489"/></filter><filter id="Q" x="-.288" width="1.576" y="-.281" height="1.563"><feGaussianBlur stdDeviation="15.936"/></filter><filter id="m" x="-.301" width="1.601" y="-.32" height="1.641"><feGaussianBlur stdDeviation="13.551"/></filter><filter id="F"><feGaussianBlur stdDeviation="2.765"/></filter><filter id="ac" x="-.15" width="1.301" y="-.166" height="1.331"><feGaussianBlur stdDeviation="2.09"/></filter><filter id="H" x="-.288" width="1.575" y="-.325" height="1.649"><feGaussianBlur stdDeviation="25.068"/></filter><filter id="D" x="-.251" width="1.502" y="-.081" height="1.161"><feGaussianBlur stdDeviation="5.942"/></filter><radialGradient xlink:href="#a" id="l" gradientUnits="userSpaceOnUse" gradientTransform="matrix(.82942 -.51193 .32352 .52416 -178.616 -123.977)" cx="-505.036" cy="285.815" fx="-505.036" fy="285.815" r="61.567"/><radialGradient xlink:href="#b" id="n" gradientUnits="userSpaceOnUse" gradientTransform="matrix(1 0 0 .217 0 134.222)" cx="-401.748" cy="171.421" fx="-401.748" fy="171.421" r="64.592"/><radialGradient xlink:href="#b" id="p" gradientUnits="userSpaceOnUse" gradientTransform="matrix(1 0 0 .49776 0 110.937)" cx="-376.276" cy="220.885" fx="-376.276" fy="220.885" r="90.843"/><radialGradient xlink:href="#c" id="r" gradientUnits="userSpaceOnUse" gradientTransform="matrix(1 0 0 .6923 0 48.679)" cx="-424.695" cy="151.634" fx="-424.695" fy="151.634" r="12.477"/><radialGradient xlink:href="#a" id="u" gradientUnits="userSpaceOnUse" gradientTransform="matrix(.80204 1.27665 -1.5871 .99708 428.868 688.922)" cx="-587.415" cy="359.087" fx="-587.415" fy="359.087" r="84.548"/><radialGradient xlink:href="#a" id="x" gradientUnits="userSpaceOnUse" gradientTransform="matrix(1.68858 .0461 -.02387 .87431 290.966 39.198)" cx="-417.478" cy="159.703" fx="-417.478" fy="159.703" r="10.944"/><radialGradient xlink:href="#a" id="A" gradientUnits="userSpaceOnUse" gradientTransform="matrix(1.71544 1.14846 -.91597 1.36817 572.056 367.08)" cx="-422.965" cy="294.17" fx="-422.965" fy="294.17" r="37.939"/><radialGradient xlink:href="#b" id="C" gradientUnits="userSpaceOnUse" gradientTransform="matrix(1 0 0 3.11514 0 -969.873)" cx="-737.741" cy="458.539" fx="-737.741" fy="458.539" r="28.397"/><radialGradient xlink:href="#b" id="E" gradientUnits="userSpaceOnUse" gradientTransform="matrix(1.4619 .02887 -.00919 .46518 353.32 352.82)" cx="-752.396" cy="629.497" fx="-752.396" fy="629.497" r="98.969"/><radialGradient xlink:href="#c" id="G" gradientUnits="userSpaceOnUse" gradientTransform="matrix(1 0 0 .88592 0 32.026)" cx="-618.031" cy="280.739" fx="-618.031" fy="280.739" r="104.567"/><radialGradient xlink:href="#c" id="I" gradientUnits="userSpaceOnUse" gradientTransform="matrix(1 0 0 .69545 0 59.176)" cx="-469.685" cy="194.308" fx="-469.685" fy="194.308" r="30.279"/><radialGradient xlink:href="#c" id="L" gradientUnits="userSpaceOnUse" gradientTransform="matrix(1 0 0 .62284 0 55.99)" cx="-375.241" cy="148.45" fx="-375.241" fy="148.45" r="29.315"/><radialGradient xlink:href="#d" id="N" gradientUnits="userSpaceOnUse" gradientTransform="matrix(1 0 0 .31422 0 101.493)" cx="-379.873" cy="147.996" fx="-379.873" fy="147.996" r="16.008"/><radialGradient xlink:href="#b" id="P" gradientUnits="userSpaceOnUse" gradientTransform="matrix(1 0 0 1.02454 0 -6.083)" cx="-641.925" cy="247.855" fx="-641.925" fy="247.855" r="66.346"/><radialGradient xlink:href="#b" id="R" gradientUnits="userSpaceOnUse" gradientTransform="matrix(1 0 0 .18658 0 100.317)" cx="-490.733" cy="123.327" fx="-490.733" fy="123.327" r="106.11"/><linearGradient xlink:href="#b" id="U" gradientUnits="userSpaceOnUse" gradientTransform="translate(-2.525 -3.536)" x1="-630.213" y1="280.369" x2="-480.985" y2="280.369"/><radialGradient xlink:href="#c" id="W" gradientUnits="userSpaceOnUse" gradientTransform="matrix(1.29156 -.14607 .11446 1.2395 75.928 -108.903)" cx="-329.469" cy="221.607" fx="-329.469" fy="221.607" r="33.875"/><radialGradient xlink:href="#b" id="Z" gradientUnits="userSpaceOnUse" gradientTransform="matrix(1 0 0 .29442 0 134.907)" cx="-344.68" cy="191.201" fx="-344.68" fy="191.201" r="56.098"/><radialGradient xlink:href="#a" id="ab" gradientUnits="userSpaceOnUse" gradientTransform="matrix(.66481 -.22366 .58578 1.7412 -742.24 172.543)" cx="561.14" cy="62.576" fx="561.14" fy="62.576" r="16.668"/><radialGradient xlink:href="#b" id="K" gradientUnits="userSpaceOnUse" gradientTransform="matrix(.76819 -.64022 1.26539 1.51831 -256.586 -274.733)" cx="-302.68" cy="149.316" fx="-302.68" fy="149.316" r="30.734"/><radialGradient xlink:href="#a" id="t" gradientUnits="userSpaceOnUse" gradientTransform="matrix(1.1948 0 0 .73797 82.146 42.837)" cx="-430.166" cy="163.671" fx="-430.166" fy="163.671" r="11.176"/><radialGradient xlink:href="#b" id="k" gradientUnits="userSpaceOnUse" gradientTransform="matrix(1 0 0 .78387 0 72.393)" cx="-530.497" cy="373.227" fx="-530.497" fy="373.227" r="125.675"/><filter id="Y" x="-.05" width="1.099" y="-.165" height="1.329"><feGaussianBlur stdDeviation="2.32"/></filter><filter id="J" x="-.435" width="1.871" y="-.626" height="2.252"><feGaussianBlur stdDeviation="10.985"/></filter><filter id="s" x="-.323" width="1.646" y="-.524" height="2.048"><feGaussianBlur stdDeviation="3.464"/></filter><filter id="M" x="-.458" width="1.916" y="-.735" height="2.471"><feGaussianBlur stdDeviation="11.188"/></filter><filter id="X" x="-.321" width="1.642" y="-.833" height="2.667"><feGaussianBlur stdDeviation="9.947"/></filter><clipPath clipPathUnits="userSpaceOnUse" id="ad"><path d="M109.563 833.112a5.732 5.732 0 0 0-2.97 1.063c-5.69 4.052 3.401 6.393 6.313 11.437 2.786 4.826.497 12.792-2.344 15.219-27.09 23.152-52.22 66.752-68.5 110.531-.558 1.502-1.037 3.303-2.406 4.094-1.266.731-3.476.32-5.562.625-25.044 3.652-38.027 20.976-29.032 21.687 39.557-3.7 64.07 27.297 64.626 16.813 3.159-2.09-10.419-19.025-18.188-32.375-.652-1.12-1.71-2.037-1.813-3.281-.154-1.86 1.158-3.459 1.876-5.282 7.249-18.426 24.639-42.828 75.906-53.656 18.204-3.845 31.035-4.974 43.562-4.156-.695 3.471-2.69 7.714-7.906 13.25-17.824 11.765 22.844 19.5 28.156-10.406 14.094 3.31 38.688 16.593 38.688 16.593 3.949 2.488 5.693 3.85 9.406 6.47 4.632 3.265 12.046 4.065 12.719.843 1.603-7.673-8.235-13.572-7.938-18.438.55-9.01-1.906-13.113-7.594-23.218-17.14-30.456-62.963-44.373-89.53-48.094-4.477-.627-8.834-5.27-13.657-10.094-3.326-3.325-10.28-7.604-18.625-9-1.665-.278-3.467-.754-5.188-.625z" fill="url(#radialGradient4073)"/></clipPath><radialGradient xlink:href="#e" id="ae" gradientUnits="userSpaceOnUse" gradientTransform="matrix(1.88274 0 0 1.38743 -648.457 21.628)" cx="412.416" cy="650.652" fx="412.416" fy="650.652" r="66.413"/><linearGradient id="e"><stop offset="0" stop-color="#8095bf"/><stop offset=".218" stop-color="#8095bf"/><stop offset=".865" stop-color="#555580"/><stop offset="1" stop-color="#555580"/></linearGradient><filter color-interpolation-filters="sRGB" id="af"><feBlend mode="multiply" in2="BackgroundImage"/></filter><radialGradient xlink:href="#e" id="ag" gradientUnits="userSpaceOnUse" gradientTransform="matrix(1.7404 .85762 -2.33022 4.7288 961.512 -2564.89)" cx="440.899" cy="662.108" fx="440.899" fy="662.108" r="8.722"/><radialGradient xlink:href="#e" id="ah" gradientUnits="userSpaceOnUse" gradientTransform="matrix(.1827 .98317 -1.27815 .23753 1185.665 104.8)" cx="394.798" cy="687.697" fx="394.798" fy="687.697" r="30.457"/><filter id="ai" x="-.046" width="1.091" y="-.163" height="1.327" color-interpolation-filters="sRGB"><feGaussianBlur stdDeviation="1.156"/></filter><radialGradient xlink:href="#e" id="aj" gradientUnits="userSpaceOnUse" gradientTransform="matrix(2.14332 1.7318 -.49695 .61504 -201.566 -537.361)" cx="450.547" cy="630.958" fx="450.547" fy="630.958" r="10.621"/><filter id="ak" x="-.109" width="1.218" y="-.148" height="1.296" color-interpolation-filters="sRGB"><feGaussianBlur stdDeviation="1.022"/></filter><radialGradient xlink:href="#f" id="al" gradientUnits="userSpaceOnUse" gradientTransform="matrix(1.88274 0 0 1.90195 -648.457 -313.11)" cx="469.025" cy="648.737" fx="469.025" fy="648.737" r="8.409"/><linearGradient id="f"><stop offset="0" stop-color="#555580"/><stop offset="1" stop-color="#555580" stop-opacity="0"/></linearGradient><radialGradient xlink:href="#e" id="am" gradientUnits="userSpaceOnUse" gradientTransform="matrix(2.14332 1.7318 -.49695 .61504 -201.566 -537.361)" cx="450.693" cy="632.49" fx="450.693" fy="632.49" r="10.621"/><filter id="an" x="-.182" width="1.364" y="-.248" height="1.495" color-interpolation-filters="sRGB"><feGaussianBlur stdDeviation="1.707"/></filter><radialGradient xlink:href="#e" id="ao" gradientUnits="userSpaceOnUse" gradientTransform="matrix(1.30883 .89217 -.41853 .614 114.219 -159.802)" cx="454.273" cy="639.751" fx="454.273" fy="639.751" r="7.806"/><filter id="ap" x="-.315" width="1.63" y="-.424" height="1.848" color-interpolation-filters="sRGB"><feGaussianBlur stdDeviation="2.05"/></filter><radialGradient xlink:href="#g" id="aq" gradientUnits="userSpaceOnUse" gradientTransform="matrix(19.45694 13.55219 -3.02941 4.34934 -6712.903 -8507.058)" cx="466.969" cy="642.45" fx="466.969" fy="642.45" r="4.125"/><linearGradient id="g"><stop offset="0" stop-color="#6a6a95"/><stop offset="1" stop-color="#2b2b40"/></linearGradient><filter id="ar" color-interpolation-filters="sRGB"><feGaussianBlur stdDeviation=".831"/></filter><filter id="as" x="-.122" width="1.244" y="-.171" height="1.342" color-interpolation-filters="sRGB"><feGaussianBlur stdDeviation="2.469"/></filter><linearGradient xlink:href="#e" id="at" gradientUnits="userSpaceOnUse" x1="365.443" y1="660.698" x2="404.782" y2="660.698"/><filter id="au" x="-.107" width="1.214" y="-.101" height="1.203" color-interpolation-filters="sRGB"><feGaussianBlur stdDeviation="1.031"/></filter><filter id="av" x="-.388" width="1.777" y="-.778" height="2.556" color-interpolation-filters="sRGB"><feGaussianBlur stdDeviation="2.01"/></filter><radialGradient xlink:href="#e" id="aw" gradientUnits="userSpaceOnUse" gradientTransform="matrix(-.22373 1.66308 -3.32533 -.44735 2388.414 465.536)" cx="424.771" cy="636.475" fx="424.771" fy="636.475" r="16.683"/><radialGradient xlink:href="#e" id="ax" gradientUnits="userSpaceOnUse" gradientTransform="matrix(1.30883 .89217 -.41853 .614 140.826 -147.391)" cx="444.825" cy="645.191" fx="444.825" fy="645.191" r="7.806"/><filter id="ay" x="-.205" width="1.411" y="-.276" height="1.553" color-interpolation-filters="sRGB"><feGaussianBlur stdDeviation="1.336"/></filter><radialGradient xlink:href="#h" id="az" gradientUnits="userSpaceOnUse" gradientTransform="matrix(.9978 .06635 -.11486 1.7273 79.272 -513.877)" cx="458.832" cy="657.158" fx="458.832" fy="657.158" r="4.947"/><linearGradient id="h"><stop offset="0" stop-color="#8095bf"/><stop offset=".218" stop-color="#8095bf"/><stop offset=".415" stop-color="#555580"/><stop offset="1" stop-color="#555580"/></linearGradient><filter id="aA" x="-.174" width="1.348" y="-.277" height="1.553" color-interpolation-filters="sRGB"><feGaussianBlur stdDeviation=".718"/></filter><radialGradient xlink:href="#e" id="aB" gradientUnits="userSpaceOnUse" gradientTransform="matrix(1 0 0 .86263 -1.136 88.038)" cx="461.772" cy="645.467" fx="461.772" fy="645.467" r="7.72"/><filter id="aC" x="-.204" width="1.408" y="-.237" height="1.473" color-interpolation-filters="sRGB"><feGaussianBlur stdDeviation="1.313"/></filter><radialGradient xlink:href="#e" id="aD" gradientUnits="userSpaceOnUse" gradientTransform="matrix(-.11883 .88333 -1.76622 -.2376 1613.754 406.469)" cx="417.71" cy="637.657" fx="417.71" fy="637.657" r="16.683"/><filter id="aE" x="-.051" width="1.102" y="-.148" height="1.295" color-interpolation-filters="sRGB"><feGaussianBlur stdDeviation=".707"/></filter><filter id="aF" x="-.126" width="1.252" y="-.164" height="1.327" color-interpolation-filters="sRGB"><feGaussianBlur stdDeviation=".287"/></filter><radialGradient xlink:href="#i" id="aG" gradientUnits="userSpaceOnUse" gradientTransform="matrix(.90114 .43353 -.66085 1.37367 473.81 -444.365)" cx="465.212" cy="649.857" fx="465.212" fy="649.857" r="3.057"/><linearGradient id="i"><stop offset="0" stop-color="#8095bf"/><stop offset=".218" stop-color="#8095bf"/><stop offset=".421" stop-color="#555580"/><stop offset="1" stop-color="#555580"/></linearGradient><filter id="aH" x="-.338" width="1.676" y="-.33" height="1.661" color-interpolation-filters="sRGB"><feGaussianBlur stdDeviation=".98"/></filter><filter id="aI" x="-.136" width="1.272" y="-.176" height="1.352" color-interpolation-filters="sRGB"><feGaussianBlur stdDeviation=".309"/></filter><radialGradient xlink:href="#e" id="aJ" gradientUnits="userSpaceOnUse" gradientTransform="matrix(.6249 .98447 -.59535 -.1792 563.074 322.72)" cx="450.547" cy="630.958" fx="450.547" fy="630.958" r="10.621"/><filter id="aK" x="-.219" width="1.437" y="-.39" height="1.78" color-interpolation-filters="sRGB"><feGaussianBlur stdDeviation="1.204"/></filter><filter id="aL" color-interpolation-filters="sRGB"><feGaussianBlur stdDeviation=".083"/></filter><radialGradient xlink:href="#e" id="aM" gradientUnits="userSpaceOnUse" gradientTransform="matrix(.6249 .98447 -.59535 -.1792 557.392 310.472)" cx="450.547" cy="630.958" fx="450.547" fy="630.958" r="10.621"/><filter id="aN" x="-.514" width="2.028" y="-.426" height="1.852" color-interpolation-filters="sRGB"><feGaussianBlur stdDeviation="1.806"/></filter><radialGradient xlink:href="#e" id="aO" gradientUnits="userSpaceOnUse" gradientTransform="matrix(1 0 0 .65086 .357 212.919)" cx="425.298" cy="603.142" fx="425.298" fy="603.142" r="8.453"/><filter id="aP" x="-.086" width="1.172" y="-.132" height="1.264" color-interpolation-filters="sRGB"><feGaussianBlur stdDeviation=".605"/></filter><linearGradient xlink:href="#e" id="aQ" gradientUnits="userSpaceOnUse" x1="401.052" y1="608.546" x2="419.38" y2="608.546"/><filter id="aR" x="-.661" width="2.322" y="-.84" height="2.68" color-interpolation-filters="sRGB"><feGaussianBlur stdDeviation="3.511"/></filter><linearGradient xlink:href="#e" id="aS" gradientUnits="userSpaceOnUse" gradientTransform="translate(0 -.179)" x1="408.441" y1="638.549" x2="442.022" y2="638.549"/><filter id="aT" x="-.031" width="1.063" y="-.115" height="1.23" color-interpolation-filters="sRGB"><feGaussianBlur stdDeviation=".439"/></filter><linearGradient xlink:href="#e" id="aU" gradientUnits="userSpaceOnUse" gradientTransform="translate(-1.786 .357)" x1="339.206" y1="664.049" x2="371.189" y2="694.495"/><filter id="aV" x="-.096" width="1.192" y="-.183" height="1.366" color-interpolation-filters="sRGB"><feGaussianBlur stdDeviation="1.144"/></filter><radialGradient xlink:href="#e" id="aW" gradientUnits="userSpaceOnUse" gradientTransform="matrix(.94473 -.32784 2.76616 7.97132 -1894.396 -4700.277)" cx="374.545" cy="691.913" fx="374.545" fy="691.913" r="2.97"/><filter id="aX" x="-.503" width="2.007" y="-.363" height="1.726" color-interpolation-filters="sRGB"><feGaussianBlur stdDeviation="1.246"/></filter><radialGradient xlink:href="#g" id="aY" gradientUnits="userSpaceOnUse" gradientTransform="matrix(1 0 0 .77745 0 145.363)" cx="457.125" cy="653.751" fx="457.125" fy="653.751" r="11.693"/><filter color-interpolation-filters="sRGB" id="aZ"><feGaussianBlur stdDeviation=".306"/></filter><filter color-interpolation-filters="sRGB" id="ba" x="-.276" width="1.552" y="-.481" height="1.963"><feGaussianBlur stdDeviation="2.257"/></filter></defs><g transform="translate(892.84 -85.607)" clip-path="url(#j)"><path d="M-347.857 119.505c46.845 14.977 45.495 41.45 41.428 68.571 11.646 5.932 18.577 12.225 17.858 19.108 13.645 22.563-20.814 25.611-36.072 24.107-26.936 1.463-51.332 5.813-67.857 19.107 31.007 54.435-4.952 114.967-33.214 120.178-4.324 1.33-8.56-5.636-6.397-15.842 3.802-17.943-2.863-42.54-19.259-58.767-4.26-4.216 4.576-5.954 8.008-16.243.406-1.216.247-2.75-.745-3.255-1.257-.638-2.13-.154-3.885 1.67-26.655 27.715-202.898 99.882-253.549 149.09-31.398 30.504-53.76 91.501-61.64 116.46-1.656 5.242-1.665 5.576-1.105 8.316.486 2.374 3.71 6.251 3.71 6.251 84.153 39.581 90.344 104.093 75.926 95.196-79.945-47.866-134.99-28.527-199.814 11.5-7.812 4.256-8.372-2.924-8.375-6.447-.051-51.504 62.93-92.65 88.74-101.452 8.235-2.808 5.336-4.503 5.17-7.548-9.022-165.735 81.66-300.588 99.643-318.571 13.444-13.444 28.259-41 21.429-52.858-4.7-8.157-29.186-6.07 4.643-27.857 15.354-8.66 31.257-7.37 50.227-1.008 2.273.762 5.7 2.695 8.701 2.437 2.1-.18 4.648-2.175 5.71-2.72 83.27-42.73 167.22-61.079 260.719-29.423z" fill="#6a8095"/><path d="M-531.394 236.453c-24.705-.384-37.11 9.124-48.325 19.266-36.194 32.732-62.35 71.526-93.281 112.812-23.486 31.35-35.855 56.381-34.5 64.938a114.36 114.36 0 0 1 5.969-6.25C-654.618 381.642-500 316.374-456.25 284.969c-9.722-30.116-50.44-48.132-75.144-48.516z" fill="url(#k)"/><path d="M-437.938 208.625c-4.263 1.023-8.76 2.433-13.406 4.281.27.011.54.031.813.031.42 0 .836-.006 1.25-.03.308-.02.601-.062.906-.094.44-.047.881-.083 1.313-.157.094-.016.187-.045.28-.062a20.98 20.98 0 0 0 1.407-.313c.052-.013.104-.017.156-.03.492-.132.96-.304 1.438-.47.509-.177 1.009-.347 1.5-.562.021-.01.04-.022.062-.031.29-.128.593-.266.875-.407a21.976 21.976 0 0 0 .938-.5c.386-.217.754-.447 1.125-.687.024-.016.038-.047.062-.063.367-.24.743-.487 1.094-.75.066-.049.122-.106.188-.156zm-25.406 9.813c-6.157 3.2-12.437 7.026-18.656 11.437.16 2.613-1.325 6.332-5.313 11.563-12.846 11.836-24.443 22.294-35.28 31.593-.012.01-.021.022-.032.031-6.426 12.082-7.804 22.917-2.656 29.844 4.983 6.706 15.213 8.587 28.031 6.281 23.756-12.716 42.019-23.543 49.25-31.062 1.755-1.825 2.65-2.294 3.906-1.656.104.053.196.145.282.218l23.593-12.218c-1.171.249-2.337.46-3.5.656-.08.02-.35.09-.375.094-.314.051-.624.077-.937.125-.409.061-.811.133-1.219.187-.166.022-.334.042-.5.063-.491.062-.98.105-1.469.156-.062.007-.125.025-.187.031-.293.03-.583.037-.875.063-.177.015-.355.048-.531.062-.042.003-.084-.003-.125 0-.207.016-.419.049-.625.063-.542.036-1.086.072-1.625.093-.793.032-1.588.033-2.375.032h-.25c-.704-.005-1.395.002-2.094-.032a48.942 48.942 0 0 1-2.094-.156c-.074-.007-.145-.024-.219-.031-.614-.058-1.233-.106-1.843-.188-.063-.008-.125-.022-.188-.03-.555-.077-1.104-.185-1.656-.282a43.737 43.737 0 0 1-1.313-.25c-.529-.11-1.068-.214-1.593-.344-.2-.049-.396-.104-.594-.156-.64-.169-1.27-.363-1.906-.563-.299-.093-.61-.18-.907-.28-.167-.058-.333-.13-.5-.188a41.57 41.57 0 0 1-3.468-1.407 42.186 42.186 0 0 1-1.75-.843 43.186 43.186 0 0 1-2.157-1.188c-8.918-5.263-11.08-19.314-9.593-29.562a48.5 48.5 0 0 1 .25-1.563c.026-.145.066-.292.093-.437.07-.376.14-.752.219-1.125.198-.934.438-1.86.688-2.782.062-.23.121-.458.187-.687.225-.787.49-1.567.75-2.344.048-.144.075-.294.125-.437.32-.933.662-1.864 1.031-2.782z" opacity=".608" fill="url(#l)" filter="url(#m)"/><path d="M-405.938 157.406c-3.903.016-7.783.105-11.625.281 4.767.94 6.22 4.202 6.22 6.563 0 2.92-3.311 5.281-9.844 5.281-6.534 0-10.844-1.83-10.844-4.75 0-2.272 2.42-5.225 6.562-6.594-.983.088-1.956.19-2.937.313-.755.591-1.538 1.215-2.438 1.906-3.284 2.523-4.083 7.127-3.906 6.344.046-.203.142-1.18.344-2.531.09-.595.204-1.282.344-2 .015-.08.046-.17.062-.25a40.732 40.732 0 0 1 .625-2.656 51.12 51.12 0 0 0-6.188 1.656c-5.03 1.712-11.58 3.28-15.437 6.937-1.92 1.82-10.217 14.627-11.25 17.063-.097.228-.112.388-.063.469 9.556-5.167 21.745-10.946 26.563-10.313 4.818.633 6.724 3.06 8.094 5.813 5.524-4.926 18-10.508 22.906-11.625 7.267-1.656 16.592.417 24.5 2.656 3.796 1.074 7.638 2.323 11.25 4 .644.021 1.315.048 1.969.062.932.02 1.855.031 2.812.031h.625c.272 0 .539-.028.813-.03 1.393-.016 2.819-.059 4.281-.126.667-.03 1.347-.05 2.031-.093.205-.013.419-.018.625-.032.902-.061 1.817-.133 2.75-.218 4.062-.37 8.18-.52 12.281-.375.508.018 1.025.035 1.532.062.25.013.5.047.75.063a78.34 78.34 0 0 1 5.375.5c-.597-.498-1.46-1.137-2.688-2-3.878-2.731-17.838-10.056-26.219-12.157-12.885-3.229-26.505-4.305-39.875-4.25z" fill="url(#n)" filter="url(#o)"/><path d="M-437.25 173.844a9.038 9.038 0 0 1-.5.656c-9.227 10.782-19.208 19.65-31.344 27.094 2.137 3.993 5.447 7.209 9.438 9.187-3.503 6.233-6.021 12.85-7.031 19.813-1.488 10.248.675 24.3 9.593 29.562 11.453 6.76 23.913 7.08 36.906 4.313l28.563-14.75c16.504-12.755 40.505-17 66.969-18.438 15.258 1.505 49.739-1.53 36.094-24.094.217-3.126-.545-.107-2.25-.093-1.649-.018-4.443-.03-7.938.031-15.314-2.077-17.387 5.074-34.125-4.719-23.46-10.9-50.67-27.408-66.406-26.719-.511.023-1.001.086-1.5.125-9.925.781-29.781 2.25-29.781 2.25s-1.21 1.017-1.813 1.532a21.994 21.994 0 0 0-4.875-5.75zm-17.344 38.687c.308.062.625.109.938.156-.314-.048-.63-.093-.938-.156zm2.563.344z" fill="url(#p)" filter="url(#q)"/><path d="M-422.406 149.563c-1.991.002-4.015.422-5.906 1.468-5.436 3.006-6.26 14.936-6.438 15.719-.177.783.622-3.821 3.906-6.344 5.714-4.388 7.21-6.897 20.844-5.781 1.376.113-5.296-5.069-12.406-5.063z" transform="matrix(1.09055 .10076 -.08006 .86653 50.907 63.667)" fill="url(#r)" filter="url(#s)"/><path d="M-409.345 164.405c0 3.487-3.922 6.315-11.728 6.315-7.806 0-12.961-2.188-12.961-5.675 0-3.488 4.739-8.358 12.534-8.77 9.51-.5 12.155 4.642 12.155 8.13z" fill="url(#t)"/><path transform="matrix(1.4633 0 0 1.65373 280.454 -200.769)" d="M-527.424 272.818c-51.437 47.395-40.604 43.48-84.058 59.865-27.595 12.695-21.7-.19 8.934-31.599 24.038-24.646 24.197-24.085 50.685-38.365 18.205-7.078 37.614-8.021 24.439 10.1z" fill="url(#u)" filter="url(#v)"/><path d="M-503.372 225.667c7.261-1.902 32.143-5.307 16.07 15.773-51.437 47.394-82.746 72.838-126.2 89.222-27.595 12.696-21.7-.188 8.933-31.598 24.038-24.646 54.95-46.114 81.438-60.394 5.779-3.115 8.602-10.08 19.76-13.003z" fill="#6a8095" filter="url(#w)"/><path d="M-411.358 164.254c0 2.92-3.282 5.286-9.816 5.286-6.533 0-10.847-1.831-10.847-4.75 0-2.92 3.966-6.996 10.49-7.34 7.96-.42 10.173 3.885 10.173 6.804z" transform="matrix(.97052 0 0 .97052 -12.43 4.819)" fill="url(#x)" filter="url(#y)"/><path d="M-414.036 164.249c0 2.196-2.47 3.977-7.387 3.977-4.916 0-8.902-1.78-8.902-3.977s3.992-3.719 8.902-3.978c5.99-.315 7.387 1.781 7.387 3.978z" transform="translate(37.816 -14.71) scale(1.08957)" fill="#150015" filter="url(#z)"/><path d="M-391.625 249.719l-52.188 26.969c.72.636.798 1.95.438 3.03-3.433 10.29-12.26 12.035-8 16.25 16.396 16.227 23.052 40.808 19.25 58.75-2.163 10.207 2.083 17.174 6.406 15.844 28.262-5.21 64.226-65.72 33.219-120.156.29-.233.58-.46.875-.687z" fill="url(#A)" filter="url(#B)"/><path d="M-737.844 439.5c-8.942 30.119-34.702 107.5-26.812 107.5.148 0 .324-.044.5-.094.227-.83.537-1.85.968-3.218 7.21-22.835 26.561-75.816 53.844-108.032-.451-33.617-11.326-84.3-18.232-58.525-5.454 20.351-.3 28.797-10.268 62.37z" fill="url(#C)" filter="url(#D)"/><path d="M-785.656 573.031c-45.608 0-97.34 44.657-99.188 92.094.13-.066.242-.115.375-.188 64.209-39.646 118.841-58.995 197.563-12.843-.719-47.83-52.628-79.063-98.75-79.063z" fill="url(#E)" filter="url(#F)"/><path d="M-543.212 193.55c10.27-4.41 56.239-16.907 8.333 22.013-174.865 115.37-64.391 70.856-162.147 147.292-37.861 24.899-31.958 4.434 6.358-48.99 30.065-41.92 66.806-72.195 106.869-100.059 12.413-8.633 24.804-13.479 40.587-20.256z" fill="url(#G)" filter="url(#H)"/><path d="M-439.406 173.25c-5.902 1.429-20.943 8.725-30.781 14.313-6.781 3.85-14.702 6.89-19.344 13.156-2.664 3.594-19.422 20.091-3.969 12.812 24.335-9.394 39.677-23.08 54.094-40.281z" fill="url(#I)" filter="url(#J)"/><path d="M-363.219 114.75c.257 1.596 2.164 12.99 5.063 18.281 4.462 8.146 14.833 11.882 18.594 20.406 3.003 6.809 2.077 14.834 2.28 22.375 3.998.522 7.929 1.361 11.75 2.594 6.731 2.171 12.973 5.748 19.094 9.563 4.057-27.09 5.387-53.509-41.406-68.469-5.148-1.743-10.283-3.306-15.375-4.75zm57.688 73.781c1.25.785 2.506 1.586 3.75 2.375.013-.093.018-.187.031-.281a84.365 84.365 0 0 0-3.781-2.094z" fill="url(#K)"/><path d="M-345.926 160.42c0 13.194-6.342 2.134-24.652-1.742-17.445-3.693-33.978 4.253-33.978-8.94s19.686-24.436 37.335-17.36c15.545 6.232 21.295 14.85 21.295 28.043z" fill="url(#L)" filter="url(#M)"/><path d="M-363.906 149.734c-.724 4.712-8.967 3.025-13.59 2.885-6.333-.193-19.037-.884-18.358-5.077.555-3.432 13.969-5.42 21.01-4.23 4.14.7 11.595 2.148 10.938 6.422z" fill="url(#N)" filter="url(#O)"/><path d="M-599.494 190.81c7.544-5.289 42.619-25.537 10.767 7.81-66.808 45.9-149.47 166.588-108.715 95.076 16.814-29.2 41.166-54.976 68.654-80.648 8.517-7.954 17.703-14.11 29.294-22.238z" fill="url(#P)" filter="url(#Q)"/><path d="M-441.25 103.531c-53.612-.186-104.802 14.984-155.594 39.594 27.697-9.576 125.608-40.457 174.112-14.808 11.707 6.19 49.78-14.158 34.576-19.567-17.997-3.489-35.675-5.158-53.094-5.219z" fill="url(#R)" filter="url(#S)"/><path d="M-309.107 203.582c0 2.37-3.052 4.293-6.818 4.293-3.766 0-6.819-1.922-6.819-4.293 0-2.372 3.053-4.294 6.819-4.294s6.818 1.922 6.818 4.294z" transform="matrix(.42908 0 0 .32307 -176.83 133.77)" opacity=".772" fill="#fff" filter="url(#T)"/><path transform="matrix(.4272 0 0 .23349 -208.488 133.572)" d="M-309.107 203.582c0 2.37-3.052 4.293-6.818 4.293-3.766 0-6.819-1.922-6.819-4.293 0-2.372 3.053-4.294 6.819-4.294s6.818 1.922 6.818 4.294z" opacity=".772" fill="#fff" filter="url(#T)"/><path d="M-504.887 222.637c7.26-1.902 32.143-5.308 16.07 15.772-51.437 47.395-82.746 72.839-126.201 89.223-27.594 12.696-21.7-.189 8.934-31.599 24.038-24.646 54.95-46.113 81.438-60.393 5.778-3.116 8.602-10.08 19.76-13.003z" fill="url(#U)" filter="url(#V)"/><path d="M-358.656 192.594c-.622 1.436.713 4.175-.969 5.687-15.827 14.226-2.469 22.956 29.564 22.956 14.186 0 32.464-3.211 38.186-11.893-1.18-.884-2.59-1.88-4.594-1.844-5.297-.719-6.978-.938-11 1.594-5.365 3.376-6.642 5.521-24.156-3.156-8.76-4.07-18.019-8.896-27.031-13.344z" transform="matrix(1 0 0 .90363 0 18.56)" fill="url(#W)" filter="url(#X)"/><path d="M-399.515 179.338c7.708-.943 4.243 3.693 14.153 2.453 13.285-1.663 31.598 9.222 43.744 14.864 17.513 8.678 22.462 14.542 27.827 11.166 4.022-2.532 7.215-2.306 12.513-1.588 3.495-.061 10.09 4.364 11.738 4.381 5.598.06-.365-9.556-7.034-13.693-8.92-5.534-17.791-11.803-27.684-14.995-10.087-3.254-21.013-3.802-31.568-2.84-14.926 1.36-25.636-.44-38.18-.866l-5.51 1.118" fill="#404055" filter="url(#Y)"/><path d="M-400.778 175.802c15.46-1.89 43.674 15.35 67.897 26.603 17.514 8.678 18.776 6.52 24.14 3.143 4.023-2.532 5.7-2.306 10.999-1.588 3.494-.061 5.291 3.101 6.94 3.119 5.597.059-.366-9.556-7.035-13.694-8.92-5.534-17.79-11.803-27.683-14.994-10.088-3.254-21.013-3.803-31.569-2.841-14.926 1.36-25.636-.44-38.179-.866l-5.51 1.118" fill="url(#Z)" filter="url(#aa)"/><path transform="rotate(-9.838 -349.598 155.039)" d="M-315.865 155.997c0 8.369-7.462 15.153-16.667 15.153-9.205 0-16.668-6.784-16.668-15.153 0-8.368 7.463-15.152 16.668-15.152 9.205 0 16.667 6.784 16.667 15.152z" style="marker:none" opacity=".293" color="#000" fill="url(#ab)" overflow="visible" filter="url(#ac)" enable-background="accumulate"/></g><g transform="translate(192.343 -1102.437) scale(1.63018)" clip-path="url(#ad)"><path d="M115.508 833.483c-2.663-.445-5.642-1.362-8.157.43-5.69 4.052 3.397 6.417 6.309 11.461 2.786 4.826.494 12.774-2.346 15.201-27.09 23.152-52.215 66.755-68.495 110.534-.559 1.502-1.025 3.305-2.394 4.095-1.266.731-3.486.32-5.572.624C9.81 979.48-3.166 996.8 5.83 997.51c39.556-3.7 64.071 27.303 64.626 16.819 3.16-2.09-10.415-19.032-18.184-32.382-.652-1.12-1.717-2.029-1.82-3.272-.154-1.86 1.16-3.45 1.877-5.273 7.25-18.426 24.637-42.853 75.904-53.68 27.028-5.71 42.21-5.428 62.14-1.682 13.725 2.58 40.352 16.978 40.352 16.978 3.949 2.488 5.7 3.842 9.413 6.46 4.632 3.266 12.036 4.058 12.71.836 1.602-7.672-8.233-13.551-7.936-18.417.55-9.01-1.903-13.117-7.59-23.222-17.14-30.456-62.957-44.376-89.525-48.097-4.476-.627-8.856-5.26-13.68-10.083-3.325-3.326-10.265-7.617-18.61-9.013z" fill="url(#ae)" filter="url(#af)"/><path style="text-indent:0;text-align:start;line-height:normal;text-transform:none;block-progression:tb;marker:none;-inkscape-font-specification:Sans" d="M171.124 915.377c-.608 3.555-2.553 7.926-8.001 13.708-18.045 11.911 23.881 19.69 28.356-11.537-.45-.103-1.194-.095-1.62-.176-6.747-1.268-12.432-1.62-18.735-1.995z" font-weight="400" color="#000" fill="url(#ag)" overflow="visible" filter="url(#af)" enable-background="accumulate" font-family="Sans"/><path d="M422.717 639.244c-15.95 0-44.414 14.108-41.267 20.63 5.751-3.506 21.043-10.224 30.955-12.318 14.355-3.032 22.415-2.896 33-.906 1.29.242 2.804.692 4.406 1.25-6.383-5.285-16.148-8.656-27.094-8.656z" transform="matrix(1.88274 0 0 1.88274 -648.457 -300.648)" fill="url(#ah)" filter="url(#ai)"/><path d="M461.034 639.15c-.577.915-2.864-1.522-2.864-1.522l-4.182-3.588c-11.402-9.784-15.255-8.925-15.307-10.153-.051-1.228.654-3.417 12.242 6.033 0 0 11.571 6.916 10.11 9.23z" transform="matrix(2.00758 0 0 1.81134 -706.597 -255.002)" fill="url(#aj)" filter="url(#ak)"/><path d="M250.393 936.196c-1.522 3.844-21.808-13.388-26.299-19.061-3.054-3.858-6.211-6.328-5.103-9.432 1.469-4.11 14.684-3.945 12.694.713-5.812 13.609 19.829 24.948 18.708 27.78z" fill="url(#al)" filter="url(#af)"/><path transform="matrix(1.61637 -.04924 .04445 1.45926 -549.106 18.837)" d="M465.958 641.621c-2.233-1.824-4.627-3.416-7.089-4.833-3.972-2.285-12.335-5.88-12.335-5.88-1.668-.795-13.611-3.526-11.116-7.477.636-1.007 19.847 2.213 32.027 9.562 0 0 7.103 10.982 3.535 13.499-1.877 1.324-3.231-3.408-5.022-4.871z" fill="url(#am)" filter="url(#an)"/><path d="M441.7 642.607c-.875 1.516-8.508-4.921-10.772-6.228-2.263-1.307-4.549-2.97-3.674-4.486.876-1.516 14.208-.267 14.701 2.3 1.29 6.71.621 6.898-.254 8.414z" transform="matrix(1.88274 0 0 1.88274 -648.457 -300.648)" fill="url(#ao)" filter="url(#ap)"/><path d="M470.127 639.197c-6.854-11.785-38.398-25.218-39.852-22.763-.382.645 13.948 5.4 16.14 6.867 7.131 4.776 21.015 10.382 16.924 19.647-.201.457-1.432.488-1.387 1.07.145 1.854 3.389 1.586 4.892 2.681 1.93 1.406 2.815 4.856 5.202 4.924.761.021 2.335.654 1.746-1.475-2.167-7.83-1.445-7.134-3.665-10.951z" transform="matrix(1.88274 0 0 1.88274 -648.457 -300.648)" fill="url(#aq)" filter="url(#ar)"/><path d="M397.881 626.205c-8.47 7.258-17.35 24.82-17.35 24.82-3.403 6.708 9.011-8.33 13.772-14.905 10.923-15.083 24.396-10.295 29.845-12.05 6.84-.89 4.319-5.13 1.006-4.97-5.152-1.247-15.187-3.25-27.273 7.105z" transform="matrix(1.88274 0 0 1.88274 -647.743 -304.934)" fill="#555580" filter="url(#as)"/><path d="M402.306 644.956c-2.198.269-16.154 6.506-18.237 7.56-9.585 4.849-16.011 18.74-16.15 23.469 0 1.366 1.938-.653 2.39-1.906 2.727-6.93 19.39-22.693 31.997-29.123z" transform="matrix(1.73274 -.12688 .12638 1.7396 -677.061 -151.092)" fill="url(#at)" filter="url(#au)"/><path d="M418.588 614.66s-2.854.537-4.277.834c-2.453.511-6.497 4.569-7.347 1.631-.73-2.522 3.502-3.265 5.552-4.019 1.558-.573 4.864-.286 4.864-.286 1.503.497 2.922 1.037 1.208 1.84z" transform="matrix(1.88082 -.08511 .0422 .93234 -673.093 318.38)" fill="#555580" filter="url(#av)"/><path style="text-indent:0;text-align:start;line-height:normal;text-transform:none;block-progression:tb;marker:none;-inkscape-font-specification:Sans" d="M182.256 910.376l-14.947-20.572c-14.402 1.664-33.292 1.385-42.24 1.123-25.718.857 44.236 26.017 57.187 19.449z" font-weight="400" color="#000" fill="url(#aw)" overflow="visible" filter="url(#af)" enable-background="accumulate" font-family="Sans"/><path d="M468.308 655.018c-.875 1.516-8.509-4.922-10.772-6.228-2.264-1.307-4.55-2.97-3.674-4.486.875-1.516 14.207-.267 14.7 2.3 1.291 6.71.621 6.898-.254 8.414z" transform="matrix(1.88274 0 0 1.88274 -648.457 -300.648)" opacity=".549" fill="url(#ax)" filter="url(#ay)"/><path d="M457.26 639.89c-1.096.336-2.28 1.869-1.819 2.918 1.325 3.006 7.627 4.356 9.69 1.799.341-.424-.251-1.118-.632-1.506-1.847-1.886-4.716-3.987-7.24-3.212z" transform="matrix(1.88274 0 0 1.88274 -648.457 -300.648)" fill="url(#az)" filter="url(#aA)"/><path d="M468.015 650.743c-2.043 2.442-6.356-1.676-8.802-3.715-2.63-2.193-8.212-6.341-5.632-8.592 1.636-1.427 2.899 3.46 4.91 4.274 1.364.553 3.128-.49 4.41.235.607.344.786 1.153 1.172 1.734 1.332 2.01 5.49 4.215 3.942 6.064z" transform="matrix(1.88274 0 0 1.88274 -648.457 -300.648)" fill="url(#aB)" filter="url(#aC)"/><path d="M441.975 642.741l-7.94-10.926c-7.648.883-17.682.735-22.434.596-13.66.455 23.495 13.819 30.374 10.33z" style="text-indent:0;text-align:start;line-height:normal;text-transform:none;block-progression:tb;marker:none;-inkscape-font-specification:Sans" transform="matrix(1.88204 -.05161 .04937 1.80027 -679.279 -226.648)" font-weight="400" color="#000" fill="url(#aD)" overflow="visible" filter="url(#aE)" enable-background="accumulate" font-family="Sans"/><path d="M463.37 642.339c-.454.703-1.985.524-3.422-.401-1.436-.925-2.233-2.246-1.78-2.95.453-.703 1.985-.523 3.421.402 1.436.925 2.234 2.245 1.78 2.949z" transform="matrix(1.48458 0 0 1.48458 -465.284 -43.982)" fill="#6a8095" filter="url(#aF)"/><path d="M467.953 647.67c0 1.255-4.962-.379-6.44-1.642-1.219-1.042.067-2.95.38-4.167.63-2.454 1.76 1.082 2.525 1.768 1.332 1.195 3.535 2.786 3.535 4.04z" transform="matrix(1.88274 0 0 1.88274 -648.457 -300.648)" fill="url(#aG)" filter="url(#aH)"/><path d="M462.864 643.455c-.453.703-1.985.524-3.42-.401-1.437-.925-2.235-2.246-1.781-2.95.453-.703 1.984-.523 3.42.402 1.437.925 2.234 2.245 1.781 2.949z" transform="matrix(1.48458 0 0 1.48458 -465.284 -43.982)" fill="#15152b" filter="url(#aI)"/><path d="M472.162 658.011c-.78-.198-1.186-1.277-1.186-1.277l-1.126-1.931c-3.072-5.265-5.955-6.843-5.444-6.924.51-.08 1.706.135 6.361 5.61 0 0 3.37 5.024 1.395 4.522z" transform="matrix(-.47419 1.2053 1.75203 .68928 -679.176 -80.58)" fill="url(#aJ)" filter="url(#aK)"/><path d="M461.838 642.582c-.285.443-1.25.33-2.154-.252-.905-.583-1.407-1.414-1.121-1.857.285-.443 1.25-.33 2.154.252.904.583 1.406 1.414 1.121 1.857z" transform="matrix(1.61695 0 0 1.6382 -526.42 -142.3)" fill="#000015" filter="url(#aL)"/><path d="M466.48 645.763c-.78-.198-1.186-1.277-1.186-1.277l-1.126-1.931c-3.072-5.265-5.955-6.843-5.444-6.924.51-.08 1.705.135 6.36 5.61 0 0 3.37 5.024 1.396 4.522z" transform="matrix(1.88274 0 0 1.88274 -648.457 -300.648)" fill="url(#aM)" filter="url(#aN)"/><path style="text-indent:0;text-align:start;line-height:normal;text-transform:none;block-progression:tb;marker:none;-inkscape-font-specification:Sans" d="M403.45 602.835c-.634-.038-.568 1.832.063 1.906 9.401 1.104 11.886 5.037 14.657 8.938.364.512 2.063-.34 1.687-.844-5.178-6.935-7.749-9.477-16.406-10z" transform="matrix(1.88274 0 0 1.88274 -648.457 -300.648)" font-weight="400" color="#000" fill="url(#aO)" overflow="visible" filter="url(#aP)" enable-background="accumulate" font-family="Sans"/><path d="M403.843 605.312c1.824-2.271 5.348-2.387 7.87-.258 2.522 2.13 8.853 8.179 1.263 7.967-.214.266-4.563.329-4.829.542" transform="matrix(1.1224 0 0 1.41469 -335.541 -11.78)" fill="url(#aQ)" filter="url(#aR)"/><path style="text-indent:0;text-align:start;line-height:normal;text-transform:none;block-progression:tb;marker:none;-inkscape-font-specification:Sans" d="M408.804 633.777c-4.055 2.427 27.092 11.713 33.218 8.531l-1-1.25c-6.218 2.002-27.979-3.962-32.218-7.281z" transform="matrix(1.88274 0 0 1.88274 -648.457 -300.648)" font-weight="400" color="#000" fill="url(#aS)" overflow="visible" filter="url(#aT)" enable-background="accumulate" font-family="Sans"/><path d="M359.558 681.107a8.115 8.115 0 0 0-.781.031c-4.548.393-12.893 4.243-12.21 7.09 8.413-1.251 12.904-2.576 28.55 7.87.081-.333-3.324-7.43-6.081-9.594-3.15-2.472-5.509-5.368-9.478-5.397z" transform="matrix(1.88274 0 0 1.88274 -648.457 -300.648)" fill="url(#aU)" filter="url(#aV)"/><path d="M368.764 679.573c1.307.715 1.059 2.093 2.24 4.037.556.912 2.134 3.065 1.064 3.864-.874.652-3.268-1.789-4.666-3.336-1.011-1.12-1.288-3.406-.27-4.519.368-.4 1.156-.31 1.632-.046z" transform="matrix(1.88274 0 0 1.88274 -648.457 -300.648)" opacity=".99" fill="url(#aW)" filter="url(#aX)"/><path d="M475.572 660.56c-.287.316-1.774.234-2.855-.413-1.935-1.158-3.938-3.628-5.153-5.322-1.881-2.623-2.865-3.77-4.62-5.535-1.894-1.904-4.329-5.16-4.329-5.16s1.403 3.316 2.558 4.445c2.357 2.304 4.752 4.331 6.22 6.773 1.225 2.038 3.834 4.734 5.758 5.658 1.342.645 2.306-.038 2.421-.446z" transform="matrix(2.01648 -.00367 .00469 1.57714 -709.793 -98.38)" fill="url(#aY)" filter="url(#aZ)"/><path d="M222.567 913.521l10.714 9.465 8.929 1.785-10-4.642-9.643-6.608" fill="#15152b" filter="url(#ba)"/></g></svg>