<svg xmlns="http://www.w3.org/2000/svg" xmlns:xlink="http://www.w3.org/1999/xlink" width="256" height="256" enable-background="new"><defs><linearGradient id="b"><stop offset="0" stop-color="#8095bf"/><stop offset=".218" stop-color="#8095bf"/><stop offset=".865" stop-color="#555580"/><stop offset="1" stop-color="#555580"/></linearGradient><filter color-interpolation-filters="sRGB" id="g"><feBlend mode="multiply" in2="BackgroundImage"/></filter><filter color-interpolation-filters="sRGB" id="ab" x="-.276" width="1.552" y="-.481" height="1.963"><feGaussianBlur stdDeviation="2.257"/></filter><linearGradient id="a"><stop offset="0" stop-color="#6a6a95"/><stop offset="1" stop-color="#2b2b40"/></linearGradient><filter color-interpolation-filters="sRGB" id="aa"><feGaussianBlur stdDeviation=".306"/></filter><filter id="Y" x="-.503" width="2.007" y="-.363" height="1.726" color-interpolation-filters="sRGB"><feGaussianBlur stdDeviation="1.246"/></filter><filter id="W" x="-.096" width="1.192" y="-.183" height="1.366" color-interpolation-filters="sRGB"><feGaussianBlur stdDeviation="1.144"/></filter><filter id="U" x="-.031" width="1.063" y="-.115" height="1.23" color-interpolation-filters="sRGB"><feGaussianBlur stdDeviation=".439"/></filter><filter id="S" x="-.661" width="2.322" y="-.84" height="2.68" color-interpolation-filters="sRGB"><feGaussianBlur stdDeviation="3.511"/></filter><filter id="Q" x="-.086" width="1.172" y="-.132" height="1.264" color-interpolation-filters="sRGB"><feGaussianBlur stdDeviation=".605"/></filter><filter id="O" x="-.514" width="2.028" y="-.426" height="1.852" color-interpolation-filters="sRGB"><feGaussianBlur stdDeviation="1.806"/></filter><filter id="M" color-interpolation-filters="sRGB"><feGaussianBlur stdDeviation=".083"/></filter><filter id="L" x="-.219" width="1.437" y="-.39" height="1.78" color-interpolation-filters="sRGB"><feGaussianBlur stdDeviation="1.204"/></filter><filter id="J" x="-.136" width="1.272" y="-.176" height="1.352" color-interpolation-filters="sRGB"><feGaussianBlur stdDeviation=".309"/></filter><linearGradient id="c"><stop offset="0" stop-color="#8095bf"/><stop offset=".218" stop-color="#8095bf"/><stop offset=".421" stop-color="#555580"/><stop offset="1" stop-color="#555580"/></linearGradient><filter id="I" x="-.338" width="1.676" y="-.33" height="1.661" color-interpolation-filters="sRGB"><feGaussianBlur stdDeviation=".98"/></filter><filter id="G" x="-.126" width="1.252" y="-.164" height="1.327" color-interpolation-filters="sRGB"><feGaussianBlur stdDeviation=".287"/></filter><filter id="F" x="-.051" width="1.102" y="-.148" height="1.295" color-interpolation-filters="sRGB"><feGaussianBlur stdDeviation=".707"/></filter><filter id="D" x="-.204" width="1.408" y="-.237" height="1.473" color-interpolation-filters="sRGB"><feGaussianBlur stdDeviation="1.313"/></filter><linearGradient id="d"><stop offset="0" stop-color="#8095bf"/><stop offset=".218" stop-color="#8095bf"/><stop offset=".415" stop-color="#555580"/><stop offset="1" stop-color="#555580"/></linearGradient><filter id="B" x="-.174" width="1.348" y="-.277" height="1.553" color-interpolation-filters="sRGB"><feGaussianBlur stdDeviation=".718"/></filter><filter id="z" x="-.205" width="1.411" y="-.276" height="1.553" color-interpolation-filters="sRGB"><feGaussianBlur stdDeviation="1.336"/></filter><filter id="w" x="-.388" width="1.777" y="-.778" height="2.556" color-interpolation-filters="sRGB"><feGaussianBlur stdDeviation="2.01"/></filter><filter id="v" x="-.107" width="1.214" y="-.101" height="1.203" color-interpolation-filters="sRGB"><feGaussianBlur stdDeviation="1.031"/></filter><filter id="t" x="-.122" width="1.244" y="-.171" height="1.342" color-interpolation-filters="sRGB"><feGaussianBlur stdDeviation="2.469"/></filter><filter id="s" color-interpolation-filters="sRGB"><feGaussianBlur stdDeviation=".831"/></filter><filter id="q" x="-.315" width="1.63" y="-.424" height="1.848" color-interpolation-filters="sRGB"><feGaussianBlur stdDeviation="2.05"/></filter><filter id="o" x="-.182" width="1.364" y="-.248" height="1.495" color-interpolation-filters="sRGB"><feGaussianBlur stdDeviation="1.707"/></filter><linearGradient id="e"><stop offset="0" stop-color="#555580"/><stop offset="1" stop-color="#555580" stop-opacity="0"/></linearGradient><filter id="l" x="-.109" width="1.218" y="-.148" height="1.296" color-interpolation-filters="sRGB"><feGaussianBlur stdDeviation="1.022"/></filter><filter id="j" x="-.046" width="1.091" y="-.163" height="1.327" color-interpolation-filters="sRGB"><feGaussianBlur stdDeviation="1.156"/></filter><radialGradient xlink:href="#b" id="f" gradientUnits="userSpaceOnUse" gradientTransform="matrix(1.88274 0 0 1.38743 -648.457 21.628)" cx="412.416" cy="650.652" fx="412.416" fy="650.652" r="66.413"/><radialGradient xlink:href="#b" id="i" gradientUnits="userSpaceOnUse" gradientTransform="matrix(.1827 .98317 -1.27815 .23753 1185.665 104.8)" cx="394.798" cy="687.697" fx="394.798" fy="687.697" r="30.457"/><radialGradient xlink:href="#b" id="k" gradientUnits="userSpaceOnUse" gradientTransform="matrix(2.14332 1.7318 -.49695 .61504 -201.566 -537.361)" cx="450.547" cy="630.958" fx="450.547" fy="630.958" r="10.621"/><radialGradient xlink:href="#b" id="n" gradientUnits="userSpaceOnUse" gradientTransform="matrix(2.14332 1.7318 -.49695 .61504 -201.566 -537.361)" cx="450.693" cy="632.49" fx="450.693" fy="632.49" r="10.621"/><radialGradient xlink:href="#b" id="p" gradientUnits="userSpaceOnUse" gradientTransform="matrix(1.30883 .89217 -.41853 .614 114.219 -159.802)" cx="454.273" cy="639.751" fx="454.273" fy="639.751" r="7.806"/><radialGradient xlink:href="#a" id="r" gradientUnits="userSpaceOnUse" gradientTransform="matrix(19.45694 13.55219 -3.02941 4.34934 -6712.903 -8507.058)" cx="466.969" cy="642.45" fx="466.969" fy="642.45" r="4.125"/><linearGradient xlink:href="#b" id="u" gradientUnits="userSpaceOnUse" x1="365.443" y1="660.698" x2="404.782" y2="660.698"/><radialGradient xlink:href="#b" id="y" gradientUnits="userSpaceOnUse" gradientTransform="matrix(1.30883 .89217 -.41853 .614 140.826 -147.391)" cx="444.825" cy="645.191" fx="444.825" fy="645.191" r="7.806"/><radialGradient xlink:href="#d" id="A" gradientUnits="userSpaceOnUse" gradientTransform="matrix(.9978 .06635 -.11486 1.7273 79.272 -513.877)" cx="458.832" cy="657.158" fx="458.832" fy="657.158" r="4.947"/><radialGradient xlink:href="#b" id="C" gradientUnits="userSpaceOnUse" gradientTransform="matrix(1 0 0 .86263 -1.136 88.038)" cx="461.772" cy="645.467" fx="461.772" fy="645.467" r="7.72"/><radialGradient xlink:href="#b" id="E" gradientUnits="userSpaceOnUse" gradientTransform="matrix(-.11883 .88333 -1.76622 -.2376 1613.754 406.469)" cx="417.71" cy="637.657" fx="417.71" fy="637.657" r="16.683"/><radialGradient xlink:href="#c" id="H" gradientUnits="userSpaceOnUse" gradientTransform="matrix(.90114 .43353 -.66085 1.37367 473.81 -444.365)" cx="465.212" cy="649.857" fx="465.212" fy="649.857" r="3.057"/><radialGradient xlink:href="#b" id="K" gradientUnits="userSpaceOnUse" gradientTransform="matrix(.6249 .98447 -.59535 -.1792 563.074 322.72)" cx="450.547" cy="630.958" fx="450.547" fy="630.958" r="10.621"/><radialGradient xlink:href="#b" id="N" gradientUnits="userSpaceOnUse" gradientTransform="matrix(.6249 .98447 -.59535 -.1792 557.392 310.472)" cx="450.547" cy="630.958" fx="450.547" fy="630.958" r="10.621"/><radialGradient xlink:href="#b" id="P" gradientUnits="userSpaceOnUse" gradientTransform="matrix(1 0 0 .65086 .357 212.919)" cx="425.298" cy="603.142" fx="425.298" fy="603.142" r="8.453"/><linearGradient xlink:href="#b" id="R" gradientUnits="userSpaceOnUse" x1="401.052" y1="608.546" x2="419.38" y2="608.546"/><linearGradient xlink:href="#b" id="T" gradientUnits="userSpaceOnUse" gradientTransform="translate(0 -.179)" x1="408.441" y1="638.549" x2="442.022" y2="638.549"/><linearGradient xlink:href="#b" id="V" gradientUnits="userSpaceOnUse" gradientTransform="translate(-1.786 .357)" x1="339.206" y1="664.049" x2="371.189" y2="694.495"/><radialGradient xlink:href="#b" id="X" gradientUnits="userSpaceOnUse" gradientTransform="matrix(.94473 -.32784 2.76616 7.97132 -1894.396 -4700.277)" cx="374.545" cy="691.913" fx="374.545" fy="691.913" r="2.97"/><radialGradient xlink:href="#a" id="Z" gradientUnits="userSpaceOnUse" gradientTransform="matrix(1 0 0 .77745 0 145.363)" cx="457.125" cy="653.751" fx="457.125" fy="653.751" r="11.693"/><radialGradient xlink:href="#b" id="x" gradientUnits="userSpaceOnUse" gradientTransform="matrix(-.22373 1.66308 -3.32533 -.44735 2388.414 465.536)" cx="424.771" cy="636.475" fx="424.771" fy="636.475" r="16.683"/><radialGradient xlink:href="#e" id="m" gradientUnits="userSpaceOnUse" gradientTransform="matrix(1.88274 0 0 1.90195 -648.457 -313.11)" cx="469.025" cy="648.737" fx="469.025" fy="648.737" r="8.409"/><radialGradient xlink:href="#b" id="h" gradientUnits="userSpaceOnUse" gradientTransform="matrix(1.7404 .85762 -2.33022 4.7288 961.512 -2564.89)" cx="440.899" cy="662.108" fx="440.899" fy="662.108" r="8.722"/></defs><path d="M115.508 833.483c-2.663-.445-5.642-1.362-8.157.43-5.69 4.052 3.397 6.417 6.309 11.461 2.786 4.826.494 12.774-2.346 15.201-27.09 23.152-52.215 66.755-68.495 110.534-.559 1.502-1.025 3.305-2.394 4.095-1.266.731-3.486.32-5.572.624C9.81 979.48-3.166 996.8 5.83 997.51c39.556-3.7 64.071 27.303 64.626 16.819 3.16-2.09-10.415-19.032-18.184-32.382-.652-1.12-1.717-2.029-1.82-3.272-.154-1.86 1.16-3.45 1.877-5.273 7.25-18.426 24.637-42.853 75.904-53.68 27.028-5.71 42.21-5.428 62.14-1.682 13.725 2.58 40.352 16.978 40.352 16.978 3.949 2.488 5.7 3.842 9.413 6.46 4.632 3.266 12.036 4.058 12.71.836 1.602-7.672-8.233-13.551-7.936-18.417.55-9.01-1.903-13.117-7.59-23.222-17.14-30.456-62.957-44.376-89.525-48.097-4.476-.627-8.856-5.26-13.68-10.083-3.325-3.326-10.265-7.617-18.61-9.013z" fill="url(#f)" filter="url(#g)" transform="translate(0 -796.362)"/><path d="M171.124 915.377c-.608 3.555-2.553 7.926-8.001 13.708-18.045 11.911 23.881 19.69 28.356-11.537-.45-.103-1.194-.095-1.62-.176-6.747-1.268-12.432-1.62-18.735-1.995z" style="text-indent:0;text-align:start;line-height:normal;text-transform:none;block-progression:tb;marker:none;-inkscape-font-specification:Sans" font-weight="400" color="#000" fill="url(#h)" overflow="visible" filter="url(#g)" enable-background="accumulate" font-family="Sans" transform="translate(0 -796.362)"/><path transform="matrix(1.88274 0 0 1.88274 -648.457 -1097.01)" d="M422.717 639.244c-15.95 0-44.414 14.108-41.267 20.63 5.751-3.506 21.043-10.224 30.955-12.318 14.355-3.032 22.415-2.896 33-.906 1.29.242 2.804.692 4.406 1.25-6.383-5.285-16.148-8.656-27.094-8.656z" fill="url(#i)" filter="url(#j)"/><path transform="matrix(2.00758 0 0 1.81134 -706.597 -1051.364)" d="M461.034 639.15c-.577.915-2.864-1.522-2.864-1.522l-4.182-3.588c-11.402-9.784-15.255-8.925-15.307-10.153-.051-1.228.654-3.417 12.242 6.033 0 0 11.571 6.916 10.11 9.23z" fill="url(#k)" filter="url(#l)"/><path d="M250.393 936.196c-1.522 3.844-21.808-13.388-26.299-19.061-3.054-3.858-6.211-6.328-5.103-9.432 1.469-4.11 14.684-3.945 12.694.713-5.812 13.609 19.829 24.948 18.708 27.78z" fill="url(#m)" filter="url(#g)" transform="translate(0 -796.362)"/><path d="M465.958 641.621c-2.233-1.824-4.627-3.416-7.089-4.833-3.972-2.285-12.335-5.88-12.335-5.88-1.668-.795-13.611-3.526-11.116-7.477.636-1.007 19.847 2.213 32.027 9.562 0 0 7.103 10.982 3.535 13.499-1.877 1.324-3.231-3.408-5.022-4.871z" transform="matrix(1.61637 -.04924 .04445 1.45926 -549.106 -777.525)" fill="url(#n)" filter="url(#o)"/><path transform="matrix(1.88274 0 0 1.88274 -648.457 -1097.01)" d="M441.7 642.607c-.875 1.516-8.508-4.921-10.772-6.228-2.263-1.307-4.549-2.97-3.674-4.486.876-1.516 14.208-.267 14.701 2.3 1.29 6.71.621 6.898-.254 8.414z" fill="url(#p)" filter="url(#q)"/><path transform="matrix(1.88274 0 0 1.88274 -648.457 -1097.01)" d="M470.127 639.197c-6.854-11.785-38.398-25.218-39.852-22.763-.382.645 13.948 5.4 16.14 6.867 7.131 4.776 21.015 10.382 16.924 19.647-.201.457-1.432.488-1.387 1.07.145 1.854 3.389 1.586 4.892 2.681 1.93 1.406 2.815 4.856 5.202 4.924.761.021 2.335.654 1.746-1.475-2.167-7.83-1.445-7.134-3.665-10.951z" fill="url(#r)" filter="url(#s)"/><path transform="matrix(1.88274 0 0 1.88274 -647.743 -1101.296)" d="M397.881 626.205c-8.47 7.258-17.35 24.82-17.35 24.82-3.403 6.708 9.011-8.33 13.772-14.905 10.923-15.083 24.396-10.295 29.845-12.05 6.84-.89 4.319-5.13 1.006-4.97-5.152-1.247-15.187-3.25-27.273 7.105z" fill="#555580" filter="url(#t)"/><path transform="matrix(1.73274 -.12688 .12638 1.7396 -677.061 -947.454)" d="M402.306 644.956c-2.198.269-16.154 6.506-18.237 7.56-9.585 4.849-16.011 18.74-16.15 23.469 0 1.366 1.938-.653 2.39-1.906 2.727-6.93 19.39-22.693 31.997-29.123z" fill="url(#u)" filter="url(#v)"/><path transform="matrix(1.88082 -.08511 .0422 .93234 -673.093 -477.982)" d="M418.588 614.66s-2.854.537-4.277.834c-2.453.511-6.497 4.569-7.347 1.631-.73-2.522 3.502-3.265 5.552-4.019 1.558-.573 4.864-.286 4.864-.286 1.503.497 2.922 1.037 1.208 1.84z" fill="#555580" filter="url(#w)"/><path d="M182.256 910.376l-14.947-20.572c-14.402 1.664-33.292 1.385-42.24 1.123-25.718.857 44.236 26.017 57.187 19.449z" style="text-indent:0;text-align:start;line-height:normal;text-transform:none;block-progression:tb;marker:none;-inkscape-font-specification:Sans" font-weight="400" color="#000" fill="url(#x)" overflow="visible" filter="url(#g)" enable-background="accumulate" font-family="Sans" transform="translate(0 -796.362)"/><path transform="matrix(1.88274 0 0 1.88274 -648.457 -1097.01)" d="M468.308 655.018c-.875 1.516-8.509-4.922-10.772-6.228-2.264-1.307-4.55-2.97-3.674-4.486.875-1.516 14.207-.267 14.7 2.3 1.291 6.71.621 6.898-.254 8.414z" opacity=".549" fill="url(#y)" filter="url(#z)"/><path transform="matrix(1.88274 0 0 1.88274 -648.457 -1097.01)" d="M457.26 639.89c-1.096.336-2.28 1.869-1.819 2.918 1.325 3.006 7.627 4.356 9.69 1.799.341-.424-.251-1.118-.632-1.506-1.847-1.886-4.716-3.987-7.24-3.212z" fill="url(#A)" filter="url(#B)"/><path transform="matrix(1.88274 0 0 1.88274 -648.457 -1097.01)" d="M468.015 650.743c-2.043 2.442-6.356-1.676-8.802-3.715-2.63-2.193-8.212-6.341-5.632-8.592 1.636-1.427 2.899 3.46 4.91 4.274 1.364.553 3.128-.49 4.41.235.607.344.786 1.153 1.172 1.734 1.332 2.01 5.49 4.215 3.942 6.064z" fill="url(#C)" filter="url(#D)"/><path transform="matrix(1.88204 -.05161 .04937 1.80027 -679.279 -1023.01)" style="text-indent:0;text-align:start;line-height:normal;text-transform:none;block-progression:tb;marker:none;-inkscape-font-specification:Sans" d="M441.975 642.741l-7.94-10.926c-7.648.883-17.682.735-22.434.596-13.66.455 23.495 13.819 30.374 10.33z" font-weight="400" color="#000" fill="url(#E)" overflow="visible" filter="url(#F)" enable-background="accumulate" font-family="Sans"/><path transform="matrix(1.48458 0 0 1.48458 -465.284 -840.344)" d="M463.37 642.339c-.454.703-1.985.524-3.422-.401-1.436-.925-2.233-2.246-1.78-2.95.453-.703 1.985-.523 3.421.402 1.436.925 2.234 2.245 1.78 2.949z" fill="#6a8095" filter="url(#G)"/><path transform="matrix(1.88274 0 0 1.88274 -648.457 -1097.01)" d="M467.953 647.67c0 1.255-4.962-.379-6.44-1.642-1.219-1.042.067-2.95.38-4.167.63-2.454 1.76 1.082 2.525 1.768 1.332 1.195 3.535 2.786 3.535 4.04z" fill="url(#H)" filter="url(#I)"/><path transform="matrix(1.48458 0 0 1.48458 -465.284 -840.344)" d="M462.864 643.455c-.453.703-1.985.524-3.42-.401-1.437-.925-2.235-2.246-1.781-2.95.453-.703 1.984-.523 3.42.402 1.437.925 2.234 2.245 1.781 2.949z" fill="#15152b" filter="url(#J)"/><path transform="matrix(-.47419 1.2053 1.75203 .68928 -679.176 -876.941)" d="M472.162 658.011c-.78-.198-1.186-1.277-1.186-1.277l-1.126-1.931c-3.072-5.265-5.955-6.843-5.444-6.924.51-.08 1.706.135 6.361 5.61 0 0 3.37 5.024 1.395 4.522z" fill="url(#K)" filter="url(#L)"/><path transform="matrix(1.61695 0 0 1.6382 -526.42 -938.662)" d="M461.838 642.582c-.285.443-1.25.33-2.154-.252-.905-.583-1.407-1.414-1.121-1.857.285-.443 1.25-.33 2.154.252.904.583 1.406 1.414 1.121 1.857z" fill="#000015" filter="url(#M)"/><path transform="matrix(1.88274 0 0 1.88274 -648.457 -1097.01)" d="M466.48 645.763c-.78-.198-1.186-1.277-1.186-1.277l-1.126-1.931c-3.072-5.265-5.955-6.843-5.444-6.924.51-.08 1.705.135 6.36 5.61 0 0 3.37 5.024 1.396 4.522z" fill="url(#N)" filter="url(#O)"/><path transform="matrix(1.88274 0 0 1.88274 -648.457 -1097.01)" d="M403.45 602.835c-.634-.038-.568 1.832.063 1.906 9.401 1.104 11.886 5.037 14.657 8.938.364.512 2.063-.34 1.687-.844-5.178-6.935-7.749-9.477-16.406-10z" style="text-indent:0;text-align:start;line-height:normal;text-transform:none;block-progression:tb;marker:none;-inkscape-font-specification:Sans" font-weight="400" color="#000" fill="url(#P)" overflow="visible" filter="url(#Q)" enable-background="accumulate" font-family="Sans"/><path transform="matrix(1.1224 0 0 1.41469 -335.541 -808.143)" d="M403.843 605.312c1.824-2.271 5.348-2.387 7.87-.258 2.522 2.13 8.853 8.179 1.263 7.967-.214.266-4.563.329-4.829.542" fill="url(#R)" filter="url(#S)"/><path transform="matrix(1.88274 0 0 1.88274 -648.457 -1097.01)" d="M408.804 633.777c-4.055 2.427 27.092 11.713 33.218 8.531l-1-1.25c-6.218 2.002-27.979-3.962-32.218-7.281z" style="text-indent:0;text-align:start;line-height:normal;text-transform:none;block-progression:tb;marker:none;-inkscape-font-specification:Sans" font-weight="400" color="#000" fill="url(#T)" overflow="visible" filter="url(#U)" enable-background="accumulate" font-family="Sans"/><path transform="matrix(1.88274 0 0 1.88274 -648.457 -1097.01)" d="M359.558 681.107a8.115 8.115 0 0 0-.781.031c-4.548.393-12.893 4.243-12.21 7.09 8.413-1.251 12.904-2.576 28.55 7.87.081-.333-3.324-7.43-6.081-9.594-3.15-2.472-5.509-5.368-9.478-5.397z" fill="url(#V)" filter="url(#W)"/><path transform="matrix(1.88274 0 0 1.88274 -648.457 -1097.01)" d="M368.764 679.573c1.307.715 1.059 2.093 2.24 4.037.556.912 2.134 3.065 1.064 3.864-.874.652-3.268-1.789-4.666-3.336-1.011-1.12-1.288-3.406-.27-4.519.368-.4 1.156-.31 1.632-.046z" opacity=".99" fill="url(#X)" filter="url(#Y)"/><path transform="matrix(2.01648 -.00367 .00469 1.57714 -709.793 -894.741)" d="M475.572 660.56c-.287.316-1.774.234-2.855-.413-1.935-1.158-3.938-3.628-5.153-5.322-1.881-2.623-2.865-3.77-4.62-5.535-1.894-1.904-4.329-5.16-4.329-5.16s1.403 3.316 2.558 4.445c2.357 2.304 4.752 4.331 6.22 6.773 1.225 2.038 3.834 4.734 5.758 5.658 1.342.645 2.306-.038 2.421-.446z" fill="url(#Z)" filter="url(#aa)"/><path d="M222.567 913.521l10.714 9.465 8.929 1.785-10-4.642-9.643-6.608" fill="#15152b" filter="url(#ab)" transform="translate(0 -796.362)"/></svg>