<svg xmlns="http://www.w3.org/2000/svg" xmlns:xlink="http://www.w3.org/1999/xlink" width="480" height="480"><defs><radialGradient xlink:href="#a" id="b" cx="143.75" cy="102.946" fx="143.75" fy="102.946" r="37.75" gradientTransform="matrix(2.12427 0 0 1.4678 -161.614 -48.157)" gradientUnits="userSpaceOnUse"/><linearGradient id="a"><stop offset="0" stop-color="#ebc9b4"/><stop offset="1" stop-color="#8b776a"/></linearGradient><radialGradient xlink:href="#a" id="c" cx="143.75" cy="140.634" fx="143.75" fy="140.634" r="37.75" gradientTransform="matrix(1 0 0 .3107 0 96.94)" gradientUnits="userSpaceOnUse"/></defs><g color="#000"><path style="marker:none" d="M106 76.862v52.168h75.5V76.862H106z" fill="url(#b)" overflow="visible" transform="matrix(6.35762 0 0 6.35762 -673.907 -488.66)"/><path style="marker:none" d="M106 128.905v23.457h75.5v-23.457H106z" fill="url(#c)" overflow="visible" transform="matrix(6.35762 0 0 6.35762 -673.907 -488.66)"/><path style="marker:none" d="M177.172 269.084c-2.047.097-4.018.387-6.319.655-10.105 1.26-14.938 29.261-4.423 60.656-56.353 42.239-95.225 90.506 3.317 87.541 9.503 0 49.972 3.506 70.14-2.623 4.801-1.712 4.632-3.755 3.476-5.082-.787-.946-1.814-1.788-3.001-2.623 56.26-33.17 70.41-43.945 76.775-40.82 5.41.665 13.252.631 20.695-1.475 6.593-2.16 5.03-4.716 3.16-6.23-1.36-1.338-5.402-1.92-5.056-3.606.702-3.417 6.736-7.76 14.06-11.312 11.163-5.411 27.2-9.941 42.021-13.77.238-.108.554-.221.79-.328 8.977-4.04 23.52-3.546 32.543-9.18 5.55-5.362-12.293-8.122-20.695-11.148-12.651-4.555-42.495-9.672-42.495-9.672-2.254-2.812-6.282-3.867-9.478-3.606-3.196.26-5.771 1.683-5.53 4.098-14.366-6.038-25.962-4.56-21.8 3.279.555 1.512-1.034 12.347-8.53 18.196-3.116 2.848-7.03 5.608-11.059 8.361-20.426 6.52-41.955 12.9-60.662 19.672-30.808 10.666-63.049 22.209-82.937 34.918-9.818 6.275-16.112 13.157-15.165 18.689-21.082-3.81-8.513-17.19-2.528-27.213 6.992-11.711 34.485-28.875 63.98-46.066 1.471-31.559 9.805-63.265-31.279-61.311z" opacity=".77" fill="#4d4d4d" overflow="visible"/><path style="text-indent:0;text-align:start;line-height:normal;text-transform:none;block-progression:tb;marker:none;-inkscape-font-specification:Sans" d="M82.265 79.019c-24.873 6.752-78.911 350.728 86.3 338.912 9.502 0 54.385 7.954 66.758-6.059 2.623-3.914-.143-8.592-2.987-11.625-1.99-2.163-4.202-4.113-6.451-6.021 14.071-75.83 14.576-100.45 24.917-93.305 6.254 1.518 14.191 1.71 18.956-3.105 3.845-4.94-.984-10.817-4.779-14.276-3.061-3.06-7.998-4.704-9.797-8.558-3.644-7.811-3.007-17.518-.199-25.636 4.4-12.72 15.12-23.24 25.329-32.15 10.58-9.235 24.873-8.25 36.135-21.13 7.68-12.257-8.969-18.606-16.169-25.522-10.842-10.415-38.803-22.228-38.803-22.228-2.275-12.855-13.619-9.565-15.054 1.477-11.968-13.804-23.987-10.499-22.939 7.422-.045 3.458-6.19 28.055-16.01 41.427-14.307 21.927-35.663 42.094-50.019 64.109-17.241 24.384-34.668 50.807-38.39 79.862-1.838 14.344.46 29.954 8.442 42.6-25.927-8.708-30.236-39.219-37.001-62.135-23.134-78.366 68.792-263.685-8.24-244.06z" font-weight="400" fill="#333" fill-rule="evenodd" overflow="visible" font-family="Sans"/><path d="M282.218 179.075c-1.048 4.062-8.245 5.59-16.073 3.413-7.829-2.177-13.325-7.234-12.276-11.296 1.049-4.062 8.245-5.59 16.074-3.413 7.828 2.176 13.324 7.234 12.275 11.296z" style="marker:none" overflow="visible"/><path style="marker:none" d="M268.7 173.551c-.297.998-2.331 1.373-4.544.838-2.213-.534-3.767-1.776-3.47-2.774.296-.997 2.33-1.373 4.543-.838 2.213.534 3.767 1.776 3.47 2.774z" fill="#fff" overflow="visible"/></g></svg>