<svg version="1.1" viewBox="0 0 800 500" xmlns="http://www.w3.org/2000/svg" xmlns:xlink="http://www.w3.org/1999/xlink"><defs><linearGradient id="c"><stop stop-color="#1a1a1a" offset="0"/><stop stop-color="#1a1a1a" stop-opacity="0" offset="1"/></linearGradient><linearGradient id="a"><stop offset="0"/><stop stop-color="#313131" offset=".6"/><stop stop-color="#323232" offset=".6"/><stop offset=".9"/><stop offset="1"/></linearGradient><linearGradient id="b"><stop stop-color="#fff" offset="0"/><stop stop-color="#57452a" offset=".30014"/><stop stop-color="#fff" offset=".60028"/><stop stop-color="#181815" offset=".79818"/><stop stop-color="#353328" offset="1"/></linearGradient><linearGradient id="z" x1="36.266" x2="206.27" y1="204" y2="204" gradientTransform="matrix(.39345 0 0 .39345 126.8 88.994)" gradientUnits="userSpaceOnUse" xlink:href="#a"/><linearGradient id="x" x1="16.676" x2="181.94" y1="186.59" y2="186.59" gradientTransform="matrix(.39345 0 0 .39345 126.8 88.994)" gradientUnits="userSpaceOnUse" xlink:href="#a"/><linearGradient id="u" x1="49.086" x2="152.6" y1="196.71" y2="66.617" gradientTransform="matrix(.39345 0 0 .39345 126.8 88.994)" gradientUnits="userSpaceOnUse" xlink:href="#a"/><linearGradient id="m" x1="12.726" x2="78.938" y1="134.67" y2="55.002" gradientTransform="matrix(.45648 0 0 .45648 35.049 12.397)" gradientUnits="userSpaceOnUse" xlink:href="#a"/><radialGradient id="e" cx="244.58" cy="9.4534" r="323.08" gradientTransform="matrix(.44277 0 0 .23689 117.75 201.17)" gradientUnits="userSpaceOnUse" xlink:href="#a" spreadMethod="reflect"/><linearGradient id="d" x1="1057" x2="1058.1" y1="151.93" y2="-1.607" gradientTransform="matrix(.523 0 0 .523 13.725 51.367)" gradientUnits="userSpaceOnUse" xlink:href="#a" spreadMethod="reflect"/><linearGradient id="ar" x1="1253.9" x2="1203.5" y1="119.05" y2="119.05" gradientTransform="matrix(0 .523 -.523 0 773.73 -543.47)" gradientUnits="userSpaceOnUse" xlink:href="#a"/><linearGradient id="aq" x1="1253.9" x2="1203.5" y1="119.05" y2="119.05" gradientTransform="matrix(0 .523 -.523 0 731.89 -543.47)" gradientUnits="userSpaceOnUse" xlink:href="#a"/><linearGradient id="ap" x1="439.58" x2="439.58" y1="352.76" y2="296.06" gradientTransform="matrix(1.2615 0 0 1.2615 21.541 -313.66)" gradientUnits="userSpaceOnUse" xlink:href="#a"/><linearGradient id="ao" x1="1297.5" x2="1225.5" y1="119.03" y2="119.03" gradientTransform="matrix(0 -.523 .523 0 593.97 757.31)" gradientUnits="userSpaceOnUse" xlink:href="#b" spreadMethod="reflect"/><linearGradient id="an" x1="548.18" x2="565.67" y1="358.44" y2="321.97" gradientTransform="matrix(1.3993 0 0 1.3993 -35.018 -360.29)" gradientUnits="userSpaceOnUse" xlink:href="#b"/><linearGradient id="am" x1="1061.3" x2="1044.4" y1="127.86" y2="-42.09" gradientTransform="matrix(.523 0 0 .523 13.725 51.367)" gradientUnits="userSpaceOnUse" xlink:href="#a" spreadMethod="reflect"/><linearGradient id="al" x1="1499.4" x2="1431" y1="118.33" y2="118.33" gradientTransform="matrix(0 -.523 .523 0 702.8 866.87)" gradientUnits="userSpaceOnUse" xlink:href="#b" spreadMethod="reflect"/><radialGradient id="l" cx="1493.1" cy="117.9" r="11.391" gradientTransform="matrix(2.592 .56928 -1.5507 7.0604 -2895.6 -1575)" gradientUnits="userSpaceOnUse" xlink:href="#b"/><linearGradient id="ak" x1="1057" x2="1058.1" y1="151.93" y2="-1.607" gradientTransform="matrix(.54506 0 0 .50884 -16.873 52.993)" gradientUnits="userSpaceOnUse" xlink:href="#a" spreadMethod="reflect"/><linearGradient id="aj" x1="1057" x2="1058.1" y1="151.93" y2="-1.607" gradientTransform="matrix(.537 0 0 .49426 -28.616 54.691)" gradientUnits="userSpaceOnUse" xlink:href="#a" spreadMethod="reflect"/><linearGradient id="ai" x1="1057" x2="1058.1" y1="151.93" y2="-1.607" gradientTransform="matrix(.5511 0 0 .48086 -54.398 56.167)" gradientUnits="userSpaceOnUse" xlink:href="#a" spreadMethod="reflect"/><linearGradient id="ah" x1="267.03" x2="275.17" y1="337.97" y2="337.97" gradientTransform="matrix(1.3993 0 0 1.3604 -51.636 -347.25)" gradientUnits="userSpaceOnUse" xlink:href="#a" spreadMethod="reflect"/><linearGradient id="ag" x1="267.03" x2="275.17" y1="337.97" y2="337.97" gradientTransform="matrix(1.4921 0 0 1.3253 -93.776 -335.39)" gradientUnits="userSpaceOnUse" xlink:href="#a" spreadMethod="reflect"/><linearGradient id="af" x1="267.03" x2="275.17" y1="337.97" y2="337.97" gradientTransform="matrix(1.5157 0 0 1.2879 -116.88 -322.8)" gradientUnits="userSpaceOnUse" xlink:href="#a" spreadMethod="reflect"/><linearGradient id="ae" x1="267.03" x2="275.17" y1="337.97" y2="337.97" gradientTransform="matrix(1.3993 0 0 1.3993 -35.018 -360.29)" gradientUnits="userSpaceOnUse" xlink:href="#a" spreadMethod="reflect"/><linearGradient id="ad" x1="1067.7" x2="1067.7" y1="-36.783" y2="152.63" gradientTransform="matrix(.523 0 0 .523 13.725 51.367)" gradientUnits="userSpaceOnUse" xlink:href="#a" spreadMethod="reflect"/><radialGradient id="k" cx="389.72" cy="325.36" r="206.59" gradientTransform="matrix(1.6724 0 0 .31822 -138.57 20.649)" gradientUnits="userSpaceOnUse" xlink:href="#c"/><linearGradient id="ac" x1="968.06" x2="1144" y1="992.13" y2="819.38" gradientTransform="matrix(.39345 0 0 .39345 126.8 88.994)" gradientUnits="userSpaceOnUse" xlink:href="#b"/><linearGradient id="ab" x1="846.66" x2="959.36" y1="852.23" y2="727.82" gradientTransform="matrix(.39345 0 0 .39345 126.8 88.994)" gradientUnits="userSpaceOnUse" xlink:href="#b"/><linearGradient id="aa" x1="811.17" x2="913.72" y1="811" y2="684.82" gradientTransform="matrix(.39345 0 0 .39345 126.8 88.994)" gradientUnits="userSpaceOnUse" xlink:href="#b" spreadMethod="reflect"/><linearGradient id="y" x1="840.48" x2="909.29" y1="914.02" y2="827.78" gradientTransform="matrix(.39345 0 0 .39345 126.8 88.994)" gradientUnits="userSpaceOnUse" xlink:href="#b" spreadMethod="reflect"/><linearGradient id="w" x1="886.41" x2="814.28" y1="665.38" y2="748.08" gradientTransform="matrix(.39345 0 0 .39345 126.8 88.994)" gradientUnits="userSpaceOnUse" xlink:href="#a"/><linearGradient id="v" x1="753.31" x2="696.73" y1="573.36" y2="639.44" gradientTransform="matrix(.39345 0 0 .39345 134.64 94.845)" gradientUnits="userSpaceOnUse" xlink:href="#a"/><linearGradient id="t" x1="1028.5" x2="1022.8" y1="734.84" y2="932.12" gradientTransform="matrix(.39345 0 0 .39345 126.8 88.994)" gradientUnits="userSpaceOnUse" xlink:href="#b"/><linearGradient id="s" x1="854.24" x2="972.5" y1="978.44" y2="903.55" gradientTransform="matrix(.39345 0 0 .39345 126.8 88.994)" gradientUnits="userSpaceOnUse" xlink:href="#b" spreadMethod="reflect"/><radialGradient id="j" cx="813.45" cy="869.92" r="69.786" gradientTransform="matrix(.54144 .14508 -.16484 .61517 146.74 -217.32)" gradientUnits="userSpaceOnUse" xlink:href="#b" spreadMethod="reflect"/><linearGradient id="r" x1="779.73" x2="857.63" y1="898.34" y2="798.37" gradientTransform="matrix(.39345 0 0 .39345 126.8 88.994)" gradientUnits="userSpaceOnUse" xlink:href="#b" spreadMethod="reflect"/><radialGradient id="i" cx="508.6" cy="461.03" r="103.16" gradientTransform="matrix(1.1324 0 0 1.2465 -285.64 -376.42)" gradientUnits="userSpaceOnUse" xlink:href="#a" spreadMethod="reflect"/><linearGradient id="q" x1="456.98" x2="644.88" y1="588.31" y2="371.78" gradientTransform="matrix(.39345 0 0 .39345 126.8 88.994)" gradientUnits="userSpaceOnUse" xlink:href="#a"/><radialGradient id="h" cx="731.93" cy="747.49" r="121.01" gradientTransform="matrix(1.532 0 0 1.6839 -663.64 -784.85)" gradientUnits="userSpaceOnUse" xlink:href="#a" spreadMethod="reflect"/><linearGradient id="p" x1="500.58" x2="627.44" y1="567.69" y2="410.76" gradientTransform="matrix(.39345 0 0 .39345 126.8 88.994)" gradientUnits="userSpaceOnUse" xlink:href="#a" spreadMethod="reflect"/><radialGradient id="g" cx="110.2" cy="104.27" r="108.61" gradientTransform="matrix(.57805 .11462 -.10573 .53324 192.96 23.1)" gradientUnits="userSpaceOnUse" xlink:href="#a" spreadMethod="reflect"/><linearGradient id="o" x1="76.841" x2="271.38" y1="244.62" y2="244.62" gradientTransform="matrix(.39345 0 0 .39345 126.8 88.994)" gradientUnits="userSpaceOnUse" xlink:href="#a"/><linearGradient id="n" x1="56.322" x2="231.13" y1="221.47" y2="221.47" gradientTransform="matrix(.39345 0 0 .39345 126.8 88.994)" gradientUnits="userSpaceOnUse" xlink:href="#a"/><radialGradient id="f" cx="976.54" cy="99.891" r="513.62" gradientTransform="matrix(.80048 0 0 .65992 -277.12 97.707)" gradientUnits="userSpaceOnUse" xlink:href="#c"/></defs><g><path d="m270.02 89c-15.32-0.19779-36.345-0.11483-59.2 1.0128-45.709 2.2553-97.927 6.6899-134.25 27.66-28.297 16.338-45.257 45.235-57.545 69.599-12.288 24.364-19.03 45.605-19.03 45.605l43.494 13.851s5.7673-18.035 16.291-38.901c10.523-20.866 26.69-43.165 39.614-50.627 19.786-11.423 70.481-19.467 113.66-21.597s79.627-0.34236 79.627-0.34236l2.2681-45.591s-9.6155-0.47267-24.935-0.67046z" color="#000000" fill="url(#e)" style="block-progression:tb;text-indent:0;text-transform:none"/><path d="m21.969 40.406-0.46875 47.781 110.94 100.28c-4.6994 11.469-3.9296 24.551 6.0938 33.719 8.8338 8.6173 17.545 17.225 26.156 26.062-1.3978-3.2136 7.1441 10.067 9.4688 14.281 6.8363 12.093 14.523 23.718 25.938 31.969 30.35 26.274 60.449 53.161 90.938 79.062 13.389 11.661 32.805-1.7131 45.562 3.2188 32.948 27.183 65.904 54.337 98.875 81.531-0.20221-0.06141-0.34791-0.08977-0.40625-0.09375 0.34414 0.39383 13.798 5.703 18.031 2.7188 12.325 11.771 24.205 24.01 36.812 35.469 18.522 3.1341 42.576-11.743 41.875-32.656 6.5894-13.313-4.0778-22.306-14.719-27.5l-30.656-19.375c1.8671-14.859-12.453-19.521-21.938-27.812-29.856-22.408-59.982-44.96-89.938-67.438 0.81813-16.219-1.3565-37.086-17.062-45.719-34.617-24.424-69.223-48.862-103.84-73.281-16.443-8.542-36.308-9.4839-51.188-21-6.4324-3.1404-12.381-7.75-18.625-11.531l-161.84-129.69z" fill="url(#f)"/><path d="m15.977 3.1677-0.46573 47.794 134.47 121.55 36.155-32.989z" color="#000000" fill="url(#m)" style="block-progression:tb;text-indent:0;text-transform:none"/><path d="m178.15 129.63c-0.90886 8e-3 -1.8344 0.0611-2.7665 0.17214-8.7117 1.2046-16.461 5.9234-22.181 12.086-7.3167 8.1298-11.903 18.974-10.697 29.73 0.73311 7.9402 5.2194 13.238 10.832 18.578 0.71346 0.68342 1.482 1.3142 2.287 1.8935l1.6353 2.0164 3.9591 3.9591 1.9304 1.4263 2.0779 2.5574 4.0329 4.0329 1.9796 1.4509 2.1025 2.6066 4.119 4.1067-1.6107-1.9919c1.7298 2.0206 3.8163 3.824 6.2584 5.4223l5.4223 2.164 5.9756 0.86067 6.3198-0.46722 6.4182-1.7705 6.2707-3.0001 5.9141-4.0944 5.3239-5.0534 4.5739-5.8157 3.6517-6.369 2.582-6.7133 1.414-6.7994 0.20903-6.6518c-0.87796-8.4338-4.2484-15.875-11.115-20.3l-4.9551-3.0247-3.037-1.4263-1.8812-1.5738-4.869-2.9632-2.9632-1.414-1.8566-1.5369-4.7829-2.914-2.3361-1.1066c-0.75586-0.649-1.5607-1.2495-2.3976-1.7828-5.6642-3.9436-11.479-6.3494-17.841-6.2953z" fill="url(#u)"/></g><g><path d="m212.99 153.79c-6.3387-0.79434-12.084 1.4572-17.619 4.3157-8.4603 4.3687-13.956 11.701-18.308 19.943-3.1126 5.8949-3.922 12.246-3.5165 18.775 0.50938 8.2012 4.907 12.929 10.5 18.468-4.2302-4.2052-6.005-9.2547-6.824-14.964-0.96151-6.7028 0.98515-12.994 3.6026-19.083 3.9105-9.0971 10.424-15.112 18.628-20.312 5.4805-3.4741 11.536-4.4307 17.89-4.4141 3.8082 0.01 6.9279 1.731 10.304 3.3075-4.743-3.4276-8.9422-5.321-14.656-6.0371z"/><path d="m182.14 136.33-1.7826 0.0508s-3.646 0.68459-5.3986 1.2733c-1.8302 0.61467-3.6014 1.4194-5.2968 2.3428-1.7657 0.96166-3.4572 2.0734-5.0421 3.3105-1.6196 1.2641-3.1441 2.6623-4.5328 4.1763-1.407 1.534-2.6702 3.2049-3.8198 4.9403-1.1292 1.7046-2.1499 3.4904-3.0049 5.3477-0.84672 1.8393-1.5602 3.7495-2.0882 5.7042-0.50367 1.8647-0.86583 3.7788-1.0186 5.7043-0.14636 1.845 0.10185 5.5515 0.10185 5.5515l0.35652 1.6807c-0.0272-3.2308 0.40003-6.587 1.2733-9.8806 1.7511-6.6046 5.2495-12.81 10.084-18.08 4.4993-4.9048 10.242-8.9152 16.858-11.205 1.0644-0.36838 2.176-0.66703 3.3105-0.91676z"/><path d="m191.25 142.19-1.8844 0.0508s-3.784 0.71117-5.6024 1.3242c-1.9013 0.64098-3.7427 1.4772-5.5005 2.4447-1.8233 1.0035-3.5635 2.1712-5.1949 3.4633-1.676 1.3274-3.2379 2.8068-4.6856 4.38-1.465 1.5921-2.8244 3.2923-4.0235 5.0931-1.1836 1.7774-2.22 3.6598-3.1068 5.6024-0.86316 1.8908-1.5955 3.8509-2.1391 5.857-0.52345 1.9317-0.89058 3.9147-1.0696 5.908-0.17155 1.9107 0 5.7552 0 5.7552l0.35652 1.477c-5e-3 -3.2666 0.42625-6.6616 1.3242-9.9824 1.8528-6.8521 5.5634-13.292 10.543-18.793 4.6317-5.1172 10.613-9.2387 17.469-11.612 1.1273-0.39025 2.316-0.69756 3.5142-0.96769z"/><path d="m200.17 148.2-1.6298 0.0508s-3.8874 0.74118-5.7552 1.3751c-1.9718 0.66926-3.8819 1.5391-5.7043 2.5465-1.8955 1.048-3.6994 2.273-5.3987 3.6161-1.7435 1.3781-3.3868 2.8953-4.8894 4.5328-1.5131 1.6489-2.8866 3.433-4.1254 5.2968-1.2286 1.8484-2.3286 3.7913-3.2596 5.8061-0.90351 1.9553-1.6726 3.9832-2.241 6.0608-0.55088 2.0139-0.93296 4.0832-1.1205 6.1626-0.17687 1.9614 0 5.908 0 5.908l0.30558 1.4261c0.023-3.3652 0.50101-6.8235 1.4261-10.237 1.927-7.1111 5.7544-13.814 10.95-19.507 4.8248-5.2858 10.988-9.6047 18.08-12.122 1.0756-0.38166 2.219-0.64976 3.3614-0.91676z"/></g><g><path d="m183.36 132.77c-0.97896 0.0187-1.9339 0.0857-2.9031 0.20372-2.04 0.2484-4.0588 0.72951-6.0098 1.3751-2.0423 0.67586-4.0201 1.566-5.908 2.5975-1.9668 1.0747-3.8419 2.3308-5.6024 3.718-1.8022 1.42-3.4886 2.9972-5.0422 4.6856-1.5637 1.6995-2.9941 3.5301-4.2782 5.4496-1.268 1.8955-2.409 3.8868-3.3614 5.9589-0.93533 2.0348-1.7136 4.1519-2.2919 6.3154-0.55637 2.0816-0.95077 4.2183-1.1205 6.3663-0.16183 2.0481-0.1382 4.1222 0.10187 6.1626 0.2296 1.9513 0.64339 3.8941 1.2733 5.7552 0.59414 1.7555 1.3583 3.472 2.3428 5.0422 0.95493 1.5231 3.4124 4.1763 3.4124 4.1763l1.9863 1.477c-2.782-3.6428-4.689-7.6692-5.195-12.733-0.096-0.9612-0.14472-1.9197-0.15271-2.9031 0 0-0.29155-1.1117-0.35651-1.6807-0.20995-1.8389-0.24825-3.7065-0.10186-5.5515 0.15271-1.9254 0.51495-3.8396 1.0186-5.7042 0.52801-1.9548 1.2414-3.865 2.0882-5.7042 0.85503-1.8574 1.8757-3.6431 3.0049-5.3477 1.1495-1.7354 2.4128-3.4062 3.8198-4.9403 1.3887-1.514 2.9133-2.9122 4.5328-4.1763 1.585-1.2371 3.2764-2.3488 5.0422-3.3105 1.6954-0.92339 3.4667-1.7281 5.2968-2.3428 1.7527-0.58868 3.5654-1.0334 5.3987-1.2733 0.58941-0.0771 1.7826-0.0508 1.7826-0.0508 2.7994-0.61625 5.77-0.91208 8.7601-0.6621 2.5736 0.21515 5.0588 0.98071 7.4868 2.0372l-1.7316-1.426s-3.1811-1.7247-4.8894-2.2919c-1.76-0.58437-3.603-0.94882-5.4496-1.1205-0.97212-0.0905-1.975-0.12042-2.954-0.10185z" fill="url(#x)"/><path d="m195.53 138.57-6.0608 0.15271-6.2136 1.477s-4.1561 1.6338-6.1117 2.6993c-2.0342 1.1084-3.9846 2.3884-5.8061 3.8198-1.8794 1.477-3.6294 3.1284-5.2459 4.8894-1.6192 1.7638-3.0994 3.6635-4.431 5.6533-1.3234 1.9775-2.5253 4.0493-3.5142 6.2136-0.96636 2.1148-1.7378 4.3251-2.3428 6.5701-0.57964 2.1508-1.0266 4.3511-1.2223 6.5701-0.18801 2.1309-0.19279 4.2921 0.0508 6.4173 0.23002 2.005 0.66991 3.9988 1.3242 5.908 0.62045 1.8104 1.4278 3.5737 2.4447 5.1949 0.97489 1.5544 3.4633 4.2782 3.4633 4.2782l2.0372 1.5279c-2.8738-3.7602-4.8381-7.9049-5.3477-13.191-0.0976-1.0132-0.15271-2.019-0.15271-3.0558v-0.15271s-0.29667-0.97408-0.35652-1.477c-0.22665-1.905-0.17155-3.8445 0-5.7552 0.17897-1.9933 0.5461-3.9763 1.0696-5.908 0.54363-2.0061 1.2759-3.9663 2.1391-5.857 0.88677-1.9426 1.9232-3.825 3.1068-5.6024 1.1992-1.8008 2.5585-3.501 4.0235-5.0931 1.4477-1.5733 3.0096-3.0526 4.6856-4.38 1.6315-1.2921 3.3716-2.4598 5.1949-3.4633 1.7578-0.96743 3.5992-1.8037 5.5005-2.4447 1.8184-0.61303 3.6996-1.0763 5.6024-1.3242 0.62311-0.0812 1.8844-0.0508 1.8844-0.0508 2.8523-0.64304 5.8543-0.96513 8.9129-0.71303 2.6971 0.2223 5.2697 0.99931 7.7924 2.0882l-1.7826-1.477s-3.2763-1.8079-5.0422-2.3937c-1.8076-0.59982-5.6024-1.1206-5.6024-1.1206z" fill="url(#z)"/><path d="m201.74 144.33c-1.047 0.0263-2.0711 0.12028-3.1068 0.25466-2.1806 0.28301-4.3363 0.81752-6.4173 1.5279-2.186 0.74624-4.2929 1.7364-6.3154 2.8521-2.1026 1.16-4.1206 2.4902-6.0098 3.9726-1.947 1.5278-3.7772 3.218-5.4496 5.0421-1.6844 1.8373-3.2078 3.8296-4.5838 5.908-1.3636 2.0596-2.5833 4.2244-3.6161 6.4682-1.0061 2.1858-1.8568 4.4539-2.4956 6.7738-0.6144 2.2311-1.069 4.5196-1.2733 6.8247-0.19481 2.1985-0.19435 4.4276 0.0508 6.621 0.22988 2.0551 0.66575 4.1005 1.3242 6.0608 0.63126 1.8793 1.4505 3.714 2.4956 5.3987 0.99938 1.6109 3.5652 4.431 3.5652 4.431l2.0372 1.477c-2.9387-3.8716-4.9421-8.1564-5.4496-13.548-0.10348-1.0987-0.15874-2.2344-0.15271-3.3614 1e-4 -0.0168-1.1e-4 -0.0343 0-0.0508 0 0-0.25438-0.94262-0.30558-1.4261-0.20747-1.9584-0.17687-3.9466 0-5.908 0.1875-2.0794 0.56959-4.1487 1.1205-6.1626 0.56831-2.0776 1.3374-4.1055 2.241-6.0608 0.931-2.0148 2.0309-3.9577 3.2596-5.8061 1.2388-1.8638 2.6123-3.6479 4.1254-5.2968 1.5026-1.6375 3.1458-3.1547 4.8894-4.5328 1.6992-1.3431 3.5031-2.5681 5.3987-3.6161 1.8223-1.0075 3.7324-1.8773 5.7042-2.5465 1.8678-0.63394 3.8002-1.1138 5.7552-1.3751 0.53873-0.0721 1.6298-0.0508 1.6298-0.0508 3.026-0.70719 6.2192-1.0863 9.4731-0.81488 2.7909 0.23277 5.468 1.0614 8.098 2.19l-1.8844-1.5789s-3.3402-1.8526-5.144-2.4447c-1.8728-0.61469-3.8418-0.95681-5.8061-1.1205-1.0408-0.0867-2.1107-0.12809-3.1577-0.10186z" fill="url(#n)"/><path d="m211.22 150.29c-1.0809 0.0478-2.1398 0.15858-3.2086 0.30558-2.2477 0.30924-4.4744 0.84414-6.621 1.5789-2.2572 0.77255-4.4354 1.7922-6.5192 2.954-2.1797 1.2152-4.2573 2.6268-6.2136 4.1763-2.0152 1.5962-3.913 3.3538-5.6533 5.2459-1.7519 1.9047-3.3491 3.9604-4.7875 6.1117-1.4197 2.1234-2.6946 4.3546-3.7689 6.6719-1.0505 2.266-1.941 4.6186-2.5975 7.0284-0.63023 2.3134-1.0602 4.6912-1.2733 7.0794-0.20213 2.2659-0.2365 4.5621 0 6.8247 0.2219 2.1227 0.65445 4.238 1.3242 6.2645 0.63888 1.933 1.4735 3.8213 2.5465 5.5514 1.0243 1.6516 2.2618 3.1903 3.667 4.5328 1.3871 1.3253 2.9589 2.4785 4.6347 3.4124 1.7101 0.95294 5.4496 2.19 5.4496 2.19l1.7826-3.2086s-3.3225-1.0873-4.8384-1.9354c-1.5142-0.84708-2.9272-1.9026-4.1763-3.1068-1.2694-1.2237-2.3839-2.6254-3.3105-4.1254-0.96214-1.5575-1.7205-3.2519-2.2919-4.9912-0.60061-1.8283-0.97515-3.7389-1.1714-5.6533-0.20776-2.0266-0.18509-4.0829 0-6.1117 0.19605-2.1488 0.59879-4.286 1.1714-6.3664 0.59587-2.1648 1.3949-4.28 2.3428-6.3154 0.9725-2.0883 2.1288-4.0969 3.4124-6.0098 1.2868-1.9177 2.7191-3.7459 4.2782-5.4496 1.5568-1.7012 3.2392-3.2989 5.0422-4.7366 1.7597-1.4032 3.6364-2.6732 5.6024-3.7689 1.8716-1.043 3.8298-1.9545 5.857-2.6484 1.9323-0.66141 3.9351-1.1512 5.9589-1.4261 1.9189-0.26063 3.8751-0.35019 5.8061-0.20373 1.8261 0.13854 3.657 0.45264 5.3987 1.0186 1.6612 0.53982 3.2616 1.3055 4.7366 2.241 1.4667 0.9302 2.838 2.0412 4.0235 3.3105 1.1962 1.2808 3.0558 4.2782 3.0558 4.2782l2.6993-2.5466s-2.0881-3.3108-3.4124-4.7366c-1.3121-1.4127-2.8069-2.6788-4.431-3.718-1.644-1.0519-3.4424-1.8868-5.2968-2.4956-1.9233-0.6314-3.9406-1.0149-5.9589-1.1714-1.0756-0.0834-2.1786-0.0986-3.2596-0.0508z" fill="url(#o)"/><path d="m205.39 154.9c-7.4885 2.2306-13.275 7.1852-18.701 12.603-5.6542 5.6455-9.1796 12.611-11.361 20.164-2.9652 10.268-1.8464 16.532 2.5574 26.115l19.046 31.12c96.517 99.259 152.73-36.013 62.51-79.564l-34.735-11.127c-6.5976-2.0286-12.893-1.2246-19.316 0.68854z" fill="url(#g)"/><path d="m242.98 164.19c-10.496 1.1508-17.793 6.0054-26.14 12.074-5.7783 4.201-10.216 9.6784-14.201 15.529-8.4628 12.425-11.341 22.581-10.722 37.378 0.40564 9.6979 2.6381 13.572 9.8609 21.689l98.966 86.314 72.924-92.843-107.28-75.691c-8.4496-4.7978-14.063-5.4758-23.41-4.4509z" fill="url(#p)"/><path d="m349.29 240.79c-6.9601 1.4962-13.462 4.4389-19.082 7.8814-13.635 8.9543-24.303 21.081-31.194 34.673-6.9698 14.616-11.34 33.147-3.0493 47.694 4.094 7.0338 10.878 11.472 18.443 12.972 5.6152 0.98837 16.365-0.71313 16.365-0.71313l55.944-71.326s-2.1828-16.511-7.3281-22.624c-7.6843-8.8588-19.393-10.672-30.099-8.5576z" fill="url(#h)"/><path d="m348.31 249.11c-13.604 2.4114-22.043 9.5076-31.169 19.439-12.007 13.067-17.878 25.207-17.779 42.874 0.0763 13.605 4.8967 17.089 14.902 25.538 30.854-30.854 42.095-44.293 62.387-79.441-10.642-8.3999-15.229-10.734-28.341-8.4101z" fill="url(#q)"/><path d="m363.6 253.91c-2.5796-0.038-5.1719 0.28249-7.6969 0.8115-2.7656 0.57941-5.4695 1.4837-8.0781 2.5697-2.8212 1.1746-5.5334 2.6262-8.1273 4.2419-2.7574 1.7176-5.378 3.6667-7.8568 5.7666-2.5675 2.175-4.9811 4.542-7.2297 7.0453-2.2803 2.5386-4.3949 5.2359-6.3198 8.0535-1.9009 2.7824-3.6323 5.6913-5.1395 8.7052-1.4513 2.9021-2.723 5.906-3.7378 8.988-0.9572 2.9071-1.7256 5.8907-2.2009 8.9142-0.43827 2.7883-0.68057 5.6259-0.59018 8.447 0.0826 2.5792 0.38254 5.1751 1.0328 7.6724 0.59396 2.281 1.4342 4.5263 2.5943 6.578 1.0849 1.9188 2.4362 3.7177 4.0206 5.2502 1.5458 1.4952 3.3351 2.7714 5.2502 3.7501 1.9677 1.0056 4.1145 1.6895 6.283 2.1148 2.3131 0.45364 4.7032 0.55718 7.0576 0.44264 2.546-0.12386 5.082-0.57738 7.5494-1.2172 2.6668-0.6916 5.2643-1.6719 7.7707-2.8157 2.6723-1.2195 5.2393-2.6822 7.6969-4.2911 2.5814-1.6899 5.0358-3.5832 7.365-5.6067 2.3978-2.0832 4.6615-4.3297 6.7748-6.701 2.1345-2.3951 4.1177-4.9326 5.9387-7.574 1.8033-2.6157 3.4619-5.3405 4.9182-8.1642 1.4135-2.7406 2.6625-5.5759 3.6886-8.4838 0.97736-2.7698 1.7855-5.6111 2.3361-8.4961 0.51632-2.7052 0.85628-5.4596 0.89756-8.2134 0.0382-2.5487-0.1194-5.1204-0.60247-7.6232-0.44589-2.3101-1.1139-4.6029-2.1025-6.7379-0.92977-2.0078-2.1085-3.931-3.5534-5.6067-1.4042-1.6285-3.0626-3.0701-4.8813-4.2173-1.8658-1.1769-3.9378-2.0595-6.0616-2.6558-2.2657-0.63614-4.6431-0.91208-6.9961-0.94675zm-5.533 16.046c1.5322 6e-3 3.0812 0.17061 4.5616 0.56559 1.379 0.36792 2.7272 0.91871 3.9468 1.6599 1.1938 0.72542 2.2927 1.6369 3.2214 2.6804 0.953 1.0708 1.7286 2.31 2.3484 3.6026 0.66021 1.3766 1.1205 2.8568 1.4263 4.3526 0.33205 1.6243 0.4419 3.2972 0.43034 4.9551-0.0125 1.796-0.21574 3.5945-0.541 5.3608-0.34749 1.8871-0.86667 3.7463-1.5 5.5575-0.6665 1.906-1.4878 3.7612-2.4099 5.5575-0.95114 1.8528-2.0291 3.6447-3.2091 5.3608-1.1925 1.7342-2.496 3.3974-3.8976 4.9674-1.3878 1.5544-2.8745 3.0268-4.451 4.3895-1.5274 1.3203-3.1394 2.5514-4.8321 3.6517-1.6104 1.0468-3.2895 2.0031-5.0411 2.7911-1.6373 0.73653-3.3366 1.3587-5.078 1.7951-1.6086 0.40316-3.261 0.68685-4.9182 0.75003-1.5278 0.0582-3.078-0.0279-4.5739-0.34427-1.4002-0.2961-2.7814-0.76697-4.0452-1.4386-1.232-0.65473-2.3806-1.4989-3.369-2.4837-1.0127-1.009-1.8718-2.1883-2.5574-3.4427-0.73351-1.3419-1.2562-2.8065-1.623-4.2911-0.40115-1.6237-0.5741-3.3077-0.61478-4.9796-0.0444-1.8242 0.11306-3.6581 0.40575-5.4592 0.31602-1.9447 0.82652-3.861 1.4509-5.7297 0.66189-1.981 1.4839-3.9128 2.4222-5.7788 0.97158-1.9323 2.0855-3.7976 3.3075-5.5821 1.2369-1.8062 2.5948-3.5353 4.0575-5.1641 1.4465-1.6108 2.9994-3.1332 4.6477-4.537 1.5882-1.3527 3.2638-2.6134 5.0288-3.7255 1.6675-1.0507 3.4108-1.9976 5.2256-2.7665 1.6827-0.71297 3.428-1.3065 5.2133-1.6968 1.6285-0.35602 3.3004-0.58417 4.9674-0.57788z" fill="url(#i)"/><path d="m347.57 271.91c-5.8493 2.4984-10.42 6.6533-14.902 11.029-5.8412 6.398-9.1421 13.978-11.238 22.255-0.87945 7.6754-0.19328 12.004 4.3895 18.173l122.42 100.94c-4.5511-5.541-4.0069-12.025-3.0247-18.701 2.1871-9.2412 7.352-16.954 13.119-24.308 4.5096-5.3065 10.069-9.205 15.972-12.763 7.2751-3.1615 11.387-4.3225 18.874-1.5l-126.92-95.169c-6.2173-3.3202-12.327-2.0216-18.689 0.0492z" fill="url(#r)"/><path d="m484.53 365.12c-5.9657 0.60725-10.948 3.4768-15.972 6.5043-9.9435 6.9967-16.619 16.741-21.677 27.603-2.276 5.556-2.7895 11.173-2.5083 17.078 0.99199 4.9062 2.922 7.2601 6.8363 10.095 4.7702 1.812 9.3495 1.1691 13.882-0.19672l-4.5862-4.451c-0.61412-0.92569-1.1156-1.8584-1.5124-2.8034-0.41184-0.86083-0.76795-1.8334-1.082-2.9263-0.15406-1.1651-0.17819-2.3035-0.11066-3.4304 2.9e-4 -0.0163-3.4e-4 -0.0328 0-0.0492 0.0301-1.4721 0.24664-2.9863 0.61477-4.5616 0.21658-0.67752 0.44103-1.3495 0.67625-2.0164 0.24294-0.82925 0.49677-1.653 0.76232-2.4837 0.89866-2.3541 2.0663-4.5402 3.3935-6.6272 1.3765-2.3573 2.9717-4.6012 4.8567-6.6887 1.8582-2.1946 3.9698-4.0547 6.2215-5.742 0.0891-0.0711 0.18087-0.13866 0.2705-0.20903 1.4793-1.1616 3.0207-2.2271 4.6723-3.1353 5e-3 -3e-3 7e-3 -9e-3 0.0123-0.0123 0.17235-0.10645 0.34322-0.21407 0.51641-0.31968 0.82289-0.41806 1.6451-0.77643 2.4591-1.082 0.0414-0.0167 0.0815-0.0327 0.12295-0.0492 0.44714-0.17741 0.90202-0.35003 1.3648-0.50411 0.36078-0.0738 0.71455-0.1536 1.0697-0.22132 0.0688-0.0152 0.14019-0.0226 0.20902-0.0369 0.42219-0.0876 0.84308-0.15568 1.2664-0.20902 0.1199-0.0178 0.23711-0.0332 0.35657-0.0492 0.0497-5e-3 0.0978-8e-3 0.14755-0.0123 2.3188-0.29418 4.5573-0.2173 6.8608 0.92215l5.4961 3.4427c0.28558-4.5663-0.22659-8.4935-3.1846-13.574-3.2152-3.4744-6.9434-4.0242-11.435-4.2542z" fill="url(#j)"/><path d="m524.64 411.1c-11.395 5.9659-18.979 16.377-24.271 27.861-2.8121 6.1023-4.1966 12.591-1.7214 18.8 2.7926 7.0053 12.853 6.208 16.267 4.4509 4.6516-2.3939 16.272-7.1754 14.3-6.4674-2.3208 0.83287-4.5408 1.0379-6.2461-0.72545-1.8808-1.9447-1.4102-4.704-0.73777-7.1559 1.709-6.2308 5.9652-11.246 11.423-14.558 2.7032-1.6402 5.8695-2.403 8.2379-0.0738 1.3437 1.3215 0.73772 6.7665 1.0697 4.9919 0.96308-5.1477 1.9263-10.295 2.8894-15.443 0.79099-4.2278 0.29037-8.2309-2.3853-11.459-4.9793-6.0079-12.725-3.4146-18.824-0.22131z" fill="url(#s)"/><path d="m535.44 451.92c3.4491-3.2199 5.7911-7.1894 7.3566-11.596 1.4345-6.0178-0.40531-9.9544-7.0027-8.2835-7.4008 3.2749-12.761 10.31-14.284 18.208-0.24609 10.503 9.1441 5.7048 13.93 1.6719z" fill="url(#t)"/><path d="m344.97 278.34a1.8919 1.8919 0 0 0-1.1232 3.3815l117.93 93.617a1.8919 1.8919 0 1 0 2.3528-2.9558l-117.94-93.617a1.8919 1.8919 0 0 0-1.2178-0.42564z" color="#000000" fill="#fff" style="block-progression:tb;text-indent:0;text-transform:none"/><g><path d="m422.54 315.74c-24.739-0.13154-46.045 22.377-42.173 50.768 0.0564 0.4138 4e-3 0.83891 0.0123 1.2541l11.361 9.3568c-4.0393-29.085 16.482-52.391 43.526-52.145 0.63965 6e-3 1.2839 0.0262 1.9181 0.0615l-12.295-9.2093c-0.77584-0.0512-1.562-0.0861-2.3484-0.0861z" fill="url(#v)"/><path d="m416.36 398.01 12.234 10.07c-2.332-27.185 17.647-54.09 46.969-54.284l-13.218-9.9101c-36.77 0.31059-49.731 35.4-45.985 54.124z" fill="url(#w)"/><path d="m505.87 431.67c2.5664-5.8658-6.8959 6.6849-8.2636 17.77-1.449 11.744 6.8097 16.832 16.974 13.276 1.4307-0.73627 12.486-6.0149 14.637-6.9738 4.0632-2.7317-44.566 24.425-23.348-24.072z" fill="#808080"/></g><path d="m483.43 378.8c-6.2904 2.0944-11.091 6.4145-15.64 11.054-4.6681 5.1695-7.5917 11.256-9.6888 17.816-1.178 5.041-0.75288 9.4853 2.0902 13.771l40.658 39.552c-3.8055-4.9027-3.0185-10.562-1.9918-16.291 2.1865-8.1808 6.8541-15.062 12.013-21.628 5.1883-6.1104 11.532-10.527 18.8-13.734 4.0689-1.4217 7.6276-1.2194 11.595 0.14755l-47.925-30.293c-3.2944-1.6296-6.4632-1.0988-9.9101-0.39345z" fill="url(#y)"/><g><path d="m480.7 365.12c-16.032-0.0556-28.738 18.107-33.517 31.452 5.5616-10.066 19.017-26.189 33.21-30.357 3.4178-1.0537 1.4813-1.1507 0.30739-1.0943z" fill="url(#aa)"/><path d="m347.82 257.29c-21.431 4.7755-29.17 18.558-34.673 33.812 8.153-15.952 19.73-27.197 34.673-33.812z" fill="#808080"/><path d="m343.12 242.54c-27.262 5.7637-37.108 22.398-44.108 40.809 10.372-19.253 25.099-32.825 44.108-40.809z" fill="#808080"/></g><path d="m474.6 384.22a1.907 1.907 0 0 0-1.0369 3.4443l38.769 29.08a1.907 1.907 0 1 0 2.2882-3.051l-38.769-29.08a1.907 1.907 0 0 0-1.2514-0.39329z" color="#000000" fill="#fff" style="block-progression:tb;text-indent:0;text-transform:none"/><g><path d="m483.43 378.8c-9.4386 1.5016-18.539 13.485-22.236 22.911 3.971-6.383 17.043-17.199 25.603-23.121 2.2674-0.76755-2.5888 0.16929-3.3676 0.21041z" fill="url(#ab)"/><path d="m531.17 408.35c-15.822-0.51496-26.304 15.998-29.331 29.033 4.3992-4.1472 16.642-24.175 29.062-28.023 2.9909-0.97267 1.2964-1.0622 0.26905-1.0101z" fill="url(#ac)"/><path d="m566.5 81.094c-53.835 0.40806-107.74 0.23038-161.53 1-17.126 4.0774-34.818 6.6423-51.594 11.656-3.0323 7.6126-5.4185-4.0656-10.875-0.3125-4.9328-2.9433-7.1318 5.9982-9.875 2.7812-2.6862-4.0894-8.8288-1.3728-12.656-1.0312-2.2738 5.3068-3.9592 1.0752-6.7812-0.15625-4.8873-0.24393-10.367 0.42973-13.156 3.7188-2.8024-4.7745-9.2876-2.3054-13.656-1.75-1.968 2.5088-3.3951 5.2899-4.4375 8.2188-3.4605-0.0885-7.3166-0.15949-11.906-0.21875-15.32-0.19779-36.364-0.12765-59.219 1-45.709 2.2553-97.929 6.7175-134.25 27.688-28.297 16.338-45.243 45.229-57.531 69.594-12.288 24.364-19.031 45.594-19.031 45.594l43.5 13.844s5.7579-18.009 16.281-38.875c10.523-20.866 26.701-43.195 39.625-50.656 19.786-11.423 70.473-19.463 113.66-21.594 28.35-1.3988 53.552-1.0832 67.688-0.71875 0.97611 4.5232 2.6965 8.7595 5.9062 12.125 5.3226 2.3517 11.851-0.63255 14.875-0.96875 2.6445 3.8592 9.9935 4.9352 12.906 2.3125 5.2394-4.7177 4.7353 0.51948 10.625 1.25 6.3801 0.79135 7.1505-5.6658 11.062-0.46875 2.2408 2.9769 9.334 2.4566 13-0.1875 2.7602-1.9908 10.953 4.3496 17.594 5 15.09 1.478 29.567 8.4138 44.719 8.7188 50.378 1.0138 101.01 0.17059 151.25 1.5938 6.6924 0.18958 1.0468-4.7672 6.4375-5.75 2.1851-0.39839 5.2064-0.19962 7.8438-1.5938 4.1716-2.2052-3.3306-14.72 3.2188-14.656 50.867 0.49358 102.28 6.3276 152.69 0.21875 7.1196-0.86278 8.9628-7.1553 16.062-6.1875 12.793 1.744 26.823 7.4965 38.719 2.6875 8.2379-3.3303 12.279-13.183 12.344-23.312 0.0645-10.104-6.9407-16.292-11.938-23.625-15.956 4e-3 -32.301 2.1908-48.406 3.0312-3.659-3.5937-6.3598-9.396-12.531-7.3125-49.742-0.19015-99.973-0.2469-149.94-0.40625-1.0023-4.3101 1.9861-12.548-1.0938-14.812-6.431 1.0971-11.277 0.21842-9.5-7.4375h-0.09375z" color="#000000" fill="url(#k)" style="block-progression:tb;text-indent:0;text-transform:none"/><g><path d="m356.81 78.961-68.322 3.0341c-6.9289 20.226-5.3933 40.573 0.2288 60.979l68.306 3.406z" color="#000000" fill="url(#ad)"/><path d="m346.79 75.817c-2.3544 0.27875-8.6683 0.78691-8.6683 0.78691l0.22132 71.695s6.3201 1.123 8.6437 1.1312c0 0 1.1104-0.60487 1.5369-1.0574 0.64696-0.68645 1.4693-2.4406 1.4693-2.4406-3.7139 0.26505-5.6823-2.0384-6.658-4.9489-2.4931-7.4367-2.7879-13.531-3.2583-21.099-0.40954-6.5901-0.10622-13.184 0.38116-19.759 0.46473-6.2691 1.3232-12.546 3.996-18.246 1.1781-2.5123 2.9922-2.3859 5.5575-2.5329 0 0-0.11332-0.34417-0.19672-0.50411-0.40577-0.7781-0.81308-1.5991-1.4632-2.1886-0.43739-0.3966-1.5615-0.83609-1.5615-0.83609z" color="#000000" fill="url(#ae)"/><path d="m296.71 78.596c-2.5503 0.25657-9.2648 0.71535-9.2648 0.71535l0.11474 65.997s6.8461 1.0336 9.3632 1.0411c0 0 1.2029-0.55672 1.6648-0.97325 0.70081-0.63181 1.5916-2.2464 1.5916-2.2464-4.023 0.24395-6.1552-1.8762-7.2122-4.555-2.7006-6.8448-3.02-12.454-3.5295-19.42-0.44363-6.0656-0.11508-12.135 0.41288-18.186 0.50341-5.7701 1.4333-11.548 4.3286-16.794 1.2761-2.3123 3.2412-2.196 6.0201-2.3313 0 0-0.12275-0.31678-0.21311-0.46399-0.43953-0.71617-0.88075-1.4718-1.5849-2.0144-0.4738-0.36504-1.6915-0.76954-1.6915-0.76954z" color="#000000" fill="url(#af)"/><path d="m313.35 77.664c-2.5105 0.26402-8.6692 0.9937-8.6692 0.9937l-0.33796 67.658s6.7392 1.0636 9.217 1.0714c0 0 1.1841-0.57291 1.6389-1.0015 0.68986-0.65018 1.5667-2.3117 1.5667-2.3117-3.9602 0.25105-6.0591-1.9307-7.0996-4.6874-2.6584-7.0437-2.9728-12.816-3.4744-19.984-0.4367-6.2419-0.11328-12.487 0.40644-18.715 0.49554-5.9378 1.411-11.884 4.261-17.282 1.2562-2.3795 3.1906-2.2599 5.9261-2.399 0 0-0.12084-0.32599-0.20977-0.47747-0.43268-0.73698-0.867-1.5146-1.5602-2.0729-0.46639-0.37565-1.6651-0.79191-1.6651-0.79191z" color="#000000" fill="url(#ag)"/><path d="m330.17 76.749c-2.3544 0.27102-8.6089 1.0259-8.6089 1.0259l0.16195 69.444s6.3201 1.0918 8.6437 1.0998c0 0 1.1104-0.58808 1.5369-1.028 0.64695-0.66739 1.4693-2.3729 1.4693-2.3729-3.7139 0.25769-5.6823-1.9818-6.658-4.8115-2.4931-7.2302-2.7879-13.155-3.2583-20.513-0.40954-6.4072-0.10623-12.818 0.38116-19.21 0.46472-6.0951 1.3232-12.198 3.996-17.74 1.1781-2.4425 2.9922-2.3197 5.5575-2.4625 0 0-0.11332-0.33462-0.19673-0.49012-0.40576-0.75649-0.81307-1.5547-1.4632-2.1278-0.43738-0.38559-1.5615-0.81288-1.5615-0.81288z" color="#000000" fill="url(#ah)"/><path d="m287.73 79.068c-0.587 0.10558-1.203 0.23347-1.6878 0.54098-0.71431 0.45311-1.1825 1.1571-1.6361 1.8182-1.4536 2.2963-2.246 4.9061-2.8761 7.258-0.97258 3.7558-1.5591 7.578-1.9461 11.135-0.69357 6.7784-0.81874 13.488-0.44777 19.971 0.2723 4.2444 0.6907 8.3592 1.4122 12.262 0.99666 4.0987 1.5179 8.469 4.0644 11.886 0.45305 0.59785 0.92449 1.2499 1.6361 1.6079 0.49742 0.25026 1.1186 0.2347 1.6878 0.30055 2.4703 0.28576 8.0994 0.47791 8.9821 0.50243 0.25227 7e-3 -1.3152-0.0862-1.8005-0.33716-0.7071-0.36563-1.1733-1.0203-1.6189-1.6229-2.3495-3.7215-3.756-7.9669-4.4755-11.914-0.73654-4.2244-1.1566-8.4638-1.3778-12.427-0.3341-6.9036-0.22362-13.689 0.44777-20.256 0.42398-3.9271 0.99565-7.7049 1.9116-11.285 0.74953-2.6051 1.8775-5.3048 3.3044-7.4858 0.44175-0.66473 0.89482-1.3749 1.6016-1.8333 0.47241-0.30634 1.7941-0.59225 1.7941-0.59225s-6.087-0.04752-8.9757 0.47204z" color="#000000" fill="url(#ai)"/><path d="m304.76 78.23c-0.57199 0.10852-1.1722 0.23998-1.6446 0.55606-0.69603 0.46574-1.1522 1.1893-1.5942 1.8689-1.4164 2.3603-2.1885 5.0429-2.8024 7.4603-0.94769 3.8604-1.5192 7.7892-1.8963 11.445-0.67582 6.9673-0.79778 13.864-0.43631 20.527 0.26532 4.3627 0.67302 8.5922 1.376 12.604 0.97115 4.213 1.479 8.7051 3.9604 12.218 0.44145 0.61451 0.90083 1.2847 1.5942 1.6527 0.48469 0.25723 1.0899 0.24125 1.6446 0.30892 2.4071 0.29374 7.743 0.49085 8.6031 0.51605 0.24581 7e-3 -1.1324-0.0882-1.6053-0.34617-0.68899-0.37582-1.1432-1.0487-1.5774-1.6681-2.2894-3.8253-3.6599-8.1889-4.3609-12.246-0.71768-4.3421-1.1269-8.6997-1.3425-12.774-0.32555-7.096-0.21791-14.07 0.43631-20.821 0.41312-4.0365 0.97016-7.9196 1.8627-11.6 0.73035-2.6777 1.8294-5.4526 3.2198-7.6944 0.43044-0.68326 0.87193-1.4133 1.5606-1.8844 0.46032-0.31487 1.597-0.68966 1.597-0.68966s-5.78 0.03204-8.5947 0.5661z" color="#000000" fill="url(#aj)"/><path d="m321.51 77.226c-0.58057 0.11172-1.1898 0.24706-1.6693 0.57246-0.70648 0.47948-1.1695 1.2244-1.6182 1.924-1.4376 2.4299-2.2214 5.1916-2.8445 7.6804-0.96192 3.9743-1.542 8.019-1.9248 11.783-0.68597 7.1728-0.80975 14.273-0.44286 21.133 0.26931 4.4914 0.68312 8.8457 1.3967 12.975 0.98573 4.3372 1.5012 8.9618 4.0198 12.578 0.44808 0.63264 0.91435 1.3226 1.6182 1.7014 0.49197 0.26482 1.1063 0.24836 1.6693 0.31804 2.4432 0.3024 7.7841 0.40053 8.6571 0.42647 0.24949 8e-3 -1.0743 0.014-1.5543-0.25159-0.69933-0.3869-1.1604-1.0796-1.6011-1.7173-2.3237-3.9381-3.2231-8.5602-3.9347-12.737-0.72845-4.4702-1.1439-8.9563-1.3626-13.15-0.33044-7.3053-0.22118-14.485 0.44286-21.435 0.41932-4.1556 0.98473-8.1532 1.8907-11.942 0.74131-2.7567 1.3651-5.4837 2.7764-7.7917 0.43691-0.70342 0.88503-1.4549 1.5841-1.94 0.46723-0.32416 1.562-0.60437 1.562-0.60437s-5.8078-0.07263-8.6648 0.47716z" color="#000000" fill="url(#ak)"/><path d="m346.8 75.818s-5.6431-0.10746-8.3844 0.45762c-0.55708 0.11484-1.1416 0.25394-1.6017 0.5884-0.67788 0.49282-1.1222 1.2585-1.5527 1.9776-1.3794 2.4975-2.1315 5.3361-2.7294 7.8941-0.92299 4.0849-1.4796 8.2421-1.8469 12.111-0.65821 7.3725-0.77699 14.67-0.42493 21.721 0.2584 4.6164 0.65547 9.0918 1.3402 13.337 0.94584 4.4579 1.4405 9.2112 3.8571 12.928 0.42995 0.65024 0.87735 1.3594 1.5527 1.7488 0.47206 0.27218 1.0615 0.25527 1.6017 0.32688 2.3444 0.31082 6.709 0.46967 8.0094 0.51155 0.2394 8e-3 0.37495 0.0115 0.37495 0.0115s-1.1084-0.0703-1.569-0.34324c-0.67104-0.39767-1.1134-1.1097-1.5363-1.7651-2.2297-4.0477-3.0927-8.7984-3.7754-13.091-0.69898-4.5946-1.0976-9.2056-1.3075-13.516-0.31707-7.5086-0.21222-14.888 0.42494-22.032 0.40235-4.2712 0.94487-8.3801 1.8142-12.274 0.71131-2.8334 1.3099-5.6363 2.664-8.0085 0.41923-0.72299 0.8492-1.4954 1.52-1.9939 0.44832-0.33318 1.569-0.58839 1.569-0.58839z" color="#000000" fill="url(#d)"/></g></g></g><g stroke-linecap="round" stroke-width="1px"><path d="m787.63 137.46 10.456-13.183 0.41659-0.53963-9.9614 12.541z" fill="#010000"/><path d="m788.03 90.674 0.88265 1.3402 0.83349 2.2064 0.7028 3.0073 0.58836 3.6774 0.40864 4.2004 0.24513 4.5763 0.0654 4.7561-0.14712 4.7234-0.31055 4.5109-0.49026 4.1186-0.65377 3.563-0.75187 2.8602-0.86618 2.0593 9.9697-12.536 0.39225-0.91525 0.34328-1.2585 0.27776-1.5527 0.22884-1.7978 0.14712-1.9449 0.0489-2.0593-0.0164-2.043-0.1143-1.9776-0.17972-1.8305-0.26151-1.6017-0.32689-1.3239-0.37591-0.98062-0.4086-0.60474-10.231-13.173z" fill="url(#l)"/><path d="m406.14 161.08-1.5284-0.34273-50.79-11.136 1.5298 0.34132z"/></g><g><path d="m787.1 90.233-47.708 3.4486 0.6047 0.39225 0.5884 1.1441 0.52299 1.8796 0.47401 2.5496 0.37592 3.1217 0.26142 3.563 0.16351 3.8735 0.0329 4.0042-0.0981 4.0042-0.21245 3.8245-0.31054 3.4976-0.42494 3.0236-0.50665 2.4353-0.55572 1.7488-0.6047 1.0133-0.62104 0.24516 47.61 3.7264 0.93159-0.26151 0.91524-1.1931 0.86617-2.0593 0.75192-2.8602 0.65373-3.563 0.49026-4.1187 0.31059-4.5109 0.14708-4.7234-0.0654-4.7561-0.24513-4.5763-0.40864-4.2004-0.58836-3.6774-0.70276-3.0073-0.83353-2.2064-0.88261-1.3402-0.93154-0.44128z" fill="url(#al)" stroke-linecap="round" stroke-width="1px"/><path d="m406.04 64.475-50.862 10.885c-1.5822 0.34515-2.0945 1.3712-3.0073 2.615-2.0738 4.3718-2.8015 9.1548-3.6283 13.876-1.0299 7.1181-1.2159 14.298-1.3402 21.476l0.17978 7.5182c0.29399 8.0598 1.3931 16.016 3.5466 23.78 0.60402 1.9556 1.6144 3.4372 2.8929 4.9685l50.797 11.147c34.458-24.987 40.975-63.088 1.4219-96.265z" color="#000000" fill="url(#am)"/><path d="m733.23 86.85 0.76821 1.5363 0.70275 2.5496 0.60475 3.4649 0.50665 4.2494 0.35957 4.8705 0.19615 5.3118 0.0491 5.4915-0.13087 5.4915-0.27786 5.23-0.42494 4.7724-0.55568 4.1186-0.67011 3.3015-0.73544 2.3698-0.78451 1.3565 6.8644-7.2076 0.6047-1.0133 0.55576-1.7488 0.50665-2.4352 0.42489-3.0236 0.31059-3.4976 0.2124-3.8245 0.0981-4.0042-0.0329-4.0042-0.16342-3.8735-0.26152-3.563-0.37586-3.1217-0.47401-2.5496-0.52299-1.8796-0.58841-1.1441-6.7663-7.224z" fill="url(#an)" stroke-linecap="round" stroke-width="1px"/></g><path d="m576.21 85.983v0.47397 1.5363 2.5333l-0.0164 3.4486v4.2494l-0.0164 4.8541-0.0164 5.2791-0.0164 5.4752-0.0164 5.4752-0.0329 5.2137-0.0164 4.756-0.0164 4.1186v3.2851l-0.0164 2.3698-0.0164 1.3402v0.31051l156 0.55571 0.80085-0.2942 0.78451-1.3565 0.73544-2.3699 0.67016-3.3015 0.55567-4.1186 0.42489-4.7724 0.27791-5.23 0.13069-5.4915-0.049-5.4915-0.1961-5.3118-0.35957-4.8705-0.50665-4.2494-0.60475-3.4649-0.70279-2.5496-0.76817-1.5363-0.78451-0.49032-156.23-0.37589z" fill="url(#ao)" stroke-linecap="round" stroke-width="1px"/><g stroke-linecap="round" stroke-width="1px"><path d="m566.78 71.143-0.0818 0.62107-0.0817 2.2718-0.0817 3.8408-0.0654 5.2954-0.0817 6.5539-0.0489 7.5509-0.0489 8.2373-0.0329 8.5642-0.0164 8.5478v8.1229l0.0164 7.4038 0.0164 6.3414 0.049 5.0503 0.0653 3.563 0.0653 1.9776 0.0654 0.34321 10.362 0.0328 0.0164-0.34323v-1.9776l0.0164-3.563 0.0329-5.0502 0.0164-6.3414 0.0329-7.3874 0.0329-8.1392 0.0164-8.5478 0.0324-8.5642 0.0329-8.2536 0.0164-7.5509 0.0164-6.5539 0.0164-5.2954v-3.8408-2.2555-0.6374l-10.378-0.01639z" fill="url(#ap)"/><path d="m663.5 86.196-0.049 3.9552-0.049 9.5285-0.0653 10.378-0.0329 10.803-0.0164 10.787v9.365l12.519 0.049 0.0329-9.3814 0.0164-10.771 0.0489-10.803 0.0329-10.411 0.0164-9.5121v-3.9552l-12.454-0.03278z" fill="url(#aq)"/><path d="m705.34 86.196-0.0489 3.9552-0.0491 9.5285-0.0654 10.378-0.0329 10.803-0.0164 10.787v9.365l12.519 0.049 0.0329-9.3814 0.0164-10.771 0.049-10.803 0.0329-10.411 0.0164-9.5121v-3.9552l-12.454-0.03278z" fill="url(#ar)"/></g><path d="m567.02 70.866-0.61182-7.1758c-1.7513 34.739-4.0441 69.294-0.17913 99.142l0.6336-7.9634z" stroke-linecap="round" stroke-width="1px"/><path d="m566.52 63.69-160.48 0.7845c-3.0141 1.1112-3.5407 4.8148-4.4292 7.5836-3.0899 13.645-3.4538 27.696-3.661 41.628-0.068 11.726 0.83298 23.397 2.5006 34.992 1.1614 3.6258 1.0468 11.357 5.6877 12.405l160.09 1.7488z" fill="url(#d)" stroke-linecap="round" stroke-width="1px"/></svg>
