<svg xmlns="http://www.w3.org/2000/svg" width="1000" height="1000" viewBox="0 0 264.58 264.58"><path d="M91.005 10.292L77.198 21.028l13.807 10.758h82.57l13.83-10.758-13.83-10.736h-82.57zM76.669 21.557L65.912 35.364v82.589l10.757 13.806 10.736-13.806V35.364L76.67 21.557zm111.261 0l-10.758 13.807v82.589l10.758 13.806 10.736-13.806V35.364L187.93 21.557zm-96.926 99.998L77.197 132.29l13.807 10.736h82.57l13.83-10.736-13.83-10.736h-82.57zM76.669 132.82l-10.757 13.807v82.57l10.757 13.829 10.736-13.829v-82.57L76.67 132.82zm111.261 0l-10.758 13.807v82.57l10.758 13.829 10.736-13.829v-82.57L187.93 132.82zm-96.926 99.977l-13.807 10.757 13.807 10.736h82.57l13.83-10.736-13.83-10.757h-82.57z" paint-order="markers fill stroke"/></svg>