<svg version="1.1" viewBox="0 0 420 224" xmlns="http://www.w3.org/2000/svg" xmlns:xlink="http://www.w3.org/1999/xlink"><defs><linearGradient id="b"><stop offset="0"/><stop stop-opacity="0" offset="1"/></linearGradient><linearGradient id="c"><stop stop-color="#fffcc5" offset="0"/><stop stop-color="#dbd7a7" offset=".7799"/><stop stop-color="#716e49" offset="1"/></linearGradient><linearGradient id="a"><stop stop-color="#fff" offset="0"/><stop stop-color="#fff" stop-opacity=".38261" offset="1"/></linearGradient><radialGradient id="l" cx="1071.8" cy="-103.91" r="100.5" gradientTransform="translate(0 -2.4723e-5)" gradientUnits="userSpaceOnUse" xlink:href="#c"/><linearGradient id="n" x1="1131.8" x2="1067.5" y1="-158.78" y2="-156.76" gradientTransform="matrix(-1 0 0 1 1171.4 195.75)" gradientUnits="userSpaceOnUse" xlink:href="#a"/><radialGradient id="k" cx="1003.6" cy="-113.35" r="33.912" gradientTransform="matrix(3.0372 0 0 1.6786 -1994.4 54.504)" gradientUnits="userSpaceOnUse" xlink:href="#a"/><filter id="s" x="-.27484" y="-.44471" width="1.5497" height="1.8894" color-interpolation-filters="sRGB"><feGaussianBlur stdDeviation="9.1716172"/></filter><filter id="r" x="-.12816" y="-.11281" width="1.2563" height="1.2256" color-interpolation-filters="sRGB"><feGaussianBlur stdDeviation="1.4336706"/></filter><radialGradient id="j" cx="1003.6" cy="-113.35" r="33.912" gradientTransform="matrix(-.67103 1.1652 -.73173 -.42141 738.97 -1134.1)" gradientUnits="userSpaceOnUse" xlink:href="#a"/><filter id="q" x="-.095483" y="-.15184" width="1.191" height="1.3037" color-interpolation-filters="sRGB"><feGaussianBlur stdDeviation="2.6048256"/></filter><linearGradient id="m" x1="1131.8" x2="1067.5" y1="-158.78" y2="-156.76" gradientTransform="matrix(-.84725 0 0 1 1212.3 199.28)" gradientUnits="userSpaceOnUse" xlink:href="#a"/><radialGradient id="i" cx="1277.3" cy="-137.22" r="100.5" gradientTransform="matrix(1.5022 0 0 1.5022 -641.67 73.934)" gradientUnits="userSpaceOnUse"><stop stop-color="#fff" offset="0"/><stop stop-color="#141414" offset=".5"/><stop offset="1"/></radialGradient><radialGradient id="h" cx="1071.8" cy="-5.6875" r="100.5" gradientTransform="matrix(1 0 0 .15391 0 1.9054)" gradientUnits="userSpaceOnUse" xlink:href="#b"/><radialGradient id="g" cx="1286.9" cy="-1.438" r="100.5" gradientTransform="matrix(1 0 0 .15391 -.00051221 7.2686)" gradientUnits="userSpaceOnUse" xlink:href="#b"/><radialGradient id="f" cx="1003.6" cy="-113.35" r="33.912" gradientTransform="matrix(-3.5839 2.0691 -.50964 -.88272 3846.6 -2139.6)" gradientUnits="userSpaceOnUse" xlink:href="#a"/><filter id="p" x="-.042727" y="-.10742" width="1.0855" height="1.2148"><feGaussianBlur stdDeviation="2.1287788"/></filter><filter id="o" x="-.05364" y="-.24216" width="1.1073" height="1.4843"><feGaussianBlur stdDeviation="2.1287788"/></filter><radialGradient id="e" cx="1068" cy="-132.57" r="100" gradientTransform="matrix(1.2853 0 0 2.1607 -1061.4 258.52)" gradientUnits="userSpaceOnUse" xlink:href="#c" spreadMethod="reflect"/><radialGradient id="d" cx="1072.1" cy="-104.77" r="100" gradientTransform="matrix(1.2991 0 0 2.1839 -1289.9 262.74)" gradientUnits="userSpaceOnUse" spreadMethod="reflect"><stop stop-color="#e0541d" offset="0"/><stop stop-color="#e84d10" offset=".5"/><stop stop-color="#2c0d00" offset="1"/></radialGradient></defs><g transform="translate(-971.27 201.49)"><path d="m1387.4 7.0473c0 8.5425-44.995 15.468-100.5 15.468-55.505 0-100.5-6.9251-100.5-15.468 0-8.5425 44.995-15.468 100.5-15.468 55.505 0 100.5 6.9251 100.5 15.468z" color="#000000" fill="url(#g)"/><path d="m1172.3 1.03c0 8.5425-44.995 15.468-100.5 15.468-55.505 0-100.5-6.9251-100.5-15.468 0-8.5425 44.995-15.468 100.5-15.468 55.505 0 100.5 6.925 100.5 15.468z" color="#000000" fill="url(#h)"/><path d="m1172.3-97.437c0 55.505-44.995 100.5-100.5 100.5-55.505 0-100.5-44.995-100.5-100.5 0-55.505 44.995-100.5 100.5-100.5 55.505 0 100.5 44.995 100.5 100.5z" color="#000000" fill="url(#l)"/><path d="m1387.4-95.417c0 55.505-44.995 100.5-100.5 100.5-55.505 0-100.5-44.995-100.5-100.5 0-55.505 44.995-100.5 100.5-100.5 55.505 0 100.5 44.995 100.5 100.5z" color="#000000" fill="url(#i)"/></g><g><path d="m13.956 53.411c-19.367 32.768-17.597 76.513 4.5482 107.52 8.4597 13.534 24.867 18.451 39.433 22.314 30.058 6.7579 61.959 6.5214 91.706-1.7028 13.611-3.9726 27.994-10.223 34.967-23.412 20.373-30.774 21.338-72.871 2.6523-104.65-0.79724 12.724-13.606 19.638-23.937 24.251-28.906 11.438-60.954 12.875-91.525 8.9143-18.295-2.9733-37.863-7.2832-51.836-20.279-3.3871-3.4529-6.0626-7.974-6.0088-12.95zm86.637 48.167c20.769-0.59767 39.16 18.744 37.506 39.455-0.47617 20.782-20.755 38.114-41.344 35.429-20.731-1.5354-36.987-22.66-33.283-43.077 2.4653-17.915 19.031-32.118 37.122-31.806z" fill="url(#d)"/><path d="m44.29 49.459c1.0657-0.98326 2.2753-1.9373 3.6826-2.8467 1.5001-0.96934 3.1851-1.9069 5.0381-2.7789s3.8627-1.679 6.0321-2.44c2.1696-0.76098 4.4865-1.4649 6.936-2.1011s5.0335-1.2193 7.7266-1.717c2.6932-0.49776 5.5041-0.91963 8.4045-1.2652 2.9003-0.34555 5.898-0.61109 8.9693-0.79073 3.0712-0.17964 6.2153-0.27111 9.421-0.27111 3.2156 0 6.3638 0.0906 9.4437 0.27111 3.0799 0.18044 6.0843 0.44361 8.9918 0.79073 2.9076 0.34713 5.7284 0.78774 8.427 1.2878 2.6986 0.50003 5.2737 1.0778 7.7267 1.717 2.4529 0.63918 4.7878 1.3366 6.9585 2.1011s4.1803 1.5864 6.0321 2.4626c1.8519 0.87617 3.5418 1.8049 5.0381 2.7789 1.375 0.89497 2.5471 1.835 3.5923 2.8015-13.255-15.212-33.479-24.987-56.21-24.987-22.736 0-42.956 9.7747-56.21 24.987z" fill="url(#n)"/><g><path transform="matrix(1.3561 0 0 1.8279 -1327.5 288.29)" d="m1029.4-140.83s-40.528 12.854-31.752 26.333c6.5153 14.632 43.36 14.838 43.36 14.838l20.869-38.228z" color="#000000" fill="url(#k)" filter="url(#q)"/><path d="m151.61 56.223c-6.493 1.9882-14.451 5.9073-15.063 15.062 6.0556 4.1977 11.031 15.438 11.031 15.438 6.9245-2.77 16.006-2.6774 15.812-14.938 0 0-3.9665-15.546-11.781-15.562z" color="#000000" fill="url(#j)" filter="url(#r)" opacity=".6093"/><path transform="matrix(1.2052 0 0 1.2052 -1167.1 228.45)" d="m1090.1-142.14c0 13.668-17.928 24.749-40.044 24.749-22.116 0-40.044-11.08-40.044-24.749s17.928-24.749 40.044-24.749c22.116 0 40.044 11.08 40.044 24.749z" color="#000000" fill="#fff" filter="url(#s)"/><path d="m115.66 122.88c-4.4267 0.0942-8.8193 1.0446-12.938 2.6562 0.49403 2.2302 0.10318 5.938 1.0312 7.25 3.6772-1.9842 8.04-3.5614 12.219-2.375 2.6715 1.1225 2.438 5.4902-0.46875 6.125-2.341 0.93365-4.8941 0.69815-7.3438 1.0625 0.35941 2.0549 0.03202 4.9939 0.875 6.5 3.2323-0.18286 6.8659-1.1966 9.75 0.8125 2.689 2.2781 0.34388 6.5889-2.875 6.6562-4.1571 1.0278-8.5145 0.11637-12.406-1.4688 0.64868 2.4833-0.18916 6.1932 1.3125 7.9062 6.6089 1.4163 13.828 1.1539 19.938-1.9375 3.2612-1.8083 5.2812-5.5251 4.8125-9.25-0.20313-3.5214-2.5566-7.1178-6.1875-7.7812-0.31121-1.1984 2.923-1.8408 3.125-3.5938 2.1811-4.2083 0.16022-10.171-4.5-11.625-2.0161-0.75838-4.2061-0.95268-6.3438-0.9375zm-31.688 1.1875c-2.6179 0.72034-6.3201 0.50028-8.25 1.8125 0.25706 1.9599-0.86618 5.3744 0.21875 6.375 2.3083-0.083 5.7531-1.4951 7.375-0.8125l-0.78125 20.094c-2.4159 0.19482-5.9259-0.76329-7.6562 0.15625 0.15268 2.0546-0.67602 5.0836 0.125 6.5312 7.9971 0.34238 16.003 0.59263 24 0.9375-0.19702-2.1828 0.87887-5.5522-0.1875-6.9688-2.2249-0.33684-5.6113 0.32535-7.0938-0.71875 0.34375-9.0236 0.72131-18.038 1.0312-27.062-2.9286-0.072-5.8536-0.24355-8.7812-0.34375z" color="#000000" style="block-progression:tb;text-indent:0;text-transform:none"/><path d="m297.72 35.062c-11.585 0-22.69 2.1045-32.938 5.9375-7.5991 4.2438-9.0557 9.5893-16.188 17.062 11.25-3.5614 23.646-5.5625 36.656-5.5625 2.3019 0 4.5836 0.06618 6.8438 0.1875l10.562-17.5c-1.643-0.08544-3.2732-0.125-4.9375-0.125zm15.156 1.2188-12 17.188c13.589 1.6986 26.18 5.5769 37.094 11.125l8.9062-15.656c-10.211-6.2813-21.696-10.661-34-12.656zm38.438 15.562-9.5312 14.812c7.9182 4.4757 14.835 9.873 20.469 15.969l4.9688-10.25c0.9586-1.9877 1.134-3.8958 0.78125-5.7188-4.9517-5.5752-10.55-10.543-16.688-14.812z" color="#000000" fill="url(#f)" filter="url(#p)"/></g><path d="m257.43 52.995c0.9029-0.98326 1.9277-1.9373 3.1201-2.8467 1.2709-0.96934 2.6985-1.9069 4.2685-2.7789 1.5699-0.87202 3.2726-1.679 5.1107-2.44 1.8381-0.76098 3.8011-1.4649 5.8765-2.1011 2.0753-0.63624 4.2646-1.2193 6.5463-1.717 2.2818-0.49776 4.6633-0.91963 7.1207-1.2652 2.4573-0.34555 4.997-0.61109 7.5992-0.79073 2.6021-0.17964 5.2659-0.27111 7.9819-0.27111 2.7244 0 5.3917 0.0906 8.0011 0.27111 2.6095 0.18044 5.1549 0.44361 7.6183 0.79073 2.4635 0.34713 4.8534 0.78774 7.1398 1.2878 2.2863 0.50003 4.4681 1.0778 6.5464 1.717 2.0782 0.63918 4.0564 1.3366 5.8956 2.1011 1.8391 0.76456 3.5417 1.5864 5.1106 2.4626 1.569 0.87617 3.0008 1.8049 4.2685 2.7789 1.165 0.89497 2.1581 1.835 3.0436 2.8015-11.23-15.212-29.425-21.098-48.685-21.098-19.263 0-35.334 5.8856-46.563 21.098z" fill="url(#m)" filter="url(#o)"/><path d="m313.03 99.062c-14.109 0.37868-27.509 9.5794-32.875 22.656-5.7829 13.264-2.7823 29.747 7.3438 40.094 9.7434 10.487 25.808 14.336 39.25 9.4375 13.932-4.7365 24.196-18.435 24.75-33.156 0.92641-14.306-7.3677-28.591-20.188-34.969-5.209-2.6737-11.052-4.0713-16.906-4.0625-0.45636-0.006321-0.91988-0.012216-1.375 0z" fill="url(#e)"/><path d="m313.56 117.12c-5.2745 0.269-10.123 2.8837-14.376 5.8366-3.1086 2.2392-6.1175 5.7856-5.4741 9.8837 0.73412 4.4592 4.7766 8.3186 9.425 8.1426 0.98439 0.19996 3.278-0.52281 3.4816-0.23924-2.6757 2.4708-4.5271 6.3713-3.1302 9.9794 1.6025 4.4538 5.8246 8.1349 10.709 8.1223 5.6371 0.03 10.879-2.6941 15.409-5.8274 3.362-2.3773 6.4563-6.2037 5.8347-10.576-0.71964-4.745-4.4367-9.3205-9.4279-9.7748-1.8256-0.21438-3.6747 0.0152-5.4507 0.45295 2.5523-2.3499 4.2362-6.1557 2.7954-9.5439-1.3702-3.632-4.9007-6.4265-8.8529-6.4441-0.31385-0.0159-0.62837-0.0201-0.94244-0.012zm-3.6875 7.875c2.9198 0.0327 5.275 3.0601 5.0057 5.8721-0.57695 2.6409-3.4674 4.1601-5.996 4.2705-2.9115-0.0124-5.287-3.0277-5.0462-5.8292 0.5543-2.6246 3.5547-4.2078 6.0365-4.3134zm8.8125 13.688c3.5799-0.28346 6.4187 3.1701 6.7615 6.4865 0.1751 3.0799-2.9082 5.0433-5.5486 5.7095-2.9802 0.85297-5.9193-1.2621-7.0755-3.9318-1.2507-2.171-0.58219-5.1161 1.5413-6.4743 1.2725-0.90602 2.7447-1.6515 4.3213-1.7899z"/></g></svg>
