<svg version="1.1" viewBox="0 0 300 220" xmlns="http://www.w3.org/2000/svg" xmlns:xlink="http://www.w3.org/1999/xlink"><defs><linearGradient id="a"><stop stop-color="#453106" offset="0"/><stop stop-color="#bc8510" offset="1"/></linearGradient><linearGradient id="d" x1="264.28" x2="421" y1="217.88" y2="329.88" gradientUnits="userSpaceOnUse" xlink:href="#a"/><radialGradient id="c" cx="448.91" cy="294.62" r="72.579" gradientTransform="matrix(2.4477 0 0 1.0824 -612.76 -31.467)" gradientUnits="userSpaceOnUse" xlink:href="#a"/><radialGradient id="b" cx="344.27" cy="353.83" r="20.938" gradientTransform="matrix(1.9349 -1.3842e-6 2.8893e-6 4.0387 -322.08 -1141.7)" gradientUnits="userSpaceOnUse" xlink:href="#a"/></defs><g transform="translate(-278.8 -240.3)"><path d="m456.53 287.29-123.19 3.8735-0.2233 1.2442 123.02-3.9516z" fill="#b38111"/><path d="m456.15 286.55-122.45 2.8205 2.1506 125.98 39.328 44.965 78.338-56.701z" fill="url(#d)"/><path d="m497.63 242.03-41.098 45.259 64.014 16.132 48.338-54.914z" fill="#df9e13"/><path d="m333.34 291.16-13.581-41.974-0.189 1.2335 13.546 41.985z" fill="#3d2c06"/><path d="m518.53 303.06-62.537-15.621-2.4718 116.16 59.908 37.746z" fill="#72520b"/><path d="m568.88 248.51-48.338 54.914 1.1024 1.2471 48.272-54.874z" fill="#72520b"/><path d="m333.34 291.16 41.877 18.16 0.9185-0.2489-41.359-17.819z" fill="#523b08"/><path d="m309.16 360.27-30.367-28.021 1.0035 1.3089 30.564 28.291z" fill="#0b0801"/><path d="m375.19 460.3 139.62-17.76 5.54-139.37-145.13 6.15z" fill="url(#c)"/><path d="m375.22 309.32 145.13-6.1514-1.8119-0.1163-142.4 6.0188z" fill="#221803"/><path d="m375.2 309.32 26.281 45.294 156.73-10.791-37.897-40.654z" fill="#dc9c13"/><path d="m558.22 343.82-156.73 10.791-0.3023 1.865 156.52-10.94z" fill="#72520b"/><path d="m520.35 303.19-63.813-15.9-0.5355 0.1451 62.537 15.621z" fill="#3d2c06"/><path d="m334.73 416.05 40.453 44.244 0.0323-150.97-41.877-18.16z" fill="url(#b)"/><path d="m333.59 291.16-54.788 41.092 30.367 28.021 66.046-50.949z" fill="#eba716"/><path d="m375.22 309.32-66.346 50.958 1.4903 1.5682 64.611-50.774z" fill="#8b630c"/><path d="m319.76 249.19 13.581 41.974 123.19-3.8735-19.712-39.077z" fill="#da9a13"/><path d="m401.49 354.61-26.281-45.294-0.2334 1.756 26.212 45.403z" fill="#523b08"/></g></svg>
