<svg version="1.1" viewBox="0 0 362.05 199.56" xmlns="http://www.w3.org/2000/svg" xmlns:xlink="http://www.w3.org/1999/xlink"><defs><linearGradient id="a"><stop stop-color="#857a4d" offset="0"/><stop stop-color="#eeead6" offset=".5"/><stop stop-color="#6b633f" offset="1"/></linearGradient><linearGradient id="j" x1="9.011" x2="308.61" y1="279.34" y2="121.15" gradientUnits="userSpaceOnUse" xlink:href="#a"/><linearGradient id="i" x1="91.751" x2="79.623" y1="338.99" y2="245.47" gradientUnits="userSpaceOnUse" xlink:href="#a"/><linearGradient id="h" x1="81.851" x2="189.71" y1="214.54" y2="115.75" gradientUnits="userSpaceOnUse" xlink:href="#a"/><linearGradient id="g" x1="296.35" x2="180.85" y1="372.11" y2="260.75" gradientUnits="userSpaceOnUse" xlink:href="#a" spreadMethod="reflect"/><linearGradient id="f" x1="66.584" x2="-17.152" y1="168.97" y2="272.97" gradientUnits="userSpaceOnUse" xlink:href="#a"/><linearGradient id="e" x1="100.03" x2="72.236" y1="162.88" y2="319.88" gradientUnits="userSpaceOnUse" xlink:href="#a"/><linearGradient id="d" x1="84.452" x2="39.143" y1="314.19" y2="65.281" gradientUnits="userSpaceOnUse" xlink:href="#a"/><linearGradient id="c" x1="56.657" x2="11.619" y1="110.4" y2="333.61" gradientUnits="userSpaceOnUse" xlink:href="#a"/><radialGradient id="b" cx="49.934" cy="315.16" r="134.63" gradientTransform="matrix(-.019584 2.4304 -3.2591 -.026262 859.65 17.458)" gradientUnits="userSpaceOnUse" xlink:href="#a"/></defs><g transform="translate(52.438 -115.72)"><path d="m229.96 171.89-42.036 10.734-0.018 0.0222h-0.0313-0.0313l-36.097 3.4376-43.47 9.2704-35.489-11.599-5.7268 20.404-37.39 7.9841h35.143l-57.765 70.97 75.043 29.497 123.06-29.497 57.765-70.97 46.696-14.194-19.141-6.2542 10.683-7.9397-21.142 4.5021-50.055-16.367z" fill="#808080" opacity=".77"/><g stroke="url(#b)"><path d="m115.15 116.25-33.286 15.125v0.0313l98.998 41.562 35.116-20z" fill="url(#j)"/><path d="m-17.152 272.97v-100l99.003-41.564v100l-99.003 41.564" fill="url(#i)"/><path d="m81.851 231.41v-100l99.003 41.564v100l-99.003-41.564" fill="url(#h)"/><path d="m180.85 272.97v-100l-99.003 41.564v100l99.003-41.564" fill="url(#g)"/><path d="m81.851 314.54v-100l-99.003-41.564v100l99.003 41.564" fill="url(#f)"/><path d="m195.97 132.97-101.52 36.969-12.605 44.601 99.006-41.57z" fill="url(#e)"/><path d="m48.547 136.25-100.83 36.719h35.116l99.025-41.562z" fill="url(#d)"/><path d="m-32.281 132.97 15.116 40 99.016 41.57c-4.3593-14.402-15.267-45.57-15.267-45.57z" fill="url(#c)"/></g><g><text transform="translate(-114.34 2.1824)" x="-148.49242" y="271.73166" fill="#000000" font-family="sans-serif" letter-spacing="0px" word-spacing="0px" style="line-height:0%" xml:space="preserve"><tspan x="-148.49242" y="271.73166" font-family="sans-serif" font-size="40px" style="line-height:1.25"> </tspan></text><path d="m31.889 226.99c-0.61712-0.2481-1.0931 0.1587-1.0887 0.9296 1.5e-5 3e-3 -1.5e-5 5e-3 0 9e-3v2.1732c-3.0606-1.0306-5.805-0.91167-7.831 3e-3 -2.135 0.96351-3.5239 2.792-3.5239 5.2313v0.99326l0.72261-0.10981s0.62807-0.0989 1.4261-0.12449c0.79808-0.0257 1.7839 0.0456 2.3429 0.28023 0.55903 0.23466 1.548 0.99244 2.3461 1.688 0.79807 0.69559 1.4229 1.3204 1.4229 1.3204l0.21329 0.20872 0.21328-0.0296s1.4351-0.18594 2.6676-0.0642v16.782c-0.0053-0.0175-0.04169 0.12107-0.25149 0.20831-0.22312 0.0929-0.65272 0.0636-0.82448-9e-3 -0.17175-0.0721-0.60137-0.40367-0.82447-0.6838-0.20968-0.26327-0.24592-0.43234-0.25148-0.41942v-2.0421-0.0278l-3e-3 -2e-3c0.01428-0.77635-0.46789-1.6028-1.0982-1.8675-0.63036-0.26459-1.112 0.15757-1.0983 0.94547l-0.0061-3e-3v2.0858c0 1.1874 0.61094 2.3239 1.2319 3.1036 0.61109 0.76724 1.3278 1.3599 2.0501 1.6631 0.72225 0.30316 1.4414 0.31386 2.0532 0.0592 0.62176-0.25867 1.2288-0.88509 1.2288-2.0707v-16.798c1.2332 0.9129 2.6708 2.305 2.6708 2.305l0.2101 0.20738 0.21328-0.0296s0.62806-0.0988 1.4261-0.12448c0.79808-0.0257 1.7839 0.0456 2.3429 0.28023 0.55903 0.23465 1.548 0.99243 2.3461 1.688 0.79805 0.69559 1.4229 1.3204 1.4229 1.3204l0.72262 0.71651v-0.99325c0-2.4393-1.3889-5.4338-3.5239-8.1896-2.0266-2.616-4.769-5.0379-7.831-6.5768v-2.1732c3e-5 -3e-3 0-6e-3 0-9e-3 0.0046-0.78168-0.48856-1.6016-1.1173-1.8556h1.6e-5m-32.365-12.949v8.8281c0 5.0301 3.0105 10.444 6.9046 12.704v10.703l-4.9851-2.0925v2.5427l12.011 5.0416v-2.5427l-4.9883-2.0939v-10.703c3.8949 1.011 6.9046-1.8764 6.9046-6.9072v-8.8281l-10.734-4.5057-1.1842 12.809-1.1842-13.803-2.744-1.1518m53.142 22.307-3.785 8.026s2.362 0.99146 2.362 0.99146v18.157l2.8459 1.1946v-18.157l2.362 0.99148-3.785-11.204m8.2798 3.4755s-3.785 8.026-3.785 8.026 2.362 0.99147 2.362 0.99147v18.157l2.8459 1.1946v-18.157s2.3588 0.99014 2.3588 0.99014l-3.7818-11.202m-12.51 24.086v2.5427l16.738 7.0258v-2.5427l-16.738-7.0258" color="#000000" fill="#4d4d4d"/><path d="m177.5 269.71v-26.77l-26.343 11.127v26.77l26.343-11.127" fill="#eee"/></g><path d="m154.37 256.54v19.065l0.29746-0.12489v-19.065l-0.29746 0.12488m0.59493-0.24976v19.065l0.29745-0.12488v-19.065l-0.29745 0.12489m0.89238-0.37464v15.051l0.59493-0.24976v-15.051l-0.59493 0.24977m1.1899-0.49952v15.051l0.29747-0.12488v-15.051l-0.29747 0.12488m0.89238-0.37466v15.051l0.29747-0.12487v-15.051l-0.29747 0.12487m0.89239-0.37464v15.051l0.59493-0.24976v-15.051l-0.59493 0.24976m0.8924-0.37464v15.051s1.1899-0.49952 1.1899-0.49952v-15.051l-1.1899 0.49953m1.4873-0.62442v15.051l0.29745-0.1249v-15.051l-0.29745 0.12487m0.59491-0.24976v15.051l0.29747-0.1249v-15.051l-0.29747 0.12487m1.1899-0.49952v15.051l0.59493-0.24977v-15.051l-0.59493 0.24976m0.89238-0.37463v19.065l0.29747-0.12487v-19.065l-0.29747 0.1249m0.59494-0.24978v19.065l0.29747-0.1249v-19.065l-0.29747 0.12487m0.59492-0.24975v15.051l0.29746-0.12489v-15.051l-0.29746 0.12489m0.89239-0.37465v15.051l0.8924-0.37463v-15.051l-0.8924 0.37466m1.1899-0.49952v15.051l0.29745-0.12487v-15.051l-0.29745 0.12489m0.59492-0.24977v15.051l0.29746-0.12488v-15.051l-0.29746 0.12489m1.4873-0.62442v15.051l0.29747-0.12488v-15.051l-0.29747 0.12486m1.1898-0.4995v15.051l0.29747-0.12486v-15.051l-0.29747 0.1249m0.8924-0.37466v15.051l0.89238-0.37465v-15.051l-0.89238 0.37464m1.4873-0.62439v15.051l0.29747-0.12487v-15.051l-0.29747 0.1249m0.59493-0.24978v19.065l0.29745-0.12489v-19.065l-0.29745 0.12488m0.59492-0.24975v19.065l0.29746-0.12488v-19.065l-0.29746 0.12489m-14.594 22.84c-0.0767 0.0322-0.15862 0.0769-0.251 0.15237-0.0924 0.0756-0.19114 0.18068-0.29746 0.29735v0.43899c0.10463-0.14238 0.20596-0.25745 0.29746-0.34438 0.0924-0.0873 0.17749-0.13722 0.26028-0.17198 0.11675-0.0491 0.20654-0.0401 0.27888 0.0397 0.0733 0.0795 0.11155 0.21725 0.11155 0.39215 0 0.10734-0.0125 0.2071-0.0465 0.33307-0.0332 0.12414-0.0921 0.28608-0.17662 0.48178-0.0444 0.10388-0.15192 0.34845-0.32536 0.71668-0.17255 0.36641-0.31809 0.66415-0.4183 0.88112v0.37629s1.2456-0.52296 1.2456-0.52296v-0.37625l-0.92029 0.38635c0.21265-0.45526 0.3759-0.81727 0.49268-1.0691 0.11674-0.25332 0.18273-0.39468 0.20452-0.44646 0.0793-0.1979 0.13767-0.37625 0.1673-0.50922 0.0305-0.13481 0.0465-0.26056 0.0465-0.3958 0-0.28513-0.0656-0.49177-0.1859-0.61178-0.12033-0.11995-0.2812-0.13279-0.48337-0.0479v3e-5m1.7383-0.72978c-0.0776 0.0326-0.16297 0.0761-0.25098 0.13672-0.0872 0.0601-0.17865 0.13772-0.27887 0.22683v0.39195c0.0993-0.0976 0.18679-0.17738 0.26957-0.2386 0.0827-0.0612 0.16006-0.0986 0.23239-0.12891 0.13247-0.0557 0.23618-0.0648 0.30676-3e-3 0.0715 0.0597 0.11155 0.17611 0.11155 0.34513 0 0.16462-0.0334 0.3021-0.10227 0.4192-0.0688 0.11563-0.1676 0.21148-0.29745 0.26599l-0.2417 0.10153v0.36059s0.2231-0.0936 0.2231-0.0936c0.1438-0.0604 0.26378-0.0485 0.34395 0.0281 0.081 0.0747 0.12082 0.20992 0.12082 0.40392 0 0.2102-0.043 0.37817-0.13013 0.52499-0.0863 0.14645-0.21554 0.26295-0.38112 0.33247-0.095 0.0398-0.18244 0.0506-0.26958 0.0504-0.0871-1.4e-4 -0.16849-0.014-0.2417-0.0552v0.42332c0.0924 0.0156 0.18331 0.022 0.26959 0.0124 0.0872-8e-3 0.16906-0.0239 0.25097-0.0584 0.24403-0.10241 0.43458-0.27112 0.56705-0.50459 0.13246-0.23345 0.19521-0.50966 0.19521-0.8345 0-0.21165-0.0401-0.38786-0.11155-0.5019-0.0706-0.1144-0.16182-0.16871-0.28817-0.16122 0.11415-0.0965 0.19839-0.2092 0.26028-0.36013 0.0618-0.15237 0.093-0.3271 0.093-0.50937-2e-5 -0.26162-0.0598-0.43346-0.17663-0.53729-0.11674-0.10536-0.27363-0.12033-0.47408-0.0363v5e-5m7.8735-3.3055c-0.24662 0.1035-0.43921 0.32893-0.58562 0.70051-0.14641 0.37014-0.2231 0.82759-0.2231 1.3479 0 0.55413 0.0573 0.9534 0.17661 1.1958 0.11935 0.2409 0.29486 0.31519 0.52057 0.22044 0.19694-0.0827 0.35556-0.25854 0.47408-0.51259 0.11848-0.25407 0.17662-0.55135 0.17662-0.88941 0-0.34541-0.0532-0.59305-0.16733-0.74502-0.11328-0.1538-0.2687-0.18507-0.46478-0.10276-0.0933 0.0392-0.18273 0.10164-0.26029 0.20333-0.0776 0.10017-0.14378 0.23039-0.19521 0.37984 0.0131-0.40675 0.0666-0.72315 0.15802-0.95999 0.0924-0.23719 0.22544-0.39251 0.39973-0.46569 0.0661-0.0278 0.1374-0.0541 0.20451-0.0546 0.068-6e-4 0.12897 0.0183 0.1952 0.0435v-0.40763c-0.0733-0.0134-0.13652-0.0147-0.2045-8e-3 -0.067 7e-3 -0.13827 0.0267-0.20451 0.0546m-11.313 4.8121-0.46478 0.35189v0.40764l0.46478-0.36759v2.5242l-0.42759 0.17951v0.37627l1.1248-0.4722v-0.37628l-0.4369 0.18342v-2.9161l-0.26029 0.10931m5.2986-2.2244-0.81802 2.4286v0.42331l0.88309-0.37074v0.7839l0.26027-0.10921v-0.7839l0.27888-0.11712v-0.37627l-0.27888 0.11711v-2.1322l-0.32534 0.13659m3.6067-1.5142v1.6462c0.0733-0.0866 0.14409-0.15947 0.2138-0.21518 0.0706-0.056 0.14321-0.0915 0.2138-0.12108 0.15077-0.0633 0.26523-0.0568 0.35324 0.0398 0.0881 0.0968 0.13014 0.2648 0.13014 0.4941 0 0.22929-0.042 0.43266-0.13014 0.60337-0.0881 0.1707-0.20247 0.28882-0.35324 0.35211-0.0932 0.0392-0.18591 0.0506-0.26958 0.0504-0.0837-1.5e-4 -0.16325-0.0162-0.24168-0.0553v0.45468c0.0907 8e-3 0.17575-3e-3 0.26029-0.0152 0.0855-0.0124 0.16905-0.0239 0.25097-0.0584 0.23791-0.0999 0.42703-0.28166 0.55774-0.53202 0.13073-0.25184 0.19522-0.55868 0.19522-0.91291 0-0.34393-0.068-0.58534-0.19522-0.73329-0.12723-0.14797-0.30269-0.17082-0.52056-0.0794-0.0383 0.0161-0.0732 0.0348-0.11155 0.0625-0.0383 0.0264-0.0732 0.0557-0.11154 0.0939v-0.81526l0.79015-0.33171v-0.36061l-1.0318 0.43319v2e-5m3.3372-1.401v0.36059l0.93888-0.39416-0.6693 3.2128 0.27887-0.11711 0.70648-3.4008v-0.18815l-1.2549 0.52684m-6.8788 3.2642v1.7559l-0.66929 0.281 0.66929-2.0369m5.8377-1.369c0.11847-0.0496 0.21002-0.0211 0.27886 0.0867 0.0697 0.10746 0.11155 0.27948 0.11155 0.51759 0 0.23664-0.0418 0.44381-0.11155 0.61124-0.0688 0.16559-0.16035 0.27113-0.27886 0.32088-0.11847 0.0496-0.20916 0.0208-0.27889-0.0867-0.0688-0.1092-0.10227-0.28484-0.10227-0.52149 0-0.23812 0.0334-0.44174 0.10227-0.60734 0.0697-0.16597 0.16037-0.27113 0.27889-0.32088" fill="#1a1a1a"/></g></svg>
