<svg version="1.1" viewBox="0 0 240.24 289.34" xmlns="http://www.w3.org/2000/svg" xmlns:xlink="http://www.w3.org/1999/xlink"><defs><linearGradient id="a"><stop stop-color="#a19e83" offset="0"/><stop stop-color="#6b5e3e" offset=".5"/><stop stop-color="#31220d" offset="1"/></linearGradient><filter id="az" color-interpolation-filters="sRGB"><feGaussianBlur stdDeviation="1.9744221"/></filter><filter id="ba" x="-.26964" y="-.070571" width="1.5393" height="1.1411" color-interpolation-filters="sRGB"><feGaussianBlur stdDeviation="0.80586595"/></filter><filter id="bb" color-interpolation-filters="sRGB"><feGaussianBlur stdDeviation="0.50103726"/></filter><filter id="b" x="-.090548" y="-.10215" width="1.1811" height="1.2043" color-interpolation-filters="sRGB"><feGaussianBlur stdDeviation="0.8795677"/></filter><filter id="bg" x="-.08491" y="-.11205" width="1.1698" height="1.2241" color-interpolation-filters="sRGB"><feGaussianBlur stdDeviation="3.5746115"/></filter><linearGradient id="e"><stop stop-color="#6d6d6d" offset="0"/><stop offset=".22581"/><stop offset="1"/></linearGradient><linearGradient id="d"><stop stop-color="#312c27" offset="0"/><stop stop-color="#6a4931" offset=".075363"/><stop stop-color="#120d09" offset=".56663"/><stop stop-color="#453021" offset="1"/></linearGradient><linearGradient id="c"><stop offset="0"/><stop stop-opacity="0" offset=".5"/><stop stop-opacity="0" offset="1"/></linearGradient><filter id="ay" color-interpolation-filters="sRGB"><feGaussianBlur stdDeviation="1.8715649"/></filter><filter id="ax" color-interpolation-filters="sRGB"><feGaussianBlur stdDeviation="1.2953385"/></filter><filter id="aw" x="-.10173" y="-.16556" width="1.2035" height="1.3311" color-interpolation-filters="sRGB"><feGaussianBlur stdDeviation="1.7485583"/></filter><filter id="av" color-interpolation-filters="sRGB"><feGaussianBlur stdDeviation="1.0444588"/></filter><filter id="bf" color-interpolation-filters="sRGB"><feGaussianBlur stdDeviation="1.3280158"/></filter><filter id="bd" color-interpolation-filters="sRGB"><feGaussianBlur stdDeviation="0.51134494"/></filter><filter id="bc" color-interpolation-filters="sRGB"><feGaussianBlur stdDeviation="3.5359943"/></filter><filter id="be" x="-.30358" y="-.31705" width="1.6072" height="1.6341"><feGaussianBlur stdDeviation="5.0224788"/></filter><radialGradient id="an" cx="324.29" cy="342.26" r="114.09" gradientTransform="matrix(.98589 -.16739 .21928 1.2915 227.9 -6.3672)" gradientUnits="userSpaceOnUse" xlink:href="#a"/><radialGradient id="am" cx="178.59" cy="350.94" r="24.124" gradientTransform="matrix(1.5081 .50341 -.39327 1.1782 567.21 -89.103)" gradientUnits="userSpaceOnUse" xlink:href="#c" spreadMethod="reflect"/><linearGradient id="au" x1="293.18" x2="413.72" y1="312.6" y2="447.5" gradientTransform="matrix(.98589 -.16739 .16739 .98589 246.41 104.14)" gradientUnits="userSpaceOnUse" xlink:href="#a"/><radialGradient id="al" cx="655.9" cy="316.56" r="24.822" gradientTransform="matrix(1.3507 0 0 .80913 -228.54 58.452)" gradientUnits="userSpaceOnUse"><stop offset="0"/><stop stop-opacity="0" offset="1"/></radialGradient><radialGradient id="ak" cx="291.96" cy="320.46" r="39.646" gradientTransform="matrix(3.8934 2.467 -1.7191 2.7131 26.397 -1203.1)" gradientUnits="userSpaceOnUse" xlink:href="#a"/><radialGradient id="aj" cx="380.94" cy="357.12" r="2.6516" gradientTransform="matrix(1 0 0 1.4375 298.12 -117.15)" gradientUnits="userSpaceOnUse" xlink:href="#a"/><radialGradient id="ai" cx="201.8" cy="165.94" r="5.4219" gradientTransform="matrix(1 0 0 .23055 508.45 359.58)" gradientUnits="userSpaceOnUse" xlink:href="#a"/><radialGradient id="ah" cx="202.38" cy="172.36" r="4" gradientTransform="matrix(1 0 0 .19922 508.45 369.92)" gradientUnits="userSpaceOnUse" xlink:href="#a"/><radialGradient id="ag" cx="204.05" cy="179.57" r="4.0781" gradientTransform="matrix(1 0 0 .19436 508.45 376.57)" gradientUnits="userSpaceOnUse" xlink:href="#a"/><radialGradient id="af" cx="205.94" cy="183.93" r="5.1875" gradientTransform="matrix(1 0 0 .22069 508.45 375.23)" gradientUnits="userSpaceOnUse" xlink:href="#a"/><radialGradient id="ae" cx="179.78" cy="189.19" r="5.9688" gradientTransform="matrix(1 0 0 .15805 508.45 391.19)" gradientUnits="userSpaceOnUse" xlink:href="#a"/><radialGradient id="ad" cx="180.91" cy="182.84" r="5.0938" gradientTransform="matrix(1 0 0 .22086 508.45 374.36)" gradientUnits="userSpaceOnUse" xlink:href="#a"/><radialGradient id="ac" cx="181.05" cy="175.56" r="5.1406" gradientTransform="matrix(1 0 0 .27356 508.45 359.44)" gradientUnits="userSpaceOnUse" xlink:href="#a"/><radialGradient id="ab" cx="179.44" cy="170.27" r="5.25" gradientTransform="matrix(1 0 0 .31845 508.45 347.94)" gradientUnits="userSpaceOnUse" xlink:href="#a"/><linearGradient id="at" x1="376.98" x2="396.51" y1="323.86" y2="310.07" gradientTransform="translate(298.12 39.096)" gradientUnits="userSpaceOnUse" xlink:href="#a"/><linearGradient id="as" x1="425.55" x2="435.03" y1="309.98" y2="309.98" gradientTransform="translate(298.12 39.096)" gradientUnits="userSpaceOnUse" xlink:href="#a"/><radialGradient id="aa" cx="352.66" cy="470.57" r="8.7552" gradientTransform="matrix(1 0 0 .70187 298.12 179.39)" gradientUnits="userSpaceOnUse" xlink:href="#a"/><radialGradient id="z" cx="340.62" cy="471.54" r="8.9073" gradientTransform="matrix(1 0 0 .78625 298.12 139.89)" gradientUnits="userSpaceOnUse" xlink:href="#a"/><radialGradient id="y" cx="328.72" cy="470.01" r="9.0402" gradientTransform="matrix(1 0 0 .67141 298.12 193.54)" gradientUnits="userSpaceOnUse" xlink:href="#a"/><radialGradient id="x" cx="433.79" cy="462.97" r="11.925" gradientTransform="matrix(1 0 0 .3314 298.12 348.63)" gradientUnits="userSpaceOnUse" xlink:href="#a"/><radialGradient id="w" cx="425.99" cy="464.84" r="12.882" gradientTransform="matrix(1 0 0 .3932 298.12 321.17)" gradientUnits="userSpaceOnUse" xlink:href="#a"/><radialGradient id="v" cx="417.66" cy="465.99" r="12.245" gradientTransform="matrix(1 0 0 .47222 298.12 285.03)" gradientUnits="userSpaceOnUse" xlink:href="#a"/><linearGradient id="ar" x1="448.54" x2="399.52" y1="480.19" y2="456.5" gradientTransform="translate(298.12 39.096)" gradientUnits="userSpaceOnUse" xlink:href="#a"/><radialGradient id="u" cx="420.69" cy="322.81" r="8.4253" gradientTransform="matrix(1.7695 .16613 -.079028 .84172 -4.577 5.0993)" gradientUnits="userSpaceOnUse" xlink:href="#e"/><radialGradient id="t" cx="438.24" cy="317.08" r="4.4688" gradientTransform="matrix(5.5377 -.36703 .20279 3.0597 -1760.3 -472.91)" gradientUnits="userSpaceOnUse"><stop stop-color="#fff" offset="0"/><stop stop-color="#fff" stop-opacity="0" offset="1"/></radialGradient><radialGradient id="s" cx="422.53" cy="275.76" r="2.9861" gradientTransform="matrix(1.7995 1.7995 -1.1737 1.1737 283.95 -770.23)" gradientUnits="userSpaceOnUse" xlink:href="#e"/><radialGradient id="r" cx="379.76" cy="267.2" r="11.703" gradientTransform="matrix(2.0855 1.2041 -.46357 .80293 -.23038 -370.45)" gradientUnits="userSpaceOnUse" xlink:href="#e"/><radialGradient id="q" cx="379.22" cy="272.92" r="11.703" gradientTransform="matrix(.98589 -.16739 .14966 .88147 249.56 129.17)" gradientUnits="userSpaceOnUse" xlink:href="#a"/><radialGradient id="p" cx="379.22" cy="272.92" r="11.703" gradientTransform="matrix(.98589 -.16739 .14966 .88147 250.25 126.72)" gradientUnits="userSpaceOnUse" xlink:href="#a"/><radialGradient id="o" cx="354.3" cy="245.69" r="10.004" gradientTransform="matrix(.9112 -.41196 .66267 1.4658 149.67 65.97)" gradientUnits="userSpaceOnUse" xlink:href="#a"/><radialGradient id="n" cx="412.3" cy="382.87" r="12.949" gradientTransform="matrix(2.2591 .25789 -.39285 3.4413 -65.047 -1017.2)" gradientUnits="userSpaceOnUse" xlink:href="#a"/><radialGradient id="m" cx="349.09" cy="349.02" r="50.654" gradientTransform="matrix(2.165 1.9448 -1.3709 1.5262 369.63 -825.26)" gradientUnits="userSpaceOnUse"><stop stop-color="#a19e83" offset="0"/><stop stop-color="#6b5e3e" offset=".40924"/><stop stop-color="#31220d" offset="1"/></radialGradient><radialGradient id="l" cx="305.06" cy="498.48" r="88.3" gradientTransform="matrix(-.83111 1.4395 -1.5347 -.88608 1621.2 322.04)" gradientUnits="userSpaceOnUse" spreadMethod="reflect"><stop stop-color="#a19e83" offset="0"/><stop stop-color="#6b5e3e" offset=".39877"/><stop stop-color="#31220d" offset="1"/></radialGradient><radialGradient id="k" cx="166.43" cy="319.06" r="24.124" gradientTransform="matrix(-1.1536 -2.5298 2.2368 -.59734 145.83 1099.6)" gradientUnits="userSpaceOnUse" xlink:href="#d" spreadMethod="reflect"/><radialGradient id="j" cx="166.43" cy="319.06" r="24.124" gradientTransform="matrix(-1.9749e-7 2.7645 -2.2914 0 1500.4 -123.94)" gradientUnits="userSpaceOnUse" xlink:href="#d" spreadMethod="reflect"/><radialGradient id="i" cx="186.73" cy="332.47" r="24.124" gradientTransform="matrix(-1.9399e-7 2.871 -2.2507 0 1471.6 -146.48)" gradientUnits="userSpaceOnUse" xlink:href="#d" spreadMethod="reflect"/><linearGradient id="aq" x1="309.58" x2="315.39" y1="510.49" y2="448.97" gradientTransform="translate(298.12 39.096)" gradientUnits="userSpaceOnUse" xlink:href="#a"/><radialGradient id="h" cx="23.375" cy="115.3" r="42.515" gradientTransform="matrix(-.62154 -.18543 1.9506 -6.5383 351.63 1005.5)" gradientUnits="userSpaceOnUse" xlink:href="#a"/><radialGradient id="g" cx="371.65" cy="403.45" r="71.331" gradientTransform="matrix(.98646 -.16397 .14196 .854 255.48 150.3)" gradientUnits="userSpaceOnUse"><stop stop-color="#7c8777" offset="0"/><stop stop-color="#fff" stop-opacity="0" offset="1"/></radialGradient><linearGradient id="ap" x1="744.27" x2="658.21" y1="520.22" y2="356.16" gradientUnits="userSpaceOnUse" xlink:href="#c"/><linearGradient id="ao" x1="174.61" x2="169.31" y1="217.28" y2="134.55" gradientTransform="translate(508.45 231.9)" gradientUnits="userSpaceOnUse" xlink:href="#a"/><radialGradient id="f" cx="313.07" cy="490.14" r="69.957" gradientTransform="matrix(2.2972 -.39004 .1802 1.0613 -183.03 140.36)" gradientUnits="userSpaceOnUse" xlink:href="#c"/></defs><g transform="translate(-506.71 -229.44)"><g><g><path d="m657.04 352.19c-13.535 2.4004-23.489 4.1821-35.386 12.252-10.438 8.4476-12.374 22.737-19.93 33.274-7.8034 17.979-13.063 38.113-9.4061 57.733 3.0864 15.253 8.233 33.102 21.75 39.986 20.546 10.463 58.347 8.5382 90.223 1.0052-0.0548-0.77842 1.1553-2.1458 4.1895-4.2614 10.94-11.065 23.321-24.4 21.426-41.263 0.72862-11.934-5.2174-23.715-8.9329-53.732-2.7866-22.513-5.9455-32.269-3.1365-38.075 9e-3 -0.0225 0.01-0.0444 0.0203-0.0668-10.785 8.4678-28.703 8.9191-40.385 1.8488-19.836-16.208-18.426-4.9036-20.433-8.7025z" color="#000000" fill="url(#f)" style="block-progression:tb;text-indent:0;text-transform:none"/><path d="m661.58 351.84c-3.3561-0.16399-3.4028 2.4806-4.5312 0.34375-13.535 2.4004-23.509 4.1796-35.406 12.25-10.438 8.4476-12.35 22.744-19.906 33.281-7.8034 17.979-13.063 38.098-9.4062 57.719 3.0864 15.253 8.2328 33.117 21.75 40 20.546 10.463 58.343 8.533 90.219 1-0.0548-0.77842 1.1532-2.1344 4.1875-4.25 10.94-11.065 23.301-24.419 21.406-41.281 0.72862-11.934-5.1908-23.702-8.9062-53.719-2.7866-22.513-5.9653-32.257-3.1562-38.062 9e-3 -0.0225 0.0209-0.0713 0.0312-0.0937-10.785 8.4678-28.693 8.9452-40.375 1.875-8.6782-7.0911-13.296-8.935-15.906-9.0625z" color="#000000" fill="url(#ao)" opacity=".59483" style="block-progression:tb;text-indent:0;text-transform:none"/><path d="m572.87 238.24c-15.313 3.0711-21.518 19.882-22.413 33.784-6.3651 34.511-29.308 63.697-33.414 98.862-12.617 75.408 13.235 118.41 87.26 129.66 12.69 2.5565 14.886 14.779 27.224 15.886 21.825 1.9506 36.127 1.5645 30.684-2.9524-2.6122-2.5455-12.23-9.389-12.121-10.246 0.31221-0.94793 5.8265-0.35013 8.4201-0.47183 12.063-0.56605 28.43-4.9359 51.207 7.5973 9.4978 4.5461 20.77 4.1736 31.447 2.4884 11.314-5.3302-1.4826-11.979-5.8724-15.152-5.5459-4.0094-14.462-1.0436-20.504-1.0436-2.4978 0-14.048 1.0824-6.0676-4.4818 10.94-11.065 23.337-24.395 21.442-41.257 0.72862-11.934-5.2371-23.708-8.9525-53.725-3.7154-30.017-8.0544-37.398 1.9095-42.903 8.18-8.2031 1.3731-19.07 1.2001-28.633-0.0553-3.0593 2.4634-5.6418 2.5788-8.6475 0.1667-4.342-0.80159-8.9275-2.7565-12.741-4.3086-8.404-12.808-14.904-19.935-20.841-0.56968-4.2694-3.7447-9.0538-6.9216-9.7936-0.97979-0.22814-1.8384-0.0739-2.3869 0.59429-1.4187 2.6934-0.71157 5.0453-1.927 4.5927-0.72843-0.30638-1.462-0.58273-2.2001-0.83142-12.536-4.2237-26.406-0.47031-39.313-0.37663-2.8144-10.396-20.28-23.464-26.31-13.256-0.86684 1.4675-1.7303 3.8594-1.8141 5.9224-0.11899 2.9273 1.2471 5.6842 1.8836 8.5849 2.9902 13.627 5.5018 27.951-1.8934 40.643-14.602 25.803-39.4 45.288-49.162 74-7.196 19.766-10.613 43.705 2.03 62.112 14.307 21.508 12.233 32.06-4.9933 22.147-17.625-10.401-37.826-30.321-34.979-50.844 4.4003-42.478 32.463-77.143 43.926-117.53 5.4475-18.422 10.739-37.375 10.966-56.684-0.32441-9.3366-9.0677-16.317-18.241-14.463z" color="#000000" fill="url(#an)" filter="url(#bd)" style="block-progression:tb;text-indent:0;text-transform:none"/><path d="m661.58 351.84c-3.3561-0.16399-3.4028 2.4806-4.5312 0.34375-13.535 2.4004-23.509 4.1796-35.406 12.25-10.438 8.4476-12.35 22.744-19.906 33.281-7.8034 17.979-13.063 38.098-9.4062 57.719 3.0864 15.253 8.2328 33.117 21.75 40 20.546 10.463 58.343 8.533 90.219 1-0.0548-0.77842 1.1532-2.1344 4.1875-4.25 10.94-11.065 23.301-24.419 21.406-41.281 0.72862-11.934-5.1908-23.702-8.9062-53.719-2.7866-22.513-5.9653-32.257-3.1562-38.062 9e-3 -0.0225 0.0209-0.0713 0.0312-0.0937-10.785 8.4678-28.693 8.9452-40.375 1.875-8.6782-7.0911-13.296-8.935-15.906-9.0625z" color="#000000" fill="url(#ap)" opacity=".59483" style="block-progression:tb;text-indent:0;text-transform:none"/><path d="m661.58 351.84c-3.3561-0.16399-3.4028 2.4806-4.5312 0.34375-13.535 2.4004-23.509 4.1796-35.406 12.25-10.438 8.4476-12.35 22.744-19.906 33.281-7.8034 17.979-13.063 38.098-9.4062 57.719 3.0864 15.253 8.2328 33.117 21.75 40 20.546 10.463 58.343 8.533 90.219 1-0.0548-0.77842 1.1532-2.1344 4.1875-4.25 10.94-11.065 23.301-24.419 21.406-41.281 0.72862-11.934-5.1908-23.702-8.9062-53.719-2.7866-22.513-5.9653-32.257-3.1562-38.062 9e-3 -0.0225 0.0209-0.0713 0.0312-0.0937-10.785 8.4678-28.693 8.9452-40.375 1.875-8.6782-7.0911-13.296-8.935-15.906-9.0625z" color="#000000" fill="url(#g)" opacity=".59483" style="block-progression:tb;text-indent:0;text-transform:none"/><path d="m576.27 237.93c-1.1176-0.0317-2.2596 0.0808-3.4062 0.3125-15.313 3.0711-21.511 19.879-22.406 33.781-6.3651 34.511-29.3 63.71-33.406 98.875-12.303 73.615 38.841 132.34 91.084 127.4-33.664-34.882-11.004-6.1604-30.87-16.723-1.754-0.76498-3.7623-2.0037-6.0579-3.8023-17.625-10.401-37.815-30.321-34.969-50.844 4.4003-42.478 32.443-77.143 43.906-117.53 5.4475-18.422 10.742-37.379 10.969-56.688-0.28386-8.1696-7.0205-14.559-14.844-14.781z" color="#000000" fill="url(#h)" filter="url(#bc)" style="block-progression:tb;text-indent:0;text-transform:none"/><path d="m606.64 496.06 0.5625 5.3125c10.205 3.669 12.982 14.046 24.312 15.062 21.825 1.9506 36.131 1.5794 30.688-2.9375-1.7286-1.6845-6.4534-5.2502-9.4688-7.7188-16.235-0.27744-31.747-3.7222-46.094-9.7188z" color="#000000" fill="url(#aq)" style="block-progression:tb;text-indent:0;text-transform:none"/><path d="m694.05 382.71c-1.3887 0.0331-2.7368 0.28322-4.0312 0.78125-11.922 4.5868-18.123 20.536-18.969 33.281-0.49951 7.5268 2.7011 16.144 8.5 20.969 5.3347 4.4382 14.084 7.0797 20.406 4.2188 11.638-5.2662 18.251-20.559 18.969-33.312 0.37155-6.5995-2.9382-13.754-7.8125-18.219-4.432-4.0595-11.045-7.8622-17.062-7.7188z" color="#000000" fill="url(#am)" filter="url(#az)"/><path d="m696.49 376.72c-1.5524 0.0308-3.0529 0.25582-4.5 0.71875-13.328 4.2635-20.273 19.09-21.219 30.938-0.55843 6.9963 3.0172 15.016 9.5 19.5 5.9638 4.1254 15.745 6.5343 22.812 3.875 13.01-4.8949 20.416-19.083 21.219-30.938 0.41537-6.1344-3.3008-12.788-8.75-16.938-4.9547-3.7733-12.335-7.2896-19.062-7.1562z" color="#000000" fill="url(#i)"/><path d="m702.15 386.22c-12.216 0.44478-17.8 12.958-16.312 23.531 0.94173 6.6949 3.8658 16.623 15.531 16.719 11.665 0.096 17.652-15.148 18.469-26.562 0.42289-5.9069-3.3836-12.316-15.156-13.625-0.87328-0.0818-1.7168-0.0922-2.5312-0.0625z" color="#000000" fill="url(#j)"/><path d="m704.27 387.88c-1.8237-0.0225-3.7948 0.19627-5.9375 0.75-11.428 2.9532-13.122 17.435-9.1562 28.094 2.0521 5.5156 12.737 11.848 17.719 7.75 6.1869-5.0891 15.352-15.993 11.906-26.375-1.7157-5.1698-6.6284-10.121-14.531-10.219z" color="#000000" fill="url(#k)"/><path d="m625.39 362.62c-18.787 0.68244-54.892 36.025-15.5 39.406 15.475 0.64683 38.49 2.435 51.719 7.4688 3.4628 1.3177 5.2008 3.463 9.125 6.4062 3.8878 2.916 8.0295 7.5959 12.875 7.9688 4.8455 0.37283 10.325-2.7043 12.406-4.3125 0 0-14.346 2.648-15.562-1.5 6.9925 0.34297 11.542-2.3694 16.188-5.0625 0 0-16.095 1.2421-15.75-1.25 5.7137-0.12214 11.072-3.224 15.531-7.0938-2.2399 1.3714-13.2 4.437-14.031 0.15625-0.92773-4.7757 12.505 1.1049 13.719-4.9688-8.7687-2.2387-18.12 0.72272-27.094-0.34375-18.073-2.1478-29.221-18.802-34.5-31-1.3489-4.3513-4.7895-6.0325-9.125-5.875zm71.031 42.031c0.23842-0.14597 0.42037-0.27857 0.4375-0.375-0.14321 0.12751-0.29235 0.24904-0.4375 0.375z" color="#000000" fill="url(#au)" filter="url(#bg)" style="block-progression:tb;text-indent:0;text-transform:none"/></g><path d="m674.3 349.74-0.4375 0.90625s7.487 5.5097 10.688 6.8438 7.0546 2.7763 9.875 3.1875c3.9992 0.5831 8.4227 0.85157 12.25-0.8125 0.81485-0.35429 1.6195-1.1552 2.3125-1.875-0.0391 0.19794-0.11458 0.39453-0.125 0.59375-0.0242 0.46365 0.0404 0.96027 0.375 1.3438 0.77903 0.89275 1.9753 1.2656 3.2812 1.375s1.875-0.34375 1.875-0.34375l2.75-2.5938s-3.3637 2.0354-4.5312 1.9375c-1.1675-0.0978-2.1006-0.43028-2.625-1.0312-0.08-0.0917-0.17329-0.30011-0.15625-0.625 0.017-0.32487 0.15818-0.74317 0.28125-1.125 0.23242-0.72108 0.46463-1.2754 0.5-1.3438 2e-3 -4e-3 0.0625-0.0937 0.0625-0.0937l-0.8125-0.5s-0.0603 0.0597-0.0625 0.0625c-0.0453 0.0591-0.52961 0.63178-1.2188 1.375-0.72199 0.77864-1.6808 1.6316-2.3125 1.9062-3.5273 1.5336-7.7823 1.3239-11.719 0.75-2.6152-0.3813-6.4548-1.8036-9.625-3.125s-10.625-6.8125-10.625-6.8125z" color="#000000" filter="url(#bb)" style="block-progression:tb;text-indent:0;text-transform:none"/><g><path d="m629.09 266.09c-1.2537-0.0428-3.6522 0.85887-2.4062 0.5625 0.2589-0.0616 0.5137-0.0903 0.78125-0.125 0.7353-0.0952 1.5238-0.0931 2.3125 0 2e-3 -0.2862-0.28047-0.42359-0.6875-0.4375zm0.6875 0.4375c-7.3e-4 0.11448-0.0219 0.26304-0.125 0.4375-0.86684 1.4675-1.7286 3.8745-1.8125 5.9375-0.11899 2.9273 1.2385 5.6618 1.875 8.5625 2.9902 13.627 5.489 27.965-1.9062 40.656-14.602 25.803-39.394 45.289-49.156 74-7.196 19.766-10.612 43.687 2.0312 62.094 2.4219 7.2346 9.7593 13.845 14.938 20.312-8.0442-17.295-4.6462-38.017 1.7188-55.5 9.7622-28.711 34.554-48.197 49.156-74 1.9743-3.3882 3.2259-6.8889 3.9688-10.469v-19.438c-0.54611-3.607-1.2834-7.1996-2.0625-10.75-0.6365-2.9007-2.0252-5.6352-1.9062-8.5625 5.339-13.952 3.1062-30.2-16.719-33.281z" color="#000000" fill="url(#l)" filter="url(#ay)" style="block-progression:tb;text-indent:0;text-transform:none"/><path d="m618.33 369.31c-2.6831 8.5916-1.4165 31.508 44.842 39.649 3.6489 0.64219 5.2008 3.4317 9.125 6.375 3.8878 2.916 8.0295 7.6272 12.875 8 4.8455 0.37283 10.325-2.7043 12.406-4.3125 0 0-14.346 2.6168-15.562-1.5312 6.9925 0.34297 11.542-2.3694 16.188-5.0625 0 0-16.408 0.58583-16.062-1.9062 5.8996-0.12612 16.062-5.75 16.062-5.75s-9.9852 2.1839-14.781 1.6562c-6.3024-0.69339 14.25-7.125 14.25-7.125s-9.3018 1.5027-19.469 1.4062l5.1903-10.436-8.534 10.342c-7.4153-0.35374-14.81-1.712-19-5.3125-6.7468-5.7978-16.433-15.249-19.094-22.219 9.4166-45.305-10.674-30.231-18.436-3.7738z" color="#000000" fill="url(#m)" style="block-progression:tb;text-indent:0;text-transform:none"/><path d="m717.81 394.99c-7.3566 1.2904-16.174 4.6163-16.174 4.6163 0.27603 0.51759 20.251-1.3882 18.905 0.57375-1.8038 2.6279-17.705 3.7628-17.575 4.0819 0 0 13.246 2.7789 18.669 1.0116 1.1485 2.2384-16.179 6.9337-16.179 6.9337s10.47 2.0665 16.957-0.56525c-1.1628 3.103-15.014 2.7846-15.014 2.7846s9.0555 4.5847 13.506 2.6334c1.3909-0.60977 3.0495-0.48643 4.1078-1.6756 0.01-0.0107 0.0161-0.0252 0.0255-0.036 0.23463-0.4641 0.37373-0.95765 0.41682-1.4654 0.0992-1.169-0.33221-2.5193-1.5968-3.0571-0.0117-9e-3 -0.0237-0.0176-0.036-0.0255l-0.58131-0.25007c0.0931-0.0527 0.0919-0.0732 0.19998-0.129 1.2161-0.62834 3.1241-1.4258 3.9465-3.0791 0.62014-1.2466 1.0286-2.598 0.38374-3.9005-0.60356-1.2191-1.8915-1.8176-2.9559-2.2875-0.13857-0.0612-0.17817-0.0483-0.2674-0.0814 0.0357-0.0441 0.0804-0.14217 0.12789-0.1802 0.16298-0.13052 0.79784-0.43143 1.3899-0.77484 0.28887-0.16756 0.61513-0.35982 0.90219-0.66034 0.30026-0.31435 0.54284-0.74838 0.57668-1.2707 0.0682-1.053-0.25818-2.1037-0.88235-2.9565-0.60837-0.83119-1.496-1.5307-8.8526-0.24026z" color="#000000" fill="url(#n)" style="block-progression:tb;text-indent:0;text-transform:none"/><path d="m633.09 263.97c-0.89399 0.0759-1.8281 0.35032-2.7812 0.78125-5.0835 2.2983-5.0936 8.558-1.5312 16.438 3.5623 7.8795 0.94772 19.142 6.0312 16.844 3.107-1.4047 9.1729-8.717 9.1875-13.125 9e-3 -2.8042 0.54131-8.6864-0.84375-11.75-2.6717-5.9096-5.6988-8.9917-9.1875-9.1875-0.29073-0.0163-0.577-0.0253-0.875 0z" color="#000000" fill="url(#o)" opacity=".97209"/></g></g><path d="m658.49 282.37c-1.5319 7e-3 -0.96804 3.2237-0.9375 5.7188 0.708-0.42671 1.6643-0.67842 2.875-0.6875 0.43545-3e-3 0.91562 0.0224 1.4062 0.0625 1.9626 0.16099 4.2892 0.7358 6.7188 1.5938 4.859 1.7159 7.8156 4.5998 10.75 9.2188 0.10298 0.16236 0.24764 0.32746 0.34375 0.5 2.1012 3.7725 5.3258 9.626 5.6562 14.719 0.0814 1.2542 0.15602 2.4925 0.15625 3.625 0.14162-0.0667 0.2306-0.12822 0.34375-0.25 0.66936-0.72124 0.92125-2.1637 1.0938-4.0625 0.17251-1.8987 0.134-4.2974-0.0312-6.8438-0.33044-5.0927-3.5863-10.946-5.6875-14.719-0.0961-0.17262-0.17823-0.36906-0.28125-0.53125-5.2903-6.6447-21.383-8.3487-22.406-8.3438z" color="#000000" filter="url(#b)" opacity="0" stroke-width="1px" style="block-progression:tb;text-indent:0;text-transform:none"/><g><g><path d="m655.93 294.75c-1.0666 0.22745-1.8978 0.5507-2.4682 0.95793-0.32713 0.23351-0.52145 0.58294-0.65456 0.99866-0.13313 0.41571-0.21639 0.90472-0.25755 1.4701-0.0823 1.1308 0.0173 2.5154 0.26382 3.9808 0.49354 2.9306 2.749 5.2886 4.7014 6.9676 2.5608 2.2022 6.0556 3.8829 10.231 4.0635 2.0876 0.0903 4.051 6e-3 5.6096-0.19171 0.77928-0.0987 1.4505-0.24931 1.9921-0.40163 0.54151-0.15311 0.97556-0.26849 1.2672-0.56384 0.52249-0.52902 0.66525-1.4122 0.74238-2.535 0.0771-1.1229-2e-3 -2.4858-0.22255-3.9244-0.44092-2.877-3.302-5.7102-5.1449-7.5262-0.0843-0.0831-0.17314-0.16474-0.26274-0.24066-2.5518-2.1622-5.0623-3.3333-9.0886-3.4967-2.0132-0.0817-3.9599 8e-3 -5.5683 0.2481-0.40208 0.0602-0.7844 0.11766-1.1399 0.19355z" color="#000000" fill="url(#p)" opacity=".57328" style="block-progression:tb;text-indent:0;text-transform:none"/><path d="m721.48 311.95c-0.47614 0.59034-0.99496 1.3323-1.4701 2.1328-0.95018 1.6012-1.2006 2.7753-1.1525 4.1218 2e-3 0.0472 8e-3 0.0973 0.0132 0.14368 0.11518 1.0135 0.29422 2.5856 1.0934 3.2217 0.39959 0.31807 0.82123 0.5776 1.1952 0.72835 0.37392 0.15078 0.69578 0.2244 0.99292 0.10529 0.16594-0.0663 0.29791-0.20905 0.48103-0.39619 0.18308-0.18715 0.4123-0.4322 0.63748-0.72102 0.45022-0.57777 0.95485-1.3409 1.4458-2.172 0.98182-1.6622 1.3187-3.2824 1.2601-4.6389-0.0447-1.0342-0.22474-2.2934-1.0278-2.9586-0.40152-0.33266-0.81931-0.59891-1.1971-0.74889-0.18889-0.075-0.3657-0.12259-0.53016-0.1375-0.1645-0.015-0.32247 5e-3 -0.47765 0.0957-0.36079 0.21003-0.78776 0.63344-1.2639 1.2238z" color="#000000" opacity=".56034" style="block-progression:tb;text-indent:0;text-transform:none"/><path d="m664.8 283.94c-0.38678 2e-3 -0.71739 9e-3 -1.0625 0.0312-0.51766 0.0335-0.99604 0.0967-1.4062 0.1875-0.41021 0.0907-0.79732 0.22892-1.0938 0.375-0.33998 0.16754-0.56768 0.42522-0.75 0.78125-0.18233 0.35602-0.32122 0.81031-0.4375 1.3125-0.12691 0.54815-0.20288 1.1719-0.25 1.8438 0.58107-0.25597 1.353-0.43793 2.3125-0.5 0.34511-0.0224 0.73823 2e-3 1.125 0 1.5471-9e-3 3.366 0.16783 5.25 0.5 3.7679 0.66435 5.9879 2.0125 8.0938 4.2812 0.0739 0.0798 0.15079 0.16461 0.21875 0.25 1.4859 1.867 3.7607 4.7672 3.7812 7.4062 5e-3 0.64995-9e-3 1.2846-0.0625 1.875 0.11535-0.0415 0.2171-0.0562 0.3125-0.125 0.56441-0.40767 0.83593-1.1895 1.0625-2.1875 0.22659-0.99795 0.32281-2.243 0.3125-3.5625-0.0206-2.6391-2.3579-5.5392-3.8438-7.4062-0.068-0.0854-0.11357-0.17033-0.1875-0.25-2.1058-2.2688-4.3258-3.6482-8.0938-4.3125-1.884-0.33217-3.7342-0.50902-5.2812-0.5z" color="#000000" fill="#fff" filter="url(#b)" opacity=".1681" style="block-progression:tb;text-indent:0;text-transform:none"/><path d="m723.08 307.59c-0.20062 0.0229-0.41659 0.0867-0.65625 0.15625-0.15978 0.0463-0.32474 0.0928-0.5 0.15625-0.70102 0.25365-1.5161 0.64371-2.3125 1.125-1.5928 0.96259-2.364 2.0087-2.9375 3.5-0.0201 0.0524-0.0148 0.13324-0.0312 0.1875-0.36028 1.186-0.93112 3.0144-0.5 4.3438 0.21555 0.66467 0.44975 1.2864 0.71875 1.75 0.26899 0.46357 0.52051 0.79563 0.84375 0.90625 0.0546 0.0187 0.0972 0.0297 0.15625 0.0312-0.12269-0.28768-0.2376-0.6101-0.34375-0.9375-0.43112-1.3293 0.13972-3.1578 0.5-4.3438 0.0165-0.0542 0.0424-0.1351 0.0625-0.1875 0.57353-1.4913 1.3447-2.5374 2.9375-3.5 0.79641-0.48129 1.5802-0.87135 2.2812-1.125 0.17527-0.0634 0.34022-0.14115 0.5-0.1875 0.44421-0.12895 0.8508-0.15663 1.1562-0.125-0.13343-0.32968-0.28864-0.62079-0.4375-0.875-0.13638-0.2329-0.26439-0.44531-0.40625-0.59375-0.14186-0.14845-0.31832-0.25381-0.5-0.28125-0.15841-0.0239-0.33063-0.0229-0.53125 0z" color="#000000" fill="#fff" filter="url(#b)" opacity=".36638" style="block-progression:tb;text-indent:0;text-transform:none"/><path d="m721.52 304.52c-0.0844-0.0244-0.18276-3e-3 -0.28125 0.0312-0.52628 0.18118-8.4765 3.9506-10 8.3125-0.0238 0.10178-0.0441 0.20661-0.0625 0.3125-0.40163 2.3144-1.026 5.8881-0.28125 8.5625 0.37234 1.3372 0.78925 2.5872 1.2188 3.5312 0.42949 0.94403 0.83929 1.6561 1.3125 1.9062 0.08 0.0422 0.13405 0.0537 0.21875 0.0625-0.20322-0.58159-0.41038-1.2476-0.59375-1.9062-0.7447-2.6744-0.12038-6.2481 0.28125-8.5625 0.0184-0.10585 0.0388-0.21064 0.0625-0.3125 0.67748-2.8987 1.688-4.934 3.875-6.6875 1.0935-0.87677 2.1774-1.565 3.1562-2 0.24473-0.10869 0.49454-0.2048 0.71875-0.28125 0.62332-0.21272 1.1848-0.2795 1.625-0.1875-0.37827-1.1259-0.65904-2.6104-1.25-2.7812z" color="#000000" filter="url(#b)" opacity=".11207" style="block-progression:tb;text-indent:0;text-transform:none"/><path d="m720.4 311.95c-0.47614 0.59034-0.99495 1.3323-1.4701 2.1328-0.95017 1.6012-1.2006 2.7753-1.1525 4.1218 2e-3 0.0472 8e-3 0.0973 0.0132 0.14368 0.11517 1.0135 0.29422 2.5856 1.0934 3.2217 0.39959 0.31807 0.82122 0.5776 1.1952 0.72835 0.37393 0.15078 0.69578 0.2244 0.99293 0.10529 0.16594-0.0663 0.29791-0.20905 0.48103-0.39619 0.18307-0.18715 0.4123-0.4322 0.63748-0.72102 0.45022-0.57776 0.95484-1.3409 1.4458-2.172 0.98182-1.6622 1.3187-3.2824 1.2601-4.6389-0.0446-1.0342-0.22475-2.2934-1.0278-2.9586-0.40152-0.33266-0.81932-0.5989-1.1971-0.74889-0.18889-0.075-0.3657-0.12259-0.53016-0.1375-0.1645-0.015-0.32247 5e-3 -0.47765 0.0957-0.36079 0.21003-0.78776 0.63344-1.2639 1.2238z" color="#000000" opacity=".56034" style="block-progression:tb;text-indent:0;text-transform:none"/><path d="m655.24 297.19c-1.0666 0.22745-1.8978 0.5507-2.4682 0.95793-0.32713 0.23351-0.52145 0.58294-0.65456 0.99866-0.13313 0.41571-0.21639 0.90472-0.25755 1.4701-0.0823 1.1308 0.0173 2.5154 0.26382 3.9808 0.49354 2.9306 2.749 5.2886 4.7014 6.9676 2.5608 2.2022 6.0556 3.8829 10.231 4.0635 2.0876 0.0903 4.051 6e-3 5.6096-0.19171 0.77928-0.0987 1.4505-0.24931 1.9921-0.40163 0.54151-0.15311 0.97556-0.26849 1.2672-0.56384 0.52249-0.52902 0.66525-1.4122 0.74238-2.535 0.0771-1.1229-2e-3 -2.4858-0.22255-3.9244-0.44092-2.877-3.302-5.7102-5.1449-7.5262-0.0843-0.0831-0.17314-0.16474-0.26274-0.24066-2.5518-2.1622-5.0623-3.3333-9.0886-3.4967-2.0132-0.0817-3.9599 8e-3 -5.5683 0.2481-0.40208 0.0602-0.7844 0.11766-1.1399 0.19355z" color="#000000" fill="url(#q)" style="block-progression:tb;text-indent:0;text-transform:none"/><path d="m656.05 297.23c-0.92506 0.19723-1.6459 0.47761-2.1406 0.83079-0.28371 0.20251-0.45223 0.50555-0.56768 0.86609-0.11546 0.36054-0.18767 0.78463-0.22337 1.275-0.0714 0.98066 0.015 2.1815 0.22881 3.4524 0.42849 2.5416 2.3841 4.5866 4.0774 6.0427 2.2209 1.9099 5.2518 3.3675 8.8728 3.5241 1.8105 0.0783 3.5133 5e-3 4.865-0.16627 0.67583-0.0856 1.2579-0.21662 1.7277-0.34832 0.46963-0.13279 0.84608-0.23281 1.099-0.48899 0.45313-0.45881 0.57695-1.2247 0.64383-2.1986 0.0669-0.97382-2e-3 -2.1559-0.19301-3.4034-0.38236-2.4952-2.8637-4.9522-4.462-6.5272-0.0731-0.0721-0.15016-0.14288-0.22787-0.20872-2.2131-1.8752-4.3903-2.8908-7.8822-3.0326-1.7459-0.0709-3.4343 7e-3 -4.8292 0.21515-0.34873 0.0521-0.68029 0.10202-0.98863 0.16786z" color="#000000" fill="url(#r)" style="block-progression:tb;text-indent:0;text-transform:none"/><path d="m720.74 312.67c-0.39874 0.49439-0.83322 1.1157-1.2311 1.7861-0.79572 1.3409-1.0054 2.3242-0.96512 3.4518 2e-3 0.0396 7e-3 0.0815 0.0113 0.12029 0.0964 0.84874 0.24639 2.1653 0.9157 2.698 0.33464 0.26636 0.68774 0.48371 1.0009 0.60995 0.31314 0.12627 0.58267 0.18792 0.83152 0.0882 0.13896-0.0555 0.24947-0.17506 0.40282-0.33178 0.15332-0.15673 0.34529-0.36195 0.53386-0.60381 0.37704-0.48386 0.79963-1.1229 1.2107-1.8189 0.82222-1.392 1.1043-2.7488 1.0553-3.8848-0.0374-0.8661-0.18821-1.9205-0.86074-2.4777-0.33625-0.27858-0.68613-0.50154-1.0025-0.62715-0.15818-0.0628-0.30625-0.10266-0.44398-0.11515-0.13775-0.0125-0.27005 4e-3 -0.4 0.0802-0.30214 0.17588-0.6597 0.53047-1.0584 1.0248z" color="#000000" fill="url(#s)" style="block-progression:tb;text-indent:0;text-transform:none"/><path d="m722.68 324.94c-4.7512 4.6826-5.3111 11.563-4.25 17.812 0.71597 4.2168 1.0283 7.1605 4.25 9.9688 6.1939-8.0127 0.13199-18.194-0.0312-27.219-3e-3 -0.19121 0.0159-0.3748 0.0312-0.5625z" color="#000000" fill="url(#t)" filter="url(#ba)" opacity=".18534"/><path d="m667.52 320.34c-1.384 12.527 7.4586 22.671 18.156 29.844 7.2182 4.8398 11.947 8.473 21.406 8.1562-0.91318-18.939-25.684-25.032-38.812-37.156-0.27816-0.25688-0.5088-0.56735-0.75-0.84375z" color="#000000" fill="#fff" filter="url(#be)" opacity=".14224"/></g><path d="m712.21 343.59c-0.22877 0.0115-0.46302 0.0244-0.6875 0.0625-3.5917 0.60984-6.6967 4.7472-7.0312 8.375-0.17193 1.8644 1.2146 3.8496 2.7812 4.875 1.8598 1.2173 4.4144 0.92009 6.625 0.6875 2.1174-0.22278 4.686-0.34449 6.0625-1.9688 1.3944-1.6454 1.8944-4.4269 0.96875-6.375-1.4658-3.0849-5.2872-5.8286-8.7188-5.6562z" fill="url(#u)" fill-rule="evenodd"/><path d="m706.02 494.87c-6.707 3.0004-13.674 5.4503-20.875 7.25 7.247 0.91158 15.394 3.1878 24.594 8.25 9.4978 4.5461 20.76 4.154 31.438 2.4688 11.314-5.3302-1.4852-11.983-5.875-15.156-5.5459-4.0094-14.459-1.0312-20.5-1.0312-1.9742 0-9.6105 0.68296-8.7812-1.7812z" color="#000000" fill="url(#ar)" style="block-progression:tb;text-indent:0;text-transform:none"/><g fill-rule="evenodd"><path d="m704.37 499.3-0.83889 5.6137 24.491 5.9514z" fill="url(#v)"/><path d="m715.31 498.88-4.0776 2.6735 25.763 7.4565z" fill="url(#w)"/><path d="m729.14 498.11-9.151 1.4268 23.85 6.4772z" fill="url(#x)"/><path d="m622.76 503.04-4.9575 4.4917 18.08 7.6477z" fill="url(#y)"/><path d="m635.92 503.63-6.087 3.5623 17.815 10.444z" fill="url(#z)"/><path d="m646.68 503.52-4.6576 2.9994 17.51 9.2907z" fill="url(#aa)"/></g><path d="m632.77 317.5c-4.0318 3.9106-8.0711 7.8027-12.094 11.719-14.763 24.301-37.974 43.35-47.344 70.906-0.77904 2.1398-1.5126 4.3372-2.1875 6.5625-8e-3 0.0319-0.0231 0.0619-0.0312 0.0937-0.29495 1.1436-0.56184 2.2938-0.8125 3.4375-1.605 9.0063-1.9601 18.138-0.375 27 1.0857 4.4779 2.785 8.8779 5.375 13.156 0.60279-9.9552 0.0492-25.798 3.9688-38.062 8.9967-36.492 34.85-71.096 53.5-94.812z" color="#000000" filter="url(#bf)" opacity=".68372" style="block-progression:tb;text-indent:0;text-transform:none"/></g><g fill="url(#as)"><path d="m725.14 344.51-0.36856 0.50435 6.5469 4.3646z" color="#000000" style="block-progression:tb;text-indent:0;text-transform:none"/><path d="m724.28 341.48 0.0217 0.69632 8.8454-0.58752z" color="#000000" style="block-progression:tb;text-indent:0;text-transform:none"/><path d="m724.11 350.64-0.43338 0.62599 8.3906 5.4052z" color="#000000" style="block-progression:tb;text-indent:0;text-transform:none"/></g><g fill="url(#at)"><path d="m681.35 344.43-26.041 7.8438 26.213-7.2521z" color="#000000" style="block-progression:tb;text-indent:0;text-transform:none"/><path d="m686.61 345.71-16.17 12.375 16.593-11.796z" color="#000000" style="block-progression:tb;text-indent:0;text-transform:none"/><path d="m684.35 351.54-10.072 14.376 10.625-13.993z" color="#000000" style="block-progression:tb;text-indent:0;text-transform:none"/><path d="m694.33 355.64-5.4278 7.7466 5.7255-7.5405z" color="#000000" style="block-progression:tb;text-indent:0;text-transform:none"/><path d="m691.21 353.69-5.4278 7.7466 5.7255-7.5405z" color="#000000" style="block-progression:tb;text-indent:0;text-transform:none"/></g><g><g fill-rule="evenodd"><path d="m693.14 400.49-10.5 1.375c0.29391 0.63522 0.5777 1.2905 0.8125 1.9688l9.6875-3.3438z" fill="url(#ab)"/><path d="m694.64 406.06c-4.0698 0.64164-6.6854 1.486-10.281 1.3125 0.0848 0.49238 0.13379 0.99441 0.1875 1.5l10.094-2.8125z" fill="url(#ac)"/><path d="m684.58 413.62c-0.0709 0.76507-0.17115 1.515-0.3125 2.25l10.188-1.875-9.875-0.375z" fill="url(#ad)"/><path d="m682.99 420.15c-0.21547 0.52044-0.46712 1.0085-0.71875 1.5 3.8926 1.2377 7.742-0.87893 11.938-1.5-4.0247-0.0972-8.0984 1.2063-11.219 0z" fill="url(#ae)"/><path d="m709.2 414.68c3.2782 1.0643 6.4159 2.4085 10.375 2.2812-0.46317-0.54725-0.90681-1.1044-1.3125-1.7188-2.9654 0.29126-6.0226-0.18301-9.0625-0.5625z" fill="url(#af)"/><path d="m715.99 410.68c-2.2082 0.88121-4.8213 1.2356-7.5625 1.4062 2.7443 0.15308 5.4925 0.26298 8.1562 0.0937-0.21075-0.48537-0.41666-0.99067-0.59375-1.5z" fill="url(#ag)"/><path d="m714.77 403.46-7.9375 0.90625 8 0.6875c-0.0428-0.52209-0.0542-1.0601-0.0625-1.5938z" fill="url(#ah)"/><path d="m715.67 396.59-10.844 2.5 10.406-0.59375c0.12928-0.65058 0.25621-1.2837 0.4375-1.9062z" fill="url(#ai)"/><path d="m681.71 392.41-5.3033 6.8059c0.65699 0.24135 1.321 0.50405 1.9666 0.8176z" fill="url(#aj)"/></g><g><path d="m634.63 296.16c-0.28315 0.0307-0.60086 0.23559-0.9375 0.75l-2.9375 2.5938c-2.5029 1.5208 1.921 3.6497 2.5625 5.375 9.7058 16.689 26.626 24.114 45.344 24.469 1.8707-0.21069 6.3219 1.4921 6.4688-0.78125-2.4389-0.58526-5.3311 0.13739-7.6875-1.125-3.3804-1.5222-6.2408-3.9268-10-4.7812-16.142 0.81519-23.707-12.341-30.531-24.156-0.77461-0.78938-1.4318-2.4359-2.2812-2.3438z" color="#000000" fill="url(#al)" filter="url(#aw)" style="block-progression:tb;text-indent:0;text-transform:none"/><path d="m621.52 383.92c11.061 8.7439 30.039 17.38 46.417 25.461 3.2939 2.1866 6.4467 5.5745 9.5 7.4062 2.7023-1.3488-1.6408-3.7614-0.0937-6.2812 0.18023-1.5756 1.0845-4.9867-1.8438-3.7812-11.387 0.15047-23.312-3.684-30.094-13.312-5.4831-6.1041-10.102-12.966-13.787-20.3-1.9698-3.846-11.765 6.3252-10.098 10.808z" color="#000000" fill="url(#ak)" filter="url(#av)" opacity=".53023" style="block-progression:tb;text-indent:0;text-transform:none"/><path d="m645.99 332.22s-36.582 27.399-46.438 47.125c-13.489 26.997-26.223 54.762-13.375 89.531 3.5657 10.608 1.1326-22.939 2.5625-26.375-6.9181-38.234 57.25-110.28 57.25-110.28z" color="#000000" filter="url(#ax)" opacity=".57674" style="block-progression:tb;text-indent:0;text-transform:none"/></g></g></g></svg>
