<svg version="1.1" viewBox="0 0 800 600" xmlns="http://www.w3.org/2000/svg" xmlns:xlink="http://www.w3.org/1999/xlink"><defs><linearGradient id="g"><stop offset="0"/><stop stop-color="#0c1209" offset=".39347"/><stop stop-color="#080f08" offset=".68331"/><stop stop-color="#223224" offset=".82132"/><stop stop-color="#2b4d38" offset="1"/></linearGradient><linearGradient id="f"><stop stop-color="#3a3a3a" offset="0"/><stop stop-color="#181818" offset="1"/></linearGradient><linearGradient id="a"><stop offset="0"/><stop stop-color="#3e3e3e" offset=".5"/><stop offset="1"/></linearGradient><linearGradient id="b"><stop stop-color="#181818" offset="0"/><stop offset=".41935"/><stop stop-color="#282828" offset=".83871"/><stop stop-color="#999" offset="1"/></linearGradient><filter id="cc" color-interpolation-filters="sRGB"><feGaussianBlur stdDeviation="0.31364162"/></filter><filter id="cb" color-interpolation-filters="sRGB"><feGaussianBlur stdDeviation="0.41812934"/></filter><filter id="ca" color-interpolation-filters="sRGB"><feGaussianBlur stdDeviation="0.71898718"/></filter><filter id="bz" color-interpolation-filters="sRGB"><feGaussianBlur stdDeviation="0.28566755"/></filter><filter id="cp" color-interpolation-filters="sRGB"><feGaussianBlur stdDeviation="0.73268012"/></filter><filter id="cm" color-interpolation-filters="sRGB"><feGaussianBlur stdDeviation="3.789215"/></filter><filter id="ci" x="-.12191" y="-.11815" width="1.2438" height="1.2363" color-interpolation-filters="sRGB"><feGaussianBlur stdDeviation="2.7308777"/></filter><filter id="cg" color-interpolation-filters="sRGB"><feGaussianBlur stdDeviation="1.8630171"/></filter><filter id="co" color-interpolation-filters="sRGB"><feGaussianBlur stdDeviation="3.4119803"/></filter><filter id="cf" color-interpolation-filters="sRGB"><feGaussianBlur stdDeviation="0.55344122"/></filter><filter id="bw" x="-.080279" y="-.23753" width="1.1606" height="1.4751" color-interpolation-filters="sRGB"><feGaussianBlur stdDeviation="2.2578672"/></filter><filter id="bv" color-interpolation-filters="sRGB"><feGaussianBlur stdDeviation="0.39"/></filter><filter id="bu" color-interpolation-filters="sRGB"><feGaussianBlur stdDeviation="0.6825"/></filter><filter id="bt" x="-.11038" y="-.12047" width="1.2208" height="1.2409" color-interpolation-filters="sRGB"><feGaussianBlur stdDeviation="0.8579999"/></filter><filter id="ck" color-interpolation-filters="sRGB"><feGaussianBlur stdDeviation="6.7937956"/></filter><radialGradient id="r" cx="380.1" cy="331.86" r="70.672" gradientTransform="matrix(1.605 -.40671 .526 2.0758 -461.25 -473.43)" gradientUnits="userSpaceOnUse" xlink:href="#a"/><radialGradient id="q" cx="330.62" cy="323.49" r="44.376" gradientTransform="matrix(-2.1862 -2.1862 1.1879 -1.1879 757.03 1486.2)" gradientUnits="userSpaceOnUse" xlink:href="#a"/><radialGradient id="p" cx="504.19" cy="348.81" r="39.555" gradientTransform="matrix(1.1201 .15169 -.057225 .42256 -45.335 130.68)" gradientUnits="userSpaceOnUse"><stop offset="0"/><stop stop-color="#0e0e0e" offset=".82132"/><stop stop-color="#1d1d1d" offset="1"/></radialGradient><radialGradient id="o" cx="485.62" cy="423.01" r="6.3218" gradientTransform="matrix(1.9387,0,0,1.9387,-418.17,-410.75)" gradientUnits="userSpaceOnUse" xlink:href="#b"/><radialGradient id="n" cx="523.85" cy="402.95" r="14.081" gradientTransform="matrix(1.5155,0,0,1.5155,-269.96,-210.98)" gradientUnits="userSpaceOnUse" xlink:href="#f"/><radialGradient id="m" cx="523.85" cy="402.95" r="14.081" gradientTransform="matrix(1.5155,0,0,-1.5155,-269.94,1029.5)" gradientUnits="userSpaceOnUse" xlink:href="#f"/><radialGradient id="l" cx="524.28" cy="403.4" r="14.081" gradientTransform="matrix(3.9718 -.85467 .40322 1.8738 -2033.9 110.82)" gradientUnits="userSpaceOnUse" xlink:href="#b"/><linearGradient id="bb" x1="95.125" x2="68.25" y1="176.12" y2="145" gradientTransform="translate(25.039,240.69)" gradientUnits="userSpaceOnUse" xlink:href="#b"/><linearGradient id="ba" x1="92.772" x2="114.26" y1="410.34" y2="394.96" gradientTransform="translate(-1.375,5.125)" gradientUnits="userSpaceOnUse" xlink:href="#b"/><linearGradient id="az" x1="91.005" x2="74.474" y1="171.44" y2="151.64" gradientUnits="userSpaceOnUse" xlink:href="#b"/><linearGradient id="ay" x1="88.19" x2="102.98" y1="489.71" y2="486.5" gradientTransform="matrix(-1,0,0,1,181.04,166.17)" gradientUnits="userSpaceOnUse" xlink:href="#a"/><linearGradient id="ax" x1="89.912" x2="97.368" y1="485.05" y2="485.82" gradientTransform="matrix(-1,0,0,-1,181.04,975.07)" gradientUnits="userSpaceOnUse" xlink:href="#a"/><linearGradient id="aw" x1="351.95" x2="454.49" y1="656.01" y2="533.05" gradientTransform="translate(-25.739,-17.152)" gradientUnits="userSpaceOnUse" xlink:href="#b" spreadMethod="reflect"/><linearGradient id="av" x1="781.88" x2="787.14" y1="856.83" y2="849.39" gradientTransform="translate(-25.739,-17.152)" gradientUnits="userSpaceOnUse" spreadMethod="reflect"><stop stop-color="#0b0b0b" offset="0"/><stop offset=".026669"/><stop stop-color="#121212" offset=".39347"/><stop stop-color="#313131" offset=".68331"/><stop stop-color="#2a2a2b" offset=".82132"/><stop stop-color="#282828" offset="1"/></linearGradient><linearGradient id="au" x1="272.65" x2="417.46" y1="741.64" y2="511.49" gradientTransform="translate(5e-6)" gradientUnits="userSpaceOnUse" xlink:href="#b" spreadMethod="reflect"/><radialGradient id="k" cx="471.81" cy="231.55" r="37.67" gradientTransform="matrix(1.0239 -.23606 .079938 .33094 -41.447 364.9)" gradientUnits="userSpaceOnUse" xlink:href="#a" spreadMethod="reflect"/><radialGradient id="j" cx="511.71" cy="336.38" r="37.67" gradientTransform="matrix(.66263 .68167 -.25988 .16939 249.96 -71.647)" gradientUnits="userSpaceOnUse" xlink:href="#a" spreadMethod="reflect"/><linearGradient id="at" x1="521.35" x2="525.75" y1="337.06" y2="337.81" gradientTransform="translate(-3.5355)" gradientUnits="userSpaceOnUse" xlink:href="#a" spreadMethod="reflect"/><linearGradient id="as" x1="464.61" x2="469.1" y1="353.99" y2="354.74" gradientTransform="translate(-3.5355)" gradientUnits="userSpaceOnUse" xlink:href="#a" spreadMethod="reflect"/><radialGradient id="i" cx="348.14" cy="436.78" r="5.7995" gradientUnits="userSpaceOnUse" xlink:href="#b"/><radialGradient id="h" cx="485.62" cy="423.01" r="6.3218" gradientTransform="translate(-9.5147,-1.4142)" gradientUnits="userSpaceOnUse" xlink:href="#b"/><linearGradient id="aq" x1="345.04" x2="332.55" y1="271.47" y2="291.62" gradientTransform="translate(-67.554 -274.32)" gradientUnits="userSpaceOnUse" xlink:href="#c"/><linearGradient id="ao" x1="432.88" x2="533.55" y1="807.83" y2="547.39" gradientTransform="translate(-23.739,-15.152)" gradientUnits="userSpaceOnUse" xlink:href="#b" spreadMethod="reflect"/><radialGradient id="ai" cx="577.79" cy="851.58" r="124.97" gradientTransform="matrix(1.3027 .75211 -3.1804 5.5086 2393.6 -4258.1)" gradientUnits="userSpaceOnUse" xlink:href="#b"/><filter id="cd" color-interpolation-filters="sRGB"><feGaussianBlur stdDeviation="4.4494773"/></filter><radialGradient id="am" cx="481.15" cy="420.84" r="6.3218" gradientTransform="matrix(5.3869,-9.3303,3.6788,2.7919,-4004,3474)" gradientUnits="userSpaceOnUse" xlink:href="#b"/><filter id="ch" color-interpolation-filters="sRGB"><feGaussianBlur stdDeviation="1.0103646"/></filter><filter id="ce" color-interpolation-filters="sRGB"><feGaussianBlur stdDeviation="1.2550636"/></filter><radialGradient id="aj" cx="454.13" cy="671.66" r="122.03" gradientTransform="matrix(1.6299 1.6299 -.74738 .74738 228.59 -643.15)" gradientUnits="userSpaceOnUse" xlink:href="#a"/><linearGradient id="bp" x1="426.44" x2="556.15" y1="531.11" y2="667.56" gradientUnits="userSpaceOnUse"><stop stop-color="#0b0b0b" offset="0"/><stop offset=".026669"/><stop stop-color="#121212" offset=".37223"/><stop stop-color="#777868" offset=".68331"/><stop stop-color="#2d302f" offset=".84189"/><stop stop-color="#4ea797" offset="1"/></linearGradient><radialGradient id="c" cx="577.04" cy="768.64" r="90.513" gradientTransform="matrix(1,0,0,1.0583,0,-37.78)" gradientUnits="userSpaceOnUse"><stop stop-color="#c3c3c3" offset="0"/><stop stop-color="#2c2c2c" offset="1"/></radialGradient><radialGradient id="ah" cx="499.87" cy="663.99" r="26.881" gradientTransform="matrix(1.7679 -.82383 1.1661 2.5023 -1136.8 -605.96)" gradientUnits="userSpaceOnUse"><stop stop-color="#3c593f" offset="0"/><stop stop-color="#815f37" offset=".5"/><stop stop-color="#1f331c" offset="1"/></radialGradient><linearGradient id="bn" x1="754.62" x2="505.81" y1="740.8" y2="560.42" gradientTransform="matrix(.96391 0 0 .96391 23.753 27.657)" gradientUnits="userSpaceOnUse" xlink:href="#a" spreadMethod="reflect"/><radialGradient id="ag" cx="489.25" cy="655.96" r="26.881" gradientTransform="matrix(.18279 1.9443 -2.6494 .24907 2145.9 -480.1)" gradientUnits="userSpaceOnUse" xlink:href="#g"/><linearGradient id="bm" x1="484.75" x2="591.66" y1="540.1" y2="639.1" gradientTransform="matrix(.96391 0 0 .96391 23.753 27.657)" gradientUnits="userSpaceOnUse" xlink:href="#g"/><linearGradient id="e" x1="444.45" x2="635.13" y1="650.14" y2="650.14" gradientTransform="matrix(.96391 0 0 .96391 23.753 27.657)" gradientUnits="userSpaceOnUse"><stop stop-color="#0f0f0f" offset="0"/><stop stop-color="#0f0f0f" stop-opacity="0" offset="1"/></linearGradient><radialGradient id="af" cx="579.53" cy="630.24" r="122.04" gradientTransform="matrix(.89065 .89065 -.92289 .92289 648.65 -408.27)" gradientUnits="userSpaceOnUse"><stop offset="0"/><stop stop-color="#434343" offset=".5"/><stop offset="1"/></radialGradient><radialGradient id="ac" cx="485.77" cy="423.94" r="6.3218" gradientTransform="matrix(1.7848 2.7322e-6 -1.5731e-6 1.0276 -693.66 -23.904)" gradientUnits="userSpaceOnUse" xlink:href="#a"/><radialGradient id="ab" cx="485.38" cy="425.22" r="6.3218" gradientTransform="matrix(1.7193 3.1529e-7 -1.8152e-7 .98986 -625.7 -14.158)" gradientUnits="userSpaceOnUse" xlink:href="#a"/><radialGradient id="y" cx="497.99" cy="429.97" r="6.3218" gradientTransform="matrix(5.7699,-2.1811,-2.1493,-5.6857,-1408.7,3916)" gradientUnits="userSpaceOnUse" xlink:href="#a"/><radialGradient id="x" cx="485.99" cy="423.13" r="6.3218" gradientTransform="matrix(2.3522 -2.7022e-6 2.7274e-6 2.3742 -610.34 -591.4)" gradientUnits="userSpaceOnUse" xlink:href="#a"/><filter id="cj" color-interpolation-filters="sRGB"><feGaussianBlur stdDeviation="1.2365323"/></filter><radialGradient id="al" cx="373.67" cy="909.76" r="183.66" gradientTransform="matrix(.58557 -1.0142 2.4801 1.4319 -1762.6 -415.67)" gradientUnits="userSpaceOnUse" xlink:href="#b" spreadMethod="reflect"/><radialGradient id="ak" cx="700.61" cy="864.88" r="124.97" gradientTransform="matrix(1.1896,-1.1896,2.7915,2.8049,-2750.7,-699.67)" gradientUnits="userSpaceOnUse" xlink:href="#b" spreadMethod="reflect"/><filter id="cl" color-interpolation-filters="sRGB"><feGaussianBlur stdDeviation="1.8850003"/></filter><linearGradient id="bl" x1="190.88" x2="488.71" y1="11.498" y2="181.62" gradientTransform="translate(2.7591e-5 -6.18)" gradientUnits="userSpaceOnUse" xlink:href="#a"/><linearGradient x1="382.74" x2="384.72" y1="481.7" y2="434.05" gradientUnits="userSpaceOnUse" xlink:href="#b"/><linearGradient id="bs" x1="-15.6" x2="242.09" y1="560.36" y2="523.51" gradientTransform="translate(-67.554 -274.32)" gradientUnits="userSpaceOnUse" xlink:href="#a"/><radialGradient id="an" cx="831.12" cy="579.85" r="244.35" gradientTransform="matrix(1.3763 0 0 1.3195 -50.95 -57.397)" gradientUnits="userSpaceOnUse" xlink:href="#a" spreadMethod="reflect"/><linearGradient id="br" x1="403.7" x2="414.17" y1="138.04" y2="235.31" gradientUnits="userSpaceOnUse" xlink:href="#a"/><linearGradient id="bq" x1="135.12" x2="155.82" y1="120" y2="158.91" gradientUnits="userSpaceOnUse" xlink:href="#a"/><linearGradient id="bo" x1="184.22" x2="230.84" y1="427.91" y2="427.91" gradientUnits="userSpaceOnUse" xlink:href="#a"/><radialGradient id="ae" cx="516.23" cy="644.35" r="60.206" gradientTransform="matrix(.95911 .096141 -.090568 .90351 84.592 17.03)" gradientUnits="userSpaceOnUse" xlink:href="#a"/><linearGradient id="bk" x1="46.755" x2="311.73" y1="109.42" y2="109.42" gradientUnits="userSpaceOnUse" xlink:href="#a"/><filter id="by" color-interpolation-filters="sRGB"><feGaussianBlur stdDeviation="1.9603125"/></filter><linearGradient id="bj" x1="213.14" x2="433.65" y1="334.66" y2="-86.826" gradientUnits="userSpaceOnUse" xlink:href="#a"/><radialGradient id="ad" cx="331.2" cy="369.19" r="64.445" gradientTransform="matrix(1.9409 0 0 1.1727 -332.83 -69.134)" gradientUnits="userSpaceOnUse" xlink:href="#a"/><linearGradient id="bi" x1="381.3" x2="393.85" y1="290.48" y2="273.51" gradientTransform="translate(-67.554 -274.32)" gradientUnits="userSpaceOnUse" xlink:href="#c"/><linearGradient id="bh" x1="345" x2="346.12" y1="57.875" y2="71.269" gradientTransform="translate(-49.728 -43.273)" gradientUnits="userSpaceOnUse" xlink:href="#a"/><radialGradient id="aa" cx="554.59" cy="901.65" r="126.8" gradientTransform="matrix(-2.4265 2.4265 -2.2616 -2.2616 3672.7 1144.5)" gradientUnits="userSpaceOnUse" xlink:href="#a"/><radialGradient id="z" cx="577.04" cy="768.64" r="90.513" gradientTransform="matrix(1,0,0,1.0583,0,-37.78)" gradientUnits="userSpaceOnUse" xlink:href="#c"/><linearGradient id="bg" x1="440.68" x2="439.01" y1="312.81" y2="342.29" gradientUnits="userSpaceOnUse" xlink:href="#a"/><radialGradient id="w" cx="195.7" cy="495.2" r="40.19" gradientTransform="matrix(2.1799 -.12441 .017401 .30547 -307.09 93.39)" gradientUnits="userSpaceOnUse" xlink:href="#b"/><radialGradient id="v" cx="167.42" cy="136.54" r="37.766" gradientTransform="matrix(.0091873 .44324 -.12861 .0033099 208.69 124.94)" gradientUnits="userSpaceOnUse" xlink:href="#a" spreadMethod="reflect"/><linearGradient id="bf" x1="219.12" x2="219.12" y1="50.802" y2="166.95" gradientUnits="userSpaceOnUse" xlink:href="#a"/><radialGradient id="u" cx="495.8" cy="433.71" r="6.3218" gradientTransform="matrix(2.9869 .32522 -1.1126 .84776 -831.63 -114.31)" gradientUnits="userSpaceOnUse" xlink:href="#b"/><radialGradient id="t" cx="171.62" cy="412.37" r="7.9" gradientTransform="matrix(3.2167 0 0 1.5881 -381.74 -240.88)" gradientUnits="userSpaceOnUse" xlink:href="#a"/><linearGradient id="be" x1="164.31" x2="180.11" y1="410.27" y2="410.27" gradientUnits="userSpaceOnUse" xlink:href="#a"/><radialGradient id="s" cx="207.98" cy="406.89" r="7.9" gradientTransform="matrix(2.8174 1.0059e-6 -6.5254e-7 1.4396 -380.22 -178.23)" gradientUnits="userSpaceOnUse"><stop offset="0"/><stop stop-color="#434343" offset=".5"/><stop offset="1"/></radialGradient><linearGradient id="bd" x1="201.31" x2="217.11" y1="404.27" y2="404.27" gradientUnits="userSpaceOnUse" xlink:href="#a"/><filter id="bx" color-interpolation-filters="sRGB"><feGaussianBlur stdDeviation="3.1611974"/></filter><linearGradient id="bc" x1="633.31" x2="399.08" y1="389.35" y2="660.09" gradientUnits="userSpaceOnUse" xlink:href="#a" spreadMethod="reflect"/><filter id="cn" color-interpolation-filters="sRGB"><feGaussianBlur stdDeviation="0.82676456"/></filter><radialGradient id="d" cx="1432.4" cy="99.821" r="125.62" gradientTransform="matrix(.42527 -.32156 .3446 .45574 788.84 512.4)" gradientUnits="userSpaceOnUse" xlink:href="#a"/><linearGradient id="ar" x1="444.45" x2="635.13" y1="650.14" y2="650.14" gradientTransform="matrix(.96391 0 0 .96391 23.753 27.657)" gradientUnits="userSpaceOnUse" xlink:href="#e"/><linearGradient id="ap" x1="90.917" x2="145.08" y1="457.78" y2="964.18" gradientTransform="matrix(.9402 0 0 .60143 21.929 57.539)" gradientUnits="userSpaceOnUse" xlink:href="#e" spreadMethod="reflect"/></defs><g transform="translate(14.028 -250.67)"><path transform="translate(-14.028 250.67)" d="m98.438 407c0.0191 16.867 0.15275 33.717 1.3125 50.562-3.4941 18.268 12.91 33.905 34.094 45 28.994 19.275 73.726 15.71 111.06 12.375 12.48-7.2241-0.16812-22.013 24.25-18.781l97.219-5.8438c12.201 4.4206 24.706 14.386 37.531 20.469 22.602 13.61 49.912 23.654 78.594 30.906 54.016 10.609 114.97-4.6754 146.75-34.062 34.02-28.46 39.758-71.717 4.8438-100.62h-535.66z" fill="url(#ap)"/><path transform="translate(67.554,268.14)" d="m250.5 25.188c-14.183 1.9718-26.948 11.655-31.718 16.375-12.362 11.905-14.47 21.172-20.438 35.719-3.2879 7.9185-13.469 12.781-13.469 12.781l-129.71 20.81s-5.6673 1.3698-8.0556 2.8082c-4.055 2.3411-5.0905 3.7417-9.4518 5.2872-5.9068 2.2658-11.307 3.4379-11.721 13.751-22.682 48.933-13.706 46.255-14.25 88.5-0.80776 62.709 0.2655 106.93 1.75 172 4.5055 30.757 16.045 36.787 20.375 41.562 20.082 22.149 39.345 44.896 94.875 40.781 10.052-0.74489 22.731-1.6412 35.312-3.1562 10.25-1.2342 11.343-9.6254 11.094-17.312-0.16212-5.0053-0.4715-9.0578-0.65625-12.875l122.17-11.56 202.07-213.04c-0.39407-21.083 2.0988-42.806-1.9062-65.719-3.9149-23.614-8.596-38.192-13.844-45.812l-8.82-10.965-13.43-10.969c-0.58657-2.9453 1.3264-1.1414 1.6562-4.2812 2.1812-20.765-3.1543-14.028-24.375-24.656-6.9851-3.4986-27.664-8.036-37.406-5.1875-2.8493 0.83309-8.4688 9.6875-8.4688 9.6875-14.04-16.091-46.88-38.126-46.88-38.126z" fill="url(#an)"/><path transform="matrix(.9733 0 0 .9733 73.735 282.22)" d="m239.06 156.19s-43.349 6.0675-63.688 10.344v269.41l112.31-10.625c-65.58 0.22-94.022-170.14-53.312-242.47 3.9-6.93 4.6875-26.656 4.6875-26.656z" fill="url(#bj)" filter="url(#by)"/><path d="m324.59 308.52c0.50778 3.2688-3.0344 3.4651-5.1562 3.75-2.7361 3.0314-5.1693 7.8193-10.094 6.9688-5.4504-0.34916-11.267 0.58934-14.781 5.0312-10.124 8.6982-16.668 20.902-19.938 33.781-3.5735 9.6047-12.942 16.172-23.219 16.156-17.574 2.2895-35.099 5.4078-52.469 8.4375-23.879 1.99-49.517-0.35789-71.125 11.594-4.0156 2.5542-9.989 1.4353-13.188 5.125-1.7493 4.7135-1.1611 10.09-3.625 14.656-6.7938 14.653-13.513 29.862-12.219 46.438 2.441 44.402-0.19907 88.911 1.625 133.34 0.6828 22.196-0.31681 44.601 2.7812 66.625 2.3861 11.565-2.6378 23.612 6.125 31.188 14.469 17.401 38.829 38.659 62.219 39.719 19.016 1.7993 45.327 0.65195 64.031-2.25 0.56754 4.8647 1.8 0.80219-1.5938 4.4062-20.887 3.3328-42.565 5.9539-63.875 3.9375-24.935-1.1297-46.638-17.387-62.062-35.938-9.3418-8.0762-16.769-18.796-19.312-31.125-3.3027-23.479-2.2408-47.368-2.9688-71.031-1.9446-47.368 0.88348-94.821-1.7188-142.16-1.3801-17.671 5.7573-33.879 13-49.5 2.6267-4.8683 2.0101-10.6 3.875-15.625 3.4098-3.9334 9.7816-2.7458 14.062-5.4688 23.035-12.741 50.356-10.222 75.812-12.344 18.517-3.2299 37.202-6.5592 55.938-9 10.955 0.0164 20.94-6.9794 24.75-17.219 3.4855-13.73 10.488-26.758 21.281-36.031 3.7464-4.7354 9.9396-5.7472 15.75-5.375 5.2498 0.90678 7.8332-4.1746 14.711-7.0781-2.2428 1.5476 1.5545 6.3529 1.3828 8.9844z" filter="url(#ck)" opacity=".27"/><path transform="translate(67.554,268.14)" d="m427.56 133.56-141.88 11.344c-13.741 1.8917-15.763 11.156-16.531 13.719l-13.719 73.781-5.6562 21.281 180.44-45.438c10.34-26.692-23.596-61.536-2.6562-74.688z" color="#000000" fill="url(#br)" filter="url(#co)"/><path d="m449.38 436.69c-47.114 0.13477-95.862 29.139-122.84 77.969-30.871 55.868-24.501 121.56 12.95 158.83 109.82 103.78 96.058 82.473 134.3 105.34 16.918 8.6506 41.446 11.363 60.066 10.696 46.61-1.6695 94.183-30.844 120.84-79.081 28.907-52.313 24.714-111.7-6.2168-149.88-4.4922-5.5455-8.8862-11.65-13.556-17.602-2.3349-2.9759-4.7387-5.9135-7.2582-8.7238s-5.1546-5.4932-7.952-7.9598c-35.98-31.74-77.07-57.19-120.96-77.98-15.282-7.2357-32.334-11.674-49.375-11.625z" color="#000000" fill="url(#bc)"/><path d="m563.15 521.49c-47.645 0.13578-96.902 29.395-124.19 78.594-37.155 66.995-19.437 145.68 39.594 175.75 16.602 8.4582 34.575 11.4 45.003 11.632 10.428 0.23117 11.642 0.16963 12.855 0.0901 45.438-2.9766 91.367-31.145 117.33-78.128 28.907-52.313 24.712-111.72-6.2188-149.91-27.249-23.507-7.4062-6.4688-7.4062-6.4688s-16.735-14.598-27.031-19.844c-15.68-7.9883-32.704-11.768-49.938-11.719z" color="#000000" fill="url(#al)"/><path d="m481.88 447.84c-3.8152 0.018-7.9023 0.0937-12.469 0.0937-81.265 0-150.03 68.303-150.03 149.47 0 28.195 6.3868 53.226 19.125 75.062 0.32725 0.33498 0.63661 0.66947 0.96875 1 8.4906 8.0239 16.031 15.081 23.125 21.688-18.02-24.525-27.031-53.59-27.031-87.125 0-81.166 68.766-149.47 150.03-149.47 4.5665 0 8.6536-0.0758 12.469-0.0937 10.73-0.0506 19.211 0.38008 29.375 4.375-8.9085-4.8021-17.946-9.4053-27.125-13.781-5.9055-1.0933-11.737-1.2504-18.438-1.2188zm105.5 57.875c2.8141 2.3154 5.6283 4.3398 6.1875 3.5938 0.0982-0.13095 0.15644-0.2897 0.15625-0.46875-2.1192-1.0974-4.2289-2.137-6.3438-3.125zm-164.88 229.66c2.249 2.7815 4.6261 5.4539 7.1562 8-1.8471-2.3746-4.1738-5.056-7.1562-8z" color="#000000" fill="url(#ao)" opacity=".61395"/><path d="m445.66 434.06c-76.525 0-141.28 64.318-141.28 140.75 0 26.55 6.0047 50.125 18 70.688 0.30817 0.31545 0.59348 0.62625 0.90625 0.9375 1.9338 1.8275 3.6638 3.4611 5.5 5.1875-0.0487-0.0848-0.10773-0.16503-0.15625-0.25-0.48169-0.84351-0.94615-1.7047-1.4062-2.5625-0.22338-0.4165-0.43798-0.83021-0.65625-1.25-0.19411-0.37318-0.37243-0.74926-0.5625-1.125-0.11187-0.22125-0.23328-0.43412-0.34375-0.65625-0.44843-0.90128-0.88721-1.8034-1.3125-2.7188-0.45641-0.98237-0.88283-1.9707-1.3125-2.9688-0.4283-0.99483-0.84838-1.9902-1.25-3-0.12471-0.31349-0.25286-0.62261-0.375-0.9375-0.26759-0.68997-0.52606-1.3972-0.78125-2.0938-0.32538-0.88812-0.66358-1.7891-0.96875-2.6875-0.0457-0.13465-0.0797-0.27138-0.125-0.40625-0.22287-0.66411-0.44441-1.3305-0.65625-2-0.11813-0.37336-0.22906-0.75001-0.34375-1.125-8e-3 -0.0218-0.0235-0.0407-0.0312-0.0625-5.4163-15.14-8.125-31.631-8.125-49.469 0-70.44 55.007-130.6 123.53-139.59 0.90067-0.16611 1.8168-0.32284 2.7188-0.46875 0.89594-0.14494 1.7907-0.28136 2.6875-0.40625 1.4288-0.19896 2.8513-0.35236 4.2812-0.5 0.86628-0.0907 1.7274-0.1783 2.5938-0.25 0.11432-9e-3 0.22943-0.0223 0.34375-0.0312 0.96551-0.0771 1.9412-0.13437 2.9062-0.1875 0.19727-0.0106 0.39651-0.0216 0.59375-0.0312 0.55222-0.027 1.1043-0.0433 1.6562-0.0625 1.2279-0.0435 2.4617-0.0902 3.6875-0.0937 2.8192-8e-3 5.6258 0.11387 8.4375 0.34375-5.9594-1.4782-13.238-2.9719-18.156-2.9688z" color="#000000" fill="#1a1a1a" filter="url(#cl)"/><g><path transform="translate(67.554 274.32)" d="m348.06 18.5-111.94 9.6875c8.3362 5.3048 22.117 11.719 45.062 22.875 22.47 10.924 70.42 39.472 82.875 27.375 6.8859-6.688 8.1875-14.246 8.1875-22.75 0-11.751-18.875-34.5-18.875-34.5-1.7583-0.97737-3.5191-1.8832-5.3125-2.6875z" color="#000000" fill="url(#r)" filter="url(#cf)"/><path d="m308.85 296.9c7.4725 5.0575 20.813 16.829 42.521 27.383 19.926 9.6878 66.424 38.259 77.469 27.531 6.1064-5.9309 6.9351-16.349 5.6562-23.781-22.747-73.122-96.124-29.873-125.65-31.133z" color="#000000" fill="url(#ad)" opacity=".92241"/><path transform="translate(67.554 274.32)" d="m312.09 2.3438-49.844 4.3125 13.531 13.312 57.75-5-21.438-12.625z" color="#000000" fill="url(#bh)"/><path transform="translate(67.554 274.32)" d="m265.25 6.2188-13.5 1.2188c-2.3554 2.3277-2.4718 6.3847-1.3125 11.25l22.125 15.25 4.375-3 0.25-6.25 10.125 0.25 0.125-5.625-2.6562-1.8125-19.531-11.281z" fill="url(#aq)"/><path transform="translate(67.554 274.32)" d="m319.28 1.3438-11.312 1.0312 31 17.812 2.3438 0.03125 0.0625 1.3438 4.875 2.8125-0.65625-8.75c-0.13497-0.0624-0.27096-0.12577-0.40625-0.1875-5.4918-4.6446-12.532-8.7716-17.438-11.406-2.6904-1.9812-4.4932-2.6147-7.0312-2.6875-0.4691-0.00755-0.9606-0.00615-1.4375 0z" fill="url(#bi)"/><path d="m414.14 294.17 0.81759 9.3252-5.1372-2.9688-0.45342-6.25-10.452 0.25-0.22671-4.375 0.0651-0.0312 9.8636-0.16116c2.7436 0.52038 5.5223-1.2532 5.5223 4.211z" fill="#e6e6e6"/><path d="m340.26 298.86-0.13696 9.2939 0.0937 0.0625 4.375-3 0.25-6.25 10.125-0.42546 0.125-4.9495-0.0625 0.2188-9.4683-0.16116c-2.6336 0.52038-5.5637 0.34606-5.3009 5.211z" fill="#e6e6e6"/><path transform="translate(67.554 274.32)" d="m310.19 121.31c-1.547 3.765-5.3888 11.118-4.6562 15.812l123.31-10.375c6.6791-5.8329-3.7845-16.848-6.375-21.219-33.797-14.167-102.78-5.3015-112.28 15.781z" color="#000000" fill="url(#bl)" filter="url(#cn)"/></g><path d="m481.43 421.59c0 2.9391-2.3826 5.3218-5.3218 5.3218-2.9391 0-5.3218-2.3826-5.3218-5.3218 0-2.9391 2.3826-5.3218 5.3218-5.3218 2.9391 0 5.3218 2.3826 5.3218 5.3218z" color="#000000" fill="url(#h)" stroke="#000" stroke-linecap="round" stroke-linejoin="round" stroke-width="2"/><path d="m352.94 436.78c0 2.6507-2.1488 4.7995-4.7995 4.7995s-4.7995-2.1488-4.7995-4.7995 2.1488-4.7995 4.7995-4.7995 4.7995 2.1488 4.7995 4.7995z" color="#000000" fill="url(#i)" stroke="#000" stroke-linecap="round" stroke-linejoin="round" stroke-width="2"/><path transform="matrix(1.0637 0 0 1.0483 56.182 262.62)" d="m176.78 208.31c-5.8037 1.4355-14.467 5.1985-30.031 6.0625-18.313 3.1184-42.864-10.421-38.774 14.364 11.131 9.4871 51.608 4.2554 68.805-2.1763z" color="#000000" fill="url(#w)" filter="url(#ca)"/><path transform="matrix(.96851 0 0 1 70.94 274.32)" d="m109.53 216.09-0.21875 10.094c21.569 6.1049 50.669 4.8094 69.005-7.7808 0.0734-4.6416 2.8945-9.4278-1.1298-10.06-19.62 14.547-54.213 11.436-67.657 7.7475z" color="#000000" fill="url(#v)" filter="url(#cp)"/><path d="m468.84 349.64c0.41373 0.84327 0.83108 1.6837 1.2188 2.5312-2e-3 0.0101 2e-3 0.0212 0 0.0312 0.2281 0.49903 0.46848 0.99992 0.6875 1.5 0.20098 0.45817 0.40028 0.91645 0.59375 1.375 0.15705 0.37329 0.31678 0.75144 0.46875 1.125 0.24024 0.58853 0.45988 1.1926 0.6875 1.7812 0.7308 1.8993 1.4018 3.7966 2 5.6875 0.01 0.0313 0.0215 0.0625 0.0312 0.0937 0.4911 0.19482 0.93977 0.39493 1.5 0.59375 4.8267 1.4998 10.459 2.9571 16.625 4.25 20.563 4.3118 24.238 5.638 34.875 0.9375 3.239-1.4313 6.1778-4.03 6.9384-8.0446 0 0 0.12495-2.8682-3.6039-2.3351-4.8439 0.66374-12.104-0.079-17.897-0.0578-20.406-1.2721-34.402-4.8862-43.281-9.125 0.0935 0.16174-0.30848-0.0381-0.84375-0.34375z" color="#000000" fill="url(#p)" filter="url(#bw)" opacity=".55603"/><g><path d="m467.59 342.14c0.41373 0.84327 0.83108 1.6837 1.2188 2.5312-2e-3 0.0101 2e-3 0.0212 0 0.0312 0.2281 0.49903 0.46848 0.99992 0.6875 1.5 0.20098 0.45817 0.40028 0.91645 0.59375 1.375 0.15705 0.37329 0.31678 0.75144 0.46875 1.125 0.24024 0.58853 0.45988 1.1926 0.6875 1.7812 0.7308 1.8993 1.4018 3.7966 2 5.6875 0.01 0.0313 0.0214 0.0624 0.0312 0.0937 0.4911 0.19482 0.93977 0.39493 1.5 0.59375 4.8267 1.4998 10.459 2.9571 16.625 4.25 20.563 4.3118 39.093 5.1138 41.375 1.8125 0.27885-0.40336 1.4664-0.63774 2.1466-3.8963 0.68029-3.2585 0.85336-9.5412 0.85336-9.5412s-0.73975-0.64192-0.78125-1.5938c-0.0246-0.0293-0.0371-0.0632-0.0625-0.0937 0.22536 5.8785-13.548 3.7772-23.219 3.8125-20.406-1.2721-34.402-4.8862-43.281-9.125 0.0935 0.16174-0.30848-0.0381-0.84375-0.34375z" color="#000000" fill="url(#as)"/><path d="m459.59 319.14c-1.222 0.0335-2.1481 2.7821-2.7812 5.6875 2.1763 2.7822 4.2845 5.8148 6.2812 9.0938 0.97512 1.6013 1.9042 3.2097 2.7812 4.8438 0.014 0.0182 0.0173 0.0444 0.0312 0.0625 0.97537 1.2723 1.8795 2.5285 2.5312 3.6562 8.8782 4.2421 22.853 7.8515 43.281 9.125 10.109-0.0369 24.729 2.2673 23.125-4.6562 0.70254-6.6879 0.80425-10.051 0.0625-13.406-0.21937 0.10616-0.77699-1.0588-1.0312-0.96875 0.75954 0.82094 0.97353 1.579 0.53125 2.2188-2.2823 3.3014-20.812 2.4994-41.375-1.8125s-33.094-13.781-33.094-13.781c-0.11694-0.0447-0.23189-0.0656-0.34375-0.0625z" color="#000000" fill="url(#at)"/><path d="m534.39 334.81c-2.2823 3.3014-20.802 2.4822-41.365-1.8297s-35.382-10.484-33.1-13.785c2.2823-3.3014 20.802-2.4822 41.365 1.8297 20.563 4.3118 35.382 10.484 33.1 13.785z" color="#000000" fill="url(#bg)" stroke="url(#j)" stroke-width=".91207"/></g><path d="m467.03 340.57c0.29433 0.57238 0.59272 1.1438 0.875 1.7188 6.0848 2.8498 17.31 6.2209 28.722 8.2295 20.54 3.6149 36.762 3.1646 38.688-1 0.22749-0.49202-0.2095-0.39366-0.4375-0.9375-2.3931 3.9851-17.938 3.7147-38.156 0.15625-10.778-1.897-22.628-5.2118-29.691-8.167z" color="#000000" fill="#666" stroke="url(#k)" stroke-linecap="round" stroke-linejoin="round" stroke-width=".5"/><path transform="translate(67.554 274.32)" d="m33.781 130.12c-0.056 0.1107-0.11509 0.23549-0.125 0.40625-22.085 47.646-13.875 86.156-13.875 86.156l1.7188 167.47s15.598 35.819 19.812 40.469c15.763 17.386 31.035 35.144 64.688 39.281v-258.62c-3.7367-38.083-44.007-44.797-66.094-69.156-1.4195-1.5656-3.6472-3.2852-6.125-6z" color="#000000" fill="url(#bs)" filter="url(#bx)"/><path transform="translate(67.554 274.32)" d="m186.06 88.594c-0.18762 0.0068-0.37834 0.0031-0.5625 0.03125l-121.44 19.281c-1.4945 0.20708-2.7463 1.148-3.0312 2.2812-0.28494 1.1331 0.42993 2.3893 1.7188 3l23.051 15.274c0.79972 0.3844 1.7883 0.50674 2.7188 0.375l127.29-20.399c1.4945-0.20708 2.7463-1.148 3.0312-2.2812 0.28494-1.1331-0.42993-2.3893-1.7188-3l-28.906-14.125c-0.64036-0.31036-1.397-0.45643-2.1562-0.4375z" color="#000000" fill="url(#bk)"/><g transform="matrix(1.6118 .10188 -.0497 .78628 -615.29 54.338)" stroke="#333" stroke-linecap="round" stroke-linejoin="round"><path transform="matrix(1.0494,0,0,1.0494,-25.732,-19.332)" d="m533.63 409.35c0 5.6982-4.6193 10.318-10.318 10.318-5.6982 0-10.318-4.6193-10.318-10.318 0-5.6982 4.6193-10.318 10.318-10.318 5.6982 0 10.318 4.6193 10.318 10.318z" color="#000000" fill="url(#o)" opacity=".31034" stroke-width="2.5343"/><path d="m523.59 396.17c-7.2247 0-13.081 5.8568-13.081 13.081 0 7.2247 5.8568 13.081 13.081 13.081 7.2247 0 13.081-5.8568 13.081-13.081 0-7.2247-5.8568-13.081-13.081-13.081z" color="#000000" fill="url(#n)" filter="url(#cb)" opacity=".31034" stroke-width="2.6596"/><path d="m510.53 409.22c-2e-5 0.0105 0 0.0208 0 0.0312 0 7.2247 5.8691 13.094 13.094 13.094 7.067 0 12.783-5.6184 13.031-12.625-2.9757 0.13519-6.0271 0.25-9.1562 0.25-5.9551 0-11.646-0.2798-16.969-0.75z" color="#000000" fill="url(#m)" filter="url(#cc)" opacity=".31034" stroke-width="2.6596"/></g><path d="m249.18 365.97c-0.16954 6e-3 -0.33844 0.0225-0.50485 0.048l-109.73 17.409c-1.3504 0.18711-2.4937 1.0482-2.7512 2.0721-0.25748 1.0239 0.38751 2.1443 1.5521 2.6961l18.213 12.84c0.72265 0.34736 1.6204 0.47846 2.4612 0.35942l117.64-17.485c1.3504-0.18712 2.4937-1.0482 2.7512-2.0721 0.25748-1.0239-0.38751-2.1443-1.5521-2.6961l-26.119-12.764c-0.57864-0.28044-1.2702-0.42444-1.9563-0.40733z" color="#000000" fill="#1a1a1a"/><path d="m205.09 413.51c-17.12-0.23324-30.876 5.9572-31.416 14.506-0.19814 3.1346 1.4194 6.1582 4.371 8.8512 0.0142 0.013 0.0404 0.0143 0.0546 0.0273 1.0815 0.98114 2.3256 1.9117 3.7426 2.7865 1.036 0.6396 2.138 1.2592 3.3329 1.8303 0.0259 0.0124 0.056 0.0149 0.0819 0.0273 0.38295 0.18206 0.77673 0.37201 1.1747 0.54638 0.0263 0.0116 0.0555 0.0157 0.0819 0.0273 0.39957 0.17415 0.8153 0.35296 1.2293 0.51905 0.0192 8e-3 0.0353 0.0196 0.0546 0.0273 0.86446 0.34549 1.7538 0.67522 2.6772 0.98346 0.0197 7e-3 0.035 0.0207 0.0546 0.0273 0.9256 0.30781 1.8891 0.57939 2.8684 0.84687 0.0197 5e-3 0.0349 0.0219 0.0546 0.0273 0.9812 0.2669 1.9753 0.51411 3.005 0.7376 0.0284 6e-3 0.0535 0.0211 0.0819 0.0273 1.0234 0.22066 2.0755 0.39877 3.1416 0.57369 2.2165 0.36701 4.5173 0.64262 6.8843 0.79224 7.001 0.44253 13.523-0.19942 19.014-1.6391 0.39509-0.1031 0.79075-0.21651 1.1747-0.32783 0.0634-0.0185 0.12817-0.0359 0.19123-0.0546 0.31312-0.0923 0.62352-0.17548 0.92882-0.27319 0.12972-0.0418 0.2542-0.0939 0.38246-0.13659 0.4241-0.14124 0.84895-0.28549 1.2567-0.4371 0.27899-0.10318 0.54845-0.19262 0.81955-0.3005 0.13011-0.052 0.25422-0.11086 0.38246-0.16391 0.26072-0.1074 0.51203-0.21608 0.76492-0.32782 0.13309-0.059 0.25158-0.13102 0.38246-0.19123 0.38149-0.17552 0.75794-0.33361 1.1201-0.51906 0.2137-0.10875 0.42153-0.21572 0.62832-0.32782 0.14154-0.0772 0.27156-0.16716 0.40978-0.24586 0.19628-0.11106 0.38417-0.21372 0.57369-0.32783 0.13928-0.0843 0.27423-0.15995 0.40978-0.24586 0.0451-0.0284 0.0919-0.0533 0.13659-0.0819 0.25809-0.16617 0.49369-0.34702 0.7376-0.51906 0.0165-0.0117 0.0382-0.0156 0.0546-0.0273 0.15388-0.10833 0.28899-0.21722 0.43709-0.32782 0.13683-0.1029 0.278-0.19568 0.40978-0.30051 0.13803-0.10904 0.27735-0.21673 0.40978-0.32782 0.13593-0.11475 0.25255-0.23824 0.38246-0.35514 0.206-0.18537 0.41047-0.35575 0.601-0.54637 0.0463-0.0463 0.0912-0.0899 0.1366-0.13659 0.0965-0.0981 0.18087-0.20111 0.27318-0.30051 0.21476-0.2312 0.40938-0.47203 0.60101-0.71028 0.19692-0.24482 0.37458-0.48563 0.54637-0.7376 0.16705-0.24502 0.32182-0.48611 0.46441-0.7376 0.14022-0.2473 0.26655-0.51164 0.38246-0.76492 0.12088-0.26412 0.2341-0.52189 0.32782-0.79223 0.18246-0.5263 0.30701-1.0636 0.38246-1.6118 0.0275-0.19972 0.0692-0.39859 0.0819-0.60101 0.57639-9.1188-14.117-17.477-32.81-18.659-1.1683-0.0739-2.3281-0.0937-3.4694-0.10927z" color="#000000" fill="url(#l)" filter="url(#ch)"/><path transform="translate(67.554,268.14)" d="m138.31 152.5c-11.786-0.13661-21.253 2.874-21.405 6.1482-0.15188 3.2741-0.20268 4.1171-0.22012 4.3518-0.39679 5.3411 9.6946 10.245 22.562 10.938 12.868 0.69202 23.634-3.0652 24.031-8.4062 0.0333-0.44845-0.19158-1.611 0.0142-4.8296s-9.7401-7.4159-22.608-8.1079c-0.80425-0.0433-1.5893-0.0846-2.375-0.0937z" color="#000000" fill="url(#am)"/><g><path d="m545.38 412.9c0 7.5027-6.0258 13.585-13.459 13.585s-13.459-6.0822-13.459-13.585c0-7.5027 6.0258-13.585 13.459-13.585s13.459 6.0822 13.459 13.585z" color="#000000" fill="url(#x)"/><path d="m542.65 412.9c0-5.9799-4.8027-10.828-10.727-10.828-5.9245 0-10.727 4.8477-10.727 10.828 0 5.9799 4.8027 10.828 10.727 10.828 5.9244 0 10.727-4.8477 10.727-10.828z" color="#000000" fill="url(#y)"/><path d="m230.83 429.16c-0.3968 5.341-11.15 9.1098-24.018 8.4178-12.868-0.69204-22.978-5.5828-22.581-10.924 0.3968-5.341 11.15-9.1098 24.018-8.4178 12.868 0.69203 22.978 5.5828 22.581 10.924z" color="#000000" fill="url(#bo)"/></g><path d="m505.62 463c-3.8152 0.018-7.9023 0.0937-12.469 0.0937-81.265 0-150.03 68.303-150.03 149.47 0 38.044 11.59 70.348 34.781 96.781 0.0389 0.0444 0.086 0.0807 0.125 0.125 22.22 20.375 36.755 32.864 47.188 40.938 0.14649 0.10405 0.29088 0.20866 0.4375 0.3125 7.576 5.3649 15.281 10.409 21.5 14.094 3.7043 1.931 7.3569 3.646 11.562 5.75 0.74338 0.16223 1.2102 0.11105 1.3125-0.21875-0.032-0.0198-0.0618-0.0427-0.0937-0.0625-0.99748-0.61793-1.9893-1.2366-2.9688-1.875-0.54171-0.35305-1.0888-0.70327-1.625-1.0625-1.004-0.67291-1.9845-1.3681-2.9688-2.0625-1.2346-0.87107-2.4534-1.7518-3.6562-2.6562-1.2118-0.91113-2.4148-1.8368-3.5938-2.7812-1.1846-0.94898-2.3492-1.9242-3.5-2.9062-1.0224-0.87253-2.036-1.758-3.0312-2.6562-0.25235-0.22763-0.49941-0.45824-0.75-0.6875-0.89203-0.81646-1.7868-1.6318-2.6562-2.4688-0.12765-0.12284-0.24784-0.25172-0.375-0.375-1.0191-0.98839-2.0127-1.9837-3-3-1.0025-1.032-1.9997-2.0647-2.9688-3.125-0.0996-0.10894-0.18196-0.23452-0.28125-0.34375-0.94305-1.0383-1.8706-2.0915-2.7812-3.1562-0.96604-1.1296-1.9148-2.2786-2.8438-3.4375-0.90836-1.1333-1.8153-2.2768-2.6875-3.4375-0.23835-0.31701-0.45186-0.64972-0.6875-0.96875-0.41621-0.56385-0.84234-1.1174-1.25-1.6875-0.65872-0.92071-1.3013-1.8444-1.9375-2.7812-0.26166-0.38558-0.52344-0.76796-0.78125-1.1562-0.43361-0.65268-0.85861-1.3085-1.2812-1.9688-0.50462-0.78881-1.0112-1.5755-1.5-2.375-0.15504-0.25345-0.28404-0.52673-0.4375-0.78125-0.5753-0.95479-1.1661-1.9053-1.7188-2.875-0.26994-0.4732-0.51675-0.96079-0.78125-1.4375-0.53884-0.97195-1.0777-1.9512-1.5938-2.9375-0.61073-1.1674-1.2029-2.3441-1.7812-3.5312-0.45921-0.94204-0.90516-1.8895-1.3438-2.8438-0.15757-0.34302-0.31386-0.68667-0.46875-1.0312-0.34964-0.7775-0.69536-1.5583-1.0312-2.3438-0.28054-0.6563-0.57287-1.307-0.84375-1.9688-0.27404-0.6692-0.51718-1.3565-0.78125-2.0312-0.35834-0.91615-0.72268-1.8238-1.0625-2.75-0.51139-1.3938-0.9998-2.8026-1.4688-4.2188-0.10958-0.33081-0.20525-0.66799-0.3125-1-0.31593-0.97846-0.64198-1.9487-0.9375-2.9375-0.203-0.67888-0.3692-1.3788-0.5625-2.0625-0.27264-0.96474-0.55935-1.9321-0.8125-2.9062-0.3884-1.4946-0.75174-2.9838-1.0938-4.5-0.30442-1.3484-0.60776-2.6974-0.875-4.0625-0.0242-0.12373-0.0386-0.25114-0.0625-0.375-0.0963-0.49885-0.18996-0.99896-0.28125-1.5-0.18886-1.0368-0.36393-2.079-0.53125-3.125-0.0529-0.33093-0.1055-0.66815-0.15625-1-0.19498-1.2748-0.3685-2.5557-0.53125-3.8438-0.26631-2.1067-0.47745-4.2337-0.65625-6.375-0.0882-1.0581-0.18345-2.1212-0.25-3.1875-0.0233-0.37236-0.0419-0.75165-0.0625-1.125-0.15803-2.8616-0.25-5.7384-0.25-8.6562 0-1.2682 0.0292-2.5195 0.0625-3.7812 0.0667-2.5235 0.1774-5.0363 0.375-7.5312 0.0988-1.2475 0.21291-2.5103 0.34375-3.75 0.26175-2.4794 0.61253-4.9292 1-7.375 1.5495-9.7834 4.0767-19.296 7.5-28.406 1.284-3.4165 2.6924-6.7615 4.2188-10.062 23.908-51.715 76.852-88.562 136.53-88.562 1.6759 0 3.3148 0.0363 4.9375 0.0937 1.5655 0.0554 3.105 0.14215 4.625 0.25 0.0513 4e-3 0.10504-4e-3 0.15625 0 1.1782 0.0851 2.347 0.19644 3.5 0.3125 0.94636 0.0951 1.882 0.19683 2.8125 0.3125 0.75316 0.0938 1.5066 0.17416 2.25 0.28125 0.91671 0.13177 1.8159 0.317 2.7188 0.46875 0.15483 0.0261 0.31431 0.0358 0.46875 0.0625 0.0725 0.0125 0.14638 0.0186 0.21875 0.0312 0.9436 0.16445 1.8828 0.34517 2.8125 0.53125 0.66083 0.13258 1.3144 0.29411 1.9688 0.4375 0.97486 0.21313 1.9447 0.41944 2.9062 0.65625 1.226 0.30193 2.4492 0.59773 3.6562 0.9375 0.0632 0.0178 0.12439 0.0446 0.1875 0.0625 0.19925 0.0564 0.39497 0.13003 0.59375 0.1875 1.0119 0.29257 2.0305 0.58751 3.0312 0.90625 0.0622 0.0198 0.12535 0.0426 0.1875 0.0625 1.0127 0.32439 2.0281 0.64925 3.0312 1 0.17828 0.0625 0.35324 0.12423 0.53125 0.1875 1.175 0.41687 2.335 0.86014 3.5 1.3125 0.12555 0.0488 0.24955 0.10705 0.375 0.15625 1.2135 0.47551 2.4188 0.95557 3.625 1.4688 0.0126 5e-3 0.0186 0.0259 0.0312 0.0312 2.4431 1.0402 4.8792 2.1541 7.3125 3.3438 1.2144 0.59372 2.4392 1.2141 3.6562 1.8438 1.2144 0.62831 2.4359 1.2743 3.6563 1.9375 1.7709 0.96244 3.5516 1.9349 5.3437 2.9688 0.1063 0.0613 0.20659 0.12579 0.3125 0.1875-7.8979-6.5863-16.016-12.904-24.344-18.938-9.5359-6.341-19.07-12.5-24.969-16.594-2.1055-1.462-3.9476-2.7266-5.7812-3.9688-5.7843-3.5685-11.663-7.0169-17.594-10.375-0.26984-0.12094-0.54247-0.25862-0.8125-0.375-11.09-4.75-19.98-5.24-31.43-5.19zm-59.312 287.59c0.25145 0.31046 0.49501 0.62986 0.75 0.9375 0.29648 0.35824 0.60528 0.70805 0.90625 1.0625 0.50968 0.59851 1.008 1.194 1.5312 1.7812 0.24049 0.27094 0.47537 0.54398 0.71875 0.8125 0.38549 0.42377 0.79485 0.83234 1.1875 1.25 0.19624 0.2093 0.39562 0.41727 0.59375 0.625 0.427 0.44677 0.84596 0.90423 1.2812 1.3438-1.8167-2.3242-4.073-4.9486-6.9688-7.8125z" color="#000000" fill="url(#au)"/><path d="m479.88 445.84c-3.8152 0.018-7.9023 0.0937-12.469 0.0937-81.265 0-150.03 68.303-150.03 149.47 0 28.195 6.3868 53.226 19.125 75.062 0.32725 0.33498 0.63661 0.66947 0.96875 1 8.4906 8.0239 16.031 15.081 23.125 21.688-18.02-24.525-27.031-53.59-27.031-87.125 0-81.166 68.766-149.47 150.03-149.47 4.5665 0 8.6536-0.0758 12.469-0.0937 10.73-0.0506 19.211 0.38008 29.375 4.375-8.9085-4.8021-17.946-9.4053-27.125-13.781-5.9055-1.0933-11.737-1.2504-18.438-1.2188zm105.5 57.875c2.8141 2.3154 5.6283 4.3398 6.1875 3.5938 0.0982-0.13095 0.15644-0.2897 0.15625-0.46875-2.1192-1.0974-4.2289-2.137-6.3438-3.125zm-164.88 229.66c2.249 2.7815 4.6261 5.4539 7.1562 8-1.8471-2.3746-4.1738-5.056-7.1562-8z" color="#000000" fill="url(#av)" opacity=".67907"/><path d="m479.87 445.84c-3.8152 0.018-7.9023 0.0937-12.469 0.0937-81.265 0-150.03 68.303-150.03 149.47 0 28.195 6.3868 53.226 19.125 75.062 0.32725 0.33498 0.63661 0.66947 0.96875 1 8.4906 8.0239 16.031 15.081 23.125 21.688-18.02-24.525-27.031-53.59-27.031-87.125 0-81.166 68.766-149.47 150.03-149.47 4.5665 0 8.6536-0.0758 12.469-0.0937 10.73-0.0506 19.211 0.38008 29.375 4.375-8.9085-4.8021-17.946-9.4053-27.125-13.781-5.9055-1.0933-11.737-1.2504-18.438-1.2188zm105.5 57.875c2.8141 2.3154 5.6283 4.3398 6.1875 3.5938 0.098-0.13095 0.1564-0.2897 0.1563-0.46875-2.1193-1.0974-4.229-2.137-6.3438-3.125zm-164.87 229.66c2.249 2.7815 4.6261 5.4539 7.1562 8-1.8471-2.3746-4.1738-5.056-7.1562-8z" color="#000000" fill="url(#aw)" opacity=".64224"/><path d="m117.04 403.69c0 5.2467-4.4772 9.5-10 9.5s-10-4.2533-10-9.5 4.4772-9.5 10-9.5 10 4.2533 10 9.5z" color="#000000" fill="url(#bb)" filter="url(#bu)" opacity=".36207"/><path transform="matrix(-.6125 0 0 .6125 156.14 303.11)" d="m92 163c0 5.2467-4.4772 9.5-10 9.5s-10-4.2533-10-9.5 4.4772-9.5 10-9.5 10 4.2533 10 9.5z" color="#000000" fill="url(#az)" filter="url(#bv)" opacity=".86207"/><path d="m90.521 660.26c1.712 0 3.0998-2.9346 3.0998-6.5546s-1.3878-6.5546-3.0998-6.5546-3.0998 2.9346-3.0998 6.5546 1.3878 6.5546 3.0998 6.5546z" color="#000000" fill="url(#ay)"/><g transform="translate(-976.26,499.3)" fill="url(#d)" stroke="#000" stroke-linecap="round" stroke-linejoin="round" stroke-width=".7"><g transform="translate(608.11,410.83)" color="#000000" fill="url(#d)" opacity=".32093" stroke="#000" stroke-linecap="round" stroke-linejoin="round" stroke-width=".7"><path d="m752.16-397.72c-1.2375 1.3902-2.4283 2.8068-3.625 4.25l54.875 38.531 0.46875-2.5938 3.8438-1.1562-55.562-39.031z" color="#000000" style="block-progression:tb;text-indent:0;text-transform:none"/><path d="m727.51-231.72c2.5548 4.4777 5.4178 8.7614 8.5625 12.812l49.906 35.062c0.72667 0.23541 1.4571 0.4372 2.1875 0.65625v-0.65625l-2.5625-1.4062c-1.0103-1.6186-1.9928-3.2747-2.9375-4.9375l0.15625-2.6875-55.312-38.844z" color="#000000" style="block-progression:tb;text-indent:0;text-transform:none"/><path d="m719.19-249.82c1.1821 3.2757 2.4856 6.4961 3.9375 9.625l54.938 38.594 0.1875-1.1875-2.8125-2.125c-0.6095-1.4479-1.1872-2.9008-1.75-4.375l0.4375-1.9375-54.938-38.594z" color="#000000" style="block-progression:tb;text-indent:0;text-transform:none"/><path d="m734.41-373.57c-0.95771 1.5903-1.9016 3.2087-2.8125 4.8438l53.031 37.25 5.0938-2.7188v-0.5l-55.312-38.875z" color="#000000" style="block-progression:tb;text-indent:0;text-transform:none"/><path d="m739.82-381.97c-0.0425 0.0617-0.0826 0.12576-0.125 0.1875-0.9671 1.4082-1.9147 2.833-2.8438 4.2812-0.0407 0.0635-0.0843 0.12391-0.125 0.1875l53.188 37.344v-0.34375l5.5938-2.5625-55.688-39.094z" color="#000000" style="block-progression:tb;text-indent:0;text-transform:none"/><path d="m714.76-265.13c0.62012 2.8038 1.3546 5.5849 2.1562 8.3125l53.406 37.531 1.0625-3.5-2.8125-2.7812c-0.1762-0.70603-0.3358-1.4169-0.5-2.125l-53.312-37.438z" color="#000000" style="block-progression:tb;text-indent:0;text-transform:none"/><path d="m840.29-445.82c-1.282 0.15679-2.5632 0.30177-3.8438 0.5-0.0423 6e-3 -0.0827 0.0248-0.125 0.0312-1.0928 0.17033-2.1902 0.36224-3.2812 0.5625-0.2291 0.0418-0.45855 0.0817-0.6875 0.125l57.281 40.25 3-2.6562 4.9688 1.4375-57.312-40.25z" color="#000000" style="block-progression:tb;text-indent:0;text-transform:none"/><path d="m712.47-278.97c0.11106 1.0019 0.24731 2.0065 0.375 3 0.0345 0.26877 0.0577 0.54426 0.0937 0.8125 0.0467 0.33332 0.10704 0.66748 0.15625 1 0.13158 0.92143 0.25066 1.8334 0.40625 2.75 2.6e-4 2e-3 0.031-2e-3 0.0312 0l55.344 38.875 0.21875-0.5625c-2.2346-2.379-4.022-5.1072-2.6562-7.9688l-53.969-37.906z" color="#000000" style="block-progression:tb;text-indent:0;text-transform:none"/><path d="m814.16-439.75c-2.1267 0.73525-4.2405 1.5593-6.3438 2.4062l58.656 41.188 3.625-4.2812-55.938-39.312z" color="#000000" style="block-progression:tb;text-indent:0;text-transform:none"/><path d="m854.19-446.72c-2.3623 7e-3 -4.7263 0.0979-7.0938 0.25l55.188 38.781 1.8438-1.4375 6.25 2.25 1.4062-0.96875-55.312-38.844c-0.75683-0.013-1.5235-0.0334-2.2812-0.0312z" color="#000000" style="block-progression:tb;text-indent:0;text-transform:none"/><path d="m713.19-315.13c-0.30924 2.1016-0.56482 4.1878-0.78125 6.2812l52.938 37.188 2.5625-3.25-1.1875-2.625-53.531-37.594z" color="#000000" style="block-progression:tb;text-indent:0;text-transform:none"/><path d="m783.44-424.66c-1.664 1.079-3.3062 2.1909-4.9375 3.3438l57.812 40.625 2.625-4.9688-55.5-39z" color="#000000" style="block-progression:tb;text-indent:0;text-transform:none"/><path d="m745.76-390.04c-1.1495 1.4664-2.2687 2.952-3.375 4.4688l54.031 37.969 0.15625-1.5625 4.8125-1.7812-55.625-39.094z" color="#000000" style="block-progression:tb;text-indent:0;text-transform:none"/><path d="m715.19-325.94c-0.44401 1.9923-0.85882 3.9785-1.2188 5.9688l53.188 37.375 2.4688-2.7188-1.1875-3.2188-53.25-37.406z" color="#000000" style="block-progression:tb;text-indent:0;text-transform:none"/><path d="m803.07-435.32c-1.9466 0.86983-3.8933 1.754-5.8125 2.7188l58.625 41.188 3.2812-4.5-56.094-39.406z" color="#000000" style="block-progression:tb;text-indent:0;text-transform:none"/><path d="m711.66-291.79c0.0393 2.3712 0.15326 4.7192 0.3125 7.0625l52.844 37.125c-0.5633-2.3269 0.49614-3.6056 1.6875-5.6562z" color="#000000" style="block-progression:tb;text-indent:0;text-transform:none"/><path d="m766.63-412.04c-1.4379 1.246-2.8491 2.5364-4.25 3.8438l56.5 39.688 1.4688-4.2812 1.75-0.28125-55.469-38.969z" color="#000000" style="block-progression:tb;text-indent:0;text-transform:none"/><path d="m729.47-364.82c-0.88023 1.6846-1.7178 3.3653-2.5312 5.0625l53.156 37.344 4.125-2.5625-0.0625-1.4062-54.688-38.438z" color="#000000" style="block-progression:tb;text-indent:0;text-transform:none"/><path d="m711.97-303.79c-0.15114 2.2158-0.23345 4.4254-0.28125 6.625l52.469 36.875 2.8438-4.1875-0.5625-1.0312-54.469-38.281z" color="#000000" style="block-progression:tb;text-indent:0;text-transform:none"/><path d="m826.47-443.32c-2.3545 0.56343-4.7258 1.1747-7.0625 1.875l58.312 40.969 3.5625-3.6875 1.3438 0.28125-56.156-39.438z" color="#000000" style="block-progression:tb;text-indent:0;text-transform:none"/><path d="m759.13-405.07c-1.3362 1.321-2.6402 2.6848-3.9375 4.0625l55.719 39.125 0.9375-3.5312 2.8125-0.65625-55.531-39z" color="#000000" style="block-progression:tb;text-indent:0;text-transform:none"/><path d="m792.82-430.29c-1.7878 0.97824-3.5547 2.0333-5.3125 3.0938l58.312 40.969 2.9688-4.75-55.969-39.312z" color="#000000" style="block-progression:tb;text-indent:0;text-transform:none"/><path d="m741.6-208.04 7.2188 10.312 70.312 49.375c-0.8048-0.62374-1.6164-1.2361-2.4062-1.875-0.5934-0.4794-1.1651-0.98107-1.75-1.4688-0.3794-0.31672-0.7492-0.64851-1.125-0.96875-0.8894-0.75686-1.787-1.5047-2.6562-2.2812-0.072-0.0641-0.14725-0.12323-0.21875-0.1875-0.9004-0.80757-1.7778-1.6398-2.6562-2.4688l-0.15625-0.625-0.75-0.25c-2.1865-2.1003-4.3028-4.2402-6.3438-6.4688l-0.21875-1.4062-1.625-0.65625c-0.7495-0.85126-1.4888-1.6931-2.2188-2.5625-0.086-0.10249-0.1645-0.20977-0.25-0.3125-0.6335-0.75903-1.2588-1.5408-1.875-2.3125-17.761-11.582-35.414-24.464-53.281-35.844z" color="#000000" style="block-progression:tb;text-indent:0;text-transform:none"/><path d="m721.19-346.19c-0.67501 1.819-1.3041 3.6433-1.9062 5.4688l53.312 37.469 2.8125-2.3438-0.59375-2.9062-53.625-37.688z" color="#000000" style="block-progression:tb;text-indent:0;text-transform:none"/><path d="m774.72-418.57c-0.25997 0.19607-0.52198 0.39608-0.78125 0.59375-0.23635 0.18066-0.48089 0.35182-0.71875 0.53125-0.0231 0.0179-0.0394 0.0446-0.0625 0.0625-0.01 0.0109-0.0197 0.0223-0.0312 0.0312-0.0474 0.0368-0.10883 0.0569-0.15625 0.0937-0.16064 0.11911-0.31118 0.25157-0.46875 0.375-0.80106 0.62462-1.5851 1.2618-2.375 1.9062l57.219 40.219 2.0938-4.8438 0.65625-0.0625-55.375-38.906z" color="#000000" style="block-progression:tb;text-indent:0;text-transform:none"/><path d="m725.07-355.69c-0.34676 0.77777-0.6932 1.5623-1.0312 2.3438-0.14883 0.34404-0.29149 0.68689-0.4375 1.0312-0.15281 0.36482-0.31893 0.72853-0.46875 1.0938-0.10708 0.25928-0.20778 0.52205-0.3125 0.78125l53.281 37.438 3.3438-2.4375-0.28125-2.2188-54.094-38.031z" color="#000000" style="block-progression:tb;text-indent:0;text-transform:none"/><path d="m717.88-336.29c-0.56624 1.9057-1.1057 3.8105-1.5938 5.7188l53.312 37.438 2.5312-2.4062-0.9375-3.2812-53.312-37.469z" color="#000000" style="block-progression:tb;text-indent:0;text-transform:none"/><path d="m864.76-446.25 50.938 35.781 0.0937-0.0625 6.0625 2.6562 3.5-1.25-52.656-36.75c-4.1039-0.86632-3.7633 9e-3 -7.9375-0.375z" color="#000000" style="block-progression:tb;text-indent:0;text-transform:none"/><path d="m881.01-444.5c24.21 17.061 48.463 34.061 72.781 50.969l3.3125 0.15625 2.25-1-70.406-49.75c-4.1039-0.86632-3.7633 9e-3 -7.9375-0.375z" color="#000000" style="block-progression:tb;text-indent:0;text-transform:none"/><path transform="translate(393.15,-674.27)" d="m507.12 232.25 3 0.375-3-0.375zm-0.5 0.125 63.125 44.5-63.125-44.5z"/></g></g><path d="m567.52 535.25c-44.371 0.12692-90.259 27.451-115.67 73.438-34.602 62.62-18.105 136.18 36.87 164.29s127.61 0.11657 162.21-62.504c34.602-62.62 18.075-136.18-36.9-164.29-14.603-7.4667-30.46-10.98-46.509-10.934zm-10.844 23.013c12.538-0.0355 24.919 2.6635 36.327 8.4342 42.948 21.725 55.86 78.569 28.827 126.97-27.033 48.397-83.776 70.041-126.72 48.316-42.948-21.725-55.83-78.569-28.797-126.97 19.852-35.541 55.702-56.652 90.367-56.75z" color="#000000" fill="url(#af)"/><path d="m559.42 558.26c-0.46426 9.6e-4 -0.92097 0.0215-1.3856 0.0301 12.078 0.15575 23.972 2.8398 34.972 8.4041 42.948 21.725 55.86 78.569 28.827 126.97-27.033 48.397-83.776 70.041-126.72 48.316-27.505-13.913-42.663-42.251-42.924-73.528-0.50238 32.886 15.145 62.911 44.069 77.475 44.075 22.192 102.3 0.097 130.04-49.34 27.742-49.437 14.495-107.51-29.58-129.71-11.707-5.8948-24.424-8.6512-37.291-8.615z" color="#000000" fill="#111"/><path transform="matrix(.96391 0 0 .96391 23.753 27.657)" d="m564.12 526.59c-3.3242 0.01-6.6365 0.19976-9.9688 0.5 18.584-1.2214 37.098 2.1723 53.969 10.844 55.586 28.571 72.269 103.35 37.281 167-34.987 63.647-108.41 92.071-164 63.5-42.558-21.875-62.307-70.817-53.531-121.12-10.012 52.14 10.192 103.25 54.5 125.91 57.033 29.162 132.38 0.12093 168.28-64.844 35.898-64.965 18.751-141.28-38.281-170.44-15.149-7.7463-31.6-11.391-48.25-11.344z" color="#000000" fill="url(#aj)" filter="url(#ce)"/><path d="m621.83 693.67c-27.033 48.397-83.764 70.018-126.71 48.293-42.948-21.725-55.851-78.57-28.818-126.97 27.033-48.397 83.764-70.018 126.71-48.293 42.948 21.725 55.851 78.57 28.818 126.97z" color="#000000" fill="url(#ar)"/><path transform="matrix(.96391 0 0 .96391 23.753 27.657)" d="m532.78 556.94c-7.0614 0.0203-14.174 1.041-21.156 3.0312-21.001 9.7767-39.87 26.764-52.5 49.375-11.481 20.554-16.041 42.579-14.344 62.969 4.7268 19.571 16.656 36.251 34.812 45.562 37.111 19.033 86.11 0.0867 109.47-42.312 23.359-42.399 12.236-92.186-24.875-111.22-9.8577-5.0556-20.572-7.4373-31.406-7.4062z" color="#000000" fill="url(#bp)" filter="url(#cm)" opacity=".4181"/><path d="m581.91 670.22c-16.787 29.662-52.017 42.914-78.688 29.599s-34.683-48.155-17.896-77.817 52.017-42.914 78.688-29.599 34.683 48.155 17.896 77.817z" color="#000000" fill="url(#bm)" opacity=".75431" stroke="url(#radialGradient4377)" stroke-width="1.9278"/><path transform="matrix(.96391 0 0 .96391 23.753 27.657)" d="m548.97 552.38c-0.55008 2e-3 -1.1056 0.0188-1.6562 0.0312 11.183 0.26391 22.214 2.9154 32.406 8.1875 40.77 21.089 53.005 76.271 27.344 123.25-25.662 46.979-79.511 67.964-120.28 46.875-25.849-13.371-40.224-40.469-40.75-70.469-0.37991 31.973 14.61 61.113 42.281 75.281 42.304 21.66 98.185 0.0945 124.81-48.156 26.627-48.251 13.929-104.9-28.375-126.56-11.237-5.7533-23.431-8.4729-35.781-8.4375z" color="#000000" fill="url(#z)" filter="url(#cg)" opacity=".27586"/><path d="m555.54 657.05c-7.6219 13.467-23.617 19.484-35.727 13.439-12.109-6.0454-15.747-21.864-8.1252-35.331 7.6219-13.467 23.617-19.484 35.727-13.439 12.109 6.0454 15.747 21.864 8.1252 35.331z" color="#000000" fill="url(#ag)"/><path d="m558.64 555.87c-36.077 0.10152-73.389 21.949-94.05 58.732-28.135 50.087-14.728 108.91 29.971 131.4 44.699 22.484 103.75 0.0835 131.89-50.003 28.134-50.087 14.697-108.91-30.002-131.4-11.873-5.9722-24.759-8.7654-37.808-8.7287zm-0.3135 2.4939c12.722-0.0358 25.292 2.6881 36.868 8.5105 43.578 21.92 56.647 79.295 29.218 128.13-27.429 48.83-84.988 70.645-128.57 48.725-43.578-21.92-56.678-79.295-29.25-128.13 20.143-35.86 56.558-57.136 91.73-57.235z" color="#000000" fill="url(#bn)"/><path transform="matrix(.96391 0 0 .96391 23.753 27.657)" d="m551.7 652.96c-7.9073 13.972-24.501 20.213-37.064 13.942-12.563-6.2718-16.337-22.682-8.4294-36.654 7.9073-13.972 24.501-20.213 37.064-13.942 12.563 6.2718 16.337 22.682 8.4294 36.654z" color="#000000" fill="url(#ah)" filter="url(#ci)" opacity=".13793"/><g><path d="m567.88 532.48c-45.354 0.12973-92.247 28.075-118.22 75.081-35.369 64.008-18.504 139.18 37.689 167.91 56.193 28.733 130.41 0.1267 165.78-63.881 35.369-64.008 18.474-139.18-37.718-167.91-14.926-7.6322-31.121-11.247-47.526-11.2zm-0.62222 4.8c15.786-0.0451 31.384 3.4109 45.748 10.755 54.075 27.65 70.332 100 36.296 161.6-34.036 61.596-105.48 89.131-159.55 61.481-54.075-27.65-70.302-100-36.266-161.6 24.995-45.234 70.132-72.112 113.78-72.236z" color="#000000" fill="url(#aa)" filter="url(#cj)"/><path d="m183.3 410.78c0 3.2473-4.5723 5.8798-10.213 5.8798-5.6402 0-10.213-2.6325-10.213-5.8798s4.5723-5.8798 10.213-5.8798c5.6402 0 10.213 2.6325 10.213 5.8798z" color="#000000" fill="url(#ac)"/><path d="m180.11 410.27c0-2.512-3.5369-4.5484-7.9-4.5484-4.363 0-7.9 2.0364-7.9 4.5484s3.5369 4.5484 7.9 4.5484c4.363 0 7.9-2.0364 7.9-4.5484z" color="#000000" fill="url(#be)"/><path d="m180.11 409.62c0-2.154-3.5369-3.9002-7.9-3.9002-4.363 0-7.9 1.7462-7.9 3.9002 0 2.154 3.5369 3.9002 7.9 3.9002 4.363 0 7.9-1.7462 7.9-3.9002z" color="#000000" fill="url(#t)"/></g><path d="m172.46 406.41c-0.1546 4e-3 -0.31055 0.0146-0.4613 0.022-0.0665 2e-3 -0.13185-3e-3 -0.1977 0-0.0604 4e-3 -0.11608 0.0178-0.17573 0.022-0.25254 0.0176-0.50906 0.0386-0.74687 0.0659-0.0423 5e-3 -0.09 0.0168-0.1318 0.022-1.4633 0.24819-2.6722 0.83671-3.3609 1.6036 0.21921 0.8333 2.6132 1.4937 5.5356 1.4937 2.0446 0 3.8029-0.33442 4.7668-0.81277-0.5908-1.3622-2.696-2.3759-5.2281-2.4163z" color="#000000" fill="url(#u)"/><g><path d="m219.05 404.56c0 3.1281-4.4044 5.6639-9.8376 5.6639-5.4331 0-9.8376-2.5358-9.8376-5.6639s4.4044-5.6639 9.8376-5.6639c5.4331 0 9.8376 2.5358 9.8376 5.6639z" color="#000000" fill="url(#ab)"/><path d="m217.11 404.27c0-2.512-3.5369-4.5484-7.9-4.5484-4.363 0-7.9 2.0364-7.9 4.5484s3.5369 4.5484 7.9 4.5484c4.363 0 7.9-2.0364 7.9-4.5484z" color="#000000" fill="url(#bd)"/><path d="m217.11 403.76c0-2.2294-3.5369-4.0367-7.9-4.0367-4.363 0-7.9 1.8073-7.9 4.0367 0 2.2294 3.5369 4.0367 7.9 4.0367 4.363 0 7.9-1.8073 7.9-4.0367z" color="#000000" fill="url(#s)"/><path d="m209.21 400.27c-2.5643 0-4.7449 0.92986-5.5842 2.2384 0.83043 0.64589 3.0078 1.1074 5.5842 1.1074 2.5764 0 4.7538-0.46152 5.5842-1.1074-0.83924-1.3085-3.0198-2.2384-5.5842-2.2384z" color="#000000" fill="#b3b3b3"/></g><path d="m541.54 499.6c-80.942 0-149.42 67.783-149.42 148.33 0 53.325 26.98 97.465 69.904 122.9 21.479 12.728 44.036 20.858 70.438 17.646-18.269 0.52547-36.374-3.1713-52.976-11.63-59.03-30.08-76.75-108.75-39.59-175.75 27.286-49.199 76.548-78.449 124.19-78.585 17.233-0.0491 34.246 3.7342 49.926 11.723 10.296 5.2455 19.336 11.965 27.048 19.848-3.3619-7.3433-9.8471-11.907-15.211-17.797-5.2458-5.7608-9.3266-12.883-16.483-16.996-21.538-12.379-41.17-19.695-67.829-19.695z" color="#000000" fill="url(#ak)"/><path d="m538.41 509.47c-59.077 1.1403-114.19 41.424-134.83 96.526-19.846 50.774-8.0726 112.74 31.3 151.07 4.747 2.7747 8.8825 5.1134 3.25-0.6875-35.983-45.383-39.659-112.84-10.438-162.69 28.209-50.334 86.045-82.969 144.09-77.781 5.6266 0.49331 11.276 1.3643 16.719 2.6562-15.813-6.7484-32.889-9.6023-50.094-9.0938z" color="#000000" fill="url(#ai)" filter="url(#cd)"/><path d="m104.23 391.54c-5.5228 0-10 4.2533-10 9.5 0 3.0987 1.5523 5.8596 3.9688 7.5938-0.8492-1.3963-1.3438-3.0214-1.3438-4.75 0-5.2467 4.4772-9.5 10-9.5 2.261 0 4.3562 0.70419 6.0312 1.9062-1.7284-2.842-4.9529-4.75-8.6562-4.75z" color="#000000" fill="url(#ba)" filter="url(#bt)"/><g><path transform="translate(67.554 274.32)" d="m181.62 91.656c-0.16954 6e-3 -0.33359 0.0058-0.5 0.03125l-68.531 10.875 53 14.188 42.906-7.1562c1.3504-0.18712 2.4925-1.0386 2.75-2.0625 0.25748-1.0239-0.36666-2.167-1.5312-2.7188l-26.125-12.75c-0.57864-0.28044-1.2826-0.42336-1.9688-0.40625z" color="#000000" fill="url(#bf)"/><path transform="matrix(1 0 0 .89538 -.38598 32.004)" d="m336.05 313.79c0.6876-13.271 60.056-29.109 85.497-7.95 1.851 1.5395 4.6813 4.4388 4.2767 5.8202-23.65-2.3404-52.654 1.4842-78.637 8.317z" fill="url(#q)" filter="url(#bz)"/><path transform="translate(67.554 274.32)" d="m138.31 143.84c-34.41 0.67118-18.316 16.239 0.9375 17.5 12.334 0.66329 22.747-2.7604 23.938-7.75-1.1009-4.8391-10.635-9.0494-22.5-9.6875-0.80425-0.0433-1.5893-0.0534-2.375-0.0625z" color="#000000" fill="url(#bq)"/><path d="m189.98 423.6c7.8216-3.6502 31.404-3.7905 39.077 2.6573-4.1989-11.63-43.056-8.8405-39.077-2.6573z" color="#000000" fill="#999"/><g><path d="m473.63 316.75c-3.7843-0.16739-6.9974-0.10796-9.4356 0.22016-2.4382 0.32813-4.1306 0.84175-4.8751 1.9186-0.37217 0.53837-0.4032 1.2216-0.1258 1.8242 0.27739 0.60264 0.80997 1.1772 1.5411 1.7613 1.4624 1.1683 3.758 2.3842 6.7936 3.6484 6.0713 2.5286 15.012 5.1854 25.382 7.3598 10.369 2.1744 20.203 3.4709 27.772 3.8057 3.7843 0.1674 6.9974 0.0765 9.4356-0.25161 2.4382-0.32813 4.1306-0.84175 4.8751-1.9186 0.37217-0.53837 0.4032-1.2216 0.1258-1.8242-0.27739-0.60264-0.80997-1.1772-1.5411-1.7613-1.4624-1.1683-3.758-2.3842-6.7936-3.6484-6.0713-2.5286-15.012-5.154-25.382-7.3283-10.369-2.1744-20.203-3.4709-27.772-3.8057zm-0.0628 0.91211c7.4993 0.33171 17.32 1.6088 27.646 3.7742 10.327 2.1654 19.207 4.8039 25.193 7.2969 2.993 1.2465 5.27 2.4561 6.6049 3.5226 0.66748 0.53326 1.11 1.0254 1.2895 1.4153 0.1795 0.38996 0.1391 0.65136-0.0628 0.94356-0.40411 0.58455-1.8966 1.1935-4.246 1.5097-2.3494 0.31618-5.4972 0.38602-9.2469 0.22016-7.4993-0.33171-17.32-1.6088-27.646-3.7742-10.327-2.1654-19.207-4.8039-25.193-7.2969-2.9929-1.2465-5.27-2.4561-6.6049-3.5226-0.66748-0.53324-1.11-1.0254-1.2895-1.4153-0.1795-0.38996-0.1391-0.6199 0.0628-0.91211 0.40411-0.58455 1.8966-1.225 4.246-1.5411 2.3494-0.31618 5.4972-0.38602 9.2469-0.22017z" color="#000000" fill="#e5d5ff" opacity=".92672" style="block-progression:tb;text-indent:0;text-transform:none"/><path d="m542.88 586.28c-22.326-0.52088-45.617 12.707-58.375 35.25-17.011 30.058-8.9219 65.576 18.281 79.156s62.958 0.058 79.969-30c17.011-30.058 8.8907-65.576-18.312-79.156l-0.0625-0.03125c-6.7831-3.3742-14.081-5.0457-21.5-5.2188zm-0.0937 1.9375c7.1472 0.1586 14.185 1.7757 20.688 5l0.125 0.0312c26.139 13.049 34.032 47.234 17.469 76.5-16.563 29.266-51.267 42.268-77.406 29.219s-34.063-47.234-17.5-76.5l0.2812-0.4687c12.479-21.656 34.934-34.256 56.344-33.781z" color="#000000" fill="url(#ae)" opacity=".75431" style="block-progression:tb;text-indent:0;text-transform:none"/><path d="m476.09 415.28c-3.4796 0-6.3125 2.833-6.3125 6.3125 0 3.4796 2.833 6.3125 6.3125 6.3125 3.4796 0 6.3438-2.833 6.3438-6.3125 0-3.4796-2.8642-6.3125-6.3438-6.3125zm0 2c2.3987 0 4.3438 1.9137 4.3438 4.3125 0 2.3987-1.945 4.3125-4.3438 4.3125-2.3987 0-4.3125-1.9137-4.3125-4.3125 0-2.3987 1.9137-4.3125 4.3125-4.3125z" color="#000000" style="block-progression:tb;text-indent:0;text-transform:none"/><path d="m348.12 430.97c-3.1911 0-5.7812 2.6214-5.7812 5.8125s2.5901 5.8125 5.7812 5.8125 5.8125-2.6214 5.8125-5.8125-2.6214-5.8125-5.8125-5.8125zm0 2c2.1103 0 3.8125 1.7022 3.8125 3.8125s-1.7022 3.8125-3.8125 3.8125-3.7812-1.7022-3.7812-3.8125 1.671-3.8125 3.7812-3.8125z" color="#000000" style="block-progression:tb;text-indent:0;text-transform:none"/></g><path d="m332.7 280.96-4.1875 0.375 24.156 11.203z" fill="#ccc"/><path d="m398.65 289.59 5.056-0.0373-24.156-11.203z" fill="#ccc"/><path d="m531.93 403.02c-3.5926 0-6.772 1.7945-8.7188 4.5312 2.3601 1.5736 5.4004 2.5312 8.7188 2.5312 3.3184 0 6.3274-0.95773 8.6875-2.5312-1.9471-2.7344-5.0969-4.5312-8.6875-4.5312z" color="#000000" fill="#4d4d4d"/><path d="m204.06 489.52c-12.605 2.8884-26.445-6.3351-31.897-0.36048 38.732 9.2379 66.278-7.0648 66.278-7.0648s-18.747 4.4762-34.381 7.4253z" fill-rule="evenodd"/><path d="m79.438 494.59a0.50005 0.50005 0 0 0-0.375 0.46875c-1.26e-4 0.0112 1.26e-4 0.02 0 0.0312a0.50005 0.50005 0 0 0 0 0.0312c-0.56525 50.468 0.12896 90.228 1.2188 139.19a0.50005 0.50005 0 0 0 0.21875 0.375c5.9944 4.4061 11.392 6.6366 15.438 6.5625 2.0225-0.037 3.7277-0.67649 4.9062-1.9375 1.1785-1.261 1.7812-3.0887 1.7812-5.4375v-105.09c0-4.7797-2.4974-10.846-6.5-16.906-4.0025-6.0603-9.5162-12.108-15.656-16.75l-0.5-0.34375a0.50005 0.50005 0 0 0-0.09375-0.0937 0.50005 0.50005 0 0 0-0.4375-0.0937zm0.625 1.4688c5.9604 4.5445 11.354 10.476 15.25 16.375 3.9378 5.9622 6.3125 11.919 6.3125 16.344v105.09c0 2.1745-0.56479 3.7159-1.5312 4.75s-2.3597 1.5915-4.1875 1.625c-3.6155 0.0662-8.8127-1.9854-14.625-6.2188-1.0793-48.519-1.763-88.069-1.2188-137.97z" color="#000000" style="block-progression:tb;text-indent:0;text-transform:none"/><path d="m90.521 480.98c1.712 0 3.0998 2.9346 3.0998 6.5546s-1.3878 6.5546-3.0998 6.5546-3.0998-2.9346-3.0998-6.5546 1.3878-6.5546 3.0998-6.5546z" color="#000000" fill="url(#ax)"/></g></g></svg>
