<svg version="1.1" viewBox="0 0 1167 738" xmlns="http://www.w3.org/2000/svg" xmlns:xlink="http://www.w3.org/1999/xlink"><defs><linearGradient id="c"><stop stop-color="#fff" offset="0"/><stop stop-color="#fff" stop-opacity="0" offset="1"/></linearGradient><linearGradient id="a"><stop stop-color="#fff" offset="0"/><stop stop-color="#d0d0d0" offset=".5"/><stop stop-color="#adadad" offset="1"/></linearGradient><linearGradient id="b"><stop stop-color="#fff" offset="0"/><stop stop-color="#d0d0d0" offset=".34005"/><stop offset=".67003"/><stop stop-opacity="0" offset="1"/></linearGradient><filter id="cz" color-interpolation-filters="sRGB"><feGaussianBlur stdDeviation="3.1976483"/></filter><radialGradient id="ai" cx="673.27" cy="378.93" r="98.168" gradientTransform="matrix(6.6115 3.8172 -1.1351 1.9661 -3357.2 -3004.3)" gradientUnits="userSpaceOnUse" xlink:href="#b"/><radialGradient id="ah" cx="562.12" cy="120.92" r="37.923" gradientTransform="matrix(4.3693 1.1708 -1.301 4.8553 -1824.4 -1181.3)" gradientUnits="userSpaceOnUse" xlink:href="#b"/><radialGradient id="ag" cx="1019.6" cy="957.67" r="54.296" gradientTransform="matrix(1.0341 -.27709 .47504 1.6267 -1029.5 -945.07)" gradientUnits="userSpaceOnUse" xlink:href="#a"/><linearGradient id="bo" x1="1401.1" x2="1429.4" y1="1111.5" y2="1111.5" gradientTransform="translate(-940.08 -774.52)" gradientUnits="userSpaceOnUse" xlink:href="#b"/><linearGradient id="bn" x1="1089.7" x2="1426.8" y1="2109" y2="801.17" gradientTransform="matrix(.96058 -.26443 .26338 .9644 9.7065 220)" gradientUnits="userSpaceOnUse" xlink:href="#b"/><linearGradient id="bm" x1="966.28" x2="1075.9" y1="768.35" y2="685.45" gradientTransform="matrix(.20148 0 0 .22551 -144.55 26.993)" gradientUnits="userSpaceOnUse" xlink:href="#b"/><radialGradient id="af" cx="1412.2" cy="1111.4" r="58.882" gradientTransform="matrix(.99187 0 0 1.4808 11.475 -534.38)" gradientUnits="userSpaceOnUse" xlink:href="#b"/><radialGradient id="ae" cx="999.8" cy="972.31" r="54.296" gradientTransform="matrix(2.0588 0 .072762 3.2581 -1650 -2830.9)" gradientUnits="userSpaceOnUse" xlink:href="#b"/><radialGradient id="ad" cx="984.14" cy="962.49" r="45.166" gradientTransform="matrix(-1.4283 .3827 -.5903 -2.203 2022 1932)" gradientUnits="userSpaceOnUse" xlink:href="#a" spreadMethod="reflect"/><linearGradient id="bl" x1="1601.7" x2="1407.2" y1="1101.2" y2="917.23" gradientUnits="userSpaceOnUse" xlink:href="#b"/><linearGradient id="bk" x1="1375.9" x2="1308.2" y1="961.04" y2="1009.5" gradientTransform="translate(-936.08 -772.52)" gradientUnits="userSpaceOnUse" xlink:href="#a"/><radialGradient id="ac" cx="1054.4" cy="962.37" r="42.15" gradientTransform="matrix(9.0598 0 0 16.013 -8265.2 -14448)" gradientUnits="userSpaceOnUse" xlink:href="#b"/><linearGradient id="bj" x1="1894" x2="1885.3" y1="924.16" y2="1019.2" gradientTransform="matrix(.78218 0 0 .78218 401.22 204.75)" gradientUnits="userSpaceOnUse" xlink:href="#a"/><radialGradient id="ab" cx="1519.9" cy="808.8" r="14.196" gradientTransform="matrix(1.8732 -1.8732 2.4315 2.4315 -3267.6 1923.8)" gradientUnits="userSpaceOnUse" xlink:href="#a"/><radialGradient id="aa" cx="1740.2" cy="918.69" r="42.976" gradientTransform="matrix(-1.057 2.069 -2.0337 -1.1742 4714.7 -2385.5)" gradientUnits="userSpaceOnUse" xlink:href="#b" spreadMethod="reflect"/><radialGradient id="z" cx="999.8" cy="972.31" r="54.296" gradientTransform="matrix(1.2822 -.34355 .55378 2.4057 -1767.5 -1802.6)" gradientUnits="userSpaceOnUse" xlink:href="#b"/><linearGradient id="bi" x1="482.13" x2="612.94" y1="981.63" y2="956.15" gradientTransform="matrix(1.125 0 .86177 .70782 -143.41 168.98)" gradientUnits="userSpaceOnUse" xlink:href="#a"/><radialGradient id="x" cx="1661" cy="737.21" r="143.3" gradientTransform="matrix(4.4774 1.4042 -.52818 1.6842 -6349 -3395)" gradientUnits="userSpaceOnUse" xlink:href="#a"/><radialGradient id="w" cx="1934.4" cy="1074.6" r="7.635" gradientTransform="matrix(0 9.3375 -36.629 0 40265 -17746)" gradientUnits="userSpaceOnUse" xlink:href="#b"/><radialGradient id="v" cx="1478.8" cy="807.88" r="58.786" gradientTransform="matrix(2.2676 2.2676 -1.8694 1.8694 -414.71 -3939.4)" gradientUnits="userSpaceOnUse" xlink:href="#a"/><linearGradient id="bg" x1="1017.2" x2="298.26" y1="817.56" y2="926.78" gradientTransform="matrix(.98749 0 .75646 .63475 -896.73 -531.59)" gradientUnits="userSpaceOnUse" xlink:href="#a"/><radialGradient id="u" cx="1654.8" cy="878.06" r="14.402" gradientTransform="matrix(-1.7901 0 0 -1.4277 4633.7 2133.7)" gradientUnits="userSpaceOnUse" xlink:href="#a"/><radialGradient id="t" cx="1259.2" cy="744.54" r="500.39" gradientTransform="matrix(.7258 .19448 -.075679 .28244 388.79 467.47)" gradientUnits="userSpaceOnUse" xlink:href="#a"/><linearGradient id="bf" x1="1316.8" x2="1141.1" y1="837.6" y2="1091.9" gradientTransform="matrix(.97591 0 0 .98501 -881.05 -529.53)" gradientUnits="userSpaceOnUse" xlink:href="#b" spreadMethod="reflect"/><linearGradient id="br" x1="386.85" x2="647.63" y1="1017.6" y2="862.33" gradientTransform="matrix(1 0 .76604 .64279 -918.94 -543.09)" gradientUnits="userSpaceOnUse" xlink:href="#a"/><filter id="ck" color-interpolation-filters="sRGB"><feGaussianBlur stdDeviation="1.6159009"/></filter><filter id="ci" color-interpolation-filters="sRGB"><feGaussianBlur stdDeviation="1.295922"/></filter><filter id="f" color-interpolation-filters="sRGB"><feGaussianBlur stdDeviation="0.53124807"/></filter><filter id="ch" color-interpolation-filters="sRGB"><feGaussianBlur stdDeviation="1.1269509"/></filter><filter id="cf" color-interpolation-filters="sRGB"><feGaussianBlur stdDeviation="1.2705717"/></filter><filter id="cd" color-interpolation-filters="sRGB"><feGaussianBlur stdDeviation="2.8499223"/></filter><filter id="cc" color-interpolation-filters="sRGB"><feGaussianBlur stdDeviation="0.91505681"/></filter><filter id="cb" color-interpolation-filters="sRGB"><feGaussianBlur stdDeviation="1.0496095"/></filter><filter id="ca" color-interpolation-filters="sRGB"><feGaussianBlur stdDeviation="0.29900713"/></filter><radialGradient id="i" cx="1055.5" cy="718.82" r="34.888" gradientTransform="matrix(4.3146 1.616 -.29793 .8028 -3198.9 -1298.8)" gradientUnits="userSpaceOnUse" xlink:href="#a"/><filter id="bz" color-interpolation-filters="sRGB"><feGaussianBlur stdDeviation="0.58241967"/></filter><filter id="e" color-interpolation-filters="sRGB"><feGaussianBlur stdDeviation="0.83245634"/></filter><linearGradient id="aw" x1="1526" x2="1496.2" y1="997.05" y2="1025.8" gradientTransform="matrix(.91519 0 0 .91519 -806.71 -687.3)" gradientUnits="userSpaceOnUse" xlink:href="#c"/><filter id="by" color-interpolation-filters="sRGB"><feGaussianBlur stdDeviation="0.93417239"/></filter><filter id="bx" color-interpolation-filters="sRGB"><feGaussianBlur stdDeviation="1.0299774"/></filter><radialGradient id="h" cx="1628.2" cy="935.34" r="250.69" gradientTransform="matrix(2.175 .58279 -.25285 .94366 -2636.1 -1648)" gradientUnits="userSpaceOnUse" xlink:href="#a" spreadMethod="reflect"/><filter id="bw" color-interpolation-filters="sRGB"><feGaussianBlur stdDeviation="0.99184652"/></filter><linearGradient id="av" x1="1659.3" x2="1453" y1="977.48" y2="805.37" gradientTransform="matrix(1.1565 0 0 1.1565 -1170.4 -682.92)" gradientUnits="userSpaceOnUse" xlink:href="#b"/><radialGradient id="g" cx="633.93" cy="152.86" r="353.06" gradientTransform="matrix(3.5338 2.0402 -.77813 1.3478 -1922.8 -1437.8)" gradientUnits="userSpaceOnUse" xlink:href="#a" spreadMethod="reflect"/><linearGradient id="au" x1="850.9" x2="563.4" y1="348.4" y2="307.5" gradientTransform="matrix(1 0 0 .96026 0 12.814)" gradientUnits="userSpaceOnUse" xlink:href="#b"/><linearGradient id="at" x1="1437.4" x2="1846.6" y1="961.13" y2="1094" gradientTransform="matrix(1.0497 .087388 -.071412 .8578 -926.79 -762.04)" gradientUnits="userSpaceOnUse" xlink:href="#a" spreadMethod="reflect"/><filter id="db" color-interpolation-filters="sRGB"><feGaussianBlur stdDeviation="1.5265797"/></filter><linearGradient id="bv" x1="1741.3" x2="1658.9" y1="1046.7" y2="1149.8" gradientUnits="userSpaceOnUse" xlink:href="#b"/><linearGradient id="bu" x1="1304" x2="1500.5" y1="1176.8" y2="901.23" gradientTransform="translate(-936.08 -774.52)" gradientUnits="userSpaceOnUse" xlink:href="#b"/><radialGradient id="as" cx="1059" cy="971.12" r="45.166" gradientTransform="matrix(-3.3382 5.2063 -12.308 -7.1061 15935 1619.9)" gradientUnits="userSpaceOnUse" xlink:href="#a" spreadMethod="reflect"/><linearGradient id="bt" x1="919.03" x2="1038.8" y1="1074.5" y2="799.53" gradientTransform="translate(-936.08 -774.52)" gradientUnits="userSpaceOnUse" xlink:href="#b"/><linearGradient id="bs" x1="1310.8" x2="1151.4" y1="1189.4" y2="797.11" gradientUnits="userSpaceOnUse" xlink:href="#b"/><filter id="da" color-interpolation-filters="sRGB"><feGaussianBlur stdDeviation="0.26353599"/></filter><linearGradient id="bq" x1="147.7" x2="281.33" y1="136.35" y2="70.636" gradientUnits="userSpaceOnUse" xlink:href="#a"/><filter id="cy" color-interpolation-filters="sRGB"><feGaussianBlur stdDeviation="1.3660057"/></filter><radialGradient id="ar" cx="998.55" cy="959.44" r="54.296" gradientTransform="matrix(4.7669 2.7521 -2.3366 4.4362 -2057.3 -6748.3)" gradientUnits="userSpaceOnUse" xlink:href="#a" spreadMethod="reflect"/><filter id="cx" color-interpolation-filters="sRGB"><feGaussianBlur stdDeviation="1.3298875"/></filter><radialGradient id="aq" cx="986.92" cy="967.51" r="8.7577" gradientTransform="matrix(2.8774 0 0 5.5911 -2788.9 -5216.4)" gradientUnits="userSpaceOnUse" xlink:href="#a"/><radialGradient id="ap" cx="1108.4" cy="1115.7" r="111.16" gradientTransform="matrix(6.0556 2.1224 -.20485 .58448 -5373.9 -1977.7)" gradientUnits="userSpaceOnUse" xlink:href="#a"/><radialGradient id="ao" cx="1176.7" cy="1011.1" r="127.64" gradientTransform="matrix(2.0248 .85073 -.18135 .43162 -1012.8 -404.62)" gradientUnits="userSpaceOnUse" xlink:href="#a"/><radialGradient id="an" cx="1210.3" cy="915.06" r="111.48" gradientTransform="matrix(1.4463 .30925 -.10085 .52329 -438.26 119.7)" gradientUnits="userSpaceOnUse" xlink:href="#a"/><linearGradient id="bp" x1="1141.2" x2="1137.1" y1="956.44" y2="996.74" gradientTransform="translate(1.9949 -.75761)" gradientUnits="userSpaceOnUse" xlink:href="#a"/><radialGradient id="am" cx="1095.4" cy="978.41" r="30.972" gradientTransform="matrix(.97349 1.5034 -.99478 .5343 76.009 -1964.6)" gradientUnits="userSpaceOnUse" xlink:href="#b"/><filter id="cw" color-interpolation-filters="sRGB"><feGaussianBlur stdDeviation="0.39489231"/></filter><filter id="cv" color-interpolation-filters="sRGB"><feGaussianBlur stdDeviation="0.430075"/></filter><filter id="cu" color-interpolation-filters="sRGB"><feGaussianBlur stdDeviation="0.14806063"/></filter><radialGradient id="al" cx="1895.2" cy="968.73" r="14.079" gradientTransform="matrix(2.8454 -.76242 1.0223 3.8151 -4493.7 -1288.6)" gradientUnits="userSpaceOnUse" xlink:href="#b"/><radialGradient id="ak" cx="1358.1" cy="976.07" r="11.713" gradientTransform="matrix(1.2061 -.32317 1.2739 4.7543 -1523 -3222.7)" gradientUnits="userSpaceOnUse" xlink:href="#a"/><filter id="ct" color-interpolation-filters="sRGB"><feGaussianBlur stdDeviation="2.2025446"/></filter><radialGradient id="aj" cx="1864.2" cy="1235.6" r="102.99" gradientTransform="matrix(8.8475 0 0 4.2554 -14502 -3683.1)" gradientUnits="userSpaceOnUse" xlink:href="#b" spreadMethod="reflect"/><filter id="cs" color-interpolation-filters="sRGB"><feGaussianBlur stdDeviation="0.41772636"/></filter><filter id="cr" color-interpolation-filters="sRGB"><feGaussianBlur stdDeviation="0.36560068"/></filter><filter id="cq" x="-.039749" y="-.12232" width="1.0795" height="1.2446" color-interpolation-filters="sRGB"><feGaussianBlur stdDeviation="2.4496137"/></filter><filter id="cp" color-interpolation-filters="sRGB"><feGaussianBlur stdDeviation="0.28942408"/></filter><filter id="co" color-interpolation-filters="sRGB"><feGaussianBlur stdDeviation="0.26243609"/></filter><radialGradient id="d" cx="1337.9" cy="972.95" r="39.828" gradientTransform="matrix(1.7954 1.0366 -.48102 .83316 -1545.7 -2015.8)" gradientUnits="userSpaceOnUse" xlink:href="#c"/><filter id="cn" color-interpolation-filters="sRGB"><feGaussianBlur stdDeviation="1.9427658"/></filter><radialGradient id="y" cx="1284.1" cy="749.34" r="107.9" gradientTransform="matrix(2.2521 2.2521 -1.1715 1.1715 -1509 -3769.8)" gradientUnits="userSpaceOnUse" xlink:href="#b" spreadMethod="reflect"/><linearGradient id="bh" x1="1567.9" x2="1668.1" y1="973.56" y2="973.56" gradientTransform="matrix(.92645 0 0 .92645 141.32 70.89)" gradientUnits="userSpaceOnUse" xlink:href="#c"/><filter id="cm" color-interpolation-filters="sRGB"><feGaussianBlur stdDeviation="0.39439459"/></filter><radialGradient id="s" cx="873.56" cy="626.35" r="513.2" gradientTransform="matrix(-.12016 .26745 -2.4757 -1.1123 1816.8 577.36)" gradientUnits="userSpaceOnUse" xlink:href="#a" spreadMethod="reflect"/><radialGradient id="r" cx="966.43" cy="1006.4" r="54.296" gradientTransform="matrix(.6766 1.3155 -1.3219 .73867 1117.1 -1586.8)" gradientUnits="userSpaceOnUse" xlink:href="#c"/><linearGradient id="be" x1="1375.8" x2="1381" y1="1121.8" y2="1071.9" gradientTransform="translate(-936.08 -774.52)" gradientUnits="userSpaceOnUse" xlink:href="#c"/><linearGradient id="bd" x1="591.26" x2="526.29" y1="74.98" y2="74.475" gradientUnits="userSpaceOnUse" xlink:href="#b"/><linearGradient id="bc" x1="566.09" x2="536.23" y1="75.737" y2="67.656" gradientUnits="userSpaceOnUse" xlink:href="#b"/><radialGradient id="q" cx="1514.6" cy="857.98" r="58.786" gradientTransform="matrix(2.1379 2.1379 -1.7625 1.7625 -1239.8 -4429.8)" gradientUnits="userSpaceOnUse" xlink:href="#a"/><filter id="cl" color-interpolation-filters="sRGB"><feGaussianBlur stdDeviation="0.86613325"/></filter><radialGradient id="p" cx="1233.5" cy="535.33" r="13.58" gradientTransform="matrix(.91869 .31847 -.005711 .27525 24.203 399.04)" gradientUnits="userSpaceOnUse" xlink:href="#a" spreadMethod="reflect"/><radialGradient id="o" cx="1154.4" cy="939.23" r="14.049" gradientTransform="matrix(1 0 0 .68099 0 299.62)" gradientUnits="userSpaceOnUse" xlink:href="#c"/><linearGradient id="bb" x1="217.8" x2="220.61" y1="167.84" y2="154.98" gradientUnits="userSpaceOnUse" xlink:href="#a"/><radialGradient id="n" cx="1216.6" cy="534.41" r="11.854" gradientTransform="matrix(-5.6181 -5.6181 .57353 -2.7861 6746.1 8491.5)" gradientUnits="userSpaceOnUse" xlink:href="#a" spreadMethod="reflect"/><linearGradient id="ba" x1="1343.5" x2="1174.8" y1="493.32" y2="1020.2" gradientUnits="userSpaceOnUse" xlink:href="#b"/><radialGradient id="m" cx="640.68" cy="263.16" r="153.06" gradientTransform="matrix(2.0622 1.1832 -.49298 .84857 -579.14 -772.05)" gradientUnits="userSpaceOnUse" xlink:href="#b"/><linearGradient id="az" x1="1334.4" x2="1322.2" y1="1079.3" y2="732.85" gradientTransform="matrix(1 0 0 1.0254 -936.08 -798.43)" gradientUnits="userSpaceOnUse" xlink:href="#b" spreadMethod="repeat"/><radialGradient id="l" cx="1555" cy="699.27" r="202.07" gradientTransform="matrix(1.8867 1.0845 -.50764 .88319 -1832.8 -2335.5)" gradientUnits="userSpaceOnUse" xlink:href="#b" spreadMethod="reflect"/><radialGradient id="k" cx="562.34" cy="-76.752" r="202.56" gradientTransform="matrix(.80321 .21522 -.076988 .28732 116.11 -15.428)" gradientUnits="userSpaceOnUse" xlink:href="#b"/><linearGradient id="ay" x1="1966.1" x2="1864" y1="926.29" y2="987.36" gradientUnits="userSpaceOnUse" xlink:href="#a" spreadMethod="reflect"/><linearGradient id="ax" x1="165.25" x2="1075.1" y1="1137.3" y2="636.09" gradientTransform="matrix(.98818 0 .75699 .63519 31.707 238.97)" gradientUnits="userSpaceOnUse" xlink:href="#b"/><filter id="cj" color-interpolation-filters="sRGB"><feGaussianBlur stdDeviation="1.9717201"/></filter><radialGradient id="j" cx="1179.1" cy="851.18" r="16.219" gradientTransform="matrix(.99601 .26688 -.68538 2.5579 587.76 -1635.7)" gradientUnits="userSpaceOnUse" xlink:href="#a"/><filter id="cg" color-interpolation-filters="sRGB"><feGaussianBlur stdDeviation="1.429432"/></filter><filter id="ce" color-interpolation-filters="sRGB"><feGaussianBlur stdDeviation="0.18292669"/></filter></defs><g transform="translate(-858.23 -620.08)"><path transform="translate(936.08 774.52)" d="m413.25 30.094c-63.774 0.48061-127.33 9.89-189.94 22.219-58.599 2.8648-116.38 14.256-174.16 24.031-20.794 140.03 21.193 87.732-6.7188 188 5.0134 32.007 12.453 10.026 42.469 25.25 89.076 6.3722 171.63 42.201 253.97 73.781 54.322 17.841 77.397 64.602 149.28 78.5s167.74 23.148 258.5 21.219c73.47-10.821 149.37-17.799 218.22-47.719 47.546-9.0647 45.509-60.553 44.5-98.469 1.1644-51.912-37.025-90.9-69.25-126.81-43.664-50.251-113.87-50.042-174.97-50.906-33.604-22.259-69.316-41.109-105.28-59.219-51.788-31.282-112.4-40.685-171.72-45.969-24.967-2.9118-49.951-4.0943-74.906-3.9062z" fill="#1a1a1a" filter="url(#cz)"/><path transform="translate(936.08 774.52)" d="m617.03 33.562c-22.664 6.9411-152.75 18.953-218.94 27.938 18.438 28.88 32.667 48.927 61.312 103.31 3.7867 6.8793 130.57 13.689 200.84 6.5938 48.008-5.9354 167.85-17.674 123.84-50.562-3.6526-2.73-7.2838-5.2462-10.906-7.5938-3.6512-0.0937-7.1627-0.19057-11-0.28125-14.32-9.609-29.721-18.948-45.875-28.094-7.4715-3.3848-13.832-6.6401-18.688-10.344-25.778-13.934-53.053-27.48-80.594-40.969z" color="#000000" fill="url(#bf)" opacity=".77"/><path d="m998 819.34c-0.0993 0.0159-0.21372 0.0468-0.3125 0.0625-0.21325 0.0338-0.41423 0.0608-0.625 0.0937-1.6512 0.2584-3.2272 0.48486-4.7188 0.6875-0.13891 0.0188-0.30006 0.0442-0.4375 0.0625-0.17938 0.0228-0.36135 0.0404-0.53125 0.0625-0.0488 6e-3 -0.1076 0.025-0.15625 0.0312-0.59482 0.077-1.153 0.15236-1.7188 0.21875-0.38165 0.0447-0.78806 0.0853-1.1562 0.125-0.92064 0.0995-1.7924 0.18343-2.625 0.25-0.72537 0.058-1.4532 0.13029-2.1562 0.21875-0.61809 0.0778-1.2114 0.18041-1.8125 0.28125-0.28584 0.0479-0.5617 0.10321-0.84375 0.15625-0.4741 0.0892-0.94276 0.17784-1.4062 0.28125-0.57982 0.12935-1.1553 0.25504-1.7188 0.40625-0.0816 0.0219-0.16872 0.0402-0.25 0.0625-0.44373 0.12213-0.87886 0.27077-1.3125 0.40625-0.38797 0.12121-0.77627 0.24329-1.1562 0.375-0.41032 0.14226-0.81762 0.28321-1.2188 0.4375-0.48349 0.18597-0.96719 0.39067-1.4375 0.59375-0.0513 0.0222-0.10509 0.0402-0.15625 0.0625-0.0631 0.0208-0.12818 0.0362-0.1875 0.0625-0.30519 0.1352-0.6066 0.29517-0.90625 0.4375-0.26209 0.12464-0.52336 0.24499-0.78125 0.375-0.1804 0.0909-0.35481 0.18736-0.53125 0.28125-0.083 0.0435-0.16748 0.081-0.25 0.125-0.0941 0.0508-0.18689 0.10485-0.28125 0.15625-0.26195 0.14269-0.52374 0.2892-0.78125 0.4375-0.47007 0.2707-0.91951 0.55475-1.375 0.84375-0.51908 0.32935-1.0308 0.67883-1.5312 1.0312-0.39519 0.27827-0.77243 0.55151-1.1562 0.84375-0.0296 0.0225-0.0642 0.0399-0.0937 0.0625-0.0739 0.0503-0.14724 0.10068-0.21875 0.15625-0.11594 0.09-0.22885 0.18997-0.34375 0.28125-0.41967 0.33366-0.84404 0.68104-1.25 1.0312-0.0282 0.0243-0.0657 0.0381-0.0937 0.0625-0.18307 0.16112-0.34844 0.33565-0.53125 0.5-0.0944 0.0849-0.18758 0.16422-0.28125 0.25-0.10571 0.0934-0.21137 0.18687-0.3125 0.28125-0.0436 0.0407-0.0816 0.0841-0.125 0.125-0.41326 0.38898-0.82019 0.78124-1.2188 1.1875-0.0102 0.0104-0.021 0.0208-0.0312 0.0312-0.40815 0.4169-0.79448 0.81559-1.1875 1.25-0.38869 0.4295-0.78205 0.86649-1.1562 1.3125-0.0239 0.0285-0.0387 0.0652-0.0625 0.0937-0.34943 0.41848-0.69423 0.84886-1.0312 1.2812-0.046 0.059-0.0792 0.12823-0.125 0.1875-0.31252 0.40469-0.63551 0.80246-0.9375 1.2188-0.0662 0.0913-0.12176 0.18939-0.1875 0.28125-0.27723 0.38742-0.54408 0.75931-0.8125 1.1562-0.0213 0.0314-0.0412 0.0621-0.0625 0.0937-0.13088 0.19411-0.24619 0.39743-0.375 0.59375-0.2881 0.43908-0.56585 0.86268-0.84375 1.3125-0.33513 0.54245-0.67936 1.0989-1 1.6562-0.18319 0.3187-0.3527 0.64536-0.53125 0.96875-0.58765 1.0643-1.1485 2.1381-1.6875 3.25-0.44046 0.90858-0.87175 1.8439-1.2812 2.7812-0.0185 0.0423-0.0441 0.0827-0.0625 0.125-0.0314 0.0723-0.0627 0.14618-0.0937 0.21875-0.18559 0.43027-0.35189 0.87669-0.53125 1.3125-0.10149 0.25178-0.21145 0.4978-0.3125 0.75-0.22903 0.5716-0.46867 1.1385-0.6875 1.7188-3e-3 9e-3 3e-3 0.0221 0 0.0312-0.0872 0.23679-0.16276 0.48147-0.25 0.71875-0.23238 0.63206-0.46658 1.265-0.6875 1.9062-0.10617 0.30242-0.21108 0.60291-0.3125 0.90625-7e-3 0.0217-0.024 0.0408-0.0312 0.0625-3e-3 9e-3 3e-3 0.0219 0 0.0312-0.40927 1.2256-0.81795 2.4652-1.1875 3.7188-3e-3 0.01 3e-3 0.0217 0 0.0312 1.4303 5.5288 3.8497 11.326 7.2188 17.188 0.0726-0.0976 0.14567-0.18534 0.21875-0.28125 9e-3 -0.0119 0.0221-0.0193 0.0312-0.0312 0.36814-0.48205 0.74543-0.93441 1.125-1.375 0.21834-0.25354 0.43421-0.50994 0.65625-0.75 0.02-0.0217 0.0425-0.0407 0.0625-0.0625 0.10554-0.11326 0.20614-0.2335 0.3125-0.34375 0.0101-0.0105 0.0211-0.0208 0.0312-0.0312 0.0204-0.021 0.0421-0.0416 0.0625-0.0625 0.22762-0.23373 0.45808-0.44089 0.6875-0.65625 0.1856-0.17665 0.37456-0.36326 0.5625-0.53125 0.0555-0.0496 0.10057-0.10858 0.15625-0.15625 0.0919-0.0806 0.18881-0.14014 0.28125-0.21875 0.10206-0.0868 0.20978-0.16564 0.3125-0.25 0.22053-0.18091 0.4327-0.36163 0.65625-0.53125 0.29959-0.22732 0.60134-0.44894 0.90625-0.65625 0.34048-0.23176 0.68429-0.48025 1.0312-0.6875 0.02-0.012 0.0421-0.0199 0.0625-0.0312 0.13327-0.0789 0.27204-0.14339 0.40625-0.21875 0.3127-0.17562 0.61981-0.34349 0.9375-0.5 0.05-0.0246 0.10516-0.0391 0.15625-0.0625 0.0835-0.0403 0.16616-0.086 0.25-0.125 0.0339-0.0157 0.0598-0.047 0.0937-0.0625 0.13416-0.0614 0.27124-0.0981 0.40625-0.15625 0.28089-0.12098 0.55925-0.23686 0.84375-0.34375 0.50228-0.18839 1.018-0.35469 1.5312-0.5 0.11332-0.0321 0.22991-0.0638 0.34375-0.0937 0.17604-0.0464 0.35398-0.11472 0.53125-0.15625 0.44368-0.10394 0.8897-0.18034 1.3438-0.25 0.21007-0.0342 0.41334-0.066 0.625-0.0937 0.60789-0.0806 1.2232-0.1277 1.8438-0.15625 0.37397-0.0172 0.74664-0.0326 1.125-0.0312 0.0723 3e-4 0.14631-1e-3 0.21875 0 0.40368 6e-3 0.81029 0.0366 1.2188 0.0625 0.39351 0.0245 0.7897 0.0508 1.1875 0.0937 0.0835 9e-3 0.16626 0.0213 0.25 0.0312 0.0421 8e-3 0.0823 0.0261 0.125 0.0312 0.60838 0.0743 1.226 0.13413 1.8438 0.25 0.0322 6e-3 0.0616 0.0252 0.0937 0.0312 0.0419 8e-3 0.0831 0.0231 0.125 0.0312 0.63965 0.12479 1.2885 0.26997 1.9375 0.4375 0.70361 0.18162 1.4111 0.39502 2.125 0.625 0.68303 0.22004 1.3708 0.45618 2.0625 0.71875 0.0312 0.0118 0.0626 0.0194 0.0937 0.0312 0.0735 0.0281 0.14511 0.0652 0.21875 0.0937 0.65673 0.25475 1.3049 0.52128 1.9688 0.8125 0.72344 0.31735 1.4563 0.64113 2.1875 1 1.1775 0.57791 2.3394 1.2181 3.4688 1.9062 0.0443 0.027 0.0807 0.0666 0.125 0.0937 0.59414 0.36485 1.168 0.73036 1.75 1.125 0.48777 0.33003 0.95837 0.64955 1.4375 1 8.0523 3.4546 15.81 10.193 22.656 19.438l340.5 125.66c0.059-0.1158 0.128-0.2285 0.1875-0.3438 0.2079-0.4023 0.4095-0.7927 0.625-1.1874 0.1639-0.3006 0.3316-0.5791 0.5-0.875 0.3881-0.6824 0.7754-1.342 1.1875-2v-0.031c0.4066-0.6487 0.851-1.2815 1.2813-1.9063 0.4355-0.6325 0.8836-1.2673 1.3437-1.875 0.086-0.1136 0.1631-0.2309 0.25-0.3437 0.2814-0.3652 0.583-0.7093 0.875-1.0625 0.066-0.081 0.121-0.1697 0.1875-0.25 0.033-0.04 0.06-0.086 0.094-0.125 0.099-0.1185 0.2127-0.2264 0.3124-0.3438 0.3932-0.4627 0.7782-0.9289 1.1876-1.375 0.5089-0.5544 1.0283-1.0968 1.5624-1.625 0.042-0.041 0.083-0.084 0.125-0.125 0.4959-0.4864 1.0135-0.9428 1.5313-1.4062 0.5604-0.5015 1.1325-0.9947 1.7187-1.4688 0.5724-0.4625 1.1528-0.9077 1.75-1.3437 0.019-0.014 0.044-0.018 0.063-0.031 0.6123-0.4455 1.2361-0.8953 1.875-1.3124 0.6386-0.4172 1.3031-0.7993 1.9687-1.1876 0.6673-0.389 1.3365-0.7654 2.0313-1.125 1.3984-0.7238 2.8326-1.3987 4.3437-2 0.021-9e-3 0.042-0.0227 0.062-0.0312 0.6926-0.27444 1.4083-0.53317 2.125-0.78125 0.031-0.0108 0.062-0.0208 0.094-0.0312 0.093-0.0319 0.1881-0.0623 0.2812-0.0937 0.689-0.23277 1.3824-0.44798 2.0938-0.65625 0.7545-0.22097 1.5326-0.432 2.3124-0.625 0.052-0.0128 0.1046-0.0186 0.1563-0.0312 1.674-0.4094 3.3957-0.75323 5.1875-1.0312 0.8935-0.13864 1.7955-0.26978 2.7188-0.375 1.8541-0.21132 3.7737-0.36398 5.75-0.4375 0.7748-0.0288 1.5364-0.0179 2.3124 0 1.5419 0.0356 3.1127 0.15845 4.6563 0.375 0.01 1e-3 0.021-1e-3 0.031 0 2.3307 0.32876 4.6445 0.86649 6.9687 1.5938 0.7747 0.24242 1.5394 0.49579 2.3125 0.78125 1.5461 0.57091 3.0884 1.2294 4.625 1.9687 1.5366 0.7394 3.0703 1.566 4.5938 2.4688 2.2851 1.3542 4.5676 2.8857 6.8124 4.5938 2.2449 1.708 4.4644 3.5798 6.6563 5.625 0.7359 0.6866 1.4585 1.4016 2.1875 2.125 2.166 2.1493 4.3097 4.4437 6.4062 6.9062 0.01 0.01-0.01 0.025 0 0.031 4.1979 4.9325 8.2501 10.474 12.094 16.563 0.6415 1.0157 1.2762 2.0479 1.9062 3.0937 1.2599 2.0918 2.5078 4.2293 3.7188 6.4375 1.2113 2.2078 2.4038 4.4933 3.5625 6.8125 1.1585 2.3195 2.2728 4.6991 3.375 7.125 1.1025 2.4255 2.1763 4.8793 3.2187 7.4063 1.0425 2.5269 2.0527 5.1265 3.0313 7.75 0.9786 2.6234 1.9326 5.285 2.8437 8 0.9109 2.7152 1.7855 5.4794 2.625 8.2812 0.8399 2.8015 1.6415 5.6482 2.4063 8.5312 1.5292 5.7668 2.9184 11.687 4.125 17.75 0.9053 4.5471 1.6972 9.1495 2.4063 13.844v0.031c0.2346 1.5548 0.4752 3.1179 0.6874 4.6876 0.2151 1.5901 0.4022 3.1763 0.5938 4.7812 0.3808 3.1888 0.7148 6.4131 1 9.6562 0.1425 1.6217 0.2883 3.2408 0.4062 4.875 0.1181 1.6343 0.2196 3.2601 0.3126 4.9063 5e-4 0.01-6e-4 0.021 0 0.031 0.1849 3.2822 0.3237 6.6111 0.4062 9.9374 0.1236 4.9847 0.117 9.9926 0 15.063-5e-4 0.021 5e-4 0.041 0 0.062-0.079 3.4045-0.2142 6.8134-0.4062 10.25l6.25 3.0313c4.2113 0.1504 8.3853 0.3272 12.531 0.5313 0.01 5e-4 0.021-6e-4 0.031 0 4.1354 0.2037 8.2336 0.4424 12.313 0.6874 0.01 7e-4 0.021-6e-4 0.031 0 16.346 0.9823 32.273 2.2443 48.062 3.4063 0.01 8e-4 0.021-8e-4 0.031 0 7.8892 0.5805 15.739 1.1446 23.594 1.625 0.01 6e-4 0.021-6e-4 0.031 0 9.8207 0.6005 19.642 1.0698 29.531 1.3437 0.01 3e-4 0.021-2e-4 0.031 0 1.9696 0.055 3.9621 0.1193 5.9376 0.1563 3.9716 0.074 7.9353 0.099 11.937 0.094 0.011 0 0.021 1e-4 0.031 0 1.9908 0 4.0001-0.01 6-0.031 4.0207-0.05 8.0608-0.134 12.125-0.2812 4.0642-0.1473 8.1647-0.368 12.281-0.625 4.1165-0.2571 8.2599-0.5585 12.437-0.9376 2.0888-0.1895 4.1756-0.4026 6.2813-0.625 9.6914-1.7616 19.605-3.3795 29.656-4.9687 20.102-3.1785 40.782-6.2122 61.5-9.8437 5.1795-0.9079 10.356-1.8481 15.531-2.8438 15.516-2.9853 30.988-6.4224 46.156-10.625 5.0585-1.4025 10.108-2.9145 15.094-4.5 2.4931-0.7926 4.9659-1.5947 7.4375-2.4375 4.9426-1.686 9.8435-3.4703 14.688-5.375 3.6334-1.4283 7.2431-2.9369 10.812-4.5 2.3794-1.0422 4.7142-2.113 7.0625-3.2187 1.1742-0.5529 2.3653-1.1182 3.5312-1.6876 1.1577-0.5652 2.3195-1.1369 3.4688-1.7187 2.3151-1.1724 4.6265-2.3831 6.9062-3.625 3.412-1.8585 6.7984-3.821 10.125-5.8437 2.2227-1.3519 4.4431-2.7275 6.625-4.1563 0.055-0.04 0.2103-0.2088 0.3126-0.3125 7.2426-7.7585 22.558-99.326-7.8126-142.56-6.021-8.4556-11.744-16.182-17.25-23.406-103.5 23.716-236.71 59.459-349.91 46.281 4e-4 -29.192-119.56-67.156-177.16-67.156-121.6-4.4413-217.42-52.661-319.28-111.47-22.595-13.045-45.651-20.77-65.5-22.969-0.0192 3e-3 -0.0433-3e-3 -0.0625 0z" fill="url(#t)"/><path transform="translate(936.08 774.52)" d="m405.59 0.4375c-4.8644 0.004616-9.684 0.037334-14.438 0.125-60.065 1.1077-119.49 13.935-178.66 23.719-65.027 0.68937-136.28 19.999-162.88 22.125-43.673 3.4917-46.552 62.864-49.344 97.438-0.60887 7.5402 0.92063 2.1816 1.875 15.594 3.4427-62.276 23.16-71.734 46.75-60.156 39.162 19.221 52.39 100.8 65.375 164.28 11.709 2.1636 35.543 2.7632 67.656 12.719 65.857 20.417 159.45 56.684 225.19 84.938 3.7017 4.4748 6.1817 14.977 15 15.188-20.782-79.454-20.583-153 42.5-155.34 49.594-1.8451 102.03 92.677 95.906 202.31l6.25 3.0312c67.381 2.407 125.84 12.489 193.22 5.375 77.531-14.093 168.74-19.652 238.56-65.375 7.0844-5.1454 23.353-98.921-7.5-142.84-77.698-109.11-107.18-111.59-226.19-114.38-43.324-28.803-96.327-55.19-150.25-81.344-52.074-18.223-136.07-27.475-209.03-27.406z" fill="url(#s)"/><g><path transform="translate(936.08 774.52)" d="m532.25 51.375c-0.5672 0.69477-1.1633 1.4126-1.6875 2.25-0.936 1.4956-1.5881 3.4234-1.25 6.1562 0.3544 2.8663 2.4016 5.4056 3.9688 8.25 1.5671 2.8443 2.7132 5.8685 1.625 9.7188l-0.0312 0.0625v0.09375c-0.067 2.0063-0.129 4.012-0.125 6.0312h0.96875c0-1.993 0.0267-3.9976 0.0937-6 1.1111-4.1574-0.1511-7.598-1.75-10.5-1.6221-2.944-3.5228-5.4698-3.8125-7.8125-0.3065-2.4761 0.25435-4.0027 1.0938-5.3438 0.5803-0.92702 1.3008-1.762 2-2.6562l-1.0938-0.25z" color="#000000" fill="url(#bc)" style="block-progression:tb;text-indent:0;text-transform:none"/><path transform="translate(936.08 774.52)" d="m510.22 45.844c-9.1631 1.0334-18.388 2.0526-27.719 3.0938 0.1104 7.1332-2.9837 10.936 0 17.969 9.5975 22.621 72.906 60.281 72.906 60.281 15.267 12.166 12.85 20.691 9.5625 26.625-0.1587 9.8976-16.422 14.259-37.906 16.219l16.719 3.8125c38.582 1.1401 81.841 0.72993 113.72-2.4688 35.873-4.4075 111.05-11.983 131.12-28.812l5-8.375c6e-4 -0.0105-5e-4 -0.0207 0-0.0312 0.214-4.2164-2.7188-8.8632-9.7188-14.062-3.728-2.769-7.4279-5.3377-11.125-7.7188-3.7265-0.0951-7.3335-0.18927-11.25-0.28125-7.2768-4.8528-14.805-9.6148-22.594-14.344l-228.72-51.906z" color="#000000" fill="url(#m)" opacity=".77"/><path transform="matrix(1.1574 0 0 1.0988 -211.2 -108.12)" d="m1140.4 977.57c-17.873-0.19424-27.214 30.966-10.219 43.562l209.38 71.094c-2.1869-11.756-2.8485-23.22-2.1562-34l-192.31-79.906c-1.6269-0.49741-3.1729-0.73355-4.6875-0.75z" color="#000000" fill="url(#an)" filter="url(#e)"/><path d="m1649.5 867.27c3.5767 3.2213 8.7169 7.7967 13.469 13.219 6.4213 7.3269 11.868 16.005 11.062 24.156l1 0.0937c0.8544-8.6521-4.7878-17.497-11.281-24.906-4.2189-4.8139-8.7498-8.968-12.219-12.094l-2.0313-0.46875z" color="#000000" fill="url(#u)" style="block-progression:tb;text-indent:0;text-transform:none"/><path transform="translate(936.08 774.52)" d="m776.19 109.47c3.6975 2.3751 7.397 4.9268 11.125 7.6875 45.09 33.389-77.713 45.318-126.91 51.344-48.71 4.8727-123.89 3.2906-168.66-0.40625 112.54 48.666 44.842 22.495 108.72 62.625 11.086 6.9843 27.359 25.414 37.781 44.25 5.6304 8.9994 9.7326 18.838 11.531 29.531 2.2647 13.464 117.27 18.402 127.34 16.312 58.375-17.398 211.13-46.699 215.78-63.594 0.9183-13.91-0.9959-26.62-5.125-38.219-0.022-0.03-0.0415-0.0637-0.0625-0.0937-72.671-100.95-103.73-106.69-211.53-109.44z" color="#000000" fill="url(#h)"/><path d="m1732 917.82c-20.317 16.929-96.162 24.549-132.37 28.985-14.49 1.4496-31.336 2.3085-49.008 2.735 44.72 20.184 93.088 44.036 148.38 74.788 3.3081 1.8401 6.962 2.3568 10.374 1.6033 64.518-10.1 97.859-19.219 125.77-23.389 2.8693-0.7687 3.6025-2.3749 3.7724-6.5702s-78.312-66.287-106.91-78.152z" color="#000000" fill="#4d4d4d" filter="url(#bw)"/><path d="m1650.8 867.55c3.6085 3.2182 8.6674 7.7142 13.312 12.969 6.4911 7.3428 12.001 16.049 11.188 24.219l1 0.0937c0.8636-8.6709-4.8421-17.543-11.406-24.969-4.1608-4.7069-8.5754-8.7255-12.062-11.844l-2.0312-0.46875z" color="#000000" fill="#333" style="block-progression:tb;text-indent:0;text-transform:none"/><path transform="translate(936.08 774.52)" d="m405.56 0.40625c-4.8641 0-9.6842 0.06905-14.438 0.15625-60.066 1.1078-119.49 13.903-178.66 23.688-65.027 0.6894-136.25 20.03-162.84 22.156-40.168 3.2115-45.802 53.486-48.625 88.469 1.4746-1.0449 2.7356-1.9411 4.3125-3.0625 7.1886-37.275 24.066-42.146 43.594-32.562 0.65339 0.3207 1.2984 0.67625 1.9375 1.0312 0.0494-1e-3 0.09375 0.0265 0.09375 0.0625h0.03125c0.024 0.016 0.0374 0.0485 0.0625 0.0625 0.73771 0.4148 1.4686 0.8529 2.1875 1.3125 0.0195 0.013 0.043 0.0192 0.0625 0.0312 0.0194 0.012 0.0431 0.0192 0.0625 0.0312 0.0871 0.056 0.16321 0.1308 0.25 0.1875 0.65544 0.428 1.2975 0.848 1.9375 1.3125h0.03125c7.4351 3.1394 14.607 9.1079 21.062 17.25l6.9688 4.5 337.22 119.94c8.5924-14.342 22.66-23.15 43.812-23.938 49.593-1.8451 102 92.709 95.875 202.34l6.25 3.0312c49.23 1.7586 93.712 7.5968 140.38 7.8438l-3.5-22.906c-28.246-2.2187-49.769-4.9164-54.719-11.156-17.285-16.127-37.068-65.622-30.594-72l73.469 5.5312-2.6562-17.5c-21.411-2.7351-38.485-6.6132-39.344-11.719-1.7988-10.693-5.901-20.532-11.531-29.531-25.021-47.25-55.844-76.305-102.53-85.844-118.68-24.247-76.207-27.355-143.94-132.22 67.822-9.121 201.12-21.297 224.34-28.344-0.5-0.2426-1-0.47615-1.5-0.71875-52.074-18.223-136.1-27.507-209.06-27.438zm-117.22 33.688c3.2006-0.021 6.5157-0.022 9.9375 0 53.874-0.3888 82.314 10.283 130.84 120.81-109.49-33.648-342.42-119.48-140.78-120.81z" color="#000000" fill="url(#g)" filter="url(#cd)"/><path transform="translate(936.08 774.52)" d="m236.69 83.062c-6.6665 4.9406-12.816 10.693-20.156 14.688-4.8089 2.7658-9.9017 5.0311-15 7.1562-3.0215 10.649-5.9962 21.331-8.875 32.031-0.3291 1.388-1.2512 4.4648-1.0938 4.8438 5.0853-11.509 8.3716-23.767 11.656-35.406 9.8771-3.89 19.31-9.0398 27.375-16 2.3414-2.0504 4.961-3.8519 7.25-5.9062-0.1112-0.49559-0.58295-1.3792-1.1562-1.4062z" color="#000000" fill="url(#bq)" filter="url(#da)" style="block-progression:tb;text-indent:0;text-transform:none"/></g><path transform="translate(936.08 774.52)" d="m272.47 138.42s226.71 92.536 178.13 70.765c-52.902-26.242-178.13-70.765-178.13-70.765z" fill="url(#d)" fill-rule="evenodd"/><g><path d="m1368.8 928.13c-1.0144 0.52722-2.6158 0.01-1.873 1.6631 0.431 3.5498 0.8619 7.0996 1.2929 10.649-5.2951 1.7591-10.565 3.611-15.876 5.3125-7.5031 20.48-7.728 43.178-2.0841 64.117 0.9735 3.5948 2.2008 7.119 3.5328 10.602 2.3213-0.2004 2.0279-1.5481 0.9532-3.3112-7.7072-21.516-8.4997-45.47-1.6394-67.296 0.1031-2.1489 1.4985-3.0921 3.4779-3.4503 4.6241-1.516 9.3051-3.1801 13.889-4.5989-0.621-4.5539-1.0848-9.1295-1.674-13.687z" color="#000000" fill="#fff" filter="url(#bz)" style="block-progression:tb;text-indent:0;text-transform:none"/><path d="m1367.4 928.13c-0.9843 0.52722-2.5384 0.01-1.8175 1.6631 0.4182 3.5498 0.8364 7.0996 1.2546 10.649-5.1384 1.7591-10.252 3.611-15.406 5.3125-7.2811 20.48-7.4994 43.178-2.0225 64.117 0.9447 3.5948 2.1357 7.119 3.4283 10.602 2.2526-0.2004 1.9679-1.5481 0.925-3.3112-7.4792-21.516-8.2482-45.47-1.5909-67.296 0.1-2.1489 1.4542-3.0921 3.375-3.4503 4.4873-1.516 9.0298-3.1801 13.478-4.5989-0.6026-4.5539-1.0527-9.1295-1.6245-13.687z" color="#000000" fill="url(#ak)" filter="url(#cp)" style="block-progression:tb;text-indent:0;text-transform:none"/><path transform="translate(936.08 774.52)" d="m234.94 83.344c-6.6645 4.9429-12.82 10.689-20.156 14.688-4.8089 2.7658-9.9014 5.0312-15 7.1562-2.9304 10.306-5.7876 20.647-8.5938 31-0.413 1.7236-1.4547 5.1139-1.375 5.875 5.1493-11.655 8.1842-23.128 11.656-35.406 9.877-3.8901 19.342-9.0396 27.406-16 2.3484-1.9644 4.7308-3.8591 7.1562-5.7188 0.1972-0.56801-0.54185-1.5177-1.0938-1.5938z" color="#000000" fill="#fff" filter="url(#co)" style="block-progression:tb;text-indent:0;text-transform:none"/><path d="m1125.7 824.19c-5.8095 1.2068-14.375 3.9457-14.344 11.156 2.0169 5.5886 9.9014 5.4311 14.031 9.0938 3.9402 2.8316 12.29 4.5106 11.625 10.844-2.2022 3.2846-7.9859 2.1892-11.781 2.25-14.826-2.154-28.463-9.2463-42.42-14.455-21.228-8.721-43.444-19.07-66.861-17.076-10.236 1.8148-19.776 8.9593-23.313 18.906 4.1903-6.2919 10.154-12.788 17.781-14.188 7.8265-1.5955-0.064 4.0938-1.2442 7.2883-6.0184 10.247-9.1621 34.024-9.1621 34.024s2.9185-10.621 5.0626-15.375c2.3818-9.5842 5.6858-20.268 14.062-26.25 11.217-5.3696 23.31 1.2065 34.406 3.5 24.521 6.9828 45.995 22.775 71.343 26.735 5.4899 0.21499 13.51-0.24147 15.657-6.2038-1.3745-6.648-10.174-6.8271-14.531-10.875-4.2466-2.3995-12.536-5.9874-9.9062-12.219 2.4568-3.5598 9.8999-2.1529 10.812-7.3438-0.4126-0.11149-0.8134 0.10119-1.2187 0.1875z" color="#000000" fill="#fff" style="block-progression:tb;text-indent:0;text-transform:none"/><path transform="translate(936.08 774.52)" d="m299.81 38.375c-27.648 0.17474-59.47 3.006-80.531 8.2812-14.284 3.5776-19.529 9.2365-7.5312 16.031 68.316 49.302 145.07 69.875 222.72 95-47.922-109.15-76.019-119.7-129.22-119.31-1.8018-0.012-3.5945-0.0117-5.4375 0z" color="#000000" fill="url(#bg)"/><path transform="translate(936.08 774.52)" d="m34.094 95c-5.5732-0.22248-10.674 1.5112-15.125 5.6875 0.0356 21.974 33.32 137.63 34.375 144.88l-12.438 29.875c1.1506 7.9061 24.869 10.856 32.781 9.75l52.312-7.3125c6.2134-0.8684 9.0824-5.6131 10.906-11.375-9.6871-1.3089-17.441-2.005-22.656-2.9688-12.985-63.485-26.181-145.06-65.344-164.28-5.1604-2.5327-10.152-4.0639-14.812-4.25z" color="#000000"/><path transform="matrix(1.0764 0 0 1.03 886.9 769.52)" d="m474.04 169.69c-17.073 1.54 16.157 9.1446 20.96 10.839 15.887 5.6343 44.403 16.885 58.781 27.875 0.72587 0.18727 1.4717 0.44635 2.25 0.75 33.809 10.723 32.725 15.278 56.884 30.375 7.0773 4.4226 10.466 16.15 19.935 19.041 1.0319 0.39461 7.2109-0.55411 7.3996-0.94765 2.4772-5.166-10.568-44.293-55.161-67.588-29.264-15.288-85.048-17.732-111.05-20.345z" color="#000000" fill="url(#at)" filter="url(#ci)"/><path d="m1400.7 995.56c-43.594 1.6219-57.139 37.262-54.5 85.344l90.312 82.75c5.8918 5.3961-13.087 8.7592-11.687 16.625l-23.441 24.188c1.3995 7.866 32.079 15.125 39.952 13.77l57.113-7.9586c5.2573-0.9048 8.7901-4.4524 10.5-9.0937-2.0371-0.087-4.0719-0.1767-6.125-0.25l-6.25-3.0313c6.1273-109.64-46.282-204.19-95.875-202.34z" color="#000000"/><path transform="translate(936.08 774.52)" d="m465.19 232.66c-2.2807 0.038-4.5435 0.25395-6.8125 0.65625-36.306 6.4358-56.436 58.056-44.969 115.28s50.194 98.373 86.5 91.938 56.436-58.025 44.969-115.25c-10.751-53.649-45.476-93.195-79.688-92.625z" color="#000000" fill="url(#ae)" filter="url(#cl)"/><path transform="matrix(.86188 0 0 .86188 259.89 132.32)" d="m1841.5 910.57-1.1204 0.86179c-7.3688 5.5676-5.6204 31.7 1.6375 36.454 44.405 29.082 62.814 41.962 85.604 57.539-1.749-3.7793-3.72-7.3488-6.0038-10.6-31.752-44.591-54.761-69.773-80.117-84.254z" color="#000000" fill="url(#ay)" filter="url(#by)"/><path transform="translate(858.23 620.08)" d="m990.97 295.94c-7.013 2.2625-6.2563 28.523-0.71875 33.125 15.078 12.375 71.562 49.919 69.188 46.312-5.9771-13.262-48.64-79.981-68.469-79.438z" color="#000000" fill="url(#aa)" filter="url(#cw)"/><path d="m1471.4 977.65c-8.3786 0.29062-10.872 10.83-2.7842 23.732l46.404 37.72c6.5764 5.3443 43.023 36.36 51.144 38.78 7.1328 2.126 18.049 2.3683 21.147-1.5578-4.8564-26.086-33.138-61.834-50.05-72.49-25.504-16.069-25.8-15.512-60.624-25.224-1.9236-0.69961-3.6853-1.015-5.2369-0.96122z" color="#000000" fill="url(#v)" filter="url(#ch)"/><path d="m1903.6 1057.8c-3.7219 0.053-7.186 0.4648-9.5938 1.125l-160.94 44.125c-7.7052 2.1127-13.042 9.0149-13.312 17-0.2427 7.1619 0.2245 18.323 4.5938 24.562 4.5829 6.5446 13.686 12.813 21.656 12.25 48.77-3.4472 107.56-19.95 150.59-38.062 7.3638-3.0994 20.064-16.701 22.937-24.156 4.1948-10.883 9.5781-21.352 3.9688-31.344-2.2779-4.0579-11.718-5.6157-19.906-5.5z" color="#000000" fill="url(#bv)" filter="url(#db)"/><path transform="matrix(.99518 0 0 .99518 8.784 5.3361)" d="m1906 1057.8c0.3627 0.011 0.7303 0.013 1.0938 0.031-0.3664-0.016-0.7283-0.022-1.0938-0.031zm2.875 0.1562c0.5264 0.042 1.0418 0.07 1.5626 0.125-0.5207-0.055-1.0355-0.085-1.5626-0.125zm1.75 0.1562c1.2534 8.0782-2.7984 16.432-6.125 25.063-2.8733 7.455-15.574 21.057-22.937 24.156-43.032 18.112-101.82 34.615-150.59 38.062-2.2063 0.1559-4.4898-0.2167-6.75-0.9687 0.034 0.05 0.059 0.1071 0.094 0.1562 4.5829 6.5446 13.686 12.813 21.656 12.25 48.77-3.4472 107.56-19.95 150.59-38.062 7.3638-3.0994 20.064-16.701 22.937-24.156 4.1948-10.883 9.5781-21.352 3.9688-31.344-1.6322-2.9076-6.9526-4.5117-12.844-5.1563zm-186.41 86.313c-0.2671-0.3917-0.5118-0.792-0.75-1.2188 0.2366 0.4236 0.4847 0.8298 0.75 1.2188zm-4.3125-15.125c0.09 1.0829 0.2231 2.1637 0.375 3.25-0.1509-1.0769-0.2852-2.1764-0.375-3.25z" color="#000000" fill="url(#aj)"/><path transform="translate(936.08 774.52)" d="m607.41 324.69c-7.4868 7.3762 15.386 64.631 35.375 83.281 5.97 7.5255 75.343 13.583 110.12 16.219 172.09-24.125 243-67.344 243-67.344s-32.341 16.309-83.17 27.518c-29.707 6.5508-101.13 33.659-157.39 28.92-94.394-7.9525-74.24-20.267-44.875-80.844z" color="#000000" fill="url(#av)" filter="url(#ct)"/><path transform="translate(936.08 774.52)" d="m618.31 327.97c-3.3074 17.949 8.5039 34.224 16 49.781 6.7328 15.563 21.701 23.234 39.625 26.281 63.025 10.715 82.202 8.7498 82.202 8.7498s6.1995-8.023 6.002-15.992c-0.56607-23.867 0.50562-59.128-12.204-59.32-43.962 1.382-87.755-6.3354-131.62-9.5z" color="#000000" fill="url(#au)"/><path transform="translate(936.08 774.52)" d="m1005.3 268.03c-0.545 0.0773-9.9651 54.251-12.094 53.594-2.3723 7.6292 8.2926 4.7812 11.062 4.7812 2.7702 0 2.8438-3.9168 2.8438-11.906v-20.812c0-7.9896-1.8682-24.786-1.7812-25.5 0-0.11376-0.014-0.15874-0.031-0.15625z" color="#000000" fill="url(#w)" filter="url(#ce)"/><path transform="translate(936.08 774.52)" d="m538.38 206.03c-7.8994 0.274-10.25 10.211-2.625 22.375l43.75 35.562c6.2003 5.0386 40.562 34.28 48.219 36.562 6.7248 2.0044 17.017 2.2328 19.938-1.4688-4.5786-24.594-31.242-58.298-47.188-68.344-24.046-15.15-24.324-14.625-57.156-23.781-1.8136-0.6596-3.4747-0.95699-4.9375-0.90625z" color="#000000" fill="url(#q)" filter="url(#f)"/><path d="m1401.5 1029.6c-1.8474 0.032-3.7156 0.2354-5.5625 0.5624-14.736 2.6116-26.04 14.341-32.438 30.75-6.398 16.41-8.0539 37.592-3.5938 59.844 4.461 22.251 14.202 41.428 26.5 54.5 12.298 13.072 27.295 20.112 42.031 17.5 14.736-2.6113 26.063-14.372 32.469-30.781 6.4058-16.41 8.0545-37.561 3.5938-59.813-4.1816-20.861-13-39.012-24.219-51.969-7.827-9.04-16.882-15.594-26.344-18.656-0.048-0.2235-0.068-0.4736-0.125-0.6874-2.3538-0.5136-4.754-0.8249-7.125-0.9376-0.011-1e-4 -0.02 8e-4 -0.031 0h-0.031c-1.7141-0.2154-3.4014-0.3411-5.125-0.3124z" color="#000000"/><path transform="translate(936.08 774.52)" d="m795.72 144.06c-20.498 17.078-97.029 24.775-133.56 29.25-14.619 1.4624-31.609 2.3197-49.438 2.75 45.117 20.362 93.911 44.446 149.69 75.469 3.3374 1.8563 7.0269 2.3538 10.469 1.5938 65.091-10.189 98.714-19.387 126.88-23.594 2.8947-0.77555 3.6411-2.3927 3.8125-6.625 0.17141-4.2323-78.991-66.874-107.84-78.844z" color="#000000" fill="url(#x)" filter="url(#cm)" stroke="#fff" stroke-linecap="round" stroke-linejoin="round" stroke-width="1.0149"/><path d="m1598.3 949.68c-0.3162 0.0104-0.6203 0.0686-0.9375 0.15625-3.5934 2.5558 2.5062 5.3884 4.5312 6.625 25.506 14.205 51.792 27.817 78.781 39.094 2.8258 1.8035 5.5235-2.2357 2.4062-3.8125-25.037-15.036-51.655-27.785-78.312-39.906-2.0718-0.58691-4.2558-2.2294-6.4687-2.1562z" color="#000000" fill="url(#bh)" filter="url(#bx)"/></g><path d="m1341.5 774.53c-4.8643 5e-3 -9.6839 0.0373-14.437 0.125-60.065 1.1077-119.49 13.935-178.66 23.719-65.027 0.6894-136.28 19.999-162.88 22.125-43.673 3.4917-46.552 62.864-49.344 97.438-0.60887 7.5402 0.92063 2.1816 1.875 15.594 1.2208-22.084 16.356-57.45 21.119-67.669 4.2645-30.635 23.53-41.306 55.31-43.847 26.595-2.1262 71.173-18.487 136.2-19.176 59.163-9.7842 124.31-27.075 184.37-28.183 4.529-0.0835 9.1196-0.11687 13.75-0.125-2.4552-0.0184-4.8804-2e-3 -7.3126 0z" fill="url(#bs)" filter="url(#cg)"/><g><path d="m1219.7 804.57c-31.498 0.19487-67.726 3.3398-91.719 9.2222-16.272 3.9895-22.246 10.282-8.5778 17.859 77.826 54.977 165.25 77.935 253.71 105.95-54.594-121.71-86.588-133.46-147.19-133.03-2.0526-0.0134-4.1228-0.013-6.2223 0z" color="#000000" fill="url(#bi)" filter="url(#cj)"/><path d="m1229.1 809.33c-27.668 0.17487-59.496 3.0224-80.572 8.3014-14.294 3.5802-19.544 9.2233-7.5384 16.023 68.363 49.336 145.15 69.926 222.85 95.069-47.956-109.22-76.044-119.78-129.28-119.39-1.8031-0.012-3.6187-0.0116-5.463 0z" color="#000000" fill="url(#ax)"/><path transform="translate(936.08 774.52)" d="m39.281 83.75c-1.4856 7e-3 -2.9564 0.15012-4.4375 0.4375-23.697 4.5964-37.255 44.267-30.281 88.625-3.4855-39.71 10.458-73.353 33.438-77.562 15.32-2.8066 31.102 8.155 42.75 27.188-10.189-23.486-25.818-38.746-41.469-38.688z" color="#000000" fill="#fff" filter="url(#cs)"/><path transform="translate(936.08 774.52)" d="m35.5 87.125c-1.3861 5e-3 -2.7744 0.13815-4.1562 0.375-22.11 3.7899-34.757 36.488-28.25 73.062-3.2521-32.742 9.7784-60.466 31.219-63.938 14.294-2.3141 29.007 6.6823 39.875 22.375-9.507-19.365-24.085-31.923-38.688-31.875z" color="#000000" fill="#e6e6e6" filter="url(#cr)"/><path transform="translate(936.08 774.52)" d="m38.406 89.906c-1.534 6e-3 -3.0331 0.1719-4.5625 0.5-24.47 5.2496-38.483 50.558-31.281 101.22-3.5992-45.353 10.803-83.786 34.531-88.594 8.4041-1.7029 16.945 1.0266 24.906 7.2188 0.0114 9e-3 0.01985 0.0224 0.03125 0.0312 28.549 29.67 40.053 98.516 51.344 153.72 11.709 2.1637 35.543 2.7632 67.656 12.719 65.857 20.417 159.45 56.684 225.19 84.938 3.7017 4.4748 6.1817 14.977 15 15.188-0.5488-2.0978-1.0752-4.193-1.5938-6.2812-2.086-3.144-3.6094-6.7342-5.4062-8.9062-65.737-28.253-159.33-64.521-225.19-84.938-32.113-9.9555-55.948-10.555-67.656-12.719-11.854-57.957-23.913-130.97-55.719-157.88-8.3245-10.32-17.789-16.258-27.25-16.219z" color="#000000"/><path transform="translate(936.08 774.52)" d="m43.5 100.75c-1.6971 6e-3 -3.4018 0.1719-5.0938 0.5-27.072 5.2496-42.561 50.589-34.594 101.25 7.9675 50.661 36.397 87.468 63.469 82.219 27.072-5.2496 42.561-50.589 34.594-101.25-7.4696-47.495-32.919-82.814-58.375-82.719z" color="#000000" fill="url(#z)"/></g><g><path d="m988.02 904.98c5.7406 2.3985 11.435 7.3564 16.448 14.425 3.4258 4.8304 6.4979 10.608 9.0891 17.123-4.6173 6.0116-10.352 14.197-19.028 6.1864-11.344-10.473-6.0065-27.832-6.5089-37.734z" color="#000000"/><path d="m971.31 905.81c0.34928 9.6452 10.326 25.915 0.61571 40.373-6.8812 10.246-13.808 4.2743-19.292-0.1466 0.62941-7.1599 1.9628-13.767 3.9288-19.527 3.3797-9.9016 8.514-17.148 14.748-20.7z" color="#000000"/><path d="m1019.6 957.64c0.2052 1.1065 0.4092 2.2155 0.5864 3.3424 2.6571 16.903 1.6127 32.96-2.199 45.445-2.8872-7.188-16.37-10.747-13.81-31.02 1.9397-15.356 9.5685-16.406 15.422-17.768z" color="#000000"/><path d="m953.45 967.79c5.2536-0.1834 11.16 0.967 15.012 12.93 4.2112 13.081-0.38706 20.587-4.134 26.564-4.8632-9.2414-8.6579-20.62-10.643-33.248-0.32756-2.0838-0.57486-4.1629-0.79163-6.2158 0.18981-0.01 0.36543-0.023 0.55707-0.029z" color="#000000"/><path d="m989.75 997.93c14.232-0.078 12.756 27.767 20.26 24.628-3.7298 4.7736-8.1674 7.8379-13.106 8.7959-7.1846 1.3938-14.72-1.7925-21.579-8.6492 1.726-8.2106 1.4691-23.004 12.754-24.658 0.58146-0.085 1.1356-0.1144 1.6712-0.1173z" color="#000000"/></g><g><path d="m1139.6 982.31c-17.873-0.19424-63.642 22.395-46.647 34.991l247.18 80.134c-0.1138-0.4909-0.2344-0.9755-0.3437-1.4688-2.5199-11.375-3.5944-22.509-3.4063-33.094l-192.09-79.812c-1.6269-0.49741-3.1729-0.73355-4.6875-0.75z" color="#000000" fill="url(#ao)" filter="url(#cc)"/><path d="m1140.4 979.59c-17.873-0.19424-27.214 30.966-10.219 43.562l209.38 71.094c-2.1869-11.756-2.8485-23.22-2.1562-34l-192.31-79.906c-1.6269-0.49741-3.1729-0.73355-4.6875-0.75z" color="#000000" fill="url(#ap)" filter="url(#e)"/><path d="m1874.2 941.83c-1.0314 2.5034-1.5889 5.2543-1.5889 8.1395 0 11.618 5.0623 15.338 13.322 23.196 9.81 9.3335 19.05 14.035 25.152 16.206-0.7889-1.361-1.6073-2.6986-2.4933-3.9598-12.798-17.973-23.932-32.226-34.391-43.582z" color="#000000" fill="url(#bj)" filter="url(#cv)"/><path transform="matrix(.8952 0 0 .8952 198.01 101.19)" d="m1877.8 951.12c6.2931 0.49578 12.101 4.5478 14.975 10.132 2.9018 4.9756 5.981 9.9168 7.9718 15.346 0.9487 1.4828 0.4049 4.2733-1.8288 3.2776-3.5673-1.3727-6.6949-3.6531-9.839-5.786-2.8899-2.0784-5.7922-4.1641-8.5696-6.3776-1.1389-0.62156-2.6313-1.447-2.3973-2.9678-0.104-4.5411-0.208-9.0822-0.312-13.623z" color="#000000" fill="url(#al)" filter="url(#cu)"/><path d="m979.59 895.02c-1.3332 5e-3 -2.679 0.14007-4.0082 0.39793-21.267 4.1258-33.429 39.771-27.17 79.587s28.575 68.744 49.842 64.618c21.267-4.1257 33.429-39.771 27.17-79.587-5.8679-37.328-25.836-65.091-45.834-65.016z" color="#000000" fill="url(#ac)"/><path transform="matrix(.97419 0 0 1.0543 40.925 -58.594)" d="m1495.2 998.84c-7.1827-0.18376-4.3611 12.473 2.125 24.844l18.219 14.812c6.2002 5.0386 40.562 34.28 48.219 36.562 6.1189 1.8238 15.183 2.1771 18.969-0.5625-2.5649-3.2812-9.7223-8.8173-18.687-14.438-2.9585-1.8544-15.096 1.3758-18.094-1.5625-2.6727-2.6195-4.8127-5.4984-6.625-8.5-2.3-2.5895-4.9627-5.8924-8.0938-10.125l-7.6874-7.9062c-2.3805-3.7538-0.5421-8.3693 2.2812-10.375-0.371-0.6155-0.7252-1.2405-1.125-1.8438-6.8161-10.286-20.526-18.85-26.469-20.25-1.1707-0.42098-2.1634-0.63405-3.0312-0.65625z" color="#000000" fill="url(#bl)" filter="url(#cf)"/><path transform="translate(936.08 774.52)" d="m43.969 124.94c-1.2508 5e-3 -2.5029 0.16432-3.75 0.40625-1.3497 0.26185-2.6686 0.66296-3.9375 1.1875-0.0474 0.0733-0.08112 0.17485-0.125 0.25-8.5854 3.4757-15.101 12.333-19.094 24.031-4.5715 13.393-5.9239 30.727-3.0938 49l0.03125 0.28125c2.8893 18.38 9.4543 34.262 17.906 45.219 8.4519 10.957 19.018 17.145 29.594 15.094 10.576-2.0517 18.53-11.786 23.125-25.25 4.5956-13.464 5.9518-30.902 3.0625-49.281-2.7087-17.231-8.6844-32.25-16.375-43.094-5.8763-8.2856-12.8-14.183-20.188-16.5-0.0121-0.0284-0.01885-0.0657-0.03125-0.0937-2.3586-0.80104-4.7383-1.259-7.125-1.25zm7.9688 5.5312c5.7406 2.3985 11.424 7.3374 16.438 14.406 3.4258 4.8304 6.5026 10.611 9.0938 17.125-4.6173 6.0116-10.355 14.198-19.031 6.1875-11.344-10.473-5.9976-27.817-6.5-37.719zm-16.719 0.8125c0.34928 9.6452 10.335 25.917 0.625 40.375-6.8812 10.246-13.797 4.2646-19.281-0.15625 0.62941-7.16 1.9402-13.771 3.9062-19.531 3.3797-9.9016 8.5163-17.136 14.75-20.688zm48.281 51.844c0.2052 1.1065 0.3853 2.2169 0.5625 3.3438 2.6571 16.903 1.6242 32.952-2.1875 45.438-2.8872-7.188-16.373-10.758-13.812-31.031 1.9397-15.356 9.5838-16.389 15.438-17.75zm-66.125 10.125c5.2536-0.18339 11.149 0.97455 15 12.938 4.2112 13.081-0.37801 20.586-4.125 26.562-4.8632-9.2414-8.6711-20.622-10.656-33.25-0.32756-2.0838-0.56448-4.1658-0.78125-6.2188 0.18981-0.01 0.37086-0.0246 0.5625-0.0312zm36.312 30.156c14.232-0.0776 12.746 27.763 20.25 24.625-3.7298 4.7736-8.1866 7.8545-13.125 8.8125-7.1846 1.3938-14.703-1.7996-21.562-8.6562 1.726-8.2106 1.4651-23.003 12.75-24.656 0.58146-0.0852 1.1519-0.12208 1.6875-0.125z" color="#000000" fill="url(#ad)" stroke="url(#bt)" stroke-width="3"/><path d="m1400.8 1024.3c-1.9684 0.034-3.9592 0.2508-5.9273 0.5991-15.702 2.7821-27.747 15.277-34.565 32.757-6.8176 17.481-8.5823 40.046-3.8296 63.75 4.7535 23.704 15.134 44.132 28.238 58.057 13.104 13.925 29.085 21.424 44.788 18.642 15.702-2.7818 27.772-15.31 34.598-32.79 6.8259-17.481 8.5828-40.012 3.8295-63.716-4.4559-22.222-13.852-41.558-25.807-55.361-8.3405-9.6299-17.989-16.611-28.071-19.874-0.052-0.2381-0.072-0.5046-0.1332-0.7323-2.5081-0.547-5.0658-0.8788-7.5923-0.9988-0.011-3e-4 -0.022 8e-4 -0.033 0h-0.033c-1.8264-0.2295-3.6244-0.3634-5.4611-0.3328zm-10.556 6.0919c0.3127 12.997 15.048 35.157 0.8324 54.828-11.709 16.204-23.947 2.205-32.367-3.1291v-0.033c0.9455-8.341 2.7969-16.072 5.4609-22.903 5.615-14.398 14.653-24.686 26.074-28.762zm24.309 0.566c8.5924 3.2056 16.949 9.3971 24.408 18.01 5.2574 6.0697 10.066 13.312 14.119 21.472-6.9575 8.1136-15.562 21.74-29.104 10.12-15.94-13.678-9.2259-36.038-9.4238-49.601zm48.784 68.976c0.1791 0.8133 0.368 1.6414 0.5329 2.4634 4.6134 23.008 2.8419 44.88-3.6297 61.452-0.5494 1.4071-1.1511 2.7678-1.7648 4.0946-2.9312-10.622-24.428-14.642-20.546-43.21 3.1646-23.284 16.748-22.298 25.407-24.801zm-97.634 14.481c7.2486 0.023 15.096 2.3213 20.346 17.477 6.0421 17.441-0.3595 27.532-5.7607 35.553-8.9781-12.512-16.13-28.637-19.78-46.838-0.3965-1.9787-0.6958-3.9333-0.9989-5.8922 1.5188-0.09 3.1194-0.2127 4.7619-0.2664 0.4768-0.017 0.9485-0.035 1.4318-0.033zm51.315 40.713c17.912-0.09 18.709 28.124 25.674 32.957-4.2001 3.0086-8.8409 5.0652-13.886 5.9588-10.7 1.8958-21.817-1.5936-32.034-9.2877 1.8833-11.341 3.1723-27.468 17.815-29.461 0.8454-0.1149 1.652-0.1625 2.4309-0.1664z" color="#000000" fill="url(#af)"/><path d="m1401.5 1029.6c-1.8474 0.032-3.7156 0.2354-5.5625 0.5624-14.736 2.6116-26.04 14.341-32.438 30.75-6.398 16.41-8.0539 37.592-3.5938 59.844 4.461 22.251 14.202 41.428 26.5 54.5 12.298 13.072 27.295 20.112 42.031 17.5 14.736-2.6113 26.063-14.372 32.469-30.781 6.4058-16.41 8.0545-37.561 3.5938-59.813-4.1816-20.861-13-39.012-24.219-51.969-7.827-9.04-16.882-15.594-26.344-18.656-0.048-0.2235-0.068-0.4736-0.125-0.6874-2.3538-0.5136-4.754-0.8249-7.125-0.9376-0.011-1e-4 -0.02 8e-4 -0.031 0h-0.031c-1.7141-0.2154-3.4014-0.3411-5.125-0.3124z" color="#000000"/><path transform="translate(936.08 774.52)" d="m460.03 256.44c-4.0655 0.65254-16.004 18.695-12.219 11.719-18.605 12.39-27.678 44.398-20.688 79.281 8.3791 41.813 36.66 71.89 63.188 67.188 11.04-1.957 20.022-9.6336 26.156-20.938-3.6959 2.4603-11.791 3.6582-16.188 4.4375-27.032 2.6823-45.036-14.596-51.938-70.844-1.8875-15.384 12.118-57.947 12.969-68 0.18819-2.2238-0.34305-2.9943-1.2812-2.8438z" color="#000000" fill="url(#r)"/><path transform="translate(936.08 774.52)" d="m435.84 277.97c-1.8137 2.9864-3.4258 6.2558-4.8125 9.8125-2.3087 5.9215-3.967 12.571-4.9062 19.719 0.318 0.4421 0.64335 0.8724 0.96875 1.3125 0.7081 0.9575 1.4286 1.9162 2.1562 2.8438 7.615 5.6576 17.503 13.783 27.031 0.59375 0.7152-0.9899 1.341-1.9984 1.9062-3-6.5207-7.1313-13.327-16.272-20.5-27.688-0.6364-1.0127-1.2406-2.2382-1.8438-3.5938z" color="#000000" fill="url(#be)"/><path transform="translate(936.08 774.52)" d="m465.41 255.06c-1.8474 0.032-3.7156 0.2355-5.5625 0.5625-14.736 2.6116-26.04 14.341-32.438 30.75-6.398 16.41-8.054 37.592-3.5938 59.844 4.4609 22.251 14.202 41.428 26.5 54.5 12.298 13.072 27.295 20.112 42.031 17.5 14.736-2.6113 26.063-14.372 32.469-30.781 6.4058-16.41 8.0544-37.561 3.5938-59.812-4.1816-20.861-13-39.012-24.219-51.969-7.8271-9.04-16.882-15.594-26.344-18.656-0.048-0.2235-0.068-0.4737-0.125-0.6875-2.3538-0.5135-4.754-0.8248-7.125-0.9375-0.011-2e-4 -0.0202 7e-4 -0.0312 0h-0.0312c-1.7141-0.2154-3.4014-0.3412-5.125-0.3125zm-9.9062 5.7188c0.2934 12.2 14.122 33.003 0.78125 51.469-10.989 15.211-22.473 2.0698-30.375-2.9375v-0.0312c0.8874-7.83 2.6249-15.088 5.125-21.5 5.2694-13.516 13.751-23.174 24.469-27zm22.812 0.53125c8.0636 3.0092 15.906 8.8214 22.906 16.906 4.9337 5.6979 9.4469 12.497 13.25 20.156-6.5292 7.6166-14.604 20.408-27.312 9.5-14.959-12.84-8.658-33.83-8.8438-46.562zm45.781 64.75c0.1679 0.7635 0.3453 1.541 0.5 2.3125 4.3295 21.598 2.667 42.13-3.4062 57.688-0.5155 1.3209-1.0802 2.5982-1.6562 3.8438-2.7508-9.9714-22.925-13.745-19.281-40.562 2.9698-21.857 15.717-20.932 23.844-23.281zm-91.625 13.594c6.8025 0.021 14.167 2.179 19.094 16.406 5.6702 16.372-0.33745 25.845-5.4062 33.375-8.4255-11.746-15.137-26.883-18.562-43.969-0.3722-1.8574-0.653-3.6924-0.9375-5.5312 1.4253-0.085 2.9274-0.1996 4.4688-0.25 0.4475-0.015 0.89025-0.0333 1.3438-0.0312zm48.156 38.219c16.81-0.085 17.558 26.401 24.094 30.938-3.9416 2.8242-8.2966 4.7548-13.031 5.5938-10.042 1.7796-20.474-1.496-30.062-8.7188 1.7674-10.646 2.977-25.785 16.719-27.656 0.7934-0.108 1.5502-0.15255 2.2812-0.15625z" color="#000000" fill="url(#as)" stroke="url(#bu)" stroke-linecap="round" stroke-linejoin="round" stroke-width="3"/><path transform="translate(936.08 774.52)" d="m49.375 176.66c-0.26861 1e-3 -0.54468 4e-3 -0.8125 0.0625-4.2849 0.93041-6.7298 8.9897-5.4688 17.969 1.2611 8.979 5.7464 15.493 10.031 14.562 4.2849-0.93039 6.7298-8.9585 5.4688-17.938-1.1823-8.4178-5.1895-14.673-9.2188-14.656z" color="#000000" fill="url(#aq)" stroke="url(#bm)" stroke-width="1.3366"/><path transform="translate(936.08 774.52)" d="m457.81 206.94c-2.4905 0.0364-4.9598 0.26662-7.4375 0.65625-21.152 5.8369-46.45 42.067-44.062 100.53 0.5731 14.036 5.9727 35.548 9.1875 48.906-0.1621-0.693-0.31055-1.3711-0.46875-2.0625 1.2072 2.627 2.4758 5.1918 3.8125 7.6875-17.017-74.866-13.042-140.82 46.656-143.06 23.057-0.865 46.717 19.113 64.938 51.781 0.18 0.3227 0.35235 0.64355 0.53125 0.96875 0.055 0.1032 0.10105 0.2091 0.15625 0.3125 6.2503 11.735 11.796 24.944 16.344 39.312-0.091-0.7911-0.2058-1.5804-0.3125-2.375 0.8006 2.3647 1.5956 4.7568 2.3438 7.1875-0.068-0.6035-0.14255-1.207-0.21875-1.8125 10.022 32.245 15.321 70.275 13.125 110.28l6.25 3.0938c51.245 1.8639 97.322 8.2092 146.09 7.9688-45.836-0.4277-89.664-6.2074-138.09-7.9688l-6.25-3.0938c3.9614-72.17-16.57-137.89-44.969-174.84-17.485-26.823-42.656-43.838-67.625-43.469z" color="#000000" fill="url(#bk)" filter="url(#cy)"/><path d="m1057.2 1038.6c13.083 1.6004 33.691 3.4785 59.969 11.625 65.857 20.417 159.45 56.684 225.19 84.938 3.7017 4.4748 6.1817 14.977 15 15.188-0.066-0.2503-0.1278-0.4996-0.1875-0.75-2.3484-6.1465-4.3506-12.609-6-19.312-0.2698-0.4002-0.5326-0.7866-0.8125-1.125-65.737-28.253-159.33-64.521-225.19-84.938-32.113-9.9555-55.948-10.555-67.656-12.719-0.3643-0.6969-0.1796 5.6942-0.3126 7.0938z" color="#000000" fill="#4d4d4d" filter="url(#cb)"/><path transform="translate(936.08 774.52)" d="m168.31 205.41c-5.0915 0.0383-10.619 0.34745-15.219 2.8125-3.7795 3.1894 0.0111 6.9252 0.4375 10.281 1.276 5.6427 2.407 11.483 1.5938 17.375-0.9391 4.5917-3.956 8.6792-6.7812 12.656-0.059 3.2549 5.9375 1.8288 8.4375 2.8438 13.299 1.7859 26.608 3.5578 39.906 5.3438 2.723-0.71 3.4122-3.6236 5.8438-4.7188 7.5791-1.8946 12.816-8.6634 13.219-15.219 0.4808-6.3966-0.0307-12.777-1.125-19-0.8894-3.9109-2.1796-8.1652-5.7188-10.75-3.267-1.5078-7.3018-0.66668-10.938-0.96875-9.8994-0.11157-19.803-0.19067-29.656-0.65625z" color="#000000" fill="url(#am)"/><path d="m1086.2 959.07c-10.876 0.23695-18.257 7.882-20.344 20.811-1.6589 6.7254 2.672 19.071 8.6969 25.857 13.498 15.205 55.025 26 55.025 26s-1.8957-21.452-0.6233-30.26c2.6821-17.764 21.796-20.18 12.902-23.483l-49.281-18.296c-2.2423-0.47838-4.3605-0.67261-6.375-0.62872z" color="#000000" fill="url(#i)" opacity=".98276"/><path d="m1598.8 949.59c-0.4291 0.56598 18.066 12.268 41.312 26.125 23.246 13.857 42.446 24.628 42.875 24.062 0.4292-0.566-18.066-12.237-41.312-26.094-23.246-13.857-42.446-24.66-42.875-24.094z" color="#000000" fill="#fff"/><path d="m1142 931.16-0.152 7.4748 24.946 8.6598 0.1519-7.4748-24.946-8.6598z" color="#000000" fill="url(#p)" stroke="url(#o)" stroke-width="3"/><path transform="translate(936.08 774.52)" d="m208.66 158.44-0.125 5.8125 19.375 6.7188 0.125-5.8125-19.375-6.7188z" color="#000000" fill="url(#n)" stroke="url(#bb)" stroke-linecap="round" stroke-linejoin="round"/></g><path transform="translate(936.08 774.52)" d="m272.47 138.42s226.71 92.536 178.13 70.765c-52.902-26.242-178.13-70.765-178.13-70.765z" fill="url(#d)" fill-rule="evenodd" filter="url(#cn)"/><g><path transform="translate(936.08 774.52)" d="m458.69 208.09c-18.471 2.0383-30.925 16.291-38.438 32.5 15.801-25.887 55.622-30.182 77.469-9.5312 26.483 22.008 40.302 55.134 51 86.969 9.8987 34.147 13.595 69.997 11.688 105.47 10.707 6.1579 23.687 2.4139 35.375 4.5625 38.964 2.5056 77.879 6.7136 116.97 6.5-46.909-0.8928-93.726-5.7084-140.47-8.75-8.1245-11.752-0.78845-30.33-4.4062-44.844-3.7366-47.522-16.666-96.177-46.312-134.31-15.969-18.109-36.342-35.867-61.281-38.5l-1.5938-0.0625zm-38.438 32.5c-0.23332 0.38226-0.46479 0.76458-0.6875 1.1562-10.66 18.758-13.129 37.775-12.062 58.938-0.28546-15.841 1.2364-31.741 6.5938-42.594 1.4673-5.7729 3.4967-11.762 6.1562-17.5zm-12.75 60.094c0.2572 14.273 1.9874 28.465 3.6562 38.906-0.13987-1.7793-0.16791-3.3666 0.0937-4.5625-1.77-12.176-3.2056-23.537-3.75-34.344zm3.6562 38.906c0.32959 4.1928 1.4725 9.3226 2.3438 12.719-0.63368-2.8558-1.4686-7.2436-2.3438-12.719zm2.3438 12.719c0.49709 2.2402 0.88929 3.5881 1 3.625 0 0-0.453-1.4927-1-3.625z" color="#000000" fill="url(#ar)" filter="url(#cx)"/><path transform="translate(936.08 774.52)" d="m472.38 316.25c-0.4525 0.015-0.89355 0.0451-1.3438 0.125-7.2017 1.2766-11.181 11.524-8.9062 22.875 2.2749 11.352 9.9544 19.495 17.156 18.219 7.2017-1.2766 11.181-11.492 8.9062-22.844-2.1327-10.642-9.0262-18.488-15.812-18.375z" color="#000000" fill="url(#ag)" stroke="url(#bo)"/><path d="m1233.5 824.34c-7.2195 0.0315-12.852 0.5705-14.312 2.0312-7.9049 7.9052-7.9687 32.594-7.9687 32.594l2.5312 15.125c43.242 20.071 88.693 33.595 134.59 48.281-1.9585-3.6162-5.1851-8.1029-9.9375-13.656l-60.625-57.094s17.877-11.735 16-18.438-10.307-3.6218-16.5-5.2812c-4.2578-1.1409-27.898-3.6318-43.781-3.5625z" color="#000000" fill="#333"/><path d="m1257.9 828.62c-9.8594 0.0829-18.55 0.97549-21.281 3.0625-7.2841 5.5654-7.9687 32.594-7.9687 32.594l2.9687 17.719c40.572 17.052 82.825 29.389 125.38 43.156-2.6236-5.9754-5.1819-11.605-7.6875-16.969-14.282-12.781-54.125-48.629-54.125-51.25 0-3.1641 0.6156-19.587-0.5-23.75-0.6972-2.6022-20.349-4.7007-36.781-4.5625z" color="#000000" fill="#808080"/><path d="m1425.4 846.86 54.576 56.109 22.575 27.083 57.505-42.173c-42.168-19.697-85.751-36.262-134.66-41.019z" color="#000000" fill="url(#ba)"/><path transform="translate(936.08 774.52)" d="m489.84 47.688c-34.797 3.9092-69.833 7.8468-95.906 11.344 17.841 26.904 32.367 47.32 60.531 99.062 3.0847 5.4229 86.035 10.755 155.94 9.1562 3.2334-4.5401-3.8354-12.436-26.312-25.406l-94.719-74.188s-0.35219-10.134 0.46875-19.969z" color="#000000" fill="url(#az)"/></g><path transform="translate(936.08 774.52)" d="m531.91 51.375c-0.5672 0.69477-1.1633 1.4126-1.6875 2.25-0.936 1.4956-1.5881 3.4234-1.25 6.1562 0.3544 2.8663 2.4016 5.4056 3.9688 8.25 1.5671 2.8443 2.7132 5.8685 1.625 9.7188l-0.0312 0.0625v0.09375c-0.067 2.0063-0.129 4.012-0.125 6.0312h0.96875c0-1.993 0.0267-3.9976 0.0937-6 1.1111-4.1574-0.1511-7.598-1.75-10.5-1.6221-2.944-3.5228-5.4698-3.8125-7.8125-0.3065-2.4761 0.25435-4.0027 1.0938-5.3438 0.5803-0.92702 1.3008-1.762 2-2.6562l-1.0938-0.25z" color="#000000" fill="url(#bd)" style="block-progression:tb;text-indent:0;text-transform:none"/><g><path transform="translate(936.08 774.52)" d="m598.88 84.938c-13.313 0.30038-27.804 8.7967-37.25 23.281-6.6262 10.16-9.5354 21.384-8.9375 31.438 0.03 0.50276 0.077 1.0034 0.125 1.5 0.048 0.50176 0.0901 1.0052 0.15625 1.5 1.2361 9.2726 5.614 17.277 13 22.094 15.97 10.415 39.902 1.99 53.469-18.812 7.236-11.095 10.052-23.474 8.6875-34.188-0.074-0.58622-0.1503-1.1746-0.25-1.75-0.184-1.0634-0.4184-2.1018-0.6875-3.125-0.045-0.16955-0.078-0.33166-0.125-0.5-0.097-0.34714-0.2061-0.68939-0.3125-1.0312-0.1616-0.51901-0.34695-1.0251-0.53125-1.5312-0.1782-0.48948-0.3631-0.96085-0.5625-1.4375v-0.0312c0-0.0127-0.0263-0.0186-0.0312-0.0312-0.2018-0.47953-0.4017-0.94055-0.625-1.4062-2.2392-4.6708-5.5442-8.6552-9.9062-11.5-4.4917-2.9293-9.5933-4.3757-14.938-4.4688-0.42679-0.0074-0.8518-0.0097-1.2812 0zm-0.5 6.6875c4.9318-0.17501 9.6933 1.0011 13.812 3.6875 3.3633 2.1934 5.9384 5.1995 7.7812 8.7188-4.5397 4.5137-9.5476 8.7225-15.062 12.625-4.0155-0.60109-9.2337 0.49095-14.375 3.3438-5.115 2.8383-9.0612 6.8176-11.094 10.75-5.7738 2.4608-11.932 4.6665-18.5 6.625-0.7512-8.4852 1.5834-18.078 7.2188-26.719 7.6547-11.737 19.369-18.646 30.219-19.031zm24.812 24.031c0.5994 8.3424-1.7758 17.683-7.2812 26.125-11.134 17.072-30.881 23.94-44.062 15.344-3.4522-2.2514-6.09-5.3293-7.9375-8.9688 6.183-2.7925 11.096-4.2414 16.594-6.3125 3.8717 3.0374 11.504 2.5937 18.938-1.5312 7.5977-4.2159 12.583-10.944 12.594-16.312 3.3837-2.428 7.0938-5.1862 11.156-8.3438z" color="#000000" fill="url(#ah)"/><path transform="translate(936.08 774.52)" d="m294.19 38.375c-26.012 0.1644-55.935 2.8182-75.75 7.7812-13.439 3.366-18.35 8.701-7.0625 15.094 64.273 46.384 136.47 65.737 209.53 89.375-45.087-102.69-71.51-112.61-121.56-112.25-1.6952-0.0113-3.4222-0.011-5.1562 0z" color="#000000" fill="url(#y)" opacity=".9"/><path transform="translate(936.08 774.52)" d="m272.41 38.344c-1.3919 0.085-2.7678 0.15297-4.1562 0.25l-30.281 41.375c0.9141 0.5482 1.8334 1.0849 2.75 1.625l31.688-43.25z" color="#000000" fill="url(#br)"/><path d="m1206.5 813.11c-1.3514 0.0825-2.712 0.16357-4.0601 0.25778l-29.388 40.15c0.8875 0.53225 1.7846 1.0546 2.6745 1.5789l30.773-41.987z" color="#000000" fill="url(#j)" style="block-progression:tb;text-indent:0;text-transform:none"/><path transform="translate(936.08 774.52)" d="m615.53 30.781c-23.156 7.0918-156.06 19.352-223.69 28.531 18.839 29.508 33.357 50.027 62.625 105.59 3.8689 7.0287 133.42 13.968 205.22 6.7188 49.051-6.0643 171.49-18.084 126.53-51.688-3.7319-2.7893-7.4552-5.3202-11.156-7.7188-54.808-29.514-109.81-57.068-159.53-81.438z" color="#000000" fill="url(#l)" opacity=".9" stroke="url(#k)" stroke-linecap="round" stroke-linejoin="round"/><path d="m1436.4 946.88c110.96 47.979 47.242 20.64 99.106 60.709 10.929 6.8858 26.975 25.055 37.25 43.625 5.551 8.8725 9.6017 18.583 11.375 29.125 2.2328 13.274 115.6 18.154 125.53 16.094 57.552-17.153 209.42-43.174 214-59.83-30.474 17.204-158.53 39.247-210.5 54.737-10.074 2.0896-125.08-2.8487-127.34-16.312-1.7987-10.693-5.9008-20.532-11.531-29.531-10.422-18.836-26.696-37.266-37.781-44.25-59.714-37.514-4.4841-17.127-88.969-54.063-6.8438-0.40272-5.2325 0.18525-11.138-0.30235z" color="#000000" fill="#e6e6e6" filter="url(#ck)"/><path transform="matrix(1.5564 0 0 1.5564 -855 -578.09)" d="m1528.3 1020.6c-3.9753 0.4024-7.7793 6.5979-4.75 11.375l7.6874 7.9062c36.596 49.475 13.507-21.594-1.25-19.062-0.5558-0.1998-1.1196-0.2762-1.6874-0.2187z" color="#000000" fill="url(#ab)"/><path transform="translate(936.08 774.52)" d="m542.72 210.09c-7.2295 0.25076-9.3847 9.3672-2.4062 20.5l40.031 32.531c5.6745 4.6113 37.118 31.38 44.125 33.469 6.1545 1.8344 15.577 2.0438 18.25-1.3438-4.1903-22.508-28.595-53.369-43.188-62.562-22.006-13.865-22.265-13.37-52.312-21.75-1.6598-0.60366-3.1612-0.89019-4.5-0.84375z" color="#000000" fill="url(#aw)" filter="url(#f)"/><path d="m1903.6 1057.8c-3.7072 0.053-7.1575 0.4648-9.5558 1.125l-160.3 44.125c-7.6747 2.1127-12.991 9.0149-13.26 17-0.2398 7.1056 0.2248 18.14 4.4822 24.406 2.2512 0.7521 4.5257 1.1246 6.7232 0.9687 48.577-3.4472 107.14-19.95 150-38.062 7.3346-3.0994 19.985-16.701 22.846-24.156 3.3133-8.6305 7.3491-16.984 6.1007-25.063-2.3213-0.2549-4.7226-0.3765-7.0344-0.3437z" color="#000000" fill="url(#bn)"/><path d="m1143.2 978.14c-1.5297 2.5787-4.5 3.8849-6.5505 6.0262-5.3037 4.5909-8.5171 11.414-8.5246 18.445-0.3147 8.56 0.2647 17.124 0.9355 25.654-14.552-4.0886-29.006-9.058-42.175-16.577-3.275-1.937-6.4531-4.0795-9.2554-6.6651 6.9542 7.3411 16.369 11.657 25.488 15.66 9.0683 3.791 18.403 6.9378 27.884 9.5246-0.6873-9.7613-1.5892-19.603-0.6068-29.371 0.9264-7.1756 5.6752-13.205 11.363-17.397 1.7233-1.3697 5.7325-4.0128 1.4414-5.2994z" color="#000000" fill="url(#bp)" filter="url(#ca)" opacity=".98276"/><path transform="translate(936.08 774.52)" d="m190.56 49.438c-0.30579 0.01683-0.63353 0.15402-0.9375 0.21875-5.8095 1.2068-14.375 3.9457-14.344 11.156 2.0169 5.5886 9.9014 5.4311 14.031 9.0938 3.9402 2.8316 12.29 4.5106 11.625 10.844-2.2022 3.2846-7.986 2.1892-11.781 2.25-14.826-2.154-28.45-9.229-42.406-14.438-21.228-8.721-43.457-19.087-66.875-17.094-10.236 1.8148-19.776 8.9593-23.312 18.906 4.1903-6.2919 10.154-12.788 17.781-14.188 7.8265-1.5955-0.03855 4.118-1.2188 7.3125-6.0184 10.247-9.1875 34-9.1875 34s2.9184-10.621 5.0625-15.375c2.3818-9.5842 5.6859-20.268 14.062-26.25 11.217-5.3696 23.31 1.2065 34.406 3.5 24.521 6.9828 45.996 22.79 71.344 26.75 5.4899 0.21499 13.508-0.2564 15.656-6.2188-1.3745-6.648-10.174-6.8271-14.531-10.875-4.2466-2.3995-12.536-5.9874-9.9062-12.219 2.4568-3.5598 9.8999-2.1529 10.812-7.3438-0.10315-0.02787-0.17932-0.03686-0.28125-0.03125z" color="#000000" fill="#fff" filter="url(#cq)" style="block-progression:tb;text-indent:0;text-transform:none"/></g><g><path transform="translate(936.08 774.52)" d="m652.5 108.75c-28.798 0-84.656 35.245-84.656 50.531s89.577 3.5312 118.38 3.5312c28.798 0 77.969-17.089 77.969-32.375 0-2.9178-58.328 2.6633-60.031-0.125-7.2191-11.819-28.355-21.562-51.656-21.562z" color="#000000" fill="url(#ai)"/><path transform="translate(936.08 774.52)" d="m626.88 151.09c-63.189 0-117.39 11.45-127.84 17.781 35.9 3.8806 109.29 6.0121 155.22 1.375 17.221-2.129 44.993-5.0926 69.156-9.8438-22.774-4.8728-57.238-9.3125-96.531-9.3125z" color="#000000" fill="#4d4d4d"/><path transform="translate(936.08 774.52)" d="m564.78 220.53c-0.2638 0.35797 11.39 7.5277 26.062 16 14.672 8.4724 26.799 15.045 27.062 14.688 0.2638-0.358-11.421-7.4964-26.094-15.969-14.672-8.4724-26.767-15.077-27.031-14.719z" color="#000000" fill="#fff"/></g></g></svg>
