<svg version="1.1" viewBox="0 0 512 512" xmlns="http://www.w3.org/2000/svg" xmlns:xlink="http://www.w3.org/1999/xlink"><defs><linearGradient id="b"><stop stop-color="#fff" offset="0"/><stop stop-color="#fff" stop-opacity="0" offset="1"/></linearGradient><linearGradient id="a"><stop offset="0"/><stop offset=".35262"/><stop stop-color="#808080" offset=".45277"/><stop offset=".603"/><stop offset="1"/></linearGradient><linearGradient id="c"><stop stop-color="#bababa" offset="0"/><stop stop-color="#666" offset="1"/></linearGradient><linearGradient id="az" x1="488.09" x2="556.92" y1="586.97" y2="586.97" gradientTransform="matrix(.76407 0 0 .76407 16.017 64.36)" gradientUnits="userSpaceOnUse" xlink:href="#c"/><linearGradient id="ay" x1="604.74" x2="673.49" y1="554.38" y2="554.38" gradientTransform="matrix(.76407 0 0 .76407 16.017 64.36)" gradientUnits="userSpaceOnUse" xlink:href="#c"/><linearGradient id="ax" x1="445.76" x2="503.55" y1="503.58" y2="503.58" gradientTransform="matrix(.76407 0 0 .76407 16.017 64.36)" gradientUnits="userSpaceOnUse" xlink:href="#c"/><linearGradient id="aw" x1="548.47" x2="605.39" y1="479.71" y2="479.71" gradientTransform="matrix(.76407 0 0 .76407 16.017 64.36)" gradientUnits="userSpaceOnUse" xlink:href="#c"/><linearGradient id="av" x1="640.97" x2="698.08" y1="458.03" y2="458.03" gradientTransform="matrix(.76407 0 0 .76407 16.017 64.36)" gradientUnits="userSpaceOnUse" xlink:href="#c"/><linearGradient id="au" x1="505.93" x2="554.66" y1="423.88" y2="423.88" gradientTransform="matrix(.76407 0 0 .76407 16.017 64.36)" gradientUnits="userSpaceOnUse" xlink:href="#c"/><linearGradient id="at" x1="589.33" x2="638.05" y1="407.09" y2="407.09" gradientTransform="matrix(.76407 0 0 .76407 16.017 64.36)" gradientUnits="userSpaceOnUse" xlink:href="#c"/><linearGradient id="as" x1="666.12" x2="715.02" y1="391.6" y2="391.6" gradientTransform="matrix(.76407 0 0 .76407 16.017 64.36)" gradientUnits="userSpaceOnUse" xlink:href="#c"/><linearGradient id="ar" x1="548.68" x2="591.13" y1="367.14" y2="367.14" gradientTransform="matrix(.76407 0 0 .76407 16.017 64.36)" gradientUnits="userSpaceOnUse" xlink:href="#c"/><linearGradient id="aq" x1="618.98" x2="661.54" y1="354.66" y2="354.66" gradientTransform="matrix(.76407 0 0 .76407 16.017 64.36)" gradientUnits="userSpaceOnUse" xlink:href="#c"/><linearGradient id="ap" x1="684.61" x2="727.35" y1="343.01" y2="343.01" gradientTransform="matrix(.76407 0 0 .76407 16.017 64.36)" gradientUnits="userSpaceOnUse" xlink:href="#c"/><linearGradient id="ao" x1="580.62" x2="618.34" y1="324.69" y2="324.69" gradientTransform="matrix(.76407 0 0 .76407 16.017 64.36)" gradientUnits="userSpaceOnUse" xlink:href="#c"/><linearGradient id="an" x1="405.24" x2="437.03" y1="289.57" y2="288.59" gradientTransform="matrix(.76407 0 0 .76407 16.017 64.36)" gradientUnits="userSpaceOnUse" xlink:href="#a"/><linearGradient id="am" x1="423.34" x2="458.09" y1="311.51" y2="311.56" gradientTransform="matrix(.76407 0 0 .76407 16.017 64.36)" gradientUnits="userSpaceOnUse" xlink:href="#a"/><linearGradient id="al" x1="341.96" x2="374.79" y1="298.29" y2="295.4" gradientTransform="matrix(.76407 0 0 .76407 16.017 64.36)" gradientUnits="userSpaceOnUse" xlink:href="#a"/><linearGradient id="ak" x1="354.76" x2="390.55" y1="323.18" y2="319.76" gradientTransform="matrix(.76407 0 0 .76407 16.017 64.36)" gradientUnits="userSpaceOnUse" xlink:href="#a"/><linearGradient id="aj" x1="370.25" x2="409.58" y1="353.31" y2="349.19" gradientTransform="matrix(.76407 0 0 .76407 16.017 64.36)" gradientUnits="userSpaceOnUse" xlink:href="#a"/><linearGradient id="ai" x1="281.22" x2="318.89" y1="334.26" y2="329.89" gradientTransform="matrix(.76407 0 0 .76407 16.017 64.36)" gradientUnits="userSpaceOnUse" xlink:href="#a"/><linearGradient id="ah" x1="289.77" x2="330.89" y1="367.62" y2="361.46" gradientTransform="matrix(.76407 0 0 .76407 16.017 64.36)" gradientUnits="userSpaceOnUse" xlink:href="#a"/><linearGradient id="ag" x1="299.31" x2="345.79" y1="407.29" y2="400.67" gradientTransform="matrix(.76407 0 0 .76407 16.017 64.36)" gradientUnits="userSpaceOnUse" xlink:href="#a"/><linearGradient id="af" x1="201.85" x2="246.36" y1="380.32" y2="373.71" gradientTransform="matrix(.76407 0 0 .76407 16.017 64.36)" gradientUnits="userSpaceOnUse" xlink:href="#a"/><linearGradient id="ae" x1="201.12" x2="251.25" y1="424.36" y2="414.78" gradientTransform="matrix(.76407 0 0 .76407 16.017 64.36)" gradientUnits="userSpaceOnUse" xlink:href="#a"/><linearGradient id="ad" x1="94.145" x2="148.73" y1="442.95" y2="430.13" gradientTransform="matrix(.76407 0 0 .76407 16.017 64.36)" gradientUnits="userSpaceOnUse" xlink:href="#a"/><linearGradient id="ac" x1="200.17" x2="257.62" y1="481.25" y2="469.45" gradientTransform="matrix(.76407 0 0 .76407 16.017 64.36)" gradientUnits="userSpaceOnUse" xlink:href="#a"/><linearGradient id="ab" x1="327.26" x2="301.53" y1="272.96" y2="162.99" gradientTransform="translate(67.889 180.23)" gradientUnits="userSpaceOnUse"><stop offset="0"/><stop stop-color="#333" offset="1"/></linearGradient><linearGradient id="aa" x1="168.96" x2="212.77" y1="427.74" y2="427.74" gradientTransform="matrix(0 1 -1 0 634.61 228.88)" gradientUnits="userSpaceOnUse" xlink:href="#a"/><linearGradient id="z" x1="87.945" x2="129.9" y1="399.14" y2="399.14" gradientTransform="matrix(0 1 -1 0 524.07 282.22)" gradientUnits="userSpaceOnUse" xlink:href="#a"/><linearGradient id="y" x1="169.68" x2="207.99" y1="385.23" y2="385.23" gradientTransform="matrix(0 1 -1 0 590.06 188.39)" gradientUnits="userSpaceOnUse" xlink:href="#a"/><linearGradient id="x" x1="244.51" x2="280.23" y1="372.44" y2="372.44" gradientTransform="matrix(0 1 -1 0 650.81 102.07)" gradientUnits="userSpaceOnUse" xlink:href="#a"/><linearGradient id="w" x1="170.24" x2="204.28" y1="352.29" y2="352.29" gradientTransform="matrix(0 1 -1 0 555.55 157.03)" gradientUnits="userSpaceOnUse" xlink:href="#a"/><linearGradient id="v" x1="236.91" x2="268.84" y1="342.09" y2="342.09" gradientTransform="matrix(0 1 -1 0 610.96 81.212)" gradientUnits="userSpaceOnUse" xlink:href="#a"/><linearGradient id="u" x1="298.69" x2="329" y1="332.6" y2="332.6" gradientTransform="matrix(0 1 -1 0 662.44 10.756)" gradientUnits="userSpaceOnUse" xlink:href="#a"/><linearGradient id="t" x1="230.79" x2="259.67" y1="317.67" y2="317.67" gradientTransform="matrix(0 1 -1 0 578.91 64.44)" gradientUnits="userSpaceOnUse" xlink:href="#a"/><linearGradient id="s" x1="286.9" x2="314.42" y1="309.86" y2="309.86" gradientTransform="matrix(0 1 -1 0 626.52 1.1974)" gradientUnits="userSpaceOnUse" xlink:href="#a"/><linearGradient id="r" x1="339.48" x2="366.03" y1="302.52" y2="302.52" gradientTransform="matrix(0 1 -1 0 671.27 -58.233)" gradientUnits="userSpaceOnUse" xlink:href="#a"/><linearGradient id="q" x1="277.16" x2="302.38" y1="291.05" y2="291.05" gradientTransform="matrix(0 1 -1 0 596.82 -6.7133)" gradientUnits="userSpaceOnUse" xlink:href="#a"/><linearGradient id="p" x1="325.64" x2="349.94" y1="284.86" y2="284.86" gradientTransform="matrix(0 1 -1 0 638.65 -60.925)" gradientUnits="userSpaceOnUse" xlink:href="#a"/><linearGradient id="o" x1="531.14" x2="557.88" y1="358.09" y2="358.09" gradientTransform="matrix(0 1 -1 0 902.6 -186.42)" gradientUnits="userSpaceOnUse" xlink:href="#b"/><linearGradient id="n" x1="544.59" x2="567.88" y1="321.53" y2="321.53" gradientTransform="matrix(0 1 -1 0 877.76 -234.71)" gradientUnits="userSpaceOnUse" xlink:href="#b"/><linearGradient id="m" x1="463.94" x2="484.97" y1="307.77" y2="307.77" gradientTransform="matrix(0 1 -1 0 782.23 -166.68)" gradientUnits="userSpaceOnUse" xlink:href="#b"/><linearGradient id="l" x1="494.04" x2="517.56" y1="330.3" y2="330.3" gradientTransform="matrix(0 1 -1 0 836.1 -175.5)" gradientUnits="userSpaceOnUse" xlink:href="#b"/><linearGradient id="k" x1="439.87" x2="463.71" y1="339.71" y2="339.71" gradientTransform="matrix(0 1 -1 0 791.49 -112.08)" gradientUnits="userSpaceOnUse" xlink:href="#b"/><linearGradient id="j" x1="512.75" x2="544.16" y1="408.19" y2="408.19" gradientTransform="matrix(0 1 -1 0 936.64 -120.27)" gradientUnits="userSpaceOnUse" xlink:href="#b"/><linearGradient id="i" x1="471.91" x2="499.01" y1="369.78" y2="369.78" gradientTransform="matrix(0 1 -1 0 855.23 -115.68)" gradientUnits="userSpaceOnUse" xlink:href="#b"/><linearGradient id="h" x1="407.56" x2="435.2" y1="382.45" y2="382.45" gradientTransform="matrix(0 1 -1 0 803.83 -38.933)" gradientUnits="userSpaceOnUse" xlink:href="#b"/><linearGradient id="g" x1="441.28" x2="473.25" y1="424.57" y2="424.57" gradientTransform="matrix(0 1 -1 0 881.83 -32.699)" gradientUnits="userSpaceOnUse" xlink:href="#b"/><linearGradient id="f" x1="362.12" x2="395.24" y1="442.62" y2="442.62" gradientTransform="matrix(0 1 -1 0 821.3 63.936)" gradientUnits="userSpaceOnUse" xlink:href="#b"/><linearGradient id="e" x1="486.14" x2="524.26" y1="481.03" y2="481.03" gradientTransform="matrix(0 1 -1 0 986.23 -24.167)" gradientUnits="userSpaceOnUse" xlink:href="#b"/><linearGradient id="d" x1="395.77" x2="435.01" y1="505.75" y2="505.75" gradientTransform="matrix(0 1 -1 0 921.14 90.36)" gradientUnits="userSpaceOnUse" xlink:href="#b"/></defs><g transform="translate(-67.889 -180.23)"><path d="m304.32 279.19-0.47903 0.28205-235.95 138.83 452.1 174.97 59.905-267.79-275.57-46.286zm0.59096 3.1995 271.29 45.566-58.424 261.18-442.89-171.41 230.02-135.34z" color="#000000" color-rendering="auto" fill="#1a1a1a" fill-rule="evenodd" image-rendering="auto" shape-rendering="auto" solid-color="#000000" style="block-progression:tb;isolation:auto;mix-blend-mode:normal;text-decoration-color:#000000;text-decoration-line:none;text-decoration-style:solid;text-indent:0;text-transform:none;white-space:normal"/><path d="m332.12 285.09-16.875 11.166 30.576 5.5801 15.66-11.777-29.361-4.9688zm13.701 16.746-17.59 13.229 33.9 6.709 16.09-14.023-32.4-5.9141zm32.4 5.9141 34.391 6.2773 12.695-13.166-32.811-5.5527-14.275 12.441zm34.391 6.2773-14.359 14.896 38.568 7.6328 12.365-15.852-36.574-6.6777zm36.574 6.6777 38.971 7.1133 8.8242-14.826-36.906-6.2461-10.889 13.959zm38.971 7.1133-10.064 16.906 44.271 8.7617 7.4023-18.074-41.609-7.5938zm41.609 7.5938 44.527 8.1289 3.7539-16.828-41.818-7.0781-6.4629 15.777zm-7.4023 18.074-8.5625 20.912 51.148 11.045 5.0254-22.533-47.611-9.4238zm-8.5625 20.912-47.293-10.213-13.477 22.639 50.746 12.045 10.023-24.471zm-10.023 24.471-11.889 29.025 60.066 15.811 7.0742-31.723-55.252-13.113zm-11.889 29.025-54.73-14.404-18.971 31.873 59.375 17.516 14.326-34.984zm-14.326 34.984-17.605 42.984 72.701 24.367 10.693-47.943-65.789-19.408zm-17.605 42.984-64.848-21.732-28.674 48.172 71.369 27.646 22.152-54.086zm-64.848-21.732 23.078-38.768-53.855-15.889-27.422 35.15 58.199 19.506zm-58.199-19.506-52.523-17.604-37.557 38.953 56.387 21.842 33.693-43.191zm-52.523-17.604 30.875-32.023-44.896-13.246-33.619 29.303 47.641 15.967zm-47.641-15.967-43.408-14.549-42.783 32.174 45.67 17.691 40.521-35.316zm-43.408-14.549 35.795-26.918-38.002-11.211-37.508 24.818 39.715 13.311zm-39.715-13.311-36.475-12.225-45.76 27.043 37.742 14.621 44.492-29.439zm37.508-24.818 32.049-21.205-33.791-8.8945-33.393 19.734 35.135 10.365zm32.049-21.205 36.34 9.5645 26.119-19.643-34.76-8.25-27.699 18.328zm27.699-18.328 24.182-16-31.225-6.7422-25.438 15.033 32.48 7.709zm24.182-16 33.271 7.1836 19.898-14.963-31.879-6.3086-21.291 14.088zm21.291-14.088 18.893-12.5-28.902-5.2754-20.02 11.832 30.029 5.9434zm11.98 21.271-22.693 17.066 37.287 8.8496 20.932-18.244-35.525-7.6719zm35.525 7.6719 38.016 8.209 16.379-16.984-36.121-7.1504-18.273 15.926zm38.016 8.209-18.85 19.553 43.24 10.264 16.389-21.01-40.779-8.8066zm40.779 8.8066 43.855 9.4707 11.584-19.461-41.271-8.168-14.168 18.158zm-16.389 21.01-19.18 24.586 50.074 13.18 15.873-26.666-46.768-11.1zm-19.18 24.586-45.99-12.104-25.832 26.791 49.07 14.477 22.752-29.164zm-45.99-12.104 21.93-22.746-40.098-9.5176-24.219 21.107 42.387 11.156zm-42.387-11.156-39.188-10.314-30.387 22.852 41.232 12.164 28.342-24.701z" fill="url(#ab)"/><path d="m266.01 363.39-3.3711 0.14476-3.3846 0.46858-3.2801 0.77302-3.0578 1.0566-2.7235 1.3043-2.2847 1.5072-1.7564 1.658-1.1521 1.749-0.49097 1.7744 0.19997 1.7326 1.4923 11.054 0.89389 1.6639 1.558 1.4789 2.1654 1.2312 2.6936 0.92971 3.113 0.58648 3.4025 0.21489 3.5532-0.16564 3.5502-0.53724 3.401-0.88792 3.11-1.1954 2.6951-1.452 2.1773-1.646 1.5804-1.7699 0.93121-1.8251 0.25817-1.8057-1.061-10.933-0.41039-1.6744-1.061-1.5281-1.6624-1.3311-2.1967-1.0864-2.6444-0.80734-2.9966-0.50142-3.2413-0.18057z" fill="url(#ag)"/><path d="m315.58 325.91-2.8981 0.11342-2.8578 0.35219-2.716 0.58199-2.4743 0.78944-2.143 0.97299-1.7296 1.1207-1.2431 1.2312-0.70586 1.2953-0.12984 1.3117 0.7387 9.8836 0.45665 1.3147 1.0312 1.2267 1.5714 1.0879 2.0549 0.90434 2.4608 0.67901 2.7668 0.4268 2.9592 0.15221 3.0309-0.12684 2.9742-0.39994 2.7951-0.65812 2.5026-0.88494 2.1116-1.073 1.6401-1.2177 1.1088-1.3117 0.54321-1.352-0.0343-1.3401-0.43128-9.8209-0.60588-1.2401-1.1491-1.1312-1.6401-0.98642-2.0654-0.80436-2.4146-0.59692-2.6727-0.3701-2.8354-0.12983z" fill="url(#aj)"/><path d="m338.62 280.54-2.337 0.0791-2.2818 0.23578-2.1474 0.38353-1.934 0.51932-1.646 0.63573-1.2968 0.73124-0.8939 0.79838-0.45217 0.83868 0.0119 0.84615 0.37606 8.3406 0.48053 0.84912 0.9327 0.78944 1.3535 0.69691 1.7251 0.57753 2.028 0.43128 2.2534 0.26712 2.3862 0.0925 2.4205-0.0866 2.3579-0.26265 2.1967-0.4268 1.9475-0.57454 1.6236-0.69393 1.2356-0.78944 0.80585-0.84912 0.34771-0.87599-0.18057-8.3241-0.1179-0.84017-0.57453-0.79988-1.0058-0.73273-1.3953-0.63721-1.7281-0.51933-1.9967-0.38502-2.1907-0.23578-2.3041-0.0791z" fill="url(#an)"/><path d="m291.76 286.47-2.4146 0.0836-2.4011 0.24772-2.2982 0.4074-2.1146 0.54918-1.8505 0.67452-1.5162 0.77451-1.1222 0.84764-0.67751 0.88942-0.20445 0.89837 0.78943 8.5286 0.28503 0.90136 0.76556 0.83869 1.2192 0.74019 1.6296 0.61334 1.9773 0.45963 2.2489 0.28503 2.425 0.1 2.5071-0.0925 2.4817-0.27758 2.3564-0.45367 2.1385-0.60737 1.8326-0.7372 1.458-0.83718 1.0297-0.89987 0.56708-0.92972 0.0895-0.92225-0.57753-8.4823-0.388-0.84913-0.84763-0.7775-1.2685-0.67601-1.6416-0.55216-1.9505-0.40889-2.1847-0.25071-2.3429-0.0851z" fill="url(#al)"/><path d="m353.31 297.37-2.5399 0.091-2.4698 0.27758-2.3116 0.45216-2.0684 0.61484-1.746 0.75212-1.358 0.86704-0.91329 0.9506-0.4283 0.99687 0.28802 8.9136 0.0806 1.0401 0.58648 1.0118 1.0775 0.94015 1.5326 0.83421 1.9296 0.68945 2.2534 0.51783 2.4862 0.32234 2.6175 0.11342 2.6414-0.10148 2.5578-0.3104 2.3668-0.50739 2.0833-0.68199 1.7147-0.82674 1.2849-0.93717 0.80734-1.0103 0.30443-1.0416-0.0567-8.9285-0.20296-0.99985-0.69989-0.9521-1.1655-0.87151-1.5789-0.75959-1.931-0.61931-2.2116-0.45814-2.4101-0.28205-2.5205-0.097z" fill="url(#am)"/><path d="m302.57 304.36-2.6339 0.097-2.6086 0.29398-2.4907 0.48202-2.2818 0.65215-1.9863 0.80286-1.6162 0.92374-1.1819 1.0133-0.69542 1.064-0.1761 1.076 0.77601 9.1598 0.35816 1.0789 0.88046 1.0058 1.3744 0.88943 1.8191 0.7372 2.1937 0.55365 2.4802 0.34472 2.6668 0.12237 2.7429-0.10595 2.7071-0.3313 2.5578-0.54022 2.3056-0.72675 1.9639-0.88196 1.546-0.99985 1.0715-1.0775 0.56261-1.1118 0.0388-1.1013-0.5223-9.1061-0.48202-1.0178-0.97747-0.92972-1.4326-0.81033-1.8311-0.6596-2.1579-0.48948-2.4041-0.30294-2.5668-0.10446z" fill="url(#ak)"/><path d="m248.6 311.8-2.7354 0.10296-2.7608 0.3119-2.6877 0.51336-2.519 0.69691-2.2549 0.85658-1.9072 0.98643-1.4819 1.0819-0.99686 1.1372-0.46411 1.1506 0.0925 1.1192 1.3311 9.4195 0.65513 1.0745 1.1924 0.9521 1.6878 0.79093 2.1206 0.59245 2.4698 0.37158 2.716 0.13133 2.8518-0.11342 2.8712-0.35219 2.7682-0.57752 2.5563-0.7775 2.24-0.94165 1.8385-1.0685 1.3699-1.1521 0.8536-1.1864 0.3104-1.1774-1.0461-9.3285-0.2313-1.0879-0.76557-0.99388-1.264-0.86554-1.7117-0.70587-2.0922-0.52381-2.3952-0.32383-2.6116-0.11341z" fill="url(#ai)"/><path d="m256.39 334.88-3.0204 0.12088-3.0413 0.37905-2.9548 0.62229-2.7623 0.84913-2.4668 1.0446-2.0803 1.2058-1.6087 1.3237-1.0685 1.3938-0.48202 1.4117 0.13729 1.3759 1.4102 10.179 0.75809 1.3222 1.352 1.173 1.8982 0.97448 2.3728 0.73422 2.7533 0.45963 3.0219 0.16714 3.1637-0.13579 3.1742-0.42979 3.0533-0.70736 2.8056-0.9521 2.4474-1.1565 1.9952-1.3102 1.4699-1.4102 0.8939-1.455 0.29398-1.4416-1.0655-10.075-0.30444-1.3341-0.8924-1.2192-1.4371-1.0595-1.9251-0.86704-2.337-0.64318-2.6623-0.39846-2.8921-0.14177z" fill="url(#ah)"/><path d="m192.89 344.51-3.1518 0.12834-3.2458 0.40591-3.2219 0.67154-3.0846 0.9118-2.8354 1.1252-2.4787 1.2998-2.0251 1.4282-1.4878 1.5042-0.88494 1.5237-0.23578 1.4864 2.1862 10.449 0.43875 1.4282 1.0939 1.267 1.7102 1.0536 2.2653 0.79391 2.7309 0.49992 3.0846 0.18057 3.31-0.14326 3.3965-0.46411 3.3413-0.76257 3.1488-1.0282 2.8294-1.2476 2.4011-1.4132 1.8803-1.5222 1.2968-1.5699 0.67303-1.5535 0.0329-1.4819-1.7818-10.297-0.59394-1.3162-1.2013-1.1446-1.755-0.93419-2.2414-0.69392-2.6429-0.43129-2.9518-0.1537z" fill="url(#af)"/><path d="m195.13 375.36-3.5383 0.1552-3.6398 0.50589-3.6159 0.84018-3.4607 1.1476-3.1846 1.4162-2.7862 1.6386-2.2788 1.8042-1.6774 1.9042-0.99985 1.934-0.26862 1.8893 2.4683 11.361 0.49396 1.8132 1.2312 1.6132 1.9311 1.3446 2.5578 1.0163 3.0831 0.6402 3.4846 0.23728 3.7368-0.17758 3.8323-0.58648 3.7651-0.96553 3.5428-1.3013 3.1756-1.5819 2.6862-1.7923 2.0967-1.9281 1.4356-1.9848 0.73124-1.9654 0.0119-1.8699-1.9564-11.189-0.69093-1.6639-1.367-1.4475-1.9863-1.1834-2.5265-0.87898-2.9742-0.54618-3.3129-0.19848z" fill="url(#ae)"/><path d="m118.21 388.36-3.7203 0.16863-3.9278 0.55067-3.9949 0.91329-3.9263 1.2491-3.7159 1.5446-3.3667 1.7878-2.8876 1.9699-2.2937 2.0803-1.5983 2.1161-0.82525 2.0668-0.0045 1.9355 3.6398 11.73 0.84017 1.7669 1.643 1.4729 2.3862 1.1133 3.0369 0.70288 3.5651 0.26265 3.9427-0.19251 4.1501-0.63871 4.1845-1.0566 4.0412-1.4237 3.7338-1.7281 3.2786-1.9594 2.6996-2.1057 2.0251-2.1683 1.2864-2.146 0.51336-2.0415-0.26265-1.8639-2.9951-11.456-1.0148-1.5804-1.7311-1.2923-2.3788-0.95956-2.9354-0.59842-3.3876-0.21937z" fill="url(#ad)"/><path d="m198 414.82-4.0307 0.19699-4.1442 0.65065-4.1158 1.0834-3.9442 1.4864-3.6293 1.8385-3.1801 2.131-2.6071 2.3534-1.9221 2.4892-1.1491 2.5354-0.31338 2.4817 2.8369 12.4 0.56261 2.3802 1.4102 2.1221 2.2146 1.7729 2.9369 1.3416 3.5428 0.85212 4.0024 0.31935 4.2904-0.22683 4.3949-0.76407 4.3128-1.264 4.0486-1.7072 3.6189-2.0728 3.0488-2.3459 2.3668-2.5205 1.6057-2.5936 0.79839-2.5623-0.0209-2.4369-2.1683-12.206-0.81928-2.1743-1.5878-1.8893-2.2862-1.543-2.8966-1.1461-3.3965-0.71781-3.78-0.26414z" fill="url(#ac)"/><path d="m472 302.33-2.5832 0.097-2.4011 0.29101-2.131 0.47754-1.7848 0.64767-1.3685 0.7954-0.89837 0.91479-0.38949 1.0028-0.78944 9.1121 0.13878 1.0879 0.66558 1.0998 1.1759 1.07 1.6475 0.99538 2.0594 0.88196 2.3937 0.72974 2.631 0.54917 2.7638 0.34175 2.7847 0.12087 2.6877-0.10595 2.4802-0.32831 2.1743-0.53574 1.7788-0.72079 1.3147-0.8745 0.80435-0.99089 0.26862-1.0685 1.0521-9.1942-0.27906-1.067-0.80585-1.0566-1.2924-1.0088-1.7266-0.92076-2.0892-0.80137-2.3728-0.65364-2.5668-0.48499-2.6682-0.29847-2.6742-0.10446z" fill="url(#ao)"/><path d="m551.42 315.36-2.7265 0.10595-2.4549 0.32683-2.0937 0.53872-1.655 0.73124-1.1521 0.89837-0.60291 1.0372-1.6012 9.5478-0.0283 1.173 0.55364 1.2326 1.1252 1.2476 1.6624 1.2132 2.14 1.1312 2.5399 1.0028 2.8414 0.83272 3.0309 0.62378 3.0951 0.39248 3.0324 0.13878 2.8429-0.11788 2.5369-0.37159 2.1266-0.60737 1.6326-0.8163 1.076-0.99239 0.48202-1.1237 1.9385-9.715-0.13133-1.173-0.72974-1.2103-1.2894-1.1998-1.7908-1.1431-2.2191-1.0446-2.5593-0.90882-2.8026-0.74168-2.9414-0.55067-2.9757-0.34024-2.9026-0.1179z" fill="url(#ap)"/><path d="m502.24 323.67-2.8354 0.11192-2.6056 0.3507-2.2803 0.57603-1.8714 0.78197-1.3908 0.96404-0.8551 1.1118-0.27906 1.2192-1.164 9.8269 0.30742 1.3237 0.8939 1.3386 1.455 1.3028 1.9669 1.2162 2.4086 1.0789 2.7563 0.8939 2.9966 0.67452 3.1145 0.42084 3.1025 0.15221 2.9622-0.12684 2.6981-0.39696 2.325-0.65214 1.8579-0.87599 1.3192-1.0655 0.73571-1.2073 1.4983-9.9627 0.12237-1.261-0.485-1.3013-1.0655-1.2879-1.5953-1.2267-2.0579-1.1222-2.4399-0.97597-2.725-0.7969-2.9115-0.59096-2.9921-0.36561-2.9667-0.12834z" fill="url(#aq)"/><path d="m449.6 332.57-2.9533 0.11938-2.7697 0.37607-2.4892 0.61781-2.1146 0.84018-1.6624 1.0357-1.1416 1.1939-0.57305 1.3117-0.64915 10.082 0.0224 1.4222 0.62528 1.4401 1.2133 1.4043 1.7624 1.3103 2.2504 1.161 2.6518 0.96553 2.9488 0.72675 3.1264 0.45665 3.1756 0.16416 3.0906-0.13431 2.8787-0.4268 2.5474-0.6999 2.1131-0.94464 1.5968-1.1461 1.0222-1.2983 0.41785-1.3998 0.98791-10.184-0.20445-1.3998-0.80585-1.3864-1.367-1.3207-1.8684-1.2073-2.2937-1.0506-2.631-0.85808-2.8697-0.63721-3.004-0.39398-3.0339-0.14027z" fill="url(#ar)"/><path d="m539.33 349.83-3.1443 0.1358-2.8444 0.42978-2.4444 0.70886-1.9549 0.96701-1.3894 1.1924-0.76555 1.3774-1.6923 10.609-0.11192 1.558 0.55514 1.6416 1.2147 1.6654 1.8385 1.6236 2.3996 1.5177 2.8727 1.3491 3.2368 1.1207 3.4696 0.84615 3.5622 0.53126 3.504 0.1955 3.2995-0.15371 2.9563-0.49246 2.4907-0.81033 1.9281-1.0924 1.2894-1.3252 0.60886-1.5028 2.1355-10.809-0.1-1.5729-0.78645-1.6206-1.4326-1.6042-2.0116-1.5266-2.5056-1.3953-2.9026-1.2148-3.1861-0.9909-3.3562-0.7372-3.4025-0.45665-3.3308-0.16415z" fill="url(#as)"/><path d="m467.85 366.01-0.45665 1.643-1.0879 10.943 0.21639 1.7803c3.1047 6.4985 10.891 8.349 17.415 9.4061 6.1925 0.40912 14.288 0.40529 17.811-5.6201l0.25668-1.755 1.5252-11.061-0.45217-1.7609c-3.7187-5.9861-11.18-7.656-17.705-8.6032-6.082-0.35808-13.545-0.31136-17.523 5.0276z" fill="url(#at)"/><path d="m403.13 380.11-0.18206 1.8878-0.36562 11.297 0.51783 1.9669c3.9325 6.6067 12.045 8.074 19.143 8.5241 6.066-0.0929 12.259-1.3322 16.092-6.3498l0.6596-1.9116 0.8163-11.37-0.0567-1.9176c-2.4766-6.5882-10.097-8.3826-16.36-9.3702-7.0856-0.43657-16.726-0.0332-20.264 7.2437z" fill="url(#au)"/><path d="m507.77 403.24-1.749 11.882-0.25966 2.1683c1.7043 8.2276 10.488 11.603 17.705 13.744 7.7507 1.54 17.159 2.1326 22.77-4.3859l0.80435-2.1101 2.3564-12.121-0.0283-2.2161c-2.6947-7.8024-11.23-10.816-18.549-12.75-9.2122-0.10769-19.108-1.6381-23.049 5.7887z" fill="url(#av)"/><path d="m436.72 419.09-0.76258 2.331-0.86554 12.279 0.0299 2.522c2.5103 8.6921 11.57 11.865 19.619 13.474 8.1854 0.84801 17.52-0.20719 21.885-7.9928l0.48352-2.4996 1.4714-12.418-0.35368-2.5131c-3.4154-8.0371-12.121-10.831-20.078-12.241-7.8617-0.75333-16.527 0.24412-21.43 7.0586z" fill="url(#aw)"/><path d="m366.73 430.55c-5.2842 2.1826-8.9402 5.659-10.128 11.274 0.13327 5.1828 0.0127 10.37 0.49545 15.534 0.91963 3.3523 3.1709 5.5222 5.7006 7.7287 9.793 6.2044 21.716 5.9777 31.662 0.37308 2.8496-1.948 4.4284-4.4903 5.6544-7.6168 0.45829-5.1727 0.4809-10.375 0.64766-15.563l-0.60886-2.7503c-1.2906-3.1397-3.7127-5.1026-6.3573-7.0616-8.4612-4.7909-18.002-4.8065-27.066-1.9176z" fill="url(#ax)"/><path d="m499.45 463.53-4.5247 0.25519-4.168 0.86106-3.6681 1.4446-3.0354 1.9833-2.2892 2.4623-1.4475 2.8622-0.53276 3.1682-1.7027 13.429 0.40143 3.4234 1.3506 3.4965 2.2698 3.4323 3.1234 3.2294 3.8666 2.8891 4.4635 2.419 4.8814 1.8385 5.0933 1.1715 5.0858 0.4462 4.856-0.30145 4.4128-1.0327 3.786-1.7162 2.9996-2.3161 2.1027-2.8115 1.1342-3.1786 2.5817-13.64 0.12237-3.3517-0.86703-3.4383-1.7982-3.3905-2.6384-3.2159-3.3622-2.9294-3.9472-2.5429-4.3829-2.0743-4.6605-1.5445-4.7754-0.96554-4.7306-0.36263z" fill="url(#ay)"/><path d="m413.56 486.03c-11.869-0.45691-23.042 5.7578-24.319 18.409l-0.28354 13.868c1.6031 14.084 14.736 20.776 27.466 21.351 11.294 0.50979 21.19-5.2279 23.94-16.636l1.1849-13.961c0.11613-15.25-14.761-22.522-27.988-23.031z" fill="url(#az)"/><g><path d="m338.62 280.54-2.337 0.0791-2.2818 0.23578-2.1474 0.38353-1.934 0.51932-1.646 0.63573-1.2968 0.73124-0.8939 0.79838-0.45217 0.83868 0.0119 0.84615 0.48053 0.82077 0.93867 0.76257 1.364 0.67304 1.7385 0.55663 2.0445 0.41636 2.2713 0.25817 2.4056 0.088 2.4414-0.085 2.3758-0.2552 2.2161-0.41486 1.9639-0.55514 1.6371-0.67303 1.2476-0.76258 0.81331-0.82077 0.35219-0.84764-0.11791-0.84017-0.57452-0.79988-1.0058-0.73273-1.3953-0.6372-1.7281-0.51934-1.9967-0.38502-2.1907-0.23577-2.3041-0.0791z" fill="url(#p)"/><path d="m291.76 286.47-2.4146 0.0836-2.4011 0.24772-2.2982 0.4074-2.1146 0.54918-1.8505 0.67452-1.5162 0.7745-1.1222 0.84764-0.67751 0.88942-0.20445 0.89837 0.28353 0.87152 0.76855 0.81033 1.2267 0.71631 1.6416 0.59245 1.9922 0.44321 2.2668 0.27459 2.4459 0.0955 2.528-0.091 2.5041-0.27011 2.3773-0.43875 2.1579-0.58946 1.8505-0.71482 1.4729-0.80883 1.0402-0.87301 0.57603-0.89837 0.091-0.89241-0.388-0.84912-0.84763-0.7775-1.2685-0.67602-1.6416-0.55216-1.9505-0.40889-2.1847-0.25071-2.3429-0.0851z" fill="url(#q)"/><path d="m353.31 297.37-2.5399 0.091-2.4698 0.27758-2.3116 0.45216-2.0684 0.61484-1.746 0.75212-1.358 0.86704-0.91329 0.95061-0.4283 0.99687 0.0791 1.0073 0.58946 0.97896 1.0864 0.91031 1.546 0.80735 1.946 0.66706 2.2728 0.49992 2.5086 0.3104 2.6414 0.10895 2.6653-0.1 2.5802-0.30145 2.3892-0.49247 2.1012-0.66109 1.7311-0.80138 1.2968-0.90881 0.81481-0.97896 0.30741-1.0088-0.20295-0.99985-0.6999-0.9521-1.1655-0.87151-1.5789-0.75959-1.931-0.61931-2.2116-0.45814-2.4101-0.28204-2.5205-0.097z" fill="url(#r)"/><path d="m302.57 304.36-2.6339 0.097-2.6086 0.29397-2.4907 0.48202-2.2818 0.65215-1.9863 0.80286-1.6162 0.92375-1.1819 1.0133-0.69542 1.064-0.1761 1.076 0.35816 1.0446 0.88494 0.973 1.3849 0.86106 1.8326 0.71482 2.2116 0.53425 2.5026 0.33428 2.6921 0.1164 2.7682-0.10446 2.7324-0.32234 2.5832-0.52381 2.3295-0.70586 1.9833-0.8551 1.5624-0.97 1.0849-1.0446 0.57006-1.076 0.0418-1.067-0.48202-1.0178-0.97747-0.92972-1.4326-0.81033-1.8311-0.6596-2.1579-0.48948-2.4041-0.30294-2.5668-0.10446z" fill="url(#s)"/><path d="m248.6 311.8-2.7354 0.10296-2.7608 0.3119-2.6877 0.51336-2.519 0.69691-2.2549 0.85658-1.9072 0.98643-1.4819 1.0819-0.99686 1.1372-0.46411 1.1506 0.0925 1.1192 0.65512 1.0416 1.1983 0.92225 1.6998 0.76555 2.137 0.57455 2.4907 0.35816 2.7429 0.12684 2.8802-0.11043 2.8981-0.34472 2.7996-0.56112 2.5832-0.75361 2.2668-0.91479 1.8609-1.0386 1.3879-1.1163 0.86703-1.1506 0.31935-1.1416-0.2313-1.0879-0.76556-0.99388-1.264-0.86554-1.7117-0.70587-2.0922-0.52381-2.3952-0.32383-2.6116-0.11341z" fill="url(#t)"/><path d="m315.58 325.91-2.8981 0.11342-2.8578 0.35219-2.716 0.58199-2.4743 0.78944-2.143 0.97299-1.7296 1.1207-1.2431 1.2312-0.70586 1.2953-0.12984 1.3117 0.45814 1.2759 1.0372 1.1909 1.5848 1.0566 2.0728 0.87599 2.4847 0.65811 2.7936 0.41188 2.9906 0.14774 3.0607-0.12386 3.0055-0.39099 2.8264-0.64021 2.531-0.85957 2.134-1.0446 1.6595-1.1819 1.1222-1.2744 0.55215-1.3118-0.0328-1.2998-0.60587-1.2401-1.1491-1.1312-1.6401-0.98642-2.0654-0.80436-2.4146-0.59692-2.6727-0.3701-2.8354-0.12983z" fill="url(#u)"/><path d="m256.39 334.88-3.0204 0.12088-3.0413 0.37905-2.9548 0.62229-2.7623 0.84913-2.4668 1.0446-2.0803 1.2058-1.6087 1.3237-1.0685 1.3938-0.48202 1.4117 0.13729 1.3759 0.7581 1.2834 1.3595 1.1386 1.9131 0.94614 2.3937 0.71183 2.7802 0.4462 3.0533 0.16117 3.198-0.13282 3.2115-0.42083 3.0876-0.68796 2.8399-0.92672 2.4787-1.1237 2.0221-1.2744 1.4908-1.3714 0.90882-1.4132 0.30294-1.3998-0.30443-1.3341-0.89241-1.2192-1.4371-1.0595-1.9251-0.86704-2.337-0.64318-2.6623-0.39846-2.8921-0.14177z" fill="url(#v)"/><path d="m192.89 344.51-3.1518 0.12834-3.2458 0.40591-3.2219 0.67154-3.0846 0.9118-2.8354 1.1252-2.4787 1.2998-2.0251 1.4282-1.4878 1.5042-0.88494 1.5237-0.23578 1.4864 0.43276 1.3878 1.0939 1.2312 1.7221 1.0252 2.2832 0.77003 2.7563 0.48501 3.1174 0.1746 3.3473-0.14178 3.4383-0.45216 3.3846-0.74318 3.1906-1.0013 2.8697-1.2133 2.4355-1.3774 1.9116-1.4804 1.3222-1.5251 0.68945-1.5117 0.0432-1.4386-0.59393-1.3162-1.2013-1.1446-1.755-0.93419-2.2415-0.69392-2.6429-0.43129-2.9518-0.1537z" fill="url(#w)"/><path d="m266.01 363.39-3.3711 0.14476-3.3846 0.46858-3.2801 0.77302-3.0578 1.0566-2.7235 1.3043-2.2847 1.5072-1.7564 1.658-1.1521 1.749-0.49098 1.7744 0.19998 1.7326 0.89539 1.6206 1.5684 1.4401 2.1848 1.1983 2.722 0.90434 3.1473 0.56858 3.4428 0.20892 3.5965-0.16266 3.595-0.52679 3.4458-0.86554 3.1518-1.1655 2.7324-1.4162 2.2101-1.6042 1.6042-1.7251 0.94912-1.7758 0.26861-1.758-0.41038-1.6744-1.061-1.5281-1.6624-1.3312-2.1967-1.0864-2.6444-0.80734-2.9966-0.50142-3.2413-0.18057z" fill="url(#x)"/><path d="m195.13 375.36-3.5383 0.1552-3.6397 0.50589-3.6159 0.84018-3.4607 1.1476-3.1846 1.4162-2.7862 1.6386-2.2788 1.8042-1.6774 1.9042-0.99985 1.934-0.26862 1.8893 0.48501 1.7669 1.2327 1.5729 1.943 1.3102 2.5817 0.9894 3.1174 0.62379 3.5264 0.22982 3.7845-0.1761 3.8845-0.57155 3.8188-0.94464 3.5965-1.2714 3.2264-1.5431 2.7309-1.749 2.1355-1.8803 1.4654-1.9355 0.75363-1.9146 0.0254-1.8236-0.69094-1.6639-1.367-1.4475-1.9863-1.1834-2.5265-0.87897-2.9742-0.54619-3.313-0.19848z" fill="url(#y)"/><path d="m118.21 388.36-3.7203 0.16863-3.9278 0.55067-3.9949 0.91329-3.9263 1.2491-3.7159 1.5446-3.3667 1.7878-2.8876 1.9699-2.2937 2.0803-1.5983 2.1161-0.82526 2.0669-5e-3 1.9355 0.83121 1.7236 1.646 1.4386 2.4056 1.0849 3.0697 0.68646 3.6084 0.25369 3.9949-0.18952 4.2128-0.62528 4.2486-1.0327 4.1083-1.3923 3.7994-1.6893 3.3398-1.9132 2.7548-2.0564 2.0728-2.1176 1.3237-2.0937 0.54022-1.9907-0.24772-1.8191-1.0148-1.5804-1.7311-1.2924-2.3788-0.95956-2.9354-0.59841-3.3876-0.21937z" fill="url(#z)"/><path d="m198 414.82-4.0308 0.19698-4.1442 0.65065-4.1158 1.0834-3.9442 1.4864-3.6293 1.8385-3.1801 2.131-2.6071 2.3534-1.9221 2.4892-1.1491 2.5355-0.31337 2.4817 0.55066 2.328 1.4132 2.0758 2.231 1.7341 2.9682 1.3132 3.5875 0.83122 4.0576 0.3119 4.3546-0.22386 4.4635-0.75063 4.3844-1.2386 4.1173-1.6729 3.6845-2.0295 3.107-2.2982 2.4176-2.4668 1.6445-2.5369 0.82526-2.5071-5e-3 -2.3817-0.81929-2.1743-1.5878-1.8893-2.2862-1.543-2.8966-1.1461-3.3965-0.71781-3.78-0.26413z" fill="url(#aa)"/></g><g fill="#ccc"><path d="m472 302.33-2.5832 0.097-2.4011 0.29101-2.131 0.47754-1.7848 0.64767-1.3685 0.7954-0.89837 0.91479-0.38949 1.0028 0.14176 1.0551 0.67752 1.064 1.1909 1.0357 1.6669 0.96404 2.0818 0.8536 2.4175 0.70736 2.6578 0.52977 2.7921 0.3298 2.81 0.11491 2.7115-0.10297 2.5026-0.31936 2.1922-0.52081 1.7923-0.69841 1.3237-0.84913 0.80734-0.95955 0.26563-1.0342-0.27906-1.067-0.80585-1.0566-1.2924-1.0088-1.7266-0.92076-2.0892-0.80137-2.3728-0.65364-2.5668-0.48499-2.6682-0.29847-2.6742-0.10446z"/><path d="m551.42 315.36-2.7265 0.10595-2.4549 0.32683-2.0937 0.53872-1.655 0.73124-1.1521 0.89837-0.60291 1.0372-0.0208 1.1356 0.56708 1.1953 1.1461 1.2088 1.6863 1.1759 2.1683 1.0969 2.5728 0.97149 2.8757 0.80585 3.0652 0.60588 3.1294 0.37756 3.0637 0.13431 2.8712-0.1164 2.5608-0.36115 2.143-0.59095 1.6416-0.79391 1.0789-0.96254 0.47754-1.0909-0.13133-1.173-0.72974-1.2103-1.2894-1.1998-1.7908-1.1431-2.2191-1.0446-2.5593-0.90882-2.8026-0.74168-2.9414-0.55067-2.9757-0.34024-2.9026-0.1179z"/><path d="m502.24 323.67-2.8354 0.11192-2.6056 0.3507-2.2803 0.57603-1.8714 0.78197-1.3908 0.96404-0.8551 1.1118-0.27906 1.2192 0.31637 1.2834 0.90882 1.2983 1.4759 1.264 1.9937 1.1804 2.4384 1.0446 2.7891 0.86853 3.0309 0.65215 3.1488 0.4074 3.1354 0.14625 2.9921-0.12386 2.725-0.388 2.3459-0.63275 1.8714-0.85361 1.3282-1.0342 0.73422-1.1715 0.12237-1.261-0.485-1.3013-1.0655-1.2879-1.5953-1.2267-2.0579-1.1222-2.4399-0.97597-2.725-0.7969-2.9115-0.59096-2.9921-0.36561-2.9667-0.12834z"/><path d="m449.6 332.57-2.9533 0.11938-2.7697 0.37607-2.4892 0.61781-2.1146 0.84018-1.6624 1.0357-1.1416 1.1939-0.57305 1.3117 0.0269 1.3819 0.63424 1.3983 1.2297 1.3625 1.7863 1.2714 2.2758 1.1282 2.6832 0.93718 2.9831 0.70437 3.1607 0.44173 3.21 0.15818 3.1249-0.13132 2.907-0.41636 2.5728-0.68348 2.131-0.91777 1.6102-1.1133 1.0297-1.2625 0.41636-1.3595-0.20445-1.3998-0.80585-1.3864-1.367-1.3207-1.8684-1.2073-2.2937-1.0506-2.631-0.85808-2.8697-0.63721-3.004-0.39398-3.0339-0.14027z"/><path d="m539.33 349.83-3.1443 0.1358-2.8444 0.42978-2.4444 0.70886-1.9549 0.96701-1.3894 1.1924-0.76555 1.3774-0.10446 1.5147 0.57155 1.5968 1.2401 1.6192 1.8684 1.5789 2.437 1.4759 2.916 1.3102 3.2801 1.0894 3.5174 0.82227 3.6054 0.51634 3.5472 0.18654 3.3368-0.14923 2.9861-0.48052 2.5146-0.79093 1.9415-1.064 1.2953-1.2894 0.60438-1.464-0.1-1.5729-0.78645-1.6206-1.4326-1.6042-2.0116-1.5266-2.5056-1.3953-2.9026-1.2148-3.1861-0.9909-3.3562-0.7372-3.4025-0.45665-3.3308-0.16415z"/><path d="m470.67 363.23c-4.2657 2.7266-3.6558 6.2723-0.56559 9.6344 4.3432 3.5629 9.7479 4.8351 15.172 5.6783 5.3668 0.56747 10.593-0.0282 15.404-2.4907 4.2349-3.0885 2.8093-6.7362-0.47605-9.8612-4.3499-3.2389-9.5725-4.4396-14.837-5.2037-5.099-0.52358-10.056 0.0838-14.698 2.243z"/><path d="m419.89 372.68c-5.8797 0.064-11.771 1.2275-15.892 5.6529-1.6742 2.7226-0.92838 4.9738 0.70437 7.4616 3.8449 3.9969 9.1397 5.3072 14.425 6.2036 6.6214 0.65217 13.253-0.17637 18.652-4.2397 2.2134-2.3081 2.3496-4.5767 1.2133-7.4108-4.4269-5.9556-12.13-7.2785-19.103-7.6675z"/><path d="m512.91 398.32c-5.3472 2.5027-6.3803 6.6502-3.5174 11.554 4.1411 4.9691 10.112 7.1823 16.151 8.9032 6.4572 1.4832 12.868 1.2991 19.072-0.973 5.5272-2.9224 5.6638-7.4167 2.3116-12.134-4.338-4.5626-10.166-6.6483-16.107-8.2182-6.0868-1.3058-12.016-1.1005-17.911 0.86852z"/><path d="m436.72 419.09c-2.0737 4.9612 0.6801 8.7142 4.1844 12.073 4.4089 3.4368 9.6428 4.8634 15.028 5.8991 6.6578 0.85958 12.973-0.16101 18.746-3.5442 4.0885-3.2924 4.507-7.1875 2.3922-11.728-4.4868-6.1959-11.702-8.4787-18.921-9.7582-7.8616-0.75332-16.527 0.24413-21.43 7.0586z"/><path d="m363.44 432.17c-1.9538 1.1313-3.3832 2.6983-4.8754 4.3441-2.4076 3.6132-2.1451 6.9795-0.56858 10.815 1.9369 3.1696 4.8984 4.9776 8.0436 6.7542 8.3002 3.5884 16.995 3.2045 25.383 0.28055 3.394-1.4328 5.818-3.7296 8.0093-6.593 2.0283-3.8654 1.2899-7.2082-0.68646-10.857-2.1433-2.8957-5.1318-4.5462-8.2689-6.1394-9.0025-3.4805-18.461-2.828-27.036 1.3953z"/><path d="m499.45 463.53-4.5247 0.25519-4.168 0.86106-3.6681 1.4446-3.0354 1.9833-2.2892 2.4623-1.4475 2.8622-0.53276 3.1682 0.42382 3.3637 1.3878 3.4338 2.3235 3.3726 3.1891 3.1742 3.9457 2.8384 4.5516 2.3788 4.9724 1.8057 5.1873 1.1506 5.1754 0.43726 4.9366-0.29847 4.4829-1.0178 3.8397-1.6893 3.0369-2.2803 2.1206-2.7653 1.1327-3.1249 0.12237-3.3517-0.86703-3.4383-1.7982-3.3905-2.6384-3.2159-3.3622-2.9294-3.9472-2.5429-4.3829-2.0743-4.6605-1.5445-4.7754-0.96554-4.7306-0.36263z"/><path d="m413.56 486.03c-11.877 0.13591-23.042 5.7578-24.319 18.409 1.7237 14.129 15.335 19.852 27.978 21.024 12.559-0.15177 24.575-6.5722 24.232-20.279-3.1418-12.981-15.717-18.138-27.891-19.154z"/></g><g stroke="#fff" stroke-width="3"><path d="m472.61 303.69-1.9374 0.0727-1.8008 0.21826-1.5983 0.35815-1.3386 0.48575-1.0264 0.59655-0.67378 0.6861-0.29211 0.75212 0.10632 0.7913 0.50814 0.79802 0.89315 0.77675 1.2502 0.72303 1.5613 0.6402 1.8132 0.53052 1.9934 0.39733 2.0941 0.24735 2.1075 0.0862 2.0336-0.0772 1.877-0.23952 1.6442-0.39061 1.3442-0.5238 0.99277-0.63685 0.6055-0.71966 0.19922-0.77564-0.20929-0.80025-0.60439-0.79242-0.96926-0.75661-1.295-0.69057-1.5669-0.60102-1.7796-0.49023-1.9251-0.36375-2.0012-0.22385-2.0057-0.0783z" fill="url(#m)"/><path d="m552.62 316.9-2.0448 0.0795-1.8412 0.24513-1.5703 0.40404-1.2412 0.54844-0.86405 0.67376-0.45218 0.77788-0.0156 0.85173 0.42529 0.89651 0.85959 0.90658 1.2647 0.88197 1.6262 0.82263 1.9296 0.72862 2.1568 0.60439 2.2989 0.45441 2.347 0.28318 2.2978 0.10073 2.1534-0.0873 1.9206-0.27085 1.6072-0.44323 1.2312-0.59542 0.8092-0.7219 0.35816-0.81817-0.0985-0.87973-0.54731-0.90769-0.96702-0.89987-1.3431-0.85733-1.6643-0.78349-1.9195-0.6816-2.1019-0.55627-2.206-0.413-2.2318-0.25518-2.1769-0.0884z" fill="url(#n)"/><path d="m503.13 325.33-2.1266 0.0839-1.9542 0.26302-1.7102 0.43203-1.4035 0.58647-1.0431 0.72303-0.64133 0.83384-0.20929 0.91442 0.23727 0.96254 0.68162 0.97374 1.1069 0.94799 1.4953 0.88532 1.8288 0.78345 2.0918 0.6514 2.2732 0.48911 2.3616 0.30555 2.3515 0.10969 2.2441-0.0929 2.0437-0.291 1.7594-0.47457 1.4035-0.6402 0.99612-0.77563 0.55067-0.8786 0.0918-0.94576-0.36375-0.97597-0.79913-0.9659-1.1965-0.92002-1.5434-0.84167-1.83-0.73197-2.0437-0.59768-2.1836-0.44322-2.2441-0.27421-2.225-0.0962z" fill="url(#l)"/><path d="m450.15 334.35-2.215 0.0895-2.0773 0.28206-1.8669 0.46335-1.586 0.63014-1.2468 0.77674-0.85622 0.8954-0.42979 0.9838 0.0202 1.0364 0.47569 1.0487 0.92223 1.0219 1.3397 0.95358 1.7068 0.84615 2.0124 0.70288 2.2373 0.52828 2.3705 0.3313 2.4075 0.11863 2.3437-0.0985 2.1803-0.31227 1.9296-0.51261 1.5983-0.68833 1.2076-0.83495 0.77226-0.94687 0.31228-1.0196-0.15333-1.0498-0.60439-1.0398-1.0252-0.99052-1.4013-0.90546-1.7203-0.78795-1.9732-0.64356-2.1523-0.4779-2.253-0.29549-2.2754-0.1052z" fill="url(#k)"/><path d="m540.62 351.9-2.3582 0.10185-2.1333 0.32233-1.8333 0.53164-1.4662 0.72527-1.042 0.89427-0.57416 1.033-0.0784 1.136 0.42866 1.1976 0.93009 1.2144 1.4013 1.1842 1.8277 1.1069 2.187 0.98269 2.4601 0.81704 2.638 0.6167 2.7041 0.38726 2.6604 0.1399 2.5026-0.11192 2.2396-0.36039 1.8859-0.5932 1.4561-0.79802 0.97149-0.96702 0.4533-1.098-0.075-1.1797-0.58984-1.2155-1.0745-1.2032-1.5087-1.145-1.8792-1.0465-2.1769-0.91107-2.3896-0.74317-2.5172-0.5529-2.5518-0.34249-2.4982-0.12311z" fill="url(#o)"/><path d="m473.08 365.83c-1.4799 1.6262-1.2666 3.1489-0.32234 4.9694 3.1471 3.6906 7.9657 4.8314 12.562 5.5458 4.0251 0.42559 7.945-0.0212 11.553-1.868 2.419-1.7428 2.4728-3.796 0.95023-6.1524-3.284-3.39-7.9193-4.4908-12.435-5.1462-4.3066-0.36263-8.7681-0.019-12.308 2.6514z" fill="url(#i)"/><path d="m408.35 379.36c-0.91093 1.415-0.81712 2.6494-0.39286 4.1927 3.058 4.8913 9.2141 5.9031 14.546 6.2263 4.5493-0.0776 9.2681-0.92493 12.21-4.6493 0.761-1.5251 0.48504-2.7587-0.11638-4.2587-2.7246-3.7826-7.3272-4.9146-11.699-5.604-5.1717-0.41324-10.841 0.1129-14.547 4.093z" fill="url(#h)"/><path d="m516.79 400.79c-4.0104 1.877-4.7852 4.9877-2.638 8.6651 3.1058 3.7269 7.5838 5.3867 12.113 6.6774 4.8429 1.1124 9.6508 0.97432 14.304-0.72975 4.1454-2.1918 4.2478-5.5625 1.7337-9.1005-3.2535-3.422-7.6242-4.9862-12.08-6.1636-4.5651-0.97937-9.0118-0.82537-13.433 0.65139z" fill="url(#j)"/><path d="m442.99 418.87c-3.2356 3.8668-1.1823 7.5894 1.9989 10.638 3.3067 2.5776 7.2321 3.6476 11.271 4.4243 4.1249 0.5872 8.06-0.0313 11.938-1.4147 5.4315-2.6795 6.1269-7.2879 2.4937-11.81-3.5286-3.3759-8.0805-4.7172-12.768-5.5481-5.3602-0.59296-10.7 0.21383-14.933 3.7102z" fill="url(#g)"/><path d="m369.72 433.57c-2.49 0.94536-4.3737 2.5399-6.1289 4.4758-1.8057 2.7099-1.6088 5.2346-0.42644 8.1111 2.1007 3.3061 5.4289 4.8425 8.9707 6.1513 5.4545 1.5381 10.83 0.9614 16.099-0.87525 2.5455-1.0746 4.3635-2.7972 6.0069-4.9448 1.5213-2.8991 0.96744-5.4061-0.51485-8.1424-1.6075-2.1718-3.8488-3.4096-6.2017-4.6045-5.9126-2.324-11.847-2.0703-17.805-0.17126z" fill="url(#f)"/><path d="m500.89 467.91-3.3935 0.19139-3.126 0.6458-2.7511 1.0834-2.2765 1.4875-1.7169 1.8468-1.0857 2.1467-0.39957 2.3761 0.31787 2.5228 1.0409 2.5754 1.7426 2.5295 2.3918 2.3806 2.9593 2.1288 3.4137 1.7841 3.7293 1.3543 3.8905 0.86293 3.8815 0.32794 3.7024-0.22385 3.3622-0.76332 2.8798-1.267 2.2776-1.7102 1.5904-2.0739 0.8495-2.3437 0.0918-2.5138-0.65027-2.5787-1.3487-2.5429-1.9788-2.412-2.5216-2.1971-2.9604-1.9072-3.2872-1.5557-3.4954-1.1584-3.5816-0.72416-3.548-0.27197z" fill="url(#e)"/><path d="m410.39 491.17c-4.5907 0.57292-8.298 2.6072-11.649 5.6734-3.5207 4.2842-3.356 8.8221-1.2815 13.682 4.3464 6.8171 11.606 9.2964 19.299 10.009 6.4004 0.0343 11.77-2.1763 16.089-6.8195 3.8263-5.877 1.8706-11.518-2.385-16.44-5.5973-5.1294-12.746-6.5297-20.072-6.1043z" fill="url(#d)"/></g><g fill="#4d4d4d" stroke="#333" stroke-width="2"><path d="m338.42 281.62-1.7527 0.0593-1.7113 0.17683-1.6106 0.28765-1.4505 0.38949-1.2345 0.4768-0.97262 0.54843-0.67042 0.59878-0.33913 0.62901 9e-3 0.63461 0.36039 0.61558 0.70401 0.57193 1.023 0.50478 1.3039 0.41747 1.5334 0.31227 1.7035 0.19363 1.8042 0.066 1.8311-0.0638 1.7818-0.1914 1.6621-0.31115 1.4729-0.41635 1.2278-0.50478 0.93567-0.57193 0.60999-0.61559 0.26414-0.63573-0.0884-0.63012-0.43089-0.59991-0.75438-0.54955-1.0465-0.4779-1.2961-0.3895-1.4975-0.28877-1.643-0.17683-1.7281-0.0593z"/><path d="m291.26 287.61-1.8109 0.0627-1.8008 0.18579-1.7236 0.30554-1.586 0.4119-1.3878 0.50589-1.1371 0.58087-0.84168 0.63573-0.50813 0.66707-0.15334 0.67377 0.21265 0.65364 0.57641 0.60775 0.92001 0.53723 1.2312 0.44435 1.4942 0.3324 1.7001 0.20594 1.8344 0.0716 1.896-0.0682 1.8781-0.20258 1.783-0.32907 1.6184-0.44209 1.3879-0.53612 1.1047-0.60662 0.78012-0.65476 0.43202-0.67378 0.0683-0.6693-0.291-0.63684-0.63572-0.58313-0.95134-0.50701-1.2312-0.41412-1.4628-0.30667-1.6386-0.18804-1.7572-0.0638z"/><path d="m353.17 298.66-1.9049 0.0683-1.8523 0.20818-1.7337 0.33912-1.5513 0.46113-1.3095 0.56409-1.0185 0.65028-0.68497 0.71296-0.32122 0.74765 0.0593 0.75548 0.4421 0.73422 0.81481 0.68274 1.1595 0.60551 1.4595 0.50029 1.7046 0.37494 1.8814 0.2328 1.981 0.0817 1.999-0.075 1.9352-0.22609 1.7919-0.36935 1.5759-0.49582 1.2983-0.60104 0.97262-0.6816 0.6111-0.73422 0.23056-0.75661-0.15221-0.74989-0.52493-0.71407-0.87411-0.65364-1.1842-0.56969-1.4483-0.46448-1.6587-0.34361-1.8076-0.21153-1.8904-0.0727z"/><path d="m302.09 305.74-1.9755 0.0727-1.9564 0.22046-1.868 0.36152-1.7113 0.48911-1.4897 0.60215-1.2121 0.69281-0.88644 0.75996-0.52157 0.79801-0.13207 0.80697 0.26862 0.78346 0.6637 0.72975 1.0387 0.6458 1.3744 0.53611 1.6587 0.40069 1.877 0.25071 2.0191 0.0873 2.0762-0.0784 2.0493-0.24175 1.9374-0.39286 1.7471-0.52938 1.4875-0.64133 1.1718-0.7275 0.81369-0.78346 0.42754-0.80697 0.0313-0.80026-0.36151-0.76331-0.73311-0.69729-1.0745-0.60775-1.3733-0.4947-1.6184-0.36712-1.8031-0.22721-1.9251-0.0783z"/><path d="m247.76 313.27-2.0516 0.0772-2.0706 0.23393-2.0158 0.38501-1.8893 0.52269-1.6912 0.64242-1.4304 0.73983-1.1114 0.81144-0.74763 0.85287-0.34808 0.86293 0.0694 0.83943 0.49135 0.78121 0.89874 0.69169 1.2748 0.57416 1.6028 0.43092 1.868 0.26862 2.0572 0.0951 2.1601-0.0828 2.1736-0.25854 2.0997-0.42084 1.9374-0.56521 1.7001-0.68609 1.3957-0.779 1.0409-0.83718 0.65026-0.86292 0.23952-0.85623-0.17347-0.81592-0.57417-0.74541-0.94799-0.64915-1.2838-0.5294-1.5692-0.39286-1.7964-0.24288-1.9587-0.0851z"/><path d="m315.15 327.58-2.1736 0.0851-2.1433 0.26415-2.037 0.43649-1.8557 0.59208-1.6072 0.72974-1.2972 0.84055-0.93232 0.92337-0.5294 0.9715-0.0974 0.9838 0.34361 0.95695 0.77788 0.89315 1.1886 0.79242 1.5546 0.65699 1.8635 0.49359 2.0952 0.30891 2.243 0.1108 2.2956-0.0929 2.2541-0.29325 2.1198-0.48015 1.8982-0.64468 1.6005-0.78346 1.2446-0.88644 0.84166-0.95583 0.41412-0.98381-0.0246-0.97485-0.45441-0.93008-0.86181-0.84839-1.23-0.73981-1.549-0.60327-1.8109-0.44769-2.0045-0.27758-2.1266-0.0974z"/><path d="m255.51 336.68-2.2653 0.0907-2.281 0.28428-2.2161 0.46672-2.0717 0.63685-1.8501 0.78346-1.5602 0.90435-1.2066 0.99276-0.80136 1.0454-0.36152 1.0588 0.10297 1.0319 0.56858 0.96255 1.0196 0.85397 1.4348 0.7096 1.7953 0.53388 2.0851 0.33465 2.29 0.12087 2.3985-0.0996 2.4086-0.31562 2.3157-0.51597 2.1299-0.69504 1.859-0.84278 1.5166-0.95584 1.1181-1.0286 0.68161-1.0599 0.22721-1.0498-0.22833-1.0006-0.6693-0.91441-1.0778-0.79466-1.4438-0.65028-1.7527-0.48238-1.9967-0.29885-2.1691-0.10632z"/><path d="m191.48 346.45-2.3638 0.0962-2.4343 0.30444-2.4164 0.50365-2.3135 0.68385-2.1266 0.84391-1.859 0.97485-1.5188 1.0711-1.1159 1.1282-0.66371 1.1427-0.17683 1.1148 0.32457 1.0409 0.8204 0.92336 1.2916 0.76892 1.7124 0.57752 2.0672 0.36376 2.3381 0.13095 2.5104-0.10633 2.5787-0.33912 2.5384-0.55739 2.3929-0.751 2.1523-0.90995 1.8266-1.033 1.4337-1.1103 0.99165-1.1438 0.51708-1.1338 0.0324-1.0789-0.44544-0.98717-0.90099-0.85846-1.3162-0.70064-1.6811-0.52044-1.9822-0.32347-2.2138-0.11527z"/><path d="m265.1 365.65-2.5284 0.10857-2.5384 0.35143-2.4601 0.57977-2.2933 0.79242-2.0426 0.97821-1.7135 1.1304-1.3173 1.2435-0.86405 1.3118-0.36824 1.3308 0.14999 1.2994 0.67154 1.2155 1.1763 1.0801 1.6386 0.89874 2.0415 0.67826 2.3605 0.42643 2.5821 0.15669 2.6974-0.12199 2.6962-0.39509 2.5843-0.64916 2.3638-0.87412 2.0493-1.0622 1.6576-1.2032 1.2032-1.2938 0.71184-1.3319 0.20146-1.3185-0.30779-1.2558-0.79577-1.1461-1.2468-0.99836-1.6475-0.81481-1.9833-0.6055-2.2474-0.37607-2.431-0.13542z"/><path d="m193.56 377.83-2.6537 0.1164-2.7298 0.37942-2.7119 0.63013-2.5955 0.86069-2.3885 1.0622-2.0896 1.2289-1.7091 1.3532-1.258 1.4281-0.74989 1.4505-0.20147 1.417 0.36376 1.3252 0.9245 1.1797 1.4572 0.98269 1.9363 0.74205 2.3381 0.46784 2.6448 0.17237 2.8384-0.13208 2.9134-0.42866 2.8641-0.70848 2.6974-0.95359 2.4198-1.1573 2.0482-1.3117 1.6016-1.4102 1.0991-1.4516 0.56522-1.436 0.019-1.3677-0.51822-1.248-1.0252-1.0856-1.4897-0.88757-1.8949-0.65923-2.2306-0.40964-2.4847-0.14886z"/><path d="m115.89 391.05-2.7903 0.12647-2.9458 0.41301-2.9962 0.68496-2.9447 0.9368-2.7869 1.1584-2.525 1.3408-2.1657 1.4774-1.7203 1.5602-1.1987 1.5871-0.61895 1.5502-4e-3 1.4516 0.62341 1.2927 1.2345 1.0789 1.8042 0.81369 2.3023 0.51484 2.7063 0.19027 2.9962-0.14214 3.1596-0.46896 3.1865-0.77451 3.0812-1.0443 2.8496-1.267 2.5048-1.4349 2.0661-1.5423 1.5546-1.5882 0.99275-1.5703 0.40517-1.4931-0.18579-1.3644-0.76108-1.1853-1.2983-0.96926-1.7841-0.71967-2.2015-0.44881-2.5407-0.16453z"/><path d="m196.22 418.05-3.0231 0.14773-3.1081 0.48799-3.0868 0.81256-2.9581 1.1148-2.722 1.3789-2.3851 1.5983-1.9553 1.765-1.4416 1.8669-0.86182 1.9016-0.23503 1.8613 0.413 1.746 1.0599 1.5569 1.6733 1.3005 2.2262 0.98493 2.6906 0.62342 3.0432 0.23392 3.2659-0.16789 3.3476-0.56297 3.2883-0.92897 3.088-1.2547 2.7634-1.5222 2.3303-1.7236 1.8132-1.8501 1.2334-1.9027 0.61895-1.8803-4e-3 -1.7863-0.61447-1.6307-1.1909-1.417-1.7147-1.1573-2.1724-0.85958-2.5474-0.53836-2.835-0.19809z"/></g></g></svg>
