<svg version="1.1" viewBox="0 0 454.4 327.49" xmlns="http://www.w3.org/2000/svg" xmlns:xlink="http://www.w3.org/1999/xlink"><defs><linearGradient id="a"><stop stop-color="#fff" offset="0"/><stop stop-color="#6b728a" offset=".5"/><stop stop-color="#2b2b40" offset="1"/></linearGradient><radialGradient id="f" cx="254.59" cy="134.34" r="214.18" gradientTransform="matrix(-1.011 -.002037 .0015267 -.75772 471.36 253.02)" gradientUnits="userSpaceOnUse" xlink:href="#a"/><linearGradient id="b" x1="256.77" x2="256.77" y1="-45.284" y2="589.86" gradientTransform="matrix(.7838 0 0 .7838 14.635 45.464)" gradientUnits="userSpaceOnUse" xlink:href="#a"/><linearGradient id="h" x1="256.77" x2="256.77" y1="-45.284" y2="589.86" gradientTransform="matrix(.7838 0 0 .7838 55.041 29.089)" gradientUnits="userSpaceOnUse" xlink:href="#a"/><linearGradient id="g" x1="157.45" x2="86.36" y1="57.056" y2="122.27" gradientTransform="matrix(-1.0128 0 0 1.012 499.87 -60.68)" gradientUnits="userSpaceOnUse" xlink:href="#a" spreadMethod="reflect"/><radialGradient id="e" cx="364.59" cy="17.609" r="21.787" gradientTransform="matrix(-6.2093 11.177 -4.957 -2.7539 2895.5 -3837.3)" gradientUnits="userSpaceOnUse" xlink:href="#a" spreadMethod="reflect"/><radialGradient id="d" cx="-39.654" cy="72.919" r="36.296" gradientTransform="matrix(-1.6737 1.883 1.4575 1.2956 263.75 -16.743)" gradientUnits="userSpaceOnUse" xlink:href="#a"/><radialGradient id="c" cx="155.15" cy="245.27" r="13.781" gradientTransform="matrix(.27535 -.55071 -.87075 -.43537 493.26 309.29)" gradientUnits="userSpaceOnUse" xlink:href="#a"/></defs><g transform="translate(-27.378 29.403)"><g stroke="#000015" stroke-linecap="round" stroke-linejoin="round" stroke-width="3"><path transform="translate(40.406 -16.375)" d="m214.19 1.5c-117.45 0-212.69 66.772-212.69 149.19 0 82.416 95.233 149.25 212.69 149.25 39.406 0 76.298-7.5405 107.94-20.656 32.804-13.687 49.245-3.6222 83.031 20.219-7.8261-32.229-17.975-51.909 0.15625-83.312 13.799-19.773 21.531-41.99 21.531-65.5 0-82.416-95.202-149.19-212.66-149.19z" fill="url(#f)"/><g><path transform="translate(40.406 -16.375)" d="m109.69 78.906c-7.2372 0-13.062 5.8254-13.062 13.062v117.56c0 7.2372 5.8254 13.062 13.062 13.062h209c7.2371 0 13.062-5.8254 13.062-13.062v-117.56c0-7.2371-5.8254-13.062-13.062-13.062h-209z" color="#000000" fill="url(#b)"/><path d="m150.08 206.16c-3.9407 0-7.4553-1.7403-9.8466-4.4824l102.29-89.648c7.4319-6.5132 17.846-6.5132 25.278 0l101.65 89.035c-2.3846 3.0961-6.1089 5.0947-10.336 5.0947h-209.03z" color="#000000" fill="url(#h)"/><path transform="translate(40.406 -16.375)" d="m109.66 78.906c-3.9407 0-7.4525 1.7267-9.8438 4.4688l102.31 89.656c7.4319 6.5132 17.818 6.5132 25.25 0l101.66-89.031c-2.3846-3.096-6.1162-5.0938-10.344-5.0938h-209.03z" color="#000000" fill="url(#b)"/></g><g><path d="m390.85 122.37s68.783-74.455 71.501-77.398c2.7182-2.9424 2.4919-8.6012-0.45271-11.317-2.9447-2.7162-44.169-40.744-47.114-43.46-2.9446-2.7163-8.6852-2.406-11.326 0.45231-2.6406 2.8584-71.501 77.398-71.501 77.398l-10.955 59.088s0.22608 5.6589 3.1708 8.3752c2.9446 2.7163 8.6077 2.4899 8.6077 2.4899z" fill="url(#g)"/><path d="m423.31-5.0117-71.355 77.239" fill="#afc6b9"/><path d="m385.08 102.79 71.355-77.239" fill="#82a792"/><path d="m331.95 68.164-10.924 58.988s0.22836 5.6585 3.1731 8.3748c2.9446 2.7163 8.5829 2.4448 8.5829 2.4448l57.739-15.501-5.774-19.975-32.771-30.274-20.027-4.0574z" fill="url(#e)"/><path d="m464.41 43.355c6.2046-6.7163-2.0846-24.447-18.514-39.603-16.43-15.156-34.779-21.997-40.983-15.281l-13.721 14.979s14.521-0.026869 20.868 2.9897c13.403 6.3705 24.949 17.546 32.724 30.186 3.9371 6.4013 6.1679 21.685 6.1679 21.685z" fill="url(#d)"/><path d="m323.24 114.34c10.702 2.1277 19.331 10.01 22.471 20.304l-13.071 3.5421s-5.6554 0.22575-8.6085-2.4984c-2.953-2.7242-3.1966-8.4124-3.1966-8.4124l2.4053-12.935z" color="#000000" fill="url(#c)"/></g></g></g></svg>
