<svg version="1.1" viewBox="0 0 248 248" xmlns="http://www.w3.org/2000/svg" xmlns:xlink="http://www.w3.org/1999/xlink"><defs><linearGradient id="a"><stop stop-color="#0a062b" offset="0"/><stop stop-color="#6c6a7d" stop-opacity=".49565" offset=".34677"/><stop stop-color="#fff" stop-opacity=".81739" offset=".69355"/><stop stop-color="#fff" offset="1"/></linearGradient><radialGradient id="b" cx="473.55" cy="576.51" r="108.85" gradientTransform="matrix(1.1392 0 0 1.1392 -65.921 -86.254)" gradientUnits="userSpaceOnUse"><stop stop-color="#0aa8ff" offset="0"/><stop offset="1"/></radialGradient><linearGradient id="bw" x1="397.65" x2="431.71" y1="520.9" y2="520.9" gradientTransform="matrix(0 1 -1 0 935.58 106.22)" gradientUnits="userSpaceOnUse" xlink:href="#a"/><linearGradient id="bv" x1="298.87" x2="397.65" y1="470.76" y2="536.83" gradientUnits="userSpaceOnUse" xlink:href="#a"/><linearGradient id="bu" x1="398.42" x2="397.31" y1="446.51" y2="553.82" gradientTransform="translate(-1e-5)" gradientUnits="userSpaceOnUse" xlink:href="#a"/><linearGradient id="bt" x1="309.88" x2="426.95" y1="471.83" y2="556.29" gradientTransform="matrix(0 1 -1 0 937.03 136.63)" gradientUnits="userSpaceOnUse" xlink:href="#a"/><linearGradient id="bs" x1="472.26" x2="577.71" y1="571.23" y2="543.51" gradientTransform="translate(0 1e-5)" gradientUnits="userSpaceOnUse" xlink:href="#a"/><linearGradient id="br" x1="467.33" x2="577.71" y1="556.29" y2="545.1" gradientTransform="matrix(0 1 -1 0 1118.7 -28.466)" gradientUnits="userSpaceOnUse" xlink:href="#a"/><linearGradient id="bq" x1="373.17" x2="432.83" y1="584.64" y2="585.08" gradientTransform="matrix(0 1 -1 0 996.01 174.15)" gradientUnits="userSpaceOnUse" xlink:href="#a"/><linearGradient id="bp" x1="373.17" x2="432.83" y1="595.81" y2="585.08" gradientTransform="matrix(0 1 -1 0 996.01 174.15)" gradientUnits="userSpaceOnUse" xlink:href="#a"/><linearGradient id="bo" x1="482.69" x2="586.93" y1="615" y2="467.73" gradientTransform="matrix(0 1 -1 0 1085.6 -30.887)" gradientUnits="userSpaceOnUse" xlink:href="#a"/><linearGradient id="bn" x1="359.73" x2="411.37" y1="555.53" y2="552.98" gradientUnits="userSpaceOnUse" xlink:href="#a"/><linearGradient id="bm" x1="492.09" x2="531.98" y1="696.14" y2="623.36" gradientTransform="matrix(0 1 -1 0 1129 117.75)" gradientUnits="userSpaceOnUse" xlink:href="#a"/><linearGradient id="bl" x1="530.88" x2="577.72" y1="446.51" y2="561.48" gradientUnits="userSpaceOnUse" xlink:href="#a"/><linearGradient id="bk" x1="469.55" x2="600.09" y1="580.25" y2="565.67" gradientTransform="translate(-5e-6,-5e-5)" gradientUnits="userSpaceOnUse" xlink:href="#a"/><linearGradient id="bj" x1="332.28" x2="464.84" y1="516.9" y2="552.34" gradientTransform="matrix(0 1 -1 0 990.45 114.23)" gradientUnits="userSpaceOnUse" xlink:href="#a"/><linearGradient id="bi" x1="372.98" x2="429.59" y1="551.75" y2="552.98" gradientUnits="userSpaceOnUse" xlink:href="#a"/><linearGradient id="bh" x1="473.55" x2="461.87" y1="446.51" y2="568.81" gradientUnits="userSpaceOnUse" xlink:href="#a"/><linearGradient id="bg" x1="497.43" x2="560.81" y1="477.79" y2="538.85" gradientTransform="matrix(0 -.60832 .60832 0 188.78 871.17)" gradientUnits="userSpaceOnUse" xlink:href="#a" spreadMethod="reflect"/><linearGradient id="bf" x1="445.9" x2="560.81" y1="614.62" y2="544.39" gradientTransform="matrix(0 1 -1 0 1088.2 .61476)" gradientUnits="userSpaceOnUse" xlink:href="#a"/><linearGradient id="be" x1="397.02" x2="464.84" y1="569.37" y2="562.71" gradientTransform="translate(0,-2e-5)" gradientUnits="userSpaceOnUse" xlink:href="#a"/><linearGradient id="bd" x1="478.53" x2="557.15" y1="605.93" y2="558.79" gradientTransform="translate(0,4e-5)" gradientUnits="userSpaceOnUse" xlink:href="#a"/><linearGradient id="bc" x1="488.67" x2="536.13" y1="573.52" y2="562.78" gradientTransform="matrix(0 1 -1 0 1123.9 57.398)" gradientUnits="userSpaceOnUse" xlink:href="#a"/><linearGradient id="ar" x1="385.74" x2="526.74" y1="600.85" y2="556.56" gradientTransform="matrix(0 1 -1 0 1052.4 60.768)" gradientUnits="userSpaceOnUse" xlink:href="#a"/><linearGradient id="aq" x1="496.51" x2="536.59" y1="446.51" y2="571.99" gradientTransform="translate(0,1.5e-5)" gradientUnits="userSpaceOnUse" xlink:href="#a"/><linearGradient id="ap" x1="468.07" x2="536.59" y1="565.45" y2="558.79" gradientUnits="userSpaceOnUse" xlink:href="#a"/><linearGradient id="ao" x1="419.72" x2="499.23" y1="569.7" y2="562.71" gradientTransform="translate(0,2e-5)" gradientUnits="userSpaceOnUse" xlink:href="#a"/><linearGradient id="an" x1="441.93" x2="499.23" y1="587.5" y2="604.15" gradientTransform="matrix(0 1 -1 0 1075.4 114.32)" gradientUnits="userSpaceOnUse" xlink:href="#a"/><linearGradient id="ai" x1="431.71" x2="493.61" y1="513.88" y2="513.88" gradientTransform="matrix(0 1 -1 0 976.54 51.214)" gradientUnits="userSpaceOnUse" xlink:href="#a"/><linearGradient id="ah" x1="493.61" x2="547.09" y1="515.47" y2="515.47" gradientTransform="matrix(0 1 -1 0 1035.8 -4.8849)" gradientUnits="userSpaceOnUse" xlink:href="#a"/><linearGradient id="ag" x1="479.23" x2="547.09" y1="519.51" y2="519.51" gradientTransform="matrix(0 -.60832 .60832 0 201.26 844.97)" gradientUnits="userSpaceOnUse" xlink:href="#a" spreadMethod="reflect"/><linearGradient id="af" x1="479.23" x2="560.81" y1="525.78" y2="525.78" gradientTransform="matrix(0 -.60832 .60832 0 201.85 858.1)" gradientUnits="userSpaceOnUse" xlink:href="#a" spreadMethod="reflect"/><linearGradient id="ba" x1="458.39" x2="526.74" y1="736.13" y2="540.63" gradientTransform="matrix(0 -.60832 .60832 0 162.78 848.72)" gradientUnits="userSpaceOnUse" xlink:href="#a" spreadMethod="reflect"/><linearGradient id="az" x1="369.15" x2="526.74" y1="689.75" y2="540.63" gradientTransform="matrix(0 -.60832 .60832 0 162.78 848.72)" gradientUnits="userSpaceOnUse" xlink:href="#a" spreadMethod="reflect"/><linearGradient id="au" x1="383.24" x2="533.79" y1="204.22" y2="546.5" gradientTransform="matrix(0 -.60832 .60832 0 162.78 848.72)" gradientUnits="userSpaceOnUse" xlink:href="#a" spreadMethod="reflect"/><linearGradient id="at" x1="464.84" x2="526.74" y1="540.63" y2="540.63" gradientTransform="matrix(0 -.60832 .60832 0 162.78 848.72)" gradientUnits="userSpaceOnUse" xlink:href="#a" spreadMethod="reflect"/><linearGradient id="av" x1="441.36" x2="526.16" y1="450.22" y2="545.91" gradientTransform="matrix(0 -.60832 .60832 0 162.78 848.72)" gradientUnits="userSpaceOnUse" xlink:href="#a" spreadMethod="reflect"/><linearGradient id="bb" x1="465.59" x2="558.53" y1="547.43" y2="548.74" gradientTransform="matrix(0 -.60832 .60832 0 162.78 848.72)" gradientUnits="userSpaceOnUse" xlink:href="#a" spreadMethod="reflect"/><linearGradient id="am" x1="428.05" x2="499.23" y1="596.18" y2="594.86" gradientTransform="matrix(0 1 -1 0 1075.4 114.32)" gradientUnits="userSpaceOnUse" xlink:href="#a"/><linearGradient id="aj" x1="412.03" x2="499.23" y1="677.76" y2="594.86" gradientTransform="matrix(0 1 -1 0 1075.4 114.32)" gradientUnits="userSpaceOnUse" xlink:href="#a"/><linearGradient id="ak" x1="417.47" x2="488.37" y1="606.18" y2="607.1" gradientTransform="matrix(0 1 -1 0 1075.4 114.32)" gradientUnits="userSpaceOnUse" xlink:href="#a"/><linearGradient id="al" x1="442.24" x2="505.3" y1="610.56" y2="618.79" gradientTransform="matrix(0 1 -1 0 1075.4 114.32)" gradientUnits="userSpaceOnUse" xlink:href="#a"/><linearGradient id="ay" x1="467.63" x2="558.53" y1="534.47" y2="543.84" gradientTransform="matrix(0 -.60832 .60832 0 162.78 848.72)" gradientUnits="userSpaceOnUse" xlink:href="#a" spreadMethod="reflect"/><linearGradient id="ax" x1="490.67" x2="591.32" y1="536.43" y2="549.43" gradientTransform="matrix(0 -.60832 .60832 0 162.78 848.72)" gradientUnits="userSpaceOnUse" xlink:href="#a" spreadMethod="reflect"/><linearGradient id="as" x1="424.21" x2="526.74" y1="648.28" y2="540.63" gradientTransform="matrix(0 -.60832 .60832 0 162.78 848.72)" gradientUnits="userSpaceOnUse" xlink:href="#a" spreadMethod="reflect"/><linearGradient id="aw" x1="431.38" x2="526.74" y1="539.45" y2="540.63" gradientTransform="matrix(0 -.60832 .60832 0 162.78 848.72)" gradientUnits="userSpaceOnUse" xlink:href="#a" spreadMethod="reflect"/><linearGradient id="ae" x1="129.94" x2="175.67" y1="37.637" y2="37.637" gradientTransform="translate(402.04 539.42)" gradientUnits="userSpaceOnUse" xlink:href="#a"/><linearGradient id="ad" x1="77.188" x2="129.94" y1="78.621" y2="78.621" gradientTransform="translate(402.04 539.42)" gradientUnits="userSpaceOnUse" xlink:href="#a"/><linearGradient id="ac" x1="-21.293" x2="27.948" y1="32.576" y2="32.576" gradientTransform="translate(402.04 539.42)" gradientUnits="userSpaceOnUse" xlink:href="#a"/><linearGradient id="ab" x1="145.05" x2="167.39" y1="-12.051" y2="-12.051" gradientTransform="translate(402.04 539.42)" gradientUnits="userSpaceOnUse" xlink:href="#a"/><linearGradient id="aa" x1="159.1" x2="167.39" y1="2.407" y2="2.407" gradientTransform="translate(402.04 539.42)" gradientUnits="userSpaceOnUse" xlink:href="#a"/><linearGradient id="z" x1="120.84" x2="167.39" y1="37.637" y2="37.637" gradientTransform="translate(402.04 539.42)" gradientUnits="userSpaceOnUse" xlink:href="#a"/><linearGradient id="y" x1="120.84" x2="167.39" y1="24.19" y2="24.19" gradientTransform="translate(402.04 539.42)" gradientUnits="userSpaceOnUse" xlink:href="#a"/><linearGradient id="x" x1="27.948" x2="77.188" y1="81.832" y2="81.832" gradientTransform="translate(402.04 539.42)" gradientUnits="userSpaceOnUse" xlink:href="#a"/><linearGradient id="w" x1="-21.293" x2="-.7314" y1="-4.1256" y2="-4.1256" gradientTransform="translate(402.04 539.42)" gradientUnits="userSpaceOnUse" xlink:href="#a"/><linearGradient id="v" x1="77.188" x2="120.84" y1="76.583" y2="76.583" gradientTransform="translate(402.04 539.42)" gradientUnits="userSpaceOnUse" xlink:href="#a"/><linearGradient id="u" x1="-.7314" x2="48.509" y1="31.697" y2="31.697" gradientTransform="translate(402.04 539.42)" gradientUnits="userSpaceOnUse" xlink:href="#a"/><linearGradient id="t" x1="-21.293" x2="27.948" y1="31.697" y2="31.697" gradientTransform="translate(402.04 539.42)" gradientUnits="userSpaceOnUse" xlink:href="#a"/><linearGradient id="s" x1="27.948" x2="77.188" y1="77.655" y2="77.655" gradientTransform="translate(402.04 539.42)" gradientUnits="userSpaceOnUse" xlink:href="#a"/><linearGradient id="r" x1="120.84" x2="159.1" y1="24.19" y2="24.19" gradientTransform="translate(402.04 539.42)" gradientUnits="userSpaceOnUse" xlink:href="#a"/><linearGradient id="q" x1="126.83" x2="159.1" y1="-13.588" y2="-13.588" gradientTransform="translate(402.04 539.42)" gradientUnits="userSpaceOnUse" xlink:href="#a"/><linearGradient id="p" x1="48.509" x2="85.87" y1="76.583" y2="76.583" gradientTransform="translate(402.04 539.42)" gradientUnits="userSpaceOnUse" xlink:href="#a"/><linearGradient id="o" x1="91.573" x2="126.83" y1="-23.319" y2="-23.319" gradientTransform="translate(402.04 539.42)" gradientUnits="userSpaceOnUse" xlink:href="#a"/><linearGradient id="n" x1="94.55" x2="159.11" y1="-10.958" y2="-10.958" gradientTransform="translate(402.04 539.42)" gradientUnits="userSpaceOnUse" xlink:href="#a"/><linearGradient id="m" x1="85.87" x2="126.83" y1="24.827" y2="24.827" gradientTransform="translate(402.04 539.42)" gradientUnits="userSpaceOnUse" xlink:href="#a"/><linearGradient id="l" x1="85.87" x2="126.83" y1="16.83" y2="16.83" gradientTransform="translate(402.04 539.42)" gradientUnits="userSpaceOnUse" xlink:href="#a"/><linearGradient id="k" x1="-21.294" x2="19.831" y1="-3.63" y2="-3.63" gradientTransform="translate(402.04 539.42)" gradientUnits="userSpaceOnUse" xlink:href="#a"/><linearGradient id="j" x1="-.7314" x2="48.509" y1="20.046" y2="20.046" gradientTransform="translate(402.04 539.42)" gradientUnits="userSpaceOnUse" xlink:href="#a"/><linearGradient id="i" x1="-.7314" x2="29.672" y1="-18.52" y2="-18.52" gradientTransform="translate(402.04 539.42)" gradientUnits="userSpaceOnUse" xlink:href="#a"/><linearGradient id="h" x1="19.83" x2="57.191" y1="-19.399" y2="-19.399" gradientTransform="translate(402.04 539.42)" gradientUnits="userSpaceOnUse" xlink:href="#a"/><linearGradient id="g" x1="48.509" x2="85.87" y1="22.271" y2="22.271" gradientTransform="translate(402.04 539.42)" gradientUnits="userSpaceOnUse" xlink:href="#a"/><linearGradient id="f" x1="19.83" x2="57.191" y1="20.046" y2="20.046" gradientTransform="translate(402.04 539.42)" gradientUnits="userSpaceOnUse" xlink:href="#a"/><linearGradient id="e" x1="19.831" x2="94.55" y1="-14.13" y2="-14.13" gradientTransform="translate(402.04 539.42)" gradientUnits="userSpaceOnUse" xlink:href="#a"/><linearGradient id="d" x1="57.191" x2="94.553" y1="16.83" y2="16.83" gradientTransform="translate(402.04 539.42)" gradientUnits="userSpaceOnUse" xlink:href="#a"/><linearGradient id="c" x1="57.191" x2="94.553" y1="-23.319" y2="-23.319" gradientTransform="translate(402.04 539.42)" gradientUnits="userSpaceOnUse" xlink:href="#a"/></defs><g transform="translate(-349.55 -446.51)"><path d="m382.9 446.51h181.3c18.476 0 33.351 14.875 33.351 33.351v181.3c0 18.476-14.875 33.351-33.351 33.351h-181.3c-18.476 0-33.351-14.875-33.351-33.351v-181.3c0-18.476 14.875-33.351 33.351-33.351z" color="#000000" fill="url(#b)"/><path d="m496.59 523.25-37.361-4.4512 34.382-9.8449z" fill="url(#c)" opacity=".58621"/><path d="m496.59 523.05-8.6824 66.398-28.679-57.659z" fill="url(#d)" opacity=".58621"/><path d="m459.25 518.81-36.844 8.5938 36.844 4.375 36.812-8.5938-36.812-4.375zm36.812 4.375 0.53125 0.0625v-0.1875l-0.53125 0.125zm-73.656 4.2188-0.53125-0.0625v0.1875l0.53125-0.125z" fill="url(#e)" opacity=".58621"/><path d="m459.23 531.79-8.6824 59.803-28.679-64.254z" fill="url(#f)" opacity=".58621"/><path d="m459.23 531.79 28.679 57.659-37.361 2.1437z" fill="url(#g)" opacity=".58621"/><path d="m459.23 518.8-37.361 8.7387 9.8417-15.032z" fill="url(#h)" opacity=".58621"/><path d="m421.87 527.54-20.562 1.7585 30.403-16.79z" fill="url(#i)" opacity=".58621"/><path d="m421.87 527.34 28.679 64.254-49.24-49.306z" fill="url(#j)" opacity=".58621"/><path d="m421.87 527.34-0.28125 0.21875 0.28125-0.0312v-0.1875zm-0.28125 0.21875-20.281 1.75-20.281 14.719 20.281-1.75 20.281-14.719zm-40.562 16.469-0.28125 0.0312v0.1875l0.28125-0.21875z" fill="url(#k)" opacity=".58621"/><path d="m528.87 534.97-40.958 54.481 8.6824-66.398z" fill="url(#l)" opacity=".58621"/><path d="m528.87 534.97-5.9898 58.558-34.968-4.0761z" fill="url(#m)" opacity=".58621"/><path d="m528.87 521.96-31.812 1.25 31.812 11.75 31.75-1.25-31.75-11.75zm31.75 11.75 0.53125 0.1875v-0.21875l-0.53125 0.0312zm-63.562-10.5-0.46875-0.15625v0.1875l0.46875-0.0312z" fill="url(#n)" opacity=".58621"/><path d="m528.87 521.98-32.275 1.2732-2.9795-14.296z" fill="url(#o)" opacity=".58621"/><path d="m487.91 589.45-8.6824 53.108-28.679-50.965z" fill="url(#p)" opacity=".58621"/><path d="m561.14 533.89-32.275-11.917 18.22-4.2057z" fill="url(#q)" opacity=".58621"/><path d="m561.14 533.7-38.265 59.831 5.9898-58.558z" fill="url(#r)" opacity=".58621"/><path d="m450.55 591.59 28.679 50.965-49.24-42.611z" fill="url(#s)" opacity=".58621"/><path d="m401.31 542.29 28.679 57.659-49.24-55.901z" fill="url(#t)" opacity=".58621"/><path d="m401.31 542.29 49.24 49.306-20.562 8.3534z" fill="url(#u)" opacity=".58621"/><path d="m522.88 593.53-43.65 49.032 8.6824-53.108z" fill="url(#v)" opacity=".58621"/><path d="m401.31 529.3-20.562 14.948 16.898-17.898z" fill="url(#w)" opacity=".58621"/><path d="m429.99 599.95 49.24 42.611-46.401-32.713z" fill="url(#x)" opacity=".58621"/><path d="m569.43 549.96-46.548 43.566 38.265-59.831z" fill="url(#y)" opacity=".58621"/><path d="m569.43 549.96-37.442 54.196-9.1055-10.63z" fill="url(#z)" opacity=".58621"/><path d="m569.43 549.96-8.2827-16.265v0.19811l8.2827 3.0748z" fill="url(#aa)" opacity=".58621"/><path d="m569.43 536.97-8.2827-3.0748-14.055-16.122z" fill="url(#ab)" opacity=".58621"/><path d="m380.75 544.05 49.24 55.901-40.958-39.636z" fill="url(#ac)" opacity=".58621"/><path d="m531.98 604.16-52.756 38.402 43.65-49.032z" fill="url(#ad)" opacity=".58621"/><path d="m577.71 553.04-45.725 51.121 37.442-54.196z" fill="url(#ae)" opacity=".58621"/><g><path d="m493.61 508.95-34.382 9.8449-27.52-6.2931z" fill="url(#ai)"/><path d="m431.71 512.51-30.403 16.79-3.6637-2.9501z" fill="url(#bw)"/><path d="m547.09 517.77-18.22 4.2057-35.255-13.023z" fill="url(#ah)"/><path d="m380.75 544.25 8.2828 3.0748 8.615-20.973z" fill="url(#bv)"/><path d="m380.75 544.06v0.1875l0.12501 0.0312-0.12501-0.21875zm0.12501 0.21875 8.1562 16.031 8.1562 3.0625-8.1562-16.062-8.1562-3.0312zm16.312 19.094 0.125 0.21875v-0.1875l-0.125-0.0312z" fill="url(#bu)" opacity=".77155"/><path d="m397.65 526.35-8.615 20.973 22.338-4.9521z" fill="url(#bt)"/><path d="m432.83 609.85 46.401 32.713-10.92-26.862z" color="#000000" fill="url(#as)"/><path d="m577.71 553.23-8.2829-16.265-8.615-3.176z" fill="url(#bs)"/><path d="m577.71 553.04-8.2829-3.0748v-12.992l8.2829 16.265z" fill="url(#br)"/><path d="m389.03 560.31 43.797 49.535-35.514-46.46z" fill="url(#bq)"/><path d="m389.03 560.31 40.958 39.636 2.8395 9.8986z" fill="url(#bp)"/><path d="m560.81 533.79 8.615 3.176-22.338-19.197z" fill="url(#bo)"/><path d="m389.03 547.32 8.2827 16.265 14.055-21.217z" fill="url(#bn)"/><path d="m509.38 613.34-30.152 29.219 52.756-38.402z" fill="url(#bm)"/><g><path d="m468.31 615.7 10.92 26.862 30.152-29.219z" color="#000000" fill="url(#aw)"/><path d="m557.15 567.98-47.767 45.356 22.604-9.1831z" color="#000000" fill="url(#ax)"/><path d="m557.15 567.98-25.164 36.173 45.725-51.121z" color="#000000" fill="url(#ak)"/></g><path d="m577.72 553.03-0.34376 0.25 0.34376-0.0312v-0.21876zm-0.34376 0.25-20.219 1.7188-20.281 14.719 20.281-1.7188 20.219-14.719zm-40.5 16.438-0.28125 0.0312v0.1875l0.28125-0.21875z" fill="url(#bl)" opacity=".77155"/><path d="m557.15 554.99 20.562-1.7585-16.898-19.441z" fill="url(#bk)"/><path d="m411.37 542.37 18.22 19.944 35.255-11.126z" fill="url(#bj)"/><path d="m397.31 563.58 32.275-1.2732-18.22-19.944z" fill="url(#bi)"/><path d="m397.31 563.39 35.514 46.46-3.2392-34.543z" color="#000000" fill="url(#aj)"/><path d="m429.59 562.31-31.812 1.25 31.812 11.75 31.812-1.25-31.812-11.75zm31.812 11.75 0.46875 0.15625v-0.1875l-0.46875 0.0312zm-63.625-10.5-0.46876-0.15625v0.1875l0.46876-0.0312z" fill="url(#bh)" opacity=".77155"/><path d="m526.74 547.63 30.403 7.359 3.6638-21.199z" fill="url(#bf)"/><path d="m429.59 575.3 3.2392 34.543 35.481 5.8503z" color="#000000" fill="url(#ay)"/><path d="m429.59 575.3 38.72 40.393-6.4447-41.667z" color="#000000" fill="url(#al)"/><path d="m429.59 562.31 32.275 11.917 2.9796-23.043z" fill="url(#be)"/><path d="m536.59 569.94 20.562-14.948-30.403-7.359z" fill="url(#bd)"/><path d="m536.59 569.74-27.206 43.598 47.767-45.356z" fill="url(#bc)"/><path d="m464.84 551.19 34.382 14.304 27.52-17.856z" fill="url(#ar)"/><path d="m499.23 578.48-30.917 37.215 41.072-2.3567z" color="#000000" fill="url(#bb)"/><path d="m499.23 578.48 10.155 34.859 27.206-43.597z" color="#000000" fill="url(#am)"/><path d="m499.22 565.49-36.812 8.5938 36.812 4.4062 36.844-8.625-36.844-4.375zm36.844 4.375 0.53125 0.0625v-0.1875l-0.53125 0.125zm-73.656 4.2188-0.53125-0.0625v0.1875l0.53125-0.125z" fill="url(#aq)" opacity=".77155"/><path d="m499.23 565.49 37.361 4.4512-9.8417-22.307z" fill="url(#ap)"/><path d="m461.86 574.23 37.361-8.7387-34.382-14.304z" color="#000000" fill="url(#ao)"/><path d="m461.86 574.03 6.4447 41.667 30.917-37.215z" fill="url(#an)"/><g opacity=".84052"><path d="m493.61 508.95-61.901 3.5518 47.516 17.563z" color="#000000" fill="url(#at)"/><path d="m547.09 517.77-53.474-8.8172-14.385 21.115z" fill="url(#ag)"/><path d="m431.71 512.51-34.067 13.84 81.583 3.7232z" color="#000000" fill="url(#au)"/><path d="m397.65 526.35 13.723 16.021 67.86-12.298z" color="#000000" fill="url(#az)"/><path d="m560.81 533.79-13.723-16.021-67.86 12.298z" fill="url(#af)"/><path d="m411.37 542.37 53.475 8.8172 14.385-21.115z" color="#000000" fill="url(#ba)"/><path d="m526.74 547.63 34.067-13.84-81.583-3.7232z" fill="url(#bg)"/><path d="m464.84 551.19 61.901-3.5518-47.516-17.563z" color="#000000" fill="url(#av)"/></g></g><g fill="#fff"><path d="m524.88 481.43-0.87774 60.328-28.321-31.89-8.0164-9.4793 34.991 44.588-41.311 0.87771 2.165 0.0585-11.235 0.23406 50.439 1.1118-27.502 35.05-0.3511 0.46813-0.29256 0.29257-6.9047 8.8356 17.905-21.241 18.432-20.773 0.87774 60.972 0.87771-58.573 0.70217 46.168 0.70217-47.982 34.933 41.428-30.837-39.38 27.151 30.544-29.667-35.869 48.801-1.0532-9.7719-0.23406 3.8619-0.0585-43.3-0.93624 30.076-36.279-23.055 25.863 26.741-34.114-34.874 41.428-0.76067-48.625-0.70217 46.46-0.87771-58.222z" color="#000000"/><path d="m458.77 512.95-0.50568 34.757-16.317-18.373-4.6185-5.4613 20.16 25.688-23.801 0.50567 1.2474 0.0338-6.4727 0.13487 29.06 0.64054-15.845 20.193-0.20227 0.2697-0.16854 0.16856-3.978 5.0905 10.316-12.237 10.619-11.968 0.50568 35.128 0.50568-33.746 0.40454 26.599 0.40454-27.644 20.126 23.868-17.766-22.688 15.642 17.598-17.092-20.665 28.116-0.60681-5.6299-0.13487 2.225-0.0338-24.947-0.53938 17.328-20.901-13.282 14.901 15.406-19.654-20.092 23.868-0.43824-28.015-0.40454 26.767-0.50568-33.543z" color="#000000"/><path d="m473.55 513.17-37.023-0.53867 19.571-17.381 5.8174-4.9197-27.364 21.474-0.53865-25.353-0.0359 1.3287-0.14365-6.8948-0.68228 30.955-21.51-16.878-0.28729-0.21547-0.17955-0.17954-5.4224-4.2374 13.035 10.989 12.748 11.312-37.418 0.53867 35.946 0.53865-28.333 0.43092 29.446 0.43092-25.424 21.438 24.168-18.925-18.745 16.662 22.013-18.206 0.64638 29.949 0.14365-5.997 0.0359 2.3701 0.57457-26.574 22.264 18.458-15.872-14.149 20.936 16.411-25.424-21.402 29.841-0.46682-28.513-0.43092 35.731-0.53865z" color="#000000"/></g></g></svg>
