<svg version="1.1" viewBox="0 0 512 512" xmlns="http://www.w3.org/2000/svg" xmlns:xlink="http://www.w3.org/1999/xlink"><defs><linearGradient id="a"><stop stop-color="#bfb676" offset="0"/><stop stop-color="#ada360" offset=".59766"/><stop stop-color="#7f7842" offset=".96532"/><stop stop-color="#3a371e" offset="1"/></linearGradient><filter id="k" color-interpolation-filters="sRGB"><feGaussianBlur stdDeviation="2.4532254"/></filter><radialGradient id="d" cx="291.73" cy="469.38" r="33.36" gradientTransform="matrix(4.4777,0,0,14.49,-985.48,-5978.3)" gradientUnits="userSpaceOnUse" xlink:href="#a"/><radialGradient id="c" cx="408.06" cy="530.78" r="91.655" gradientTransform="matrix(6.0998 .022814 -.018756 5.0148 -2161.1 -1926.4)" gradientUnits="userSpaceOnUse" xlink:href="#a"/><linearGradient id="j" x1="-120.97" x2="400.93" y1="251.83" y2="451.33" gradientUnits="userSpaceOnUse" xlink:href="#a" spreadMethod="reflect"/><linearGradient id="i" x1="926.78" x2="467.08" y1="243.62" y2="442.87" gradientUnits="userSpaceOnUse" xlink:href="#a" spreadMethod="reflect"/><linearGradient id="h" x1="241.9" x2="318.35" y1="397.79" y2="397.79" gradientUnits="userSpaceOnUse" xlink:href="#a"/><filter id="m" color-interpolation-filters="sRGB"><feGaussianBlur stdDeviation="1.5904793"/></filter><filter id="l" x="-.10926" y="-.0063486" width="1.2185" height="1.0127" color-interpolation-filters="sRGB"><feGaussianBlur stdDeviation="0.48226562"/></filter><linearGradient id="g" x1="75.822" x2="211.21" y1="208.06" y2="195.09" gradientTransform="matrix(3.4673,0,0,1,-385.97,0)" gradientUnits="userSpaceOnUse" xlink:href="#a"/><linearGradient id="b"><stop stop-color="#FFF" offset="0"/><stop stop-color="#19ff02" offset=".43056"/><stop stop-color="#004d00" offset="1"/></linearGradient><linearGradient id="f" x1="2411.4" x2="1570" y1="1415.5" y2="2256.9" gradientTransform="matrix(.41924 0 0 .27884 -581.01 -262.36)" gradientUnits="userSpaceOnUse" xlink:href="#b" spreadMethod="reflect"/><linearGradient id="e" x1="2077.4" x2="2080.5" y1="1005.5" y2="1520.6" gradientTransform="matrix(.41924 0 0 .27884 -581.01 -262.36)" gradientUnits="userSpaceOnUse" xlink:href="#b" spreadMethod="reflect"/></defs><g transform="matrix(1.1729 0 0 1.1729 -184.58 -166.04)"><path d="m430.15 324.09 2.9688 138.84c1.4307-1.1915 2.7124-2.5712 4.1562-3.7812l-2.375-135.03-1.1875-0.0312h-3.5625z" color="#000000" fill="#534f2b"/><path d="m432.56 323.99-180.39 11.38-0.4 182.7 180.98-11.42z" fill="url(#j)"/><path d="m497.61 252.09-65.082 72.002 67.305 32.156 64.497-72.327z" fill="#fff28c"/><path d="m222.65 267.67 27.36 68.02 183.31-11.58-27.36-68.03z" fill="#fffc93"/><path d="m249.66 504.69-47.214 2.408-0.1524 0.94489 34.565 14.082-72.178 1.3716-0.21337 0.91441 74.007 36.028 0.0914 0.061h0.1524l75.256-2.9566 38.162 14.631 0.0914 0.0304h0.0914l188.28-11.156 0.18289-0.94489-30.237-14.417 76.841-0.97538 0.21337-0.91442-74.007-34.534-0.0914-0.061h-17.191l-246.62-4.5111h-0.0305z" color="#000000" filter="url(#k)" opacity=".2" style="block-progression:tb;text-indent:0;text-transform:none"/><path d="m497.88 355.27-65.351-31.178-0.0334 182.55 65.78 31.383z" fill="url(#i)"/><path d="m250.01 335.2 66.72 31.832 1.0059-0.37459-65.568-31.101z" fill="#746e3e"/><path d="m250.01 335.2-27.357-68.023-0.46587 1.6999 27.357 68.023z" fill="#878046"/><path d="m564.65 283.25-64.612 72.214 1.1914 2.0191 65.01-72.684z" fill="#878046"/><path d="m317.55 549.45 180.73-11.42-65.78-31.38-180.73 11.42z" fill="#eeb941"/><path d="m316.73 551.11 183.31-11.586v-184.08l-183.31 11.586z" fill="url(#c)"/><path transform="matrix(.28841 0 0 1 270.44 246.25)" d="m157.59 122.56v182.31s10.594-139.44 10.594-182.31h-10.594z" color="#000000" fill="url(#g)" filter="url(#l)"/><path d="m316.73 367.03 183.31-11.586-2.1572-0.17467-180.15 11.386z" fill="#746e3e"/><path d="m530.97 406.04-183.31 11.586-0.30377 2.0297 183.31-11.586z" fill="#878046"/><path d="m241.9 426.73-66.72-31.832 1.2799 1.8413 66.72 31.832z" fill="#a29959"/><path d="m250.01 519.28 66.72 31.832v-184.08l-66.72-31.83z" fill="url(#d)"/><path d="m314.6 366.54-61.497 39.927c24.293 8.8558 58.922 1.8113 62.605-34.079 0.20494-1.9973-0.38248-3.9582-1.1082-5.8486z" color="#000000" fill="#494526" filter="url(#m)" opacity=".45923"/><path d="m250.01 335.2-75.163 59.721 66.72 31.832 74.826-59.7z" fill="#fffb92"/><path d="m347.66 417.63-30.951-50.608-0.30378 2.0298 30.951 50.608z" fill="#878046"/><path d="m316.73 367.03-74.826 59.7 1.28 1.8413 73.532-59.014z" fill="url(#h)"/><path d="m316.73 367.03 30.931 50.599 183.31-11.586-30.951-50.608z" fill="#ffff97"/></g><g transform="matrix(1.0457 0 0 1.4406 26.459 -19.936)" fill-rule="evenodd"><path d="m195.09 18.004c-4.9198 2.8e-4 -9.3734 1.2237-12.852 3.5379-3.479 2.314-5.3319 5.2846-5.3324 8.557v75.984h-18.224c-6.707 0-12.395 2.1846-15.748 6.0475-3.4915 4.0225-2.2163 5.8715-1.9914 7.3282 0.22497 1.4566 0.68127 2.6229 0.68127 2.6229 0.35011 0.92912 0.94238 1.8177 1.7425 2.6141l60.841 60.533c0.49341 0.49143 1.0654 0.94795 1.7032 1.3594 0 0 1.2946 0.84137 3.0788 1.6992 1.7841 0.85782 3.55 2.5183 10.533 2.5183 6.9837 0 8.7362-1.6604 10.52-2.5183 1.7841-0.85782 3.0788-1.6992 3.0788-1.6992 0.64308-0.41369 1.2195-0.87317 1.7163-1.368l60.828-60.525c0.80013-0.79646 1.3924-1.685 1.7425-2.6141 0 0 0.44318-1.1663 0.66815-2.6228 0.22492-1.4566 1.513-3.3056-1.9783-7.3282-3.353-3.863-9.0414-6.0464-15.748-6.0475h-18.237v-75.984c-4.2e-4 -3.2725-1.8533-6.243-5.3324-8.557-3.479-2.314-7.9325-3.5374-12.852-3.5379h-48.842z" color="#000000" fill="#008000" style="block-progression:tb;text-indent:0;text-transform:none"/><path d="m195.09 26.375c-1.4688 1.1e-4 -2.9285 0.40231-3.9671 1.0931-1.0386 0.69079-1.6433 1.6617-1.6434 2.6386v84.349h-30.809c-1.9583 2.3e-4 -3.8791 0.73806-4.8582 1.8661-0.9791 1.128-3.8e-4 3.7314-3.8e-4 3.7314l60.841 60.528s2.9005 1.8653 4.8586 1.8653c1.9582 0 4.8586-1.8653 4.8586-1.8653l60.828-60.528s0.97868-2.6035-3.8e-4 -3.7314c-0.9791-1.128-2.8999-1.8658-4.8582-1.8661h-30.809v-84.349c-1.3e-4 -0.97694-0.60485-1.9478-1.6434-2.6386-1.0386-0.6908-2.4983-1.093-3.9671-1.0931z" color="#000000" fill="url(#f)"/><path d="m195.09 23.586c-2.6192 2e-4 -5.0917 0.67645-6.9439 1.9083-1.852 1.2318-2.869 2.8676-2.8692 4.6095v81.561h-26.609c-3.5412 0-6.7192 1.2194-8.4897 3.2591-1.4902 1.7169-1.0605 2.9602-0.90401 3.9735 0.1565 1.0134 0.45852 1.8299 0.45852 1.8299 0.11798 0.31311 0.31846 0.61236 0.58958 0.88007l60.841 60.525c0.16309 0.16368 0.35229 0.31584 0.56334 0.45311 0 0 0.92045 0.58825 2.1617 1.1851 1.2413 0.5968 2.6399 1.4639 5.6204 1.4639 2.9806 0 4.379-0.86711 5.6204-1.4639 1.2413-0.59683 2.1486-1.1851 2.1486-1.1851 0.21109-0.13727 0.40025-0.28943 0.56338-0.45311l60.916-60.62c0.26978-0.26507 0.47018-0.56128 0.58958-0.87138 0 0 0.31514-0.81644 0.47165-1.8299 0.15646-1.0134 0.5861-2.2566-0.90402-3.9735-1.7704-2.0397-4.9487-3.2585-8.4897-3.2591h-26.622v-81.561c-2.1e-4 -1.7421-1.0171-3.3779-2.8692-4.6095-1.8521-1.2319-4.3115-1.9081-6.9305-1.9083zm0 5.5768h48.829c0.31845 2e-5 0.77056 0.1291 0.9957 0.27884 0.22513 0.14974 0.4192 0.45044 0.41924 0.66225v84.349c1.3e-4 0.72998 0.45199 1.4554 1.228 1.9716 0.7761 0.51616 1.8668 0.81669 2.9644 0.81677h30.814c0.29271 3e-5 0.70122 0.16025 0.98258 0.33112 0.0235 0.14043 0.11319 0.44063 0.0655 0.74939-0.0553 0.35778-0.098 0.47146-0.15722 0.66224l-60.057 59.741c-0.17109 0.10445-0.41241 0.26997-0.95642 0.53152-0.245 0.11781-0.48351 0.16603-0.70743 0.22659-0.22501-0.0607-0.45987-0.10752-0.70751-0.22659-0.54934-0.26411-0.8153-0.42924-0.98258-0.53152l-60.057-59.741c-0.0592-0.19078-0.10196-0.30446-0.15721-0.66224-0.0477-0.30876 0.055-0.60896 0.0786-0.74939 0.28185-0.16989 0.69145-0.33109 0.98262-0.33112h30.801c1.0975-8e-5 2.1883-0.30061 2.9644-0.81677 0.77606-0.51619 1.2279-1.2416 1.228-1.9716v-84.349c5e-5 -0.21181 0.19411-0.51251 0.41925-0.66225 0.22509-0.14971 0.69045-0.27882 1.0088-0.27884z" color="#000000" fill="url(#e)" style="block-progression:tb;text-indent:0;text-transform:none"/></g></svg>
