<svg viewBox="0 0 327.61 401.93" xmlns="http://www.w3.org/2000/svg" xmlns:xlink="http://www.w3.org/1999/xlink"><defs><linearGradient id="d"><stop offset="0"/><stop stop-opacity="0" offset="1"/></linearGradient><linearGradient id="b"><stop stop-color="#858585" offset="0"/><stop stop-color="#ececec" offset=".857"/><stop stop-color="#d1d1d1" offset=".941"/><stop stop-color="#e6e6e6" offset=".965"/><stop stop-color="#b4b4b4" offset="1"/></linearGradient><linearGradient id="c"><stop stop-color="#fff" offset="0"/><stop stop-color="#fff" stop-opacity="0" offset="1"/></linearGradient><linearGradient id="a"><stop stop-color="#858585" offset="0"/><stop stop-color="#ececec" offset=".323"/><stop stop-color="#d1d1d1" offset=".735"/><stop stop-color="#e6e6e6" offset=".878"/><stop stop-color="#b4b4b4" offset="1"/></linearGradient><filter id="E" color-interpolation-filters="sRGB"><feGaussianBlur stdDeviation="1.277"/></filter><filter id="g" color-interpolation-filters="sRGB"><feGaussianBlur stdDeviation=".356"/></filter><filter id="h" color-interpolation-filters="sRGB"><feGaussianBlur stdDeviation=".356"/></filter><linearGradient id="e" x1="-776.97" x2="-719.61" y1="-121.89" y2="249.34" gradientUnits="userSpaceOnUse" xlink:href="#a"/><linearGradient id="f" x1="-963.59" x2="-874.04" y1="-141.55" y2="346.57" gradientUnits="userSpaceOnUse" xlink:href="#b"/><linearGradient id="i" x1="-1021.2" x2="-975.93" y1="-10.065" y2="-15.422" gradientUnits="userSpaceOnUse" xlink:href="#a"/><radialGradient id="z" cx="-1040.7" cy="-343.01" r="68.429" gradientTransform="matrix(1 0 0 1.6 0 205.8)" gradientUnits="userSpaceOnUse"><stop stop-color="#858585" offset="0"/><stop stop-color="#ececec" offset="0"/><stop stop-color="#d1d1d1" offset=".735"/><stop stop-color="#e6e6e6" offset=".878"/><stop stop-color="#b4b4b4" offset="1"/></radialGradient><linearGradient id="A" x1="-938.98" x2="-914.95" y1="84.7" y2="84.342" gradientUnits="userSpaceOnUse" xlink:href="#a"/><radialGradient id="B" cx="-982" cy="-67.196" r="5.597" gradientTransform="matrix(1 0 0 1.8186 0 55.008)" gradientUnits="userSpaceOnUse" xlink:href="#c"/><radialGradient id="C" cx="-917.6" cy="28.013" r="5.596" gradientTransform="matrix(1.2778 0 0 2.3246 254.92 -37.106)" gradientUnits="userSpaceOnUse" xlink:href="#c"/><linearGradient id="D" x1="-963.59" x2="-874.04" y1="-141.55" y2="346.57" gradientTransform="translate(3.03 3.03)" gradientUnits="userSpaceOnUse" xlink:href="#b"/><linearGradient id="F" x1="-716.77" x2="-687.27" y1="46.257" y2="46.257" gradientUnits="userSpaceOnUse" xlink:href="#a"/><radialGradient id="H" cx="-700.07" cy="42.898" r="14.75" gradientTransform="matrix(.89559 .0785 -.08966 1.2673 -76.371 49.645)" gradientUnits="userSpaceOnUse"><stop stop-color="#858585" offset="0"/><stop stop-color="#ececec" offset="0"/><stop stop-color="#d1d1d1" offset=".735"/><stop stop-color="#e6e6e6" offset=".878"/><stop stop-color="#b4b4b4" offset="1"/></radialGradient><linearGradient id="G" x1="-712.02" x2="-688.27" y1="41.507" y2="22.007" gradientTransform="rotate(6.749 -1303.717 8418.621)" gradientUnits="userSpaceOnUse" xlink:href="#a"/><linearGradient id="y" x1="-744.82" x2="-738.18" y1="43.532" y2="43.532" gradientUnits="userSpaceOnUse" xlink:href="#d"/><linearGradient id="x" x1="-743.94" x2="-737.29" y1="51.123" y2="51.123" gradientUnits="userSpaceOnUse" xlink:href="#d"/><linearGradient id="w" x1="-736.99" x2="-730.35" y1="42.618" y2="42.618" gradientUnits="userSpaceOnUse" xlink:href="#d"/><linearGradient id="v" x1="-757.84" x2="-751.19" y1="68.133" y2="68.133" gradientUnits="userSpaceOnUse" xlink:href="#d"/><linearGradient id="u" x1="-760.49" x2="-753.85" y1="45.358" y2="45.358" gradientUnits="userSpaceOnUse" xlink:href="#d"/><linearGradient id="t" x1="-758.72" x2="-752.08" y1="60.541" y2="60.541" gradientUnits="userSpaceOnUse" xlink:href="#d"/><linearGradient id="s" x1="-759.61" x2="-752.96" y1="52.95" y2="52.95" gradientUnits="userSpaceOnUse" xlink:href="#d"/><linearGradient id="r" x1="-752.66" x2="-746.01" y1="44.445" y2="44.445" gradientUnits="userSpaceOnUse" xlink:href="#d"/><linearGradient id="q" x1="-750.89" x2="-744.24" y1="59.628" y2="59.628" gradientUnits="userSpaceOnUse" xlink:href="#d"/><linearGradient id="p" x1="-751.77" x2="-745.13" y1="52.036" y2="52.036" gradientUnits="userSpaceOnUse" xlink:href="#d"/><linearGradient id="o" x1="-776.16" x2="-769.52" y1="47.185" y2="47.185" gradientUnits="userSpaceOnUse" xlink:href="#d"/><linearGradient id="n" x1="-775.27" x2="-768.63" y1="54.776" y2="54.776" gradientUnits="userSpaceOnUse" xlink:href="#d"/><linearGradient id="m" x1="-768.32" x2="-761.68" y1="46.272" y2="46.272" gradientUnits="userSpaceOnUse" xlink:href="#d"/><linearGradient id="l" x1="-767.44" x2="-760.8" y1="53.863" y2="53.863" gradientUnits="userSpaceOnUse" xlink:href="#d"/><linearGradient id="k" x1="-766.55" x2="-759.91" y1="61.455" y2="61.455" gradientUnits="userSpaceOnUse" xlink:href="#d"/><linearGradient id="j" x1="-783.99" x2="-777.35" y1="48.098" y2="48.098" gradientUnits="userSpaceOnUse" xlink:href="#d"/></defs><g transform="translate(987.61 126.08)"><path d="M-982.34-121.94c38.571-3.29 72.634-7.09 120.86-.62 2.2.295 6.799 2.43 8.767 3.474 30.729 16.309 157.09 66.79 178.61 89.08 20.036 20.755 17.142 87.19 1.233 125.62-5.762 13.92-38.63 77.353-20.218 136.26.814 2.605-2.442 3.946-5.082 4.926-52.799 19.598-107.17 30.964-162.66 36.43-2.801.275-10.322-6.617-11.143-9.22 0 0-62.815-147.85-99.374-230.74-6.766-15.34-4.244-28.53-6.628-50.756-1.405-13.103-3.81-24.074-5.082-37.314-.333-3.476-4.078-8.618-4.508-13.27-.29-3.144 1.647-6.188 1.352-9.376-2.07-22.41-1.214-39.573-1.214-39.573-.82-2.602 2.277-4.686 5.082-4.925z" color="#000" fill="url(#e)"/><g color="#000"><path d="M-984.06-121.56c-2.186.746-4.028 2.493-3.375 4.563 0 0-.852 17.152 1.219 39.561.294 3.189-1.635 6.23-1.344 9.376.43 4.65 4.167 9.805 4.5 13.28 3.603 28.192 2.06 65.39 11.719 88.063 36.56 82.886 99.375 230.72 99.375 230.72.414 1.313 2.515 3.724 4.875 5.75-14.403-56.274-9.421-119.66-7.812-146.84 2.458-41.524 4.66-123.06-15.375-143.81-14.387-14.904-57.551-64.524-93.781-100.66z" fill="url(#f)"/><path d="M-979.84-122.16c-.836.071-1.663.147-2.5.219-.03.003-.063-.003-.094 0 .01.021.03.039.031.062 0 0 103.25 98.51 104.94 103.5 20.036 20.754 17.833 102.29 15.375 143.81-1.567 26.47-2.112 91.52 11.125 146.75.866-.096 1.73-.213 2.594-.312-13.892-55.83-12.466-119.56-10.875-146.44 2.458-41.523 4.66-123.06-15.375-143.81-1.692-4.991-104.94-103.5-104.94-103.5-.003-.119-.113-.217-.281-.282z" fill="gray" filter="url(#g)" opacity=".874"/><path d="M-869.12-123.5c32.89 17.282 163.42 69.495 185.75 92.625 20.896 21.645 17.874 90.916 1.281 131-5.902 14.258-39.082 78.352-22.062 138.84.864-.31 1.728-.63 2.594-.938-16.418-60.215 16.441-123.72 22.312-137.91 16.592-40.084 19.615-109.35-1.281-131-22.162-22.956-150.85-74.55-184.94-92.218-1.22-.139-2.452-.276-3.656-.407z" fill="gray" filter="url(#h)"/><rect transform="rotate(-5.812)" x="-691.03" y="-30.079" width="12.202" height="6.25" rx="1.667" ry="1.667" fill="maroon"/><path d="M-979.22-57.625c-.82.425-1.849.632-2.781.594l5.312 71.188c1.01 5.598 2.278 10.883 3.97 15.625l-6.5-87.406z" fill="url(#i)" style="block-progression:tb;text-indent:0;text-transform:none"/></g><g stroke-linecap="round" stroke-linejoin="round" stroke-width="3" color="#000"><path d="M-782.98 48.367a2.321 2.321 0 1 1 4.612-.538 2.321 2.321 0 0 1-4.612.538z" stroke="url(#j)"/><path d="M-765.54 61.723a2.321 2.321 0 1 1 4.611-.538 2.321 2.321 0 0 1-4.611.538z" stroke="url(#k)"/><path d="M-766.42 54.132a2.321 2.321 0 1 1 4.611-.538 2.321 2.321 0 0 1-4.611.538z" stroke="url(#l)"/><path d="M-767.31 46.54a2.321 2.321 0 1 1 4.611-.538 2.321 2.321 0 0 1-4.611.538z" stroke="url(#m)"/><path d="M-774.26 55.045a2.321 2.321 0 1 1 4.611-.538 2.321 2.321 0 0 1-4.611.538z" stroke="url(#n)"/><path d="M-775.14 47.454a2.321 2.321 0 1 1 4.611-.538 2.321 2.321 0 0 1-4.611.538z" stroke="url(#o)"/><path d="M-750.76 52.305a2.321 2.321 0 1 1 4.611-.538 2.321 2.321 0 0 1-4.611.538z" stroke="url(#p)"/><path d="M-749.87 59.897a2.321 2.321 0 1 1 4.611-.538 2.321 2.321 0 0 1-4.611.538z" stroke="url(#q)"/><path d="M-751.64 44.714a2.321 2.321 0 1 1 4.611-.538 2.321 2.321 0 0 1-4.611.538z" stroke="url(#r)"/><path d="M-758.59 53.219a2.321 2.321 0 1 1 4.611-.538 2.321 2.321 0 0 1-4.611.538z" stroke="url(#s)"/><path d="M-757.7 60.81a2.321 2.321 0 1 1 4.611-.538 2.321 2.321 0 0 1-4.611.538z" stroke="url(#t)"/><path d="M-759.48 45.627a2.321 2.321 0 1 1 4.611-.538 2.321 2.321 0 0 1-4.611.538z" stroke="url(#u)"/><path d="M-756.82 68.402a2.321 2.321 0 1 1 4.611-.538 2.321 2.321 0 0 1-4.611.538z" stroke="url(#v)"/><path d="M-735.97 42.887a2.321 2.321 0 1 1 4.612-.538 2.321 2.321 0 0 1-4.612.538z" stroke="url(#w)"/><path d="M-742.92 51.392a2.321 2.321 0 1 1 4.611-.538 2.321 2.321 0 0 1-4.611.538z" stroke="url(#x)"/><path d="M-743.81 43.8a2.321 2.321 0 1 1 4.611-.538 2.321 2.321 0 0 1-4.611.538z" stroke="url(#y)"/></g><path transform="matrix(.80272 -.21341 .07726 .27704 83.834 45.196)" d="M-974.29-343.01a66.429 107.48 0 0 1-66.429 107.48 66.429 107.48 0 0 1-66.429-107.48 66.429 107.48 0 0 1 66.429-107.48 66.429 107.48 0 0 1 66.429 107.48z" color="#000" fill="url(#z)"/><path d="M-1010-434.59l-57.171 89.6-.543 7.403h45.938l-39.843 94.247 50.459-94.247-.214-7.403h-46.829z" fill="maroon" fill-rule="evenodd" stroke="maroon" stroke-width=".976" transform="matrix(.80272 -.21341 .07726 .27704 79.834 45.196)"/><path d="M-789.455 224.544l3.247-.48 1.386 9.386c.24 1.632.153 2.97-.262 4.012-.416 1.043-1.31 1.975-2.682 2.797-1.362.812-3.226 1.393-5.591 1.743-2.298.339-4.217.354-5.755.046-1.54-.309-2.694-.912-3.465-1.81-.772-.905-1.285-2.218-1.54-3.939l-1.386-9.385 3.247-.48 1.384 9.374c.209 1.411.558 2.424 1.047 3.038.5.606 1.256 1.019 2.27 1.24 1.023.218 2.233.224 3.627.018 2.387-.352 4.036-.962 4.945-1.828.91-.867 1.214-2.32.913-4.358l-1.385-9.374M-778.393 239.513l-2.399-16.244 9.254-1.367c1.629-.24 2.88-.373 3.755-.396 1.224-.045 2.271.06 3.142.317.869.25 1.598.674 2.188 1.273.602.598.962 1.3 1.08 2.105.205 1.382-.286 2.65-1.472 3.807-1.187 1.149-3.515 1.98-6.985 2.492l-6.292.93.976 6.603-3.247.48m1.988-9l6.342-.937c2.098-.31 3.549-.789 4.354-1.436.805-.647 1.138-1.44 1-2.378-.1-.68-.449-1.22-1.044-1.624-.585-.411-1.313-.632-2.184-.662-.56-.015-1.577.086-3.05.303l-6.275.927.857 5.806M-757.376 231.076l3.036-.63c.265.791.699 1.41 1.3 1.857.612.438 1.5.738 2.664.898 1.162.153 2.44.126 3.835-.08 1.239-.183 2.314-.466 3.226-.85.912-.384 1.566-.82 1.961-1.308.406-.498.571-.998.497-1.5-.075-.51-.364-.92-.866-1.231-.503-.318-1.287-.53-2.351-.638-.683-.073-2.178-.12-4.484-.142-2.307-.029-3.936-.135-4.886-.32-1.232-.233-2.181-.606-2.85-1.119-.658-.521-1.043-1.155-1.153-1.901-.12-.82.118-1.637.716-2.45.597-.82 1.543-1.514 2.838-2.083 1.296-.569 2.769-.975 4.42-1.219 1.818-.269 3.448-.31 4.89-.122 1.45.178 2.606.589 3.464 1.232.859.643 1.387 1.437 1.583 2.382l-3.09.614c-.318-1.002-1.002-1.693-2.05-2.074-1.037-.383-2.498-.435-4.383-.157-1.964.29-3.362.742-4.195 1.355-.822.605-1.184 1.243-1.085 1.916.086.583.475 1.016 1.167 1.3.68.284 2.366.43 5.058.441 2.702.001 4.565.077 5.59.227 1.493.225 2.63.624 3.409 1.195.779.565 1.232 1.283 1.361 2.154.128.865-.126 1.736-.76 2.615-.635.87-1.623 1.625-2.966 2.26-1.332.628-2.874 1.07-4.625 1.33-2.22.327-4.115.388-5.684.182-1.559-.208-2.83-.677-3.816-1.407-.976-.739-1.566-1.648-1.77-2.727"/><g color="#000"><path d="M-914.22 40.312c-1.209.58-2.73.842-4 .656l2.906 121.56c1.4 3.26 2.82 6.592 4.188 9.781l-3.094-132z" fill="url(#A)"/><path d="M-982.66-77.375c-1.688 0-2.842.668-3.625 1.813v.03c-.335 2.51-1.514 4.955-1.281 7.47.326 3.524 2.546 7.347 3.75 10.5 1.208.925 4.013.631 5.344-.563 2.19-1.966 2.32-5.083 1.843-8.625-.492-3.656-6.03-10.625-6.03-10.625z" fill="url(#B)" opacity=".47"/><path d="M-918.44 15.003c-2.158 0-3.631.853-4.632 2.316v.04c-.428 3.207-1.934 6.331-1.637 9.544.416 4.504 3.253 9.388 4.791 13.417 1.544 1.182 5.118.82 6.82-.705 2.8-2.513 2.975-6.51 2.365-11.035-.63-4.672-7.707-13.577-7.707-13.577z" fill="url(#C)" opacity=".558"/><path d="M-981.04-118.53c-.972.332-1.853.864-2.5 1.531 35.911 35.992 78.063 84.43 92.25 99.125 20.036 20.754 17.833 102.29 15.375 143.81-1.53 25.835-6.078 84.377 5.844 138.44l1.125 2.656c.414 1.314 2.515 3.724 4.875 5.75-14.403-56.274-9.422-119.66-7.813-146.84 2.458-41.523 4.66-123.06-15.375-143.81-14.387-14.903-57.55-64.523-93.78-100.66z" fill="url(#D)" filter="url(#E)"/></g><g color="#000"><path d="M-918.02-57.398l-4.142.97-.528 53.55h2.603v-51.843l2.575-2.115zM-924.04-63.711l-4.142.97-.528 51.55h2.603v-49.843l2.575-2.115zM-930.06-70.025l-4.142.97-.528 49.55h2.603v-47.843l2.575-2.115zM-936.63-76.338l-3.606.97-.529 47.55h2.603v-45.843l2.04-2.115zM-942.83-82.652l-3.427.97-.53 45.55h2.604v-43.843l1.861-2.115zM-949.57-88.965l-2.713.97-.529 43.55h2.603v-41.843l1.147-2.115zM-955.95-95.278l-2.356.97-.529 41.55h2.603v-39.843l.79-2.115z" style="block-progression:tb;text-indent:0;text-transform:none"/></g><g color="#000"><path d="M-953.67 68.569v5c.82 1.894 1.582 3.688 2.406 5.594l.156-4.75c-.849-1.958-1.72-3.906-2.562-5.844zM-947.64 80.444v7.094c.77 1.782 1.542 3.558 2.313 5.344l.156-6.782c-.835-1.929-1.639-3.74-2.469-5.656zM-941.61 92.381v9.125c.748 1.736 1.503 3.454 2.25 5.188l.156-8.782c-.798-1.85-1.609-3.686-2.406-5.531zM-935.58 104.38v11.125c.711 1.653 1.448 3.322 2.156 4.969l.156-10.72c-.773-1.795-1.537-3.578-2.312-5.374zM-929.58 116.32v13.125c.693 1.613 1.343 3.148 2.031 4.75l.063-.031.156-12.594c-.748-1.74-1.499-3.504-2.25-5.25zM-924 129.49v13.125c.693 1.613 1.343 3.148 2.031 4.75l.063-.031.156-12.594c-.748-1.74-1.499-3.504-2.25-5.25zM-918.19 142.76v13.125c.693 1.613 1.343 3.148 2.031 4.75l.063-.031.156-12.594c-.748-1.74-1.499-3.504-2.25-5.25z" style="block-progression:tb;text-indent:0;text-transform:none"/></g><rect transform="rotate(-5.812)" x="-690" y="-40.161" width="12.202" height="6.25" rx="1.667" ry="1.667" color="#000" fill="green"/><g transform="matrix(.9259 .131 -.11833 1.1056 -57.586 85.47)" stroke="url(#F)"><path d="M-687.62 40.953c0 10.355-4.399 18.85-14.75 18.75-10.718-.103-15.689-8.662-14.75-18.75.963-10.345 4.395-18.75 14.75-18.75s14.75 8.395 14.75 18.75z" color="#000" stroke-width="2" transform="matrix(.98332 -.0027 -.00291 .96086 -10.876 5.741)"/></g><path transform="translate(-987.61 -126.08)" d="M278.41 153.69a15.343 15.343 0 0 0-5.523.271c-6.21 1.487-9.028 8.287-9.602 13.885-.875 8.54-3.02 19.683 10.049 23.712-3.543-3.612-6.59-10.822-6.112-17.587.73-10.323 5.258-18.344 14.532-17.53 3.807.333 8.406 4.812 8.406 4.812s-6.278-6.845-11.75-7.563z" color="#000" fill="url(#G)"/><path d="M-693.98 50.204c-.73 10.323-5.258 18.347-14.532 17.534-9.274-.813-12.618-9.527-11.888-19.85.73-10.323 5.258-18.347 14.532-17.534 9.274.813 12.618 9.527 11.888 19.85z" color="#000" fill="url(#H)"/><g fill="maroon" stroke="#000" stroke-linecap="round" stroke-linejoin="round"><path d="M-712.347 26.36c-3.705-.032-6.566 1.819-8.656 4.799-2.39 3.405-3.822 8.195-4.782 13.502-.955 5.281-.641 10.407 1.156 14.461s5.107 6.976 9.75 7.711c4.5.713 8.124-1.158 10.625-4.567s3.939-8.271 4.5-13.701c.563-5.43.17-10.547-1.562-14.561s-4.871-6.854-9.375-7.513a12.296 12.296 0 0 0-1.656-.132zm-.031 2.052c.466.008.961.058 1.468.132 4.057.594 6.587 2.93 8.094 6.42s1.938 8.23 1.406 13.37c-.532 5.14-1.918 9.61-4.094 12.576s-5.11 4.512-9.156 3.872c-4.206-.667-6.943-3.142-8.5-6.652s-1.887-8.17-1-13.072c.93-5.137 2.32-9.635 4.407-12.609 1.825-2.602 4.11-4.1 7.375-4.037z" color="#000" fill="#000" style="block-progression:tb;text-indent:0;text-transform:none" stroke="none"/></g><path d="M-693.98 50.204c-.73 10.323-5.258 18.347-14.532 17.534-9.274-.813-12.618-9.527-11.888-19.85.73-10.323 5.258-18.347 14.532-17.534 9.274.813 12.618 9.527 11.888 19.85z" color="#000" fill="url(#H)"/></g></svg>