<svg viewBox="0 0 310.64 126.94" xmlns="http://www.w3.org/2000/svg" xmlns:xlink="http://www.w3.org/1999/xlink"><defs><linearGradient id="b"><stop stop-color="#1d1d1d" offset="0"/><stop stop-color="#666" offset="1"/></linearGradient><linearGradient id="a"><stop stop-color="#787878" offset="0"/><stop stop-color="#ababab" offset=".302"/><stop stop-color="#8b8b8b" offset=".604"/><stop stop-color="#4b4b4b" offset="1"/></linearGradient><linearGradient id="h" x1="180.7" x2="167.76" y1="88.49" y2="67.529" gradientTransform="translate(-12.413 -5.483) scale(1.0695)" gradientUnits="userSpaceOnUse" xlink:href="#a"/><radialGradient id="f" cx="83.204" cy="98.406" r="95.844" gradientTransform="matrix(.80502 -.69561 .43298 .50108 -26.384 101.95)" gradientUnits="userSpaceOnUse" xlink:href="#b"/><linearGradient id="j" x1="158.12" x2="148.49" y1="64.824" y2="44.646" gradientUnits="userSpaceOnUse" xlink:href="#a"/><filter id="k" color-interpolation-filters="sRGB"><feGaussianBlur stdDeviation=".488"/></filter><filter id="i" color-interpolation-filters="sRGB"><feGaussianBlur stdDeviation=".039"/></filter><clipPath id="l"><path d="M-78.232 59.578c1.256 7.811 6.98 14.146 13.683 19.561 13.625 11.008 35.193 18.898 35.193 18.898l39.382 16.556s21.366 7.938 32.35 6.899c3.275-.31 8.194-2.715 11.215-4.347 3.828-1.89 1.918-1.421-.53-1.75-4.237-.581-12.532-2.568-24.047-9.252-17.23-10.003-38.746-26.274-63.82-48.807-6.253-5.62-19.669-15.694-30.417-15.694-17.979 0-14.022 11.64-13.01 17.936z" fill="#1a1a1a"/></clipPath><filter id="n" color-interpolation-filters="sRGB"><feGaussianBlur stdDeviation="1.346"/></filter><linearGradient id="g" x1="69.297" x2="124.86" y1="65.5" y2="167.53" gradientTransform="translate(.253 -.002)" gradientUnits="userSpaceOnUse"><stop stop-color="#787878" offset="0"/><stop stop-color="#ababab" offset=".302"/><stop stop-color="#8b8b8b" offset=".725"/><stop stop-color="#4b4b4b" offset="1"/></linearGradient><linearGradient id="q" x1="-239.66" x2="-239.47" y1="60.073" y2="64.16" gradientTransform="matrix(.87794 0 0 .81372 -34.35 -96.523)" gradientUnits="userSpaceOnUse" xlink:href="#b"/><filter id="e" x="-.006" y="-.103" width="1.012" height="1.206" color-interpolation-filters="sRGB"><feGaussianBlur stdDeviation=".359"/></filter><linearGradient id="d" x1="285.47" x2="285.47" y1="118.46" y2="112.02" gradientTransform="translate(-6.071 -1.071)" gradientUnits="userSpaceOnUse" xlink:href="#b"/><filter id="r" x="-.079" y="-.21" width="1.159" height="1.419" color-interpolation-filters="sRGB"><feGaussianBlur stdDeviation=".212"/></filter><filter id="p" color-interpolation-filters="sRGB"><feGaussianBlur stdDeviation="1.367"/></filter><clipPath id="o"><path d="M117.16 87.843c-25.994 0-48.797 9.199-61.594 22.969-8.438 7.94-13.406 17.636-13.406 28.125 0 26.825 31.5 43.935 68.906 58.219 29.94 11.432 48.462 21.981 65.312 13.625 13.574-6.73 28.28-17.455 38.906-28.219.075-.072.144-.147.219-.219 10.24-9.84 17.344-19.972 17.344-27.344 0-10.238-34.882-35.998-45.098-43.116-14.952-10.417-45.831-24.04-70.59-24.04z" fill="url(#c)" stroke="#000" stroke-linecap="round" stroke-linejoin="round"/></clipPath><radialGradient id="c" cx="83.204" cy="98.406" r="95.844" gradientTransform="matrix(.80502 -.69561 .43298 .50108 -26.384 169.23)" gradientUnits="userSpaceOnUse" xlink:href="#b"/></defs><g color="#000"><path d="M215.65 112.93v3.906s16.729 3.998 25.256 4.932c13.981 1.53 30.898.977 42.181 1.068 27.603.224 82.594-6 82.594-6v-3.906s-53.979 6.175-81.079 6c-11.603-.075-28.999.47-43.38-1.082-8.63-.931-16.519-3.784-25.573-4.918z" fill="url(#d)" style="block-progression:tb;text-indent:0;text-transform:none" transform="translate(-55.041 -23.85)"/><path d="M364.31 114.16c-21.927 2.681-43.958 4.663-66.03 5.642-16.895.527-33.834.77-50.715-.192-8.63-.484-17.04-2.21-25.259-4.29-1.826-.235-3.986-1.081-5.683-.785.138 2.383 3.534 1.886 5.171 2.542 13.968 3.184 28.441 4.896 42.841 4.54 27.807.621 55.58-1.355 83.227-4.15 5.517-.557 11.034-1.11 16.542-1.745-.098-.364.468-1.565-.094-1.562z" fill="#4d4d4d" filter="url(#e)" style="block-progression:tb;text-indent:0;text-transform:none" transform="translate(-55.041 -23.85)"/></g><path d="M117.16 20.562c-25.994 0-48.797 9.199-61.594 22.969-8.438 7.94-13.406 17.636-13.406 28.125 0 26.825 31.5 43.935 68.906 58.219 29.94 11.432 48.462 21.981 65.312 13.625 13.574-6.73 28.28-17.455 38.906-28.219.075-.072.144-.147.219-.219 10.24-9.84 17.344-19.97 17.344-27.344 0-10.238-34.882-35.998-45.098-43.116-14.952-10.417-45.831-24.04-70.59-24.04z" fill="url(#f)" stroke="#000" stroke-linecap="round" stroke-linejoin="round" transform="translate(-41.656 -20.062)"/><path d="M6.886 60.224c1.256 7.811 6.98 14.146 13.683 19.561 13.625 11.008 35.193 18.898 35.193 18.898l39.382 16.556s21.366 7.938 32.35 6.898c3.276-.31 8.194-2.714 11.215-4.346 3.828-1.89 1.918-1.422-.53-1.75-4.237-.581-12.532-2.568-24.047-9.253-17.23-10.002-38.746-26.273-63.82-48.806-6.253-5.62-19.669-15.695-30.417-15.695-17.979 0-14.022 11.641-13.01 17.936z" fill="#1a1a1a"/><path d="M6.201 32.3s15.742-15.575 64.212 24.834c24.887 23.652 66.291 49.179 66.291 49.179s9.222 6.924 12.165 5.592c5.745-2.6 14.03-9.232 19.028-13.89 4.447-4.448-33.659-31.483-51.586-45.929-12.273-9.89-33.205-24.92-38.233-27.823-3.908-2.256 10.622-4.782 11.688-4.577 0 0 27.623 3.758 78.443 54.578 4.875 4.876 10.612 12.321 12.143 10.757 0 0 3.834-4.581 6.317-8.032 0 0 2.107-2.907 3.029-8.487.435-2.637-1.786-6.144-5.463-10.487-11.41-13.482-45.703-40.848-75.274-49.791-12.414-3.91-24.24-6.559-38.118-7.71 0 0-47.858 1.786-64.644 31.786z"/><path d="M112.25 20.998c-17.687 1.426-35.782 6.025-50.235 16.478-5.045 3.738-9.347 8.223-12.671 13.553 7.655-3.86 16.783-1.564 24.436 1.205 14.723 5.813 27.672 15.312 39.691 25.489 19.368 17.798 41.014 32.69 63.07 46.864 4.356 2.527 8.394 6.562 13.521 7.13 6.218-2.563 11.684-7.293 16.974-11.687 1.257-1.24 3.852-2.397 2.214-4.439-4.99-7.072-12.113-12.078-18.638-17.678-14.288-11.283-28.762-22.329-43.081-33.572a599.93 599.93 0 0 0-28.406-20.25c-.846-1.868 2.28-2.514 3.53-3 4.225-1.147 8.815-2.712 13.063-.718 16.82 5.717 31.475 16.214 45.31 27.095 13.465 10.853 26.04 22.764 37.797 35.457 1.095.954 3.038 3.209 4.022.827 3.566-4.343 7.61-8.875 8.225-14.647.774-4.377-3.094-7.866-5.501-11.088-11.761-12.941-26.058-23.63-40.751-33.046-13.694-8.703-28.63-15.533-44.452-19.302-9.185-2.287-18.62-4.07-28.12-4.67z" fill="url(#g)" transform="translate(-41.656 -20.062)"/><path d="M17.282 41.938c-4.895.095-11.238 2.644-11.651 8.295-.906 9.62 3.077 19.313 10.029 25.771 10.163 9.72 22.987 15.801 35.708 21.373 12.861 5.304 25.71 10.636 38.501 16.107 11.67 4.647 23.791 8.868 36.444 9.142 5.408-.496 10.597-2.991 14.906-6.094-.673-1.593-3.392-.49-4.798-1.205-17.524-3.735-32.08-15.087-46.497-25.12C74.11 78.6 59.597 65.37 44.562 52.812c-7.875-5.865-17.001-11.52-27.281-10.875z" fill="none" stroke="#000"/><path d="M121.624 48.048l3.857-3.33c1.994-2.135 2.443-1.372 4.185-.105a451.055 451.055 0 0 1 11.938 8.994c4.213 3.293 8.632 6.989 12.279 10.063 2.685 2.18 3.451 2.16.847 4.644l-3.525 3.36c-2.07 2.415-2.305 1.589-4.515-.3l-12.6-10.764-12.105-9.027c-2.537-1.724-2.596-1.605-.361-3.535z" fill="#1a1a1a"/><path d="M190.18 92.501c-8.313-25.21-28.021-21.999-28.021-21.999l6.92-5.14s18.853-2.421 26.012 21.959l-1.16 1.222z" fill="url(#h)" transform="translate(-41.656 -20.062)"/><path d="M97.734 30.472l2.517-1.694c1.632-1.327 2.029-1.068 3.698-.056l15.296 9.274c2.351 1.338 1.99 1.895.697 3.052l-1.973 2.136c-1.751 1.459-2.61 1.142-4.764-.107L97.633 33.023c-1.837-1.273-1.846-1.293.101-2.55z" fill="#1a1a1a"/><g transform="translate(-42.727 -20.24)" filter="url(#i)"><path d="M146.09 48.531c-.433-.022-.872.194-1.563.772l-2.705 1.434c-.37.28-.628.306-.767.7-.277.78-.174 1.942-.174 1.942s.844.601 1.207.846l13.408 8.69c1.824 1.088 2.549 1.368 4.031.096l1.288-1.43c.461-.475 1.196-1.473 1.196-1.473s.216-1.092.076-2.032c-.089-.594-.558-.765-1.497-.728l-12.938-8.11c-.707-.44-1.13-.685-1.563-.707z" fill="gray"/><path d="M142.4 50.314l2.13-1.434c1.381-1.123 1.718-.904 3.13-.047l12.947 7.85c1.991 1.132 1.685 1.604.59 2.583l-1.67 1.808c-1.482 1.235-2.208.966-4.032-.09l-13.181-8.511c-1.555-1.077-1.563-1.094.086-2.16z" fill="url(#j)"/></g><path d="M143.45 50.849l1.888-1.27c1.223-.995 1.52-.801 2.772-.042l11.469 6.954c1.763 1.003 1.493 1.42.523 2.288l-1.48 1.602c-1.313 1.094-1.956.856-3.572-.08l-11.677-7.54c-1.378-.954-1.384-.969.076-1.912z" fill="none" filter="url(#k)" opacity=".211" stroke="#fff" stroke-width=".886" transform="translate(-42.727 -20.24)"/><path d="M129.834 47.126c-.683.622-2.137 1.346-2.673 1.9-.133.137-.21.264-.204.376 9.868.769 17.976 9.021 20.803 18.26 1.198-1.183 3.5-2.791 2.078-4.66-2.819-8.668-10.542-16.547-20.004-15.876z" fill="gray" opacity=".466"/><g transform="translate(85.114 .646)" clip-path="url(#l)" stroke="#1a1a1a"><path id="m" d="M-97.476 26.629c-.265 0-.481.246-.558.587h-.015c-.47 0-.851.274-.851.602 0 .329.382.587.851.587 0 .002.015 0 .015 0 .077.342.293.588.558.588.265 0 .482-.246.558-.588h.015c.47 0 .851-.258.851-.587 0-.328-.382-.602-.851-.602h-.015c-.076-.342-.293-.587-.558-.587z"/><use width="744.094" height="1052.362" xlink:href="#m"/><use transform="translate(2.848 4.727)" width="744.094" height="1052.362" xlink:href="#m"/><use transform="translate(5.696 9.455)" width="744.094" height="1052.362" xlink:href="#m"/><use transform="translate(8.545 14.182)" width="744.094" height="1052.362" xlink:href="#m"/><use transform="translate(11.393 18.91)" width="744.094" height="1052.362" xlink:href="#m"/><use transform="translate(14.241 23.637)" width="744.094" height="1052.362" xlink:href="#m"/><use transform="translate(17.089 28.365)" width="744.094" height="1052.362" xlink:href="#m"/><use transform="translate(19.937 33.092)" width="744.094" height="1052.362" xlink:href="#m"/><use transform="translate(22.786 37.82)" width="744.094" height="1052.362" xlink:href="#m"/><use transform="translate(25.634 42.547)" width="744.094" height="1052.362" xlink:href="#m"/><use transform="translate(28.482 47.274)" width="744.094" height="1052.362" xlink:href="#m"/><use transform="translate(31.33 52.002)" width="744.094" height="1052.362" xlink:href="#m"/><use transform="translate(34.179 56.729)" width="744.094" height="1052.362" xlink:href="#m"/><use transform="translate(37.027 61.457)" width="744.094" height="1052.362" xlink:href="#m"/><use transform="translate(39.875 66.184)" width="744.094" height="1052.362" xlink:href="#m"/><use transform="translate(42.723 70.912)" width="744.094" height="1052.362" xlink:href="#m"/><use transform="translate(45.571 75.639)" width="744.094" height="1052.362" xlink:href="#m"/><use transform="translate(48.42 80.367)" width="744.094" height="1052.362" xlink:href="#m"/><use transform="translate(51.268 85.094)" width="744.094" height="1052.362" xlink:href="#m"/><use transform="translate(54.116 89.821)" width="744.094" height="1052.362" xlink:href="#m"/><use transform="translate(56.964 94.549)" width="744.094" height="1052.362" xlink:href="#m"/><use transform="translate(5.696 2.364)" width="744.094" height="1052.362" xlink:href="#m"/><use transform="translate(8.545 7.091)" width="744.094" height="1052.362" xlink:href="#m"/><use transform="translate(11.393 11.819)" width="744.094" height="1052.362" xlink:href="#m"/><use transform="translate(14.241 16.546)" width="744.094" height="1052.362" xlink:href="#m"/><use transform="translate(17.089 21.273)" width="744.094" height="1052.362" xlink:href="#m"/><use transform="translate(19.937 26.001)" width="744.094" height="1052.362" xlink:href="#m"/><use transform="translate(22.786 30.728)" width="744.094" height="1052.362" xlink:href="#m"/><use transform="translate(25.634 35.456)" width="744.094" height="1052.362" xlink:href="#m"/><use transform="translate(28.482 40.183)" width="744.094" height="1052.362" xlink:href="#m"/><use transform="translate(31.33 44.911)" width="744.094" height="1052.362" xlink:href="#m"/><use transform="translate(34.179 49.638)" width="744.094" height="1052.362" xlink:href="#m"/><use transform="translate(37.027 54.366)" width="744.094" height="1052.362" xlink:href="#m"/><use transform="translate(39.875 59.093)" width="744.094" height="1052.362" xlink:href="#m"/><use transform="translate(42.723 63.82)" width="744.094" height="1052.362" xlink:href="#m"/><use transform="translate(45.571 68.548)" width="744.094" height="1052.362" xlink:href="#m"/><use transform="translate(48.42 73.275)" width="744.094" height="1052.362" xlink:href="#m"/><use transform="translate(51.268 78.003)" width="744.094" height="1052.362" xlink:href="#m"/><use transform="translate(54.116 82.73)" width="744.094" height="1052.362" xlink:href="#m"/><use transform="translate(56.964 87.458)" width="744.094" height="1052.362" xlink:href="#m"/><use transform="translate(59.812 92.185)" width="744.094" height="1052.362" xlink:href="#m"/><use transform="translate(62.661 96.913)" width="744.094" height="1052.362" xlink:href="#m"/><use transform="translate(11.393 4.727)" width="744.094" height="1052.362" xlink:href="#m"/><use transform="translate(14.241 9.455)" width="744.094" height="1052.362" xlink:href="#m"/><use transform="translate(17.089 14.182)" width="744.094" height="1052.362" xlink:href="#m"/><use transform="translate(19.937 18.91)" width="744.094" height="1052.362" xlink:href="#m"/><use transform="translate(22.786 23.637)" width="744.094" height="1052.362" xlink:href="#m"/><use transform="translate(25.634 28.365)" width="744.094" height="1052.362" xlink:href="#m"/><use transform="translate(28.482 33.092)" width="744.094" height="1052.362" xlink:href="#m"/><use transform="translate(31.33 37.82)" width="744.094" height="1052.362" xlink:href="#m"/><use transform="translate(34.179 42.547)" width="744.094" height="1052.362" xlink:href="#m"/><use transform="translate(37.027 47.274)" width="744.094" height="1052.362" xlink:href="#m"/><use transform="translate(39.875 52.002)" width="744.094" height="1052.362" xlink:href="#m"/><use transform="translate(42.723 56.729)" width="744.094" height="1052.362" xlink:href="#m"/><use transform="translate(45.571 61.457)" width="744.094" height="1052.362" xlink:href="#m"/><use transform="translate(48.42 66.184)" width="744.094" height="1052.362" xlink:href="#m"/><use transform="translate(51.268 70.912)" width="744.094" height="1052.362" xlink:href="#m"/><use transform="translate(54.116 75.639)" width="744.094" height="1052.362" xlink:href="#m"/><use transform="translate(56.964 80.367)" width="744.094" height="1052.362" xlink:href="#m"/><use transform="translate(59.812 85.094)" width="744.094" height="1052.362" xlink:href="#m"/><use transform="translate(62.661 89.821)" width="744.094" height="1052.362" xlink:href="#m"/><use transform="translate(65.509 94.549)" width="744.094" height="1052.362" xlink:href="#m"/><use transform="translate(68.357 99.276)" width="744.094" height="1052.362" xlink:href="#m"/><use transform="translate(17.089 7.091)" width="744.094" height="1052.362" xlink:href="#m"/><use transform="translate(19.937 11.819)" width="744.094" height="1052.362" xlink:href="#m"/><use transform="translate(22.786 16.546)" width="744.094" height="1052.362" xlink:href="#m"/><use transform="translate(25.634 21.273)" width="744.094" height="1052.362" xlink:href="#m"/><use transform="translate(28.482 26.001)" width="744.094" height="1052.362" xlink:href="#m"/><use transform="translate(31.33 30.728)" width="744.094" height="1052.362" xlink:href="#m"/><use transform="translate(34.179 35.456)" width="744.094" height="1052.362" xlink:href="#m"/><use transform="translate(37.027 40.183)" width="744.094" height="1052.362" xlink:href="#m"/><use transform="translate(39.875 44.911)" width="744.094" height="1052.362" xlink:href="#m"/><use transform="translate(42.723 49.638)" width="744.094" height="1052.362" xlink:href="#m"/><use transform="translate(45.571 54.366)" width="744.094" height="1052.362" xlink:href="#m"/><use transform="translate(48.42 59.093)" width="744.094" height="1052.362" xlink:href="#m"/><use transform="translate(51.268 63.82)" width="744.094" height="1052.362" xlink:href="#m"/><use transform="translate(54.116 68.548)" width="744.094" height="1052.362" xlink:href="#m"/><use transform="translate(56.964 73.275)" width="744.094" height="1052.362" xlink:href="#m"/><use transform="translate(59.812 78.003)" width="744.094" height="1052.362" xlink:href="#m"/><use transform="translate(62.661 82.73)" width="744.094" height="1052.362" xlink:href="#m"/><use transform="translate(65.509 87.458)" width="744.094" height="1052.362" xlink:href="#m"/><use transform="translate(68.357 92.185)" width="744.094" height="1052.362" xlink:href="#m"/><use transform="translate(71.205 96.913)" width="744.094" height="1052.362" xlink:href="#m"/><use transform="translate(74.053 101.64)" width="744.094" height="1052.362" xlink:href="#m"/><use transform="translate(22.786 9.455)" width="744.094" height="1052.362" xlink:href="#m"/><use transform="translate(25.634 14.182)" width="744.094" height="1052.362" xlink:href="#m"/><use transform="translate(28.482 18.91)" width="744.094" height="1052.362" xlink:href="#m"/><use transform="translate(31.33 23.637)" width="744.094" height="1052.362" xlink:href="#m"/><use transform="translate(34.179 28.365)" width="744.094" height="1052.362" xlink:href="#m"/><use transform="translate(37.027 33.092)" width="744.094" height="1052.362" xlink:href="#m"/><use transform="translate(39.875 37.82)" width="744.094" height="1052.362" xlink:href="#m"/><use transform="translate(42.723 42.547)" width="744.094" height="1052.362" xlink:href="#m"/><use transform="translate(45.571 47.274)" width="744.094" height="1052.362" xlink:href="#m"/><use transform="translate(48.42 52.002)" width="744.094" height="1052.362" xlink:href="#m"/><use transform="translate(51.268 56.729)" width="744.094" height="1052.362" xlink:href="#m"/><use transform="translate(54.116 61.457)" width="744.094" height="1052.362" xlink:href="#m"/><use transform="translate(56.964 66.184)" width="744.094" height="1052.362" xlink:href="#m"/><use transform="translate(59.812 70.912)" width="744.094" height="1052.362" xlink:href="#m"/><use transform="translate(62.661 75.639)" width="744.094" height="1052.362" xlink:href="#m"/><use transform="translate(65.509 80.367)" width="744.094" height="1052.362" xlink:href="#m"/><use transform="translate(68.357 85.094)" width="744.094" height="1052.362" xlink:href="#m"/><use transform="translate(71.205 89.821)" width="744.094" height="1052.362" xlink:href="#m"/><use transform="translate(74.053 94.549)" width="744.094" height="1052.362" xlink:href="#m"/><use transform="translate(76.902 99.276)" width="744.094" height="1052.362" xlink:href="#m"/><use transform="translate(79.75 104)" width="744.094" height="1052.362" xlink:href="#m"/><use transform="translate(28.482 11.819)" width="744.094" height="1052.362" xlink:href="#m"/><use transform="translate(31.33 16.546)" width="744.094" height="1052.362" xlink:href="#m"/><use transform="translate(34.179 21.273)" width="744.094" height="1052.362" xlink:href="#m"/><use transform="translate(37.027 26.001)" width="744.094" height="1052.362" xlink:href="#m"/><use transform="translate(39.875 30.728)" width="744.094" height="1052.362" xlink:href="#m"/><use transform="translate(42.723 35.456)" width="744.094" height="1052.362" xlink:href="#m"/><use transform="translate(45.571 40.183)" width="744.094" height="1052.362" xlink:href="#m"/><use transform="translate(48.42 44.911)" width="744.094" height="1052.362" xlink:href="#m"/><use transform="translate(51.268 49.638)" width="744.094" height="1052.362" xlink:href="#m"/><use transform="translate(54.116 54.366)" width="744.094" height="1052.362" xlink:href="#m"/><use transform="translate(56.964 59.093)" width="744.094" height="1052.362" xlink:href="#m"/><use transform="translate(59.812 63.82)" width="744.094" height="1052.362" xlink:href="#m"/><use transform="translate(62.661 68.548)" width="744.094" height="1052.362" xlink:href="#m"/><use transform="translate(65.509 73.275)" width="744.094" height="1052.362" xlink:href="#m"/><use transform="translate(68.357 78.003)" width="744.094" height="1052.362" xlink:href="#m"/><use transform="translate(71.205 82.73)" width="744.094" height="1052.362" xlink:href="#m"/><use transform="translate(74.053 87.458)" width="744.094" height="1052.362" xlink:href="#m"/><use transform="translate(76.902 92.185)" width="744.094" height="1052.362" xlink:href="#m"/><use transform="translate(79.75 96.913)" width="744.094" height="1052.362" xlink:href="#m"/><use transform="translate(82.598 101.64)" width="744.094" height="1052.362" xlink:href="#m"/><use transform="translate(85.446 106.37)" width="744.094" height="1052.362" xlink:href="#m"/><use transform="translate(34.179 14.182)" width="744.094" height="1052.362" xlink:href="#m"/><use transform="translate(37.027 18.91)" width="744.094" height="1052.362" xlink:href="#m"/><use transform="translate(39.875 23.637)" width="744.094" height="1052.362" xlink:href="#m"/><use transform="translate(42.723 28.365)" width="744.094" height="1052.362" xlink:href="#m"/><use transform="translate(45.571 33.092)" width="744.094" height="1052.362" xlink:href="#m"/><use transform="translate(48.42 37.82)" width="744.094" height="1052.362" xlink:href="#m"/><use transform="translate(51.268 42.547)" width="744.094" height="1052.362" xlink:href="#m"/><use transform="translate(54.116 47.274)" width="744.094" height="1052.362" xlink:href="#m"/><use transform="translate(56.964 52.002)" width="744.094" height="1052.362" xlink:href="#m"/><use transform="translate(59.812 56.729)" width="744.094" height="1052.362" xlink:href="#m"/><use transform="translate(62.661 61.457)" width="744.094" height="1052.362" xlink:href="#m"/><use transform="translate(65.509 66.184)" width="744.094" height="1052.362" xlink:href="#m"/><use transform="translate(68.357 70.912)" width="744.094" height="1052.362" xlink:href="#m"/><use transform="translate(71.205 75.639)" width="744.094" height="1052.362" xlink:href="#m"/><use transform="translate(74.053 80.367)" width="744.094" height="1052.362" xlink:href="#m"/><use transform="translate(76.902 85.094)" width="744.094" height="1052.362" xlink:href="#m"/><use transform="translate(79.75 89.821)" width="744.094" height="1052.362" xlink:href="#m"/><use transform="translate(82.598 94.549)" width="744.094" height="1052.362" xlink:href="#m"/><use transform="translate(85.446 99.276)" width="744.094" height="1052.362" xlink:href="#m"/><use transform="translate(88.295 104)" width="744.094" height="1052.362" xlink:href="#m"/><use transform="translate(91.143 108.73)" width="744.094" height="1052.362" xlink:href="#m"/><use transform="translate(39.875 16.546)" width="744.094" height="1052.362" xlink:href="#m"/><use transform="translate(42.723 21.273)" width="744.094" height="1052.362" xlink:href="#m"/><use transform="translate(45.571 26.001)" width="744.094" height="1052.362" xlink:href="#m"/><use transform="translate(48.42 30.728)" width="744.094" height="1052.362" xlink:href="#m"/><use transform="translate(51.268 35.456)" width="744.094" height="1052.362" xlink:href="#m"/><use transform="translate(54.116 40.183)" width="744.094" height="1052.362" xlink:href="#m"/><use transform="translate(56.964 44.911)" width="744.094" height="1052.362" xlink:href="#m"/><use transform="translate(59.812 49.638)" width="744.094" height="1052.362" xlink:href="#m"/><use transform="translate(62.661 54.366)" width="744.094" height="1052.362" xlink:href="#m"/><use transform="translate(65.509 59.093)" width="744.094" height="1052.362" xlink:href="#m"/><use transform="translate(68.357 63.82)" width="744.094" height="1052.362" xlink:href="#m"/><use transform="translate(71.205 68.548)" width="744.094" height="1052.362" xlink:href="#m"/><use transform="translate(74.053 73.275)" width="744.094" height="1052.362" xlink:href="#m"/><use transform="translate(76.902 78.003)" width="744.094" height="1052.362" xlink:href="#m"/><use transform="translate(79.75 82.73)" width="744.094" height="1052.362" xlink:href="#m"/><use transform="translate(82.598 87.458)" width="744.094" height="1052.362" xlink:href="#m"/><use transform="translate(85.446 92.185)" width="744.094" height="1052.362" xlink:href="#m"/><use transform="translate(88.295 96.913)" width="744.094" height="1052.362" xlink:href="#m"/><use transform="translate(91.143 101.64)" width="744.094" height="1052.362" xlink:href="#m"/><use transform="translate(93.991 106.37)" width="744.094" height="1052.362" xlink:href="#m"/><use transform="translate(96.839 111.09)" width="744.094" height="1052.362" xlink:href="#m"/><use transform="translate(45.571 18.91)" width="744.094" height="1052.362" xlink:href="#m"/><use transform="translate(48.42 23.637)" width="744.094" height="1052.362" xlink:href="#m"/><use transform="translate(51.268 28.365)" width="744.094" height="1052.362" xlink:href="#m"/><use transform="translate(54.116 33.092)" width="744.094" height="1052.362" xlink:href="#m"/><use transform="translate(56.964 37.82)" width="744.094" height="1052.362" xlink:href="#m"/><use transform="translate(59.812 42.547)" width="744.094" height="1052.362" xlink:href="#m"/><use transform="translate(62.661 47.274)" width="744.094" height="1052.362" xlink:href="#m"/><use transform="translate(65.509 52.002)" width="744.094" height="1052.362" xlink:href="#m"/><use transform="translate(68.357 56.729)" width="744.094" height="1052.362" xlink:href="#m"/><use transform="translate(71.205 61.457)" width="744.094" height="1052.362" xlink:href="#m"/><use transform="translate(74.053 66.184)" width="744.094" height="1052.362" xlink:href="#m"/><use transform="translate(76.902 70.912)" width="744.094" height="1052.362" xlink:href="#m"/><use transform="translate(79.75 75.639)" width="744.094" height="1052.362" xlink:href="#m"/><use transform="translate(82.598 80.367)" width="744.094" height="1052.362" xlink:href="#m"/><use transform="translate(85.446 85.094)" width="744.094" height="1052.362" xlink:href="#m"/><use transform="translate(88.295 89.821)" width="744.094" height="1052.362" xlink:href="#m"/><use transform="translate(91.143 94.549)" width="744.094" height="1052.362" xlink:href="#m"/><use transform="translate(93.991 99.276)" width="744.094" height="1052.362" xlink:href="#m"/><use transform="translate(96.839 104)" width="744.094" height="1052.362" xlink:href="#m"/><use transform="translate(99.687 108.73)" width="744.094" height="1052.362" xlink:href="#m"/><use transform="translate(102.54 113.46)" width="744.094" height="1052.362" xlink:href="#m"/><use transform="translate(51.268 21.273)" width="744.094" height="1052.362" xlink:href="#m"/><use transform="translate(54.116 26.001)" width="744.094" height="1052.362" xlink:href="#m"/><use transform="translate(56.964 30.728)" width="744.094" height="1052.362" xlink:href="#m"/><use transform="translate(59.812 35.456)" width="744.094" height="1052.362" xlink:href="#m"/><use transform="translate(62.661 40.183)" width="744.094" height="1052.362" xlink:href="#m"/><use transform="translate(65.509 44.911)" width="744.094" height="1052.362" xlink:href="#m"/><use transform="translate(68.357 49.638)" width="744.094" height="1052.362" xlink:href="#m"/><use transform="translate(71.205 54.366)" width="744.094" height="1052.362" xlink:href="#m"/><use transform="translate(74.053 59.093)" width="744.094" height="1052.362" xlink:href="#m"/><use transform="translate(76.902 63.82)" width="744.094" height="1052.362" xlink:href="#m"/><use transform="translate(79.75 68.548)" width="744.094" height="1052.362" xlink:href="#m"/><use transform="translate(82.598 73.275)" width="744.094" height="1052.362" xlink:href="#m"/><use transform="translate(85.446 78.003)" width="744.094" height="1052.362" xlink:href="#m"/><use transform="translate(88.295 82.73)" width="744.094" height="1052.362" xlink:href="#m"/><use transform="translate(91.143 87.458)" width="744.094" height="1052.362" xlink:href="#m"/><use transform="translate(93.991 92.185)" width="744.094" height="1052.362" xlink:href="#m"/><use transform="translate(96.839 96.913)" width="744.094" height="1052.362" xlink:href="#m"/><use transform="translate(99.687 101.64)" width="744.094" height="1052.362" xlink:href="#m"/><use transform="translate(102.54 106.37)" width="744.094" height="1052.362" xlink:href="#m"/><use transform="translate(105.38 111.09)" width="744.094" height="1052.362" xlink:href="#m"/><use transform="translate(108.23 115.82)" width="744.094" height="1052.362" xlink:href="#m"/><use transform="translate(56.964 23.637)" width="744.094" height="1052.362" xlink:href="#m"/><use transform="translate(59.812 28.365)" width="744.094" height="1052.362" xlink:href="#m"/><use transform="translate(62.661 33.092)" width="744.094" height="1052.362" xlink:href="#m"/><use transform="translate(65.509 37.82)" width="744.094" height="1052.362" xlink:href="#m"/><use transform="translate(68.357 42.547)" width="744.094" height="1052.362" xlink:href="#m"/><use transform="translate(71.205 47.274)" width="744.094" height="1052.362" xlink:href="#m"/><use transform="translate(74.053 52.002)" width="744.094" height="1052.362" xlink:href="#m"/><use transform="translate(76.902 56.729)" width="744.094" height="1052.362" xlink:href="#m"/><use transform="translate(79.75 61.457)" width="744.094" height="1052.362" xlink:href="#m"/><use transform="translate(82.598 66.184)" width="744.094" height="1052.362" xlink:href="#m"/><use transform="translate(85.446 70.912)" width="744.094" height="1052.362" xlink:href="#m"/><use transform="translate(88.295 75.639)" width="744.094" height="1052.362" xlink:href="#m"/><use transform="translate(91.143 80.367)" width="744.094" height="1052.362" xlink:href="#m"/><use transform="translate(93.991 85.094)" width="744.094" height="1052.362" xlink:href="#m"/><use transform="translate(96.839 89.821)" width="744.094" height="1052.362" xlink:href="#m"/><use transform="translate(99.687 94.549)" width="744.094" height="1052.362" xlink:href="#m"/><use transform="translate(102.54 99.276)" width="744.094" height="1052.362" xlink:href="#m"/><use transform="translate(105.38 104)" width="744.094" height="1052.362" xlink:href="#m"/><use transform="translate(108.23 108.73)" width="744.094" height="1052.362" xlink:href="#m"/><use transform="translate(111.08 113.46)" width="744.094" height="1052.362" xlink:href="#m"/><use transform="translate(113.93 118.19)" width="744.094" height="1052.362" xlink:href="#m"/><use transform="translate(62.661 26.001)" width="744.094" height="1052.362" xlink:href="#m"/><use transform="translate(65.509 30.728)" width="744.094" height="1052.362" xlink:href="#m"/><use transform="translate(68.357 35.456)" width="744.094" height="1052.362" xlink:href="#m"/><use transform="translate(71.205 40.183)" width="744.094" height="1052.362" xlink:href="#m"/><use transform="translate(74.053 44.911)" width="744.094" height="1052.362" xlink:href="#m"/><use transform="translate(76.902 49.638)" width="744.094" height="1052.362" xlink:href="#m"/><use transform="translate(79.75 54.366)" width="744.094" height="1052.362" xlink:href="#m"/><use transform="translate(82.598 59.093)" width="744.094" height="1052.362" xlink:href="#m"/><use transform="translate(85.446 63.82)" width="744.094" height="1052.362" xlink:href="#m"/><use transform="translate(88.295 68.548)" width="744.094" height="1052.362" xlink:href="#m"/><use transform="translate(91.143 73.275)" width="744.094" height="1052.362" xlink:href="#m"/><use transform="translate(93.991 78.003)" width="744.094" height="1052.362" xlink:href="#m"/><use transform="translate(96.839 82.73)" width="744.094" height="1052.362" xlink:href="#m"/><use transform="translate(99.687 87.458)" width="744.094" height="1052.362" xlink:href="#m"/><use transform="translate(102.54 92.185)" width="744.094" height="1052.362" xlink:href="#m"/><use transform="translate(105.38 96.913)" width="744.094" height="1052.362" xlink:href="#m"/><use transform="translate(108.23 101.64)" width="744.094" height="1052.362" xlink:href="#m"/><use transform="translate(111.08 106.37)" width="744.094" height="1052.362" xlink:href="#m"/><use transform="translate(113.93 111.09)" width="744.094" height="1052.362" xlink:href="#m"/><use transform="translate(116.78 115.82)" width="744.094" height="1052.362" xlink:href="#m"/><use transform="translate(119.62 120.55)" width="744.094" height="1052.362" xlink:href="#m"/><use transform="translate(68.357 28.365)" width="744.094" height="1052.362" xlink:href="#m"/><use transform="translate(71.205 33.092)" width="744.094" height="1052.362" xlink:href="#m"/><use transform="translate(74.053 37.82)" width="744.094" height="1052.362" xlink:href="#m"/><use transform="translate(76.902 42.547)" width="744.094" height="1052.362" xlink:href="#m"/><use transform="translate(79.75 47.274)" width="744.094" height="1052.362" xlink:href="#m"/><use transform="translate(82.598 52.002)" width="744.094" height="1052.362" xlink:href="#m"/><use transform="translate(85.446 56.729)" width="744.094" height="1052.362" xlink:href="#m"/><use transform="translate(88.295 61.457)" width="744.094" height="1052.362" xlink:href="#m"/><use transform="translate(91.143 66.184)" width="744.094" height="1052.362" xlink:href="#m"/><use transform="translate(93.991 70.912)" width="744.094" height="1052.362" xlink:href="#m"/><use transform="translate(96.839 75.639)" width="744.094" height="1052.362" xlink:href="#m"/><use transform="translate(99.687 80.367)" width="744.094" height="1052.362" xlink:href="#m"/><use transform="translate(102.54 85.094)" width="744.094" height="1052.362" xlink:href="#m"/><use transform="translate(105.38 89.821)" width="744.094" height="1052.362" xlink:href="#m"/><use transform="translate(108.23 94.549)" width="744.094" height="1052.362" xlink:href="#m"/><use transform="translate(111.08 99.276)" width="744.094" height="1052.362" xlink:href="#m"/><use transform="translate(113.93 104)" width="744.094" height="1052.362" xlink:href="#m"/><use transform="translate(116.78 108.73)" width="744.094" height="1052.362" xlink:href="#m"/><use transform="translate(119.62 113.46)" width="744.094" height="1052.362" xlink:href="#m"/><use transform="translate(122.47 118.19)" width="744.094" height="1052.362" xlink:href="#m"/><use transform="translate(125.32 122.91)" width="744.094" height="1052.362" xlink:href="#m"/><use transform="translate(74.053 30.728)" width="744.094" height="1052.362" xlink:href="#m"/><use transform="translate(76.902 35.456)" width="744.094" height="1052.362" xlink:href="#m"/><use transform="translate(79.75 40.183)" width="744.094" height="1052.362" xlink:href="#m"/><use transform="translate(82.598 44.911)" width="744.094" height="1052.362" xlink:href="#m"/><use transform="translate(85.446 49.638)" width="744.094" height="1052.362" xlink:href="#m"/><use transform="translate(88.295 54.366)" width="744.094" height="1052.362" xlink:href="#m"/><use transform="translate(91.143 59.093)" width="744.094" height="1052.362" xlink:href="#m"/><use transform="translate(93.991 63.82)" width="744.094" height="1052.362" xlink:href="#m"/><use transform="translate(96.839 68.548)" width="744.094" height="1052.362" xlink:href="#m"/><use transform="translate(99.687 73.275)" width="744.094" height="1052.362" xlink:href="#m"/><use transform="translate(102.54 78.003)" width="744.094" height="1052.362" xlink:href="#m"/><use transform="translate(105.38 82.73)" width="744.094" height="1052.362" xlink:href="#m"/><use transform="translate(108.23 87.458)" width="744.094" height="1052.362" xlink:href="#m"/><use transform="translate(111.08 92.185)" width="744.094" height="1052.362" xlink:href="#m"/><use transform="translate(113.93 96.913)" width="744.094" height="1052.362" xlink:href="#m"/><use transform="translate(116.78 101.64)" width="744.094" height="1052.362" xlink:href="#m"/><use transform="translate(119.62 106.37)" width="744.094" height="1052.362" xlink:href="#m"/><use transform="translate(122.47 111.09)" width="744.094" height="1052.362" xlink:href="#m"/><use transform="translate(125.32 115.82)" width="744.094" height="1052.362" xlink:href="#m"/><use transform="translate(128.17 120.55)" width="744.094" height="1052.362" xlink:href="#m"/><use transform="translate(131.02 125.28)" width="744.094" height="1052.362" xlink:href="#m"/><use transform="translate(79.75 33.092)" width="744.094" height="1052.362" xlink:href="#m"/><use transform="translate(82.598 37.82)" width="744.094" height="1052.362" xlink:href="#m"/><use transform="translate(85.446 42.547)" width="744.094" height="1052.362" xlink:href="#m"/><use transform="translate(88.295 47.274)" width="744.094" height="1052.362" xlink:href="#m"/><use transform="translate(91.143 52.002)" width="744.094" height="1052.362" xlink:href="#m"/><use transform="translate(93.991 56.729)" width="744.094" height="1052.362" xlink:href="#m"/><use transform="translate(96.839 61.457)" width="744.094" height="1052.362" xlink:href="#m"/><use transform="translate(99.687 66.184)" width="744.094" height="1052.362" xlink:href="#m"/><use transform="translate(102.54 70.912)" width="744.094" height="1052.362" xlink:href="#m"/><use transform="translate(105.38 75.639)" width="744.094" height="1052.362" xlink:href="#m"/><use transform="translate(108.23 80.367)" width="744.094" height="1052.362" xlink:href="#m"/><use transform="translate(111.08 85.094)" width="744.094" height="1052.362" xlink:href="#m"/><use transform="translate(113.93 89.821)" width="744.094" height="1052.362" xlink:href="#m"/><use transform="translate(116.78 94.549)" width="744.094" height="1052.362" xlink:href="#m"/><use transform="translate(119.62 99.276)" width="744.094" height="1052.362" xlink:href="#m"/><use transform="translate(122.47 104)" width="744.094" height="1052.362" xlink:href="#m"/><use transform="translate(125.32 108.73)" width="744.094" height="1052.362" xlink:href="#m"/><use transform="translate(128.17 113.46)" width="744.094" height="1052.362" xlink:href="#m"/><use transform="translate(131.02 118.19)" width="744.094" height="1052.362" xlink:href="#m"/><use transform="translate(133.87 122.91)" width="744.094" height="1052.362" xlink:href="#m"/><use transform="translate(136.71 127.64)" width="744.094" height="1052.362" xlink:href="#m"/><use transform="translate(85.446 35.456)" width="744.094" height="1052.362" xlink:href="#m"/><use transform="translate(88.295 40.183)" width="744.094" height="1052.362" xlink:href="#m"/><use transform="translate(91.143 44.911)" width="744.094" height="1052.362" xlink:href="#m"/><use transform="translate(93.991 49.638)" width="744.094" height="1052.362" xlink:href="#m"/><use transform="translate(96.839 54.366)" width="744.094" height="1052.362" xlink:href="#m"/><use transform="translate(99.687 59.093)" width="744.094" height="1052.362" xlink:href="#m"/><use transform="translate(102.54 63.82)" width="744.094" height="1052.362" xlink:href="#m"/><use transform="translate(105.38 68.548)" width="744.094" height="1052.362" xlink:href="#m"/><use transform="translate(108.23 73.275)" width="744.094" height="1052.362" xlink:href="#m"/><use transform="translate(111.08 78.003)" width="744.094" height="1052.362" xlink:href="#m"/><use transform="translate(113.93 82.73)" width="744.094" height="1052.362" xlink:href="#m"/><use transform="translate(116.78 87.458)" width="744.094" height="1052.362" xlink:href="#m"/><use transform="translate(119.62 92.185)" width="744.094" height="1052.362" xlink:href="#m"/><use transform="translate(122.47 96.913)" width="744.094" height="1052.362" xlink:href="#m"/><use transform="translate(125.32 101.64)" width="744.094" height="1052.362" xlink:href="#m"/><use transform="translate(128.17 106.37)" width="744.094" height="1052.362" xlink:href="#m"/><use transform="translate(131.02 111.09)" width="744.094" height="1052.362" xlink:href="#m"/><use transform="translate(133.87 115.82)" width="744.094" height="1052.362" xlink:href="#m"/><use transform="translate(136.71 120.55)" width="744.094" height="1052.362" xlink:href="#m"/><use transform="translate(139.56 125.28)" width="744.094" height="1052.362" xlink:href="#m"/><use transform="translate(142.41 130)" width="744.094" height="1052.362" xlink:href="#m"/><use transform="translate(91.143 37.82)" width="744.094" height="1052.362" xlink:href="#m"/><use transform="translate(93.991 42.547)" width="744.094" height="1052.362" xlink:href="#m"/><use transform="translate(96.839 47.274)" width="744.094" height="1052.362" xlink:href="#m"/><use transform="translate(99.687 52.002)" width="744.094" height="1052.362" xlink:href="#m"/><use transform="translate(102.54 56.729)" width="744.094" height="1052.362" xlink:href="#m"/><use transform="translate(105.38 61.457)" width="744.094" height="1052.362" xlink:href="#m"/><use transform="translate(108.23 66.184)" width="744.094" height="1052.362" xlink:href="#m"/><use transform="translate(111.08 70.912)" width="744.094" height="1052.362" xlink:href="#m"/><use transform="translate(113.93 75.639)" width="744.094" height="1052.362" xlink:href="#m"/><use transform="translate(116.78 80.367)" width="744.094" height="1052.362" xlink:href="#m"/><use transform="translate(119.62 85.094)" width="744.094" height="1052.362" xlink:href="#m"/><use transform="translate(122.47 89.821)" width="744.094" height="1052.362" xlink:href="#m"/><use transform="translate(125.32 94.549)" width="744.094" height="1052.362" xlink:href="#m"/><use transform="translate(128.17 99.276)" width="744.094" height="1052.362" xlink:href="#m"/><use transform="translate(131.02 104)" width="744.094" height="1052.362" xlink:href="#m"/><use transform="translate(133.87 108.73)" width="744.094" height="1052.362" xlink:href="#m"/><use transform="translate(136.71 113.46)" width="744.094" height="1052.362" xlink:href="#m"/><use transform="translate(139.56 118.19)" width="744.094" height="1052.362" xlink:href="#m"/><use transform="translate(142.41 122.91)" width="744.094" height="1052.362" xlink:href="#m"/><use transform="translate(145.26 127.64)" width="744.094" height="1052.362" xlink:href="#m"/><use transform="translate(148.11 132.37)" width="744.094" height="1052.362" xlink:href="#m"/><use transform="translate(96.839 40.183)" width="744.094" height="1052.362" xlink:href="#m"/><use transform="translate(99.687 44.911)" width="744.094" height="1052.362" xlink:href="#m"/><use transform="translate(102.54 49.638)" width="744.094" height="1052.362" xlink:href="#m"/><use transform="translate(105.38 54.366)" width="744.094" height="1052.362" xlink:href="#m"/><use transform="translate(108.23 59.093)" width="744.094" height="1052.362" xlink:href="#m"/><use transform="translate(111.08 63.82)" width="744.094" height="1052.362" xlink:href="#m"/><use transform="translate(113.93 68.548)" width="744.094" height="1052.362" xlink:href="#m"/><use transform="translate(116.78 73.275)" width="744.094" height="1052.362" xlink:href="#m"/><use transform="translate(119.62 78.003)" width="744.094" height="1052.362" xlink:href="#m"/><use transform="translate(122.47 82.73)" width="744.094" height="1052.362" xlink:href="#m"/><use transform="translate(125.32 87.458)" width="744.094" height="1052.362" xlink:href="#m"/><use transform="translate(128.17 92.185)" width="744.094" height="1052.362" xlink:href="#m"/><use transform="translate(131.02 96.913)" width="744.094" height="1052.362" xlink:href="#m"/><use transform="translate(133.87 101.64)" width="744.094" height="1052.362" xlink:href="#m"/><use transform="translate(136.71 106.37)" width="744.094" height="1052.362" xlink:href="#m"/><use transform="translate(139.56 111.09)" width="744.094" height="1052.362" xlink:href="#m"/><use transform="translate(142.41 115.82)" width="744.094" height="1052.362" xlink:href="#m"/><use transform="translate(145.26 120.55)" width="744.094" height="1052.362" xlink:href="#m"/><use transform="translate(148.11 125.28)" width="744.094" height="1052.362" xlink:href="#m"/><use transform="translate(150.96 130)" width="744.094" height="1052.362" xlink:href="#m"/><use transform="translate(153.8 134.73)" width="744.094" height="1052.362" xlink:href="#m"/><use transform="translate(102.54 42.547)" width="744.094" height="1052.362" xlink:href="#m"/><use transform="translate(105.38 47.274)" width="744.094" height="1052.362" xlink:href="#m"/><use transform="translate(108.23 52.002)" width="744.094" height="1052.362" xlink:href="#m"/><use transform="translate(111.08 56.729)" width="744.094" height="1052.362" xlink:href="#m"/><use transform="translate(113.93 61.457)" width="744.094" height="1052.362" xlink:href="#m"/><use transform="translate(116.78 66.184)" width="744.094" height="1052.362" xlink:href="#m"/><use transform="translate(119.62 70.912)" width="744.094" height="1052.362" xlink:href="#m"/><use transform="translate(122.47 75.639)" width="744.094" height="1052.362" xlink:href="#m"/><use transform="translate(125.32 80.367)" width="744.094" height="1052.362" xlink:href="#m"/><use transform="translate(128.17 85.094)" width="744.094" height="1052.362" xlink:href="#m"/><use transform="translate(131.02 89.821)" width="744.094" height="1052.362" xlink:href="#m"/><use transform="translate(133.87 94.549)" width="744.094" height="1052.362" xlink:href="#m"/><use transform="translate(136.71 99.276)" width="744.094" height="1052.362" xlink:href="#m"/><use transform="translate(139.56 104)" width="744.094" height="1052.362" xlink:href="#m"/><use transform="translate(142.41 108.73)" width="744.094" height="1052.362" xlink:href="#m"/><use transform="translate(145.26 113.46)" width="744.094" height="1052.362" xlink:href="#m"/><use transform="translate(148.11 118.19)" width="744.094" height="1052.362" xlink:href="#m"/><use transform="translate(150.96 122.91)" width="744.094" height="1052.362" xlink:href="#m"/><use transform="translate(153.8 127.64)" width="744.094" height="1052.362" xlink:href="#m"/><use transform="translate(156.65 132.37)" width="744.094" height="1052.362" xlink:href="#m"/><use transform="translate(159.5 137.1)" width="744.094" height="1052.362" xlink:href="#m"/><use transform="translate(108.23 44.911)" width="744.094" height="1052.362" xlink:href="#m"/><use transform="translate(111.08 49.638)" width="744.094" height="1052.362" xlink:href="#m"/><use transform="translate(113.93 54.366)" width="744.094" height="1052.362" xlink:href="#m"/><use transform="translate(116.78 59.093)" width="744.094" height="1052.362" xlink:href="#m"/><use transform="translate(119.62 63.82)" width="744.094" height="1052.362" xlink:href="#m"/><use transform="translate(122.47 68.548)" width="744.094" height="1052.362" xlink:href="#m"/><use transform="translate(125.32 73.275)" width="744.094" height="1052.362" xlink:href="#m"/><use transform="translate(128.17 78.003)" width="744.094" height="1052.362" xlink:href="#m"/><use transform="translate(131.02 82.73)" width="744.094" height="1052.362" xlink:href="#m"/><use transform="translate(133.87 87.458)" width="744.094" height="1052.362" xlink:href="#m"/><use transform="translate(136.71 92.185)" width="744.094" height="1052.362" xlink:href="#m"/><use transform="translate(139.56 96.913)" width="744.094" height="1052.362" xlink:href="#m"/><use transform="translate(142.41 101.64)" width="744.094" height="1052.362" xlink:href="#m"/><use transform="translate(145.26 106.37)" width="744.094" height="1052.362" xlink:href="#m"/><use transform="translate(148.11 111.09)" width="744.094" height="1052.362" xlink:href="#m"/><use transform="translate(150.96 115.82)" width="744.094" height="1052.362" xlink:href="#m"/><use transform="translate(153.8 120.55)" width="744.094" height="1052.362" xlink:href="#m"/><use transform="translate(156.65 125.28)" width="744.094" height="1052.362" xlink:href="#m"/><use transform="translate(159.5 130)" width="744.094" height="1052.362" xlink:href="#m"/><use transform="translate(162.35 134.73)" width="744.094" height="1052.362" xlink:href="#m"/><use transform="translate(165.2 139.46)" width="744.094" height="1052.362" xlink:href="#m"/><use transform="translate(113.93 47.274)" width="744.094" height="1052.362" xlink:href="#m"/><use transform="translate(116.78 52.002)" width="744.094" height="1052.362" xlink:href="#m"/><use transform="translate(119.62 56.729)" width="744.094" height="1052.362" xlink:href="#m"/><use transform="translate(122.47 61.457)" width="744.094" height="1052.362" xlink:href="#m"/><use transform="translate(125.32 66.184)" width="744.094" height="1052.362" xlink:href="#m"/><use transform="translate(128.17 70.912)" width="744.094" height="1052.362" xlink:href="#m"/><use transform="translate(131.02 75.639)" width="744.094" height="1052.362" xlink:href="#m"/><use transform="translate(133.87 80.367)" width="744.094" height="1052.362" xlink:href="#m"/><use transform="translate(136.71 85.094)" width="744.094" height="1052.362" xlink:href="#m"/><use transform="translate(139.56 89.821)" width="744.094" height="1052.362" xlink:href="#m"/><use transform="translate(142.41 94.549)" width="744.094" height="1052.362" xlink:href="#m"/><use transform="translate(145.26 99.276)" width="744.094" height="1052.362" xlink:href="#m"/><use transform="translate(148.11 104)" width="744.094" height="1052.362" xlink:href="#m"/><use transform="translate(150.96 108.73)" width="744.094" height="1052.362" xlink:href="#m"/><use transform="translate(153.8 113.46)" width="744.094" height="1052.362" xlink:href="#m"/><use transform="translate(156.65 118.19)" width="744.094" height="1052.362" xlink:href="#m"/><use transform="translate(159.5 122.91)" width="744.094" height="1052.362" xlink:href="#m"/><use transform="translate(162.35 127.64)" width="744.094" height="1052.362" xlink:href="#m"/><use transform="translate(165.2 132.37)" width="744.094" height="1052.362" xlink:href="#m"/><use transform="translate(168.04 137.1)" width="744.094" height="1052.362" xlink:href="#m"/><use transform="translate(170.89 141.82)" width="744.094" height="1052.362" xlink:href="#m"/><use transform="translate(119.62 49.638)" width="744.094" height="1052.362" xlink:href="#m"/><use transform="translate(122.47 54.366)" width="744.094" height="1052.362" xlink:href="#m"/><use transform="translate(125.32 59.093)" width="744.094" height="1052.362" xlink:href="#m"/><use transform="translate(128.17 63.82)" width="744.094" height="1052.362" xlink:href="#m"/><use transform="translate(131.02 68.548)" width="744.094" height="1052.362" xlink:href="#m"/><use transform="translate(133.87 73.275)" width="744.094" height="1052.362" xlink:href="#m"/><use transform="translate(136.71 78.003)" width="744.094" height="1052.362" xlink:href="#m"/><use transform="translate(139.56 82.73)" width="744.094" height="1052.362" xlink:href="#m"/><use transform="translate(142.41 87.458)" width="744.094" height="1052.362" xlink:href="#m"/><use transform="translate(145.26 92.185)" width="744.094" height="1052.362" xlink:href="#m"/><use transform="translate(148.11 96.913)" width="744.094" height="1052.362" xlink:href="#m"/><use transform="translate(150.96 101.64)" width="744.094" height="1052.362" xlink:href="#m"/><use transform="translate(153.8 106.37)" width="744.094" height="1052.362" xlink:href="#m"/><use transform="translate(156.65 111.09)" width="744.094" height="1052.362" xlink:href="#m"/><use transform="translate(159.5 115.82)" width="744.094" height="1052.362" xlink:href="#m"/><use transform="translate(162.35 120.55)" width="744.094" height="1052.362" xlink:href="#m"/><use transform="translate(165.2 125.28)" width="744.094" height="1052.362" xlink:href="#m"/><use transform="translate(168.04 130)" width="744.094" height="1052.362" xlink:href="#m"/><use transform="translate(170.89 134.73)" width="744.094" height="1052.362" xlink:href="#m"/><use transform="translate(173.74 139.46)" width="744.094" height="1052.362" xlink:href="#m"/><use transform="translate(176.59 144.19)" width="744.094" height="1052.362" xlink:href="#m"/><use transform="translate(125.32 52.002)" width="744.094" height="1052.362" xlink:href="#m"/><use transform="translate(128.17 56.729)" width="744.094" height="1052.362" xlink:href="#m"/><use transform="translate(131.02 61.457)" width="744.094" height="1052.362" xlink:href="#m"/><use transform="translate(133.87 66.184)" width="744.094" height="1052.362" xlink:href="#m"/><use transform="translate(136.71 70.912)" width="744.094" height="1052.362" xlink:href="#m"/><use transform="translate(139.56 75.639)" width="744.094" height="1052.362" xlink:href="#m"/><use transform="translate(142.41 80.367)" width="744.094" height="1052.362" xlink:href="#m"/><use transform="translate(145.26 85.094)" width="744.094" height="1052.362" xlink:href="#m"/><use transform="translate(148.11 89.821)" width="744.094" height="1052.362" xlink:href="#m"/><use transform="translate(150.96 94.549)" width="744.094" height="1052.362" xlink:href="#m"/><use transform="translate(153.8 99.276)" width="744.094" height="1052.362" xlink:href="#m"/><use transform="translate(156.65 104)" width="744.094" height="1052.362" xlink:href="#m"/><use transform="translate(159.5 108.73)" width="744.094" height="1052.362" xlink:href="#m"/><use transform="translate(162.35 113.46)" width="744.094" height="1052.362" xlink:href="#m"/><use transform="translate(165.2 118.19)" width="744.094" height="1052.362" xlink:href="#m"/><use transform="translate(168.04 122.91)" width="744.094" height="1052.362" xlink:href="#m"/><use transform="translate(170.89 127.64)" width="744.094" height="1052.362" xlink:href="#m"/><use transform="translate(173.74 132.37)" width="744.094" height="1052.362" xlink:href="#m"/><use transform="translate(176.59 137.1)" width="744.094" height="1052.362" xlink:href="#m"/><use transform="translate(179.44 141.82)" width="744.094" height="1052.362" xlink:href="#m"/><use transform="translate(182.29 146.55)" width="744.094" height="1052.362" xlink:href="#m"/></g><path transform="rotate(.362 3827.323 -7578.328)" d="M62.988 67.034c-4.39-.463-10.178-.037-11.915 3.525-1.294 4.328-.53 9.195 1.452 13.42 4.832 8.427 14.755 14.433 24.288 19.769 14.22 7.514 29.852 13.452 44.595 20.408 12.72 5.74 25.903 11.437 40.34 13.565 4.983.701 9.622-.648 14.12-1.944-14.874-3.154-26.906-11.351-38.523-18.962-17.537-11.831-33.259-25.193-49.096-38.348-7.05-5.165-15.312-10.582-25.262-11.433z" filter="url(#n)" opacity=".414"/><path transform="translate(-41.656 -86.843)" d="M43.172 132.22a33.05 33.05 0 0 0-.969 7.938c0 26.825 31.5 43.935 68.906 58.219 29.94 11.431 48.462 21.98 65.312 13.624 13.574-6.73 28.28-17.455 38.906-28.219.075-.071.144-.147.219-.218 9.573-9.2 16.401-18.66 17.25-25.875-1.906 6.826-8.246 15.17-16.75 23.344-.075.071-.144.147-.219.219-10.626 10.763-25.333 21.487-38.906 28.218-16.85 8.356-35.373-2.192-65.312-13.625-37.406-14.284-68.906-31.393-68.906-58.219 0-1.829.175-3.63.469-5.406z" clip-path="url(#o)" filter="url(#p)" stroke="#000"/><g transform="translate(-41.656 -20.062)"><rect transform="matrix(-.95912 -.28301 .3354 -.94208 0 0)" x="-248.42" y="-50.451" width="7.479" height="5.447" rx=".822" ry=".74" fill="url(#q)"/><path d="M217.03 111.72c-.282.344-2.699.505-.15 1.14 1.34.306 3.452 1.501 4.357 1.257.678-.273 1.843-.634-.388-1.185-1.19-.4-2.715-1.064-3.82-1.212z" fill="#999" filter="url(#r)"/></g></svg>