<svg xmlns="http://www.w3.org/2000/svg" xmlns:xlink="http://www.w3.org/1999/xlink" width="496.063" height="233.858"><defs><linearGradient id="d"><stop offset="0" stop-color="#e4e4e4"/><stop offset="1" stop-color="#ababab"/></linearGradient><linearGradient id="c"><stop offset="0" stop-color="#ffede1"/><stop offset=".403" stop-color="#985130"/><stop offset="1" stop-color="#2c170e"/></linearGradient><linearGradient id="b"><stop offset="0" stop-color="#e5e5e5"/><stop offset=".452" stop-color="#808066"/><stop offset="1"/></linearGradient><linearGradient id="a"><stop offset="0" stop-color="#646464"/><stop offset=".4" stop-color="#18171a"/><stop offset="1"/></linearGradient><linearGradient xlink:href="#a" id="f" gradientUnits="userSpaceOnUse" gradientTransform="matrix(.34263 0 0 .31535 1335.83 274.242)" spreadMethod="reflect" x1="478.199" y1="885.778" x2="513.703" y2="848.296"/><linearGradient xlink:href="#a" id="g" gradientUnits="userSpaceOnUse" gradientTransform="matrix(.34415 0 0 .33161 1335.181 258.79)" spreadMethod="reflect" x1="447.078" y1="561.011" x2="504.616" y2="561.011"/><linearGradient xlink:href="#b" id="h" gradientUnits="userSpaceOnUse" gradientTransform="matrix(.34263 0 0 .21254 1335.83 315.342)" spreadMethod="reflect" x1="468.818" y1="461.625" x2="483.406" y2="461.625"/><linearGradient xlink:href="#b" id="i" gradientUnits="userSpaceOnUse" gradientTransform="matrix(.3282 0 0 .30386 1341.957 272.64)" spreadMethod="reflect" x1="463.052" y1="463.391" x2="450.236" y2="463.391"/><linearGradient xlink:href="#b" id="j" gradientUnits="userSpaceOnUse" gradientTransform="matrix(.36353 0 0 .08388 1326.956 376.351)" spreadMethod="reflect" x1="468.818" y1="461.625" x2="483.406" y2="461.625"/><radialGradient xlink:href="#a" id="k" gradientUnits="userSpaceOnUse" gradientTransform="matrix(.90038 0 0 -.0667 1099.072 442.041)" spreadMethod="reflect" cx="424.579" cy="559.918" fx="424.579" fy="559.918" r="28.141"/><linearGradient xlink:href="#a" id="l" gradientUnits="userSpaceOnUse" gradientTransform="matrix(.34263 0 0 .3262 1335.83 262.284)" x1="629.844" y1="802.534" x2="318.567" y2="886.341"/><linearGradient xlink:href="#d" id="m" gradientUnits="userSpaceOnUse" gradientTransform="matrix(-1 0 0 1 2960.377 -.06)" x1="1468.214" y1="533.358" x2="1490.02" y2="533.358"/><radialGradient xlink:href="#c" id="n" gradientUnits="userSpaceOnUse" gradientTransform="matrix(.49252 0 0 .03514 1274.838 393.14)" spreadMethod="reflect" cx="425.283" cy="703.667" fx="425.283" fy="703.667" r="74.594"/><linearGradient xlink:href="#c" id="o" gradientUnits="userSpaceOnUse" gradientTransform="matrix(.34415 0 0 .33161 1335.181 258.79)" spreadMethod="reflect" x1="447.078" y1="561.011" x2="504.616" y2="561.011"/><linearGradient xlink:href="#a" id="p" gradientUnits="userSpaceOnUse" gradientTransform="matrix(.35861 0 0 .35861 1329.045 242.748)" x1="449.3" y1="580.117" x2="401.522" y2="580.117"/><radialGradient xlink:href="#c" id="q" gradientUnits="userSpaceOnUse" gradientTransform="matrix(5.26093 0 0 .21486 -764.341 260.583)" spreadMethod="reflect" cx="425.718" cy="728.184" fx="425.718" fy="728.184" r="74.594"/><radialGradient xlink:href="#c" id="r" gradientUnits="userSpaceOnUse" gradientTransform="matrix(7.58642 0 0 .41245 -1742.935 116.904)" spreadMethod="reflect" cx="425.718" cy="728.184" fx="425.718" fy="728.184" r="74.594"/><linearGradient xlink:href="#c" id="s" gradientUnits="userSpaceOnUse" gradientTransform="matrix(.34263 0 0 .37338 1335.83 234.148)" x1="501.026" y1="559.563" x2="463.7" y2="559.563"/><linearGradient xlink:href="#a" id="t" gradientUnits="userSpaceOnUse" gradientTransform="matrix(.2481 0 0 .27759 1447.073 311.92)" spreadMethod="reflect" x1="478.199" y1="885.778" x2="513.703" y2="848.296"/><linearGradient xlink:href="#a" id="u" gradientUnits="userSpaceOnUse" gradientTransform="matrix(.24922 0 0 .29221 1446.603 298.166)" spreadMethod="reflect" x1="447.078" y1="561.011" x2="504.616" y2="561.011"/><linearGradient xlink:href="#b" id="v" gradientUnits="userSpaceOnUse" gradientTransform="matrix(.2481 0 0 .18728 1447.073 348)" spreadMethod="reflect" x1="468.818" y1="461.625" x2="483.406" y2="461.625"/><linearGradient xlink:href="#b" id="w" gradientUnits="userSpaceOnUse" gradientTransform="matrix(.23766 0 0 .26775 1451.51 310.372)" spreadMethod="reflect" x1="463.052" y1="463.391" x2="450.236" y2="463.391"/><linearGradient xlink:href="#b" id="x" gradientUnits="userSpaceOnUse" gradientTransform="matrix(.26325 0 0 .07391 1440.647 401.76)" spreadMethod="reflect" x1="468.818" y1="461.625" x2="483.406" y2="461.625"/><radialGradient xlink:href="#a" id="y" gradientUnits="userSpaceOnUse" gradientTransform="matrix(.652 0 0 -.05877 1275.628 459.646)" spreadMethod="reflect" cx="424.579" cy="559.918" fx="424.579" fy="559.918" r="28.141"/><linearGradient xlink:href="#a" id="z" gradientUnits="userSpaceOnUse" gradientTransform="matrix(.2481 0 0 .28745 1447.073 301.246)" x1="629.844" y1="802.534" x2="318.567" y2="886.341"/><linearGradient xlink:href="#d" id="A" gradientUnits="userSpaceOnUse" gradientTransform="matrix(-1 0 0 1 3102.624 -.06)" x1="1539.874" y1="538.781" x2="1560.606" y2="538.781"/><radialGradient xlink:href="#c" id="B" gradientUnits="userSpaceOnUse" gradientTransform="matrix(.35665 0 0 .03096 1402.906 416.555)" spreadMethod="reflect" cx="425.283" cy="703.667" fx="425.283" fy="703.667" r="74.594"/><linearGradient xlink:href="#c" id="C" gradientUnits="userSpaceOnUse" gradientTransform="matrix(.24922 0 0 .29221 1446.603 298.166)" spreadMethod="reflect" x1="447.078" y1="561.011" x2="504.616" y2="561.011"/><linearGradient xlink:href="#c" id="D" gradientUnits="userSpaceOnUse" gradientTransform="matrix(.2481 0 0 .32902 1447.073 276.453)" x1="501.026" y1="559.563" x2="463.7" y2="559.563"/><linearGradient xlink:href="#a" id="E" gradientUnits="userSpaceOnUse" gradientTransform="matrix(.27892 0 0 .27892 1433.995 307.27)" x1="449.3" y1="580.117" x2="401.522" y2="580.117"/><radialGradient xlink:href="#c" id="F" gradientUnits="userSpaceOnUse" gradientTransform="matrix(3.80964 0 0 .16106 -73.74 320.258)" spreadMethod="reflect" cx="425.718" cy="728.184" fx="425.718" fy="728.184" r="74.594"/><radialGradient xlink:href="#c" id="G" gradientUnits="userSpaceOnUse" gradientTransform="matrix(5.49362 0 0 .30917 -782.378 212.557)" spreadMethod="reflect" cx="425.718" cy="728.184" fx="425.718" fy="728.184" r="74.594"/><linearGradient xlink:href="#a" id="H" gradientUnits="userSpaceOnUse" gradientTransform="matrix(.80813 0 0 .39925 905.462 200.261)" spreadMethod="reflect" x1="478.199" y1="885.778" x2="513.703" y2="848.296"/><linearGradient xlink:href="#a" id="I" gradientUnits="userSpaceOnUse" gradientTransform="matrix(.81173 0 0 .40385 903.932 186.598)" spreadMethod="reflect" x1="447.078" y1="561.011" x2="504.616" y2="561.011"/><linearGradient xlink:href="#b" id="J" gradientUnits="userSpaceOnUse" gradientTransform="matrix(.6078 0 0 .45061 990.5 166.393)" spreadMethod="reflect" x1="468.818" y1="461.625" x2="483.406" y2="461.625"/><linearGradient xlink:href="#b" id="K" gradientUnits="userSpaceOnUse" gradientTransform="matrix(.58219 0 0 .64423 1001.369 75.858)" spreadMethod="reflect" x1="463.052" y1="463.391" x2="450.236" y2="463.391"/><linearGradient xlink:href="#b" id="L" gradientUnits="userSpaceOnUse" gradientTransform="matrix(.64488 0 0 .15922 974.757 304.411)" spreadMethod="reflect" x1="468.818" y1="461.625" x2="483.406" y2="461.625"/><radialGradient xlink:href="#a" id="M" gradientUnits="userSpaceOnUse" gradientTransform="matrix(1.5972 0 0 -.1414 570.51 435.016)" spreadMethod="reflect" cx="424.579" cy="559.918" fx="424.579" fy="559.918" r="28.141"/><linearGradient xlink:href="#a" id="N" gradientUnits="userSpaceOnUse" gradientTransform="matrix(.80813 0 0 .42833 905.462 170.996)" x1="629.844" y1="802.534" x2="318.567" y2="886.341"/><linearGradient xlink:href="#c" id="O" gradientUnits="userSpaceOnUse" gradientTransform="matrix(.81173 0 0 .40385 903.932 186.598)" spreadMethod="reflect" x1="447.078" y1="561.011" x2="504.616" y2="561.011"/><linearGradient xlink:href="#d" id="P" gradientUnits="userSpaceOnUse" gradientTransform="matrix(-1 0 0 1 2494.809 -.06)" x1="1237.998" y1="520.983" x2="1254.667" y2="520.983"/><linearGradient xlink:href="#a" id="Q" gradientUnits="userSpaceOnUse" gradientTransform="matrix(.63753 0 0 .63753 977.873 46.006)" x1="449.3" y1="580.117" x2="401.522" y2="580.117"/><linearGradient xlink:href="#c" id="R" gradientUnits="userSpaceOnUse" gradientTransform="matrix(.80813 0 0 .50387 905.462 125.291)" x1="501.026" y1="559.563" x2="463.7" y2="559.563"/><radialGradient xlink:href="#c" id="S" gradientUnits="userSpaceOnUse" gradientTransform="matrix(1.17012 0 0 .0428 758.058 350.464)" spreadMethod="reflect" cx="425.283" cy="703.667" fx="425.283" fy="703.667" r="74.594"/><radialGradient xlink:href="#c" id="T" gradientUnits="userSpaceOnUse" gradientTransform="matrix(12.40854 0 0 .3228 -4048.045 146.336)" spreadMethod="reflect" cx="425.718" cy="728.184" fx="425.718" fy="728.184" r="74.594"/><radialGradient xlink:href="#c" id="U" gradientUnits="userSpaceOnUse" gradientTransform="matrix(17.8935 0 0 .61964 -6356.178 -69.522)" spreadMethod="reflect" cx="425.718" cy="728.184" fx="425.718" fy="728.184" r="74.594"/><linearGradient xlink:href="#a" id="V" gradientUnits="userSpaceOnUse" gradientTransform="matrix(.6191 0 0 .3119 1119.542 285.525)" spreadMethod="reflect" x1="478.199" y1="885.778" x2="513.703" y2="848.296"/><linearGradient xlink:href="#a" id="W" gradientUnits="userSpaceOnUse" gradientTransform="matrix(.62185 0 0 .32833 1118.37 262.07)" spreadMethod="reflect" x1="447.078" y1="561.011" x2="504.616" y2="561.011"/><linearGradient xlink:href="#b" id="X" gradientUnits="userSpaceOnUse" gradientTransform="matrix(.4915 0 0 .3335 1173.702 259.871)" spreadMethod="reflect" x1="468.818" y1="461.625" x2="483.406" y2="461.625"/><linearGradient xlink:href="#b" id="Y" gradientUnits="userSpaceOnUse" gradientTransform="matrix(.4708 0 0 .4768 1182.492 192.866)" spreadMethod="reflect" x1="463.052" y1="463.391" x2="450.236" y2="463.391"/><linearGradient xlink:href="#b" id="Z" gradientUnits="userSpaceOnUse" gradientTransform="matrix(.5215 0 0 .13162 1160.972 355.604)" spreadMethod="reflect" x1="468.818" y1="461.625" x2="483.406" y2="461.625"/><radialGradient xlink:href="#a" id="aa" gradientUnits="userSpaceOnUse" gradientTransform="matrix(1.2916 0 0 -.10465 834.07 458.68)" spreadMethod="reflect" cx="424.579" cy="559.918" fx="424.579" fy="559.918" r="28.141"/><linearGradient xlink:href="#a" id="ab" gradientUnits="userSpaceOnUse" gradientTransform="matrix(.6191 0 0 .34204 1119.542 253.345)" x1="629.844" y1="802.534" x2="318.567" y2="886.341"/><linearGradient xlink:href="#d" id="ac" gradientUnits="userSpaceOnUse" gradientTransform="matrix(-1 0 0 1 2762.495 -.06)" x1="1373.842" y1="535.015" x2="1386.511" y2="535.015"/><linearGradient xlink:href="#c" id="ad" gradientUnits="userSpaceOnUse" gradientTransform="matrix(.62185 0 0 .32833 1118.37 262.07)" spreadMethod="reflect" x1="447.078" y1="561.011" x2="504.616" y2="561.011"/><linearGradient xlink:href="#a" id="ae" gradientUnits="userSpaceOnUse" gradientTransform="matrix(.49423 0 0 .49423 1172.542 160.877)" x1="449.3" y1="580.117" x2="401.522" y2="580.117"/><linearGradient xlink:href="#c" id="af" gradientUnits="userSpaceOnUse" gradientTransform="matrix(.6191 0 0 .36969 1119.542 237.673)" x1="501.026" y1="559.563" x2="463.7" y2="559.563"/><radialGradient xlink:href="#c" id="ag" gradientUnits="userSpaceOnUse" gradientTransform="matrix(.88993 0 0 .03479 1009.335 395.092)" spreadMethod="reflect" cx="425.283" cy="703.667" fx="425.283" fy="703.667" r="74.594"/><radialGradient xlink:href="#c" id="ah" gradientUnits="userSpaceOnUse" gradientTransform="matrix(13.70788 0 0 .52633 -4443.469 36.954)" spreadMethod="reflect" cx="425.718" cy="728.184" fx="425.718" fy="728.184" r="74.594"/><radialGradient xlink:href="#c" id="ai" gradientUnits="userSpaceOnUse" gradientTransform="matrix(9.50595 0 0 .27419 -2675.25 220.306)" spreadMethod="reflect" cx="425.718" cy="728.184" fx="425.718" fy="728.184" r="74.594"/><filter id="e"><feGaussianBlur stdDeviation="1.468"/></filter></defs><path transform="translate(0 7.087)" d="M51.344 120.063c-5.213.065-2.315 3.319-8.125 2.937-12.358.068-24.721-.197-37.063.531 34.558 29.694 69.117 59.378 103.656 89.094 23.407 8.53 49.157 7.515 73.782 8.063 13.677-1.922 39.926 2.684 46.031-8.72-34.44-29.455-68.666-59.361-103.281-88.468-14.58-1.406-30.122.713-44.25-1.219-6.604-4.776-17.93.187-25.625-1.656-2.272-.408-3.922-.578-5.125-.563zm259.281 15.187c-3.456.16-2.515 2.128-5.25 2.438-10.109-1.117-15.825.017-5.75 6.156 26.123 22.483 52.272 44.938 78.406 67.406 16.11 4.694 33.88 4.699 50.313 1.594 1.849-3.983-8.06-7.58-10.531-11.375-24.58-21.046-49.569-42.768-73.813-63.25-5.603-2.29-13.605 2.027-18.188-2.125-3.313-.406-6.661-.216-9.968-.281-2.429-.478-4.067-.616-5.219-.563zm-103.813.813c-3.976.075-.244 3.22-6.03 2.406-9.165.136-21.134-.392-28.188.656 28.647 24.332 56.776 49.388 85.75 73.25 26 6.292 53.344 5.07 79.875 3.469 13.92.887 11.403-6.505 2.687-11.438-25.343-21.782-50.683-43.567-76.031-65.344-10.434-1.458-23.826.385-34.969-1.125-4.544-3.593-13.43-.057-18.906-1.343-1.95-.394-3.27-.549-4.188-.531zm188.407 9.156c-5.338.48-2.857 3.116-12.688 1.875.884 2.736 8.24 7.278 11.5 10.687 20.874 17.933 41.712 35.889 62.594 53.813 9.577 3.234 32.227 6.482 36.25-.656-24.734-21.197-49.42-42.627-74.188-63.625-5.681-.152-10.893-.182-15.843-2.063-2.551-.048-5.074-.025-7.625-.031z" style="marker:none" color="#000" fill-opacity=".423" overflow="visible" enable-background="accumulate" filter="url(#e)"/><path d="M1481.255 422.597c-14.117 0-25.562.49-25.562 1.094V582.16c0 4.538 11.445 8.218 25.562 8.218s25.563-3.68 25.563-8.218V423.69c0-.602-11.446-1.093-25.563-1.093z" style="marker:none" color="#000" fill="url(#f)" overflow="visible" enable-background="accumulate" transform="translate(-1076.96 -365.322)"/><path d="M1481.255 415.753c-14.117 0-25.562.783-25.562 1.407v163.656c0 4.695 6.32 8.5 25.562 8.5s25.563-3.805 25.563-8.5V417.16c0-.624-11.446-1.407-25.563-1.407z" style="marker:none" color="#000" fill="url(#g)" overflow="visible" enable-background="accumulate" transform="translate(-1076.96 -365.322)"/><path d="M1477.536 411.535c-3.442.058-5.866.247-5.906.78v.251c.057.098.094.4.094.75 0 .346-.038 1.118-.094 1.219v.843a813.03 813.03 0 0 1 9.625-.062c3.415 0 6.679.027 9.656.062v-.843c-.05-.118-.094-.897-.094-1.22 0-.322.043-.6.094-.718v-.219-.03-.032c-.056-.712-4.367-.781-9.656-.781-1.323 0-2.571-.02-3.719 0z" style="marker:none" color="#000" fill="url(#h)" overflow="visible" enable-background="accumulate" transform="translate(-1076.96 -365.322)"/><path d="M1475.318 412.597c-1.612-.003-2.753.03-3.188.219v.094c0 .332 0 .64-.03.843.775-.386 4.56-.187 9.155-.187 4.637 0 8.492-.205 9.22.187a6.267 6.267 0 0 1-.063-.843v-.094c-.854-.378-4.63-.188-9.156-.188-2.255 0-4.326-.028-5.938-.03z" style="marker:none" color="#000" fill="url(#i)" overflow="visible" enable-background="accumulate" transform="translate(-1076.96 -365.322)"/><path d="M1481.255 414.316c-5.614 0-10.163.219-10.219.5v.094c.06.038.094.174.094.312 0 .137-.034.241-.094.281v.344c3.16-.014 6.596-.031 10.22-.031 3.622 0 7.058.017 10.218.031v-.344c-.053-.046-.062-.154-.062-.28 0-.128.01-.236.062-.282v-.094-.031c-.06-.28-4.607-.5-10.219-.5z" style="marker:none" color="#000" fill="url(#j)" overflow="visible" enable-background="accumulate" transform="translate(-1076.96 -365.322)"/><path d="M1481.255 411.41c-5.291 0-9.572.003-9.625.593v.22a.383.383 0 0 1 .062.124c.51-.542 4.584-.5 9.563-.5 5.04 0 9.168-.052 9.593.5.012-.053.047-.094.062-.125v-.187-.032c-.056-.59-4.367-.593-9.656-.593z" style="marker:none" color="#000" fill="url(#k)" overflow="visible" enable-background="accumulate" transform="translate(-1076.96 -365.322)"/><path d="M378.732 103.682V216.9c.637.974 1.949 1.89 3.75 2.719-.263-44.43-.736-83.518-1.031-115.031-1.352-.23-2.188-.645-2.719-.906z" style="marker:none" color="#000" fill="#1a191c" overflow="visible" enable-background="accumulate"/><path d="M1506.818 469.347c-.769.304-3.168 1.826-5.125 2.094-.378 32.352.217 70.813-.125 114.812 2.512-.999 4.327-2.189 5.25-3.5z" style="marker:none" color="#000" fill="url(#l)" overflow="visible" enable-background="accumulate" transform="translate(-1076.96 -365.322)"/><path style="line-height:125%;-inkscape-font-specification:Sans Bold" d="M1475.58 481.346a.58.58 0 0 0-.406.156.58.58 0 0 0-.156.406v4.063c0 1.355.275 2.492.937 3.375.662.882 1.671 1.395 2.813 1.437.872.033 1.687-.207 2.312-.718.253-.205.445-.478.625-.75.116.147.196.32.344.437.541.425 1.249.593 2.031.563a3.227 3.227 0 0 0 2.531-1.344c.592-.82.875-1.873.875-3.125v-3.906a.615.615 0 0 0-.187-.438c-.114-.104-.276-.138-.438-.125-3.745.298-7.473.28-11.219-.031-.02-.002-.043 0-.062 0zm1.906 2.906c.962.054 1.944.08 2.906.094v1.812c0 .736-.177 1.21-.375 1.438-.192.227-.474.364-1.062.344-.582-.02-.89-.19-1.094-.438-.197-.24-.375-.702-.375-1.437v-1.813zm7.5 0v1.656c0 .669-.126 1.074-.281 1.282-.157.212-.346.327-.781.343-.441.017-.623-.077-.781-.28-.152-.196-.282-.612-.282-1.282v-1.625c.717-.015 1.409-.056 2.125-.094zm-9.375 8.125a.62.62 0 0 0-.437.156.545.545 0 0 0-.156.407v1.593c0 .128.02.265.093.375.073.111.194.198.313.25.825.368 1.644.725 2.469 1.063v4.25c-.825.253-1.644.464-2.469.687a.619.619 0 0 0-.313.22.555.555 0 0 0-.094.343v1.594c0 .201.086.434.25.562a.678.678 0 0 0 .594.094c3.746-1.145 7.474-2.593 11.219-4.344.23-.109.406-.345.406-.594v-1.75a.568.568 0 0 0-.406-.53c-3.745-1.134-7.473-2.575-11.219-4.313a.66.66 0 0 0-.25-.063zm4.781 4.844c1.062.41 2.126.795 3.188 1.156a85.411 85.411 0 0 1-3.188 1.219v-2.375zm6.47 6.219c-.429.034-.854.068-1.282.093-.02 0-.043-.002-.062 0a.727.727 0 0 0-.406.25.606.606 0 0 0-.156.407v3.437c-3.112.162-6.201.102-9.313-.156a.587.587 0 0 0-.438.156.545.545 0 0 0-.187.406v1.563c0 .164.073.312.188.437a.678.678 0 0 0 .437.22c3.112.257 6.2.317 9.313.155v3.407a.584.584 0 0 0 .625.594c.428-.027.853-.06 1.28-.094a.676.676 0 0 0 .438-.219.652.652 0 0 0 .188-.438v-9.625a.588.588 0 0 0-.625-.594zm0 11.093c-.429.034-.854.068-1.282.094-.02 0-.043-.002-.062 0a.678.678 0 0 0-.406.219.686.686 0 0 0-.156.437v3.438c-3.112.162-6.201.102-9.313-.156a.585.585 0 0 0-.438.156.545.545 0 0 0-.187.406v1.563c0 .164.073.342.188.468a.675.675 0 0 0 .437.22c3.112.257 6.2.286 9.313.124v3.438a.62.62 0 0 0 .187.437c.114.11.276.166.438.156.428-.026.853-.06 1.28-.093a.673.673 0 0 0 .438-.219.651.651 0 0 0 .188-.438v-9.687c0-.164-.073-.3-.188-.406a.586.586 0 0 0-.437-.157zm-11.282 12.97a.572.572 0 0 0-.406.155.579.579 0 0 0-.156.407v7.406c0 .165.072.342.187.469a.673.673 0 0 0 .438.218c.428.036.853.067 1.28.094a.58.58 0 0 0 .438-.156c.114-.11.156-.272.156-.438v-5.218c.945.052 1.9.111 2.844.125v4.812c0 .165.073.32.188.438a.622.622 0 0 0 .437.187c.426.002.856.006 1.281 0a.622.622 0 0 0 .438-.187.608.608 0 0 0 .156-.438v-4.844c.697-.015 1.397-.026 2.094-.062v5.062a.62.62 0 0 0 .188.438.58.58 0 0 0 .437.156c.428-.026.853-.06 1.281-.094a.672.672 0 0 0 .438-.218.728.728 0 0 0 .187-.469v-7.25a.613.613 0 0 0-.187-.438c-.114-.106-.276-.137-.438-.125a69.146 69.146 0 0 1-11.219-.03c-.02-.003-.043 0-.062 0zm0 11.812a.57.57 0 0 0-.406.156.578.578 0 0 0-.156.406v1.563c0 .165.072.341.187.468a.671.671 0 0 0 .438.22c1.378.113 2.746.186 4.124.218v1.062c0 .532-.102.853-.25 1.063v.031c-.135.195-.575.519-1.28.844v.031c-.963.449-1.914.872-2.876 1.281a.583.583 0 0 0-.344.532v1.656c0 .214.105.435.282.562.177.128.407.174.594.094a93.52 93.52 0 0 0 3.093-1.406c.664-.313 1.175-.634 1.594-1 .078-.067.148-.148.219-.219.195.291.438.548.719.75.586.424 1.293.62 2.093.594 1.204-.04 2.237-.516 2.906-1.375.671-.861.97-2.033.97-3.438v-3.5a.613.613 0 0 0-.188-.437.582.582 0 0 0-.438-.156c-3.745.297-7.473.31-11.219 0-.02-.002-.043 0-.062 0zm9.406 2.937v1.344c0 .654-.145 1.047-.344 1.281-.194.237-.487.389-1.03.406-.545.018-.827-.083-1.032-.312-.199-.222-.344-.628-.344-1.281v-1.344c.92-.012 1.831-.046 2.75-.094zm1.875 7.313a.714.714 0 0 0-.344.125 131.857 131.857 0 0 1-5.718 4.156 69.206 69.206 0 0 1-5.156-.219.58.58 0 0 0-.438.156.544.544 0 0 0-.188.407v1.593c0 .167.073.341.188.47a.669.669 0 0 0 .438.218c1.72.143 3.434.204 5.156.219a121.178 121.178 0 0 0 5.719 3.812c.184.114.429.125.624 0 .196-.124.345-.364.344-.594v-1.687a.588.588 0 0 0-.281-.5 117.505 117.505 0 0 1-3.875-2.469c1.288-.93 2.587-1.873 3.875-2.875a.745.745 0 0 0 .281-.562v-1.657a.668.668 0 0 0-.187-.468.542.542 0 0 0-.438-.125zm.969 25.593a.355.311 0 0 0-.062.032l-1.469.125a.355.311 0 0 0-.125.03.355.311 0 0 0-.03 0 .355.311 0 0 0-.032 0 .355.311 0 0 0-.03.032.355.311 0 0 0-.063 0 .355.311 0 0 0-.03 0 .355.311 0 0 0 0 .031.355.311 0 0 0-.032 0 .355.311 0 0 0 0 .063.355.311 0 0 0-.062.062l-.03.063-3.907 9.187a.355.311 0 0 0-.031.094.355.311 0 0 0 0 .062.355.311 0 0 0 .062.157.355.311 0 0 0 .125.062.355.311 0 0 0 .156.031l1.5-.03a.355.311 0 0 0 .157-.032.355.311 0 0 0 .094-.062.355.311 0 0 0 .094-.094l.812-2.188 4.156-.375.844 1.907a.355.311 0 0 0 .031.093.355.311 0 0 0 .375.125l1.438-.281a.355.311 0 0 0 .28-.25.355.311 0 0 0 0-.156l-3.905-8.469a.355.311 0 0 0-.062-.094.355.311 0 0 0-.157-.093.355.311 0 0 0-.03 0 .355.311 0 0 0-.063-.032zm-13.219.063a.355.311 0 0 0 0 .031.355.311 0 0 0-.03 0 .355.311 0 0 0-.063 0 .355.311 0 0 0-.03.031.355.311 0 0 0-.032 0 .355.311 0 0 0 0 .032.355.311 0 0 0-.03 0 .355.311 0 0 0 0 .03.355.311 0 0 0-.032.032.355.311 0 0 0 0 .031l-.03.063a.355.311 0 0 0 0 .03l-3.876 8.407a.355.311 0 0 0-.03.125.355.311 0 0 0 0 .031.355.311 0 0 0 .28.25l1.47.25a.355.311 0 0 0 .312-.093.355.311 0 0 0 .094-.125l.812-1.907 4.157.375.875 2.188a.355.311 0 0 0 .03.031.355.311 0 0 0 .032.063.355.311 0 0 0 .156.062.355.311 0 0 0 .062 0l1.469.094a.355.311 0 0 0 .28-.125.355.311 0 0 0 .063-.063.355.311 0 0 0 .03-.062.355.311 0 0 0 0-.219l-3.937-9.219a.355.311 0 0 0-.343-.218l-1.47-.125a.355.311 0 0 0-.093 0 .355.311 0 0 0-.031 0 .355.311 0 0 0-.031 0 .355.311 0 0 0-.031 0 .355.311 0 0 0-.031 0zm12.406 2.437l1.375 3.157-2.75.25 1.375-3.407zm-11.53.032l1.374 3.406-2.781-.25 1.406-3.156z" font-size="56.214" font-weight="700" letter-spacing="0" word-spacing="0" fill="url(#m)" font-family="Sans" transform="translate(-1076.96 -365.322)"/><path d="M1468.599 415.66c-13.995 0-12.656 1.187-12.656 1.187s.894 1.438 25.312 1.438c24.418 0 25.344-1.438 25.344-1.438s1.338-1.187-12.656-1.187h-25.344z" style="marker:none" color="#000" fill="url(#n)" overflow="visible" enable-background="accumulate" transform="translate(-1076.96 -365.322)"/><path d="M424.889 104.27c-1.484.177-3.174.328-5.032.463.4 24.86 1.364 42.511 2.505 42.511 1.15 0 2.132-17.862 2.526-42.975z" style="marker:none" color="#000" fill="#0e0e0f" overflow="visible" enable-background="accumulate"/><path d="M1481.255 416.66c-14.117 0-25.562.172-25.562.375v53.187c0 1.524 11.445 2.781 25.562 2.781s25.563-1.257 25.563-2.78v-53.188c0-.203-11.446-.375-25.563-.375z" style="marker:none" color="#000" fill="url(#o)" overflow="visible" enable-background="accumulate" transform="translate(-1076.96 -365.322)"/><path d="M380.607 51.588c-1.164.042-1.875.077-1.875.125V104.9c0 .449 1.023.876 2.782 1.25-.285-22.852-.577-41.218-.907-54.562z" style="marker:none" color="#000" fill="#8b5941" overflow="visible" enable-background="accumulate"/><path d="M1480.599 443.003a.935.935 0 0 0-.938.938v5.437h-5.437a.935.935 0 0 0-.938.938v1.312c0 .52.418.938.938.938h5.437v5.437c0 .52.418.938.938.938h1.312c.52 0 .938-.418.938-.938v-5.437h5.437c.52 0 .938-.418.938-.938v-1.312a.935.935 0 0 0-.938-.938h-5.437v-5.437a.935.935 0 0 0-.938-.938h-1.312z" style="marker:none" color="#000" fill="url(#p)" overflow="visible" enable-background="accumulate" transform="translate(-1076.96 -365.322)"/><path d="M1482.345 416.849c0 .2-3.202.364-7.152.364-3.949 0-7.15-.163-7.15-.364 0-.202 3.201-.365 7.15-.365 3.95 0 7.152.163 7.152.365z" style="marker:none" color="#000" fill="url(#q)" overflow="visible" enable-background="accumulate" transform="translate(-1076.96 -365.322)"/><path d="M1486.536 416.172c-5.695 0-10.312.293-10.312.68 0 .385 4.617.726 10.312.726 5.695 0 10.313-.34 10.313-.727 0-.386-4.617-.679-10.313-.679z" style="marker:none" color="#000" fill="url(#r)" overflow="visible" enable-background="accumulate" transform="translate(-1076.96 -365.322)"/><path d="M1501.693 416.816v55.062c3.204-.46 5.125-1.035 5.125-1.656v-53.187c0-.082-1.947-.158-5.125-.22z" style="marker:none" color="#000" fill="url(#s)" overflow="visible" enable-background="accumulate" transform="translate(-1076.96 -365.322)"/><g><path style="marker:none" d="M1552.38 442.503c-10.223 0-18.5.438-18.5.97v139.5c0 3.994 8.277 7.25 18.5 7.25s18.5-3.256 18.5-7.25v-139.5c0-.532-8.277-.97-18.5-.97z" color="#000" fill="url(#t)" overflow="visible" enable-background="accumulate" transform="translate(-1076.96 -365.322)"/><path style="marker:none" d="M1552.38 436.472c-10.223 0-18.5.7-18.5 1.25v144.219c0 4.137 8.277 7.469 18.5 7.469s18.5-3.332 18.5-7.47V437.723c0-.55-8.277-1.25-18.5-1.25z" color="#000" fill="url(#u)" overflow="visible" enable-background="accumulate" transform="translate(-1076.96 -365.322)"/><path style="marker:none" d="M1552.38 432.753c-3.832 0-6.93.06-6.969.688v.25c.041.086.062.348.062.656 0 .305-.022.974-.062 1.063v.75c2.157-.031 4.496-.063 6.97-.063 2.472 0 4.843.032 7 .063v-.75c-.037-.104-.063-.779-.063-1.063 0-.284.026-.553.062-.656v-.188-.03-.032c-.04-.627-3.17-.688-7-.688z" color="#000" fill="url(#v)" overflow="visible" enable-background="accumulate" transform="translate(-1076.96 -365.322)"/><path style="marker:none" d="M1548.099 433.69c-1.167-.002-1.997.054-2.313.22v.062c0 .293-.01.572-.03.75.56-.34 3.297-.187 6.624-.187 3.357 0 6.13-.158 6.656.187a7.19 7.19 0 0 1-.03-.75v-.062c-.619-.334-3.348-.157-6.626-.157-1.633 0-3.114-.06-4.28-.062z" color="#000" fill="url(#w)" overflow="visible" enable-background="accumulate" transform="translate(-1076.96 -365.322)"/><path style="marker:none" d="M1552.38 435.222c-4.065 0-7.366.19-7.406.438v.093c.044.034.094.129.094.25 0 .12-.051.215-.094.25v.313c2.288-.012 4.782-.031 7.406-.031 2.624 0 5.118.019 7.406.03v-.312c-.039-.04-.062-.138-.062-.25 0-.112.024-.209.062-.25v-.093c-.043-.248-3.342-.438-7.406-.438z" color="#000" fill="url(#x)" overflow="visible" enable-background="accumulate" transform="translate(-1076.96 -365.322)"/><path style="marker:none" d="M1549.693 432.66c-2.493.022-4.253.14-4.282.53v.188a.301.301 0 0 1 .031.094c.37-.478 3.333-.406 6.938-.406 3.65 0 6.66-.05 6.969.437.01-.047.02-.098.03-.125v-.187c-.04-.52-3.17-.531-7-.531-.957 0-1.856-.007-2.687 0z" color="#000" fill="url(#y)" overflow="visible" enable-background="accumulate" transform="translate(-1076.96 -365.322)"/><path style="marker:none" d="M456.92 116.994v99.625c0 1.428 1.005 2.74 2.719 3.875-.188-39.09-.415-73.91-.625-101.781-.98-.208-1.71-1.484-2.094-1.719z" color="#000" fill="#1a191c" overflow="visible" enable-background="accumulate"/><path style="marker:none" d="M1570.88 483.097c-.556.268-1.864-.924-3.281-.687-.273 28.508-.284 65.54-.531 104.312 1.819-.88 3.144-1.907 3.812-3.062z" color="#000" fill="url(#z)" overflow="visible" enable-background="accumulate" transform="translate(-1076.96 -365.322)"/><path style="line-height:125%;-inkscape-font-specification:Sans Bold" d="M1546.744 493.315a.581.581 0 0 0-.406.156.582.582 0 0 0-.156.406v4.063c0 1.353.279 2.493.937 3.375.658.88 1.646 1.363 2.781 1.406.868.033 1.691-.177 2.313-.688v-.03c.251-.205.446-.448.625-.72.115.147.196.29.344.407.538.424 1.253.593 2.03.562 1.029-.04 1.913-.495 2.5-1.312.59-.82.876-1.906.876-3.156v-3.875a.62.62 0 0 0-.188-.438c-.113-.105-.277-.138-.437-.125a68.857 68.857 0 0 1-11.188-.031c-.02-.002-.01 0-.03 0zm1.906 2.875c.957.053 1.918.111 2.875.125v1.812c0 .735-.179 1.18-.375 1.406v.032c-.19.227-.477.364-1.062.343-.58-.02-.891-.19-1.094-.437-.196-.24-.344-.703-.344-1.438v-1.843zm7.47.03v1.626c0 .667-.16 1.105-.313 1.312-.156.213-.35.328-.782.344-.438.016-.623-.078-.78-.281-.152-.195-.282-.612-.282-1.281v-1.657c.712-.015 1.443-.025 2.156-.062zm-9.345 8.095a.621.621 0 0 0-.437.156.547.547 0 0 0-.156.406v1.625c0 .128.02.264.094.375.073.11.193.197.312.25.82.367 1.648.725 2.469 1.063v4.218c-.82.253-1.648.496-2.469.72a.57.57 0 0 0-.312.187.555.555 0 0 0-.094.343v1.594c0 .201.087.403.25.531a.694.694 0 0 0 .593.125c3.725-1.143 7.432-2.595 11.157-4.343.228-.11.405-.346.406-.594v-1.75a.57.57 0 0 0-.406-.531c-3.725-1.132-7.432-2.577-11.157-4.313a.66.66 0 0 0-.25-.062zm4.75 4.843c1.056.41 2.1.796 3.157 1.157-1.057.428-2.1.839-3.157 1.218v-2.375zm6.438 6.22c-.426.033-.856.067-1.281.093-.02 0-.043-.002-.062 0-.15.024-.274.13-.375.25a.609.609 0 0 0-.157.406v3.406a69.097 69.097 0 0 1-9.312-.125.497.497 0 0 0-.406.125.618.618 0 0 0-.188.438v1.531c0 .163.074.343.188.469a.608.608 0 0 0 .406.219c3.094.257 6.217.317 9.312.156v3.406c0 .164.043.328.157.438.113.11.277.166.437.156.426-.026.855-.06 1.281-.094a.678.678 0 0 0 .438-.219.734.734 0 0 0 .187-.468v-9.594a.619.619 0 0 0-.187-.438.59.59 0 0 0-.438-.156zm0 11.062c-.426.034-.856.067-1.281.093-.02 0-.043-.002-.062 0-.15.024-.274.13-.375.25a.608.608 0 0 0-.157.407v3.437a69.107 69.107 0 0 1-9.312-.156.517.517 0 0 0-.406.156.617.617 0 0 0-.188.438v1.53c0 .165.074.343.188.47a.606.606 0 0 0 .406.218c3.094.258 6.217.318 9.312.157v3.406c0 .164.043.327.157.437.113.11.277.166.437.157.426-.026.855-.06 1.281-.094a.676.676 0 0 0 .438-.219.655.655 0 0 0 .187-.437v-9.657a.618.618 0 0 0-.187-.437.588.588 0 0 0-.438-.156zm-11.219 12.968a.573.573 0 0 0-.406.157.58.58 0 0 0-.156.406v7.406c0 .165.074.31.187.438a.603.603 0 0 0 .406.218c.426.036.856.067 1.282.094.16.01.324-.046.437-.156a.623.623 0 0 0 .188-.438v-5.187c.94.052 1.872.08 2.812.094v4.843a.638.638 0 0 0 .625.625c.423.002.827.006 1.25 0a.623.623 0 0 0 .438-.187.717.717 0 0 0 .187-.469v-4.812c.693-.016 1.401-.027 2.094-.063v5.031c0 .165.043.327.156.438.114.11.277.166.438.156.425-.026.855-.028 1.28-.062a.674.674 0 0 0 .438-.22.733.733 0 0 0 .188-.468v-7.25a.618.618 0 0 0-.188-.437c-.113-.107-.277-.138-.437-.125a68.86 68.86 0 0 1-11.188-.032c-.02-.002-.01.001-.03 0zm0 11.782a.57.57 0 0 0-.406.156.58.58 0 0 0-.156.406v1.563c0 .165.074.341.187.468a.602.602 0 0 0 .406.22c1.372.113 2.754.186 4.125.218v1.062c0 .531-.103.885-.25 1.094-.134.195-.548.519-1.25.844v.031a90.87 90.87 0 0 1-2.875 1.281.584.584 0 0 0-.343.532v1.656c0 .213.104.435.28.562.177.128.41.174.595.094a92.265 92.265 0 0 0 3.062-1.406c.66-.312 1.209-.635 1.625-1 .078-.067.118-.149.188-.219.194.29.408.548.687.75h.031c.583.423 1.298.62 2.094.594 1.198-.04 2.21-.517 2.875-1.375.667-.86.969-2.035.969-3.438v-3.5a.617.617 0 0 0-.188-.437c-.113-.107-.277-.138-.437-.125a68.86 68.86 0 0 1-11.188-.031c-.02-.002-.01 0-.03 0zm9.375 2.968v1.313c0 .652-.146 1.078-.344 1.312h-.03c-.195.236-.46.358-1 .375-.542.018-.828-.084-1.032-.312-.198-.221-.344-.629-.344-1.281v-1.344c.914-.012 1.836-.014 2.75-.063zm1.813 7.282a.609.609 0 0 0-.313.125 131.36 131.36 0 0 1-5.687 4.156 69.382 69.382 0 0 1-5.157-.25.512.512 0 0 0-.406.156.616.616 0 0 0-.187.438v1.593c0 .166.074.31.187.438.114.128.246.237.406.25a69.33 69.33 0 0 0 5.157.219c1.899 1.343 3.788 2.625 5.687 3.812.184.114.43.093.625-.031s.344-.365.344-.594v-1.687a.59.59 0 0 0-.281-.5c-1.28-.776-2.564-1.59-3.844-2.438 1.28-.93 2.563-1.906 3.844-2.906a.687.687 0 0 0 .28-.531v-1.688c0-.168-.07-.33-.187-.437-.117-.108-.305-.143-.468-.125zm2.156 15.25a.226.21 0 0 0 0 .03.226.21 0 0 0-.031 0 .226.21 0 0 0-.031 0l-.938.22a.226.21 0 0 0-.03.03.226.21 0 0 0-.032.032.226.21 0 0 0-.03.031.226.21 0 0 0-.032.031.226.21 0 0 0 0 .032l-2.468 6.53a.226.21 0 0 0 0 .063.226.21 0 0 0 0 .032.226.21 0 0 0 .03.062.226.21 0 0 0 .063.063.226.21 0 0 0 .03.03.226.21 0 0 0 .095 0 .226.21 0 0 0 .03 0l.907-.124a.226.21 0 0 0 .03 0 .226.21 0 0 0 .032 0 .226.21 0 0 0 .062-.031.226.21 0 0 0 .03-.032.226.21 0 0 0 .032-.062l.562-1.563 2.5-.687.5 1.156a.226.21 0 0 0 .031.094.226.21 0 0 0 .031.031.226.21 0 0 0 .031 0 .226.21 0 0 0 .062.031.226.21 0 0 0 .062 0 .226.21 0 0 0 .062 0 .226.21 0 0 0 .031 0l.813-.437a.226.21 0 0 0 .094-.094.226.21 0 0 0 0-.031.226.21 0 0 0 .03-.063.226.21 0 0 0 0-.062.226.21 0 0 0-.03-.031l-2.25-5.094a.226.21 0 0 0-.031-.063.226.21 0 0 0 0-.03.226.21 0 0 0-.031-.032.226.21 0 0 0-.031 0 .226.21 0 0 0-.031-.031.226.21 0 0 0-.031 0 .226.21 0 0 0-.031 0 .226.21 0 0 0-.031-.031.226.21 0 0 0-.031 0 .226.21 0 0 0-.031 0zm-15.531.125a.226.21 0 0 0-.062.062.226.21 0 0 0-.031.031.226.21 0 0 0 0 .032l-2.313 5.25a.226.21 0 0 0-.03.03.226.21 0 0 0 0 .063.226.21 0 0 0 0 .063.226.21 0 0 0 .03.031.226.21 0 0 0 .062.094l.875.375a.226.21 0 0 0 .125.03.226.21 0 0 0 .031-.03.226.21 0 0 0 .125-.125l.5-1.22 2.563.626.53 1.562a.226.21 0 0 0 .032.032.226.21 0 0 0 .094.093.226.21 0 0 0 .062.032l.937.093a.226.21 0 0 0 .062 0 .226.21 0 0 0 .094-.031.226.21 0 0 0 .062-.031.226.21 0 0 0 .031-.094.226.21 0 0 0 0-.062.226.21 0 0 0-.03-.032l-2.438-6.437a.226.21 0 0 0 0-.031.226.21 0 0 0 0-.031.226.21 0 0 0-.031-.032.226.21 0 0 0 0-.03.226.21 0 0 0-.031 0 .226.21 0 0 0 0-.032.226.21 0 0 0-.031 0 .226.21 0 0 0-.031 0 .226.21 0 0 0 0-.031.226.21 0 0 0-.031 0 .226.21 0 0 0-.031 0 .226.21 0 0 0-.031 0l-.062-.031-.906-.22a.226.21 0 0 0-.062 0 .226.21 0 0 0-.062 0zm8.343.812l-1 .031a.226.21 0 0 0-.062 0 .226.21 0 0 0-.062.032.226.21 0 0 0-.03.03.226.21 0 0 0-.032.032.226.21 0 0 0-.03.031l-2.5 6a.226.21 0 0 0 0 .031.226.21 0 0 0 0 .032.226.21 0 0 0 0 .062.226.21 0 0 0 .03.063.226.21 0 0 0 .031.062.226.21 0 0 0 .062 0 .226.21 0 0 0 .094.031l.907.063a.226.21 0 0 0 .062 0 .226.21 0 0 0 .094-.063.226.21 0 0 0 .03 0 .226.21 0 0 0 .032-.062l.562-1.406 2.625-.032.563 1.407a.226.21 0 0 0 .03.062.226.21 0 0 0 .032.031.226.21 0 0 0 .062.031.226.21 0 0 0 .094 0l.937-.062a.226.21 0 0 0 .062 0 .226.21 0 0 0 .062-.031.226.21 0 0 0 .031-.063.226.21 0 0 0 .062-.125.226.21 0 0 0-.03-.062l-2.47-5.938h-.03a.226.21 0 0 0 0-.03.226.21 0 0 0 0-.032.226.21 0 0 0-.032 0 .226.21 0 0 0 0-.031.226.21 0 0 0-.03 0 .226.21 0 0 0-.032-.032.226.21 0 0 0-.03 0 .226.21 0 0 0 0-.03.226.21 0 0 0-.032 0 .226.21 0 0 0-.03 0 .226.21 0 0 0-.032 0v-.032zm6.782.844l.812 1.937-1.656.438.844-2.375zm-14.532.094l.844 2.343-1.719-.406.875-1.937zm7.282.718l.843 2.188-1.75.031.907-2.219z" font-size="56.214" font-weight="700" letter-spacing="0" word-spacing="0" fill="url(#A)" font-family="Sans" transform="translate(-1076.96 -365.322)"/><path style="marker:none" d="M1543.224 436.41c-10.134 0-9.188 1.03-9.188 1.03s.662 1.25 18.344 1.25c17.682 0 18.344-1.25 18.344-1.25s.978-1.03-9.156-1.03h-18.344z" color="#000" fill="url(#B)" overflow="visible" enable-background="accumulate" transform="translate(-1076.96 -365.322)"/><path style="marker:none" d="M490.389 116.886c-1.091.164-2.323.326-3.688.45.294 22.894 1.005 39.127 1.844 39.127.844 0 1.553-16.45 1.843-39.577z" color="#000" fill="#0e0e0f" overflow="visible" enable-background="accumulate"/><path style="marker:none" d="M1552.38 437.285c-10.223 0-18.5.134-18.5.312v46.875c0 1.343 8.277 2.438 18.5 2.438s18.5-1.095 18.5-2.438v-46.875c0-.178-8.277-.312-18.5-.312z" color="#000" fill="url(#C)" overflow="visible" enable-background="accumulate" transform="translate(-1076.96 -365.322)"/><path style="marker:none" d="M1567.193 437.41v48.53c2.32-.405 3.687-.921 3.687-1.468v-46.875c0-.072-1.386-.133-3.687-.187z" color="#000" fill="url(#D)" overflow="visible" enable-background="accumulate" transform="translate(-1076.96 -365.322)"/><path style="marker:none" d="M1551.88 463.003c-.404 0-.719.346-.719.75v4.22h-4.25a.71.71 0 0 0-.718.718v1.031a.71.71 0 0 0 .718.719h4.25v4.25a.71.71 0 0 0 .72.719h1.03a.71.71 0 0 0 .72-.72v-4.25h4.218c.404 0 .75-.314.75-.718v-1.031c0-.404-.346-.719-.75-.719h-4.219v-4.219c0-.404-.315-.75-.719-.75h-1.03z" color="#000" fill="url(#E)" overflow="visible" enable-background="accumulate" transform="translate(-1076.96 -365.322)"/><path style="marker:none" d="M458.264 72.15c-.844.037-1.344.083-1.344.125v46.875c0 .395.726.764 2 1.094-.206-20.137-.418-36.335-.657-48.094z" color="#000" fill="#8b5941" overflow="visible" enable-background="accumulate"/><path style="marker:none" d="M1548.005 437.133c-2.86 0-5.187.097-5.187.248 0 .15 2.327.288 5.187.288 2.86 0 5.156-.138 5.156-.288 0-.151-2.296-.248-5.156-.248z" color="#000" fill="url(#F)" overflow="visible" enable-background="accumulate" transform="translate(-1076.96 -365.322)"/><path style="marker:none" d="M1556.224 436.886c-4.124 0-7.469.246-7.469.536 0 .29 3.345.495 7.469.495 4.124 0 7.469-.206 7.469-.495 0-.29-3.345-.536-7.47-.536z" color="#000" fill="url(#G)" overflow="visible" enable-background="accumulate" transform="translate(-1076.96 -365.322)"/></g><g><path style="marker:none" d="M1236.349 388.09c-27.471.129-48.156.707-48.156 1.375v191.312c0 5.718 15.669 18.344 60.28 18.344 44.613 0 60.282-12.626 60.282-18.344V389.465c0-.764-26.985-1.375-60.281-1.375-4.162 0-8.2-.019-12.125 0z" color="#000" fill="url(#H)" overflow="visible" enable-background="accumulate" transform="translate(-1076.96 -365.322)"/><path style="marker:none" d="M1248.474 377.746c-33.297 0-60.281.959-60.281 1.719v199.312c0 5.718 15.67 18.344 60.28 18.344 44.613 0 60.282-12.626 60.282-18.344-.01-69.392 0-139.812 0-199.312 0-.76-26.985-1.719-60.281-1.719z" color="#000" fill="url(#I)" overflow="visible" enable-background="accumulate" transform="translate(-1076.96 -365.322)"/><path style="marker:none" d="M1248.474 370.307c-9.386 0-17 .177-17.094 1.686v.545c.1.207.188.837.188 1.577 0 .733-.088 2.397-.188 2.611v1.796c5.282-.075 11.036-.163 17.094-.163 6.058 0 11.811.088 17.094.163v-1.85c-.09-.25-.125-1.874-.125-2.557 0-.684.036-1.274.125-1.523v-.49c0-.024.03-.03.03-.054 0-.012-.03-.045-.03-.055-.1-1.509-7.712-1.686-17.094-1.686z" color="#000" fill="url(#J)" overflow="visible" enable-background="accumulate" transform="translate(-1076.96 -365.322)"/><path style="marker:none" d="M1237.974 372.592c-2.86-.007-4.915.09-5.688.49v.217c0 .705-.044 1.311-.094 1.74 1.376-.82 8.161-.434 16.313-.434 8.224 0 15.022-.396 16.312.435a15.139 15.139 0 0 1-.094-1.741v-.218c-1.515-.802-8.19-.38-16.218-.38-4 0-7.672-.103-10.532-.11z" color="#000" fill="url(#K)" overflow="visible" enable-background="accumulate" transform="translate(-1076.96 -365.322)"/><path style="marker:none" d="M1248.474 376.476c-9.96 0-18.025.44-18.125.974v.195c.107.073.187.274.187.536 0 .259-.082.46-.187.536v.633c5.604-.026 11.697-.049 18.125-.049 6.428 0 12.551.023 18.156.049v-.633c-.095-.089-.156-.295-.156-.536 0-.242.062-.448.156-.536v-.195c-.106-.533-8.202-.974-18.156-.974z" color="#000" fill="url(#L)" overflow="visible" enable-background="accumulate" transform="translate(-1076.96 -365.322)"/><path style="marker:none" d="M1241.88 370.089c-6.106.053-10.43.312-10.5 1.251v.436c.031.054.1.158.125.272.906-1.15 8.137-1.034 16.969-1.034 8.942 0 16.276-.083 17.031 1.088.022-.114.035-.207.062-.272v-.435-.055c-.1-1.252-7.712-1.251-17.094-1.251-2.346 0-4.558-.018-6.593 0z" color="#000" fill="url(#M)" overflow="visible" enable-background="accumulate" transform="translate(-1076.96 -365.322)"/><path style="marker:none" d="M115.826 75.807c-2.08.046-3.655.349-4.594.093v137.563c0 2.335 2.62 5.815 8.75 9.125-.603-55.373-1.233-107.038-1.906-146.719a19.254 19.254 0 0 0-2.25-.063z" color="#000" fill="#1a191c" overflow="visible" enable-background="accumulate"/><path style="marker:none" d="M1297.505 436.847c-.296.004-.586.01-.875.031-.854 40.763.59 97.896-.187 152.75 8.695-3.77 12.312-8.098 12.312-10.843V438.253c-1.699.375-6.814-1.464-11.25-1.406z" color="#000" fill="url(#N)" overflow="visible" enable-background="accumulate" transform="translate(-1076.96 -365.322)"/><path style="marker:none" d="M219.587 78.097c-3.652.308-7.782.616-12.355.85.985 43.133 3.357 73.702 6.167 73.702 2.828 0 5.216-30.978 6.188-74.552z" color="#000" fill="#0e0e0f" overflow="visible" enable-background="accumulate"/><path style="marker:none" d="M1248.474 378.871c-33.297 0-60.281.191-60.281.438v64.78c0 1.856 26.984 3.376 60.28 3.376 33.298 0 60.282-1.52 60.282-3.375-.01-22.564 0-45.52 0-64.781 0-.247-26.985-.438-60.281-.438z" color="#000" fill="url(#O)" overflow="visible" enable-background="accumulate" transform="translate(-1076.96 -365.322)"/><path style="line-height:125%;-inkscape-font-specification:Sans Bold" d="M1240.96 455.471c-.2.003-.334.05-.468.187-.135.137-.251.331-.25.532v5.343c0 1.782.375 3.309 1.25 4.47.874 1.159 2.242 1.787 3.75 1.843 1.152.043 2.206-.265 3.031-.938.334-.269.575-.642.813-1 .153.194.304.441.5.594.715.559 1.623.76 2.656.719 1.365-.054 2.594-.642 3.375-1.719.782-1.079 1.093-2.479 1.093-4.125v-5.125c0-.213-.037-.456-.187-.594-.15-.137-.412-.173-.625-.156a92.055 92.055 0 0 1-14.844-.031c-.026-.003-.067 0-.094 0zm2.563 3.812c1.271.071 2.573.108 3.844.125v2.407c0 .967-.24 1.545-.5 1.843-.254.3-.66.496-1.438.47-.769-.028-1.168-.206-1.437-.532-.26-.317-.469-.97-.469-1.938v-2.375zm9.906 0v2.157c0 .879-.17 1.414-.375 1.687-.207.28-.426.448-1 .469-.582.021-.884-.107-1.094-.375-.2-.257-.343-.806-.343-1.688v-2.125c.946-.02 1.866-.075 2.812-.125zm-12.406 10.657a.693.693 0 0 0-.531.187.894.894 0 0 0-.25.594v2.094c0 .168.059.323.156.468a.986.986 0 0 0 .406.344c1.09.483 2.16.931 3.25 1.375v5.594c-1.09.332-2.16.644-3.25.937a.74.74 0 0 0-.406.25.712.712 0 0 0-.156.438v2.156c0 .265.157.52.375.688a.908.908 0 0 0 .781.156c4.948-1.506 9.864-3.448 14.813-5.75.303-.143.499-.423.5-.75v-2.313c-.001-.326-.197-.656-.5-.75-4.949-1.49-9.865-3.37-14.813-5.656-.104-.05-.263-.057-.375-.062zm6.344 6.375c1.403.538 2.784 1.057 4.187 1.531a111.899 111.899 0 0 1-4.187 1.594v-3.125zm8.531 8.218c-.566.045-1.122.091-1.688.125-.026 0-.068-.003-.094 0a.878.878 0 0 0-.53.282.848.848 0 0 0-.188.562v4.469c-4.111.213-8.233.183-12.344-.156-.213-.018-.412.017-.563.156a.852.852 0 0 0-.25.594v2.031c0 .215.1.428.25.594.151.165.35.263.563.281 4.11.339 8.233.4 12.344.187v4.47c0 .215.099.449.25.593.15.144.35.2.562.187.566-.034 1.122-.017 1.688-.062.213-.017.474-.179.625-.344.15-.165.187-.347.187-.562v-12.688c0-.214-.037-.392-.187-.531-.151-.139-.412-.204-.625-.188zm0 14.532c-.566.044-1.122.09-1.688.125-.026 0-.068-.003-.094 0a.92.92 0 0 0-.53.312.848.848 0 0 0-.188.563v4.5c-4.111.212-8.233.182-12.344-.157-.213-.017-.412.018-.563.157a.852.852 0 0 0-.25.593v2.032c0 .216.1.459.25.625a.85.85 0 0 0 .563.281c4.11.339 8.233.369 12.344.156v4.5a.86.86 0 0 0 .25.594c.15.145.35.263.562.25.566-.034 1.122-.08 1.688-.125.213-.017.474-.115.625-.281.15-.166.187-.409.187-.625v-12.719c0-.216-.037-.423-.187-.563a.9.9 0 0 0-.625-.218zm-14.938 17.062c-.2.003-.334.11-.468.25-.135.14-.251.328-.25.531v9.72c0 .216.099.426.25.593.15.167.349.295.562.312.566.047 1.153.09 1.719.125a.745.745 0 0 0 .563-.218.787.787 0 0 0 .25-.563v-6.844c1.248.07 2.501.108 3.75.125v6.344c0 .217.098.407.25.563.15.155.349.249.562.25.562.003 1.126.008 1.688 0a.794.794 0 0 0 .562-.25.808.808 0 0 0 .25-.563v-6.344c.92-.02 1.83-.077 2.75-.125v6.657a.86.86 0 0 0 .25.593c.15.146.35.2.563.188.565-.034 1.121-.08 1.687-.125.213-.017.474-.115.625-.281.15-.167.188-.377.188-.594v-9.531c0-.217-.038-.423-.188-.563a.897.897 0 0 0-.625-.219 92.079 92.079 0 0 1-14.844-.03c-.026-.004-.067 0-.094 0zm0 15.531c-.2.003-.334.08-.468.22-.135.14-.251.326-.25.53v2.032a.98.98 0 0 0 .25.625c.15.167.349.263.562.281 1.822.15 3.679.24 5.5.281v1.406c0 .7-.18 1.162-.375 1.438-.179.256-.693.728-1.625 1.156-1.27.59-2.604 1.119-3.875 1.656-.268.113-.435.444-.437.75v2.157c0 .281.172.582.406.75.234.167.535.23.781.125a123.827 123.827 0 0 0 4.063-1.875v.03c.876-.41 1.571-.862 2.125-1.343.103-.088.188-.188.281-.281.259.383.567.702.938.969v.03c.774.558 1.723.816 2.78.782 1.591-.051 2.992-.652 3.876-1.781.886-1.132 1.218-2.684 1.218-4.531v-4.625c0-.218-.037-.422-.187-.563a.894.894 0 0 0-.625-.219 92.054 92.054 0 0 1-14.844 0c-.026-.003-.067.001-.094 0zm12.47 3.907v1.718c0 .86-.176 1.41-.438 1.72-.258.31-.657.507-1.375.53-.719.024-1.104-.136-1.375-.437-.263-.292-.469-.828-.469-1.688v-1.718a92.817 92.817 0 0 0 3.656-.125zm2.468 9.593c-.152.016-.342.061-.469.157-2.523 1.927-5.008 3.778-7.531 5.5-2.274-.019-4.57-.157-6.844-.344a.744.744 0 0 0-.562.219.778.778 0 0 0-.25.562v2.063a.9.9 0 0 0 .25.593c.15.168.349.295.562.313 2.274.187 4.57.294 6.844.312 2.523 1.77 5.008 3.437 7.531 5 .244.15.616.133.875-.03.259-.165.407-.48.406-.782v-2.219c0-.274-.09-.522-.312-.656a153.2 153.2 0 0 1-5.125-3.187c1.7-1.224 3.424-2.496 5.125-3.813.222-.17.313-.477.313-.75v-2.156c0-.222-.095-.484-.25-.625-.156-.142-.346-.18-.563-.156zm-13.281 26.438a.468.468 0 0 0-.031.031.468.468 0 0 0-.094.063.468.468 0 0 0-.031.03.468.468 0 0 0-.031 0 .468.468 0 0 0 0 .032.468.468 0 0 0-.031 0 .468.468 0 0 0 0 .031.468.468 0 0 0-.062 0 .468.468 0 0 0 0 .031.468.468 0 0 0 0 .063.468.468 0 0 0-.031.031.468.468 0 0 0 0 .031.468.468 0 0 0-.031.032.468.468 0 0 0 0 .03.468.468 0 0 0 0 .063.468.468 0 0 0 0 .094v13.562a.468.468 0 0 0 .437.47l3.813.187a.468.468 0 0 0 .03 0c2.713.043 4.77-.668 6.126-1.938 1.362-1.275 2-3.221 2-5.656 0-2.422-.637-4.199-2-5.344-1.366-1.154-3.438-1.612-6.125-1.656l-3.688-.188h-.062a.468.468 0 0 0-.03 0 .468.468 0 0 0-.095 0 .468.468 0 0 0-.03 0 .468.468 0 0 0-.032 0zm2.437 2.562l1.781.063c1.822.029 3.036.399 3.782 1.094a.468.468 0 0 0 0 .03c.746.687 1.156 1.841 1.156 3.595 0 1.766-.392 3-1.156 3.78-.755.777-1.979 1.186-3.782 1.157l-1.78-.031v-9.688z" font-size="56.214" font-weight="700" letter-spacing="0" word-spacing="0" fill="url(#P)" font-family="Sans" transform="translate(-1076.96 -365.322)"/><path style="marker:none" d="M1247.318 402.003c-.924 0-1.657.733-1.657 1.657v9.687h-9.687c-.924 0-1.656.733-1.656 1.656v2.344c0 .924.732 1.656 1.656 1.656h9.687v9.688c0 .923.733 1.656 1.657 1.656h2.343c.924 0 1.657-.733 1.657-1.656v-9.688h9.687c.923 0 1.656-.732 1.656-1.656v-2.344c0-.923-.733-1.656-1.656-1.656h-9.687v-9.687c0-.924-.733-1.657-1.657-1.657h-2.343z" color="#000" fill="url(#Q)" overflow="visible" enable-background="accumulate" transform="translate(-1076.96 -365.322)"/><path style="marker:none" d="M1296.661 378.527v67.563c7.559-.622 12.094-1.381 12.094-2.219-.01-22.434 0-44.543 0-64.406 0-.308-4.59-.641-12.094-.938z" color="#000" fill="url(#R)" overflow="visible" enable-background="accumulate" transform="translate(-1076.96 -365.322)"/><path style="marker:none" d="M115.639 13.174c-2.775.188-4.407.382-4.407.563v65c0 .558 2.415 1.065 6.563 1.53-.66-28.007-1.392-50.553-2.156-67.093z" color="#000" fill="#8b5941" overflow="visible" enable-background="accumulate"/><path style="marker:none" d="M1218.381 377.878c-33.249 0-30.092 1.47-30.092 1.47s2.172 1.718 60.185 1.718c58.013 0 60.216-1.719 60.216-1.719s3.156-1.469-30.092-1.469h-60.217z" color="#000" fill="url(#S)" overflow="visible" enable-background="accumulate" transform="translate(-1076.96 -365.322)"/><path style="marker:none" d="M1234.161 380.537c-9.315 0-16.875.236-16.875.538 0 .303 7.56.539 16.875.539 9.316 0 16.875-.236 16.875-.539 0-.302-7.56-.538-16.875-.538z" color="#000" fill="url(#T)" overflow="visible" enable-background="accumulate" transform="translate(-1076.96 -365.322)"/><path style="marker:none" d="M1260.943 380.058c-13.433 0-24.344.497-24.344 1.077s10.91 1.017 24.344 1.017c13.432 0 24.312-.436 24.312-1.017 0-.58-10.88-1.076-24.312-1.076z" color="#000" fill="url(#U)" overflow="visible" enable-background="accumulate" transform="translate(-1076.96 -365.322)"/></g><g><path style="marker:none" d="M1382.318 432.253c-25.508 0-46.157.498-46.157 1.094V582.91c0 4.648 10.649 14.406 46.157 14.406 35.508 0 46.187-9.758 46.187-14.406V433.347c0-.596-20.68-1.094-46.187-1.094z" color="#000" fill="url(#V)" overflow="visible" enable-background="accumulate" transform="translate(-1076.96 -365.322)"/><path style="marker:none" d="M1382.318 417.472c-25.508 0-46.157.789-46.157 1.406V580.91c0 4.648 10.649 14.406 46.157 14.406 35.508 0 46.187-9.758 46.187-14.406V418.878c0-.617-20.68-1.406-46.187-1.406z" color="#000" fill="url(#W)" overflow="visible" enable-background="accumulate" transform="translate(-1076.96 -365.322)"/><path style="marker:none" d="M1382.318 410.78c-7.59 0-13.724.171-13.8 1.289v.396c.082.153.138.59.138 1.139 0 .542-.059 1.773-.138 1.931v1.338c4.272-.055 8.9-.1 13.8-.1 4.898 0 9.562.045 13.834.1v-1.387c-.072-.185-.139-1.376-.139-1.882s.066-.955.139-1.14v-.346-.05c-.081-1.116-6.247-1.287-13.834-1.287z" color="#000" fill="url(#X)" overflow="visible" enable-background="accumulate" transform="translate(-1076.96 -365.322)"/><path style="marker:none" d="M1373.81 412.465c-2.313-.004-3.976.051-4.6.346v.199c0 .521.01.97-.034 1.287 1.112-.607 6.55-.297 13.142-.297 6.65 0 12.168-.318 13.212.297a10.51 10.51 0 0 1-.07-1.287v-.199c-1.224-.593-6.65-.247-13.142-.247-3.235 0-6.195-.094-8.508-.1z" color="#000" fill="url(#Y)" overflow="visible" enable-background="accumulate" transform="translate(-1076.96 -365.322)"/><path style="marker:none" d="M1382.318 415.189c-8.054 0-14.584.351-14.665.792v.149c.086.06.139.229.139.445 0 .214-.053.384-.139.446v.545c4.533-.022 9.467-.05 14.665-.05 5.197 0 10.132.028 14.664.05v-.545c-.076-.073-.104-.246-.104-.446s.028-.373.104-.445v-.149c-.086-.44-6.614-.792-14.664-.792z" color="#000" fill="url(#Z)" overflow="visible" enable-background="accumulate" transform="translate(-1076.96 -365.322)"/><path style="marker:none" d="M1376.991 410.632c-4.937.04-8.416.196-8.473.892v.346a.72.72 0 0 1 .069.199c.732-.851 6.588-.743 13.73-.743 7.232 0 13.155-.074 13.765.792a.872.872 0 0 1 .07-.198v-.297-.05-.05c-.082-.926-6.248-.89-13.835-.89-1.897 0-3.68-.013-5.326 0z" color="#000" fill="url(#aa)" overflow="visible" enable-background="accumulate" transform="translate(-1076.96 -365.322)"/><path style="marker:none" d="M259.201 106.588v109c0 1.946 1.877 4.416 6.656 6.656-.457-44.51-.929-82.812-1.437-114.844-2.443-.246-4.26-.533-5.219-.812z" color="#000" fill="#1a191c" overflow="visible" enable-background="accumulate"/><path style="marker:none" d="M1428.505 471.972c-1.388.32-5.526.25-9.062.531-.66 32.785.193 72.022-.407 116.22 6.856-2.501 9.47-5.526 9.47-7.813 0-37.93-.002-73.207 0-108.938z" color="#000" fill="url(#ab)" overflow="visible" enable-background="accumulate" transform="translate(-1076.96 -365.322)"/><path style="line-height:125%;-inkscape-font-specification:Sans Bold" d="M1376.616 482.471a.507.507 0 0 0-.375.156.579.579 0 0 0-.156.406v4.063c0 1.356.275 2.523.937 3.406s1.67 1.364 2.813 1.406c.873.033 1.687-.207 2.312-.718.253-.205.445-.478.625-.75.117.147.196.32.344.437.542.426 1.249.594 2.031.563a3.225 3.225 0 0 0 2.532-1.344c.592-.821.874-1.872.874-3.125v-3.906a.615.615 0 0 0-.187-.438c-.114-.105-.276-.138-.438-.125-3.747.298-7.502.28-11.25-.031-.02-.002-.043 0-.062 0zm1.938 2.906c.962.054 1.943.08 2.906.094v1.844c0 .736-.178 1.179-.375 1.406-.192.228-.474.364-1.063.344-.582-.02-.89-.19-1.093-.438-.198-.24-.376-.7-.376-1.437v-1.813zm7.5 0v1.656c0 .67-.127 1.074-.282 1.282-.156.213-.346.327-.781.343-.441.017-.623-.077-.781-.28-.152-.197-.281-.611-.281-1.282v-1.625c.716-.015 1.407-.056 2.124-.094zm-9.376 8.125a.62.62 0 0 0-.437.156.544.544 0 0 0-.156.407v1.625c0 .127.02.264.094.375a.731.731 0 0 0 .312.25 89.08 89.08 0 0 0 2.47 1.062v4.219c-.826.253-1.644.495-2.47.719a.567.567 0 0 0-.312.187c-.073.098-.094.247-.094.375v1.594a.67.67 0 0 0 .25.531.692.692 0 0 0 .594.125c3.747-1.146 7.47-2.591 11.218-4.344a.74.74 0 0 0 .407-.625v-1.75a.568.568 0 0 0-.407-.53c-3.748-1.135-7.47-2.573-11.218-4.313a.66.66 0 0 0-.25-.063zm4.782 4.875c1.062.41 2.125.795 3.187 1.156-1.062.43-2.125.808-3.187 1.188v-2.344zm6.469 6.219c-.429.034-.853.068-1.282.094-.02 0-.043-.002-.062 0a.68.68 0 0 0-.406.218.686.686 0 0 0-.156.438v3.406a69.4 69.4 0 0 1-9.344-.125c-.162-.013-.323.02-.438.125-.114.106-.156.274-.156.438v1.53a.7.7 0 0 0 .157.47.677.677 0 0 0 .437.218c3.114.258 6.23.319 9.344.157v3.406a.62.62 0 0 0 .187.437c.115.11.276.166.438.157.428-.026.853-.06 1.281-.094a.676.676 0 0 0 .438-.219.73.73 0 0 0 .187-.469v-9.625c0-.163-.073-.3-.188-.406a.588.588 0 0 0-.437-.156zm0 11.094c-.429.034-.853.067-1.282.093-.02 0-.043-.002-.062 0a.677.677 0 0 0-.406.22.685.685 0 0 0-.156.437v3.437a69.41 69.41 0 0 1-9.344-.156.585.585 0 0 0-.438.156c-.114.106-.156.242-.156.406v1.563c0 .164.042.342.157.469a.675.675 0 0 0 .437.218 69.41 69.41 0 0 0 9.344.157v3.437a.62.62 0 0 0 .187.438c.115.11.276.166.438.156.428-.026.853-.06 1.281-.094a.673.673 0 0 0 .438-.219.729.729 0 0 0 .187-.468v-9.688c0-.164-.073-.3-.188-.406a.586.586 0 0 0-.437-.156zm-11.313 12.968c-.151.002-.273.082-.375.188a.577.577 0 0 0-.156.406v7.406c0 .166.042.31.156.438a.672.672 0 0 0 .438.219c.428.035.883.097 1.312.125.162.01.292-.077.406-.188a.55.55 0 0 0 .188-.406v-5.219c.945.053 1.898.08 2.844.094v4.844c0 .165.072.319.187.437a.62.62 0 0 0 .438.188c.425.002.855.006 1.28 0a.622.622 0 0 0 .438-.188c.115-.119.157-.303.157-.469v-4.812c.696-.015 1.396-.058 2.093-.094v5.063a.62.62 0 0 0 .188.437c.114.11.276.198.437.188.429-.026.853-.06 1.282-.094a.671.671 0 0 0 .437-.219.728.728 0 0 0 .188-.468v-7.282c0-.165-.074-.3-.188-.406a.584.584 0 0 0-.438-.156c-3.747.298-7.502.28-11.25-.031-.02-.002-.043 0-.062 0zm0 11.813c-.151.002-.273.081-.375.187a.577.577 0 0 0-.156.407v1.562c0 .166.042.31.156.438.114.127.276.236.438.25a70.14 70.14 0 0 0 4.156.218v1.063c0 .532-.102.853-.25 1.062v.032c-.136.195-.575.518-1.281.843-.963.45-1.913.904-2.876 1.313a.582.582 0 0 0-.343.531v1.656c0 .215.104.435.281.563.177.128.407.174.594.094a94.514 94.514 0 0 0 3.094-1.438v.031a6.763 6.763 0 0 0 1.593-1.03c.078-.068.149-.15.219-.22.196.292.438.548.719.75v.032c.587.424 1.324.62 2.125.593 1.205-.04 2.205-.515 2.875-1.375.67-.862.969-2.03.969-3.437v-3.531a.544.544 0 0 0-.188-.407.582.582 0 0 0-.438-.156c-3.747.298-7.502.28-11.25-.031-.02-.002-.043 0-.062 0zm9.438 2.969v1.343c0 .655-.145 1.047-.344 1.282-.195.236-.456.388-1 .406-.545.018-.857-.115-1.063-.344-.199-.222-.343-.627-.343-1.281v-1.313c.92-.011 1.83-.045 2.75-.093zm1.874 7.312a.714.714 0 0 0-.343.125 131.742 131.742 0 0 1-5.719 4.156 69.989 69.989 0 0 1-5.188-.218.579.579 0 0 0-.437.156c-.114.107-.156.24-.156.406v1.594c0 .166.042.34.156.469a.669.669 0 0 0 .438.218c1.722.143 3.464.236 5.187.25a120.16 120.16 0 0 0 5.719 3.782.59.59 0 0 0 .625 0c.196-.125.344-.365.344-.594v-1.688a.588.588 0 0 0-.282-.5 116.026 116.026 0 0 1-3.875-2.437 137.76 137.76 0 0 0 3.875-2.906.744.744 0 0 0 .282-.563v-1.687c0-.17-.07-.33-.188-.438a.542.542 0 0 0-.438-.125zm-5.25 21.031c-1.867.11-3.393.718-4.562 1.875-1.338 1.318-2 3.164-2 5.532 0 2.362.62 4.39 1.938 5.906 1.32 1.512 3.211 2.308 5.468 2.344.889.014 1.735-.088 2.532-.344.805-.257 1.571-.671 2.28-1.188a.487.487 0 0 0 .188-.406v-2a.487.487 0 0 0-.843-.344c-.61.597-1.236 1.03-1.907 1.313a5.16 5.16 0 0 1-2.125.437c-1.515-.024-2.575-.55-3.343-1.468-.766-.922-1.157-2.268-1.157-4.063 0-1.801.338-3.042 1.094-3.875.755-.836 1.876-1.212 3.406-1.187.775.012 1.457.112 2.125.375.68.264 1.332.682 1.938 1.218a.487.487 0 0 0 .812-.343v-1.938a.487.487 0 0 0 0-.093.487.487 0 0 0 0-.032.487.487 0 0 0-.03-.093.487.487 0 0 0 0-.032.487.487 0 0 0 0-.062.487.487 0 0 0-.032-.031.487.487 0 0 0-.062-.094.487.487 0 0 0-.03 0 .487.487 0 0 0 0-.031.487.487 0 0 0-.032 0 .487.487 0 0 0 0-.063c-.015-.01-.046-.021-.062-.03a.487.487 0 0 0-.094 0c-.018-.012-.044-.02-.062-.032a.487.487 0 0 0-.062 0c-.638-.38-1.281-.706-2-.906-.796-.23-1.647-.33-2.53-.344-.28-.004-.578-.016-.845 0z" font-size="56.214" font-weight="700" letter-spacing="0" word-spacing="0" fill="url(#ac)" font-family="Sans" transform="translate(-1076.96 -365.322)"/><path style="marker:none" d="M342.326 103.34c-2.61.21-5.575.396-8.844.556.704 29.495 2.404 50.426 4.412 50.426 2.021 0 3.737-21.186 4.432-50.982z" color="#000" fill="#0e0e0f" overflow="visible" enable-background="accumulate"/><path style="marker:none" d="M1382.318 418.378c-25.508 0-46.157.175-46.157.375v52.657c0 1.508 20.649 2.75 46.157 2.75 25.508 0 46.187-1.242 46.187-2.75-.01-18.345 0-36.997 0-52.657 0-.2-20.68-.375-46.187-.375z" color="#000" fill="url(#ad)" overflow="visible" enable-background="accumulate" transform="translate(-1076.96 -365.322)"/><path style="marker:none" d="M1381.411 436.847a1.27 1.27 0 0 0-1.28 1.281v7.5h-7.5c-.717 0-1.282.597-1.282 1.313v1.812c0 .716.565 1.282 1.281 1.282h7.5v7.5a1.27 1.27 0 0 0 1.281 1.28h1.813c.716 0 1.312-.565 1.312-1.28v-7.5h7.5c.716 0 1.282-.566 1.282-1.282v-1.812c0-.716-.566-1.313-1.282-1.313h-7.5v-7.5c0-.715-.596-1.28-1.312-1.28h-1.813z" color="#000" fill="url(#ae)" overflow="visible" enable-background="accumulate" transform="translate(-1076.96 -365.322)"/><path style="marker:none" d="M262.545 53.275c-2.105.042-3.344.11-3.344.157v52.656c0 .444 1.822.88 5 1.25-.513-22.626-1.06-40.85-1.656-54.063z" color="#000" fill="#8b5941" overflow="visible" enable-background="accumulate"/><path style="marker:none" d="M1419.255 418.535v54.53c5.79-.455 9.25-1.04 9.25-1.655-.01-18.345 0-36.997 0-52.657 0-.08-3.508-.158-9.25-.218z" color="#000" fill="url(#af)" overflow="visible" enable-background="accumulate" transform="translate(-1076.96 -365.322)"/><path style="marker:none" d="M1359.443 417.378c-25.287 0-22.907 1.188-22.907 1.188s1.66 1.406 45.782 1.406c44.12 0 45.78-1.406 45.78-1.406s2.413-1.188-22.874-1.188h-45.781z" color="#000" fill="url(#ag)" overflow="visible" enable-background="accumulate" transform="translate(-1076.96 -365.322)"/><path style="marker:none" d="M1391.849 418.878c-10.29 0-18.625.382-18.625.875s8.334.875 18.625.875c10.29 0 18.656-.382 18.656-.875s-8.366-.875-18.656-.875z" color="#000" fill="url(#ah)" overflow="visible" enable-background="accumulate" transform="translate(-1076.96 -365.322)"/><path style="marker:none" d="M1371.349 419.253c-7.136 0-12.906.181-12.906.438s5.77.5 12.906.5c7.136 0 12.937-.243 12.937-.5s-5.8-.438-12.937-.438z" color="#000" fill="url(#ai)" overflow="visible" enable-background="accumulate" transform="translate(-1076.96 -365.322)"/></g></svg>