<svg viewBox="0 0 512 512" xmlns="http://www.w3.org/2000/svg" xmlns:xlink="http://www.w3.org/1999/xlink"><defs><linearGradient id="c"><stop stop-color="#fff" offset="0"/><stop stop-color="#fff" stop-opacity="0" offset="1"/></linearGradient><linearGradient id="b"><stop offset="0"/><stop stop-opacity=".498" offset=".5"/><stop offset="1"/></linearGradient><linearGradient id="a"><stop stop-color="#fff" offset="0"/><stop stop-color="#7f7f7f" offset=".264"/><stop offset="1"/></linearGradient><linearGradient id="d" x1="501.37" x2="248.06" y1="-103.19" y2="330.15" gradientUnits="userSpaceOnUse" xlink:href="#a" spreadMethod="reflect"/><linearGradient id="e" x1="515.73" x2="144.23" y1="55.558" y2="293.34" gradientUnits="userSpaceOnUse" xlink:href="#a"/><linearGradient id="h" x1="294.82" x2="868.77" y1="375.37" y2="375.37" gradientTransform="translate(-367.41 -19.502)" gradientUnits="userSpaceOnUse" xlink:href="#b"/><radialGradient id="n" cx="582.12" cy="435.03" r="147.51" gradientTransform="matrix(0 1.6529 -2.0379 0 1110.2 -967.9)" gradientUnits="userSpaceOnUse" xlink:href="#a"/><linearGradient id="q" x1="380.88" x2="285.04" y1="279.35" y2="19.466" gradientUnits="userSpaceOnUse" xlink:href="#a"/><radialGradient id="r" cx="89.092" cy="139.92" r="60.375" gradientTransform="matrix(2.9809 0 0 2.9517 -20.782 -267.87)" gradientUnits="userSpaceOnUse" xlink:href="#c"/><linearGradient id="v" x1="449.42" x2="461.13" y1="318.2" y2="311.44" gradientUnits="userSpaceOnUse" xlink:href="#b"/><radialGradient id="w" cx="459.93" cy="323.18" r="7.941" gradientTransform="matrix(1.8868 .50556 -.43047 1.6065 -268.6 -424.22)" gradientUnits="userSpaceOnUse" xlink:href="#c"/><linearGradient id="x" x1="449.42" x2="461.13" y1="318.2" y2="311.44" gradientTransform="translate(248.42 186.96) scale(.45493)" gradientUnits="userSpaceOnUse" xlink:href="#b"/><radialGradient id="y" cx="459.93" cy="323.18" r="7.941" gradientTransform="matrix(.85836 .23 -.19584 .73087 126.23 -6.033)" gradientUnits="userSpaceOnUse" xlink:href="#c"/><linearGradient id="f" x1="49.063" x2="15.07" y1="550.03" y2="50.828" gradientUnits="userSpaceOnUse" xlink:href="#a"/><linearGradient id="j" x1="21.047" x2="9.098" y1="478.95" y2="52.867" gradientUnits="userSpaceOnUse" xlink:href="#a"/><filter id="o" x="-.017" y="-.041" width="1.034" height="1.083" color-interpolation-filters="sRGB"><feGaussianBlur stdDeviation="2.493"/></filter><filter id="g" x="-.009" y="-.08" width="1.018" height="1.161" color-interpolation-filters="sRGB"><feGaussianBlur stdDeviation=".513"/></filter><filter id="s" x="-.034" y="-.041" width="1.069" height="1.081" color-interpolation-filters="sRGB"><feGaussianBlur stdDeviation=".513"/></filter><filter id="t" x="-.477" y="-.386" width="1.954" height="1.771" color-interpolation-filters="sRGB"><feGaussianBlur stdDeviation=".513"/></filter><filter id="u" x="-.024" y="-.008" width="1.048" height="1.016" color-interpolation-filters="sRGB"><feGaussianBlur stdDeviation=".02"/></filter><filter id="i" x="-.007" y="-.056" width="1.013" height="1.112" color-interpolation-filters="sRGB"><feGaussianBlur stdDeviation=".448"/></filter><filter id="k" x="-.019" y="-.032" width="1.038" height="1.064" color-interpolation-filters="sRGB"><feGaussianBlur stdDeviation=".389"/></filter><filter id="p" x="-.111" y="-.171" width="1.222" height="1.342" color-interpolation-filters="sRGB"><feGaussianBlur stdDeviation=".25"/></filter><filter id="m" x="-.249" y="-.012" width="1.499" height="1.025" color-interpolation-filters="sRGB"><feGaussianBlur stdDeviation=".25"/></filter><filter id="l" x="-.014" y="-.012" width="1.028" height="1.023" color-interpolation-filters="sRGB"><feGaussianBlur stdDeviation=".25"/></filter></defs><path d="M401.89 349.9l9.637-.862 95.168-9.446.268-.24 20.112-238.18-.23-.368-136.12-2.97.053 247.14z" fill="url(#d)" transform="translate(-6.23 5.592) scale(.97816)"/><path d="M317.756 100.014l-6.33.027 189.616 4.198 8.057-.05z" fill="#010101"/><path d="M310.978 100.044l189.498 4.2.573-.005-189.617-4.198z" fill="#010101"/><path d="M310.978 100.044l-69.052.295 169.701 4.467 88.85-.563z" fill="#7a7a7a"/><path d="M246.11 97.178l-4.969 181.41 160.75 71.312 15.406-248.03z" fill="url(#e)" transform="translate(-6.23 5.592) scale(.97816)"/><path d="M241.46 100.341l169.554 4.469.615-.004-169.701-4.467z" fill="#020202"/><path d="M241.46 100.341l-6.705.029 167.54 4.495 8.721-.055z" fill="#1a1a1a"/><path d="M402.289 104.865l-167.54-4.495-.245.267 167.452 4.6z" fill="#4d4d4d"/><path d="M494.02 185.348l-87.545 3.454-5.166 80.117 86.323-6.144 6.389-77.427zm-6.45 78.1l-86.292 6.144-4.982 77.397 85.1-8.62 6.175-74.921z" fill="#b9b9b9"/><path d="M487.584 263.474l-86.306 6.122-.044.688 86.295-6.145zM494.265 185.348l-87.591 3.447-.245.32 87.563-3.457z" fill="#fff"/><path d="M494.578 184.742l-87.62 3.437-.246.32 87.592-3.448z" fill="#434343"/><path d="M496.72 158.791l-88.04 2.522-1.727 26.863 87.62-3.438z" fill="#b9b9b9"/><path d="M496.476 158.81l-88.023 2.509.201.386 88.04-2.522z" fill="#fff"/><path d="M496.779 158.097l-88.052 2.497-.247.333 88.022-2.508z" fill="#464646"/><path d="M498.95 131.862l-88.475 1.561-1.748 27.177 88.052-2.497z" fill="#b9b9b9"/><path d="M498.51 131.129l-88.439 1.533.203.38 88.458-1.547z" fill="#525252"/><path d="M498.706 131.882l-88.458 1.547.203.38 88.475-1.56z" fill="#ececec"/><path d="M500.701 104.601l-88.866.576-1.765 27.478 88.44-1.534z" fill="#b9b9b9"/><path d="M411.836 105.178l88.866-.576-.222-.361-88.85.563z" fill="#4f4f4f"/><path d="M51.03 405.111l.074 6.752 34.346 44.342 1.955.397 397.554-50.866.194-.586.536-6.626-72.03-33.452-360.413 39.199-1.237.243z" fill="#333"/><path d="M195.868 315.6l-.723 2.204c45.245 14.858 132.668 29.738 175.668 55.284l1.192-1.987c-43.235-25.688-130.848-40.63-176.137-55.5z" color="#000" fill="#999" style="block-progression:tb;text-indent:0;text-transform:none"/><path d="M195.584 315.639l-.344 1.094c45.357 14.844 132.717 29.765 175.873 55.406l.594-1c-43.235-25.689-130.839-40.63-176.127-55.5z" color="#000" fill="#ffe6d5" style="block-progression:tb;text-indent:0;text-transform:none"/><path d="M353.273 408.056l13.158-1.614.155-2.774-13.165 1.6z" fill="#8a8a8a"/><path d="M352.99 405.864l-.148 2.792.437-.604.148-2.787z" fill="#2a2a2a"/><path d="M418.644 370.915l-1.382 1.153 1.832.247z" fill="#5a5a5a"/><path d="M418.927 374.837l.168-2.526-1.832-.247-.167 2.525z" fill="#a5a5a5"/><path d="M418.644 370.925l-49.568 5.527-8.923 1.084 2.312 1.12.397-.506 54.409-6.07 1.372-1.155z" fill="#6b6b6b"/><path d="M362.732 380.726l54.363-6.14.167-2.524-54.39 6.09z" fill="#898989"/><path d="M485.687 398.518l-71.279-33.145-.762-.317 70.965 33.004z" fill="#0e0e0e"/><path d="M351.904 374.67l.029-.557-.298-.86-1.522 1.167z" fill="#5b5b5b"/><path d="M350.114 374.426l-.132 2.544 1.789.252.133-2.545z" fill="#a2a2a2"/><path d="M418.927 374.837l53.335 25.43.213-2.726-53.38-25.23z" fill="#6c6c6c"/><path d="M419.094 372.314l53.38 25.23 3.007.127-56.838-26.757z" fill="#606060"/><path d="M351.767 377.214l4.87 2.62.138-2.565-4.875-2.6z" fill="#616161"/><path d="M351.63 373.272l.289.831v.578l4.48 2.385.975.65 2.927.144-.976-.505-7.695-4.083z" fill="#3c3c3c"/><path d="M356.775 377.273l-.394.502 2.95-.43z" fill="#353535"/><path d="M362.478 378.662l-.141 2.577.39-.51.142-2.572z" fill="#2a2a2a"/><path d="M359.876 378.926l.42-1.07-2.926-.133.683.945z" fill="#747474"/><path d="M358.056 378.672l-.138 2.577 1.821.26.14-2.58z" fill="#a2a2a2"/><path d="M351.63 373.253l-45.913 5.037 2.884.699 41.508-4.57z" fill="#6e6e6e"/><path d="M308.493 381.567l41.487-4.606.132-2.543-41.507 4.57z" fill="#8e8e8e"/><path d="M315.956 385.988l41.961-4.738.139-2.577-41.983 4.7z" fill="#8d8d8d"/><path d="M359.739 381.508l18 9.684.154-2.655-18.015-9.608z" fill="#636363"/><path d="M380.593 388.64L360.3 377.861l-.42 1.07 18.014 9.607z" fill="#5d5d5d"/><path d="M308.131 379.503l-.112 2.584.478-.512.111-2.58z" fill="#323232"/><path d="M308.131 379.503l.477-.507-2.884-.7z" fill="#444"/><path d="M305.373 378.33l-1.639 1.196 1.782.26z" fill="#5c5c5c"/><path d="M305.402 382.37l.11-2.587-1.781-.26-.11 2.585z" fill="#a0a0a0"/><path d="M313.697 385.235l-4.572-2.708-1.105-.44 4.564 2.706zM312.7 382.183l-4.569-2.684-2.407-1.207 5.86 3.447z" fill="#181818"/><path d="M311.232 381.782l-5.858-3.448.143 1.456 4.55 2.69z" fill="#5a5a5a"/><path d="M305.402 382.37l4.546 2.71.113-2.607-4.549-2.69z" fill="#5a5a5a"/><path d="M485.149 405.15l.536-6.626-.193.575-.537 6.637z" fill="#171717"/><path d="M475.484 397.667l-3.007-.126-.222.568z" fill="#3a3a3a"/><path d="M311.418 382.692l2.634-.294-2.472-.655-.349.039z" fill="#3e3e3e"/><path d="M311.232 381.782l-1.166.698-.48.52 1.832-.308z" fill="#373737"/><path d="M315.956 385.988l.118-2.614-.472.522-.117 2.619z" fill="#303030"/><path d="M313.149 382.662l2.457 1.233.471-.522z" fill="#444"/><path d="M380.593 388.64l-2.7-.101-.373.54z" fill="#373737"/><path d="M313.012 382.702l-1.652 1.223 1.81.267z" fill="#5c5c5c"/><path d="M313.061 386.81l.116-2.62-1.809-.268-.115 2.618z" fill="#a0a0a0"/><path d="M305.373 378.33l-62.736 6.882 2.93.717 58.167-6.403z" fill="#727272"/><path d="M245.49 388.56l58.137-6.453.109-2.584-58.168 6.403z" fill="#929292"/><path d="M411.542 404.925l-49.06-26.266-2.327-1.11 50.268 26.924z" fill="#141414"/><path d="M313.149 382.662l18.922 11.129.43.034-16.895-9.93z" fill="#181818"/><path d="M244.971 386.458l-.079 2.639.596-.536.079-2.634z" fill="#3b3b3b"/><path d="M242.643 385.215l2.334 1.248.596-.53z" fill="#484848"/><path d="M373.893 394.811l-1.586 1.296 1.94.288z" fill="#5e5e5e"/><path d="M374.088 399.105l.156-2.717-1.94-.288-.155 2.715z" fill="#a2a2a2"/><path d="M250.165 392.385l-4.108-2.834-1.165-.446 4.1 2.832z" fill="#1e1e1e"/><path d="M236.95 385.842l-1.816 1.241 1.765.272z" fill="#5d5d5d"/><path d="M236.823 389.999l.075-2.646-1.766-.272-.074 2.643z" fill="#9c9c9c"/><path d="M242.643 385.215l5.263 3.608 1.174.45-4.103-2.81z" fill="#1d1d1d"/><path d="M399.286 398.558l-1.552 1.319 1.986.295z" fill="#5e5e5e"/><path d="M399.55 402.92l.172-2.747-1.986-.295-.17 2.745z" fill="#a3a3a3"/><path d="M358.81 400.416l13.34-1.601.155-2.715-13.348 1.589z" fill="#8a8a8a"/><path d="M373.893 394.811l-18.014 2.137 3.079.748 13.348-1.589z" fill="#707070"/><path d="M242.154 389.46l-5.206-3.62-.051 1.513 4.042 2.826z" fill="#575757"/><path d="M384.105 400.397l-10.213-5.594.354 1.584 8.645 4.756z" fill="#5f5f5f"/><path d="M236.823 389.999l4.04 2.848.077-2.668-4.042-2.826z" fill="#505050"/><path d="M374.088 399.105l8.638 4.794.163-2.755-8.645-4.756z" fill="#636363"/><path d="M399.286 398.558l-15.181 1.839.766 1.044 12.863-1.564z" fill="#6e6e6e"/><path d="M384.701 404.202l12.856-1.577.171-2.744-12.862 1.564z" fill="#888"/><path d="M358.536 398.264l-.148 2.732.417-.576.148-2.728z" fill="#2a2a2a"/><path d="M355.875 396.944l2.662 1.32.417-.572z" fill="#454545"/><path d="M410.417 404.475l-11.133-5.912.434 1.614 9.5 5.067z" fill="#616161"/><path d="M399.55 402.92l9.492 5.107.18-2.787-9.5-5.067z" fill="#676767"/><path d="M240.325 390.723l1.808-.308.02-.956-1.216.718z" fill="#343434"/><path d="M384.701 404.202l.165-2.757-1.98-.298-.164 2.755z" fill="#a2a2a2"/><path d="M313.178 384.188l45.741 27.269 1.276-.764-47.174-27.995z" fill="#727272"/><path d="M236.95 385.842l-65.926 7.233 2.98.737 61.129-6.729z" fill="#757575"/><path d="M173.957 396.503l61.096-6.782.073-2.644-61.129 6.73z" fill="#979797"/><path d="M355.875 396.944l9.965 5.669 1.159.462-8.462-4.811z" fill="#171717"/><path d="M410.427 404.475l-.005.001.552 1.06 2.32-.316z" fill="#404040"/><path d="M408.882 405.845l2.087-.308-.552-1.06-1.2.769z" fill="#3f3f3f"/><path d="M366.586 403.664l-.155 2.774.41-.596.155-2.77z" fill="#282828"/><path d="M365.843 402.617l-13.153 1.593.737 1.061 13.165-1.6z" fill="#707070"/><path d="M173.262 394.371l-.04 2.701.736-.562.04-2.697z" fill="#464646"/><path d="M173.262 394.371l.737-.558-2.98-.738z" fill="#4c4c4c"/><path d="M353.43 405.268l-.737-1.06-1.646.742 1.945.917z" fill="#545454"/><path d="M165.036 393.725l-2.011 1.29 1.746.286z" fill="#5d5d5d"/><path d="M163.03 395.017l-.033 2.706 1.745.289.035-2.709z" fill="#989898"/><path d="M173.223 397.07l3.543 2.979 1.243.455-3.552-2.98z" fill="#242424"/><path d="M176.813 397.325l-3.545-2.955-2.243-1.296 4.543 3.794z" fill="#232323"/><path d="M169.516 397.54l-4.48-3.809-.266 1.576 3.477 2.972z" fill="#545454"/><path d="M164.743 398.01l3.474 2.995.037-2.732-3.476-2.972z" fill="#454545"/><path d="M352.843 408.662l8.92 5.288 1.188.467-8.933-5.293z" fill="#191919"/><path d="M177.85 397.59l.727.026-1.77-.29-1.246-.458z" fill="#0c0c0c"/><path d="M351.043 404.945l9.666 5.685 1.207.479-8.927-5.247z" fill="#191919"/><path d="M168.254 398.274l-.757.574 1.78-.307.246-1.006z" fill="#313131"/><path d="M165.036 393.725l-69.357 7.61 3.03.76 64.316-7.08z" fill="#797979"/><path d="M98.717 404.857l64.278-7.136.034-2.706-64.315 7.08z" fill="#9a9a9a"/><path d="M360.707 410.638l-.518.06.329 1.082 3.013-.347z" fill="#4d4d4d"/><path d="M360.189 410.697l-1.276.763-.44.623 2.045-.304z" fill="#4d4d4d"/><path d="M98.697 402.099l-.867.578v.939l.903.975-.036-2.492z" fill="#515151"/><path d="M98.717 402.099l-3.031-.76 2.14 1.347z" fill="#4f4f4f"/><path d="M81.696 402.871l-2.246 1.346 1.72.303z" fill="#5d5d5d"/><path d="M79.45 404.221l.014 2.779 1.719.305-.014-2.78z" fill="#919191"/><path d="M100.742 405.796l-2.922-3.111-2.14-1.348 3.74 3.995z" fill="#2a2a2a"/><path d="M81.696 402.871l-20.474 2.247 3.054.77 15.174-1.67z" fill="#7a7a7a"/><path d="M64.3 408.682l15.165-1.684-.014-2.779-15.175 1.67z" fill="#9e9e9e"/><path d="M53.246 404.25l-1.235.257-.981.596 2.422.612z" fill="#999"/><path d="M64.267 405.894l-.94.578.976 1.192-.036-1.77z" fill="#565656"/><path d="M85.28 406.901l-3.585-4.032-.526 1.649 2.779 3.147z" fill="#4f4f4f"/><path d="M61.222 405.121l2.09 1.371.964-.601z" fill="#515151"/><path d="M81.174 404.524v2.782l.831.976 1.951-.253v-.361l-2.782-3.144z" fill="#373737"/><path d="M100.742 405.796l-1.322-.465 2.174.76.895.01z" fill="#111"/><path d="M61.222 405.121l2.21 2.69 2.504 1.866-2.624-3.185zM85.293 406.901l-1.336.759-.687.47 1.482-.181.541-1.048z" fill="#2d2d2d"/><path d="M67.671 409.983l-1.735-.314-2.505-1.865 2.449 2.266z" fill="#212121"/><path d="M86.95 456.69l397.035-50.804.977-.155L87.41 456.597z" fill="#0e0e0e"/><path d="M95.726 461.08l406.43-52.002.549-6.785-407.01 51.04z" fill="url(#f)" transform="translate(-6.23 5.592) scale(.97816)"/><path d="M51.104 411.86l34.346 44.343-.029-7.57-34.392-43.524z" fill="#343434"/><path d="M51.03 405.111l34.392 43.523 1.098-1.37-33.068-41.54z" fill="#ccc"/><path d="M95.9 444.668l.564-.016-1.94-.382-1.268-.232z" fill="#131313"/><path d="M85.422 448.63l.029 7.57 1.955.398-.026-7.578z" fill="#999"/><path d="M86.52 447.26l-1.099 1.372 1.959.39 2.985-1.693z" fill="#ccc"/><path d="M8.522 55.31l-4.336.397-1.517 1.59L7.51 301.23l4.19 4.335 1.518 1.373 143.496-10.874-.397 35.08.795-.434-.759.47-.144.072-16.366 1.445-26.085 2.349-1.336 1.409v5.13l1.264 1.192 35.008 28.974 133.49-13.548 1.337-1.517.216-5.42-3.251-2.42-3.432-1.914-11.994-6.684-28.65-16.005-24.495 2.132-7.406.65.722-34.646 159.832-12.14 1.264-1.408L378.25 59.136l-1.156-1.445-368.58-2.385z"/><path d="M236.412 324.247l-31.9 2.782-.063 3.55 1.616 1.435-1.264.614-42.017 3.794-2.674-.253-3.757-4.986-42.595 3.866 33.49 26.879 2.53 1.156 131.826-13.006-1.12-1.228z" fill="#111"/><path d="M283.54 356.673l-.588.533-.756.988z" fill="#060606"/><path d="M283.159 351.772l-.205 5.434.588-.533.205-5.424z" fill="#202020"/><path d="M280.498 348.867l1.108 1.211 1.554 1.701.589-.523z" fill="#171717"/><path d="M113.702 342.793l35 28.965-1.405-1.31-34.89-28.858z" fill="#030303"/><path d="M112.411 341.59l34.889 28.858.052-5.674-34.93-28.334z" fill="#222"/><path d="M148.71 371.756l133.49-13.56.755-.987-133.694 13.537z"/><path d="M149.258 370.749l133.695-13.537.205-5.434-133.842 13.29z"/><path d="M159.01 367.5l136.83-13.588-1.59-1.739-134.77 13.294z" fill="#1a1a1a" filter="url(#g)" transform="translate(-6.23 5.592) scale(.97816)"/><path d="M149.258 370.749l-1.956-.3 1.405 1.31z"/><path d="M134.44 346.26l22.47 18.053 2.58 1.162 134.85-13.204-1.178-1.303z" fill="url(#h)" filter="url(#i)" opacity=".5" transform="translate(-6.23 5.592) scale(.97816)"/><path d="M81.428 404.661l-12.934 1.41-.867 3.829 15.138-1.734-1.337-3.505zm1.806 4.805l-14.343 1.59-1.445-.361-.216.939 16.149-1.806-.145-.362z" fill="#6e6e6e"/><path d="M429.26 367.5l-6.907.591-361.55 39.483.222 1.477 33.795 42.475 3.915.074 403.07-50.379-72.539-33.72zm5.097 5.983l58.098 27.332-63.564 7.72-2.364.332-48.495 6.02-1.293.148-1.625-.96-1.218-.702-8.643-5.097 1.662-.776 13.444-1.625-10.157-5.798 18.393-2.18 10.452 5.725 15.512-1.883 11.376 6.057-51.376-27.553 9.123-1.108 50.674-5.651zm-68.513 2.401l8.864 4.69 20.757 11.007-46.464 5.43-3.14-.149-19.353-11.376.85-.11 44.357-4.95-.11-.073-.887.147-43.287 4.728h-.11l-2.586.295-62.493 6.944-2.438-.702-5.392-3.656 64.155-7.055 5.983 3.546.37-.074-6.02-3.509 46.943-5.134zm-39.483 9.64l47.128 27.959 1.108.665 1.625.96-1.293.148-270.51 33.61-2.733-.628-25.89-31.801v-1.256l.996-.665 247.9-27.738 1.663-1.255zm-77.747 3.213l5.319 3.694-.037.997-65.706 7.313-2.327-.739-4.654-3.878 67.405-7.387zm-73.537 8.052l4.58 3.915-.222 1.034-69.215 7.683-2.216-.776-3.804-4.063 70.877-7.793zm-85.208 9.344l3.693 4.137-.554 1.071-19.28 2.18-2.511-2.328-2.253-2.733 20.905-2.327z" fill="url(#j)" transform="translate(-6.23 5.592) scale(.97816)"/><path d="M68.892 411.058l-.976.65v1.23l.867 1.047.145-.072-.036-2.854z" fill="#565656"/><path d="M313.169 384.198l-.123 2.598 42.55 25.585 3.302-.397.03-.52-45.76-27.266z" fill="#5d5d5d"/><path d="M87.38 449.02l398.12-49.924-.882-1.034L90.37 447.328z" fill="#ececec"/><path d="M238.652 387.328l-11.56 1.265-.795 3.613 13.583-1.518-1.228-3.36zm-15.68 1.735l-11.705 1.264-.795 3.613 9.755-1.084 3.974-.434-1.229-3.36zm-15.86 1.734l-11.85 1.3-.795 3.65 10.477-1.157 3.396-.397-1.228-3.396zm-16.04 1.77l-11.994 1.337-.795 3.649 5.78-.65 8.237-.94-1.228-3.396zm-25.181 2.782l-12.211 1.336-.831 3.686 14.306-1.554-1.264-3.468zm-16.51 1.806l-12.357 1.373-.83 3.721 14.487-1.626-1.3-3.468zm-16.692 1.843l-12.5 1.373-.83 3.72 14.63-1.625-1.3-3.468zm34.9 1.011l-15.03 1.698-.072.362 15.246-1.698-.145-.362zm-51.807.867l-12.609 1.373-.867 3.758 14.776-1.662-1.3-3.469zm35.333.976l-15.21 1.698-.072.397 15.427-1.734-.145-.361zm-16.691 1.878l-15.39 1.735-.073.36 15.607-1.733-.144-.361zm-16.872 1.88l-15.571 1.733-.072.398 15.787-1.77-.144-.362z" fill="#6b6b6b"/><path d="M68.92 413.905l242.33-27.365.114-2.619-242.466 27.152z" fill="#979797"/><path d="M357.372 377.723l-44.228 4.935 2.928.71 41.983-4.7z" fill="#6f6f6f"/><path d="M399.843 368.93l2.192 1.08 3.136-.354-2.22-1.073z" fill="#2a2a2a"/><path d="M385.7 370.514l2.15 1.092 3.17-.358-2.18-1.084zM371.408 372.108l2.11 1.104 3.205-.362-2.14-1.095z" fill="#2b2b2b"/><g fill="#ccc"><path d="M400.107 368.968l1.973.973 2.823-.319-1.999-.965zM385.963 370.543l1.937.983 2.853-.322-1.963-.975zM371.672 372.147l1.9.994 2.884-.326-1.927-.986z"/></g><path d="M339.52 373.311l-2.095 4.372 3.324 1.806 2.492-.253.723-3.54zm-14.451 1.554l-2.06 4.407 3.18 1.807 2.529-.253.686-3.504zm-14.596 1.626l-1.626 3.432 3.396 1.987 1.77.47.723-3.433zm-17.74 1.914l-1.444 3.107 1.662-.18 1.156 3.287 2.023-.217.722-3.504zm-14.956 1.662l-1.445 3.107 1.517-.18 1.192 3.323 2.023-.253.723-3.504zm-15.102 1.626l-1.445 3.143 1.373-.145 1.192 3.288 2.06-.217.722-3.504zm-15.282 1.662l-1.77 3.938 2.276 1.517 2.384.686h.145l.759-3.576zm-23.953 2.637l-1.409 3.18.94-.109 1.228 3.36 2.095-.217.795-3.613zm-15.715 1.698l-1.373 3.18.759-.073 1.228 3.396 2.132-.217.794-3.649zm-15.896 1.734l-1.41 3.216.651-.073 1.229 3.396h.036l2.131-.217.795-3.648zm-16.041 1.77l-1.879 4.3 1.662 1.372 2.276.723.434-.036.795-3.649zm-25.217 2.746l-1.337 3.216h.145l1.192 3.215.289.253 1.987-.253.83-3.685zm-16.51 1.806l-1.373 3.252 1.12 3.07.433.398 1.951-.217.831-3.72zm-16.728 1.843l-1.445 3.54.94 2.53.65.65 1.878-.217.831-3.721zm-16.871 1.843l-1.915 4.696 1.228 1.3 1.807.651.722-.072.867-3.758zm-34.43 3.757l-1.735 4.48 1.626 2.023 1.698.217.867-3.83z" fill="#333"/><path d="M354.623 374.534l-10.658 1.156-.723 3.54 12.573-1.372-1.192-3.324zm-14.415 1.59l-10.802 1.192-.686 3.504 12.644-1.409-1.156-3.287zm-14.596 1.59l-10.874 1.228-.723 3.468 12.79-1.41-1.193-3.287zm-17.955 1.986l-10.802 1.192-.723 3.505 12.898-1.445-1.084-3.107-.289-.145zm-14.704 1.626l-11.164 1.228-.722 3.505 13.041-1.445-1.156-3.288zm-15.102 1.662l-11.272 1.264-.723 3.505 13.187-1.445-1.192-3.324zm-15.245 1.698l-11.417 1.228-.758 3.577 13.367-1.517-1.192-3.288z" fill="#656565"/><path d="M414.389 379.855l.657-5.154-7.435-3.565-2.488 4.196z" fill="#333"/><path d="M427.32 378.378l-1.933-4.837-10.345 1.168-.658 5.154z" fill="#606060"/><path d="M400.254 381.479l.675-5.184-7.304-3.602-2.474 4.214z" fill="#333"/><path d="M413.322 379.982l-1.942-4.863-10.456 1.18-.675 5.184z" fill="#616161"/><path d="M385.963 383.122l.694-5.213-7.171-3.64-2.46 4.233zM435.41 390.126l.663-5.34-18.369-8.807-2.555 4.255z" fill="#333"/><path d="M399.178 381.606l-1.952-4.889-10.567 1.193-.694 5.213z" fill="#616161"/><path d="M410.407 386.585l.676-5.275-7.548-3.723-2.534 4.274z" fill="#333"/><path d="M423.652 385.03l-1.976-4.944-10.588 1.22-.676 5.275z" fill="#606060"/><path d="M448.673 388.541l-2-5-10.606 1.248-.664 5.34z" fill="#5f5f5f"/><path d="M395.94 388.277l.695-5.306-7.412-3.762-2.518 4.293z" fill="#333"/><path d="M409.331 386.712l-1.985-4.97-10.704 1.232-.695 5.306z" fill="#616161"/><path d="M420.913 391.857l.676-5.37-7.804-3.849-2.597 4.335z" fill="#333"/><path d="M434.323 390.253l-2.009-5.028-10.724 1.262-.676 5.37z" fill="#606060"/><path d="M353.948 386.8l.736-5.279-6.867-3.727-2.424 4.276z" fill="#333"/><path d="M367.476 385.245l-1.974-4.947-10.82 1.221-.736 5.28z" fill="#646464"/><path d="M406.26 393.608l.696-5.402-7.665-3.89-2.582 4.354z" fill="#333"/><path d="M419.817 391.994l-2.02-5.055-10.842 1.275-.696 5.402z" fill="#616161"/><path d="M339.158 388.492l.756-5.31-6.723-3.767-2.408 4.296zM431.78 397.315l.676-5.468-8.074-3.982-2.662 4.398z" fill="#333"/><path d="M352.833 386.927l-1.983-4.974-10.94 1.235-.755 5.31z" fill="#646464"/><path d="M363.7 390.595l.535-3.893-7.1-3.855-2.484 4.338 6.695 3.686z" fill="#333"/><path d="M376.661 389.089l-1.458-3.643-10.964 1.263-.535 3.894z" fill="#636363"/><path d="M324.378 389.05l.608-4.181-6.576-3.81-1.877 3.38zM416.932 399.135l.696-5.502-7.931-4.026-2.647 4.419z" fill="#333"/><path d="M338.033 388.62l-1.993-5.002-11.058 1.248-.607 4.182z" fill="#656565"/><path d="M430.665 397.452l-2.055-5.143-10.986 1.32-.695 5.501z" fill="#606060"/><path d="M348.725 392.346l.55-3.92-6.953-3.897-2.467 4.358 6.065 3.787z" fill="#333"/><path d="M361.822 390.82l-1.466-3.666-11.086 1.277-.55 3.92z" fill="#646464"/><path d="M333.612 393.862l.529-3.69-6.802-3.94-1.916 3.432 7.052 4.145z" fill="#333"/><path d="M346.837 392.571l-1.49-3.688-11.209 1.291-.529 3.69 1.542.073z" fill="#656565"/><path d="M319.937 390.703l-2.314-5-26.658 3.01-1.203 5.454z" fill="#666"/><g fill="#333"><path d="M289.761 394.166l1.203-5.455-6.233-3.904-2.727 4.404zM273.739 396.005l.845-5.445-6.064-3.95-2.333 4.383zM306.566 398.753l.78-5.49-6.529-4.017-2.383 4.41z"/></g><path d="M288.079 394.361l-2.027-5.093-11.467 1.294-.845 5.445z" fill="#676767"/><path d="M368.376 403.869l.599-4.4-7.449-4.174-1.992 3.532z" fill="#4a4a4a"/><path d="M311.271 398.196l.432-5.441-4.36.502-.78 5.49z" fill="#666"/><path d="M382.461 403.34l-2.09-5.236-11.39 1.368-.764 5.61z" fill="#636363"/><path d="M258.069 397.804l.867-5.477-5.9-3.994-2.314 4.404zM290.827 400.592l.839-5.528-6.367-4.062-2.4 4.435z" fill="#333"/><path d="M272.565 396.142l-2.037-5.122-11.596 1.309-.867 5.477z" fill="#686868"/><path d="M320.436 403.879l.43-5.542-9.158-5.579-.431 5.441z" fill="#454545"/><path d="M305.275 398.9l-2.057-5.166-11.559 1.331-.838 5.528z" fill="#676767"/><path d="M338.434 401.727l-2.394-5.174-15.176 1.785-.43 5.542z" fill="#656565"/><path d="M242.213 399.624l.89-5.51-5.733-4.039-2.294 4.424zM275.02 402.44l.861-5.56-6.2-4.109-2.382 4.457z" fill="#333"/><path d="M256.885 397.941l-2.047-5.15-11.726 1.324-.89 5.51z" fill="#696969"/><path d="M289.634 400.73l-2.067-5.196-11.691 1.346-.861 5.562z" fill="#676767"/><path d="M304.844 405.747l.836-5.62-6.646-4.192-2.467 4.494zM226.19 401.463l.912-5.544-5.56-4.084-2.274 4.445z" fill="#333"/><path d="M319.448 403.996l-2.09-5.248-11.682 1.374-.836 5.621z" fill="#666"/><path d="M241.02 399.76l-2.058-5.18-11.853 1.339-.912 5.543z" fill="#6a6a6a"/><path d="M259.037 404.319l.884-5.595-6.03-4.155-2.362 4.477z" fill="#333"/><path d="M273.817 402.588l-2.078-5.225-11.825 1.362-.883 5.595z" fill="#686868"/><path d="M209.982 403.321l.936-5.577-5.385-4.13-2.253 4.466zM288.861 407.654l.86-5.655-6.478-4.24-2.447 4.516z" fill="#333"/><path d="M303.641 405.884l-2.1-5.278-11.818 1.39-.859 5.656z" fill="#676767"/><path d="M224.978 401.6l-2.069-5.21-11.995 1.354-.936 5.577z" fill="#6a6a6a"/><path d="M242.868 406.217l.907-5.63-5.856-4.203-2.341 4.5z" fill="#333"/><path d="M348.177 407.527l-2.437-5.265-39.176 4.706-1.127 5.781z" fill="#656565"/><path d="M193.579 405.21l.96-5.612-5.206-4.178-2.231 4.488z" fill="#333"/><path d="M257.824 404.456l-2.089-5.255-11.96 1.378-.908 5.63z" fill="#696969"/><path d="M272.702 409.591l.882-5.69-6.304-4.289-2.427 4.538z" fill="#333"/><path d="M208.75 403.468l-2.08-5.24-12.132 1.37-.96 5.612z" fill="#6b6b6b"/><path d="M305.441 412.75l1.127-5.78-6.797-4.368-2.79 4.605z" fill="#333"/><path d="M287.658 407.801l-2.112-5.308-11.954 1.406-.882 5.69z" fill="#676767"/><path d="M226.513 408.124l.931-5.664-5.677-4.251-2.32 4.52zM176.99 407.107l.983-5.646-5.02-4.225-2.21 4.509z" fill="#333"/><path d="M241.646 406.354l-2.1-5.286-12.1 1.394-.93 5.664z" fill="#6a6a6a"/><path d="M256.357 411.538l.906-5.726-6.126-4.339-2.406 4.56z" fill="#333"/><path d="M192.336 405.346l-2.09-5.27-12.272 1.386-.984 5.646z" fill="#6b6b6b"/><path d="M209.963 410.07l.955-5.699-5.494-4.3-2.299 4.543z" fill="#333"/><path d="M271.48 409.738l-2.124-5.34-12.094 1.423-.906 5.726z" fill="#686868"/><path d="M289.077 414.756l.877-5.785-6.617-4.42-2.5 4.596zM160.204 409.034l1.009-5.681-4.831-4.274-2.187 4.531z" fill="#333"/><path d="M225.271 408.27l-2.11-5.315-12.24 1.41-.956 5.699z" fill="#6a6a6a"/><path d="M304.17 412.907l-2.147-5.39-12.072 1.45-.878 5.785z" fill="#676767"/><path d="M175.727 407.253l-2.101-5.3-12.415 1.402-1.009 5.68z" fill="#6d6d6d"/><g fill="#333"><path d="M239.816 413.523l.93-5.762-5.943-4.389-2.385 4.582zM193.227 412.027l.98-5.735-5.307-4.35-2.276 4.565zM143.223 410.99l1.034-5.716-4.636-4.324-2.164 4.553z"/></g><path d="M255.115 411.694l-2.135-5.37-12.237 1.439-.93 5.762z" fill="#696969"/><path d="M272.565 416.77l.902-5.82-6.436-4.473-2.478 4.618z" fill="#333"/><path d="M208.71 410.217l-2.121-5.347-12.384 1.427-.98 5.734z" fill="#6b6b6b"/><path d="M158.932 409.18l-2.112-5.33-12.56 1.417-1.034 5.716z" fill="#6d6d6d"/><path d="M287.834 414.903l-2.157-5.423-12.21 1.467-.902 5.821z" fill="#676767"/><path d="M223.08 415.519l.955-5.799-5.756-4.44-2.363 4.604z" fill="#333"/><path d="M126.047 412.956l1.06-5.752-4.438-4.374-2.14 4.575z" fill="#353535"/><path d="M176.295 414.013l1.004-5.771-5.114-4.402-2.253 4.587z" fill="#333"/><path d="M238.564 413.67l-2.146-5.403-12.38 1.457-.956 5.798z" fill="#6a6a6a"/><path d="M255.858 418.806l.927-5.859-6.25-4.526-2.457 4.642z" fill="#333"/><path d="M191.955 412.174l-2.133-5.38-12.522 1.443-1.004 5.771z" fill="#6b6b6b"/><path d="M141.942 411.137l-2.124-5.362-12.707 1.434-1.06 5.752z" fill="#6e6e6e"/><path d="M108.665 414.952l1.086-5.789-4.233-4.425-2.115 4.597z" fill="#343434"/><path d="M159.157 416.018l1.031-5.808-4.916-4.453-2.23 4.61z" fill="#333"/><path d="M271.313 416.918l-2.17-5.455-12.362 1.485-.927 5.858z" fill="#686868"/><path d="M206.148 417.544l.98-5.836-5.564-4.493-2.34 4.627z" fill="#333"/><path d="M124.746 413.113l-2.136-5.394-12.857 1.451-1.086 5.788z" fill="#6e6e6e"/><path d="M221.808 415.675l-2.157-5.434-12.528 1.473-.981 5.835z" fill="#6a6a6a"/><path d="M91.081 416.976l1.113-5.824-4.024-4.479-2.089 4.62z" fill="#323232"/><path d="M175.013 414.16l-2.145-5.411-12.677 1.46-1.03 5.808z" fill="#6d6d6d"/><g fill="#333"><path d="M238.956 420.88l.951-5.897-6.06-4.58-2.434 4.664zM141.815 418.052l1.057-5.844-4.714-4.506-2.205 4.632zM189.01 419.598l1.007-5.873-5.367-4.546-2.317 4.65z"/></g><path d="M254.587 418.962l-2.181-5.487-12.505 1.502-.952 5.895z" fill="#696969"/><path d="M107.354 415.108l-2.147-5.426-13.01 1.469-1.112 5.825z" fill="#6f6f6f"/><path d="M73.285 419.02l1.14-5.861-3.81-4.532-2.062 4.644z" fill="#303030"/><path d="M157.856 416.174l-2.156-5.443-12.829 1.478-1.057 5.845z" fill="#6d6d6d"/><path d="M204.857 417.7l-2.17-5.467-12.678 1.49-1.006 5.873z" fill="#6b6b6b"/><path d="M124.266 420.106l1.085-5.881-4.506-4.56-2.18 4.655z" fill="#353535"/><path d="M221.838 422.963l.978-5.934-5.864-4.636-2.412 4.688z" fill="#333"/><path d="M89.748 417.123l-2.158-5.458-13.165 1.486-1.14 5.862z" fill="#6f6f6f"/><path d="M171.658 421.672l1.033-5.91-5.165-4.602-2.293 4.673z" fill="#3a3a3a"/><path d="M237.674 421.036l-2.193-5.52-12.662 1.52-.979 5.934z" fill="#6a6a6a"/><path d="M140.504 418.209l-2.169-5.476-12.982 1.496-1.084 5.882z" fill="#6e6e6e"/><path d="M106.503 422.19l1.112-5.92-4.293-4.615-2.155 4.68z" fill="#343434"/><path d="M187.71 419.754l-2.181-5.5-12.83 1.51-1.034 5.91z" fill="#6c6c6c"/><path d="M204.524 425.085l1.005-5.972-5.664-4.692-2.387 4.712zM154.11 423.775l1.06-5.949-4.958-4.657-2.268 4.697z" fill="#333"/><path d="M122.936 420.263l-2.18-5.508-13.139 1.513-1.112 5.92z" fill="#6e6e6e"/><path d="M220.537 423.129l-2.205-5.554-12.81 1.539-1.004 5.972z" fill="#6b6b6b"/><path d="M170.347 421.828l-2.193-5.534-12.986 1.528-1.06 5.948z" fill="#6d6d6d"/><path d="M78.586 425.457l1.156-5.98-3.952-4.7-2.113 4.714z" fill="#313131"/><path d="M136.337 425.897l1.088-5.987-4.746-4.713-2.242 4.72z" fill="#363636"/><path d="M186.996 427.227l1.031-6.011-5.457-4.749-2.363 4.735zM169.242 429.39l1.06-6.052-5.246-4.807-2.338 4.76z" fill="#333"/><path d="M185.665 427.384l-2.23-5.622-13.133 1.577-1.06 6.051z" fill="#6c6c6c"/><path d="M104.85 422.386l-2.082-5.555-23.022 2.652-1.156 5.98z" fill="#6f6f6f"/><path d="M203.204 425.242l-2.217-5.588-12.967 1.557-1.031 6.012z" fill="#6b6b6b"/><path d="M152.77 423.931l-2.206-5.567-13.144 1.546-1.088 5.987z" fill="#6d6d6d"/><path d="M118.348 428.05l1.117-6.028-4.528-4.77-2.216 4.744z" fill="#353535"/><path d="M134.987 426.063l-2.218-5.6-13.306 1.564-1.116 6.027z" fill="#6e6e6e"/><path d="M151.273 431.59l1.088-6.091-5.03-4.866-2.31 4.783z" fill="#333"/><path d="M84.091 432.148l1.171-6.102-4.103-4.881-2.165 4.79z" fill="#323232"/><path d="M167.892 429.555l-2.242-5.657-13.288 1.597-1.088 6.09z" fill="#6d6d6d"/><path d="M116.568 428.264l-2.454-5.61-28.856 3.394-1.171 6.101z" fill="#6f6f6f"/><path d="M133.08 433.81l1.117-6.132-4.806-4.926-2.286 4.808z" fill="#363636"/><path d="M149.914 431.756l-2.256-5.692-13.46 1.617-1.117 6.132z" fill="#6d6d6d"/><path d="M114.66 436.06l1.147-6.173-4.577-4.988-2.257 4.832z" fill="#343434"/><path d="M131.7 433.977l-2.267-5.728-13.623 1.636-1.146 6.173z" fill="#6e6e6e"/><path d="M89.81 439.093l1.186-6.23-4.263-5.07-2.219 4.865z" fill="#333"/><path d="M113.057 436.256l-1.938-5.806-20.12 2.417-1.187 6.229z" fill="#6f6f6f"/><path d="M382.921 378.33l-10.668 1.191-.58 4.096 1.772.948 11.433-1.314-1.956-4.922zm9.934 5.073l-10.82 1.254-.58 4.218 1.65.886 11.738-1.345-1.987-5.013zm10.271 5.258l-10.974 1.284-.58 4.371 1.589.856 11.982-1.437-2.017-5.074zm10.607 5.441l-11.096 1.315-.611 4.524 1.497.825 12.288-1.498-2.079-5.166z" fill="#626262"/><path d="M365.197 375.855l-1.865 3.24v.03l8.345 4.494.581-4.096-7.061-3.668zm9.567 4.982l-1.956 3.393 8.65 4.646.582-4.218-7.275-3.82zm9.874 5.166l-2.048 3.485 8.987 4.83.58-4.372-7.519-3.943zm10.21 5.35l-2.14 3.576 9.323 5.013.612-4.524-7.795-4.066z" fill="#333"/><path d="M167.45 333.71l.2 29.199 48.305-3.007-.223-25.561-48.281-.631" filter="url(#k)" transform="translate(-6.23 5.592) scale(.97816)"/><path d="M205.414 284.181l-.686.036-.975 46.822.686-.47.975-46.388z" fill="#2b2b2b"/><path d="M161.632 287.36l-4.841.362-.47 43.425 4.733 3.288.578-47.075z" fill="#1a1a1a"/><path d="M215.67 284.84l-42.253 3.103-.591 48.495 41.847-3.73.997-47.868z" filter="url(#l)" transform="translate(-6.23 5.592) scale(.97816)"/><path d="M173.42 287.95l-1.81.11-.59 48.127 1.809.258.591-48.495z" filter="url(#m)" transform="translate(-6.23 5.592) scale(.97816)"/><path d="M204.456 330.575l-.691.453 1.038 1.61 1.279-.611z" fill="#1a1a1a"/><path d="M155.01 332.542l1.325-1.392.775-.454-1.707 1.073z" fill="#060606"/><path d="M162.796 336.415l42.001-3.776-1.038-1.609-40.926 3.655z" fill="#0a0a0a"/><path d="M155.01 332.542l5.118 3.612.925-1.705-4.718-3.3z" fill="#131313"/><path d="M162.835 334.684l-1.785-.238-.925 1.705 2.673.263z" fill="#0e0e0e"/><path d="M366.332 278.84l-.349-.656-3.11 1.248 2.216.818z" fill="#333"/><path d="M355.875 272.287l-1.026-.358-1.249 1.414 1.024.36z" fill="#414141"/><path d="M357.782 273.05l-1.911-.757-1.251 1.416 1.543 1.534z" fill="#ccc"/><path d="M366.332 278.84l11.921-219.694-.46 1.082-11.81 217.953z" fill="#181818"/><path d="M26.823 297.69l327.801-23.98-1.024-.361-327.253 23.889z" fill="#1b1b1b"/><path d="M24.835 295.86l.478.45 1.51 1.376-.48-.453z"/><path d="M354.623 273.695L26.822 297.691l-1.498-1.376-1.13 1.07 1.956 2.201 330.04-24.362-1.558-1.528z" fill="#fff"/><path d="M17.42 305.515l-3.914-.85-1.813.91 1.525 1.37z" fill="#5b5b5b"/><path d="M2.669 57.304l4.847 243.924 4.177 4.348L6.964 56.947z" fill="#b3b3b3"/><path d="M29.219 58.5l-1.594 2.063-.187 14.593 2.094 127.97c117.53-5.146 233.71-17.699 348.09-40.125l3.78-103.06z" fill="url(#n)" filter="url(#o)" opacity=".15" transform="translate(-6.23 5.592) scale(.97816)"/><path transform="matrix(.99997 0 0 .99997 0 0)" d="M161.1 331.26l-3.516.764 3.487 2.414 1.771.244.031-3.21-1.773-.212z" filter="url(#p)"/><path d="M377.11 57.7l-2.437 1.403 3.12 1.13.459-1.081z" fill="gray"/><path d="M365.393 65.663L23.125 64.461l-.497.023 341.682 1.197z" fill="#010101"/><path d="M12.989 56.947l361.684 2.155 2.438-1.402-368.6-2.391z" fill="#ccc"/><path d="M8.51 55.31l-4.324.393-1.517 1.6 4.295-.36z" fill="gray"/><path d="M8.91 58.187l4.078-1.24L8.51 55.31l-1.546 1.633z" fill="#f2f2f2"/><path d="M25.313 296.31L21.59 66.082l-1.21-.729 3.806 232.04z"/><path d="M29.219 58.5l-2 2.594 1.219.75L30 60.188l349.94 1.218 1.156 1.5-10.906 209.75 1.97.782 11.061-211.19-1.5-2.313-352.5-1.437z" fill="url(#q)" transform="translate(-6.23 5.592) scale(.97816)"/><path d="M13.506 304.664L8.912 58.187l-1.948-1.245 4.73 248.63z" fill="#ccc"/><path d="M12.997 56.945L8.9 58.198l4.615 246.467 3.913.856 345.447-26.074 3.118-1.253L377.792 60.25l-3.117-1.13L13 56.948zm9.353 5.869l344.802 1.406 1.467 2.262-10.82 206.578-1.62 2.17-330.041 24.362-1.957-2.2-3.79-232.04 1.956-2.537z" fill="#b3b3b3"/><path d="M365.412 65.656l-10.576 206.275 1.04.367 10.667-205.17-1.13-1.467z" fill="#1a1a1a"/><path d="M105.94 51.406c-29.288 32.637-47.094 75.592-47.094 122.69 0 49.257 51.188 127.16 51.188 127.16l269.56-20.469 1.281-1.438L392.75 60.57l-6.062-7.343z" color="#000" fill="url(#r)" fill-rule="evenodd" opacity=".2" transform="translate(-6.23 5.592) scale(.97816)"/><path d="M438.911 386.135l-2.673 4.408 19.473 9.501 2.348-.289.506-4.19z" fill="#333"/><path d="M445.367 395.652l-2.045-5.114-10.863 1.305-.676 5.469z" fill="#5f5f5f"/><path d="M435.328 393.27l-2.718 4.437 8.187 4.125 2.406-.282.5-4.156-8.375-4.125zm-29.937 3.624l-2.219 3.719-.468.75 7.843 4.187.438-.03 1.937-.282.531-4.156-8.062-4.188zm-18.343 2.188l-2.657 4.53 7.688 4.25 2.312-.28.531-4.22-7.874-4.28zm-15.406 1.875l-2.687 4.562 7.5 4.312 2.312-.312.593-4.25-7.718-4.312zm-15.625 1.875l-2.156 3.78 8.406 4.938.719-.062.594-4.281-7.563-4.375zm-22.061 2.687l-2.937 4.625 7.124 4.406 2.281-.281.844-4.313-7.312-4.437zm-19.593 2.344l-2.938 4.687 6.906 4.469 2.281-.313.875-4.312-7.125-4.531zm-19.875 2.437l-2.875 4.688 6.656 4.5 2.219-.282.906-4.375-6.906-4.53zm-20.155 2.406l-2.875 4.75 6.468 4.563 2.156-.25.907-4.406-6.656-4.657zm-106.308 12.875l-2.468 4.844 5.218 4.937 1.75-.25.875-4.562-5.375-4.969zm-27.937 3.344l-2.25 4.875 4.906 5.03 1.656-.218.72-4.594-5.032-5.093zm-18.593 2.25l-2.344 4.906 4.656 5.093 1.656-.218.844-4.625-4.812-5.156zm-28.969 3.5l-2.28 4.937 3.78 4.594 1.875.437.188-.031.875-4.656-4.438-5.281z" fill="#333"/><path d="M417.851 369.986l-10.223 1.156 7.406 3.576 10.368-1.192-7.55-3.54zm-13.873 1.553l-10.368 1.156 7.333 3.613 10.441-1.192-7.406-3.577zm-53.83.614l-10.622 1.156 4.444 2.385 10.658-1.156-4.48-2.385zm39.813.94l-10.477 1.192 7.19 3.612 10.549-1.192-7.262-3.612zm-54.156.614l-10.73 1.156 4.335 2.456 10.802-1.192-4.408-2.42zm39.993.975l-10.585 1.192 7.044 3.65 10.659-1.193-7.118-3.649zm52.277.109l-10.368 1.192 18.353 8.815 10.622-1.265-18.606-8.742zm-106.756.505l-10.838 1.192 4.263 2.457 10.874-1.228-4.3-2.42zm92.704 1.12l-10.477 1.156 7.55 3.721 10.586-1.192-7.66-3.685zm-55.492.18l-10.73 1.193 6.864 3.721 10.838-1.228-6.973-3.685zm-54.843.615l-10.946 1.192 4.118 2.493 11.02-1.228-4.192-2.457zm96.137.795l-10.586 1.192 7.406 3.793 10.695-1.264-7.515-3.721zm-55.818.217l-10.802 1.192 6.72 3.757 10.947-1.228-6.865-3.721zm-55.167.614l-11.055 1.228 4.01 2.493 11.164-1.228-4.119-2.493zm96.642.795l-10.73 1.228 7.297 3.793 10.802-1.228-7.37-3.793zm-56.106.216l-10.947 1.229 6.575 3.793 11.056-1.228-6.684-3.794zm-55.528.615l-11.164 1.228 3.902 2.565 11.272-1.264-4.01-2.53zm150.577.939l-10.621 1.228 7.803 3.866 10.694-1.264-7.875-3.83zm-56.432.217l-10.874 1.228 7.117 3.866 10.983-1.265-7.225-3.83zm-56.865.253l-26.41 2.926 6.251 3.902 26.663-2.999-6.503-3.83zm-52.421.253l-11.308 1.228 3.793 2.565 11.417-1.228-3.902-2.565zm151.34.939l-10.765 1.264 7.659 3.902 10.874-1.3-7.767-3.866zm-56.756.217l-10.983 1.264 6.973 3.902 11.091-1.3-7.081-3.866zm-118.358 1.445l-11.488 1.264 3.649 2.601 11.56-1.264-3.72-2.601zm160.556.036l-10.838 1.264 7.514 3.938 10.947-1.3-7.623-3.902zm54.083.144l-10.658 1.229 19.653 9.43 10.874-1.338-19.87-9.32zm-111.129.073l-11.091 1.264 6.792 3.938 11.2-1.3-6.9-3.902zm-58.563.36l-11.344 1.265 6.07 3.974 11.452-1.3-6.178-3.938zm-60.514 1.085l-11.633 1.264 3.54 2.638 11.706-1.265-3.613-2.637zm215.792.18l-10.766 1.265 8.057 3.974 10.874-1.3-8.165-3.939zm-170.63.47l-11.489 1.265 5.889 3.974 11.597-1.3-5.997-3.939zm55.42 0l-19.112 2.168 6.503 4.01 4.371-.506 9.177 5.6 15.173-1.806-16.113-9.466zm-116.333 1.084l-11.778 1.264 3.432 2.674 11.85-1.3-3.504-2.638zm216.985.144l-10.91 1.301 7.948 4.046 10.982-1.336-8.02-4.01zm-171.608.47l-11.634 1.3 5.745 4.047 11.741-1.337-5.852-4.01zm47.76.94l-11.452 1.3 6.358 4.046 11.561-1.336-6.467-4.01zm-109.074.18l-11.886 1.3 3.287 2.71 11.995-1.337-3.396-2.673zm218.178.18l-11.019 1.301 7.804 4.047 11.091-1.337-7.876-4.01zm-172.586.47l-11.742 1.3 5.563 4.083 11.85-1.336-5.671-4.047zm47.977.94l-11.56 1.3 6.177 4.119 11.706-1.373-6.322-4.046zm164.996.47l-10.91 1.336 8.382 4.119 10.982-1.373-8.454-4.083zm-228.87.36l-11.85 1.301 5.383 4.119 11.994-1.337-5.527-4.083zm-54.697.326l-12.103 1.3 3.107 2.746 12.211-1.337-3.215-2.71zm102.892.614l-11.67 1.337 6.034 4.154 11.815-1.372-6.178-4.119zm165.935.506L405.42 396.9l8.056 4.19 26.337-3.215-8.309-4.118zm-58.708.216l-11.272 1.337 7.442 4.155 11.416-1.373-7.586-4.118zm-171.461.109l-11.995 1.337 5.203 4.19 12.139-1.372-5.347-4.155zm-55.023.325l-12.247 1.337 2.962 2.782 12.356-1.373-3.07-2.746zm164.272.18l-11.56 1.337 6.647 4.191 11.67-1.373-6.756-4.154zm-60.84.47l-11.814 1.337 5.853 4.19 11.958-1.372-5.997-4.155zm-64.668.831l-12.14 1.337 5.022 4.227 12.284-1.373-5.166-4.19zm-55.349.325l-12.392 1.373 2.854 2.782 12.5-1.373-2.962-2.782zm165.212.181l-11.706 1.373 6.503 4.227 11.814-1.373-6.611-4.227zm-61.2.47l-11.995 1.336 5.708 4.264 12.103-1.41-5.817-4.19zm-65.103.867l-12.248 1.336 4.805 4.3 12.428-1.41-4.986-4.226zm229.74 0l-11.307 1.373 7.875 4.263 11.417-1.373-7.985-4.263zm-59.827.289l-38.766 4.588 6.793 4.371 39.162-4.696-7.19-4.263zm-225.583.036l-12.5 1.373 2.71 2.818 12.608-1.373-2.818-2.818zm166.15.18l-11.85 1.373 6.322 4.3 11.958-1.41-6.43-4.263zm-61.598.47l-12.103 1.373 5.492 4.3 12.247-1.41-5.636-4.263zm-65.463.867l-12.428 1.373 4.625 4.335 12.572-1.409-4.769-4.299zm231.041 0l-11.452 1.41 7.731 4.298 11.525-1.409-7.804-4.299zm-119.98.506l-11.995 1.409 6.142 4.335 12.103-1.445-6.25-4.3zm-61.96.47l-12.248 1.409 5.31 4.335 12.357-1.409-5.42-4.335zm-65.933.903l-12.536 1.373 4.407 4.371 12.717-1.409-4.588-4.335zm232.371 0l-11.56 1.409 7.55 4.371 11.706-1.445-7.695-4.335zm-288.733.325l-12.825 1.41 2.456 2.89 12.934-1.41-2.565-2.89zm168.028.18l-12.102 1.41 5.96 4.407 12.248-1.445-6.105-4.371zm-62.32.47l-12.392 1.41 5.13 4.407 12.5-1.445-5.239-4.372zm110.698.723l-11.922 1.409 6.612 4.407 12.066-1.445-6.756-4.371zm-177.027.18l-12.717 1.41 4.227 4.443 12.862-1.481-4.372-4.371zm230.102.47l-14.379 1.734 7.334 4.444 14.488-1.806-7.443-4.372zm-117.81.073l-12.247 1.408 5.744 4.444 12.393-1.445-5.889-4.408zm-62.717.47l-12.536 1.408 4.913 4.48 12.681-1.481-5.058-4.408zm111.315.722l-12.103 1.409 6.467 4.48 12.211-1.482-6.575-4.407zm-178.114.18l-12.825 1.41 4.01 4.48 13.006-1.446-4.191-4.444zm112.939.542l-12.392 1.445 5.563 4.48 12.536-1.48-5.708-4.445zm114.992.325l-14.56 1.77 7.118 4.517 14.703-1.807-7.261-4.48zm-178.113.145l-12.68 1.445 4.732 4.516 12.826-1.481-4.878-4.48zm111.921.723l-12.211 1.445 6.25 4.516 12.356-1.482-6.394-4.48zm-179.12.18l-13.006 1.481 3.793 4.516 13.187-1.48-3.974-4.517zm113.554.578l-12.536 1.445 5.383 4.552 12.68-1.48-5.527-4.517zm-63.513.47l-12.825 1.445 4.516 4.588 12.969-1.517-4.66-4.516zm175.62.289l-14.777 1.806 6.9 4.552 14.921-1.806-7.045-4.552zm-63.08.433l-12.357 1.482 6.07 4.552 12.5-1.481-6.214-4.553zm-66.006.76l-12.68 1.48 5.166 4.589 12.825-1.518-5.31-4.552zm-63.91.505l-12.97 1.445 4.3 4.624 13.15-1.517-4.48-4.552zm113.193.722l-12.536 1.482 5.889 4.624 12.644-1.517-5.997-4.589zm59.863 0l-14.993 1.807 6.648 4.66 15.173-1.878-6.828-4.589zm-126.3.76l-12.825 1.48 4.95 4.66 12.969-1.516-5.095-4.625zm-64.524.505l-22.725 2.601 3.938 4.697 23.05-2.638-4.263-4.66zm114.024.759l-12.68 1.48 5.671 4.697 12.826-1.553-5.817-4.624zm56.938.36l-101.445 12.285 5.383 4.985 102.677-12.608-6.611-4.66zm-123.806.398l-12.97 1.518 4.733 4.696 13.15-1.553-4.913-4.66zm49.712 1.265l-12.826 1.517 5.492 4.733 12.934-1.554-5.6-4.696zm-67.306.758l-13.114 1.518 4.516 4.769 13.295-1.554-4.697-4.733zm49.964 1.265l-12.97 1.553 5.24 4.805 13.114-1.59-5.383-4.768zm-68.39.867L81.2 421.179l4.082 4.877 28.867-3.396-4.48-4.805zm50.832 1.228l-13.15 1.554 5.022 4.877 13.295-1.625-5.166-4.806zm-17.775 2.096l-13.295 1.59 4.805 4.913 13.44-1.626-4.95-4.877zm-18.027 2.131l-13.44 1.59 4.588 4.986 13.62-1.626-4.769-4.95zm-18.064 2.132l-19.87 2.348 4.263 5.094 20.123-2.42-4.516-5.022zm56.468.722l-22.977 2.782 5.022 5.094 23.303-2.854-5.347-5.022zm-27.962 3.396l-13.62 1.626 4.805 5.166 13.8-1.698-4.985-5.094zm-18.678 2.24l-23.917 2.89 4.443 5.275 24.242-2.962-4.769-5.203z" fill="#e6e6e6"/><path d="M469.427 394.21l-10.874 1.343-.5 4.188 12.968-1.563zm-14.75 1.812l-10.968 1.375-.5 4.156 13.062-1.594zm-14.874 1.844l-26.343 3.218-.531 4.156.375-.03 28.06-3.407zm-33.437 4.124l-11.438 1.375-.53 4.22 13.53-1.688zm-15.469 1.875l-11.53 1.407-.594 4.25 13.719-1.688zm-15.624 1.907l-11.688 1.437-.594 4.281.563-.094 13.312-1.656zm-19.5 2.375l-14.5 1.812-.843 4.312 17.188-2.125zm-19.593 2.437l-14.688 1.812-.875 4.313 17.406-2.156zm-19.844 2.437l-14.937 1.813-.906 4.375 17.718-2.156zm-20.187 2.47l-15.156 1.874-.906 4.406 17.969-2.219zm-20.061 2.468L173.4 430.553l-.875 4.562 105.217-13.062zM168.43 431.177l-23.31 2.844-.72 4.594 25.594-3.188zm-28.343 3.47l-13.78 1.687-.844 4.625 16.343-2.032zm-18.874 2.343l-24.25 2.969-.875 4.656 26.75-3.313z" fill="gray"/><g><path d="M121.3 338.24l35.711 28.967-.1-2.894-34.238-27.507z" filter="url(#s)" transform="translate(-6.23 5.592) scale(.97816)"/><path d="M159.49 365.47l-2.58-1.16.1 2.894 2.003.3z" filter="url(#t)" transform="translate(-6.23 5.592) scale(.97816)"/><path d="M157.01 367.2l-.053 5.8 2 .306.056-5.806z" filter="url(#u)" transform="translate(-6.23 5.592) scale(.97816)"/></g><g><path d="M439.537 324.217c4.843.28 9.527-2.843 10.55-7.005 1.031-4.199-2.02-7.972-6.908-8.402-4.98-.437-9.895 2.758-10.882 7.109-.977 4.311 2.305 8.013 7.24 8.298" fill="gray"/><path d="M439.478 323.102c4.143.24 8.15-2.432 9.025-5.993.882-3.591-1.728-6.819-5.909-7.186-4.26-.374-8.464 2.359-9.309 6.08-.836 3.688 1.972 6.855 6.193 7.1" fill="#fff"/><path d="M455.9 324.95c4.236.245 8.331-2.487 9.226-6.127.902-3.671-1.767-6.971-6.04-7.347-4.356-.382-8.654 2.412-9.517 6.217-.855 3.77 2.016 7.007 6.331 7.257" fill="url(#v)" transform="translate(-6.23 5.592) scale(.97816)"/><path d="M456.19 323.59c3.387.196 6.661-1.988 7.377-4.899.72-2.935-1.413-5.573-4.83-5.874-3.483-.306-6.92 1.928-7.61 4.97-.683 3.015 1.613 5.603 5.063 5.803" fill="url(#w)" transform="translate(-6.23 5.592) scale(.97816)"/><path d="M439.566 333.422c2.204.127 4.335-1.294 4.8-3.187.47-1.91-.92-3.627-3.142-3.822-2.266-.2-4.502 1.254-4.951 3.233-.445 1.962 1.049 3.646 3.293 3.776" fill="gray"/><path d="M439.537 332.913c1.885.11 3.708-1.106 4.106-2.726.401-1.634-.787-3.102-2.688-3.27-1.939-.17-3.851 1.074-4.235 2.767-.38 1.678.897 3.118 2.817 3.23" fill="#fff"/><path d="M455.83 334.79c1.927.111 3.79-1.131 4.197-2.787.41-1.67-.804-3.172-2.748-3.343-1.982-.174-3.937 1.097-4.33 2.828-.388 1.716.918 3.188 2.881 3.302" fill="url(#x)" transform="translate(-6.23 5.592) scale(.97816)"/><path d="M455.96 334.18c1.54.09 3.03-.905 3.356-2.229.328-1.335-.643-2.535-2.197-2.672-1.585-.14-3.148.877-3.462 2.261-.311 1.372.733 2.55 2.303 2.64" fill="url(#y)" transform="translate(-6.23 5.592) scale(.97816)"/></g></svg>