<svg xmlns="http://www.w3.org/2000/svg" xmlns:xlink="http://www.w3.org/1999/xlink" height="248" width="248"><defs><linearGradient id="a"><stop offset="0" stop-color="#d1d1d1"/><stop offset=".5"/><stop offset=".75" stop-color="#545454"/><stop offset="1"/></linearGradient><radialGradient r="25.759" fy="455.952" fx="81.127" cy="455.952" cx="81.127" gradientTransform="matrix(-2.36778 .65204 .96503 3.37786 -177.788 -1099.444)" gradientUnits="userSpaceOnUse" id="d" xlink:href="#a"/><linearGradient y2="517.192" x2="59.496" y1="470.989" x1="30.302" gradientTransform="matrix(-1.56498 .21173 .21025 1.38257 87.02 -134.354)" gradientUnits="userSpaceOnUse" id="f" xlink:href="#a"/><linearGradient y2="437.95" x2="2.817" y1="537.777" x1="66.037" gradientTransform="matrix(-1.34782 .1822 .18107 1.18976 82.17 -40.258)" gradientUnits="userSpaceOnUse" id="h" xlink:href="#a"/><radialGradient r="25.759" fy="455.411" fx="68.311" cy="455.411" cx="68.311" gradientTransform="matrix(4.14048 1.10944 -1.68747 5.78356 541.552 -2586.41)" gradientUnits="userSpaceOnUse" id="t" xlink:href="#a"/><radialGradient r="25.759" fy="476.911" fx="74.596" cy="476.911" cx="74.596" gradientTransform="matrix(1.32495 .34753 -.5398 1.85114 218.686 -737.112)" gradientUnits="userSpaceOnUse" id="u" xlink:href="#a"/><linearGradient y2="507.463" x2="110.668" y1="475.949" x1="82.572" gradientTransform="matrix(-.9694 0 0 .94893 304.825 30.5)" gradientUnits="userSpaceOnUse" id="s" xlink:href="#a"/><linearGradient gradientTransform="matrix(-.9854 0 0 1 305.314 0)" y2="456.738" x2="82.201" y1="508.031" x1="106.388" gradientUnits="userSpaceOnUse" id="w" xlink:href="#a"/><linearGradient y2="746.975" x2="274.402" y1="459.061" x1="245.685" gradientTransform="matrix(.96846 0 0 .94893 2.323 30.5)" gradientUnits="userSpaceOnUse" id="r" xlink:href="#a"/><linearGradient y2="451.614" x2="96.423" y1="478.833" x1="58.157" gradientTransform="matrix(-.9854 0 0 1 305.19 0)" gradientUnits="userSpaceOnUse" id="q" xlink:href="#a"/><linearGradient y2="637.042" x2="76.933" y1="297.757" x1="177.129" gradientTransform="matrix(.9694 0 0 .94893 2.2 30.5)" gradientUnits="userSpaceOnUse" id="x" xlink:href="#a"/><linearGradient y2="426.794" x2="237.177" y1="459.034" x1="242.849" gradientTransform="matrix(-.9694 0 0 .94893 304.825 30.5)" gradientUnits="userSpaceOnUse" id="p" xlink:href="#a"/><linearGradient gradientTransform="matrix(-.9854 0 0 1 305.314 0)" y2="449.763" x2="221.344" y1="462.278" x1="243.825" gradientUnits="userSpaceOnUse" id="o" xlink:href="#a"/><linearGradient y2="341.906" x2="113.442" y1="570.32" x1="86.071" gradientTransform="matrix(.9694 0 0 .94893 2.2 30.5)" gradientUnits="userSpaceOnUse" id="n" xlink:href="#a"/><linearGradient gradientTransform="matrix(-.9854 0 0 1 305.314 0)" y2="460.696" x2="197.026" y1="444.737" x1="219.153" gradientUnits="userSpaceOnUse" id="m" xlink:href="#a"/><linearGradient y2="545.555" x2="84.076" y1="465.808" x1="71.49" gradientTransform="matrix(1.70135 .20588 -.22857 1.34436 64.963 -139.455)" gradientUnits="userSpaceOnUse" id="k" xlink:href="#a"/><linearGradient y2="525.135" x2="80.783" y1="467.314" x1="90.63" spreadMethod="reflect" gradientTransform="matrix(1.6768 .20767 -.22527 1.35606 211.588 -120.248)" gradientUnits="userSpaceOnUse" id="e" xlink:href="#a"/><linearGradient y2="160.143" x2="-60.117" y1="160.143" x1="-79.526" spreadMethod="reflect" gradientTransform="matrix(.51817 0 0 1.86 105.83 284.661)" gradientUnits="userSpaceOnUse" id="b" xlink:href="#a"/><linearGradient y2="160.143" x2="-63.647" y1="160.143" x1="-75.996" spreadMethod="reflect" gradientTransform="matrix(.73245 0 0 .52143 120.792 492.133)" gradientUnits="userSpaceOnUse" id="c" xlink:href="#a"/><radialGradient spreadMethod="reflect" gradientUnits="userSpaceOnUse" gradientTransform="matrix(2.23097 0 0 5.2362 88.92 -2535.028)" r="31.625" fy="640.617" fx="-25.388" cy="640.617" cx="-25.388" id="i" xlink:href="#a"/><radialGradient xlink:href="#a" id="v" gradientUnits="userSpaceOnUse" gradientTransform="matrix(2.63027 0 -.07912 3.70533 -104.852 -1619.122)" cx="76.088" cy="485.899" fx="76.088" fy="485.899" r="25.759"/><linearGradient xlink:href="#a" id="g" x1="84.134" y1="508.287" x2="63.138" y2="579.002" gradientUnits="userSpaceOnUse"/><linearGradient xlink:href="#a" id="j" x1="57.218" y1="585.704" x2="82.471" y2="489.426" gradientUnits="userSpaceOnUse"/><linearGradient xlink:href="#a" id="l" x1="66.154" y1="465.594" x2="91.738" y2="561.074" gradientUnits="userSpaceOnUse"/></defs><g color="#000"><path d="M66.598 557.948h6.107v49.157h-6.107z" style="marker:none" fill="url(#b)" overflow="visible" transform="matrix(.9854 0 0 1 -20.162 -349.256)"/><path d="M65.335 568.745h8.632v13.781h-8.632z" style="marker:none" fill="url(#c)" overflow="visible" transform="matrix(.9854 0 0 1 -20.162 -349.256)"/></g><path transform="matrix(-.97524 0 0 .94893 274.59 -318.756)" style="marker:none" d="M86.452 475.064a29.211 29.211 0 0 0-4.218.282c-22.629 3.065-37.013 31.8-32.094 64.187 4.919 32.387 27.278 56.16 49.906 53.094 22.628-3.065 36.981-31.832 32.063-64.219-4.612-30.362-24.54-53.14-45.657-53.344z" color="#000" fill="url(#d)" overflow="visible"/><path d="M268.561 543.572c-5.185 31.215-28.727 54.124-52.581 51.17-23.855-2.955-38.989-30.654-33.803-61.869 5.185-31.214 28.726-54.123 52.581-51.17 23.855 2.955 38.989 30.655 33.803 61.87z" style="marker:none" color="#000" fill="url(#e)" overflow="visible" transform="translate(-30.515 -349.256)"/><path transform="matrix(-.9694 0 0 .94893 274.31 -318.756)" d="M33.845 542.445c4.84 31.825 26.811 55.182 49.075 52.17 22.264-3.012 36.389-31.253 31.549-63.078-4.84-31.825-26.811-55.182-49.075-52.17-22.264 3.012-36.389 31.253-31.55 63.078z" style="marker:none" color="#000" fill="url(#f)" stroke="url(#g)" overflow="visible"/><path transform="matrix(-.9694 0 0 .94893 274.31 -318.756)" d="M67.125 487.656a25.024 25.024 0 0 0-3.594.219c-19.174 2.592-31.324 26.895-27.156 54.281 4.168 27.387 23.076 47.499 42.25 44.907 19.174-2.593 31.356-26.895 27.188-54.282-3.908-25.675-20.795-44.952-38.688-45.125z" style="marker:none" color="#000" fill="url(#h)" overflow="visible"/><path transform="matrix(-.9694 0 0 .94893 274.31 -318.756)" d="M66.531 494.844c-1.005-.01-2.021.08-3.031.219-16.156 2.222-26.418 23.046-22.906 46.53 3.512 23.486 19.468 40.724 35.625 38.5 16.156-2.222 26.387-23.077 22.875-46.562-3.293-22.017-17.486-38.54-32.563-38.687z" style="marker:none" color="#000" fill="url(#i)" stroke="url(#j)" overflow="visible"/><path d="M122.77 518.637c-5.26 30.945-29.147 53.657-53.35 50.728-24.205-2.929-39.56-30.39-34.3-61.334 5.262-30.945 29.148-53.657 53.352-50.728 24.204 2.929 39.56 30.39 34.299 61.334z" style="marker:none" color="#000" fill="url(#k)" stroke="url(#l)" overflow="visible" transform="translate(-30.515 -349.256)"/><path d="M40.865 116.828l-5.276.948 10.84-1.843z" fill="#a7a7a7"/><path d="M97.045 446.964l-2.201 16.567 8.08 1.456-2.263-4.206z" fill="url(#m)" transform="translate(-30.515 -349.256)"/><path d="M150.123 354.946c-10.793 1.811-21.811 2.037-32.248 6.264-18.697 7.095-35.404 27.777-37.62 42.618-3.66 11.707-4.77 17.241-6.135 29.364-.21 3.785-.386 13.83-.143 17.606 1.388 5.113 2.826 11.718 7.537 14.936 5.492 2.601 14.43.038 15.331-6.48 1.326-6.645-.022-20.073-.022-20.073s.855-33.293 5.603-43.604c6.295-14.568 16.199-28.716 31.198-35.662 4.401-2.68 9.683-3.065 14.562-4.495l1.937-.474z" fill="url(#n)" transform="translate(-30.515 -349.256)"/><path d="M68.965 466.093l4.812 3.848 8.08-4.202-7.816-15.12z" fill="url(#o)" transform="translate(-30.515 -349.256)"/><path d="M68.25 449.943l-4.035 15.518 5.195.632 5.076-15.42z" fill="url(#p)" transform="translate(-30.515 -349.256)"/><path d="M239.295 484.901l8.586 1.539-3.82-2.12-1.94-1.403-2.83-11.691z" fill="url(#q)" transform="translate(-30.515 -349.256)"/><path d="M150.104 353.345l-20.156 3.44c11.08-.768 22.325 1.487 31.944 7.01 17.691 9.743 29.643 26.691 39.063 43.822 8.662 17.211 10.81 35.419 13.497 55.402.808 6.966 1.53 10.507 1.823 12.353 2.75 3.5 6.557 8.36 9.308 11.861l13.74-2.342c1.809-27.058-7.821-50.314-15.069-73.296-4.844-12.838-13.056-24.22-21.833-34.754-12.282-13.743-30.008-24.557-49.245-23.539-1.024.004-2.048.016-3.072.043z" fill="url(#r)" transform="translate(-30.515 -349.256)"/><path d="M217.095 491.694l8.839-4.71-9.703-11.865-4.88 15.412z" fill="url(#s)" transform="translate(-30.515 -349.256)"/><path style="marker:none" d="M59.656 109.469c-20.47.194-39.78 21.813-44.25 50.625-4.768 30.732 9.127 58.028 31.063 60.937 21.935 2.909 43.606-19.642 48.375-50.375 4.768-30.732-9.158-57.997-31.094-60.906-1.371-.182-2.73-.294-4.094-.281z" color="#000" fill="url(#t)" overflow="visible"/><path style="marker:none" d="M61.656 119.656c-17.119.162-33.261 18.233-37 42.313-3.987 25.685 7.656 48.475 26 50.906 18.345 2.431 36.45-16.409 40.438-42.094 3.987-25.685-7.656-48.475-26-50.906a24.43 24.43 0 0 0-3.438-.219z" color="#000" fill="url(#u)" overflow="visible"/><path style="marker:none" d="M59.125 125.594c-14.656.139-28.456 15.66-31.656 36.344-3.414 22.062 6.544 41.661 22.25 43.75 15.706 2.088 31.21-14.126 34.625-36.188 3.414-22.062-6.544-41.63-22.25-43.719a21.21 21.21 0 0 0-2.969-.187z" color="#000" fill="url(#v)" overflow="visible"/><path d="M54.053 128.25c-12.504.126-24.291 14.133-27.022 32.769-2.913 19.877 5.595 37.499 18.994 39.38 13.4 1.882 26.623-12.712 29.536-32.59 2.913-19.877-5.595-37.499-18.994-39.38a16.918 16.918 0 0 0-2.514-.178z" style="marker:none" color="#000" overflow="visible"/><path d="M211.73 490.53l4.542-15.177-6.291-1.396-2.887 15.742z" fill="url(#w)" transform="translate(-30.515 -349.256)"/><path d="M129.948 356.785c-18.181 1.854-33.05 14.888-42.6 29.408-7.114 11.8-12.225 24.682-15.755 37.9-2.253 8.435-3.61 19.337-3.343 25.976 2.977 1.182 6.236.73 6.236.73s-.078-11.53.422-15.3c2.127-16.044 3.928-32.688 12.56-46.885 9.574-17.048 27.565-31.154 48.206-30.442 19.24.287 36.462 11.464 48.33 25.657 12.68 15.042 21.477 33.39 24.89 52.611 1.666 12.417 2.104 25.031 1.087 37.517 2.324 1.335 6.29 1.396 6.29 1.396s-.113-1.221-.206-1.827c-2.902-18.866-4.026-38.194-10.97-56.204-5.127-14.279-13.949-27.045-24.041-38.393-12.823-13.933-31.445-24.142-51.106-22.144z" fill="url(#x)" transform="translate(-30.515 -349.256)"/></svg>