<svg xmlns="http://www.w3.org/2000/svg" xmlns:xlink="http://www.w3.org/1999/xlink" viewBox="0 0 512 400" enable-background="new"><defs><linearGradient id="a"><stop offset="0" stop-color="#a4a4a4"/><stop offset=".145" stop-color="#404040"/><stop offset="1"/></linearGradient><filter id="e" height="3.168" width="1.723" color-interpolation-filters="sRGB" y="-1.084" x="-.361"><feGaussianBlur stdDeviation="61.955"/></filter><filter id="d" height="2.045" width="1.549" color-interpolation-filters="sRGB" y="-.523" x="-.275"><feGaussianBlur stdDeviation="70.99"/></filter><filter id="m" height="1.352" width="1.182" color-interpolation-filters="sRGB" y="-.176" x="-.091"><feGaussianBlur stdDeviation="11.871"/></filter><filter id="o" color-interpolation-filters="sRGB"><feGaussianBlur stdDeviation="4.791"/></filter><filter id="r" color-interpolation-filters="sRGB"><feGaussianBlur stdDeviation="3.3"/></filter><filter id="p" color-interpolation-filters="sRGB"><feGaussianBlur stdDeviation="10.22"/></filter><filter id="c" height="2.963" width="2.812" color-interpolation-filters="sRGB" y="-.982" x="-.906"><feGaussianBlur stdDeviation="101.477"/></filter><filter id="n" color-interpolation-filters="sRGB"><feGaussianBlur stdDeviation="5.631"/></filter><filter id="j" color-interpolation-filters="sRGB"><feGaussianBlur stdDeviation="4.227"/></filter><filter id="q" color-interpolation-filters="sRGB"><feGaussianBlur stdDeviation="4.012"/></filter><filter id="s" height="4.202" width="2.919" color-interpolation-filters="sRGB" y="-1.601" x="-.96"><feGaussianBlur stdDeviation="129.734"/></filter><radialGradient id="b" gradientUnits="userSpaceOnUse" cy="527.03" cx="920.19" gradientTransform="matrix(.2762 0 0 .21968 477.7 104.8)" r="1671.4"><stop offset="0" stop-color="#818181"/><stop offset="1" stop-color="#bcbcbc"/></radialGradient><radialGradient id="h" xlink:href="#a" gradientUnits="userSpaceOnUse" cy="-377.6" cx="435.96" gradientTransform="matrix(1.2134 0 0 .56616 140.35 334.47)" r="576.48"/><radialGradient id="i" spreadMethod="reflect" gradientUnits="userSpaceOnUse" cy="1547.7" cx="3492.2" gradientTransform="matrix(.25652 -.06987 .01681 .06174 -239.27 189.46)" r="884.68"><stop offset="0" stop-color="#fff"/><stop offset="1" stop-color="#6a6a6a"/></radialGradient><radialGradient id="k" xlink:href="#a" spreadMethod="reflect" gradientUnits="userSpaceOnUse" cy="-84.03" cx="905.07" gradientTransform="matrix(.04258 -.07375 .04651 .02685 738.04 123)" r="245.39"/><linearGradient id="l" y2="763.89" xlink:href="#a" gradientUnits="userSpaceOnUse" x2="3935.7" gradientTransform="translate(76.558 -141.04) scale(.18484)" y1="579.1" x1="3753.2"/><radialGradient id="u" xlink:href="#a" gradientUnits="userSpaceOnUse" cy="240.66" cx="362.96" gradientTransform="matrix(1.2165 -.70235 .57506 .99604 -209.04 257.42)" r="69.406"/><radialGradient id="g" xlink:href="#a" gradientUnits="userSpaceOnUse" cy="187.85" cx="642.2" gradientTransform="matrix(2.193 0 0 1.2367 -767.64 -43.007)" r="268.62"/><linearGradient id="f" y2="379.02" xlink:href="#a" spreadMethod="reflect" gradientUnits="userSpaceOnUse" x2="630.36" gradientTransform="translate(561.77 130.24) scale(.18484)" y1="728.15" x1="1744.4"/><radialGradient id="t" xlink:href="#a" gradientUnits="userSpaceOnUse" cy="180.67" cx="498.55" gradientTransform="matrix(5.8886 1.5778 -2.5743 9.6075 -1966.7 -2355.4)" r="34.355"/></defs><path d="M466.424 19.046l-4.01 4.33c15.925 14.75 23.86 20.834 26.52 35.312 1.25 6.797-.88 15.01-5.743 19.92-15.952 16.1-43.935 11.48-65.154 19.445-12.267 4.604-26.461 10.242-35.762 16.32-22.157-19.522-54.577-33.597-87.921-36.03-57.18-4.173-155.573 19.616-197.014 54.143-41.438 34.526-88.17 104.456-88.17 157.43 0 52.975 47.422 98.766 89.862 100.995 42.438 2.227 82.653-17.471 97.01-27.267 14.354-9.796 44.767-41.404 85.462-76.784 40.693-35.376 133.776-83.119 129.14-124.535-1.744-15.58-10.542-30.73-23.879-43.792 9.179-5.987 21.09-10.465 32.08-14.63 22.251-8.436 51.572-3.923 68.27-20.88 6.32-6.418 9.098-17.095 7.5-25.96-2.799-15.525-11.857-22.895-28.184-38.018z" color="#000" fill-opacity=".503" enable-background="accumulate"/><path d="M944.55 81.758c7.08 65.922-134.96 141.89-197.05 198.19-62.09 56.31-112.71 101.34-134.61 116.93-21.903 15.59-79.9 45.18-144.65 41.636-64.755-3.544-141.33-69.389-141.33-153.7 0-84.309 76.363-195.6 139.59-250.55 63.23-54.949 213.37-92.811 300.62-86.17 87.25 6.64 170.37 67.74 177.44 133.66z" color="#000" enable-background="accumulate" fill="url(#b)" transform="translate(-198.4 107.708) scale(.63864)"/><path d="M3375.6 1560.9c-105.11-.27-287.59 58.034-479.84 159.75-273.43 144.66-463.13 322.38-423.69 396.94 39.445 74.557 293.1 17.725 566.53-126.94s463.13-322.38 423.69-396.94c-11.71-22.134-42.308-32.699-86.688-32.812z" transform="matrix(.11805 0 0 .11805 -149.507 17.634)" color="#000" fill-opacity=".32" filter="url(#c)" enable-background="accumulate" fill="#fff"/><path d="M497.29 813.74c-180.87 84.438-330.56 145.69-301.61 207.7 28.95 62.011 157.13-60.781 338-145.22 457.82-194.04 284.14-217.18-36.39-62.485z" transform="matrix(.11805 0 0 .11805 160.369 190.884)" color="#000" filter="url(#d)" enable-background="accumulate" fill="#fff"/><path transform="matrix(.2074 0 0 .21332 399.578 -80.736)" d="M-62.857 1172.4c0 37.871-92.101 68.571-205.71 68.571s-205.71-30.7-205.71-68.571 92.101-68.571 205.71-68.571 205.71 30.7 205.71 68.571z" color="#000" filter="url(#e)" enable-background="accumulate" fill="#fff"/><path d="M944.59 91.015c-10.804 24.309-57.27 42.419-86.194 54.136-33.607 13.613-98.239 50.419-126.54 75.427-28.302 25.008-78.543 88.463-98.209 128.74-9.758 19.986-20.895 37.723-29.644 53.379 3.401-2.076 6.381-4.035 8.884-5.817 21.903-15.59 72.525-60.628 134.62-116.93 59.205-53.684 191.08-125.25 197.09-188.94z" color="#000" enable-background="accumulate" fill="url(#f)" transform="translate(-198.4 107.708) scale(.63864)"/><path d="M-62.857 1172.4c0 37.871-92.101 68.571-205.71 68.571s-205.71-30.7-205.71-68.571 92.101-68.571 205.71-68.571 205.71 30.7 205.71 68.571z" transform="matrix(.17648 0 0 .18153 172.19 91.987)" color="#000" filter="url(#e)" enable-background="accumulate" fill="#fff"/><path d="M1967.1 2566.1c-224.11-185.33-246.43-836.92-246.43-836.92s-172.37 450.8-117.11 671.04c56.896 226.75 210.34 479.26 432.48 552.13 330.89 108.54 1034.6-138.87 1006.2-281.08-31.166-156.29-797.64 124.31-1075.1-105.17z" transform="matrix(.1312 0 0 .1312 -189.458 -10.39)" color="#000" filter="url(#e)" enable-background="accumulate" fill="#4d4d4d"/><path d="M463.423 11.273l-3.678 4.615c22.487 17.92 29.295 23.184 32.06 40.063.663 4.043-1.704 8.31-4.216 11.546-3.51 4.526-9.036 7.18-14.17 9.721-31.06 15.377-68.915 18.473-98.759 32.515l2.513 5.341c28.426-13.373 67.766-17.069 98.797-32.533 5.822-2.9 12.076-5.96 16.033-11.122 3.425-4.47 6.573-10.346 5.688-15.907-2.931-18.42-11.297-25.934-34.267-44.238z" style="block-progression:tb;text-indent:0;text-transform:none" color="#000" enable-background="accumulate"/><path d="M101.57 128.267c-33.35 23.518-58.679 61.29-69.88 100.528-5.15 18.04-10.175 42.74 2.888 56.206 11.052 11.393 31.823 6.62 47.458 3.884 57.462-10.05 106.13-48.45 159.22-72.632 36.718-16.726 43.707-16.436 65.058-25.855 30.82-13.597 91.734-24.522 90.878-44.2-1.43-32.925-59.125-69.734-98.005-71.548-74.887-3.489-141.83 14.285-197.615 53.616z" fill="#4d4d4d"/><path d="M481.8 22.481c-46.807 31.835-82.671 83.978-98.521 138.32-7.461 25.582-14.452 60.712 4.103 79.839 15.699 16.183 45.155 9.103 67.415 5.518 83.864-13.506 155.98-67.342 234.62-99.476 33.621-13.74 68.409-24.69 101.39-39.895 41.822-19.28 123.18-36.948 121.96-64.902-2.031-46.77-77.107-90.75-132.34-93.324-106.38-4.958-213.84 16.247-298.63 73.919z" fill="url(#g)" transform="translate(-198.4 107.708) scale(.63864)"/><path d="M280.056 75.438c-17.472.04-34.481 1.263-50.982 3.672a343.964 343.964 0 0 0-17.862 2.943c-1.895 4.912-3.292 12.703-6.13 13.694-36.566 12.758-106.647 55.302-82.947 76.01 11.891 10.391 37.232 3.206 65.064-6.015 42.604-14.118 68.22-22.239 85.853-24.123 12.743-1.361 43.497 15.443 61.646 23.252-10.208 3.566-20.222 7.033-28.055 10.584-21.064 9.552-43.28 16.432-64.751 25.062-50.218 20.185-96.275 54.003-149.838 62.486-14.216 2.252-33.028 6.7-43.054-3.465-11.85-12.015-7.384-34.083-2.62-50.153 8.512-28.704 26.06-56.429 49.201-76.413-30.388 23.283-53.369 58.254-63.89 94.506-5.149 17.743-10.174 42.04 2.889 55.284 11.052 11.205 31.823 6.51 47.459 3.82 57.461-9.885 106.129-47.653 159.219-71.438 36.719-16.451 43.708-16.167 65.058-25.432 30.82-13.367 91.734-24.114 90.879-43.47-.811-18.305-19.326-38.273-42.796-51.673-11.301-6.452-30.093-14.79-43.626-17.282-3.989-.764-7.872-1.248-11.583-1.419a398.244 398.244 0 0 0-19.128-.42z" color="#000" enable-background="accumulate"/><path d="M740.05 30.077c-14.805 19.387-44.969 15.145-126.25 42.525-32.748 11.032-64.485 11.586-78.295-1.048-24.288-22.221 54.331-69.32 93.695-83.445 25.516-9.156 57.21-9.364 81.265 3.135 14.439 7.502 44.385 19.446 29.58 38.832z" color="#000" enable-background="accumulate" fill="url(#h)" transform="translate(-198.4 107.708) scale(.63864)"/><path d="M225.964 97.48a69.641 69.641 0 0 0-5.433.291 382.74 382.74 0 0 1 13.365 4.423c5.16 1.823 10.447 3.844 15.863 6.165a206.558 206.558 0 0 1 18.023 8.754 194.565 194.565 0 0 1 5.636 3.216c-.089-1.661-.724-3.21-1.733-4.65a186.854 186.854 0 0 0-13.915-6.804 213.444 213.444 0 0 0-7.46-3.114 249.238 249.238 0 0 0-10.58-3.897 317.631 317.631 0 0 0-9-2.939 375.711 375.711 0 0 0-4.766-1.445zm6.365.21c1.736.504 3.49 1.024 5.257 1.568a258.532 258.532 0 0 1 13.18 4.423 205.19 205.19 0 0 1 10.763 4.292c.646.28 1.296.566 1.946.856-3.628-2.155-7.548-3.95-10.44-5.453-6.269-3.257-13.392-5.09-20.706-5.685zm-15.488.52c-1.28.187-2.549.41-3.808.666 5.59 1.934 11.359 4.024 17.29 6.386 5.975 2.381 12.117 5.038 18.422 8.12a222.248 222.248 0 0 1 22.79 12.821c.685-1.012 1.17-1.99 1.476-2.935a204.893 204.893 0 0 0-7.407-4.38 214.59 214.59 0 0 0-16.304-8.28c-5.827-2.659-11.511-4.958-17.048-7.029-5.273-1.97-10.41-3.732-15.41-5.369zm-6.548 1.35c-1.031.289-2.053.572-3.068.863 6.321 2.41 12.869 5.033 19.622 8.024 6.753 2.99 13.713 6.35 20.863 10.259a249.84 249.84 0 0 1 19.612 11.92c.901-.687 1.728-1.435 2.494-2.265a233.522 233.522 0 0 0-21.541-12.588c-6.693-3.45-13.214-6.42-19.55-9.073-6.334-2.652-12.484-4.985-18.43-7.14zm-5.58 1.589c-.206.06-.408.122-.613.182-.135.047-.27.092-.404.14-.557.2-1.132.417-1.715.639.274.113 1.81.745 4.479 1.886a409.149 409.149 0 0 1 11.531 5.138 341.643 341.643 0 0 1 7.134 3.416 312.739 312.739 0 0 1 7.432 3.791 286.59 286.59 0 0 1 28.937 17.508l.28-.063a30.356 30.356 0 0 0 3.094-1.536l-.495-.337a265.07 265.07 0 0 0-23.933-14.446 284.358 284.358 0 0 0-7.105-3.668 325.471 325.471 0 0 0-13.75-6.443 408.03 408.03 0 0 0-10.62-4.496c-2.659-1.083-4.251-1.711-4.251-1.711zm-4.888 1.802c-.817.33-1.65.678-2.501 1.042a439.538 439.538 0 0 1 11.812 5.538 367.593 367.593 0 0 1 12.485 6.376 332.634 332.634 0 0 1 12.941 7.315 326.948 326.948 0 0 1 10.991 6.853 329.39 329.39 0 0 1 8.302 5.594c1.353-.337 2.743-.667 4.124-.996 0 0-1.206-.841-3.283-2.238a306.76 306.76 0 0 0-14.606-9.23 305.176 305.176 0 0 0-6.71-3.859 313.97 313.97 0 0 0-7.017-3.801 334.547 334.547 0 0 0-6.965-3.556 387.527 387.527 0 0 0-12.212-5.78 471.15 471.15 0 0 0-7.15-3.167l-.211-.091zm-4.521 1.922c-.778.346-1.569.706-2.367 1.077l.69.337c1.394.68 3.385 1.663 5.777 2.872a404.724 404.724 0 0 1 11.787 6.2 367.447 367.447 0 0 1 13.27 7.642 365.326 365.326 0 0 1 19.978 13.001c1.394.972 2.181 1.533 2.181 1.533 1.287-.342 2.596-.686 3.91-1.024 0 0-.518-.366-1.462-1.02s-2.314-1.598-4.016-2.743a348.592 348.592 0 0 0-9.812-6.366 343.763 343.763 0 0 0-12.437-7.4 363.467 363.467 0 0 0-12.744-6.88 419.584 419.584 0 0 0-10.43-5.177 456.15 456.15 0 0 0-4.325-2.051zm-4.314 1.989c-.75.358-1.504.73-2.265 1.108.449.233.775.405 1.353.708a446.12 446.12 0 0 1 8.905 4.798 401.436 401.436 0 0 1 13.421 7.775c4.652 2.822 9.274 5.776 13.335 8.47s7.56 5.123 10.04 6.874c2.482 1.75 3.953 2.82 3.953 2.82 1.225-.344 2.473-.687 3.724-1.028 0 0-.418-.3-1.185-.842a397.509 397.509 0 0 0-14.488-9.795 373.049 373.049 0 0 0-14.568-8.915 382.96 382.96 0 0 0-14-7.744 458.959 458.959 0 0 0-7.232-3.732l-.993-.498zm-4.135 2.044a198.8 198.8 0 0 0-2.188 1.133c.612.34 1.307.726 2.08 1.158a435.754 435.754 0 0 1 11.811 6.852 413.562 413.562 0 0 1 12.06 7.555 439.485 439.485 0 0 1 11.224 7.561 497.627 497.627 0 0 1 11.331 8.13c1.167-.342 2.355-.684 3.546-1.025 0 0-1.324-.969-3.574-2.577a457.527 457.527 0 0 0-9.157-6.383 415.074 415.074 0 0 0-12.357-8.066 399.936 399.936 0 0 0-12.843-7.716 450.62 450.62 0 0 0-10.25-5.716c-.626-.337-1.182-.638-1.68-.905zm-3.99 2.09c-.71.381-1.42.765-2.13 1.158a430.738 430.738 0 0 1 9.574 5.752 429.373 429.373 0 0 1 7.829 4.962 443.905 443.905 0 0 1 10.468 7.021 500.18 500.18 0 0 1 9.262 6.562c2.716 1.97 4.976 3.65 6.559 4.833a664.975 664.975 0 0 1 2.451 1.838l.968-.25a585.73 585.73 0 0 1 2.452-.736s-1.045-.78-2.845-2.104-4.362-3.193-7.414-5.359a463.719 463.719 0 0 0-10.314-7.12 426.39 426.39 0 0 0-18.472-11.682 434.3 434.3 0 0 0-8.39-4.874zm-3.866 2.13c-.685.387-1.371.777-2.055 1.174 1.104.678 2.364 1.462 3.784 2.354a432.908 432.908 0 0 1 8.018 5.155 453.04 453.04 0 0 1 8.985 6.085 494.607 494.607 0 0 1 8.75 6.225 586.61 586.61 0 0 1 7.432 5.503 707.591 707.591 0 0 1 6.75 5.141c1.144-.31 2.262-.61 3.357-.898a754.408 754.408 0 0 0-7.95-5.962 532.902 532.902 0 0 0-8.418-6.092 437.948 437.948 0 0 0-18.083-12.166 432.093 432.093 0 0 0-10.57-6.52zm-3.735 2.167c-.665.396-1.328.796-1.988 1.2a421.737 421.737 0 0 1 14.147 9.479 502.691 502.691 0 0 1 9.943 7.137 586.168 586.168 0 0 1 6.955 5.204c2.144 1.629 4.078 3.118 5.702 4.377s2.941 2.289 3.85 3.002l.906.712c1.074-.307 2.127-.606 3.163-.894l-1.28-.993c-1.077-.835-2.628-2.033-4.531-3.486s-4.157-3.159-6.632-4.997a529.054 529.054 0 0 0-7.94-5.79 472.99 472.99 0 0 0-9.448-6.577 437.329 437.329 0 0 0-8.61-5.688 418.606 418.606 0 0 0-4.237-2.687zm-3.612 2.202c-.645.404-1.285.814-1.922 1.224 1.75 1.17 3.806 2.56 6.07 4.132a474.058 474.058 0 0 1 10.641 7.61 589.84 589.84 0 0 1 10.626 8.025 817.937 817.937 0 0 1 9.154 7.183c1.492 1.185 2.393 1.905 2.974 2.37 1.017-.305 2.014-.599 2.999-.887-.205-.162-.221-.178-.621-.494a1010.73 1010.73 0 0 0-8.238-6.453 649.039 649.039 0 0 0-6.117-4.665 535.928 535.928 0 0 0-10.29-7.568 455.912 455.912 0 0 0-9.918-6.91 427.747 427.747 0 0 0-5.358-3.566zm-3.49 2.245c-.622.411-1.24.825-1.851 1.241a448.378 448.378 0 0 1 13.604 9.827 557.424 557.424 0 0 1 6.056 4.605 762.298 762.298 0 0 1 10.897 8.582c2.344 1.878 4.3 3.458 5.667 4.566l1.365 1.105c.961-.301 1.909-.597 2.844-.884-.392-.316-.82-.663-2.217-1.785a961.992 961.992 0 0 0-7.564-6.018 654.346 654.346 0 0 0-10.816-8.336 495.453 495.453 0 0 0-11.244-8.22 435.144 435.144 0 0 0-6.741-4.683zm-3.36 2.283c-.602.422-1.197.844-1.785 1.27.105.074.192.134.298.21 1.65 1.185 3.503 2.536 5.475 3.998s4.059 3.036 6.18 4.661a679.009 679.009 0 0 1 12.453 9.799 1088.3 1088.3 0 0 1 5.306 4.3 1813.097 1813.097 0 0 1 6.127 5.014c.916-.298 1.818-.588 2.711-.873l-.673-.55c-.968-.79-2.36-1.929-4.068-3.315a916.044 916.044 0 0 0-10.781-8.624 614.67 614.67 0 0 0-6.317-4.903 514.366 514.366 0 0 0-6.305-4.752 428.432 428.432 0 0 0-8.62-6.236zm-3.244 2.34c-.575.428-1.14.86-1.697 1.29a483.567 483.567 0 0 1 7.372 5.555 567.649 567.649 0 0 1 6.41 5.008 738.008 738.008 0 0 1 6.384 5.114c2.063 1.672 4.035 3.285 5.828 4.759 1.793 1.474 3.407 2.809 4.763 3.931 2.123 1.757 2.89 2.394 3.437 2.848.097-.032.194-.062.291-.095.772-.26 1.537-.517 2.294-.768-1.225-1.01-3.62-2.99-6.804-5.597a900.529 900.529 0 0 0-11.658-9.406 589.957 589.957 0 0 0-6.38-4.98 495.943 495.943 0 0 0-6.084-4.605 434.74 434.74 0 0 0-4.156-3.055zm-3.09 2.38c-.551.442-1.094.884-1.623 1.326a484.254 484.254 0 0 1 4.605 3.528 566.8 566.8 0 0 1 5.537 4.356 844.383 844.383 0 0 1 11.146 9.055c3.484 2.876 6.572 5.455 8.785 7.299l2.427 2.02c.853-.243 1.71-.5 2.567-.768l-2.974-2.47a1644.542 1644.542 0 0 0-9.708-8.013 729.37 729.37 0 0 0-12.018-9.64 516.098 516.098 0 0 0-8.744-6.692zm-2.942 2.448c-.523.455-1.033.91-1.529 1.365.789.61 1.606 1.248 2.452 1.911a653.568 653.568 0 0 1 9.823 7.87c3.363 2.745 6.694 5.51 9.638 7.965 2.944 2.454 5.503 4.596 7.323 6.116l1.364 1.14c.86-.202 1.72-.414 2.588-.642l-1.953-1.63c-2.025-1.69-4.858-4.062-8.087-6.742a978.852 978.852 0 0 0-10.448-8.56 581.92 581.92 0 0 0-10.258-8.095l-.912-.698zm-2.767 2.533c-.492.474-.969.945-1.427 1.417a601.36 601.36 0 0 1 5.218 4.162 887.52 887.52 0 0 1 8.831 7.236c2.923 2.423 5.74 4.782 8.197 6.838 2.457 2.057 4.554 3.811 6.035 5.047l.169.14a93.93 93.93 0 0 0 2.634-.519l-.842-.701c-1.66-1.387-3.999-3.348-6.716-5.619a1549.054 1549.054 0 0 0-8.978-7.456 735.955 735.955 0 0 0-9.399-7.614 540.429 540.429 0 0 0-3.72-2.932zm-2.564 2.626c-.454.5-.89.996-1.3 1.491.27.217.537.427.813.649a783.317 783.317 0 0 1 7.073 5.762c2.584 2.127 5.199 4.298 7.667 6.358 2.468 2.06 4.79 4.006 6.793 5.678a2043.39 2043.39 0 0 0 3.626 3.02c.891-.108 1.792-.23 2.7-.372a3059.732 3059.732 0 0 1-5.057-4.222c-2.247-1.88-4.836-4.051-7.554-6.313-2.718-2.262-5.563-4.61-8.322-6.86a668.315 668.315 0 0 0-6.422-5.176l-.017-.014zm-2.318 2.775c-.404.534-.78 1.066-1.126 1.592.735.595 1.482 1.201 2.245 1.824a1250.27 1250.27 0 0 1 8.203 6.761c4.39 3.647 8.615 7.176 11.75 9.771l.824.68a70.779 70.779 0 0 0 2.812-.2c-.717-.594-1.514-1.258-2.392-1.988-3.606-3.001-8.41-7.03-13.246-11.03a936.799 936.799 0 0 0-7.6-6.229c-.497-.402-.986-.793-1.469-1.181zm-1.974 2.98c-.335.595-.629 1.181-.877 1.761 1.185.967 2.392 1.955 3.623 2.967 3.085 2.539 6.258 5.171 9.203 7.61 2.423 2.008 4.561 3.773 6.488 5.356.985.039 1.994.05 3.023.035-2.687-2.215-6.168-5.107-9.901-8.206a1744.975 1744.975 0 0 0-8.68-7.172 885.53 885.53 0 0 0-2.88-2.35zm-1.449 3.343c-.209.719-.34 1.426-.392 2.115 1.584 1.296 3.198 2.621 4.808 3.945 3.269 2.689 6.492 5.34 9.311 7.642a41.33 41.33 0 0 0 3.5.477c-1.086-.89-2.21-1.81-3.44-2.823-2.985-2.458-6.304-5.21-9.582-7.908-1.42-1.17-2.827-2.322-4.205-3.448zm-.284 4.205c.31 1.622 1.158 3.128 2.638 4.482 2.063 1.887 4.785 3.29 8.013 4.233a2554.277 2554.277 0 0 1-5.548-4.535c-1.69-1.385-3.407-2.793-5.103-4.18z" style="block-progression:tb;text-indent:0;text-transform:none" color="#000" enable-background="accumulate"/><path d="M788.39-38.598c-63.246 8.814-125.58 29.486-182.34 58.741-18.768 9.673-57.775 26.065-50.803 37.835 7.749 13.08 26.583 10.314 62.846-7.954 15.516-7.816 59.698-23.973 90.935-31.063 38.044-8.635 102.46-9.248 116.23-13.686 15.11-4.87 40.885-9.951 56.215-15.481-10.99-9.29-24.092-17.518-37.985-24.139-17.804-4.623-38.84-6.374-55.097-4.253z" color="#000" enable-background="accumulate" fill="url(#i)" transform="translate(-198.4 107.708) scale(.63864)"/><path d="M1425.4-876.12c-32.41 0-89.365 2.565-126.34 4.406-51.862 1.79-111.66 5.156-111.66 5.156s101.7 7 140.75 7c81.766 0 148.06 36.112 148.06 80.656 0 16.986-9.634 32.752-26.094 45.75 28.968-14.722 47.094-35.715 47.094-59 0-30.04-30.13-56.244-74.844-70.125 73.286 4.835 130.09 38.835 130.09 80.062 0 16.986-9.634 32.752-26.094 45.75 28.968-14.722 47.094-35.715 47.094-59 0-44.544-66.296-80.656-148.06-80.656z" transform="matrix(.11805 0 0 .11805 160.369 190.884)" color="#000" fill-opacity=".76" filter="url(#j)" enable-background="accumulate" fill="#fff"/><path d="M778.67-1.407c-14.396 2.594-39.183-13.479-37.872-16.982.575-1.535 26.121-17.56 42.382-17.56 26.472-2.981 59.258 26.024 44.7 27.275-12.623 1.085-33.275 4.396-49.21 7.268z" color="#000" enable-background="accumulate" fill="url(#k)" transform="translate(-198.4 107.708) scale(.63864)"/><path d="M794.47-20.766c-10.541 1.64-21.933 11.044-25.89 18.815 3.597.81 7.077 1.087 10.097.543 15.935-2.872 36.633-5.72 49.208-7.267.74-.09 1.374-.223 1.912-.398-9.7-12.494-23.08-13.6-35.33-11.692z" color="#000" enable-background="accumulate" fill="url(#l)" transform="translate(-198.4 107.708) scale(.63864)"/><path d="M2353.3 2038.7l1083.5-504.16c-202.32 57.253-890.29 411.88-1083.5 504.16z" transform="matrix(.11805 0 0 .11805 -149.507 17.634)" color="#000" filter="url(#m)" enable-background="accumulate" fill="#fff"/><path d="M315.411 83.4c-3.275.003-6.422.183-9.33.55a348.971 348.971 0 0 0-26.76 4.677 335.616 335.616 0 0 1 22.987-3.919c9.977-1.257 22.887-.221 33.814 2.518 8.526 3.923 16.566 8.798 23.31 14.302-9.406 3.276-25.225 6.29-34.498 9.175-8.45 2.629-47.981 2.99-71.33 8.106-19.17 4.2-46.284 13.774-55.806 18.405-22.254 10.823-33.815 12.463-38.57 4.713-1.329-2.165.064-4.596 2.96-7.089-3.863 2.95-5.938 5.853-4.374 8.402 4.928 8.03 16.905 6.332 39.966-4.884 9.867-4.798 37.965-14.719 57.83-19.071 24.198-5.302 65.16-5.677 73.916-8.402 9.611-2.99 26.005-6.11 35.75-9.504-6.986-5.703-15.32-10.755-24.153-14.82-8.137-2.04-17.336-3.169-25.706-3.16z" color="#000" enable-background="accumulate" fill="gray"/><path d="M3638.9 489.69c-148.01.33-292.1 10.713-431.88 31.125-50.789 7.01-101.25 15.288-151.31 24.906-16.057 41.612-27.885 107.61-51.938 116-309.75 108.08-903.4 468.49-702.66 643.91 37.031 32.358 89.475 44.563 152.69 43.219-54.307-1.472-99.635-14.336-132.69-43.219-200.74-175.42 392.91-535.83 702.66-643.91 24.053-8.393 35.88-74.388 51.938-116 50.062-9.618 100.52-17.896 151.31-24.906 138.16-20.177 280.54-30.538 426.75-31.094-4.96-.011-9.924-.042-14.875-.031z" transform="matrix(.11805 0 0 .11805 -149.507 17.634)" color="#000" filter="url(#n)" enable-background="accumulate" fill="#4d4d4d"/><path d="M2076.2 977.03c-257.42 197.23-452.09 493.48-541.22 800.59-43.621 150.31-86.187 356.12 24.469 468.31 47.601 48.262 116.5 61.69 190.12 60.25-66.01-1.306-126.86-16.385-170.12-60.25-110.66-112.19-68.09-318-24.469-468.31 67.458-232.45 195.39-458.66 365.22-640.44 47.661-57.859 99.891-111.7 156-160.16z" transform="matrix(.11805 0 0 .11805 -149.507 17.634)" color="#000" filter="url(#o)" enable-background="accumulate" fill="#fff"/><path d="M1964.3-297.93c-100.4 127.65-520.8 209.4-748 308.01-180.9 78.483-240.06 76.078-551.11 215.44C215.49 427-196.8 746.93-683.61 830.67c-65.108 11.201-140.72 26.483-211.91 27.875 76.836 1.52 160.66-15.618 231.91-27.875C-176.8 746.93 235.49 427 685.19 225.52 996.24 86.16 1055.45 88.57 1236.31 10.08c226.76-98.398 645.81-180.02 747.33-307.21 15.368-19.253 13.454-39.7 13.454-39.7s-17.862 19.881-32.816 38.894z" transform="matrix(.11805 0 0 .11805 160.369 190.884)" color="#000" filter="url(#p)" enable-background="accumulate" fill="#fff"/><path d="M-548.84-490.61c-62.584 47.95-121.45 101.77-176 160.16C-843.7-186.16-934.16-16.82-985.62 156.74c-40.365 136.13-78.197 323.07 22.188 424.84 42.999 43.596 105.09 55.448 171.53 54.062-58.803-1.33-112.87-14.869-151.53-54.062-100.38-101.78-62.552-288.71-22.188-424.84 72.098-243.15 220.75-478.03 416.78-647.34z" transform="matrix(.11805 0 0 .11805 160.369 190.884)" color="#000" filter="url(#q)" enable-background="accumulate" fill="#4d4d4d"/><path d="M122.88-217.88c-135.77 44.986-263.85 83.679-362.93 85.854 101.33 2.664 236.91-38.057 381.16-85.854 108.8-36.051 285.87-92.895 285.87-92.895s-126.46 34.11-304.1 92.895z" transform="matrix(.09742 0 0 .0926 159.685 186.682)" color="#000" filter="url(#r)" enable-background="accumulate" fill="#fff"/><path d="M215.62 222.61c-89.592 0-162.22 43.544-162.22 97.25s72.626 97.25 162.22 97.25c89.592 0 162.22-43.544 162.22-97.25s-72.626-97.25-162.22-97.25z" transform="matrix(.22203 0 0 .22203 137.946 157.622)" color="#000" fill-opacity=".423" filter="url(#s)" enable-background="accumulate" fill="#fff"/><path d="M76.036 185.252c-1.076.008-2.177.06-3.301.158-7.563.658-14.744 4.362-21.127 9.92a160.464 160.464 0 0 0-5.231 15.073c-4.765 16.338-9.231 38.774 2.62 50.989 10.025 10.335 28.837 5.812 43.053 3.523 9.257-1.49 18.29-3.753 27.158-6.578.316-2.18.48-4.407.48-6.673 0-24.981-10.29-66.674-43.652-66.412z" color="#000" fill-opacity=".76" enable-background="accumulate"/><path d="M429.72 121.42l-.358.006c51.054.828 66.86 65.243 66.86 103.99 0 2.741-.158 5.447-.455 8.11.64-.197 1.278-.394 1.917-.595.256-2.47.387-4.978.387-7.515 0-39.117-16.113-104.4-68.35-103.99z" color="#000" enable-background="accumulate" fill="url(#t)" transform="translate(-198.4 107.708) scale(.63864)"/><path d="M379.34 208.78c-46.616 7.408-116.8 67.876-138.81 113.66 14.814-12.95 32.86-29.183 52.75-47.219 21.468-19.466 57.88-42.62 86.062-66.438z" transform="matrix(.99998 0 0 .99998 -14.28 11.273)" color="#000" enable-background="accumulate" fill="url(#u)"/></svg>