<svg viewBox="0 0 256 260.1" xmlns="http://www.w3.org/2000/svg" xmlns:xlink="http://www.w3.org/1999/xlink"><defs><linearGradient id="d"><stop offset="0"/><stop offset=".857"/><stop stop-color="#3e3e3e" offset=".936"/><stop offset="1"/></linearGradient><linearGradient id="c"><stop stop-color="#eee" offset="0"/><stop stop-color="#666" offset="1"/></linearGradient><linearGradient id="a"><stop stop-color="#fff" stop-opacity=".302" offset="0"/><stop stop-color="#fff" stop-opacity="0" offset="1"/></linearGradient><linearGradient id="b"><stop stop-color="#63585c" offset="0"/><stop stop-color="#2d2829" offset="1"/></linearGradient><radialGradient id="n" cx="390" cy="582.36" r="24.26" gradientTransform="matrix(1 0 0 .73288 0 155.56)" gradientUnits="userSpaceOnUse" xlink:href="#a"/><filter id="o" x="-.173" y="-.245" width="1.346" height="1.489" color-interpolation-filters="sRGB"><feGaussianBlur stdDeviation="2.884"/></filter><radialGradient id="m" cx="235" cy="195" r="65" gradientTransform="translate(190.75 141.98) scale(.28402)" gradientUnits="userSpaceOnUse" xlink:href="#b"/><radialGradient id="l" cx="235" cy="195" r="65" gradientTransform="matrix(0 -.45556 -.45556 0 346.33 304.42)" gradientUnits="userSpaceOnUse" xlink:href="#b"/><radialGradient id="k" cx="260" cy="238.85" r="54.281" gradientTransform="matrix(1 0 0 .69142 0 67.214)" gradientUnits="userSpaceOnUse" xlink:href="#a"/><radialGradient id="j" cx="260" cy="117.98" r="54.281" gradientTransform="matrix(1 0 0 .69142 0 90.79)" gradientUnits="userSpaceOnUse"><stop stop-opacity=".302" offset="0"/><stop stop-color="#22002b" stop-opacity="0" offset="1"/></radialGradient><radialGradient id="i" cx="235" cy="195" r="65" gradientTransform="translate(47.808 23.351) scale(.89231)" gradientUnits="userSpaceOnUse"><stop stop-color="#121112" offset="0"/><stop stop-color="#2e2b2c" offset=".167"/><stop stop-color="#4b4546" offset=".417"/><stop stop-color="#382f2e" offset="1"/></radialGradient><radialGradient id="f" cx="257.5" cy="197.35" r="82.822" gradientTransform="matrix(.38821 -.10402 .10404 .38827 137 147.51)" gradientUnits="userSpaceOnUse" xlink:href="#c" spreadMethod="reflect"/><linearGradient id="e" x1="127.88" x2="252.12" y1="120" y2="120" gradientTransform="translate(4.167 39.286) scale(1.3333)" gradientUnits="userSpaceOnUse" xlink:href="#d"/><radialGradient id="h" cx="235" cy="195" r="65" gradientTransform="matrix(1.0691 0 0 -1.0691 6.266 405.82)" gradientUnits="userSpaceOnUse" xlink:href="#d"/><radialGradient id="g" cx="235" cy="195" r="65" gradientTransform="matrix(1.1634 0 0 -1.1634 -15.905 424.22)" gradientUnits="userSpaceOnUse" xlink:href="#d"/><radialGradient id="q" cx=".818" cy="-501.48" r="2.5" gradientTransform="scale(1.8906 -1.8906) rotate(30 -652.886 -131.19)" gradientUnits="userSpaceOnUse" xlink:href="#c"/><radialGradient id="p" cx="210" cy="-50" r="10" gradientTransform="scale(.56719 -.56719) rotate(-60 -41.7 -333.807)" gradientUnits="userSpaceOnUse" xlink:href="#c"/><radialGradient id="s" cx="289.09" cy="215.5" r="4.347" gradientTransform="matrix(0 -1 .9998 0 7.542 419.46)" gradientUnits="userSpaceOnUse" xlink:href="#c"/><radialGradient id="r" cx="210" cy="-50" r="10" gradientTransform="scale(.56719) rotate(-60 538.618 -70.378)" gradientUnits="userSpaceOnUse" xlink:href="#c"/><radialGradient id="u" cx="3.649" cy="-498.72" r="2.5" gradientTransform="rotate(30 -1899.59 210.147) scale(1.8906)" gradientUnits="userSpaceOnUse" xlink:href="#c"/><radialGradient id="t" cx="210" cy="-50" r="10" gradientTransform="matrix(.28359 -.4912 .4912 .28359 292.1 278.86)" gradientUnits="userSpaceOnUse" xlink:href="#c"/><radialGradient id="w" cx="3.339" cy="-501.67" r="2.5" gradientTransform="rotate(120 -201.694 -256.007) scale(1.8906)" gradientUnits="userSpaceOnUse" xlink:href="#c"/><radialGradient id="v" cx="210" cy="-50" r="10" gradientTransform="scale(.56719) rotate(30 -609.77 779.944)" gradientUnits="userSpaceOnUse" xlink:href="#c"/><radialGradient id="y" cx="233.69" cy="197.36" r="73.343" gradientTransform="matrix(0 -1.0691 -1.0086 0 454.19 449.36)" gradientUnits="userSpaceOnUse" xlink:href="#a"/><radialGradient id="x" cx="233.07" cy="197.36" r="73.343" gradientTransform="matrix(0 1.0691 -1.0086 0 454.19 -57.95)" gradientUnits="userSpaceOnUse" xlink:href="#a"/></defs><g color="#000"><path d="M238.66 116.44c-1.095-.006-2.161.012-3.219.031-7.69.137-14.259.974-17.938 2.813-11.77 5.885-33.057 41.766-37.219 54.25s-8.666 53.98-2.781 65.75 41.766 33.057 54.25 37.219 53.98 8.666 65.75 2.78 33.057-41.765 37.219-54.25 8.666-53.98 2.781-65.75-41.766-33.056-54.25-37.218c-8.046-2.682-28.17-5.53-44.594-5.625zm-16.156 7.844a5 5 0 1 1 0 10 5 5 0 0 1 0-10zm105 35a5 5 0 1 1 0 10 5 5 0 0 1 0-10zm-140 70a5 5 0 1 1 0 10 5 5 0 0 1 0-10zm105 35a5 5 0 1 1 0 10 5 5 0 0 1 0-10z" fill="url(#e)" transform="matrix(-1.5455 0 0 1.5455 525.96 -175.89)"/><path d="M157.111.003c1.692-.009 3.34.02 4.975.049 11.884.211 22.037 1.504 27.723 4.346 18.19 9.096 51.09 64.55 57.522 83.844s13.394 83.426 4.298 101.616-64.55 51.09-83.843 57.522-83.426 13.394-101.617 4.299-51.09-64.55-57.522-83.844S-4.747 84.41 4.35 66.22s64.55-51.09 83.843-57.522C100.628 4.55 131.73.15 157.112.003zm24.97 12.123a7.728 7.728 0 1 0 0 15.455 7.728 7.728 0 0 0 0-15.455zM19.802 66.218a7.728 7.728 0 1 0 0 15.456 7.728 7.728 0 0 0 0-15.456zm216.37 108.185a7.728 7.728 0 1 0 0 15.456 7.728 7.728 0 0 0 0-15.456zM73.895 228.496a7.728 7.728 0 1 0 0 15.455 7.728 7.728 0 0 0 0-15.455z" fill="#fff"/><path d="M238.66 114.52c-1.095-.006-2.161.012-3.219.031-7.69.137-14.259.974-17.938 2.813-11.77 5.885-33.057 41.766-37.219 54.25s-8.666 53.98-2.781 65.75 41.766 33.057 54.25 37.219 53.98 8.666 65.75 2.78 33.057-41.765 37.219-54.25 8.666-53.98 2.781-65.75-41.766-33.056-54.25-37.218c-8.046-2.682-28.17-5.53-44.594-5.625zm-16.156 7.844a5 5 0 1 1 0 10 5 5 0 0 1 0-10zm105 35a5 5 0 1 1 0 10 5 5 0 0 1 0-10zm-140 70a5 5 0 1 1 0 10 5 5 0 0 1 0-10zm105 35a5 5 0 1 1 0 10 5 5 0 0 1 0-10z" fill="url(#f)" transform="matrix(-1.5455 0 0 1.5455 525.96 -175.89)"/><path d="M329.42 197.35c0-39.723-32.201-71.924-71.924-71.924-39.723 0-71.924 32.201-71.924 71.924 0 39.723 32.201 71.924 71.924 71.924 39.723 0 71.924-32.201 71.924-71.924z" fill="url(#g)" transform="matrix(-1.5455 0 0 1.5455 525.96 -175.89)"/><path d="M326.99 197.35c0-38.378-31.112-69.49-69.49-69.49s-69.49 31.112-69.49 69.49 31.112 69.49 69.49 69.49 69.49-31.112 69.49-69.49z" fill="url(#h)" transform="matrix(-1.5455 0 0 1.5455 525.96 -175.89)"/><path d="M315.5 197.35c0 32.033-25.967 58-58 58s-58-25.967-58-58 25.967-58 58-58 58 25.967 58 58z" fill="url(#i)" transform="matrix(-1.5455 0 0 1.5455 525.96 -175.89)"/><path d="M257.5 139.36c-24.826 0-46.006 15.57-54.281 37.5 8.268 21.944 29.445 37.562 54.281 37.562s46.014-15.618 54.281-37.562c-8.275-21.93-29.456-37.5-54.281-37.5z" fill="url(#j)" transform="matrix(-1.5455 0 0 1.5455 525.96 -175.89)"/><path d="M257.5 255.35c-24.826 0-46.006-15.57-54.281-37.5 8.268-21.944 29.445-37.562 54.281-37.562s46.014 15.618 54.281 37.562c-8.275 21.93-29.456 37.5-54.281 37.5z" fill="url(#k)" opacity=".5" transform="matrix(-1.5455 0 0 1.5455 525.96 -175.89)"/><path d="M277.5 197.36c0-11.046-8.954-20-20-20s-20 8.954-20 20 8.954 20 20 20 20-8.954 20-20z" fill="url(#l)" transform="matrix(-1.5455 0 0 1.5455 525.96 -175.89)"/><path d="M275.96 197.36c0 10.196-8.265 18.462-18.462 18.462s-18.462-8.265-18.462-18.462 8.265-18.462 18.462-18.462 18.462 8.266 18.462 18.462z" fill="url(#m)" transform="matrix(-1.5455 0 0 1.5455 525.96 -175.89)"/><path transform="matrix(-.95107 0 0 .81176 498.914 -355.09)" d="M390 568.22c-9.234 0-17.085 5.908-20 14.144 2.915 8.236 10.766 14.144 20 14.144s17.085-5.908 20-14.144c-2.915-8.236-10.766-14.144-20-14.144z" fill="url(#n)" filter="url(#o)"/><path d="M245.544 185.633a8.695 8.695 0 0 1-4.346 6.955c-4.193 2.42-9.557 1.005-11.978-3.187s-1.005-9.558 3.188-11.978 9.557-1.005 11.977 3.187a8.826 8.826 0 0 1 1.16 5.023z"/><path d="M187.52 226.82a5.651 5.651 0 0 1 4.51 2.83c1.565 2.714.65 6.179-2.063 7.745-2.713 1.566-6.179.65-7.745-2.062a5.727 5.727 0 0 1-.748-3.256 5.606 5.606 0 0 1 2.81-4.489 5.699 5.699 0 0 1 3.236-.768z" fill="url(#p)" transform="matrix(-1.5455 0 0 1.5455 525.96 -175.89)"/><path d="M182.81 233.92a.915.915 0 0 1 .438-.563l2.28-1.312-1.312-2.25a.93.93 0 0 1 .344-1.281l.406-.25a.93.93 0 0 1 1.281.344l1.313 2.25 2.25-1.282a.93.93 0 0 1 1.281.344l.25.406a.93.93 0 0 1-.344 1.282l-2.25 1.312 1.282 2.25a.93.93 0 0 1-.344 1.281l-.406.25a.93.93 0 0 1-1.282-.344l-1.312-2.28-2.25 1.312a.93.93 0 0 1-1.281-.344l-.25-.406a.944.944 0 0 1-.094-.719z" fill="url(#q)" transform="matrix(-1.5455 0 0 1.5455 525.96 -175.89)"/><path d="M191.36 22.97a8.695 8.695 0 0 1-4.347 6.954c-4.193 2.42-9.558 1.005-11.978-3.187s-1.005-9.557 3.188-11.978 9.557-1.005 11.977 3.188a8.826 8.826 0 0 1 1.16 5.022z"/><path d="M216.66 127.67a5.626 5.626 0 0 0 2.813 4.5c2.712 1.566 6.183.65 7.75-2.062s.65-6.184-2.063-7.75-6.184-.65-7.75 2.062a5.71 5.71 0 0 0-.75 3.25z" fill="url(#r)" transform="matrix(-1.5455 0 0 1.5455 525.96 -175.89)"/><path d="M218 125.83c.063.233.21.432.438.563l2.28 1.312-1.312 2.25a.93.93 0 0 0 .344 1.281l.406.25a.93.93 0 0 0 1.281-.344l1.313-2.25 2.25 1.282a.93.93 0 0 0 1.281-.344l.25-.406a.93.93 0 0 0-.344-1.282l-2.25-1.312 1.282-2.25a.93.93 0 0 0-.344-1.281l-.406-.25a.93.93 0 0 0-1.282.343l-1.312 2.282-2.25-1.313a.93.93 0 0 0-1.281.344l-.25.406a.944.944 0 0 0-.094.719z" fill="url(#s)" transform="matrix(-1.5455 0 0 1.5455 525.96 -175.89)"/><path d="M29.174 75.903a8.695 8.695 0 0 1-4.346 6.955c-4.193 2.42-9.557 1.005-11.978-3.188-2.42-4.193-1.005-9.557 3.188-11.978s9.557-1.005 11.977 3.188a8.826 8.826 0 0 1 1.16 5.023z"/><path d="M321.44 161.92a5.626 5.626 0 0 0 2.813 4.5c2.712 1.566 6.183.65 7.75-2.063s.65-6.183-2.063-7.75-6.184-.65-7.75 2.063a5.71 5.71 0 0 0-.75 3.25z" fill="url(#t)" transform="matrix(-1.5455 0 0 1.5455 525.96 -175.89)"/><path d="M322.78 160.08c.063.233.21.432.438.563l2.28 1.312-1.312 2.25a.93.93 0 0 0 .344 1.281l.406.25a.93.93 0 0 0 1.281-.344l1.313-2.25 2.25 1.282a.93.93 0 0 0 1.281-.344l.25-.406a.93.93 0 0 0-.344-1.282l-2.25-1.312 1.282-2.25a.93.93 0 0 0-.344-1.281l-.406-.25a.93.93 0 0 0-1.282.344l-1.312 2.28-2.25-1.312a.93.93 0 0 0-1.281.344l-.25.406a.944.944 0 0 0-.094.719z" fill="url(#u)" transform="matrix(-1.5455 0 0 1.5455 525.96 -175.89)"/><path d="M83.174 239.34a8.695 8.695 0 0 1-4.346 6.954c-4.193 2.42-9.558 1.005-11.978-3.187s-1.005-9.557 3.188-11.978 9.557-1.005 11.977 3.188a8.826 8.826 0 0 1 1.16 5.022z"/><path d="M291.78 261.52a5.626 5.626 0 0 0-4.5 2.813c-1.566 2.712-.65 6.183 2.063 7.75s6.183.65 7.75-2.063.65-6.184-2.063-7.75a5.71 5.71 0 0 0-3.25-.75z" fill="url(#v)" transform="matrix(-1.5455 0 0 1.5455 525.96 -175.89)"/><path d="M293.62 262.86a.915.915 0 0 0-.563.438l-1.312 2.28-2.25-1.312a.93.93 0 0 0-1.281.344l-.25.406a.93.93 0 0 0 .344 1.281l2.25 1.313-1.282 2.25a.93.93 0 0 0 .344 1.281l.406.25a.93.93 0 0 0 1.282-.344l1.312-2.25 2.25 1.282a.93.93 0 0 0 1.281-.344l.25-.406a.93.93 0 0 0-.344-1.282l-2.28-1.312 1.312-2.25a.93.93 0 0 0-.344-1.281l-.406-.25a.944.944 0 0 0-.719-.094z" fill="url(#w)" transform="matrix(-1.5455 0 0 1.5455 525.96 -175.89)"/><path d="M323.05 191.35c.017.643.02 1.294.02 1.941 0 38.378-29.36 69.477-65.569 69.477s-65.568-31.098-65.568-69.477c0-.647.003-1.298.02-1.941.976 37.474 29.956 67.535 65.548 67.535s64.572-30.061 65.55-67.535z" fill="url(#x)" transform="matrix(-1.5455 0 0 1.5455 525.96 -175.89)"/><path d="M323.05 200.06c.017-.643.02-1.294.02-1.941 0-38.378-29.36-69.477-65.569-69.477s-65.568 31.098-65.568 69.477c0 .647.003 1.298.02 1.941.976-37.474 29.956-67.535 65.548-67.535s64.572 30.061 65.55 67.535z" fill="url(#y)" transform="matrix(-1.5455 0 0 1.5455 525.96 -175.89)"/></g></svg>