<svg xmlns="http://www.w3.org/2000/svg" xmlns:xlink="http://www.w3.org/1999/xlink" width="512" height="512"><defs><linearGradient id="a"><stop offset="0"/><stop offset=".5" stop-opacity=".498"/><stop offset="1"/></linearGradient><linearGradient id="b"><stop offset="0" stop-color="#fff"/><stop offset="1"/></linearGradient><linearGradient xlink:href="#a" id="c" gradientUnits="userSpaceOnUse" x1="501.846" y1="375.365" x2="661.749" y2="375.365" gradientTransform="translate(-367.406 -19.502)"/><linearGradient xlink:href="#b" id="d" x1="-571.793" y1="279.658" x2="405.016" y2="281.959" gradientUnits="userSpaceOnUse"/><radialGradient xlink:href="#b" id="e" gradientUnits="userSpaceOnUse" gradientTransform="matrix(0 2.00177 -5.58506 0 2632.234 -1116.404)" cx="532.939" cy="451.304" fx="532.939" fy="451.304" r="147.511"/></defs><path d="M58.538 408.437l.076 6.902 35.113 45.332 2 .406 406.43-52.001.198-.6.547-6.773-73.638-34.199-368.458 40.074-1.264.249z" fill="#333"/><path style="text-indent:0;text-align:start;line-height:normal;text-transform:none;block-progression:tb;marker:none;-inkscape-font-specification:Sans" d="M206.612 316.932l-.739 2.253c46.255 15.19 135.632 30.402 179.587 56.518l1.219-2.031c-44.2-26.262-133.77-41.537-180.067-56.74z" font-weight="400" color="#000" fill="#999" overflow="visible" font-family="Sans"/><path d="M367.535 411.448l13.451-1.65.159-2.835-13.46 1.636z" fill="#8a8a8a"/><path d="M367.239 409.211l-.151 2.854.447-.617.15-2.85z" fill="#2a2a2a"/><path d="M434.36 373.475l-1.413 1.179 1.873.252z" fill="#5a5a5a"/><path d="M434.649 377.49l.171-2.584-1.873-.252-.17 2.58z" fill="#a5a5a5"/><path d="M434.361 373.487l-50.674 5.651-9.123 1.108 2.364 1.145.407-.517 55.623-6.205 1.403-1.182z" fill="#6b6b6b"/><path d="M377.2 383.511l55.577-6.276.17-2.581-55.604 6.227z" fill="#898989"/><path d="M502.902 401.703l-72.87-33.886-.78-.324 72.55 33.741z" fill="#0e0e0e"/><path d="M366.128 377.322l.03-.57-.305-.879-1.556 1.193z" fill="#5b5b5b"/><path d="M364.297 377.066l-.135 2.6 1.83.258.136-2.602z" fill="#a2a2a2"/><path d="M434.649 377.49l54.526 25.997.218-2.787-54.573-25.794z" fill="#6c6c6c"/><path d="M434.82 374.906l54.573 25.794 3.075.13-58.108-27.355z" fill="#606060"/><path d="M365.992 379.924l4.98 2.68.14-2.624-4.984-2.658z" fill="#616161"/><path d="M365.848 375.888l.295.85v.59l4.58 2.438.997.665 2.992.148-.997-.517-7.867-4.174z" fill="#3c3c3c"/><path d="M371.111 379.98l-.403.513 3.017-.44z" fill="#353535"/><path d="M376.944 381.397l-.144 2.635.4-.521.143-2.63z" fill="#2a2a2a"/><path d="M374.283 381.672l.43-1.094-2.991-.136.698.966z" fill="#747474"/><path d="M372.42 381.408l-.142 2.635 1.862.266.143-2.637z" fill="#a2a2a2"/><path d="M365.853 375.873l-46.938 5.15 2.949.714 42.433-4.67z" fill="#6e6e6e"/><path d="M321.75 384.374l42.412-4.708.135-2.6-42.434 4.671z" fill="#8e8e8e"/><path d="M329.38 388.887l42.898-4.844.142-2.635-42.92 4.806z" fill="#8d8d8d"/><path d="M374.14 384.309l18.402 9.9.158-2.715-18.417-9.822z" fill="#636363"/><path d="M395.46 391.596l-20.747-11.018-.43 1.094 18.417 9.822z" fill="#5d5d5d"/><path d="M321.376 382.256l-.114 2.641.487-.523.114-2.637z" fill="#323232"/><path d="M321.376 382.256l.487-.519-2.948-.714z" fill="#444"/><path d="M318.561 381.062l-1.675 1.223 1.821.265z" fill="#5c5c5c"/><path d="M318.595 385.194l.112-2.644-1.821-.265-.111 2.642z" fill="#a0a0a0"/><path d="M327.065 388.116l-4.673-2.77-1.13-.449 4.666 2.767zM326.046 385l-4.67-2.744-2.461-1.233 5.991 3.524z" fill="#181818"/><path d="M324.55 384.587l-5.989-3.525.146 1.488 4.651 2.75z" fill="#5a5a5a"/><path d="M318.595 385.194l4.647 2.772.116-2.666-4.65-2.75z" fill="#5a5a5a"/><path d="M502.355 408.477l.547-6.774-.197.587-.549 6.786z" fill="#171717"/><path d="M492.468 400.83l-3.075-.13-.227.581z" fill="#3a3a3a"/><path d="M324.74 385.517l2.693-.3-2.527-.67-.356.04z" fill="#3e3e3e"/><path d="M324.55 384.587l-1.192.713-.49.531 1.872-.314z" fill="#373737"/><path d="M329.38 388.887l.12-2.673-.482.534-.12 2.677z" fill="#303030"/><path d="M326.507 385.488l2.511 1.26.482-.534z" fill="#444"/><path d="M395.46 391.596l-2.76-.102-.382.552z" fill="#373737"/><path d="M326.374 385.527l-1.688 1.25 1.85.274z" fill="#5c5c5c"/><path d="M326.416 389.73l.12-2.68-1.85-.273-.118 2.677z" fill="#a0a0a0"/><path d="M318.561 381.062l-64.136 7.037 2.995.733 59.466-6.547z" fill="#727272"/><path d="M257.34 391.525l59.435-6.598.111-2.642-59.466 6.547z" fill="#929292"/><path d="M427.1 408.25l-50.156-26.853-2.378-1.135 51.39 27.526z" fill="#141414"/><path d="M326.507 385.488l19.343 11.377.44.034-17.272-10.151z" fill="#181818"/><path d="M256.811 389.374l-.08 2.698.608-.547.081-2.693z" fill="#3b3b3b"/><path d="M254.425 388.099l2.386 1.275.61-.542z" fill="#484848"/><path d="M388.607 397.905l-1.622 1.325 1.984.295z" fill="#5e5e5e"/><path d="M388.81 402.303l.159-2.778-1.984-.295-.157 2.776z" fill="#a2a2a2"/><path d="M262.121 395.425l-4.2-2.897-1.19-.456 4.191 2.895z" fill="#1e1e1e"/><path d="M248.607 388.737l-1.857 1.27 1.805.277z" fill="#5d5d5d"/><path d="M248.48 392.99l.075-2.706-1.805-.278-.075 2.703z" fill="#9c9c9c"/><path d="M254.425 388.099l5.38 3.687 1.201.46-4.195-2.872z" fill="#1d1d1d"/><path d="M414.568 401.743l-1.587 1.349 2.03.302z" fill="#5e5e5e"/><path d="M414.836 406.202l.176-2.808-2.03-.302-.176 2.806z" fill="#a3a3a3"/><path d="M373.188 403.643l13.64-1.637.157-2.776-13.646 1.624z" fill="#8a8a8a"/><path d="M388.607 397.905l-18.416 2.185 3.148.764 13.646-1.624z" fill="#707070"/><path d="M253.93 392.44l-5.323-3.703-.052 1.547 4.133 2.89z" fill="#575757"/><path d="M399.048 403.624l-10.441-5.719.362 1.62 8.838 4.862z" fill="#5f5f5f"/><path d="M248.48 392.99l4.128 2.911.08-2.728-4.133-2.889z" fill="#505050"/><path d="M388.81 402.303l8.83 4.9.167-2.816-8.838-4.862z" fill="#636363"/><path d="M414.568 401.743l-15.52 1.88.783 1.068 13.15-1.6z" fill="#6e6e6e"/><path d="M399.663 407.51l13.143-1.612.175-2.806-13.15 1.599z" fill="#888"/><path d="M372.912 401.439l-.15 2.793.426-.59.151-2.788z" fill="#2a2a2a"/><path d="M370.191 400.09l2.721 1.349.427-.585z" fill="#454545"/><path d="M425.95 407.788l-11.382-6.045.444 1.65 9.712 5.18z" fill="#616161"/><path d="M414.836 406.202l9.703 5.22.185-2.849-9.712-5.18z" fill="#676767"/><path d="M252.062 393.731l1.849-.314.02-.978-1.243.734z" fill="#343434"/><path d="M399.663 407.51l.168-2.82-2.024-.303-.167 2.816z" fill="#a2a2a2"/><path d="M326.535 387.05l46.762 27.878 1.305-.781-48.228-28.62z" fill="#727272"/><path d="M248.607 388.737l-67.397 7.394 3.046.755 62.494-6.88z" fill="#757575"/><path d="M184.215 399.643l62.46-6.934.075-2.703-62.494 6.88z" fill="#979797"/><path d="M370.191 400.09l10.187 5.795 1.185.473-8.65-4.919z" fill="#171717"/><path d="M425.955 407.788h-.005l.565 1.083 2.371-.323z" fill="#404040"/><path d="M424.38 409.186l2.135-.315-.565-1.083-1.226.785z" fill="#3f3f3f"/><path d="M381.145 406.963l-.159 2.836.42-.61.157-2.83z" fill="#282828"/><path d="M380.378 405.885l-13.446 1.63.754 1.084 13.459-1.636z" fill="#707070"/><path d="M183.503 397.456l-.04 2.762.752-.575.04-2.757z" fill="#464646"/><path d="M183.503 397.456l.753-.57-3.046-.755z" fill="#4c4c4c"/><path d="M367.686 408.599l-.754-1.084-1.682.76 1.989.936z" fill="#545454"/><path d="M175.093 396.803l-2.056 1.318 1.785.292z" fill="#5d5d5d"/><path d="M173.037 398.12l-.035 2.767 1.784.296.036-2.77z" fill="#989898"/><path d="M183.462 400.218l3.622 3.044 1.271.466-3.631-3.047z" fill="#242424"/><path d="M187.127 400.477l-3.624-3.02-2.293-1.326 4.644 3.879z" fill="#232323"/><path d="M179.674 400.697l-4.58-3.894-.272 1.61 3.554 3.039z" fill="#545454"/><path d="M174.786 401.183l3.552 3.062.038-2.793-3.554-3.039z" fill="#454545"/><path d="M367.088 412.065l9.119 5.407 1.215.476-9.133-5.41z" fill="#191919"/><path d="M188.194 400.747l.744.027-1.81-.297-1.274-.467z" fill="#0c0c0c"/><path d="M365.25 408.274l9.882 5.812 1.234.49-9.127-5.365z" fill="#191919"/><path d="M178.376 401.452l-.773.587 1.819-.314.252-1.028z" fill="#313131"/><path d="M175.093 396.803l-70.906 7.779 3.099.777 65.751-7.238z" fill="#797979"/><path d="M107.289 408.182l65.713-7.295.035-2.766-65.751 7.238z" fill="#9a9a9a"/><path d="M375.132 414.086l-.53.06.336 1.108 3.08-.354zM374.602 414.147l-1.305.78-.45.637 2.091-.31z" fill="#4d4d4d"/><path d="M107.27 405.362l-.887.59v.961l.924.997-.037-2.548z" fill="#515151"/><path d="M107.286 405.359l-3.099-.777 2.188 1.378z" fill="#4f4f4f"/><path d="M89.889 406.15l-2.296 1.377 1.758.31z" fill="#5d5d5d"/><path d="M87.593 407.527l.014 2.84 1.757.313-.013-2.844z" fill="#919191"/><path d="M109.362 409.14l-2.987-3.18-2.188-1.378 3.823 4.084z" fill="#2a2a2a"/><path d="M89.889 406.15l-20.931 2.297 3.122.787 15.513-1.707z" fill="#7a7a7a"/><path d="M72.103 412.089l15.504-1.722-.014-2.84-15.513 1.707z" fill="#9e9e9e"/><path d="M60.804 407.565l-1.262.262-1.004.61 2.476.625z" fill="#3a3a3a"/><path d="M72.071 409.24l-.96.59.997 1.22-.037-1.81z" fill="#565656"/><path d="M93.554 410.273l-3.665-4.122-.538 1.685 2.84 3.217z" fill="#4f4f4f"/><path d="M68.958 408.447l2.137 1.402.985-.615z" fill="#515151"/><path d="M89.356 407.836v2.844l.85.998 1.994-.259v-.37l-2.844-3.213z" fill="#373737"/><path d="M109.362 409.14l-1.352-.474 2.223.776.915.01z" fill="#111"/><path d="M68.958 408.447l2.258 2.75 2.561 1.908-2.682-3.256zM93.567 410.274l-1.367.776-.701.48 1.514-.185.554-1.07z" fill="#2d2d2d"/><path d="M75.551 413.425l-1.774-.32-2.56-1.907 2.503 2.317z" fill="#212121"/><path d="M95.26 461.172l405.897-51.938 1-.158-406.43 52.001z" fill="#0e0e0e"/><path d="M95.726 461.077l406.43-52.001.55-6.786L95.7 453.33z" fill="#666"/><path d="M58.614 415.339l35.113 45.332-.03-7.74-35.16-44.494z" fill="#343434"/><path d="M58.538 408.437l35.16 44.494 1.123-1.401-33.807-42.468z" fill="#515151"/><path d="M104.41 448.88l.577-.016-1.984-.39-1.295-.238z" fill="#131313"/><path d="M93.698 452.931l.03 7.74 1.998.406-.026-7.746z" fill="#4d4d4d"/><path d="M94.821 451.53l-1.123 1.401 2.002.4 3.051-1.731z" fill="#6e6e6e"/><path d="M15.081 50.828l-4.432.406-1.551 1.625 4.95 249.382 4.283 4.432 1.552 1.403 146.703-11.117-.406 35.864.813-.444-.776.48-.148.074-16.731 1.478-26.667 2.4-1.366 1.44v5.246l1.292 1.218 35.79 29.622 136.473-13.85 1.366-1.552.222-5.54-3.324-2.475-3.509-1.957-12.262-6.833-29.29-16.362-25.04 2.18-7.572.664.738-35.42 163.399-12.41 1.292-1.44 12.189-224.6-1.182-1.476L15.08 50.828z"/><path d="M248.064 325.768l-36.824 4.395 5.799 3.546-1.293.628-42.955 3.878-2.733-.259-5.207-3.693-42.18 2.548 34.239 27.48 2.585 1.182 134.774-13.297-1.145-1.256-45.06-25.152z" fill="#131313" fill-opacity=".946"/><path d="M122.674 336.802l42.163-2.554.402-.79-15.907.96z" fill="#212121"/><path d="M296.24 358.924l-.601.546-.772 1.01z" fill="#060606"/><path d="M295.848 353.914l-.21 5.556.602-.546.21-5.545z" fill="#202020"/><path d="M293.127 350.937l1.132 1.238 1.589 1.739.602-.535z" fill="#171717"/><path d="M122.613 344.73l35.782 29.612-1.437-1.339-35.668-29.502z" fill="#030303"/><path d="M121.3 338.236l35.711 28.967-.1-2.894-34.237-27.507z"/><path d="M121.29 343.5l35.668 29.503.053-5.8-35.71-28.967z" fill="#222"/><path d="M158.395 374.342l136.472-13.863.772-1.01-136.68 13.84z"/><path d="M158.958 373.308l136.68-13.838.21-5.556-136.834 13.588z"/><path d="M159.014 367.502l136.834-13.588-1.589-1.739-134.768 13.294z" fill="#1a1a1a"/><path d="M158.958 373.308l-2-.305 1.437 1.339zM159.491 365.469l-2.58-1.16.1 2.894 2.003.3z"/><path d="M157.011 367.203l-.053 5.8 2 .305.056-5.806z"/><path d="M134.44 346.256l22.47 18.053 2.581 1.162 134.852-13.204-1.179-1.303z" fill="url(#c)"/><path d="M89.615 407.984l-13.223 1.44-.886 3.916 15.476-1.773-1.367-3.583zm1.847 4.912l-14.663 1.626-1.478-.37-.221.96 16.51-1.846-.148-.37z" fill="#6e6e6e"/><path d="M429.264 367.504l-6.906.59-361.552 39.484.222 1.477 33.795 42.475 3.915.074 403.066-50.379-72.54-33.721zm5.097 5.983l58.098 27.332-63.564 7.72-2.364.332-48.495 6.02-1.292.148-1.626-.96-1.218-.702-8.643-5.097 1.662-.776 13.444-1.625-10.157-5.799 18.394-2.179 10.452 5.725 15.512-1.884 11.376 6.057-51.376-27.553 9.123-1.108 50.674-5.65zm-68.513 2.401l8.864 4.69 20.757 11.007-46.463 5.43-3.14-.148-19.353-11.376.85-.11 44.357-4.95-.11-.074-.887.148-43.287 4.728h-.11l-2.586.295-62.493 6.944-2.438-.702-5.392-3.657 64.155-7.054 5.983 3.546.37-.074-6.02-3.509 46.943-5.134zm-39.483 9.64l47.128 27.96 1.108.664 1.625.96-1.292.148-270.508 33.61-2.733-.627-25.892-31.8v-1.257l.998-.664 247.904-27.738 1.662-1.256zm-77.747 3.213l5.318 3.694-.036.997-65.707 7.313-2.327-.739-4.653-3.878 67.405-7.387zm-73.537 8.052l4.58 3.915-.221 1.034-69.216 7.683-2.216-.776-3.804-4.063 70.877-7.793zm-85.207 9.344l3.693 4.137-.554 1.071-19.28 2.18-2.511-2.328-2.253-2.733 20.905-2.327z" fill="#999"/><path d="M76.799 414.522l-.998.664v1.256l.887 1.071.148-.074-.037-2.917z" fill="#565656"/><path d="M326.531 387.063l-.125 2.656 43.5 26.156 3.375-.406.031-.531-46.78-27.875z" fill="#5d5d5d"/><path d="M95.7 453.33l407.005-51.04-.903-1.056L98.752 451.6z" fill="#757575"/><path d="M250.354 390.256l-11.82 1.292-.812 3.694 13.888-1.551-1.256-3.435zm-16.03 1.772l-11.967 1.293-.812 3.694 9.972-1.108 4.063-.444-1.256-3.435zm-16.214 1.773l-12.114 1.33-.813 3.73 10.711-1.182 3.472-.406-1.256-3.472zm-16.399 1.81l-12.262 1.367-.813 3.73 5.91-.665 8.42-.96-1.255-3.472zm-25.743 2.844l-12.484 1.367-.85 3.767 14.626-1.588-1.292-3.546zm-16.88 1.847l-12.63 1.403-.85 3.805 14.81-1.662-1.33-3.546zm-17.063 1.883l-12.78 1.404-.849 3.804 14.959-1.662-1.33-3.546zm35.679 1.035l-15.365 1.736-.074.369 15.586-1.736-.147-.37zm-52.964.886l-12.89 1.404-.887 3.84 15.106-1.698-1.33-3.546zm36.122.997l-15.55 1.736-.074.406 15.771-1.772-.147-.37zm-17.064 1.92l-15.734 1.774-.074.37 15.956-1.774-.148-.37zm-17.249 1.921l-15.918 1.773-.074.407 16.14-1.81-.148-.37z" fill="#6b6b6b"/><path d="M76.828 417.43l247.74-27.976.118-2.677-247.879 27.758z" fill="#979797"/><path d="M371.722 380.442l-45.215 5.046 2.993.726 42.92-4.806z" fill="#6f6f6f"/><path d="M415.135 371.45l2.24 1.104 3.207-.362-2.27-1.096z" fill="#2a2a2a"/><path d="M400.68 373.066l2.199 1.116 3.241-.365-2.23-1.108zM386.07 374.7l2.157 1.128 3.276-.37-2.189-1.12z" fill="#2b2b2b"/><path d="M415.408 371.487l2.016.994 2.886-.326-2.043-.986zM400.951 373.104l1.98 1.005 2.917-.33-2.007-.997z" fill="#ccc"/><path d="M386.341 374.738l1.942 1.016 2.948-.333-1.97-1.008z" fill="#19ff19"/><path d="M353.475 375.925l-2.142 4.47 3.398 1.846 2.548-.259.739-3.62zm-14.774 1.588l-2.105 4.506 3.25 1.847 2.585-.259.702-3.582zm-14.921 1.662l-1.663 3.51 3.472 2.03 1.81.48.739-3.508zm-18.135 1.958l-1.478 3.176 1.7-.184 1.181 3.36 2.069-.221.738-3.583zm-15.291 1.699l-1.478 3.176 1.552-.185 1.219 3.398 2.068-.258.739-3.583zm-15.439 1.662l-1.477 3.213 1.403-.148 1.22 3.361 2.104-.221.74-3.583zm-15.623 1.699l-1.81 4.026 2.327 1.55 2.438.703h.147l.776-3.657zm-24.488 2.696l-1.44 3.25.96-.11 1.256 3.434 2.142-.221.813-3.694zm-16.066 1.736l-1.404 3.25.776-.074 1.256 3.472 2.179-.221.812-3.73zm-16.251 1.773l-1.44 3.287.664-.074 1.256 3.472h.037l2.179-.222.813-3.73zm-16.4 1.81l-1.92 4.395 1.7 1.403 2.326.739.443-.037.813-3.73zm-25.78 2.807l-1.366 3.287h.148l1.219 3.287.295.259 2.031-.259.85-3.767zm-16.878 1.846l-1.404 3.324 1.145 3.14.443.406 1.995-.221.85-3.805zm-17.101 1.884l-1.478 3.62.96 2.585.666.665 1.92-.222.85-3.804zm-17.249 1.884l-1.957 4.801 1.256 1.33 1.846.665.74-.074.886-3.841zm-35.198 3.84l-1.773 4.58 1.662 2.07 1.736.22.886-3.914z" fill="#484848"/><path d="M368.913 377.18l-10.895 1.183-.739 3.62 12.853-1.404-1.219-3.398zm-14.736 1.626l-11.044 1.219-.702 3.582 12.928-1.44-1.182-3.361zm-14.922 1.625l-11.117 1.256-.739 3.546 13.075-1.44-1.219-3.362zm-18.356 2.031l-11.044 1.22-.738 3.582 13.185-1.477-1.108-3.177-.295-.148zm-15.033 1.663l-11.412 1.255-.74 3.583 13.334-1.477-1.182-3.361zm-15.438 1.698l-11.524 1.293-.739 3.583 13.482-1.478-1.22-3.398zm-15.587 1.736l-11.67 1.256-.777 3.657 13.666-1.552-1.219-3.36z" fill="#656565"/><path d="M430.007 382.624l.671-5.27-7.6-3.644-2.543 4.29z" fill="#4d4d4d"/><path d="M443.231 381.106l-1.976-4.946-10.577 1.194-.671 5.27z" fill="#606060"/><path d="M415.558 384.282l.69-5.299-7.467-3.683-2.53 4.309z" fill="#4d4d4d"/><path d="M428.923 382.748l-1.986-4.972-10.689 1.207-.69 5.3z" fill="#616161"/><path d="M400.954 385.959l.71-5.33-7.332-3.722-2.514 4.328z" fill="#4b4b4b"/><path d="M451.496 393.12l.679-5.459-18.779-9.004-2.612 4.35z" fill="#4e4e4e"/><path d="M414.463 384.408l-1.996-4.998-10.803 1.22-.71 5.329z" fill="#616161"/><path d="M425.945 389.499l.69-5.393-7.716-3.806-2.59 4.37z" fill="#4d4d4d"/><path d="M439.48 387.913l-2.02-5.054-10.824 1.247-.691 5.393z" fill="#606060"/><path d="M465.063 391.497l-2.044-5.111-10.844 1.275-.679 5.46z" fill="#5f5f5f"/><path d="M411.153 391.232l.71-5.424-7.577-3.847-2.575 4.389z" fill="#4d4d4d"/><path d="M424.836 389.629l-2.03-5.082-10.942 1.26-.71 5.425z" fill="#616161"/><path d="M436.684 394.892l.69-5.49-7.978-3.935-2.655 4.432z" fill="#4e4e4e"/><path d="M450.393 393.252l-2.055-5.14-10.963 1.29-.691 5.49z" fill="#606060"/><path d="M368.216 389.717l.753-5.397-7.02-3.81-2.48 4.371z" fill="#494949"/><path d="M382.048 388.13l-2.017-5.059-11.062 1.25-.753 5.396z" fill="#646464"/><path d="M421.7 396.684l.71-5.522-7.835-3.978-2.64 4.452z" fill="#4d4d4d"/><path d="M435.56 395.026l-2.064-5.168-11.085 1.304-.711 5.522z" fill="#616161"/><path d="M353.1 391.452l.773-5.428-6.873-3.852-2.463 4.392z" fill="#484848"/><path d="M447.793 400.471l.69-5.59-8.253-4.071-2.722 4.496z" fill="#4f4f4f"/><path d="M461.68 398.774l-2.09-5.228-11.107 1.334-.69 5.591z" fill="#5f5f5f"/><path d="M367.083 389.847l-2.028-5.085-11.182 1.262-.773 5.428z" fill="#646464"/><path d="M378.192 393.604l.547-3.98-7.259-3.94-2.54 4.434 6.845 3.767z" fill="#4a4a4a"/><path d="M391.438 392.056l-1.49-3.724-11.21 1.291-.546 3.981z" fill="#636363"/><path d="M337.99 392.021l.622-4.274-6.723-3.894-1.92 3.454z" fill="#474747"/><path d="M432.611 402.326l.712-5.625-8.108-4.116-2.706 4.518z" fill="#4e4e4e"/><path d="M351.955 391.584l-2.038-5.113-11.305 1.276-.621 4.274z" fill="#656565"/><path d="M446.655 400.61l-2.101-5.258-11.231 1.35-.712 5.624z" fill="#606060"/><path d="M362.877 395.394l.563-4.008-7.108-3.984-2.522 4.455 6.2 3.872z" fill="#494949"/><path d="M376.272 393.828l-1.499-3.748-11.333 1.306-.563 4.008z" fill="#646464"/><path d="M347.43 396.94l.54-3.772-6.953-4.028-1.96 3.508 7.21 4.238z" fill="#474747"/><path d="M360.953 395.619l-1.523-3.771-11.46 1.32-.54 3.772 1.576.075z" fill="#656565"/><path d="M333.446 393.709l-2.367-5.112-27.253 3.077-1.23 5.576z" fill="#666"/><path d="M302.597 397.25l1.229-5.576-6.372-3.991-2.788 4.501z" fill="#454545"/><path d="M286.225 399.13l.864-5.567-6.2-4.038-2.384 4.48z" fill="#434343"/><path d="M319.782 401.936l.797-5.613-6.675-4.106-2.436 4.508z" fill="#454545"/><path d="M300.884 397.447l-2.072-5.207-11.723 1.323-.864 5.566z" fill="#676767"/><path d="M382.974 407.174l.612-4.498-7.615-4.267-2.037 3.611z" fill="#4a4a4a"/><path d="M324.595 401.372l.441-5.562-4.457.513-.797 5.613z" fill="#666"/><path d="M397.368 406.632l-2.136-5.355-11.646 1.4-.78 5.734z" fill="#636363"/><path d="M270.2 400.97l.886-5.6-6.032-4.083-2.365 4.501z" fill="#414141"/><path d="M303.685 403.822l.858-5.651-6.509-4.153-2.454 4.534z" fill="#444"/><path d="M285.024 399.267l-2.083-5.236-11.855 1.338-.886 5.6z" fill="#686868"/><path d="M333.959 407.18l.44-5.667-9.363-5.703-.441 5.562z" fill="#454545"/><path d="M318.463 402.091l-2.103-5.281-11.817 1.36-.858 5.652z" fill="#676767"/><path d="M352.361 404.978l-2.448-5.29-15.514 1.825-.44 5.666z" fill="#656565"/><path d="M253.994 402.83l.91-5.634-5.861-4.128-2.346 4.523z" fill="#404040"/><path d="M287.53 405.715l.88-5.686-6.34-4.2-2.434 4.556z" fill="#434343"/><path d="M268.985 401.108l-2.093-5.265-11.989 1.353-.909 5.633z" fill="#696969"/><path d="M302.474 403.964l-2.113-5.311-11.952 1.376-.88 5.686z" fill="#676767"/><path d="M318.016 409.086l.854-5.746-6.795-4.285-2.521 4.594z" fill="#464646"/><path d="M237.612 404.71l.932-5.667-5.685-4.175-2.324 4.544z" fill="#3e3e3e"/><path d="M332.95 407.3l-2.137-5.365-11.943 1.405-.854 5.746z" fill="#666"/><path d="M252.766 402.97l-2.103-5.295-12.119 1.368-.932 5.667z" fill="#6a6a6a"/><path d="M271.188 407.63l.903-5.72-6.165-4.249-2.414 4.578z" fill="#414141"/><path d="M286.304 405.858l-2.124-5.341-12.089 1.392-.903 5.72z" fill="#686868"/><path d="M221.036 406.613l.956-5.702-5.505-4.222-2.304 4.566z" fill="#3d3d3d"/><path d="M301.685 411.04l.878-5.782-6.622-4.334-2.502 4.616z" fill="#444"/><path d="M316.792 409.232l-2.148-5.395-12.081 1.42-.878 5.783z" fill="#676767"/><path d="M236.37 404.853l-2.115-5.326-12.263 1.384-.956 5.702z" fill="#6a6a6a"/><path d="M254.659 409.566l.927-5.755-5.987-4.297-2.393 4.6z" fill="#404040"/><path d="M362.323 410.913l-2.49-5.383-40.052 4.811-1.152 5.91z" fill="#656565"/><path d="M204.269 408.538l.981-5.737-5.321-4.27-2.282 4.587z" fill="#3c3c3c"/><path d="M269.95 407.774l-2.136-5.372-12.228 1.409-.927 5.755z" fill="#696969"/><path d="M285.165 413.016l.901-5.818-6.444-4.384-2.482 4.639z" fill="#434343"/><path d="M219.78 406.757l-2.127-5.356-12.403 1.4-.981 5.737z" fill="#6b6b6b"/><path d="M318.63 416.251l1.151-5.91-6.948-4.465-2.852 4.708z" fill="#464646"/><path d="M300.447 411.188l-2.16-5.428-12.22 1.438-.902 5.818z" fill="#676767"/><path d="M237.938 411.525l.952-5.79-5.805-4.347-2.372 4.622z" fill="#3f3f3f"/><path d="M187.309 410.485l1.006-5.772-5.132-4.32-2.26 4.61z" fill="#3a3a3a"/><path d="M253.406 409.713l-2.147-5.404-12.37 1.425-.95 5.79z" fill="#6a6a6a"/><path d="M268.45 415.015l.927-5.854-6.263-4.435-2.46 4.661z" fill="#414141"/><path d="M202.998 408.684l-2.137-5.388-12.546 1.417-1.006 5.772z" fill="#6b6b6b"/><path d="M221.023 413.506l.976-5.826-5.617-4.397-2.35 4.645z" fill="#3d3d3d"/><path d="M283.912 413.165l-2.17-5.458-12.365 1.454-.926 5.854z" fill="#686868"/><path d="M301.896 418.296l.897-5.914-6.764-4.52-2.556 4.7z" fill="#444"/><path d="M170.152 412.454l1.03-5.807-4.938-4.37-2.235 4.632z" fill="#393939"/><path d="M236.67 411.673l-2.158-5.435L222 407.68l-.976 5.826z" fill="#6a6a6a"/><path d="M317.33 416.41l-2.194-5.51-12.343 1.482-.897 5.914z" fill="#676767"/><path d="M186.023 410.632l-2.148-5.418-12.692 1.433-1.031 5.807z" fill="#6d6d6d"/><path d="M251.54 417.037l.952-5.89-6.077-4.487-2.438 4.684z" fill="#404040"/><path d="M203.91 415.511l1.001-5.863-5.425-4.447-2.327 4.667z" fill="#3c3c3c"/><path d="M152.794 414.447l1.057-5.844-4.74-4.42-2.211 4.655z" fill="#373737"/><path d="M267.184 415.166l-2.183-5.49-12.51 1.47-.95 5.891z" fill="#696969"/><path d="M285.022 420.358l.921-5.952-6.58-4.572-2.533 4.721z" fill="#434343"/><path d="M219.74 413.657l-2.17-5.467-12.659 1.458-1.001 5.863z" fill="#6b6b6b"/><path d="M168.85 412.604l-2.159-5.45-12.84 1.45-1.057 5.843z" fill="#6d6d6d"/><path d="M300.631 418.45l-2.205-5.543-12.483 1.5-.921 5.95z" fill="#676767"/><path d="M234.43 419.084l.977-5.928-5.885-4.54-2.416 4.708z" fill="#3e3e3e"/><path d="M135.233 416.463l1.083-5.88-4.536-4.473-2.187 4.678z" fill="#353535"/><path d="M186.603 417.539l1.026-5.9-5.228-4.5-2.302 4.69z" fill="#3a3a3a"/><path d="M250.258 417.19l-2.193-5.523-12.658 1.49-.977 5.927z" fill="#6a6a6a"/><path d="M267.938 422.445l.948-5.99-6.39-4.627-2.512 4.745z" fill="#414141"/><path d="M202.612 415.663l-2.18-5.499-12.803 1.475-1.026 5.9z" fill="#6b6b6b"/><path d="M151.478 414.598l-2.171-5.482-12.99 1.467-1.084 5.88z" fill="#6e6e6e"/><path d="M117.464 418.503l1.11-5.918-4.327-4.524-2.162 4.7z" fill="#343434"/><path d="M169.083 419.592l1.054-5.938-5.026-4.552-2.28 4.712z" fill="#393939"/><path d="M283.742 420.514l-2.218-5.577-12.638 1.519-.948 5.989z" fill="#686868"/><path d="M217.116 421.155l1.003-5.966-5.689-4.593-2.393 4.73z" fill="#3d3d3d"/><path d="M133.901 416.616l-2.182-5.514-13.144 1.483-1.11 5.918z" fill="#6e6e6e"/><path d="M233.133 419.24l-2.206-5.557-12.808 1.506-1.003 5.966z" fill="#6a6a6a"/><path d="M99.484 420.567l1.138-5.955-4.113-4.578-2.136 4.723z" fill="#323232"/><path d="M185.29 417.693l-2.193-5.532-12.96 1.493-1.054 5.938z" fill="#6d6d6d"/><path d="M250.657 424.556l.973-6.027-6.195-4.683-2.488 4.768z" fill="#404040"/><path d="M151.354 421.669l1.081-5.975-4.82-4.607-2.253 4.736z" fill="#373737"/><path d="M199.595 423.25l1.03-6.003-5.488-4.648-2.37 4.754z" fill="#3c3c3c"/><path d="M266.643 422.603l-2.23-5.61-12.783 1.536-.973 6.027z" fill="#696969"/><path d="M116.117 418.657l-2.195-5.547-13.3 1.502-1.138 5.955z" fill="#6f6f6f"/><path d="M81.29 422.655l1.165-5.992-3.894-4.633-2.109 4.747z" fill="#303030"/><path d="M167.755 419.747l-2.205-5.564-13.115 1.51-1.08 5.976z" fill="#6d6d6d"/><path d="M215.804 421.312l-2.218-5.59-12.962 1.525-1.029 6.004z" fill="#6b6b6b"/><path d="M133.413 423.77l1.108-6.013-4.607-4.661-2.228 4.76z" fill="#353535"/><path d="M233.159 426.694l1-6.067-5.995-4.739-2.465 4.793z" fill="#3e3e3e"/><path d="M98.121 420.723l-2.207-5.58-13.459 1.52-1.165 5.992z" fill="#6f6f6f"/><path d="M181.863 425.372l1.056-6.043-5.281-4.703-2.344 4.777z" fill="#3a3a3a"/><path d="M249.346 424.716l-2.242-5.644-12.945 1.555-1 6.067z" fill="#6a6a6a"/><path d="M150.01 421.826l-2.217-5.598-13.272 1.53-1.108 6.012z" fill="#6e6e6e"/><path d="M115.255 425.898l1.136-6.052-4.389-4.718-2.202 4.783z" fill="#343434"/><path d="M198.266 423.41l-2.23-5.623-13.117 1.542-1.056 6.043z" fill="#6c6c6c"/><path d="M215.456 428.857l1.027-6.106-5.79-4.796-2.44 4.816z" fill="#3d3d3d"/><path d="M163.915 427.518l1.084-6.08-5.069-4.762-2.319 4.802z" fill="#383838"/><path d="M132.052 423.93l-2.229-5.631-13.432 1.547-1.136 6.052z" fill="#6e6e6e"/><path d="M231.832 426.856l-2.254-5.678-13.095 1.573-1.027 6.106z" fill="#6b6b6b"/><path d="M180.518 425.533l-2.242-5.657-13.277 1.561-1.084 6.081z" fill="#6d6d6d"/><path d="M86.71 429.242l1.181-6.113-4.04-4.806-2.16 4.82z" fill="#313131"/><path d="M145.75 429.691l1.111-6.12-4.851-4.82-2.293 4.826z" fill="#363636"/><path d="M197.537 431.046l1.054-6.146-5.58-4.854-2.415 4.84z" fill="#3c3c3c"/><path d="M179.388 433.263l1.084-6.186-5.363-4.914-2.391 4.865z" fill="#3a3a3a"/><path d="M196.177 431.212l-2.28-5.748-13.425 1.613-1.084 6.186z" fill="#6c6c6c"/><path d="M113.556 426.097l-2.129-5.68-23.536 2.712-1.18 6.113z" fill="#6f6f6f"/><path d="M214.114 429.02l-2.267-5.712-13.256 1.592-1.054 6.146z" fill="#6b6b6b"/><path d="M162.554 427.681l-2.254-5.691-13.439 1.58-1.112 6.121z" fill="#6d6d6d"/><path d="M127.36 431.89l1.141-6.16-4.628-4.878-2.266 4.85z" fill="#353535"/><path d="M144.371 429.856l-2.267-5.726-13.603 1.6-1.14 6.16z" fill="#6e6e6e"/><path d="M161.023 435.507l1.112-6.227-5.141-4.975-2.364 4.89z" fill="#383838"/><path d="M92.338 436.08l1.196-6.238-4.194-4.99-2.213 4.896z" fill="#323232"/><path d="M178.012 433.431l-2.292-5.783-13.585 1.632-1.112 6.227z" fill="#6d6d6d"/><path d="M125.544 432.108l-2.509-5.735-29.5 3.47-1.197 6.237z" fill="#6f6f6f"/><path d="M142.42 437.78l1.142-6.27-4.913-5.036-2.336 4.915z" fill="#363636"/><path d="M159.63 435.677l-2.306-5.82-13.762 1.654-1.142 6.269z" fill="#6d6d6d"/><path d="M123.593 440.08l1.171-6.31-4.679-5.1-2.307 4.94z" fill="#343434"/><path d="M141.01 437.952l-2.319-5.856-13.927 1.673-1.171 6.311z" fill="#6e6e6e"/><path d="M98.184 443.184l1.213-6.367-4.358-5.185-2.269 4.974z" fill="#333"/><path d="M121.948 440.281l-1.981-5.936-20.57 2.472-1.213 6.367z" fill="#6f6f6f"/><path d="M397.844 381.063l-10.906 1.218-.594 4.188 1.812.969 11.688-1.344-2-5.031zM408 386.25l-11.063 1.281-.593 4.313 1.687.906 12-1.375L408 386.25zm10.5 5.375l-11.219 1.313-.594 4.468 1.625.875 12.25-1.469-2.062-5.187zm10.844 5.563L418 398.53l-.625 4.625 1.531.844 12.563-1.531-2.125-5.281z" fill="#626262"/><path d="M379.719 378.531l-1.906 3.313v.031l8.53 4.594.594-4.188-7.218-3.75zm9.781 5.094l-2 3.469 8.844 4.75.594-4.313-7.438-3.906zm10.094 5.281l-2.094 3.563 9.188 4.937.593-4.469-7.687-4.03zm10.437 5.469l-2.187 3.656 9.531 5.125.625-4.625-7.969-4.156z" fill="#4a4a4a"/><path d="M455.082 389.037l-2.734 4.506 19.908 9.714 2.4-.296.518-4.284zm-3.657 7.313l-2.77 4.543 8.384 4.21 2.438-.295.517-4.248zm-30.582 3.693l-2.29 3.805-.48.775 8.015 4.285.443-.037 1.995-.296.554-4.247-8.237-4.285zm-18.762 2.253l-2.734 4.617 7.868 4.358 2.363-.295.554-4.321zm-15.771 1.92l-2.734 4.655 7.683 4.395 2.364-.296.59-4.358zm-15.956 1.921l-2.216 3.842 8.606 5.06.738-.074.591-4.359zm-22.567 2.734l-2.992 4.727 7.276 4.506 2.327-.295.887-4.395zm-20.019 2.4l-2.991 4.802 7.054 4.543 2.327-.296.887-4.432zm-20.313 2.475l-2.955 4.801 6.796 4.617 2.29-.295.923-4.47zm-20.61 2.475l-2.955 4.838 6.612 4.69 2.216-.258.923-4.506zm-108.698 13.148l-2.512 4.95 5.319 5.06 1.81-.26.886-4.653zm-28.55 3.435l-2.29 4.986 4.986 5.134 1.699-.221.738-4.691zm-19.022 2.29l-2.4 5.023 4.764 5.208 1.7-.222.849-4.727zm-29.621 3.583l-2.327 5.06 3.878 4.69 1.92.444.185-.037.887-4.765-4.543-5.392z" fill="#505050"/><path d="M475.174 398.677l-.517 4.284 13.26-1.588-1.626-4.063zm-3.952.48l-11.228 1.403-.517 4.248 13.37-1.625zm-15.217 1.883l-26.925 3.288-.554 4.247.369-.037 28.698-3.472zm-34.201 4.211l-.517.074.701.332zm-.517.074l-11.155 1.33-.554 4.32 13.85-1.735-1.44-3.546zm-15.291 1.847l-11.782 1.44-.591 4.358 13.998-1.736zm-15.956 1.957l-11.967 1.478-.59 4.358.553-.074 13.63-1.7zm-19.945 2.438l-14.81 1.847-.887 4.395 17.581-2.18zm-20.018 2.474l-15.032 1.847-.887 4.432 17.803-2.216zm-20.314 2.512l-15.254 1.847-.923 4.469 18.098-2.216zm-20.61 2.512l-15.512 1.92-.923 4.506 18.356-2.29zm-20.535 2.511l-104.968 12.89-.886 4.654 107.553-13.333zm-110.065 13.518l-23.823 2.918-.738 4.69 26.186-3.25zm-28.956 3.546l-14.11 1.736-.849 4.727 16.695-2.068zm-19.317 2.4l-24.783 3.03-.887 4.764 27.332-3.398z" fill="#5d5d5d"/><path d="M433.549 372.527l-10.453 1.182 7.572 3.656 10.6-1.218-7.72-3.62zm-14.183 1.588l-10.6 1.182 7.497 3.694 10.675-1.22-7.572-3.656zm-55.032.628l-10.86 1.182 4.544 2.438 10.895-1.182-4.58-2.438zm40.701.96l-10.71 1.22 7.35 3.693 10.784-1.22-7.424-3.693zm-55.364.628l-10.97 1.182 4.432 2.512 11.044-1.22-4.506-2.474zm40.886.998l-10.822 1.218 7.202 3.73 10.896-1.218-7.276-3.73zm53.444.11l-10.6 1.22 18.763 9.011 10.859-1.293L444 377.44zm-109.141.517l-11.08 1.22 4.358 2.51 11.117-1.255-4.395-2.475zm94.774 1.145l-10.711 1.182 7.719 3.805 10.822-1.22-7.83-3.767zm-56.732.185l-10.97 1.219 7.018 3.804 11.08-1.256-7.128-3.767zm-56.066.628l-11.191 1.219 4.21 2.548 11.265-1.256-4.284-2.511zm98.282.812l-10.821 1.22 7.571 3.877 10.933-1.292-7.683-3.805zm-57.063.222l-11.044 1.219 6.87 3.841 11.191-1.256-7.017-3.804zm-56.4.628l-11.301 1.256 4.1 2.548 11.412-1.256-4.21-2.548zm98.8.813l-10.969 1.255 7.46 3.878 11.044-1.255-7.534-3.878zm-57.359.221l-11.19 1.256 6.721 3.878 11.302-1.256-6.833-3.878zm-56.768.628l-11.413 1.256 3.99 2.622 11.523-1.293-4.1-2.585zm153.943.96l-10.859 1.256 7.978 3.952 10.933-1.293-8.052-3.915zm-57.692.222l-11.117 1.256 7.276 3.952 11.228-1.293-7.387-3.915zm-58.135.259l-26.999 2.991 6.39 3.99 27.258-3.066-6.649-3.915zm-53.592.258l-11.56 1.256 3.878 2.622 11.671-1.256-3.989-2.622zm154.719.96l-11.007 1.293 7.83 3.989 11.118-1.33-7.941-3.952zm-58.024.222l-11.228 1.293 7.128 3.989 11.339-1.33-7.24-3.952zm-120.997 1.477l-11.746 1.293 3.73 2.66 11.82-1.293-3.804-2.66zm164.136.037l-11.08 1.293 7.682 4.026 11.192-1.33-7.794-3.989zm55.291.148l-10.895 1.256 20.092 9.64 11.117-1.367-20.314-9.529zm-113.61.074l-11.34 1.293 6.945 4.025 11.45-1.33-7.055-3.988zm-59.871.37l-11.597 1.292 6.205 4.063 11.708-1.33-6.316-4.026zm-61.865 1.107l-11.893 1.293 3.62 2.696 11.966-1.293-3.693-2.696zm220.61.185l-11.007 1.293 8.236 4.062 11.118-1.33-8.348-4.025zm-174.442.48l-11.745 1.293 6.02 4.063 11.856-1.33-6.131-4.026zm56.657 0l-19.538 2.216 6.648 4.1 4.47-.517 9.38 5.725 15.513-1.847-16.473-9.677zm-118.929 1.108l-12.04 1.293 3.509 2.733 12.114-1.33-3.583-2.696zm221.829.148l-11.154 1.33 8.125 4.136 11.228-1.366-8.2-4.1zm-175.439.48l-11.893 1.33 5.873 4.136 12.003-1.366-5.983-4.1zm48.827.96l-11.708 1.33 6.5 4.137 11.82-1.367-6.612-4.1zm-111.505.185l-12.151 1.33 3.36 2.77 12.263-1.367-3.472-2.733zm223.048.185l-11.265 1.33 7.977 4.136 11.34-1.367-8.052-4.1zm-176.436.48l-12.004 1.33 5.688 4.173 12.114-1.367-5.798-4.136zm49.049.96l-11.82 1.33 6.316 4.21 11.967-1.403-6.463-4.137zm168.68.48l-11.155 1.367 8.569 4.21 11.228-1.403-8.643-4.174zm-233.98.37l-12.115 1.33 5.503 4.21 12.262-1.367-5.65-4.173zm-55.92.332l-12.372 1.33 3.176 2.807 12.484-1.367-3.287-2.77zm105.19.628l-11.93 1.366 6.168 4.248 12.078-1.404-6.316-4.21zm169.64.517l-26.667 3.213 8.237 4.285 26.925-3.287-8.495-4.211zm-60.018.222l-11.524 1.366 7.608 4.248 11.672-1.404-7.756-4.21zm-175.292.11l-12.262 1.367 5.319 4.284 12.41-1.403-5.467-4.248zm-56.25.333l-12.521 1.366 3.028 2.844 12.632-1.403-3.14-2.807zm167.94.184l-11.819 1.367 6.796 4.284 11.93-1.403-6.907-4.248zm-62.197.48l-12.078 1.367 5.984 4.285 12.225-1.404-6.131-4.247zm-66.113.85l-12.41 1.367 5.134 4.321 12.558-1.404-5.282-4.284zm-56.584.332l-12.668 1.404 2.918 2.844 12.779-1.404-3.029-2.844zm168.902.185l-11.967 1.404 6.648 4.321 12.078-1.404-6.76-4.32zm-62.567.48l-12.263 1.367 5.836 4.358 12.373-1.44-5.946-4.285zm-66.556.887l-12.521 1.366 4.912 4.396 12.706-1.44-5.097-4.322zm234.866 0l-11.56 1.403 8.051 4.359 11.672-1.404-8.163-4.358zm-61.163.295l-39.631 4.69 6.944 4.47 40.037-4.802-7.35-4.358zm-230.62.037l-12.779 1.404 2.77 2.88 12.89-1.403-2.88-2.88zm169.862.185l-12.114 1.403 6.463 4.396 12.226-1.44-6.575-4.36zm-62.973.48l-12.373 1.403 5.614 4.396 12.52-1.44-5.76-4.36zm-66.925.886l-12.706 1.404 4.728 4.432 12.853-1.44-4.875-4.396zm236.196 0l-11.708 1.44 7.904 4.396 11.782-1.44-7.978-4.396zm-122.66.517l-12.262 1.44 6.28 4.433 12.372-1.477-6.39-4.396zm-63.342.48l-12.521 1.441 5.43 4.432 12.631-1.44-5.54-4.432zm-67.406.924l-12.816 1.403 4.506 4.47 13.001-1.44-4.69-4.433zm237.563 0l-11.82 1.44 7.72 4.47 11.967-1.478-7.867-4.432zm-295.18.332l-13.112 1.44 2.511 2.956 13.223-1.44-2.622-2.956zm171.782.185l-12.373 1.44 6.094 4.507 12.52-1.478-6.241-4.469zm-63.712.48l-12.669 1.44 5.245 4.507 12.78-1.478-5.356-4.469zm113.167.739l-12.188 1.44 6.759 4.506 12.336-1.477-6.907-4.469zm-180.979.185l-13 1.44 4.32 4.543 13.15-1.514-4.47-4.47zm235.236.48l-14.7 1.773 7.498 4.543 14.81-1.847-7.608-4.47zm-120.443.074l-12.521 1.44 5.872 4.543 12.669-1.477-6.02-4.506zm-64.119.48l-12.816 1.44 5.023 4.58 12.964-1.514-5.17-4.506zm113.795.739l-12.373 1.44 6.612 4.58 12.483-1.514-6.722-4.506zm-182.087.184l-13.111 1.44 4.1 4.58 13.296-1.477-4.285-4.543zm115.458.554l-12.669 1.478 5.688 4.58 12.816-1.515-5.835-4.543zm117.562.333l-14.885 1.81 7.277 4.616 15.032-1.846-7.424-4.58zm-182.087.147l-12.964 1.478 4.839 4.617 13.111-1.515-4.986-4.58zm114.423.74l-12.484 1.476 6.39 4.617 12.632-1.514-6.538-4.58zm-183.121.184l-13.296 1.514 3.878 4.617 13.48-1.514-4.062-4.617zm116.085.59l-12.816 1.478 5.503 4.654 12.964-1.514-5.651-4.617zm-64.93.48l-13.113 1.478 4.617 4.69 13.26-1.55-4.765-4.617zm179.538.296l-15.106 1.847 7.054 4.654 15.254-1.847-7.202-4.654zm-64.488.444l-12.631 1.514 6.205 4.654 12.779-1.515-6.353-4.653zm-67.48.775l-12.963 1.514 5.281 4.691 13.112-1.551-5.43-4.654zm-65.336.517l-13.26 1.478 4.395 4.727 13.445-1.551-4.58-4.654zm115.715.739l-12.816 1.514 6.02 4.728 12.928-1.551-6.132-4.691zm61.2 0l-15.327 1.847 6.796 4.764 15.512-1.92-6.98-4.691zm-129.122.776l-13.112 1.514 5.06 4.764 13.26-1.55-5.208-4.728zm-65.965.517l-23.232 2.659 4.026 4.801 23.564-2.696-4.358-4.764zm116.565.775l-12.964 1.515 5.799 4.801 13.112-1.588-5.947-4.728zm58.209.37l-103.712 12.557 5.503 5.097 104.968-12.89-6.76-4.764zm-126.575.406l-13.259 1.551 4.838 4.802 13.445-1.589-5.024-4.764zm50.822 1.293l-13.111 1.55 5.614 4.84 13.222-1.589-5.725-4.801zm-68.809.775l-13.407 1.551 4.617 4.876 13.592-1.588-4.802-4.839zm51.08 1.293l-13.259 1.588 5.356 4.912 13.407-1.625-5.503-4.875zm-69.916.886l-29.105 3.398 4.174 4.986 29.51-3.471-4.58-4.913zm51.967 1.256l-13.445 1.588 5.134 4.986 13.592-1.662-5.281-4.912zm-18.172 2.142l-13.592 1.625 4.912 5.024 13.74-1.663-5.06-4.986zm-18.43 2.18l-13.74 1.625 4.69 5.097 13.925-1.663-4.875-5.06zm-18.468 2.179l-20.314 2.4 4.359 5.208 20.572-2.475-4.617-5.133zm57.729.738l-23.49 2.844 5.133 5.208 23.823-2.918-5.466-5.134zm-28.587 3.472l-13.925 1.662 4.913 5.282 14.109-1.736-5.097-5.208zm-19.096 2.29l-24.45 2.955 4.543 5.392 24.783-3.028-4.876-5.319z" fill="#e6e6e6"/><path d="M167.453 333.707l.2 29.832 48.305-3.64-.223-25.561-48.282-.631"/><path d="M211.258 330.147l36.804-4.373-25.023 2.163-14.146 1.676z" fill="#202020"/><path d="M223.04 327.937l-73.708 6.482 15.907-.961 43.654-3.845z" fill="#202020"/><path d="M216.374 284.808l-.702.037-.997 47.867.702-.48.997-47.424z" fill="#2b2b2b"/><path d="M171.61 288.058l-4.95.37-.48 44.395 4.839 3.36.59-48.125z" fill="#0f0f0f"/><path d="M215.672 284.845l-42.253 3.102-.59 48.495 41.846-3.73.997-47.867z" fill="#070707"/><path d="M173.42 287.947l-1.81.11-.591 48.126 1.81.259.59-48.495z"/><path d="M215.387 332.242l-.706.463 1.061 1.644 1.307-.624z" fill="#1a1a1a"/><path d="M164.837 334.248l1.355-1.423.793-.463-1.746 1.096z" fill="#060606"/><path d="M172.803 338.21l42.94-3.86-1.062-1.645-41.84 3.736z" fill="#0a0a0a"/><path d="M164.837 334.248l5.233 3.693.946-1.743-4.824-3.373z" fill="#131313"/><path d="M172.84 336.441l-1.824-.243-.946 1.743 2.733.269z" fill="#0e0e0e"/><path d="M380.876 279.351l-.356-.671-3.18 1.276 2.265.836z" fill="#3a3a3a"/><path d="M370.187 272.655l-1.049-.366-1.277 1.445 1.047.368z" fill="#414141"/><path d="M372.14 273.429l-1.953-.774-1.28 1.447 1.578 1.569z" fill="#787878"/><path d="M380.876 279.351l12.188-224.595-.47 1.106L380.52 278.68z" fill="#181818"/><path d="M377.34 279.956L24.18 306.618l-4.297 1.463 359.722-27.29z" fill="#1a1a1a"/><path d="M33.791 298.618l335.117-24.516-1.047-.368L33.3 298.156z" fill="#1b1b1b"/><path d="M31.759 296.752l.488.46 1.544 1.406-.491-.462z"/><path d="M368.906 274.094L33.781 298.625l-1.531-1.406-1.156 1.094 2 2.25L370.5 275.656l-1.594-1.562z" fill="url(#d)"/><path d="M24.18 306.618l-4.003-.869-1.854.93 1.56 1.402z" fill="#5b5b5b"/><path d="M9.098 52.867l4.954 249.366 4.271 4.445-4.834-254.18z" fill="#1a1a1a"/><path d="M29.219 58.5l-1.594 2.063-.188 14.593 2.094 127.969c113.271 17.59 244.934 3.123 348.094-40.125l3.781-103.063L29.22 58.5z" opacity=".5" fill="url(#e)"/><path d="M171.063 332.938l-3.594.78 3.562 2.47 1.813.25.031-3.282-1.813-.219z"/><path d="M391.897 53.272l-2.492 1.434 3.189 1.156.47-1.106z" fill="gray"/><path d="M379.924 61.413L30.011 60.184l-.507.024 349.308 1.224z" fill="#010101"/><path d="M19.648 52.502l369.757 2.204 2.492-1.434L15.07 50.828z" fill="#999"/><path d="M15.07 50.828l-4.422.402-1.55 1.637 4.39-.37z" fill="#111"/><path d="M15.48 53.77l4.168-1.268-4.578-1.674-1.581 1.67z" fill="gray"/><path d="M32.247 297.212L28.443 61.845l-1.237-.745 3.89 237.224z"/><path d="M29.219 58.5l-2 2.594 1.218.75L30 60.187l349.938 1.22 1.156 1.5-10.906 209.75 1.968.78L383.22 62.25l-1.5-2.313-352.5-1.437zM20.177 305.75L15.479 53.77l-1.99-1.272 4.834 254.18z"/><path d="M19.656 52.5l-4.187 1.281 4.719 251.969 4 .875 353.156-26.656 3.187-1.281 12.063-222.813-3.188-1.156L19.656 52.5zm9.563 6l352.5 1.438 1.5 2.312-11.063 211.188-1.656 2.218-337.406 24.906-2-2.25-3.875-237.218 2-2.594z"/><path d="M379.938 61.406l-10.813 210.875 1.063.375 10.906-209.75-1.156-1.5z" fill="#1a1a1a"/></svg>