<svg xmlns="http://www.w3.org/2000/svg" xmlns:xlink="http://www.w3.org/1999/xlink" width="491.419" height="334.664"><defs><linearGradient id="b"><stop offset="0" stop-color="#2a2a2a"/><stop offset=".297" stop-color="#fff"/><stop offset=".7" stop-color="#aaa"/><stop offset="1" stop-color="#333"/></linearGradient><linearGradient id="c"><stop offset="0" stop-color="#fff" stop-opacity=".467"/><stop offset=".331" stop-opacity=".188"/><stop offset=".7" stop-color="#fff" stop-opacity=".678"/><stop offset="1" stop-opacity=".2"/></linearGradient><linearGradient id="a"><stop offset="0"/><stop offset="1" stop-opacity="0"/></linearGradient><filter id="q" color-interpolation-filters="sRGB"><feGaussianBlur stdDeviation="1.213"/></filter><radialGradient xlink:href="#b" id="d" gradientUnits="userSpaceOnUse" gradientTransform="matrix(.83635 0 0 7.88747 -559.322 -1414.654)" cx="861.896" cy="218.075" fx="861.896" fy="218.075" r="24.256"/><linearGradient xlink:href="#c" id="e" gradientUnits="userSpaceOnUse" gradientTransform="translate(-700.37 87.328)" spreadMethod="reflect" x1="889.644" y1="193.512" x2="831.712" y2="93.172"/><radialGradient xlink:href="#b" id="f" gradientUnits="userSpaceOnUse" gradientTransform="matrix(1.50972 0 0 2.54726 -1127.558 103.685)" cx="851.481" cy="-71.971" fx="870.317" fy="-30.308" r="97.797"/><radialGradient xlink:href="#c" id="g" gradientUnits="userSpaceOnUse" gradientTransform="matrix(1.53406 .00502 -.00723 2.20931 -1148.035 14.613)" cx="854.166" cy="59.678" fx="854.166" fy="59.678" r="97.797"/><linearGradient xlink:href="#b" id="h" gradientUnits="userSpaceOnUse" gradientTransform="translate(-1683.56 87.458)" spreadMethod="reflect" x1="1845.343" y1="192.664" x2="1868.067" y2="192.664"/><radialGradient xlink:href="#b" id="i" gradientUnits="userSpaceOnUse" gradientTransform="matrix(.7402 -.0887 .03574 .29825 -1212.354 393.93)" spreadMethod="reflect" cx="1851.311" cy="85.032" fx="1851.311" fy="85.032" r="27.304"/><radialGradient xlink:href="#b" id="j" gradientUnits="userSpaceOnUse" gradientTransform="matrix(.73764 -.09145 .03714 .29958 -1208.263 406.322)" spreadMethod="reflect" cx="1851.687" cy="96.527" fx="1851.687" fy="96.527" r="27.107"/><radialGradient xlink:href="#b" id="k" gradientUnits="userSpaceOnUse" gradientTransform="matrix(.7402 -.0887 .03574 .29825 -1213.127 409.126)" spreadMethod="reflect" cx="1851.311" cy="106.688" fx="1851.311" fy="106.688" r="27.304"/><radialGradient xlink:href="#b" id="l" gradientUnits="userSpaceOnUse" gradientTransform="matrix(.7123 -.09146 .03587 .29958 -1161.134 421.501)" spreadMethod="reflect" cx="1851.687" cy="118.183" fx="1851.687" fy="118.183" r="27.107"/><radialGradient xlink:href="#b" id="m" gradientUnits="userSpaceOnUse" gradientTransform="matrix(.87683 0 0 5.3075 -594.28 -673.478)" cx="862.461" cy="176.623" fx="862.461" fy="176.623" r="32.227"/><radialGradient xlink:href="#b" id="n" gradientUnits="userSpaceOnUse" gradientTransform="matrix(.89004 0 0 4.52058 -605.66 -485.978)" cx="862.445" cy="162.844" fx="862.445" fy="162.844" r="36.099"/><radialGradient xlink:href="#b" id="o" gradientUnits="userSpaceOnUse" gradientTransform="matrix(6.8239 0 0 1.71665 -5717.03 -100.132)" cx="861.464" cy="259.976" fx="861.464" fy="259.976" r="12.484"/><radialGradient xlink:href="#b" id="p" gradientUnits="userSpaceOnUse" gradientTransform="matrix(1.46616 0 0 2.47377 593.406 29.84)" cx="855.209" cy="-72.339" fx="855.209" fy="-38.238" r="97.797"/><radialGradient xlink:href="#c" id="r" gradientUnits="userSpaceOnUse" gradientTransform="matrix(.38105 0 0 1.81774 -165.074 46.336)" cx="852.891" cy="70.258" fx="852.891" fy="70.258" r="97.797"/></defs><g color="#000"><path d="M431.654 150.395c-27.074.22-57.62 1.107-96.067 9.877-30.692 8.035-67.483 22.496-74.505 33.311-4.882 6.89-2.023 11.944 3.354 15.926.895 3.218 1.487 7.204-10.096 12.608-24.084 13.28-49.329 26.582-72.595 39.846-11.754 5.328-11.1 11.396-16.021 14.173-8.14 3.87 7.775.778-5.115 4.71-5.13 3.01-12.18 6.195-16.011 9.088 8.043-.582.564 2.535-4.38 5.265-2.38 1.676-3.797 5.42-11.705 6.394-2.43 1.864-3.959 5.18-12.984 6.843 3.156 1.664-8.093 5.058-11.922 6.754 3.961.744-6.655 4.21-8.984 5.836-.032 2.701.66 5.313-3.375 9.029-.443 4.136 17.83 2.628 31.122-3.337 11.524-2.969 23.561-6.698 31.099-10.389-2.602-1.944 13.26-5.355 11.02-7.053 6.88-3.428 9.144-3.961 13.162-7.175 6.746-2.644 6.583-3.343 11.585-6.316 5.24-1.632 9.705-4.534 12.91-5.492 6.022.518 11.995-4.367 16.895-6.701 6.792-2.238 5.678-5.913 10.158-5.088 9.193-.884 3.576-3.884 14.369-4.992 28.114-9.103 44.84-20.582 64.75-30.958 14.74-8.013 29.23-16.045 44.305-24.05 16.794-6.982 35.77-10.109 53.148-14.172 27.2-6.275 60.737-17.092 73.969-28.094 13.22-9.719 16.445-18.484 3.255-21.227-12.09-3.828-30.985-4.697-51.34-4.616z" style="text-indent:0;text-align:start;line-height:normal;text-transform:none;block-progression:tb;marker:none;-inkscape-font-specification:Sans" font-weight="400" opacity=".77" fill="gray" overflow="visible" enable-background="accumulate" font-family="Sans"/><path d="M94.589 119.524c-2.132 12.66-4.999 34.055-6.688 55.625-1.688 21.569-2.21 43.273.313 56.593l.969-.187c-2.481-13.099-1.968-34.78-.282-56.313 1.687-21.533 4.531-42.941 6.657-55.562l-.97-.156zM129.401 120.336c-.388.287-.775.743-1.218 1.406a29.333 29.333 0 0 0-1.5 2.563c-1.106 2.093-2.41 4.955-3.844 8.406-2.867 6.902-6.217 16.243-9.313 26.938-6.19 21.389-11.374 48.124-9.625 71.343l1-.062c-1.733-23.014 3.424-49.682 9.594-71 3.085-10.66 6.432-19.982 9.281-26.844 1.425-3.43 2.73-6.26 3.813-8.312.542-1.027 1.023-1.849 1.437-2.47.415-.62.782-1.017.97-1.155l-.595-.813z" style="text-indent:0;text-align:start;line-height:normal;text-transform:none;block-progression:tb;marker:none;-inkscape-font-specification:Sans" font-weight="400" fill="#666" overflow="visible" enable-background="accumulate" font-family="Sans"/><path style="text-indent:0;text-align:start;line-height:normal;text-transform:none;block-progression:tb;marker:none;-inkscape-font-specification:Sans" d="M79.75 313.602a3 3 0 0 0-1.25 5.562 15.017 15.017 0 0 1 2.125 1.531c2.289 1.995 2.844 4.64 4.687 7.844.922 1.603 2.317 3.3 4.407 4.438 2.09 1.137 4.701 1.687 8.062 1.687 3.361 0 6.006-.55 8.094-1.687 2.088-1.138 3.457-2.835 4.375-4.438 1.835-3.206 2.4-5.851 4.687-7.844.562-.489 1.305-1.018 2.157-1.53a3 3 0 0 0-1.563-5.563h-35.5a3 3 0 0 0-.281 0z" font-weight="400" overflow="visible" enable-background="accumulate" font-family="Sans"/><path style="marker:none" d="M145.241 274.086h32.569a7.954 7.954 0 0 1 7.971 7.971v46.691a7.954 7.954 0 0 1-7.971 7.972H145.24a7.954 7.954 0 0 1-7.971-7.972v-46.69a7.954 7.954 0 0 1 7.971-7.972z" fill="url(#d)" overflow="visible" enable-background="accumulate" transform="translate(-63.192 -17.383)"/><path d="M76.247 255.777h43.53c1.398 0 2.523 1.215 2.523 2.724 0 0 2.229 6.99 0 7.266-17.383 2.95-28.941 4.54-46.053 6.13-1.398 0-2.524-1.215-2.524-2.725v-10.67c0-1.51 1.126-2.725 2.524-2.725z" style="marker:none" fill="#333" overflow="visible" enable-background="accumulate"/><path d="M120.296 272.08a2.77 2.99 0 0 0-.202.03l-44.493 5.421a2.77 2.99 0 1 0 .606 5.919l44.522-5.39a2.778 3 0 1 0-.433-5.98zM120.2 282.89l-44.493 5.42a2.772 2.993 0 1 0 .606 5.95l44.521-5.42a2.774 2.995 0 1 0-.635-5.95zM120.296 293.668a2.77 2.99 0 0 0-.202.031l-44.493 5.42a2.77 2.99 0 1 0 .606 5.92l44.522-5.39a2.778 3 0 1 0-.433-5.981zM120.2 304.478l-44.493 5.42a2.772 2.993 0 1 0 .606 5.95l44.521-5.42a2.774 2.995 0 1 0-.635-5.95z" style="text-indent:0;text-align:start;line-height:normal;text-transform:none;block-progression:tb;marker:none;-inkscape-font-specification:Sans" font-weight="400" fill="#333" overflow="visible" enable-background="accumulate" font-family="Sans"/><path d="M153.036 186.984a2.756 2.756 0 0 0-2.75 2.75v2.063c0 1.514 1.236 2.719 2.75 2.719 6.31-.81 2.228 17.56 1.344 17.656-4.29 0-7.75 3.46-7.75 7.75v24.781c0 4.29 3.46 7.75 7.75 7.75h12.531c4.29 0 7.719-3.46 7.719-7.75v-24.781c0-4.29-3.429-7.75-7.719-7.75-2.25-2.748-4.662-17.717 1.344-17.656a2.703 2.703 0 0 0 2.718-2.72v-2.062c0-1.514-1.204-2.75-2.718-2.75z" style="marker:none" fill="url(#e)" overflow="visible" enable-background="accumulate" transform="translate(-63.192 -17.383)"/><path style="marker:none" d="M258.474 72.422a640.935 640.935 0 0 0-21.75-2.625 648.894 648.894 0 0 0-44.938-3.125 662.022 662.022 0 0 0-23.094-.406c-9.193 0-18.302.192-27.312.562-9.01.37-17.916.903-26.719 1.625a640.703 640.703 0 0 0-26.063 2.688 622.244 622.244 0 0 0-25.25 3.656c-.05.781-.156 1.59-.156 2.344 0 20.779 19.193 38.51 38.656 49.5 1.738 1.972 4.334 4.019 6.75 6.406.078.077.142.172.22.25.556.556.978 1.123 1.5 1.719.553.633 1.171 1.22 1.655 1.906.162.23.224.514.375.75.743 1.152 1.426 2.33 1.844 3.656.017.054.046.102.063.156a342.27 342.27 0 0 1 24.625-2.656 359.987 359.987 0 0 1 25.906-.937c7.5 0 14.873.243 22.094.687a350.57 350.57 0 0 1 21.188 1.938c.077-.202.226-.365.312-.563.345-.791.819-1.494 1.281-2.219.297-.464.48-.997.813-1.437.435-.573.956-1.058 1.438-1.594.426-.476.77-.893 1.218-1.344.209-.21.383-.451.594-.656 2.31-2.238 4.754-4.188 6.406-6.062 19.468-10.989 38.656-28.716 38.656-49.5 0-1.519-.113-3.1-.312-4.72z" fill="url(#f)" overflow="visible" enable-background="accumulate" transform="translate(-63.192 -17.383)"/><path style="marker:none" d="M112.099 22.453c-11.727 3.22-24.359 7.39-32.688 16.25-8.942 9.512-15.302 24.211-16.063 36.094a622.244 622.244 0 0 1 25.25-3.656 640.703 640.703 0 0 1 26.063-2.688 655.321 655.321 0 0 1 26.719-1.625 662.022 662.022 0 0 1 73.125 1.031c7.49.521 14.886 1.174 22.218 1.938 7.333.764 14.587 1.63 21.75 2.625a49.44 49.44 0 0 0-.78-4.531c-.065-.292-.15-.584-.22-.875-2.377-10.049-7.846-20.803-14.906-28.313-8.329-8.86-20.96-13.03-32.687-16.25-15.762-4.327-32.507-5.07-48.89-5.07-16.385 0-34.747 1.32-48.892 5.07z" fill="url(#g)" overflow="visible" enable-background="accumulate" transform="translate(-63.192 -17.383)"/><path style="marker:none" d="M137.417 272.037h47.145a2.727 2.727 0 0 1 2.733 2.733s2.413 7.011 0 7.288c-18.827 2.96-31.346 4.555-49.878 6.15a2.727 2.727 0 0 1-2.733-2.734V274.77a2.727 2.727 0 0 1 2.733-2.733z" fill="url(#h)" overflow="visible" enable-background="accumulate" transform="translate(-63.192 -17.383)"/><path style="text-indent:0;text-align:start;line-height:normal;text-transform:none;block-progression:tb;marker:none;-inkscape-font-specification:Sans" d="M185.124 288.39a3 3 0 0 0-.219.032l-48.187 5.437a3 3 0 1 0 .656 5.938l48.219-5.406a3.01 3.01 0 1 0-.469-6z" font-weight="400" fill="url(#i)" overflow="visible" enable-background="accumulate" font-family="Sans" transform="translate(-63.192 -17.383)"/><path style="text-indent:0;text-align:start;line-height:normal;text-transform:none;block-progression:tb;marker:none;-inkscape-font-specification:Sans" d="M185.02 299.234l-48.188 5.438a3.002 3.002 0 1 0 .656 5.969l48.219-5.438a3.004 3.004 0 1 0-.688-5.969z" font-weight="400" fill="url(#j)" overflow="visible" enable-background="accumulate" font-family="Sans" transform="translate(-63.192 -17.383)"/><path style="text-indent:0;text-align:start;line-height:normal;text-transform:none;block-progression:tb;marker:none;-inkscape-font-specification:Sans" d="M185.124 310.047a3 3 0 0 0-.219.031l-48.187 5.438a3 3 0 1 0 .656 5.937l48.219-5.406a3.01 3.01 0 1 0-.469-6z" font-weight="400" fill="url(#k)" overflow="visible" enable-background="accumulate" font-family="Sans" transform="translate(-63.192 -17.383)"/><path style="text-indent:0;text-align:start;line-height:normal;text-transform:none;block-progression:tb;marker:none;-inkscape-font-specification:Sans" d="M185.043 320.89l-46.532 5.438a2.9 3.002 0 1 0 .634 5.969l46.562-5.438a2.9 3.004 0 1 0-.664-5.968z" font-weight="400" fill="url(#l)" overflow="visible" enable-background="accumulate" font-family="Sans" transform="translate(-63.192 -17.383)"/><path style="marker:none" d="M131.495 252.905h58.988a2.727 2.727 0 0 1 2.733 2.734v16.626a2.727 2.727 0 0 1-2.733 2.733h-58.988a2.727 2.727 0 0 1-2.733-2.733v-16.626a2.727 2.727 0 0 1 2.733-2.734z" fill="url(#m)" overflow="visible" enable-background="accumulate" transform="translate(-63.192 -17.383)"/><path style="marker:none" d="M127.623 246.984h66.732a2.727 2.727 0 0 1 2.733 2.733v.91a2.727 2.727 0 0 1-2.733 2.734h-66.732a2.727 2.727 0 0 1-2.733-2.733v-.911a2.727 2.727 0 0 1 2.733-2.733z" fill="url(#n)" overflow="visible" enable-background="accumulate" transform="translate(-63.192 -17.383)"/><path style="text-indent:0;text-align:start;line-height:normal;text-transform:none;block-progression:tb;marker:none;-inkscape-font-specification:Sans" d="M173.505 345.766s-8.299 1.594-12.5 1.625c-4.184.03-12.469-1.438-12.469-1.438.922 1.592 2.3 3.278 4.375 4.406 2.09 1.137 4.701 1.688 8.063 1.688 3.36 0 6.005-.55 8.093-1.688s3.458-2.834 4.375-4.437c.03-.05.034-.107.063-.156z" font-weight="400" fill="url(#o)" overflow="visible" enable-background="accumulate" font-family="Sans" transform="translate(-63.192 -17.383)"/><path style="marker:none" d="M1931.99-11.806c-58.008-7.959-117.23-7.387-175.017 2.13-1.16 15.001 9.226 27.898 20.238 36.824 4.755 4.287 10.738 6.991 15.593 11.02 4.8 2.682 7.51 9.691 11.17 11.78 27.416-3.815 55.328-4.014 82.804-.677 2.727-5.537 7.642-9.752 12.455-13.387 14.004-8.426 28.126-20.06 32.263-36.601.833-3.63.98-7.4.493-11.089z" transform="matrix(1 0 0 1.14825 -1746.752 66.607)" fill="url(#p)" overflow="visible" filter="url(#q)" enable-background="accumulate"/><path style="marker:none" d="M208.38 139.953c-.086.198-.235.36-.313.563a350.579 350.579 0 0 0-21.187-1.938 359.663 359.663 0 0 0-22.094-.687c-8.82 0-17.467.328-25.906.937a342.27 342.27 0 0 0-24.625 2.656c-.016-.054-.045-.102-.063-.156.27.855.474 1.748.562 2.688v29.937c0 1.157.012 2.31.063 3.438v.125a75.07 75.07 0 0 0-.063 3.406v33.031c0 19.179 7.165 34.625 16.063 34.625h60.343c8.899 0 16.063-15.446 16.063-34.625v-33.031c0-1.156-.043-2.28-.094-3.406v-.125a76.11 76.11 0 0 0 .094-3.438v-26.25c.015-.395 0-.808 0-1.219v-2.062c.033-.521.099-1.035.188-1.531.075-.42.168-.818.28-1.22.172-.6.443-1.155.688-1.718z" fill="url(#r)" overflow="visible" enable-background="accumulate" transform="translate(-63.192 -17.383)"/></g></svg>