<svg viewBox="0 0 472.75 474.15" xmlns="http://www.w3.org/2000/svg" xmlns:xlink="http://www.w3.org/1999/xlink"><defs><linearGradient id="d"><stop stop-color="#fff" offset="0"/><stop stop-color="#d4d4d4" offset=".641"/><stop stop-color="gray" offset="1"/></linearGradient><linearGradient id="b"><stop stop-color="#fff" offset="0"/><stop stop-color="#ccc" offset="1"/></linearGradient><linearGradient id="c"><stop stop-color="#fff" offset="0"/><stop stop-color="#717171" offset="1"/></linearGradient><linearGradient id="a"><stop stop-color="#1a1a1a" offset="0"/><stop stop-color="#717171" offset="1"/></linearGradient><linearGradient id="e" x1="65.67" x2="295.96" y1="521.02" y2="521.02" gradientTransform="translate(2 2)" gradientUnits="userSpaceOnUse" xlink:href="#a" spreadMethod="reflect"/><linearGradient id="f" x1="296.22" x2="296.22" y1="121.96" y2="361.42" gradientTransform="translate(0 285.87)" gradientUnits="userSpaceOnUse" xlink:href="#b"/><linearGradient id="g" x1="65.67" x2="295.96" y1="521.02" y2="521.02" gradientUnits="userSpaceOnUse" xlink:href="#a" spreadMethod="reflect"/><linearGradient id="h" x1="168.42" x2="168.42" y1="137.32" y2="383.37" gradientTransform="translate(0 285.87)" gradientUnits="userSpaceOnUse" xlink:href="#b"/><radialGradient id="i" cx="180.82" cy="521.02" r="88.004" gradientUnits="userSpaceOnUse" xlink:href="#a" spreadMethod="reflect"/><linearGradient id="x" x1="218.11" x2="218.11" y1="784.41" y2="829.75" gradientTransform="translate(-42.931 2.8)" gradientUnits="userSpaceOnUse" xlink:href="#b"/><linearGradient id="y" x1="207.33" x2="240.16" y1="802.35" y2="802.35" gradientTransform="translate(-42.931 2.8)" gradientUnits="userSpaceOnUse" xlink:href="#a"/><linearGradient id="m" x1="516.69" x2="633.87" y1="483.65" y2="483.65" gradientTransform="rotate(90 445.075 297.685) scale(1.1619)" gradientUnits="userSpaceOnUse" xlink:href="#c"/><linearGradient id="n" x1="362.19" x2="580.88" y1="479.18" y2="481.09" gradientUnits="userSpaceOnUse" xlink:href="#b"/><linearGradient id="o" x1="598.23" x2="627.81" y1="514.68" y2="378.55" gradientUnits="userSpaceOnUse" xlink:href="#c" spreadMethod="reflect"/><radialGradient id="p" cx="575.28" cy="483.65" r="58.589" gradientTransform="matrix(1.3319 0 0 1.3675 -190.92 -177.73)" gradientUnits="userSpaceOnUse" xlink:href="#a"/><radialGradient id="q" cx="575.28" cy="483.65" r="58.589" gradientTransform="matrix(1.3319 0 0 1.3675 -190.92 -177.73)" gradientUnits="userSpaceOnUse" xlink:href="#d"/><radialGradient id="r" cx="758.97" cy="527.46" r="4.813" gradientTransform="translate(-632.91 -45.942) scale(1.0749)" gradientUnits="userSpaceOnUse" xlink:href="#b" spreadMethod="reflect"/><radialGradient id="s" cx="650.82" cy="530.78" r="1.947" gradientTransform="matrix(2.2469 0 0 2.2468 -1279.4 -671.56)" gradientUnits="userSpaceOnUse" xlink:href="#b"/><radialGradient id="t" cx="758.97" cy="527.46" r="4.813" gradientTransform="translate(-531.84 24.278) scale(.94175)" gradientUnits="userSpaceOnUse" xlink:href="#c"/><radialGradient id="u" cx="182.92" cy="521.02" r="3.264" gradientTransform="matrix(1 0 0 .99272 0 3.792)" gradientUnits="userSpaceOnUse" xlink:href="#c"/><linearGradient id="v" x1="719.4" x2="591.12" y1="362.87" y2="546.79" gradientTransform="matrix(0 -1.0254 -1.0254 0 677.25 1110.4)" gradientUnits="userSpaceOnUse" xlink:href="#a" spreadMethod="reflect"/><radialGradient id="w" cx="182.91" cy="525.75" r="6.344" gradientTransform="matrix(1 0 0 .33005 0 352.22)" gradientUnits="userSpaceOnUse" xlink:href="#c"/><linearGradient id="j" x1="148.16" x2="169.89" y1="510.93" y2="548.56" gradientUnits="userSpaceOnUse" xlink:href="#c" spreadMethod="reflect"/><linearGradient id="k" x1="229.35" x2="241.67" y1="522.28" y2="500.94" gradientUnits="userSpaceOnUse" xlink:href="#c" spreadMethod="reflect"/><radialGradient id="l" cx="445.33" cy="802.57" r="3.234" gradientTransform="translate(112.89 203.45) scale(.7465)" gradientUnits="userSpaceOnUse" xlink:href="#d"/></defs><g color="#000"><g transform="translate(172.639 -164.011)"><rect x="68.67" y="408.87" width="228.29" height="228.29" rx="24.244" ry="24.244" fill="#333" stroke="url(#e)" stroke-width="2"/><rect x="66.67" y="406.87" width="228.29" height="228.29" rx="24.244" ry="24.244" fill="url(#f)" stroke="url(#g)" stroke-width="2"/><rect x="92.298" y="435.45" width="177.04" height="174.01" rx="18.801" ry="18.479" fill="#333"/><rect x="93.813" y="434.02" width="174.01" height="174.01" rx="18.479" ry="18.479" fill="url(#h)" stroke="url(#i)" stroke-width="1.2"/></g><g fill="#333"><path transform="rotate(90 247.135 477.754) scale(.72501)" d="M201.43 510.93a25.714 25.714 0 0 1-25.714 25.714 25.714 25.714 0 0 1-25.714-25.714 25.714 25.714 0 0 1 25.714-25.714 25.714 25.714 0 0 1 25.714 25.714z" stroke="url(#j)" stroke-width="3.473"/><path transform="translate(229.079 -6.541) scale(.71351)" d="M201.43 510.93a25.714 25.714 0 0 1-25.714 25.714 25.714 25.714 0 0 1-25.714-25.714 25.714 25.714 0 0 1 25.714-25.714 25.714 25.714 0 0 1 25.714 25.714z" stroke="url(#j)" stroke-width="2.803"/><path transform="translate(261.579 87.929) scale(.5286)" d="M201.43 510.93a25.714 25.714 0 0 1-25.714 25.714 25.714 25.714 0 0 1-25.714-25.714 25.714 25.714 0 0 1 25.714-25.714 25.714 25.714 0 0 1 25.714 25.714z" stroke="url(#k)" stroke-width="3.784"/></g><path d="M445.47 800.22c-1.772 0-3.25 1.447-3.25 3.219 0 1.771 1.478 3.25 3.25 3.25s3.219-1.479 3.219-3.25a3.227 3.227 0 0 0-3.219-3.219z" fill="url(#l)" style="block-progression:tb;text-indent:0;text-transform:none" transform="translate(-91.011 -445.441)"/></g><g transform="translate(-63.513 -405.879)" color="#000"><rect x="68.67" y="408.87" width="228.29" height="228.29" rx="24.244" ry="24.244" fill="#333" stroke="url(#e)" stroke-width="2"/><rect x="66.67" y="406.87" width="228.29" height="228.29" rx="24.244" ry="24.244" fill="url(#f)" stroke="url(#g)" stroke-width="2"/><rect x="92.298" y="435.45" width="177.04" height="174.01" rx="18.801" ry="18.479" fill="#333"/><rect x="93.813" y="434.02" width="174.01" height="174.01" rx="18.479" ry="18.479" fill="url(#h)" stroke="url(#i)" stroke-width="1.2"/><path d="M129.03 476.88c-10.144 11.888-16.281 27.303-16.281 44.156 0 37.596 30.467 68.062 68.062 68.062s68.062-30.467 68.062-68.062c0-16.848-6.111-32.27-16.25-44.156 8.61 11.093 13.75 25.027 13.75 40.156 0 36.201-29.361 65.531-65.562 65.531s-65.531-29.33-65.531-65.531c0-15.134 5.136-29.062 13.75-40.156z" fill="url(#m)"/><path transform="translate(-462.79 -20.071) scale(1.1188)" d="M633.87 483.65a58.589 58.589 0 0 1-58.589 58.589 58.589 58.589 0 0 1-58.589-58.589 58.589 58.589 0 0 1 58.589-58.589 58.589 58.589 0 0 1 58.589 58.589z" fill="url(#n)"/><path transform="translate(-409.09 25.077) scale(1.0254)" d="M633.87 483.65a58.589 58.589 0 0 1-58.589 58.589 58.589 58.589 0 0 1-58.589-58.589 58.589 58.589 0 0 1 58.589-58.589 58.589 58.589 0 0 1 58.589 58.589z" fill="url(#o)"/><path transform="translate(112.4 461.74) scale(.12258)" d="M633.87 483.65a58.589 58.589 0 0 1-58.589 58.589 58.589 58.589 0 0 1-58.589-58.589 58.589 58.589 0 0 1 58.589-58.589 58.589 58.589 0 0 1 58.589 58.589z" fill="url(#p)"/><path transform="translate(115.03 463.95) scale(.11801)" d="M633.87 483.65a58.589 58.589 0 0 1-58.589 58.589 58.589 58.589 0 0 1-58.589-58.589 58.589 58.589 0 0 1 58.589-58.589 58.589 58.589 0 0 1 58.589 58.589z" fill="url(#q)"/><path d="M182.11 515.85c-.271 0-.504.2-.504.47v3.393h-3.393c-.27 0-.47.233-.47.504v1.612c0 .271.2.47.47.47h3.393v3.427c0 .271.233.47.504.47h1.612c.272 0 .504-.199.504-.47V522.3h3.393c.271 0 .47-.2.47-.47v-1.613c0-.271-.199-.504-.47-.504h-3.393v-3.393c0-.27-.232-.47-.504-.47h-1.612z" fill="url(#r)"/><path d="M163.818 521.02a8.081 8.081 0 0 1-8.081 8.081 8.081 8.081 0 0 1-8.082-8.081 8.081 8.081 0 0 1 8.082-8.081 8.081 8.081 0 0 1 8.08 8.08zM217.99 521.02a8.081 8.081 0 0 1-8.081 8.081 8.081 8.081 0 0 1-8.082-8.081 8.081 8.081 0 0 1 8.082-8.081 8.081 8.081 0 0 1 8.08 8.08z" stroke="#333" stroke-width="2.5181880100000003"/><path d="M182.23 516.65c-.23 0-.426.168-.426.398v1.42c-.259.624-.795 1.19-1.42 1.448H178.935a.35.35 0 0 0-.284.142.395.395 0 0 0-.113.284v1.363c0 .058.009.12.029.17.02.049.05.08.085.114.071.088.16.142.284.142h1.448c.625.26 1.162.824 1.42 1.449V525c0 .23.197.398.426.398h1.364c.229 0 .426-.169.426-.398v-1.42a2.8 2.8 0 0 1 1.448-1.449h1.42a.349.349 0 0 0 .284-.142c.036-.035.066-.065.085-.113a.49.49 0 0 0 .029-.17v-1.364a.397.397 0 0 0-.113-.284.35.35 0 0 0-.284-.142h-1.42a2.8 2.8 0 0 1-1.449-1.448v-1.42c0-.23-.197-.398-.426-.398h-1.363z" fill="url(#s)"/><path d="M182.15 515.94h1.537c.258 0 .48.195.48.462v1.648c.291.725.928 1.381 1.632 1.682h1.601a.39.39 0 0 1 .32.165c.08.082.128.196.128.33v1.582a.566.566 0 0 1-.032.198c-.022.056-.056.09-.096.132a.39.39 0 0 1-.32.165h-1.6c-.705.3-1.341.956-1.633 1.681v1.649a.468.468 0 0 1-.48.462h-1.537a.468.468 0 0 1-.48-.462v-1.649c-.292-.725-.897-1.38-1.6-1.681h-1.633a.39.39 0 0 1-.32-.165c-.04-.042-.075-.076-.097-.132a.621.621 0 0 1-.032-.198v-1.583c0-.133.048-.247.128-.33a.39.39 0 0 1 .32-.164h1.633c.704-.3 1.309-.957 1.6-1.682v-1.648c0-.267.222-.462.48-.462z" fill="#fff"/><path d="M182.21 516.49h1.413c.237 0 .441.174.441.412v1.472a2.901 2.901 0 0 0 1.5 1.5h1.472c.128 0 .22.056.295.148a.41.41 0 0 1 .117.294v1.412c0 .06-.009.125-.029.177-.02.05-.052.081-.088.118a.361.361 0 0 1-.295.147h-1.471a2.901 2.901 0 0 0-1.5 1.5v1.472c0 .238-.205.412-.442.412h-1.413c-.238 0-.441-.174-.441-.412v-1.471c-.269-.647-.825-1.233-1.472-1.501h-1.501a.362.362 0 0 1-.294-.147c-.037-.037-.068-.068-.088-.118a.536.536 0 0 1-.03-.177v-1.412a.41.41 0 0 1 .118-.294.361.361 0 0 1 .294-.148h1.501c.647-.268 1.203-.853 1.472-1.5v-1.472c0-.238.203-.412.44-.412z" fill="url(#t)"/><path d="M186.19 521c0-.076-.047-.133-.052-.207-.526-.032-1.156-.327-1.917-1.088-.745-.746-.991-1.394-1.036-1.918-.085-.006-.174 0-.26 0-.085 0-.175-.006-.259 0-.045.524-.29 1.172-1.036 1.918-.764.764-1.385 1.056-1.917 1.088-.004.074-.052.131-.052.207 0 .07.048.138.052.207.533.036 1.15.374 1.917 1.14.765.765 1.057 1.39 1.088 1.917.068.004.14 0 .208 0 .068 0 .14.004.207 0 .031-.526.324-1.152 1.088-1.917.761-.761 1.39-1.05 1.917-1.088.007-.085.052-.172.052-.259z" fill="url(#u)"/><path d="M241.39 520.51a60.8 60.8 0 0 1-.125 3.531c-1.83-31.535-27.975-56.53-59.969-56.53s-58.139 24.995-59.969 56.53a60.976 60.976 0 0 1-.094-3.531c0-33.181 26.882-60.094 60.063-60.094s60.094 26.913 60.094 60.094z" fill="url(#v)"/><path d="M120.78 520.03c-.005.334-.031.665-.031 1 0 33.181 26.882 60.062 60.062 60.062s60.094-26.882 60.094-60.062c0-.335-.026-.666-.031-1-.536 32.718-27.217 59.062-60.062 59.062s-59.495-26.345-60.031-59.062z" fill="#fff"/><path d="M180.81 453.47c-21.068 0-39.79 9.961-51.781 25.406 12.486-14.632 31.038-23.938 51.781-23.938 20.748 0 39.327 9.3 51.812 23.938-11.991-15.45-30.741-25.406-51.812-25.406z" fill="#e6e6e6"/><path d="M182.91 514.37a6.905 6.905 0 0 0-6.344 4.188c1.514-1.835 3.78-3.032 6.344-3.032 2.548 0 4.83 1.186 6.344 3a6.917 6.917 0 0 0-6.344-4.156z" fill="#fff"/><path d="M182.91 527.84a6.905 6.905 0 0 1-6.344-4.188c1.514 1.835 3.78 3.032 6.344 3.032 2.548 0 4.83-1.185 6.344-3a6.917 6.917 0 0 1-6.344 4.156z" fill="url(#w)"/></g><g transform="translate(174.782 -402.307)" color="#000"><rect x="68.67" y="408.87" width="228.29" height="228.29" rx="24.244" ry="24.244" fill="#333" stroke="url(#e)" stroke-width="2"/><rect x="66.67" y="406.87" width="228.29" height="228.29" rx="24.244" ry="24.244" fill="url(#f)" stroke="url(#g)" stroke-width="2"/><rect x="92.298" y="435.45" width="177.04" height="174.01" rx="18.801" ry="18.479" fill="#333"/><rect x="93.813" y="434.02" width="174.01" height="174.01" rx="18.479" ry="18.479" fill="url(#h)" stroke="url(#i)" stroke-width="1.2"/></g><g color="#000"><g transform="translate(-65.656 -167.583)"><rect x="68.67" y="408.87" width="228.29" height="228.29" rx="24.244" ry="24.244" fill="#333" stroke="url(#e)" stroke-width="2"/><rect x="66.67" y="406.87" width="228.29" height="228.29" rx="24.244" ry="24.244" fill="url(#f)" stroke="url(#g)" stroke-width="2"/><rect x="92.298" y="435.45" width="177.04" height="174.01" rx="18.801" ry="18.479" fill="#333"/><rect x="93.813" y="434.02" width="174.01" height="174.01" rx="18.479" ry="18.479" fill="url(#h)" stroke="url(#i)" stroke-width="1.2"/></g><g stroke="#4d4d4d" transform="translate(-65.656 -449.013)"><rect x="160.87" y="785.45" width="40.406" height="40.406" rx="2.02" ry="2.02" fill="#333"/><rect x="160.61" y="784.95" width="40.406" height="40.406" rx="2.02" ry="2.02" fill="url(#x)"/><path d="M176.41 792.71v3.281h-3.438v4.688h-7.312v16.906h30.312v-16.906h-7.344v-4.688h-3.406v-3.281h-8.813z" fill="url(#y)" stroke-width="2.518"/></g><path d="M111.854 346.637v2.64h-2.774v3.77h-5.901v13.6h24.462v-13.6h-5.927v-3.77h-2.748v-2.64h-7.112z" fill="#333"/><g fill="#decd87" stroke="#333"><path d="M105.464 361.377h2.222v4.821h-2.222v-4.821M107.934 361.377h2.222v4.821h-2.222v-4.821M110.404 361.377h2.222v4.821h-2.222v-4.821M112.874 361.377h2.222v4.821h-2.222v-4.821M115.344 361.377h2.222v4.821h-2.222v-4.821M117.814 361.377h2.222v4.821h-2.222v-4.821M120.284 361.377h2.222v4.821h-2.222v-4.821M122.754 361.377h2.222v4.821h-2.222v-4.821"/></g><path d="M96.384 334.347c-1.155 0-2.065.363-2.065.808v1.106c0-.445.91-.808 2.065-.808h37.549c1.155 0 2.097.363 2.097.808v-1.106c0-.445-.942-.808-2.097-.808H96.384z" fill="#ccc"/></g></svg>