<svg xmlns="http://www.w3.org/2000/svg" xmlns:xlink="http://www.w3.org/1999/xlink" height="512" width="512"><defs><linearGradient id="b"><stop offset="0" stop-color="#fff"/><stop offset="1" stop-color="#fff" stop-opacity="0"/></linearGradient><linearGradient id="c"><stop offset="0"/><stop offset=".5" stop-opacity=".498"/><stop offset="1"/></linearGradient><linearGradient id="a"><stop offset="0" stop-color="#fff"/><stop offset=".264" stop-color="#7f7f7f"/><stop offset="1"/></linearGradient><linearGradient xlink:href="#a" id="d" gradientUnits="userSpaceOnUse" spreadMethod="reflect" x1="501.37" y1="-103.188" x2="248.062" y2="330.147"/><linearGradient xlink:href="#a" id="e" gradientUnits="userSpaceOnUse" x1="515.735" y1="55.558" x2="144.231" y2="293.337"/><radialGradient xlink:href="#a" id="h" gradientUnits="userSpaceOnUse" gradientTransform="matrix(0 1.65288 -2.03785 0 1110.229 -967.898)" cx="607.508" cy="419.08" fx="607.508" fy="419.08" r="147.511"/><linearGradient xlink:href="#a" id="i" gradientUnits="userSpaceOnUse" x1="380.876" y1="279.351" x2="285.039" y2="19.466"/><radialGradient xlink:href="#b" id="j" gradientUnits="userSpaceOnUse" gradientTransform="matrix(3.09135 0 0 3.0611 -31.164 -284.128)" cx="89.492" cy="152.175" fx="89.492" fy="152.175" r="60.375"/><linearGradient xlink:href="#c" id="k" gradientUnits="userSpaceOnUse" x1="449.419" y1="318.199" x2="461.131" y2="311.437"/><radialGradient xlink:href="#b" id="l" cx="459.934" cy="323.182" fx="459.934" fy="323.182" r="7.941" gradientTransform="matrix(1.88678 .50556 -.43047 1.60654 -268.603 -424.225)" gradientUnits="userSpaceOnUse"/><linearGradient xlink:href="#c" id="m" gradientUnits="userSpaceOnUse" x1="449.419" y1="318.199" x2="461.131" y2="311.437" gradientTransform="matrix(.45493 0 0 .45493 248.425 186.962)"/><radialGradient xlink:href="#b" id="n" gradientUnits="userSpaceOnUse" gradientTransform="matrix(.85836 .23 -.19584 .73087 126.228 -6.033)" cx="459.934" cy="323.182" fx="459.934" fy="323.182" r="7.941"/><linearGradient xlink:href="#a" id="f" x1="49.063" y1="550.031" x2="15.07" y2="50.828" gradientUnits="userSpaceOnUse"/><linearGradient xlink:href="#a" id="g" x1="21.047" y1="478.952" x2="9.098" y2="52.867" gradientUnits="userSpaceOnUse"/></defs><path d="M401.888 349.896l9.637-.862 95.168-9.446.268-.24 20.113-238.182-.23-.368-136.118-2.969.052 247.14z" fill="url(#d)" transform="matrix(.97816 0 0 .97816 -6.23 5.592)"/><path d="M317.76 100.014l-6.33.028 189.62 4.197 8.057-.05z" fill="#010101"/><path d="M310.98 100.043l189.497 4.2.573-.004-189.62-4.198z" fill="#010101"/><path d="M310.98 100.043l-69.05.296 169.699 4.467 88.848-.563z" fill="#7a7a7a"/><path d="M246.107 97.178l-4.97 181.406 160.75 71.313 15.407-248.031z" fill="url(#e)" transform="matrix(.97816 0 0 .97816 -6.23 5.592)"/><path d="M241.456 100.341l169.558 4.469.615-.004-169.7-4.467z" fill="#020202"/><path d="M241.456 100.341l-6.704.029 167.54 4.495 8.722-.055z" fill="#1a1a1a"/><path d="M402.292 104.865l-167.54-4.495-.245.267 167.453 4.6z" fill="#4d4d4d"/><path d="M494.019 185.35l-87.546 3.454-5.165 80.117 86.322-6.144 6.389-77.428zm-6.45 78.1l-86.292 6.143-4.983 77.397 85.1-8.62 6.175-74.92z" fill="#b9b9b9"/><path d="M487.583 263.47l-86.306 6.123-.044.688 86.295-6.145zM494.26 185.349l-87.591 3.447-.245.319 87.562-3.457z" fill="#fff"/><path d="M494.573 184.74l-87.62 3.438-.245.32 87.591-3.448z" fill="#434343"/><path d="M496.72 158.794l-88.04 2.522-1.727 26.862 87.62-3.438z" fill="#b9b9b9"/><path d="M496.477 158.808l-88.023 2.508.201.387 88.04-2.523z" fill="#fff"/><path d="M496.778 158.098l-88.052 2.498-.247.333 88.023-2.508z" fill="#464646"/><path d="M498.95 131.858l-88.476 1.56-1.748 27.178 88.052-2.498z" fill="#b9b9b9"/><path d="M498.508 131.124l-88.44 1.533.203.381 88.458-1.547z" fill="#525252"/><path d="M498.704 131.88l-88.458 1.547.203.381 88.476-1.56z" fill="#ececec"/><path d="M500.7 104.604l-88.867.576-1.764 27.477 88.44-1.533z" fill="#b9b9b9"/><path d="M411.833 105.18l88.867-.576-.223-.361-88.848.563z" fill="#4f4f4f"/><g><path d="M51.03 405.107l.074 6.752L85.45 456.2l1.955.398 397.553-50.866.194-.586.536-6.626-72.03-33.451-360.41 39.198-1.237.244z" fill="#333"/><path style="text-indent:0;text-align:start;line-height:normal;text-transform:none;block-progression:tb;marker:none;-inkscape-font-specification:Sans" d="M195.87 315.6l-.723 2.205c45.244 14.857 132.669 29.738 175.664 55.284l1.192-1.987c-43.234-25.688-130.848-40.63-176.134-55.501z" font-weight="400" color="#000" fill="#999" overflow="visible" font-family="Sans"/><path style="text-indent:0;text-align:start;line-height:normal;text-transform:none;block-progression:tb;marker:none;-inkscape-font-specification:Sans" d="M195.579 315.638l-.344 1.094c45.358 14.845 132.72 29.765 175.875 55.406l.594-1c-43.235-25.688-130.839-40.628-176.125-55.5z" font-weight="400" color="#000" fill="#e6e6e6" overflow="visible" font-family="Sans"/><path d="M353.277 408.053l13.158-1.613.155-2.775-13.165 1.6z" fill="#8a8a8a"/><path d="M352.987 405.865l-.147 2.791.437-.603.148-2.787z" fill="#2a2a2a"/><path d="M418.643 370.91l-1.382 1.152 1.832.247z" fill="#5a5a5a"/><path d="M418.925 374.835l.168-2.526-1.832-.247-.167 2.525z" fill="#a5a5a5"/><path d="M418.644 370.921l-49.567 5.528-8.924 1.084 2.312 1.12.398-.506 54.408-6.07 1.373-1.156z" fill="#6b6b6b"/><path d="M362.73 380.726l54.364-6.14.167-2.524-54.39 6.091z" fill="#898989"/><path d="M485.688 398.52l-71.279-33.145-.762-.317 70.965 33.004z" fill="#0e0e0e"/><path d="M351.9 374.672l.03-.557-.298-.86-1.522 1.167z" fill="#5b5b5b"/><path d="M350.11 374.422l-.132 2.543 1.79.253.133-2.546z" fill="#a2a2a2"/><path d="M418.925 374.835l53.336 25.43.212-2.726-53.38-25.23z" fill="#6c6c6c"/><path d="M419.093 372.31l53.38 25.23 3.008.126-56.838-26.757z" fill="#606060"/><path d="M351.767 377.218l4.871 2.62.137-2.566-4.874-2.6z" fill="#616161"/><path d="M351.627 373.27l.29.83v.578l4.479 2.385.975.65 2.927.145-.976-.506-7.695-4.083z" fill="#3c3c3c"/><path d="M356.775 377.272l-.394.502 2.95-.43z" fill="#353535"/><path d="M362.48 378.658l-.14 2.577.39-.51.141-2.572z" fill="#2a2a2a"/><path d="M359.878 378.927l.42-1.07-2.925-.133.682.945z" fill="#747474"/><path d="M358.055 378.67l-.138 2.576 1.821.26.14-2.579z" fill="#a2a2a2"/><path d="M351.632 373.255l-45.913 5.037 2.884.699 41.507-4.57z" fill="#6e6e6e"/><path d="M308.492 381.57l41.486-4.605.132-2.543-41.507 4.569z" fill="#8e8e8e"/><path d="M315.956 385.984l41.961-4.738.138-2.577-41.982 4.7z" fill="#8d8d8d"/><path d="M359.738 381.506l18 9.684.154-2.656-18.014-9.607z" fill="#636363"/><path d="M380.592 388.635L360.3 377.857l-.421 1.07 18.014 9.607z" fill="#5d5d5d"/><path d="M308.126 379.499l-.111 2.583.477-.512.111-2.579z" fill="#323232"/><path d="M308.126 379.499l.477-.508-2.884-.699z" fill="#444"/><path d="M305.373 378.33l-1.638 1.197 1.781.26z" fill="#5c5c5c"/><path d="M305.406 382.372l.11-2.586-1.781-.259-.11 2.584z" fill="#a0a0a0"/><path d="M313.692 385.23l-4.572-2.709-1.105-.439 4.564 2.706zM312.694 382.183l-4.568-2.684-2.407-1.207 5.86 3.447z" fill="#181818"/><path d="M311.23 381.778l-5.857-3.448.143 1.456 4.55 2.69z" fill="#5a5a5a"/><path d="M305.406 382.372l4.546 2.711.113-2.607-4.549-2.69z" fill="#5a5a5a"/><path d="M485.152 405.146l.536-6.626-.193.575-.537 6.637z" fill="#171717"/><path d="M475.481 397.666l-3.008-.127-.221.57z" fill="#3a3a3a"/><path d="M311.417 382.688l2.635-.294-2.472-.655-.35.04z" fill="#3e3e3e"/><path d="M311.23 381.778l-1.165.698-.48.52 1.832-.308z" fill="#373737"/><path d="M315.956 385.984l.117-2.614-.471.522-.117 2.619z" fill="#303030"/><path d="M313.145 382.66l2.457 1.232.471-.522z" fill="#444"/><path d="M380.592 388.635l-2.7-.1-.373.54z" fill="#373737"/><path d="M313.016 382.697l-1.652 1.224 1.809.267z" fill="#5c5c5c"/><path d="M313.057 386.809l.116-2.62-1.81-.268-.114 2.618z" fill="#a0a0a0"/><path d="M305.373 378.33l-62.735 6.883 2.93.717 58.167-6.403z" fill="#727272"/><path d="M245.489 388.565l58.137-6.454.109-2.584-58.167 6.403z" fill="#929292"/><path d="M411.541 404.925l-49.06-26.267-2.327-1.11 50.267 26.924z" fill="#141414"/><path d="M313.145 382.66l18.921 11.128.43.034-16.894-9.93z" fill="#181818"/><path d="M244.972 386.461l-.079 2.639.596-.535.079-2.635z" fill="#3b3b3b"/><path d="M242.638 385.213l2.334 1.248.596-.53z" fill="#484848"/><path d="M373.889 394.806l-1.586 1.296 1.94.288z" fill="#5e5e5e"/><path d="M374.087 399.107l.156-2.717-1.94-.288-.155 2.714z" fill="#a2a2a2"/><path d="M250.166 392.38l-4.109-2.834-1.164-.446 4.1 2.832z" fill="#1e1e1e"/><path d="M236.947 385.838l-1.816 1.241 1.765.272z" fill="#5d5d5d"/><path d="M236.822 389.997l.074-2.646-1.765-.272-.074 2.644z" fill="#9c9c9c"/><path d="M242.638 385.213l5.263 3.607 1.174.45-4.103-2.809z" fill="#1d1d1d"/><path d="M399.283 398.56l-1.552 1.32 1.986.294z" fill="#5e5e5e"/><path d="M399.545 402.921l.172-2.747-1.986-.295-.171 2.745z" fill="#a3a3a3"/><path d="M358.807 400.418l13.341-1.602.155-2.714-13.348 1.588z" fill="#8a8a8a"/><path d="M373.889 394.806l-18.013 2.136 3.079.748 13.348-1.588z" fill="#707070"/><path d="M242.154 389.46l-5.207-3.622-.05 1.513 4.042 2.826z" fill="#575757"/><path d="M384.102 400.4l-10.213-5.594.354 1.584 8.645 4.755z" fill="#5f5f5f"/><path d="M236.822 389.997l4.039 2.848.078-2.668-4.043-2.826z" fill="#505050"/><path d="M374.087 399.107l8.638 4.793.163-2.755-8.645-4.755z" fill="#636363"/><path d="M399.283 398.56l-15.181 1.84.766 1.043 12.863-1.564z" fill="#6e6e6e"/><path d="M384.704 404.2l12.856-1.576.17-2.745-12.862 1.564z" fill="#888"/><path d="M358.537 398.262l-.147 2.732.417-.576.148-2.728z" fill="#2a2a2a"/><path d="M355.876 396.942l2.661 1.32.418-.572z" fill="#454545"/><path d="M410.417 404.473l-11.134-5.913.434 1.614 9.5 5.067z" fill="#616161"/><path d="M399.545 402.921l9.491 5.107.181-2.787-9.5-5.067z" fill="#676767"/><path d="M240.327 390.723l1.808-.308.02-.956-1.216.718z" fill="#343434"/><path d="M384.704 404.2l.164-2.757-1.98-.298-.163 2.755z" fill="#a2a2a2"/><path d="M313.173 384.188l45.74 27.268 1.277-.763-47.174-27.996z" fill="#727272"/><path d="M236.947 385.838l-65.925 7.233 2.98.737 61.129-6.729z" fill="#757575"/><path d="M173.961 396.505l61.096-6.782.074-2.644-61.13 6.73z" fill="#979797"/><path d="M355.876 396.942l9.964 5.67 1.16.462-8.463-4.812z" fill="#171717"/><path d="M410.421 404.472h-.004l.552 1.06 2.32-.316z" fill="#404040"/><path d="M408.881 405.84l2.088-.308-.552-1.06-1.2.769z" fill="#3f3f3f"/><path d="M366.59 403.665l-.155 2.775.41-.596.154-2.77z" fill="#282828"/><path d="M365.84 402.612l-13.152 1.593.737 1.06 13.165-1.6z" fill="#707070"/><path d="M173.265 394.367l-.04 2.7.736-.562.04-2.697z" fill="#464646"/><path d="M173.265 394.367l.736-.559-2.979-.737z" fill="#4c4c4c"/><path d="M353.425 405.266l-.737-1.06-1.646.742 1.945.917z" fill="#545454"/><path d="M165.039 393.727l-2.012 1.29 1.747.286z" fill="#5d5d5d"/><path d="M163.027 395.016l-.034 2.707 1.746.288.035-2.708z" fill="#989898"/><path d="M173.225 397.068l3.543 2.978 1.243.455-3.552-2.98z" fill="#242424"/><path d="M176.81 397.321l-3.545-2.954-2.243-1.296 4.543 3.793z" fill="#232323"/><path d="M169.52 397.536l-4.481-3.809-.265 1.576 3.476 2.972z" fill="#545454"/><path d="M164.739 398.011l3.474 2.996.037-2.732-3.476-2.972z" fill="#454545"/><path d="M352.84 408.656l8.92 5.289 1.188.466-8.933-5.292z" fill="#191919"/><path d="M177.854 397.585l.727.027-1.771-.29-1.245-.458z" fill="#0c0c0c"/><path d="M351.042 404.948l9.666 5.685 1.207.479-8.928-5.247z" fill="#191919"/><path d="M168.25 398.275l-.757.574 1.78-.307.246-1.006z" fill="#313131"/><path d="M165.039 393.727l-69.357 7.61 3.03.76 64.315-7.08z" fill="#797979"/><path d="M98.715 404.858l64.278-7.135.035-2.707-64.315 7.08z" fill="#9a9a9a"/><path d="M360.708 410.633l-.518.06.329 1.082 3.013-.346zM360.19 410.693l-1.276.763-.44.623 2.045-.304z" fill="#4d4d4d"/><path d="M98.697 402.1l-.867.577v.94l.903.975-.036-2.493z" fill="#515151"/><path d="M98.713 402.096l-3.031-.76 2.14 1.348z" fill="#4f4f4f"/><path d="M81.695 402.871l-2.245 1.346 1.72.303z" fill="#5d5d5d"/><path d="M79.45 404.217l.014 2.779 1.718.305-.013-2.781z" fill="#919191"/><path d="M100.743 405.796l-2.921-3.112-2.14-1.347 3.74 3.994z" fill="#2a2a2a"/><path d="M81.695 402.871l-20.473 2.246 3.054.77 15.174-1.67z" fill="#7a7a7a"/><path d="M64.299 408.68l15.165-1.684-.014-2.779-15.174 1.67z" fill="#9e9e9e"/><path d="M53.246 404.254l-1.235.257-.982.596 2.423.612z" fill="#999"/><path d="M64.267 405.893l-.94.578.976 1.192-.036-1.77z" fill="#565656"/><path d="M85.28 406.903l-3.585-4.032-.526 1.649 2.78 3.147z" fill="#4f4f4f"/><path d="M61.222 405.117l2.09 1.372.964-.602z" fill="#515151"/><path d="M81.175 404.52v2.782l.83.975 1.952-.253v-.36l-2.782-3.144z" fill="#373737"/><path d="M100.743 405.796l-1.322-.465 2.175.76.895.01z" fill="#111"/><path d="M61.222 405.117l2.209 2.691 2.505 1.865-2.624-3.184zM85.293 406.904l-1.336.76-.687.469 1.481-.18.542-1.049z" fill="#2d2d2d"/><path d="M67.671 409.986l-1.735-.313-2.505-1.865 2.45 2.266z" fill="#212121"/><path d="M86.95 456.69l397.03-50.803.978-.155-397.553 50.866z" fill="#0e0e0e"/><path d="M95.726 461.077l406.43-52.001.55-6.786L95.7 453.33z" fill="url(#f)" transform="matrix(.97816 0 0 .97816 -6.23 5.592)"/><path d="M51.104 411.859L85.45 456.2l-.029-7.57-34.392-43.523z" fill="#343434"/><path d="M51.03 405.107L85.42 448.63l1.099-1.371-33.068-41.54z" fill="#ccc"/><path d="M95.9 444.667l.564-.016-1.941-.382-1.267-.232z" fill="#131313"/><path d="M85.421 448.63l.03 7.57 1.954.398-.026-7.577z" fill="#999"/><path d="M86.52 447.259l-1.099 1.371 1.958.39 2.985-1.692z" fill="#ccc"/><path d="M8.522 55.31l-4.335.397-1.518 1.59L7.51 301.23l4.191 4.335 1.517 1.373 143.5-10.874-.398 35.08.795-.434-.758.47-.145.072-16.366 1.445-26.084 2.348-1.337 1.41v5.13l1.265 1.192 35.007 28.974 133.493-13.548 1.336-1.517.217-5.42-3.251-2.42-3.433-1.915-11.994-6.683-28.65-16.005-24.494 2.132-7.406.65.722-34.646 159.83-12.14 1.264-1.408 11.922-219.693-1.156-1.445L8.522 55.309z"/><path d="M236.416 324.244l-36.02 4.3 5.672 3.468-1.264.614-42.017 3.793-2.673-.253-5.094-3.612-41.258 2.492 33.49 26.88 2.53 1.155 131.83-13.006-1.12-1.228-44.076-24.603z" fill="#161616" fill-opacity=".824"/><path d="M113.764 335.037l41.243-2.498.393-.773-15.56.94z" fill="#212121"/><path d="M283.54 356.676l-.589.534-.755.987z" fill="#060606"/><path d="M283.156 351.775l-.205 5.435.589-.534.205-5.424z" fill="#202020"/><path d="M280.494 348.863l1.108 1.212 1.554 1.7.589-.523z" fill="#171717"/><path d="M113.705 342.792l35 28.965-1.405-1.31-34.889-28.858z" fill="#030303"/><path d="M112.42 336.44l34.932 28.334-.099-2.83-33.489-26.907z"/><path d="M112.411 341.59l34.889 28.858.052-5.674-34.931-28.334z" fill="#222"/><path d="M148.705 371.757l133.491-13.56.755-.987-133.695 13.536z"/><path d="M149.256 370.746l133.695-13.536.205-5.435-133.845 13.292z"/><path d="M149.311 365.067l133.845-13.292-1.554-1.7-131.824 13.003z" fill="#1a1a1a"/><path d="M149.256 370.746l-1.956-.298 1.405 1.309zM149.778 363.078l-2.525-1.135.099 2.83 1.96.294z"/><path d="M147.352 364.774l-.052 5.674 1.956.298.055-5.679z"/><path d="M128.88 347.18l18.373 14.763 2.524 1.137 131.907-12.916-1.153-1.274z" fill="#0e0e0e"/><path d="M81.428 404.665l-12.934 1.408-.867 3.83 15.137-1.734-1.336-3.504zm1.806 4.804l-14.343 1.59-1.445-.361-.217.94 16.15-1.807-.145-.362z" fill="#6e6e6e"/><path d="M429.264 367.504l-6.906.59-361.552 39.484.222 1.477 33.795 42.475 3.915.074 403.066-50.379-72.54-33.721zm5.097 5.983l58.098 27.332-63.564 7.72-2.364.332-48.495 6.02-1.292.148-1.626-.96-1.218-.702-8.643-5.097 1.662-.776 13.444-1.625-10.157-5.799 18.394-2.179 10.452 5.725 15.512-1.884 11.376 6.057-51.376-27.553 9.123-1.108 50.674-5.65zm-68.513 2.401l8.864 4.69 20.757 11.007-46.463 5.43-3.14-.148-19.353-11.376.85-.11 44.357-4.95-.11-.074-.887.148-43.287 4.728h-.11l-2.586.295-62.493 6.944-2.438-.702-5.392-3.657 64.155-7.054 5.983 3.546.37-.074-6.02-3.509 46.943-5.134zm-39.483 9.64l47.128 27.96 1.108.664 1.625.96-1.292.148-270.508 33.61-2.733-.627-25.892-31.8v-1.257l.998-.664 247.904-27.738 1.662-1.256zm-77.747 3.213l5.318 3.694-.036.997-65.707 7.313-2.327-.739-4.653-3.878 67.405-7.387zm-73.537 8.052l4.58 3.915-.221 1.034-69.216 7.683-2.216-.776-3.804-4.063 70.877-7.793zm-85.207 9.344l3.693 4.137-.554 1.071-19.28 2.18-2.511-2.328-2.253-2.733 20.905-2.327z" fill="url(#g)" transform="matrix(.97816 0 0 .97816 -6.23 5.592)"/><path d="M68.891 411.06l-.975.65v1.228l.867 1.047.144-.072-.036-2.854z" fill="#565656"/><path d="M313.17 384.2l-.123 2.598 42.55 25.585 3.301-.397.03-.52L313.17 384.2z" fill="#5d5d5d"/><path d="M87.38 449.02l398.115-49.925-.883-1.033-394.248 49.266z" fill="#ececec"/><path d="M238.656 387.323l-11.561 1.265-.795 3.612 13.584-1.517-1.228-3.36zm-15.68 1.734l-11.705 1.265-.795 3.613 9.754-1.084 3.974-.434-1.228-3.36zm-15.86 1.734l-11.85 1.301-.795 3.649 10.477-1.156 3.396-.398-1.228-3.396zm-16.04 1.77l-11.995 1.337-.795 3.65 5.78-.651 8.238-.94-1.229-3.395zm-25.182 2.783l-12.21 1.336-.832 3.685 14.307-1.553-1.265-3.468zm-16.51 1.806l-12.356 1.373-.83 3.72 14.487-1.625-1.301-3.468zm-16.691 1.842l-12.5 1.373-.831 3.721 14.632-1.625-1.301-3.469zm34.9 1.012l-15.03 1.698-.072.361 15.246-1.698-.145-.361zm-51.808.867l-12.608 1.373-.868 3.757 14.777-1.662-1.3-3.468zm35.333.976l-15.21 1.698-.072.397 15.427-1.734-.145-.361zm-16.691 1.878l-15.39 1.734-.073.362 15.608-1.735-.145-.36zm-16.872 1.879l-15.57 1.734-.073.397 15.788-1.77-.145-.361z" fill="#6b6b6b"/><path d="M68.92 413.905l242.329-27.366.115-2.618L68.9 411.072z" fill="#979797"/><path d="M357.373 377.724l-44.228 4.936 2.928.71 41.982-4.7z" fill="#6f6f6f"/><path d="M399.838 368.928l2.191 1.08 3.137-.354-2.22-1.072z" fill="#2a2a2a"/><path d="M385.698 370.509l2.151 1.092 3.17-.358-2.18-1.084zM371.407 372.107l2.11 1.104 3.205-.362-2.141-1.095z" fill="#2b2b2b"/><path d="M400.104 368.964l1.973.973 2.823-.319-1.999-.965zM385.964 370.546l1.936.983 2.853-.322-1.963-.975zM371.673 372.144l1.9.994 2.883-.326-1.927-.985z" fill="#ccc"/><path d="M339.524 373.306l-2.095 4.371 3.324 1.806 2.492-.252.723-3.54zm-14.45 1.553l-2.06 4.408 3.18 1.806 2.528-.253.686-3.504zm-14.596 1.626l-1.626 3.432 3.396 1.987 1.77.47.723-3.432zm-17.74 1.915l-1.444 3.107 1.662-.181 1.156 3.288 2.023-.217.722-3.505zm-14.956 1.662l-1.445 3.107 1.517-.181 1.192 3.324 2.024-.253.722-3.505zm-15.101 1.625l-1.446 3.143 1.373-.144 1.192 3.287 2.06-.216.722-3.505zm-15.283 1.662l-1.77 3.938 2.276 1.517 2.385.687h.144l.759-3.577zm-23.952 2.637l-1.41 3.18.94-.109 1.228 3.36 2.096-.217.795-3.612zm-15.716 1.698l-1.373 3.18.76-.073 1.227 3.396 2.132-.216.795-3.65zm-15.896 1.735l-1.409 3.215.65-.072 1.229 3.396h.036l2.131-.217.795-3.649zm-16.04 1.77l-1.88 4.3 1.663 1.372 2.276.722.433-.036.795-3.649zm-25.218 2.746l-1.337 3.215h.145l1.192 3.215.29.253 1.986-.253.831-3.685zm-16.51 1.806l-1.373 3.251 1.12 3.071.433.398 1.951-.217.831-3.721zm-16.727 1.842l-1.445 3.541.939 2.529.65.65 1.879-.217.83-3.72zm-16.872 1.843l-1.915 4.697 1.229 1.3 1.806.65.722-.072.868-3.757zm-34.43 3.757l-1.734 4.48 1.626 2.023 1.698.217.867-3.83z" fill="#333"/><path d="M354.626 374.534l-10.658 1.156-.723 3.54 12.573-1.372-1.192-3.324zm-14.415 1.59l-10.803 1.192-.686 3.504 12.645-1.409-1.156-3.287zm-14.596 1.59l-10.874 1.228-.723 3.468 12.79-1.41-1.193-3.287zM307.66 379.7l-10.803 1.192-.722 3.505 12.897-1.445-1.083-3.107-.29-.145zm-14.704 1.626l-11.164 1.228-.722 3.505 13.042-1.445-1.156-3.288zm-15.102 1.662l-11.272 1.264-.722 3.505 13.186-1.445-1.192-3.324zm-15.246 1.698l-11.416 1.228-.759 3.577 13.367-1.518-1.192-3.287z" fill="#656565"/><path d="M414.384 379.858l.658-5.155-7.435-3.564-2.488 4.195z" fill="#333"/><path d="M427.32 378.373l-1.933-4.837-10.345 1.167-.658 5.155z" fill="#606060"/><path d="M400.251 381.48l.676-5.183-7.305-3.603-2.474 4.215z" fill="#333"/><path d="M413.325 379.98l-1.943-4.863-10.455 1.18-.676 5.183z" fill="#616161"/><path d="M385.967 383.12l.694-5.213-7.172-3.64-2.459 4.233zM435.405 390.125l.663-5.34-18.368-8.807-2.555 4.255z" fill="#333"/><path d="M399.18 381.603l-1.952-4.889-10.567 1.193-.694 5.213z" fill="#616161"/><path d="M410.411 386.583l.676-5.275-7.548-3.723-2.534 4.274z" fill="#333"/><path d="M423.65 385.032l-1.975-4.944-10.588 1.22-.676 5.275z" fill="#606060"/><path d="M448.675 388.538l-2-5-10.607 1.247-.663 5.34z" fill="#5f5f5f"/><path d="M395.943 388.278l.695-5.306-7.412-3.763-2.52 4.294z" fill="#333"/><path d="M409.327 386.71l-1.986-4.97-10.703 1.232-.695 5.306z" fill="#616161"/><path d="M420.916 391.858l.675-5.37-7.804-3.849-2.596 4.335z" fill="#333"/><path d="M434.325 390.254l-2.01-5.027-10.724 1.261-.675 5.37z" fill="#606060"/><path d="M353.944 386.796l.736-5.279-6.867-3.727-2.425 4.276z" fill="#333"/><path d="M367.474 385.243l-1.974-4.947-10.82 1.221-.736 5.28z" fill="#646464"/><path d="M406.259 393.611l.695-5.401-7.664-3.892-2.582 4.356z" fill="#333"/><path d="M419.817 391.99l-2.02-5.056-10.843 1.276-.695 5.401z" fill="#616161"/><path d="M339.158 388.494l.756-5.31-6.724-3.768-2.408 4.296zM431.782 397.315l.675-5.468-8.073-3.982-2.663 4.398z" fill="#333"/><path d="M352.835 386.924l-1.983-4.975-10.938 1.235-.756 5.31z" fill="#646464"/><path d="M363.701 390.599l.535-3.894-7.1-3.854-2.484 4.337 6.695 3.686z" fill="#333"/><path d="M376.658 389.085l-1.458-3.643-10.964 1.263-.535 3.894z" fill="#636363"/><path d="M324.378 389.05l.608-4.18-6.576-3.81-1.877 3.38zM416.932 399.13l.696-5.502-7.93-4.026-2.648 4.419z" fill="#333"/><path d="M338.037 388.622l-1.993-5.001-11.058 1.248-.608 4.181z" fill="#656565"/><path d="M430.669 397.451l-2.055-5.142-10.986 1.32-.696 5.5z" fill="#606060"/><path d="M348.721 392.349l.55-3.92-6.952-3.897-2.467 4.358 6.065 3.787z" fill="#333"/><path d="M361.824 390.818l-1.467-3.666-11.085 1.277-.55 3.92z" fill="#646464"/><path d="M333.611 393.862l.53-3.69-6.802-3.94-1.917 3.432 7.052 4.144z" fill="#333"/><path d="M346.84 392.569l-1.49-3.688-11.21 1.29-.529 3.691 1.542.073z" fill="#656565"/><path d="M319.933 390.7l-2.315-4.999-26.658 3.01-1.203 5.454z" fill="#666"/><path d="M289.757 394.165l1.203-5.455-6.233-3.903L282 389.21zM273.743 396.003l.845-5.445-6.064-3.95-2.332 4.383zM306.567 398.749l.78-5.49-6.529-4.017-2.383 4.41z" fill="#333"/><path d="M288.082 394.357l-2.026-5.093-11.468 1.294-.845 5.445z" fill="#676767"/><path d="M368.379 403.872l.598-4.4-7.448-4.174-1.992 3.533z" fill="#4a4a4a"/><path d="M311.275 398.197l.432-5.44-4.36.501-.78 5.49z" fill="#666"/><path d="M382.459 403.341l-2.09-5.237-11.392 1.369-.763 5.609z" fill="#636363"/><path d="M258.068 397.803l.867-5.478-5.9-3.993-2.314 4.403zM290.822 400.593l.839-5.527-6.367-4.063-2.4 4.435z" fill="#333"/><path d="M272.568 396.138l-2.037-5.122-11.596 1.31-.867 5.477z" fill="#686868"/><path d="M320.435 403.877l.43-5.542-9.158-5.579-.432 5.441z" fill="#454545"/><path d="M305.277 398.9l-2.057-5.166-11.56 1.332-.838 5.527z" fill="#676767"/><path d="M338.435 401.724l-2.395-5.174-15.175 1.785-.43 5.542z" fill="#656565"/><path d="M242.216 399.622l.89-5.51-5.733-4.038-2.294 4.424zM275.019 402.445l.86-5.562-6.2-4.108-2.381 4.457z" fill="#333"/><path d="M256.88 397.939l-2.048-5.15-11.726 1.323-.89 5.51z" fill="#696969"/><path d="M289.638 400.732l-2.067-5.195-11.691 1.346-.861 5.562z" fill="#676767"/><path d="M304.84 405.742l.835-5.62-6.646-4.192-2.467 4.494zM226.192 401.462l.912-5.544-5.561-4.084-2.274 4.446z" fill="#333"/><path d="M319.447 403.995l-2.09-5.248-11.682 1.374-.836 5.621z" fill="#666"/><path d="M241.015 399.76l-2.057-5.18-11.854 1.338-.912 5.544z" fill="#6a6a6a"/><path d="M259.035 404.317l.883-5.595-6.03-4.155-2.362 4.478z" fill="#333"/><path d="M273.82 402.585l-2.077-5.225-11.825 1.362-.883 5.595z" fill="#686868"/><path d="M209.978 403.323l.936-5.577-5.386-4.13-2.253 4.466zM288.866 407.653l.858-5.656-6.477-4.239-2.447 4.516z" fill="#333"/><path d="M303.642 405.886l-2.1-5.278-11.818 1.39-.858 5.655z" fill="#676767"/><path d="M224.977 401.601l-2.069-5.209-11.994 1.354-.936 5.577z" fill="#6a6a6a"/><path d="M242.866 406.212l.908-5.63-5.857-4.203-2.34 4.5z" fill="#333"/><path d="M348.18 407.53l-2.437-5.266-39.177 4.706-1.126 5.781z" fill="#656565"/><path d="M193.577 405.206l.96-5.611-5.205-4.178-2.232 4.488z" fill="#333"/><path d="M257.823 404.46l-2.089-5.256-11.96 1.378-.908 5.63z" fill="#696969"/><path d="M272.706 409.586l.882-5.69-6.304-4.289-2.427 4.538z" fill="#333"/><path d="M208.749 403.464l-2.08-5.239-12.132 1.37-.96 5.611z" fill="#6b6b6b"/><path d="M305.44 412.751l1.126-5.78-6.796-4.369-2.79 4.605z" fill="#333"/><path d="M287.654 407.798l-2.111-5.309-11.955 1.406-.882 5.691z" fill="#676767"/><path d="M226.511 408.128l.93-5.664-5.677-4.252-2.32 4.521zM176.988 407.11l.983-5.645-5.02-4.226-2.21 4.51z" fill="#333"/><path d="M241.64 406.355l-2.1-5.285-12.098 1.394-.93 5.664z" fill="#6a6a6a"/><path d="M256.357 411.541l.907-5.726-6.127-4.338-2.406 4.56z" fill="#333"/><path d="M192.334 405.349l-2.09-5.27-12.273 1.386-.983 5.645z" fill="#6b6b6b"/><path d="M209.965 410.066l.955-5.7-5.494-4.3-2.298 4.543z" fill="#333"/><path d="M271.48 409.733l-2.122-5.34-12.094 1.422-.907 5.726z" fill="#686868"/><path d="M289.072 414.751l.878-5.784-6.617-4.421-2.5 4.596zM160.205 409.037l1.009-5.68-4.83-4.275-2.188 4.531z" fill="#333"/><path d="M225.271 408.273l-2.11-5.316-12.24 1.41-.956 5.7z" fill="#6a6a6a"/><path d="M304.168 412.907l-2.146-5.39-12.072 1.45-.878 5.784z" fill="#676767"/><path d="M175.73 407.255l-2.102-5.3-12.414 1.401-1.009 5.68z" fill="#6d6d6d"/><path d="M239.817 413.52l.93-5.762-5.944-4.389-2.385 4.582zM193.226 412.027l.98-5.735-5.307-4.35-2.276 4.565zM143.227 410.986l1.034-5.716-4.636-4.324-2.164 4.553z" fill="#333"/><path d="M255.118 411.69l-2.135-5.371-12.236 1.439-.93 5.762z" fill="#696969"/><path d="M272.566 416.768l.902-5.822-6.436-4.472-2.478 4.618z" fill="#333"/><path d="M208.71 410.213l-2.121-5.347-12.383 1.426-.98 5.735z" fill="#6b6b6b"/><path d="M158.933 409.183l-2.113-5.33-12.56 1.417-1.033 5.716z" fill="#6d6d6d"/><path d="M287.835 414.902l-2.157-5.422-12.21 1.466-.902 5.822z" fill="#676767"/><path d="M223.08 415.522l.955-5.799-5.756-4.44-2.364 4.604z" fill="#333"/><path d="M126.05 412.958l1.059-5.752-4.437-4.374-2.14 4.575z" fill="#353535"/><path d="M176.297 414.01l1.004-5.77-5.114-4.402-2.252 4.587z" fill="#333"/><path d="M238.562 413.67l-2.146-5.403-12.38 1.456-.956 5.799z" fill="#6a6a6a"/><path d="M255.856 418.81l.927-5.86-6.25-4.525-2.457 4.641z" fill="#333"/><path d="M191.957 412.176l-2.133-5.379-12.523 1.443-1.004 5.77z" fill="#6b6b6b"/><path d="M141.94 411.134l-2.124-5.362-12.707 1.434-1.06 5.752z" fill="#6e6e6e"/><path d="M108.669 414.953l1.086-5.788-4.233-4.426-2.115 4.598z" fill="#343434"/><path d="M159.16 416.018l1.03-5.807-4.916-4.454-2.23 4.61z" fill="#333"/><path d="M271.315 416.92l-2.17-5.454-12.362 1.485-.927 5.858z" fill="#686868"/><path d="M206.144 417.548l.98-5.836-5.564-4.493-2.34 4.627z" fill="#333"/><path d="M124.747 413.108l-2.135-5.394-12.857 1.451-1.086 5.788z" fill="#6e6e6e"/><path d="M221.81 415.674l-2.157-5.435-12.528 1.473-.98 5.836z" fill="#6a6a6a"/><path d="M91.081 416.972l1.113-5.825-4.023-4.478-2.09 4.62z" fill="#323232"/><path d="M175.013 414.161l-2.145-5.41-12.677 1.46-1.031 5.807z" fill="#6d6d6d"/><path d="M238.952 420.874l.952-5.895-6.06-4.58-2.434 4.664zM141.818 418.05l1.058-5.844-4.714-4.507-2.205 4.633zM189.005 419.598l1.007-5.873-5.368-4.547-2.317 4.65z" fill="#333"/><path d="M254.59 418.964l-2.182-5.488-12.504 1.503-.952 5.895z" fill="#696969"/><path d="M107.35 415.104l-2.146-5.425-13.01 1.468-1.113 5.825z" fill="#6f6f6f"/><path d="M73.284 419.015l1.14-5.862-3.809-4.531-2.063 4.643z" fill="#303030"/><path d="M157.86 416.17l-2.156-5.442-12.828 1.478-1.058 5.844z" fill="#6d6d6d"/><path d="M204.86 417.701l-2.17-5.467-12.678 1.491-1.007 5.873z" fill="#6b6b6b"/><path d="M124.269 420.106l1.084-5.882-4.506-4.56-2.18 4.656z" fill="#353535"/><path d="M221.836 422.965l.979-5.933-5.864-4.636-2.412 4.688z" fill="#333"/><path d="M89.748 417.125l-2.158-5.458-13.166 1.486-1.14 5.862z" fill="#6f6f6f"/><path d="M171.66 421.672l1.034-5.91-5.166-4.601-2.293 4.673z" fill="#3a3a3a"/><path d="M237.67 421.031l-2.193-5.52-12.662 1.52-.979 5.934z" fill="#6a6a6a"/><path d="M140.503 418.204l-2.168-5.475-12.982 1.495-1.084 5.882z" fill="#6e6e6e"/><path d="M106.507 422.187l1.112-5.92-4.293-4.615-2.154 4.68z" fill="#343434"/><path d="M187.706 419.753l-2.181-5.5-12.831 1.509-1.034 5.91z" fill="#6c6c6c"/><path d="M204.52 425.081l1.004-5.972-5.663-4.692-2.387 4.711zM154.105 423.772l1.06-5.948-4.958-4.657-2.268 4.696z" fill="#333"/><path d="M122.938 420.262l-2.18-5.508-13.14 1.513-1.11 5.92z" fill="#6e6e6e"/><path d="M220.539 423.124l-2.205-5.554-12.81 1.539-1.004 5.972z" fill="#6b6b6b"/><path d="M170.345 421.83l-2.193-5.534-12.987 1.528-1.06 5.948z" fill="#6d6d6d"/><path d="M78.586 425.458l1.156-5.98-3.953-4.7-2.112 4.714z" fill="#313131"/><path d="M136.336 425.898l1.088-5.988-4.746-4.713-2.242 4.72z" fill="#363636"/><path d="M186.992 427.223l1.032-6.012-5.458-4.749-2.363 4.735zM169.24 429.391l1.06-6.05-5.246-4.808-2.339 4.76z" fill="#333"/><path d="M185.663 427.385l-2.23-5.622-13.133 1.577-1.06 6.051z" fill="#6c6c6c"/><path d="M104.845 422.382l-2.082-5.555-23.021 2.652-1.156 5.979z" fill="#6f6f6f"/><path d="M203.207 425.242l-2.217-5.589-12.966 1.558-1.032 6.012z" fill="#6b6b6b"/><path d="M152.774 423.931l-2.206-5.567-13.144 1.546-1.088 5.988z" fill="#6d6d6d"/><path d="M118.348 428.049l1.117-6.027-4.528-4.77-2.216 4.744z" fill="#353535"/><path d="M134.988 426.059l-2.218-5.602-13.305 1.565-1.117 6.027z" fill="#6e6e6e"/><path d="M151.276 431.586l1.087-6.091-5.028-4.866-2.312 4.783z" fill="#333"/><path d="M84.09 432.147l1.171-6.102-4.103-4.881-2.164 4.79z" fill="#323232"/><path d="M167.894 429.556l-2.242-5.657-13.289 1.596-1.087 6.091z" fill="#6d6d6d"/><path d="M116.572 428.262l-2.454-5.61-28.857 3.393-1.17 6.102z" fill="#6f6f6f"/><path d="M133.08 433.81l1.117-6.133-4.806-4.926-2.286 4.808z" fill="#363636"/><path d="M149.913 431.753l-2.255-5.693-13.461 1.617-1.117 6.132z" fill="#6d6d6d"/><path d="M114.663 436.06l1.146-6.174-4.577-4.988-2.257 4.833z" fill="#343434"/><path d="M131.7 433.978l-2.268-5.728-13.623 1.636-1.146 6.173z" fill="#6e6e6e"/><path d="M89.81 439.096l1.186-6.229-4.263-5.071-2.219 4.865z" fill="#333"/><path d="M113.054 436.256l-1.938-5.806-20.12 2.417-1.186 6.229z" fill="#6f6f6f"/><path d="M382.924 378.33l-10.668 1.193-.58 4.096 1.772.948 11.432-1.315-1.956-4.921zm9.934 5.075l-10.82 1.253-.581 4.219 1.65.886 11.738-1.345-1.987-5.013zm10.271 5.258l-10.974 1.283-.58 4.372 1.59.856 11.982-1.437-2.018-5.074zm10.607 5.44l-11.096 1.315-.611 4.524 1.497.825 12.289-1.497-2.079-5.166z" fill="#626262"/><path d="M365.195 375.855l-1.865 3.24v.03l8.345 4.494.581-4.096-7.061-3.668zm9.568 4.982l-1.957 3.393 8.65 4.647.582-4.219-7.275-3.82zm9.873 5.166l-2.048 3.485 8.987 4.83.58-4.372-7.52-3.943zm10.21 5.35l-2.14 3.576 9.323 5.013.611-4.524-7.795-4.065z" fill="#333"/><path d="M157.566 332.01l.196 28.561 47.25-2.941-.22-25.003-47.226-.617"/><path d="M200.414 328.528l36-4.278-24.476 2.116-13.837 1.639zM211.938 326.366l-72.098 6.34 15.56-.94 42.7-3.761z" fill="#202020"/><path d="M205.418 284.178l-.686.037-.976 46.821.687-.47.975-46.388z" fill="#2b2b2b"/><path d="M161.631 287.358l-4.84.361-.47 43.426 4.732 3.287.578-47.074z" fill="#0f0f0f"/><path d="M204.732 284.215l-41.33 3.034-.579 47.436 40.933-3.649.976-46.821z" fill="#070707"/><path d="M163.401 287.25l-1.77.108-.578 47.074 1.77.253.578-47.436z"/><path d="M204.453 330.576l-.691.453 1.038 1.609 1.278-.61z" fill="#1a1a1a"/><path d="M155.007 332.539l1.325-1.392.776-.453-1.708 1.072z" fill="#060606"/><path d="M162.798 336.414l42.002-3.776-1.038-1.609-40.926 3.655z" fill="#0a0a0a"/><path d="M155.007 332.539l5.118 3.612.925-1.704-4.718-3.3z" fill="#131313"/><path d="M162.836 334.684l-1.786-.237-.925 1.704 2.673.263z" fill="#0e0e0e"/><path d="M366.326 278.841l-.348-.657-3.11 1.248 2.216.818z" fill="#333"/><path d="M355.871 272.29l-1.026-.357-1.249 1.413 1.024.36z" fill="#414141"/><path d="M357.783 273.048l-1.912-.757-1.251 1.416 1.543 1.534z" fill="#ccc"/><path d="M366.326 278.841l11.923-219.69-.46 1.082-11.81 217.951z" fill="#181818"/><path d="M26.823 297.687l327.797-23.98-1.024-.36-327.253 23.888z" fill="#1b1b1b"/><path d="M24.835 295.862l.478.45 1.51 1.375-.48-.452z"/><path d="M354.619 273.699L26.813 297.694l-1.497-1.376-1.131 1.07 1.956 2.201 330.037-24.362-1.56-1.528z" fill="#fff"/><path d="M17.421 305.512l-3.915-.85-1.813.91 1.526 1.371z" fill="#5b5b5b"/><path d="M2.669 57.303l4.847 243.92 4.177 4.348L6.964 56.942z" fill="#b3b3b3"/><path d="M29.219 58.5l-1.594 2.063-.188 14.593 2.094 127.969c113.271 9.342 244.934-.502 348.094-40.125l3.781-103.063z" opacity=".5" fill="url(#h)" transform="matrix(.97816 0 0 .97816 -6.23 5.592)"/><path d="M161.096 331.257l-3.515.764 3.485 2.415 1.773.245.03-3.21-1.773-.214z"/><path d="M377.108 57.7l-2.438 1.403 3.119 1.13.46-1.082z" fill="gray"/><path d="M365.396 65.664l-342.27-1.202-.497.022 341.679 1.198z" fill="#010101"/><path d="M12.988 56.947l361.682 2.156 2.438-1.403L8.51 55.31z" fill="#ccc"/><path d="M8.51 55.31l-4.325.393-1.516 1.6 4.295-.36z" fill="gray"/><path d="M8.911 58.187l4.077-1.24L8.51 55.31l-1.546 1.633z" fill="#f2f2f2"/><path d="M25.313 296.312L21.592 66.086l-1.21-.729L24.188 297.4z"/><path d="M29.219 58.5l-2 2.594 1.218.75L30 60.187l349.938 1.22 1.156 1.5-10.906 209.75 1.968.78L383.22 62.25l-1.5-2.313-352.5-1.437z" fill="url(#i)" transform="matrix(.97816 0 0 .97816 -6.23 5.592)"/><path d="M13.506 304.663L8.911 58.187l-1.947-1.245 4.73 248.63z" fill="#ccc"/><path d="M12.997 56.945L8.9 58.198l4.616 246.465 3.912.856 345.443-26.074 3.118-1.253 11.799-217.946-3.118-1.13-361.674-2.171zm9.354 5.869l344.8 1.406 1.467 2.262-10.82 206.575-1.62 2.17L26.14 299.589l-1.956-2.2-3.79-232.038 1.956-2.537z" fill="#b3b3b3"/><path d="M365.409 65.657l-10.576 206.269 1.039.366L366.54 67.124l-1.131-1.467z" fill="#1a1a1a"/><path style="marker:none" d="M105.938 51.406C76.648 84.043 58.843 127 58.843 174.094c0 49.257 51.187 127.156 51.187 127.156l269.563-20.469 1.281-1.437L392.75 60.563l-6.063-7.344z" opacity=".229" color="#000" fill="url(#j)" fill-rule="evenodd" overflow="visible" transform="matrix(.97816 0 0 .97816 -6.23 5.592)"/><path d="M438.912 386.131l-2.674 4.408 19.473 9.501 2.348-.289.506-4.19z" fill="#333"/><path d="M445.365 395.656l-2.044-5.114-10.864 1.305-.675 5.468z" fill="#5f5f5f"/><path d="M435.344 393.281l-2.719 4.438 8.188 4.125 2.406-.281.5-4.157-8.375-4.125zm-29.938 3.625l-2.218 3.719-.47.75 7.845 4.188.437-.032 1.938-.281.53-4.156-8.062-4.188zm-18.343 2.188l-2.657 4.531 7.688 4.25 2.312-.281.532-4.219-7.875-4.281zm-15.407 1.875l-2.687 4.562 7.5 4.313 2.312-.313.594-4.25-7.719-4.312zm-15.625 1.875l-2.156 3.781 8.406 4.938.719-.063.594-4.281-7.563-4.375zm-22.062 2.687l-2.938 4.625 7.125 4.407 2.282-.282.843-4.312-7.312-4.438zm-19.594 2.344l-2.937 4.688 6.906 4.468 2.281-.312.875-4.313-7.125-4.531zm-19.875 2.438L291.625 415l6.656 4.5 2.219-.281.906-4.375-6.906-4.531zm-20.156 2.406l-2.875 4.75 6.469 4.562 2.156-.25.906-4.406-6.656-4.656zM168.03 425.594l-2.468 4.844 5.218 4.937 1.75-.25.875-4.562-5.375-4.97zm-27.937 3.344l-2.25 4.875 4.906 5.03 1.656-.218.719-4.594-5.031-5.093zm-18.594 2.25l-2.344 4.906 4.657 5.094 1.656-.22.844-4.624-4.813-5.156zm-28.969 3.5l-2.281 4.937 3.781 4.594 1.875.437.188-.031.875-4.656-4.438-5.281z" fill="#333"/><path d="M417.85 369.982l-10.225 1.156 7.406 3.577 10.369-1.193-7.55-3.54zm-13.874 1.553l-10.369 1.156 7.334 3.613 10.441-1.192-7.406-3.577zm-53.83.615l-10.622 1.156 4.444 2.384 10.658-1.156-4.48-2.384zm39.813.939l-10.477 1.192 7.189 3.613 10.55-1.192-7.262-3.613zm-54.156.614l-10.73 1.156 4.335 2.457 10.803-1.192-4.408-2.421zm39.993.975l-10.585 1.193 7.045 3.649 10.658-1.193-7.118-3.649zm52.277.109l-10.368 1.192 18.353 8.815 10.621-1.264-18.606-8.743zm-106.757.506l-10.838 1.192 4.263 2.456 10.874-1.228-4.3-2.42zm92.704 1.12l-10.477 1.156 7.55 3.72 10.586-1.191-7.66-3.685zm-55.493.18l-10.73 1.192 6.865 3.722 10.838-1.229-6.973-3.685zm-54.841.614l-10.947 1.193 4.118 2.492 11.02-1.228-4.191-2.457zm96.135.795l-10.585 1.192 7.406 3.794 10.694-1.265-7.515-3.72zm-55.817.217l-10.802 1.192 6.72 3.757 10.946-1.228-6.864-3.721zm-55.167.614l-11.055 1.228 4.01 2.493 11.164-1.228-4.119-2.493zm96.642.795l-10.73 1.228 7.298 3.794 10.802-1.229-7.37-3.793zm-56.107.217l-10.946 1.228 6.575 3.794 11.055-1.229-6.684-3.793zm-55.528.614l-11.163 1.228 3.901 2.565 11.272-1.264-4.01-2.53zm150.58.94l-10.621 1.228 7.803 3.865 10.694-1.264-7.876-3.83zm-56.431.216l-10.875 1.228 7.118 3.866 10.982-1.264-7.225-3.83zm-56.865.253l-26.41 2.926 6.25 3.902 26.663-2.999-6.503-3.83zm-52.422.253l-11.308 1.228 3.794 2.565 11.416-1.228-3.902-2.565zm151.34.94l-10.766 1.264 7.659 3.901 10.874-1.3-7.767-3.866zm-56.757.216l-10.983 1.264 6.973 3.902 11.09-1.3-7.08-3.866zm-118.355 1.445l-11.488 1.264 3.649 2.602 11.56-1.265-3.72-2.601zm160.552.036l-10.838 1.265 7.514 3.937 10.947-1.3-7.623-3.902zm54.083.145l-10.657 1.228 19.653 9.43 10.875-1.337-19.87-9.321zm-111.129.072l-11.09 1.264 6.791 3.938 11.2-1.3-6.9-3.902zm-58.563.361l-11.344 1.265 6.07 3.974 11.452-1.3-6.178-3.939zm-60.514 1.084l-11.633 1.264 3.54 2.638 11.706-1.265-3.613-2.637zm215.791.18l-10.766 1.265 8.057 3.974 10.874-1.3-8.165-3.938zm-170.631.47l-11.489 1.265 5.89 3.974 11.596-1.3-5.997-3.939zm55.42 0l-19.112 2.168 6.503 4.01 4.372-.506 9.176 5.6 15.174-1.806-16.113-9.466zm-116.331 1.084l-11.778 1.265 3.432 2.673 11.85-1.3-3.504-2.638zm216.983.145l-10.91 1.3 7.947 4.047 10.983-1.337-8.02-4.01zm-171.607.47l-11.633 1.3 5.744 4.046 11.742-1.336-5.853-4.01zm47.761.939l-11.453 1.3 6.359 4.047 11.56-1.337-6.466-4.01zm-109.07.18l-11.886 1.3 3.288 2.71 11.994-1.336-3.396-2.674zm218.176.18l-11.02 1.302 7.804 4.046 11.092-1.337-7.876-4.01zm-172.582.47l-11.742 1.301 5.564 4.083 11.85-1.337-5.672-4.046zm47.977.94l-11.56 1.3 6.177 4.12 11.706-1.374-6.323-4.046zm164.996.47l-10.911 1.336 8.382 4.119 10.982-1.373-8.453-4.082zm-228.87.36l-11.85 1.301 5.383 4.119 11.995-1.337-5.528-4.082zm-54.697.326l-12.103 1.3 3.107 2.746 12.211-1.336-3.215-2.71zm102.892.614l-11.67 1.337 6.034 4.155 11.814-1.373-6.178-4.119zm165.934.506l-26.084 3.143 8.057 4.19 26.337-3.214-8.31-4.119zm-58.707.217l-11.272 1.336 7.442 4.155 11.417-1.373-7.587-4.118zm-171.462.108l-11.995 1.337 5.203 4.19 12.139-1.372-5.347-4.155zm-55.023.325l-12.247 1.337 2.962 2.782 12.356-1.373-3.07-2.746zm164.273.18l-11.561 1.338 6.648 4.19 11.669-1.372-6.756-4.155zm-60.84.47l-11.813 1.337 5.853 4.191 11.958-1.373-5.997-4.154zm-64.668.831l-12.139 1.337 5.022 4.227 12.283-1.373-5.166-4.19zm-55.348.326l-12.391 1.372 2.854 2.782 12.5-1.373-2.963-2.781zm165.213.18l-11.706 1.373 6.503 4.227 11.814-1.373-6.611-4.227zm-61.2.47l-11.995 1.337 5.708 4.263 12.103-1.41-5.817-4.19zm-65.103.867l-12.247 1.337 4.805 4.299 12.428-1.41-4.986-4.226zm229.736 0l-11.308 1.373 7.876 4.263 11.417-1.373-7.985-4.263zm-59.827.289l-38.765 4.588 6.792 4.372 39.162-4.697-7.19-4.263zm-225.582.036l-12.5 1.373 2.71 2.818 12.608-1.373-2.818-2.818zm166.152.18l-11.85 1.374 6.322 4.299 11.958-1.41-6.43-4.262zm-61.598.47l-12.103 1.373 5.491 4.3 12.248-1.41-5.636-4.263zm-65.464.867l-12.428 1.373 4.625 4.336 12.572-1.41-4.769-4.299zm231.037 0l-11.452 1.41 7.731 4.299 11.525-1.41-7.804-4.299zm-119.98.506l-11.994 1.41 6.141 4.335 12.103-1.446-6.25-4.299zm-61.959.47l-12.247 1.409 5.31 4.335 12.356-1.409-5.419-4.335zm-65.933.903l-12.536 1.373 4.407 4.371 12.717-1.409-4.588-4.335zm232.373 0l-11.56 1.41 7.55 4.37 11.706-1.445-7.696-4.335zm-288.732.325l-12.826 1.41 2.457 2.89 12.934-1.41-2.565-2.89zm168.03.181l-12.103 1.409 5.961 4.408 12.247-1.446-6.105-4.371zm-62.32.47l-12.392 1.409 5.13 4.407 12.5-1.445-5.239-4.371zm110.695.722l-11.922 1.41 6.611 4.407 12.067-1.445-6.756-4.372zm-177.026.18l-12.717 1.41 4.227 4.444 12.861-1.482-4.371-4.371zm230.097.47l-14.378 1.735 7.333 4.443 14.488-1.806-7.443-4.371zm-117.812.073l-12.247 1.409 5.744 4.443 12.392-1.445-5.89-4.407zm-62.718.47l-12.536 1.408 4.913 4.48 12.681-1.481-5.058-4.408zm111.31.722l-12.103 1.409 6.467 4.48 12.21-1.481-6.574-4.408zm-178.11.18l-12.825 1.41 4.01 4.48 13.006-1.446-4.191-4.443zm112.935.543l-12.392 1.445 5.564 4.48 12.536-1.482-5.708-4.443zm114.995.325l-14.56 1.77 7.117 4.516 14.704-1.806-7.261-4.48zm-178.11.144l-12.68 1.445 4.732 4.516 12.825-1.48-4.877-4.48zm111.924.723l-12.211 1.445 6.25 4.516 12.355-1.481-6.394-4.48zm-179.122.18l-13.006 1.482 3.794 4.516 13.186-1.482-3.974-4.516zm113.55.578l-12.536 1.446 5.383 4.552 12.68-1.482-5.527-4.516zm-63.513.47l-12.825 1.445 4.516 4.588 12.97-1.517-4.66-4.516zm175.617.29L294.51 410.3l6.9 4.552 14.921-1.807-7.045-4.552zm-63.079.433l-12.355 1.48 6.069 4.553 12.5-1.481-6.214-4.552zm-66.005.758l-12.68 1.482 5.165 4.588 12.826-1.518-5.311-4.552zm-63.91.506l-12.97 1.445 4.3 4.625 13.15-1.518-4.48-4.552zm113.188.723l-12.536 1.481 5.889 4.624 12.644-1.517-5.997-4.588zm59.864 0l-14.993 1.806 6.647 4.66 15.174-1.878-6.828-4.588zm-126.303.758l-12.825 1.482 4.95 4.66 12.97-1.517-5.095-4.625zm-64.524.506l-22.724 2.601 3.938 4.697 23.05-2.637-4.264-4.66zm114.02.759l-12.682 1.481 5.672 4.697 12.826-1.554-5.817-4.624zm56.937.361l-101.447 12.284 5.383 4.985 102.675-12.608-6.611-4.66zm-123.81.398l-12.97 1.517 4.733 4.697 13.15-1.554-4.913-4.66zm49.712 1.264l-12.826 1.517 5.492 4.733 12.933-1.553-5.6-4.697zm-67.306.759l-13.115 1.517 4.516 4.769 13.295-1.554-4.696-4.732zm49.964 1.264l-12.97 1.554 5.239 4.805 13.114-1.59-5.383-4.769zm-68.39.867l-28.468 3.324 4.082 4.877 28.866-3.396-4.48-4.805zm50.832 1.229l-13.15 1.553 5.021 4.877 13.295-1.625-5.166-4.805zm-17.775 2.095l-13.295 1.59 4.805 4.913 13.44-1.626-4.95-4.877zm-18.027 2.132l-13.44 1.59 4.588 4.985 13.62-1.626-4.768-4.95zm-18.064 2.131l-19.87 2.348L91 432.88l20.124-2.42-4.516-5.022zm56.467.723l-22.977 2.781 5.022 5.094 23.302-2.854-5.347-5.021zm-27.963 3.396l-13.62 1.625 4.805 5.167 13.801-1.698-4.986-5.094zm-18.678 2.24l-23.916 2.89 4.444 5.274L121.204 437l-4.769-5.202z" fill="#e6e6e6"/><path d="M469.438 394.219l-10.875 1.344-.5 4.187 12.968-1.562zm-14.75 1.812l-10.97 1.375-.5 4.157 13.063-1.594zm-14.875 1.844l-26.344 3.219-.531 4.156.375-.031 28.062-3.406zM406.375 402l-11.437 1.375-.532 4.219 13.532-1.688zm-15.469 1.875l-11.531 1.406-.594 4.25 13.719-1.687zm-15.625 1.906l-11.687 1.438L363 411.5l.563-.094 13.312-1.656zm-19.5 2.375l-14.5 1.813-.843 4.312 17.187-2.125zm-19.593 2.438l-14.688 1.812-.875 4.313 17.406-2.156zm-19.844 2.437l-14.938 1.813-.906 4.375 17.719-2.156zm-20.188 2.469L281 417.375l-.906 4.406 17.969-2.218zm-20.062 2.469l-102.688 12.594-.875 4.562 105.219-13.062zm-107.656 13.219l-23.313 2.843-.719 4.594L170 435.438zm-28.344 3.468l-13.781 1.688-.844 4.625 16.344-2.031zM121.219 437l-24.25 2.969-.875 4.656 26.75-3.312z" fill="gray"/></g><path d="M439.538 324.22c4.843.28 9.527-2.844 10.55-7.006 1.031-4.199-2.02-7.972-6.908-8.401-4.98-.438-9.895 2.757-10.882 7.108-.978 4.311 2.305 8.013 7.24 8.299" fill="gray"/><path d="M439.48 323.104c4.144.24 8.15-2.433 9.025-5.993.883-3.591-1.728-6.819-5.908-7.186-4.261-.375-8.465 2.359-9.31 6.08-.836 3.688 1.973 6.855 6.194 7.1" fill="#fff"/><path d="M455.9 324.945c4.236.245 8.332-2.487 9.226-6.126.903-3.672-1.766-6.972-6.04-7.347-4.356-.383-8.654 2.411-9.517 6.216-.855 3.77 2.016 7.008 6.332 7.257" fill="url(#k)" transform="matrix(.97816 0 0 .97816 -6.23 5.592)"/><path d="M456.193 323.593c3.387.196 6.662-1.988 7.377-4.899.721-2.935-1.413-5.574-4.83-5.874-3.483-.306-6.919 1.928-7.609 4.97-.684 3.015 1.612 5.603 5.062 5.803" fill="url(#l)" transform="matrix(.97816 0 0 .97816 -6.23 5.592)"/><path d="M439.564 333.425c2.203.127 4.334-1.294 4.799-3.187.47-1.91-.919-3.627-3.142-3.822-2.266-.2-4.502 1.254-4.95 3.233-.446 1.962 1.048 3.646 3.293 3.776" fill="gray"/><path d="M439.538 332.917c1.884.11 3.707-1.106 4.105-2.726.402-1.634-.786-3.102-2.688-3.27-1.938-.17-3.85 1.074-4.235 2.767-.38 1.678.897 3.118 2.818 3.23" fill="#fff"/><path d="M455.83 334.79c1.926.112 3.79-1.13 4.197-2.787.41-1.67-.804-3.171-2.748-3.342-1.982-.174-3.937 1.097-4.33 2.828-.389 1.715.917 3.188 2.88 3.302" fill="url(#m)" transform="matrix(.97816 0 0 .97816 -6.23 5.592)"/><path d="M455.963 334.176c1.54.089 3.03-.905 3.355-2.23.329-1.335-.642-2.535-2.197-2.671-1.584-.14-3.147.877-3.461 2.26-.311 1.372.733 2.55 2.303 2.64" fill="url(#n)" transform="matrix(.97816 0 0 .97816 -6.23 5.592)"/></svg>