<svg viewBox="0 0 432.28 432.28" xmlns="http://www.w3.org/2000/svg" xmlns:xlink="http://www.w3.org/1999/xlink"><defs><linearGradient id="a"><stop stop-color="#8eff6d" offset="0"/><stop stop-color="#9af978" stop-opacity="0" offset="1"/></linearGradient><linearGradient id="b"><stop stop-color="#525252" stop-opacity=".635" offset="0"/><stop stop-color="#ececec" stop-opacity=".435" offset="1"/></linearGradient><filter id="g" color-interpolation-filters="sRGB"><feGaussianBlur stdDeviation="4.055"/></filter><filter id="r" color-interpolation-filters="sRGB"><feGaussianBlur stdDeviation="1.712"/></filter><filter id="l" color-interpolation-filters="sRGB"><feGaussianBlur stdDeviation="1.755"/></filter><filter id="e" color-interpolation-filters="sRGB"><feGaussianBlur stdDeviation="1.886"/></filter><radialGradient id="k" cx="239.83" cy="323.14" r="203.35" gradientTransform="matrix(.78775 .45481 -.34925 .60492 163.76 18.588)" gradientUnits="userSpaceOnUse"><stop stop-color="#ff70ff" offset="0"/><stop stop-color="#ff70ff" stop-opacity="0" offset="1"/></radialGradient><radialGradient id="q" cx="240.29" cy="320.81" r="152.3" gradientTransform="matrix(1.3666 -.36617 .33705 1.2579 -193.58 2.691)" gradientUnits="userSpaceOnUse" xlink:href="#a"/><linearGradient id="p" x1="1058.5" x2="1265.8" y1="319.44" y2="319.44" gradientTransform="translate(-1024.5 -2.566)" gradientUnits="userSpaceOnUse" spreadMethod="reflect"><stop stop-color="#7eeebc" stop-opacity=".82" offset="0"/><stop stop-color="#fdffdc" stop-opacity=".8" offset="1"/></linearGradient><linearGradient id="o" x1="237.28" x2="237.28" y1="532.97" y2="105.9" gradientTransform="rotate(90 239.88 319.47)" gradientUnits="userSpaceOnUse" xlink:href="#b" spreadMethod="reflect"/><linearGradient id="n" x1="175.67" x2="298.9" y1="319.44" y2="319.44" gradientTransform="rotate(90 239.88 319.47)" gradientUnits="userSpaceOnUse" xlink:href="#b" spreadMethod="reflect"/><linearGradient id="m" x1="35.581" x2="182.33" y1="383.75" y2="383.75" gradientTransform="translate(2.629 -2.566)" gradientUnits="userSpaceOnUse" xlink:href="#a"/><radialGradient id="j" cx="238.03" cy="319.44" r="115.58" gradientTransform="matrix(1 0 0 1.8479 2.629 -273.43)" gradientUnits="userSpaceOnUse" xlink:href="#a"/><linearGradient id="i" x1="18.104" x2="456.46" y1="319.44" y2="319.44" gradientTransform="translate(2.629 -2.566)" gradientUnits="userSpaceOnUse" xlink:href="#b"/><linearGradient id="h" x1="240.53" x2="236.75" y1="221.99" y2="363.9" gradientTransform="translate(2.629 -2.566)" gradientUnits="userSpaceOnUse" xlink:href="#b"/><radialGradient id="d" cx="239" cy="315.98" r="211.06" gradientTransform="matrix(1.3872 0 0 1.187 -93.096 -61.665)" gradientUnits="userSpaceOnUse" xlink:href="#a"/><linearGradient id="c" x1="20.329" x2="235.78" y1="319.44" y2="319.44" gradientTransform="translate(2.629 -2.566)" gradientUnits="userSpaceOnUse" xlink:href="#b" spreadMethod="reflect"/><linearGradient id="f" x1="293.55" x2="446.11" y1="252.62" y2="252.62" gradientUnits="userSpaceOnUse" xlink:href="#a"/></defs><g color="#000"><path d="M215.222 7.07c-115.46 0-209.06 93.602-209.06 209.06 0 115.46 93.602 209.06 209.06 209.06 115.46 0 209.06-93.602 209.06-209.06 0-115.46-93.602-209.06-209.06-209.06zm0 133.06c41.967 0 76 34.033 76 76s-34.033 76-76 76-76-34.033-76-76 34.033-76 76-76z" fill="#a1ea7f"/><path d="M452.51 316.87c0-117.42-95.181-212.6-212.6-212.6s-212.6 95.181-212.6 212.6c0 117.42 95.181 212.6 212.6 212.6s212.6-95.181 212.6-212.6zm-186.04 0c0 14.677-11.886 26.563-26.563 26.563s-26.563-11.886-26.563-26.563 11.886-26.594 26.563-26.594 26.563 11.917 26.563 26.594z" fill="url(#c)" transform="translate(-24.688 -100.73)"/><g fill="url(#d)" transform="translate(-24.688 -100.73)"><path d="M48.816 238.18a210.657 210.657 0 0 0-14.031 56.844l129.63 12.25a77.563 77.563 0 0 1 5.323-20.156L48.818 238.18zM314.2 329.03c-.816 5.171-2.169 10.18-3.97 15l120.92 48.906a210.194 210.194 0 0 0 10.955-39.438l-127.91-24.469zM185.4 370.53l-87.785 97.75a207.686 207.686 0 0 0 22.4 18.75l73.354-109.28c-2.824-2.205-5.47-4.626-7.97-7.219z" filter="url(#e)"/></g><path d="M413.47 209.9l-110.19 66.938a74.592 74.592 0 0 1 8.438 18.5l124.66-33.062a202.935 202.935 0 0 0-22.906-52.375z" fill="url(#f)" filter="url(#g)" transform="translate(-24.688 -100.73)"/><path d="M239.91 288.2c-15.831 0-28.668 12.837-28.668 28.668s12.837 28.668 28.668 28.668 28.668-12.837 28.668-28.668S255.741 288.2 239.91 288.2zm0 .822c15.378 0 27.846 12.469 27.846 27.846s-12.469 27.846-27.846 27.846-27.846-12.47-27.846-27.846 12.469-27.846 27.846-27.846z" fill="url(#h)" transform="translate(-24.688 -100.73)"/><path d="M239.91 247.72c-38.186 0-69.15 30.963-69.15 69.15 0 38.186 30.963 69.15 69.15 69.15 38.186 0 69.15-30.963 69.15-69.15 0-38.186-30.963-69.15-69.15-69.15zm0 1.982c37.093 0 67.168 30.075 67.168 67.168s-30.075 67.168-67.168 67.168-67.168-30.075-67.168-67.168 30.075-67.168 67.168-67.168z" fill="url(#i)" transform="translate(-24.688 -100.73)"/><path d="M239.94 113.03c-19.84 0-38.992 2.838-57.125 8.125l38.406 123.16a74.985 74.985 0 0 1 18.719-2.375c14.537 0 28.134 4.115 39.625 11.281l66.938-110.12c-31.007-19.053-67.502-30.062-106.56-30.062zM278.63 381.06c-11.294 6.82-24.535 10.75-38.688 10.75-13.96 0-27.027-3.82-38.219-10.469l-66.906 110.19c30.697 18.519 66.661 29.188 105.12 29.188 36.011 0 69.86-9.362 99.219-25.75l-60.531-113.91z" fill="url(#j)" filter="url(#g)" transform="translate(-24.688 -100.73)"/><path d="M104.5 164.56a205.167 205.167 0 0 0-25.625 27.406l103.59 76.875a75.245 75.245 0 0 1 9.75-9.719l-87.719-94.562z" fill="#a9c386" filter="url(#g)" transform="translate(-24.688 -100.73)"/><g fill="url(#k)" transform="translate(-24.688 -100.73)"><path d="M344.75 499.72a207.625 207.625 0 0 0 33.688-23.312l-84.594-101.59a76.482 76.482 0 0 1-12.656 9.031l63.562 115.88zM41.16 371.12l127.03-36.844a77.087 77.087 0 0 1-1.656-10.719l-130.97 18.625a210.13 210.13 0 0 0 5.594 28.938zM318.75 303.93l131.38-15.156a210.28 210.28 0 0 0-8.688-37.469l-126.38 39a77.135 77.135 0 0 1 3.688 13.625z" filter="url(#l)"/></g><path d="M168.94 340.84l-121 44.562a202.508 202.508 0 0 0 17.094 36.125l110.19-66.906a74.408 74.408 0 0 1-6.281-13.781z" fill="url(#m)" filter="url(#g)" transform="translate(-24.688 -100.73)"/><path d="M239.91 378.49c34.025 0 61.614-27.589 61.614-61.614s-27.589-61.614-61.614-61.614-61.614 27.589-61.614 61.614 27.589 61.614 61.614 61.614zm0-1.766c-33.05 0-59.848-26.798-59.848-59.848s26.798-59.848 59.848-59.848 59.848 26.798 59.848 59.848-26.798 59.848-59.848 59.848z" fill="url(#n)" transform="translate(-24.688 -100.73)"/><path d="M179.59 316.87c0 33.311 27.01 60.321 60.321 60.321 33.311 0 60.321-27.01 60.321-60.321 0-33.311-27.01-60.321-60.321-60.321-33.311 0-60.321 27.01-60.321 60.321zm1.729 0c0-32.357 26.236-58.592 58.592-58.592s58.592 26.236 58.592 58.592-26.236 58.592-58.592 58.592-58.592-26.236-58.592-58.592z" fill="url(#o)" transform="translate(-24.688 -100.73)"/><path d="M237.69 113.03c-38.464 0-74.428 10.669-105.12 29.188l66.906 110.19c11.192-6.65 24.259-10.469 38.219-10.469 14.153 0 27.394 3.93 38.688 10.75l60.531-113.91c-29.359-16.388-63.208-25.75-99.219-25.75zm39.625 267.5c-11.491 7.166-25.088 11.281-39.625 11.281a74.99 74.99 0 0 1-18.719-2.375l-38.406 123.16c18.133 5.287 37.285 8.125 57.125 8.125 39.061 0 75.556-11.009 106.56-30.062l-66.938-110.12z" fill="url(#p)" filter="url(#g)" transform="translate(-24.688 -100.73)"/><g fill="#97bd84" fill-opacity=".974"><path d="M376.44 167.75L290.565 264c2.494 2.495 4.78 5.172 6.906 8l98.594-83.219a205.157 205.157 0 0 0-19.625-21.031zM58.941 218.72a202.388 202.388 0 0 0-15.75 36.719l122.53 40.156a74.417 74.417 0 0 1 5.781-14L58.942 218.72zM310.07 335.87a74.552 74.552 0 0 1-7.781 18.781l112.56 62.906a203.064 203.064 0 0 0 21-53.188l-125.78-28.5zM181.85 367.03L81.13 447.624a205.198 205.198 0 0 0 26.594 26.469l84.219-97.688c-3.652-2.804-7.014-5.954-10.094-9.375z" filter="url(#g)" transform="translate(-24.688 -100.73)"/></g><path d="M215.222 8.86c-114.47 0-207.28 92.814-207.28 207.28 0 114.47 92.814 207.28 207.28 207.28 114.47 0 207.28-92.814 207.28-207.28 0-114.47-92.814-207.28-207.28-207.28zm0 1.406c113.69 0 205.88 92.188 205.88 205.88 0 113.69-92.188 205.88-205.88 205.88-113.69 0-205.88-92.188-205.88-205.88 0-113.69 92.188-205.88 205.88-205.88z" fill="#333"/><g fill="url(#q)" transform="translate(-24.688 -100.73)"><path d="M391.1 180.59a205.174 205.174 0 0 0-27.406-25.625l-76.875 103.59a75.245 75.245 0 0 1 9.719 9.75l94.562-87.719zM345.76 489.56l-66.938-110.19a74.592 74.592 0 0 1-18.5 8.438l33.062 124.66a202.935 202.935 0 0 0 52.375-22.906zM196.04 377.56a75.243 75.243 0 0 1-8.25-6.625l-93.063 89.312a205.054 205.054 0 0 0 21.719 18.844l79.594-101.53z" filter="url(#r)"/></g><path d="M215.222 140.14c-41.967 0-76 34.033-76 76s34.033 76 76 76 76-34.033 76-76-34.033-76-76-76zm0 5.889c38.715 0 70.111 31.396 70.111 70.11s-31.396 70.112-70.111 70.112-70.111-31.396-70.111-70.111 31.396-70.111 70.111-70.111z" fill="#4d4d4d"/></g></svg>