<svg xmlns="http://www.w3.org/2000/svg" xmlns:xlink="http://www.w3.org/1999/xlink" width="1313.357" height="1171.364"><defs><linearGradient id="b"><stop offset="0" stop-color="#fff" stop-opacity=".348"/><stop offset=".96" stop-color="#fff" stop-opacity=".27"/><stop offset="1" stop-color="#fff" stop-opacity=".139"/></linearGradient><linearGradient id="g"><stop offset="0" stop-color="#ffc988"/><stop offset=".274" stop-color="#be88e4"/><stop offset="1" stop-color="#96ff88"/></linearGradient><linearGradient id="c"><stop offset="0" stop-color="#fffeb6"/><stop offset=".548" stop-color="#d6e0da"/><stop offset="1" stop-color="#aec3fe"/></linearGradient><linearGradient id="f"><stop offset="0" stop-color="#fff"/><stop offset=".984" stop-color="#fffee3" stop-opacity=".498"/><stop offset="1" stop-color="#fffec8" stop-opacity="0"/></linearGradient><linearGradient id="a"><stop offset="0" stop-color="#5f5f5f"/><stop offset="1" stop-color="#a4a4a4"/></linearGradient><linearGradient id="e"><stop offset="0"/><stop offset=".043" stop-color="#111"/><stop offset=".852" stop-color="#111"/><stop offset="1"/></linearGradient><linearGradient id="d"><stop offset="0" stop-color="#d5d5d5"/><stop offset=".107" stop-color="#333"/><stop offset=".878" stop-color="#1b1b1b"/><stop offset="1" stop-color="#e2e2e2"/></linearGradient><radialGradient xlink:href="#a" id="i" gradientUnits="userSpaceOnUse" gradientTransform="matrix(.90707 .5237 -.4445 .7699 386.736 -260.416)" spreadMethod="reflect" cx="780" cy="706.978" fx="780" fy="706.978" r="639.422"/><linearGradient xlink:href="#b" id="p" x1="694.478" y1="-16.25" x2="366.632" y2="551.596" gradientUnits="userSpaceOnUse" gradientTransform="translate(0 -.209)"/><filter id="h" color-interpolation-filters="sRGB"><feGaussianBlur stdDeviation="6.037"/></filter><radialGradient xlink:href="#d" id="k" cx="502.632" cy="575.305" fx="502.632" fy="575.305" r="564.999" gradientTransform="matrix(-.87788 .65212 -.66271 -.89214 1325.141 760.783)" gradientUnits="userSpaceOnUse"/><linearGradient xlink:href="#e" id="j" gradientUnits="userSpaceOnUse" x1="-196.219" y1="568.5" x2="-78.787" y2="568.5"/><radialGradient xlink:href="#f" id="l" gradientUnits="userSpaceOnUse" gradientTransform="matrix(1.8937 0 0 1.89354 -819.64 -499.662)" cx="698.25" cy="567.703" fx="698.25" fy="567.703" r="187.038"/><linearGradient xlink:href="#g" id="m" gradientUnits="userSpaceOnUse" gradientTransform="translate(2557.437 870.806)" spreadMethod="reflect" x1="-2288.111" y1="-376.219" x2="-2073.751" y2="-1176.219"/><linearGradient xlink:href="#c" id="n" gradientUnits="userSpaceOnUse" gradientTransform="rotate(180 -773.852 139.168)" spreadMethod="reflect" x1="-2212.555" y1="-425.031" x2="-1658.299" y2="-745.031"/><linearGradient xlink:href="#c" id="o" gradientUnits="userSpaceOnUse" gradientTransform="matrix(1.75212 0 0 1.75212 559.953 -396.525)" x1="166.632" y1="548.259" x2="166.632" y2="631.071"/></defs><g transform="translate(227.857 -6.875)"><rect ry="7.946" rx="7.863" y="27.811" x="-213.368" height="1135.939" width="1278.868" opacity=".581" filter="url(#h)"/><path d="M-184.993 7.371c-4.353 0-7.844 3.536-7.844 7.938v1120c0 4.402 3.491 7.938 7.844 7.938h1262.125c4.353 0 7.875-3.536 7.875-7.938v-1120c0-4.402-3.522-7.938-7.875-7.938H-184.993zm689.782 477.5h.093c3.618 0 7.182.21 10.688.625-2.131 4.279-3.927 8.89-4.25 14.094-.003.016.003.016 0 .031-.001.02-.031.044-.031.063h.03c-.254 2.963.629 5.663 2.094 7.875 1.637.532 3.068 1.439 3.844 3.062 1.068 3.042-.516 6.22-1.875 8.907-2.035 4.337-5.12 8.482-5.406 13.406-.34 3.588 3.041 6.032 6.125 6.937 2.939 1.163 6.9 1.594 9.219-1 3.921-5.347 3.048-12.486 5.093-18.562.576-2.558 2.603-5.034 5.438-4.969.802.1 1.583.283 2.344.531 1.983-.684 3.837-1.812 5.375-3.53a2.749 2.749 0 0 0 .187-.22c3.47-4.731 5.061-9.948 6.063-15.187a89.976 89.976 0 0 1 8.875 5.875c-3.13 2.086-6.195 4.429-8.813 7.437l-.187.22c-2.845 2.8-4.102 6.575-3.938 10.312 1.776 1.694 2.427 4.527 1.063 6.687-4.038 5.417-11.405 7.212-15.813 12.375-2.215 2.085-2.368 5.566-.75 8.063 1.967 2.906 4.735 6.192 8.563 6.218 4.03-.457 6.81-3.939 9.218-6.843 2.725-2.993 4.825-6.781 8.5-8.657 2.306-1.315 5.077-.156 6.625 1.782.833.152 1.697.244 2.594.25a2.749 2.749 0 0 0 .313-.032c7.428-.842 12.449-6.22 16.437-11a89.601 89.601 0 0 1 4.875 9.688c-4.393.29-8.873.964-13.25 2.812-.021.007-.041.024-.062.032-.04.016-.086.014-.125.03-3.203 1.172-5.445 3.488-6.813 6.25.106.5.206 1.019.25 1.532.236 2.482-1.57 4.614-3.875 5.313-6.338 1.906-13.364.004-19.531 2.656-2.821.982-4.048 4.125-3.75 6.906.28 3.568 1.383 7.985 5.094 9.375 4.962 1.08 9.726-1.484 14.25-3.125 3.193-1.007 6.891-2.85 10.187-1.187 1.556.931 2.317 2.48 2.656 4.187a13.59 13.59 0 0 0 4.094 2.438 2.749 2.749 0 0 0 .375.125c6.322 1.375 12.235-.084 17.688-2.063 0 3.612-.21 7.156-.625 10.656-4.511-2.28-9.392-4.179-14.97-4.25h-.062c-2.651-.07-5.046.755-7.03 2.063-.528 1.645-1.441 3.094-3.063 3.875-3.122 1.106-6.39-.557-9.125-1.969-4.388-2.006-8.562-5.232-13.563-5.281-3.519-.116-5.76 3.28-6.656 6.281-1.13 2.949-1.451 6.842 1.187 9.094 5.365 3.828 12.413 3.008 18.438 5.031 2.58.57 5.059 2.615 5 5.438-.1.803-.282 1.579-.531 2.343.714 2.06 1.919 4 3.75 5.563a2.749 2.749 0 0 0 .156.156c4.702 3.355 9.9 4.917 15.062 5.906a89.989 89.989 0 0 1-5.906 8.907c-2.044-3.078-4.338-6.084-7.25-8.688-2.827-2.966-6.78-4.43-10.719-4.281-1.683 1.803-4.565 2.446-6.718 1.094-5.35-4.043-7.158-11.215-12.125-15.657-1.888-2.063-5.063-2.588-7.563-1.312-3.107 1.853-6.532 4.58-6.937 8.375-.03 3.891 3.259 6.73 5.968 9.031 3.246 3.075 7.572 5.333 9.594 9.469 1.24 2.278-.015 4.915-1.875 6.437-.08.427-.14.87-.187 1.313a2.749 2.749 0 0 0-.032.25c-.064 8.184 6.216 13.693 11.032 17.781a89.29 89.29 0 0 1-9.719 4.875c-.28-4.464-.94-9.036-2.875-13.469-.027-.061-.035-.125-.063-.187h-.03c-1.177-3.116-3.53-5.286-6.188-6.594-.32.07-.614.14-.938.188-2.336.378-4.732-.936-5.593-3.157-2.415-6.488-.126-13.89-2.97-20.28-1.147-3.211-4.956-4.105-8-3.563-3.232.444-7.137 1.661-8.28 5.093-1.018 5.243 1.777 10.109 3.468 14.907.966 3.005 2.49 6.611.782 9.625-.986 1.427-2.481 2.145-4.125 2.468a13.057 13.057 0 0 0-2.5 4.375 2.749 2.749 0 0 0-.094.344c-1.216 6.264.209 12.05 2.156 17.438a91.176 91.176 0 0 1-10.719-.657c2.268-4.485 4.214-9.326 4.313-14.843v-.062c.087-2.702-.761-5.138-2.094-7.157-1.708-.553-3.212-1.502-3.937-3.219-.985-3.295.835-6.636 2.312-9.5 1.983-4.179 4.958-8.222 5.031-12.969.13-3.442-3.072-5.68-6-6.593-2.994-1.159-7-1.681-9.343 1.031-3.836 5.261-3.045 12.242-4.97 18.219-.556 2.56-2.435 5.133-5.25 5.25a11.324 11.324 0 0 1-2.687-.532c-2 .703-3.9 1.878-5.437 3.657a2.749 2.749 0 0 0-.125.187c-3.433 4.708-5.04 9.917-6.031 15.125a89.64 89.64 0 0 1-8.875-5.906c.47-.32.94-.666 1.406-1 2.532-1.789 5.42-3.947 7.75-6.75 2.233-2.687 3.94-6.14 3.844-10.156-1.716-1.659-2.484-4.327-1.282-6.5 2.922-4.22 7.922-6.23 12-9.157 2.772-1.957 6.06-4.558 5.813-8.375-.445-2.899-2.516-5.422-4.656-7.312-1.961-1.73-4.824-2.77-7.282-1.5-6.03 3.076-8.666 9.995-13.937 14-1.791 1.721-4.744 2-6.75.469a15.696 15.696 0 0 1-1.281-1.313c-2.626-.517-5.413-.306-8.063 1.063v.03c-4.714 2.41-8.289 5.902-11.437 9.595a89.316 89.316 0 0 1-4.813-9.625c3.976-.255 8.01-.82 11.969-2.282.093-.034.188-.058.281-.093 3.657-1.043 6.39-3.615 8-6.782-.01-.041-.022-.083-.031-.125-.805-2.472.425-5.293 2.812-6.343 6.299-2.406 13.518-.337 19.782-2.719 2.787-.723 4.483-3.609 4.375-6.406-.212-3.474-.923-7.629-4.094-9.657-3.553-1.707-7.644-.205-11.094 1.063-4.015 1.26-7.863 3.62-12.187 3.406-2.637.013-4.501-2.4-4.844-4.844-.535-.46-1.096-.914-1.719-1.312a2.749 2.749 0 0 0-.312-.156c-6.922-3.328-14.183-1.054-20.094 1.093v-.062c0-3.634.205-7.198.625-10.719 3.852 1.907 7.97 3.523 12.562 4.125.087.012.163.02.25.031 3.421.67 6.699-.27 9.282-2 .095-.3.197-.58.312-.875.866-2.244 3.195-3.687 5.594-3.28 6.73 1.195 11.921 6.729 18.75 7.562 3.215.705 6.015-1.878 7.125-4.688 1.287-3.053 2.374-7.1.094-9.969-3.298-3.262-8.271-3.582-12.625-4.312-3.49-.732-7.599-.849-10.25-3.531-1.507-1.595-1.454-3.798-.782-5.782a13.1 13.1 0 0 0-2.093-3.812 2.749 2.749 0 0 0-.22-.219c-4.724-4.674-10.797-6.358-16.624-7.375a89.939 89.939 0 0 1 5.875-8.906c2.8 4.214 6.13 8.24 10.875 11.156 2.278 1.405 4.767 1.872 7.156 1.719.958-.861 2.044-1.523 3.375-1.781 3.177-.381 5.58 2.398 7.156 4.78 3.248 4.334 5.296 9.896 10.094 12.845 2.928 1.806 6.498.037 8.75-2.032 2.44-1.967 4.75-5.093 3.719-8.406-2.594-6.022-9.099-8.885-13.344-13.531-1.9-1.743-3.235-4.63-1.969-7.125a11.1 11.1 0 0 1 1.813-2.094c.382-2 .353-4.111-.313-6.25a2.749 2.749 0 0 0-.093-.281c-2.338-5.426-6.093-9.485-10.157-13a89.173 89.173 0 0 1 9.5-4.75c.225 3.676.711 7.428 1.938 11.125.952 4.007 3.676 7.218 7.156 9.062 2.28-.61 4.97.063 6.219 2.188 2.844 6.227.693 13.455 2.812 19.844.62 2.897 3.423 5.02 6.375 4.968 3.617-.216 7.996-.875 10-4.28 1.644-3.675.046-7.747-1.25-11.282-1.29-4.178-3.923-8.287-3.125-12.813.471-2.234 2.516-3.43 4.657-3.875a14.493 14.493 0 0 0 1.5-2.093 2.749 2.749 0 0 0 .125-.25c3.074-6.874.89-13.921-1.25-19.782z" fill="url(#i)" stroke="#6a5555"/><path d="M-57.743 22.743c-3.865 0-7 3.436-7 7.719v1089.687c0 4.283 3.135 7.719 7 7.719h1120.75c3.866 0 7-3.436 7-7.719V30.462c0-4.283-3.134-7.719-7-7.719zM504.79 484.868h.093c3.618 0 7.182.209 10.688.625-2.131 4.278-3.927 8.889-4.25 14.094-.003.016.003.015 0 .031-.001.019-.031.044-.031.062h.03c-.254 2.964.629 5.664 2.094 7.875 1.637.532 3.068 1.439 3.844 3.063 1.068 3.042-.516 6.219-1.875 8.906-2.035 4.337-5.12 8.483-5.406 13.406-.34 3.589 3.041 6.032 6.125 6.938 2.939 1.163 6.9 1.593 9.219-1 3.921-5.347 3.048-12.486 5.093-18.563.576-2.558 2.603-5.033 5.438-4.968.802.099 1.583.283 2.344.531 1.983-.684 3.837-1.812 5.375-3.531.066-.07.129-.143.187-.219 3.47-4.732 5.061-9.949 6.063-15.188a89.976 89.976 0 0 1 8.875 5.875c-3.13 2.086-6.195 4.43-8.813 7.438l-.187.219c-2.845 2.801-4.102 6.576-3.938 10.312 1.776 1.694 2.427 4.528 1.063 6.688-4.038 5.417-11.405 7.211-15.813 12.375-2.215 2.085-2.368 5.566-.75 8.062 1.967 2.907 4.735 6.192 8.563 6.219 4.03-.457 6.81-3.94 9.218-6.844 2.725-2.992 4.825-6.78 8.5-8.656 2.306-1.316 5.077-.156 6.625 1.781.833.152 1.697.244 2.594.25.105-.004.21-.015.313-.031 7.428-.843 12.449-6.221 16.437-11a89.601 89.601 0 0 1 4.875 9.688c-4.393.29-8.873.964-13.25 2.812-.021.007-.041.023-.062.031-.04.017-.086.015-.125.031-3.203 1.172-5.445 3.487-6.813 6.25.106.5.206 1.018.25 1.532.236 2.482-1.57 4.613-3.875 5.312-6.338 1.907-13.364.004-19.531 2.656-2.821.983-4.048 4.126-3.75 6.907.28 3.568 1.383 7.984 5.094 9.375 4.962 1.08 9.726-1.485 14.25-3.125 3.193-1.007 6.891-2.85 10.187-1.188 1.556.932 2.317 2.48 2.656 4.188a13.59 13.59 0 0 0 4.094 2.437c.122.05.247.093.375.125 6.322 1.376 12.235-.083 17.688-2.062 0 3.612-.21 7.155-.625 10.656-4.511-2.28-9.392-4.18-14.97-4.25h-.062c-2.651-.071-5.046.754-7.03 2.062-.528 1.645-1.441 3.094-3.063 3.875-3.122 1.107-6.39-.556-9.125-1.968-4.388-2.006-8.562-5.232-13.563-5.282-3.519-.115-5.76 3.28-6.656 6.282-1.13 2.949-1.451 6.841 1.187 9.093 5.365 3.828 12.413 3.009 18.438 5.032 2.58.57 5.059 2.615 5 5.437-.1.803-.282 1.58-.531 2.344.714 2.06 1.919 4 3.75 5.562.05.055.102.107.156.157 4.702 3.355 9.9 4.916 15.062 5.906a89.989 89.989 0 0 1-5.906 8.906c-2.044-3.078-4.338-6.084-7.25-8.687-2.827-2.966-6.78-4.43-10.719-4.282-1.683 1.803-4.565 2.447-6.718 1.094-5.35-4.042-7.158-11.215-12.125-15.656-1.888-2.063-5.063-2.589-7.563-1.313-3.107 1.854-6.532 4.58-6.937 8.375-.03 3.892 3.259 6.731 5.968 9.032 3.246 3.074 7.572 5.332 9.594 9.468 1.24 2.279-.015 4.916-1.875 6.438-.08.426-.14.869-.187 1.312a2.729 2.729 0 0 0-.032.25c-.064 8.184 6.216 13.693 11.032 17.782a89.29 89.29 0 0 1-9.719 4.875c-.28-4.465-.94-9.036-2.875-13.47-.027-.06-.035-.125-.063-.187h-.03c-1.177-3.115-3.53-5.285-6.188-6.593-.32.07-.614.14-.938.187-2.336.378-4.732-.936-5.593-3.156-2.415-6.489-.126-13.89-2.97-20.281-1.147-3.21-4.956-4.105-8-3.563-3.232.445-7.137 1.662-8.28 5.094-1.018 5.243 1.777 10.108 3.468 14.906.966 3.005 2.49 6.612.782 9.625-.986 1.428-2.481 2.145-4.125 2.469a13.057 13.057 0 0 0-2.5 4.375c-.04.112-.07.227-.094.344-1.216 6.264.209 12.05 2.156 17.437a91.176 91.176 0 0 1-10.719-.656c2.268-4.485 4.214-9.326 4.313-14.844v-.062c.087-2.702-.761-5.138-2.094-7.156-1.708-.553-3.212-1.503-3.937-3.22-.985-3.294.835-6.635 2.312-9.5 1.983-4.178 4.958-8.222 5.031-12.968.13-3.442-3.072-5.681-6-6.594-2.994-1.158-7-1.68-9.343 1.032-3.836 5.26-3.045 12.241-4.97 18.218-.556 2.56-2.435 5.133-5.25 5.25a11.324 11.324 0 0 1-2.687-.531c-2 .702-3.9 1.878-5.437 3.656a2.77 2.77 0 0 0-.125.188c-3.433 4.708-5.04 9.916-6.031 15.125a89.64 89.64 0 0 1-8.875-5.906c.47-.32.94-.667 1.406-1 2.532-1.79 5.42-3.947 7.75-6.75 2.233-2.687 3.94-6.14 3.844-10.157-1.716-1.659-2.484-4.327-1.282-6.5 2.922-4.22 7.922-6.23 12-9.156 2.772-1.957 6.06-4.558 5.813-8.375-.445-2.9-2.516-5.422-4.656-7.312-1.961-1.73-4.824-2.77-7.282-1.5-6.03 3.076-8.666 9.994-13.937 14-1.791 1.72-4.744 1.999-6.75.468a15.696 15.696 0 0 1-1.281-1.312c-2.626-.517-5.413-.307-8.063 1.062v.031c-4.714 2.409-8.289 5.901-11.437 9.594a89.316 89.316 0 0 1-4.813-9.625c3.976-.254 8.01-.82 11.969-2.281.093-.034.188-.058.281-.094 3.657-1.042 6.39-3.615 8-6.781-.01-.042-.022-.083-.031-.125-.805-2.472.425-5.293 2.812-6.344 6.299-2.406 13.518-.336 19.782-2.718 2.787-.723 4.483-3.61 4.375-6.407-.212-3.473-.923-7.628-4.094-9.656-3.553-1.708-7.644-.206-11.094 1.063-4.015 1.26-7.863 3.62-12.187 3.406-2.637.012-4.501-2.401-4.844-4.844-.535-.46-1.096-.914-1.719-1.312-.1-.06-.205-.111-.312-.157-6.922-3.327-14.183-1.054-20.094 1.094v-.062c0-3.634.205-7.199.625-10.72 3.852 1.908 7.97 3.524 12.562 4.126l.25.031c3.421.67 6.699-.271 9.282-2 .095-.3.197-.58.312-.875.866-2.245 3.195-3.688 5.594-3.281 6.73 1.196 11.921 6.73 18.75 7.562 3.215.706 6.015-1.877 7.125-4.687 1.287-3.053 2.374-7.1.094-9.969-3.298-3.263-8.271-3.583-12.625-4.313-3.49-.731-7.599-.848-10.25-3.53-1.507-1.595-1.454-3.798-.782-5.782a13.1 13.1 0 0 0-2.093-3.813 2.733 2.733 0 0 0-.22-.218c-4.724-4.675-10.797-6.359-16.624-7.375a89.939 89.939 0 0 1 5.875-8.907c2.8 4.214 6.13 8.241 10.875 11.157 2.278 1.404 4.767 1.871 7.156 1.718.958-.86 2.044-1.522 3.375-1.78 3.177-.382 5.58 2.398 7.156 4.78 3.248 4.333 5.296 9.896 10.094 12.844 2.928 1.806 6.498.038 8.75-2.031 2.44-1.968 4.75-5.094 3.719-8.406-2.594-6.023-9.099-8.886-13.344-13.532-1.9-1.743-3.235-4.63-1.969-7.125a11.1 11.1 0 0 1 1.813-2.093c.382-2 .353-4.112-.313-6.25a2.781 2.781 0 0 0-.093-.282c-2.338-5.426-6.093-9.484-10.157-13a89.173 89.173 0 0 1 9.5-4.75c.225 3.677.711 7.429 1.938 11.125.952 4.008 3.676 7.218 7.156 9.063 2.28-.61 4.97.063 6.219 2.187 2.844 6.228.693 13.456 2.812 19.844.62 2.897 3.423 5.02 6.375 4.969 3.617-.217 7.996-.875 10-4.281 1.644-3.675.046-7.747-1.25-11.282-1.29-4.177-3.923-8.287-3.125-12.812.471-2.235 2.516-3.431 4.657-3.875a14.493 14.493 0 0 0 1.5-2.094c.046-.08.087-.164.125-.25 3.074-6.874.89-13.921-1.25-19.781z" fill="#1a1a1a"/><path d="M-189.969 23.25a5.76 5.76 0 0 0-5.75 5.75v1079a5.76 5.76 0 0 0 5.75 5.75H-85.03a5.76 5.76 0 0 0 5.75-5.75V29a5.76 5.76 0 0 0-5.75-5.75H-189.97z" transform="matrix(1 0 0 1.02247 2.851 -6.41)" fill="url(#j)" stroke="#000" stroke-width=".989"/><g stroke-width="3.259"><path d="M-175 17.809v1115M-165 17.809v1115M-145 17.809v1115M-135 17.809v1115M-125 17.809v1115M-105 17.809v1115M-155 17.809v1115M-115 17.809v1115M-95 17.809v1115" fill="#151515" stroke="#000"/><path d="M-180 17.809v1115M-170 17.809v1115M-150 17.809v1115M-140 17.809v1115M-130 17.809v1115M-110 17.809v1115M-160 17.809v1115M-120 17.809v1115M-100 17.809v1115" fill="none" stroke="#222"/></g><g opacity=".5" stroke="#fff" stroke-width="3" fill="#c8c8c8" stroke-linecap="round" stroke-linejoin="round"><path d="M166.393 10.72c0 23.71-19.447 42.93-43.436 42.93-23.99 0-43.437-19.22-43.437-42.93 0 0 0 0 0 0h43.437zM912.896 10.72c0 23.71-19.447 42.93-43.437 42.93-23.989 0-43.436-19.22-43.436-42.93 0 0 0 0 0 0h43.436zM166.393 1139.892c0-23.71-19.447-42.931-43.436-42.931-23.99 0-43.437 19.22-43.437 42.931 0 0 0 0 0 0h43.437zM912.896 1139.892c0-23.71-19.447-42.931-43.437-42.931-23.989 0-43.436 19.22-43.436 42.931 0 0 0 0 0 0h43.436z" opacity=".647"/></g><path d="M684.382 1131.84v-26.676a556.491 556.491 0 0 0 30.531-11.5 556.639 556.639 0 0 0 39.344-17.937 558.255 558.255 0 0 0 19.031-10.063c.74-.41 1.481-.806 2.219-1.219.827-.462 1.644-.94 2.469-1.406a559.97 559.97 0 0 0 13.906-8.125c.384-.232.773-.455 1.156-.687 1.147-.697 2.296-1.42 3.438-2.125a560.88 560.88 0 0 0 18-11.594c1.487-1 2.96-2.019 4.437-3.031 1.473-1.01 2.944-2.008 4.406-3.032a562.188 562.188 0 0 0 21.531-15.844c1.176-.908 2.364-1.8 3.532-2.718.233-.183.455-.38.687-.563a563.307 563.307 0 0 0 39.938-34.656c.117-.112.226-.232.344-.344a564.736 564.736 0 0 0 7.656-7.437c.539-.535 1.088-1.057 1.625-1.594.722-.722 1.438-1.461 2.156-2.187 1.249-1.263 2.483-2.539 3.719-3.813 1.17-1.205 2.341-2.41 3.5-3.625a563.096 563.096 0 0 0 3.875-4.094c1.22-1.306 2.417-2.62 3.625-3.937 3.576-3.901 7.128-7.842 10.594-11.844 1.19-1.373 2.355-2.771 3.531-4.156a562.494 562.494 0 0 0 3.437-4.094 558.193 558.193 0 0 0 2.97-3.594c.253-.31.496-.627.75-.937.735-.903 1.487-1.78 2.218-2.688 1.393-1.73 2.752-3.472 4.125-5.218.018-.023.045-.04.062-.063 1.082-1.377 2.15-2.768 3.219-4.156.929-1.206 1.862-2.412 2.781-3.625.502-.663 1-1.335 1.5-2 .304-.405.603-.813.906-1.219a564.703 564.703 0 0 0 3.125-4.219c.361-.492.735-.975 1.094-1.468 1.137-1.564 2.254-3.144 3.375-4.72.039-.053.086-.101.125-.155.981-1.38 1.937-2.767 2.906-4.157 1.023-1.467 2.053-2.929 3.063-4.406a556.942 556.942 0 0 0 8.875-13.406c.08-.127.169-.249.25-.375a555.914 555.914 0 0 0 5.375-8.531c.064-.104.124-.21.187-.313.532-.865 1.066-1.725 1.594-2.594.37-.61.725-1.232 1.094-1.843a558.333 558.333 0 0 0 2.375-3.97c1.035-1.75 2.046-3.518 3.062-5.28.11-.19.234-.373.344-.563.783-1.361 1.54-2.725 2.312-4.094a556.383 556.383 0 0 0 2.5-4.468l.125-.22a558.436 558.436 0 0 0 1.657-3.03c1.078-1.985 2.164-3.97 3.218-5.97.92-1.743 1.817-3.495 2.72-5.25.133-.26.272-.52.406-.78.685-1.338 1.356-2.688 2.03-4.032.81-1.61 1.614-3.224 2.407-4.843.64-1.308 1.276-2.625 1.906-3.938.146-.303.293-.603.438-.906a551.047 551.047 0 0 0 2.156-4.563 555.16 555.16 0 0 0 2.75-5.968l.563-1.25c.51-1.134 1.028-2.269 1.53-3.407.66-1.494 1.29-2.998 1.938-4.5.51-1.18 1.03-2.346 1.532-3.53.202-.48.392-.96.593-1.438a557.48 557.48 0 0 0 4.094-10.063c.355-.895.712-1.79 1.063-2.687.533-1.365 1.07-2.725 1.593-4.094l.282-.75c.33-.867.643-1.725.968-2.594a555.95 555.95 0 0 0 1.657-4.469c.077-.21.173-.414.25-.625.214-.59.412-1.19.625-1.78.402-1.119.792-2.255 1.187-3.376.412-1.17.846-2.326 1.25-3.5.252-.73.501-1.456.75-2.187.092-.272.19-.54.281-.813.428-1.264.831-2.544 1.25-3.812.515-1.56 1.03-3.122 1.532-4.688l.156-.5c.435-1.362.856-2.727 1.281-4.094.398-1.279.799-2.56 1.188-3.843.57-1.882 1.136-3.766 1.687-5.657.361-1.238.71-2.477 1.063-3.718.492-1.736.96-3.477 1.437-5.22.328-1.199.68-2.39 1-3.593.055-.207.101-.417.156-.625.384-1.448.784-2.891 1.157-4.344.5-1.953.957-3.913 1.437-5.875.22-.895.441-1.79.656-2.687.359-1.497.716-3 1.063-4.5.375-1.624.733-3.246 1.094-4.875.24-1.084.485-2.164.718-3.25.238-1.104.457-2.206.688-3.313.185-.886.381-1.768.562-2.656.42-2.06.822-4.119 1.22-6.187.047-.249.077-.502.124-.75.327-1.714.658-3.438.969-5.157.237-1.31.46-2.623.687-3.937.038-.219.087-.438.125-.656.2-1.157.402-2.31.594-3.47.223-1.343.443-2.683.656-4.03.475-3.003.917-6.014 1.344-9.032.087-.613.165-1.23.25-1.843.276-1.995.558-3.999.813-6a552.35 552.35 0 0 0 .843-7 561.85 561.85 0 0 0 1.344-13.063c.02-.218.043-.438.062-.656.012-.136.02-.27.031-.406.135-1.524.252-3.067.375-4.594.151-1.873.305-3.747.438-5.625.133-1.893.26-3.79.375-5.688.11-1.819.22-3.645.312-5.468.1-1.959.171-3.943.25-5.907.041-1.01.09-2.018.125-3.03.06-1.711.112-3.412.156-5.126v-.281c.025-.99.042-1.977.062-2.969.038-1.913.074-3.832.094-5.75.02-1.912.031-3.834.031-5.75 0-1.92-.012-3.835-.03-5.75a549.156 549.156 0 0 0-.095-5.75c-.022-1.083-.035-2.169-.062-3.25a568.606 568.606 0 0 0-.156-5.125c-.02-.594-.04-1.188-.062-1.781-.088-2.32-.196-4.657-.312-6.969v-.187c-.093-1.833-.202-3.641-.313-5.47a566.968 566.968 0 0 0-.375-5.687c-.132-1.878-.286-3.752-.437-5.625-.135-1.668-.258-3.335-.407-5-.02-.217-.043-.438-.062-.656a561.85 561.85 0 0 0-1.78-16.781 552.35 552.35 0 0 0-.407-3.281c-.254-2.002-.537-4.006-.813-6-.046-.333-.079-.668-.125-1-.039-.281-.085-.564-.125-.844-.426-3.018-.869-6.03-1.343-9.031a563.127 563.127 0 0 0-.657-4.032c-.28-1.69-.58-3.377-.875-5.062-.167-.96-.327-1.918-.5-2.875-.318-1.763-.665-3.524-1-5.281-.047-.25-.077-.502-.125-.75a555.69 555.69 0 0 0-1.218-6.188c-.181-.888-.378-1.77-.563-2.656-.23-1.107-.45-2.208-.687-3.313-.234-1.086-.48-2.166-.72-3.25-.096-.436-.183-.876-.28-1.312a553.953 553.953 0 0 0-1.875-8.063c-.18-.75-.349-1.5-.532-2.25-.036-.146-.089-.29-.125-.437-.29-1.185-.577-2.381-.875-3.563-.194-.77-.365-1.544-.562-2.312-.372-1.453-.773-2.896-1.156-4.344-.055-.207-.101-.418-.157-.625-.32-1.202-.672-2.394-1-3.594-.139-.508-.265-1.023-.406-1.53-.34-1.232-.682-2.46-1.031-3.688-.353-1.242-.702-2.481-1.063-3.72a555.72 555.72 0 0 0-1.687-5.655c-.389-1.283-.79-2.565-1.188-3.844-.476-1.531-.948-3.068-1.437-4.594a558.688 558.688 0 0 0-1.531-4.687c-.51-1.543-1.01-3.09-1.532-4.625-.354-1.043-.733-2.086-1.093-3.125-.293-.846-.578-1.688-.875-2.532-.01-.022-.024-.041-.031-.062-.271-.77-.539-1.545-.813-2.313-.41-1.15-.832-2.29-1.25-3.437-.079-.216-.14-.44-.219-.656-.467-1.276-.961-2.541-1.437-3.813-.418-1.115-.826-2.232-1.25-3.344-.523-1.369-1.06-2.73-1.594-4.093-.2-.51-.393-1.023-.594-1.532-.152-.386-.315-.77-.468-1.156a554.944 554.944 0 0 0-3.782-9.312c-.192-.46-.4-.916-.593-1.375-.11-.26-.203-.523-.313-.782-.504-1.193-1.019-2.373-1.531-3.562-.646-1.498-1.28-3.01-1.938-4.5-.502-1.138-1.021-2.272-1.53-3.406l-.563-1.25a559.16 559.16 0 0 0-2.594-5.657c-.05-.105-.107-.207-.156-.312-.855-1.831-1.72-3.649-2.594-5.469-.402-.838-.813-1.665-1.219-2.5-.314-.646-.62-1.293-.937-1.937-.379-.771-.743-1.544-1.125-2.313-.337-.678-.692-1.355-1.032-2.031-.674-1.344-1.346-2.694-2.03-4.031-.134-.261-.273-.521-.407-.782-.138-.268-.268-.544-.406-.812a559.63 559.63 0 0 0-2.063-3.969c-.082-.156-.168-.312-.25-.469-1.055-2-2.14-3.983-3.219-5.968-.589-1.085-1.185-2.17-1.781-3.25a554.66 554.66 0 0 0-2.5-4.47c-.77-1.366-1.531-2.734-2.313-4.093-.11-.19-.233-.372-.343-.562-.534-.926-1.055-1.86-1.594-2.782-.365-.624-.727-1.252-1.094-1.875-.123-.209-.251-.416-.375-.625a559.523 559.523 0 0 0-3.062-5.125c-.216-.356-.44-.706-.657-1.062-.94-1.544-1.89-3.091-2.843-4.625-.28-.449-.564-.896-.844-1.344-.63-1.006-1.27-1.998-1.906-3-.44-.693-.87-1.403-1.313-2.094-.08-.127-.168-.248-.25-.375a559.987 559.987 0 0 0-5.719-8.718l-.562-.844c-.477-.71-.957-1.417-1.438-2.125-.769-1.135-1.535-2.278-2.312-3.406-.31-.45-.627-.896-.938-1.344-.318-.46-.648-.917-.968-1.375a567.258 567.258 0 0 0-3.032-4.313c-1.12-1.575-2.237-3.155-3.375-4.718-.359-.494-.733-.977-1.093-1.47a562.03 562.03 0 0 0-3.125-4.218c-.303-.405-.603-.814-.907-1.219-.5-.665-.997-1.337-1.5-2-.623-.822-1.247-1.65-1.875-2.468-.297-.389-.607-.77-.906-1.157-1.07-1.388-2.136-2.778-3.219-4.156-.018-.023-.044-.04-.062-.062-.509-.649-1.018-1.292-1.53-1.938-.596-.75-1.183-1.503-1.782-2.25-.269-.336-.543-.665-.813-1-1.41-1.75-2.819-3.485-4.25-5.219-.561-.68-1.122-1.353-1.687-2.03a559.75 559.75 0 0 0-3.438-4.095c-.656-.772-1.308-1.543-1.968-2.312-.5-.583-.998-1.17-1.5-1.75-.02-.022-.044-.04-.063-.063-1.146-1.322-2.31-2.625-3.469-3.937a560.944 560.944 0 0 0-6.625-7.375c-.914-1-1.828-2.007-2.75-3-.24-.26-.477-.522-.718-.781-1.433-1.539-2.894-3.072-4.344-4.594-.066-.07-.122-.15-.188-.219-1.16-1.218-2.328-2.418-3.5-3.625-.981-1.012-1.948-2.027-2.937-3.031-.259-.263-.522-.52-.781-.781-.717-.726-1.435-1.435-2.157-2.157-.733-.733-1.48-1.458-2.218-2.187a563.236 563.236 0 0 0-7.063-6.875c-.117-.112-.226-.232-.344-.344-1.17-1.115-2.351-2.207-3.53-3.312-1.104-1.034-2.202-2.069-3.313-3.094-.406-.375-.812-.752-1.219-1.125a568.448 568.448 0 0 0-2.813-2.563c-.465-.42-.939-.83-1.406-1.25-.846-.76-1.68-1.525-2.531-2.28-.183-.163-.38-.308-.563-.47-1.29-1.142-2.573-2.307-3.875-3.437-.05-.044-.105-.081-.156-.125l-.469-.406c-1.177-1.02-2.376-2.021-3.562-3.032-1.05-.895-2.099-1.8-3.156-2.687-.822-.69-1.643-1.377-2.469-2.063-.363-.3-.73-.606-1.094-.906-.486-.401-.98-.788-1.469-1.187a561.718 561.718 0 0 0-7.125-5.75c-.4-.318-.785-.652-1.187-.97-.227-.178-.46-.352-.688-.53-1.4-1.1-2.807-2.194-4.218-3.282l-1.094-.843c-.82-.629-1.646-1.252-2.469-1.875-.962-.73-1.908-1.465-2.875-2.188-.464-.347-.94-.685-1.406-1.031a558.6 558.6 0 0 0-4.031-2.969c-.091-.066-.19-.121-.282-.187a555.288 555.288 0 0 0-3.25-2.344c-.485-.349-.95-.716-1.437-1.063-.963-.686-1.939-1.35-2.906-2.03-.42-.297-.829-.613-1.25-.907-1.407-.984-2.834-1.936-4.25-2.906-1.478-1.014-2.95-2.032-4.438-3.032a560.176 560.176 0 0 0-8.937-5.875c-1.502-.967-3.02-1.92-4.532-2.875-1.308-.825-2.621-1.654-3.937-2.468-.417-.259-.832-.524-1.25-.782-.927-.57-1.851-1.153-2.781-1.718-1.91-1.161-3.825-2.3-5.75-3.438-.013-.01-.02-.024-.031-.03a560.452 560.452 0 0 0-9.282-5.345c-.821-.465-1.644-.945-2.468-1.406-.737-.412-1.48-.81-2.22-1.219a556.443 556.443 0 0 0-9.468-5.125 559.068 559.068 0 0 0-8.594-4.437c-.325-.165-.643-.336-.968-.5-.904-.455-1.813-.893-2.72-1.344-1.35-.671-2.705-1.34-4.062-2-.678-.33-1.351-.672-2.031-1-.29-.14-.584-.267-.875-.406-.994-.477-2.003-.935-3-1.406-.733-.347-1.452-.72-2.187-1.063-.03-.014-.065-.018-.094-.03-1.496-.7-2.997-1.378-4.5-2.063a556.96 556.96 0 0 0-14.875-6.532c-1.664-.7-3.328-1.408-5-2.093a553.763 553.763 0 0 0-5.031-2.032c-.626-.249-1.249-.503-1.875-.75-1.058-.417-2.127-.808-3.188-1.218a558.266 558.266 0 0 0-5.062-1.938c-1.515-.57-3.042-1.162-4.563-1.719a551.133 551.133 0 0 0-5.656-2.03c-1.183-.42-2.377-.809-3.563-1.22-.532-.184-1.06-.38-1.593-.562V19.78H320.85v25.665c-1.43.49-2.857.998-4.28 1.5-2.002.705-4.01 1.398-6 2.125-.159.058-.312.13-.47.187-1.545.566-3.086 1.14-4.625 1.72a554.16 554.16 0 0 0-8.156 3.155c-2.118.836-4.238 1.671-6.344 2.532-1.89.772-3.777 1.551-5.656 2.343-2.012.848-4 1.724-6 2.594-.299.13-.608.245-.906.375-2.08.91-4.151 1.847-6.219 2.781a557.118 557.118 0 0 0-11.531 5.344c-.273.13-.54.275-.813.406a556.735 556.735 0 0 0-12.156 6.032c-.503.257-.998.522-1.5.78-1.5.775-3.007 1.557-4.5 2.345-.095.05-.186.106-.281.156-.24.126-.48.248-.719.375-1.664.882-3.314 1.789-4.969 2.687-1.986 1.079-3.966 2.148-5.937 3.25a559.778 559.778 0 0 0-5.875 3.344 561.706 561.706 0 0 0-5.844 3.406c-.028.016-.066.015-.094.031-1.546.915-3.088 1.853-4.625 2.782-.723.437-1.435.872-2.156 1.312-1.567.957-3.13 1.935-4.687 2.906a559.732 559.732 0 0 0-15.75 10.188c-.406.272-.815.54-1.22.812a560.228 560.228 0 0 0-5.562 3.813 557.207 557.207 0 0 0-5.5 3.875 559.27 559.27 0 0 0-5.468 3.937 565.794 565.794 0 0 0-5.47 4.032 563.077 563.077 0 0 0-10.624 8.156l-.719.562c-1.398 1.103-2.8 2.197-4.187 3.313a565.304 565.304 0 0 0-10.75 8.875c-.532.449-1.065.893-1.594 1.344a564.364 564.364 0 0 0-8.563 7.468c-1.88 1.669-3.767 3.338-5.625 5.032-1.448 1.32-2.878 2.665-4.312 4-1.643 1.529-3.282 3.045-4.906 4.593-.123.118-.253.227-.375.344-.911.87-1.814 1.75-2.72 2.625-.58.562-1.17 1.123-1.75 1.688-1.07 1.044-2.125 2.103-3.187 3.156-.531.527-1.033 1.064-1.562 1.594-1.354 1.354-2.722 2.694-4.063 4.062-.226.231-.461.456-.687.688a568.932 568.932 0 0 0-4.656 4.843c-.072.075-.148.144-.22.22-1.229 1.29-2.438 2.603-3.655 3.905a564.465 564.465 0 0 0-3.625 3.907c-.498.543-1.004 1.08-1.5 1.625l-.313.343a565.39 565.39 0 0 0-4.156 4.625c-.064.072-.124.148-.188.22-1.516 1.708-3.004 3.428-4.5 5.155-1.165 1.346-2.316 2.675-3.468 4.032a563.782 563.782 0 0 0-4.313 5.156c-.514.62-1.02 1.252-1.531 1.875-.328.4-.673.787-1 1.187a576.157 576.157 0 0 0-2.531 3.125c-.28.347-.566.685-.844 1.032a563.183 563.183 0 0 0-7.906 10.093c-1.224 1.6-2.42 3.2-3.625 4.813-.5.668-1.003 1.33-1.5 2a558.487 558.487 0 0 0-2.5 3.406 560.94 560.94 0 0 0-6.875 9.625c-.317.454-.622.92-.938 1.375a565.497 565.497 0 0 0-3.812 5.563c-1.026 1.518-2.051 3.033-3.063 4.562-.228.345-.46.686-.687 1.031-.17.259-.33.523-.5.782-.17.257-.332.523-.5.78a557.131 557.131 0 0 0-8.125 12.782c-.57.924-1.124 1.854-1.688 2.781a564.882 564.882 0 0 0-3.469 5.782c-.13.221-.275.434-.406.656a555.223 555.223 0 0 0-2.687 4.625c-.107.186-.206.376-.313.562-.785 1.366-1.57 2.72-2.344 4.094-.2.354-.395.708-.593 1.063-.134.239-.273.48-.407.718-.544.975-1.086 1.96-1.625 2.938-.029.053-.065.103-.094.156-.833 1.513-1.648 3.041-2.468 4.563-1.19 2.209-2.37 4.43-3.532 6.656-.498.956-1.006 1.915-1.5 2.875-.128.25-.247.5-.374.75a553.476 553.476 0 0 0-3.063 6.062c-.465.936-.946 1.874-1.406 2.813a618.97 618.97 0 0 0-1.25 2.562c-.222.459-.436.916-.656 1.375-.581 1.208-1.147 2.412-1.72 3.625a557.836 557.836 0 0 0-4.718 10.313c-.257.575-.526 1.142-.781 1.719-.328.74-.644 1.476-.969 2.218-.913 2.086-1.8 4.183-2.687 6.282a554.112 554.112 0 0 0-2.47 5.906c-.05.125-.104.25-.155.375-.021.052-.01.104-.031.156a555.572 555.572 0 0 0-4 10.094c-.575 1.49-1.157 2.972-1.72 4.469-.551 1.468-1.085 2.932-1.624 4.406-.503 1.372-1.008 2.747-1.5 4.125-.28.783-.568 1.559-.844 2.344-.602 1.707-1.164 3.41-1.75 5.125-.153.45-.348.893-.5 1.343-.154.455-.254.92-.406 1.375-.577 1.72-1.158 3.43-1.72 5.157a564.696 564.696 0 0 0-1.812 5.718c-.088.283-.224.56-.312.844-.117.374-.197.75-.313 1.125-.56 1.815-1.145 3.646-1.687 5.469-.656 2.205-1.277 4.409-1.906 6.625a581.89 581.89 0 0 0-1.844 6.656c-.211.78-.417 1.562-.625 2.344-.385 1.448-.782 2.89-1.156 4.344l-.25.968c-.492 1.924-.998 3.85-1.47 5.782-.182.749-.32 1.5-.5 2.25a561.67 561.67 0 0 0-1.874 8.062c-.24 1.071-.516 2.145-.75 3.219-.159.729-.282 1.457-.438 2.187a552.436 552.436 0 0 0-.968 4.625c-.055.27-.102.544-.157.813-.41 2.019-.799 4.035-1.187 6.062a560.765 560.765 0 0 0-.906 4.813c-.125.684-.253 1.377-.375 2.062-.205 1.144-.397 2.291-.594 3.438-.199 1.154-.433 2.312-.625 3.469-.01.062.01.125 0 .187-.372 2.25-.717 4.491-1.063 6.75-.03.198-.095.396-.125.594-.321 2.12-.64 4.246-.937 6.375-.046.332-.08.668-.125 1-.275 1.995-.558 3.998-.813 6a560.89 560.89 0 0 0-.843 7v.125c-.492 4.308-.95 8.6-1.344 12.937l-.094 1.063c-.136 1.53-.252 3.061-.375 4.594-.151 1.872-.305 3.747-.438 5.625-.133 1.892-.26 3.79-.375 5.687-.11 1.828-.22 3.636-.312 5.469v.187c-.116 2.313-.224 4.65-.313 6.97-.023.592-.01 1.186-.03 1.78-.06 1.71-.144 3.411-.188 5.125v.282c-.025.987-.012 1.98-.031 2.968a549.156 549.156 0 0 0-.094 5.75c-.02 1.915-.031 3.831-.031 5.75 0 1.92.012 3.836.03 5.75.02 1.918.056 3.837.095 5.75.02.992.01 1.979.03 2.97v.28c.045 1.714.129 3.415.188 5.125.021.596.01 1.186.031 1.782.016.418.046.832.062 1.25.08 1.963.151 3.948.25 5.906.093 1.823.203 3.65.313 5.469.115 1.897.242 3.795.375 5.687.132 1.878.286 3.752.437 5.625.124 1.527.24 3.07.375 4.594l.094 1.062c.394 4.337.852 8.63 1.344 12.938v.125a573.445 573.445 0 0 0 .844 7c.254 2.001.537 4.005.812 6 .046.332.08.668.125 1 .04.282.085.562.125.844.01.042.025.083.031.125.256 1.803.509 3.608.782 5.406.03.199.063.395.094.594.345 2.258.69 4.5 1.062 6.75l.031.187c.192 1.16.395 2.312.594 3.469.197 1.142.39 2.297.594 3.437.123.69.249 1.375.375 2.063.294 1.613.598 3.204.906 4.812.04.209.085.417.125.625.403 2.088.793 4.171 1.219 6.25.316 1.547.64 3.084.968 4.625.156.73.31 1.46.47 2.188.234 1.076.478 2.145.718 3.219a567.893 567.893 0 0 0 1.875 8.062c.18.747.35 1.504.531 2.25.036.147.09.29.125.438.292 1.19.576 2.375.875 3.562.15.59.287 1.191.438 1.781.082.324.166.646.25.97.373 1.452.77 2.895 1.156 4.343.208.78.414 1.565.625 2.344a595.067 595.067 0 0 0 1.844 6.656c.63 2.216 1.281 4.42 1.937 6.625l.063.219c.634 2.126 1.28 4.259 1.938 6.375.088.283.192.56.28.843a562.893 562.893 0 0 0 1.813 5.72c.561 1.726 1.142 3.436 1.72 5.155.152.457.282.92.437 1.375.153.452.315.893.468 1.344.584 1.708 1.151 3.425 1.75 5.125 0 .012.027.02.031.031.272.773.538 1.542.813 2.313.493 1.38.996 2.75 1.5 4.125.462 1.263.935 2.522 1.406 3.781a560.274 560.274 0 0 0 1.938 5.094c.502 1.302.988 2.609 1.5 3.906.837 2.122 1.7 4.234 2.562 6.344.66 1.615 1.326 3.236 2 4.844a549.065 549.065 0 0 0 4.281 9.937 558.216 558.216 0 0 0 8.407 18.125c.45.926.92 1.858 1.375 2.781.252.511.496 1.022.75 1.532.328.661.668 1.308 1 1.968l.125.25a559.172 559.172 0 0 0 7.344 14.094c.82 1.522 1.635 3.05 2.468 4.563.03.053.064.103.094.156.54.98 1.079 1.96 1.625 2.937.328.588.67 1.164 1 1.75.3.531.605 1.064.906 1.594.48.844.954 1.69 1.438 2.531.106.186.206.378.312.563.89 1.544 1.783 3.09 2.688 4.625.13.221.275.435.406.656a560.554 560.554 0 0 0 3.125 5.219c1.286 2.121 2.562 4.24 3.875 6.344.32.513.647 1.02.969 1.53.951 1.514 1.91 3.029 2.875 4.532.802 1.25 1.625 2.476 2.437 3.719.338.517.66 1.046 1 1.562 2.39 3.63 4.841 7.242 7.313 10.813.085.123.164.252.25.375 1.28 1.846 2.573 3.67 3.875 5.5a562.168 562.168 0 0 0 8.75 11.969c.29.386.584.77.875 1.156a561.716 561.716 0 0 0 9.281 11.969c.184.23.378.457.563.687.988 1.234 2 2.463 3 3.688.272.333.539.667.812 1 .693.845 1.396 1.69 2.094 2.53a564.044 564.044 0 0 0 6.156 7.282c1.705 1.987 3.393 3.975 5.125 5.938a562.69 562.69 0 0 0 7.156 7.937c.968 1.056 1.93 2.108 2.907 3.156.236.255.481.497.718.75a562.57 562.57 0 0 0 7.344 7.72c1.239 1.276 2.499 2.547 3.75 3.812 1.023 1.033 2.032 2.068 3.063 3.093.23.23.456.459.687.688 1.06 1.05 2.12 2.114 3.188 3.156.205.2.419.393.625.594 2.064 2.01 4.154 3.99 6.25 5.969.79.746 1.58 1.508 2.375 2.25l.5.468c1.325 1.234 2.662 2.435 4 3.657.314.287.622.588.937.875.507.46 1.022.916 1.531 1.375 1.157 1.043 2.304 2.091 3.47 3.125.164.146.333.29.5.437a566.437 566.437 0 0 0 4.562 4 577.398 577.398 0 0 0 3.5 3c.535.457 1.056.92 1.593 1.375.82.692 1.646 1.375 2.47 2.063a556.5 556.5 0 0 0 4.124 3.406c1.256 1.03 2.516 2.074 3.781 3.094.122.098.254.183.375.28 1.388 1.116 2.79 2.21 4.188 3.313 1.392 1.098 2.784 2.197 4.187 3.282.616.476 1.226.963 1.844 1.437.799.612 1.604 1.204 2.406 1.813a564.516 564.516 0 0 0 4.282 3.218c1.358 1.01 2.725 2.034 4.093 3.032.073.053.147.103.22.156 1.743 1.27 3.49 2.53 5.25 3.781 1.143.814 2.286 1.601 3.437 2.406.684.48 1.375.962 2.062 1.438 1.44.998 2.894 1.983 4.344 2.969.408.277.81.567 1.219.843.403.273.814.541 1.218.813a564.56 564.56 0 0 0 4.407 2.937c.019.013.043.018.062.031.585.385 1.163.774 1.75 1.157 1.185.773 2.372 1.548 3.563 2.312.094.061.186.127.28.188 1.29.826 2.58 1.621 3.876 2.437.605.38 1.206.778 1.812 1.156 1.144.714 2.289 1.42 3.438 2.125 1.135.698 2.265 1.373 3.406 2.063a563.103 563.103 0 0 0 9.25 5.469c.44.254.872.527 1.313.781 1.954 1.124 3.905 2.212 5.875 3.312 1.661.93 3.327 1.838 5 2.75.315.173.62.36.937.532.312.169.626.331.938.5 1.671.903 3.349 1.8 5.03 2.687a563.61 563.61 0 0 0 4.5 2.344c.501.258 1 .525 1.5.781 1.098.562 2.212 1.101 3.313 1.656 1.6.807 3.204 1.615 4.813 2.407 1.613.793 3.222 1.597 4.844 2.375 1.248.598 2.497 1.191 3.75 1.781.437.206.874.42 1.312.625.093.043.188.082.281.125 1.472.687 2.959 1.356 4.438 2.031 1.642.75 3.287 1.485 4.937 2.219 1.007.447 2.022.902 3.032 1.344.687.3 1.373.608 2.062.906 1.61.697 3.226 1.38 4.844 2.062.83.35 1.668.686 2.5 1.032 2.812 1.169 5.634 2.344 8.469 3.468.343.137.687.271 1.03.407 1.028.405 2.064.788 3.095 1.187 1.684.653 3.37 1.3 5.062 1.938 1.542.58 3.076 1.183 4.625 1.75.154.056.315.1.469.156 1.66.606 3.332 1.19 5 1.781.043.015.081.048.125.062.291.103.583.21.875.313 1.427.502 2.848.977 4.281 1.469v26.706h363.531zm-181.75-252.52c-167.892 0-304-136.108-304-304 0-167.891 136.108-304 304-304s304 136.109 304 304c0 167.892-136.108 304-304 304z" fill="#111" stroke="url(#k)" stroke-width="10" stroke-linecap="round" stroke-linejoin="round"/><path d="M502.632 382.452c-106.515 0-192.87 86.322-192.87 192.837 0 106.515 86.355 192.869 192.87 192.869S695.5 681.804 695.5 575.288c0-106.514-86.354-192.836-192.87-192.836zm0 118.475c41.072 0 74.362 33.289 74.362 74.362 0 41.073-33.29 74.394-74.362 74.394-41.073 0-74.363-33.321-74.363-74.394 0-41.073 33.29-74.362 74.363-74.362z" opacity=".307" fill="url(#l)" stroke="#f3eedf" stroke-width="2.073"/><path d="M502.648 27.256c-302.68 0-548.065 245.354-548.065 548.033s245.386 548.065 548.065 548.065c302.679 0 548.033-245.386 548.033-548.065 0-302.68-245.354-548.033-548.033-548.033zm0 362.322c102.563 0 185.711 83.147 185.711 185.71C688.36 677.854 605.211 761 502.648 761c-102.564 0-185.711-83.147-185.711-185.711 0-102.564 83.147-185.711 185.71-185.711z" fill="#b3b3b3" stroke="#6a5555" stroke-width=".918"/><path d="M504.882 45.774C212.836 45.774-23.93 282.51-23.93 574.556c0 292.046 236.766 528.812 528.812 528.812 292.046 0 528.781-236.766 528.781-528.813 0-292.046-236.734-528.78-528.78-528.78zm0 349.594c98.961 0 179.188 80.227 179.188 179.188 0 98.96-80.227 179.187-179.188 179.187-98.96 0-179.187-80.227-179.187-179.188 0-98.96 80.226-179.187 179.187-179.187z" opacity=".4" fill="url(#m)" transform="matrix(1.0364 0 0 1.0364 -20.616 -20.185)"/><path d="M502.648 425.755c-82.588 0-149.534 66.946-149.534 149.534s66.946 149.534 149.534 149.534 149.534-66.946 149.534-149.534-66.946-149.534-149.534-149.534zm0 75.172c41.073 0 74.362 33.289 74.362 74.362 0 41.073-33.29 74.394-74.362 74.394-41.073 0-74.362-33.321-74.362-74.394 0-41.073 33.29-74.362 74.362-74.362z" opacity=".158" fill="none" stroke="#e3eace" stroke-width="3.10923"/><path d="M504.85 1103.368c292.047 0 528.813-236.735 528.813-528.781 0-292.047-236.766-528.813-528.812-528.813-292.046 0-528.781 236.766-528.781 528.813 0 292.046 236.734 528.781 528.78 528.781zm0-349.594c-98.96 0-179.187-80.226-179.187-179.187 0-98.961 80.227-179.188 179.188-179.188 98.96 0 179.187 80.227 179.187 179.188 0 98.96-80.226 179.187-179.187 179.187z" opacity=".37" fill="url(#n)" transform="matrix(1.0364 0 0 1.0364 -20.616 -20.185)"/><text style="line-height:125%;-inkscape-font-specification:URW Palladio L Medium" x="711.743" y="626.274" font-size="70.085" font-weight="500" letter-spacing="0" word-spacing="0" fill="url(#o)" stroke="#fff" stroke-width="3.504" stroke-linecap="round" stroke-linejoin="round" font-family="URW Palladio L"><tspan x="711.743" y="626.274" style="-inkscape-font-specification:Lohit Gujarati Bold" font-size="98.119" font-weight="700" font-family="Lohit Gujarati">CD+R</tspan></text><rect width="1278.868" height="1135.939" x="-193.368" y="6.875" rx="7.863" ry="7.946" opacity=".293" fill="url(#p)"/></g></svg>