<svg xmlns="http://www.w3.org/2000/svg" xmlns:xlink="http://www.w3.org/1999/xlink" height="320" width="512"><defs><linearGradient id="d"><stop offset="0" stop-color="#fff"/><stop offset="1" stop-color="#fff" stop-opacity="0"/></linearGradient><linearGradient id="a"><stop offset="0" stop-color="#53d900"/><stop offset="1" stop-color="#2c5000"/></linearGradient><linearGradient id="b"><stop offset="0" stop-color="#fff"/><stop offset="1"/></linearGradient><linearGradient id="c"><stop offset="0" stop-color="#1a1a1a"/><stop offset="1" stop-color="#1a1a1a" stop-opacity="0"/></linearGradient><filter color-interpolation-filters="sRGB" id="f"><feGaussianBlur stdDeviation="1.932"/></filter><linearGradient y2="473.178" x2="658.635" y1="199.503" x1="334.831" gradientTransform="translate(-276.82 247.625)" gradientUnits="userSpaceOnUse" id="z" xlink:href="#a"/><linearGradient y2="362.234" x2="538.866" y1="543.819" x1="407.555" gradientTransform="translate(-276.82 247.625)" gradientUnits="userSpaceOnUse" id="y" xlink:href="#b"/><linearGradient y2="399.532" x2="527.635" y1="370.072" x1="434.585" gradientTransform="translate(-276.82 247.625)" gradientUnits="userSpaceOnUse" id="w" xlink:href="#b"/><linearGradient y2="465.63" x2="413.393" y1="462.192" x1="383.312" gradientTransform="translate(-281.23 259.537)" gradientUnits="userSpaceOnUse" id="v" xlink:href="#b"/><linearGradient y2="590.569" x2="507.57" y1="313.649" x1="416.888" spreadMethod="reflect" gradientTransform="translate(-276.82 247.625)" gradientUnits="userSpaceOnUse" id="u" xlink:href="#b"/><linearGradient y2="390.867" x2="406.362" y1="365.789" x1="402.173" gradientTransform="translate(-276.82 247.625)" gradientUnits="userSpaceOnUse" id="t" xlink:href="#b"/><linearGradient y2="377.254" x2="291.722" y1="346.716" x1="315.891" gradientTransform="translate(-276.82 247.625)" gradientUnits="userSpaceOnUse" id="s" xlink:href="#b"/><linearGradient y2="372.84" x2="326.72" y1="348.957" x1="307.356" gradientTransform="translate(-276.82 247.625)" gradientUnits="userSpaceOnUse" id="r" xlink:href="#b"/><linearGradient y2="395.736" x2="378.192" y1="367.97" x1="405.749" gradientTransform="translate(-276.82 247.625)" gradientUnits="userSpaceOnUse" id="q" xlink:href="#b"/><linearGradient y2="500.142" x2="329.061" y1="384.182" x1="351.496" gradientTransform="translate(-281.23 259.537)" gradientUnits="userSpaceOnUse" id="p" xlink:href="#b"/><linearGradient y2="507.682" x2="363.976" y1="333.784" x1="402.148" gradientTransform="translate(-276.82 247.625)" gradientUnits="userSpaceOnUse" id="o" xlink:href="#b"/><linearGradient y2="427.509" x2="291.896" y1="539.628" x1="246.555" gradientTransform="translate(-276.82 247.625)" gradientUnits="userSpaceOnUse" id="n" xlink:href="#b"/><linearGradient y2="367.232" x2="243.906" y1="597.19" x1="207.37" gradientTransform="translate(-276.82 247.625)" gradientUnits="userSpaceOnUse" id="m" xlink:href="#b"/><linearGradient y2="429.754" x2="538.966" y1="400.648" x1="458.005" gradientTransform="translate(-276.82 247.625)" gradientUnits="userSpaceOnUse" id="l" xlink:href="#a"/><linearGradient y2="572.639" x2="405.924" y1="269.461" x1="491.74" gradientTransform="translate(-276.82 247.625)" gradientUnits="userSpaceOnUse" id="k" xlink:href="#a"/><linearGradient y2="440.969" x2="446.55" y1="262.999" x1="437.969" gradientTransform="translate(-276.82 247.625)" gradientUnits="userSpaceOnUse" id="j" xlink:href="#a"/><linearGradient y2="364.398" x2="651.287" y1="290.034" x1="534.06" gradientTransform="translate(-276.82 247.625)" gradientUnits="userSpaceOnUse" id="i" xlink:href="#a"/><linearGradient y2="-60.607" x2="129.451" y1="388.832" x1="388.934" spreadMethod="reflect" gradientTransform="translate(-276.82 247.625)" gradientUnits="userSpaceOnUse" id="g" xlink:href="#a"/><radialGradient r="238.772" fy="333.439" fx="411.189" cy="333.439" cx="411.189" gradientTransform="matrix(1.6294 0 0 .9458 -560.151 278.994)" gradientUnits="userSpaceOnUse" id="e" xlink:href="#c"/><linearGradient xlink:href="#b" id="x" gradientUnits="userSpaceOnUse" gradientTransform="translate(-276.82 247.625)" spreadMethod="reflect" x1="287.699" y1="396.259" x2="449.86" y2="287.696"/><linearGradient xlink:href="#d" id="h" x1="-12.897" y1="84.699" x2="472.082" y2="88.614" gradientUnits="userSpaceOnUse" gradientTransform="matrix(.9122 0 0 .9122 22.012 7.167)"/><linearGradient xlink:href="#d" id="A" gradientUnits="userSpaceOnUse" x1="-86.286" y1="169.462" x2="232.235" y2="179.564"/></defs><path d="M284.774 494.344l-3.344.938-225.719 88.625 1.094 21.187-4.531 1.938-.281.125-22.563 52.281.281 4.437L-63.32 716.5l.938 3.282 185.937 58.406 2.313-.281 2.218.062 99.313-82.562 26.375 6.125 8.469-.969 163.406-161.656-49.375-31.344-3.75-1.656-87.75-11.563z" fill="url(#e)" filter="url(#f)" transform="translate(77.304 -464.736)"/><path d="M134.32 93.135L359.313 1.91l-3.322.963-226.093 91.423z" fill="#305a00"/><path d="M257.24 593.403l160.379-114.84-135.61-11.915L57.016 557.87z" fill="url(#g)" transform="translate(77.304 -464.736)"/><path d="M355.125 6.75L144.531 92.125l155.281 26.406C317.355 25.171 421.38 12.558 355.125 6.75z" fill="url(#h)"/><path d="M417.619 478.563l-160.38 114.84 6.042 3.352L421.373 480.27z" fill="url(#i)" transform="translate(77.304 -464.736)"/><path d="M134.479 169.304l-3.568-72.766-1.013-2.24 3.567 72.158z" fill="#305a00"/><path d="M129.898 94.297l1.013 2.241 3.409-3.403z" fill="#326400"/><path d="M254.484 597.574l-200.877-36.3 3.568 72.767 193.798 46.301z" fill="url(#j)" transform="translate(77.304 -464.736)"/><path d="M257.24 593.403L57.016 557.871l-3.41 3.403 200.878 36.3z" fill="url(#k)" transform="translate(77.304 -464.736)"/><path d="M254.484 597.574l-3.511 82.768 8.473-1.01 3.835-82.577z" fill="url(#l)" transform="translate(77.304 -464.736)"/><path d="M340.585 132.019l-6.041-3.352-2.756 4.17z" fill="#51d300"/><path d="M145.054 110.867l-1.152-.025 168.554 32.073.88-.053z" fill="#161616"/><path d="M66.586 575.563l-1.468.25-138 61.125.28 4.562 5.97 54.282.968 3.375 186.219 60.25 2.313-.282 2.218.063 110.063-94.219 1.937-56.344-1.062-1.03-168.281-32-1.157-.032z" fill="url(#m)" transform="translate(77.304 -464.736)"/><path d="M76.135 176.25l-64.617 32.522 2.207 22.496 189.173 60.136-.527-23.165 54.798-43.034z"/><path d="M-63.443 674.744l181.01 54.498 51.959-40.817-171.682-44.517z" fill="url(#n)" transform="translate(77.304 -464.736)"/><path d="M118.045 751.211l-.478-21.97-181.01-54.497 2.089 19.441z" fill="url(#o)" transform="translate(77.304 -464.736)"/><path d="M43.125 207.917l12.175 3.55 74.402-39.969-11.498-2.778z" fill="#a05a2c"/><path d="M129.852 174.431l-.15-2.933L55.3 211.467l.285 3.246z" fill="#9c8664"/><path d="M92.795 211.752l12.86 3.635 59.875-35.232-12.172-2.94z" fill="#a05a2c"/><path d="M165.634 183.16l-.104-3.005-59.876 35.232.21 3.28z" fill="#907a57"/><path d="M55.585 214.713l-.285-3.246-12.175-3.55.3 3.217z" fill="#d38d5f"/><path d="M132.22 222.896l13.724 3.88L203.5 189.33l-12.907-3.119z" fill="#a05a2c"/><path d="M203.553 192.412l-.052-3.082-57.557 37.446.151 3.371z" fill="#856e4b"/><path d="M105.864 218.667l-.21-3.28-12.859-3.635.228 3.25z" fill="#d38d5f"/><path d="M162.858 242.829l14.864 4.334 66.09-48.094-13.71-3.312z" fill="#a05a2c"/><path d="M243.805 202.232l.007-3.163-66.09 48.094.106 3.527z" fill="#7a6340"/><path d="M146.095 230.147l-.151-3.37-13.725-3.88.172 3.34zM177.828 250.69l-.106-3.527-14.864-4.334.13 3.494z" fill="#d38d5f"/><path d="M4.41 172.191l1.604-.186 65.223-28.931 72.665-32.232-1.49.238z" fill="gray"/><path d="M-71.304 636.736l-1.031 1.594-.281 3.156.75.938 1.53-1.563 187.063 50.97 2.407-1.688 2.343-1.563-192.78-51.844z" fill="url(#p)" transform="translate(77.304 -464.736)"/><path d="M197.752 290.266l-2.305 1.438-182.273-58.668-1.944-2.494-5.8-52.85-.732-.928 5.974 54.287.974 3.367 186.21 60.248.78-3.314-1.25-61.87-.96-4.065-2.387 1.686 2.471 2.993z" fill="#333"/><path d="M197.386 229.483l3.73-4.271-2.327-1.353-2.362 1.558z" fill="#666"/><path d="M112.228 138.9l.137 2.335 2.96-.263-.134-2.333z" fill="#333"/><path d="M115.191 138.64l33.078 7.195 2.984-.865-36.417-7.879z" fill="#898989"/><path d="M115.191 138.64l.134 2.332 33.044 7.252-.1-2.389z" fill="#333"/><path d="M148.824 149.263l-.1-2.396-.455-1.032.1 2.389z" fill="#202020"/><path d="M148.723 146.867l1.718-.214.812-1.683-2.984.865z" fill="#525252"/><path d="M148.723 146.867l-18.32 9.371.373.498 19.665-10.083z" fill="#2d2d2d"/><path d="M130.776 156.736l-.372-.498-3.172-.316z" fill="#242424"/><path d="M185.132 168.778l.065 2.557 17.28-10.258-.043-2.485z" fill="#333"/><path d="M123.23 622.302L104.584 633.2l3.244.314 17.302-10.186z" fill="url(#q)" transform="translate(77.304 -464.736)"/><path d="M185.755 169.35l-.623-.572-3.244-.314z" fill="#262626"/><path d="M37.532 601.828l-4.28.874 1.672.935 2.963-.262z" fill="url(#r)" transform="translate(77.304 -464.736)"/><path d="M93.304 147.738l.162 2.399 18.9-8.902-.138-2.335z" fill="#333"/><path d="M33.253 602.702l-20.373 9.456 3.12.316 18.924-8.837z" fill="url(#s)" transform="translate(77.304 -464.736)"/><path d="M93.518 148.186l-.214-.448-3.12-.317z" fill="#222"/><path d="M6.014 172.005l-1.604.186.288 4.573.272-3.17z" fill="#666"/><path d="M313.337 142.862l-.88.053 1.934.962z" fill="#313131"/><path d="M253.503 184.896l-54.714 38.963 2.326 1.353 113.276-81.335-1.935-.962-58.953 41.981z" fill="gray"/><path d="M125.13 623.328l3.098-.299-.7-1.731-4.298 1.004z" fill="url(#t)" transform="translate(77.304 -464.736)"/><path d="M202.434 158.592l.042 2.485 3.095-.3-.039-2.484z" fill="#333"/><path d="M205.532 158.293l38.235 8.318 3.149-.945-42.084-9.104z" fill="#949494"/><path d="M205.532 158.293l.039 2.483 38.191 8.381.005-2.546z" fill="#333"/><path d="M244.628 170.359l.006-2.555-.867-1.193-.005 2.546z" fill="#3f3f3f"/><path d="M244.634 167.804l2.021-.192.26-1.946-3.148.945z" fill="#616161"/><path d="M244.634 167.804l-16.394 10.85.835.637 17.58-11.68z" fill="#3d3d3d"/><path d="M229.075 179.29l-.835-.635-3.296-.312z" fill="#272727"/><path d="M235.137 664.955l1.95-56.342-113.276 81.335 1.273 69.225z" fill="url(#u)" transform="translate(77.304 -464.736)"/><path d="M200.164 294.397l2.224.04-3.752-3.085-.78 3.314z" fill="#1a1a1a"/><path d="M120.082 694.22l1.25 61.868 3.752 3.085-1.273-69.225z" fill="url(#v)" transform="translate(77.304 -464.736)"/><path d="M237.086 608.625L216.4 623.47l.531 45.906c1.046 2.72 3.556 4.259 8.906 3.563l9.313-7.969 1.937-56.344z" fill="url(#w)" transform="translate(77.304 -464.736)"/><path d="M66.586 575.563l-72.656 32.25-65.623 29.342 192.781 51.844 55.123-39.374 58.938-41.968zm-29.062 26.25l36.437 7.906-.812 1.656L53.46 621.47l-40.593-9.312 20.375-9.469zm90 19.5l42.094 9.094-.282 1.937-17.562 11.688-47.188-10.844 18.657-10.875z" fill="url(#x)" transform="translate(77.304 -464.736)"/><path d="M66.586 575.563l-17.717 7.445 168.128 37.572 18.156-12.929z" fill="url(#y)" transform="translate(77.304 -464.736)"/><path d="M421.373 480.27L263.281 596.755l-3.835 82.578 156.208-148.447z" fill="url(#z)" transform="translate(77.304 -464.736)"/><path d="M131.219 119.406l-57.906 25.719-59.594 26.656 160.937 43.25s4.673-84.87-43.437-95.625zm-16.406 17.656l36.437 7.907-.813 1.656-19.687 10.094-1.25-.281-2.094 1.062-36.875-8.438 2.25-1.062-2.625-.594 20.375-9.469 4.281-.875z" fill="url(#A)"/></svg>