<svg xmlns="http://www.w3.org/2000/svg" xmlns:xlink="http://www.w3.org/1999/xlink" width="300" height="150"><defs><linearGradient id="c"><stop offset="0" stop-color="#811a00"/><stop offset=".5" stop-color="#ef6d4c"/><stop offset="1" stop-color="#ea856c"/></linearGradient><linearGradient id="a"><stop offset="0"/><stop offset=".5" stop-color="#363636"/><stop offset="1"/></linearGradient><linearGradient id="b"><stop offset="0" stop-color="#353535"/><stop offset=".484" stop-color="#c8c8c8"/><stop offset="1" stop-color="#474747"/></linearGradient><filter id="U" color-interpolation-filters="sRGB"><feGaussianBlur stdDeviation=".868"/></filter><filter id="I" color-interpolation-filters="sRGB"><feGaussianBlur stdDeviation=".451"/></filter><filter id="K" color-interpolation-filters="sRGB"><feGaussianBlur stdDeviation=".243"/></filter><filter id="O" color-interpolation-filters="sRGB"><feGaussianBlur stdDeviation=".147"/></filter><filter id="C" color-interpolation-filters="sRGB"><feGaussianBlur stdDeviation=".355"/></filter><filter id="g" color-interpolation-filters="sRGB"><feGaussianBlur stdDeviation=".347"/></filter><filter id="ad" color-interpolation-filters="sRGB"><feGaussianBlur stdDeviation=".378"/></filter><filter id="ag" color-interpolation-filters="sRGB"><feGaussianBlur stdDeviation=".338"/></filter><filter id="E" color-interpolation-filters="sRGB"><feGaussianBlur stdDeviation=".212"/></filter><filter id="B" color-interpolation-filters="sRGB"><feGaussianBlur stdDeviation=".119"/></filter><filter id="p" color-interpolation-filters="sRGB"><feGaussianBlur stdDeviation=".927"/></filter><filter id="n" color-interpolation-filters="sRGB"><feGaussianBlur stdDeviation="1.229"/></filter><filter id="S" color-interpolation-filters="sRGB"><feGaussianBlur stdDeviation=".136"/></filter><filter id="ai" color-interpolation-filters="sRGB"><feGaussianBlur stdDeviation=".304"/></filter><filter id="w" x="-.103" width="1.206" y="-.144" height="1.287" color-interpolation-filters="sRGB"><feGaussianBlur stdDeviation="3.719"/></filter><filter id="u" color-interpolation-filters="sRGB"><feGaussianBlur stdDeviation="1.218"/></filter><filter id="y" color-interpolation-filters="sRGB"><feGaussianBlur stdDeviation="1.008"/></filter><filter id="ak" color-interpolation-filters="sRGB"><feGaussianBlur stdDeviation=".204"/></filter><filter id="ab" color-interpolation-filters="sRGB"><feGaussianBlur stdDeviation=".377"/></filter><filter id="X" color-interpolation-filters="sRGB"><feGaussianBlur stdDeviation=".252"/></filter><filter id="Z" color-interpolation-filters="sRGB"><feGaussianBlur stdDeviation=".226"/></filter><filter id="ao" color-interpolation-filters="sRGB"><feGaussianBlur stdDeviation=".393"/></filter><filter id="ap" x="-.185" width="1.37" y="-.055" height="1.111" color-interpolation-filters="sRGB"><feGaussianBlur stdDeviation=".762"/></filter><filter id="ar" color-interpolation-filters="sRGB"><feGaussianBlur stdDeviation=".809"/></filter><filter id="as" x="-.747" width="2.495" y="-.747" height="2.495" color-interpolation-filters="sRGB"><feGaussianBlur stdDeviation="3.782"/></filter><filter id="M" x="-.267" width="1.533" y="-.401" height="1.802" color-interpolation-filters="sRGB"><feGaussianBlur stdDeviation="2.299"/></filter><filter id="e" color-interpolation-filters="sRGB"><feGaussianBlur stdDeviation="1.947"/></filter><filter id="aw" x="-.715" width="2.43" y="-.119" height="1.237" color-interpolation-filters="sRGB"><feGaussianBlur stdDeviation="1.127"/></filter><filter id="au" x="-.127" width="1.254" y="-.191" height="1.382" color-interpolation-filters="sRGB"><feGaussianBlur stdDeviation=".966"/></filter><filter id="ay" x="-.179" width="1.358" y="-.133" height="1.266" color-interpolation-filters="sRGB"><feGaussianBlur stdDeviation=".559"/></filter><filter id="aA" x="-.117" width="1.234" y="-.552" height="2.104" color-interpolation-filters="sRGB"><feGaussianBlur stdDeviation=".288"/></filter><filter id="aC" color-interpolation-filters="sRGB"><feGaussianBlur stdDeviation=".671"/></filter><filter id="am" color-interpolation-filters="sRGB"><feGaussianBlur stdDeviation=".579"/></filter><linearGradient xlink:href="#b" id="d" gradientUnits="userSpaceOnUse" x1="257.796" y1="666.986" x2="304.479" y2="720.801"/><linearGradient xlink:href="#a" id="h" gradientUnits="userSpaceOnUse" x1="261.737" y1="726.101" x2="198.2" y2="838.425"/><radialGradient xlink:href="#b" id="o" gradientUnits="userSpaceOnUse" gradientTransform="matrix(8.35346 0 0 4.47855 -1831.717 -2511.136)" spreadMethod="reflect" cx="253.929" cy="720.576" fx="253.929" fy="720.576" r="49.697"/><radialGradient xlink:href="#c" id="v" gradientUnits="userSpaceOnUse" gradientTransform="matrix(3.0177 -.9004 .11835 .39667 -858.338 757.61)" spreadMethod="reflect" cx="388.425" cy="685.092" fx="388.425" fy="685.092" r="43.28"/><radialGradient xlink:href="#a" id="A" gradientUnits="userSpaceOnUse" gradientTransform="matrix(7.84023 6.49372 -.1838 .2219 -2344.53 -1836.743)" spreadMethod="reflect" cx="359.519" cy="640.497" fx="359.519" fy="640.497" r="17.813"/><radialGradient xlink:href="#b" id="H" gradientUnits="userSpaceOnUse" gradientTransform="matrix(7.58356 1.46452 -3.26389 8.77913 217.865 -5473.513)" cx="288.781" cy="649.248" fx="288.781" fy="649.248" r="7.023"/><radialGradient xlink:href="#b" id="J" gradientUnits="userSpaceOnUse" gradientTransform="matrix(2.91784 .78183 -1.1469 4.2803 175.485 -2412.697)" cx="304.891" cy="662.842" fx="304.891" fy="662.842" r="7.048"/><linearGradient xlink:href="#b" id="L" gradientUnits="userSpaceOnUse" gradientTransform="matrix(.6132 0 0 .6132 144.39 223.68)" x1="251.824" y1="730.361" x2="302.49" y2="642.604"/><linearGradient xlink:href="#b" id="N" gradientUnits="userSpaceOnUse" x1="303.401" y1="653.926" x2="317.819" y2="653.926"/><radialGradient xlink:href="#b" id="P" gradientUnits="userSpaceOnUse" gradientTransform="matrix(1.81427 2.02283 -3.20104 1.62928 1891.076 -1050.73)" cx="310.495" cy="674.558" fx="310.495" fy="674.558" r="6.157"/><radialGradient xlink:href="#b" id="Q" gradientUnits="userSpaceOnUse" gradientTransform="matrix(1.55042 .6484 -1.35374 1.69844 719.962 -640.707)" cx="288.278" cy="649.316" fx="288.278" fy="649.316" r="5.561"/><radialGradient xlink:href="#a" id="ae" gradientUnits="userSpaceOnUse" gradientTransform="matrix(7.98057 6.4302 -2.42888 3.0145 -1057.71 -4165.992)" cx="426.37" cy="756.231" fx="426.37" fy="756.231" r="16.67"/><radialGradient xlink:href="#b" id="av" gradientUnits="userSpaceOnUse" gradientTransform="matrix(2.3162 0 0 12.59946 -382.528 -8093.758)" cx="290.467" cy="698.098" fx="290.467" fy="698.098" r="4.854"/><linearGradient xlink:href="#b" id="az" gradientUnits="userSpaceOnUse" x1="309.387" y1="648.166" x2="349.005" y2="648.166"/><radialGradient xlink:href="#b" id="aB" gradientUnits="userSpaceOnUse" gradientTransform="matrix(.91245 .24449 -.2384 .88969 -28.485 -612.517)" cx="336.204" cy="679.922" fx="336.204" fy="679.922" r="23.458"/><linearGradient xlink:href="#b" id="ax" gradientUnits="userSpaceOnUse" gradientTransform="translate(13.753 -.044)" x1="317.273" y1="651.287" x2="325.313" y2="655.572"/><linearGradient xlink:href="#b" id="at" gradientUnits="userSpaceOnUse" gradientTransform="translate(12.86 -.937)" x1="342.162" y1="647.22" x2="321.718" y2="647.726"/><radialGradient xlink:href="#b" id="aq" gradientUnits="userSpaceOnUse" gradientTransform="matrix(5.08214 0 0 5.6602 -1578.886 -3442.77)" cx="389.93" cy="738.484" fx="389.93" fy="738.484" r="12.728"/><linearGradient xlink:href="#b" id="an" gradientUnits="userSpaceOnUse" x1="144.741" y1="728" x2="437.632" y2="728" gradientTransform="translate(12.86 -1.294)"/><linearGradient xlink:href="#b" id="al" gradientUnits="userSpaceOnUse" x1="328.246" y1="745.846" x2="350.781" y2="745.846" gradientTransform="translate(12.86 -1.294)"/><radialGradient xlink:href="#c" id="aj" gradientUnits="userSpaceOnUse" gradientTransform="matrix(10.68646 0 0 147.7092 -4088.287 -98251.245)" cx="423.249" cy="669.836" fx="423.249" fy="669.836" r="11.318"/><radialGradient xlink:href="#b" id="ah" gradientUnits="userSpaceOnUse" gradientTransform="matrix(6.8398 -1.13503 .28811 1.7362 -1932.201 -127.604)" spreadMethod="pad" cx="306.601" cy="635.861" fx="306.601" fy="635.861" r="9.125"/><radialGradient xlink:href="#a" id="ac" gradientUnits="userSpaceOnUse" gradientTransform="translate(-59.32 -137.138) scale(1.18358)" cx="391.221" cy="736.803" fx="391.221" fy="736.803" r="19.458"/><linearGradient xlink:href="#a" id="aa" gradientUnits="userSpaceOnUse" x1="334.587" y1="711.312" x2="348.244" y2="694.507" gradientTransform="translate(-221.276 -614.344)"/><radialGradient xlink:href="#a" id="Y" gradientUnits="userSpaceOnUse" gradientTransform="matrix(.98845 0 0 .96328 -217.63 -588.263)" cx="341.458" cy="685.071" fx="341.458" fy="685.071" r="23.181"/><radialGradient xlink:href="#a" id="W" gradientUnits="userSpaceOnUse" gradientTransform="matrix(.81266 -.46919 .3446 .59686 -397.738 -173.402)" cx="340.674" cy="697.29" fx="340.674" fy="697.29" r="25.761"/><linearGradient xlink:href="#b" id="V" gradientUnits="userSpaceOnUse" gradientTransform="matrix(1.3461 -.18899 .14781 1.0528 -189.028 18.96)" spreadMethod="reflect" x1="186.338" y1="608.911" x2="406.128" y2="648.365"/><linearGradient xlink:href="#b" id="T" gradientUnits="userSpaceOnUse" gradientTransform="translate(10.181 -5.133)" x1="251.824" y1="730.361" x2="302.49" y2="642.604"/><radialGradient xlink:href="#b" id="R" gradientUnits="userSpaceOnUse" gradientTransform="matrix(9.9936 0 0 6.34983 -2495.791 -3603.068)" cx="279.152" cy="673.489" fx="279.152" fy="673.489" r="6.857"/><radialGradient xlink:href="#b" id="G" gradientUnits="userSpaceOnUse" gradientTransform="matrix(1.7911 -.47993 .37144 1.38623 -471.165 -112.758)" cx="300.726" cy="662.606" fx="300.726" fy="662.606" r="43.747"/><linearGradient xlink:href="#b" id="F" gradientUnits="userSpaceOnUse" gradientTransform="matrix(.95108 0 0 1.10283 28.474 -68.71)" x1="342.162" y1="647.22" x2="321.718" y2="647.726"/><linearGradient xlink:href="#a" id="D" gradientUnits="userSpaceOnUse" gradientTransform="translate(12.19 -2.187)" x1="356.396" y1="641.502" x2="349.823" y2="641.342"/><linearGradient xlink:href="#a" id="z" gradientUnits="userSpaceOnUse" gradientTransform="matrix(.95215 0 0 1 29.35 -.178)" x1="353.285" y1="645.013" x2="357.331" y2="640.624"/><radialGradient xlink:href="#c" id="x" gradientUnits="userSpaceOnUse" gradientTransform="matrix(.99615 -.0877 .25309 2.87467 -155.385 -1230.028)" spreadMethod="reflect" cx="361.345" cy="664.148" fx="361.345" fy="664.148" r="21.952"/><radialGradient xlink:href="#c" id="t" gradientUnits="userSpaceOnUse" gradientTransform="matrix(3.0675 -.77867 .1475 .58108 -867.413 572.244)" cx="393.079" cy="700.848" fx="393.079" fy="700.848" r="79.807"/><radialGradient xlink:href="#c" id="r" gradientUnits="userSpaceOnUse" gradientTransform="matrix(4.58099 0 0 1.41612 -1229.44 -274.029)" cx="347.246" cy="644.04" fx="347.246" fy="644.04" r="21.812"/><linearGradient xlink:href="#b" id="q" gradientUnits="userSpaceOnUse" gradientTransform="translate(12.86 -2.723)" spreadMethod="reflect" x1="267.205" y1="718.25" x2="314.107" y2="718.25"/><linearGradient xlink:href="#b" id="m" gradientUnits="userSpaceOnUse" gradientTransform="matrix(.79647 0 0 .91814 75.593 58.254)" spreadMethod="reflect" x1="279.358" y1="735.428" x2="321.524" y2="704.072"/><radialGradient xlink:href="#c" id="l" gradientUnits="userSpaceOnUse" gradientTransform="matrix(4.69675 -1.16865 .14359 .57706 -1544.181 742.382)" cx="387.829" cy="650.835" fx="387.829" fy="650.835" r="84.709"/><linearGradient xlink:href="#a" id="k" gradientUnits="userSpaceOnUse" x1="467.142" y1="639.484" x2="470.141" y2="655.985" gradientTransform="translate(12.86 -1.294)"/><radialGradient xlink:href="#b" id="j" gradientUnits="userSpaceOnUse" gradientTransform="matrix(2.47966 .73141 -.26417 .8956 -166.59 -98.976)" spreadMethod="reflect" cx="234.933" cy="695.219" fx="234.933" fy="695.219" r="51.521"/><linearGradient xlink:href="#a" id="i" gradientUnits="userSpaceOnUse" gradientTransform="matrix(.75684 0 0 .75684 83.536 184.428)" spreadMethod="reflect" x1="257.735" y1="714.702" x2="277.548" y2="715.369"/><linearGradient xlink:href="#b" id="f" gradientUnits="userSpaceOnUse" x1="234.136" y1="747.296" x2="344.802" y2="747.296" gradientTransform="translate(12.86 -1.294)"/><filter id="af"><feGaussianBlur stdDeviation=".49"/></filter><filter id="s"><feGaussianBlur stdDeviation=".286"/></filter></defs><path transform="matrix(1.09682 0 0 .95147 -210.326 -566.823)" style="marker:none" d="M303.625 720.576c0 16.964-22.25 30.715-49.696 30.715-27.447 0-49.697-13.751-49.697-30.715 0-16.963 22.25-30.714 49.697-30.714 27.446 0 49.696 13.751 49.696 30.714z" color="#000" fill="url(#d)" overflow="visible" enable-background="accumulate"/><path style="marker:none" d="M272.672 706.706c-11.621 3-9.781.523-9.781 10.031 0 4.367 4.804-1.312 6.781.657 3.891 3.873 7.673 10.952 15.625 13.062 23.833 6.323 49.33 13.276 56.344 18.906 6.537-1.896 12.265-4.416 16.875-7.406v-21.562c0-6.008-5.136-12.825-10.781-10.844l-19.781 6.937c-34.415 1.355-38.36 8.698-55.282-9.78z" color="#000" overflow="visible" filter="url(#e)" enable-background="accumulate" transform="translate(-234.136 -613.05)"/><path d="M247.86 731.08c-.008.209-.031.415-.031.625 0 16.14 24.395 29.219 54.5 29.219 30.104 0 54.5-13.08 54.5-29.22 0-.21-.023-.415-.032-.624-.624 15.85-24.756 28.594-54.468 28.594-29.713 0-53.845-12.745-54.47-28.594z" style="marker:none" color="#000" fill="url(#f)" overflow="visible" filter="url(#g)" enable-background="accumulate" transform="translate(-234.136 -613.05)"/><path transform="matrix(.63239 0 0 .54858 -92.393 -278.28)" style="marker:none" d="M303.625 720.576c0 16.964-22.25 30.715-49.696 30.715-27.447 0-49.697-13.751-49.697-30.715 0-16.963 22.25-30.714 49.697-30.714 27.446 0 49.696 13.751 49.696 30.714z" color="#000" fill="url(#h)" overflow="visible" enable-background="accumulate"/><path d="M283.79 720.246a8.124 8.124 0 0 0-.59 3.004c0 6.935 9.095 12.559 20.316 12.559 11.052 0 20.048-5.46 20.316-12.252-24.311.99-29.819 5.59-40.041-3.31z" style="marker:none" color="#000" fill="url(#i)" overflow="visible" enable-background="accumulate" transform="translate(-234.136 -613.05)"/><path d="M271.25 700.54c18.212 19.794 22.444 11.92 59.482 10.468l21.286-7.432c6.076-2.122 11.617 5.18 11.617 11.617v25c0 6.436-16.114 24.237-16.31 17.805l-.231-7.576c4.589-6.492-30.235-15.996-62.256-24.452-8.558-2.26-12.64-9.843-16.828-13.993-2.127-2.108-7.306 3.964-7.306-.713 0-10.186-1.962-7.51 10.546-10.724z" style="marker:none" color="#000" fill="url(#j)" overflow="visible" enable-background="accumulate" transform="translate(-234.136 -613.05)"/><path d="M490.344 638.034l18.646-.732c3.215-.126 5.544-4.234 7.724-3.876 2.18.358 4.211 5.182 4.493 7.09.282 1.909-.268 7.114-2.252 8.086-1.983.973-5.4-2.286-8.515-1.478l-18.061 4.689c-6.23 1.617-11.946-1.376-12.51-5.193-.563-3.817 4.045-8.334 10.475-8.586z" style="marker:none" color="#000" fill="url(#k)" overflow="visible" enable-background="accumulate" transform="translate(-234.136 -613.05)"/><path d="M465.633 614.344c-43.213 4.699-87.168 19.113-132.153 19.869-6.415.925-10.809 6.835-9.883 13.25l2.424 16.806 8.616-2.238c-6.018 2.405-8.92 9.214-6.515 15.233l12.18 30.466a11.63 11.63 0 0 0 15.17 6.515c10.414-20.137 89.256-30.415 98.734-42.327 3.664-4.605 42.973-2.111 38.3-30.754-.537-7.772-3.86-24.687-26.873-26.82z" style="marker:none" color="#000" fill="url(#l)" overflow="visible" enable-background="accumulate" transform="translate(-234.136 -613.05)"/><path style="marker:none" d="M281.391 702.644a93.42 93.42 0 0 1-3.219.906c-2.27 1.894-4.049 4.012-5.219 6.312.021.769.032 1.591.032 2.625 0 4.295 4.149-1.28 5.843.657 3.335 3.81 6.56 10.768 13.375 12.843 10.206 3.107 20.766 6.355 29.532 9.532 11.382-3.53 19.187-10.808 19.187-19.22 0-2.804-.889-5.48-2.469-7.937l-9.687 3.907c-29.5 1.332-32.87 8.549-47.375-9.625z" color="#000" fill="url(#m)" overflow="visible" filter="url(#n)" enable-background="accumulate" transform="translate(-234.136 -613.05)"/><path style="marker:none" d="M260.406 703.969c-3.675 2.551-6.208 5.612-7.187 8.937.746-.173 1.428-.13 1.937.375 4.188 4.15 8.255 11.709 16.813 13.969 9.387 2.48 19.007 5.068 27.812 7.625 15.243-2.391 26.375-9.93 26.375-18.875 0-2.087-.627-4.081-1.75-5.969l-6.531 2.282c-35.63 1.396-40.905 8.723-57.469-8.344z" transform="matrix(.9192 0 0 .88348 -197.867 -531.148)" color="#000" fill="url(#o)" overflow="visible" filter="url(#p)" enable-background="accumulate"/><path style="marker:none" d="M277.454 705.246a10.734 10.734 0 0 0-.782 3.969c0 9.163 12.018 16.594 26.844 16.594 14.603 0 26.49-7.215 26.844-16.188-32.123 1.307-39.4 7.386-52.906-4.375z" color="#000" fill="url(#q)" overflow="visible" enable-background="accumulate" transform="translate(-234.136 -613.05)"/><path d="M351.32 633.821l31.802-3.818c2.882.71 6.842 3.039 9.768 4.699 1.37.777.896 2.032-.5 2.325l-30.457 6.396c-1.396.293-3.43-.438-4.585-1.466l-6.528-5.81c-1.155-1.029-.92-2.155.5-2.326z" style="marker:none" color="#000" fill="url(#r)" overflow="visible" enable-background="accumulate" filter="url(#s)" transform="translate(-234.136 -613.05)"/><path style="marker:none" d="M478.922 619.925c-42.797 7.281-85.713 23.194-130.531 27.125-6.339 1.282-10.335 6.813-9 12.406l3.5 14.656 8.438-2.593c-5.849 2.559-8.318 8.77-5.532 13.906l13.219 24.344c18.563-17.257 86.437-26.846 95.188-37.844 3.664-4.605 42.984-2.107 38.312-30.75-.368-5.317-2.053-14.91-10.438-21.125a49.582 49.582 0 0 0-3.156-.125z" color="#000" fill="url(#t)" overflow="visible" filter="url(#u)" enable-background="accumulate" transform="translate(-234.136 -613.05)"/><path style="marker:none" d="M415.585 643.305c-22.08 2.9-44.537 11.798-67.521 12.264-3.278.571-5.522 4.219-5.05 8.179l1.239 10.374 4.402-1.382c-3.075 1.485-4.558 5.688-3.328 9.403l6.223 18.807c1.229 3.715 4.675 5.506 7.75 4.021 5.321-12.43 45.604-18.774 50.446-26.127 1.872-2.843 21.957-1.303 19.57-18.984-.276-4.798-1.973-15.24-13.731-16.555z" transform="matrix(1.1199 0 0 .9905 -266.07 -613.871)" color="#000" fill="url(#v)" overflow="visible" filter="url(#w)" enable-background="accumulate"/><path style="marker:none" d="M365.032 645.394c-5.561.487-11.133.866-16.732.952-5.326.696-8.976 5.137-8.208 9.962l2.04 12.65 7.12-1.701c-4.997 1.81-7.393 6.932-5.396 11.459l10.112 22.917c1.997 4.527 7.609 6.706 12.606 4.897 1.837-3.218 6.556-6.04 12.424-8.671-.006-2.36.13-4.54 0-7.004-.284-5.418-.898-11.054-1.995-16.628a93.045 93.045 0 0 0-2.04-8.296 77.934 77.934 0 0 0-2.857-8.059c-1.099-2.628-2.335-5.189-3.764-7.65-.975-1.68-2.167-3.25-3.31-4.828z" color="#000" fill="url(#x)" overflow="visible" filter="url(#y)" enable-background="accumulate" transform="translate(-234.136 -613.05)"/><path d="M358.452 632.653l24.728-3.415c2.241.635 5.32 2.718 7.596 4.203 1.065.695.696 1.817-.39 2.08l-23.682 5.72c-1.085.262-2.666-.392-3.565-1.312l-5.075-5.196c-.899-.92-.716-1.927.388-2.08z" style="marker:none" color="#000" fill="url(#z)" overflow="visible" enable-background="accumulate" transform="translate(-234.136 -613.05)"/><path style="marker:none" d="M345.641 632.831l25.97-3.415c2.354.634 5.587 2.718 7.977 4.203 1.12.695.732 1.817-.408 2.08l-24.872 5.72c-1.14.262-2.8-.392-3.744-1.312l-5.331-5.196c-.944-.92-.752-1.927.408-2.08z" transform="matrix(.9407 0 0 1 -200.856 -614.344)" color="#000" fill="url(#A)" overflow="visible" filter="url(#B)" enable-background="accumulate"/><path d="M263.875 711.156c-.02.257-.063.523-.063.782 0 9.163 12.018 16.593 26.844 16.593 14.603 0 26.49-7.215 26.844-16.187-.076.003-.143-.003-.219 0-1.74 8.125-13.004 14.406-26.625 14.406-14.276 0-25.935-6.902-26.781-15.594z" style="marker:none" transform="matrix(.96776 0 0 1 -212.085 -614.344)" color="#000" fill="#1a1a1a" overflow="visible" filter="url(#C)" enable-background="accumulate"/><path d="M357.422 632.737v2l5.344 5.188 3.719 1.312 24.875-5.718v-2l-24.875 5.718-3.719-1.312-5.344-5.188z" fill="url(#D)" filter="url(#E)" transform="translate(-234.136 -613.05)"/><path style="marker:none" d="M342.98 644.764c-2.77-.016-4.165 1.428-4.165 1.428-2.816.121-3.043 2.983-3.78 5.957-1.016.609-2.105 2.753-3.022 3.333 2.025 1.694 4.445 2.688 7.044 2.688 4.225 0 7.958-2.629 10.313-6.651-1.346-2.057-3.046-5.91-3.923-6.307-.671-.315-1.544-.442-2.467-.448z" color="#000" fill="url(#F)" overflow="visible" enable-background="accumulate" transform="translate(-234.136 -613.05)"/><path d="M322.704 627.487c-2.913-.015-6.344.938-6.344.938-2.96.11-1.413 4.49-2.188 7.187-11.683 6.031-16.794 9.915-22.969 25.407l-11.593 5.062c-5.874 2.63-9.969 6.94-9.969 13.375v21.469c.549-.132.976-.217 1.594-.375 18.212 19.794 22.462 11.92 59.5 10.469l18.844-6.594c3.472-9.278-3.83-28.66 6.562-30.438 5.538-15.75-13.301-31.96-25.688-39.312-1.416-.841-3.99-6.327-5.156-6.781-.705-.286-1.623-.402-2.594-.407z" style="marker:none" color="#000" fill="url(#G)" overflow="visible" enable-background="accumulate" transform="translate(-234.136 -613.05)"/><path d="M287.966 643.55c-1.182.114-1.209 2.5-2.552 3.843-2.046 2.046-2.788 1.919-1.765 2.942 1.023 1.023 4.93 2.629 6.976.777 2.18-1.974 4.581-3.327 3.558-4.35-.256-.256-2.781-2.062-3.19-2.096-.154-.013-2.859-1.133-3.027-1.116z" style="marker:none" transform="matrix(2.65235 0 0 3.68012 -684.617 -2339.38)" color="#000" fill="url(#H)" overflow="visible" filter="url(#I)" enable-background="accumulate"/><path transform="matrix(.92399 0 0 1.01505 -198.904 -624.7)" style="marker:none" d="M299.125 653.094c-.236.052-.426.36-.469.875l-.062.937c-.07.823.21 1.836.656 2.282l2.625 2.593c.446.446.837.135.906-.687l.094-.907c.069-.822-.242-1.835-.688-2.28l-2.593-2.595c-.167-.167-.327-.25-.469-.218zm-.125 5.968c-.253.056-.423.389-.469.938l-.093.969c-.074.879.242 1.96.718 2.437l2.782 2.782c.476.476.926.16 1-.72l.093-.968c.074-.88-.273-1.961-.75-2.438l-2.781-2.78c-.179-.18-.348-.253-.5-.22zm8.344.125c-.253.056-.454.389-.5.938l-.063.969c-.073.879.243 1.96.719 2.437l2.781 2.782c.477.476.927.16 1-.72l.063-.968c.073-.88-.243-1.961-.719-2.438l-2.781-2.78c-.179-.18-.349-.253-.5-.22zm0 6.063c-.253.056-.454.388-.5.938l-.063.968c-.073.88.243 1.961.719 2.438l2.781 2.781c.477.476.927.16 1-.719l.063-.968c.073-.88-.243-1.962-.719-2.438l-2.781-2.781c-.179-.179-.349-.253-.5-.219z" color="#000" fill="url(#J)" overflow="visible" filter="url(#K)" enable-background="accumulate"/><path d="M311.985 651.8c-.236.052-.426.36-.469.875l-.063.937c-.068.823.211 1.836.657 2.282l2.625 2.593c.445.446.837.135.906-.687l.094-.906c.069-.823-.242-1.836-.688-2.282l-2.594-2.593c-.167-.168-.327-.25-.468-.22zm-.125 5.969c-.253.055-.423.388-.469.937l-.094.969c-.073.879.243 1.96.719 2.437l2.781 2.782c.477.476.927.16 1-.72l.094-.968c.074-.879-.274-1.961-.75-2.437l-2.781-2.782c-.179-.178-.349-.252-.5-.218zm8.344.125c-.253.055-.454.388-.5.937l-.063.969c-.074.879.242 1.96.719 2.437l2.781 2.782c.476.476.926.16 1-.72l.063-.968c.073-.879-.243-1.961-.72-2.437l-2.78-2.782c-.18-.178-.349-.252-.5-.218zm0 6.062c-.253.056-.454.388-.5.938l-.063.968c-.074.88.242 1.961.719 2.438l2.781 2.781c.476.476.926.16 1-.719l.063-.968c.073-.88-.243-1.962-.72-2.438l-2.78-2.781c-.18-.179-.349-.252-.5-.219z" style="marker:none" color="#000" overflow="visible" filter="url(#K)" enable-background="accumulate" transform="translate(-234.136 -613.05)"/><path style="marker:none" d="M306.224 639.144a7.642 7.642 0 0 0-1.469 2.843c1.76 1.568 4 3.273 6.5 4.938 6.796 4.524 13.09 7.022 14.063 5.562.403-.605-.202-1.809-1.5-3.312-2.597-.476-7.151-2.637-11.969-5.844-2.11-1.404-4.024-2.835-5.625-4.187z" transform="matrix(1.3503 0 0 1.14259 -334.686 -702.925)" color="#000" fill="url(#L)" overflow="visible" filter="url(#M)" enable-background="accumulate"/><path transform="matrix(1.07491 0 0 1.06459 -247.757 -658.358)" style="marker:none" d="M304.406 646.063c-.277.06-.512.428-.562 1.03l-.063 1.095c-.08.964.26 2.133.781 2.656l3.063 3.062c.522.523 1.013.183 1.094-.781l.062-1.094c.081-.964-.259-2.165-.781-2.687l-3.063-3.032c-.195-.195-.365-.286-.53-.25zm8.188 6.812c-.306.068-.538.491-.594 1.156l-.094 1.188c-.089 1.064.299 2.36.875 2.937l3.375 3.375c.577.577 1.099.19 1.188-.875l.093-1.187c.09-1.064-.298-2.392-.875-2.969l-3.375-3.344c-.216-.216-.41-.322-.593-.281z" color="#000" fill="url(#N)" overflow="visible" filter="url(#O)" enable-background="accumulate"/><path d="M314.236 642.748c-.277.062-.512.429-.563 1.032l-.062 1.093c-.081.964.258 2.134.78 2.657l3.063 3.062c.523.522 1.013.183 1.094-.781l.063-1.094c.08-.964-.26-2.165-.782-2.687l-3.062-3.032c-.196-.196-.365-.287-.531-.25zm8.187 6.813c-.306.067-.538.49-.594 1.156l-.093 1.188c-.09 1.064.298 2.36.875 2.937l3.375 3.375c.576.577 1.098.19 1.187-.875l.094-1.187c.089-1.065-.299-2.393-.875-2.97l-3.375-3.343c-.216-.216-.41-.322-.594-.281z" style="marker:none" color="#000" overflow="visible" filter="url(#O)" enable-background="accumulate" transform="translate(-234.136 -613.05)"/><path transform="matrix(1.34023 0 0 1.20205 -328.137 -747.438)" style="marker:none" d="M315.125 664.469c-1.391.138-3.21 1.116-4.781 2.687-2.395 2.395-3.354 5.303-2.156 6.5 1.197 1.198 4.105.208 6.5-2.187 2.394-2.395 3.384-5.303 2.187-6.5-.3-.3-.709-.46-1.188-.5a3.044 3.044 0 0 0-.562 0z" color="#000" fill="url(#P)" overflow="visible" filter="url(#I)" enable-background="accumulate"/><path transform="matrix(1.30152 0 0 1.7968 -309.929 -1127.493)" style="marker:none" d="M291 645.112c-1.182.114-2.72.938-4.063 2.28-2.046 2.047-2.898 4.54-1.875 5.563 1.024 1.024 3.517.203 5.563-1.843 2.046-2.047 2.898-4.54 1.875-5.563-.256-.256-.622-.403-1.031-.437a2.512 2.512 0 0 0-.469 0z" color="#000" fill="url(#Q)" overflow="visible" filter="url(#I)" enable-background="accumulate"/><path d="M303.86 643.818c-1.182.115-2.72.938-4.063 2.28-2.046 2.047-2.898 4.54-1.875 5.563 1.023 1.024 3.516.203 5.563-1.843 2.046-2.047 2.898-4.54 1.875-5.563-.256-.256-.622-.403-1.031-.437a2.512 2.512 0 0 0-.47 0zM329.235 662.282c-1.391.138-3.21 1.116-4.781 2.687-2.395 2.395-3.354 5.303-2.157 6.5 1.198 1.198 4.105.208 6.5-2.187 2.395-2.395 3.385-5.303 2.188-6.5-.3-.3-.709-.46-1.188-.5a3.044 3.044 0 0 0-.562 0z" style="marker:none" color="#000" overflow="visible" filter="url(#I)" enable-background="accumulate" transform="translate(-234.136 -613.05)"/><path style="marker:none" d="M291.797 667.925c-3.609 0-6.531 1.8-6.531 4.031 0 2.23 2.922 4.031 6.531 4.031 3.61 0 6.531-1.8 6.531-4.03 0-2.231-2.922-4.032-6.53-4.032z" color="#000" fill="url(#R)" overflow="visible" filter="url(#S)" enable-background="accumulate" transform="translate(-234.136 -613.05)"/><path d="M274.123 672.398a12.564 12.564 0 0 0-2.406 4.656c2.87 2.558 6.485 5.348 10.562 8.063 11.083 7.378 21.353 11.412 22.938 9.031.657-.987-.321-2.923-2.438-5.375-4.235-.775-11.674-4.332-19.53-9.562-3.441-2.29-6.516-4.608-9.126-6.813z" style="marker:none" color="#000" fill="url(#T)" overflow="visible" filter="url(#U)" enable-background="accumulate" transform="translate(-234.136 -613.05)"/><path style="marker:none" d="M349.797 650.925c-5.9 10.273-10.176 23.096-20.281 27.687-9.416 6.215-32.205 7.659-32.205 7.659v27.466s17.648-2.1 33.424-2.718l18.844-6.594c3.472-9.278-3.83-28.66 6.562-30.438 2.804-7.973-.653-16.062-6.344-23.062z" color="#000" fill="url(#V)" overflow="visible" filter="url(#U)" enable-background="accumulate" transform="translate(-234.136 -613.05)"/><path style="marker:none" d="M125.688 57.531c-7.745.144-16.326 4.212-22.782 11.563-10.329 11.761-11.32 27.508-2.219 35.156 9.102 7.648 24.859 4.293 35.188-7.469 10.329-11.761 11.32-27.477 2.219-35.125-3.413-2.868-7.76-4.21-12.406-4.125z" color="#000" fill="url(#W)" overflow="visible" filter="url(#X)" enable-background="accumulate"/><path style="marker:none" d="M125.063 57.125c-7.656.14-16.088 4.1-22.47 11.25-9.877 11.069-11.138 25.726-3.062 33.406-6.06-8.035-4.305-21.255 4.781-31.437 10.21-11.441 25.785-14.69 34.782-7.25.337.279.66.574.969.875a16.226 16.226 0 0 0-2.72-2.844c-3.373-2.79-7.687-4.084-12.28-4z" color="#000" fill="url(#Y)" overflow="visible" filter="url(#Z)" enable-background="accumulate"/><path style="marker:none" d="M123.813 70.094c-4.04.05-8.63 1.63-12.094 5.094-6.158 6.157-6.4 15.913-2.594 19.718.562.562 1.272 1.027 2.063 1.406L134.405 118l20.844 19.5c5.455 5.099 14.318 5.143 19.156-.531l8.125-9.531c4.839-5.675 5.605-14.663-.531-18.938l-24-16.719L132.469 74c-.309-.52-.631-1.006-1.031-1.406-1.665-1.665-4.484-2.54-7.625-2.5z" color="#000" fill="url(#aa)" overflow="visible" filter="url(#ab)" enable-background="accumulate"/><path style="marker:none" d="M394.213 726.849c8.506-8.506 21.973-8.83 27.23-3.572 5.257 5.257 4.934 18.724-3.572 27.23s-21.973 8.83-27.23 3.572c-5.257-5.257-4.934-18.724 3.572-27.23z" color="#000" fill="url(#ac)" overflow="visible" filter="url(#ad)" enable-background="accumulate" transform="translate(-234.136 -613.05)"/><path transform="matrix(.80228 0 0 .80228 -144.006 -468.496)" d="M383.797 730.329c7.362-7.362 19.019-7.642 23.569-3.092 4.55 4.55 4.27 16.207-3.092 23.57-7.362 7.362-19.019 7.641-23.57 3.091-4.55-4.55-4.27-16.207 3.093-23.569z" style="marker:none" color="#000" fill="url(#ae)" overflow="visible" enable-background="accumulate" filter="url(#af)"/><path d="M402.371 757.508c5.376-.065 11.498-2.117 16.107-6.562 8.195-7.904 8.56-22.175 3.495-27.06a8.828 8.828 0 0 0-1.144-.958c.04.037.081.078.12.116 5.065 4.885 4.7 19.156-3.494 27.06-7.643 7.37-19.446 8.132-25.11 4.239 2.226 2.082 5.9 3.215 10.026 3.165z" style="marker:none" color="#000" overflow="visible" filter="url(#ag)" enable-background="accumulate" transform="translate(-234.136 -613.05)"/><path style="marker:none" d="M388.976 758.98c5.375-.064 11.497-2.116 16.107-6.562 8.194-7.904 8.56-22.175 3.495-27.06a8.828 8.828 0 0 0-1.144-.958l.12.116c5.065 4.885 4.7 19.156-3.495 27.06-7.642 7.371-19.445 8.133-25.109 4.24 2.226 2.082 5.9 3.214 10.026 3.165z" transform="matrix(-.93803 0 0 -.984 539.278 852.735)" color="#000" overflow="visible" filter="url(#ag)" enable-background="accumulate"/><path style="marker:none" d="M323.082 628.366c-2.913-.015-6.343.938-6.343.938-2.96.11-1.413 4.49-2.188 7.187a145.434 145.434 0 0 0-3 1.594c2.13 1.536 4.674 2.437 7.406 2.437 4.443 0 8.368-2.383 10.844-6.03-1.415-1.866-3.202-5.36-4.125-5.72-.705-.285-1.623-.4-2.594-.406z" color="#000" fill="url(#ah)" overflow="visible" filter="url(#ai)" enable-background="accumulate" transform="translate(-234.136 -613.05)"/><path d="M411.922 623.456c-.57.114-1.148.199-1.719.313 2.097.967 3.894 1.808 5.282 2.625 2.024 1.19 3.622 2.525 5.719 5.03 9.74 11.642 11.14 28.619 10.5 41.095-.2 3.891-.599 7.255-1 9.968.365-.113.701-.23 1.062-.343.378-2.665.747-5.89.938-9.594.647-12.597-.734-29.78-10.75-41.75-2.145-2.563-3.855-4.038-5.97-5.281-1.165-.686-2.516-1.343-4.062-2.063z" style="text-indent:0;text-align:start;line-height:normal;text-transform:none;block-progression:tb;marker:none;-inkscape-font-specification:Sans" font-weight="400" color="#000" fill="url(#aj)" overflow="visible" filter="url(#ak)" enable-background="accumulate" font-family="Sans" transform="translate(-234.136 -613.05)"/><path style="marker:none" d="M363.641 729.737c-1.463 7.046-7.61 13.347-16.719 17.97.674.953.763 1.86.156 2.718l.25 7.562c.197 6.433 16.313-11.345 16.313-17.78v-10.47z" color="#000" fill="url(#al)" overflow="visible" filter="url(#am)" enable-background="accumulate" transform="translate(-234.136 -613.05)"/><path style="marker:none" d="M260.61 705.206c-.073 1.248.093 3.1.093 6.063 0 4.677 5.185-1.39 7.313.718 4.187 4.15 8.254 11.709 16.812 13.97 28.547 7.538 59.317 15.922 62.407 22.25 3.646-6.485-30.754-15.892-62.407-24.25-8.558-2.261-12.625-9.82-16.812-13.97-2.128-2.108-7.313 3.959-7.313-.718 0-1.727-.06-2.984-.093-4.063z" color="#000" fill="url(#an)" overflow="visible" filter="url(#ao)" enable-background="accumulate" transform="translate(-234.136 -613.05)"/><path style="marker:none" d="M391.547 726.175c-2.683 1.557-4.96 4.737-5.656 9.344-.42 2.772-.154 5.875.563 8.906a24.329 24.329 0 0 1 .25-8.031c.013-.066.048-.154.062-.22.011-.08.019-.168.031-.25.382-2.524 1.208-4.608 2.344-6.25.027-.039.066-.085.094-.124.676-1.212 1.47-2.33 2.312-3.375z" color="#000" fill="gray" overflow="visible" filter="url(#ap)" enable-background="accumulate" transform="translate(-234.136 -613.05)"/><path style="marker:none" d="M408.297 721.831c-4.522.058-9.654 1.873-13.531 5.844-6.893 7.06-7.166 18.262-2.906 22.625.776.795 1.78 1.433 2.937 1.906a7.54 7.54 0 0 1-1-.844c-4.26-4.363-3.987-15.565 2.906-22.625 3.878-3.97 9.041-5.786 13.563-5.843 2.06-.027 3.973.355 5.594 1.03-1.891-1.383-4.588-2.131-7.563-2.093z" color="#000" fill="url(#aq)" overflow="visible" filter="url(#ar)" enable-background="accumulate" transform="translate(-234.136 -613.05)"/><path transform="matrix(.7647 0 0 .42283 -168.232 -226.624)" style="marker:none" d="M285.357 685.576a6.071 6.071 0 1 1-12.143 0 6.071 6.071 0 0 1 12.143 0z" color="#000" fill="#fff" overflow="visible" filter="url(#as)" enable-background="accumulate"/><path style="marker:none" d="M265.875 676.656c-1.144-.012-2.052.336-2.469 1.094-.833 1.515.654 4.01 3.313 5.563 2.659 1.552 5.48 1.577 6.312.062.833-1.515-.653-3.979-3.312-5.531-1.33-.776-2.7-1.176-3.844-1.188z" transform="matrix(.88375 0 0 .8834 -188.454 -533.477)" color="#000" fill="#fff" overflow="visible" filter="url(#as)" enable-background="accumulate"/><path d="M343.544 646.014c-2.913-.015-4.38 1.295-4.38 1.295-2.96.11-3.198 2.705-3.973 5.401-1.068.552-2.213 2.496-3.178 3.023 2.13 1.536 4.673 2.437 7.406 2.437 4.443 0 8.368-2.383 10.844-6.03-1.415-1.866-3.203-5.36-4.125-5.72-.705-.285-1.623-.401-2.594-.406z" style="marker:none" color="#000" fill="url(#at)" overflow="visible" filter="url(#au)" enable-background="accumulate" transform="translate(-234.136 -613.05)"/><path style="marker:none" d="M282.688 690.25c-1.043 0-1.907 5.071-1.907 11.375s.864 11.438 1.906 11.438c1.043 0 1.875-5.134 1.875-11.438s-.832-11.375-1.875-11.375z" transform="matrix(1.52601 0 0 1.13883 -367.547 -711.584)" color="#000" fill="url(#av)" overflow="visible" filter="url(#aw)" enable-background="accumulate"/><path style="marker:none" d="M339.167 646.193c-1.003-.005-2.875 1.623-4.537 4.013-1.9 2.732-2.777 5.419-1.95 5.984.434.297 1.259-.064 2.212-.855.03-.034.045-.078.075-.112.458-.52.93-1.016 1.388-1.375.023-.017.052-.02.075-.037.174-.202.314-.41.487-.632.682-2.45 1.073-4.774 2.925-5.686.074-.573-.026-1.002-.3-1.189a.665.665 0 0 0-.375-.111z" color="#000" fill="url(#ax)" overflow="visible" filter="url(#ay)" enable-background="accumulate" transform="translate(-234.136 -613.05)"/><path transform="translate(-221.781 -614.976)" style="marker:none" d="M332.143 648.166c0 .345-1.32.625-2.947.625s-2.946-.28-2.946-.625 1.32-.625 2.946-.625c1.628 0 2.947.28 2.947.625z" color="#000" fill="url(#az)" overflow="visible" filter="url(#aA)" enable-background="accumulate"/><path style="marker:none" d="M126.125 59.094c-7.655.14-16.088 4.1-22.469 11.25-9.877 11.069-11.139 25.725-3.062 33.406a16.431 16.431 0 0 1-.938-1.344c-.05-.066-.076-.151-.125-.219-5.8-8.056-3.977-21.064 5-31.124 6.381-7.151 14.845-11.11 22.5-11.25 4.415-.081 8.533 1.118 11.844 3.687a16.769 16.769 0 0 0-.469-.406c-3.373-2.79-7.688-4.084-12.281-4zm14.094 6.031c.311.263.618.532.906.813-.079-.107-.168-.208-.25-.313a17.19 17.19 0 0 0-.656-.5z" color="#000" fill="url(#aB)" overflow="visible" filter="url(#aC)" enable-background="accumulate"/></svg>