<svg viewBox="0 0 800 500" xmlns="http://www.w3.org/2000/svg" xmlns:xlink="http://www.w3.org/1999/xlink"><defs><linearGradient id="c"><stop stop-color="#1a1a1a" offset="0"/><stop stop-color="#1a1a1a" stop-opacity="0" offset="1"/></linearGradient><linearGradient id="a"><stop offset="0"/><stop stop-color="#313131" offset=".6"/><stop stop-color="#323232" offset=".6"/><stop offset=".9"/><stop offset="1"/></linearGradient><linearGradient id="b"><stop stop-color="#fff" offset="0"/><stop stop-color="#57452a" offset=".3"/><stop stop-color="#fff" offset=".6"/><stop stop-color="#181815" offset=".798"/><stop stop-color="#353328" offset="1"/></linearGradient><linearGradient id="i" x1="36.266" x2="206.27" y1="204" y2="204" gradientTransform="translate(126.8 88.994) scale(.39345)" gradientUnits="userSpaceOnUse" xlink:href="#a"/><linearGradient id="h" x1="16.676" x2="181.94" y1="186.59" y2="186.59" gradientTransform="translate(126.8 88.994) scale(.39345)" gradientUnits="userSpaceOnUse" xlink:href="#a"/><linearGradient id="g" x1="49.086" x2="152.6" y1="196.71" y2="66.617" gradientTransform="translate(126.8 88.994) scale(.39345)" gradientUnits="userSpaceOnUse" xlink:href="#a"/><linearGradient id="f" x1="12.726" x2="78.938" y1="134.67" y2="55.002" gradientTransform="translate(35.049 12.397) scale(.45648)" gradientUnits="userSpaceOnUse" xlink:href="#a"/><radialGradient id="d" cx="244.58" cy="9.453" r="323.08" gradientTransform="matrix(.44277 0 0 .23689 117.75 201.17)" gradientUnits="userSpaceOnUse" xlink:href="#a" spreadMethod="reflect"/><linearGradient id="J" x1="1057" x2="1058.1" y1="151.93" y2="-1.607" gradientTransform="matrix(.523 0 0 .523 13.725 51.367)" gradientUnits="userSpaceOnUse" xlink:href="#a" spreadMethod="reflect"/><linearGradient id="R" x1="1253.9" x2="1203.5" y1="119.05" y2="119.05" gradientTransform="rotate(90 658.6 115.13) scale(.523)" gradientUnits="userSpaceOnUse" xlink:href="#a"/><linearGradient id="Q" x1="1253.9" x2="1203.5" y1="119.05" y2="119.05" gradientTransform="rotate(90 637.68 94.21) scale(.523)" gradientUnits="userSpaceOnUse" xlink:href="#a"/><linearGradient id="P" x1="439.58" x2="439.58" y1="352.76" y2="296.06" gradientTransform="translate(21.541 -313.66) scale(1.2615)" gradientUnits="userSpaceOnUse" xlink:href="#a"/><linearGradient id="O" x1="1297.5" x2="1225.5" y1="119.03" y2="119.03" gradientTransform="rotate(-90 675.64 81.67) scale(.523)" gradientUnits="userSpaceOnUse" xlink:href="#b" spreadMethod="reflect"/><linearGradient id="N" x1="548.18" x2="565.67" y1="358.44" y2="321.97" gradientTransform="translate(-35.018 -360.29) scale(1.3993)" gradientUnits="userSpaceOnUse" xlink:href="#b"/><linearGradient id="M" x1="1061.3" x2="1044.4" y1="127.86" y2="-42.09" gradientTransform="matrix(.523 0 0 .523 13.725 51.367)" gradientUnits="userSpaceOnUse" xlink:href="#a" spreadMethod="reflect"/><linearGradient id="L" x1="1499.4" x2="1431" y1="118.33" y2="118.33" gradientTransform="matrix(0 -.523 .523 0 702.8 866.87)" gradientUnits="userSpaceOnUse" xlink:href="#b" spreadMethod="reflect"/><radialGradient id="K" cx="1493.1" cy="117.9" r="11.391" gradientTransform="matrix(2.592 .56928 -1.5507 7.0604 -2895.6 -1575)" gradientUnits="userSpaceOnUse" xlink:href="#b"/><linearGradient id="I" x1="1057" x2="1058.1" y1="151.93" y2="-1.607" gradientTransform="matrix(.54506 0 0 .50884 -16.873 52.993)" gradientUnits="userSpaceOnUse" xlink:href="#a" spreadMethod="reflect"/><linearGradient id="H" x1="1057" x2="1058.1" y1="151.93" y2="-1.607" gradientTransform="matrix(.537 0 0 .49426 -28.616 54.691)" gradientUnits="userSpaceOnUse" xlink:href="#a" spreadMethod="reflect"/><linearGradient id="G" x1="1057" x2="1058.1" y1="151.93" y2="-1.607" gradientTransform="matrix(.5511 0 0 .48086 -54.398 56.167)" gradientUnits="userSpaceOnUse" xlink:href="#a" spreadMethod="reflect"/><linearGradient id="F" x1="267.03" x2="275.17" y1="337.97" y2="337.97" gradientTransform="matrix(1.3993 0 0 1.3604 -51.636 -347.25)" gradientUnits="userSpaceOnUse" xlink:href="#a" spreadMethod="reflect"/><linearGradient id="E" x1="267.03" x2="275.17" y1="337.97" y2="337.97" gradientTransform="matrix(1.4921 0 0 1.3253 -93.776 -335.39)" gradientUnits="userSpaceOnUse" xlink:href="#a" spreadMethod="reflect"/><linearGradient id="D" x1="267.03" x2="275.17" y1="337.97" y2="337.97" gradientTransform="matrix(1.5157 0 0 1.2879 -116.88 -322.8)" gradientUnits="userSpaceOnUse" xlink:href="#a" spreadMethod="reflect"/><linearGradient id="C" x1="267.03" x2="275.17" y1="337.97" y2="337.97" gradientTransform="translate(-35.018 -360.29) scale(1.3993)" gradientUnits="userSpaceOnUse" xlink:href="#a" spreadMethod="reflect"/><linearGradient id="B" x1="1067.7" x2="1067.7" y1="-36.783" y2="152.63" gradientTransform="matrix(.523 0 0 .523 13.725 51.367)" gradientUnits="userSpaceOnUse" xlink:href="#a" spreadMethod="reflect"/><radialGradient id="A" cx="389.72" cy="325.36" r="206.59" gradientTransform="matrix(1.6724 0 0 .31822 -138.57 20.649)" gradientUnits="userSpaceOnUse" xlink:href="#c"/><linearGradient id="z" x1="968.06" x2="1144" y1="992.13" y2="819.38" gradientTransform="translate(126.8 88.994) scale(.39345)" gradientUnits="userSpaceOnUse" xlink:href="#b"/><linearGradient id="y" x1="846.66" x2="959.36" y1="852.23" y2="727.82" gradientTransform="translate(126.8 88.994) scale(.39345)" gradientUnits="userSpaceOnUse" xlink:href="#b"/><linearGradient id="x" x1="811.17" x2="913.72" y1="811" y2="684.82" gradientTransform="translate(126.8 88.994) scale(.39345)" gradientUnits="userSpaceOnUse" xlink:href="#b" spreadMethod="reflect"/><linearGradient id="w" x1="840.48" x2="909.29" y1="914.02" y2="827.78" gradientTransform="translate(126.8 88.994) scale(.39345)" gradientUnits="userSpaceOnUse" xlink:href="#b" spreadMethod="reflect"/><linearGradient id="v" x1="886.41" x2="814.28" y1="665.38" y2="748.08" gradientTransform="translate(126.8 88.994) scale(.39345)" gradientUnits="userSpaceOnUse" xlink:href="#a"/><linearGradient id="u" x1="753.31" x2="696.73" y1="573.36" y2="639.44" gradientTransform="translate(134.64 94.845) scale(.39345)" gradientUnits="userSpaceOnUse" xlink:href="#a"/><linearGradient id="t" x1="1028.5" x2="1022.8" y1="734.84" y2="932.12" gradientTransform="translate(126.8 88.994) scale(.39345)" gradientUnits="userSpaceOnUse" xlink:href="#b"/><linearGradient id="s" x1="854.24" x2="972.5" y1="978.44" y2="903.55" gradientTransform="translate(126.8 88.994) scale(.39345)" gradientUnits="userSpaceOnUse" xlink:href="#b" spreadMethod="reflect"/><radialGradient id="r" cx="813.45" cy="869.92" r="69.786" gradientTransform="matrix(.54144 .14508 -.16484 .61517 146.74 -217.32)" gradientUnits="userSpaceOnUse" xlink:href="#b" spreadMethod="reflect"/><linearGradient id="q" x1="779.73" x2="857.63" y1="898.34" y2="798.37" gradientTransform="translate(126.8 88.994) scale(.39345)" gradientUnits="userSpaceOnUse" xlink:href="#b" spreadMethod="reflect"/><radialGradient id="p" cx="508.6" cy="461.03" r="103.16" gradientTransform="matrix(1.1324 0 0 1.2465 -285.64 -376.42)" gradientUnits="userSpaceOnUse" xlink:href="#a" spreadMethod="reflect"/><linearGradient id="o" x1="456.98" x2="644.88" y1="588.31" y2="371.78" gradientTransform="translate(126.8 88.994) scale(.39345)" gradientUnits="userSpaceOnUse" xlink:href="#a"/><radialGradient id="n" cx="731.93" cy="747.49" r="121.01" gradientTransform="matrix(1.532 0 0 1.6839 -663.64 -784.85)" gradientUnits="userSpaceOnUse" xlink:href="#a" spreadMethod="reflect"/><linearGradient id="m" x1="500.58" x2="627.44" y1="567.69" y2="410.76" gradientTransform="translate(126.8 88.994) scale(.39345)" gradientUnits="userSpaceOnUse" xlink:href="#a" spreadMethod="reflect"/><radialGradient id="l" cx="110.2" cy="104.27" r="108.61" gradientTransform="matrix(.57805 .11462 -.10573 .53324 192.96 23.1)" gradientUnits="userSpaceOnUse" xlink:href="#a" spreadMethod="reflect"/><linearGradient id="k" x1="76.841" x2="271.38" y1="244.62" y2="244.62" gradientTransform="translate(126.8 88.994) scale(.39345)" gradientUnits="userSpaceOnUse" xlink:href="#a"/><linearGradient id="j" x1="56.322" x2="231.13" y1="221.47" y2="221.47" gradientTransform="translate(126.8 88.994) scale(.39345)" gradientUnits="userSpaceOnUse" xlink:href="#a"/><radialGradient id="e" cx="976.54" cy="99.891" r="513.62" gradientTransform="matrix(.80048 0 0 .65992 -277.12 97.707)" gradientUnits="userSpaceOnUse" xlink:href="#c"/></defs><path d="M270.02 89c-15.32-.198-36.345-.115-59.2 1.013-45.709 2.255-97.927 6.69-134.25 27.66-28.297 16.338-45.257 45.235-57.545 69.599-12.288 24.364-19.03 45.605-19.03 45.605l43.494 13.85s5.767-18.034 16.291-38.9c10.523-20.866 26.69-43.165 39.614-50.627 19.786-11.423 70.481-19.467 113.66-21.597s79.627-.343 79.627-.343l2.268-45.59s-9.615-.473-24.935-.671z" color="#000" fill="url(#d)" style="block-progression:tb;text-indent:0;text-transform:none"/><path d="M21.969 40.406L21.5 88.187l110.94 100.28c-4.7 11.469-3.93 24.551 6.094 33.719 8.834 8.617 17.545 17.225 26.156 26.062-1.398-3.214 7.144 10.067 9.469 14.281 6.836 12.093 14.523 23.718 25.938 31.969 30.35 26.274 60.449 53.161 90.938 79.062 13.389 11.661 32.805-1.713 45.562 3.219 32.948 27.183 65.904 54.337 98.875 81.53a2.273 2.273 0 0 0-.406-.093c.344.394 13.798 5.703 18.03 2.719 12.326 11.77 24.206 24.01 36.813 35.469 18.522 3.134 42.576-11.743 41.875-32.656 6.589-13.313-4.078-22.306-14.72-27.5l-30.655-19.375c1.867-14.86-12.453-19.521-21.938-27.812-29.856-22.408-59.982-44.96-89.938-67.438.818-16.22-1.357-37.086-17.062-45.72-34.617-24.423-69.223-48.861-103.84-73.28-16.443-8.542-36.308-9.484-51.188-21-6.433-3.14-12.381-7.75-18.625-11.531L21.978 40.402z" fill="url(#e)"/><path d="M15.977 3.168l-.466 47.794 134.47 121.55 36.155-32.99z" color="#000" fill="url(#f)" style="block-progression:tb;text-indent:0;text-transform:none"/><path d="M178.15 129.63c-.909.008-1.834.061-2.767.172-8.711 1.205-16.46 5.924-22.18 12.086-7.317 8.13-11.904 18.974-10.698 29.73.734 7.94 5.22 13.238 10.832 18.578a21.231 21.231 0 0 0 2.287 1.894l1.636 2.016 3.959 3.96 1.93 1.425 2.078 2.558 4.033 4.033 1.98 1.45 2.102 2.607 4.12 4.107-1.611-1.992c1.73 2.02 3.816 3.824 6.258 5.422l5.422 2.164 5.976.861 6.32-.467 6.418-1.77 6.27-3 5.915-4.095 5.323-5.054 4.574-5.815 3.652-6.37 2.582-6.713 1.414-6.799.21-6.652c-.879-8.434-4.25-15.875-11.116-20.3l-4.955-3.025-3.037-1.426-1.881-1.574-4.87-2.963-2.962-1.414-1.857-1.537-4.783-2.914-2.336-1.106a21.1 21.1 0 0 0-2.398-1.783c-5.664-3.944-11.479-6.35-17.84-6.295z" fill="url(#g)"/><path d="M212.99 153.79c-6.339-.794-12.084 1.457-17.619 4.316-8.46 4.368-13.956 11.7-18.308 19.943-3.113 5.895-3.922 12.246-3.516 18.775.509 8.2 4.907 12.929 10.5 18.468-4.23-4.206-6.005-9.255-6.824-14.964-.962-6.703.985-12.994 3.602-19.083 3.91-9.097 10.424-15.112 18.628-20.312 5.48-3.474 11.536-4.431 17.89-4.414 3.808.01 6.928 1.73 10.304 3.307-4.743-3.427-8.942-5.32-14.656-6.037zM182.14 136.33l-1.783.05s-3.646.685-5.398 1.274c-1.83.615-3.602 1.42-5.297 2.343a37.28 37.28 0 0 0-9.575 7.487c-1.407 1.534-2.67 3.205-3.82 4.94a40.022 40.022 0 0 0-3.005 5.348 36.349 36.349 0 0 0-2.088 5.704c-.503 1.865-.866 3.779-1.018 5.704-.147 1.845.101 5.552.101 5.552l.357 1.68c-.027-3.23.4-6.587 1.273-9.88 1.751-6.605 5.25-12.81 10.084-18.08 4.5-4.905 10.242-8.915 16.858-11.205a29.585 29.585 0 0 1 3.31-.917z"/><path d="M191.25 142.19l-1.884.05s-3.784.712-5.603 1.325a33.93 33.93 0 0 0-5.5 2.445 37.557 37.557 0 0 0-5.195 3.463 40.94 40.94 0 0 0-4.686 4.38 41.608 41.608 0 0 0-4.023 5.093 40.336 40.336 0 0 0-3.107 5.603 38.213 38.213 0 0 0-2.14 5.856 34.408 34.408 0 0 0-1.069 5.908c-.171 1.911 0 5.756 0 5.756l.357 1.477a38.225 38.225 0 0 1 1.324-9.983c1.853-6.852 5.563-13.292 10.543-18.793 4.632-5.117 10.613-9.238 17.469-11.612 1.127-.39 2.316-.697 3.514-.967z"/><path d="M200.17 148.2l-1.63.05s-3.887.742-5.755 1.376a35.257 35.257 0 0 0-5.704 2.546 39.782 39.782 0 0 0-5.399 3.617 41.923 41.923 0 0 0-4.89 4.532 43.184 43.184 0 0 0-4.125 5.297 43.408 43.408 0 0 0-3.26 5.806c-.903 1.955-1.672 3.983-2.24 6.061a35.491 35.491 0 0 0-1.12 6.163c-.178 1.961 0 5.908 0 5.908l.305 1.426c.023-3.366.5-6.824 1.426-10.237 1.927-7.111 5.754-13.814 10.95-19.507 4.825-5.286 10.988-9.605 18.08-12.122 1.075-.382 2.219-.65 3.361-.917z"/><path d="M183.36 132.77c-.979.019-1.934.086-2.903.204-2.04.248-4.059.73-6.01 1.375-2.042.676-4.02 1.566-5.908 2.597a40.316 40.316 0 0 0-5.602 3.718 43.237 43.237 0 0 0-5.042 4.686 45.04 45.04 0 0 0-4.279 5.45 43.21 43.21 0 0 0-3.361 5.958 39.715 39.715 0 0 0-2.292 6.316c-.556 2.081-.95 4.218-1.12 6.366a31.577 31.577 0 0 0 .101 6.163 28.3 28.3 0 0 0 1.274 5.755c.594 1.755 1.358 3.472 2.342 5.042.955 1.523 3.413 4.176 3.413 4.176l1.986 1.477c-2.782-3.642-4.689-7.669-5.195-12.733a31.65 31.65 0 0 1-.153-2.903s-.291-1.111-.356-1.68a28.902 28.902 0 0 1-.102-5.552c.153-1.925.515-3.84 1.019-5.704a36.334 36.334 0 0 1 2.088-5.704 40.02 40.02 0 0 1 3.005-5.348c1.15-1.735 2.413-3.406 3.82-4.94a37.288 37.288 0 0 1 9.575-7.487c1.695-.923 3.466-1.728 5.296-2.343a28.717 28.717 0 0 1 5.4-1.273c.589-.077 1.782-.051 1.782-.051 2.8-.616 5.77-.912 8.76-.662 2.573.215 5.059.98 7.487 2.037l-1.732-1.426s-3.181-1.725-4.89-2.292a24.548 24.548 0 0 0-5.449-1.12c-.972-.09-1.975-.12-2.954-.102z" fill="url(#h)"/><path d="M195.53 138.57l-6.06.153-6.214 1.477s-4.156 1.634-6.112 2.699a41.704 41.704 0 0 0-5.806 3.82 44.367 44.367 0 0 0-5.246 4.89 47.086 47.086 0 0 0-4.431 5.653c-1.324 1.977-2.525 4.049-3.514 6.213a42.296 42.296 0 0 0-2.343 6.57c-.58 2.151-1.027 4.351-1.222 6.57-.188 2.131-.193 4.292.05 6.418.23 2.005.67 3.998 1.325 5.908.62 1.81 1.427 3.573 2.444 5.195.975 1.554 3.464 4.278 3.464 4.278l2.037 1.528c-2.874-3.76-4.838-7.905-5.348-13.191a31.647 31.647 0 0 1-.153-3.056v-.153s-.296-.974-.356-1.477c-.227-1.905-.172-3.844 0-5.755a34.398 34.398 0 0 1 1.07-5.908 38.208 38.208 0 0 1 2.139-5.857 40.333 40.333 0 0 1 3.106-5.603c1.2-1.8 2.559-3.5 4.024-5.093a40.932 40.932 0 0 1 4.685-4.38 37.563 37.563 0 0 1 5.195-3.463 33.937 33.937 0 0 1 5.5-2.445c1.82-.613 3.7-1.076 5.603-1.324.623-.081 1.885-.05 1.885-.05 2.852-.644 5.854-.966 8.913-.714 2.697.223 5.27 1 7.792 2.089l-1.783-1.477s-3.276-1.808-5.042-2.394c-1.807-.6-5.602-1.12-5.602-1.12z" fill="url(#i)"/><path d="M201.74 144.33c-1.047.026-2.071.12-3.107.255-2.18.283-4.336.817-6.417 1.528-2.186.746-4.293 1.736-6.316 2.852a44.818 44.818 0 0 0-6.01 3.972 45.557 45.557 0 0 0-5.449 5.042c-1.684 1.838-3.208 3.83-4.584 5.908a48.416 48.416 0 0 0-3.616 6.469 44.498 44.498 0 0 0-2.495 6.773c-.615 2.231-1.07 4.52-1.274 6.825a33.296 33.296 0 0 0 .051 6.621c.23 2.055.666 4.1 1.324 6.06.632 1.88 1.45 3.715 2.496 5.4 1 1.61 3.565 4.43 3.565 4.43l2.037 1.478c-2.938-3.872-4.942-8.157-5.45-13.548a34.119 34.119 0 0 1-.152-3.362v-.05s-.254-.943-.306-1.427c-.207-1.958-.176-3.946 0-5.908.188-2.08.57-4.148 1.12-6.162.57-2.078 1.338-4.106 2.242-6.061a43.397 43.397 0 0 1 3.26-5.806 43.184 43.184 0 0 1 4.125-5.297 41.915 41.915 0 0 1 4.89-4.533 39.77 39.77 0 0 1 5.398-3.616 35.238 35.238 0 0 1 5.704-2.546c1.868-.634 3.8-1.114 5.755-1.376.54-.072 1.63-.05 1.63-.05 3.026-.708 6.22-1.087 9.473-.815 2.791.233 5.468 1.061 8.098 2.19l-1.884-1.58s-3.34-1.852-5.144-2.444c-1.873-.615-3.842-.957-5.806-1.12a29.446 29.446 0 0 0-3.158-.102z" fill="url(#j)"/><path d="M211.22 150.29c-1.08.048-2.14.159-3.209.306-2.247.309-4.474.844-6.62 1.578-2.258.773-4.436 1.793-6.52 2.954a46.543 46.543 0 0 0-6.213 4.177 49.164 49.164 0 0 0-5.654 5.246 50.445 50.445 0 0 0-4.787 6.111 49.488 49.488 0 0 0-3.77 6.672c-1.05 2.266-1.94 4.619-2.597 7.029a40.776 40.776 0 0 0-1.273 7.08c-.202 2.265-.236 4.561 0 6.824a29.92 29.92 0 0 0 1.324 6.264c.64 1.933 1.474 3.822 2.547 5.552a23.191 23.191 0 0 0 3.667 4.532 22.794 22.794 0 0 0 4.634 3.413c1.71.953 5.45 2.19 5.45 2.19l1.783-3.209s-3.323-1.087-4.839-1.935a20.39 20.39 0 0 1-4.176-3.107 21.264 21.264 0 0 1-3.31-4.125c-.963-1.558-1.721-3.252-2.292-4.992-.601-1.828-.976-3.738-1.172-5.653-.208-2.026-.185-4.083 0-6.112a36.568 36.568 0 0 1 1.172-6.366 40.396 40.396 0 0 1 2.342-6.315 44.646 44.646 0 0 1 3.413-6.01 46.265 46.265 0 0 1 4.278-5.45 44.306 44.306 0 0 1 5.042-4.736 41.11 41.11 0 0 1 5.603-3.77c1.871-1.042 3.83-1.954 5.857-2.648a31.58 31.58 0 0 1 5.959-1.426c1.918-.26 3.875-.35 5.806-.203 1.826.138 3.657.452 5.398 1.018a21.011 21.011 0 0 1 4.737 2.241 20.625 20.625 0 0 1 4.023 3.31c1.197 1.281 3.056 4.279 3.056 4.279l2.7-2.547s-2.089-3.31-3.413-4.736a23.007 23.007 0 0 0-4.43-3.718 23.39 23.39 0 0 0-5.298-2.496 25.475 25.475 0 0 0-5.959-1.171 27.012 27.012 0 0 0-3.26-.051z" fill="url(#k)"/><path d="M205.39 154.9c-7.489 2.23-13.275 7.185-18.701 12.603-5.654 5.646-9.18 12.611-11.361 20.164-2.965 10.268-1.846 16.532 2.557 26.115l19.046 31.12c96.517 99.259 152.73-36.013 62.51-79.564l-34.735-11.127c-6.597-2.029-12.893-1.225-19.316.689z" fill="url(#l)"/><path d="M242.98 164.19c-10.496 1.15-17.793 6.005-26.14 12.074-5.778 4.201-10.216 9.678-14.201 15.529-8.463 12.425-11.341 22.581-10.722 37.378.406 9.698 2.638 13.572 9.86 21.689l98.967 86.314 72.924-92.843-107.28-75.691c-8.45-4.798-14.063-5.476-23.41-4.45z" fill="url(#m)"/><path d="M349.29 240.79c-6.96 1.496-13.462 4.439-19.082 7.881-13.635 8.955-24.303 21.081-31.194 34.673-6.97 14.616-11.34 33.147-3.05 47.694 4.095 7.034 10.879 11.472 18.444 12.972 5.615.989 16.365-.713 16.365-.713l55.944-71.326s-2.183-16.51-7.328-22.624c-7.685-8.859-19.393-10.672-30.1-8.557z" fill="url(#n)"/><path d="M348.31 249.11c-13.604 2.411-22.043 9.508-31.169 19.439-12.007 13.067-17.878 25.207-17.779 42.874.076 13.605 4.897 17.089 14.902 25.538 30.854-30.854 42.095-44.293 62.387-79.441-10.642-8.4-15.229-10.734-28.341-8.41z" fill="url(#o)"/><path d="M363.6 253.91c-2.58-.038-5.172.282-7.697.811-2.766.58-5.47 1.484-8.078 2.57-2.821 1.175-5.533 2.626-8.127 4.242-2.758 1.718-5.378 3.667-7.857 5.767a74.303 74.303 0 0 0-7.23 7.045 77.399 77.399 0 0 0-6.32 8.053 74.672 74.672 0 0 0-5.14 8.706c-1.45 2.902-2.722 5.906-3.737 8.988-.957 2.907-1.725 5.89-2.2 8.914-.44 2.788-.681 5.626-.591 8.447.083 2.58.383 5.175 1.033 7.672.594 2.281 1.434 4.527 2.594 6.578 1.085 1.92 2.436 3.718 4.02 5.25a21.973 21.973 0 0 0 5.25 3.75c1.969 1.006 4.115 1.69 6.284 2.115 2.313.454 4.703.558 7.058.443 2.546-.124 5.082-.577 7.549-1.217 2.667-.692 5.264-1.672 7.77-2.816 2.673-1.22 5.24-2.682 7.698-4.291 2.58-1.69 5.035-3.583 7.365-5.607a74.828 74.828 0 0 0 6.774-6.7 77.525 77.525 0 0 0 5.939-7.575 74.924 74.924 0 0 0 4.918-8.164 67.682 67.682 0 0 0 3.689-8.484c.977-2.77 1.785-5.61 2.336-8.496.516-2.705.856-5.46.897-8.213.039-2.549-.119-5.12-.602-7.623-.446-2.31-1.114-4.603-2.102-6.738-.93-2.008-2.109-3.931-3.554-5.607a21.957 21.957 0 0 0-4.881-4.217c-1.866-1.177-3.938-2.06-6.062-2.656-2.265-.636-4.643-.912-6.996-.947zm-5.533 16.046c1.532.006 3.081.17 4.562.566 1.379.368 2.727.918 3.946 1.66a14.215 14.215 0 0 1 3.222 2.68c.953 1.07 1.728 2.31 2.348 3.602.66 1.377 1.12 2.857 1.427 4.353.332 1.624.441 3.297.43 4.955-.013 1.796-.216 3.595-.541 5.361a37.403 37.403 0 0 1-1.5 5.557 44.026 44.026 0 0 1-2.41 5.558 50.033 50.033 0 0 1-7.107 10.328 48.477 48.477 0 0 1-4.45 4.39 44.488 44.488 0 0 1-4.833 3.651c-1.61 1.047-3.29 2.003-5.041 2.791-1.637.737-3.337 1.36-5.078 1.796-1.609.403-3.261.686-4.918.75-1.528.058-3.078-.028-4.574-.345-1.4-.296-2.781-.767-4.045-1.438a14.312 14.312 0 0 1-3.37-2.484 15.07 15.07 0 0 1-2.557-3.443c-.733-1.342-1.256-2.806-1.623-4.29-.4-1.624-.574-3.308-.614-4.98-.045-1.825.113-3.658.405-5.46.316-1.944.827-3.86 1.451-5.73a43.77 43.77 0 0 1 2.422-5.778 48.314 48.314 0 0 1 3.308-5.582 50.122 50.122 0 0 1 4.057-5.164c1.447-1.611 3-3.133 4.648-4.537a43.784 43.784 0 0 1 5.029-3.726c1.667-1.05 3.41-1.997 5.226-2.766 1.682-.713 3.428-1.307 5.213-1.697 1.628-.356 3.3-.584 4.967-.578z" fill="url(#p)"/><path d="M347.57 271.91c-5.85 2.498-10.42 6.653-14.902 11.029-5.841 6.398-9.142 13.978-11.238 22.255-.88 7.675-.193 12.004 4.39 18.173l122.42 100.94c-4.552-5.541-4.007-12.025-3.025-18.701 2.187-9.241 7.352-16.954 13.119-24.308 4.51-5.306 10.069-9.205 15.972-12.763 7.275-3.162 11.387-4.322 18.874-1.5l-126.92-95.169c-6.218-3.32-12.327-2.022-18.69.05z" fill="url(#q)"/><path d="M484.53 365.12c-5.966.607-10.948 3.477-15.972 6.504-9.944 6.997-16.619 16.741-21.677 27.603-2.276 5.556-2.79 11.173-2.508 17.078.992 4.906 2.922 7.26 6.836 10.095 4.77 1.812 9.35 1.17 13.882-.196l-4.586-4.451a16.905 16.905 0 0 1-1.513-2.804c-.411-.86-.768-1.833-1.082-2.926a17.868 17.868 0 0 1-.11-3.43v-.05c.03-1.472.246-2.986.615-4.561.216-.678.44-1.35.676-2.017.243-.829.497-1.653.762-2.483.899-2.355 2.066-4.54 3.394-6.628 1.376-2.357 2.971-4.6 4.856-6.688 1.858-2.195 3.97-4.055 6.222-5.742.089-.071.18-.139.27-.21 1.48-1.161 3.021-2.226 4.673-3.135.005-.003.007-.009.012-.012.172-.106.343-.214.516-.32a24.222 24.222 0 0 1 2.46-1.082 28.62 28.62 0 0 1 1.487-.553c.36-.074.715-.154 1.07-.221.069-.015.14-.023.209-.037.422-.088.843-.156 1.266-.21l.357-.048.147-.013c2.32-.294 4.558-.217 6.861.922l5.496 3.443c.286-4.566-.226-8.493-3.184-13.574-3.216-3.474-6.944-4.024-11.435-4.254z" fill="url(#r)"/><path d="M524.64 411.1c-11.395 5.966-18.979 16.377-24.271 27.861-2.812 6.102-4.197 12.591-1.721 18.8 2.792 7.005 12.853 6.208 16.267 4.45 4.651-2.393 16.272-7.174 14.3-6.466-2.321.832-4.541 1.037-6.247-.726-1.88-1.945-1.41-4.704-.737-7.156 1.709-6.23 5.965-11.246 11.423-14.558 2.703-1.64 5.87-2.403 8.238-.074 1.343 1.322.737 6.767 1.07 4.992l2.889-15.443c.79-4.228.29-8.23-2.386-11.459-4.979-6.008-12.725-3.414-18.824-.221z" fill="url(#s)"/><path d="M535.44 451.92c3.45-3.22 5.791-7.19 7.357-11.596 1.434-6.018-.406-9.954-7.003-8.284-7.4 3.275-12.761 10.31-14.284 18.208-.246 10.504 9.144 5.705 13.93 1.672z" fill="url(#t)"/><path d="M344.97 278.34a1.892 1.892 0 0 0-1.123 3.381l117.93 93.617a1.892 1.892 0 1 0 2.353-2.955l-117.94-93.617a1.892 1.892 0 0 0-1.218-.426z" color="#000" fill="#fff" style="block-progression:tb;text-indent:0;text-transform:none"/><path d="M422.54 315.74c-24.739-.132-46.045 22.377-42.173 50.768.056.414.004.839.012 1.254l11.361 9.357c-4.039-29.085 16.482-52.391 43.526-52.145.64.006 1.284.026 1.918.061l-12.295-9.209a35.717 35.717 0 0 0-2.348-.086z" fill="url(#u)"/><path d="M416.36 398.01l12.234 10.07c-2.332-27.185 17.647-54.09 46.969-54.284l-13.218-9.91c-36.77.31-49.731 35.4-45.985 54.124z" fill="url(#v)"/><path d="M505.87 431.67c2.566-5.866-6.896 6.685-8.264 17.77-1.449 11.744 6.81 16.832 16.974 13.276 1.431-.736 12.486-6.015 14.637-6.974 4.064-2.731-44.566 24.425-23.348-24.072z" fill="gray"/><path d="M483.43 378.8c-6.29 2.094-11.091 6.415-15.64 11.054-4.668 5.17-7.592 11.256-9.689 17.816-1.178 5.041-.753 9.485 2.09 13.771l40.658 39.552c-3.805-4.903-3.018-10.562-1.991-16.291 2.186-8.18 6.854-15.062 12.013-21.628 5.188-6.11 11.532-10.527 18.8-13.734 4.068-1.422 7.627-1.22 11.595.148l-47.925-30.293c-3.295-1.63-6.464-1.1-9.91-.394z" fill="url(#w)"/><path d="M480.7 365.12c-16.032-.056-28.738 18.107-33.517 31.452 5.562-10.066 19.017-26.189 33.21-30.357 3.418-1.054 1.481-1.15.307-1.094z" fill="url(#x)"/><path d="M347.82 257.29c-21.431 4.776-29.17 18.558-34.673 33.812 8.153-15.952 19.73-27.197 34.673-33.812zM343.12 242.54c-27.262 5.764-37.108 22.398-44.108 40.809 10.372-19.253 25.099-32.825 44.108-40.809z" fill="gray"/><path d="M474.6 384.22a1.907 1.907 0 0 0-1.037 3.444l38.77 29.08a1.907 1.907 0 1 0 2.287-3.05l-38.769-29.08a1.907 1.907 0 0 0-1.251-.394z" color="#000" fill="#fff" style="block-progression:tb;text-indent:0;text-transform:none"/><g><path d="M483.43 378.8c-9.439 1.502-18.539 13.485-22.236 22.911 3.971-6.383 17.043-17.199 25.603-23.121 2.267-.768-2.589.17-3.368.21z" fill="url(#y)"/><path d="M531.17 408.35c-15.822-.515-26.304 15.998-29.331 29.033 4.4-4.147 16.642-24.175 29.062-28.023 2.99-.973 1.296-1.062.269-1.01z" fill="url(#z)"/><path d="M566.5 81.094c-53.835.408-107.74.23-161.53 1-17.126 4.077-34.818 6.642-51.594 11.656-3.032 7.613-5.418-4.066-10.875-.313-4.933-2.943-7.132 5.999-9.875 2.782-2.686-4.09-8.829-1.373-12.656-1.031-2.274 5.306-3.96 1.075-6.781-.157-4.888-.244-10.367.43-13.156 3.719-2.803-4.774-9.288-2.305-13.656-1.75-1.968 2.509-3.395 5.29-4.438 8.219-3.46-.089-7.316-.16-11.906-.219-15.32-.198-36.364-.128-59.219 1-45.709 2.255-97.929 6.718-134.25 27.688-28.297 16.338-45.243 45.23-57.53 69.594C6.744 227.646.001 248.876.001 248.876l43.5 13.844s5.758-18.009 16.281-38.875 26.701-43.195 39.625-50.656c19.786-11.423 70.473-19.463 113.66-21.594 28.35-1.399 53.552-1.083 67.688-.719.976 4.524 2.697 8.76 5.907 12.125 5.322 2.352 11.85-.632 14.875-.968 2.644 3.859 9.993 4.935 12.906 2.312 5.239-4.718 4.735.52 10.625 1.25 6.38.791 7.15-5.666 11.062-.469 2.24 2.977 9.334 2.457 13-.187 2.76-1.99 10.953 4.35 17.594 5 15.09 1.478 29.567 8.414 44.719 8.719 50.378 1.013 101.01.17 151.25 1.593 6.692.19 1.046-4.767 6.437-5.75 2.185-.398 5.206-.2 7.844-1.593 4.171-2.206-3.33-14.72 3.219-14.656 50.867.493 102.28 6.327 152.69.218 7.12-.862 8.962-7.155 16.062-6.187 12.793 1.744 26.823 7.496 38.719 2.687 8.238-3.33 12.279-13.183 12.344-23.312.064-10.104-6.941-16.292-11.938-23.625-15.956.004-32.301 2.191-48.406 3.032-3.66-3.594-6.36-9.396-12.531-7.313-49.742-.19-99.973-.247-149.94-.406-1.003-4.31 1.986-12.548-1.094-14.812-6.431 1.097-11.277.218-9.5-7.438h-.094z" color="#000" fill="url(#A)" style="block-progression:tb;text-indent:0;text-transform:none"/><g color="#000"><path d="M356.81 78.961l-68.322 3.034c-6.929 20.226-5.393 40.573.229 60.98l68.306 3.405z" fill="url(#B)"/><path d="M346.79 75.817c-2.354.279-8.668.787-8.668.787l.221 71.695s6.32 1.123 8.644 1.131c0 0 1.11-.605 1.537-1.057.647-.687 1.469-2.44 1.469-2.44-3.714.264-5.682-2.04-6.658-4.95-2.493-7.436-2.788-13.53-3.258-21.099-.41-6.59-.107-13.184.38-19.759.466-6.269 1.324-12.546 3.997-18.246 1.178-2.512 2.992-2.386 5.557-2.533 0 0-.113-.344-.196-.504-.406-.778-.814-1.599-1.464-2.188-.437-.397-1.561-.836-1.561-.836z" fill="url(#C)"/><path d="M296.71 78.596c-2.55.257-9.265.715-9.265.715l.115 65.997s6.846 1.034 9.363 1.041c0 0 1.203-.556 1.665-.973.7-.632 1.592-2.246 1.592-2.246-4.023.244-6.156-1.876-7.213-4.555-2.7-6.845-3.02-12.454-3.53-19.42-.443-6.066-.114-12.135.414-18.186.503-5.77 1.433-11.548 4.328-16.794 1.276-2.312 3.242-2.196 6.02-2.331 0 0-.122-.317-.213-.464-.44-.717-.88-1.472-1.585-2.015-.473-.365-1.691-.77-1.691-.77z" fill="url(#D)"/><path d="M313.35 77.664c-2.51.264-8.67.994-8.67.994l-.337 67.658s6.739 1.063 9.217 1.071c0 0 1.184-.573 1.639-1.001.69-.65 1.566-2.312 1.566-2.312-3.96.25-6.059-1.93-7.1-4.688-2.658-7.043-2.972-12.815-3.474-19.983-.436-6.242-.113-12.488.407-18.716.495-5.937 1.41-11.883 4.26-17.281 1.257-2.38 3.191-2.26 5.927-2.4 0 0-.12-.325-.21-.477-.432-.737-.867-1.515-1.56-2.073-.466-.376-1.665-.792-1.665-.792z" fill="url(#E)"/><path d="M330.17 76.749c-2.354.271-8.609 1.026-8.609 1.026l.162 69.444s6.32 1.092 8.644 1.1c0 0 1.11-.588 1.537-1.028.647-.668 1.469-2.373 1.469-2.373-3.714.257-5.682-1.982-6.658-4.812-2.493-7.23-2.788-13.155-3.258-20.513-.41-6.407-.107-12.818.38-19.21.466-6.095 1.324-12.198 3.997-17.74 1.178-2.442 2.992-2.32 5.557-2.462 0 0-.113-.335-.196-.49-.406-.757-.813-1.555-1.464-2.128-.437-.386-1.561-.813-1.561-.813z" fill="url(#F)"/><path d="M287.73 79.068c-.587.106-1.203.233-1.688.541-.714.453-1.182 1.157-1.636 1.818-1.453 2.296-2.246 4.906-2.876 7.258-.973 3.756-1.56 7.578-1.946 11.135a125.944 125.944 0 0 0-.448 19.971c.272 4.245.69 8.36 1.412 12.262.997 4.099 1.518 8.47 4.065 11.886.453.598.924 1.25 1.636 1.608.497.25 1.118.235 1.688.3 2.47.286 8.099.479 8.982.503.252.007-1.315-.086-1.8-.337-.708-.366-1.174-1.02-1.62-1.623-2.35-3.721-3.756-7.967-4.475-11.914-.737-4.224-1.157-8.464-1.378-12.427-.334-6.904-.224-13.689.448-20.256.424-3.927.995-7.705 1.911-11.285.75-2.605 1.878-5.305 3.305-7.486.442-.665.895-1.375 1.601-1.833.473-.306 1.795-.592 1.795-.592s-6.087-.048-8.976.472z" fill="url(#G)"/><path d="M304.76 78.23c-.572.109-1.172.24-1.645.556-.696.466-1.152 1.19-1.594 1.869-1.416 2.36-2.188 5.043-2.802 7.46-.948 3.86-1.52 7.79-1.897 11.445a136.52 136.52 0 0 0-.436 20.527c.266 4.363.673 8.592 1.376 12.604.971 4.213 1.48 8.705 3.96 12.218.442.615.901 1.285 1.595 1.653.484.257 1.09.241 1.644.309 2.407.294 7.743.49 8.603.516.246.007-1.132-.088-1.605-.346-.689-.376-1.143-1.049-1.577-1.668-2.29-3.826-3.66-8.19-4.361-12.246-.718-4.342-1.127-8.7-1.343-12.774-.325-7.096-.218-14.07.437-20.821.413-4.037.97-7.92 1.862-11.6.73-2.678 1.83-5.453 3.22-7.695.43-.683.872-1.413 1.56-1.884.461-.315 1.598-.69 1.598-.69s-5.78.032-8.595.566z" fill="url(#H)"/><path d="M321.51 77.226c-.58.112-1.19.247-1.67.572-.706.48-1.169 1.225-1.618 1.924-1.437 2.43-2.22 5.192-2.844 7.68-.962 3.975-1.542 8.02-1.925 11.784a142.55 142.55 0 0 0-.443 21.133c.27 4.491.683 8.846 1.397 12.975.986 4.337 1.501 8.962 4.02 12.578.448.633.914 1.322 1.618 1.701.492.265 1.106.249 1.67.318 2.443.303 7.783.4 8.656.427.25.008-1.074.014-1.554-.252-.7-.387-1.16-1.08-1.601-1.717-2.324-3.938-3.223-8.56-3.935-12.737-.728-4.47-1.144-8.956-1.362-13.15-.33-7.305-.221-14.485.443-21.435.419-4.156.984-8.153 1.89-11.942.742-2.757 1.365-5.484 2.777-7.792.437-.703.885-1.455 1.584-1.94.467-.324 1.562-.604 1.562-.604s-5.808-.073-8.665.477z" fill="url(#I)"/><path d="M346.8 75.818s-5.643-.107-8.384.458c-.557.114-1.142.254-1.602.588-.678.493-1.122 1.259-1.553 1.978-1.38 2.497-2.131 5.336-2.73 7.894-.922 4.085-1.479 8.242-1.846 12.11a156.9 156.9 0 0 0-.425 21.722c.258 4.616.655 9.092 1.34 13.337.946 4.458 1.44 9.21 3.857 12.928.43.65.878 1.36 1.553 1.749.472.272 1.061.255 1.602.326 2.344.311 6.709.47 8.01.512l.374.011s-1.108-.07-1.569-.343c-.671-.397-1.113-1.11-1.536-1.765-2.23-4.048-3.093-8.798-3.776-13.09-.699-4.595-1.097-9.206-1.307-13.517-.317-7.508-.212-14.888.425-22.032.402-4.271.945-8.38 1.814-12.274.711-2.833 1.31-5.636 2.664-8.008.42-.723.85-1.496 1.52-1.994.448-.333 1.569-.589 1.569-.589z" fill="url(#J)"/></g></g><g stroke-linecap="round"><path d="M787.63 137.46l10.456-13.183.417-.54-9.962 12.541z" fill="#010000"/><path d="M788.03 90.674l.883 1.34.833 2.207.703 3.007.588 3.677.409 4.2.245 4.577.065 4.756-.147 4.724-.31 4.51-.49 4.119-.654 3.563-.752 2.86-.866 2.06 9.97-12.536.392-.916.343-1.258.278-1.553.229-1.798.147-1.945.049-2.059-.017-2.043-.114-1.978-.18-1.83-.261-1.602-.327-1.324-.376-.98-.409-.605-10.23-13.173z" fill="url(#K)"/><path d="M406.14 161.08l-1.528-.343-50.79-11.136 1.53.342z"/></g><g><path d="M787.1 90.233l-47.708 3.449.605.392.588 1.144.523 1.88.474 2.55.376 3.12.261 3.564.164 3.873.033 4.005-.098 4.004-.213 3.824-.31 3.498-.425 3.023-.507 2.436-.556 1.749-.604 1.013-.621.245 47.61 3.726.931-.261.916-1.193.866-2.06.752-2.86.653-3.563.49-4.118.311-4.511.147-4.724-.065-4.756-.245-4.576-.409-4.2-.588-3.678-.703-3.007-.834-2.207-.882-1.34-.932-.441z" fill="url(#L)"/><path d="M406.04 64.475L355.178 75.36c-1.582.345-2.095 1.371-3.007 2.615-2.074 4.372-2.802 9.155-3.629 13.876-1.03 7.118-1.215 14.298-1.34 21.476l.18 7.518c.294 8.06 1.393 16.016 3.547 23.78.604 1.956 1.614 3.437 2.892 4.969l50.797 11.147c34.458-24.987 40.975-63.088 1.422-96.265z" color="#000" fill="url(#M)"/><path d="M733.23 86.85l.768 1.536.703 2.55.605 3.465.506 4.25.36 4.87.196 5.311.05 5.492-.132 5.491-.278 5.23-.424 4.773-.556 4.118-.67 3.302-.736 2.37-.784 1.356 6.864-7.207.605-1.014.556-1.748.506-2.436.425-3.023.31-3.498.213-3.824.098-4.005-.033-4.004-.163-3.873-.262-3.563-.375-3.122-.474-2.55-.523-1.88-.589-1.143-6.766-7.224z" fill="url(#N)"/></g><path d="M576.21 85.983v4.544l-.016 3.448v4.25l-.017 4.854-.016 5.279-.017 5.475-.016 5.475-.033 5.214-.016 4.756-.017 4.118v3.286l-.016 2.37-.016 1.34v.31l156 .556.8-.294.785-1.357.735-2.37.67-3.301.556-4.119.425-4.772.278-5.23.13-5.492-.048-5.491-.196-5.312-.36-4.87-.507-4.25-.604-3.465-.703-2.55-.768-1.536-.785-.49-156.23-.376z" fill="url(#O)"/><g stroke-linecap="round"><path d="M566.78 71.143l-.082.621-.082 2.272-.081 3.84-.066 5.296-.081 6.554-.05 7.55-.048 8.238-.033 8.564-.016 8.548v8.123l.016 7.404.016 6.341.05 5.05.065 3.564.065 1.977.065.343 10.362.033.017-.343v-1.978l.016-3.563.033-5.05.016-6.341.033-7.388.033-8.139.017-8.548.032-8.564.033-8.253.016-7.551.017-6.554.016-5.296V71.16l-10.378-.017z" fill="url(#P)"/><path d="M663.5 86.196l-.049 3.955-.049 9.529-.065 10.378-.033 10.803-.017 10.787v9.365l12.52.049.032-9.382.017-10.77.049-10.804.033-10.41.016-9.513v-3.955l-12.454-.033z" fill="url(#Q)"/><path d="M705.34 86.196l-.049 3.955-.049 9.529-.065 10.378-.033 10.803-.017 10.787v9.365l12.52.049.032-9.382.017-10.77.049-10.804.033-10.41.016-9.513v-3.955l-12.454-.033z" fill="url(#R)"/></g><path d="M567.02 70.866l-.612-7.176c-1.751 34.74-4.044 69.294-.179 99.142l.634-7.963z"/><path d="M566.52 63.69l-160.48.784c-3.014 1.112-3.54 4.815-4.43 7.584-3.09 13.645-3.453 27.696-3.66 41.628-.068 11.726.833 23.397 2.5 34.992 1.162 3.626 1.047 11.357 5.688 12.405l160.09 1.749z" fill="url(#J)"/></svg>