<svg xmlns="http://www.w3.org/2000/svg" xmlns:xlink="http://www.w3.org/1999/xlink" viewBox="0 0 53.15 184.25"><defs><linearGradient id="d" x1="478.2" xlink:href="#a" spreadMethod="reflect" gradientUnits="userSpaceOnUse" y1="885.78" gradientTransform="matrix(.34263 0 0 .31535 160.79 -94.699)" x2="513.7" y2="848.3"/><linearGradient id="a"><stop stop-color="#4b4b4b" offset="0"/><stop stop-color="#18171a" offset=".4"/><stop offset="1"/></linearGradient><linearGradient id="e" x1="450.2" xlink:href="#a" spreadMethod="reflect" gradientUnits="userSpaceOnUse" y1="735.78" gradientTransform="matrix(.34263 0 0 .32621 160.79 -106.66)" x2="504.7" y2="735.78"/><linearGradient id="f" x1="468.82" xlink:href="#b" spreadMethod="reflect" gradientUnits="userSpaceOnUse" y1="461.62" gradientTransform="matrix(.34263 0 0 .21254 160.79 -53.599)" x2="483.41" y2="461.62"/><linearGradient id="b"><stop stop-color="#e4dfb4" offset="0"/><stop stop-color="#979792" offset=".4"/><stop stop-color="#414339" offset="1"/></linearGradient><linearGradient id="g" x1="463.05" xlink:href="#b" spreadMethod="reflect" gradientUnits="userSpaceOnUse" y1="463.39" gradientTransform="matrix(.32819 0 0 .30386 166.92 -96.301)" x2="450.24" y2="463.39"/><linearGradient id="h" x1="468.82" xlink:href="#b" spreadMethod="reflect" gradientUnits="userSpaceOnUse" y1="461.62" gradientTransform="matrix(.36353 0 0 .08388 151.92 7.41)" x2="483.41" y2="461.62"/><radialGradient id="i" xlink:href="#a" spreadMethod="reflect" gradientUnits="userSpaceOnUse" cy="559.92" cx="424.58" gradientTransform="matrix(.90038 0 0 -.0667 -75.964 73.1)" r="28.141"/><linearGradient id="j" x1="629.84" xlink:href="#a" gradientUnits="userSpaceOnUse" y1="802.53" gradientTransform="matrix(.34263 0 0 .32621 160.79 -106.66)" x2="318.57" y2="886.34"/><radialGradient id="k" xlink:href="#c" spreadMethod="reflect" gradientUnits="userSpaceOnUse" cy="703.67" cx="425.28" gradientTransform="matrix(.49252 0 0 .03514 1272.7 393.2)" r="74.594"/><linearGradient id="c"><stop stop-color="#f4dfd1" offset="0"/><stop stop-color="#985130" offset=".4"/><stop stop-color="#4b2717" offset="1"/></linearGradient><linearGradient id="l" x1="447.08" xlink:href="#c" spreadMethod="reflect" gradientUnits="userSpaceOnUse" y1="561.01" gradientTransform="matrix(.34415 0 0 .33161 160.15 -110.15)" x2="504.62" y2="561.01"/><linearGradient id="m" x1="449.3" xlink:href="#a" gradientUnits="userSpaceOnUse" y1="580.12" gradientTransform="translate(154.01 -126.19) scale(.35861)" x2="401.52" y2="580.12"/><radialGradient id="n" xlink:href="#c" spreadMethod="reflect" gradientUnits="userSpaceOnUse" cy="728.18" cx="425.72" gradientTransform="matrix(5.2609 0 0 .21486 -766.48 260.64)" r="74.594"/><radialGradient id="o" xlink:href="#c" spreadMethod="reflect" gradientUnits="userSpaceOnUse" cy="728.18" cx="425.72" gradientTransform="matrix(7.5864 0 0 .41245 -1745.1 116.96)" r="74.594"/><linearGradient id="p" x1="501.03" xlink:href="#c" gradientUnits="userSpaceOnUse" x2="463.7" gradientTransform="matrix(.34263 0 0 .37338 160.79 -134.79)" y1="559.56" y2="559.56"/></defs><path transform="translate(-279.63 -39.82)" fill="url(#d)" d="M306.22 53.656c-14.117 0-25.562.49-25.562 1.094v158.47c0 4.538 11.446 8.219 25.562 8.219 14.117 0 25.562-3.68 25.562-8.22V54.75c0-.602-11.446-1.093-25.562-1.093z" color="#000"/><path transform="translate(-279.63 -39.82)" fill="url(#e)" d="M306.22 46.812c-14.117 0-25.562.782-25.562 1.406v163.66c0 4.695 6.32 8.5 25.562 8.5s25.562-3.805 25.562-8.5V48.218c0-.624-11.446-1.406-25.562-1.406z" color="#000"/><path transform="translate(-279.63 -39.82)" fill="url(#f)" d="M302.5 42.594c-3.442.058-5.867.247-5.906.781v.25c.057.098.093.401.093.75 0 .346-.037 1.118-.093 1.22v.843c2.978-.035 6.21-.063 9.625-.063s6.678.028 9.656.063v-.844c-.05-.118-.094-.896-.094-1.219 0-.322.044-.6.094-.718v-.22c.002-.01 0-.02 0-.03v-.032c-.057-.711-4.367-.781-9.656-.781-1.323 0-2.572-.02-3.719 0z" color="#000"/><path transform="translate(-279.63 -39.82)" fill="url(#g)" d="M300.28 43.656c-1.612-.003-2.752.03-3.188.219v.093c0 .333-.003.642-.03.844.775-.387 4.56-.187 9.155-.187 4.636 0 8.492-.205 9.22.187a6.173 6.173 0 0 1-.063-.843v-.094c-.854-.378-4.63-.188-9.156-.188-2.256 0-4.326-.028-5.938-.031z" color="#000"/><path transform="translate(-279.63 -39.82)" fill="url(#h)" d="M306.22 45.375c-5.614 0-10.163.219-10.219.5v.094c.06.038.094.174.094.312 0 .137-.035.242-.094.282v.343c3.16-.014 6.595-.031 10.219-.031 3.623 0 7.06.017 10.219.031v-.343c-.053-.047-.063-.155-.063-.282s.01-.235.063-.281v-.094c.001-.002-.003-.029 0-.031-.06-.28-4.607-.5-10.219-.5z" color="#000"/><path transform="translate(-279.63 -39.82)" fill="url(#i)" d="M306.22 42.469c-5.291 0-9.572.003-9.625.594v.218a.4.4 0 0 1 .063.126c.51-.543 4.583-.5 9.562-.5 5.041 0 9.168-.053 9.594.5.012-.054.047-.095.062-.125v-.188c.002-.01 0-.022 0-.031-.056-.59-4.367-.594-9.656-.594z" color="#000"/><path fill="#1a191c" d="M1.03 60.24v113.223c.637.973 1.948 1.889 3.75 2.718-.263-44.429-.736-83.518-1.031-115.03-1.352-.23-2.188-.644-2.719-.906z" color="#000"/><path transform="translate(-279.63 -39.82)" fill="url(#j)" d="M331.78 100.41c-.768.304-3.168 1.826-5.125 2.094-.377 32.352.217 70.813-.125 114.81 2.512-1 4.328-2.19 5.25-3.5z" color="#000"/><path d="M20.87 72.59a.58.58 0 0 0-.406.156.58.58 0 0 0-.156.407v4.062c0 1.355.275 2.493.937 3.375.662.882 1.671 1.395 2.813 1.438.872.032 1.687-.208 2.312-.72.253-.204.445-.477.625-.75.116.148.196.322.344.438.541.425 1.249.594 2.031.563a3.227 3.227 0 0 0 2.531-1.344c.592-.82.875-1.873.875-3.125v-3.906a.615.615 0 0 0-.187-.438c-.114-.104-.276-.138-.438-.125a69.14 69.14 0 0 1-11.219-.03c-.02-.003-.043 0-.062 0zm1.906 2.906c.962.054 1.944.08 2.907.094v1.812c0 .736-.178 1.21-.375 1.438-.193.227-.475.364-1.063.344-.582-.02-.89-.19-1.094-.438-.197-.24-.375-.702-.375-1.437v-1.813zm7.5 0v1.656c0 .669-.126 1.074-.281 1.282-.157.212-.347.327-.781.343-.441.017-.623-.077-.781-.28-.152-.197-.282-.612-.282-1.282V75.59c.717-.015 1.409-.056 2.125-.094zm-9.375 8.125a.62.62 0 0 0-.437.156.545.545 0 0 0-.156.407v1.594c0 .127.02.264.094.375s.193.197.312.25c.825.367 1.644.724 2.469 1.062v4.25c-.825.253-1.644.464-2.469.688a.619.619 0 0 0-.312.218.555.555 0 0 0-.094.344v1.594c0 .201.086.434.25.562a.678.678 0 0 0 .593.094c3.746-1.145 7.474-2.593 11.22-4.344.229-.109.405-.345.405-.594v-1.75a.568.568 0 0 0-.406-.53c-3.745-1.134-7.473-2.575-11.219-4.313a.66.66 0 0 0-.25-.063zm4.782 4.844c1.061.41 2.125.795 3.187 1.156a85.5 85.5 0 0 1-3.187 1.219v-2.375zm6.468 6.219c-.428.034-.853.068-1.281.094-.02 0-.043-.002-.062 0-.151.024-.304.13-.406.25s-.157.252-.156.406v3.437c-3.112.162-6.201.102-9.313-.156a.587.587 0 0 0-.437.156.545.545 0 0 0-.188.407v1.562c0 .164.073.312.188.438a.678.678 0 0 0 .437.218c3.112.258 6.2.318 9.313.157v3.406a.584.584 0 0 0 .625.594c.428-.027.853-.06 1.28-.094a.676.676 0 0 0 .438-.219.652.652 0 0 0 .188-.437v-9.625a.588.588 0 0 0-.625-.594zm0 11.094c-.428.034-.853.068-1.281.094-.02 0-.043-.002-.062 0a.678.678 0 0 0-.406.218.686.686 0 0 0-.156.438v3.437c-3.112.162-6.201.102-9.313-.156a.585.585 0 0 0-.437.156.545.545 0 0 0-.188.407v1.562c0 .164.073.342.188.469a.675.675 0 0 0 .437.219c3.112.257 6.2.286 9.313.125v3.437a.62.62 0 0 0 .187.438c.114.11.276.166.438.156.428-.026.853-.06 1.28-.094a.673.673 0 0 0 .438-.219.651.651 0 0 0 .188-.437v-9.688c0-.164-.073-.3-.188-.406a.586.586 0 0 0-.437-.156zm-11.28 12.969a.572.572 0 0 0-.407.156.578.578 0 0 0-.156.406v7.407c0 .165.073.341.187.468a.673.673 0 0 0 .438.219c.428.036.853.066 1.28.094a.58.58 0 0 0 .438-.157c.115-.11.157-.272.157-.437v-5.219c.945.052 1.899.111 2.843.125v4.813c0 .165.073.319.188.437a.622.622 0 0 0 .437.188c.426.002.856.006 1.282 0a.622.622 0 0 0 .437-.188.608.608 0 0 0 .156-.437v-4.844c.697-.015 1.398-.026 2.094-.063v5.063a.62.62 0 0 0 .188.437.58.58 0 0 0 .437.157c.428-.026.853-.06 1.281-.094a.672.672 0 0 0 .438-.219.728.728 0 0 0 .187-.469v-7.25a.613.613 0 0 0-.187-.437c-.114-.107-.276-.138-.438-.125-3.745.297-7.473.279-11.219-.031-.02-.002-.043 0-.062 0zm0 11.812a.57.57 0 0 0-.407.156.578.578 0 0 0-.156.406v1.563c0 .165.073.341.187.469a.671.671 0 0 0 .438.218c1.379.115 2.746.187 4.125.22v1.062c0 .53-.102.852-.25 1.062v.031c-.136.195-.576.519-1.282.844v.031c-.962.449-1.912.872-2.875 1.281a.583.583 0 0 0-.343.532v1.656a.709.709 0 0 0 .28.562c.178.128.408.174.595.094a93.618 93.618 0 0 0 3.093-1.406c.664-.313 1.175-.634 1.594-1 .078-.067.149-.148.219-.219.196.291.438.548.719.75.586.424 1.293.62 2.093.594 1.205-.04 2.238-.516 2.907-1.375.67-.861.968-2.033.968-3.438v-3.5a.613.613 0 0 0-.187-.437.582.582 0 0 0-.438-.156c-3.745.297-7.473.31-11.219 0-.02-.002-.043 0-.062 0zm9.405 2.937v1.344c0 .654-.145 1.047-.343 1.281-.195.237-.488.389-1.032.407-.544.017-.826-.084-1.03-.313-.2-.222-.345-.628-.345-1.281v-1.344c.92-.012 1.831-.045 2.75-.094zm1.875 7.313a.714.714 0 0 0-.343.125 131.774 131.774 0 0 1-5.72 4.156 69.203 69.203 0 0 1-5.155-.219.58.58 0 0 0-.438.157.544.544 0 0 0-.187.406v1.594c0 .166.073.34.187.468a.669.669 0 0 0 .438.22 69.23 69.23 0 0 0 5.156.218 121.172 121.172 0 0 0 5.719 3.812c.184.114.429.125.625 0 .196-.124.344-.364.343-.593v-1.688a.588.588 0 0 0-.28-.5 117.457 117.457 0 0 1-3.876-2.469c1.288-.93 2.588-1.873 3.875-2.875a.745.745 0 0 0 .281-.562v-1.656a.668.668 0 0 0-.187-.47.542.542 0 0 0-.438-.124z" fill="#ccc"/><path fill="url(#k)" d="M1466.5 415.72c-13.995 0-12.656 1.188-12.656 1.188s.894 1.437 25.312 1.437c24.418 0 25.344-1.438 25.344-1.438s1.339-1.187-12.656-1.187H1466.5z" color="#000" transform="translate(-1452.53 -408.82)"/><path style="block-progression:tb;text-transform:none;text-indent:0" fill="#c5c53a" d="M19.87 166.42a.355.311 0 0 0-.146.105.355.311 0 0 0-.073.105l-3.894 8.449a.355.311 0 0 0 0 .175.355.311 0 0 0 .255.245l1.455.28a.355.311 0 0 0 .364-.14.355.311 0 0 0 .037-.07l.837-1.928 4.149.386.837 2.173a.355.311 0 0 0 .073.105.355.311 0 0 0 .108.07.355.311 0 0 0 .146.036l1.492.035a.355.311 0 0 0 .182-.035.355.311 0 0 0 .108-.07.355.311 0 0 0 .073-.21.355.311 0 0 0-.037-.106l-3.894-9.185-.036-.07a.355.311 0 0 0-.073-.07.355.311 0 0 0 0-.035.355.311 0 0 0-.037 0 .355.311 0 0 0 0-.035.355.311 0 0 0-.037 0 .355.311 0 0 0-.037 0 .355.311 0 0 0-.037-.035.355.311 0 0 0-.037 0 .355.311 0 0 0-.037 0 .355.311 0 0 0-.108-.035l-1.492-.14a.355.311 0 0 0-.108 0 .355.311 0 0 0-.036 0zm13.101.035l-1.492.14a.355.311 0 0 0-.328.21l-3.93 9.22a.355.311 0 0 0 0 .21.355.311 0 0 0 .073.14.355.311 0 0 0 .291.106l1.456-.07a.355.311 0 0 0 .073 0 .355.311 0 0 0 .146-.07.355.311 0 0 0 .073-.106l.873-2.173 4.149-.386.837 1.928a.355.311 0 0 0 .073.105.355.311 0 0 0 .328.106l1.455-.246a.355.311 0 0 0 .291-.245.355.311 0 0 0-.037-.175l-3.857-8.414a.355.311 0 0 0 0-.035l-.038-.035a.355.311 0 0 0 0-.035.355.311 0 0 0-.036-.035.355.311 0 0 0 0-.035.355.311 0 0 0-.037 0 .355.311 0 0 0 0-.035.355.311 0 0 0-.037 0 .355.311 0 0 0-.037-.035.355.311 0 0 0-.037 0 .355.311 0 0 0-.036 0 .355.311 0 0 0 0-.035.355.311 0 0 0-.037 0 .355.311 0 0 0-.037 0 .355.311 0 0 0-.036 0 .355.311 0 0 0-.037 0 .355.311 0 0 0-.073 0zm-12.192 2.454l1.383 3.4-2.766-.245 1.383-3.155zm11.536.035l1.383 3.155-2.766.245 1.383-3.4z" color="#000"/><path fill="#0e0e0f" d="M47.17 60.83c-1.483.177-3.174.329-5.031.464.4 24.86 1.364 42.511 2.505 42.511 1.149 0 2.131-17.862 2.526-42.975z" color="#000"/><path transform="translate(-279.63 -39.82)" fill="url(#l)" d="M306.22 47.719c-14.117 0-25.562.173-25.562.375v53.188c0 1.524 11.446 2.781 25.562 2.781 14.117 0 25.562-1.258 25.562-2.781-.003-18.528 0-37.371 0-53.188 0-.202-11.446-.375-25.562-.375z" color="#000"/><path fill="#8b5941" d="M2.9 8.149c-1.165.042-1.875.077-1.875.125v53.188c0 .448 1.022.876 2.781 1.25C3.522 39.86 3.23 21.494 2.9 8.15z" color="#000"/><path transform="translate(-279.63 -39.82)" fill="url(#m)" d="M305.56 74.062a.935.935 0 0 0-.938.938v5.437h-5.437a.935.935 0 0 0-.938.938v1.312c0 .52.419.938.938.938h5.438v5.437c0 .52.418.938.937.938h1.313c.519 0 .937-.419.937-.938v-5.438h5.438c.519 0 .937-.418.937-.937v-1.313a.935.935 0 0 0-.938-.937h-5.437v-5.438a.935.935 0 0 0-.938-.937h-1.312z" color="#000"/><path fill="url(#n)" d="M1480.2 416.91c0 .201-3.202.364-7.151.364s-7.151-.163-7.151-.364c0-.201 3.201-.364 7.15-.364s7.152.163 7.152.364z" color="#000" transform="translate(-1452.53 -408.82)"/><path fill="url(#o)" d="M1484.4 416.23c-5.695 0-10.312.293-10.312.679 0 .386 4.617.727 10.312.727 5.695 0 10.312-.34 10.312-.727 0-.386-4.617-.679-10.312-.679z" color="#000" transform="translate(-1452.53 -408.82)"/><path transform="translate(-279.63 -39.82)" fill="url(#p)" d="M326.66 47.875v55.062c3.205-.46 5.125-1.036 5.125-1.656-.003-18.528 0-37.371 0-53.188 0-.082-1.947-.158-5.125-.219z" color="#000"/></svg>