<svg xmlns="http://www.w3.org/2000/svg" xmlns:xlink="http://www.w3.org/1999/xlink" viewBox="0 0 439.16 819.93"><defs><linearGradient id="a"><stop offset="0" stop-color="#d0d0d0"/><stop offset="1"/></linearGradient><linearGradient id="b"><stop offset="0" stop-color="#3a3a3a"/><stop offset=".08" stop-color="#878787"/><stop offset=".919" stop-color="#d9d9d9"/><stop offset="1" stop-color="#333"/></linearGradient><linearGradient id="e" y2="141.2" xlink:href="#a" gradientUnits="userSpaceOnUse" x2="4.041" y1="-357.81" x1="507.1"/><filter id="d" color-interpolation-filters="sRGB"><feGaussianBlur stdDeviation="2.962"/></filter><radialGradient id="c" cx="186.73" xlink:href="#a" gradientUnits="userSpaceOnUse" cy="139.65" r="219.05" gradientTransform="matrix(1.2834 .84735 -1.5347 2.3007 161.39 -337.85)"/><linearGradient id="i" y2="461.99" xlink:href="#b" gradientUnits="userSpaceOnUse" y1="461.99" gradientTransform="matrix(.92539 0 0 .75783 20.537 110.84)" x2="344.04" x1="238.01"/><linearGradient id="h" y2="407.9" xlink:href="#b" gradientUnits="userSpaceOnUse" y1="407.9" gradientTransform="matrix(.92539 0 0 .75783 20.537 98.097)" x2="344.04" x1="238.01"/><linearGradient id="f" y2="353.81" xlink:href="#b" gradientUnits="userSpaceOnUse" y1="353.81" gradientTransform="matrix(.92539 0 0 .75783 20.537 85.356)" x2="344.04" x1="238.01"/><linearGradient id="g" y2="299.72" xlink:href="#b" gradientUnits="userSpaceOnUse" y1="299.72" gradientTransform="matrix(.92539 0 0 .75783 20.537 72.615)" x2="344.04" x1="238.01"/><linearGradient id="s" y2="245.2" xlink:href="#b" gradientUnits="userSpaceOnUse" y1="245.2" gradientTransform="matrix(.92539 0 0 .75783 20.537 60.194)" x2="344.04" x1="238.01"/><linearGradient id="r" y2="191.11" xlink:href="#b" gradientUnits="userSpaceOnUse" y1="191.11" gradientTransform="matrix(.92539 0 0 .75783 20.537 47.453)" x2="344.04" x1="238.01"/><linearGradient id="m" y2="461.99" xlink:href="#b" gradientUnits="userSpaceOnUse" y1="461.99" gradientTransform="matrix(.92539 0 0 .75783 5.09 110.84)" x2="105.44" x1="-.591"/><linearGradient id="l" y2="407.9" xlink:href="#b" gradientUnits="userSpaceOnUse" y1="407.9" gradientTransform="matrix(.92539 0 0 .75783 5.09 98.097)" x2="105.44" x1="-.591"/><linearGradient id="j" y2="353.81" xlink:href="#b" gradientUnits="userSpaceOnUse" y1="353.81" gradientTransform="matrix(.92539 0 0 .75783 5.09 85.356)" x2="105.44" x1="-.591"/><linearGradient id="k" y2="299.72" xlink:href="#b" gradientUnits="userSpaceOnUse" y1="299.72" gradientTransform="matrix(.92539 0 0 .75783 5.09 72.615)" x2="105.44" x1="-.591"/><linearGradient id="u" y2="245.2" xlink:href="#b" gradientUnits="userSpaceOnUse" y1="245.2" gradientTransform="matrix(.92539 0 0 .75783 5.09 60.194)" x2="105.44" x1="-.591"/><linearGradient id="t" y2="191.11" xlink:href="#b" gradientUnits="userSpaceOnUse" y1="191.11" gradientTransform="matrix(.92539 0 0 .75783 5.092 47.453)" x2="105.44" x1="-.591"/><linearGradient id="q" y2="461.99" xlink:href="#b" gradientUnits="userSpaceOnUse" y1="461.99" gradientTransform="matrix(.92539 0 0 .75783 12.814 110.84)" x2="224.74" x1="118.71"/><linearGradient id="p" y2="407.9" xlink:href="#b" gradientUnits="userSpaceOnUse" y1="407.9" gradientTransform="matrix(.92539 0 0 .75783 12.814 98.097)" x2="224.74" x1="118.71"/><linearGradient id="o" y2="299.72" xlink:href="#b" gradientUnits="userSpaceOnUse" y1="299.72" gradientTransform="matrix(.92539 0 0 .75783 12.814 72.615)" x2="224.74" x1="118.71"/><linearGradient id="n" y2="353.81" xlink:href="#b" gradientUnits="userSpaceOnUse" y1="353.81" gradientTransform="matrix(.92539 0 0 .75783 12.814 85.356)" x2="224.74" x1="118.71"/><linearGradient id="v" y2="218.16" xlink:href="#b" gradientUnits="userSpaceOnUse" x2="224.75" gradientTransform="matrix(.92539 0 0 .75783 12.807 47.461)" y1="218.16" x1="118.72"/><linearGradient id="w" y2="218.16" xlink:href="#b" gradientUnits="userSpaceOnUse" x2="224.75" gradientTransform="matrix(.54026 0 0 -.54026 78.946 330.65)" y1="218.16" x1="118.72"/></defs><text style="line-height:125%" y="475.576" x="264.643" font-size="36" font-family="Arial" letter-spacing="0" word-spacing="0" transform="translate(33.378 269.71)"></text><g transform="translate(33.378 269.71)"><path d="M6.795-266.88c-21.665 0-39.107 19.648-39.107 44.054v684.94c0 12.567 4.624 23.859 12.068 31.871.411.485.822.948 1.253 1.411.411.486.821.982 1.252 1.446.412.485.853.947 1.283 1.41.412.486.822.948 1.253 1.412.368.433.748.857 1.13 1.273a42.273 42.273 0 0 0 1.528 1.721c.37.432.746.86 1.13 1.273.412.486.822.948 1.253 1.412.412.485.822.981 1.253 1.445.412.486.852.947 1.283 1.411.412.485.822.948 1.253 1.411.367.434.747.857 1.13 1.274a42.273 42.273 0 0 0 1.528 1.72c.37.432.745.86 1.13 1.274.412.485.822.948 1.253 1.411.412.486.822.982 1.253 1.446.411.485.852.947 1.283 1.41.411.486.822.948 1.253 1.412.367.433.747.857 1.13 1.273.459.547.922 1.099 1.405 1.618.405.476.83.921 1.253 1.377a41.82 41.82 0 0 0 1.467 1.652c.136.158.258.325.397.482.026.027.065.041.091.068.116.13.25.251.367.379.477.57.964 1.145 1.466 1.687.412.485.822.947 1.253 1.41.412.486.822.982 1.253 1.446.341.403.714.783 1.07 1.17.474.569.965 1.113 1.466 1.652.367.434.747.858 1.13 1.274a42.28 42.28 0 0 0 1.528 1.72c7.103 8.296 17.083 13.458 28.169 13.458h320.77c21.665 0 39.107-19.648 39.107-44.054v-684.94c0-12.69-4.742-24.087-12.313-32.112-.12-.126-.216-.29-.336-.413-.621-.77-1.289-1.485-1.956-2.203a42.206 42.206 0 0 0-1.13-1.273 42.288 42.288 0 0 0-1.528-1.721c-.37-.432-.745-.86-1.13-1.274a41.282 41.282 0 0 0-1.253-1.41c-.411-.486-.822-.983-1.253-1.446-.411-.486-.852-.948-1.283-1.411a41.169 41.169 0 0 0-1.252-1.412 42.052 42.052 0 0 0-1.13-1.273 42.28 42.28 0 0 0-1.528-1.72c-.37-.432-.746-.86-1.13-1.274a41.274 41.274 0 0 0-1.253-1.411c-.412-.486-.822-.982-1.253-1.446-.412-.485-.852-.947-1.283-1.411a41.19 41.19 0 0 0-1.253-1.411 42.09 42.09 0 0 0-1.13-1.273 42.267 42.267 0 0 0-1.528-1.721c-.37-.432-.746-.86-1.13-1.274-.613-.722-1.21-1.46-1.864-2.134-.21-.237-.426-.49-.642-.722-.411-.486-.852-.948-1.283-1.412a41.18 41.18 0 0 0-1.253-1.41 42.078 42.078 0 0 0-1.13-1.274c-.46-.546-.922-1.098-1.405-1.618-.405-.476-.83-.921-1.253-1.376-.404-.477-.8-.956-1.222-1.411-.461-.545-.951-1.066-1.436-1.584-.37-.431-.746-.859-1.13-1.273a41.2 41.2 0 0 0-1.253-1.411c-7.112-8.386-17.136-13.595-28.292-13.595H6.794z" color="#000" fill="url(#c)"/><rect ry="39.162" rx="38.808" transform="matrix(.98988 0 0 .98005 1.737 3.266)" height="784.64" width="400.18" y="-271.42" x="-28.365" color="#000" filter="url(#d)" fill="#b3b3b3"/><rect rx="38.416" ry="38.13" height="762.76" width="391.94" y="-257.63" x="-24.244" color="#000" fill="#818181"/><g color="#000"><path d="M8.563 175.41c-2.22 0-4.032 1.464-4.032 3.281v27.188c0 .98.55 1.838 1.375 2.438.034.03.059.065.094.093.079.065.165.13.25.188.04.033.084.062.125.094.117.113.238.214.375.312.104.093.226.17.344.25.09.078.18.15.281.219.023.02.04.043.063.062.065.043.118.087.187.125.024.017.038.047.063.063.04.034.082.062.125.094.032.019.06.044.093.062.092.084.176.177.282.25.05.046.101.083.156.125.041.043.047.117.094.156.009.012.021.02.03.032.084.14.194.255.313.375.07.096.133.195.219.28.023.031.038.065.063.094.027.025.064.04.093.063l.063.062c.07.096.133.195.219.282.022.03.038.064.062.093.038.036.084.06.125.094l.031.031c.066.09.14.168.219.25.084.113.147.243.25.344.045.057.106.103.156.156.012.01.02.022.032.032.08.105.154.216.25.312.027.034.064.06.093.094.077.109.158.212.25.312.078.107.158.215.25.313.023.03.039.064.063.093.079.079.162.147.25.22.733.732 1.842 1.218 3.094 1.218h90.094c2.218 0 4-1.465 4-3.281V184.69c0-.76-.319-1.414-.844-1.969a3.372 3.372 0 0 0-.406-.406c-.023-.018-.04-.046-.063-.063-.051-.042-.102-.085-.156-.125-.046-.037-.109-.058-.156-.093-.011-.01-.02-.023-.032-.032-.04-.03-.082-.065-.125-.093-.065-.061-.147-.1-.218-.157-.082-.072-.16-.153-.25-.218-.047-.038-.107-.059-.157-.094-.005-.005-.025.005-.03 0-.046-.028-.078-.068-.126-.094-.035-.029-.057-.066-.093-.093a2.167 2.167 0 0 0-.063-.063c-.034-.028-.089-.036-.125-.062-.045-.04-.076-.09-.125-.125-.045-.04-.107-.057-.156-.094-.035-.038-.087-.058-.125-.094-.034-.026-.059-.07-.094-.094-.03-.024-.063-.04-.094-.062-.022-.026-.069-.038-.093-.063-.02-.012-.042-.018-.063-.03-.018-.023-.042-.042-.062-.063-.03-.025-.062-.04-.094-.063-.018-.022-.043-.04-.063-.062-.055-.047-.093-.085-.156-.125-.048-.04-.102-.09-.156-.125-.052-.043-.097-.089-.156-.125-.029-.024-.063-.041-.094-.063a1.215 1.215 0 0 0-.156-.125c-.063-.06-.14-.11-.219-.156-.029-.024-.062-.042-.094-.063-.037-.038-.079-.061-.125-.093-.04-.047-.102-.089-.156-.125-.007-.01-.054.009-.062 0-.005-.01.006-.023 0-.031-.01-.011-.023-.021-.032-.032-.033-.075-.08-.148-.125-.218-.007-.013-.024-.019-.03-.032-.013-.033-.018-.06-.032-.093-.013-.026-.048-.038-.063-.063-.03-.064-.056-.127-.093-.187-.004-.008.004-.024 0-.032-.04-.09-.105-.165-.156-.25-.022-.042-.038-.083-.063-.125-.02-.04-.04-.085-.062-.125-.024-.045-.068-.08-.094-.125-.007-.012-.025-.018-.031-.03-.014-.02-.018-.045-.032-.063-.005-.008.005-.024 0-.031-.006-.013-.024-.02-.03-.032-.009-.012-.023-.019-.032-.03-.006-.013-.025-.02-.031-.032-.004-.008.005-.024 0-.031-.018-.034-.044-.06-.063-.094-.004-.009.004-.023 0-.031-.006-.013-.024-.019-.03-.031-.04-.084-.079-.17-.126-.25-.05-.097-.127-.159-.187-.25-.036-.05-.055-.11-.094-.157-.703-.937-1.959-1.593-3.406-1.593H8.564zM244.78 175.41c-2.219 0-4 1.464-4 3.281v27.188c0 .755.325 1.447.844 2 .054.068.127.123.187.188l.031.03c.04.036.084.061.125.095l.032.03c.019.022.042.043.062.063.034.03.059.065.094.094.03.033.063.062.094.094.037.033.054.092.093.125.015.016.048.015.063.03.05.046.072.114.125.157.02.022.042.041.062.063l.031.03c.034.03.06.066.094.095.02.021.043.04.063.062.009.012.022.02.03.031.04.035.085.06.126.094.03.032.063.062.094.094.033.03.058.065.093.093.03.033.063.062.094.094.034.03.059.065.094.094.02.022.042.04.062.062.05.046.072.113.125.157.02.021.043.04.063.062.009.011.022.02.03.031.035.03.06.065.095.094.02.022.042.041.062.062.01.012.022.02.031.032.04.035.084.06.125.093.03.033.063.063.094.094.034.03.059.065.094.094.029.033.063.062.093.093.034.03.06.066.094.094.02.022.042.041.063.063.05.045.072.113.125.156.02.022.042.041.062.062.01.012.022.02.031.032.034.03.06.065.094.093.02.022.042.041.062.063l.032.031c.039.035.084.06.125.094.03.032.063.062.093.093.034.03.06.065.094.094.03.033.063.062.094.094.033.03.059.065.093.093.03.033.064.062.094.094.04.035.053.092.094.125.005.005.026-.005.031 0 .022.018.04.045.063.063.005.007-.006.024 0 .03.033.03.058.066.093.095.02.021.043.04.063.062.009.011.022.02.031.031.038.034.085.062.125.094.015.016.016.046.031.062.01.012.022.02.031.032.04.035.084.06.125.093.029.032.064.064.094.094.034.03.059.065.094.094.029.033.063.062.093.093.038.034.055.093.094.125.015.017.048.016.063.032.05.045.072.113.125.156.02.022.042.041.062.062.01.012.022.02.031.032.034.03.06.065.094.093.02.022.042.041.063.063.009.011.021.02.03.031.04.035.085.06.126.094.028.031.064.063.093.093.034.03.06.066.094.094.03.033.063.062.094.094.038.034.054.092.094.125.014.016.047.015.062.031.017.015.014.048.031.063l.031.03c.023.02.04.044.063.063.015.017.047.015.062.031.012.01.02.023.032.032.06.053.091.137.156.187.732.67 1.779 1.094 2.969 1.094h90.125c2.218 0 4-1.464 4-3.281v-27.188c0-.777-.328-1.47-.875-2.031-.056-.068-.126-.124-.188-.188-.028-.034-.064-.06-.093-.094-.032-.03-.06-.064-.094-.093-.01-.011-.022-.02-.031-.032-.029-.024-.065-.038-.094-.062-.027-.026-.035-.069-.063-.094-.031-.038-.091-.057-.125-.093-.03-.03-.061-.065-.093-.094-.033-.04-.06-.087-.094-.125-.031-.03-.061-.065-.094-.094-.028-.035-.063-.06-.093-.094-.033-.03-.06-.064-.094-.093-.028-.034-.065-.061-.094-.094-.033-.032-.059-.063-.093-.094-.027-.032-.066-.062-.094-.093-.032-.031-.06-.064-.094-.094-.031-.038-.092-.057-.125-.094-.03-.03-.061-.065-.094-.093-.032-.04-.059-.087-.093-.125-.032-.03-.061-.065-.094-.094-.029-.035-.063-.06-.094-.094-.032-.03-.06-.064-.093-.094-.028-.033-.065-.06-.094-.093-.033-.032-.06-.063-.094-.094-.027-.033-.065-.062-.093-.094-.032-.03-.06-.064-.094-.093-.032-.039-.092-.057-.125-.094-.031-.03-.062-.065-.094-.094-.032-.04-.06-.086-.094-.125-.031-.03-.06-.065-.093-.093-.029-.035-.064-.06-.094-.094-.032-.03-.06-.064-.094-.094-.027-.034-.064-.06-.093-.094-.034-.031-.06-.063-.094-.093-.028-.034-.065-.061-.094-.094-.032-.03-.06-.064-.093-.094-.01-.01-.023-.02-.032-.03-.028-.026-.064-.04-.093-.063-.033-.031-.06-.064-.094-.094-.028-.034-.065-.061-.094-.094-.02-.02-.041-.043-.062-.062-.016-.017-.016-.046-.031-.063-.03-.035-.064-.06-.094-.093-.032-.031-.06-.065-.094-.094-.028-.034-.064-.061-.094-.094-.033-.032-.059-.063-.093-.094-.028-.033-.065-.06-.094-.093-.032-.031-.06-.064-.094-.094-.009-.01-.022-.02-.03-.031-.03-.025-.065-.038-.095-.063-.032-.03-.06-.064-.093-.093-.028-.034-.065-.061-.094-.094-.02-.02-.041-.043-.063-.063-.015-.016-.015-.046-.03-.062-.03-.035-.064-.06-.094-.094-.033-.03-.06-.064-.094-.093-.028-.034-.065-.061-.094-.094-.033-.032-.059-.063-.094-.094-.027-.034-.064-.06-.093-.094-.032-.03-.06-.064-.094-.093-.009-.011-.022-.02-.031-.031-.029-.025-.064-.039-.094-.063-.032-.03-.06-.064-.094-.094-.027-.033-.064-.06-.093-.093-.02-.02-.041-.044-.063-.063l-.03-.031c-.034-.04-.06-.087-.095-.125-.064-.062-.117-.13-.187-.188l-.031-.03c-.733-.68-1.802-1.126-3-1.126H244.78zM126.66 175.41c-2.219 0-4 1.464-4 3.281v68.157c0 .76.353 1.442.875 2 .138.147.272.312.438.437.04.034.083.061.124.094.068.059.146.102.22.156.027.023.064.04.093.063.022.02.04.043.062.062.013.008.02.023.032.031.03.024.063.04.093.063.012.01.02.022.032.031.02.012.04.02.062.031.023.019.039.045.063.063.057.048.125.08.187.125.008.004.023-.004.031 0 .035.028.058.067.094.093.039.034.084.063.125.094.02.012.041.02.062.031.035.03.058.067.094.094.008.004.024-.004.031 0 .05.043.072.117.125.156.034.03.09.035.125.063.008.004.024-.004.032 0 .034.026.057.069.093.094.013.008.018.023.031.03.06.054.122.11.188.157.038.033.084.063.125.094.022.02.04.043.062.062.007.004.024-.004.032 0 .022.018.039.045.062.063.063.058.146.106.219.156.044.036.108.061.156.094.045.038.076.09.125.125.02.018.04.045.063.062.019.012.043.02.062.031.007.005.024-.005.031 0 .004.002-.004.03 0 .032.037.032.084.064.125.093.053.051.125.083.188.125.038.035.081.064.125.094a.97.97 0 0 0 .156.125c.043.044.102.09.156.125a.75.75 0 0 0 .157.125c.018.021.04.044.062.062.015.026.047.038.063.063l.03.062.032.063c.009.012.022.02.031.031.025.046.065.08.094.125.004.008-.005.023 0 .031.019.04.04.086.062.125.032.069.086.123.125.188.006.012.025.019.032.031.009.015-.01.048 0 .063.037.08.108.142.156.218.004.008-.004.023 0 .031.02.043.04.084.062.125.032.067.088.124.125.188.01.02.02.042.032.062l.03.063c.019.024.044.039.063.062.018.033.044.062.063.094.005.007-.005.024 0 .031.009.012.022.02.031.032.014.028.016.065.031.093.052.109.122.21.188.313.05.072.098.15.156.219.023.03.039.064.062.093.113.126.242.233.375.344a4.311 4.311 0 0 0 2.938 1.125h90.125c2.218 0 4-1.496 4-3.313V184.69c0-1.024-.571-1.928-1.469-2.531-.09-.074-.182-.153-.281-.219-.029-.023-.065-.04-.094-.062a3.25 3.25 0 0 0-.375-.313 3.41 3.41 0 0 0-.281-.219 3.288 3.288 0 0 0-.594-.437 2.917 2.917 0 0 0-.281-.219c-.082-.075-.158-.153-.25-.219-.016-.014-.015-.048-.031-.062-.004-.005-.027.005-.031 0-.022-.018-.04-.046-.063-.063-.068-.107-.16-.187-.25-.281-.046-.068-.101-.125-.156-.187-.063-.101-.138-.191-.219-.282a2.23 2.23 0 0 0-.469-.531c-.005-.005-.026.005-.03 0-.005-.008.003-.024 0-.031-.048-.067-.103-.125-.157-.188-.085-.127-.172-.262-.281-.375a2.702 2.702 0 0 0-.188-.218 2.833 2.833 0 0 0-.312-.375c-.032-.039-.092-.057-.125-.094-.066-.09-.142-.166-.22-.25-.06-.085-.116-.17-.187-.25-.069-.096-.17-.161-.25-.25-.702-.96-1.942-1.625-3.406-1.625H126.66z"/><path d="M151.41 197.5h48.969v44.938c0 1.295-1.048 2.375-2.344 2.375h-48.938v-44.938c0-1.295 1.018-2.375 2.313-2.375zM8.563 229.16c-2.22 0-4.032 1.464-4.032 3.281v27.156c0 .968.536 1.839 1.344 2.438.1.09.201.17.313.25.086.076.185.15.28.218.1.088.203.173.313.25.062.054.122.108.188.157.122.115.262.215.406.312.022.02.04.044.063.063.06.038.124.058.187.093.024.017.038.047.063.063.074.064.136.13.218.187.087.079.183.15.282.22.013.017.017.044.03.062.018.014.046.017.063.03.037.042.054.088.094.126.044.06.074.132.125.187.075.113.183.215.281.313.024.032.037.062.063.094.026.023.066.04.094.062.024.027.036.068.062.094.023.03.038.064.063.093.027.025.064.04.093.063.024.026.038.069.063.094.024.032.037.062.062.093.037.034.086.062.125.094.015.016.016.047.032.063.022.03.038.064.062.093.038.036.084.06.125.094.014.015.017.047.031.062.05.067.1.126.157.188.083.12.176.236.28.344.024.03.04.064.063.093.051.048.102.08.157.125.005.005-.006.026 0 .032.067.088.14.168.218.25.04.053.081.105.125.156.08.114.184.208.282.312.072.096.135.193.218.282.023.03.039.064.063.093.079.079.162.147.25.22.733.736 1.837 1.218 3.094 1.218h90.094c2.218 0 4-1.465 4-3.281V238.44c0-.968-.505-1.839-1.313-2.438-.1-.082-.201-.177-.312-.25-.036-.03-.088-.034-.125-.062-.017-.014-.015-.049-.032-.063-.016-.015-.045-.016-.062-.031-.018-.014-.045-.018-.063-.031-.011-.007-.019-.024-.03-.031-.053-.044-.101-.085-.157-.125-.05-.042-.103-.087-.156-.125-.03-.024-.095-.008-.125-.032-.014-.016-.018-.046-.031-.062-.053-.044-.1-.085-.157-.125-.057-.048-.094-.113-.156-.156-.047-.039-.106-.059-.156-.094-.01-.008-.021-.023-.031-.031-.006-.005-.026.005-.032 0-.012-.008-.019-.024-.03-.031-.024-.018-.04-.047-.063-.063-.05-.04-.103-.088-.157-.125-.014-.015-.047-.017-.062-.031-.012-.007-.02-.025-.031-.031-.067-.06-.144-.105-.219-.157-.049-.04-.103-.089-.156-.125l-.063-.03c-.007-.005-.024.003-.03 0-.022-.027-.04-.07-.063-.095-.053-.042-.098-.087-.157-.125-.029-.023-.062-.04-.093-.062a1.416 1.416 0 0 0-.344-.219 1.154 1.154 0 0 0-.156-.125c-.042-.039-.076-.092-.125-.125-.053-.052-.121-.084-.188-.125-.055-.053-.116-.086-.187-.125a.775.775 0 0 0-.125-.094c-.007-.013-.024-.018-.032-.03-.016-.038-.043-.058-.062-.094-.003-.008.004-.023 0-.032l-.031-.03a1.776 1.776 0 0 0-.063-.126c-.034-.078-.08-.146-.125-.219-.04-.078-.074-.145-.125-.218-.005-.006.005-.026 0-.032-.022-.044-.068-.082-.093-.125-.007-.013-.025-.018-.032-.03a2.141 2.141 0 0 0-.062-.126 2.39 2.39 0 0 0-.094-.187c-.016-.034-.044-.06-.062-.094-.036-.077-.082-.145-.125-.219-.007-.013-.025-.018-.032-.03-.017-.03-.012-.067-.03-.095-.021-.04-.04-.085-.063-.125-.024-.045-.068-.08-.094-.125-.023-.045-.068-.08-.094-.125-.022-.03-.039-.064-.062-.093-.013-.02-.018-.044-.031-.063-.029-.043-.063-.083-.094-.125-.7-.952-1.945-1.594-3.406-1.594H8.564zM244.78 229.16c-2.219 0-4 1.464-4 3.281v27.156c0 1.669 1.504 3.038 3.469 3.25.024.034.069.063.093.063 0 .048.08.077.188.125.046.099.078.156.125.156 0 .045.073.112.188.156.048.09.075.156.125.156 0 .033.051.062.125.094.065.132.15.188.218.188 0 .022.053.04.094.062.078.153.139.25.219.25 0 .021.05.042.093.063.083.142.134.25.22.25 0 .011.046.02.062.03.082.133.164.237.25.25.1.163.208.299.312.313.048.07.076.145.125.188.023.105.062.207.094.312v.094c0 1.817 1.781 3.281 4 3.281h90.125c2.218 0 4-1.464 4-3.28V238.44c0-.967-.504-1.838-1.313-2.437-.027-.023-.065-.041-.093-.063-.024-.017-.038-.046-.063-.062-.027-.026-.065-.038-.094-.063-.022-.017-.04-.046-.062-.062-.025-.02-.068-.012-.094-.032-.045-.04-.077-.087-.125-.125-.078-.07-.163-.124-.25-.187-.016-.014-.045-.018-.062-.031-.08-.073-.16-.155-.25-.22-.018-.014-.044-.016-.063-.03a2.65 2.65 0 0 0-.187-.157c-.068-.059-.144-.103-.219-.156-.039-.032-.084-.064-.125-.094l-.031-.03c-.05-.041-.103-.089-.156-.126-.018-.014-.044-.017-.063-.03-.073-.07-.165-.13-.25-.188-.005-.006-.026.006-.031 0-.018-.012-.045-.02-.063-.032-.027-.033-.062-.062-.093-.093-.043-.028-.08-.07-.125-.094a1.754 1.754 0 0 0-.125-.094 1.448 1.448 0 0 0-.157-.125c-.099-.089-.186-.187-.312-.25-.045-.04-.105-.06-.156-.093-.042-.04-.076-.092-.125-.125a1.04 1.04 0 0 0-.157-.125.865.865 0 0 0-.218-.157c-.033-.027-.087-.04-.125-.062-.023-.025-.035-.042-.063-.063a.485.485 0 0 0-.281-.218c-.038-.036-.071-.076-.125-.094a.223.223 0 0 0-.125-.094.406.406 0 0 0-.063-.094c-.02-.05-.024-.106-.062-.156a.84.84 0 0 0-.094-.187c-.007-.022-.023-.04-.031-.063-.196-1.665-1.882-2.969-3.969-2.969H244.78zM8.563 282.88c-2.22 0-4.032 1.464-4.032 3.281v27.188c0 .755.325 1.447.844 2 .068.086.172.14.25.219.034.03.059.065.094.094.03.034.062.06.094.093.033.03.058.065.093.094.03.033.063.062.094.094.035.03.058.064.094.093l.031.032c.022.02.04.042.063.062.005.007-.006.025 0 .031.033.03.058.065.093.094.02.022.043.041.063.063.009.011.022.02.031.03.038.034.085.062.125.094.03.033.063.063.094.094.033.03.059.065.094.094.03.034.061.06.093.094.034.03.06.065.094.093.03.033.063.062.094.094.035.03.057.064.094.094.028.031.064.062.093.093.04.035.053.092.094.125.005.005.027-.005.031 0 .011.01.02.023.032.032.014.018.016.044.03.062.039.034.086.061.126.094.03.032.063.062.094.093.032.03.06.066.093.094.03.034.062.061.094.094.034.03.059.065.094.094.029.032.063.061.094.093.034.031.057.064.093.094.029.032.064.063.094.094.04.035.053.091.094.125.005.005.026-.005.031 0 .011.009.02.022.031.03.015.02.016.045.032.063.037.034.085.062.125.094.014.016.016.046.03.063.01.011.023.02.032.03.038.034.085.062.125.094.03.033.063.063.094.094.033.03.059.065.094.094.029.033.063.062.093.094.034.03.06.065.094.093.028.032.064.063.094.094.039.035.053.091.094.125.004.005.026-.005.03 0 .012.009.02.022.032.031.014.018.017.045.031.063.038.033.086.061.125.093.015.017.016.047.032.063.009.011.021.02.03.031.039.034.086.061.126.094.03.032.063.062.094.093.033.03.058.066.093.094.03.033.063.062.094.094.034.03.059.065.094.094.029.032.063.061.094.093.039.035.052.092.093.125.005.005.027-.005.032 0 .022.018.04.045.062.063.006.007-.005.024 0 .031.034.03.059.065.094.094.02.022.042.04.062.062.01.012.022.02.032.031.037.034.085.062.125.094.029.033.063.062.093.094.034.03.06.065.094.093.03.034.062.061.094.094.033.03.059.065.094.094.029.033.063.062.093.094.035.03.058.064.094.093l.031.031c.022.02.04.043.063.063.005.007-.006.024 0 .031l.031.031c.034.03.059.066.094.094.058.054.125.105.187.156.734.697 1.815 1.157 3.031 1.157h90.094c2.22 0 4-1.465 4-3.282v-27.188c0-.772-.333-1.472-.875-2.03-.057-.07-.123-.123-.187-.188-.028-.034-.065-.061-.094-.094-.033-.032-.059-.063-.093-.094-.027-.032-.066-.062-.094-.093-.032-.031-.06-.064-.094-.094-.031-.038-.091-.057-.125-.094-.036-.035-.055-.091-.093-.125-.03-.035-.064-.06-.094-.094-.032-.03-.061-.065-.094-.093-.029-.035-.063-.06-.094-.094-.033-.032-.059-.063-.093-.094-.028-.033-.065-.06-.094-.093-.033-.032-.059-.063-.094-.094-.027-.033-.065-.062-.093-.094-.032-.03-.06-.064-.094-.093-.031-.039-.092-.057-.125-.094-.026-.025-.035-.07-.063-.094-.035-.043-.086-.083-.125-.125-.031-.03-.06-.065-.093-.094-.029-.034-.064-.06-.094-.093-.031-.03-.061-.065-.094-.094-.028-.035-.063-.06-.093-.094-.034-.031-.06-.063-.094-.093-.027-.033-.065-.062-.094-.094-.033-.032-.059-.063-.093-.094-.027-.032-.066-.062-.094-.093-.031-.03-.062-.065-.094-.094-.036-.044-.086-.083-.125-.125-.031-.03-.061-.065-.094-.094-.028-.035-.063-.06-.093-.094-.032-.03-.061-.065-.094-.093-.029-.035-.063-.06-.094-.094-.033-.032-.059-.063-.093-.094-.027-.032-.066-.062-.094-.093-.033-.032-.06-.063-.094-.094-.027-.033-.065-.062-.093-.094-.031-.03-.062-.064-.094-.093-.036-.044-.087-.083-.125-.125-.032-.03-.061-.065-.094-.094-.029-.035-.063-.06-.094-.094-.031-.03-.06-.065-.093-.094-.029-.034-.064-.06-.094-.093-.033-.032-.059-.063-.094-.094-.027-.033-.065-.062-.093-.094-.034-.031-.06-.063-.094-.093-.027-.033-.065-.062-.094-.094-.03-.03-.061-.065-.093-.094-.036-.043-.087-.083-.125-.125-.032-.03-.062-.065-.094-.093-.029-.035-.064-.06-.094-.094-.031-.03-.061-.065-.094-.094-.028-.035-.063-.06-.093-.094-.034-.031-.06-.063-.094-.093-.028-.034-.064-.061-.094-.094-.033-.032-.059-.063-.093-.094-.027-.032-.066-.062-.094-.093-.032-.031-.06-.064-.094-.094-.031-.038-.091-.057-.125-.094-.036-.035-.055-.091-.093-.125-.03-.035-.064-.06-.094-.093-.063-.06-.12-.132-.188-.188-.733-.7-1.81-1.156-3.03-1.156H8.564zM126.66 282.88c-2.219 0-4 1.464-4 3.281v27.188c0 .755.325 1.447.844 2 .068.086.172.14.25.219.033.03.059.065.093.094.03.034.062.06.094.093.034.03.059.065.094.094.03.033.063.062.094.094.034.03.057.064.093.093.01.011.022.021.031.032.022.02.04.042.063.062.005.007-.006.025 0 .031.034.03.059.065.094.094.02.022.042.041.062.063l.031.03c.038.034.086.062.125.094.015.017.016.047.032.063.009.011.021.02.03.031.04.035.085.06.126.094.03.032.063.062.093.094.034.03.06.065.094.093.03.033.063.062.094.094.034.03.059.065.094.094.029.032.063.062.093.093.04.035.053.092.094.125.005.005.026-.005.031 0 .023.018.04.045.063.063.005.007-.006.024 0 .031.033.03.058.065.093.094.02.022.043.04.063.062.009.012.022.02.031.031.038.034.085.062.125.094.03.033.063.062.094.094.033.03.059.065.093.094.03.032.064.061.094.093.034.03.059.065.094.094.03.033.063.062.094.094.039.035.052.091.093.125.005.005.027-.005.031 0 .023.018.04.045.063.062.005.007-.006.025 0 .031.034.03.059.065.094.094.02.022.042.041.062.063l.031.03c.038.034.086.062.125.094.03.033.063.063.094.094.034.03.059.065.094.094.029.033.063.062.093.094.034.03.06.065.094.093.03.033.063.062.094.094.039.035.053.091.094.125.005.005.026-.005.03 0 .023.018.04.045.063.062.052.064.1.128.156.188l.032.031c.038.034.085.061.125.094.03.032.063.062.093.094.034.03.06.065.094.093.03.033.063.062.094.094.033.03.059.065.093.094.07.067.112.156.188.218.005.005.026-.005.031 0 .023.019.04.045.063.063.005.007-.006.024 0 .031.033.03.058.065.093.094.02.022.043.04.063.062.009.012.022.02.031.032.038.033.086.06.125.093.03.033.063.062.094.094.034.03.059.065.094.094.03.034.061.06.093.093.034.03.059.065.094.094.03.033.063.062.094.094.034.03.057.064.093.093l.032.032c.021.02.04.042.062.062.005.007-.006.025 0 .031l.031.032c.034.028.06.065.094.093.058.055.125.105.187.156.734.697 1.784 1.157 3 1.157h90.125c2.219 0 4-1.465 4-3.282v-27.188c0-.772-.333-1.472-.875-2.03-.057-.07-.123-.122-.187-.188-.028-.034-.065-.061-.094-.094-.033-.032-.059-.063-.093-.094-.027-.032-.066-.062-.094-.093-.032-.031-.06-.064-.094-.094-.031-.038-.092-.057-.125-.094-.036-.035-.055-.091-.094-.125-.028-.035-.063-.06-.093-.093-.032-.03-.061-.065-.094-.094-.029-.035-.063-.06-.094-.094-.033-.032-.059-.063-.093-.094-.028-.033-.065-.06-.094-.093-.033-.032-.06-.063-.094-.094-.027-.033-.065-.062-.094-.094-.032-.03-.06-.064-.093-.093-.032-.038-.092-.057-.125-.094-.031-.03-.062-.065-.094-.094-.032-.04-.06-.086-.094-.125-.031-.03-.06-.065-.093-.093-.029-.035-.064-.06-.094-.094-.032-.03-.06-.064-.094-.094-.028-.034-.064-.06-.093-.094-.034-.031-.06-.063-.094-.093-.027-.033-.066-.062-.094-.094-.032-.03-.06-.064-.094-.094-.03-.038-.091-.056-.125-.093-.03-.03-.061-.065-.093-.094-.033-.04-.06-.087-.094-.125-.031-.03-.061-.065-.094-.094-.028-.035-.063-.06-.093-.093-.033-.031-.06-.065-.094-.094-.028-.034-.065-.061-.094-.094-.033-.032-.059-.063-.093-.094-.027-.032-.066-.061-.094-.093-.032-.031-.06-.064-.094-.094-.031-.038-.092-.057-.125-.094-.03-.03-.061-.065-.094-.093-.032-.04-.059-.087-.093-.125-.032-.03-.061-.065-.094-.094-.029-.035-.063-.06-.094-.094-.032-.03-.06-.064-.093-.093-.028-.034-.065-.061-.094-.094-.033-.032-.059-.063-.094-.094-.027-.033-.065-.062-.093-.094-.032-.03-.06-.064-.094-.093-.032-.038-.092-.057-.125-.094-.026-.025-.035-.07-.063-.094-.036-.043-.086-.083-.125-.125-.031-.03-.06-.065-.093-.093-.029-.035-.064-.06-.094-.094-.031-.03-.061-.065-.094-.094-.028-.035-.063-.06-.093-.093-.034-.032-.06-.063-.094-.094-.028-.034-.065-.061-.094-.094-.033-.032-.059-.063-.094-.094-.026-.032-.065-.061-.093-.093-.032-.031-.06-.064-.094-.094-.031-.038-.092-.057-.125-.094-.037-.035-.055-.09-.094-.125-.028-.035-.063-.06-.093-.093-.063-.06-.12-.132-.188-.188-.733-.7-1.81-1.156-3.031-1.156H126.66zM244.78 282.88c-2.219 0-4 1.464-4 3.281v27.188c0 .755.325 1.447.844 2 .054.068.127.123.187.188l.031.03c.04.036.084.061.125.095l.032.03c.02.022.042.042.062.063.034.03.059.065.094.094.03.033.063.062.094.094.033.03.058.065.093.093.02.022.043.041.063.063.05.045.072.113.125.156.02.022.042.041.062.063l.031.03c.034.03.06.066.094.095.02.021.043.04.063.062.009.012.022.02.03.031.04.035.085.06.126.094.03.032.063.062.094.094.033.03.058.065.093.093.03.033.063.062.094.094.034.03.059.065.094.094.029.033.063.062.093.093.04.035.053.092.094.125.005.005.027-.005.031 0 .023.019.04.045.063.063.005.007-.006.024 0 .031.033.03.059.065.093.094.02.022.043.04.063.062.009.012.022.02.031.032.038.033.086.06.125.093.03.033.063.062.094.094.034.03.059.065.094.094.029.032.063.062.093.093.034.03.06.065.094.094.03.033.063.062.094.094.039.035.052.091.093.125.005.005.027-.005.032 0 .022.018.04.045.062.062.005.007-.006.025 0 .031.034.03.059.066.094.094.02.022.042.041.062.063l.031.03c.038.035.086.062.125.095.03.032.063.062.094.093.034.03.059.065.094.094.03.033.063.062.094.094.033.03.058.065.093.093.03.033.063.062.094.094.04.035.053.091.094.125.005.005.026-.005.03 0 .023.018.04.045.063.063.052.063.1.127.157.187.009.011.022.02.03.031.039.034.086.062.126.094.015.016.016.046.031.062.009.012.022.02.031.032.04.035.084.06.125.093.029.032.064.064.094.094.034.03.059.065.094.094.067.064.114.158.187.219.015.016.048.015.063.03.05.046.072.114.125.157.02.022.042.041.062.062.01.012.022.02.031.032.034.03.06.065.094.093.02.022.042.041.063.063.009.011.021.02.03.031.04.035.085.06.126.094.03.032.063.062.093.093.034.03.06.066.094.094.03.033.063.062.094.094.034.03.059.065.094.094.019.021.042.04.062.062.017.015.014.048.031.063l.031.03c.023.02.04.044.063.063.015.017.047.015.062.031.004.003-.004.028 0 .032.065.058.118.133.188.187.732.67 1.779 1.094 2.969 1.094h90.125c2.218 0 4-1.464 4-3.281v-27.188c0-.772-.334-1.472-.875-2.031-.056-.068-.126-.124-.188-.188-.028-.034-.064-.06-.093-.094-.032-.03-.06-.064-.094-.093-.01-.011-.022-.02-.031-.032-.029-.024-.065-.038-.094-.062-.027-.026-.035-.069-.063-.094-.031-.038-.091-.057-.125-.093-.036-.035-.055-.092-.093-.125-.029-.035-.064-.06-.094-.094-.031-.03-.061-.065-.094-.094-.027-.034-.064-.06-.093-.094-.034-.031-.06-.063-.094-.093-.028-.034-.065-.061-.094-.094-.032-.03-.06-.064-.093-.094-.01-.01-.023-.02-.032-.03-.028-.026-.064-.04-.093-.063-.027-.026-.035-.07-.063-.094-.031-.038-.092-.057-.125-.094-.03-.03-.061-.065-.094-.093-.032-.04-.059-.087-.093-.125-.032-.03-.061-.065-.094-.094-.029-.035-.063-.06-.094-.094-.032-.03-.06-.064-.093-.094-.028-.033-.065-.06-.094-.093-.033-.032-.06-.063-.094-.094-.027-.033-.065-.062-.093-.094-.032-.03-.06-.064-.094-.093-.032-.038-.092-.057-.125-.094-.031-.03-.062-.065-.094-.094-.032-.04-.06-.086-.094-.125-.031-.03-.06-.065-.093-.093-.029-.035-.064-.06-.094-.094-.032-.03-.06-.064-.094-.094-.027-.034-.064-.06-.093-.094-.034-.031-.06-.063-.094-.093-.027-.033-.065-.062-.094-.094-.032-.03-.06-.064-.093-.094-.032-.038-.092-.056-.125-.093-.031-.03-.062-.065-.094-.094-.033-.04-.06-.087-.094-.125-.031-.03-.061-.065-.094-.094-.028-.035-.063-.06-.093-.093-.033-.031-.06-.065-.094-.094-.028-.034-.064-.061-.094-.094-.033-.032-.059-.063-.093-.094-.027-.032-.066-.061-.094-.093-.032-.031-.06-.064-.094-.094-.031-.038-.091-.057-.125-.094-.03-.03-.061-.065-.093-.093-.033-.04-.06-.087-.094-.125-.032-.03-.061-.065-.094-.094-.029-.035-.063-.06-.094-.094-.032-.03-.06-.064-.093-.093-.028-.034-.065-.061-.094-.094-.033-.032-.059-.063-.094-.094-.028-.034-.064-.06-.093-.094-.032-.03-.06-.064-.094-.093-.01-.011-.022-.02-.031-.031-.029-.025-.065-.039-.094-.063-.032-.03-.06-.064-.094-.094-.028-.033-.064-.06-.093-.093l-.063-.063c-.015-.016-.015-.046-.031-.062-.029-.035-.064-.06-.094-.094-.064-.061-.117-.13-.187-.188-.734-.7-1.811-1.156-3.032-1.156H244.78zM8.563 336.62c-2.22 0-4.032 1.464-4.032 3.281v27.156c0 .767.341 1.474.875 2.031.059.071.154.121.22.188.037.034.053.093.093.125.015.016.047.015.062.031.015.018.017.045.032.063.032.028.06.066.093.093.03.034.062.061.094.094.034.03.059.065.094.094.02.022.042.04.062.062.01.012.022.02.032.031.034.031.057.065.093.094.029.032.064.063.094.094.04.035.084.06.125.094.028.031.064.063.094.093.038.034.054.093.094.125.014.017.047.015.062.031.014.019.017.045.031.063.033.029.06.066.094.094.03.034.062.06.094.093.033.03.059.065.094.094.02.022.042.041.062.063l.031.03c.035.032.058.065.094.094.02.022.042.041.063.063.009.011.021.02.03.031.04.035.085.06.126.094.028.031.064.063.094.094.033.03.058.065.093.093.02.022.043.041.063.063.014.018.016.044.031.062.033.029.06.066.094.094.03.034.062.06.094.094.033.03.058.065.093.093.02.022.043.041.063.063.009.011.022.02.031.031.035.03.058.064.094.094.02.022.042.04.062.062.01.012.022.02.032.031.039.035.084.06.125.094.023.027.037.068.062.094.04.035.084.06.125.094.033.037.059.089.094.125.032.028.06.066.094.093.03.034.061.061.093.094.033.029.06.066.094.094.02.022.042.04.063.062.009.011.022.02.03.031.036.031.058.064.095.094.019.022.042.041.062.063l.031.03c.04.036.084.06.125.094.024.027.038.068.063.094.039.035.084.06.125.094.028.031.064.063.094.094.037.033.054.092.093.125.015.016.048.015.063.03.014.019.016.045.031.063.033.029.06.066.094.094.03.034.062.06.094.094.033.03.058.065.093.093.02.022.043.041.063.063.009.011.022.02.031.031.035.03.058.064.094.094.028.032.064.063.094.093.039.035.084.06.125.094.028.032.064.063.093.094.038.034.054.092.094.125.015.016.047.015.063.031.014.018.016.045.03.063.033.028.06.066.095.093.03.034.061.061.093.094.034.03.06.065.094.094.02.022.042.04.063.062.009.011.022.02.03.031.046.04.078.087.126.125.06.057.123.104.187.157.734.702 1.81 1.156 3.031 1.156h90.094c2.22 0 4-1.465 4-3.281v-27.156c0-.77-.337-1.474-.875-2.032-.055-.067-.126-.123-.187-.187-.031-.038-.06-.088-.094-.125-.032-.03-.06-.064-.093-.094-.028-.034-.065-.06-.094-.094-.031-.03-.061-.064-.094-.093-.032-.04-.09-.056-.125-.094-.032-.03-.06-.064-.093-.094-.028-.033-.065-.06-.094-.093-.032-.031-.06-.064-.094-.094-.028-.034-.064-.06-.094-.094-.02-.02-.04-.042-.062-.062l-.031-.031c-.032-.039-.06-.088-.094-.125-.032-.031-.06-.065-.094-.094-.027-.034-.064-.061-.093-.094-.032-.03-.062-.065-.094-.094-.033-.039-.09-.055-.125-.093-.027-.026-.035-.07-.063-.094-.031-.038-.091-.057-.125-.094-.032-.03-.06-.064-.093-.093-.028-.034-.065-.061-.094-.094l-.062-.063-.032-.03c-.032-.04-.059-.087-.093-.126-.033-.03-.06-.064-.094-.093-.028-.034-.065-.061-.094-.094-.032-.03-.06-.064-.093-.094-.028-.034-.065-.06-.094-.094-.032-.03-.06-.064-.094-.093-.009-.011-.022-.02-.031-.031-.029-.025-.064-.039-.094-.063-.032-.03-.06-.064-.093-.094-.028-.033-.065-.06-.094-.093-.032-.031-.06-.064-.094-.094-.028-.034-.064-.06-.094-.094-.02-.02-.04-.042-.062-.062-.016-.017-.015-.046-.031-.063-.028-.033-.065-.06-.094-.093-.032-.031-.06-.065-.094-.094-.027-.034-.064-.061-.093-.094-.032-.03-.06-.064-.094-.094l-.031-.03c-.029-.026-.064-.039-.094-.063-.032-.03-.06-.064-.094-.094-.027-.034-.064-.06-.093-.094-.033-.03-.06-.064-.094-.093-.028-.034-.065-.061-.094-.094l-.062-.063c-.016-.016-.016-.046-.031-.062-.028-.034-.065-.06-.094-.094-.032-.03-.06-.064-.094-.093-.028-.034-.064-.061-.094-.094-.032-.03-.06-.064-.093-.094-.01-.011-.022-.02-.031-.031-.03-.025-.065-.038-.094-.063-.032-.03-.06-.064-.094-.093-.028-.034-.064-.061-.094-.094-.032-.03-.06-.064-.093-.094-.028-.033-.065-.06-.094-.093-.021-.02-.04-.043-.062-.063l-.032-.031c-.031-.038-.06-.088-.093-.125-.033-.03-.06-.064-.094-.094-.028-.033-.065-.06-.094-.093-.031-.03-.061-.065-.093-.094-.033-.04-.09-.056-.125-.094-.033-.03-.06-.064-.094-.094-.028-.033-.065-.06-.094-.093-.064-.062-.117-.13-.187-.188-.734-.706-1.806-1.156-3.032-1.156H8.565zM126.66 336.62c-2.219 0-4 1.464-4 3.281v27.156c0 .767.34 1.474.875 2.031.058.071.154.121.219.188.038.034.054.093.093.125.015.016.048.015.063.031.014.018.016.045.031.063.033.028.06.066.094.093.03.034.062.061.094.094.033.03.058.065.093.094.02.022.043.04.063.062.009.012.022.02.03.031.036.031.059.065.095.094.028.032.064.063.093.094.04.035.084.06.125.094.024.026.038.067.063.093.043.039.08.088.125.125.029.032.063.063.094.094.032.029.06.066.093.094.03.034.062.06.094.093.033.03.06.066.094.094.03.034.062.06.093.094.035.03.058.064.094.093.02.022.042.041.063.063.009.011.022.02.03.031.036.03.058.064.094.094.029.032.065.063.094.094.04.035.084.06.125.093.033.037.059.09.094.125.033.029.06.066.094.094.03.034.061.06.093.094.033.028.06.066.094.093.03.034.062.061.094.094.034.03.057.064.093.094.02.022.043.04.063.062.009.012.022.02.031.031.035.031.058.065.094.094.028.032.064.063.093.094.04.035.084.06.125.094.034.037.059.089.094.125.033.028.06.066.094.093.03.034.062.061.094.094.032.029.06.066.093.094.03.034.062.06.094.093.035.031.058.064.094.094.02.022.042.041.062.063l.031.03c.035.032.058.065.094.094.028.032.064.063.094.094.039.035.084.06.125.094.028.031.064.063.093.094.038.033.055.092.094.125.015.016.048.015.063.03.014.019.016.045.03.063.034.029.06.066.095.094.03.034.061.06.093.094.034.03.059.065.094.093.02.022.042.041.062.063l.032.031c.034.03.057.064.093.094.029.032.064.063.094.093.04.035.084.06.125.094.028.032.064.063.094.094.038.034.054.092.093.125.015.016.048.015.063.031.014.018.016.045.031.063.033.028.06.066.094.093.03.034.062.061.094.094.033.03.058.065.093.094.02.022.043.04.063.062.056.051.096.108.156.156.06.057.123.104.188.157.733.702 1.778 1.156 3 1.156h90.125c2.218 0 4-1.465 4-3.281v-27.156c0-.77-.338-1.474-.875-2.032-.056-.067-.127-.123-.188-.187-.031-.038-.06-.088-.094-.125-.032-.03-.06-.064-.093-.094-.028-.033-.065-.06-.094-.093-.031-.03-.061-.065-.094-.094-.032-.04-.09-.056-.125-.094-.032-.03-.06-.064-.093-.094-.028-.033-.065-.06-.094-.093-.032-.031-.06-.064-.094-.094-.028-.034-.064-.06-.094-.094-.02-.02-.04-.042-.062-.062l-.031-.031c-.032-.038-.06-.088-.094-.125-.032-.031-.06-.064-.094-.094-.028-.034-.064-.061-.093-.094-.032-.03-.062-.065-.094-.093-.033-.04-.09-.056-.125-.094-.032-.03-.06-.064-.094-.094-.028-.034-.064-.06-.094-.094-.032-.03-.06-.064-.093-.093-.028-.034-.065-.061-.094-.094-.021-.02-.04-.042-.062-.062l-.032-.032c-.031-.038-.06-.088-.093-.125-.033-.03-.06-.064-.094-.093-.028-.034-.065-.061-.094-.094-.03-.03-.061-.065-.093-.094-.033-.04-.09-.055-.125-.093-.033-.031-.06-.065-.094-.094-.029-.035-.064-.06-.094-.094-.032-.03-.06-.064-.094-.094-.027-.033-.064-.06-.093-.093-.034-.032-.06-.063-.094-.094-.027-.033-.065-.062-.094-.094-.037-.036-.054-.09-.093-.125-.028-.033-.065-.06-.094-.093-.031-.03-.061-.065-.094-.094-.032-.04-.09-.056-.125-.094-.032-.03-.06-.064-.093-.093-.03-.035-.064-.06-.094-.094-.032-.03-.06-.064-.094-.094-.028-.034-.064-.06-.094-.094-.033-.031-.059-.063-.093-.093-.027-.033-.066-.062-.094-.094-.038-.036-.054-.09-.094-.125-.027-.034-.064-.06-.093-.094-.032-.03-.062-.064-.094-.093-.033-.04-.09-.056-.125-.094-.027-.026-.035-.069-.063-.094-.032-.04-.09-.055-.125-.093-.032-.031-.06-.065-.093-.094-.028-.034-.065-.061-.094-.094-.032-.03-.06-.064-.094-.094-.027-.033-.064-.06-.093-.093-.022-.02-.04-.043-.063-.063l-.031-.031c-.031-.038-.06-.088-.094-.125-.032-.03-.06-.064-.093-.094-.028-.033-.065-.06-.094-.093-.031-.03-.061-.065-.094-.094-.032-.04-.09-.056-.125-.094-.032-.03-.06-.064-.094-.093-.027-.034-.064-.061-.093-.094-.065-.062-.118-.13-.188-.188-.733-.706-1.805-1.156-3.03-1.156H126.66zM244.78 336.62c-2.219 0-4 1.464-4 3.281v27.156c0 .767.34 1.474.875 2.031.054.066.128.126.188.188.043.039.08.088.125.125.028.031.063.063.093.094.033.028.06.066.094.093.03.034.062.061.094.094.032.029.06.066.093.094.03.034.062.06.094.093.035.031.058.065.094.094.028.032.064.063.093.094.035.03.058.064.094.094.028.031.064.062.094.093.043.039.08.088.125.125.029.032.063.063.094.094.032.029.06.066.093.094.03.034.062.06.094.093.033.03.06.066.094.094.03.034.062.06.093.094.035.03.058.064.094.093.02.022.042.041.063.063.009.011.022.02.03.031.036.03.058.064.094.094.029.032.065.063.094.094.04.035.084.06.125.093.033.037.059.09.094.125.033.029.06.066.094.094.03.034.061.06.093.094.033.028.06.066.094.093.03.034.062.061.094.094.034.03.057.064.093.094.02.022.043.04.063.062.009.012.022.02.031.031.035.031.058.065.094.094.028.032.064.063.093.094.04.035.084.06.125.094.034.037.059.089.094.125.033.028.06.066.094.093.03.034.062.061.094.094.032.029.06.066.093.094.03.034.062.06.094.093.035.031.058.064.094.094.02.022.042.041.062.063.062.077.15.146.219.218.04.035.084.06.125.094.024.026.038.068.062.094.043.038.08.088.125.125l.094.093c.033.03.06.066.094.094.03.034.062.061.093.094.033.029.06.066.094.093.03.034.062.061.094.094.035.031.057.064.094.094.028.032.064.063.093.094.035.03.058.064.094.093.028.032.064.063.094.094.043.039.08.088.125.125.028.031.063.063.093.094.033.028.06.066.094.093.03.034.062.061.094.094.032.029.06.066.093.094.067.063.116.128.188.187.067.064.115.128.187.188.734.71 1.801 1.156 3.032 1.156h90.125c2.218 0 4-1.464 4-3.281v-27.156c0-.77-.338-1.473-.875-2.031-.054-.066-.129-.126-.188-.188-.031-.038-.06-.088-.094-.125-.03-.03-.06-.065-.093-.094-.033-.04-.09-.055-.125-.093-.026-.025-.036-.07-.063-.094-.032-.04-.09-.056-.125-.094-.032-.03-.06-.064-.093-.093-.028-.034-.065-.061-.094-.094-.032-.03-.06-.064-.094-.094-.027-.033-.065-.062-.094-.094-.032-.03-.06-.064-.093-.093-.032-.038-.06-.088-.094-.125-.031-.03-.061-.065-.094-.094-.032-.04-.09-.055-.125-.094-.026-.024-.035-.07-.062-.093-.033-.04-.09-.056-.125-.094-.032-.03-.06-.064-.094-.094-.028-.033-.064-.06-.094-.093-.032-.031-.06-.065-.093-.094-.028-.034-.065-.061-.094-.094-.021-.02-.04-.042-.062-.062l-.032-.032c-.031-.038-.06-.088-.093-.125-.033-.03-.06-.064-.094-.093-.028-.034-.065-.061-.094-.094-.03-.03-.061-.065-.093-.094-.033-.04-.09-.055-.125-.093-.033-.031-.06-.064-.094-.094-.029-.035-.064-.06-.094-.094-.032-.03-.06-.064-.094-.093-.027-.034-.064-.061-.093-.094-.034-.032-.06-.063-.094-.094-.027-.033-.065-.062-.094-.094-.037-.036-.054-.09-.093-.125-.028-.033-.065-.06-.094-.093-.031-.03-.061-.065-.094-.094-.032-.04-.09-.055-.125-.094-.032-.03-.06-.064-.093-.093-.03-.035-.064-.06-.094-.094-.032-.03-.06-.064-.094-.094-.028-.033-.064-.06-.094-.093-.033-.032-.059-.063-.093-.094-.027-.033-.066-.062-.094-.094-.038-.036-.054-.09-.094-.125-.027-.034-.064-.06-.093-.094-.032-.03-.062-.064-.094-.093-.033-.04-.09-.056-.125-.094-.032-.03-.06-.064-.094-.094-.028-.035-.063-.06-.093-.093-.033-.031-.06-.064-.094-.094-.028-.034-.065-.06-.094-.094-.033-.032-.059-.063-.094-.093-.026-.033-.065-.062-.093-.094-.032-.03-.06-.064-.094-.094-.031-.038-.06-.088-.094-.125-.03-.03-.06-.065-.093-.094-.033-.039-.09-.055-.125-.093-.032-.03-.061-.065-.094-.094-.029-.035-.063-.06-.094-.094-.032-.03-.06-.064-.093-.093-.028-.034-.065-.061-.094-.094-.067-.064-.115-.128-.188-.188-.733-.706-1.805-1.156-3.03-1.156H244.78zM8.563 390.34c-2.22 0-4.032 1.464-4.032 3.281v27.188c0 .755.325 1.447.844 2 .068.086.172.14.25.219.034.03.059.065.094.094.03.034.062.06.094.093.033.03.058.065.093.094.03.033.063.062.094.094.035.03.058.064.094.093.028.032.064.063.094.094.039.035.052.092.093.125.005.005.027-.005.032 0l.03.031c.015.019.017.045.032.063.038.034.085.061.125.094.03.032.063.062.094.093.032.03.06.066.094.094.03.034.061.06.093.094.034.03.06.065.094.093.03.033.063.062.094.094.035.03.057.064.094.094.028.032.064.063.093.093.04.035.053.092.094.125.005.005.027-.005.031 0 .011.01.02.023.032.032.014.018.016.044.03.062.039.034.086.061.126.094.03.032.063.062.094.094.032.028.06.066.093.093.03.034.062.061.094.094.034.03.059.065.094.094.029.032.063.062.094.093.034.031.057.064.093.094.029.032.064.063.094.094.04.035.053.091.094.125.005.005.026-.005.031 0 .011.009.02.022.031.031.015.019.016.044.032.062.037.034.085.062.125.094.014.016.016.047.03.063.01.011.023.02.032.03.038.035.085.062.125.095.03.032.063.062.094.093.033.03.059.065.094.094.029.033.063.062.093.094.034.03.06.065.094.093.028.032.064.063.094.094.039.035.053.091.094.125.004.005.026-.005.03 0 .012.01.02.022.032.031.014.018.017.045.031.063.038.033.086.061.125.093.015.017.016.047.032.063.009.011.021.02.03.031.039.034.086.061.126.094.03.032.063.062.094.094.033.03.058.065.093.093.03.034.062.061.094.094.034.03.059.065.094.094.029.032.063.062.094.093.034.031.057.064.093.094l.032.031c.021.02.04.043.062.063.006.007-.005.024 0 .031.034.03.059.065.094.094.02.022.042.04.062.062.01.012.022.02.032.031.037.034.085.062.125.094.029.033.063.062.093.094.034.03.06.065.094.093.03.034.062.061.094.094.033.03.059.065.094.094.029.033.063.062.093.094.035.03.058.064.094.093l.031.031c.022.02.04.043.063.063.005.007-.006.024 0 .031l.031.031c.034.03.059.066.094.094.058.054.125.105.187.156.734.697 1.815 1.157 3.031 1.157h90.094c2.22 0 4-1.465 4-3.282v-27.188c0-.772-.333-1.472-.875-2.03-.057-.07-.123-.123-.187-.188-.028-.034-.065-.061-.094-.094-.033-.032-.059-.063-.093-.094-.027-.032-.066-.062-.094-.093-.032-.031-.06-.064-.094-.094-.031-.038-.091-.057-.125-.094-.036-.035-.055-.091-.093-.125-.03-.035-.064-.06-.094-.094-.032-.03-.061-.065-.094-.093-.029-.035-.063-.06-.094-.094-.033-.032-.059-.063-.093-.094-.028-.033-.065-.06-.094-.093-.033-.032-.059-.063-.094-.094-.027-.033-.065-.062-.093-.094-.032-.03-.06-.064-.094-.093-.031-.039-.092-.057-.125-.094-.06-.079-.12-.145-.188-.219-.031-.03-.06-.065-.093-.094-.029-.035-.064-.06-.094-.093-.032-.031-.06-.064-.094-.094-.028-.035-.063-.06-.093-.094-.034-.032-.06-.063-.094-.093-.027-.033-.065-.062-.094-.094-.033-.032-.059-.063-.093-.094-.027-.033-.066-.062-.094-.094-.031-.03-.062-.064-.094-.093-.036-.044-.086-.083-.125-.125-.031-.03-.061-.065-.094-.094-.028-.035-.063-.06-.093-.094-.032-.03-.061-.065-.094-.093-.029-.035-.063-.06-.094-.094-.033-.032-.059-.063-.093-.094-.027-.032-.066-.062-.094-.093-.033-.032-.06-.063-.094-.094-.027-.033-.065-.062-.093-.094-.031-.03-.062-.065-.094-.094-.036-.043-.087-.082-.125-.125-.032-.03-.061-.065-.094-.093-.029-.035-.063-.06-.094-.094-.031-.03-.06-.065-.093-.094-.029-.035-.064-.06-.094-.093-.033-.032-.059-.063-.094-.094-.027-.033-.065-.062-.093-.094-.034-.032-.06-.063-.094-.093-.027-.033-.065-.062-.094-.094-.03-.03-.061-.065-.093-.094-.036-.043-.087-.083-.125-.125-.032-.03-.062-.065-.094-.094-.029-.034-.064-.06-.094-.093-.031-.03-.061-.065-.094-.094-.028-.035-.063-.06-.093-.094-.034-.031-.06-.063-.094-.093-.027-.033-.065-.062-.094-.094-.033-.032-.059-.063-.093-.094-.027-.032-.066-.062-.094-.093-.031-.03-.062-.065-.094-.094-.036-.044-.086-.083-.125-.125-.031-.03-.06-.065-.093-.094-.03-.035-.064-.06-.094-.094-.063-.059-.12-.131-.188-.187-.733-.7-1.81-1.156-3.03-1.156H8.564zM126.66 390.34c-2.219 0-4 1.464-4 3.281v27.188c0 .755.325 1.447.844 2 .068.086.172.14.25.219.033.03.059.065.093.094.03.034.062.06.094.093.034.03.059.065.094.094.03.033.063.062.094.094.034.03.057.064.093.093.029.032.064.063.094.094.04.035.053.092.094.125.005.005.026-.005.03 0 .012.01.02.022.032.031.015.019.016.045.031.063.038.034.086.061.125.094.015.016.016.046.031.062.01.012.022.02.032.031.038.034.085.062.125.094.029.032.063.062.093.094.034.03.06.065.094.093.03.033.063.062.094.094.033.03.059.065.093.094.03.033.064.062.094.093.04.035.053.092.094.125.005.005.026-.005.031 0 .022.019.04.045.063.063.005.007-.006.024 0 .031.033.03.058.065.093.094.02.022.043.04.063.062.009.012.022.02.03.032.039.033.086.06.126.093.03.033.063.062.094.094.033.03.058.065.093.094.03.032.063.062.094.093.034.03.059.065.094.094.029.033.063.062.093.094.04.035.053.091.094.125.005.005.027-.005.031 0 .023.018.04.045.063.062.005.007-.006.025 0 .031.034.03.059.066.094.094.019.022.042.041.062.063.009.011.022.02.031.03.038.035.086.062.125.095.03.032.063.062.094.093.034.03.059.065.094.094.029.033.063.062.093.094.034.03.06.065.094.093.03.033.063.062.094.094.039.035.052.091.093.125.005.005.027-.005.032 0 .022.018.04.045.062.063.051.063.1.127.156.187.01.012.022.02.032.031.037.034.085.062.125.094.029.032.063.062.093.094.034.03.06.065.094.093.03.034.062.061.094.094.033.03.058.065.093.094.067.063.116.128.188.187l.031.031c.022.02.04.043.063.063.005.007-.006.024 0 .031.033.03.058.065.093.094.02.022.043.04.063.062.009.012.022.02.031.032.038.033.085.06.125.093.03.033.063.062.094.094.033.03.059.065.093.094.03.034.062.06.094.093.034.03.059.065.094.094.029.033.063.062.094.094.034.03.057.064.093.093.01.011.022.021.031.032.022.02.04.042.063.062.005.007-.006.025 0 .031l.031.032c.034.028.059.065.094.093.058.055.125.105.187.157.734.696 1.784 1.156 3 1.156h90.125c2.219 0 4-1.465 4-3.281v-27.188c0-.773-.333-1.473-.875-2.032-.057-.07-.124-.121-.187-.187-.028-.034-.065-.061-.094-.094-.033-.032-.059-.063-.094-.094-.026-.032-.065-.061-.093-.093-.032-.031-.06-.064-.094-.094-.031-.038-.092-.057-.125-.094-.037-.035-.055-.091-.094-.125-.028-.035-.063-.06-.093-.093-.032-.03-.061-.065-.094-.094-.029-.035-.063-.06-.094-.094-.033-.032-.059-.063-.093-.093-.028-.034-.065-.061-.094-.094-.034-.032-.06-.063-.094-.094-.027-.033-.065-.062-.094-.094-.032-.03-.06-.064-.093-.093-.032-.038-.092-.057-.125-.094-.037-.035-.056-.091-.094-.125-.029-.035-.063-.06-.094-.094-.031-.03-.06-.065-.093-.093-.03-.035-.064-.06-.094-.094-.033-.032-.06-.063-.094-.094-.028-.033-.064-.06-.094-.093-.033-.032-.059-.063-.093-.094-.027-.033-.066-.062-.094-.094-.032-.03-.06-.064-.094-.094-.031-.038-.091-.056-.125-.093-.03-.03-.061-.065-.093-.094-.033-.04-.06-.087-.094-.125-.031-.03-.061-.065-.094-.094-.028-.035-.063-.06-.093-.093-.033-.031-.06-.064-.094-.094-.028-.034-.065-.061-.094-.094-.033-.032-.059-.063-.094-.093-.026-.033-.065-.062-.093-.094-.032-.031-.06-.064-.094-.094-.031-.038-.092-.057-.125-.094-.03-.03-.061-.065-.094-.093-.032-.04-.059-.087-.093-.125-.032-.03-.061-.065-.094-.094-.029-.035-.063-.06-.094-.094-.032-.03-.06-.064-.093-.093-.028-.034-.065-.061-.094-.094-.033-.032-.06-.063-.094-.094-.027-.032-.065-.062-.094-.093-.032-.031-.06-.064-.093-.094-.032-.038-.092-.057-.125-.094-.027-.025-.036-.07-.063-.094-.036-.043-.086-.082-.125-.125-.031-.03-.06-.065-.093-.093-.03-.035-.064-.06-.094-.094-.032-.03-.061-.065-.094-.094-.029-.035-.063-.06-.094-.093-.033-.032-.059-.063-.093-.094-.027-.033-.066-.062-.094-.094-.033-.032-.059-.063-.094-.093-.027-.033-.065-.062-.093-.094-.031-.03-.062-.065-.094-.094-.036-.043-.087-.083-.125-.125-.031-.03-.061-.065-.094-.094-.028-.034-.063-.06-.093-.093-.063-.06-.12-.132-.188-.188-.733-.7-1.81-1.156-3.031-1.156H126.66zM244.78 390.34c-2.219 0-4 1.464-4 3.281v27.188c0 .755.325 1.447.844 2 .054.068.127.123.187.188l.031.03c.04.036.084.061.125.095l.032.03c.02.022.042.042.062.063.034.03.059.065.094.094.03.033.063.062.094.094.033.03.058.065.093.093.03.033.063.062.094.094.04.035.053.092.094.125.005.005.026-.005.03 0 .023.018.04.045.063.063.005.007-.006.024 0 .03.034.03.06.066.094.095l.063.062c.009.012.021.02.03.031.039.034.086.062.126.094.03.032.063.062.093.094.034.03.06.065.094.093.03.033.063.062.094.094.034.03.059.065.094.094.029.033.063.062.093.093.04.035.053.092.094.125.005.005.026-.005.031 0 .023.019.04.045.063.063.005.007-.006.024 0 .031.033.03.058.065.093.094.02.022.043.04.063.062.009.012.022.02.031.032.038.033.085.06.125.093.03.033.063.062.094.094.033.03.059.065.093.094.03.032.064.062.094.093.034.03.059.065.094.094.03.033.063.062.094.094.039.035.052.091.093.125.005.005.027-.005.031 0 .023.018.04.045.063.062.005.007-.006.025 0 .031.034.03.059.066.094.094.02.022.042.041.062.063l.031.03c.038.035.086.062.125.095.03.032.063.062.094.093.034.03.059.065.094.094.029.033.063.062.093.094.034.03.06.065.094.093.03.033.063.062.094.094.04.035.053.091.094.125.005.005.026-.005.03 0 .023.018.04.045.063.063.052.063.1.127.157.187.009.011.022.02.03.031.039.034.086.062.126.094.014.016.016.046.03.062.01.012.023.02.032.032.04.035.084.06.125.093.03.033.063.063.094.094.034.03.059.065.094.094.064.061.117.13.187.187.02.022.042.041.063.063.05.045.072.113.125.156.019.022.042.041.062.062.009.012.022.02.031.032.034.03.059.065.094.093.02.022.042.041.062.063l.032.031c.039.035.084.06.125.094.029.032.063.062.093.093.034.03.06.066.094.094.03.033.063.062.094.094.033.03.059.065.093.094.02.021.043.04.063.062.017.015.014.048.031.063l.031.03c.023.02.04.044.063.063.015.017.047.015.062.031.004.003-.004.028 0 .032.065.058.118.133.188.187.732.67 1.779 1.094 2.969 1.094h90.125c2.218 0 4-1.464 4-3.281v-27.188c0-.772-.334-1.472-.875-2.031-.056-.068-.127-.124-.188-.188-.028-.034-.064-.06-.094-.094-.032-.03-.06-.064-.093-.093-.01-.011-.022-.02-.031-.032-.03-.024-.065-.038-.094-.062-.027-.026-.035-.069-.063-.094-.031-.038-.091-.057-.125-.093-.036-.035-.055-.092-.093-.125-.03-.035-.064-.06-.094-.094-.031-.03-.061-.065-.094-.094-.028-.034-.064-.06-.093-.094-.034-.031-.06-.063-.094-.093-.028-.034-.065-.061-.094-.094-.032-.03-.06-.064-.094-.094-.009-.01-.022-.02-.03-.03-.03-.026-.065-.04-.094-.063-.027-.026-.035-.07-.063-.094-.031-.038-.092-.057-.125-.094-.037-.035-.055-.091-.094-.125-.028-.035-.063-.06-.093-.093-.032-.03-.061-.065-.094-.094-.029-.035-.063-.06-.094-.094-.033-.032-.059-.063-.093-.094-.028-.033-.065-.06-.094-.093-.033-.032-.06-.063-.094-.094-.027-.033-.065-.062-.094-.094-.032-.03-.06-.064-.093-.093-.032-.038-.092-.057-.125-.094-.031-.03-.062-.065-.094-.094-.033-.04-.06-.086-.094-.125-.031-.03-.06-.065-.093-.093-.03-.035-.064-.06-.094-.094-.032-.03-.06-.064-.094-.094-.028-.034-.064-.06-.093-.094-.034-.031-.06-.063-.094-.093-.027-.033-.066-.062-.094-.094-.032-.03-.06-.064-.094-.094-.031-.038-.091-.056-.125-.093-.03-.03-.061-.065-.093-.094-.033-.04-.06-.087-.094-.125-.031-.03-.061-.065-.094-.094-.028-.035-.063-.06-.093-.093-.033-.031-.06-.065-.094-.094-.028-.034-.065-.061-.094-.094-.033-.032-.059-.063-.093-.094-.027-.032-.066-.061-.094-.093-.032-.031-.06-.064-.094-.094-.031-.038-.092-.057-.125-.094-.03-.03-.061-.065-.094-.093-.032-.04-.059-.087-.093-.125-.032-.03-.061-.065-.094-.094-.029-.035-.063-.06-.094-.094-.032-.03-.06-.064-.093-.093-.028-.034-.065-.061-.094-.094-.033-.032-.06-.063-.094-.094-.027-.033-.065-.062-.093-.094-.033-.03-.06-.064-.094-.093-.032-.038-.092-.057-.125-.094-.031-.03-.062-.065-.094-.094-.033-.04-.06-.086-.094-.125-.031-.03-.06-.065-.093-.093-.029-.035-.064-.06-.094-.094-.065-.061-.118-.13-.188-.188-.733-.7-1.81-1.156-3.03-1.156H244.78zM8.563 444.09c-2.22 0-4.032 1.464-4.032 3.281v27.156c0 .767.341 1.474.875 2.031.059.071.154.121.22.188.037.034.053.093.093.125.015.016.047.015.062.031.015.018.017.045.032.063.032.028.06.066.093.093.03.034.062.061.094.094.034.03.059.065.094.094.02.022.042.04.062.062.01.012.022.02.032.031.034.031.057.065.093.094.02.022.043.041.063.063.009.011.022.02.031.03.04.036.084.061.125.095.028.031.064.063.094.093.033.03.059.065.094.094.02.022.042.04.062.062.014.019.017.045.031.063.033.029.06.066.094.094.03.034.062.06.094.093.033.03.059.065.094.094.02.022.042.041.062.063l.031.03c.035.032.058.065.094.094.02.022.042.041.063.063.009.011.021.02.03.031.04.035.085.06.126.094.028.031.064.063.094.094.033.03.058.065.093.093.02.022.043.041.063.063.014.018.016.044.031.062.033.029.06.066.094.094.03.034.062.06.094.094.033.03.058.065.093.093.02.022.043.041.063.063.009.011.022.02.031.031.035.03.058.064.094.094.02.022.042.04.062.062.01.012.022.02.032.031.039.035.084.06.125.094.023.027.037.068.062.094.04.035.084.06.125.094.028.031.064.063.094.093.038.034.054.093.094.125.014.017.047.015.062.031.014.019.017.045.031.063.033.029.06.066.094.094.02.022.042.04.063.062.009.011.022.02.03.031.034.03.06.065.095.094.019.022.042.041.062.063l.031.03c.04.036.084.06.125.094.024.027.038.068.063.094.039.035.084.06.125.094.028.031.064.063.094.094.037.033.054.092.093.125.015.016.048.015.063.03.014.019.016.045.031.063.033.029.06.066.094.094.03.034.062.06.094.094.033.03.058.065.093.093.02.022.043.041.063.063.009.011.022.02.031.031.035.03.058.064.094.094.028.032.064.063.094.093.039.035.084.06.125.094.028.032.064.063.093.094.038.034.054.092.094.125.015.016.047.015.063.031.014.018.016.045.03.063.033.028.06.066.095.093.03.034.061.061.093.094.034.03.06.065.094.094.02.022.042.04.063.062.009.011.022.02.03.031.046.04.078.087.126.125.06.057.123.104.187.157.734.702 1.81 1.156 3.031 1.156h90.094c2.22 0 4-1.465 4-3.281v-27.156c0-.77-.337-1.474-.875-2.032-.055-.067-.126-.123-.187-.187-.031-.038-.06-.088-.094-.125-.032-.03-.06-.064-.093-.094-.028-.034-.065-.06-.094-.094-.031-.03-.061-.064-.094-.093-.032-.04-.09-.056-.125-.094-.032-.03-.06-.064-.093-.094-.028-.033-.065-.06-.094-.093-.032-.031-.06-.064-.094-.094-.028-.034-.064-.06-.094-.094-.02-.02-.04-.042-.062-.062l-.031-.031c-.032-.039-.06-.088-.094-.125-.032-.031-.06-.065-.094-.094-.027-.034-.064-.061-.093-.094-.032-.03-.062-.065-.094-.094-.033-.039-.09-.055-.125-.093-.027-.026-.035-.07-.063-.094-.031-.038-.091-.057-.125-.094-.032-.03-.06-.064-.093-.093-.028-.034-.065-.061-.094-.094l-.062-.063-.032-.03c-.032-.04-.059-.087-.093-.126-.033-.03-.06-.064-.094-.093-.028-.034-.065-.061-.094-.094-.032-.03-.06-.064-.093-.094-.028-.034-.065-.06-.094-.094-.032-.03-.06-.064-.094-.093-.009-.011-.022-.02-.031-.031-.029-.025-.064-.039-.094-.063-.032-.03-.06-.064-.093-.094-.028-.033-.065-.06-.094-.093-.02-.02-.041-.043-.063-.063l-.03-.031c-.033-.04-.06-.087-.095-.125-.032-.03-.06-.064-.093-.094-.028-.033-.065-.06-.094-.093-.032-.031-.06-.065-.094-.094-.027-.034-.064-.061-.093-.094-.032-.03-.06-.064-.094-.094l-.031-.03c-.029-.026-.064-.039-.094-.063-.032-.03-.06-.064-.094-.094-.027-.034-.064-.06-.093-.094-.033-.03-.06-.064-.094-.093-.028-.034-.065-.061-.094-.094l-.062-.063c-.016-.016-.016-.046-.031-.062-.028-.034-.065-.06-.094-.094-.032-.03-.06-.064-.094-.093-.028-.034-.064-.061-.094-.094-.032-.03-.06-.064-.093-.094-.01-.011-.022-.02-.031-.031-.03-.025-.065-.038-.094-.063-.032-.03-.06-.064-.094-.093-.028-.034-.064-.061-.094-.094-.032-.03-.06-.064-.093-.094-.028-.033-.065-.06-.094-.093-.021-.02-.04-.043-.062-.063-.016-.016-.016-.046-.032-.062-.027-.034-.064-.061-.093-.094-.033-.03-.06-.064-.094-.094-.028-.033-.065-.06-.094-.093-.032-.031-.06-.064-.093-.094l-.032-.031c-.028-.025-.064-.039-.093-.063-.033-.03-.06-.064-.094-.094-.028-.033-.065-.06-.094-.093-.064-.062-.117-.13-.187-.188-.734-.706-1.806-1.156-3.031-1.156H8.566zM126.66 444.09c-2.219 0-4 1.464-4 3.281v27.156c0 .767.34 1.474.875 2.031.058.071.154.121.219.188.038.034.054.093.093.125.015.016.048.015.063.031.014.018.016.045.031.063.033.028.06.066.094.093.03.034.062.061.094.094.033.03.058.065.093.094.02.022.043.04.063.062.009.012.022.02.03.031.036.031.059.065.095.094.02.022.042.041.062.063l.031.03c.04.036.084.061.125.095.024.026.038.067.063.093.039.035.084.06.125.094.033.037.058.09.094.125.032.029.06.066.093.094.03.034.062.06.094.093.033.03.06.066.094.094.03.034.062.06.093.094.035.03.058.064.094.093.02.022.042.041.063.063.009.011.022.02.03.031.036.03.058.064.094.094.029.032.065.063.094.094.04.035.084.06.125.093.033.037.059.09.094.125.033.029.06.066.094.094.03.034.061.06.093.094.033.028.06.066.094.093.03.034.062.061.094.094.034.03.057.064.093.094.02.022.043.04.063.062.009.012.022.02.031.031.035.031.058.065.094.094.028.032.064.063.093.094.04.035.084.06.125.094.029.031.064.063.094.093.038.034.054.093.094.125.015.017.047.015.062.031.015.019.017.045.032.063.032.029.06.066.093.094.03.034.062.06.094.093.034.03.059.065.094.094.02.022.042.041.062.063l.031.03c.035.032.058.065.094.094.028.032.064.063.094.094.039.035.084.06.125.094.028.031.064.063.093.094.038.033.055.092.094.125.015.016.048.015.063.03.014.019.016.045.03.063.034.029.06.066.095.094.03.034.061.06.093.094.034.03.059.065.094.093.02.022.042.041.062.063l.032.031c.034.03.057.064.093.094.029.032.064.063.094.093.04.035.084.06.125.094.028.032.064.063.094.094.038.034.054.092.093.125.015.016.048.015.063.031.014.018.016.045.031.063.033.028.06.066.094.093.03.034.062.061.094.094.033.03.058.065.093.094.02.022.043.04.063.062.056.051.096.108.156.156.06.057.123.104.188.157.733.702 1.778 1.156 3 1.156h90.125c2.218 0 4-1.465 4-3.281v-27.156c0-.77-.338-1.473-.875-2.032-.056-.067-.127-.123-.188-.187-.031-.038-.06-.088-.094-.125-.032-.03-.06-.064-.093-.094-.028-.033-.065-.06-.094-.093-.031-.03-.061-.065-.094-.094-.032-.04-.09-.056-.125-.094-.032-.03-.06-.064-.093-.094-.028-.033-.065-.06-.094-.093-.032-.031-.06-.064-.094-.094-.028-.034-.064-.06-.094-.094-.02-.02-.04-.042-.062-.062l-.031-.031c-.032-.038-.06-.088-.094-.125-.032-.031-.06-.064-.094-.094-.028-.034-.064-.061-.093-.094-.032-.03-.062-.065-.094-.093-.033-.04-.09-.056-.125-.094-.032-.03-.06-.064-.094-.094-.028-.034-.064-.06-.094-.094-.032-.03-.06-.064-.093-.093-.028-.034-.065-.061-.094-.094-.021-.02-.04-.042-.062-.062l-.032-.032c-.031-.038-.06-.088-.093-.125-.033-.03-.06-.064-.094-.093-.028-.034-.065-.061-.094-.094-.03-.03-.061-.065-.093-.094-.033-.04-.09-.055-.125-.093-.033-.031-.06-.065-.094-.094-.028-.034-.065-.061-.094-.094-.032-.03-.06-.064-.094-.094-.027-.033-.064-.06-.093-.093-.022-.02-.04-.043-.063-.063l-.03-.031c-.032-.038-.061-.088-.095-.125-.032-.03-.06-.064-.093-.094-.028-.033-.065-.06-.094-.093-.031-.03-.061-.065-.094-.094-.032-.04-.09-.056-.125-.094-.032-.03-.06-.064-.093-.093-.03-.035-.064-.06-.094-.094-.032-.03-.06-.064-.094-.094-.028-.034-.064-.06-.094-.094-.033-.031-.059-.063-.093-.093-.027-.033-.066-.062-.094-.094-.038-.036-.054-.09-.094-.125-.027-.034-.064-.06-.093-.094-.032-.03-.062-.064-.094-.093-.033-.04-.09-.056-.125-.094-.027-.026-.035-.069-.063-.094-.032-.04-.09-.055-.125-.093-.032-.031-.06-.065-.093-.094-.028-.034-.065-.061-.094-.094-.032-.03-.06-.064-.094-.094-.027-.033-.064-.06-.093-.093-.022-.02-.04-.043-.063-.063-.015-.016-.015-.046-.031-.062-.028-.034-.065-.061-.094-.094-.032-.03-.06-.064-.093-.094-.028-.033-.065-.06-.094-.093-.032-.031-.06-.064-.094-.094-.009-.011-.022-.02-.031-.031-.029-.025-.064-.039-.094-.063-.032-.03-.06-.064-.093-.093-.028-.034-.065-.061-.094-.094-.065-.062-.118-.13-.188-.188-.733-.706-1.805-1.156-3.03-1.156H126.66zM244.78 444.09c-2.219 0-4 1.464-4 3.281v27.156c0 .767.34 1.474.875 2.031.054.066.128.126.188.188.043.039.08.088.125.125.028.031.063.063.093.094.033.028.06.066.094.093.03.034.062.061.094.094.032.029.06.066.093.094.03.034.062.06.094.093.035.031.058.065.094.094.02.022.042.041.062.063l.031.03c.035.032.058.065.094.095.028.031.064.062.094.093.039.035.084.06.125.094.033.037.058.09.094.125.032.029.06.066.093.094.03.034.062.06.094.093.033.03.06.066.094.094.03.034.062.06.093.094.035.03.058.064.094.093.02.022.042.041.063.063.009.011.022.02.03.031.036.03.058.064.094.094.029.032.065.063.094.094.04.035.084.06.125.093.033.037.059.09.094.125.033.029.06.066.094.094.03.034.061.06.093.094.033.028.06.066.094.093.03.034.062.061.094.094.034.03.057.064.093.094.02.022.043.04.063.062.009.012.022.02.031.031.035.031.058.065.094.094.028.032.064.063.093.094.04.035.084.06.125.094.029.031.064.063.094.093.038.034.054.093.094.125.015.017.047.015.062.031.015.019.017.045.032.063.032.029.06.066.093.094.03.034.062.06.094.093.034.03.059.065.094.094.02.022.042.041.062.063.062.077.15.146.219.218.04.035.084.06.125.094.024.026.038.068.062.094.043.038.08.088.125.125l.094.093c.033.03.06.066.094.094.03.034.062.061.093.094.033.029.06.066.094.093.03.034.062.061.094.094.035.031.057.064.094.094.028.032.064.063.093.094.035.03.058.064.094.093.028.032.064.063.094.094.043.039.08.088.125.125.028.031.063.063.093.094.033.028.06.066.094.093.03.034.062.061.094.094.032.029.06.066.093.094.067.063.116.128.188.187.067.064.115.128.187.188.734.71 1.801 1.156 3.032 1.156h90.125c2.218 0 4-1.464 4-3.281v-27.156c0-.77-.338-1.473-.875-2.031-.054-.066-.129-.126-.188-.188-.031-.038-.06-.088-.094-.125-.03-.03-.06-.065-.093-.094-.033-.04-.09-.055-.125-.093-.026-.025-.036-.07-.063-.094-.032-.04-.09-.056-.125-.094-.032-.03-.06-.064-.093-.093-.028-.034-.065-.061-.094-.094-.032-.03-.06-.064-.094-.094-.027-.033-.065-.062-.094-.094-.032-.03-.06-.064-.093-.093-.032-.038-.06-.088-.094-.125-.031-.03-.061-.065-.094-.094-.032-.04-.09-.055-.125-.094-.026-.024-.035-.07-.062-.093-.033-.04-.09-.056-.125-.094-.032-.03-.06-.064-.094-.094-.028-.033-.064-.06-.094-.093-.032-.031-.06-.065-.093-.094-.028-.034-.065-.061-.094-.094-.021-.02-.04-.042-.062-.062l-.032-.032c-.031-.038-.06-.088-.093-.125-.033-.03-.06-.064-.094-.093-.028-.034-.065-.061-.094-.094-.03-.03-.061-.065-.093-.094-.033-.04-.09-.055-.125-.093-.033-.031-.06-.064-.094-.094-.028-.034-.065-.06-.094-.094-.032-.03-.06-.064-.094-.093-.027-.034-.064-.061-.093-.094-.022-.02-.04-.043-.063-.063l-.03-.03c-.032-.039-.061-.089-.095-.126-.032-.03-.06-.064-.093-.094-.028-.033-.065-.06-.094-.093-.031-.03-.061-.065-.094-.094-.032-.04-.09-.055-.125-.094-.032-.03-.06-.064-.093-.093-.03-.035-.064-.06-.094-.094-.032-.03-.06-.064-.094-.094-.028-.033-.064-.06-.094-.093-.033-.032-.059-.063-.093-.094-.027-.033-.066-.062-.094-.094-.038-.036-.054-.09-.094-.125-.027-.034-.064-.06-.093-.094-.032-.03-.062-.064-.094-.093-.033-.04-.09-.056-.125-.094-.032-.03-.06-.064-.094-.094-.028-.035-.063-.06-.093-.093-.033-.031-.06-.064-.094-.094-.028-.034-.065-.06-.094-.094-.033-.032-.059-.063-.094-.093-.026-.033-.065-.062-.093-.094-.038-.036-.054-.09-.094-.125-.028-.034-.064-.061-.094-.094-.03-.03-.06-.065-.093-.094-.033-.039-.09-.055-.125-.093-.033-.031-.06-.064-.094-.094-.029-.035-.063-.06-.094-.094-.032-.03-.06-.064-.093-.093-.028-.034-.065-.061-.094-.094-.067-.064-.115-.128-.188-.188-.733-.706-1.805-1.156-3.03-1.156H244.78z"/></g><rect rx="38.386" ry="38.386" height="387.46" width="355.35" y="-240.42" x="-5.95" color="#000" fill="#333"/><rect rx="38.386" ry="38.386" height="375.78" width="344.63" y="-234.57" x="-.591" color="#000" fill="url(#e)"/><path d="M37.781-234.56c-21.266 0-38.375 12.93-38.375 29v76.893c18.498 56.846 312.68 37.906 344.59 150.34.024-.42.031-.851.031-1.275v-225.95c0-16.071-17.109-29-38.375-29z" color="#000" fill="#b3b3b3"/><g color="#000"><path d="M338.91 339.9v27.174c0 1.817-1.786 3.28-4.005 3.28h-90.113c-2.218 0-4.004-1.463-4.004-3.28V339.9c0-1.817 1.786-3.28 4.004-3.28h90.113c2.219 0 4.005 1.463 4.005 3.28z" fill="url(#f)"/><path d="M338.91 286.16v27.174c0 1.817-1.786 3.28-4.005 3.28h-90.113c-2.218 0-4.004-1.463-4.004-3.28V286.16c0-1.817 1.786-3.28 4.004-3.28h90.113c2.219 0 4.005 1.463 4.005 3.28z" fill="url(#g)"/><path d="M338.91 393.63v27.174c0 1.817-1.786 3.28-4.005 3.28h-90.113c-2.218 0-4.004-1.463-4.004-3.28V393.63c0-1.817 1.786-3.28 4.004-3.28h90.113c2.219 0 4.005 1.463 4.005 3.28z" fill="url(#h)"/><path d="M338.91 447.36v27.174c0 1.817-1.786 3.28-4.005 3.28h-90.113c-2.218 0-4.004-1.463-4.004-3.28V447.36c0-1.817 1.786-3.28 4.004-3.28h90.113c2.219 0 4.005 1.463 4.005 3.28z" fill="url(#i)"/><path d="M102.67 339.9v27.174c0 1.817-1.786 3.28-4.005 3.28H8.552c-2.218 0-4.004-1.463-4.004-3.28V339.9c0-1.817 1.786-3.28 4.004-3.28h90.113c2.219 0 4.005 1.463 4.005 3.28z" fill="url(#j)"/><path d="M102.67 286.16v27.174c0 1.817-1.786 3.28-4.005 3.28H8.552c-2.218 0-4.004-1.463-4.004-3.28V286.16c0-1.817 1.786-3.28 4.004-3.28h90.113c2.219 0 4.005 1.463 4.005 3.28z" fill="url(#k)"/><path d="M102.67 393.63v27.174c0 1.817-1.786 3.28-4.005 3.28H8.552c-2.218 0-4.004-1.463-4.004-3.28V393.63c0-1.817 1.786-3.28 4.004-3.28h90.113c2.219 0 4.005 1.463 4.005 3.28z" fill="url(#l)"/><path d="M102.67 447.36v27.174c0 1.817-1.786 3.28-4.005 3.28H8.552c-2.218 0-4.004-1.463-4.004-3.28V447.36c0-1.817 1.786-3.28 4.004-3.28h90.113c2.219 0 4.005 1.463 4.005 3.28z" fill="url(#m)"/><path d="M220.79 339.9v27.174c0 1.817-1.786 3.28-4.005 3.28h-90.113c-2.218 0-4.004-1.463-4.004-3.28V339.9c0-1.817 1.786-3.28 4.004-3.28h90.113c2.219 0 4.005 1.463 4.005 3.28z" fill="url(#n)"/><path d="M220.79 286.16v27.174c0 1.817-1.786 3.28-4.005 3.28h-90.113c-2.218 0-4.004-1.463-4.004-3.28V286.16c0-1.817 1.786-3.28 4.004-3.28h90.113c2.219 0 4.005 1.463 4.005 3.28z" fill="url(#o)"/><path d="M220.79 393.63v27.174c0 1.817-1.786 3.28-4.005 3.28h-90.113c-2.218 0-4.004-1.463-4.004-3.28V393.63c0-1.817 1.786-3.28 4.004-3.28h90.113c2.219 0 4.005 1.463 4.005 3.28z" fill="url(#p)"/><path d="M220.79 447.36v27.174c0 1.817-1.786 3.28-4.005 3.28h-90.113c-2.218 0-4.004-1.463-4.004-3.28V447.36c0-1.817 1.786-3.28 4.004-3.28h90.113c2.219 0 4.005 1.463 4.005 3.28z" fill="url(#q)"/><path d="M338.91 178.7v27.174c0 1.817-1.786 3.28-4.005 3.28h-90.113c-2.218 0-4.004-1.463-4.004-3.28V178.7c0-1.817 1.786-3.28 4.004-3.28h90.113c2.219 0 4.005 1.463 4.005 3.28z" fill="url(#r)"/><path d="M338.91 232.43v27.174c0 1.817-1.786 3.28-4.005 3.28h-90.113c-2.218 0-4.004-1.463-4.004-3.28V232.43c0-1.817 1.786-3.28 4.004-3.28h90.113c2.219 0 4.005 1.463 4.005 3.28z" fill="url(#s)"/><path d="M102.67 178.7v27.174c0 1.817-1.786 3.28-4.005 3.28H8.552c-2.218 0-4.004-1.463-4.004-3.28V178.7c0-1.817 1.786-3.28 4.004-3.28h90.113c2.219 0 4.005 1.463 4.005 3.28z" fill="url(#t)"/><path d="M102.67 232.43v27.174c0 1.817-1.786 3.28-4.005 3.28H8.552c-2.218 0-4.004-1.463-4.004-3.28V232.43c0-1.817 1.786-3.28 4.004-3.28h90.113c2.219 0 4.005 1.463 4.005 3.28z" fill="url(#u)"/><path d="M126.66 175.42c-2.219 0-3.99 1.475-3.99 3.292v68.157c0 1.817 1.771 3.292 3.99 3.292h90.11c2.219 0 4.02-1.475 4.02-3.292v-68.157c0-1.817-1.801-3.292-4.02-3.292h-90.11z" fill="url(#v)"/><path d="M145.42 239.43a2.333 2.333 0 0 1-2.33-2.347v-48.589a2.333 2.333 0 0 1 2.33-2.347h52.608a2.348 2.348 0 0 1 2.347 2.347v48.589a2.348 2.348 0 0 1-2.347 2.347H145.42z" fill="url(#w)"/></g><path d="M83.288 187.05c-.617-1.797-3.944-3.1-5.303-5.179a1.917 1.917 0 0 0-.058-.674c-.969-3.618-13.52-3.395-28.039.495-13.793 3.696-24.385 9.378-24.58 13.038l-.219.009c.097.133.167.29.238.429.008.04.02.074.031.115.042.158.112.32.198.464 1.323 4.81-9.01 11.996 9.27 9.78 4.879-.592 7.634-1.338 9.033-2.224 1.886-1.194 1.319-2.632.275-4.21l-.03-.018c-1.047-.57-1.764-1.349-2.023-2.314-.835-3.118 3.436-6.978 9.537-8.613 6.102-1.635 11.731-.427 12.566 2.69.272 1.014-.008 2.101-.703 3.169.017 3.035 1.305 4.768 11.311.12 2.972-1.38 5.022-2.533 6.369-3.528 1.995-1.474 2.46-2.578 2.127-3.55z" color="#000" fill="green"/><path d="M320.73 196.27c-.13-1.895-3.007-4.016-3.782-6.375.08-.212.119-.448.119-.666 0-3.745-12.181-6.779-27.212-6.779-14.28 0-25.981 2.747-27.117 6.232-.072-.015-.143-.033-.214-.048.06.154.086.323.119.476-.003.041 0 .077 0 .119 0 .164.025.338.071.5.033 4.988-11.809 9.255 6.423 11.845 4.865.692 7.72.684 9.3.19 2.131-.665 1.956-2.2 1.356-3.996l-.024-.023c-.865-.823-1.356-1.76-1.356-2.76 0-3.228 5.125-5.851 11.441-5.851 6.317 0 11.441 2.623 11.441 5.851 0 1.05-.551 2.027-1.498 2.879-.77 2.936.026 4.944 10.894 3.044 3.227-.564 5.506-1.147 7.064-1.76 2.309-.908 3.044-1.854 2.974-2.878z" color="#000" fill="red"/><path d="M151.993 308.1v4.588h-17.314c.188-1.734.75-3.375 1.688-4.922.937-1.559 2.789-3.621 5.554-6.188 2.227-2.074 3.592-3.48 4.096-4.218.68-1.02 1.02-2.028 1.02-3.024 0-1.101-.3-1.945-.897-2.53-.586-.599-1.4-.897-2.443-.897-1.032 0-1.852.31-2.461.931-.61.621-.961 1.653-1.055 3.094l-4.922-.492c.293-2.719 1.213-4.67 2.76-5.854s3.48-1.775 5.8-1.775c2.544 0 4.542.686 5.995 2.057 1.453 1.37 2.18 3.076 2.18 5.115 0 1.16-.212 2.267-.633 3.322-.41 1.043-1.067 2.139-1.97 3.287-.597.762-1.675 1.858-3.234 3.287s-2.548 2.38-2.97 2.848c-.41.469-.744.926-1.002 1.371h9.808M134.663 359.35l4.922-.51c.14 1.114.557 1.998 1.248 2.655.691.644 1.488.966 2.39.966 1.032 0 1.905-.416 2.62-1.248.714-.843 1.072-2.11 1.072-3.797 0-1.582-.358-2.765-1.072-3.55-.704-.797-1.623-1.196-2.76-1.196-1.418 0-2.69.627-3.815 1.881l-4.007-.58 2.53-13.412h13.062v4.623h-9.317l-.773 4.377c1.102-.55 2.227-.826 3.375-.826 2.191 0 4.049.797 5.572 2.39 1.524 1.594 2.285 3.663 2.285 6.206 0 2.12-.615 4.013-1.845 5.677-1.676 2.274-4.002 3.41-6.979 3.41-2.379 0-4.318-.638-5.818-1.915s-2.397-2.995-2.69-5.15M139.163 406.02c-1.277-.539-2.209-1.277-2.795-2.215a5.9 5.9 0 0 1-.861-3.111c0-1.922.668-3.51 2.004-4.764 1.347-1.254 3.257-1.88 5.73-1.88 2.45 0 4.348.626 5.695 1.88 1.36 1.254 2.04 2.842 2.04 4.764 0 1.195-.311 2.262-.932 3.2-.621.925-1.494 1.634-2.62 2.126 1.43.574 2.515 1.412 3.253 2.514.75 1.101 1.125 2.373 1.125 3.814 0 2.38-.762 4.313-2.285 5.801-1.512 1.488-3.528 2.232-6.047 2.232-2.344 0-4.295-.615-5.854-1.845-1.84-1.453-2.76-3.446-2.76-5.977 0-1.394.346-2.672 1.038-3.832.69-1.172 1.78-2.074 3.269-2.707m1.02-4.975c0 .985.275 1.752.826 2.303.562.551 1.306.826 2.232.826.938 0 1.688-.275 2.25-.826.563-.562.844-1.336.844-2.32 0-.926-.281-1.664-.844-2.215-.55-.562-1.283-.844-2.197-.844-.95 0-1.705.282-2.268.844-.562.563-.844 1.307-.844 2.232m-.457 11.04c0 1.359.346 2.42 1.038 3.181.703.762 1.576 1.143 2.619 1.143 1.02 0 1.863-.364 2.53-1.09.669-.738 1.003-1.799 1.003-3.182 0-1.207-.34-2.174-1.02-2.9-.68-.738-1.54-1.108-2.584-1.108-1.207 0-2.11.417-2.707 1.248-.586.833-.879 1.735-.879 2.707M143.333 447.79c2.496 0 4.447.89 5.854 2.672 1.675 2.11 2.513 5.607 2.513 10.494 0 4.875-.844 8.379-2.531 10.512-1.395 1.758-3.34 2.637-5.836 2.637-2.508 0-4.53-.961-6.064-2.883-1.536-1.934-2.303-5.373-2.303-10.318 0-4.852.844-8.344 2.531-10.477 1.395-1.758 3.34-2.637 5.836-2.637m0 4.096c-.598 0-1.13.193-1.6.58-.468.375-.832 1.055-1.09 2.039-.34 1.277-.51 3.428-.51 6.451 0 3.024.153 5.104.458 6.24.305 1.125.685 1.875 1.142 2.25a2.491 2.491 0 0 0 1.6.563c.598 0 1.13-.188 1.6-.563.468-.386.832-1.072 1.09-2.056.34-1.266.51-3.41.51-6.434 0-3.023-.153-5.097-.458-6.223-.304-1.136-.691-1.892-1.16-2.267a2.377 2.377 0 0 0-1.582-.58"/><g><path d="M35.02 312.69h-4.94v-18.615c-1.805 1.688-3.932 2.936-6.381 3.744v-4.482c1.289-.422 2.69-1.219 4.201-2.39 1.512-1.185 2.549-2.561 3.111-4.132h4.008v25.875M30.642 366.42v-5.186H20.095v-4.324l11.18-16.365h4.149v16.348h3.199v4.342h-3.2v5.186h-4.78m0-9.528v-8.806l-5.924 8.806h5.923M20.913 399.1v-4.588h16.893v3.586c-1.394 1.371-2.812 3.34-4.254 5.906s-2.543 5.297-3.304 8.192c-.75 2.882-1.12 5.46-1.108 7.734h-4.763c.082-3.563.814-7.195 2.197-10.898 1.394-3.703 3.252-7.014 5.572-9.932H20.914"/><path style="block-progression:tb;text-indent:0;text-transform:none" d="M29.11 448.17a2.5 2.5 0 0 0-2.22 2.531v4.219l-2.968-2.969a2.5 2.5 0 0 0-2.031-.75 2.5 2.5 0 0 0-1.5 4.281l2.968 2.97h-4.187a2.5 2.5 0 0 0-.25 0 2.503 2.503 0 1 0 .25 5h4.187l-2.968 2.968a2.5 2.5 0 1 0 3.53 3.531l2.97-2.969v4.22a2.5 2.5 0 1 0 5 0v-4.22l2.968 2.97a2.508 2.508 0 1 0 3.563-3.532l-2.969-2.969h4.188a2.5 2.5 0 1 0 0-5h-4.188l2.969-2.969a2.5 2.5 0 0 0-2.094-4.28 2.5 2.5 0 0 0-1.469.75l-2.969 2.968v-4.219a2.5 2.5 0 0 0-2.53-2.531 2.5 2.5 0 0 0-.25 0z" color="#000"/></g><g><path d="M257.007 305.63l4.781-.58c.153 1.219.563 2.15 1.23 2.795.669.644 1.477.967 2.427.967 1.019 0 1.875-.387 2.566-1.16.703-.774 1.055-1.817 1.055-3.13 0-1.242-.334-2.226-1.002-2.953-.668-.726-1.483-1.09-2.444-1.09-.633 0-1.388.124-2.267.37l.545-4.026c1.335.036 2.355-.252 3.058-.861.703-.621 1.055-1.441 1.055-2.46 0-.868-.258-1.56-.774-2.075-.515-.516-1.2-.774-2.056-.774-.844 0-1.565.293-2.162.88-.598.585-.961 1.44-1.09 2.566l-4.553-.774c.317-1.558.791-2.8 1.424-3.726.645-.938 1.535-1.67 2.672-2.198 1.148-.539 2.431-.808 3.85-.808 2.425 0 4.37.773 5.835 2.32 1.207 1.266 1.81 2.695 1.811 4.29 0 2.261-1.236 4.066-3.709 5.413 1.477.317 2.654 1.026 3.533 2.127.89 1.102 1.336 2.432 1.336 3.99 0 2.262-.826 4.19-2.478 5.784-1.653 1.594-3.71 2.39-6.17 2.39-2.332 0-4.266-.668-5.801-2.004-1.535-1.347-2.426-3.105-2.672-5.273M273.697 346.74l-4.781.527c-.117-.984-.422-1.71-.914-2.18-.492-.468-1.131-.702-1.916-.702-1.043 0-1.928.468-2.655 1.406-.714.937-1.166 2.888-1.353 5.853 1.23-1.453 2.76-2.18 4.588-2.18 2.062 0 3.826.786 5.29 2.356 1.477 1.57 2.216 3.598 2.216 6.082 0 2.637-.774 4.752-2.32 6.346-1.548 1.594-3.534 2.39-5.96 2.39-2.601 0-4.74-1.007-6.416-3.023-1.675-2.027-2.513-5.344-2.513-9.95 0-4.722.873-8.126 2.619-10.212 1.746-2.086 4.013-3.13 6.802-3.13 1.957 0 3.575.552 4.852 1.653 1.289 1.09 2.11 2.678 2.46 4.764M262.5 357.515c0 1.605.37 2.848 1.107 3.727.739.867 1.582 1.3 2.532 1.3.914 0 1.675-.357 2.285-1.072.61-.715.914-1.887.914-3.516 0-1.675-.328-2.9-.985-3.673-.656-.786-1.476-1.178-2.46-1.178-.95 0-1.752.375-2.409 1.125-.656.738-.984 1.834-.984 3.287M257.457 413.97l4.781-.527c.117.972.422 1.693.914 2.162.492.469 1.143.703 1.951.703 1.02 0 1.887-.469 2.602-1.406.715-.938 1.172-2.883 1.371-5.836-1.242 1.441-2.795 2.162-4.658 2.162-2.027 0-3.78-.78-5.256-2.338-1.465-1.57-2.197-3.61-2.197-6.117 0-2.614.773-4.717 2.32-6.31 1.559-1.606 3.54-2.409 5.942-2.409 2.613 0 4.757 1.014 6.433 3.041 1.676 2.016 2.514 5.338 2.514 9.967 0 4.71-.873 8.11-2.62 10.195-1.745 2.086-4.019 3.129-6.82 3.129-2.015 0-3.644-.533-4.886-1.6-1.242-1.078-2.04-2.683-2.39-4.816m11.18-10.793c0-1.594-.37-2.83-1.108-3.71-.727-.878-1.57-1.318-2.531-1.318-.915 0-1.676.364-2.286 1.09-.597.715-.896 1.893-.896 3.533 0 1.664.328 2.89.984 3.674.656.774 1.477 1.16 2.461 1.16.95 0 1.746-.375 2.39-1.125.657-.75.985-1.851.985-3.304"/><path style="block-progression:tb;text-indent:0;text-transform:none" d="M260.947 448.17a2.5 2.5 0 0 0-2.219 2.563v3.375h-3.406a2.5 2.5 0 1 0 0 5h3.406v3.718h-3.406a2.5 2.5 0 1 0 0 5h3.406v3.375a2.5 2.5 0 1 0 5 0v-3.375h3.719v3.375a2.5 2.5 0 1 0 5 0v-3.375h3.344a2.5 2.5 0 0 0 2.562-2.562 2.5 2.5 0 0 0-2.562-2.438h-3.344v-3.719h3.344a2.5 2.5 0 0 0 2.562-2.53 2.5 2.5 0 0 0-2.562-2.47h-3.344v-3.375a2.5 2.5 0 0 0-2.563-2.562 2.5 2.5 0 0 0-2.437 2.563v3.375h-3.719v-3.375a2.5 2.5 0 0 0-2.531-2.563 2.5 2.5 0 0 0-.25 0zm2.781 10.938h3.719v3.719h-3.719v-3.719z" color="#000"/></g></g></svg>