<svg xmlns="http://www.w3.org/2000/svg" xmlns:xlink="http://www.w3.org/1999/xlink" width="531.914" height="175.475"><defs><linearGradient id="f"><stop offset="0" stop-color="#6a6a6a"/><stop offset=".5"/><stop offset="1" stop-color="#141414"/></linearGradient><linearGradient id="d"><stop offset="0" stop-color="#aaa"/><stop offset="1" stop-color="#aaa" stop-opacity="0"/></linearGradient><linearGradient id="c"><stop offset="0" stop-color="#6a6a6a"/><stop offset=".7"/><stop offset="1" stop-color="#141414"/></linearGradient><linearGradient id="b"><stop offset="0"/><stop offset=".594" stop-color="#181818"/><stop offset="1" stop-color="#777"/></linearGradient><linearGradient id="e"><stop offset="0"/><stop offset=".887" stop-color="#181818"/><stop offset="1" stop-color="#777"/></linearGradient><linearGradient id="a"><stop offset="0" stop-color="#6a6a6a"/><stop offset=".5"/><stop offset="1" stop-color="#141414"/></linearGradient><filter id="O" color-interpolation-filters="sRGB"><feGaussianBlur stdDeviation=".045"/></filter><filter id="E" x="-.105" width="1.211" y="-.137" height="1.274" color-interpolation-filters="sRGB"><feGaussianBlur stdDeviation=".999"/></filter><filter id="M" x="-.186" width="1.373" y="-.186" height="1.373" color-interpolation-filters="sRGB"><feGaussianBlur stdDeviation=".175"/></filter><filter id="K" color-interpolation-filters="sRGB"><feGaussianBlur stdDeviation=".146"/></filter><linearGradient xlink:href="#a" id="B" gradientUnits="userSpaceOnUse" x1="62.629" y1="99.567" x2="70.521" y2="99.567"/><linearGradient xlink:href="#a" id="C" gradientUnits="userSpaceOnUse" x1="62.629" y1="99.567" x2="70.521" y2="99.567"/><filter id="F" color-interpolation-filters="sRGB"><feGaussianBlur stdDeviation=".176"/></filter><linearGradient xlink:href="#a" id="D" gradientUnits="userSpaceOnUse" gradientTransform="matrix(1.73204 0 0 1.73204 -117.679 -20.647)" x1="50.999" y1="81.097" x2="70.346" y2="94.404"/><filter id="l" color-interpolation-filters="sRGB"><feGaussianBlur stdDeviation=".194"/></filter><radialGradient xlink:href="#a" id="J" gradientUnits="userSpaceOnUse" gradientTransform="matrix(-2.61976 .70196 .7292 2.72144 831.658 -277.456)" spreadMethod="reflect" cx="239.894" cy="65.297" fx="239.894" fy="65.297" r="14.395"/><linearGradient xlink:href="#a" id="L" gradientUnits="userSpaceOnUse" x1="253.631" y1="64.583" x2="252.436" y2="67.39"/><linearGradient xlink:href="#a" id="N" gradientUnits="userSpaceOnUse" x1="251.952" y1="69.585" x2="252.831" y2="66.636"/><radialGradient xlink:href="#a" id="I" gradientUnits="userSpaceOnUse" gradientTransform="matrix(5.50693 -3.74417 -2.67735 -3.93785 -632.488 1200.36)" spreadMethod="reflect" cx="225.119" cy="73.164" fx="225.119" fy="73.164" r="14.395"/><linearGradient xlink:href="#a" id="H" gradientUnits="userSpaceOnUse" gradientTransform="matrix(2.21422 0 0 2.21422 -58.741 54.85)" spreadMethod="repeat" x1="240.425" y1="68.024" x2="241.51" y2="66.939"/><radialGradient xlink:href="#a" id="G" gradientUnits="userSpaceOnUse" gradientTransform="matrix(18.87153 -1.82497 -.31504 -3.25778 -4140.257 699.716)" spreadMethod="reflect" cx="241.546" cy="61.328" fx="241.546" fy="61.328" r="14.395"/><linearGradient xlink:href="#c" id="j" x1="182.141" y1="97.494" x2="182.141" y2="67.298" gradientUnits="userSpaceOnUse" gradientTransform="matrix(1.7365 0 0 .73022 -60.163 58.484)"/><radialGradient xlink:href="#a" id="ab" gradientUnits="userSpaceOnUse" gradientTransform="matrix(-.24469 3.45691 1.1619 .06309 212.863 -723.018)" spreadMethod="reflect" cx="241.546" cy="61.328" fx="241.546" fy="61.328" r="14.395"/><linearGradient xlink:href="#a" id="ac" gradientUnits="userSpaceOnUse" gradientTransform="matrix(.42428 .57421 -.6635 .36718 167.653 -44.228)" spreadMethod="repeat" x1="240.425" y1="68.024" x2="242.717" y2="64.439"/><radialGradient xlink:href="#a" id="ad" gradientUnits="userSpaceOnUse" gradientTransform="matrix(1.95871 -1.33173 -.95228 -1.40062 -152.135 523.278)" spreadMethod="reflect" cx="225.119" cy="73.164" fx="225.119" fy="73.164" r="14.395"/><radialGradient xlink:href="#a" id="ae" gradientUnits="userSpaceOnUse" gradientTransform="matrix(-2.61976 .70196 .7292 2.72144 831.658 -277.456)" spreadMethod="reflect" cx="239.894" cy="65.297" fx="239.894" fy="65.297" r="14.395"/><linearGradient xlink:href="#a" id="af" gradientUnits="userSpaceOnUse" x1="253.631" y1="64.583" x2="252.436" y2="67.39"/><linearGradient xlink:href="#a" id="ag" gradientUnits="userSpaceOnUse" x1="251.952" y1="69.585" x2="252.831" y2="66.636"/><radialGradient xlink:href="#a" id="V" gradientUnits="userSpaceOnUse" gradientTransform="matrix(-.24469 3.45691 1.1619 .06309 212.863 -723.018)" spreadMethod="reflect" cx="241.546" cy="61.328" fx="241.546" fy="61.328" r="14.395"/><linearGradient xlink:href="#a" id="W" gradientUnits="userSpaceOnUse" gradientTransform="matrix(.42428 .57421 -.6635 .36718 167.653 -44.228)" spreadMethod="repeat" x1="240.425" y1="68.024" x2="242.717" y2="64.439"/><radialGradient xlink:href="#a" id="X" gradientUnits="userSpaceOnUse" gradientTransform="matrix(1.95871 -1.33173 -.95228 -1.40062 -152.135 523.278)" spreadMethod="reflect" cx="225.119" cy="73.164" fx="225.119" fy="73.164" r="14.395"/><radialGradient xlink:href="#a" id="Y" gradientUnits="userSpaceOnUse" gradientTransform="matrix(-2.61976 .70196 .7292 2.72144 831.658 -277.456)" spreadMethod="reflect" cx="239.894" cy="65.297" fx="239.894" fy="65.297" r="14.395"/><linearGradient xlink:href="#a" id="Z" gradientUnits="userSpaceOnUse" x1="253.631" y1="64.583" x2="252.436" y2="67.39"/><linearGradient xlink:href="#a" id="aa" gradientUnits="userSpaceOnUse" x1="251.952" y1="69.585" x2="252.831" y2="66.636"/><radialGradient xlink:href="#a" id="P" gradientUnits="userSpaceOnUse" gradientTransform="matrix(-.24469 3.45691 1.1619 .06309 212.863 -723.018)" spreadMethod="reflect" cx="241.546" cy="61.328" fx="241.546" fy="61.328" r="14.395"/><linearGradient xlink:href="#a" id="Q" gradientUnits="userSpaceOnUse" gradientTransform="matrix(.42428 .57421 -.6635 .36718 167.653 -44.228)" spreadMethod="repeat" x1="240.425" y1="68.024" x2="242.717" y2="64.439"/><radialGradient xlink:href="#a" id="R" gradientUnits="userSpaceOnUse" gradientTransform="matrix(1.95871 -1.33173 -.95228 -1.40062 -152.135 523.278)" spreadMethod="reflect" cx="225.119" cy="73.164" fx="225.119" fy="73.164" r="14.395"/><radialGradient xlink:href="#a" id="S" gradientUnits="userSpaceOnUse" gradientTransform="matrix(-2.61976 .70196 .7292 2.72144 831.658 -277.456)" spreadMethod="reflect" cx="239.894" cy="65.297" fx="239.894" fy="65.297" r="14.395"/><linearGradient xlink:href="#a" id="T" gradientUnits="userSpaceOnUse" x1="253.631" y1="64.583" x2="252.436" y2="67.39"/><linearGradient xlink:href="#a" id="U" gradientUnits="userSpaceOnUse" x1="251.952" y1="69.585" x2="252.831" y2="66.636"/><linearGradient xlink:href="#a" id="i" gradientUnits="userSpaceOnUse" gradientTransform="matrix(2.21422 0 0 2.21422 -132.598 -80.849)" spreadMethod="reflect" x1="178.327" y1="21.656" x2="281.674" y2="72.69"/><linearGradient xlink:href="#a" id="h" gradientUnits="userSpaceOnUse" gradientTransform="matrix(-2.21422 0 0 2.21422 584.946 -80.849)" spreadMethod="repeat" x1="40.557" y1="72.436" x2="40.787" y2="72.52"/><linearGradient xlink:href="#d" id="A" x1="-39.742" y1="-6.885" x2="492.09" y2="-6.885" gradientUnits="userSpaceOnUse"/><linearGradient xlink:href="#c" id="ah" gradientUnits="userSpaceOnUse" gradientTransform="matrix(1.7365 0 0 .73022 -60.163 -39.516)" x1="182.141" y1="97.494" x2="182.141" y2="67.298"/><linearGradient xlink:href="#e" id="v" gradientUnits="userSpaceOnUse" gradientTransform="matrix(1.02806 0 0 1.02806 -.29 -.999)" x1="-.017" y1="38.775" x2="-.017" y2="28.339"/><linearGradient xlink:href="#f" id="w" gradientUnits="userSpaceOnUse" x1="-.812" y1="30.982" x2="-.458" y2="47.171" gradientTransform="matrix(.94723 0 0 1.42243 156.464 54.019)"/><linearGradient xlink:href="#e" id="t" gradientUnits="userSpaceOnUse" gradientTransform="matrix(1.02806 0 0 1.02806 -.29 -.999)" x1="-.017" y1="38.775" x2="-.017" y2="28.339"/><linearGradient xlink:href="#f" id="u" gradientUnits="userSpaceOnUse" x1="-.812" y1="30.982" x2="-.458" y2="47.171" gradientTransform="matrix(.94723 0 0 1.42243 194.76 54.019)"/><linearGradient xlink:href="#e" id="r" gradientUnits="userSpaceOnUse" gradientTransform="matrix(1.02806 0 0 1.02806 -.29 -.999)" x1="-.017" y1="38.775" x2="-.017" y2="28.339"/><linearGradient xlink:href="#f" id="s" gradientUnits="userSpaceOnUse" x1="-.812" y1="30.982" x2="-.458" y2="47.171" gradientTransform="matrix(.94723 0 0 1.42243 79.874 54.019)"/><linearGradient xlink:href="#e" id="p" gradientUnits="userSpaceOnUse" gradientTransform="matrix(1.02806 0 0 1.02806 -.29 -.999)" x1="-.017" y1="38.775" x2="-.017" y2="28.339"/><linearGradient xlink:href="#f" id="q" gradientUnits="userSpaceOnUse" x1="-.812" y1="30.982" x2="-.458" y2="47.171" gradientTransform="matrix(.94723 0 0 1.42243 233.055 54.019)"/><linearGradient xlink:href="#e" id="n" gradientUnits="userSpaceOnUse" gradientTransform="matrix(1.02806 0 0 1.02806 -.29 -.999)" x1="-.017" y1="38.775" x2="-.017" y2="28.339"/><linearGradient xlink:href="#f" id="o" gradientUnits="userSpaceOnUse" x1="-.812" y1="30.982" x2="-.458" y2="47.171" gradientTransform="matrix(.94723 0 0 1.42243 3.283 54.019)"/><linearGradient xlink:href="#e" id="k" gradientUnits="userSpaceOnUse" gradientTransform="matrix(1.02806 0 0 1.02806 -.29 -.999)" x1="-.017" y1="38.775" x2="-.017" y2="28.339"/><linearGradient xlink:href="#f" id="m" gradientUnits="userSpaceOnUse" x1="-.812" y1="30.982" x2="-.458" y2="47.171" gradientTransform="matrix(.94723 0 0 1.42243 118.169 54.019)"/><linearGradient xlink:href="#g" id="x" gradientUnits="userSpaceOnUse" gradientTransform="matrix(-2.21422 0 0 2.21422 584.946 -80.849)" spreadMethod="repeat" x1="40.557" y1="72.436" x2="40.787" y2="72.52"/><linearGradient id="g"><stop offset="0" stop-color="#6a6a6a"/><stop offset=".5"/><stop offset="1" stop-color="#141414"/></linearGradient><linearGradient xlink:href="#g" id="y" gradientUnits="userSpaceOnUse" gradientTransform="matrix(-2.21422 0 0 2.21422 584.946 -80.849)" spreadMethod="repeat" x1="40.557" y1="72.436" x2="40.787" y2="72.52"/><linearGradient xlink:href="#g" id="z" gradientUnits="userSpaceOnUse" gradientTransform="matrix(-2.21422 0 0 2.21422 584.946 -80.849)" spreadMethod="repeat" x1="40.557" y1="72.436" x2="40.787" y2="72.52"/></defs><path style="marker:none" d="M1.043 32.624h529.832l-13.286 142.343H14.33z" color="#000" fill="#aaa" stroke="#000" stroke-width="2" stroke-linecap="round" stroke-linejoin="round" overflow="visible" enable-background="accumulate"/><path style="marker:none" d="M491.09 8.93H-38.741l13.285 142.343h503.26z" opacity=".4" color="#000" fill="url(#h)" stroke="gray" overflow="visible" enable-background="accumulate" transform="translate(39.785 23.693)"/><path d="M491.09 8.93H-38.741l13.285 142.343h503.26z" style="marker:none" opacity=".605" color="#000" fill="url(#i)" stroke="#000" overflow="visible" enable-background="accumulate" transform="translate(39.785 23.693)"/><path style="marker:none" color="#000" fill="#4d4d4d" stroke="url(#j)" stroke-width="3.378" stroke-linecap="round" stroke-linejoin="round" overflow="visible" enable-background="accumulate" d="M-18.238 119.278h488.825v5.477H-18.238z" transform="translate(39.785 23.693)"/><path transform="matrix(-.94723 0 0 1.74548 157.954 66.216)" style="marker:none" color="#000" fill="url(#k)" overflow="visible" filter="url(#l)" enable-background="accumulate" d="M-16.335 32.374h32.384v6.425h-32.384z"/><path style="marker:none" color="#000" fill="url(#m)" overflow="visible" enable-background="accumulate" d="M103.386 99.188h29.838v8.89h-29.838z" transform="translate(39.785 23.693)"/><path transform="matrix(-.94723 0 0 1.74548 43.068 66.216)" style="marker:none" color="#000" fill="url(#n)" overflow="visible" filter="url(#l)" enable-background="accumulate" d="M-16.335 32.374h32.384v6.425h-32.384z"/><path style="marker:none" color="#000" fill="url(#o)" overflow="visible" enable-background="accumulate" d="M-11.5 99.188h29.838v8.89H-11.5z" transform="translate(39.785 23.693)"/><path style="marker:none" transform="matrix(-.94723 0 0 1.74548 272.84 66.216)" color="#000" fill="url(#p)" overflow="visible" filter="url(#l)" enable-background="accumulate" d="M-16.335 32.374h32.384v6.425h-32.384z"/><path style="marker:none" color="#000" fill="url(#q)" overflow="visible" enable-background="accumulate" d="M218.272 99.188h29.838v8.89h-29.838z" transform="translate(39.785 23.693)"/><path transform="matrix(-.94723 0 0 1.74548 119.659 66.216)" style="marker:none" color="#000" fill="url(#r)" overflow="visible" filter="url(#l)" enable-background="accumulate" d="M-16.335 32.374h32.384v6.425h-32.384z"/><path style="marker:none" color="#000" fill="url(#s)" overflow="visible" enable-background="accumulate" d="M65.091 99.188h29.838v8.89H65.091z" transform="translate(39.785 23.693)"/><path style="marker:none" transform="matrix(-.94723 0 0 1.74548 234.544 66.216)" color="#000" fill="url(#t)" overflow="visible" filter="url(#l)" enable-background="accumulate" d="M-16.335 32.374h32.384v6.425h-32.384z"/><path style="marker:none" color="#000" fill="url(#u)" overflow="visible" enable-background="accumulate" d="M179.976 99.188h29.838v8.89h-29.838z" transform="translate(39.785 23.693)"/><path transform="matrix(-.94723 0 0 1.74548 196.25 66.216)" style="marker:none" color="#000" fill="url(#v)" overflow="visible" filter="url(#l)" enable-background="accumulate" d="M-16.335 32.374h32.384v6.425h-32.384z"/><path style="marker:none" color="#000" fill="url(#w)" overflow="visible" enable-background="accumulate" d="M141.681 99.188h29.838v8.89h-29.838z" transform="translate(39.785 23.693)"/><g transform="matrix(2.21422 0 0 2.21422 -93.313 25.345)" style="marker:none" opacity=".4" color="#000" fill="url(#x)" stroke="gray" stroke-width=".452"><path style="marker:none" d="M281.9 3.288H42.613l46-14.286h147.285z" opacity=".4" fill="url(#y)" overflow="visible" enable-background="accumulate"/><path d="M281.9 3.288H42.613l46-14.286h147.285z" style="marker:none" opacity=".605" fill="url(#z)" overflow="visible" enable-background="accumulate"/></g><path d="M-38.742 8.93H491.09L389.236-22.7H63.113z" style="marker:none" opacity=".452" color="#000" fill="url(#A)" stroke="#1a1a1a" stroke-width="2" stroke-linecap="round" stroke-linejoin="round" overflow="visible" enable-background="accumulate" transform="translate(39.785 23.693)"/><path style="marker:none" d="M70.521 99.567a3.946 3.946 0 1 1-7.892 0 3.946 3.946 0 0 1 7.892 0z" transform="matrix(-2.00165 0 0 -2.00165 187.022 360.651)" color="#000" fill="url(#B)" overflow="visible" enable-background="accumulate"/><path transform="matrix(1.71342 0 0 -1.71342 -60.31 331.952)" d="M70.521 99.567a3.946 3.946 0 1 1-7.892 0 3.946 3.946 0 0 1 7.892 0z" style="marker:none" color="#000" fill="url(#C)" overflow="visible" enable-background="accumulate"/><path style="marker:none" d="M48.264 161.352a5.497 5.497 0 1 0 10.994 0 5.497 5.497 0 0 0-10.994 0z" color="#000" overflow="visible" enable-background="accumulate"/><path style="marker:none" d="M-3.056 132.395c-3.298 0-5.942 2.676-5.942 5.974 0 .325.018.657.065.968-.095.307-.13.647-.13 1.001 0 1.417.78 2.583 2.197 2.583 1.416 0 1.033-1.166 1.033-2.583 0-1.416.383-2.55-1.033-2.55-.653 0-1.183.244-1.55.645v-.064a5.36 5.36 0 0 1 10.72 0c-.363-.362-.87-.582-1.486-.582-1.416 0-1.033 1.135-1.033 2.551 0 1.417-.383 2.583 1.033 2.583 1.417 0 2.196-1.166 2.196-2.583 0-.382-.051-.74-.161-1.065.048-.291.097-.599.097-.904 0-3.298-2.708-5.974-6.006-5.974z" opacity=".98" color="#000" fill="url(#D)" overflow="visible" enable-background="accumulate" transform="translate(39.785 23.693)"/><path style="marker:none" d="M257 95.612c0 4.833-5.093 8.75-11.375 8.75s-11.375-3.917-11.375-8.75c0-4.832 5.093-8.75 11.375-8.75S257 90.78 257 95.612z" transform="matrix(2.40888 0 0 3.51112 -135.643 -204.68)" opacity=".98" color="#000" overflow="visible" filter="url(#E)" enable-background="accumulate"/><path d="M453.782 71.81c-19.335 0-34.965 15.373-34.965 34.309 0 18.672 15.21 33.824 34.173 34.243-16.476-1.775-29.291-15.438-29.291-32.047 0-17.814 14.73-32.24 32.92-32.24 14.383 0 26.583 9.058 31.072 21.644-3.829-14.87-17.537-25.908-33.91-25.908z" style="marker:none" color="#000" fill="#1a1a1a" overflow="visible" enable-background="accumulate"/><path style="marker:none" d="M246.14 63.984c-6.642 0-12.03 5.276-12.03 11.782 0 2.274.672 4.388 1.812 6.187a11.504 11.504 0 0 1-1.719-6.094c0-6.505 5.39-11.78 12.031-11.78 2.594 0 4.976.785 6.938 2.155a12.133 12.133 0 0 0-7.031-2.25z" transform="translate(-260.303 -113.822) scale(2.90248)" color="#000" overflow="visible" filter="url(#F)" enable-background="accumulate"/><path d="M381.165 84.755c0 19.236 21.399 39.75 40.635 39.75 19.236 0 34.83-14.709 34.83-33.945s-21.399-40.635-40.635-40.635c-19.236 0-34.83 15.594-34.83 34.83z" style="marker:none" color="#000" fill="url(#G)" overflow="visible" enable-background="accumulate" transform="translate(39.785 23.693)"/><path style="marker:none" d="M489.844 185.625c-19.236 0-34.813 15.577-34.813 34.813 0 19.235 21.39 39.28 40.625 39.28 19.236 0 34.844-14.232 34.844-33.468 0-19.236-21.42-40.625-40.656-40.625z" transform="translate(-34.072 -112.005)" opacity=".414" color="#000" fill="url(#H)" overflow="visible" enable-background="accumulate"/><path style="marker:none" d="M388.579 90.87c0 18.8 15.24 34.04 34.039 34.04s34.039-15.24 34.039-34.04c0-18.799-15.24-34.039-34.04-34.039-18.798 0-34.038 15.24-34.038 34.04z" color="#000" fill="url(#I)" overflow="visible" enable-background="accumulate" transform="translate(39.785 23.693)"/><path d="M236.204 69.758c0 8.069 6.542 14.61 14.61 14.61 8.07 0 14.611-6.541 14.611-14.61 0-8.07-6.541-14.61-14.61-14.61-8.07 0-14.61 6.54-14.61 14.61z" style="marker:none" transform="matrix(2.21422 0 0 2.21422 -92.956 -39.895)" color="#000" fill="url(#J)" overflow="visible" filter="url(#K)" enable-background="accumulate"/><path d="M253.5 67.237a1.125 1.125 0 1 1-2.25 0 1.125 1.125 0 0 1 2.25 0z" style="marker:none" transform="matrix(-2.93932 0 0 2.93932 1212.062 -106.61)" opacity=".98" color="#000" fill="url(#L)" overflow="visible" filter="url(#M)" enable-background="accumulate"/><path transform="matrix(-2.46077 0 0 2.46077 1091.288 -74.434)" style="marker:none" d="M253.5 67.237a1.125 1.125 0 1 1-2.25 0 1.125 1.125 0 0 1 2.25 0z" opacity=".98" color="#000" fill="url(#N)" overflow="visible" filter="url(#O)" enable-background="accumulate"/><g fill="none" stroke="#000" stroke-linecap="round" stroke-linejoin="round"><path d="M89.912-12.546h29.66M89.912-8.545h32.19M89.912-.545h35.25M89.912-10.546h30.952M89.912-14.546h27.306M89.912-4.545h33.604M89.912-6.545h32.897M89.912-2.545h33.604" transform="matrix(1 0 -2.09551 1 14.012 24.693)"/></g><g color="#000"><path style="marker:none" d="M257 95.612c0 4.833-5.093 8.75-11.375 8.75s-11.375-3.917-11.375-8.75c0-4.832 5.093-8.75 11.375-8.75S257 90.78 257 95.612z" transform="matrix(.8568 0 0 1.24884 168.605 13.478)" opacity=".98" overflow="visible" filter="url(#E)" enable-background="accumulate"/><path style="marker:none" d="M390.979 116.44c-3.705-5.794-11.306-7.532-16.98-3.904-5.596 3.578-7.221 11.039-3.713 16.802-2.626-5.278-.987-11.736 3.99-14.918 5.338-3.414 12.483-1.764 15.969 3.686 2.756 4.31 2.38 9.702-.532 13.459 3.722-3.997 4.403-10.22 1.266-15.126z" fill="#888" overflow="visible" enable-background="accumulate"/><path style="marker:none" d="M214.018 113.7c-4.613 4.425-3.688 17.996 1.364 22.037 5.052 4.041 12.676 3.933 17.29-.492 4.614-4.425 3.9-18.199-1.152-22.24-5.052-4.04-12.888-3.73-17.502.695z" fill="url(#P)" overflow="visible" enable-background="accumulate" transform="translate(157.285 -.307)"/><path d="M216.249 112.163c-5.764 3.19-7.44 16.366-3.754 21.354 3.686 4.989 10.936 6.674 16.7 3.484 5.764-3.19 7.85-16.593 4.165-21.581-3.686-4.989-11.347-6.447-17.111-3.257z" style="marker:none" opacity=".414" fill="url(#Q)" overflow="visible" enable-background="accumulate" transform="translate(157.285 -.307)"/><path style="marker:none" d="M211.04 128.654c0 6.686 5.42 12.107 12.107 12.107 6.686 0 12.107-5.42 12.107-12.107 0-6.687-5.42-12.107-12.107-12.107-6.687 0-12.107 5.42-12.107 12.107z" fill="url(#R)" overflow="visible" enable-background="accumulate" transform="translate(157.285 -.307)"/><path d="M236.204 69.758c0 8.069 6.542 14.61 14.61 14.61 8.07 0 14.611-6.541 14.611-14.61 0-8.07-6.541-14.61-14.61-14.61-8.07 0-14.61 6.54-14.61 14.61z" style="marker:none" transform="matrix(.78756 0 0 .78756 182.9 73.41)" fill="url(#S)" overflow="visible" filter="url(#K)" enable-background="accumulate"/><path d="M253.5 67.237a1.125 1.125 0 1 1-2.25 0 1.125 1.125 0 0 1 2.25 0z" style="marker:none" transform="matrix(-1.04546 0 0 1.04546 644.28 48.969)" opacity=".98" fill="url(#T)" overflow="visible" filter="url(#M)" enable-background="accumulate"/><path transform="matrix(-.87525 0 0 .87525 601.323 60.413)" style="marker:none" d="M253.5 67.237a1.125 1.125 0 1 1-2.25 0 1.125 1.125 0 0 1 2.25 0z" opacity=".98" fill="url(#U)" overflow="visible" filter="url(#O)" enable-background="accumulate"/><g><path transform="matrix(.8568 0 0 1.24884 107.105 13.478)" d="M257 95.612c0 4.833-5.093 8.75-11.375 8.75s-11.375-3.917-11.375-8.75c0-4.832 5.093-8.75 11.375-8.75S257 90.78 257 95.612z" style="marker:none" opacity=".98" overflow="visible" filter="url(#E)" enable-background="accumulate"/><path d="M329.479 116.44c-3.705-5.794-11.306-7.532-16.98-3.904-5.596 3.578-7.221 11.039-3.713 16.802-2.626-5.278-.987-11.736 3.99-14.918 5.338-3.414 12.483-1.764 15.969 3.686 2.756 4.31 2.38 9.702-.532 13.459 3.722-3.997 4.403-10.22 1.266-15.126z" style="marker:none" fill="#888" overflow="visible" enable-background="accumulate"/><path d="M214.018 113.7c-4.613 4.425-3.688 17.996 1.364 22.037 5.052 4.041 12.676 3.933 17.29-.492 4.614-4.425 3.9-18.199-1.152-22.24-5.052-4.04-12.888-3.73-17.502.695z" style="marker:none" fill="url(#V)" overflow="visible" enable-background="accumulate" transform="translate(95.785 -.307)"/><path style="marker:none" d="M216.249 112.163c-5.764 3.19-7.44 16.366-3.754 21.354 3.686 4.989 10.936 6.674 16.7 3.484 5.764-3.19 7.85-16.593 4.165-21.581-3.686-4.989-11.347-6.447-17.111-3.257z" opacity=".414" fill="url(#W)" overflow="visible" enable-background="accumulate" transform="translate(95.785 -.307)"/><path d="M211.04 128.654c0 6.686 5.42 12.107 12.107 12.107 6.686 0 12.107-5.42 12.107-12.107 0-6.687-5.42-12.107-12.107-12.107-6.687 0-12.107 5.42-12.107 12.107z" style="marker:none" fill="url(#X)" overflow="visible" enable-background="accumulate" transform="translate(95.785 -.307)"/><path transform="matrix(.78756 0 0 .78756 121.4 73.41)" style="marker:none" d="M236.204 69.758c0 8.069 6.542 14.61 14.61 14.61 8.07 0 14.611-6.541 14.611-14.61 0-8.07-6.541-14.61-14.61-14.61-8.07 0-14.61 6.54-14.61 14.61z" fill="url(#Y)" overflow="visible" filter="url(#K)" enable-background="accumulate"/><path transform="matrix(-1.04546 0 0 1.04546 582.78 48.969)" style="marker:none" d="M253.5 67.237a1.125 1.125 0 1 1-2.25 0 1.125 1.125 0 0 1 2.25 0z" opacity=".98" fill="url(#Z)" overflow="visible" filter="url(#M)" enable-background="accumulate"/><path d="M253.5 67.237a1.125 1.125 0 1 1-2.25 0 1.125 1.125 0 0 1 2.25 0z" style="marker:none" transform="matrix(-.87525 0 0 .87525 539.823 60.413)" opacity=".98" fill="url(#aa)" overflow="visible" filter="url(#O)" enable-background="accumulate"/></g><g><path style="marker:none" d="M257 95.612c0 4.833-5.093 8.75-11.375 8.75s-11.375-3.917-11.375-8.75c0-4.832 5.093-8.75 11.375-8.75S257 90.78 257 95.612z" transform="matrix(.8568 0 0 1.24884 137.855 13.478)" opacity=".98" overflow="visible" filter="url(#E)" enable-background="accumulate"/><path style="marker:none" d="M360.229 116.44c-3.705-5.794-11.306-7.532-16.98-3.904-5.596 3.578-7.221 11.039-3.713 16.802-2.626-5.278-.987-11.736 3.99-14.918 5.338-3.414 12.483-1.764 15.969 3.686 2.756 4.31 2.38 9.702-.532 13.459 3.722-3.997 4.403-10.22 1.266-15.126z" fill="#888" overflow="visible" enable-background="accumulate"/><path style="marker:none" d="M214.018 113.7c-4.613 4.425-3.688 17.996 1.364 22.037 5.052 4.041 12.676 3.933 17.29-.492 4.614-4.425 3.9-18.199-1.152-22.24-5.052-4.04-12.888-3.73-17.502.695z" fill="url(#ab)" overflow="visible" enable-background="accumulate" transform="translate(126.535 -.307)"/><path d="M216.249 112.163c-5.764 3.19-7.44 16.366-3.754 21.354 3.686 4.989 10.936 6.674 16.7 3.484 5.764-3.19 7.85-16.593 4.165-21.581-3.686-4.989-11.347-6.447-17.111-3.257z" style="marker:none" opacity=".414" fill="url(#ac)" overflow="visible" enable-background="accumulate" transform="translate(126.535 -.307)"/><path style="marker:none" d="M211.04 128.654c0 6.686 5.42 12.107 12.107 12.107 6.686 0 12.107-5.42 12.107-12.107 0-6.687-5.42-12.107-12.107-12.107-6.687 0-12.107 5.42-12.107 12.107z" fill="url(#ad)" overflow="visible" enable-background="accumulate" transform="translate(126.535 -.307)"/><path d="M236.204 69.758c0 8.069 6.542 14.61 14.61 14.61 8.07 0 14.611-6.541 14.611-14.61 0-8.07-6.541-14.61-14.61-14.61-8.07 0-14.61 6.54-14.61 14.61z" style="marker:none" transform="matrix(.78756 0 0 .78756 152.15 73.41)" fill="url(#ae)" overflow="visible" filter="url(#K)" enable-background="accumulate"/><path d="M253.5 67.237a1.125 1.125 0 1 1-2.25 0 1.125 1.125 0 0 1 2.25 0z" style="marker:none" transform="matrix(-1.04546 0 0 1.04546 613.53 48.969)" opacity=".98" fill="url(#af)" overflow="visible" filter="url(#M)" enable-background="accumulate"/><path transform="matrix(-.87525 0 0 .87525 570.573 60.413)" style="marker:none" d="M253.5 67.237a1.125 1.125 0 1 1-2.25 0 1.125 1.125 0 0 1 2.25 0z" opacity=".98" fill="url(#ag)" overflow="visible" filter="url(#O)" enable-background="accumulate"/></g></g><g fill="none" stroke="#000" stroke-linecap="round" stroke-linejoin="round"><path d="M89.912-12.546h29.66M89.912-8.545h32.19M89.912-.545h35.25M89.912-10.546h30.952M89.912-14.546h27.306M89.912-4.545h33.604M89.912-6.545h32.897M89.912-2.545h33.604" transform="matrix(1 0 -1.74286 1 67.243 24.693)"/></g><g fill="none" stroke="#000" stroke-linecap="round" stroke-linejoin="round"><path d="M89.912-12.546h29.66M89.912-8.545h32.19M89.912-.545h35.25M89.912-10.546h30.952M89.912-14.546h27.306M89.912-4.545h33.604M89.912-6.545h32.897M89.912-2.545h33.604" transform="matrix(1 0 -.6849 1 122.155 24.693)"/></g><path style="marker:none" color="#000" fill="#4d4d4d" stroke="url(#ah)" stroke-width="3.378" stroke-linecap="round" stroke-linejoin="round" overflow="visible" enable-background="accumulate" d="M-18.238 21.278h488.825v5.477H-18.238z" transform="translate(39.785 23.693)"/><g fill="#0f0" stroke="#4d4d4d" color="#000" stroke-width="2"><path style="marker:none" fill="#71c837" overflow="visible" enable-background="accumulate" d="M103.386 83.632h29.838v8.89h-29.838zM-11.5 83.632h29.838v8.89H-11.5z" transform="matrix(1 0 0 .44324 39.785 75.206)"/><path style="marker:none" fill="gray" overflow="visible" enable-background="accumulate" d="M218.272 83.632h29.838v8.89h-29.838zM65.091 83.632h29.838v8.89H65.091zM179.976 83.632h29.838v8.89h-29.838zM141.681 83.632h29.838v8.89h-29.838z" transform="matrix(1 0 0 .44324 39.785 75.206)"/></g><g style="line-height:125%;-inkscape-font-specification:URW Palladio L Medium" font-size="7.216" font-weight="400" letter-spacing="0" word-spacing="0" font-family="Arial"><path d="M29.917 104.363c0-.858.23-1.528.69-2.012.46-.486 1.055-.73 1.783-.73.477 0 .907.114 1.29.342.383.228.674.546.874.955.202.407.303.868.303 1.385 0 .524-.106.992-.317 1.406-.212.413-.511.727-.899.94a2.578 2.578 0 0 1-1.254.318c-.486 0-.921-.118-1.304-.353a2.267 2.267 0 0 1-.87-.962 2.915 2.915 0 0 1-.296-1.29m.705.011c0 .623.166 1.114.5 1.473a1.66 1.66 0 0 0 1.261.536c.515 0 .938-.181 1.269-.543.333-.362.5-.875.5-1.54 0-.42-.072-.787-.215-1.099a1.611 1.611 0 0 0-.624-.73 1.674 1.674 0 0 0-.92-.26c-.483 0-.9.167-1.25.5-.348.332-.521.886-.521 1.663M35.727 106.879v-5.166h.701l2.713 4.056v-4.056h.656v5.166h-.701l-2.714-4.06v4.06h-.655M40.392 106.967l1.498-5.342h.507l-1.494 5.342h-.51M42.742 104.363c0-.858.23-1.528.691-2.012.46-.486 1.055-.73 1.783-.73.477 0 .907.114 1.29.342.382.228.674.546.873.955.202.407.303.868.303 1.385 0 .524-.105.992-.317 1.406-.211.413-.51.727-.898.94a2.578 2.578 0 0 1-1.255.318c-.486 0-.92-.118-1.303-.353a2.267 2.267 0 0 1-.87-.962 2.915 2.915 0 0 1-.297-1.29m.705.011c0 .623.167 1.114.5 1.473a1.66 1.66 0 0 0 1.262.536c.514 0 .937-.181 1.268-.543.334-.362.5-.875.5-1.54 0-.42-.07-.787-.214-1.099a1.611 1.611 0 0 0-.624-.73 1.674 1.674 0 0 0-.92-.26c-.483 0-.9.167-1.25.5-.348.332-.522.886-.522 1.663M48.595 106.879v-5.166h3.485v.61h-2.801v1.6h2.424v.609h-2.424v2.347h-.684M53.007 106.879v-5.166h3.484v.61h-2.8v1.6h2.423v.609H53.69v2.347h-.683" style="-inkscape-font-specification:Arial"/></g><g style="line-height:125%;-inkscape-font-specification:URW Palladio L Medium" font-size="7.216" font-weight="400" letter-spacing="0" word-spacing="0" font-family="Arial"><path d="M112.388 106.879l1.984-5.166h.736l2.114 5.166h-.778l-.603-1.565h-2.16l-.567 1.565h-.726m1.49-2.122h1.752l-.54-1.43a14.134 14.134 0 0 1-.366-1.071c-.066.331-.158.66-.278.986l-.568 1.515M121.165 101.713h.684v2.985c0 .519-.059.931-.176 1.236-.118.306-.33.555-.638.747-.306.19-.707.286-1.205.286-.484 0-.88-.084-1.188-.25a1.429 1.429 0 0 1-.659-.723c-.131-.317-.197-.75-.197-1.296v-2.985h.684v2.981c0 .449.04.78.123.994a.96.96 0 0 0 .43.49c.204.115.453.172.747.172.503 0 .86-.114 1.074-.342.214-.228.321-.666.321-1.314v-2.98M122.465 106.879l1.998-2.692-1.762-2.474h.814l.938 1.325c.195.275.333.486.415.634.115-.188.252-.384.41-.588l1.039-1.37h.743l-1.815 2.434 1.956 2.73h-.846l-1.3-1.842a8.925 8.925 0 0 1-.225-.345 8.853 8.853 0 0 1-.247.387l-1.297 1.8h-.82" style="-inkscape-font-specification:Arial"/></g><g style="line-height:125%;-inkscape-font-specification:URW Palladio L Medium" font-size="7.216" font-weight="400" letter-spacing="0" word-spacing="0" font-family="Arial"><path d="M149.313 106.879l1.983-5.166h.737l2.114 5.166h-.779l-.602-1.565h-2.16l-.568 1.565h-.725m1.49-2.122h1.751l-.539-1.43a14.134 14.134 0 0 1-.366-1.071c-.066.331-.159.66-.279.986l-.567 1.515M158.09 101.713h.683v2.985c0 .519-.058.931-.176 1.236-.117.306-.33.555-.638.747-.305.19-.707.286-1.205.286-.484 0-.88-.084-1.187-.25a1.429 1.429 0 0 1-.659-.723c-.132-.317-.197-.75-.197-1.296v-2.985h.683v2.981c0 .449.041.78.124.994a.96.96 0 0 0 .43.49c.204.115.453.172.746.172.503 0 .861-.114 1.075-.342.214-.228.32-.666.32-1.314v-2.98M159.39 106.879l1.998-2.692-1.762-2.474h.814l.937 1.325c.195.275.334.486.416.634.115-.188.251-.384.409-.588l1.04-1.37h.743l-1.815 2.434 1.956 2.73h-.846l-1.3-1.842a8.925 8.925 0 0 1-.226-.345 8.852 8.852 0 0 1-.246.387l-1.297 1.8h-.821M166.867 106.879h-.634v-4.042a3.256 3.256 0 0 1-.603.437 4.198 4.198 0 0 1-.666.328v-.613a3.83 3.83 0 0 0 .93-.606c.266-.238.454-.468.564-.691h.409v5.187" style="-inkscape-font-specification:Arial"/></g><g style="line-height:125%;-inkscape-font-specification:URW Palladio L Medium" font-size="7.216" font-weight="400" letter-spacing="0" word-spacing="0" font-family="Arial"><path d="M187.136 106.879l1.983-5.166h.737l2.114 5.166h-.779l-.602-1.565h-2.16l-.568 1.565h-.725m1.49-2.122h1.751l-.539-1.43a14.134 14.134 0 0 1-.366-1.071c-.066.331-.159.66-.279.986l-.567 1.515M195.913 101.713h.683v2.985c0 .519-.058.931-.176 1.236-.117.306-.33.555-.638.747-.305.19-.707.286-1.205.286-.484 0-.88-.084-1.187-.25a1.429 1.429 0 0 1-.659-.723c-.132-.317-.197-.75-.197-1.296v-2.985h.683v2.981c0 .449.041.78.124.994a.96.96 0 0 0 .43.49c.204.115.453.172.746.172.503 0 .861-.114 1.075-.342.214-.228.32-.666.32-1.314v-2.98M197.213 106.879l1.998-2.692-1.762-2.474h.814l.937 1.325c.195.275.334.486.416.634.115-.188.251-.384.409-.588l1.04-1.37h.743l-1.815 2.434 1.956 2.73h-.846l-1.3-1.842a8.925 8.925 0 0 1-.226-.345 8.854 8.854 0 0 1-.246.387l-1.297 1.8h-.821M205.634 106.27v.609h-3.414c-.005-.153.02-.3.074-.44.087-.233.225-.462.416-.688.192-.225.47-.486.831-.782.562-.46.941-.825 1.138-1.092.198-.27.296-.525.296-.765a.84.84 0 0 0-.271-.634c-.179-.174-.412-.261-.701-.261-.306 0-.55.092-.733.275-.183.183-.276.437-.278.76l-.652-.066c.044-.486.212-.856.504-1.11.29-.256.682-.384 1.173-.384.496 0 .888.137 1.177.412.289.275.433.616.433 1.022 0 .207-.042.41-.127.61-.084.2-.225.41-.423.63-.195.221-.52.524-.976.91-.38.319-.624.536-.732.651a2.028 2.028 0 0 0-.268.342h2.533" style="-inkscape-font-specification:Arial"/></g><g style="line-height:125%;-inkscape-font-specification:URW Palladio L Medium" font-size="7.216" font-weight="400" letter-spacing="0" word-spacing="0" font-family="Arial"><path d="M225.096 105.068l.684.172c-.144.562-.402.99-.775 1.286-.372.294-.826.44-1.364.44-.557 0-1.01-.112-1.36-.338-.348-.227-.613-.556-.796-.986a3.534 3.534 0 0 1-.272-1.385c0-.538.102-1.006.307-1.406.206-.401.499-.706.877-.912.38-.21.799-.314 1.254-.314.517 0 .952.132 1.304.395.353.263.598.633.737 1.11l-.673.158c-.12-.376-.294-.65-.522-.82-.228-.172-.514-.258-.86-.258-.397 0-.729.095-.997.285a1.51 1.51 0 0 0-.56.768 3.07 3.07 0 0 0-.162.99c0 .44.063.824.19 1.153.13.326.329.57.6.733.27.162.562.243.877.243.382 0 .707-.11.972-.331.265-.221.445-.549.54-.983M226.625 106.879v-5.166h1.78c.401 0 .708.025.92.074.295.068.548.192.757.37.272.23.476.525.61.885.136.357.204.765.204 1.226 0 .392-.046.74-.138 1.043-.091.303-.209.554-.352.754-.143.197-.3.353-.472.468a1.92 1.92 0 0 1-.617.258c-.24.058-.515.088-.828.088h-1.864m.684-.61h1.103c.34 0 .607-.032.8-.095.195-.063.35-.153.465-.268.162-.162.287-.38.377-.652.091-.275.137-.607.137-.997 0-.54-.09-.955-.268-1.244-.176-.29-.39-.486-.644-.585-.184-.07-.478-.105-.885-.105h-1.085v3.946M231.283 106.967l1.498-5.342h.507l-1.494 5.342h-.51M233.842 106.879v-5.166h1.779c.402 0 .708.025.92.074.296.068.548.192.757.37.273.23.476.525.61.885.136.357.204.765.204 1.226 0 .392-.046.74-.137 1.043-.092.303-.21.554-.353.754-.143.197-.3.353-.472.468a1.92 1.92 0 0 1-.616.258c-.24.058-.516.088-.829.088h-1.863m.683-.61h1.103c.34 0 .607-.032.8-.095.195-.063.35-.153.465-.268.162-.162.288-.38.377-.652.092-.275.137-.607.137-.997 0-.54-.089-.955-.267-1.244-.177-.29-.392-.486-.645-.585-.183-.07-.478-.105-.885-.105h-1.085v3.946M240.533 106.879l-2.002-5.166h.74l1.343 3.753c.108.3.198.582.271.845.08-.282.173-.563.278-.845l1.396-3.753h.697l-2.022 5.166h-.701M243.877 106.879v-5.166h1.779c.402 0 .708.025.92.074.296.068.548.192.757.37.273.23.476.525.61.885.136.357.204.765.204 1.226 0 .392-.046.74-.137 1.043-.092.303-.21.554-.353.754-.143.197-.3.353-.472.468a1.92 1.92 0 0 1-.616.258c-.24.058-.516.088-.828.088h-1.864m.683-.61h1.103c.34 0 .607-.032.8-.095.195-.063.35-.153.465-.268.162-.162.288-.38.377-.652.092-.275.137-.607.137-.997 0-.54-.089-.955-.267-1.244-.177-.29-.392-.486-.645-.585-.183-.07-.478-.105-.885-.105h-1.085v3.946" style="-inkscape-font-specification:Arial"/></g><g style="line-height:125%;-inkscape-font-specification:URW Palladio L Medium" font-size="7.216" font-weight="400" letter-spacing="0" word-spacing="0" font-family="Arial"><path d="M262.371 106.879v-4.556h-1.702v-.61h4.095v.61h-1.71v4.556h-.683M268.858 101.713h.684v2.985c0 .519-.059.931-.177 1.236-.117.306-.33.555-.637.747-.306.19-.707.286-1.205.286-.484 0-.88-.084-1.188-.25a1.43 1.43 0 0 1-.659-.723c-.131-.317-.197-.75-.197-1.296v-2.985h.684v2.981c0 .449.04.78.123.994a.961.961 0 0 0 .43.49c.204.115.453.172.747.172.502 0 .86-.114 1.074-.342.214-.228.321-.666.321-1.314v-2.98M270.676 106.879v-5.166h.701l2.714 4.056v-4.056h.655v5.166h-.701l-2.713-4.06v4.06h-.656M275.912 106.879v-5.166h3.735v.61h-3.051v1.582h2.857v.606h-2.857v1.758h3.17v.61h-3.854M280.729 106.879v-5.166h2.29c.46 0 .81.047 1.05.141.24.092.431.255.575.49.143.235.214.494.214.779a1.3 1.3 0 0 1-.355.926c-.238.252-.604.411-1.1.48.181.086.319.172.412.257.2.183.39.412.568.687l.898 1.406h-.86l-.683-1.075c-.2-.31-.364-.547-.493-.712a1.529 1.529 0 0 0-.35-.345 1.005 1.005 0 0 0-.31-.138 2.054 2.054 0 0 0-.38-.024h-.793v2.294h-.683m.683-2.886h1.47c.312 0 .556-.032.733-.095a.792.792 0 0 0 .401-.31.847.847 0 0 0 .138-.465.768.768 0 0 0-.268-.603c-.176-.157-.456-.236-.839-.236h-1.635v1.709" style="-inkscape-font-specification:Arial"/></g></svg>