<svg version="1.1" viewBox="0 0 256 256" xmlns="http://www.w3.org/2000/svg" xmlns:xlink="http://www.w3.org/1999/xlink"><defs><linearGradient id="b"><stop stop-color="#fff" offset="0"/><stop stop-color="#fff" stop-opacity="0" offset="1"/></linearGradient><linearGradient id="d"><stop offset="0"/><stop stop-opacity="0" offset="1"/></linearGradient><linearGradient id="c"><stop stop-color="#fff" offset="0"/><stop stop-color="#484848" offset=".60741"/><stop stop-color="#242424" offset=".78189"/><stop offset="1"/></linearGradient><linearGradient id="a"><stop stop-color="#fff" offset="0"/><stop stop-color="#fff" offset=".23813"/><stop stop-color="#fff" offset=".44186"/><stop stop-color="#c8c8c8" offset=".72713"/><stop stop-color="#969696" offset="1"/></linearGradient><filter id="ac" color-interpolation-filters="sRGB"><feGaussianBlur stdDeviation="0.38650542"/></filter><radialGradient id="t" cx="613.16" cy="665.47" r="100.01" gradientUnits="userSpaceOnUse" xlink:href="#d"/><radialGradient id="s" cx="-311.03" cy="-1.0198" r="104.29" gradientTransform="matrix(.34365 0 0 .34365 -224.9 30.452)" gradientUnits="userSpaceOnUse" xlink:href="#a"/><radialGradient id="r" cx="1160.8" cy="738.28" r="27.416" gradientTransform="matrix(1.9546 1.1373 -1.6777 2.9287 458.98 -2785.3)" gradientUnits="userSpaceOnUse" xlink:href="#a"/><radialGradient id="q" cx="1138.7" cy="686.42" r="8.8119" gradientTransform="matrix(2.7363 .73895 -4.2488 15.981 1266.1 -11221)" gradientUnits="userSpaceOnUse" xlink:href="#a"/><radialGradient id="p" cx="1242.4" cy="656" r="43.088" gradientTransform="matrix(2.4112 0 0 .50572 -1427.9 283.74)" gradientUnits="userSpaceOnUse" xlink:href="#a"/><radialGradient id="o" cx="1275.4" cy="648.63" r="39.687" gradientTransform="matrix(2.516 0 0 1.365 -1669.9 -234.82)" gradientUnits="userSpaceOnUse" xlink:href="#a"/><radialGradient id="n" cx="1260.8" cy="810.87" r="43.154" gradientTransform="matrix(.98454 0 0 .19311 315.39 638.18)" gradientUnits="userSpaceOnUse" xlink:href="#a"/><radialGradient id="m" cx="1201.1" cy="631.4" r="32.678" gradientTransform="matrix(.90348 1.5772 -1.6041 .93338 1424.4 -1824.3)" gradientUnits="userSpaceOnUse" xlink:href="#a"/><radialGradient id="l" cx="1317.1" cy="705.89" r="27.416" gradientTransform="matrix(1.6331 0 0 2.7551 -547.91 -1280.6)" gradientUnits="userSpaceOnUse" xlink:href="#a"/><radialGradient id="k" cx="1282.7" cy="750.49" r="44.362" gradientTransform="matrix(1.3967 -.49528 .23941 .68578 -398.56 862.76)" gradientUnits="userSpaceOnUse" xlink:href="#a"/><radialGradient id="j" cx="1293.3" cy="670.74" r="39.687" gradientTransform="matrix(1.2225 -.71134 .7423 1.2958 -493.67 712.28)" gradientUnits="userSpaceOnUse" xlink:href="#a"/><radialGradient id="i" cx="1210.3" cy="719.57" r="44.362" gradientTransform="matrix(1.5719 .31954 -.2396 1.1973 -218.92 -545.86)" gradientUnits="userSpaceOnUse" xlink:href="#a"/><radialGradient id="h" cx="1229.2" cy="684.07" r="44.385" gradientTransform="matrix(1.5391 .047905 -.02858 .93268 -344.76 -24.961)" gradientUnits="userSpaceOnUse" xlink:href="#a"/><radialGradient id="g" cx="447.12" cy="70.933" r="115.89" gradientTransform="matrix(-.99384 0 0 .98141 846.27 .2741)" gradientUnits="userSpaceOnUse" xlink:href="#a" spreadMethod="reflect"/><radialGradient id="f" cx="-298.16" cy="181.32" r="104.29" gradientTransform="matrix(.96552 0 0 .9528 1586.9 662.41)" gradientUnits="userSpaceOnUse" xlink:href="#d"/><linearGradient id="ab" x1="1226.6" x2="1276.7" y1="649.74" y2="710.1" gradientTransform="matrix(1.4895 0 0 1.4895 -595.83 -352.23)" gradientUnits="userSpaceOnUse" xlink:href="#b"/><linearGradient id="aa" x1="1216.5" x2="1182.8" y1="682.94" y2="715.08" gradientTransform="matrix(1.4895 0 0 1.4895 -595.69 -353.51)" gradientUnits="userSpaceOnUse" xlink:href="#b"/><linearGradient id="z" x1="1253.3" x2="1300" y1="665.6" y2="677.02" gradientTransform="matrix(.91406 -.075947 .052178 1.3304 109.03 -147.77)" gradientUnits="userSpaceOnUse" xlink:href="#b"/><linearGradient id="y" x1="1198.7" x2="1214.7" y1="687.96" y2="738.68" gradientTransform="matrix(1.4895 0 0 1.4895 -594.76 -351.16)" gradientUnits="userSpaceOnUse" xlink:href="#b"/><linearGradient id="x" x1="1283" x2="1335.5" y1="695.85" y2="692.57" gradientTransform="translate(-.88887 1.4519)" gradientUnits="userSpaceOnUse" xlink:href="#b"/><linearGradient id="w" x1="1496.4" x2="1517.8" y1="843.25" y2="797.79" gradientTransform="translate(-296.1 -7.6395)" gradientUnits="userSpaceOnUse" xlink:href="#c"/><radialGradient id="e" cx="1246.3" cy="639.34" r="37.397" gradientTransform="matrix(1.9536 0 0 1.1573 -1189.5 -102.1)" gradientUnits="userSpaceOnUse" xlink:href="#c"/><linearGradient id="v" x1="514.3" x2="496.77" y1="210.21" y2="195.56" gradientTransform="translate(817.81 574.53)" gradientUnits="userSpaceOnUse" xlink:href="#c"/><linearGradient id="u" x1="1616.3" x2="1644.3" y1="673.86" y2="672.85" gradientTransform="translate(-296.1 -7.6395)" gradientUnits="userSpaceOnUse" xlink:href="#c"/></defs><g transform="translate(-1113.9 -582.17)"><path transform="matrix(1.1577 0 0 .25483 534.12 636.13)" d="m713.17 665.47a100.01 100.01 0 0 1-100.01 100.01 100.01 100.01 0 0 1-100.01-100.01 100.01 100.01 0 0 1 100.01-100.01 100.01 100.01 0 0 1 100.01 100.01z" fill="url(#t)" opacity=".8"/><path transform="matrix(1.1024 0 0 1.0879 1628 635.89)" d="m-248.57 61.714a104.29 104.29 0 0 1-104.29 104.29 104.29 104.29 0 0 1-104.29-104.29 104.29 104.29 0 0 1 104.29-104.29 104.29 104.29 0 0 1 104.29 104.29z" fill="url(#s)"/><g transform="translate(-296.1 -7.6395)"><path d="m1431.9 722.44c-3.7226 5.7986-6.4751 12.312-7.5002 19.147 5.6257 26.67 22.737 47.754 46.573 61.741-0.9848-7.2974 3.479-13.124 7.4104-18.785-7.8215-12.945-14.231-26.732-19.716-40.829-11.248-4.1582-19.904-11.574-26.767-21.274z" fill="url(#r)"/><path d="m1438.9 649.26c-15.968 22.16-23.147 73.155-11.863 101.34-4.2765-10.896-1.355-19.928 4.453-29.415-1.7484-15.647 1.6351-30.716 7.4104-45.129-1.4321-8.8472-1.5106-17.967 0-26.797z" fill="url(#q)"/><path d="m1472.7 614.97c10.167-3.9963 20.19-6.508 31.048-7.2511 25.182-10.814 52.739-4.7973 52.912-8.3271-11.205-2.6253-46.967-5.5319-83.96 15.578z" fill="url(#p)"/><path d="m1548.5 599.91c11.535 3.6407 19.88 11.611 26.767 21.274 13.8 5.2474 26.988 12.142 39.432 20.097 3.8336-2.8303 6.6637-3.4904 10.518 0.29199-12.668-19.406-49.579-43.968-76.718-41.664z" fill="url(#o)"/><path d="m1587 806.9s-29.879 10.336-43.969 9.4441c-3.9331 5.1019-8.134 7.1443-8.134 7.1443 0.2062 2.2681 34.983-3.235 55.955-13.896-2.8022 1.0144-3.443-3.1011-3.8519-2.6923z" fill="url(#n)"/><path d="m1439.7 648.09c-1.6653 8.8214-1.2813 17.951 0 26.797 9.5085-6.1763 20.337-6.7938 31.303-6.6087 9.7446-11.982 20.482-23.167 31.932-33.496-2.5048-8.9045-3.0137-17.589 0-26.344-32.909-0.11175-45.986 17.003-63.236 39.652z" fill="url(#m)"/><path d="m1627.3 684.53c-8.6511 7.7424-17.859 14.834-27.216 21.682 1.3184 15.638-2.0684 30.585-7.4105 45.129 6.769 7.9215 13.392 15.975 19.716 24.262 9.9551-5.6258 19.277-12.577 26.767-21.274 4.2622-14.95 6.5952-30.435 7.5003-45.943-4.9704-8.9889-12.083-16.693-19.357-23.854z" fill="url(#l)"/><path d="m1591.6 752.44c-13.691 6.4139-28.403 7.9683-43.295 8.1024-7.6167 11.227-15.733 22.119-24.342 32.59 6.4519 7.9221 12.538 16.204 19.357 23.809 14.926-1.0859 29.738-3.9466 44.058-8.2834 9.868-9.0384 17.419-20.318 23.938-31.957-6.3003-8.3056-12.966-16.325-19.716-24.262z" fill="url(#k)"/><path d="m1575.3 622.05c-8.5103 7.6271-17.73 14.312-26.767 21.274 4.5315 13.798 8.5924 27.758 12.216 41.824 14.307 3.7599 26.912 10.979 38.714 19.735 9.4023-6.792 18.516-13.999 27.216-21.682-2.2076-14.124-6.2652-27.967-11.946-41.055-12.374-8.0952-25.702-14.701-39.432-20.097z" fill="url(#j)"/><path d="m1483.6 711.54c-7.4511 11.071-15.684 21.498-23.938 31.957 5.3325 14.17 12.048 27.805 19.716 40.829 14.162 3.9128 28.707 6.5067 43.295 8.1476 8.6601-10.432 16.676-21.401 24.342-32.59-8.8697-12.146-14.408-25.959-19.357-40.059-14.702-2.6742-29.4-5.3724-44.058-8.2834z" fill="url(#i)"/><path d="m1503.8 635.49c-11.523 10.255-22.117 21.583-31.932 33.496 4.4432 13.559 7.9925 27.364 11.992 41.055 14.655 2.9255 29.357 5.6081 44.058 8.2834 8.7975-12.566 19.772-23.019 31.348-32.907-3.5992-14.073-7.6998-28.023-12.216-41.824-14.321-3.1292-28.734-6.0438-43.25-8.1023z" fill="url(#h)"/></g><path d="m1320.2 636.21c5.7283 12.601 9.238 26.133 11.599 39.744 7.0692 6.9306 13.958 14.396 18.794 23.093 3.7774-21.663-9.0241-48.203-21.714-65.273-3.9571-1.1214-5.4913 0.31404-8.6794 2.436z" fill="url(#u)"/><path d="m1342.4 749.03c-7.1102 8.5901-16.48 14.98-26 20.594-6.1006 11.451-13.869 21.986-23.219 30.938 0.8789 0.72723 1.6154 1.1319 2.3125 1.3125 19.434-10.842 35.332-27.116 45.625-46.719 0.01-0.0207 0.023-0.0419 0.031-0.0625 0.9671-2.4641 1.4217-4.5344 1.25-6.0625z" fill="url(#v)"/><path d="m1143.8 669.05c-6.5045 13.773-7.992 28.67-7.1948 43.688 6.0671 10.037 15.607 15.91 25.989 20.595 8.3645-9.8511 15.683-20.469 23.242-30.937-3.553-13.353-7.6916-26.51-11.642-39.744-10.776-0.91607-20.899 1.2426-30.393 6.3977z"/><path d="m1264.4 680.33c-11.783 9.0287-21.34 20.217-30.437 31.857 4.0726 14.009 10.92 26.629 18.794 38.78 14.625 0.78108 28.532-2.5548 42.036-7.8437 6.1351-13.891 7.5265-28.691 7.1949-43.688-11.032-9.2483-24.084-14.689-37.588-19.105z"/><path d="m1183.5 778.18c-3.9923 5.4205-7.3998 10.982-7.453 17.777 18.109 12.047 37.465 18.913 60.533 19.13 2.7618-0.95223 5.2301-4.0935 7.2925-5.9137-6.5466-8.0819-10.952-14.195-17.164-22.571-14.566-1.6538-29.068-4.4203-43.208-8.4224z" fill="url(#w)"/><path d="m1334.2 681.03c-7.503 6.5476-17.973 15.114-26.032 20.958l0.14 5.0272c9.8711-6.5459 20.879-14.902 26.397-23.839z" fill="url(#x)"/><path d="m1189.8 707.67-3.817 6.2848c13.983 6.7043 40.224 12.124 49.02 12.342l-3.9227-10.636c-13.709-2.4998-27.607-5.3012-41.28-7.991z" fill="url(#y)"/><path d="m1320.5 636.58c0.1144 0.72443 5.948 10.539 11.65 39.454 0 0-3.4925-28.323-9.435-41.404-2.9246 0.51031-2.2148 1.95-2.2148 1.95z" fill="url(#z)"/><path d="m1143.9 669.79c5.4591 15.616 18.15 29.178 35.33 38.774l4.9807-6.8425c-3.4288-12.76-7.3938-25.34-11.218-37.983-10.306-0.89577-19.999 1.1738-29.092 6.0512z" fill="url(#aa)"/><path d="m1265.3 681.93c-11.325 8.613-20.492 19.325-29.232 30.442 1.3935 4.2017 2.8914 8.3511 4.6081 12.428 23.02-0.1217 44.189-5.8489 60.931-15.407l-0.1862-9.2165c-10.609-8.8257-23.145-14.035-36.121-18.247z" fill="url(#ab)"/><path transform="matrix(.99433 0 0 1.0009 819.55 575.02)" d="m421.91 15.031c-19.631 0-38.112 4.8872-54.25 13.5 0.22426-0.02853 0.43093-0.02329 0.59375 0 7.2898-1.6977 14.684-3.0123 22.094-3.625 12.423-5.8402 26.492-9.49 40.219-8.4051 0.80245-1.1142 3.706-0.32547 5.875-0.56365-4.7653-0.59824-9.6014-0.90625-14.531-0.90625zm22.688 2.2188c-3.0603 0.33314-6.8819 1.0078-5.2812 2.3438 9.9815 3.3277 18.328 10.385 24.031 18.969 12.948 4.9333 25.478 11.002 37.156 18.375 2.0032-1.5249 4.9189-3.2539 7.5312-3.2188-16.21-18.347-38.335-31.475-63.438-36.469zm-59.312 11.5c-8.8183 0.5554-17.677 2.0785-26.094 4.7812-13.66 8.874-25.271 20.58-34 34.25-0.99564 7.1979-0.66231 14.592 0.46875 21.75 8.7472-5.4584 19.339-6.6176 29.5-6.0938 9.2876-10.869 19.306-21.199 30.125-30.625-1.9935-7.8613-3.507-16.378 0-24.062zm78.062 14.25c-8.1178 6.871-16.66 13.185-25.281 19.438 4.2299 12.619 8.1651 25.352 11.531 38.219 13.232 3.6822 25.759 9.6645 36.531 18.062 8.788-6.3019 17.52-12.715 25.656-19.812-2.1164-12.897-5.8654-25.616-11.281-37.562-11.662-7.3349-24.199-13.51-37.156-18.344zm-73.438 13.375c-10.875 9.3681-20.883 19.686-30.125 30.594 4.0547 12.43 7.6337 24.984 11.281 37.531 13.827 2.6757 27.725 5.137 41.594 7.5938 8.4316-11.303 18.421-21.355 29.562-30.125-3.367-12.866-7.3317-25.6-11.562-38.219-13.481-2.9207-27.096-5.3696-40.75-7.375zm-69.125 18.906c-8.3928 15.705-13.125 33.601-13.125 52.594 0 7.5299 0.73178 14.883 2.1562 22 0.65433-4.1974 1.9563-7.634 4.5938-13.938-1.3282-13.845 1.2034-28.003 7-40.688-1.0244-6.5339-1.3313-13.34-0.625-19.969zm194.31 30.25c-8.1622 7.065-16.824 13.569-25.656 19.812 0.94419 14.054-1.45 28.246-7 41.25 6.3308 7.2948 12.665 14.606 18.594 22.219 9.2652-5.2567 18.273-11.463 25.25-19.469 3.872-13.691 6.376-27.837 7.0625-42.031-4.6649-8.1424-11.425-15.294-18.25-21.781zm20.428 21.906c-0.10727 0.38736-0.22037 0.76592-0.3125 1.1562-0.73299 11.489-2.4788 22.957-5.2812 34.156 3.6107-10.983 5.5938-22.703 5.5938-34.875 0-0.15373 6.3e-4 -0.28391 0-0.4375zm-165.74 4.5625c-7.2033 9.9726-14.525 19.81-22.531 29.188 5.0638 12.936 11.297 25.501 18.594 37.375 13.347 3.5792 27.065 5.8719 40.812 7.4062 8.1555-9.548 15.749-19.542 22.969-29.781-8.1015-11.171-13.947-23.66-18.25-36.656-13.861-2.4817-27.769-4.8615-41.594-7.5312zm-53.125 10.844c-2.2465 3.6383-4.4875 7.6048-5.7812 11.75 5.5888 22.716 18.127 42.772 35.281 57.781 0.0109 0.01 0.0202-0.01 0.0312 0 2.3463 1.6131 4.7822 3.1412 7.3438 4.4375-1.0897-6.5468 3.3067-12.168 6.9375-17.219-7.3032-11.852-13.425-24.394-18.562-37.281-10.16-3.9348-19.402-10.309-25.25-19.469zm160.44 29.156c-12.79 5.5926-26.854 7.7983-40.812 7.4375-7.2474 10.223-14.835 20.245-22.969 29.812 5.9516 7.3609 12.043 14.604 18.25 21.75 14.056-1.0786 28.083-3.4989 41.562-7.5625 9.1715-8.328 16.519-18.525 22.531-29.219-5.9036-7.6328-12.22-14.934-18.562-22.219zm-5.0179 54.33c-13.481 4.0403-27.868 6.8097-41.92 7.8884-0.98537 3.3012-3.6795 5.0453-7.9955 6.5893 17.107 5e-3 37.197-4.835 53.264-13.063-0.87445-0.33829-2.5487-0.72947-3.3487-1.4149z" color="#000000" fill="url(#g)" filter="url(#ac)" opacity=".8"/><path d="m1354 703.03c0 62.657-51.472 113.45-114.97 113.45-63.494 0-114.97-50.794-114.97-113.45 0-62.657 51.472-113.45 114.97-113.45 63.494 0 114.97 50.794 114.97 113.45z" fill="url(#f)"/><path d="m1209.2 600.39c-3.5802 8.3344-1.8483 16.982 0 25.503 14.066 2.1592 28.115 4.6599 41.992 7.8437 9.0087-6.4471 17.462-13.539 25.989-20.595-6.1359-10.028-15.3-16.353-25.989-20.595-14.65-1.4134-28.658 2.053-41.992 7.8437z" fill="url(#e)"/></g></svg>
