<svg version="1.1" viewBox="0 0 1000 1000" xmlns="http://www.w3.org/2000/svg"><g transform="translate(690.67 224.72)"><path d="m-231.17-132.62c-55.627 0-111.28 14.394-161.09 43.156-24.7 14.26-47.038 31.533-66.688 51.188l35.312 35.344c16.607-16.608 35.486-31.19 56.375-43.25 42.118-24.317 89.117-36.469 136.09-36.469s93.944 12.152 136.06 36.469c20.889 12.06 39.768 26.642 56.375 43.25l35.344-35.312c-19.657-19.667-42.006-36.951-66.719-51.219-49.818-28.763-105.44-43.156-161.06-43.156zm0 101.44c-38.115 0-76.248 9.8591-110.38 29.562-16.92 9.7686-32.226 21.597-45.688 35.062l35.344 35.344c10.411-10.407 22.248-19.564 35.344-27.125 26.427-15.258 55.91-22.875 85.375-22.875s58.917 7.6174 85.344 22.875c13.102 7.5647 24.929 16.743 35.344 27.156l35.344-35.344c-13.465-13.472-28.761-25.321-45.687-35.094-34.127-19.703-72.229-29.562-110.34-29.562zm0 101.41c-20.603 0-41.22 5.3246-59.656 15.969-9.146 5.2804-17.408 11.683-24.688 18.969l35.344 35.344c4.2256-4.2177 9.028-7.9309 14.344-11 10.736-6.1984 22.703-9.2812 34.656-9.2812s23.889 3.0829 34.625 9.2812c5.3223 3.0728 10.114 6.8072 14.344 11.031l35.375-35.375c-7.2835-7.2922-15.566-13.684-24.719-18.969-18.436-10.644-39.022-15.969-59.625-15.969z" color="#000000" fill="#505045" style="block-progression:tb;text-indent:0;text-transform:none"/><path d="m-485.17 173.96c-7.1331 0-12.895 5.7347-12.895 12.868v371.56c0 7.1331 5.7976 13.58 12.895 12.868 41.757 3.3579 40.19 50.141 75.189 58.532 3.799 0.82713 7.788 1.3086 11.886 1.3086h333.85c4.0984 0 8.0949-0.47862 11.886-1.3086 39.25-9.5338 37.519-58.791 75.189-58.532 7.1328 0.0642 12.895-5.7347 12.895-12.868v-29.907c87.832 0 159.59-71.761 159.59-159.59 0-87.832-71.761-159.59-159.59-159.59v-22.464c0-7.1331-5.762-12.868-12.895-12.868zm520.9 87.676c59.544 0 107.25 47.706 107.25 107.25 0 59.544-47.706 107.25-107.25 107.25z" color="#000000" fill="#25221b"/><text x="-371.66711" y="286.64795" fill="#ffffff" font-family="sans-serif" font-weight="bold" letter-spacing="0px" word-spacing="0px" style="line-height:0%" xml:space="preserve"><tspan x="-371.66711" y="286.64795" fill="#ffffff" font-family="sans-serif" font-size="100px" style="line-height:1.25">FREE</tspan></text><text x="-421.56946" y="560.93359" fill="#ffffff" font-family="sans-serif" font-weight="bold" letter-spacing="0px" word-spacing="0px" style="line-height:0%" xml:space="preserve"><tspan x="-421.56946" y="560.93359" fill="#ffffff" font-family="sans-serif" font-size="100px" style="line-height:1.25">INSIDE</tspan></text><g transform="translate(-2.7219e-6 16.056)"><path d="m-218.97 297.91c-9.0523 0-16.375 7.354-16.375 16.406s7.3227 16.375 16.375 16.375 16.406-7.3227 16.406-16.375-7.354-16.406-16.406-16.406zm-219.81 8.7812c-3.2229-3e-3 -6.4061 1.5353-8.4062 4.0625-2.0002 2.5272-2.7748 5.989-2.0312 9.125l27.406 115.22c1.1008 4.6562 5.653 8.2543 10.438 8.25h23.656c4.7845 4e-3 9.3367-3.5938 10.438-8.25l22.594-95.625 22.844 95.656c1.1104 4.6347 5.6404 8.2124 10.406 8.2188h23.688c4.7845 4e-3 9.3367-3.5938 10.438-8.25l27.188-115.22c0.74356-3.136-0.0311-6.5978-2.0312-9.125-2.0002-2.5272-5.1833-4.0659-8.4062-4.0625h-11.5c-4.7845-4e-3 -9.3367 3.5938-10.438 8.25l-21.625 91.062-21.5-91.062c-1.1008-4.6562-5.653-8.2543-10.438-8.25h-16.969c-4.7845-4e-3 -9.3367 3.5938-10.438 8.25l-21.5 91.062-21.625-91.062c-1.1008-4.6562-5.653-8.2543-10.438-8.25h-11.75zm214.16 34.156a10.715 10.715 0 0 0-10.719 10.719v81.062a10.715 10.715 0 0 0 10.719 10.719h11.344a10.715 10.715 0 0 0 10.719-10.719v-81.062a10.715 10.715 0 0 0-10.719-10.719h-11.344z" color="#000000" fill="#ff2a2a"/><g fill="#fff"><path transform="matrix(.99769 0 0 .99769 200.23 5.1504)" d="m-210.71 309.86a16.429 16.429 0 0 1-16.429 16.429 16.429 16.429 0 0 1-16.429-16.429 16.429 16.429 0 0 1 16.429-16.429 16.429 16.429 0 0 1 16.429 16.429z" color="#000000"/><path d="m-158.72 306.69c-2.8064-8.9e-4 -5.5959 1.154-7.5803 3.1384-1.9844 1.9844-3.1393 4.7739-3.1384 7.5803v115.22c-8.9e-4 2.8064 1.154 5.5959 3.1384 7.5803 1.9844 1.9844 4.7739 3.1393 7.5803 3.1384h13.812c2.8064 8.9e-4 5.5959-1.154 7.5803-3.1384 1.9844-1.9844 3.1393-4.7739 3.1384-7.5803v-29.781-17.438h45.562c2.8064 8.9e-4 5.5959-1.154 7.5803-3.1384 1.9844-1.9844 3.1393-4.7739 3.1385-7.5803v-5.1875c8.89e-4 -2.8064-1.154-5.5959-3.1385-7.5803-1.9844-1.9844-4.7739-3.1393-7.5803-3.1384h-45.562v-25.438h49.125c2.8064 8.9e-4 5.5959-1.154 7.5803-3.1384 1.9844-1.9844 3.1393-4.7739 3.1385-7.5803v-5.2188c8.89e-4 -2.8064-1.154-5.5959-3.1385-7.5803-1.9844-1.9844-4.7739-3.1393-7.5803-3.1384z"/><path d="m-32.062 340.84a10.715 10.715 0 0 0-10.719 10.719v81.062a10.715 10.715 0 0 0 10.719 10.719h11.344a10.715 10.715 0 0 0 10.719-10.719v-81.062a10.715 10.715 0 0 0-10.719-10.719h-11.344z"/></g></g><path d="m-622.51-224.72c-36.937 0-68.156 31.25-68.156 68.188v863.66c0 36.937 31.219 68.156 68.156 68.156h863.66c36.937 0 68.188-31.219 68.188-68.156v-863.66c0-36.937-31.25-68.188-68.188-68.188h-863.66zm23.75 50h816.16c22.83 0 41.938 19.108 41.938 41.938v816.16c0 22.83-19.108 41.906-41.938 41.906h-816.16c-22.83 0-41.906-19.076-41.906-41.906v-816.16c0-22.83 19.076-41.938 41.906-41.938z" color="#000000" fill="#505045" style="block-progression:tb;text-indent:0;text-transform:none"/></g></svg>
