<svg version="1.1" viewBox="0 0 256 256" xmlns="http://www.w3.org/2000/svg" xmlns:xlink="http://www.w3.org/1999/xlink"><defs><linearGradient id="a"><stop offset="0"/><stop stop-color="#cccccf" stop-opacity=".94118" offset=".5"/><stop stop-color="#fff" offset="1"/></linearGradient><linearGradient id="b"><stop stop-color="#fff" offset="0"/><stop stop-color="#ccc" offset=".5"/><stop offset="1"/></linearGradient><filter id="c" color-interpolation-filters="sRGB"><feGaussianBlur stdDeviation="0.87216586"/></filter><filter id="o"><feGaussianBlur stdDeviation="1.1408297"/></filter><filter id="n"><feGaussianBlur stdDeviation="1.1408297"/></filter><radialGradient id="g" cx="-21.857" cy="573.7" r="89.307" gradientTransform="matrix(.66514 .38402 -.33841 .58615 60.846 237.36)" gradientUnits="userSpaceOnUse" xlink:href="#a" spreadMethod="reflect"/><radialGradient id="f" cx="-21.857" cy="573.7" r="89.307" gradientTransform="matrix(.77871 .44959 -.39619 .68623 96.478 181.37)" gradientUnits="userSpaceOnUse" xlink:href="#a" spreadMethod="reflect"/><linearGradient id="m" x1="-146.64" x2="-150.17" y1="499.35" y2="698.38" gradientTransform="matrix(.64538 0 0 .64538 -14.925 191.75)" gradientUnits="userSpaceOnUse" xlink:href="#b"/><linearGradient id="l" x1="-148.72" x2="-134.03" y1="548.94" y2="571.9" gradientTransform="matrix(.6884 0 0 .6884 -8.5952 167.35)" gradientUnits="userSpaceOnUse" xlink:href="#a" spreadMethod="reflect"/><linearGradient id="k" x1="-97.263" x2="28.432" y1="624.76" y2="624.76" gradientTransform="matrix(.70554 0 0 .70554 -118.96 156.21)" gradientUnits="userSpaceOnUse" xlink:href="#b" spreadMethod="reflect"/><radialGradient id="e" cx="-147.15" cy="567.3" r="86.837" gradientTransform="matrix(.85316 0 0 .85373 15.648 73.555)" gradientUnits="userSpaceOnUse" xlink:href="#a"/><linearGradient id="j" x1="-146.64" x2="-150.17" y1="499.35" y2="698.38" gradientTransform="matrix(.64538 0 0 .64538 -117.25 261.16)" gradientUnits="userSpaceOnUse" xlink:href="#b"/><linearGradient id="i" x1="-148.72" x2="-134.03" y1="548.94" y2="571.9" gradientTransform="matrix(.6884 0 0 .6884 -110.92 236.75)" gradientUnits="userSpaceOnUse" xlink:href="#a" spreadMethod="reflect"/><linearGradient id="h" x1="-97.263" x2="28.432" y1="624.76" y2="624.76" gradientTransform="matrix(.70554 0 0 .70554 -221.29 225.62)" gradientUnits="userSpaceOnUse" xlink:href="#b" spreadMethod="reflect"/><radialGradient id="d" cx="-147.15" cy="567.3" r="86.837" gradientTransform="matrix(.85316 0 0 .85373 -86.68 142.96)" gradientUnits="userSpaceOnUse" xlink:href="#a"/></defs><g transform="translate(287.71 -471.93)"><path d="m-242 471.93h164.57c25.325 0 45.714 20.388 45.714 45.714v164.57c0 25.325-20.388 45.714-45.714 45.714h-164.57c-25.325 0-45.714-20.388-45.714-45.714v-164.57c0-25.325 20.388-45.714 45.714-45.714z" fill="#999"/><g fill="#1a1a1a"><path d="m-241.99 471.93c-25.324 0-45.715 20.391-45.715 45.715v164.57c0 25.324 20.391 45.715 45.715 45.715h164.57c25.324 0 45.715-20.391 45.715-45.715v-164.57c0-25.324-20.391-45.715-45.715-45.715h-164.57zm5.1377 7.9785h154.29c23.745 0 42.874 19.13 42.874 42.874v154.29c0 23.745-19.13 42.854-42.874 42.854h-154.29c-23.745 0-42.854-19.11-42.854-42.854v-154.29c0-23.745 19.11-42.874 42.854-42.874z"/><path transform="matrix(.98071 0 0 .98071 .52551 11.847)" d="m-188.15 577.61c-3.2366 0.0157-6.0973 2.2098-7.4295 4.3798-1.4612 2.38-2.1759 4.9687-3.1415 7.4754-0.95787 2.4866-2.006 4.6672-3.646 6.2142-1.5591 1.4707-3.8627 2.5631-7.7047 2.5682-4.3806 5e-3 -6.7307-1.4481-8.3238-3.2791-1.7174-1.9738-2.7068-4.7042-3.7836-7.6359-1.0956-2.9832-2.0168-5.9093-4.7925-8.0257-2.6002-1.9826-6.6902-2.1343-11.603-0.0917-4.915 2.0436-7.734 5.015-8.1633 8.255-0.4586 3.4609 1.0219 6.2013 2.3619 9.0806 1.3113 2.8178 2.5857 5.4402 2.7746 8.0716 0.17479 2.4349-0.50801 5.1317-3.6001 8.2321-3.0926 3.1009-5.7621 3.7676-8.1862 3.6001-2.6148-0.18064-5.3065-1.3957-8.1404-2.7058-2.8888-1.3355-5.5768-2.8297-9.0347-2.3619-3.2405 0.43848-6.2511 3.2744-8.278 8.1862-2.027 4.9121-1.8333 9.0015 0.16052 11.603 2.1264 2.7745 5.0469 3.6843 8.0257 4.7696 2.924 1.0652 5.6481 2.017 7.6359 3.7377 1.8482 1.5998 3.2962 3.9929 3.302 8.3697 5e-3 4.3819-1.4722 6.7305-3.302 8.3238-1.9743 1.7192-4.6821 2.7049-7.613 3.7836-2.9854 1.0987-5.9108 2.0167-8.0257 4.7925-1.9797 2.5985-2.1337 6.7147-0.0917 11.626 2.042 4.9112 5.0358 7.7132 8.2779 8.1404 3.4542 0.45514 6.1421-1.0364 9.0347-2.3848 2.8352-1.3217 5.5115-2.5403 8.1175-2.7288 2.424-0.17531 5.0844 0.48368 8.1862 3.5772 3.0987 3.0904 3.814 5.7544 3.646 8.1862-0.18101 2.6191-1.4196 5.3067-2.7288 8.1404-1.3344 2.8884-2.8292 5.5994-2.3619 9.0576 0.43819 3.2423 3.2472 6.2264 8.1633 8.255 4.9127 2.0272 9.0265 1.8546 11.626-0.13761 2.7786-2.1296 3.6852-5.0264 4.7696-8.0028 1.064-2.9205 2.0111-5.6872 3.7377-7.6818 1.6049-1.8541 3.9993-3.2733 8.3697-3.2791 4.3767-5e-3 6.7274 1.4457 8.3238 3.2791 1.7208 1.9761 2.7084 4.6656 3.7836 7.59 1.0937 2.9751 2.0123 5.9086 4.7925 8.0257 2.6058 1.9844 6.6949 2.1553 11.603 0.11465 4.9104-2.0416 7.7339-5.0379 8.1633-8.278 0.4579-3.455-1.0401-6.1481-2.3848-9.0347-1.316-2.8251-2.5635-5.5-2.7517-8.1174-0.17483-2.4327 0.50819-5.109 3.6001-8.2092 3.092-3.1002 5.76-3.7678 8.1863-3.6001 2.6166 0.18083 5.305 1.3959 8.1404 2.7058 2.8949 1.3375 5.6058 2.8513 9.0576 2.3848 3.2357-0.43727 6.2258-3.2687 8.255-8.1862 2.0268-4.9117 1.832-9.0235-0.16051-11.626-2.125-2.7755-5.0174-3.6565-8.0028-4.7466-2.9265-1.0686-5.6702-2.0377-7.6588-3.7606-1.8539-1.6061-3.2732-3.9994-3.2791-8.3697-5e-3 -4.3768 1.4457-6.7274 3.2791-8.3238 1.9709-1.7162 4.6817-2.7289 7.613-3.8065 2.9816-1.0961 5.8871-1.9913 8.0028-4.7696 1.9844-2.6058 2.1553-6.6949 0.11466-11.603-2.0419-4.911-5.0372-7.7339-8.278-8.1633-3.4621-0.45875-6.1515 1.0201-9.0347 2.3619-2.8218 1.3132-5.4872 2.5858-8.1175 2.7746-2.4342 0.17474-5.0896-0.51177-8.1862-3.6001-3.0964-3.0881-3.8158-5.7471-3.646-8.1862 0.18185-2.6119 1.3926-5.3051 2.7058-8.1404 1.3398-2.8928 2.8497-5.5803 2.3848-9.0347-0.43622-3.241-3.2475-6.2265-8.1633-8.255-2.5089-1.0353-4.6251-1.5458-6.5811-1.5364zm-21.83 40.587c16.401 0 29.718 13.317 29.718 29.718s-13.316 29.741-29.718 29.741c-16.402 0-29.741-13.339-29.741-29.741 0-16.402 13.34-29.718 29.741-29.718z" filter="url(#n)"/><path transform="matrix(.98071 0 0 .98071 -6.2716 11.847)" d="m-83.811 506.83c-3.2366 0.0158-6.0973 2.2098-7.4295 4.3798-1.4612 2.38-2.1759 4.9687-3.1415 7.4754-0.95786 2.4866-2.006 4.6672-3.646 6.2142-1.5591 1.4707-3.8628 2.5631-7.7047 2.5682-4.3807 5e-3 -6.7307-1.4481-8.3238-3.2791-1.7174-1.9738-2.7068-4.7042-3.7836-7.6359-1.0956-2.9832-2.0167-5.9093-4.7925-8.0257-2.6002-1.9827-6.6902-2.1343-11.603-0.0917-4.9149 2.0435-7.734 5.015-8.1633 8.255-0.4586 3.4609 1.0219 6.2013 2.3618 9.0805 1.3114 2.8178 2.5858 5.4402 2.7746 8.0716 0.17479 2.4349-0.50799 5.1317-3.6001 8.2321-3.0926 3.1009-5.7621 3.7676-8.1862 3.6001-2.6148-0.18064-5.3066-1.3957-8.1404-2.7058-2.8888-1.3355-5.5768-2.8298-9.0347-2.3619-3.2405 0.43847-6.2511 3.2744-8.278 8.1862-2.027 4.9121-1.8333 9.0015 0.16051 11.603 2.1264 2.7745 5.0469 3.6843 8.0257 4.7696 2.924 1.0652 5.6481 2.017 7.6359 3.7377 1.8482 1.5998 3.2962 3.9929 3.302 8.3697 5e-3 4.3819-1.4722 6.7305-3.302 8.3238-1.9744 1.7192-4.6821 2.7049-7.613 3.7836-2.9854 1.0987-5.9109 2.0167-8.0257 4.7925-1.9797 2.5985-2.1337 6.7147-0.0917 11.626 2.042 4.9112 5.0359 7.7132 8.278 8.1404 3.4542 0.45515 6.1421-1.0363 9.0347-2.3848 2.8352-1.3217 5.5115-2.5403 8.1174-2.7287 2.424-0.17533 5.0844 0.48368 8.1862 3.5772 3.0987 3.0904 3.814 5.7544 3.646 8.1863-0.18098 2.6192-1.4196 5.3067-2.7287 8.1404-1.3344 2.8884-2.8292 5.5994-2.3619 9.0576 0.43817 3.2423 3.2472 6.2264 8.1633 8.255 4.9127 2.0272 9.0265 1.8546 11.626-0.13757 2.7786-2.1296 3.6852-5.0264 4.7696-8.0028 1.064-2.9204 2.0111-5.6871 3.7377-7.6818 1.6049-1.8541 3.9993-3.2732 8.3697-3.2791 4.3767-5e-3 6.7274 1.4457 8.3238 3.2791 1.7208 1.9761 2.7084 4.6656 3.7836 7.59 1.0937 2.9751 2.0124 5.9086 4.7925 8.0257 2.6058 1.9844 6.6949 2.1553 11.603 0.11465 4.9104-2.0416 7.7339-5.038 8.1633-8.278 0.4579-3.455-1.0401-6.1481-2.3848-9.0347-1.3161-2.8251-2.5635-5.5-2.7517-8.1174-0.17484-2.4327 0.50819-5.109 3.6001-8.2092 3.0919-3.1002 5.7599-3.7678 8.1862-3.6001 2.6166 0.18082 5.305 1.3959 8.1404 2.7058 2.8949 1.3375 5.6058 2.8513 9.0576 2.3848 3.2357-0.43727 6.2258-3.2687 8.255-8.1862 2.0268-4.9117 1.832-9.0235-0.16052-11.626-2.125-2.7755-5.0174-3.6565-8.0028-4.7466-2.9265-1.0686-5.6702-2.0377-7.6588-3.7606-1.8539-1.6062-3.2732-3.9994-3.2791-8.3697-0.0055-4.3768 1.4457-6.7274 3.2791-8.3238 1.9709-1.7162 4.6817-2.7289 7.613-3.8065 2.9816-1.0961 5.8871-1.9913 8.0028-4.7696 1.9844-2.6058 2.1553-6.6949 0.11466-11.603-2.0419-4.911-5.0372-7.7339-8.278-8.1633-3.4621-0.45875-6.1515 1.02-9.0347 2.3619-2.8218 1.3132-5.4872 2.5858-8.1175 2.7746-2.4342 0.17474-5.0896-0.51177-8.1862-3.6001-3.0964-3.0881-3.8158-5.7471-3.646-8.1862 0.18185-2.6118 1.3926-5.3051 2.7058-8.1404 1.3398-2.8928 2.8497-5.5803 2.3848-9.0347-0.43621-3.241-3.2475-6.2265-8.1633-8.255-2.5089-1.0353-4.6251-1.5458-6.5811-1.5364zm-21.83 40.587c16.401 0 29.718 13.317 29.718 29.718s-13.316 29.741-29.718 29.741c-16.402 0-29.741-13.339-29.741-29.741 0-16.402 13.34-29.718 29.741-29.718z" filter="url(#o)"/></g><g><path d="m-197.1 570.81c-3.7981 0.14111-6.0239 2.3546-7.8016 3.6638-1.7778 1.3091-3.4969 2.3814-8.2758 2.3922-5.498 0.0125-6.4778-1.5388-8.8577-3.4913-1.1899-0.97625-2.8578-2.1642-5.1077-2.4569-2.25-0.2927-4.719 0.26005-7.8448 1.6379-3.3598 1.481-5.5634 2.9961-7.0042 4.8491-1.4408 1.853-1.8522 3.8779-2.069 5.4741-0.43358 3.1923-0.10249 5.169-4.418 9.5042-3.8779 3.8955-5.6634 3.4741-8.7283 3.7715-1.5324 0.1487-3.5444 0.49241-5.3448 1.875s-3.1603 3.5174-4.3965 6.7025c-1.3284 3.4228-1.8214 6.0334-1.5301 8.362 0.29126 2.3285 1.417 4.0854 2.3922 5.3663 1.9504 2.5618 3.5852 3.7104 3.5991 9.8275 0.0125 5.498-1.5388 6.4778-3.4914 8.8577-0.97625 1.1899-2.1642 2.8578-2.4568 5.1077-0.29271 2.2499 0.26003 4.7189 1.6379 7.8447 1.481 3.3598 2.9961 5.5634 4.8491 7.0042 1.853 1.4408 3.8779 1.8522 5.4741 2.0689 3.1923 0.43358 5.169 0.10248 9.5042 4.418 3.8955 3.8779 3.4741 5.6635 3.7715 8.7284 0.14871 1.5324 0.49241 3.5443 1.875 5.3448s3.5174 3.1603 6.7025 4.3965c3.4229 1.3284 6.0334 1.8214 8.362 1.5301 2.3286-0.29127 4.0855-1.417 5.3663-2.3922 2.5618-1.9504 3.7103-3.5852 9.8275-3.5991 5.498-0.0125 6.4778 1.5388 8.8576 3.4913 1.1899 0.97624 2.8578 2.1642 5.1077 2.4569 2.2499 0.29269 4.7189-0.26004 7.8447-1.6379 3.3598-1.481 5.5634-2.9961 7.0042-4.8491 1.4408-1.853 1.8522-3.8779 2.069-5.4741 0.43357-3.1923 0.10249-5.169 4.418-9.5042 3.8779-3.8955 5.6635-3.4741 8.7284-3.7715 1.5324-0.1487 3.5443-0.49241 5.3447-1.875 1.8004-1.3826 3.1604-3.5174 4.3965-6.7025 1.3284-3.4228 1.8214-6.0334 1.5302-8.362-0.2913-2.3285-1.417-4.0854-2.3922-5.3663-1.9504-2.5618-3.5852-3.7103-3.5991-9.8275-0.0126-5.498 1.5388-6.4778 3.4913-8.8577 0.97626-1.1899 2.1642-2.8578 2.4569-5.1077 0.29269-2.2499-0.26006-4.7189-1.6379-7.8447-1.481-3.3598-2.9961-5.5634-4.8491-7.0042-1.853-1.4408-3.8779-1.8522-5.4741-2.069-3.1923-0.43357-5.169-0.10247-9.5042-4.418-3.8955-3.8779-3.4741-5.6635-3.7715-8.7284-0.1487-1.5324-0.4924-3.5443-1.875-5.3448-1.3826-1.8004-3.5174-3.1603-6.7025-4.3965-2.9961-1.1628-5.355-1.6737-7.4784-1.5948zm-15.108 32.801c13.113 0 23.664 10.551 23.664 23.664s-10.554 23.685-23.664 23.685c-13.11 0-23.685-10.575-23.685-23.685s10.572-23.664 23.685-23.664z" fill="#333"/><path d="m-190.79 558.32c-3.1741 0.0154-5.9797 2.1672-7.2862 4.2953-1.433 2.3341-2.1339 4.8728-3.0809 7.3312-0.93939 2.4386-1.9673 4.5772-3.5757 6.0944-1.529 1.4424-3.7882 2.5137-7.5561 2.5187-4.2962 5e-3 -6.6009-1.4201-8.1633-3.2158-1.6843-1.9357-2.6546-4.6134-3.7106-7.4886-1.0745-2.9257-1.9779-5.7953-4.7001-7.8709-2.5501-1.9444-6.5612-2.0932-11.379-0.0899-4.8202 2.0041-7.5849 4.9182-8.0059 8.0958-0.44975 3.3942 1.0022 6.0817 2.3163 8.9054 1.286 2.7634 2.5358 5.3353 2.7211 7.9159 0.17142 2.3879-0.49821 5.0327-3.5307 8.0733-3.0329 3.0411-5.651 3.6949-8.0284 3.5307-2.5644-0.17715-5.2042-1.3688-7.9834-2.6536-2.8331-1.3097-5.4692-2.7752-8.8604-2.3163-3.178 0.43003-6.1305 3.2112-8.1183 8.0284-1.9879 4.8174-1.7979 8.8279 0.15742 11.379 2.0854 2.721 4.9495 3.6133 7.8709 4.6776 2.8676 1.0447 5.5392 1.9782 7.4886 3.6656 1.8126 1.569 3.2326 3.9159 3.2383 8.2083 5e-3 4.2974-1.4438 6.6007-3.2383 8.1633-1.9362 1.686-4.5918 2.6527-7.4662 3.7106-2.9278 1.0775-5.7968 1.9778-7.871 4.7001-1.9415 2.5484-2.0925 6.5852-0.0899 11.402 2.0026 4.8165 4.9387 7.5644 8.1183 7.9834 3.3876 0.44636 6.0236-1.0164 8.8604-2.3388 2.7805-1.2962 5.4052-2.4913 7.9609-2.6761 2.3773-0.17193 4.9864 0.47435 8.0284 3.5082 3.0389 3.0308 3.7405 5.6434 3.5757 8.0284-0.17752 2.5686-1.3922 5.2043-2.6761 7.9834-1.3087 2.8327-2.7746 5.4914-2.3163 8.8829 0.42974 3.1798 3.1846 6.1063 8.0059 8.0958 4.8179 1.9881 8.8524 1.8188 11.402-0.13496 2.725-2.0885 3.6141-4.9294 4.6776-7.8484 1.0434-2.8641 1.9724-5.5775 3.6656-7.5336 1.574-1.8183 3.9222-3.2101 8.2083-3.2159 4.2923-5e-3 6.5976 1.4178 8.1633 3.2159 1.6876 1.938 2.6562 4.5756 3.7106 7.4437 1.0726 2.9177 1.9735 5.7946 4.7001 7.8709 2.5556 1.9461 6.5658 2.1138 11.379 0.11244 4.8157-2.0023 7.5847-4.9408 8.0059-8.1183 0.44907-3.3884-1.02-6.0295-2.3388-8.8604-1.2907-2.7706-2.5141-5.3939-2.6986-7.9609-0.17146-2.3858 0.49838-5.0104 3.5307-8.0509 3.0323-3.0404 5.6489-3.6951 8.0284-3.5307 2.5661 0.17734 5.2026 1.3689 7.9834 2.6536 2.8391 1.3117 5.4976 2.7963 8.8829 2.3388 3.1732-0.42884 6.1057-3.2056 8.0958-8.0284 1.9877-4.817 1.7966-8.8494-0.15741-11.402-2.0841-2.722-4.9206-3.586-7.8484-4.6551-2.8701-1.048-5.5608-1.9984-7.5111-3.6881-1.8181-1.5751-3.2101-3.9222-3.2158-8.2083-5e-3 -4.2923 1.4178-6.5976 3.2158-8.1633 1.9329-1.6831 4.5914-2.6762 7.4661-3.7331 2.924-1.075 5.7736-1.9529 7.8485-4.6776 1.9461-2.5556 2.1138-6.5658 0.11245-11.379-2.0025-4.8163-4.94-7.5847-8.1183-8.0059-3.3953-0.4499-6.0328 1.0004-8.8604 2.3163-2.7673 1.2879-5.3814 2.5359-7.9609 2.7211-2.3872 0.17137-4.9915-0.5019-8.0284-3.5307-3.0367-3.0285-3.7422-5.6363-3.5756-8.0284 0.17834-2.5615 1.3658-5.2028 2.6536-7.9834 1.314-2.837 2.7948-5.4727 2.3388-8.8604-0.42781-3.1785-3.1848-6.1064-8.0059-8.0958-2.4605-1.0153-4.5359-1.516-6.4542-1.5067zm-21.409 39.804c16.085 0 29.145 13.06 29.145 29.145s-13.06 29.167-29.145 29.167c-16.085 0-29.167-13.082-29.167-29.167 0-16.085 13.083-29.145 29.167-29.145z" fill="#1a1a1a"/><path d="m-191.77 564.6c-1.7233 8e-3 -3.6088 1.4422-4.3411 2.6349-1.088 1.7722-1.6906 3.9158-2.678 6.4792-0.96792 2.5127-2.056 4.9415-4.1899 6.9543-1.8554 1.7501-5.2199 3.2341-9.3084 3.2396-4.6339 6e-3 -8.3295-2.0816-10.108-4.1251-2.1869-2.5134-3.1201-5.3037-4.1467-8.099-1.0797-2.9399-1.6907-4.8044-3.434-6.1336-1.2607-0.96123-3.7945-1.3095-7.775 0.34555-3.9833 1.6562-5.5358 3.6919-5.7449 5.2698-0.2895 2.185 0.60785 3.9358 1.9222 6.76 1.2387 2.6617 2.6292 5.2721 2.8724 8.6605 0.19663 2.7393-0.98763 6.8101-4.2547 10.086-3.2691 3.2778-7.3536 4.442-10.064 4.2547-3.3497-0.23141-5.9679-1.5844-8.6605-2.8293-2.8401-1.313-4.5549-2.196-6.7384-1.9006-1.5838 0.21431-3.677 1.7804-5.313 5.7449-1.6376 3.9685-1.2577 6.5219-0.28075 7.7966 1.3443 1.754 3.216 2.371 6.1336 3.434 2.7685 1.0086 5.5684 1.8727 8.1206 4.0819 2.0854 1.8052 4.1189 5.5304 4.1251 10.151 6e-3 4.6331-2.0829 8.3293-4.1251 10.108-2.5167 2.1914-5.3085 3.1197-8.099 4.1467-2.9456 1.0841-4.8067 1.6708-6.1336 3.4124-0.95588 1.2546-1.3076 3.8422 0.34556 7.8182 1.6522 3.9738 3.7142 5.5371 5.2913 5.7449 2.1591 0.2845 3.8734-0.62979 6.7384-1.9654 2.7041-1.2606 5.3238-2.5895 8.6389-2.8293 2.7096-0.19596 6.8235 0.95783 10.108 4.2331 3.2767 3.2679 4.4421 7.3516 4.2547 10.064-0.23151 3.3502-1.5852 5.9678-2.8292 8.6605-1.3096 2.8346-2.1956 4.5767-1.9006 6.76 0.21378 1.5818 1.7686 3.6505 5.7449 5.2914 3.9685 1.6376 6.5219 1.2577 7.7966 0.28076 1.7651-1.3528 2.3737-3.2018 3.434-6.112 1.0059-2.761 1.8584-5.5735 4.0819-8.1422 1.8194-2.1019 5.548-4.0973 10.151-4.1035 4.6178-6e-3 8.3168 2.0469 10.108 4.1035 2.2074 2.535 3.1065 5.3282 4.1251 8.099 1.0711 2.9137 1.6748 4.7724 3.434 6.112 1.2741 0.97023 3.8284 1.326 7.7966-0.32397 3.9717-1.6514 5.5356-3.7122 5.7449-5.2913 0.28747-2.169-0.61731-3.891-1.9437-6.7384-1.2491-2.6814-2.6098-5.3071-2.8508-8.6605-0.19679-2.738 0.98654-6.8091 4.2547-10.086 3.2679-3.2767 7.3516-4.4421 10.064-4.2547 3.3501 0.23153 5.9678 1.5852 8.6605 2.8292 2.8537 1.3184 4.594 2.2149 6.76 1.9222 1.5645-0.21142 3.6487-1.7857 5.2913-5.7665 1.6375-3.9682 1.2589-6.5191 0.28077-7.7966-1.3431-1.7542-3.1756-2.3402-6.112-3.4124-2.7759-1.0136-5.5888-1.8913-8.1422-4.1035-2.0999-1.8193-4.0973-5.5485-4.1035-10.151-6e-3 -4.6178 2.0469-8.3167 4.1035-10.108 2.5161-2.191 5.3078-3.1206 8.099-4.1467 2.934-1.0786 4.7789-1.6617 6.112-3.4124 0.97025-1.2741 1.326-3.8284-0.32395-7.7966-1.6517-3.9725-3.7112-5.5355-5.2914-5.7449-2.1873-0.28981-3.9054 0.60376-6.7384 1.9222-2.6705 1.2428-5.2961 2.6294-8.6821 2.8724-2.7369 0.19646-6.7973-0.9964-10.064-4.2547-3.2687-3.2599-4.4676-7.3173-4.2762-10.064 0.23272-3.3424 1.58-5.9633 2.8292-8.6605 1.3211-2.8524 2.2145-4.566 1.9222-6.7384-0.21242-1.5782-1.7685-3.6505-5.7449-5.2913-2.1349-0.88096-3.687-1.2372-4.9458-1.231zm-20.431 36.024c14.722 0 26.651 11.929 26.651 26.651 0 14.722-11.929 26.673-26.651 26.673-14.722 0-26.673-11.95-26.673-26.673 0-14.722 11.95-26.651 26.673-26.651z" fill="#999"/><path d="m-192.72 564.52c-0.1112 5.5e-4 -0.21731 0.0143-0.32749 0.0205-1.2497 1.4557-2.558 3.1182-3.8889 4.9327-2.8736 3.9178-5.8364 8.2003-8.617 11.892a4.2012 4.2012 0 0 0 2.4152 6.6316c4.2957 0.99013 8.294 2.6232 11.933 4.8509a4.2012 4.2012 0 0 0 6.3655-3.0292c0.6569-4.9852 1.6525-10.607 2.3538-15.719 0.25235-1.8396 0.44667-3.5592 0.55264-5.1579-1.2069-1.1618-2.8524-2.1997-4.9123-3.0497-2.2395-0.92409-4.1283-1.3798-5.8743-1.3714zm-39.278 0.12281c-1.6985 9e-3 -3.6297 0.43628-5.731 1.3099-2.2949 0.95421-4.0676 2.1358-5.3012 3.4591 0.12125 1.5508 0.31553 3.2098 0.5731 4.9737 0.7484 5.125 1.8177 10.733 2.5176 15.699a4.2012 4.2012 0 0 0 6.386 2.9474c3.6099-2.2555 7.6206-3.9033 11.892-4.9328a4.2012 4.2012 0 0 0 2.3333-6.652c-2.8968-3.7718-5.9804-8.1878-8.9649-12.158-1.2788-1.701-2.5007-3.2674-3.7047-4.6462zm77.614 31.828c-6.1131 0.46233-13.97 2.13-20.652 3.0497a4.2012 4.2012 0 0 0-2.9883 6.4064c2.2752 3.6355 3.9662 7.6152 4.9942 11.892a4.2012 4.2012 0 0 0 6.652 2.3742c3.9903-3.0627 8.6779-6.3758 12.792-9.4971 1.4804-1.123 2.8262-2.1996 4.0322-3.2544-0.0214-1.6737-0.43393-3.5709-1.2895-5.6286-0.9645-2.3197-2.173-4.1067-3.5205-5.3421-6e-3 5.3e-4 -0.0134-5.3e-4 -0.0205 0zm-116.16 0.51169c-1.1948 1.2181-2.2655 2.8952-3.1316 4.9942-0.94109 2.2806-1.3476 4.3612-1.269 6.1608 1.1933 1.0085 2.5149 2.0402 3.9503 3.1111 4.1461 3.0934 8.8442 6.334 12.854 9.3538a4.2012 4.2012 0 0 0 6.6316-2.4152c0.9976-4.2985 2.6369-8.2956 4.8713-11.933a4.2012 4.2012 0 0 0-3.0292-6.3655c-6.771-0.8748-14.734-2.521-20.877-2.9064zm101.46 36.126a4.2012 4.2012 0 0 0-3.8479 3.2544c-0.99348 4.2923-2.6375 8.2911-4.8714 11.933a4.2012 4.2012 0 0 0 3.0293 6.3655c4.9852 0.65557 10.601 1.631 15.719 2.3333 1.891 0.25947 3.6417 0.46963 5.2807 0.57309 1.144-1.2069 2.1696-2.8376 3.0088-4.8714 0.96814-2.3461 1.3582-4.4844 1.2486-6.3246-1.187-1.0019-2.5038-2.0064-3.9298-3.0702-4.1464-3.093-8.8451-6.334-12.854-9.3538a4.2012 4.2012 0 0 0-2.7836-0.83917zm-86.722 0.40935a4.2012 4.2012 0 0 0-2.2719 0.85964c-3.9931 3.0654-8.6658 6.3779-12.772 9.4971-1.4799 1.1242-2.8338 2.1942-4.0526 3.2544 0.0106 1.7021 0.43774 3.6332 1.31 5.731 0.93987 2.2605 2.1125 4.013 3.4181 5.2398 1.5856-0.11978 3.2693-0.30919 5.076-0.57308 5.1245-0.74851 10.719-1.8189 15.678-2.5175a4.2012 4.2012 0 0 0 2.9678-6.386c-2.2642-3.617-3.9822-7.6337-5.0146-11.912a4.2012 4.2012 0 0 0-4.3392-3.193zm66.868 27.345a4.2012 4.2012 0 0 0-1.9444 0.63451c-3.6251 2.265-7.6007 3.9471-11.871 4.9737a4.2012 4.2012 0 0 0-2.3743 6.6521c3.0628 3.9902 6.3758 8.6778 9.4971 12.792 1.1368 1.4986 2.2281 2.8563 3.2953 4.0731 1.6737-0.0214 3.571-0.43392 5.6286-1.2895 2.2951-0.95426 4.067-2.1491 5.3012-3.4795-0.12009-1.5796-0.31045-3.257-0.5731-5.0556-0.74925-5.1305-1.7984-10.733-2.4971-15.699a4.2012 4.2012 0 0 0-4.462-3.6023zm-46.708 0.20467a4.2012 4.2012 0 0 0-3.9503 3.6638c-0.65615 4.9798-1.6659 10.591-2.3743 15.719-0.26063 1.8867-0.44973 3.6273-0.55263 5.2602 1.209 1.1717 2.8579 2.214 4.9328 3.0702 2.2954 0.94721 4.3887 1.3492 6.2018 1.269 1.0203-1.2042 2.0477-2.5385 3.1316-3.9912 3.0933-4.1461 6.334-8.8442 9.3538-12.854a4.2012 4.2012 0 0 0-2.4152-6.6316c-4.286-0.99471-8.2729-2.6583-11.912-4.8918a4.2012 4.2012 0 0 0-2.4152-0.61406z" fill="url(#d)"/><path transform="matrix(.73149 0 0 .73149 -104.58 212.31)" d="m-112.97 483.72c-0.58867 0.35979-1.5661 1.0114-2.9062 2.4062-1.927 2.0056-4.2374 4.901-6.625 8.1562-3.7248 5.0783-7.6346 10.743-11.406 15.75 6.2478 1.44 12.094 3.8418 17.406 7.0938 0.88962-6.7513 2.1889-14.185 3.0938-20.781 0.56942-4.1509 0.90003-7.8765 0.78125-10.406-0.0496-1.0568-0.20358-1.7183-0.34375-2.2188zm-69.125 0.34375c-0.13405 0.50504-0.30389 1.1437-0.34375 2.1875-0.0967 2.5334 0.26922 6.2578 0.875 10.406 0.96279 6.5932 2.3621 14.006 3.3125 20.75 5.2708-3.2933 11.098-5.7522 17.312-7.25-3.9286-5.1152-8.0135-10.926-11.875-16.062-2.4586-3.2704-4.7878-6.158-6.7188-8.0625-1.5998-1.5779-2.4027-1.8029-2.5625-1.9688zm114.66 47.938c-7.106 0.0981-19.474 2.7248-29.875 4.1562 3.3112 5.2908 5.812 11.133 7.3125 17.375 5.4032-4.1472 11.595-8.5024 16.906-12.531 3.3426-2.5357 6.1977-4.9367 7.9062-6.8125 0.74672-0.81981 1.1621-1.4237 1.4062-1.875-0.71898-0.18992-2.0102-0.33522-3.6562-0.3125zm-159.75 0.71875c-1.6468-7e-3 -2.9226 0.15011-3.625 0.34375 0.24772 0.44936 0.65383 1.0618 1.4062 1.875 1.7216 1.8608 4.6404 4.2435 8 6.75 5.3383 3.9828 11.561 8.2474 17 12.344 1.4509-6.2515 3.8636-12.097 7.125-17.406-10.419-1.3461-22.814-3.874-29.906-3.9062zm137.31 47.812c-1.4467 6.2503-3.868 12.097-7.125 17.406 6.7531 0.88808 14.178 2.1877 20.781 3.0938 4.1551 0.57017 7.9042 0.89973 10.438 0.78125 1.0875-0.0509 1.7854-0.19971 2.2812-0.34375-0.25285-0.45082-0.6365-1.0457-1.375-1.8438-1.7219-1.8608-4.64-4.2436-8-6.75-5.3389-3.9825-11.562-8.247-17-12.344zm-114.44 0.53125c-5.4011 4.1463-11.571 8.5023-16.875 12.531-3.3381 2.5358-6.2321 4.937-7.9375 6.8125-0.73058 0.80343-1.0947 1.391-1.3438 1.8438 0.49824 0.13992 1.1922 0.30236 2.2812 0.34375 2.537 0.0964 6.2849-0.26845 10.438-0.875 6.5899-0.96256 13.98-2.3633 20.719-3.3125-3.3037-5.2777-5.7782-11.115-7.2812-17.344zm88.281 36.094c-5.2811 3.2997-11.116 5.7842-17.344 7.2812 4.1472 5.4032 8.5024 11.595 12.531 16.906 2.5357 3.3426 4.9367 6.1977 6.8125 7.9062 0.80452 0.73279 1.391 1.1258 1.8438 1.375 0.13992-0.49823 0.30233-1.1922 0.34375-2.2812 0.0965-2.537-0.26857-6.2849-0.875-10.438-0.96381-6.5998-2.3634-14.004-3.3125-20.75zm-61.75 0.28125c-0.89036 6.7574-2.2122 14.174-3.125 20.781-0.57403 4.1553-0.8972 7.9043-0.78125 10.438 0.0498 1.0874 0.20032 1.7858 0.34375 2.2812 0.45081-0.25284 1.0457-0.63661 1.8438-1.375 1.8608-1.7216 4.2435-4.6404 6.75-8 3.9828-5.3383 8.2474-11.561 12.344-17-6.2427-1.4488-12.072-3.8705-17.375-7.125z" fill="url(#g)" filter="url(#c)"/><path d="m-212.2 585.45c-22.475 0-40.701 18.226-40.701 40.701 0 0.62112 0.0168 1.262 0.044 1.8741a0.38497 0.38497 0 0 0 0.74964 0c1.0706-21.102 18.538-37.901 39.907-37.901 21.369 0 38.816 16.798 39.885 37.901a0.38497 0.38497 0 0 0 0.74964 0c0.0274-0.6121 0.0441-1.253 0.0441-1.8741 0-22.475-18.204-40.701-40.679-40.701zm-27.252 42.288a0.38497 0.38497 0 0 0-0.26458 0.35279c-0.0114 0.171-0.0337 0.34631-0.044 0.55121-0.0235 0.46581-0.044 0.95217-0.044 1.4331 0 0.47415 0.0212 0.95312 0.044 1.4111-9.6e-4 -0.0322-2e-3 -0.0245 0 0.0221 0.0476 0.93693 0.12427 1.861 0.26457 2.7781 0.0709 0.46481 0.14905 0.91202 0.24252 1.367 0.0929 0.45333 0.19626 0.86446 0.30869 1.3009 1.1358 4.4147 3.3305 8.4159 6.3058 11.686 0.29961 0.32926 0.62391 0.62387 0.92602 0.92602 0.3157 0.31572 0.61708 0.6255 0.94807 0.92602 2.7285 2.4799 5.943 4.4107 9.5028 5.6444 0.27767 0.0964 0.5631 0.20094 0.83783 0.28663 0.43844 0.13676 0.87016 0.25841 1.3229 0.37482 0.88056 0.22654 1.7745 0.41132 2.6899 0.55121 0.91707 0.14002 1.8409 0.21709 2.7781 0.26457 0.46583 0.0235 0.95219 0.044 1.4331 0.044 0.48776 0 0.9599-0.0196 1.4331-0.044 0.93049-0.0472 1.8471-0.12652 2.756-0.26457 0.91539-0.13989 1.8093-0.32467 2.6899-0.55121 0.88156-0.22675 1.756-0.50623 2.6017-0.81579 3.3869-1.2401 6.4673-3.1091 9.0839-5.49 0.65302-0.59349 1.2585-1.199 1.852-1.852 2.3809-2.6165 4.2499-5.697 5.49-9.0839 0.30956-0.8457 0.58907-1.7201 0.8158-2.6017 0.22617-0.87904 0.41119-1.7515 0.55121-2.6678 0.14003-0.91688 0.21709-1.841 0.26458-2.7781 0.0243-0.47327 0.044-0.94539 0.044-1.4331 0-0.48094-0.0206-0.96732-0.044-1.4331-0.0104-0.20492-0.0326-0.38021-0.044-0.5512a0.38497 0.38497 0 0 0-0.74964 0c-0.0487 0.72937-0.11324 1.4365-0.22048 2.1387-0.1353 0.88547-0.32992 1.7637-0.55121 2.6238-0.2205 0.85732-0.47105 1.6922-0.7717 2.5135-1.2055 3.2923-3.0431 6.2756-5.3577 8.8193-0.57743 0.63536-1.1726 1.2305-1.808 1.808-2.5437 2.3146-5.527 4.1522-8.8193 5.3577-0.82131 0.30063-1.6562 0.55117-2.5135 0.77168-0.85852 0.22089-1.7594 0.41577-2.6458 0.55121-0.87888 0.13351-1.7577 0.21845-2.6678 0.26458-0.46887 0.024-0.9226 0.044-1.389 0.044-0.45843 0-0.92716-0.0207-1.389-0.044-0.91833-0.0466-1.8048-0.12945-2.6899-0.26458-0.88639-0.13544-1.7872-0.33032-2.6458-0.55121-0.44698-0.11492-0.85847-0.22164-1.2788-0.35277-0.27379-0.0853-0.53047-0.15112-0.79375-0.24253-3.4575-1.1982-6.5835-3.1212-9.2382-5.5341-0.32876-0.29848-0.64696-0.55875-0.94807-0.85988-0.29951-0.29954-0.59655-0.63443-0.88193-0.94807-2.8924-3.1786-5.0253-7.0415-6.1294-11.333-0.11155-0.43307-0.22008-0.86846-0.30867-1.3009-0.0913-0.44455-0.17371-0.87253-0.24252-1.3229-0.10741-0.702-0.17173-1.4092-0.22048-2.1387a0.38497 0.38497 0 0 0-0.48505-0.35278z" fill="#fff"/><path d="m-212.2 597.04c-0.47842 0-0.96776 0.0206-1.4332 0.0441-0.93503 0.0474-1.8425 0.14714-2.756 0.28663-0.91212 0.13937-1.8118 0.32529-2.6899 0.55121-0.45079 0.1159-0.88522 0.23829-1.3229 0.3748-0.27461 0.0856-0.53973 0.16874-0.81578 0.2646-3.5484 1.2296-6.7606 3.1721-9.4807 5.6443-0.32996 0.29958-0.65531 0.58918-0.97011 0.90397-0.30256 0.30261-0.60664 0.6213-0.90398 0.94809-2.9659 3.2594-5.1514 7.2406-6.2837 11.641-0.11233 0.436-0.21627 0.84987-0.30868 1.3008-0.0932 0.45379-0.17176 0.9038-0.24253 1.367-0.13974 0.91339-0.23915 1.8212-0.28662 2.756-2e-3 0.0377-9.6e-4 0.0452 0 0.0219-0.0229 0.45767-0.0441 0.93958-0.0441 1.4111 0 0.47841 0.0206 0.96776 0.0441 1.4331 0.0104 0.20086 0.0325 0.37701 0.0441 0.55121a0.30868 0.30868 0 0 0 0.61736 0c0.0488-0.7304 0.0905-1.4548 0.19843-2.1607 0.069-0.45196 0.15096-0.87714 0.24253-1.3229 0.0892-0.43473 0.19701-0.8674 0.30867-1.3008 1.1077-4.3052 3.2498-8.188 6.1515-11.377 0.2863-0.31464 0.60341-0.62544 0.90395-0.92601 0.3035-0.30349 0.59781-0.58392 0.92604-0.88193 2.6629-2.4203 5.791-4.3319 9.2602-5.5341 0.26489-0.0919 0.54188-0.17914 0.81579-0.26457 0.42363-0.13215 0.83247-0.23802 1.2788-0.35278 0.86101-0.22153 1.7561-0.41526 2.6458-0.55121 0.88864-0.13569 1.7915-0.19588 2.7119-0.24253 0.46233-0.0233 0.92808-0.0441 1.389-0.0441 0.46883 0 0.91967 0.0199 1.389 0.0441 0.9124 0.0463 1.8076 0.1085 2.6899 0.24253 0.88964 0.13595 1.7848 0.32968 2.6458 0.55121 0.86005 0.2212 1.6894 0.49211 2.5135 0.79373 3.303 1.2094 6.3115 3.0357 8.8634 5.3577 0.63734 0.57926 1.2287 1.1706 1.808 1.8079 2.3221 2.5519 4.1483 5.5604 5.3577 8.8634 0.30163 0.82407 0.57254 1.6535 0.79375 2.5135 0.22181 0.8622 0.41537 1.7348 0.5512 2.6237 0.10782 0.70601 0.14958 1.4304 0.19842 2.1607a0.30868 0.30868 0 0 0 0.61736 0c0.0116-0.17419 0.0339-0.35032 0.0441-0.55121 0.0235-0.46536 0.0441-0.95471 0.0441-1.4331 0-0.48536-0.0197-0.96038-0.0441-1.4331-0.0474-0.93493-0.14712-1.8428-0.28661-2.756-0.1395-0.91286-0.3256-1.7909-0.55121-2.6678-0.22602-0.87885-0.48518-1.7588-0.79374-2.6017-1.2362-3.3763-3.1165-6.4314-5.49-9.0398-0.5917-0.65105-1.201-1.2604-1.852-1.8521-2.6084-2.3735-5.6635-4.2538-9.0398-5.49-0.84294-0.30856-1.7228-0.56771-2.6017-0.79374-0.87808-0.22592-1.7777-0.41184-2.6899-0.55121-0.90558-0.13757-1.8058-0.23957-2.734-0.28662-0.47276-0.0244-0.94777-0.0441-1.4331-0.0441zm-40.282 29.28a0.29838 0.29838 0 0 0-0.30868 0.28662c-0.0274 0.61103-0.0441 1.2546-0.0441 1.8741 0 22.428 18.207 40.635 40.635 40.635 22.428 0 40.613-18.207 40.613-40.635 0-0.61952-0.0169-1.2631-0.0441-1.8741a0.30868 0.30868 0 1 0-0.61735 0c-1.0718 21.148-18.537 37.967-39.951 37.967-21.415 0-38.9-16.819-39.973-37.967a0.29838 0.29838 0 0 0-0.30869-0.28662z" fill="url(#h)"/><path d="m-212.21 587.61c-21.904 0-39.678 17.754-39.678 39.658 0 21.904 17.774 39.678 39.678 39.678 21.904 0 39.658-17.774 39.658-39.678 0-21.904-17.754-39.658-39.658-39.658zm0 10.792c15.953 0 28.866 12.913 28.866 28.866 0 15.953-12.913 28.886-28.866 28.886-15.953 0-28.886-12.933-28.886-28.886 0-15.953 12.933-28.866 28.886-28.866z" fill="url(#i)"/></g><path d="m-212.21 590.4c-20.368 0-36.896 16.509-36.896 36.877s16.528 36.896 36.896 36.896 36.877-16.528 36.877-36.896-16.509-36.877-36.877-36.877zm0 10.035c14.834 0 26.842 12.007 26.842 26.842 0 14.834-12.007 26.86-26.842 26.86-14.834 0-26.86-12.026-26.86-26.86 0-14.834 12.026-26.842 26.86-26.842z" fill="url(#j)"/><g><path d="m-94.769 501.4c-3.7981 0.1411-6.0239 2.3546-7.8016 3.6638-1.7778 1.3091-3.4969 2.3814-8.2758 2.3922-5.498 0.0125-6.4778-1.5388-8.8576-3.4913-1.1899-0.97626-2.8578-2.1642-5.1077-2.4569-2.2499-0.2927-4.719 0.26004-7.8448 1.6379-3.3598 1.481-5.5634 2.9961-7.0042 4.8491-1.4408 1.853-1.8522 3.8779-2.069 5.4741-0.43356 3.1923-0.10249 5.169-4.418 9.5042-3.8779 3.8955-5.6634 3.4741-8.7283 3.7715-1.5324 0.1487-3.5443 0.4924-5.3448 1.875s-3.1603 3.5174-4.3965 6.7025c-1.3284 3.4228-1.8214 6.0334-1.5302 8.362 0.29129 2.3285 1.417 4.0854 2.3922 5.3663 1.9504 2.5618 3.5852 3.7103 3.5991 9.8275 0.0125 5.498-1.5388 6.4778-3.4913 8.8577-0.97625 1.1899-2.1642 2.8578-2.4569 5.1077-0.29271 2.2499 0.26003 4.719 1.6379 7.8448 1.481 3.3598 2.9961 5.5634 4.8491 7.0042 1.853 1.4408 3.8779 1.8522 5.4741 2.0689 3.1923 0.43358 5.169 0.1025 9.5042 4.4181 3.8955 3.8779 3.4741 5.6635 3.7715 8.7283 0.14871 1.5324 0.49241 3.5444 1.875 5.3448 1.3826 1.8004 3.5174 3.1603 6.7025 4.3965 3.4228 1.3284 6.0334 1.8214 8.362 1.5302 2.3285-0.29128 4.0854-1.417 5.3663-2.3922 2.5618-1.9504 3.7103-3.5852 9.8275-3.5991 5.498-0.0125 6.4778 1.5389 8.8577 3.4914 1.1899 0.97625 2.8578 2.1642 5.1077 2.4569 2.2499 0.2927 4.719-0.26004 7.8447-1.6379 3.3598-1.481 5.5634-2.9961 7.0042-4.8491 1.4408-1.853 1.8522-3.8779 2.0689-5.4741 0.43358-3.1923 0.10251-5.169 4.4181-9.5042 3.8779-3.8955 5.6635-3.4741 8.7283-3.7715 1.5324-0.14869 3.5443-0.4924 5.3448-1.875 1.8004-1.3826 3.1603-3.5174 4.3965-6.7025 1.3284-3.4228 1.8214-6.0334 1.5302-8.362s-1.417-4.0854-2.3922-5.3663c-1.9504-2.5618-3.5852-3.7104-3.5991-9.8275-0.01248-5.498 1.5388-6.4778 3.4913-8.8576 0.97625-1.1899 2.1642-2.8578 2.4569-5.1077 0.2927-2.2499-0.26004-4.719-1.6379-7.8447-1.481-3.3598-2.9961-5.5634-4.8491-7.0042-1.853-1.4408-3.8779-1.8522-5.4741-2.069-3.1923-0.43357-5.169-0.10249-9.5042-4.418-3.8955-3.8779-3.4741-5.6635-3.7715-8.7283-0.1487-1.5325-0.49241-3.5443-1.875-5.3448-1.3826-1.8004-3.5174-3.1604-6.7025-4.3965-2.9961-1.1628-5.355-1.6737-7.4784-1.5948zm-15.108 32.801c13.113 0 23.664 10.551 23.664 23.664s-10.554 23.685-23.664 23.685-23.685-10.575-23.685-23.685 10.572-23.664 23.685-23.664z" fill="#333"/><path d="m-88.467 488.91c-3.1741 0.0155-5.9797 2.1672-7.2862 4.2953-1.433 2.3341-2.1339 4.8728-3.0809 7.3312-0.93938 2.4386-1.9673 4.5772-3.5757 6.0944-1.5291 1.4423-3.7882 2.5136-7.5561 2.5187-4.2962 5e-3 -6.6009-1.4201-8.1633-3.2158-1.6843-1.9357-2.6546-4.6134-3.7106-7.4886-1.0745-2.9257-1.9778-5.7953-4.7001-7.8709-2.5501-1.9444-6.5612-2.0932-11.379-0.0899-4.8201 2.0041-7.5848 4.9182-8.0058 8.0958-0.44976 3.3941 1.0022 6.0817 2.3163 8.9054 1.2861 2.7634 2.5359 5.3353 2.7211 7.9159 0.17142 2.3879-0.49819 5.0327-3.5307 8.0734-3.0329 3.0411-5.651 3.6949-8.0284 3.5307-2.5644-0.17715-5.2042-1.3688-7.9834-2.6536-2.8331-1.3097-5.4692-2.7752-8.8604-2.3163-3.178 0.43001-6.1305 3.2112-8.1183 8.0284-1.9879 4.8174-1.7979 8.8279 0.15742 11.379 2.0854 2.721 4.9496 3.6133 7.8709 4.6776 2.8676 1.0447 5.5392 1.9781 7.4886 3.6656 1.8126 1.569 3.2326 3.9159 3.2383 8.2083 5e-3 4.2974-1.4438 6.6007-3.2383 8.1633-1.9363 1.686-4.5918 2.6527-7.4662 3.7106-2.9278 1.0775-5.7969 1.9778-7.8709 4.7001-1.9415 2.5484-2.0925 6.5852-0.0899 11.402 2.0026 4.8165 4.9387 7.5644 8.1183 7.9834 3.3876 0.44637 6.0236-1.0164 8.8604-2.3388 2.7805-1.2962 5.4052-2.4913 7.9609-2.6761 2.3772-0.17195 4.9864 0.47435 8.0284 3.5082 3.039 3.0308 3.7405 5.6434 3.5756 8.0284-0.17749 2.5686-1.3922 5.2043-2.6761 7.9834-1.3087 2.8327-2.7746 5.4914-2.3163 8.8829 0.42972 3.1798 3.1846 6.1064 8.0059 8.0958 4.8179 1.9881 8.8524 1.8188 11.402-0.13492 2.725-2.0885 3.6142-4.9295 4.6776-7.8485 1.0434-2.8641 1.9723-5.5774 3.6656-7.5336 1.574-1.8183 3.9222-3.2101 8.2083-3.2158 4.2923-5e-3 6.5976 1.4178 8.1633 3.2158 1.6876 1.938 2.6562 4.5756 3.7106 7.4437 1.0726 2.9178 1.9735 5.7946 4.7001 7.8709 2.5555 1.9461 6.5658 2.1138 11.379 0.11244 4.8157-2.0023 7.5847-4.9408 8.0059-8.1183 0.44907-3.3884-1.02-6.0295-2.3388-8.8604-1.2907-2.7706-2.5141-5.3939-2.6986-7.9609-0.17147-2.3858 0.49839-5.0104 3.5307-8.0508 3.0323-3.0404 5.6488-3.6951 8.0284-3.5307 2.5661 0.17733 5.2026 1.3689 7.9834 2.6536 2.8391 1.3117 5.4976 2.7963 8.8829 2.3388 3.1733-0.42883 6.1058-3.2056 8.0958-8.0284 1.9877-4.8169 1.7966-8.8494-0.15742-11.402-2.0841-2.722-4.9206-3.586-7.8484-4.6551-2.8701-1.048-5.5609-1.9984-7.5111-3.6881-1.8181-1.5752-3.2101-3.9222-3.2158-8.2083-0.0054-4.2923 1.4178-6.5976 3.2158-8.1633 1.9329-1.6831 4.5914-2.6762 7.4661-3.733 2.924-1.075 5.7736-1.9529 7.8484-4.6776 1.9461-2.5555 2.1138-6.5657 0.11244-11.379-2.0025-4.8163-4.9401-7.5847-8.1183-8.0058-3.3953-0.44991-6.0328 1.0004-8.8604 2.3163-2.7673 1.2879-5.3813 2.5359-7.9609 2.7211-2.3872 0.17137-4.9915-0.5019-8.0284-3.5307-3.0367-3.0285-3.7422-5.6363-3.5757-8.0284 0.17835-2.5615 1.3658-5.2028 2.6536-7.9834 1.314-2.837 2.7947-5.4727 2.3388-8.8604-0.4278-3.1785-3.1848-6.1064-8.0059-8.0958-2.4605-1.0153-4.5359-1.516-6.4542-1.5067zm-21.409 39.804c16.085 0 29.145 13.06 29.145 29.145s-13.06 29.167-29.145 29.167c-16.085 0-29.167-13.082-29.167-29.167 0-16.085 13.083-29.145 29.167-29.145z" fill="#1a1a1a"/><path d="m-89.445 495.19c-1.7233 8e-3 -3.6088 1.4422-4.3411 2.6349-1.088 1.7722-1.6906 3.9158-2.6781 6.4792-0.96791 2.5127-2.056 4.9415-4.1899 6.9543-1.8554 1.7501-5.2199 3.2341-9.3084 3.2396-4.6339 6e-3 -8.3295-2.0816-10.108-4.1251-2.1869-2.5134-3.1201-5.3037-4.1467-8.099-1.0797-2.9399-1.6907-4.8044-3.434-6.1336-1.2606-0.96123-3.7945-1.3095-7.775 0.34557-3.9833 1.6562-5.5358 3.6919-5.7449 5.2697-0.28951 2.185 0.60785 3.9358 1.9222 6.76 1.2387 2.6617 2.6292 5.2721 2.8724 8.6605 0.19663 2.7393-0.98764 6.8102-4.2547 10.086-3.2691 3.2778-7.3536 4.442-10.064 4.2547-3.3497-0.23141-5.9679-1.5844-8.6605-2.8292-2.8401-1.313-4.5549-2.196-6.7384-1.9006-1.5838 0.2143-3.677 1.7804-5.3129 5.7449-1.6376 3.9685-1.2577 6.5219-0.28077 7.7966 1.3443 1.754 3.216 2.371 6.1336 3.434 2.7685 1.0086 5.5684 1.8727 8.1206 4.0819 2.0854 1.8052 4.1189 5.5304 4.1251 10.151 6e-3 4.6331-2.0829 8.3293-4.1251 10.108-2.5167 2.1914-5.3086 3.1197-8.099 4.1467-2.9455 1.084-4.8068 1.6708-6.1336 3.4124-0.95588 1.2546-1.3076 3.8422 0.34556 7.8182 1.6522 3.9738 3.7143 5.5371 5.2913 5.7449 2.1591 0.28452 3.8734-0.62978 6.7384-1.9654 2.7041-1.2606 5.3238-2.5895 8.6389-2.8292 2.7096-0.19596 6.8235 0.95782 10.108 4.2331 3.2767 3.2679 4.4421 7.3517 4.2547 10.064-0.23153 3.3502-1.5852 5.9678-2.8292 8.6605-1.3096 2.8347-2.1956 4.5767-1.9006 6.76 0.21376 1.5818 1.7686 3.6505 5.7449 5.2913 3.9685 1.6376 6.5219 1.2577 7.7966 0.28075 1.7651-1.3528 2.3737-3.2018 3.434-6.112 1.0059-2.761 1.8584-5.5735 4.0819-8.1422 1.8194-2.1019 5.548-4.0973 10.151-4.1035 4.6178-6e-3 8.3167 2.0469 10.108 4.1035 2.2074 2.535 3.1065 5.3282 4.1251 8.099 1.0711 2.9137 1.6748 4.7724 3.434 6.112 1.2741 0.97024 3.8284 1.326 7.7966-0.32395 3.9717-1.6514 5.5356-3.7121 5.7449-5.2914 0.28746-2.169-0.61732-3.8909-1.9438-6.7384-1.2491-2.6814-2.6098-5.3071-2.8508-8.6605-0.19678-2.738 0.98655-6.809 4.2547-10.086 3.2679-3.2767 7.3516-4.4421 10.064-4.2547 3.3501 0.23151 5.9678 1.5852 8.6605 2.8292 2.8537 1.3184 4.594 2.2149 6.76 1.9222 1.5645-0.21142 3.6487-1.7857 5.2913-5.7665 1.6375-3.9682 1.2589-6.5191 0.28076-7.7966-1.3431-1.7542-3.1756-2.3402-6.112-3.4124-2.7759-1.0136-5.5888-1.8913-8.1422-4.1035-2.0999-1.8193-4.0973-5.5485-4.1035-10.151-0.0055-4.6178 2.0469-8.3167 4.1035-10.108 2.5161-2.191 5.3078-3.1206 8.099-4.1467 2.934-1.0786 4.7789-1.6617 6.112-3.4124 0.97025-1.2741 1.326-3.8284-0.32395-7.7966-1.6517-3.9726-3.7112-5.5355-5.2913-5.7449-2.1873-0.28982-3.9054 0.60372-6.7384 1.9222-2.6705 1.2428-5.2961 2.6294-8.6821 2.8724-2.7369 0.19646-6.7973-0.99641-10.064-4.2547-3.2687-3.2599-4.4676-7.3173-4.2763-10.064 0.23272-3.3424 1.58-5.9633 2.8292-8.6605 1.3211-2.8525 2.2145-4.566 1.9222-6.7384-0.21242-1.5782-1.7685-3.6505-5.7449-5.2913-2.1349-0.88096-3.687-1.2372-4.9458-1.231zm-20.431 36.024c14.722 0 26.651 11.929 26.651 26.651 0 14.722-11.929 26.673-26.651 26.673-14.722 0-26.673-11.95-26.673-26.673 0-14.722 11.95-26.651 26.673-26.651z" fill="#999"/><path d="m-90.392 495.11c-0.11121 5.4e-4 -0.21732 0.0143-0.32749 0.0205-1.2497 1.4557-2.558 3.1182-3.8889 4.9328-2.8736 3.9178-5.8364 8.2003-8.617 11.892a4.2012 4.2012 0 0 0 2.4152 6.6316c4.2957 0.99012 8.294 2.6232 11.933 4.8509a4.2012 4.2012 0 0 0 6.3655-3.0292c0.6569-4.9852 1.6525-10.607 2.3538-15.719 0.25235-1.8396 0.44666-3.5593 0.55264-5.1579-1.2069-1.1618-2.8524-2.1997-4.9123-3.0497-2.2395-0.92408-4.1283-1.3798-5.8743-1.3714zm-39.278 0.1228c-1.6985 0.0104-3.6297 0.43628-5.731 1.3099-2.2949 0.95419-4.0676 2.1358-5.3012 3.4591 0.12125 1.5508 0.31553 3.2098 0.57309 4.9737 0.7484 5.125 1.8177 10.733 2.5175 15.699a4.2012 4.2012 0 0 0 6.386 2.9474c3.6098-2.2555 7.6206-3.9033 11.892-4.9328a4.2012 4.2012 0 0 0 2.3333-6.652c-2.8968-3.7718-5.9804-8.1878-8.9649-12.158-1.2788-1.701-2.5007-3.2673-3.7047-4.6462zm77.614 31.828c-6.1131 0.46232-13.97 2.13-20.652 3.0497a4.2012 4.2012 0 0 0-2.9883 6.4064c2.2752 3.6355 3.9662 7.6152 4.9942 11.892a4.2012 4.2012 0 0 0 6.6521 2.3743c3.9903-3.0628 8.6779-6.3758 12.792-9.4971 1.4804-1.123 2.8262-2.1996 4.0322-3.2544-0.02137-1.6737-0.43392-3.571-1.2895-5.6287-0.96449-2.3197-2.173-4.1067-3.5205-5.3421-7e-3 5.2e-4 -0.01346-5.5e-4 -0.02043 0zm-116.16 0.51169c-1.1948 1.2181-2.2655 2.8952-3.1316 4.9942-0.94107 2.2806-1.3476 4.3612-1.269 6.1608 1.1933 1.0085 2.5149 2.0402 3.9503 3.1111 4.1461 3.0934 8.8442 6.334 12.854 9.3538a4.2012 4.2012 0 0 0 6.6316-2.4152c0.99761-4.2985 2.6369-8.2956 4.8713-11.933a4.2012 4.2012 0 0 0-3.0292-6.3655c-6.771-0.8748-14.734-2.521-20.877-2.9064zm101.46 36.126a4.2012 4.2012 0 0 0-3.848 3.2544c-0.99347 4.2923-2.6375 8.2911-4.8713 11.933a4.2012 4.2012 0 0 0 3.0292 6.3655c4.9852 0.65558 10.601 1.6311 15.719 2.3334 1.891 0.25948 3.6417 0.46963 5.2807 0.57309 1.144-1.2069 2.1696-2.8376 3.0088-4.8714 0.96813-2.3461 1.3582-4.4844 1.2485-6.3246-1.187-1.0019-2.5038-2.0064-3.9298-3.0702-4.1464-3.093-8.8451-6.334-12.854-9.3538a4.2012 4.2012 0 0 0-2.7836-0.83919zm-86.722 0.40936a4.2012 4.2012 0 0 0-2.2719 0.85966c-3.9931 3.0654-8.6658 6.3779-12.772 9.4971-1.4799 1.1242-2.8338 2.1942-4.0526 3.2544 0.0107 1.7021 0.43775 3.6333 1.3099 5.731 0.93987 2.2605 2.1125 4.013 3.4181 5.2398 1.5856-0.11979 3.2693-0.3092 5.076-0.57309 5.1245-0.74852 10.719-1.8189 15.678-2.5176a4.2012 4.2012 0 0 0 2.9678-6.386c-2.2642-3.617-3.9822-7.6337-5.0146-11.912a4.2012 4.2012 0 0 0-4.3392-3.193zm66.868 27.345a4.2012 4.2012 0 0 0-1.9444 0.6345c-3.6251 2.265-7.6007 3.9472-11.871 4.9737a4.2012 4.2012 0 0 0-2.3743 6.6521c3.0627 3.9903 6.3758 8.6779 9.4971 12.792 1.1368 1.4986 2.2281 2.8563 3.2953 4.0731 1.6737-0.0214 3.571-0.43392 5.6287-1.2895 2.2951-0.95425 4.067-2.1491 5.3012-3.4795-0.1201-1.5796-0.31044-3.2569-0.5731-5.0556-0.74925-5.1306-1.7984-10.733-2.4971-15.699a4.2012 4.2012 0 0 0-4.462-3.6023zm-46.708 0.20468a4.2012 4.2012 0 0 0-3.9503 3.6637c-0.65614 4.9798-1.6659 10.591-2.3743 15.719-0.26062 1.8866-0.44974 3.6272-0.55264 5.2602 1.209 1.1717 2.858 2.214 4.9328 3.0702 2.2954 0.94719 4.3888 1.3492 6.2018 1.269 1.0203-1.2042 2.0477-2.5385 3.1316-3.9912 3.0934-4.1461 6.334-8.8442 9.3538-12.854a4.2012 4.2012 0 0 0-2.4152-6.6316c-4.286-0.9947-8.2729-2.6583-11.912-4.8918a4.2012 4.2012 0 0 0-2.4152-0.61402z" fill="url(#e)"/><path transform="matrix(.73149 0 0 .73149 -2.2547 142.9)" d="m-112.97 483.72c-0.58867 0.35979-1.5661 1.0114-2.9062 2.4062-1.927 2.0056-4.2374 4.901-6.625 8.1562-3.7248 5.0783-7.6346 10.743-11.406 15.75 6.2478 1.44 12.094 3.8418 17.406 7.0938 0.88962-6.7513 2.1889-14.185 3.0938-20.781 0.56942-4.1509 0.90003-7.8765 0.78125-10.406-0.0496-1.0568-0.20358-1.7183-0.34375-2.2188zm-69.125 0.34375c-0.13405 0.50504-0.30389 1.1437-0.34375 2.1875-0.0967 2.5334 0.26922 6.2578 0.875 10.406 0.96279 6.5932 2.3621 14.006 3.3125 20.75 5.2708-3.2933 11.098-5.7522 17.312-7.25-3.9286-5.1152-8.0135-10.926-11.875-16.062-2.4586-3.2704-4.7878-6.158-6.7188-8.0625-1.5998-1.5779-2.4027-1.8029-2.5625-1.9688zm114.66 47.938c-7.106 0.0981-19.474 2.7248-29.875 4.1562 3.3112 5.2908 5.812 11.133 7.3125 17.375 5.4032-4.1472 11.595-8.5024 16.906-12.531 3.3426-2.5357 6.1977-4.9367 7.9062-6.8125 0.74672-0.81981 1.1621-1.4237 1.4062-1.875-0.71898-0.18992-2.0102-0.33522-3.6562-0.3125zm-159.75 0.71875c-1.6468-7e-3 -2.9226 0.15011-3.625 0.34375 0.24772 0.44936 0.65383 1.0618 1.4062 1.875 1.7216 1.8608 4.6404 4.2435 8 6.75 5.3383 3.9828 11.561 8.2474 17 12.344 1.4509-6.2515 3.8636-12.097 7.125-17.406-10.419-1.3461-22.814-3.874-29.906-3.9062zm137.31 47.812c-1.4467 6.2503-3.868 12.097-7.125 17.406 6.7531 0.88808 14.178 2.1877 20.781 3.0938 4.1551 0.57017 7.9042 0.89973 10.438 0.78125 1.0875-0.0509 1.7854-0.19971 2.2812-0.34375-0.25285-0.45082-0.6365-1.0457-1.375-1.8438-1.7219-1.8608-4.64-4.2436-8-6.75-5.3389-3.9825-11.562-8.247-17-12.344zm-114.44 0.53125c-5.4011 4.1463-11.571 8.5023-16.875 12.531-3.3381 2.5358-6.2321 4.937-7.9375 6.8125-0.73058 0.80343-1.0947 1.391-1.3438 1.8438 0.49824 0.13992 1.1922 0.30236 2.2812 0.34375 2.537 0.0964 6.2849-0.26845 10.438-0.875 6.5899-0.96256 13.98-2.3633 20.719-3.3125-3.3037-5.2777-5.7782-11.115-7.2812-17.344zm88.281 36.094c-5.2811 3.2997-11.116 5.7842-17.344 7.2812 4.1472 5.4032 8.5024 11.595 12.531 16.906 2.5357 3.3426 4.9367 6.1977 6.8125 7.9062 0.80452 0.73279 1.391 1.1258 1.8438 1.375 0.13992-0.49823 0.30233-1.1922 0.34375-2.2812 0.0965-2.537-0.26857-6.2849-0.875-10.438-0.96381-6.5998-2.3634-14.004-3.3125-20.75zm-61.75 0.28125c-0.89036 6.7574-2.2122 14.174-3.125 20.781-0.57403 4.1553-0.8972 7.9043-0.78125 10.438 0.0498 1.0874 0.20032 1.7858 0.34375 2.2812 0.45081-0.25284 1.0457-0.63661 1.8438-1.375 1.8608-1.7216 4.2435-4.6404 6.75-8 3.9828-5.3383 8.2474-11.561 12.344-17-6.2427-1.4488-12.072-3.8705-17.375-7.125z" fill="url(#f)" filter="url(#c)"/><path d="m-109.88 516.04c-22.475 0-40.701 18.226-40.701 40.701 0 0.62111 0.0167 1.262 0.044 1.8741a0.38497 0.38497 0 0 0 0.74963 0c1.0706-21.102 18.538-37.901 39.907-37.901 21.369 0 38.816 16.798 39.885 37.901a0.38497 0.38497 0 0 0 0.74964 0c0.02737-0.61207 0.04409-1.253 0.04409-1.8741 0-22.475-18.204-40.701-40.679-40.701zm-27.252 42.288a0.38497 0.38497 0 0 0-0.26458 0.35279c-0.0114 0.17102-0.0338 0.3463-0.044 0.55119-0.0234 0.46581-0.044 0.9522-0.044 1.4331 0 0.47415 0.0212 0.95314 0.044 1.4111-9.6e-4 -0.0322-2e-3 -0.0245 0 0.0221 0.0476 0.93693 0.12427 1.861 0.26457 2.7781 0.0709 0.46482 0.14906 0.91203 0.24253 1.367 0.0929 0.45333 0.19626 0.86445 0.30868 1.3008 1.1358 4.4147 3.3305 8.4159 6.3058 11.686 0.29962 0.32928 0.6239 0.62387 0.92604 0.92601 0.3157 0.31574 0.61707 0.62552 0.94807 0.92604 2.7285 2.4799 5.943 4.4107 9.5028 5.6443 0.27767 0.0964 0.56311 0.20094 0.83784 0.28664 0.43842 0.13675 0.87015 0.2584 1.3229 0.37481 0.88056 0.22656 1.7745 0.41134 2.6899 0.55121 0.91706 0.14002 1.8409 0.21711 2.7781 0.26457 0.46581 0.0235 0.95218 0.044 1.4331 0.044 0.48774 0 0.95988-0.0196 1.4331-0.044 0.93048-0.0472 1.8471-0.1265 2.756-0.26457 0.91539-0.13987 1.8093-0.32465 2.6899-0.55121 0.88157-0.22673 1.756-0.50622 2.6017-0.81579 3.3869-1.2401 6.4673-3.1091 9.0839-5.49 0.65303-0.59351 1.2585-1.199 1.852-1.852 2.3809-2.6165 4.2499-5.697 5.49-9.0839 0.30955-0.84569 0.58905-1.7201 0.81579-2.6017 0.22616-0.87904 0.41118-1.7515 0.5512-2.6678 0.14004-0.91687 0.2171-1.841 0.26458-2.7781 0.02437-0.47326 0.04405-0.94539 0.04405-1.4331 0-0.48094-0.02053-0.96733-0.04405-1.4331-0.01044-0.20493-0.03263-0.38019-0.04404-0.55118a0.38497 0.38497 0 0 0-0.74964 0c-0.04874 0.72936-0.11324 1.4365-0.22048 2.1387-0.1353 0.88548-0.32992 1.7637-0.5512 2.6237-0.22049 0.85733-0.47105 1.6922-0.77169 2.5135-1.2055 3.2923-3.0431 6.2756-5.3577 8.8193-0.57744 0.63536-1.1726 1.2305-1.808 1.808-2.5437 2.3146-5.5269 4.1522-8.8193 5.3577-0.8213 0.30063-1.6562 0.55118-2.5135 0.77169-0.85854 0.22088-1.7594 0.41575-2.6458 0.55119-0.87886 0.13353-1.7577 0.21846-2.6678 0.26459-0.46888 0.024-0.92259 0.044-1.389 0.044-0.45844 0-0.92718-0.0207-1.389-0.044-0.91833-0.0466-1.8048-0.12946-2.6899-0.26459-0.88639-0.13544-1.7872-0.33031-2.6458-0.55119-0.44698-0.11493-0.85848-0.22166-1.2788-0.35278-0.2738-0.0853-0.53048-0.15112-0.79375-0.24255-3.4576-1.1981-6.5835-3.1212-9.2382-5.5341-0.32877-0.29847-0.64696-0.55874-0.94809-0.85987-0.29951-0.29954-0.59654-0.63445-0.88192-0.94808-2.8924-3.1786-5.0253-7.0414-6.1294-11.333-0.11157-0.43303-0.22009-0.86844-0.30868-1.3008-0.0913-0.44457-0.17372-0.87256-0.24253-1.3229-0.1074-0.70202-0.17172-1.4092-0.22049-2.1387a0.38497 0.38497 0 0 0-0.48505-0.35279z" fill="#fff"/><path d="m-109.88 527.64c-0.47841 0-0.96777 0.0206-1.4331 0.0441-0.93504 0.0474-1.8426 0.14713-2.756 0.28662-0.91212 0.13937-1.8118 0.32529-2.6899 0.5512-0.45081 0.1159-0.88523 0.23829-1.3229 0.37482-0.27461 0.0856-0.53972 0.16872-0.81578 0.26459-3.5484 1.2296-6.7606 3.1721-9.4807 5.6443-0.32998 0.29956-0.65534 0.58918-0.97014 0.90398-0.30256 0.30259-0.60663 0.6213-0.90396 0.94807-2.9659 3.2594-5.1514 7.2406-6.2837 11.641-0.11233 0.436-0.21629 0.84986-0.30869 1.3008-0.0932 0.4538-0.17175 0.90381-0.24252 1.367-0.13974 0.9134-0.23915 1.8212-0.28663 2.756-2e-3 0.0377-9.6e-4 0.0452 0 0.022-0.0229 0.45766-0.0441 0.93958-0.0441 1.4111 0 0.47841 0.0206 0.96776 0.0441 1.4331 0.0104 0.20085 0.0325 0.37702 0.0441 0.55121a0.30868 0.30868 0 0 0 0.61736 0c0.0488-0.7304 0.0905-1.4548 0.19843-2.1607 0.0691-0.45197 0.15096-0.87716 0.24253-1.3229 0.0891-0.43475 0.19701-0.86742 0.30868-1.3008 1.1077-4.3052 3.2498-8.188 6.1514-11.377 0.2863-0.31466 0.60341-0.62546 0.90397-0.92603 0.30348-0.30349 0.5978-0.58393 0.92603-0.88194 2.6629-2.4203 5.791-4.3319 9.2602-5.5341 0.26488-0.0919 0.54187-0.17916 0.81578-0.26459 0.42363-0.13213 0.83246-0.23801 1.2788-0.35277 0.86101-0.22153 1.7561-0.41527 2.6458-0.5512 0.88865-0.13569 1.7915-0.1959 2.7119-0.24252 0.46232-0.0233 0.92808-0.0441 1.389-0.0441 0.46882 0 0.91967 0.0199 1.389 0.0441 0.9124 0.0463 1.8076 0.10848 2.6899 0.24252 0.88966 0.13593 1.7848 0.32967 2.6458 0.5512 0.86004 0.22121 1.6894 0.4921 2.5135 0.79373 3.303 1.2094 6.3115 3.0357 8.8634 5.3577 0.63735 0.57926 1.2287 1.1706 1.808 1.808 2.3221 2.5518 4.1483 5.5604 5.3577 8.8634 0.30163 0.82405 0.57253 1.6534 0.79373 2.5135 0.22183 0.86219 0.41538 1.7348 0.55121 2.6237 0.10783 0.70598 0.14958 1.4303 0.19843 2.1607a0.30868 0.30868 0 0 0 0.61735 0c0.01165-0.17418 0.03393-0.35033 0.0441-0.55121 0.02357-0.46536 0.0441-0.95471 0.0441-1.4331 0-0.48536-0.01974-0.96038-0.0441-1.4332-0.04738-0.93493-0.14714-1.8427-0.28663-2.756-0.13949-0.91285-0.32559-1.7909-0.55121-2.6678-0.22603-0.87886-0.48518-1.7588-0.79373-2.6017-1.2362-3.3763-3.1165-6.4314-5.49-9.0398-0.5917-0.65105-1.201-1.2604-1.852-1.852-2.6083-2.3735-5.6635-4.2538-9.0398-5.49-0.84293-0.30853-1.7228-0.56768-2.6017-0.79373-0.87808-0.22591-1.7778-0.41183-2.6899-0.5512-0.90558-0.13756-1.8058-0.23957-2.734-0.28662-0.47276-0.0242-0.94777-0.0441-1.4331-0.0441zm-40.282 29.28a0.29838 0.29838 0 0 0-0.30867 0.28662c-0.0274 0.61104-0.0441 1.2546-0.0441 1.8741 0 22.428 18.207 40.635 40.635 40.635 22.428 0 40.613-18.207 40.613-40.635 0-0.61953-0.01677-1.2631-0.04409-1.8741a0.30867 0.30867 0 1 0-0.61735 0c-1.0718 21.148-18.537 37.967-39.951 37.967-21.415 0-38.9-16.819-39.973-37.967a0.29838 0.29838 0 0 0-0.30868-0.28662z" fill="url(#k)"/><path d="m-109.88 518.21c-21.904 0-39.678 17.754-39.678 39.658 0 21.904 17.774 39.678 39.678 39.678 21.904 0 39.658-17.774 39.658-39.678 0-21.904-17.754-39.658-39.658-39.658zm0 10.792c15.953 0 28.866 12.913 28.866 28.866 0 15.953-12.913 28.886-28.866 28.886-15.953 0-28.886-12.933-28.886-28.886 0-15.953 12.933-28.866 28.886-28.866z" fill="url(#l)"/><path d="m-109.88 520.99c-20.368 0-36.896 16.509-36.896 36.877 0 20.368 16.528 36.896 36.896 36.896 20.368 0 36.877-16.528 36.877-36.896 0-20.368-16.509-36.877-36.877-36.877zm0 10.035c14.834 0 26.842 12.007 26.842 26.842 0 14.834-12.007 26.86-26.842 26.86-14.834 0-26.86-12.026-26.86-26.86 0-14.834 12.026-26.842 26.86-26.842z" fill="url(#m)"/><path d="m-90.381 495.11c-0.11121 5.4e-4 -0.23358 0.0251-0.34375 0.0312-0.60148 0.70063-1.2191 1.4284-1.8438 2.2188 4.4511 1.2742 8.699 3.0478 12.688 5.2188 0.12191-1.0544 0.2172-2.0962 0.28125-3.0625-1.2069-1.1618-2.8463-2.1812-4.9062-3.0312-2.2395-0.92408-4.1291-1.3835-5.875-1.375zm-39.281 0.125c-1.6985 0.0104-3.6487 0.43884-5.75 1.3125-2.2949 0.95419-4.0477 2.1455-5.2812 3.4688 0.0703 0.89862 0.16384 1.8418 0.28125 2.8125 3.9618-2.204 8.197-3.9982 12.625-5.3125-0.63887-0.80775-1.2512-1.5668-1.875-2.2812zm77.594 31.812c-0.89816 0.0679-1.8171 0.19873-2.7812 0.3125 2.1996 3.9565 3.9997 8.1721 5.3125 12.594 0.81564-0.64834 1.5948-1.3098 2.3125-1.9375-0.02137-1.6737-0.4257-3.5673-1.2812-5.625-0.96449-2.3197-2.1838-4.1083-3.5312-5.3438-7e-3 5.2e-4 -0.0243-5.5e-4 -0.0312 0zm-116.16 0.53125c-1.1948 1.2181-2.2589 2.9011-3.125 5-0.94107 2.2806-1.3286 4.3566-1.25 6.1562 0.69462 0.58709 1.44 1.1753 2.2188 1.7812 1.2738-4.452 2.9854-8.6986 5.1562-12.688-1.0257-0.11236-2.0501-0.19041-3-0.25zm118.87 47.656c-1.2716 4.4316-3.0578 8.6519-5.2188 12.625 1.0849 0.1288 2.129 0.24963 3.125 0.3125 1.144-1.2069 2.1608-2.8413 3-4.875 0.96813-2.3461 1.3596-4.5036 1.25-6.3438-0.676-0.57062-1.3998-1.136-2.1562-1.7188zm-120.87 0.5625c-0.81911 0.64724-1.6184 1.2753-2.3438 1.9062 0.0107 1.7021 0.44031 3.6523 1.3125 5.75 0.93987 2.2605 2.1006 4.0232 3.4062 5.25 0.92512-0.0699 1.9094-0.19424 2.9062-0.3125-2.1941-3.9552-3.9733-8.174-5.2812-12.594zm90.844 37.125c-3.9615 2.2003-8.1658 3.9701-12.594 5.2812 0.66604 0.83659 1.325 1.641 1.9688 2.375 1.6737-0.0214 3.5673-0.4257 5.625-1.2812 2.2951-0.95425 4.0783-2.1696 5.3125-3.5-0.0702-0.92338-0.19387-1.8801-0.3125-2.875zm-60.531 0.28125c-0.1216 1.0719-0.21918 2.1086-0.28125 3.0938 1.209 1.1717 2.8627 2.2063 4.9375 3.0625 2.2954 0.94719 4.3745 1.3615 6.1875 1.2812 0.59253-0.69932 1.2055-1.4652 1.8125-2.25-4.4449-1.2716-8.6728-3.0214-12.656-5.1875z" fill="#fff"/><path d="m-192.72 564.52c-0.1112 5.5e-4 -0.20232 0.025-0.3125 0.0312-0.60164 0.70082-1.2502 1.4282-1.875 2.2188 4.4598 1.2744 8.6918 3.0443 12.688 5.2188 0.12196-1.0548 0.21718-2.096 0.28125-3.0625-1.2069-1.1618-2.8463-2.1812-4.9062-3.0312-2.2395-0.92409-4.129-1.3835-5.875-1.375zm-39.281 0.125c-1.6985 9e-3 -3.6175 0.43884-5.7188 1.3125-2.2949 0.95421-4.079 2.1455-5.3125 3.4688 0.0703 0.89864 0.19509 1.8418 0.3125 2.8125 3.9704-2.2087 8.1866-3.9974 12.625-5.3125-0.63887-0.80775-1.2824-1.5668-1.9062-2.2812zm77.625 31.812c-0.89816 0.0679-1.8483 0.19873-2.8125 0.3125 2.2024 3.9597 3.9984 8.168 5.3125 12.594 0.81564-0.64834 1.5948-1.3097 2.3125-1.9375-0.0214-1.6737-0.42571-3.5673-1.2812-5.625-0.9645-2.3197-2.1525-4.1083-3.5-5.3438-6e-3 5.3e-4 -0.0241-5.3e-4 -0.0312 0zm-116.16 0.53125c-1.1948 1.2181-2.2589 2.9011-3.125 5-0.94109 2.2806-1.3599 4.3566-1.2812 6.1562 0.6937 0.58631 1.4412 1.1762 2.2188 1.7812 1.2712-4.4436 3.0225-8.6739 5.1875-12.656-1.0352-0.11374-2.0418-0.22114-3-0.28125zm118.84 47.625c-1.2722 4.4416-3.0221 8.6749-5.1875 12.656 1.0763 0.12747 2.1363 0.21884 3.125 0.28125 1.144-1.2069 2.1608-2.81 3-4.8438 0.96814-2.3461 1.3596-4.5036 1.25-6.3438-0.68525-0.57841-1.4197-1.159-2.1875-1.75zm-120.84 0.5625c-0.83159 0.65645-1.6397 1.2979-2.375 1.9375 0.0106 1.7021 0.44029 3.6523 1.3125 5.75 0.93987 2.2605 2.1319 4.0232 3.4375 5.25 0.92512-0.0699 1.8781-0.19424 2.875-0.3125-2.1982-3.9631-3.9415-8.1956-5.25-12.625zm90.844 37.156c-3.9565 2.1964-8.1721 3.9715-12.594 5.2812 0.66519 0.83544 1.3257 1.6418 1.9688 2.375 1.6737-0.0214 3.5673-0.4257 5.625-1.2812 2.2951-0.95426 4.047-2.1696 5.2812-3.5-0.0702-0.92321-0.16265-1.8803-0.28125-2.875zm-60.531 0.3125c-0.11997 1.0612-0.21974 2.0864-0.28125 3.0625 1.209 1.1717 2.8314 2.2063 4.9062 3.0625 2.2954 0.94721 4.4057 1.3615 6.2188 1.2812 0.59621-0.70365 1.2016-1.4598 1.8125-2.25-4.4332-1.2678-8.6818-2.9986-12.656-5.1562z" fill="#fff"/></g></g></svg>
