<svg version="1.1" viewBox="0 0 200 160" xmlns="http://www.w3.org/2000/svg"><path d="m143.18 0.14887c-0.0496-2e-3 -0.0898 5e-3 -0.12242 8e-3 -0.0348 4e-3 -0.0525 0.0138-0.0653 0.0245-1.3188 1.3191 2.9037 4.9217 0.86509 3.9021-1.7361-0.86826-8.0144-3.3388-8.0144-3.3388-2.1755 0.58534 3.0758 4.9815 2.5382 6.0573-0.63133 1.263-2.6266 5.022-3.591 5.2899-11.021 3.0611-31.71 33.75-27.797 35.005 1.3276 0.66396 6.451 0.2145 6.0638 2.0572-5.2776 12.758-14.063 16.277-24.982 19.168-30.165 8.0808-27.253 18.303-31.617 17.968-11.748-1.8557-13.016-0.39509-26.091 2.5694-10.82 2.4532-5.6125-8.6516-0.28715-10.986 0.2823 0.84166-14.417-1.6893-11.04 16.026-5.6303 1.7854-18.926-2.3698-18.92-2.3127 0 0 7.7208 8.666 16.673 12.081 3.5129 1.3401-9.6179 9.5268-10.044 8.6744 14.31 0.50401 33.23-15.335 32.184-12.971l-2.112 9.8279s14.013-13.521 18.593-12.019c-0.06333 7.5453 5.0741 10.677 7.5818 17.902 0.25649 1.7466 7.8e-4 3.0699-0.70187 4.1389-0.0095 0.0114-0.01491 0.0265-0.02447 0.0408-0.0087 0.013-0.02387 0.0255-0.03265 0.0408-2.3809 3.4753-8.9787 4.1144-11.76 6.8328-0.77557 0.75789 1.6404 5.8818 2.1546 6.6532 2.3483 3.5233 6.2507 14.973 4.0072 19.462-0.61887 1.238-0.01149 0.65118 0.58761 2.449 0.37268 1.1184-1.0301 2.7147 0.29381 4.0736 0.94843 0.97342 9.0895 0.80234 9.2549 0.17143 0.2519-1.2033-0.0681-5.1086-1.6894-6.3185-0.40393-0.30144-0.5582-1.6939-0.6529-2.0164-1.1778-4.0112-1.821-8.5125-2.228-10.621 1.4785 2.8509 3.9097 7.1116 4.8804 10.025 0.13416 0.40255-0.4372 1.6298 0.44071 2.5225 1.5779 1.6045 1.4854 2.6694 1.4854 2.6694-0.0681 0.77643-0.13389 3.6621 0.38358 4.0082 1.7493 1.1702 6.0141 0.45126 8.8713 0.49797 3.0234 0.0494-0.45127-6.5804-2.0485-7.7063-1.0715-0.86035-0.8854-2.015-1.314-3.0286-2.5728-6.0848-8.8557-12.479-7.5492-18.327 0.47401-1.008 0.45125-2.7328 1.5506-2.9878 5.4919-1.2741 10.385-5.0493 14.968-7.8859 4.6312-3.7766 4.6766-9.4059 4.3336-12.147-0.38816-3.1026 6.2265-5.5098 12.193-5.992 15.198-2.0725 34.666-12.365 42.879-20.498 0.44954-0.44968 5.3342 0.0242 8.4061-0.0979 4.8185 0.39089 14.002-1.5365 17.604 1.9592 2.171 2.1716 4.9743 3.6123 7.2309 5.8695 0.72819 0.72837 1.0494 2.217 1.7628 2.9307 0.85347 0.85371 3.4873 2.1176 4.0072 2.898 0.90157 1.3534-0.18056 3.9468 1.265 4.7756 2.4416 1.1285 7.8849 0.35955 8.4143-0.3347 1.4377-1.1158-2.1294-5.4284-3.8848-6.3838-3.8656-2.5951-6.4338-7.4492-10.585-9.9594-2.3512-2.4793-3.5686-4.5195-5.6476-5.5593-3.0922-1.7598-6.0592-2.3125-9.1814-3.2164 1.925-0.95502 6.7546-3.1251 8.1776-3.8368 3.7833-1.8922 12.22 3.9047 14.184 5.8695 0.92824 0.92849 3.6418 1.2264 4.1622 1.747 0.72872 0.72891 0.76844 3.1428 2.0893 3.5348 0.28124 0.0834 2.0348 0.24456 4.5785-0.22042 2.4566-0.44906 5.6898-1.3456 2.9544-4.0817-0.43486-0.435-3.3922-3.2246-4.0072-3.2246-0.80912 0-3.6193-0.68961-4.3989-1.4694-2.2852-2.2858-7.6368-3.9104-10.463-5.3797-0.7944-0.52975-1.5576-1.8286-2.8401-2.3429-1.7304-0.69388-5.4436-1.347-5.4436-1.347-5.654 1.5116-10.129 3.0746-15.963 3.0694 0.43018-6.2863-1.5027-11.584-6.5208-16.621-1.9135-7.3549-4.8142-22.436 2.579-25.184 0.69779 0.45939 3.415 1.4332 4.5703 0.27756 3.1813-2.5299 8.0255-0.52637 11.067-1.5266 0.0718 0.43113 2.3092 0.73163 2.9381 0.29388 1.686-1.1737 5.2942-5.3509 3.2808-7.4777-1.6179-1.7091 0.16725 0.0443-2.3668-3.0613-1.1162-1.368-3.606-1.9022-5.77-3.2001-8.1756-4.2525-12.421-4.9135-13.499-5.5266-2.1113-1.0947-2.6501-0.97806-2.9707-1.347-0.64677-0.74425-0.94888-1.4378-2.0893-2.0082-0.46309-0.16419-2.9935-0.78022-3.7378-0.80818z"/></svg>
