<svg version="1.1" viewBox="0 0 1000 1000" xmlns="http://www.w3.org/2000/svg" xmlns:xlink="http://www.w3.org/1999/xlink"><defs><linearGradient id="e"><stop stop-opacity=".78431" offset="0"/><stop stop-opacity="0" offset="1"/></linearGradient><linearGradient id="f"><stop stop-color="#fff" stop-opacity=".78431" offset="0"/><stop stop-color="#fff" stop-opacity="0" offset="1"/></linearGradient><linearGradient id="a"><stop stop-color="#7e79e5" offset="0"/><stop stop-color="#3f418d" offset=".64516"/><stop stop-color="#000a35" offset="1"/></linearGradient><linearGradient id="d" x1="125" x2="125" y1="65.768" y2="112.83" gradientUnits="userSpaceOnUse" xlink:href="#f"/><linearGradient id="c" x1="97.157" x2="97.157" y1="285.65" y2="238.59" gradientUnits="userSpaceOnUse" xlink:href="#e"/><linearGradient id="z" x1="125" x2="125" y1="65.768" y2="112.83" gradientTransform="translate(250.01 -.00625)" gradientUnits="userSpaceOnUse" xlink:href="#f"/><linearGradient id="y" x1="97.157" x2="97.157" y1="285.65" y2="238.59" gradientTransform="translate(249.99 3.3141)" gradientUnits="userSpaceOnUse" xlink:href="#e"/><radialGradient id="b" cx="125" cy="177.36" r="124" gradientTransform="translate(0 -2.1825e-5)" gradientUnits="userSpaceOnUse" xlink:href="#a"/><radialGradient id="x" cx="-177.36" cy="-375" r="124" gradientTransform="translate(0 4.6146e-5)" gradientUnits="userSpaceOnUse" xlink:href="#a"/><radialGradient id="w" cx="-177.36" cy="-375" r="124" gradientTransform="translate(1.4876e-5 -250)" gradientUnits="userSpaceOnUse" xlink:href="#a"/><linearGradient id="ab" x1="125" x2="125" y1="65.768" y2="112.83" gradientTransform="translate(500 -.00625)" gradientUnits="userSpaceOnUse" xlink:href="#f"/><linearGradient id="aa" x1="97.157" x2="97.157" y1="285.65" y2="238.59" gradientTransform="translate(500.31 3.3141)" gradientUnits="userSpaceOnUse" xlink:href="#e"/><radialGradient id="v" cx="875" cy="927.36" r="91.547" gradientTransform="matrix(1 0 0 1.015 0 -13.927)" gradientUnits="userSpaceOnUse" xlink:href="#a" spreadMethod="reflect"/><radialGradient id="u" cx="627.63" cy="930.77" r="76.687" gradientTransform="matrix(1 0 0 .81459 0 172.58)" gradientUnits="userSpaceOnUse" xlink:href="#a" spreadMethod="reflect"/><radialGradient id="t" cx="375" cy="927.36" r="111.59" gradientTransform="matrix(1 0 0 .56345 0 404.84)" gradientUnits="userSpaceOnUse" xlink:href="#a" spreadMethod="reflect"/><radialGradient id="s" cx="126.29" cy="931.02" r="105.42" gradientTransform="matrix(1 0 0 .65859 0 317.85)" gradientUnits="userSpaceOnUse" xlink:href="#a" spreadMethod="reflect"/><radialGradient id="r" cx="118.81" cy="681.64" r="105.41" gradientTransform="matrix(1 0 0 .89985 0 68.268)" gradientUnits="userSpaceOnUse" xlink:href="#a" spreadMethod="reflect"/><radialGradient id="q" cx="375" cy="677.36" r="111.59" gradientTransform="matrix(1 0 0 .56345 0 295.7)" gradientUnits="userSpaceOnUse" xlink:href="#a" spreadMethod="reflect"/><radialGradient id="p" cx="625" cy="677.36" r="74.088" gradientTransform="matrix(1 0 0 1.2656 0 -179.91)" gradientUnits="userSpaceOnUse" xlink:href="#a" spreadMethod="reflect"/><radialGradient id="o" cx="875" cy="677.36" r="96.059" gradientTransform="matrix(1 0 0 .99982 0 .11981)" gradientUnits="userSpaceOnUse" xlink:href="#a" spreadMethod="reflect"/><radialGradient id="n" cx="875" cy="176.91" r="111.6" gradientTransform="matrix(1 0 0 .96159 0 6.7952)" gradientUnits="userSpaceOnUse" xlink:href="#a" spreadMethod="reflect"/><radialGradient id="m" cx="875" cy="427.36" r="85.808" gradientTransform="matrix(1 0 0 .89263 0 45.886)" gradientUnits="userSpaceOnUse" xlink:href="#a" spreadMethod="reflect"/><radialGradient id="l" cx="125" cy="375" r="89.312" gradientTransform="matrix(1 0 0 .96746 0 12.203)" gradientUnits="userSpaceOnUse" xlink:href="#a" spreadMethod="reflect"/><radialGradient id="k" cx="125" cy="176.75" r="109.32" gradientTransform="matrix(1 0 0 .58188 0 73.903)" gradientUnits="userSpaceOnUse" xlink:href="#a" spreadMethod="reflect"/><radialGradient id="j" cx="375" cy="177.71" r="114.6" gradientTransform="matrix(.90223 0 0 .82327 36.665 31.408)" gradientUnits="userSpaceOnUse" xlink:href="#a" spreadMethod="reflect"/><radialGradient id="i" cx="369.39" cy="415.92" r="27.555" gradientTransform="matrix(1 0 0 3.54 0 -1056.4)" gradientUnits="userSpaceOnUse" xlink:href="#a" spreadMethod="reflect"/><radialGradient id="h" cx="625" cy="427.36" r="27.555" gradientTransform="matrix(1 0 0 3.7021 0 -1154.8)" gradientUnits="userSpaceOnUse" xlink:href="#a" spreadMethod="reflect"/><radialGradient id="g" cx="623.65" cy="184.99" r="109.35" gradientTransform="matrix(1 0 0 .94371 0 10.413)" gradientUnits="userSpaceOnUse" xlink:href="#a" spreadMethod="reflect"/></defs><g transform="translate(0 -52.362)"><g><rect transform="matrix(0,-1,-1,0,0,0)" x="-301.36" y="-749" width="248" height="248" rx="24.345" ry="24.268" color="#000000" fill="url(#w)"/><path d="m513.41 112.82v-25.219c0-12.1 9.7679-21.844 21.906-21.844h179.38c12.138 0 21.906 9.7436 21.906 21.844v25.219h-223.19z" color="#000000" fill="url(#ab)"/><rect transform="matrix(0,-1,-1,0,0,0)" x="-301.36" y="-499" width="248" height="248" rx="24.345" ry="24.268" color="#000000" fill="url(#x)"/></g><g><g><rect x="1" y="53.362" width="248" height="248" rx="24.345" ry="24.268" color="#000000" fill="url(#b)"/><path d="m13.406 238.59v25.219c0 12.1 9.7679 21.844 21.906 21.844h179.38c12.138 0 21.906-9.7436 21.906-21.844v-25.219h-223.19z" color="#000000" fill="url(#c)"/><path d="m13.406 112.83v-25.219c0-12.1 9.7679-21.844 21.906-21.844h179.38c12.138 0 21.906 9.7436 21.906 21.844v25.219h-223.19z" color="#000000" fill="url(#d)"/><path d="m263.41 112.82v-25.219c0-12.1 9.7679-21.844 21.906-21.844h179.38c12.138 0 21.906 9.7436 21.906 21.844v25.219h-223.19z" color="#000000" fill="url(#z)"/><path d="m263.4 241.9v25.219c0 12.1 9.7679 21.844 21.906 21.844h179.38c12.138 0 21.906-9.7436 21.906-21.844v-25.219h-223.19z" color="#000000" fill="url(#y)"/></g><g transform="matrix(.92678 0 0 1 9.152 0)" fill="#eed7f4" stroke="url(#k)" stroke-linecap="round" stroke-linejoin="round" stroke-width="6.2325"><path d="m18.679 116.14 1.321 121.22 92.927-60.228z" color="#000000"/><path d="m231.32 116.14-94.248 60.995 92.927 60.228z" color="#000000"/><path d="m125 162.36-105 75h210z" color="#000000"/><path d="m18.679 116.14 106.32 67.964 106.32-67.964z" color="#000000"/></g><path d="m375 86.074-30.583 64.239-70.106 0.24772 58.773 45.159-27.813 73.636 69.17-40.602 69.141 40.602-27.637-73.035 59.743-45.76-70.076-0.24772z" color="#000000" fill="#eed7f4" stroke="url(#j)" stroke-linecap="round" stroke-linejoin="round" stroke-width="6"/><path d="m513.72 241.9v25.219c0 12.1 9.7679 21.844 21.906 21.844h179.38c12.138 0 21.906-9.7436 21.906-21.844v-25.219h-223.19z" color="#000000" fill="url(#aa)"/><g transform="matrix(.92853 0 0 .92853 45.924 .79177)" fill="#eed7f4" stroke="url(#g)" stroke-linejoin="round" stroke-width="1.077"><path d="m517.3 162.36 106.35-77.571 106.35 77.571h-212.7z" color="#000000" stroke-linecap="round" stroke-width="6.4618"/><rect x="547.99" y="119.13" width="152.61" height="166.05" color="#000000" stroke-linecap="round" stroke-width="6.4618"/><g stroke-width="6.4618"><path d="m565.97 138.44h116.65"/><path d="m565.97 151.79h116.65"/><path d="m565.97 165.13h116.65"/><path d="m565.97 178.47h116.65"/><path d="m565.97 191.81h116.65"/><path d="m565.97 205.16h116.65"/><path d="m565.97 218.5h116.65"/><path d="m565.97 231.84h116.65"/><path d="m565.97 245.19h116.65"/><path d="m565.97 258.53h116.65"/></g><g stroke-linecap="round" stroke-width="6.4618"><path d="m517.36 162.36 1.321 121.22 92.927-60.228z" color="#000000"/><path d="m730 162.36-94.248 60.995 92.927 60.228z" color="#000000"/><path d="m623.68 208.59-105 75h210z" color="#000000"/><path d="m517.36 162.36 106.32 67.964 106.32-67.964z" color="#000000"/></g></g><path d="m773.68 98.38 106.32 67.964 106.32-67.964z" color="#000000" fill="#e6e6e6" stroke="#000" stroke-linecap="round" stroke-linejoin="round" stroke-width="6"/></g><g stroke-linejoin="round"><g transform="translate(750 1.5642e-5)"><rect x="1" y="53.362" width="248" height="248" rx="24.345" ry="24.268" color="#000000" fill="url(#b)"/><path d="m13.406 238.59v25.219c0 12.1 9.7679 21.844 21.906 21.844h179.38c12.138 0 21.906-9.7436 21.906-21.844v-25.219h-223.19z" color="#000000" fill="url(#c)"/><path d="m13.406 112.83v-25.219c0-12.1 9.7679-21.844 21.906-21.844h179.38c12.138 0 21.906 9.7436 21.906 21.844v25.219h-223.19z" color="#000000" fill="url(#d)"/></g><g transform="translate(0 250)"><rect x="1" y="53.362" width="248" height="248" rx="24.345" ry="24.268" color="#000000" fill="url(#b)"/><path d="m13.406 238.59v25.219c0 12.1 9.7679 21.844 21.906 21.844h179.38c12.138 0 21.906-9.7436 21.906-21.844v-25.219h-223.19z" color="#000000" fill="url(#c)"/><path d="m13.406 112.83v-25.219c0-12.1 9.7679-21.844 21.906-21.844h179.38c12.138 0 21.906 9.7436 21.906 21.844v25.219h-223.19z" color="#000000" fill="url(#d)"/></g><g transform="translate(250 250)"><rect x="1" y="53.362" width="248" height="248" rx="24.345" ry="24.268" color="#000000" fill="url(#b)"/><path d="m13.406 238.59v25.219c0 12.1 9.7679 21.844 21.906 21.844h179.38c12.138 0 21.906-9.7436 21.906-21.844v-25.219h-223.19z" color="#000000" fill="url(#c)"/><path d="m13.406 112.83v-25.219c0-12.1 9.7679-21.844 21.906-21.844h179.38c12.138 0 21.906 9.7436 21.906 21.844v25.219h-223.19z" color="#000000" fill="url(#d)"/></g><path transform="translate(0 52.362)" d="m125 291.59-75.188 64.344h-11.125v14.656h9.3125v87.812h60.125v-56.281h33.75v56.281h56.531v-87.812h12.906v-14.656h-11.125l-20.312-17.375v-36.406h-23.406v16.375l-31.469-26.938z" color="#000000" fill="#eed7f4" stroke="url(#l)" stroke-linecap="round" stroke-width="6"/><g transform="translate(5.6119 11.44)" fill="#eed7f4" stroke="url(#i)" stroke-linecap="round" stroke-width="6"><path d="m369.39 382.73c13.604 0 24.555-10.82 24.555 3.0676v119.6s-16.198 5.0676-24.555 5.0676-24.555-5.0676-24.555-5.0676v-119.6c0-13.887 10.952-3.0676 24.555-3.0676z" color="#000000"/><path transform="translate(11.642 52.362)" d="m381.69 292.96c0 13.224-10.72 23.944-23.944 23.944s-23.944-10.72-23.944-23.944 10.72-23.944 23.944-23.944 23.944 10.72 23.944 23.944z" color="#000000"/></g><g transform="translate(500 250)"><rect x="1" y="53.362" width="248" height="248" rx="24.345" ry="24.268" color="#000000" fill="url(#b)"/><path d="m13.406 238.59v25.219c0 12.1 9.7679 21.844 21.906 21.844h179.38c12.138 0 21.906-9.7436 21.906-21.844v-25.219h-223.19z" color="#000000" fill="url(#c)"/><path d="m13.406 112.83v-25.219c0-12.1 9.7679-21.844 21.906-21.844h179.38c12.138 0 21.906 9.7436 21.906 21.844v25.219h-223.19z" color="#000000" fill="url(#d)"/></g><g fill="#eed7f4" stroke="url(#h)" stroke-linecap="round" stroke-width="6"><path d="m625 463.02c13.604 0 18.555 6.9324 18.555 6.9324l6-141.6h-49.111l4 141.6s6.9517-6.9324 20.555-6.9324z" color="#000000"/><path transform="matrix(1 0 0 -1 267.25 795.39)" d="m381.69 292.96c0 13.224-10.72 23.944-23.944 23.944s-23.944-10.72-23.944-23.944 10.72-23.944 23.944-23.944 23.944 10.72 23.944 23.944z" color="#000000"/></g><g transform="translate(750 250)"><rect x="1" y="53.362" width="248" height="248" rx="24.345" ry="24.268" color="#000000" fill="url(#b)"/><path d="m13.406 238.59v25.219c0 12.1 9.7679 21.844 21.906 21.844h179.38c12.138 0 21.906-9.7436 21.906-21.844v-25.219h-223.19z" color="#000000" fill="url(#c)"/><path d="m13.406 112.83v-25.219c0-12.1 9.7679-21.844 21.906-21.844h179.38c12.138 0 21.906 9.7436 21.906 21.844v25.219h-223.19z" color="#000000" fill="url(#d)"/></g><path d="m874.92 500.96s-18.908-13.57-38.652-32.337c-19.744-18.768-41.376-42.591-43.67-63.526-4.7629-43.448 33.147-66.42 65.774-40 11.053 9.2751 16.548 20 16.548 20s5.4949-10.725 16.548-20c35.251-28.833 71.295 2.0989 65.774 40-3.0355 20.84-23.926 44.758-43.67 63.526s-38.652 32.337-38.652 32.337z" color="#000000" fill="#eed7f4" stroke="url(#m)" stroke-linecap="round" stroke-width="6"/><path d="m947.26 80.02-93.464 140.23-49.69-64.608c-12.435-18.249-50.29-7.4624-33.474 14.276l67.66 87.979 17.97 23.33 16.052-24.105 109.46-164.33c9.7331-16.548-22.251-28.624-34.515-12.767z" color="#000000" fill="#eed7f4" stroke="url(#n)" stroke-linecap="round" stroke-width="6" style="block-progression:tb;text-indent:0;text-transform:none"/><g transform="translate(0 500)"><rect x="1" y="53.362" width="248" height="248" rx="24.345" ry="24.268" color="#000000" fill="url(#b)"/><path d="m13.406 238.59v25.219c0 12.1 9.7679 21.844 21.906 21.844h179.38c12.138 0 21.906-9.7436 21.906-21.844v-25.219h-223.19z" color="#000000" fill="url(#c)"/><path d="m13.406 112.83v-25.219c0-12.1 9.7679-21.844 21.906-21.844h179.38c12.138 0 21.906 9.7436 21.906 21.844v25.219h-223.19z" color="#000000" fill="url(#d)"/></g><g fill="#eed7f4" stroke="url(#r)" stroke-linecap="round" stroke-width="6"><path transform="translate(0 52.362)" d="m189.53 633.84c-21.416 9.1637-49.014 14.688-79.156 14.688-2.6123-0.19057-5.077-0.40705-7.4688-0.625-5.5431 5.798-8.75 12.537-8.75 19.75 0 21.578 28.475 39.062 63.562 39.062 14.492-1.2749 21.824-4.0388 34.125 3.0312l19.844 11.375 0.375-21.406c-2.7122-13.448 8.9435-19.945 9.1562-32.062 0-14.447-12.734-27.054-31.688-33.812z" color="#000000"/><path d="m110.96 589.79c54.954 0 99.519 22.63 99.519 50.555 0 27.925-44.564 50.555-99.519 50.555-22.698-1.6499-34.206-5.2586-53.473 3.891l-31.089 14.74 8.843-27.692c0.88532-21.844-18.427-35.152-18.836-50.749 0-20.752 39.6-41.301 94.554-41.301z" color="#000000"/></g><g transform="translate(250 500)"><rect x="1" y="53.362" width="248" height="248" rx="24.345" ry="24.268" color="#000000" fill="url(#b)"/><path d="m13.406 238.59v25.219c0 12.1 9.7679 21.844 21.906 21.844h179.38c12.138 0 21.906-9.7436 21.906-21.844v-25.219h-223.19z" color="#000000" fill="url(#c)"/><path d="m13.406 112.83v-25.219c0-12.1 9.7679-21.844 21.906-21.844h179.38c12.138 0 21.906 9.7436 21.906 21.844v25.219h-223.19z" color="#000000" fill="url(#d)"/></g><path d="m381.69 617.48-57.656 29.946-57.625 29.946 57.625 29.946 57.656 29.918v-25.644h101.91v-68.439h-101.91v-25.672z" color="#000000" fill="#eed7f4" stroke="url(#q)" stroke-linecap="round" stroke-width="6"/><g transform="translate(500 500)"><rect x="1" y="53.362" width="248" height="248" rx="24.345" ry="24.268" color="#000000" fill="url(#b)"/><path d="m13.406 238.59v25.219c0 12.1 9.7679 21.844 21.906 21.844h179.38c12.138 0 21.906-9.7436 21.906-21.844v-25.219h-223.19z" color="#000000" fill="url(#c)"/><path d="m13.406 112.83v-25.219c0-12.1 9.7679-21.844 21.906-21.844h179.38c12.138 0 21.906 9.7436 21.906 21.844v25.219h-223.19z" color="#000000" fill="url(#d)"/></g><g transform="translate(750 500)"><rect x="1" y="53.362" width="248" height="248" rx="24.345" ry="24.268" color="#000000" fill="url(#b)"/><path d="m13.406 238.59v25.219c0 12.1 9.7679 21.844 21.906 21.844h179.38c12.138 0 21.906-9.7436 21.906-21.844v-25.219h-223.19z" color="#000000" fill="url(#c)"/><path d="m13.406 112.83v-25.219c0-12.1 9.7679-21.844 21.906-21.844h179.38c12.138 0 21.906 9.7436 21.906 21.844v25.219h-223.19z" color="#000000" fill="url(#d)"/></g><path d="m819.16 584.32-37.224 37.224 55.835 55.801-55.835 55.835 37.224 37.224 55.835-55.835 55.835 55.835 37.224-37.224-55.835-55.835 55.835-55.801-37.224-37.224-55.835 55.835-55.835-55.835z" color="#000000" fill="#eed7f4" stroke="url(#o)" stroke-linecap="round" stroke-width="6"/><g transform="translate(0 750)"><rect x="1" y="53.362" width="248" height="248" rx="24.345" ry="24.268" color="#000000" fill="url(#b)"/><path d="m13.406 238.59v25.219c0 12.1 9.7679 21.844 21.906 21.844h179.38c12.138 0 21.906-9.7436 21.906-21.844v-25.219h-223.19z" color="#000000" fill="url(#c)"/><path d="m13.406 112.83v-25.219c0-12.1 9.7679-21.844 21.906-21.844h179.38c12.138 0 21.906 9.7436 21.906 21.844v25.219h-223.19z" color="#000000" fill="url(#d)"/></g><g transform="translate(250 750)"><rect x="1" y="53.362" width="248" height="248" rx="24.345" ry="24.268" color="#000000" fill="url(#b)"/><path d="m13.406 238.59v25.219c0 12.1 9.7679 21.844 21.906 21.844h179.38c12.138 0 21.906-9.7436 21.906-21.844v-25.219h-223.19z" color="#000000" fill="url(#c)"/><path d="m13.406 112.83v-25.219c0-12.1 9.7679-21.844 21.906-21.844h179.38c12.138 0 21.906 9.7436 21.906 21.844v25.219h-223.19z" color="#000000" fill="url(#d)"/></g><g transform="translate(500 750)"><rect x="1" y="53.362" width="248" height="248" rx="24.345" ry="24.268" color="#000000" fill="url(#b)"/><path d="m13.406 238.59v25.219c0 12.1 9.7679 21.844 21.906 21.844h179.38c12.138 0 21.906-9.7436 21.906-21.844v-25.219h-223.19z" color="#000000" fill="url(#c)"/><path d="m13.406 112.83v-25.219c0-12.1 9.7679-21.844 21.906-21.844h179.38c12.138 0 21.906 9.7436 21.906 21.844v25.219h-223.19z" color="#000000" fill="url(#d)"/></g><g transform="translate(750 750)"><rect x="1" y="53.362" width="248" height="248" rx="24.345" ry="24.268" color="#000000" fill="url(#b)"/><path d="m13.406 238.59v25.219c0 12.1 9.7679 21.844 21.906 21.844h179.38c12.138 0 21.906-9.7436 21.906-21.844v-25.219h-223.19z" color="#000000" fill="url(#c)"/><path d="m13.406 112.83v-25.219c0-12.1 9.7679-21.844 21.906-21.844h179.38c12.138 0 21.906 9.7436 21.906 21.844v25.219h-223.19z" color="#000000" fill="url(#d)"/></g></g><g fill="#eed7f4" stroke-linecap="round" stroke-linejoin="round"><path d="m368.31 987.24 57.656-29.946 57.625-29.946-57.625-29.946-57.656-29.918v25.644h-101.91v68.439h101.91v25.672z" color="#000000" stroke="url(#t)" stroke-width="6"/><g transform="translate(-1.2885 -3.6537)" stroke="url(#s)"><g transform="translate(-9.507 -38.732)"><path d="m210.38 959.11c-15.414 2.9201-20.137-2.8778-36.771-2.8778-16.297 0-21.301 6.3195-36.425 3.7586-18.774-3.179-26.422 16.705-26.422 35.627 0 3.5582 0.36502 27.036 1.0695 30.412h125.32c0.70445-3.3768 1.0695-26.854 1.0695-30.412 0-19.477-8.509-40.17-27.838-36.508z" color="#000000" stroke-width="6"/><path transform="matrix(.80152 0 0 .80157 111.51 254.16)" d="m115.49 847.89a38.028 38.028 0 0 1-38.028 38.028 38.028 38.028 0 0 1-38.028-38.028 38.028 38.028 0 0 1 38.028-38.028 38.028 38.028 0 0 1 38.028 38.028z" color="#000000" stroke-width="7.4856"/></g><g transform="translate(-4.2254 -36.62)"><path d="m143.28 979.73c-17.822 3.3814-23.284-3.3325-42.517-3.3325-18.844 0-24.63 7.3178-42.117 4.3524-21.708-3.6812-30.551 19.344-30.551 41.255 0 4.1203 0.42207 8.147 1.2366 12.057h144.9c0.81453-3.9102 1.2366-7.9369 1.2366-12.057 0-22.553-9.8388-46.516-32.188-42.275z" color="#000000" stroke-width="6"/><path transform="matrix(.92678 0 0 .9282 28.971 163.42)" d="m115.49 847.89c0 21.002-17.026 38.028-38.028 38.028s-38.028-17.026-38.028-38.028 17.026-38.028 38.028-38.028 38.028 17.026 38.028 38.028z" color="#000000" stroke-width="6.4691"/></g></g><g transform="translate(-2.6314 -3.4119)" stroke="url(#u)" stroke-width="6"><path d="m669.13 935.91c-17.822 3.3814-23.284-3.3325-42.517-3.3325-18.844 0-24.63 7.3178-42.117 4.3524-21.708-3.6812-30.551 19.344-30.551 41.255 0 4.1203 0.42207 8.147 1.2366 12.057h144.9c0.81453-3.9102 1.2366-7.9369 1.2366-12.057 0-22.553-9.8388-46.516-32.188-42.275z" color="#000000"/><path d="m661.86 906.6c0 19.494-15.779 35.298-35.244 35.298s-35.244-15.803-35.244-35.298 15.779-35.298 35.244-35.298 35.244 15.803 35.244 35.298z" color="#000000"/></g><path d="m663.57 586.6c-1.6444 0-3.2408 0.18665-4.7812 0.53125h-22.844l2.2812 120.41c-8.9695-3.606-19.674-3.7188-31.188-3.7188-31.549 0-53.125 13.74-53.125 33.156s21.576 31.156 53.125 31.156 51.125-11.74 51.469-25.573c0-4.6501 1.0938-116.83 1.0938-116.83 19.327 8.2816 34.062 35.469 34.062 35.469s11.006-33.804-13.875-49.969c-8.1465-5.2928-5.86-18.053-10.969-22.812l0.0312-1.2812h-2.125c-0.89193-0.34595-1.9243-0.53125-3.1562-0.53125z" color="#000000" stroke="url(#p)" stroke-width="6"/><path d="m878.17 837.44c-12.523 1.4e-4 -24.451 2.2657-35.688 6.7812v0.0312c-9e-3 4e-3 -0.0221-4e-3 -0.0312 0-11.238 4.4614-21.202 10.96-29.781 19.406-8.3936 8.327-14.907 18.006-19.438 29-4.5314 10.995-6.7813 22.592-6.7812 34.688-1e-5 12.526 2.2178 24.336 6.6875 35.344 4.4707 10.943 11 20.638 19.531 28.969 8.5084 8.309 18.269 14.667 29.188 19 0.0129 0.01 0.0184 0.026 0.0312 0.031 10.92 4.3889 22.58 6.5937 34.844 6.5937 10.132 0 20.11-1.7679 29.875-5.2187h0.0312c9.8305-3.3909 18.919-8.3096 27.219-14.75a3.2473 3.2473 0 0 0 0.53125-4.5938l-8.6562-10.718a3.2473 3.2473 0 0 0-4.5312-0.53125c-6.4058 4.989-13.457 8.82-21.156 11.469a3.2473 3.2473 0 0 0-0.0312 0c-7.6302 2.7074-15.355 4.0312-23.281 4.0312-9.7146-2e-5 -18.779-1.6865-27.25-5.0625-8.467-3.3132-15.901-8.15-22.344-14.531a3.2473 3.2473 0 0 0-0.0312 0c-6.6978-6.5134-11.783-13.976-15.344-22.5-4e-3 -9e-3 4e-3 -0.0222 0-0.0312-3.4878-8.5158-5.2188-17.675-5.2188-27.5-3e-5 -11.912 2.6866-22.83 8.0938-32.969 5.4745-10.211 12.976-18.388 22.625-24.656a3.2473 3.2473 0 0 0 0.0312-0.0312c5.8899-3.9265 12.24-6.8451 19.188-8.8125a3.2473 3.2473 0 0 0 0.0312 0c6.9508-2.0298 14.223-3.0311 21.844-3.0312 10.885 1.3e-4 20.845 2.12 29.969 6.4062a3.2473 3.2473 0 0 0 0.0312 0c9.1878 4.2266 16.896 10.332 23.281 18.375 3.8836 4.8548 6.7234 10.11 8.5938 15.781a3.2473 3.2473 0 0 0 0.0312 0c1.9361 5.6879 2.9061 11.794 2.9062 18.344-1.6e-4 10.867-2.4988 19.4-7.3438 25.938a3.2473 3.2473 0 0 0-0.0312 0c-4.0505 5.4829-9.3292 8.91-16.094 10.656v-66.844a3.2473 3.2473 0 0 0-3.25-3.25h-13.781a3.2473 3.2473 0 0 0-3.25 3.25v4.5c-2.6336-2.302-5.4582-4.2252-8.5312-5.6875-0.0121-6e-3 -0.0192-0.0254-0.0312-0.0312-5.5105-2.6766-11.843-3.9686-18.844-3.9688-11.777 1.1e-4 -21.878 4.4787-29.375 13.156-7.5023 8.6833-11.188 20.032-11.188 33.469-6e-5 13.431 3.6624 24.756 11.094 33.438a3.2473 3.2473 0 0 0 0.0312 0c7.5006 8.6119 17.601 13.094 29.438 13.094 6.9968 1e-5 13.268-1.2328 18.719-3.7812a3.2473 3.2473 0 0 0 0.0312 0c3.1128-1.4766 5.9775-3.4595 8.6562-5.8125v6.7188a3.2473 3.2473 0 0 0 3.3125 3.25c18.566-0.39784 33.609-5.7134 44.5-16.125 10.895-10.415 16.312-24.79 16.312-42.344-1.9e-4 -8.2428-1.3486-16.245-4.0312-23.969-3e-3 -9e-3 3e-3 -0.022 0-0.0312-2.6204-7.7162-6.4493-14.878-11.469-21.438a3.2473 3.2473 0 0 0-0.0312 0c-8.2006-10.667-18.392-18.978-30.531-24.781-12.077-5.8046-25.242-8.7186-39.312-8.7188zm-2.5938 64.344c7.1039 7e-5 12.216 2.2248 16.25 6.875a3.2473 3.2473 0 0 0 0 0.0312c4.021 4.5797 6.1249 10.809 6.125 19.25-1.1e-4 8.5843-2.1073 14.901-6.0625 19.469a3.2473 3.2473 0 0 0 0 0.0312c-3.8907 4.5575-8.9428 6.75-16.125 6.75-7.2508 2e-5 -12.367-2.1954-16.312-6.6875-3.9515-4.5636-6.0626-10.91-6.0625-19.562-7e-5 -8.4958 2.0902-14.774 6.0312-19.344 0.0101-0.0115 0.0212-0.0198 0.0312-0.0312 4.0288-4.5706 9.1006-6.7812 16.125-6.7812z" stroke="url(#v)" stroke-width="6"/></g></g></svg>
