<svg version="1.1" viewBox="0 0 306.18 445.34" xmlns="http://www.w3.org/2000/svg"><g transform="translate(-47.508 -.99667)" fill="none" stroke="#000" stroke-width="3"><g transform="translate(23.645 -5.3276)"><path d="m80.734 87.864v-51.519c0-2.839-1.514-5.4608-3.9726-6.8804-2.4586-1.4195-5.4866-1.4195-7.9452 0-2.4586 1.4195-3.9726 4.0413-3.9726 6.8804v68.92"/><path d="m96.624 87.864v-4.4943c0-2.839-1.514-5.4608-3.9726-6.8804-2.4587-1.4195-5.4866-1.4195-7.9452 0-2.4586 1.4195-3.9726 4.0413-3.9726 6.8804v4.4943"/><path d="m112.51 87.864v-4.4943c0-2.839-1.514-5.4608-3.9726-6.8804-2.4587-1.4195-5.4866-1.4195-7.9452 0-2.4586 1.4195-3.9726 4.0413-3.9726 6.8804v4.4943"/><path d="m119.27 120.15c5.3848-6.6107 9.1352-14.045 9.1352-20.487v-12.869c0-2.839-1.514-5.4608-3.9726-6.8804-2.4586-1.4195-5.4866-1.4195-7.9452 0-2.4586 1.4195-3.9726 4.0413-3.9726 6.8804v1.0717"/><path d="m64.898 100.68v-28.654c0-2.839-1.514-5.4608-3.9726-6.8804-2.4587-1.4195-5.4866-1.4195-7.9452 0-2.4587 1.4195-3.9726 4.0413-3.9726 6.8804v27.638c0 9.59 3.3825 15.173 8.1798 20.447"/><path d="m49.276 86.857c2.839 0 5.4609-1.514 6.8804-3.9726 1.4195-2.4586 1.4195-5.4866 0-7.9452-1.4195-2.4586-4.0413-3.9726-6.8804-3.9726"/><g><rect x="57.187" y="120.11" width="64.063" height="34.98" rx="2.4236" ry="2.4236" style="paint-order:markers fill stroke"/><rect x="57.187" y="120.11" width="64.063" height="34.98" rx="2.4236" ry="2.4236" style="paint-order:markers fill stroke"/><path d="m64.872 46.546c-4.1073 0.257-11.505 4.5046-13.026 1.8701-1.7935-3.1064 8.7844-8.5046 8.7844-12.091s-10.578-8.9851-8.7844-12.091 11.757 3.3552 14.864 1.5617 2.4924-13.653 6.0794-13.653c3.5869 0 2.973 11.86 6.0794 13.653 3.1064 1.7935 13.07-4.6681 14.864-1.5617 1.7935 3.1064-8.7844 8.5046-8.7844 12.091 0 3.5869 10.578 8.9851 8.7844 12.091-1.485 2.5722-8.572-1.4158-12.729-1.8452" style="paint-order:markers fill stroke"/></g><path d="m77.415 39.761c0 1.6532-0.88161 3.18-2.3133 4.0066-1.4317 0.82661-3.1949 0.82661-4.6267 0-1.4317-0.82661-2.3133-2.3534-2.3133-4.0066v-2.7344c0-1.6532 0.88161-3.18 2.3133-4.0066 1.4317-0.82661 3.195-0.82661 4.6267 0 1.4317 0.82661 2.3133 2.3534 2.3133 4.0066v2.7344z"/><circle cx="111.11" cy="130.25" r="6.1116" style="paint-order:markers fill stroke"/></g><g transform="translate(71.89)"><path d="m209.3 86.854v-13.624m-15.89-0.25254v13.876"/><path d="m193.45 86.854v-4.4943c0-2.839-1.514-5.4608-3.9726-6.8804-2.4586-1.4195-5.4866-1.4195-7.9452 0-2.4586 1.4195-3.9726 4.0413-3.9726 6.8804v4.4943"/><path d="m225.15 86.854v-4.4943c0-2.839-1.514-5.4608-3.9726-6.8804-2.4587-1.4195-5.4866-1.4195-7.9452 0-2.4586 1.4195-3.9726 4.0413-3.9726 6.8804v4.4943"/><path d="m231.9 119.14c5.3848-6.6107 9.1352-14.045 9.1352-20.487v-12.869c0-2.839-1.514-5.4608-3.9726-6.8804-2.4586-1.4195-5.4866-1.4195-7.9452 0-2.4586 1.4195-3.9726 4.0413-3.9726 6.8804v1.0717"/><path d="m177.53 99.666v-26.089m-3.9726-9.4453c-2.4586-1.4195-5.4866-1.4195-7.9452 0-2.4587 1.4195-3.9726 4.0413-3.9726 6.8804v27.638c0 9.59 3.3825 15.173 8.1798 20.447"/><path d="m161.91 85.847c2.839 0 5.4609-1.514 6.8804-3.9726 1.4195-2.4586 1.4195-5.4866 0-7.9452-1.4195-2.4586-4.0414-3.9726-6.8804-3.9726"/><g><rect x="169.82" y="119.1" width="64.063" height="34.98" rx="2.4236" ry="2.4236" style="paint-order:markers fill stroke"/><rect x="169.82" y="119.1" width="64.063" height="34.98" rx="2.4236" ry="2.4236" style="paint-order:markers fill stroke"/><circle cx="223.74" cy="129.24" r="6.1116" style="paint-order:markers fill stroke"/><path d="m230.65 73.22c-3.1842 3.1842-14.327-4.9277-18.488-3.2044-4.1604 1.7233-6.3037 15.339-10.807 15.339s-6.6464-13.615-10.807-15.339c-4.1604-1.7233-15.303 6.3886-18.488 3.2044-3.1842-3.1842 4.9277-14.327 3.2044-18.488-1.7233-4.1604-15.339-6.3037-15.339-10.807 0-4.5032 13.615-6.6464 15.339-10.807 1.7233-4.1604-6.3886-15.303-3.2044-18.488 3.1842-3.1842 14.327 4.9277 18.488 3.2044 4.1604-1.7233 6.3037-15.339 10.807-15.339s6.6464 13.615 10.807 15.339c4.1604 1.7233 15.303-6.3886 18.488-3.2044 3.1842 3.1842-4.9277 14.327-3.2044 18.488 1.7233 4.1604 15.339 6.3037 15.339 10.807s-13.615 6.6464-15.339 10.807c-1.7233 4.1604 6.3886 15.303 3.2044 18.488z" style="paint-order:markers fill stroke"/></g></g><g transform="translate(143.25 11.334)"><path d="m118.62 229.06h4.4943c2.839 0 5.4608-1.514 6.8804-3.9726 1.4195-2.4586 1.4195-5.4866 0-7.9452-1.4195-2.4586-4.0414-3.9726-6.8804-3.9726h-4.4943"/><path d="m118.62 244.95h4.4943c2.839 0 5.4608-1.514 6.8804-3.9726 1.4195-2.4587 1.4195-5.4866 0-7.9452-1.4195-2.4586-4.0414-3.9726-6.8804-3.9726h-4.4943"/><path d="m86.331 243.7c6.6107 5.3848 14.045 9.1352 20.487 9.1352h12.869c2.839 0 5.4608-1.514 6.8804-3.9726 0.90668-1.5704 1.2342-3.3731 0.98267-5.1113"/><path d="m105.8 197.33h14.654c2.839 0 5.4608-1.514 6.8804-3.9726s1.4195-5.4866 0-7.9452c-1.4195-2.4587-4.0414-3.9726-6.8804-3.9726h-13.638c-9.59 0-15.173 3.3825-20.447 8.1798"/><path d="m105.62 181.71c0 2.839 1.514 5.4609 3.9726 6.8804s5.4866 1.4195 7.9452 0c2.4586-1.4195 3.9726-4.0414 3.9726-6.8804"/><g><rect transform="rotate(90)" x="189.62" y="-86.371" width="64.063" height="34.98" rx="2.4236" ry="2.4236" style="paint-order:markers fill stroke"/><rect transform="rotate(90)" x="189.62" y="-86.371" width="64.063" height="34.98" rx="2.4236" ry="2.4236" style="paint-order:markers fill stroke"/><circle transform="rotate(90)" cx="243.55" cy="-76.233" r="6.1116" style="paint-order:markers fill stroke"/></g><path d="m118.62 213.17h4.4943c2.839 0 5.4608-1.514 6.8804-3.9726 1.4195-2.4586 1.4195-5.4866 0-7.9452-1.4195-2.4586-4.0414-3.9726-6.8804-3.9726h-4.4943"/><path d="m141.36 237h-4.4943c-2.839 0-5.4608-1.514-6.8804-3.9726-1.4195-2.4586-1.4195-5.4866 0-7.9452 1.4195-2.4586 4.0414-3.9726 6.8804-3.9726h4.4943"/><path d="m141.36 252.89h-4.4943c-2.839 0-5.4608-1.514-6.8804-3.9726-1.4195-2.4587-1.4195-5.4866 0-7.9452 1.4195-2.4586 4.0414-3.9726 6.8804-3.9726h4.4943"/><path d="m173.65 251.65c-6.6107 5.3848-14.045 9.1352-20.487 9.1352h-12.869c-2.839 0-5.4608-1.514-6.8804-3.9726-0.90668-1.5704-1.2342-3.3731-0.98267-5.1113"/><path d="m154.18 205.28h-14.654c-2.839 0-5.4608-1.514-6.8804-3.9726s-1.4195-5.4866 0-7.9452c1.4195-2.4587 4.0414-3.9726 6.8804-3.9726h13.638c9.59 0 15.173 3.3825 20.447 8.1798"/><path d="m154.36 189.65c0 2.839-1.514 5.4609-3.9726 6.8804s-5.4866 1.4195-7.9452 0c-2.4586-1.4195-3.9726-4.0414-3.9726-6.8804"/><g><rect transform="matrix(0,1,1,0,0,0)" x="197.57" y="173.61" width="64.063" height="34.98" rx="2.4236" ry="2.4236" style="paint-order:markers fill stroke"/><rect transform="matrix(0,1,1,0,0,0)" x="197.57" y="173.61" width="64.063" height="34.98" rx="2.4236" ry="2.4236" style="paint-order:markers fill stroke"/><circle transform="matrix(0,1,1,0,0,0)" cx="251.49" cy="183.75" r="6.1116" style="paint-order:markers fill stroke"/></g><path d="m141.36 221.11h-4.4943c-2.839 0-5.4608-1.514-6.8804-3.9726-1.4195-2.4586-1.4195-5.4866 0-7.9452 1.4195-2.4586 4.0414-3.9726 6.8804-3.9726h4.4943"/></g><g transform="translate(-196.77 188.94)"><path d="m337.55 69.917c-6.6107 5.3848-14.045 9.1352-20.487 9.1352h-12.869c-2.839 0-5.4608-1.514-6.8804-3.9726-0.90668-1.5704-1.2342-3.3731-0.98267-5.1113"/><path d="m305.24 39.53h-51.519c-2.839 0-5.4608-1.514-6.8804-3.9726-1.4195-2.4586-1.4195-5.4866 0-7.9452 1.4195-2.4586 4.0413-3.9726 6.8804-3.9726h68.92"/><path d="m305.24 55.421h-4.4943c-2.839 0-5.4608-1.514-6.8804-3.9726-1.4195-2.4586-1.4195-5.4866 0-7.9452 1.4195-2.4586 4.0413-3.9726 6.8804-3.9726h4.4943"/><path d="m305.24 71.311h-4.4943c-2.839 0-5.4608-1.514-6.8804-3.9726-1.4195-2.4587-1.4195-5.4866 0-7.9452 1.4195-2.4586 4.0413-3.9726 6.8804-3.9726h4.4943"/><path d="m318.06 23.694h-28.654c-2.839 0-5.4608-1.514-6.8804-3.9726-1.4195-2.4586-1.4195-5.4866 0-7.9452 1.4195-2.4587 4.0413-3.9726 6.8804-3.9726h27.638c9.59 0 15.173 3.3825 20.447 8.1798"/><path d="m304.24 8.0727c0 2.839-1.514 5.4609-3.9726 6.8804s-5.4866 1.4195-7.9452 0-3.9726-4.0414-3.9726-6.8804"/><rect transform="matrix(0,1,1,0,0,0)" x="15.984" y="337.49" width="64.063" height="34.98" rx="2.4236" ry="2.4236" style="paint-order:markers fill stroke"/><rect transform="matrix(0,1,1,0,0,0)" x="15.984" y="337.49" width="64.063" height="34.98" rx="2.4236" ry="2.4236" style="paint-order:markers fill stroke"/><path d="m257.14 36.212c1.6532 0 3.18-0.88161 4.0066-2.3133 0.82661-1.4317 0.82661-3.195 0-4.6267s-2.3534-2.3133-4.0066-2.3133h-2.7344c-1.6532 0-3.18 0.88161-4.0066 2.3133s-0.82661 3.195 0 4.6267c0.82661 1.4317 2.3534 2.3133 4.0066 2.3133h2.7344z"/><circle transform="matrix(0,1,1,0,0,0)" cx="69.908" cy="347.63" r="6.1116" style="paint-order:markers fill stroke"/></g><g transform="translate(-216.24 244.9)"><path d="m300.17 168.55c6.6107 5.3848 14.045 9.1352 20.487 9.1352h12.869c2.839 0 5.4608-1.514 6.8804-3.9726 0.90668-1.5704 1.2342-3.3731 0.98267-5.1113"/><path d="m332.47 138.16h51.519c2.839 0 5.4608-1.514 6.8804-3.9726 1.4195-2.4586 1.4195-5.4866 0-7.9452-1.4195-2.4586-4.0413-3.9726-6.8804-3.9726h-68.92"/><path d="m332.47 154.05h4.4943c2.839 0 5.4608-1.514 6.8804-3.9726 1.4195-2.4586 1.4195-5.4866 0-7.9452-1.4195-2.4586-4.0413-3.9726-6.8804-3.9726h-4.4943"/><path d="m332.47 169.94h4.4943c2.839 0 5.4608-1.514 6.8804-3.9726 1.4195-2.4587 1.4195-5.4866 0-7.9452-1.4195-2.4586-4.0413-3.9726-6.8804-3.9726h-4.4943"/><path d="m319.66 122.32h28.654c2.839 0 5.4608-1.514 6.8804-3.9726 1.4195-2.4587 1.4195-5.4866 0-7.9452-1.4195-2.4587-4.0413-3.9726-6.8804-3.9726h-27.638c-9.59 0-15.173 3.3825-20.447 8.1798"/><path d="m333.48 106.7c0 2.839 1.514 5.4609 3.9726 6.8804s5.4866 1.4195 7.9452 0 3.9726-4.0414 3.9726-6.8804"/><rect transform="rotate(90)" x="114.61" y="-300.23" width="64.063" height="34.98" rx="2.4236" ry="2.4236" style="paint-order:markers fill stroke"/><rect transform="rotate(90)" x="114.61" y="-300.23" width="64.063" height="34.98" rx="2.4236" ry="2.4236" style="paint-order:markers fill stroke"/><path d="m380.58 134.84c-1.6532 0-3.18-0.88161-4.0066-2.3133-0.82661-1.4317-0.82661-3.195 0-4.6267 0.82661-1.4317 2.3534-2.3133 4.0066-2.3133h2.7344c1.6532 0 3.18 0.88161 4.0066 2.3133 0.82661 1.4317 0.82661 3.1949 0 4.6267-0.82661 1.4317-2.3534 2.3133-4.0066 2.3133h-2.7344z"/><circle transform="rotate(90)" cx="168.54" cy="-290.09" r="6.1116" style="paint-order:markers fill stroke"/></g><g transform="translate(-128.3 149.39)"><path d="m400.27 275.37-19.868 5.421c-2.7389 0.74729-5.6668-0.0231-7.6834-2.0214-2.0166-1.9983-2.8136-4.9194-2.0914-7.665 0.72227-2.7456 2.8531-4.8963 5.592-5.6436l19.037-5.1941"/><path d="m404.05 283.32-6.1743 1.6846c-2.7389 0.7473-5.6668-0.0231-7.6834-2.0214-1.1436-1.1332-1.895-2.5631-2.1995-4.0895"/><path d="m388.03 262.24-23.631 6.4475c-2.7389 0.74729-5.6668-0.0231-7.6834-2.0214-2.0166-1.9983-2.8136-4.9194-2.0914-7.665 0.72226-2.7456 2.8531-4.8963 5.592-5.6436l23.631-6.4475 19.095-18.966"/><path d="m406.16 290.83c-2.2803 0.17987-4.5566-0.63306-6.216-2.2773-1.1436-1.1332-1.895-2.5631-2.1995-4.0895"/><path d="m390.16 200.83 24.494 5.5802"/><path d="m440.38 258.9c-2.0905-2.0905-2.9062-5.1358-2.1411-7.9915 0.76517-2.8556 2.9947-5.0852 5.8504-5.8504 2.8557-0.76517 5.901 0.0506 7.9915 2.1411 1.1525 1.1525 2.3051 2.3051 3.4576 3.4576 2.0905 2.0905 2.9062 5.1358 2.1411 7.9915-0.76517 2.8556-2.9947 5.0852-5.8504 5.8504-2.8556 0.76515-5.901-0.0506-7.9915-2.1411-1.1526-1.1525-2.3051-2.3051-3.4576-3.4576z"/><path d="m428.68 270.6c-2.0905-2.0905-2.9062-5.1358-2.1411-7.9915 0.76517-2.8557 2.9947-5.0852 5.8504-5.8504 2.8557-0.76518 5.901 0.0506 7.9915 2.1411 1.1525 1.1525 2.3051 2.3051 3.4576 3.4576 2.0905 2.0905 2.9062 5.1358 2.1411 7.9915s-2.9947 5.0852-5.8504 5.8504c-2.8556 0.76515-5.901-0.0506-7.9915-2.1411-1.1526-1.1525-2.3051-2.3051-3.4576-3.4576z"/><path d="m416.98 282.31c-2.0905-2.0905-2.9062-5.1358-2.1411-7.9915 0.76517-2.8556 2.9947-5.0852 5.8504-5.8504 2.8557-0.76517 5.901 0.0506 7.9915 2.1411 1.1525 1.1525 2.3051 2.3051 3.4576 3.4576 2.0905 2.0905 2.9062 5.1358 2.1411 7.9915s-2.9947 5.0852-5.8504 5.8504c-2.8556 0.76515-5.901-0.0506-7.9915-2.1411-1.1526-1.1525-2.3051-2.3051-3.4576-3.4576z"/><path d="m406.2 290.6c-1.723-1.723-2.3954-4.233-1.7647-6.5866 0.63065-2.3536 2.4683-4.1913 4.8219-4.8219 2.3536-0.63066 4.8636 0.0417 6.5866 1.7647 0.94992 0.94991 1.8998 1.8998 2.8498 2.8498 1.723 1.723 2.3954 4.233 1.7647 6.5866-0.63066 2.3536-2.4683 4.1913-4.8219 4.8219s-4.8636-0.0417-6.5866-1.7647c-0.94993-0.94993-1.8999-1.8999-2.8498-2.8498z"/><path d="m441.72 255.09c-1.169-1.169-1.6252-2.872-1.1973-4.4689 0.42789-1.5969 1.6747-2.8437 3.2716-3.2716 1.5969-0.42788 3.2999 0.0283 4.4689 1.1973l1.9335 1.9335c1.169 1.169 1.6252 2.872 1.1973 4.4689-0.42788 1.5969-1.6747 2.8437-3.2716 3.2716-1.5969 0.42788-3.2998-0.0283-4.4688-1.1973l-1.9335-1.9335z"/><path d="m430.02 266.79c-1.169-1.169-1.6252-2.872-1.1973-4.4689 0.42789-1.5969 1.6747-2.8437 3.2716-3.2716 1.5969-0.42788 3.2999 0.0283 4.4689 1.1973 0.6445 0.6445 1.289 1.289 1.9335 1.9335 1.169 1.169 1.6252 2.872 1.1973 4.4689-0.42788 1.5969-1.6747 2.8437-3.2716 3.2716-1.5969 0.42788-3.2998-0.0283-4.4688-1.1973-0.6445-0.6445-1.289-1.289-1.9335-1.9335z"/><path d="m418.32 278.49c-1.169-1.169-1.6252-2.872-1.1973-4.4689 0.42789-1.5969 1.6747-2.8437 3.2716-3.2716 1.5969-0.42788 3.2999 0.0283 4.4689 1.1973l1.9335 1.9335c1.169 1.169 1.6252 2.872 1.1973 4.4689-0.42788 1.5969-1.6747 2.8437-3.2716 3.2716-1.5969 0.42789-3.2998-0.0283-4.4688-1.1973l-1.9335-1.9335z"/><path d="m406.96 287.1c-0.9635-0.96348-1.3395-2.3671-0.98683-3.6832 0.35267-1.3162 1.3803-2.3438 2.6964-2.6964 1.3162-0.35264 2.7198 0.0234 3.6832 0.98683 0.53119 0.5312 1.0624 1.0624 1.5936 1.5936 0.96349 0.96349 1.3395 2.3671 0.98682 3.6832-0.35266 1.3162-1.3803 2.3438-2.6964 2.6964-1.3162 0.35267-2.7198-0.0233-3.6832-0.98682l-1.5936-1.5936z"/><path d="m397.51 223.03 10.875 9.8219c2.1069 1.9028 5.0674 2.5366 7.7688 1.6634s4.7308-3.1203 5.3253-5.8964c0.59446-2.7761-0.33657-5.6569-2.4435-7.5598l-10.121-9.1411c-7.1171-6.4278-18.965-12.571-26.095-12.545"/><path d="m407.84 211.32c-1.9029 2.1069-2.5366 5.0674-1.6634 7.7688 0.87322 2.7014 3.1203 4.7308 5.8964 5.3253 2.7761 0.59446 5.6569-0.33657 7.5598-2.4435"/><g><rect transform="matrix(.67025 .74213 .74213 -.67025 0 0)" x="427.29" y="170.06" width="64.063" height="34.98" rx="2.4236" ry="2.4236" style="paint-order:markers fill stroke"/><rect transform="matrix(.67025 .74213 .74213 -.67025 0 0)" x="427.29" y="170.06" width="64.063" height="34.98" rx="2.4236" ry="2.4236" style="paint-order:markers fill stroke"/><circle transform="matrix(.67025 .74213 .74213 -.67025 0 0)" cx="481.21" cy="180.2" r="6.1116" style="paint-order:markers fill stroke"/><rect transform="rotate(120)" x="-21.167" y="-431.22" width="64.063" height="34.98" rx="2.4236" ry="2.4236" style="paint-order:markers fill stroke"/><rect transform="rotate(120)" x="-21.167" y="-431.22" width="64.063" height="34.98" rx="2.4236" ry="2.4236" style="paint-order:markers fill stroke"/><circle transform="rotate(120)" cx="32.757" cy="-421.08" r="6.1116" style="paint-order:markers fill stroke"/></g><path d="m351.63 251.35 7.2131 1.89"/></g></g></svg>
