<svg width="497.95mm" height="426.24mm" version="1.1" viewBox="0 0 497.95 426.24" xmlns="http://www.w3.org/2000/svg"><g transform="translate(923.77 1607.7)" fill="#777" shape-rendering="auto"><path d="m-770.45-1389.1a1.0584 1.0584 0 0 0-1.0588 1.0588v33.865a1.0584 1.0584 0 0 0 1.0588 1.0589h47.895a1.0584 1.0584 0 0 0 1.0583-1.0589v-33.865a1.0584 1.0584 0 0 0-1.0583-1.0588zm1.0583 2.1172h45.778v31.75h-45.778zm38.773 7.2135h-31.423c-1.4542-0.043-1.4541 2.161 0 2.1161h31.423c1.0737 0.016 0.91284-1.3924 0-1.958-0.17184-0.1069 0.20238-0.1623 0-0.1597zm-31.423 7.6021c-1.4153 0-1.4153 2.1212 0 2.1177h31.423c1.0737 0.016 0.91276-1.3925 0-1.958-0.17235-0.1065 0.20257-0.1611 0-0.1576zm31.423 7.6021h-31.423c-1.4539-0.043-1.4539 2.1603 0 2.1156h31.423c1.0737 0.016 0.91282-1.3924 0-1.958-0.17184-0.1069 0.20238-0.1623 0-0.1597zm-45.232 13.122a1.0584 1.0584 0 0 0-1.0583 1.0583v21.041a1.0584 1.0584 0 0 0 1.0583 1.0583h5.4012a1.0584 1.0584 0 0 0 1.0583-1.0583v-4.3429h45.778v4.3429a1.0584 1.0584 0 0 0 1.0583 1.0583h5.4012a1.0584 1.0584 0 0 0 1.0583-1.0583v-21.041a1.0584 1.0584 0 0 0-1.0583-1.0583zm1.0583 2.1167h56.581v18.924h-3.2845v-4.3429a1.0584 1.0584 0 0 0-1.0583-1.0584h-47.895a1.0584 1.0584 0 0 0-1.0583 1.0584v4.3429h-3.2845zm52.347 2.1879c-0.87321 0-1.6035 0.7304-1.6035 1.6035 0 0.8733 0.73032 1.6036 1.6035 1.6036 0.87318 0 1.6035-0.7303 1.6035-1.6036 0-0.8731-0.73033-1.6035-1.6035-1.6035zm0 1.0899c0.27072 0 0.51366 0.2429 0.51366 0.5136 0 0.2708-0.24294 0.5116-0.51366 0.5116-0.27075 0-0.5116-0.2408-0.5116-0.5116 0-0.2707 0.24085-0.5136 0.5116-0.5136zm-44.131 15.38a1.0584 1.0584 0 0 0-1.0588 1.0588v0.2656a1.0584 1.0584 0 0 0 1.0588 1.0583h40.148a1.0584 1.0584 0 0 0 1.0583-1.0583v-0.2656a1.0584 1.0584 0 0 0-1.0583-1.0588z" color="#000000" color-rendering="auto" dominant-baseline="auto" image-rendering="auto" solid-color="#000000" style="font-feature-settings:normal;font-variant-alternates:normal;font-variant-caps:normal;font-variant-ligatures:normal;font-variant-numeric:normal;font-variant-position:normal;isolation:auto;mix-blend-mode:normal;paint-order:markers fill stroke;shape-padding:0;text-decoration-color:#000000;text-decoration-line:none;text-decoration-style:solid;text-indent:0;text-orientation:mixed;text-transform:none;white-space:normal"/><path d="m-665.01-1314.8c-9.9238 0-17.99 8.0684-17.99 17.992 7e-3 2.2903 0.51234 4.5367 1.3674 6.6564l-20.648 20.648a1.0584 1.0584 0 0 0 0 1.4961l8.4667 8.4666a1.0584 1.0584 0 0 0 1.496 0l20.645-20.643c2.1218 0.8546 4.3699 1.3587 6.6621 1.3637a1.0584 1.0584 0 0 0 3e-3 0c9.924 0 17.992-8.0666 17.992-17.991s-8.0682-17.992-17.992-17.992zm0 2.1172c8.7801-1e-4 15.875 7.0949 15.875 15.875 0 8.78-7.0949 15.875-15.875 15.875-2.249-0.01-4.4718-0.4892-6.52-1.4181a1.0584 1.0584 0 0 0-1.1854 0.215l-20.351 20.354-6.9712-6.9711 20.357-20.357a1.0584 1.0584 0 0 0 0.21704-1.1855c-0.92919-2.0462-1.4146-4.266-1.4216-6.5133 0-8.779 7.0958-15.873 15.875-15.873zm0 2.8422c-7.1849 1e-4 -13.031 5.8479-13.031 13.033 1.3e-4 7.1846 5.8466 13.031 13.031 13.031 7.1849 2e-4 13.033-5.8464 13.033-13.031 1.6e-4 -7.1851-5.8477-13.033-13.033-13.033zm0 2.1171c6.0411-1e-4 10.916 4.8745 10.916 10.916-1.3e-4 6.0409-4.8747 10.914-10.916 10.914-6.0407-1e-4 -10.916-4.8733-10.916-10.914-1.3e-4 -6.041 4.8752-10.916 10.916-10.916zm-2.2112 0.9545a1.0584 1.0584 0 0 0-1.0583 1.0589v5.2906h-5.2932a1.0584 1.0584 0 0 0-1.0568 1.0588v4.2344a1.0584 1.0584 0 0 0 1.0568 1.0568h5.2932v5.2927a1.0584 1.0584 0 0 0 1.0583 1.0588h4.2323a1.0584 1.0584 0 0 0 1.0588-1.0588v-5.2927h5.2912a1.0584 1.0584 0 0 0 1.0583-1.0568v-4.2344a1.0584 1.0584 0 0 0-1.0583-1.0588h-5.2912v-5.2906a1.0584 1.0584 0 0 0-1.0588-1.0589zm1.0568 2.1172h2.1172v5.2911a1.0584 1.0584 0 0 0 1.0583 1.0584h5.2911v2.1172h-5.2911a1.0584 1.0584 0 0 0-1.0583 1.0588v5.2912h-2.1172v-5.2912a1.0584 1.0584 0 0 0-1.0568-1.0588h-5.2927v-2.1172h5.2927a1.0584 1.0584 0 0 0 1.0568-1.0584z" color="#000000" color-rendering="auto" dominant-baseline="auto" image-rendering="auto" solid-color="#000000" style="font-feature-settings:normal;font-variant-alternates:normal;font-variant-caps:normal;font-variant-ligatures:normal;font-variant-numeric:normal;font-variant-position:normal;isolation:auto;mix-blend-mode:normal;paint-order:markers fill stroke;shape-padding:0;text-decoration-color:#000000;text-decoration-line:none;text-decoration-style:solid;text-indent:0;text-orientation:mixed;text-transform:none;white-space:normal"/><path d="m-674.8-1532.5c-9.6018 0-17.408 7.8057-17.408 17.408-1.3e-4 -0.059 0 0.7813-3e-3 1.7084 0 0.576 0 1.1114-3e-3 1.676h-2.1724c-0.56412 8e-4 -1.0213 0.4578-1.0225 1.022v37.97c-2.1e-4 0.5651 0.45736 1.0236 1.0225 1.0244h39.166c0.56568 0 1.0242-0.4587 1.024-1.0244v-37.97c0-0.5647-0.45926-1.0218-1.024-1.0219h-30.147c0-0.5633 0-1.0975 3e-3 -1.671 0-0.9228 3e-3 -1.591 3e-3 -1.7159-1.3e-4 -5.845 4.7162-10.561 10.561-10.561 5.8448 1e-4 10.561 4.7164 10.561 10.561-3e-5 0.1493 8e-3 0.294 9e-3 0.334 0.0106 0.5578 0.46601 1.0045 1.024 1.0044h4.7954c0.56962 0 1.0298-0.4648 1.024-1.0344 0-0.109-6e-3 -0.3256-6e-3 -0.2985v-0.01c0-9.6016-7.8055-17.407-17.407-17.408zm0 2.048c8.2552 2e-4 14.951 6.4881 15.324 14.65h-2.7509c-0.37129-6.6209-5.8606-11.899-12.573-11.9-6.9518-2e-4 -12.609 5.6573-12.609 12.609 0-0.066 0 0.7844-3e-3 1.7094 0 0.5741 0 1.1089-3e-3 1.6725h-2.7509c0-0.5639 0-1.0981 3e-3 -1.673 0-0.9272 3e-3 -1.6125 3e-3 -1.7159 0-8.4939 6.8654-15.357 15.36-15.357zm-18.559 20.793h2.146c8e-3 5e-4 0.0164 7e-4 0.0246 0h4.7989c7e-3 -3e-4 0.0138-6e-4 0.0206 0h30.128v35.921h-37.117zm16.519 0.9709-11.39 6.5753c-1.1851 0.6825-0.15906 2.4596 1.0245 1.7745l14.461-8.3498zm15.017 0c-0.19574-0.01-0.3892 0.043-0.55747 0.1435l-25.849 14.925c-1.2391 0.6672-0.17211 2.5131 1.0245 1.7724l25.849-14.923c0.90737-0.5061 0.57145-1.8857-0.46699-1.918zm0 8.4923c-0.19592-0.01-0.38941 0.045-0.55747 0.1455l-25.849 14.923c-1.1856 0.6822-0.1592 2.46 1.0245 1.7744l25.849-14.925c0.90737-0.506 0.57145-1.8856-0.46699-1.9179zm0 8.4942c-0.19574-0.01-0.3892 0.043-0.55747 0.1435l-25.849 14.925c-1.2391 0.6671-0.17211 2.5131 1.0245 1.7724l25.849-14.923c0.90737-0.5061 0.57145-1.8857-0.46699-1.918zm0 8.4923c-0.19592-0.01-0.38941 0.045-0.55747 0.1455l-12.671 7.3148h4.0959l9.5992-5.5424c0.90737-0.506 0.57145-1.8856-0.46699-1.9179z" color="#000000" color-rendering="auto" dominant-baseline="auto" image-rendering="auto" solid-color="#000000" style="font-feature-settings:normal;font-variant-alternates:normal;font-variant-caps:normal;font-variant-ligatures:normal;font-variant-numeric:normal;font-variant-position:normal;isolation:auto;mix-blend-mode:normal;paint-order:markers fill stroke;shape-padding:0;text-decoration-color:#000000;text-decoration-line:none;text-decoration-style:solid;text-indent:0;text-orientation:mixed;text-transform:none;white-space:normal"/><path d="m-632.43-1376.7a1.0584 1.0584 0 0 0-0.89092 0.4868 1.0584 1.0584 0 0 0-5.3e-4 0 1.0584 1.0584 0 0 0-0.0511 0.089 1.0584 1.0584 0 0 0-1e-3 0 1.0584 1.0584 0 0 0-0.11526 0.5406v33.729a1.0584 1.0584 0 0 0 0.57672 1.0221 1.0584 1.0584 0 0 0 0.0284 0.013 1.0584 1.0584 0 0 0 0.0625 0.028 1.0584 1.0584 0 0 0 0.0832 0.028 1.0584 1.0584 0 0 0 0.0145 0.01 1.0584 1.0584 0 0 0 0.093 0.022 1.0584 1.0584 0 0 0 8e-3 0 1.0584 1.0584 0 0 0 0.19172 0.019h43.992l14.665 5e-4a1.0584 1.0584 0 0 0 0.21188-0.022 1.0584 1.0584 0 0 0 0.0491-0.012 1.0584 1.0584 0 0 0 0.0522-0.013 1.0584 1.0584 0 0 0 0.74726-1.0113v-33.816a1.0584 1.0584 0 0 0-0.24908-0.7359 1.0584 1.0584 0 0 0-0.0703-0.075 1.0584 1.0584 0 0 0-2e-3 0 1.0584 1.0584 0 0 0-0.0708-0.062 1.0584 1.0584 0 0 0-3e-3 0 1.0584 1.0584 0 0 0-0.0563-0.041 1.0584 1.0584 0 0 0-0.0263-0.019 1.0584 1.0584 0 0 0-3e-3 0 1.0584 1.0584 0 0 0-0.0884-0.051 1.0584 1.0584 0 0 0-0.0961-0.044 1.0584 1.0584 0 0 0-0.39378-0.077zm55.586 2.1193-19.224 15.022a1.0584 1.0584 0 0 0-0.0269 0.02l-7.0058 5.4741-7.0094-5.4761h-4e-3l-19.244-15.035zm2.0138 1.1136v29.526l-18.894-14.764zm-56.541 0 18.891 14.759-18.891 14.759zm20.61 16.102 7.0089 5.4756 5.2e-4 5e-4a1.0584 1.0584 0 0 0 0.14521 0.094 1.0584 1.0584 0 0 0 0.0331 0.019 1.0584 1.0584 0 0 0 5.2e-4 0 1.0584 1.0584 0 0 0 0.0295 0.013 1.0584 1.0584 0 0 0 1.095-0.1256l7.0058-5.474 18.595 14.53h-26.255l-26.257-1e-3z" color="#000000" color-rendering="auto" dominant-baseline="auto" image-rendering="auto" solid-color="#000000" style="font-feature-settings:normal;font-variant-alternates:normal;font-variant-caps:normal;font-variant-ligatures:normal;font-variant-numeric:normal;font-variant-position:normal;isolation:auto;mix-blend-mode:normal;paint-order:markers fill stroke;shape-padding:0;text-decoration-color:#000000;text-decoration-line:none;text-decoration-style:solid;text-indent:0;text-orientation:mixed;text-transform:none;white-space:normal"/><path d="m-531.4-1382.9a1.0584 1.0584 0 0 0-0.41288 0.084l-29.331 12.414a1.0584 1.0584 0 0 0-0.0155 0.01 1.0584 1.0584 0 0 0-0.0517 0.025 1.0584 1.0584 0 0 0-0.0439 0.023 1.0584 1.0584 0 0 0-0.0434 0.026 1.0584 1.0584 0 0 0-0.0491 0.033 1.0584 1.0584 0 0 0-0.0357 0.027 1.0584 1.0584 0 0 0-0.045 0.037 1.0584 1.0584 0 0 0-0.0398 0.037 1.0584 1.0584 0 0 0-0.0341 0.034 1.0584 1.0584 0 0 0-0.0393 0.044 1.0584 1.0584 0 0 0-0.031 0.038 1.0584 1.0584 0 0 0-0.0284 0.04 1.0584 1.0584 0 0 0-0.032 0.049 1.0584 1.0584 0 0 0-0.0269 0.047 1.0584 1.0584 0 0 0-0.0217 0.041 1.0584 1.0584 0 0 0-0.0243 0.054 1.0584 1.0584 0 0 0-0.0176 0.044 1.0584 1.0584 0 0 0-0.0196 0.058 1.0584 1.0584 0 0 0-0.0119 0.041 1.0584 1.0584 0 0 0-0.0134 0.062 1.0584 1.0584 0 0 0-8e-3 0.042 1.0584 1.0584 0 0 0-7e-3 0.06 1.0584 1.0584 0 0 0-4e-3 0.048 1.0584 1.0584 0 0 0-2e-3 0.056v33.864a1.0584 1.0584 0 0 0 5e-3 0.1018 1.0584 1.0584 0 0 0 1.0532 0.9571h58.658a1.0584 1.0584 0 0 0 1.0583-1.0584v-33.798a1.0584 1.0584 0 0 0-0.48628-0.9617 1.0584 1.0584 0 0 0-0.092-0.052 1.0584 1.0584 0 0 0-0.0641-0.031l-29.331-12.416a1.0584 1.0584 0 0 0-0.41185-0.084zm0 2.2076 27.258 11.538-19.602 15.32-7.0078-5.4761a1.0584 1.0584 0 0 0-1.3033 0l-7.0073 5.4751-19.599-15.318zm-28.273 13.435 18.891 14.764-18.891 14.759zm56.541 0v29.526l-18.893-14.764zm-28.273 10.119 6.9954 5.4664a1.0584 1.0584 0 0 0 0.0124 0.01v5e-4a1.0584 1.0584 0 0 0 3e-3 1e-3l19.245 15.038-52.513-6e-4 19.228-15.023a1.0584 1.0584 0 0 0 0.0222-0.017z" color="#000000" color-rendering="auto" dominant-baseline="auto" image-rendering="auto" solid-color="#000000" style="font-feature-settings:normal;font-variant-alternates:normal;font-variant-caps:normal;font-variant-ligatures:normal;font-variant-numeric:normal;font-variant-position:normal;isolation:auto;mix-blend-mode:normal;shape-padding:0;text-decoration-color:#000000;text-decoration-line:none;text-decoration-style:solid;text-indent:0;text-orientation:mixed;text-transform:none;white-space:normal"/><path d="m-746.28-1305a1.0584 1.0584 0 0 0-1.084 1.0567v8.0468h-28.691a1.0584 1.0584 0 0 0-1.0566 1.0586v15.658a1.0584 1.0584 0 0 0 1.0566 1.0586h28.691v8.0449a1.0584 1.0584 0 0 0 1.5879 0.918l29.35-16.934a1.0584 1.0584 0 0 0 0-1.834l-29.35-16.934a1.0584 1.0584 0 0 0-0.50392-0.1406zm1.0332 2.8906 26.172 15.1-26.172 15.102v-7.2715a1.0584 1.0584 0 0 0-1.0586-1.0586h-28.691v-13.541h28.691a1.0584 1.0584 0 0 0 1.0586-1.0586z" color="#000000" color-rendering="auto" dominant-baseline="auto" image-rendering="auto" solid-color="#000000" style="font-feature-settings:normal;font-variant-alternates:normal;font-variant-caps:normal;font-variant-ligatures:normal;font-variant-numeric:normal;font-variant-position:normal;isolation:auto;mix-blend-mode:normal;paint-order:markers fill stroke;shape-padding:0;text-decoration-color:#000000;text-decoration-line:none;text-decoration-style:solid;text-indent:0;text-orientation:mixed;text-transform:none;white-space:normal"/><path d="m-543.46-1597.8c-8.6146 0-15.602 6.9739-15.637 15.58a1.0584 1.0584 0 0 0 6e-3 0.1054c0.70301 7.3656 7.5918 15.539 14.338 21.82 6.3102 5.8758 12.783 10.219 12.783 10.219a1.0584 1.0584 0 0 0 1.1699 0.01s6.6985-4.3806 13.125-10.219c6.8696-6.2408 13.782-14.304 13.982-21.856a1.0584 1.0584 0 0 0 0-0.029c-8e-3 -8.6287-7.0078-15.629-15.639-15.629-4.675 0-9.0957 2.1077-12.062 5.7168-2.9673-3.6104-7.39-5.7136-12.066-5.7168zm0 2.1172c4.0666 0 7.9113 1.8338 10.479 4.9883 0.80457 0.989 2.3693 0.989 3.1738 0 2.5667-3.1539 6.4108-4.9848 10.477-4.9883 7.4838-1e-4 13.501 6.0127 13.52 13.492-0.1706 6.2308-6.5859 14.252-13.285 20.338-5.8219 5.2889-11.427 9.0366-12.275 9.5996-0.83473-0.569-6.2309-4.2743-11.939-9.5899-6.5708-6.1184-13.052-14.289-13.662-20.432 0.0641-7.4398 6.0584-13.408 13.514-13.408z" color="#000000" color-rendering="auto" dominant-baseline="auto" image-rendering="auto" solid-color="#000000" style="font-feature-settings:normal;font-variant-alternates:normal;font-variant-caps:normal;font-variant-ligatures:normal;font-variant-numeric:normal;font-variant-position:normal;isolation:auto;mix-blend-mode:normal;shape-padding:0;text-decoration-color:#000000;text-decoration-line:none;text-decoration-style:solid;text-indent:0;text-orientation:mixed;text-transform:none;white-space:normal"/><path d="m-603.1-1598.8c-13.798 0-25.006 11.208-25.006 25.006 3e-5 13.798 11.208 25.006 25.006 25.006 3.4494 0 6.742-0.7011 9.7344-1.9668a1.0584 1.0584 0 1 0-0.82423-1.9492c-2.7376 1.1579-5.7467 1.7988-8.9101 1.7988-12.654 0-22.889-10.235-22.889-22.889s10.235-22.889 22.889-22.889 22.891 10.235 22.891 22.889c-8e-3 2.093-0.59145 4.8448-1.6797 7.0254-1.0888 2.1817-2.5969 3.6904-4.3965 3.8964-1.2336 0.1413-3.0448-0.713-4.3574-2.0781s-2.0188-3.1094-1.7383-4.2773c4e-3 -0.013 0-0.032 4e-3 -0.045 0.33695-1.7421 0.44731-3.5214 0.41016-5.2871-0.0318-1.5136-0.19587-2.9939-0.50974-4.4141-0.0201-0.093-0.0124-0.1991-0.0332-0.291-0.26109-1.1498-0.5946-1.963-0.9375-2.7344-0.0928-0.225-0.12459-0.491-0.22659-0.7089-8e-3 -0.016-0.0236-0.029-0.0312-0.045-6e-3 -0.011-9e-3 -0.036-0.0156-0.047-0.0395-0.067-0.0936-0.1858-0.15626-0.3165l0.12109-2.2793a1.0584 1.0584 0 1 0-2.1133-0.1132l-3e-3 0.033c-0.57914-0.5007-1.1704-0.9982-1.8867-1.295-3.3272-1.3781-7.3544-1.3781-10.682 0-1.8254 0.7561-3.3474 2.2782-4.1035 4.1036-2.2791 5.5022-2.2791 12.242 0 17.744 0.75171 1.8148 2.2653 3.3283 4.0801 4.08 3.3422 1.3844 7.3864 1.3844 10.729 0 1.813-0.7509 3.3354-2.2607 4.082-4.0839 0.0696-0.1699 0.0928-0.3646 0.15819-0.5371 0.4001 0.688 0.76891 1.4008 1.3262 1.9804 1.6424 1.7082 3.8662 2.9733 6.123 2.7149 2.796-0.3202 4.7857-2.5219 6.0508-5.0567 1.2651-2.5348 1.8913-5.5034 1.9004-7.9648a1.0584 1.0584 0 0 0-5e-5 0c-3e-5 -13.798-11.208-25.006-25.006-25.006zm0 13.131c1.5771 0 3.1551 0.2835 4.5312 0.8535 1.2297 0.5094 2.3767 1.717 2.9766 3.002 0.47106 1.009 0.80626 2.1654 1.0586 3.375 0.16344 0.7801 0.20812 1.5588 0.27734 2.3535 0.0519 0.5731 0.14592 1.1267 0.1543 1.7129-0.032 1.3434-0.12803 2.5577-0.26368 3.6152-0.24323 1.7568-0.61209 3.479-1.2461 5.0273-0.50636 1.2366-1.6918 2.4173-2.9336 2.9317-2.7673 1.1462-6.3421 1.1462-9.1094 0-1.2399-0.5136-2.42-1.6956-2.9336-2.9356-2.041-4.9273-2.041-11.196 0-16.123 0.518-1.2505 1.7085-2.441 2.959-2.959 1.3762-0.57 2.9522-0.8535 4.5293-0.8535z" color="#000000" color-rendering="auto" dominant-baseline="auto" image-rendering="auto" solid-color="#000000" style="font-feature-settings:normal;font-variant-alternates:normal;font-variant-caps:normal;font-variant-ligatures:normal;font-variant-numeric:normal;font-variant-position:normal;isolation:auto;mix-blend-mode:normal;paint-order:markers fill stroke;shape-padding:0;text-decoration-color:#000000;text-decoration-line:none;text-decoration-style:solid;text-indent:0;text-orientation:mixed;text-transform:none;white-space:normal"/><path d="m-459.68-1383a1.0584 1.0584 0 0 0-0.709 0.2579l-29.416 25.524a1.0584 1.0584 0 0 0 0.69298 1.8593h4.3558v19.767a1.0584 1.0584 0 0 0 1.0583 1.0588h12.002a1.0584 1.0584 0 0 0 1.0583-1.0588v-12.404h9.8846v12.404a1.0584 1.0584 0 0 0 1.0568 1.0588h24.004a1.0584 1.0584 0 0 0 1.0589-1.0588v-19.767h4.3553a1.0584 1.0584 0 0 0 0.6935-1.8593l-29.416-25.524a1.0584 1.0584 0 0 0-0.67953-0.2579zm-0.0134 2.4588 26.582 23.065h-53.166zm-22.945 25.182h45.889v18.709h-21.887v-12.404a1.0584 1.0584 0 0 0-1.0583-1.0583h-12a1.0584 1.0584 0 0 0-1.0589 1.0583v12.404h-9.8847z" color="#000000" color-rendering="auto" dominant-baseline="auto" image-rendering="auto" solid-color="#000000" style="font-feature-settings:normal;font-variant-alternates:normal;font-variant-caps:normal;font-variant-ligatures:normal;font-variant-numeric:normal;font-variant-position:normal;isolation:auto;mix-blend-mode:normal;shape-padding:0;text-decoration-color:#000000;text-decoration-line:none;text-decoration-style:solid;text-indent:0;text-orientation:mixed;text-transform:none;white-space:normal"/><path d="m-910.77-1308.9a1.0584 1.0584 0 0 0-0.0155 0 1.0584 1.0584 0 0 0-0.65009 0.2517 1.0584 1.0584 0 0 0-0.0666 0.057l-4e-3 0.01a1.0584 1.0584 0 0 0-0.30697 0.7989v32.658a1.0584 1.0584 0 0 0 1.8066 0.7477l9.6196-9.617 2.1502 2.1503a1.0584 1.0584 0 0 0 1.496 0l11.972-11.972a1.0584 1.0584 0 0 0 0-1.4981l-2.1502-2.1508 9.6232-9.6211a1.0584 1.0584 0 0 0-0.7483-1.8066h-32.621a1.0584 1.0584 0 0 0-0.10594 0zm30.172 2.1193-8.5643 8.5648a1.0584 1.0584 0 0 0 0 1.496l2.1503 2.1503-10.477 10.478-2.1503-2.1502a1.0584 1.0584 0 0 0-1.4981 0l-8.5586 8.5586v-29.096zm11.502 6.8636a1.0584 1.0584 0 0 0-0.71673 0.3085l-9.6227 9.6232-2.1508-2.1508a1.0584 1.0584 0 0 0-1.496 0l-11.974 11.973a1.0584 1.0584 0 0 0 0 1.4981l2.1503 2.1503-9.617 9.617a1.0584 1.0584 0 0 0 0.74777 1.8066h32.637a1.0584 1.0584 0 0 0 0.38706-0.046 1.0584 1.0584 0 0 0 0.36899-0.2031 1.0584 1.0584 0 0 0 0.0666-0.057h4e-3a1.0584 1.0584 0 0 0 0.30488-0.834l2e-3 -32.625a1.0584 1.0584 0 0 0-1.0898-1.0563zm-1.0273 3.6112v29.097h-29.097l8.5607-8.5581a1.0584 1.0584 0 0 0 0-1.4981l-2.1508-2.1508 10.477-10.476 2.1503 2.1502a1.0584 1.0584 0 0 0 1.496 0z" color="#000000" color-rendering="auto" dominant-baseline="auto" image-rendering="auto" solid-color="#000000" style="font-feature-settings:normal;font-variant-alternates:normal;font-variant-caps:normal;font-variant-ligatures:normal;font-variant-numeric:normal;font-variant-position:normal;isolation:auto;mix-blend-mode:normal;shape-padding:0;text-decoration-color:#000000;text-decoration-line:none;text-decoration-style:solid;text-indent:0;text-orientation:mixed;text-transform:none;white-space:normal"/><path d="m-674.77-1460.8a1.0584 1.0584 0 0 0-0.87891 0.4258l-9.2617 12.412a1.0584 1.0584 0 0 0 0.84766 1.6914h3.2461v7.4082a1.0584 1.0584 0 0 0 1.0586 1.0586h9.9199a1.0584 1.0584 0 0 0 1.0586-1.0586v-7.4082h3.2422a1.0584 1.0584 0 0 0 0.84765-1.6914l-9.2637-12.412a1.0584 1.0584 0 0 0-0.8164-0.4258zm-0.0312 2.8282 7.1543 9.5839h-2.1914a1.0584 1.0584 0 0 0-1.0586 1.0586v7.4083h-7.8027v-7.4083a1.0584 1.0584 0 0 0-1.0586-1.0586h-2.1953zm-16.963 17.254a1.0584 1.0584 0 0 0-0.60157 0.209l-12.414 9.2617a1.0584 1.0584 0 0 0 0 1.6972l12.414 9.2637a1.0584 1.0584 0 0 0 1.6914-0.8496v-3.2422h7.4082a1.0584 1.0584 0 0 0 1.0586-1.0586v-9.9199a1.0584 1.0584 0 0 0-1.0586-1.0566h-7.4082v-3.2481a1.0584 1.0584 0 0 0-1.0898-1.0566zm33.941 0a1.0584 1.0584 0 0 0-1.1016 1.0566v3.2481h-7.4082a1.0584 1.0584 0 0 0-1.0586 1.0566v9.9199a1.0584 1.0584 0 0 0 1.0586 1.0586h7.4082v3.2422a1.0584 1.0584 0 0 0 1.6914 0.8496l12.412-9.2637a1.0584 1.0584 0 0 0 0-1.6972l-12.412-9.2617a1.0584 1.0584 0 0 0-0.58985-0.209zm-34.967 3.166v2.1973a1.0584 1.0584 0 0 0 1.0566 1.0586h7.4082v7.8046h-7.4082a1.0584 1.0584 0 0 0-1.0566 1.0566v2.1934l-9.5879-7.1543zm35.982 0 9.584 7.1523-9.584 7.1523v-2.1914a1.0584 1.0584 0 0 0-1.0586-1.0566h-7.4082v-7.8047h7.4082a1.0584 1.0584 0 0 0 1.0586-1.0586zm-22.951 14.562a1.0584 1.0584 0 0 0-1.0586 1.0586v7.4082h-3.2461a1.0584 1.0584 0 0 0-0.84766 1.6914l9.2617 12.412a1.0584 1.0584 0 0 0 1.6953 0l9.2637-12.412a1.0584 1.0584 0 0 0-0.84765-1.6914h-3.2422v-7.4082a1.0584 1.0584 0 0 0-1.0586-1.0586zm1.0586 2.1172h7.8027v7.4082a1.0584 1.0584 0 0 0 1.0586 1.0586h2.1914l-7.1543 9.5839-7.1524-9.5839h2.1953a1.0584 1.0584 0 0 0 1.0586-1.0586z" color="#000000" color-rendering="auto" dominant-baseline="auto" image-rendering="auto" solid-color="#000000" style="font-feature-settings:normal;font-variant-alternates:normal;font-variant-caps:normal;font-variant-ligatures:normal;font-variant-numeric:normal;font-variant-position:normal;isolation:auto;mix-blend-mode:normal;shape-padding:0;text-decoration-color:#000000;text-decoration-line:none;text-decoration-style:solid;text-indent:0;text-orientation:mixed;text-transform:none;white-space:normal"/><path d="m-889.87-1460.8a1.0584 1.0584 0 0 0-0.88086 0.4258l-9.2637 12.414a1.0584 1.0584 0 0 0 0.84961 1.6914h3.2422v7.4082a1.0584 1.0584 0 0 0 1.0566 1.0586h9.9199a1.0584 1.0584 0 0 0 1.0586-1.0586v-7.4082h3.2461a1.0584 1.0584 0 0 0 0.84961-1.6914l-9.2617-12.414a1.0584 1.0584 0 0 0-0.81641-0.4258zm-0.0332 2.8282 7.1543 9.5878h-2.1973a1.0584 1.0584 0 0 0-1.0586 1.0567v7.4101h-7.8027v-7.4101a1.0584 1.0584 0 0 0-1.0586-1.0567h-2.1914zm-4.1699 22.352a1.0584 1.0584 0 0 0-1.0586 1.0586v8.336a1.0584 1.0584 0 0 0 1.0586 1.0585h8.3359a1.0584 1.0584 0 0 0 1.0586-1.0585v-8.336a1.0584 1.0584 0 0 0-1.0586-1.0586zm1.0586 2.1172h6.2188v6.2188h-6.2188zm-1.8516 10.518a1.0584 1.0584 0 0 0-1.0566 1.0586v7.4082h-3.2422a1.0584 1.0584 0 0 0-0.84961 1.6914l9.2637 12.412a1.0584 1.0584 0 0 0 1.6973 0l9.2617-12.412a1.0584 1.0584 0 0 0-0.84961-1.6914h-3.2461v-7.4082a1.0584 1.0584 0 0 0-1.0586-1.0586zm1.0586 2.1172h7.8027v7.4082a1.0584 1.0584 0 0 0 1.0586 1.0586h2.1953l-7.1523 9.5839-7.1524-9.5839h2.1895a1.0584 1.0584 0 0 0 1.0586-1.0586z" color="#000000" color-rendering="auto" dominant-baseline="auto" image-rendering="auto" solid-color="#000000" style="font-feature-settings:normal;font-variant-alternates:normal;font-variant-caps:normal;font-variant-ligatures:normal;font-variant-numeric:normal;font-variant-position:normal;isolation:auto;mix-blend-mode:normal;shape-padding:0;text-decoration-color:#000000;text-decoration-line:none;text-decoration-style:solid;text-indent:0;text-orientation:mixed;text-transform:none;white-space:normal"/><path d="m-767.21-1452.2a1.0584 1.0584 0 0 0-1.0938 1.211l2.2285 15.328a1.0584 1.0584 0 0 0 1.7949 0.5957l2.293-2.293 5.2383 5.2403a1.0584 1.0584 0 0 0 1.498 0l7.0137-7.0157a1.0584 1.0584 0 0 0 0-1.4961l-5.2383-5.2382 2.2949-2.295a1.0584 1.0584 0 0 0-0.5957-1.7968l-15.328-2.2305a1.0584 1.0584 0 0 0-0.10547-0.01zm1.2031 2.3106 11.838 1.7207-1.5527 1.5527a1.0584 1.0584 0 0 0 0 1.4961l5.2383 5.2383-5.5176 5.5176-5.2383-5.2383a1.0584 1.0584 0 0 0-1.4961 0l-1.5488 1.5488zm19.484 12.549a1.0584 1.0584 0 0 0-0.73242 0.3106l-5.8945 5.8945a1.0584 1.0584 0 0 0 0 1.4961l5.8945 5.8945a1.0584 1.0584 0 0 0 1.4961 0l5.8965-5.8945a1.0584 1.0584 0 0 0 0-1.4961l-5.8965-5.8945a1.0584 1.0584 0 0 0-0.76368-0.3106zm0.0156 2.5547 4.3984 4.3984-4.3984 4.3985-4.3984-4.3985zm9.4785 5.8203a1.0584 1.0584 0 0 0-0.73242 0.3106l-7.0137 7.0136a1.0584 1.0584 0 0 0 0 1.4961l5.2383 5.2383-2.293 2.293a1.0584 1.0584 0 0 0 0.59571 1.7968l15.328 2.2247a1.0584 1.0584 0 0 0 1.1992-1.1993l-2.2285-15.326a1.0584 1.0584 0 0 0-1.7949-0.5957l-2.2969 2.2968-5.2383-5.2382a1.0584 1.0584 0 0 0-0.76368-0.3106zm0.0156 2.5547 5.2383 5.2383a1.0584 1.0584 0 0 0 1.4961 0l1.5527-1.5528 1.7207 11.836-11.836-1.7207 1.5488-1.5489a1.0584 1.0584 0 0 0 0-1.496l-5.2383-5.2383z" color="#000000" color-rendering="auto" dominant-baseline="auto" image-rendering="auto" solid-color="#000000" style="font-feature-settings:normal;font-variant-alternates:normal;font-variant-caps:normal;font-variant-ligatures:normal;font-variant-numeric:normal;font-variant-position:normal;isolation:auto;mix-blend-mode:normal;shape-padding:0;text-decoration-color:#000000;text-decoration-line:none;text-decoration-style:solid;text-indent:0;text-orientation:mixed;text-transform:none;white-space:normal"/><path d="m-623.8-1452.2a1.0584 1.0584 0 0 0-1.0957 1.2109l2.2285 15.328a1.0584 1.0584 0 0 0 1.7969 0.5957l2.291-2.291 5.2402 5.2383a1.0584 1.0584 0 0 0 1.4961 0l7.0137-7.0137a1.0584 1.0584 0 0 0 0-1.498l-5.2383-5.2383 2.2969-2.2949a1.0584 1.0584 0 0 0-0.59765-1.7969l-15.326-2.2305a1.0584 1.0584 0 0 0-0.10547-0.01zm41.467 0a1.0584 1.0584 0 0 0-0.16796 0.012l-15.326 2.2285a1.0584 1.0584 0 0 0-0.5957 1.7949l2.2949 2.2949-5.2383 5.2402a1.0584 1.0584 0 0 0 0 1.4962l7.0137 7.0136a1.0584 1.0584 0 0 0 1.498 0l5.2383-5.2383 2.293 2.293a1.0584 1.0584 0 0 0 1.7949-0.5977l2.2266-15.326a1.0584 1.0584 0 0 0-1.0312-1.211zm-40.264 2.3086 11.836 1.7206-1.5508 1.5528a1.0584 1.0584 0 0 0 0 1.4961l5.2383 5.2402-5.5176 5.5176-5.2383-5.2402a1.0584 1.0584 0 0 0-1.498 0l-1.5469 1.5468zm38.998 0-1.7207 11.838-1.5488-1.5488a1.0584 1.0584 0 0 0-1.4961 0l-5.2383 5.2383-5.5176-5.5176 5.2383-5.2383a1.0584 1.0584 0 0 0 0-1.498l-1.5527-1.5508zm-19.514 12.55a1.0584 1.0584 0 0 0-0.73243 0.3086l-5.8965 5.8945a1.0584 1.0584 0 0 0 0 1.498l5.8965 5.8946a1.0584 1.0584 0 0 0 1.4961 0l5.8945-5.8946a1.0584 1.0584 0 0 0 0-1.498l-5.8945-5.8945a1.0584 1.0584 0 0 0-0.76367-0.3086zm0.0156 2.5527 4.3984 4.3984-4.3984 4.3985-4.3984-4.3985zm-9.5098 5.8203a1.0584 1.0584 0 0 0-0.73243 0.3106l-5.2402 5.2382-2.2949-2.2949a1.0584 1.0584 0 0 0-1.7949 0.5957l-2.2285 15.326a1.0584 1.0584 0 0 0 1.1992 1.1992l15.328-2.2265a1.0584 1.0584 0 0 0 0.59571-1.7969l-2.293-2.291 5.2383-5.2403a1.0584 1.0584 0 0 0 0-1.4961l-7.0137-7.0136a1.0584 1.0584 0 0 0-0.76367-0.3106zm18.988 0a1.0584 1.0584 0 0 0-0.73438 0.3106l-7.0137 7.0136a1.0584 1.0584 0 0 0 0 1.4961l5.2383 5.2403-2.293 2.291a1.0584 1.0584 0 0 0 0.59766 1.7969l15.326 2.2265a1.0584 1.0584 0 0 0 1.1992-1.1992l-2.2266-15.326a1.0584 1.0584 0 0 0-1.7969-0.5957l-2.2949 2.2949-5.2383-5.2382a1.0584 1.0584 0 0 0-0.76367-0.3106zm-18.973 2.5547 5.5176 5.5176-5.2383 5.2402a1.0584 1.0584 0 0 0 0 1.4961l1.5469 1.5469-11.832 1.7187 1.7188-11.832 1.5508 1.5527a1.0584 1.0584 0 0 0 1.498 0zm18.988 0 5.2383 5.2383a1.0584 1.0584 0 0 0 1.4961 0l1.5527-1.5528 1.7188 11.834-11.834-1.7187 1.5488-1.5488a1.0584 1.0584 0 0 0 0-1.4981l-5.2383-5.2383z" color="#000000" color-rendering="auto" dominant-baseline="auto" image-rendering="auto" solid-color="#000000" style="font-feature-settings:normal;font-variant-alternates:normal;font-variant-caps:normal;font-variant-ligatures:normal;font-variant-numeric:normal;font-variant-position:normal;isolation:auto;mix-blend-mode:normal;shape-padding:0;text-decoration-color:#000000;text-decoration-line:none;text-decoration-style:solid;text-indent:0;text-orientation:mixed;text-transform:none;white-space:normal"/><path d="m-531.18-1302.7c-6.8412 0.01-12.987 3.9532-16.013 10.037-0.45022-0.05-0.90006-0.1141-1.3534-0.1173a1.0584 1.0584 0 0 0-8e-3 0c-7.1846 1e-4 -13.031 5.8465-13.031 13.031a1.0584 1.0584 0 0 0 2e-3 0.08c0.27723 3.6561 1.163 5.9404 3.0391 7.1406 1.8761 1.2003 4.266 1.2031 7.4042 1.2031h39.437c3.1968 0.3611 5.8098-0.579 7.5918-2.203 1.7972-1.6379 2.7599-3.91 2.8949-6.1562 0.19214-3.1958-1.2934-6.4318-3.6742-8.8987-2.3807-2.4669-5.711-4.1971-9.3555-4.1971a1.0584 1.0584 0 0 0-0.01 0c-0.31486 0-0.62781 0.042-0.94155 0.068-3.0342-6.0556-9.1622-9.9787-15.98-9.988a1.0584 1.0584 0 0 0-2e-3 0zm5.3e-4 2.1171h2e-3c6.2573 0.01 11.919 3.6869 14.471 9.4005a1.0584 1.0584 0 0 0 1.109 0.617c0.44791-0.061 0.89969-0.093 1.3519-0.098h4e-3c2.9667 1e-3 5.7919 1.4404 7.8285 3.5507 2.0375 2.1112 3.2322 4.8624 3.0856 7.3009-0.10364 1.724-0.85879 3.4888-2.2087 4.719-1.3499 1.2302-3.283 1.9823-5.996 1.6578a1.0584 1.0584 0 0 0-0.12713-0.01h-39.48c-3.1031 0-5.1402-0.1525-6.2637-0.8712-1.1159-0.7139-1.797-2.117-2.0588-5.4669 0.0169-6.0256 4.8769-10.883 10.906-10.885 0.57886 0 1.1577 0.054 1.7286 0.1504a1.0584 1.0584 0 0 0 1.1425-0.6155c2.5405-5.7457 8.2234-9.4492 14.506-9.4547zm-5.1697 2.1115a1.0584 1.0584 0 0 0-1.0589 1.0584v7.4083h-3.2458a1.0584 1.0584 0 0 0-0.84958 1.6914l9.2614 12.412a1.0584 1.0584 0 0 0 1.6971 0l9.264-12.412a1.0584 1.0584 0 0 0-0.84957-1.6914h-3.2422v-7.4083a1.0584 1.0584 0 0 0-1.0588-1.0584zm1.0563 2.1172h7.8032v7.4078a1.0584 1.0584 0 0 0 1.0583 1.0589h2.1916l-7.1525 9.5839-7.152-9.5839h2.1952a1.0584 1.0584 0 0 0 1.0563-1.0589z" color="#000000" color-rendering="auto" dominant-baseline="auto" image-rendering="auto" solid-color="#000000" style="font-feature-settings:normal;font-variant-alternates:normal;font-variant-caps:normal;font-variant-ligatures:normal;font-variant-numeric:normal;font-variant-position:normal;isolation:auto;mix-blend-mode:normal;paint-order:markers fill stroke;shape-padding:0;text-decoration-color:#000000;text-decoration-line:none;text-decoration-style:solid;text-indent:0;text-orientation:mixed;text-transform:none;white-space:normal"/><path d="m-459.47-1302.8c-6.8411 0-12.987 3.9533-16.013 10.037-0.45064-0.05-0.89964-0.114-1.3534-0.1173a1.0584 1.0584 0 0 0-8e-3 0c-7.1846 1e-4 -13.031 5.8466-13.031 13.031a1.0584 1.0584 0 0 0 2e-3 0.08c0.27723 3.6561 1.163 5.9405 3.0391 7.1407 1.8761 1.2002 4.266 1.203 7.4042 1.203h39.408c3.0727 0.3615 5.6492 0.1423 7.5608-1.2247 1.9225-1.3749 2.885-3.8115 2.9569-7.1758a1.0584 1.0584 0 0 0 0-0.023c-1.3e-4 -7.1846-5.8466-13.031-13.031-13.031a1.0584 1.0584 0 0 0-0.01 0c-0.31483 0-0.62783 0.042-0.94154 0.068-3.0342-6.0556-9.1622-9.9786-15.98-9.988a1.0584 1.0584 0 0 0-2e-3 0zm-2e-3 2.1172h0.00253c6.2573 0.01 11.921 3.6868 14.473 9.4004a1.0584 1.0584 0 0 0 1.1074 0.617c0.44854-0.061 0.90056-0.093 1.3534-0.098h2e-3c6.0385 0 10.91 4.8723 10.912 10.91-0.0674 2.9883-0.82298 4.5884-2.0702 5.4803-1.2503 0.8941-3.2815 1.1808-6.133 0.8398a1.0584 1.0584 0 0 0-0.12507-0.01h-39.48c-3.1031 0-5.1402-0.1526-6.2637-0.8713-1.1165-0.7143-1.7994-2.1166-2.0608-5.4705 0.019-6.0238 4.8803-10.88 10.908-10.881 0.57886 0 1.1556 0.054 1.7265 0.1504a1.0584 1.0584 0 0 0 1.1446-0.6155c2.5404-5.7456 8.2216-9.4491 14.504-9.4547zm-0.18913 2.1502a1.0584 1.0584 0 0 0-0.87902 0.4238l-9.2614 12.414a1.0584 1.0584 0 0 0 0.84958 1.6893h3.2458v7.4104a1.0584 1.0584 0 0 0 1.0589 1.0568h9.9178a1.0584 1.0584 0 0 0 1.0588-1.0568v-7.4104h3.2422a1.0584 1.0584 0 0 0 0.84957-1.6914l-9.264-12.412a1.0584 1.0584 0 0 0-0.81804-0.4238zm-0.0294 2.8283 7.1525 9.5839h-2.1916a1.0584 1.0584 0 0 0-1.0583 1.0588v7.4078h-7.8032v-7.4078a1.0584 1.0584 0 0 0-1.0563-1.0588h-2.1952z" color="#000000" color-rendering="auto" dominant-baseline="auto" image-rendering="auto" solid-color="#000000" style="font-feature-settings:normal;font-variant-alternates:normal;font-variant-caps:normal;font-variant-ligatures:normal;font-variant-numeric:normal;font-variant-position:normal;isolation:auto;mix-blend-mode:normal;paint-order:markers fill stroke;shape-padding:0;text-decoration-color:#000000;text-decoration-line:none;text-decoration-style:solid;text-indent:0;text-orientation:mixed;text-transform:none;white-space:normal"/><path d="m-555.07-1455.5c-0.58472 0.01-1.0517 0.4897-1.0428 1.0744v21.83h-3.3068c-0.58447 0-1.0583 0.4738-1.0583 1.0583v4.2349c1e-3 0.5836 0.47466 1.0562 1.0583 1.0562h3.3068v19.715c-3e-3 1.4147 2.1204 1.4147 2.1172 0v-19.715h3.0427c0.58387 3e-4 1.0576-0.4724 1.0588-1.0562v-4.2349c-6e-5 -0.5847-0.47417-1.0586-1.0588-1.0583h-3.0427v-21.83c9e-3 -0.5971-0.47729-1.0834-1.0744-1.0744zm11.939 0c-0.5839 0.01-1.0496 0.4905-1.0408 1.0744v30.629h-3.1424c-0.58467-2e-4 -1.0588 0.4737-1.0588 1.0583v4.2344c7.9e-4 0.5841 0.47477 1.057 1.0588 1.0568h3.1424v10.916c-0.0245 0.601 0.4558 1.1018 1.0573 1.1018s1.0824-0.5008 1.0578-1.1018v-10.916h3.2091c0.58388-1e-4 1.0574-0.4729 1.0583-1.0568v-4.2344c-5e-5 -0.5844-0.47385-1.0583-1.0583-1.0583h-3.2091v-30.629c9e-3 -0.5971-0.47729-1.0834-1.0744-1.0744zm11.941 0c-0.5847 0.01-1.0517 0.4897-1.0428 1.0744v18.656h-3.1073c-0.58488-2e-4 -1.0591 0.474-1.0588 1.0588v4.2323c5e-5 0.5847 0.47417 1.0586 1.0588 1.0584h3.1073v22.889c-3e-3 1.4144 2.1201 1.4144 2.1172 0v-22.889h3.2401c0.58468 2e-4 1.0588-0.4737 1.0588-1.0584v-4.2323c2.2e-4 -0.5848-0.47398-1.059-1.0588-1.0588h-3.2401v-18.656c9e-3 -0.5971-0.47729-1.0834-1.0744-1.0744zm11.941 0c-0.58471 0.01-1.0517 0.4897-1.0428 1.0744v7.7401h-3.0763c-0.58467 0-1.0586 0.4741-1.0583 1.0588v4.2323c-2.3e-4 0.5847 0.47365 1.0588 1.0583 1.0589h3.0763v33.805c-3e-3 1.4144 2.1201 1.4144 2.1172 0v-33.805h3.2737c0.58468-1e-4 1.0586-0.4742 1.0583-1.0589v-4.2323c2.2e-4 -0.5847-0.47366-1.0588-1.0583-1.0588h-3.2737v-7.7401c9e-3 -0.5971-0.47729-1.0834-1.0744-1.0744zm11.94 0c-0.58492 0.01-1.0522 0.4895-1.0434 1.0744v14.078h-3.4825c-0.58468 0-1.0586 0.4742-1.0583 1.0588v4.2323c6e-5 0.5845 0.47386 1.0583 1.0583 1.0584h3.4825v27.467c-3e-3 1.4144 2.1201 1.4144 2.1172 0v-27.467h2.8654c0.58448-1e-4 1.0583-0.4739 1.0583-1.0584v-4.2323c2.2e-4 -0.5846-0.47366-1.0588-1.0583-1.0588h-2.8654v-14.078c9e-3 -0.5969-0.47698-1.0831-1.0738-1.0744zm-15 10.932h6.3495v2.1156h-6.3495zm11.531 6.3381h6.3515v2.1151h-6.3515zm-23.506 4.5759h6.3516v2.1172h-6.3516zm-24.078 3.176h6.3495v2.1172h-6.3495zm12.105 8.799h6.3495v2.1172h-6.3495z" color="#000000" color-rendering="auto" dominant-baseline="auto" image-rendering="auto" solid-color="#000000" style="font-feature-settings:normal;font-variant-alternates:normal;font-variant-caps:normal;font-variant-ligatures:normal;font-variant-numeric:normal;font-variant-position:normal;isolation:auto;mix-blend-mode:normal;shape-padding:0;text-decoration-color:#000000;text-decoration-line:none;text-decoration-style:solid;text-indent:0;text-orientation:mixed;text-transform:none;white-space:normal"/><path d="m-459.48-1589.6c-6.8411 0-12.987 3.9533-16.013 10.037-0.45064-0.051-0.89964-0.114-1.3534-0.1173h-8e-3c-7.1846 2e-4 -13.031 5.8466-13.031 13.031 0 0.027 0 0.053 3e-3 0.08 0.27723 3.656 1.163 5.9404 3.0391 7.1406 1.8761 1.2002 4.266 1.203 7.4042 1.203h39.408c3.0727 0.3616 5.6492 0.1424 7.5608-1.2247 1.9225-1.3748 2.885-3.8114 2.9569-7.1758 8e-5 -0.01 8e-5 -0.015 0-0.023-1.3e-4 -7.1846-5.8466-13.031-13.031-13.031-3e-3 -1e-4 -7e-3 -1e-4 -0.0101 0-0.31483 0-0.62783 0.042-0.94155 0.068-3.0342-6.0556-9.1622-9.9787-15.98-9.9881h-3e-3zm-3e-3 2.1172h3e-3c6.2573 0.01 11.921 3.6869 14.473 9.4004 0.19153 0.4285 0.64233 0.6796 1.1074 0.617 0.44855-0.061 0.90056-0.093 1.3534-0.098h3e-3c6.0385 0 10.91 4.8723 10.912 10.91-0.0674 2.9883-0.82299 4.5884-2.0702 5.4803-1.2503 0.8941-3.2815 1.1807-6.133 0.8397-0.0415-0.01-0.0833-0.01-0.12507-0.01h-39.48c-3.1031 0-5.1402-0.1525-6.2637-0.8712-1.1165-0.7143-1.7994-2.1167-2.0608-5.4705 0.019-6.0238 4.8803-10.88 10.908-10.881 0.57885 0.01 1.1556 0.054 1.7265 0.1504 0.47741 0.081 0.94877-0.1727 1.1446-0.6155 2.5404-5.7455 8.2216-9.449 14.504-9.4547z" color="#000000" color-rendering="auto" dominant-baseline="auto" image-rendering="auto" solid-color="#000000" style="font-feature-settings:normal;font-variant-alternates:normal;font-variant-caps:normal;font-variant-ligatures:normal;font-variant-numeric:normal;font-variant-position:normal;isolation:auto;mix-blend-mode:normal;paint-order:markers fill stroke;shape-padding:0;text-decoration-color:#000000;text-decoration-line:none;text-decoration-style:solid;text-indent:0;text-orientation:mixed;text-transform:none;white-space:normal"/><path d="m-674.8-1604.2c-1.9677 0.01-3.9304 0.2074-5.8594 0.5957a1.0584 1.0584 0 0 0-0.84961 1.0605c0.0418 2.0966 0.19558 4.2816 0.33399 6.418-1.709 0.4877-3.3503 1.1651-4.9043 2.0274-1.4122-1.6082-2.8482-3.2616-4.3008-4.7735a1.0584 1.0584 0 0 0-1.3516-0.1465c-3.2758 2.1949-6.0944 5.0067-8.2969 8.2774a1.0584 1.0584 0 0 0 0.14453 1.3535c1.5128 1.4544 3.169 2.8923 4.7793 4.3066-0.86528 1.5546-1.5471 3.196-2.0371 4.9063-2.1386-0.1388-4.3256-0.2927-6.4238-0.334a1.0584 1.0584 0 0 0-1.0586 0.8535c-0.38205 1.93-0.57524 3.892-0.57813 5.8594a1.0584 1.0584 0 0 0 0 0.01c9e-3 1.9677 0.20939 3.9303 0.59766 5.8594a1.0584 1.0584 0 0 0 1.0586 0.8496c2.0966-0.042 4.2815-0.1956 6.418-0.334 0.48771 1.709 1.167 3.3502 2.0293 4.9043-1.6085 1.4124-3.2632 2.8478-4.7754 4.3008a1.0584 1.0584 0 0 0-0.14649 1.3515c2.1949 3.2758 5.0066 6.0944 8.2774 8.2969a1.0584 1.0584 0 0 0 1.3535-0.1445c1.4544-1.5128 2.8923-3.169 4.3066-4.7793 1.5551 0.8655 3.1972 1.547 4.9082 2.0371-0.13878 2.1386-0.29265 4.3255-0.33399 6.4238a1.0584 1.0584 0 0 0 0.85156 1.0586c1.93 0.382 3.8919 0.5752 5.8594 0.5781a1.0584 1.0584 0 0 0 8e-3 0c1.9677-0.01 3.9284-0.2094 5.8574-0.5976a1.0584 1.0584 0 0 0 0.84961-1.0586c-0.0418-2.0966-0.19558-4.2816-0.33398-6.418 1.7091-0.4877 3.3503-1.167 4.9043-2.0293 1.4125 1.6085 2.8479 3.2632 4.3008 4.7754a1.0584 1.0584 0 0 0 1.3535 0.1465c3.2758-2.1949 6.0924-5.0066 8.2949-8.2774a1.0584 1.0584 0 0 0-0.14452-1.3536c-1.5127-1.4544-3.1671-2.8924-4.7773-4.3067 0.86555-1.555 1.5471-3.1972 2.0371-4.9082 2.138 0.1388 4.3243 0.2946 6.4219 0.336a1.0584 1.0584 0 0 0 1.0586-0.8535c0.38205-1.93 0.57524-3.892 0.57812-5.8594a1.0584 1.0584 0 0 0 0-0.01c-9e-3 -1.9677-0.20743-3.9284-0.5957-5.8574a1.0584 1.0584 0 0 0-1.0586-0.8496c-2.0966 0.042-4.2834 0.1955-6.4199 0.3339-0.48769-1.709-1.1651-3.3503-2.0273-4.9043 1.6082-1.4121 3.2616-2.8481 4.7734-4.3007a1.0584 1.0584 0 0 0 0.14648-1.3535c-2.1949-3.2759-5.0066-6.0925-8.2773-8.295a1.0584 1.0584 0 0 0-1.3535 0.1446c-1.4544 1.5127-2.8924 3.1671-4.3066 4.7773-1.5545-0.8652-3.1959-1.5471-4.9062-2.0371 0.13874-2.138 0.29266-4.3243 0.33399-6.4219a1.0584 1.0584 0 0 0-0.85352-1.0586c-1.93-0.382-3.892-0.5752-5.8594-0.5781a1.0584 1.0584 0 0 0-6e-3 0zm2e-3 2.1152h8e-3c1.5243 0 3.0379 0.2017 4.541 0.4492-0.067 2.0135-0.18961 4.1-0.32226 6.1778a1.0584 1.0584 0 0 0 0.80468 1.0957c2.1002 0.5155 4.1054 1.3473 5.9531 2.4707a1.0584 1.0584 0 0 0 1.3457-0.2051c1.3751-1.5624 2.7622-3.1247 4.1387-4.5957 2.4778 1.7873 4.6402 3.9557 6.4219 6.4375-1.4703 1.3749-3.0309 2.7632-4.5918 4.1367a1.0584 1.0584 0 0 0-0.20511 1.3438c1.1197 1.8475 1.9503 3.8527 2.4629 5.9511a1.0584 1.0584 0 0 0 1.0938 0.8047c2.0766-0.1324 4.1642-0.2551 6.1777-0.3222 0.25324 1.5062 0.45776 3.0224 0.46485 4.5507-3e-3 1.525-0.20154 3.0393-0.44922 4.543-2.0135-0.067-4.1-0.1896-6.1777-0.3223a1.0584 1.0584 0 0 0-1.0957 0.8047c-0.51548 2.1002-1.3473 4.1054-2.4707 5.9532a1.0584 1.0584 0 0 0 0.20508 1.3437c1.5625 1.3751 3.1247 2.7642 4.5957 4.1406-1.7873 2.4778-3.9557 4.6403-6.4375 6.4219-1.375-1.4703-2.7632-3.0309-4.1367-4.5918a1.0584 1.0584 0 0 0-1.3438-0.2051c-1.8475 1.1197-3.8527 1.9484-5.9512 2.461a1.0584 1.0584 0 0 0-0.80469 1.0957c0.13244 2.0766 0.25515 4.1641 0.32227 6.1777-1.5043 0.2529-3.0185 0.4574-4.5449 0.4649-1.5269 0-3.0432-0.2013-4.5488-0.4493 0.0669-2.0134 0.1896-4.0999 0.32226-6.1777a1.0584 1.0584 0 0 0-0.80273-1.0957c-2.1002-0.5155-4.1073-1.3493-5.9551-2.4727a1.0584 1.0584 0 0 0-1.3438 0.2051c-1.3752 1.5626-2.7641 3.1266-4.1406 4.5977-2.4784-1.7878-4.64-3.9568-6.4219-6.4395 1.4702-1.3749 3.031-2.7613 4.5918-4.1347a1.0584 1.0584 0 0 0 0.20508-1.3438c-1.1197-1.8475-1.9483-3.8528-2.4609-5.9512a1.0584 1.0584 0 0 0-1.0957-0.8047c-2.0766 0.1325-4.1642 0.2532-6.1777 0.3204-0.2528-1.5037-0.45539-3.0173-0.46289-4.543-1e-5 0 1e-5 0 0 0 3e-3 -1.5243 0.19969-3.038 0.44727-4.541 2.0135 0.067 4.0999 0.1896 6.1777 0.3222a1.0584 1.0584 0 0 0 1.0957-0.8046c0.51548-2.1002 1.3493-4.1054 2.4727-5.9532a1.0584 1.0584 0 0 0-0.20508-1.3457c-1.5625-1.3751-3.1266-2.7622-4.5976-4.1386 1.7875-2.4782 3.9553-4.6421 6.4375-6.4239 1.3755 1.4708 2.7626 3.0322 4.1367 4.5938a1.0584 1.0584 0 0 0 1.3438 0.2051c1.8475-1.1197 3.8527-1.9483 5.9512-2.461a1.0584 1.0584 0 0 0 0.80468-1.0957c-0.13244-2.0766-0.25319-4.1641-0.32031-6.1777 1.5037-0.2528 3.0172-0.4574 4.543-0.4649zm2e-3 15.26c-7.1846 1e-4 -13.031 5.8466-13.031 13.031 1.4e-4 7.1847 5.8466 13.031 13.031 13.031 7.1846-2e-4 13.031-5.8466 13.031-13.031-1.5e-4 -7.1846-5.8466-13.031-13.031-13.031zm0 2.1152c6.0407 1e-4 10.916 4.8753 10.916 10.916-1.2e-4 6.0408-4.8753 10.914-10.916 10.914-6.0407-1e-4 -10.914-4.8733-10.914-10.914 1.2e-4 -6.0407 4.8733-10.916 10.914-10.916z" color="#000000" color-rendering="auto" dominant-baseline="auto" image-rendering="auto" solid-color="#000000" style="font-feature-settings:normal;font-variant-alternates:normal;font-variant-caps:normal;font-variant-ligatures:normal;font-variant-numeric:normal;font-variant-position:normal;isolation:auto;mix-blend-mode:normal;paint-order:markers fill stroke;shape-padding:0;text-decoration-color:#000000;text-decoration-line:none;text-decoration-style:solid;text-indent:0;text-orientation:mixed;text-transform:none;white-space:normal"/><path transform="scale(.26458)" d="m-1801.4-5500.8a4.0004 4.0004 0 0 0-3.9941 4.002v181.02a4.0004 4.0004 0 0 0 3.9941 4h128a4.0004 4.0004 0 0 0 4.002-4v-181.02a4.0004 4.0004 0 0 0-4.002-4.002zm4.002 8.002h120v173.02h-120zm47.863 3.0059a4.001 4.001 0 0 0 0 8.0019h24.277a4.001 4.001 0 0 0 0-8.0019zm-42.418 10.002a4.0702 4.0702 0 0 0-4.0742 4.0684v128.67a4.0702 4.0702 0 0 0 4.0742 4.0762h109.11a4.0702 4.0702 0 0 0 4.0684-4.0762v-128.67a4.0702 4.0702 0 0 0-4.0684-4.0684zm4.0683 8.1348h30.387l-30.387 17.543zm46.389 0h41.455l-87.844 50.721v-24.574a4.0021 4.0021 0 0 0 2.0293-0.5332zm54.59 1.6582v24.516a4.0004 4.0004 0 0 0-1.9746 0.5645l-99.004 57.156v-24.52a4.0004 4.0004 0 0 0 2.0293-0.5918zm0 33.174v24.523a4.0004 4.0004 0 0 0-1.9746 0.5567l-99.004 57.164v-24.578a4.002 4.002 0 0 0 2.0293-0.5332zm0 33.182v24.516a4.0004 4.0004 0 0 0-1.9746 0.5644l-47.541 27.445h-41.467zm0 33.174v19.352h-33.516zm-55.41 31.494a3.0779 3.0779 0 0 0-3.0781 3.0723v9.8457a3.0779 3.0779 0 0 0 3.0781 3.0801h9.8418a3.0779 3.0779 0 0 0 3.0762-3.0801v-9.8457a3.0779 3.0779 0 0 0-3.0762-3.0723zm3.0723 6.1504h3.6914v3.6895h-3.6914z" color="#000000" color-rendering="auto" dominant-baseline="auto" image-rendering="auto" solid-color="#000000" style="font-feature-settings:normal;font-variant-alternates:normal;font-variant-caps:normal;font-variant-ligatures:normal;font-variant-numeric:normal;font-variant-position:normal;isolation:auto;mix-blend-mode:normal;shape-padding:0;text-decoration-color:#000000;text-decoration-line:none;text-decoration-style:solid;text-indent:0;text-orientation:mixed;text-transform:none;white-space:normal"/><path d="m-746.5-1604.2c-16.781 0-30.406 13.627-30.406 30.408 2e-5 16.781 13.625 30.406 30.406 30.406 16.781 0 30.408-13.626 30.408-30.406-2e-5 -16.781-13.628-30.408-30.408-30.408zm0 2.1172c15.637 0 28.291 12.654 28.291 28.291-2e-5 15.637-12.654 28.289-28.291 28.289-15.637-1e-4 -28.289-12.652-28.289-28.289 3e-5 -15.637 12.652-28.291 28.289-28.291zm16.914 10.289a1.0584 1.0584 0 0 0-0.72864 0.3204l-8.4667 8.4667a1.0586 1.0586 0 1 0 1.4981 1.496l8.4646-8.4667a1.0584 1.0584 0 0 0-0.7674-1.8164zm-11.031 0.4259a1.0584 1.0584 0 0 0-0.72867 0.3203l-3.3786 3.3807a1.0584 1.0584 0 1 0 1.496 1.496l3.3791-3.3786a1.0584 1.0584 0 0 0-0.7679-1.8184zm-5.8828 8.0506c-5.248 0-9.5235 4.2776-9.5235 9.5255 0 5.248 4.2755 9.5255 9.5235 9.5255 5.248 0 9.5255-4.2775 9.5255-9.5255 0-5.2479-4.2776-9.5255-9.5255-9.5255zm0 2.1172c4.104 0 7.4104 3.3043 7.4104 7.4083 0 4.1041-3.3064 7.4084-7.4104 7.4084-4.1041 0-7.4084-3.3043-7.4083-7.4084 0-4.104 3.3043-7.4083 7.4083-7.4083zm-8.4863 14.807a1.0584 1.0584 0 0 0-0.72867 0.3204l-8.4667 8.4646a1.0593 1.0593 0 1 0 1.4981 1.4981l8.4667-8.4666a1.0584 1.0584 0 0 0-0.76946-1.8165zm5.9453 4.6602a1.0584 1.0584 0 0 0-0.72863 0.3183l-3.3786 3.3807a1.0584 1.0584 0 1 0 1.496 1.4961l3.3786-3.3786a1.0584 1.0584 0 0 0-0.76743-1.8165z" color="#000000" color-rendering="auto" dominant-baseline="auto" image-rendering="auto" solid-color="#000000" style="font-feature-settings:normal;font-variant-alternates:normal;font-variant-caps:normal;font-variant-ligatures:normal;font-variant-numeric:normal;font-variant-position:normal;isolation:auto;mix-blend-mode:normal;paint-order:markers fill stroke;shape-padding:0;text-decoration-color:#000000;text-decoration-line:none;text-decoration-style:solid;text-indent:0;text-orientation:mixed;text-transform:none;white-space:normal"/><path d="m-838.34-1373.5a1.0584 1.0584 0 0 0 0.37993 1.4553l6.1281 3.5381a1.0584 1.0584 0 0 0 1.3502-0.2489c2.1006-2.5815 4.9597-4.4357 8.1727-5.3039 7.3846-1.9671 15.01 1.6285 18.312 8.4232l-5.3082 3.0651a1.0584 1.0584 0 0 0 0.10982 1.888l14.228 6.1173a1.0584 1.0584 0 0 0 1.4702-0.8472l1.8139-15.38a1.0584 1.0584 0 0 0-1.58-1.0407l-2.8354 1.6376c-5.3711-10.351-17.209-15.718-28.576-12.685a1.0584 1.0584 0 0 0-2e-3 0c-2.4188 0.6523-4.7266 1.6656-6.8446 3.0036-2.6246 1.658-4.9159 3.7891-6.7599 6.2865a1.0584 1.0584 0 0 0-0.0589 0.09zm-4.4578 11.1a1.0584 1.0584 0 0 0-0.11183 0.3617l-1.814 15.38a1.0584 1.0584 0 0 0 1.581 1.039l2.8344-1.6359c5.3712 10.351 17.21 15.716 28.577 12.683a1.0584 1.0584 0 0 0 2e-3 0c5.4541-1.4709 10.249-4.7457 13.604-9.2901a1.0584 1.0584 0 0 0-0.32114-1.5454l-6.1281-3.538a1.0584 1.0584 0 0 0-1.3502 0.2488c-2.0995 2.5801-4.9575 4.4353-8.1683 5.3042h-2e-3c-8e-4 2e-4 -1e-3 0-2e-3 0-7.3842 1.9664-15.009-1.6306-18.311-8.4249l5.3082-3.0652a1.0584 1.0584 0 0 0-0.10981-1.8879l-14.228-6.1173a1.0584 1.0584 0 0 0-1.3595 0.4871zm7.0211-10.829c1.5468-1.8789 3.325-3.5553 5.3869-4.8578 1.9387-1.2247 4.0508-2.1525 6.2649-2.7496 10.763-2.8705 22.013 2.4113 26.681 12.526a1.0584 1.0584 0 0 0 1.4907 0.4727l1.9217-1.1097-1.4015 11.877-10.987-4.724 4.36-2.5165a1.0584 1.0584 0 0 0 0.4487-1.3241c-3.4586-8.3098-12.55-12.788-21.247-10.469a1.0584 1.0584 0 0 0-2e-3 0c-3.3358 0.9014-6.2552 2.8342-8.5653 5.3862zm-5.1962 12.848 10.987 4.724-4.36 2.5166a1.0584 1.0584 0 0 0-0.44773 1.3224c3.4586 8.3098 12.549 12.79 21.246 10.471a1.0584 1.0584 0 0 0 4e-3 0c3.336-0.9015 6.2552-2.8341 8.5653-5.3863l4.3606 2.5176c-3.017 3.6652-7.0568 6.3589-11.659 7.6008h-2e-3c-10.763 2.8705-22.013-2.4114-26.681-12.526a1.0584 1.0584 0 0 0-1.4907-0.4727l-1.9207 1.108z" color="#000000" color-rendering="auto" dominant-baseline="auto" image-rendering="auto" solid-color="#000000" style="font-feature-settings:normal;font-variant-alternates:normal;font-variant-caps:normal;font-variant-ligatures:normal;font-variant-numeric:normal;font-variant-position:normal;isolation:auto;mix-blend-mode:normal;shape-padding:0;text-decoration-color:#000000;text-decoration-line:none;text-decoration-style:solid;text-indent:0;text-orientation:mixed;text-transform:none;white-space:normal"/><path d="m-889.64-1383.7c-4.0522 0.094-8.138 1.1779-11.893 3.3457-11.949 6.8988-16.051 22.209-9.1524 34.158 6.8989 11.949 22.209 16.051 34.158 9.1523a1.0584 1.0584 0 0 0 2e-3 0c4.8259-2.7983 8.5778-7.1306 10.658-12.307a1.0584 1.0584 0 0 0-0.70703-1.418l-6.8418-1.832a1.0584 1.0584 0 0 0-1.2344 0.5781c-1.3696 2.9643-3.6189 5.4335-6.4434 7.0723-7.6034 4.3882-17.294 1.7904-21.684-5.8125-4.39-7.6038-1.7932-17.296 5.8105-21.686 5.3052-3.063 11.553-2.5716 16.381 0.4942l-4.0703 2.3515a1.0584 1.0584 0 0 0 0.11133 1.8887l14.229 6.1172a1.0584 1.0584 0 0 0 1.4688-0.8477l0.5918-5.0312 1.2227-10.35a1.0584 1.0584 0 0 0-1.5801-1.0411l-3.3672 1.9454c-4.8183-4.5085-11.181-6.9302-17.66-6.7793zm0.0605 2.1132c6.1818-0.1427 12.272 2.231 16.736 6.7012a1.0584 1.0584 0 0 0 1.2793 0.168l2.1797-1.2578-0.97265 8.2519-0.42774 3.6211-10.986-4.7226 3.8184-2.2051a1.0584 1.0584 0 0 0 0.12891-1.7442c-5.6174-4.4701-13.618-5.3067-20.201-1.5058-8.5944 4.962-11.548 15.982-6.5859 24.576s15.984 11.548 24.578 6.5859a1.0584 1.0584 0 0 0 2e-3 0c2.93-1.7 5.2159-4.2564 6.7891-7.2422l4.8691 1.3027c-1.9738 4.2445-5.1486 7.8258-9.2148 10.184-10.958 6.3257-24.937 2.5791-31.264-8.3789-6.3269-10.958-2.5816-24.941 8.377-31.268 3.4432-1.9879 7.1854-2.9787 10.895-3.0644z" color="#000000" color-rendering="auto" dominant-baseline="auto" image-rendering="auto" solid-color="#000000" style="font-feature-settings:normal;font-variant-alternates:normal;font-variant-caps:normal;font-variant-ligatures:normal;font-variant-numeric:normal;font-variant-position:normal;isolation:auto;mix-blend-mode:normal;paint-order:markers fill stroke;shape-padding:0;text-decoration-color:#000000;text-decoration-line:none;text-decoration-style:solid;text-indent:0;text-orientation:mixed;text-transform:none;white-space:normal"/><path d="m-593.3-1314.8c9.924 0 17.992 8.0682 17.992 17.992s-8.0682 17.99-17.992 17.99a1.0584 1.0584 0 0 1-3e-3 0c-2.2922 0-4.5402-0.5087-6.6621-1.3633l-20.645 20.643a1.0584 1.0584 0 0 1-1.4961 0l-8.4668-8.4668a1.0584 1.0584 0 0 1 0-1.4961l20.648-20.648c-0.85503-2.1197-1.3602-4.3658-1.3672-6.6562 0-9.9238 8.0665-17.992 17.99-17.992zm0 2.1172c-8.7792 3e-4 -15.874 7.0941-15.875 15.873 7e-3 2.2473 0.49268 4.4674 1.4219 6.5136a1.0584 1.0584 0 0 1-0.2168 1.1856l-20.357 20.357 6.9707 6.9707 20.352-20.354a1.0584 1.0584 0 0 1 1.1855-0.2148c2.0483 0.9288 4.2705 1.4127 6.5196 1.4179 8.7801 1e-4 15.875-7.0949 15.875-15.875 0-8.78-7.0949-15.875-15.875-15.875zm0 2.8418c7.1851-1e-4 13.033 5.8482 13.033 13.033-1.6e-4 7.1849-5.8484 13.031-13.033 13.031-7.1846-1e-4 -13.031-5.8466-13.031-13.031-1.6e-4 -7.1848 5.8464-13.033 13.031-13.033zm0 2.1172c-6.0409 1e-4 -10.916 4.8751-10.916 10.916 1.3e-4 6.0408 4.8753 10.914 10.916 10.914 6.0409 2e-4 10.916-4.8731 10.916-10.914 1.3e-4 -6.0411-4.8749-10.916-10.916-10.916z" color="#000000" color-rendering="auto" dominant-baseline="auto" image-rendering="auto" solid-color="#000000" style="font-feature-settings:normal;font-variant-alternates:normal;font-variant-caps:normal;font-variant-ligatures:normal;font-variant-numeric:normal;font-variant-position:normal;isolation:auto;mix-blend-mode:normal;paint-order:markers fill stroke;shape-padding:0;text-decoration-color:#000000;text-decoration-line:none;text-decoration-style:solid;text-indent:0;text-orientation:mixed;text-transform:none;white-space:normal"/><path d="m-818.21-1604.2c-16.781 1e-4 -30.406 13.625-30.406 30.406 1.4e-4 16.781 13.625 30.408 30.406 30.408 16.781-2e-4 30.408-13.627 30.408-30.408-1.4e-4 -16.781-13.627-30.406-30.408-30.406zm0 2.1151c15.637 4e-4 28.291 12.654 28.291 28.291-1.3e-4 15.637-12.654 28.29-28.291 28.291-15.637-2e-4 -28.291-12.654-28.291-28.291 1.3e-4 -15.637 12.654-28.291 28.291-28.291zm0 3.2851c-13.798 0-25.006 11.208-25.006 25.006 6e-5 13.798 11.208 25.006 25.006 25.006 13.798-3e-4 25.006-11.208 25.006-25.006-5e-5 -13.798-11.208-25.006-25.006-25.006zm0 2.1171c12.654 4e-4 22.888 10.235 22.889 22.889-3e-5 12.654-10.235 22.89-22.889 22.891-12.654-1e-4 -22.889-10.236-22.889-22.891 3e-5 -12.654 10.235-22.889 22.889-22.889zm-4.9434 9.8578a1.0584 1.0584 0 0 0-1.0743 1.0584v23.947a1.0584 1.0584 0 0 0 1.6702 0.863l16.933-11.972a1.0584 1.0584 0 0 0 0-1.7285l-16.933-11.974a1.0584 1.0584 0 0 0-0.59584-0.1933zm1.0428 3.1032 14.041 9.9281-14.041 9.9275z" color="#000000" color-rendering="auto" dominant-baseline="auto" image-rendering="auto" solid-color="#000000" style="font-feature-settings:normal;font-variant-alternates:normal;font-variant-caps:normal;font-variant-ligatures:normal;font-variant-numeric:normal;font-variant-position:normal;isolation:auto;mix-blend-mode:normal;paint-order:markers fill stroke;shape-padding:0;text-decoration-color:#000000;text-decoration-line:none;text-decoration-style:solid;text-indent:0;text-orientation:mixed;text-transform:none;white-space:normal"/><path d="m-593.3-1243.1c-9.9238 0-17.99 8.0684-17.99 17.992 7e-3 2.2904 0.51234 4.5368 1.3674 6.6565l-20.648 20.648a1.0584 1.0584 0 0 0 0 1.4961l8.4667 8.4672a1.0584 1.0584 0 0 0 1.496 0l20.645-20.643c2.1218 0.8545 4.3699 1.3582 6.6621 1.3632a1.0584 1.0584 0 0 0 2e-3 0c9.924 0 17.992-8.0661 17.992-17.99s-8.0682-17.992-17.992-17.992zm5.3e-4 2.1171c8.78 0 15.875 7.095 15.875 15.875 0 8.7801-7.095 15.875-15.875 15.875-2.249-0.01-4.4718-0.4891-6.52-1.4179a1.0584 1.0584 0 0 0-1.1855 0.2144l-20.351 20.354-6.9706-6.9706 20.357-20.358a1.0584 1.0584 0 0 0 0.21704-1.1854c-0.9292-2.0462-1.4146-4.2665-1.4216-6.5138 1e-3 -8.779 7.0958-15.873 15.875-15.873zm0 2.8417c-7.1849 2e-4 -13.031 5.8485-13.031 13.033 1.6e-4 7.1847 5.8466 13.031 13.031 13.031 7.1848 2e-4 13.033-5.8464 13.033-13.031 1.6e-4 -7.185-5.8477-13.033-13.033-13.033zm0 2.1172c6.0411-1e-4 10.916 4.875 10.916 10.916-1.1e-4 6.041-4.8747 10.914-10.916 10.914-6.0407-1e-4 -10.916-4.8733-10.916-10.914-1.3e-4 -6.0409 4.8752-10.916 10.916-10.916zm-8.5618 7.8342a1.0584 1.0584 0 0 0-1.0583 1.0583v4.2323a1.0584 1.0584 0 0 0 1.0583 1.0588h16.934a1.0584 1.0584 0 0 0 1.0583-1.0588v-4.2323a1.0584 1.0584 0 0 0-1.0583-1.0583zm1.0589 2.1171h14.816v2.1152h-14.816z" color="#000000" color-rendering="auto" dominant-baseline="auto" image-rendering="auto" solid-color="#000000" style="font-feature-settings:normal;font-variant-alternates:normal;font-variant-caps:normal;font-variant-ligatures:normal;font-variant-numeric:normal;font-variant-position:normal;isolation:auto;mix-blend-mode:normal;paint-order:markers fill stroke;shape-padding:0;text-decoration-color:#000000;text-decoration-line:none;text-decoration-style:solid;text-indent:0;text-orientation:mixed;text-transform:none;white-space:normal"/><path d="m-531.44-1246.6a1.0584 1.0584 0 0 0-0.91984 0.6305l-7.2502 16.442-17.865-1.9415a1.0584 1.0584 0 0 0-0.96893 1.6759l10.615 14.5-10.615 14.5a1.0584 1.0584 0 0 0 0.96893 1.6779l17.865-1.9436 7.2502 16.444a1.0584 1.0584 0 0 0 1.9353 0l7.2502-16.444 17.865 1.9436a1.0584 1.0584 0 0 0 0.96894-1.6779l-10.615-14.5 10.615-14.5a1.0584 1.0584 0 0 0-0.96894-1.6759l-17.865 1.9415-7.2502-16.442a1.0584 1.0584 0 0 0-1.0154-0.6305zm0.0486 3.6794 6.5939 14.955a1.0584 1.0584 0 0 0 1.0821 0.6268l16.248-1.7674-9.6547 13.187a1.0584 1.0584 0 0 0 0 1.25l9.6562 13.189-16.25-1.7673a1.0584 1.0584 0 0 0-1.0821 0.6247l-6.5939 14.957-6.5955-14.957a1.0584 1.0584 0 0 0-1.0821-0.6247l-16.25 1.7673 9.6563-13.189a1.0584 1.0584 0 0 0 0-1.25l-9.6542-13.187 16.248 1.7674a1.0584 1.0584 0 0 0 1.0821-0.6268zm-0.0475 8.4543a1.0584 1.0584 0 0 0-0.92191 0.6309l-4.2152 9.5622-10.391-1.1307a1.0584 1.0584 0 0 0-0.96842 1.6775l6.1738 8.432-6.1738 8.4336a1.0584 1.0584 0 0 0 0.96842 1.6774l10.391-1.1307 4.2152 9.5623a1.0584 1.0584 0 0 0 1.9374 0l4.2168-9.5623 10.389 1.1307a1.0584 1.0584 0 0 0 0.96894-1.6774l-6.1738-8.4336 6.1738-8.432a1.0584 1.0584 0 0 0-0.96894-1.6775l-10.389 1.1307-4.2168-9.5622a1.0584 1.0584 0 0 0-1.0154-0.6309zm0.0465 3.6814 3.5605 8.0744a1.0584 1.0584 0 0 0 1.0842 0.6248l8.7752-0.955-5.2147 7.121a1.0584 1.0584 0 0 0 0 1.2501l5.2131 7.121-8.7736-0.9529a1.0584 1.0584 0 0 0-1.0842 0.6248l-3.5605 8.0744-3.5605-8.0744a1.0584 1.0584 0 0 0-1.0821-0.6248l-8.7731 0.9529 5.2126-7.121a1.0584 1.0584 0 0 0 0-1.2501l-5.2126-7.121 8.7731 0.955a1.0584 1.0584 0 0 0 1.0821-0.6248z" color="#000000" color-rendering="auto" dominant-baseline="auto" image-rendering="auto" solid-color="#000000" style="font-feature-settings:normal;font-variant-alternates:normal;font-variant-caps:normal;font-variant-ligatures:normal;font-variant-numeric:normal;font-variant-position:normal;isolation:auto;mix-blend-mode:normal;paint-order:markers fill stroke;shape-padding:0;text-decoration-color:#000000;text-decoration-line:none;text-decoration-style:solid;text-indent:0;text-orientation:mixed;text-transform:none;white-space:normal"/><path d="m-486.78-1199.6a1.0584 1.0584 0 0 0 1.0074 0.483l17.864-1.9419 7.2501 16.441a1.0584 1.0584 0 0 0 1.9376 1e-4l7.2478-16.442 17.865 1.943a1.0584 1.0584 0 0 0 0.96823-1.6778l-10.614-14.498 10.615-14.5a1.0584 1.0584 0 0 0-0.96868-1.6778l-17.865 1.9426-7.2498-16.443a1.0584 1.0584 0 0 0-1.9361 1e-3l-7.251 16.442-17.862-1.9425a1.0584 1.0584 0 0 0-0.9697 1.6763l10.614 14.501-10.614 14.5a1.0584 1.0584 0 0 0-0.0387 1.1949zm3.1652-1.8816 9.6548-13.188a1.0584 1.0584 0 0 0-1e-3 -1.2513l-9.6546-13.188 16.248 1.7671a1.0584 1.0584 0 0 0 1.0826-0.625l6.5942-14.957 6.5946 14.957a1.0584 1.0584 0 0 0 1.0832 0.6265l16.248-1.7675-9.6546 13.188a1.0584 1.0584 0 0 0-1e-5 1.2495l9.6556 13.189-16.25-1.7679a1.0584 1.0584 0 0 0-1.0826 0.625l-6.5934 14.954-6.5935-14.955a1.0584 1.0584 0 0 0-1.0821-0.6247zm7.3442-4.1859a1.0584 1.0584 0 0 0 1.0069 0.4831l10.389-1.1313 4.2161 9.5639a1.0584 1.0584 0 0 0 1.9372 5e-4l4.215-9.5624 10.391 1.1299a1.0584 1.0584 0 0 0 0.96868-1.6781l-6.1745-8.4333 6.1737-8.4312a1.0584 1.0584 0 0 0-0.96868-1.6778l-10.39 1.1292-4.215-9.562a1.0584 1.0584 0 0 0-1.9376-1e-4l-4.2168 9.5634-10.389-1.1309a1.0584 1.0584 0 0 0-0.96824 1.6778l6.1734 8.4314-6.1732 8.4332a1.0584 1.0584 0 0 0-0.0383 1.1947zm4.043-3.0814 4.3341-5.9208a1.0584 1.0584 0 0 0-8e-4 -1.2508l-0.85596-1.1695 12.036-6.9482 0.58452 1.3256a1.0584 1.0584 0 0 0 1.0829 0.626l7.2969-0.7931zm2.8606 0.7937 20.872-12.051-2.9916 4.0872a1.0584 1.0584 0 0 0-2.7e-4 1.2491l1.402 1.9157-12.209 7.0486-0.95759-2.1723a1.0584 1.0584 0 0 0-1.0819-0.6243zm9.6758 8.1529-1.7434-3.955 4.6779-2.7002zm-13.418-23.241 8.7746 0.9559a1.0584 1.0584 0 0 0 6e-3 1e-3l-5.6796 3.2792zm9.8542 0.3362a1.0584 1.0584 0 0 0 3e-3 0l3.5604-8.0752 2.1176 4.8006zm9.7496 14.372 4.6785-2.7011 2.5523 3.4875z" color="#000000" color-rendering="auto" dominant-baseline="auto" image-rendering="auto" solid-color="#000000" style="font-feature-settings:normal;font-variant-alternates:normal;font-variant-caps:normal;font-variant-ligatures:normal;font-variant-numeric:normal;font-variant-position:normal;isolation:auto;mix-blend-mode:normal;paint-order:markers fill stroke;shape-padding:0;text-decoration-color:#000000;text-decoration-line:none;text-decoration-style:solid;text-indent:0;text-orientation:mixed;text-transform:none;white-space:normal"/><path d="m-586.08-1529.7a1.0584 1.0584 0 0 0-0.91797 0.5332l-20.588 36.102-9.9297-14.043a1.0584 1.0584 0 0 0-0.86328-0.4473h-10.889a1.0584 1.0584 0 0 0-0.86524 1.6699l21.787 30.799a1.0584 1.0584 0 0 0 1.7812-0.084s1.7997-3.1329 30.557-52.941a1.0584 1.0584 0 0 0-0.91601-1.5879zm0.61523 2.1172h6.709c-25.613 44.364-28.707 49.734-28.816 49.924l-19.65-27.779h8.2949l10.572 14.951a1.0584 1.0584 0 0 0 1.7852-0.086z" color="#000000" color-rendering="auto" dominant-baseline="auto" image-rendering="auto" solid-color="#000000" style="font-feature-settings:normal;font-variant-alternates:normal;font-variant-caps:normal;font-variant-ligatures:normal;font-variant-numeric:normal;font-variant-position:normal;isolation:auto;mix-blend-mode:normal;shape-padding:0;text-decoration-color:#000000;text-decoration-line:none;text-decoration-style:solid;text-indent:0;text-orientation:mixed;text-transform:none;white-space:normal"/><path d="m-746.5-1532.5c-9.6018 0-17.408 7.8054-17.408 17.407-1.3e-4 -0.059 0 0.7813-3e-3 1.7085 0 0.5759 0 1.1113-3e-3 1.6758h-2.1725c-0.56411 8e-4 -1.021 0.4581-1.0222 1.0222v37.97c-2.1e-4 0.5652 0.45707 1.0239 1.0222 1.0248h39.167c0.56568-1e-4 1.0239-0.4591 1.0237-1.0248v-37.97c0-0.5647-0.459-1.0221-1.0237-1.0222h-2.1704c-3e-3 -0.9341-5e-3 -3.4041-5e-3 -3.3812v-0.01c0-9.6016-7.8051-17.407-17.407-17.407zm0 2.048c8.2552 2e-4 14.951 6.4878 15.323 14.65v4.0969h-2.7507v-4.0969c-0.37126-6.6209-5.8603-11.899-12.572-11.9-6.9518-2e-4 -12.61 5.6573-12.61 12.609v0.01c-2.6e-4 -0.066 0 0.7845-3e-3 1.7095 0 0.5741 0 1.1086-3e-3 1.6722h-2.7513c0-0.5638 0-1.0978 3e-3 -1.6727 0-0.9272 3e-3 -1.6128 3e-3 -1.7162 0-8.4939 6.8656-15.357 15.36-15.357zm0 4.7986c5.8448 2e-4 10.561 4.7164 10.561 10.561-3e-5 0.1252 5e-3 2.4864 7e-3 3.3868h-21.133c0-0.5633 0-1.0972 3e-3 -1.6707 0-0.9228 3e-3 -1.5913 3e-3 -1.7161-1.3e-4 -5.845 4.7166-10.561 10.562-10.561zm-18.56 15.994h2.1456c8e-3 5e-4 0.0167 8e-4 0.0249 0h4.7987c7e-3 -2e-4 0.0138-5e-4 0.0206 0h30.127v35.922h-37.117zm16.519 0.971-11.389 6.5753c-1.1851 0.6824-0.15931 2.4597 1.0242 1.7746l14.461-8.3499zm15.017 0c-0.19571-0.01-0.38928 0.043-0.55758 0.1437l-25.849 14.925c-1.2391 0.6671-0.17235 2.5131 1.0242 1.7725l25.85-14.923c0.90736-0.506 0.57128-1.8859-0.46715-1.9182zm0 8.4925c-0.19593-0.01-0.38952 0.045-0.55758 0.1457l-25.849 14.923c-1.1856 0.6822-0.15944 2.4602 1.0242 1.7745l25.85-14.925c0.90736-0.5061 0.57128-1.8854-0.46715-1.9177zm0 8.4941c-0.19571-0.01-0.38931 0.043-0.55758 0.1436l-25.849 14.925c-1.2391 0.6672-0.17235 2.5132 1.0242 1.7725l25.85-14.923c0.90736-0.5061 0.57128-1.8859-0.46715-1.9182zm0 8.4925c-0.19593-0.01-0.38952 0.044-0.55758 0.1452l-12.671 7.3148h4.0959l9.5994-5.5423c0.90736-0.5061 0.57128-1.8854-0.46715-1.9177z" color="#000000" color-rendering="auto" dominant-baseline="auto" image-rendering="auto" solid-color="#000000" style="font-feature-settings:normal;font-variant-alternates:normal;font-variant-caps:normal;font-variant-ligatures:normal;font-variant-numeric:normal;font-variant-position:normal;isolation:auto;mix-blend-mode:normal;paint-order:markers fill stroke;shape-padding:0;text-decoration-color:#000000;text-decoration-line:none;text-decoration-style:solid;text-indent:0;text-orientation:mixed;text-transform:none;white-space:normal"/><path d="m-818.17-1532.8a1.0584 1.0584 0 0 0-0.88263 0.4258l-9.3441 12.568-15.557 1.8086a1.0584 1.0584 0 0 0-0.84958 1.4708l6.211 14.377-6.211 14.377a1.0584 1.0584 0 0 0 0.84958 1.4707l15.557 1.8086 9.3441 12.568a1.0584 1.0584 0 0 0 1.6991 0l9.3436-12.568 15.557-1.8086a1.0584 1.0584 0 0 0 0.84955-1.4707l-6.211-14.377 6.211-14.377a1.0584 1.0584 0 0 0-0.84955-1.4708l-15.557-1.8086-9.3436-12.568a1.0584 1.0584 0 0 0-0.81647-0.4258zm-0.0331 2.8319 8.7674 11.791a1.0584 1.0584 0 0 0 0.72864 0.4201l14.596 1.6992-5.8281 13.489a1.0584 1.0584 0 0 0 0 0.8397l5.8281 13.488-14.596 1.6991a1.0584 1.0584 0 0 0-0.72864 0.418l-8.7674 11.793-8.7679-11.793a1.0584 1.0584 0 0 0-0.72658-0.418l-14.598-1.6991 5.8281-13.488a1.0584 1.0584 0 0 0 0-0.8397l-5.8281-13.489 14.598-1.6992a1.0584 1.0584 0 0 0 0.72658-0.4201zm0.0331 10.559a1.0584 1.0584 0 0 0-0.88263 0.4273l-4.9925 6.7133-8.3106 0.9663a1.0584 1.0584 0 0 0-0.84958 1.4708l3.3187 7.6817-3.3187 7.6817a1.0584 1.0584 0 0 0 0.84958 1.4707l8.3106 0.9668 4.9925 6.7128a1.0584 1.0584 0 0 0 1.6991 0l4.992-6.7128 8.3106-0.9668a1.0584 1.0584 0 0 0 0.84955-1.4707l-3.3181-7.6817 3.3181-7.6817a1.0584 1.0584 0 0 0-0.84955-1.4708l-8.3106-0.9663-4.992-6.7133a1.0584 1.0584 0 0 0-0.81647-0.4273zm-0.0331 2.8318 4.4158 5.9392a1.0584 1.0584 0 0 0 0.72654 0.4201l7.3515 0.8553-2.9352 6.7934a1.0584 1.0584 0 0 0 0 0.8397l2.9352 6.7929-7.3515 0.8557a1.0584 1.0584 0 0 0-0.72654 0.4196l-4.4158 5.9397-4.4163-5.9397a1.0584 1.0584 0 0 0-0.72658-0.4196l-7.3515-0.8557 2.9357-6.7929a1.0584 1.0584 0 0 0 0-0.8397l-2.9357-6.7934 7.3515-0.8553a1.0584 1.0584 0 0 0 0.72658-0.4201z" color="#000000" color-rendering="auto" dominant-baseline="auto" image-rendering="auto" solid-color="#000000" style="font-feature-settings:normal;font-variant-alternates:normal;font-variant-caps:normal;font-variant-ligatures:normal;font-variant-numeric:normal;font-variant-position:normal;isolation:auto;mix-blend-mode:normal;paint-order:markers fill stroke;shape-padding:0;text-decoration-color:#000000;text-decoration-line:none;text-decoration-style:solid;text-indent:0;text-orientation:mixed;text-transform:none;white-space:normal"/><path d="m-889.87-1532.8a1.0584 1.0584 0 0 0-0.88262 0.4258l-9.3441 12.568-15.557 1.8086a1.0584 1.0584 0 0 0-0.84958 1.4708l6.211 14.377-6.211 14.377a1.0584 1.0584 0 0 0 0.84958 1.4707l15.557 1.8086 9.3441 12.568a1.0584 1.0584 0 0 0 1.6991 0l9.3436-12.568 15.557-1.8086a1.0584 1.0584 0 0 0 0.84955-1.4707l-6.211-14.377 6.211-14.377a1.0584 1.0584 0 0 0-0.84955-1.4708l-15.557-1.8086-9.3436-12.568a1.0584 1.0584 0 0 0-0.81648-0.4258zm-0.0331 2.8319 8.7674 11.791a1.0584 1.0584 0 0 0 0.72863 0.4201l14.596 1.6992-5.8281 13.489a1.0584 1.0584 0 0 0 0 0.8397l5.8281 13.488-14.596 1.6991a1.0584 1.0584 0 0 0-0.72863 0.418l-8.7674 11.793-8.768-11.793a1.0584 1.0584 0 0 0-0.72657-0.418l-14.598-1.6991 5.8281-13.488a1.0584 1.0584 0 0 0 0-0.8397l-5.8281-13.489 14.598-1.6992a1.0584 1.0584 0 0 0 0.72657-0.4201zm0.0331 10.559a1.0584 1.0584 0 0 0-0.88262 0.4273l-4.9925 6.7133-8.3106 0.9663a1.0584 1.0584 0 0 0-0.84957 1.4708l3.3187 7.6817-3.3187 7.6817a1.0584 1.0584 0 0 0 0.84957 1.4707l8.3106 0.9668 4.9925 6.7128a1.0584 1.0584 0 0 0 1.6991 0l4.992-6.7128 8.3106-0.9668a1.0584 1.0584 0 0 0 0.84955-1.4707l-3.3181-7.6817 3.3181-7.6817a1.0584 1.0584 0 0 0-0.84955-1.4708l-8.3106-0.9663-4.992-6.7133a1.0584 1.0584 0 0 0-0.81648-0.4273zm-0.0331 2.8318 0.54933 0.7385-1.925 1.1115zm1.8211 2.449 2.5947 3.4902a1.0584 1.0584 0 0 0 0.72655 0.4201l0.72969 0.085-15.721 9.076 0.29041-0.6723a1.0584 1.0584 0 0 0 0-0.8398l-1.7255-3.993zm7.5742 4.4049 3.0985 0.3607-2.4086 5.5748-16.546 9.5534-6.0337-0.7022 1.2366-2.8619zm-19.601 0.095-1.9239 1.1105-0.36483-0.8444zm20.003 8.4522 2.1906 5.0694-2.667 1.54-4.1786 0.4863a1.0584 1.0584 0 0 0-0.72655 0.4196l-2.5079 3.3734-2.6701 1.5415-3.2949-4.4318zm-10.505 12.503h1.4159l-0.70797 0.9523z" color="#000000" color-rendering="auto" dominant-baseline="auto" image-rendering="auto" solid-color="#000000" style="font-feature-settings:normal;font-variant-alternates:normal;font-variant-caps:normal;font-variant-ligatures:normal;font-variant-numeric:normal;font-variant-position:normal;isolation:auto;mix-blend-mode:normal;shape-padding:0;text-decoration-color:#000000;text-decoration-line:none;text-decoration-style:solid;text-indent:0;text-orientation:mixed;text-transform:none;white-space:normal"/><path d="m-889.91-1604.2c-16.781 1e-4 -30.408 13.626-30.408 30.406 4e-5 16.781 13.627 30.408 30.408 30.408 16.781 0 30.406-13.627 30.406-30.408-4e-5 -16.781-13.626-30.406-30.406-30.406zm0 2.1172c15.637 0 28.289 12.652 28.289 28.289-4e-5 15.637-12.652 28.291-28.289 28.291-15.637 0-28.291-12.654-28.291-28.291 4e-5 -15.637 12.654-28.289 28.291-28.289zm0 3.283c-13.798 0-25.006 11.208-25.006 25.006 0 13.798 11.208 25.006 25.006 25.006 13.798 0 25.006-11.208 25.006-25.006 0-13.798-11.208-25.006-25.006-25.006zm0 2.1172c12.654 0 22.889 10.235 22.889 22.889 0 12.654-10.235 22.889-22.889 22.889-12.654 0-22.889-10.235-22.889-22.889 0-12.654 10.235-22.889 22.889-22.889zm-4.5062 14.347a1.0584 1.0584 0 0 0-0.73277 0.3101l-2.9936 2.9936a1.0584 1.0584 0 0 0 0 1.4965l3.7419 3.7419-3.7419 3.742a1.0584 1.0584 0 0 0 0 1.4965l2.9936 2.9931a1.0584 1.0584 0 0 0 1.4966 0l3.7419-3.7419 3.7419 3.7419a1.0584 1.0584 0 0 0 1.4966 0l2.9936-2.9931a1.0584 1.0584 0 0 0 0-1.4965l-3.7419-3.742 3.7419-3.7419a1.0584 1.0584 0 0 0 0-1.4965l-2.9936-2.9936a1.0584 1.0584 0 0 0-1.4966 0l-3.7419 3.7419-3.7419-3.7419a1.0584 1.0584 0 0 0-0.76378-0.3101zm0.0155 2.5549 3.7419 3.7419a1.0584 1.0584 0 0 0 1.4966 0l3.7419-3.7419 1.4971 1.4971-3.7419 3.7419a1.0584 1.0584 0 0 0 0 1.4965l3.7419 3.7419-1.4971 1.4965-3.7419-3.7418a1.0584 1.0584 0 0 0-1.4966 0l-3.7419 3.7418-1.4971-1.4965 3.7419-3.7419a1.0584 1.0584 0 0 0 0-1.4965l-3.7419-3.7419z" color="#000000" color-rendering="auto" dominant-baseline="auto" image-rendering="auto" solid-color="#000000" style="font-feature-settings:normal;font-variant-alternates:normal;font-variant-caps:normal;font-variant-ligatures:normal;font-variant-numeric:normal;font-variant-position:normal;isolation:auto;mix-blend-mode:normal;paint-order:markers fill stroke;shape-padding:0;text-decoration-color:#000000;text-decoration-line:none;text-decoration-style:solid;text-indent:0;text-orientation:mixed;text-transform:none;white-space:normal"/><path d="m-818.43-1305a1.0584 1.0584 0 0 1 1.084 1.0567v8.0468h28.691a1.0584 1.0584 0 0 1 1.0566 1.0586v15.658a1.0584 1.0584 0 0 1-1.0566 1.0586h-28.691v8.0449a1.0584 1.0584 0 0 1-1.5879 0.918l-29.35-16.934a1.0584 1.0584 0 0 1 0-1.834l29.35-16.934a1.0584 1.0584 0 0 1 0.5039-0.1406zm-1.0332 2.8906-26.172 15.1 26.172 15.102v-7.2715a1.0584 1.0584 0 0 1 1.0586-1.0586h28.691v-13.541h-28.691a1.0584 1.0584 0 0 1-1.0586-1.0586z" color="#000000" color-rendering="auto" dominant-baseline="auto" image-rendering="auto" solid-color="#000000" style="font-feature-settings:normal;font-variant-alternates:normal;font-variant-caps:normal;font-variant-ligatures:normal;font-variant-numeric:normal;font-variant-position:normal;isolation:auto;mix-blend-mode:normal;paint-order:markers fill stroke;shape-padding:0;text-decoration-color:#000000;text-decoration-line:none;text-decoration-style:solid;text-indent:0;text-orientation:mixed;text-transform:none;white-space:normal"/><path d="m-797.5-1452.2a1.0584 1.0584 0 0 1 1.0938 1.2109l-2.2285 15.328a1.0584 1.0584 0 0 1-1.7949 0.5957l-2.293-2.293-5.2383 5.2402a1.0584 1.0584 0 0 1-1.498 0l-7.0137-7.0156a1.0584 1.0584 0 0 1 0-1.4961l5.2383-5.2383-2.2949-2.2949a1.0584 1.0584 0 0 1 0.5957-1.7969l15.328-2.2304a1.0584 1.0584 0 0 1 0.10547-0.01zm-1.2031 2.3105-11.838 1.7207 1.5527 1.5528a1.0584 1.0584 0 0 1 0 1.4961l-5.2383 5.2382 5.5176 5.5176 5.2383-5.2383a1.0584 1.0584 0 0 1 1.4961 0l1.5488 1.5489zm-19.484 12.549a1.0584 1.0584 0 0 1 0.73242 0.3105l5.8945 5.8945a1.0584 1.0584 0 0 1 0 1.4961l-5.8945 5.8945a1.0584 1.0584 0 0 1-1.4961 0l-5.8965-5.8945a1.0584 1.0584 0 0 1 0-1.4961l5.8965-5.8945a1.0584 1.0584 0 0 1 0.76368-0.3105zm-0.0156 2.5547-4.3984 4.3984 4.3984 4.3984 4.3984-4.3984zm-9.4785 5.8203a1.0584 1.0584 0 0 1 0.73242 0.3105l7.0137 7.0137a1.0584 1.0584 0 0 1 0 1.496l-5.2383 5.2383 2.293 2.293a1.0584 1.0584 0 0 1-0.59571 1.7969l-15.328 2.2246a1.0584 1.0584 0 0 1-1.1992-1.1992l2.2285-15.326a1.0584 1.0584 0 0 1 1.7949-0.5957l2.2969 2.2969 5.2383-5.2383a1.0584 1.0584 0 0 1 0.76368-0.3105zm-0.0156 2.5547-5.2383 5.2382a1.0584 1.0584 0 0 1-1.4961 0l-1.5527-1.5527-1.7207 11.836 11.836-1.7207-1.5488-1.5488a1.0584 1.0584 0 0 1 0-1.4961l5.2383-5.2383z" color="#000000" color-rendering="auto" dominant-baseline="auto" image-rendering="auto" solid-color="#000000" style="font-feature-settings:normal;font-variant-alternates:normal;font-variant-caps:normal;font-variant-ligatures:normal;font-variant-numeric:normal;font-variant-position:normal;isolation:auto;mix-blend-mode:normal;shape-padding:0;text-decoration-color:#000000;text-decoration-line:none;text-decoration-style:solid;text-indent:0;text-orientation:mixed;text-transform:none;white-space:normal"/><path d="m-754.97-1242.9c-0.58525 0-1.0599 0.474-1.0594 1.0593v24.258h-13.6c-0.94237 0-1.4146 1.1392-0.74879 1.8061l23.078 23.078c0.0864 0.099 0.19022 0.1802 0.30644 0.2408 0.12562 0.066 0.26329 0.1057 0.40463 0.1173 0.029 0 0.0581 0.01 0.0873 0.01h6e-3c0.31032 0 0.6045-0.1374 0.80512-0.3741l23.07-23.068c0.4209-0.4222 0.41063-1.1088-0.0233-1.5177h-1e-3c-0.19607-0.1851-0.45543-0.288-0.72502-0.2884h-13.609v-24.258c-2.6e-4 -0.5842-0.47371-1.0576-1.0578-1.0578zm1.0594 2.1166h14.816v24.258c2.7e-4 0.5841 0.47371 1.0575 1.0578 1.0578h12.112l-20.575 20.575-20.575-20.575h12.105c0.58524 0 1.0598-0.4741 1.0594-1.0593zm-9.5793 46.756c-0.58385 0-1.0565 0.4749-1.0563 1.0588v4.2323c2e-5 0.5837 0.47258 1.0572 1.0563 1.0584h33.979c0.58451-1e-4 1.0583-0.4739 1.0583-1.0584v-4.2323c2e-4 -0.5847-0.47367-1.0587-1.0583-1.0588zm1.0588 2.1172h31.861v2.1172h-31.861z" color="#000000" color-rendering="auto" dominant-baseline="auto" image-rendering="auto" solid-color="#000000" style="font-feature-settings:normal;font-variant-alternates:normal;font-variant-caps:normal;font-variant-ligatures:normal;font-variant-numeric:normal;font-variant-position:normal;isolation:auto;mix-blend-mode:normal;shape-padding:0;text-decoration-color:#000000;text-decoration-line:none;text-decoration-style:solid;text-indent:0;text-orientation:mixed;text-transform:none;white-space:normal"/><path d="m-704.15-1389.1c-0.5847-2e-4 -1.0588 0.4737-1.0589 1.0584v58.697c-2.4e-4 0.5849 0.47397 1.0591 1.0589 1.0589h58.697c0.58489 2e-4 1.0591-0.474 1.0589-1.0589v-49.326c2.4e-4 -0.3233-0.14727-0.629-0.4005-0.8299l-11.828-9.371c-0.18683-0.1479-0.41805-0.2283-0.65628-0.2285zm1.0583 2.1172h3.1156v16.316c5e-5 0.5837 0.4726 1.0571 1.0562 1.0584h36.036c0.58449-1e-4 1.0583-0.4739 1.0583-1.0584v-16.316h4.178l11.137 8.8238v47.756h-3.2835v-32.524c2.4e-4 -0.5847-0.47366-1.0588-1.0583-1.0588h-47.895c-0.58468 0-1.0586 0.4741-1.0583 1.0588v32.524h-3.2856zm5.2307 0h33.918v15.258h-33.918zm17.453 0.584c-0.58385-2e-4 -1.0576 0.4724-1.0588 1.0562v11.975c5e-5 0.5847 0.47418 1.0585 1.0588 1.0583h11.972c0.5847 0 1.0588-0.4736 1.0589-1.0583v-11.975c-1e-3 -0.5838-0.47498-1.0565-1.0589-1.0562zm1.0583 2.1151h9.8557v9.8572h-9.8557zm-18.341 22.416h45.779v31.465h-45.779zm38.774 7.2135h-31.423c-1.4542-0.043-1.4541 2.1605 0 2.1156h31.423c1.0737 0.016 0.91282-1.3925 0-1.958-0.17187-0.1069 0.20238-0.1624 0-0.1597zm-31.423 7.6021c-1.4153 0-1.4153 2.1212 0 2.1177h31.423c1.0737 0.016 0.91276-1.3925 0-1.958-0.17235-0.1065 0.20254-0.1611 0-0.1576zm31.423 7.6021h-31.423c-1.4539-0.043-1.4539 2.1608 0 2.1161h31.423c1.0737 0.016 0.91279-1.3925 0-1.9581-0.17187-0.1069 0.20238-0.1623 0-0.1596z" color="#000000" color-rendering="auto" dominant-baseline="auto" image-rendering="auto" solid-color="#000000" style="font-feature-settings:normal;font-variant-alternates:normal;font-variant-caps:normal;font-variant-ligatures:normal;font-variant-numeric:normal;font-variant-position:normal;isolation:auto;mix-blend-mode:normal;paint-order:markers fill stroke;shape-padding:0;text-decoration-color:#000000;text-decoration-line:none;text-decoration-style:solid;text-indent:0;text-orientation:mixed;text-transform:none;white-space:normal"/><path d="m-674.8-1245.7c-9.1995 1e-4 -16.68 7.4805-16.68 16.68 1e-4 9.1993 7.4803 16.68 16.68 16.68 9.1995 2e-4 16.68-7.4801 16.68-16.68 2.1e-4 -9.1998-7.4804-16.68-16.68-16.68zm0 2.1166c8.0558-2e-4 14.564 6.5077 14.563 14.564-9e-5 8.0556-6.5079 14.563-14.563 14.563-8.0554 0-14.563-6.5075-14.563-14.563-1.9e-4 -8.0556 6.5074-14.563 14.563-14.564zm-21.657 27.17c-1.837-2e-4 -3.3488 1.5116-3.3486 3.3486v27.12a1.0584 1.0584 0 0 0 1.0583 1.0584h6.4596a1.0584 1.0584 0 0 0 1.0583-1.0584v-12.7l3.7331 12.993a1.0584 1.0584 0 0 0 1.017 0.7659h23.362a1.0584 1.0584 0 0 0 1.017-0.7659l3.73-12.978v12.685a1.0584 1.0584 0 0 0 1.0583 1.0584h6.459a1.0584 1.0584 0 0 0 1.0583-1.0584v-27.12c1.8e-4 -1.837-1.5117-3.3488-3.3486-3.3486h-9.2289a1.0584 1.0584 0 0 0-0.84387 0.4196c-2.7481 3.6284-7.0317 5.7622-11.583 5.7702-4.555 0-8.8429-2.1391-11.593-5.7702a1.0584 1.0584 0 0 0-0.84388-0.4196h-5.7557zm0 2.1166h8.7349c3.1561 3.892 7.8909 6.1847 12.921 6.1898a1.0584 1.0584 0 0 0 3e-3 0c5.0274-0.01 9.7586-2.3 12.913-6.1898h8.7426c0.69294 0 1.232 0.5391 1.232 1.232v26.062h-4.3424v-19.139a1.0584 1.0584 0 0 0-2.0753-0.2925l-5.5852 19.432h-21.769l-5.5883-19.45a1.0584 1.0584 0 0 0-2.0753 0.2925v19.158h-4.3429v-26.062c-7e-5 -0.6929 0.53903-1.232 1.232-1.232z" color="#000000" color-rendering="auto" dominant-baseline="auto" image-rendering="auto" solid-color="#000000" style="font-feature-settings:normal;font-variant-alternates:normal;font-variant-caps:normal;font-variant-ligatures:normal;font-variant-numeric:normal;font-variant-position:normal;isolation:auto;mix-blend-mode:normal;paint-order:markers fill stroke;shape-padding:0;text-decoration-color:#000000;text-decoration-line:none;text-decoration-style:solid;text-indent:0;text-orientation:mixed;text-transform:none;white-space:normal"/><path d="m-489.04-1511.7a1.0584 1.0584 0 0 0-1.0586 1.0586v16.934a1.0584 1.0584 0 0 0 1.0586 1.0586h58.697a1.0584 1.0584 0 0 0 1.0586-1.0586v-16.934a1.0584 1.0584 0 0 0-1.0586-1.0586zm1.0586 2.1172h56.58v14.816h-56.58z" color="#000000" color-rendering="auto" dominant-baseline="auto" image-rendering="auto" solid-color="#000000" style="font-feature-settings:normal;font-variant-alternates:normal;font-variant-caps:normal;font-variant-ligatures:normal;font-variant-numeric:normal;font-variant-position:normal;isolation:auto;mix-blend-mode:normal;paint-order:markers fill stroke;shape-padding:0;text-decoration-color:#000000;text-decoration-line:none;text-decoration-style:solid;text-indent:0;text-orientation:mixed;text-transform:none;white-space:normal"/><path d="m-539.86-1532.5a1.0584 1.0584 0 0 0-1.0566 1.0566v19.824h-19.824a1.0584 1.0584 0 0 0-1.0586 1.0585v16.934a1.0584 1.0584 0 0 0 1.0586 1.0586h19.824v19.822a1.0584 1.0584 0 0 0 1.0566 1.0586h16.934a1.0584 1.0584 0 0 0 1.0586-1.0586v-19.822h19.824a1.0584 1.0584 0 0 0 1.0586-1.0586v-16.934a1.0584 1.0584 0 0 0-1.0586-1.0585h-19.824v-19.824a1.0584 1.0584 0 0 0-1.0586-1.0566zm1.0586 2.1152h14.816v19.824a1.0584 1.0584 0 0 0 1.0586 1.0586h19.824v14.816h-19.824a1.0584 1.0584 0 0 0-1.0586 1.0586v19.824h-14.816v-19.824a1.0584 1.0584 0 0 0-1.0586-1.0586h-19.822v-14.816h19.822a1.0584 1.0584 0 0 0 1.0586-1.0586z" color="#000000" color-rendering="auto" dominant-baseline="auto" image-rendering="auto" solid-color="#000000" style="font-feature-settings:normal;font-variant-alternates:normal;font-variant-caps:normal;font-variant-ligatures:normal;font-variant-numeric:normal;font-variant-position:normal;isolation:auto;mix-blend-mode:normal;paint-order:markers fill stroke;shape-padding:0;text-decoration-color:#000000;text-decoration-line:none;text-decoration-style:solid;text-indent:0;text-orientation:mixed;text-transform:none;white-space:normal"/><path d="m-836.2-1215.5a1.0584 1.0584 0 0 0 1.0566 1.084h8.0469v28.691a1.0584 1.0584 0 0 0 1.0586 1.0566h15.658a1.0584 1.0584 0 0 0 1.0586-1.0566v-28.691h8.0449a1.0584 1.0584 0 0 0 0.91803-1.5879l-16.934-29.35a1.0584 1.0584 0 0 0-1.834 0l-16.934 29.35a1.0584 1.0584 0 0 0-0.1406 0.5039zm2.8906-1.0332 15.1-26.172 15.102 26.172h-7.2715a1.0584 1.0584 0 0 0-1.0586 1.0586v28.691h-13.541v-28.691a1.0584 1.0584 0 0 0-1.0586-1.0586z" color="#000000" color-rendering="auto" dominant-baseline="auto" image-rendering="auto" solid-color="#000000" style="font-feature-settings:normal;font-variant-alternates:normal;font-variant-caps:normal;font-variant-ligatures:normal;font-variant-numeric:normal;font-variant-position:normal;isolation:auto;mix-blend-mode:normal;paint-order:markers fill stroke;shape-padding:0;text-decoration-color:#000000;text-decoration-line:none;text-decoration-style:solid;text-indent:0;text-orientation:mixed;text-transform:none;white-space:normal"/><path d="m-871.92-1215.1a1.0584 1.0584 0 0 0-1.0566-1.084h-8.0469v-28.691a1.0584 1.0584 0 0 0-1.0586-1.0566h-15.658a1.0584 1.0584 0 0 0-1.0586 1.0566v28.691h-8.0449a1.0584 1.0584 0 0 0-0.918 1.5879l16.934 29.35a1.0584 1.0584 0 0 0 1.834 0l16.934-29.35a1.0584 1.0584 0 0 0 0.14059-0.5039zm-2.8906 1.0332-15.1 26.172-15.102-26.172h7.2715a1.0584 1.0584 0 0 0 1.0586-1.0586v-28.691h13.541v28.691a1.0584 1.0584 0 0 0 1.0586 1.0586z" color="#000000" color-rendering="auto" dominant-baseline="auto" image-rendering="auto" solid-color="#000000" style="font-feature-settings:normal;font-variant-alternates:normal;font-variant-caps:normal;font-variant-ligatures:normal;font-variant-numeric:normal;font-variant-position:normal;isolation:auto;mix-blend-mode:normal;paint-order:markers fill stroke;shape-padding:0;text-decoration-color:#000000;text-decoration-line:none;text-decoration-style:solid;text-indent:0;text-orientation:mixed;text-transform:none;white-space:normal"/></g></svg>
