<svg enable-background="new" version="1.1" viewBox="0 0 251.31 227.92" xmlns="http://www.w3.org/2000/svg" xmlns:osb="http://www.openswatchbook.org/uri/2009/osb" xmlns:xlink="http://www.w3.org/1999/xlink"><defs><linearGradient id="b"><stop stop-color="#fff" offset="0"/><stop stop-color="#fff" stop-opacity="0" offset="1"/></linearGradient><linearGradient id="a"><stop stop-color="#ffcaa6" offset="0"/><stop stop-color="#d54800" offset=".78634"/><stop stop-color="#8d3d17" offset="1"/></linearGradient><filter id="i" x="0" y="0" width="1" height="1" color-interpolation-filters="sRGB"><feTurbulence baseFrequency="1" numOctaves="3" result="result0" type="fractalNoise"/><feColorMatrix result="result4" type="saturate" values="0"/><feComposite in="SourceGraphic" in2="result4" k1="1.25" k2="0.5" k3="0.5" operator="arithmetic" result="result2"/><feBlend in="result2" in2="SourceGraphic" result="result5"/><feComposite in="result5" in2="SourceGraphic" operator="in" result="result3"/></filter><filter id="h" color-interpolation-filters="sRGB"><feBlend in2="BackgroundImage" mode="multiply"/></filter><radialGradient id="g" cx="224.32" cy="98.154" r="100" gradientTransform="matrix(1.1233 0 0 1.1233 -107.84 -26.469)" gradientUnits="userSpaceOnUse" xlink:href="#a"/><radialGradient id="f" cx="197.82" cy="221.03" r="99.943" gradientTransform="matrix(1 0 0 .14054 -13.435 194.06)" gradientUnits="userSpaceOnUse"><stop offset="0"/><stop stop-opacity="0" offset="1"/></radialGradient><radialGradient id="e" cx="127.99" cy="56.796" r="58.69" gradientTransform="matrix(.76146 0 0 .76146 133.24 125.67)" gradientUnits="userSpaceOnUse" xlink:href="#b"/><radialGradient id="d" cx="127.99" cy="56.796" r="58.69" gradientTransform="matrix(.79201 0 0 .79201 114.59 39.618)" gradientUnits="userSpaceOnUse" xlink:href="#b"/><radialGradient id="c" cx="148.95" cy="63.394" r="98.406" gradientTransform="matrix(1.6383 0 0 1.6094 -96.24 -38.448)" gradientUnits="userSpaceOnUse" xlink:href="#a"/></defs><g transform="translate(-80.19 -14.37)"><path d="m184.41 211.07c-39.897-0.0723-78.394 3.5849-92.812 8.8096-5.3915 1.9091-7.4689 4.0006-7.125 6.0456 1.9691 6.1288 35.905 11.708 78.781 12.916 39.662 1.2548 83.688-1.277 105.31-6.1246 22.405-4.8145 20.914-11.56-4.4688-16.101-18.622-3.4301-48.84-5.601-79.688-5.5455z" color="#000000" enable-background="accumulate" fill="url(#f)"/><path transform="translate(80.19 14.37)" d="m117.66 15.125c-39.897-0.51523-78.394 25.535-92.812 62.75-5.3915 13.598-7.4689 28.496-7.125 43.062 1.9691 43.655 35.905 83.393 78.781 92 39.662 8.9374 83.688-9.0956 105.31-43.625 22.405-34.293 20.914-82.344-4.4688-114.69-18.622-24.432-48.84-39.895-79.688-39.5z" color="#000000" enable-background="accumulate" fill="url(#g)"/><path d="m230.68 124.23c-24.681 0-44.688 20.006-44.688 44.688s20.006 44.688 44.688 44.688 44.717-20.006 44.717-44.688-20.036-44.688-44.717-44.688z" color="#000000" enable-background="accumulate" fill="url(#e)" opacity=".37674"/><path d="m215.94 38.12c-25.672 0-46.48 20.809-46.48 46.48 0 25.672 20.809 46.48 46.48 46.48 25.672 0 46.511-20.809 46.511-46.48 0-25.672-20.839-46.48-46.511-46.48z" color="#000000" enable-background="accumulate" fill="url(#d)" opacity=".48372"/><path transform="translate(80.19 14.37)" d="m144.34 21.406c3.3773 6.5308 5.8113 14.419 7.4062 23.188-9.402-2.2266-18.628-5.8518-27.875-9.4062-11.864-4.5607-23.785-8.9688-36.25-9.7812-1.5581-0.10155-3.1131-0.14506-4.6875-0.125-1.5216 0.01938-3.0564 0.10556-4.5938 0.25-3.5099 2.2477-7.9747 3.8955-11.562 5.4062 7.0504-2.3776 13.914-3.002 20.656-2.5625 11.841 0.77177 23.445 5.0128 35.281 9.5625 9.6262 3.7004 19.401 7.5522 29.562 9.8125 0.71756 4.6168 1.2067 9.4871 1.5 14.5-10.932-2.1323-22.378-3.3282-33.844-3.5625-1.3739-0.02804-2.7507-0.03066-4.125-0.03125-37.809-0.018948-75.414 10.341-95.125 32.406-0.50803 2.1339-0.93742 4.2738-1.3125 6.4375 18.035-24.723 59.397-36.59 100.5-35.75 11.589 0.23676 23.098 1.4976 34.062 3.7188 5e-3 0.11382 0.02685 0.22977 0.03125 0.34375 0.23226 5.9932 0.16377 12.203-0.125 18.531-1.8405-0.25671-3.7015-0.4431-5.5625-0.46875-0.80083-0.01102-1.6038-4.24e-4 -2.4062 0.03125-7.7037 0.30595-15.42 2.5679-22.656 6.875-25.843 15.381-61.664 46.988-84.219 85.906 0.6783 0.8634 1.3886 1.7209 2.0938 2.5625 22.198-38.839 58.194-70.727 83.75-85.938 9.2798-5.5231 19.286-7.539 28.875-6.125-0.84452 14.846-2.9905 30.251-6.0938 45.031-4.6323 22.062-11.37 42.74-18.844 58.031-3.7371 7.6454-7.6468 13.951-11.531 18.375-2.3933 2.7258-4.7851 4.7014-7.0312 5.9062 1.666 0.1145 3.3442 0.1813 5.0312 0.21875 1.4609-1.1877 2.8902-2.5989 4.3125-4.2188 4.15-4.7264 8.2187-11.232 12.031-19.031 7.625-15.599 14.359-36.465 19.031-58.719 3.1036-14.781 5.2866-30.153 6.1562-45.031 8.0988 1.83 15.763 6.1542 22.312 12.969 13.631 14.182 22.235 39.33 18.188 75.188 1.266-1.6734 2.4422-3.4234 3.5938-5.1875 2.6876-33.594-5.8163-57.762-19.5-72-7.0634-7.3494-15.521-11.955-24.438-13.844 0.30099-6.3757 0.34684-12.649 0.125-18.719 25.426 5.6373 47.384 16.565 59.125 32.281-0.35062-2.1556-0.7304-4.31-1.2188-6.4375-13.049-14.317-34.168-24.021-58.062-29.125-0.26839-4.9947-0.75682-9.8248-1.4375-14.469 1.2777 0.23667 2.5834 0.47972 3.875 0.65625 9.6221 1.3152 19.648 0.79221 30.156-2.9375-0.81569-0.76537-1.6269-1.5421-2.4688-2.2812-9.4726 3.1188-18.456 3.4832-27.25 2.2812-1.6007-0.21879-3.1927-0.46505-4.7812-0.78125-1.4448-8.4457-3.6432-16.182-6.75-22.844-1.2909-0.38559-2.594-0.75619-3.9062-1.0938z" color="#000000" enable-background="accumulate" fill="url(#c)" style="block-progression:tb;text-indent:0;text-transform:none"/><path d="m223.75 33.286c3.2773 6.6153 5.645 14.596 7.1928 23.478-9.1235-2.2554-18.086-5.9277-27.059-9.5281-11.513-4.6196-23.09-9.0788-35.185-9.9017-1.5119-0.10286-3.0183-0.14487-4.5461-0.12455-1.4765 0.01963-2.9608 0.10279-4.4527 0.2491-3.4059 2.2767-7.728 3.95-11.21 5.4802 6.8415-2.4084 13.479-3.0607 20.021-2.6156 11.49 0.78175 22.766 5.0752 34.251 9.6838 9.3411 3.7482 18.817 7.6745 28.678 9.964 0.6963 4.6765 1.1788 9.5881 1.4635 14.666-10.609-2.1598-21.724-3.3747-32.85-3.612-1.3332-0.0284-2.652-0.03049-3.9856-0.03109-38.474-0.02013-76.761 11.531-95.001 36.182-0.93416 1.3192 0.0361 1.6682-0.31137 3.3006-0.21218 0.88309-0.64984 3.2289-1.0275 3.8922l0.15569 0.0934c15.829-27.833 58.1-41.219 100.11-40.323 11.246 0.23982 22.429 1.5177 33.068 3.7676 5e-3 0.11529 0.0268 0.22706 0.0311 0.34251 0.22538 6.0707 0.15567 12.366-0.12455 18.776-1.786-0.26003-3.581-0.44108-5.3868-0.46706-0.77711-0.01116-1.5566-9.96e-4 -2.3353 0.03109-7.4755 0.30991-14.992 2.612-22.014 6.9748-25.458 15.817-60.884 48.557-82.701 88.804 0.68028 0.8359 1.3797 1.6468 2.0862 2.4599 21.455-40.107 57.05-73.084 82.203-88.711 9.0049-5.5945 18.719-7.6287 28.024-6.1964-0.8195 15.038-2.9048 30.646-5.9161 45.617-4.4951 22.348-11.025 43.268-18.278 58.757-3.6264 7.7443-7.4401 14.139-11.21 18.62-2.3224 2.761-4.6395 4.758-6.8191 5.9784 1.6166 0.11598 3.2515 0.18003 4.8886 0.21797 1.4176-1.203 2.8234-2.6251 4.2036-4.2658 4.027-4.7875 7.9459-11.374 11.645-19.274 7.3992-15.801 13.962-36.932 18.496-59.473 3.0116-14.973 5.1034-30.546 5.9473-45.617 7.8588 1.8536 15.316 6.2374 21.672 13.14 13.607 14.778 22.021 41.302 17.25 79.307 1.2241-1.4819 2.4115-2.994 3.5497-4.5461 3.5571-36.042-4.8141-61.824-18.589-76.785-6.8542-7.4444-15.075-12.13-23.727-14.043 0.29207-6.4582 0.33982-12.814 0.12455-18.963 26.85 6.2139 49.758 18.771 60.189 37.023-0.39941-2.6089-0.8794-5.2128-1.4635-7.7532-12.35-16.196-34.092-27.043-58.881-32.57-0.26044-5.0593-0.70953-9.9618-1.37-14.666 1.2399 0.23973 2.4832 0.47508 3.7365 0.65389 9.337 1.3322 19.073 0.81987 29.269-2.9581-0.79153-0.77527-1.5806-1.5554-2.3976-2.3042-9.192 3.1591-17.903 3.5217-26.436 2.3042-1.5533-0.22162-3.098-0.48928-4.6395-0.80958-1.402-8.5549-3.5242-16.387-6.5389-23.135-1.2527-0.39058-2.5254-0.74789-3.7988-1.0898z" color="#000000" enable-background="accumulate" style="block-progression:tb;text-indent:0;text-transform:none"/></g><g transform="translate(-80.19 -14.37)" fill="none" filter="url(#h)" opacity=".34483"><rect x="97.844" y="29.5" width="200" height="200"/><path d="m197.84 29.5c-14.481-0.01791-28.964 3.1311-42.094 9.25-7.6877 4.167-15.736 8.3022-22.375 14.344-16.619 13.968-28.514 33.469-33.156 54.688-1.022 9.4891-3.5167 19.431-2.0938 29.406 2.5168 39.952 31.644 76.371 69.969 87.812 36.231 11.689 78.516 0.25817 103.78-28.25 26.882-28.804 33.672-74.008 16.625-109.5-15.825-34.691-52.471-58.188-90.656-57.75z" color="#000000" enable-background="accumulate"/><path d="m197.84 29.5c-15.038 0-29.301 3.3047-42.094 9.25-0.64498 0.78402-1.8053 1.589-3.3125 2.25-0.93696 0.41095-1.8881 0.6952-2.7812 0.875-24.783 13.656-43.148 37.499-49.438 65.906 0.40376 1.0299 0.45417 2.5573 0.0625 4.1875-0.29739 1.2378-0.78793 2.2957-1.375 3.0625-0.68527 4.7261-1.0625 9.5527-1.0625 14.469 0 55.228 44.772 100 100 100 55.228 0 100-44.772 100-100 0-55.228-44.772-100-100-100z" color="#000000" enable-background="accumulate" filter="url(#i)"/></g></svg>
