<svg version="1.1" viewBox="0 0 510 400" xmlns="http://www.w3.org/2000/svg" xmlns:xlink="http://www.w3.org/1999/xlink"><defs><linearGradient id="a"><stop stop-color="#fff" offset="0"/><stop stop-color="#fff" stop-opacity="0" offset="1"/></linearGradient><radialGradient id="c" cx="-468.08" cy="506.99" r="190.75" gradientTransform="matrix(-.95179 0 2.7932e-8 -.74654 -954.98 874)" gradientUnits="userSpaceOnUse"><stop stop-color="#ff4545" offset="0"/><stop stop-color="#d60000" offset=".63225"/><stop stop-color="#ad0000" offset=".87517"/><stop stop-color="#800000" offset="1"/></radialGradient><radialGradient id="b" cx="-568.72" cy="538.19" r="22.223" gradientTransform="matrix(4.4561 -3.3862 .8984 3.4334 1500.5 -3290.6)" gradientUnits="userSpaceOnUse" xlink:href="#a"/><linearGradient id="e" x1="-709.42" x2="-658.52" y1="557.28" y2="557.28" gradientTransform="translate(-2.1429 .35714)" gradientUnits="userSpaceOnUse" xlink:href="#a"/><radialGradient id="d" cx="-545.68" cy="512.21" r="20.629" gradientTransform="matrix(1 0 0 .89189 -13.132 36.184)" gradientUnits="userSpaceOnUse" xlink:href="#a"/></defs><g transform="translate(790.11 -311.34)"><g transform="translate(3.9308 -10.391)"><g transform="matrix(-1 0 0 1 -1078.1 5.8026e-8)"><g><path d="m-553.22 573.19c0.14782 0.0842 0.25554 0.16763 0.28746 0.2114 11.307 24.031 11.958 50.607 34.658 67.653 0.92045 0.31831 15.143 9.1085 15.743 10.091 0.72862 1.1922 2.3738 13.293 2.4831 15.048 0.0259 6.7549-1.0293 12.063-2.3921 16.092-0.22192 0.65611 15.252 11.07 15.252 11.07s2.7558 5.8637 0.74761 7.2034c-6.8172 4.5482-21.748-9.3934-21.605-11.733 0.61579-10.036 2.1476-28.89 1.1246-32.206-1.328-2.7466-27.904-17.167-29.885-18.62-2.3602-3.3552-20.132-62.107-21.279-66.709 0.34245-0.0983 3.83 1.309 4.8649 1.8987z" color="#000000" style="block-progression:tb;text-indent:0;text-transform:none"/><g fill-rule="evenodd"><path d="m-709.71 551.35 18.415 39.038c9.508 7.1936 18.667 9.4698 23.43 6.3566 13.649-8.9211 4.9588-21.244-1.9998-31.579l-18.128-46.769c-23.496-6.7519-26.32 16.059-21.717 32.953z" fill="url(#e)"/><path d="m-690.9 554.33c2.111 23.436 3.1476 59.448 7.8758 82.219 1.834 8.833 1.5247 4.988 6.7814 13.09 3.5421 18.649-9.2306 18.255-10.621 6.1792-3.9601-32.049-3.7099-67.558-4.875-94.32 0.2167-1.8316-1.1174-9.2986 0.83883-7.1687z" color="#000000" fill="#520" style="block-progression:tb;text-indent:0;text-transform:none"/><path d="m-665.04 561.04c-21.292-6.7044-77.152-18.591-80.531-23.383-4.8753-6.915-13.395-11.29-19.28-5.3612-3.1962 10.122 66.883 21.616 92.954 28.263 1.7527 0.12053 8.3829 2.9558 6.8576 0.48157z" color="#000000" fill="#520" style="block-progression:tb;text-indent:0;text-transform:none"/></g></g><g><g><g fill-rule="evenodd"><path d="m-700.65 551.48c-3.7942 13.982-2.9508 29.304-6.7175 43.3-1.4876 5.5275-8.7494 11.045-9.7793 15.611-1.168 5.1782 0.1381 7.1012 4.3808 9.097 2.1742 1.0228 5.0273 2.7553 7.0677 0.75369 1.7559-1.7225 1.2578-4.7869 0.66424-7.129-1.8659-7.362-0.0224-11.503 1.2469-18.982 2.1496-12.664 3.4028-25.522 4.1617-38.388 0.0659-1.1178-0.31293-6.8854-1.0246-4.2626z" color="#000000" style="block-progression:tb;text-indent:0;text-transform:none"/><path d="m-703.61 547.52c-6.9884 7.8768-12.455 17.207-20.234 24.278-4.1316 3.7553-15.662 3.4312-13.827 11.358 1.2325 5.3228 8.2793 6.9286 9.2721 0.52566 0.99328-6.406 7.1559-10.012 10.822-14.949 5.0507-6.802 10.523-13.345 14.73-20.722 0.19991-0.35057-0.51278-0.77207-0.76294-0.49011z" color="#000000" style="block-progression:tb;text-indent:0;text-transform:none"/><path d="m-480.75 334.35c-67.202-0.42793-137.94 30.832-172.17 90.686-17.149 29.837-22.369 66.388-13.446 99.7 6.9908 14.271 16.179 37.945 30.079 52.128 55.238 64.047 151.34 81.942 229.46 54.594 54.253-18.408 103.19-62.722 113.8-120.79 4.5043-24.13 1.9975-49.483-7.0211-72.305-10.501-14.313-19.371-33.903-34.019-46.676-38.244-38.355-93.079-57.443-146.68-57.336z"/></g><path d="m-602.69 543.67c9.5365 0.91506 17.939 31.818 3.8223 63.594 0.7997 0.80318 10.814 15.703 10.863 16.719 0.0597 1.2328-10.448 15.064-11.4 16.25-0.93219 1.0116-9.168 9.1957-16.034 16.007-4.6698 4.6326-8.7062 8.6303-9.3808 9.3052-0.64863 0.61567-13.649 9.5195-14.015 9.125 0.9765-1.371 8.8874-10.287 17.643-20.242 11.488-13.062 24.431-27.911 25.073-29.852 0.24131-2.6111-19.669-29.127-20.922-31.344 0.782-36.775 7.8255-50.189 14.35-49.562z" color="#000000" style="block-progression:tb;text-indent:0;text-transform:none"/><path d="m-499.23 585.78c0.18041-1e-3 0.32354 0.0185 0.37606 0.0417 23.123 16.072 37.81 40.131 67.692 43.749 1.014-0.19569 18.734 0.33575 19.806 0.91927 1.3011 0.70845 13.469 18.294 14.499 19.848 3.6049 6.1891 5.4502 11.623 6.3348 16.045 12.302 5.8377 27.584 1.8495 26.841 12.561 0 0-27.412-1.3589-28.521-3.5836-4.7552-9.5422-17.586-35.014-20.283-37.516-2.6756-1.8181-34.724-0.97004-37.314-1.2536-3.9461-1.8297-51.414-46.358-54.906-49.975 0.26241-0.27178 4.2109-0.8285 5.4738-0.83563z" color="#000000" style="block-progression:tb;text-indent:0;text-transform:none"/></g><path d="m-617.77 533.01c9.9045 19.88 116.23 111.91-33.628 80.545-23.717-4.9644-65.892-44.098-59.482-94.452 5.2057-40.894 53.201-81.743 76.71-79.191 24.089 2.6144-6.2368 47.665 16.4 93.099z"/></g><g fill-rule="evenodd"><path d="m-478.72 332c-105.35 0-190.75 71.387-190.75 159.44 0 11.616 1.4902 22.934 4.3125 33.844 15.261-17.524 36.275-33.306 61.719-46.688 55.016-28.934 130.88-46.781 214.62-46.781 31.427 0 61.739 2.5208 90.25 7.1875-25.95-62.283-96.796-107-180.16-107zm89.906 102.12c-83.358 0-158.82 17.779-213.31 46.438-25.925 13.635-47.054 29.706-62.094 47.438 20.087 70.063 95.517 122.16 185.5 122.16 105.35 0 190.75-71.387 190.75-159.44 0-17.144-3.2578-33.649-9.25-49.125-28.884-4.8317-59.654-7.4688-91.594-7.4688z" fill="url(#c)"/><path d="m-688.31 485.08c-2.3932-1.5811-6.9395 6.5899-7.9593 8.3524-2.8421 5.4974-5.1095 11.416-6.464 17.628 6.6908 1.3981 13.221-2.4634 18.246-7.2228 3.5086-3.3375 6.7191-7.5314 7.9428-12.675 0.47372-3.5024-2.8328-5.3738-5.4323-4.6372-3.4199 0.21665-3.1472-2.7627-6.3332-1.4455z" fill="#fff"/><path d="m-644.95 590.27c-1.5474 0.0207-2.9046 0.53479-4.4751 1.3505-6.8138 4.7049-11.278 6.0498-9.2679 9.6651 5.1193 3.54 10.063 5.8977 14.273 6.7788 9.4034 1.9683 17.582 3.4906 24.732 4.6339 0.13228-0.3826 0.18677-0.8192 0.18536-1.324-0.54584-3.8334-5.5026-9.5335-8.0233-12.128-4.8941-4.4164-8.9299-4.6877-14.325-8.447-1.1767-0.37067-2.1697-0.54202-3.0981-0.52959z" fill="#fff"/></g><g fill-rule="evenodd"><path d="m-716.22 554.17 18.415 39.038c9.508 7.1936 18.667 9.4698 23.43 6.3566 13.649-8.9211 10.439-25.54 3.3574-34.793-23.458-30.651-9.7038-38.92-25.245-39.208-11.624-0.21554-24.56 11.712-19.957 28.606z"/><path d="m-711.56 547.77c5.1072-2.9487 8.3246 5.3252 11.273 10.432l10.645 18.438c2.9487 5.1072 4.2867 10.631-0.8205 13.58-5.1072 2.9487-14.668 2.1721-17.617-2.9351l-10.645-18.438c-2.9487-5.1072 2.0572-18.129 7.1644-21.077z"/><path d="m-710.12 578.88c-1.8149 3.8923-4.9927 12.906-2.5938 12.969 2.7289-2.6666 2.9419-5.4724 5.4688-8l-2.875-4.9688z" color="#000000" style="block-progression:tb;text-indent:0;text-transform:none"/><path d="m-718.22 567.47c-1.3683 5.0278-4.2362 14.877-1.2812 15.062 1.7843-3.1216 2.2812-7.6334 3.9062-10.562l-2.625-4.5z" color="#000000" style="block-progression:tb;text-indent:0;text-transform:none"/></g><g fill-rule="evenodd"><path d="m-691.43 543.14c6.7714 5.8877-7.6231 15.096-9.492 5.8156-1.4366-5.0439 5.7068-10.694 9.492-5.8156z" fill="#f2f2f2"/><path d="m-678.18 563.87c6.7715 5.8877-7.623 15.096-9.492 5.8156-1.4366-5.0439 5.7068-10.694 9.492-5.8156z" fill="#f2f2f2"/><path d="m-624.75 492.08c53.577 23.207-41.061 92.639-51.76 32.698-8.2237-32.579 45.548-80.638 51.76-32.698z"/><path d="m-663.99 529.28c3.3899 11.824 6.5866 20.645 12.933 31.281 10.6-21.9 13.913-52.062-12.933-31.281z" fill="#fff"/><path d="m-666.85 490.68c-0.80851-0.0177-1.6233 7e-3 -2.4688 0.0937-0.0293 1.1511-0.0625 2.3118-0.0625 3.4688 0 11.144 0.32501 17.002 2.9286 27.5 15.949-11.994 22.56-31.143-0.39732-31.062z" fill="#fff"/></g><g fill-rule="evenodd"><path d="m-473.28 458.97c-17.216 2.0428-27.283 24.241-17.677 38.667 6.4838 12.737 21.898 19.975 35.748 15.789 11.207-2.4519 21.911-12.747 19.634-25.011-2.1451-18.068-20.552-29.524-37.705-29.445z"/><path d="m-499.19 381.4c-9.411 0.26687-17.795 4.7993-23.586 11.143-10.992 12.04-12.643 30.604 5.7503 38.91 20.364 9.1962 45.246-14.791 41.48-34.73-1.4971-7.9266-16.575-15.524-23.644-15.323z"/><path d="m-514.86 580.74c-16.139 0.63202-32.821 13.965-32.429 32.663 1.8898 18.407 22.728 24.398 36.569 18.76 14.759-4.7595 27.575-25.019 18.246-40.912-5.6313-7.7004-13.932-10.842-22.386-10.511z"/><path d="m-331.46 514.26c-22.7-1.5373-32.561 28.67-23.95 46.016 17.364 19.39 47.132-5.877 40.497-27.862-0.95828-8.6014-6.7449-18.275-16.547-18.154z"/><path d="m-563.01 348.37c-14.73 6.075-28.407 13.686-40.688 22.594 1.0654 20.252 40.708 17.39 46.5-3.0312 3.879-10.727 0.55989-16.837-5.8125-19.562z"/><path d="m-373.75 361.16c-2.8277 0.25602-5.5221 0.95133-7.903 2.1228-14.195 12.6 4.2892 34.201 20.384 29.387 6.2968-0.69534 13.389-4.8828 13.3-11.995 0.0481-0.70431 0.0343-1.4017 0-2.0717-7.8021-6.5455-16.417-12.393-25.73-17.443-0.0168 1e-3 -0.0344-2e-3 -0.0512 0z"/></g><path d="m-451.23 407.75c11.027 42.14-24.372 109.99-79.064 151.55-54.692 41.561-107.97 41.091-118.99-1.0488-11.027-42.14 24.372-109.99 79.064-151.55 54.692-41.561 107.97-41.091 118.99 1.0489z" fill="url(#b)" fill-rule="evenodd"/><path d="m-538.62 478.51c2.3143 6.254-4.8509 17.816-16.004 25.823-11.153 8.0079-22.07 9.4298-24.385 3.1758-2.3142-6.254 4.851-17.816 16.004-25.823 11.153-8.0079 22.07-9.4298 24.385-3.1758z" fill="url(#d)" fill-rule="evenodd"/></g></g></g></svg>
