<svg version="1.1" viewBox="0 0 700 800" xmlns="http://www.w3.org/2000/svg" xmlns:xlink="http://www.w3.org/1999/xlink"><defs><linearGradient id="b"><stop stop-color="#565656" offset="0"/><stop stop-color="#fff" offset=".5"/><stop stop-color="#494949" offset=".75"/><stop stop-color="#a4a4a4" offset=".875"/><stop stop-color="#fff" offset="1"/></linearGradient><linearGradient id="a"><stop stop-color="#454545" offset="0"/><stop stop-color="#fff" offset=".5"/><stop stop-color="#525252" offset="1"/></linearGradient><filter id="bi" x="-.12" y="-.12" width="1.24" height="1.24" color-interpolation-filters="sRGB"><feGaussianBlur stdDeviation="14.99482"/></filter><linearGradient id="be" x1="227.32" x2="227.32" y1="463.47" y2="465.36" gradientTransform="matrix(2.273 0 0 1.9138 -154.1 -406.76)" gradientUnits="userSpaceOnUse" xlink:href="#b" spreadMethod="reflect"/><linearGradient id="bd" x1="227.54" x2="227.54" y1="437.87" y2="471.88" gradientTransform="matrix(2.273 0 0 1.9138 -154.1 -406.76)" gradientUnits="userSpaceOnUse" xlink:href="#b" spreadMethod="reflect"/><linearGradient id="bc" x1="240.6" x2="232.72" y1="439.55" y2="439.55" gradientTransform="matrix(4.5765 0 0 1.9138 -698.45 -406.76)" gradientUnits="userSpaceOnUse" xlink:href="#b" spreadMethod="reflect"/><linearGradient id="bb" x1="71.556" x2="151.44" y1="477.94" y2="431.81" gradientTransform="matrix(2.591 0 0 2.3506 -223.94 -605.45)" gradientUnits="userSpaceOnUse" xlink:href="#b" spreadMethod="reflect"/><radialGradient id="t" cx="111.5" cy="454.88" r="108.88" gradientTransform="matrix(1.9178 0 0 1.8294 -148.89 -368.36)" gradientUnits="userSpaceOnUse" xlink:href="#b" spreadMethod="reflect"/><linearGradient id="ba" x1="-20.85" x2="268.17" y1="810.07" y2="43.076" gradientUnits="userSpaceOnUse" xlink:href="#a" spreadMethod="reflect"/><linearGradient id="az" x1="52.483" x2="74.423" y1="270.07" y2="270.07" gradientUnits="userSpaceOnUse" xlink:href="#b"/><linearGradient id="ay" x1="52.483" x2="74.423" y1="270.07" y2="270.07" gradientUnits="userSpaceOnUse" xlink:href="#a"/><linearGradient id="ax" x1="144.95" x2="175.27" y1="294.38" y2="294.38" gradientUnits="userSpaceOnUse" xlink:href="#b"/><linearGradient id="aw" x1="144.95" x2="175.27" y1="294.38" y2="294.38" gradientUnits="userSpaceOnUse" xlink:href="#a"/><linearGradient id="av" x1="-46.704" x2="-16.298" y1="294.92" y2="294.92" gradientUnits="userSpaceOnUse" xlink:href="#b"/><linearGradient id="au" x1="-46.704" x2="-16.298" y1="294.92" y2="294.92" gradientUnits="userSpaceOnUse" xlink:href="#a"/><linearGradient id="at" x1="-122.59" x2="-84.202" y1="364.92" y2="364.92" gradientUnits="userSpaceOnUse" xlink:href="#b"/><linearGradient id="as" x1="-122.59" x2="-84.202" y1="364.92" y2="364.92" gradientUnits="userSpaceOnUse" xlink:href="#a"/><linearGradient id="ar" x1="215.06" x2="252.53" y1="366.8" y2="366.8" gradientUnits="userSpaceOnUse" xlink:href="#b"/><linearGradient id="aq" x1="215.06" x2="252.53" y1="366.8" y2="366.8" gradientUnits="userSpaceOnUse" xlink:href="#a"/><linearGradient id="ap" x1="239.83" x2="276.53" y1="461.19" y2="461.19" gradientUnits="userSpaceOnUse" xlink:href="#b"/><linearGradient id="ao" x1="239.83" x2="276.53" y1="461.19" y2="461.19" gradientUnits="userSpaceOnUse" xlink:href="#a"/><linearGradient id="an" x1="-146.12" x2="-109.95" y1="462.66" y2="462.66" gradientUnits="userSpaceOnUse" xlink:href="#b"/><linearGradient id="am" x1="-146.12" x2="-109.95" y1="462.66" y2="462.66" gradientUnits="userSpaceOnUse" xlink:href="#a"/><linearGradient id="al" x1="216.19" x2="252.32" y1="558.42" y2="558.42" gradientUnits="userSpaceOnUse" xlink:href="#b"/><linearGradient id="ak" x1="216.19" x2="252.32" y1="558.42" y2="558.42" gradientUnits="userSpaceOnUse" xlink:href="#a"/><linearGradient id="aj" x1="-122.26" x2="-85.359" y1="560.34" y2="560.34" gradientUnits="userSpaceOnUse" xlink:href="#b"/><linearGradient id="ai" x1="-122.26" x2="-85.359" y1="560.34" y2="560.34" gradientUnits="userSpaceOnUse" xlink:href="#a"/><linearGradient id="ah" x1="-46.648" x2="-18.136" y1="629.83" y2="629.83" gradientUnits="userSpaceOnUse" xlink:href="#b"/><linearGradient id="ag" x1="-46.648" x2="-18.136" y1="629.83" y2="629.83" gradientUnits="userSpaceOnUse" xlink:href="#a"/><linearGradient id="af" x1="145.65" x2="175.27" y1="632.43" y2="632.43" gradientUnits="userSpaceOnUse" xlink:href="#b"/><linearGradient id="ae" x1="145.65" x2="175.27" y1="632.43" y2="632.43" gradientUnits="userSpaceOnUse" xlink:href="#a"/><linearGradient id="ad" x1="52.545" x2="74.486" y1="657.61" y2="657.61" gradientUnits="userSpaceOnUse" xlink:href="#b"/><linearGradient id="ac" x1="52.545" x2="74.486" y1="657.61" y2="657.61" gradientUnits="userSpaceOnUse" xlink:href="#a"/><linearGradient id="ab" x1="180.31" x2="260.7" y1="455.96" y2="463.03" gradientUnits="userSpaceOnUse" xlink:href="#a" spreadMethod="reflect"/><linearGradient id="aa" x1="-133.23" x2="261.7" y1="463.03" y2="463.03" gradientUnits="userSpaceOnUse" xlink:href="#a" spreadMethod="reflect"/><linearGradient id="z" x1="35.426" x2="91.318" y1="407.78" y2="414.15" gradientUnits="userSpaceOnUse" xlink:href="#b"/><linearGradient id="y" x1="189.62" x2="186.09" y1="367.61" y2="482.95" gradientUnits="userSpaceOnUse" xlink:href="#b"/><radialGradient id="s" cx="63.5" cy="461.36" r="10.5" gradientTransform="matrix(1.7373 0 0 1.7373 -46.817 -340.15)" gradientUnits="userSpaceOnUse" xlink:href="#b"/><linearGradient id="x" x1="-20.474" x2="85.474" y1="426.06" y2="464.66" gradientUnits="userSpaceOnUse" xlink:href="#b"/><linearGradient id="w" x1="-156.57" x2="379.57" y1="300.1" y2="609.65" gradientTransform="matrix(2.591 0 0 2.591 -223.94 -714.77)" gradientUnits="userSpaceOnUse" xlink:href="#b"/><linearGradient id="v" x1="96.905" x2="126.1" y1="509.34" y2="400.41" gradientTransform="matrix(2.3849 0 0 2.3849 -200.97 -621.05)" gradientUnits="userSpaceOnUse" xlink:href="#b" spreadMethod="reflect"/><radialGradient id="r" cx="64.953" cy="812.73" r="123.07" gradientTransform="matrix(1 0 0 .041815 0 775.74)" gradientUnits="userSpaceOnUse" xlink:href="#a"/><radialGradient id="q" cx="64.953" cy="802.73" r="131.08" gradientTransform="matrix(1 0 0 .056656 0 756)" gradientUnits="userSpaceOnUse" xlink:href="#a"/><radialGradient id="p" cx="64.953" cy="792.73" r="139.09" gradientTransform="matrix(1 0 0 .066192 0 740.25)" gradientUnits="userSpaceOnUse" xlink:href="#a"/><radialGradient id="o" cx="64.953" cy="782.73" r="147.1" gradientTransform="matrix(1 0 0 .066192 0 730.92)" gradientUnits="userSpaceOnUse" xlink:href="#a"/><radialGradient id="n" cx="64.953" cy="772.73" r="155.12" gradientTransform="matrix(1 0 0 .066192 0 721.58)" gradientUnits="userSpaceOnUse" xlink:href="#a"/><radialGradient id="m" cx="64.953" cy="762.73" r="163.13" gradientTransform="matrix(1 0 0 .066192 0 712.24)" gradientUnits="userSpaceOnUse" xlink:href="#a"/><radialGradient id="l" cx="64.953" cy="752.73" r="171.14" gradientTransform="matrix(1 0 0 .066192 0 702.9)" gradientUnits="userSpaceOnUse" xlink:href="#a"/><radialGradient id="k" cx="64.953" cy="104.86" r="115.06" gradientTransform="matrix(1 0 0 .030372 0 105.8)" gradientUnits="userSpaceOnUse" xlink:href="#a"/><radialGradient id="j" cx="64.953" cy="114.86" r="123.07" gradientTransform="matrix(1 0 0 .055194 0 109.87)" gradientUnits="userSpaceOnUse" xlink:href="#a"/><radialGradient id="i" cx="64.953" cy="124.86" r="131.08" gradientTransform="matrix(1 0 0 .066192 0 116.59)" gradientUnits="userSpaceOnUse" xlink:href="#a"/><radialGradient id="h" cx="64.953" cy="134.86" r="139.09" gradientTransform="matrix(1 0 0 .066192 0 125.93)" gradientUnits="userSpaceOnUse" xlink:href="#a"/><radialGradient id="g" cx="64.953" cy="144.86" r="147.1" gradientTransform="matrix(1 0 0 .066192 0 135.27)" gradientUnits="userSpaceOnUse" xlink:href="#a"/><radialGradient id="f" cx="64.953" cy="154.86" r="155.12" gradientTransform="matrix(1 0 0 .066192 0 144.61)" gradientUnits="userSpaceOnUse" xlink:href="#a"/><radialGradient id="e" cx="64.953" cy="164.86" r="163.13" gradientTransform="matrix(1 0 0 .066192 0 153.95)" gradientUnits="userSpaceOnUse" xlink:href="#a"/><radialGradient id="d" cx="64.953" cy="174.86" r="171.14" gradientTransform="matrix(1 0 0 .066192 0 163.29)" gradientUnits="userSpaceOnUse" xlink:href="#a"/><radialGradient id="c" cx="57.579" cy="405.86" r="132.33" gradientTransform="matrix(1.1125 0 0 .99482 -6.4781 2.1005)" gradientUnits="userSpaceOnUse" spreadMethod="reflect"><stop stop-color="#fff" stop-opacity="0" offset="0"/><stop stop-color="#fff" stop-opacity="0" offset=".77741"/><stop stop-color="#fff" stop-opacity=".72157" offset=".96042"/><stop stop-color="#fff" offset="1"/></radialGradient><linearGradient id="u" x1="232.72" x2="232.72" y1="470.2" y2="439.55" gradientTransform="matrix(4.033 0 0 1.6865 -571.01 -303.38)" gradientUnits="userSpaceOnUse" xlink:href="#b" spreadMethod="reflect"/><filter id="bh" x="-.10411" y="-.10411" width="1.2082" height="1.2082"><feGaussianBlur stdDeviation="7.2701683"/></filter><filter id="bg"><feGaussianBlur stdDeviation="0.87948187"/></filter><filter id="bf"><feGaussianBlur stdDeviation="0.73580655"/></filter></defs><g transform="translate(262.65 -38.239)"><g transform="translate(14.744 20.368)"><g transform="matrix(1.0223 0 0 1.0223 -9.1767 -52.589)"><g><path d="m343.15 419.33v88.922h20.347c10.801 0 19.525-7.3128 19.525-16.407v-56.108c0-9.0946-8.7241-16.407-19.525-16.407h-20.347z" color="#000000" fill="url(#be)"/><path d="m343.15 419.33v88.922h20.347c10.801 0 19.525-7.3128 19.525-16.407v-56.108c0-9.0946-8.7241-16.407-19.525-16.407h-20.347z" color="#000000" fill="url(#bd)" opacity=".66977"/><path d="m366.19 419.35v88.874h0.78939c8.9074 0 16.052-7.2926 16.052-16.387v-56.099c0-9.0946-7.1442-16.387-16.052-16.387h-0.78939z" color="#000000" fill="url(#bc)"/><path d="m-106.78 170.37c-70.005 66.72-115.53 173.17-116.25 293.42 0.7414 120.2 46.273 226.69 116.25 293.42 5.1787-9.45 15.032-15.825 26.381-15.825h290.7c11.349 0 21.202 6.375 26.381 15.825 69.974-66.726 115.51-173.22 116.25-293.42-0.7205-120.25-46.242-226.7-116.25-293.42-5.1787 9.45-15.032 15.825-26.381 15.825h-290.7c-11.349 0-21.202-6.375-26.381-15.825z" color="#000000" fill="url(#bb)"/><rect x="-213.04" y="198.62" width="555.98" height="530.34" rx="159.92" ry="265.17" color="#000000" fill="url(#t)"/><path transform="matrix(1.8956 0 0 1.8956 -44.199 -305.57)" d="m189.91 405.86a132.33 132.33 0 0 1-132.33 132.33 132.33 132.33 0 0 1-132.33-132.33 132.33 132.33 0 0 1 132.33-132.33 132.33 132.33 0 0 1 132.33 132.33z" color="#000000" fill="url(#ba)"/></g><g stroke-linecap="round" stroke-linejoin="round" stroke-width="3"><path d="m63.327 252.75a9.2315 9.2315 0 0 0-9.2188 9.1562v0.28125l-0.125 15.875a9.2315 9.2315 0 0 0 9.3125 9.3125c-0.0165 2e-4 0.13533 2e-3 0.4375 0a9.2315 9.2315 0 0 0 9.1875-9.4375l-0.34375-15.875v-0.28125a9.2315 9.2315 0 0 0-9.25-9.0312z" color="#000000" fill="url(#az)" stroke="url(#ay)" style="block-progression:tb;text-indent:0;text-transform:none"/><path d="m164.17 277.41a9.2315 9.2315 0 0 0-7.5938 4.5312l-8.875 15.25a9.2315 9.2315 0 0 0 3.4688 12.688c0.0584 0.0328 0.18449 0.13814 0.4375 0.28125a9.2315 9.2315 0 0 0 12.688-3.6562l8.125-15.031 0.125-0.21875 0.125-0.25a9.2315 9.2315 0 0 0-8.5-13.594z" color="#000000" fill="url(#ax)" stroke="url(#aw)" style="block-progression:tb;text-indent:0;text-transform:none"/><path d="m-36.36 277.94a9.2315 9.2315 0 0 0-8.8125 8.4688 9.2315 9.2315 0 0 0 1.1562 5.2812 9.2315 9.2315 0 0 0 0.0625 0.125l0.21875 0.40625 8.4688 15a9.2315 9.2315 0 0 0 12.625 3.4688c0.1241-0.0712 0.08863-0.068 0.1875-0.125a9.2315 9.2315 0 0 0 3.4062-12.656l-8.6562-14.875-0.21875-0.40625a9.2315 9.2315 0 0 0-0.0625-0.0937 9.2315 9.2315 0 0 0-8.375-4.5938z" color="#000000" fill="url(#av)" stroke="url(#au)" style="block-progression:tb;text-indent:0;text-transform:none"/><path d="m-111.77 350.69a9.2315 9.2315 0 0 0-4.875 17.125l16.656 10a9.2315 9.2315 0 0 0 12.719-3.2188c0.2177-0.37056 0.31661-0.52854 0.28125-0.46875a9.2315 9.2315 0 0 0-3.4375-12.75l-16.281-9.1562-0.40625-0.25-0.25-0.125a9.2315 9.2315 0 0 0-4.4062-1.1562z" color="#000000" fill="url(#at)" stroke="url(#as)" style="block-progression:tb;text-indent:0;text-transform:none"/><path d="m241.8 352.91a9.2315 9.2315 0 0 0-4.4688 1.1562l-0.21875 0.125-15.812 8.7812a9.2315 9.2315 0 0 0-3.5 12.688c-0.47789-0.82446-0.43507-0.67644 0.1875 0.40625a9.2315 9.2315 0 0 0 12.688 3.3438l15.594-9.1875 0.21875-0.125a9.2315 9.2315 0 0 0-4.6875-17.188z" color="#000000" fill="url(#ar)" stroke="url(#aq)" style="block-progression:tb;text-indent:0;text-transform:none"/><path d="m250.55 451.82a9.2315 9.2315 0 0 0-9.2188 9.3125c-6.6e-4 -0.0731-2e-3 0.0215 0 0.28125a9.2315 9.2315 0 0 0 9.4062 9.1562l14.969-0.28125h0.1875a9.2349 9.2349 0 1 0-0.1875-18.469h-0.15625-15z" color="#000000" fill="url(#ap)" stroke="url(#ao)" style="block-progression:tb;text-indent:0;text-transform:none"/><path d="m-120.74 453.29-14.938 0.0937h-0.15625a9.2315 9.2315 0 0 0-0.0937 18.438h0.1875l14.906 0.21875a9.2315 9.2315 0 0 0 9.375-9.1875c1e-3 -0.20001 1.5e-4 -0.27182 0-0.25a9.2315 9.2315 0 0 0 0-0.0625 9.2315 9.2315 0 0 0-9.2812-9.25z" color="#000000" fill="url(#an)" stroke="url(#am)" style="block-progression:tb;text-indent:0;text-transform:none"/><path d="m227.14 544.91a9.2315 9.2315 0 0 0-8.0625 4.75 9.2315 9.2315 0 0 0-0.1875 0.3125c-0.0297 0.0525 4e-3 -0.0324-0.0312 0.0312a9.2315 9.2315 0 0 0 3.5625 12.562l14.344 8.0312 0.34375 0.1875 0.1875 0.0937a9.2315 9.2315 0 0 0 9.1875-16l-0.1875-0.0937-14.125-8.3438a9.2315 9.2315 0 0 0-0.34375-0.21875 9.2315 9.2315 0 0 0-4.6875-1.3125z" color="#000000" fill="url(#al)" stroke="url(#ak)" style="block-progression:tb;text-indent:0;text-transform:none"/><path d="m-96.298 546.63a9.2315 9.2315 0 0 0-4.6562 1.25l-14.938 8.8125-0.46875 0.25-0.1875 0.125a9.2315 9.2315 0 0 0 9.1562 16l0.1875-0.0937 0.375-0.21875 15.25-8.5a9.2315 9.2315 0 0 0 3.5625-12.531 9.2315 9.2315 0 0 0-0.0625-0.125c-0.24617-0.42793-0.30385-0.54714-0.1875-0.34375h-0.03125a9.2315 9.2315 0 0 0-8-4.625z" color="#000000" fill="url(#aj)" stroke="url(#ai)" style="block-progression:tb;text-indent:0;text-transform:none"/><path d="m-29.048 614.63a9.2315 9.2315 0 0 0-8.0312 4.625l-6.8125 11.906-0.09375 0.15625a9.2315 9.2315 0 0 0 15.938 9.3125l0.09375-0.125 0.40625-0.71875 6.625-11.062a9.2315 9.2315 0 0 0-1.5-11.312 9.2315 9.2315 0 0 0-0.6875-0.625 9.2315 9.2315 0 0 0-0.46875-0.375 9.2315 9.2315 0 0 0-0.0625-0.0312 9.2315 9.2315 0 0 0-0.53125-0.34375c-0.1045-0.0623-0.07412-0.0716-0.21875-0.15625a9.2315 9.2315 0 0 0-4.6562-1.25z" color="#000000" fill="url(#ah)" stroke="url(#ag)" style="block-progression:tb;text-indent:0;text-transform:none"/><path d="m156.45 615.88a9.2315 9.2315 0 0 0-4.3125 1.2188c-0.47984 0.27417-0.57198 0.33475-0.3125 0.1875a9.2315 9.2315 0 0 0-3.4688 12.594l8.0625 14.25 0.0937 0.1875a9.2315 9.2315 0 0 0 16.188-8.875l-0.0937-0.1875-0.0937-0.1875-7.625-14.312h-0.0312a9.2315 9.2315 0 0 0-8.4062-4.875z" color="#000000" fill="url(#af)" stroke="url(#ae)" style="block-progression:tb;text-indent:0;text-transform:none"/><path d="m63.265 640.22a9.2315 9.2315 0 0 0-9.2188 9.3125l0.125 15.875v0.28125a9.2346 9.2346 0 1 0 18.469 0.125v-0.28125l0.34375-15.875a9.2315 9.2315 0 0 0-9.1875-9.4375c-0.30219-2e-3 -0.4227-2e-4 -0.40625 0a9.2315 9.2315 0 0 0-0.125 0z" color="#000000" fill="url(#ad)" stroke="url(#ac)" style="block-progression:tb;text-indent:0;text-transform:none"/></g><g><path d="m113.78 265.62a4.4702 4.4702 0 0 0-4.1875 3.2812v0.0313a4.4702 4.4702 0 0 0-0.0313 0.125l-8.1875 30.094a4.4702 4.4702 0 0 0 3.1875 5.5c0.67878 0.17274 1.0249 0.2171 1.0312 0.21875a4.4702 4.4702 0 0 0 5.5-3.3125l7.1875-30.469h-0.0313a4.4702 4.4702 0 0 0 0.125-1.0312 4.4702 4.4702 0 0 0-4.5938-4.4375zm-101.22 2.3438a4.4702 4.4702 0 0 0-4.5625 4.4688 4.4702 4.4702 0 0 0 0.15625 1.125 4.4702 4.4702 0 0 0 0.03125 0.125v0.0313l7.4688 28.875a4.4702 4.4702 0 0 0 5.5312 3.1875c0.24355-0.0686 0.51415-0.16776 0.8125-0.25a4.4702 4.4702 0 0 0 3.0938-5.5313l-8.25-28.562-0.03125-0.125a4.4702 4.4702 0 0 0-0.03125-0.0937 4.4702 4.4702 0 0 0-4.2188-3.25zm-87.312 49.281a4.4702 4.4702 0 0 0-3.125 7.5625l0.0625 0.0625 21.875 22.469a4.4702 4.4702 0 0 0 6.375 0.0313c0.12561-0.12616 0.24277-0.21175 0.3125-0.28125a4.4702 4.4702 0 0 0 0-6.3438l-22.25-22.219a4.4702 4.4702 0 0 0-3.25-1.2812zm280.12 0.53125a4.4702 4.4702 0 0 0-2.8125 1.25l-0.0937 0.0937-22.75 22.219a4.4702 4.4702 0 0 0-0.0625 6.3438c0.20805 0.20963 0.40906 0.40558 0.59375 0.59375a4.4702 4.4702 0 0 0 6.4062-0.0313l21.625-22.312 0.53125-0.5 0.0625-0.0937a4.4702 4.4702 0 0 0-3.5-7.5625zm47.719 87.812a4.4702 4.4702 0 0 0-1.1562 0.15625l-0.0625 0.0313-27.688 7.4375a4.4702 4.4702 0 0 0-3.1562 5.5312c0.1539 0.5492 0.2235 0.70863 0.15625 0.46875a4.4702 4.4702 0 0 0 5.5312 3.0938l26.844-7.75 0.71875-0.1875 0.0625-0.0313a4.4702 4.4702 0 0 0-1.25-8.75zm-380.94 0.0625a4.4702 4.4702 0 0 0-4.375 4.125 4.4702 4.4702 0 0 0 3.2188 4.6562 4.4702 4.4702 0 0 0 0.125 0.0313l31.562 9.125a4.4702 4.4702 0 0 0 5.5625-3.125c0.13606-0.50337 0.19508-0.82062 0.21875-0.90625a4.4702 4.4702 0 0 0-3.1875-5.5l-31.781-8.2188h-0.0313a4.4702 4.4702 0 0 0-0.125-0.0313 4.4702 4.4702 0 0 0-1.1875-0.15625zm354.69 94.469a4.4702 4.4702 0 0 0-4.3125 3.4062h-0.0313c-0.0488 0.198-0.0393 0.17185-0.0625 0.28125a4.4702 4.4702 0 0 0 0 0.0625c-0.0204 0.10016-0.0646 0.3208-0.0625 0.3125a4.4702 4.4702 0 0 0 3.2188 5.4375l29.469 7.5938 0.0937 0.0313a4.4702 4.4702 0 0 0 2.3438-8.625l-0.0937-0.0313-0.1875-0.0625-28.562-8.0312a4.4702 4.4702 0 0 0-0.25-0.0937l-0.1875-0.0625a4.4702 4.4702 0 0 0-0.15625-0.0313 4.4702 4.4702 0 0 0-1.2188-0.1875zm-323.88 1.625a4.4702 4.4702 0 0 0-0.8125 0.15625l-27.781 7.625a4.4759 4.4759 0 1 0 2.2812 8.6562l0.0937-0.0313 27.844-7.0938a4.4702 4.4702 0 0 0 3.2188-5.4375c-0.09579-0.36738-0.16084-0.54907-0.15625-0.53125a4.4702 4.4702 0 0 0-4.6875-3.3438zm43.312 75.969a4.4702 4.4702 0 0 0-3.1875 1.3438l-21.625 22.156-0.6875 0.6875-0.0625 0.0937a4.4702 4.4702 0 0 0 6.3125 6.2812l0.0625-0.0625 22.781-22.375a4.4702 4.4702 0 0 0 0.0625-6.3437c-0.169-0.1711-0.31194-0.30933-0.4375-0.4375a4.4702 4.4702 0 0 0-3.2188-1.3438zm236.12 1.2188a4.4702 4.4702 0 0 0-3.2812 1.3125c-0.24035 0.24066-0.41022 0.44304-0.5625 0.59375a4.4702 4.4702 0 0 0-0.0625 6.3125l21.188 21.594 0.0625 0.0937a4.4702 4.4702 0 0 0 6.4688-6.1562l-0.0625-0.0937-0.40625-0.4375-20.156-21.781a4.4702 4.4702 0 0 0-3.1875-1.4375zm-162.19 42.719a4.4702 4.4702 0 0 0-4.1875 3.3125 4.4702 4.4702 0 0 0-0.0625 0.1875l-7.0312 26.781-0.03125 0.0625a4.4702 4.4702 0 0 0 8.625 2.3438l0.03125-0.0625 0.1875-0.71875 7.3438-26.094a4.4702 4.4702 0 0 0-3.0938-5.5312c0.32295 0.0887 0.15374 0.0482-0.46875-0.125a4.4702 4.4702 0 0 0-1.3125-0.15625zm86.594 0.6875a4.4702 4.4702 0 0 0-0.84375 0.15625v-0.0313c-0.39057 0.10285-0.66217 0.18007-0.8125 0.21875a4.4702 4.4702 0 0 0-3.1875 5.5312l7.9062 28.875 0.0313 0.125a4.4702 4.4702 0 0 0 8.6562-2.2187l-0.0313-0.125-7.0625-29.125a4.4702 4.4702 0 0 0-4.6562-3.4062z" color="#000000" fill="url(#ab)" stroke="url(#aa)" stroke-width="2" style="block-progression:tb;text-indent:0;text-transform:none"/><path d="m79 346.56a5.1824 5.1824 0 0 0-4.875 4.25l-0.0625 0.4375-19.969 111.75a5.1824 5.1824 0 0 0 4.4062 6.0312l9.9062 1.3438a5.1824 5.1824 0 0 0 5.8438-4.6875l10.125-113.5a5.1824 5.1824 0 0 0-5.375-5.625z" color="#000000" fill="url(#z)" fill-rule="evenodd" style="block-progression:tb;text-indent:0;text-transform:none"/><path d="m64.219 436.91c-14.374 0-26.062 11.806-26.062 26.156 0 14.35 11.688 26.156 26.062 26.156 7.7175 0 14.561-3.5361 19.344-8.875l202.34-12.094a5.1875 5.1875 0 0 0 0-10.375l-202.34-12.094c-4.7825-5.3389-11.626-8.875-19.344-8.875z" color="#000000" fill="url(#y)" fill-rule="evenodd" style="block-progression:tb;text-indent:0;text-transform:none"/><path transform="matrix(1.4762 0 0 1.4762 -28.79 -217.27)" d="m74 461.36a10.5 10.5 0 0 1-10.5 10.5 10.5 10.5 0 0 1-10.5-10.5 10.5 10.5 0 0 1 10.5-10.5 10.5 10.5 0 0 1 10.5 10.5z" color="#000000" fill="url(#s)"/><path transform="translate(1.4479 2.4285)" d="m74 461.36a10.5 10.5 0 0 1-10.5 10.5 10.5 10.5 0 0 1-10.5-10.5 10.5 10.5 0 0 1 10.5-10.5 10.5 10.5 0 0 1 10.5 10.5z" color="#000000" fill="url(#x)"/><g><path d="m64.948 199.34c-146.07 0-264.45 118.38-264.45 264.45 0 146.07 118.38 264.45 264.45 264.45 146.07 0 264.45-118.38 264.45-264.45 0-146.07-118.38-264.45-264.45-264.45zm0 21.316c134.26 0 243.14 108.88 243.14 243.14 0 134.26-108.88 243.14-243.14 243.14-134.26 0-243.14-108.88-243.14-243.14 0-134.26 108.88-243.14 243.14-243.14z" color="#000000" fill="url(#w)"/><path d="m64.948 206.74c-141.98 0-257.05 115.07-257.05 257.05 0 141.98 115.07 257.05 257.05 257.05 141.98 0 257.05-115.07 257.05-257.05 0-141.98-115.07-257.05-257.05-257.05zm0 20.719c130.5 0 236.33 105.83 236.33 236.33 0 130.5-105.83 236.33-236.33 236.33s-236.33-105.83-236.33-236.33c0-130.5 105.83-236.33 236.33-236.33z" color="#000000" fill="url(#v)"/><path d="m-80.031 163.53c-12.173 0-22.457 3.2661-26.156 7.8125 5.3109 8.901 14.834 14.844 25.781 14.844h290.72c10.937 0 20.468-5.9243 25.781-14.812-3.675-4.5643-13.952-7.8438-26.156-7.8438h-289.97z" color="#000000" fill="#ffd5d5"/><path d="m-80.031 764.06c-12.173 0-22.457-3.2661-26.156-7.8125 5.3109-8.901 14.834-14.844 25.781-14.844h290.72c10.937 0 20.468 5.9243 25.781 14.812-3.675 4.5643-13.952 7.8438-26.156 7.8438h-289.97z" color="#000000" fill="#ffd5d5"/><path d="m-106.78 170.38c-1.6779 1.5992-3.3505 3.2305-5 4.875 5.8158 6.7003 14.254 10.938 23.719 10.938h7.6562c-11.349 0-21.196-6.3625-26.375-15.812zm343.47 0c-5.1787 9.45-15.026 15.812-26.375 15.812h7.625c9.4565 0 17.931-4.2184 23.75-10.906-1.6598-1.6552-3.3115-3.297-5-4.9062z" color="#000000"/><path d="m-88.062 740.22c-9.7688 0-18.455 4.4847-24.281 11.562 1.8345 1.8393 3.6927 3.6545 5.5625 5.4375 5.1787-9.45 15.026-15.844 26.375-15.844h290.72c11.349 0 21.196 6.3937 26.375 15.844 1.8682-1.7815 3.6983-3.5998 5.5312-5.4375-5.8292-7.0722-14.515-11.562-24.281-11.562h-306z" color="#000000"/></g><path d="m-39.306 814.87c-8.7539 0-16.149-1.4838-18.809-3.5491 7.6e-5 -7e-5 1.52e-4 -1.5e-4 2.28e-4 -2.4e-4 3.8191-4.0434 10.667-6.743 18.539-6.743h2.08e-4 209.06 2.5e-4c7.8651 5e-5 14.718 2.6914 18.539 6.729-1e-4 9e-5 -2.1e-4 1.6e-4 -3.1e-4 2.5e-4 -2.643 2.0733-10.033 3.563-18.809 3.563h-2.1e-4 -208.52" color="#000000" fill="url(#r)"/><path d="m-46.094 808.9c-9.3238 0-17.201-2.1412-20.034-5.1217 6.3e-5 -9e-5 1.26e-4 -1.8e-4 1.9e-4 -2.7e-4 4.0677-5.8352 11.362-9.731 19.746-9.731h3.12e-4 222.67 3.7e-4c8.377 1.2e-4 15.676 3.8839 19.746 9.7108-9e-5 9e-5 -1.7e-4 1.9e-4 -2.6e-4 2.7e-4 -2.815 2.9921-10.687 5.1419-20.033 5.1419h-3.1e-4 -222.09" color="#000000" fill="url(#q)"/><path d="m-52.881 801.93c-9.8936 0-18.252-2.6545-21.258-6.3495 5.1e-5 -8e-5 1.01e-4 -1.7e-4 1.52e-4 -2.5e-4 4.3164-7.2341 12.056-12.064 20.953-12.064h4.16e-4 236.28 5.1e-4c8.889 1.8e-4 16.634 4.815 20.953 12.039-7e-5 9e-5 -1.4e-4 1.7e-4 -2.1e-4 2.6e-4 -2.987 3.7094-11.34 6.3747-21.258 6.3747h-4.1e-4 -235.67" color="#000000" fill="url(#p)"/><path d="m-59.669 792.46c-10.464 0-19.303-2.8074-22.483-6.7153 3.8e-5 -6e-5 7.6e-5 -1.2e-4 1.14e-4 -1.9e-4 4.565-7.6508 12.751-12.759 22.16-12.759h5.2e-4 249.89 6.3e-4c9.401 2.3e-4 17.593 5.0924 22.16 12.732-6e-5 7e-5 -1.1e-4 1.3e-4 -1.6e-4 2e-4 -3.159 3.9231-11.993 6.7419-22.483 6.7419h-5.2e-4 -249.24" color="#000000" fill="url(#o)"/><path d="m-66.456 782.99c-11.033 0-20.355-2.9603-23.707-7.081 2.5e-5 -4e-5 5.1e-5 -8e-5 7.6e-5 -1.3e-4 4.8136-8.0676 13.445-13.454 23.367-13.454h6.23e-4 263.5 7.5e-4c9.913 2.7e-4 18.551 5.3698 23.367 13.426-3e-5 5e-5 -7e-5 9e-5 -1e-4 1.4e-4 -3.331 4.1368-12.646 7.1092-23.707 7.1092h-6.2e-4 -262.82" color="#000000" fill="url(#n)"/><path d="m-73.244 773.52c-11.603 0-21.406-3.1132-24.932-7.4468 1.3e-5 -2e-5 2.6e-5 -4e-5 3.9e-5 -6e-5 5.0622-8.4843 14.14-14.149 24.574-14.149h7.28e-4 277.11 8.8e-4c10.425 3.2e-4 19.509 5.6472 24.573 14.119-2e-5 2e-5 -3e-5 4e-5 -5e-5 6e-5 -3.503 4.3506-13.299 7.4765-24.932 7.4765h-7.3e-4 -276.39" color="#000000" fill="url(#m)"/><path d="m-80.031 764.06c-12.173 0-22.457-3.2661-26.156-7.8125 5.3109-8.901 14.834-14.844 25.781-14.844h8.31e-4 290.72 1e-3c10.937 3.6e-4 20.467 5.9246 25.78 14.812-3.675 4.5643-13.952 7.8438-26.156 7.8438h-8.3e-4 -289.97" color="#000000" fill="url(#l)"/><path d="m-32.519 105.49c-8.184 0-15.098 1.0075-17.585 2.41 8.9e-5 6e-5 1.78e-4 1.3e-4 2.67e-4 2e-4 3.5705 2.7457 9.9729 4.5788 17.332 4.5788h1.04e-4 195.45 1.2e-4c7.3531-3e-5 13.76-1.8275 17.332-4.5694-1.3e-4 -7e-5 -2.5e-4 -1.5e-4 -3.7e-4 -2.1e-4 -2.471-1.4079-9.3802-2.4194-17.584-2.4194h-1e-4 -194.94" color="#000000" fill="url(#k)"/><path d="m-39.306 109.42c-8.7539 0-16.149 1.9584-18.809 4.6845 7.6e-5 1.1e-4 1.52e-4 2.1e-4 2.28e-4 3.2e-4 3.8191 5.3371 10.667 8.9003 18.539 8.9003h2.08e-4 209.06 2.5e-4c7.8651-8e-5 14.718-3.5524 18.539-8.8819-1e-4 -1.2e-4 -2.1e-4 -2.3e-4 -3.1e-4 -3.4e-4 -2.643-2.7367-10.033-4.703-18.809-4.703h-2.1e-4 -208.52" color="#000000" fill="url(#j)"/><path d="m-46.094 116.18c-9.3238 0-17.201 2.5016-20.034 5.9838 6.3e-5 1.1e-4 1.26e-4 2.2e-4 1.9e-4 3.2e-4 4.0677 6.8174 11.362 11.369 19.746 11.369h3.12e-4 222.67 3.7e-4c8.377-1.4e-4 15.676-4.5377 19.746-11.345-9e-5 -1.1e-4 -1.7e-4 -2.2e-4 -2.6e-4 -3.2e-4 -2.815-3.4957-10.687-6.0074-20.033-6.0074h-3.1e-4 -222.09" color="#000000" fill="url(#i)"/><path d="m-52.881 125.65c-9.8936 0-18.252 2.6545-21.258 6.3495 5.1e-5 8e-5 1.01e-4 1.7e-4 1.52e-4 2.5e-4 4.3164 7.2341 12.056 12.064 20.953 12.064h4.16e-4 236.28 5.1e-4c8.889-1.8e-4 16.634-4.815 20.953-12.039-7e-5 -9e-5 -1.4e-4 -1.7e-4 -2.1e-4 -2.6e-4 -2.987-3.7094-11.34-6.3747-21.258-6.3747h-4.1e-4 -235.67" color="#000000" fill="url(#h)"/><path d="m-59.669 135.12c-10.464 0-19.303 2.8074-22.483 6.7153 3.8e-5 7e-5 7.6e-5 1.3e-4 1.14e-4 2e-4 4.565 7.6508 12.751 12.759 22.16 12.759h5.2e-4 249.89 6.3e-4c9.401-2.3e-4 17.593-5.0924 22.16-12.732-6e-5 -7e-5 -1.1e-4 -1.3e-4 -1.6e-4 -2e-4 -3.159-3.9231-11.993-6.7419-22.483-6.7419h-5.2e-4 -249.24" color="#000000" fill="url(#g)"/><path d="m-66.456 144.59c-11.033 0-20.355 2.9603-23.707 7.081 2.5e-5 4e-5 5.1e-5 8e-5 7.6e-5 1.3e-4 4.8136 8.0676 13.445 13.454 23.367 13.454h6.23e-4 263.5 7.5e-4c9.913-2.7e-4 18.551-5.3698 23.367-13.426-3e-5 -4e-5 -7e-5 -8e-5 -1e-4 -1.3e-4 -3.331-4.1368-12.646-7.1092-23.707-7.1092h-6.2e-4 -262.82" color="#000000" fill="url(#f)"/><path d="m-73.244 154.06c-11.603 0-21.406 3.1132-24.932 7.4468 1.3e-5 3e-5 2.6e-5 5e-5 3.9e-5 7e-5 5.0622 8.4843 14.14 14.149 24.574 14.149h7.28e-4 277.11 8.8e-4c10.425-3.2e-4 19.509-5.6472 24.573-14.119-2e-5 -2e-5 -3e-5 -4e-5 -5e-5 -6e-5 -3.503-4.3506-13.299-7.4765-24.932-7.4765h-7.3e-4 -276.39" color="#000000" fill="url(#e)"/><path d="m-80.031 163.53c-12.173 0-22.457 3.2661-26.156 7.8125 5.3109 8.901 14.834 14.844 25.781 14.844h8.31e-4 290.72 1e-3c10.937-3.6e-4 20.467-5.9246 25.78-14.812-3.675-4.5643-13.952-7.8438-26.156-7.8438h-8.3e-4 -289.97" color="#000000" fill="url(#d)"/><path transform="matrix(1.8578 0 0 1.8578 -42.024 -290.24)" d="m189.91 405.86a132.33 132.33 0 0 1-132.33 132.33 132.33 132.33 0 0 1-132.33-132.33 132.33 132.33 0 0 1 132.33-132.33 132.33 132.33 0 0 1 132.33 132.33z" color="#000000" fill="url(#c)"/></g><g fill="#fff" fill-rule="evenodd"><path transform="matrix(.81145 0 0 .81145 35.074 126.28)" d="m184.49 461.24 9.0411 137.41-37.896-44.244 38.665 55.978 0.25648 4.3603-142.8-20.775 133.5 33.856-53.798 22.314 65.212-19.429 4.232 1.09-63.929 129.33 73.483-116.44 4.6168 58.094 1.6672-68.097 2.3084-3.6549 103.3 100.8-88.103-105.93 56.683 13.594-64.25-22.635-2.7572-3.3343 127.73-67.071-127.99 51.105 30.522-49.758-41.358 54.119-4.0397 1.603-24.302-142.29z" filter="url(#bi)"/><path d="m225.47 567.75 4.4366 67.429-18.596-21.711 18.973 27.469 0.12586 2.1396-70.072-10.195 65.51 16.613-26.399 10.95 32-9.5339 2.0767 0.5349-31.371 63.465 36.059-57.14 2.2655 28.507 0.81808-33.416 1.1327-1.7935 50.69 49.463-43.233-51.98 27.815 6.6706-31.528-11.107-1.353-1.6362 62.678-32.912-62.804 25.078 14.977-24.417-20.295 26.556-1.9823 0.78662-11.925-69.821z" filter="url(#bf)"/><path d="m64.372 303.34-5.0526-76.793 21.178 24.726-21.608-31.283-0.14333-2.4367 79.803 11.61-74.607-18.92 30.065-12.47-36.443 10.858-2.3651-0.60917 35.727-72.278-41.066 65.075-2.5801-32.466-0.93168 38.056-1.29 2.0425-57.729-56.331 49.236 59.198-31.677-7.5968 35.906 12.649 1.5409 1.8634-71.382 37.483 71.525-28.56-17.057 27.807 23.113-30.244 2.2576-0.89586 13.581 79.516z" filter="url(#bh)"/><path d="m70.381 311.64-5.3028-80.596 22.227 25.95-22.678-32.832-0.15043-2.5574 83.755 12.185-78.302-19.857 31.554-13.088-38.248 11.395-2.4822-0.63934 37.496-75.857-43.1 68.298-2.7078-34.074-0.97782 39.941-1.3539 2.1437-60.588-59.121 51.674 62.13-33.246-7.9731 37.684 13.276 1.6172 1.9556-74.917 39.339 75.067-29.974-17.902 29.184 24.258-31.742 2.3694-0.94022 14.254 83.454z" filter="url(#bg)"/></g><path d="m367.19 424.63v78.319h0.69564c7.8496 0 14.145-6.4266 14.145-14.441v-49.437c0-8.0145-6.2958-14.441-14.145-14.441h-0.69564z" color="#000000" fill="url(#u)"/></g></g></g></svg>
