<svg enable-background="new" version="1.1" viewBox="0 0 512 400" xmlns="http://www.w3.org/2000/svg" xmlns:xlink="http://www.w3.org/1999/xlink"><defs><linearGradient id="a"><stop stop-color="#a4a4a4" offset="0"/><stop stop-color="#404040" offset=".14516"/><stop offset="1"/></linearGradient><filter id="b" x="-.3614" y="-1.0842" width="1.7228" height="3.1684" color-interpolation-filters="sRGB"><feGaussianBlur stdDeviation="61.954761"/></filter><filter id="u" x="-.2746" y="-.52251" width="1.5492" height="2.045" color-interpolation-filters="sRGB"><feGaussianBlur stdDeviation="70.990053"/></filter><filter id="t" x="-.090976" y="-.17622" width="1.182" height="1.3524" color-interpolation-filters="sRGB"><feGaussianBlur stdDeviation="11.870858"/></filter><filter id="s" color-interpolation-filters="sRGB"><feGaussianBlur stdDeviation="4.7907298"/></filter><filter id="r" color-interpolation-filters="sRGB"><feGaussianBlur stdDeviation="3.3000137"/></filter><filter id="q" color-interpolation-filters="sRGB"><feGaussianBlur stdDeviation="10.220289"/></filter><filter id="p" x="-.90622" y="-.98174" width="2.8124" height="2.9635" color-interpolation-filters="sRGB"><feGaussianBlur stdDeviation="101.47743"/></filter><filter id="o" color-interpolation-filters="sRGB"><feGaussianBlur stdDeviation="5.6311877"/></filter><filter id="n" color-interpolation-filters="sRGB"><feGaussianBlur stdDeviation="4.2274187"/></filter><filter id="m" color-interpolation-filters="sRGB"><feGaussianBlur stdDeviation="4.0124623"/></filter><filter id="l" x="-.9597" y="-1.6008" width="2.9194" height="4.2017" color-interpolation-filters="sRGB"><feGaussianBlur stdDeviation="129.7344"/></filter><radialGradient id="i" cx="920.19" cy="527.03" r="1671.4" gradientTransform="matrix(.2762 0 0 .21968 477.7 104.8)" gradientUnits="userSpaceOnUse"><stop stop-color="#818181" offset="0"/><stop stop-color="#bcbcbc" offset="1"/></radialGradient><radialGradient id="h" cx="435.96" cy="-377.6" r="576.48" gradientTransform="matrix(1.2134 0 0 .56616 140.35 334.47)" gradientUnits="userSpaceOnUse" xlink:href="#a"/><radialGradient id="g" cx="3492.2" cy="1547.7" r="884.68" gradientTransform="matrix(.25652 -.069866 .016814 .061737 -239.27 189.46)" gradientUnits="userSpaceOnUse" spreadMethod="reflect"><stop stop-color="#fff" offset="0"/><stop stop-color="#6a6a6a" offset="1"/></radialGradient><radialGradient id="f" cx="905.07" cy="-84.03" r="245.39" gradientTransform="matrix(.042579 -.073748 .046511 .026853 738.04 123)" gradientUnits="userSpaceOnUse" xlink:href="#a" spreadMethod="reflect"/><linearGradient id="k" x1="3753.2" x2="3935.7" y1="579.1" y2="763.89" gradientTransform="matrix(.18484 0 0 .18484 76.558 -141.04)" gradientUnits="userSpaceOnUse" xlink:href="#a"/><radialGradient id="e" cx="362.96" cy="240.66" r="69.406" gradientTransform="matrix(1.2165 -.70235 .57506 .99604 -209.04 257.42)" gradientUnits="userSpaceOnUse" xlink:href="#a"/><radialGradient id="d" cx="642.2" cy="187.85" r="268.62" gradientTransform="matrix(2.193 0 0 1.2367 -767.64 -43.007)" gradientUnits="userSpaceOnUse" xlink:href="#a"/><linearGradient id="j" x1="1744.4" x2="630.36" y1="728.15" y2="379.02" gradientTransform="matrix(.18484 0 0 .18484 561.77 130.24)" gradientUnits="userSpaceOnUse" xlink:href="#a" spreadMethod="reflect"/><radialGradient id="c" cx="498.55" cy="180.67" r="34.355" gradientTransform="matrix(5.8886 1.5778 -2.5743 9.6075 -1966.7 -2355.4)" gradientUnits="userSpaceOnUse" xlink:href="#a"/></defs><g transform="translate(-302.58 -62.322)"><g transform="matrix(.63864 0 0 .63864 104.18 170.03)"><path d="m1041-138.83-6.2788 6.7814c24.935 23.096 37.36 32.621 41.526 55.291 1.9556 10.643-1.3778 23.505-8.9937 31.192-24.978 25.211-68.795 17.976-102.02 30.447-19.208 7.2099-41.433 16.038-55.996 25.554-34.694-30.568-85.459-52.607-137.67-56.417-89.534-6.5336-243.6 30.716-308.49 84.779-64.885 54.063-138.06 163.56-138.06 246.51-2e-5 82.949 74.256 154.65 140.71 158.14 66.45 3.4868 129.42-27.357 151.9-42.696 22.477-15.339 70.098-64.832 133.82-120.23 63.717-55.393 209.47-130.15 202.21-195-2.7305-24.395-16.506-48.117-37.39-68.571 14.372-9.3745 33.023-16.386 50.231-22.909 34.842-13.208 80.754-6.1418 106.9-32.694 9.8947-10.05 14.245-26.768 11.743-40.648-4.3819-24.31-18.565-35.85-44.131-59.531z" color="#000000" enable-background="accumulate" fill-opacity=".50286"/><path d="m944.55 81.758c7.074 65.92-134.96 141.89-197.05 198.2-62.092 56.302-112.71 101.33-134.62 116.92-21.903 15.59-79.9 45.18-144.65 41.636-64.755-3.544-141.33-69.389-141.33-153.7s76.363-195.6 139.59-250.55c63.23-54.949 213.37-92.811 300.62-86.17 87.25 6.6408 170.37 67.74 177.44 133.66z" color="#000000" enable-background="accumulate" fill="url(#i)"/><g fill="#fff"><path transform="matrix(.18484 0 0 .18484 76.558 -141.04)" d="m3375.6 1560.9c-105.11-0.2696-287.59 58.034-479.84 159.75-273.43 144.66-463.13 322.38-423.69 396.94 39.445 74.557 293.1 17.725 566.53-126.94s463.13-322.38 423.69-396.94c-11.71-22.134-42.308-32.699-86.688-32.812z" color="#000000" enable-background="accumulate" fill-opacity=".32" filter="url(#p)"/><path transform="matrix(.18484 0 0 .18484 561.77 130.24)" d="m497.29 813.74c-180.87 84.438-330.56 145.69-301.61 207.7 28.95 62.011 157.13-60.781 338-145.22 457.82-194.04 284.14-217.18-36.39-62.485z" color="#000000" enable-background="accumulate" filter="url(#u)"/><path transform="matrix(.32475 0 0 .33402 936.33 -295.07)" d="m-62.857 1172.4c0 37.871-92.101 68.571-205.71 68.571s-205.71-30.7-205.71-68.571c0-37.871 92.101-68.571 205.71-68.571s205.71 30.7 205.71 68.571z" color="#000000" enable-background="accumulate" filter="url(#b)"/></g><g><path d="m944.59 91.015c-10.804 24.309-57.27 42.419-86.194 54.136-33.607 13.613-98.239 50.419-126.54 75.427s-78.543 88.463-98.209 128.74c-9.758 19.986-20.895 37.723-29.644 53.379 3.4011-2.0765 6.3814-4.0355 8.884-5.8167 21.903-15.59 72.525-60.628 134.62-116.93 59.205-53.684 191.08-125.25 197.09-188.94z" color="#000000" enable-background="accumulate" fill="url(#j)"/><path transform="matrix(.27634 0 0 .28424 580.28 -24.617)" d="m-62.857 1172.4c0 37.871-92.101 68.571-205.71 68.571s-205.71-30.7-205.71-68.571c0-37.871 92.101-68.571 205.71-68.571s205.71 30.7 205.71 68.571z" color="#000000" enable-background="accumulate" fill="#fff" filter="url(#b)"/><path transform="matrix(.20545 0 0 .20545 14.002 -184.92)" d="m1967.1 2566.1c-224.11-185.33-246.43-836.92-246.43-836.92s-172.37 450.8-117.11 671.04c56.896 226.75 210.34 479.26 432.48 552.13 330.89 108.54 1034.6-138.87 1006.2-281.08-31.166-156.29-797.64 124.31-1075.1-105.17z" color="#000000" enable-background="accumulate" fill="#4d4d4d" filter="url(#b)"/><path d="m1036.3-151-5.759 7.2262c35.212 28.059 45.872 36.301 50.202 62.731 1.0373 6.3315-2.6695 13.011-6.6023 18.08-5.4975 7.0861-14.149 11.242-22.187 15.221-48.636 24.077-107.91 28.926-154.64 50.912l3.9337 8.3641c44.51-20.941 106.11-26.727 154.7-50.941 9.1153-4.5424 18.909-9.3317 25.104-17.416 5.3632-6.9987 10.293-16.2 8.907-24.907-4.5901-28.844-17.689-40.608-53.656-69.269z" color="#000000" enable-background="accumulate" style="block-progression:tb;text-indent:0;text-transform:none"/></g><path d="m469.7 32.192c-52.226 36.824-91.884 95.964-109.42 157.41-8.063 28.246-15.931 66.924 4.5228 88.008 17.306 17.839 49.83 10.365 74.312 6.0824 89.975-15.737 166.18-75.865 249.31-113.73 57.495-26.189 68.439-25.736 101.87-40.484 48.259-21.29 143.64-38.4 142.3-69.213-2.2391-51.555-92.58-109.19-153.46-112.03-117.26-5.4649-222.08 22.367-309.43 83.952z" fill="#4d4d4d"/><g><path d="m481.8 22.481c-46.807 31.835-82.671 83.978-98.521 138.32-7.4612 25.582-14.452 60.712 4.103 79.839 15.699 16.183 45.155 9.1027 67.415 5.5179 83.864-13.506 155.98-67.342 234.62-99.476 33.621-13.739 68.409-24.69 101.39-39.895 41.822-19.279 123.18-36.948 121.96-64.902-2.0312-46.769-77.107-90.75-132.34-93.324-106.38-4.9576-213.84 16.247-298.63 73.919z" fill="url(#d)"/><g><path d="m749.18-50.529c-27.358 0.06111-53.992 1.9767-79.829 5.7498-9.388 1.2958-18.715 2.83-27.969 4.6078-2.968 7.6917-5.1543 19.891-9.6002 21.442-57.254 19.977-166.99 86.594-129.88 119.02 18.62 16.27 58.3 5.0192 101.88-9.4201 66.71-22.105 106.82-34.821 134.43-37.771 19.954-2.1319 68.109 24.181 96.528 36.408-15.985 5.5841-31.664 11.012-43.929 16.573-32.984 14.956-67.771 25.729-101.39 39.243-78.632 31.606-150.75 84.558-234.62 97.842-22.26 3.5261-51.716 10.492-67.415-5.4259-18.555-18.813-11.562-53.368-4.1012-78.531 13.327-44.945 40.803-88.358 77.039-119.65-47.583 36.457-83.566 91.216-100.04 147.98-8.063 27.783-15.931 65.827 4.5228 86.565 17.306 17.546 49.83 10.195 74.312 5.9827 89.975-15.479 166.18-74.617 249.31-111.86 57.495-25.76 68.44-25.315 101.87-39.822 48.259-20.941 143.64-37.769 142.3-68.077-1.2656-28.664-30.262-59.93-67.011-80.911-17.696-10.104-47.121-23.158-68.311-27.061-6.2457-1.1965-12.326-1.9551-18.138-2.2215-10.077-0.46193-20.06-0.68114-29.95-0.65906z" color="#000000" enable-background="accumulate"/><path d="m740.05 30.077c-14.805 19.387-44.969 15.145-126.25 42.525-32.748 11.032-64.485 11.586-78.295-1.0483-24.288-22.221 54.331-69.319 93.695-83.445 25.516-9.1556 57.21-9.3634 81.265 3.1353 14.439 7.5023 44.385 19.446 29.58 38.832z" color="#000000" enable-background="accumulate" fill="url(#h)"/><path d="m664.48-16.015c-2.8407 0.04098-5.6813 0.19343-8.5064 0.4558 6.8142 2.1296 13.793 4.4044 20.928 6.9248 8.0797 2.8543 16.358 6.019 24.838 9.6541 9.1703 3.9315 18.575 8.4167 28.221 13.707 2.9201 1.6015 5.8595 3.2783 8.8249 5.0357-0.13905-2.601-1.1331-5.0254-2.7128-7.2818-3.2913-1.7798-6.7217-3.5582-10.247-5.2883-3.7728-1.8515-7.6464-3.6498-11.543-5.3652-3.8968-1.7155-7.8166-3.3481-11.68-4.8765-5.7426-2.2711-11.36-4.3104-16.568-6.1011-5.2075-1.7907-10.009-3.3331-14.091-4.6019-2.9624-0.92074-5.3718-1.6416-7.463-2.2625zm9.9671 0.32949c2.7192 0.78862 5.4637 1.6032 8.2318 2.4547 6.7351 2.0717 13.615 4.3453 20.637 6.9248 5.529 2.0312 11.144 4.2509 16.853 6.7216 1.0121 0.43798 2.03 0.88588 3.0478 1.3399-5.6812-3.3749-11.819-6.1861-16.348-8.5393-9.8156-5.1-20.969-7.9699-32.422-8.9018zm-24.251 0.81275c-2.0047 0.29324-3.9917 0.64307-5.9638 1.0434 8.7551 3.0283 17.787 6.301 27.073 10 9.3575 3.7276 18.974 7.8885 28.847 12.713 11.546 5.643 23.44 12.199 35.684 20.077 1.0736-1.585 1.8316-3.1168 2.3119-4.5964-3.9038-2.4204-7.7697-4.7023-11.598-6.8589-8.7005-4.9012-17.208-9.1682-25.53-12.965-9.1236-4.1622-18.024-7.7633-26.694-11.005-8.2558-3.0867-16.299-5.8445-24.13-8.4075zm-10.253 2.1142c-1.6147 0.45231-3.2152 0.8964-4.8051 1.3509 9.8983 3.7757 20.151 7.8818 30.725 12.565 10.575 4.6828 21.472 9.9436 32.669 16.063 10.004 5.468 20.247 11.632 30.709 18.666 1.4103-1.0771 2.7056-2.2484 3.9045-3.5475-11.537-7.5958-22.779-14.068-33.723-19.709-10.485-5.4031-20.696-10.053-30.615-14.207-9.9188-4.1532-19.546-7.8067-28.863-11.181zm-8.737 2.4877c-0.32381 0.09431-0.63934 0.1913-0.96101 0.28556-0.21022 0.073852-0.42217 0.14454-0.63151 0.21966-0.873 0.31325-1.7735 0.65279-2.6854 0.99946 0.42848 0.17703 2.8348 1.1668 7.0127 2.9544 4.5695 1.9552 10.923 4.7278 18.056 8.0451 3.5665 1.6586 7.3308 3.4536 11.17 5.3487 3.839 1.8952 7.7545 3.8885 11.637 5.9363 3.882 2.0478 7.7278 4.1496 11.439 6.2439 3.7111 2.0943 7.2846 4.1856 10.626 6.1944 6.7656 4.0683 12.578 7.813 16.694 10.544 2.0583 1.3654 3.6929 2.4796 4.8161 3.2455 1.1231 0.76588 1.7353 1.1862 1.7353 1.1862 0.14598-0.03351 0.29326-0.06541 0.43933-0.09885 1.7326-0.74855 3.3439-1.5434 4.8435-2.4053-0.33659-0.22981-0.27579-0.18926-0.7743-0.52719-1.4364-0.97367-3.5176-2.3726-6.1176-4.0692-2.6-1.6966-5.7159-3.6889-9.2148-5.843-3.4989-2.1541-7.3835-4.471-11.51-6.8315-3.4056-1.9476-6.9768-3.9226-10.632-5.8759-3.6548-1.9533-7.3945-3.8833-11.126-5.7441-7.4627-3.7216-14.902-7.1631-21.538-10.088-6.6353-2.9248-12.46-5.3433-16.623-7.0401-4.1625-1.6968-6.6557-2.6799-6.6557-2.6799zm-7.6552 2.8226c-1.2781 0.51581-2.5822 1.0612-3.9155 1.631 0.89028 0.40231 2.1728 0.98253 3.899 1.7738 3.5413 1.6235 8.659 4.0044 14.596 6.8974 5.9374 2.8929 12.691 6.3072 19.55 9.9836 6.8593 3.6764 13.823 7.6167 20.264 11.455s12.36 7.5691 17.21 10.73c3.9544 2.5779 7.2015 4.7755 9.4619 6.3207 2.2604 1.5452 3.5366 2.4382 3.5365 2.4382 2.1186-0.5269 4.2951-1.0436 6.458-1.5596 0 0-1.888-1.3165-5.1401-3.5036-3.2521-2.1871-7.8788-5.2349-13.377-8.6711-2.9434-1.8391-6.1327-3.7908-9.4948-5.7826-3.3621-1.9918-6.8931-4.0234-10.505-6.0407-3.6122-2.0173-7.3073-4.0183-10.989-5.9528-3.6812-1.9345-7.3503-3.8051-10.906-5.5684-7.1117-3.5266-13.773-6.6287-19.121-9.05-5.3484-2.4213-9.3774-4.1702-11.197-4.9588-0.21478-0.093053-0.1775-0.077033-0.32949-0.14278zm-7.0786 3.0094c-1.2184 0.54193-2.456 1.1059-3.7068 1.6859 0.49209 0.23906 0.39254 0.19042 1.0818 0.52719 2.1818 1.066 5.2998 2.6042 9.0445 4.4976 5.2219 2.6407 11.654 5.9793 18.457 9.709 6.8031 3.7297 13.978 7.8525 20.78 11.966 6.8019 4.1135 13.229 8.2136 18.644 11.785 5.4145 3.5712 9.8188 6.609 12.636 8.5723 2.1833 1.5219 3.4157 2.3998 3.4157 2.3998 2.016-0.53613 4.0651-1.0744 6.123-1.6035 0 0-0.81097-0.57323-2.29-1.598-1.479-1.0248-3.6233-2.501-6.2878-4.2944-4.0748-2.7419-9.3719-6.2231-15.365-9.9671-5.9934-3.744-12.687-7.7412-19.473-11.587-6.7862-3.8459-13.667-7.5387-19.956-10.774-6.2888-3.2356-11.984-6.0198-16.332-8.1055-3.2386-1.5531-5.3382-2.544-6.771-3.2125zm-6.7546 3.1137c-1.1736 0.56163-2.3551 1.1448-3.5475 1.7353 0.70302 0.36569 1.2146 0.63471 2.1197 1.1093 3.4774 1.8232 8.3537 4.4172 13.943 7.5124 3.201 1.7729 6.6391 3.7115 10.181 5.7606 3.5421 2.0491 7.1932 4.2051 10.835 6.4141 7.2831 4.4181 14.521 9.0437 20.879 13.262 6.358 4.2183 11.837 8.022 15.722 10.763 3.8856 2.7414 6.1889 4.4152 6.1889 4.4152 1.9192-0.53808 3.873-1.0749 5.832-1.609 0 0-0.65534-0.46812-1.8561-1.318-1.2008-0.84982-2.9488-2.0808-5.1346-3.5969-4.3716-3.0322-10.51-7.207-17.551-11.741-3.5205-2.2669-7.265-4.6248-11.109-6.9797-3.8444-2.3549-7.7901-4.7079-11.702-6.9797-3.9123-2.2718-7.7908-4.4655-11.494-6.5075-3.703-2.0419-7.2309-3.9317-10.428-5.6178-4.6205-2.4361-8.55-4.4431-11.324-5.843-0.66657-0.33641-1.0279-0.51573-1.5541-0.7798zm-6.4745 3.2016c-1.1374 0.57853-2.2798 1.1724-3.4267 1.7738 0.95911 0.53067 2.0474 1.1358 3.2565 1.8122 4.7731 2.6705 11.332 6.4174 18.495 10.73 6.0848 3.6644 12.603 7.7395 18.885 11.829 6.2827 4.0893 12.332 8.1907 17.573 11.84 5.2414 3.649 9.677 6.8406 12.801 9.1104 3.1237 2.2698 4.9424 3.6189 4.9424 3.6189 1.8275-0.53422 3.687-1.0709 5.5519-1.6035 0 0-2.0733-1.5181-5.5959-4.0363-3.5225-2.5181-8.5054-6.0371-14.338-9.9946-5.833-3.9575-12.516-8.3483-19.347-12.631-6.8302-4.2822-13.807-8.4529-20.11-12.081-6.3404-3.6493-11.99-6.7542-16.057-8.9512-0.97586-0.52714-1.8502-0.99902-2.6304-1.4168zm-6.2493 3.2729c-1.1094 0.59598-2.2216 1.1977-3.3334 1.8122 1.3308 0.77668 2.8114 1.6467 4.514 2.6579 3.0421 1.8067 6.6136 3.9569 10.478 6.3482 3.8642 2.3913 8.0241 5.0219 12.257 7.7705 5.4922 3.5669 11.104 7.3391 16.392 10.994 5.288 3.655 10.251 7.1896 14.503 10.275 4.2517 3.0851 7.7904 5.716 10.269 7.5673 2.3989 1.7917 3.7503 2.8107 3.8386 2.8776 0.50789-0.13051 1.0147-0.26222 1.5157-0.38991 1.2741-0.38528 2.5494-0.76948 3.8386-1.1532 0 0-1.635-1.2211-4.4536-3.2949-2.8186-2.0738-6.8308-4.9996-11.609-8.391-4.7783-3.3914-10.321-7.2451-16.151-11.148-5.8293-3.9027-11.945-7.8497-17.787-11.494-3.8955-2.4292-7.6656-4.7281-11.137-6.7985-3.4712-2.0704-6.6412-3.9154-9.3246-5.4586-1.4268-0.82053-2.6875-1.5378-3.8111-2.1746zm-6.0517 3.3334c-1.0738 0.60741-2.1476 1.2173-3.218 1.8397 1.7284 1.0604 3.7018 2.2887 5.9254 3.6848 3.7097 2.3292 8.0082 5.0758 12.554 8.0725 4.5454 2.9967 9.3361 6.2403 14.069 9.5278 4.7268 3.2838 9.3887 6.6093 13.701 9.7475 4.3127 3.1381 8.2764 6.0887 11.637 8.6162 3.3602 2.5275 6.12 4.6355 8.0396 6.1066 1.6179 1.2399 2.2495 1.7263 2.5316 1.944 1.7904-0.48605 3.5409-0.95414 5.2554-1.4058-0.17254-0.13176-1.1671-0.88792-3.218-2.4382-2.2161-1.6752-5.3942-4.0654-9.2312-6.8974-3.837-2.8319-8.3362-6.1084-13.18-9.5388-4.8435-3.4304-10.027-7.0115-15.19-10.472-4.4804-3.0027-8.9445-5.9138-13.125-8.5778-4.1803-2.6639-8.079-5.0796-11.422-7.117-1.9404-1.1824-3.6189-2.1897-5.1291-3.0917zm-5.8485 3.3938c-1.0422 0.62004-2.0802 1.2459-3.1137 1.8781 2.1898 1.4057 4.7218 3.0444 7.5509 4.9149 4.4043 2.9121 9.4247 6.3115 14.602 9.9287 5.1772 3.6172 10.509 7.4512 15.568 11.175 3.8448 2.8308 7.5322 5.5992 10.89 8.1494 3.3575 2.5503 6.3857 4.881 8.9292 6.8534 2.5435 1.9724 4.605 3.5836 6.0297 4.7007 0.91221 0.71523 1.0652 0.83821 1.4168 1.1148 1.6828-0.48141 3.3313-0.94918 4.9533-1.4003-0.33633-0.26199-0.7226-0.56075-2.0044-1.5541-1.6871-1.3074-4.1153-3.1835-7.095-5.4586-2.9797-2.2751-6.5096-4.9462-10.384-7.8254-3.8748-2.8792-8.096-5.9681-12.433-9.0665-4.9048-3.5035-9.9555-7.0178-14.794-10.297-4.8387-3.2788-9.4607-6.3204-13.482-8.9072-2.4869-1.5999-4.7047-2.9973-6.6338-4.2065zm-5.6563 3.4487c-1.0105 0.6327-2.0124 1.2741-3.0094 1.9165 2.7394 1.8323 5.9593 4.0082 9.5058 6.469 5.1454 3.5702 10.91 7.6822 16.661 11.917 5.7509 4.2344 11.488 8.5871 16.639 12.565 5.7507 4.4416 10.765 8.4097 14.333 11.247 2.3356 1.8569 3.7466 2.9833 4.6568 3.7123 1.5918-0.47779 3.1534-0.93823 4.6952-1.3893-0.31979-0.25368-0.3455-0.2783-0.97201-0.7743-1.2158-0.96259-2.9771-2.355-5.1675-4.0747-2.1904-1.7197-4.8053-3.7682-7.7321-6.0297-2.9268-2.2615-6.1658-4.7324-9.5772-7.3037-5.1336-3.8687-10.667-7.9505-16.112-11.851-5.4447-3.9002-10.797-7.6171-15.53-10.818-3.141-2.1245-5.9637-3.9959-8.391-5.5849zm-5.4641 3.5146c-0.97493 0.64386-1.9428 1.2926-2.8995 1.944 3.4394 2.3878 7.5713 5.3028 12.021 8.5338 2.9884 2.17 6.1173 4.4819 9.2807 6.8534 3.1634 2.3715 6.3609 4.8016 9.4838 7.2104 6.246 4.8175 12.192 9.5371 17.062 13.438 3.6708 2.9404 6.7323 5.4136 8.8743 7.15 1.3562 1.0994 1.5925 1.2879 2.1362 1.7298 1.5058-0.47201 2.9894-0.93528 4.4536-1.3839-0.6132-0.49512-1.2829-1.0386-3.4706-2.7952-2.9085-2.3354-7.0252-5.6314-11.845-9.4235-5.0831-3.9982-10.949-8.5457-16.936-13.053-5.9872-4.5077-12.099-8.9684-17.606-12.872-3.9283-2.7846-7.5213-5.2659-10.555-7.3312zm-5.2609 3.575c-0.94398 0.66001-1.8746 1.3223-2.7952 1.9879 0.16328 0.11708 0.30079 0.21025 0.46677 0.32949 2.5827 1.8553 5.485 3.9706 8.5723 6.2603 3.0873 2.2897 6.3555 4.7544 9.6761 7.2982 6.6411 5.0876 13.478 10.497 19.5 15.343 3.0113 2.4233 5.8186 4.7029 8.3087 6.7326 2.49 2.0297 4.6642 3.8073 6.4031 5.2334 2.0075 1.6466 2.5064 2.0567 3.1906 2.6194 1.4338-0.46733 2.8463-0.92085 4.2449-1.3674-0.39465-0.32259-0.3788-0.31053-1.0544-0.86218-1.5158-1.2377-3.6953-3.0192-6.3702-5.1895-4.5222-3.6684-10.453-8.4492-16.881-13.504-3.2138-2.5272-6.5545-5.124-9.8902-7.6771-3.3357-2.5532-6.6679-5.0649-9.8737-7.441-3.2059-2.3761-6.2802-4.6164-9.094-6.6338-1.5659-1.1227-3.0249-2.1579-4.4042-3.1302zm-5.0796 3.6628c-0.9005 0.67063-1.7859 1.3467-2.6579 2.0209 0.74725 0.55169 1.5128 1.1168 2.3064 1.7079 2.8493 2.1219 5.9762 4.4836 9.2367 6.9907 3.2605 2.5071 6.6536 5.1608 10.038 7.8419 3.3849 2.6811 6.7635 5.3881 9.9946 8.0066 3.2311 2.6186 6.3194 5.1439 9.1269 7.452 2.8076 2.3081 5.3337 4.3987 7.4575 6.156 3.3239 2.7504 4.5245 3.7482 5.3817 4.4591 0.1515-0.05057 0.30426-0.09721 0.45579-0.14826 1.2091-0.4073 2.4061-0.80986 3.5915-1.2027-1.9172-1.5825-5.6683-4.6817-10.654-8.7645-5.1939-4.2537-11.613-9.4733-18.254-14.728-3.3203-2.6275-6.6912-5.2615-9.9891-7.798-3.2978-2.5365-6.5211-4.971-9.5278-7.2104-2.3407-1.7434-4.4923-3.3186-6.5074-4.7831zm-4.838 3.7287c-0.8642 0.6911-1.7135 1.3831-2.5426 2.0758 2.2421 1.6982 4.6572 3.5423 7.2104 5.5245 2.7842 2.1615 5.7096 4.4614 8.6711 6.8205 5.9231 4.7181 11.996 9.6762 17.452 14.179 5.4561 4.5029 10.291 8.5404 13.756 11.428 2.3646 1.9706 2.9405 2.4472 3.8001 3.1631 1.3352-0.38049 2.6772-0.78424 4.0198-1.2026-0.85114-0.70752-1.7706-1.4686-4.6568-3.866-3.8606-3.2067-9.2257-7.6602-15.201-12.548-5.9748-4.888-12.559-10.197-18.819-15.096-3.13-2.4495-6.1787-4.7965-9.0226-6.9578-1.6423-1.2481-3.1855-2.4124-4.6678-3.5201zm-4.6074 3.8331c-0.81893 0.71203-1.6182 1.4249-2.3943 2.1362 1.2348 0.95598 2.5139 1.954 3.8386 2.9929 4.8033 3.7661 10.117 8.025 15.382 12.323 5.2648 4.2979 10.481 8.6277 15.091 12.471 4.6097 3.8435 8.6175 7.1973 11.466 9.5772 1.34 1.1194 1.3628 1.1398 2.1362 1.7847 1.3455-0.31577 2.6945-0.64863 4.0528-1.0049-0.85137-0.70966-1.1476-0.95818-3.0588-2.5536-3.1698-2.646-7.6069-6.3583-12.663-10.555-5.0565-4.1964-10.731-8.866-16.359-13.405-5.6278-4.5388-11.21-8.9413-16.063-12.674-0.49403-0.3801-0.94964-0.72683-1.4278-1.0928zm-4.3328 3.9649c-0.77092 0.74245-1.5175 1.4795-2.2351 2.2186 2.5703 2.0288 5.3221 4.2176 8.1714 6.5184 4.514 3.6442 9.2521 7.535 13.828 11.329 4.5755 3.794 8.9866 7.4884 12.834 10.708 3.8471 3.22 7.1307 5.9671 9.4509 7.9023 0.16638 0.13877 0.10725 0.0893 0.26359 0.21966 1.3648-0.24727 2.7399-0.52082 4.1242-0.81275-0.59708-0.49787-0.48956-0.4065-1.318-1.0983-2.6-2.1713-6.2614-5.2412-10.516-8.7974-4.2549-3.5562-9.1039-7.5977-14.058-11.675-4.9544-4.0773-10.018-8.1851-14.717-11.922-2.0375-1.6208-3.9662-3.1373-5.8265-4.5909zm-4.0143 4.1132c-0.7114 0.78162-1.3941 1.5593-2.0374 2.3339 0.4242 0.33977 0.84165 0.66835 1.274 1.0159 3.5082 2.8201 7.2722 5.8902 11.076 9.0226 4.0458 3.3304 8.1393 6.7305 12.004 9.9561 3.8652 3.2256 7.5005 6.2722 10.637 8.8908 2.2209 1.8541 4.0625 3.3854 5.6782 4.7282 1.3949-0.16984 2.8052-0.36126 4.2285-0.5821-2.0598-1.7149-4.678-3.9013-7.9188-6.6118-3.5189-2.9431-7.5735-6.3434-11.829-9.8847-4.2552-3.5413-8.7113-7.2197-13.031-10.741-3.4975-2.8519-6.9056-5.6024-10.055-8.1055-9e-3 -0.0075-0.0181-0.01451-0.0275-0.02197zm-3.6299 4.3438c-0.63285 0.83636-1.221 1.6692-1.7628 2.4932 1.1508 0.9321 2.3202 1.8807 3.5146 2.8556 4.1676 3.4018 8.5588 7.0273 12.845 10.588 6.8749 5.7098 13.489 11.236 18.397 15.299 0.47464 0.39305 0.84933 0.70068 1.2905 1.0654 1.4466-0.07472 2.9156-0.17654 4.4042-0.31303-1.1232-0.93117-2.3718-1.9709-3.7452-3.1137-5.6476-4.6992-13.17-11.007-20.741-17.271-4.0385-3.3423-8.0917-6.6688-11.9-9.7529-0.77902-0.63087-1.5446-1.2417-2.3009-1.8507zm-3.0917 4.6678c-0.52371 0.93064-0.98377 1.8484-1.3729 2.7567 1.8562 1.5146 3.7462 3.0603 5.6728 4.6458 4.8305 3.9752 9.7992 8.0973 14.41 11.917 3.7948 3.1428 7.1425 5.9063 10.159 8.3856 1.5435 0.06057 3.1228 0.07743 4.7337 0.05491-4.2068-3.4688-9.6581-7.9966-15.503-12.85-4.4598-3.7046-9.1218-7.566-13.592-11.23-1.5346-1.258-3.0332-2.4802-4.5085-3.6793zm-2.268 5.2334c-0.32768 1.1259-0.53405 2.2333-0.61505 3.3114 2.4806 2.0298 5.0077 4.1047 7.5289 6.178 5.119 4.2095 10.165 8.3612 14.58 11.966 1.7574 0.3176 3.5879 0.56989 5.4806 0.74685-1.7006-1.3924-3.462-2.8353-5.3872-4.4207-4.6731-3.849-9.8707-8.1571-15.003-12.383-2.2244-1.8318-4.4272-3.6351-6.5843-5.3982zm-0.44482 6.5843c0.48357 2.54 1.8131 4.8987 4.1296 7.0181 3.2303 2.9554 7.4936 5.1526 12.548 6.6283-2.7583-2.2469-5.6893-4.6439-8.6876-7.1005-2.6476-2.1692-5.3346-4.3737-7.9902-6.5459z" color="#000000" enable-background="accumulate" style="block-progression:tb;text-indent:0;text-transform:none"/><path d="m788.39-38.598c-63.246 8.8144-125.58 29.486-182.34 58.741-18.768 9.6731-57.775 26.065-50.803 37.835 7.7488 13.08 26.583 10.314 62.846-7.954 15.516-7.8162 59.698-23.973 90.935-31.063 38.044-8.6349 102.46-9.2477 116.23-13.686 15.11-4.8699 40.885-9.951 56.215-15.481-10.99-9.2891-24.092-17.518-37.985-24.139-17.804-4.6228-38.84-6.3744-55.097-4.2531z" color="#000000" enable-background="accumulate" fill="url(#g)"/></g></g><g><path transform="matrix(.18484 0 0 .18484 561.77 130.24)" d="m1425.4-876.12c-32.41 0-89.365 2.5651-126.34 4.4062-51.862 1.7898-111.66 5.1562-111.66 5.1562s101.7 7 140.75 7c81.766 0 148.06 36.112 148.06 80.656 0 16.986-9.6345 32.752-26.094 45.75 28.968-14.722 47.094-35.715 47.094-59 0-30.04-30.13-56.244-74.844-70.125 73.286 4.8346 130.09 38.835 130.09 80.062 0 16.986-9.6345 32.752-26.094 45.75 28.968-14.722 47.094-35.715 47.094-59 0-44.544-66.296-80.656-148.06-80.656z" color="#000000" enable-background="accumulate" fill="#fff" fill-opacity=".76" filter="url(#n)"/><path d="m778.67-1.4067c-14.396 2.5941-39.183-13.479-37.872-16.982 0.57489-1.5355 26.121-17.56 42.382-17.56 26.472-2.9816 59.258 26.024 44.7 27.275-12.623 1.0844-33.275 4.3958-49.21 7.2673z" color="#000000" enable-background="accumulate" fill="url(#f)"/><path d="m794.47-20.766c-10.541 1.6407-21.933 11.044-25.89 18.815 3.5972 0.81022 7.0774 1.0871 10.097 0.54297 15.935-2.8715 36.633-5.7202 49.208-7.2666 0.74003-0.091003 1.3736-0.22317 1.912-0.39857-9.6984-12.494-23.071-13.6-35.328-11.692z" color="#000000" enable-background="accumulate" fill="url(#k)"/></g><path transform="matrix(.18484 0 0 .18484 76.558 -141.04)" d="m2353.3 2038.7 1083.5-504.16c-202.32 57.253-890.29 411.88-1083.5 504.16z" color="#000000" enable-background="accumulate" fill="#fff" filter="url(#t)"/><g><path d="m804.54-38.063c-5.1283 0.0059-10.057 0.28716-14.61 0.86069-14.028 1.8874-28.015 4.3405-41.902 7.3242 11.942-2.4612 23.95-4.5153 35.995-6.1359 15.622-1.9679 35.837-0.34605 52.946 3.9425 13.35 6.1426 25.94 13.777 36.501 22.395-14.731 5.1297-39.501 9.8474-54.021 14.365-13.233 4.1173-75.131 4.6833-111.69 12.694-30.017 6.5772-72.472 21.568-87.382 28.819-34.847 16.947-52.948 19.514-60.394 7.3798-2.0806-3.3906 0.10066-7.1975 4.636-11.1-6.0495 4.6179-9.2993 9.1641-6.8504 13.155 7.716 12.574 26.47 9.9151 62.58-7.6463 15.45-7.5139 59.447-23.048 90.551-29.863 37.883-8.3009 102.03-8.8883 115.74-13.155 15.046-4.6815 40.712-9.5661 55.977-14.882-10.944-8.9298-23.99-16.84-37.824-23.205-12.742-3.1941-27.146-4.9628-40.252-4.9476z" color="#000000" enable-background="accumulate" fill="#808080"/><path transform="matrix(.18484 0 0 .18484 76.558 -141.04)" d="m3638.9 489.69c-148.01 0.33058-292.1 10.713-431.88 31.125-50.789 7.0102-101.25 15.288-151.31 24.906-16.057 41.612-27.885 107.61-51.938 116-309.75 108.08-903.4 468.49-702.66 643.91 37.031 32.358 89.475 44.563 152.69 43.219-54.307-1.4722-99.635-14.336-132.69-43.219-200.74-175.42 392.91-535.83 702.66-643.91 24.053-8.3925 35.88-74.388 51.938-116 50.062-9.6178 100.52-17.896 151.31-24.906 138.16-20.177 280.54-30.538 426.75-31.094-4.9598-0.0113-9.9236-0.0423-14.875-0.0312z" color="#000000" enable-background="accumulate" fill="#4d4d4d" filter="url(#o)"/><path transform="matrix(.18484 0 0 .18484 76.558 -141.04)" d="m2076.2 977.03c-257.42 197.23-452.09 493.48-541.22 800.59-43.621 150.31-86.187 356.12 24.469 468.31 47.601 48.262 116.5 61.69 190.12 60.25-66.01-1.3065-126.86-16.385-170.12-60.25-110.66-112.19-68.09-318-24.469-468.31 67.458-232.45 195.39-458.66 365.22-640.44 47.661-57.859 99.891-111.7 156-160.16z" color="#000000" enable-background="accumulate" fill="#fff" filter="url(#s)"/><path transform="matrix(.18484 0 0 .18484 561.77 130.24)" d="m1964.3-297.93c-100.39 127.65-520.74 209.41-747.97 308.01-180.86 78.483-240.08 76.077-551.12 215.44-449.7 201.48-861.98 521.41-1348.8 605.16-65.108 11.201-140.72 26.483-211.91 27.875 76.836 1.5207 160.66-15.618 231.91-27.875 486.77-83.743 899.05-403.67 1348.8-605.16 311.05-139.36 370.26-136.95 551.12-215.44 226.76-98.398 645.81-180.02 747.33-307.21 15.368-19.253 13.454-39.7 13.454-39.7s-17.862 19.881-32.816 38.894z" color="#000000" enable-background="accumulate" fill="#fff" filter="url(#q)"/><path transform="matrix(.18484 0 0 .18484 561.77 130.24)" d="m-548.84-490.61c-62.584 47.95-121.45 101.77-176 160.16-118.86 144.29-209.32 313.63-260.78 487.19-40.365 136.13-78.197 323.07 22.188 424.84 42.999 43.596 105.09 55.448 171.53 54.062-58.803-1.3305-112.87-14.869-151.53-54.062-100.38-101.78-62.552-288.71-22.188-424.84 72.098-243.15 220.75-478.03 416.78-647.34z" color="#000000" enable-background="accumulate" fill="#4d4d4d" filter="url(#m)"/><path transform="matrix(.15254 0 0 .14499 560.7 123.66)" d="m122.88-217.88c-135.77 44.986-263.85 83.679-362.93 85.854 101.33 2.6642 236.91-38.057 381.16-85.854 108.8-36.051 285.87-92.895 285.87-92.895s-126.46 34.11-304.1 92.895z" color="#000000" enable-background="accumulate" fill="#fff" filter="url(#r)"/></g><g><path transform="matrix(.34766 0 0 .34766 526.66 78.157)" d="m215.62 222.61c-89.592 0-162.22 43.544-162.22 97.25s72.626 97.25 162.22 97.25 162.22-43.544 162.22-97.25-72.626-97.25-162.22-97.25z" color="#000000" enable-background="accumulate" fill="#fff" fill-opacity=".42286" filter="url(#l)"/><path d="m429.72 121.42c-1.6851 0.0133-3.4088 0.0952-5.1698 0.24837-11.842 1.03-23.086 6.8294-33.081 15.532-3.1384 7.7826-5.8772 15.669-8.1908 23.602-7.4611 25.582-14.454 60.714 4.1012 79.84 15.699 16.183 45.155 9.1012 67.415 5.5164 14.495-2.3343 28.638-5.8756 42.525-10.299 0.49388-3.4129 0.7509-6.9014 0.7509-10.449 0-39.117-16.113-104.4-68.351-103.99z" color="#000000" enable-background="accumulate" fill-opacity=".76"/><path d="m429.72 121.42c-0.11872 2e-3 -0.23904 4e-3 -0.35813 6e-3 51.054 0.82844 66.861 65.243 66.861 103.99 0 2.7411-0.15865 5.4472-0.45632 8.1099 0.63991-0.19719 1.2789-0.39405 1.9177-0.59495 0.25565-2.4705 0.387-4.9779 0.387-7.515 0-39.117-16.113-104.4-68.351-103.99z" color="#000000" enable-background="accumulate" fill="url(#c)"/><path transform="matrix(1.5658 0 0 1.5658 288.3 -151)" d="m379.34 208.78c-46.616 7.4079-116.8 67.876-138.81 113.66 14.814-12.95 32.86-29.183 52.75-47.219 21.468-19.466 57.88-42.62 86.062-66.438z" color="#000000" enable-background="accumulate" fill="url(#e)"/></g></g></g></svg>
