<svg version="1.1" viewBox="0 0 310.64 126.94" xmlns="http://www.w3.org/2000/svg" xmlns:xlink="http://www.w3.org/1999/xlink"><defs><linearGradient id="b"><stop stop-color="#1d1d1d" offset="0"/><stop stop-color="#666" offset="1"/></linearGradient><linearGradient id="c"><stop stop-color="#787878" offset="0"/><stop stop-color="#ababab" offset=".30202"/><stop stop-color="#8b8b8b" offset=".60405"/><stop stop-color="#4b4b4b" offset="1"/></linearGradient><linearGradient id="i" x1="180.7" x2="167.76" y1="88.49" y2="67.529" gradientTransform="matrix(1.0695 0 0 1.0695 -12.413 -5.4828)" gradientUnits="userSpaceOnUse" xlink:href="#c"/><radialGradient id="e" cx="83.204" cy="98.406" r="95.844" gradientTransform="matrix(.80502 -.69561 .43298 .50108 -26.384 101.95)" gradientUnits="userSpaceOnUse" xlink:href="#b"/><linearGradient id="h" x1="158.12" x2="148.49" y1="64.824" y2="44.646" gradientUnits="userSpaceOnUse" xlink:href="#c"/><filter id="p" color-interpolation-filters="sRGB"><feGaussianBlur stdDeviation="0.48826982"/></filter><filter id="o" color-interpolation-filters="sRGB"><feGaussianBlur stdDeviation="0.039209309"/></filter><clipPath id="q"><path d="m-78.232 59.578c1.2559 7.8112 6.9806 14.146 13.683 19.561 13.625 11.008 35.193 18.898 35.193 18.898l39.382 16.556s21.366 7.938 32.35 6.8985c3.2755-0.30999 8.1944-2.7146 11.215-4.3466 3.8283-1.889 1.9178-1.4214-0.5306-1.7491-4.2362-0.58225-12.531-2.5686-24.046-9.2533-17.23-10.003-38.746-26.274-63.821-48.807-6.2525-5.6186-19.668-15.694-30.416-15.694-17.979 0-14.022 11.641-13.01 17.936z" fill="#1a1a1a"/></clipPath><filter id="k" color-interpolation-filters="sRGB"><feGaussianBlur stdDeviation="1.3456549"/></filter><linearGradient id="g" x1="69.297" x2="124.86" y1="65.5" y2="167.53" gradientTransform="translate(.25254 -.0023096)" gradientUnits="userSpaceOnUse"><stop stop-color="#787878" offset="0"/><stop stop-color="#ababab" offset=".30202"/><stop stop-color="#8b8b8b" offset=".72461"/><stop stop-color="#4b4b4b" offset="1"/></linearGradient><linearGradient id="f" x1="-239.66" x2="-239.47" y1="60.073" y2="64.16" gradientTransform="matrix(.87794 0 0 .81372 -34.35 -96.523)" gradientUnits="userSpaceOnUse" xlink:href="#b"/><filter id="l" x="-.0057881" y="-.10275" width="1.0116" height="1.2055" color-interpolation-filters="sRGB"><feGaussianBlur stdDeviation="0.35871341"/></filter><linearGradient id="j" x1="285.47" x2="285.47" y1="118.46" y2="112.02" gradientTransform="translate(-6.0714 -1.0714)" gradientUnits="userSpaceOnUse" xlink:href="#b"/><filter id="n" x="-.079278" y="-.20977" width="1.1586" height="1.4195" color-interpolation-filters="sRGB"><feGaussianBlur stdDeviation="0.21238275"/></filter><filter id="m" color-interpolation-filters="sRGB"><feGaussianBlur stdDeviation="1.3668941"/></filter><clipPath id="r"><path d="m117.16 87.843c-25.994 0-48.797 9.1989-61.594 22.969-8.4378 7.9394-13.406 17.636-13.406 28.125 0 26.825 31.5 43.935 68.906 58.219 29.94 11.432 48.462 21.981 65.312 13.625 13.574-6.7306 28.28-17.455 38.906-28.219 0.0749-0.0717 0.14417-0.14707 0.21875-0.21875 10.24-9.8412 17.344-19.972 17.344-27.344 0-10.238-34.882-35.998-45.098-43.116-14.952-10.417-45.831-24.04-70.589-24.04z" fill="url(#d)" stroke="#000" stroke-linecap="round" stroke-linejoin="round"/></clipPath><radialGradient id="d" cx="83.204" cy="98.406" r="95.844" gradientTransform="matrix(.80502 -.69561 .43298 .50108 -26.384 169.23)" gradientUnits="userSpaceOnUse" xlink:href="#b"/></defs><g transform="translate(-41.656 -20.062)"><g transform="translate(-13.385 -3.7881)"><path d="m215.65 112.93v3.9062s16.729 3.9976 25.256 4.9314c13.981 1.5312 30.898 0.97712 42.181 1.0686 27.603 0.22387 82.594-6 82.594-6v-3.9062s-53.979 6.1752-81.079 6c-11.603-0.075-28.999 0.46947-43.38-1.082-8.6304-0.93106-16.519-3.7837-25.573-4.918z" color="#000000" fill="url(#j)" style="block-progression:tb;text-indent:0;text-transform:none"/><path d="m364.31 114.16c-21.927 2.6812-43.958 4.6626-66.03 5.6424-16.895 0.52632-33.834 0.77019-50.715-0.19289-8.6307-0.48329-17.04-2.209-25.259-4.2891-1.8256-0.23525-3.9859-1.0815-5.6833-0.78548 0.13841 2.3829 3.5339 1.8859 5.1714 2.5416 13.968 3.1843 28.441 4.8961 42.841 4.5413 27.807 0.62033 55.579-1.3561 83.227-4.1512 5.5166-0.55619 11.034-1.1094 16.542-1.7442-0.0983-0.36404 0.46753-1.5653-0.0937-1.5625z" color="#000000" fill="#4d4d4d" filter="url(#l)" style="block-progression:tb;text-indent:0;text-transform:none"/></g><path d="m117.16 20.562c-25.994 0-48.797 9.1989-61.594 22.969-8.4378 7.9394-13.406 17.636-13.406 28.125 0 26.825 31.5 43.935 68.906 58.219 29.94 11.432 48.462 21.981 65.312 13.625 13.574-6.7306 28.28-17.455 38.906-28.219 0.0749-0.0717 0.14417-0.14707 0.21875-0.21875 10.24-9.8412 17.344-19.971 17.344-27.344 0-10.238-34.882-35.998-45.098-43.116-14.952-10.417-45.831-24.04-70.589-24.04z" fill="url(#e)" stroke="#000" stroke-linecap="round" stroke-linejoin="round"/><path d="m48.542 80.286c1.2559 7.8112 6.9806 14.146 13.683 19.561 13.625 11.008 35.193 18.898 35.193 18.898l39.382 16.556s21.366 7.938 32.35 6.8985c3.2755-0.30999 8.1944-2.7146 11.215-4.3466 3.8283-1.889 1.9178-1.4214-0.5306-1.7491-4.2362-0.58225-12.531-2.5686-24.046-9.2533-17.23-10.003-38.746-26.274-63.821-48.807-6.2525-5.6186-19.668-15.694-30.416-15.694-17.979 0-14.022 11.641-13.01 17.936z" fill="#1a1a1a"/><path d="m47.857 52.362s15.742-15.575 64.212 24.834c24.887 23.652 66.291 49.179 66.291 49.179s9.2218 6.9241 12.165 5.5923c5.7455-2.5997 14.03-9.2323 19.028-13.891 4.4472-4.4472-33.659-31.482-51.586-45.928-12.273-9.8896-33.205-24.921-38.233-27.823-3.9083-2.2564 10.622-4.7822 11.688-4.5769 0 0 27.623 3.7579 78.443 54.578 4.8754 4.8754 10.612 12.321 12.143 10.757 0 0 3.834-4.5818 6.3175-8.0323 0 0 2.1061-2.9068 3.0282-8.4875 0.43564-2.6365-1.7859-6.1435-5.4622-10.487-11.411-13.482-45.703-40.848-75.274-49.791-12.415-3.9096-24.24-6.5584-38.119-7.7092 0 0-47.857 1.7857-64.643 31.786z"/><path d="m112.25 20.998c-17.687 1.4264-35.782 6.025-50.235 16.478-5.0446 3.7383-9.3466 8.2234-12.671 13.553 7.6546-3.8594 16.783-1.5637 24.436 1.2049 14.723 5.8134 27.672 15.312 39.691 25.489 19.368 17.798 41.014 32.69 63.07 46.864 4.3555 2.5267 8.3939 6.562 13.521 7.1297 6.2177-2.5626 11.684-7.2924 16.974-11.687 1.2572-1.2402 3.8523-2.3964 2.2136-4.4383-4.9898-7.0727-12.113-12.078-18.638-17.678-14.288-11.283-28.762-22.329-43.081-33.572-9.3017-7.0432-18.805-13.824-28.406-20.25-0.84549-1.8684 2.2801-2.5142 3.5312-3 4.2239-1.1469 8.8141-2.7125 13.062-0.71875 16.821 5.7177 31.475 16.214 45.311 27.095 13.464 10.853 26.04 22.764 37.796 35.457 1.0955 0.95445 3.0379 3.2092 4.0218 0.82704 3.5663-4.343 7.611-8.8742 8.2259-14.647 0.77318-4.3769-3.0946-7.8657-5.5016-11.088-11.761-12.941-26.058-23.63-40.751-33.046-13.694-8.703-28.63-15.533-44.452-19.302-9.1851-2.2869-18.619-4.0696-28.119-4.6703z" fill="url(#g)"/><path d="m58.938 62c-4.8953 0.09473-11.238 2.6438-11.651 8.2951-0.90614 9.6197 3.0774 19.313 10.029 25.771 10.163 9.7208 22.987 15.801 35.708 21.373 12.861 5.3034 25.71 10.636 38.501 16.107 11.67 4.6471 23.791 8.8678 36.444 9.1419 5.408-0.49636 10.597-2.9914 14.906-6.0938-0.67291-1.5932-3.392-0.49044-4.7982-1.205-17.524-3.7352-32.08-15.087-46.497-25.121-15.813-11.606-30.327-24.836-45.362-37.393-7.8746-5.8655-17.001-11.52-27.281-10.875z" fill="none" stroke="#000"/><path d="m163.28 68.11 3.8565-3.3306c1.9942-2.1347 2.4434-1.3715 4.1855-0.10413 2.5793 1.8772 7.1075 5.2183 11.938 8.9937 4.2133 3.2929 8.6324 6.989 12.279 10.063 2.6848 2.1791 3.4514 2.1604 0.84687 4.6437l-3.525 3.361c-2.07 2.414-2.3044 1.5882-4.5151-0.30047l-12.6-10.764-12.105-9.0269c-2.5368-1.7245-2.5955-1.6053-0.36103-3.5352z" fill="#1a1a1a"/><path d="m190.18 92.501c-8.3132-25.21-28.021-21.999-28.021-21.999l6.9206-5.1405s18.852-2.4208 26.011 21.959l-1.1587 1.2223z" fill="url(#i)"/><path d="m139.39 50.534 2.5174-1.6938c1.6312-1.3268 2.0286-1.068 3.6973-0.05625l15.296 9.2742c2.3518 1.3379 1.9905 1.8948 0.69719 3.0519l-1.9732 2.1358c-1.7509 1.4589-2.6089 1.1418-4.7639-0.10699l-15.572-10.054c-1.8372-1.2725-1.8461-1.2926 0.1016-2.5504z" fill="#1a1a1a"/><g transform="translate(-1.0714 -.17857)" filter="url(#o)"><path d="m146.09 48.531c-0.43325-0.02207-0.87216 0.19407-1.5625 0.77228l-2.7054 1.4342c-0.36918 0.27969-0.62818 0.30545-0.76742 0.69882-0.2763 0.78063-0.17368 1.9423-0.17368 1.9423s0.84372 0.6016 1.2068 0.84604l13.408 8.6899c1.8241 1.0884 2.5492 1.3681 4.0312 0.09653l1.288-1.4296c0.46133-0.47503 1.1963-1.473 1.1963-1.473s0.21593-1.0925 0.0756-2.0323c-0.0887-0.59429-0.55791-0.76537-1.4974-0.72835l-12.938-8.1089c-0.70622-0.44092-1.1292-0.68585-1.5625-0.70791z" fill="#808080"/><path d="m142.4 50.314 2.1308-1.4337c1.3807-1.1231 1.7171-0.90401 3.1296-0.04761l12.947 7.8501c1.9907 1.1324 1.6848 1.6038 0.59013 2.5832l-1.6702 1.8078c-1.482 1.2349-2.2083 0.96646-4.0324-0.09056l-13.181-8.5105c-1.5551-1.0771-1.5626-1.0941 0.086-2.1588z" fill="url(#h)"/></g><g transform="translate(-1.0714 -.17857)"><path d="m143.45 50.849 1.8876-1.2701c1.2231-0.99489 1.5212-0.80085 2.7724-0.04218l11.469 6.9542c1.7635 1.0032 1.4926 1.4208 0.52278 2.2884l-1.4796 1.6015c-1.3129 1.094-1.9562 0.85616-3.5722-0.08022l-11.677-7.5393c-1.3776-0.95415-1.3843-0.96928 0.0762-1.9124z" fill="none" filter="url(#p)" opacity=".21121" stroke="#fff" stroke-width=".88588"/></g><path d="m171.49 67.188c-0.68254 0.62196-2.1366 1.3464-2.6729 1.8998-0.13306 0.1373-0.20964 0.26406-0.20389 0.37609 9.8679 0.76909 17.976 9.0215 20.803 18.261 1.198-1.1842 3.4994-2.7919 2.0777-4.6601-2.8188-8.6691-10.542-16.548-20.004-15.877z" fill="#808080" opacity=".46552"/><g><g transform="translate(126.77 20.708)" clip-path="url(#q)"><path id="a" d="m-97.476 26.629c-0.26481 0-0.48118 0.2461-0.5579 0.58726-2.75e-4 0.0012-0.01441-0.0012-0.01468 0-0.46979 0-0.85153 0.2733-0.85153 0.60194 0 0.32864 0.38174 0.58726 0.85153 0.58726 2.71e-4 0.0012 0.01441-0.0012 0.01468 0 0.07672 0.34116 0.29308 0.58726 0.5579 0.58726 0.26522 0 0.48151-0.24529 0.5579-0.58726h0.01468c0.46979 0 0.85153-0.25862 0.85153-0.58726 0-0.32865-0.38174-0.60194-0.85153-0.60194h-0.01468c-0.07639-0.34197-0.29268-0.58726-0.5579-0.58726z" stroke="#1a1a1a"/><g fill="#000000" stroke="#1a1a1a"><use width="744.09448" height="1052.3622" xlink:href="#a"/><use transform="translate(2.8482 4.7274)" width="744.09448" height="1052.3622" xlink:href="#a"/><use transform="translate(5.6964 9.4549)" width="744.09448" height="1052.3622" xlink:href="#a"/><use transform="translate(8.5446 14.182)" width="744.09448" height="1052.3622" xlink:href="#a"/><use transform="translate(11.393 18.91)" width="744.09448" height="1052.3622" xlink:href="#a"/><use transform="translate(14.241 23.637)" width="744.09448" height="1052.3622" xlink:href="#a"/><use transform="translate(17.089 28.365)" width="744.09448" height="1052.3622" xlink:href="#a"/><use transform="translate(19.937 33.092)" width="744.09448" height="1052.3622" xlink:href="#a"/><use transform="translate(22.786 37.82)" width="744.09448" height="1052.3622" xlink:href="#a"/><use transform="translate(25.634 42.547)" width="744.09448" height="1052.3622" xlink:href="#a"/><use transform="translate(28.482 47.274)" width="744.09448" height="1052.3622" xlink:href="#a"/><use transform="translate(31.33 52.002)" width="744.09448" height="1052.3622" xlink:href="#a"/><use transform="translate(34.179 56.729)" width="744.09448" height="1052.3622" xlink:href="#a"/><use transform="translate(37.027 61.457)" width="744.09448" height="1052.3622" xlink:href="#a"/><use transform="translate(39.875 66.184)" width="744.09448" height="1052.3622" xlink:href="#a"/><use transform="translate(42.723 70.912)" width="744.09448" height="1052.3622" xlink:href="#a"/><use transform="translate(45.571 75.639)" width="744.09448" height="1052.3622" xlink:href="#a"/><use transform="translate(48.42 80.367)" width="744.09448" height="1052.3622" xlink:href="#a"/><use transform="translate(51.268 85.094)" width="744.09448" height="1052.3622" xlink:href="#a"/><use transform="translate(54.116 89.821)" width="744.09448" height="1052.3622" xlink:href="#a"/><use transform="translate(56.964 94.549)" width="744.09448" height="1052.3622" xlink:href="#a"/><use transform="translate(5.6964 2.3637)" width="744.09448" height="1052.3622" xlink:href="#a"/><use transform="translate(8.5446 7.0912)" width="744.09448" height="1052.3622" xlink:href="#a"/><use transform="translate(11.393 11.819)" width="744.09448" height="1052.3622" xlink:href="#a"/><use transform="translate(14.241 16.546)" width="744.09448" height="1052.3622" xlink:href="#a"/><use transform="translate(17.089 21.273)" width="744.09448" height="1052.3622" xlink:href="#a"/><use transform="translate(19.937 26.001)" width="744.09448" height="1052.3622" xlink:href="#a"/><use transform="translate(22.786 30.728)" width="744.09448" height="1052.3622" xlink:href="#a"/><use transform="translate(25.634 35.456)" width="744.09448" height="1052.3622" xlink:href="#a"/><use transform="translate(28.482 40.183)" width="744.09448" height="1052.3622" xlink:href="#a"/><use transform="translate(31.33 44.911)" width="744.09448" height="1052.3622" xlink:href="#a"/><use transform="translate(34.179 49.638)" width="744.09448" height="1052.3622" xlink:href="#a"/><use transform="translate(37.027 54.366)" width="744.09448" height="1052.3622" xlink:href="#a"/><use transform="translate(39.875 59.093)" width="744.09448" height="1052.3622" xlink:href="#a"/><use transform="translate(42.723 63.82)" width="744.09448" height="1052.3622" xlink:href="#a"/><use transform="translate(45.571 68.548)" width="744.09448" height="1052.3622" xlink:href="#a"/><use transform="translate(48.42 73.275)" width="744.09448" height="1052.3622" xlink:href="#a"/><use transform="translate(51.268 78.003)" width="744.09448" height="1052.3622" xlink:href="#a"/><use transform="translate(54.116 82.73)" width="744.09448" height="1052.3622" xlink:href="#a"/><use transform="translate(56.964 87.458)" width="744.09448" height="1052.3622" xlink:href="#a"/><use transform="translate(59.812 92.185)" width="744.09448" height="1052.3622" xlink:href="#a"/><use transform="translate(62.661 96.913)" width="744.09448" height="1052.3622" xlink:href="#a"/><use transform="translate(11.393 4.7274)" width="744.09448" height="1052.3622" xlink:href="#a"/><use transform="translate(14.241 9.4549)" width="744.09448" height="1052.3622" xlink:href="#a"/><use transform="translate(17.089 14.182)" width="744.09448" height="1052.3622" xlink:href="#a"/><use transform="translate(19.937 18.91)" width="744.09448" height="1052.3622" xlink:href="#a"/><use transform="translate(22.786 23.637)" width="744.09448" height="1052.3622" xlink:href="#a"/><use transform="translate(25.634 28.365)" width="744.09448" height="1052.3622" xlink:href="#a"/><use transform="translate(28.482 33.092)" width="744.09448" height="1052.3622" xlink:href="#a"/><use transform="translate(31.33 37.82)" width="744.09448" height="1052.3622" xlink:href="#a"/><use transform="translate(34.179 42.547)" width="744.09448" height="1052.3622" xlink:href="#a"/><use transform="translate(37.027 47.274)" width="744.09448" height="1052.3622" xlink:href="#a"/><use transform="translate(39.875 52.002)" width="744.09448" height="1052.3622" xlink:href="#a"/><use transform="translate(42.723 56.729)" width="744.09448" height="1052.3622" xlink:href="#a"/><use transform="translate(45.571 61.457)" width="744.09448" height="1052.3622" xlink:href="#a"/><use transform="translate(48.42 66.184)" width="744.09448" height="1052.3622" xlink:href="#a"/><use transform="translate(51.268 70.912)" width="744.09448" height="1052.3622" xlink:href="#a"/><use transform="translate(54.116 75.639)" width="744.09448" height="1052.3622" xlink:href="#a"/><use transform="translate(56.964 80.367)" width="744.09448" height="1052.3622" xlink:href="#a"/><use transform="translate(59.812 85.094)" width="744.09448" height="1052.3622" xlink:href="#a"/><use transform="translate(62.661 89.821)" width="744.09448" height="1052.3622" xlink:href="#a"/><use transform="translate(65.509 94.549)" width="744.09448" height="1052.3622" xlink:href="#a"/><use transform="translate(68.357 99.276)" width="744.09448" height="1052.3622" xlink:href="#a"/><use transform="translate(17.089 7.0912)" width="744.09448" height="1052.3622" xlink:href="#a"/><use transform="translate(19.937 11.819)" width="744.09448" height="1052.3622" xlink:href="#a"/><use transform="translate(22.786 16.546)" width="744.09448" height="1052.3622" xlink:href="#a"/><use transform="translate(25.634 21.273)" width="744.09448" height="1052.3622" xlink:href="#a"/><use transform="translate(28.482 26.001)" width="744.09448" height="1052.3622" xlink:href="#a"/><use transform="translate(31.33 30.728)" width="744.09448" height="1052.3622" xlink:href="#a"/><use transform="translate(34.179 35.456)" width="744.09448" height="1052.3622" xlink:href="#a"/><use transform="translate(37.027 40.183)" width="744.09448" height="1052.3622" xlink:href="#a"/><use transform="translate(39.875 44.911)" width="744.09448" height="1052.3622" xlink:href="#a"/><use transform="translate(42.723 49.638)" width="744.09448" height="1052.3622" xlink:href="#a"/><use transform="translate(45.571 54.366)" width="744.09448" height="1052.3622" xlink:href="#a"/><use transform="translate(48.42 59.093)" width="744.09448" height="1052.3622" xlink:href="#a"/><use transform="translate(51.268 63.82)" width="744.09448" height="1052.3622" xlink:href="#a"/><use transform="translate(54.116 68.548)" width="744.09448" height="1052.3622" xlink:href="#a"/><use transform="translate(56.964 73.275)" width="744.09448" height="1052.3622" xlink:href="#a"/><use transform="translate(59.812 78.003)" width="744.09448" height="1052.3622" xlink:href="#a"/><use transform="translate(62.661 82.73)" width="744.09448" height="1052.3622" xlink:href="#a"/><use transform="translate(65.509 87.458)" width="744.09448" height="1052.3622" xlink:href="#a"/><use transform="translate(68.357 92.185)" width="744.09448" height="1052.3622" xlink:href="#a"/><use transform="translate(71.205 96.913)" width="744.09448" height="1052.3622" xlink:href="#a"/><use transform="translate(74.053 101.64)" width="744.09448" height="1052.3622" xlink:href="#a"/><use transform="translate(22.786 9.4549)" width="744.09448" height="1052.3622" xlink:href="#a"/><use transform="translate(25.634 14.182)" width="744.09448" height="1052.3622" xlink:href="#a"/><use transform="translate(28.482 18.91)" width="744.09448" height="1052.3622" xlink:href="#a"/><use transform="translate(31.33 23.637)" width="744.09448" height="1052.3622" xlink:href="#a"/><use transform="translate(34.179 28.365)" width="744.09448" height="1052.3622" xlink:href="#a"/><use transform="translate(37.027 33.092)" width="744.09448" height="1052.3622" xlink:href="#a"/><use transform="translate(39.875 37.82)" width="744.09448" height="1052.3622" xlink:href="#a"/><use transform="translate(42.723 42.547)" width="744.09448" height="1052.3622" xlink:href="#a"/><use transform="translate(45.571 47.274)" width="744.09448" height="1052.3622" xlink:href="#a"/><use transform="translate(48.42 52.002)" width="744.09448" height="1052.3622" xlink:href="#a"/><use transform="translate(51.268 56.729)" width="744.09448" height="1052.3622" xlink:href="#a"/><use transform="translate(54.116 61.457)" width="744.09448" height="1052.3622" xlink:href="#a"/><use transform="translate(56.964 66.184)" width="744.09448" height="1052.3622" xlink:href="#a"/><use transform="translate(59.812 70.912)" width="744.09448" height="1052.3622" xlink:href="#a"/><use transform="translate(62.661 75.639)" width="744.09448" height="1052.3622" xlink:href="#a"/><use transform="translate(65.509 80.367)" width="744.09448" height="1052.3622" xlink:href="#a"/><use transform="translate(68.357 85.094)" width="744.09448" height="1052.3622" xlink:href="#a"/><use transform="translate(71.205 89.821)" width="744.09448" height="1052.3622" xlink:href="#a"/><use transform="translate(74.053 94.549)" width="744.09448" height="1052.3622" xlink:href="#a"/><use transform="translate(76.902 99.276)" width="744.09448" height="1052.3622" xlink:href="#a"/><use transform="translate(79.75 104)" width="744.09448" height="1052.3622" xlink:href="#a"/><use transform="translate(28.482 11.819)" width="744.09448" height="1052.3622" xlink:href="#a"/><use transform="translate(31.33 16.546)" width="744.09448" height="1052.3622" xlink:href="#a"/><use transform="translate(34.179 21.273)" width="744.09448" height="1052.3622" xlink:href="#a"/><use transform="translate(37.027 26.001)" width="744.09448" height="1052.3622" xlink:href="#a"/><use transform="translate(39.875 30.728)" width="744.09448" height="1052.3622" xlink:href="#a"/><use transform="translate(42.723 35.456)" width="744.09448" height="1052.3622" xlink:href="#a"/><use transform="translate(45.571 40.183)" width="744.09448" height="1052.3622" xlink:href="#a"/><use transform="translate(48.42 44.911)" width="744.09448" height="1052.3622" xlink:href="#a"/><use transform="translate(51.268 49.638)" width="744.09448" height="1052.3622" xlink:href="#a"/><use transform="translate(54.116 54.366)" width="744.09448" height="1052.3622" xlink:href="#a"/><use transform="translate(56.964 59.093)" width="744.09448" height="1052.3622" xlink:href="#a"/><use transform="translate(59.812 63.82)" width="744.09448" height="1052.3622" xlink:href="#a"/><use transform="translate(62.661 68.548)" width="744.09448" height="1052.3622" xlink:href="#a"/><use transform="translate(65.509 73.275)" width="744.09448" height="1052.3622" xlink:href="#a"/><use transform="translate(68.357 78.003)" width="744.09448" height="1052.3622" xlink:href="#a"/><use transform="translate(71.205 82.73)" width="744.09448" height="1052.3622" xlink:href="#a"/><use transform="translate(74.053 87.458)" width="744.09448" height="1052.3622" xlink:href="#a"/><use transform="translate(76.902 92.185)" width="744.09448" height="1052.3622" xlink:href="#a"/><use transform="translate(79.75 96.913)" width="744.09448" height="1052.3622" xlink:href="#a"/><use transform="translate(82.598 101.64)" width="744.09448" height="1052.3622" xlink:href="#a"/><use transform="translate(85.446 106.37)" width="744.09448" height="1052.3622" xlink:href="#a"/><use transform="translate(34.179 14.182)" width="744.09448" height="1052.3622" xlink:href="#a"/><use transform="translate(37.027 18.91)" width="744.09448" height="1052.3622" xlink:href="#a"/><use transform="translate(39.875 23.637)" width="744.09448" height="1052.3622" xlink:href="#a"/><use transform="translate(42.723 28.365)" width="744.09448" height="1052.3622" xlink:href="#a"/><use transform="translate(45.571 33.092)" width="744.09448" height="1052.3622" xlink:href="#a"/><use transform="translate(48.42 37.82)" width="744.09448" height="1052.3622" xlink:href="#a"/><use transform="translate(51.268 42.547)" width="744.09448" height="1052.3622" xlink:href="#a"/><use transform="translate(54.116 47.274)" width="744.09448" height="1052.3622" xlink:href="#a"/><use transform="translate(56.964 52.002)" width="744.09448" height="1052.3622" xlink:href="#a"/><use transform="translate(59.812 56.729)" width="744.09448" height="1052.3622" xlink:href="#a"/><use transform="translate(62.661 61.457)" width="744.09448" height="1052.3622" xlink:href="#a"/><use transform="translate(65.509 66.184)" width="744.09448" height="1052.3622" xlink:href="#a"/><use transform="translate(68.357 70.912)" width="744.09448" height="1052.3622" xlink:href="#a"/><use transform="translate(71.205 75.639)" width="744.09448" height="1052.3622" xlink:href="#a"/><use transform="translate(74.053 80.367)" width="744.09448" height="1052.3622" xlink:href="#a"/><use transform="translate(76.902 85.094)" width="744.09448" height="1052.3622" xlink:href="#a"/><use transform="translate(79.75 89.821)" width="744.09448" height="1052.3622" xlink:href="#a"/><use transform="translate(82.598 94.549)" width="744.09448" height="1052.3622" xlink:href="#a"/><use transform="translate(85.446 99.276)" width="744.09448" height="1052.3622" xlink:href="#a"/><use transform="translate(88.295 104)" width="744.09448" height="1052.3622" xlink:href="#a"/><use transform="translate(91.143 108.73)" width="744.09448" height="1052.3622" xlink:href="#a"/><use transform="translate(39.875 16.546)" width="744.09448" height="1052.3622" xlink:href="#a"/><use transform="translate(42.723 21.273)" width="744.09448" height="1052.3622" xlink:href="#a"/><use transform="translate(45.571 26.001)" width="744.09448" height="1052.3622" xlink:href="#a"/><use transform="translate(48.42 30.728)" width="744.09448" height="1052.3622" xlink:href="#a"/><use transform="translate(51.268 35.456)" width="744.09448" height="1052.3622" xlink:href="#a"/><use transform="translate(54.116 40.183)" width="744.09448" height="1052.3622" xlink:href="#a"/><use transform="translate(56.964 44.911)" width="744.09448" height="1052.3622" xlink:href="#a"/><use transform="translate(59.812 49.638)" width="744.09448" height="1052.3622" xlink:href="#a"/><use transform="translate(62.661 54.366)" width="744.09448" height="1052.3622" xlink:href="#a"/><use transform="translate(65.509 59.093)" width="744.09448" height="1052.3622" xlink:href="#a"/><use transform="translate(68.357 63.82)" width="744.09448" height="1052.3622" xlink:href="#a"/><use transform="translate(71.205 68.548)" width="744.09448" height="1052.3622" xlink:href="#a"/><use transform="translate(74.053 73.275)" width="744.09448" height="1052.3622" xlink:href="#a"/><use transform="translate(76.902 78.003)" width="744.09448" height="1052.3622" xlink:href="#a"/><use transform="translate(79.75 82.73)" width="744.09448" height="1052.3622" xlink:href="#a"/><use transform="translate(82.598 87.458)" width="744.09448" height="1052.3622" xlink:href="#a"/><use transform="translate(85.446 92.185)" width="744.09448" height="1052.3622" xlink:href="#a"/><use transform="translate(88.295 96.913)" width="744.09448" height="1052.3622" xlink:href="#a"/><use transform="translate(91.143 101.64)" width="744.09448" height="1052.3622" xlink:href="#a"/><use transform="translate(93.991 106.37)" width="744.09448" height="1052.3622" xlink:href="#a"/><use transform="translate(96.839 111.09)" width="744.09448" height="1052.3622" xlink:href="#a"/><use transform="translate(45.571 18.91)" width="744.09448" height="1052.3622" xlink:href="#a"/><use transform="translate(48.42 23.637)" width="744.09448" height="1052.3622" xlink:href="#a"/><use transform="translate(51.268 28.365)" width="744.09448" height="1052.3622" xlink:href="#a"/><use transform="translate(54.116 33.092)" width="744.09448" height="1052.3622" xlink:href="#a"/><use transform="translate(56.964 37.82)" width="744.09448" height="1052.3622" xlink:href="#a"/><use transform="translate(59.812 42.547)" width="744.09448" height="1052.3622" xlink:href="#a"/><use transform="translate(62.661 47.274)" width="744.09448" height="1052.3622" xlink:href="#a"/><use transform="translate(65.509 52.002)" width="744.09448" height="1052.3622" xlink:href="#a"/><use transform="translate(68.357 56.729)" width="744.09448" height="1052.3622" xlink:href="#a"/><use transform="translate(71.205 61.457)" width="744.09448" height="1052.3622" xlink:href="#a"/><use transform="translate(74.053 66.184)" width="744.09448" height="1052.3622" xlink:href="#a"/><use transform="translate(76.902 70.912)" width="744.09448" height="1052.3622" xlink:href="#a"/><use transform="translate(79.75 75.639)" width="744.09448" height="1052.3622" xlink:href="#a"/><use transform="translate(82.598 80.367)" width="744.09448" height="1052.3622" xlink:href="#a"/><use transform="translate(85.446 85.094)" width="744.09448" height="1052.3622" xlink:href="#a"/><use transform="translate(88.295 89.821)" width="744.09448" height="1052.3622" xlink:href="#a"/><use transform="translate(91.143 94.549)" width="744.09448" height="1052.3622" xlink:href="#a"/><use transform="translate(93.991 99.276)" width="744.09448" height="1052.3622" xlink:href="#a"/><use transform="translate(96.839 104)" width="744.09448" height="1052.3622" xlink:href="#a"/><use transform="translate(99.687 108.73)" width="744.09448" height="1052.3622" xlink:href="#a"/><use transform="translate(102.54 113.46)" width="744.09448" height="1052.3622" xlink:href="#a"/><use transform="translate(51.268 21.273)" width="744.09448" height="1052.3622" xlink:href="#a"/><use transform="translate(54.116 26.001)" width="744.09448" height="1052.3622" xlink:href="#a"/><use transform="translate(56.964 30.728)" width="744.09448" height="1052.3622" xlink:href="#a"/><use transform="translate(59.812 35.456)" width="744.09448" height="1052.3622" xlink:href="#a"/><use transform="translate(62.661 40.183)" width="744.09448" height="1052.3622" xlink:href="#a"/><use transform="translate(65.509 44.911)" width="744.09448" height="1052.3622" xlink:href="#a"/><use transform="translate(68.357 49.638)" width="744.09448" height="1052.3622" xlink:href="#a"/><use transform="translate(71.205 54.366)" width="744.09448" height="1052.3622" xlink:href="#a"/><use transform="translate(74.053 59.093)" width="744.09448" height="1052.3622" xlink:href="#a"/><use transform="translate(76.902 63.82)" width="744.09448" height="1052.3622" xlink:href="#a"/><use transform="translate(79.75 68.548)" width="744.09448" height="1052.3622" xlink:href="#a"/><use transform="translate(82.598 73.275)" width="744.09448" height="1052.3622" xlink:href="#a"/><use transform="translate(85.446 78.003)" width="744.09448" height="1052.3622" xlink:href="#a"/><use transform="translate(88.295 82.73)" width="744.09448" height="1052.3622" xlink:href="#a"/><use transform="translate(91.143 87.458)" width="744.09448" height="1052.3622" xlink:href="#a"/><use transform="translate(93.991 92.185)" width="744.09448" height="1052.3622" xlink:href="#a"/><use transform="translate(96.839 96.913)" width="744.09448" height="1052.3622" xlink:href="#a"/><use transform="translate(99.687 101.64)" width="744.09448" height="1052.3622" xlink:href="#a"/><use transform="translate(102.54 106.37)" width="744.09448" height="1052.3622" xlink:href="#a"/><use transform="translate(105.38 111.09)" width="744.09448" height="1052.3622" xlink:href="#a"/><use transform="translate(108.23 115.82)" width="744.09448" height="1052.3622" xlink:href="#a"/><use transform="translate(56.964 23.637)" width="744.09448" height="1052.3622" xlink:href="#a"/><use transform="translate(59.812 28.365)" width="744.09448" height="1052.3622" xlink:href="#a"/><use transform="translate(62.661 33.092)" width="744.09448" height="1052.3622" xlink:href="#a"/><use transform="translate(65.509 37.82)" width="744.09448" height="1052.3622" xlink:href="#a"/><use transform="translate(68.357 42.547)" width="744.09448" height="1052.3622" xlink:href="#a"/><use transform="translate(71.205 47.274)" width="744.09448" height="1052.3622" xlink:href="#a"/><use transform="translate(74.053 52.002)" width="744.09448" height="1052.3622" xlink:href="#a"/><use transform="translate(76.902 56.729)" width="744.09448" height="1052.3622" xlink:href="#a"/><use transform="translate(79.75 61.457)" width="744.09448" height="1052.3622" xlink:href="#a"/><use transform="translate(82.598 66.184)" width="744.09448" height="1052.3622" xlink:href="#a"/><use transform="translate(85.446 70.912)" width="744.09448" height="1052.3622" xlink:href="#a"/><use transform="translate(88.295 75.639)" width="744.09448" height="1052.3622" xlink:href="#a"/><use transform="translate(91.143 80.367)" width="744.09448" height="1052.3622" xlink:href="#a"/><use transform="translate(93.991 85.094)" width="744.09448" height="1052.3622" xlink:href="#a"/><use transform="translate(96.839 89.821)" width="744.09448" height="1052.3622" xlink:href="#a"/><use transform="translate(99.687 94.549)" width="744.09448" height="1052.3622" xlink:href="#a"/><use transform="translate(102.54 99.276)" width="744.09448" height="1052.3622" xlink:href="#a"/><use transform="translate(105.38 104)" width="744.09448" height="1052.3622" xlink:href="#a"/><use transform="translate(108.23 108.73)" width="744.09448" height="1052.3622" xlink:href="#a"/><use transform="translate(111.08 113.46)" width="744.09448" height="1052.3622" xlink:href="#a"/><use transform="translate(113.93 118.19)" width="744.09448" height="1052.3622" xlink:href="#a"/><use transform="translate(62.661 26.001)" width="744.09448" height="1052.3622" xlink:href="#a"/><use transform="translate(65.509 30.728)" width="744.09448" height="1052.3622" xlink:href="#a"/><use transform="translate(68.357 35.456)" width="744.09448" height="1052.3622" xlink:href="#a"/><use transform="translate(71.205 40.183)" width="744.09448" height="1052.3622" xlink:href="#a"/><use transform="translate(74.053 44.911)" width="744.09448" height="1052.3622" xlink:href="#a"/><use transform="translate(76.902 49.638)" width="744.09448" height="1052.3622" xlink:href="#a"/><use transform="translate(79.75 54.366)" width="744.09448" height="1052.3622" xlink:href="#a"/><use transform="translate(82.598 59.093)" width="744.09448" height="1052.3622" xlink:href="#a"/><use transform="translate(85.446 63.82)" width="744.09448" height="1052.3622" xlink:href="#a"/><use transform="translate(88.295 68.548)" width="744.09448" height="1052.3622" xlink:href="#a"/><use transform="translate(91.143 73.275)" width="744.09448" height="1052.3622" xlink:href="#a"/><use transform="translate(93.991 78.003)" width="744.09448" height="1052.3622" xlink:href="#a"/><use transform="translate(96.839 82.73)" width="744.09448" height="1052.3622" xlink:href="#a"/><use transform="translate(99.687 87.458)" width="744.09448" height="1052.3622" xlink:href="#a"/><use transform="translate(102.54 92.185)" width="744.09448" height="1052.3622" xlink:href="#a"/><use transform="translate(105.38 96.913)" width="744.09448" height="1052.3622" xlink:href="#a"/><use transform="translate(108.23 101.64)" width="744.09448" height="1052.3622" xlink:href="#a"/><use transform="translate(111.08 106.37)" width="744.09448" height="1052.3622" xlink:href="#a"/><use transform="translate(113.93 111.09)" width="744.09448" height="1052.3622" xlink:href="#a"/><use transform="translate(116.78 115.82)" width="744.09448" height="1052.3622" xlink:href="#a"/><use transform="translate(119.62 120.55)" width="744.09448" height="1052.3622" xlink:href="#a"/><use transform="translate(68.357 28.365)" width="744.09448" height="1052.3622" xlink:href="#a"/><use transform="translate(71.205 33.092)" width="744.09448" height="1052.3622" xlink:href="#a"/><use transform="translate(74.053 37.82)" width="744.09448" height="1052.3622" xlink:href="#a"/><use transform="translate(76.902 42.547)" width="744.09448" height="1052.3622" xlink:href="#a"/><use transform="translate(79.75 47.274)" width="744.09448" height="1052.3622" xlink:href="#a"/><use transform="translate(82.598 52.002)" width="744.09448" height="1052.3622" xlink:href="#a"/><use transform="translate(85.446 56.729)" width="744.09448" height="1052.3622" xlink:href="#a"/><use transform="translate(88.295 61.457)" width="744.09448" height="1052.3622" xlink:href="#a"/><use transform="translate(91.143 66.184)" width="744.09448" height="1052.3622" xlink:href="#a"/><use transform="translate(93.991 70.912)" width="744.09448" height="1052.3622" xlink:href="#a"/><use transform="translate(96.839 75.639)" width="744.09448" height="1052.3622" xlink:href="#a"/><use transform="translate(99.687 80.367)" width="744.09448" height="1052.3622" xlink:href="#a"/><use transform="translate(102.54 85.094)" width="744.09448" height="1052.3622" xlink:href="#a"/><use transform="translate(105.38 89.821)" width="744.09448" height="1052.3622" xlink:href="#a"/><use transform="translate(108.23 94.549)" width="744.09448" height="1052.3622" xlink:href="#a"/><use transform="translate(111.08 99.276)" width="744.09448" height="1052.3622" xlink:href="#a"/><use transform="translate(113.93 104)" width="744.09448" height="1052.3622" xlink:href="#a"/><use transform="translate(116.78 108.73)" width="744.09448" height="1052.3622" xlink:href="#a"/><use transform="translate(119.62 113.46)" width="744.09448" height="1052.3622" xlink:href="#a"/><use transform="translate(122.47 118.19)" width="744.09448" height="1052.3622" xlink:href="#a"/><use transform="translate(125.32 122.91)" width="744.09448" height="1052.3622" xlink:href="#a"/><use transform="translate(74.053 30.728)" width="744.09448" height="1052.3622" xlink:href="#a"/><use transform="translate(76.902 35.456)" width="744.09448" height="1052.3622" xlink:href="#a"/><use transform="translate(79.75 40.183)" width="744.09448" height="1052.3622" xlink:href="#a"/><use transform="translate(82.598 44.911)" width="744.09448" height="1052.3622" xlink:href="#a"/><use transform="translate(85.446 49.638)" width="744.09448" height="1052.3622" xlink:href="#a"/><use transform="translate(88.295 54.366)" width="744.09448" height="1052.3622" xlink:href="#a"/><use transform="translate(91.143 59.093)" width="744.09448" height="1052.3622" xlink:href="#a"/><use transform="translate(93.991 63.82)" width="744.09448" height="1052.3622" xlink:href="#a"/><use transform="translate(96.839 68.548)" width="744.09448" height="1052.3622" xlink:href="#a"/><use transform="translate(99.687 73.275)" width="744.09448" height="1052.3622" xlink:href="#a"/><use transform="translate(102.54 78.003)" width="744.09448" height="1052.3622" xlink:href="#a"/><use transform="translate(105.38 82.73)" width="744.09448" height="1052.3622" xlink:href="#a"/><use transform="translate(108.23 87.458)" width="744.09448" height="1052.3622" xlink:href="#a"/><use transform="translate(111.08 92.185)" width="744.09448" height="1052.3622" xlink:href="#a"/><use transform="translate(113.93 96.913)" width="744.09448" height="1052.3622" xlink:href="#a"/><use transform="translate(116.78 101.64)" width="744.09448" height="1052.3622" xlink:href="#a"/><use transform="translate(119.62 106.37)" width="744.09448" height="1052.3622" xlink:href="#a"/><use transform="translate(122.47 111.09)" width="744.09448" height="1052.3622" xlink:href="#a"/><use transform="translate(125.32 115.82)" width="744.09448" height="1052.3622" xlink:href="#a"/><use transform="translate(128.17 120.55)" width="744.09448" height="1052.3622" xlink:href="#a"/><use transform="translate(131.02 125.28)" width="744.09448" height="1052.3622" xlink:href="#a"/><use transform="translate(79.75 33.092)" width="744.09448" height="1052.3622" xlink:href="#a"/><use transform="translate(82.598 37.82)" width="744.09448" height="1052.3622" xlink:href="#a"/><use transform="translate(85.446 42.547)" width="744.09448" height="1052.3622" xlink:href="#a"/><use transform="translate(88.295 47.274)" width="744.09448" height="1052.3622" xlink:href="#a"/><use transform="translate(91.143 52.002)" width="744.09448" height="1052.3622" xlink:href="#a"/><use transform="translate(93.991 56.729)" width="744.09448" height="1052.3622" xlink:href="#a"/><use transform="translate(96.839 61.457)" width="744.09448" height="1052.3622" xlink:href="#a"/><use transform="translate(99.687 66.184)" width="744.09448" height="1052.3622" xlink:href="#a"/><use transform="translate(102.54 70.912)" width="744.09448" height="1052.3622" xlink:href="#a"/><use transform="translate(105.38 75.639)" width="744.09448" height="1052.3622" xlink:href="#a"/><use transform="translate(108.23 80.367)" width="744.09448" height="1052.3622" xlink:href="#a"/><use transform="translate(111.08 85.094)" width="744.09448" height="1052.3622" xlink:href="#a"/><use transform="translate(113.93 89.821)" width="744.09448" height="1052.3622" xlink:href="#a"/><use transform="translate(116.78 94.549)" width="744.09448" height="1052.3622" xlink:href="#a"/><use transform="translate(119.62 99.276)" width="744.09448" height="1052.3622" xlink:href="#a"/><use transform="translate(122.47 104)" width="744.09448" height="1052.3622" xlink:href="#a"/><use transform="translate(125.32 108.73)" width="744.09448" height="1052.3622" xlink:href="#a"/><use transform="translate(128.17 113.46)" width="744.09448" height="1052.3622" xlink:href="#a"/><use transform="translate(131.02 118.19)" width="744.09448" height="1052.3622" xlink:href="#a"/><use transform="translate(133.87 122.91)" width="744.09448" height="1052.3622" xlink:href="#a"/><use transform="translate(136.71 127.64)" width="744.09448" height="1052.3622" xlink:href="#a"/><use transform="translate(85.446 35.456)" width="744.09448" height="1052.3622" xlink:href="#a"/><use transform="translate(88.295 40.183)" width="744.09448" height="1052.3622" xlink:href="#a"/><use transform="translate(91.143 44.911)" width="744.09448" height="1052.3622" xlink:href="#a"/><use transform="translate(93.991 49.638)" width="744.09448" height="1052.3622" xlink:href="#a"/><use transform="translate(96.839 54.366)" width="744.09448" height="1052.3622" xlink:href="#a"/><use transform="translate(99.687 59.093)" width="744.09448" height="1052.3622" xlink:href="#a"/><use transform="translate(102.54 63.82)" width="744.09448" height="1052.3622" xlink:href="#a"/><use transform="translate(105.38 68.548)" width="744.09448" height="1052.3622" xlink:href="#a"/><use transform="translate(108.23 73.275)" width="744.09448" height="1052.3622" xlink:href="#a"/><use transform="translate(111.08 78.003)" width="744.09448" height="1052.3622" xlink:href="#a"/><use transform="translate(113.93 82.73)" width="744.09448" height="1052.3622" xlink:href="#a"/><use transform="translate(116.78 87.458)" width="744.09448" height="1052.3622" xlink:href="#a"/><use transform="translate(119.62 92.185)" width="744.09448" height="1052.3622" xlink:href="#a"/><use transform="translate(122.47 96.913)" width="744.09448" height="1052.3622" xlink:href="#a"/><use transform="translate(125.32 101.64)" width="744.09448" height="1052.3622" xlink:href="#a"/><use transform="translate(128.17 106.37)" width="744.09448" height="1052.3622" xlink:href="#a"/><use transform="translate(131.02 111.09)" width="744.09448" height="1052.3622" xlink:href="#a"/><use transform="translate(133.87 115.82)" width="744.09448" height="1052.3622" xlink:href="#a"/><use transform="translate(136.71 120.55)" width="744.09448" height="1052.3622" xlink:href="#a"/><use transform="translate(139.56 125.28)" width="744.09448" height="1052.3622" xlink:href="#a"/><use transform="translate(142.41 130)" width="744.09448" height="1052.3622" xlink:href="#a"/><use transform="translate(91.143 37.82)" width="744.09448" height="1052.3622" xlink:href="#a"/><use transform="translate(93.991 42.547)" width="744.09448" height="1052.3622" xlink:href="#a"/><use transform="translate(96.839 47.274)" width="744.09448" height="1052.3622" xlink:href="#a"/><use transform="translate(99.687 52.002)" width="744.09448" height="1052.3622" xlink:href="#a"/><use transform="translate(102.54 56.729)" width="744.09448" height="1052.3622" xlink:href="#a"/><use transform="translate(105.38 61.457)" width="744.09448" height="1052.3622" xlink:href="#a"/><use transform="translate(108.23 66.184)" width="744.09448" height="1052.3622" xlink:href="#a"/><use transform="translate(111.08 70.912)" width="744.09448" height="1052.3622" xlink:href="#a"/><use transform="translate(113.93 75.639)" width="744.09448" height="1052.3622" xlink:href="#a"/><use transform="translate(116.78 80.367)" width="744.09448" height="1052.3622" xlink:href="#a"/><use transform="translate(119.62 85.094)" width="744.09448" height="1052.3622" xlink:href="#a"/><use transform="translate(122.47 89.821)" width="744.09448" height="1052.3622" xlink:href="#a"/><use transform="translate(125.32 94.549)" width="744.09448" height="1052.3622" xlink:href="#a"/><use transform="translate(128.17 99.276)" width="744.09448" height="1052.3622" xlink:href="#a"/><use transform="translate(131.02 104)" width="744.09448" height="1052.3622" xlink:href="#a"/><use transform="translate(133.87 108.73)" width="744.09448" height="1052.3622" xlink:href="#a"/><use transform="translate(136.71 113.46)" width="744.09448" height="1052.3622" xlink:href="#a"/><use transform="translate(139.56 118.19)" width="744.09448" height="1052.3622" xlink:href="#a"/><use transform="translate(142.41 122.91)" width="744.09448" height="1052.3622" xlink:href="#a"/><use transform="translate(145.26 127.64)" width="744.09448" height="1052.3622" xlink:href="#a"/><use transform="translate(148.11 132.37)" width="744.09448" height="1052.3622" xlink:href="#a"/><use transform="translate(96.839 40.183)" width="744.09448" height="1052.3622" xlink:href="#a"/><use transform="translate(99.687 44.911)" width="744.09448" height="1052.3622" xlink:href="#a"/><use transform="translate(102.54 49.638)" width="744.09448" height="1052.3622" xlink:href="#a"/><use transform="translate(105.38 54.366)" width="744.09448" height="1052.3622" xlink:href="#a"/><use transform="translate(108.23 59.093)" width="744.09448" height="1052.3622" xlink:href="#a"/><use transform="translate(111.08 63.82)" width="744.09448" height="1052.3622" xlink:href="#a"/><use transform="translate(113.93 68.548)" width="744.09448" height="1052.3622" xlink:href="#a"/><use transform="translate(116.78 73.275)" width="744.09448" height="1052.3622" xlink:href="#a"/><use transform="translate(119.62 78.003)" width="744.09448" height="1052.3622" xlink:href="#a"/><use transform="translate(122.47 82.73)" width="744.09448" height="1052.3622" xlink:href="#a"/><use transform="translate(125.32 87.458)" width="744.09448" height="1052.3622" xlink:href="#a"/><use transform="translate(128.17 92.185)" width="744.09448" height="1052.3622" xlink:href="#a"/><use transform="translate(131.02 96.913)" width="744.09448" height="1052.3622" xlink:href="#a"/><use transform="translate(133.87 101.64)" width="744.09448" height="1052.3622" xlink:href="#a"/><use transform="translate(136.71 106.37)" width="744.09448" height="1052.3622" xlink:href="#a"/><use transform="translate(139.56 111.09)" width="744.09448" height="1052.3622" xlink:href="#a"/><use transform="translate(142.41 115.82)" width="744.09448" height="1052.3622" xlink:href="#a"/><use transform="translate(145.26 120.55)" width="744.09448" height="1052.3622" xlink:href="#a"/><use transform="translate(148.11 125.28)" width="744.09448" height="1052.3622" xlink:href="#a"/><use transform="translate(150.96 130)" width="744.09448" height="1052.3622" xlink:href="#a"/><use transform="translate(153.8 134.73)" width="744.09448" height="1052.3622" xlink:href="#a"/><use transform="translate(102.54 42.547)" width="744.09448" height="1052.3622" xlink:href="#a"/><use transform="translate(105.38 47.274)" width="744.09448" height="1052.3622" xlink:href="#a"/><use transform="translate(108.23 52.002)" width="744.09448" height="1052.3622" xlink:href="#a"/><use transform="translate(111.08 56.729)" width="744.09448" height="1052.3622" xlink:href="#a"/><use transform="translate(113.93 61.457)" width="744.09448" height="1052.3622" xlink:href="#a"/><use transform="translate(116.78 66.184)" width="744.09448" height="1052.3622" xlink:href="#a"/><use transform="translate(119.62 70.912)" width="744.09448" height="1052.3622" xlink:href="#a"/><use transform="translate(122.47 75.639)" width="744.09448" height="1052.3622" xlink:href="#a"/><use transform="translate(125.32 80.367)" width="744.09448" height="1052.3622" xlink:href="#a"/><use transform="translate(128.17 85.094)" width="744.09448" height="1052.3622" xlink:href="#a"/><use transform="translate(131.02 89.821)" width="744.09448" height="1052.3622" xlink:href="#a"/><use transform="translate(133.87 94.549)" width="744.09448" height="1052.3622" xlink:href="#a"/><use transform="translate(136.71 99.276)" width="744.09448" height="1052.3622" xlink:href="#a"/><use transform="translate(139.56 104)" width="744.09448" height="1052.3622" xlink:href="#a"/><use transform="translate(142.41 108.73)" width="744.09448" height="1052.3622" xlink:href="#a"/><use transform="translate(145.26 113.46)" width="744.09448" height="1052.3622" xlink:href="#a"/><use transform="translate(148.11 118.19)" width="744.09448" height="1052.3622" xlink:href="#a"/><use transform="translate(150.96 122.91)" width="744.09448" height="1052.3622" xlink:href="#a"/><use transform="translate(153.8 127.64)" width="744.09448" height="1052.3622" xlink:href="#a"/><use transform="translate(156.65 132.37)" width="744.09448" height="1052.3622" xlink:href="#a"/><use transform="translate(159.5 137.1)" width="744.09448" height="1052.3622" xlink:href="#a"/><use transform="translate(108.23 44.911)" width="744.09448" height="1052.3622" xlink:href="#a"/><use transform="translate(111.08 49.638)" width="744.09448" height="1052.3622" xlink:href="#a"/><use transform="translate(113.93 54.366)" width="744.09448" height="1052.3622" xlink:href="#a"/><use transform="translate(116.78 59.093)" width="744.09448" height="1052.3622" xlink:href="#a"/><use transform="translate(119.62 63.82)" width="744.09448" height="1052.3622" xlink:href="#a"/><use transform="translate(122.47 68.548)" width="744.09448" height="1052.3622" xlink:href="#a"/><use transform="translate(125.32 73.275)" width="744.09448" height="1052.3622" xlink:href="#a"/><use transform="translate(128.17 78.003)" width="744.09448" height="1052.3622" xlink:href="#a"/><use transform="translate(131.02 82.73)" width="744.09448" height="1052.3622" xlink:href="#a"/><use transform="translate(133.87 87.458)" width="744.09448" height="1052.3622" xlink:href="#a"/><use transform="translate(136.71 92.185)" width="744.09448" height="1052.3622" xlink:href="#a"/><use transform="translate(139.56 96.913)" width="744.09448" height="1052.3622" xlink:href="#a"/><use transform="translate(142.41 101.64)" width="744.09448" height="1052.3622" xlink:href="#a"/><use transform="translate(145.26 106.37)" width="744.09448" height="1052.3622" xlink:href="#a"/><use transform="translate(148.11 111.09)" width="744.09448" height="1052.3622" xlink:href="#a"/><use transform="translate(150.96 115.82)" width="744.09448" height="1052.3622" xlink:href="#a"/><use transform="translate(153.8 120.55)" width="744.09448" height="1052.3622" xlink:href="#a"/><use transform="translate(156.65 125.28)" width="744.09448" height="1052.3622" xlink:href="#a"/><use transform="translate(159.5 130)" width="744.09448" height="1052.3622" xlink:href="#a"/><use transform="translate(162.35 134.73)" width="744.09448" height="1052.3622" xlink:href="#a"/><use transform="translate(165.2 139.46)" width="744.09448" height="1052.3622" xlink:href="#a"/><use transform="translate(113.93 47.274)" width="744.09448" height="1052.3622" xlink:href="#a"/><use transform="translate(116.78 52.002)" width="744.09448" height="1052.3622" xlink:href="#a"/><use transform="translate(119.62 56.729)" width="744.09448" height="1052.3622" xlink:href="#a"/><use transform="translate(122.47 61.457)" width="744.09448" height="1052.3622" xlink:href="#a"/><use transform="translate(125.32 66.184)" width="744.09448" height="1052.3622" xlink:href="#a"/><use transform="translate(128.17 70.912)" width="744.09448" height="1052.3622" xlink:href="#a"/><use transform="translate(131.02 75.639)" width="744.09448" height="1052.3622" xlink:href="#a"/><use transform="translate(133.87 80.367)" width="744.09448" height="1052.3622" xlink:href="#a"/><use transform="translate(136.71 85.094)" width="744.09448" height="1052.3622" xlink:href="#a"/><use transform="translate(139.56 89.821)" width="744.09448" height="1052.3622" xlink:href="#a"/><use transform="translate(142.41 94.549)" width="744.09448" height="1052.3622" xlink:href="#a"/><use transform="translate(145.26 99.276)" width="744.09448" height="1052.3622" xlink:href="#a"/><use transform="translate(148.11 104)" width="744.09448" height="1052.3622" xlink:href="#a"/><use transform="translate(150.96 108.73)" width="744.09448" height="1052.3622" xlink:href="#a"/><use transform="translate(153.8 113.46)" width="744.09448" height="1052.3622" xlink:href="#a"/><use transform="translate(156.65 118.19)" width="744.09448" height="1052.3622" xlink:href="#a"/><use transform="translate(159.5 122.91)" width="744.09448" height="1052.3622" xlink:href="#a"/><use transform="translate(162.35 127.64)" width="744.09448" height="1052.3622" xlink:href="#a"/><use transform="translate(165.2 132.37)" width="744.09448" height="1052.3622" xlink:href="#a"/><use transform="translate(168.04 137.1)" width="744.09448" height="1052.3622" xlink:href="#a"/><use transform="translate(170.89 141.82)" width="744.09448" height="1052.3622" xlink:href="#a"/><use transform="translate(119.62 49.638)" width="744.09448" height="1052.3622" xlink:href="#a"/><use transform="translate(122.47 54.366)" width="744.09448" height="1052.3622" xlink:href="#a"/><use transform="translate(125.32 59.093)" width="744.09448" height="1052.3622" xlink:href="#a"/><use transform="translate(128.17 63.82)" width="744.09448" height="1052.3622" xlink:href="#a"/><use transform="translate(131.02 68.548)" width="744.09448" height="1052.3622" xlink:href="#a"/><use transform="translate(133.87 73.275)" width="744.09448" height="1052.3622" xlink:href="#a"/><use transform="translate(136.71 78.003)" width="744.09448" height="1052.3622" xlink:href="#a"/><use transform="translate(139.56 82.73)" width="744.09448" height="1052.3622" xlink:href="#a"/><use transform="translate(142.41 87.458)" width="744.09448" height="1052.3622" xlink:href="#a"/><use transform="translate(145.26 92.185)" width="744.09448" height="1052.3622" xlink:href="#a"/><use transform="translate(148.11 96.913)" width="744.09448" height="1052.3622" xlink:href="#a"/><use transform="translate(150.96 101.64)" width="744.09448" height="1052.3622" xlink:href="#a"/><use transform="translate(153.8 106.37)" width="744.09448" height="1052.3622" xlink:href="#a"/><use transform="translate(156.65 111.09)" width="744.09448" height="1052.3622" xlink:href="#a"/><use transform="translate(159.5 115.82)" width="744.09448" height="1052.3622" xlink:href="#a"/><use transform="translate(162.35 120.55)" width="744.09448" height="1052.3622" xlink:href="#a"/><use transform="translate(165.2 125.28)" width="744.09448" height="1052.3622" xlink:href="#a"/><use transform="translate(168.04 130)" width="744.09448" height="1052.3622" xlink:href="#a"/><use transform="translate(170.89 134.73)" width="744.09448" height="1052.3622" xlink:href="#a"/><use transform="translate(173.74 139.46)" width="744.09448" height="1052.3622" xlink:href="#a"/><use transform="translate(176.59 144.19)" width="744.09448" height="1052.3622" xlink:href="#a"/><use transform="translate(125.32 52.002)" width="744.09448" height="1052.3622" xlink:href="#a"/><use transform="translate(128.17 56.729)" width="744.09448" height="1052.3622" xlink:href="#a"/><use transform="translate(131.02 61.457)" width="744.09448" height="1052.3622" xlink:href="#a"/><use transform="translate(133.87 66.184)" width="744.09448" height="1052.3622" xlink:href="#a"/><use transform="translate(136.71 70.912)" width="744.09448" height="1052.3622" xlink:href="#a"/><use transform="translate(139.56 75.639)" width="744.09448" height="1052.3622" xlink:href="#a"/><use transform="translate(142.41 80.367)" width="744.09448" height="1052.3622" xlink:href="#a"/><use transform="translate(145.26 85.094)" width="744.09448" height="1052.3622" xlink:href="#a"/><use transform="translate(148.11 89.821)" width="744.09448" height="1052.3622" xlink:href="#a"/><use transform="translate(150.96 94.549)" width="744.09448" height="1052.3622" xlink:href="#a"/><use transform="translate(153.8 99.276)" width="744.09448" height="1052.3622" xlink:href="#a"/><use transform="translate(156.65 104)" width="744.09448" height="1052.3622" xlink:href="#a"/><use transform="translate(159.5 108.73)" width="744.09448" height="1052.3622" xlink:href="#a"/><use transform="translate(162.35 113.46)" width="744.09448" height="1052.3622" xlink:href="#a"/><use transform="translate(165.2 118.19)" width="744.09448" height="1052.3622" xlink:href="#a"/><use transform="translate(168.04 122.91)" width="744.09448" height="1052.3622" xlink:href="#a"/><use transform="translate(170.89 127.64)" width="744.09448" height="1052.3622" xlink:href="#a"/><use transform="translate(173.74 132.37)" width="744.09448" height="1052.3622" xlink:href="#a"/><use transform="translate(176.59 137.1)" width="744.09448" height="1052.3622" xlink:href="#a"/><use transform="translate(179.44 141.82)" width="744.09448" height="1052.3622" xlink:href="#a"/><use transform="translate(182.29 146.55)" width="744.09448" height="1052.3622" xlink:href="#a"/></g></g><path transform="matrix(.99998 .0059282 -.0059282 .99998 -3.1933 -2.7787)" d="m62.988 67.034c-4.3903-0.46316-10.178-0.03734-11.915 3.5247-1.2935 4.3281-0.5302 9.1957 1.4524 13.42 4.8318 8.4268 14.755 14.433 24.288 19.769 14.22 7.5139 29.852 13.452 44.595 20.408 12.72 5.7411 25.903 11.437 40.339 13.565 4.9839 0.70151 9.6223-0.64751 14.12-1.9442-14.873-3.1536-26.905-11.351-38.522-18.962-17.537-11.831-33.259-25.193-49.096-38.348-7.0498-5.165-15.312-10.582-25.262-11.433z" filter="url(#k)" opacity=".41395"/><path transform="translate(-1e-6 -66.781)" d="m43.172 132.22c-0.63714 2.5869-0.96875 5.2283-0.96875 7.9375 0 26.825 31.5 43.935 68.906 58.219 29.94 11.432 48.462 21.981 65.312 13.625 13.574-6.7306 28.28-17.455 38.906-28.219 0.0749-0.0717 0.14417-0.14707 0.21875-0.21875 9.5731-9.2006 16.401-18.659 17.25-25.875-1.9058 6.8262-8.2465 15.171-16.75 23.344-0.0746 0.0717-0.14385 0.14705-0.21875 0.21875-10.626 10.764-25.333 21.488-38.906 28.219-16.85 8.3555-35.373-2.1925-65.312-13.625-37.406-14.284-68.906-31.393-68.906-58.219 0-1.829 0.17454-3.6305 0.46875-5.4062z" clip-path="url(#r)" filter="url(#m)" stroke="#000"/></g><g><rect transform="matrix(-.95912 -.28301 .3354 -.94208 0 0)" x="-248.42" y="-50.451" width="7.4794" height="5.4469" rx=".82175" ry=".74001" fill="url(#f)"/><path d="m217.03 111.72c-0.28235 0.34362-2.6989 0.50468-0.15067 1.1402 1.3409 0.30539 3.4531 1.501 4.3572 1.2572 0.67823-0.27311 1.8438-0.63392-0.3876-1.1849-1.1896-0.40067-2.7145-1.0641-3.819-1.2125z" fill="#999" filter="url(#n)"/></g></g></svg>
