<svg xmlns="http://www.w3.org/2000/svg" xmlns:xlink="http://www.w3.org/1999/xlink" width="101.219" height="101.219"><defs><linearGradient id="a"><stop offset="0" stop-color="#f1cc38"/><stop offset=".821" stop-color="#c6a215"/><stop offset=".89" stop-color="#f9ce27"/><stop offset="1"/></linearGradient><radialGradient xlink:href="#a" id="b" gradientUnits="userSpaceOnUse" gradientTransform="matrix(1.02056 0 0 .9929 10.855 -5.456)" cx="-528" cy="-768" fx="-528" fy="-768" r="243"/></defs><path d="M-288-768c0 132.548-107.452 240-240 240s-240-107.452-240-240 107.452-240 240-240 240 107.452 240 240z" transform="matrix(.20937 0 0 .20937 161.155 211.403)" fill="url(#b)"/><path style="text-indent:0;text-align:start;line-height:normal;text-transform:none;block-progression:tb;marker:none;-inkscape-font-specification:Sans" d="M72 15.344c-1.714.764-2.105 3.307-3.344 4.656-3.561 6.051-7.25 12.36-10.5 18.281.007.14.038.277.063.407.002.01-.002.021 0 .03 3.647 2.337 6.165 6.277 6.5 10.844 8.395.758 16.865.084 25.25.344 1.69-.177 2.404-1.7 1.781-3.25-1.056-12.593-8.403-24.831-19.25-31.218-.155-.065-.34-.12-.5-.094zm-43.031.031c-4.427 2.218-8.066 6.016-11.157 9.906-4.957 6.546-8.134 14.688-8.406 22.907.228 2.214 2.577 1.849 4.188 1.687 7.615-.103 15.36.321 22.906-.25A14.132 14.132 0 0 1 43 38.687c.06-.995-.576-2.064-1.281-2.874-3.89-6.71-7.632-13.662-11.75-20.157-.28-.194-.658-.324-1-.281zM57.28 63.063a14 14 0 0 1-6.656 1.687c-2.375 0-4.628-.59-6.594-1.625-1.851 2.12-3.05 4.972-4.593 7.344-2.593 4.824-5.532 9.414-8.094 14.219-.457 1.013-.458 2.233.906 2.468 10.345 5.57 23.536 5.813 34.25 1.219 1.17-.792 3.29-1.152 3.844-2.469-3.28-7.268-8.056-13.84-11.688-20.937-.413-.514-.84-1.343-1.375-1.906z" font-weight="400" color="#000" overflow="visible" font-family="Sans"/><path style="marker:none" d="M59.954 50.61a9.344 9.344 0 1 1-18.688 0 9.344 9.344 0 0 1 18.688 0z" color="#000" overflow="visible"/></svg>