<svg preserveAspectRatio="xMinYMin" viewBox="0 0 1014.9 1067.1" xmlns="http://www.w3.org/2000/svg" xmlns:xlink="http://www.w3.org/1999/xlink"><defs><linearGradient id="d"><stop stop-color="#63001a" offset="0"/><stop stop-color="#cb0036" offset="1"/></linearGradient><linearGradient id="c"><stop offset="0"/><stop stop-opacity="0" offset="1"/></linearGradient><linearGradient id="b"><stop stop-color="#abdceb" offset="0"/><stop stop-color="#abdceb" offset=".2"/><stop stop-color="#f6ff6f" offset=".4"/><stop stop-color="#fff" offset="1"/></linearGradient><linearGradient id="a"><stop stop-color="#ff0" offset="0"/><stop stop-color="#fff" offset="1"/></linearGradient><linearGradient id="o" x1="-489.01" x2="-478.99" y1="253.55" y2="247.77" gradientTransform="translate(3608.6 -1898.2) scale(7.0738)" gradientUnits="userSpaceOnUse" xlink:href="#a" spreadMethod="reflect"/><linearGradient id="e" x1="-594.12" x2="-593.65" y1="201.97" y2="203.63" gradientTransform="translate(3608.6 -1898.2) scale(7.0738)" gradientUnits="userSpaceOnUse" xlink:href="#b" spreadMethod="reflect"/><linearGradient id="h" x1="-522.74" x2="-520" y1="312.52" y2="312.52" gradientTransform="translate(3608.6 -1898.2) scale(7.0738)" gradientUnits="userSpaceOnUse" xlink:href="#b" spreadMethod="reflect"/><linearGradient id="l" x1="-468.64" x2="-467.4" y1="222.99" y2="227.37" gradientTransform="translate(3608.6 -1898.2) scale(7.0738)" gradientUnits="userSpaceOnUse" xlink:href="#c"/><linearGradient id="k" x1="-526.54" x2="-528.19" y1="232.91" y2="240.19" gradientTransform="translate(3608.6 -1898.2) scale(7.0738)" gradientUnits="userSpaceOnUse" xlink:href="#c"/><radialGradient id="j" cx="-509.58" cy="-15.628" r="98.031" gradientTransform="matrix(3.1755 .03301 -.03954 3.8032 1157.6 -288.24)" gradientUnits="userSpaceOnUse" xlink:href="#c"/><linearGradient id="i" x1="-517.39" x2="-520" y1="312.52" y2="312.52" gradientTransform="translate(3608.6 -1898.2) scale(7.0738)" gradientUnits="userSpaceOnUse" xlink:href="#b" spreadMethod="reflect"/><linearGradient id="q" x1="-613.67" x2="-437.99" y1="266.87" y2="266.87" gradientTransform="translate(3608.6 -1898.2) scale(7.0738)" gradientUnits="userSpaceOnUse" xlink:href="#c"/><radialGradient id="m" cx="-70.266" cy="52.973" r="10.484" gradientTransform="matrix(1 0 0 47.633 2 -2531.6)" gradientUnits="userSpaceOnUse" xlink:href="#c"/><filter id="g" color-interpolation-filters="sRGB"><feGaussianBlur stdDeviation="3.976"/></filter><linearGradient id="f" x1="-1222.5" x2="1065.6" y1="7.078" y2="7.078" gradientUnits="userSpaceOnUse" xlink:href="#c"/><linearGradient id="n" x1="-385.9" x2="-346.64" y1="-144.54" y2="-155.06" gradientUnits="userSpaceOnUse" xlink:href="#d" spreadMethod="reflect"/><radialGradient id="C" cx="-63.005" cy="-573.48" r="76.084" gradientTransform="matrix(1 0 0 .68853 0 -163.07)" gradientUnits="userSpaceOnUse" xlink:href="#d"/><radialGradient id="x" cx="-101.53" cy="-660.58" r="78.507" gradientTransform="matrix(1 0 0 1.2084 -4.83 156.09)" gradientUnits="userSpaceOnUse" xlink:href="#d"/><radialGradient id="z" cx="-23.606" cy="-590.49" r="116.11" gradientTransform="matrix(1 0 0 .60812 0 -231.4)" gradientUnits="userSpaceOnUse" xlink:href="#d"/><radialGradient id="v" cx="-195.59" cy="-652.83" r="103.75" gradientTransform="matrix(1 0 0 1.0019 -.83 35.693)" gradientUnits="userSpaceOnUse" xlink:href="#d"/><radialGradient id="r" cx="-13.094" cy="-623.43" r="106.9" gradientTransform="matrix(1 0 0 .92357 -4.83 -29.218)" gradientUnits="userSpaceOnUse" xlink:href="#d"/><linearGradient id="H" x1="75.844" x2="142.65" y1="-497.03" y2="-497.03" gradientUnits="userSpaceOnUse" xlink:href="#a"/><linearGradient id="u" x1="8.969" x2="106.22" y1="-493.28" y2="-493.28" gradientUnits="userSpaceOnUse" xlink:href="#a"/><linearGradient id="p" x1="-613.67" x2="-437.99" y1="266.87" y2="266.87" gradientTransform="translate(3608.6 -1898.2) scale(7.0738)" gradientUnits="userSpaceOnUse" xlink:href="#c" spreadMethod="reflect"/><radialGradient id="I" cx="-61.658" cy="-276.24" r="14.094" gradientTransform="matrix(.74245 0 0 21.473 -17.186 5698.5)" gradientUnits="userSpaceOnUse" xlink:href="#c"/><linearGradient id="w" x1="-286.94" x2="-97.625" y1="-636.27" y2="-636.27" gradientTransform="translate(-4.83 18.431)" gradientUnits="userSpaceOnUse" xlink:href="#a"/><filter id="J" color-interpolation-filters="sRGB"><feGaussianBlur stdDeviation="3.23"/></filter><filter id="L" color-interpolation-filters="sRGB"><feGaussianBlur stdDeviation="2.994"/></filter><radialGradient id="K" cx="-18.488" cy="-242.47" r="239.58" gradientTransform="matrix(1.927 -.52307 .08118 .29907 73.035 -321.47)" gradientUnits="userSpaceOnUse"><stop stop-color="#fff" offset="0"/><stop stop-color="#fff" stop-opacity="0" offset="1"/></radialGradient><linearGradient id="y" x1="-152.46" x2="-125.29" y1="-654.32" y2="-670.03" gradientTransform="translate(-4.83 18.431)" gradientUnits="userSpaceOnUse" xlink:href="#a" spreadMethod="reflect"/><linearGradient id="s" x1="-152.46" x2="-125.29" y1="-654.32" y2="-670.03" gradientTransform="rotate(45 -91.214 -510.167)" gradientUnits="userSpaceOnUse" xlink:href="#a" spreadMethod="reflect"/><radialGradient id="t" cx="35.655" cy="-493.47" r="119.98" gradientTransform="matrix(1 0 0 .49467 0 -249.37)" gradientUnits="userSpaceOnUse" xlink:href="#d"/><radialGradient id="B" cx="19.298" cy="-488.79" r="86.062" gradientTransform="matrix(6.1497 0 0 .84305 -109.01 -58.99)" gradientUnits="userSpaceOnUse" xlink:href="#d"/><radialGradient id="A" cx="-243.55" cy="-485.53" r="127.52" gradientTransform="matrix(1 0 0 .4625 0 -260.97)" gradientUnits="userSpaceOnUse" xlink:href="#d"/><linearGradient id="E" x1="-288.6" x2="-276.27" y1="-493.52" y2="-442.17" gradientUnits="userSpaceOnUse" xlink:href="#d"/><linearGradient id="P" x1="34.973" x2="35.701" y1="-550.35" y2="-620.61" gradientUnits="userSpaceOnUse" xlink:href="#a"/><linearGradient id="O" x1="92.508" x2="81.337" y1="-590.49" y2="-607.39" gradientUnits="userSpaceOnUse" xlink:href="#a"/><radialGradient id="F" cx="-198.17" cy="-568.88" r="128.31" gradientTransform="matrix(1 0 0 .4368 0 -320.39)" gradientUnits="userSpaceOnUse" xlink:href="#d"/><radialGradient id="M" cx="-23.606" cy="-590.49" r="116.11" gradientTransform="matrix(-.7598 0 0 .6574 -187.99 -177.53)" gradientUnits="userSpaceOnUse" xlink:href="#d"/><radialGradient id="N" cx="-113.49" cy="-409.76" r="95.223" gradientTransform="matrix(1.3138 0 0 .81231 66.979 -70.788)" gradientUnits="userSpaceOnUse" xlink:href="#d"/><linearGradient id="Q" x1="555.41" x2="573.24" y1="206.45" y2="257.45" gradientUnits="userSpaceOnUse" xlink:href="#a" spreadMethod="reflect"/><linearGradient id="R" x1="400.24" x2="418.59" y1="132.22" y2="113.22" gradientUnits="userSpaceOnUse" xlink:href="#a" spreadMethod="reflect"/><linearGradient id="G" x1="329.96" x2="400.24" y1="165.73" y2="132.22" gradientUnits="userSpaceOnUse" xlink:href="#a" spreadMethod="reflect"/><linearGradient id="D" x1="324.17" x2="383.88" y1="250.14" y2="250.14" gradientUnits="userSpaceOnUse" xlink:href="#a" spreadMethod="reflect"/></defs><g fill-rule="evenodd"><path d="M562.578 106.51c-9.72 42.983-49.106 63.725-66.145 54.057-17.039-9.668-15.051-49.546 4.44-89.069s47.164-58.908 66.145-54.057c16.931 4.327 5.823 43.686-4.44 89.069z" color="#000" fill="#500"/><path d="M-100.88-574.41l-493.25 113 535.22 96.906 464.78-120.19-506.75-89.719z" fill="url(#e)" transform="translate(601.88 737.01)"/><path d="M-560.41-306.38l22.35 491.1 468.28 135.81 473.22-167.65z" fill="url(#f)" filter="url(#g)" opacity=".7" transform="translate(601.88 737.01)"/><path d="M-560.42-314.36l22.368 491.07 468.26 135.81v-519.57z" fill="url(#h)" transform="translate(601.88 737.01)"/><path d="M-69.796-207.05l453.7-126.31-20.451 478.23-433.25 167.65z" fill="url(#i)" transform="translate(601.88 737.01)"/><path d="M-556.82-313.55l8.781 193.13c55.877 310.09 360.4-33.922 371.18-110.1z" color="#000" fill="url(#j)" opacity=".2" transform="translate(601.88 737.01)"/><path d="M-560.32-314.31l.663 14.811 489.86 113.84v-21.442z" color="#000" fill="url(#k)" style="block-progression:tb;text-indent:0;text-transform:none" transform="translate(601.88 737.01)"/><path d="M383.77-331.17L-69.78-207.08v21.439l4.845-1.332 447.92-125.42.787-18.774z" color="#000" fill="url(#l)" style="block-progression:tb;text-indent:0;text-transform:none" transform="translate(601.88 737.01)"/><path d="M-58.964-364.49v162.92l458.26-131.75 6.58-151.36z" color="#000" fill="url(#h)" transform="translate(601.88 737.01)"/></g><path d="M-77.781-206.28l-.969 515.62 10.97 3.188 10-3.875v-510.44l-20-4.5z" color="#000" fill="url(#m)" opacity=".5" style="block-progression:tb;text-indent:0;text-transform:none" transform="translate(601.88 737.01)"/><path d="M-594.12-461.4l6.778 141.15 528.43 118.67v-162.99z" color="#000" fill="url(#h)" fill-rule="evenodd" transform="translate(601.88 737.01)"/><path d="M90.469-540l-179.28 43.769-198.29-35.59-92.843 21.442 198.73 36.695-204.7 49.958 18.79 650.12 85.327 24.537-13.705-658.3 200.5-50.401 229.46 42.443 4.863-1.326-12.6 658.97L212.27 205.4l17.684-645.92-3.316.884-229.67-41.12 176.4-44.43-82.89-14.81z" fill="url(#n)" fill-rule="evenodd" transform="translate(601.88 737.01)"/><path d="M93.785-539.34l-180.16 44.211-202.04-36.474-17.021 3.979 202.49 36.474-51.064 12.6-202.27-37.358-17.021 3.979 202.71 37.358-202.93 49.737c-2.693 1.555-2.54 2.446-2.653 2.653l17.905 651.23 7.295 1.99-18.127-650.12c0-1.455.932-1.707 1.99-1.99 17.338-3.992 147.43-33.993 213.76-50.401l43.769 8.179-200.05 49.958c-2.173 1.14-2.301 2.411-2.432 2.652l14.369 656.98 6.853 1.99-14.37-656.09c0-1.072.278-1.434.829-1.752 69.128-17.991 141.7-33.161 211.83-50.638l239.58 40.845c2.108.565 1.554 1.359 1.554 2.117l-13.006 655.79 7.074-3.095 13.042-656.31c.006-.327-.582-.886-1.769-1.105l-230.12-42.443 51.285-12.6 235.97 40.533c1.852.318 2.082 1.354 2.056 2.334l-16.969 646.6 7.074-3.094 17.021-647.03c.173-.602.035-2.288-1.99-2.653l-226.8-40.895 178.39-44.653-17.242-3.095-178.61 44.653-42.885-7.737 180.16-44.21zm-179.28 51.285l43.327 7.737-51.064 12.82-43.327-7.957z" color="#000" fill="url(#o)" style="block-progression:tb;text-indent:0;text-transform:none" transform="translate(601.88 737.01)"/><g fill-rule="evenodd"><path d="M-58.964-364.49v162.92l458.26-131.75 6.58-151.36z" color="#000" fill="url(#p)" transform="translate(601.88 737.01)"/><path d="M383.72-328.81L-58.9-201.59l-.062.031v-.031l-10.812-2.438v516.56l433.21-167.65 20.28-473.69z" fill="url(#q)" transform="translate(601.88 737.01)"/><path d="M13.795-703.72a8.702 8.702 0 0 0-4.594 1.531l-130.62 89.875c-3.764 2.59-4.48 7.81-1.781 11.5l66.656 91.22c2.696 3.688 7.767 4.37 11.531 1.78l130.59-89.844c3.764-2.59 4.48-7.84 1.781-11.53l-66.625-91.22c-1.685-2.305-4.297-3.417-6.937-3.312z" color="#000" fill="url(#r)" transform="translate(601.88 737.01)"/></g><path d="M24.42-695.35L-92.8-613.256l3.563 4.906 117.22-82.125-3.563-4.875zm54.406 74.5l-116.59 82.875 3.562 4.875 116.62-82.875-3.593-4.875z" color="#000" fill="url(#s)" style="block-progression:tb;text-indent:0;text-transform:none" transform="translate(601.88 737.01)"/><g fill-rule="evenodd" color="#000"><path d="M93.75-552.81c-.884.01-1.77.03-2.656.063l-61.22 2.218c-28.378 1.033-115.61 25.576-114.19 53.938 1.122 22.284 77.927 76.075 140.72 59.25l61.22-16.375c27.43-7.35 43.6-35.35 36.25-62.78-7.12-26.574-32.731-36.649-60.125-36.313zm-46.188 20.906c14.464-.28 28.915 5.374 33.562 16.594 3.494 8.434 2.336 17.921-1.656 27.25-37.512-.653-69.111-11.044-81.188-25.438 9.257-2.669 17.983-6.327 25.375-11.406 6.57-4.515 15.228-6.832 23.906-7z" fill="url(#t)" transform="translate(601.88 737.01)"/><path d="M64.469-552.16l-44.594 1.625c-3.547.13-7.995.644-13.094 1.469l36.812-1.688c10.825-.501 20.783 2.162 29.656 7.125 11.339 6.344 26.469 14.01 27.594 27.531 4.028 48.412-42.425 81.631-69.719 81.97 8.286-.004 16.536-.954 24.562-3.032 25.681-11.718 56.562-48.003 53.094-79.75-1.674-15.328-19.412-25.818-33.344-32.062-3.682-1.65-7.079-1.938-10.938-3.187z" fill="url(#u)" style="block-progression:tb;text-indent:0;text-transform:none" transform="translate(601.88 737.01)"/><path d="M-203.83-722.35c-1.833-.033-3.662.559-5.219 1.813l-88 70.844c-3.562 2.866-3.839 7.828-1.25 11.593 35.607 51.78 69.146 80.4 102.91 120.59 2.939 3.5 8.035 4.116 11.594 1.25l88-70.812c3.562-2.866 4.216-8.149 1.25-11.625-32.75-40.457-59.882-81.85-102.91-120.59-1.91-1.72-4.018-3.02-6.375-3.062z" fill="url(#v)" transform="translate(601.88 737.01)"/></g><path d="M-218.05-713.29l-4.656 3.75c48.02 43.854 77.607 87.708 115.59 131.56l4.656-3.75c-38.232-44.078-70.657-92.512-115.59-131.56zm-69.062 55.594l-4.656 3.75c45.515 53.264 77.104 87.717 115.59 131.56l4.656-3.75c-38.53-43.813-73.358-80.616-115.59-131.56z" color="#000" fill="url(#w)" style="block-progression:tb;text-indent:0;text-transform:none" transform="translate(601.88 737.01)"/><path d="M-148.17-737.01c-3.815.183-7.023 3.037-7.75 6.969-20.784 51.969-23.298 103.94-28.812 155.91-.83 4.493 2.357 8.705 6.875 9.406l111.62 17.344c4.515.702 8.607-2.382 9.438-6.875 6.033-52.989 5.42-107.88 28.812-155.91.83-4.493-2.358-8.705-6.875-9.406l-111.62-17.344a8.467 8.467 0 0 0-1.688-.094z" color="#000" fill="url(#x)" fill-rule="evenodd" transform="translate(601.88 737.01)"/><path d="M-139.67-735.85c-17.816 59.732-23.276 116.34-30.375 172.34l5.969.938c5.708-57.458 11.603-114.92 30.344-172.38zm90.937 14.125c-27.388 57.51-24.126 115.02-29.156 172.53l5.938.938c3.687-57.735-.865-113.94 29.188-172.53z" color="#000" fill="url(#y)" style="block-progression:tb;text-indent:0;text-transform:none" transform="translate(601.88 737.01)"/><g fill-rule="evenodd" color="#000"><path d="M-56.328-639.59l72.435-19.409c32.465-8.699 65.604 10.434 74.303 42.899s-10.434 65.604-42.899 74.303l-72.435 19.409c-32.465 8.699-105.23-5.473-113.93-37.938-8.699-32.465 50.059-70.565 82.524-79.264z" fill="url(#z)" transform="translate(601.88 737.01)"/><path d="M-319.34-544.5c-22.857-.253-43.767 14.856-49.969 38-7.35 27.43 8.82 55.431 36.25 62.781l61.219 16.406c27.43 7.35 148.12-40.133 155.47-67.562 6.095-22.747-67.692-24.33-108.72-28.406 8.461.853 32.42 25.234 42.649 26.071-21.245 16.205-75.446 10.318-108.34 20.148A52.846 52.846 0 0 1-289-492.093c4.85-18.101 18.467-31.391 35.062-36.562l-52.594-14.062a51.665 51.665 0 0 0-12.812-1.781zm74.031 18.156z" fill="url(#A)" transform="translate(601.88 737.01)"/><path d="M47.562-531.91zm2.719.031zm2.687.156zm-26.875 5.313c-.4.227-.799.446-1.187.687.383-.238.792-.463 1.187-.687zm46.531 1.094zm6.438 6.25zm-69.72 1.719c-.628.256-1.268.536-1.905.78.644-.247 1.27-.52 1.906-.78zm71.782 2.03zm.594 1.595zm.5 1.625zM3-514.997c-1.498.5-3 .993-4.532 1.437 1.53-.45 3.035-.94 4.532-1.44zm-4.72 1.5c-39.78 11.468-89.5 4.907-86.655 16.78 41.139 41.14 53.168 73.642 115.62 56.939 17.03-4.555 42.687-26.005 52.219-48.281-37.512-.654-69.111-11.044-81.188-25.438zm84.813 6.375zm.094 1.687zm0 1.688zm-.282 3.562zm-.25 1.625zm-2.469 8.75c-.174.45-.374.895-.562 1.344.19-.452.387-.892.562-1.344z" fill="url(#B)" transform="translate(601.88 737.01)"/><path d="M551.224 106.17a61.051 61.051 0 0 0-15.156 2.094l-23.906 11.625c-25.055 16.204-54.681 36.045-49.125 56.78 8.699 32.466 81.441 46.669 113.91 37.97l17.625-4.719c14.902-14.804 21.629-36.926 15.781-58.75-7.34-27.392-32.072-45.3-59.125-45z" fill="maroon"/><path d="M-25.272-610.28c-3.927-.173-7.953.327-11.957 1.55l-47.608 14.615c-18.329 5.598-49.424 27.471-54.251 48.937.035.154.18.29.221.443 5.832 21.764 40.436 35.25 72.41 39.194.764-.179 1.504-.448 2.213-.664l47.608-14.615c21.357-6.523 34.066-31.237 28.343-55.58-4.65-19.78-19.963-33.131-36.979-33.88z" fill="url(#C)" transform="translate(601.88 737.01)"/><path d="M564.661 128.29l-9.063 2.781c15.947 2.377 39.555 12.57 43.531 34.594 2.283 12.642 1.399 30.341-1.843 44.281a41.986 41.986 0 0 0 7.968-7.969c1.58-12.737 2.426-27.823-.312-38.062-4.009-14.993-11.511-27.916-40.281-35.625z" fill="#ff0" style="block-progression:tb;text-indent:0;text-transform:none"/><path d="M299.84 196.94c-23.73-.27-45.42 15.85-51.84 40.44-5.26 20.15 1.14 40.65 15 53.96 1.88.75 3.81 1.4 5.81 1.94l3.94 1.06c-17.74-11.59-26.91-33.97-21.16-56.03 6-22.99 26.2-37.9 48.22-37.65 4.08.04 8.21.64 12.35 1.78 4.16.99 7.72 1.82 11 2.56-16.36 6.2-29.71 21.27-34.5 41.59-4.74 20.05 0 40.38 11.09 54.97l6.56 1.78c-12.98-13.68-18.99-34.83-14.06-55.72 5.18-21.94 20.95-37.2 39.34-40.78 13.98 2.94 14.59 2.24 5.66-.72.67-.04 1.33-.08 2-.09l-10.47-2.81-.47.12c-5.43-1.6-12.14-3.49-20-5.59l-.15-.03a51.22 51.22 0 0 0-8.32-.78zm76.94 16.78c.61.06 1.28.28 2.03.56 4.45.87 5.9.84 4.63.06-2.28-.2-4.54-.41-6.66-.62z" fill="url(#D)" style="block-progression:tb;text-indent:0;text-transform:none"/><path d="M-235.91-524.56zm5.969.75zm6.625.688zm-67.47 46.062c.57 22.65 15.812 43.078 38.845 49.28 43.796-7.123 129.41-44.125 135.56-67.093 1.445-5.392-1.622-9.576-7.656-12.906-16.09-1.298-34.766 7.248-42.477 5.182-23.456 1.28-79.047 15.199-124.27 25.537zm.345-7.47zm-.188 1.876a52.12 52.12 0 0 0-.125 1.812c.028-.603.076-1.207.125-1.812z" fill="url(#E)" transform="translate(601.88 737.01)"/><path d="M-265.76-623.26l57.563 15.424c25.799 6.913 144.97 35.753 138.06 61.553-6.913 25.799-137.22 38.499-163.01 31.586l-57.563-15.424c-25.799-6.913-41.004-33.248-34.091-59.048 6.913-25.799 33.248-41.004 59.048-34.091z" fill="url(#F)" transform="translate(601.88 737.01)"/><path d="M327.41 112.25c-17.3 4.49-31.78 18.78-36.72 38.63-5.05 20.27 1.24 40.89 14.72 54.06 1.85.75 3.77 1.4 5.75 1.94l5.53 1.46c-18.13-10.82-27.75-33.74-22.13-56.34 5.77-23.17 25.52-38.02 46.85-36.84l-5.29-1.41a49.78 49.78 0 0 0-8.68-1.5h-.03zm27.9 6.63c-14.54 6.27-26.28 20.12-30.62 38.5-5.05 21.32 1.24 43.01 14.72 56.87.5.22 1.01.42 1.53.63l8.78 2.34c-17.51-11.62-26.68-35.31-21.16-58.66 4.64-19.6 18.32-33.53 34.6-37.59l-7.85-2.09z" fill="url(#G)" style="block-progression:tb;text-indent:0;text-transform:none"/><path d="M496.63 162.82c-3.456-.003-6.996.524-10.5 1.594l-7.063 2.156c-8.014 7.736-14.32 16.53-16.28 25.25.035.154.177.284.218.437 5.578 20.815 31.173 37.621 61.9 32.968 11.04-1.671 12.994-16.454 10.162-28.499-4.65-19.779-19.952-33.127-36.969-33.875-.49-.021-.975-.03-1.469-.03z" fill="maroon"/><path d="M110.88-551.53a48.433 48.433 0 0 1 4.875 2.563c10.07 6.096 17.761 15.828 21.094 30.5 6.671 29.375-8.095 59.203-32.562 66.938l-28.438 9 41.781-11.188c.286-.077.56-.17.844-.25 18.729-13.187 28.342-39.58 22.469-65.438-2.836-12.485-8.79-21.915-16.656-28.594-4.228-1.594-8.73-2.739-13.406-3.532z" fill="url(#H)" style="block-progression:tb;text-indent:0;text-transform:none" transform="translate(601.88 737.01)"/></g><path d="M-78.406-368.09l-.281 162.06 19.78 4.438v-162.97l-19.5-3.532z" color="#000" fill="url(#I)" opacity=".7" style="block-progression:tb;text-indent:0;text-transform:none" transform="translate(601.88 737.01)"/><g fill-rule="evenodd" color="#000"><path d="M-594.12-461.41L-58.9-350.57v-16l-535.22-94.844z" fill="#fff" filter="url(#J)" transform="translate(601.88 737.01)"/><path d="M405.88-484.69L-58.9-366.57v16l464.78-134.12z" fill="url(#K)" filter="url(#L)" transform="translate(601.88 737.01)"/><path d="M511.88 144.76c-5.198 2.142-11.02 5.26-16.781 9.063 26.48-7.663 54.859 14.772 60.031 34.311 2.925 13.936.664 27.93-5.125 38.876l5.781-1.782 2.125-.656c4.49-11.354 5.817-24.701 3.031-37.969-9.185-25.09-27.445-40.97-49.062-41.84z" fill="#ff0" style="block-progression:tb;text-indent:0;text-transform:none"/><path d="M-145.19-618.8l-55.036-20.982c-24.667-9.404-49.846 11.28-56.456 46.375-6.61 35.096 7.928 70.92 32.595 80.324l55.036 20.982c24.667 9.404 79.953-5.917 86.563-41.013 6.61-35.096-38.035-76.283-62.702-85.687z" fill="url(#M)" transform="translate(601.88 737.01)"/><path d="M452.38 127.66c3.806.06 7.662.794 11.516 2.263l23.981 9.155c19.036 17.517 35.729 42.378 31.508 64.794-6.61 35.096-61.879 50.45-86.546 41.046l-13.391-5.1c-11.322-16.005-16.434-39.919-11.991-63.512 5.577-29.612 24.368-48.97 44.923-48.647z" fill="maroon"/><path d="M-78.733-553.29c39.538-3.533 68.947 10.349 68.193 65.124-.514 37.304 6.418 68.321-29.618 77.977-144.5 41.823-187.84-129.76-38.575-143.1z" fill="url(#N)" transform="translate(601.88 737.01)"/><path d="M456.13 203.95c-14.261 10.902-25.16 40.251-25.16 40.251s7.04 54.647 32.097 72.155c10.533-41.226 22.469-104.53-6.938-112.41z" fill="maroon"/><path d="M21.625-660.22c-1.841.317-3.69.725-5.531 1.219l-7.313 1.969c1.501-.049 2.984-.062 4.47 0C41.7-655.85 67.19-634.76 75-603.002c4.136 16.823 2.552 33.758-3.407 48.439 2.366-2.109 4.59-4.376 6.594-6.813 3.805-13.399 4.303-28.078.718-42.656-7.46-30.339-30.497-51.578-57.28-56.188z" fill="url(#O)" style="block-progression:tb;text-indent:0;text-transform:none" transform="translate(601.88 737.01)"/><path d="M-34.969-645.31l-9.188 2.469c33.412 4.353 62.06 23.734 71.47 51.53 6.244 18.45 1.367 40.236-4.813 56.22l6.625-1.781c5.356-14.113 9.83-36.457 3.406-55.438-9.114-26.927-35.659-46.455-67.5-53z" fill="url(#P)" style="block-progression:tb;text-indent:0;text-transform:none" transform="translate(601.88 737.01)"/><path d="M541.53 183.47c3.35 1.66 6.43 3.73 9.22 6.22 11.62 10.35 18.62 28.43 18.25 58.19-.26 20.67 1.27 39.42-1.47 53.9-2.71 14.33-9.09 24.45-26.15 29.66 5.22-.86 10.61-2.01 16.15-3.47l.03-.03c7.86-6.36 11.98-15.11 13.91-25.28 2.93-15.52 1.27-34.36 1.53-54.75.38-30.55-6.97-50.27-19.75-61.66-.51-.45-1.04-.89-1.56-1.31a73.94 73.94 0 0 0-10.16-1.47zm-54.19 7.44c-1.52.51-3.01 1.06-4.46 1.62.48.37.94.77 1.4 1.16 11.62 9.75 18.59 26.76 18.22 54.78-.26 19.47 1.3 37.12-1.44 50.75-2.51 12.52-8.2 21.65-22.65 26.81 1.85.75 3.76 1.42 5.71 2.06 12.49-5.99 18.42-15.94 20.85-28.03 2.93-14.61 1.27-32.36 1.53-51.56.38-28.35-6.72-46.8-19.16-57.59z" fill="url(#Q)" style="block-progression:tb;text-indent:0;text-transform:none"/><path d="M399.66 96.5c-6.31 1.303-12.34 4.42-17.66 9.03-10.65 9.24-18.76 24.37-22.12 43.25-3.37 18.89-1.38 37.93 4.65 53.63 3.12 8.12 7.36 15.35 12.5 21.18.25.11.5.22.75.32l9.63 3.68c-8.05-5.86-14.64-15.23-19.03-26.65-5.75-14.94-7.71-33.3-4.47-51.44 3.23-18.14 11.03-32.43 20.78-40.88 6.09-5.28 12.87-8.31 19.93-8.714a28.89 28.89 0 0 1 4.32.094l-7.28-2.781c-.67-.255-1.34-.508-2-.719zm35.59 14.16c-.61 0-1.21.02-1.81.06-8.05.47-15.78 3.88-22.44 9.66-10.65 9.23-18.76 24.36-22.12 43.24-3.37 18.89-1.38 37.94 4.65 53.63 2.23 5.79 5.01 11.11 8.28 15.81l7.5 2.88c-4.85-5.44-8.92-12.31-11.93-20.16-5.75-14.94-7.71-33.3-4.47-51.44 3.23-18.13 11.03-32.42 20.78-40.87 6.09-5.28 12.87-8.32 19.93-8.72 4.24-.24 8.55.47 12.91 2.22l28.06 11.28c-6.41-4.56-12.62-8.05-17.9-10.06l-19.6-7.47c-.61-.03-1.23-.07-1.84-.06z" fill="url(#R)" style="block-progression:tb;text-indent:0;text-transform:none"/></g></svg>