<svg xmlns="http://www.w3.org/2000/svg" xmlns:xlink="http://www.w3.org/1999/xlink" height="248" width="248"><defs><linearGradient id="b"><stop offset="0" stop-color="#18cacb"/><stop offset="1" stop-color="#0d0d0d"/></linearGradient><linearGradient id="a"><stop offset="0" stop-color="#d9d9d9"/><stop offset=".595"/><stop offset=".902" stop-color="#545454"/><stop offset="1"/></linearGradient><radialGradient r="25.759" fy="455.411" fx="68.311" cy="455.411" cx="68.311" gradientTransform="matrix(-1.5906 .21547 .34576 2.27653 41.518 -561.874)" gradientUnits="userSpaceOnUse" id="g" xlink:href="#a"/><linearGradient y2="522.325" x2="63.681" y1="463.606" x1="26.98" gradientTransform="matrix(-1.56498 .21173 .21025 1.38257 87.02 -134.354)" gradientUnits="userSpaceOnUse" id="i" xlink:href="#a"/><linearGradient y2="437.95" x2="2.817" y1="537.777" x1="66.037" gradientTransform="matrix(-1.34782 .1822 .18107 1.18976 82.17 -40.258)" gradientUnits="userSpaceOnUse" id="j" xlink:href="#a"/><radialGradient r="25.759" fy="461.327" fx="61.593" cy="461.327" cx="61.593" gradientTransform="matrix(-3.73643 0 .116 5.36344 418.145 -1988.537)" gradientUnits="userSpaceOnUse" id="t" xlink:href="#a"/><radialGradient r="25.759" fy="476.911" fx="74.596" cy="476.911" cx="74.596" gradientTransform="matrix(1.0478 .15098 -.1918 1.68834 87.581 -337.52)" gradientUnits="userSpaceOnUse" id="u" xlink:href="#a"/><linearGradient y2="507.463" x2="110.668" y1="475.949" x1="82.572" gradientTransform="matrix(-.9694 0 0 .94893 304.825 30.5)" gradientUnits="userSpaceOnUse" id="s" xlink:href="#a"/><linearGradient gradientTransform="matrix(-.9854 0 0 1 305.314 0)" y2="456.738" x2="82.201" y1="508.031" x1="106.388" gradientUnits="userSpaceOnUse" id="A" xlink:href="#a"/><linearGradient y2="746.975" x2="274.402" y1="459.061" x1="245.685" gradientTransform="matrix(.96846 0 0 .94893 2.323 30.5)" gradientUnits="userSpaceOnUse" id="r" xlink:href="#a"/><linearGradient y2="451.614" x2="96.423" y1="478.833" x1="58.157" gradientTransform="matrix(-.9854 0 0 1 305.19 0)" gradientUnits="userSpaceOnUse" id="q" xlink:href="#a"/><linearGradient y2="637.042" x2="76.933" y1="297.757" x1="177.129" gradientTransform="matrix(.9694 0 0 .94893 2.2 30.5)" gradientUnits="userSpaceOnUse" id="B" xlink:href="#a"/><linearGradient y2="426.794" x2="237.177" y1="459.034" x1="242.849" gradientTransform="matrix(-.9694 0 0 .94893 304.825 30.5)" gradientUnits="userSpaceOnUse" id="p" xlink:href="#a"/><linearGradient gradientTransform="matrix(-.9854 0 0 1 305.314 0)" y2="449.763" x2="221.344" y1="462.278" x1="243.825" gradientUnits="userSpaceOnUse" id="o" xlink:href="#a"/><linearGradient y2="341.906" x2="113.442" y1="570.32" x1="86.071" gradientTransform="matrix(.9694 0 0 .94893 2.2 30.5)" gradientUnits="userSpaceOnUse" id="n" xlink:href="#a"/><linearGradient gradientTransform="matrix(-.9854 0 0 1 305.314 0)" y2="460.696" x2="197.026" y1="444.737" x1="219.153" gradientUnits="userSpaceOnUse" id="m" xlink:href="#a"/><linearGradient spreadMethod="reflect" y2="627.439" x2="59.391" y1="463.38" x1="80.4" gradientTransform="matrix(1.70135 .20588 -.22857 1.34436 64.963 -139.455)" gradientUnits="userSpaceOnUse" id="l" xlink:href="#a"/><linearGradient y2="525.135" x2="80.783" y1="467.314" x1="90.63" spreadMethod="reflect" gradientTransform="matrix(1.6768 .20767 -.22527 1.35606 211.588 -120.248)" gradientUnits="userSpaceOnUse" id="h" xlink:href="#a"/><linearGradient y2="160.143" x2="-60.117" y1="160.143" x1="-79.526" spreadMethod="reflect" gradientTransform="matrix(.51817 0 0 1.86 105.83 284.661)" gradientUnits="userSpaceOnUse" id="e" xlink:href="#a"/><linearGradient y2="160.143" x2="-63.647" y1="160.143" x1="-75.996" spreadMethod="reflect" gradientTransform="matrix(.73245 0 0 .52143 120.792 492.133)" gradientUnits="userSpaceOnUse" id="f" xlink:href="#a"/><radialGradient spreadMethod="reflect" gradientUnits="userSpaceOnUse" gradientTransform="matrix(2.23097 0 0 5.2362 88.92 -2535.028)" r="31.625" fy="640.617" fx="-25.388" cy="640.617" cx="-25.388" id="k" xlink:href="#a"/><linearGradient gradientUnits="userSpaceOnUse" y2="481.701" x2="96.598" y1="585.107" x1="-123.356" id="y" xlink:href="#a"/><linearGradient gradientUnits="userSpaceOnUse" y2="309.637" x2="52.931" y1="597.718" x1="59.526" id="v" xlink:href="#a"/><filter id="z"><feGaussianBlur stdDeviation="1.402"/></filter><filter id="w"><feGaussianBlur stdDeviation=".999"/></filter><filter id="x"><feGaussianBlur stdDeviation=".636"/></filter><linearGradient xlink:href="#a" id="c" x1="154.515" y1="385.365" x2="154.515" y2="777.961" gradientUnits="userSpaceOnUse"/><linearGradient xlink:href="#b" id="d" x1="142.855" y1="595.298" x2="142.855" y2="534.977" gradientUnits="userSpaceOnUse"/></defs><path style="marker:none" color="#000" fill="url(#c)" overflow="visible" enable-background="accumulate" d="M30.715 349.456h247.6v247.6h-247.6z" transform="translate(-30.515 -349.256)"/><g transform="matrix(1 0 0 -1 -31.015 748.371)" fill="url(#d)" opacity=".565" color="#000"><path style="marker:none" overflow="visible" enable-background="accumulate" d="M228.974 555.055h22.319v8.039h-22.319zM180.335 555.055h22.319v8.039h-22.319zM131.696 555.055h22.319v8.039h-22.319zM83.057 555.055h22.319v8.039H83.057zM34.418 555.055h22.319v8.039H34.418zM253.293 545.016h22.319v8.039h-22.319zM204.654 545.016h22.319v8.039h-22.319zM156.015 545.016h22.319v8.039h-22.319zM107.376 545.016h22.319v8.039h-22.319zM58.737 545.016h22.319v8.039H58.737zM228.974 534.977h22.319v8.039h-22.319zM180.335 534.977h22.319v8.039h-22.319zM131.696 534.977h22.319v8.039h-22.319zM83.057 534.977h22.319v8.039H83.057zM34.418 534.977h22.319v8.039H34.418zM253.293 524.938h22.319v8.039h-22.319zM204.654 524.938h22.319v8.039h-22.319zM156.015 524.938h22.319v8.039h-22.319zM107.376 524.938h22.319v8.039h-22.319zM58.737 524.938h22.319v8.039H58.737zM228.974 514.899h22.319v8.039h-22.319zM180.335 514.899h22.319v8.039h-22.319zM131.696 514.899h22.319v8.039h-22.319zM83.057 514.899h22.319v8.039H83.057zM34.418 514.899h22.319v8.039H34.418zM253.293 504.86h22.319v8.039h-22.319zM204.654 504.86h22.319v8.039h-22.319zM156.015 504.86h22.319v8.039h-22.319zM107.376 504.86h22.319v8.039h-22.319zM58.737 504.86h22.319v8.039H58.737zM228.974 575.133h22.319v8.039h-22.319zM180.335 575.133h22.319v8.039h-22.319zM131.696 575.133h22.319v8.039h-22.319zM83.057 575.133h22.319v8.039H83.057zM34.418 575.133h22.319v8.039H34.418zM253.293 565.094h22.319v8.039h-22.319zM204.654 565.094h22.319v8.039h-22.319zM156.015 565.094h22.319v8.039h-22.319zM107.376 565.094h22.319v8.039h-22.319zM58.737 565.094h22.319v8.039H58.737zM204.654 555.055h22.319v8.039h-22.319zM156.015 555.055h22.319v8.039h-22.319zM107.376 555.055h22.319v8.039h-22.319zM58.737 555.055h22.319v8.039H58.737zM228.974 545.016h22.319v8.039h-22.319zM180.335 545.016h22.319v8.039h-22.319zM131.696 545.016h22.319v8.039h-22.319zM83.057 545.016h22.319v8.039H83.057zM34.418 545.016h22.319v8.039H34.418zM253.293 534.977h22.319v8.039h-22.319zM204.654 534.977h22.319v8.039h-22.319zM156.015 534.977h22.319v8.039h-22.319zM107.376 534.977h22.319v8.039h-22.319zM58.737 534.977h22.319v8.039H58.737zM228.974 524.938h22.319v8.039h-22.319zM180.335 524.938h22.319v8.039h-22.319zM131.696 524.938h22.319v8.039h-22.319zM83.057 524.938h22.319v8.039H83.057zM34.418 524.938h22.319v8.039H34.418zM253.293 514.899h22.319v8.039h-22.319zM204.654 514.899h22.319v8.039h-22.319zM156.015 514.899h22.319v8.039h-22.319zM107.376 514.899h22.319v8.039h-22.319zM58.737 514.899h22.319v8.039H58.737zM228.974 504.86h22.319v8.039h-22.319zM180.335 504.86h22.319v8.039h-22.319zM131.696 504.86h22.319v8.039h-22.319zM83.057 504.86h22.319v8.039H83.057zM34.418 504.86h22.319v8.039H34.418zM253.293 575.133h22.319v8.039h-22.319zM204.654 575.133h22.319v8.039h-22.319zM156.015 575.133h22.319v8.039h-22.319zM107.376 575.133h22.319v8.039h-22.319zM58.737 575.133h22.319v8.039H58.737zM228.974 565.094h22.319v8.039h-22.319zM180.335 565.094h22.319v8.039h-22.319zM131.696 565.094h22.319v8.039h-22.319zM83.057 565.094h22.319v8.039H83.057zM34.418 565.094h22.319v8.039H34.418zM253.293 555.055h22.319v8.039h-22.319z"/></g><g opacity=".7" color="#000"><path style="marker:none" fill="#f40bff" overflow="visible" enable-background="accumulate" d="M197.959 54.684h22.319v8.039h-22.32z"/><path style="marker:none" fill="#c3f" overflow="visible" enable-background="accumulate" d="M149.32 54.684h22.319v8.039h-22.32z"/><path style="marker:none" fill="#a35cff" overflow="visible" enable-background="accumulate" d="M100.68 54.684H123v8.039h-22.32z"/><path style="marker:none" fill="#fe01ff" overflow="visible" enable-background="accumulate" d="M52.042 54.684H74.36v8.039H52.04z"/><path style="marker:none" fill="#fb04ff" overflow="visible" enable-background="accumulate" d="M3.403 54.684h22.319v8.039H3.402z"/><path style="marker:none" fill="#d728ff" overflow="visible" enable-background="accumulate" d="M222.278 44.645h22.319v8.039h-22.32z"/><path style="marker:none" fill="#fa05ff" overflow="visible" enable-background="accumulate" d="M173.639 44.645h22.319v8.039h-22.32z"/><path style="marker:none" fill="#cd32ff" overflow="visible" enable-background="accumulate" d="M125 44.645h22.319v8.039h-22.32z"/><path style="marker:none" fill="#ea15ff" overflow="visible" enable-background="accumulate" d="M76.36 44.645h22.32v8.039H76.36z"/><path style="marker:none" fill="#f0f" overflow="visible" enable-background="accumulate" d="M27.722 44.645H50.04v8.039H27.72zM197.959 34.606h22.319v8.039h-22.32z"/><path style="marker:none" fill="#fa05ff" overflow="visible" enable-background="accumulate" d="M149.32 34.606h22.319v8.039h-22.32z"/><path style="marker:none" fill="#e817ff" overflow="visible" enable-background="accumulate" d="M100.68 34.606H123v8.039h-22.32z"/><path style="marker:none" fill="#f0f" overflow="visible" enable-background="accumulate" d="M52.042 34.606H74.36v8.039H52.04zM3.403 34.606h22.319v8.039H3.402z"/><path style="marker:none" fill="#fc03ff" overflow="visible" enable-background="accumulate" d="M222.278 24.567h22.319v8.039h-22.32z"/><path style="marker:none" fill="#f0f" overflow="visible" enable-background="accumulate" d="M173.639 24.567h22.319v8.039h-22.32z"/><path style="marker:none" fill="#fa05ff" overflow="visible" enable-background="accumulate" d="M125 24.567h22.319v8.039h-22.32z"/><path style="marker:none" fill="#f0f" overflow="visible" enable-background="accumulate" d="M76.36 24.567h22.32v8.039H76.36zM27.722 24.567H50.04v8.039H27.72zM197.959 14.528h22.319v8.039h-22.32zM149.32 14.528h22.319v8.039h-22.32zM100.68 14.528H123v8.039h-22.32zM52.042 14.528H74.36v8.039H52.04zM3.403 14.528h22.319v8.039H3.402zM222.278 4.489h22.319v8.039h-22.32zM173.639 4.489h22.319v8.039h-22.32zM125 4.489h22.319v8.039h-22.32zM76.36 4.489h22.32v8.039H76.36zM27.722 4.489H50.04v8.039H27.72z"/><path style="marker:none" fill="#18e7ff" overflow="visible" enable-background="accumulate" d="M197.959 155.074h22.319v8.039h-22.32z"/><path style="marker:none" fill="#05faff" overflow="visible" enable-background="accumulate" d="M149.32 155.074h22.319v8.039h-22.32z"/><path style="marker:none" fill="#01feff" overflow="visible" enable-background="accumulate" d="M100.68 155.074H123v8.039h-22.32z"/><path style="marker:none" fill="#0ff" overflow="visible" enable-background="accumulate" d="M52.042 155.074H74.36v8.039H52.04zM3.403 155.074h22.319v8.039H3.402z"/><path style="marker:none" fill="#1fe0ff" overflow="visible" enable-background="accumulate" d="M222.278 145.035h22.319v8.039h-22.32z"/><path style="marker:none" fill="#07f8ff" overflow="visible" enable-background="accumulate" d="M173.639 145.035h22.319v8.039h-22.32z"/><path style="marker:none" fill="#01feff" overflow="visible" enable-background="accumulate" d="M125 145.035h22.319v8.039h-22.32z"/><path style="marker:none" fill="#0ff" overflow="visible" enable-background="accumulate" d="M76.36 145.035h22.32v8.039H76.36zM27.722 145.035H50.04v8.039H27.72z"/><path style="marker:none" fill="#0ef1ff" overflow="visible" enable-background="accumulate" d="M197.959 134.996h22.319v8.039h-22.32z"/><path style="marker:none" fill="#02fdff" overflow="visible" enable-background="accumulate" d="M149.32 134.996h22.319v8.039h-22.32z"/><path style="marker:none" fill="#0ff" overflow="visible" enable-background="accumulate" d="M100.68 134.996H123v8.039h-22.32zM52.042 134.996H74.36v8.039H52.04zM3.403 134.996h22.319v8.039H3.402z"/><path style="marker:none" fill="#1de2ff" overflow="visible" enable-background="accumulate" d="M222.278 124.957h22.319v8.039h-22.32z"/><path style="marker:none" fill="#06f9ff" overflow="visible" enable-background="accumulate" d="M173.639 124.957h22.319v8.039h-22.32z"/><path style="marker:none" fill="#01feff" overflow="visible" enable-background="accumulate" d="M125 124.957h22.319v8.039h-22.32zM76.36 124.957h22.32v8.039H76.36z"/><path style="marker:none" fill="#0ff" overflow="visible" enable-background="accumulate" d="M27.722 124.957H50.04v8.039H27.72z"/><path style="marker:none" fill="#14ebff" overflow="visible" enable-background="accumulate" d="M197.959 114.918h22.319v8.039h-22.32z"/><path style="marker:none" fill="#04fbff" overflow="visible" enable-background="accumulate" d="M149.32 114.918h22.319v8.039h-22.32z"/><path style="marker:none" fill="#02fdff" overflow="visible" enable-background="accumulate" d="M100.68 114.918H123v8.039h-22.32z"/><path style="marker:none" fill="#0bf4ff" overflow="visible" enable-background="accumulate" d="M52.042 114.918H74.36v8.039H52.04z"/><path style="marker:none" fill="#02fdff" overflow="visible" enable-background="accumulate" d="M3.403 114.918h22.319v8.039H3.402z"/><path style="marker:none" fill="#35caff" overflow="visible" enable-background="accumulate" d="M222.278 104.879h22.319v8.039h-22.32z"/><path style="marker:none" fill="#14ebff" overflow="visible" enable-background="accumulate" d="M173.639 104.879h22.319v8.039h-22.32z"/><path style="marker:none" fill="#05faff" overflow="visible" enable-background="accumulate" d="M125 104.879h22.319v8.039h-22.32z"/><path style="marker:none" fill="#0ef1ff" overflow="visible" enable-background="accumulate" d="M76.36 104.879h22.32v8.039H76.36z"/><path style="marker:none" fill="#17e8ff" overflow="visible" enable-background="accumulate" d="M27.722 104.879H50.04v8.039H27.72z"/><path style="marker:none" fill="#42bdff" overflow="visible" enable-background="accumulate" d="M197.959 94.84h22.319v8.039h-22.32z"/><path style="marker:none" fill="#14ebff" overflow="visible" enable-background="accumulate" d="M149.32 94.84h22.319v8.039h-22.32z"/><path style="marker:none" fill="#13ecff" overflow="visible" enable-background="accumulate" d="M100.68 94.84H123v8.039h-22.32z"/><path style="marker:none" fill="#51aeff" overflow="visible" enable-background="accumulate" d="M52.042 94.84H74.36v8.039H52.04z"/><path style="marker:none" fill="#2fd0ff" overflow="visible" enable-background="accumulate" d="M3.403 94.84h22.319v8.039H3.402z"/><path style="marker:none" fill="#738cff" overflow="visible" enable-background="accumulate" d="M222.278 84.8h22.319v8.04h-22.32z"/><path style="marker:none" fill="#4bb4ff" overflow="visible" enable-background="accumulate" d="M173.639 84.8h22.319v8.04h-22.32z"/><path style="marker:none" fill="#23dcff" overflow="visible" enable-background="accumulate" d="M125 84.8h22.319v8.04h-22.32z"/><path style="marker:none" fill="#4eb1ff" overflow="visible" enable-background="accumulate" d="M76.36 84.8h22.32v8.04H76.36z"/><path style="marker:none" fill="#8b74ff" overflow="visible" enable-background="accumulate" d="M27.722 84.8H50.04v8.04H27.72z"/><path style="marker:none" fill="#a956ff" overflow="visible" enable-background="accumulate" d="M197.959 74.762h22.319V82.8h-22.32z"/><path style="marker:none" fill="#5aa5ff" overflow="visible" enable-background="accumulate" d="M149.32 74.762h22.319V82.8h-22.32z"/><path style="marker:none" fill="#4eb1ff" overflow="visible" enable-background="accumulate" d="M100.68 74.762H123V82.8h-22.32z"/><path style="marker:none" fill="#c936ff" overflow="visible" enable-background="accumulate" d="M52.042 74.762H74.36V82.8H52.04z"/><path style="marker:none" fill="#bf40ff" overflow="visible" enable-background="accumulate" d="M3.403 74.762h22.319V82.8H3.402z"/><path style="marker:none" fill="#ab54ff" overflow="visible" enable-background="accumulate" d="M222.278 64.723h22.319v8.039h-22.32z"/><path style="marker:none" fill="#bf40ff" overflow="visible" enable-background="accumulate" d="M173.639 64.723h22.319v8.039h-22.32z"/><path style="marker:none" fill="#78f" overflow="visible" enable-background="accumulate" d="M125 64.723h22.319v8.039h-22.32z"/><path style="marker:none" fill="#af50ff" overflow="visible" enable-background="accumulate" d="M76.36 64.723h22.32v8.039H76.36z"/><path style="marker:none" fill="#f10eff" overflow="visible" enable-background="accumulate" d="M27.722 64.723H50.04v8.039H27.72z"/><path style="marker:none" fill="#ed12ff" overflow="visible" enable-background="accumulate" d="M173.639 54.684h22.319v8.039h-22.32z"/><path style="marker:none" fill="#a45bff" overflow="visible" enable-background="accumulate" d="M125 54.684h22.319v8.039h-22.32z"/><path style="marker:none" fill="#d12eff" overflow="visible" enable-background="accumulate" d="M76.36 54.684h22.32v8.039H76.36z"/><path style="marker:none" fill="#fe01ff" overflow="visible" enable-background="accumulate" d="M27.722 54.684H50.04v8.039H27.72z"/><path style="marker:none" fill="#fb04ff" overflow="visible" enable-background="accumulate" d="M197.959 44.645h22.319v8.039h-22.32z"/><path style="marker:none" fill="#e1f" overflow="visible" enable-background="accumulate" d="M149.32 44.645h22.319v8.039h-22.32z"/><path style="marker:none" fill="#c3f" overflow="visible" enable-background="accumulate" d="M100.68 44.645H123v8.039h-22.32z"/><path style="marker:none" fill="#f0f" overflow="visible" enable-background="accumulate" d="M52.042 44.645H74.36v8.039H52.04zM3.403 44.645h22.319v8.039H3.402z"/><path style="marker:none" fill="#ea15ff" overflow="visible" enable-background="accumulate" d="M222.278 34.606h22.319v8.039h-22.32z"/><path style="marker:none" fill="#fd02ff" overflow="visible" enable-background="accumulate" d="M173.639 34.606h22.319v8.039h-22.32z"/><path style="marker:none" fill="#eb14ff" overflow="visible" enable-background="accumulate" d="M125 34.606h22.319v8.039h-22.32z"/><path style="marker:none" fill="#fa05ff" overflow="visible" enable-background="accumulate" d="M76.36 34.606h22.32v8.039H76.36z"/><path style="marker:none" fill="#f0f" overflow="visible" enable-background="accumulate" d="M27.722 34.606H50.04v8.039H27.72zM197.959 24.567h22.319v8.039h-22.32zM149.32 24.567h22.319v8.039h-22.32z"/><path style="marker:none" fill="#f906ff" overflow="visible" enable-background="accumulate" d="M100.68 24.567H123v8.039h-22.32z"/><path style="marker:none" fill="#f0f" overflow="visible" enable-background="accumulate" d="M52.042 24.567H74.36v8.039H52.04zM3.403 24.567h22.319v8.039H3.402zM222.278 14.528h22.319v8.039h-22.32zM173.639 14.528h22.319v8.039h-22.32zM125 14.528h22.319v8.039h-22.32zM76.36 14.528h22.32v8.039H76.36zM27.722 14.528H50.04v8.039H27.72zM197.959 4.489h22.319v8.039h-22.32zM149.32 4.489h22.319v8.039h-22.32zM100.68 4.489H123v8.039h-22.32zM52.042 4.489H74.36v8.039H52.04zM3.403 4.489h22.319v8.039H3.402z"/><path style="marker:none" fill="#2cd3ff" overflow="visible" enable-background="accumulate" d="M222.278 155.074h22.319v8.039h-22.32z"/><path style="marker:none" fill="#0af5ff" overflow="visible" enable-background="accumulate" d="M173.639 155.074h22.319v8.039h-22.32z"/><path style="marker:none" fill="#02fdff" overflow="visible" enable-background="accumulate" d="M125 155.074h22.319v8.039h-22.32z"/><path style="marker:none" fill="#0ff" overflow="visible" enable-background="accumulate" d="M76.36 155.074h22.32v8.039H76.36zM27.722 155.074H50.04v8.039H27.72z"/><path style="marker:none" fill="#1ef" overflow="visible" enable-background="accumulate" d="M197.959 145.035h22.319v8.039h-22.32z"/><path style="marker:none" fill="#02fdff" overflow="visible" enable-background="accumulate" d="M149.32 145.035h22.319v8.039h-22.32z"/><path style="marker:none" fill="#0ff" overflow="visible" enable-background="accumulate" d="M100.68 145.035H123v8.039h-22.32zM52.042 145.035H74.36v8.039H52.04zM3.403 145.035h22.319v8.039H3.402z"/><path style="marker:none" fill="#1be4ff" overflow="visible" enable-background="accumulate" d="M222.278 134.996h22.319v8.039h-22.32z"/><path style="marker:none" fill="#05faff" overflow="visible" enable-background="accumulate" d="M173.639 134.996h22.319v8.039h-22.32z"/><path style="marker:none" fill="#01feff" overflow="visible" enable-background="accumulate" d="M125 134.996h22.319v8.039h-22.32z"/><path style="marker:none" fill="#0ff" overflow="visible" enable-background="accumulate" d="M76.36 134.996h22.32v8.039H76.36zM27.722 134.996H50.04v8.039H27.72z"/><path style="marker:none" fill="#1ef" overflow="visible" enable-background="accumulate" d="M197.959 124.957h22.319v8.039h-22.32z"/><path style="marker:none" fill="#02fdff" overflow="visible" enable-background="accumulate" d="M149.32 124.957h22.319v8.039h-22.32z"/><path style="marker:none" fill="#01feff" overflow="visible" enable-background="accumulate" d="M100.68 124.957H123v8.039h-22.32zM52.042 124.957H74.36v8.039H52.04z"/><path style="marker:none" fill="#0ff" overflow="visible" enable-background="accumulate" d="M3.403 124.957h22.319v8.039H3.402z"/><path style="marker:none" fill="#25daff" overflow="visible" enable-background="accumulate" d="M222.278 114.918h22.319v8.039h-22.32z"/><path style="marker:none" fill="#0bf4ff" overflow="visible" enable-background="accumulate" d="M173.639 114.918h22.319v8.039h-22.32z"/><path style="marker:none" fill="#02fdff" overflow="visible" enable-background="accumulate" d="M125 114.918h22.319v8.039h-22.32z"/><path style="marker:none" fill="#04fbff" overflow="visible" enable-background="accumulate" d="M76.36 114.918h22.32v8.039H76.36z"/><path style="marker:none" fill="#03fcff" overflow="visible" enable-background="accumulate" d="M27.722 114.918H50.04v8.039H27.72z"/><path style="marker:none" fill="#26d9ff" overflow="visible" enable-background="accumulate" d="M197.959 104.879h22.319v8.039h-22.32z"/><path style="marker:none" fill="#09f6ff" overflow="visible" enable-background="accumulate" d="M149.32 104.879h22.319v8.039h-22.32z"/><path style="marker:none" fill="#07f8ff" overflow="visible" enable-background="accumulate" d="M100.68 104.879H123v8.039h-22.32z"/><path style="marker:none" fill="#27d8ff" overflow="visible" enable-background="accumulate" d="M52.042 104.879H74.36v8.039H52.04z"/><path style="marker:none" fill="#0cf3ff" overflow="visible" enable-background="accumulate" d="M3.403 104.879h22.319v8.039H3.402z"/><path style="marker:none" fill="#4fb0ff" overflow="visible" enable-background="accumulate" d="M222.278 94.84h22.319v8.039h-22.32z"/><path style="marker:none" fill="#2ad5ff" overflow="visible" enable-background="accumulate" d="M173.639 94.84h22.319v8.039h-22.32z"/><path style="marker:none" fill="#10efff" overflow="visible" enable-background="accumulate" d="M125 94.84h22.319v8.039h-22.32z"/><path style="marker:none" fill="#25daff" overflow="visible" enable-background="accumulate" d="M76.36 94.84h22.32v8.039H76.36z"/><path style="marker:none" fill="#42bdff" overflow="visible" enable-background="accumulate" d="M27.722 94.84H50.04v8.039H27.72z"/><path style="marker:none" fill="#6f90ff" overflow="visible" enable-background="accumulate" d="M197.959 84.8h22.319v8.04h-22.32z"/><path style="marker:none" fill="#2ed1ff" overflow="visible" enable-background="accumulate" d="M149.32 84.8h22.319v8.04h-22.32z"/><path style="marker:none" fill="#29d6ff" overflow="visible" enable-background="accumulate" d="M100.68 84.8H123v8.04h-22.32z"/><path style="marker:none" fill="#8e71ff" overflow="visible" enable-background="accumulate" d="M52.042 84.8H74.36v8.04H52.04z"/><path style="marker:none" fill="#748bff" overflow="visible" enable-background="accumulate" d="M3.403 84.8h22.319v8.04H3.402z"/><path style="marker:none" fill="#936cff" overflow="visible" enable-background="accumulate" d="M222.278 74.762h22.319V82.8h-22.32z"/><path style="marker:none" fill="#807fff" overflow="visible" enable-background="accumulate" d="M173.639 74.762h22.319V82.8h-22.32z"/><path style="marker:none" fill="#4bf" overflow="visible" enable-background="accumulate" d="M125 74.762h22.319V82.8h-22.32z"/><path style="marker:none" fill="#7c83ff" overflow="visible" enable-background="accumulate" d="M76.36 74.762h22.32V82.8H76.36z"/><path style="marker:none" fill="#cd32ff" overflow="visible" enable-background="accumulate" d="M27.722 74.762H50.04V82.8H27.72z"/><path style="marker:none" fill="#d2f" overflow="visible" enable-background="accumulate" d="M197.959 64.723h22.319v8.039h-22.32z"/><path style="marker:none" fill="#956aff" overflow="visible" enable-background="accumulate" d="M149.32 64.723h22.319v8.039h-22.32z"/><path style="marker:none" fill="#78f" overflow="visible" enable-background="accumulate" d="M100.68 64.723H123v8.039h-22.32z"/><path style="marker:none" fill="#e1f" overflow="visible" enable-background="accumulate" d="M52.042 64.723H74.36v8.039H52.04z"/><path style="marker:none" fill="#eb14ff" overflow="visible" enable-background="accumulate" d="M3.403 64.723h22.319v8.039H3.402z"/><path style="marker:none" fill="#c03fff" overflow="visible" enable-background="accumulate" d="M222.278 54.684h22.319v8.039h-22.32z"/></g><path style="marker:none" d="M.188 247.813h247.625V.188H.188v247.625zm12.343-12.344V12.53H235.47V235.47H12.53z" color="#000" fill="#333" overflow="visible" enable-background="accumulate"/><path style="marker:none" d="M247.8 247.8H.2V.2h247.6v247.6zm-7.284-7.284V7.484H7.484v233.032h233.032z" color="#000" fill="gray" overflow="visible" enable-background="accumulate"/><g color="#000"><path d="M66.598 557.948h6.107v49.157h-6.107z" style="marker:none" fill="url(#e)" overflow="visible" enable-background="accumulate" transform="matrix(.9854 0 0 1 -20.162 -349.256)"/><path d="M65.335 568.745h8.632v13.781h-8.632z" style="marker:none" fill="url(#f)" overflow="visible" enable-background="accumulate" transform="matrix(.9854 0 0 1 -20.162 -349.256)"/></g><path transform="matrix(-.97524 0 0 .94893 274.59 -318.756)" style="marker:none" d="M86.452 475.064a29.211 29.211 0 0 0-4.218.282c-22.629 3.065-37.013 31.8-32.094 64.187 4.919 32.387 27.278 56.16 49.906 53.094 22.628-3.065 36.981-31.832 32.063-64.219-4.612-30.362-24.54-53.14-45.657-53.344z" color="#000" fill="url(#g)" overflow="visible" enable-background="accumulate"/><path d="M268.561 543.572c-5.185 31.215-28.727 54.124-52.581 51.17-23.855-2.955-38.989-30.654-33.803-61.869 5.185-31.214 28.726-54.123 52.581-51.17 23.855 2.955 38.989 30.655 33.803 61.87z" style="marker:none" color="#000" fill="url(#h)" overflow="visible" enable-background="accumulate" transform="translate(-30.515 -349.256)"/><path transform="matrix(-.9694 0 0 .94893 274.31 -318.756)" d="M33.845 542.445c4.84 31.825 26.811 55.182 49.075 52.17 22.264-3.012 36.389-31.253 31.549-63.078-4.84-31.825-26.811-55.182-49.075-52.17-22.264 3.012-36.389 31.253-31.55 63.078z" style="marker:none" color="#000" fill="url(#i)" overflow="visible" enable-background="accumulate"/><path transform="matrix(-.9694 0 0 .94893 274.31 -318.756)" d="M67.125 487.656a25.024 25.024 0 0 0-3.594.219c-19.174 2.592-31.324 26.895-27.156 54.281 4.168 27.387 23.076 47.499 42.25 44.907 19.174-2.593 31.356-26.895 27.188-54.282-3.908-25.675-20.795-44.952-38.688-45.125z" style="marker:none" color="#000" fill="url(#j)" overflow="visible" enable-background="accumulate"/><path transform="matrix(-.9694 0 0 .94893 274.31 -318.756)" d="M66.531 494.844c-1.005-.01-2.021.08-3.031.219-16.156 2.222-26.418 23.046-22.906 46.53 3.512 23.486 19.468 40.724 35.625 38.5 16.156-2.222 26.387-23.077 22.875-46.562-3.293-22.017-17.486-38.54-32.563-38.687z" style="marker:none" color="#000" fill="url(#k)" overflow="visible" enable-background="accumulate"/><path d="M122.77 518.637c-5.26 30.945-29.147 53.657-53.35 50.728-24.205-2.929-39.56-30.39-34.3-61.334 5.262-30.945 29.148-53.657 53.352-50.728 24.204 2.929 39.56 30.39 34.299 61.334z" style="marker:none" color="#000" fill="url(#l)" overflow="visible" enable-background="accumulate" transform="translate(-30.515 -349.256)"/><path d="M40.865 116.828l-5.276.948 10.84-1.843z" fill="#a7a7a7"/><path d="M97.045 446.964l-2.201 16.567 8.08 1.456-2.263-4.206z" fill="url(#m)" transform="translate(-30.515 -349.256)"/><path d="M150.123 354.946c-10.793 1.811-21.811 2.037-32.248 6.264-18.697 7.095-35.404 27.777-37.62 42.618-3.66 11.707-4.77 17.241-6.135 29.364-.21 3.785-.386 13.83-.143 17.606 1.388 5.113 2.826 11.718 7.537 14.936 5.492 2.601 14.43.038 15.331-6.48 1.326-6.645-.022-20.073-.022-20.073s.855-33.293 5.603-43.604c6.295-14.568 16.199-28.716 31.198-35.662 4.401-2.68 9.683-3.065 14.562-4.495l1.937-.474z" fill="url(#n)" transform="translate(-30.515 -349.256)"/><path d="M68.965 466.093l4.812 3.848 8.08-4.202-7.816-15.12z" fill="url(#o)" transform="translate(-30.515 -349.256)"/><path d="M68.25 449.943l-4.035 15.518 5.195.632 5.076-15.42z" fill="url(#p)" transform="translate(-30.515 -349.256)"/><path d="M239.295 484.901l8.586 1.539-3.82-2.12-1.94-1.403-2.83-11.691z" fill="url(#q)" transform="translate(-30.515 -349.256)"/><path d="M150.104 353.345l-20.156 3.44c11.08-.768 22.325 1.487 31.944 7.01 17.691 9.743 29.643 26.691 39.063 43.822 8.662 17.211 10.81 35.419 13.497 55.402.808 6.966 1.53 10.507 1.823 12.353 2.75 3.5 6.557 8.36 9.308 11.861l13.74-2.342c1.809-27.058-7.821-50.314-15.069-73.296-4.844-12.838-13.056-24.22-21.833-34.754-12.282-13.743-30.008-24.557-49.245-23.539-1.024.004-2.048.016-3.072.043z" fill="url(#r)" transform="translate(-30.515 -349.256)"/><path d="M217.095 491.694l8.839-4.71-9.703-11.865-4.88 15.412z" fill="url(#s)" transform="translate(-30.515 -349.256)"/><path transform="matrix(-.9694 0 0 .94893 274.31 -318.756)" d="M221.438 451.281a29.211 29.211 0 0 0-4.22.281c-22.627 3.066-37.012 31.802-32.093 64.188 4.919 32.386 27.278 56.16 49.906 53.094 22.628-3.066 36.982-31.833 32.063-64.219-4.612-30.362-24.54-53.14-45.656-53.344z" style="marker:none" color="#000" fill="url(#t)" overflow="visible" enable-background="accumulate"/><path d="M97.732 474.555c0 23.018-11.532 41.679-25.759 41.679-14.226 0-25.759-18.66-25.759-41.68 0-23.018 11.533-41.678 25.76-41.678 14.226 0 25.758 18.66 25.758 41.679z" style="marker:none" transform="matrix(1.28947 .17088 -.17324 1.11584 47.282 -375.46)" color="#000" fill="url(#u)" overflow="visible" enable-background="accumulate"/><path d="M97.732 474.555c0 23.018-11.532 41.679-25.759 41.679-14.226 0-25.759-18.66-25.759-41.68 0-23.018 11.533-41.678 25.76-41.678 14.226 0 25.758 18.66 25.758 41.679z" style="marker:none" transform="matrix(1.104 .14678 -.14832 .95846 46.823 -299.673)" color="#000" fill="url(#v)" overflow="visible" enable-background="accumulate" filter="url(#w)"/><path transform="matrix(.9694 0 0 .94893 -28.315 -318.756)" d="M84.969 471.063c-12.899.132-25.058 14.893-27.875 34.53-3.005 20.948 5.771 39.518 19.593 41.5 13.823 1.983 27.465-13.396 30.47-34.343 3.004-20.947-5.772-39.517-19.594-41.5a17.09 17.09 0 0 0-2.594-.188z" style="marker:none" color="#000" overflow="visible" enable-background="accumulate" filter="url(#x)"/><path transform="matrix(.9694 0 0 .94893 -28.315 -318.756)" d="M93.281 456.719c-19.686.189-38.263 21.281-42.562 49.375-4.586 29.966 8.81 56.57 29.906 59.406 21.096 2.836 41.914-19.158 46.5-49.125 4.586-29.967-8.81-56.57-29.906-59.406a27.474 27.474 0 0 0-3.938-.25zM90.22 468.28c1.008-.01 2.018.05 3.031.188 16.202 2.2 26.49 22.813 22.969 46.062-3.522 23.25-19.517 40.326-35.719 38.125-16.202-2.2-26.49-22.844-22.969-46.093 3.302-21.797 17.568-38.135 32.688-38.282z" style="marker:none" color="#000" fill="url(#y)" overflow="visible" enable-background="accumulate" filter="url(#z)"/><path d="M211.73 490.53l4.542-15.177-6.291-1.396-2.887 15.742z" fill="url(#A)" transform="translate(-30.515 -349.256)"/><path d="M129.948 356.785c-18.181 1.854-33.05 14.888-42.6 29.408-7.114 11.8-12.225 24.682-15.755 37.9-2.253 8.435-3.61 19.337-3.343 25.976 2.977 1.182 6.236.73 6.236.73s-.078-11.53.422-15.3c2.127-16.044 3.928-32.688 12.56-46.885 9.574-17.048 27.565-31.154 48.206-30.442 19.24.287 36.462 11.464 48.33 25.657 12.68 15.042 21.477 33.39 24.89 52.611 1.666 12.417 2.104 25.031 1.087 37.517 2.324 1.335 6.29 1.396 6.29 1.396s-.113-1.221-.206-1.827c-2.902-18.866-4.026-38.194-10.97-56.204-5.127-14.279-13.949-27.045-24.041-38.393-12.823-13.933-31.445-24.142-51.106-22.144z" fill="url(#B)" transform="translate(-30.515 -349.256)"/></svg>