<svg xmlns="http://www.w3.org/2000/svg" width="366.714" height="366.701"><g transform="translate(-59.5 -94.719)"><circle transform="translate(-48.571 -145.714)" cx="291.429" cy="423.791" r="182.857" fill="navy"/><path d="M242.844 95.219c-.789 0-1.56.01-2.344.03C140.593 96.508 60 177.858 60 278.063c0 100.206 80.593 181.587 180.5 182.844-49.404-1.251-89.063-41.7-89.063-91.406 0-50.495 40.912-91.438 91.407-91.438 50.494 0 91.437-40.911 91.437-91.406 0-50.494-40.943-91.437-91.437-91.437z" fill="#b3b3b3" stroke="#333"/><path d="M242.871 460.92c.789 0 1.559-.01 2.343-.03 99.907-1.257 180.5-82.607 180.5-182.813 0-100.205-80.593-181.586-180.5-182.843 49.404 1.251 89.063 41.7 89.063 91.406 0 50.495-40.912 91.437-91.406 91.437-50.495 0-91.438 40.912-91.438 91.407 0 50.494 40.943 91.437 91.438 91.437z" fill="#999" stroke="#333"/><path d="M242.844 95.219c-.789 0-1.56.01-2.344.03C140.593 96.508 60 177.858 60 278.063c0 100.206 80.593 181.587 180.5 182.844-49.404-1.251-89.063-41.7-89.063-91.406 0-50.495 40.912-91.438 91.407-91.438 50.494 0 91.437-40.911 91.437-91.406 0-50.494-40.943-91.437-91.437-91.437z" fill="#666" stroke="#333"/><path d="M60 278.062c0 .789.011 1.56.031 2.344 1.257 99.907 82.607 180.5 182.813 180.5 100.205 0 181.586-80.593 182.843-180.5-1.251 49.404-41.7 89.063-91.406 89.063-50.494 0-91.437-40.912-91.437-91.407 0-50.494-40.912-91.437-91.407-91.437-50.494 0-91.437 40.943-91.437 91.437z" fill="#ccc" stroke="#333"/></g></svg>