<svg xmlns="http://www.w3.org/2000/svg" xmlns:xlink="http://www.w3.org/1999/xlink" width="619.75" height="395.563"><defs><linearGradient id="b"><stop offset="0" stop-color="#fff"/><stop offset="1" stop-color="#e6e6e6"/></linearGradient><linearGradient id="a"><stop offset="0" stop-color="#666"/><stop offset="1" stop-color="#e6e6e6" stop-opacity="0"/></linearGradient><linearGradient xlink:href="#a" id="c" gradientUnits="userSpaceOnUse" gradientTransform="matrix(1 0 0 .44443 0 -1059.859)" x1="418.608" y1="-1919.059" x2="418.608" y2="-1750.426"/><linearGradient xlink:href="#b" id="d" x1="561.314" y1="-2006.896" x2="687.258" y2="-2006.896" gradientUnits="userSpaceOnUse"/><linearGradient xlink:href="#b" id="g" x1="424.197" y1="-2006.896" x2="550.141" y2="-2006.896" gradientUnits="userSpaceOnUse"/><linearGradient xlink:href="#b" id="f" x1="287.08" y1="-2006.896" x2="413.024" y2="-2006.896" gradientUnits="userSpaceOnUse"/><linearGradient xlink:href="#b" id="e" x1="149.963" y1="-2006.896" x2="275.907" y2="-2006.896" gradientUnits="userSpaceOnUse"/></defs><g transform="translate(-105.25 2150.938)"><rect style="marker:none" width="618.752" height="394.566" x="105.756" y="-2150.434" rx="2.717" ry="3.278" color="#000" stroke="#333" stroke-linecap="round" stroke-linejoin="round" overflow="visible"/><path style="marker:none" d="M4432.873-372.793c-106.181-70.101-172.161-272.251-236.117-481.262C4242.509-640.354 4290-434.08 4369.263-376.07c-80.361-58.063-128.61-263.914-175.264-477.393 28.126 216.676 57.456 425.315 107.542 474.634-51.24-49.357-81.302-257.73-110.34-474.268 10.307 218.218 21.182 428.048 39.991 472.631-19.994-44.599-31.586-254.327-42.808-472.493-7.585 218.32-15.283 428.173-28.551 472.307 12.08-44.125 19.062-254.044 25.732-472.398-25.426 216.98-51.637 425.693-96.437 473.695 43.637-47.97 69.12-256.915 93.634-474.015-43.095 214.209-87.576 420.615-162.054 476.525 73.366-55.86 117.096-262.659 159.287-477.072-60.471 210.023-122.81 412.95-223.9 480.247 100.054-67.244 161.607-270.708 221.188-481.017-77.438 204.447-157.055 402.708-280.662 484.061 122.665-81.308 201.457-280.237 278.021-485.048-93.879 197.517-190.047 389.913-331.272 486.97 140.394-97.04 235.694-290.213 328.722-488.17-109.685 189.277-221.544 374.596-374.96 487.846 152.707-113.28 263.655-299.462 372.517-489.248-124.75 179.778-251.324 356.798-411.284 485.502 159.378-128.801 285.005-306.747 408.965-487.1-138.973 169.081-279.194 336.58-440.142 478.774 160.491-142.376 299.74-310.84 437.961-480.555-152.26 157.255-304.986 314.02-461.76 466.591 156.437-152.857 308.18-310.603 459.733-468.544-164.526 144.374-328.56 289.214-476.674 448.057 147.885-159.242 310.944-305.062 474.813-450.17-175.689 130.524-349.802 262.29-485.678 422.512 135.74-160.744 308.908-293.47 483.996-424.771-185.677 115.796-368.622 233.397-489.769 389.583 121.087-156.835 303.138-275.365 488.277-391.972-194.428 100.285-384.95 202.71-490.078 349.216 105.124-147.28 294.828-250.593 488.785-351.72-201.885 84.096-398.738 170.43-487.791 301.699 89.086-132.16 285.22-219.339 486.707-304.3-208.002 67.335-409.953 136.786-484.073 247.65 74.172-111.858 275.524-182.112 483.204-250.332-212.74 50.116-418.57 102.028-479.987 188.008 61.47-87.06 266.84-139.737 479.34-190.753-216.073 32.556-424.58 66.425-476.433 123.978 51.894-58.695 260.096-93.301 476.01-126.767-217.975 14.773-427.975 30.262-474.078 56.983 46.124-27.9 255.981-44.109 473.882-59.797-218.437-3.113-428.754-6.166-473.327-11.409 44.57 4.054 254.912 6.392 473.361 8.588-217.458-20.978-426.921-42.557-474.287-79.556 47.339 35.828 256.995 56.683 474.55 76.747-215.042-38.702-422.481-78.61-476.765-145.83 54.239 66.094 262.03 105.257 477.256 143.052-211.207-56.163-415.443-114.03-480.279-208.7 64.782 93.613 269.522 150.704 480.993 205.972-205.973-73.244-405.82-148.533-484.086-266.796 78.22 117.297 278.702 191.771 485.02 264.136-199.377-89.828-393.631-181.85-487.237-318.988 93.582 136.28 288.587 227.444 488.384 316.414-191.458-105.804-378.906-213.732-488.632-364.427 109.745 149.955 298.036 256.983 489.985 361.955-182.266-121.064-361.686-243.953-487.096-402.59 125.491 158.023 305.823 279.973 488.645 400.238-171.86-135.508-342.024-272.313-481.45-433.288 139.588 160.487 310.71 296.325 483.187 431.07-160.307-149.038-319.998-298.637-470.6-456.669 150.862 157.665 311.533 306.282 472.512 454.603-147.68-161.57-295.701-322.782-453.604-473.197 158.275 150.16 307.277 310.393 455.678 471.293-134.062-173.017-269.252-344.623-429.737-483.604 160.979 138.824 297.134 309.474 431.96 481.875-119.542-183.307-240.794-364.064-398.555-488.843 158.38 124.702 280.57 304.55 400.913 487.303-104.216-192.375-210.5-381.034-359.927-490.02 150.172 108.97 257.355 296.79 362.404 488.676-88.186-200.162-178.567-395.477-314.056-488.31 136.354 92.858 227.59 287.427 316.634 487.173-71.556-206.62-145.213-407.355-261.483-484.89 117.24 77.582 191.71 277.687 264.147 483.966-54.442-211.709-110.688-416.644-203.072-480.858 93.445 64.268 150.465 268.707 205.802 480.155-36.956-215.397-75.255-423.329-139.966-477.157 65.84 53.873 104.882 261.459 142.745 476.677-19.218-217.66-39.196-427.4-73.541-474.515 35.517 47.141 56.218 256.697 76.351 474.263-1.349-218.486-2.807-428.857-5.341-473.405 3.723 44.55 5.896 254.904 8.162 473.381 16.53-217.868 33.613-427.7 63.007-474.007-28.216 46.285-44.58 256.267-60.194 474.213 34.297-215.813 69.764-423.933 129.864-476.202-58.96 52.227-93.69 260.66-127.077 476.636 51.832-212.332 105.347-417.564 193.666-479.575-87.243 61.958-139.992 267.657-190.924 480.233 69.014-207.446 140.077-408.603 252.999-483.444-111.933 74.79-182.191 276.552-250.321 484.324 85.728-201.188 173.68-397.07 306.669-486.905-132.104 89.803-219.209 286.41-304.072 487.999 101.861-193.594 205.903-382.988 353.755-488.887-147.084 105.904-250.236 296.12-351.257 490.19 117.305-184.716 236.515-366.398 393.653-488.226-156.494 121.891-274.775 304.47-391.27 489.727 131.956-174.607 265.31-347.346 426.093-483.736-160.266 136.53-292.659 310.217-423.842 485.427 145.72-163.333 292.11-325.905 451.145-474.294-158.64 148.623-304.052 312.171-449.039 476.163 158.501-150.966 316.761-302.163 469.196-458.91-152.155 157.09-309.434 309.27-467.25 460.945 170.22-137.585 339.138-276.233 480.92-436.804-141.604 161.034-309.558 300.653-479.148 438.992 180.802-123.28 359.14-248.253 487.23-407.455-127.996 159.79-305.412 285.709-485.642 409.781 190.176-108.143 376.69-218.387 489.195-370.65-112.477 152.978-298.132 264.13-487.802 373.099 198.284-92.276 391.729-186.826 487.99-326.511-96.28 140.521-288.953 235.938-486.8 329.066 205.074-75.782 404.215-153.785 484.798-275.496-80.628 122.657-279.108 201.484-483.821 278.14 210.506-58.774 414.124-119.505 480.748-218.39-66.678 99.926-269.766 161.44-479.99 221.106 214.544-41.366 421.44-84.248 476.828-156.274-55.437 73.141-261.948 116.773-476.291 159.044 217.162-23.676 426.149-48.293 473.826-90.474-47.71 43.346-256.47 68.69-473.517 93.278 218.348-5.824 428.253-11.93 472.287-22.497-44.043 11.755-253.889 18.577-472.206 25.317 218.09 12.069 427.75 24.54 472.463 46.04-44.697-20.316-254.464-32.07-472.612-43.222 216.395 29.88 424.643 60.812 474.312 113.49-49.63-51.525-258.152-81.726-474.689-110.695 213.27 47.488 418.94 96.593 477.488 178.262-58.495-80.575-264.594-128.92-478.09-175.506 208.735 64.773 410.65 131.586 481.373 238.896-70.669-106.296-273.155-172.315-482.198-236.2 202.82 81.62 399.789 165.518 485.112 294.135-85.283-127.703-282.948-210.766-486.152-291.516 195.56 97.912 386.377 198.13 487.666 342.986-101.282-144.057-292.898-243.395-488.917-340.46 187.003 113.54 370.45 229.18 487.886 384.759-117.48-154.903-301.808-269.623-489.338-382.346 177.2 128.402 352.054 258.462 484.582 419.101-132.645-160.09-308.435-289.196-486.226-416.815 166.217 142.398 331.25 285.786 476.603 445.996-145.559-159.786-311.564-302.197-478.428-443.852 154.121 155.436 308.124 310.993 462.918 465.753-155.107-154.453-310.092-309.027-464.913-463.766 140.993 167.43 282.78 333.95 442.683 478.982-160.333-144.83-303.096-310.38-444.833-477.165 126.916 178.303 255.346 354.552 415.304 486.537-160.512-131.872-289.896-307.186-417.597-484.902 111.984 187.986 225.982 372.715 380.488 489.46-155.187-116.703-270.104-300.555-382.907-488.017 96.295 196.416 194.869 388.375 338.265 488.903-144.2-100.537-243.652-291.701-340.794-487.662 79.953 203.54 162.215 401.49 289.007 486.059-127.71-84.61-210.807-281.87-291.63-485.028 63.068 209.314 128.255 412.03 233.418 482.076z" opacity=".77" color="#000" fill="#999" stroke="#000" stroke-width=".9997632000000001" overflow="visible"/><path d="M162.155-1907.688c-6.474 0-11.687 2.31-11.687 5.18v79.234c0 2.87 5.213 5.18 11.687 5.18h101.563c6.474 0 11.687-2.31 11.687-5.18v-79.233c0-2.87-5.213-5.18-11.687-5.18H162.155zm137.125 0c-6.474 0-11.687 2.31-11.687 5.18v79.234c0 2.87 5.213 5.18 11.687 5.18h101.563c6.474 0 11.687-2.31 11.687-5.18v-79.233c0-2.87-5.213-5.18-11.687-5.18H299.28zm137.094 0c-6.475 0-11.688 2.31-11.688 5.18v79.234c0 2.87 5.213 5.18 11.688 5.18h101.594c6.474 0 11.687-2.31 11.687-5.18v-79.233c0-2.87-5.213-5.18-11.687-5.18H436.374zm137.125 0c-6.475 0-11.688 2.31-11.688 5.18v79.234c0 2.87 5.213 5.18 11.688 5.18H675.06c6.475 0 11.688-2.31 11.688-5.18v-79.233c0-2.87-5.213-5.18-11.688-5.18H573.5z" style="marker:none" opacity=".77" color="#000" fill="url(#c)" overflow="visible" transform="translate(-3.477 11.29)"/><path d="M573.501-2107.696h101.57c6.475 0 11.687 5.2 11.687 11.66v178.28c0 6.46-5.212 11.66-11.687 11.66h-101.57c-6.474 0-11.687-5.2-11.687-11.66v-178.28c0-6.46 5.213-11.66 11.687-11.66z" style="marker:none" color="#000" fill="url(#d)" stroke="#000" stroke-linecap="round" stroke-linejoin="round" overflow="visible" transform="translate(-3.478 8.699)"/><path d="M620.807-2024.214c-2.87 5.593-5.29 10.776-8.495 14.95-3.205 4.175-7.181 7.328-11.474 11.068 4.293 3.74 8.269 6.892 11.474 11.067 3.204 4.175 5.624 9.355 8.495 14.947 2.87-5.592 5.29-10.772 8.495-14.947 3.205-4.175 7.183-7.327 11.476-11.067-4.293-3.74-8.27-6.893-11.476-11.068-3.204-4.174-5.624-9.357-8.495-14.95zM577.038-2066.672c-.91 1.772-1.676 3.413-2.69 4.735-1.016 1.322-2.275 2.321-3.635 3.505 1.36 1.185 2.62 2.183 3.634 3.505 1.015 1.323 1.782 2.963 2.69 4.735.91-1.772 1.676-3.412 2.691-4.735 1.015-1.322 2.275-2.32 3.635-3.505-1.36-1.184-2.62-2.183-3.635-3.505-1.015-1.322-1.781-2.963-2.69-4.735z" style="marker:none" color="#000" fill="maroon" overflow="visible"/><g style="line-height:125%"><path style="-inkscape-font-specification:Serif" d="M573.205-2077.431h6.978l-3.489-9.02-3.489 9.02m-5.373 6.873v-1.347h1.668l6.774-17.62h2.14l6.786 17.62h1.872v1.347h-6.914v-1.347h2.113l-1.591-4.167h-7.997l-1.591 4.167h2.088v1.347h-5.348" font-family="Serif" font-size="10.287" font-weight="400" letter-spacing="0" word-spacing="0" fill="maroon"/></g><path style="marker:none" d="M663.75-1929.724c-.909-1.77-1.675-3.412-2.69-4.734-1.015-1.323-2.274-2.321-3.634-3.506 1.36-1.184 2.619-2.183 3.634-3.505 1.015-1.322 1.781-2.963 2.69-4.734.91 1.771 1.676 3.412 2.691 4.734s2.275 2.32 3.635 3.505c-1.36 1.185-2.62 2.183-3.635 3.506-1.015 1.322-1.781 2.963-2.69 4.734z" color="#000" fill="maroon" overflow="visible"/><g style="line-height:125%"><path style="-inkscape-font-specification:Serif" d="M659.918-1918.964h6.978l-3.49 9.019-3.488-9.02m-5.373-6.872v1.347h1.668l6.774 17.62h2.139l6.787-17.62h1.872v-1.347h-6.915v1.347h2.114l-1.592 4.166h-7.996l-1.592-4.166h2.089v-1.347h-5.348" font-family="Serif" font-size="10.287" font-weight="400" letter-spacing="0" word-spacing="0" fill="maroon"/></g><g><path d="M162.15-2107.696h101.57c6.474 0 11.687 5.2 11.687 11.66v178.28c0 6.46-5.213 11.66-11.687 11.66H162.15c-6.475 0-11.687-5.2-11.687-11.66v-178.28c0-6.46 5.212-11.66 11.687-11.66z" style="marker:none" color="#000" fill="url(#e)" stroke="#000" stroke-linecap="round" stroke-linejoin="round" overflow="visible" transform="translate(-3.478 8.699)"/><g style="line-height:125%"><path style="-inkscape-font-specification:Serif" d="M161.854-2077.431h6.978l-3.49-9.02-3.488 9.02m-5.374 6.873v-1.347h1.669l6.774-17.62h2.139l6.787 17.62h1.871v1.347h-6.914v-1.347h2.114l-1.592-4.167h-7.996l-1.592 4.167h2.088v1.347h-5.348" font-family="Serif" font-size="10.287" font-weight="400" letter-spacing="0" word-spacing="0" fill="maroon"/></g><path d="M162.938-2066.672c-1.387.035-2.264 1.214-2.693 2.272-.89 2.146-.406 4.518.543 6.577 1.279 2.795 3.225 5.3 5.344 7.63 2.203-2.464 4.116-5.178 5.365-8.143.322-.774.736-1.529.834-2.364.272-1.792-.005-3.804-1.36-5.218-.676-.738-1.959-1.022-2.854-.429-1.365.882-1.863 2.46-1.993 3.896-.166-.79-.276-1.617-.68-2.354-.46-.904-1.3-1.856-2.506-1.867z" style="text-indent:0;text-align:start;line-height:normal;text-transform:none;block-progression:tb;marker:none;-inkscape-font-specification:Sans" font-weight="400" color="#000" fill="maroon" overflow="visible" font-family="Sans"/><path d="M201.336-2019.56c-3.558.096-5.812 3.149-6.914 5.89-2.282 5.565-1.04 11.714 1.395 17.051 3.284 7.246 8.28 13.74 13.72 19.783 5.656-6.39 10.569-13.427 13.773-21.111.828-2.007 1.892-3.964 2.143-6.13.698-4.645-.012-9.862-3.493-13.527-1.736-1.914-5.028-2.65-7.327-1.112-3.503 2.286-4.78 6.377-5.117 10.098-.425-2.046-.708-4.19-1.744-6.1-1.18-2.346-3.337-4.813-6.436-4.841z" style="text-indent:0;text-align:start;line-height:normal;text-transform:none;block-progression:tb;marker:none;-inkscape-font-specification:Sans" font-weight="400" color="#000" fill="maroon" stroke="maroon" overflow="visible" font-family="Sans"/><g style="line-height:125%"><path style="-inkscape-font-specification:Serif" d="M248.567-1918.964h6.977l-3.488 9.019-3.49-9.02m-5.373-6.872v1.347h1.668l6.774 17.62h2.14l6.786-17.62h1.872v-1.347h-6.914v1.347h2.114l-1.592 4.166h-7.996l-1.592-4.166h2.088v-1.347h-5.348" font-family="Serif" font-size="10.287" font-weight="400" letter-spacing="0" word-spacing="0" fill="maroon"/></g><path style="text-indent:0;text-align:start;line-height:normal;text-transform:none;block-progression:tb;marker:none;-inkscape-font-specification:Sans" d="M249.65-1929.724c-1.386-.035-2.264-1.214-2.693-2.271-.889-2.147-.405-4.519.543-6.577 1.28-2.795 3.225-5.3 5.345-7.63 2.203 2.464 4.116 5.178 5.364 8.142.323.775.737 1.53.835 2.365.272 1.791-.005 3.804-1.36 5.217-.677.739-1.96 1.023-2.855.43-1.364-.882-1.862-2.46-1.993-3.896-.165.79-.275 1.617-.679 2.353-.46.905-1.3 1.857-2.507 1.867z" font-weight="400" color="#000" fill="maroon" overflow="visible" font-family="Sans"/></g><g><path d="M299.267-2107.696h101.57c6.475 0 11.687 5.2 11.687 11.66v178.28c0 6.46-5.212 11.66-11.687 11.66h-101.57c-6.475 0-11.687-5.2-11.687-11.66v-178.28c0-6.46 5.212-11.66 11.687-11.66z" style="marker:none" color="#000" fill="url(#f)" stroke="#000" stroke-linecap="round" stroke-linejoin="round" overflow="visible" transform="translate(-3.478 8.699)"/><g style="line-height:125%"><path style="-inkscape-font-specification:Serif" d="M298.971-2077.431h6.978l-3.489-9.02-3.489 9.02m-5.373 6.873v-1.347h1.668l6.774-17.62h2.139l6.787 17.62h1.872v1.347h-6.915v-1.347h2.114l-1.591-4.167h-7.997l-1.592 4.167h2.089v1.347h-5.348" font-family="Serif" font-size="10.287" font-weight="400" letter-spacing="0" word-spacing="0"/></g><path d="M303.218-2066.672c-.81 0-1.62.322-2.238.96a3.339 3.339 0 0 0 0 4.615c.126.13.26.249.4.352-.404-.193-.851-.3-1.325-.3-1.746 0-3.162 1.462-3.162 3.266s1.416 3.263 3.162 3.263c.973 0 1.843-.455 2.423-1.168-.13 1.896-.472 3.729-1.272 5.492h4.024c-.892-1.652-1.244-3.565-1.356-5.594a3.12 3.12 0 0 0 2.502 1.27c1.746 0 3.167-1.459 3.167-3.263 0-1.804-1.42-3.267-3.167-3.267-.471 0-.918.106-1.32.297.139-.105.27-.219.395-.348a3.339 3.339 0 0 0 0-4.616 3.1 3.1 0 0 0-2.233-.959zM346.574-2024.214c-2.555 0-5.115 1.015-7.064 3.03-3.9 4.026-3.9 10.546 0 14.573.396.41.818.785 1.26 1.112a9.659 9.659 0 0 0-4.181-.951c-5.514 0-9.985 4.62-9.985 10.316 0 5.695 4.471 10.3 9.985 10.3 3.071 0 5.82-1.435 7.651-3.687-.414 5.988-1.492 11.774-4.019 17.34h12.706c-2.816-5.216-3.927-11.256-4.281-17.662 1.826 2.44 4.683 4.01 7.9 4.01 5.514 0 9.998-4.606 9.998-10.301 0-5.696-4.484-10.316-9.997-10.316a9.67 9.67 0 0 0-4.17.936c.438-.324.856-.69 1.249-1.097 3.899-4.027 3.899-10.547 0-14.574-1.95-2.014-4.497-3.029-7.052-3.029z" style="text-indent:0;text-align:start;line-height:normal;text-transform:none;block-progression:tb;marker:none;-inkscape-font-specification:Sans" font-weight="400" color="#000" overflow="visible" font-family="Sans"/><g style="line-height:125%"><path style="-inkscape-font-specification:Serif" d="M385.684-1918.964h6.978l-3.49 9.019-3.488-9.02m-5.374-6.872v1.347h1.668l6.774 17.62h2.14l6.787-17.62h1.871v-1.347h-6.914v1.347h2.114l-1.592 4.166h-7.996l-1.592-4.166h2.088v-1.347h-5.348" font-family="Serif" font-size="10.287" font-weight="400" letter-spacing="0" word-spacing="0"/></g><path style="text-indent:0;text-align:start;line-height:normal;text-transform:none;block-progression:tb;marker:none;-inkscape-font-specification:Sans" d="M389.93-1929.724c-.809 0-1.62-.321-2.237-.959a3.339 3.339 0 0 1 0-4.616c.126-.129.26-.248.4-.352-.404.193-.852.301-1.325.301-1.746 0-3.163-1.463-3.163-3.267 0-1.804 1.417-3.262 3.163-3.262.973 0 1.843.454 2.423 1.168-.131-1.897-.473-3.73-1.273-5.492h4.024c-.892 1.652-1.243 3.565-1.355 5.594a3.12 3.12 0 0 1 2.502-1.27c1.746 0 3.166 1.458 3.166 3.262s-1.42 3.267-3.166 3.267c-.472 0-.919-.106-1.32-.296.138.103.27.218.395.347a3.339 3.339 0 0 1 0 4.616 3.1 3.1 0 0 1-2.234.96z" font-weight="400" color="#000" overflow="visible" font-family="Sans"/></g><g><path d="M436.384-2107.696h101.57c6.475 0 11.687 5.2 11.687 11.66v178.28c0 6.46-5.212 11.66-11.687 11.66h-101.57c-6.474 0-11.687-5.2-11.687-11.66v-178.28c0-6.46 5.213-11.66 11.687-11.66z" style="marker:none" color="#000" fill="url(#g)" stroke="#000" stroke-linecap="round" stroke-linejoin="round" overflow="visible" transform="translate(-3.478 8.699)"/><path d="M438.323-2050.193c1.198-2.02 1.371-4.16 1.34-6.403-.579.771-1.478 1.27-2.49 1.27-1.693 0-3.074-1.387-3.159-3.128a2.826 2.826 0 0 1-.005-.16v-.026-.035c0-.056.005-.114.008-.17.02-.307.079-.603.174-.882.003 0 .008-.026.012-.03.938-2.953 5.041-6.068 6.163-6.917 1.187.878 4.16 3.384 5.526 5.9h.005c.475.577.763 1.326.763 2.145 0 1.82-1.416 3.297-3.162 3.297-1.04 0-1.962-.523-2.538-1.329-.065 2.346.086 4.62 1.387 6.463h-4.024z" style="text-indent:0;text-align:start;line-height:normal;text-transform:none;block-progression:tb;marker:none;-inkscape-font-specification:Sans" font-weight="400" color="#000" overflow="visible" font-family="Sans"/><g style="line-height:125%"><path style="-inkscape-font-specification:Serif" d="M436.088-2077.431h6.978l-3.489-9.02-3.489 9.02m-5.373 6.873v-1.347h1.668l6.774-17.62h2.14l6.786 17.62h1.872v1.347h-6.914v-1.347h2.113l-1.591-4.167h-7.997l-1.592 4.167h2.089v1.347h-5.348" font-family="Serif" font-size="10.287" font-weight="400" letter-spacing="0" word-spacing="0"/></g><path style="text-indent:0;text-align:start;line-height:normal;text-transform:none;block-progression:tb;marker:none;-inkscape-font-specification:Sans" d="M477.338-1972.182c3.785-6.377 4.331-13.135 4.231-20.217-1.826 2.436-4.665 4.008-7.863 4.008-5.342 0-9.705-4.377-9.972-9.874v-.026a10.488 10.488 0 0 1-.012-.504v-.056-.111a9.52 9.52 0 0 1 .025-.538c.062-.971.248-1.907.549-2.787.01-.03.027-.06.037-.088 2.962-9.328 15.917-19.162 19.459-21.84 3.749 2.769 13.137 10.682 17.448 18.627h.013a10.62 10.62 0 0 1 2.409 6.773c0 5.746-4.471 10.41-9.985 10.41-3.282 0-6.194-1.65-8.013-4.197-.206 7.408.27 14.585 4.38 20.407H477.34zM525.035-1946.203c1.199 2.02 1.372 4.16 1.34 6.403-.578-.77-1.477-1.269-2.49-1.269-1.692 0-3.074 1.386-3.158 3.127a2.825 2.825 0 0 0-.005.16v.061c0 .056.005.114.008.17.02.308.078.604.173.883.003 0 .008.026.013.029.938 2.954 5.04 6.069 6.162 6.917 1.188-.877 4.161-3.383 5.527-5.9h.005a3.365 3.365 0 0 0 .763-2.145c0-1.82-1.416-3.297-3.163-3.297-1.04 0-1.961.523-2.538 1.33-.065-2.347.086-4.62 1.388-6.464h-4.024z" font-weight="400" color="#000" overflow="visible" font-family="Sans"/><g style="line-height:125%"><path style="-inkscape-font-specification:Serif" d="M522.8-1918.964h6.979l-3.49 9.019-3.488-9.02m-5.374-6.872v1.347h1.668l6.775 17.62h2.139l6.787-17.62h1.871v-1.347h-6.914v1.347h2.114l-1.592 4.166h-7.996l-1.592-4.166h2.088v-1.347h-5.348" font-family="Serif" font-size="10.287" font-weight="400" letter-spacing="0" word-spacing="0"/></g></g></g></svg>