<svg viewBox="0 0 1022.7 1072.8" xmlns="http://www.w3.org/2000/svg" xmlns:xlink="http://www.w3.org/1999/xlink"><defs><linearGradient id="b"><stop stop-color="#091e3e" offset="0"/><stop stop-color="#fff" offset="1"/></linearGradient><linearGradient id="a"><stop stop-color="#69d500" offset="0"/><stop stop-color="#0b2a19" offset="1"/></linearGradient><radialGradient id="c" cx="302.68" cy="33.682" r="361.51" gradientTransform="matrix(.96964 0 0 .96929 25.742 -6.096)" gradientUnits="userSpaceOnUse" xlink:href="#a" spreadMethod="reflect"/><linearGradient id="h" x1="509.75" x2="559.06" y1="89.965" y2="12.646" gradientTransform="translate(-64.622 -25.22) scale(1.1298)" gradientUnits="userSpaceOnUse" xlink:href="#b" spreadMethod="reflect"/><linearGradient id="k" x1="203.03" x2="118.4" y1="75.152" y2="52.475" gradientTransform="translate(-64.622 -25.22) scale(1.1298)" gradientUnits="userSpaceOnUse" xlink:href="#b" spreadMethod="reflect"/><linearGradient id="j" x1="345.21" x2="408.38" y1="119.6" y2="44.921" gradientTransform="translate(-64.622 -25.22) scale(1.1298)" gradientUnits="userSpaceOnUse" xlink:href="#b"/><linearGradient id="f" x1="660.73" x2="725.24" y1="66.041" y2="13.896" gradientTransform="translate(-64.622 -25.22) scale(1.1298)" gradientUnits="userSpaceOnUse" xlink:href="#b"/><linearGradient id="g" x1="830.84" x2="749.16" y1="10.933" y2="-12.35" gradientUnits="userSpaceOnUse" xlink:href="#b"/><linearGradient id="m" x1="64.555" x2="284.87" y1="58.69" y2="41.92" gradientUnits="userSpaceOnUse" xlink:href="#b"/><linearGradient id="l" x1="310.04" x2="425.87" y1="33.399" y2="25.756" gradientUnits="userSpaceOnUse" xlink:href="#b"/><radialGradient id="e" cx="365.62" cy="344.72" r="206.25" gradientTransform="translate(-191.68 -584.83) scale(1.3956)" gradientUnits="userSpaceOnUse"><stop stop-color="#fff" stop-opacity=".643" offset="0"/><stop stop-color="#fff" stop-opacity="0" offset="1"/></radialGradient><filter id="d" x="-.08" y="-.243" width="1.159" height="1.486"><feGaussianBlur stdDeviation="26.624"/></filter><linearGradient id="i" x1="474.11" x2="501.1" y1="-304.42" y2="164.29" gradientUnits="userSpaceOnUse" xlink:href="#b"/></defs><path d="M880.587 536.436c0 202.144-163.862 366.005-366.005 366.005-202.144 0-366.006-163.861-366.006-366.005s163.862-366.005 366.006-366.005c202.143 0 366.005 163.861 366.005 366.005z" fill="#004000"/><g transform="translate(88.163 476.154)" fill="url(#c)" color="#000"><path d="M320.92-286.05a306.296 306.296 0 0 1 30.004-6.713 67.33 67.33 0 0 0-6.017 4.589c-15.423 2.13-31.174 5.773-46.95 10.963.832-.99 1.707-1.801 2.642-2.455a324.545 324.545 0 0 1 20.322-6.384zM293.26-276.99c-.35.548-.671 1.126-.994 1.722-16.313 5.75-32.624 13.15-48.587 22.24-.074-.129-.23-.387-.297-.504a348.178 348.178 0 0 1 49.878-23.459zM361.2-294.39c16.825-2.28 33.295-2.97 49.092-2.122a125.906 125.906 0 0 0-14.658 6.872c-14.001-1.237-28.648-1.034-43.645.597 2.987-2.128 6.058-3.935 9.211-5.347zM311.83-277.6c9.56-2.644 19.052-4.729 28.45-6.232-3.175 3.212-6.194 6.813-9.112 10.788-12.89 1.807-26.058 4.905-39.238 9.317.634-2.557 1.359-4.88 2.196-6.898.25-.6.51-1.145.775-1.695a278.194 278.194 0 0 1 16.929-5.28zM398.39-300.47c8.917-.59 17.613-.754 26.09-.553-1.85.45-3.706.965-5.546 1.519a242.734 242.734 0 0 0-20.544-.966zM290.17-270.63c-.932 2.49-1.705 5.279-2.361 8.333-13.147 4.672-26.28 10.654-39.153 17.964-.738-1.277-2.008-3.503-2.608-4.543-.251-.434-.331-.595-.555-.983 14.688-8.363 29.678-15.274 44.678-20.771zM346.6-284.75c14.939-1.998 29.539-2.56 43.513-1.695-5.824 3.543-11.546 7.609-17.193 12.145-11.752-1.026-24.038-.846-36.626.594 3.299-4.2 6.736-7.88 10.305-11.044zM240.22-251.68c.068.117.222.374.297.503-15.87 9.287-30.45 19.699-43.597 30.964-.674-.018-1.333-.049-1.98-.02 13.833-11.35 28.973-21.92 45.28-31.447zM419.43-295.85c16.115 1.504 31.412 4.7 45.634 9.48a200.59 200.59 0 0 0-23.711 6.775c-12.164-4.526-25.313-7.657-39.128-9.348 5.684-2.81 11.422-5.132 17.205-6.907zM429.31-298.34a94.872 94.872 0 0 1 12.972-1.696c17.627 1.609 34.113 4.967 49.302 9.889-6.511.4-13.065 1.203-19.646 2.385-13.309-4.98-27.602-8.526-42.628-10.577zM242.34-248.01c.219.379.303.531.547.954.604 1.047 1.903 3.276 2.646 4.564-12.753 7.484-24.492 15.833-35.103 24.87-2.986-.965-5.793-1.67-8.427-2.11 12.262-10.24 25.75-19.74 40.337-28.278zM304.47-263.76c8-2.22 15.946-3.972 23.805-5.214-.73 1.09-1.467 2.197-2.18 3.334-2.533 4.037-4.94 8.382-7.255 13.01-9.681 1.378-19.556 3.692-29.446 6.983.029-.465.041-.954.074-1.411.333-4.614.864-8.778 1.563-12.519a227.691 227.691 0 0 1 13.438-4.183zM286.99-258.13c-.544 3.328-.964 6.95-1.243 10.815-.07.977-.116 1.98-.17 2.99-9.8 3.507-19.589 7.962-29.186 13.384-2.552-4.42-4.04-7.002-5.918-10.255a243.856 243.856 0 0 1 36.518-16.935zM333.27-269.66c12.218-1.621 24.158-2.077 35.582-1.35-6.117 5.208-12.085 11.02-17.939 17.328-8.864-.751-18.122-.599-27.6.472 1.915-3.685 3.885-7.188 5.934-10.455a122.88 122.88 0 0 1 4.023-5.996zM396.49-285.95c13.995 1.318 27.281 4.098 39.587 8.286-8.543 3.262-17.097 7.15-25.593 11.581-10.061-3.729-20.926-6.3-32.338-7.673 6.026-4.63 12.144-8.735 18.344-12.194zM247.34-239.36c1.875 3.247 3.365 5.817 5.91 10.225-9.486 5.594-18.218 11.831-26.15 18.557-.905-.46-1.83-.883-2.714-1.311-3.497-1.696-6.803-3.155-9.965-4.35 10.008-8.366 21.016-16.133 32.919-23.12zM374.11-270.58c11.331 1.095 22.092 3.374 32.065 6.776-8.862 4.832-17.674 10.29-26.393 16.325-7.575-2.784-15.751-4.7-24.316-5.746 6.078-6.395 12.312-12.185 18.644-17.355zM484.93-296c4.502.786 8.979 1.655 13.446 2.609 4.393.981 8.707 2.083 12.911 3.27a151.827 151.827 0 0 0-9.443-.35c-5.453-2.058-11.112-3.897-16.914-5.53zM190.44-215.8a14.925 14.925 0 0 1 1.97-.496c-12.387 11.071-23.422 22.91-32.98 35.204-2.446.859-4.792 1.804-7.025 2.885 10.765-12.933 22.991-25.336 36.544-37l.03-.008c.459-.213.956-.423 1.461-.585zM299.01-244.79a163.337 163.337 0 0 1 17.945-3.902c-3.106 6.595-6.022 13.727-8.707 21.356-6.251.929-12.628 2.44-19.003 4.542-.275-6.845-.29-13.172-.06-18.942a173.585 173.585 0 0 1 9.825-3.054zM285.4-240.4c-.185 5.802-.125 12.104.174 18.88a129.273 129.273 0 0 0-18.753 8.616c-2.49-4.31-6.509-11.23-8.612-14.872 8.952-5.057 18.058-9.267 27.19-12.624zM198.18-216.48c.606.046 1.218.097 1.86.181 2.164.283 4.516.813 7.046 1.542-10.387 9.187-19.619 19.035-27.616 29.27a96.429 96.429 0 0 0-13.965 2.577c9.538-11.742 20.48-23.013 32.675-33.57zM321.35-249.32c9.09-1.182 17.957-1.5 26.462-.976-6.081 6.804-11.986 14.208-17.722 22.122-5.714-.458-11.661-.338-17.74.321 2.79-7.724 5.788-14.888 9-21.467zM455.17-280.19a185.564 185.564 0 0 1 16.574-3.826c14.036 5.357 26.865 12.395 38.179 21.022a283.725 283.725 0 0 0-31.273 4.27c-9.486-7.639-20.283-13.918-32.055-18.813 2.864-.944 5.716-1.85 8.574-2.653zM255.07-225.96c2.102 3.641 6.123 10.563 8.611 14.872-6.08 3.62-11.722 7.622-16.863 11.927-5.72-3.647-11.128-6.817-16.246-9.558a185.559 185.559 0 0 1 24.498-17.24zM441.41-275.76c11.982 4.59 22.929 10.613 32.58 17.993a322.037 322.037 0 0 0-24.978 6.272c-2.622.773-5.26 1.594-7.888 2.437-7.759-6.205-16.561-11.292-26.159-15.282 8.797-4.452 17.628-8.255 26.445-11.42zM478.52-285.16c7.556-1.085 15.062-1.648 22.493-1.66 15.921 6.063 30.24 13.923 42.752 23.356-9.325-.526-18.82-.487-28.447.085-10.906-8.815-23.278-16.085-36.797-21.781zM211.16-213.45c3.584 1.263 7.48 2.89 11.635 4.906.415.201.849.422 1.269.63-7.806 6.925-14.783 14.312-20.824 22.015-5.162-.308-10.115-.394-14.876-.22-1.336.05-2.65.13-3.953.219 7.801-9.637 16.757-18.881 26.75-27.55zM352.43-249.95c8.37.833 16.325 2.548 23.705 5.036a332.512 332.512 0 0 0-10.527 7.803c-5.343 4.137-10.624 8.519-15.873 13.085-4.857-1.753-10.048-3-15.488-3.711 5.887-8.01 11.962-15.413 18.183-22.213zM410.76-262.15c9.62 3.716 18.424 8.545 26.198 14.462-11.221 3.756-22.478 8.158-33.708 13.173-5.782-4.577-12.319-8.376-19.415-11.362 8.907-6.064 17.897-11.494 26.924-16.273zM511.73-286.42c6.139.435 12.217 1.21 18.218 2.43 16.992 6.464 32.146 14.762 45.372 24.563-8.144-1.677-16.479-2.841-24.961-3.567-11.371-9.218-24.302-17.087-38.629-23.425zM227.52-206.13c5.115 2.688 10.572 5.862 16.367 9.526-5.013 4.476-9.511 9.226-13.444 14.181-7.927-1.485-15.541-2.572-22.787-3.18 5.82-7.167 12.451-14.06 19.864-20.527zM295.51-220.91a109.304 109.304 0 0 1 11.388-2.534c-2.715 8.103-5.183 16.75-7.433 25.868-2.684.425-5.399 1.075-8.124 1.918-.904-8.306-1.547-16.095-1.925-23.36 2.031-.688 4.07-1.327 6.094-1.891zM380.28-243.44c7.046 2.755 13.512 6.285 19.243 10.599-11.312 5.193-22.591 11.031-33.787 17.465-3.677-2.855-7.766-5.22-12.203-7.148a354.228 354.228 0 0 1 14.274-11.686c4.141-3.206 8.29-6.296 12.474-9.23zM285.78-217.73c.403 7.263 1.056 15.043 1.968 23.284a65.51 65.51 0 0 0-8.124 3.73c-3.866-6.697-7.702-13.338-10.986-19.024 5.656-3.161 11.391-5.833 17.141-7.99zM311.01-224.03c5.67-.712 11.218-.938 16.552-.65a341.296 341.296 0 0 0-10.889 16.473 376.664 376.664 0 0 0-6.03 10.092 48.653 48.653 0 0 0-7.322.085c2.315-9.201 4.897-17.89 7.689-26zM265.5-207.92l10.986 19.024a65.346 65.346 0 0 0-7.311 5.194c-6.675-4.907-13.061-9.397-19.145-13.376 4.741-3.898 9.909-7.526 15.471-10.842zM331.8-224.33c5.188.55 10.147 1.57 14.765 3.064-8.764 7.799-17.365 16.177-25.783 25.123a37.52 37.52 0 0 0-6.166-1.518 372.599 372.599 0 0 1 5.214-8.676 334.598 334.598 0 0 1 11.97-17.992zM164.4-178.83c3.713-1.071 7.694-1.904 11.882-2.504-7.534 10.173-13.839 20.73-18.824 31.41-6.741 2.618-13.119 5.539-19.091 8.804 6.239-12.529 14-24.887 23.198-36.82.935-.312 1.867-.61 2.835-.89zM155.16-175.41c-8.915 12.174-16.406 24.75-22.338 37.497a126.349 126.349 0 0 0-13.277 9.252c7.167-14.108 15.996-28.03 26.387-41.462 2.799-2.022 5.892-3.766 9.227-5.287zM181.28-181.89c2.35-.225 4.728-.417 7.208-.508 3.85-.141 7.878-.105 12.024.078-5.666 7.672-10.42 15.62-14.202 23.67-8.384 1.916-16.403 4.215-23.966 6.907 5.079-10.258 11.425-20.376 18.936-30.147zM247.08-194.58c6.097 3.957 12.501 8.421 19.236 13.351a58.458 58.458 0 0 0-5.69 6.054c-9.013-2.608-17.726-4.768-26.093-6.467a111.79 111.79 0 0 1 12.548-12.938zM457.21-249.98a313.789 313.789 0 0 1 20.515-4.817c9.106 7.578 16.926 16.468 23.189 26.656-12.508.7-25.204 2.02-38.025 3.944-4.988-8.366-11.215-15.722-18.427-22.044 1.874-.588 3.747-1.18 5.618-1.731 2.38-.701 4.757-1.366 7.13-2.008zM555.74-276.12a364.223 364.223 0 0 1 8.541 3.502l-.022.038c13.656 5.79 26.033 12.653 37.176 20.418a192.346 192.346 0 0 0-17.737-5.341c-8.478-6.885-17.815-13.129-27.959-18.617zM204.88-182.07c7.293.507 14.999 1.467 23.07 2.91-3.612 4.934-6.66 10.044-9.12 15.222-9.725 1.011-19.1 2.413-28.037 4.277 3.796-7.62 8.524-15.134 14.086-22.409zM440.45-244.93c7.261 6.085 13.5 13.218 18.529 21.338-12.877 2.055-25.875 4.74-38.934 8.038a70.584 70.584 0 0 0-13.623-16.31c11.347-5.005 22.711-9.363 34.028-13.066zM482.25-255.65c10.763-1.976 21.405-3.33 31.891-4.016 10.788 8.925 20.026 19.415 27.416 31.444-11.943-.635-24.142-.675-36.524-.113-6.14-10.4-13.841-19.498-22.784-27.315zM350.47-219.85c4.304 1.716 8.29 3.844 11.85 6.433-11.187 6.564-22.266 13.78-33.211 21.55a29.704 29.704 0 0 0-4.702-2.817 399.833 399.833 0 0 1 26.062-25.165zM402.75-230.24c5.304 4.494 9.881 9.703 13.604 15.637a476.765 476.765 0 0 0-39.003 12.004c-2.39-3.845-5.3-7.25-8.602-10.248 11.274-6.429 22.624-12.235 34.001-17.393zM519.38-259.94c10.009-.45 19.859-.297 29.503.474a150.639 150.639 0 0 1 10.63 9.607 141.984 141.984 0 0 1 20.6 25.927 324.601 324.601 0 0 0-25.193-3.343c-2.967-.274-5.948-.478-8.948-.676-7.154-12.176-16.127-22.836-26.592-31.989zM231.94-178.39c8.41 1.636 17.204 3.75 26.319 6.342a48.631 48.631 0 0 0-3.715 6.3c-3.957.004-7.896.052-11.761.176-6.697.214-13.241.61-19.643 1.187 2.416-4.757 5.35-9.456 8.8-14.005zM294-192.62a53.14 53.14 0 0 1 4.486-1.008 424.633 424.633 0 0 0-2.52 11.481 453.82 453.82 0 0 0-1.748 8.815 610.255 610.255 0 0 1-2.436-18.629 54.596 54.596 0 0 1 2.218-.658zM288.18-190.67a630.26 630.26 0 0 0 2.582 19.173c-3.73-6.458-5.945-10.285-9.292-16.081a60.23 60.23 0 0 1 6.71-3.092zM302.38-194.19a47.448 47.448 0 0 1 6.173-.263 422.375 422.375 0 0 0-10.307 19.488c.414-2.162.82-4.303 1.257-6.419.903-4.37 1.874-8.636 2.877-12.806zM365.41-210.92c3.244 2.796 6.088 5.97 8.424 9.584a500.629 500.629 0 0 0-38.544 15.892c-.973-1.45-2.095-2.756-3.326-3.962a453.059 453.059 0 0 1 33.446-21.515zM278.3-185.76c3.356 5.813 5.567 9.662 9.307 16.141a630.306 630.306 0 0 0-15.375-11.862 60.789 60.789 0 0 1 6.068-4.279zM312.57-194.17c1.877.225 3.677.572 5.392 1.046a452.45 452.45 0 0 0-15.336 17.503 414.903 414.903 0 0 1 9.944-18.55zM555.22-258.86c9.145.998 18.105 2.543 26.815 4.688 13.705 11.272 25.1 24.283 34.028 38.731a289.418 289.418 0 0 0-31.239-7.676c-6.267-10.684-13.889-20.524-22.788-29.385a152.447 152.447 0 0 0-6.815-6.359zM122.01-140.84a242.683 242.683 0 0 0-9.367 18.168 106.963 106.963 0 0 0-4.19 4.164c4.097-7.516 8.63-14.961 13.557-22.332zM269.34-178.99a611.059 611.059 0 0 1 14.944 11.46 456.815 456.815 0 0 0-8.555-2.949 422.866 422.866 0 0 0-11.203-3.533 55.802 55.802 0 0 1 4.813-4.978zM321.74-191.84a26.562 26.562 0 0 1 4.184 2.211c-6.346 4.583-12.631 9.391-18.861 14.371a446.118 446.118 0 0 1 14.677-16.583zM179.99-153.37c1.476-.385 2.96-.737 4.462-1.098-3.382 7.948-5.8 15.963-7.178 23.923-9.616 4.546-18.765 9.443-27.405 14.72 2.04-10.347 5.496-20.805 10.217-31.175a197.837 197.837 0 0 1 19.905-6.369zM188.78-155.47c8.999-1.987 18.446-3.553 28.325-4.646-2.1 5.056-3.608 10.18-4.519 15.252a359.889 359.889 0 0 0-19.284 7.238 331.738 331.738 0 0 0-12.033 5.198c1.535-7.639 4.046-15.374 7.511-23.042zM155.32-145.11c-4.52 10.568-7.72 21.253-9.524 31.831-8.106 5.153-15.732 10.627-22.844 16.409 2.523-12.745 6.763-25.644 12.612-38.417 6.107-3.648 12.718-6.914 19.756-9.823zM221.3-160.52a334.965 334.965 0 0 1 21.566-1.379c3.334-.106 6.711-.139 10.117-.154-.767 2.017-1.37 4.04-1.77 6.07a406.67 406.67 0 0 0-34.644 9.801c1.013-4.757 2.608-9.56 4.731-14.338zM262.08-170.94c4.113 1.216 8.3 2.518 12.536 3.92 2.03.672 4.066 1.366 6.122 2.08a422.71 422.71 0 0 0-21.951-.782 47.611 47.611 0 0 1 3.293-5.218zM410.83-209.37a458.22 458.22 0 0 1 7.426-1.99c3.443 6.24 5.808 12.872 7.147 19.793a538.292 538.292 0 0 0-41.743 5.039 48.42 48.42 0 0 0-4.506-12.834c10.564-3.737 21.143-7.09 31.677-10.008zM421.92-212.28a442.181 442.181 0 0 1 39.026-7.934c4.728 8.458 7.928 17.493 9.7 26.906a517.772 517.772 0 0 0-41.614 1.413c-1.327-7.1-3.667-13.932-7.113-20.385zM328.92-187.26a21.447 21.447 0 0 1 3.005 3.368 516.2 516.2 0 0 0-21.912 10.951 481.606 481.606 0 0 1 18.907-14.319zM375.7-198.11c2.058 3.86 3.478 7.943 4.337 12.2a538.252 538.252 0 0 0-41.192 8.546 25.144 25.144 0 0 0-1.736-4.905 497.115 497.115 0 0 1 38.59-15.84zM130.12-131.82c-5.44 12.805-9.29 25.733-11.45 38.526-6.391 5.471-12.339 11.18-17.79 17.158 2.964-14.677 7.859-29.509 14.592-44.189 4.439-4.138 9.357-7.965 14.649-11.496zM464.81-220.79c12.874-1.893 25.616-3.172 38.156-3.818 5.94 10.541 9.944 21.813 12.132 33.566a491.162 491.162 0 0 0-40.713-2.226c-1.723-9.598-4.888-18.835-9.575-27.522zM590.09-252a182.829 182.829 0 0 1 22.408 8.166c14.635 11.942 26.696 25.658 36.162 40.78-8.761-4.054-17.895-7.628-27.333-10.729-8.218-14.105-18.686-26.935-31.237-38.217zM257.02-162.07c6.87.04 13.876.244 21.008.647a453.001 453.001 0 0 0-22.794 4.522 36.687 36.687 0 0 1 1.785-5.169zM333.8-180.74a21.605 21.605 0 0 1 1.535 4.28 523.324 523.324 0 0 0-23.2 6.507A512.43 512.43 0 0 1 333.8-180.74zM507.01-224.82a365.18 365.18 0 0 1 36.748.344c7.06 12.44 11.812 25.751 14.372 39.631a458.304 458.304 0 0 0-39.25-5.82c-2.099-11.924-6.028-23.385-11.869-34.154zM236.97-148.61a416.961 416.961 0 0 1 13.714-3.513c-.142 1.848-.15 3.691.047 5.487a456.746 456.746 0 0 0-35.226 18.012c-.464-4.384-.341-8.92.326-13.514a389.986 389.986 0 0 1 21.139-6.473zM254.46-153.01a446.034 446.034 0 0 1 21.598-4.396 484.58 484.58 0 0 0-21.776 9.167 26.603 26.603 0 0 1 .177-4.771zM108.47-113.11c-5.744 14.051-9.861 28.195-12.207 42.223a170.04 170.04 0 0 0-11.87 15.83c.441-2.057.93-4.133 1.442-6.21 3.404-13.815 8.309-27.676 14.653-41.423a94.709 94.709 0 0 1 7.981-10.42zM211.96-140.78c-.547 4.797-.531 9.54.101 14.143-11.159 6.474-21.856 13.318-32 20.512-.87-7.115-.708-14.479.427-21.952a327.652 327.652 0 0 1 14.222-6.205c5.604-2.293 11.376-4.446 17.25-6.498zM329.05-171.05c2.263-.617 4.556-1.18 6.838-1.768.13 1.62.124 3.28-.06 4.966-8.12.44-16.156 1.024-24.068 1.823a514.864 514.864 0 0 1 17.29-5.022zM339.49-173.75a533.075 533.075 0 0 1 41.123-8.56c.555 4.505.491 9.156-.16 13.89-13.88-.379-27.55-.27-40.959.363.17-1.92.19-3.826-.005-5.693zM384.24-182.93a533.221 533.221 0 0 1 41.743-5.038c1.03 7.304.98 14.885-.128 22.584a582.198 582.198 0 0 0-41.711-2.93c.647-4.957.7-9.855.095-14.616zM276.58-153.66a516.632 516.632 0 0 0-20.331 13.471 21.603 21.603 0 0 1-1.436-4.274 480.753 480.753 0 0 1 21.768-9.197zM310.02-162.17c8.27-.87 16.674-1.55 25.178-2.023a35.72 35.72 0 0 1-1.773 5.457 528.947 528.947 0 0 0-23.405-3.434zM176.62-126.23c-.964 7.647-.94 15.176.136 22.481a373.119 373.119 0 0 0-28.288 22.656c-1.241-9.697-1.013-19.755.58-29.952 8.66-5.434 17.857-10.499 27.572-15.185zM548.11-224.18c2.187.159 4.375.312 6.543.512a318.734 318.734 0 0 1 27.907 3.813c7.83 13.676 13.356 28.767 16.327 44.995a418.658 418.658 0 0 0-36.927-9.226c-2.419-13.99-6.99-27.464-13.85-40.094zM307.09-158.86c8.107.967 16.36 2.17 24.704 3.572a46.226 46.226 0 0 1-3.492 5.562 599.283 599.283 0 0 0-21.212-9.134zM278.18-150.34a522.541 522.541 0 0 0-17.205 16.807 21.67 21.67 0 0 1-2.94-3.483 512.621 512.621 0 0 1 20.145-13.324zM251.44-142.91a25.33 25.33 0 0 0 1.787 4.86 500.669 500.669 0 0 0-33.017 25.41 44.685 44.685 0 0 1-4.137-12.059 452.827 452.827 0 0 1 35.367-18.212zM304.05-156.17c7.179 2.9 14.479 6.052 21.899 9.403a55.718 55.718 0 0 1-4.992 5.155 959.557 959.557 0 0 0-16.906-14.558zM338.96-164.39c13.383-.649 27.018-.773 40.881-.407-.972 4.886-2.538 9.83-4.687 14.747a590.802 590.802 0 0 0-38.067-8.047 37.853 37.853 0 0 0 1.873-6.293zM300.88-153.99a952.62 952.62 0 0 1 17.237 14.825 62.035 62.035 0 0 1-6.21 4.35c-3.093-5.357-8.11-14.125-11.027-19.176zM281.79-148.72c-4.638 6.439-9.167 13.087-13.598 19.884a26.31 26.31 0 0 1-4.37-2.42 517.005 517.005 0 0 1 17.968-17.464zM429.62-188.26a513.435 513.435 0 0 1 41.661-1.36c1.467 9.947 1.387 20.28-.164 30.779a604.03 604.03 0 0 0-12.217-2.13 602.44 602.44 0 0 0-29.457-4.045c1.126-7.893 1.209-15.699.177-23.244zM297.65-152.19c2.922 5.06 7.996 13.822 11.094 19.189-2.28 1.23-4.558 2.33-6.867 3.231a953.903 953.903 0 0 1-4.228-22.42zM294.21-150.52a953.997 953.997 0 0 0 4.145 21.989c-2.345.75-4.68 1.292-6.983 1.71a590.871 590.871 0 0 1 2.838-23.699zM285.96-148.25a529.235 529.235 0 0 0-8.66 21.894 35.356 35.356 0 0 1-5.622-1.179 513.1 513.1 0 0 1 14.282-20.715zM290.32-149.09a600.374 600.374 0 0 0-2.678 22.847 46.216 46.216 0 0 1-6.576.21 523.122 523.122 0 0 1 9.254-23.057zM624.94-237.72c5.114 2.759 10.106 5.752 14.941 9.034 15.027 12.23 27.412 26.12 37.209 41.309a223.709 223.709 0 0 0-22.418-12.79c-7.925-13.653-17.86-26.244-29.733-37.553zM145.04-108.48c-1.34 10.292-1.31 20.457.183 30.265a345.11 345.11 0 0 0-6.068 5.605 322.243 322.243 0 0 0-17.92 18.487c-1.567-12.056-1.28-24.529.738-37.209 7.133-6.036 14.835-11.769 23.066-17.148zM255.07-134.92a25.122 25.122 0 0 0 3.364 3.984 538.116 538.116 0 0 0-28.01 31.414c-3.255-2.87-6.094-6.17-8.407-9.88a497.663 497.663 0 0 1 33.053-25.518zM212.77-122.78c.944 4.36 2.427 8.566 4.562 12.56a476.639 476.639 0 0 0-29.914 27.815c-3.274-6.186-5.502-12.777-6.742-19.611 10.16-7.279 20.884-14.211 32.094-20.764zM335.55-154.65c12.461 2.182 25.143 4.848 38.021 7.994-2.45 4.978-5.474 9.885-9.047 14.653a708.309 708.309 0 0 0-32.867-16.169 49.306 49.306 0 0 0 3.893-6.478zM474.94-189.6a487.53 487.53 0 0 1 40.798 2.3c1.885 12.39 1.81 25.29-.135 38.374-13.333-3.527-27-6.601-40.945-9.249 1.595-10.68 1.713-21.239.282-31.425zM383.59-164.7a578.78 578.78 0 0 1 41.703 2.9c-1.458 7.898-4.025 15.886-7.558 23.83-13.131-4.192-26.15-7.922-39-11.162 2.214-5.161 3.88-10.38 4.855-15.568zM587.16-218.99c10.893 2.16 21.472 4.89 31.664 8.177a154.092 154.092 0 0 1 8.905 18.384c4.023 9.91 7.053 20.321 9.052 31.124a375.172 375.172 0 0 0-34.054-12.389c-2.777-16.266-8.056-31.452-15.566-45.296zM261.23-128.58c1.526 1.108 3.18 2.034 4.937 2.85-7.259 11.306-14.203 23.09-20.82 35.311-4.426-1.803-8.49-4.08-12.114-6.815a533.347 533.347 0 0 1 27.997-31.346zM329.41-145.2a701.963 701.963 0 0 1 32.859 16.139c-3.773 4.678-8.085 9.171-12.873 13.414-8.762-8.24-17.334-16.124-25.684-23.529a58.929 58.929 0 0 0 5.698-6.024zM117.8-87.725c-1.649 12.643-1.557 25.119.314 37.153-7.042 8.114-13.514 16.441-19.387 24.962-1.817-14.124-1.479-28.747.904-43.594 5.5-6.45 11.57-12.631 18.17-18.521zM177.45-99.697a70.606 70.606 0 0 0 7.325 19.972c-9.398 9.672-18.228 19.598-26.455 29.735-4.526-8.427-7.565-17.403-9.205-26.748a367.473 367.473 0 0 1 28.336-22.96zM269.62-124.33c2.031.68 4.173 1.159 6.385 1.492a590.487 590.487 0 0 0-12.06 36.975c-5.34-.598-10.424-1.68-15.148-3.285a546.892 546.892 0 0 1 20.823-35.182zM320.88-136.71a1193.458 1193.458 0 0 1 25.698 23.461 124.036 124.036 0 0 1-15.777 11.151c-5.2-9.008-12.26-21.216-17.075-29.556a65.775 65.775 0 0 0 7.154-5.055zM219.22-107.04a48.304 48.304 0 0 0 8.884 10.334 538.841 538.841 0 0 0-25.253 33.619c-5.318-4.616-9.88-9.975-13.56-16.07a472.477 472.477 0 0 1 29.929-27.884zM519.47-186.91a454.022 454.022 0 0 1 39.321 5.964c2.25 14.606 2.152 29.81-.171 45.242-12.81-4.507-26.018-8.604-39.556-12.274 2.01-13.241 2.213-26.318.406-38.932zM279.77-122.42c2.445.15 4.965.096 7.532-.142-1.09 11.784-1.89 23.988-2.402 36.555-5.915.712-11.67.867-17.206.502 3.712-12.716 7.74-25.04 12.076-36.915zM310.56-129.83c4.815 8.34 11.875 20.549 17.075 29.556a124.263 124.263 0 0 1-17.564 8.103 1191.869 1191.869 0 0 1-7.463-34.009 65.514 65.514 0 0 0 7.951-3.65zM428.85-161.43a597.648 597.648 0 0 1 29.457 4.045c4.103.667 8.162 1.384 12.217 2.13-1.92 10.75-5.338 21.626-10.173 32.424a703.793 703.793 0 0 0-39.153-14.032c3.589-8.146 6.166-16.393 7.652-24.568zM291.01-123.01a58.674 58.674 0 0 0 8.086-1.94 1196.49 1196.49 0 0 0 7.493 34c-6.057 2.021-12.101 3.515-18.027 4.443a702.835 702.835 0 0 1 2.448-36.502zM377.21-145.75a650.533 650.533 0 0 1 38.983 11.101c-3.838 7.976-8.673 15.863-14.447 23.477-11.448-6.782-22.771-13.159-33.94-19.085 3.723-5.023 6.866-10.222 9.404-15.493zM82.918-64.435c-.199.77-.423 1.529-.613 2.3l-.05.175c-1.284 5.226-2.309 10.392-3.158 15.502a151.842 151.842 0 0 0-4.505 8.421 240.12 240.12 0 0 1 4.52-15.608 363.86 363.86 0 0 1 3.806-10.79zM623.91-209.1c9.727 3.358 19.106 7.236 28.061 11.634 9.318 16.302 15.756 34.107 19.243 52.981a322.41 322.41 0 0 0-21.732-11.194 345.993 345.993 0 0 0-8.715-3.909c-2.024-11.914-5.245-23.372-9.665-34.26a156.822 156.822 0 0 0-7.193-15.252zM95.261-63.892c-1.827 14.55-1.725 28.898.454 42.745A245.505 245.505 0 0 0 81.314 3.709c-1.902-15.4-1.573-31.756 1.21-48.853 3.741-6.466 7.993-12.715 12.737-18.748zM145.99-73.895c1.87 9.411 5.121 18.45 9.876 26.956a411.026 411.026 0 0 0-22.41 30.948c-5.686-10.508-9.519-21.71-11.53-33.372 6.162-7.018 12.758-13.866 19.765-20.534a338.307 338.307 0 0 1 4.299-3.999zM230.92-94.418c3.81 2.896 8.072 5.3 12.674 7.215-6.461 12.12-12.551 24.676-18.295 37.61-7.213-2.887-13.811-6.607-19.616-11.146a532.452 532.452 0 0 1 25.237-33.68zM562.59-180.18c12.698 2.62 25.066 5.761 37.006 9.399 2.488 16.087 2.467 33.284-.259 51.315a526.51 526.51 0 0 0-37.282-15.02c2.408-15.547 2.66-30.894.535-45.695zM365.55-127.32c11.161 5.911 22.481 12.278 33.932 19.055-5.937 7.449-12.777 14.616-20.426 21.326a1453.78 1453.78 0 0 0-26.987-26.221c5.021-4.471 9.537-9.206 13.482-14.159zM474.07-154.59a587.823 587.823 0 0 1 40.923 9.287c-2.337 13.41-6.595 27.003-12.645 40.464-.865-.402-1.722-.814-2.59-1.215a736.792 736.792 0 0 0-36.047-15.479c4.887-10.957 8.39-22.065 10.36-33.058zM668.34-205.57c3.063 2.823 6.07 5.7 9.045 8.641l-.053.046c8.327 8.221 15.66 16.98 22.03 26.191a202.679 202.679 0 0 0-14.949-11.718 174.808 174.808 0 0 0-16.073-23.16zM186.69-76.452c3.862 6.199 8.61 11.657 14.086 16.349-7.94 11.657-15.254 23.471-22.032 35.377-7.282-6.25-13.517-13.56-18.485-21.899 8.205-10.172 17.035-20.115 26.431-29.826zM419.66-133.54c12.964 4.202 26.025 8.895 39.153 14.032-5.143 10.819-11.68 21.491-19.53 31.794a927.6 927.6 0 0 0-34.392-21.617c5.897-7.835 10.845-15.964 14.769-24.21zM247.03-85.858c4.975 1.747 10.311 2.942 15.881 3.606-3.62 12.753-6.871 25.875-9.806 39.348-8.65-.912-16.822-2.745-24.394-5.434a578.009 578.009 0 0 1 18.32-37.52zM657.81-194.5c8.325 4.39 16.273 9.24 23.797 14.556 9.826 17.097 16.569 35.685 20.222 55.307-8.307-6.188-17.134-12.016-26.415-17.445-3.112-18.556-9-36.17-17.604-52.417zM349.26-110.73a1447.79 1447.79 0 0 1 27.009 26.183 185.209 185.209 0 0 1-25.103 17.758c-6.102-10.568-12.848-22.274-18.544-32.139a128.072 128.072 0 0 0 16.637-11.802zM77.636-35.973c-1.754 15.852-1.423 31.078.856 45.452-3.591 7.669-6.71 15.449-9.319 23.299-1.881-16.446-1.443-33.758 1.45-51.699a141.51 141.51 0 0 1 7.013-17.052zM118.92-45.87c2.298 11.645 6.371 22.848 12.303 33.359-6.685 10.453-12.771 21.024-18.198 31.696-6.715-12.403-11.177-25.649-13.512-39.44 5.832-8.73 12.322-17.289 19.407-25.614zM266.66-81.898c5.832.435 11.894.295 18.102-.418a827.68 827.68 0 0 0-.467 38.948c-9.477 1.192-18.726 1.446-27.549.782a649.894 649.894 0 0 1 9.914-39.311zM329.46-97.107c5.697 9.867 12.472 21.562 18.574 32.131-9.188 5.19-18.556 9.487-27.929 12.886a1445.814 1445.814 0 0 1-9.173-36.527 127.902 127.902 0 0 0 18.527-8.49zM603.36-169.63c11.828 3.734 23.239 7.957 34.188 12.645 2.834 17.938 2.842 36.938-.101 56.611-11.088-6.198-22.662-12.056-34.695-17.556 2.823-18.103 2.945-35.42.608-51.7zM288.41-82.81c6.254-.94 12.622-2.463 18.995-4.572 2.82 11.834 5.901 23.975 9.225 36.48-9.646 3.274-19.266 5.592-28.695 7.01-.143-13.306.013-26.297.475-38.919zM518.48-144.36a560.173 560.173 0 0 1 39.534 12.312c-2.731 15.819-7.748 31.848-14.903 47.734a731.956 731.956 0 0 0-37.509-19.002c6.122-13.615 10.467-27.391 12.878-41.044zM203.63-57.793c6.022 4.67 12.815 8.497 20.22 11.47a601.85 601.85 0 0 0-11.256 27.539c-1.474 3.887-2.87 7.769-4.254 11.654-9.867-3.906-18.875-8.974-26.757-15.218a514.125 514.125 0 0 1 22.046-35.445zM157.84-43.583c5.18 8.404 11.597 15.779 19.049 22.072a491.193 491.193 0 0 0-18.399 36.377C149.404 7.095 141.617-2 135.457-12.415a406.047 406.047 0 0 1 22.383-31.168zM402.63-106.43a924.529 924.529 0 0 1 34.422 21.609C429.057-74.714 419.79-65 409.4-55.93a1680.822 1680.822 0 0 0-27.737-28.414 169.209 169.209 0 0 0 20.967-22.085zM462.17-118.21a730.13 730.13 0 0 1 36.069 15.441c.868.4 1.725.812 2.59 1.215-6.365 13.487-14.523 26.788-24.326 39.615a1002.598 1002.598 0 0 0-34.193-23.773c7.975-10.508 14.62-21.421 19.86-32.497zM688.59-174.8a194.11 194.11 0 0 1 18.404 16.162c10.12 17.498 17.035 36.398 20.868 56.266a246.541 246.541 0 0 0-21.719-18.995c-3.124-18.804-8.954-36.761-17.553-53.434zM96.645-15.864c2.694 13.626 7.44 26.737 14.399 39.009a323.856 323.856 0 0 0-13.568 31.588c-7.388-13.621-12.553-28.587-15.229-44.642a236.755 236.755 0 0 1 14.398-25.955zM227.23-45.031c7.82 2.8 16.248 4.67 25.095 5.635a704.165 704.165 0 0 0-7.437 40.945C233.135.337 222.01-2.14 211.75-5.846c1.38-3.88 2.781-7.772 4.253-11.654a597.736 597.736 0 0 1 11.226-27.53zM641.47-155.28c2.178.964 4.346 1.952 6.485 2.953a318.814 318.814 0 0 1 24.066 12.542c.373 2.363.726 4.745 1.007 7.14 2.029 17.24 1.674 35.258-1.067 53.731a427.71 427.71 0 0 0-31.12-19.549c3.073-19.68 3.23-38.753.629-56.817zM378.87-81.974c9.126 9.122 18.376 18.625 27.745 28.445-10.275 8.689-21.617 16.747-33.92 23.971-6.91-11.97-13.17-22.817-19.684-34.099 9.36-5.522 18.012-11.692 25.859-18.317zM561.45-130.83a522.215 522.215 0 0 1 37.268 15.087c-.823 4.814-1.8 9.661-3.014 14.59-3.3 13.392-7.937 26.62-13.76 39.566a695.537 695.537 0 0 0-35.647-20.989c7.228-16.003 12.324-32.221 15.152-48.253zM64.563 7c-.345 11.633.353 22.947 2.086 33.864-1.716 5.994-3.157 12.031-4.274 18.098-1.168-13.601-.9-27.733.895-42.298l-.03.008c.4-3.23.837-6.457 1.323-9.672zM133.27-8.983c6.404 10.431 14.385 19.536 23.655 27.308-5.48 12.296-10.354 24.614-14.6 36.912-10.748-9.162-19.903-19.917-27.15-32.26 5.377-10.75 11.418-21.415 18.095-31.96zM179.81-19.188c8.097 6.324 17.274 11.503 27.307 15.459a591.777 591.777 0 0 0-12.425 40.081c-12.304-4.857-23.5-11.238-33.287-19.065 5.522-12.209 11.667-24.389 18.405-36.475zM255.98-39.049c9.11.726 18.613.517 28.354-.674.204 13.244.737 26.78 1.554 40.574-12.856 1.648-25.397 2.002-37.346 1.045 2.117-13.949 4.592-27.607 7.438-40.945zM349.85-61.807c6.508 11.273 12.77 22.109 19.676 34.068-12.407 7.044-25.062 12.831-37.723 17.387-3.814-13.006-7.422-25.757-10.755-38.206 9.672-3.487 19.33-7.898 28.802-13.25zM504.1-99.999a725.837 725.837 0 0 1 37.478 19.01c-7.474 15.909-17.091 31.627-28.655 46.76a1046.501 1046.501 0 0 0-33.481-25.581c9.909-12.991 18.192-26.485 24.657-40.19zM440.08-82.814a998.306 998.306 0 0 1 34.193 23.773c-9.918 12.586-21.419 24.662-34.371 35.933-9.404-10.354-18.733-20.445-27.987-30.192 10.586-9.258 20.02-19.172 28.165-29.514zM287.99-40.216c9.733-1.424 19.66-3.799 29.594-7.153a1686.592 1686.592 0 0 0 10.763 38.236C315.28-4.663 302.25-1.498 289.483.374a923.688 923.688 0 0 1-1.494-40.59zM79.629 15.775c3.144 15.611 8.602 30.198 16.18 43.481a288.951 288.951 0 0 0-8.95 30.836c-8.042-15.004-13.604-31.408-16.498-48.896 2.485-8.561 5.586-17.054 9.267-25.421zM716.48-148.46c3.9 4.514 7.57 9.224 11.032 14.126 10.175 17.433 17.219 36.126 21.259 55.676-5.027-6.642-10.522-13.031-16.431-19.182-2.914-17.663-8.175-34.639-15.861-50.62zM676.17-137.34c9.356 5.596 18.245 11.586 26.553 17.958 2.469 15.718 3.005 32.037 1.647 48.767-.409 5.025-1 10.103-1.754 15.19-8.531-7.297-17.652-14.34-27.273-21.13 3.046-19.404 3.52-38.387 1.384-56.534a186.265 186.265 0 0 0-.557-4.25zM602.14-114.2c12.046 5.534 23.641 11.413 34.719 17.647-3.262 19.368-9.414 39.366-18.577 59.621a642.326 642.326 0 0 0-33.219-22.675c5.997-13.292 10.746-26.884 14.143-40.671a209.123 209.123 0 0 0 2.934-13.921zM210.56-2.453c10.512 3.793 21.858 6.327 33.799 7.573a737.35 737.35 0 0 0-4.636 38.965c-.087.943-.165 1.875-.248 2.817-14.688-1.492-28.586-4.581-41.37-9.265 3.605-13.316 7.773-26.677 12.455-40.09zM113.24 26.86c7.517 12.277 16.918 22.971 27.844 32.074-4.092 12.202-7.59 24.374-10.454 36.448a149.72 149.72 0 0 1-8.538-7.838c-8.7-8.662-16.186-18.265-22.314-28.703A318.905 318.905 0 0 1 113.24 26.86zM409.13-50.903a1851.575 1851.575 0 0 1 28.047 30.175C424.422-9.91 410.297.086 394.978 9.052c-7.586-13.14-13.248-22.96-20.472-35.473 12.562-7.373 24.14-15.6 34.624-24.483zM159.86 20.709c10.013 7.865 21.426 14.254 33.887 19.131a563.902 563.902 0 0 0-9.115 40.359c-14.538-5.708-27.748-13.213-39.28-22.474a453.973 453.973 0 0 1 14.508-37.016zM544.76-79.254c12.283 6.766 24.199 13.757 35.647 20.989-8.597 18.399-19.583 36.214-32.551 53.109a1022.952 1022.952 0 0 0-32.091-26.795c11.682-15.29 21.406-31.181 28.995-47.304zM68.215 49.244c3.48 16.506 9.349 32.02 17.47 46.242-2.035 9.73-3.516 19.411-4.386 29.031-8.421-15.935-14.226-33.332-17.23-51.87.858-7.846 2.258-15.654 4.146-23.402zM477.21-56.915a1041.465 1041.465 0 0 1 23.348 17.588c3.411 2.645 6.805 5.29 10.155 7.955-11.662 14.868-25.212 29.128-40.493 42.426a1982.461 1982.461 0 0 0-27.871-31.452c13.133-11.438 24.798-23.718 34.862-36.517zM248 5.438c12.212 1 24.996.701 38.083-.952a1002.884 1002.884 0 0 0 3.488 41.512c-15.996 2.075-31.595 2.478-46.446 1.252.084-.95.152-1.897.24-2.847a731.366 731.366 0 0 1 4.636-38.965zM706.95-116.05c7.873 6.306 15.226 12.966 22.008 19.953 3.358 21.128 3.32 43.274-.014 65.873-7.077-7.63-14.766-15.036-22.979-22.248.944-5.969 1.679-11.897 2.157-17.789 1.27-15.634.872-30.961-1.172-45.788zM371.35-24.571c7.224 12.512 12.886 22.333 20.472 35.473-15.408 8.773-31.148 15.986-46.877 21.619a1848.79 1848.79 0 0 1-12.131-39.358c12.935-4.638 25.87-10.542 38.536-17.734zM640.22-94.641c10.887 6.25 21.286 12.826 31.122 19.678-3.495 21.005-10.056 42.563-19.812 64.19a575.57 575.57 0 0 0-30.224-23.93c9.247-20.306 15.504-40.415 18.913-59.937zM289.71 4c13.03-1.883 26.323-5.108 39.634-9.649a1864.154 1864.154 0 0 0 12.139 39.389c-16.222 5.573-32.441 9.478-48.286 11.772a999.5 999.5 0 0 1-3.488-41.511zM98.227 63.332c5.96 9.681 13.081 18.653 21.251 26.788a153.044 153.044 0 0 0 10.215 9.266c-2.725 12.038-4.846 23.983-6.334 35.764-13.752-11.725-25.108-25.288-33.881-40.356 2.246-10.452 5.18-20.966 8.749-31.461zM197.19 41.116c13.028 4.739 27.136 7.884 41.986 9.39a731.907 731.907 0 0 0-2.311 41.967c-17.313-1.747-33.726-5.401-48.774-10.937a560.14 560.14 0 0 1 9.099-40.42zM745.78-103.22a365.204 365.204 0 0 1 5.668 11.616l-.06.016c5.377 11.58 9.468 23.588 12.369 35.897a192.904 192.904 0 0 0-10.004-16.084 193.126 193.126 0 0 0-7.973-31.445zM439.58-18.04a1959.71 1959.71 0 0 1 27.879 31.482C452.457 26.21 435.86 38.036 417.8 48.586c-8.117-14.058-13.194-22.841-21.003-36.366 15.542-9.095 29.842-19.275 42.782-30.26zM144.14 61.415c11.757 9.241 25.169 16.7 39.84 22.389-2.427 13.441-4.323 26.721-5.667 39.824-16.74-6.616-31.66-15.228-44.518-25.6 2.816-12.127 6.275-24.339 10.345-36.613zM583.49-56.277a637.957 637.957 0 0 1 33.205 22.743 298.824 298.824 0 0 1-11.448 21.994c-7.234 12.601-15.415 24.763-24.364 36.454a957.996 957.996 0 0 0-30.218-27.653c13.053-17.011 24.126-34.97 32.824-53.539zM63.116 86.36c3.834 15.875 9.782 30.829 17.693 44.661-.543 8.647-.609 17.22-.167 25.7-8.366-16.321-14.164-34.064-17.196-52.947a171.834 171.834 0 0 1-.33-17.414zM733.29-91.529a205.545 205.545 0 0 1 16.995 21.166c3.468 21.421 3.481 43.758.186 66.499-5.55-7.799-11.69-15.447-18.404-22.924 3.523-22.122 3.986-43.872 1.223-64.741zM674.7-72.563c9.285 6.614 18.074 13.461 26.308 20.547.326.28.645.56.97.84-3.695 22.206-10.673 44.897-20.855 67.543-8.354-8.324-17.27-16.559-26.704-24.68 9.848-21.603 16.594-43.174 20.28-64.25zM513.55-29.093A1019.523 1019.523 0 0 1 545.611-2.29c-13.444 17.113-28.914 33.241-45.97 48.067-8.1-9.783-16.382-19.64-24.898-29.531-.706-.82-1.405-1.626-2.11-2.443 15.425-13.43 29.126-27.856 40.916-42.895zM242.79 50.833c15.109 1.255 30.953.87 47.167-1.218 1.04 9.592 2.231 19.253 3.566 29.003.585 4.28 1.204 8.536 1.836 12.772-18.9 2.451-37.317 2.915-54.842 1.43a726.441 726.441 0 0 1 2.273-41.987zM393.66 14.032c7.807 13.522 12.858 22.319 20.973 36.374-18.16 10.36-36.714 18.846-55.264 25.452a1962.245 1962.245 0 0 1-13.307-39.884c15.981-5.715 31.955-13.03 47.599-21.942zM88.416 100.12c9.075 14.688 20.637 27.889 34.439 39.301a343.99 343.99 0 0 0-.955 9.476 323.218 323.218 0 0 0-1.156 24.542C106 160.874 93.85 146.343 84.472 130.197c.667-9.945 1.992-19.984 3.944-30.077zM293.58 49.13c16.11-2.316 32.553-6.285 49.018-11.937a1981.269 1981.269 0 0 0 13.338 39.875c-19.143 6.58-38.259 11.17-56.953 13.837-.633-4.236-1.282-8.485-1.867-12.764-1.335-9.75-2.496-19.42-3.536-29.011zM619.71-31.334a572.046 572.046 0 0 1 30.21 23.999c-9.822 21.057-22.656 42.163-38.542 62.868a865.193 865.193 0 0 0-27.837-28.064c9.108-11.889 17.4-24.284 24.77-37.113l.113-.062a301.78 301.78 0 0 0 11.287-21.627zM187.43 85.11c15.298 5.567 31.893 9.23 49.366 10.972a695.374 695.374 0 0 0 .364 41.443c-20.006-1.996-38.53-6.263-55.312-12.517a522.657 522.657 0 0 1 5.582-39.898zM132.9 101.95c13.093 10.312 28.203 18.88 45.053 25.424-1.248 13.138-1.96 26.077-2.138 38.749-18.59-7.295-34.992-16.805-49.056-28.169a369.51 369.51 0 0 1 6.141-36.004zM754.94-63.361c4.28 6.73 8.125 13.655 11.463 20.805 3.468 21.16 3.511 43.139.41 65.404-3.893-7.573-8.386-15.041-13.377-22.395 3.477-21.719 4.05-43.138 1.504-63.814zM705.25-48.267c8.24 7.337 15.916 14.899 22.955 22.643a260.242 260.242 0 0 1-3.81 18.621c-4.124 16.978-10.058 34.087-17.711 51.139-7.01-8.36-14.588-16.683-22.728-24.936 10.272-22.573 17.383-45.229 21.295-67.467zM469.88 16.191c.7.81 1.402 1.6 2.102 2.413 8.518 9.893 16.808 19.776 24.906 29.561-17.329 14.773-36.238 28.207-56.272 39.925-6.163-10.676-9.894-17.106-16.224-28.07l-4.77-8.266c18.27-10.672 35.079-22.638 50.258-35.563zM548.41.165c10.469 9.185 20.577 18.393 30.248 27.643-14.937 19.1-31.979 36.88-50.646 53.073a1891.54 1891.54 0 0 0-25.974-32.218C519.233 33.721 534.84 17.442 548.41.165zM69.082 139.53a175.936 175.936 0 0 0 12.188 26.046c.6 6.37 1.513 12.65 2.698 18.883a181.344 181.344 0 0 1-11.66-32.043l-.12.032a358.146 358.146 0 0 1-3.105-12.918zM84.117 136.61c9.69 15.517 21.933 29.503 36.578 41.607a285.304 285.304 0 0 0 1.932 31.479c-15.36-13.189-28.042-28.397-37.822-45.285-.83-9.147-1.053-18.425-.688-27.801zM240.44 96.4c17.756 1.49 36.375 1.037 55.456-1.433a1023.342 1023.342 0 0 0 7.16 41.207 317.277 317.277 0 0 1-15.445 1.647l-1.385.144c-15.829 1.204-30.989 1.137-45.415-.092-.542-13.575-.656-27.405-.371-41.473zM416.48 53.566c1.856 3.214 2.91 5.058 4.779 8.296 6.323 10.952 10.028 17.383 16.186 28.048-19.965 11.432-41 21.189-62.688 28.897a1972.165 1972.165 0 0 1-13.166-36.46c-.357-1.02-.69-2.033-1.045-3.053 18.781-6.683 37.56-15.242 55.934-25.729zM652.82-4.874a494.855 494.855 0 0 1 26.676 24.816c-10.384 22.343-23.919 44.594-40.547 66.252-7.865-9.263-16.224-18.593-25.031-27.975 15.972-20.75 28.931-41.925 38.902-63.093zM731.28-22.211c6.757 7.685 12.876 15.546 18.377 23.546-3.072 18.467-8.3 37.155-15.556 55.803a321.454 321.454 0 0 1-6.253 14.94c-4.85-7.165-10.158-14.346-15.886-21.496-.88-1.098-1.793-2.193-2.693-3.29 8.092-17.789 14.33-35.7 18.643-53.459a263.548 263.548 0 0 0 3.369-16.044zM299.52 94.481c18.921-2.692 38.251-7.33 57.595-13.977.355 1.02.687 2.032 1.044 3.052a1998.643 1998.643 0 0 0 13.158 36.43c-21.102 7.268-42.774 12.607-64.638 15.701a1018.817 1018.817 0 0 1-7.159-41.207zM126.24 142.17c14.29 11.214 30.878 20.573 49.527 27.752a427.984 427.984 0 0 0 1.379 36.9 227 227 0 0 1-5.335-2.162l-.055-.082c-17.795-7.545-33.617-17.014-47.357-28.107.003-8.927.397-18.006 1.188-27.203.203-2.36.399-4.724.653-7.099zM771.76-29.821a171.999 171.999 0 0 1 5.284 16.702c3.338 20.255 3.517 41.12.811 62.19a179.937 179.937 0 0 0-8.221-20.541c3.176-19.746 3.97-39.307 2.126-58.351zM181.45 128.71c17.008 6.238 35.709 10.44 55.863 12.402a642.002 642.002 0 0 0 3.025 40.147c-7.496-.758-14.912-1.8-22.233-3.166l-.745-.124c-13.466-2.552-26.116-6.055-37.933-10.444a475.772 475.772 0 0 1 2.023-38.815zM499.24 51.029c8.941 10.847 17.629 21.583 26.004 32.211-19.246 16.401-40.124 31.155-62.086 43.941l-20.706-35.863a393.797 393.797 0 0 0 56.789-40.29zM581.3 30.334c9.725 9.376 18.98 18.786 27.823 28.132a392.46 392.46 0 0 1-5.115 6.385l-.356.484c-14.833 18.097-31.292 34.87-48.95 50.224-7.805-10.427-15.961-21.026-24.397-31.768 18.77-16.303 35.942-34.218 50.996-53.458zM85.745 172.99c10.032 15.67 22.622 29.793 37.548 42.091a246.593 246.593 0 0 0 5.561 28.242 192.677 192.677 0 0 1-8.778-8.13c-11.676-11.527-21.579-24.334-29.592-38.238a194.15 194.15 0 0 1-4.739-23.965zM682.3 22.813c8.129 8.291 15.748 16.621 22.714 25.004-10.779 23.24-24.795 46.308-41.887 68.617a627.086 627.086 0 0 0-21.684-27.319c16.692-21.646 30.329-43.911 40.857-66.302zM240.97 141.46c14.472 1.201 29.68 1.241 45.498.038a321.72 321.72 0 0 0 17.283-1.784 957.322 957.322 0 0 0 8.885 40.163c-23.168 3.054-46.206 3.705-68.572 1.745a638.078 638.078 0 0 1-3.094-40.162zM752.56 5.637c5.043 7.706 9.495 15.528 13.304 23.45C762 52.465 754.685 76.13 744.232 99.523c-4.078-7.92-8.764-15.897-14.001-23.877A326.627 326.627 0 0 0 737.5 58.46c6.851-17.609 11.887-35.298 15.06-52.823zM439.31 93.13l20.706 35.863c-22.163 12.657-45.381 23.32-69.076 31.741a1877.61 1877.61 0 0 1-14.922-38.545c21.897-7.761 43.144-17.542 63.292-29.059zM124.44 181.19c13.459 10.549 28.818 19.592 45.918 26.843 2.356.999 4.718 1.959 7.113 2.882a370.796 370.796 0 0 0 4.754 34.282c-14.94-5.904-29.007-13.21-42.001-22.004l-.063-.113a195.152 195.152 0 0 1-13.449-9.984c-1.36-10.365-2.105-21.023-2.272-31.905zM179.41 171.31c11.682 4.258 24.171 7.67 37.375 10.173 7.88 1.494 15.878 2.616 23.951 3.418 1.487 13.096 3.363 25.855 5.616 38.224-22.892-2.29-44.907-7.194-65.456-14.878-1.022-11.994-1.52-24.328-1.486-36.937zM307.37 139.22c22.063-3.13 43.943-8.515 65.22-15.826a1891.726 1891.726 0 0 0 14.892 38.553c-23.497 8.117-47.428 13.984-71.243 17.375a953.42 953.42 0 0 1-8.869-40.102zM611.66 61.153c8.804 9.391 17.152 18.721 25.001 27.983-12.271 15.676-26.154 31.037-41.678 45.849a461.683 461.683 0 0 1-15.739 14.311 1511.94 1511.94 0 0 0-22.349-30.764c17.876-15.546 34.529-32.54 49.553-50.871a396.126 396.126 0 0 0 5.212-6.508zM527.55 86.18a1726.36 1726.36 0 0 1 24.367 31.776c-20.824 17.801-43.292 33.613-66.791 47.273l-20.105-34.827c22.11-12.881 43.148-27.687 62.529-44.222zM783.33 24.116c.372 3.659.676 7.316.935 10.976l-.099-.006c.862 12.063.637 24.227-.584 36.456-.844-4.782-1.939-9.528-3.242-14.272 1.786-11.107 2.797-22.174 2.99-33.154zM94.591 210.34c6.659 9.764 14.317 18.932 22.906 27.412a197.54 197.54 0 0 0 13.062 11.803c2.368 8.182 5.15 16.133 8.382 23.798-10.707-9.555-20.31-20.277-28.633-32.121a180.649 180.649 0 0 1-9-14.153 184.104 184.104 0 0 1-6.718-16.738zM707.57 50.951c.531.654 1.07 1.313 1.595 1.967a325.775 325.775 0 0 1 16.89 23.07c-11 23.706-25.237 47.167-42.52 69.758-5.516-8.579-11.568-17.351-18.125-26.234 17.14-22.265 31.238-45.304 42.16-68.561zM768.52 34.909c3.262 7.43 5.979 14.929 8.095 22.483-3.748 22.866-10.83 45.913-20.919 68.628-2.561-7.365-5.705-14.807-9.373-22.303 10.431-22.794 17.92-45.898 22.197-68.808zM244.46 185.26c22.564 1.941 45.734 1.265 69.041-1.806a866.685 866.685 0 0 0 10.358 38.053c-25.101 3.324-49.855 4.07-73.715 1.99-2.277-12.366-4.176-25.124-5.684-38.237zM127.5 218.45a198.306 198.306 0 0 0 10.652 7.757c13.862 9.38 28.924 17.113 44.895 23.267 2.143 10.73 4.733 21.116 7.807 31.07-21.016-8.337-40.238-19.34-57.106-33.099-2.652-9.357-4.727-19.036-6.248-28.996zM461.89 132.24l20.105 34.827a459.242 459.242 0 0 1-74.373 34.066c-5.12-11.939-10.218-24.278-15.297-36.924 23.874-8.479 47.25-19.215 69.565-31.969zM181.27 212.32c20.72 7.582 42.83 12.392 65.778 14.63a499.425 499.425 0 0 0 8.032 35.409c-24.268-2.41-47.425-7.593-68.895-15.639-.087-.452-.18-.899-.265-1.352-2.02-10.673-3.564-21.701-4.65-33.048zM639.13 92.066c7.739 9.236 14.981 18.371 21.701 27.379-16.922 21.668-36.769 42.604-59.413 62.248a1247.896 1247.896 0 0 0-19.99-29.325 466.558 466.558 0 0 0 16.157-14.682c15.441-14.732 29.28-30.017 41.546-45.62zM317.11 182.94c24.006-3.414 48.108-9.348 71.756-17.512a1731.554 1731.554 0 0 0 15.297 36.924c-25.408 8.751-51.179 15.039-76.657 18.664a861.722 861.722 0 0 1-10.396-38.075zM554.11 120.93a1505.342 1505.342 0 0 1 22.327 30.802c-22.08 18.899-45.723 35.555-70.302 49.863-6.096-10.559-12.592-21.837-19.091-33.093 23.593-13.743 46.143-29.68 67.066-47.573zM778.76 66.005a146.593 146.593 0 0 1 2.954 19.72c-3.535 21.765-10.189 43.566-19.563 64.997a153.11 153.11 0 0 0-4.747-19.53c9.874-21.524 17.066-43.39 21.356-65.186zM728.4 79.565c5.244 8.127 9.867 16.214 13.87 24.236a344.965 344.965 0 0 1-8.513 17.131c-9.537 17.888-20.885 35.496-33.924 52.572-4.216-7.963-8.968-16.15-14.23-24.495 17.292-22.462 31.642-45.808 42.797-69.443zM135.54 253.53c16.931 13.09 36.042 23.566 56.776 31.504 3.104 9.487 6.587 18.613 10.54 27.263-21.257-8.49-40.607-19.644-57.491-33.447a205.765 205.765 0 0 1-9.825-25.32zM118.98 258.26a194.402 194.402 0 0 0 23.39 22.817 192.956 192.956 0 0 0 8.954 16.753c-9.212-8.664-17.557-18.184-24.875-28.599l-.053.046a366.82 366.82 0 0 1-7.417-11.018zM250.87 227.32c24.009 2.034 48.897 1.272 74.078-2.088 3.7 12.241 7.6 24.063 11.663 35.44-26.539 3.491-52.653 4.21-77.649 2.04-3.058-11.363-5.75-23.172-8.092-35.392zM483.87 170.32c6.5 11.258 12.993 22.532 19.091 33.093-25.367 14.511-51.707 26.511-78.345 35.907a1505.695 1505.695 0 0 1-15.471-34.677c25.525-9.055 50.641-20.544 74.725-34.322zM663.08 122.53c6.282 8.543 12.125 16.945 17.426 25.192.226.352.445.699.67 1.05-17.287 22.169-37.474 43.479-60.38 63.349-5.364-8.795-11.182-17.918-17.348-27.316 22.698-19.646 42.61-40.579 59.633-62.275zM187.04 250.99c21.607 7.893 44.834 12.904 69.108 15.226 3.078 11.175 6.47 21.923 10.206 32.173-25.165-2.52-49.089-7.907-71.14-16.17-3.196-9.982-5.934-20.407-8.174-31.23zM744.34 108c3.651 7.724 6.694 15.408 9.126 22.951-8.232 17.732-18.279 35.257-29.987 52.293a401.38 401.38 0 0 1-11.602 15.985c-2.874-7.182-6.282-14.602-10.19-22.213 13.58-17.641 25.401-35.861 35.281-54.391A350.515 350.515 0 0 0 744.34 108zM578.61 154.8a1251.332 1251.332 0 0 1 19.952 29.303 491.877 491.877 0 0 1-17.82 14.513 502.053 502.053 0 0 1-54.932 37.075c-5.242-9.079-12.133-21.061-17.771-30.826 24.67-14.376 48.401-31.113 70.572-50.065zM328.59 224.71c25.643-3.673 51.558-10.022 77.093-18.845 5.154 11.956 10.298 23.535 15.441 34.685-26.902 9.25-54.064 15.846-80.832 19.621a748.006 748.006 0 0 1-11.702-35.461zM782.04 103.24c-.143 3.17-.384 6.349-.75 9.518-3.15 20.026-8.999 39.944-17.2 59.446.004-4.774-.329-9.632-.919-14.539 8.234-17.926 14.604-36.125 18.87-54.426zM149.1 286.39c16.686 12.611 35.524 22.825 55.996 30.645 3.858 7.968 8.086 15.545 12.677 22.679-20.881-8.48-39.893-19.534-56.462-33.109-4.485-6.425-8.549-13.194-12.211-20.216zM683.22 152.07c5.258 8.4 9.995 16.593 14.157 24.58-17.352 22.28-37.58 43.613-60.364 63.409a678.18 678.18 0 0 0-8.89-15.671 789.899 789.899 0 0 0-5.414-9.096c22.914-19.82 43.142-41.085 60.511-63.222zM260.03 266.57c25.127 2.094 51.328 1.338 77.926-2.213 4.097 11.268 8.348 22.093 12.757 32.396a402.45 402.45 0 0 1-20.552 2.142c-20.437 1.608-40.465 1.571-59.788-.123-3.782-10.236-7.223-21.002-10.343-32.202zM755.05 136.16c2.004 7.008 3.468 13.928 4.35 20.704-10.434 22.522-23.856 44.573-39.866 65.649-1.548-6.209-3.6-12.643-6.109-19.295a407.802 407.802 0 0 0 13.085-17.935c11.002-16.009 20.555-32.45 28.54-49.123zM196.66 286.65c22.136 8.01 46.064 13.178 71.138 15.556.498 1.322.976 2.665 1.484 3.97 3.322 8.518 6.859 16.688 10.63 24.457-25.595-2.613-49.852-8.104-72.123-16.456-4.151-8.71-7.867-17.897-11.129-27.526zM504.87 206.69l17.81 30.848c-26.377 15.128-53.595 27.561-81.029 37.241a1247.362 1247.362 0 0 1-15.426-31.972c26.749-9.468 53.185-21.536 78.645-36.117zM600.6 187.22c6.16 9.402 11.969 18.537 17.318 27.324a504.207 504.207 0 0 1-56.123 41.567c-5.916 3.776-11.896 7.381-17.889 10.875-4.375-7.577-11.491-19.889-16.232-28.1a505.682 505.682 0 0 0 55.397-37.393 494.401 494.401 0 0 0 17.528-14.273zM341.63 263.82c26.881-3.84 54.135-10.483 81.11-19.792a1252.557 1252.557 0 0 0 15.387 31.95c-27.938 9.612-56.061 16.421-83.664 20.282-4.43-10.301-8.714-21.147-12.833-32.44zM169.66 317.6c15.6 11.157 32.969 20.346 51.759 27.51 4.216 6.097 8.704 11.85 13.479 17.223-19.692-8.232-37.657-18.828-53.406-31.727A171.727 171.727 0 0 1 169.66 317.6zM699.2 180.21c3.901 7.733 7.236 15.244 10.036 22.481-17.125 21.985-37.043 42.95-59.321 62.353-3.277-6.864-6.979-14.129-11.091-21.713 22.742-19.699 42.959-40.935 60.377-63.121zM760.15 164.13c.412 5.882.382 11.663-.118 17.308-9.78 21.184-22.325 41.803-37.171 61.465-.344-4.996-1.092-10.191-2.233-15.578 15.659-20.274 28.96-41.484 39.522-63.195zM210.12 318.89c22.267 7.979 46.388 13.177 71.729 15.591 4.298 8.536 8.876 16.588 13.701 24.087-25.55-2.656-49.693-8.186-71.851-16.529-4.931-7.227-9.445-14.97-13.579-23.149zM271.85 302.58c18.985 1.566 38.599 1.565 58.588-.008 7.223-.568 14.484-1.372 21.792-2.345 4.422 10.144 8.98 19.8 13.661 28.886-21.391 2.778-42.399 3.811-62.735 3.125a344.244 344.244 0 0 1-18.917-1.175c-4.09-8.268-7.927-16.98-11.507-26.163-.297-.763-.587-1.552-.88-2.32zM524.51 240.73c4.741 8.212 11.857 20.522 16.232 28.1-26.993 15.484-54.683 28.098-82.435 37.909-4.937-9.03-9.933-18.648-14.999-28.689 27.492-9.728 54.779-22.171 81.202-37.319zM765.47 178.56c-.592 1.727-1.167 3.451-1.785 5.17-.11.302-.23.597-.342.9.07-.597.168-1.208.228-1.808.65-1.414 1.274-2.844 1.899-4.262zM619.84 217.75c1.732 2.874 3.454 5.704 5.093 8.503a663.06 663.06 0 0 1 9.219 16.294c-22.383 19.14-47.188 36.793-74.11 52.437-2.713-4.7-3.98-6.92-6.895-11.967l-7.425-12.86a523.371 523.371 0 0 0 17.963-10.96l.113-.063c20.102-12.833 38.798-26.699 56.042-41.384zM355.97 299.71c27.672-3.94 55.849-10.768 83.821-20.421 5.055 10.038 10.064 19.647 14.999 28.689-28.528 9.838-57.102 16.699-85.068 20.594-.189-.364-.39-.708-.579-1.074-4.508-8.748-8.9-18.035-13.172-27.788zM710.73 206.69c2.474 6.816 4.461 13.376 5.88 19.648-16.62 21.34-35.896 41.612-57.339 60.334a284.488 284.488 0 0 0-7.72-18.184c22.174-19.225 42.018-40.007 59.179-61.797zM758.04 194.17c-.778 3.477-1.713 6.897-2.882 10.252-8.762 18.988-19.796 37.332-32.72 54.772.446-3.287.658-6.705.654-10.237 13.58-17.545 25.318-35.912 34.948-54.787zM227.4 347.29c21.951 7.753 45.718 12.842 70.722 15.214 4.64 6.895 9.513 13.311 14.589 19.19-24.874-2.664-48.393-8.107-70.005-16.28-5.437-5.576-10.54-11.634-15.306-18.125zM210.35 354.52c9.635 5.352 19.79 10.028 30.399 14.081a157.396 157.396 0 0 0 10.88 10.058c-11.286-5.081-21.955-11-31.893-17.724l-.044.076c-3.142-2.123-6.262-4.263-9.342-6.49zM286.15 334.85c5.566.458 11.195.821 16.868 1.012 20.972.708 42.63-.418 64.679-3.354 4.593 8.728 9.272 16.942 14.058 24.574-28.116 3.637-55.502 4.28-81.524 1.947-4.957-7.494-9.656-15.553-14.082-24.179zM635.93 245.79c4.121 7.63 7.824 14.915 11.077 21.781-22.131 18.962-46.578 36.386-72.917 51.696l-12.196-21.126c26.87-15.619 51.637-33.254 74.036-52.352zM542.55 271.97l7.425 12.86c2.914 5.047 4.182 7.269 6.895 11.967a520.449 520.449 0 0 1-18.373 10.035l-.473.288a502.632 502.632 0 0 1-63.62 27.594 663.168 663.168 0 0 1-9.458-16.1c-1.604-2.818-3.246-5.693-4.868-8.628 27.78-9.858 55.47-22.53 82.471-38.015zM717.62 231.18c1.06 5.693 1.653 11.113 1.767 16.253-15.8 20.283-34.05 39.508-54.268 57.182a129.188 129.188 0 0 0-1.951-6.918 175.772 175.772 0 0 0-2.473-7.296c21.202-18.377 40.335-38.266 56.925-59.22zM371.51 331.97c27.993-3.985 56.552-10.883 85.058-20.753a793.622 793.622 0 0 0 5.166 9.26 677.822 677.822 0 0 0 9.1 15.485c-28.605 9.861-57.166 16.74-85.06 20.624-4.846-7.612-9.609-15.844-14.263-24.616zM249.21 371.67c20.924 7.157 43.485 11.884 67.164 14.129 4.68 5.09 9.52 9.716 14.53 13.9-23.499-2.657-45.749-7.884-66.212-15.646-5.402-3.74-10.566-7.891-15.483-12.384zM302.83 362.93c25.958 2.097 53.2 1.312 81.107-2.418 4.641 7.193 9.353 13.844 14.139 19.926-27.601 3.543-54.476 4.111-80.01 1.8-5.3-5.862-10.386-12.305-15.235-19.307zM648.61 271.02c2.988 6.48 5.563 12.539 7.697 18.222-21.54 18.487-45.223 35.41-70.6 50.202-2.653-4.596-6.66-11.575-9.8-17.012 26.24-15.249 50.592-32.551 72.703-51.412zM719.26 253.84c-.256 4.204-.864 8.196-1.846 11.947-14.629 18.787-31.428 36.476-49.94 52.689-.201-2.968-.666-6.188-1.382-9.627 19.683-17.026 37.547-35.488 53.168-55.01zM558.72 299.96l12.196 21.126a501.833 501.833 0 0 1-59.578 29.034 486.76 486.76 0 0 1-21.7 8.241c-4.317-6.248-8.762-13.06-13.306-20.44 21.361-7.594 42.724-16.851 63.821-27.809a521.266 521.266 0 0 0 18.568-10.152zM387.93 359.96c27.853-3.994 56.349-10.909 84.853-20.795 4.517 7.364 8.943 14.209 13.254 20.486-28.174 9.694-56.264 16.378-83.688 20.192-4.858-6.033-9.681-12.653-14.419-19.883zM279.36 392.93c17.952 5.469 37.018 9.173 56.925 11.05 3.969 2.983 8.014 5.698 12.166 8.096-21.297-2.699-41.454-7.639-60.065-14.802a136.925 136.925 0 0 1-9.025-4.344zM712.74 277.45a44.627 44.627 0 0 1-1.593 2.627c-12.956 16.78-27.74 32.502-43.942 46.94.18-1.152.273-2.357.326-3.613 16.482-14.24 31.647-29.642 45.209-45.954zM657.67 293.02a168.694 168.694 0 0 1 1.94 5.79c.938 3.008 1.686 5.835 2.318 8.533-20.599 17.665-43.157 33.735-67.177 47.764-.999-1.73-1.465-2.53-2.592-4.481-1.09-1.89-3.401-5.93-4.607-8.019 25.162-14.645 48.677-31.323 70.118-49.587zM321.87 386.27c25.268 1.974 51.75 1.197 78.9-2.442 4.524 5.516 9.123 10.5 13.744 14.952-26.544 3.356-52.371 3.864-76.92 1.62-5.427-4.152-10.657-8.892-15.724-14.13zM572.74 324.25c3.14 5.44 7.175 12.407 9.83 17.004-24.793 14.203-51.178 26.377-78.721 36.072-3.87-4.706-7.873-9.986-12.008-15.838 6.948-2.47 13.9-5.117 20.84-7.946l.196-.117a506.099 506.099 0 0 0 59.864-29.175zM662.85 311.62c.678 3.679 1.006 7.002 1.016 9.951-19.33 16.541-40.426 31.519-62.736 44.536-1.17-2.027-2.933-5.018-4.496-7.724 23.62-13.761 45.861-29.492 66.216-46.763zM405.09 383.18c27.266-3.947 55.147-10.736 83.078-20.417 4.077 5.81 8.065 11.115 11.918 15.862a462.178 462.178 0 0 1-19.641 6.266l-.445.151c-20.459 5.977-40.797 10.308-60.748 13.075-4.74-4.375-9.477-9.367-14.16-14.938zM343.37 404.57c23.923 1.726 48.972.86 74.622-2.59 4.127 3.714 8.28 7.013 12.468 9.827-24.807 3.047-48.922 3.507-71.868 1.399a109.407 109.407 0 0 1-15.223-8.636zM584.43 344.45c1.201 2.08 3.511 6.104 4.6 7.988 1.126 1.952 1.591 2.75 2.591 4.482-23.733 13.614-48.818 25.25-74.83 34.415a121.99 121.99 0 0 1-6.377-6.412 167.463 167.463 0 0 1-4.041-4.579c27.293-9.693 53.443-21.813 78.057-35.894zM663.5 326.82c-.297 1.782-.76 3.352-1.391 4.708-17.718 15.219-37.035 28.893-57.402 40.777-.483-.837-.976-1.683-1.687-2.913 21.441-12.51 41.748-26.799 60.48-42.573zM351.89 416.2c1.95.22 3.895.447 5.863.63.63.287 1.244.58 1.879.854-.656-.116-1.314-.225-1.97-.346-.77-.138-1.544-.27-2.31-.415-1.16-.22-2.304-.491-3.462-.723zM422.83 401.33c19.284-2.83 38.874-7.135 58.591-12.917a467.649 467.649 0 0 0 21.156-6.769 175.177 175.177 0 0 0 5.116 5.812 129.874 129.874 0 0 0 5.121 5.227c-21.81 7.45-44.224 13.17-66.968 16.91-3.24.532-6.48 1.02-9.7 1.466-4.432-2.682-8.878-5.931-13.317-9.729zM370.15 417.72c20.992 1.099 42.829.143 65.165-2.87 3.086 1.799 6.173 3.389 9.273 4.665a330.344 330.344 0 0 1-37.29 2.098l-.507.039a297.402 297.402 0 0 1-25.876-1.187 92.421 92.421 0 0 1-10.765-2.745zM593.49 360.17c1.568 2.716 3.3 5.73 4.474 7.763-22.314 12.77-45.798 23.587-69.919 32.096-2.57-1.493-5.306-3.445-8.18-5.896 25.57-9.113 50.258-20.591 73.625-33.963zM599.85 371.21c.717 1.241 1.209 2.102 1.694 2.943-20.496 11.707-42.036 21.57-64.099 29.307-1.455-.136-2.987-.506-4.635-1.12 23.117-8.373 45.615-18.869 67.04-31.13zM441.46 413.98c1.667-.252 3.326-.514 4.997-.789 23.578-3.877 46.816-9.855 69.39-17.654 2.644 2.364 5.213 4.385 7.704 6.056-23.185 7.876-46.926 13.62-70.728 16.88-3.776-1.043-7.557-2.578-11.363-4.493zM465.37 420.28c21.047-3.595 41.941-9.055 62.41-16.173a32.077 32.077 0 0 0 3.285 1.514c-20.505 6.777-41.415 11.728-62.323 14.564a45.219 45.219 0 0 1-3.372.094z" style="block-progression:tb;text-indent:0;text-transform:none"/></g><path transform="translate(34.982 15.29) scale(.96041)" d="M856.31 449.94l-.031.031-72.406 5.782c-2.265.18-4.272 2.09-4.563 4.343l-7.28 57.062-37.563-23.406a5.007 5.007 0 0 0-1.125-.5c-48.753-16.522-89.09-7.61-118.5 35.688-.115.17-.22.348-.312.532l-4.563 8.843a5.01 5.01 0 0 0-.25.532c-20.3 52.124 6.172 71.714 39.531 109.94l.063.093a5.028 5.028 0 0 0 2.156 1.438c1.511 1.55 3.015 3.108 4.719 4.594.177.148.365.284.562.406 16.974 11.019 35.553 13.493 53.5 11.062s35.407-9.623 51.156-17.938a5.087 5.087 0 0 0 2.625-3.781l2.625-20.938a5.079 5.079 0 0 0-1.437-4.125 5.004 5.004 0 0 0-.688-.594l-.031-.031-37.656-31.75c-1.583-1.342-4.035-1.54-5.813-.47-17.228 11.965-35.639 19.52-56.812 18.345-.896-13.658 4.463-28.258 13.031-40.344 3.77-4.16 7.54-7.702 11.344-10.72.019-.013.044-.017.063-.03.022-.018.04-.045.062-.063 5.661-4.16 12.07-7.56 18.844-10.344 5.735-1.717 10.888-2.772 15.688-3.219 12.54-.62 26.147 2.597 41.125 9 .013.005.02.026.032.032 1.105.485 2.208.986 3.343 1.5l-5.062 39.688c-.208 1.675.501 3.436 1.812 4.5l40.562 33.062a5.064 5.064 0 0 0 3.75 1.093l74.375-9.03c2.09-.253 3.92-1.964 4.313-4.032l3.219-16.625c.367-1.914-.507-4.008-2.125-5.094l-40.72-27.25 42.845-4.594c2.111-.227 3.975-1.945 4.375-4.03l3.375-17.689.03-.093a5.002 5.002 0 0 0 .095-1.094 5.11 5.11 0 0 0-.032-.406v-.094a5.006 5.006 0 0 0-.25-.969 5.013 5.013 0 0 0-.187-.469 5.002 5.002 0 0 0-.156-.343 4.62 4.62 0 0 0-.063-.094 4.998 4.998 0 0 0-.219-.344 4.62 4.62 0 0 0-.062-.093 5.03 5.03 0 0 0-.25-.282 4.62 4.62 0 0 0-.063-.093 5.02 5.02 0 0 0-.28-.282 6.138 6.138 0 0 0-.063-.062c-.101-.088-.205-.171-.313-.25a5.647 5.647 0 0 0-.094-.063 5 5 0 0 0-.406-.28 5.647 5.647 0 0 0-.093-.063l-.25-.125-45.562-25.688.468-2.844c20.551-.762 53.688-5.063 53.688-5.063 2.068-.277 3.864-1.98 4.25-4.03l3.625-18.939c.422-2.185-.817-4.58-2.844-5.5l-50.688-22.969a5.026 5.026 0 0 0-2.437-.437zm-350.69 50.719a5.039 5.039 0 0 0-.438.031l-15.094 1.188c-1.853.15-3.57 1.425-4.25 3.156l-57.312 145.34a5.051 5.051 0 0 0-.062 3.5l13.875 39.188.031.094.063.156c.734 2.14 3.066 3.607 5.312 3.344l22.625-2.72c1.75-.203 3.35-1.406 4.031-3.03l17.125-40.97 54.22-6.062 22.5 35.25c1.004 1.58 2.953 2.504 4.812 2.281l21.375-2.593a5.07 5.07 0 0 0 3.781-2.532 5.102 5.102 0 0 0 .156-4.562l-40.469-85.5-25.938-54.781c-.16-.344-.36-.67-.593-.969l-21.844-27.875a5.079 5.079 0 0 0-3.907-1.937zm-311.84 2.844l-63.219 4.656c-1.768.139-3.42 1.294-4.156 2.906l-15.344 33.22-.031.03a5.06 5.06 0 0 0-.625 3.75l35.312 157.38c.534 2.39 3.037 4.164 5.468 3.875l25.312-3.093c2.073-.246 3.897-1.924 4.313-3.97l9.031-44.624c.13-.648.13-1.321 0-1.969l-3.312-16.656 13.469-1.594a5.03 5.03 0 0 0 .312-.062c17.684-3.314 34.165-11.395 43.75-27.97.082-.162.155-.329.219-.5a41.904 41.904 0 0 0 3.125-11.03c.19-.438.316-.902.375-1.375 1.619-13.108 3.962-26.44 3.406-39.594s-4.266-26.306-14.594-37.781a5.02 5.02 0 0 0-.281-.281c-11.925-11.228-27.133-14.338-41.812-15.312a5.012 5.012 0 0 0-.719 0zm190.53 7.75l-.063.031-90.938 7.313c-2.554.205-4.713 2.659-4.593 5.218l1.468 30.594c-.02.323-.01.648.032.97l19.469 153.06c.324 2.59 2.97 4.656 5.562 4.343l93.688-11.406c2.533-.296 4.599-2.8 4.406-5.344l-1.312-18.062a5.006 5.006 0 0 0-.188-.969l-10.719-38.656c1.94-.793 3.25-2.91 3.094-5l-1.469-19.03v-.188a5.006 5.006 0 0 0-.218-1.281l-10.375-34.781c-.661-2.186-2.977-3.743-5.25-3.532l-57.812 5.47-.22-1.845 68.313-6.28c2.577-.237 4.72-2.764 4.531-5.345l-1.562-20.875a5.006 5.006 0 0 0-.282-1.28l-10.5-29.782c-.715-2.052-2.894-3.491-5.062-3.344z" color="#000" filter="url(#d)" style="block-progression:tb;text-indent:0;text-transform:none"/><path d="M420.64-297.02c-196.05 0-354.99 158.91-354.99 354.96 0 9.365.349 18.67 1.06 27.852 57.523 76.328 148.94 125.68 251.88 125.68 174.08 0 315.19-141.12 315.19-315.19 0-52.619-12.9-102.23-35.701-145.84-52.202-30.187-112.81-47.461-177.45-47.461z" fill="url(#e)" transform="translate(91.742 475.34)"/><path d="M935.872 809.71a152.298 152.298 0 0 0 9.685-17.379c3.015-6.37 5.723-13.286 7.846-20.602 2.123-7.315 3.66-15.031 4.358-22.962.7-7.93.553-16.074-.65-24.216-1.876-12.682-6.34-25.338-14.03-37.183-.22.43-.43.86-.65 1.29 6.328-20.38 10.849-40.337 13.93-58.718 0 7.825.246 14.976.823 21.534.565 6.558 1.427 12.524 2.505 17.952 2.155 10.855 5.214 19.563 8.45 26.37 3.236 6.805 6.646 11.694 9.286 14.857 2.64 3.164 4.504 4.6 4.504 4.6 4.082-15.76 7.106-31.452 8.713-46.482s1.799-29.391.38-42.418c-1.417-13.025-4.437-24.71-9.149-34.44-4.712-9.73-11.103-17.493-19.268-22.88.442-10.654.516-19.491.602-25.88h-4.273c-.123 7.215-.185 17.294-.786 29.543-.59 12.25-1.716 26.674-3.867 42.494 0-.418 0-.835-.123-1.252-8.978 7.099-16.72 14.244-23.468 21.377a192.78 192.78 0 0 0-17.47 21.29 191.64 191.64 0 0 0-12.753 20.735 209.587 209.587 0 0 0-9.088 19.496 230.227 230.227 0 0 0-5.954 16.505 228.63 228.63 0 0 0-3.848 13.474 175.687 175.687 0 0 0-2.066 9.146c-.417 2.17-.589 3.38-.589 3.38 13.942-8.876 27.34-19.134 38.948-31.302 9.72-10.177 18.173-21.71 24.511-34.624a430.812 430.812 0 0 1-12.896 39.537 424.73 424.73 0 0 1-17.858 40.431c-16.774 7.208-30.009 15.678-40.82 24.62a155.879 155.879 0 0 0-14.477 13.622 166.456 166.456 0 0 0-11.356 13.516 178.491 178.491 0 0 0-14.692 22.921c-3.226 6.009-4.791 9.884-4.791 9.884 9.439-3.55 18.77-7.635 27.69-12.505 8.92-4.87 17.429-10.525 25.166-17.146a401.576 401.576 0 0 1-21.458 27.37 372.511 372.511 0 0 1-22.213 23.753c-.283.282-.578.565-.86.835-.123.123-.245.22-.356.344-9.268 3.47-17.831 7.67-25.99 12.459-8.158 4.786-15.914 10.164-23.53 15.943-7.616 5.778-15.093 11.96-22.641 18.313-7.548 6.353-15.167 12.876-23.007 19.299 0 0 3.518.172 9.534-.528 6.015-.7 14.552-2.294 24.4-5.953a113.882 113.882 0 0 0 15.552-7.16 115.09 115.09 0 0 0 16.316-10.98 115.368 115.368 0 0 0 15.753-15.385 116.604 116.604 0 0 0 13.689-20.15c1.08-1.018 2.147-2.038 3.227-3.086.319-.307.638-.627.97-.934a373.943 373.943 0 0 0 17.526-18.372c-4.64 7.814-8.645 15.666-12.297 23.603-3.233 7.027-6.19 14.12-9.059 21.27-2.87 7.148-5.654 14.354-8.542 21.58 0 0 4.145-2.339 10.332-6.988a144.37 144.37 0 0 0 10.505-8.708 140.896 140.896 0 0 0 11.797-12.121c3.933-4.568 7.785-9.665 11.264-15.213 3.478-5.547 6.585-11.544 9.043-17.873 2.456-6.33 4.265-12.99 5.17-19.838.909-6.847.909-13.88-.209-20.95a418.845 418.845 0 0 0 13.98-21.065 100.709 100.709 0 0 0 8.252-13.91 427.783 427.783 0 0 0 10.01-18.626 431.395 431.395 0 0 0 8.465-17.74c-2.126 8.27-3.77 16.494-5.077 24.754-1.307 8.26-2.28 16.554-3.07 24.923-1.585 16.74-2.446 33.809-3.878 51.215 0 0 2.948-2.532 7.434-7.37 4.487-4.838 10.502-12.014 16.459-21.244zm-447.44 230.64c7.171.332 15.084.196 23.371-.712 7.822-.86 15.973-2.402 24.093-4.846 8.123-2.443 16.214-5.783 23.892-10.17 7.678-4.387 14.94-9.817 21.404-16.38a92.998 92.998 0 0 0 16.65-23.143c-.479 0-.958 0-1.442.123 20.821-4.726 40.371-10.779 57.818-17.303-6.79 3.88-12.839 7.703-18.232 11.476-5.394 3.774-10.134 7.498-14.296 11.145-8.321 7.295-14.332 14.302-18.602 20.51-4.268 6.209-6.786 11.61-8.198 15.478-1.414 3.87-1.72 6.204-1.72 6.204 11.158-3.107 22.03-6.652 32.36-10.654 10.327-4.003 20.113-8.463 29.097-13.35 8.986-4.885 17.17-10.196 24.314-15.86 7.143-5.664 13.243-11.68 18.087-17.96 7.809-10.126 12.337-20.908 12.964-32.125 9.427-4.973 17.095-9.363 22.664-12.495l-2.095-3.726c-4.747 2.672-10.897 6.175-18.306 10.161-7.41 3.986-16.083 8.453-25.866 13.03a461.423 461.423 0 0 1-20.396 8.957c.357-.234.7-.455 1.044-.688-10.356-4.107-20.158-7.185-29.479-9.448-9.321-2.263-18.165-3.712-26.574-4.543a188.692 188.692 0 0 0-23.919-.847c-7.535.208-14.627.835-21.213 1.699a228.163 228.163 0 0 0-18.108 3.148 231.886 231.886 0 0 0-14.265 3.554 180.876 180.876 0 0 0-9.412 2.94c-2.202.762-3.396 1.249-3.396 1.249 13.493 6.96 27.77 12.942 42.703 16.917 14.932 3.973 30.524 5.935 46.282 4.868a441.364 441.364 0 0 1-41.212 8.733 430.863 430.863 0 0 1-43.448 4.811 183.986 183.986 0 0 0-13.197-8.933c-13.148-8.077-25.706-13.377-37.491-16.923-11.784-3.546-22.8-5.341-32.45-6.227a178.23 178.23 0 0 0-23.832-.59c-5.914.259-9.446.775-9.446.775 7.817 6.371 16.043 12.379 24.74 17.639 8.695 5.259 17.863 9.77 27.476 13.128a399.678 399.678 0 0 1-35.094-4.9 372.77 372.77 0 0 1-32.217-7.449c-.16 0-.307-.122-.466-.147-8.404-6.868-17.138-12.559-26.234-17.516-9.094-4.957-18.55-9.181-28.32-13.101-8.05-3.227-16.313-6.248-24.717-9.273-8.404-3.027-16.948-6.063-25.512-9.295 0 0 .712 1.378 2.242 3.73 1.529 2.35 3.879 5.675 7.188 9.536 3.31 3.86 7.583 8.255 12.926 12.698a113.335 113.335 0 0 0 19.28 12.92 114.527 114.527 0 0 0 26.117 9.994 116.04 116.04 0 0 0 32 3.324c1.422.417 2.842.835 4.29 1.236a374.763 374.763 0 0 0 25.99 6.263c-12.588-.123-24.635.872-36.594 2.357-11.96 1.483-23.827 3.457-35.88 5.229 0 0 4.092 2.4 11.195 5.4a143.88 143.88 0 0 0 12.762 4.687 141.257 141.257 0 0 0 16.347 4.097c5.93 1.105 12.28 1.881 18.836 2.107 6.554.221 13.314-.123 20.036-1.154 6.721-1.056 13.404-2.842 19.794-5.504 6.389-2.664 12.486-6.205 18.046-10.735 8.31.737 16.735 1.245 25.24 1.487a101.47 101.47 0 0 0 16.173.135c2.532 0 5.065-.122 7.598-.135 4.513-.123 9.025-.307 13.536-.59a432.562 432.562 0 0 0 19.595-1.608c-11.466 3.236-22.384 7.254-33.13 11.79-10.034 4.234-19.918 8.919-29.874 13.78-9.956 4.86-19.985 9.897-30.25 14.793 0 0 3.67 1.276 10.11 2.72 6.438 1.444 15.667 3.034 26.643 3.54zM64.222 769.32c3.967 7.6 9.042 15.778 15.348 23.725 6.305 7.947 13.844 15.66 22.568 22.3 8.723 6.643 18.63 12.209 29.521 15.912a93.093 93.093 0 0 0 35.345 4.825c-.27-.406-.528-.799-.798-1.204a445.362 445.362 0 0 0 23.632 23.516 454.263 454.263 0 0 0 20.419 17.75c-9.212-5.33-17.642-9.521-25.406-12.762-9.479-3.957-17.965-6.498-25.444-8.016-7.48-1.516-13.948-2.01-19.264-1.946-5.316 0-9.475.688-12.303 1.309-2.828.626-4.322 1.254-4.322 1.254 12.03 11.719 24.562 22.45 37.228 31.504 9.091 6.496 18.238 12.125 27.25 16.678 9.011 4.554 17.885 8.032 26.413 10.266 8.529 2.233 16.71 3.22 24.363 2.824 7.652-.393 14.772-2.172 21.247-5.445 9.027 5.677 16.664 10.124 22.162 13.381l2.178-3.676c-6.21-3.678-14.916-8.755-25.254-15.355-10.337-6.6-22.3-14.736-34.96-24.46.38.184.737.368 1.117.565-2.715-18.051-7.087-33.437-12.432-46.862-5.191-13.042-11.324-24.255-17.72-34.02-6.397-9.761-13.058-18.074-19.169-24.957-6.11-6.884-11.67-12.325-15.737-16.063-4.067-3.738-6.645-5.744-6.645-5.744.773 15.166 2.79 30.515 6.865 45.42 4.076 14.905 10.223 29.367 19.071 42.448a440.798 440.798 0 0 1-28.278-31.225 431.942 431.942 0 0 1-26.013-35.131c1.684-15.203 1.37-28.672-.209-40.765-1.571-12.095-4.405-22.82-7.75-32.28a173.84 173.84 0 0 0-7.45-17.781 181.17 181.17 0 0 0-7.384-13.701 151.365 151.365 0 0 0-5.712-8.9c-1.44-2.065-2.318-3.17-2.318-3.17-1.433 8.851-2.454 17.833-2.803 26.856-.356 9.022 0 18.083 1.216 27.038a122.75 122.75 0 0 0 1.105 6.658c-.92-1.994-1.816-3.99-2.694-5.984a388.273 388.273 0 0 1-11.683-29.753 367.545 367.545 0 0 1-8.632-28.678c0-.16-.123-.319-.123-.478 1.591-9.767 2.202-19.285 2.097-28.745-.122-9.46-.92-18.861-2.151-28.342-1.234-9.48-2.887-19.04-4.651-28.745-1.766-9.706-3.643-19.56-5.322-29.553 0 0-1.901 2.965-4.285 8.531-2.382 5.568-5.237 13.77-6.952 24.136a113.477 113.477 0 0 0-1.51 17.054c-.122 6.152.332 12.737 1.429 19.614a115.08 115.08 0 0 0 5.53 21.314 116.593 116.593 0 0 0 10.687 21.887c.356 1.44.7 2.877 1.081 4.335a371.918 371.918 0 0 0 7.573 25.634c-6.203-10.951-13.077-20.893-20.341-30.508-7.264-9.616-14.911-18.903-22.48-28.44 0 0 0 4.083.737 10.786.762 6.704 2.33 16.04 5.538 26.354a132.135 132.135 0 0 0 6.106 15.959c2.489 5.405 5.457 10.819 8.945 16 6.979 10.364 16.063 19.783 27.255 26.374a70.923 70.923 0 0 0 10.953 5.25 410.544 410.544 0 0 0 11.403 22.556 100.501 100.501 0 0 0 8.021 14.044 428.693 428.693 0 0 0 22.508 34.024c-6.14-5.938-12.483-11.427-19.022-16.642-6.539-5.214-13.272-10.153-20.159-14.973-13.776-9.643-28.19-18.827-42.62-28.707 0 0 .75 3.822 2.735 10.121 1.991 6.3 5.263 15.086 10.349 24.83zm21.507-503.05a152.7 152.7 0 0 0-9.181 16.645c-2.869 6.08-5.462 12.664-7.537 19.621-2.074 6.96-3.63 14.294-4.442 21.844-.81 7.55-.884 15.312 0 23.101 1.578 14.034 6.24 28.122 14.858 41.185.209-.43.418-.86.639-1.296-6.177 20.425-10.55 40.417-13.497 58.82 0-7.824-.356-14.975-.983-21.528-.626-6.554-1.52-12.513-2.637-17.933-2.236-10.839-5.359-19.525-8.646-26.306-3.287-6.781-6.734-11.642-9.397-14.787-2.664-3.143-4.539-4.564-4.539-4.564-3.964 15.788-6.87 31.5-8.366 46.541-1.495 15.041-1.581 29.402-.123 42.418 1.513 13.015 4.619 24.677 9.402 34.372 4.781 9.694 11.23 17.412 19.434 22.736-.369 10.658-.369 19.495-.418 25.885h4.273c0-7.215 0-17.294.565-29.547.504-12.254 1.521-26.685 3.556-42.52 0 .418 0 .823.123 1.25 9.268-7.44 17.203-14.918 24.075-22.373 6.871-7.454 12.682-14.889 17.666-22.217a192.557 192.557 0 0 0 12.676-21.539 212.32 212.32 0 0 0 8.848-20.068 231.826 231.826 0 0 0 5.287-15.537 226.957 226.957 0 0 0 3.412-12.599c.86-3.585 1.45-6.49 1.822-8.5.369-2.01.528-3.127.528-3.127-12.918 8.361-25.353 17.908-36.304 29.08-10.658 10.861-19.902 23.288-26.66 37.316a430.888 430.888 0 0 1 13.78-42.764 423.857 423.857 0 0 1 16.376-37.43c16.72-7.33 29.892-15.898 40.637-24.917a155.96 155.96 0 0 0 14.378-13.729 166.618 166.618 0 0 0 11.256-13.597 178.682 178.682 0 0 0 14.524-23.029c3.182-6.033 4.72-9.92 4.72-9.92-9.414 3.62-18.715 7.775-27.599 12.71-8.884 4.935-17.352 10.65-25.04 17.329a400.71 400.71 0 0 1 21.681-28.026 370.772 370.772 0 0 1 22.47-24.261c.123-.123.234-.221.357-.344.564-.209 1.13-.43 1.682-.65 9.018-3.572 17.363-7.836 25.326-12.663 7.962-4.826 15.543-10.21 22.992-15.982 7.45-5.77 14.768-11.922 22.157-18.237 7.388-6.315 14.849-12.794 22.523-19.174 0 0-3.52-.147-9.53.59-6.01.736-14.535 2.401-24.357 6.133a113.669 113.669 0 0 0-15.498 7.273 114.84 114.84 0 0 0-16.234 11.1 115.37 115.37 0 0 0-15.64 15.5 116.526 116.526 0 0 0-13.54 20.248c-.576.553-1.154 1.117-1.733 1.674-.491.466-.982.958-1.472 1.438a373.076 373.076 0 0 0-18.345 19.447c5.23-8.958 9.632-17.961 13.625-27.077 5.7-13.011 10.564-26.26 15.783-39.595 0 0-3.722 2.139-9.366 6.37-5.643 4.233-13.204 10.6-20.685 18.957-4.12 4.604-8.21 9.804-11.937 15.514-3.725 5.711-7.082 11.932-9.75 18.531-2.67 6.598-4.647 13.572-5.643 20.755-.995 7.182-1.007 14.57.22 21.987a417.397 417.397 0 0 0-13.824 21.17 100.475 100.475 0 0 0-8.151 13.97 428.293 428.293 0 0 0-9.872 18.698 427.785 427.785 0 0 0-8.332 17.803c2.064-8.285 3.647-16.52 4.892-24.79 1.246-8.27 2.157-16.57 2.888-24.946 1.461-16.75 2.198-33.825 3.502-51.242 0 0-2.93 2.553-7.381 7.425-4.45 4.87-10.413 12.09-16.302 21.364zm445.73-233.93a151.556 151.556 0 0 0-19.654.503c-8.01.725-16.43 2.165-24.86 4.549-8.43 2.382-16.869 5.715-24.888 10.162-8.017 4.447-15.611 10.013-22.35 16.794a92.996 92.996 0 0 0-17.25 24.047c.479 0 .958 0 1.44-.123C403.112 93.151 383.61 99.347 366.21 106c6.763-3.93 12.783-7.799 18.148-11.611 5.366-3.813 10.078-7.571 14.212-11.249 8.27-7.356 14.228-14.407 18.451-20.646 4.223-6.24 6.703-11.658 8.086-15.538 1.384-3.879 1.674-6.213 1.674-6.213-10.673 3.055-21.08 6.51-30.995 10.383-9.915 3.874-19.336 8.164-28.04 12.844-17.408 9.36-31.918 20.295-41.903 32.238-4.63 5.539-8.291 11.288-10.862 17.194-2.573 5.905-4.054 11.964-4.355 18.153-9.39 5.044-17.027 9.49-22.572 12.664l2.124 3.708c4.967-2.841 11.474-6.616 19.36-10.913 7.888-4.295 17.16-9.114 27.634-14.021 5.46-2.56 11.25-5.144 17.335-7.694-.357.233-.688.454-1.044.7 10.387 4.028 20.209 7.033 29.547 9.229 9.337 2.193 18.19 3.576 26.604 4.347 8.414.773 16.39.933 23.923.675a202.898 202.898 0 0 0 21.199-1.854 228.248 228.248 0 0 0 18.085-3.281 228.677 228.677 0 0 0 14.239-3.658c4-1.167 7.195-2.231 9.391-3.01 2.196-.774 3.388-1.272 3.388-1.272-13.544-6.862-27.867-12.739-42.828-16.604-14.96-3.864-30.567-5.711-46.315-4.53a441.783 441.783 0 0 1 41.146-9.034 431.276 431.276 0 0 1 43.412-5.129c5.626 4.103 11.144 7.667 16.55 10.773 12.828 7.368 25.068 12.163 36.53 15.337 11.463 3.177 22.152 4.734 31.488 5.458 9.337.725 17.316.614 23.007.307 5.69-.307 9.073-.822 9.073-.822-7.865-6.314-16.135-12.26-24.869-17.456-8.735-5.197-17.935-9.64-27.573-12.928a400.412 400.412 0 0 1 35.13 4.642 371.698 371.698 0 0 1 32.271 7.213c.16 0 .307.123.467.135 8.894 7.16 18.145 13.015 27.789 18.078 9.644 5.064 19.684 9.338 30.056 13.322 7.612 2.92 15.406 5.68 23.316 8.46 7.91 2.779 15.939 5.575 23.984 8.543 0 0-.675-1.28-2.113-3.474-1.44-2.194-3.645-5.306-6.742-8.938a106.662 106.662 0 0 0-12.066-12.025 113.027 113.027 0 0 0-17.955-12.486 114.37 114.37 0 0 0-27.266-10.954 115.989 115.989 0 0 0-33.997-3.58c-1.426-.405-2.848-.81-4.301-1.203a374.823 374.823 0 0 0-26.036-6.07c12.59 0 24.63-1.057 36.578-2.629 11.948-1.569 23.8-3.632 35.837-5.495 0 0-4.109-2.367-11.232-5.314a143.6 143.6 0 0 0-12.796-4.593 140.952 140.952 0 0 0-16.376-3.976c-5.938-1.068-12.295-1.792-18.851-1.968-6.557-.172-13.314.196-20.028 1.303-6.713 1.105-13.382 2.94-19.754 5.65-6.37 2.71-12.44 6.294-17.967 10.864a424.996 424.996 0 0 0-25.25-1.3 98.791 98.791 0 0 0-16.173 0c-1.402 0-2.803 0-4.207.123-5.64.147-11.283.417-16.921.786a435.409 435.409 0 0 0-19.583 1.753c12.677-3.68 24.675-8.315 36.504-13.547 9.394-4.153 18.676-8.678 28.03-13.345 9.356-4.666 18.782-9.475 28.423-14.158 0 0-3.68-1.247-10.129-2.645-6.45-1.397-15.691-2.92-26.671-3.345zm426.2 267.9c-4.024-7.57-9.158-15.709-15.522-23.611-6.364-7.9-13.958-15.557-22.73-22.133-8.771-6.578-18.719-12.073-29.637-15.694a93.088 93.088 0 0 0-35.378-4.565c.27.405.54.798.81 1.19a444.965 444.965 0 0 0-21.324-21.067 453.778 453.778 0 0 0-23.029-19.873c10.638 6.052 20.235 10.603 28.956 13.944 8.974 3.44 17.013 5.597 24.09 6.837 7.078 1.241 13.187 1.564 18.2 1.402 5.013-.16 8.925-.81 11.582-1.434 2.658-.626 4.058-1.228 4.058-1.228-11.156-10.71-22.73-20.579-34.437-29.069-9.378-6.8-18.83-12.709-28.147-17.5s-18.5-8.467-27.318-10.836c-8.82-2.37-17.275-3.437-25.166-3.05-7.891.38-15.213 2.222-21.84 5.633-9.07-5.609-16.738-10.002-22.26-13.217l-2.15 3.693c6.235 3.632 14.98 8.644 25.363 15.17 10.385 6.523 22.407 14.572 35.14 24.203-.38-.184-.749-.368-1.13-.553 3.072 19.443 8.049 35.78 14.078 49.884 5.322 12.448 11.484 23.175 17.848 32.52 6.363 9.343 12.925 17.303 18.915 23.887 5.99 6.585 11.406 11.783 15.358 15.35 3.952 3.564 6.442 5.475 6.442 5.475-.885-15.162-3.014-30.497-7.197-45.371-4.186-14.875-10.437-29.292-19.382-42.307a441.005 441.005 0 0 1 28.505 31.016 432.107 432.107 0 0 1 26.27 34.94c-1.657 16.022-1.106 30.109.773 42.675 1.889 12.567 5.122 23.625 8.822 33.27 3.074 6.106 6.293 11.642 9.35 16.549a267.087 267.087 0 0 0 8.445 12.72 234.641 234.641 0 0 0 6.055 8.23c1.473 1.904 2.333 2.92 2.333 2.92.123-8.293.147-16.696-.184-25.138-.32-8.441-.995-16.918-2.277-25.315a134.03 134.03 0 0 0-1.609-10.1 402.232 402.232 0 0 1 4.108 9.042c8.839 18.873 15.753 37.647 20.896 55.199 0 .16.123.32.135.479-.626 9.778-.184 19.299.884 28.758 1.068 9.457 2.75 18.854 4.637 28.325 1.887 9.47 3.974 19.018 5.918 28.71 1.945 9.693 3.744 19.534 5.143 29.515 0 0 .822-2.98 1.842-8.565.503-2.792 1.08-6.24 1.589-10.29.515-4.052.982-8.707 1.274-13.897.295-5.19.405-10.913.184-17.065-.22-6.152-.786-12.735-1.892-19.603-1.105-6.868-2.753-14.022-5.18-21.273-2.426-7.25-5.632-14.598-9.883-21.807a350 350 0 0 0-1.179-4.327 387.3 387.3 0 0 0-8.147-25.577c6.238 10.904 12.732 20.795 19.033 30.357 6.3 9.56 12.411 18.792 17.908 28.273 0 0 0-3.862-.479-10.237-.503-6.377-1.538-15.277-3.863-25.18-2.324-9.905-5.954-20.806-11.646-30.975-5.693-10.167-13.463-19.583-23.824-26.49a71.553 71.553 0 0 0-14.599-7.396 411.859 411.859 0 0 0-11.57-22.474 100.457 100.457 0 0 0-8.125-13.982 430.047 430.047 0 0 0-11.39-17.816 433.682 433.682 0 0 0-11.367-16.043c6.184 5.891 12.567 11.335 19.143 16.5 6.576 5.167 13.345 10.057 20.27 14.826 13.845 9.542 28.327 18.618 42.83 28.387 0 0-.775-3.814-2.812-10.1-2.038-6.284-5.373-15.043-10.532-24.75z" fill="green" fill-rule="evenodd"/><g fill="#333"><path d="M846.944 507.71l-.74.07-5.102 31.358 52.086-5.35-46.244-26.078zm-5.526 52.86l-3.836.423-5.807 35.546 53.952-6.335-44.309-29.633z" fill="#1a1a1a"/><path d="M699.65-37.774l-17.749 139.09 43.257 35.252 22.708-148.79z" fill="url(#f)" transform="translate(157.818 491.813) scale(.90103)"/><path d="M776.81-43.966l-77.163 6.192 48.215 25.546 82.99-7.236z" fill="url(#g)" transform="translate(157.818 491.813) scale(.90103)"/><path d="M729.963 582.916l-14.781 9.01-7.426 3.449-7.39 2.71-7.25 1.935-7.075 1.162-7.18.387-6.756-.387-6.23-1.162-5.736-1.9-5.174-2.64-4.54-3.308-3.941-3.977 30.125 32.026 4.153 4.189 4.857 3.484 5.525 2.745 6.124 1.97 6.687 1.197 7.25.317 7.707-.493 7.637-1.302 7.813-2.182 7.99-2.956 8.059-3.73 16.083-9.749-36.531-30.794z" fill="#1a1a1a"/><path d="M595.61-6.418l-11.366 1.602-10.898 2.89-10.351 4.14-9.648 5.234-8.866 6.289-8.007 7.265-7.07 8.085-5.976 8.828-4.883 9.452-3.71 10-2.422 10.467-1.094 10.78.196 7.617 1.171 7.773 2.227 7.694 3.242 7.422 4.257 6.991 5.351 6.406 32.03 36.755-5.625-6.796-4.492-7.421-3.36-7.89-2.265-8.203-1.132-8.28-.117-8.164 1.406-11.562 2.812-11.249 4.18-10.78 5.429-10.195 6.679-9.57 7.773-8.749 8.788-7.85 9.726-6.875 10.546-5.742 11.249-4.492 11.874-3.242 12.304-1.796h16.21l16.913 2.812 18.553 5.82L643.693 1.94l-17.342-5.508L610.61-6.34l-14.999-.078z" fill="url(#h)" transform="translate(157.818 491.813) scale(.90103)"/><path d="M544.522 594.458l8.693 17.245 2.358-.246-11.051-16.999zm21.82 33.575l-4.68.528.351.669 22.77 35.721-18.441-36.918z" fill="#1a1a1a"/><path d="M830.84-19.468l-82.966 7.23-22.718 148.81 79.271-9.64 3.438-17.737-59.895 7.037 7.262-44.568 57.292-6.137 3.631-18.926-57.806 5.944 7.52-46.239 61.115-5.59zM623.26 22.24c-37.401 8.822-62.502 32.05-76.251 67.478-8.453 29.609-4.046 54.854 19.569 75.447 33.849 21.973 73.236 9.835 106.17-7.551l2.795-22.332c-28.909 18.949-71.3 35.898-99.772 7.23-16.754-22.67-9.626-51.424 5.592-72.748 30.61-33.98 63.415-34.13 102.86-16.291l3.052-24.421c-20.795-8.49-42.16-10.064-64.008-6.812zM425.87 39.881l-17.544 1.51-68.057 167.03 24.132-2.924 19.44-46.528 69.535-7.776 20.468 40.969 22.782-2.763zM61.2 48.139l-74.644 6.009 37.627 167.73 26.991-3.278-14.395-68.699 39.427-4.659c17.932-3.36 33.677-11.194 42.961-27.248 5.472-12.448 3.673-25.21-.74-37.627C108.035 57.042 84.998 49.47 61.2 48.138zm223.67 5.013l-106.55 9.286 20.726 163.14 99.868-12.146-1.382-19.247-75.576 8.869-5.494-48.65 72.716-7.775-1.575-20.726-73.519 7.55-5.784-50.865 78.211-7.198zM66.75 71.725c15.646 1.8 25.507 12.143 27.056 27.505.314 15.034-11.665 22.083-24.742 25.192l-36.792 3.984L21.09 74.841c15.246-.691 30.388-3.911 45.66-3.117zm350.28 5.752l26.991 55.042-51.38 5.495z" fill="url(#i)" transform="translate(157.818 491.813) scale(.90103)"/><g fill="#1a1a1a"><path d="M208.423 624.832l-17.455 2.041 12.951 61.907 8.693-42.866-4.188-21.081zM357.82 674.776l68.089-8.004-10.392-37.49-62.403 6.765zM536.539 578.66l-10.206 1.021-14.711 36.496 46.28-4.962-21.363-32.554z"/><path d="M533.575 561.627l-2.464 6.088 5.42 10.945 21.362 32.554-24.318-49.588z"/></g><path d="M340.29 208.4l68.027-167.03-21.811-29.95-61.098 154.91z" fill="url(#j)" transform="translate(157.818 491.813) scale(.90103)"/><path d="M235.769 564.723l-.986.458-3.413 1.161-3.766.845-30.056 3.027-10.628 37.305 33.152-3.59 4.118-.985 3.766-1.267 3.343-1.584 2.921-1.865 2.534-2.182 2.076-2.429 1.62-2.71 1.125-2.956.67-3.238.105-3.484-.387-3.73-.634-2.851-.985-2.78-1.302-2.745-1.69-2.57-1.584-1.83z" fill="#1a1a1a"/><path d="M195.05 557.685l-18.231 1.548 10.1 48.286 10.629-37.305-2.499-12.529z" fill="#000"/><path d="M350.71 612.064l66.263-6.808-9.968-33.403-60.528 5.728z" fill="#1a1a1a"/><path d="M70.616 13.151l-67.378 4.96-16.678 36.053 74.643-6.016a84.61 84.61 0 0 1 8.827.508l.938.04 1.172.195c1.588.216 3.184.47 4.726.78.18.037.367.08.547.118l2.421.39 8.047 2.305 7.186 3.125 6.328 3.789 5.507 4.491 4.649 5 3.866 5.507 3.008 5.977 2.265 6.327 1.446 6.601.625 6.601-.274 6.328c3.493-28.28 9.626-55.78-10.585-78.236C100.48 17.24 85.77 14.157 70.616 13.15z" fill="url(#k)" transform="translate(157.818 491.813) scale(.90103)"/><path d="M408.32 41.375l17.552-1.527-23.277-29.71-16.085 1.287z" fill="url(#l)" transform="translate(157.818 491.813) scale(.90103)"/><path d="M178.33 62.433l106.54-9.29-11.184-31.735-96.949 7.78z" fill="url(#m)" transform="translate(157.818 491.813) scale(.90103)"/><path d="M906.43 474.275l-74.75 6.507-6.918 45.25c6.806-2.451 13.4-4.937 19.725-7.478l3.415-21.05c18.353-.252 55.06-5.05 55.06-5.05zM698.58 518.79c-21.303 10.55-37.873 27.826-46.398 50.078a1318.715 1318.715 0 0 0 22.845-3.974c7.884-15.631 22.027-25.598 37.83-32.06 24.026-7.276 39.267-2.893 61.473 7.153l2.738-21.992c-27.565-10.541-51.532-9.941-78.488.795zm-157.031 8.95l-15.81 1.354-23.052 56.585c7.236-.456 14.528-.968 21.845-1.531l9.068-22.522 10.245 20.903c7.592-.68 15.134-1.4 22.61-2.179zm-328.588 7.448l-67.242 5.417 2.797 12.425c8.88 3.436 18.567 6.67 29.028 9.656l-.706-3.445 36.123-3.061 5.005.265 4.475.765 3.945 1.237 3.415 1.56 2.944 1.913 2.532 2.179 2.06 2.444 1.708 2.59 1.325 2.738.971 2.768.442 1.972a797.776 797.776 0 0 0 26.525 3.798l-.441-4.534-1.296-5.947-2.031-5.711-2.738-5.388-3.474-4.946-4.18-4.504-4.947-4.063-5.711-3.415-6.477-2.797-7.242-2.09-8.008-1.325zm201.551 4.505l-96.004 8.39 4.769 37.654c8.075.564 16.262 1.04 24.613 1.443l-2.385-20.962 70.48-6.477z" fill="#b3b3b3"/></g></svg>