<svg viewBox="0 0 145 240" xmlns="http://www.w3.org/2000/svg" xmlns:xlink="http://www.w3.org/1999/xlink"><defs><linearGradient id="a"><stop stop-color="#7c7c7c" stop-opacity=".496" offset="0"/><stop stop-color="#fff" stop-opacity=".704" offset=".084"/><stop stop-color="#323232" stop-opacity=".392" offset="1"/></linearGradient><filter id="j" color-interpolation-filters="sRGB"><feGaussianBlur stdDeviation=".375"/></filter><filter id="k" color-interpolation-filters="sRGB"><feGaussianBlur stdDeviation=".822"/></filter><linearGradient id="A" x1="487.17" x2="427.34" y1="313.99" y2="273.56" gradientTransform="matrix(1 0 0 .85439 .484 44.618)" gradientUnits="userSpaceOnUse" xlink:href="#a" spreadMethod="reflect"/><linearGradient id="z" x1="427.54" x2="501.78" y1="287.96" y2="287.16" gradientTransform="matrix(0 1.0315 -.88871 0 680.11 -146.42)" gradientUnits="userSpaceOnUse" xlink:href="#a" spreadMethod="reflect"/><linearGradient id="y" x1="463.54" x2="476.29" y1="411.73" y2="411.73" gradientTransform="translate(.484 -.224)" gradientUnits="userSpaceOnUse" xlink:href="#a"/><linearGradient id="x" x1="356.09" x2="423.8" y1="300.68" y2="300.68" gradientTransform="matrix(1 0 0 .9074 .484 31.005)" gradientUnits="userSpaceOnUse" xlink:href="#a" spreadMethod="reflect"/><linearGradient id="w" x1="463.54" x2="490.62" y1="408.78" y2="408.78" gradientTransform="translate(.484 -.224)" gradientUnits="userSpaceOnUse" xlink:href="#a"/><linearGradient id="v" x1="474.85" x2="497.07" y1="403.26" y2="403.26" gradientTransform="translate(.484 -.224)" gradientUnits="userSpaceOnUse" xlink:href="#a"/><linearGradient id="u" x1="479.2" x2="508.93" y1="397.27" y2="393.69" gradientTransform="translate(.484 -.224)" gradientUnits="userSpaceOnUse" xlink:href="#a"/><linearGradient id="t" x1="352.45" x2="361.83" y1="400.32" y2="399.6" gradientTransform="translate(.484 -.224)" gradientUnits="userSpaceOnUse" xlink:href="#a"/><linearGradient id="s" x1="353.67" x2="378.7" y1="406.16" y2="406.16" gradientTransform="translate(.484 -.224)" gradientUnits="userSpaceOnUse" xlink:href="#a"/><linearGradient id="r" x1="364.27" x2="392.69" y1="411.18" y2="411.18" gradientTransform="translate(.484 -.224)" gradientUnits="userSpaceOnUse" xlink:href="#a"/><linearGradient id="q" x1="381.99" x2="410.61" y1="414.77" y2="414.77" gradientTransform="translate(.484 -.224)" gradientUnits="userSpaceOnUse" xlink:href="#a"/><linearGradient id="p" x1="404.69" x2="431.63" y1="416.5" y2="416.5" gradientTransform="translate(.484 -.224)" gradientUnits="userSpaceOnUse" xlink:href="#a"/><linearGradient id="o" x1="428.29" x2="455.8" y1="415.88" y2="415.88" gradientTransform="translate(.484 -.224)" gradientUnits="userSpaceOnUse" xlink:href="#a"/><linearGradient id="n" x1="447.37" x2="476.29" y1="413.16" y2="413.16" gradientTransform="translate(.484 -.224)" gradientUnits="userSpaceOnUse" xlink:href="#a"/><linearGradient id="m" x1="469.82" x2="494.86" y1="391.52" y2="391.52" gradientTransform="translate(.484 -.224)" gradientUnits="userSpaceOnUse" xlink:href="#a"/><linearGradient id="l" x1="351.45" x2="373.68" y1="394.36" y2="394.36" gradientTransform="translate(.484 -.224)" gradientUnits="userSpaceOnUse" xlink:href="#a"/><radialGradient id="h" cx="424.06" cy="324.34" r="56.797" gradientTransform="matrix(.75471 0 0 .36799 103.8 336.3)" gradientUnits="userSpaceOnUse" xlink:href="#a" spreadMethod="reflect"/><linearGradient id="g" x1="455.84" x2="484.26" y1="386.72" y2="386.72" gradientTransform="translate(.484 -.224)" gradientUnits="userSpaceOnUse" xlink:href="#a"/><linearGradient id="f" x1="437.92" x2="466.53" y1="383.44" y2="383.44" gradientTransform="translate(.484 -.224)" gradientUnits="userSpaceOnUse" xlink:href="#a"/><linearGradient id="e" x1="372.24" x2="401.16" y1="384.88" y2="384.88" gradientTransform="translate(.484 -.224)" gradientUnits="userSpaceOnUse" xlink:href="#a"/><linearGradient id="d" x1="357.9" x2="384.99" y1="389" y2="389" gradientTransform="translate(.484 -.224)" gradientUnits="userSpaceOnUse" xlink:href="#a"/><linearGradient id="c" x1="416.89" x2="443.83" y1="382.07" y2="382.07" gradientTransform="translate(.484 -.224)" gradientUnits="userSpaceOnUse" xlink:href="#a"/><linearGradient id="b" x1="392.72" x2="420.24" y1="382.51" y2="382.51" gradientTransform="translate(.484 -.224)" gradientUnits="userSpaceOnUse" xlink:href="#a"/><radialGradient id="i" cx="415.95" cy="529.44" r="57.698" gradientTransform="matrix(.45734 0 0 1.8305 234.23 -481.88)" gradientUnits="userSpaceOnUse" xlink:href="#a" spreadMethod="reflect"/></defs><path d="M400.64 469.63l-6.436-172.82 24.171-1.869 1.343 173.39-19.078 1.3" fill="url(#b)" opacity=".5" transform="translate(-352.41 -271.96)"/><path d="M419.72 468.33l-1.342-173.39 24.939.618-3.913 173.2-19.684-.43" fill="url(#c)" opacity=".5" transform="translate(-352.41 -271.96)"/><path d="M373.16 476.6l-13.773-169.77 14.333-5.892 10.753 171.56-11.312 4.099" fill="url(#d)" opacity=".5" transform="translate(-352.41 -271.96)"/><path d="M384.47 472.5l-10.753-171.56 20.487-4.13 6.436 172.82-16.17 2.873" fill="url(#e)" opacity=".5" transform="translate(-352.41 -271.96)"/><path d="M439.4 468.76l3.913-173.2 22.7 3.03-8.697 172.28-17.916-2.108" fill="url(#f)" opacity=".5" transform="translate(-352.41 -271.96)"/><path d="M457.32 470.87l8.697-172.28 17.722 5.076-12.431 170.74-13.987-3.531" fill="url(#g)" opacity=".5" transform="translate(-352.41 -271.96)"/><path d="M429.73 464.4l-9.719 3.75c-.083.002-.166-.002-.25 0l-9.437-3.313-9.25 4.532-.5.062-7.875-2.5-8.031 5.406c-.022.006-.041.026-.063.032l-5.625-1.97-5.5 5.876c-1.607.603-3.524.62-5.25 1l.594 3.031c-.272.453-.508.94-.688 1.469.236 4.094 1.652 8.09 2.313 12.156.249 4.317 2.499 8.236 6.75 9.719 11.554 5.045 24.33 6.185 36.78 6.969 16.893.639 34.12.023 50.47-4.626 4.3-1.529 9.506-2.93 11.812-7.25 1.723-5.438 4.002-10.715 5.469-16.219a6.384 6.384 0 0 0-.594-1.906c.344-.764.276-1.425-1.094-1.719-1.613-1.965-2.918-4.275-4.406-6.375l-4.188 1.72c-.009-.004-.022.002-.03 0l-6.938-5.75-6.875 2.187c-.01-.002-.022.002-.032 0-.072-.014-.146-.018-.218-.031l-8.844-4.97-8.813 2.907c-.083-.005-.166-.026-.25-.031l-9.718-4.157z" color="#000" fill="url(#h)" transform="translate(-352.41 -271.96)"/><path d="M368.23 474.25l.031.136c.005-.045-.005-.091 0-.136-.01.002-.021-.002-.031 0zm113.03 2.624c-.04.101-.08.207-.125.306.048.117.064.23.094.341.058-.232.09-.45.03-.647zm-112.44.715a8.61 8.61 0 0 0-.688 1.567c.028.513.07 1.024.125 1.534l.563-3.101zm112.44.613c-.11.375-.46.675-1.219.852-1.613 2.143-2.917 4.661-4.406 6.95l-4.188-1.873c-.009.003-.022-.003-.03 0l-6.938 6.27-6.875-2.386c-.01.002-.021-.002-.031 0-.073.015-.147.02-.22.034l-8.843 5.418-8.812-3.169c-.084.005-.167.029-.25.034l-9.72 4.532-9.718-4.089c-.084-.002-.167.002-.25 0l-9.438 3.612-9.25-4.94c-.167-.022-.333-.047-.5-.07l-7.875 2.727-8.03-5.895c-.023-.007-.041-.028-.063-.034l-5.625 2.147-5.5-6.406c-1.598-.654-3.5-.683-5.219-1.09.438 3.885 1.61 7.706 2.187 11.585.25 4.706 2.5 8.98 6.75 10.596 11.554 5.5 24.33 6.744 36.781 7.598 16.892.697 34.12.026 50.47-5.043 4.3-1.667 9.506-3.195 11.811-7.905 1.723-5.929 4.003-11.682 5.47-17.683a7.396 7.396 0 0 0-.47-1.771z" color="#000" fill="url(#i)" filter="url(#j)" transform="translate(-352.41 -271.96)"/><path d="M470.3 484.33c0 5.598-20.004 10.136-44.681 10.136s-44.681-4.538-44.681-10.136 20.004-10.136 44.681-10.136 44.681 4.538 44.681 10.136z" color="#000" fill="#fff" fill-opacity=".52" filter="url(#k)" transform="translate(-352.41 -271.96)"/><g><path d="M368.07 481.43l-15.132-167.66 6.45-6.944 13.772 169.77-5.09 4.83" fill="url(#l)" opacity=".5" transform="translate(-352.41 -271.96)"/><path d="M471.31 474.4l12.431-170.74 10.607 6.51-14.666 168.75-8.372-4.53" fill="url(#m)" opacity=".5" transform="translate(-352.41 -271.96)"/><path d="M465.02 492.84l10.753-162.67-20.487 4.13-6.436 161.41 16.17-2.873" fill="url(#n)" transform="translate(-352.41 -271.96)"/><path d="M448.85 495.71l6.436-161.41-24.171 1.869-1.342 160.84 19.078-1.3" fill="url(#o)" transform="translate(-352.41 -271.96)"/><path d="M429.78 497.01l1.342-160.84-24.939-.618 3.913 161.03 19.684.43" fill="url(#p)" transform="translate(-352.41 -271.96)"/><path d="M410.09 496.58l-3.913-161.03-22.7-3.03 8.696 161.95 17.916 2.108" fill="url(#q)" transform="translate(-352.41 -271.96)"/><path d="M392.18 494.47l-8.697-161.95-17.722-5.076 12.431 163.5 13.987 3.531" fill="url(#r)" transform="translate(-352.41 -271.96)"/><path d="M378.19 490.94l-12.431-163.5-10.607-6.51 14.666 165.48 8.372 4.53" fill="url(#s)" transform="translate(-352.41 -271.96)"/><path d="M369.82 486.41l-14.666-165.48-2.212-7.159 15.132 167.66 1.746 4.98" fill="url(#t)" transform="translate(-352.41 -271.96)"/><path d="M479.68 478.93l14.666-168.75 2.212 7.159-15.132 166.58-1.746-4.98" fill="url(#u)" transform="translate(-352.41 -271.96)"/><path d="M481.43 483.91l15.132-166.58-6.45 6.944-13.772 164.46 5.09-4.83" fill="url(#v)" transform="translate(-352.41 -271.96)"/><path d="M476.34 488.74l13.773-164.46-14.333 5.892-10.753 162.67 11.312-4.099" fill="url(#w)" transform="translate(-352.41 -271.96)"/><path d="M424.89 272.69c-39.769 0-72 8.456-72 18.885 0 .316.035.623.094.936.002.009-.002.019 0 .028-.059.313-.094.62-.094.936 0 .326.032.642.094.964-.059.313-.094.62-.094.936 0 .326.032.642.094.964a5.324 5.324 0 0 0-.094.936c0 .325.032.642.094.964a5.324 5.324 0 0 0-.094.935c0 .326.032.643.094.965a5.324 5.324 0 0 0-.094.935c0 .326.032.643.094.964a5.324 5.324 0 0 0-.094.936c0 .326.032.642.094.964a5.324 5.324 0 0 0-.094.936c0 .326.032.642.094.964-.055.303-.094.6-.094.908 0 .325.032.67.094.992-.055.303-.094.6-.094.907 0 .326.032.671.094.993-.055.303-.094.6-.094.907 0 .326.032.67.094.993-.055.303-.094.6-.094.907 0 .326.032.67.094.993-.055.303-.094.6-.094.907 0 .326.032.642.094.964-.059.313-.094.62-.094.936 0 .326.032.642.094.964-.059.313-.094.62-.094.936 0 10.429 32.231 18.885 72 18.885s72.031-8.456 72.031-18.885c0-.317-.035-.623-.094-.936a5.032 5.032 0 0 0 0-1.928c.059-.313.094-.62.094-.936 0-.307-.038-.604-.094-.907.002-.01-.002-.02 0-.029-.002-.009.002-.019 0-.028.056-.304.094-.629.094-.936 0-.307-.038-.604-.094-.907.002-.01-.002-.02 0-.029-.002-.009.002-.019 0-.028.056-.304.094-.628.094-.936 0-.307-.038-.604-.094-.907.002-.01-.002-.02 0-.029-.002-.009.002-.019 0-.028.056-.304.094-.628.094-.936 0-.307-.038-.604-.094-.907.002-.01-.002-.02 0-.028-.002-.01.002-.02 0-.029.056-.304.094-.628.094-.936 0-.306-.038-.604-.094-.907.002-.009-.002-.019 0-.028-.002-.01.002-.02 0-.029.055-.303.094-.6.094-.907 0-.308-.038-.632-.094-.936.002-.009-.002-.019 0-.028-.002-.01.002-.02 0-.029.055-.303.094-.6.094-.907 0-.308-.038-.632-.094-.936.002-.009-.002-.019 0-.028-.002-.01.002-.02 0-.029.055-.303.094-.6.094-.907 0-.308-.038-.632-.094-.936.002-.009-.002-.019 0-.028-.002-.01.002-.02 0-.029.055-.303.094-.6.094-.907 0-.307-.038-.632-.094-.936.002-.009-.002-.019 0-.028-.002-.009.002-.02 0-.028.055-.304.094-.6.094-.908 0-.307-.038-.632-.094-.936.002-.009-.002-.019 0-.028-.002-.009.002-.02 0-.028.055-.304.094-.6.094-.908 0-.326-.032-.642-.094-.964.059-.312.094-.62.094-.936s-.035-.623-.094-.935c.002-.01-.002-.02 0-.029.059-.312.094-.62.094-.935 0-10.43-32.262-18.885-72.031-18.885z" color="#000" fill="url(#x)" transform="translate(-352.41 -271.96)"/><path d="M465.02 492.84l10.753-162.67-10.753 162.67" fill="url(#y)" transform="translate(-352.41 -271.96)"/><path d="M421.52 273.43c-34.731.449-62.344 7.777-62.344 16.744 0 .139.018.278.031.416.811-9.198 28.103-16.633 62.312-17.096 1.12-.015 2.24 0 3.375 0 35.778 0 64.884 7.596 65.72 17.096.012-.138.03-.277.03-.416 0-9.256-29.447-16.744-65.75-16.744-1.134 0-2.254-.015-3.375 0zm-68.594 17.48c-.013.148-.031.3-.031.448 0 10.536 32.23 19.081 72 19.081 39.769 0 72.03-8.545 72.03-19.08 0-.15-.018-.301-.03-.449-.884 9.866-32.787 17.8-72 17.8s-71.086-7.934-71.97-17.8z" color="#000" fill="url(#z)" transform="translate(-352.41 -271.96)"/><path d="M424.89 272.18c-39.769 0-72 7.962-72 17.782s32.231 17.782 72 17.782 72.031-7.962 72.031-17.782-32.262-17.782-72.031-17.782zm-3.375 1.121c1.12-.014 2.24 0 3.375 0 36.303 0 65.75 7.306 65.75 16.34s-29.447 16.367-65.75 16.367-65.719-7.331-65.719-16.367c0-8.752 27.613-15.902 62.344-16.34z" color="#000" fill="url(#A)" transform="translate(-352.41 -271.96)"/></g></svg>