<svg xmlns="http://www.w3.org/2000/svg" xmlns:xlink="http://www.w3.org/1999/xlink" width="220" height="220"><defs><linearGradient id="a"><stop offset="0" stop-color="#fff"/><stop offset=".192" stop-color="#fff"/><stop offset=".515" stop-color="#999"/><stop offset="1" stop-color="#1f1f1f"/></linearGradient><linearGradient id="b"><stop offset="0" stop-color="#fff"/><stop offset=".098" stop-color="#fff"/><stop offset="1" stop-color="#373737"/></linearGradient><linearGradient id="c"><stop offset="0" stop-color="#fff"/><stop offset=".202" stop-color="#bababa"/><stop offset=".601" stop-color="#525252"/><stop offset="1" stop-color="#1b1b1b"/></linearGradient><filter id="i" color-interpolation-filters="sRGB"><feGaussianBlur stdDeviation=".78"/></filter><filter id="k" color-interpolation-filters="sRGB"><feGaussianBlur stdDeviation="1.32"/></filter><linearGradient id="d"><stop offset="0" stop-color="#fff"/><stop offset=".202" stop-color="#bababa"/><stop offset=".601" stop-color="#525252"/><stop offset="1" stop-color="#1b1b1b"/></linearGradient><radialGradient xlink:href="#a" id="e" gradientUnits="userSpaceOnUse" gradientTransform="matrix(-1.65901 -.85821 .28863 -.55795 102.335 -127.691)" spreadMethod="reflect" cx="-43.022" cy="294.081" fx="-43.022" fy="294.081" r="80.5"/><radialGradient xlink:href="#b" id="f" gradientUnits="userSpaceOnUse" gradientTransform="matrix(1.94802 1.12469 -.31673 .5486 75.085 -397.55)" spreadMethod="reflect" cx="49.241" cy="150.48" fx="49.241" fy="150.48" r="80.5"/><radialGradient xlink:href="#d" id="g" gradientUnits="userSpaceOnUse" gradientTransform="matrix(-.5242 -.79896 1.33211 -.874 88.625 -42.059)" spreadMethod="reflect" cx="82.655" cy="144.605" fx="82.655" fy="144.605" r="50"/><radialGradient xlink:href="#c" id="h" gradientUnits="userSpaceOnUse" gradientTransform="matrix(-.5242 -.79896 1.33211 -.874 89.023 -42.307)" spreadMethod="reflect" cx="82.655" cy="144.605" fx="82.655" fy="144.605" r="50"/><linearGradient xlink:href="#b" id="j" gradientUnits="userSpaceOnUse" gradientTransform="rotate(90 289.347 187.587) scale(1.52053)" x1="-89.733" y1="229.456" x2="-84.356" y2="155.469"/></defs><g color="#000"><path d="M234.678-334.103c-7.539.142-15.896 3-24.438 8.125.681 20.07-5.977 45.828-19.75 71.156-13.78 25.34-31.777 44.917-49 55.25.553 16.185 5.877 28.695 16.094 34.25 3.934 2.14 8.342 3.119 13.062 3.032 22.741-.42 52.856-25.469 73.469-63.375 24.891-45.775 26.512-92.992 3.625-105.438-3.934-2.139-8.344-3.089-13.062-3z" style="marker:none" fill="url(#e)" overflow="visible" enable-background="accumulate" transform="translate(-66.207 372.106)"/><path d="M183.204-368.397c-24.124.279-56.143 26.847-78.063 67.157-24.209 44.52-27.65 90.282-9.312 107.718 7.754 9.83 17.47 18.214 29.031 24.5 11.574 6.294 23.957 9.902 36.438 11.063.01.003.02.028.03.031 2.307.546 4.724.78 7.22.75 24.122-.296 56.12-26.862 78.03-67.156 24.16-44.427 27.648-90.107 9.438-107.625a94.356 94.356 0 0 0-29.156-24.625c-11.554-6.283-23.855-9.864-31.3-10.737-7.444-.874-9.86-1.104-12.356-1.076zm51.469 34.282c4.718-.09 9.128.86 13.062 3 22.887 12.445 21.266 59.663-3.625 105.437-20.613 37.907-50.728 62.956-73.469 63.375-4.72.087-9.128-.892-13.062-3.031-22.887-12.446-21.235-59.632 3.656-105.406 20.613-37.907 50.702-62.948 73.438-63.375z" style="marker:none" fill="url(#f)" overflow="visible" enable-background="accumulate" transform="translate(-66.207 372.106)"/><path d="M236.485-339.084c-24.099.447-55.995 26.976-77.844 67.156-26.383 48.52-28.103 98.558-3.843 111.75 4.17 2.268 8.81 3.312 13.812 3.219 24.101-.446 56.026-27.008 77.875-67.188 26.384-48.519 28.103-98.558 3.844-111.75-4.17-2.267-8.842-3.28-13.844-3.187zm-2.031 5.469c4.701-.087 9.08.868 13 3 22.804 12.4 21.175 59.423-3.625 105.03-20.538 37.77-50.533 62.738-73.188 63.157-4.702.087-9.08-.9-13-3.031-22.804-12.4-21.175-59.423 3.625-105.031 20.538-37.77 50.535-62.706 73.188-63.125z" style="marker:none" fill="url(#g)" stroke="#ccc" stroke-width=".658" overflow="visible" enable-background="accumulate" transform="translate(-66.207 372.106)"/><path d="M235.07-340.145c-24.098.44-55.994 26.977-77.843 67.156-26.383 48.52-28.103 98.559-3.844 111.75 4.17 2.268 8.842 3.312 13.844 3.22 24.101-.447 55.995-27.009 77.844-67.188 26.383-48.52 28.103-98.527 3.844-111.72-4.17-2.266-8.843-3.31-13.844-3.218zm-2.03 5.438c4.703-.087 9.111.9 13.03 3.03 22.805 12.401 21.176 59.424-3.624 105.032-20.538 37.77-50.533 62.737-73.188 63.156-4.702.087-9.08-.9-13-3.03-22.804-12.401-21.206-59.424 3.594-105.032 20.538-37.77 50.527-62.737 73.188-63.156z" style="marker:none" fill="url(#h)" stroke="#ccc" stroke-width=".658" overflow="visible" filter="url(#i)" enable-background="accumulate" transform="translate(-66.207 372.106)"/><path d="M137.974 26.367c-.277.057-.606 12.013-.796 12.187-.19.174-22.545-5.482-22.595-5.237-.05.244 20.364 6.108 20.465 6.356.1.248-18.693 18.57-18.467 18.756.225.185 20.413-17.922 20.703-17.85.29.073 1.461 16.693 1.738 16.634.277-.058-.155-16.751.033-16.926.188-.175 17.712 4.649 17.763 4.404.05-.244-16.619-5.697-16.718-5.946-.1-.248 16.945-7.228 16.718-7.412-.227-.185-16.86 6.03-17.15 5.957-.29-.074-1.418-10.98-1.694-10.923z" style="marker:none" fill="#fff" overflow="visible" enable-background="accumulate"/><path d="M256.161-322.267c7.524 22.102 1.407 58.286-17.844 93.687-21.46 39.465-52.596 65.747-76.53 67.094 2.046.865 4.193 1.436 6.437 1.75 23.582-2.9 53.35-28.697 74.093-66.844 16.9-31.079 23.688-62.772 20-85-1.513-4.16-3.574-7.762-6.156-10.687z" style="marker:none" fill="url(#j)" overflow="visible" filter="url(#k)" enable-background="accumulate" transform="translate(-66.207 372.106)"/></g></svg>