<svg xmlns="http://www.w3.org/2000/svg" xmlns:xlink="http://www.w3.org/1999/xlink" width="512" height="428"><defs><linearGradient id="c"><stop offset="0" stop-color="#767676"/><stop offset="1"/></linearGradient><linearGradient id="d"><stop offset="0" stop-color="#fff"/><stop offset="1" stop-color="#fff" stop-opacity="0"/></linearGradient><linearGradient id="b"><stop offset="0" stop-color="red"/><stop offset="1" stop-color="#8e0000"/></linearGradient><linearGradient id="a"><stop offset="0" stop-color="#ffeeb4"/><stop offset=".565" stop-color="#f4d56a"/><stop offset="1" stop-color="#a38520"/></linearGradient><filter height="1.242" y="-.121" width="1.242" x="-.121" id="A" color-interpolation-filters="sRGB"><feGaussianBlur stdDeviation="2.548"/></filter><filter height="1.242" y="-.121" width="1.242" x="-.121" id="x" color-interpolation-filters="sRGB"><feGaussianBlur stdDeviation="2.548"/></filter><radialGradient xlink:href="#a" id="w" gradientUnits="userSpaceOnUse" cx="154.553" cy="74.535" fx="154.553" fy="74.535" r="25.254"/><radialGradient xlink:href="#a" id="z" gradientUnits="userSpaceOnUse" cx="154.553" cy="74.535" fx="154.553" fy="74.535" r="25.254"/><radialGradient xlink:href="#a" id="e" gradientUnits="userSpaceOnUse" gradientTransform="matrix(-.90667 -.10378 -.11985 1.04701 399.241 221.606)" cx="98.752" cy="-153.309" fx="98.752" fy="-153.309" r="73.236"/><radialGradient xlink:href="#a" id="f" gradientUnits="userSpaceOnUse" gradientTransform="matrix(-1.183 0 -.34653 1.56575 458.637 -74.76)" cx="74.513" cy="105.46" fx="74.513" fy="105.46" r="35.009"/><filter id="o" x="-.452" width="1.904" y="-.732" height="2.463" color-interpolation-filters="sRGB"><feGaussianBlur stdDeviation="6.532"/></filter><radialGradient xlink:href="#b" id="l" gradientUnits="userSpaceOnUse" gradientTransform="matrix(1.3657 0 0 1.2211 -346.409 -105.774)" cx="947.271" cy="478.391" fx="947.271" fy="478.391" r="74.995"/><radialGradient xlink:href="#b" id="m" gradientUnits="userSpaceOnUse" gradientTransform="matrix(1 0 0 1.4911 .002 -329.946)" cx="1126.129" cy="629.517" fx="1126.129" fy="629.517" r="44.882"/><radialGradient xlink:href="#b" id="n" gradientUnits="userSpaceOnUse" gradientTransform="matrix(1 0 0 1.17002 0 -115.859)" cx="1179.53" cy="643.018" fx="1179.53" fy="643.018" r="49.171"/><filter id="k" x="-.161" width="1.322" y="-.18" height="1.36" color-interpolation-filters="sRGB"><feGaussianBlur stdDeviation="10.054"/></filter><linearGradient xlink:href="#c" id="j" x1="176.718" y1="491.249" x2="374.966" y2="491.249" gradientUnits="userSpaceOnUse" gradientTransform="translate(38.89 -11.617)"/><radialGradient xlink:href="#a" id="H" gradientUnits="userSpaceOnUse" gradientTransform="matrix(-.90667 -.10378 -.11985 1.04701 399.241 221.606)" cx="98.752" cy="-153.309" fx="98.752" fy="-153.309" r="73.236"/><radialGradient xlink:href="#a" id="I" gradientUnits="userSpaceOnUse" gradientTransform="matrix(-1.183 0 -.34653 1.56575 458.637 -74.76)" cx="74.513" cy="105.46" fx="74.513" fy="105.46" r="35.009"/><radialGradient xlink:href="#b" id="N" gradientUnits="userSpaceOnUse" gradientTransform="matrix(1.3657 0 0 1.2211 -346.409 -105.774)" cx="947.271" cy="478.391" fx="947.271" fy="478.391" r="74.995"/><radialGradient xlink:href="#b" id="O" gradientUnits="userSpaceOnUse" gradientTransform="matrix(1 0 0 1.4911 .002 -329.946)" cx="1126.129" cy="629.517" fx="1126.129" fy="629.517" r="44.882"/><radialGradient xlink:href="#b" id="P" gradientUnits="userSpaceOnUse" gradientTransform="matrix(1 0 0 1.17002 0 -115.859)" cx="1179.53" cy="643.018" fx="1179.53" fy="643.018" r="49.171"/><radialGradient xlink:href="#a" id="af" gradientUnits="userSpaceOnUse" gradientTransform="matrix(-.12774 .08212 .12126 .23386 396.871 513.506)" cx="185.737" cy="420.128" fx="185.737" fy="420.128" r="179.25"/><radialGradient xlink:href="#a" id="ae" gradientUnits="userSpaceOnUse" gradientTransform="matrix(.33097 0 0 .3439 281.393 496.023)" cx="185.737" cy="420.128" fx="185.737" fy="420.128" r="179.25"/><radialGradient xlink:href="#d" id="ad" gradientUnits="userSpaceOnUse" gradientTransform="matrix(.8042 0 0 .7079 225.73 291.042)" cx="179.625" cy="273.174" fx="179.625" fy="273.174" r="21.144"/><radialGradient xlink:href="#d" id="ac" gradientUnits="userSpaceOnUse" gradientTransform="matrix(.24895 0 0 .17464 365.103 389.951)" cx="154.553" cy="74.535" fx="154.553" fy="74.535" r="25.254"/><radialGradient xlink:href="#d" id="ab" gradientUnits="userSpaceOnUse" gradientTransform="matrix(.22177 0 0 .16208 303.293 390.907)" cx="154.553" cy="74.535" fx="154.553" fy="74.535" r="25.254"/><radialGradient xlink:href="#c" id="aa" gradientUnits="userSpaceOnUse" cx="154.553" cy="74.535" fx="154.553" fy="74.535" r="25.254" gradientTransform="matrix(.58359 0 0 .44658 309.925 376.049)"/><radialGradient xlink:href="#c" id="Y" gradientUnits="userSpaceOnUse" cx="154.553" cy="74.535" fx="154.553" fy="74.535" r="25.254" gradientTransform="matrix(.58359 0 0 .44658 244.066 376.049)"/><radialGradient xlink:href="#c" id="W" gradientUnits="userSpaceOnUse" gradientTransform="matrix(.4275 0 0 .33851 275.922 386.316)" cx="214.152" cy="302.829" fx="214.152" fy="302.829" r="58.841"/><linearGradient xlink:href="#a" id="V" gradientUnits="userSpaceOnUse" gradientTransform="matrix(.63792 0 0 1.77808 228.053 182.525)" x1="198.028" y1="68.625" x2="188.516" y2="235.26"/><radialGradient xlink:href="#a" id="U" gradientUnits="userSpaceOnUse" gradientTransform="matrix(.69039 0 .20223 .91376 220.754 226.46)" cx="74.513" cy="105.46" fx="74.513" fy="105.46" r="35.009"/><radialGradient xlink:href="#a" id="T" gradientUnits="userSpaceOnUse" gradientTransform="matrix(.85185 .29287 -.18543 .88794 223.79 144.834)" cx="214.246" cy="210.59" fx="214.246" fy="210.59" r="145.721"/><radialGradient xlink:href="#a" id="S" gradientUnits="userSpaceOnUse" gradientTransform="matrix(.86492 .23176 -.23928 .89301 203.634 260.051)" cx="217.316" cy="94.817" fx="217.316" fy="94.817" r="178.589"/><radialGradient xlink:href="#a" id="R" gradientUnits="userSpaceOnUse" gradientTransform="matrix(1.0082 .3008 -.28987 1.20452 335.085 -62.386)" cx="147.659" cy="471.92" fx="147.659" fy="471.92" r="165.617"/><radialGradient xlink:href="#a" id="Q" gradientUnits="userSpaceOnUse" gradientTransform="matrix(-.81425 -.90662 .94527 -1.0525 175.187 1354.675)" cx="248.871" cy="521.52" fx="248.871" fy="521.52" r="109.04"/><linearGradient xlink:href="#c" id="M" gradientUnits="userSpaceOnUse" gradientTransform="translate(461.399 -11.617)" x1="176.718" y1="491.249" x2="374.966" y2="491.249"/><radialGradient xlink:href="#a" id="L" gradientUnits="userSpaceOnUse" gradientTransform="matrix(.52912 -.06057 .06994 .61102 255.417 399.415)" cx="98.752" cy="-153.309" fx="98.752" fy="-153.309" r="73.236"/><radialGradient xlink:href="#a" id="K" gradientUnits="userSpaceOnUse" gradientTransform="matrix(.71987 -.20337 .42584 1.86875 -10.404 -246.527)" cx="339.032" cy="460.053" fx="339.032" fy="460.053" r="69.626"/><radialGradient xlink:href="#a" id="J" gradientUnits="userSpaceOnUse" gradientTransform="matrix(1.04597 -.24689 .33775 1.11039 -21.148 77.798)" cx="186.123" cy="597.749" fx="186.123" fy="597.749" r="152.533"/><radialGradient xlink:href="#a" id="X" gradientUnits="userSpaceOnUse" cx="154.553" cy="74.535" fx="154.553" fy="74.535" r="25.254"/><radialGradient xlink:href="#a" id="Z" gradientUnits="userSpaceOnUse" cx="154.553" cy="74.535" fx="154.553" fy="74.535" r="25.254"/><filter id="ai" color-interpolation-filters="sRGB"><feGaussianBlur stdDeviation="7.473"/></filter><radialGradient xlink:href="#b" id="ag" gradientUnits="userSpaceOnUse" gradientTransform="matrix(1 0 0 .60526 0 -88.663)" cx="1337.758" cy="-234.845" fx="1337.758" fy="-234.845" r="246.477"/><linearGradient xlink:href="#c" id="ah" gradientUnits="userSpaceOnUse" x1="1145.271" y1="-409.39" x2="1280.738" y2="-295.242"/><linearGradient xlink:href="#b" id="aj" gradientUnits="userSpaceOnUse" gradientTransform="matrix(1 0 0 .96125 0 -20.205)" spreadMethod="reflect" x1="1324.419" y1="-234.633" x2="1604.236" y2="-234.633"/><radialGradient xlink:href="#b" id="ak" gradientUnits="userSpaceOnUse" cx="1327.593" cy="-244.728" fx="1327.593" fy="-244.728" r="84.286"/><radialGradient xlink:href="#b" id="al" gradientUnits="userSpaceOnUse" gradientTransform="matrix(1 0 0 1.00018 0 .01)" cx="1538.563" cy="-51.141" fx="1538.563" fy="-51.141" r="84.281"/><radialGradient xlink:href="#b" id="an" gradientUnits="userSpaceOnUse" gradientTransform="matrix(1 0 0 .60526 0 -88.663)" cx="1337.758" cy="-234.845" fx="1337.758" fy="-234.845" r="246.477"/><linearGradient xlink:href="#c" id="ao" gradientUnits="userSpaceOnUse" x1="1145.271" y1="-409.39" x2="1280.738" y2="-295.242"/><linearGradient xlink:href="#b" id="ap" gradientUnits="userSpaceOnUse" gradientTransform="matrix(1 0 0 .96125 0 -20.205)" spreadMethod="reflect" x1="1324.419" y1="-234.633" x2="1604.236" y2="-234.633"/><radialGradient xlink:href="#b" id="aq" gradientUnits="userSpaceOnUse" cx="1327.593" cy="-244.728" fx="1327.593" fy="-244.728" r="84.286"/><radialGradient xlink:href="#b" id="ar" gradientUnits="userSpaceOnUse" gradientTransform="matrix(1 0 0 1.00018 0 .01)" cx="1538.563" cy="-51.141" fx="1538.563" fy="-51.141" r="84.281"/><radialGradient xlink:href="#b" id="am" cx="975.954" cy="299.379" fx="975.954" fy="299.379" r="24.243" gradientTransform="matrix(1.62562 .43558 -.4355 1.62531 -494.52 -624.839)" gradientUnits="userSpaceOnUse"/><radialGradient xlink:href="#b" id="as" gradientUnits="userSpaceOnUse" gradientTransform="rotate(-45 1125.553 53.136) scale(.45783 .45792)" cx="1564.487" cy="-77.061" fx="1564.487" fy="-77.061" r="84.281"/><radialGradient xlink:href="#a" id="G" gradientUnits="userSpaceOnUse" gradientTransform="matrix(-.14223 .08212 .13502 .23386 153.63 513.506)" cx="185.737" cy="420.128" fx="185.737" fy="420.128" r="179.25"/><radialGradient xlink:href="#a" id="F" gradientUnits="userSpaceOnUse" gradientTransform="matrix(.36851 0 0 .3439 25.053 496.023)" cx="185.737" cy="420.128" fx="185.737" fy="420.128" r="179.25"/><radialGradient xlink:href="#d" id="E" gradientUnits="userSpaceOnUse" gradientTransform="matrix(1.32534 0 0 .7079 -112.899 291.042)" cx="179.625" cy="273.174" fx="179.625" fy="273.174" r="21.144"/><radialGradient xlink:href="#d" id="D" gradientUnits="userSpaceOnUse" gradientTransform="matrix(.24895 0 0 .17464 122.034 389.951)" cx="154.553" cy="74.535" fx="154.553" fy="74.535" r="25.254"/><radialGradient xlink:href="#d" id="C" gradientUnits="userSpaceOnUse" gradientTransform="matrix(.22177 0 0 .16208 53.22 390.907)" cx="154.553" cy="74.535" fx="154.553" fy="74.535" r="25.254"/><radialGradient xlink:href="#c" id="B" gradientUnits="userSpaceOnUse" cx="154.553" cy="74.535" fx="154.553" fy="74.535" r="25.254" gradientTransform="matrix(.58359 0 0 .44658 66.855 376.049)"/><radialGradient xlink:href="#c" id="y" gradientUnits="userSpaceOnUse" cx="154.553" cy="74.535" fx="154.553" fy="74.535" r="25.254" gradientTransform="matrix(.58359 0 0 .44658 -6.007 376.049)"/><radialGradient xlink:href="#c" id="v" gradientUnits="userSpaceOnUse" gradientTransform="matrix(.70454 0 0 .33851 -30.181 386.316)" cx="214.152" cy="302.829" fx="214.152" fy="302.829" r="58.841"/><linearGradient xlink:href="#a" id="u" gradientUnits="userSpaceOnUse" gradientTransform="matrix(.63792 0 0 1.77808 -18.518 182.525)" x1="198.028" y1="68.625" x2="188.516" y2="235.26"/><radialGradient xlink:href="#a" id="t" gradientUnits="userSpaceOnUse" gradientTransform="matrix(.69039 0 .20223 .91376 -25.818 226.46)" cx="74.513" cy="105.46" fx="74.513" fy="105.46" r="35.009"/><radialGradient xlink:href="#a" id="s" gradientUnits="userSpaceOnUse" gradientTransform="matrix(.85185 .29287 -.18543 .88794 -22.781 144.834)" cx="214.246" cy="210.59" fx="214.246" fy="210.59" r="145.721"/><radialGradient xlink:href="#a" id="r" gradientUnits="userSpaceOnUse" gradientTransform="matrix(.86492 .23176 -.23928 .89301 -42.937 260.051)" cx="217.316" cy="94.817" fx="217.316" fy="94.817" r="178.589"/><radialGradient xlink:href="#a" id="q" gradientUnits="userSpaceOnUse" gradientTransform="matrix(1.12258 .3008 -.32275 1.20452 84.835 -62.386)" cx="147.659" cy="471.92" fx="147.659" fy="471.92" r="165.617"/><radialGradient xlink:href="#a" id="p" gradientUnits="userSpaceOnUse" gradientTransform="rotate(-135 233.962 696.64) scale(1.28215 1.48847)" cx="248.871" cy="521.52" fx="248.871" fy="521.52" r="109.04"/><radialGradient xlink:href="#a" id="i" gradientUnits="userSpaceOnUse" gradientTransform="matrix(.52912 -.06057 .06994 .61102 8.845 399.415)" cx="98.752" cy="-153.309" fx="98.752" fy="-153.309" r="73.236"/><radialGradient xlink:href="#a" id="h" gradientUnits="userSpaceOnUse" gradientTransform="matrix(.80153 -.20337 .47414 1.86875 -299.845 -246.527)" cx="339.032" cy="460.053" fx="339.032" fy="460.053" r="69.626"/><radialGradient xlink:href="#a" id="g" gradientUnits="userSpaceOnUse" gradientTransform="matrix(1.16463 -.24689 .37607 1.11039 -311.808 77.798)" cx="186.123" cy="597.749" fx="186.123" fy="597.749" r="152.533"/></defs><path style="text-indent:0;text-align:start;line-height:normal;text-transform:none;block-progression:tb;marker:none;-inkscape-font-specification:Sans" d="M379.489 3.913l-95.271 40.833c-.305.318-.61.627-.912.948l97.46-41.763c-.427-.006-.85-.017-1.277-.018zm-246.257.018c-.424.005-.854.009-1.277.018L42.648 42.211c-.312.31-.621.617-.93.93l91.514-39.21zm13.933.565L32.29 53.736c-.219.273-.44.547-.656.821L148.186 4.606c-.34-.035-.68-.078-1.02-.11zm246.786.292L274.625 55.925c-.212.275-.43.544-.639.82L394.99 4.898c-.346-.042-.693-.069-1.04-.109zm-32.317.274c-.664.088-1.327.174-1.987.273L299.19 31.25c-.534.413-1.059.82-1.586 1.24l64.03-27.428zm-249.557.875c-.781.139-1.558.285-2.335.438L59.955 27.712c-.648.456-1.293.919-1.933 1.386l54.055-23.161zm47.471.328L24.794 64.005c-.169.255-.344.508-.511.765l136.14-58.34c-.291-.059-.583-.108-.875-.165zm246.348.474L267.549 66.03c-.16.25-.317.495-.474.747l139.66-59.854c-.28-.062-.558-.123-.839-.183zM170.144 8.782L19.031 73.542c-.126.23-.24.463-.365.693L170.892 9.001c-.25-.072-.498-.148-.748-.219zm246.092.602L262.078 75.457l-.365.693L416.966 9.62c-.245-.074-.484-.163-.73-.236zm-236.682 2.462L14.49 82.57c-.1.217-.194.438-.292.656l166.031-71.143c-.223-.084-.45-.155-.675-.237zm245.838.675L257.755 84.357c-.1.23-.191.462-.291.693l168.62-72.274c-.228-.09-.463-.167-.692-.255zm-237.376 2.753L10.896 91.178c-.08.212-.157.425-.236.638l177.958-76.268-.602-.274zm245.692.766L1.176 201.385v.547l433.134-185.6c-.203-.095-.4-.197-.602-.292zm-238.014 3.01L8.052 99.456c-.066.213-.136.425-.2.639L196.26 19.34c-.187-.1-.379-.192-.566-.292zm245.564.82L1.176 208.46v.566L441.823 20.18l-.565-.31zm-238.47 3.21L5.846 107.482l-.146.601 197.582-84.675c-.169-.104-.323-.225-.492-.328zm245.436.875L1.176 215.52v.547l447.56-191.764c-.174-.11-.338-.238-.512-.347zM209.3 27.365L4.186 115.27c-.036.195-.075.388-.11.583l205.716-88.158c-.161-.113-.331-.216-.493-.328zm245.345.912L1.176 222.614v.529L455.118 28.624c-.158-.114-.316-.233-.474-.347zm-239.272 3.557L3 122.856c-.024.188-.05.376-.073.565l212.901-91.223c-.153-.121-.302-.243-.456-.364zm245.254.966L1.176 229.69v.529L461.064 33.147c-.144-.117-.293-.23-.437-.347zM220.97 36.484L2.234 130.224c-.014.187-.023.377-.036.565L221.39 36.867c-.142-.125-.277-.258-.419-.383zm245.18 1.022L1.178 236.746v.566L466.57 37.87c-.138-.124-.281-.24-.42-.364zm-239.928 3.83L1.833 137.481c-.031.18-.044.366-.073.547L226.588 41.7c-.123-.12-.241-.244-.365-.365zm245.09 1.02L1.177 243.824v.547l470.5-201.63c-.124-.125-.24-.259-.364-.383zm-240.22 3.958L1.195 144.831c-.002.14-.018.279-.018.42v.127l230.262-98.68c-.116-.127-.23-.258-.346-.384zm244.998 1.058L1.176 250.88v.547l475.28-203.673c-.118-.13-.247-.253-.365-.383zm-240.494 4.067L1.177 151.889v.529L235.924 51.822c-.107-.13-.22-.255-.328-.383zm244.962 1.094L1.176 257.957v.547L480.887 52.952c-.112-.137-.215-.282-.328-.42zm-240.767 4.176L1.176 158.947v.565L240.12 57.13c-.107-.142-.221-.278-.328-.42zm244.907 1.131L1.176 265.033v.565L485.01 58.24c-.1-.135-.21-.266-.31-.401zm-241.004 4.267L1.176 166.041v.547l242.81-104.043c-.098-.145-.193-.293-.291-.438zm244.834 1.168L1.176 272.127v.51L488.802 63.676c-.09-.135-.183-.266-.273-.401zm-241.242 4.358L1.177 173.117v.53L247.56 68.07c-.09-.147-.184-.291-.274-.438zm244.761 1.186L1.176 279.185v.51L492.304 69.238c-.084-.14-.171-.28-.256-.42zm-241.46 4.486L1.176 180.193v.53l249.65-106.998c-.078-.141-.16-.28-.238-.42zm244.688 1.204L1.176 286.242v.53L495.514 74.945l-.238-.437zm-241.679 4.577L1.177 187.27v.53l252.64-108.275c-.073-.147-.148-.29-.22-.438zm244.652 1.222L1.176 293.3v.547L498.468 80.746c-.07-.147-.148-.29-.219-.438zm-241.916 4.669L1.176 194.327v.547L256.533 85.451c-.067-.158-.132-.317-.2-.474zm244.579 1.24L1.176 300.394v.548l499.936-214.25-.2-.475zm2.407 6.073L1.176 307.47v.511L503.483 92.746c-.055-.152-.108-.305-.164-.456zm2.116 6.146L1.176 314.528v.547L505.58 98.928c-.05-.163-.094-.33-.145-.492zm1.823 6.292L1.176 321.604v.547l506.192-216.95c-.041-.156-.068-.316-.11-.473zm1.532 6.401L1.176 328.662v.547L508.9 111.64l-.11-.51zm1.259 6.529L1.176 335.738v.547L510.121 118.17c-.027-.17-.044-.342-.073-.511zm.93 6.675L1.176 342.814v.529L511.034 124.88c-.02-.182-.033-.366-.054-.547zm.656 6.802L1.176 349.89v.547l510.477-218.773c-.011-.176-.006-.353-.018-.529zm.292 6.949L1.177 356.966v.51l510.768-218.864c-.003-.176-.015-.353-.018-.528zm.073 7.04L1.176 364.023v.529L512 145.688v-.437-.128zm0 7.057L1.176 371.1v.529L512 152.728v-.547zm0 7.058L3.766 377.064h1.24L512 159.804v-.565zm0 7.094L20.253 377.063h1.258L512 166.863v-.529zm0 7.076L36.757 377.064h1.24L512 173.938v-.529zm0 7.058L53.189 377.064h1.313L512 181.014v-.547zm0 7.076L69.712 377.063h1.276L512 188.09v-.547zm0 7.076L86.253 377.064h1.276L512 195.148v-.53zm0 7.076L102.72 377.064h1.277L512 202.205v-.51zm0 7.058l-392.756 168.31h1.258L512 209.283v-.53zm0 7.076L135.767 377.064h1.222l375.01-160.688v-.547zm0 7.057L152.235 377.064h1.24L512 223.415v-.529zm0 7.076L168.72 377.064h1.259L512 230.49v-.529zm0 7.077L185.244 377.064h1.277L512 237.586v-.547zm0 7.057L201.73 377.064h1.26L512 244.662v-.566zm0 7.076L218.235 377.064h1.295L512 251.738v-.566zm0 7.076L234.722 377.064h1.276L512 258.777v-.529zm0 7.076l-260.755 111.74h1.258L512 265.87v-.547zm0 7.058L267.73 377.064h1.258L512 272.929v-.547zm0 7.076l-227.764 97.606h1.24L512 280.005v-.547zm0 7.058l-211.278 90.548h1.258l210.02-90v-.548zm0 7.094l-194.755 83.454h1.258L512 294.139v-.529zm0 7.058l-178.287 76.396h1.259L512 301.197v-.529zm0 7.076l-161.764 69.32h1.24L512 308.273v-.529zm0 7.076l-145.278 62.244h1.314L512 315.367v-.547zm0 7.076l-128.755 55.168h1.277L512 322.425v-.529zm0 7.076l-112.232 48.092h1.222L512 329.5v-.529zm0 7.076l-95.745 41.016h1.222L512 336.559v-.51zm0 7.058l-79.277 33.958h1.276l78-33.43v-.528zm0 7.058l-62.754 26.9h1.222L512 350.693v-.53zm0 7.076l-46.268 19.824h1.204L512 357.75v-.51zm0 7.058l-29.8 12.766h1.277L512 364.844v-.546zm0 7.076l-13.277 5.69h1.313L512 371.939v-.565z" font-weight="400" color="#000" overflow="visible" enable-background="accumulate" font-family="Sans"/><path d="M0 374.341v10.838h511.963v-10.838H0z" style="text-indent:0;text-align:start;line-height:normal;text-transform:none;block-progression:tb;marker:none;-inkscape-font-specification:Sans" font-weight="400" color="#000" fill="#484537" overflow="visible" enable-background="accumulate" font-family="Sans"/><path d="M272.848 66.907c-12.92 32.746-.404 68.361 27.953 79.549 28.357 11.187 61.818-6.29 74.737-39.037 12.919-32.746.403-68.361-27.954-79.549-28.357-11.187-61.817 6.29-74.736 39.037z" fill="url(#e)" transform="matrix(.58359 0 0 .58359 12.675 45.834)"/><path d="M215.518 62.109c16.549 6.528 23.859 27.307 16.32 46.418-7.54 19.11-27.068 29.301-43.616 22.772-16.55-6.529-23.859-27.307-16.32-46.418 7.54-19.11 27.067-29.301 43.616-22.772zm-1.151 2.919c-15.152-5.978-33.026 3.357-39.928 20.854-6.903 17.497-.217 36.521 14.934 42.498 15.151 5.978 33.025-3.358 39.928-20.854 6.903-17.497.217-36.521-14.934-42.498z" fill="#a38520"/><path d="M339.947 54.317c13.13.155 24.364 14.632 20.366 32.708-13.981 63.228-27.93 34.26-50.728 12.134-18.249-17.71 13.1-42.847 27.668-44.692a19.66 19.66 0 0 1 2.694-.15z" fill="url(#f)" transform="matrix(.58359 0 0 .58359 12.675 45.834)"/><path d="M216.121 543.515c0 46.873-39.854 84.87-89.016 84.87-49.163 0-89.017-37.997-89.017-84.87 0-46.873 39.854-84.871 89.017-84.871 49.162 0 89.016 37.998 89.016 84.87z" fill="url(#g)" transform="translate(10.464 -224.415)"/><path d="M165.24 594.67c11.113-34.27 24.644-66.193 5.82-124.972a216.32 216.32 0 0 0-9.874-25.25c27.996 3.438 59.143 37.4 73.66 82.728 16.522 51.59 5.235 98.357-25.206 104.459-19.732 3.955-52.776-11.138-44.4-36.966z" fill="url(#h)" transform="translate(10.464 -224.415)"/><path d="M82.607 309.135c7.54 19.11.236 39.895-16.313 46.424-16.549 6.528-36.076-3.671-43.616-22.782-7.539-19.11-.235-39.895 16.314-46.424 16.549-6.528 36.076 3.671 43.615 22.782z" fill="url(#i)" transform="translate(10.464 -224.415)"/><path d="M49.459 61.948c-16.55 6.53-23.859 27.308-16.32 46.418 7.54 19.11 27.067 29.302 43.616 22.773 16.55-6.529 23.859-27.308 16.32-46.418-7.54-19.11-27.067-29.301-43.616-22.773zm1.151 2.92c15.152-5.978 33.026 3.357 39.928 20.854 6.903 17.496.217 36.52-14.934 42.498-15.151 5.977-33.025-3.358-39.928-20.854-6.903-17.497-.217-36.521 14.934-42.499z" fill="#a38520"/><path d="M213.17 243.153c-2.137 1.647-1.49 4.627.702 5.949 21.147 26.349 33.589 59.466 34.083 92.935-.08 17.388-3.6 36.45-17.202 48.8-5.955 5.355-14.285 8.81-22.449 6.883-13.165-1.394-27.537-7.594-32.72-20.317-2.215-2.119-3.076 1.64-2.164 3.285 1.212 11.787 8.37 24.328 20.927 27.24 14.615 3.56 31.886.822 41.993-10.733 13.625-14.987 16.543-36.231 16.027-55.683-1.115-31.103-12.029-61.518-29.197-87.563-2.796-4.178-5.82-8.209-8.978-12.138l-1.021 1.342z" fill="#a58722"/><path d="M289.166 413.95c-21.342-5.719-43.29 6.952-49.008 28.294-3.645 30.284 17.225 46.759 32.405 70.885l19.028 33.558 33.258-19.548c22.523-12.477 56.74-21.952 63.506-45.185 5.718-21.342-6.953-43.29-28.295-49.008-15.87-4.252-32.061 1.662-41.676 13.748-2.284-15.274-13.349-28.492-29.218-32.744z" transform="matrix(.58359 0 0 .58359 6.106 47.257)" opacity=".502" fill="url(#j)" filter="url(#k)"/><path d="M921.703 412.71c-21.342-5.72-43.289 6.952-49.007 28.294-3.645 30.284 17.225 46.758 32.405 70.885l19.028 33.557 33.258-19.547c22.523-12.477 56.74-21.953 63.505-45.186 5.719-21.342-6.952-43.289-28.294-49.007-15.87-4.253-32.061 1.662-41.676 13.748-2.284-15.275-13.35-28.492-29.219-32.745z" fill="url(#l)" transform="matrix(.58359 0 0 .58359 -367.47 49.446)"/><path transform="matrix(.58359 0 0 .58359 -490.595 -63.528)" d="M1122.688 604.938c-17.82-.177-34.176 11.648-39 29.656-3.646 30.284 17.226 46.748 32.406 70.875l18.875 33.312c-.764-31.246 5.097-78.655 26.781-100.531-2.543-14.936-13.47-27.79-29.063-31.969a40.145 40.145 0 0 0-10-1.343zm50.343 24.468a40.115 40.115 0 0 0-5.875 4.188 39.197 39.197 0 0 1 3.094-2.032c1.116-.66 2.033-1.381 2.781-2.156z" opacity=".223" fill="url(#m)"/><path transform="matrix(.58359 0 0 .58359 -490.595 -63.528)" d="M1193.188 623.906c-7.192.002-14.132 1.974-20.157 5.5-.748.775-1.665 1.496-2.781 2.157a39.215 39.215 0 0 0-3.031 2c-.017.014-.045.016-.063.03a40.02 40.02 0 0 0-5.25 5.438c-.04-.262-.112-.52-.156-.781-21.684 21.876-27.546 69.285-26.782 100.531l.094.188c.062-.007.126-.024.188-.032l33.125-19.468c22.523-12.477 56.735-21.923 63.5-45.157 5.719-21.341-6.97-43.312-28.313-49.03a39.953 39.953 0 0 0-10.375-1.376zm-34.157 5.125l-.03.031c.152.353.325.706.468 1.063-.146-.365-.281-.733-.438-1.094zm.438 1.094zm.937 2.625zm.781 2.75c.11.448.22.891.313 1.344-.094-.45-.203-.898-.313-1.344z" opacity=".274" fill="url(#n)"/><path d="M217.37 303.598c9.059 5.111 13.88 15.885 11.064 26.394-6.994 16.369-22.347 18.6-37.059 26.364l-19.411 11.41-1.819-3.198 16.736-9.838c13.145-6.937 26.875-8.936 33.124-23.561 2.982-11.128-3.637-22.58-14.766-25.562-5.852-1.568-11.785-.477-16.533 2.521 5.695-6.182 14.543-9.07 23.225-6.744a23.32 23.32 0 0 1 5.44 2.214zm-41.159-10.96c6.052 3.497 10.156 9.527 11.31 16.302a20.799 20.799 0 0 0-4.005 3.836c-1.19-7.964-6.968-14.859-15.242-17.076-11.128-2.982-22.58 3.638-25.562 14.766-.646 2.64-.55 5.319.066 8.02-1.313-3.93-1.757-7.847-.819-11.676 3.338-12.455 16.137-19.85 28.592-16.513a23.452 23.452 0 0 1 5.66 2.342z" fill="maroon"/><path d="M481.25 626.406c-9.575 0-17.344 4.165-17.344 9.282 0 5.116 7.77 9.25 17.344 9.25 9.574 0 17.313-4.134 17.313-9.25 0-5.117-7.739-9.282-17.313-9.282zm72.188 14.938c-12.91 0-23.375 3.77-23.375 8.406 0 4.636 10.464 8.406 23.375 8.406 12.91 0 23.375-3.77 23.375-8.406 0-4.636-10.465-8.406-23.375-8.406z" transform="matrix(.58359 0 0 .58359 -117.019 -65.717)" fill="#ffd5d5" filter="url(#o)"/><path d="M207.598 247.03c-4.056 3.214-9.107 5.206-13.843 6.267-20.994 4.088-42.456 9.34-60.403 22.595-1.233 1.599-4.245 3.092-5.139.328-14.516-10.521-31.788-15.504-48.658-19.74-6.945-2.187-14.452-2.33-21.063-5.693a17.761 17.761 0 0 1-2.532-1.559c5.493 11.843 16.016 21.885 27.55 28.665 25.687 15.065 59.659 16.265 87.01 4.43 15.892-7.224 30.832-19.584 37.078-35.294z" fill="#a38520"/><path d="M113.103 559.168c-8.548.074-15.639 2.115-19.915 6.255-7.004 7.004-4.266 19.27 4.431 27.703a32.4 32.4 0 0 0 3.63 3.027c11.843.284 24.43 3.538 35.89 8.535 14.143 6.446 27.483 15.95 38.845 27.392L211 619.955c11.18-23.346-79.166-60.949-97.897-60.787z" fill="url(#p)" transform="translate(10.464 -224.415)"/><path d="M114.473 359.053c8.187 26.547 24.446 44.636 43.183 44.636 6.03 0 33.109 1.078 45.346 1.575-5.182-27.582-44.639-39.773-88.529-46.21z" fill="#a58722"/><path d="M123.42 333.167c-6.074.142-11.761 1.467-16.65 4.395-4.93 2.952-10.123 6.936-9.83 13.04-.061 6.837 3.88 12.826 8.59 17.489.314.31.647.631.966.93 1.743 1.81 5.098 1.379 6.894 1.514-7.815-6.123-15.88-18.327-9.41-27.1 15.387-20.87 64.853 7.243 80.334 20.516.305.42.59.744.84.948.334.274.622.369.875.329v-9.064c-.124.396-.238.79-.365 1.185-.23-.165-.52-.3-.876-.438-13.02-9.742-39.672-24.251-61.368-23.744zm4.395 40.213l.548.164.437.091c21.916 6.08 41.185 19.02 57.229 34.87v-.438c-3.963-3.857-7.524-8.166-12.037-11.453-13.295-11.128-28.999-19.776-46.177-23.234z" fill="#a58722"/><path d="M82.691 445c-27.974 2.986-59.617 35.002-74.871 78.011C-8.94 570.266.213 613.5 28.079 621.948c47.653 20.64 167.146 48.18 164.615 15.073-2.795-36.557-61.97-48.064-118.15-53.667-10.14-31.052-20.99-61.289-2.146-114.42A202.135 202.135 0 0 1 82.691 445z" fill="url(#q)" transform="translate(10.464 -224.415)"/><path d="M120.053 316.153c-34.994-.358-71.762 19.462-81.386 51.269-4.554 13.993.524 28.953-4.896 42.854-2.903 10.76-10.996 20.402-9.434 31.954-2.28 24.523 16.521 46.164 38.216 58.587 31.27 17.864 72.636 19.291 105.932 5.257 23.811-10.543 45.85-30.315 48.586-55.36.362-9.416.725-19.247-4.396-27.766-6.684-13.16-8.957-27.757-7.672-42.146-.743-29.43-27.359-53.637-57.354-61.204-8.94-2.404-18.279-3.536-27.596-3.445z" fill="url(#r)" transform="translate(10.464 -224.415)"/><path d="M128.88 91.738c-34.496.266-70.279 19.955-79.752 51.265-4.554 13.993.532 28.956-4.888 42.857-2.902 10.76-11.008 20.4-9.446 31.951-2.28 24.524 16.53 46.174 38.225 58.597 31.27 17.864 72.625 19.286 105.921 5.252 23.812-10.544 45.867-30.324 48.602-55.368.362-9.417.726-19.239-4.395-27.757-6.684-13.16-8.963-27.757-7.678-42.146-.743-29.43-27.36-53.637-57.356-61.204-8.94-2.404-18.275-3.538-27.592-3.447a89.803 89.803 0 0 0-1.642 0zm1.659 3.647c8.976-.087 17.977 1.004 26.59 3.32 28.896 7.29 54.542 30.608 55.258 58.96-1.238 13.862.947 27.937 7.386 40.614 4.934 8.207 4.58 17.665 4.231 26.736-2.635 24.127-23.875 43.187-46.815 53.344-32.076 13.52-71.912 12.14-102.037-5.07-20.9-11.968-39.016-32.82-36.82-56.444-1.504-11.13 6.285-20.419 9.082-30.784 5.22-13.392.336-27.808 4.723-41.29 9.271-30.641 44.69-49.731 78.402-49.386z" fill="#a38520"/><path d="M120.283 330.808c-22.177-.274-45.482 14.833-51.58 39.074-2.887 10.665.336 22.059-3.098 32.653-1.768 7.884-6.578 14.982-6.068 23.341 1.587 4.94 4.584 9.155 8.784 10.366 17.779 5.056 36.358 9.192 51.87 22.095 10.137-9.04 22.127-13.975 34.094-17.736 7.107-2.767 14.945-2.395 21.555-7.029 2.732-1.705 4.745-4.626 6.01-8.052-.143-4.62-.794-9.17-2.867-13.316-4.235-10.03-5.68-21.154-4.865-32.12-.471-22.43-17.34-40.885-36.348-46.652-5.666-1.831-11.582-2.694-17.487-2.625z" fill="url(#s)" transform="translate(10.464 -224.415)"/><path d="M133.858 159.333c-1.915 0-3.81.012-5.708.036h-3.283c-16.201.025-33.92 3.164-45.63 15.338-7.432 7.648-10.5 18.56-10.14 29.033-.029.412-.08.805-.163 1.204 14.26-4.977 33.65-8.34 55.422-9.01 27.924-.858 53.44 2.896 70.05 9.393a19.717 19.717 0 0 1-.457-5.89c-.238-13.769-8.589-26.837-20.972-32.864-12.042-6.365-25.717-7.247-39.12-7.24z" fill="#fce8a2"/><path d="M128.876 245.702c-14.954.47-31.724 4.022-40.307 13.967-5.765 6.656-2.209 15.681 5.745 20.344 15.124 9.28 36.662 10.687 55.107 7.119 11.603-2.434 24.514-7.888 26.954-17.582 1.943-8.763-7.675-16.041-17.444-19.392-9.282-3.364-19.75-4.676-30.055-4.456z" fill="#a38520"/><path d="M43.449 301.787c-7.663.09-14.219 8.54-11.886 19.089 8.16 36.899 16.3 19.993 29.605 7.08 10.65-10.335-7.646-25.004-16.147-26.081a11.481 11.481 0 0 0-1.572-.088z" fill="url(#t)" transform="translate(10.464 -224.415)"/><path d="M74.917 346.601c-4.857 15.801 30.657 17.676 39.58 16.237 68.588-12.69 62.388 36.625 61.39-2.258-.786-30.671-88.769-53.676-100.97-13.979z" fill="url(#u)" transform="translate(10.464 -224.415)"/><path d="M162.153 488.828c0 11-18.56 19.918-41.455 19.918-22.896 0-41.456-8.918-41.456-19.918s18.56-19.918 41.456-19.918c22.895 0 41.455 8.917 41.455 19.918z" fill="url(#v)" transform="translate(10.464 -224.415)"/><path d="M132.651 200.71c-22.965.383-46.681 1.812-67.466 8.256-2.29.703-1.15 2.944 1.454 2.412 29.391-6.497 61.331-7.466 92.289-5.853 15.274.833 30.25 2.927 44.554 6.315 2.236.356 2.7-1.477 1.032-2.098-4.697-2.319-10.726-3.445-16.3-4.72-17.897-3.426-36.887-4.347-55.563-4.313z" fill="#a38520"/><path transform="matrix(.73132 0 0 .55964 -18.376 143.208)" d="M179.807 74.535c0 13.947-11.306 25.253-25.254 25.253-13.947 0-25.253-11.306-25.253-25.253 0-13.948 11.306-25.254 25.253-25.254 13.948 0 25.254 11.306 25.254 25.254z" fill="url(#w)" filter="url(#x)"/><path d="M98.927 409.335c0 6.228-6.598 11.278-14.738 11.278s-14.738-5.05-14.738-11.278c0-6.23 6.599-11.278 14.738-11.278 8.14 0 14.738 5.049 14.738 11.278z" fill="url(#y)" transform="translate(10.464 -224.415)"/><path transform="matrix(.73132 0 0 .55964 54.486 143.208)" d="M179.807 74.535c0 13.947-11.306 25.253-25.254 25.253-13.947 0-25.253-11.306-25.253-25.253 0-13.948 11.306-25.254 25.253-25.254 13.948 0 25.254 11.306 25.254 25.254z" fill="url(#z)" filter="url(#A)"/><path d="M171.789 409.335c0 6.228-6.599 11.278-14.738 11.278-8.14 0-14.738-5.05-14.738-11.278 0-6.23 6.598-11.278 14.738-11.278s14.738 5.049 14.738 11.278z" fill="url(#B)" transform="translate(10.464 -224.415)"/><path d="M93.097 402.988c0 2.26-2.508 4.093-5.601 4.093s-5.6-1.832-5.6-4.093c0-2.26 2.507-4.093 5.6-4.093 3.093 0 5.6 1.833 5.6 4.093z" fill="url(#C)" transform="translate(10.464 -224.415)"/><path d="M166.796 402.968c0 2.436-2.814 4.41-6.287 4.41-3.472 0-6.286-1.974-6.286-4.41s2.814-4.41 6.286-4.41c3.473 0 6.287 1.974 6.287 4.41z" fill="url(#D)" transform="translate(10.464 -224.415)"/><path d="M127.982 469.46c-1.854.03-3.75.156-5.674.393-15.4 1.903-26.603 9.984-25.016 18.023 1.586 8.038 15.332 13.01 30.731 11.108 15.4-1.903 26.603-9.984 25.016-18.022-1.388-7.034-12.084-11.714-25.057-11.502z" fill="url(#E)" transform="translate(10.464 -224.415)"/><path d="M73.552 580.34c-10.27 3.5-20.808 12.481-29.252 24.874 9.222-10.691 20.29-18.459 31.149-21.773-.302-.029-.611-.056-.912-.086l-.985-3.016z" fill="url(#F)" transform="translate(10.464 -224.415)"/><path d="M44.788 251.46c-10.74 12.867-20.074 29.028-26.5 47.142C1.53 345.857 10.685 389.09 38.55 397.54c47.653 20.64 167.14 48.172 164.61 15.064-.874-11.424-7.253-20.404-17.326-27.52 7.651 6.359 12.417 14.133 13.149 23.708 2.422 31.68-111.917 5.324-157.515-14.425-26.664-8.085-35.423-49.453-19.386-94.67 6.118-17.248 14.988-32.638 25.204-44.918a70.918 70.918 0 0 1-2.498-3.319z" fill="#a58722"/><path d="M73.31 276.572c-3.912 33.815 3.774 57.88 11.089 82.414 54.829 5.989 112.586 18.278 115.313 57.355.16 2.282-.187 4.293-.966 6.055 3.123-2.549 4.726-5.986 4.413-10.468-2.727-39.077-60.484-51.385-115.314-57.374-6.873-23.055-14.075-45.706-11.671-76.414a101.677 101.677 0 0 1-2.864-1.568z" fill="#a58722"/><path d="M170.24 580.287c1.463 2.15 2.93 4.302 4.395 6.456.168.024.337.04.51.054 5.165 1.444 9.424 4.656 14.17 6.876 1.666.544 2.24-1.623 1.04-2.444-3.324-3.312-7.56-5.722-11.69-8.024a29.64 29.64 0 0 0-8.425-2.918z" fill="url(#G)" transform="translate(10.464 -224.415)"/><path d="M272.848 66.907c-12.92 32.746-.404 68.361 27.953 79.549 28.357 11.187 61.818-6.29 74.737-39.037 12.919-32.746.403-68.361-27.954-79.549-28.357-11.187-61.817 6.29-74.736 39.037z" fill="url(#H)" transform="matrix(.58359 0 0 .58359 259.246 45.834)"/><path d="M462.09 62.109c16.548 6.528 23.858 27.307 16.319 46.418-7.54 19.11-27.067 29.301-43.616 22.772-16.55-6.529-23.859-27.307-16.32-46.418 7.54-19.11 27.067-29.301 43.616-22.772zm-1.152 2.919c-15.152-5.978-33.025 3.357-39.928 20.854-6.903 17.497-.217 36.521 14.934 42.498 15.152 5.978 33.025-3.358 39.928-20.854 6.903-17.497.217-36.521-14.934-42.498z" fill="#a38520"/><path d="M339.947 54.317c13.13.155 24.364 14.632 20.366 32.708-13.981 63.228-27.93 34.26-50.728 12.134-18.249-17.71 13.1-42.847 27.668-44.692a19.66 19.66 0 0 1 2.694-.15z" fill="url(#I)" transform="matrix(.58359 0 0 .58359 259.246 45.834)"/><path d="M452.995 543.515c0 46.873-35.793 84.87-79.947 84.87s-79.948-37.997-79.948-84.87c0-46.873 35.794-84.871 79.948-84.871 44.154 0 79.947 37.998 79.947 84.87z" fill="url(#J)" transform="translate(10.464 -224.415)"/><path d="M407.298 594.67c9.98-34.27 22.133-66.193 5.227-124.972a231.607 231.607 0 0 0-8.868-25.25c25.144 3.438 53.117 37.4 66.155 82.728 14.84 51.59 4.702 98.357-22.638 104.459-17.721 3.955-47.398-11.138-39.876-36.966z" fill="url(#K)" transform="translate(10.464 -224.415)"/><path d="M329.178 309.135c7.54 19.11.236 39.895-16.313 46.424-16.549 6.528-36.076-3.671-43.615-22.782-7.54-19.11-.236-39.895 16.313-46.424 16.549-6.528 36.076 3.671 43.615 22.782z" fill="url(#L)" transform="translate(10.464 -224.415)"/><path d="M296.03 61.948c-16.549 6.53-23.859 27.308-16.32 46.418 7.54 19.11 27.068 29.302 43.617 22.773 16.548-6.529 23.858-27.308 16.319-46.418-7.54-19.11-27.067-29.301-43.616-22.773zm1.151 2.92c15.152-5.978 33.026 3.357 39.928 20.854 6.903 17.496.217 36.52-14.934 42.498-15.151 5.977-33.025-3.358-39.928-20.854-6.902-17.497-.217-36.521 14.934-42.499z" fill="#a38520"/><path d="M451.411 243.153c-1.92 1.647-1.338 4.627.63 5.949 18.993 26.349 30.167 59.466 30.61 92.935-.07 17.388-3.232 36.45-15.449 48.8-5.348 5.355-12.83 8.81-20.161 6.883-11.824-1.394-24.732-7.594-29.388-20.317-1.988-2.119-2.762 1.64-1.942 3.285 1.088 11.787 7.518 24.328 18.794 27.24 13.127 3.56 28.638.822 37.715-10.733 12.237-14.987 14.858-36.231 14.394-55.683-1.001-31.103-10.803-61.518-26.222-87.563-2.511-4.178-5.228-8.209-8.063-12.138l-.918 1.342z" fill="#a58722"/><path d="M711.673 413.95c-21.342-5.719-43.289 6.952-49.007 28.294-3.645 30.284 17.225 46.759 32.405 70.885l19.028 33.558 33.258-19.548c22.523-12.477 56.74-21.952 63.505-45.185 5.72-21.342-6.952-43.29-28.294-49.008-15.87-4.252-32.061 1.662-41.676 13.748-2.284-15.274-13.35-28.492-29.219-32.744z" opacity=".502" fill="url(#M)" filter="url(#k)" transform="matrix(.58359 0 0 .58359 6.106 47.257)"/><path d="M921.703 412.71c-21.342-5.72-43.289 6.952-49.007 28.294-3.645 30.284 17.225 46.758 32.405 70.885l19.028 33.557 33.258-19.547c22.523-12.477 56.74-21.953 63.505-45.186 5.719-21.342-6.952-43.289-28.294-49.007-15.87-4.253-32.061 1.662-41.676 13.748-2.284-15.275-13.35-28.492-29.219-32.745z" fill="url(#N)" transform="matrix(.58359 0 0 .58359 -120.899 49.446)"/><path transform="matrix(.58359 0 0 .58359 -244.024 -63.528)" d="M1122.688 604.938c-17.82-.177-34.176 11.648-39 29.656-3.646 30.284 17.226 46.748 32.406 70.875l18.875 33.312c-.764-31.246 5.097-78.655 26.781-100.531-2.543-14.936-13.47-27.79-29.063-31.969a40.145 40.145 0 0 0-10-1.343zm50.343 24.468a40.115 40.115 0 0 0-5.875 4.188 39.197 39.197 0 0 1 3.094-2.032c1.116-.66 2.033-1.381 2.781-2.156z" opacity=".223" fill="url(#O)"/><path transform="matrix(.58359 0 0 .58359 -244.024 -63.528)" d="M1193.188 623.906c-7.192.002-14.132 1.974-20.157 5.5-.748.775-1.665 1.496-2.781 2.157a39.215 39.215 0 0 0-3.031 2c-.017.014-.045.016-.063.03a40.02 40.02 0 0 0-5.25 5.438c-.04-.262-.112-.52-.156-.781-21.684 21.876-27.546 69.285-26.782 100.531l.094.188c.062-.007.126-.024.188-.032l33.125-19.468c22.523-12.477 56.735-21.923 63.5-45.157 5.719-21.341-6.97-43.312-28.313-49.03a39.953 39.953 0 0 0-10.375-1.376zm-34.157 5.125l-.03.031c.152.353.325.706.468 1.063-.146-.365-.281-.733-.438-1.094zm.438 1.094zm.937 2.625zm.781 2.75c.11.448.22.891.313 1.344-.094-.45-.203-.898-.313-1.344z" opacity=".274" fill="url(#P)"/><path d="M463.942 303.598c9.058 5.111 13.88 15.885 11.064 26.394-6.995 16.369-22.348 18.6-37.06 26.364l-19.411 11.41-1.818-3.198 16.735-9.838c13.145-6.937 26.875-8.936 33.124-23.561 2.982-11.128-3.637-22.58-14.765-25.562-5.853-1.568-11.786-.477-16.534 2.521 5.696-6.182 14.543-9.07 23.225-6.744a23.32 23.32 0 0 1 5.44 2.214zm-41.16-10.96c6.052 3.497 10.156 9.527 11.31 16.302a20.799 20.799 0 0 0-4.004 3.836c-1.191-7.964-6.968-14.859-15.243-17.076-11.128-2.982-22.58 3.638-25.562 14.766-.646 2.64-.55 5.319.067 8.02-1.314-3.93-1.757-7.847-.82-11.677 3.338-12.454 16.137-19.85 28.592-16.512a23.452 23.452 0 0 1 5.66 2.342z" fill="maroon"/><path d="M481.25 626.406c-9.575 0-17.344 4.165-17.344 9.282 0 5.116 7.77 9.25 17.344 9.25 9.574 0 17.313-4.134 17.313-9.25 0-5.117-7.739-9.282-17.313-9.282zm72.188 14.938c-12.91 0-23.375 3.77-23.375 8.406 0 4.636 10.464 8.406 23.375 8.406 12.91 0 23.375-3.77 23.375-8.406 0-4.636-10.465-8.406-23.375-8.406z" transform="matrix(.58359 0 0 .58359 129.553 -65.717)" fill="#ffd5d5" filter="url(#o)"/><path d="M424.318 247.03c-2.461 3.214-5.526 5.206-8.4 6.267-12.739 4.088-25.762 9.34-36.652 22.595-.748 1.599-2.575 3.092-3.118.328-8.808-10.521-19.288-15.504-29.525-19.74-4.214-2.187-8.77-2.33-12.78-5.693-.54-.445-1.052-.974-1.537-1.559 3.333 11.843 9.719 21.885 16.717 28.665 15.586 15.065 36.2 16.265 52.796 4.43 9.644-7.224 18.709-19.584 22.499-35.294z" fill="#a38520"/><path d="M360.472 559.168c-7.677.074-14.045 2.115-17.886 6.255-6.29 7.004-3.831 19.27 3.98 27.703a30.086 30.086 0 0 0 3.26 3.027c10.637.284 21.942 3.538 32.234 8.535 12.702 6.446 24.683 15.95 34.888 27.392l31.448-12.125c10.04-23.346-71.1-60.949-87.924-60.787z" fill="url(#Q)" transform="translate(10.464 -224.415)"/><path d="M362.77 359.053c7.352 26.547 21.955 44.636 38.783 44.636 5.416 0 29.735 1.078 40.725 1.575-4.653-27.582-40.09-39.773-79.509-46.21z" fill="#a58722"/><path d="M370.805 333.167c-5.456.142-10.563 1.467-14.954 4.395-4.427 2.952-9.092 6.936-8.829 13.04-.054 6.837 3.485 12.826 7.715 17.489.282.31.581.631.868.93 1.565 1.81 4.578 1.379 6.191 1.514-7.019-6.123-14.262-18.327-8.451-27.1 13.82-20.87 58.246 7.243 72.15 20.516.273.42.53.744.753.948.3.274.56.369.787.329v-9.064c-.111.396-.214.79-.328 1.185-.207-.165-.467-.3-.786-.438-11.694-9.742-35.631-24.251-55.116-23.744zm3.947 40.213l.492.164.393.091c19.683 6.08 36.989 19.02 51.398 34.87v-.438c-3.56-3.857-6.757-8.166-10.81-11.453-11.942-11.128-26.045-19.776-41.473-23.234z" fill="#a58722"/><path d="M333.16 445c-25.125 2.986-53.544 35.002-67.244 78.011-15.052 47.255-6.832 90.489 18.195 98.937 42.798 20.64 150.117 48.18 147.844 15.073-2.51-36.557-55.656-48.064-106.113-53.667-9.107-31.052-18.852-61.289-1.927-114.42A214.91 214.91 0 0 1 333.159 445z" fill="url(#R)" transform="translate(10.464 -224.415)"/><path d="M300.183 251.46c-9.644 12.867-18.029 29.028-23.799 47.142-15.052 47.255-6.83 90.488 18.198 98.937 42.798 20.64 150.111 48.172 147.838 15.064-.785-11.424-6.513-20.404-15.56-27.52 6.871 6.359 11.152 14.133 11.809 23.708 2.175 31.68-100.515 5.324-141.467-14.425-23.948-8.085-31.814-49.453-17.41-94.67 5.494-17.248 13.46-32.638 22.635-44.918a70.822 70.822 0 0 1-2.244-3.319z" fill="#a58722"/><path d="M366.624 316.153c-34.994-.358-71.762 19.462-81.386 51.269-4.553 13.993.524 28.953-4.896 42.854-2.902 10.76-10.995 20.402-9.434 31.954-2.28 24.523 16.522 46.164 38.216 58.587 31.27 17.864 72.636 19.291 105.932 5.257 23.811-10.543 45.85-30.315 48.586-55.36.362-9.416.725-19.247-4.396-27.766-6.684-13.16-8.957-27.757-7.672-42.146-.743-29.43-27.359-53.637-57.354-61.204-8.94-2.404-18.278-3.536-27.596-3.445z" fill="url(#S)" transform="translate(10.464 -224.415)"/><path d="M375.45 91.738c-34.495.266-70.278 19.955-79.75 51.265-4.555 13.993.531 28.956-4.888 42.857-2.903 10.76-11.008 20.4-9.447 31.951-2.28 24.524 16.53 46.174 38.225 58.597 31.27 17.864 72.625 19.286 105.921 5.252 23.812-10.544 45.867-30.324 48.602-55.368.362-9.417.726-19.239-4.395-27.757-6.683-13.16-8.963-27.757-7.678-42.146-.743-29.43-27.36-53.637-57.355-61.204-8.94-2.404-18.276-3.538-27.593-3.447a89.802 89.802 0 0 0-1.642 0zm1.66 3.647c8.976-.087 17.977 1.004 26.59 3.32 28.896 7.29 54.542 30.608 55.258 58.96-1.238 13.862.947 27.937 7.386 40.614 4.934 8.207 4.58 17.665 4.231 26.736-2.635 24.127-23.875 43.187-46.814 53.344-32.077 13.52-71.913 12.14-102.037-5.07-20.9-11.968-39.017-32.82-36.821-56.444-1.504-11.13 6.286-20.419 9.082-30.784 5.22-13.392.336-27.808 4.723-41.29 9.271-30.641 44.69-49.731 78.402-49.386z" fill="#a38520"/><path d="M366.854 330.808c-22.177-.274-45.482 14.833-51.58 39.074-2.886 10.665.337 22.059-3.098 32.653-1.768 7.884-6.578 14.982-6.067 23.341 1.586 4.94 4.583 9.155 8.783 10.366 17.779 5.056 36.358 9.192 51.87 22.095 10.137-9.04 22.127-13.975 34.094-17.736 7.107-2.767 14.945-2.395 21.555-7.029 2.732-1.705 4.745-4.626 6.01-8.052-.143-4.62-.794-9.17-2.867-13.316-4.235-10.03-5.68-21.154-4.865-32.12-.471-22.43-17.34-40.885-36.348-46.652-5.666-1.831-11.582-2.694-17.487-2.625z" fill="url(#T)" transform="translate(10.464 -224.415)"/><path d="M380.43 159.333c-1.916 0-3.811.012-5.71.036h-3.282c-16.2.025-33.92 3.164-45.63 15.338-7.432 7.648-10.5 18.56-10.14 29.033-.028.412-.08.805-.163 1.204 14.26-4.977 33.65-8.34 55.423-9.01 27.924-.858 53.44 2.896 70.049 9.393a19.72 19.72 0 0 1-.456-5.89c-.239-13.769-8.59-26.837-20.973-32.864-12.042-6.365-25.716-7.247-39.119-7.24z" fill="#fce8a2"/><path d="M376.55 245.702c-9.073.47-19.25 4.022-24.457 13.967-3.498 6.656-1.34 15.681 3.486 20.344 9.177 9.28 22.246 10.687 33.438 7.119 7.04-2.434 14.875-7.888 16.355-17.582 1.179-8.763-4.657-16.041-10.585-19.392-5.632-3.364-11.983-4.676-18.237-4.456z" fill="#a38520"/><path d="M290.02 301.787c-7.663.09-14.218 8.54-11.886 19.089 8.16 36.899 16.3 19.993 29.605 7.08 10.65-10.335-7.646-25.004-16.147-26.081a11.48 11.48 0 0 0-1.572-.088z" fill="url(#U)" transform="translate(10.464 -224.415)"/><path d="M321.488 346.601c-4.857 15.801 30.657 17.676 39.58 16.237 68.588-12.69 62.389 36.625 61.391-2.258-.787-30.671-88.77-53.676-100.97-13.979z" fill="url(#V)" transform="translate(10.464 -224.415)"/><path d="M392.628 488.828c0 11-11.262 19.918-25.154 19.918-13.893 0-25.155-8.918-25.155-19.918s11.262-19.918 25.155-19.918c13.892 0 25.154 8.917 25.154 19.918z" fill="url(#W)" transform="translate(10.464 -224.415)"/><path d="M379.552 200.71c-19.331.383-39.294 1.812-56.79 8.256-1.928.703-.968 2.944 1.223 2.412 24.74-6.497 51.626-7.466 77.685-5.853 12.857.833 25.464 2.927 37.505 6.315 1.881.356 2.272-1.477.868-2.098-3.954-2.319-9.029-3.445-13.721-4.72-15.065-3.426-31.05-4.347-46.77-4.313z" fill="#a38520"/><path d="M179.807 74.535c0 13.947-11.306 25.253-25.254 25.253-13.947 0-25.253-11.306-25.253-25.253 0-13.948 11.306-25.254 25.253-25.254 13.948 0 25.254 11.306 25.254 25.254z" transform="matrix(.73132 0 0 .55964 231.697 143.208)" fill="url(#X)" filter="url(#x)"/><path d="M349 409.335c0 6.228-6.599 11.278-14.738 11.278-8.14 0-14.738-5.05-14.738-11.278 0-6.23 6.598-11.278 14.738-11.278S349 403.106 349 409.335z" fill="url(#Y)" transform="translate(10.464 -224.415)"/><path d="M179.807 74.535c0 13.947-11.306 25.253-25.254 25.253-13.947 0-25.253-11.306-25.253-25.253 0-13.948 11.306-25.254 25.253-25.254 13.948 0 25.254 11.306 25.254 25.254z" transform="matrix(.73132 0 0 .55964 297.555 143.208)" fill="url(#Z)" filter="url(#A)"/><path d="M414.858 409.335c0 6.228-6.598 11.278-14.738 11.278s-14.738-5.05-14.738-11.278c0-6.23 6.599-11.278 14.738-11.278 8.14 0 14.738 5.049 14.738 11.278z" fill="url(#aa)" transform="translate(10.464 -224.415)"/><path d="M343.17 402.988c0 2.26-2.508 4.093-5.601 4.093s-5.6-1.832-5.6-4.093c0-2.26 2.507-4.093 5.6-4.093 3.093 0 5.6 1.833 5.6 4.093z" fill="url(#ab)" transform="translate(10.464 -224.415)"/><path d="M409.866 402.968c0 2.436-2.815 4.41-6.287 4.41s-6.287-1.974-6.287-4.41 2.815-4.41 6.287-4.41 6.287 1.974 6.287 4.41z" fill="url(#ac)" transform="translate(10.464 -224.415)"/><path d="M371.893 469.46c-1.124.03-2.275.156-3.443.393-9.343 1.903-16.142 9.984-15.179 18.023.963 8.038 9.304 13.01 18.648 11.108 9.343-1.903 16.142-9.984 15.179-18.022-.843-7.034-7.333-11.714-15.205-11.502z" fill="url(#ad)" transform="translate(10.464 -224.415)"/><path d="M324.951 580.34c-9.224 3.5-18.688 12.481-26.272 24.874 8.283-10.691 18.224-18.459 27.976-21.773-.271-.029-.55-.056-.82-.086-.295-1.007-.588-2.01-.884-3.016z" fill="url(#ae)" transform="translate(10.464 -224.415)"/><path d="M325.8 276.572c-3.514 33.815-.78 58.297 5.79 82.83 49.244 5.99 105.284 17.862 107.734 56.94.143 2.28-.168 4.292-.868 6.054 2.805-2.549 4.245-5.986 3.964-10.468-2.45-39.077-58.49-50.968-107.734-56.957-6.173-23.055-8.473-46.123-6.314-76.83a88.922 88.922 0 0 1-2.572-1.57z" fill="#a58722"/><path d="M411.788 580.287c1.314 2.15 2.632 4.302 3.948 6.456.15.024.303.04.458.054 4.639 1.444 8.464 4.656 12.727 6.876 1.495.544 2.01-1.623.933-2.444-2.985-3.312-6.79-5.722-10.499-8.024a24.86 24.86 0 0 0-7.567-2.918z" fill="url(#af)" transform="translate(10.464 -224.415)"/><g transform="rotate(45 155.842 256.19) scale(.19016)"><path d="M1337.758-293.508c231.467 0 246.477-111.375 246.477-81.335V-86.18c0 30.04-15.01-98.28-246.477-98.28s-246.477 128.32-246.477 98.28v-288.664c0-30.04 15.01 81.335 246.477 81.335z" fill="url(#ag)"/><path transform="matrix(1 0 0 1.05142 0 6.352)" d="M1337.758-270.938c206.022 0 237.183-50.785 237.183-50.785v180.24s-31.161-61.365-237.183-61.365c-206.021 0-237.183 61.365-237.183 61.365v-180.24s31.162 50.785 237.183 50.785z" fill="url(#ah)" filter="url(#ai)"/><path d="M1337.758-289.489c231.467 0 266.477-56.477 266.477-56.477v200.443s-35.01-68.244-266.477-68.244c-231.467 0-266.477 68.244-266.477 68.244v-200.443s35.01 56.477 266.477 56.477z" fill="url(#aj)"/><rect width="168.571" height="168.571" x="1243.307" y="-329.014" rx="64" ry="64" fill="url(#ak)"/><path transform="translate(-210.979 -193.585)" d="M1518.281-135.438c-35.456 0-64 28.544-64 64v40.594c0 35.456 28.544 64 64 64h40.563c35.456 0 64-28.544 64-64v-40.593c0-35.457-28.544-64-64-64h-40.563zm2.063 4.875a59.904 59.904 0 0 1 9 .407l36.968 4.469c32.298 3.89 55.14 33.015 51.25 65.312l-4.437 36.969c-3.89 32.297-33.015 55.171-65.313 51.281l-36.968-4.469c-32.298-3.89-55.172-33.015-51.282-65.312l4.47-36.969c3.525-29.27 27.756-50.804 56.312-51.688z" fill="url(#al)"/><path d="M977.406 277.625c-4.276 0-8.535 1.63-11.812 4.906l-7.5 7.5a16.69 16.69 0 0 0 0 23.656l7.5 7.5a16.69 16.69 0 0 0 23.656 0l7.5-7.5a16.69 16.69 0 0 0 0-23.656l-7.5-7.5a16.699 16.699 0 0 0-11.844-4.906z" transform="rotate(-45 749.958 2359.14) scale(3.06892)" fill="url(#am)"/></g><g transform="scale(-.19016 .19016) rotate(45 -1153.486 -3469.01)"><path d="M1337.758-293.508c231.467 0 246.477-111.375 246.477-81.335V-86.18c0 30.04-15.01-98.28-246.477-98.28s-246.477 128.32-246.477 98.28v-288.664c0-30.04 15.01 81.335 246.477 81.335z" fill="url(#an)"/><path d="M1337.758-270.938c206.022 0 237.183-50.785 237.183-50.785v180.24s-31.161-61.365-237.183-61.365c-206.021 0-237.183 61.365-237.183 61.365v-180.24s31.162 50.785 237.183 50.785z" transform="matrix(1 0 0 1.05142 0 6.352)" fill="url(#ao)" filter="url(#ai)"/><path d="M1337.758-289.489c231.467 0 266.477-56.477 266.477-56.477v200.443s-35.01-68.244-266.477-68.244c-231.467 0-266.477 68.244-266.477 68.244v-200.443s35.01 56.477 266.477 56.477z" fill="url(#ap)"/><rect ry="64" rx="64" y="-329.014" x="1243.307" height="168.571" width="168.571" fill="url(#aq)"/><path d="M1518.281-135.438c-35.456 0-64 28.544-64 64v40.594c0 35.456 28.544 64 64 64h40.563c35.456 0 64-28.544 64-64v-40.593c0-35.457-28.544-64-64-64h-40.563zm2.063 4.875a59.904 59.904 0 0 1 9 .407l36.968 4.469c32.298 3.89 55.14 33.015 51.25 65.312l-4.437 36.969c-3.89 32.297-33.015 55.171-65.313 51.281l-36.968-4.469c-32.298-3.89-55.172-33.015-51.282-65.312l4.47-36.969c3.525-29.27 27.756-50.804 56.312-51.688z" transform="translate(-210.979 -193.585)" fill="url(#ar)"/><path d="M773.625 272.563c-4.277 0-8.567 1.629-11.844 4.906l-7.5 7.5a16.69 16.69 0 0 0 0 23.656l7.5 7.5a16.69 16.69 0 0 0 23.657 0l7.5-7.5a16.69 16.69 0 0 0 0-23.656l-7.5-7.5a16.628 16.628 0 0 0-11.813-4.906z" transform="scale(-3.06892 3.06892) rotate(45 625.049 -1347.493)" fill="url(#as)"/></g></svg>