<svg xmlns="http://www.w3.org/2000/svg" xmlns:xlink="http://www.w3.org/1999/xlink" width="408.477" height="408.477"><defs><linearGradient id="a"><stop offset="0" stop-color="green"/><stop offset=".282" stop-color="#0f0"/><stop offset="1" stop-color="green" stop-opacity="0"/></linearGradient><radialGradient xlink:href="#a" id="b" gradientUnits="userSpaceOnUse" gradientTransform="matrix(.64645 0 0 .64645 350.5 164.338)" cx="991.364" cy="464.817" fx="991.364" fy="464.817" r="52.326"/><radialGradient xlink:href="#a" id="c" gradientUnits="userSpaceOnUse" gradientTransform="matrix(.62906 0 0 .62906 367.739 172.42)" cx="991.364" cy="464.817" fx="991.364" fy="464.817" r="52.326"/><radialGradient xlink:href="#a" id="d" gradientUnits="userSpaceOnUse" gradientTransform="translate(66.31 31.09) scale(.93311)" cx="991.364" cy="464.817" fx="991.364" fy="464.817" r="52.326"/><filter id="f" x="-.149" width="1.299" y="-.047" height="1.095" color-interpolation-filters="sRGB"><feGaussianBlur stdDeviation="3.558"/></filter><linearGradient xlink:href="#a" id="e" x1="920.391" y1="419.716" x2="1031.108" y2="487.719" gradientUnits="userSpaceOnUse"/></defs><g transform="translate(-755.761 -335.761)" fill="none" stroke="#000"><circle r="204.239" cy="540" cx="960" fill="green" fill-rule="evenodd" stroke="none"/><path d="M948.982 356.92l.116 1.831.004.065h21.797l.004-.065.056-.888.059-.944h-22.035zm-.998.062l-21.86 2.764.356 1.863 11.454-1.447 10.17-1.286-.004-.06-.116-1.834zm24.032 0l-.116 1.834-.004.06 21.625 2.735.008-.047.004-.016.059-.303.285-1.5-21.861-2.763zm-22.852 2.834l.295 4.681.004.063h21.074l.004-.063.121-1.92.174-2.761h-21.672zm-.998.062l-21.498 2.717.89 4.668 20.907-2.64-.004-.063-.295-4.682zm23.668 0l-.295 4.682-.004.062 20.906 2.641.367-1.924.526-2.744-21.5-2.717zm-46.693.055l-21.342 5.479.586 1.804 21.113-5.42-.012-.06-.345-1.803zm69.718 0l-.343 1.803-.006.035-.006.025 9.353 2.403 11.756 3.017.588-1.805-21.342-5.478zm-69.173 2.85l-10.495 2.693-10.496 2.693 1.45 4.463.019.059 20.412-5.238-.002-.01-.01-.053-.879-4.608zm68.63 0l-.88 4.607v.002l-.012.059 20.412 5.24.02-.059 1.45-4.463-20.99-5.386zm-44.79 2.777l.468 7.441.004.063h20.004l.004-.063.227-3.607.242-3.834h-20.95zm-.999.062l-20.78 2.627 1.407 7.385L949 373.126l-.004-.062-.469-7.442zm22.946 0l-.47 7.442-.003.062 19.846 2.508.002-.01.01-.052 1.396-7.323-20.781-2.627zm-68.625.098l-20.487 8.113.782 1.66.027.057 20.264-8.023-.02-.06-.566-1.747zm114.304 0l-.52 1.606-.046.14-.02.06 20.265 8.024.027-.056.34-.721.443-.94-20.487-8.113zm-90.388 2.717l-20.291 5.209 1.254 3.857 1.05 3.233.02.058 19.375-4.972-.002-.01-.01-.053-1.397-7.322zm66.472 0l-1.396 7.322-.002.01-.01.047v.004l19.375 4.975.02-.059 2.304-7.09-20.29-5.209zm-89.492.043l-10.074 3.988-10.074 3.988 1.998 4.247.027.056 19.592-7.758-.02-.06-.82-2.528-.629-1.933zm112.512 0l-1.19 3.662-.26.799-.018.06 19.591 7.756 2.026-4.3-20.149-7.977zm-110.735 5.474l-19.474 7.711 3.174 6.747.027.056 18.598-7.363-.02-.06-2.304-7.09zm108.958 0l-2.305 7.09-.02.06 18.598 7.362 3.202-6.8-19.475-7.711zm-64.418.11l.634 10.064.004.063h18.602l.004-.063.308-4.879.327-5.185h-19.88zm-.998.062l-19.721 2.493 1.443 7.562.447 2.344.012.06 18.457-2.332-.004-.062-.635-10.065zm21.875 0l-.635 10.065-.004.062 9.228 1.168 9.229 1.164.71-3.726 1.192-6.24-9.861-1.247-9.86-1.246zm-89.483.131l-19.309 10.615 1.018 1.604 19.1-10.5-.028-.057-.78-1.662zm157.09 0l-.781 1.662-.027.057 19.1 10.5 1.017-1.604-19.309-10.615zm-110.186 2.55l-19.254 4.942 3.137 9.65 18.02-4.626zm63.282 0l-1.891 9.905-.012.06 14.338 3.683 3.68.945 1.885-5.797 1.254-3.854-11.989-3.078-7.265-1.865zm-108.952.075l-18.988 10.44 2.514 3.96.033.053 18.467-10.15-.027-.057-.762-1.62-1.237-2.626zm154.622 0l-1.998 4.246-.013.024-.01.011-.01.022 18.467 10.15.033-.052 2.514-3.961-18.988-10.44zm-129.157 5.176l-18.48 7.316 4.295 9.125.027.057 17.295-6.848-.02-.058-1.998-6.153-1.119-3.439zm103.692 0l-3.117 9.592-.02.058 17.294 6.848.027-.057 4.295-9.125-18.48-7.316zm-126.705.033l-18.356 10.092 4.028 6.348 17.529-9.637-.026-.057-3.175-6.746zm149.718 0l-3.175 6.746-.025.057 17.529 9.637.033-.053 3.994-6.295-9.178-5.047-9.177-5.045zm-84.097 3.1l.787 12.515.004.063h16.894l.004-.063.381-6.068.406-6.447h-18.476zm-.998.062l-18.332 2.319.773 4.054 1.576 8.262.012.06 16.762-2.116-.004-.063-.787-12.516zm20.472 0l-.787 12.516-.004.062 16.762 2.12.012-.063 1.845-9.672.504-2.644-18.332-2.319zm-108.933.157l-17.828 12.95 1.171 1.415.041.049 17.631-12.81-.017-.03-.016-.026-.982-1.548zm197.396 0l-.984 1.548-.033.053 17.63 12.813.042-.05.666-.804.506-.61-17.827-12.95zm-128.25 2.35l-17.896 4.593 3.875 11.926.02.058 16.363-4.199-.012-.062-2.35-12.317zm59.102 0l-2.35 12.316-.012.06 16.364 4.201.02-.058 3.875-11.926-17.897-4.594zm-126.696.099l-17.529 12.736 2.988 3.615.04.047.002.002 17.046-12.386-.033-.053-2.513-3.961zm194.29 0l-2.514 3.96-.033.053 17.047 12.387v-.004l3.027-3.66-17.53-12.736zM888.77 389.8l-8.711 4.79-8.71 4.786 5.438 8.569 16.303-8.963-.027-.057-4.293-9.125zm142.46 0l-1.423 3.028-2.87 6.097-.026.057 16.302 8.963.033-.053 5.404-8.516-17.42-9.576zm-119.63 2.862l-17.178 6.802 5.365 11.403 15.707-6.221zm96.798 0l-3.478 10.705-.397 1.22-.019.06 15.707 6.22 5.368-11.403-17.18-6.802zm-142.457.058l-16.947 12.31 4.752 5.745.041.049 16.182-11.758-.033-.053-3.995-6.293zm188.118 0l-3.995 6.293-.033.053 16.182 11.758.041-.05 4.752-5.743-16.947-12.31zm-102.444 6.049l.932 14.812h14.906l.004-.062.45-7.152.478-7.598h-16.77zm-.998.062l-16.637 2.104 2.77 14.516.012.062 14.787-1.869-.004-.063-.928-14.75zm18.766 0l-.928 14.75-.004.063 14.787 1.87.012-.063 1.002-5.252 1.767-9.264-8.318-1.053-8.318-1.05zM842.705 399l-16.062 15.082 1.337 1.258.047.043 15.887-14.92-.039-.048-1.17-1.415zm234.59 0l-1.17 1.414-.039.05 15.889 14.917.033-.03.012-.01 1.338-1.259zm-183.777.891l-16.192 8.902 6.752 10.64 14.805-8.14-.027-.056-2.075-4.408-3.263-6.938zm132.964 0l-5.338 11.346-.027.056 14.805 8.139 6.754-10.64-16.193-8.901zm-155.976.022l-16.08 11.683 6.428 7.772.04.048 6.333-4.601 8.716-6.334-.033-.053-5.404-8.515zm178.988 0l-.406.64-4.998 7.875-.033.053 15.049 10.935.04-.048 6.428-7.772-4.994-3.629-11.086-8.054zm-116.496 1.21l-8.121 2.084-8.121 2.084 4.568 14.057.02.059 14.435-3.705-.011-.063-2.77-14.516zm54.004 0l-2.77 14.516-.011.063 14.435 3.705.02-.059 2.982-9.174 1.586-4.883-16.242-4.168zm-142.447.114l-15.797 14.832 3.43 3.222.035.032 7.68-7.213 7.681-7.213-.04-.047-2.99-3.613zm230.89 0l-3.029 3.66 15.361 14.428.047-.045 3.418-3.211-7.898-7.416-7.899-7.416zm-159.64 4.365l-15.59 6.172 6.318 13.43 13.858-5.487zm88.39 0l-4.568 14.055-.02.06 13.86 5.487.027-.057 6.29-13.373-15.589-6.172zm-155.972.068l-15.27 14.34 1.219 1.145 4.215 3.959.047.043 14.58-13.694-.04-.048-4.751-5.745zm223.554 0l-3.707 4.483-1.045 1.262-.039.048 14.58 13.694.023-.022.024-.021 5.434-5.106-15.27-14.338zm-28.258 3.657l-3.49 5.502-3.228 5.087-.033.053 13.666 9.93.04-.049 7.993-9.662-4.777-3.473-10.17-7.388zm-167.039.002l-14.947 10.859 7.992 9.662.041.049 13.666-9.93-.033-.052-6.719-10.588zm22.829 2.87l-14.694 8.079 7.918 12.478.035.055 13.06-7.182-.026-.056-6.293-13.373zm121.382 0l-6.293 13.374-.027.056 13.06 7.182.036-.055 2.756-4.34 5.162-8.138-14.693-8.078zm-167.037.036l-7.244 6.805-7.246 6.802 7.352 6.905.047.043 13.558-12.735-.039-.049-1.875-2.267-4.553-5.504zm212.692 0l-6.428 7.771-.039.05 13.56 12.732.033-.03.012-.011 7.352-6.907-14.49-13.605zm-113.737 2.348l1.055 16.736.004.062h12.664l.004-.062.512-8.115.543-8.621H952.61zm-.998.062l-14.662 1.854 3.143 16.47.011.063 12.567-1.588-.004-.063-1.055-16.736zm16.778 0l-1.055 16.736-.004.063 12.566 1.588.012-.063 1.145-5.996 1.998-10.474-7.332-.928-7.33-.926zm-142.43.168l-14.047 16.977 1.486 1.08.051.037 13.893-16.795-.045-.043-1.338-1.256zm268.082 0l-1.34 1.26-.043.039 13.895 16.795.05-.037 1.485-1.08-14.047-16.977zm-158.074 1.873l-7.158 1.838-7.157 1.836 5.203 16.008 12.266-3.149-.012-.062-3.142-16.47zm48.066 0l-3.142 16.47-.012.063 12.267 3.149.02-.059 5.182-15.95-14.315-3.673zm-155.96.113l-6.907 8.348-6.906 8.348 3.795 2.758.05.037 13.432-16.239-.045-.04-2.053-1.928-1.367-1.284zm263.855 0l-3.42 3.211-.045.043 13.431 16.237.051-.037 3.795-2.758-13.812-16.696zM920.7 420.67l-6.869 2.721-6.871 2.719 7.139 15.174.027.056 11.775-4.662-.02-.06-5.18-15.948zm78.598 0l-5.182 15.948-.02.06 11.776 4.662.027-.056 7.14-15.172-13.742-5.442zm-167.03.069l-13.353 16.14 6.031 4.381.051.037 12.75-15.412-.045-.043-1.035-.97-4.398-4.133zm255.461 0l-3.511 3.299-1.922 1.804-.045.043 12.75 15.413.05-.038 6.032-4.38-13.353-16.141zm-203.96.076l-13.565 9.856 9.46 11.435 12.058-8.76-.034-.052-6.695-10.55-1.224-1.929zm152.46 0l-1.87 2.95-6.05 9.529-.032.052 12.058 8.76.04-.047 9.42-11.389-13.565-9.855zm-175.468.012l-6.735 6.324-6.734 6.324 9.186 8.627 12.314-11.564-.04-.05-2.275-2.751-5.716-6.91zm198.476 0l-7.992 9.662-.039.049 12.315 11.564.045-.043 9.14-8.584-6.734-6.324-6.734-6.324zm-153.183 5.709l-12.951 7.12 9.019 14.212 11.098-6.102-.012-.027-.014-.03-7.14-15.173zm107.89 0l-7.14 15.174-.027.056 11.1 6.102.032-.053 8.987-14.158-12.952-7.121zm-175.465.035l-12.671 15.316 8.16 5.928.05.037 11.858-14.334-.045-.043-1.38-1.297-5.971-5.607zm243.04 0l-4.717 4.432-2.635 2.472-.045.043 11.857 14.332.051-.035 8.16-5.928-12.671-15.316zm-212.086 4.738l-6.114 5.739-6.111 5.74 2.602 2.441 8.171 7.676.047.043 10.866-10.203-.041-.049-2.52-3.045-6.9-8.342zm181.132 0l-9.45 11.426-.01.01 10.864 10.203.027-.025.02-.018 10.773-10.117-6.111-5.74-6.114-5.739zm-96.836 1.073l1.16 18.44.005.063h10.21l.005-.062.562-8.941.598-9.5h-12.54zm-.998.062l-12.441 1.572 3.463 18.15.012.063 10.13-1.281-.004-.063-1.16-18.441zm14.536 0l-1.16 18.441-.005.063 10.131 1.281.012-.062 1.256-6.58 2.207-11.57-6.22-.786-6.222-.787zm-155.944.154l-11.806 18.606 1.609.885.055.029 4.533-7.145 7.144-11.258-.023-.017-.025-.02-1.487-1.08zm297.352 0l-1.485 1.08-.05.037 11.677 18.403.055-.03.572-.314 1.038-.57-11.807-18.606zm-216.416 1.594l-11.955 8.688 10.687 12.92.041.048 10.246-7.445-.033-.053zm135.48 0l-1.713 2.7-7.273 11.458-.035.053 10.246 7.445.041-.049 6.127-7.406 4.562-5.513-5.978-4.344-5.979-4.344zm-88.431.012l-6.073 1.558-6.072 1.559 5.182 15.95.527 1.624.02.059 9.89-2.537-.012-.063-3.462-18.15zm41.382 0l-3.462 18.15-.012.06 9.89 2.54.02-.059 5.71-17.572-7.626-1.96-4.52-1.16zm92.702 0l-9.141 8.584-.047.043 10.77 13.017.05-.037 10.145-7.37-11.777-14.237zm-226.786.002L834.83 448.44l10.145 7.37.05.036 10.77-13.017-.047-.043-9.14-8.582zm-32.935.097L802.06 452.6l4.164 2.291 11.293-17.79-2.278-1.657zm292.658.002l-3.848 2.795 11.291 17.791 4.166-2.289-9.146-14.416zm-180.117 3.327l-11.66 4.617 7.867 16.717.027.056 9.494-3.758-.02-.06-3.134-9.649-2.574-7.923zm67.574 0l-4.773 14.69-.936 2.882-.02.06 9.495 3.758.013-.027.014-.03 7.867-16.716-11.66-4.617zm-175.459.056l-11.224 17.688 6.533 3.59.054.029 10.72-16.887-.052-.037-6.03-4.383zm283.344 0l-6.031 4.383-.051.037 10.718 16.887.055-.03 4.776-2.623 1.758-.966-5.612-8.844-5.613-8.844zm-188.024 4.985l-10.988 6.04 9.934 15.655 8.949-4.92-.027-.057-7.737-16.44-.13-.278zm92.704 0l-.78 1.658-7.088 15.06-.027.057 8.95 4.92.032-.053 9.9-15.601-5.494-3.022-5.494-3.02zm-181.131.023l-10.65 16.783 2.581 1.42 6.31 3.469 9.97-15.707-.051-.037-8.16-5.928zm269.558 0l-6.037 4.387-2.123 1.54-.05.038 9.968 15.707.055-.03 3.486-1.916 5.352-2.943-5.324-8.392-5.327-8.391zm-54.312.82l-10.688 12.922-.039.049 9.23 8.67.028-.026.019-.017 12.222-11.48-5.386-5.06-5.387-5.058zm-183.942.002l-9.08 10.973-1.61 1.947 11.958 8.686.05.037 9.5-11.485-.044-.043-10.774-10.115zm23.008 0l-10.773 10.117 3.521 3.307 8.701 8.172.047.043 9.23-8.67-.038-.049-10.688-12.92zm183.942 0l-10.819 10.158 9.5 11.485.051-.037 11.957-8.686-1.609-1.947-9.08-10.973zm22.283 5.73l-10.195 7.41 9.052 14.263.055-.03 4.774-2.623 6.215-3.416-4.952-7.8-4.949-7.803zm-251.516.003l-9.9 15.601 10.988 6.04.055.029 9.053-14.264-.051-.037-10.145-7.37zm67.574 0l-8.63 6.27-1.514 1.099 11.816 14.285 8.262-6.002-.033-.053-9.9-15.6zm116.37 0l-9.903 15.6-.033.052 8.262 6.002.039-.047 11.777-14.238-5.07-3.686-5.072-3.683zm-63.229 2.634l1.248 19.838.004.065h7.582l.004-.065.606-9.619.642-10.219h-10.086zm-.998.063l-10.006 1.266 2.719 14.255 1.006 5.27.01.05.002.01 7.521-.95-.004-.061-1.248-19.84zm12.082 0l-1.248 19.84-.004.06 7.521.952.004-.02.008-.04 3.725-19.526-5.004-.633-5.002-.633zm-167.006.133l-9.38 19.937 1.765.7 9.28-19.721-.055-.031v-.002l-1.61-.883zm321.93 0l-1.61.885-.055.03 9.282 19.721.05-.021.01-.002.39-.154 1.318-.522-9.381-19.937zM942.97 453.4l-9.77 2.508 3.512 10.8 2.633 8.104.02.059 7.341-1.885-.012-.062-3.724-19.524zm34.058 0l-3.724 19.524-.004.025-.008.037 7.341 1.885 3.995-12.287 2.17-6.676-6.043-1.553-3.727-.955zm-175.45.078l-9.227 19.608 4.42 1.75 8.972-19.069zm316.843 0l-4.164 2.29 6.101 12.964 2.871 6.102 1.413-.559 3.005-1.19zm-250.348.883l-9.42 11.389 13.567 9.855.05.037 8.073-9.758-.045-.043-12.225-11.48zm183.852.002l-12.225 11.479-.045.043 8.072 9.757.051-.037 13.567-9.855-9.42-11.387zm-119.676 1.854l-9.377 3.712 8.465 17.985.027.056 3.526-1.394 3.521-1.397-.018-.058-6.144-18.905zm55.5 0l-6.145 18.904-.019.06 7.049 2.79.027-.057 5.432-11.541 3.033-6.444-9.377-3.712zm-181.129.033l-8.918 18.955 6.99 2.767 8.516-18.1-.055-.03v-.002l-6.531-3.59h-.002zm306.756 0l-6.531 3.592-.01.002-.05.029 5.792 12.306 2.726 5.791 2.332-.921 4.657-1.844-4.46-9.479-4.458-9.476zm-268.129.996l-8.984 14.158 12.95 7.12.056.028 7.986-12.582-.05-.037-11.958-8.687zm229.504 0l-11.957 8.687-.051.037 7.986 12.582.055-.029 11.338-6.232 1.613-.887-4.492-7.08-4.492-7.078zm-183.852.012l-4.57 4.292-4.57 4.291 13.469 12.649.046.043 7.444-6.99-.041-.05-3.21-3.878-8.568-10.357zm138.2 0l-11.778 14.236-.024.027-.01.012-.01.01 7.444 6.988 13.515-12.69-9.14-8.583zm-215.012 3.097l-8.463 17.986 9.377 3.711.059.024 7.92-16.832-8.891-4.889h-.002zm107.883 0l-8.838 4.86 10.65 16.78.033.053 6.643-3.65-8.488-18.043zm76.058 0l-8.488 18.043 6.643 3.65.033-.052 10.65-16.781-8.838-4.86zm107.883 0l-8.838 4.858-.055.03 5.385 11.448 2.535 5.385.06-.024 9.376-3.71-4.23-8.995-4.233-8.992zm-282.053 5.371l-3.933 8.36-3.934 8.359 11.717 4.639 7.193-15.285-.054-.032v-.002l-10.989-6.039zm272.282 0l-10.989 6.041-.055.031 7.194 15.286.119-.047 11.597-4.592-7.867-16.719zm-183.854.024l-8.158 5.927 12.67 15.317.039.047 6.133-4.455-.033-.053-10.65-16.783zm95.426 0l-10.65 16.783-.034.053 6.133 4.455.04-.047 12.669-15.317-4.078-2.965-4.08-2.962zm-149.647.808l-7.918 12.479 14.694 8.078.055.03 6.787-10.692-.051-.037-7.656-5.563zm203.868 0l-10.725 7.793-2.842 2.065-.05.037 6.786 10.691.055-.03 14.696-8.077v-.002l-7.92-12.477zm-180.858.012l-7.994 9.662 14.95 10.861.05.037 6.508-7.869-.045-.043-2.65-2.49-10.819-10.158zm157.848 0l-13.514 12.691 6.508 7.868.051-.036 14.95-10.861-7.995-9.662zm-203.143 5.71l-3.57 7.587-3.57 7.586 11.73 4.644 2.07.82 6.346-13.486-.055-.03-12.95-7.12zm248.438 0l-12.951 7.12-.055.031 6.347 13.485 13.8-5.463-7.141-15.172zm-180.862.036l-7.351 6.902 14.49 13.608.045.043 5.527-5.19-.04-.048-12.67-15.315zm113.286 0l-12.704 15.356-.01.008 5.528 5.189 10.904-10.24 3.631-3.41-7.351-6.903zm-60.372.47l1.317 20.907.004.063h4.816l.004-.063.559-8.877.758-12.03h-7.457zm-.998.063l-7.396.934 3.926 20.576.011.063 4.78-.604-.004-.062-1.317-20.907zm9.454 0l-1.317 20.907-.004.062 4.78.604.011-.063 2.758-14.453 1.168-6.123-7.397-.934zm-175.44.098l-6.81 20.957 1.779.455.06.016 6.735-20.729-.035-.014-.024-.01-1.705-.675zm341.428 0l-1.707.676-.06.023 6.737 20.729.061-.016.844-.215.934-.24-6.81-20.957zm-183.82 1.023l-3.61.928-3.611.926 6.492 19.982 4.666-1.197-.012-.062-3.925-20.577zm26.21 0l-3.925 20.577-.012.062 4.664 1.197 3.986-12.263 2.508-7.72-7.22-1.853zm-181.12.045l-6.698 20.608 4.543 1.168.06.015 3.258-10.021 3.254-10.02-.01-.004-4.408-1.746zm336.033 0l-4.362 1.727-.059.023 6.512 20.041.061-.015 2.154-.553 2.389-.613-6.695-20.61zm-330.682 2.12l-6.473 19.921 4.742 1.217 2.477.637.063.015 6.181-19.023-.058-.023-6.932-2.745zm141.387 0l-6.932 2.744 8.92 18.953.027.056 4.477-1.771-.02-.06-4.216-12.983-2.256-6.94zm42.554 0l-6.492 19.98 4.477 1.773.027-.056 8.92-18.953-6.932-2.744zm141.387 0l-6.93 2.744-.059.023 6.182 19.023.061-.015 3.42-.877 3.8-.977-6.474-19.922zm-250.17.906l-6.719 10.588 5.01 2.754 11.236 6.177 5.473-8.62-.05-.038-8.487-6.166-6.463-4.695zm175.012 0l-11.647 8.46-3.302 2.401-.051.037 5.472 8.621.055-.03 16.192-8.901-3.36-5.293-3.36-5.295zm-242.248 2.23l-6.143 18.904 9.768 2.508.06.016 4.34-13.354 1.41-4.338-5.433-2.152-4.002-1.584zm309.484 0l-9.375 3.711-.059.024 5.748 17.69.061-.013 9.768-2.508-3.07-9.453-3.073-9.45zm-183.855.033l-4.496 2.471-2.037 1.121 11.257 17.738 4.221-2.32-.027-.056-8.67-18.428-.248-.526zm58.226 0l-8.918 18.953-.027.057 4.22 2.32 6.124-9.648 5.135-8.09-2.038-1.121-4.496-2.47zm-139.447.61l-6.293 13.373 15.648 6.195 5.393-11.459-.055-.031-14.693-8.078zm220.668 0l-14.693 8.078-.055.031 5.392 11.457 5.662-2.24 9.987-3.953-6.293-13.373zm-175.014.035l-6.427 7.77 16.13 11.72 4.834-5.842-.046-.043-14.49-13.605zm129.36 0l-9.977 9.367-4.513 4.238-.047.043 4.834 5.842.05-.037 16.08-11.683-6.427-7.77zm-209.055 3.426l-4.084 12.566-1.627 5.008 12.147 3.117.06.016 5.22-16.067-.058-.023-11.658-4.617zm288.75 0l-11.658 4.617-.06.023 5.224 16.067.058-.016 7.347-1.885 4.799-1.232-5.71-17.574zm-180.867.056l-6.031 4.383 10.134 12.25 3.22 3.89.038.048 3.897-2.83-.034-.053-8.427-13.281-2.797-4.407zm72.984 0l-4.094 6.451-7.13 11.237-.034.053 3.897 2.83.039-.047 13.353-16.14-3.015-2.192-3.016-2.192zm-168.219 4.953l-5.181 15.948 14.375 3.69 4.605-14.175-.058-.023-13.74-5.44zm263.454 0l-13.74 5.44-.06.023 4.606 14.174 4.844-1.242 9.53-2.45-2.589-7.972-2.592-7.973zm-175.02.067l-2.719 2.553-2.717 2.55 3.557 3.34 11.713 11 .047.043 3.512-3.297-.041-.048-3.87-4.678-9.482-11.463zm86.586 0l-13.352 16.14-.017.022-.018.02-.006.007 3.512 3.297.027-.025 15.287-14.357-4.875-4.579-.558-.525zm-138 .055l-5.34 11.345 17.182 6.801.058.023 4.346-9.238-5.293-2.91-10.953-6.021zm189.414 0l-16.191 8.9-.057.031 4.35 9.238.04-.017.016-.006 17.18-6.803-5.338-11.344zm-166.402.021l-5.405 8.516 17.475 9.607 4.06-6.402-.05-.037-16.08-11.684zm143.39 0l-12.677 9.211-3.403 2.473-.05.037 4.06 6.402.057-.031 17.418-9.576-2.701-4.258-2.704-4.258zm-188.69 5.69l-4.566 14.054 16.24 4.17.061.016 3.914-12.045-.058-.024-15.59-6.171zm233.99 0l-15.59 6.171-.06.024 3.914 12.045.061-.016 16.243-4.17-4.569-14.055zm-166.407.068l-2.377 2.871-2.375 2.873 16.996 12.35 3.07-3.713-.045-.043-15.27-14.338zm98.824 0l-15.27 14.338-.044.043 3.07 3.713.05-.037 16.946-12.313-2.375-2.873-2.377-2.871zm-51.758.47l1.362 21.628.004.062h1.96l.005-.062.66-10.487.7-11.14h-4.69zm-.998.063l-4.654.588 2.957 15.496 1.104 5.791.011.06 1.947-.245-.004-.063-1.36-21.627zm6.688 0l-1.362 21.627-.004.063 1.948.246.011-.06 1.43-7.495 2.63-13.793-2.325-.293-2.328-.295zm-181.115.055l-4.13 21.642 1.036.131.785.1.062.008 4.084-21.41-1.837-.471zm355.543 0l-1.778.455-.06.015 4.084 21.41.062-.007 1.82-.23-4.128-21.643zm-352.735.72l-1.16 6.079-2.9 15.207 2.812.355 1.842.235.062.008 3.95-20.702-.06-.015-4.546-1.166zm165.983 0l-2.272.583-2.271.584 6.068 18.681.646 1.988 1.9-.488-.01-.06-4.061-21.288zm17.96 0l-4.06 21.288-.012.06 1.512.389.387.1 6.716-20.67-4.543-1.166zm165.983 0l-4.545 1.167-.061.015 3.95 20.701.061-.008 4.655-.59-4.061-21.285zm-344.35 1.432l-1.963 10.287-1.962 10.29 7.396.933.062.008 3.749-19.649-.061-.015-7.22-1.854zm338.774 0l-7.221 1.854-.061.015 3.748 19.649.062-.008v.002l3.453-.438 3.944-.498-3.926-20.576zm-183.864.043l-4.359 1.727 9.227 19.61.027.056 1.822-.723-6.717-20.67zm28.952 0l-6.696 20.611-.02.06 1.823.722.027-.057 9.227-19.61-4.36-1.726h-.001zm-92.057.852l-4.295 9.125 18.541 7.34 3.229-6.86-.055-.03-17.42-9.575zm155.164 0l-17.42 9.576-.055.03 3.229 6.859 11.424-4.522 7.117-2.818-4.295-9.125zm-238.717 1.224l-1.07 5.606-2.654 13.918 10.068 1.273 3.486-18.273-.06-.016-9.77-2.508zm322.27 0l-9.77 2.508-.06.016 3.486 18.273 10.068-1.273-3.725-19.524zm-180.877.077l-4.11 2.26 11.645 18.35 1.719-.944-.012-.026-.014-.031-9.228-19.61zm39.484 0l-9.228 19.609-.026.057 1.719.945.033-.053 11.612-18.299-4.11-2.26zm-120.156 1.56l-3.873 11.926 17.957 4.61 3.154-9.712-.058-.023-17.18-6.8zm200.828 0l-17.18 6.8-.059.024 3.157 9.711 8.043-2.064 9.914-2.545-1.938-5.963-1.937-5.963zm-155.166.057l-3.996 6.295 6.482 3.562 11.875 6.53.053.029h.002l2.58-4.067-.05-.037-13.59-9.875-3.356-2.437zm109.506 0l-16.947 12.312-.051.037 2.58 4.067.055-.03 7.725-4.246 10.632-5.845-1.998-3.149-1.996-3.146zm-205.088 1.08l-1.732 9.074-1.73 9.074 9.501 1.201 2.94.371.062.008 3.166-16.593v-.002l-.062-.016-12.145-3.117zm300.668 0l-12.145 3.117-.06.016 1.581 8.296 1.584 8.3.061-.009 12.442-1.572-3.463-18.148zm-175.031.1l-3.795 2.757 13.814 16.697.04.047 1.587-1.152-.033-.053-11.613-18.297zm49.394 0l-2.093 3.3-9.52 14.996h.002l-.035.053 1.586 1.154.013-.015.028-.034 13.814-16.697-3.795-2.758zM822.844 505.3l-1.57 8.234-1.573 8.236 11.084 1.4 3.578.454.063.008 2.793-14.643-.06-.015-14.315-3.674zm274.314 0l-14.377 3.691 2.793 14.64.062-.007 14.664-1.854-3.142-16.47zm-166.42.11l-3.42 3.214 15.844 14.875 1.43-1.342-.041-.049-3.932-4.754-9.88-11.943zm58.526.003l-13.848 16.736-.008.008 1.43 1.342 15.843-14.877-.304-.287-3.114-2.922zm-111.508 2.56l-3.115 9.592 19.252 4.944.06.015 2.344-7.209-.006-.002-.053-.021-18.482-7.319zm164.488 0l-18.482 7.319-.06.023 2.344 7.21.061-.016 19.252-4.944-3.115-9.592zm-23.016.034l-4.804 2.642-13.551 7.45-.055.03 2.05 4.358 19.534-7.734-3.172-6.746zm-118.457.002l-1.587 3.373-1.586 3.37 16.765 6.641 2.768 1.094.656-1.394 1.395-2.963zm-62.582 1.23l-1.384 7.26-1.385 7.258 12.81 1.619 3.827.482.062.008 2.373-12.441-.06-.016-16.243-4.17zm243.622 0l-16.243 4.17-.06.016 2.372 12.441.062-.008 16.637-2.102-2.77-14.517zm-88.444.111l-15.797 14.836-.047.043 1.25 1.51.051-.035 17.533-12.738-1.494-1.807-1.496-1.808zm-66.732.002l-2.99 3.614 15.97 11.603 1.56 1.135.052.037 1.25-1.512-.047-.043-15.795-14.834zm-71.172 4.323l-1.174 6.158-1.176 6.158 13.98 1.766 4.352.55.06.008 1.608-8.423.307-1.606-.06-.015v-.002l-17.897-4.594zm209.074 0l-17.896 4.595-.061.016 1.914 10.03.062-.009 18.33-2.316-2.35-12.317zm-141.482.1l-2.512 3.962 19.043 10.469 1.053-1.656-.051-.037-17.533-12.739zm73.89 0l-13.58 9.866-3.953 2.872-.05.037 1.05 1.656 7.975-4.383 11.072-6.086v-.002l-2.514-3.96zm-99.716 1.91l-1.153 3.544-1.152 3.545 13.428 3.448 6.86 1.761.063.016 1.489-4.58-.059-.024-19.476-7.71zm125.542 0l-19.476 7.71-.06.024 1.491 4.58.061-.016 9.631-2.472 10.658-2.737-2.304-7.09zm-63.689 1.76l.918 14.583.918-14.584zm-181.107.062L776.59 539.5H778.488l1.37-21.752-.063-.01-1.82-.23zm180.109 0l-1.822.23 2.74 14.362-.443-7.047zm3.832 0l-.918 14.586 2.74-14.356-.91-.115zm180.11 0l-1.82.23-.063.008 1.37 21.754h1.898l-1.385-21.992zm-361.174.363l-1.362 21.628H784.244l1.324-21.03-.062-.009-4.654-.59zm358.296 0l-4.654.59-.062.007 1.324 21.032h4.754l-.8-12.73-.561-8.9zm-183.869.056l-1.777.455 4.516 13.899zm9.442 0l-2.74 14.358 4.517-13.903zm-90.33.61l-1.301 6.816-.59 3.088 13.148 1.662 6.575.83.06.008 1.422-7.447-.06-.016-19.254-4.941zm171.218 0l-19.254 4.94-.06.017 1.421 7.447.061-.008 19.723-2.492-1.89-9.905zm-259.047.056l-1.316 20.906h7.52l1.255-19.963zm346.875 0l-7.459.943 1.256 19.963h7.52l-.658-10.453zm-213.376.02l-1.997 4.244 17.3 6.851 2.906 1.149.835-1.774-.04-.023-.014-.008-18.99-10.44zm79.878 0l-4.404 2.421-14.639 8.05.567 1.206.267.567 20.207-8zm-47.388.078l-1.707.677 6.222 13.22-1.449-4.458zm14.898 0l-4.513 13.896 6.22-13.22-1.705-.676h-.002zm-172.433.97l-1.248 19.838h10.148l1.168-18.566-.063-.008-.63-.08-9.375-1.184zm329.968 0l-9.375 1.184-.63.08-.063.008 1.168 18.566h10.149l-.623-9.917-.625-9.92zm-175.045.131l-1.609.885 7.832 12.34zm20.122 0l-6.223 13.225 7.832-12.34zm-163.983 1.266l-1.16 18.441h12.602l1.062-16.86-.062-.009-12.442-1.572zm307.844 0l-12.44 1.572-.018.002-.045.006 1.061 16.862h12.601l-.58-9.221-.58-9.22zm-166.436.154l-1.486 1.08 9.324 11.272zm25.03.002l-7.832 12.34L974 522.292l-1.484-1.078zm-152.94 1.55l-1.055 16.735H833.363l.938-14.875-.063-.008-14.662-1.853zm280.848 0l-14.662 1.853-.062.008.937 14.875h14.842l-.527-8.368-.528-8.369zm-155.194.165l-1.337 1.258 10.652 10.002zm29.54 0l-9.315 11.26 10.652-10.002-1.275-1.2-.062-.058zm-80.094.815l-.7 3.662-.699 3.66 10.153 1.283 10.63 1.344.063.008.902-4.733-.06-.015-20.29-5.21zm130.648 0l-20.289 5.209-.06.015.902 4.733.062-.008 20.783-2.627-1.399-7.323zm-107.629.044l-1.45 4.461 20.99 5.39.06.015.607-1.866-.058-.023-20.149-7.977zm84.61 0l-20.149 7.977-.058.023.607 1.866.06-.016 9.97-2.559 11.02-2.83-1.45-4.46zm-167.01.961l-.93 14.75h16.832l.797-12.64-.062-.008-16.637-2.102zm249.41 0l-16.637 2.102-.062.008.797 12.64h16.832l-.465-7.374-.464-7.375zm-141.498.166l-1.17 1.414 11.822 8.59zm33.586 0l-10.647 10 2.274-1.652 9.543-6.934zm-123.805 2.069l-.789 12.515h18.541l.64-10.191-.046-.006-.016-.002-18.33-2.316zm214.024 0l-18.33 2.316-.062.008.64 10.192h18.541l-.394-6.258-.395-6.258zm-125.563.154l-.984 1.55 9.178 5.048 3.632 1.998-8.207-5.965zm37.102 0l-11.834 8.598 12.818-7.047-.492-.776zm-62.555 2.08l-.44 2.305-.439 2.303 16.358 2.066 5.142.65.063.008.367-1.927-.06-.016-20.991-5.389zm88.008 0l-20.99 5.389-.06.015.366 1.928.063-.008 21.5-2.717-.88-4.607zm-131.627.215l-.635 10.066H891.682l.24-3.783.236-3.783-.047-.006-.015-.002-19.72-2.492zm175.248 0l-19.72 2.492-.017.002-.047.006.477 7.567h19.94l-.317-5.034-.317-5.033zm-107.643.133l-.779 1.66 13.596 5.385-12.815-7.045h-.002zm40.034 0l-12.81 7.043 13.59-5.383-.778-1.66h-.002zm-86.862 2.492l-.47 7.441H913.695l.303-4.806-.062-.008-20.782-2.627zm133.694 0l-20.784 2.627-.062.008.303 4.807h21.012l-.235-3.721-.234-3.72zm-88.014.1l-.426 1.306-.142.44 14.158 3.634zm42.332 0l-13.586 5.379 14.154-3.633zm-66.174 2.66l-.295 4.681h21.733l.125-1.957zm90.016 0l-21.563 2.724.125 1.957h21.733l-.147-2.34zm-66.99.054l-.172.9-.172.903 14.502 1.832-2.649-.68zm43.964 0l-14.158 3.635 14.502-1.832zm-44.433 2.795l-.117 1.832h14.619zm44.902 0L967.95 539.5h14.62l-.06-.916-.058-.916zM776.59 540.5l1.385 21.993 1.82-.23.062-.009-1.369-21.754zm2.9 0l1.362 21.63 4.654-.59.062-.009-1.324-21.03zm5.756 0l1.316 20.907 7.46-.944-1.256-19.963zm8.522 0l1.248 19.838 9.375-1.183.63-.08.063-.008-1.168-18.567zm11.15 0l1.16 18.442 10.02-1.266 2.422-.306.06-.008-1.06-16.862zm13.603 0l1.055 16.737 14.662-1.854.063-.008-.938-14.875h-14.842zm15.844 0l.93 14.75 16.637-2.101.062-.008-.797-12.64zm17.834 0l.79 12.516 18.33-2.316.062-.008-.64-10.192zm19.543 0l.633 10.067 19.72-2.492.016-.002.047-.006-.476-7.567h-19.94zm20.942 0l.468 7.442 20.784-2.627.062-.008-.303-4.807h-21.011zm22.013 0l.295 4.682 21.563-2.725-.125-1.957zm22.735 0l.117 1.832 14.502-1.832zm30.517 0l14.502 1.832.059-.916.058-.916H967.95zm15.621 0l-.125 1.957 21.563 2.725.148-2.342.147-2.34h-21.67zm22.735 0l-.303 4.807.062.008 20.783 2.627.234-3.72.235-3.721h-21.011zm22.013 0l-.24 3.784-.236 3.783.062.008 19.72 2.492.317-5.033.316-5.033h-19.94zm20.942 0l-.64 10.192.061.008 18.33 2.316.395-6.258.394-6.257H1049.26zm19.543 0l-.797 12.641.062.008 16.637 2.102.464-7.375.465-7.375h-16.831zm17.834 0l-.938 14.875.062.008 14.662 1.854.528-8.37.527-8.366h-14.841zm15.843 0l-1.062 16.862.064.008 12.44 1.572.58-9.22.58-9.221H1102.48zm13.604 0l-1.168 18.567.062.008 10.006 1.263.625-9.92.623-9.917h-10.148zm11.15 0l-1.256 19.963 7.46.944.658-10.453.658-10.454h-7.519zm8.522 0l-1.324 21.032.062.008 4.654.59.56-8.899.801-12.73h-4.753zm5.756 0l-1.37 21.752 1.883.239 1.385-21.99H1141.512zm-189.336.993l-14.502 1.832.344 1.802 11.086-2.845zm15.648 0l14.158 3.634.172-.9.172-.902zm-.248.968l13.59 5.381.426-1.306.142-.44zm-15.152.002l-14.158 3.633.568 1.746zm.375.926l-13.596 5.385.78 1.66h.001l12.815-7.045zm14.406.002l12.81 7.043h.003l.779-1.66-13.592-5.383zm-30.525.059l-.063.008-21.5 2.717.88 4.607 20.99-5.389.06-.015-.367-1.928zm46.64 0l-.367 1.927.06.016 20.99 5.389.44-2.305.44-2.303-21.5-2.716-.063-.008zm-16.603.814l11.834 8.598.492-.776.492-.775zm-13.442.002l-12.81 7.045.984 1.55 4.738-3.442zm.58.817l-11.818 8.587 1.17 1.415zm12.291.002l10.647 10 1.17-1.414zm-.69.726l9.314 11.26.062-.059 1.275-1.199-10.652-10.002zm-10.913.002l-10.65 10 1.275 1.2.062.058 9.313-11.258zm-40.42.486l-.062.008-20.784 2.627 1.399 7.323 20.289-5.21.06-.015-.902-4.732zm91.754 0l-.902 4.733.06.016 20.29 5.208.699-3.662.7-3.66-20.784-2.627-.062-.008zm-68.582.047l-.06.016-9.97 2.559-11.02 2.83 1.45 4.46 17.301-6.849 2.848-1.127.058-.023-.607-1.866zm45.41 0l-.607 1.866.058.023 20.149 7.977.91-2.797.54-1.664-20.99-5.389-.06-.016zm-27.379.088L946 557.707l1.486 1.08zm9.354.006l7.836 12.346 1.484-1.078zm-.842.543l6.223 13.225 1.609-.885zm-7.678.002l-7.83 12.338 1.61.885zm6.772.42l4.517 13.904 1.707-.675zm-5.868.01l-.691 1.469-5.53 11.748 1.708.678 2.318-7.135zm4.916.301l2.74 14.357 1.778-.455zm-3.962.004l-4.516 13.898 1.777.455zm.984.182l-2.45 12.834-.29 1.525v.002l1.822.23.58-9.228.338-5.363zm1.996.002l.918 14.59 1.822-.231zm-.998.067l-.662 10.506-.256 4.078h1.836L960 547.97zm-67.717 1.088l-19.783 2.5 1.89 9.904 17.887-4.59 1.368-.351.06-.016-1.422-7.447zm135.434 0l-1.422 7.447.06.016 19.255 4.941 1.3-6.816.59-3.088-15.9-2.01-3.822-.482-.061-.008zm-89.447.084l-20.206 8 1.493 3.176.504 1.068 18.99-10.44.054-.03-.835-1.774zm43.46 0l-.834 1.773 19.043 10.471.504-1.068 1.492-3.176-17.298-6.852zm-110.224 2.541l-.063.008-18.33 2.316 2.35 12.317 17.896-4.596.06-.015-1.913-10.03zm176.988 0l-1.914 10.03.061.015v.002l17.897 4.594 1.173-6.159 1.176-6.158-18.33-2.316-.062-.008zm-108.906.11l-19.045 10.468 2.512 3.963 13.58-9.867 3.953-2.871.05-.037-1.05-1.657zm40.826 0l-1.05 1.656.019.015.03.022 17.532 12.738 2.514-3.96v-.003l-18.99-10.44-.055-.029zm-65.14.206l-.061.016-9.631 2.473-10.658 2.736 2.304 7.09 16.768-6.639 2.709-1.072.059-.023-1.49-4.58zm89.453 0l-1.49 4.58.058.024 19.477 7.71 1.152-3.544 1.153-3.545-20.29-5.209-.06-.016zm-152.608 2.133l-.062.008-16.637 2.102 2.77 14.517 16.242-4.17.06-.015-2.373-12.442zm215.762 0l-2.373 12.44v.002l.06.015 16.243 4.17 1.385-7.26 1.384-7.257-16.636-2.102-.062-.008zm-89.108.125l-1.25 1.512.047.043 15.795 14.834 2.99-3.613-15.97-11.604-1.612-1.172zm-37.546.002l-.051.035-17.531 12.739 2.99 3.613 4.336-4.072 11.459-10.762.047-.043-1.25-1.51zm-106.801 2.108l-.063.008-14.662 1.853 1.57 8.236 1.573 8.235 14.375-3.692-2.793-14.64zm251.148 0l-2.793 14.64v.002l8.66 2.223 5.717 1.467 1.572-8.235 1.57-8.236-14.663-1.854-.062-.008zm-142.412.132l-15.844 14.877 3.42 3.211 13.813-16.697.033-.041.008-.008zm33.676 0l-1.43 1.342.041.049 13.813 16.697 1.71-1.607 1.71-1.606-15.797-14.834-.047-.04zm-82.885.975l-19.312 4.959 3.115 9.592 18.482-7.319.059-.023-2.344-7.209zm132.094 0l-2.344 7.209.06.023 18.481 7.317 3.116-9.59-17.885-4.592-1.428-.367zm-108.916.037l-19.533 7.734 3.173 6.747 4.805-2.643 13.55-7.45.056-.03-2.051-4.358zm85.738 0l-2.05 4.358 18.411 10.123 3.172-6.747-16.765-6.64zm-184.162.842l-.062.008-12.442 1.572 3.463 18.149 8.182-2.1 3.963-1.018.062-.015-3.166-16.596zm282.588 0l-1.584 8.299-1.582 8.297.06.015 12.145 3.117 1.733-9.074 1.73-9.074-12.441-1.572-.061-.008zm-155.934.125l-13.853 16.746 3.795 2.758 2.093-3.301 9.52-14.996.033-.053-1.586-1.154h-.002zm29.278.002l-1.586 1.152.033.053 11.611 18.297 3.795-2.758-13.814-16.697-.04-.047zm-169.43 1.578l-.063.008-10.005 1.266 3.724 19.523 9.77-2.508.06-.015-3.486-18.274zm309.582 0l-3.486 18.273.06.016 9.77 2.508 1.07-5.606 2.655-13.918-9.375-1.185-.631-.08-.062-.008zm-166.998.11l-11.645 18.351 4.11 2.26 9.254-19.666zm24.414 0l-1.719.945.012.025.014.031 9.228 19.61 4.11-2.26-10.325-16.27-1.287-2.029-.033-.053zm-178.06 1.288l-.063.008v-.002l-7.397.936 3.926 20.576 7.221-1.853.06-.016-3.747-19.648zm331.706 0l-3.748 19.649.061.016 7.221 1.853 1.963-10.287 1.963-10.29-7.397-.933-.062-.008zm-175.435.082l-.027.057-9.227 19.61 4.36 1.726h.001l3.127-9.625 3.588-11.045-1.822-.723zm19.164 0l-1.822.721.02.06 6.697 20.61 4.359-1.725-9.227-19.609-.027-.057zm-183.889.985l-.062.008-4.654.59 4.06 21.285 4.545-1.166.06-.016-3.949-20.7zm348.614 0l-3.95 20.701.061.016 4.545 1.166 1.16-6.078 2.9-15.208-4.653-.59-.062-.007zm-181.114.047l-6.716 20.67 4.543 1.166 2.957-15.496 1.103-5.791.012-.061-1.512-.389-.387-.1zm13.614 0l-1.899.488.012.06 4.06 21.288 2.272-.582 2.271-.584-6.068-18.682-.627-1.928-.02-.06h-.001zm-93.139.113l-8.043 2.064-9.912 2.545 3.873 11.926 17.18-6.8.058-.024-3.156-9.71zm172.664 0l-3.156 9.709.059.023v.002l17.18 6.801 1.937-5.963 1.937-5.963-17.957-4.609zm-126.668.063l-.055.029-7.724 4.246-10.633 5.846 3.996 6.295 9.863-7.168 7.082-5.145.051-.037-2.58-4.066zm80.672 0l-2.58 4.066.05.037 16.948 12.313 1.996-3.147 1.998-3.148-18.357-10.092-.055-.03zm-220.354.5l-.062.008-1.82.23 4.129 21.643 1.777-.455.06-.016-4.084-21.41zm176.092 0l-.011.06-1.43 7.494-2.631 13.793 4.654.588 1.362-21.627.004-.062-1.948-.246zm7.852 0l-1.947.246 1.365 21.69 2.328-.296 2.326-.293-4.06-21.287-.012-.06zm176.092 0l-4.084 21.41.06.015 1.777.455 4.129-21.642-1.82-.23-.062-.009zm-180.998.308l-.004.063-.66 10.486-.702 11.14h4.692l-1.366-21.689h-1.96zm-62.356 2.06l-18.541 7.34 4.295 9.126 6.264-3.444 11.156-6.133.053-.029h.002l-3.229-6.86zm126.672 0l-3.229 6.86.055.03 17.42 9.576 4.295-9.125-18.482-7.319-.06-.021zm-168.596 1.928l-16.3 4.186 2.283 7.027 2.283 7.028 14.074-5.573 1.516-.6.058-.023-3.914-12.045zm210.52 0l-3.914 12.045.059.024 15.59 6.172 4.568-14.055-15.059-3.865-1.244-.32zm-142.428.079l-16.996 12.35 2.375 2.872 2.377 2.871 15.27-14.338.044-.043-3.07-3.713zm74.336 0l-3.07 3.712.045.043 15.27 14.338 2.376-2.87 2.375-2.874-9.863-7.168-7.082-5.144-.051-.037zm-159.701 4.357l-14.375 3.691 2.59 7.973 2.591 7.973 11.815-4.678 1.926-.762.058-.023-4.605-14.174zm245.066 0l-4.605 14.174.059.023 13.74 5.44 2.592-7.973 2.59-7.973-14.375-3.691zm-155.945.084l-.027.025-.02.018-15.267 14.34 4.875 4.578.558.525 13.352-16.14.017-.022.018-.02.006-.007-3.512-3.297zm66.824 0l-3.512 3.297.041.049 13.352 16.14 2.719-2.552 2.716-2.551-15.269-14.34-.047-.043zm-116.22 1.262l-17.237 6.826 5.338 11.344 15.11-8.307 1.081-.594.057-.031-4.35-9.238zm165.615 0l-4.346 9.238.055.031 16.191 8.9 5.34-11.345-17.24-6.824zm-142.432.025l-17.475 9.607 5.405 8.516 12.677-9.21 3.403-2.473.05-.038-4.06-6.402zm119.252 0l-4.063 6.402.051.038 16.08 11.683 2.704-4.258 2.7-4.258-9.69-5.328-7.727-4.248-.055-.03zm-197.506 2.568l-.06.016-5.774 1.482-6.373 1.635 5.711 17.574 11.658-4.617.059-.023-5.22-16.067zm275.758 0l-5.22 16.067.058.023 10.299 4.078 1.36.54 5.71-17.575-12.146-3.117-.061-.016zm-167.01.08l-13.392 16.188 6.03 4.383 4.095-6.451 7.13-11.237.034-.052-3.897-2.83zm58.262 0l-3.897 2.83.034.053 11.224 17.688 3.016-2.192 3.015-2.191-13.353-16.14-.04-.048zm121.926 3.303l-2.473 7.61-3.275 10.084 9.433 3.734 3.072-9.451 3.07-9.453-9.767-2.508-.06-.016zm-302.114.002l-.06.014-9.768 2.508 3.07 9.453 3.073 9.451 8.447-3.344.928-.367.058-.023-5.748-17.692zm175.444.06l-4.219 2.321.027.059 8.918 18.953 4.496-2.47 2.037-1.122-11.257-17.74h-.002zm-48.776.003l-.033.052-6.637 10.46-4.587 7.226 6.533 3.592 8.918-18.953.027-.057-4.22-2.32zm125.367 1.152l-5.392 11.46.055.03v.002l14.693 8.076 6.293-13.373-15.592-6.171-.057-.024zm-201.957.002l-.056.022-5.606 2.218-9.986 3.953 6.293 13.374 14.693-8.079.055-.03-2.853-6.065-2.54-5.393zm46.002.041l-16.13 11.72 6.427 7.77 9.977-9.367 4.514-4.238.046-.043-4.834-5.842zm109.954 0l-4.834 5.842.027.025.02.018 14.49 13.605 6.427-7.77-12.677-9.21-3.403-2.473-.05-.037zm-216.834 1.514l-.06.015-3.42.877-3.802.977 6.475 19.922 6.32-2.502.61-.242.058-.024-6.181-19.023zm323.714 0l-3.091 9.511-3.09 9.512v.002l.057.022 6.93 2.744 6.474-19.922-7.22-1.854-.062-.015zm-181.119.037l-.027.056-3.799 8.073-5.12 10.88 6.93 2.745 6.473-19.922.02-.059-4.477-1.773zm38.524 0l-4.477 1.771.02.06 4.216 12.983 2.256 6.94 6.932-2.744-.04-.082-8.907-18.928zm-97.24 1.328l-.055.03-16.192 8.902 6.72 10.588 11.646-8.461 3.302-2.4.051-.038-5.473-8.621zm155.956 0l-5.47 8.621.049.037 14.95 10.862 3.358-5.295 3.36-5.293-16.192-8.903-.055-.029zm-248.087.754l-.06.016-2.155.552-2.389.614 6.695 20.609 3.819-1.512.543-.215.058-.023-6.511-20.041zm156.277 0l-3.986 12.264-2.508 7.718 7.22 1.854 3.926-20.576.012-.063-4.664-1.197zm27.664 0l-4.664 1.197.012.063 3.925 20.576 3.61-.928 3.611-.926-6.492-19.982h-.002zm156.277 0l-3.257 10.021-3.254 10.02.01.004.049.02 4.361 1.726 6.695-20.61-4.543-1.165-.06-.016zm-178.295 1.385l-.011.062-2.758 14.453-1.168 6.123 7.396.934 1.317-20.906.004-.063-4.78-.603zm16.372 0l-4.78.603 1.32 20.969 7.397-.934-3.926-20.576-.011-.062zm-183.872.047l-.06.015-.844.215-.933.24 6.81 20.957 1.139-.45.566-.226.059-.023-6.737-20.728zm351.37 0l-6.735 20.728.035.014.023.01 1.475.584.232.092 6.809-20.957-1.778-.456-.062-.015zm-178.092.619l-.004.062-.559 8.877-.758 12.03h7.457l-1.32-20.97h-4.816zm119.967.838l-6.346 13.486.039.023.016.008 12.951 7.12 3.57-7.586 3.57-7.586-11.73-4.645-2.012-.797-.059-.023zm-235.12.002l-.056.021-13.742 5.442 7.14 15.171 7.264-3.992 5.687-3.127.055-.031-6.348-13.484zm68.102.046l-.045.043-10.86 10.198-3.63 3.41 7.351 6.902 6.014-7.27 6.656-8.044.034-.041.008-.008-5.528-5.19zm98.918 0l-5.527 5.19.04.049 12.67 15.314 7.352-6.902-14.49-13.608-.045-.043zm-144.563 5.725l-.054.03-14.696 8.078v.002l7.92 12.476 10.725-7.793 2.842-2.064.05-.037-6.787-10.692zm190.207 0l-6.787 10.692.051.037 13.567 9.857 7.92-12.477v-.002l-14.696-8.078-.055-.029zm-23.185.014l-6.508 7.869 13.514 12.691 7.994-9.662-14.95-10.861-.05-.037zm-143.836.002l-.05.035-14.95 10.861 7.994 9.662 13.514-12.691-6.508-7.867zm-60.373.045l-11.717 4.638 7.867 16.72 10.989-6.042.054-.031-7.193-15.285zm264.582 0l-7.193 15.285.055.031v.002l10.988 6.04 7.867-16.72-6.724-2.664-4.993-1.974zm-175.453.043l-12.71 15.363 8.16 5.928 10.65-16.783.033-.053-6.133-4.455zm86.324 0l-6.133 4.455.033.052 10.65 16.784 4.081-2.963 4.078-2.965-5.627-6.803-7.082-8.56zm-188.101 4.965l-9.436 3.734 8.463 17.986 4.885-2.683 3.953-2.174.054-.031-5.384-11.448-2.535-5.384zm289.878 0l-7.92 16.832.053.03 8.838 4.858 1.766-3.752 6.697-14.234-9.435-3.734zm-181.123.027l-10.685 16.836 8.838 4.857 8.49-18.043zm72.368 0l-6.643 3.65 8.488 18.043 8.838-4.86-.46-.726zm-146.914 3.496l-.055.03-12.951 7.118 8.984 14.159 11.957-8.688.05-.037-7.985-12.582zm221.46 0l-7.986 12.582.051.037 11.957 8.688 8.984-14.159-12.95-7.119-.056-.03zm-46.005.02l-7.444 6.99.041.048 11.778 14.237 4.57-4.293 4.57-4.291-13.469-12.649-.047-.043zm-129.45.001l-13.515 12.69 9.14 8.584 11.778-14.236.023-.028.01-.011.008-.01-7.443-6.989zm-90.584.559l-.043.018-.013.006-2.276.9-4.656 1.844 8.92 18.955 2.707-1.488 3.824-2.104.055-.031-8.518-18.1zm126.674.002l-.027.057-8.465 17.984 9.377 3.713 6.145-18.904.02-.061-7.05-2.789zm57.27 0l-3.526 1.395-3.521 1.396.017.059 6.145 18.904 9.377-3.713-8.465-17.984-.027-.057zm126.674 0l-8.518 18.098.055.03v.003l6.531 3.59 4.46-9.477 4.458-9.478-6.931-2.744-.057-.022zm-243.038 2.328l-.05.037-13.567 9.856 9.42 11.386 12.225-11.478.045-.043-8.073-9.758zm175.458 0l-8.073 9.758.045.043 12.225 11.478 9.42-11.386-13.617-9.893zm-108.364.772l-.02.058-3.974 12.229-2.17 6.676 6.043 1.552 3.727.955 3.724-19.523.012-.063-7.342-1.884zm41.27 0l-7.342 1.884.012.063 3.724 19.523 3.727-.955 6.043-1.552-6.164-18.963zm142.594.035l-8.971 19.068.053.031 4.11 2.258 9.226-19.607-4.362-1.727-.059-.023zm-326.46.002l-.056.021-1.356.537-3.005 1.19 9.226 19.607 4.164-2.289-6.101-12.965-2.871-6.101zm150.92 2.035l-.004.02-.008.04-3.724 19.526 10.006 1.265 1.248-19.84.004-.06-7.522-.951zm24.622 0l-7.522.951 1.252 19.9 5.002-.632 5.004-.633-3.725-19.526-.011-.06zm-180.893.082l-.057.023-.388.155-1.319.521 9.381 19.94 1.61-.887.054-.031-9.281-19.721zm337.162 0l-9.28 19.72.056.032v.002l1.61.883 9.38-19.938-1.707-.676-.059-.023zm-172.371.93l-.004.064-.605 9.62-.643 10.218h10.086l-1.252-19.902h-7.582zm-120.824.867l-.055.03-10.988 6.038 7.953 12.533 1.947 3.07 7.992-5.808 2.153-1.562.05-.038-9.052-14.263zm249.23 0l-9.053 14.262 10.196 7.408 9.9-15.6-6.008-3.303-4.98-2.738-.055-.03zm-181.127.015l-.039.047-11.777 14.239 10.144 7.37 1.036-1.632 8.865-13.969.033-.053-8.262-6.002zm113.024 0l-8.262 6.002.033.053 9.902 15.6 5.073-3.684 5.07-3.685-5.334-6.45-6.443-7.789-.04-.047zm-158.668 5.745l-.051.037-11.957 8.685 10.69 12.92 10.818-10.158-9.5-11.484zm204.312 0l-9.5 11.484.045.043 10.774 10.115 9.08-10.973 1.61-1.947-12.009-8.722zm-181.127.004l-.027.025-.02.018-12.222 11.48 10.773 10.117 10.688-12.922.039-.048-9.23-8.67zm157.942 0l-9.23 8.67.038.048 10.688 12.922 5.386-5.058 5.387-5.06-12.223-11.48-.047-.043zm-215.508.789l-.055.029-3.486 1.916-5.352 2.943 10.65 16.783 6.038-4.386 2.123-1.541.05-.037-9.968-15.707zm89.13 0l-9.933 15.654 10.988 6.04.78-1.657 7.088-15.06.027-.057-8.95-4.92zm94.813 0l-8.949 4.92.027.056 7.868 16.719 5.494-3.02 5.494-3.021-3.98-6.272-5.92-9.33-.034-.052zm89.131 0l-9.969 15.707.051.037 8.16 5.927 5.327-8.39 5.324-8.393-8.838-4.86-.055-.028zm-174.09 5.345l-.013.028-7.881 16.746 11.66 4.617 4.773-14.692.936-2.88.02-.06-9.495-3.759zm75.106 0l-9.494 3.758.02.06 5.71 17.573 2.492-.986 9.166-3.631-7.867-16.717-.027-.057zm-183.862.028l-.015.008-.04.021-6.532 3.59 11.224 17.687 2.078-1.51 3.953-2.872.051-.037-10.719-16.887zm292.618 0l-10.72 16.886.052.037 6.031 4.383 5.613-8.844 5.612-8.843-6.534-3.59-.055-.03zm-261.284 3.146l-10.195 7.408 11.777 14.237 2.127-1.998 7.014-6.586.047-.043-10.77-13.018zm46.008 0l-.04.049-6.128 7.406-4.562 5.514 11.957 8.687 1.713-2.699 7.273-11.459.033-.053zm137.934 0l-10.246 7.445.035.053 8.984 14.158 5.979-4.343 5.978-4.344-10.69-12.92-.04-.049zm46.008 0l-10.77 13.018.027.025.02.018 9.14 8.584 5.888-7.12 5.89-7.119-10.145-7.369-.051-.037zm-142.082.895l-.02.058-5.709 17.574 12.145 3.118 2.578-13.514.885-4.637.011-.06-9.89-2.54zm54.214 0l-9.89 2.537.011.062 3.463 18.15 4.52-1.16 7.627-1.959-5.711-17.572-.02-.058zm-180.88.062l-4.166 2.29 11.61 18.298 3.847-2.797zm307.548 0l-11.293 17.791 3.846 2.795 5.807-9.148 5.804-9.149-4.109-2.26-.055-.029zm-245.746 1.943l-.027.026-.02.017-10.773 10.118 12.225 11.478 9.42-11.387.03-.039.01-.01-10.865-10.203zm183.942 0l-10.866 10.204.041.048 9.42 11.387 6.114-5.738 6.111-5.74-10.773-10.118-.047-.043zm-108.205.72l-.012.062-1.256 6.58-2.207 11.57 12.441 1.572 1.16-18.441.005-.063-10.131-1.28zm32.468 0l-10.13 1.28 1.164 18.504 6.22-.787 6.221-.785-3.463-18.15-.012-.063zm-175.052.11l-.055.03-.572.314-1.037.57 11.806 18.606 1.102-.8.385-.28.05-.037-11.68-18.402zm317.636 0l-11.677 18.403.05.037 1.485 1.08 11.807-18.605-1.61-.885-.055-.03zm-163.923 1.233l-.004.062-.563 8.942-.598 9.5h12.54l-1.165-18.504h-10.21zm-52.772 3.018l-9.02 14.21 12.952 7.122 7.14-15.174.028-.057-11.1-6.101zm115.754 0l-11.098 6.101.012.027.014.03 7.14 15.174 12.952-7.122-8.986-14.158-.033-.052zm68.103.015l-11.857 14.334.045.043 7.352 6.904 12.671-15.316-8.16-5.928-.05-.037zm-251.96.002l-.051.035-8.16 5.928 12.671 15.316 4.717-4.431 2.68-2.516-11.857-14.332zm45.644 5.744l-9.459 11.436 13.565 9.855 1.87-2.949 6.05-9.53.033-.052-12.059-8.76zm160.672 0l-12.059 8.76.033.053 7.92 12.478 13.565-9.855-4.288-5.184-5.171-6.252zm-183.857.004l-9.186 8.627 13.469 12.649 7.992-9.662.039-.05-12.314-11.564zm207.042 0l-12.314 11.565.039.049 7.992 9.662 1.664-1.563 11.805-11.086-5.832-5.478-3.354-3.149zm-149.394.762l-.027.057-7.139 15.173 13.74 5.44 5.182-15.947.02-.06-11.776-4.663zm91.746 0l-11.775 4.662.02.06 5.18 15.948 13.743-5.442-7.14-15.171-.028-.057zm-180.875.043l-.05.037-2.684 1.95-3.348 2.431 13.354 16.14 5.478-5.146-12.75-15.412zm270.004 0l-12.75 15.412 5.478 5.147 13.354-16.141zm-168.147 4.93l-5.203 16.008 14.315 3.673 3.142-16.47.012-.063-12.266-3.148zm66.291 0l-12.267 3.148.012.063 3.142 16.47 7.158-1.838 7.157-1.835-5.182-15.95-.02-.058zm-175.04.078l-3.846 2.795 13.812 16.695 3.465-3.254zm283.788 0l-13.431 16.238.03.03 2.948 2.765.486.457 6.907-8.348 6.906-8.347-3.432-2.494-.414-.301zm-161.79 3.258l-.012.062-1.145 5.996-1.998 10.475 14.662 1.853 1.055-16.736.004-.063-12.566-1.587zm39.792 0l-12.566 1.587 1.059 16.8 7.33-.926 7.332-.928-3.143-16.47-.012-.063zm126.657.125l-13.895 16.795.047.043 1.338 1.255 14.045-16.976-1.3-.947-.184-.133-.051-.037zm-293.104.002l-1.314.953-.223.162 14.047 16.976 1.338-1.255.045-.043-13.893-16.793zm79.12.093l-.038.055-7.916 12.479 14.694 8.078 6.293-13.373.027-.057-13.06-7.182zm134.863 0l-13.059 7.182 6.318 13.43 14.694-8.078-4.569-7.202-3.35-5.277-.034-.055zm46.005.022l-6.779 6.367-6.78 6.367.04.049 6.428 7.77 12.367-11.612 2.123-1.994-4.717-4.432-2.635-2.472-.045-.043zm-226.876.002l-.028.023-.017.018-7.352 6.906 14.49 13.606 6.428-7.772.04-.049-13.561-12.732zm107.107 1.406l-.004.063-.512 8.115-.543 8.62h14.782l-1.06-16.798h-12.663zm-84.102 1.482l-.04.05-7.993 9.661 14.947 10.862 3.49-5.502 3.23-5.088.032-.053-13.666-9.93zm180.868 0l-13.666 9.93.033.053 6.718 10.59 10.17-7.389 4.778-3.473-3.56-4.306-4.433-5.356-.04-.049zm-143.899 4.696l-6.32 13.43 15.59 6.171 4.568-14.054.02-.06-13.858-5.487zm106.932 0l-13.858 5.486 4.586 14.115 15.59-6.172-6.29-13.373-.028-.056zm-175.033.047l-5.48 5.148 15.269 14.338 3.707-4.482 1.045-1.262.039-.049-14.58-13.693zm243.132 0l-14.58 13.693.04.049 4.751 5.744 15.27-14.34-5.434-5.103-.047-.043zm-197.488 5.724l-6.754 10.64 16.194 8.901 5.337-11.345.028-.057-14.805-8.139zm151.844 0l-14.805 8.139.027.057 5.338 11.345 16.194-8.9-6.754-10.64zm-175.027.016l-.041.049-6.428 7.771 16.08 11.684.406-.64 4.998-7.876.033-.053-15.048-10.935zm198.21 0l-15.048 10.935.033.053 5.404 8.516 11.086-8.055 4.994-3.629-6.428-7.771-.04-.05zm-137.761.01l-.02.059-2.982 9.173-1.586 4.883 16.242 4.168 2.77-14.516.011-.062-14.435-3.705zm77.312 0l-14.435 3.705.011.062 2.77 14.516 8.121-2.084 8.121-2.084-4.568-14.057-.02-.058zm-166.433.084l-.034.03-.013.013-3.418 3.21 15.797 14.833 3.029-3.66-15.361-14.426zm255.554 0l-7.68 7.213-7.681 7.213 3.03 3.66 7.898-7.416 7.898-7.416-3.418-3.211-.012-.012-.035-.031zm-151.015 3.809l-.012.062-1.002 5.252-1.768 9.264 16.637 2.103.928-14.75.004-.062-14.787-1.87zm46.476 0l-14.787 1.869.932 14.812 8.318-1.05 8.319-1.053-2.77-14.516-.012-.062zm-155.213.132l-.033.032-.012.01-1.337 1.257L842.705 681l.461-.556.709-.858.04-.049-5.184-4.867-10.706-10.05zm263.948 0l-15.887 14.918.039.05 1.17 1.413 16.062-15.084-1.338-1.256-.047-.04zm-139.424 1.8l-.934 14.812h16.77l-.932-14.813zm-52.76 2.714l-5.367 11.402 17.18 6.803 3.478-10.705.397-1.22.02-.061-15.708-6.219zm120.424 0l-15.707 6.22 3.894 11.985 17.178-6.803zm-166.426.043l-.04.049-4.753 5.744 16.947 12.31 3.995-6.292.033-.053-16.182-11.758zm212.426 0l-16.182 11.758.033.052 3.997 6.295 16.945-12.312-1.969-2.38-2.783-3.364-.041-.049zm-189.426 2.879l-5.437 8.568 17.42 9.576 4.293-9.125.027-.056-16.303-8.963zm166.426 0l-16.303 8.963.027.056 4.293 9.125 8.711-4.789 8.71-4.787-1.712-2.697-3.693-5.818-.033-.053zm-126.766 3.607l-.02.059-3.874 11.926 17.896 4.593.774-4.054 1.576-8.262.012-.06-16.364-4.202zm87.106 0l-16.364 4.2.012.062 2.35 12.316 8.949-2.294 8.947-2.3-3.185-9.806zm-155.198.078l-.002.004-.039.045-2.988 3.616 17.53 12.736.872-1.375 1.641-2.586.033-.053-17.047-12.386zm223.29 0l-17.047 12.387.033.053 2.513 3.96 17.53-12.736-2.358-2.851-.63-.764-.04-.047v-.002zm-137.852 4.309l-.012.063-1.845 9.671-.504 2.645 18.332 2.318.787-12.515.004-.063-16.762-2.119zm52.414.002l-16.762 2.117.791 12.578 18.332-2.318-2.35-12.316-.01-.061zm-141.52.125l-.04.049-.667.805-.505.609 17.828 12.951 1.015-1.603-8.814-6.405-8.816-6.406zm230.626 0l-17.631 12.813.033.052.984 1.549 17.826-12.951-1.172-1.414-.04-.049zm-181.317 1.268l-.027.056-4.295 9.125 18.482 7.317 1.426-4.385 1.69-5.207.019-.059-17.295-6.847zm132.008 0l-17.295 6.847.02.059 3.12 9.592 18.48-7.317-4.323-9.181zm-155.191.025l-4.028 6.348 18.356 10.091 3.2-6.802zm178.375 0l-17.53 9.637.025.056 3.176 6.746 9.178-5.045 9.177-5.046-3.994-6.295-.033-.053zm-97.635.762l-.004.062-.381 6.069-.406 6.447h18.476l-.79-12.578h-16.895zm-39.309 6.369l-1.885 5.797-1.254 3.853 11.989 3.078 7.265 1.866 1.444-7.563.447-2.344.012-.06-14.338-3.682-3.68-.945zm95.512 0l-18.018 4.627.012.06 1.89 9.907 7.266-1.866 11.989-3.078-3.118-9.59-.019-.06zm-141.508.064l-2.547 4.014 18.988 10.44 1.999-4.247.011-.023.006-.012.01-.021-18.467-10.15zm187.504 0l-18.467 10.15.027.057 1.998 4.246 18.989-10.439-1.348-2.125-1.2-1.889zm-23 2.868l-18.598 7.363.02.06 2.304 7.09 19.477-7.71-3.176-6.747-.027-.056zm-141.504.002l-3.201 6.8 19.474 7.711 2.305-7.09.02-.06-18.598-7.361zm41.996 1.88l-.012.06-.699 3.667-1.191 6.24 19.72 2.492.635-10.064.004-.063-9.228-1.168-9.229-1.164zm57.512 0l-18.457 2.332.639 10.127 9.859-1.246 9.861-1.246-1.89-9.906-.012-.06zm-125.592.11l-1.018 1.603 19.31 10.616.78-1.663.028-.056-19.1-10.5zm193.672 0l-19.1 10.5.027.056.782 1.662 19.308-10.615-1.018-1.603zm-106.137 2.285l-.004.062-.308 4.88-.327 5.185h19.88l-.64-10.127h-18.6zm-41.902 3.396l-.02.059-2.304 7.09 20.29 5.209.087-.451 1.31-6.871.002-.01.01-.047v-.004l-19.375-4.975zm102.406 0l-19.375 4.973.002.01.01.053 1.397 7.322 20.29-5.209-2.304-7.09-.02-.058zm23.178.036l-19.594 7.757.02.06 1.448 4.462 20.149-7.977-1.996-4.246-.027-.056zm-148.76.002l-2.025 4.3 20.148 7.977 1.315-4.049.134-.412.02-.06-19.592-7.756zm43.533 5.123l-1.408 7.384 20.781 2.627.47-7.441.003-.063-19.846-2.507zm61.692.002L971 706.874l.473 7.503 20.78-2.627-1.396-7.322-.011-.06zm-107.676.082l-.027.056-.34.721-.444.94 20.489 8.11.566-1.743.02-.06-20.264-8.024zm153.66 0l-20.264 8.023.02.06.566 1.747 20.486-8.114-.808-1.716zm-86.832 2.486l-.004.062-.227 3.608-.242 3.834h20.95l-.473-7.504h-20.004zm-43.834.373l-.02.059-1.449 4.463 20.989 5.386.88-4.607.012-.06-20.412-5.241zm107.672 0l-10.207 2.62-10.205 2.62.012.06.88 4.608 20.989-5.386-1.315-4.051-.154-.47zm-86.277 5.428l-.012.06-.356 1.864-.525 2.744 21.5 2.717.295-4.682.004-.063-20.906-2.64zm64.882 0l-20.906 2.64.299 4.745 21.5-2.717-.88-4.608-.013-.06zm-88.054.047l-.348 1.068-.24.736 21.342 5.479.312-1.627.033-.176h-.002l.012-.06-15.691-4.03-5.418-1.39zm111.228 0l-21.111 5.418.012.062.343 1.803 21.342-5.479-.289-.89zm-66.152 2.656l-.004.062-.121 1.92-.174 2.762h21.672l-.299-4.744h-21.074zm-22.983 2.95l-.357 1.864 21.861 2.764.116-1.834.004-.06-21.623-2.735zm67.041.001l-10.812 1.365-10.813 1.368.12 1.894 21.861-2.764-.344-1.802-.011-.06zm-44.42 2.793l-.003.065-.057.888-.059.944h22.036l-.12-1.897h-21.797z" style="line-height:normal;text-indent:0;text-align:start;text-decoration-line:none;text-decoration-style:solid;text-decoration-color:#000;text-transform:none;white-space:normal;isolation:auto;mix-blend-mode:normal;solid-color:#000;solid-opacity:1" color="#000" font-weight="400" font-family="sans-serif" overflow="visible" fill="#000" enable-background="accumulate" stroke="none"/><g transform="translate(-79.196 200.818)" fill-rule="evenodd" stroke="none"><circle cx="991.364" cy="464.817" r="33.826" fill="url(#b)"/><circle r="6.821" cy="464.817" cx="991.364" fill="green"/></g><g transform="translate(-147.078 86.267)" fill-rule="evenodd" stroke="none"><circle r="32.916" cy="464.817" cx="991.364" fill="url(#c)"/><circle cx="991.364" cy="464.817" r="6.821" fill="green"/></g><g transform="matrix(.83615 0 0 .83615 50.71 56.36)" fill-rule="evenodd" stroke="none"><circle cx="991.364" cy="464.817" r="48.826" fill="url(#d)"/><circle r="6.821" cy="464.817" cx="991.364" fill="green"/></g><g stroke="green" stroke-width="14.706"><path d="M960 350.142v379.716M1149.858 540H770.142" stroke-width="5.58416232"/></g><path d="M960 343.388c-108.552 0-196.612 88.06-196.612 196.612 0 108.552 88.06 196.612 196.612 196.612 108.552 0 196.612-88.06 196.612-196.612 0-108.552-88.06-196.612-196.612-196.612zm0 5.693c105.475 0 190.92 85.444 190.92 190.919 0 105.475-85.445 190.92-190.92 190.92S769.08 645.474 769.08 540 854.526 349.08 960 349.08z" style="line-height:normal;text-indent:0;text-align:start;text-decoration-line:none;text-decoration-style:solid;text-decoration-color:#000;text-transform:none;white-space:normal;isolation:auto;mix-blend-mode:normal;solid-color:#000;solid-opacity:1" color="#000" font-weight="400" font-family="sans-serif" overflow="visible" fill="#000" fill-rule="evenodd" enable-background="accumulate" stroke="none"/><path d="M960 540l34.86-180.067 63.84 25.477z" fill="url(#e)" fill-rule="evenodd" filter="url(#f)" stroke="none"/><path d="M960 540l34.86-180.067 9.087 2.127z" fill="#0f0" fill-rule="evenodd" stroke="none"/></g></svg>