<svg xmlns="http://www.w3.org/2000/svg" viewBox="0 0 1920 1080" height="1152" width="2048"><defs><clipPath clipPathUnits="userSpaceOnUse" id="a"><path fill="#520" stroke-width="20" d="M-243.452 301.14H428.57v378.012h-672.022z"/></clipPath></defs><g transform="matrix(2.85705 0 0 2.85705 695.554 -860.371)" clip-path="url(#a)" fill-rule="evenodd" color="#000" font-weight="400" font-family="sans-serif"><path d="M670.997 363.536c-31.002 161.411-73.532 259.024-121.195 318.66a295.745 295.745 0 0 1-14.803 17.158c-47.868 51.29-100.245 69.415-154.522 78.285a569.658 569.658 0 0 1-19.683 2.844c-57.99 7.41-117.485 6.78-172.01 28.255a224.02 224.02 0 0 0-9.238 3.878c-55.11 24.606-102.85 74.735-135.309 177.629a593.788 593.788 0 0 0-3.288 10.785 12430206.91 12430206.91 0 0 0 19.183 5.654c29.372-99.668 70.08-146.393 117.432-170.926a193.56 193.56 0 0 1 10.135-4.879c50.713-22.643 110.247-22.504 172.102-30.114 1.175-.145 2.352-.292 3.528-.442 63.119-8.066 128.832-25.755 186.292-87.323a305.138 305.138 0 0 0 3.422-3.728c54.88-60.795 101.83-161.499 135.577-331.628.678-3.418 1.35-6.863 2.018-10.337l-19.64-3.771" style="line-height:normal;text-indent:0;text-align:start;text-decoration-line:none;text-decoration-style:solid;text-decoration-color:#000;text-transform:none;block-progression:tb;white-space:normal;isolation:auto;mix-blend-mode:normal;solid-color:#000;solid-opacity:1" overflow="visible" opacity=".93" fill="#001801"/><path d="M658.687 358.432c-30.883 160.558-73.26 257.575-120.742 316.808a293.639 293.639 0 0 1-14.746 17.04c-47.636 50.896-99.757 68.862-153.773 77.66a568.77 568.77 0 0 1-19.576 2.818c-57.673 7.347-116.84 6.74-171.068 28.099a222.834 222.834 0 0 0-9.187 3.856c-54.83 24.48-102.33 74.341-134.614 176.624a310.193 310.193 0 0 0-3.126 10.65c.086.03 14.953 4.415 18.37 5.422.447.13.701.202.702.2 29.245-99.097 69.775-145.504 116.93-169.866 3.328-1.72 6.69-3.33 10.083-4.841 50.44-22.462 109.651-22.327 171.174-29.889 1.169-.143 2.338-.29 3.509-.44 62.785-8.015 128.156-25.595 185.323-86.75a303.307 303.307 0 0 0 3.406-3.706c54.65-60.434 101.396-160.56 134.988-329.733.667-3.363 1.28-6.765 1.879-10.196-.09-.02-19.532-3.756-19.532-3.756" style="line-height:normal;text-indent:0;text-align:start;text-decoration-line:none;text-decoration-style:solid;text-decoration-color:#000;text-transform:none;block-progression:tb;white-space:normal;isolation:auto;mix-blend-mode:normal;solid-color:#000;solid-opacity:1" overflow="visible" opacity=".932" fill="#002206"/><path d="M646.376 353.329c-30.763 159.704-72.987 256.126-120.289 314.955a291.55 291.55 0 0 1-14.688 16.923c-47.404 50.5-99.27 68.308-153.024 77.032a567.944 567.944 0 0 1-19.47 2.795c-57.355 7.284-116.192 6.7-170.125 27.942a221.66 221.66 0 0 0-9.136 3.834c-54.549 24.354-101.809 73.947-133.92 175.619-1.079 3.42-2.038 6.935-2.962 10.517.172.057 14.904 4.408 18.266 5.398.442.125.692.194.694.189 29.118-98.526 69.47-144.614 116.427-168.805a191.783 191.783 0 0 1 10.033-4.803c50.167-22.281 109.055-22.15 170.244-29.664 1.163-.142 2.326-.288 3.49-.436 62.453-7.967 127.48-25.436 184.355-86.18a301.323 301.323 0 0 0 3.39-3.682c54.42-60.075 100.963-159.62 134.399-327.839.656-3.309 1.21-6.666 1.74-10.055-.18-.039-19.424-3.74-19.424-3.74" style="line-height:normal;text-indent:0;text-align:start;text-decoration-line:none;text-decoration-style:solid;text-decoration-color:#000;text-transform:none;block-progression:tb;white-space:normal;isolation:auto;mix-blend-mode:normal;solid-color:#000;solid-opacity:1" overflow="visible" opacity=".907" fill="#002512"/><path d="M634.065 348.225C603.422 507.076 561.351 602.902 514.23 661.33a289.455 289.455 0 0 1-14.63 16.805c-47.174 50.105-98.784 67.754-152.276 76.405a567.087 567.087 0 0 1-19.363 2.77c-57.038 7.221-115.546 6.66-169.182 27.785a220.468 220.468 0 0 0-9.087 3.814C95.425 813.135 48.405 862.46 16.467 963.52c-1.06 3.364-1.952 6.839-2.798 10.383.257.086 14.856 4.4 18.162 5.375.436.12.683.185.685.178 28.992-97.954 69.166-143.725 115.925-167.743a190.892 190.892 0 0 1 9.982-4.767c49.895-22.1 108.46-21.971 169.316-29.437 1.156-.142 2.313-.287 3.47-.434 62.12-7.917 126.805-25.277 183.387-85.61a299.734 299.734 0 0 0 3.375-3.658C572.16 628.094 618.5 529.127 651.78 361.864c.646-3.254 1.141-6.567 1.601-9.914-.27-.059-19.315-3.725-19.315-3.725" style="line-height:normal;text-indent:0;text-align:start;text-decoration-line:none;text-decoration-style:solid;text-decoration-color:#000;text-transform:none;block-progression:tb;white-space:normal;isolation:auto;mix-blend-mode:normal;solid-color:#000;solid-opacity:1" overflow="visible" opacity=".906" fill="#003e12"/><path d="M621.754 343.122c-30.523 157.997-72.441 253.228-119.38 311.251a287.368 287.368 0 0 1-14.575 16.687c-46.94 49.711-98.296 67.2-151.526 75.779a566.286 566.286 0 0 1-19.256 2.745c-56.721 7.159-114.9 6.62-168.24 27.629a219.304 219.304 0 0 0-9.036 3.792C85.754 805.106 38.975 854.163 7.211 954.613c-1.044 3.308-1.866 6.742-2.635 10.248.343.115 14.808 4.395 18.059 5.353.429.116.673.177.676.167C52.176 873 92.172 827.546 138.734 803.7a190.006 190.006 0 0 1 9.93-4.73c49.623-21.918 107.865-21.793 168.388-29.211 1.15-.141 2.3-.285 3.45-.431 61.787-7.867 126.13-25.118 182.42-85.038a297.905 297.905 0 0 0 3.359-3.635c53.957-59.354 100.093-157.742 133.218-324.05.635-3.2 1.071-6.469 1.462-9.773-.36-.078-19.207-3.71-19.207-3.71" style="line-height:normal;text-indent:0;text-align:start;text-decoration-line:none;text-decoration-style:solid;text-decoration-color:#000;text-transform:none;block-progression:tb;white-space:normal;isolation:auto;mix-blend-mode:normal;solid-color:#000;solid-opacity:1" overflow="visible" opacity=".942" fill="#00380e"/><path d="M609.443 338.018c-30.403 157.145-72.168 251.78-118.927 309.4A285.28 285.28 0 0 1 476 663.987c-46.71 49.316-97.809 66.647-150.777 75.151a565.468 565.468 0 0 1-19.15 2.722c-56.403 7.095-114.253 6.58-167.297 27.471a218.112 218.112 0 0 0-8.985 3.771C76.083 797.078 29.545 845.866-2.046 945.704c-1.026 3.253-1.78 6.647-2.471 10.115.428.144 14.76 4.388 17.955 5.33.423.111.663.169.667.157 28.739-96.812 68.557-141.946 114.921-165.622a189.126 189.126 0 0 1 9.88-4.692c49.35-21.738 107.269-21.615 167.458-28.986 1.143-.14 2.287-.283 3.432-.428 61.453-7.818 125.453-24.958 181.45-84.467a296.084 296.084 0 0 0 3.344-3.612c53.727-58.994 99.659-156.803 132.629-322.154.624-3.146 1-6.371 1.322-9.633-.448-.098-19.098-3.694-19.098-3.694" style="line-height:normal;text-indent:0;text-align:start;text-decoration-line:none;text-decoration-style:solid;text-decoration-color:#000;text-transform:none;block-progression:tb;white-space:normal;isolation:auto;mix-blend-mode:normal;solid-color:#000;solid-opacity:1" overflow="visible" opacity=".926" fill="#003912"/><path d="M597.133 332.915c-30.284 156.29-71.896 250.33-118.474 307.547a283.196 283.196 0 0 1-14.46 16.451c-46.478 48.921-97.322 66.094-150.029 74.525a564.671 564.671 0 0 1-19.042 2.697c-56.086 7.033-113.607 6.54-166.355 27.315a216.92 216.92 0 0 0-8.935 3.75c-53.425 23.849-99.723 72.37-131.14 171.596-1.009 3.196-1.694 6.551-2.309 9.981.515.172 14.712 4.381 17.853 5.307.416.107.653.16.658.146 28.611-96.24 68.253-141.056 114.418-164.561a188.256 188.256 0 0 1 9.83-4.654c49.076-21.557 106.673-21.438 166.529-28.76 1.137-.14 2.274-.282 3.413-.426 61.12-7.768 124.777-24.799 180.482-83.896a294.258 294.258 0 0 0 3.328-3.588c53.495-58.634 99.224-155.864 132.038-320.26.614-3.092.932-6.273 1.184-9.492-.538-.117-18.99-3.678-18.99-3.678" style="line-height:normal;text-indent:0;text-align:start;text-decoration-line:none;text-decoration-style:solid;text-decoration-color:#000;text-transform:none;block-progression:tb;white-space:normal;isolation:auto;mix-blend-mode:normal;solid-color:#000;solid-opacity:1" overflow="visible" opacity=".949" fill="#003b1a"/><path d="M584.822 327.812c-30.164 155.437-71.623 248.88-118.02 305.695A281.117 281.117 0 0 1 452.4 649.84c-46.246 48.526-96.834 65.54-149.28 73.898a563.924 563.924 0 0 1-18.936 2.672c-55.768 6.97-112.96 6.5-165.412 27.159a215.747 215.747 0 0 0-8.884 3.728C56.742 781.02 10.685 829.273-20.559 927.888c-.99 3.14-1.607 6.455-2.145 9.847.6.2 14.663 4.375 17.75 5.284.409.102.643.152.649.135 28.484-95.668 67.948-140.167 113.916-163.5a187.36 187.36 0 0 1 9.778-4.616c48.803-21.376 106.078-21.26 165.6-28.536a730.26 730.26 0 0 0 3.394-.422c60.787-7.719 124.101-24.64 179.514-83.325a292.518 292.518 0 0 0 3.312-3.565c53.265-58.273 98.79-154.925 131.449-318.365.603-3.038.862-6.174 1.045-9.351-.628-.137-18.881-3.662-18.881-3.662" style="line-height:normal;text-indent:0;text-align:start;text-decoration-line:none;text-decoration-style:solid;text-decoration-color:#000;text-transform:none;block-progression:tb;white-space:normal;isolation:auto;mix-blend-mode:normal;solid-color:#000;solid-opacity:1" overflow="visible" opacity=".961" fill="#003a18"/><path d="M572.511 322.708c-30.044 154.584-71.35 247.431-117.566 303.843a279.041 279.041 0 0 1-14.346 16.215c-46.014 48.132-96.347 64.987-148.53 73.272a563.174 563.174 0 0 1-18.83 2.648c-55.451 6.907-112.315 6.46-164.47 27.001-2.96 1.166-5.905 2.4-8.833 3.707C47.072 772.991 1.255 820.976-29.816 918.98c-.972 3.084-1.52 6.359-1.981 9.713.686.23 14.615 4.368 17.646 5.261.403.098.634.144.64.125C14.847 838.98 54.133 794.8 99.903 771.639c3.21-1.627 6.454-3.15 9.728-4.579 48.53-21.195 105.482-21.082 164.671-28.31 1.124-.137 2.249-.277 3.374-.42 60.454-7.668 123.426-24.48 178.546-82.752 1.102-1.165 2.201-2.345 3.297-3.542 53.034-57.914 98.355-153.986 130.859-316.47.591-2.984.791-6.076.905-9.211-.717-.156-18.772-3.647-18.772-3.647" style="line-height:normal;text-indent:0;text-align:start;text-decoration-line:none;text-decoration-style:solid;text-decoration-color:#000;text-transform:none;block-progression:tb;white-space:normal;isolation:auto;mix-blend-mode:normal;solid-color:#000;solid-opacity:1" overflow="visible" opacity=".965" fill="#00401e"/><path d="M560.2 317.605c-29.924 153.73-71.077 245.982-117.112 301.99a276.98 276.98 0 0 1-14.29 16.098c-45.782 47.737-95.859 64.433-147.78 72.645a562.442 562.442 0 0 1-18.724 2.623c-55.133 6.844-111.668 6.42-163.527 26.845a213.375 213.375 0 0 0-8.783 3.686c-52.583 23.47-98.16 71.187-129.056 168.58-.955 3.028-1.435 6.263-1.818 9.579.772.258 14.566 4.361 17.542 5.238.397.093.625.136.632.114C5.515 830.477 44.623 786.615 90.196 763.624a185.613 185.613 0 0 1 9.676-4.541c48.258-21.014 104.887-20.904 163.743-28.084 1.117-.137 2.235-.276 3.355-.417 60.12-7.62 122.75-24.32 177.578-82.182 1.096-1.157 2.19-2.33 3.28-3.519 52.804-57.553 97.921-153.047 130.27-314.575.58-2.93.721-5.978.766-9.07-.807-.176-18.664-3.631-18.664-3.631" style="line-height:normal;text-indent:0;text-align:start;text-decoration-line:none;text-decoration-style:solid;text-decoration-color:#000;text-transform:none;block-progression:tb;white-space:normal;isolation:auto;mix-blend-mode:normal;solid-color:#000;solid-opacity:1" overflow="visible" opacity=".99" fill="#004421"/><path d="M547.89 312.501c-29.805 152.877-70.805 244.533-116.659 300.14A274.913 274.913 0 0 1 417 628.618c-45.55 47.342-95.373 63.88-147.033 72.018a561.787 561.787 0 0 1-18.616 2.6c-54.816 6.78-111.022 6.38-162.585 26.688a212.212 212.212 0 0 0-8.732 3.664C27.73 756.933-17.605 804.382-48.329 901.164c-.937 2.972-1.349 6.167-1.655 9.445.858.287 14.52 4.354 17.44 5.215.39.088.615.128.623.103C-3.817 821.972 35.113 778.43 80.489 755.61c3.176-1.6 6.385-3.098 9.625-4.504 47.984-20.833 104.29-20.726 162.813-27.858 1.111-.135 2.223-.274 3.336-.414 59.788-7.57 122.074-24.161 176.61-81.611a286.975 286.975 0 0 0 3.265-3.495c52.572-57.193 97.487-152.108 129.679-312.681.57-2.875.652-5.88.627-8.93-.896-.194-18.554-3.615-18.554-3.615" style="line-height:normal;text-indent:0;text-align:start;text-decoration-line:none;text-decoration-style:solid;text-decoration-color:#000;text-transform:none;block-progression:tb;white-space:normal;isolation:auto;mix-blend-mode:normal;solid-color:#000;solid-opacity:1" overflow="visible" opacity=".986" fill="#003b24"/><path d="M535.579 307.398c-29.685 152.023-70.532 243.084-116.205 298.287a272.847 272.847 0 0 1-14.175 15.86c-45.32 46.948-94.886 63.327-146.284 71.392a561.106 561.106 0 0 1-18.51 2.575c-54.498 6.718-110.375 6.34-161.642 26.531a211.021 211.021 0 0 0-8.681 3.643c-52.022 23.219-97.117 70.399-127.667 166.57-.92 2.916-1.263 6.07-1.492 9.31.944.316 14.47 4.348 17.336 5.193.384.084.605.12.614.093 27.978-93.384 66.73-136.61 111.908-159.257a183.865 183.865 0 0 1 9.574-4.467c47.712-20.652 103.695-20.549 161.885-27.633a714.18 714.18 0 0 0 3.316-.411c59.455-7.52 121.399-24.002 175.642-81.04a285.237 285.237 0 0 0 3.25-3.472c52.341-56.832 97.052-151.169 129.089-310.786.56-2.82.582-5.78.488-8.788-.986-.215-18.446-3.6-18.446-3.6" style="line-height:normal;text-indent:0;text-align:start;text-decoration-line:none;text-decoration-style:solid;text-decoration-color:#000;text-transform:none;block-progression:tb;white-space:normal;isolation:auto;mix-blend-mode:normal;solid-color:#000;solid-opacity:1" overflow="visible" opacity=".966" fill="#004b29"/><path d="M523.268 302.295c-29.565 151.169-70.26 241.634-115.75 296.434a270.788 270.788 0 0 1-14.12 15.743c-45.087 46.553-94.398 62.773-145.534 70.765a560.481 560.481 0 0 1-18.403 2.55c-54.182 6.656-109.729 6.301-160.7 26.375a209.844 209.844 0 0 0-8.63 3.622C8.388 740.876-36.466 787.788-66.843 883.348c-.902 2.86-1.176 5.975-1.328 9.177 1.03.344 14.422 4.34 17.233 5.17.377.078.595.11.605.081 27.85-92.812 66.425-135.72 111.405-158.196a182.998 182.998 0 0 1 9.524-4.43c47.439-20.47 103.1-20.37 160.955-27.407 1.099-.133 2.198-.27 3.298-.409 59.121-7.47 120.722-23.842 174.673-80.468a283.422 283.422 0 0 0 3.234-3.448c52.111-56.473 96.618-150.23 128.5-308.892.548-2.766.512-5.682.349-8.647-1.077-.235-18.338-3.584-18.338-3.584" style="line-height:normal;text-indent:0;text-align:start;text-decoration-line:none;text-decoration-style:solid;text-decoration-color:#000;text-transform:none;block-progression:tb;white-space:normal;isolation:auto;mix-blend-mode:normal;solid-color:#000;solid-opacity:1" overflow="visible" opacity=".973" fill="#003e27"/><path d="M510.957 297.191c-29.445 150.316-69.986 240.186-115.297 294.583a268.736 268.736 0 0 1-14.061 15.625c-44.856 46.157-93.911 62.22-144.786 70.138a559.848 559.848 0 0 1-18.296 2.526c-53.865 6.592-109.083 6.26-159.757 26.217a208.654 208.654 0 0 0-8.581 3.6c-51.46 22.967-96.075 69.611-126.277 164.56-.885 2.804-1.09 5.879-1.165 9.043 1.115.372 14.374 4.334 17.13 5.146.37.075.585.103.596.071 27.724-92.24 66.12-134.83 110.903-157.135a182.125 182.125 0 0 1 9.472-4.392c47.166-20.29 102.504-20.193 160.027-27.181 1.092-.133 2.185-.268 3.278-.406 58.789-7.422 120.047-23.683 173.706-79.898a281.604 281.604 0 0 0 3.217-3.425c51.88-56.112 96.184-149.29 127.91-306.996.538-2.713.442-5.584.21-8.507-1.166-.254-18.229-3.569-18.229-3.569" style="line-height:normal;text-indent:0;text-align:start;text-decoration-line:none;text-decoration-style:solid;text-decoration-color:#000;text-transform:none;block-progression:tb;white-space:normal;isolation:auto;mix-blend-mode:normal;solid-color:#000;solid-opacity:1" overflow="visible" opacity=".976" fill="#004f2d"/><path d="M498.646 292.088c-29.325 149.462-69.713 238.736-114.843 292.73a266.69 266.69 0 0 1-14.005 15.507c-44.623 45.763-93.423 61.666-144.036 69.511-6.04.939-12.105 1.76-18.19 2.502-53.547 6.53-108.436 6.22-158.814 26.061a207.463 207.463 0 0 0-8.53 3.58c-51.18 22.84-95.554 69.215-125.583 163.553-.867 2.747-1.004 5.782-1.001 8.909 1.2.401 14.325 4.327 17.026 5.123.365.07.576.095.587.06 27.598-91.669 65.816-133.94 110.401-156.074a181.271 181.271 0 0 1 9.422-4.354c46.893-20.109 101.908-20.015 159.098-26.956 1.085-.132 2.171-.266 3.258-.403 58.456-7.372 119.372-23.524 172.738-79.327a279.792 279.792 0 0 0 3.202-3.401c51.65-55.752 95.749-148.352 127.32-305.102.527-2.658.372-5.486.071-8.366-1.256-.274-18.12-3.553-18.12-3.553" style="line-height:normal;text-indent:0;text-align:start;text-decoration-line:none;text-decoration-style:solid;text-decoration-color:#000;text-transform:none;block-progression:tb;white-space:normal;isolation:auto;mix-blend-mode:normal;solid-color:#000;solid-opacity:1" overflow="visible" opacity=".988" fill="#00502f"/><path d="M486.336 286.984c-29.206 148.61-69.441 237.288-114.39 290.879a264.644 264.644 0 0 1-13.948 15.389c-44.392 45.368-92.936 61.112-143.288 68.884a558.694 558.694 0 0 1-18.082 2.477c-53.23 6.467-107.79 6.181-157.872 25.905a206.3 206.3 0 0 0-8.48 3.558c-50.899 22.713-95.032 68.821-124.888 162.548-.849 2.691-.918 5.686-.838 8.775 1.287.43 14.278 4.32 16.923 5.1.359.065.567.086.579.05 27.47-91.098 65.511-133.052 109.899-155.014a180.402 180.402 0 0 1 9.37-4.317c46.62-19.927 101.313-19.837 158.17-26.73 1.078-.131 2.158-.264 3.239-.4 58.122-7.323 118.695-23.365 171.77-78.755a277.974 277.974 0 0 0 3.185-3.379c51.42-55.392 95.315-147.412 126.73-303.207.517-2.604.303-5.387-.067-8.225-1.346-.293-18.012-3.538-18.012-3.538" style="line-height:normal;text-indent:0;text-align:start;text-decoration-line:none;text-decoration-style:solid;text-decoration-color:#000;text-transform:none;block-progression:tb;white-space:normal;isolation:auto;mix-blend-mode:normal;solid-color:#000;solid-opacity:1" overflow="visible" opacity=".957" fill="#005e34"/><path d="M474.025 281.88c-29.086 147.756-69.168 235.84-113.936 289.027a262.61 262.61 0 0 1-13.89 15.271c-44.16 44.974-92.45 60.56-142.54 68.258-5.969.92-11.962 1.725-17.976 2.453-52.912 6.403-107.143 6.14-156.929 25.747a205.11 205.11 0 0 0-8.429 3.537c-50.618 22.588-94.51 68.427-124.193 161.543-.832 2.635-.832 5.59-.675 8.64 1.373.46 14.23 4.315 16.82 5.078.352.06.556.078.57.04C-59.81 770.945-21.947 729.31 22.243 707.52a179.553 179.553 0 0 1 9.32-4.28c46.347-19.746 100.717-19.658 157.24-26.504 1.072-.13 2.146-.262 3.22-.398 57.79-7.272 118.02-23.204 170.801-78.183a276.238 276.238 0 0 0 3.17-3.355c51.189-55.032 94.881-146.474 126.14-301.313.507-2.55.234-5.288-.206-8.084-1.435-.313-17.903-3.522-17.903-3.522" style="line-height:normal;text-indent:0;text-align:start;text-decoration-line:none;text-decoration-style:solid;text-decoration-color:#000;text-transform:none;block-progression:tb;white-space:normal;isolation:auto;mix-blend-mode:normal;solid-color:#000;solid-opacity:1" overflow="visible" opacity=".97" fill="#005336"/><path d="M461.714 276.777c-28.966 146.902-68.895 234.39-113.482 287.175a260.57 260.57 0 0 1-13.834 15.153c-43.928 44.578-91.962 60.005-141.79 67.63a557.619 557.619 0 0 1-17.869 2.43c-52.595 6.34-106.497 6.1-155.987 25.59a203.933 203.933 0 0 0-8.378 3.515c-50.338 22.462-93.99 68.033-123.499 160.538-.814 2.58-.745 5.494-.511 8.506 1.458.488 14.181 4.308 16.716 5.055.346.056.547.07.561.029 27.218-89.956 64.902-131.273 108.895-152.893a178.68 178.68 0 0 1 9.268-4.242c46.075-19.565 100.122-19.48 156.312-26.279 1.066-.129 2.133-.26 3.2-.395 57.457-7.223 117.345-23.045 169.834-77.612a274.35 274.35 0 0 0 3.154-3.332c50.958-54.671 94.446-145.534 125.55-299.418.495-2.495.164-5.19-.345-7.943-1.525-.332-17.795-3.507-17.795-3.507" style="line-height:normal;text-indent:0;text-align:start;text-decoration-line:none;text-decoration-style:solid;text-decoration-color:#000;text-transform:none;block-progression:tb;white-space:normal;isolation:auto;mix-blend-mode:normal;solid-color:#000;solid-opacity:1" overflow="visible" opacity=".959" fill="#004b37"/><path d="M449.403 271.674c-28.846 146.048-68.622 232.94-113.028 285.322a258.54 258.54 0 0 1-13.777 15.035c-43.697 44.184-91.475 59.452-141.04 67.005a557.19 557.19 0 0 1-17.763 2.404c-52.278 6.277-105.851 6.06-155.045 25.434a202.741 202.741 0 0 0-8.328 3.494C-49.634 692.703-93.046 738.006-122.38 829.9c-.796 2.523-.66 5.398-.348 8.372 1.544.516 14.133 4.3 16.613 5.032.339.052.537.062.552.018 27.09-89.384 64.597-130.383 108.392-151.832a177.835 177.835 0 0 1 9.218-4.204c45.801-19.385 99.526-19.303 155.382-26.054 1.06-.128 2.12-.258 3.182-.392 57.123-7.173 116.668-22.885 168.865-77.041 1.05-1.087 2.095-2.19 3.139-3.308 50.727-54.311 94.012-144.596 124.96-297.523.484-2.441.093-5.092-.484-7.803-1.615-.352-17.687-3.491-17.687-3.491" style="line-height:normal;text-indent:0;text-align:start;text-decoration-line:none;text-decoration-style:solid;text-decoration-color:#000;text-transform:none;block-progression:tb;white-space:normal;isolation:auto;mix-blend-mode:normal;solid-color:#000;solid-opacity:1" overflow="visible" opacity=".981" fill="#00553d"/><path d="M437.092 266.57c-28.726 145.195-68.35 231.492-112.574 283.47a256.513 256.513 0 0 1-13.72 14.918c-43.465 43.789-90.987 58.898-140.292 66.377a556.728 556.728 0 0 1-17.656 2.38c-51.96 6.215-105.204 6.021-154.102 25.277a201.55 201.55 0 0 0-8.277 3.473c-49.776 22.21-92.947 67.244-122.11 158.527-.777 2.467-.572 5.302-.183 8.238 1.63.545 14.084 4.294 16.51 5.009.332.047.527.054.542.007 26.964-88.813 64.293-129.494 107.89-150.771a176.984 176.984 0 0 1 9.167-4.167c45.529-19.203 98.93-19.125 154.454-25.828a680.83 680.83 0 0 0 3.162-.389c56.79-7.124 115.993-22.726 167.897-76.47a270.731 270.731 0 0 0 3.123-3.285c50.496-53.951 93.578-143.657 124.37-295.629.474-2.386.024-4.993-.623-7.662-1.704-.37-17.578-3.475-17.578-3.475" style="line-height:normal;text-indent:0;text-align:start;text-decoration-line:none;text-decoration-style:solid;text-decoration-color:#000;text-transform:none;block-progression:tb;white-space:normal;isolation:auto;mix-blend-mode:normal;solid-color:#000;solid-opacity:1" overflow="visible" opacity=".942" fill="#00633e"/><path d="M424.782 261.467C396.175 405.81 356.705 491.51 312.66 543.085a254.49 254.49 0 0 1-13.663 14.8c-43.233 43.393-90.5 58.344-139.543 65.75a556.332 556.332 0 0 1-17.55 2.355c-51.642 6.152-104.557 5.982-153.159 25.12a200.388 200.388 0 0 0-8.226 3.452c-49.496 22.083-92.426 66.85-121.415 157.522-.76 2.41-.487 5.206-.02 8.104 1.715.574 14.036 4.287 16.406 4.986.326.042.518.045.534-.003 26.837-88.242 63.988-128.605 107.388-149.71a176.127 176.127 0 0 1 9.116-4.13c45.255-19.022 98.334-18.947 153.524-25.602 1.047-.126 2.095-.255 3.143-.387 56.458-7.074 115.317-22.567 166.93-75.899a269.075 269.075 0 0 0 3.107-3.26c50.265-53.592 93.143-142.719 123.78-293.735.463-2.332-.046-4.895-.762-7.521-1.794-.391-17.47-3.46-17.47-3.46" style="line-height:normal;text-indent:0;text-align:start;text-decoration-line:none;text-decoration-style:solid;text-decoration-color:#000;text-transform:none;block-progression:tb;white-space:normal;isolation:auto;mix-blend-mode:normal;solid-color:#000;solid-opacity:1" overflow="visible" opacity=".956" fill="#005e44"/><path d="M412.47 256.364c-28.486 143.488-67.803 228.593-111.666 279.766a252.478 252.478 0 0 1-13.606 14.68c-43.001 43-90.013 57.792-138.794 65.125a555.969 555.969 0 0 1-17.443 2.33c-51.325 6.09-103.911 5.942-152.216 24.964a199.198 199.198 0 0 0-8.177 3.43c-49.214 21.958-91.904 66.457-120.72 156.517-.742 2.355-.4 5.11.143 7.97 1.802.602 13.989 4.28 16.303 4.963.32.038.509.037.526-.014 26.71-87.67 63.683-127.715 106.886-148.65a175.282 175.282 0 0 1 9.064-4.091c44.983-18.842 97.74-18.77 152.596-25.377 1.04-.125 2.082-.253 3.124-.384 56.124-7.025 114.641-22.407 165.96-75.328a267.344 267.344 0 0 0 3.092-3.237c50.035-53.231 92.709-141.78 123.191-291.84.452-2.278-.116-4.796-.902-7.38-1.883-.41-17.36-3.444-17.36-3.444" style="line-height:normal;text-indent:0;text-align:start;text-decoration-line:none;text-decoration-style:solid;text-decoration-color:#000;text-transform:none;block-progression:tb;white-space:normal;isolation:auto;mix-blend-mode:normal;solid-color:#000;solid-opacity:1" overflow="visible" opacity=".959" fill="#00654b"/><path d="M400.16 251.26c-28.367 142.635-67.531 227.144-111.213 277.914a250.461 250.461 0 0 1-13.549 14.563c-42.77 42.605-89.526 57.238-138.045 64.498a555.612 555.612 0 0 1-17.336 2.306c-51.008 6.026-103.265 5.902-151.274 24.807a198.007 198.007 0 0 0-8.126 3.409c-48.934 21.83-91.383 66.062-120.025 155.51-.725 2.3-.315 5.015.306 7.837 1.887.63 13.94 4.274 16.2 4.94.313.033.498.029.516-.025 26.584-87.099 63.38-126.825 106.384-147.588a174.43 174.43 0 0 1 9.014-4.055c44.71-18.66 97.143-18.592 151.667-25.15a669.19 669.19 0 0 0 3.104-.382c55.791-6.975 113.966-22.248 164.993-74.756a265.54 265.54 0 0 0 3.076-3.215c49.804-52.87 92.274-140.84 122.6-289.944.442-2.224-.186-4.699-1.04-7.24-1.973-.43-17.252-3.429-17.252-3.429" style="line-height:normal;text-indent:0;text-align:start;text-decoration-line:none;text-decoration-style:solid;text-decoration-color:#000;text-transform:none;block-progression:tb;white-space:normal;isolation:auto;mix-blend-mode:normal;solid-color:#000;solid-opacity:1" overflow="visible" opacity=".973" fill="#005a49"/><path d="M387.85 246.157c-28.248 141.78-67.26 225.695-110.76 276.062a248.45 248.45 0 0 1-13.492 14.445c-42.538 42.21-89.039 56.684-137.296 63.87a555.315 555.315 0 0 1-17.23 2.282c-50.69 5.964-102.618 5.862-150.331 24.65a196.83 196.83 0 0 0-8.075 3.388c-48.653 21.705-90.862 65.668-119.33 154.506-.708 2.242-.229 4.917.469 7.702 1.973.66 13.892 4.267 16.096 4.917.307.029.49.02.508-.035 26.457-86.528 63.074-125.936 105.882-146.528a173.58 173.58 0 0 1 8.963-4.017C7.69 628.919 59.8 628.985 113.99 622.473c1.028-.123 2.056-.249 3.085-.378 55.459-6.926 113.29-22.089 164.025-74.185a263.73 263.73 0 0 0 3.06-3.191c49.573-52.511 91.84-139.9 122.011-288.05.43-2.17-.256-4.6-1.18-7.1-2.062-.449-17.143-3.412-17.143-3.412" style="line-height:normal;text-indent:0;text-align:start;text-decoration-line:none;text-decoration-style:solid;text-decoration-color:#000;text-transform:none;block-progression:tb;white-space:normal;isolation:auto;mix-blend-mode:normal;solid-color:#000;solid-opacity:1" overflow="visible" opacity=".943" fill="#00674a"/><path d="M375.538 241.053c-28.127 140.928-66.985 224.246-110.305 274.21a246.456 246.456 0 0 1-13.435 14.327c-42.306 41.815-88.551 56.131-136.548 63.244a555.029 555.029 0 0 1-17.122 2.258c-50.373 5.9-101.973 5.821-149.389 24.493-2.69 1.06-5.365 2.18-8.025 3.367-48.372 21.578-90.34 65.273-118.635 153.5-.69 2.186-.142 4.821.632 7.568 2.06.688 13.844 4.26 15.994 4.894.3.024.48.012.499-.046 26.33-85.957 62.77-125.047 105.38-145.467 2.939-1.415 5.91-2.738 8.911-3.98 44.164-18.298 95.952-18.236 149.809-24.7 1.021-.122 2.043-.247 3.066-.375 55.125-6.876 112.614-21.93 163.056-73.614a261.852 261.852 0 0 0 3.045-3.168c49.342-52.15 91.405-138.961 121.421-286.155.42-2.116-.326-4.502-1.319-6.958-2.152-.47-17.035-3.398-17.035-3.398" style="line-height:normal;text-indent:0;text-align:start;text-decoration-line:none;text-decoration-style:solid;text-decoration-color:#000;text-transform:none;block-progression:tb;white-space:normal;isolation:auto;mix-blend-mode:normal;solid-color:#000;solid-opacity:1" overflow="visible" opacity=".961" fill="#00714f"/><path d="M363.228 235.95c-28.008 140.074-66.713 222.796-109.852 272.358a244.457 244.457 0 0 1-13.378 14.209c-42.075 41.42-88.064 55.577-135.799 62.617-5.65.837-11.324 1.57-17.015 2.233-50.056 5.838-101.327 5.782-148.447 24.337a194.463 194.463 0 0 0-7.974 3.345c-48.092 21.452-89.82 64.879-117.94 152.494-.673 2.131-.057 4.726.795 7.435 2.145.717 13.796 4.253 15.89 4.87.295.02.47.005.49-.056 26.204-85.385 62.465-124.157 104.878-144.406a171.907 171.907 0 0 1 8.86-3.942c43.891-18.117 95.357-18.058 148.88-24.474 1.015-.122 2.03-.246 3.047-.373 54.792-6.827 111.939-21.77 162.089-73.043a260.201 260.201 0 0 0 3.028-3.144c49.112-51.79 90.971-138.023 120.832-284.26.409-2.062-.396-4.404-1.458-6.818-2.242-.489-16.926-3.382-16.926-3.382" style="line-height:normal;text-indent:0;text-align:start;text-decoration-line:none;text-decoration-style:solid;text-decoration-color:#000;text-transform:none;block-progression:tb;white-space:normal;isolation:auto;mix-blend-mode:normal;solid-color:#000;solid-opacity:1" overflow="visible" opacity=".966" fill="#006351"/><path d="M350.917 230.847c-27.888 139.22-66.44 221.347-109.398 270.505a242.47 242.47 0 0 1-13.321 14.091c-41.843 41.026-87.577 55.024-135.05 61.99a554.607 554.607 0 0 1-16.909 2.21c-49.739 5.774-100.68 5.741-147.504 24.18a193.286 193.286 0 0 0-7.923 3.323c-47.811 21.326-89.299 64.485-117.246 151.49-.655 2.074.03 4.63.959 7.3 2.23.745 13.748 4.247 15.787 4.848.288.015.46-.004.481-.067 26.077-84.814 62.16-123.268 104.375-143.346a171.076 171.076 0 0 1 8.81-3.904c43.618-17.937 94.76-17.88 147.951-24.25 1.008-.12 2.018-.243 3.028-.369 54.458-6.777 111.262-21.61 161.12-72.472a258.4 258.4 0 0 0 3.013-3.12c48.88-51.43 90.536-137.084 120.241-282.367.398-2.007-.465-4.304-1.596-6.676-2.332-.508-16.818-3.366-16.818-3.366" style="line-height:normal;text-indent:0;text-align:start;text-decoration-line:none;text-decoration-style:solid;text-decoration-color:#000;text-transform:none;block-progression:tb;white-space:normal;isolation:auto;mix-blend-mode:normal;solid-color:#000;solid-opacity:1" overflow="visible" opacity=".94" fill="#007b57"/><path d="M338.606 225.743c-27.768 138.367-66.167 219.898-108.945 268.654a240.48 240.48 0 0 1-13.263 13.973c-41.611 40.63-87.09 54.47-134.3 61.364a554.44 554.44 0 0 1-16.803 2.184C15.873 577.63-34.74 577.62-81.267 595.94a192.096 192.096 0 0 0-7.873 3.302c-47.53 21.2-88.777 64.091-116.55 150.484-.638 2.019.115 4.534 1.122 7.167 2.316.774 13.7 4.24 15.683 4.825.282.01.45-.012.473-.078 25.95-84.243 61.856-122.379 103.872-142.285a170.237 170.237 0 0 1 8.76-3.867c43.345-17.755 94.165-17.702 147.022-24.023a647.35 647.35 0 0 0 3.008-.367c54.126-6.727 110.587-21.451 160.152-71.9 1.002-1.019 2-2.051 2.997-3.098 48.65-51.07 90.103-136.145 119.652-280.471.387-1.953-.536-4.207-1.736-6.536-2.421-.528-16.709-3.35-16.709-3.35" style="line-height:normal;text-indent:0;text-align:start;text-decoration-line:none;text-decoration-style:solid;text-decoration-color:#000;text-transform:none;block-progression:tb;white-space:normal;isolation:auto;mix-blend-mode:normal;solid-color:#000;solid-opacity:1" overflow="visible" opacity=".99" fill="#00765b"/><path d="M326.295 220.64c-27.648 137.513-65.894 218.449-108.49 266.801a238.49 238.49 0 0 1-13.207 13.856c-41.38 40.235-86.603 53.917-133.552 60.736a554.349 554.349 0 0 1-16.696 2.16c-49.104 5.65-99.387 5.662-145.619 23.867a190.934 190.934 0 0 0-7.822 3.28c-47.25 21.075-88.256 63.697-115.856 149.48-.62 1.962.202 4.437 1.286 7.031 2.402.803 13.65 4.234 15.58 4.803.275.006.44-.02.463-.089 25.824-83.67 61.552-121.489 103.371-141.223a169.42 169.42 0 0 1 8.708-3.83c43.072-17.574 93.57-17.525 146.093-23.798.996-.119 1.992-.24 2.99-.364 53.792-6.678 109.91-21.292 159.183-71.33.997-1.01 1.99-2.035 2.981-3.074 48.42-50.71 89.669-135.205 119.063-278.576.376-1.899-.606-4.108-1.875-6.395-2.511-.547-16.6-3.335-16.6-3.335" style="line-height:normal;text-indent:0;text-align:start;text-decoration-line:none;text-decoration-style:solid;text-decoration-color:#000;text-transform:none;block-progression:tb;white-space:normal;isolation:auto;mix-blend-mode:normal;solid-color:#000;solid-opacity:1" overflow="visible" opacity=".916" fill="#006d55"/><path d="M313.984 215.536c-27.528 136.66-65.621 217-108.037 264.95a236.518 236.518 0 0 1-13.15 13.737c-41.147 39.84-86.115 53.364-132.802 60.11-5.51.8-11.04 1.5-16.59 2.136-48.786 5.586-98.74 5.622-144.675 23.71a189.745 189.745 0 0 0-7.772 3.26c-46.97 20.947-87.735 63.301-115.162 148.472-.601 1.907.289 4.342 1.45 6.898 2.487.832 13.602 4.227 15.476 4.78.269 0 .431-.029.455-.1 25.696-83.1 61.247-120.6 102.868-140.162a168.589 168.589 0 0 1 8.658-3.792c42.799-17.394 92.973-17.347 145.164-23.573.989-.118 1.979-.238 2.97-.36 53.46-6.63 109.235-21.133 158.216-70.76.99-1.002 1.98-2.02 2.965-3.05 48.189-50.35 89.234-134.267 118.472-276.682.366-1.844-.675-4.01-2.013-6.254-2.601-.567-16.493-3.32-16.493-3.32" style="line-height:normal;text-indent:0;text-align:start;text-decoration-line:none;text-decoration-style:solid;text-decoration-color:#000;text-transform:none;block-progression:tb;white-space:normal;isolation:auto;mix-blend-mode:normal;solid-color:#000;solid-opacity:1" overflow="visible" opacity=".992" fill="#00745d"/><path d="M301.674 210.433c-27.409 135.806-65.35 215.55-107.584 263.097a234.545 234.545 0 0 1-13.093 13.62c-40.915 39.446-85.627 52.81-132.053 59.483-5.474.79-10.97 1.483-16.483 2.111-48.469 5.523-98.094 5.582-143.733 23.553a188.561 188.561 0 0 0-7.722 3.238c-46.688 20.822-87.213 62.908-114.467 147.468-.583 1.85.375 4.246 1.613 6.764 2.574.86 13.555 4.22 15.373 4.756.263-.003.422-.036.447-.11 25.57-82.528 60.942-119.71 102.366-139.101a167.77 167.77 0 0 1 8.606-3.755c42.526-17.212 92.378-17.169 144.235-23.346a635.69 635.69 0 0 0 2.95-.359c53.128-6.579 108.56-20.973 157.249-70.187.986-.995 1.97-2.004 2.95-3.028 47.958-49.99 88.799-133.327 117.882-274.787.355-1.79-.745-3.91-2.153-6.113-2.69-.587-16.383-3.304-16.383-3.304" style="line-height:normal;text-indent:0;text-align:start;text-decoration-line:none;text-decoration-style:solid;text-decoration-color:#000;text-transform:none;block-progression:tb;white-space:normal;isolation:auto;mix-blend-mode:normal;solid-color:#000;solid-opacity:1" overflow="visible" fill="#007962"/><path d="M289.363 205.33c-27.289 134.952-65.076 214.101-107.13 261.245a232.582 232.582 0 0 1-13.036 13.501c-40.684 39.051-85.14 52.257-131.304 58.857a554.32 554.32 0 0 1-16.376 2.086c-48.152 5.46-97.448 5.543-142.791 23.397a187.375 187.375 0 0 0-7.67 3.217c-46.408 20.695-86.693 62.513-113.773 146.462-.566 1.794.46 4.15 1.776 6.63 2.66.889 13.507 4.214 15.27 4.733.256-.008.412-.044.437-.12 25.443-81.957 60.638-118.82 101.864-138.041a166.954 166.954 0 0 1 8.556-3.717c42.253-17.031 91.782-16.992 143.306-23.121.976-.116 1.953-.235 2.931-.356 52.794-6.53 107.884-20.814 156.28-69.616.98-.988 1.959-1.989 2.934-3.004 47.727-49.63 88.365-132.388 117.293-272.892.344-1.736-.815-3.813-2.292-5.973-2.78-.606-16.275-3.289-16.275-3.289" style="line-height:normal;text-indent:0;text-align:start;text-decoration-line:none;text-decoration-style:solid;text-decoration-color:#000;text-transform:none;block-progression:tb;white-space:normal;isolation:auto;mix-blend-mode:normal;solid-color:#000;solid-opacity:1" overflow="visible" opacity=".999" fill="#00886c"/><path d="M277.052 200.226c-27.169 134.1-64.803 212.653-106.676 259.393a230.623 230.623 0 0 1-12.979 13.384c-40.452 38.656-84.653 51.703-130.555 58.23a554.387 554.387 0 0 1-16.27 2.062c-47.834 5.397-96.801 5.502-141.848 23.24a186.198 186.198 0 0 0-7.62 3.195c-46.127 20.57-86.171 62.12-113.078 145.457-.548 1.738.547 4.054 1.94 6.496 2.745.918 13.458 4.207 15.166 4.71.25-.012.403-.053.429-.13 25.316-81.386 60.333-117.932 101.362-136.981a166.129 166.129 0 0 1 8.504-3.68c41.98-16.85 91.187-16.813 142.378-22.895.97-.115 1.94-.233 2.912-.353 52.46-6.48 107.208-20.654 155.311-69.045.976-.98 1.948-1.973 2.918-2.98 47.497-49.27 87.931-131.45 116.703-270.998.334-1.682-.885-3.715-2.43-5.832-2.87-.626-16.167-3.273-16.167-3.273" style="line-height:normal;text-indent:0;text-align:start;text-decoration-line:none;text-decoration-style:solid;text-decoration-color:#000;text-transform:none;block-progression:tb;white-space:normal;isolation:auto;mix-blend-mode:normal;solid-color:#000;solid-opacity:1" overflow="visible" opacity=".996" fill="#008d6e"/><path d="M264.741 195.123c-27.049 133.245-64.53 211.203-106.222 257.54a228.664 228.664 0 0 1-12.922 13.266c-40.22 38.262-84.166 51.15-129.807 57.603A554.574 554.574 0 0 1-.372 525.57c-47.517 5.335-96.155 5.463-140.906 23.083-2.538 1-5.061 2.056-7.57 3.174-45.846 20.444-85.65 61.725-112.382 144.452-.531 1.682.633 3.957 2.102 6.362 2.831.946 13.41 4.2 15.064 4.687.243-.016.393-.06.42-.141 25.19-80.815 60.028-117.042 100.86-135.92a165.32 165.32 0 0 1 8.453-3.642c41.707-16.67 90.591-16.636 141.448-22.67.964-.114 1.928-.23 2.893-.35 52.127-6.43 106.532-20.495 154.344-68.474a245.91 245.91 0 0 0 2.902-2.957c47.266-48.909 87.496-130.51 116.113-269.103.323-1.627-.955-3.616-2.57-5.691-2.96-.645-16.058-3.257-16.058-3.257" style="line-height:normal;text-indent:0;text-align:start;text-decoration-line:none;text-decoration-style:solid;text-decoration-color:#000;text-transform:none;block-progression:tb;white-space:normal;isolation:auto;mix-blend-mode:normal;solid-color:#000;solid-opacity:1" overflow="visible" opacity=".994" fill="#008974"/><path d="M252.43 190.02c-26.929 132.391-64.257 209.754-105.768 255.688a226.714 226.714 0 0 1-12.865 13.148C93.808 496.722 50.118 509.452 4.74 515.832a554.713 554.713 0 0 1-16.055 2.014c-47.2 5.271-95.51 5.422-139.964 22.925a183.834 183.834 0 0 0-7.519 3.154c-45.565 20.317-85.128 61.33-111.688 143.446-.513 1.626.72 3.861 2.266 6.228 2.917.975 13.362 4.193 14.96 4.664.237-.021.383-.07.411-.152 25.063-80.243 59.724-116.152 100.358-134.859a164.514 164.514 0 0 1 8.402-3.604c41.435-16.489 89.996-16.458 140.52-22.445.957-.113 1.915-.229 2.873-.347 51.795-6.38 105.857-20.335 153.376-67.903.965-.964 1.927-1.942 2.886-2.934 47.036-48.548 87.062-129.57 115.524-267.208.312-1.573-1.025-3.518-2.71-5.55-3.049-.665-15.949-3.242-15.949-3.242" style="line-height:normal;text-indent:0;text-align:start;text-decoration-line:none;text-decoration-style:solid;text-decoration-color:#000;text-transform:none;block-progression:tb;white-space:normal;isolation:auto;mix-blend-mode:normal;solid-color:#000;solid-opacity:1" overflow="visible" opacity=".994" fill="#00886d"/><path d="M240.12 184.916c-26.81 131.539-63.985 208.305-105.315 253.837a224.772 224.772 0 0 1-12.808 13.03C82.24 489.253 38.805 501.824-6.312 508.131a554.943 554.943 0 0 1-15.949 1.989c-46.882 5.208-94.862 5.383-139.02 22.77a182.643 182.643 0 0 0-7.47 3.131c-45.284 20.191-84.606 60.937-110.993 142.441-.495 1.57.806 3.765 2.43 6.094 3.003 1.003 13.314 4.187 14.857 4.641.23-.026.373-.077.402-.163 24.936-79.671 59.419-115.263 99.855-133.798a163.694 163.694 0 0 1 8.352-3.567c41.161-16.307 89.4-16.28 139.59-22.218.951-.113 1.903-.228 2.855-.345 51.461-6.331 105.18-20.176 152.407-67.332.96-.956 1.917-1.926 2.87-2.91 46.806-48.189 86.629-128.632 114.934-265.314.301-1.518-1.094-3.419-2.848-5.41-3.139-.683-15.84-3.225-15.84-3.225" style="line-height:normal;text-indent:0;text-align:start;text-decoration-line:none;text-decoration-style:solid;text-decoration-color:#000;text-transform:none;block-progression:tb;white-space:normal;isolation:auto;mix-blend-mode:normal;solid-color:#000;solid-opacity:1" overflow="visible" opacity=".998" fill="#00907a"/><path d="M227.809 179.812c-26.69 130.686-63.712 206.857-104.86 251.985a222.837 222.837 0 0 1-12.752 12.912c-39.525 37.077-82.704 49.489-127.56 55.723a555.267 555.267 0 0 1-15.842 1.964c-46.565 5.146-94.216 5.343-138.079 22.613a181.47 181.47 0 0 0-7.417 3.11c-45.004 20.065-84.086 60.543-110.3 141.436-.477 1.514.893 3.67 2.594 5.96 3.088 1.032 13.265 4.18 14.753 4.618.224-.03.364-.086.393-.173 24.81-79.1 59.115-114.374 99.354-132.738a162.906 162.906 0 0 1 8.3-3.53c40.89-16.125 88.805-16.101 138.662-21.992.944-.112 1.89-.226 2.835-.342 51.128-6.282 104.505-20.017 151.44-66.76a240.62 240.62 0 0 0 2.854-2.888c46.574-47.828 86.194-127.693 114.344-263.418.29-1.465-1.164-3.321-2.987-5.27-3.229-.703-15.732-3.21-15.732-3.21" style="line-height:normal;text-indent:0;text-align:start;text-decoration-line:none;text-decoration-style:solid;text-decoration-color:#000;text-transform:none;block-progression:tb;white-space:normal;isolation:auto;mix-blend-mode:normal;solid-color:#000;solid-opacity:1" overflow="visible" opacity=".998" fill="#008b76"/><path d="M215.498 174.709c-26.57 129.832-63.44 205.407-104.407 250.133a220.904 220.904 0 0 1-12.694 12.793c-39.294 36.683-82.217 48.936-126.81 55.096a555.655 555.655 0 0 1-15.737 1.94c-46.247 5.083-93.57 5.303-137.136 22.456-2.47.973-4.926 2.002-7.367 3.09-44.723 19.939-83.564 60.148-109.604 140.43-.46 1.458.978 3.573 2.757 5.826 3.174 1.06 13.217 4.173 14.65 4.595.218-.035.354-.094.384-.184 24.683-78.53 58.81-113.484 98.851-131.676 2.72-1.243 5.47-2.404 8.25-3.493 40.616-15.945 88.209-15.924 137.733-21.767.937-.11 1.876-.224 2.815-.339 50.796-6.232 103.83-19.857 150.471-66.19.95-.94 1.896-1.895 2.84-2.863 46.343-47.468 85.759-126.754 113.754-261.524.28-1.41-1.235-3.223-3.126-5.128-3.319-.723-15.624-3.195-15.624-3.195" style="line-height:normal;text-indent:0;text-align:start;text-decoration-line:none;text-decoration-style:solid;text-decoration-color:#000;text-transform:none;block-progression:tb;white-space:normal;isolation:auto;mix-blend-mode:normal;solid-color:#000;solid-opacity:1" overflow="visible" opacity=".979" fill="#00896f"/><path d="M203.187 169.606c-26.45 128.978-63.166 203.958-103.953 248.28a218.981 218.981 0 0 1-12.637 12.676c-39.062 36.287-81.73 48.382-126.062 54.47a556.07 556.07 0 0 1-15.63 1.915c-45.93 5.02-92.922 5.263-136.192 22.299a179.122 179.122 0 0 0-7.317 3.068c-44.443 19.813-83.043 59.754-108.91 139.425-.442 1.402 1.065 3.477 2.92 5.692 3.26 1.09 13.17 4.166 14.547 4.572.212-.04.345-.102.376-.195 24.556-77.957 58.505-112.594 98.349-130.615a161.308 161.308 0 0 1 8.198-3.455c40.343-15.764 87.614-15.746 136.804-21.542.932-.11 1.864-.222 2.797-.336 50.462-6.183 103.154-19.698 149.503-65.618.944-.934 1.885-1.88 2.823-2.84 46.113-47.108 85.325-125.816 113.164-259.63.27-1.356-1.304-3.124-3.265-4.987-3.408-.743-15.515-3.18-15.515-3.18" style="line-height:normal;text-indent:0;text-align:start;text-decoration-line:none;text-decoration-style:solid;text-decoration-color:#000;text-transform:none;block-progression:tb;white-space:normal;isolation:auto;mix-blend-mode:normal;solid-color:#000;solid-opacity:1" overflow="visible" opacity=".972" fill="#008c78"/><path d="M190.876 164.502c-26.33 128.125-62.893 202.51-103.499 246.429a217.062 217.062 0 0 1-12.58 12.557c-38.83 35.893-81.243 47.829-125.313 53.843a556.59 556.59 0 0 1-15.523 1.891c-45.612 4.957-92.276 5.223-135.25 22.143-2.437.959-4.86 1.973-7.266 3.046-44.162 19.687-82.523 59.36-108.215 138.42-.425 1.345 1.15 3.38 3.083 5.558 3.346 1.118 13.121 4.16 14.444 4.55.205-.045.334-.111.366-.206 24.43-77.387 58.201-111.706 97.847-129.555a160.526 160.526 0 0 1 8.148-3.417c40.07-15.583 87.017-15.569 135.875-21.317.925-.108 1.85-.22 2.777-.333 50.13-6.133 102.478-19.539 148.535-65.047.939-.926 1.875-1.865 2.808-2.817 45.882-46.748 84.89-124.876 112.574-257.735.258-1.301-1.374-3.025-3.404-4.846-3.498-.763-15.407-3.164-15.407-3.164" style="line-height:normal;text-indent:0;text-align:start;text-decoration-line:none;text-decoration-style:solid;text-decoration-color:#000;text-transform:none;block-progression:tb;white-space:normal;isolation:auto;mix-blend-mode:normal;solid-color:#000;solid-opacity:1" overflow="visible" opacity=".973" fill="#00a381"/><path d="M178.566 159.399c-26.21 127.27-62.621 201.06-103.046 244.576a215.15 215.15 0 0 1-12.523 12.44C24.398 451.913-17.76 463.69-61.567 469.63c-5.12.698-10.26 1.31-15.416 1.867-45.295 4.894-91.63 5.183-134.308 21.985-2.42.953-4.825 1.96-7.216 3.026-43.88 19.56-82 58.965-107.52 137.414-.406 1.29 1.237 3.285 3.247 5.423 3.431 1.147 13.073 4.154 14.34 4.527.199-.049.325-.119.358-.216 24.302-76.815 57.896-110.816 97.345-128.494a159.74 159.74 0 0 1 8.096-3.38c39.798-15.402 86.422-15.39 134.947-21.09.918-.108 1.837-.218 2.757-.33 49.796-6.085 101.803-19.38 147.567-64.477a233.53 233.53 0 0 0 2.792-2.793c45.651-46.388 84.456-123.937 111.984-255.84.248-1.248-1.443-2.928-3.543-4.707-3.587-.781-15.297-3.147-15.297-3.147" style="line-height:normal;text-indent:0;text-align:start;text-decoration-line:none;text-decoration-style:solid;text-decoration-color:#000;text-transform:none;block-progression:tb;white-space:normal;isolation:auto;mix-blend-mode:normal;solid-color:#000;solid-opacity:1" overflow="visible" opacity=".959" fill="#009b7e"/><path d="M166.255 154.295c-26.09 126.418-62.348 199.611-102.592 242.725a213.243 213.243 0 0 1-12.466 12.321c-38.367 35.103-80.269 46.722-123.815 52.59a557.848 557.848 0 0 1-15.31 1.842c-44.978 4.831-90.984 5.143-133.365 21.829a175.555 175.555 0 0 0-7.165 3.004c-43.6 19.434-81.48 58.571-106.825 136.409-.39 1.233 1.323 3.189 3.41 5.29 3.517 1.175 13.024 4.146 14.237 4.503.192-.053.315-.127.349-.227 24.175-76.244 57.591-109.926 96.842-127.433 2.652-1.19 5.334-2.3 8.046-3.342 39.524-15.221 85.826-15.213 134.017-20.865.912-.107 1.825-.216 2.739-.328 49.463-6.034 101.126-19.22 146.598-63.905.929-.91 1.854-1.834 2.777-2.77 45.42-46.027 84.021-122.998 111.394-253.945.237-1.194-1.513-2.83-3.682-4.566-3.677-.8-15.19-3.132-15.19-3.132" style="line-height:normal;text-indent:0;text-align:start;text-decoration-line:none;text-decoration-style:solid;text-decoration-color:#000;text-transform:none;block-progression:tb;white-space:normal;isolation:auto;mix-blend-mode:normal;solid-color:#000;solid-opacity:1" overflow="visible" opacity=".99" fill="#009585"/><path d="M153.944 149.192C127.974 274.756 91.87 347.353 51.806 390.064a211.34 211.34 0 0 1-12.41 12.204c-38.134 34.708-79.78 46.168-123.065 51.962-5.05.68-10.12 1.276-15.203 1.819-44.66 4.768-90.338 5.103-132.423 21.671a174.37 174.37 0 0 0-7.114 2.983c-43.32 19.308-80.959 58.177-106.13 135.404-.372 1.177 1.408 3.093 3.573 5.155 3.603 1.205 12.976 4.14 14.133 4.481.186-.058.306-.135.34-.237 24.05-75.673 57.287-109.037 96.34-126.373a158.19 158.19 0 0 1 7.995-3.305c39.252-15.04 85.231-15.035 133.089-20.64a586.23 586.23 0 0 0 2.72-.324c49.129-5.985 100.45-19.06 145.63-63.334.922-.902 1.843-1.818 2.76-2.746 45.19-45.668 83.587-122.06 110.805-252.05.226-1.14-1.584-2.732-3.821-4.426-3.767-.82-15.08-3.116-15.08-3.116" style="line-height:normal;text-indent:0;text-align:start;text-decoration-line:none;text-decoration-style:solid;text-decoration-color:#000;text-transform:none;block-progression:tb;white-space:normal;isolation:auto;mix-blend-mode:normal;solid-color:#000;solid-opacity:1" overflow="visible" opacity=".977" fill="#00ae8e"/><path d="M141.633 144.088C115.783 268.8 79.831 340.801 39.95 383.108a209.445 209.445 0 0 1-12.352 12.086c-37.904 34.314-79.294 45.615-122.318 51.336a559.34 559.34 0 0 1-15.095 1.794c-44.344 4.705-89.692 5.063-131.48 21.515a173.199 173.199 0 0 0-7.065 2.962c-43.039 19.182-80.437 57.782-105.435 134.398-.354 1.121 1.495 2.996 3.736 5.021 3.69 1.233 12.929 4.133 14.03 4.458.18-.062.297-.143.332-.248 23.922-75.101 56.982-108.148 95.838-125.312a157.411 157.411 0 0 1 7.944-3.267c38.978-14.859 84.635-14.857 132.16-20.414.899-.105 1.799-.212 2.7-.322 48.796-5.935 99.775-18.901 144.662-62.763.917-.895 1.832-1.802 2.745-2.723 44.959-45.307 83.152-121.12 110.214-250.156.216-1.085-1.653-2.632-3.96-4.284-3.856-.84-14.972-3.1-14.972-3.1" style="line-height:normal;text-indent:0;text-align:start;text-decoration-line:none;text-decoration-style:solid;text-decoration-color:#000;text-transform:none;block-progression:tb;white-space:normal;isolation:auto;mix-blend-mode:normal;solid-color:#000;solid-opacity:1" overflow="visible" opacity=".966" fill="#009e89"/><path d="M129.322 138.985c-25.73 123.857-61.53 195.263-101.23 237.168a207.556 207.556 0 0 1-12.295 11.968c-37.672 33.919-78.807 45.061-121.569 50.709-4.979.66-9.977 1.24-14.989 1.77-44.026 4.642-89.045 5.023-130.538 21.358-2.352.926-4.69 1.905-7.013 2.94-42.758 19.056-79.916 57.388-104.741 133.393-.336 1.065 1.581 2.9 3.9 4.887 3.775 1.262 12.88 4.126 13.927 4.435.173-.067.287-.151.323-.259 23.795-74.53 56.677-107.258 95.336-124.25a156.644 156.644 0 0 1 7.892-3.23c38.706-14.678 84.04-14.68 131.23-20.189.894-.104 1.787-.21 2.682-.319 48.464-5.886 99.1-18.742 143.694-62.191.912-.888 1.822-1.788 2.73-2.7 44.727-44.947 82.718-120.181 109.624-248.262.205-1.03-1.723-2.533-4.099-4.143-3.946-.86-14.864-3.085-14.864-3.085" style="line-height:normal;text-indent:0;text-align:start;text-decoration-line:none;text-decoration-style:solid;text-decoration-color:#000;text-transform:none;block-progression:tb;white-space:normal;isolation:auto;mix-blend-mode:normal;solid-color:#000;solid-opacity:1" overflow="visible" opacity=".97" fill="#00aa91"/><path d="M117.012 133.882C91.4 256.885 55.755 327.696 16.235 369.198a205.675 205.675 0 0 1-12.239 11.85c-37.44 33.523-78.319 44.507-120.819 50.082a561.207 561.207 0 0 1-14.882 1.745c-43.709 4.58-88.399 4.983-129.596 21.201-2.335.92-4.656 1.891-6.962 2.92-42.478 18.929-79.395 56.993-104.047 132.386-.318 1.01 1.668 2.805 4.064 4.754 3.86 1.29 12.832 4.12 13.824 4.412.166-.072.276-.16.313-.27 23.669-73.958 56.373-106.368 94.834-123.19a155.88 155.88 0 0 1 7.842-3.192C-213 457.4-167.99 457.395-121.131 451.933c.886-.103 1.773-.208 2.661-.316 48.13-5.836 98.424-18.582 142.726-61.62.907-.88 1.812-1.772 2.714-2.677 44.497-44.587 82.284-119.242 109.035-246.366.193-.977-1.793-2.436-4.238-4.003-4.036-.879-14.755-3.07-14.755-3.07" style="line-height:normal;text-indent:0;text-align:start;text-decoration-line:none;text-decoration-style:solid;text-decoration-color:#000;text-transform:none;block-progression:tb;white-space:normal;isolation:auto;mix-blend-mode:normal;solid-color:#000;solid-opacity:1" overflow="visible" opacity=".944" fill="#00ab96"/><path d="M104.7 128.778C79.21 250.928 43.718 321.143 4.379 362.242a203.804 203.804 0 0 1-12.182 11.732c-37.208 33.129-77.832 43.954-120.07 49.456a562.307 562.307 0 0 1-14.776 1.72c-43.39 4.517-87.752 4.944-128.653 21.045a169.667 169.667 0 0 0-6.912 2.898c-42.196 18.803-78.873 56.6-103.351 131.381-.3.954 1.753 2.71 4.227 4.62 3.946 1.319 12.783 4.113 13.72 4.389.16-.076.267-.168.305-.28 23.542-73.387 56.068-105.48 94.332-122.13a155.126 155.126 0 0 1 7.79-3.154c38.16-14.316 82.849-14.324 129.373-19.737.88-.103 1.761-.207 2.643-.314 47.797-5.787 97.747-18.423 141.758-61.05.901-.871 1.8-1.755 2.697-2.652 44.267-44.227 81.85-118.303 108.445-244.472.183-.922-1.862-2.337-4.377-3.862-4.125-.899-14.646-3.054-14.646-3.054" style="line-height:normal;text-indent:0;text-align:start;text-decoration-line:none;text-decoration-style:solid;text-decoration-color:#000;text-transform:none;block-progression:tb;white-space:normal;isolation:auto;mix-blend-mode:normal;solid-color:#000;solid-opacity:1" overflow="visible" opacity=".965" fill="#00ab91"/><path d="M92.39 123.675C67.018 244.97 31.68 314.59-7.48 355.287A201.936 201.936 0 0 1-19.603 366.9c-36.976 32.735-77.345 43.401-119.321 48.83-4.873.632-9.764 1.188-14.669 1.695-43.074 4.454-87.106 4.904-127.71 20.888a168.484 168.484 0 0 0-6.862 2.877c-41.916 18.677-78.352 56.205-102.657 130.376-.283.898 1.84 2.613 4.39 4.486 4.032 1.347 12.736 4.106 13.618 4.366.153-.08.257-.176.296-.29 23.415-72.817 55.764-104.59 93.829-121.07 2.55-1.109 5.13-2.146 7.74-3.117 37.887-14.134 82.253-14.145 128.444-19.511.873-.102 1.748-.205 2.623-.311 47.464-5.737 97.072-18.264 140.79-60.478.896-.864 1.79-1.74 2.682-2.63 44.036-43.866 81.415-117.364 107.855-242.577.172-.868-1.933-2.239-4.516-3.72-4.215-.92-14.538-3.04-14.538-3.04" style="line-height:normal;text-indent:0;text-align:start;text-decoration-line:none;text-decoration-style:solid;text-decoration-color:#000;text-transform:none;block-progression:tb;white-space:normal;isolation:auto;mix-blend-mode:normal;solid-color:#000;solid-opacity:1" overflow="visible" opacity=".942" fill="#00ae8f"/><path d="M80.08 118.571c-25.253 120.443-60.44 189.467-99.416 229.76a200.074 200.074 0 0 1-12.068 11.496c-36.744 32.34-76.857 42.847-118.572 48.202a564.746 564.746 0 0 1-14.562 1.672c-42.757 4.39-86.46 4.863-126.768 20.731-2.285.9-4.555 1.85-6.811 2.855-41.636 18.552-77.831 55.811-101.962 129.371-.266.841 1.926 2.517 4.553 4.352 4.118 1.376 12.688 4.1 13.514 4.343.148-.085.248-.184.287-.301 23.289-72.245 55.46-103.7 93.328-120.008a153.622 153.622 0 0 1 7.688-3.08c37.614-13.954 81.658-13.968 127.515-19.286.868-.1 1.736-.203 2.604-.308 47.132-5.688 96.397-18.104 139.822-59.907.891-.856 1.78-1.725 2.666-2.606C35.703 322.35 72.88 249.432 99.164 125.174c.161-.813-2.003-2.14-4.655-3.58-4.305-.938-14.43-3.023-14.43-3.023" style="line-height:normal;text-indent:0;text-align:start;text-decoration-line:none;text-decoration-style:solid;text-decoration-color:#000;text-transform:none;block-progression:tb;white-space:normal;isolation:auto;mix-blend-mode:normal;solid-color:#000;solid-opacity:1" overflow="visible" opacity=".956" fill="#00c1a6"/><path d="M67.769 113.468C42.636 233.058 7.603 301.486-31.193 341.376a198.22 198.22 0 0 1-12.01 11.377c-36.514 31.945-76.371 42.294-117.824 47.576a566.154 566.154 0 0 1-14.456 1.647c-42.439 4.328-85.813 4.824-125.825 20.575a166.128 166.128 0 0 0-6.76 2.834c-41.355 18.425-77.31 55.417-101.268 128.365-.248.785 2.012 2.42 4.717 4.218 4.203 1.405 12.64 4.092 13.41 4.32.142-.09.239-.193.279-.312 23.162-71.673 55.155-102.811 92.825-118.947a152.888 152.888 0 0 1 7.638-3.043c37.341-13.772 81.061-13.79 126.586-19.06.86-.1 1.722-.201 2.585-.305 46.798-5.638 95.72-17.945 138.853-59.336.886-.849 1.77-1.71 2.65-2.583 43.575-43.146 80.547-115.485 106.676-238.787.15-.76-2.072-2.042-4.794-3.44-4.394-.957-14.32-3.007-14.32-3.007" style="line-height:normal;text-indent:0;text-align:start;text-decoration-line:none;text-decoration-style:solid;text-decoration-color:#000;text-transform:none;block-progression:tb;white-space:normal;isolation:auto;mix-blend-mode:normal;solid-color:#000;solid-opacity:1" overflow="visible" opacity=".957" fill="#00b296"/><path d="M55.458 108.364C30.445 227.1-4.435 294.934-43.05 334.42a196.37 196.37 0 0 1-11.954 11.26c-36.281 31.55-75.883 41.74-117.074 46.949a567.673 567.673 0 0 1-14.35 1.622c-42.121 4.266-85.166 4.784-124.882 20.418a164.93 164.93 0 0 0-6.71 2.813c-41.074 18.299-76.788 55.023-100.573 127.36-.23.73 2.099 2.325 4.88 4.084 4.29 1.433 12.592 4.086 13.308 4.297a.672.672 0 0 0 .27-.323c23.035-71.102 54.85-101.921 92.322-117.886 2.5-1.07 5.03-2.07 7.587-3.005 37.069-13.592 80.466-13.612 125.658-18.835.854-.098 1.71-.2 2.565-.302 46.465-5.588 95.045-17.785 137.886-58.765.88-.84 1.758-1.694 2.634-2.56C11.861 308.763 48.63 237.002 74.603 114.656c.14-.705-2.142-1.944-4.933-3.299-4.484-.977-14.212-2.992-14.212-2.992" style="line-height:normal;text-indent:0;text-align:start;text-decoration-line:none;text-decoration-style:solid;text-decoration-color:#000;text-transform:none;block-progression:tb;white-space:normal;isolation:auto;mix-blend-mode:normal;solid-color:#000;solid-opacity:1" overflow="visible" opacity=".938" fill="#00c0a7"/><path d="M43.147 103.261c-24.893 117.883-59.62 185.12-98.055 224.204a194.534 194.534 0 0 1-11.896 11.142c-36.05 31.155-75.396 41.186-116.325 46.321a569.27 569.27 0 0 1-14.243 1.599c-41.804 4.202-84.52 4.744-123.94 20.261a163.76 163.76 0 0 0-6.66 2.791c-40.792 18.173-76.266 54.629-99.877 126.355-.212.673 2.184 2.229 5.044 3.95 4.375 1.462 12.542 4.079 13.204 4.274a.726.726 0 0 0 .26-.333c22.909-70.531 54.546-101.033 91.82-116.826a151.417 151.417 0 0 1 7.537-2.967c36.795-13.411 79.87-13.435 124.728-18.61.848-.097 1.697-.197 2.546-.3 46.133-5.538 94.37-17.625 136.918-58.192a214.31 214.31 0 0 0 2.619-2.537C-.06 301.968 36.504 230.786 62.323 109.395c.129-.65-2.212-1.845-5.073-3.158-4.573-.996-14.103-2.976-14.103-2.976" style="line-height:normal;text-indent:0;text-align:start;text-decoration-line:none;text-decoration-style:solid;text-decoration-color:#000;text-transform:none;block-progression:tb;white-space:normal;isolation:auto;mix-blend-mode:normal;solid-color:#000;solid-opacity:1" overflow="visible" opacity=".943" fill="#00bea9"/><path d="M30.836 98.158c-24.773 117.029-59.347 183.67-97.6 222.351a192.702 192.702 0 0 1-11.84 11.024c-35.818 30.76-74.909 40.633-115.577 45.695-4.696.587-9.41 1.103-14.135 1.574-41.487 4.14-83.874 4.704-122.998 20.105-2.217.872-4.42 1.795-6.609 2.77-40.512 18.046-75.746 54.234-99.183 125.35-.194.616 2.27 2.131 5.207 3.814 4.461 1.491 12.495 4.073 13.101 4.252a.793.793 0 0 0 .252-.344c22.781-69.96 54.24-100.143 91.318-115.765a150.707 150.707 0 0 1 7.486-2.93c36.522-13.23 79.274-13.256 123.799-18.383.841-.097 1.684-.196 2.527-.297 45.799-5.49 93.693-17.467 135.95-57.622.87-.826 1.737-1.664 2.602-2.513C-11.98 295.173 24.38 224.57 50.042 104.135c.119-.596-2.282-1.747-5.21-3.017-4.664-1.016-13.996-2.96-13.996-2.96" style="line-height:normal;text-indent:0;text-align:start;text-decoration-line:none;text-decoration-style:solid;text-decoration-color:#000;text-transform:none;block-progression:tb;white-space:normal;isolation:auto;mix-blend-mode:normal;solid-color:#000;solid-opacity:1" overflow="visible" opacity=".936" fill="#00b9a3"/><path d="M18.525 93.054C-6.128 209.23-40.55 275.276-78.622 313.554a190.88 190.88 0 0 1-11.782 10.906c-35.586 30.365-74.422 40.08-114.828 45.068-4.66.578-9.338 1.085-14.029 1.55-41.17 4.076-83.227 4.664-122.055 19.947a161.39 161.39 0 0 0-6.558 2.749c-40.232 17.92-75.225 53.84-98.488 124.344-.177.56 2.357 2.036 5.37 3.681 4.547 1.52 12.447 4.066 12.998 4.229a.876.876 0 0 0 .242-.355c22.655-69.388 53.937-99.253 90.817-114.703a149.984 149.984 0 0 1 7.434-2.893c36.25-13.049 78.679-13.079 122.87-18.158a542.49 542.49 0 0 0 2.508-.294c45.466-5.44 93.018-17.307 134.981-57.051a210.82 210.82 0 0 0 2.588-2.49c42.651-41.705 78.809-111.73 104.316-231.208.108-.543-2.352-1.649-5.35-2.877-4.754-1.035-13.887-2.945-13.887-2.945" style="line-height:normal;text-indent:0;text-align:start;text-decoration-line:none;text-decoration-style:solid;text-decoration-color:#000;text-transform:none;block-progression:tb;white-space:normal;isolation:auto;mix-blend-mode:normal;solid-color:#000;solid-opacity:1" overflow="visible" opacity=".942" fill="#00b298"/><path d="M6.215 87.95C-18.32 203.274-52.588 268.724-90.48 306.599a189.06 189.06 0 0 1-11.725 10.788c-35.354 29.97-73.934 39.526-114.079 44.442a574.956 574.956 0 0 1-13.922 1.525c-40.852 4.014-82.581 4.624-121.113 19.79-2.183.86-4.352 1.768-6.507 2.728-39.951 17.795-74.704 53.446-97.794 123.339-.16.505 2.443 1.94 5.534 3.547 4.632 1.549 12.398 4.06 12.894 4.206a.98.98 0 0 0 .234-.365c22.528-68.817 53.632-98.364 90.314-113.643a149.274 149.274 0 0 1 7.384-2.856c35.976-12.867 78.083-12.9 121.941-17.932.829-.095 1.658-.192 2.488-.291 45.134-5.39 92.342-17.148 134.014-56.48.86-.81 1.716-1.632 2.571-2.466C-35.824 281.585.13 212.14 25.482 93.616c.096-.488-2.422-1.55-5.49-2.736-4.843-1.055-13.777-2.93-13.777-2.93" style="line-height:normal;text-indent:0;text-align:start;text-decoration-line:none;text-decoration-style:solid;text-decoration-color:#000;text-transform:none;block-progression:tb;white-space:normal;isolation:auto;mix-blend-mode:normal;solid-color:#000;solid-opacity:1" overflow="visible" opacity=".86" fill="#00c2a1"/><path d="M-6.096 82.847c-24.414 114.469-58.53 179.324-96.24 216.796a187.252 187.252 0 0 1-11.668 10.67c-35.123 29.575-73.447 38.972-113.33 43.815-4.59.559-9.197 1.05-13.815 1.5-40.535 3.951-81.935 4.585-120.17 19.634a159.016 159.016 0 0 0-6.458 2.707c-39.67 17.668-74.182 53.051-97.099 122.333-.141.449 2.53 1.844 5.698 3.413 4.718 1.577 12.35 4.053 12.79 4.183.103-.118.18-.242.226-.376 22.401-68.246 53.327-97.475 89.812-112.582 2.415-1.004 4.86-1.94 7.332-2.818 35.704-12.687 77.488-12.723 121.013-17.707.822-.094 1.645-.19 2.469-.288 44.8-5.34 91.666-16.989 133.045-55.909a207.34 207.34 0 0 0 2.556-2.443C-47.745 274.79-11.995 205.924 13.2 88.356c.086-.434-2.491-1.452-5.628-2.595-4.933-1.075-13.67-2.914-13.67-2.914" style="line-height:normal;text-indent:0;text-align:start;text-decoration-line:none;text-decoration-style:solid;text-decoration-color:#000;text-transform:none;block-progression:tb;white-space:normal;isolation:auto;mix-blend-mode:normal;solid-color:#000;solid-opacity:1" overflow="visible" opacity=".951" fill="#00ae99"/><path d="M-18.407 77.744c-24.294 113.615-58.257 177.874-95.786 214.943a185.45 185.45 0 0 1-11.611 10.552c-34.89 29.181-72.96 38.42-112.581 43.188-4.555.55-9.126 1.034-13.709 1.477-40.218 3.887-81.288 4.544-119.227 19.477-2.15.846-4.285 1.74-6.407 2.685-39.39 17.542-73.66 52.657-96.404 121.328-.124.392 2.615 1.748 5.86 3.28a1340.487 1340.487 0 0 0 12.688 4.159c.096-.122.17-.25.216-.387 22.275-67.674 53.023-96.585 89.31-111.521 2.398-.99 4.826-1.915 7.282-2.78 35.43-12.506 76.892-12.545 120.083-17.481.816-.094 1.633-.189 2.45-.286 44.467-5.291 90.99-16.83 132.077-55.338.85-.795 1.696-1.601 2.54-2.42C-59.666 267.997-24.12 199.709.921 83.097c.075-.38-2.561-1.353-5.767-2.454-5.023-1.094-13.561-2.898-13.561-2.898" style="line-height:normal;text-indent:0;text-align:start;text-decoration-line:none;text-decoration-style:solid;text-decoration-color:#000;text-transform:none;block-progression:tb;white-space:normal;isolation:auto;mix-blend-mode:normal;solid-color:#000;solid-opacity:1" overflow="visible" opacity=".901" fill="#00cbaa"/><path d="M-30.718 72.64c-24.174 112.762-57.984 176.426-95.332 213.092a183.659 183.659 0 0 1-11.554 10.434c-34.66 28.786-72.473 37.865-111.832 42.561-4.52.54-9.055 1.016-13.602 1.452-39.9 3.825-80.642 4.505-118.285 19.32-2.132.84-4.252 1.727-6.356 2.664-39.11 17.416-73.14 52.263-95.71 120.323-.106.336 2.702 1.652 6.024 3.145 4.89 1.634 12.254 4.04 12.585 4.137.09-.127.16-.259.207-.397 22.148-67.103 52.718-95.696 88.808-110.461 2.381-.977 4.792-1.89 7.23-2.743 35.158-12.324 76.297-12.367 119.155-17.255.81-.093 1.62-.187 2.43-.283 44.134-5.242 90.315-16.67 131.11-54.767.843-.787 1.684-1.585 2.524-2.396 41.728-40.264 77.071-107.973 101.957-223.63.064-.325-2.632-1.254-5.907-2.313-5.112-1.114-13.452-2.882-13.452-2.882" style="line-height:normal;text-indent:0;text-align:start;text-decoration-line:none;text-decoration-style:solid;text-decoration-color:#000;text-transform:none;block-progression:tb;white-space:normal;isolation:auto;mix-blend-mode:normal;solid-color:#000;solid-opacity:1" overflow="visible" opacity=".874" fill="#00c8a6"/><path d="M-43.029 67.537c-24.054 111.908-57.71 174.976-94.878 211.239a181.872 181.872 0 0 1-11.497 10.316c-34.428 28.391-71.986 37.313-111.083 41.935-4.484.531-8.984.999-13.496 1.427-39.583 3.762-79.996 4.465-117.342 19.164a155.487 155.487 0 0 0-6.306 2.643c-38.828 17.29-72.618 51.868-95.014 119.317-.089.28 2.787 1.556 6.187 3.011a1706.056 1706.056 0 0 0 12.481 4.114c.083-.131.151-.267.199-.408 22.02-66.532 52.413-94.806 88.305-109.4a146.495 146.495 0 0 1 7.18-2.705c34.884-12.144 75.7-12.19 118.225-17.03.804-.091 1.607-.185 2.412-.28 43.8-5.192 89.639-16.51 130.14-54.195.839-.78 1.675-1.57 2.509-2.373C-83.509 254.408-48.37 187.277-23.64 72.577c.054-.272-2.7-1.157-6.045-2.173-5.202-1.133-13.344-2.867-13.344-2.867" style="line-height:normal;text-indent:0;text-align:start;text-decoration-line:none;text-decoration-style:solid;text-decoration-color:#000;text-transform:none;block-progression:tb;white-space:normal;isolation:auto;mix-blend-mode:normal;solid-color:#000;solid-opacity:1" overflow="visible" opacity=".882" fill="#00bfa8"/><path d="M-55.34 62.434c-23.934 111.054-57.438 173.527-94.424 209.387a180.092 180.092 0 0 1-11.44 10.198c-34.196 27.996-71.499 36.759-110.334 41.308a587.56 587.56 0 0 1-13.39 1.403c-39.265 3.699-79.349 4.425-116.399 19.007a154.317 154.317 0 0 0-6.255 2.62c-38.547 17.165-72.097 51.475-94.32 118.313-.07.224 2.874 1.46 6.35 2.877a2032.772 2032.772 0 0 0 12.379 4.09c.077-.135.141-.274.19-.418 21.894-65.96 52.108-93.917 87.803-108.339 2.347-.95 4.724-1.837 7.128-2.668 34.612-11.962 75.105-12.011 117.297-16.804.797-.09 1.594-.183 2.392-.277 43.468-5.143 88.963-16.351 129.173-53.624.833-.772 1.664-1.555 2.492-2.35C-95.43 247.613-60.495 181.062-35.92 67.317c.043-.217-2.77-1.058-6.184-2.032a4410.266 4410.266 0 0 0-13.235-2.851" style="line-height:normal;text-indent:0;text-align:start;text-decoration-line:none;text-decoration-style:solid;text-decoration-color:#000;text-transform:none;block-progression:tb;white-space:normal;isolation:auto;mix-blend-mode:normal;solid-color:#000;solid-opacity:1" overflow="visible" opacity=".882" fill="#00d5a5"/><path d="M-67.65 57.33c-23.815 110.201-57.166 172.078-93.97 207.535a178.328 178.328 0 0 1-11.385 10.08c-33.963 27.602-71.01 36.206-109.584 40.681-4.414.513-8.843.965-13.283 1.38-38.948 3.635-78.703 4.384-115.457 18.85-2.081.819-4.15 1.685-6.204 2.6-38.267 17.037-71.576 51.08-93.626 117.306-.053.168 2.96 1.364 6.515 2.743 5.147 1.72 12.109 4.019 12.274 4.067.07-.14.132-.282.18-.428 21.769-65.39 51.805-93.028 87.302-107.279 2.33-.937 4.69-1.812 7.078-2.63 34.339-11.781 74.51-11.834 116.368-16.579.79-.09 1.58-.18 2.372-.274 43.135-5.093 88.288-16.192 128.205-53.053a198.75 198.75 0 0 0 2.477-2.326c41.037-39.184 75.768-105.156 100.187-217.946.033-.163-2.84-.96-6.323-1.89-5.38-1.173-13.126-2.837-13.126-2.837" style="line-height:normal;text-indent:0;text-align:start;text-decoration-line:none;text-decoration-style:solid;text-decoration-color:#000;text-transform:none;block-progression:tb;white-space:normal;isolation:auto;mix-blend-mode:normal;solid-color:#000;solid-opacity:1" overflow="visible" opacity=".865" fill="#00d2b1"/><path d="M-79.961 52.227c-23.695 109.347-56.893 170.628-93.517 205.683a176.57 176.57 0 0 1-11.327 9.962c-33.732 27.207-70.523 35.652-108.836 40.054-4.377.504-8.771.947-13.175 1.355-38.63 3.573-78.057 4.344-114.515 18.693a151.935 151.935 0 0 0-6.154 2.579c-37.986 16.911-71.054 50.685-92.93 116.3-.036.113 3.046 1.269 6.677 2.61 5.233 1.749 12.061 4.012 12.171 4.044a5.05 5.05 0 0 0 .173-.44c21.64-64.817 51.5-92.137 86.799-106.216a144.5 144.5 0 0 1 7.026-2.593c34.066-11.6 73.914-11.656 115.44-16.354.783-.088 1.568-.179 2.353-.271 42.802-5.044 87.612-16.032 127.236-52.482.823-.757 1.643-1.524 2.461-2.303 40.806-38.823 75.335-104.217 99.598-216.05.022-.11-2.91-.862-6.462-1.75-5.47-1.193-13.018-2.821-13.018-2.821" style="line-height:normal;text-indent:0;text-align:start;text-decoration-line:none;text-decoration-style:solid;text-decoration-color:#000;text-transform:none;block-progression:tb;white-space:normal;isolation:auto;mix-blend-mode:normal;solid-color:#000;solid-opacity:1" overflow="visible" opacity=".923" fill="#00c6b7"/><path d="M-92.272 47.123c-23.575 108.494-56.62 169.18-93.063 203.831a174.821 174.821 0 0 1-11.27 9.844c-33.5 26.812-70.036 35.099-108.087 39.428-4.342.494-8.7.93-13.069 1.33-38.313 3.51-77.41 4.305-113.572 18.537a150.76 150.76 0 0 0-6.103 2.557c-37.705 16.785-70.533 50.292-92.236 115.296-.017.056 3.133 1.171 6.841 2.475a7024.777 7024.777 0 0 0 12.068 4.021c.058-.149.113-.299.163-.45 21.515-64.246 51.195-91.248 86.297-105.156 2.297-.91 4.622-1.76 6.976-2.556 33.793-11.42 73.318-11.478 114.51-16.127.777-.088 1.555-.178 2.334-.27 42.469-4.993 86.936-15.872 126.269-51.91.817-.749 1.632-1.508 2.445-2.279 40.575-38.464 74.9-103.278 99.008-214.156.01-.055-2.98-.763-6.602-1.61-5.56-1.211-12.909-2.805-12.909-2.805" style="line-height:normal;text-indent:0;text-align:start;text-decoration-line:none;text-decoration-style:solid;text-decoration-color:#000;text-transform:none;block-progression:tb;white-space:normal;isolation:auto;mix-blend-mode:normal;solid-color:#000;solid-opacity:1" overflow="visible" opacity=".962" fill="#00c1ab"/><path d="M-104.583 42.02c-23.455 107.64-56.347 167.73-92.609 201.978a173.08 173.08 0 0 1-11.213 9.727c-33.268 26.417-69.549 34.545-107.338 38.8-4.307.486-8.63.913-12.962 1.306-37.996 3.448-76.764 4.265-112.63 18.38-2.03.8-4.048 1.644-6.052 2.536-37.425 16.66-70.012 49.898-91.541 114.29a4160242.252 4160242.252 0 0 0 18.968 6.34l.155-.46c21.387-63.675 50.89-90.36 85.795-104.096a143.21 143.21 0 0 1 6.924-2.518c33.52-11.239 72.723-11.3 113.582-15.902.77-.087 1.542-.176 2.314-.266 42.136-4.945 86.261-15.714 125.3-51.34.813-.74 1.623-1.493 2.43-2.255 40.345-38.104 74.466-102.34 98.418-212.262l-6.74-1.469-12.8-2.789" style="line-height:normal;text-indent:0;text-align:start;text-decoration-line:none;text-decoration-style:solid;text-decoration-color:#000;text-transform:none;block-progression:tb;white-space:normal;isolation:auto;mix-blend-mode:normal;solid-color:#000;solid-opacity:1" overflow="visible" opacity=".941" fill="#00dcb7"/></g></svg>