<svg xmlns="http://www.w3.org/2000/svg" xmlns:xlink="http://www.w3.org/1999/xlink" height="241.156" width="228.752"><defs><linearGradient id="b"><stop offset="0" stop-color="#999"/><stop offset="1" stop-color="#fff"/></linearGradient><linearGradient id="a"><stop offset="0" stop-color="#5da74a"/><stop offset=".867" stop-color="#0a0e08"/><stop offset=".961" stop-color="#7a9870"/><stop offset="1" stop-color="#99b592"/></linearGradient><linearGradient xlink:href="#a" id="o" gradientUnits="userSpaceOnUse" x1="100.75" y1="43.54" x2="100.75" y2="36.771"/><radialGradient xlink:href="#b" id="p" gradientUnits="userSpaceOnUse" gradientTransform="rotate(-15 165.208 -214.018) scale(.36885)" spreadMethod="reflect" cx="100.75" cy="40.156" fx="100.75" fy="40.156" r="2.75"/><radialGradient xlink:href="#b" id="q" gradientUnits="userSpaceOnUse" gradientTransform="scale(2.30167) rotate(-30 29.885 135.122)" spreadMethod="reflect" cx="102.857" cy="42.801" fx="102.857" fy="42.801" r="2.75"/><radialGradient xlink:href="#a" id="n" gradientUnits="userSpaceOnUse" gradientTransform="matrix(.77821 0 0 1.60238 -1303.54 -1095.27)" spreadMethod="reflect" cx="1804.279" cy="716.354" fx="1804.279" fy="716.354" r="38.766"/><linearGradient xlink:href="#a" id="d" gradientUnits="userSpaceOnUse" gradientTransform="rotate(90 366.076 285.356)" x1="141.476" y1="75.356" x2="170.675" y2="75.356"/><linearGradient xlink:href="#a" id="e" gradientUnits="userSpaceOnUse" gradientTransform="rotate(90 366.076 285.356)" x1="141.476" y1="75.356" x2="170.675" y2="75.356"/><linearGradient xlink:href="#a" id="f" gradientUnits="userSpaceOnUse" gradientTransform="rotate(90 382.78 293.183)" x1="153.705" y1="83.183" x2="191.855" y2="83.183"/><linearGradient xlink:href="#a" id="g" gradientUnits="userSpaceOnUse" gradientTransform="rotate(90 407.78 336.484)" x1="194.355" y1="126.484" x2="201.205" y2="126.484"/><linearGradient xlink:href="#a" id="h" gradientUnits="userSpaceOnUse" gradientTransform="rotate(90 407.78 336.484)" x1="194.355" y1="126.484" x2="201.205" y2="126.484"/><linearGradient xlink:href="#a" id="i" gradientUnits="userSpaceOnUse" gradientTransform="rotate(90 407.78 367.831)" x1="194.355" y1="157.831" x2="201.205" y2="157.831"/><linearGradient xlink:href="#a" id="j" gradientUnits="userSpaceOnUse" gradientTransform="rotate(90 407.78 367.831)" x1="194.355" y1="157.831" x2="201.205" y2="157.831"/><radialGradient xlink:href="#a" id="k" gradientUnits="userSpaceOnUse" gradientTransform="matrix(.99633 0 0 1.17394 -1272.122 -713.122)" spreadMethod="reflect" cx="1800.314" cy="749.746" fx="1800.314" fy="749.746" r="96.258"/><radialGradient xlink:href="#a" id="c" cx="524.578" cy="164.329" fx="524.578" fy="164.329" r="98.266" gradientTransform="matrix(1 0 0 1.20701 0 -34.956)" gradientUnits="userSpaceOnUse"/><radialGradient xlink:href="#a" id="r" gradientUnits="userSpaceOnUse" gradientTransform="matrix(1.13965 -.30537 .41126 1.53484 -2237.668 -409.55)" cx="1739.215" cy="678.82" fx="1739.215" fy="678.82" r="67.753"/><radialGradient xlink:href="#a" id="m" gradientUnits="userSpaceOnUse" gradientTransform="matrix(1.12666 -.08079 .11726 1.63529 -2013.855 -954.41)" spreadMethod="reflect" cx="1801.206" cy="729.804" fx="1801.206" fy="729.804" r="38.766"/><linearGradient xlink:href="#a" id="l" x1="520.078" y1="127.038" x2="520.078" y2="292.773" gradientUnits="userSpaceOnUse" spreadMethod="pad"/></defs><path d="M177.319 120.625s-47.803 1.662-68.747 8.603c-25.32 8.39-46.75 23.24-58.726 33.63-16.632 14.432-32.264 45.102-32.264 45.102l7.72 7.559a4.08 4.08 0 0 0-.042.077l4.447.39s.977-1.456 2.359-3.46l12.13 13.31 10.58 8.867 3.632.452.014.031 36.568 4.644.016-.031 6.588.826 7.475-.826-.017.031 41.527-4.644.04-.016 4.157-.467 20.077-8.868 37.102-18.685 16.023-15.631.774-15.632-17.023-18.685-10.548-8.868-8.133-.857c-.027-.035-.038-.074-.067-.11l3.518.375-3.57-.452-.037-.047h-.344l-4.386-.56-1.498-2.214c.121-.058.253-.112.373-.171l2.57-4.785c.665-1.232 1.705-3.187 3.191-5.937l2.645-.328 2.687-3.896h.062l-.045-.03h-.032l-20.796-8.697zm-51.068 20.135c-.017.016-.04.03-.057.047l-8.807 5.05h-4.937l-.543.31a34.55 34.55 0 0 0-2.584 1.263l-2.824.312 2.736-.265c-.065.036-.119.073-.183.11l-.721.061-4.876.468c.801-.348 1.59-.683 2.348-.997 8.339-3.455 15.43-6.187 20.448-6.359zm62.03 6.11l3.517.373h-.968l-2.483-.265-.066-.109zm-72.696.015l-.144.093-.102.016c.077-.038.167-.071.246-.11z" opacity=".5" fill="#0c1109"/><path d="M135.266 25.624l-15.406 4.063c-5.024-2.318-11.373-3.72-18.282-3.72-8.052 0-15.346 1.892-20.656 4.938-4.366 2.505-7.432 5.816-8.375 9.563L65.11 52.843l-13.532 2.719-15.312 17.781-27.063 37.469-7.625 31.343L9.203 173.5l7.813 10.813c1.436-16.604 5.864-60.877 14.03-84.25 4.936-14.124 26.168-38.04 37.814-50.5l-.157-.188c.373-.4.582-.59.938-.969.049.054.107.103.156.157 4.084-4.348 6.844-7.157 6.844-7.157L74.67 53.03a42.391 42.391 0 0 0 15 7.407l.157-5.094c2.506-20.29 18.658-21.628 32.625-26l12.813-3.375v-.344z" fill="#0c1109"/><path d="M167.932 85.327l-25.954-14.206-8.967 12.418 18.352 24.732 16.569-22.944M146.586 111.01L128.234 86.28l-21.648 5.143v29.092l40-9.503M96.586 120.514V91.422L74.938 86.28 56.586 111.01l40 9.503" fill="none"/><path style="marker:none" d="M51.809 108.27L70.161 83.54 61.194 71.12 35.24 85.327l16.569 22.944" color="#000" fill="none" overflow="visible"/><path d="M35.24 80.907L61.194 66.7l8.967-12.417-18.352 3.68L35.24 80.906M56.586 54.367l18.352-3.679 21.648-5.143v-.681l-40 9.503M106.586 44.864v.68l21.648 5.144 18.352 3.68-40-9.504M151.363 57.963l-18.352-3.679 8.967 12.417 25.954 14.206-16.569-22.944M169.053 82.46l-25.954-14.207 25.954 14.206" fill="none"/><path d="M169.053 82.46l-25.954-14.207 25.954 14.206M172.393 90.64l17.342 21.26-21.648 29.977-12.262-28.294 16.568-22.944M148.119 118.003l12.262 28.294-52.262 12.417v-31.207l40-9.504M95.053 127.507v31.207l-52.262-12.417 12.262-28.294 40 9.504" fill="none"/><path style="marker:none" d="M47.347 113.583l-12.262 28.294L13.437 111.9l17.342-21.26 16.568 22.943" color="#000" fill="none" overflow="visible"/><path d="M30.779 84.024l-17.342 21.26 21.648-29.977 12.262-14.226L30.78 84.024M155.825 61.08l12.262 14.227 21.648 29.977-17.342-21.26-16.568-22.943M174.464 86.892l17.342 21.26-17.342-21.26M174.464 86.892l17.342 21.26-17.342-21.26M198.119 143.079L192.029 118l-21.648 29.977 4.306 27.548 23.432-32.447M165.226 180.953l-4.306-27.548-52.263 12.417v28.57l56.569-13.44M94.515 194.393v-28.571l-52.263-12.417-4.306 27.548 56.569 13.44" fill="none"/><path style="marker:none" d="M28.485 175.526l4.306-27.548L11.143 118l-6.09 25.078 23.432 32.447" color="#000" fill="none" overflow="visible"/><path d="M198.119 149.04l-6.09 25.078-21.648 29.977 4.306-22.609 23.432-32.447M165.226 187.094l-4.306 22.609-52.263 12.417v-21.586l56.569-13.44M94.515 200.534v21.586l-52.263-12.417-4.306-22.609 56.569 13.44" fill="none"/><path style="marker:none" d="M28.485 181.486l4.306 22.609-21.648-29.977-6.09-25.079 23.432 32.447" color="#000" fill="none" overflow="visible"/><path d="M148.119 228.17l12.262-14.227-52.262 12.417v11.313l40-9.504M95.053 237.673V226.36l-52.262-12.417 12.262 14.226 40 9.504" fill="none"/><g stroke="#000" stroke-linecap="round" stroke-linejoin="round" color="#000" fill="#0b0f09"><path style="marker:none" d="M172.297 84.235l-32.443-17.757-11.208 15.521 22.94 30.915 20.71-28.68" overflow="visible"/><path d="M151.586 112.914L128.646 82l-27.06 6.43v36.365l50-11.88" style="marker:none" overflow="visible"/><path d="M101.586 124.794V88.429l-27.06-6.43-22.94 30.915 50 11.88" style="marker:none" overflow="visible"/><path style="marker:none" d="M51.586 112.914L74.526 82 63.318 66.478 30.875 84.235l20.711 28.68" overflow="visible"/><path style="marker:none" d="M30.875 84.235l32.443-17.757 11.208-15.522-22.94 4.6-20.71 28.679M151.586 55.555l-22.94-4.599 11.208 15.522 32.443 17.757-20.711-28.68M172.297 84.235l-32.443-17.757h0l32.443 17.757h0" overflow="visible"/><path style="marker:none" d="M172.297 84.235l-32.443-17.757h0l32.443 17.757h0" overflow="visible"/><path style="marker:none" d="M172.297 84.235l21.677 26.575-27.06 37.471-15.328-35.367 20.71-28.68" overflow="visible"/><path style="marker:none" d="M151.586 112.914l15.328 35.367-65.328 15.522v-39.01l50-11.879M101.586 124.794v39.008l-65.328-15.52 15.328-35.368 50 11.88" overflow="visible"/><path style="marker:none" d="M51.586 112.914l-15.328 35.367-27.06-37.471 21.677-26.575 20.711 28.68" overflow="visible"/><path style="marker:none" d="M30.875 84.235L9.198 110.81l27.06-37.471 15.328-17.784-20.71 28.68M151.586 55.555l15.328 17.784 27.06 37.471-21.677-26.575-20.711-28.68M172.297 84.235l21.677 26.575h0l-21.677-26.575h0M172.297 84.235l21.677 26.575h0l-21.677-26.575h0" overflow="visible"/><path style="marker:none" d="M201.586 142.158l-7.612-31.348-27.06 37.471 5.383 34.435 29.289-40.558M172.297 182.716l-5.383-34.435-65.328 15.522v35.713l70.71-16.8" overflow="visible"/><path style="marker:none" d="M101.586 199.516v-35.713L36.258 148.28l-5.383 34.435 70.711 16.8" overflow="visible"/><path style="marker:none" d="M30.875 182.716l5.383-34.435-27.06-37.471-7.612 31.348 29.29 40.558M201.586 142.158l-7.612-31.348h0l7.612 31.348h0M201.586 142.158l-7.612-31.348h0l7.612 31.348h0M201.586 142.158l-7.612 31.347-27.06 37.472 5.383-28.26 29.289-40.56M172.297 182.716l-5.383 28.26-65.328 15.522v-26.982l70.71-16.8" overflow="visible"/><path style="marker:none" d="M101.586 199.516v26.982l-65.328-15.521-5.383-28.26 70.711 16.8" overflow="visible"/><path style="marker:none" d="M30.875 182.716l5.383 28.26-27.06-37.47-7.612-31.348 29.29 40.558M201.586 142.158l-7.612 31.347h0l7.612-31.347h0M201.586 142.158l-7.612 31.347h0l7.612-31.347h0M151.586 228.76l15.328-17.783-65.328 15.52v14.142l50-11.88M101.586 240.64v-14.142l-65.328-15.521 15.328 17.783 50 11.88" overflow="visible"/></g><g transform="translate(-420)" fill="url(#c)" color="#000"><path style="marker:none" d="M546.96 85.014l-22.502 5.569v31.608l41.556-10.333-19.055-26.844zM560.906 68.813L550.844 82.78l20.625 27.813 18.656-25.813-29.219-15.969zM494.719 84.125l-20.625 27.844 45 10.687V89.937l-24.375-5.812zM482.25 68.813L453.062 84.78l18.625 25.813 20.657-27.813-10.094-13.969zM492.344 52.625l-20.656 4.125-18.625 25.813 29.187-15.97 10.094-13.968zM550.844 52.625l10.062 13.969 29.219 15.969-18.656-25.813-20.625-4.125zM592.344 87.438l-18.625 25.812 13.781 31.844 24.344-33.75-19.5-23.906zM569.844 115.469l-45 10.687v35.094l58.812-13.969-13.812-31.812zM473.313 115.469L459.53 147.28l58.781 13.969v-35.094l-45-10.687zM452.313 87.688l-19.5 23.906 24.343 33.75L470.97 113.5l-18.656-25.813zM469.469 58.313l-13.813 16-24.344 33.75 19.5-23.938 18.657-25.813zM613 114.406l-24.344 33.719 4.844 31 26.344-36.5L613 114.406zM583.906 150.844l-58.781 13.969v32.156l63.625-15.125-4.844-31zM459.25 150.844l-4.844 31 63.656 15.125v-32.156l-58.812-13.97zM430.156 114.406l-6.844 28.219 26.375 36.5 4.844-31-24.375-33.719zM619.844 145.594l-26.344 36.5-4.844 25.437L613 173.812l6.844-28.218zM588.75 184.906l-63.625 15.125v24.281l58.781-13.968 4.844-25.438zM454.406 184.906l4.844 25.438 58.813 13.969V200.03l-63.657-15.125zM423.313 145.594l6.843 28.219 24.375 33.718-4.844-25.437-26.375-36.5zM583.656 212.469l-58.812 13.969v12.718l45-10.687 13.812-16zM459.531 212.469l13.781 16 45 10.687v-12.719l-58.78-13.968zM575.473 58.622l12.517 14.522 22.097 30.599-17.702-21.701-16.912-23.42" overflow="visible"/></g><path style="marker:none" d="M590.675 83.347l-29.199-15.981 29.199 15.98" color="#000" fill="url(#d)" overflow="visible" transform="translate(-420)"/><path style="marker:none" d="M590.675 83.347l-29.199-15.981 29.199 15.98" color="#000" fill="url(#e)" overflow="visible" transform="translate(-420)"/><path style="marker:none" d="M573.705 58.318l13.796 16.005 24.354 33.724-19.51-23.917-18.64-25.812" color="#000" fill="url(#f)" overflow="visible" transform="translate(-420)"/><path style="marker:none" d="M621.205 140.59l-6.85-28.213 6.85 28.213" color="#000" fill="url(#g)" overflow="visible" transform="translate(-420)"/><path style="marker:none" d="M621.205 140.59l-6.85-28.213 6.85 28.213" color="#000" fill="url(#h)" overflow="visible" transform="translate(-420)"/><path style="marker:none" d="M621.205 143.725l-6.85 28.213 6.85-28.213" color="#000" fill="url(#i)" overflow="visible" transform="translate(-420)"/><path style="marker:none" d="M621.205 143.725l-6.85 28.213 6.85-28.213" color="#000" fill="url(#j)" overflow="visible" transform="translate(-420)"/><path style="marker:none" d="M467.216 63.735l-11.98 13.899-21.148 29.267 16.938-20.749 16.19-22.417z" color="#000" fill="url(#k)" overflow="visible" transform="translate(-420)"/><g fill-opacity=".3"><path d="M104.094 89.938l2.864 3.833v28.42l-2.864.465V89.937" fill="#4c883d" fill-opacity="1"/><path d="M104.094 122.656l2.864-.465 39.056-9.29 3.08-.932-45 10.687" fill="#070c06" fill-opacity="1"/><path d="M149.094 111.969l-3.08.931-17.909-24.136.332-4.639 20.657 27.844" fill="#131e0f" fill-opacity="1"/><path d="M128.438 84.125l-.333 4.64.333-4.64M128.438 84.125l-.333 4.64.333-4.64"/></g><g fill-opacity="1"><path d="M75.076 88.764l-.357-4.639-20.625 27.844 3.048.931 17.934-24.136" fill="#4c883d"/><path d="M57.142 112.9l-3.048-.931 45 10.687-2.896-.465-39.056-9.29" fill="#070c06"/><path d="M96.198 122.191l2.896.465V89.937l-2.896 3.834v28.42" fill="#131e0f"/></g><g fill-opacity="1"><path d="M108.612 227.982l-3.768-1.545v12.72l3.768-.14v-11.035" fill="#4c883d"/><path d="M108.612 239.017l-3.768.14 45-10.688-2.176 1.257-39.056 9.29" fill="#070c06"/><path d="M147.668 229.726l2.176-1.257 13.812-16-4.007 3.383-11.981 13.874" fill="#4c883d"/></g><g fill-opacity="1"><path d="M105.125 200.031l4.072 2.305v21.073l-4.072.904V200.03" fill="#4c883d"/><path d="M105.125 224.313l4.072-.904 51.037-12.13 3.672-.935-58.781 13.968" fill="#070c06"/><path d="M163.906 210.344l-3.672.934 4.184-22.068 4.332-4.304-4.844 25.438" fill="#131e0f"/></g><g fill-opacity="1"><path d="M109.197 167.82l-4.072-3.007v32.156l4.072-1.252V167.82" fill="#4c883d"/><path d="M109.197 195.717l-4.072 1.252 63.625-15.125-4.332.746-55.221 13.127" fill="#070c06"/><path d="M164.418 182.59l4.332-.746-4.844-31-3.672 4.846 4.184 26.9" fill="#131e0f"/></g><g fill-opacity="1"><path d="M108.612 129.704l-3.768-3.548v35.094l3.768-1.083v-30.463" fill="#4c883d"/><path d="M108.612 160.167l-3.768 1.083 58.812-13.969-4.007.78-51.037 12.106" fill="#070c06"/><path d="M159.649 148.061l4.007-.78-13.812-31.812-2.176 4.97 11.98 27.622" fill="#131e0f"/></g><g fill-opacity="1"><path d="M55.492 120.438l-2.18-4.97-13.78 31.813 4.004.78 11.956-27.623" fill="#4c883d"/><path d="M43.536 148.061l-4.005-.78 58.782 13.969-3.765-1.083-51.012-12.106" fill="#070c06"/><path d="M94.548 160.167l3.765 1.083v-35.094l-3.765 3.548v30.463" fill="#131e0f"/></g><g fill-opacity="1"><path d="M42.95 155.69l-3.7-4.846-4.844 31 4.335.746 4.21-26.9" fill="#4c883d"/><path d="M38.741 182.59l-4.335-.746 63.657 15.125-4.076-1.252-55.246-13.127" fill="#070c06"/><path d="M93.987 195.717l4.076 1.252v-32.156l-4.076 3.007v27.897" fill="#131e0f"/></g><g fill-opacity="1"><path d="M34.406 184.906l4.335 4.304 4.21 22.068-3.701-.934-4.844-25.438" fill="#4c883d"/><path d="M39.25 210.344l3.7.934 51.037 12.13 4.076.905-58.813-13.97" fill="#070c06"/><path d="M98.063 224.313l-4.076-.904v-21.073l4.076-2.305v24.281" fill="#131e0f"/></g><g fill-opacity="1"><path d="M43.536 215.852l-4.005-3.383 13.782 16 2.179 1.257-11.956-13.874" fill="#4c883d"/><path d="M55.492 229.726l-2.18-1.257 45 10.687-3.764-.14-39.056-9.29" fill="#070c06"/><path d="M94.548 239.017l3.764.14v-12.72l-3.764 1.545v11.035" fill="#131e0f"/></g><g fill-opacity=".3"><path d="M62.25 68.813l-1.061 2.856L35.818 83.55l-2.755 1.231L62.25 68.812"/><path d="M33.063 84.781l2.755-1.23 16.19 22.392-.32 4.65-18.626-25.812" fill="none"/><path d="M51.688 110.594l.32-4.651 17.909-24.136 2.427.974-20.656 27.813" fill="none"/><path d="M72.344 82.781l-2.427-.974-8.728-10.138 1.061-2.856L72.344 82.78" fill="none"/><path d="M62.25 68.813l-1.061 2.856 1.061-2.856"/></g><g fill-opacity=".3" fill="none"><path d="M29.026 91.27l1.786-3.832-19.5 23.906.776.674L29.026 91.27M12.088 112.018l-.776-.674 24.344 33.75-2.42-3.784-21.148-29.292"/><path d="M33.235 141.31l2.421 3.784L49.47 113.25l-4.253.412-11.98 27.648M45.216 113.662l4.253-.412-18.657-25.813-1.786 3.833 16.19 22.392"/></g><g fill-opacity=".3"><path d="M9.628 120.594l.528-6.188-6.844 28.219.363 2.454 5.953-24.485" fill="none"/><path d="M3.675 145.079l-.363-2.454 26.375 36.5-3.121-2.363-22.89-31.683" fill="#040503" fill-opacity="1"/><path d="M26.566 176.762l3.122 2.363 4.843-31-3.755 1.736-4.21 26.9" fill="none"/><path d="M30.776 149.861l3.755-1.736-24.375-33.719-.528 6.188 21.148 29.267M9.628 120.594l.528-6.188-.528 6.188" fill="none"/></g><g fill-opacity=".3" fill="none"><path d="M5.676 151.49l-2.363-5.896 6.843 28.219 1.473 2.161-5.953-24.485"/><path d="M11.629 175.974l-1.473-2.161 24.375 33.718-1.755-2.29-21.147-29.267"/><path d="M32.776 205.241l1.755 2.29-4.844-25.437-1.12 1.079 4.209 22.068M28.566 183.173l1.121-1.08-26.375-36.5 2.364 5.896 22.89 31.684"/></g><g fill-opacity=".3"><path d="M72.344 52.625l-2.427.17-17.91 3.587-.32.368 20.657-4.125" fill="none"/><path d="M51.688 56.75l.32-.368-16.19 22.417-2.755 3.763L51.686 56.75"/><path d="M33.063 82.563l2.755-3.764 25.356-13.874 1.076 1.669-29.188 15.969M62.25 66.594l-1.076-1.669 8.743-12.13 2.427-.17L62.25 66.594" fill="none"/><path d="M72.344 52.625l-2.427.17 2.427-.17M72.344 52.625l-2.427.17 2.427-.17"/></g><g fill-opacity=".3"><path d="M173.5 182.094l1.118 1.079-4.21 22.068-1.752 2.29 4.844-25.437" fill="#4c883d" fill-opacity="1"/><path d="M168.656 207.531l1.753-2.29 21.122-29.267 1.469-2.161-24.344 33.718"/><path d="M193 173.813l-1.469 2.161 5.953-24.485 2.36-5.895L193 173.813"/></g><g fill-opacity=".3"><path d="M168.656 148.125l3.753 1.736 4.21 26.9-3.119 2.364-4.844-31" fill="#4c883d" fill-opacity="1"/><path d="M173.5 179.125l3.118-2.363 22.866-31.683.36-2.454-26.344 36.5" fill="#070c06" fill-opacity="1"/><path d="M199.844 142.625l-.36 2.454-5.953-24.485-.531-6.188 6.844 28.219"/></g><g fill-opacity="1"><path d="M153.719 113.25l4.25.412 11.98 27.648-2.449 3.784-13.781-31.844" fill="#4c883d"/><path d="M167.5 145.094l2.45-3.784 21.121-29.292.773-.674-24.344 33.75" fill="#070c06"/></g><g fill-opacity=".3"><path d="M133.24 81.807l-2.396.974 20.625 27.813-.296-4.651-17.933-24.136" fill="#4c883d" fill-opacity="1"/><path d="M151.173 105.943l.296 4.65 18.656-25.812-2.786-1.23-16.166 22.392" fill="#070c06" fill-opacity="1"/><path d="M167.339 83.55l2.786 1.231-29.219-15.969 1.087.864 25.346 13.874"/></g><g fill-opacity=".3"><path d="M142.007 64.94l-1.1 1.654 29.218 15.969-2.786-3.75-25.332-13.873" fill="#4c883d" fill-opacity="1"/><path d="M167.339 78.814l2.786 3.749-18.656-25.813-.296-.354 16.166 22.418" fill="#0e190c" fill-opacity="1"/><path d="M151.173 56.396l.296.354-20.625-4.125 2.396.184 17.933 3.587"/></g><g fill-opacity=".3"><path d="M29.026 91.27l3.286-3.582-19.5 23.906-.724.424L29.026 91.27" fill="#4c883d" fill-opacity="1"/><path d="M12.088 112.018l.724-.424 24.344 33.75-3.92-4.034-21.148-29.292" fill="#070c06" fill-opacity="1"/><path d="M33.235 141.31l3.921 4.034L50.97 113.5l-5.753.162-11.98 27.648" fill="#131e0f" fill-opacity="1"/><path d="M29.026 91.27l3.286-3.582-3.286 3.582M29.026 91.27l3.286-3.582-3.286 3.582"/></g><g fill-opacity=".3"><path d="M9.628 120.594l.528-6.188-6.844 28.219.363 2.454 5.953-24.485" fill="#4c883d" fill-opacity="1"/><path d="M3.675 145.079l-.363-2.454 26.375 36.5-3.121-2.363-22.89-31.683" fill="#070c06" fill-opacity="1"/><path d="M26.566 176.762l3.122 2.363 4.843-31-3.755 1.736-4.21 26.9" fill="#131e0f" fill-opacity="1"/><path d="M9.628 120.594l.528-6.188-.528 6.188M9.628 120.594l.528-6.188-.528 6.188"/></g><g fill-opacity=".3"><path d="M5.676 151.49l-2.363-5.896 6.843 28.219 1.473 2.161-5.953-24.485" fill="#4c883d" fill-opacity="1"/><path d="M32.776 205.241l1.755 2.29-4.844-25.437-1.12 1.079 4.209 22.068" fill="#131e0f" fill-opacity="1"/><path d="M5.676 151.49l-2.363-5.896 2.363 5.895"/><path d="M5.676 151.49l-2.363-5.896 2.363 5.895"/></g><g fill-opacity="1"><path d="M62.25 68.813l-1.061 2.856L35.818 83.55l-2.755 1.231L62.25 68.812" fill="#4c883d"/><path d="M33.063 84.781l2.755-1.23 16.19 22.392-.32 4.65-18.626-25.812" fill="#070c06"/><path d="M51.688 110.594l.32-4.651 17.909-24.136 2.427.974-20.656 27.813" fill="#131e0f"/></g><g fill-opacity="1"><path d="M72.344 52.625l-2.427.17-17.91 3.587-.32.368 20.657-4.125" fill="#e6e6e6"/><path d="M51.688 56.75l.32-.368-16.19 22.417-2.755 3.763L51.686 56.75" fill="#e6e6e6"/><path d="M33.063 82.563l2.755-3.764 25.356-13.874 1.076 1.669-29.188 15.969" fill="#233b1c"/></g><g fill-opacity=".3"><path d="M31.026 86.152l-.213-2.027 18.656-25.813-2.253 5.423-16.19 22.417" fill="#4c883d" fill-opacity="1"/><path d="M14.088 106.9l-2.776 1.162 19.5-23.937.214 2.027-16.938 20.749" fill="#131e0f" fill-opacity="1"/><path d="M47.216 63.735l2.253-5.422-2.253 5.422M47.216 63.735l2.253-5.422-2.253 5.422"/></g><g fill="url(#l)" stroke="none" stroke-width="2" stroke-opacity=".6" transform="translate(-420)"><path d="M610.087 103.743l1.768 4.304-19.51-23.917.04-2.088 17.702 21.7M548.438 84.125l-.333 4.64-21.147 5.006-2.864-3.834 24.344-5.812M516.198 93.77l2.896-3.833-24.375-5.812.357 4.64 21.122 5.006M579.649 215.852l4.007-3.383-58.812 13.969 3.768 1.544 51.037-12.13M588.75 184.906l-4.332 4.304-55.221 13.126-4.072-2.305 63.625-15.125M580.234 155.69l3.672-4.846-58.781 13.969 4.072 3.007 51.037-12.13M567.668 120.438l2.176-4.97-45 10.688 3.768 3.548 39.056-9.266M514.548 129.704l3.765-3.548-45-10.687 2.179 4.97 39.056 9.265M513.987 167.82l4.076-3.007-58.813-13.97 3.7 4.847 51.037 12.13M518.063 200.031l-4.076 2.305-55.246-13.126-4.335-4.304 63.657 15.125M514.548 227.982l3.764-1.545-58.78-13.968 4.004 3.383 51.012 12.13M619.844 145.594l-2.36 5.895-22.866 31.684-1.118-1.08 26.344-36.5M613 114.406l.531 6.188-21.122 29.267-3.753-1.736L613 114.406M592.344 87.438l1.79 3.832-16.166 22.392-4.25-.412 18.626-25.813M561.993 69.676l-1.087-.864-10.062 13.97 2.396-.975 8.753-12.13M553.24 52.81l-2.396-.185 10.062 13.969 1.101-1.654-8.767-12.13M465.216 113.662l5.753-.162-18.656-25.813-3.287 3.583 16.19 22.392M450.776 149.861l3.755-1.736-24.375-33.719-.528 6.188 21.148 29.267M448.566 183.173l1.122-1.08-26.375-36.5 2.363 5.896 22.89 31.684M492.344 82.781l-2.427-.974-8.728-10.138 1.061-2.856 10.094 13.968M482.25 66.594l-1.076-1.669 8.743-12.13 2.427-.17-10.094 13.969"/><path d="M592.385 82.042l-.04 2.088-18.64-25.812 1.768.304 16.912 23.42"/></g><path style="text-indent:0;text-align:start;line-height:normal;text-transform:none;block-progression:tb;marker:none;-inkscape-font-specification:Sans" d="M137.625 53.375c3.975 5.223 4.222 12.858.36 18.223-5.748 8.172-15.642 12.096-25.128 13.937-13.337 2.333-27.784.978-39.67-5.847-6.379-3.663-12.334-10.219-11.67-18.06-.17-2.785 2.323-6.545 2.7-8.029l-5.78 1.526c-3.647 6.17-2.786 14.339 1.717 19.85 6.785 8.624 17.674 12.768 28.16 14.708 14.7 2.445 30.515.98 43.726-6.265 7.22-4.023 14.061-10.922 14.085-19.7-.106-3.612-1.19-8-3.796-10.343h-4.704z" font-weight="400" color="#000" overflow="visible" font-family="Sans"/><path d="M101.563 25.983c-8.052 0-15.337 1.883-20.647 4.929-4.366 2.504-7.416 5.81-8.359 9.557l-7.66 12.755c-1.796 1.999-3.098 4.162-3.862 6.46l-.033.067a14.556 14.556 0 0 0-.733 4.529c0 6.71 4.707 12.726 12.189 17.017 7.48 4.291 17.761 6.927 29.105 6.927 11.344 0 21.624-2.636 29.106-6.927 7.48-4.291 12.221-10.307 12.221-17.017 0-1.548-.253-3.071-.732-4.53l-.033-.066c-.76-2.274-2.055-4.412-3.83-6.394l-7.693-12.82c-.942-3.748-3.992-7.054-8.358-9.558-5.31-3.046-12.629-4.929-20.68-4.929z" style="text-indent:0;text-align:start;line-height:normal;text-transform:none;block-progression:tb;marker:none;-inkscape-font-specification:Sans" font-weight="400" color="#000" fill="url(#m)" overflow="visible" font-family="Sans"/><path style="marker:none" d="M135.266 25.624L76.64 41.03s-3.362 3.446-7.938 8.344a38.91 38.91 0 0 0 3.407 3.531c7.48 6.828 17.75 11.032 29.093 11.032 11.344 0 21.613-4.204 29.094-11.032 1.821-1.662 3.501-3.473 4.969-5.437V25.624z" color="#000" fill="url(#n)" overflow="visible"/><g color="#000"><path style="marker:none" d="M103.5 40.156a2.75 2.75 0 1 1-5.5 0 2.75 2.75 0 1 1 5.5 0z" transform="matrix(1.92045 0 0 -1.8409 -77.142 111.891)" fill="url(#o)" overflow="visible"/><path style="marker:none" d="M103.5 40.156a2.75 2.75 0 1 1-5.5 0 2.75 2.75 0 1 1 5.5 0z" transform="rotate(90 136.591 36.489) scale(1.37477)" fill="url(#p)" overflow="visible"/><path transform="matrix(.88462 0 0 .88462 28.75 2.883)" d="M103.5 40.156a2.75 2.75 0 1 1-5.5 0 2.75 2.75 0 1 1 5.5 0z" style="marker:none" fill="url(#q)" overflow="visible"/></g><path d="M135.266 25.624l-15.406 4.063c-5.024-2.318-11.373-3.72-18.282-3.72-8.052 0-15.346 1.892-20.656 4.938-4.366 2.505-7.432 5.816-8.375 9.563L65.11 52.843l-13.532 2.719-15.312 17.781-7.938 11c-10.216 21.673-19.402 52.198-24.062 68.812L9.203 173.5l9.063 12.531c5.292-15.04 22.272-61.757 37.219-85.968 8.719-14.124 36.36-38.04 58.935-68.617 22.576-30.577 20.764 40.39 20.846-5.82z" opacity=".5"/><path d="M112.847 0s-46.914 3.336-64.13 17.253C27.905 34.078 14.47 63.855 8.077 84.69-.8 113.63.02 175.14.02 175.14l11.934 15.335s4.637-66.755 15.22-97.044c7.16-20.494 18.821-46.622 38.908-58.99 18.886-11.63 72.34-16.955 72.34-16.955z" style="marker:none" color="#000" fill="url(#r)" overflow="visible"/><path d="M138.328 17.437S84.85 20.745 65.953 32.374c-20.086 12.36-31.747 34.483-38.906 54.969-10.588 30.3-15.25 103.094-15.25 103.094l4.656.78s4.444-70.107 14.594-99.155c4.935-14.124 16.168-30.04 24.5-38.944 8.333-8.904 15.275-15.434 21.094-11.713 3.31 2.118-1.97 11.625-1.97 11.625a42.39 42.39 0 0 0 15 7.407l.157-5.094c2.506-20.29 18.658-21.628 32.625-26l15.281-4.031z" fill="#0c1109"/></svg>