<svg xmlns="http://www.w3.org/2000/svg" xmlns:xlink="http://www.w3.org/1999/xlink" width="414.036" height="414.049"><defs><linearGradient id="a"><stop offset="0" stop-color="#5fffa8"/><stop offset=".386" stop-color="#a883aa"/><stop offset=".696" stop-color="#fff22f"/><stop offset="1" stop-color="#ff10be"/></linearGradient><linearGradient xlink:href="#a" id="b" gradientUnits="userSpaceOnUse" gradientTransform="scale(-1 1) rotate(83.024 636.624 -243.83)" x1="930.607" y1="920.359" x2="1336.42" y2="920.359"/></defs><g transform="rotate(-112.707 271.656 382.627)"><path id="c" d="M664.993 374.617l-103.208 8.075-27.434 2.161c-.19-2.449-.5-4.87-.916-7.248l27.087-4.786 101.945-17.98.599 3.656.504 3.218.474 3.687.221 1.843.221 1.844h-.03l.19 1.843.348 3.687zm-11.853 86.985l-1.339 3.47-1.152 3.033v.03l-.156.375h-.03l-1.277 3.002-.717 1.72h.03l-.436.938-.311.75h-.03l-.779 1.689-1.527 3.377-93.403-44.595-24.828-11.842a75.335 75.335 0 0 0 2.834-6.754l25.857 9.403 97.265 35.402zm-23.875-188.031l-85.328 58.613-22.698 15.593a76.073 76.073 0 0 0-4.445-5.838l21.101-17.684 79.287-66.543 2.347 2.872 2.066 2.528 2.223 2.966 1.095 1.467h.03l.533.75.563.749 1.065 1.53 2.16 2.997zm-37.602 275.8l-2.872 2.348-2.56 2.034.03.03-2.966 2.223-1.467 1.096v.03l-.749.532-.749.563-1.53 1.065-2.997 2.16-58.614-85.328-15.592-22.698a76.069 76.069 0 0 0 5.837-4.446l17.685 21.103 66.543 79.286zM547.798 203.96l-44.595 93.403-11.842 24.829a75.051 75.051 0 0 0-6.754-2.835l9.403-25.856 35.402-97.266 3.471 1.339 3.033 1.152 3.408 1.433 1.72.717 1 .436.688.311 1.689.779zm-53.262 390.697l-3.656.598-3.218.504-.187.03-.25.03-3.25.411-1.843.221v.03l-1.219.127-.625.06-1.843.159-3.687.348-8.075-103.208-2.161-27.435c2.449-.189 4.87-.5 7.248-.916l4.786 27.088 17.98 101.945zm-41.872-279.633c-2.449.189-4.87.5-7.249.916l-4.786-27.119-17.979-101.944 3.655-.568 3.406-.536 3.5-.442 1.843-.221v-.03l1.219-.126.624-.06 1.844-.159 3.687-.349 8.075 103.208 2.161 27.435zm-20.086 147.183l-9.403 25.857-35.402 97.266-3.47-1.34-3.033-1.183v.03l-3.409-1.464-1.719-.717v.03l-1.188-.529-.501-.218-1.688-.779-3.377-1.558 44.594-93.404 11.843-24.828a75.446 75.446 0 0 0 6.753 2.835zm-16.99-134.071a76.073 76.073 0 0 0-5.838 4.445l-17.684-21.101-66.544-79.318 2.872-2.316 2.529-2.035v-.03l.343-.25 2.623-1.973 1.467-1.095v-.03l.749-.533.75-.563 1.529-1.065 2.997-2.16 58.614 85.329 15.593 22.698zm-15.196 111.489l-21.102 17.684-79.318 66.543-2.316-2.872-2.066-2.528-2.222-2.966-1.127-1.498-.03.03-.877-1.249-.188-.25-1.064-1.53-2.161-3.028 85.329-58.582 22.698-15.593a76.269 76.269 0 0 0 4.445 5.838zm-10.421-81.611c-1.05 2.194-1.964 4.45-2.804 6.754l-25.856-9.404-97.266-35.402 1.339-3.47 1.153-3.033 1.433-3.408.716-1.72.436-1 .312-.688.78-1.688 1.558-3.378 93.403 44.595 24.797 11.842zm-6.22 45.946l-27.119 4.786-101.945 17.979-.567-3.656-.504-3.218-.474-3.687-.221-1.843h-.03l-.127-1.219-.06-.624-.159-1.844-.348-3.687 103.208-8.075 27.434-2.161c.19 2.449.501 4.87.916 7.249z" style="marker:none" color="#000" display="inline" overflow="visible" visibility="visible" fill="url(#b)" fill-opacity="1"/><use xlink:href="#c" width="744.094" height="1052.36"/><use transform="rotate(5 458.593 390.782)" xlink:href="#c" width="744.094" height="1052.36"/><use transform="rotate(10 458.593 390.782)" xlink:href="#c" width="744.094" height="1052.36"/><use transform="rotate(15 458.593 390.782)" xlink:href="#c" width="744.094" height="1052.36"/><use transform="rotate(20 458.593 390.782)" xlink:href="#c" width="744.094" height="1052.36"/><use transform="rotate(25 458.593 390.782)" xlink:href="#c" width="744.094" height="1052.36"/></g></svg>