<?xml version="1.0" encoding="UTF-8" standalone="no"?>
<!-- Created with Inkscape (http://www.inkscape.org/) -->

<svg
   xmlns:dc="http://purl.org/dc/elements/1.1/"
   xmlns:cc="http://creativecommons.org/ns#"
   xmlns:rdf="http://www.w3.org/1999/02/22-rdf-syntax-ns#"
   xmlns:svg="http://www.w3.org/2000/svg"
   xmlns="http://www.w3.org/2000/svg"
   xmlns:sodipodi="http://sodipodi.sourceforge.net/DTD/sodipodi-0.dtd"
   xmlns:inkscape="http://www.inkscape.org/namespaces/inkscape"
   width="333.93872"
   height="334.00339"
   id="svg2"
   version="1.1"
   inkscape:version="0.48.3.1 r9886"
   sodipodi:docname="no likes.svg">
  <defs
     id="defs4" />
  <sodipodi:namedview
     id="base"
     pagecolor="#ffffff"
     bordercolor="#666666"
     borderopacity="1.0"
     inkscape:pageopacity="0.0"
     inkscape:pageshadow="2"
     inkscape:zoom="0.7"
     inkscape:cx="316.5019"
     inkscape:cy="215.63697"
     inkscape:document-units="px"
     inkscape:current-layer="layer1"
     showgrid="false"
     inkscape:window-width="1440"
     inkscape:window-height="853"
     inkscape:window-x="-3"
     inkscape:window-y="-3"
     inkscape:window-maximized="1"
     fit-margin-top="0"
     fit-margin-left="0"
     fit-margin-right="0"
     fit-margin-bottom="0" />
  <metadata
     id="metadata7">
    <rdf:RDF>
      <cc:Work
         rdf:about="">
        <dc:format>image/svg+xml</dc:format>
        <dc:type
           rdf:resource="http://purl.org/dc/dcmitype/StillImage" />
        <dc:title></dc:title>
      </cc:Work>
    </rdf:RDF>
  </metadata>
  <g
     inkscape:label="Layer 1"
     inkscape:groupmode="layer"
     id="layer1"
     transform="translate(-32.673502,68.210947)">
    <g
       id="g3999"
       transform="matrix(1.5100004,0,0,1.5100004,-186.78944,-66.485686)">
      <path
         inkscape:connector-curvature="0"
         id="path3978"
         d="m 170.21815,78.362253 c -3.21515,0.383725 -3.68684,3.874793 -3.33508,6.476446 0.05,17.551951 -0.0998,35.116401 0.0747,52.660551 0.88724,3.99824 5.58708,2.86644 8.57465,3.00063 10.05976,-0.11328 20.16381,0.22555 30.19629,-0.16738 3.90712,-1.36829 2.31819,-6.12256 2.63792,-9.23658 0.44077,-3.14428 -2.90368,-4.89096 -5.63107,-4.28738 -6.97748,0 -13.95498,0 -20.93246,0 -0.05,-15.12747 0.1,-30.267485 -0.0747,-45.387148 -0.88723,-3.998244 -5.58708,-2.866445 -8.57464,-3.000628 -0.98361,0.0443 -1.9576,-0.05315 -2.93561,-0.05851 z"
         style="font-size:40px;font-style:normal;font-variant:normal;font-weight:normal;font-stretch:normal;text-indent:0;text-align:start;text-decoration:none;line-height:125%;letter-spacing:0px;word-spacing:0px;text-transform:none;direction:ltr;block-progression:tb;writing-mode:lr-tb;text-anchor:start;baseline-shift:baseline;color:#000000;fill:#333333;fill-opacity:1;fill-rule:nonzero;stroke:none;stroke-width:4;marker:none;visibility:visible;display:inline;overflow:visible;enable-background:accumulate;font-family:Sans;-inkscape-font-specification:Sans" />
      <path
         inkscape:connector-curvature="0"
         id="path3976"
         d="m 219.42506,78.362253 c -3.01138,0.363602 -3.81938,3.590617 -3.33508,6.13144 0.05,17.666947 -0.0998,35.346407 0.0747,53.005557 0.88724,3.99824 5.58708,2.86644 8.57464,3.00063 2.62991,0.44556 6.27994,-0.45588 6.21218,-3.74464 -0.0498,-18.44305 0.0998,-36.8986 -0.0747,-55.333848 -0.88723,-3.998244 -5.58708,-2.866445 -8.57464,-3.000628 -0.96432,0.0461 -1.9184,-0.05477 -2.8771,-0.05851 z"
         style="font-size:40px;font-style:normal;font-variant:normal;font-weight:normal;font-stretch:normal;text-indent:0;text-align:start;text-decoration:none;line-height:125%;letter-spacing:0px;word-spacing:0px;text-transform:none;direction:ltr;block-progression:tb;writing-mode:lr-tb;text-anchor:start;baseline-shift:baseline;color:#000000;fill:#333333;fill-opacity:1;fill-rule:nonzero;stroke:none;stroke-width:4;marker:none;visibility:visible;display:inline;overflow:visible;enable-background:accumulate;font-family:Sans;-inkscape-font-specification:Sans" />
      <path
         inkscape:connector-curvature="0"
         id="path3974"
         d="m 248.97261,78.362253 c -3.2186,0.385646 -3.68511,3.875037 -3.33507,6.476446 0.05,17.551951 -0.0998,35.116401 0.0747,52.660551 0.88723,3.99824 5.58707,2.86644 8.57464,3.00063 2.6428,0.44123 6.33584,-0.42298 6.27068,-3.74464 0,-5.73398 0,-11.46797 0,-17.20194 6.92674,6.79166 13.57278,13.92289 20.67348,20.50424 3.82128,0.95889 7.94163,0.21923 11.88074,0.42058 3.6255,-0.26283 4.4358,-5.37571 1.46067,-7.15795 -8.49078,-8.52864 -16.98161,-17.05726 -25.47241,-25.5859 8.2864,-7.93331 16.89346,-15.58437 24.9807,-23.693058 1.80179,-2.885314 -1.29091,-6.374806 -4.40535,-5.620448 -3.47281,0.340646 -7.26439,-0.745103 -10.51528,0.668766 -6.25473,5.760401 -12.39259,11.656812 -18.60253,17.469334 -0.19645,-5.270408 0.39405,-10.646742 -0.29578,-15.851808 -1.74582,-3.617089 -6.33323,-1.88133 -9.48546,-2.286292 -0.60725,0.06229 -1.19767,-0.135107 -1.80374,-0.05851 z"
         style="font-size:40px;font-style:normal;font-variant:normal;font-weight:normal;font-stretch:normal;text-indent:0;text-align:start;text-decoration:none;line-height:125%;letter-spacing:0px;word-spacing:0px;text-transform:none;direction:ltr;block-progression:tb;writing-mode:lr-tb;text-anchor:start;baseline-shift:baseline;color:#000000;fill:#333333;fill-opacity:1;fill-rule:nonzero;stroke:none;stroke-width:4;marker:none;visibility:visible;display:inline;overflow:visible;enable-background:accumulate;font-family:Sans;-inkscape-font-specification:Sans" />
      <path
         inkscape:connector-curvature="0"
         id="path3968"
         d="m 305.61029,78.362253 c -3.23458,0.38753 -3.67778,3.871088 -3.33507,6.476446 0.05,17.551951 -0.0998,35.116401 0.0747,52.660551 0.88723,3.99824 5.58707,2.86644 8.57464,3.00063 10.46943,-0.11253 20.98284,0.22447 31.425,-0.16738 3.90712,-1.36829 2.3182,-6.12256 2.63793,-9.23658 0.44077,-3.14428 -2.90368,-4.89096 -5.63108,-4.28738 -7.38705,0 -14.77412,0 -22.16116,0 0,-4.0957 0,-8.1914 0,-12.2871 7.77478,-0.11015 15.5929,0.22124 23.3405,-0.16737 3.90712,-1.3683 2.3182,-6.12256 2.63793,-9.23658 0.47344,-3.16382 -2.87696,-4.96166 -5.63107,-4.3459 -6.78247,0 -13.56491,0 -20.34736,0 0,-2.88649 0,-5.772982 0,-8.659477 8.14531,-0.110523 16.33408,0.221754 24.4522,-0.167366 3.90711,-1.368305 2.31819,-6.12256 2.63792,-9.236576 0.44077,-3.144289 -2.90368,-4.89097 -5.63108,-4.287389 -11.01281,-0.038 -22.03994,0.07662 -33.04401,-0.05853 z"
         style="font-size:40px;font-style:normal;font-variant:normal;font-weight:normal;font-stretch:normal;text-indent:0;text-align:start;text-decoration:none;line-height:125%;letter-spacing:0px;word-spacing:0px;text-transform:none;direction:ltr;block-progression:tb;writing-mode:lr-tb;text-anchor:start;baseline-shift:baseline;color:#000000;fill:#333333;fill-opacity:1;fill-rule:nonzero;stroke:none;stroke-width:4;marker:none;visibility:visible;display:inline;overflow:visible;enable-background:accumulate;font-family:Sans;-inkscape-font-specification:Sans" />
    </g>
    <path
       style="font-size:medium;font-style:normal;font-variant:normal;font-weight:normal;font-stretch:normal;text-indent:0;text-align:start;text-decoration:none;line-height:normal;letter-spacing:normal;word-spacing:normal;text-transform:none;direction:ltr;block-progression:tb;writing-mode:lr-tb;text-anchor:start;baseline-shift:baseline;color:#000000;fill:#d40000;fill-opacity:1;stroke:none;stroke-width:12.99065399;marker:none;visibility:visible;display:inline;overflow:visible;enable-background:accumulate;font-family:Sans;-inkscape-font-specification:Sans"
       d="m 199.64286,-68.210947 c -92.0968,0 -166.969358,74.93725 -166.969358,167.03405 0,92.096787 74.872558,166.969347 166.969358,166.969347 92.09679,0 166.96935,-74.87256 166.96935,-166.969347 0,-92.0968 -74.87256,-167.03405 -166.96935,-167.03405 z m 0,20.70135 c 80.90896,0 146.23565,65.42374 146.23565,146.3327 0,23.054917 -5.32177,44.830287 -14.78206,64.206537 L 78.507592,16.632253 c 26.299488,-38.7286 70.709438,-64.14185 121.135268,-64.14185 z M 68.124572,34.551863 320.71344,180.94925 c -26.28303,38.72642 -70.63519,64.1095 -121.07058,64.1095 -80.90896,0 -146.332698,-65.3267 -146.332698,-146.235647 0,-23.06525 5.34039,-44.8827 14.81441,-64.27124 z"
       id="path283"
       inkscape:connector-curvature="0" />
  </g>
</svg>
