<svg xmlns="http://www.w3.org/2000/svg" xmlns:xlink="http://www.w3.org/1999/xlink" width="390.016" height="417.5" enable-background="new"><defs><linearGradient id="c"><stop offset="0" stop-color="#2c0000"/><stop offset=".312" stop-color="#590000"/><stop offset=".62" stop-color="#9b0000"/><stop offset=".751" stop-color="maroon"/><stop offset="1" stop-color="#3a0000"/></linearGradient><linearGradient id="f"><stop offset="0" stop-color="#310000"/><stop offset="1" stop-color="#6a0000" stop-opacity="0"/></linearGradient><linearGradient id="h"><stop offset="0" stop-color="#f9ab60"/><stop offset="1" stop-color="#f9ab60" stop-opacity="0"/></linearGradient><linearGradient id="b"><stop offset="0" stop-color="#3e0000"/><stop offset=".155" stop-color="#470000"/><stop offset=".51" stop-color="#9b0000"/><stop offset=".833" stop-color="maroon"/><stop offset="1" stop-color="#3a0000"/></linearGradient><linearGradient id="d"><stop offset="0" stop-color="#fff"/><stop offset="1" stop-color="#fff" stop-opacity="0"/></linearGradient><linearGradient id="g"><stop offset="0"/><stop offset="1" stop-opacity="0"/></linearGradient><linearGradient id="e"><stop offset="0" stop-color="#a40000"/><stop offset="1" stop-color="#4b0000"/></linearGradient><filter id="R" x="-.025" width="1.05" y="-.113" height="1.227" color-interpolation-filters="sRGB"><feGaussianBlur stdDeviation="1.807"/></filter><filter id="T" x="-.058" width="1.115" y="-.297" height="1.593" color-interpolation-filters="sRGB"><feGaussianBlur stdDeviation="1.475"/></filter><filter id="V" x="-.085" width="1.169" y="-.255" height="1.51" color-interpolation-filters="sRGB"><feGaussianBlur stdDeviation="1.154"/></filter><filter id="Y" x="-.031" width="1.061" y="-.148" height="1.297" color-interpolation-filters="sRGB"><feGaussianBlur stdDeviation="1.972"/></filter><filter id="Z" x="-.086" width="1.171" y="-.67" height="2.34" color-interpolation-filters="sRGB"><feGaussianBlur stdDeviation="6.548"/></filter><filter id="n" x="-.159" width="1.317" y="-.096" height="1.193" color-interpolation-filters="sRGB"><feGaussianBlur stdDeviation="2.395"/></filter><filter id="p" x="-.159" width="1.318" y="-.096" height="1.193" color-interpolation-filters="sRGB"><feGaussianBlur stdDeviation="2.126"/></filter><filter id="Q" color-interpolation-filters="sRGB"><feGaussianBlur stdDeviation=".438"/></filter><filter id="ae" x="-.861" width="2.722" y="-.284" height="1.568" color-interpolation-filters="sRGB"><feGaussianBlur stdDeviation="5.723"/></filter><filter id="af" x="-.284" width="1.568" y="-.406" height="1.812" color-interpolation-filters="sRGB"><feGaussianBlur stdDeviation="1.531"/></filter><filter id="ac" x="-.209" width="1.418" y="-.197" height="1.393" color-interpolation-filters="sRGB"><feGaussianBlur stdDeviation="1.034"/></filter><filter id="ad" color-interpolation-filters="sRGB"><feGaussianBlur stdDeviation=".196"/></filter><linearGradient id="a"><stop offset="0" stop-color="#4d3d50"/><stop offset="1" stop-color="#2b0c32"/></linearGradient><filter id="q" x="-.428" width="1.857" y="-.042" height="1.083"><feGaussianBlur stdDeviation="32.312"/></filter><linearGradient id="i"><stop offset="0" stop-color="#4d3d50"/><stop offset="1" stop-color="#2b0c32"/></linearGradient><clipPath clipPathUnits="userSpaceOnUse" id="k"><rect width="1080.38" height="1157.07" x="165.838" y="2145.664" rx=".812" ry=".134" fill="url(#j)" fill-rule="evenodd" stroke="#000" stroke-width=".982" enable-background="new"/></clipPath><radialGradient xlink:href="#i" id="j" gradientUnits="userSpaceOnUse" gradientTransform="matrix(.75026 0 0 .80352 165.838 2240.188)" cx="720" cy="602.362" fx="720" fy="602.362" r="720"/><linearGradient xlink:href="#b" id="bd" gradientUnits="userSpaceOnUse" gradientTransform="matrix(1 0 0 1.3729 0 -221.473)" x1="204.444" y1="636.825" x2="403.668" y2="636.825"/><radialGradient xlink:href="#d" id="be" gradientUnits="userSpaceOnUse" gradientTransform="matrix(1 0 0 .27272 0 449.685)" cx="301.845" cy="618.309" fx="301.845" fy="618.309" r="31.222"/><radialGradient xlink:href="#d" id="bf" gradientUnits="userSpaceOnUse" gradientTransform="matrix(1 0 0 .33205 .505 451.533)" cx="365.865" cy="446.568" fx="365.865" fy="446.568" r="16.352"/><radialGradient xlink:href="#d" id="bg" gradientUnits="userSpaceOnUse" gradientTransform="matrix(1 0 0 .33205 -121.218 462.392)" cx="365.865" cy="446.568" fx="365.865" fy="446.568" r="16.352"/><radialGradient xlink:href="#e" id="bh" gradientUnits="userSpaceOnUse" gradientTransform="matrix(1 0 0 .2769 0 434.367)" cx="287.964" cy="600.708" fx="287.964" fy="600.708" r="68.848"/><linearGradient xlink:href="#f" id="N" gradientUnits="userSpaceOnUse" x1="411.73" y1="654.451" x2="352.739" y2="654.451"/><linearGradient xlink:href="#f" id="O" gradientUnits="userSpaceOnUse" x1="204.535" y1="642.643" x2="255.199" y2="642.643"/><linearGradient xlink:href="#h" id="bj" gradientUnits="userSpaceOnUse" x1="302.953" y1="430.974" x2="302.026" y2="446.442"/><radialGradient xlink:href="#g" id="bi" gradientUnits="userSpaceOnUse" gradientTransform="matrix(3.806 0 0 4.24145 -223.813 842.495)" cx="300.551" cy="606.83" fx="300.551" fy="606.83" r="2.157"/><linearGradient xlink:href="#c" id="M" gradientUnits="userSpaceOnUse" gradientTransform="matrix(2.40967 0 0 2.46654 194.566 1931.319)" x1="204.444" y1="636.825" x2="403.668" y2="636.825"/><linearGradient xlink:href="#b" id="aW" gradientUnits="userSpaceOnUse" gradientTransform="matrix(1 0 0 1.3729 0 -221.473)" x1="204.444" y1="636.825" x2="403.668" y2="636.825"/><radialGradient xlink:href="#d" id="aX" gradientUnits="userSpaceOnUse" gradientTransform="matrix(1 0 0 .27272 0 449.685)" cx="301.845" cy="618.309" fx="301.845" fy="618.309" r="31.222"/><radialGradient xlink:href="#d" id="aY" gradientUnits="userSpaceOnUse" gradientTransform="matrix(1 0 0 .33205 .505 451.533)" cx="365.865" cy="446.568" fx="365.865" fy="446.568" r="16.352"/><radialGradient xlink:href="#d" id="aZ" gradientUnits="userSpaceOnUse" gradientTransform="matrix(1 0 0 .33205 -121.218 462.392)" cx="365.865" cy="446.568" fx="365.865" fy="446.568" r="16.352"/><radialGradient xlink:href="#e" id="ba" gradientUnits="userSpaceOnUse" gradientTransform="matrix(1 0 0 .2769 0 434.367)" cx="287.964" cy="600.708" fx="287.964" fy="600.708" r="68.848"/><linearGradient xlink:href="#f" id="K" gradientUnits="userSpaceOnUse" x1="411.73" y1="654.451" x2="352.739" y2="654.451"/><linearGradient xlink:href="#f" id="L" gradientUnits="userSpaceOnUse" x1="204.535" y1="642.643" x2="255.199" y2="642.643"/><linearGradient xlink:href="#h" id="bc" gradientUnits="userSpaceOnUse" x1="302.953" y1="430.974" x2="302.026" y2="446.442"/><radialGradient xlink:href="#g" id="bb" gradientUnits="userSpaceOnUse" gradientTransform="matrix(-3.53414 0 0 3.9385 1896.766 797.922)" cx="300.551" cy="606.83" fx="300.551" fy="606.83" r="2.157"/><linearGradient xlink:href="#c" id="J" gradientUnits="userSpaceOnUse" gradientTransform="matrix(-2.23755 0 0 2.29036 1508.272 1808.974)" x1="204.444" y1="636.825" x2="403.668" y2="636.825"/><linearGradient xlink:href="#b" id="aP" gradientUnits="userSpaceOnUse" gradientTransform="matrix(1 0 0 1.3729 0 -221.473)" x1="204.444" y1="636.825" x2="403.668" y2="636.825"/><radialGradient xlink:href="#d" id="aQ" gradientUnits="userSpaceOnUse" gradientTransform="matrix(1 0 0 .27272 0 449.685)" cx="301.845" cy="618.309" fx="301.845" fy="618.309" r="31.222"/><radialGradient xlink:href="#d" id="aR" gradientUnits="userSpaceOnUse" gradientTransform="matrix(1 0 0 .33205 .505 451.533)" cx="365.865" cy="446.568" fx="365.865" fy="446.568" r="16.352"/><radialGradient xlink:href="#d" id="aS" gradientUnits="userSpaceOnUse" gradientTransform="matrix(1 0 0 .33205 -121.218 462.392)" cx="365.865" cy="446.568" fx="365.865" fy="446.568" r="16.352"/><radialGradient xlink:href="#e" id="aT" gradientUnits="userSpaceOnUse" gradientTransform="matrix(1 0 0 .2769 0 434.367)" cx="287.964" cy="600.708" fx="287.964" fy="600.708" r="68.848"/><linearGradient xlink:href="#f" id="H" gradientUnits="userSpaceOnUse" x1="411.73" y1="654.451" x2="352.739" y2="654.451"/><linearGradient xlink:href="#f" id="I" gradientUnits="userSpaceOnUse" x1="204.535" y1="642.643" x2="255.199" y2="642.643"/><linearGradient xlink:href="#h" id="aV" gradientUnits="userSpaceOnUse" x1="302.953" y1="430.974" x2="302.026" y2="446.442"/><radialGradient xlink:href="#g" id="aU" gradientUnits="userSpaceOnUse" gradientTransform="matrix(3.26229 0 0 3.63553 -241.576 753.35)" cx="300.551" cy="606.83" fx="300.551" fy="606.83" r="2.157"/><linearGradient xlink:href="#c" id="G" gradientUnits="userSpaceOnUse" gradientTransform="matrix(2.06543 0 0 2.11418 117.034 1686.628)" x1="204.444" y1="636.825" x2="403.668" y2="636.825"/><linearGradient xlink:href="#b" id="aI" gradientUnits="userSpaceOnUse" gradientTransform="matrix(1 0 0 1.3729 0 -221.473)" x1="204.444" y1="636.825" x2="403.668" y2="636.825"/><radialGradient xlink:href="#d" id="aJ" gradientUnits="userSpaceOnUse" gradientTransform="matrix(1 0 0 .27272 0 449.685)" cx="301.845" cy="618.309" fx="301.845" fy="618.309" r="31.222"/><radialGradient xlink:href="#d" id="aK" gradientUnits="userSpaceOnUse" gradientTransform="matrix(1 0 0 .33205 .505 451.533)" cx="365.865" cy="446.568" fx="365.865" fy="446.568" r="16.352"/><radialGradient xlink:href="#d" id="aL" gradientUnits="userSpaceOnUse" gradientTransform="matrix(1 0 0 .33205 -121.218 462.392)" cx="365.865" cy="446.568" fx="365.865" fy="446.568" r="16.352"/><radialGradient xlink:href="#e" id="aM" gradientUnits="userSpaceOnUse" gradientTransform="matrix(1 0 0 .2769 0 434.367)" cx="287.964" cy="600.708" fx="287.964" fy="600.708" r="68.848"/><linearGradient xlink:href="#f" id="E" gradientUnits="userSpaceOnUse" x1="411.73" y1="654.451" x2="352.739" y2="654.451"/><linearGradient xlink:href="#f" id="F" gradientUnits="userSpaceOnUse" x1="204.535" y1="642.643" x2="255.199" y2="642.643"/><linearGradient xlink:href="#h" id="aO" gradientUnits="userSpaceOnUse" x1="302.953" y1="430.974" x2="302.026" y2="446.442"/><radialGradient xlink:href="#g" id="aN" gradientUnits="userSpaceOnUse" gradientTransform="matrix(-2.99043 0 0 3.33257 1551.394 708.778)" cx="300.551" cy="606.83" fx="300.551" fy="606.83" r="2.157"/><linearGradient xlink:href="#c" id="D" gradientUnits="userSpaceOnUse" gradientTransform="matrix(-1.89331 0 0 1.938 1222.668 1564.283)" x1="204.444" y1="636.825" x2="403.668" y2="636.825"/><linearGradient xlink:href="#b" id="aB" gradientUnits="userSpaceOnUse" gradientTransform="matrix(1 0 0 1.3729 0 -221.473)" x1="204.444" y1="636.825" x2="403.668" y2="636.825"/><radialGradient xlink:href="#d" id="aC" gradientUnits="userSpaceOnUse" gradientTransform="matrix(1 0 0 .27272 0 449.685)" cx="301.845" cy="618.309" fx="301.845" fy="618.309" r="31.222"/><radialGradient xlink:href="#d" id="aD" gradientUnits="userSpaceOnUse" gradientTransform="matrix(1 0 0 .33205 .505 451.533)" cx="365.865" cy="446.568" fx="365.865" fy="446.568" r="16.352"/><radialGradient xlink:href="#d" id="aE" gradientUnits="userSpaceOnUse" gradientTransform="matrix(1 0 0 .33205 -121.218 462.392)" cx="365.865" cy="446.568" fx="365.865" fy="446.568" r="16.352"/><radialGradient xlink:href="#e" id="aF" gradientUnits="userSpaceOnUse" gradientTransform="matrix(1 0 0 .2769 0 434.367)" cx="287.964" cy="600.708" fx="287.964" fy="600.708" r="68.848"/><linearGradient xlink:href="#f" id="B" gradientUnits="userSpaceOnUse" x1="411.73" y1="654.451" x2="352.739" y2="654.451"/><linearGradient xlink:href="#f" id="C" gradientUnits="userSpaceOnUse" x1="204.535" y1="642.643" x2="255.199" y2="642.643"/><linearGradient xlink:href="#h" id="aH" gradientUnits="userSpaceOnUse" x1="302.953" y1="430.974" x2="302.026" y2="446.442"/><radialGradient xlink:href="#g" id="aG" gradientUnits="userSpaceOnUse" gradientTransform="matrix(2.71857 0 0 3.02961 -259.339 664.205)" cx="300.551" cy="606.83" fx="300.551" fy="606.83" r="2.157"/><linearGradient xlink:href="#c" id="A" gradientUnits="userSpaceOnUse" gradientTransform="matrix(1.7212 0 0 1.76182 39.503 1441.937)" x1="204.444" y1="636.825" x2="403.668" y2="636.825"/><linearGradient xlink:href="#b" id="au" gradientUnits="userSpaceOnUse" gradientTransform="matrix(1 0 0 1.3729 0 -221.473)" x1="204.444" y1="636.825" x2="403.668" y2="636.825"/><radialGradient xlink:href="#d" id="av" gradientUnits="userSpaceOnUse" gradientTransform="matrix(1 0 0 .27272 0 449.685)" cx="301.845" cy="618.309" fx="301.845" fy="618.309" r="31.222"/><radialGradient xlink:href="#d" id="aw" gradientUnits="userSpaceOnUse" gradientTransform="matrix(1 0 0 .33205 .505 451.533)" cx="365.865" cy="446.568" fx="365.865" fy="446.568" r="16.352"/><radialGradient xlink:href="#d" id="ax" gradientUnits="userSpaceOnUse" gradientTransform="matrix(1 0 0 .33205 -121.218 462.392)" cx="365.865" cy="446.568" fx="365.865" fy="446.568" r="16.352"/><radialGradient xlink:href="#e" id="ay" gradientUnits="userSpaceOnUse" gradientTransform="matrix(1 0 0 .2769 0 434.367)" cx="287.964" cy="600.708" fx="287.964" fy="600.708" r="68.848"/><linearGradient xlink:href="#f" id="y" gradientUnits="userSpaceOnUse" x1="411.73" y1="654.451" x2="352.739" y2="654.451"/><linearGradient xlink:href="#f" id="z" gradientUnits="userSpaceOnUse" x1="204.535" y1="642.643" x2="255.199" y2="642.643"/><linearGradient xlink:href="#h" id="aA" gradientUnits="userSpaceOnUse" x1="302.953" y1="430.974" x2="302.026" y2="446.442"/><radialGradient xlink:href="#g" id="az" gradientUnits="userSpaceOnUse" gradientTransform="matrix(-2.44672 0 0 2.72665 1206.022 619.633)" cx="300.551" cy="606.83" fx="300.551" fy="606.83" r="2.157"/><linearGradient xlink:href="#c" id="x" gradientUnits="userSpaceOnUse" gradientTransform="matrix(-1.54907 0 0 1.58563 937.064 1319.591)" x1="204.444" y1="636.825" x2="403.668" y2="636.825"/><linearGradient xlink:href="#b" id="an" gradientUnits="userSpaceOnUse" gradientTransform="matrix(1 0 0 1.3729 0 -221.473)" x1="204.444" y1="636.825" x2="403.668" y2="636.825"/><radialGradient xlink:href="#d" id="ao" gradientUnits="userSpaceOnUse" gradientTransform="matrix(1 0 0 .27272 0 449.685)" cx="301.845" cy="618.309" fx="301.845" fy="618.309" r="31.222"/><radialGradient xlink:href="#d" id="ap" gradientUnits="userSpaceOnUse" gradientTransform="matrix(1 0 0 .33205 .505 451.533)" cx="365.865" cy="446.568" fx="365.865" fy="446.568" r="16.352"/><radialGradient xlink:href="#d" id="aq" gradientUnits="userSpaceOnUse" gradientTransform="matrix(1 0 0 .33205 -121.218 462.392)" cx="365.865" cy="446.568" fx="365.865" fy="446.568" r="16.352"/><radialGradient xlink:href="#e" id="ar" gradientUnits="userSpaceOnUse" gradientTransform="matrix(1 0 0 .2769 0 434.367)" cx="287.964" cy="600.708" fx="287.964" fy="600.708" r="68.848"/><linearGradient xlink:href="#f" id="v" gradientUnits="userSpaceOnUse" x1="411.73" y1="654.451" x2="352.739" y2="654.451"/><linearGradient xlink:href="#f" id="w" gradientUnits="userSpaceOnUse" x1="204.535" y1="642.643" x2="255.199" y2="642.643"/><linearGradient xlink:href="#h" id="at" gradientUnits="userSpaceOnUse" x1="302.953" y1="430.974" x2="302.026" y2="446.442"/><radialGradient xlink:href="#g" id="as" gradientUnits="userSpaceOnUse" gradientTransform="matrix(3.53414 0 0 3.9385 -329.08 880.448)" cx="300.551" cy="606.83" fx="300.551" fy="606.83" r="2.157"/><linearGradient xlink:href="#c" id="u" gradientUnits="userSpaceOnUse" gradientTransform="matrix(2.23755 0 0 2.29036 59.414 1891.499)" x1="204.444" y1="636.825" x2="403.668" y2="636.825"/><linearGradient xlink:href="#b" id="ag" gradientUnits="userSpaceOnUse" gradientTransform="matrix(1 0 0 1.3729 0 -221.473)" x1="204.444" y1="636.825" x2="403.668" y2="636.825"/><radialGradient xlink:href="#d" id="ah" gradientUnits="userSpaceOnUse" gradientTransform="matrix(1 0 0 .27272 0 449.685)" cx="301.845" cy="618.309" fx="301.845" fy="618.309" r="31.222"/><radialGradient xlink:href="#d" id="ai" gradientUnits="userSpaceOnUse" gradientTransform="matrix(1 0 0 .33205 .505 451.533)" cx="365.865" cy="446.568" fx="365.865" fy="446.568" r="16.352"/><radialGradient xlink:href="#d" id="aj" gradientUnits="userSpaceOnUse" gradientTransform="matrix(1 0 0 .33205 -121.218 462.392)" cx="365.865" cy="446.568" fx="365.865" fy="446.568" r="16.352"/><radialGradient xlink:href="#e" id="ak" gradientUnits="userSpaceOnUse" gradientTransform="matrix(1 0 0 .2769 0 434.367)" cx="287.964" cy="600.708" fx="287.964" fy="600.708" r="68.848"/><linearGradient xlink:href="#f" id="s" gradientUnits="userSpaceOnUse" x1="411.73" y1="654.451" x2="352.739" y2="654.451"/><linearGradient xlink:href="#f" id="t" gradientUnits="userSpaceOnUse" x1="204.535" y1="642.643" x2="255.199" y2="642.643"/><linearGradient xlink:href="#h" id="am" gradientUnits="userSpaceOnUse" x1="302.953" y1="430.974" x2="302.026" y2="446.442"/><radialGradient xlink:href="#g" id="al" gradientUnits="userSpaceOnUse" gradientTransform="matrix(3.26229 0 0 3.63553 -337.962 835.876)" cx="300.551" cy="606.83" fx="300.551" fy="606.83" r="2.157"/><linearGradient xlink:href="#c" id="r" gradientUnits="userSpaceOnUse" gradientTransform="matrix(2.06543 0 0 2.11418 20.648 1769.153)" x1="204.444" y1="636.825" x2="403.668" y2="636.825"/><linearGradient xlink:href="#b" id="P" gradientUnits="userSpaceOnUse" gradientTransform="matrix(1 0 0 1.3729 0 -221.473)" x1="204.444" y1="636.825" x2="403.668" y2="636.825"/><radialGradient xlink:href="#d" id="S" gradientUnits="userSpaceOnUse" gradientTransform="matrix(1 0 0 .27272 0 449.685)" cx="301.845" cy="618.309" fx="301.845" fy="618.309" r="31.222"/><radialGradient xlink:href="#d" id="U" gradientUnits="userSpaceOnUse" gradientTransform="matrix(1 0 0 .33205 .505 451.533)" cx="365.865" cy="446.568" fx="365.865" fy="446.568" r="16.352"/><radialGradient xlink:href="#d" id="W" gradientUnits="userSpaceOnUse" gradientTransform="matrix(1 0 0 .33205 -121.218 462.392)" cx="365.865" cy="446.568" fx="365.865" fy="446.568" r="16.352"/><radialGradient xlink:href="#e" id="X" gradientUnits="userSpaceOnUse" gradientTransform="matrix(1 0 0 .2769 0 434.367)" cx="287.964" cy="600.708" fx="287.964" fy="600.708" r="68.848"/><linearGradient xlink:href="#f" id="m" gradientUnits="userSpaceOnUse" x1="411.73" y1="654.451" x2="352.739" y2="654.451"/><linearGradient xlink:href="#f" id="o" gradientUnits="userSpaceOnUse" x1="204.535" y1="642.643" x2="255.199" y2="642.643"/><linearGradient xlink:href="#h" id="ab" gradientUnits="userSpaceOnUse" x1="302.953" y1="430.974" x2="302.026" y2="446.442"/><radialGradient xlink:href="#g" id="aa" gradientUnits="userSpaceOnUse" gradientTransform="matrix(2.99043 0 0 3.33257 -346.844 791.303)" cx="300.551" cy="606.83" fx="300.551" fy="606.83" r="2.157"/><linearGradient xlink:href="#c" id="l" gradientUnits="userSpaceOnUse" gradientTransform="matrix(1.89331 0 0 1.938 -18.118 1646.808)" x1="204.444" y1="636.825" x2="403.668" y2="636.825"/></defs><g transform="matrix(.3605 0 0 .3605 -59.518 -773.334)" clip-path="url(#k)"><path d="M371.892 2790.026c-1.347 13.33-4.136 26.666-2.358 49.263 3.557 45.194 10.65 3144.11 10.65 3109.824v.97h.888l351.445 12.233 1.006.06v-1.03c.08-31.827 7.321-3055.014 11.005-3095.41 1.842-20.198 2.127-36.232.803-49.22-6.891-14.393-5.923-22.757-20.615-22.26-9.668.326-20.093-4.286-28.603-1.307-24.87 8.706-25.139 4.265-53.148 4.533-25.348.243-57.28 11.723-98.815 3.686-18.084-3.5-39.588-1.641-59.69-7.155-9.312-2.554-17.778.86-28.929-3.497s-18.68-7.27-25.589-10.112c-7.63-3.14-12.882 1.932-22.147.04-9.264-1.89-2.912-3.296-13.702-6.164-10.789-2.867-21.527 8.88-22.2 15.545z" style="text-indent:0;text-align:start;line-height:normal;text-transform:none;block-progression:tb;marker:none;-inkscape-font-specification:Sans" font-weight="400" color="#000" fill="url(#l)" overflow="visible" enable-background="accumulate" font-family="Sans"/><path transform="matrix(2.4972 0 0 2.81124 -260.182 1044.799)" d="M397.237 634.545c-14.076 2.597-26.2 23.176-26.2 23.176v1094.48l19.646-1.037c.286-8.172 4.556-1096.233 6.554-1116.619z" style="text-indent:0;text-align:start;line-height:normal;text-transform:none;block-progression:tb;marker:none;-inkscape-font-specification:Sans" font-weight="400" color="#000" fill="url(#m)" overflow="visible" filter="url(#n)" enable-background="accumulate" font-family="Sans"/><path transform="matrix(2.41739 0 0 2.76848 -128.895 1120.553)" d="M211.05 616.175c1.843 18.748 3.968 1112.658 3.968 1125.905v.5h.469l16.737.937V637.35s-10.506-17.022-21.175-21.174z" style="text-indent:0;text-align:start;line-height:normal;text-transform:none;block-progression:tb;marker:none;-inkscape-font-specification:Sans" font-weight="400" color="#000" fill="url(#o)" overflow="visible" filter="url(#p)" enable-background="accumulate" font-family="Sans"/><path style="text-indent:0;text-align:start;line-height:normal;text-transform:none;block-progression:tb;marker:none;-inkscape-font-specification:Sans" d="M1231.346 1360.464c-.647 7.779-1.985 15.562-1.132 28.749 1.707 26.374 5.112 1834.844 5.112 1814.835v.566h.426l168.677 7.139.482.035v-.6c.038-18.575 3.514-1782.85 5.282-1806.425.884-11.787 1.021-21.144.386-28.723-3.308-8.4-2.843-13.281-9.895-12.992-4.64.191-9.643-2.5-13.727-.762-11.937 5.08-12.066 2.49-25.509 2.646-12.166.142-27.491 6.84-47.427 2.15-8.679-2.041-19-.957-28.648-4.175-4.47-1.49-8.532.502-13.884-2.04-5.353-2.543-8.966-4.243-12.282-5.902-3.662-1.832-6.183 1.127-10.63.024-4.446-1.104-1.397-1.924-6.576-3.597-5.178-1.674-10.332 5.182-10.655 9.071z" transform="matrix(2.27295 0 0 1.86934 -2395.105 533.747)" font-weight="400" color="#000" overflow="visible" filter="url(#q)" enable-background="accumulate" font-family="Sans"/><path d="M446.114 3016.3c-1.47 14.542-4.513 29.091-2.573 53.742 3.88 49.302 11.618 3429.938 11.618 3392.536v1.057h.968l383.396 13.346 1.097.065v-1.124c.086-34.72 7.987-3332.743 12.005-3376.81 2.01-22.035 2.321-39.526.876-53.695-7.518-15.702-6.461-24.827-22.489-24.285-10.547.356-21.92-4.675-31.203-1.425-27.131 9.497-27.424 4.653-57.98 4.945-27.652.265-62.486 12.789-107.798 4.021-19.728-3.817-43.187-1.79-65.117-7.805-10.158-2.787-19.393.938-31.558-3.815s-20.38-7.931-27.915-11.032c-8.324-3.425-14.054 2.108-24.16.045-10.107-2.063-3.178-3.596-14.948-6.725-11.77-3.128-23.485 9.688-24.22 16.959z" style="text-indent:0;text-align:start;line-height:normal;text-transform:none;block-progression:tb;marker:none;-inkscape-font-specification:Sans" font-weight="400" color="#000" fill="url(#r)" overflow="visible" enable-background="accumulate" font-family="Sans"/><path transform="matrix(2.72422 0 0 3.0668 -243.422 1112.416)" d="M397.237 634.545c-14.076 2.597-26.2 23.176-26.2 23.176v1094.48l19.646-1.037c.286-8.172 4.556-1096.233 6.554-1116.619z" style="text-indent:0;text-align:start;line-height:normal;text-transform:none;block-progression:tb;marker:none;-inkscape-font-specification:Sans" font-weight="400" color="#000" fill="url(#s)" overflow="visible" filter="url(#n)" enable-background="accumulate" font-family="Sans"/><path transform="matrix(2.63715 0 0 3.02016 -100.2 1195.058)" d="M211.05 616.175c1.843 18.748 3.968 1112.658 3.968 1125.905v.5h.469l16.737.937V637.35s-10.506-17.022-21.175-21.174z" style="text-indent:0;text-align:start;line-height:normal;text-transform:none;block-progression:tb;marker:none;-inkscape-font-specification:Sans" font-weight="400" color="#000" fill="url(#t)" overflow="visible" filter="url(#p)" enable-background="accumulate" font-family="Sans"/><path style="text-indent:0;text-align:start;line-height:normal;text-transform:none;block-progression:tb;marker:none;-inkscape-font-specification:Sans" d="M1231.346 1360.464c-.647 7.779-1.985 15.562-1.132 28.749 1.707 26.374 5.112 1834.844 5.112 1814.835v.566h.426l168.677 7.139.482.035v-.6c.038-18.575 3.514-1782.85 5.282-1806.425.884-11.787 1.021-21.144.386-28.723-3.308-8.4-2.843-13.281-9.895-12.992-4.64.191-9.643-2.5-13.727-.762-11.937 5.08-12.066 2.49-25.509 2.646-12.166.142-27.491 6.84-47.427 2.15-8.679-2.041-19-.957-28.648-4.175-4.47-1.49-8.532.502-13.884-2.04-5.353-2.543-8.966-4.243-12.282-5.902-3.662-1.832-6.183 1.127-10.63.024-4.446-1.104-1.397-1.924-6.576-3.597-5.178-1.674-10.332 5.182-10.655 9.071z" transform="matrix(2.46237 0 0 2.02511 -2557.652 553.142)" font-weight="400" color="#000" overflow="visible" filter="url(#q)" enable-background="accumulate" font-family="Sans"/><path d="M520.335 3242.575c-1.593 15.753-4.89 31.515-2.787 58.22 4.203 53.41 12.586 3715.767 12.586 3675.247v1.145h1.049l415.345 14.458 1.188.071v-1.217c.094-37.614 8.653-3610.471 13.006-3658.212 2.177-23.87 2.514-42.82.95-58.169-8.145-17.01-7-26.895-24.364-26.308-11.426.386-23.747-5.064-33.803-1.544-29.393 10.289-29.71 5.04-62.811 5.357-29.958.288-67.694 13.854-116.782 4.356-21.372-4.135-46.786-1.94-70.543-8.456-11.005-3.018-21.01 1.017-34.189-4.132-13.179-5.15-22.077-8.592-30.24-11.951-9.018-3.71-15.226 2.283-26.175.049-10.948-2.235-3.442-3.896-16.193-7.285-12.75-3.39-25.441 10.494-26.237 18.371z" style="text-indent:0;text-align:start;line-height:normal;text-transform:none;block-progression:tb;marker:none;-inkscape-font-specification:Sans" font-weight="400" color="#000" fill="url(#u)" overflow="visible" enable-background="accumulate" font-family="Sans"/><path transform="matrix(2.95124 0 0 3.32237 -226.662 1180.034)" d="M397.237 634.545c-14.076 2.597-26.2 23.176-26.2 23.176v1094.48l19.646-1.037c.286-8.172 4.556-1096.233 6.554-1116.619z" style="text-indent:0;text-align:start;line-height:normal;text-transform:none;block-progression:tb;marker:none;-inkscape-font-specification:Sans" font-weight="400" color="#000" fill="url(#v)" overflow="visible" filter="url(#n)" enable-background="accumulate" font-family="Sans"/><path transform="matrix(2.8569 0 0 3.27184 -71.505 1269.562)" d="M211.05 616.175c1.843 18.748 3.968 1112.658 3.968 1125.905v.5h.469l16.737.937V637.35s-10.506-17.022-21.175-21.174z" style="text-indent:0;text-align:start;line-height:normal;text-transform:none;block-progression:tb;marker:none;-inkscape-font-specification:Sans" font-weight="400" color="#000" fill="url(#w)" overflow="visible" filter="url(#p)" enable-background="accumulate" font-family="Sans"/><path d="M617.965 2254.952c1.102 10.906 3.384 21.818 1.93 40.306-2.911 36.976-8.714 2572.454-8.714 2544.402v.792h-.726l-287.547 10.01-.823.049v-.843c-.065-26.04-5.99-2499.557-9.004-2532.608-1.507-16.526-1.74-29.644-.657-40.27 5.639-11.777 4.846-18.62 16.867-18.215 7.91.268 16.44-3.505 23.402-1.068 20.349 7.123 20.569 3.49 43.485 3.709 20.74.199 46.865 9.591 80.849 3.015 14.796-2.863 32.39-1.343 48.837-5.854 7.62-2.09 14.545.704 23.67-2.86 9.123-3.565 15.283-5.95 20.935-8.275 6.243-2.568 10.54 1.581 18.12.034 7.58-1.547 2.384-2.697 11.211-5.043 8.828-2.346 17.614 7.265 18.165 12.719z" style="text-indent:0;text-align:start;line-height:normal;text-transform:none;block-progression:tb;marker:none;-inkscape-font-specification:Sans" font-weight="400" color="#000" fill="url(#x)" overflow="visible" enable-background="accumulate" font-family="Sans"/><path transform="matrix(-2.04316 0 0 2.3001 1135.116 827.039)" d="M397.237 634.545c-14.076 2.597-26.2 23.176-26.2 23.176v1094.48l19.646-1.037c.286-8.172 4.556-1096.233 6.554-1116.619z" style="text-indent:0;text-align:start;line-height:normal;text-transform:none;block-progression:tb;marker:none;-inkscape-font-specification:Sans" font-weight="400" color="#000" fill="url(#y)" overflow="visible" filter="url(#n)" enable-background="accumulate" font-family="Sans"/><path transform="matrix(-1.97786 0 0 2.26512 1027.7 889.02)" d="M211.05 616.175c1.843 18.748 3.968 1112.658 3.968 1125.905v.5h.469l16.737.937V637.35s-10.506-17.022-21.175-21.174z" style="text-indent:0;text-align:start;line-height:normal;text-transform:none;block-progression:tb;marker:none;-inkscape-font-specification:Sans" font-weight="400" color="#000" fill="url(#z)" overflow="visible" filter="url(#p)" enable-background="accumulate" font-family="Sans"/><path d="M394.058 2481.226c-1.225 12.118-3.761 24.242-2.144 44.785 3.233 41.085 9.681 2858.282 9.681 2827.113v.88h.807l319.497 11.122.914.055v-.936c.072-28.934 6.656-2777.286 10.004-2814.01 1.675-18.36 1.934-32.937.73-44.744-6.265-13.085-5.384-20.69-18.74-20.238-8.79.297-18.267-3.895-26.003-1.188-22.61 7.915-22.854 3.878-48.316 4.122-23.045.22-52.073 10.657-89.833 3.35-16.44-3.18-35.988-1.492-54.263-6.504-8.466-2.322-16.162.782-26.3-3.179-10.137-3.96-16.982-6.61-23.262-9.193-6.936-2.854-11.711 1.756-20.133.037-8.422-1.72-2.648-2.997-12.457-5.604-9.808-2.607-19.57 8.073-20.182 14.132z" style="text-indent:0;text-align:start;line-height:normal;text-transform:none;block-progression:tb;marker:none;-inkscape-font-specification:Sans" font-weight="400" color="#000" fill="url(#A)" overflow="visible" enable-background="accumulate" font-family="Sans"/><path transform="matrix(2.27018 0 0 2.55567 -180.555 894.656)" d="M397.237 634.545c-14.076 2.597-26.2 23.176-26.2 23.176v1094.48l19.646-1.037c.286-8.172 4.556-1096.233 6.554-1116.619z" style="text-indent:0;text-align:start;line-height:normal;text-transform:none;block-progression:tb;marker:none;-inkscape-font-specification:Sans" font-weight="400" color="#000" fill="url(#B)" overflow="visible" filter="url(#n)" enable-background="accumulate" font-family="Sans"/><path transform="matrix(2.19762 0 0 2.5168 -61.204 963.524)" d="M211.05 616.175c1.843 18.748 3.968 1112.658 3.968 1125.905v.5h.469l16.737.937V637.35s-10.506-17.022-21.175-21.174z" style="text-indent:0;text-align:start;line-height:normal;text-transform:none;block-progression:tb;marker:none;-inkscape-font-specification:Sans" font-weight="400" color="#000" fill="url(#C)" overflow="visible" filter="url(#p)" enable-background="accumulate" font-family="Sans"/><path d="M832.658 2707.5c1.347 13.33 4.136 26.667 2.358 49.264-3.557 45.193-10.65 3144.11-10.65 3109.824v.969h-.887l-351.446 12.234-1.006.06v-1.03c-.08-31.827-7.321-3055.015-11.005-3095.41-1.842-20.198-2.127-36.232-.803-49.22 6.891-14.394 5.923-22.758 20.615-22.261 9.668.326 20.094-4.285 28.603-1.307 24.87 8.706 25.139 4.266 53.148 4.534 25.348.243 57.28 11.722 98.815 3.686 18.084-3.5 39.588-1.642 59.69-7.155 9.312-2.555 17.778.86 28.929-3.497 11.152-4.357 18.68-7.27 25.589-10.113 7.63-3.14 12.882 1.932 22.147.041 9.264-1.89 2.912-3.296 13.702-6.164 10.789-2.868 21.527 8.88 22.2 15.545z" style="text-indent:0;text-align:start;line-height:normal;text-transform:none;block-progression:tb;marker:none;-inkscape-font-specification:Sans" font-weight="400" color="#000" fill="url(#D)" overflow="visible" enable-background="accumulate" font-family="Sans"/><path transform="matrix(-2.4972 0 0 2.81124 1464.732 962.273)" d="M397.237 634.545c-14.076 2.597-26.2 23.176-26.2 23.176v1094.48l19.646-1.037c.286-8.172 4.556-1096.233 6.554-1116.619z" style="text-indent:0;text-align:start;line-height:normal;text-transform:none;block-progression:tb;marker:none;-inkscape-font-specification:Sans" font-weight="400" color="#000" fill="url(#E)" overflow="visible" filter="url(#n)" enable-background="accumulate" font-family="Sans"/><path transform="matrix(-2.41739 0 0 2.76848 1333.445 1038.028)" d="M211.05 616.175c1.843 18.748 3.968 1112.658 3.968 1125.905v.5h.469l16.737.937V637.35s-10.506-17.022-21.175-21.174z" style="text-indent:0;text-align:start;line-height:normal;text-transform:none;block-progression:tb;marker:none;-inkscape-font-specification:Sans" font-weight="400" color="#000" fill="url(#F)" overflow="visible" filter="url(#p)" enable-background="accumulate" font-family="Sans"/><path d="M542.5 2933.775c-1.47 14.542-4.513 29.09-2.573 53.742 3.88 49.302 11.618 3429.938 11.618 3392.535v1.058h.969l383.395 13.345 1.097.065v-1.123c.087-34.72 7.987-3332.743 12.006-3376.811 2.009-22.034 2.32-39.526.876-53.695-7.518-15.702-6.462-24.826-22.49-24.285-10.547.357-21.92-4.674-31.202-1.425-27.132 9.498-27.425 4.653-57.98 4.946-27.653.265-62.487 12.788-107.799 4.02-19.728-3.817-43.186-1.79-65.116-7.805-10.159-2.786-19.394.938-31.559-3.815-12.165-4.753-20.379-7.93-27.915-11.031-8.323-3.425-14.053 2.107-24.16.045-10.107-2.063-3.177-3.597-14.948-6.725-11.77-3.129-23.484 9.687-24.219 16.958z" style="text-indent:0;text-align:start;line-height:normal;text-transform:none;block-progression:tb;marker:none;-inkscape-font-specification:Sans" font-weight="400" color="#000" fill="url(#G)" overflow="visible" enable-background="accumulate" font-family="Sans"/><path transform="matrix(2.72422 0 0 3.0668 -147.035 1029.89)" d="M397.237 634.545c-14.076 2.597-26.2 23.176-26.2 23.176v1094.48l19.646-1.037c.286-8.172 4.556-1096.233 6.554-1116.619z" style="text-indent:0;text-align:start;line-height:normal;text-transform:none;block-progression:tb;marker:none;-inkscape-font-specification:Sans" font-weight="400" color="#000" fill="url(#H)" overflow="visible" filter="url(#n)" enable-background="accumulate" font-family="Sans"/><path transform="matrix(2.63715 0 0 3.02016 -3.814 1112.532)" d="M211.05 616.175c1.843 18.748 3.968 1112.658 3.968 1125.905v.5h.469l16.737.937V637.35s-10.506-17.022-21.175-21.174z" style="text-indent:0;text-align:start;line-height:normal;text-transform:none;block-progression:tb;marker:none;-inkscape-font-specification:Sans" font-weight="400" color="#000" fill="url(#I)" overflow="visible" filter="url(#p)" enable-background="accumulate" font-family="Sans"/><path d="M1047.35 3160.05c1.593 15.753 4.89 31.514 2.788 58.22-4.204 53.41-12.586 3715.766-12.586 3675.246v1.146h-1.05l-415.344 14.458-1.189.07v-1.216c-.093-37.614-8.652-3610.472-13.006-3658.212-2.176-23.87-2.514-42.82-.949-58.17 8.145-17.01 7-26.894 24.364-26.308 11.426.386 23.746-5.064 33.803-1.544 29.392 10.289 29.71 5.04 62.81 5.358 29.958.287 67.695 13.854 116.783 4.356 21.372-4.136 46.785-1.94 70.543-8.456 11.005-3.019 21.01 1.016 34.188-4.133 13.18-5.149 22.077-8.592 30.241-11.951 9.018-3.71 15.225 2.283 26.174.049 10.949-2.235 3.442-3.896 16.193-7.285 12.751-3.39 25.442 10.495 26.238 18.372z" style="text-indent:0;text-align:start;line-height:normal;text-transform:none;block-progression:tb;marker:none;-inkscape-font-specification:Sans" font-weight="400" color="#000" fill="url(#J)" overflow="visible" enable-background="accumulate" font-family="Sans"/><path transform="matrix(-2.95124 0 0 3.32237 1794.347 1097.508)" d="M397.237 634.545c-14.076 2.597-26.2 23.176-26.2 23.176v1094.48l19.646-1.037c.286-8.172 4.556-1096.233 6.554-1116.619z" style="text-indent:0;text-align:start;line-height:normal;text-transform:none;block-progression:tb;marker:none;-inkscape-font-specification:Sans" font-weight="400" color="#000" fill="url(#K)" overflow="visible" filter="url(#n)" enable-background="accumulate" font-family="Sans"/><path transform="matrix(-2.8569 0 0 3.27184 1639.19 1187.036)" d="M211.05 616.175c1.843 18.748 3.968 1112.658 3.968 1125.905v.5h.469l16.737.937V637.35s-10.506-17.022-21.175-21.174z" style="text-indent:0;text-align:start;line-height:normal;text-transform:none;block-progression:tb;marker:none;-inkscape-font-specification:Sans" font-weight="400" color="#000" fill="url(#L)" overflow="visible" filter="url(#p)" enable-background="accumulate" font-family="Sans"/><path style="text-indent:0;text-align:start;line-height:normal;text-transform:none;block-progression:tb;marker:none;-inkscape-font-specification:Sans" d="M1231.346 1360.464c-.647 7.779-1.985 15.562-1.132 28.749 1.707 26.374 5.112 1834.844 5.112 1814.835v.566h.426l168.677 7.139.482.035v-.6c.038-18.575 3.514-1782.85 5.282-1806.425.884-11.787 1.021-21.144.386-28.723-3.308-8.4-2.843-13.281-9.895-12.992-4.64.191-9.643-2.5-13.727-.762-11.937 5.08-12.066 2.49-25.509 2.646-12.166.142-27.491 6.84-47.427 2.15-8.679-2.041-19-.957-28.648-4.175-4.47-1.49-8.532.502-13.884-2.04-5.353-2.543-8.966-4.243-12.282-5.902-3.662-1.832-6.183 1.127-10.63.024-4.446-1.104-1.397-1.924-6.576-3.597-5.178-1.674-10.332 5.182-10.655 9.071z" transform="matrix(2.65178 0 0 2.1809 -2623.813 490.011)" font-weight="400" color="#000" overflow="visible" filter="url(#q)" enable-background="accumulate" font-family="Sans"/><path d="M690.942 3386.324c-1.715 16.965-5.265 33.939-3.001 62.699 4.527 57.518 13.554 4001.594 13.554 3957.957v1.234h1.13l447.294 15.57 1.28.076v-1.31c.101-40.508 9.318-3888.2 14.007-3939.613 2.344-25.707 2.707-46.114 1.022-62.644-8.771-18.32-7.539-28.964-26.238-28.332-12.305.415-25.573-5.454-36.403-1.663-31.654 11.08-31.995 5.428-67.643 5.77-32.262.31-72.901 14.92-125.765 4.69-23.016-4.453-50.384-2.088-75.97-9.106-11.851-3.25-22.625 1.095-36.818-4.45-14.192-5.545-23.775-9.253-32.567-12.87-9.711-3.996-16.396 2.458-28.187.051-11.791-2.406-3.707-4.195-17.439-7.845-13.732-3.65-27.399 11.302-28.256 19.785z" style="text-indent:0;text-align:start;line-height:normal;text-transform:none;block-progression:tb;marker:none;-inkscape-font-specification:Sans" font-weight="400" color="#000" fill="url(#M)" overflow="visible" enable-background="accumulate" font-family="Sans"/><path transform="matrix(3.17825 0 0 3.57794 -113.516 1165.126)" d="M397.237 634.545c-14.076 2.597-26.2 23.176-26.2 23.176v1094.48l19.646-1.037c.286-8.172 4.556-1096.233 6.554-1116.619z" style="text-indent:0;text-align:start;line-height:normal;text-transform:none;block-progression:tb;marker:none;-inkscape-font-specification:Sans" font-weight="400" color="#000" fill="url(#N)" overflow="visible" filter="url(#n)" enable-background="accumulate" font-family="Sans"/><path transform="matrix(3.07667 0 0 3.52352 53.576 1261.54)" d="M211.05 616.175c1.843 18.748 3.968 1112.658 3.968 1125.905v.5h.469l16.737.937V637.35s-10.506-17.022-21.175-21.174z" style="text-indent:0;text-align:start;line-height:normal;text-transform:none;block-progression:tb;marker:none;-inkscape-font-specification:Sans" font-weight="400" color="#000" fill="url(#O)" overflow="visible" filter="url(#p)" enable-background="accumulate" font-family="Sans"/><path d="M205.994 588.393c-.712 9.443-2.185 18.89-1.246 34.898 1.879 32.016 5.625 71.6 5.625 95.889v.686h.469l185.625 8.666.531.043v-.73c.042-22.546 3.867-57.06 5.813-85.676.972-14.309 1.123-25.667.424-34.868-3.64-10.197-3.129-16.122-10.889-15.77-5.106.231-10.613-3.036-15.107-.926-13.136 6.168-13.278 3.022-28.071 3.212-13.389.172-30.254 8.304-52.192 2.61-9.552-2.478-20.91-1.162-31.527-5.068-4.919-1.81-9.39.61-15.28-2.477-5.89-3.086-9.866-5.15-13.515-7.164-4.03-2.224-6.804 1.369-11.697.03-4.893-1.34-1.539-2.336-7.237-4.367-5.699-2.032-11.37 6.29-11.726 11.012z" style="text-indent:0;text-align:start;line-height:normal;text-transform:none;block-progression:tb;marker:none;-inkscape-font-specification:Sans" transform="matrix(1.89331 0 0 1.41161 -18.118 1956.62)" font-weight="400" color="#000" fill="url(#P)" stroke="#570000" overflow="visible" filter="url(#Q)" enable-background="accumulate" font-family="Sans"/><path style="text-indent:0;text-align:start;line-height:normal;text-transform:none;block-progression:tb;marker:none;-inkscape-font-specification:Sans" d="M217.41 585.184c14.053 24.772 19.704 23.87 43.48 27.615 14.069 3.386 27.296 12.803 42.351 10.205 16.71-2.387 31.825-10.405 47.517-16.14 11.794-4.721 23.713-9.448 36.273-11.694 2.359 1.02 8.817-.063 2.963-1.195-22.24 1.794-34.12 4.265-50.63 13.654-9.608 4.863-23.76 8.573-34.691 9.125-7.525 2.373-15.825-1.932-23.033-3.148-11.116-3.054-20.344-6.374-31.48-9.289-7.541.762-15.736-2.872-19.074-10.44-9.607-4.423-8.523-8.911-13.676-8.693z" transform="matrix(1.89331 0 0 1.1576 -18.456 2108.321)" font-weight="400" opacity=".211" color="#000" fill="#fff" overflow="visible" filter="url(#R)" enable-background="accumulate" font-family="Sans"/><path style="text-indent:0;text-align:start;line-height:normal;text-transform:none;block-progression:tb;marker:none;-inkscape-font-specification:Sans" d="M294.983 620.183c-11.065-3.658-20.82-6.849-20.82-6.849s8.044 3.819 10.624 4.888c3.402 1.41 8.256 2.955 18.906 5.062h.156c12.284-1.51 25.678-9.682 25.678-9.682s-23.479 10.24-34.544 6.581z" transform="matrix(1.89331 0 0 1.1111 -18.456 2135.88)" font-weight="400" color="#000" fill="url(#S)" overflow="visible" filter="url(#T)" enable-background="accumulate" font-family="Sans"/><path d="M382.722 594.384s-7.778 6.061-16.984 6.061c-9.205 0-15.72 4.798-15.72 4.798s6.136-6.502 15.342-6.502c9.205 0 17.362-4.357 17.362-4.357z" transform="matrix(1.89331 0 0 1.41161 -18.118 1956.62)" opacity=".664" fill="url(#U)" filter="url(#V)"/><path d="M260.998 605.243s-7.778 6.061-16.983 6.061c-9.205 0-15.72 4.799-15.72 4.799s6.136-6.503 15.341-6.503c9.205 0 17.362-4.357 17.362-4.357z" transform="matrix(-2.21839 0 0 1.65399 987.457 1800.784)" opacity=".638" fill="url(#W)" filter="url(#V)"/><path style="text-indent:0;text-align:start;line-height:normal;text-transform:none;block-progression:tb;marker:none;-inkscape-font-specification:Sans" d="M336.344 602.741c-15.692 5.735-14.362 11.069-31.071 13.456-15.055 2.598-28.306-6.833-42.375-10.22-23.775-3.744-24.996 4.598-39.05-20.174 1.192-.05 2.553-2.105 4.706-.271 2.152 1.833-.732-.898 4.563 1.54 3.337 7.568 16.318 7.916 23.86 7.154 11.136 2.915 21.112-1.854 32.227 1.2 7.208 1.216 19.042 9.065 26.566 6.692 10.932-.552 15.261.03 24.87-4.832 11.995-1.509 5.756-.494 10.28-1.104 4.018.654-2.782 1.838-14.576 6.56z" transform="matrix(1.89331 0 0 .93321 -7.299 2246.335)" font-weight="400" color="#000" fill="url(#X)" overflow="visible" filter="url(#Y)" enable-background="accumulate" font-family="Sans"/><path style="text-indent:0;text-align:start;line-height:normal;text-transform:none;block-progression:tb;marker:none;-inkscape-font-specification:Sans" d="M227.042 436.503c.05.028.537-.197 1.062.094 27.932 15.46 96.554 15.313 134.018 10.787 37.463-4.526 37.012-7.796 30.222-7.572-5.107.169-10.6-2.193-15.094-.656-13.136 4.493-13.336 1.31-28.094 2.344-14.528 1.017-38.923 12.81-52.187 1.875-7.5-6.183-20.914-.843-31.532-3.688-4.918-1.317-9.376.467-12.75.657-1.686.095-3.077.143-4.062.093-.492-.024-.868-.06-1.125-.125s-.344-.173-.313-.125c-2.905-4.53-6.882-6.033-10.53-7.5-4.03-1.62-7.877-1.056-10.938-.125-1.656.504-2.724.113-3.438-.156-.713-.268-1.21-.741-1.906-1.406-1.381-1.32-3.473-3.296-8.252-4.414-.03-.018 14.919 9.917 14.919 9.917z" transform="matrix(1.89331 0 0 .83067 -21.499 2433.113)" font-weight="400" opacity=".362" color="#000" fill="red" overflow="visible" filter="url(#Z)" enable-background="accumulate" font-family="Sans"/><path d="M557.227 2813.602c.74 4.668 3.719 7.38-4.272 7.184-10.394-.255-8.042-1.46-4.272-7.184 2.483-3.77.359-5.936 2.718-5.936 1.01 0 3.376-.657 4.025.328.868 1.319 1.442 3.344 1.801 5.608z" fill="url(#aa)"/><path d="M308.98 438.865a5.935 6.313 0 0 1-5.934 6.314 5.935 6.313 0 0 1-5.935-6.314 5.935 6.313 0 0 1 5.935-6.313 5.935 6.313 0 0 1 5.934 6.313z" transform="matrix(2.417 0 0 1.69394 -180.403 2060.271)" fill="url(#ab)" filter="url(#ac)"/><path d="M313.984 579.906c-1.036 9.868-4.65 18.096-5.801 24.177-.678 3.581.043-10.378-7.4-7.427-1.896.752-5.564 10.505-6.629 6.25-1.51-6.032.99-14.57 2.07-24.865 1.845-17.557 12.585-25.402 13.483-25.3.898.1 6.122 9.609 4.277 27.165z" transform="matrix(1.43116 0 0 1.41161 120.11 1956.62)" fill="#fffdf3" filter="url(#ad)"/><path d="M312.819 564.623c-.871 8.292-3.908 15.206-4.875 20.316-.57 3.01.036-8.72-6.218-6.24-1.594.63-2.236 9.464-3.13 5.888-1.269-5.07-1.61-12.88-.7-21.532 1.55-14.753 6.146-26.362 10.267-25.93 4.121.434 6.206 12.745 4.656 27.498z" transform="matrix(2.15827 0 0 1.60916 -99.503 1862.488)" fill="#ebbf93" filter="url(#ae)"/><path d="M306.133 598.435c-4.015-8.026-8.403 3.018-11.042 5.48 2.187-.718 4.7-3.203 7.318-2.951 2.222.213 3.6 2.88 5.62 3.64-.713-1.887-.706-4.123-1.896-6.169z" transform="matrix(1.89331 0 0 1.41161 -18.118 1952.69)" fill="#f9ab60" filter="url(#af)"/><path d="M205.994 588.393c-.712 9.443-2.185 18.89-1.246 34.898 1.879 32.016 5.625 71.6 5.625 95.889v.686h.469l185.625 8.666.531.043v-.73c.042-22.546 3.867-57.06 5.813-85.676.972-14.309 1.123-25.667.424-34.868-3.64-10.197-3.129-16.122-10.889-15.77-5.106.231-10.613-3.036-15.107-.926-13.136 6.168-13.278 3.022-28.071 3.212-13.389.172-30.254 8.304-52.192 2.61-9.552-2.478-20.91-1.162-31.527-5.068-4.919-1.81-9.39.61-15.28-2.477-5.89-3.086-9.866-5.15-13.515-7.164-4.03-2.224-6.804 1.369-11.697.03-4.893-1.34-1.539-2.336-7.237-4.367-5.699-2.032-11.37 6.29-11.726 11.012z" style="text-indent:0;text-align:start;line-height:normal;text-transform:none;block-progression:tb;marker:none;-inkscape-font-specification:Sans" transform="matrix(2.06543 0 0 1.53994 20.648 2107.13)" font-weight="400" color="#000" fill="url(#ag)" stroke="#570000" overflow="visible" filter="url(#Q)" enable-background="accumulate" font-family="Sans"/><path style="text-indent:0;text-align:start;line-height:normal;text-transform:none;block-progression:tb;marker:none;-inkscape-font-specification:Sans" d="M217.41 585.184c14.053 24.772 19.704 23.87 43.48 27.615 14.069 3.386 27.296 12.803 42.351 10.205 16.71-2.387 31.825-10.405 47.517-16.14 11.794-4.721 23.713-9.448 36.273-11.694 2.359 1.02 8.817-.063 2.963-1.195-22.24 1.794-34.12 4.265-50.63 13.654-9.608 4.863-23.76 8.573-34.691 9.125-7.525 2.373-15.825-1.932-23.033-3.148-11.116-3.054-20.344-6.374-31.48-9.289-7.541.762-15.736-2.872-19.074-10.44-9.607-4.423-8.523-8.911-13.676-8.693z" transform="matrix(2.06543 0 0 1.26283 20.28 2272.622)" font-weight="400" opacity=".211" color="#000" fill="#fff" overflow="visible" filter="url(#R)" enable-background="accumulate" font-family="Sans"/><path style="text-indent:0;text-align:start;line-height:normal;text-transform:none;block-progression:tb;marker:none;-inkscape-font-specification:Sans" d="M294.983 620.183c-11.065-3.658-20.82-6.849-20.82-6.849s8.044 3.819 10.624 4.888c3.402 1.41 8.256 2.955 18.906 5.062h.156c12.284-1.51 25.678-9.682 25.678-9.682s-23.479 10.24-34.544 6.581z" transform="matrix(2.06543 0 0 1.2121 20.28 2302.688)" font-weight="400" color="#000" fill="url(#ah)" overflow="visible" filter="url(#T)" enable-background="accumulate" font-family="Sans"/><path d="M382.722 594.384s-7.778 6.061-16.984 6.061c-9.205 0-15.72 4.798-15.72 4.798s6.136-6.502 15.342-6.502c9.205 0 17.362-4.357 17.362-4.357z" transform="matrix(2.06543 0 0 1.53994 20.648 2107.13)" opacity=".664" fill="url(#ai)" filter="url(#V)"/><path d="M260.998 605.243s-7.778 6.061-16.983 6.061c-9.205 0-15.72 4.799-15.72 4.799s6.136-6.503 15.341-6.503c9.205 0 17.362-4.357 17.362-4.357z" transform="matrix(-2.42006 0 0 1.80435 1117.639 1937.127)" opacity=".638" fill="url(#aj)" filter="url(#V)"/><path style="text-indent:0;text-align:start;line-height:normal;text-transform:none;block-progression:tb;marker:none;-inkscape-font-specification:Sans" d="M336.344 602.741c-15.692 5.735-14.362 11.069-31.071 13.456-15.055 2.598-28.306-6.833-42.375-10.22-23.775-3.744-24.996 4.598-39.05-20.174 1.192-.05 2.553-2.105 4.706-.271 2.152 1.833-.732-.898 4.563 1.54 3.337 7.568 16.318 7.916 23.86 7.154 11.136 2.915 21.112-1.854 32.227 1.2 7.208 1.216 19.042 9.065 26.566 6.692 10.932-.552 15.261.03 24.87-4.832 11.995-1.509 5.756-.494 10.28-1.104 4.018.654-2.782 1.838-14.576 6.56z" transform="matrix(2.06543 0 0 1.01805 32.45 2423.183)" font-weight="400" color="#000" fill="url(#ak)" overflow="visible" filter="url(#Y)" enable-background="accumulate" font-family="Sans"/><path style="text-indent:0;text-align:start;line-height:normal;text-transform:none;block-progression:tb;marker:none;-inkscape-font-specification:Sans" d="M227.042 436.503c.05.028.537-.197 1.062.094 27.932 15.46 96.554 15.313 134.018 10.787 37.463-4.526 37.012-7.796 30.222-7.572-5.107.169-10.6-2.193-15.094-.656-13.136 4.493-13.336 1.31-28.094 2.344-14.528 1.017-38.923 12.81-52.187 1.875-7.5-6.183-20.914-.843-31.532-3.688-4.918-1.317-9.376.467-12.75.657-1.686.095-3.077.143-4.062.093-.492-.024-.868-.06-1.125-.125s-.344-.173-.313-.125c-2.905-4.53-6.882-6.033-10.53-7.5-4.03-1.62-7.877-1.056-10.938-.125-1.656.504-2.724.113-3.438-.156-.713-.268-1.21-.741-1.906-1.406-1.381-1.32-3.473-3.296-8.252-4.414-.03-.018 14.919 9.917 14.919 9.917z" transform="matrix(2.06543 0 0 .90619 16.96 2626.94)" font-weight="400" opacity=".362" color="#000" fill="red" overflow="visible" filter="url(#Z)" enable-background="accumulate" font-family="Sans"/><path d="M648.297 3042.02c.808 5.092 4.057 8.05-4.66 7.836-11.34-.278-8.774-1.592-4.66-7.837 2.708-4.112.39-6.475 2.965-6.475 1.1 0 3.683-.717 4.39.359.947 1.438 1.574 3.648 1.965 6.117z" fill="url(#al)"/><path d="M308.98 438.865a5.935 6.313 0 0 1-5.934 6.314 5.935 6.313 0 0 1-5.935-6.314 5.935 6.313 0 0 1 5.935-6.313 5.935 6.313 0 0 1 5.934 6.313z" transform="matrix(2.63672 0 0 1.84793 -156.39 2220.204)" fill="url(#am)" filter="url(#ac)"/><path d="M313.984 579.906c-1.036 9.868-4.65 18.096-5.801 24.177-.678 3.581.043-10.378-7.4-7.427-1.896.752-5.564 10.505-6.629 6.25-1.51-6.032.99-14.57 2.07-24.865 1.845-17.557 12.585-25.402 13.483-25.3.898.1 6.122 9.609 4.277 27.165z" transform="matrix(1.56126 0 0 1.53994 171.442 2107.13)" fill="#fffdf3" filter="url(#ad)"/><path d="M312.819 564.623c-.871 8.292-3.908 15.206-4.875 20.316-.57 3.01.036-8.72-6.218-6.24-1.594.63-2.236 9.464-3.13 5.888-1.269-5.07-1.61-12.88-.7-21.532 1.55-14.753 6.146-26.362 10.267-25.93 4.121.434 6.206 12.745 4.656 27.498z" transform="matrix(2.35448 0 0 1.75545 -68.136 2004.44)" fill="#ebbf93" filter="url(#ae)"/><path d="M306.133 598.435c-4.015-8.026-8.403 3.018-11.042 5.48 2.187-.718 4.7-3.203 7.318-2.951 2.222.213 3.6 2.88 5.62 3.64-.713-1.887-.706-4.123-1.896-6.169z" transform="matrix(2.06543 0 0 1.53994 20.648 2102.844)" fill="#f9ab60" filter="url(#af)"/><path d="M205.994 588.393c-.712 9.443-2.185 18.89-1.246 34.898 1.879 32.016 5.625 71.6 5.625 95.889v.686h.469l185.625 8.666.531.043v-.73c.042-22.546 3.867-57.06 5.813-85.676.972-14.309 1.123-25.667.424-34.868-3.64-10.197-3.129-16.122-10.889-15.77-5.106.231-10.613-3.036-15.107-.926-13.136 6.168-13.278 3.022-28.071 3.212-13.389.172-30.254 8.304-52.192 2.61-9.552-2.478-20.91-1.162-31.527-5.068-4.919-1.81-9.39.61-15.28-2.477-5.89-3.086-9.866-5.15-13.515-7.164-4.03-2.224-6.804 1.369-11.697.03-4.893-1.34-1.539-2.336-7.237-4.367-5.699-2.032-11.37 6.29-11.726 11.012z" style="text-indent:0;text-align:start;line-height:normal;text-transform:none;block-progression:tb;marker:none;-inkscape-font-specification:Sans" transform="matrix(2.23755 0 0 1.66827 59.414 2257.64)" font-weight="400" color="#000" fill="url(#an)" stroke="#570000" overflow="visible" filter="url(#Q)" enable-background="accumulate" font-family="Sans"/><path style="text-indent:0;text-align:start;line-height:normal;text-transform:none;block-progression:tb;marker:none;-inkscape-font-specification:Sans" d="M217.41 585.184c14.053 24.772 19.704 23.87 43.48 27.615 14.069 3.386 27.296 12.803 42.351 10.205 16.71-2.387 31.825-10.405 47.517-16.14 11.794-4.721 23.713-9.448 36.273-11.694 2.359 1.02 8.817-.063 2.963-1.195-22.24 1.794-34.12 4.265-50.63 13.654-9.608 4.863-23.76 8.573-34.691 9.125-7.525 2.373-15.825-1.932-23.033-3.148-11.116-3.054-20.344-6.374-31.48-9.289-7.541.762-15.736-2.872-19.074-10.44-9.607-4.423-8.523-8.911-13.676-8.693z" transform="matrix(2.23755 0 0 1.36806 59.014 2436.924)" font-weight="400" opacity=".211" color="#000" fill="#fff" overflow="visible" filter="url(#R)" enable-background="accumulate" font-family="Sans"/><path style="text-indent:0;text-align:start;line-height:normal;text-transform:none;block-progression:tb;marker:none;-inkscape-font-specification:Sans" d="M294.983 620.183c-11.065-3.658-20.82-6.849-20.82-6.849s8.044 3.819 10.624 4.888c3.402 1.41 8.256 2.955 18.906 5.062h.156c12.284-1.51 25.678-9.682 25.678-9.682s-23.479 10.24-34.544 6.581z" transform="matrix(2.23755 0 0 1.3131 59.014 2469.494)" font-weight="400" color="#000" fill="url(#ao)" overflow="visible" filter="url(#T)" enable-background="accumulate" font-family="Sans"/><path d="M382.722 594.384s-7.778 6.061-16.984 6.061c-9.205 0-15.72 4.798-15.72 4.798s6.136-6.502 15.342-6.502c9.205 0 17.362-4.357 17.362-4.357z" transform="matrix(2.23755 0 0 1.66827 59.414 2257.64)" opacity=".664" fill="url(#ap)" filter="url(#V)"/><path d="M260.998 605.243s-7.778 6.061-16.983 6.061c-9.205 0-15.72 4.799-15.72 4.799s6.136-6.503 15.341-6.503c9.205 0 17.362-4.357 17.362-4.357z" transform="matrix(-2.62173 0 0 1.95471 1247.82 2073.47)" opacity=".638" fill="url(#aq)" filter="url(#V)"/><path style="text-indent:0;text-align:start;line-height:normal;text-transform:none;block-progression:tb;marker:none;-inkscape-font-specification:Sans" d="M336.344 602.741c-15.692 5.735-14.362 11.069-31.071 13.456-15.055 2.598-28.306-6.833-42.375-10.22-23.775-3.744-24.996 4.598-39.05-20.174 1.192-.05 2.553-2.105 4.706-.271 2.152 1.833-.732-.898 4.563 1.54 3.337 7.568 16.318 7.916 23.86 7.154 11.136 2.915 21.112-1.854 32.227 1.2 7.208 1.216 19.042 9.065 26.566 6.692 10.932-.552 15.261.03 24.87-4.832 11.995-1.509 5.756-.494 10.28-1.104 4.018.654-2.782 1.838-14.576 6.56z" transform="matrix(2.23755 0 0 1.10288 72.2 2600.03)" font-weight="400" color="#000" fill="url(#ar)" overflow="visible" filter="url(#Y)" enable-background="accumulate" font-family="Sans"/><path style="text-indent:0;text-align:start;line-height:normal;text-transform:none;block-progression:tb;marker:none;-inkscape-font-specification:Sans" d="M227.042 436.503c.05.028.537-.197 1.062.094 27.932 15.46 96.554 15.313 134.018 10.787 37.463-4.526 37.012-7.796 30.222-7.572-5.107.169-10.6-2.193-15.094-.656-13.136 4.493-13.336 1.31-28.094 2.344-14.528 1.017-38.923 12.81-52.187 1.875-7.5-6.183-20.914-.843-31.532-3.688-4.918-1.317-9.376.467-12.75.657-1.686.095-3.077.143-4.062.093-.492-.024-.868-.06-1.125-.125s-.344-.173-.313-.125c-2.905-4.53-6.882-6.033-10.53-7.5-4.03-1.62-7.877-1.056-10.938-.125-1.656.504-2.724.113-3.438-.156-.713-.268-1.21-.741-1.906-1.406-1.381-1.32-3.473-3.296-8.252-4.414-.03-.018 14.919 9.917 14.919 9.917z" transform="matrix(2.23755 0 0 .9817 55.418 2820.768)" font-weight="400" opacity=".362" color="#000" fill="red" overflow="visible" filter="url(#Z)" enable-background="accumulate" font-family="Sans"/><path d="M739.367 3270.437c.875 5.518 4.395 8.722-5.049 8.49-12.284-.301-9.505-1.725-5.049-8.49 2.935-4.455.424-7.015 3.213-7.015 1.192 0 3.99-.777 4.756.388 1.026 1.559 1.705 3.952 2.129 6.627z" fill="url(#as)"/><path d="M308.98 438.865a5.935 6.313 0 0 1-5.934 6.314 5.935 6.313 0 0 1-5.935-6.314 5.935 6.313 0 0 1 5.935-6.313 5.935 6.313 0 0 1 5.934 6.313z" transform="matrix(2.85645 0 0 2.00193 -132.378 2380.137)" fill="url(#at)" filter="url(#ac)"/><path d="M313.984 579.906c-1.036 9.868-4.65 18.096-5.801 24.177-.678 3.581.043-10.378-7.4-7.427-1.896.752-5.564 10.505-6.629 6.25-1.51-6.032.99-14.57 2.07-24.865 1.845-17.557 12.585-25.402 13.483-25.3.898.1 6.122 9.609 4.277 27.165z" transform="matrix(1.69137 0 0 1.66827 222.774 2257.64)" fill="#fffdf3" filter="url(#ad)"/><path d="M312.819 564.623c-.871 8.292-3.908 15.206-4.875 20.316-.57 3.01.036-8.72-6.218-6.24-1.594.63-2.236 9.464-3.13 5.888-1.269-5.07-1.61-12.88-.7-21.532 1.55-14.753 6.146-26.362 10.267-25.93 4.121.434 6.206 12.745 4.656 27.498z" transform="matrix(2.55068 0 0 1.90174 -36.769 2146.394)" fill="#ebbf93" filter="url(#ae)"/><path d="M205.994 588.393c-.712 9.443-2.185 18.89-1.246 34.898 1.879 32.016 5.625 71.6 5.625 95.889v.686h.469l185.625 8.666.531.043v-.73c.042-22.546 3.867-57.06 5.813-85.676.972-14.309 1.123-25.667.424-34.868-3.64-10.197-3.129-16.122-10.889-15.77-5.106.231-10.613-3.036-15.107-.926-13.136 6.168-13.278 3.022-28.071 3.212-13.389.172-30.254 8.304-52.192 2.61-9.552-2.478-20.91-1.162-31.527-5.068-4.919-1.81-9.39.61-15.28-2.477-5.89-3.086-9.866-5.15-13.515-7.164-4.03-2.224-6.804 1.369-11.697.03-4.893-1.34-1.539-2.336-7.237-4.367-5.699-2.032-11.37 6.29-11.726 11.012z" style="text-indent:0;text-align:start;line-height:normal;text-transform:none;block-progression:tb;marker:none;-inkscape-font-specification:Sans" transform="matrix(-1.54907 0 0 1.15496 937.064 1573.073)" font-weight="400" color="#000" fill="url(#au)" stroke="#570000" overflow="visible" filter="url(#Q)" enable-background="accumulate" font-family="Sans"/><path style="text-indent:0;text-align:start;line-height:normal;text-transform:none;block-progression:tb;marker:none;-inkscape-font-specification:Sans" d="M217.41 585.184c14.053 24.772 19.704 23.87 43.48 27.615 14.069 3.386 27.296 12.803 42.351 10.205 16.71-2.387 31.825-10.405 47.517-16.14 11.794-4.721 23.713-9.448 36.273-11.694 2.359 1.02 8.817-.063 2.963-1.195-22.24 1.794-34.12 4.265-50.63 13.654-9.608 4.863-23.76 8.573-34.691 9.125-7.525 2.373-15.825-1.932-23.033-3.148-11.116-3.054-20.344-6.374-31.48-9.289-7.541.762-15.736-2.872-19.074-10.44-9.607-4.423-8.523-8.911-13.676-8.693z" transform="matrix(-1.54907 0 0 .94712 937.34 1697.193)" font-weight="400" opacity=".211" color="#000" fill="#fff" overflow="visible" filter="url(#R)" enable-background="accumulate" font-family="Sans"/><path style="text-indent:0;text-align:start;line-height:normal;text-transform:none;block-progression:tb;marker:none;-inkscape-font-specification:Sans" d="M294.983 620.183c-11.065-3.658-20.82-6.849-20.82-6.849s8.044 3.819 10.624 4.888c3.402 1.41 8.256 2.955 18.906 5.062h.156c12.284-1.51 25.678-9.682 25.678-9.682s-23.479 10.24-34.544 6.581z" transform="matrix(-1.54907 0 0 .90908 937.34 1719.742)" font-weight="400" color="#000" fill="url(#av)" overflow="visible" filter="url(#T)" enable-background="accumulate" font-family="Sans"/><path d="M382.722 594.384s-7.778 6.061-16.984 6.061c-9.205 0-15.72 4.798-15.72 4.798s6.136-6.502 15.342-6.502c9.205 0 17.362-4.357 17.362-4.357z" transform="matrix(-1.54907 0 0 1.15496 937.064 1573.073)" opacity=".664" fill="url(#aw)" filter="url(#V)"/><path d="M260.998 605.243s-7.778 6.061-16.983 6.061c-9.205 0-15.72 4.799-15.72 4.799s6.136-6.503 15.341-6.503c9.205 0 17.362-4.357 17.362-4.357z" transform="matrix(1.81505 0 0 1.35326 114.321 1445.572)" opacity=".638" fill="url(#ax)" filter="url(#V)"/><path style="text-indent:0;text-align:start;line-height:normal;text-transform:none;block-progression:tb;marker:none;-inkscape-font-specification:Sans" d="M336.344 602.741c-15.692 5.735-14.362 11.069-31.071 13.456-15.055 2.598-28.306-6.833-42.375-10.22-23.775-3.744-24.996 4.598-39.05-20.174 1.192-.05 2.553-2.105 4.706-.271 2.152 1.833-.732-.898 4.563 1.54 3.337 7.568 16.318 7.916 23.86 7.154 11.136 2.915 21.112-1.854 32.227 1.2 7.208 1.216 19.042 9.065 26.566 6.692 10.932-.552 15.261.03 24.87-4.832 11.995-1.509 5.756-.494 10.28-1.104 4.018.654-2.782 1.838-14.576 6.56z" transform="matrix(-1.54907 0 0 .76354 928.212 1810.113)" font-weight="400" color="#000" fill="url(#ay)" overflow="visible" filter="url(#Y)" enable-background="accumulate" font-family="Sans"/><path style="text-indent:0;text-align:start;line-height:normal;text-transform:none;block-progression:tb;marker:none;-inkscape-font-specification:Sans" d="M227.042 436.503c.05.028.537-.197 1.062.094 27.932 15.46 96.554 15.313 134.018 10.787 37.463-4.526 37.012-7.796 30.222-7.572-5.107.169-10.6-2.193-15.094-.656-13.136 4.493-13.336 1.31-28.094 2.344-14.528 1.017-38.923 12.81-52.187 1.875-7.5-6.183-20.914-.843-31.532-3.688-4.918-1.317-9.376.467-12.75.657-1.686.095-3.077.143-4.062.093-.492-.024-.868-.06-1.125-.125s-.344-.173-.313-.125c-2.905-4.53-6.882-6.033-10.53-7.5-4.03-1.62-7.877-1.056-10.938-.125-1.656.504-2.724.113-3.438-.156-.713-.268-1.21-.741-1.906-1.406-1.381-1.32-3.473-3.296-8.252-4.414-.03-.018 14.919 9.917 14.919 9.917z" transform="matrix(-1.54907 0 0 .67964 939.83 1962.931)" font-weight="400" opacity=".362" color="#000" fill="red" overflow="visible" filter="url(#Z)" enable-background="accumulate" font-family="Sans"/><path d="M466.327 2274.24c-.605 3.82-3.042 6.039 3.495 5.879 8.505-.209 6.58-1.195 3.496-5.878-2.032-3.084-.294-4.857-2.224-4.857-.826 0-2.762-.538-3.293.27-.71 1.078-1.18 2.735-1.474 4.587z" fill="url(#az)"/><path d="M308.98 438.865a5.935 6.313 0 0 1-5.934 6.314 5.935 6.313 0 0 1-5.935-6.314 5.935 6.313 0 0 1 5.935-6.313 5.935 6.313 0 0 1 5.934 6.313z" transform="matrix(-1.97754 0 0 1.38595 1069.843 1657.88)" fill="url(#aA)" filter="url(#ac)"/><path d="M313.984 579.906c-1.036 9.868-4.65 18.096-5.801 24.177-.678 3.581.043-10.378-7.4-7.427-1.896.752-5.564 10.505-6.629 6.25-1.51-6.032.99-14.57 2.07-24.865 1.845-17.557 12.585-25.402 13.483-25.3.898.1 6.122 9.609 4.277 27.165z" transform="matrix(-1.17095 0 0 1.15496 823.968 1573.073)" fill="#fffdf3" filter="url(#ad)"/><path d="M312.819 564.623c-.871 8.292-3.908 15.206-4.875 20.316-.57 3.01.036-8.72-6.218-6.24-1.594.63-2.236 9.464-3.13 5.888-1.269-5.07-1.61-12.88-.7-21.532 1.55-14.753 6.146-26.362 10.267-25.93 4.121.434 6.206 12.745 4.656 27.498z" transform="matrix(-1.76586 0 0 1.31659 1003.652 1496.057)" fill="#ebbf93" filter="url(#ae)"/><path d="M306.133 598.435c-4.015-8.026-8.403 3.018-11.042 5.48 2.187-.718 4.7-3.203 7.318-2.951 2.222.213 3.6 2.88 5.62 3.64-.713-1.887-.706-4.123-1.896-6.169z" transform="matrix(-1.54907 0 0 1.15496 937.064 1569.859)" fill="#f9ab60" filter="url(#af)"/><path d="M205.994 588.393c-.712 9.443-2.185 18.89-1.246 34.898 1.879 32.016 5.625 71.6 5.625 95.889v.686h.469l185.625 8.666.531.043v-.73c.042-22.546 3.867-57.06 5.813-85.676.972-14.309 1.123-25.667.424-34.868-3.64-10.197-3.129-16.122-10.889-15.77-5.106.231-10.613-3.036-15.107-.926-13.136 6.168-13.278 3.022-28.071 3.212-13.389.172-30.254 8.304-52.192 2.61-9.552-2.478-20.91-1.162-31.527-5.068-4.919-1.81-9.39.61-15.28-2.477-5.89-3.086-9.866-5.15-13.515-7.164-4.03-2.224-6.804 1.369-11.697.03-4.893-1.34-1.539-2.336-7.237-4.367-5.699-2.032-11.37 6.29-11.726 11.012z" style="text-indent:0;text-align:start;line-height:normal;text-transform:none;block-progression:tb;marker:none;-inkscape-font-specification:Sans" transform="matrix(1.7212 0 0 1.28329 39.503 1723.583)" font-weight="400" color="#000" fill="url(#aB)" stroke="#570000" overflow="visible" filter="url(#Q)" enable-background="accumulate" font-family="Sans"/><path style="text-indent:0;text-align:start;line-height:normal;text-transform:none;block-progression:tb;marker:none;-inkscape-font-specification:Sans" d="M217.41 585.184c14.053 24.772 19.704 23.87 43.48 27.615 14.069 3.386 27.296 12.803 42.351 10.205 16.71-2.387 31.825-10.405 47.517-16.14 11.794-4.721 23.713-9.448 36.273-11.694 2.359 1.02 8.817-.063 2.963-1.195-22.24 1.794-34.12 4.265-50.63 13.654-9.608 4.863-23.76 8.573-34.691 9.125-7.525 2.373-15.825-1.932-23.033-3.148-11.116-3.054-20.344-6.374-31.48-9.289-7.541.762-15.736-2.872-19.074-10.44-9.607-4.423-8.523-8.911-13.676-8.693z" transform="matrix(1.7212 0 0 1.05236 39.196 1861.494)" font-weight="400" opacity=".211" color="#000" fill="#fff" overflow="visible" filter="url(#R)" enable-background="accumulate" font-family="Sans"/><path style="text-indent:0;text-align:start;line-height:normal;text-transform:none;block-progression:tb;marker:none;-inkscape-font-specification:Sans" d="M294.983 620.183c-11.065-3.658-20.82-6.849-20.82-6.849s8.044 3.819 10.624 4.888c3.402 1.41 8.256 2.955 18.906 5.062h.156c12.284-1.51 25.678-9.682 25.678-9.682s-23.479 10.24-34.544 6.581z" transform="matrix(1.7212 0 0 1.01008 39.196 1886.549)" font-weight="400" color="#000" fill="url(#aC)" overflow="visible" filter="url(#T)" enable-background="accumulate" font-family="Sans"/><path d="M382.722 594.384s-7.778 6.061-16.984 6.061c-9.205 0-15.72 4.798-15.72 4.798s6.136-6.502 15.342-6.502c9.205 0 17.362-4.357 17.362-4.357z" transform="matrix(1.7212 0 0 1.28329 39.503 1723.583)" opacity=".664" fill="url(#aD)" filter="url(#V)"/><path d="M260.998 605.243s-7.778 6.061-16.983 6.061c-9.205 0-15.72 4.799-15.72 4.799s6.136-6.503 15.341-6.503c9.205 0 17.362-4.357 17.362-4.357z" transform="matrix(-2.01672 0 0 1.50362 953.662 1581.915)" opacity=".638" fill="url(#aE)" filter="url(#V)"/><path style="text-indent:0;text-align:start;line-height:normal;text-transform:none;block-progression:tb;marker:none;-inkscape-font-specification:Sans" d="M336.344 602.741c-15.692 5.735-14.362 11.069-31.071 13.456-15.055 2.598-28.306-6.833-42.375-10.22-23.775-3.744-24.996 4.598-39.05-20.174 1.192-.05 2.553-2.105 4.706-.271 2.152 1.833-.732-.898 4.563 1.54 3.337 7.568 16.318 7.916 23.86 7.154 11.136 2.915 21.112-1.854 32.227 1.2 7.208 1.216 19.042 9.065 26.566 6.692 10.932-.552 15.261.03 24.87-4.832 11.995-1.509 5.756-.494 10.28-1.104 4.018.654-2.782 1.838-14.576 6.56z" transform="matrix(1.7212 0 0 .84837 49.338 1986.961)" font-weight="400" color="#000" fill="url(#aF)" overflow="visible" filter="url(#Y)" enable-background="accumulate" font-family="Sans"/><path style="text-indent:0;text-align:start;line-height:normal;text-transform:none;block-progression:tb;marker:none;-inkscape-font-specification:Sans" d="M227.042 436.503c.05.028.537-.197 1.062.094 27.932 15.46 96.554 15.313 134.018 10.787 37.463-4.526 37.012-7.796 30.222-7.572-5.107.169-10.6-2.193-15.094-.656-13.136 4.493-13.336 1.31-28.094 2.344-14.528 1.017-38.923 12.81-52.187 1.875-7.5-6.183-20.914-.843-31.532-3.688-4.918-1.317-9.376.467-12.75.657-1.686.095-3.077.143-4.062.093-.492-.024-.868-.06-1.125-.125s-.344-.173-.313-.125c-2.905-4.53-6.882-6.033-10.53-7.5-4.03-1.62-7.877-1.056-10.938-.125-1.656.504-2.724.113-3.438-.156-.713-.268-1.21-.741-1.906-1.406-1.381-1.32-3.473-3.296-8.252-4.414-.03-.018 14.919 9.917 14.919 9.917z" transform="matrix(1.7212 0 0 .75516 36.43 2156.76)" font-weight="400" opacity=".362" color="#000" fill="red" overflow="visible" filter="url(#Z)" enable-background="accumulate" font-family="Sans"/><path d="M562.544 2502.659c.673 4.244 3.38 6.709-3.884 6.53-9.45-.231-7.311-1.327-3.883-6.53 2.257-3.427.326-5.397 2.47-5.397.918 0 3.07-.597 3.66.3.788 1.198 1.31 3.04 1.637 5.097z" fill="url(#aG)"/><path d="M308.98 438.865a5.935 6.313 0 0 1-5.934 6.314 5.935 6.313 0 0 1-5.935-6.314 5.935 6.313 0 0 1 5.935-6.313 5.935 6.313 0 0 1 5.934 6.313z" transform="matrix(2.19727 0 0 1.53994 -108.03 1817.813)" fill="url(#aH)" filter="url(#ac)"/><path d="M313.984 579.906c-1.036 9.868-4.65 18.096-5.801 24.177-.678 3.581.043-10.378-7.4-7.427-1.896.752-5.564 10.505-6.629 6.25-1.51-6.032.99-14.57 2.07-24.865 1.845-17.557 12.585-25.402 13.483-25.3.898.1 6.122 9.609 4.277 27.165z" transform="matrix(1.30105 0 0 1.28329 165.165 1723.583)" fill="#fffdf3" filter="url(#ad)"/><path d="M312.819 564.623c-.871 8.292-3.908 15.206-4.875 20.316-.57 3.01.036-8.72-6.218-6.24-1.594.63-2.236 9.464-3.13 5.888-1.269-5.07-1.61-12.88-.7-21.532 1.55-14.753 6.146-26.362 10.267-25.93 4.121.434 6.206 12.745 4.656 27.498z" transform="matrix(1.96206 0 0 1.46287 -34.484 1638.01)" fill="#ebbf93" filter="url(#ae)"/><path d="M306.133 598.435c-4.015-8.026-8.403 3.018-11.042 5.48 2.187-.718 4.7-3.203 7.318-2.951 2.222.213 3.6 2.88 5.62 3.64-.713-1.887-.706-4.123-1.896-6.169z" transform="matrix(1.7212 0 0 1.28329 39.503 1720.012)" fill="#f9ab60" filter="url(#af)"/><path d="M205.994 588.393c-.712 9.443-2.185 18.89-1.246 34.898 1.879 32.016 5.625 71.6 5.625 95.889v.686h.469l185.625 8.666.531.043v-.73c.042-22.546 3.867-57.06 5.813-85.676.972-14.309 1.123-25.667.424-34.868-3.64-10.197-3.129-16.122-10.889-15.77-5.106.231-10.613-3.036-15.107-.926-13.136 6.168-13.278 3.022-28.071 3.212-13.389.172-30.254 8.304-52.192 2.61-9.552-2.478-20.91-1.162-31.527-5.068-4.919-1.81-9.39.61-15.28-2.477-5.89-3.086-9.866-5.15-13.515-7.164-4.03-2.224-6.804 1.369-11.697.03-4.893-1.34-1.539-2.336-7.237-4.367-5.699-2.032-11.37 6.29-11.726 11.012z" style="text-indent:0;text-align:start;line-height:normal;text-transform:none;block-progression:tb;marker:none;-inkscape-font-specification:Sans" transform="matrix(-1.89331 0 0 1.41161 1222.668 1874.094)" font-weight="400" color="#000" fill="url(#aI)" stroke="#570000" overflow="visible" filter="url(#Q)" enable-background="accumulate" font-family="Sans"/><path style="text-indent:0;text-align:start;line-height:normal;text-transform:none;block-progression:tb;marker:none;-inkscape-font-specification:Sans" d="M217.41 585.184c14.053 24.772 19.704 23.87 43.48 27.615 14.069 3.386 27.296 12.803 42.351 10.205 16.71-2.387 31.825-10.405 47.517-16.14 11.794-4.721 23.713-9.448 36.273-11.694 2.359 1.02 8.817-.063 2.963-1.195-22.24 1.794-34.12 4.265-50.63 13.654-9.608 4.863-23.76 8.573-34.691 9.125-7.525 2.373-15.825-1.932-23.033-3.148-11.116-3.054-20.344-6.374-31.48-9.289-7.541.762-15.736-2.872-19.074-10.44-9.607-4.423-8.523-8.911-13.676-8.693z" transform="matrix(-1.89331 0 0 1.1576 1223.006 2025.796)" font-weight="400" opacity=".211" color="#000" fill="#fff" overflow="visible" filter="url(#R)" enable-background="accumulate" font-family="Sans"/><path style="text-indent:0;text-align:start;line-height:normal;text-transform:none;block-progression:tb;marker:none;-inkscape-font-specification:Sans" d="M294.983 620.183c-11.065-3.658-20.82-6.849-20.82-6.849s8.044 3.819 10.624 4.888c3.402 1.41 8.256 2.955 18.906 5.062h.156c12.284-1.51 25.678-9.682 25.678-9.682s-23.479 10.24-34.544 6.581z" transform="matrix(-1.89331 0 0 1.1111 1223.006 2053.356)" font-weight="400" color="#000" fill="url(#aJ)" overflow="visible" filter="url(#T)" enable-background="accumulate" font-family="Sans"/><path d="M382.722 594.384s-7.778 6.061-16.984 6.061c-9.205 0-15.72 4.798-15.72 4.798s6.136-6.502 15.342-6.502c9.205 0 17.362-4.357 17.362-4.357z" transform="matrix(-1.89331 0 0 1.41161 1222.668 1874.094)" opacity=".664" fill="url(#aK)" filter="url(#V)"/><path d="M260.998 605.243s-7.778 6.061-16.983 6.061c-9.205 0-15.72 4.799-15.72 4.799s6.136-6.503 15.341-6.503c9.205 0 17.362-4.357 17.362-4.357z" transform="matrix(2.21839 0 0 1.65399 217.093 1718.259)" opacity=".638" fill="url(#aL)" filter="url(#V)"/><path style="text-indent:0;text-align:start;line-height:normal;text-transform:none;block-progression:tb;marker:none;-inkscape-font-specification:Sans" d="M336.344 602.741c-15.692 5.735-14.362 11.069-31.071 13.456-15.055 2.598-28.306-6.833-42.375-10.22-23.775-3.744-24.996 4.598-39.05-20.174 1.192-.05 2.553-2.105 4.706-.271 2.152 1.833-.732-.898 4.563 1.54 3.337 7.568 16.318 7.916 23.86 7.154 11.136 2.915 21.112-1.854 32.227 1.2 7.208 1.216 19.042 9.065 26.566 6.692 10.932-.552 15.261.03 24.87-4.832 11.995-1.509 5.756-.494 10.28-1.104 4.018.654-2.782 1.838-14.576 6.56z" transform="matrix(-1.89331 0 0 .93321 1211.849 2163.81)" font-weight="400" color="#000" fill="url(#aM)" overflow="visible" filter="url(#Y)" enable-background="accumulate" font-family="Sans"/><path style="text-indent:0;text-align:start;line-height:normal;text-transform:none;block-progression:tb;marker:none;-inkscape-font-specification:Sans" d="M227.042 436.503c.05.028.537-.197 1.062.094 27.932 15.46 96.554 15.313 134.018 10.787 37.463-4.526 37.012-7.796 30.222-7.572-5.107.169-10.6-2.193-15.094-.656-13.136 4.493-13.336 1.31-28.094 2.344-14.528 1.017-38.923 12.81-52.187 1.875-7.5-6.183-20.914-.843-31.532-3.688-4.918-1.317-9.376.467-12.75.657-1.686.095-3.077.143-4.062.093-.492-.024-.868-.06-1.125-.125s-.344-.173-.313-.125c-2.905-4.53-6.882-6.033-10.53-7.5-4.03-1.62-7.877-1.056-10.938-.125-1.656.504-2.724.113-3.438-.156-.713-.268-1.21-.741-1.906-1.406-1.381-1.32-3.473-3.296-8.252-4.414-.03-.018 14.919 9.917 14.919 9.917z" transform="matrix(-1.89331 0 0 .83067 1226.049 2350.587)" font-weight="400" opacity=".362" color="#000" fill="red" overflow="visible" filter="url(#Z)" enable-background="accumulate" font-family="Sans"/><path d="M647.323 2731.076c-.74 4.669-3.719 7.38 4.272 7.184 10.394-.255 8.042-1.46 4.272-7.184-2.483-3.77-.359-5.936-2.718-5.936-1.01 0-3.376-.657-4.025.329-.868 1.319-1.442 3.344-1.801 5.607z" fill="url(#aN)"/><path d="M308.98 438.865a5.935 6.313 0 0 1-5.934 6.314 5.935 6.313 0 0 1-5.935-6.314 5.935 6.313 0 0 1 5.935-6.313 5.935 6.313 0 0 1 5.934 6.313z" transform="matrix(-2.417 0 0 1.69394 1384.953 1977.746)" fill="url(#aO)" filter="url(#ac)"/><path d="M313.984 579.906c-1.036 9.868-4.65 18.096-5.801 24.177-.678 3.581.043-10.378-7.4-7.427-1.896.752-5.564 10.505-6.629 6.25-1.51-6.032.99-14.57 2.07-24.865 1.845-17.557 12.585-25.402 13.483-25.3.898.1 6.122 9.609 4.277 27.165z" transform="matrix(-1.43116 0 0 1.41161 1084.44 1874.094)" fill="#fffdf3" filter="url(#ad)"/><path d="M312.819 564.623c-.871 8.292-3.908 15.206-4.875 20.316-.57 3.01.036-8.72-6.218-6.24-1.594.63-2.236 9.464-3.13 5.888-1.269-5.07-1.61-12.88-.7-21.532 1.55-14.753 6.146-26.362 10.267-25.93 4.121.434 6.206 12.745 4.656 27.498z" transform="matrix(-2.15827 0 0 1.60916 1304.053 1779.963)" fill="#ebbf93" filter="url(#ae)"/><path d="M306.133 598.435c-4.015-8.026-8.403 3.018-11.042 5.48 2.187-.718 4.7-3.203 7.318-2.951 2.222.213 3.6 2.88 5.62 3.64-.713-1.887-.706-4.123-1.896-6.169z" transform="matrix(-1.89331 0 0 1.41161 1222.668 1870.165)" fill="#f9ab60" filter="url(#af)"/><path d="M205.994 588.393c-.712 9.443-2.185 18.89-1.246 34.898 1.879 32.016 5.625 71.6 5.625 95.889v.686h.469l185.625 8.666.531.043v-.73c.042-22.546 3.867-57.06 5.813-85.676.972-14.309 1.123-25.667.424-34.868-3.64-10.197-3.129-16.122-10.889-15.77-5.106.231-10.613-3.036-15.107-.926-13.136 6.168-13.278 3.022-28.071 3.212-13.389.172-30.254 8.304-52.192 2.61-9.552-2.478-20.91-1.162-31.527-5.068-4.919-1.81-9.39.61-15.28-2.477-5.89-3.086-9.866-5.15-13.515-7.164-4.03-2.224-6.804 1.369-11.697.03-4.893-1.34-1.539-2.336-7.237-4.367-5.699-2.032-11.37 6.29-11.726 11.012z" style="text-indent:0;text-align:start;line-height:normal;text-transform:none;block-progression:tb;marker:none;-inkscape-font-specification:Sans" transform="matrix(2.06543 0 0 1.53994 117.034 2024.604)" font-weight="400" color="#000" fill="url(#aP)" stroke="#570000" overflow="visible" filter="url(#Q)" enable-background="accumulate" font-family="Sans"/><path style="text-indent:0;text-align:start;line-height:normal;text-transform:none;block-progression:tb;marker:none;-inkscape-font-specification:Sans" d="M217.41 585.184c14.053 24.772 19.704 23.87 43.48 27.615 14.069 3.386 27.296 12.803 42.351 10.205 16.71-2.387 31.825-10.405 47.517-16.14 11.794-4.721 23.713-9.448 36.273-11.694 2.359 1.02 8.817-.063 2.963-1.195-22.24 1.794-34.12 4.265-50.63 13.654-9.608 4.863-23.76 8.573-34.691 9.125-7.525 2.373-15.825-1.932-23.033-3.148-11.116-3.054-20.344-6.374-31.48-9.289-7.541.762-15.736-2.872-19.074-10.44-9.607-4.423-8.523-8.911-13.676-8.693z" transform="matrix(2.06543 0 0 1.26283 116.666 2190.097)" font-weight="400" opacity=".211" color="#000" fill="#fff" overflow="visible" filter="url(#R)" enable-background="accumulate" font-family="Sans"/><path style="text-indent:0;text-align:start;line-height:normal;text-transform:none;block-progression:tb;marker:none;-inkscape-font-specification:Sans" d="M294.983 620.183c-11.065-3.658-20.82-6.849-20.82-6.849s8.044 3.819 10.624 4.888c3.402 1.41 8.256 2.955 18.906 5.062h.156c12.284-1.51 25.678-9.682 25.678-9.682s-23.479 10.24-34.544 6.581z" transform="matrix(2.06543 0 0 1.2121 116.666 2220.162)" font-weight="400" color="#000" fill="url(#aQ)" overflow="visible" filter="url(#T)" enable-background="accumulate" font-family="Sans"/><path d="M382.722 594.384s-7.778 6.061-16.984 6.061c-9.205 0-15.72 4.798-15.72 4.798s6.136-6.502 15.342-6.502c9.205 0 17.362-4.357 17.362-4.357z" transform="matrix(2.06543 0 0 1.53994 117.034 2024.604)" opacity=".664" fill="url(#aR)" filter="url(#V)"/><path d="M260.998 605.243s-7.778 6.061-16.983 6.061c-9.205 0-15.72 4.799-15.72 4.799s6.136-6.503 15.341-6.503c9.205 0 17.362-4.357 17.362-4.357z" transform="matrix(-2.42006 0 0 1.80435 1214.025 1854.602)" opacity=".638" fill="url(#aS)" filter="url(#V)"/><path style="text-indent:0;text-align:start;line-height:normal;text-transform:none;block-progression:tb;marker:none;-inkscape-font-specification:Sans" d="M336.344 602.741c-15.692 5.735-14.362 11.069-31.071 13.456-15.055 2.598-28.306-6.833-42.375-10.22-23.775-3.744-24.996 4.598-39.05-20.174 1.192-.05 2.553-2.105 4.706-.271 2.152 1.833-.732-.898 4.563 1.54 3.337 7.568 16.318 7.916 23.86 7.154 11.136 2.915 21.112-1.854 32.227 1.2 7.208 1.216 19.042 9.065 26.566 6.692 10.932-.552 15.261.03 24.87-4.832 11.995-1.509 5.756-.494 10.28-1.104 4.018.654-2.782 1.838-14.576 6.56z" transform="matrix(2.06543 0 0 1.01805 128.837 2340.657)" font-weight="400" color="#000" fill="url(#aT)" overflow="visible" filter="url(#Y)" enable-background="accumulate" font-family="Sans"/><path style="text-indent:0;text-align:start;line-height:normal;text-transform:none;block-progression:tb;marker:none;-inkscape-font-specification:Sans" d="M227.042 436.503c.05.028.537-.197 1.062.094 27.932 15.46 96.554 15.313 134.018 10.787 37.463-4.526 37.012-7.796 30.222-7.572-5.107.169-10.6-2.193-15.094-.656-13.136 4.493-13.336 1.31-28.094 2.344-14.528 1.017-38.923 12.81-52.187 1.875-7.5-6.183-20.914-.843-31.532-3.688-4.918-1.317-9.376.467-12.75.657-1.686.095-3.077.143-4.062.093-.492-.024-.868-.06-1.125-.125s-.344-.173-.313-.125c-2.905-4.53-6.882-6.033-10.53-7.5-4.03-1.62-7.877-1.056-10.938-.125-1.656.504-2.724.113-3.438-.156-.713-.268-1.21-.741-1.906-1.406-1.381-1.32-3.473-3.296-8.252-4.414-.03-.018 14.919 9.917 14.919 9.917z" transform="matrix(2.06543 0 0 .90619 113.346 2544.415)" font-weight="400" opacity=".362" color="#000" fill="red" overflow="visible" filter="url(#Z)" enable-background="accumulate" font-family="Sans"/><path d="M744.684 2959.494c.807 5.093 4.056 8.05-4.66 7.837-11.34-.278-8.775-1.593-4.661-7.837 2.709-4.112.391-6.476 2.965-6.476 1.101 0 3.683-.716 4.39.359.947 1.438 1.574 3.648 1.966 6.117z" fill="url(#aU)"/><path d="M308.98 438.865a5.935 6.313 0 0 1-5.934 6.314 5.935 6.313 0 0 1-5.935-6.314 5.935 6.313 0 0 1 5.935-6.313 5.935 6.313 0 0 1 5.934 6.313z" transform="matrix(2.63672 0 0 1.84793 -60.004 2137.679)" fill="url(#aV)" filter="url(#ac)"/><path d="M313.984 579.906c-1.036 9.868-4.65 18.096-5.801 24.177-.678 3.581.043-10.378-7.4-7.427-1.896.752-5.564 10.505-6.629 6.25-1.51-6.032.99-14.57 2.07-24.865 1.845-17.557 12.585-25.402 13.483-25.3.898.1 6.122 9.609 4.277 27.165z" transform="matrix(1.56126 0 0 1.53994 267.829 2024.604)" fill="#fffdf3" filter="url(#ad)"/><path d="M312.819 564.623c-.871 8.292-3.908 15.206-4.875 20.316-.57 3.01.036-8.72-6.218-6.24-1.594.63-2.236 9.464-3.13 5.888-1.269-5.07-1.61-12.88-.7-21.532 1.55-14.753 6.146-26.362 10.267-25.93 4.121.434 6.206 12.745 4.656 27.498z" transform="matrix(2.35448 0 0 1.75545 28.25 1921.915)" fill="#ebbf93" filter="url(#ae)"/><path d="M306.133 598.435c-4.015-8.026-8.403 3.018-11.042 5.48 2.187-.718 4.7-3.203 7.318-2.951 2.222.213 3.6 2.88 5.62 3.64-.713-1.887-.706-4.123-1.896-6.169z" transform="matrix(2.06543 0 0 1.53994 117.034 2020.318)" fill="#f9ab60" filter="url(#af)"/><path d="M205.994 588.393c-.712 9.443-2.185 18.89-1.246 34.898 1.879 32.016 5.625 71.6 5.625 95.889v.686h.469l185.625 8.666.531.043v-.73c.042-22.546 3.867-57.06 5.813-85.676.972-14.309 1.123-25.667.424-34.868-3.64-10.197-3.129-16.122-10.889-15.77-5.106.231-10.613-3.036-15.107-.926-13.136 6.168-13.278 3.022-28.071 3.212-13.389.172-30.254 8.304-52.192 2.61-9.552-2.478-20.91-1.162-31.527-5.068-4.919-1.81-9.39.61-15.28-2.477-5.89-3.086-9.866-5.15-13.515-7.164-4.03-2.224-6.804 1.369-11.697.03-4.893-1.34-1.539-2.336-7.237-4.367-5.699-2.032-11.37 6.29-11.726 11.012z" style="text-indent:0;text-align:start;line-height:normal;text-transform:none;block-progression:tb;marker:none;-inkscape-font-specification:Sans" transform="matrix(-2.23755 0 0 1.66827 1508.272 2175.114)" font-weight="400" color="#000" fill="url(#aW)" stroke="#570000" overflow="visible" filter="url(#Q)" enable-background="accumulate" font-family="Sans"/><path style="text-indent:0;text-align:start;line-height:normal;text-transform:none;block-progression:tb;marker:none;-inkscape-font-specification:Sans" d="M217.41 585.184c14.053 24.772 19.704 23.87 43.48 27.615 14.069 3.386 27.296 12.803 42.351 10.205 16.71-2.387 31.825-10.405 47.517-16.14 11.794-4.721 23.713-9.448 36.273-11.694 2.359 1.02 8.817-.063 2.963-1.195-22.24 1.794-34.12 4.265-50.63 13.654-9.608 4.863-23.76 8.573-34.691 9.125-7.525 2.373-15.825-1.932-23.033-3.148-11.116-3.054-20.344-6.374-31.48-9.289-7.541.762-15.736-2.872-19.074-10.44-9.607-4.423-8.523-8.911-13.676-8.693z" transform="matrix(-2.23755 0 0 1.36806 1508.671 2354.398)" font-weight="400" opacity=".211" color="#000" fill="#fff" overflow="visible" filter="url(#R)" enable-background="accumulate" font-family="Sans"/><path style="text-indent:0;text-align:start;line-height:normal;text-transform:none;block-progression:tb;marker:none;-inkscape-font-specification:Sans" d="M294.983 620.183c-11.065-3.658-20.82-6.849-20.82-6.849s8.044 3.819 10.624 4.888c3.402 1.41 8.256 2.955 18.906 5.062h.156c12.284-1.51 25.678-9.682 25.678-9.682s-23.479 10.24-34.544 6.581z" transform="matrix(-2.23755 0 0 1.3131 1508.671 2386.969)" font-weight="400" color="#000" fill="url(#aX)" overflow="visible" filter="url(#T)" enable-background="accumulate" font-family="Sans"/><path d="M382.722 594.384s-7.778 6.061-16.984 6.061c-9.205 0-15.72 4.798-15.72 4.798s6.136-6.502 15.342-6.502c9.205 0 17.362-4.357 17.362-4.357z" transform="matrix(-2.23755 0 0 1.66827 1508.272 2175.114)" opacity=".664" fill="url(#aY)" filter="url(#V)"/><path d="M260.998 605.243s-7.778 6.061-16.983 6.061c-9.205 0-15.72 4.799-15.72 4.799s6.136-6.503 15.341-6.503c9.205 0 17.362-4.357 17.362-4.357z" transform="matrix(2.62173 0 0 1.95471 319.866 1990.945)" opacity=".638" fill="url(#aZ)" filter="url(#V)"/><path style="text-indent:0;text-align:start;line-height:normal;text-transform:none;block-progression:tb;marker:none;-inkscape-font-specification:Sans" d="M336.344 602.741c-15.692 5.735-14.362 11.069-31.071 13.456-15.055 2.598-28.306-6.833-42.375-10.22-23.775-3.744-24.996 4.598-39.05-20.174 1.192-.05 2.553-2.105 4.706-.271 2.152 1.833-.732-.898 4.563 1.54 3.337 7.568 16.318 7.916 23.86 7.154 11.136 2.915 21.112-1.854 32.227 1.2 7.208 1.216 19.042 9.065 26.566 6.692 10.932-.552 15.261.03 24.87-4.832 11.995-1.509 5.756-.494 10.28-1.104 4.018.654-2.782 1.838-14.576 6.56z" transform="matrix(-2.23755 0 0 1.10288 1495.486 2517.505)" font-weight="400" color="#000" fill="url(#ba)" overflow="visible" filter="url(#Y)" enable-background="accumulate" font-family="Sans"/><path style="text-indent:0;text-align:start;line-height:normal;text-transform:none;block-progression:tb;marker:none;-inkscape-font-specification:Sans" d="M227.042 436.503c.05.028.537-.197 1.062.094 27.932 15.46 96.554 15.313 134.018 10.787 37.463-4.526 37.012-7.796 30.222-7.572-5.107.169-10.6-2.193-15.094-.656-13.136 4.493-13.336 1.31-28.094 2.344-14.528 1.017-38.923 12.81-52.187 1.875-7.5-6.183-20.914-.843-31.532-3.688-4.918-1.317-9.376.467-12.75.657-1.686.095-3.077.143-4.062.093-.492-.024-.868-.06-1.125-.125s-.344-.173-.313-.125c-2.905-4.53-6.882-6.033-10.53-7.5-4.03-1.62-7.877-1.056-10.938-.125-1.656.504-2.724.113-3.438-.156-.713-.268-1.21-.741-1.906-1.406-1.381-1.32-3.473-3.296-8.252-4.414-.03-.018 14.919 9.917 14.919 9.917z" transform="matrix(-2.23755 0 0 .9817 1512.268 2738.243)" font-weight="400" opacity=".362" color="#000" fill="red" overflow="visible" filter="url(#Z)" enable-background="accumulate" font-family="Sans"/><path d="M828.319 3187.912c-.875 5.517-4.395 8.722 5.048 8.49 12.285-.302 9.505-1.726 5.05-8.49-2.935-4.455-.425-7.016-3.213-7.016-1.193 0-3.99-.776-4.757.389-1.025 1.558-1.704 3.952-2.128 6.627z" fill="url(#bb)"/><path d="M308.98 438.865a5.935 6.313 0 0 1-5.934 6.314 5.935 6.313 0 0 1-5.935-6.314 5.935 6.313 0 0 1 5.935-6.313 5.935 6.313 0 0 1 5.934 6.313z" transform="matrix(-2.85645 0 0 2.00193 1700.064 2297.612)" fill="url(#bc)" filter="url(#ac)"/><path d="M313.984 579.906c-1.036 9.868-4.65 18.096-5.801 24.177-.678 3.581.043-10.378-7.4-7.427-1.896.752-5.564 10.505-6.629 6.25-1.51-6.032.99-14.57 2.07-24.865 1.845-17.557 12.585-25.402 13.483-25.3.898.1 6.122 9.609 4.277 27.165z" transform="matrix(-1.69137 0 0 1.66827 1344.911 2175.114)" fill="#fffdf3" filter="url(#ad)"/><path d="M312.819 564.623c-.871 8.292-3.908 15.206-4.875 20.316-.57 3.01.036-8.72-6.218-6.24-1.594.63-2.236 9.464-3.13 5.888-1.269-5.07-1.61-12.88-.7-21.532 1.55-14.753 6.146-26.362 10.267-25.93 4.121.434 6.206 12.745 4.656 27.498z" transform="matrix(-2.55068 0 0 1.90174 1604.454 2063.868)" fill="#ebbf93" filter="url(#ae)"/><path d="M306.133 598.435c-4.015-8.026-8.403 3.018-11.042 5.48 2.187-.718 4.7-3.203 7.318-2.951 2.222.213 3.6 2.88 5.62 3.64-.713-1.887-.706-4.123-1.896-6.169z" transform="matrix(-2.23755 0 0 1.66827 1508.272 2170.471)" fill="#f9ab60" filter="url(#af)"/><path d="M205.994 588.393c-.712 9.443-2.185 18.89-1.246 34.898 1.879 32.016 5.625 71.6 5.625 95.889v.686h.469l185.625 8.666.531.043v-.73c.042-22.546 3.867-57.06 5.813-85.676.972-14.309 1.123-25.667.424-34.868-3.64-10.197-3.129-16.122-10.889-15.77-5.106.231-10.613-3.036-15.107-.926-13.136 6.168-13.278 3.022-28.071 3.212-13.389.172-30.254 8.304-52.192 2.61-9.552-2.478-20.91-1.162-31.527-5.068-4.919-1.81-9.39.61-15.28-2.477-5.89-3.086-9.866-5.15-13.515-7.164-4.03-2.224-6.804 1.369-11.697.03-4.893-1.34-1.539-2.336-7.237-4.367-5.699-2.032-11.37 6.29-11.726 11.012z" style="text-indent:0;text-align:start;line-height:normal;text-transform:none;block-progression:tb;marker:none;-inkscape-font-specification:Sans" transform="matrix(2.40967 0 0 1.7966 194.566 2325.624)" font-weight="400" color="#000" fill="url(#bd)" stroke="#570000" overflow="visible" filter="url(#Q)" enable-background="accumulate" font-family="Sans"/><path style="text-indent:0;text-align:start;line-height:normal;text-transform:none;block-progression:tb;marker:none;-inkscape-font-specification:Sans" d="M217.41 585.184c14.053 24.772 19.704 23.87 43.48 27.615 14.069 3.386 27.296 12.803 42.351 10.205 16.71-2.387 31.825-10.405 47.517-16.14 11.794-4.721 23.713-9.448 36.273-11.694 2.359 1.02 8.817-.063 2.963-1.195-22.24 1.794-34.12 4.265-50.63 13.654-9.608 4.863-23.76 8.573-34.691 9.125-7.525 2.373-15.825-1.932-23.033-3.148-11.116-3.054-20.344-6.374-31.48-9.289-7.541.762-15.736-2.872-19.074-10.44-9.607-4.423-8.523-8.911-13.676-8.693z" transform="matrix(2.40967 0 0 1.4733 194.135 2518.7)" font-weight="400" opacity=".211" color="#000" fill="#fff" overflow="visible" filter="url(#R)" enable-background="accumulate" font-family="Sans"/><path style="text-indent:0;text-align:start;line-height:normal;text-transform:none;block-progression:tb;marker:none;-inkscape-font-specification:Sans" d="M294.983 620.183c-11.065-3.658-20.82-6.849-20.82-6.849s8.044 3.819 10.624 4.888c3.402 1.41 8.256 2.955 18.906 5.062h.156c12.284-1.51 25.678-9.682 25.678-9.682s-23.479 10.24-34.544 6.581z" transform="matrix(2.40967 0 0 1.41412 194.135 2553.776)" font-weight="400" color="#000" fill="url(#be)" overflow="visible" filter="url(#T)" enable-background="accumulate" font-family="Sans"/><path d="M382.722 594.384s-7.778 6.061-16.984 6.061c-9.205 0-15.72 4.798-15.72 4.798s6.136-6.502 15.342-6.502c9.205 0 17.362-4.357 17.362-4.357z" transform="matrix(2.40967 0 0 1.7966 194.566 2325.624)" opacity=".664" fill="url(#bf)" filter="url(#V)"/><path d="M260.998 605.243s-7.778 6.061-16.983 6.061c-9.205 0-15.72 4.799-15.72 4.799s6.136-6.503 15.341-6.503c9.205 0 17.362-4.357 17.362-4.357z" transform="matrix(-2.8234 0 0 2.10507 1474.388 2127.289)" opacity=".638" fill="url(#bg)" filter="url(#V)"/><path style="text-indent:0;text-align:start;line-height:normal;text-transform:none;block-progression:tb;marker:none;-inkscape-font-specification:Sans" d="M336.344 602.741c-15.692 5.735-14.362 11.069-31.071 13.456-15.055 2.598-28.306-6.833-42.375-10.22-23.775-3.744-24.996 4.598-39.05-20.174 1.192-.05 2.553-2.105 4.706-.271 2.152 1.833-.732-.898 4.563 1.54 3.337 7.568 16.318 7.916 23.86 7.154 11.136 2.915 21.112-1.854 32.227 1.2 7.208 1.216 19.042 9.065 26.566 6.692 10.932-.552 15.261.03 24.87-4.832 11.995-1.509 5.756-.494 10.28-1.104 4.018.654-2.782 1.838-14.576 6.56z" transform="matrix(2.40967 0 0 1.18772 208.335 2694.353)" font-weight="400" color="#000" fill="url(#bh)" overflow="visible" filter="url(#Y)" enable-background="accumulate" font-family="Sans"/><path style="text-indent:0;text-align:start;line-height:normal;text-transform:none;block-progression:tb;marker:none;-inkscape-font-specification:Sans" d="M227.042 436.503c.05.028.537-.197 1.062.094 27.932 15.46 96.554 15.313 134.018 10.787 37.463-4.526 37.012-7.796 30.222-7.572-5.107.169-10.6-2.193-15.094-.656-13.136 4.493-13.336 1.31-28.094 2.344-14.528 1.017-38.923 12.81-52.187 1.875-7.5-6.183-20.914-.843-31.532-3.688-4.918-1.317-9.376.467-12.75.657-1.686.095-3.077.143-4.062.093-.492-.024-.868-.06-1.125-.125s-.344-.173-.313-.125c-2.905-4.53-6.882-6.033-10.53-7.5-4.03-1.62-7.877-1.056-10.938-.125-1.656.504-2.724.113-3.438-.156-.713-.268-1.21-.741-1.906-1.406-1.381-1.32-3.473-3.296-8.252-4.414-.03-.018 14.919 9.917 14.919 9.917z" transform="matrix(2.40967 0 0 1.05722 190.263 2932.07)" font-weight="400" opacity=".362" color="#000" fill="red" overflow="visible" filter="url(#Z)" enable-background="accumulate" font-family="Sans"/><path d="M926.823 3416.33c.942 5.941 4.733 9.392-5.437 9.142-13.23-.324-10.236-1.858-5.437-9.143 3.16-4.797.456-7.555 3.46-7.555 1.284 0 4.296-.836 5.121.419 1.105 1.678 1.836 4.256 2.293 7.136z" fill="url(#bi)"/><path d="M308.98 438.865a5.935 6.313 0 0 1-5.934 6.314 5.935 6.313 0 0 1-5.935-6.314 5.935 6.313 0 0 1 5.935-6.313 5.935 6.313 0 0 1 5.934 6.313z" transform="matrix(3.07617 0 0 2.15592 -11.98 2457.545)" fill="url(#bj)" filter="url(#ac)"/><path d="M313.984 579.906c-1.036 9.868-4.65 18.096-5.801 24.177-.678 3.581.043-10.378-7.4-7.427-1.896.752-5.564 10.505-6.629 6.25-1.51-6.032.99-14.57 2.07-24.865 1.845-17.557 12.585-25.402 13.483-25.3.898.1 6.122 9.609 4.277 27.165z" transform="matrix(1.82148 0 0 1.7966 370.492 2325.624)" fill="#fffdf3" filter="url(#ad)"/><path d="M312.819 564.623c-.871 8.292-3.908 15.206-4.875 20.316-.57 3.01.036-8.72-6.218-6.24-1.594.63-2.236 9.464-3.13 5.888-1.269-5.07-1.61-12.88-.7-21.532 1.55-14.753 6.146-26.362 10.267-25.93 4.121.434 6.206 12.745 4.656 27.498z" transform="matrix(2.74689 0 0 2.04802 90.985 2205.821)" fill="#ebbf93" filter="url(#ae)"/><path d="M306.133 598.435c-4.015-8.026-8.403 3.018-11.042 5.48 2.187-.718 4.7-3.203 7.318-2.951 2.222.213 3.6 2.88 5.62 3.64-.713-1.887-.706-4.123-1.896-6.169z" transform="matrix(2.40967 0 0 1.7966 194.566 2320.624)" fill="#f9ab60" filter="url(#af)"/></g></svg>