<svg xmlns="http://www.w3.org/2000/svg" xmlns:xlink="http://www.w3.org/1999/xlink" width="290.571" height="128.571"><defs><linearGradient id="b"><stop offset="0" stop-color="#444"/><stop offset=".5" stop-color="#343434"/><stop offset="1" stop-color="#eee"/></linearGradient><filter color-interpolation-filters="sRGB" id="v"><feGaussianBlur stdDeviation=".208"/></filter><linearGradient id="c"><stop offset="0" stop-color="#c6c6c6"/><stop offset=".5" stop-color="#d6d6d6"/><stop offset="1" stop-color="#eee"/></linearGradient><filter color-interpolation-filters="sRGB" id="m"><feGaussianBlur stdDeviation=".208"/></filter><filter color-interpolation-filters="sRGB" id="d"><feGaussianBlur stdDeviation=".208"/></filter><linearGradient id="a"><stop offset="0" stop-color="#575757"/><stop offset=".5" stop-color="#848484"/><stop offset="1" stop-color="#eee"/></linearGradient><radialGradient xlink:href="#a" id="e" gradientUnits="userSpaceOnUse" gradientTransform="matrix(0 1.22851 -1.22851 -.70928 148.63 171.315)" cx="90.656" cy="102.473" fx="90.656" fy="102.473" r="4.98"/><linearGradient xlink:href="#a" id="f" gradientUnits="userSpaceOnUse" gradientTransform="matrix(.61177 .3532 0 -5.53079 -33.83 -324.033)" x1="92.513" y1="-85.677" x2="102.473" y2="-85.677"/><linearGradient xlink:href="#a" id="g" gradientUnits="userSpaceOnUse" gradientTransform="matrix(0 -.61177 -5.53079 -3.1932 -478.64 -71.829)" x1="92.513" y1="-85.677" x2="102.473" y2="-85.677"/><radialGradient xlink:href="#a" id="h" gradientUnits="userSpaceOnUse" gradientTransform="matrix(1.23469 0 0 1.4257 -259.882 -172.337)" cx="90.656" cy="102.473" fx="90.656" fy="102.473" r="4.98"/><linearGradient xlink:href="#a" id="i" gradientUnits="userSpaceOnUse" gradientTransform="matrix(0 .61177 -5.53079 -3.1932 -478.659 -136.059)" x1="92.513" y1="-85.677" x2="102.473" y2="-85.677"/><radialGradient xlink:href="#a" id="j" gradientUnits="userSpaceOnUse" gradientTransform="matrix(0 -1.22851 1.22851 .70928 -152.11 171.41)" cx="90.656" cy="102.473" fx="90.656" fy="102.473" r="4.98"/><linearGradient xlink:href="#a" id="k" gradientUnits="userSpaceOnUse" gradientTransform="matrix(-.61177 -.3532 0 5.53079 30.359 666.759)" x1="92.513" y1="-85.677" x2="102.473" y2="-85.677"/><radialGradient xlink:href="#a" id="l" gradientUnits="userSpaceOnUse" gradientTransform="matrix(0 1.22851 1.22851 .70928 -152.11 -2.392)" cx="90.656" cy="102.473" fx="90.656" fy="102.473" r="4.98"/><linearGradient xlink:href="#b" id="n" gradientUnits="userSpaceOnUse" gradientTransform="matrix(0 .61177 -5.53079 3.1932 -417.454 414.642)" x1="92.513" y1="-85.677" x2="102.473" y2="-85.677"/><linearGradient xlink:href="#b" id="o" gradientUnits="userSpaceOnUse" gradientTransform="matrix(-.61177 .3532 0 5.53079 91.566 629.779)" x1="92.513" y1="-85.677" x2="102.473" y2="-85.677"/><linearGradient xlink:href="#b" id="p" gradientUnits="userSpaceOnUse" gradientTransform="matrix(0 -.61177 -5.53079 3.1932 -417.474 478.872)" x1="92.513" y1="-85.677" x2="102.473" y2="-85.677"/><radialGradient xlink:href="#b" id="q" gradientUnits="userSpaceOnUse" gradientTransform="matrix(1.22851 0 0 1.41856 -292.635 -104.966)" cx="90.656" cy="102.473" fx="90.656" fy="102.473" r="4.98"/><radialGradient xlink:href="#b" id="r" gradientUnits="userSpaceOnUse" gradientTransform="matrix(0 -1.22851 -1.22851 .70928 209.816 171.498)" cx="90.656" cy="102.473" fx="90.656" fy="102.473" r="4.98"/><linearGradient xlink:href="#b" id="s" gradientUnits="userSpaceOnUse" gradientTransform="matrix(.61177 -.3532 0 5.53079 27.347 666.846)" x1="92.513" y1="-85.677" x2="102.473" y2="-85.677"/><radialGradient xlink:href="#b" id="t" gradientUnits="userSpaceOnUse" gradientTransform="matrix(0 1.22851 -1.22851 .70928 209.816 -2.305)" cx="90.656" cy="102.473" fx="90.656" fy="102.473" r="4.98"/><radialGradient xlink:href="#b" id="u" gradientUnits="userSpaceOnUse" gradientTransform="matrix(0 1.22851 1.22851 -.70928 -90.903 171.315)" cx="90.656" cy="102.473" fx="90.656" fy="102.473" r="4.98"/><linearGradient xlink:href="#c" id="w" gradientUnits="userSpaceOnUse" gradientTransform="matrix(.61185 .35425 -5.53151 3.20265 -480.247 380.735)" x1="92.513" y1="-85.677" x2="102.473" y2="-85.677"/><radialGradient xlink:href="#c" id="x" gradientUnits="userSpaceOnUse" gradientTransform="scale(-1.7376 1.00605) rotate(-45 27.095 227.84)" cx="90.656" cy="102.473" fx="90.656" fy="102.473" r="4.98"/><radialGradient xlink:href="#c" id="y" gradientUnits="userSpaceOnUse" gradientTransform="matrix(1.22867 .71138 -1.22867 .71138 92.326 -14.231)" cx="90.656" cy="102.473" fx="90.656" fy="102.473" r="4.98"/><linearGradient xlink:href="#c" id="z" gradientUnits="userSpaceOnUse" gradientTransform="matrix(.61185 -.35425 -5.53151 -3.20265 -480.214 -134.41)" x1="92.513" y1="-85.677" x2="102.473" y2="-85.677"/><linearGradient xlink:href="#c" id="A" gradientUnits="userSpaceOnUse" gradientTransform="matrix(-.61185 -.35425 -5.53151 3.20265 -416 417.91)" x1="92.513" y1="-85.677" x2="102.473" y2="-85.677"/><linearGradient xlink:href="#c" id="B" gradientUnits="userSpaceOnUse" gradientTransform="matrix(-.61185 .35425 -5.53151 -3.20265 -416 -171.596)" x1="92.513" y1="-85.677" x2="102.473" y2="-85.677"/><radialGradient xlink:href="#c" id="C" gradientUnits="userSpaceOnUse" gradientTransform="matrix(1.41975 0 0 1.41975 39.142 -279.99)" cx="90.656" cy="102.473" fx="90.656" fy="102.473" r="4.98"/><radialGradient xlink:href="#c" id="D" gradientUnits="userSpaceOnUse" gradientTransform="matrix(-1.22867 .71138 1.22867 .71138 -34.57 -14.24)" cx="90.656" cy="102.473" fx="90.656" fy="102.473" r="4.98"/><radialGradient xlink:href="#b" id="E" gradientUnits="userSpaceOnUse" gradientTransform="matrix(.188 -.96959 .6636 .65677 171.519 762.458)" spreadMethod="reflect" cx="282.717" cy="241.781" fx="282.717" fy="241.781" r="156.488"/><linearGradient xlink:href="#a" id="J" gradientUnits="userSpaceOnUse" gradientTransform="matrix(1.61607 -.93066 0 2.14927 -302.56 -459.175)" spreadMethod="reflect" x1="364.734" y1="638.696" x2="364.734" y2="643.861"/><linearGradient xlink:href="#c" id="K" gradientUnits="userSpaceOnUse" gradientTransform="matrix(1.61607 -.93066 0 2.14927 -302.56 -459.175)" spreadMethod="reflect" x1="350.541" y1="629.466" x2="350.541" y2="632.849"/><linearGradient xlink:href="#a" id="H" gradientUnits="userSpaceOnUse" gradientTransform="matrix(1.61607 -.93066 0 2.14927 -302.56 -459.175)" spreadMethod="reflect" x1="364.734" y1="638.696" x2="364.734" y2="643.861"/><linearGradient xlink:href="#c" id="I" gradientUnits="userSpaceOnUse" gradientTransform="matrix(1.61607 -.93066 0 2.14927 -302.56 -459.175)" spreadMethod="reflect" x1="350.541" y1="629.466" x2="350.541" y2="632.849"/><linearGradient xlink:href="#a" id="F" gradientUnits="userSpaceOnUse" gradientTransform="matrix(1.61607 -.93066 0 2.14927 -302.56 -459.175)" spreadMethod="reflect" x1="364.734" y1="638.696" x2="364.734" y2="643.861"/><linearGradient xlink:href="#c" id="G" gradientUnits="userSpaceOnUse" gradientTransform="matrix(1.61607 -.93066 0 2.14927 -302.56 -459.175)" spreadMethod="reflect" x1="350.541" y1="629.466" x2="350.541" y2="632.849"/></defs><path d="M144.455 2.482c-19.673 2.962-36.946 9-55.965 12.93-25.855 6.257-51.902 12.56-77.638 18.798a52916.903 52916.903 0 0 0 134.485 32.588c44.705-10.896 90.053-21.683 134.486-32.588-44.038-10.421-87.539-21.616-131.912-31.636-1.142-.038-2.312-.195-3.456-.092z" style="marker:none" color="#000" fill="#c9c9c9" overflow="visible" enable-background="accumulate"/><path d="M277.176 39.431c-42.373 10.221-84.788 20.412-127.133 30.653.051 18.52-.101 37.125.074 55.593 43.025-10.642 88.48-20.898 131.25-31.943 8.1-4.514.583-10.91 3.162-16.186-.059-13.297.11-26.61-.074-39.898l-7.28 1.781z" style="marker:none" color="#000" fill="#434343" overflow="visible" enable-background="accumulate"/><path d="M5.999 38.11c.126 16.11-.087 33.021 0 49.574 10.139 3.801-2.669 1.303.882 4.515 8.911 5.139 26.084 6.542 37.904 10.384 32 7.736 64.543 15.573 95.847 23.094V70.084C96.19 59.364 50.579 48.466 6.146 37.588l-.147.522z" style="marker:none" color="#000" fill="#535353" overflow="visible" enable-background="accumulate"/><g transform="matrix(2.35294 0 0 .98286 77.397 -86.809)" filter="url(#d)" color="#000"><path style="marker:none" d="M22.738 210.003l6.146 3.512v5.121c-.967 0-1.888-.241-2.732-.585l-.39-.195c-.422-.204-.841-.416-1.22-.683l-1.804-1.073V210.003z" fill="url(#e)" overflow="visible" enable-background="accumulate"/><path d="M28.868 164.587l-6.099-3.521v48.98l6.099 3.521v-48.98z" style="marker:none" fill="url(#f)" overflow="visible" enable-background="accumulate"/><path style="marker:none" d="M-26.22 126.679v6.098l48.981 28.279v-6.099l-48.98-28.278z" fill="url(#g)" overflow="visible" enable-background="accumulate"/><path transform="matrix(0 -1 -.86603 -.5 0 0)" style="marker:none" fill="url(#h)" overflow="visible" enable-background="accumulate" d="M-147.949-33.342h6.149v7.1h-6.149z"/><path d="M-26.238 187.845v-6.099l48.98 28.279v6.099l-48.98-28.28z" style="marker:none" fill="url(#i)" overflow="visible" enable-background="accumulate"/><path d="M-32.324 129.193l.34.198 5.75 3.325.028-6.098-5.162-2.99c-.147.255-.365.456-.48.729-.328.773-.465 1.66-.504 2.543l.016.611.014 1.682z" style="marker:none" fill="url(#j)" overflow="visible" enable-background="accumulate"/><path d="M-32.34 178.14l6.099 3.52v-48.98l-6.099-3.52v48.98z" style="marker:none" fill="url(#k)" overflow="visible" enable-background="accumulate"/><path d="M-26.2 187.8V181.655l-5.9-3.366-.05-.049-.195-.097v1.17a6.883 6.883 0 0 0 0 1.659c.116.933.427 1.865.927 2.731.262.454.588.838.927 1.22.319.369.649.691 1.024.975a7.15 7.15 0 0 0 1.414.83l1.854 1.072z" style="marker:none" fill="url(#l)" overflow="visible" enable-background="accumulate"/></g><g transform="matrix(2.35294 0 0 .98286 77.397 -86.809)" filter="url(#m)" color="#000"><path d="M34.966 216.135v-6.099l48.98-28.279v6.099l-48.98 28.279z" style="marker:none" fill="url(#n)" overflow="visible" enable-background="accumulate"/><path d="M28.868 213.557l6.098-3.521v-48.98l-6.098 3.52v48.981z" style="marker:none" fill="url(#o)" overflow="visible" enable-background="accumulate"/><path style="marker:none" d="M34.947 154.968v6.099l48.98-28.279v-6.098l-48.98 28.278z" fill="url(#p)" overflow="visible" enable-background="accumulate"/><path style="marker:none" transform="matrix(0 -1 .86603 -.5 0 0)" fill="url(#q)" overflow="visible" enable-background="accumulate" d="M-181.263 33.334h6.118v7.064h-6.118z"/><path style="marker:none" d="M90.029 129.28l-.34.198-5.75 3.325-.027-6.098 5.162-2.99c.146.255.365.456.48.729.328.773.465 1.66.503 2.543l-.015.61-.014 1.683z" fill="url(#r)" overflow="visible" enable-background="accumulate"/><path style="marker:none" d="M90.045 178.226l-6.099 3.521v-48.98l6.1-3.521v48.98z" fill="url(#s)" overflow="visible" enable-background="accumulate"/><path style="marker:none" d="M83.905 187.887v-6.146l5.901-3.365.05-.049.194-.097v1.17c.064.55.07 1.092 0 1.659a7.263 7.263 0 0 1-.926 2.73c-.262.455-.588.839-.927 1.22-.32.37-.649.692-1.024.976a7.15 7.15 0 0 1-1.415.829l-1.853 1.073z" fill="url(#t)" overflow="visible" enable-background="accumulate"/><path style="marker:none" d="M34.98 210.003V216.1l-1.755 1.025c-.445.32-.919.604-1.415.829l-.195.098c-.854.355-1.748.585-2.73.585v-5.121l6.096-3.511z" fill="url(#u)" overflow="visible" enable-background="accumulate"/></g><g transform="matrix(2.35294 0 0 .98286 77.397 -86.809)" filter="url(#v)" color="#000"><path style="marker:none" d="M34.94 155.062l-6.1-3.531 48.987-28.362 6.1 3.531-48.987 28.362z" fill="url(#w)" overflow="visible" enable-background="accumulate"/><path style="marker:none" d="M28.839 94.826l-5.61-3.268-.487-.293 2.39-1.365.244-.147c.825-.453 1.701-.768 2.585-.877a7.309 7.309 0 0 1 2.78.195c.895.24 1.737.652 2.487 1.219l1.756.975-.585.342-5.56 3.219z" fill="url(#x)" overflow="visible" enable-background="accumulate"/><path style="marker:none" d="M89.074 123.716l-5.162 2.99-6.125-3.537 5.386-3.086.77-.455 1.606.926.718.415c.62.335 1.249.68 1.743 1.175.449.45.745 1.018 1.064 1.572z" fill="url(#y)" overflow="visible" enable-background="accumulate"/><path style="marker:none" d="M34.973 91.262l-6.1 3.532 48.987 28.363 6.1-3.532-48.987-28.363z" fill="url(#z)" overflow="visible" enable-background="accumulate"/><path d="M-26.226 119.626l6.1 3.531L28.86 94.795l-6.1-3.531-48.986 28.362z" style="marker:none" fill="url(#A)" overflow="visible" enable-background="accumulate"/><path d="M-26.226 126.689l6.099-3.532 48.986 28.362-6.1 3.531-48.986-28.362z" style="marker:none" fill="url(#B)" overflow="visible" enable-background="accumulate"/><path style="marker:none" transform="scale(1.22388 -.7086) rotate(-45)" fill="url(#C)" overflow="visible" enable-background="accumulate" d="M167.851-141.574h7.07v7.07h-7.07z"/><path d="M-31.317 123.707l5.162 2.99 6.124-3.537-5.385-3.085-.771-.456-1.605.926-.718.415c-.62.335-1.25.681-1.743 1.175-.45.45-.745 1.018-1.064 1.572z" style="marker:none" fill="url(#D)" overflow="visible" enable-background="accumulate"/></g><path d="M283.422 467.48c-.25.007-.493.003-.74.032-.94.11-1.877.422-2.754.875l-.26.156-2.532 1.375-51.964 28.344-1.689.937-.766.407c-.658.335-1.332.662-1.857 1.156-.463.436-.776.993-1.104 1.531l-.078-.031c-.156.254-.384.446-.507.719-.347.773-.491 1.68-.532 2.562l.013.594.013 1.656h-.013v48.969h-.013v1.187a6.466 6.466 0 0 0 0 1.657c.123.933.456 1.852.987 2.718.278.454.627.838.987 1.22.339.369.692.684 1.09.968.474.336.962.62 1.494.844l1.936 1.03v.095l52.003 28.25 1.909 1.062c.4.267.85.484 1.299.688l.415.187c.896.344 1.87.594 2.896.594 1.044 0 1.989-.24 2.897-.594l.207-.094a9.065 9.065 0 0 0 1.507-.843l1.844-1v.03l52.016-28.28 1.922-1.032a7.715 7.715 0 0 0 1.494-.843c.399-.284.752-.6 1.091-.97.36-.38.709-.764.987-1.218.53-.866.864-1.785.987-2.719a6.466 6.466 0 0 0 0-1.656v-1.187h-.013v-48.97h-.013l.013-1.655.013-.594c-.04-.883-.185-1.79-.532-2.563-.123-.273-.351-.464-.507-.718-.339-.554-.653-1.114-1.13-1.563-.525-.494-1.199-.852-1.857-1.187l-.753-.407-1.689-.937-52.003-28.344-1.87-.969a7.848 7.848 0 0 0-2.636-1.218 8.262 8.262 0 0 0-2.208-.25zm-58.263 37.813l.026.031h-.026v-.03z" style="marker:none" opacity=".572" color="#000" fill="url(#E)" overflow="visible" enable-background="accumulate" transform="matrix(2.21602 0 0 .98304 -483.227 -459.05)"/><g fill="#333" stroke="#333" font-size="22.088" font-weight="700" letter-spacing="0" word-spacing="0" stroke-width=".854" stroke-linecap="round" stroke-linejoin="round" font-family="Sans"><path style="line-height:125%;-inkscape-font-specification:Sans Bold" d="M230.605 536.297c.51.294.898.368 1.161.222.264-.147.396-.511.396-1.093 0-.575-.132-1.087-.396-1.537-.263-.458-.65-.834-1.16-1.128l-1.793-1.032v3.536l1.792 1.032m.11 7.37c.65.375 1.138.474 1.464.296.33-.175.496-.632.496-1.37 0-.724-.163-1.359-.488-1.904-.325-.553-.816-1.019-1.472-1.397l-1.902-1.095v4.376l1.902 1.095m3.012-4.275a6.896 6.896 0 0 1 1.615 2.419c.382.943.572 1.94.572 2.993 0 1.611-.409 2.576-1.228 2.895-.819.32-2.064-.003-3.736-.965l-5.376-3.096v-16.707l4.863 2.8c1.744 1.005 3.007 2.083 3.786 3.233.786 1.153 1.178 2.502 1.178 4.047 0 .813-.143 1.424-.429 1.834-.286.402-.701.585-1.245.547M238.565 533.708l3.012 1.735v17.412l-3.012-1.735v-17.412M248.712 551.324c-.628-.362-1.102-.493-1.422-.393-.314.102-.47.43-.47.982 0 .507.125.979.378 1.415a2.91 2.91 0 0 0 1.068 1.04c.567.327 1.044.333 1.43.019.388-.322.581-.89.581-1.703v-.458l-1.565-.902m4.603 1.14v7.15l-3.038-1.749v-1.857c-.404.528-.858.822-1.363.882-.505.053-1.119-.13-1.842-.546-.976-.562-1.77-1.396-2.382-2.502-.605-1.11-.908-2.269-.908-3.477 0-1.47.378-2.33 1.136-2.58.762-.247 1.957.098 3.584 1.035l1.775 1.022v-.313c0-.634-.188-1.205-.563-1.713-.376-.514-.962-1.001-1.759-1.46-.645-.371-1.245-.631-1.8-.78-.556-.148-1.072-.188-1.549-.119v-3.055c.645.163 1.293.38 1.944.65.65.262 1.301.581 1.952.956 1.7.979 2.925 2.132 3.677 3.46.757 1.324 1.136 2.99 1.136 4.996M263.748 553.482v3.267a10.501 10.501 0 0 0-1.237-1.54 6.048 6.048 0 0 0-1.278-1.005c-.842-.485-1.498-.534-1.97-.15-.465.382-.698 1.158-.698 2.329 0 1.171.233 2.22.699 3.144.47.92 1.127 1.623 1.969 2.107.47.271.917.435 1.337.49.427.06.82.01 1.178-.149v3.279a5.922 5.922 0 0 1-1.438-.314 7.798 7.798 0 0 1-1.456-.66 10.505 10.505 0 0 1-3.988-4.03c-.96-1.717-1.44-3.608-1.44-5.674 0-2.067.48-3.402 1.44-4.006.959-.611 2.288-.428 3.988.551.494.284.979.623 1.456 1.017.482.39.962.838 1.438 1.344M266.365 549.718l3.012 1.735v9.478l3.467-2.603 3.5 2.016-4.602 3.101 4.964 9.64-3.652-2.103-3.677-7.343v5.226l-3.012-1.735v-17.412" transform="matrix(2.21602 0 0 .98304 -478.707 -459.05)"/></g><g font-size="22.088" font-weight="700" letter-spacing="0" word-spacing="0" stroke-width=".854" stroke-linecap="round" stroke-linejoin="round" font-family="Sans" stroke="#666"><path style="line-height:125%;-inkscape-font-specification:Sans Bold" d="M230.605 536.297c.51.294.898.368 1.161.222.264-.147.396-.511.396-1.093 0-.575-.132-1.087-.396-1.537-.263-.458-.65-.834-1.16-1.128l-1.793-1.032v3.536l1.792 1.032m.11 7.37c.65.375 1.138.474 1.464.296.33-.175.496-.632.496-1.37 0-.724-.163-1.359-.488-1.904-.325-.553-.816-1.019-1.472-1.397l-1.902-1.095v4.376l1.902 1.095m3.012-4.275a6.896 6.896 0 0 1 1.615 2.419c.382.943.572 1.94.572 2.993 0 1.611-.409 2.576-1.228 2.895-.819.32-2.064-.003-3.736-.965l-5.376-3.096v-16.707l4.863 2.8c1.744 1.005 3.007 2.083 3.786 3.233.786 1.153 1.178 2.502 1.178 4.047 0 .813-.143 1.424-.429 1.834-.286.402-.701.585-1.245.547M238.565 533.708l3.012 1.735v17.412l-3.012-1.735v-17.412M248.712 551.324c-.628-.362-1.102-.493-1.422-.393-.314.102-.47.43-.47.982 0 .507.125.979.378 1.415a2.91 2.91 0 0 0 1.068 1.04c.567.327 1.044.333 1.43.019.388-.322.581-.89.581-1.703v-.458l-1.565-.902m4.603 1.14v7.15l-3.038-1.749v-1.857c-.404.528-.858.822-1.363.882-.505.053-1.119-.13-1.842-.546-.976-.562-1.77-1.396-2.382-2.502-.605-1.11-.908-2.269-.908-3.477 0-1.47.378-2.33 1.136-2.58.762-.247 1.957.098 3.584 1.035l1.775 1.022v-.313c0-.634-.188-1.205-.563-1.713-.376-.514-.962-1.001-1.759-1.46-.645-.371-1.245-.631-1.8-.78-.556-.148-1.072-.188-1.549-.119v-3.055c.645.163 1.293.38 1.944.65.65.262 1.301.581 1.952.956 1.7.979 2.925 2.132 3.677 3.46.757 1.324 1.136 2.99 1.136 4.996M263.748 553.482v3.267a10.501 10.501 0 0 0-1.237-1.54 6.048 6.048 0 0 0-1.278-1.005c-.842-.485-1.498-.534-1.97-.15-.465.382-.698 1.158-.698 2.329 0 1.171.233 2.22.699 3.144.47.92 1.127 1.623 1.969 2.107.47.271.917.435 1.337.49.427.06.82.01 1.178-.149v3.279a5.922 5.922 0 0 1-1.438-.314 7.798 7.798 0 0 1-1.456-.66 10.505 10.505 0 0 1-3.988-4.03c-.96-1.717-1.44-3.608-1.44-5.674 0-2.067.48-3.402 1.44-4.006.959-.611 2.288-.428 3.988.551.494.284.979.623 1.456 1.017.482.39.962.838 1.438 1.344M266.365 549.718l3.012 1.735v9.478l3.467-2.603 3.5 2.016-4.602 3.101 4.964 9.64-3.652-2.103-3.677-7.343v5.226l-3.012-1.735v-17.412" transform="matrix(2.21602 0 0 .98304 -483.227 -459.05)"/></g><g stroke="#000" font-size="22.088" font-weight="700" letter-spacing="0" word-spacing="0" stroke-width=".949" stroke-linecap="round" stroke-linejoin="round" font-family="Sans"><path style="line-height:125%;-inkscape-font-specification:Sans Bold" d="M302.821 560.843c.717-.413 1.263-1.076 1.637-1.988.38-.915.57-2.036.57-3.363s-.19-2.229-.57-2.706c-.374-.481-.92-.515-1.637-.103-.717.413-1.269 1.084-1.655 2.011-.38.916-.57 2.033-.57 3.35 0 1.32.19 2.221.57 2.707.386.474.938.505 1.655.092m-2.226-7.736c.462-1.078.973-1.97 1.534-2.674a6.741 6.741 0 0 1 1.936-1.7c1.29-.743 2.35-.67 3.18.221.829.883 1.244 2.398 1.244 4.545 0 2.148-.415 4.145-1.244 5.99-.83 1.838-1.89 3.128-3.18 3.871-.73.42-1.375.601-1.936.543-.561-.067-1.072-.373-1.534-.92v2.015l-3.348 1.928v-19.354l3.348-1.928v7.463M315.961 545.067c-.742.427-1.31 1.11-1.702 2.05-.387.927-.58 2.058-.58 3.393s.193 2.248.58 2.738c.393.48.96.505 1.702.077.73-.42 1.288-1.093 1.674-2.02.387-.937.58-2.072.58-3.407s-.193-2.243-.58-2.726c-.386-.49-.944-.525-1.674-.105m0-3.184c1.802-1.038 3.208-1.2 4.218-.489 1.016.708 1.524 2.207 1.524 4.495 0 2.289-.508 4.373-1.524 6.251-1.01 1.876-2.416 3.332-4.218 4.37-1.808 1.04-3.223 1.21-4.246.504-1.016-.708-1.524-2.206-1.524-4.495 0-2.288.508-4.372 1.524-6.25 1.023-1.883 2.438-3.345 4.246-4.386M326.79 542.785l-3.777-4.627 3.544-2.042 2.142 2.896 2.17-5.378 3.544-2.042-3.778 8.955 3.965 4.868-3.544 2.041-2.357-3.046-2.329 5.745-3.544 2.04 3.965-9.41" transform="matrix(2.99084 0 0 1.32676 -731.76 -647.071)"/></g><g font-size="22.088" font-weight="700" letter-spacing="0" word-spacing="0" stroke-width=".949" stroke-linecap="round" stroke-linejoin="round" font-family="Sans"><path d="M302.821 560.843c.717-.413 1.263-1.076 1.637-1.988.38-.915.57-2.036.57-3.363s-.19-2.229-.57-2.706c-.374-.481-.92-.515-1.637-.103-.717.413-1.269 1.084-1.655 2.011-.38.916-.57 2.033-.57 3.35 0 1.32.19 2.221.57 2.707.386.474.938.505 1.655.092m-2.226-7.736c.462-1.078.973-1.97 1.534-2.674a6.741 6.741 0 0 1 1.936-1.7c1.29-.743 2.35-.67 3.18.221.829.883 1.244 2.398 1.244 4.545 0 2.148-.415 4.145-1.244 5.99-.83 1.838-1.89 3.128-3.18 3.871-.73.42-1.375.601-1.936.543-.561-.067-1.072-.373-1.534-.92v2.015l-3.348 1.928v-19.354l3.348-1.928v7.463" style="line-height:125%;-inkscape-font-specification:Sans Bold" fill="url(#F)" stroke="url(#G)" transform="matrix(2.99084 0 0 1.32676 -727.24 -647.071)"/><path d="M315.961 545.067c-.742.427-1.31 1.11-1.702 2.05-.387.927-.58 2.058-.58 3.393s.193 2.248.58 2.738c.393.48.96.505 1.702.077.73-.42 1.288-1.093 1.674-2.02.387-.937.58-2.072.58-3.407s-.193-2.243-.58-2.726c-.386-.49-.944-.525-1.674-.105m0-3.184c1.802-1.038 3.208-1.2 4.218-.489 1.016.708 1.524 2.207 1.524 4.495 0 2.289-.508 4.373-1.524 6.251-1.01 1.876-2.416 3.332-4.218 4.37-1.808 1.04-3.223 1.21-4.246.504-1.016-.708-1.524-2.206-1.524-4.495 0-2.288.508-4.372 1.524-6.25 1.023-1.883 2.438-3.345 4.246-4.386" style="line-height:125%;-inkscape-font-specification:Sans Bold" fill="url(#H)" stroke="url(#I)" transform="matrix(2.99084 0 0 1.32676 -727.24 -647.071)"/><path d="M326.79 542.785l-3.777-4.627 3.544-2.042 2.142 2.896 2.17-5.378 3.544-2.042-3.778 8.955 3.965 4.868-3.544 2.041-2.357-3.046-2.329 5.745-3.544 2.04 3.965-9.41" style="line-height:125%;-inkscape-font-specification:Sans Bold" fill="url(#J)" stroke="url(#K)" transform="matrix(2.99084 0 0 1.32676 -727.24 -647.071)"/></g></svg>