<svg xmlns="http://www.w3.org/2000/svg" xmlns:xlink="http://www.w3.org/1999/xlink" height="752.039" width="606.062"><defs><linearGradient id="c"><stop offset="0" stop-color="#fff" stop-opacity=".732"/><stop offset="1" stop-color="#fff" stop-opacity="0"/></linearGradient><linearGradient id="a"><stop offset="0" stop-color="gray"/><stop offset=".5" stop-color="#fff"/><stop offset="1"/></linearGradient><linearGradient id="b"><stop offset="0" stop-color="#a8a8a8"/><stop offset=".5" stop-color="#fff"/><stop offset="1" stop-color="#b8b8b8"/></linearGradient><linearGradient xlink:href="#a" id="o" gradientUnits="userSpaceOnUse" gradientTransform="matrix(2.38492 0 0 2.38492 -200.97 -621.048)" spreadMethod="reflect" x1="96.905" y1="509.344" x2="126.095" y2="400.406"/><linearGradient xlink:href="#a" id="n" gradientUnits="userSpaceOnUse" gradientTransform="matrix(2.59097 0 0 2.59097 -223.945 -714.775)" x1="-156.573" y1="300.103" x2="379.573" y2="609.647"/><radialGradient xlink:href="#a" id="h" gradientUnits="userSpaceOnUse" gradientTransform="matrix(1.91785 0 0 1.8294 -148.892 -368.358)" spreadMethod="reflect" cx="111.5" cy="454.875" fx="111.5" fy="454.875" r="108.88"/><linearGradient xlink:href="#a" id="g" gradientUnits="userSpaceOnUse" gradientTransform="matrix(2.59097 0 0 2.35063 -223.945 -605.452)" spreadMethod="reflect" x1="71.556" y1="477.937" x2="151.444" y2="431.813"/><radialGradient xlink:href="#b" id="G" gradientUnits="userSpaceOnUse" gradientTransform="matrix(1 0 0 .0662 0 163.285)" cx="64.953" cy="174.859" fx="64.953" fy="174.859" r="171.141"/><radialGradient xlink:href="#b" id="F" gradientUnits="userSpaceOnUse" gradientTransform="matrix(1 0 0 .0662 0 153.947)" cx="64.953" cy="164.859" fx="64.953" fy="164.859" r="163.129"/><radialGradient xlink:href="#b" id="E" gradientUnits="userSpaceOnUse" gradientTransform="matrix(1 0 0 .0662 0 144.609)" cx="64.953" cy="154.859" fx="64.953" fy="154.859" r="155.117"/><radialGradient xlink:href="#b" id="D" gradientUnits="userSpaceOnUse" gradientTransform="matrix(1 0 0 .0662 0 135.27)" cx="64.953" cy="144.859" fx="64.953" fy="144.859" r="147.105"/><radialGradient xlink:href="#b" id="C" gradientUnits="userSpaceOnUse" gradientTransform="matrix(1 0 0 .0662 0 125.933)" cx="64.953" cy="134.859" fx="64.953" fy="134.859" r="139.093"/><radialGradient xlink:href="#b" id="B" gradientUnits="userSpaceOnUse" gradientTransform="matrix(1 0 0 .0662 0 116.595)" cx="64.953" cy="124.859" fx="64.953" fy="124.859" r="131.081"/><radialGradient xlink:href="#b" id="A" gradientUnits="userSpaceOnUse" gradientTransform="matrix(1 0 0 .0662 0 107.257)" cx="64.953" cy="114.859" fx="64.953" fy="114.859" r="123.069"/><radialGradient xlink:href="#b" id="z" gradientUnits="userSpaceOnUse" gradientTransform="matrix(1 0 0 .0662 0 97.919)" cx="64.953" cy="104.859" fx="64.953" fy="104.859" r="115.057"/><radialGradient xlink:href="#b" id="y" gradientUnits="userSpaceOnUse" gradientTransform="matrix(1 0 0 .0662 0 88.58)" cx="64.953" cy="94.859" fx="64.953" fy="94.859" r="107.045"/><radialGradient xlink:href="#b" id="x" gradientUnits="userSpaceOnUse" gradientTransform="matrix(1 0 0 .0662 0 702.903)" cx="64.953" cy="752.727" fx="64.953" fy="752.727" r="171.141"/><radialGradient xlink:href="#b" id="w" gradientUnits="userSpaceOnUse" gradientTransform="matrix(1 0 0 .0662 0 712.24)" cx="64.953" cy="762.727" fx="64.953" fy="762.727" r="163.129"/><radialGradient xlink:href="#b" id="v" gradientUnits="userSpaceOnUse" gradientTransform="matrix(1 0 0 .0662 0 721.579)" cx="64.953" cy="772.727" fx="64.953" fy="772.727" r="155.117"/><radialGradient xlink:href="#b" id="u" gradientUnits="userSpaceOnUse" gradientTransform="matrix(1 0 0 .0662 0 730.917)" cx="64.953" cy="782.727" fx="64.953" fy="782.727" r="147.105"/><radialGradient xlink:href="#b" id="t" gradientUnits="userSpaceOnUse" gradientTransform="matrix(1 0 0 .0662 0 740.255)" cx="64.953" cy="792.727" fx="64.953" fy="792.727" r="139.093"/><radialGradient xlink:href="#b" id="s" gradientUnits="userSpaceOnUse" gradientTransform="matrix(1 0 0 .0662 0 749.593)" cx="64.953" cy="802.727" fx="64.953" fy="802.727" r="131.081"/><radialGradient xlink:href="#b" id="r" gradientUnits="userSpaceOnUse" gradientTransform="matrix(1 0 0 .0662 0 758.931)" cx="64.953" cy="812.727" fx="64.953" fy="812.727" r="123.069"/><radialGradient xlink:href="#b" id="q" gradientUnits="userSpaceOnUse" gradientTransform="matrix(1 0 0 .0662 0 768.27)" cx="64.953" cy="822.727" fx="64.953" fy="822.727" r="115.057"/><radialGradient xlink:href="#b" id="p" gradientUnits="userSpaceOnUse" gradientTransform="matrix(1 0 0 .0662 0 777.607)" cx="64.953" cy="832.727" fx="64.953" fy="832.727" r="107.045"/><linearGradient xlink:href="#b" id="m" gradientUnits="userSpaceOnUse" x1="53" y1="461.362" x2="74" y2="461.362"/><linearGradient xlink:href="#b" id="l" gradientUnits="userSpaceOnUse" x1="-31.968" y1="463.063" x2="361.218" y2="463.063"/><linearGradient xlink:href="#b" id="k" gradientUnits="userSpaceOnUse" x1="54.016" y1="408.489" x2="84.394" y2="408.489"/><linearGradient xlink:href="#b" id="j" gradientUnits="userSpaceOnUse" x1="-132.233" y1="463.034" x2="260.696" y2="463.034"/><linearGradient xlink:href="#b" id="i" gradientUnits="userSpaceOnUse" x1="-144.639" y1="463.867" x2="275.017" y2="463.867"/><linearGradient xlink:href="#a" id="f" gradientUnits="userSpaceOnUse" gradientTransform="matrix(4.57649 0 0 1.91383 -698.449 -406.763)" spreadMethod="reflect" x1="232.717" y1="460.79" x2="232.717" y2="448.96"/><linearGradient xlink:href="#a" id="e" gradientUnits="userSpaceOnUse" gradientTransform="matrix(2.27296 0 0 1.91383 -154.098 -406.763)" spreadMethod="reflect" x1="227.539" y1="437.873" x2="227.539" y2="471.877"/><linearGradient xlink:href="#a" id="d" gradientUnits="userSpaceOnUse" gradientTransform="matrix(2.27296 0 0 1.91383 -154.098 -406.763)" spreadMethod="reflect" x1="227.321" y1="463.466" x2="227.321" y2="465.362"/><linearGradient xlink:href="#c" id="H" gradientUnits="userSpaceOnUse" gradientTransform="matrix(1.97119 0 0 1.97119 -48.55 -336.244)" x1="-49.12" y1="377.275" x2="164.277" y2="434.455"/></defs><g color="#000" transform="translate(223.031 -87.774)"><path d="M343.153 419.33v88.922H363.5c10.8 0 19.525-7.313 19.525-16.407v-56.108c0-9.095-8.724-16.407-19.525-16.407h-20.347z" style="marker:none" fill="url(#d)" overflow="visible"/><path style="marker:none" d="M343.153 419.33v88.922H363.5c10.8 0 19.525-7.313 19.525-16.407v-56.108c0-9.095-8.724-16.407-19.525-16.407h-20.347z" opacity=".67" fill="url(#e)" overflow="visible"/><path d="M366.19 419.354v88.874h.79c8.907 0 16.051-7.293 16.051-16.388v-56.099c0-9.094-7.144-16.387-16.051-16.387h-.79z" style="marker:none" fill="url(#f)" overflow="visible"/><path style="marker:none" d="M-106.784 170.373c-70.005 66.72-115.527 173.171-116.247 293.418.741 120.196 46.273 226.691 116.247 293.417 5.178-9.45 15.032-15.825 26.38-15.825H210.3c11.349 0 21.202 6.375 26.381 15.825 69.974-66.726 115.506-173.22 116.247-293.417-.72-120.247-46.242-226.698-116.247-293.418-5.179 9.45-15.032 15.825-26.38 15.825H-80.404c-11.35 0-21.203-6.375-26.381-15.825z" fill="url(#g)" overflow="visible"/><rect style="marker:none" width="555.975" height="530.336" x="-213.04" y="198.623" rx="159.92" ry="265.168" fill="url(#h)" overflow="visible"/><path d="M315.795 463.79c0 138.54-112.308 250.848-250.847 250.848-138.54 0-250.848-112.308-250.848-250.847 0-138.54 112.309-250.848 250.848-250.848 138.54 0 250.847 112.308 250.847 250.848z" style="marker:none" overflow="visible"/><path d="M63.313 252.75a9.232 9.232 0 0 0-9.22 9.156v.281l-.124 15.875a9.232 9.232 0 0 0 9.312 9.313c-.016 0 .136.002.438 0a9.232 9.232 0 0 0 9.187-9.438l-.344-15.875v-.28a9.232 9.232 0 0 0-9.25-9.032zm100.843 24.656a9.232 9.232 0 0 0-7.594 4.531l-8.875 15.25a9.232 9.232 0 0 0 3.47 12.688c.058.033.184.138.437.281a9.232 9.232 0 0 0 12.687-3.656l8.125-15.031.125-.219.125-.25a9.232 9.232 0 0 0-8.5-13.594zm-200.531.531a9.232 9.232 0 0 0-8.813 8.47 9.232 9.232 0 0 0 1.157 5.28 9.232 9.232 0 0 0 .062.125l.219.407 8.469 15a9.232 9.232 0 0 0 12.625 3.469c1.159-.665 1.217-.712.187-.125a9.232 9.232 0 0 0 3.407-12.657l-8.657-14.875-.218-.406a9.232 9.232 0 0 0-.063-.094 9.232 9.232 0 0 0-8.375-4.594zm-75.406 72.75a9.232 9.232 0 0 0-4.875 17.125l16.656 10a9.232 9.232 0 0 0 12.719-3.218c.217-.37.316-.529.281-.469a9.232 9.232 0 0 0-3.438-12.75l-16.28-9.156-.407-.25-.25-.125a9.232 9.232 0 0 0-4.406-1.156zm353.562 2.22a9.232 9.232 0 0 0-4.469 1.156l-.218.125-15.813 8.78a9.232 9.232 0 0 0-3.5 12.688c-.478-.824-.435-.676.188.406a9.232 9.232 0 0 0 12.687 3.344l15.594-9.187.219-.125a9.232 9.232 0 0 0-4.688-17.188zm8.75 98.906a9.232 9.232 0 0 0-9.219 9.312c0-.073-.002.021 0 .281a9.232 9.232 0 0 0 9.407 9.156l14.969-.28h.187a9.235 9.235 0 1 0-.188-18.47h-15.156zm-371.281 1.468l-14.938.094h-.156a9.232 9.232 0 0 0-.093 18.437h.187l14.906.22a9.232 9.232 0 0 0 9.375-9.188v-.25a9.232 9.232 0 0 0 0-.063 9.232 9.232 0 0 0-9.281-9.25zm347.875 91.625a9.232 9.232 0 0 0-8.063 4.75 9.232 9.232 0 0 0-.187.313c-.03.052.004-.033-.031.031a9.232 9.232 0 0 0 3.562 12.563l14.344 8.03.344.188.187.094a9.232 9.232 0 0 0 9.188-16l-.188-.094-14.125-8.343a9.232 9.232 0 0 0-.344-.22 9.232 9.232 0 0 0-4.687-1.312zm-323.438 1.719a9.232 9.232 0 0 0-4.656 1.25l-14.937 8.813-.469.25-.188.125a9.232 9.232 0 0 0 9.157 16l.187-.094.375-.219 15.25-8.5a9.232 9.232 0 0 0 3.563-12.531 9.232 9.232 0 0 0-.063-.125c-.246-.428-.304-.547-.187-.344h-.031a9.232 9.232 0 0 0-8-4.625zm67.25 68a9.232 9.232 0 0 0-8.03 4.625l-6.813 11.906-.094.157a9.232 9.232 0 0 0 15.938 9.312l.093-.125.407-.719 6.625-11.062a9.232 9.232 0 0 0-1.5-11.313 9.232 9.232 0 0 0-.688-.625 9.232 9.232 0 0 0-.469-.375 9.232 9.232 0 0 0-.062-.031 9.232 9.232 0 0 0-.532-.344c.816.481.765.42-.218-.156a9.232 9.232 0 0 0-4.657-1.25zm185.5 1.25a9.232 9.232 0 0 0-4.312 1.219c-.48.274-.572.334-.313.187a9.232 9.232 0 0 0-3.468 12.594l8.062 14.25.094.188a9.232 9.232 0 0 0 16.187-8.875l-.093-.188-.094-.188-7.625-14.312h-.031a9.232 9.232 0 0 0-8.406-4.875zM63.25 640.219a9.232 9.232 0 0 0-9.219 9.312l.125 15.875v.282a9.235 9.235 0 1 0 18.469.125v-.282l.344-15.875a9.232 9.232 0 0 0-9.188-9.437c-.302-.002-.422 0-.406 0a9.232 9.232 0 0 0-.125 0z" style="text-indent:0;text-align:start;line-height:normal;text-transform:none;block-progression:tb;marker:none;-inkscape-font-specification:Sans" font-weight="400" fill="url(#i)" overflow="visible" font-family="Sans"/><path d="M113.781 265.625a4.47 4.47 0 0 0-4.187 3.281v.032a4.47 4.47 0 0 0-.032.125l-8.187 30.093a4.47 4.47 0 0 0 3.187 5.5c.68.173 1.025.217 1.032.219a4.47 4.47 0 0 0 5.5-3.312l7.187-30.47h-.031a4.47 4.47 0 0 0 .125-1.03 4.47 4.47 0 0 0-4.594-4.438zm-101.219 2.344A4.47 4.47 0 0 0 8 272.438a4.47 4.47 0 0 0 .156 1.125 4.47 4.47 0 0 0 .031.125v.03l7.47 28.876a4.47 4.47 0 0 0 5.53 3.187c.244-.068.515-.167.813-.25A4.47 4.47 0 0 0 25.094 300l-8.25-28.563-.032-.125a4.47 4.47 0 0 0-.03-.093 4.47 4.47 0 0 0-4.22-3.25zM-74.75 317.25a4.47 4.47 0 0 0-3.125 7.563l.063.062 21.874 22.469a4.47 4.47 0 0 0 6.376.031c.125-.126.242-.212.312-.281a4.47 4.47 0 0 0 0-6.344l-22.25-22.219a4.47 4.47 0 0 0-3.25-1.281zm280.125.531a4.47 4.47 0 0 0-2.813 1.25l-.093.094-22.75 22.219a4.47 4.47 0 0 0-.063 6.343c.208.21.41.406.594.594a4.47 4.47 0 0 0 6.406-.031l21.625-22.313.532-.5.062-.093a4.47 4.47 0 0 0-3.5-7.563zm47.719 87.813a4.47 4.47 0 0 0-1.156.156l-.063.031-27.688 7.438a4.47 4.47 0 0 0-3.156 5.531c.154.55.224.709.156.469a4.47 4.47 0 0 0 5.532 3.094l26.844-7.75.718-.188.063-.031a4.47 4.47 0 0 0-1.25-8.75zm-380.938.062a4.47 4.47 0 0 0-4.375 4.125 4.47 4.47 0 0 0 3.219 4.656 4.47 4.47 0 0 0 .125.032l31.563 9.125a4.47 4.47 0 0 0 5.562-3.125c.136-.504.195-.82.219-.906a4.47 4.47 0 0 0-3.188-5.5l-31.781-8.22h-.031a4.47 4.47 0 0 0-.125-.03 4.47 4.47 0 0 0-1.188-.157zm354.688 94.469a4.47 4.47 0 0 0-4.313 3.406h-.031c-.049.198-.04.172-.063.281a4.47 4.47 0 0 0 0 .063l-.062.313a4.47 4.47 0 0 0 3.219 5.437l29.468 7.594.094.031a4.47 4.47 0 0 0 2.344-8.625l-.094-.031-.187-.063-28.563-8.031a4.47 4.47 0 0 0-.25-.094l-.187-.062a4.47 4.47 0 0 0-.156-.032 4.47 4.47 0 0 0-1.22-.187zm-323.875 1.625a4.47 4.47 0 0 0-.813.156l-27.781 7.625a4.476 4.476 0 1 0 2.281 8.656l.094-.03 27.844-7.095a4.47 4.47 0 0 0 3.218-5.437 5.858 5.858 0 0 0-.156-.531 4.47 4.47 0 0 0-4.687-3.344zm43.312 75.969a4.47 4.47 0 0 0-3.187 1.343l-21.625 22.157-.688.687-.062.094a4.47 4.47 0 0 0 6.312 6.281l.063-.062 22.781-22.375a4.47 4.47 0 0 0 .063-6.344c-.17-.171-.312-.31-.438-.438a4.47 4.47 0 0 0-3.219-1.343zm236.125 1.218a4.47 4.47 0 0 0-3.281 1.313c-.24.24-.41.443-.563.594a4.47 4.47 0 0 0-.062 6.312l21.188 21.594.062.094a4.47 4.47 0 0 0 6.469-6.157l-.063-.093-.406-.438-20.156-21.781a4.47 4.47 0 0 0-3.188-1.438zM20.22 621.658a4.47 4.47 0 0 0-4.188 3.312 4.47 4.47 0 0 0-.062.187l-7.031 26.782-.032.062a4.47 4.47 0 0 0 8.625 2.344l.032-.063.187-.718 7.344-26.094A4.47 4.47 0 0 0 22 621.937c.323.09.154.049-.469-.125a4.47 4.47 0 0 0-1.312-.156zm86.594.687a4.47 4.47 0 0 0-.844.156v-.031c-.39.103-.662.18-.813.218a4.47 4.47 0 0 0-3.187 5.532l7.906 28.875.031.125a4.47 4.47 0 0 0 8.656-2.219l-.03-.125-7.063-29.125a4.47 4.47 0 0 0-4.657-3.406z" style="text-indent:0;text-align:start;line-height:normal;text-transform:none;block-progression:tb;marker:none;-inkscape-font-specification:Sans" font-weight="400" fill="url(#j)" overflow="visible" font-family="Sans"/><path d="M79 346.563a5.182 5.182 0 0 0-4.875 4.25l-.063.437L54.094 463a5.182 5.182 0 0 0 4.406 6.031l9.906 1.344a5.182 5.182 0 0 0 5.844-4.688l10.125-113.5A5.182 5.182 0 0 0 79 346.563z" style="text-indent:0;text-align:start;line-height:normal;text-transform:none;block-progression:tb;marker:none;-inkscape-font-specification:Sans" font-weight="400" fill="url(#k)" fill-rule="evenodd" overflow="visible" font-family="Sans"/><path d="M64.219 436.906c-14.374 0-26.063 11.807-26.063 26.156 0 14.35 11.689 26.157 26.063 26.157 7.717 0 14.561-3.536 19.344-8.875l202.343-12.094a5.188 5.188 0 0 0 0-10.375L83.562 445.781c-4.782-5.339-11.626-8.875-19.343-8.875z" style="text-indent:0;text-align:start;line-height:normal;text-transform:none;block-progression:tb;marker:none;-inkscape-font-specification:Sans" font-weight="400" fill="url(#l)" fill-rule="evenodd" overflow="visible" font-family="Sans"/><path transform="translate(1.448 2.429)" d="M74 461.362c0 5.8-4.701 10.5-10.5 10.5s-10.5-4.7-10.5-10.5c0-5.799 4.701-10.5 10.5-10.5s10.5 4.701 10.5 10.5z" style="marker:none" fill="url(#m)" overflow="visible"/><path d="M64.948 199.339c-146.07 0-264.452 118.382-264.452 264.452S-81.122 728.243 64.948 728.243 329.4 609.86 329.4 463.79c0-146.07-118.382-264.452-264.452-264.452zm0 21.315c134.261 0 243.136 108.876 243.136 243.137 0 134.26-108.875 243.136-243.136 243.136s-243.136-108.875-243.136-243.136S-69.313 220.654 64.948 220.654z" style="marker:none" fill="url(#n)" overflow="visible"/><path style="marker:none" d="M64.948 206.742c-141.98 0-257.05 115.068-257.05 257.049 0 141.98 115.07 257.049 257.05 257.049 141.98 0 257.05-115.068 257.05-257.05 0-141.98-115.07-257.048-257.05-257.048zm0 20.718c130.503 0 236.33 105.828 236.33 236.33 0 130.504-105.827 236.331-236.33 236.331-130.503 0-236.33-105.827-236.33-236.33 0-130.503 105.827-236.33 236.33-236.33z" fill="url(#o)" overflow="visible"/><path d="M-80.031 163.531c-12.173 0-22.458 3.266-26.156 7.813 5.31 8.9 14.834 14.844 25.78 14.844h290.72c10.937 0 20.467-5.925 25.78-14.813-3.674-4.564-13.952-7.844-26.155-7.844h-289.97zM-25.731 87.774c-7.614 0-14.047 2.043-16.36 4.886 3.321 5.568 9.278 9.285 16.125 9.285h181.838c6.841 0 12.802-3.706 16.126-9.265-2.299-2.855-8.727-4.906-16.36-4.906h-181.37zM-80.031 764.055c-12.173 0-22.458-3.266-26.156-7.812 5.31-8.901 14.834-14.844 25.78-14.844h290.72c10.937 0 20.467 5.924 25.78 14.812-3.674 4.565-13.952 7.844-26.155 7.844h-289.97zM-25.731 839.813c-7.614 0-14.047-2.043-16.36-4.887 3.321-5.567 9.278-9.284 16.125-9.284h181.838c6.841 0 12.802 3.705 16.126 9.264-2.299 2.855-8.727 4.906-16.36 4.906h-181.37z" style="marker:none" fill="#ffd5d5" overflow="visible"/><path d="M-106.781 170.375c-1.678 1.6-3.35 3.23-5 4.875 5.816 6.7 14.254 10.938 23.719 10.938h7.656c-11.35 0-21.197-6.363-26.375-15.813zm343.469 0c-5.18 9.45-15.027 15.813-26.375 15.813h7.625c9.456 0 17.93-4.219 23.75-10.907a309.273 309.273 0 0 0-5-4.906zM-88.063 740.219c-9.768 0-18.455 4.484-24.28 11.562a310.684 310.684 0 0 0 5.562 5.438c5.178-9.45 15.026-15.844 26.375-15.844h290.719c11.348 0 21.196 6.394 26.375 15.844 1.868-1.782 3.698-3.6 5.53-5.438-5.828-7.072-14.515-11.562-24.28-11.562h-306z" style="marker:none" overflow="visible"/><path d="M-25.731 839.813c-7.614 0-14.047-2.043-16.36-4.887 3.322-5.568 9.278-9.284 16.125-9.284h181.838c6.841 0 12.802 3.705 16.126 9.264-2.3 2.856-8.728 4.907-16.36 4.907h-181.37" style="marker:none" fill="url(#p)" overflow="visible"/><path d="M-32.519 830.343c-8.184 0-15.098-2.196-17.584-5.252 3.57-5.985 9.973-9.98 17.332-9.98h195.448c7.353 0 13.76 3.983 17.333 9.959-2.472 3.068-9.38 5.273-17.585 5.273H-32.52" style="marker:none" fill="url(#q)" overflow="visible"/><path d="M-39.306 820.873c-8.754 0-16.15-2.349-18.81-5.618 3.82-6.4 10.668-10.674 18.54-10.674h209.058c7.866 0 14.719 4.26 18.54 10.652-2.644 3.282-10.034 5.64-18.81 5.64H-39.306" style="marker:none" fill="url(#r)" overflow="visible"/><path d="M-46.094 811.403c-9.324 0-17.2-2.501-20.033-5.983 4.067-6.818 11.362-11.37 19.746-11.37h222.668c8.378 0 15.677 4.538 19.747 11.346-2.816 3.496-10.687 6.007-20.034 6.007H-46.094" style="marker:none" fill="url(#s)" overflow="visible"/><path d="M-52.881 801.934c-9.894 0-18.252-2.655-21.258-6.35 4.316-7.234 12.056-12.064 20.953-12.064h236.278c8.89 0 16.635 4.815 20.954 12.039-2.987 3.71-11.34 6.375-21.258 6.375h-235.67" style="marker:none" fill="url(#t)" overflow="visible"/><path d="M-59.669 792.464c-10.463 0-19.303-2.807-22.482-6.715 4.565-7.651 12.75-12.76 22.16-12.76h249.889c9.401.001 17.593 5.093 22.16 12.733-3.16 3.923-11.993 6.742-22.483 6.742H-59.67" style="marker:none" fill="url(#u)" overflow="visible"/><path d="M-66.456 782.994c-11.034 0-20.355-2.96-23.707-7.08 4.813-8.068 13.445-13.454 23.367-13.454H196.703c9.913 0 18.55 5.37 23.367 13.425-3.331 4.137-12.646 7.11-23.707 7.11H-66.456" style="marker:none" fill="url(#v)" overflow="visible"/><path d="M-73.244 773.525c-11.603 0-21.406-3.113-24.931-7.447 5.062-8.484 14.14-14.149 24.574-14.149h277.109c10.425 0 19.509 5.647 24.574 14.12-3.503 4.35-13.3 7.476-24.932 7.476H-73.245" style="marker:none" fill="url(#w)" overflow="visible"/><path d="M-80.031 764.055c-12.173 0-22.458-3.266-26.156-7.812 5.31-8.901 14.834-14.844 25.78-14.844H210.314c10.937 0 20.467 5.924 25.78 14.812-3.674 4.565-13.952 7.844-26.155 7.844H-80.031" style="marker:none" fill="url(#x)" overflow="visible"/><path style="marker:none" d="M-25.731 87.774c-7.614 0-14.047 2.043-16.36 4.886 3.322 5.568 9.278 9.285 16.125 9.285h181.838c6.841 0 12.802-3.706 16.126-9.265-2.3-2.855-8.728-4.906-16.36-4.906h-181.37" fill="url(#y)" overflow="visible"/><path style="marker:none" d="M-32.519 97.244c-8.184 0-15.098 2.195-17.584 5.252 3.57 5.984 9.973 9.98 17.332 9.98h195.448c7.353 0 13.76-3.984 17.333-9.96-2.472-3.068-9.38-5.272-17.585-5.272H-32.52" fill="url(#z)" overflow="visible"/><path style="marker:none" d="M-39.306 106.713c-8.754 0-16.15 2.349-18.81 5.618 3.82 6.401 10.668 10.675 18.54 10.675h209.058c7.866 0 14.719-4.26 18.54-10.652-2.644-3.283-10.034-5.64-18.81-5.64H-39.306" fill="url(#A)" overflow="visible"/><path style="marker:none" d="M-46.094 116.183c-9.324 0-17.2 2.502-20.033 5.984 4.067 6.817 11.362 11.369 19.746 11.369h222.668c8.378 0 15.677-4.538 19.747-11.345-2.816-3.496-10.687-6.008-20.034-6.008H-46.094" fill="url(#B)" overflow="visible"/><path style="marker:none" d="M-52.881 125.653c-9.894 0-18.252 2.654-21.258 6.35 4.316 7.233 12.056 12.063 20.953 12.063h236.278c8.89 0 16.635-4.815 20.954-12.039-2.987-3.71-11.34-6.374-21.258-6.374h-235.67" fill="url(#C)" overflow="visible"/><path style="marker:none" d="M-59.669 135.122c-10.463 0-19.303 2.808-22.482 6.715 4.565 7.652 12.75 12.76 22.16 12.76h249.889c9.401 0 17.593-5.093 22.16-12.733-3.16-3.923-11.993-6.742-22.483-6.742H-59.67" fill="url(#D)" overflow="visible"/><path style="marker:none" d="M-66.456 144.592c-11.034 0-20.355 2.96-23.707 7.08v.001c4.813 8.068 13.445 13.454 23.367 13.454H196.703c9.913 0 18.55-5.37 23.367-13.426-3.331-4.137-12.646-7.11-23.707-7.11H-66.456" fill="url(#E)" overflow="visible"/><path style="marker:none" d="M-73.244 154.062c-11.603 0-21.406 3.113-24.931 7.446 5.062 8.485 14.14 14.15 24.574 14.15h277.109c10.425-.001 19.509-5.648 24.574-14.12-3.503-4.35-13.3-7.476-24.932-7.476H-73.245" fill="url(#F)" overflow="visible"/><path style="marker:none" d="M-80.031 163.531c-12.173 0-22.458 3.266-26.156 7.813 5.31 8.9 14.834 14.844 25.78 14.844H210.314c10.937 0 20.467-5.925 25.78-14.813-3.674-4.564-13.952-7.844-26.155-7.844H-80.031" fill="url(#G)" overflow="visible"/><path style="marker:none" d="M64.938 202.93c-144.062 0-260.844 116.814-260.844 260.876.918 10.673-.03 20.235.795 26.733 1.01 7.962 4.68 11.324 17.703 6.492 52.203-19.287 139.145-31.86 237.959-31.86 115.737 0 215.17 17.26 261.59 42.341 2.4-14.22 3.64-28.803 3.64-43.706 0-144.062-116.782-260.876-260.843-260.876zm28.01 520.192c-10.643.302-21.43.487-32.397.487-7.089 0-14.1-.1-21.058-.227 8.381.812 16.85 1.267 25.445 1.267 9.46 0 18.81-.545 28.01-1.527z" fill="url(#H)" overflow="visible"/></g></svg>