<svg viewBox="0 0 274.48 693.4" xmlns="http://www.w3.org/2000/svg" xmlns:xlink="http://www.w3.org/1999/xlink"><defs><linearGradient id="b" x1="27.987" x2="25.575" y1="-71.552" y2="-75.73" gradientTransform="translate(124.91 17.03) scale(3.0915)" gradientUnits="userSpaceOnUse" xlink:href="#a" spreadMethod="reflect"/><linearGradient id="a"><stop stop-color="#626262" stop-opacity=".49" offset="0"/><stop stop-color="#1f1f1f" stop-opacity="0" offset="0"/><stop stop-color="#fff" stop-opacity=".784" offset="1"/></linearGradient><linearGradient id="c" x1="197.27" x2="191.11" y1="99.551" y2="97.238" gradientTransform="translate(-1457.1 -1019.3) scale(8.2967)" gradientUnits="userSpaceOnUse" xlink:href="#a" spreadMethod="reflect"/><radialGradient id="d" cx="177.53" cy="126.89" r="16.219" gradientTransform="matrix(10.705 0 0 121.36 -1815.1 -14793)" gradientUnits="userSpaceOnUse" xlink:href="#a" spreadMethod="reflect"/><radialGradient id="e" cx="101.64" cy="126.72" r="16.219" gradientTransform="matrix(13.553 0 0 41.151 -1192.9 -5273.8)" gradientUnits="userSpaceOnUse" xlink:href="#a" spreadMethod="reflect"/><radialGradient id="f" cx="61.147" cy="89.286" r="14.142" gradientTransform="matrix(4.1179 6.9575 -18.996 10.967 977.78 -960.87)" gradientUnits="userSpaceOnUse" xlink:href="#a" spreadMethod="reflect"/><radialGradient id="g" cx="103.55" cy="140.24" r="10.814" gradientTransform="matrix(-11.13 -40.974 28.838 -7.8337 -2620.3 5683.8)" gradientUnits="userSpaceOnUse" xlink:href="#a" spreadMethod="reflect"/><radialGradient id="h" cx="184.96" cy="167.26" r="6.873" gradientTransform="matrix(17.133 0 0 18.271 -3103.5 -2724.3)" gradientUnits="userSpaceOnUse" xlink:href="#a" spreadMethod="reflect"/><radialGradient id="i" cx="198.42" cy="141.42" r="3.332" gradientTransform="matrix(11.901 0 0 2.4472 -2172.3 -193.05)" gradientUnits="userSpaceOnUse" xlink:href="#a"/><radialGradient id="j" cx="201.99" cy="156.77" r="4.84" gradientTransform="matrix(16.367 0 0 64.473 -3098.5 -9869.3)" gradientUnits="userSpaceOnUse" xlink:href="#a"/><linearGradient id="k" x1="87.4" x2="94.046" y1="161.88" y2="161.94" gradientTransform="translate(-640.34 -894.18) scale(8.2744)" gradientUnits="userSpaceOnUse" xlink:href="#a" spreadMethod="reflect"/><radialGradient id="l" cx="41.618" cy="63.513" r="14.142" gradientTransform="rotate(45 398.85 -253.748) scale(8.3406 6.034)" gradientUnits="userSpaceOnUse" xlink:href="#a" spreadMethod="reflect"/><radialGradient id="m" cx="88.748" cy="73.313" r="14.142" gradientTransform="matrix(-.06054 -14.969 4.8122 0 -293.67 1773.6)" gradientUnits="userSpaceOnUse" xlink:href="#a" spreadMethod="reflect"/><radialGradient id="n" cx="198.42" cy="171.52" r="2.375" gradientTransform="matrix(25.527 0 0 4.6409 -4876 -393.94)" gradientUnits="userSpaceOnUse" xlink:href="#a" spreadMethod="reflect"/><radialGradient id="o" cx="198.42" cy="138.2" r="8.451" gradientTransform="matrix(17.842 0 0 3.1866 -3351.1 -314.01)" gradientUnits="userSpaceOnUse" xlink:href="#a"/><radialGradient id="p" cx="176.21" cy="159.69" r="12.3" gradientTransform="matrix(8.7542 0 0 1.2464 -1547.9 214.8)" gradientUnits="userSpaceOnUse" xlink:href="#a" spreadMethod="reflect"/><radialGradient id="q" cx="309.35" cy="-51.267" r="10.484" gradientTransform="matrix(1 0 0 11.224 0 631.65)" gradientUnits="userSpaceOnUse" xlink:href="#a"/><radialGradient id="r" cx="110.13" cy="-78.72" r="17.375" gradientTransform="matrix(-.26158 6.4707 -6.8934 -.27867 -418.52 -716.7)" gradientUnits="userSpaceOnUse" xlink:href="#a"/></defs><g fill-rule="evenodd"><path d="M189.25-225.37c-55.683 0-101.08 6.712-101.92 15.071 5.25 7.824 48.846 13.622 101.92 13.622 53.079 0 96.868-5.798 102.12-13.622-.058.089-.222.106-.29.193 0-8.47-45.618-15.265-101.83-15.265zm0 .87c52.608 0 95.355 6.093 95.355 13.718-5.38 6.97-46.026 12.173-95.355 12.173-49.678 0-90.442-5.225-95.355-12.27.79-7.526 43.24-13.622 95.355-13.622z" color="#000" fill="url(#b)" opacity=".328" transform="translate(-52 225.37)"/><path d="M189.17-225.28c-56.36 0-101.89 6.61-101.89 14.778s45.533 14.778 101.89 14.778c56.361 0 102.15-6.61 102.15-14.778s-45.792-14.778-102.15-14.778zm0 .778c53.926 0 97.745 6.24 97.745 14S243.096-196.5 189.17-196.5s-97.486-6.241-97.486-14.001 43.559-14.001 97.486-14.001z" fill="url(#c)" transform="translate(-52 225.37)"/><path d="M189.25-225.37c-55.683 0-101.08 6.987-101.92 15.697 5.25 8.153 48.846 14.232 101.92 14.232 53.079 0 96.868-6.08 102.12-14.232-.058.092-.221.119-.29.21 0-8.825-45.618-15.907-101.83-15.907z" color="#000" fill="url(#d)" opacity=".328" transform="translate(-52 225.37)"/><path d="M87.359-210.92C67.373-161.005 55.037 14.66 55.037 40.67c0 58.06 60.075 105.24 134.2 105.24 74.127 0 134.2-47.181 134.2-105.24 0-26.016-12.077-201.68-32.063-251.59-5.25 7.527-49.059 13.187-102.14 13.187-53.079 0-96.629-5.66-101.88-13.187z" fill="url(#e)" transform="translate(-52 225.37)"/><path d="M326.05 441.84c0 11.434-61.254 20.703-136.81 20.703-75.561 0-136.81-9.269-136.81-20.703s61.254-20.703 136.81-20.703c75.561 0 136.81 9.269 136.81 20.703z" fill="url(#f)" opacity=".5" transform="translate(-52 225.37)"/><path d="M262.09 126.94c-23.002 16.671-62.1 40.91-61.541 51.974 1.583 31.318 2.586 44.263 2.586 92.053s-1.003 90.988-2.586 122.31c-.792 15.659 79.137 28.219 78.09 36.976-1.047 8.757-59.297 13.705-89.467 13.705s-88.421-4.947-89.467-13.705c-1.047-8.757 78.882-21.317 78.09-36.976-1.583-31.318-2.586-74.517-2.586-122.31 0-47.79 1.003-60.735 2.586-92.053.56-11.063-38.539-35.303-61.541-51.974 21.011 10.574 45.994 16.807 72.919 16.807 26.924 0 51.907-6.234 72.919-16.807z" fill="url(#g)" transform="translate(-52 225.37)"/><path d="M118.91 128.33c22.584 16.593 63.383 42.255 62.834 53.267-1.554 31.172-3.361 62.328-3.361 109.89 0 47.567-.52 70.965 1.034 102.14.777 15.586-107.56 40.413-106.53 49.13.84 7.12 38.372 11.486 68.523 12.929-20.271-1.548-35.703-5.484-36.46-11.895-1.027-8.716 79.645-34.578 78.867-50.164-1.555-31.172-2.586-74.222-2.586-121.79 0-43.461 2.374-92.604 2.844-101.62 1.716.14 3.22.258 5.172.258 9.19 1.105 12.135-3.337 17.602-9.635-3.383-1.007-10.852 2.395-17.602 2.395-15.454-2.423-25.594-14.939-34.391-21.203-3.984-1.612-32.203-11.797-35.942-13.705z" fill="url(#h)" opacity=".5" transform="translate(-52 225.37)"/><path d="M161.6 150.64c0-1.8 12.343-3.26 27.572-3.26 15.23 0 27.572 1.46 27.572 3.26-5.523 11.41-17.905 7.395-27.572 7.39-12.279.299-20.946 3.258-27.572-7.39z" fill="url(#i)" opacity=".5" transform="translate(-52 225.37)"/><path d="M267.3 197.78c-2.284 16.945 4.978 60.686-6.464 87.657-8.846 20.849-13.5 44.23-45.251 50.681-21.648 8.026-52.296-.571-79.383 1.293-35.276 2.428-83.431 13.853-115.58-23.79-17.408-17.66-12.981-59.204-15.773-85.846-1.219 18.135-1.81 32.359-1.81 38.269 0 58.06 60.075 105.24 134.2 105.24 74.127 0 134.2-47.181 134.2-105.24 0-8.858-1.502-35.566-4.138-68.264z" opacity=".2"/><path d="M255.72 128.42c-3.323 1.908-28.261 11.893-31.802 13.506-20.176 16.137-26.375 21.972-26.375 21.972s2.9 60.31 2.9 107.88c0 47.567-.874 90.564-2.255 121.74-.691 15.586 69.05 28.088 68.136 36.804-.896 8.547-49.54 13.454-76.26 13.641.598.006 1.457 0 2.031 0 26.325 0 77.15-4.924 78.064-13.641.913-8.716-68.827-21.218-68.136-36.804 1.381-31.172 2.256-74.169 2.256-121.74 0-47.567-.874-60.452-2.256-91.624-.488-11.012 33.627-35.138 53.697-51.732z" fill="url(#j)" opacity=".5" transform="translate(-52 225.37)"/><path d="M189.23 421.14c-40.029.373-80.602 1.086-119.69 10.594-5.747 2.33-16.181 3.352-17.093 10.865-.338 4.138.13 8.637 4.885 10.162 18.795 8.305 39.734 9.654 59.911 12.012 54.022 4.517 108.61 4.468 162.46-2.115 14.59-2.429 30.072-3.7 43.154-11.137 3.997-2.294 3.305-7.073 2.907-10.989-5.883-7.368-16.388-8.362-24.967-10.767-36.647-7.409-74.296-8.424-111.56-8.625z" fill="url(#k)" transform="translate(-52 225.37)"/><path d="M326.48 441.9c0 10.986-61.444 19.891-137.24 19.891-75.795 0-137.24-8.906-137.24-19.891 0-10.986 61.444-19.891 137.24-19.891 75.795 0 137.24 8.906 137.24 19.891z" fill="url(#l)" transform="translate(-52 225.37)"/><path d="M326.05 447.33c0 11.434-61.254 20.703-136.81 20.703-75.561 0-136.81-9.269-136.81-20.703s61.254-20.703 136.81-20.703c75.561 0 136.81 9.269 136.81 20.703z" fill="url(#m)" transform="translate(-52 225.37)"/><path d="M189.18 398.49c-4.613 0-8.642.33-12.282.67-1.734 1.605-4.254 3.17-7.37 4.689 4.185.996 11.18 1.786 19.653 1.786 8.39 0 15.445-.806 19.651-1.786-3.115-1.52-5.635-3.084-7.369-4.69-3.611-.331-7.727-.669-12.282-.669z" fill="url(#n)" transform="translate(-52 225.37)"/><path d="M158.19 138.87c-11.827-1.251-19.901-4.285-23.308-5.483-9.43-3.315-15.628-8.334-15.628-9.29 0-2.223 31.301-10.204 69.924-10.204 38.623 0 69.924 7.981 69.924 10.204 0 .96-6.13 5.99-15.628 9.29-3.447 1.198-11.658 4.238-23.712 5.483 5.642-1.961 10.602-3.72 13.473-5.33-9.056-.178-23.746-.305-44.056-.305-20.418 0-35.083.125-44.056.305 2.794 1.616 7.555 3.413 13.069 5.33z" fill="url(#o)" opacity=".5" transform="translate(-52 225.37)"/><path d="M291.01 433.28c0 8.003-45.567 14.49-101.78 14.49-56.21 0-101.78-6.487-101.78-14.49s45.567-14.49 101.78-14.49c56.21 0 101.78 6.488 101.78 14.49z" fill="url(#p)" opacity=".5" transform="translate(-52 225.37)"/><path d="M20.621 82.2c-1.097 7.06-2.358 14.263-3.362 21.72-.066.511-.19 1.038-.258 1.551-.976 7.31-1.702 14.753-2.586 22.238a1834.133 1834.133 0 0 0-3.103 28.185c-1.07 10.488-2.232 20.858-3.103 30.771-.3 3.417-.5 6.52-.775 9.826-.833 9.989-1.466 19.86-2.069 28.443-.709 10.123-1.443 19.944-1.81 27.151-.156 4.947-.517 15.161-.517 15.256v.776c0 .693.242 1.378.258 2.069.067 2.836.166 5.756.518 8.533.041.338-.05.696 0 1.034.114.87.367 1.714.517 2.586.325 1.744.599 3.456 1.034 5.171.113.445.397.851.517 1.293.042.165-.041.353 0 .517a85.95 85.95 0 0 0 2.069 6.465c10.332 28.242 35.74 51.445 69.04 64.385 19.447 13.902 42.295 13.313 47.578 23.53 4.222-.181-11.44-.517 12.67-.517 22.716.51 8.42.33 12.67.517 5.318-10.221 28.146-9.634 47.578-23.53 33.3-12.94 58.708-36.143 69.04-64.385a85.909 85.909 0 0 0 2.068-6.465c.16-.609.372-1.197.518-1.81.041-.165-.042-.351 0-.517a80.044 80.044 0 0 0 1.551-8.016c.01-.083-.01-.176 0-.258.352-2.777.447-5.697.517-8.533.025-.688.254-1.378.259-2.069v-.776c-.04-7.573-2.231-28.474-4.396-52.75 3.35 59.186-12.806 115.23-61.8 138.6-1.052.497-2.033 1.077-3.103 1.552-1.265.552-2.572 1.042-3.879 1.551-16.744 6.53-36.977 9.55-61.024 8.016-40.24 0-82.137-16.523-106.79-42.148-14.903-15.489-23.404-34.286-21.72-54.818 7.837-95.57 11.343-172.84 11.895-185.14z" opacity=".2"/><path d="M289.99-179.45c-.395.045-.9.25-1.125.069 2.805 9.785 3.705 20.043 5.125 30.137 7.254 65.107 12.098 130.56 13.906 196.06.49 3.128-1.189 14.323 1.938 6.158-.992-22.398-2.016-44.795-3.125-67.188-3.29-54.965-5.252-110.39-16.25-164.44.198-.744-.074-.837-.47-.791z" fill="url(#q)" transform="translate(-52 225.37)"/><path d="M104.12-198.03C87.888-120.035 81.296-56.59 77.943 23.5L92.31 41.714c-.15-82.565 10.802-159.6 20.383-237.32z" fill="url(#r)" transform="translate(-52 225.37)"/></g></svg>