<svg xmlns="http://www.w3.org/2000/svg" xmlns:xlink="http://www.w3.org/1999/xlink" width="80.5" height="142.343"><defs><linearGradient id="a"><stop offset="0"/><stop offset="1" stop-color="#fff"/></linearGradient><linearGradient xlink:href="#a" id="b" gradientUnits="userSpaceOnUse" gradientTransform="matrix(.90027 0 0 .87667 18.84 23.73)" spreadMethod="reflect" x1="184.286" y1="141.408" x2="188.953" y2="141.408"/><linearGradient xlink:href="#a" id="c" gradientUnits="userSpaceOnUse" gradientTransform="matrix(.98266 0 0 1 3.095 0)" spreadMethod="reflect" x1="178.469" y1="152.762" x2="188.63" y2="152.762"/><linearGradient xlink:href="#a" id="d" gradientUnits="userSpaceOnUse" x1="186.309" y1="153.283" x2="191.143" y2="153.283"/><linearGradient xlink:href="#a" id="e" gradientUnits="userSpaceOnUse" spreadMethod="reflect" x1="179.607" y1="105.719" x2="186.164" y2="105.542"/><linearGradient xlink:href="#a" id="f" gradientUnits="userSpaceOnUse" x1="175.135" y1="103.45" x2="203.167" y2="103.45"/></defs><g fill="red" fill-opacity=".3"><path d="M17.007 77.839L2.828 94.574v42.768l14.179-16.736h60.665V77.84H17.007z" fill="#ff7f2a" fill-opacity="1"/><path d="M17.007 120.595V77.827v42.768"/><path d="M58.147 137.33V94.562H2.828v42.768h55.32" fill="#520" fill-opacity="1"/><path d="M58.147 120.665v16.677l19.466-16.677H58.147z" fill="#a40" fill-opacity="1"/><path d="M77.672 77.839L58.147 94.574v42.768l19.525-16.736" fill="#2b1100" fill-opacity="1"/></g><path fill="url(#b)" d="M182.63 103.557h12.538v87.925H182.63z" transform="matrix(.92973 0 0 .92973 -138.258 -90.558)"/><path d="M195.481 118.883a.83.83 0 0 0-.522.31c-.398.528-.9.971-1.443 1.308-1.195.74-2.658 1.23-4.146 1.58-1.475.348-2.991.512-4.115.592-.57.04-1.014.056-1.35.04a2.465 2.465 0 0 1-.462-.05c-.074-.016-.02.023-.184-.068-.15-.085-.359-.175-.399-.63-.036-.407-.59-.667-1.013-.476-.884.376-1.643.788-2.242 1.309-.599.52-1.044 1.2-1.044 1.937 0 .244.175.4.276.473a.72.72 0 0 0 .215.122c.122.04.212.05.307.06.192.022.404.034.676.035a32.46 32.46 0 0 0 2.18-.1 67.44 67.44 0 0 0 6.51-.788c2.368-.41 4.748-.96 6.602-1.726.928-.383 1.72-.805 2.334-1.343.614-.538 1.044-1.243 1.044-1.991 0-.246-.172-.429-.276-.501-.104-.073-.186-.075-.246-.092a1.406 1.406 0 0 0-.276-.063 5.958 5.958 0 0 0-.584-.014 41.24 41.24 0 0 0-1.842.075zm-.03 7.645a.83.83 0 0 0-.523.311c-.406.534-.887.98-1.412 1.305-1.195.74-2.658 1.23-4.146 1.58-1.475.348-2.991.512-4.115.592-.57.04-1.014.056-1.35.04a2.465 2.465 0 0 1-.462-.049c-.074-.016-.02.023-.184-.069-.15-.084-.358-.175-.399-.63-.036-.406-.59-.666-1.013-.475-.888.377-1.644.808-2.242 1.336-.598.528-1.044 1.199-1.044 1.936 0 .245.175.4.276.474a.72.72 0 0 0 .215.122c.122.039.212.05.307.06.192.022.404.034.676.035a32.46 32.46 0 0 0 2.18-.1 67.437 67.437 0 0 0 6.51-.788c2.368-.41 4.748-.96 6.602-1.726.928-.383 1.72-.805 2.334-1.343.614-.538 1.044-1.243 1.044-1.991 0-.247-.175-.429-.276-.501-.1-.072-.156-.076-.215-.095a1.346 1.346 0 0 0-.276-.062c-.173-.019-.38-.01-.614-.012a28.904 28.904 0 0 0-1.874.05zm.03 7.669a.83.83 0 0 0-.522.31c-.398.528-.9.971-1.443 1.308-1.195.74-2.658 1.23-4.146 1.58-1.475.348-2.991.512-4.115.592-.57.04-1.014.056-1.35.04a2.456 2.456 0 0 1-.462-.049c-.075-.017-.02.022-.184-.069-.15-.084-.359-.175-.399-.63-.036-.407-.59-.667-1.013-.476-.888.378-1.644.809-2.242 1.337-.598.528-1.044 1.199-1.044 1.936 0 .244.175.4.276.474a.72.72 0 0 0 .215.122c.122.039.212.05.307.06.192.022.404.034.676.035.543 0 1.291-.036 2.18-.1a67.437 67.437 0 0 0 6.51-.788c2.368-.41 4.748-.96 6.602-1.726.928-.383 1.72-.805 2.334-1.343.614-.538 1.044-1.243 1.044-1.991 0-.247-.175-.43-.276-.501-.1-.073-.157-.077-.215-.095a1.344 1.344 0 0 0-.276-.062c-.172-.02-.353-.013-.584-.014a29.683 29.683 0 0 0-1.873.05zm0 7.67a.83.83 0 0 0-.522.312c-.398.527-.9.97-1.443 1.307-1.195.74-2.658 1.23-4.146 1.58-1.475.348-2.991.512-4.115.592-.57.04-1.014.056-1.35.04a2.465 2.465 0 0 1-.462-.049c-.074-.017-.02.022-.184-.07-.15-.084-.359-.174-.399-.628-.036-.408-.59-.668-1.013-.477-.888.378-1.644.808-2.242 1.336-.598.528-1.044 1.2-1.044 1.937 0 .244.175.4.276.474a.72.72 0 0 0 .215.121c.122.04.212.05.307.06.192.023.404.035.676.035.543.001 1.291-.036 2.18-.099a67.44 67.44 0 0 0 6.51-.788c2.368-.41 4.748-.961 6.602-1.726.928-.383 1.72-.805 2.334-1.343.614-.538 1.044-1.243 1.044-1.992 0-.246-.175-.428-.276-.5-.1-.073-.157-.077-.215-.095a1.344 1.344 0 0 0-.276-.063c-.172-.019-.353-.012-.584-.013a29.613 29.613 0 0 0-1.873.05zm0 7.672a.83.83 0 0 0-.522.31c-.398.528-.9.971-1.443 1.308-1.195.74-2.658 1.23-4.146 1.58-1.475.348-2.991.512-4.115.592-.57.04-1.014.056-1.35.04a2.465 2.465 0 0 1-.462-.05c-.074-.016-.02.023-.184-.068-.15-.085-.359-.175-.399-.63-.036-.407-.59-.667-1.013-.476-.884.376-1.643.788-2.242 1.309-.599.52-1.044 1.2-1.044 1.937 0 .244.175.4.276.473a.72.72 0 0 0 .215.122c.122.04.212.05.307.06.192.022.404.034.676.035a32.46 32.46 0 0 0 2.18-.1 67.438 67.438 0 0 0 6.51-.788c2.368-.41 4.748-.96 6.602-1.726.928-.382 1.72-.805 2.334-1.343.614-.538 1.044-1.243 1.044-1.991 0-.246-.172-.429-.276-.501-.104-.072-.186-.075-.246-.092a1.406 1.406 0 0 0-.276-.063 5.958 5.958 0 0 0-.584-.013 41.24 41.24 0 0 0-1.842.074zm0 7.67a.83.83 0 0 0-.522.311 5.317 5.317 0 0 1-1.443 1.308c-1.186.732-2.68 1.206-4.177 1.555a26.86 26.86 0 0 1-4.084.617c-.548.038-.983.031-1.35.013a2.07 2.07 0 0 1-.43-.052c-.08-.018-.054.024-.216-.067-.153-.086-.358-.175-.399-.629-.036-.407-.59-.667-1.013-.476-.888.377-1.644.808-2.242 1.336-.598.528-1.044 1.199-1.044 1.936 0 .245.175.4.276.474a.72.72 0 0 0 .215.122c.122.04.212.05.307.06.192.022.404.034.676.035a32.46 32.46 0 0 0 2.18-.1 67.44 67.44 0 0 0 6.51-.788c2.368-.41 4.748-.96 6.602-1.726.928-.383 1.72-.805 2.334-1.343.614-.538 1.044-1.243 1.044-1.991 0-.246-.172-.429-.276-.501-.104-.073-.186-.075-.246-.092a1.406 1.406 0 0 0-.276-.063 5.958 5.958 0 0 0-.584-.014 41.24 41.24 0 0 0-1.842.075zm0 7.644a.83.83 0 0 0-.522.31c-.398.528-.9.971-1.443 1.308-1.195.74-2.658 1.23-4.146 1.58-1.475.348-2.991.512-4.115.592-.57.04-1.014.056-1.35.04a2.456 2.456 0 0 1-.462-.049c-.074-.017-.02.023-.184-.069-.15-.084-.359-.175-.399-.63-.036-.407-.59-.666-1.013-.476-.888.378-1.644.809-2.242 1.337-.598.528-1.044 1.199-1.044 1.936 0 .244.175.4.276.474a.72.72 0 0 0 .215.122c.122.039.212.05.307.06.192.022.404.034.676.034.543.001 1.291-.036 2.18-.099a67.44 67.44 0 0 0 6.51-.788c2.368-.41 4.748-.961 6.602-1.726.928-.383 1.72-.805 2.334-1.343.614-.538 1.044-1.243 1.044-1.991 0-.247-.175-.43-.276-.501-.1-.073-.157-.077-.215-.095a1.344 1.344 0 0 0-.276-.062c-.172-.02-.353-.013-.584-.014a29.614 29.614 0 0 0-1.873.05zm0 7.67a.83.83 0 0 0-.522.312c-.398.527-.9.97-1.443 1.307-1.195.74-2.658 1.23-4.146 1.58-1.475.348-2.991.512-4.115.592-.57.04-1.014.056-1.35.04a2.456 2.456 0 0 1-.462-.049c-.074-.017-.02.022-.184-.07-.15-.083-.359-.174-.399-.628-.036-.408-.59-.668-1.013-.477-.888.378-1.644.808-2.242 1.336-.598.529-1.044 1.2-1.044 1.937 0 .244.175.4.276.474a.72.72 0 0 0 .215.122c.122.039.212.05.307.06.192.022.404.034.676.034.543.001 1.291-.036 2.18-.099a67.438 67.438 0 0 0 6.51-.788c2.368-.41 4.748-.961 6.602-1.726.928-.383 1.72-.805 2.334-1.343.614-.538 1.044-1.243 1.044-1.992 0-.246-.175-.428-.276-.5-.1-.073-.157-.077-.215-.095a1.344 1.344 0 0 0-.276-.063c-.172-.018-.353-.012-.584-.013a29.683 29.683 0 0 0-1.873.05zm0 7.672a.83.83 0 0 0-.522.31c-.398.528-.9.971-1.443 1.308-1.195.74-2.658 1.23-4.146 1.58-1.475.348-2.991.512-4.115.592-.57.04-1.014.056-1.35.04a2.465 2.465 0 0 1-.462-.049c-.074-.017-.02.022-.184-.07-.15-.084-.359-.174-.399-.629-.036-.407-.59-.667-1.013-.476-.884.376-1.643.788-2.242 1.309-.599.52-1.044 1.2-1.044 1.937 0 .244.176.4.276.473a.72.72 0 0 0 .215.122c.122.04.212.05.307.06.191.022.404.034.676.035.543.002 1.291-.01 2.18-.072a67.753 67.753 0 0 0 6.51-.788c2.368-.407 4.717-.962 6.572-1.724.927-.382 1.75-.808 2.364-1.345.614-.538 1.044-1.243 1.044-1.992 0-.246-.175-.428-.276-.5-.1-.073-.157-.077-.215-.095a1.344 1.344 0 0 0-.276-.063c-.172-.018-.353-.012-.584-.013a29.683 29.683 0 0 0-1.873.05zm1.628 7.665c-.53.058-1.212.181-1.996.306a.837.837 0 0 0-.43.222c-.366.335-.817.577-1.29.776-1.202.506-2.654.683-4.146.758-1.277.064-2.491.013-3.531-.052a.843.843 0 0 0-.215.015c-3.346.64-6.295 1.212-6.295 1.212-.386.027-.737.365-.737.71 0 .343.35.632.737.605 0 0 4.697.265 9.427-.008 2.365-.137 4.737-.42 6.602-.96.933-.269 1.728-.592 2.365-1.07.637-.479 1.105-1.166 1.105-1.914 0-.267-.216-.457-.337-.524a.687.687 0 0 0-.246-.092 1.802 1.802 0 0 0-.338-.031 6.86 6.86 0 0 0-.675.047z" style="text-indent:0;text-align:start;line-height:normal;text-transform:none;block-progression:tb;marker:none;-inkscape-font-specification:Sans" font-weight="400" color="#000" fill="url(#c)" overflow="visible" font-family="Sans" transform="matrix(.92973 0 0 .92973 -138.258 -90.558)"/><path d="M43.184 23.317c-1.702.682-3.842 1.168-5.985 1.54a61.313 61.313 0 0 1-5.665.697v1.104a61.313 61.313 0 0 0 5.665-.697c2.143-.371 4.283-.858 5.985-1.54zm0 7.118c-1.702.683-3.842 1.198-5.985 1.57a61.31 61.31 0 0 1-5.665.697v1.104a61.31 61.31 0 0 0 5.665-.698c2.143-.371 4.283-.886 5.985-1.569zm0 7.148c-1.702.681-3.842 1.168-5.985 1.54a61.31 61.31 0 0 1-5.665.697v1.104a61.31 61.31 0 0 0 5.665-.697c2.143-.372 4.283-.859 5.985-1.54zm0 7.118c-1.702.683-3.842 1.197-5.985 1.569a61.313 61.313 0 0 1-5.665.697v1.104a61.313 61.313 0 0 0 5.665-.697c2.143-.372 4.283-.886 5.985-1.57zm0 7.118c-1.702.682-3.842 1.168-5.985 1.54a61.307 61.307 0 0 1-5.665.697v1.104a61.307 61.307 0 0 0 5.665-.697c2.143-.371 4.283-.858 5.985-1.54zm0 7.118c-1.702.683-3.842 1.198-5.985 1.57a61.313 61.313 0 0 1-5.665.697v1.104a61.313 61.313 0 0 0 5.665-.698c2.143-.371 4.283-.886 5.985-1.569zm0 7.148c-1.702.681-3.842 1.168-5.985 1.54a61.313 61.313 0 0 1-5.665.697v1.104a61.313 61.313 0 0 0 5.665-.697c2.143-.372 4.283-.859 5.985-1.54zm0 7.118c-1.702.683-3.842 1.197-5.985 1.569a61.307 61.307 0 0 1-5.665.697v1.104a61.307 61.307 0 0 0 5.665-.697c2.143-.372 4.283-.886 5.985-1.57zm0 7.118c-1.706.687-3.828 1.198-5.985 1.569a61.925 61.925 0 0 1-5.665.697v1.104a61.925 61.925 0 0 0 5.665-.697c2.157-.37 4.279-.882 5.985-1.569z" style="text-indent:0;text-align:start;line-height:normal;text-transform:none;block-progression:tb;marker:none;-inkscape-font-specification:Sans" font-weight="400" color="#000" overflow="visible" font-family="Sans"/><path d="M46.159 20.674a9.871 9.871 0 0 1-1.519.806c-1.834.781-4.007 1.28-6.157 1.643-2.15.364-4.29.56-5.911.657-.81.048-1.455.077-2.011.067a6.609 6.609 0 0 1-.821-.053 2.465 2.465 0 0 1-.575-.145c-.047-.017-.098-.064-.164-.093-.523.295-.855.62-1.027.956.474-.01.99-.033 1.724-.077a95.284 95.284 0 0 0 7.266-.71c2.634-.37 5.258-.875 7.06-1.467 1.452-.476 2.232-1.007 2.545-1.608-.117.004-.291.02-.41.024zm-.041 7.163a9.477 9.477 0 0 1-1.478.778c-1.834.781-4.007 1.28-6.157 1.643-2.15.364-4.29.56-5.911.657-.81.048-1.455.077-2.011.067a6.609 6.609 0 0 1-.821-.053 2.469 2.469 0 0 1-.575-.145c-.042-.015-.107-.043-.164-.067-.523.295-.855.619-1.027.955.474-.01.99-.032 1.725-.076a95.279 95.279 0 0 0 7.265-.711c2.634-.369 5.259-.875 7.06-1.466 1.452-.477 2.232-1.007 2.546-1.608-.13.003-.321.022-.452.026zm.041 7.133a9.872 9.872 0 0 1-1.519.806c-1.834.78-4.007 1.279-6.157 1.643-2.15.363-4.29.56-5.911.656-.81.048-1.455.078-2.011.068a6.609 6.609 0 0 1-.821-.054 2.455 2.455 0 0 1-.575-.145c-.042-.015-.107-.043-.164-.067-.523.296-.855.619-1.027.956.474-.01.99-.033 1.724-.076a95.288 95.288 0 0 0 7.266-.712c2.634-.368 5.258-.874 7.06-1.466 1.473-.483 2.246-1.02 2.545-1.633-.115.002-.29.02-.41.024zm0 7.16a9.873 9.873 0 0 1-1.519.806c-1.834.781-4.007 1.28-6.157 1.643-2.15.364-4.29.56-5.911.657-.81.048-1.455.077-2.011.067a6.609 6.609 0 0 1-.821-.053 2.469 2.469 0 0 1-.575-.145c-.042-.015-.107-.043-.164-.067-.523.295-.855.618-1.027.956.474-.011.99-.033 1.724-.077a95.28 95.28 0 0 0 7.266-.71c2.634-.37 5.258-.876 7.06-1.467 1.473-.483 2.246-1.02 2.545-1.634-.115.003-.29.021-.41.024zm0 7.161a9.871 9.871 0 0 1-1.519.806c-1.834.78-4.007 1.279-6.157 1.643-2.15.364-4.29.56-5.911.656-.81.048-1.455.078-2.011.068a6.609 6.609 0 0 1-.821-.054 2.459 2.459 0 0 1-.575-.145c-.047-.017-.098-.064-.164-.092-.523.295-.855.619-1.027.955.474-.01.99-.032 1.724-.076a95.275 95.275 0 0 0 7.266-.711c2.634-.369 5.258-.875 7.06-1.466 1.452-.477 2.232-1.007 2.545-1.608-.117.003-.291.02-.41.024zm0 7.16c-.474.31-.984.58-1.519.806-1.835.779-4.048 1.26-6.198 1.62-2.15.36-4.249.585-5.87.68-.81.047-1.455.053-2.011.042a6.518 6.518 0 0 1-.821-.054 2.463 2.463 0 0 1-.575-.145c-.042-.015-.107-.043-.164-.067-.523.295-.855.62-1.027.956.474-.01.99-.033 1.724-.076a95.279 95.279 0 0 0 7.266-.711c2.634-.37 5.258-.875 7.06-1.467 1.452-.476 2.232-1.006 2.545-1.608-.117.004-.291.021-.41.025zm0 7.136a9.87 9.87 0 0 1-1.519.805c-1.834.781-4.007 1.28-6.157 1.643-2.15.364-4.29.56-5.911.657-.81.048-1.455.077-2.011.068a6.609 6.609 0 0 1-.821-.054 2.47 2.47 0 0 1-.575-.145c-.042-.015-.107-.043-.164-.067-.523.295-.855.618-1.027.955.474-.01.99-.032 1.724-.076a95.284 95.284 0 0 0 7.266-.711c2.634-.369 5.258-.875 7.06-1.466 1.473-.483 2.246-1.02 2.545-1.634-.115.003-.29.021-.41.024zm0 7.16a9.873 9.873 0 0 1-1.519.806c-1.834.78-4.007 1.279-6.157 1.643-2.15.364-4.29.56-5.911.656-.81.049-1.455.078-2.011.068a6.591 6.591 0 0 1-.821-.054 2.46 2.46 0 0 1-.575-.145c-.042-.015-.107-.043-.164-.067-.523.296-.855.619-1.027.956.474-.01.99-.033 1.724-.076a95.284 95.284 0 0 0 7.266-.711c2.634-.37 5.258-.875 7.06-1.467 1.473-.483 2.246-1.02 2.545-1.633-.115.003-.29.02-.41.024zm0 7.16a9.87 9.87 0 0 1-1.519.807c-1.834.78-4.007 1.278-6.157 1.642-2.15.364-4.29.56-5.911.657-.81.048-1.455.078-2.011.068a6.591 6.591 0 0 1-.821-.054 2.47 2.47 0 0 1-.575-.145c-.047-.017-.098-.064-.164-.093-.523.295-.855.62-1.027.956.474-.01.99-.034 1.724-.076a95.71 95.71 0 0 0 7.266-.711c2.634-.366 5.26-.852 7.06-1.441 1.472-.481 2.246-1.021 2.545-1.634-.115.003-.29.021-.41.025zm.246 7.351c-.37.042-1.077.134-1.56.195-.17.058-.318.131-.492.182-1.897.556-4.098.758-6.24.855-.242.01-.459.009-.697.016-.62.092-1.183.165-1.807.26-1.047.16-1.013.148-1.97.296 1.273-.016 2.39.024 3.736-.042 2.638-.13 5.166-.4 6.855-.789 1.126-.26 1.792-.581 2.175-.973z" style="text-indent:0;text-align:start;line-height:normal;text-transform:none;block-progression:tb;marker:none;-inkscape-font-specification:Sans" font-weight="400" color="#000" fill="#ccc" overflow="visible" font-family="Sans"/><path d="M198.531 119.063a3.337 3.337 0 0 1-.875 1.218c-.613.538-1.416.961-2.344 1.344-1.854.765-4.225 1.308-6.593 1.719-2.368.41-4.722.655-6.5.781-.89.063-1.645.126-2.188.125-.271 0-.496-.04-.687-.063-.096-.01-.16.009-.281-.03a.756.756 0 0 1-.22-.126c-.024-.018-.062-.065-.093-.093-.11.256-.187.537-.187.812 0 .244.18.395.28.469.102.074.159.105.22.125.121.04.185.02.28.031.192.022.417.062.688.063.544 0 1.299-.062 2.188-.125a67.042 67.042 0 0 0 6.5-.782c2.368-.41 4.74-.953 6.594-1.718.927-.383 1.73-.806 2.343-1.344.614-.538 1.063-1.252 1.063-2a.56.56 0 0 0-.188-.406zm0 7.687a3.31 3.31 0 0 1-.875 1.188c-.613.538-1.416.96-2.344 1.343-1.854.766-4.225 1.34-6.593 1.75a67.04 67.04 0 0 1-6.5.781c-.89.063-1.645.095-2.188.094-.271 0-.496-.01-.687-.031a1.244 1.244 0 0 1-.281-.063.756.756 0 0 1-.22-.125c-.024-.018-.062-.065-.093-.093-.11.256-.187.537-.187.812 0 .244.18.395.28.469.102.074.159.105.22.125.121.04.185.052.28.063.192.021.417.03.688.03.544.002 1.299-.03 2.188-.093a67.04 67.04 0 0 0 6.5-.781c2.368-.41 4.74-.985 6.594-1.75.927-.383 1.73-.806 2.343-1.344.614-.538 1.063-1.22 1.063-1.969a.561.561 0 0 0-.188-.406zm0 7.656a3.337 3.337 0 0 1-.875 1.219c-.613.538-1.416.961-2.344 1.344-1.854.765-4.225 1.308-6.593 1.719a67.04 67.04 0 0 1-6.5.78c-.89.064-1.645.127-2.188.126-.271 0-.496-.041-.687-.063a1.25 1.25 0 0 1-.281-.062c-.061-.02-.118-.02-.22-.094-.024-.018-.062-.062-.093-.094a1.942 1.942 0 0 0-.187.782c0 .244.18.426.28.5.102.073.159.074.22.093.121.04.185.052.28.063.192.021.417.062.688.062.544.001 1.299-.062 2.188-.125a67.04 67.04 0 0 0 6.5-.781c2.368-.41 4.74-.953 6.594-1.719.927-.382 1.73-.805 2.343-1.343.614-.538 1.063-1.252 1.063-2a.563.563 0 0 0-.188-.407zm0 7.688a3.31 3.31 0 0 1-.875 1.187c-.613.538-1.416.961-2.344 1.344-1.854.765-4.225 1.34-6.593 1.75-2.368.41-4.722.655-6.5.781-.89.063-1.645.095-2.188.094-.271 0-.496-.01-.687-.031a1.244 1.244 0 0 1-.281-.063.756.756 0 0 1-.22-.125c-.024-.018-.062-.065-.093-.093-.11.256-.187.537-.187.812 0 .244.18.395.28.469.102.074.159.105.22.125.121.039.185.052.28.062.192.022.417.031.688.031.544.001 1.299-.03 2.188-.093a67.042 67.042 0 0 0 6.5-.781c2.368-.411 4.74-.985 6.594-1.75.927-.383 1.73-.806 2.343-1.344.614-.538 1.063-1.22 1.063-1.969a.563.563 0 0 0-.188-.406zm0 7.625a3.337 3.337 0 0 1-.875 1.219c-.613.538-1.416.96-2.344 1.343-1.854.766-4.225 1.308-6.593 1.719a67.04 67.04 0 0 1-6.5.781c-.89.063-1.645.126-2.188.125-.271 0-.496-.04-.687-.062-.096-.01-.16.008-.281-.031a.756.756 0 0 1-.22-.125c-.024-.019-.062-.063-.093-.094-.11.247-.187.506-.187.781 0 .244.18.426.28.5.102.074.159.106.22.125.121.04.185.02.28.031.192.022.417.062.688.063.544 0 1.299-.062 2.188-.125a67.04 67.04 0 0 0 6.5-.781c2.368-.411 4.74-.954 6.594-1.72.927-.382 1.73-.805 2.343-1.343.614-.538 1.063-1.251 1.063-2a.56.56 0 0 0-.188-.406zm0 7.687a3.31 3.31 0 0 1-.875 1.188c-.613.538-1.416.96-2.344 1.344-1.854.765-4.225 1.339-6.593 1.75-2.368.41-4.722.655-6.5.78-.89.064-1.645.096-2.188.094-.271 0-.496-.01-.687-.03a1.25 1.25 0 0 1-.281-.063.756.756 0 0 1-.22-.125c-.024-.019-.062-.066-.093-.094-.11.256-.187.538-.187.813 0 .244.18.394.28.468.102.074.159.106.22.125.121.04.185.052.28.063.192.021.417.03.688.031.544.001 1.299-.03 2.188-.094a67.042 67.042 0 0 0 6.5-.781c2.368-.41 4.74-.985 6.594-1.75.927-.383 1.73-.806 2.343-1.344.614-.538 1.063-1.22 1.063-1.968a.56.56 0 0 0-.188-.407zm0 7.656a3.337 3.337 0 0 1-.875 1.22c-.613.537-1.416.96-2.344 1.343-1.854.765-4.225 1.308-6.593 1.719-2.368.41-4.722.655-6.5.781-.89.063-1.645.126-2.188.125-.271 0-.496-.04-.687-.063a1.244 1.244 0 0 1-.281-.062c-.061-.02-.118-.02-.22-.094-.024-.018-.062-.062-.093-.093a1.942 1.942 0 0 0-.187.78c0 .245.18.427.28.5.102.075.159.075.22.095.121.039.185.051.28.062.192.022.417.062.688.063.544 0 1.299-.063 2.188-.125a67.042 67.042 0 0 0 6.5-.782c2.368-.41 4.74-.953 6.594-1.718.927-.383 1.73-.806 2.343-1.344.614-.538 1.063-1.252 1.063-2a.563.563 0 0 0-.188-.406zm0 7.688a3.31 3.31 0 0 1-.875 1.188c-.613.538-1.416.96-2.344 1.343-1.854.766-4.225 1.34-6.593 1.75a67.04 67.04 0 0 1-6.5.781c-.89.063-1.645.095-2.188.094-.271 0-.496-.01-.687-.031a1.244 1.244 0 0 1-.281-.063.756.756 0 0 1-.22-.125c-.024-.018-.062-.065-.093-.093-.11.256-.187.537-.187.812 0 .244.18.395.28.469.102.074.159.105.22.125.121.04.185.052.28.063.192.021.417.03.688.03.544.002 1.299-.03 2.188-.093a67.04 67.04 0 0 0 6.5-.781c2.368-.41 4.74-.985 6.594-1.75.927-.383 1.73-.806 2.343-1.344.614-.538 1.063-1.22 1.063-1.969a.563.563 0 0 0-.188-.406zm0 7.656a3.33 3.33 0 0 1-.875 1.219c-.614.537-1.448.962-2.375 1.344-1.854.762-4.194 1.311-6.562 1.719a67.352 67.352 0 0 1-6.5.78 32.33 32.33 0 0 1-2.188.094c-.271 0-.496-.04-.687-.062-.096-.01-.16.008-.281-.031a.753.753 0 0 1-.22-.125c-.024-.019-.062-.063-.093-.094-.11.248-.187.506-.187.781 0 .244.18.426.28.5.101.074.159.106.22.125.121.04.185.02.28.031.192.022.417.062.688.063.544.002 1.299-.032 2.188-.094a67.352 67.352 0 0 0 6.5-.781c2.368-.407 4.708-.956 6.562-1.719.927-.381 1.761-.806 2.375-1.343.614-.538 1.063-1.252 1.063-2a.563.563 0 0 0-.188-.407zm0 7.656a3.079 3.079 0 0 1-.937 1.125c-.637.479-1.411.794-2.344 1.063-1.866.539-4.26.832-6.625.969-4.73.274-9.406 0-9.406 0-1.482-.028-.283.99 0 1.187 0 0 4.675.274 9.406 0 2.365-.137 4.76-.43 6.625-.969.933-.269 1.706-.584 2.344-1.062.637-.478 1.125-1.158 1.125-1.906a.567.567 0 0 0-.188-.406z" style="text-indent:0;text-align:start;line-height:normal;text-transform:none;block-progression:tb;marker:none;-inkscape-font-specification:Sans" font-weight="400" color="#000" fill="url(#d)" overflow="visible" font-family="Sans" transform="matrix(.92973 0 0 .92973 -138.258 -90.558)"/><path d="M175.281 103.406v3.969c0 .349 6.235.656 13.906.656 7.672 0 13.875-.307 13.875-.656v-3.969h-27.78z" fill="url(#e)" transform="matrix(.92973 0 0 .92973 -138.258 -90.558)"/><path transform="matrix(.92135 0 0 .92973 -136.641 -90.592)" d="M203.167 103.45c0 .349-6.275.631-14.016.631-7.74 0-14.016-.282-14.016-.63 0-.35 6.275-.632 14.016-.632 7.74 0 14.016.282 14.016.631z" fill="url(#f)"/><path d="M31.534 9.765v1.889c1.966.03 3.937.058 6.101.058 1.968 0 3.743-.033 5.55-.058V9.765c-1.807.025-3.582.058-5.55.058-2.164 0-4.135-.028-6.101-.058z"/><path d="M24.706 5.574v.61c0 .324 5.797.61 12.93.61 7.131 0 12.9-.286 12.9-.61v-.61c0 .324-5.769.61-12.9.61-7.133 0-12.93-.286-12.93-.61z" fill="#fff"/></svg>