<svg viewBox="0 0 512 512" xmlns="http://www.w3.org/2000/svg" xmlns:xlink="http://www.w3.org/1999/xlink"><defs><linearGradient id="a"><stop stop-color="#0096ff" offset="0"/><stop stop-color="#0096ff" stop-opacity="0" offset="1"/></linearGradient><filter id="b" color-interpolation-filters="sRGB"><feGaussianBlur stdDeviation="26.973"/></filter><linearGradient id="c" x1="4602.2" x2="4283.5" y1="3056.6" y2="1453.8" gradientTransform="translate(-763.14 -413.04) scale(1.2485)" gradientUnits="userSpaceOnUse" xlink:href="#a"/><linearGradient id="d" x1="3180.1" x2="1950" y1="3557.4" y2="1361.3" gradientTransform="translate(-763.14 -413.04) scale(1.2485)" gradientUnits="userSpaceOnUse" xlink:href="#a"/></defs><path transform="matrix(.12669 0 0 .12669 -161.007 1.545)" d="M2961.7 1822.4l115.06 38.344c764.93 48.1 1277.3 454.88 1845.2 813.94-103.04-43.921-211.19-77.622-330.25-89.5l-556.91 82.937c-243.55 52.31-27.251 216.94 57.25 352.53-75.706 39.617-121.77 25.802-135.59 24.125-90.861-109.58-198.5-174.43-313.38-219.97-113.35-42.452-223.12-67.026-328.44-69.313l-1021.9 72.594c-149.89 8.612-227.17 77.728-281.25 166.19l-545.47-681.81c-71.241-122.25-43.87-202.26-4.25-277 38.803-69.434 36.188-93.581-46.875-29.812-63.909 54.282-106.38 126.94-58.812 276.78l625.56 814.12c40.341 114.58 162.75 160.8 298.31 196.03 479.53 34.074 847.97-9.676 1248.6-34.094 168.43-16.226 320.98-48.364 417.62-136.38 94.133.834 184.95 7.11 247.16-31.969 50.588 45.006 272.35 27.841 315.06 25.594 337.47-5.886 739.19-96.125 739.19-192.59-11.066-100.52-171.43-199.47-295.72-274.03-867.34-654.4-1434.3-751.04-1990.1-826.72zm1589.8 832.84c170.49-1.14 482.27 87.401 586.72 191.69 116.28 126.24-528.44 237.84-744.09 213.5-145.15 0-219.45-41.37-255.62-100.47l-95.969-156.84c-76.031-122.27 371.38-141.19 484.88-147.03 7.66-.499 15.709-.788 24.094-.844zm-1318.8 170.28c23.156-.083 43.729.248 60.938 1.094 275.72 13.56 464.24 86.247 548.22 225.19 115.6 144.62-1069.8 209.8-1292.9 182.62-245-4.49-385.05-57.511-415.59-126.44-24.109-54.403-2.143-99.603 12.062-146.34 21.923-72.134 246.33-92.794 445.72-102.53 94.042-4.593 453.04-32.92 641.59-33.594z" fill="#1a1a1a" fill-opacity=".354" filter="url(#b)"/><path d="M8.275 174.008c-7.968-.02-5.687 7.988-3.606 13.242l7.78 19.645c1.246 3.147 7.927 17.768 9.129 21.394.56 1.693.475 5.995 2.196 7.388 2.797 2.265 5.955-1.765 1.398-13.346l-10.198-25.92c-2.701-6.864-6.394-12.048 6.872-5.724l53.443 26.719c14.528 7.594 15.308 15.47 15.606 28.164l1.678 63.335c.862 32.52 32.614 54.502 60.367 58.716 14.698 2.232 44.429-.843 66.329-4.192 38.378-5.87 74.268-58.032 85.957-118.162 1.847-7.356-2.957-22.17 11.133-20.033 12.784-1.526 14.518-1.774 12.597 8.207-17.458 25.333-9.901 55.68 7.063 88.183l.34-.257c4.66 12.373 12.599 20.02 23.434 22.277 8.908 1.856 30.572-1.918 43.846-4.699 25.847-9.448 31.678-28.88 39.954-47.975 8.74-20.167 21.262-53.301 26.078-75.312 2.306-10.514 4.22-16.272-17.127-18.595-52.716-4.492-104.383-8.283-154.935-11.335-13.64 1.29-23.054 3.256-27.973 6.78-9.108-2.604-18.379-3.145-28.13-2.718 0 0-10.2.253-24.383.67-44.727-2.05-87.844 1.187-130.369 6.353-27.353-2.505-35.598-8.422-66.044-19.87-5.811-2.068-9.77-2.926-12.427-2.933zm290.053 20.868c13.511-.009 29.422 2.592 48.379 5.543-6.418 3.453-10.013 8.06-29.012 6.682-17.174.616-23.993-6.36-34.166-10.88 4.592-.937 9.512-1.342 14.799-1.345zm-56.471 3.38c29.159.042 59.17 13.463 51.795 50.771-10.64 53.822-41.396 99.483-76.326 104.738-19.933 2.998-46.994 5.75-60.37 3.753-25.26-3.772-54.16-23.45-54.944-52.555l-1.528-56.686c-.784-29.105 20.088-45.187 51.127-46.925 29.013-1.626 85.953-3.001 85.953-3.001a96.492 96.492 0 0 1 4.292-.091zm183.163 7.749c17.037-.075 36.292 4.856 26.142 42.127-11.801 43.333-27.752 78.954-48.439 83.294-11.804 2.476-31.07 5.83-38.992 4.18-14.958-3.116-23.711-17.784-24.977-41.802l-1.983-37.654c-1.266-24.018 11.893-45.968 30.275-47.405 17.182-1.342 50.9-2.482 50.9-2.482 2.251-.135 4.641-.246 7.075-.257z"/><path d="M259.185 198.38l-38.778 27.566c-6.822 4.779-12.24 8.009-1.35 7.828 4.383 2 7.764 1.598 9.988-2.16l40.49-32.12z"/><path d="M4440.8 1629c169.33-13.234 501.65-24.453 501.65-24.453 177.47-10.671 441.66-7.158 327.34 412.64-116.3 427.05-273.51 778.09-477.37 820.86-116.33 24.407-306.2 57.472-384.27 41.207-147.42-30.712-233.7-175.26-246.17-411.96l-19.553-371.09c-12.472-236.7 117.23-453.04 298.38-467.2z" fill="url(#c)" fill-rule="evenodd" transform="translate(-83.571 43.456) scale(.10147)"/><path d="M449.269 254.87c-12.821 39.72-29.811 71.548-51.519 75.604-10.394 1.943-26.02 4.433-36.367 4.541.763.232 1.542.432 2.34.598 7.922 1.65 27.188-1.704 38.992-4.18 19.604-4.113 34.957-36.323 46.553-76.564z" fill="#fff" fill-rule="evenodd"/><path d="M294.79 222.754c-2.51 17.56-7.27 27.833-15.44 42.424a1665.256 1665.256 0 0 1-21.253 64.127c23.793-28.422 39.308-62.895 36.694-106.554z"/><path d="M2317.7 1556.1c285.93-16.018 847.08-29.598 847.08-29.598 299.68-12.917 629 113.69 552.75 499.45-104.85 530.42-407.94 980.43-752.18 1032.2-196.44 29.542-463.14 56.684-594.97 36.997-248.94-37.174-533.73-231.11-541.46-517.95l-15.048-558.65c-7.727-286.84 197.95-445.32 503.84-462.46z" fill="url(#d)" fill-rule="evenodd" transform="translate(-83.571 43.456) scale(.10147)"/><path d="M288.976 267.979c-13.658 43.669-41.854 78.393-73.376 82.85-20.375 2.881-48.038 5.527-61.713 3.607-10.199-1.432-20.978-5.25-30.338-11.07 9.945 7.544 22.04 12.457 33.402 14.154 13.377 1.997 40.438-.756 60.371-3.753 30.742-4.624 58.247-40.549 71.654-85.788z" fill="#fff" fill-rule="evenodd"/><path d="M8.275 174.008c-3.684-.01-4.862 1.62-5.004 3.93a9.095 9.095 0 0 1 1.766-.15c2.656.007 6.616.866 12.427 2.934 30.446 11.448 38.691 17.365 66.044 19.87 88.15-12.496 109.05-8.303 176.456-7.949-17.238-3.359-28.188-2.614-42.841-2.186-44.727-2.05-87.844 1.187-130.37 6.354-27.352-2.505-35.597-8.422-66.043-19.87-5.811-2.068-9.771-2.927-12.427-2.933z" fill="#4d4d4d"/><path d="M271.381 191.43c5.78-.392 15.905-3.28 21.742-3.815 22.09 1.733 159.43 9.449 159.43 9.449s-104.382-8.283-154.935-11.335c-12.174 1.152-20.978 2.846-26.228 5.701z" fill="#333"/><path d="M314.222 211.115c18.797 3.082 21.784-4.714 28.202-8.167-10.681 4.927-16.264 3.924-24.964 4.386 0 0-15.815 1.719-3.239 3.781z" fill="#999"/><path d="M306.764 229.552c-6.09 2.91-3.298 13.598-4.779 19.495-6.601 33.959-20.92 65.374-39.047 87.347 19.653-22.063 35.296-55.17 42.285-91.128 1.083-4.314-.121-11.192 1.54-15.714z" fill="#333"/><g fill="#fff"><path d="M100.019 198.685s-8.115 4.627-12.615 4.87c-6.32.342-18.348-4.887-18.348-4.887l18.348 1.458zM229.535 347.075c-7.664 6.602-12.637 8.267-23.11 5.068 0 0 5.173-6.718 11.555-6.718s11.555 1.65 11.555 1.65zM416.19 323.646s-5.82 5.19-9.873 5.19c-4.053 0-4.804 3.878-4.804 2.41s3.285-7.724 7.338-7.724 7.338.123 7.338.123z"/><path d="M399.416 209.512c.194 2.272.505 9.538.919 11.64 14.542-.28 19.003 12.063 20.23 17.475 5.542-.903 9.301-3.77 9.301-3.77s1.174-14.366 1.54-25.302c-11.064-1.838-22.104-.461-31.99-.043zM448.274 225.077c-13.115 13.078-13.327 16.7-12.272-11.596 6.097-.99 12.425 5.75 12.272 11.596z" fill-opacity=".784"/></g></svg>