<svg xmlns="http://www.w3.org/2000/svg" width="64" height="64" viewBox="0 0 16.933 16.933"><g font-weight="400" font-family="sans-serif" letter-spacing="0" word-spacing="0"><path style="line-height:1.25;font-variant-ligatures:normal;font-variant-position:normal;font-variant-caps:normal;font-variant-numeric:normal;font-variant-alternates:normal;font-feature-settings:normal;text-indent:0;text-align:start;text-decoration-line:none;text-decoration-style:solid;text-decoration-color:#000;text-transform:none;text-orientation:mixed;white-space:normal;shape-padding:0;isolation:auto;mix-blend-mode:normal;solid-color:#000;solid-opacity:1" d="M1.8 4.114C.919 5.352.678 7.176.678 9.208c0 2.028.43 3.726 1.312 4.968v.003c.882 1.238 2.116 1.854 3.581 1.854.576 0 2.725-.315 2.725-.315l-.285-2.639h-.002s-1.9.33-2.364.33c-.93 0-1.548-.347-1.995-1.022-.447-.682-.7-1.71-.7-3.179 0-1.474.253-2.504.699-3.18h.001c3.745-4.48 5.536 5.994 6.873 9.588l.46.417h1.382l.463-.417 3.434-13.52c-.086-.68-.502-1.105-1.016-1.185-.454-.07-.982.131-1.173.721l-2.4 10.021c-1.08-5.495-5.083-14.13-9.871-7.54z" color="#000" overflow="visible" fill="#999" stroke="#666" stroke-width="1.133" stroke-linejoin="bevel"/></g></svg>