<svg viewBox="0 0 102.66 182.39" xmlns="http://www.w3.org/2000/svg"><defs><radialGradient id="a" cx="460.73" cy="313.51" r="121.28" gradientTransform="matrix(.3661 0 0 .64345 -291.77 -920.42)" gradientUnits="userSpaceOnUse" spreadMethod="reflect"><stop stop-color="#fff" offset="0"/><stop stop-color="#fff" stop-opacity="0" offset="1"/></radialGradient><radialGradient id="b" cx="-123.45" cy="-816.53" r="22.984" gradientTransform="matrix(1.7715 0 0 3.2439 95.248 1831.2)" gradientUnits="userSpaceOnUse"><stop stop-color="#fff" offset="0"/><stop stop-color="#fff" stop-opacity="0" offset="1"/></radialGradient></defs><path d="M102.66 130.12c0 28.869-22.981 52.272-51.328 52.272-23.867 0-43.93-16.59-49.676-39.064A53.27 53.27 0 0 1 .003 130.12C.003 101.251 51.331 0 51.331 0s51.328 101.25 51.328 130.12z" fill="#005dff" fill-opacity=".617"/><path d="M99.652 127.88c0 24.619-21.371 44.577-47.733 44.577S4.186 152.499 4.186 127.88 51.919 16.92 51.919 16.92s47.733 86.343 47.733 110.96z" fill="#3e3ec1" fill-opacity=".537"/><path d="M-78.289-781.55c0 24.704-19.879 44.731-44.401 44.731-24.522 0-44.401-20.027-44.401-44.731 0-24.705 44.401-111.35 44.401-111.35s44.401 86.641 44.401 111.35z" fill="url(#a)" transform="translate(174.61 911.08)"/><path d="M72.77 64.33c9.419 22.427 17.059 44.003 17.059 55.006 0 28.703-23.263 51.974-51.966 51.974-.578 0-1.152-.016-1.726-.035a44.113 44.113 0 0 0 15.044 2.629c24.426 0 44.229-19.795 44.229-44.22 0-12.406-11.412-40.6-22.64-65.354z" fill="#fff" fill-opacity=".617"/><path d="M-123.56-892.11s-28.506 58.733-40.606 141.02c11.708 5.102 25.783 8.093 40.964 8.093 14.96 0 28.865-2.899 40.472-7.866-11.984-82.415-40.829-141.25-40.829-141.25z" fill="url(#b)" transform="translate(174.61 911.08)"/></svg>