<svg xmlns="http://www.w3.org/2000/svg" xmlns:xlink="http://www.w3.org/1999/xlink" viewBox="0 0 2631 2549"><defs><linearGradient id="b"><stop offset="0" stop-opacity=".627"/><stop offset=".15" stop-opacity=".392"/><stop offset="1" stop-color="#162842" stop-opacity=".096"/></linearGradient><linearGradient id="a"><stop offset="0" stop-color="#fff" stop-opacity=".588"/><stop offset="1" stop-color="#fff" stop-opacity="0"/></linearGradient><radialGradient id="n" xlink:href="#a" gradientUnits="userSpaceOnUse" cy="1999.5" cx="677.08" gradientTransform="matrix(1 0 0 .125 0 1749.6)" r="16.201"/><radialGradient id="y" xlink:href="#a" gradientUnits="userSpaceOnUse" cy="2161.7" cx="690.17" gradientTransform="matrix(1 0 0 .01347 0 2132.6)" r="413.47"/><radialGradient id="F" gradientUnits="userSpaceOnUse" cy="1457.8" cx="671.64" gradientTransform="matrix(1 0 0 .28978 0 1057)" r="85.141"><stop offset="0" stop-color="#7a7ad0"/><stop offset="1" stop-color="#7a7ad0" stop-opacity="0"/></radialGradient><radialGradient id="E" xlink:href="#a" gradientUnits="userSpaceOnUse" cy="1478.1" cx="649.08" gradientTransform="matrix(1 0 0 .25727 0 1097.8)" r="141.39"/><radialGradient id="D" xlink:href="#a" gradientUnits="userSpaceOnUse" cy="1508.8" cx="334.31" gradientTransform="matrix(1.5319 0 0 .71627 -170.32 396.53)" r="115.32"/><radialGradient id="C" xlink:href="#b" gradientUnits="userSpaceOnUse" cy="2324.5" cx="424.74" gradientTransform="matrix(4.0082 0 0 1.8544 -1120.5 -2027.4)" r="104.16"/><linearGradient id="B" y2="2296.9" xlink:href="#b" gradientUnits="userSpaceOnUse" x2="1210" gradientTransform="matrix(.60177 0 0 .345 237.99 1653)" y1="2296.9" x1="256.35"/><linearGradient id="A" y2="2215.5" xlink:href="#b" gradientUnits="userSpaceOnUse" x2="558.82" y1="1219.1" x1="-771.72"/><radialGradient id="z" xlink:href="#b" gradientUnits="userSpaceOnUse" cy="1378.6" cx="678.55" gradientTransform="matrix(1 0 0 .09341 0 1249.8)" r="560.7"/><radialGradient id="x" xlink:href="#a" gradientUnits="userSpaceOnUse" cy="2255.1" cx="677.31" gradientTransform="matrix(1.6177 0 0 .1572 -418.35 1900.6)" r="495.06"/><radialGradient id="w" xlink:href="#b" gradientUnits="userSpaceOnUse" cy="2167.9" cx="680.47" gradientTransform="matrix(1 0 0 .07824 0 1998.3)" r="514.88"/><radialGradient id="v" xlink:href="#a" gradientUnits="userSpaceOnUse" cy="1498.3" cx="678.55" gradientTransform="matrix(1.2246 -.93275 .0289 .03794 -195.68 2074.4)" r="560.7"/><linearGradient id="u" y2="2346.9" xlink:href="#b" gradientUnits="userSpaceOnUse" x2="276.1" gradientTransform="translate(-9.547 -112.65)" y1="2319.1" x1="-175.79"/><radialGradient id="t" xlink:href="#b" spreadMethod="reflect" gradientUnits="userSpaceOnUse" cy="1511.8" cx="676.19" gradientTransform="matrix(1.0841 0 0 .05177 -56.885 1433.5)" r="431.27"/><linearGradient id="s" y2="2451.4" xlink:href="#b" gradientUnits="userSpaceOnUse" x2="1197" y1="1677.8" x1="2078.4"/><linearGradient id="r" y2="2346.9" xlink:href="#b" gradientUnits="userSpaceOnUse" x2="276.1" y1="2319.1" x1="-175.79"/><linearGradient id="q" y2="2260.7" xlink:href="#b" gradientUnits="userSpaceOnUse" x2="892.94" y1="2260.7" x1="150.69"/><linearGradient id="p" y2="2296.9" xlink:href="#b" gradientUnits="userSpaceOnUse" x2="1210" y1="2296.9" x1="256.35"/><radialGradient id="o" xlink:href="#a" gradientUnits="userSpaceOnUse" cy="2421.3" cx="762.42" gradientTransform="matrix(1 0 0 .14728 0 2064.7)" r="423.61"/><radialGradient id="m" xlink:href="#b" spreadMethod="reflect" gradientUnits="userSpaceOnUse" cy="2202.5" cx="681.23" gradientTransform="matrix(.35229 0 0 .09326 441.23 1997.1)" r="538.25"/><radialGradient id="l" xlink:href="#b" spreadMethod="reflect" gradientUnits="userSpaceOnUse" cy="2345.9" cx="680.45" gradientTransform="matrix(2.6448 0 0 .82061 -1119.2 420.84)" r="529.76"/><radialGradient id="k" xlink:href="#b" gradientUnits="userSpaceOnUse" cy="2211.6" cx="695.88" gradientTransform="matrix(.9996 -.02812 .00194 .06907 -4.236 2083.2)" r="341.85"/><radialGradient id="G" xlink:href="#b" spreadMethod="reflect" gradientUnits="userSpaceOnUse" cy="1471.9" cx="174.66" gradientTransform="matrix(.4638 0 0 .16573 -155.83 821.93)" r="595.57"/><linearGradient id="i" y2="1975.8" xlink:href="#b" spreadMethod="reflect" gradientUnits="userSpaceOnUse" x2="637.85" gradientTransform="translate(-25.945 -75.426) scale(1.0381)" y1="1978.5" x1="134.66"/><radialGradient id="h" xlink:href="#b" spreadMethod="reflect" gradientUnits="userSpaceOnUse" cy="1576.9" cx="678.55" gradientTransform="matrix(1.1124 0 0 .187 -76.252 1151.9)" r="560.69"/><radialGradient id="g" xlink:href="#a" spreadMethod="reflect" gradientUnits="userSpaceOnUse" cy="3136.7" cx="1335.4" gradientTransform="matrix(1 0 0 .22691 0 1676.8)" r="512.21"/><radialGradient id="f" xlink:href="#a" gradientUnits="userSpaceOnUse" cy="1508.5" cx="682.93" gradientTransform="matrix(1.3 0 0 18.66 -204.88 -26578)" r="47.026"/><radialGradient id="e" xlink:href="#a" gradientUnits="userSpaceOnUse" cy="1387.3" cx="708.12" gradientTransform="matrix(2.0832 0 0 .73226 -767.04 399.01)" r="114.36"/><linearGradient id="c" y2="973.89" xlink:href="#b" spreadMethod="reflect" gradientUnits="userSpaceOnUse" x2="673.57" y1="973.89" x1="91.982"/><linearGradient id="j" y2="1717.7" xlink:href="#b" spreadMethod="reflect" gradientUnits="userSpaceOnUse" x2="722.34" y1="1717.7" x1="126.35"/><radialGradient id="d" xlink:href="#a" gradientUnits="userSpaceOnUse" cy="1211.5" cx="761.39" gradientTransform="matrix(1 0 0 6.2487 0 -6358.7)" r="28.097"/></defs><path d="M678.96 928.7c-294.99 0-538.58 21.053-586.98 48.853 82.808 24.217 313.68 41.534 586.98 41.534 273.29 0 504.14-17.318 586.94-41.534-48.394-27.8-291.95-48.853-586.94-48.853z" fill="url(#c)"/><path d="M2558.7 70.781a20.68 20.68 0 0 0-2.969.281l-631.66 78.094c-.106-.313-.203-.643-.312-.937-.098-.262-.182-.507-.281-.75-1.297-3.188-2.732-4.781-4.157-4.781-1.424 0-2.828 1.594-4.125 4.78-.099.244-.214.488-.312.75-.077.207-.144.442-.219.657-.017-.043-.046-.083-.062-.125-2.576-6.465-5.555-6.44-7.969.063-.092.244-.19.486-.28.75-.123.356-.259.74-.376 1.125-.086-.237-.163-.466-.25-.688-2.559-6.554-5.454-6.504-7.687.125-.084.246-.167.518-.25.781a37.155 37.155 0 0 0-.47 1.688c-.062-.188-.123-.382-.187-.563-.092-.26-.188-.507-.28-.75-2.543-6.643-5.323-6.568-7.376.188-.077.247-.144.485-.219.75a41.979 41.979 0 0 0-.593 2.375c-.14-.447-.264-.902-.407-1.313-.09-.26-.189-.507-.28-.75-2.525-6.733-5.19-6.633-7.063.25-.07.249-.12.517-.188.781a44.765 44.765 0 0 0-.687 3.063c-.213-.73-.437-1.42-.657-2.063-.089-.259-.19-.507-.28-.75-2.508-6.822-5.058-6.698-6.75.313-.063.25-.128.484-.188.75-.275 1.221-.504 2.646-.72 4.156-.31-1.16-.61-2.25-.937-3.219-.087-.258-.193-.507-.28-.75-2.49-6.911-4.925-6.762-6.438.375-.055.251-.104.515-.157.782-.304 1.546-.543 3.383-.75 5.375a63.545 63.545 0 0 0-1.28-4.5c-.087-.258-.165-.507-.25-.75-2.474-7.001-4.793-6.828-6.126.437-.048.252-.111.483-.156.75-.323 1.922-.545 4.233-.719 6.813-.526-2.258-1.071-4.303-1.625-6a44.84 44.84 0 0 0-.25-.75c-2.455-7.09-4.66-6.893-5.812.5-.041.253-.088.513-.125.78-.332 2.37-.52 5.335-.625 8.657-.662-3.04-1.37-5.742-2.063-7.906-.082-.257-.168-.507-.25-.75-2.438-7.18-4.527-6.957-5.5.562-.033.255-.064.513-.094.782-.76 6.79-3.781 11.25-3.781 11.25s-4.208-.792-8.032-5.907c-.163-.22-.339-.421-.5-.625-4.376-5.458-7.053-4.642-7.156 2.157v.78c-.01 3.708-.53 6.188-.53 6.188s-2.7.515-4.876-1.968a32.803 32.803 0 0 0-.531-.594c-4.887-5.223-7.252-4.26-6.25 2.562.03.246.086.522.125.782.687 4.521-.938 4.812-.938 4.812s-2.19 2.166-5.469-1.031c-.192-.189-.407-.357-.593-.531-5.398-4.988-7.389-3.877-5.282 2.968.07.24.14.5.22.75 1.679 5.325.718 8.313.718 8.313s-12.288-9.739-14.344-8.125c-1.06.832.195 4.427 3.125 9.719.99 1.786-5.787-1.79-4.437.344l-1058.6 1268.1c9.087 9.556 28.694 14.725 51.188 12.28 18.387-1.999 34.398-8.622 44.094-17.219l7.04-8.5 1010-1209.8-.031-.03c3.648-.577 6.915-1.102 9.343-.563 5.379 4.484 7.8-2.968 8.25-6.281.032-.255.064-.513.094-.782.197-1.757.334-3.835.406-6.125.496 2.087 1.013 4.003 1.532 5.594.084.258.166.507.25.75 2.455 7.09 4.66 6.892 5.812-.5.041-.253.087-.514.125-.781.19-1.36.322-2.931.438-4.625.374 1.464.733 2.85 1.125 4.031.086.258.195.507.281.75 2.473 7 4.792 6.859 6.125-.406.048-.252.08-.515.125-.781.17-1.009.34-2.145.469-3.344.261.94.51 1.851.781 2.656.087.259.193.507.281.75 2.49 6.911 4.924 6.794 6.438-.344.055-.25.103-.515.156-.781.142-.726.253-1.546.375-2.375.171.571.354 1.11.531 1.625.09.26.16.538.25.781 2.507 6.822 5.057 6.698 6.75-.312.062-.25.128-.516.188-.782.112-.499.241-1.013.343-1.562.084.256.166.538.25.781.091.26.159.507.25.75 2.525 6.733 5.19 6.634 7.063-.25.07-.248.15-.516.219-.781.069-.271.153-.557.218-.844.092.26.189.507.282.75 2.541 6.644 5.321 6.569 7.375-.187.077-.247.144-.517.218-.782.034-.119.061-.252.094-.375.028.074.066.147.094.22 2.56 6.553 5.454 6.503 7.688-.126.077-.224.144-.448.219-.687 2.546 6.14 5.47 6.017 7.843-.375.038-.103.087-.207.125-.313 2.525 5.601 5.484 5.359 7.97-.75.065-.162.125-.332.187-.5v2.656c108.21-11.127 437.78-52.59 650.16-79.094 16.897-4.492 14.815-73.558-15.125-72.875z" fill-opacity=".863" fill="#ccc"/><path style="block-progression:tb;text-indent:0;text-transform:none" d="M2584.3 117.59l-643.91 75.031h-.031l-.25.031c-58.034-2.318-86.884-3.955-126.09 28.875l-.406.344-.344.406-1050.4 1250.8c2.976-.056 6.02-.225 9.125-.562 2.737-.298 5.413-.725 8.031-1.219l1042-1240.8c30.627-32.271 77.467-23.096 119.16-25.906h.156l.125-.031 641.31-74.72c.852-3.678 1.366-7.857 1.5-12.25z" fill-opacity=".863" color="#000" fill="#00f"/><path d="M2558.7 70.781a20.68 20.68 0 0 0-2.969.281l-631.66 78.094c-.105-.313-.203-.643-.312-.937-.098-.262-.182-.507-.281-.75-.177-.434-.35-.844-.532-1.219l-7.625.937c-.04.097-.084.182-.125.282-.099.243-.214.487-.312.75-.077.206-.144.44-.219.656-.017-.043-.046-.083-.062-.125a20.813 20.813 0 0 0-.625-1.406l-7.094.844c-.083.204-.168.405-.25.625-.092.244-.19.486-.28.75-.123.356-.259.74-.376 1.125-.086-.237-.163-.466-.25-.688a21.56 21.56 0 0 0-.687-1.594l-6.657.813c-.112.293-.234.581-.343.906-.084.246-.167.518-.25.781a37.155 37.155 0 0 0-.47 1.688c-.062-.188-.123-.382-.187-.563-.092-.26-.188-.507-.28-.75a21.635 21.635 0 0 0-.782-1.781l-6.156.719c-.143.39-.302.801-.438 1.25-.077.247-.144.485-.219.75a41.893 41.893 0 0 0-.593 2.375c-.14-.447-.264-.902-.407-1.313-.09-.26-.189-.507-.28-.75-.278-.738-.535-1.395-.813-1.969l-5.75.688c-.163.472-.347.97-.5 1.531-.07.249-.12.516-.188.781a44.765 44.765 0 0 0-.687 3.063c-.213-.73-.437-1.42-.657-2.063-.089-.259-.19-.507-.28-.75a23.387 23.387 0 0 0-.907-2.187l-5.313.656a23.535 23.535 0 0 0-.53 1.844c-.063.25-.128.484-.188.75-.242 1.073-.433 2.319-.625 3.625l698.59-83.906c-3.23-2.495-7.03-3.913-11.438-3.813zm-689.47 81.938l-4.906.594a24.777 24.777 0 0 0-.532 2.125c-.055.25-.103.515-.156.781-.192.977-.351 2.106-.5 3.281l8.156-.969c-.262-.968-.503-1.895-.78-2.718-.088-.259-.194-.507-.282-.75a23.244 23.244 0 0 0-1-2.344zm-8.938 1.063l-4.53.562c-.2.693-.363 1.516-.532 2.438-.048.251-.111.483-.156.75-.154.915-.262 1.921-.375 3l7.656-.938c-.248-.89-.5-1.745-.75-2.5-.086-.258-.164-.507-.25-.75a23.93 23.93 0 0 0-1.063-2.563zm-8.937 1.093l-4.125.469c-.21.77-.395 1.677-.563 2.75-.04.253-.088.514-.125.781a52.853 52.853 0 0 0-.28 2.656l7.155-.875a55.388 55.388 0 0 0-.687-2.312 44.84 44.84 0 0 0-.25-.75 24.356 24.356 0 0 0-1.125-2.719zm-8.938 1.063l-3.75.437a25.89 25.89 0 0 0-.562 3.063c-.033.254-.064.513-.094.781-.091.814-.197 1.6-.344 2.344l6.813-.813a64.28 64.28 0 0 0-.625-2.125c-.082-.257-.168-.507-.25-.75a25.298 25.298 0 0 0-1.188-2.937zm-21.406 5.406c-1.195-.01-1.994 1.163-2.312 3.5l6.25-.75c-1.591-1.806-2.902-2.74-3.938-2.75zM1807.7 168.16c-1.38.07-1.871 1.978-1.375 5.625l4.438-4.031c-1.268-1.077-2.301-1.633-3.063-1.594zm-11.219 7.594l-2.938 2.656c.135.76.345 1.643.657 2.656.07.24.14.5.218.75.258.816.417 1.547.563 2.25l5.563-5.031c-.155-.131-.31-.25-.47-.406-.192-.189-.406-.357-.593-.531-1.158-1.07-2.162-1.832-3-2.344zm-9.469 8.625l-4.718 4.25a64.711 64.711 0 0 0 1.624 3.094c.99 1.786-5.787-1.79-4.437.343l-680.91 815.66a2.594 2.567 0 0 0 2.094-1.031l679.19-808.88.03-.031 11.532-10.47a82.126 82.126 0 0 0-4.406-2.937z" fill="#2323fa"/><path d="M734.03 1035.9c-.63 4-.88 8.3-.65 12.8 11.3 50.6 82.62 736.7 45.5-2.2-.19-3.7-.66-7.2-1.41-10.6h-43.44z" fill="url(#d)"/><path d="M690.52 1365.7c-71.705 4.054-131.07 22.702-131.07 50.714 0 28.013 58.686 50.73 131.07 50.73 72.386 0 125.44-22.087 136.79-49.712 11.947-29.069 110.82-65.729-136.79-51.732z" opacity=".3" fill="url(#e)"/><path d="M682.77 1021.9c25.144 0 45.386 31.594 45.386 70.838 6.656 1375-90.771 1369.2-90.771 0 0-39.244 20.242-70.838 45.386-70.838z" fill="url(#f)"/><path style="block-progression:tb;text-indent:0;text-transform:none" d="M834 1528c-40.976 2.344-84.069 3.78-128.62 4.219l-523.55 492.03-16.748 15.739c-21.555 39.568 13.726 103.72 54.222 65.666z" fill-opacity=".392" color="#000" fill="#ccc"/><path style="block-progression:tb;text-indent:0;text-transform:none" d="M797.94 1529.8c-7.556.325-15.167.58-22.844.844l-606.66 570.6c2.922 4.399 6.398 8.122 10.312 10.875l619.19-582.28z" fill-opacity=".392" color="#000" fill="#00f"/><path d="M680.45 2062.7c283.76 0 512.21-37.308 512.21 32.633v63.633c0 69.941-228.44 126.25-512.21 126.25-283.76 0-512.21-56.306-512.21-126.25v-63.633c0-69.941 228.44-32.633 512.21-32.633z" fill="url(#g)"/><path d="M678.56 1326.2c-281.79 0-514.48 43.909-560.71 101.89 79.102 50.508 299.64 86.625 560.71 86.625 261.06 0 481.58-36.119 560.68-86.625-46.229-57.98-278.88-101.89-560.68-101.89z" fill="url(#h)"/><path d="M1247.3 1446.9c-130.41 49.264-338.67 80.999-574.21 80.999-226.72 0-428.16-29.394-559.24-75.53l37.031 786.14c-.226 2.153-.187 93.217-.187 93.217 0 98.908 236.29 178.53 529.77 178.53s529.94-79.621 529.74-178.53l-.188-93.217c0-1.386 20.114-427.7 37.28-791.61z" fill="url(#i)"/><path d="M1269.1 975.28c-143.1 17.07-354.03 27.82-590.13 27.82-234.48 0-444.13-10.61-587.13-27.48l.254 15.22 58.786 1247.7c-.23 2.1-.19 93.2-.19 93.2 0 98.9 236.29 178.5 529.78 178.5 293.48 0 529.93-79.6 529.73-178.5l-.2-93.2c0-2.2 57.4-1217.5 58.2-1235.7.4-.5.8-25.72.9-27.52z" fill="url(#j)"/><path d="M1037.5 2212.1c.2 7.08-79.014 24.001-171.08 22.282-344.4-6.429-295.29 12.516-441.63 4.404-24.201-2.336 70.861-14.152 55.464-21.067-27.415-12.312-138.09-13.88-126.07-14.928 60.865-5.306 398.44 2.54 511.52 5.95 113.08 3.408 171.61-3.722 171.81 3.359z" fill="url(#k)"/><path d="M680.45 2195.6c293.49 0 529.76-52.76 529.76 46.15v89.988c0 98.91-236.27 178.54-529.76 178.54s-529.76-79.627-529.76-178.54v-89.988c0-98.91 236.27-46.15 529.76-46.15z" fill="url(#l)"/><path d="M680.49 2339.9c-282.86 0-510.59-86.308-510.47-96.133l-7.723-168.33c55.972 30.875 218.01 108.63 511.8 116.53 552.22 14.852 433.75-90.718 525.01-126.81 4.88 59.484-8.966 160.51-8.507 174.48.46 13.964-227.24 100.27-510.11 100.27z" fill="url(#m)"/><path d="M693.28 1999.5a16.201 2.025 0 1 1-32.403 0 16.201 2.025 0 1 1 32.403 0z" transform="matrix(1.5031 -.22012 .29501 2.0144 -527.92 -1565.3)" fill="url(#n)"/><path d="M693.28 1999.5a16.201 2.025 0 1 1-32.403 0 16.201 2.025 0 1 1 32.403 0z" transform="matrix(.81144 -.14256 .15926 1.3046 209.16 -227.22)" fill="url(#n)"/><path d="M693.28 1999.5a16.201 2.025 0 1 1-32.403 0 16.201 2.025 0 1 1 32.403 0z" transform="matrix(.75761 -.3237 .45233 1.234 -319.45 -24.159)" fill="url(#n)"/><path d="M693.28 1999.5a16.201 2.025 0 1 1-32.403 0 16.201 2.025 0 1 1 32.403 0z" transform="matrix(.86379 .60677 -.81319 1.1576 1226.2 -560.93)" fill="url(#n)"/><path d="M693.28 1999.5a16.201 2.025 0 1 1-32.403 0 16.201 2.025 0 1 1 32.403 0z" transform="matrix(1.0165 .28461 -.38143 1.3623 278.22 -644.14)" fill="url(#n)"/><path d="M693.28 1999.5a16.201 2.025 0 1 1-32.403 0 16.201 2.025 0 1 1 32.403 0z" transform="matrix(1.0378 .19305 -.25872 1.3909 54.366 -611.1)" fill="url(#n)"/><path d="M693.28 1999.5a16.201 2.025 0 1 1-32.403 0 16.201 2.025 0 1 1 32.403 0z" transform="matrix(.59262 .39171 -.4565 .91335 680.94 36.349)" fill="url(#n)"/><path d="M1186 2358.9c-93.504 62.491-304.4 105.88-550.62 105.88-107.98 0-209.14-8.363-296.59-23 92.117 26.155 211.23 41.906 341.66 41.906 237.84 0 438.23-52.31 505.56-124.78z" fill="url(#o)"/><path d="M1210 2247c-108.44 57.422-347.2 89.51-622.93 76.394-120.92-5.752-233.7-19.491-330.76-38.766 101.59 31.024 234.04 53.098 380.09 60.046 266.34 12.669 493.87-28.893 573.6-97.674z" fill="url(#p)"/><path d="M150.84 2197.8c-.083 1.306-.156 2.625-.156 3.938v16c.009 68.698 213.98 89.6 345.81 99.719 148.16 11.37 286.6 6.452 396.44-10.938-102.25 6.602-218.84 5.913-341.5-3.5-152.92-11.736-374.29-20.462-400.59-105.22z" fill="url(#q)"/><path d="M161.34 2278.3c120.19 80.703-35.445 39.064 74.256 124.88-91.771-47.922-73.377-64.193-74.256-124.88z" fill="url(#r)"/><path d="M1022 2076.6c-59.335 0-107.44 23.504-107.44 52.5 0 25.768 37.993 47.173 88.094 51.625 59.25-8.4 96.021-20.38 120.41-33.781 4.123-5.573 6.375-11.576 6.375-17.844 0-28.996-48.103-52.5-107.44-52.5z" fill="url(#s)"/><path style="block-progression:tb;text-indent:0;text-transform:none" d="M244.92 1491.2c10.316 3.175 32.273 8.08 56.667 12.563 96.114 17.661 228.69 28.625 375.13 28.625s279.01-10.964 375.13-28.625c23.563-4.33 44.899-9.078 55.621-12.406-.492.08-.97.17-1.464.25-109.99 17.661-261.7 28.625-429.29 28.625-167.58 0-319.3-10.964-429.29-28.625-.85-.136-1.664-.27-2.509-.406z" color="#000" fill="url(#t)"/><path d="M151.79 2165.7c38.591 25.912 93.61 55.391 84.656 55.805-22.73 1.049-118.45-42.103 1.056 52.851-89.861-21.191-84.833-47.964-85.712-108.66z" fill="url(#u)"/><path d="M118.06 1446.8c-.07.104-.149.209-.219.313 79.102 59.913 299.65 102.75 560.72 102.75 261.06 0 481.59-42.84 560.69-102.75-.07-.104-.148-.21-.219-.313-90.746 55.08-306.93 93.594-560.47 93.594s-469.75-38.512-560.5-93.594z" fill="url(#v)"/><path style="block-progression:tb;text-indent:0;text-transform:none" d="M1195.3 2127.6c-12.338 6.438-29.104 12.841-49.406 18.5-33.397 9.31-76.283 17.174-125.28 23.438-144.25 21.028-733.92 49.498-855.06-41.688l1 21.312c12.144 5.841 26.769 10.944 43.625 15.781 33.652 9.657 76.285 17.566 125.09 23.937 97.617 12.743 219.91 19.176 342.69 19.281 122.78.106 245.94-6.094 345.19-18.781 49.624-6.344 93.246-14.318 128.09-24.031 16.335-4.553 30.717-9.376 43-14.781.253-5.41.745-16.191 1.063-22.969z" color="#000" fill="url(#w)"/><path d="M1115.2 2207c-18.369-.076-.197 24.394-46.178 34.813-104.64 23.71-286.69 56.004-405.14 50.844-277.19-14.593-377.65-39.409-410.07-59.938a29.763 29.763 0 0 1-1.011-3.594c-26.076-.193-50.253-1.996-70.547-5-.005.023-.027.04-.032.063 0 43.645 225.69 79.031 504.1 79.031s486.02-33.636 486.02-77.28c-32.903-13.794-48.796-18.904-57.146-18.939z" fill="url(#x)"/><path d="M1103.6 2161.7a413.47 5.57 0 1 1-826.95 0 413.47 5.57 0 1 1 826.95 0z" fill="url(#y)"/><path d="M678.56 1326.2c-281.79 0-514.49 43.927-560.72 101.91 1.496.955 3.06 1.899 4.656 2.844 55.535-55.406 282.69-96.75 556.06-96.75 273.39 0 500.52 41.337 556.03 96.75 1.596-.945 3.16-1.889 4.656-2.844-46.229-57.98-278.9-101.91-560.69-101.91z" fill="url(#z)"/><path d="M693.28 1999.5a16.201 2.025 0 1 1-32.403 0 16.201 2.025 0 1 1 32.403 0z" transform="matrix(2.0149 0 0 2.2887 -681.3 -3046.8)" fill="url(#n)"/><path d="M693.28 1999.5a16.201 2.025 0 1 1-32.403 0 16.201 2.025 0 1 1 32.403 0z" transform="matrix(1.5588 0 0 1.4437 -377.01 -857.83)" fill="url(#n)"/><path d="M693.28 1999.5a16.201 2.025 0 1 1-32.403 0 16.201 2.025 0 1 1 32.403 0z" transform="matrix(2.4712 0 0 2.2887 -996.69 -2462.6)" fill="url(#n)"/><path d="M693.28 1999.5a16.201 2.025 0 1 1-32.403 0 16.201 2.025 0 1 1 32.403 0z" transform="matrix(1.9362 0 0 2.2887 -635.14 -2435.5)" fill="url(#n)"/><path d="M693.28 1999.5a16.201 2.025 0 1 1-32.403 0 16.201 2.025 0 1 1 32.403 0z" transform="matrix(2.4712 0 0 2.2887 -996.69 -2396.8)" fill="url(#n)"/><path d="M693.28 1999.5a16.201 2.025 0 1 1-32.403 0 16.201 2.025 0 1 1 32.403 0z" transform="matrix(1.9362 0 0 1.7932 -634.47 -1365.2)" fill="url(#n)"/><path d="M693.28 1999.5a16.201 2.025 0 1 1-32.403 0 16.201 2.025 0 1 1 32.403 0z" transform="matrix(1.5588 0 0 1.4437 -378.91 -681.43)" fill="url(#n)"/><path d="M693.28 1999.5a16.201 2.025 0 1 1-32.403 0 16.201 2.025 0 1 1 32.403 0z" transform="matrix(2.4712 0 0 2.2887 -977.64 -2337.5)" fill="url(#n)"/><path d="M693.28 1999.5a16.201 2.025 0 1 1-32.403 0 16.201 2.025 0 1 1 32.403 0z" transform="matrix(1.9362 0 0 2.2887 -636.37 -2477.7)" fill="url(#n)"/><path d="M693.28 1999.5a16.201 2.025 0 1 1-32.403 0 16.201 2.025 0 1 1 32.403 0z" transform="matrix(2.0891 0 0 1.9348 -739.86 -1811.5)" fill="url(#n)"/><path d="M693.28 1999.5a16.201 2.025 0 1 1-32.403 0 16.201 2.025 0 1 1 32.403 0z" transform="matrix(2.1655 0 0 2.0056 -786.85 -1853.1)" fill="url(#n)"/><path d="M693.28 1999.5a16.201 2.025 0 1 1-32.403 0 16.201 2.025 0 1 1 32.403 0z" transform="matrix(2.1655 0 0 2.0056 -785.9 -1967)" fill="url(#n)"/><path d="M693.28 1999.5a16.201 2.025 0 1 1-32.403 0 16.201 2.025 0 1 1 32.403 0z" transform="matrix(3.7682 0 0 3.4899 -1855.8 -4582.1)" fill="url(#n)"/><path d="M693.28 1999.5a16.201 2.025 0 1 1-32.403 0 16.201 2.025 0 1 1 32.403 0z" transform="matrix(2.4778 0 0 2.2949 -982.14 -2119.9)" fill="url(#n)"/><path d="M693.28 1999.5a16.201 2.025 0 1 1-32.403 0 16.201 2.025 0 1 1 32.403 0z" transform="matrix(2.8021 0 0 2.5952 -1201.7 -2701.7)" fill="url(#n)"/><path d="M693.28 1999.5a16.201 2.025 0 1 1-32.403 0 16.201 2.025 0 1 1 32.403 0z" transform="matrix(2.8021 0 0 2.5952 -1201.7 -2852.5)" fill="url(#n)"/><path d="M693.28 1999.5a16.201 2.025 0 1 1-32.403 0 16.201 2.025 0 1 1 32.403 0z" transform="matrix(2.8021 0 0 2.5952 -1201.7 -2885.1)" fill="url(#n)"/><path d="M693.28 1999.5a16.201 2.025 0 1 1-32.403 0 16.201 2.025 0 1 1 32.403 0z" transform="matrix(.82796 0 0 2.2886 104.16 -2344.5)" fill="url(#n)"/><path d="M693.28 1999.5a16.201 2.025 0 1 1-32.403 0 16.201 2.025 0 1 1 32.403 0z" transform="matrix(1.9362 0 0 2.2887 -634.47 -2449.4)" fill="url(#n)"/><path d="M693.28 1999.5a16.201 2.025 0 1 1-32.403 0 16.201 2.025 0 1 1 32.403 0z" transform="matrix(1.0245 .25439 -.34093 1.373 274.68 -679.41)" fill="url(#n)"/><path d="M693.28 1999.5a16.201 2.025 0 1 1-32.403 0 16.201 2.025 0 1 1 32.403 0z" transform="matrix(1.4745 0 0 2.2887 -312.7 -3063.5)" fill="url(#n)"/><path d="M693.28 1999.5a16.201 2.025 0 1 1-32.403 0 16.201 2.025 0 1 1 32.403 0z" transform="matrix(2.3391 0 0 2.2887 -917 -3150.1)" fill="url(#n)"/><path d="M693.28 1999.5a16.201 2.025 0 1 1-32.403 0 16.201 2.025 0 1 1 32.403 0z" transform="matrix(1.6906 0 0 2.2887 -471.19 -3121.2)" fill="url(#n)"/><path d="M693.28 1999.5a16.201 2.025 0 1 1-32.403 0 16.201 2.025 0 1 1 32.403 0z" transform="matrix(1.7726 0 0 2.3996 -532.57 -3435.4)" fill="url(#n)"/><path d="M693.28 1999.5a16.201 2.025 0 1 1-32.403 0 16.201 2.025 0 1 1 32.403 0z" transform="matrix(2.3391 0 0 2.2887 -906.59 -3516.4)" fill="url(#n)"/><path d="M693.28 1999.5a16.201 2.025 0 1 1-32.403 0 16.201 2.025 0 1 1 32.403 0z" transform="matrix(1.3456 0 0 2.2887 -233.88 -3531.2)" fill="url(#n)"/><path d="M693.28 1999.5a16.201 2.025 0 1 1-32.403 0 16.201 2.025 0 1 1 32.403 0z" transform="matrix(1.3456 0 0 2.2887 -225.31 -3577.6)" fill="url(#n)"/><path d="M693.28 1999.5a16.201 2.025 0 1 1-32.403 0 16.201 2.025 0 1 1 32.403 0z" transform="matrix(1.3456 0 0 2.2887 -225.31 -3584.7)" fill="url(#n)"/><path d="M693.28 1999.5a16.201 2.025 0 1 1-32.403 0 16.201 2.025 0 1 1 32.403 0z" transform="matrix(1.3456 0 0 2.2887 -234.55 -3589.8)" fill="url(#n)"/><path d="M693.28 1999.5a16.201 2.025 0 1 1-32.403 0 16.201 2.025 0 1 1 32.403 0z" transform="matrix(.56817 0 0 1.8056 -67.608 -2504)" fill="url(#n)"/><path d="M693.28 1999.5a16.201 2.025 0 1 1-32.403 0 16.201 2.025 0 1 1 32.403 0z" transform="matrix(.56817 0 0 1.8056 -50.753 -2610.5)" fill="url(#n)"/><path d="M498.22 2065.4c-23.418.032-49.707 1.778-78.625 5.406-71.451 8.966-134.45 24.227-167.94 48.5 45.163 16.364 102.47 33.17 172.78 46.531 25.823-31.327 87.948-51.094 130.88-66.375 55.41-19.724 11.392-34.156-57.094-34.062z" fill="url(#A)"/><path d="M966.16 2428.2c-65.257 19.81-208.94 30.881-374.86 26.356-72.765-1.984-140.64-6.724-199.04-13.374 61.136 10.703 140.84 18.319 228.73 20.716 160.28 4.37 297.2-9.968 345.18-33.697z" fill="url(#B)"/><path style="block-progression:tb;text-indent:0;text-transform:none" d="M252.47 2354.6s102.15 12.057 105.22 26.25c11.872 24.516 28.282 37.54 49.516 49.452 16.13 7.072.278 4.29-8.269 3.082-56.755-8.077-142.4-33.344-142.4-33.534 67.193 22.41 131.15 40.242 200.84 47.644-37.397-21.728-83.443-43.114-94.78-80.738-2.814-5.34-9.417-4.016-14.907-4.46z" color="#000" fill="url(#C)"/><path d="M354.53 1391.6c-17.969-.093-40.473 2.159-68.5 6.031-43.017 5.944-80.502 27.851-96.812 61.437 52.935 16.762 123.88 30.636 206.91 40.344 77.885-33.523 77.737-107.2-41.594-107.81z" opacity=".2" fill="url(#D)"/><path d="M736.25 1441.7l-228.56 67.688c41.827 2.7 85.625 4.417 130.84 5.063l151.94-45.72c-5.745 1.753-11.951 3.042-18.469 3.75-22.494 2.445-42.1-2.724-51.188-12.28l15.438-18.5z" opacity=".179" fill="url(#E)"/><path style="block-progression:tb;text-indent:0;text-transform:none" d="M724.75 1463.6l-162.97 48.625c6.151.263 12.343.497 18.562.719l151.72-45.281c-2.715-1.193-5.188-2.53-7.313-4.063z" color="#000" fill="url(#F)"/><path d="M680.94 928.7c-160.79 0-306.34 8.385-411.87 15.58-52.765 3.597-95.473 4-125.33 8.748-12.853 2.044-51.478.266-51.933 18.887 0 5.17 3.39 8.359 6.318 10.325 2.928 1.966 6.356 3.384 10.58 4.792 8.449 2.814 20.112 5.322 35.035 7.728 29.846 4.81 72.564 9.076 125.33 12.674 105.53 7.194 251.08 11.654 411.87 11.654s306.34-4.46 411.87-11.654c52.765-3.598 95.513-7.864 125.36-12.674 14.923-2.406 26.556-4.914 35.005-7.728 7.847-2.586 15.7-4.078 15.888-11.75-5.434-13.55-40.244-20.622-50.893-22.253-29.846-4.811-72.594-5.151-125.36-8.749-105.53-7.194-251.08-15.58-411.87-15.58zm0 11.036c160.52 0 305.86 4.462 410.9 11.623 52.518 3.58 94.995 7.84 124.03 12.519 14.517 2.34 25.717 4.822 32.768 7.172.894.297 1.513.573 2.267.865-.753.292-1.375.569-2.267.866-7.051 2.349-18.251 4.8-32.768 7.14-29.034 4.68-71.511 8.97-124.03 12.55-105.04 7.161-250.38 11.592-410.9 11.592s-305.86-4.43-410.9-11.592c-52.518-3.58-94.995-7.87-124.03-12.55-14.517-2.34-25.717-4.791-32.768-7.14-.887-.296-1.487-.575-2.237-.866.75-.29 1.348-.57 2.237-.865 7.051-2.35 18.251-4.832 32.768-7.172 29.034-4.68 71.511-8.94 124.03-12.519 105.04-7.16 250.38-11.623 410.9-11.623z" style="block-progression:tb;text-indent:0;text-transform:none" color="#000" fill="url(#G)"/></svg>