<svg viewBox="0 0 512 512" xmlns="http://www.w3.org/2000/svg" xmlns:xlink="http://www.w3.org/1999/xlink"><defs><linearGradient id="a"><stop stop-color="#fff" offset="0"/><stop stop-color="#efd073" offset=".45"/><stop stop-color="#fbdb5a" offset=".5"/><stop stop-color="#663e00" offset="1"/></linearGradient><filter id="y" color-interpolation-filters="sRGB"><feGaussianBlur stdDeviation="1.743"/></filter><filter id="z" x="-.464" y="-.464" width="1.928" height="1.928" color-interpolation-filters="sRGB"><feGaussianBlur stdDeviation="13.262"/></filter><filter id="r" x="-.009" y="-2.07" width="1.019" height="5.139" color-interpolation-filters="sRGB"><feGaussianBlur stdDeviation="1.24"/></filter><filter id="j" x="-.076" y="-.176" width="1.153" height="1.351" color-interpolation-filters="sRGB"><feGaussianBlur stdDeviation="13.351"/></filter><filter id="d" color-interpolation-filters="sRGB"><feGaussianBlur stdDeviation="3.097"/></filter><radialGradient id="b" cx="87.451" cy="78.341" r="109.29" gradientTransform="translate(18.525 -72.713) scale(2.0132)" gradientUnits="userSpaceOnUse" xlink:href="#a" spreadMethod="reflect"/><radialGradient id="c" cx="101.62" cy="69.581" r="109.29" gradientTransform="translate(-4.333 -87.762) scale(2.2081)" gradientUnits="userSpaceOnUse" xlink:href="#a" spreadMethod="reflect"/><linearGradient id="e" x1="423.15" x2="353.74" y1="54.091" y2="280.57" gradientTransform="matrix(1.6537 0 0 1.8273 -162.91 -190.46)" gradientUnits="userSpaceOnUse" xlink:href="#a"/><linearGradient id="f" x1="104.19" x2="90.227" y1="96.155" y2="315.08" gradientTransform="matrix(1.3255 0 0 1.202 -92.461 -72.869)" gradientUnits="userSpaceOnUse" xlink:href="#a"/><linearGradient id="g" x1="289.26" x2="289.26" y1="588.13" y2="387.91" gradientTransform="matrix(-1 0 0 1 536.6 -114.07)" gradientUnits="userSpaceOnUse" xlink:href="#a"/><linearGradient id="h" x1="118.36" x2="168.95" y1="1297.1" y2="365.68" gradientTransform="matrix(.96465 0 0 .89819 51.397 90.116)" gradientUnits="userSpaceOnUse" xlink:href="#a" spreadMethod="reflect"/><linearGradient id="k" x1="287.27" x2="98.741" y1="745.54" y2="422.42" gradientTransform="matrix(1.1541 0 0 1.2515 17.687 66.696)" gradientUnits="userSpaceOnUse" xlink:href="#a" spreadMethod="reflect"/><linearGradient id="l" x1="287.27" x2="98.741" y1="745.54" y2="422.42" gradientUnits="userSpaceOnUse" xlink:href="#a" spreadMethod="reflect"/><linearGradient id="n" x1="556.67" x2="556.67" y1="439.54" y2="216.07" gradientUnits="userSpaceOnUse" xlink:href="#a"/><linearGradient id="p" x1="645.68" x2="590.97" y1="380.44" y2="-76.306" gradientTransform="matrix(1.5213 0 0 1.2515 -299.67 93.436)" gradientUnits="userSpaceOnUse" xlink:href="#a" spreadMethod="reflect"/><linearGradient id="q" x1="-3.92" x2="-3.92" y1="229.84" y2="292.44" gradientUnits="userSpaceOnUse" xlink:href="#a"/><linearGradient id="i" x1="164.88" x2="326.56" y1="217.95" y2="220.08" gradientUnits="userSpaceOnUse" xlink:href="#a"/><radialGradient id="v" cx="410.25" cy="237.69" r="53.639" gradientTransform="matrix(1 0 0 .57729 0 100.47)" gradientUnits="userSpaceOnUse" xlink:href="#a"/><radialGradient id="u" cx="424.68" cy="249.93" r="25.258" gradientTransform="matrix(1 0 0 1.183 0 -39.593)" gradientUnits="userSpaceOnUse" xlink:href="#a"/><radialGradient id="m" cx="360.54" cy="298.24" r="19.817" gradientTransform="matrix(3.3037 0 0 7.7121 -762.34 -1986)" gradientUnits="userSpaceOnUse" xlink:href="#a"/><linearGradient id="x" x1="233.1" x2="279.12" y1="357.08" y2="342.21" gradientTransform="matrix(1.37 0 0 1 -101.37 0)" gradientUnits="userSpaceOnUse" xlink:href="#a"/><linearGradient id="w" x1="101.23" x2="250.52" y1="272.35" y2="292.39" gradientUnits="userSpaceOnUse" xlink:href="#a"/><linearGradient id="t" x1="192.18" x2="225.88" y1="195.59" y2="195.59" gradientUnits="userSpaceOnUse" xlink:href="#a"/><linearGradient id="o" x1="41.373" x2="139.81" y1="222.19" y2="222.19" gradientUnits="userSpaceOnUse" xlink:href="#a"/><linearGradient id="s" x1="116.85" x2="186.75" y1="286.49" y2="197.39" gradientUnits="userSpaceOnUse" xlink:href="#a"/></defs><path d="M451.04 162.66c0 114.02-92.43 206.45-206.45 206.45-114.02 0-206.45-92.43-206.45-206.45 0-114.02 92.43-206.45 206.45-206.45 114.02 0 206.45 92.43 206.45 206.45z" fill="url(#b)" transform="translate(7.115 94.247)"/><path d="M244.58-38.182c-79.043 0-147.16 46.642-178.44 113.88 31.282 67.23 99.406 113.85 178.44 113.85 79.04 0 147.19-46.617 178.47-113.85-31.278-67.24-99.428-113.88-178.47-113.88z" fill="url(#c)" filter="url(#d)" transform="translate(7.115 94.247)"/><path d="M402.46 62.509c15.341 25.343 24.186 55.054 24.186 86.799 0 52.072-23.735 98.59-61.033 129.46 16.818-7.272 32.042-15.311 45.478-23.984 17.264-30.608 27.235-66.748 27.235-105.47 0-24.813-4.092-48.549-11.576-70.467-7.374-5.692-15.497-11.124-24.289-16.332z" fill="url(#e)" opacity=".3" transform="translate(7.115 94.247)"/><path d="M103.92 33.484c-7.096 3.236-13.91 6.501-20.426 9.85-23.479 30.386-37.25 67.362-37.25 107.28 0 39.882 13.753 76.858 37.191 107.23a483.657 483.657 0 0 0 20.485 9.904c-26.3-33.866-41.501-74.046-41.501-117.13 0-43.081 15.205-83.256 41.501-117.13z" fill="url(#f)" opacity=".2" transform="translate(7.115 94.247)"/><path d="M394.57 304.5c-41.184 28.378-93.446 45.375-150.38 45.375-55.739 0-107.09-16.253-147.88-43.562 37.527 38.728 90.095 62.812 148.28 62.812 59.077 0 112.34-24.85 149.97-64.625z" fill="url(#g)" opacity=".3" transform="translate(7.115 94.247)"/><path transform="matrix(.99726 0 0 1.00003 -37.153 -19.82)" d="M107.12 272.16c3.841 13.649 9.484 27.288 16.469 40.938 13.969 27.298 53.344 81.906 53.344 81.906s7.15 4.767 15.595 4.321c2.672-3.25 17.356-10.979 20.28-14.07 2.608-12.02 6.12-24.054 10.281-36.095 4.162-12.04 8.96-24.084 14.094-36.125 10.267-24.083 21.822-48.138 32.125-72.094-.527-3.297-5.291-17.803-5.81-21.203-27.981 13.313-37.826 47.727-49.127 71.015-9.596 19.842-18.236 39.658-24.562 59.5-10.168-18.222-21.883-36.318-29.054-54.54-7.172-18.222-12.237-36.435-14.312-54.656-5.671-2.83-19.828-15.445-33.643-17.325-20.596-.615-9.455 34.763-5.679 48.427zm280.31-41c-10.689.032-13.763-6.343-23.951-6.452-2.034 3.319-11.637 13.04-14.018 16.233 3.345 24.033 5.083 48.129 5.063 72.219-.02 24.09-1.756 48.163-4.844 72.094 2.113 3.349 11.708 9.745 13.656 13.094 7.533 0 15.844-3.344 15.844-3.344s8.52-43.9 9.594-65.844c13.042-.291 27.288.48 41.656-.25 7.184-.365 14.413-1.1 21.469-2.531 7.055-1.43 13.945-3.554 20.375-6.688 6.744-3.493 11.99-7.554 15.719-11.968 3.728-4.415 5.947-9.163 6.843-14.094.897-4.932.476-10.05-.937-15.094-1.413-5.045-3.799-10.028-6.719-14.781-4.96-8.543-15.565-16.328-27.781-22.094a111.905 111.905 0 0 0-19.188-6.97c-6.551-1.72-13.138-2.784-19.531-3.03-11.579-.462-22.561-.533-33.25-.5zm-96.844.063c-.362 54.4-.337 109.38 0 163.78h21.656c1.518-27.298 2.346-54.608 2.344-81.906-.002-27.298-.823-54.577-2.344-81.875h-21.656zm105.22 25.688c3.934.03 7.931.181 11.875.656 7.887.95 15.563 3.2 21.406 8.344 6.235 5.816 10.167 12.766 10.719 19.625.552 6.859-2.297 13.625-8.656 19.03-5.247 4.193-12.351 5.703-19.781 6.22-7.43.515-15.24.038-22.22.187-.123-17.995-1.755-36.005-4.78-54 3.623-.01 7.503-.093 11.438-.063z" fill="url(#h)"/><path d="M352.91 174.94a3.557 3.557 0 0 0-2.907 1.631l-.027.03a3.546 3.546 0 0 0-1.344 3.028 692.551 692.551 0 0 1 1.426 17.708c.282.032.57.051.85.088 6.903.884 13.615 2.982 18.728 7.776 5.456 5.42 8.895 11.898 9.378 18.29.483 6.392-2.003 12.698-7.568 17.737-4.48 3.813-10.506 5.223-16.836 5.737 1.383.907 3.107 1.321 4.771 1.165.021-.002.034.002.055 0s.034.002.055 0c17.18-1.021 37.555 3.636 55.966-5.62.004-.003.024 0 .027 0 .022-.01.06-.049.083-.059.013-.006.014-.023.027-.029 4.844-2.28 8.578-5.731 11.27-9.844.118-.512.213-1.027.302-1.544.784-4.596.44-9.366-.796-14.067-1.236-4.7-3.34-9.346-5.895-13.776-4.34-7.962-13.632-15.218-24.322-20.59a94.031 94.031 0 0 0-16.782-6.496 85.75 85.75 0 0 0-4.58-1.165H352.91z" fill="url(#i)" transform="matrix(1.1396 0 0 1.073 -30.478 25.915)"/><path d="M41.391 157.28c12.82 60.785 43.991 121.57 78.286 182.35 10.042-.148 20.576.29 29.99-.206 3.39-3.62 6.97-7.198 10.519-10.64 8.257-26.762 18.643-53.598 29.692-80.411 11.049-26.813 22.749-53.603 33.65-80.274-.707-3.672-1.882-7.039-2.618-10.823h-26.07c-19.839 44.182-40.58 88.364-56.437 132.55-19.129-40.574-36.227-81.15-46.82-121.72-6.379-3.15-12.363-6.628-18.697-9.77-1.763-1.166-4.837-1.277-8.21-1.173-3.374.104-7.049.423-9.94.119H41.392zm206.28 0c-.137 60.567-.11 121.79 0 182.35H272.6a2866.322 2866.322 0 0 0-.007-182.35H247.671zm75.091 0c-2.613 3.695-5.447 7.269-8.35 10.824 1.989 26.758 2.899 53.607 2.876 80.428-.023 26.821-.97 53.613-2.679 80.256 2.613 3.729 5.654 7.119 8.172 10.847h25.765a745.753 745.753 0 0 0 5.396-73.291c13.735-.325 28.561.526 43.135-.287 7.287-.406 14.51-1.229 21.473-2.821 6.963-1.593 13.668-3.956 19.853-7.444 6.484-3.89 11.461-8.404 15.079-13.318 3.618-4.915 5.875-10.23 6.998-15.72 1.123-5.49 1.113-11.156.27-16.772-.845-5.616-2.519-11.182-4.67-16.474-3.588-9.512-12.51-18.171-23.802-24.59-5.646-3.21-11.882-5.86-18.387-7.775-6.505-1.916-13.277-3.097-20.069-3.372-12.3-.513-24.3-.575-36.114-.54-11.814.037-23.443.17-34.946.05zm28.745 28.688c7.823-.023 16.607-.403 24.85.654 8.243 1.058 15.977 3.552 21.469 9.278 5.827 6.475 9.165 14.226 9.293 21.863.129 7.637-2.96 15.159-9.51 21.178-5.399 4.668-12.647 6.368-20.323 6.943-7.676.574-15.795.023-23.134.189a741.746 741.746 0 0 0-2.646-60.105z" filter="url(#j)" transform="matrix(1.1396 0 0 1.073 -30.478 25.915)"/><path transform="matrix(.98744 0 0 .85735 -47.943 -31.267)" d="M95.125 260.16c-.951.002-1.934.03-2.906.063-4.016.134-8.169.483-11.031.156a2.933 3.18 0 0 0-.313 0c-5.092 0-10.232.002-15.406 0a2.933 3.18 0 0 0-2.875 3.844c14.912 76.674 51.04 152.95 90.656 229.09a2.933 3.18 0 0 0 2.594 1.593c11.471-.183 23.646.414 34.72-.218a2.933 3.18 0 0 0 1.968-.97c3.867-4.478 8.02-8.994 12.094-13.28a2.933 3.18 0 0 0 .75-1.313c9.488-33.349 21.42-66.86 34.156-100.38 12.736-33.516 26.245-67.042 38.844-100.47a2.933 3.18 0 0 0 .187-1.812c-.868-4.889-2.232-9.107-3.03-13.562a2.933 3.18 0 0 0-2.907-2.531h-30.062a2.933 3.18 0 0 0-2.688 1.875c-21.893 52.872-44.635 105.83-62.656 158.91-20.828-48.398-39.366-96.72-50.969-144.91a2.933 3.18 0 0 0-1.562-2.032c-7.141-3.825-13.991-8.062-21.281-12-.113-.06-.2-.158-.313-.218-2.39-1.577-5.115-1.849-7.968-1.844zm335.41.125c-13.653.045-27.082.245-40.312.094a2.933 3.18 0 0 0-2.438 1.312c-2.953 4.528-6.166 8.95-9.5 13.375a2.933 3.18 0 0 0-.656 2.25c2.29 33.403 3.34 66.944 3.313 100.44-.027 33.496-1.094 66.937-3.063 100.22a2.933 3.18 0 0 0 .5 2.031c3.148 4.87 6.649 9.105 9.406 13.531a2.933 3.18 0 0 0 2.438 1.375h29.75a2.933 3.18 0 0 0 2.906-2.78c3.368-29.65 5.315-59.29 6.063-88.939 14.964-.235 31.117.63 47.219-.344 8.52-.515 16.996-1.546 25.25-3.593 8.258-2.049 16.259-5.113 23.688-9.657a2.933 3.18 0 0 0 .062-.03c7.771-5.055 13.82-11.004 18.25-17.532 4.433-6.53 7.22-13.652 8.594-20.938 1.375-7.292 1.33-14.753.312-22.094-1.01-7.301-2.96-14.49-5.5-21.28-.009-.028-.021-.036-.03-.063-4.518-12.904-15.339-24.076-28.75-32.344-6.724-4.145-14.128-7.504-21.845-9.969-7.724-2.467-15.806-3.989-23.906-4.344-14.26-.645-28.095-.764-41.75-.719zm-127.28.094a2.933 3.18 0 0 0-2.625 3.156c-.158 75.807-.126 152.41 0 228.22a2.933 3.18 0 0 0 2.906 3.156h28.75a2.933 3.18 0 0 0 2.938-3.031 3895.263 3895.263 0 0 0 0-228.47 2.933 3.18 0 0 0-2.938-3.031h-28.75a2.933 3.18 0 0 0-.281 0zm128.69 42.125c1.832-.018 3.702-.017 5.563 0 4.78.042 9.597.299 14.188.937 9.164 1.275 17.348 4.202 23.03 10.625 6.286 7.602 9.773 16.542 9.907 25.188.134 8.636-3.025 17.103-9.97 24.062-.007.007-.023-.007-.03 0-.02.02-.011.043-.031.063-5.506 5.115-13.19 7.183-21.72 7.875-7.625.619-15.8.18-23.625.219-.144-22.97-1.033-45.94-2.75-68.906 1.811-.023 3.606-.045 5.438-.063z" fill="url(#k)"/><path d="M41.391 157.28c12.82 60.785 43.991 121.57 78.286 182.35 10.042-.148 20.576.29 29.99-.206 3.39-3.62 6.97-7.198 10.519-10.64 8.257-26.762 18.643-53.598 29.692-80.411 11.049-26.813 22.749-53.603 33.65-80.274-.707-3.672-1.882-7.039-2.618-10.823h-26.07c-19.839 44.182-40.58 88.364-56.437 132.55-19.129-40.574-36.227-81.15-46.82-121.72-6.379-3.15-12.363-6.628-18.697-9.77-1.763-1.166-4.837-1.277-8.21-1.173-3.374.104-7.049.423-9.94.119H41.392zm206.28 0c-.137 60.567-.11 121.79 0 182.35H272.6a2866.322 2866.322 0 0 0-.007-182.35H247.671zm75.091 0c-2.613 3.695-5.447 7.269-8.35 10.824 1.989 26.758 2.899 53.607 2.876 80.428-.023 26.821-.97 53.613-2.679 80.256 2.613 3.729 5.654 7.119 8.172 10.847h25.765a745.753 745.753 0 0 0 5.396-73.291c13.735-.325 28.561.526 43.135-.287 7.287-.406 14.51-1.229 21.473-2.821 6.963-1.593 13.668-3.956 19.853-7.444 6.484-3.89 11.461-8.404 15.079-13.318 3.618-4.915 5.875-10.23 6.998-15.72 1.123-5.49 1.113-11.156.27-16.772-.845-5.616-2.519-11.182-4.67-16.474-3.588-9.512-12.51-18.171-23.802-24.59-5.646-3.21-11.882-5.86-18.387-7.775-6.505-1.916-13.277-3.097-20.069-3.372-12.3-.513-24.3-.575-36.114-.54-11.814.037-23.443.17-34.946.05zm28.745 28.688c7.823-.023 16.607-.403 24.85.654 8.243 1.058 15.977 3.552 21.469 9.278 5.827 6.475 9.165 14.226 9.293 21.863.129 7.637-2.96 15.159-9.51 21.178-5.399 4.668-12.647 6.368-20.323 6.943-7.676.574-15.795.023-23.134.189a741.746 741.746 0 0 0-2.646-60.105z" fill="url(#l)" transform="matrix(1.1396 0 0 1.073 -30.478 25.915)"/><path d="M314.19 249.63v1.456c-.026 26.81-1.123 53.573-3.085 80.205 3 3.727 6.49 7.132 9.381 10.859h29.591c.232-1.638.442-3.283.661-4.92l-25.593 1.135c-3.082-3.593-6.725-6.804-9.916-10.393.556-26.05.251-52.202-1.039-78.341z" fill="url(#m)" transform="matrix(1.1396 0 0 1.073 -30.478 25.915)"/><path d="M41.35 156.97c12.82 60.835 43.991 121.67 78.286 182.5h29.771c17.191-60.835 46.083-121.67 71.463-182.5H194.8c-22.958 51.218-47.122 102.44-63.506 153.65-25.796-51.218-48.824-102.44-60.113-153.65H41.35zm203.99 0v182.5h29.522l-.007-182.5H245.34zm77.388 0a986.935 986.935 0 0 1 .019 182.5h25.765c3.01-24.45 4.808-48.9 5.396-73.35h34.884c11.667 0 22.137-1.152 31.297-3.455s17.01-5.757 23.353-10.36c12.786-9.21 19.218-22.82 17.483-40.83-.86-8.923-3.534-16.765-7.737-23.528-4.203-6.762-9.93-12.445-16.921-17.049-6.952-4.645-15.077-8.127-24.21-10.449-9.131-2.321-19.267-3.482-30.377-3.482h-58.951zm27.984 20.288h33.886c12.739 0 23.232 2.979 31.248 8.928 8.016 5.949 12.846 14.372 13.756 25.292.916 11.002-2.535 19.48-9.776 25.429-7.242 5.949-17.627 8.928-30.76 8.928h-34.948a743.62 743.62 0 0 0-3.406-68.577z" fill="url(#n)" transform="matrix(1.1396 0 0 1.073 -30.478 25.915)"/><path d="M64.79 155.12c-3.391.102-7.075.416-9.981.117H41.373c.746 3.463 1.601 6.963 2.468 10.427 2.344-.118 4.695-.263 7.02-.38 2.916.154 6.598-.338 9.98-.61s6.486-.33 8.31.727c6.503 2.768 12.646 5.875 19.194 8.65 12.27 38.655 30.853 77.01 51.47 115.25-.654-1.992-1.215-3.664-1.838-5.562-18.85-39.28-35.646-78.56-46.122-117.84-6.411-3.1-12.443-6.492-18.811-9.582-1.772-1.149-4.862-1.297-8.254-1.195z" fill="url(#o)" transform="matrix(1.1396 0 0 1.073 -30.478 25.915)"/><g><path transform="matrix(.98744 0 0 .85735 -40.753 -21.809)" d="M58.188 252.31c6.38 32.857 16.706 65.706 29.562 98.562h34.188c-12.406-32.854-22.631-65.708-29.312-98.562H58.188zm177.09 0c-13.579 32.854-27.523 65.709-40.438 98.562h31.75c12.74-32.854 26.14-65.708 38.781-98.562h-30.094zm58.312 0l.063 98.562h35.5l-1.5-98.562H293.59zm89.312 0a1341.604 1341.604 0 0 1 4.813 98.562h31.312a1009.615 1009.615 0 0 0-3.813-73.188h39.094c14.701 0 26.78 3.742 36.031 11.188 9.25 7.446 14.856 17.99 15.906 31.656.99 12.89-2.449 22.994-9.75 30.344h41.781c3.664-8.671 5.154-18.766 4.125-30.344-.993-11.168-4.09-20.979-8.937-29.438-4.848-8.458-11.462-15.581-19.531-21.344-8.024-5.813-17.395-10.187-27.938-13.094s-22.241-4.344-35.062-4.344h-68.031z" fill="url(#p)"/><path d="M383.03 159.22c-14.509-.41-29.5.544-44.344.031v.031H325.217c5.388 59.152 5.288 118.73 0 177.88h21.188c2.76-22.958 4.559-46.048 5.156-69.156l3.469.094.812.031-.03-.812-.063-3.5c28.85-.564 58.944 3.111 82.844-11.031.04-.022.082-.043.125-.063 13.953-7.705 22.058-24.296 20-40.219a3.257 3.257 0 0 1 0-.312h-.032c-1.048-19.928-15.577-37.531-33.938-45a3.808 3.808 0 0 1-.093-.031c-13.022-5.74-27.065-7.527-41.625-7.938zm-338.78.063c14.209 63.09 45.001 121.13 76.719 177.88h26.781c17.776-61.492 45.132-119.38 69.625-177.88h-21.094c-21.884 48.74-44.632 97.035-61.344 147.41-1.227 7.231-1.436 7.012-1.266 11.563l-6.64-11.001c-23.457-47.075-45.697-95.91-57.594-147.97zm203.41 0v177.88h24.875v-177.88zm105.25 15.656h31.625v.03c9.05-.245 18.666 1.574 27 5.907 8.336 4.334 15.42 11.373 18.5 21.188.003.009-.003.022 0 .031h.031c.007.023.025.04.032.063h-.032c.007.019-.007.043 0 .062 5.123 14.571.664 33.094-14.469 40.22-.013.005-.017.024-.03.03-.023.01-.042.021-.063.032-.003 0-.027-.002-.032 0-18.41 9.256-38.788 4.603-55.969 5.625-.02.002-.041-.002-.062 0s-.042-.002-.063 0c-2.587.242-5.332-.828-6.687-3.125-1.177-1.996-1.166-3.986-1.125-5.532.041-1.538.175-3.033.25-4.25.075-1.217-.064-2.238 0-2.03l.063-.032a3.494 3.494 0 0 1-.25-1.125c-.4-17.486-1.363-35.006-3-52.406a3.55 3.55 0 0 1 1.343-3.031l.031-.032a3.55 3.55 0 0 1 2.907-1.625z" fill="url(#q)" opacity=".8" transform="matrix(1.1396 0 0 1.073 -30.478 25.915)"/><path transform="matrix(1.3088 0 0 1.1364 -272.689 29.293)" d="M221.09 145.38c.093.48.217.958.313 1.438h25.969c-.1-.48-.216-.959-.313-1.438H221.09zm133.62 0l-.594 1.438h22.72c.184-.48.377-.958.562-1.438H354.71zm46 0v1.438h21.719c-.014-.48-.017-.96-.031-1.438H400.71zm65.375 0c.041.48.085.958.125 1.438h69.188c-5.626-.95-11.634-1.438-18-1.438h-51.312z" fill="#fff" filter="url(#r)"/><path d="M16.673 192.799c.122.545.302 1.064.427 1.61h33.974c-.13-.546-.264-1.065-.392-1.61h-34.01zm174.894 0c-.259.544-.489 1.065-.748 1.61h29.737l.712-1.61h-29.7zm60.221 0v1.61h28.42c-.019-.545-.018-1.066-.036-1.61h-28.383zm85.577 0c.054.544.09 1.065.143 1.61h90.563c-7.364-1.08-15.208-1.61-23.54-1.61h-67.166z" fill="#fff"/><path d="M192.97 161.05c-14.347 33.411-46.384 112.22-58.03 145.63-.71 3.17-2.12 8.816-1.266 11.563 10.711-35.849 45.664-121.19 59.296-157.2z" fill="url(#s)" transform="matrix(1.1396 0 0 1.073 -30.478 25.915)"/></g><path d="M193.63 157.9c-.484 1.063-.964 2.132-1.449 3.195l26.144-1.323c1.02 4.147 2.533 7.788 3.515 11.812-7.403 20.506-15.221 41.097-22.937 61.707 9.061-21.168 18.237-42.312 26.976-63.385-.795-4.069-2.102-7.812-2.93-12.006h-29.318z" fill="url(#t)" transform="matrix(1.1396 0 0 1.073 -30.478 25.915)"/><g><path d="M253.385 198.926v.123c.795-.038 1.592-.086 2.387-.123h-2.387z" fill="#a00"/><path d="M277.248 198.926a2790.939 2790.939 0 0 1 6.345 95.707 2791.39 2791.39 0 0 0-1.665-95.707h-4.68z" fill="#fff"/><path d="M370.28 186.42c-5.614-.014-11.279.519-16.481.831a805.862 805.862 0 0 1 4.772 58.93c.056-.006.114.004.17 0a809.125 809.125 0 0 0-2.313-53.972c6.946-.022 14.738-.38 22.056.66 7.318 1.04 14.186 3.479 19.062 9.114 3.08 3.794 5.39 8.044 6.768 12.439-.698-7.07-3.907-14.017-9.032-19.748-5.102-5.352-12.075-7.43-19.427-8.054-1.838-.156-3.704-.196-5.575-.2z" fill="url(#u)" transform="matrix(1.1396 0 0 1.073 -30.478 25.915)"/></g><path d="M461.93 206.72c.5 4.133.492 8.292-.165 12.382-.877 5.454-2.904 10.779-6.312 15.793-3.408 5.013-8.194 9.694-14.526 13.844-6.05 3.741-12.68 6.424-19.598 8.34-6.918 1.917-14.12 3.074-21.417 3.841-14.595 1.534-29.527 1.454-43.302 2.465.037 1.727.057 3.46.082 5.188 13.59-.272 28.207.498 42.585-.287 7.325-.4 14.583-1.212 21.582-2.78 7-1.567 13.74-3.876 19.956-7.309 6.518-3.827 11.523-8.261 15.16-13.099 3.637-4.836 5.9-10.074 7.029-15.478 1.129-5.403 1.124-10.983.276-16.509a61.737 61.737 0 0 0-1.351-6.391z" fill="url(#v)" transform="matrix(1.1396 0 0 1.073 -30.478 25.915)"/><g><path d="M246.27 247.62c.004 29.896.028 59.803.083 89.54h4.162a52034.933 52034.933 0 0 1-4.245-89.54z" fill="url(#w)" transform="matrix(1.1396 0 0 1.073 -30.478 25.915)"/><path d="M105.18 388.922c.525.86 1.044 1.723 1.57 2.583h.189c-.583-.862-1.178-1.722-1.76-2.583z" fill="#a00"/><path d="M274 341.17c-8.783.322-17.555.653-26.319.975h26.281c.014-.325.024-.65.038-.975z" fill="url(#x)" transform="matrix(1.1396 0 0 1.073 -30.478 25.915)"/></g><g fill="#fff"><path transform="matrix(.79017 0 0 .68417 50.593 58.68)" d="M321.74 233.64l-34.854-31.293-34.854 31.293 31.293-34.854-31.293-34.854 34.854 31.293 34.854-31.293-31.293 34.854z" filter="url(#y)"/><path d="M291.474 207.095l-13.855-10.771-13.856 10.77 12.44-11.996-12.44-11.997 13.856 10.771 13.855-10.771-12.44 11.997z"/><path transform="matrix(.24823 0 0 .14328 212 177.518)" d="M302.14 128.79c0 18.935-15.35 34.286-34.286 34.286-18.935 0-34.286-15.35-34.286-34.286 0-18.935 15.35-34.286 34.286-34.286 18.935 0 34.286 15.35 34.286 34.286z" filter="url(#z)" opacity=".679"/></g><g fill="#fff"><path transform="matrix(.5039 0 0 .4363 -97.74 109.829)" d="M321.74 233.64l-34.854-31.293-34.854 31.293 31.293-34.854-31.293-34.854 34.854 31.293 34.854-31.293-31.293 34.854z" filter="url(#y)"/><path d="M55.873 204.476l-8.835-6.869-8.836 6.869 7.933-7.65-7.933-7.651 8.836 6.869 8.835-6.87-7.933 7.651z"/><path transform="matrix(.1583 0 0 .09137 5.191 185.614)" d="M302.14 128.79c0 18.935-15.35 34.286-34.286 34.286-18.935 0-34.286-15.35-34.286-34.286 0-18.935 15.35-34.286 34.286-34.286 18.935 0 34.286 15.35 34.286 34.286z" filter="url(#z)" opacity=".679"/></g><g fill="#fff"><path transform="matrix(.4929 0 0 .42679 79.526 110.471)" d="M321.74 233.64l-34.854-31.293-34.854 31.293 31.293-34.854-31.293-34.854 34.854 31.293 34.854-31.293-31.293 34.854z" filter="url(#y)"/><path d="M229.787 203.053l-8.643-6.719-8.643 6.72 7.76-7.485-7.76-7.483 8.643 6.719 8.643-6.72-7.76 7.484z"/><path transform="matrix(.15484 0 0 .08938 180.21 184.603)" d="M302.14 128.79c0 18.935-15.35 34.286-34.286 34.286-18.935 0-34.286-15.35-34.286-34.286 0-18.935 15.35-34.286 34.286-34.286 18.935 0 34.286 15.35 34.286 34.286z" filter="url(#z)" opacity=".679"/></g><g fill="#fff"><path transform="matrix(.40037 0 0 .34667 224.557 126.398)" d="M321.74 233.64l-34.854-31.293-34.854 31.293 31.293-34.854-31.293-34.854 34.854 31.293 34.854-31.293-31.293 34.854z" filter="url(#y)"/><path d="M346.61 201.6l-7.02-5.458-7.021 5.457 6.303-6.079-6.303-6.078 7.02 5.457 7.02-5.457-6.303 6.078z"/><path transform="matrix(.12577 0 0 .0726 306.34 186.613)" d="M302.14 128.79c0 18.935-15.35 34.286-34.286 34.286-18.935 0-34.286-15.35-34.286-34.286 0-18.935 15.35-34.286 34.286-34.286 18.935 0 34.286 15.35 34.286 34.286z" filter="url(#z)" opacity=".679"/></g><path d="M257.135 122.182c-14.904 0-27.037 8.069-27.037 18.005 0 9.936 12.133 18.005 27.037 18.005s26.978-8.069 26.978-18.005c0-9.936-12.074-18.005-26.978-18.005z" fill="#fff"/></svg>