<svg xmlns="http://www.w3.org/2000/svg" height="361.661" width="378.683"><defs><filter width="1" height="1" y="0" x="0" id="a" color-interpolation-filters="sRGB"><feTurbulence result="result0" baseFrequency="1" numOctaves="3" type="fractalNoise"/><feColorMatrix type="saturate" values="0" result="result4"/><feComposite result="result2" k3=".1" k2=".49" k1=".51" operator="arithmetic" in2="result4" in="SourceGraphic"/><feBlend in2="SourceGraphic" in="result2" result="result5"/><feComposite result="result3" operator="in" in2="SourceGraphic" in="result5"/></filter></defs><path d="M129.151 163.313c-11.538-.01-20.872 6.535-38.218 48.407-7.24 17.473-10.897 33.668-12.282 48.093-1.923.622-29.174 9.39-51.437 15.407-23.072 6.234-23.578 14.76-24 22.062-.423 7.302 6.727 14.567 11.906 26.344 5.18 11.777 14.99 30.037 38.094 21.25l19.062-7.25c7.53-2.864 13.13-6.432 22.719-5.719 5.604 4.497 15.966 6.25 52.219 6.25 36.257 0 46.615-1.751 52.219-6.25 9.57-.702 15.198 2.854 22.718 5.72l19.032 7.25c23.098 8.799 32.914-9.474 38.093-21.25 5.18-11.778 12.33-19.043 11.907-26.345-.423-7.301-.929-15.828-24-22.062-22.264-6.017-49.515-14.785-51.438-15.407-1.385-14.425-5.011-30.62-12.25-48.093-25.23-60.904-33.555-47.032-56.281-47.032-7.102 0-12.818-1.37-18.063-1.375z" fill="#a1795f" stroke="#000" stroke-width="2"/><path d="M182.732 194.572c0-9.033 50.62 29.707 51.966 4.04 2.922-55.738 48.712-44.002 42.752-23.104-5.773 20.241-8.958 13.785-9.877 29.09-2.693 44.874-54.77 40.927-54.803 40.936" fill="#a1795f" stroke="#000" stroke-width="2"/><path d="M242.89 169.859c5.134-13.634 10.38-19.518 27.692-12.084 20.465 8.788 12.773 7.024 4.495 26.413-11.185-10.815-15.25-11.07-32.187-14.329z" fill="#896555" stroke="#000" stroke-width="2"/><path d="M193.747 219.888c3.3-7.226 6.437-22.178 16.686-24.757 21.625-5.441 21.602 8.33 28.804 12.6" fill="#a1795f" fill-rule="evenodd" stroke="#000" stroke-width="2.091"/><path style="marker:none" d="M229.964 1.001c-.29.01-.589.041-.938.094-1.394.206-3.223.745-5.093 1.656-8.245 4.013-30.066 24.142-36.5 33.657-5.11 7.554-9.004 17.183-10.938 27.125-.82 4.217-3.55 27.706-3.937 33.687-.632.2-1.082.455-1.313.75-.47.05-.77.18-.906.438-11.365-2.893-23.25-2.532-23.25-2.532S133.04 95.41 120.9 99.19c-.132-5.233-1.634-23.896-2.218-27.25-.56-3.214-1.035-5.286-1.97-7.719-.234-.613-1.135-1.318-1.437-2-.099-.224-39.714 15.821-38.593 20.125 1.732 6.65 7.505 16.151 17.25 28.438 3.162 3.987 5.77 7.23 5.812 7.187.004 0 .199-.316.219-.344-5.158 10.585-7.545 24.705-7.375 39.844v.031c-.19.446-.06 5.91.187 8.062.63 20.207 2.469 37.453 12.657 52.563 1.947 2.889 4.554-3.582 8.062 1.562.008.011.024.02.031.031.441 1.131.904 2.345 1.375 3.75h.438c.233.591.478 1.198.718 1.907l30.875-.938 30.875.938c.24-.708.455-1.316.688-1.907h.469a80.825 80.825 0 0 1 1.312-3.625c3.557-5.405 6.191 1.197 8.156-1.718 10.147-15.049 11.988-32.213 12.625-52.313a72.03 72.03 0 0 0 .5-6.937c.336-15.508-2.045-30.034-7.25-40.907-.15-.45.238-2.203.22-2.937.975-1.397 2.882-4.234 5.593-8.313 10.924-16.439 17.546-28.88 19.75-37.218 1.426-5.396 5.146-28.181 6.969-42.688 1.203-9.57 1.999-14.135 3.281-18.469.938-3.169 1.589-6.179 1.437-6.687-.135-.456-.725-.672-1.593-.656z" color="#000" overflow="visible" fill="#a1795f" stroke="#000" stroke-width="2" enable-background="accumulate"/><path d="M98.014 108.288c-16.94-26.204-14.822-19.852-16.94-26.204-1.392-4.177 10.032-11.33 18.623-12.729 3.717-.605 5.926-1.81 7.314.446.282.46 1.301 2.102 1.59 3.283 2.105 8.573 3.442 23.293.795 26.47-2.647 3.175-11.382 8.734-11.382 8.734z" fill="#b8a27d" stroke="#000" stroke-width="2" filter="url(#a)"/><path style="marker:none" d="M188.877 212.6c-.876 16.991-15.51 40.14-42.496 41.3-30.602-1.219-43.363-24.493-42.397-41.532.966-17.04 15.658-24.446 42.397-25.597 30.488 1.403 43.371 8.839 42.496 25.83z" color="#000" overflow="visible" fill="#b8a27d" stroke="#000" stroke-width="2" enable-background="accumulate"/><path style="marker:none" d="M163.25 208.763c0-3.334 1.727-4.286 3.858-4.286 2.13 0 3.858.952 3.858 4.286 0 3.335-1.728 6.038-3.858 6.038-2.131 0-3.858-2.703-3.858-6.038zM121.884 208.763c0-3.334 1.727-4.286 3.858-4.286 2.13 0 3.858.952 3.858 4.286 0 3.335-1.727 6.038-3.858 6.038-2.13 0-3.858-2.703-3.858-6.038z" color="#000" overflow="visible" fill="none" stroke="#5e4332" stroke-width="2" enable-background="accumulate"/><path d="M163.25 210.19c0-3.335 1.727-4.287 3.858-4.287 2.13 0 3.858.952 3.858 4.287 0 3.334-1.728 6.038-3.858 6.038-2.131 0-3.858-2.704-3.858-6.038zM121.884 210.19c0-3.335 1.727-4.287 3.858-4.287 2.13 0 3.858.952 3.858 4.287 0 3.334-1.727 6.038-3.858 6.038-2.13 0-3.858-2.704-3.858-6.038z" style="marker:none" color="#000" overflow="visible" stroke="#000" stroke-width=".913" enable-background="accumulate"/><ellipse cx="127.221" cy="152.891" rx="16.715" ry="27.045" fill="#fff" stroke="#000" stroke-width="2"/><path d="M108.162 69.775c-1.894 1.02-1.747 4.061-5.495 18.301-1.584 7.158-5.698 14.154-9.829 19.255-5.747 7.098-25.818 21.076-33.562 23.375-3.515 1.045-6.877 1.024-7.282-.03-.169-.442.308-2.86 1.063-5.376 1.032-3.439 1.44-7.012 2.152-14.812.814-8.92-.283-23.39 4.844-33.406 3.776-7.377 9.195-9.752 17.875-17.282 8.772-7.609 15.84-10.366 21.469-10.343h0c10.744.043 10.082 3.9 17.305 14.803" style="marker:none" color="#000" overflow="visible" fill="#a1795f" stroke="#000" stroke-width="2" enable-background="accumulate"/><path d="M289.316 60.364c-43.117 0-78.093 21.602-78.093 48.25 0 9.837 4.79 18.965 12.968 26.594-.298 5.984-2.646 15.986-22.625 34.562 10.155.737 34.606-13.475 44-21.219 12.48 5.23 27.537 8.313 43.75 8.313 43.117 0 78.063-21.603 78.063-48.25 0-26.648-34.946-48.25-78.063-48.25z" style="marker:none" color="#000" overflow="visible" fill="#fff" stroke="#000" stroke-width="2" enable-background="accumulate"/><path d="M194.968 106.31c19.275-34.454 16.685-26.416 19.275-34.454s7.889-49.304 8.337-52.876c.448-3.573 1.59-10.118-11.718 3.362s-22.075 29.778-24.914 42.952c-2.838 13.174-4.97 28.79-2.385 32.223 2.586 3.433 11.405 8.793 11.405 8.793z" fill="#b8a27d" stroke="#000" stroke-width="2" filter="url(#a)"/><g transform="translate(-152.669 -1700.95)" color="#000" stroke="#000" stroke-width="2"><path d="M167.27 1980.292l19.568-6.632c12.118-3.717 26.822 9.18 32.84 28.805 6.02 19.626 1.075 38.548-11.043 42.265l-18.728 6.407" style="marker:none" overflow="visible" fill="#896555" enable-background="accumulate"/><ellipse style="marker:none" transform="rotate(162.95 145.764 1829.767)" cx="169.355" cy="1642.31" rx="22.951" ry="37.169" overflow="visible" fill="#5e4332" enable-background="accumulate"/></g><g transform="matrix(-1 0 0 1 447.072 -1700.95)" color="#000" stroke="#000" stroke-width="2"><path style="marker:none" d="M167.27 1980.292l19.568-6.632c12.118-3.717 26.822 9.18 32.84 28.805 6.02 19.626 1.075 38.548-11.043 42.265l-18.728 6.407" overflow="visible" fill="#896555" enable-background="accumulate"/><ellipse transform="rotate(162.95 145.764 1829.767)" style="marker:none" cx="169.355" cy="1642.31" rx="22.951" ry="37.169" overflow="visible" fill="#5e4332" enable-background="accumulate"/></g><path d="M96.067 246.957s-7.15 33.141-9.462 65.135c-2.313 31.994-6.553 48.569 25.44 48.569 31.995 0 35.078-1.524 35.078-38.161 0-36.62-.093-45.505-.093-45.505" fill="#a1795f" stroke="#000" stroke-width="2"/><path d="M85.182 332.009c-.861 18.928 2.387 28.652 26.892 28.652 28.968 0 35.184-1.264 35.242-28.683-18.917 7.185-40.221 4.827-62.134.03z" fill="#896555" stroke="#000" stroke-width="2"/><path d="M157.95 273.485c-4.412 3.935-7.063 4.144-11 4.352h-.268c-3.938-.208-6.588-.417-11-4.352" fill="none" stroke="#000" stroke-width="2"/><ellipse ry="27.045" rx="16.715" cy="153.218" cx="168.352" fill="#fff" stroke="#000" stroke-width="2"/><g transform="matrix(-.83646 0 0 .83646 -276.316 -1189.423)"><path d="M-532.203 1605.177c0 7.301-3.782 9.386-8.447 9.386-4.665 0-8.446-2.085-8.446-9.386 0-7.301 3.781-13.22 8.446-13.22 4.665 0 8.447 5.919 8.447 13.22z" style="marker:none" color="#000" overflow="visible" enable-background="accumulate"/><circle r="2.912" cy="1602.517" cx="-543.67" transform="translate(.091 -4.098)" style="marker:none" color="#000" overflow="visible" fill="#fff" enable-background="accumulate"/></g><g transform="matrix(-.83646 0 0 .83646 -323.365 -1189.423)"><path style="marker:none" d="M-532.203 1605.177c0 7.301-3.782 9.386-8.447 9.386-4.665 0-8.446-2.085-8.446-9.386 0-7.301 3.781-13.22 8.446-13.22 4.665 0 8.447 5.919 8.447 13.22z" color="#000" overflow="visible" enable-background="accumulate"/><circle r="2.912" cy="1602.517" cx="-543.67" style="marker:none" transform="translate(.091 -4.098)" color="#000" overflow="visible" fill="#fff" enable-background="accumulate"/></g><g fill="none" stroke="#b8a27d"><path d="M168.85 153.241c0 6.107 3.163 7.85 7.065 7.85 3.902 0 7.065-1.743 7.065-7.85 0-6.107-3.163-11.057-7.065-11.057-3.902 0-7.065 4.95-7.065 11.057zM121.801 153.241c0 6.107 3.163 7.85 7.065 7.85 3.902 0 7.066-1.743 7.066-7.85 0-6.107-3.164-11.057-7.066-11.057-3.902 0-7.065 4.95-7.065 11.057z" style="marker:none" color="#000" overflow="visible" stroke-width="1.67292" enable-background="accumulate"/></g><g stroke="#000" fill="none" stroke-width="3" stroke-linecap="round" stroke-linejoin="round"><path d="M116.323 121.461c1.684-2.216 4.144-3.182 7.603-3.182 3.415 0 6.508-.19 7.887 2.53M164.116 121.461c1.684-2.216 4.145-3.182 7.604-3.182 3.415 0 6.508-.19 7.887 2.53"/></g><path d="M106.148 227.676c27.185 16.986 43.194 12.769 60.458 9.911" fill="none" stroke="#000" stroke-width="2"/></svg>