<svg xmlns="http://www.w3.org/2000/svg" xmlns:xlink="http://www.w3.org/1999/xlink" width="828.996" height="828.996"><defs><linearGradient id="a"><stop offset="0" stop-color="#54006a"/><stop offset="1"/></linearGradient><linearGradient id="b"><stop offset="0" stop-color="#fff"/><stop offset="1" stop-color="#fff" stop-opacity="0"/></linearGradient><linearGradient id="c"><stop offset="0" stop-color="#787878"/><stop offset="1" stop-color="#fff"/></linearGradient><filter id="i" x="-.51" width="2.019" y="-.51" height="2.019" color-interpolation-filters="sRGB"><feGaussianBlur stdDeviation="10.65"/></filter><filter id="j" x="-.275" width="1.55" y="-.117" height="1.234" color-interpolation-filters="sRGB"><feGaussianBlur stdDeviation="4.368"/></filter><filter id="f" color-interpolation-filters="sRGB"><feGaussianBlur stdDeviation="6.224"/></filter><radialGradient xlink:href="#a" id="d" gradientUnits="userSpaceOnUse" cx="1098.632" cy="553.727" fx="1098.632" fy="553.727" r="414.498"/><radialGradient xlink:href="#c" id="h" gradientUnits="userSpaceOnUse" spreadMethod="reflect" cx="169.076" cy="348.874" fx="169.076" fy="348.874" r="89.797"/><radialGradient xlink:href="#b" id="e" gradientUnits="userSpaceOnUse" gradientTransform="matrix(1 0 0 .85264 0 90.9)" cx="1098.625" cy="616.859" fx="1098.625" fy="616.859" r="428.483"/><radialGradient r="389.423" fy="497.894" fx="1119.144" cy="497.894" cx="1119.144" gradientTransform="matrix(1.019 0 0 .29393 -41.52 349.566)" gradientUnits="userSpaceOnUse" id="g" xlink:href="#b"/></defs><path d="M813.802 139.23h569.66c71.837 0 129.669 57.831 129.669 129.667v569.66c0 71.836-57.832 129.668-129.668 129.668h-569.66c-71.837 0-129.669-57.832-129.669-129.668v-569.66c0-71.836 57.832-129.668 129.668-129.668z" fill="url(#d)" fill-rule="evenodd" transform="translate(-684.134 -139.23)"/><path transform="matrix(.9537 0 0 1.10908 -634.063 -269.706)" d="M1118.031 265.5l-56 417 .438 35.938 5.625-14.844L1118.03 265.5zm-49.937 438.094l-.657 5.75 1.72-3.375 2.812-12.657-3.875 10.282zm3.875-10.282l3.906-10.343 88.031-403.219-91.937 413.563zm3.906-10.343l-3.75 17.218 10.937-21.312L1223.5 292.312 1075.875 682.97zm7.187-4.094l-8.03 22.094 195.905-388.844-187.875 366.75zm-8.03 22.094l-5.407 10.718-1.313 5.907 1.407-2 5.312-14.625zm-5.313 14.625l-2.375 6.5.968-4.5-6.187 8.968 4.312-8.593 1-8.625L1062.5 719l.031 3.281-.375-2.625-.5.969.469-1.25-2.594-18.281-1.031 7.843 1.969 14.532-2.563-10.282-.937 7.063v-10.906L950.687 280.78l93.875 414.313 9.25 25.718-5.968-11.25 1 4.5 4.53 8.563-3.874-5.719.062.282-.156-.407-255.282-377.25 256.75 386.031-306.843-348.375 288.468 344.625 12 8.844-8.437-4.593.875 1.03 2.594 2.5-1.344-1 1.062 1.282 4.094 1.75-3.469-1 1.031 1.219-1.375-1.344-14.5-4.219 12.594 7.063-22.812-10.063-330.688-96.562v1.593l343.781 106.97 15.188 2.562 2.25-.188-1.5.313 1.469.25-2.094-.125-359.094 74.281v2.094L1033.687 750l4.032-1.781-2.625 1.531 3.406-.625-4.625 1.313-12.719 7.437 15.594-4.344 4.344-4.187-3.156 3.843 5.5-1.53-6.563 2.843-8.75 10.688 16.5-9.125-23.375 17.5-2.156 2.656 20.593-15.375L1006 792.219l-144.094 176h8.032l174.687-199.782 4.938-14.593-2.594 11.906 3.875-4.438-4.313 6.375-.875 4.063 8.157-15.719-4.875 13.907 4.406-6.438-6.375 12.125-5.719 16.219-38.5 176.375h6.094l48.125-197.532v-11.156l.969 7.219 2.562-10.563-2 14.97 1.313 9.905 2.718-19.5-.437 36.625 22.5 170.032h4.843l-22.343-197.625-5.438-14.782 4.875 9.688-.125-1 .313 1.375 3.781 7.531-.969-4.468-7.437-14.907 6.187 9.063-.937-4.344 2.218 6.25 138.72 203.219h2L1073.405 764.28l-6-6.781 3.875 3.625-.656-.969 1.812 2.032 219.938 206.03h2.75l-218.25-209.53 292.875 209.53h.5l-299.063-215.28 364.313 204.5c.305-.134.602-.271.906-.407L1101.47 761.97l-27.657-11.344L1089.47 755l-1.813-1.063-9.687-2.718 6.781 1.031-5.25-3.063 8.469 3.563 425.156 64.688v-.25L1086.25 744.28l-2.469.157 1.594-.282-1.594-.281 2.313.125 16.343-3-18.937-1.313-5.594.97 435.219-138.532v-.031l-397.094 116.094-36.625 16.156 17.969-10.688-23.656 6.907 42.406-18.063 364.062-216.75-382.406 216.656-21.062 15.063 7.75-7.531-13.407 7.593 20.375-14.375 315.844-306.937-332.125 312.906-4.5 5.281 1.938-2.875-5.375 5.063 9.218-10.781 251.938-374.47-258.656 374.25zm6.718.218l-3.843 5.72 2.562-2.407 297.969-350.313-296.688 347zm15-2.656l-6.968 6.782 13.312-7.532 351.906-251.875-358.25 252.625zm24.688-.656l-18.75 11.156 18.656-5.468L1502 548l-385.875 164.5zm-32.625 27.188l1.625-.282-3.375.157 1.75.125zm1.625-.282l34.75-1.625 393.25-72.5v-.156l-428 74.281zm34.75-1.625L1102.437 741l18.563 1.281 392.125-22.625v-.218l-393.25 18.343zm1.125 4.5l-32.438 1.875 424.563 25.563v-.188L1121 742.281zm-32.438 1.875l-2.468-.156-.719.156.875.125 2.312-.125zm-.593 8.594l-3.219-.5 2.906 1.688 9.531 2.656-9.218-3.844zm9.218 3.844l3.844 1.625 407.75 113.812-411.594-115.437zm3.844 1.625L1089.47 755l12 6.969 383.468 157.468c.033-.04.061-.084.094-.125l-384-161.093zm-28.594 3.968l-1.156-1.062 2.125 3.156 179.969 203.938h.344l-181.282-206.032zm-2.875 2.813l-1.28-1.906 1.25 5.843 5.093 10.22-5.063-14.157zm5.063 14.156l3.094 8.625 90.656 180.438h.625l-94.375-189.063zm3.094 8.625l-7.219-14.375 3.344 15.532 65.937 179.28h2.406l-64.468-180.437zm-3.875 1.157l-5.125-13.907 42.531 193.188h1.187l-38.593-179.282zm-5.125-13.907l-2-9.156-.188-.375.563 5.094 1.625 4.437zm-6.625 23.157l-2.282-17.125-2.843 20.562-.063 166.594H1060l2.093-170.032zm-5.125 3.437V782.75l-24.688 185.469h1.5l23.188-166.594zm0-18.875l1.531-11.594-.563-4.406-.968 3.938v12.062zm-15.719 9.094l2.062-9.313-9.687 18.375-56.719 167.313h2.563l61.781-176.375zm-7.625 9.062l5.75-17-.156.219-95.594 184.094h1.719l88.281-167.313zm5.594-16.781l.218-.406 3.75-11.032L911.375 968.22h1.812l126.032-184.094zm3.968-11.438l3.344-5 .438-1.937-2.344 2.688-1.438 4.25zm-3.75 11.032l-.062.187 5.313-7.781.969-4.375-6.219 11.969zm5.25-7.594l-1.375 6.406 3.657-6.906 1.968-5.688-4.25 6.188zM1006 792.219l13.094-16-26.5 19.781L813.53 968.219h3.438l189.031-176zM992.594 796l4.437-4.281-226 169.343c.094.033.188.062.282.094L992.592 796zm4.437-4.281l24.219-18.157 6.875-8.375-8.25 4.563-22.844 21.969zm22.844-21.969l14.938-14.375-36.438 15.75-275.281 160.25c.549.537 1.097 1.067 1.656 1.594l295.125-163.219zm-21.5 1.375l22.781-13.25-13.5 3.75-308.562 137.594c.169.32.328.65.5.968l298.781-129.062zm9.281-9.5l22.938-10.219-345.875 99.438c.022.24.039.48.062.718l322.875-89.937zm22.938-10.219l3.281-.968 1.219-.688-1.406.25-3.094 1.406zm4.219 3.969l2.062-.875 1.063-1.313-1.188.344-1.938 1.844zm8.406-17.281l.625-.125-.75-.125-1.688.125 1.813.125zm-1.813-.125l-6-.344 2.188.688 3.812-.344zm-3.812.343l-.469.032 1.313.218-.844-.25zm-.469.032l-5.469-.938-4.5-.281-343.031 29.906v.469l353-29.156zm-9.969-1.22l1.938-.155-7.094-1.219-337.875-19.5v.25l343.031 20.625zM1022 735.75l9.031.5-3.125-.969-343.781-57.906v.313L1022 735.75zm9.031.5l1.344.406 2.313-.187-3.657-.219zm1.344.406l-3.281.313 2.562.437 3.75.219-3.031-.969zm-17.563-13.375l10.22 3-19.438-10.906-321.469-138.469v.719l330.687 145.656zm-9.218-7.906l32.937 14.188-3.25-3.125-4-2.97-347.156-189.28v.75l321.469 180.437zm25.687 8.094l2.094 1.125-9.531-9.188L684.125 464.75v.063l347.156 258.656zm-7.437-8.063l3.968 2.938-318.656-305.907 314.688 302.97zm3.968 2.938l7.75 7.437.5.282-3.562-4.25-4.688-3.47zm7.75 7.437l-2.187-1.187 1.906 1.843 2.906 2.157-1.25-1.5-1.375-1.313zm2.97 3.782l1 .937.343.125-.625-.75-.719-.313zm10.874-12.782l.094.125-.656-2.843-1.188-2.282 1.75 5zm-1.75-5l-2.687-7.625-207.844-391.25 210.531 398.875zm-2.687-7.625l2.875 5.407-3.282-14.47-144.968-402.75 145.375 411.813zm12 5.188l.937 3.843.594-4.25-1.531-11.218v11.625zm0-11.625V682.75l-58.563-415.188 58.563 430.157zm0-14.969l2.562 18.344 2.5-18.594-5.187-416.906.125 417.156zm5.156 36.625l.031.281.344-.656-.031-.563-.344.938zm4.312-1.406l-.03.406.124-.563-.094.157zm.094-.157l3.094-6.125 2.5-11.5-2.969 5.782-2.625 11.843z" opacity=".726" fill="url(#e)" fill-rule="evenodd" filter="url(#f)"/><path d="M1018.108 391.062c-5.169-.03-10.804.38-13.875 1.151-4.915 1.232-7.607 3.228-5.594 4.98 2.01 1.751 6.013 3.173 12.313 3.74 6.3.565 9.025.473 14.812-.421 5.787-.894 8.753-2.488 9.5-4.315.75-1.828-3.32-3.636-9-4.581-2.13-.355-5.055-.535-8.156-.554zm191.687 8.72c-5.689.131-11.402 1.161-13.312 2.655-1.914 1.494-1.754 2.99 1.5 4.293s5.705 1.675 11.375 1.86c5.67.183 10.626-.51 14.469-1.683 3.844-1.172 4.323-3.014 2.062-4.47-2.261-1.456-10.405-2.787-16.094-2.655zm76.313.044c-6.599.152-13.221 1.343-15.438 3.076-2.219 1.732-2.024 3.49 1.75 5.001 3.775 1.511 6.611 1.934 13.188 2.147 6.577.213 12.324-.588 16.781-1.948 4.46-1.359 5.029-3.512 2.406-5.2-2.622-1.689-12.089-3.229-18.687-3.076zm-351.313 8.21a61.35 61.35 0 0 0-2.312.044c-6.124.199-13.743 2.044-15.031 3.718-1.288 1.674.636 3.608 5.593 4.625 4.956 1.019 10.729 1.479 16.594.952 5.865-.527 8.246-1.062 10.688-2.634 2.441-1.572 1.485-3.179-1.688-4.647-2.774-1.285-8.386-2.027-13.844-2.058zm159.031 13.566c-4.456-.027-9.289.331-11.937.995-4.237 1.063-6.58 2.783-4.844 4.294 1.733 1.51 5.194 2.72 10.625 3.208 5.432.489 7.761.439 12.75-.332 4.99-.77 7.544-2.164 8.188-3.74.646-1.575-2.823-3.146-7.719-3.96-1.836-.306-4.389-.45-7.063-.465zm-47.062.31c-4.1-.025-8.563.296-11 .907-3.898.977-6.066 2.571-4.469 3.96 1.595 1.39 4.784 2.495 9.781 2.944 4.998.45 7.16.4 11.75-.31 4.59-.709 6.94-1.98 7.532-3.43.595-1.45-2.62-2.901-7.125-3.651-1.69-.281-4.009-.406-6.469-.42zm-48.937.885c-4.813-.029-10.047.367-12.907 1.084-4.575 1.147-7.124 3.016-5.25 4.647 1.872 1.632 5.635 2.925 11.5 3.452 5.866.528 8.394.456 13.781-.376 5.388-.832 8.149-2.304 8.844-4.005.698-1.701-3.087-3.413-8.375-4.293-1.983-.33-4.706-.492-7.593-.51zm136.343 8.365c-3.743-.023-7.806.283-10.031.84-3.56.893-5.52 2.339-4.062 3.608 1.456 1.269 4.374 2.29 8.937 2.7 4.563.41 6.527.36 10.719-.288 4.191-.647 6.334-1.82 6.875-3.143.543-1.323-2.387-2.634-6.5-3.32-1.543-.256-3.691-.384-5.938-.397zm191.719.287c-2.422-.011-4.84.175-6.812.554-3.947.756-6.515 1.81-6.594 3.142-.08 1.332.846 1.94 4.406 2.833 3.56.892 8.096 1.103 12.781.818 4.686-.283 8.34-1.508 9.344-2.81 1.004-1.302-2.105-3.299-6.219-3.983-2.057-.343-4.484-.542-6.906-.554zm-102.875.399c-5.234.12-10.492 1.06-12.25 2.434-1.76 1.374-1.587 2.763 1.406 3.961 2.994 1.199 5.252 1.535 10.469 1.704 5.217.17 9.746-.47 13.281-1.549 3.537-1.078 3.987-2.777 1.906-4.116-2.08-1.34-9.578-2.555-14.812-2.434zm53.406.332c-6.144.142-12.311 1.24-14.375 2.854-2.066 1.613-1.889 3.24 1.625 4.648 3.514 1.406 6.19 1.793 12.313 1.991 6.123.199 11.444-.548 15.594-1.814 4.151-1.266 4.691-3.253 2.25-4.825-2.442-1.572-11.263-2.997-17.407-2.854zm-95.937.774c-4.78.11-9.582.958-11.188 2.213-1.607 1.255-1.483 2.535 1.25 3.63 2.734 1.094 4.8 1.394 9.563 1.548 4.763.155 8.928-.43 12.156-1.416 3.23-.984 3.65-2.539 1.75-3.762-1.9-1.223-8.752-2.323-13.531-2.213zm-381.219.42a68.916 68.916 0 0 0-2.5.023c-6.577.213-14.742 2.229-16.125 4.027-1.383 1.799.707 3.864 6.031 4.957 5.323 1.094 11.513 1.585 17.813 1.018 6.3-.566 8.846-1.144 11.469-2.832 2.622-1.689 1.563-3.403-1.844-4.98-2.98-1.38-8.982-2.179-14.844-2.212zm66.188 2.634a57.53 57.53 0 0 0-2.157.022c-5.67.184-12.713 1.902-13.906 3.452-1.192 1.55.597 3.351 5.188 4.294a53.757 53.757 0 0 0 15.375.863c5.43-.489 7.614-.979 9.875-2.435 2.26-1.455 1.375-2.933-1.563-4.293-2.568-1.19-7.759-1.874-12.812-1.903zm97.03 4.006a41.462 41.462 0 0 0-1.624.022c-4.31.14-9.687 1.432-10.594 2.611-.906 1.179.448 2.537 3.938 3.253a40.854 40.854 0 0 0 11.687.664c4.129-.371 5.812-.752 7.531-1.859 1.719-1.107 1.015-2.22-1.218-3.253-1.953-.904-5.877-1.416-9.72-1.438zm-44.655 2.146a47.574 47.574 0 0 0-1.782.022c-4.763.155-10.685 1.619-11.687 2.921-1.002 1.303.487 2.794 4.344 3.585a45.081 45.081 0 0 0 12.906.73c4.563-.41 6.413-.812 8.312-2.035 1.9-1.223 1.156-2.465-1.312-3.607-2.158-1-6.536-1.592-10.781-1.616zm169.5 5.09c-3.032-.018-6.324.212-8.126.664-2.882.723-4.461 1.894-3.28 2.921 1.178 1.028 3.524 1.859 7.218 2.19 3.695.333 5.294.282 8.688-.243 3.393-.524 5.124-1.45 5.562-2.522.44-1.072-1.95-2.146-5.281-2.7-1.25-.208-2.963-.3-4.781-.31zm-44.157 2.81c-3.387-.02-7.05.248-9.062.753-3.221.808-5.007 2.127-3.688 3.275 1.318 1.148 3.965 2.063 8.094 2.434s5.895.32 9.688-.265c3.792-.586 5.729-1.635 6.218-2.833.492-1.197-2.153-2.39-5.875-3.01-1.396-.232-3.342-.341-5.375-.354zm-39.531 2.125c-.376-.002-.756.01-1.125.022-2.95.096-6.63.986-7.25 1.793-.62.806.33 1.744 2.719 2.235 2.387.49 5.142.718 7.968.464 2.827-.254 3.98-.526 5.157-1.283 1.176-.758.716-1.528-.813-2.235-1.336-.62-4.026-.981-6.656-.996zm200.375 4.625c-4.325.1-8.672.878-10.125 2.014-1.454 1.135-1.317 2.285 1.156 3.275 2.474.99 4.315 1.277 8.625 1.416 4.31.14 8.08-.392 11-1.283 2.923-.891 3.281-2.301 1.563-3.408-1.719-1.107-7.895-2.114-12.219-2.014zm-66.438.575c-2.96.069-5.943.617-6.937 1.395-.996.777-.912 1.557.781 2.235 1.694.678 2.987.878 5.938.973 2.95.096 5.5-.275 7.5-.885s2.27-1.566 1.093-2.323c-1.176-.758-5.414-1.463-8.375-1.395zm210.282.797c-2.884-.014-5.746.191-8.094.642-4.698.9-7.781 2.155-7.875 3.74-.094 1.585 1.044 2.323 5.281 3.386 4.237 1.062 9.61 1.312 15.188.973 5.577-.337 9.93-1.79 11.125-3.341 1.195-1.55-2.479-3.921-7.375-4.736-2.449-.407-5.367-.65-8.25-.664zm-411.063 1.66a39.45 39.45 0 0 0-1.468.022c-3.857.125-8.658 1.291-9.47 2.346-.81 1.054.41 2.28 3.532 2.92 3.122.642 6.774.908 10.469.576 3.694-.332 5.18-.67 6.719-1.66 1.537-.99.935-1.996-1.063-2.92-1.747-.81-5.281-1.264-8.719-1.284zm314.344.442c-1.73-.008-3.465.106-4.875.377-2.82.54-4.663 1.305-4.719 2.257-.056.951.613 1.398 3.156 2.036 2.544.638 5.778.778 9.125.575 3.349-.202 5.97-1.083 6.688-2.014.718-.93-1.498-2.343-4.438-2.832a31.878 31.878 0 0 0-4.937-.399zm47.156.067c-1.961-.01-3.902.136-5.5.442-3.196.613-5.28 1.467-5.344 2.545-.064 1.079.68 1.58 3.563 2.302 2.882.723 6.55.872 10.344.642 3.794-.23 6.78-1.203 7.593-2.258.813-1.054-1.7-2.676-5.03-3.23-1.666-.278-3.665-.434-5.626-.443zm-411.062 1.97c-.664-.004-1.317.023-1.969.044-5.217.169-11.715 1.738-12.812 3.164-1.098 1.427.557 3.072 4.78 3.94a49.309 49.309 0 0 0 14.126.796c4.997-.45 7.045-.896 9.125-2.235 2.08-1.34 1.234-2.71-1.469-3.961-2.363-1.095-7.131-1.722-11.781-1.749zm-55.938.176c-2.994.062-5.994.438-8.218.996-3.56.893-5.183 3.026-3.282 4.25 1.902 1.222 6.33 2.213 11.125 2.234 4.795.023 9.106-.414 11.97-1.482 2.862-1.069 3.316-1.73 2.312-3.032-1.005-1.303-4.258-2.191-8.657-2.722-1.649-.2-3.453-.28-5.25-.244zm602.625.377c-3.344-.016-6.65.23-9.375.752-5.45 1.045-9.016 2.499-9.125 4.338-.108 1.838 1.18 2.684 6.094 3.916 4.915 1.233 11.156 1.521 17.625 1.13 6.47-.392 11.52-2.075 12.906-3.874 1.387-1.798-2.883-4.565-8.562-5.51-2.84-.473-6.219-.736-9.563-.752zm-459.468 2.589c-.434-.003-.887.008-1.313.022-3.404.11-7.628 1.15-8.344 2.08-.716.93.37 2.002 3.125 2.567 2.755.566 5.959.824 9.22.531 3.26-.293 4.58-.609 5.937-1.482 1.357-.874.794-1.751-.97-2.567-1.541-.715-4.622-1.134-7.655-1.151zm-198.188 2.014c-3.564.073-7.102.486-9.75 1.15-4.237 1.063-6.2 3.613-3.937 5.068 2.263 1.456 7.542 2.63 13.25 2.656 5.707.026 10.842-.499 14.25-1.77 3.407-1.273 3.945-2.035 2.75-3.586-1.196-1.55-5.077-2.62-10.313-3.253-1.963-.237-4.111-.31-6.25-.265zm398.156 4.116c-3.87.09-7.763.776-9.062 1.792-1.302 1.016-1.183 2.035 1.031 2.921 2.213.887 3.893 1.137 7.75 1.262s7.199-.331 9.812-1.129c2.616-.797 2.945-2.063 1.407-3.054-1.538-.99-7.068-1.882-10.938-1.792zm-172.781 1.837c-2.675-.016-5.567.198-7.156.597-2.544.638-3.948 1.683-2.906 2.59 1.04.906 3.114 1.632 6.375 1.925 3.26.293 4.66.263 7.656-.2 2.995-.462 4.52-1.29 4.906-2.235.388-.945-1.686-1.9-4.625-2.39-1.102-.183-2.645-.278-4.25-.287zm95.906 1.726c-3.212-.02-6.716.23-8.625.708-3.054.766-4.72 2.01-3.469 3.098 1.25 1.089 3.741 1.972 7.657 2.324 3.915.352 5.59.29 9.187-.266 3.597-.555 5.442-1.542 5.906-2.678.467-1.135-2.032-2.267-5.562-2.854-1.324-.22-3.166-.32-5.094-.332zm-376.875 1.66c-4.134.085-8.24.58-11.312 1.35-4.915 1.232-7.188 4.198-4.563 5.886 2.626 1.688 8.755 3.046 15.375 3.076 6.62.03 12.548-.56 16.5-2.036 3.953-1.475 4.605-2.384 3.22-4.183-1.387-1.798-5.897-3.029-11.97-3.762-2.276-.275-4.77-.383-7.25-.332zm409.75.398c-4.101.095-8.216.826-9.594 1.903-1.379 1.077-1.252 2.159 1.094 3.098 2.346.94 4.1 1.217 8.188 1.35 4.087.133 7.636-.372 10.406-1.217 2.772-.845 3.13-2.182 1.5-3.231-1.63-1.05-7.493-1.998-11.594-1.903zm-98.594 1.04c-1.588.043-3.129.209-4.062.442-1.866.468-2.92 1.216-2.156 1.881.763.666 2.295 1.202 4.687 1.417 2.392.215 3.428.184 5.625-.155 2.197-.34 3.31-.944 3.594-1.638.285-.693-1.25-1.39-3.406-1.748-1.078-.18-2.693-.243-4.281-.2zm-76.718.332c-.318-.002-.626.012-.938.022-2.497.08-5.6.844-6.125 1.527-.525.683.26 1.466 2.282 1.88a23.53 23.53 0 0 0 6.75.377c2.391-.215 3.379-.443 4.375-1.084.995-.641.606-1.283-.688-1.881-1.131-.524-3.43-.828-5.656-.841zm109.281.442c-.52-.003-1.052.006-1.563.023-4.087.132-9.171 1.382-10.03 2.5-.86 1.118.44 2.397 3.75 3.076 3.308.68 7.146.994 11.062.642 3.915-.352 5.495-.72 7.125-1.77s.992-2.119-1.125-3.099c-1.852-.857-5.576-1.35-9.219-1.372zm217.406.222c-2.192-.01-4.37.144-6.156.487-3.572.684-5.898 1.65-5.969 2.854-.07 1.205.748 1.76 3.969 2.567 3.221.808 7.323.988 11.562.73 4.24-.256 7.56-1.344 8.47-2.522.908-1.179-1.903-2.988-5.626-3.607-1.86-.31-4.058-.499-6.25-.51zm95.656.575c-3.113-.015-6.182.2-8.718.686-5.074.973-8.4 2.338-8.5 4.05-.101 1.712 1.111 2.504 5.687 3.651 4.576 1.148 10.383 1.406 16.406 1.04 6.024-.364 10.74-1.91 12.032-3.585 1.29-1.674-2.712-4.254-8-5.134-2.644-.44-5.793-.693-8.906-.708zm-450.874 1.261c-2.14.045-4.286.31-5.875.709-2.544.637-3.703 2.158-2.344 3.031 1.359.874 4.511 1.578 7.937 1.594 3.426.016 6.517-.277 8.563-1.04 2.045-.764 2.374-1.238 1.656-2.169-.717-.93-3.045-1.568-6.187-1.947a27.063 27.063 0 0 0-3.75-.178zm294.25.51c-.939.031-1.819.116-2.594.265-2.07.397-3.427.962-3.469 1.66-.041.698.446 1.015 2.312 1.482 1.866.468 4.232.57 6.688.42 2.456-.148 4.38-.777 4.906-1.46.527-.682-1.093-1.721-3.25-2.08a24.416 24.416 0 0 0-4.594-.288zm-65.907 2.987c-2.078-.01-4.15.118-5.844.443-3.386.649-5.589 1.557-5.656 2.7-.068 1.142.727 1.69 3.781 2.456 3.055.766 6.917.93 10.938.686 4.021-.243 7.17-1.273 8.031-2.39.862-1.118-1.782-2.843-5.312-3.43-1.765-.294-3.86-.455-5.938-.465zm-258.375.575c-2.424.05-4.855.345-6.656.797-2.882.723-4.196 2.44-2.656 3.43 1.54.99 5.117 1.797 9 1.815 3.882.018 7.37-.33 9.687-1.195 2.318-.865 2.688-1.402 1.875-2.457-.813-1.054-3.47-1.783-7.03-2.213-1.336-.161-2.765-.207-4.22-.177zm429.656 1.018c-2.652-.013-5.276.183-7.437.598-4.323.828-7.164 1.994-7.25 3.452-.086 1.459.945 2.12 4.844 3.098 3.898.978 8.837 1.197 13.968.885 5.132-.31 9.15-1.627 10.25-3.053 1.1-1.427-2.275-3.632-6.78-4.382-2.253-.375-4.942-.585-7.595-.598zm-472.75.354c-2.709.056-5.393.38-7.406.886-3.22.807-4.72 2.744-3 3.85 1.721 1.107 5.755 1.994 10.094 2.014 4.339.02 8.222-.383 10.813-1.35 2.59-.967 3.002-1.543 2.093-2.722-.908-1.178-3.863-1.998-7.843-2.478-1.493-.18-3.125-.233-4.75-.2zm121.657.045c-2.319-.014-4.841.163-6.219.509-2.205.552-3.403 1.471-2.5 2.257.902.786 2.705 1.406 5.531 1.66 2.826.254 4.03.224 6.625-.177 2.596-.401 3.947-1.128 4.282-1.948.336-.82-1.484-1.634-4.032-2.058-.955-.159-2.296-.235-3.687-.243zm70.437.973c-2.57.053-5.122.363-7.031.841-3.055.766-4.476 2.602-2.844 3.652 1.632 1.049 5.448 1.884 9.563 1.903 4.114.019 7.793-.344 10.25-1.261 2.456-.917 2.861-1.472 2-2.59-.862-1.117-3.663-1.89-7.438-2.345-1.415-.171-2.958-.231-4.5-.2zm205 1.018a20.399 20.399 0 0 0-3.094.332c-2.444.469-4.045 1.123-4.093 1.948-.05.825.514 1.195 2.719 1.748 2.204.553 5.004.685 7.906.509 2.902-.176 5.19-.92 5.812-1.726.622-.807-1.296-2.055-3.844-2.479-1.592-.265-3.558-.394-5.406-.332zm218.188.354c-6.62-.03-12.486.583-16.438 2.059-3.952 1.475-4.417 2.384-3.031 4.182 1.386 1.798 5.99 3.051 12.063 3.784 6.071.734 13.585.192 18.5-1.04 4.914-1.232 7-4.198 4.374-5.886-2.625-1.689-8.848-3.069-15.468-3.099zm-264.469 2.922c-3.415.079-6.822.696-7.969 1.593-1.148.897-1.047 1.807.906 2.59 1.954.781 3.41.995 6.813 1.106 3.404.11 6.38-.292 8.687-.996 2.308-.704 2.608-1.826 1.25-2.7-1.357-.874-6.272-1.672-9.687-1.593zm-200.25 1.726c-1.764-.02-3.293.14-5.375.487-3.33.554-4.968 1.47-5.281 2.544-.315 1.075 2.2 2.154 5.594 2.678 3.393.524 9.711.347 12.593-.376 2.882-.723 4.462-1.916 3.281-2.943-1.178-1.028-3.524-1.837-7.218-2.169-1.386-.125-2.536-.21-3.594-.221zm153.812.553c-3.484.072-6.506.459-8.656 1.261-2.456.917-2.768 1.494-1.906 2.612.862 1.117 3.726 1.89 7.5 2.345 3.773.456 8.445.125 11.5-.641 3.054-.766 4.35-2.625 2.719-3.674-1.632-1.05-5.51-1.885-9.625-1.903-.515-.002-1.034-.01-1.532 0zm-213.562 2.434c-1.57.033-3.115.239-4.281.531-1.866.468-2.747 1.572-1.75 2.213.997.641 3.33 1.162 5.844 1.173 2.513.012 4.78-.214 6.28-.774 1.501-.56 1.746-.889 1.22-1.572-.527-.682-2.257-1.16-4.563-1.438a19.837 19.837 0 0 0-2.75-.133zm-136.031.089c-3.28.068-6.532.451-8.969 1.062-3.898.977-5.707 3.33-3.625 4.67 2.083 1.338 6.967 2.41 12.219 2.434 5.251.024 9.958-.446 13.094-1.616 3.135-1.17 3.63-1.893 2.53-3.32-1.099-1.426-4.682-2.405-9.5-2.987-1.805-.218-3.782-.284-5.75-.243zm606 .641c-6.164-.028-11.602.53-15.282 1.904-3.68 1.373-4.103 2.22-2.812 3.894 1.29 1.675 5.565 2.837 11.219 3.52 5.653.682 12.643.173 17.218-.975 4.576-1.147 6.539-3.894 4.094-5.466-2.444-1.571-8.273-2.849-14.437-2.877zm-364.688.133c-.982.007-1.963.028-2.969.089-4.02.243-7.138 1.294-8 2.412-.861 1.118 1.908 2.82 5.438 3.408 3.53.588 8.458.65 11.844 0 3.387-.65 5.558-1.557 5.625-2.7.067-1.143-.852-1.646-3.906-2.412-2.291-.575-5.086-.817-8.032-.797zm189.125 4.139c-2.514-.012-4.718.214-6.219.774-1.5.56-1.682.91-1.156 1.593.527.683 2.257 1.16 4.563 1.439 2.305.278 5.165.07 7.031-.398 1.866-.468 2.653-1.595 1.656-2.236-.997-.64-3.361-1.161-5.875-1.172zm-320.968.22c-1.855.04-3.685.275-5.063.62-2.205.553-3.24 1.877-2.062 2.634 1.177.757 3.936 1.38 6.906 1.394 2.97.014 5.633-.267 7.406-.93 1.773-.661 2.06-1.052 1.438-1.858-.622-.807-2.651-1.375-5.375-1.704a23.45 23.45 0 0 0-3.25-.155zm-159.5.178c-3.85.08-7.672.544-10.532 1.261-4.576 1.148-6.694 3.917-4.25 5.488 2.445 1.572 8.149 2.828 14.313 2.855 6.164.029 11.695-.53 15.375-1.903 3.68-1.374 4.29-2.198 3-3.873-1.291-1.674-5.502-2.836-11.156-3.518-2.12-.256-4.44-.358-6.75-.31zm382.062.73c-.959.012-1.927.067-2.906.155-3.916.352-5.433.743-7.063 1.793-1.63 1.05-.93 2.118 1.188 3.098 2.116.98 6.662 1.482 10.75 1.35 4.087-.133 9.078-1.405 9.937-2.523.86-1.118-.471-2.419-3.781-3.098a38.29 38.29 0 0 0-8.125-.775zm48.094 1.262c-.586.008-1.184.034-1.782.088-2.391.215-3.316.443-4.312 1.084-.996.642-.575 1.305.719 1.904 1.292.598 4.065.9 6.562.818 2.497-.08 5.538-.866 6.063-1.549.525-.682-.291-1.466-2.313-1.88a23.156 23.156 0 0 0-4.937-.465zm-115.188.752c-3.42.05-6.264.544-8.687 1.283-2.772.845-2.942 2.242-1.188 3.276 1.754 1.034 7.631 1.991 11.719 1.859 4.088-.133 8.063-.881 9.313-1.97s1.05-2.203-1.407-3.12c-2.456-.917-4.149-1.233-8.25-1.328a39.68 39.68 0 0 0-1.5 0zm-106.968.155c-.6.004-1.199.03-1.813.066-2.456.149-4.349.778-4.875 1.46-.526.683 1.156 1.722 3.313 2.08 2.156.36 5.15.398 7.218 0 2.07-.396 3.395-.939 3.438-1.637.041-.698-.51-1.014-2.375-1.482-1.4-.351-3.107-.5-4.906-.487zm140.968 1.837c-1.446.041-2.86.215-4.625.509-3.53.587-5.262 1.56-5.594 2.7-.333 1.139 2.31 2.277 5.907 2.832 3.596.556 10.32.368 13.375-.398 3.054-.766 4.72-2.032 3.469-3.12-1.25-1.09-3.741-1.95-7.657-2.302-1.958-.176-3.429-.263-4.875-.221zm-224.937.022a58.94 58.94 0 0 0-3.156.11c-4.24.257-7.498 1.345-8.407 2.523-.908 1.179 1.997 2.966 5.72 3.585 3.721.62 8.898.685 12.468 0 3.571-.684 5.866-1.627 5.937-2.832.072-1.205-.904-1.738-4.125-2.545-2.415-.606-5.33-.862-8.437-.841zm389.093 2.124c-3.426-.016-6.423.299-8.468 1.062-2.046.764-2.312 1.239-1.594 2.17.717.93 3.107 1.567 6.25 1.947 3.142.38 7.02.106 9.562-.532 2.544-.637 3.64-2.18 2.282-3.053-1.36-.874-4.605-1.578-8.032-1.594zm88.22.952c-5.252-.024-9.897.467-13.032 1.637s-3.506 1.894-2.406 3.32c1.1 1.426 4.745 2.406 9.562 2.987 4.816.582 10.758.16 14.656-.818 3.899-.978 5.583-3.33 3.5-4.67-2.082-1.339-7.03-2.433-12.28-2.456zm-324.938.243c-2.469.036-4.532.396-6.282.93-2 .61-2.14 1.621-.875 2.368 1.266.746 5.519 1.445 8.47 1.35 2.95-.096 5.816-.653 6.718-1.439.903-.786.742-1.573-1.031-2.235-1.773-.662-2.978-.905-5.938-.974-.37-.009-.71-.004-1.062 0zm-193.406 2.81c-1.254.01-2.53.056-3.813.133-5.132.311-9.088 1.628-10.187 3.054-1.1 1.427 2.432 3.588 6.937 4.338 4.505.75 10.773.829 15.094 0 4.323-.829 7.07-1.972 7.156-3.43.086-1.459-1.07-2.121-4.969-3.098-2.924-.734-6.459-1.022-10.218-.996zm375.03.488c-2.505.057-5.033.515-5.874 1.172-.843.658-.746 1.33.687 1.904 1.433.573 2.503.715 5 .796 2.497.081 4.683-.214 6.375-.73 1.693-.516 1.902-1.328.906-1.97-.995-.64-4.588-1.23-7.093-1.172zm-218.155.066c-2.506-.058-4.527.28-6.22.797-1.692.516-1.82 1.36-.75 1.991 1.072.632 4.66 1.21 7.157 1.129 2.497-.081 4.924-.53 5.687-1.195.765-.665.657-1.343-.843-1.903-1.501-.56-2.526-.761-5.031-.82zm310.906 4.559c-3.675.076-6.89.504-9.157 1.35-2.59.967-2.877 1.543-1.968 2.722.908 1.178 3.926 1.998 7.906 2.478 3.98.481 8.873.144 12.094-.664 3.22-.807 4.595-2.766 2.875-3.872-1.721-1.107-5.787-1.995-10.125-2.014-.543-.003-1.1-.012-1.625 0zm-403.875.487a46.26 46.26 0 0 0-2.469.088c-3.348.203-5.939 1.061-6.656 1.992-.718.93 1.592 2.343 4.531 2.832 2.94.49 7.025.541 9.844 0 2.82-.54 4.632-1.283 4.687-2.235.057-.951-.706-1.376-3.25-2.014-1.907-.478-4.234-.68-6.687-.663zm32.187.154c-.708.004-1.43.045-2.156.089-2.902.176-5.128.92-5.75 1.726-.622.807 1.39 2.032 3.938 2.456 2.547.425 6.087.47 8.53 0 2.446-.468 4.014-1.122 4.063-1.947.049-.825-.607-1.195-2.812-1.748-1.654-.415-3.686-.59-5.813-.576zm32.532.73c-3.227.047-5.901.498-8.188 1.196-2.615.797-2.78 2.122-1.125 3.098 1.655.975 7.206 1.873 11.063 1.748 3.856-.125 7.602-.831 8.78-1.859 1.182-1.027.975-2.078-1.343-2.943-2.318-.865-3.88-1.15-7.75-1.24a37.844 37.844 0 0 0-1.437 0zm268.53 6.507c-2.97-.014-5.601.245-7.374.907-1.773.662-1.997 1.075-1.375 1.881.622.807 2.713 1.375 5.437 1.704 2.724.33 6.077.088 8.281-.464 2.205-.553 3.147-1.899 1.97-2.656-1.179-.757-3.968-1.359-6.938-1.372zm-164.062.11c-.883.026-1.734.131-2.812.31-2.157.36-3.204.942-3.407 1.638-.203.696 1.428 1.409 3.625 1.748 2.198.34 6.29.225 8.157-.243 1.866-.468 2.89-1.26 2.125-1.925-.764-.666-2.296-1.18-4.688-1.395-1.196-.107-2.117-.158-3-.132zm92.156 1.395c-.692.009-1.387.025-2.093.088-2.826.254-3.918.548-5.094 1.306-1.177.757-.685 1.528.844 2.235 1.527.708 4.8 1.07 7.75.974 2.95-.096 6.567-1.008 7.187-1.815.62-.807-.361-1.745-2.75-2.235a27.452 27.452 0 0 0-5.844-.553zm-157.093.509c-2.848.04-5.232.446-7.25 1.062-2.308.704-2.43 1.861-.969 2.722 1.46.86 6.315 1.66 9.719 1.55 3.403-.111 6.74-.71 7.781-1.616 1.042-.907.858-1.848-1.188-2.612-2.045-.763-3.429-1.027-6.843-1.106-.427-.01-.843-.006-1.25 0zm-267.969 1.505c-1.47.01-2.963.063-4.469.155-6.023.364-10.646 1.91-11.937 3.585-1.291 1.674 2.837 4.231 8.125 5.112 5.288.88 12.646.973 17.719 0s8.305-2.316 8.406-4.028c.101-1.712-1.237-2.504-5.813-3.652-3.432-.86-7.618-1.202-12.03-1.172zm52.125.664c-1.362.009-2.73.048-4.125.132-5.578.338-9.867 1.77-11.062 3.32-1.196 1.55 2.634 3.92 7.53 4.736 4.897.814 11.71.9 16.407 0 4.698-.901 7.688-2.155 7.781-3.74.094-1.586-1.169-2.302-5.406-3.364-3.178-.797-7.039-1.112-11.125-1.084zm404.687.686c-.798.01-1.622.037-2.437.11-3.26.293-4.518.61-5.875 1.483-1.357.874-.795 1.773.969 2.59 1.762.815 5.565 1.238 8.968 1.128 3.404-.11 7.566-1.172 8.282-2.103.716-.93-.4-2.023-3.157-2.589a31.783 31.783 0 0 0-6.75-.62zm75.844.154c-3.288.069-6.16.438-8.187 1.195-2.318.866-2.595 1.402-1.782 2.457.814 1.054 3.501 1.783 7.063 2.213 3.56.43 7.961.125 10.844-.598 2.882-.722 4.102-2.462 2.562-3.452-1.54-.99-5.18-1.797-9.062-1.815-.486-.002-.968-.01-1.438 0zm-397.187.332c-.927.007-1.864.031-2.813.089-3.794.23-6.718 1.203-7.53 2.257-.814 1.055 1.824 2.677 5.155 3.231 3.331.555 7.93.613 11.125 0 3.196-.612 5.249-1.467 5.313-2.545.063-1.078-.774-1.579-3.656-2.301-2.162-.542-4.815-.75-7.594-.73zm520.906 2.17c-5.708-.027-10.749.497-14.156 1.77-3.408 1.271-3.82 2.056-2.625 3.607 1.195 1.55 5.17 2.62 10.406 3.253 5.234.632 11.7.177 15.937-.885 4.238-1.063 6.045-3.635 3.782-5.09-2.264-1.456-7.636-2.63-13.344-2.656zm-52.5 1.947c-4.795-.023-9.044.414-11.906 1.482-2.863 1.069-3.192 1.73-2.188 3.032s4.352 2.213 8.75 2.744c4.398.532 9.815.14 13.375-.752 3.56-.893 5.058-3.049 3.156-4.271-1.901-1.223-6.392-2.214-11.187-2.235zm-381.625.774c-3.606.052-6.632.592-9.187 1.372-2.923.891-3.1 2.362-1.25 3.452 1.85 1.09 8.033 2.088 12.343 1.948 4.31-.14 8.527-.91 9.844-2.058 1.32-1.148 1.09-2.33-1.5-3.298-2.59-.967-4.363-1.294-8.687-1.394-.541-.012-1.048-.03-1.563-.022zm-46.219.066c-4.744.069-8.669.745-12.03 1.77-3.845 1.173-4.09 3.125-1.657 4.56 2.433 1.434 10.58 2.75 16.25 2.567 5.67-.184 11.173-1.212 12.906-2.722 1.736-1.51 1.47-3.066-1.937-4.338-3.408-1.272-5.75-1.705-11.438-1.837a54.932 54.932 0 0 0-2.094 0zm216.563.82c-1.044.03-2.039.141-3.313.353-2.548.424-3.792 1.125-4.031 1.948-.24.822 1.654 1.657 4.25 2.058 2.596.4 7.452.265 9.656-.288 2.205-.553 3.403-1.471 2.5-2.257-.902-.786-2.705-1.406-5.531-1.66-1.413-.127-2.488-.185-3.531-.155zm-292.406 4.138c-1.145.008-2.298.04-3.47.11-4.685.284-8.308 1.486-9.312 2.788-1.004 1.303 2.23 3.3 6.344 3.984 4.114.684 9.836.757 13.781 0 3.947-.757 6.453-1.81 6.532-3.143.078-1.331-.972-1.94-4.532-2.832-2.67-.67-5.91-.93-9.343-.908zm202.624.62c-1.971-.022-3.673.143-6 .53-3.722.62-5.556 1.654-5.906 2.855-.352 1.201 2.458 2.402 6.25 2.988 3.793.585 10.842.387 14.063-.42 3.22-.809 5.007-2.15 3.687-3.298-1.317-1.149-3.934-2.041-8.062-2.412-1.549-.14-2.849-.231-4.032-.244zm262.594 4.669c-1.33.016-2.673.099-4.031.22-5.431.489-7.52 1.002-9.781 2.457-2.261 1.456-1.344 2.956 1.593 4.316 2.936 1.36 9.237 2.042 14.907 1.858 5.67-.183 12.62-1.946 13.812-3.496 1.193-1.55-.66-3.35-5.25-4.293a52.942 52.942 0 0 0-11.25-1.062zm-93.062 2.7c-1.012.012-2.03.061-3.063.154-4.129.371-5.718.775-7.437 1.881-1.719 1.107-1.015 2.242 1.218 3.275 2.232 1.034 7.034 1.556 11.344 1.417 4.31-.14 9.594-1.477 10.5-2.656.907-1.178-.51-2.559-4-3.275a40.368 40.368 0 0 0-8.562-.797zm41.625 1.216c-1.224.016-2.47.065-3.719.177-4.997.45-6.92.94-9 2.28-2.08 1.34-1.203 2.71 1.5 3.961 2.7 1.251 8.502 1.873 13.719 1.704 5.216-.17 11.59-1.782 12.687-3.209 1.098-1.426-.589-3.072-4.812-3.939a48.95 48.95 0 0 0-10.375-.974zm-254.157.288c-3.985.057-7.3.643-10.124 1.505-3.23.984-3.45 2.623-1.407 3.828 2.044 1.205 8.893 2.324 13.656 2.17 4.764-.155 9.388-1.033 10.844-2.302 1.458-1.27 1.238-2.561-1.625-3.63-2.862-1.068-4.814-1.438-9.594-1.549-.597-.014-1.18-.03-1.75-.022zm98.813 1.616c-1.204.034-2.374.175-3.844.42-2.94.49-4.38 1.287-4.656 2.235-.278.949 1.911 1.905 4.906 2.368 2.995.463 8.582.306 11.125-.332 2.544-.638 3.948-1.682 2.906-2.59-1.04-.906-3.114-1.631-6.375-1.924-1.63-.147-2.858-.212-4.062-.177zm-154.875.22c-4.365.064-7.97.717-11.062 1.66-3.538 1.079-3.77 2.841-1.532 4.161 2.24 1.32 9.721 2.56 14.938 2.39 5.216-.17 10.28-1.133 11.875-2.523 1.597-1.39 1.354-2.813-1.781-3.983-3.136-1.17-5.266-1.56-10.5-1.682-.655-.015-1.314-.031-1.938-.022zm228.875 2.28c-.905.012-1.826.05-2.75.133-3.695.332-5.118.692-6.656 1.682-1.538.99-.905 1.996 1.093 2.921 1.997.925 6.3 1.386 10.157 1.261 3.856-.125 8.563-1.313 9.375-2.367.811-1.055-.44-2.28-3.563-2.922a36.076 36.076 0 0 0-7.656-.708zm-285.562 1.77c-5.124.074-9.37.818-13 1.926-4.152 1.266-4.41 3.342-1.782 4.89 2.628 1.55 11.408 2.987 17.532 2.789 6.123-.199 12.097-1.312 13.968-2.943 1.875-1.631 1.555-3.296-2.125-4.67-3.68-1.373-6.2-1.85-12.343-1.991a60.698 60.698 0 0 0-2.25 0zm-124.125 2.48c-1.58.01-3.196.078-4.813.176-6.47.392-11.426 2.053-12.812 3.85-1.387 1.799 3.07 4.544 8.75 5.489 5.68.945 13.552 1.045 19 0 5.45-1.045 8.953-2.499 9.062-4.337.109-1.84-1.367-2.663-6.281-3.895-3.686-.925-8.167-1.316-12.906-1.284zm595.062 2.765c-1.543.02-3.113.102-4.688.244-6.3.566-8.72 1.188-11.343 2.877-2.623 1.688-1.533 3.424 1.875 5.001 3.404 1.577 10.704 2.36 17.281 2.147 6.577-.214 14.617-2.252 16-4.05 1.383-1.798-.738-3.886-6.063-4.98a61.527 61.527 0 0 0-13.062-1.239zm-225.594 1.395c-1.685.048-3.318.233-5.375.575-4.114.685-6.114 1.837-6.5 3.164-.388 1.328 2.684 2.65 6.875 3.298 4.192.647 12.003.428 15.563-.465 3.56-.892 5.52-2.382 4.062-3.651-1.456-1.27-4.343-2.268-8.906-2.678-2.281-.205-4.034-.292-5.719-.243zm-65.562 3.651c-1.845.053-3.654.267-5.907.642-4.505.75-6.702 1.998-7.125 3.452-.425 1.454 2.973 2.898 7.563 3.607 4.59.71 13.133.469 17.031-.509 3.899-.977 6.035-2.594 4.438-3.983-1.595-1.39-4.753-2.494-9.75-2.943-2.499-.225-4.405-.32-6.25-.266zm-238.75 1.394c-5.503.08-10.07.868-13.969 2.058-4.46 1.36-4.76 3.604-1.937 5.267 2.822 1.664 12.267 3.2 18.843 2.988 6.577-.214 12.99-1.39 15-3.143 2.014-1.752 1.671-3.57-2.28-5.045-3.953-1.476-6.653-1.972-13.25-2.125-.826-.019-1.621-.011-2.407 0zm449.218 4.271a57 57 0 0 0-4.375.222c-5.865.527-8.12 1.105-10.562 2.677s-1.423 3.18 1.75 4.647c3.17 1.469 10.002 2.213 16.125 2.014 6.123-.198 13.618-2.087 14.906-3.762 1.288-1.674-.73-3.63-5.687-4.647a57.237 57.237 0 0 0-12.157-1.15zm-60.03 1.129a43.678 43.678 0 0 0-3.376.177c-4.563.41-6.319.857-8.219 2.08-1.899 1.223-1.124 2.487 1.344 3.63 2.466 1.142 7.768 1.703 12.531 1.548 4.764-.154 10.592-1.64 11.594-2.943 1.002-1.302-.55-2.815-4.406-3.607a44.661 44.661 0 0 0-9.469-.885zm-52.313 6.97c-2.006.059-3.927.28-6.375.687-4.897.815-7.29 2.182-7.75 3.762-.463 1.58 3.198 3.168 8.187 3.939 4.99.77 14.294.487 18.531-.575 4.238-1.063 6.549-2.805 4.813-4.316-1.733-1.51-5.163-2.698-10.594-3.186-2.715-.245-4.807-.368-6.812-.31zm-57.719 3.94c-2.801-.03-5.226.202-8.531.752-5.288.88-7.879 2.343-8.375 4.05-.5 1.707 3.456 3.417 8.843 4.249 5.388.832 15.456.55 20.032-.598 4.576-1.147 7.062-3.038 5.187-4.669-1.871-1.631-5.572-2.925-11.437-3.452-2.2-.198-4.038-.314-5.719-.332zm89.281 20.116c-3.008-.032-5.638.228-9.187.819-5.68.945-8.467 2.504-9 4.337-.537 1.833 3.713 3.687 9.5 4.58 5.786.895 16.585.57 21.5-.663 4.914-1.232 7.607-3.272 5.593-5.023-2.01-1.753-6.012-3.13-12.312-3.696-2.362-.212-4.289-.335-6.094-.354z" fill="url(#g)" fill-rule="evenodd" transform="translate(-684.134 -139.23)"/><path d="M258.873 245.944c0 49.593-40.203 89.796-89.797 89.796-49.593 0-89.796-40.203-89.796-89.796 0-49.594 40.203-89.797 89.796-89.797 49.594 0 89.797 40.203 89.797 89.797z" transform="matrix(2.23556 0 0 2.23927 39.004 -5.79)" fill="url(#h)" fill-rule="evenodd"/><path d="M412.85 344.16l-26.092 1.934 7.622-.744 19.632-1.455z" fill="#585858"/><path d="M416.858 343.864l19.782 1.047 5.367.611-26.31-1.391z" fill="#4f4f4f"/><path d="M440.807 744.445l10.248-2.452 29.01-5.73-9.181 2.648-10.829 2.113z" fill="#464646"/><path d="M581.197 660.393l-20.164 25.4 5.621-7.881 21.745-27.518z" fill="#494949"/><path d="M315.046 373.124L294.01 385.3l20.418-13.066 17.624-10.225z" fill="#454545"/><path d="M617.018 565.504l-2.546 14.752-7.55 31.81 2.148-12.908z" fill="#898989"/><path d="M610.623 492.294l6.751 31.15-4.803-16.652-6.814-31.663z" fill="#7d7d7d"/><path d="M239.23 455.316l-10.192 16.902 13.968-27.446 9.83-16.448z" fill="#404040"/><path d="M334.29 727.305l5.593 3.505-27.179-13.83-8.56-5.295z" fill="#383838"/><path d="M224.898 603.224l14.551 32.154 3.305 10.579-13.713-30.005z" fill="#414141"/><path d="M344.1 732.452l31.316 7.452 8.869 2.988-22.6-4.592-9.742-2.7z" fill="#434343"/><path d="M275.493 688.02l-7.07-7.82 26.901 23.076 5.059 5.746z" fill="#3e3e3e"/><path d="M536.37 383.123l-22.643-11.87-15.274-10.872 18.863 9.938z" fill="#434343"/><path d="M274.753 402.595l15.257-14.036-17.047 19.928-16.917 15.434z" fill="#484848"/><path d="M216.238 561.275l.39-32.646 2.507-16.453-.405 33.963z" fill="#929292"/><path d="M528.386 712.246l-7.51 5.294-28.66 13.752 4.808-3.49z" fill="#3e3e3e"/><path d="M578.509 425.888l11.937 16.484 13.266 27.622-12.54-16.979z" fill="#6e6e6e"/><path d="M536.018 703.806l27.972-23.194-5.621 7.881-26.205 21.085z" fill="#464646"/><path d="M575.177 421.485l-19.028-15.314-15.741-19.832 17.027 13.885z" fill="#6a6a6a"/><path d="M388.77 743.463l25.347-2.716 15.207 4.798-6.86.477-21.298-.581z" fill="#434343"/><path d="M592.3 635.312l15.506-32.596-2.148 12.907-14.797 30.398z" fill="#888"/><path d="M334.417 360.892l21.528-7.934-12.48 9.533-26.055 9.515z" fill="#454545"/><path d="M241.403 638.678l21.693 29.537 2.222 8.284-20.61-27.243z" fill="#646464"/><path d="M612.514 544.826l.413-34.435 4.803 16.651-.397 33.11z" fill="#dfdfdf"/><path d="M298.494 705.425l32.169 17.616 3.036 3.75-30.147-15.62z" fill="#404040"/><path d="M511.219 370.176l-27.348-9.058-10.44-9.346 22.513 7.531z" fill="#3a3a3a"/><path d="M458.954 736.112l36.602-10.92-2.164 3.756-4.809 3.49-7.163 3.114-29.01 5.73z" fill="#424242"/><path d="M223.662 598.166l-7.045-33.161 2.491-15.136 7.211 35.088z" fill="#acacac"/><path d="M238.054 458.555l-7.427 31.791-10.344 16.424 7.578-31.313z" fill="#2d2d2d"/><path d="M334.5 724.629l36.02 11.1 3.924 3.606-31.315-7.452-5.592-3.504z" fill="#494949"/><path d="M455.154 736.9l-6.544 5.168-10.249 2.452-6.343.798-15.208-4.799z" fill="#454545"/><path d="M532.721 705.959l-3.854 5.772-31.362 15.556 2.165-3.756z" fill="#494949"/><path d="M590.23 638.652l-1.438 10.709-21.746 27.518.578-8.368z" fill="#303030"/><path d="M346.27 361.678l12.48-9.533 24.443-5.115-7.078 8.483z" fill="#4d4d4d"/><path d="M293.802 696.486l1.118 6.01-26.902-23.075-2.223-8.283z" fill="#a5a5a5"/><path d="M298.828 393.47l-23.757 13.483 17.048-19.928 21.035-12.177z" fill="#454545"/><path d="M445.442 346.39l25.077 4.622 10.44 9.346-30.688-5.587z" fill="#4a4a4a"/><path d="M271.26 411.094l-12.499 26.478-18.024 15.947 13.606-26.991z" fill="#4f4f4f"/><path d="M592.253 456.281l12.54 16.98 6.814 31.663-12.837-16.53z" fill="#adadad"/><path d="M412.392 344.647l-1.16 8.082-32.01 2.334 7.079-8.483z" fill="#4e4e4e"/><path d="M612.045 548.609l4.819 15.327-7.948 33.653-4.914-13.374z" fill="#9c9c9c"/><path d="M442.21 346.003l4.83 8.38-32.3-1.69 1.16-8.082z" fill="#5e5e5e"/><path d="M239.428 634.056l-14.55-32.154 2.656-13.209 14.825 34.464z" fill="#040404"/><path d="M330.432 722.5l-32.169-17.617-1.118-6.01 33.046 19.76z" fill="#525252"/><path d="M564.802 671.459l-.577 8.367-27.973 23.195-.213-6.06z" fill="#383838"/><path d="M553.834 404.66l-25.7-13.186-12.684-18.515 22.642 11.87z" fill="#5f5f5f"/><path d="M219.443 544.386l.405-33.963L230.192 494l-.421 35.285z" fill="#3a3a3a"/><path d="M557.727 408.78l19.028 15.314 12.662 27.127-20.402-15.87z" fill="#7d7d7d"/><path d="M499.058 719.096l33.532-19.741.213 6.059-33.052 17.571z" fill="#454545"/><path d="M389.554 727.879l23.007 12.056-25.346 2.716-8.87-2.988-3.924-3.606 1.847-3.705 7.603-3.221z" fill="#424242"/><path d="M241.455 637.612l2.93-10.9 21.926 31.991-3.163 8.447z" fill="#333"/><path d="M607.608 601.378L592.1 633.974l-5.01-11.03 15.602-34.94z" fill="#afafaf"/><path d="M334.13 720.136l2.703-3.832 35.404 15.092-1.847 3.705-36.019-11.1zM331.368 381.594l-29.773 10.597 14.326-18.62 26.055-9.516z" fill="#454545"/><path d="M269.072 661.889l27.997 27.745-3.154 6.049-28.007-25.348z" fill="#3d3d3d"/><path d="M599.108 492.092l12.838 16.529-.413 34.435-12.853-15.221z" fill="#979797"/><path d="M232.203 488.548l7.427-31.792 18.024-15.947-6.875 32.204z" fill="#6f6f6f"/><path d="M455.154 736.243l-38.344 3.62 27.076-10.632 4.891 1.547z" fill="#414141"/><path d="M300.436 692.273l32.594 21.979-2.703 3.831-33.045-19.76z" fill="#4e4e4e"/><path d="M493.833 380.115l-8.678-17.45 27.348 9.058 12.685 18.516z" fill="#434343"/><path d="M562.423 658.891l22.554-32.347 5.01 11.03-22.606 29.86z" fill="#656565"/><path d="M237.159 570.257l-10.138 13.128-7.211-35.09 10.328-15.101z" fill="#bababa"/><path d="M458.964 735.189l-6.377-5.465 32-16.901 6.622 3.686 3.664 3.87.693 3.89z" fill="#3f3f3f"/><path d="M297.337 395.975l-10.591 25.962-25.663 14 12.498-26.478z" fill="#434343"/><path d="M531.219 690.037l28.372-27.932 4.957 8.542-28.763 25.504z" fill="#5f5f5f"/><path d="M527.808 692.686l4.566 6.113-33.531 19.742-3.664-3.871z" fill="#4f4f4f"/><path d="M369.043 373.772l-34.363 6.89 10.608-17.538 29.844-6.165z" fill="#414141"/><path d="M596.923 486.595l-21.115-15.503-5.804-32.48 20.402 15.87z" fill="#353535"/><path d="M529.466 393.98l25.7 13.185 11.288 26.573-27.873-13.74z" fill="#777"/><path d="M490.386 379.242l-35.4-6.275-3.964-16.761 30.687 5.587z" fill="#434343"/><path d="M252.748 611.069l-9.702 10.753-14.825-34.464 10.138-13.127z" fill="#e2e2e2"/><path d="M598.226 531.799l12.853 15.221-8.043 35.607-12.568-13.247z" fill="#444"/><path d="M441.982 729.071l-27.076 10.632-23.007-12.056 6.662-.932 22.94-.522 14.453 1.588zM372.81 730.806l-35.404-15.092 5.677-3.635 8.542-3.271 28.788 18.777z" fill="#404040"/><path d="M372.73 373.26l6.09-16.814 32.008-2.334-1.097 16.54z" fill="#4c4c4c"/><path d="M333.52 713.715l-32.593-21.978 7.595-5.827 30.677 24.17z" fill="#464646"/><path d="M413.801 370.614l1.098-16.54 32.3 1.69 3.965 16.76z" fill="#454545"/><path d="M231.797 492.297l18.577-15.535-.436 36.543-18.561 14.277z" fill="#949494"/><path d="M254.746 614.893l21.124 34.498-8.901 8.246-21.926-31.991z" fill="#8f8f8f"/><path d="M305.262 683.013l-7.595 5.827-27.997-27.746 8.9-8.245z" fill="#494949"/><path d="M494.557 714.127l-6.623-3.686 30.228-24.199 9.024 5.9z" fill="#3e3e3e"/><path d="M574.249 610.733l14.942-37.324 12.568 13.247-15.603 34.94z" fill="#1f1f1f"/><path d="M289.825 420.57l10.592-25.962 29.773-10.597-7.92 25.515z" fill="#454545"/><path d="M462.057 706.04l11.893 2.808 9.42 3.33-32 16.9-4.891-1.545-6.028-1.29z" fill="#4c4c4c"/><path d="M285.775 425.169l-5.888 32.534-26.65 13.669 6.875-32.204z" fill="#555"/><path d="M548.05 652.964l10.765 8.338-28.373 27.932-9.025-5.9z" fill="#323232"/><path d="M561.547 657.813l-10.764-8.338 21.41-34.871 11.907 10.862z" fill="#2b2b2b"/><path d="M596.793 526.128l-21.13-14.285.443-36.96 21.115 15.502z" fill="#9b9b9b"/><path d="M377.536 703.547l16.697 21.408-6.662.932-5.682 1.251-28.788-18.777 11.136-2.744z" fill="#484848"/><path d="M526.176 392.653l9.114 26.02-34.257-10.6-6.211-25.543z" fill="#3f3f3f"/><path d="M340.095 709.582l-30.677-24.17 11.987-5.32 27.232 26.219z" fill="#555"/><path d="M238.73 568.735l-7.021-37.064 18.56-14.277 6.409 38.98z" fill="#626262"/><path d="M539.41 423.248l27.872 13.74 5.804 32.48L544.066 456z" fill="#3f3f3f"/><path d="M503.786 680.343l13.351 5.395-30.227 24.198-9.42-3.33z" fill="#505050"/><path d="M446.185 703.552l13.885 2.137-21.606 20.202-14.453-1.588 6.92-22.097z" fill="#444"/><path d="M333.902 383.015l34.362-6.891-4.628 25.21-37.655 7.196z" fill="#6f6f6f"/><path d="M318.409 676.944l-11.987 5.321-26.691-30.163 14.709-7.627z" fill="#424242"/><path d="M254.239 609.785l-14.39-36.838 17.948-12.36 13.126 39.147z" fill="#747474"/><path d="M588.62 567.85l-20.4-12.4 7.029-39.466 21.13 14.285z" fill="#e1e1e1"/><path d="M420.19 724.217l-22.94.522-16.697-21.407 14.883-1.279 15.774-.413 15.9.48z" fill="#404040"/><path d="M455.552 375.318l35.4 6.274 6.211 25.544-38.85-6.597z" fill="#5d5d5d"/><path d="M256.102 613.876l16.684-10.05 19.149 36.922-14.71 7.627z" fill="#f6f6f6"/><path d="M338.752 675.134l22.305 28-11.136 2.744-27.232-26.22z" fill="#3a3a3a"/><path d="M252.45 511.752l.435-36.543 26.651-13.669-.45 37.66z" fill="#ababab"/><path d="M520.078 682.578l-13.352-5.395 23.456-32.677 16.529 7.702z" fill="#6b6b6b"/><path d="M409.413 372.972l-.962 25.104-40.667 2.713 4.628-25.21z" fill="#484848"/><path d="M476.088 706.165l-11.893-2.807 20.92-28.047 17.269 4.592z" fill="#555"/><path d="M412.94 398.038l.961-25.104 37.363 1.911 2.761 25.221z" fill="#575757"/><path d="M289.058 423.796l32.444-11.045-4.477 32.78-33.855 10.799z" fill="#696969"/><path d="M572.502 609.44l-18.88-10.114 13.421-39.61 20.401 12.4z" fill="#0b0b0b"/><path d="M549.203 648.45l-16.529-7.702 19.058-37.284 18.88 10.115z" fill="#232323"/><path d="M543.843 497.882l.455-38.008 29.022 13.467-.443 36.96z" fill="#8c8c8c"/><path d="M362.689 702.79l-22.306-28 19.533-3.457 16.072 29.386z" fill="#424242"/><path d="M504.742 444.243l-3.105-32.93 34.257 10.598 4.656 32.753z" fill="#959595"/><path d="M320.118 676.284l-23.969-32.47 20.215-6.565 19.817 34.51z" fill="#323232"/><path d="M448.58 700.87l14.324-29.426 20.481 3.515-20.92 28.047z" fill="#474747"/><path d="M252.721 516.01l26.637-12.552 5.337 40.709-25.566 10.823z" fill="#0e0e0e"/><path d="M383.944 668.932l8.84 30.273-14.884 1.279-16.072-29.387z" fill="#373737"/><path d="M528.304 643.84l-23.455 32.676-17.268-4.592 18.868-34.696z" fill="#333"/><path d="M460.918 671.202l-14.324 29.426-15.254-1.346 6.855-30.295z" fill="#5a5a5a"/><path d="M325.475 411.751l37.655-7.196-2.72 32.94-39.412 7.036z" fill="#6c6c6c"/><path d="M314.2 633.274l-20.216 6.565-19.148-36.923 23.415-8.738z" fill="#c3c3c3"/><path d="M296.636 589.836l-23.415 8.738-13.126-39.147 25.566-10.824z" fill="#111"/><path d="M410.662 698.68l-15.773.414-8.84-30.273 23.58-.725z" fill="#383838"/><path d="M572.528 514.605L565.5 554.07l-27.84-10.762 5.836-41.122z" fill="#131313"/><path d="M435.992 668.87l-6.855 30.295-15.9-.48-1.034-30.585z" fill="#474747"/><path d="M282.447 497.903l.45-37.66 33.855-10.8-.46 38.556z" fill="#303030"/><path d="M458.638 403.77l38.851 6.597 3.106 32.93-40.704-6.51z" fill="#282828"/><path d="M508.556 633.223l15.486-39.412 25.427 8.74-19.058 37.283z" fill="#4d4d4d"/><path d="M318.572 636.716l24.987-5.074 14.363 36.128-19.533 3.457z" fill="#3a3a3a"/><path d="M525.648 589.427l11.009-41.634 27.84 10.763-13.422 39.61z" fill="#9c9c9c"/><path d="M407.496 434.32l-42.636 2.634 2.72-32.94 40.667-2.713z" fill="#252525"/><path d="M504.425 486.99l.464-38.806 35.807 10.422-.455 38.007z" fill="#0c0c0c"/><path d="M412.217 434.286l.75-33.019 41.086 2.028 1.252 33.017z" fill="#5d5d5d"/><path d="M464.748 667.87l13.049-36.268 26.3 5.088-18.868 34.696z" fill="#555"/><path d="M282.634 502.307l33.844-9.905 3.823 42.108-32.33 8.505z" fill="#202020"/><path d="M316.888 632.53l-15.948-39.095 29.334-6.819 11.601 40.84z" fill="#838383"/><path d="M346.176 631.271l28.588-3.218 7.89 37.181-22.115 2.165z" fill="#737373"/><path d="M320.361 487.058l.46-38.555 39.413-7.036-.467 39.155z" fill="#969696"/><path d="M439.301 665.282l6.333-37.257 29.44 3.204-13.05 36.268z" fill="#7a7a7a"/><path d="M288.71 547.645l32.33-8.505 7.98 42.92-29.334 6.818z" fill="#bdbdbd"/><path d="M534.146 542.175l-34.192-8.335 4.212-42.41 35.816 9.624z" fill="#101010"/><path d="M490.202 586.316l30.966 6.753-15.486 39.411-26.3-5.088z" fill="#575757"/><path d="M500.638 447.288l-.464 38.805-40.71-6.03.47-39.286z" fill="#494949"/><path d="M377.662 627.87l30.65-1.114.82 37.571-23.58.725z" fill="#262626"/><path d="M442.632 627.842l-6.334 37.257-23.79-.77-.82-37.57z" fill="#737373"/><path d="M499.197 538.51l34.193 8.335-11.01 41.633-30.965-6.752z" fill="#a3a3a3"/><path d="M406.957 477.736l-42.633 2.383.468-39.155 42.636-2.634z" fill="#a2a2a2"/><path d="M455.279 440.33l-.47 39.285-43.09-1.905.471-39.407z" fill="#363636"/><path d="M373.681 623.713l-28.588 3.218-11.601-40.84 33.849-4.371z" fill="#bbb"/><path d="M320.443 491.572l39.406-6.435 1.948 43.045-37.53 5.498z" fill="#c1c1c1"/><path d="M446.587 623.67l5.342-42.12 34.917 4.248-10.82 41.076z" fill="#b7b7b7"/><path d="M366.545 577.004l-33.849 4.371-7.979-42.92 37.531-5.497z" fill="#d8d8d8"/><path d="M495.81 533.042l-38.757-5.234 2.26-43.206 40.71 6.03z" fill="#999"/><path d="M377.264 623.448l-6.34-41.993 36.451-1.558.538 42.436z" fill="#5c5c5c"/><path d="M411.954 622.331l-.538-42.436 36.824 1.4-5.342 42.12z" fill="#2e2e2e"/><path d="M487.576 581.06l-34.918-4.247 3.942-44.204 38.758 5.235z" fill="#464646"/><path d="M364.298 484.7l42.633-2.383-.142 43.426-40.542 2.002z" fill="#1b1b1b"/><path d="M411.686 482.3l43.09 1.905-2.26 43.206-40.972-1.686z" fill="#030303"/><path d="M366.358 532.604l40.543-2.002.206 44.49-36.452 1.558z" fill="#fefefe"/><path d="M411.418 530.593l40.972 1.686-3.942 44.204-36.824-1.4z" fill="#494949"/><path d="M1003.133 361.627c0 13.85-11.228 25.079-25.079 25.079-13.85 0-25.078-11.228-25.078-25.079 0-13.85 11.228-25.078 25.079-25.078 13.85 0 25.078 11.228 25.078 25.078z" transform="matrix(2.24212 0 0 2.24212 -1773.611 -276.524)" fill="#fff" fill-rule="evenodd" filter="url(#i)"/><path transform="translate(-1235.575 -302.376) scale(1.47004)" d="M1008.96 568.018a5.472 5.472 0 0 0-1.594.188c-8.2 2.197-9.497 23.932-2.906 48.53 6.592 24.6 18.582 42.76 26.781 40.563 8.2-2.197 9.498-23.932 2.907-48.53-6.18-23.063-17.09-40.476-25.188-40.75z" opacity=".756" fill="#fff" fill-rule="evenodd" filter="url(#j)"/><path transform="translate(-1024.405 -260.605) scale(1.36208)" d="M1189.013 572.056c-8.097.275-19.008 17.689-25.187 40.75-6.591 24.6-5.294 46.335 2.906 48.532 8.2 2.197 20.19-15.964 26.781-40.563 6.592-24.599 5.294-46.334-2.906-48.531a5.472 5.472 0 0 0-1.594-.188z" fill="#fff" fill-rule="evenodd" filter="url(#j)"/><path d="M196.425 549.844l54.902 58.132-47.158 1.351 47.52 1.384-55.264 58.56 58.362-55.067 1.352 47.093 1.35-47.159 58.364 55.134-55.266-58.56 47.521-1.385-47.092-1.351 54.87-58.165-58.363 55.067-1.384-47.52-1.385 47.52-58.33-55.034zM445.874 467.53l-35.778 58.072-11.525-38.558 9.351 39.461-60.454-32.608 58.26 35.932-38.505 11.51 39.156-9.298-32.543 60.262 36.05-58.466 11.633 38.85-9.284-39.101 60.041 32.369-58.26-35.932 38.85-11.632-39.46 9.351 32.468-60.213zM665.21 513.901l-78.287 42.265 12.128-51.071-15.172 50.673-47.023-76.26 42.376 78.584-51-12.11 50.293 15.033-76.06 46.848 78.851-42.532-12.197 51.471 15.014-50.223 46.71 75.72-42.375-78.582 51.47 12.197-50.673-15.172 75.945-46.84z" fill="#fff" fill-rule="evenodd"/></svg>