<svg xmlns="http://www.w3.org/2000/svg" xmlns:xlink="http://www.w3.org/1999/xlink" width="322.862" height="171.144"><defs><linearGradient id="b"><stop offset="0" stop-color="#424242"/><stop offset=".25" stop-color="#dfdfdf"/><stop offset=".5" stop-color="gray"/><stop offset="1" stop-color="#202020"/></linearGradient><linearGradient id="a"><stop offset="0" stop-color="#00f"/><stop offset="1" stop-color="#000042"/></linearGradient><linearGradient xlink:href="#b" id="c" x1="-93.225" y1="75.879" x2="-757.299" y2="523.648" gradientUnits="userSpaceOnUse" spreadMethod="reflect" gradientTransform="translate(-8.769 -9.785)"/><linearGradient xlink:href="#b" id="d" x1="-103.327" y1="66.788" x2="-767.401" y2="514.557" gradientUnits="userSpaceOnUse" spreadMethod="reflect" gradientTransform="translate(1.333 -.694)"/></defs><path style="marker:none" d="M27.695 1.283c-13.289 1.92.01 22.826-16.109 22.823C4.017 26.556-.35 32.87 1.371 41.153c.143 32.798-.287 65.653.215 98.414 4.183 8.666 21.165 6.432 19.267 18.337-3.2 10.673 7.97 13.154 15.41 11.957h258.905c13.288-1.92-.01-22.826 16.108-22.823 7.569-2.45 11.937-8.764 10.215-17.047-.143-32.798.287-65.653-.215-98.414-4.183-8.666-21.165-6.432-19.267-18.337C305.21 2.567 294.039.086 286.6 1.283H27.695zm-3.323 59.645c11.44-2.178 8.784 12.94 12.836 18.561 7.934-4.425 14.268-12.816 23.18-15.286 10.07-1.085 16.738 8.453 24.698 13.436 8.842 6.322 2.334-14.513 10.239-15.882 8.172-4.232 15.414 4.95 13.491 13.547-2.048 6.674 4.915 3.733 8.568 4.324h21.861c5.625-16.28 30.427-16.326 36.032 0 10.099-.094 20.548.187 30.429-.139-.302-7.101-.59-18.506 8.533-18.56 11.554-1.88 7.523 14.053 12.578 18.56 7.636-5.023 14.11-12.627 22.835-15.286 10.052-1.07 16.693 8.478 24.633 13.465 8.859 6.283 2.358-14.528 10.258-15.911 8.142-4.207 15.473 4.952 13.556 13.547-.306 9.476.685 19.097-.63 28.463-2.924 11.323-19.897 6.611-17.744-4.88 1.456-10.228-5.965-6.225-9.909-1.927-7.11 5.183-14.861 13.725-24.219 8.725-6.601-4.29-12.634-9.804-19.171-14.03-4.039 5.619-1.374 20.818-12.901 18.561-8.695-.902-7.977-11.737-7.819-18.7h-30.429c-5.605 16.326-30.407 16.281-36.032 0-10.099.094-20.548-.187-30.429.139.302 7.101.59 18.506-8.533 18.561-11.673 1.947-7.386-14.34-12.708-18.561-7.643 5.024-14.118 12.644-22.856 15.286-10.068 1.085-16.737-8.453-24.696-13.436-8.653-6.182-2.123 14.626-10.044 15.882-8.142 4.206-15.473-4.952-13.556-13.546.31-9.476-.692-19.099.63-28.464 1.03-3.358 3.811-6.468 7.319-6.449z" color="#000" overflow="visible" fill="url(#c)" stroke="url(#d)" stroke-width="2"/></svg>