<svg xmlns="http://www.w3.org/2000/svg" xmlns:xlink="http://www.w3.org/1999/xlink" width="340" height="234"><defs><linearGradient id="b"><stop offset="0" stop-color="#fbfdff"/><stop offset="1" stop-color="#71b3e4"/></linearGradient><linearGradient id="a"><stop offset="0" stop-color="#fff" stop-opacity=".211"/><stop offset=".531" stop-color="#fff"/><stop offset="1" stop-color="#fff" stop-opacity=".263"/></linearGradient><linearGradient xlink:href="#b" id="d" gradientUnits="userSpaceOnUse" gradientTransform="rotate(30 407.759 160.9)" x1="395.273" y1="38.399" x2="444.831" y2="38.399"/><linearGradient xlink:href="#b" id="e" gradientUnits="userSpaceOnUse" x1="274.969" y1="143.639" x2="534.598" y2="143.639"/><linearGradient xlink:href="#b" id="f" gradientUnits="userSpaceOnUse" gradientTransform="rotate(30 407.759 160.9)" x1="421.098" y1="55.217" x2="465.358" y2="55.217"/><linearGradient xlink:href="#b" id="g" gradientUnits="userSpaceOnUse" x1="274.969" y1="143.639" x2="534.598" y2="143.639"/><linearGradient xlink:href="#b" id="h" gradientUnits="userSpaceOnUse" gradientTransform="rotate(30 407.759 160.9)" x1="394.464" y1="48.58" x2="431.795" y2="48.58"/><linearGradient xlink:href="#b" id="i" gradientUnits="userSpaceOnUse" x1="274.969" y1="143.639" x2="534.598" y2="143.639"/><linearGradient xlink:href="#b" id="j" gradientUnits="userSpaceOnUse" gradientTransform="rotate(30 407.759 160.9)" x1="345.715" y1="38.399" x2="395.273" y2="38.399"/><linearGradient xlink:href="#b" id="k" gradientUnits="userSpaceOnUse" x1="274.969" y1="143.639" x2="534.598" y2="143.639"/><linearGradient xlink:href="#b" id="l" gradientUnits="userSpaceOnUse" gradientTransform="rotate(30 407.759 160.9)" x1="396.018" y1="57.604" x2="431.795" y2="57.604"/><linearGradient xlink:href="#b" id="m" gradientUnits="userSpaceOnUse" x1="274.969" y1="143.639" x2="534.598" y2="143.639"/><linearGradient xlink:href="#b" id="n" gradientUnits="userSpaceOnUse" gradientTransform="rotate(30 407.759 160.9)" x1="395.273" y1="60.297" x2="421.098" y2="60.297"/><linearGradient xlink:href="#b" id="o" gradientUnits="userSpaceOnUse" x1="274.969" y1="143.639" x2="534.598" y2="143.639"/><linearGradient xlink:href="#b" id="p" gradientUnits="userSpaceOnUse" gradientTransform="rotate(30 407.759 160.9)" x1="369.448" y1="60.311" x2="395.845" y2="60.311"/><linearGradient xlink:href="#b" id="q" gradientUnits="userSpaceOnUse" x1="274.969" y1="143.639" x2="534.598" y2="143.639"/><linearGradient xlink:href="#b" id="r" gradientUnits="userSpaceOnUse" gradientTransform="rotate(30 407.759 160.9)" x1="358.751" y1="57.647" x2="395.588" y2="57.647"/><linearGradient xlink:href="#b" id="s" gradientUnits="userSpaceOnUse" x1="274.969" y1="143.639" x2="534.598" y2="143.639"/><linearGradient xlink:href="#b" id="t" gradientUnits="userSpaceOnUse" gradientTransform="rotate(30 407.759 160.9)" x1="358.751" y1="48.58" x2="395.273" y2="48.58"/><linearGradient xlink:href="#b" id="u" gradientUnits="userSpaceOnUse" x1="274.969" y1="143.639" x2="534.598" y2="143.639"/><linearGradient xlink:href="#b" id="v" gradientUnits="userSpaceOnUse" gradientTransform="rotate(30 407.759 160.9)" x1="394.528" y1="42.049" x2="421.098" y2="42.049"/><linearGradient xlink:href="#b" id="w" gradientUnits="userSpaceOnUse" x1="274.969" y1="143.639" x2="534.598" y2="143.639"/><linearGradient xlink:href="#b" id="x" gradientUnits="userSpaceOnUse" gradientTransform="rotate(30 407.759 160.9)" x1="369.448" y1="42.059" x2="395.273" y2="42.059"/><linearGradient xlink:href="#b" id="y" gradientUnits="userSpaceOnUse" x1="274.969" y1="143.639" x2="534.598" y2="143.639"/><linearGradient xlink:href="#b" id="z" gradientUnits="userSpaceOnUse" gradientTransform="rotate(30 407.759 160.9)" x1="421.098" y1="74.063" x2="465.358" y2="74.063"/><linearGradient xlink:href="#b" id="A" gradientUnits="userSpaceOnUse" x1="274.969" y1="143.639" x2="534.598" y2="143.639"/><linearGradient xlink:href="#b" id="B" gradientUnits="userSpaceOnUse" gradientTransform="rotate(30 407.759 160.9)" x1="395.273" y1="85.652" x2="444.831" y2="85.652"/><linearGradient xlink:href="#b" id="C" gradientUnits="userSpaceOnUse" x1="274.969" y1="143.639" x2="534.598" y2="143.639"/><linearGradient xlink:href="#b" id="D" gradientUnits="userSpaceOnUse" gradientTransform="rotate(30 407.759 160.9)" x1="345.715" y1="85.652" x2="395.273" y2="85.652"/><linearGradient xlink:href="#b" id="E" gradientUnits="userSpaceOnUse" x1="274.969" y1="143.639" x2="534.598" y2="143.639"/><linearGradient xlink:href="#b" id="F" gradientUnits="userSpaceOnUse" gradientTransform="rotate(30 407.759 160.9)" x1="325.187" y1="74.063" x2="369.448" y2="74.063"/><linearGradient xlink:href="#b" id="G" gradientUnits="userSpaceOnUse" x1="274.969" y1="143.639" x2="534.598" y2="143.639"/><linearGradient xlink:href="#b" id="H" gradientUnits="userSpaceOnUse" gradientTransform="rotate(30 407.759 160.9)" x1="325.187" y1="55.217" x2="369.448" y2="55.217"/><linearGradient xlink:href="#b" id="I" gradientUnits="userSpaceOnUse" x1="274.969" y1="143.639" x2="534.598" y2="143.639"/><linearGradient xlink:href="#b" id="J" gradientUnits="userSpaceOnUse" gradientTransform="rotate(30 407.759 160.9)" x1="431.795" y1="61.674" x2="465.358" y2="61.674"/><linearGradient xlink:href="#b" id="K" gradientUnits="userSpaceOnUse" x1="274.969" y1="143.639" x2="534.598" y2="143.639"/><linearGradient xlink:href="#b" id="L" gradientUnits="userSpaceOnUse" gradientTransform="rotate(30 407.759 160.9)" x1="431.795" y1="61.674" x2="465.358" y2="61.674"/><linearGradient xlink:href="#b" id="M" gradientUnits="userSpaceOnUse" x1="274.969" y1="143.639" x2="534.598" y2="143.639"/><linearGradient xlink:href="#b" id="N" gradientUnits="userSpaceOnUse" gradientTransform="rotate(30 407.759 160.9)" x1="444.831" y1="96.093" x2="493.244" y2="96.093"/><linearGradient xlink:href="#b" id="O" gradientUnits="userSpaceOnUse" x1="274.969" y1="143.639" x2="534.598" y2="143.639"/><linearGradient xlink:href="#b" id="P" gradientUnits="userSpaceOnUse" gradientTransform="rotate(30 407.759 160.9)" x1="395.273" y1="115.657" x2="464.549" y2="115.657"/><linearGradient xlink:href="#b" id="Q" gradientUnits="userSpaceOnUse" x1="274.969" y1="143.639" x2="534.598" y2="143.639"/><linearGradient xlink:href="#b" id="R" gradientUnits="userSpaceOnUse" gradientTransform="rotate(30 407.759 160.9)" x1="325.997" y1="115.657" x2="395.273" y2="115.657"/><linearGradient xlink:href="#b" id="S" gradientUnits="userSpaceOnUse" x1="274.969" y1="143.639" x2="534.598" y2="143.639"/><linearGradient xlink:href="#b" id="T" gradientUnits="userSpaceOnUse" gradientTransform="rotate(30 407.759 160.9)" x1="297.302" y1="96.093" x2="345.715" y2="96.093"/><linearGradient xlink:href="#b" id="U" gradientUnits="userSpaceOnUse" x1="274.969" y1="143.639" x2="534.598" y2="143.639"/><linearGradient xlink:href="#b" id="V" gradientUnits="userSpaceOnUse" gradientTransform="rotate(30 407.759 160.9)" x1="297.302" y1="66.384" x2="345.715" y2="66.384"/><linearGradient xlink:href="#b" id="W" gradientUnits="userSpaceOnUse" x1="274.969" y1="143.639" x2="534.598" y2="143.639"/><linearGradient xlink:href="#b" id="X" gradientUnits="userSpaceOnUse" gradientTransform="rotate(30 407.759 160.9)" x1="444.831" y1="66.384" x2="493.244" y2="66.384"/><linearGradient xlink:href="#b" id="Y" gradientUnits="userSpaceOnUse" x1="274.969" y1="143.639" x2="534.598" y2="143.639"/><linearGradient xlink:href="#b" id="Z" gradientUnits="userSpaceOnUse" gradientTransform="rotate(30 407.759 160.9)" x1="465.358" y1="78.774" x2="493.244" y2="78.774"/><linearGradient xlink:href="#b" id="aa" gradientUnits="userSpaceOnUse" x1="274.969" y1="143.639" x2="534.598" y2="143.639"/><linearGradient xlink:href="#b" id="ab" gradientUnits="userSpaceOnUse" gradientTransform="rotate(30 407.759 160.9)" x1="465.358" y1="78.774" x2="493.244" y2="78.774"/><linearGradient xlink:href="#b" id="ac" gradientUnits="userSpaceOnUse" x1="274.969" y1="143.639" x2="534.598" y2="143.639"/><linearGradient xlink:href="#b" id="ad" gradientUnits="userSpaceOnUse" gradientTransform="rotate(30 407.759 160.9)" x1="464.549" y1="123.523" x2="513.192" y2="123.523"/><linearGradient xlink:href="#b" id="ae" gradientUnits="userSpaceOnUse" x1="274.969" y1="143.639" x2="534.598" y2="143.639"/><linearGradient xlink:href="#b" id="af" gradientUnits="userSpaceOnUse" gradientTransform="rotate(30 407.759 160.9)" x1="395.281" y1="149.087" x2="478.656" y2="149.087"/><linearGradient xlink:href="#b" id="ag" gradientUnits="userSpaceOnUse" x1="274.969" y1="143.639" x2="534.598" y2="143.639"/><linearGradient xlink:href="#b" id="ah" gradientUnits="userSpaceOnUse" gradientTransform="rotate(30 407.759 160.9)" x1="311.906" y1="149.087" x2="395.281" y2="149.087"/><linearGradient xlink:href="#b" id="ai" gradientUnits="userSpaceOnUse" x1="274.969" y1="143.639" x2="534.598" y2="143.639"/><linearGradient xlink:href="#b" id="aj" gradientUnits="userSpaceOnUse" gradientTransform="rotate(30 407.759 160.9)" x1="277.354" y1="123.523" x2="325.997" y2="123.523"/><linearGradient xlink:href="#b" id="ak" gradientUnits="userSpaceOnUse" x1="274.969" y1="143.639" x2="534.598" y2="143.639"/><linearGradient xlink:href="#b" id="al" gradientUnits="userSpaceOnUse" gradientTransform="rotate(30 407.759 160.9)" x1="478.654" y1="154.131" x2="523.587" y2="154.131"/><linearGradient xlink:href="#b" id="am" gradientUnits="userSpaceOnUse" x1="274.969" y1="143.639" x2="534.598" y2="143.639"/><linearGradient xlink:href="#b" id="an" gradientUnits="userSpaceOnUse" gradientTransform="rotate(30 407.759 160.9)" x1="399.094" y1="181.54" x2="486" y2="181.54"/><linearGradient xlink:href="#b" id="ao" gradientUnits="userSpaceOnUse" x1="274.969" y1="143.639" x2="534.598" y2="143.639"/><linearGradient xlink:href="#b" id="ap" gradientUnits="userSpaceOnUse" gradientTransform="rotate(30 407.759 160.9)" x1="304.531" y1="181.54" x2="391.438" y2="181.54"/><linearGradient xlink:href="#b" id="aq" gradientUnits="userSpaceOnUse" x1="274.969" y1="143.639" x2="534.598" y2="143.639"/><linearGradient xlink:href="#b" id="ar" gradientUnits="userSpaceOnUse" gradientTransform="rotate(30 407.759 160.9)" x1="266.958" y1="154.131" x2="311.891" y2="154.131"/><linearGradient xlink:href="#b" id="as" gradientUnits="userSpaceOnUse" x1="274.969" y1="143.639" x2="534.598" y2="143.639"/><linearGradient xlink:href="#b" id="at" gradientUnits="userSpaceOnUse" gradientTransform="rotate(30 407.759 160.9)" x1="486.005" y1="185.439" x2="523.587" y2="185.439"/><linearGradient xlink:href="#b" id="au" gradientUnits="userSpaceOnUse" x1="274.969" y1="143.639" x2="534.598" y2="143.639"/><linearGradient xlink:href="#b" id="av" gradientUnits="userSpaceOnUse" gradientTransform="rotate(30 407.759 160.9)" x1="422.531" y1="214.696" x2="486" y2="214.696"/><linearGradient xlink:href="#b" id="aw" gradientUnits="userSpaceOnUse" x1="274.969" y1="143.639" x2="534.598" y2="143.639"/><linearGradient xlink:href="#b" id="ax" gradientUnits="userSpaceOnUse" gradientTransform="rotate(30 407.759 160.9)" x1="304.531" y1="214.696" x2="368" y2="214.696"/><linearGradient xlink:href="#b" id="ay" gradientUnits="userSpaceOnUse" x1="274.969" y1="143.639" x2="534.598" y2="143.639"/><linearGradient xlink:href="#b" id="az" gradientUnits="userSpaceOnUse" gradientTransform="rotate(30 407.759 160.9)" x1="266.958" y1="185.439" x2="304.541" y2="185.439"/><linearGradient xlink:href="#b" id="aA" gradientUnits="userSpaceOnUse" x1="274.969" y1="143.639" x2="534.598" y2="143.639"/><linearGradient xlink:href="#b" id="aB" gradientUnits="userSpaceOnUse" gradientTransform="rotate(30 407.759 160.9)" x1="478.654" y1="214.908" x2="523.587" y2="214.908"/><linearGradient xlink:href="#b" id="aC" gradientUnits="userSpaceOnUse" x1="274.969" y1="143.639" x2="534.598" y2="143.639"/><linearGradient xlink:href="#b" id="aD" gradientUnits="userSpaceOnUse" gradientTransform="rotate(30 407.759 160.9)" x1="422.531" y1="243.399" x2="486" y2="243.399"/><linearGradient xlink:href="#b" id="aE" gradientUnits="userSpaceOnUse" x1="274.969" y1="143.639" x2="534.598" y2="143.639"/><linearGradient xlink:href="#b" id="aF" gradientUnits="userSpaceOnUse" gradientTransform="rotate(30 407.759 160.9)" x1="304.531" y1="243.399" x2="368" y2="243.399"/><linearGradient xlink:href="#b" id="aG" gradientUnits="userSpaceOnUse" x1="274.969" y1="143.639" x2="534.598" y2="143.639"/><linearGradient xlink:href="#b" id="aH" gradientUnits="userSpaceOnUse" gradientTransform="rotate(30 407.759 160.9)" x1="266.958" y1="214.908" x2="311.891" y2="214.908"/><linearGradient xlink:href="#b" id="aI" gradientUnits="userSpaceOnUse" x1="274.969" y1="143.639" x2="534.598" y2="143.639"/><linearGradient xlink:href="#b" id="c" gradientUnits="userSpaceOnUse" x1="274.969" y1="143.639" x2="534.598" y2="143.639"/><linearGradient xlink:href="#a" id="aJ" gradientUnits="userSpaceOnUse" gradientTransform="matrix(0 .8 -.80906 0 457.11 -310.064)" spreadMethod="reflect" x1="409.239" y1="34.048" x2="449.886" y2="34.048"/><linearGradient xlink:href="#a" id="aK" gradientUnits="userSpaceOnUse" gradientTransform="matrix(0 .8 -.80906 0 493.893 -311.597)" spreadMethod="reflect" x1="434.535" y1="50.867" x2="470.943" y2="50.867"/><linearGradient xlink:href="#a" id="aL" gradientUnits="userSpaceOnUse" gradientTransform="matrix(0 .8 -.80906 0 458.425 -294.23)" spreadMethod="reflect" x1="407.208" y1="44.229" x2="438.073" y2="44.229"/><linearGradient xlink:href="#a" id="aM" gradientUnits="userSpaceOnUse" gradientTransform="matrix(0 .8 -.80906 0 407.552 -270.418)" spreadMethod="reflect" x1="359.681" y1="34.048" x2="400.328" y2="34.048"/><linearGradient xlink:href="#a" id="aN" gradientUnits="userSpaceOnUse" gradientTransform="matrix(0 .8 -.80906 0 466.503 -285.725)" spreadMethod="reflect" x1="408.606" y1="53.254" x2="438.228" y2="53.254"/><linearGradient xlink:href="#a" id="aO" gradientUnits="userSpaceOnUse" gradientTransform="matrix(0 .8 -.80906 0 462.96 -278.425)" spreadMethod="reflect" x1="406.866" y1="55.946" x2="428.526" y2="55.946"/><linearGradient xlink:href="#a" id="aP" gradientUnits="userSpaceOnUse" gradientTransform="matrix(0 .8 -.80906 0 437.433 -257.979)" spreadMethod="reflect" x1="381.098" y1="55.961" x2="403.216" y2="55.961"/><linearGradient xlink:href="#a" id="aQ" gradientUnits="userSpaceOnUse" gradientTransform="matrix(0 .8 -.80906 0 429.8 -256.292)" spreadMethod="reflect" x1="371.445" y1="53.297" x2="401.915" y2="53.297"/><linearGradient xlink:href="#a" id="aR" gradientUnits="userSpaceOnUse" gradientTransform="matrix(0 .8 -.80906 0 422.307 -265.336)" spreadMethod="reflect" x1="371.414" y1="44.229" x2="401.631" y2="44.229"/><linearGradient xlink:href="#a" id="aS" gradientUnits="userSpaceOnUse" gradientTransform="matrix(0 .8 -.80906 0 447.824 -296.581)" spreadMethod="reflect" x1="406.195" y1="37.699" x2="428.452" y2="37.699"/><linearGradient xlink:href="#a" id="aT" gradientUnits="userSpaceOnUse" gradientTransform="matrix(0 .8 -.80906 0 422.38 -276.21)" spreadMethod="reflect" x1="381.041" y1="37.709" x2="402.701" y2="37.709"/><linearGradient xlink:href="#a" id="aU" gradientUnits="userSpaceOnUse" gradientTransform="matrix(0 .8 -.80906 0 509.141 -292.537)" spreadMethod="reflect" x1="434.535" y1="69.713" x2="470.943" y2="69.713"/><linearGradient xlink:href="#a" id="aV" gradientUnits="userSpaceOnUse" gradientTransform="matrix(0 .8 -.80906 0 495.341 -262.275)" spreadMethod="reflect" x1="409.239" y1="81.302" x2="449.886" y2="81.302"/><linearGradient xlink:href="#a" id="aW" gradientUnits="userSpaceOnUse" gradientTransform="matrix(0 .8 -.80906 0 445.783 -222.63)" spreadMethod="reflect" x1="359.681" y1="81.302" x2="400.328" y2="81.302"/><linearGradient xlink:href="#a" id="aX" gradientUnits="userSpaceOnUse" gradientTransform="matrix(0 .8 -.80906 0 413.23 -215.808)" spreadMethod="reflect" x1="338.624" y1="69.713" x2="375.033" y2="69.713"/><linearGradient xlink:href="#a" id="aY" gradientUnits="userSpaceOnUse" gradientTransform="matrix(0 .8 -.80906 0 397.983 -234.868)" spreadMethod="reflect" x1="338.624" y1="50.867" x2="375.033" y2="50.867"/><linearGradient xlink:href="#a" id="aZ" gradientUnits="userSpaceOnUse" gradientTransform="matrix(0 .8 -.80906 0 504.466 -309.346)" spreadMethod="reflect" x1="444.162" y1="57.323" x2="472.013" y2="57.323"/><linearGradient xlink:href="#a" id="ba" gradientUnits="userSpaceOnUse" gradientTransform="matrix(0 .8 -.80906 0 504.466 -309.346)" spreadMethod="reflect" x1="444.162" y1="57.323" x2="472.013" y2="57.323"/><linearGradient xlink:href="#a" id="bb" gradientUnits="userSpaceOnUse" gradientTransform="matrix(0 .8 -.80906 0 552.774 -290.905)" spreadMethod="reflect" x1="458.683" y1="91.743" x2="498.413" y2="91.743"/><linearGradient xlink:href="#a" id="bc" gradientUnits="userSpaceOnUse" gradientTransform="matrix(0 .8 -.80906 0 529.476 -239.818)" spreadMethod="reflect" x1="411.211" y1="111.306" x2="467.632" y2="111.306"/><linearGradient xlink:href="#a" id="bd" gradientUnits="userSpaceOnUse" gradientTransform="matrix(0 .8 -.80906 0 460.2 -184.397)" spreadMethod="reflect" x1="341.935" y1="111.306" x2="398.356" y2="111.306"/><linearGradient xlink:href="#a" id="be" gradientUnits="userSpaceOnUse" gradientTransform="matrix(0 .8 -.80906 0 405.245 -172.882)" spreadMethod="reflect" x1="311.154" y1="91.743" x2="350.884" y2="91.743"/><linearGradient xlink:href="#a" id="bf" gradientUnits="userSpaceOnUse" gradientTransform="matrix(0 .8 -.80906 0 381.208 -202.928)" spreadMethod="reflect" x1="311.154" y1="62.033" x2="350.884" y2="62.033"/><linearGradient xlink:href="#a" id="bg" gradientUnits="userSpaceOnUse" gradientTransform="matrix(0 .8 -.80906 0 528.737 -320.95)" spreadMethod="reflect" x1="458.683" y1="62.033" x2="498.413" y2="62.033"/><linearGradient xlink:href="#a" id="bh" gradientUnits="userSpaceOnUse" gradientTransform="matrix(0 .8 -.80906 0 549.025 -316.631)" spreadMethod="reflect" x1="477.158" y1="74.423" x2="500.466" y2="74.423"/><linearGradient xlink:href="#a" id="bi" gradientUnits="userSpaceOnUse" gradientTransform="matrix(0 .8 -.80906 0 549.025 -316.631)" spreadMethod="reflect" x1="477.158" y1="74.423" x2="500.466" y2="74.423"/><linearGradient xlink:href="#a" id="bj" gradientUnits="userSpaceOnUse" gradientTransform="matrix(0 .8 -.80906 0 594.8 -279.03)" spreadMethod="reflect" x1="478.424" y1="119.173" x2="518.338" y2="119.173"/><linearGradient xlink:href="#a" id="bk" gradientUnits="userSpaceOnUse" gradientTransform="matrix(0 .8 -.80906 0 563.58 -211.656)" spreadMethod="reflect" x1="412.63" y1="144.736" x2="480.33" y2="144.736"/><linearGradient xlink:href="#a" id="bl" gradientUnits="userSpaceOnUse" gradientTransform="matrix(0 .8 -.80906 0 480.205 -144.956)" spreadMethod="reflect" x1="329.255" y1="144.736" x2="396.955" y2="144.736"/><linearGradient xlink:href="#a" id="bm" gradientUnits="userSpaceOnUse" gradientTransform="matrix(0 .8 -.80906 0 407.604 -129.274)" spreadMethod="reflect" x1="291.229" y1="119.173" x2="331.143" y2="119.173"/><linearGradient xlink:href="#a" id="bn" gradientUnits="userSpaceOnUse" gradientTransform="matrix(0 .8 -.80906 0 631.814 -257.876)" spreadMethod="reflect" x1="492.158" y1="149.781" x2="529.105" y2="149.781"/><linearGradient xlink:href="#a" id="bo" gradientUnits="userSpaceOnUse" gradientTransform="matrix(0 .8 -.80906 0 595.415 -183.298)" spreadMethod="reflect" x1="416.795" y1="177.189" x2="487.32" y2="177.189"/><linearGradient xlink:href="#a" id="bp" gradientUnits="userSpaceOnUse" gradientTransform="matrix(0 .8 -.80906 0 500.853 -107.648)" spreadMethod="reflect" x1="322.233" y1="177.189" x2="392.758" y2="177.189"/><linearGradient xlink:href="#a" id="bq" gradientUnits="userSpaceOnUse" gradientTransform="matrix(0 .8 -.80906 0 420.118 -88.519)" spreadMethod="reflect" x1="280.462" y1="149.781" x2="317.409" y2="149.781"/><linearGradient xlink:href="#a" id="br" gradientUnits="userSpaceOnUse" gradientTransform="matrix(0 .8 -.80906 0 660.819 -229.154)" spreadMethod="reflect" x1="498.774" y1="181.088" x2="529.84" y2="181.088"/><linearGradient xlink:href="#a" id="bs" gradientUnits="userSpaceOnUse" gradientTransform="matrix(0 .8 -.80906 0 633.96 -159.14)" spreadMethod="reflect" x1="437.889" y1="210.346" x2="489.664" y2="210.346"/><linearGradient xlink:href="#a" id="bt" gradientUnits="userSpaceOnUse" gradientTransform="matrix(0 .8 -.80906 0 515.96 -64.74)" spreadMethod="reflect" x1="319.889" y1="210.346" x2="371.664" y2="210.346"/><linearGradient xlink:href="#a" id="bu" gradientUnits="userSpaceOnUse" gradientTransform="matrix(0 .8 -.80906 0 441.772 -53.917)" spreadMethod="reflect" x1="279.727" y1="181.088" x2="310.793" y2="181.088"/><linearGradient xlink:href="#a" id="bv" gradientUnits="userSpaceOnUse" gradientTransform="matrix(0 .8 -.80906 0 680.986 -196.41)" spreadMethod="reflect" x1="492.158" y1="210.558" x2="529.105" y2="210.558"/><linearGradient xlink:href="#a" id="bw" gradientUnits="userSpaceOnUse" gradientTransform="matrix(0 .8 -.80906 0 657.182 -130.113)" spreadMethod="reflect" x1="437.889" y1="239.049" x2="489.664" y2="239.049"/><linearGradient xlink:href="#a" id="bx" gradientUnits="userSpaceOnUse" gradientTransform="matrix(0 .8 -.80906 0 539.182 -35.713)" spreadMethod="reflect" x1="319.889" y1="239.049" x2="371.664" y2="239.049"/><linearGradient xlink:href="#a" id="by" gradientUnits="userSpaceOnUse" gradientTransform="matrix(0 .8 -.80906 0 469.29 -27.054)" spreadMethod="reflect" x1="280.462" y1="210.558" x2="317.409" y2="210.558"/></defs><path style="text-indent:0;text-align:start;line-height:normal;text-transform:none;block-progression:tb;marker:none;-inkscape-font-specification:Sans" d="M263.844 94.78c-19.589 2.552-39.472 3.482-58.88 7.04-13.272 2.811-26.286 6.57-38.56 12.418-23.888 10.24-48.353 19.439-71.289 31.629-11.288 7.699-23.989 13.673-32.905 24.317-8.433 6.443-13.135 15.66-16.347 25.583-.561 8.796 6.631 17.412 8.762 26.17 13.53 2.138 27.47 3.886 41.156 5.874 2.183-25.694 5.625-52.497 18.846-75.14 4.886-11.256 20.8-17.28 28.99-5.915 8.513 9.72 12.627 22.363 16.07 34.587 11.202-2.95 26.783-8.484 36.182.958 1.528 8.897-7.975 13.776-13.01 19.776l-16.671 16.672c-2.786 15.6 15.804 5.165 24.93 6.296 9.26-1.046 18.546-1.965 27.788-3.109 20.08-8.73 40.753-16.301 60.474-25.736 8.647-5.516 17.353-11.023 25.964-16.545 6.226-7.308 15.027-12.9 19.73-21.25 8.144-10.99 6.297-23.358 1.068-35.083-3.125-9.353-6.399-19.175-17.262-21.484-11.737-3.222-24.116-3.825-36.155-5.845-2.961-.395-5.917-.862-8.881-1.213z" font-weight="400" opacity=".7" color="#000" fill="gray" overflow="visible" font-family="Sans"/><g stroke="url(#c)" stroke-width="3" stroke-linecap="round" stroke-linejoin="round" transform="translate(-274.969 -25.877)"><path d="M404.784 32.424v-3.508l49.557 10.265-23.732-1.408-25.825-5.35" fill="url(#d)" stroke="url(#e)"/><path d="M430.609 37.773l23.732 1.408 20.528 24.78-33.563-13.275-10.697-12.913" fill="url(#f)" stroke="url(#g)"/><path d="M404.038 42.944l26.57-5.171 10.698 12.913-37.331-7.778.063.036" fill="url(#h)" stroke="url(#i)"/><path d="M378.959 37.773l-23.733 1.408 49.558-10.265v3.508l-25.825 5.349" fill="url(#j)" stroke="url(#k)"/><path d="M405.592 42.908l35.714 7.778L430.609 63.6l-25.08-20.656.063-.036" fill="url(#l)" stroke="url(#m)"/><path d="M405.529 42.944l25.08 20.656-25.825 5.348.571-25.974.174-.03" fill="url(#n)" stroke="url(#o)"/><path d="M405.355 42.974l-.571 25.974-25.825-5.348 26.14-20.606.256-.02" fill="url(#p)" stroke="url(#q)"/><path d="M405.098 42.994L378.958 63.6l-10.697-12.914 36.523-7.684.314-.008" fill="url(#r)" stroke="url(#s)"/><path d="M404.784 43.002l-36.523 7.684 10.698-12.913 25.51 5.22.315.009" fill="url(#t)" stroke="url(#u)"/><path d="M404.212 42.974l.572-10.55 25.825 5.349-26.57 5.171.173.03" fill="url(#v)" stroke="url(#w)"/><path d="M404.469 42.994l-25.51-5.221 25.825-5.35-.572 10.55.257.02" fill="url(#x)" stroke="url(#y)"/><path d="M441.306 50.686l33.563 13.274-20.528 24.78L430.61 63.6l10.697-12.914" fill="url(#z)" stroke="url(#A)"/><path d="M430.609 63.6l23.732 25.14-49.557 10.264V68.948l25.825-5.348" fill="url(#B)" stroke="url(#C)"/><path d="M404.784 68.948v30.056L355.226 88.74l23.733-25.14 25.825 5.348" fill="url(#D)" stroke="url(#E)"/><path d="M378.959 63.6l-23.733 25.14-20.528-24.78 33.563-13.274L378.96 63.6" fill="url(#F)" stroke="url(#G)"/><path d="M368.261 50.686L334.698 63.96l20.528-24.78 23.733-1.407-10.698 12.913" fill="url(#H)" stroke="url(#I)"/><path d="M441.306 50.686l33.563 13.274h0l-33.563-13.274h0" fill="url(#J)" stroke="url(#K)"/><path d="M441.306 50.686l33.563 13.274h0l-33.563-13.274h0" fill="url(#L)" stroke="url(#M)"/><path d="M502.754 84.886L474.87 63.96l-20.528 24.78 19.718 30.785 28.695-34.639" fill="url(#N)" stroke="url(#O)"/><path d="M474.06 119.525L454.34 88.74l-49.557 10.264v34.869l69.275-14.348" fill="url(#P)" stroke="url(#Q)"/><path d="M404.784 133.873V99.004L355.226 88.74l-19.718 30.785 69.276 14.348" fill="url(#R)" stroke="url(#S)"/><path d="M335.508 119.525l19.718-30.785-20.528-24.78-27.885 20.926 28.695 34.639" fill="url(#T)" stroke="url(#U)"/><path d="M306.813 84.886l27.885-20.926 20.528-24.78-19.718 11.067-28.695 34.639" fill="url(#V)" stroke="url(#W)"/><path d="M474.06 50.247L454.34 39.181l20.528 24.78 27.885 20.925-28.695-34.639" fill="url(#X)" stroke="url(#Y)"/><path d="M502.754 84.886L474.87 63.96h0l27.885 20.926h0" fill="url(#Z)" stroke="url(#aa)"/><path d="M502.754 84.886L474.87 63.96h0l27.885 20.926h0" fill="url(#ab)" stroke="url(#ac)"/><path d="M502.754 84.886l19.949 26.882-34.538 41.691-14.106-33.934 28.695-34.639" fill="url(#ad)" stroke="url(#ae)"/><path d="M474.073 119.517l-69.28 14.344v35.813c1.291 0 2.568.106 3.812.28l79.562-16.5-14.094-33.937z" fill="url(#af)" stroke="url(#ag)"/><path d="M335.51 119.517l-14.093 33.938 79.531 16.5a27.118 27.118 0 0 1 3.813-.281h.031V133.86l-69.281-14.344z" fill="url(#ah)" stroke="url(#ai)"/><path d="M335.508 119.525l-14.106 33.934-34.538-41.691 19.949-26.882 28.695 34.639" fill="url(#aj)" stroke="url(#ak)"/><path d="M522.703 111.768l10.395 30.66-37.582 45.367-7.351-34.336 34.538-41.691" fill="url(#al)" stroke="url(#am)"/><path d="M488.167 153.455l-79.562 16.5c13.24 1.866 23.437 13.245 23.437 27 0 .426-.012.828-.031 1.25.002.016-.002.046 0 .062-.001.028.002.036 0 .063.014.172.031.355.031.531v2.063l63.469-13.125-7.344-34.344z" fill="url(#an)" stroke="url(#ao)"/><path d="M321.417 153.455l-7.375 34.344 63.469 13.125v-2.063c0-.243.005-.483.031-.719a26.87 26.87 0 0 1-.031-1.187c0-13.755 10.2-25.134 23.437-27l-79.53-16.5z" fill="url(#ap)" stroke="url(#aq)"/><path d="M321.402 153.46l-7.35 34.335-37.583-45.367 10.395-30.66 34.538 41.691" fill="url(#ar)" stroke="url(#as)"/><path d="M533.098 142.428v31.954l-37.582 45.367v-31.954l37.582-45.367" fill="url(#at)" stroke="url(#au)"/><path d="M495.51 187.799l-63.468 13.125v31.968l63.469-13.156V187.8z" fill="url(#av)" stroke="url(#aw)"/><path d="M314.042 187.799v31.937l63.469 13.156v-31.968l-63.469-13.125z" fill="url(#ax)" stroke="url(#ay)"/><path d="M314.052 187.795v31.954l-37.583-45.367v-31.954l37.583 45.367" fill="url(#az)" stroke="url(#aA)"/><path d="M522.703 205.042l10.395-30.66-37.582 45.367-7.351 26.985 34.538-41.692" fill="url(#aB)" stroke="url(#aC)"/><path d="M495.51 219.736l-63.468 13.156v25.47l56.125-11.626 7.344-27z" fill="url(#aD)" stroke="url(#aE)"/><path d="M314.042 219.736l7.375 27 56.094 11.625v-25.469l-63.469-13.156z" fill="url(#aF)" stroke="url(#aG)"/><path d="M321.402 246.734l-7.35-26.985-37.583-45.367 10.395 30.66 34.538 41.692" fill="url(#aH)" stroke="url(#aI)"/></g><g color="#000"><path d="M130.281 142.897c-15.057 0-27.25 12.12-27.25 27.05 0 .402.014.782.032 1.178a6.36 6.36 0 0 0-.032.713v58.997l50.282-58.997c.205-.241.43-.479.656-.713.32-.396.627-.776.969-1.177a66.085 66.085 0 0 1 2.468-2.727c-1.383-13.648-12.998-24.324-27.125-24.324z" style="marker:none" fill="#4d4d4d" overflow="visible"/><path d="M145.502 146.914c7.267 4.019 12.404 13.691 12.404 24.998 0 .4-.01.78-.022 1.176.019.234.022.47.022.712v58.875l-2.918-3.96v-56.896c0-.24-.004-.477-.023-.711.013-.396.023-.776.023-1.176 0-9.727-3.8-18.266-9.486-23.018zM114.198 147.537c-6.852 3.96-11.697 13.49-11.697 24.632 0 .394.009.768.022 1.158-.019.23-.022.464-.022.702v58.012l2.752-3.902v-56.061c0-.238.003-.471.022-.702-.012-.39-.022-.764-.022-1.158 0-9.585 3.584-17.999 8.945-22.68z" style="marker:none" fill="#ccc" overflow="visible"/></g><path d="M413.704 32.534v-2.27l31.717 6.643-15.189-.91-16.528-3.463" fill="url(#aJ)" transform="translate(-274.969 -27.877)"/><path d="M438.575 42.12l15.19.91 13.137 16.04-21.48-8.593-6.847-8.358" fill="url(#aK)" transform="translate(-274.969 -27.877)"/><path d="M410.735 43.05l17.005-3.347 6.846 8.358-23.892-5.034.041.023" fill="url(#aL)" transform="translate(-274.969 -27.877)"/><path d="M379.335 35.996l-15.189.911 31.717-6.643v2.27l-16.528 3.462" fill="url(#aM)" transform="translate(-274.969 -27.877)"/><path d="M412.01 46.312l22.856 5.035-6.846 8.358-16.051-13.37.04-.023" fill="url(#aN)" transform="translate(-274.969 -27.877)"/><path d="M409.909 47.316l16.051 13.37-16.528 3.461.366-16.812.111-.019" fill="url(#aO)" transform="translate(-274.969 -27.877)"/><path d="M400.604 47.34l-.366 16.813-16.528-3.462 16.73-13.338.164-.012" fill="url(#aP)" transform="translate(-274.969 -27.877)"/><path d="M398.468 46.383l-16.73 13.337-6.846-8.358 23.374-4.974.202-.005" fill="url(#aQ)" transform="translate(-274.969 -27.877)"/><path d="M398.21 43.087l-23.375 4.974 6.847-8.358 16.326 3.38.202.004" fill="url(#aR)" transform="translate(-274.969 -27.877)"/><path d="M408.932 40.692l.366-6.829 16.528 3.462-17.005 3.347.111.02" fill="url(#aS)" transform="translate(-274.969 -27.877)"/><path d="M399.934 40.708l-16.327-3.38 16.528-3.461-.366 6.828.165.013" fill="url(#aT)" transform="translate(-274.969 -27.877)"/><path d="M445.422 57.34l21.48 8.591-13.137 16.039-15.19-16.273 6.847-8.358" fill="url(#aU)" transform="translate(-274.969 -27.877)"/><path d="M430.232 69.917l15.189 16.272-31.717 6.644V73.379l16.528-3.462" fill="url(#aV)" transform="translate(-274.969 -27.877)"/><path d="M395.863 73.379v19.454l-31.717-6.644 15.19-16.272 16.527 3.462" fill="url(#aW)" transform="translate(-274.969 -27.877)"/><path d="M370.992 65.697l-15.19 16.273-13.137-16.039 21.48-8.592 6.847 8.358" fill="url(#aX)" transform="translate(-274.969 -27.877)"/><path d="M364.146 50.477l-21.48 8.592 13.137-16.038 15.189-.912-6.846 8.358" fill="url(#aY)" transform="translate(-274.969 -27.877)"/><path d="M447.347 52.828l21.48 8.592-21.48-8.592" fill="url(#aZ)" transform="translate(-274.969 -27.877)"/><path d="M447.347 52.828l21.48 8.592-21.48-8.592" fill="url(#ba)" transform="translate(-274.969 -27.877)"/><path d="M494.04 87.496L476.193 73.95l-13.137 16.04 12.62 19.925 18.364-22.42" fill="url(#bb)" transform="translate(-274.969 -27.877)"/><path d="M461.59 117.038l-12.62-19.925-31.717 6.644v22.568l44.337-9.287" fill="url(#bc)" transform="translate(-274.969 -27.877)"/><path d="M392.314 126.325v-22.568l-31.717-6.644-12.62 19.925 44.337 9.287" fill="url(#bd)" transform="translate(-274.969 -27.877)"/><path d="M333.892 109.916l12.62-19.926-13.138-16.039-17.847 13.545 18.365 22.42" fill="url(#be)" transform="translate(-274.969 -27.877)"/><path d="M315.527 76.679l17.847-13.544 13.137-16.039-12.62 7.163-18.364 22.42" fill="url(#bf)" transform="translate(-274.969 -27.877)"/><path d="M475.675 54.259l-12.62-7.163 13.138 16.039 17.847 13.544-18.365-22.42" fill="url(#bg)" transform="translate(-274.969 -27.877)"/><path d="M497.735 81.19l-17.847-13.544 17.847 13.544" fill="url(#bh)" transform="translate(-274.969 -27.877)"/><path d="M497.735 81.19l-17.847-13.544 17.847 13.544" fill="url(#bi)" transform="translate(-274.969 -27.877)"/><path d="M501.18 97.482l12.767 17.4-22.104 26.984-9.028-21.964 18.365-22.42" fill="url(#bj)" transform="translate(-274.969 -27.877)"/><path d="M464.14 129.205l-44.34 9.284v23.18c.826 0 1.643.068 2.44.181l50.92-10.68-9.02-21.965z" fill="url(#bk)" transform="translate(-274.969 -27.877)"/><path d="M345.445 129.205l-9.02 21.966 50.9 10.68a17.166 17.166 0 0 1 2.44-.183h.02v-23.18l-44.34-9.283z" fill="url(#bl)" transform="translate(-274.969 -27.877)"/><path d="M326.752 119.902l-9.028 21.964-22.104-26.984 12.767-17.4 18.365 22.42" fill="url(#bm)" transform="translate(-274.969 -27.877)"/><path d="M518.357 126.025l6.653 19.845-24.053 29.364-4.704-22.224 22.104-26.985" fill="url(#bn)" transform="translate(-274.969 -27.877)"/><path d="M475.168 162.986l-50.92 10.68c8.474 1.208 15 8.573 15 17.476 0 .276-.007.536-.02.809.002.01-.002.03 0 .04 0 .018.002.023 0 .04.009.112.02.23.02.344v1.335l40.62-8.495-4.7-22.229z" fill="url(#bo)" transform="translate(-274.969 -27.877)"/><path d="M334.405 162.986l-4.72 22.23 40.62 8.494v-1.334c0-.158.003-.313.02-.466-.01-.259-.02-.507-.02-.768 0-8.903 6.528-16.268 15-17.476l-50.9-10.68z" fill="url(#bp)" transform="translate(-274.969 -27.877)"/><path d="M313.314 153.01l-4.704 22.224-24.053-29.364 6.653-19.845 22.104 26.985" fill="url(#bq)" transform="translate(-274.969 -27.877)"/><path d="M526.333 157.268v20.683l-24.053 29.364v-20.683l24.053-29.364" fill="url(#br)" transform="translate(-274.969 -27.877)"/><path d="M484.086 197.287l-40.62 8.495v20.692l40.62-8.516v-20.671z" fill="url(#bs)" transform="translate(-274.969 -27.877)"/><path d="M325.466 197.287v20.671l40.62 8.516v-20.692l-40.62-8.495z" fill="url(#bt)" transform="translate(-274.969 -27.877)"/><path d="M307.287 186.632v20.683l-24.053-29.364v-20.683l24.053 29.364" fill="url(#bu)" transform="translate(-274.969 -27.877)"/><path d="M518.357 208.525l6.653-19.845-24.053 29.364-4.704 17.466 22.104-26.985" fill="url(#bv)" transform="translate(-274.969 -27.877)"/><path d="M484.086 228.409l-40.62 8.515v16.485l35.92-7.525 4.7-17.475z" fill="url(#bw)" transform="translate(-274.969 -27.877)"/><path d="M325.466 228.409l4.72 17.475 35.9 7.525v-16.485l-40.62-8.515z" fill="url(#bx)" transform="translate(-274.969 -27.877)"/><path d="M313.314 235.51l-4.704-17.466-24.053-29.364 6.653 19.845 22.104 26.985" fill="url(#by)" transform="translate(-274.969 -27.877)"/></svg>