<svg xmlns="http://www.w3.org/2000/svg" xmlns:xlink="http://www.w3.org/1999/xlink" width="434.527" height="323.672"><defs><linearGradient id="b"><stop offset="0" stop-color="#f4f4f4"/><stop offset=".125" stop-color="#212039" stop-opacity=".739"/><stop offset=".25" stop-color="#fff"/><stop offset=".391" stop-color="#2c89a0" stop-opacity=".904"/><stop offset="1"/></linearGradient><linearGradient id="a"><stop offset="0" stop-color="#f4f4f4"/><stop offset=".125" stop-color="#212039" stop-opacity=".739"/><stop offset=".25" stop-color="#fff"/><stop offset=".5" stop-color="#2c89a0" stop-opacity=".904"/><stop offset="1"/></linearGradient><linearGradient xlink:href="#a" id="c" x1="469.863" y1="144.433" x2="549.747" y2="144.433" gradientUnits="userSpaceOnUse" gradientTransform="rotate(-90 509.805 144.433)"/><linearGradient xlink:href="#a" id="d" x1="279.085" y1="145.07" x2="357.751" y2="145.07" gradientUnits="userSpaceOnUse" gradientTransform="rotate(-90 318.418 145.07)"/><linearGradient xlink:href="#a" id="f" x1="533.591" y1="175.827" x2="602.515" y2="175.827" gradientUnits="userSpaceOnUse" gradientTransform="rotate(-90 568.053 175.827)"/><linearGradient xlink:href="#a" id="g" x1="225.981" y1="176.788" x2="294.264" y2="176.788" gradientUnits="userSpaceOnUse" gradientTransform="rotate(-90 260.123 176.788)"/><linearGradient xlink:href="#a" id="i" x1="333.863" y1="398.831" x2="414.847" y2="398.831" gradientUnits="userSpaceOnUse" gradientTransform="rotate(-90 374.355 398.831)"/><linearGradient xlink:href="#a" id="j" x1="584.076" y1="217.359" x2="617.916" y2="217.359" gradientUnits="userSpaceOnUse" gradientTransform="rotate(-90 600.996 217.36)"/><linearGradient xlink:href="#a" id="l" x1="414.847" y1="400.118" x2="502.859" y2="400.118" gradientUnits="userSpaceOnUse" gradientTransform="rotate(-90 458.853 400.118)"/><linearGradient xlink:href="#a" id="m" x1="211.163" y1="218.66" x2="245.617" y2="218.66" gradientUnits="userSpaceOnUse" gradientTransform="rotate(-90 228.39 218.66)"/><linearGradient xlink:href="#a" id="n" x1="381.819" y1="408.947" x2="449.123" y2="408.947" gradientUnits="userSpaceOnUse" gradientTransform="rotate(-90 415.471 408.947)"/><linearGradient xlink:href="#a" id="o" x1="211.163" y1="240.979" x2="212.315" y2="240.979" gradientUnits="userSpaceOnUse" gradientTransform="rotate(-90 211.739 240.98)"/><linearGradient xlink:href="#a" id="p" x1="549.747" y1="185.752" x2="584.076" y2="185.752" gradientUnits="userSpaceOnUse" gradientTransform="rotate(-90 566.912 185.752)"/><linearGradient xlink:href="#a" id="q" x1="245.617" y1="186.653" x2="279.946" y2="186.653" gradientUnits="userSpaceOnUse" gradientTransform="rotate(-90 262.782 186.653)"/><linearGradient xlink:href="#a" id="t" x1="584.076" y1="235.282" x2="618.531" y2="235.282" gradientUnits="userSpaceOnUse" gradientTransform="rotate(-90 601.304 235.282)"/><linearGradient xlink:href="#a" id="u" x1="272.735" y1="348.052" x2="381.819" y2="348.052" gradientUnits="userSpaceOnUse" gradientTransform="rotate(-90 327.277 348.052)"/><linearGradient xlink:href="#a" id="v" x1="211.778" y1="236.472" x2="245.617" y2="236.472" gradientUnits="userSpaceOnUse" gradientTransform="rotate(-90 228.698 236.472)"/><linearGradient xlink:href="#a" id="w" x1="449.123" y1="347.463" x2="559.159" y2="347.463" gradientUnits="userSpaceOnUse" gradientTransform="rotate(-90 504.14 347.463)"/><linearGradient xlink:href="#a" id="x" x1="587.871" y1="273.366" x2="618.531" y2="273.366" gradientUnits="userSpaceOnUse" gradientTransform="rotate(-90 603.2 273.366)"/><linearGradient xlink:href="#a" id="y" x1="502.859" y1="324.743" x2="603.713" y2="324.743" gradientUnits="userSpaceOnUse" gradientTransform="rotate(-90 553.286 324.743)"/><linearGradient xlink:href="#a" id="z" x1="227.179" y1="324.083" x2="333.863" y2="324.083" gradientUnits="userSpaceOnUse" gradientTransform="rotate(-90 280.521 324.083)"/><linearGradient xlink:href="#a" id="A" x1="211.778" y1="274.615" x2="243.597" y2="274.615" gradientUnits="userSpaceOnUse" gradientTransform="rotate(-90 227.688 274.615)"/><linearGradient xlink:href="#a" id="B" x1="535.429" y1="234.607" x2="603.713" y2="234.607" gradientUnits="userSpaceOnUse" gradientTransform="rotate(-90 569.571 234.607)"/><linearGradient xlink:href="#a" id="C" x1="381.819" y1="360.661" x2="449.123" y2="360.661" gradientUnits="userSpaceOnUse" gradientTransform="rotate(-90 415.471 360.661)"/><linearGradient xlink:href="#a" id="D" x1="227.179" y1="235.796" x2="296.103" y2="235.796" gradientUnits="userSpaceOnUse" gradientTransform="rotate(-90 261.641 235.796)"/><linearGradient xlink:href="#a" id="G" x1="535.429" y1="275.309" x2="603.713" y2="275.309" gradientUnits="userSpaceOnUse" gradientTransform="rotate(-90 569.571 275.309)"/><linearGradient xlink:href="#a" id="H" x1="227.179" y1="276.183" x2="296.103" y2="276.183" gradientUnits="userSpaceOnUse" gradientTransform="rotate(-90 261.641 276.183)"/><linearGradient xlink:href="#a" id="J" x1="471.942" y1="231.847" x2="550.609" y2="231.847" gradientUnits="userSpaceOnUse" gradientTransform="rotate(-90 511.276 231.847)"/><linearGradient xlink:href="#a" id="K" x1="449.123" y1="347.463" x2="559.159" y2="347.463" gradientUnits="userSpaceOnUse" gradientTransform="rotate(-90 504.14 347.463)"/><linearGradient xlink:href="#a" id="L" x1="272.735" y1="348.052" x2="381.819" y2="348.052" gradientUnits="userSpaceOnUse" gradientTransform="rotate(-90 327.277 348.052)"/><linearGradient xlink:href="#a" id="M" x1="279.946" y1="232.695" x2="359.831" y2="232.695" gradientUnits="userSpaceOnUse" gradientTransform="rotate(-90 319.888 232.695)"/><linearGradient xlink:href="#a" id="N" x1="531.65" y1="302.117" x2="587.871" y2="302.117" gradientUnits="userSpaceOnUse" gradientTransform="rotate(-90 559.76 302.117)"/><linearGradient xlink:href="#a" id="O" x1="243.597" y1="303.074" x2="300.688" y2="303.074" gradientUnits="userSpaceOnUse" gradientTransform="rotate(-90 272.143 303.074)"/><linearGradient xlink:href="#a" id="P" x1="416.403" y1="357.642" x2="494.276" y2="357.642" gradientUnits="userSpaceOnUse" gradientTransform="rotate(-90 455.34 357.642)"/><linearGradient xlink:href="#a" id="Q" x1="338.31" y1="357.906" x2="416.403" y2="357.906" gradientUnits="userSpaceOnUse" gradientTransform="rotate(-90 377.357 357.906)"/><linearGradient xlink:href="#a" id="R" x1="494.276" y1="285.35" x2="559.159" y2="285.35" gradientUnits="userSpaceOnUse" gradientTransform="rotate(-90 526.717 285.35)"/><linearGradient xlink:href="#a" id="S" x1="272.735" y1="286.008" x2="338.31" y2="286.008" gradientUnits="userSpaceOnUse" gradientTransform="rotate(-90 305.523 286.008)"/><linearGradient xlink:href="#a" id="T" x1="416.147" y1="280.163" x2="535.429" y2="280.163" gradientUnits="userSpaceOnUse" gradientTransform="rotate(-90 475.788 280.163)"/><linearGradient xlink:href="#a" id="U" x1="296.103" y1="280.609" x2="416.147" y2="280.609" gradientUnits="userSpaceOnUse" gradientTransform="rotate(-90 356.125 280.61)"/><linearGradient xlink:href="#a" id="V" x1="359.831" y1="260.083" x2="471.942" y2="260.083" gradientUnits="userSpaceOnUse" gradientTransform="rotate(-90 415.887 260.083)"/><linearGradient xlink:href="#a" id="W" x1="456.471" y1="321.373" x2="531.65" y2="321.373" gradientUnits="userSpaceOnUse" gradientTransform="rotate(-90 494.06 321.373)"/><linearGradient xlink:href="#a" id="X" x1="300.688" y1="321.998" x2="376.348" y2="321.998" gradientUnits="userSpaceOnUse" gradientTransform="rotate(-90 338.518 321.998)"/><linearGradient xlink:href="#a" id="Y" x1="416.147" y1="301.897" x2="494.276" y2="301.897" gradientUnits="userSpaceOnUse" gradientTransform="rotate(-90 455.211 301.897)"/><linearGradient xlink:href="#a" id="Z" x1="338.31" y1="302.03" x2="416.403" y2="302.03" gradientUnits="userSpaceOnUse" gradientTransform="rotate(-90 377.357 302.03)"/><linearGradient xlink:href="#a" id="aa" x1="376.348" y1="328.585" x2="456.471" y2="328.585" gradientUnits="userSpaceOnUse" gradientTransform="rotate(-90 416.41 328.585)"/><linearGradient xlink:href="#a" id="h" x1="382.329" y1="246.595" x2="389.578" y2="-162.396" gradientUnits="userSpaceOnUse"/><linearGradient xlink:href="#a" id="e" x1="99.459" y1="312.509" x2="851.982" y2="-128.074" gradientUnits="userSpaceOnUse"/><linearGradient xlink:href="#a" id="k" x1="394.17" y1="235.29" x2="-197.312" y2="-59.868" gradientUnits="userSpaceOnUse"/><linearGradient xlink:href="#a" id="s" x1="279.085" y1="186.653" x2="276.649" y2="355.204" gradientUnits="userSpaceOnUse"/><linearGradient xlink:href="#a" id="F" x1="-13.058" y1="251.03" x2="923.045" y2="574.686" gradientUnits="userSpaceOnUse"/><linearGradient xlink:href="#a" id="I" x1="-30.67" y1="171.536" x2="1353.366" y2="887.944" gradientUnits="userSpaceOnUse"/><linearGradient xlink:href="#a" id="E" x1="138.806" y1="-135.445" x2="1789.016" y2="42.657" gradientUnits="userSpaceOnUse"/><linearGradient xlink:href="#b" id="r" x1="877.582" y1="-37.526" x2="-52.414" y2="517.004" gradientUnits="userSpaceOnUse"/></defs><path transform="matrix(1.06667 0 0 1.06667 -225.24 -135.888)" opacity=".8" fill="url(#c)" d="M469.863 127.395l79.884 34.076-16.156-11.478z"/><path transform="matrix(1.06667 0 0 1.06667 -225.24 -135.888)" opacity=".8" fill="url(#d)" d="M279.085 162.371l78.666-34.603-63.487 23.021z"/><path transform="matrix(1.06667 0 0 1.06667 -225.24 -135.888)" opacity=".8" fill="url(#e)" d="M414.847 186.202l55.016-58.807-112.112.373z"/><path transform="matrix(1.06667 0 0 1.06667 -225.24 -135.888)" opacity=".8" fill="url(#f)" d="M584.076 201.662l18.438-1.669-68.923-50 16.156 11.478z"/><path transform="matrix(1.06667 0 0 1.06667 -225.24 -135.888)" opacity=".8" fill="url(#g)" d="M294.264 150.789l-68.283 50.457 19.636 1.542 33.468-40.417z"/><path transform="matrix(1.06667 0 0 1.06667 -225.24 -135.888)" opacity=".8" fill="url(#h)" d="M549.747 161.47l-79.884-34.075-55.016 58.807z"/><path transform="matrix(1.06667 0 0 1.06667 -225.24 -135.888)" opacity=".8" fill="url(#i)" d="M381.82 387.28l-47.957-20.455 80.984 64.013z"/><path transform="matrix(1.06667 0 0 1.06667 -225.24 -135.888)" opacity=".8" fill="url(#j)" d="M617.916 222.273l-15.402-20.929v-1.35l-18.438 1.668 33.303 33.064z"/><path transform="matrix(1.06667 0 0 1.06667 -225.24 -135.888)" opacity=".8" fill="url(#k)" d="M357.751 127.768l-78.666 34.603 135.762 23.831z"/><path transform="matrix(1.06667 0 0 1.06667 -225.24 -135.888)" opacity=".8" fill="url(#l)" d="M502.859 369.398l-53.736 17.659-34.276 43.78z"/><path transform="matrix(1.06667 0 0 1.06667 -225.24 -135.888)" opacity=".8" fill="url(#m)" d="M211.163 223.626l1.152 12.447 33.302-33.285-19.636-1.542v1.35z"/><path transform="matrix(1.06667 0 0 1.06667 -225.24 -135.888)" opacity=".8" fill="url(#n)" d="M449.123 387.057l-67.304.224 33.028 43.557z"/><path transform="matrix(1.06667 0 0 1.06667 -225.24 -135.888)" opacity=".8" fill="url(#o)" d="M212.315 236.073l-1.152-12.447 1.152 23.36-.537 11.347z"/><path transform="matrix(1.06667 0 0 1.06667 -225.24 -135.888)" opacity=".8" fill="url(#p)" d="M549.747 161.47l.862 48.564 33.467-8.372z"/><path transform="matrix(1.06667 0 0 1.06667 -225.24 -135.888)" opacity=".8" fill="url(#q)" d="M279.946 210.934l-.86-48.563-33.469 40.417z"/><path transform="matrix(1.06667 0 0 1.06667 -225.24 -135.888)" opacity=".8" fill="url(#r)" d="M414.847 186.202l135.762 23.832-.862-48.563z"/><path transform="matrix(1.06667 0 0 1.06667 -225.24 -135.888)" opacity=".8" fill="url(#s)" d="M414.847 186.202l-135.762-23.83.861 48.562z"/><path transform="matrix(1.06667 0 0 1.06667 -225.24 -135.888)" opacity=".8" fill="url(#t)" d="M618.531 256.98l-1.152-22.255-33.303-33.063 19.636 65.89v1.35z"/><path transform="matrix(1.06667 0 0 1.06667 -225.24 -135.888)" opacity=".8" fill="url(#u)" d="M381.82 387.28l-109.085-78.458 61.128 58.003z"/><path transform="matrix(1.06667 0 0 1.06667 -225.24 -135.888)" opacity=".8" fill="url(#v)" d="M211.778 258.333l15.401 11.822v-1.35l18.438-66.017-33.302 33.285z"/><path transform="matrix(1.06667 0 0 1.06667 -225.24 -135.888)" opacity=".8" fill="url(#w)" d="M502.859 369.398l56.3-61.529-110.036 79.188z"/><path transform="matrix(1.06667 0 0 1.06667 -225.24 -135.888)" opacity=".8" fill="url(#x)" d="M603.712 268.902l-15.841 20.85 15.841-9.663 14.82-23.11z"/><path transform="matrix(1.06667 0 0 1.06667 -225.24 -135.888)" opacity=".8" fill="url(#y)" d="M587.87 289.752L559.16 307.87l-56.3 61.529 100.853-89.31z"/><path transform="matrix(1.06667 0 0 1.06667 -225.24 -135.888)" opacity=".8" fill="url(#z)" d="M243.597 290.898l-16.418-9.556 106.684 85.483-61.128-58.003z"/><path transform="matrix(1.06667 0 0 1.06667 -225.24 -135.888)" opacity=".8" fill="url(#A)" d="M227.18 270.155l-15.402-11.822 15.401 23.009 16.418 9.556z"/><path transform="matrix(1.06667 0 0 1.06667 -225.24 -135.888)" opacity=".8" fill="url(#B)" d="M535.43 253.66l68.283 13.892-19.637-65.89-33.467 8.372z"/><path transform="matrix(1.06667 0 0 1.06667 -225.24 -135.888)" opacity=".8" fill="url(#C)" d="M449.123 387.057l-32.72-53.016-34.584 53.24z"/><path transform="matrix(1.06667 0 0 1.06667 -225.24 -135.888)" opacity=".8" fill="url(#D)" d="M245.617 202.788l-18.438 66.017 68.924-14.348-16.157-43.523z"/><path transform="matrix(1.06667 0 0 1.06667 -225.24 -135.888)" opacity=".8" fill="url(#E)" d="M471.942 244.637l78.667-34.603-135.762-23.832z"/><path transform="matrix(1.06667 0 0 1.06667 -225.24 -135.888)" opacity=".8" fill="url(#F)" d="M279.946 210.934l79.884 34.076 55.017-58.808z"/><path transform="matrix(1.06667 0 0 1.06667 -225.24 -135.888)" opacity=".8" fill="url(#G)" d="M587.87 289.752l15.842-20.85v-1.35L535.43 253.66l23.73 43.297z"/><path transform="matrix(1.06667 0 0 1.06667 -225.24 -135.888)" opacity=".8" fill="url(#H)" d="M243.597 290.898l29.138 7.012 23.368-43.453-68.924 14.348v1.35z"/><path transform="matrix(1.06667 0 0 1.06667 -225.24 -135.888)" opacity=".8" fill="url(#I)" d="M414.847 186.202L359.83 245.01l112.113-.373z"/><path transform="matrix(1.06667 0 0 1.06667 -225.24 -135.888)" opacity=".8" fill="url(#J)" d="M550.609 210.034l-78.667 34.603 63.487 9.023z"/><path transform="matrix(1.06667 0 0 1.06667 -225.24 -135.888)" opacity=".8" fill="url(#K)" d="M531.65 314.482l-37.374 13.745-45.153 58.83 110.036-79.188z"/><path transform="matrix(1.06667 0 0 1.06667 -225.24 -135.888)" opacity=".8" fill="url(#L)" d="M300.688 315.25l-27.953-6.428 109.084 78.459-43.509-58.535z"/><path transform="matrix(1.06667 0 0 1.06667 -225.24 -135.888)" opacity=".8" fill="url(#M)" d="M359.83 245.01l-79.884-34.076 16.157 43.523z"/><path transform="matrix(1.06667 0 0 1.06667 -225.24 -135.888)" opacity=".8" fill="url(#N)" d="M559.159 296.957l-27.509 17.525 27.509-6.613 28.712-18.117z"/><path transform="matrix(1.06667 0 0 1.06667 -225.24 -135.888)" opacity=".8" fill="url(#O)" d="M272.735 297.91l-29.138-7.012 29.138 17.924 27.953 6.428z"/><path transform="matrix(1.06667 0 0 1.06667 -225.24 -135.888)" opacity=".8" fill="url(#P)" d="M456.47 328.265l-40.067 5.776 32.72 53.016 45.153-58.83z"/><path transform="matrix(1.06667 0 0 1.06667 -225.24 -135.888)" opacity=".8" fill="url(#Q)" d="M376.348 328.531l-38.038.215 43.51 58.535 34.583-53.24z"/><path transform="matrix(1.06667 0 0 1.06667 -225.24 -135.888)" opacity=".8" fill="url(#R)" d="M531.65 314.482l27.509-17.525-23.73-43.297-41.153 62.03v1.35z"/><path transform="matrix(1.06667 0 0 1.06667 -225.24 -135.888)" opacity=".8" fill="url(#S)" d="M300.688 315.25l37.623 2.31v-1.351l-42.208-61.752-23.368 43.453z"/><path transform="matrix(1.06667 0 0 1.06667 -225.24 -135.888)" opacity=".8" fill="url(#T)" d="M416.147 275.529l78.129 40.161 41.153-62.03-63.486-9.023z"/><path transform="matrix(1.06667 0 0 1.06667 -225.24 -135.888)" opacity=".8" fill="url(#U)" d="M296.103 254.457l42.207 61.752 77.837-40.68-56.317-30.52z"/><path transform="matrix(1.06667 0 0 1.06667 -225.24 -135.888)" opacity=".8" fill="url(#V)" d="M471.942 244.637l-112.112.373 56.317 30.519z"/><path transform="matrix(1.06667 0 0 1.06667 -225.24 -135.888)" opacity=".8" fill="url(#W)" d="M494.276 317.04l-37.805 11.225 37.805-.038 37.374-13.745z"/><path transform="matrix(1.06667 0 0 1.06667 -225.24 -135.888)" opacity=".8" fill="url(#X)" d="M338.31 317.56l-37.622-2.31 37.623 13.496 38.037-.215z"/><path transform="matrix(1.06667 0 0 1.06667 -225.24 -135.888)" opacity=".8" fill="url(#Y)" d="M456.47 328.265l37.806-11.224v-1.351l-78.13-40.161.257 47.6z"/><path transform="matrix(1.06667 0 0 1.06667 -225.24 -135.888)" opacity=".8" fill="url(#Z)" d="M376.348 328.531l40.055-5.402-.256-47.6-77.837 40.68v1.35z"/><path transform="matrix(1.06667 0 0 1.06667 -225.24 -135.888)" opacity=".8" fill="url(#aa)" d="M416.403 323.13l-40.055 5.401 40.055 5.51 40.068-5.776z"/></svg>