<svg xmlns="http://www.w3.org/2000/svg" xmlns:xlink="http://www.w3.org/1999/xlink" height="2057.035" width="2206.122"><defs><linearGradient id="c"><stop offset="0" stop-color="#00002b"/><stop offset="1" stop-color="#00002b" stop-opacity="0"/></linearGradient><linearGradient id="a"><stop offset="0" stop-color="#fff" stop-opacity=".784"/><stop offset=".338" stop-color="#3c8fff" stop-opacity=".588"/><stop offset=".676" stop-color="#00255d"/><stop offset="1" stop-color="#a6caff" stop-opacity="0"/></linearGradient><linearGradient id="b"><stop offset="0" stop-color="#fff"/><stop offset=".113" stop-color="#fff"/><stop offset="1" stop-color="#fff" stop-opacity="0"/></linearGradient><radialGradient xlink:href="#a" id="h" gradientUnits="userSpaceOnUse" gradientTransform="matrix(1.04174 0 0 .92434 -69.481 -22.32)" spreadMethod="reflect" cx="1325.172" cy="-540.846" fx="1325.172" fy="-522.893" r="41.416"/><radialGradient xlink:href="#b" id="i" gradientUnits="userSpaceOnUse" gradientTransform="matrix(1 0 0 .28878 -14.286 -353.691)" cx="1326.652" cy="-521.402" fx="1326.652" fy="-521.402" r="32.144"/><radialGradient xlink:href="#b" id="j" gradientUnits="userSpaceOnUse" gradientTransform="matrix(1 0 0 .31035 -14.286 -391.229)" cx="1326.33" cy="-588.631" fx="1326.33" fy="-588.631" r="12.206"/><radialGradient xlink:href="#c" id="k" gradientUnits="userSpaceOnUse" gradientTransform="matrix(1.97739 0 0 1.75454 -1309.372 426.69)" spreadMethod="reflect" cx="1325.172" cy="-540.846" fx="1325.172" fy="-522.893" r="41.416"/><radialGradient xlink:href="#b" id="l" gradientUnits="userSpaceOnUse" gradientTransform="matrix(.89325 0 0 .89325 127.294 -40.613)" spreadMethod="reflect" cx="1326.428" cy="-537.349" fx="1326.428" fy="-516.007" r="41.416"/><radialGradient xlink:href="#a" id="n" gradientUnits="userSpaceOnUse" gradientTransform="matrix(-3.891 -.09036 -.04854 2.09 6401.191 591.564)" cx="1313.72" cy="-429.42" fx="1313.72" fy="-429.42" r="105.484"/><radialGradient xlink:href="#a" id="m" gradientUnits="userSpaceOnUse" gradientTransform="matrix(-3.73287 -.0867 -.04745 2.04299 6195.848 567.749)" cx="1314.776" cy="-438.924" fx="1314.776" fy="-438.924" r="105.484"/><radialGradient xlink:href="#a" id="o" gradientUnits="userSpaceOnUse" gradientTransform="matrix(1.04174 0 0 .92434 -69.481 -22.32)" spreadMethod="reflect" cx="1325.172" cy="-540.846" fx="1325.172" fy="-522.893" r="41.416"/><radialGradient xlink:href="#b" id="p" gradientUnits="userSpaceOnUse" gradientTransform="matrix(1 0 0 .28878 -14.286 -353.691)" cx="1326.652" cy="-521.402" fx="1326.652" fy="-521.402" r="32.144"/><radialGradient xlink:href="#b" id="q" gradientUnits="userSpaceOnUse" gradientTransform="matrix(1 0 0 .31035 -14.286 -391.229)" cx="1326.33" cy="-588.631" fx="1326.33" fy="-588.631" r="12.206"/><radialGradient xlink:href="#c" id="r" gradientUnits="userSpaceOnUse" gradientTransform="matrix(1.97739 0 0 1.75454 -1309.372 426.69)" spreadMethod="reflect" cx="1325.172" cy="-540.846" fx="1325.172" fy="-522.893" r="41.416"/><radialGradient xlink:href="#b" id="s" gradientUnits="userSpaceOnUse" gradientTransform="matrix(.89325 0 0 .89325 127.294 -40.613)" spreadMethod="reflect" cx="1326.428" cy="-537.349" fx="1326.428" fy="-516.007" r="41.416"/><linearGradient xlink:href="#a" id="d" gradientUnits="userSpaceOnUse" gradientTransform="matrix(0 1.23645 -1.13752 0 782.142 -2495.877)" x1="128.647" y1="-473.375" x2="2494.036" y2="-473.375"/><radialGradient xlink:href="#a" id="f" gradientUnits="userSpaceOnUse" gradientTransform="matrix(8.37874 0 0 2.14519 -9713.799 390.554)" spreadMethod="pad" cx="1320.422" cy="-357.263" fx="1320.422" fy="-357.263" r="114.286"/><radialGradient xlink:href="#a" id="e" gradientUnits="userSpaceOnUse" gradientTransform="matrix(7.88947 0 0 2.01992 -9069.453 345.428)" spreadMethod="pad" cx="1320.422" cy="-357.263" fx="1320.422" fy="-357.263" r="114.286"/><radialGradient xlink:href="#a" id="g" gradientUnits="userSpaceOnUse" gradientTransform="matrix(4.35616 0 0 1.1153 -4416.252 27.847)" spreadMethod="pad" cx="1320.422" cy="-357.263" fx="1320.422" fy="-357.263" r="114.286"/></defs><path d="M217.544-1469.15V587.885h2206.121V-1469.15H217.544z" opacity=".685" fill="url(#d)" transform="translate(-217.544 1469.15)"/><path d="M2342.892-382.23c0 144.551-457.694 261.733-1022.287 261.733-564.594 0-1022.288-117.182-1022.288-261.734 0-144.551 457.694-261.734 1022.288-261.734 564.593 0 1022.287 117.183 1022.287 261.734z" fill="url(#e)" fill-rule="evenodd" transform="translate(-217.544 1469.15)"/><path d="M2406.29-382.23c0 153.516-486.078 277.965-1085.685 277.965-599.608 0-1085.685-124.45-1085.685-277.966 0-153.516 486.077-277.965 1085.685-277.965 599.607 0 1085.685 124.45 1085.685 277.965z" fill="url(#f)" fill-rule="evenodd" transform="translate(-217.544 1469.15)"/><path d="M1885.06-373.929c0 79.814-252.716 144.516-564.455 144.516-311.74 0-564.455-64.702-564.455-144.516s252.715-144.516 564.455-144.516 564.454 64.702 564.454 144.516z" fill="url(#g)" fill-rule="evenodd" transform="translate(-217.544 1469.15)"/><g fill-rule="evenodd"><path d="M1046.923 717.41c.189.884.42 1.773.65 2.642 7.901 8.2 29.727 14.104 55.466 14.104 25.74 0 47.602-5.904 55.51-14.104.23-.87.46-1.758.65-2.642-7.362 6.254-29.746 10.78-56.16 10.78-26.413 0-48.76-4.526-56.116-10.78z" fill="#08102c"/><path d="M1353.46-536.755c0 23.367-18.542 42.31-41.415 42.31-22.874 0-41.417-18.943-41.417-42.31 0-23.366 18.543-42.309 41.417-42.309 22.873 0 41.416 18.943 41.416 42.31z" fill="url(#h)" transform="matrix(1.43478 0 0 1.1506 -779.438 1324.432)"/><path d="M1283.978-513.308c-4.566-.697-4.507 1.107-2.273 3.932 7.011 9.165 18.488 14.399 30.607 14.399s23.57-5.236 30.577-14.4c2.136-2.732 2.86-4.938-2.273-3.906-8.877 1.814-18.736.467-28.304.464-9.567-.003-19.436 1.33-28.334-.489z" fill="url(#i)" transform="matrix(1.43478 0 0 1.1506 -779.438 1324.432)"/><path d="M1324.25-573.909c0-2.092-5.464-3.788-12.205-3.788-6.742 0-12.206 1.696-12.206 3.788 0 2.093 5.464 3.789 12.206 3.789 6.74 0 12.206-1.696 12.206-3.789z" fill="url(#j)" transform="matrix(1.43478 0 0 1.1506 -779.438 1324.432)"/><path d="M1339.558-568.388c4.595 7.408 7.344 24.729 7.344 34.843 0 24.153-15.597 35.72-34.844 35.72s-34.875-11.567-34.875-35.72c0-10.104 2.758-27.407 7.344-34.812-8.525 7.75-13.907 19.02-13.907 31.594 0 23.366 18.565 42.312 41.438 42.312 22.874 0 41.406-18.946 41.406-42.312 0-12.584-5.37-23.875-13.906-31.625z" fill="url(#k)" transform="matrix(1.43478 0 0 1.1506 -779.438 1324.432)"/><path d="M1312.058-577.539c-13.69 0-25.779 6.807-33.094 17.219-1.792 2.218-2.652 3.959-2.719 4.781 8.032-11.311 21.088-18.687 35.813-18.687 14.653 0 27.616 7.313 35.656 18.53-.19-.894-1.013-2.546-2.562-4.624-7.306-10.412-19.404-17.219-33.094-17.219z" fill="url(#l)" transform="matrix(1.43478 0 0 1.1506 -779.438 1324.432)"/><path d="M1104.07 661.63c-.872-.011-1.772.014-2.646.036-11.49.233-22.616 3.54-31.655 9.169 1.022-.438 2.09-.823 3.139-1.222 8.985-3.999 19.24-6.293 30.175-6.293 10.697 0 20.762 2.2 29.593 6.04.043.017.092.021.135.037 1.293.482 2.56.967 3.811 1.51-9.22-5.859-20.762-9.124-32.552-9.277z" fill="#fff"/></g><path style="text-indent:0;text-align:start;line-height:normal;text-transform:none;block-progression:tb;marker:none;-inkscape-font-specification:Sans" d="M1318.737-563.465c23.865-1.094 45.394 22.844 40.421 46.55-1.896 43.46-29.312 86.798-18.092 130.316 7.254 21.72 31.266 32.706 52.985 31.508 39.729 1.42 77.698-12.232 115.267-23.244-11.281 7.433-27.475 9.016-40.612 13.985-32.365 9.363-66.31 13.285-99.894 10.045-44.776-1.263-89.638-1.02-134.36-3.181-35.543-4.893-69.29-17.699-102.56-30.584 43.351 17.828 90.022 33.974 137.56 28.743 18.969-3.984 29.833-24.862 26.63-43.161-1.743-42.002-14.078-80.684-15.01-122.728-.46-20.882 17.076-37.756 37.665-38.25z" font-weight="400" color="#000" fill="url(#m)" overflow="visible" font-family="Sans" transform="translate(-217.544 1469.15)"/><path style="text-indent:0;text-align:start;line-height:normal;text-transform:none;block-progression:tb;marker:none;-inkscape-font-specification:Sans" d="M1316.575-567.89c22.971-.744 45.434 19.822 42.391 43.535-1.01 43.523-28.136 86.23-20.53 129.942 3.326 20.47 21.287 35.797 41.48 38.33 42.13 5.967 83.974-6.922 123.942-18.808 4.57-2.381 24.314-6.947 9.799-1.318-42.84 13.666-87.798 27.105-133.106 22.556-47.37-.825-94.773-2.218-142.12-2.526-22.213-1.792-43.87-7.61-65.093-14.158 31.166 8.306 64.539 17.593 96.708 9.671 18.476-4.924 25.492-25.706 23.626-43.025-2.607-43.163-15.486-82.959-16.236-126.32-.905-21.165 19.163-37.345 39.14-37.88zm.909 6.713c-17.956-.287-36.245 15.544-32.942 34.498.976 46.974 19.882 90.102 15.324 137.552.79 9.927-10.784 22.77-11.359 26.895 20.942.808 41.904.778 62.851 1.384-22.542-17.16-22.86-48.131-20.71-73.777 3.252-32.37 22.083-64.099 21.777-96.755-2.32-16.694-18.012-30.341-34.941-29.797zm-195.174 172.67c16.6 6.502 33.364 12.61 50.372 17.968-17.098-5.073-33.948-11.014-50.372-17.969z" font-weight="400" color="#000" fill="url(#n)" overflow="visible" font-family="Sans" transform="translate(-217.544 1469.15)"/><path d="M1121.77 925.154c0 4.862-8.376 8.804-18.71 8.804-10.332 0-18.709-3.942-18.709-8.804 0-4.863 8.377-8.805 18.71-8.805s18.71 3.942 18.71 8.805z" fill="#fff" fill-rule="evenodd"/><g fill-rule="evenodd"><path d="M1030.78 503.872c.244 1.42.542 2.847.837 4.242 10.174 13.167 38.276 22.645 71.416 22.645 33.14 0 61.29-9.478 71.472-22.645.295-1.395.593-2.822.837-4.242-9.479 10.041-38.3 17.309-72.309 17.309s-62.78-7.268-72.253-17.309z" fill="#08102c"/><path d="M1353.46-536.755c0 23.367-18.542 42.31-41.415 42.31-22.874 0-41.417-18.943-41.417-42.31 0-23.366 18.543-42.309 41.417-42.309 22.873 0 41.416 18.943 41.416 42.31z" fill="url(#o)" transform="matrix(1.84735 0 0 1.84735 -1320.747 1478.487)"/><path d="M1283.978-513.308c-4.566-.697-4.507 1.107-2.273 3.932 7.011 9.165 18.488 14.399 30.607 14.399s23.57-5.236 30.577-14.4c2.136-2.732 2.86-4.938-2.273-3.906-8.877 1.814-18.736.467-28.304.464-9.567-.003-19.436 1.33-28.334-.489z" fill="url(#p)" transform="matrix(1.84735 0 0 1.84735 -1320.747 1478.487)"/><path d="M1324.25-573.909c0-2.092-5.464-3.788-12.205-3.788-6.742 0-12.206 1.696-12.206 3.788 0 2.093 5.464 3.789 12.206 3.789 6.74 0 12.206-1.696 12.206-3.789z" fill="url(#q)" transform="matrix(1.84735 0 0 1.84735 -1320.747 1478.487)"/><path d="M1339.558-568.388c4.595 7.408 7.344 24.729 7.344 34.843 0 24.153-15.597 35.72-34.844 35.72s-34.875-11.567-34.875-35.72c0-10.104 2.758-27.407 7.344-34.812-8.525 7.75-13.907 19.02-13.907 31.594 0 23.366 18.565 42.312 41.438 42.312 22.874 0 41.406-18.946 41.406-42.312 0-12.584-5.37-23.875-13.906-31.625z" fill="url(#r)" transform="matrix(1.84735 0 0 1.84735 -1320.747 1478.487)"/><path d="M1312.058-577.539c-13.69 0-25.779 6.807-33.094 17.219-1.792 2.218-2.652 3.959-2.719 4.781 8.032-11.311 21.088-18.687 35.813-18.687 14.653 0 27.616 7.313 35.656 18.53-.19-.894-1.013-2.546-2.562-4.624-7.306-10.412-19.404-17.219-33.094-17.219z" fill="url(#s)" transform="matrix(1.84735 0 0 1.84735 -1320.747 1478.487)"/><path d="M1104.36 414.314c-1.123-.018-2.281.021-3.406.058-14.794.373-29.12 5.684-40.757 14.72 1.315-.703 2.689-1.321 4.04-1.962 11.569-6.42 24.773-10.103 38.853-10.103 13.773 0 26.732 3.534 38.102 9.699.055.025.118.032.173.058 1.666.775 3.296 1.553 4.907 2.424-11.87-9.407-26.732-14.65-41.912-14.894z" fill="#fff"/></g></svg>