<svg xmlns="http://www.w3.org/2000/svg" xmlns:xlink="http://www.w3.org/1999/xlink" width="159.312" height="211.204"><defs><linearGradient id="b"><stop offset="0"/><stop offset=".5" stop-color="#d5d5d5"/><stop offset="1"/></linearGradient><linearGradient id="a"><stop offset="0" stop-color="#b1b1b1"/><stop offset=".433" stop-color="#f6f6f6"/><stop offset="1" stop-color="#b1b1b1"/></linearGradient><radialGradient xlink:href="#b" id="p" gradientUnits="userSpaceOnUse" gradientTransform="matrix(0 -2.17652 1.47312 0 -435.262 -528.87)" cx="-282.871" cy="159.592" fx="-282.871" fy="159.592" r="94.343"/><radialGradient xlink:href="#a" id="q" cx="-205.344" cy="8.594" fx="-205.344" fy="8.594" r="93.75" gradientTransform="matrix(0 10.17217 -1.14853 0 -195.474 2097.385)" gradientUnits="userSpaceOnUse"/><radialGradient xlink:href="#b" id="f" cx="-205.344" cy="167.299" fx="-205.344" fy="167.299" r="93.16" gradientTransform="matrix(1.634 0 0 .93548 129.64 12)" gradientUnits="userSpaceOnUse"/><radialGradient xlink:href="#b" id="h" cx="-205.344" cy="194.235" fx="-205.344" fy="194.235" r="88.048" gradientTransform="matrix(1.726 0 0 .50513 149.08 96.56)" gradientUnits="userSpaceOnUse"/><radialGradient xlink:href="#b" id="e" gradientUnits="userSpaceOnUse" gradientTransform="matrix(.81775 0 0 -4.20079 17.343 637.222)" spreadMethod="reflect" cx="95.156" cy="111.481" fx="95.156" fy="111.481" r="77.375"/><radialGradient xlink:href="#a" id="d" gradientUnits="userSpaceOnUse" gradientTransform="matrix(.77078 0 0 6.56685 253.448 -649.812)" cx="-282.493" cy="115.993" fx="-282.493" fy="115.993" r="16.601"/><radialGradient xlink:href="#b" id="l" cx="99.938" cy="211.188" fx="99.938" fy="211.188" r="52.938" gradientTransform="matrix(1.40841 0 0 .15465 -342.715 189.39)" gradientUnits="userSpaceOnUse"/><linearGradient xlink:href="#b" id="j" x1="-272.57" y1="-12.757" x2="-183.592" y2="-13.394" gradientUnits="userSpaceOnUse"/><radialGradient xlink:href="#b" id="m" cx="-435.886" cy="195.773" fx="-435.886" fy="195.773" r="79.491" gradientTransform="matrix(-1.02244 -.00552 .00526 -.9752 -605.326 429.88)" gradientUnits="userSpaceOnUse"/><radialGradient xlink:href="#a" id="i" cx="-205.348" cy="231.715" fx="-205.348" fy="231.715" r="89.581" gradientTransform="matrix(-1.2445 .33346 -.04019 -.14998 -451.592 334.943)" gradientUnits="userSpaceOnUse"/><linearGradient xlink:href="#b" id="k" x1="-379.27" y1="-52.005" x2="-379.27" y2="92.81" gradientUnits="userSpaceOnUse"/><radialGradient xlink:href="#b" id="o" gradientUnits="userSpaceOnUse" gradientTransform="matrix(1.41626 0 0 4.186 -340.114 -408.083)" spreadMethod="reflect" cx="95.156" cy="100.082" fx="95.156" fy="100.082" r="77.375"/><linearGradient xlink:href="#a" id="c" gradientUnits="userSpaceOnUse" x1="-299.843" y1="120.341" x2="-110.845" y2="120.341"/><radialGradient xlink:href="#b" id="g" gradientUnits="userSpaceOnUse" gradientTransform="matrix(1.10038 0 0 .66138 321.115 56.836)" cx="-205.344" cy="184.579" fx="-205.344" fy="89.895" r="88.048"/><radialGradient xlink:href="#b" id="n" gradientUnits="userSpaceOnUse" gradientTransform="matrix(1.31455 0 0 .7901 64.59 37.657)" cx="-205.344" cy="184.579" fx="-205.344" fy="89.895" r="88.048"/></defs><g color="#000"><path style="marker:none" d="M79.656 0C36.124 0 .761 5.165.026 11.564H0V199.64h.026c.735 6.4 36.098 11.564 79.63 11.564s78.895-5.164 79.63-11.563h.026V11.564h-.026C158.55 5.164 123.188 0 79.656 0z" fill="#333" overflow="visible"/><path d="M-205.344-4.813c-51.644 0-93.597 6.128-94.469 13.72h-.03V232.03h.03c.872 7.592 42.825 13.719 94.47 13.719 51.644 0 93.596-6.127 94.468-13.719h.031V8.906h-.031c-.872-7.591-42.824-13.719-94.469-13.719z" style="marker:none" fill="url(#c)" overflow="visible" transform="matrix(.83707 0 0 .83707 251.544 4.76)"/><path style="marker:none" d="M37.25 25.031c-5.836.93-10.724 1.985-14.281 3.157-.015.291-.026.588-.032.875h-.03V220.906c3.646-87.782 3.862-160.53 14.343-195.875zm117.531.282c9.883 34.923 9.567 120.632 12.969 195.593V29.062c-.005-.245-.02-.498-.031-.75-3.248-1.103-7.664-2.104-12.938-3z" transform="matrix(1 0 0 1 -15.504 -20.554)" fill="url(#d)" overflow="visible"/><path style="marker:none" d="M22.844 28.219c-2.1.698-3.76 1.425-4.907 2.187v188.219c2.085-62.609 3.287-128.736 4.907-190.406zm144.812.062c1.573 57.414 2.828 121.583 4.719 190.344V30.406c-1.113-.74-2.704-1.444-4.719-2.125z" transform="matrix(1 0 0 1 -15.504 -20.554)" fill="url(#e)" overflow="visible"/><path d="M-113.28 116.174c-7.02 49.102-6.37 88.448-33.688 101.057-2.952 1.356-5.843 2.641-8.672 3.806 10.204-.455 19.346-1.706 26.521-3.446v.03c.154-.037.286-.082.437-.12a67.991 67.991 0 0 0 4.546-1.289c.12-.039.231-.08.35-.12.385-.128.77-.258 1.136-.39.18-.064.348-.113.524-.179a42.08 42.08 0 0 0 1.521-.6c.05-.02.09-.038.14-.06.586-.25 1.158-.518 1.678-.778.1-.05.184-.1.28-.15.013-.007.022-.023.035-.03.258-.134.512-.253.752-.39a18.515 18.515 0 0 0 1.836-1.199c.202-.154.379-.292.56-.45.06-.053.115-.095.174-.149a8.44 8.44 0 0 0 .402-.39c.08-.082.154-.156.227-.24.098-.11.176-.217.262-.329.086-.11.153-.22.228-.33.057-.085.106-.154.157-.24l.07-.12c.083-.148.164-.299.227-.449.068-.161.131-.316.175-.48l.017-.09c.048-.194.075-.402.088-.599h.017v-92.275zm-185.224-.69v93.313h.02c.014.199.044.41.097.606.007.028.012.063.02.091.05.165.12.322.196.485.07.152.162.304.255.455.062.098.126.205.197.303.034.047.08.073.117.12.106.137.21.29.334.425.104.114.217.221.334.333.093.09.193.184.294.273.12.105.242.2.373.303.022.018.036.043.059.06.202.16.4.3.628.455.041.03.075.063.117.091.267.18.545.34.844.516.344.201.714.409 1.1.606.285.146.574.281.882.424.109.05.203.101.314.152.585.263 1.226.535 1.884.788l.412.151a61.254 61.254 0 0 0 3.316 1.091c.133.04.259.082.393.121 1.57.46 3.285.896 5.102 1.303.17.039.319.084.491.122v-.03c8.054 1.76 18.315 3.024 29.77 3.485-3.176-1.179-6.421-2.478-9.734-3.85-32.636-6.873-30.21-58.335-37.815-102.192z" style="marker:none" fill="url(#f)" overflow="visible" transform="matrix(.83707 0 0 .83707 251.544 4.76)"/><path style="marker:none" d="M17.938 45.75v176.156c2.287 1.522 6.624 2.921 12.5 4.156 5.249-5.131 13.663-2.623 28.156-1.968a224.143 224.143 0 0 1-7.907-3.281c-22.651-5.01-24.52-37.798-28.437-70.563-1.347-34.294-2.478-70.222-4.313-104.5zm154.437 0c-1.652 37.374-2.818 72.581-4.125 104.719-3.905 33.782-6.14 59.975-25.25 69.219a190.506 190.506 0 0 1-7.063 3.25c16.818-.335 21.688-.56 24.532 3 5.577-1.206 9.695-2.56 11.906-4.032V45.75z" transform="matrix(1 0 0 1 -15.504 -20.554)" fill="url(#g)" overflow="visible"/><path d="M-117.295 168.905c-6.675 23.82-6.057 42.905-32.029 49.022a367.14 367.14 0 0 1-8.244 1.846c9.701-.22 18.393-.827 25.214-1.672v.015c.146-.018.272-.04.416-.059 1.538-.195 2.992-.405 4.321-.625l.332-.058c.367-.062.732-.125 1.08-.189.173-.031.332-.055.5-.087.275-.053.55-.107.814-.16.217-.044.422-.086.631-.131.048-.009.087-.019.133-.03a46.43 46.43 0 0 0 1.596-.377c.094-.024.174-.049.266-.073.012-.003.021-.011.033-.014.245-.065.486-.123.715-.19a24.475 24.475 0 0 0 1.745-.58c.193-.076.36-.143.532-.219.059-.026.11-.046.166-.072.137-.064.26-.125.382-.19.076-.04.147-.075.217-.116.092-.053.167-.105.249-.16.081-.053.145-.106.216-.16a2.449 2.449 0 0 0 .216-.174c.079-.072.156-.145.216-.218a1.45 1.45 0 0 0 .166-.233c.007-.013.01-.03.017-.043a.969.969 0 0 0 .083-.291h.017v-44.762zm-176.097 0V214.256h.018a.91.91 0 0 0 .094.294c.007.014.01.03.018.044.047.08.115.157.187.236.067.074.154.148.242.221.059.048.12.1.187.147.033.023.077.036.112.06.1.066.2.14.317.205.1.056.206.108.317.162.089.044.184.09.28.133.114.051.23.097.355.147.02.008.034.021.055.03.193.077.381.145.597.22.04.015.072.031.112.045.254.087.519.165.803.25a29.91 29.91 0 0 0 1.884.501c.103.025.193.05.299.074.555.128 1.165.26 1.79.383.128.025.262.049.392.073.62.119 1.258.226 1.94.34.392.064.802.128 1.213.19l.374.06c1.492.223 3.123.435 4.85.633.162.018.303.04.467.059v-.015c7.656.856 17.413 1.47 28.302 1.694a450.503 450.503 0 0 1-9.254-1.87c-31.028-3.341-28.721-28.351-35.951-49.666z" style="marker:none" fill="url(#h)" overflow="visible" transform="matrix(.83707 0 0 .83707 251.544 4.76)"/><path style="marker:none" d="M-294.93 220.919v7.537h.037c.826 7.777 40.59 14.054 89.545 14.054s88.718-6.277 89.545-14.054h.036v-7.537h-.036c-.827 7.777-40.59 14.054-89.545 14.054-48.956 0-88.719-6.277-89.545-14.054h-.037z" fill="url(#i)" overflow="visible" transform="matrix(.83707 0 0 .83707 251.544 4.76)"/><path transform="matrix(.75551 0 0 .81505 242.71 205.404)" d="M-118.186-13.394c0 7.703-43.71 13.948-97.631 13.948-53.92 0-97.632-6.245-97.632-13.948s43.711-13.947 97.632-13.947c53.92 0 97.631 6.244 97.631 13.947z" style="marker:none" fill="url(#j)" overflow="visible"/><path style="marker:none" d="M-118.186-13.394c0 7.703-43.71 13.948-97.631 13.948-53.92 0-97.632-6.245-97.632-13.948s43.711-13.947 97.632-13.947c53.92 0 97.631 6.244 97.631 13.947z" transform="matrix(.65794 0 0 .70978 221.651 203.994)" fill="url(#k)" overflow="visible"/><path style="marker:none" d="M-203.194 213.863c-35.174 0-64.766 3.593-73.326 8.443 12.41-3.725 38.067-6.31 67.824-6.31 41.869 0 75.834 5.048 75.834 11.299 0 1.01-.933 2.01-2.596 2.942 5.11-1.523 8.054-3.212 8.054-5.031 0-6.252-33.922-11.343-75.79-11.343z" fill="url(#l)" overflow="visible" transform="matrix(.83707 0 0 .83707 251.544 4.76)"/><path d="M-205.58 238.481c37.5 0 69.05-3.592 78.176-8.442-13.23 3.725-40.585 6.31-72.311 6.31-44.639 0-80.852-5.048-80.852-11.3 0-1.01.995-2.01 2.769-2.942-5.448 1.524-8.587 3.213-8.587 5.032 0 6.251 36.166 11.342 80.804 11.342z" style="marker:none" fill="url(#m)" overflow="visible" transform="matrix(.83707 0 0 .83707 251.544 4.76)"/><path style="marker:none" d="M-115.541 129.519c-6.808 49.892-6.178 89.87-32.667 102.682-2.862 1.378-5.665 2.684-8.408 3.868 9.894-.463 18.759-1.734 25.716-3.502v.03c.149-.038.277-.083.424-.122 1.57-.409 3.051-.848 4.407-1.309.117-.04.225-.082.34-.122.373-.13.746-.262 1.101-.396.176-.066.338-.115.509-.182a39.667 39.667 0 0 0 1.475-.61c.048-.02.087-.039.135-.06a29.227 29.227 0 0 0 1.628-.792c.096-.05.177-.102.27-.152.013-.007.022-.024.035-.03.25-.137.496-.258.729-.397a17.86 17.86 0 0 0 1.78-1.218c.196-.157.367-.297.542-.456.06-.055.112-.098.17-.153.14-.133.265-.26.39-.396.077-.084.149-.158.22-.243.095-.113.17-.222.254-.335.083-.111.148-.223.22-.335.057-.087.104-.157.153-.244a4.707 4.707 0 0 0 .288-.579c.066-.163.127-.32.17-.487.007-.028.01-.063.017-.091.046-.198.072-.41.085-.609h.016v-93.761zm-179.605 0v94.993h.019a3.5 3.5 0 0 0 .095.617c.007.028.01.064.02.092.047.168.116.328.19.494.068.155.157.31.247.463.06.1.121.209.19.308.034.049.079.076.114.124.102.139.204.294.324.432.1.115.21.225.323.339.09.091.188.187.286.278.115.107.235.202.361.308.021.018.036.044.057.062.196.161.389.304.61.463.04.029.072.063.113.092.258.183.529.346.818.525.334.205.692.416 1.066.617.277.148.558.286.856.432.105.051.197.103.305.154.566.268 1.188.545 1.827.802.13.052.266.102.4.154.632.248 1.282.474 1.978.71.4.135.818.27 1.237.401.129.04.25.083.38.123 1.522.468 3.186.913 4.948 1.327.165.039.309.085.476.123v-.03c7.809 1.791 17.76 3.079 28.866 3.548-3.08-1.2-6.226-2.523-9.438-3.919-31.646-6.997-29.294-59.385-36.668-104.032z" fill="url(#n)" overflow="visible" transform="matrix(.83707 0 0 .83707 251.544 4.76)"/><path d="M-297.597 24.42v200.416h.038c.25 2.09 4.038 4.039 10.469 5.775-5.242-59.233-6.443-135.963-10.507-206.19zm184.497 0c-3.838 80.299-5.397 151.785-10.506 206.191 6.442-1.737 10.218-3.684 10.469-5.774h.037V24.42z" style="marker:none" fill="url(#o)" overflow="visible" transform="matrix(.83707 0 0 .83707 251.544 4.76)"/><path d="M-205.344-4.752c-52.524 0-95.09 6.232-95.09 13.909 0 7.676 42.566 13.877 95.09 13.877s95.09-6.2 95.09-13.877c0-7.677-42.566-13.91-95.09-13.91zm0 .614c50.241 0 90.974 5.952 90.974 13.295s-40.733 13.294-90.974 13.294c-50.24 0-90.973-5.951-90.973-13.294 0-7.343 40.732-13.295 90.973-13.295z" style="marker:none" fill="url(#p)" overflow="visible" transform="matrix(.83707 0 0 .83707 251.544 4.76)"/><path d="M-205.344-4.938c-25.77 0-49.093 1.48-66 3.844-8.453 1.183-15.293 2.58-20.062 4.157-2.385.788-4.255 1.606-5.563 2.5-1.307.893-2.125 1.89-2.125 3.03 0 1.142.818 2.171 2.125 3.063 1.308.893 3.178 1.713 5.563 2.5 4.769 1.574 11.609 2.978 20.062 4.156 16.907 2.358 40.23 3.813 66 3.813 25.77 0 49.093-1.455 66-3.813 8.454-1.178 15.294-2.582 20.063-4.156 2.384-.787 4.255-1.607 5.562-2.5 1.308-.892 2.125-1.921 2.125-3.062 0-1.141-.817-2.138-2.125-3.031-1.307-.894-3.178-1.712-5.562-2.5-4.77-1.577-11.61-2.974-20.063-4.157-16.907-2.365-40.23-3.843-66-3.843zm0 1.594c24.614 0 46.891 1.375 63 3.625 8.055 1.125 14.569 2.464 19.031 3.938 2.232.737 3.971 1.514 5.094 2.281 1.123.767 1.594 1.475 1.594 2.094 0 .618-.47 1.358-1.594 2.125-1.123.766-2.862 1.513-5.094 2.25-4.462 1.474-10.976 2.843-19.03 3.969-16.11 2.25-38.387 3.625-63 3.625-24.614 0-46.892-1.375-63-3.625-8.055-1.126-14.57-2.495-19.032-3.97-2.231-.736-3.97-1.483-5.094-2.25-1.123-.766-1.594-1.506-1.594-2.124 0-.619.471-1.327 1.594-2.094 1.123-.767 2.863-1.544 5.094-2.281 4.463-1.474 10.977-2.813 19.031-3.938 16.11-2.25 38.387-3.625 63-3.625z" style="text-indent:0;text-align:start;line-height:normal;text-transform:none;block-progression:tb;marker:none;-inkscape-font-specification:Sans" font-weight="400" fill="url(#q)" overflow="visible" font-family="Sans" transform="matrix(.83707 0 0 .83707 251.544 4.76)"/><path style="marker:none" d="M53.283 164.783V42.328c-.698-16.957-2.074-17.473 11.65-15.83-5.812 39.725-7.144 91.186-11.65 138.285z" fill="#fff" overflow="visible"/></g></svg>