<svg xmlns="http://www.w3.org/2000/svg" xmlns:xlink="http://www.w3.org/1999/xlink" height="400" width="1000"><defs><linearGradient id="c"><stop offset="0" stop-color="#fff"/><stop offset="1" stop-color="#fff" stop-opacity="0"/></linearGradient><linearGradient id="b"><stop offset="0" stop-color="#fff"/><stop offset="1" stop-color="#fff" stop-opacity="0"/></linearGradient><linearGradient id="a"><stop offset="0" stop-color="#754d22"/><stop offset=".75" stop-color="#fdda5c"/><stop offset="1" stop-color="#fbf384"/></linearGradient><linearGradient xlink:href="#a" id="t" gradientUnits="userSpaceOnUse" spreadMethod="reflect" x1="-37.304" y1="144.625" x2="52.664" y2="145.339"/><linearGradient xlink:href="#c" id="u" gradientUnits="userSpaceOnUse" gradientTransform="matrix(-.52993 0 0 76.11883 357.036 -22103.77)" x1="3.125" y1="304.357" x2="125.219" y2="304.357"/><linearGradient xlink:href="#a" id="v" gradientUnits="userSpaceOnUse" spreadMethod="reflect" x1="89.976" y1="203.348" x2="494.47" y2="-188.795"/><radialGradient xlink:href="#a" id="w" gradientUnits="userSpaceOnUse" gradientTransform="matrix(0 1.18221 -.5085 0 412.59 -16.062)" spreadMethod="reflect" cx="242.486" cy="85.236" fx="242.486" fy="85.236" r="237.141"/><linearGradient xlink:href="#c" id="x" gradientUnits="userSpaceOnUse" gradientTransform="matrix(-.7189 0 0 4.31437 419.054 -1003.456)" x1="3.125" y1="304.357" x2="125.219" y2="304.357"/><radialGradient xlink:href="#a" id="y" gradientUnits="userSpaceOnUse" gradientTransform="matrix(.35506 -.09514 .047 .17539 88.316 145.88)" spreadMethod="reflect" cx="148.578" cy="159.766" fx="148.578" fy="159.766" r="237.141"/><linearGradient xlink:href="#a" id="z" gradientUnits="userSpaceOnUse" x1="136.65" y1="185.153" x2="160.484" y2="143.87"/><linearGradient xlink:href="#c" id="A" gradientUnits="userSpaceOnUse" gradientTransform="matrix(8.85226 0 0 8.85226 -446.576 -2397.212)" spreadMethod="reflect" x1="56.737" y1="305.328" x2="61.575" y2="305.328"/><linearGradient xlink:href="#c" id="B" gradientUnits="userSpaceOnUse" gradientTransform="matrix(.7189 0 0 4.62025 -108.133 -1082.41)" x1="3.125" y1="304.357" x2="125.219" y2="304.357"/><linearGradient xlink:href="#a" id="C" gradientUnits="userSpaceOnUse" spreadMethod="reflect" x1="-92.603" y1="279.109" x2="-88.563" y2="40.451"/><linearGradient xlink:href="#a" id="D" gradientUnits="userSpaceOnUse" x1="136.65" y1="185.153" x2="160.484" y2="143.87"/><linearGradient xlink:href="#c" id="E" gradientUnits="userSpaceOnUse" spreadMethod="reflect" x1="275.012" y1="219.731" x2="384.143" y2="219.731"/><linearGradient xlink:href="#a" id="F" gradientUnits="userSpaceOnUse" gradientTransform="translate(0 12.929)" x1="-50.938" y1="95.469" x2="348.094" y2="95.469"/><radialGradient xlink:href="#c" id="G" gradientUnits="userSpaceOnUse" gradientTransform="rotate(-22.067 56.735 267.359)" cx="56.734" cy="267.359" fx="56.734" fy="267.359" r="54.234"/><linearGradient xlink:href="#c" id="H" gradientUnits="userSpaceOnUse" spreadMethod="reflect" x1="251.598" y1="97.286" x2="348.094" y2="97.286"/><radialGradient xlink:href="#c" id="I" gradientUnits="userSpaceOnUse" cx="239.597" cy="63.782" fx="239.597" fy="63.782" r="44.479"/><linearGradient xlink:href="#a" id="d" gradientUnits="userSpaceOnUse" spreadMethod="reflect" x1="-37.304" y1="144.625" x2="52.664" y2="145.339"/><linearGradient xlink:href="#c" id="e" gradientUnits="userSpaceOnUse" gradientTransform="matrix(-.52993 0 0 76.11883 357.036 -22103.77)" x1="3.125" y1="304.357" x2="125.219" y2="304.357"/><linearGradient xlink:href="#a" id="f" gradientUnits="userSpaceOnUse" spreadMethod="reflect" x1="89.976" y1="203.348" x2="494.47" y2="-188.795"/><radialGradient xlink:href="#a" id="g" gradientUnits="userSpaceOnUse" gradientTransform="matrix(0 1.18221 -.5085 0 412.59 -16.062)" spreadMethod="reflect" cx="242.486" cy="85.236" fx="242.486" fy="85.236" r="237.141"/><linearGradient xlink:href="#c" id="h" gradientUnits="userSpaceOnUse" gradientTransform="matrix(-.7189 0 0 4.31437 419.054 -1003.456)" x1="3.125" y1="304.357" x2="125.219" y2="304.357"/><radialGradient xlink:href="#a" id="i" gradientUnits="userSpaceOnUse" gradientTransform="matrix(.35506 -.09514 .047 .17539 88.316 145.88)" spreadMethod="reflect" cx="148.578" cy="159.766" fx="148.578" fy="159.766" r="237.141"/><linearGradient xlink:href="#a" id="j" gradientUnits="userSpaceOnUse" x1="136.65" y1="185.153" x2="160.484" y2="143.87"/><linearGradient xlink:href="#c" id="k" gradientUnits="userSpaceOnUse" gradientTransform="matrix(8.85226 0 0 8.85226 -446.576 -2397.212)" spreadMethod="reflect" x1="56.737" y1="305.328" x2="61.575" y2="305.328"/><linearGradient xlink:href="#c" id="l" gradientUnits="userSpaceOnUse" gradientTransform="matrix(.7189 0 0 4.62025 -108.133 -1082.41)" x1="3.125" y1="304.357" x2="125.219" y2="304.357"/><linearGradient xlink:href="#a" id="m" gradientUnits="userSpaceOnUse" spreadMethod="reflect" x1="-92.603" y1="279.109" x2="-88.563" y2="40.451"/><linearGradient xlink:href="#a" id="n" gradientUnits="userSpaceOnUse" x1="136.65" y1="185.153" x2="160.484" y2="143.87"/><linearGradient xlink:href="#c" id="o" gradientUnits="userSpaceOnUse" spreadMethod="reflect" x1="275.012" y1="219.731" x2="384.143" y2="219.731"/><linearGradient xlink:href="#a" id="p" gradientUnits="userSpaceOnUse" gradientTransform="translate(0 12.929)" x1="-50.938" y1="95.469" x2="348.094" y2="95.469"/><radialGradient xlink:href="#c" id="q" gradientUnits="userSpaceOnUse" gradientTransform="rotate(-22.067 56.735 267.359)" cx="56.734" cy="267.359" fx="56.734" fy="267.359" r="54.234"/><linearGradient xlink:href="#c" id="r" gradientUnits="userSpaceOnUse" spreadMethod="reflect" x1="251.598" y1="97.286" x2="348.094" y2="97.286"/><radialGradient xlink:href="#c" id="s" gradientUnits="userSpaceOnUse" cx="239.597" cy="63.782" fx="239.597" fy="63.782" r="44.479"/></defs><g color="#000"><path d="M326.668 65.464c-82.281 1.346-169.866 16.312-235.9 68.726-17.658 16.394-27.252 30.888-30.693 49.723L40.38 258.371c-7.026 23.972 25.447 67.896 58.406 77.164 85.665 36.868 183.98 33.997 273.249 12.533 51.911-14.862 110.557-35.805 137.297-86.5 2.627-4.769 6.226-21.83 9.65-33.755 5.038-19.05 10.078-38.099 15.117-57.148.75-2.558.802-23.212-5.684-32.535-25.296-42.69-78.447-56.938-123.939-66.174-25.667-4.535-51.755-6.484-77.807-6.492zm-21.732 82.151c62.503.982 129.786 8.954 181.017 47.902-39.991 48.102-105.58 63.217-165.02 71.234-66.873 6.173-140.544 3.73-197.778-35.387-64.407-73.622 138.169-83.18 181.781-83.749z" style="marker:none" opacity=".386" overflow="visible"/><path style="marker:none" d="M385.688 246.625V159.75c0-64.696-106.155-117.125-237.125-117.125S-88.595 95.054-88.595 159.75v86.875c0-64.696 106.186-117.125 237.156-117.125s237.125 52.429 237.125 117.125z" fill="url(#d)" overflow="visible" transform="translate(105.973 11.41)"/><path style="marker:none" d="M291.063 66.125L291.03 153c8.017 2.98 15.632 6.208 22.813 9.656V75.781a270.15 270.15 0 0 0-22.781-9.656z" fill="url(#e)" overflow="visible" transform="translate(105.973 11.41)"/><path style="marker:none" d="M148.563 121.5c-130.97 0-237.157 52.429-237.157 117.125v8c0-64.696 106.186-117.125 237.156-117.125s237.125 52.429 237.125 117.125v-8c0-64.696-106.154-117.125-237.125-117.125z" fill="url(#f)" overflow="visible" transform="translate(105.973 11.41)"/><path d="M-88.563 153.875v86.875c0 64.696 106.155 117.125 237.125 117.125S385.72 305.446 385.72 240.75v-86.875C385.719 218.571 279.533 271 148.563 271S-88.563 218.571-88.563 153.875z" style="marker:none" fill="url(#g)" overflow="visible" transform="translate(105.973 11.41)"/><path style="marker:none" d="M360.503 213.897l-30.756 15.706-.63 76.907a178.429 178.429 0 0 0 16.918-8.991l14.468-16.785v-66.837z" fill="url(#h)" overflow="visible" transform="translate(105.973 11.41)"/><path d="M148.563 42.625c-130.97 0-237.125 52.46-237.125 117.156S17.591 276.906 148.563 276.906c130.97 0 237.156-52.429 237.156-117.125S279.533 42.625 148.563 42.625zm0 18.594c110.194 0 199.53 44.129 199.53 98.562s-89.336 98.563-199.53 98.563c-110.195 0-199.5-44.13-199.5-98.563s89.305-98.562 199.5-98.562z" style="marker:none" fill="url(#i)" overflow="visible" transform="translate(105.973 11.41)"/><path style="marker:none" d="M148.551 49.605c-110.194 0-199.5 44.13-199.5 98.563 0 2.373.198 4.73.531 7.062 7.348-51.128 93.596-91.5 198.97-91.5 105.372 0 191.68 40.372 199.03 91.5.334-2.331.5-4.69.5-7.062 0-54.434-89.337-98.563-199.53-98.563z" fill="url(#j)" overflow="visible" transform="translate(105.973 11.41)"/><path style="marker:none" d="M18.875 258.125v75.906c22.648 7.657 48.539 13.346 76.563 16.563v-75.906c-28.023-3.217-53.916-8.907-76.563-16.563z" fill="url(#k)" overflow="visible" transform="translate(105.973 11.41)"/><path d="M-49.582 221.25l30.756 16.818.63 82.36a174.782 174.782 0 0 1-16.918-9.629l-14.468-17.974V221.25z" style="marker:none" fill="url(#l)" overflow="visible" transform="translate(105.973 11.41)"/><path style="marker:none" d="M-88.563 153.875v86.875c0 64.696 106.155 117.125 237.125 117.125S385.72 305.446 385.72 240.75v-86.875c0 13.793-4.855 27.024-13.719 39.313v48.437c0 60.95-100.05 110.344-223.438 110.344-123.386 0-223.406-49.394-223.406-110.344v-48.406c-8.875-12.297-13.719-25.54-13.719-39.344z" fill="url(#m)" overflow="visible" transform="translate(105.973 11.41)"/><path style="marker:none" d="M-88.136 155.23a58.662 58.662 0 0 0-.438 7.063c0 64.696 106.155 117.125 237.125 117.125s237.156-52.43 237.156-117.125c0-2.38-.154-4.719-.437-7.063-7.397 61.405-110.552 110.063-236.719 110.063-126.167 0-229.292-48.658-236.687-110.063z" fill="url(#n)" overflow="visible" transform="translate(105.973 11.41)"/><path style="marker:none" d="M-88.263 159.465c-.032.77-.063 1.53-.063 2.312 0 65.294 105.749 118.22 236.219 118.22s236.25-52.926 236.25-118.22c0-.777 0-1.547-.031-2.312-2.381 64.261-107.24 115.969-236.22 115.969-128.977 0-233.775-51.708-236.155-115.97z" fill="url(#o)" overflow="visible" transform="translate(105.973 11.41)"/><path style="marker:none" d="M148.563 60.647c-105.374 0-191.622 40.373-198.97 91.5a52.28 52.28 0 0 1-.468-4.968c-.025.637-.063 1.265-.063 1.906 0 2.373.198 4.731.532 7.062 7.347-51.127 93.595-91.5 198.969-91.5 105.373 0 191.681 40.373 199.03 91.5.335-2.33.5-4.689.5-7.062 0-.64-.037-1.269-.062-1.906a49.36 49.36 0 0 1-.437 4.968c-7.35-51.127-93.658-91.5-199.031-91.5z" fill="url(#p)" overflow="visible" transform="translate(105.973 11.41)"/><path style="marker:none" d="M65.364 205.34l-10.962 58.97-.389-.046-16.983-12.032 13.726 11.734-56.04-5.236 58.928 10.944-.353 3.954-11.589 16.331 11.272-13.202-4.898 52.633 10.906-58.609 20.447 14.506-16.995-14.557 56.332 5.287L62.02 265.47l12.736-17.91-14.96 17.497 5.567-59.716z" fill="url(#q)" overflow="visible" transform="translate(105.973 11.41)"/><path d="M148.563 49.536c-105.374 0-191.622 40.372-198.97 91.5a52.28 52.28 0 0 1-.468-4.97c-.025.639-.063 1.267-.063 1.907 0 2.373.198 4.731.532 7.063 7.347-51.128 93.595-91.5 198.969-91.5 105.373 0 191.681 40.372 199.03 91.5.335-2.332.5-4.69.5-7.063 0-.64-.037-1.268-.062-1.906a49.36 49.36 0 0 1-.437 4.969c-7.35-51.128-93.658-91.5-199.031-91.5z" style="marker:none" fill="url(#r)" overflow="visible" transform="translate(105.973 11.41)"/><path d="M239.582 108.262l-1.93-42.557-.278-.007-13.127 6.8 10.806-6.91-39.935-1.81 42.526-1.922.14-2.815-6.552-12.625 6.636 10.392 1.714-37.505 1.926 42.298 15.806-8.2-13.383 8.574 40.145 1.803-40.95 1.858 7.203 13.847-8.81-13.774-1.937 42.553z" style="marker:none" fill="url(#s)" overflow="visible" transform="translate(105.973 11.41)"/><path d="M815.482 83.691c-69.943 1.481-145.936 13.665-200.61 60.713-15.869 15.997-19.593 25.922-23.906 45.252l-14.588 55.148c-6.279 22.725 25.45 59.975 55.118 67.282 81.138 30.751 173.44 25.585 254.551-2.671 32.657-10.41 73.35-37.61 83.274-64.611 6.513-24.405 12.93-48.836 19.403-73.251.626-2.137.67-19.386-4.747-27.173-22.233-37.214-69.3-48.732-108.96-56.185-19.678-3.13-39.617-4.503-59.535-4.504zm-18.15 68.611c52.209.809 108.425 7.45 151.183 40.007-37.737 44.614-100.586 56.04-155.914 61.066-52.362 1.912-111.491-1.265-153.392-36.552-27.71-57.754 123.96-64.307 158.124-64.52z" style="marker:none" opacity=".386" overflow="visible"/><g><path d="M385.688 246.625V159.75c0-64.696-106.155-117.125-237.125-117.125S-88.595 95.054-88.595 159.75v86.875c0-64.696 106.186-117.125 237.156-117.125s237.125 52.429 237.125 117.125z" style="marker:none" fill="url(#t)" overflow="visible" transform="matrix(.83518 0 0 .83518 634.39 39.636)"/><path d="M291.063 66.125L291.03 153c8.017 2.98 15.632 6.208 22.813 9.656V75.781a270.15 270.15 0 0 0-22.781-9.656z" style="marker:none" fill="url(#u)" overflow="visible" transform="matrix(.83518 0 0 .83518 634.39 39.636)"/><path d="M148.563 121.5c-130.97 0-237.157 52.429-237.157 117.125v8c0-64.696 106.186-117.125 237.156-117.125s237.125 52.429 237.125 117.125v-8c0-64.696-106.154-117.125-237.125-117.125z" style="marker:none" fill="url(#v)" overflow="visible" transform="matrix(.83518 0 0 .83518 634.39 39.636)"/><path style="marker:none" d="M-88.563 153.875v86.875c0 64.696 106.155 117.125 237.125 117.125S385.72 305.446 385.72 240.75v-86.875C385.719 218.571 279.533 271 148.563 271S-88.563 218.571-88.563 153.875z" fill="url(#w)" overflow="visible" transform="matrix(.83518 0 0 .83518 634.39 39.636)"/><path d="M360.503 213.897l-30.756 15.706-.63 76.907a178.429 178.429 0 0 0 16.918-8.991l14.468-16.785v-66.837z" style="marker:none" fill="url(#x)" overflow="visible" transform="matrix(.83518 0 0 .83518 634.39 39.636)"/><path style="marker:none" d="M148.563 42.625c-130.97 0-237.125 52.46-237.125 117.156S17.591 276.906 148.563 276.906c130.97 0 237.156-52.429 237.156-117.125S279.533 42.625 148.563 42.625zm0 18.594c110.194 0 199.53 44.129 199.53 98.562s-89.336 98.563-199.53 98.563c-110.195 0-199.5-44.13-199.5-98.563s89.305-98.562 199.5-98.562z" fill="url(#y)" overflow="visible" transform="matrix(.83518 0 0 .83518 634.39 39.636)"/><path d="M148.551 49.605c-110.194 0-199.5 44.13-199.5 98.563 0 2.373.198 4.73.531 7.062 7.348-51.128 93.596-91.5 198.97-91.5 105.372 0 191.68 40.372 199.03 91.5.334-2.331.5-4.69.5-7.062 0-54.434-89.337-98.563-199.53-98.563z" style="marker:none" fill="url(#z)" overflow="visible" transform="matrix(.83518 0 0 .83518 634.39 39.636)"/><path d="M18.875 258.125v75.906c22.648 7.657 48.539 13.346 76.563 16.563v-75.906c-28.023-3.217-53.916-8.907-76.563-16.563z" style="marker:none" fill="url(#A)" overflow="visible" transform="matrix(.83518 0 0 .83518 634.39 39.636)"/><path style="marker:none" d="M-49.582 221.25l30.756 16.818.63 82.36a174.782 174.782 0 0 1-16.918-9.629l-14.468-17.974V221.25z" fill="url(#B)" overflow="visible" transform="matrix(.83518 0 0 .83518 634.39 39.636)"/><path d="M-88.563 153.875v86.875c0 64.696 106.155 117.125 237.125 117.125S385.72 305.446 385.72 240.75v-86.875c0 13.793-4.855 27.024-13.719 39.313v48.437c0 60.95-100.05 110.344-223.438 110.344-123.386 0-223.406-49.394-223.406-110.344v-48.406c-8.875-12.297-13.719-25.54-13.719-39.344z" style="marker:none" fill="url(#C)" overflow="visible" transform="matrix(.83518 0 0 .83518 634.39 39.636)"/><path d="M-88.136 155.23a58.662 58.662 0 0 0-.438 7.063c0 64.696 106.155 117.125 237.125 117.125s237.156-52.43 237.156-117.125c0-2.38-.154-4.719-.437-7.063-7.397 61.405-110.552 110.063-236.719 110.063-126.167 0-229.292-48.658-236.687-110.063z" style="marker:none" fill="url(#D)" overflow="visible" transform="matrix(.83518 0 0 .83518 634.39 39.636)"/><path d="M-88.263 159.465c-.032.77-.063 1.53-.063 2.312 0 65.294 105.749 118.22 236.219 118.22s236.25-52.926 236.25-118.22c0-.777 0-1.547-.031-2.312-2.381 64.261-107.24 115.969-236.22 115.969-128.977 0-233.775-51.708-236.155-115.97z" style="marker:none" fill="url(#E)" overflow="visible" transform="matrix(.83518 0 0 .83518 634.39 39.636)"/><path d="M148.563 60.647c-105.374 0-191.622 40.373-198.97 91.5a52.28 52.28 0 0 1-.468-4.968c-.025.637-.063 1.265-.063 1.906 0 2.373.198 4.731.532 7.062 7.347-51.127 93.595-91.5 198.969-91.5 105.373 0 191.681 40.373 199.03 91.5.335-2.33.5-4.689.5-7.062 0-.64-.037-1.269-.062-1.906a49.36 49.36 0 0 1-.437 4.968c-7.35-51.127-93.658-91.5-199.031-91.5z" style="marker:none" fill="url(#F)" overflow="visible" transform="matrix(.83518 0 0 .83518 634.39 39.636)"/><path d="M65.364 205.34l-10.962 58.97-.389-.046-16.983-12.032 13.726 11.734-56.04-5.236 58.928 10.944-.353 3.954-11.589 16.331 11.272-13.202-4.898 52.633 10.906-58.609 20.447 14.506-16.995-14.557 56.332 5.287L62.02 265.47l12.736-17.91-14.96 17.497 5.567-59.716z" style="marker:none" fill="url(#G)" overflow="visible" transform="matrix(.83518 0 0 .83518 634.39 39.636)"/><path style="marker:none" d="M148.563 49.536c-105.374 0-191.622 40.372-198.97 91.5a52.28 52.28 0 0 1-.468-4.97c-.025.639-.063 1.267-.063 1.907 0 2.373.198 4.731.532 7.063 7.347-51.128 93.595-91.5 198.969-91.5 105.373 0 191.681 40.372 199.03 91.5.335-2.332.5-4.69.5-7.063 0-.64-.037-1.268-.062-1.906a49.36 49.36 0 0 1-.437 4.969c-7.35-51.128-93.658-91.5-199.031-91.5z" fill="url(#H)" overflow="visible" transform="matrix(.83518 0 0 .83518 634.39 39.636)"/><path style="marker:none" d="M239.582 108.262l-1.93-42.557-.278-.007-13.127 6.8 10.806-6.91-39.935-1.81 42.526-1.922.14-2.815-6.552-12.625 6.636 10.392 1.714-37.505 1.926 42.298 15.806-8.2-13.383 8.574 40.145 1.803-40.95 1.858 7.203 13.847-8.81-13.774-1.937 42.553z" fill="url(#I)" overflow="visible" transform="matrix(.83518 0 0 .83518 634.39 39.636)"/></g></g></svg>