<svg xmlns="http://www.w3.org/2000/svg" width="448" height="192" viewBox="0 0 118.533 50.8"><g transform="translate(-6.226 -38.109)"><g fill="none" stroke="#000" stroke-width="1.852"><rect ry="7.541" rx="7.541" y="39.035" x="7.152" height="15.081" width="15.081" stroke-linecap="round" stroke-linejoin="bevel" paint-order="markers fill stroke"/><path d="M10.951 42.833l7.484 7.484M18.435 42.833l-7.484 7.484"/></g><rect ry="7.541" rx="7.541" y="39.035" x="24.086" height="15.081" width="15.081" fill="none" stroke="#000" stroke-width="1.852" stroke-linecap="round" stroke-linejoin="bevel" paint-order="markers fill stroke"/><path d="M26.335 46.575h10.583M31.626 41.284v10.583" fill="none" stroke="#000" stroke-width="1.852"/><g fill="none" stroke="#000" stroke-width="2.343"><path d="M76.646 79.205h6.049M79.67 76.181v6.048M93.58 79.205h6.048" stroke-width="1.85197749"/></g><g transform="translate(-3.324 -.189)"><rect ry="7.541" rx="7.541" y="39.224" x="44.343" height="15.081" width="15.081" fill="none" stroke="#000" stroke-width="1.852" stroke-linecap="round" stroke-linejoin="bevel" paint-order="markers fill stroke"/><path d="M46.592 46.764h10.583" fill="none" stroke="#000" stroke-width="1.852"/></g><g transform="translate(-7.897 -.267)"><path d="M68.096 46.565l1.308-1.307a6.607 6.607 0 0 0 3.986 1.318c1.503 0 2.88-.49 3.986-1.319l1.308 1.308a8.427 8.427 0 0 1-5.294 1.863 8.426 8.426 0 0 1-5.294-1.863z" style="line-height:normal;font-variant-ligatures:normal;font-variant-position:normal;font-variant-caps:normal;font-variant-numeric:normal;font-variant-alternates:normal;font-feature-settings:normal;text-indent:0;text-align:start;text-decoration-line:none;text-decoration-style:solid;text-decoration-color:#000;text-transform:none;text-orientation:mixed;white-space:normal;shape-padding:0;isolation:auto;mix-blend-mode:normal;solid-color:#000;solid-opacity:1" color="#000" font-weight="400" font-family="sans-serif" overflow="visible" paint-order="markers fill stroke"/><rect width="15.081" height="15.081" x="65.849" y="39.302" rx="7.541" ry="7.541" fill="none" stroke="#000" stroke-width="1.852" stroke-linecap="round" stroke-linejoin="bevel" paint-order="markers fill stroke"/><path d="M71.243 43.827l.261.262M75.259 44.183l.261-.261" fill="none" stroke="#000" stroke-width="1.852" stroke-linecap="round" stroke-linejoin="bevel"/></g><g transform="translate(-7.897 -.267)" fill="none" stroke="#000" stroke-linecap="round" stroke-linejoin="bevel"><rect ry="7.541" rx="7.541" y="39.302" x="82.783" height="15.081" width="15.081" stroke-width="1.852" paint-order="markers fill stroke"/><path d="M88.176 43.827l.262.262M92.192 44.183l.262-.261" stroke-width="1.852"/><path d="M87.286 47.381a3.038 3.151 0 0 0 1.519 2.73 3.038 3.151 0 0 0 3.037 0 3.038 3.151 0 0 0 1.519-2.73h-3.038z" stroke-width="3.276" paint-order="markers fill stroke"/></g><g transform="translate(-25.221 .212)" fill="none" stroke="#000" stroke-linecap="round" stroke-linejoin="bevel"><rect width="15.081" height="15.081" x="117.04" y="38.823" rx="7.541" ry="7.541" stroke-width="1.852" paint-order="markers fill stroke"/><path d="M122.434 43.348l.261.261M126.45 43.704l.261-.262" stroke-width="1.852"/><path d="M126.736 49.637a2.155 2.318 0 0 0-1.078-2.007 2.155 2.318 0 0 0-2.154 0 2.155 2.318 0 0 0-1.078 2.007h2.155z" stroke-width="2.366" paint-order="markers fill stroke"/></g><g transform="translate(-30.235 .3)"><path style="line-height:normal;font-variant-ligatures:normal;font-variant-position:normal;font-variant-caps:normal;font-variant-numeric:normal;font-variant-alternates:normal;font-feature-settings:normal;text-indent:0;text-align:start;text-decoration-line:none;text-decoration-style:solid;text-decoration-color:#000;text-transform:none;text-orientation:mixed;white-space:normal;shape-padding:0;isolation:auto;mix-blend-mode:normal;solid-color:#000;solid-opacity:1" d="M141.234 47.61l1.309 1.309a6.607 6.607 0 0 1 3.985-1.319c1.503 0 2.88.49 3.986 1.32l1.308-1.309a8.427 8.427 0 0 0-5.294-1.863 8.426 8.426 0 0 0-5.294 1.863z" color="#000" font-weight="400" font-family="sans-serif" overflow="visible" paint-order="markers fill stroke"/><rect ry="7.541" rx="7.541" y="38.735" x="138.988" height="15.081" width="15.081" fill="none" stroke="#000" stroke-width="1.852" stroke-linecap="round" stroke-linejoin="bevel" paint-order="markers fill stroke"/><path d="M144.381 43.616l.262-.261M148.397 43.26l.262.262" fill="none" stroke="#000" stroke-width="1.852" stroke-linecap="round" stroke-linejoin="bevel"/></g><g fill="none" stroke="#000" stroke-width="1.852"><rect ry="7.541" rx="7.541" y="55.968" x="24.086" height="15.081" width="15.081" stroke-linecap="round" stroke-linejoin="bevel" paint-order="markers fill stroke"/><path d="M29.467 66.684v-6.35M33.785 66.684v-6.35"/></g><path d="M48.56 81.402v-6.35" fill="none" stroke="#000" stroke-width="1.852"/><g fill="none" stroke="#000" stroke-width="1.852" paint-order="markers fill stroke"><rect width="15.081" height="15.081" x="7.152" y="55.968" rx="7.541" ry="7.541" stroke-linecap="round" stroke-linejoin="bevel"/><path d="M12.349 61.096h4.688v4.825h-4.688z"/></g><g transform="translate(-6.49 -4.637)"><rect width="15.081" height="15.081" x="47.508" y="60.605" rx="7.541" ry="7.541" fill="none" stroke="#000" stroke-width="1.852" stroke-linecap="round" stroke-linejoin="bevel" paint-order="markers fill stroke"/><path d="M52.15 71.322l1.308 1.308 3.175-3.175.007.005 1.308-1.308-.006-.006.006-.006-1.308-1.308-.006.005-3.176-3.176-1.309 1.31 3.176 3.175z" style="line-height:normal;font-variant-ligatures:normal;font-variant-position:normal;font-variant-caps:normal;font-variant-numeric:normal;font-variant-alternates:normal;font-feature-settings:normal;text-indent:0;text-align:start;text-decoration-line:none;text-decoration-style:solid;text-decoration-color:#000;text-transform:none;text-orientation:mixed;white-space:normal;shape-padding:0;isolation:auto;mix-blend-mode:normal;solid-color:#000;solid-opacity:1" color="#000" font-weight="400" font-family="sans-serif" overflow="visible"/></g><g transform="translate(-9.735 -4.37)"><rect ry="7.541" rx="7.541" y="60.338" x="67.687" height="15.081" width="15.081" fill="none" stroke="#000" stroke-width="1.852" stroke-linecap="round" stroke-linejoin="bevel" paint-order="markers fill stroke"/><path style="line-height:normal;font-variant-ligatures:normal;font-variant-position:normal;font-variant-caps:normal;font-variant-numeric:normal;font-variant-alternates:normal;font-feature-settings:normal;text-indent:0;text-align:start;text-decoration-line:none;text-decoration-style:solid;text-decoration-color:#000;text-transform:none;text-orientation:mixed;white-space:normal;shape-padding:0;isolation:auto;mix-blend-mode:normal;solid-color:#000;solid-opacity:1" d="M70.212 71.054l1.308 1.309 3.176-3.176.006.006 1.308-1.308-.005-.007.005-.005-1.308-1.309-.006.006-3.176-3.176-1.308 1.309 3.175 3.176z" color="#000" font-weight="400" font-family="sans-serif" overflow="visible"/><path d="M74.853 71.048l1.308 1.309 3.176-3.176.006.006 1.309-1.309-.006-.006.006-.005-1.309-1.309-.006.006-3.176-3.176-1.308 1.309 3.176 3.176z" style="line-height:normal;font-variant-ligatures:normal;font-variant-position:normal;font-variant-caps:normal;font-variant-numeric:normal;font-variant-alternates:normal;font-feature-settings:normal;text-indent:0;text-align:start;text-decoration-line:none;text-decoration-style:solid;text-decoration-color:#000;text-transform:none;text-orientation:mixed;white-space:normal;shape-padding:0;isolation:auto;mix-blend-mode:normal;solid-color:#000;solid-opacity:1" color="#000" font-weight="400" font-family="sans-serif" overflow="visible"/></g><g transform="translate(-12.002 -4.464)"><rect transform="scale(-1 1)" width="15.081" height="15.081" x="-101.969" y="60.432" rx="7.541" ry="7.541" fill="none" stroke="#000" stroke-width="1.852" stroke-linecap="round" stroke-linejoin="bevel" paint-order="markers fill stroke"/><path d="M99.445 71.149l-1.309 1.308-3.175-3.175-.006.006-1.309-1.309.006-.006-.006-.006 1.309-1.308.005.006 3.176-3.177 1.309 1.31-3.176 3.175z" style="line-height:normal;font-variant-ligatures:normal;font-variant-position:normal;font-variant-caps:normal;font-variant-numeric:normal;font-variant-alternates:normal;font-feature-settings:normal;text-indent:0;text-align:start;text-decoration-line:none;text-decoration-style:solid;text-decoration-color:#000;text-transform:none;text-orientation:mixed;white-space:normal;shape-padding:0;isolation:auto;mix-blend-mode:normal;solid-color:#000;solid-opacity:1" color="#000" font-weight="400" font-family="sans-serif" overflow="visible"/><path style="line-height:normal;font-variant-ligatures:normal;font-variant-position:normal;font-variant-caps:normal;font-variant-numeric:normal;font-variant-alternates:normal;font-feature-settings:normal;text-indent:0;text-align:start;text-decoration-line:none;text-decoration-style:solid;text-decoration-color:#000;text-transform:none;text-orientation:mixed;white-space:normal;shape-padding:0;isolation:auto;mix-blend-mode:normal;solid-color:#000;solid-opacity:1" d="M94.803 71.143l-1.308 1.308-3.175-3.175-.007.005-1.308-1.308.006-.006-.006-.006 1.308-1.308.006.005 3.176-3.176 1.309 1.31-3.176 3.175z" color="#000" font-weight="400" font-family="sans-serif" overflow="visible"/></g><g transform="translate(4.93 -4.464)"><rect ry="7.541" rx="7.541" y="60.432" x="-101.969" height="15.081" width="15.081" transform="scale(-1 1)" fill="none" stroke="#000" stroke-width="1.852" stroke-linecap="round" stroke-linejoin="bevel" paint-order="markers fill stroke"/><path d="M97.328 71.143L96.02 72.45l-3.176-3.175-.006.005-1.308-1.308.005-.006-.005-.006 1.308-1.308.006.005 3.176-3.176 1.308 1.31-3.175 3.175z" style="line-height:normal;font-variant-ligatures:normal;font-variant-position:normal;font-variant-caps:normal;font-variant-numeric:normal;font-variant-alternates:normal;font-feature-settings:normal;text-indent:0;text-align:start;text-decoration-line:none;text-decoration-style:solid;text-decoration-color:#000;text-transform:none;text-orientation:mixed;white-space:normal;shape-padding:0;isolation:auto;mix-blend-mode:normal;solid-color:#000;solid-opacity:1" color="#000" font-weight="400" font-family="sans-serif" overflow="visible"/></g><rect transform="matrix(-1 0 0 1 21.864 -4.464)" width="15.081" height="15.081" x="-101.969" y="60.432" rx="7.541" ry="7.541" fill="none" stroke="#000" stroke-width="1.852" stroke-linecap="round" stroke-linejoin="bevel" paint-order="markers fill stroke"/><path d="M114.453 66.932V60.085l2.965 1.712 2.964 1.712-2.964 1.711z" fill="none" stroke="#000" stroke-width="1.8519199999999998" stroke-linejoin="bevel" paint-order="markers fill stroke"/><g transform="translate(-65.314 -4.99)"><rect transform="scale(-1 1)" width="15.081" height="15.081" x="-87.548" y="77.89" rx="7.541" ry="7.541" fill="none" stroke="#000" stroke-width="1.852" stroke-linecap="round" stroke-linejoin="bevel" paint-order="markers fill stroke"/><path style="line-height:normal;font-variant-ligatures:normal;font-variant-position:normal;font-variant-caps:normal;font-variant-numeric:normal;font-variant-alternates:normal;font-feature-settings:normal;text-indent:0;text-align:start;text-decoration-line:none;text-decoration-style:solid;text-decoration-color:#000;text-transform:none;text-orientation:mixed;white-space:normal;shape-padding:0;isolation:auto;mix-blend-mode:normal;solid-color:#000;solid-opacity:1" d="M74.032 79.583a10.354 10.354 0 0 0-.948 2.04H86.93c-.25-.732-.569-1.416-.948-2.04zm-.948 9.657c.25.733.57 1.416.948 2.04h11.95c.38-.623.7-1.308.949-2.04z" color="#000" font-weight="400" font-family="sans-serif" overflow="visible" paint-order="markers fill stroke"/><path d="M73.57 81.452L79.995 87l6.426-5.547M73.57 88.532l4.81-3.105m3.213 0l4.828 3.105" fill="none" stroke="#000" stroke-width="1.852"/></g><g transform="translate(-48.38 -4.99)" paint-order="markers fill stroke"><rect ry="7.541" rx="7.541" y="77.89" x="-87.548" height="15.081" width="15.081" transform="scale(-1 1)" fill="none" stroke="#000" stroke-width="1.852" stroke-linecap="round" stroke-linejoin="bevel"/><path style="line-height:normal;font-variant-ligatures:normal;font-variant-position:normal;font-variant-caps:normal;font-variant-numeric:normal;font-variant-alternates:normal;font-feature-settings:normal;text-indent:0;text-align:start;text-decoration-line:none;text-decoration-style:solid;text-decoration-color:#000;text-transform:none;text-orientation:mixed;white-space:normal;shape-padding:0;isolation:auto;mix-blend-mode:normal;solid-color:#000;solid-opacity:1" d="M74.032 79.583a10.354 10.354 0 0 0-.948 2.04H86.93c-.25-.732-.569-1.416-.948-2.04zM73.084 89.24c.25.733.57 1.416.948 2.04h11.95c.38-.623.7-1.308.949-2.04z" color="#000" font-weight="400" font-family="sans-serif" overflow="visible"/></g><g stroke="#000" stroke-width=".694" paint-order="markers fill stroke"><path d="M26.808 77.154h1.94v1.639h-1.94zM30.728 77.154h1.94v1.639h-1.94zM34.79 77.154h1.94v1.639h-1.94z"/></g><g stroke="#000" stroke-width=".694" paint-order="markers fill stroke"><path d="M26.808 82.031h1.94v1.64h-1.94zM30.728 82.031h1.94v1.64h-1.94zM34.79 82.031h1.94v1.64h-1.94z"/></g><rect width="15.081" height="15.081" x="41.019" y="72.901" rx="7.541" ry="7.541" fill="none" stroke="#000" stroke-width="1.852" stroke-linecap="round" stroke-linejoin="bevel" paint-order="markers fill stroke"/><circle cx="48.56" cy="80.442" r="3.802" fill="none" stroke="#000" stroke-width="1.409" stroke-linecap="square" paint-order="markers fill stroke"/><rect ry="7.541" rx="7.541" y="72.901" x="-73.034" height="15.081" width="15.081" transform="scale(-1 1)" fill="none" stroke="#000" stroke-width="1.852" stroke-linecap="round" stroke-linejoin="bevel" paint-order="markers fill stroke"/><g transform="matrix(-1 0 0 1 131.256 .426)" fill="none" stroke="#000" stroke-width="1.852"><circle r="2.56" cy="78.307" cx="64.078" stroke-linecap="square" paint-order="markers fill stroke"/><path d="M70.28 84.556l-4.49-4.49"/></g><rect transform="scale(-1 1)" width="15.081" height="15.081" x="-89.967" y="72.901" rx="7.541" ry="7.541" fill="none" stroke="#000" stroke-width="1.852" stroke-linecap="round" stroke-linejoin="bevel" paint-order="markers fill stroke"/><g transform="matrix(-1 0 0 1 150.493 2.938)" fill="none" stroke="#000" stroke-width="1.852"><circle cx="64.078" cy="78.307" r="2.56" stroke-linecap="square" paint-order="markers fill stroke"/><path d="M70.28 84.556l-4.49-4.49"/></g><rect ry="7.541" rx="7.541" y="72.901" x="-106.9" height="15.081" width="15.081" transform="scale(-1 1)" fill="none" stroke="#000" stroke-width="1.852" stroke-linecap="round" stroke-linejoin="bevel" paint-order="markers fill stroke"/><g transform="matrix(-1 0 0 1 167.426 2.938)" fill="none" stroke="#000" stroke-width="1.852"><circle r="2.56" cy="78.307" cx="64.078" stroke-linecap="square" paint-order="markers fill stroke"/><path d="M70.28 84.556l-4.49-4.49"/></g><rect transform="scale(-1 1)" width="15.081" height="15.081" x="-123.834" y="72.901" rx="7.541" ry="7.541" fill="none" stroke="#000" stroke-width="1.852" stroke-linecap="round" stroke-linejoin="bevel" paint-order="markers fill stroke"/><text style="line-height:1.25;-inkscape-font-specification:'URW Chancery L'" x="109.827" y="82.343" font-weight="400" font-size="5.301" font-family="URW Chancery L" letter-spacing="0" word-spacing="0" stroke="#000" stroke-width=".166"><tspan x="109.827" y="82.343" style="-inkscape-font-specification:Pagul" font-family="Pagul">2020</tspan></text></g></svg>