<svg xmlns="http://www.w3.org/2000/svg" xmlns:xlink="http://www.w3.org/1999/xlink" viewBox="0 0 300 220"><defs><linearGradient id="a"><stop stop-color="#453106" offset="0"/><stop stop-color="#bc8510" offset="1"/></linearGradient><linearGradient id="b" y2="329.88" xlink:href="#a" gradientUnits="userSpaceOnUse" x2="421" y1="217.88" x1="264.28"/><radialGradient id="c" xlink:href="#a" gradientUnits="userSpaceOnUse" cy="249.853" cx="455.385" gradientTransform="matrix(21.67443 .39961 -.17672 9.58495 -9209.426 -2777.54)" r="72.579" fx="455.385" fy="249.853"/><radialGradient xlink:href="#a" id="d" cx="344.267" cy="353.831" fx="344.267" fy="353.831" r="20.938" gradientTransform="matrix(1.93494 0 0 4.03873 -322.078 -1141.74)" gradientUnits="userSpaceOnUse"/></defs><path fill="#b38111" d="M177.732 46.993l-123.19 3.873-.223 1.245 123.02-3.952z"/><path d="M456.155 286.545l-122.446 2.82 2.15 125.976 39.328 44.965 78.338-56.701z" fill="url(#b)" transform="translate(-278.798 -240.297)"/><path fill="#df9e13" d="M218.832 1.733l-41.098 45.259 64.014 16.132L290.086 8.21z"/><path fill="#3d2c06" d="M54.542 50.863L40.962 8.889l-.19 1.233 13.546 41.985z"/><path fill="#72520b" d="M239.732 62.763l-62.537-15.621-2.472 116.16 59.908 37.746zM290.082 8.213l-48.338 54.914 1.103 1.247L291.119 9.5z"/><path fill="#523b08" d="M54.542 50.863l41.877 18.16.919-.249-41.36-17.819z"/><path fill="#0b0801" d="M30.362 119.973L-.005 91.952 1 93.26l30.564 28.29z"/><path fill="url(#c)" d="M375.19 460.3l139.62-17.76 5.54-139.37-145.13 6.15z" transform="translate(-278.798 -240.297)"/><path fill="#221803" d="M96.422 69.023l145.13-6.152-1.812-.116-142.4 6.019z"/><path fill="#dc9c13" d="M96.402 69.023l26.281 45.294 156.73-10.791-37.897-40.654z"/><path fill="#72520b" d="M279.422 103.523l-156.73 10.79-.302 1.866 156.52-10.94z"/><path fill="#3d2c06" d="M241.552 62.893l-63.813-15.9-.535.145 62.537 15.621z"/><path fill="url(#d)" d="M334.73 416.05l40.453 44.244.032-150.97-41.877-18.16z" transform="translate(-278.798 -240.297)"/><path d="M54.792 50.863L.004 91.955l30.367 28.02 66.046-50.948z" fill="#eba716"/><path d="M96.422 69.023L30.076 119.98l1.49 1.568 64.612-50.774z" fill="#8b630c"/><path fill="#da9a13" d="M40.962 8.893l13.581 41.974 123.19-3.874-19.712-39.077z"/><path fill="#523b08" d="M122.692 114.313l-26.28-45.294-.234 1.756 26.212 45.403z"/></svg>