<svg xmlns="http://www.w3.org/2000/svg" height="512" width="512"><defs><linearGradient id="a"><stop offset="0" stop-color="#fff"/><stop offset="1" stop-opacity="0"/></linearGradient></defs><path d="M0 0h512v512H0z"/><path d="M255.597 13.754L272.7 16.24l-1.581-12.744L256.5 1.864z" fill="#434343"/><path d="M272.7 16.24l26.514-2.25-5.294-11.97-22.801 1.477z" fill="#a1a1a1"/><path d="M201.847 17.99l15.768 2.923-.587-13.917-13.497-1.913z" fill="#363636"/><path d="M217.615 20.913l45.725-3.882-6.972-12.582-39.34 2.547z" fill="#a6a6a6"/><path d="M149.983 22.081l22.589 5.426-1.293-15.597-19.332-3.553z" fill="#2b2b2b"/><path d="M19.584 32.367l10.848 6.386-.932-18.239-9.267-4.188z" fill="#121212"/><path d="M89.93 26.818l23.127 7.89-1.598-17.417-19.78-5.17z" fill="#202020"/><path d="M217.876 20.961l17.537 3.25-.624-14.697-15.017-2.129z" fill="#3b3b3b"/><path d="M172.572 27.507l53.758-4.765-8.816-13.948-46.235 3.116z" fill="#a6a6a6"/><path d="M235.413 24.212l46.876-4.314-7.147-13.216-40.353 2.832z" fill="#a5a5a5"/><path d="M30.432 38.753l74.2-6.464-11.207-16.014-63.925 4.24z" fill="#adadad"/><path d="M292.154 19.07l20.906 3.039-1.69-14.118-17.887-1.997z" fill="#4e4e4e"/><path d="M17.656 22.278L-.001 23.466V42.81l31.157-2.75-13.5-17.782z" fill="#acacac"/><path d="M113.057 34.709l63.973-5.826-10.57-15.392-55 3.8z" fill="#a5a5a5"/><path d="M313.06 22.109l27.404-2.753-5.5-13.172L311.37 7.99z" fill="#9d9d9d"/><path d="M172.836 27.57l16.845 4.047-.687-16.45-14.429-2.653z" fill="#303030"/><path d="M235.704 24.265l19.622 3.637-.667-15.57-16.808-2.383z" fill="#3f3f3f"/><path d="M30.584 38.842l9.544 5.62-.769-19.492-8.161-3.689z" fill="#141414"/><path d="M189.681 31.617l55.556-5.358-8.362-14.615-47.881 3.523z" fill="#a8a8a8"/><path d="M255.326 27.902l47.997-4.82-7.317-13.918-41.347 3.168z" fill="#a3a3a3"/><path d="M113.219 34.764l14.707 5.018-.75-18.384-12.598-3.292z" fill="#232323"/><path d="M40.128 44.461l78.354-7.415-11.469-16.96L39.36 24.97z" fill="#afafaf"/><path d="M313.405 22.16l23.302 3.387-1.748-14.922-19.948-2.227z" fill="#535353"/><path d="M336.707 25.547l27.754-3.069-5.59-13.869-23.912 2.016z" fill="#9a9a9a"/><path d="M27.062 27.06l-27.063 2v20.843l41.063-3.968-14-18.875z" fill="#b0b0b0"/><path d="M127.926 39.782l66.792-6.63-9.907-16.117-57.636 4.363z" fill="#acacac"/><path d="M189.962 31.684l19.102 4.589-.739-17.553-16.37-3.009z" fill="#343434"/><path d="M255.652 27.963l22.101 4.096-.714-16.555-18.942-2.685z" fill="#454545"/><path d="M40.289 44.556l11.084 6.525-.835-21.06-9.485-4.286z" fill="#161616"/><path d="M209.064 36.273l57.386-6.069-8.627-15.476-49.498 3.992z" fill="#a7a7a7"/><path d="M277.753 32.06l49.056-5.425-7.481-14.696-42.29 3.565z" fill="#a1a1a1"/><path d="M337.093 25.603l26.135 3.8-1.808-15.823-22.388-2.5z" fill="#5a5a5a"/><path d="M128.173 39.866l16.926 5.776-.812-19.772-14.508-3.791z" fill="#262626"/><path d="M51.373 51.081l82.957-8.592-12.088-18.131-71.704 5.663z" fill="#afafaf"/><path d="M363.228 29.403l27.998-3.443-5.666-14.643-24.14 2.263z" fill="#969696"/><path d="M145.099 45.642l69.804-7.62-10.324-17.17-60.292 5.018z" fill="#ababab"/><path d="M209.383 36.35l21.845 5.247-.798-18.813-18.732-3.444z" fill="#393939"/><path d="M278.122 32.128l25.082 4.649-.77-17.672-21.507-3.05z" fill="#4b4b4b"/><path d="M51.56 51.192l13.016 7.662-.912-22.9-11.147-5.038z" fill="#181818"/><path d="M231.228 41.597l59.214-6.93-8.891-16.445-51.12 4.562z" fill="#a6a6a6"/><path d="M303.204 36.777l49.996-6.148-7.63-15.568-43.135 4.044z" fill="#9d9d9d"/><path d="M363.662 29.466l29.517 4.292-1.868-16.84-25.304-2.826z" fill="#626262"/><path d="M43.656 35.59L-.001 39.279v24.438l59.72-6.656-16.063-21.47z" fill="#adadad"/><path d="M145.384 45.739l19.69 6.718-.886-21.386-16.888-4.413z" fill="#2b2b2b"/><path d="M393.18 33.758l28.085-3.89-5.718-15.51-24.236 2.56z" fill="#919191"/><path d="M64.576 58.854l88.073-10.073-12.766-19.475-76.22 6.647z" fill="#afafaf"/><path d="M165.073 52.457l72.985-8.847-10.76-18.371-63.11 5.832z" fill="#aaa"/><path d="M231.595 41.685l25.225 6.06-.868-20.27-21.644-3.979z" fill="#3f3f3f"/><path d="M303.624 36.855l28.71 5.321-.833-18.95-24.633-3.493z" fill="#525252"/><path d="M332.335 42.176l50.737-7.027-7.753-16.55-43.818 4.627z" fill="#9a9a9a"/><path d="M64.798 58.985l15.516 9.135-1.006-25.097-13.302-6.011z" fill="#1a1a1a"/><path d="M256.82 47.745l60.977-7.99-9.146-17.544-52.7 5.264z" fill="#a3a3a3"/><path d="M165.407 52.571l23.188 7.912-.972-23.287-19.906-5.202z" fill="#303030"/><path d="M80.314 68.12l93.776-11.976-13.51-21.034-81.272 7.913z" fill="#afafaf"/><path d="M411.793 36.465L448 41.729l-1.963-18.7-31.08-3.47z" fill="#707070"/><path d="M447.999 41.729l27.735-4.775-5.724-17.07-23.974 3.144z" fill="#858585"/><path d="M332.818 42.266l33.187 6.15-.91-20.428-28.492-4.04z" fill="#5b5b5b"/><path d="M188.595 60.483l76.296-10.398-11.208-19.752-66.06 6.863z" fill="#a9a9a9"/><path d="M257.246 47.847l29.438 7.071-.95-21.968-25.28-4.647z" fill="#464646"/><path d="M366.005 48.417l51.156-8.11-7.835-17.662-44.23 5.343z" fill="#949494"/><path d="M286.684 54.918l62.577-9.31-9.379-18.799-54.148 6.14z" fill="#a0a0a0"/><path d="M80.58 68.277L99.374 79.34l-1.12-27.756-16.13-7.29z" fill="#1d1d1d"/><path d="M448.607 41.817l41.817 6.08-2.02-20.138-35.933-4.012z" fill="#7b7b7b"/><path d="M511.78 24.122l-23.374 3.625 2.031 20.156 21.562-4.406V24.841l-.218-.719z" fill="#7a7a7a"/><path d="M188.991 60.618l27.711 9.455-1.078-25.56-23.813-6.223z" fill="#353535"/><path d="M99.374 79.341L199.497 64.87l-14.321-22.861-86.922 9.576z" fill="#aeaeae"/><path d="M366.566 48.52l38.799 7.192-1-22.156-33.337-4.727z" fill="#656565"/><path d="M287.184 55.039l34.842 8.369-1.051-23.98-29.947-5.505z" fill="#4f4f4f"/><path d="M216.702 70.073l79.652-12.395-11.657-21.356-69.073 8.192z" fill="#a7a7a7"/><path d="M405.365 55.712l51.064-9.462-7.852-18.936-44.212 6.242z" fill="#8c8c8c"/><path d="M322.026 63.408l63.845-10.99-9.57-20.247-55.326 7.257z" fill="#9b9b9b"/><path d="M495.874 28.59l-4.75 19.407L512 51.028V30.403l-16.125-1.812z" fill="#878787"/><path d="M99.7 79.533l23.246 13.686-1.264-31.046-19.98-9.03z" fill="#222"/><path d="M217.18 70.236l33.7 11.499-1.21-28.324-28.995-7.577z" fill="#3d3d3d"/><path d="M406.025 55.835l45.966 8.52-1.11-24.205-39.531-5.604z" fill="#717171"/><path d="M122.946 93.219L230.1 75.379l-15.197-25.032-93.221 11.826z" fill="#adadad"/><path d="M451.99 64.354l50.163-11.185-7.768-20.406-43.504 7.387z" fill="#828282"/><path d="M0 128.653v47.407l22.937 49.187-12.406-79.031-10.532-17.563z" fill="#090909"/><path d="M322.622 63.551l41.859 10.055-1.174-26.396-36.017-6.621z" fill="#5a5a5a"/><path d="M250.88 81.735l82.878-15.03-12.081-23.243-72.007 9.95z" fill="#a4a4a4"/><path d="M364.481 73.606l64.499-13.17-9.68-21.935-55.993 8.709z" fill="#949494"/><path d="M123.354 93.459l29.508 17.372-1.45-35.223-25.408-11.482z" fill="#262626"/><path d="M512 46.997l-5.188 1.094 1.25 26.656 3.937-1.094V46.997z" fill="#747474"/><path d="M452.778 64.5l55.29 10.248-1.243-26.666-47.602-6.75z" fill="#7f7f7f"/><path d="M251.465 81.934L293.33 96.22l-1.376-31.757-36.074-9.428z" fill="#464646"/><path d="M152.862 110.831l114.831-22.54-16.121-27.66-100.16 14.977z" fill="#acacac"/><path d="M365.204 73.78l51.235 12.307-1.329-29.355-44.141-8.114z" fill="#676767"/><path d="M293.33 96.22l85.632-18.607-12.435-25.491-74.573 12.34z" fill="#9f9f9f"/><path d="M416.439 86.087l64.048-16.07-9.65-23.929-55.727 10.644z" fill="#8a8a8a"/><path d="M153.387 111.14l38.652 22.756L190.34 93.2l-33.354-15.074z" fill="#2e2e2e"/><path d="M294.066 96.47l53.409 18.224-1.596-36.14-46.104-12.048z" fill="#535353"/><path d="M417.332 86.302l64.16 15.412-1.53-33.06-55.363-10.177z" fill="#777"/><path d="M512 60.716l-32.032 7.937 1.531 33.063 30.5-9.938V60.716z" fill="#7a7a7a"/><path d="M192.039 133.896l122.892-29.382-17.04-30.89L190.34 93.2z" fill="#a9a9a9"/><path d="M347.475 114.694l87.214-23.634-12.63-28.216-76.18 15.71z" fill="#969696"/><path d="M492.03 70.872l-9.406 31.125L512 109.06V74.528l-19.968-3.656z" fill="#8a8a8a"/><path d="M192.74 134.308l52.885 31.135-2.053-48.186-45.77-20.684z" fill="#393939"/><path d="M348.428 115.019l70.488 24.05-1.898-41.922-60.99-15.94z" fill="#656565"/><path d="M418.916 139.07l86.182-31.019-12.495-31.585-75.585 20.68z" fill="#888"/><path d="M22.934 225.256l213.15-63.19-47.564-52.261-177.994 36.411z" fill="#8a8a8a"/><path d="M245.625 165.443l130.512-39.909-17.83-34.966-114.735 26.69z" fill="#a3a3a3"/><path d="M430.718 100.716l-10.531 38.781 91.812 31.344v-48.875l-81.28-21.25z" fill="#7c7c7c"/><path d="M246.606 166.021l76.663 45.134-2.583-59.048-66.614-30.104z" fill="#484848"/><path d="M23.4 226.255l49.577 106.303-4.414-89.482-42.746-71.34z" fill="#141414"/><path d="M323.269 211.155l135.22-57.338-18.164-40.245-119.639 38.535z" fill="#969696"/><path d="M72.977 332.558L330.87 218.5l-32.138-52.228-230.17 76.803z" fill="#ababab"/><path d="M324.742 212.022l121.272 71.396-3.481-76.246-105.992-47.9z" fill="#616161"/><path d="M512 170.81l-69.47 36.375 3.47 76.218 66-45.625V170.81z" fill="#797979"/><path d="M80.187 262.466l-6.313 72 82.782 177.531h30.781l-4.438-77.937L80.187 262.466z" fill="#333"/><path d="M492.78 229.872l-44.312 55L512 322.278V238.56l-19.218-8.688z" fill="#616161"/><path d="M464.75 251.34L183 434.06l4.437 77.937h90.844l221.718-192.812-35.25-67.844z" fill="#919191"/><path d="M278.937.497l-22.438 1.375 14.625 1.625 22.782-1.469-14.969-1.53zm-36.906 2.25l-38.5 2.344 13.5 1.906 39.343-2.562-14.343-1.688zm74.718 1.594l-23.28 1.656 17.905 2 23.594-1.812L316.75 4.34zm-57.468.469l-39.5 2.562 15 2.156 40.375-2.843L259.28 4.81zm-63.063.843l-44.281 2.72 19.344 3.53 46.218-3.093-21.28-3.157zm142.438.907l-23.657 1.843 19.97 2.22 23.905-2-20.218-2.063zm-60.282.5l-40.53 2.875 16.812 2.406 41.343-3.188-17.625-2.093zm-135.28 1.906l-51.407 3.156 19.781 5.156 55-3.78-23.375-4.532zm219.905.062l-23.968 2.063 22.375 2.5 24.156-2.281-22.563-2.282zm-141.875.282l-46.562 3.218 14.437 2.625 47.875-3.5-15.75-2.343zm78.47.28l-41.5 3.22 18.937 2.687 42.312-3.562-19.75-2.344zm90.593 2.188l-24.188 2.313 25.313 2.812 24.25-2.53-25.375-2.595zm-150.094.344l-48.125 3.594 16.344 3 49.5-4-17.719-2.594zm83.281.281l-42.437 3.657 21.5 3.03 43.125-4.03-22.188-2.657zm-242.875.25l-60.28 3.688 9.28 4.187 63.938-4.25-12.938-3.625zm89.625 1.532l-55.53 3.906 12.593 3.312 57.625-4.375-14.688-2.843zm91.344 1.093l-49.781 4.063 18.75 3.437 51.125-4.562-20.094-2.938zm88.656.313l-43.25 4.156 24.625 3.469 43.813-4.625-25.188-3zm89.032 1.156l-24.188 2.813 31.063 3.468 23.968-3.156-30.843-3.125zm-343.375.188l-64.594 4.343 8.187 3.688L107 20.09l-11.218-3.156zm-88.094.218l-7.688.47v5.843l17.657-1.188-9.969-5.125zm180.156.47l-58.062 4.468 14.5 3.781 60.312-5.031-16.75-3.219zm97.844 1.218l-51.375 4.656 21.625 3.969 52.719-5.25-22.969-3.375zm94.812.375l-43.906 4.719 28.5 4.062 44.219-5.344-28.813-3.437zm95.875 1.312l-23.906 3.22 35.938 4 23.375-3.626-35.407-3.594zm-367.03.22l-68.282 5 9.469 4.28 71.718-5.656-12.906-3.625zm98.687.78l-60.719 5.125 16.875 4.407 63.125-5.813-19.281-3.719zm105.375 1.375l-52.938 5.407 25.281 4.625 54.125-6.125-26.468-3.907zm-294.032.25L0 24.466v4.594l27.063-2-7.688-3.907zm395.907.188l-44.25 5.5 33.343 4.719 44.188-6.25-33.281-3.97zm-290.375 1.781L52.53 30.903l11.125 5.063 76.218-6.656-14.968-4.188zm106.375.875l-63.563 6 19.906 5.188 66.063-6.844-22.406-4.344zm280.718 0l-16.125 2.594L512 30.403v-4.406zm-166.593 1.625l-54.375 6.313 29.937 5.5 55.344-7.25-30.906-4.563zm-316.344.469L-.001 30.278v9l43.657-3.687-14.594-7.5zm426.437.062l-44.156 6.407 39.531 5.593 43.5-7.375-38.875-4.625zM143 30.185l-77 6.812 13.313 6.031 81.281-7.906L143 30.185zm115.344 1.062l-66.531 7.031 23.812 6.25 69.063-8.218-26.344-5.063zm124.438 1.875l-55.5 7.469 36.031 6.625 56-8.719-36.531-5.375zm119.75.594l-43.313 7.625 47.594 6.75 5.187-1.094V34.841l-9.468-1.125zm-338.25 2.437L82.124 44.31l16.125 7.28 86.938-9.593-20.906-5.844zm125.937 1.25l-69.531 8.438 28.969 7.562 72.031-9.937-31.469-6.063zM51.312 39.497L-.001 44.122v84.531l10.532 17.563 178-36.406L51.312 39.497zm375.687.125l-56.03 9 44.155 8.125 55.72-10.656-43.845-6.469zm-237.406 3.625l-87.906 9.906 20 9.032 93.219-11.844-25.313-7.094zm138.75 1.5l-72.469 10.281 36.094 9.438 74.563-12.344-38.188-7.375zm151.813 2.719l-55.563 11 55.375 10.187L512 60.716v-8.563l-31.843-4.687zm-259.844 4.406l-94.313 12.25 25.407 11.5 100.156-15-31.25-8.75zm154.375 1.813l-74.906 12.812 46.093 12.063 76.188-15.72-47.375-9.155zm-116.375 8.843L156.999 78.122l33.344 15.094 107.563-19.594-39.594-11.094zm174 2.282l-76.281 16.406 61 15.937 75.562-20.687-60.281-11.656zm79.687.875l-19.968 5.187 19.968 3.656v-8.843zM306.562 76.06l-108.75 20.5 45.75 20.687 114.75-26.687-51.75-14.5zm199.281 2.968l-75.125 21.688L512 121.966v-41.75l-6.156-1.188zm-136 14.782l-115.781 28.187 66.625 30.125 119.625-38.562-70.469-19.75zm86.594 24.28l-119.906 41.188 106 47.907 69.468-36.375v-37.125l-55.562-15.594zm-236.719 7.688l-193.906 45.97 42.75 71.343 230.156-76.813-79-40.5zm98.625 50.532L80.187 262.466 182.999 434.06l281.75-182.72-146.406-75.03zM512 217.56l-19.218 12.312 19.218 8.688v-21zm-7.093 54.343L217.374 491.435l12.313 20.562h282.312V275.528l-7.093-3.625z" fill="#e6e6e6"/><path d="M217.374 491.435l-4.687 20.562h17l-12.313-20.562z" fill="#323232"/><path d="M392.394 251.169L197.311 372.455l6.307 10.11 196.443-127.467-7.667-3.93m-82.309-39.595c-5.797-3.018-15.737-3.232-30.317-.663-14.994 2.631-33.895 8.038-58.052 16.777-26.67 9.648-48.677 19.328-64.905 28.884-17.76 10.478-25.567 19.052-21.913 25.15 1.476 2.464 4.863 4.04 10.16 4.692 5.338.675 12.53.415 21.486-.773l30.923-13.309c-10.424 2.054-18.803 3.04-24.99 2.929-6.168-.094-10.086-1.27-11.734-3.493-3.15-4.253 1.92-10.246 14.434-17.689 11.757-6.974 29.07-14.653 51.028-22.827 20.23-7.531 35.64-12.207 47.217-14.437 11.337-2.194 19.027-2.072 23.382.376 2.261 1.27 3.087 3.035 2.44 5.322-.645 2.36-2.871 5.319-6.78 8.934l18.864-8.119c2.026-2.763 2.874-5.104 2.597-7.051-.2-1.917-1.488-3.478-3.84-4.703m15.04 14.34l-28.284 12.783-3.887-2.462-14.024 6.2 3.828 2.627-72.059 32.567c-20.087 9.078-34.298 16.603-41.662 22.212-7.594 5.817-9.984 11.296-6.815 16.375l4.412 7.07 26.356-13.137-4.85-6.422c-1.9-2.516-1.088-5.132 2.354-7.84 3.385-2.63 11.857-7.097 24.952-13.202l72.729-33.907 11.756 8.067 14.309-7.132-11.904-7.537 28.39-13.236-5.6-3.027m20.077 40.212c-3.396-2.12-7.844-2.98-13.406-2.609-5.514.335-12.438 1.933-20.925 4.849l17.718-9.567-6.461-4.09-149.65 77.948 4.867 7.8 91.771-49.548c15.799-8.53 28.135-13.935 37.656-16.608 9.397-2.635 15.933-2.617 19.839.054 1.119.764 1.826 1.649 2.12 2.655.391.991.353 2.147-.121 3.474l19.259-11.514a8.722 8.722 0 0 0-1.324-1.655 5.6 5.6 0 0 0-1.343-1.19" style="line-height:125%" font-weight="400" font-family="Sans" letter-spacing="0" word-spacing="0" fill="#1a1a1a"/></svg>