<svg xmlns="http://www.w3.org/2000/svg" width="1110.85" height="978.913"><g fill-rule="evenodd"><path d="M1050.51 913.229H60.34l247.542-428.756L555.425 55.717l247.542 428.756z" stroke="#000" stroke-width="95.7802167" stroke-linecap="round" stroke-linejoin="round"/><path d="M1033.245 903.261H77.605l238.91-413.804 238.91-413.805 238.91 413.805z" fill="#fff" stroke="red" stroke-width="92.44021500000001" stroke-linecap="round" stroke-linejoin="round"/><path d="M458.38 454.643c-3.266 0-24.5 7.426-19.823 14.2 40.309 58.39-46.372 294.466 38.269 361.922h111.51c2.954-4.573-.141-9.751-3.345-13.294-2.244-2.527-4.755-4.817-7.288-7.045 17.74-86.618 11.088-101.692 23.59-94.941 6.43 3.472 15.968 1.973 21.336-3.65 4.332-5.77-1.111-12.605-5.387-16.645-3.449-3.574-8.982-5.398-11.02-10.002-4.017-9.072-5.618-20.524-2.5-29.968 4.977-15.077 12.454-24.724 24.048-35.188 11.857-10.701 30.266-9.667 42.955-24.711 8.652-14.318-10.004-21.654-18.203-29.786-12.137-12.034-43.73-25.989-43.73-25.989-2.563-15.016-15.354-11.145-16.97 1.752-13.485-16.123-27.025-12.281-25.844 8.651-.05 4.04-6.963 32.782-18.027 48.402-16.12 25.613-35.69 46.814-51.863 72.529-31.35 46.877-31.01 76.852-26.407 100.927-.083.046-.163.097-.246.146-.062-.165-.118-.404-.176-.548-8.403-20.822-7.915-43.51 7.112-86.947 47.529-137.392 36.825-229.815-17.992-229.815zm152.665 107.461c2.186-.013 4.596.344 7.077 1.059 7.94 2.289 13.528 7.592 12.464 11.863-1.063 4.27-8.362 5.866-16.302 3.577-7.939-2.289-13.527-7.592-12.464-11.863.732-2.936 4.418-4.618 9.225-4.636z" style="text-indent:0;text-align:start;line-height:normal;text-transform:none;block-progression:tb;marker:none;-inkscape-font-specification:Sans" font-weight="400" color="#000" stroke="#000" stroke-width=".697" overflow="visible" font-family="Sans"/><path d="M588.997 327.019c1.13 0 8.475 2.569 6.858 4.912-13.945 20.2 16.042 101.868-13.24 125.204H544.04c-1.022-1.582.049-3.373 1.157-4.599.776-.874 1.645-1.666 2.521-2.437-6.137-29.965-3.836-35.18-8.16-32.844-2.225 1.201-5.525.683-7.382-1.263-1.498-1.996.385-4.36 1.864-5.758 1.193-1.236 3.107-1.867 3.812-3.46 1.39-3.138 1.944-7.1.865-10.367-1.722-5.216-4.308-8.553-8.319-12.173-4.102-3.702-10.47-3.344-14.86-8.549-2.993-4.953 3.46-7.49 6.297-10.304 4.199-4.163 15.128-8.99 15.128-8.99.887-5.195 5.312-3.856 5.871.606 4.665-5.578 9.349-4.25 8.94 2.992.018 1.398 2.41 11.341 6.237 16.744 5.576 8.861 12.346 16.195 17.941 25.091 10.845 16.217 10.728 26.587 9.135 34.915.03.016.057.034.086.05.021-.057.04-.14.06-.189 2.907-7.203 2.738-15.052-2.46-30.079-16.442-47.529-12.74-79.502 6.224-79.502zm-52.813 37.175c-.756-.005-1.59.119-2.449.366-2.746.792-4.68 2.627-4.311 4.104.368 1.478 2.892 2.03 5.64 1.238 2.746-.792 4.679-2.627 4.31-4.104-.252-1.016-1.527-1.598-3.19-1.604z" style="text-indent:0;text-align:start;line-height:normal;text-transform:none;block-progression:tb;marker:none;-inkscape-font-specification:Sans" font-weight="400" color="#000" stroke="#000" stroke-width=".665" overflow="visible" font-family="Sans"/><g font-weight="400" color="#000" stroke="#000" stroke-width=".764" font-family="Sans"><path d="M806.093 667.554c1.296 0 9.728 2.948 7.871 5.638-16.006 23.187 18.414 116.93-15.196 143.715h-44.28c-1.173-1.815.057-3.872 1.329-5.279.89-1.003 1.888-1.912 2.894-2.797-7.045-34.395-4.403-40.38-9.367-37.7-2.554 1.379-6.341.784-8.473-1.45-1.72-2.29.441-5.005 2.14-6.609 1.369-1.419 3.566-2.144 4.375-3.971 1.595-3.603 2.23-8.15.993-11.9-1.977-5.987-4.946-9.818-9.55-13.973-4.707-4.25-12.018-3.839-17.056-9.813-3.436-5.685 3.972-8.598 7.228-11.827 4.82-4.78 17.365-10.32 17.365-10.32 1.017-5.963 6.096-4.426 6.738.695 5.355-6.402 10.732-4.876 10.263 3.436.02 1.604 2.764 13.017 7.158 19.22 6.4 10.17 14.172 18.589 20.594 28.8 12.448 18.614 12.314 30.517 10.486 40.077.033.018.065.038.098.058.024-.066.046-.16.07-.218 3.336-8.268 3.142-17.277-2.825-34.526-18.873-54.556-14.622-91.257 7.145-91.257zm-60.622 42.671c-.868-.006-1.825.137-2.81.42-3.153.91-5.372 3.016-4.95 4.711.423 1.696 3.32 2.33 6.474 1.42 3.152-.908 5.371-3.014 4.949-4.71-.29-1.166-1.754-1.834-3.663-1.84zM304.757 667.554c-1.296 0-9.728 2.948-7.871 5.638 16.006 23.187-18.414 116.93 15.196 143.715h44.28c1.173-1.815-.057-3.872-1.329-5.279-.89-1.003-1.888-1.912-2.894-2.797 7.045-34.395 4.403-40.38 9.367-37.7 2.554 1.379 6.341.784 8.473-1.45 1.72-2.29-.441-5.005-2.14-6.609-1.369-1.419-3.566-2.144-4.375-3.971-1.595-3.603-2.23-8.15-.993-11.9 1.977-5.987 4.946-9.818 9.55-13.973 4.707-4.25 12.018-3.839 17.056-9.813 3.436-5.685-3.972-8.598-7.228-11.827-4.82-4.78-17.365-10.32-17.365-10.32-1.017-5.963-6.096-4.426-6.739.695-5.354-6.402-10.73-4.876-10.262 3.436-.02 1.604-2.764 13.017-7.158 19.22-6.4 10.17-14.172 18.589-20.594 28.8-12.448 18.614-12.314 30.517-10.486 40.077-.033.018-.065.038-.098.058-.024-.066-.046-.16-.07-.218-3.336-8.268-3.142-17.277 2.825-34.526 18.873-54.556 14.622-91.257-7.145-91.257zm60.622 42.671c.868-.006 1.825.137 2.81.42 3.153.91 5.372 3.016 4.95 4.711-.423 1.696-3.321 2.33-6.474 1.42-3.152-.908-5.371-3.014-4.949-4.71.29-1.166 1.754-1.834 3.663-1.84z" style="text-indent:0;text-align:start;line-height:normal;text-transform:none;block-progression:tb;marker:none;-inkscape-font-specification:Sans" overflow="visible"/></g></g></svg>