<svg xmlns="http://www.w3.org/2000/svg" width="1629.921" height="1133.858"><g fill="none" stroke="#000" stroke-dasharray="1,2"><path d="M400.394 17.717c95.669 0 148.819 63.78 148.819 191.338v21.26H194.882v-21.26c0-127.559 53.15-191.338 148.819-191.338zM194.882 230.315h354.33v354.33h-354.33zM549.213 407.48h283.464l70.866 47.244v129.922h-354.33zM1612.205 407.48H1328.74l-70.866 47.244v129.922h354.33zM194.882 584.646L17.717 673.228v177.166l177.165 88.582zM194.882 584.646h354.33v354.33h-354.33z"/><path d="M549.213 584.646h354.33v354.33h-354.33zM903.543 584.646h354.331v354.33h-354.33zM1257.874 584.646h354.33v354.33h-354.33zM194.882 938.976v177.166h354.33V938.976zM549.213 938.976v141.733h354.33V938.976zM903.543 938.976v177.166h354.331V938.976zM1257.874 938.976v141.733h354.33V938.976z"/></g></svg>