<svg xmlns="http://www.w3.org/2000/svg" xmlns:xlink="http://www.w3.org/1999/xlink" width="191.344" height="197.253"><defs><linearGradient id="b"><stop offset="0" stop-color="#4c4c4c"/><stop offset=".5" stop-color="#fff"/><stop offset="1" stop-color="#2f2f2f"/></linearGradient><linearGradient id="a"><stop offset="0" stop-color="#e07cf7"/><stop offset=".5" stop-color="#4d2855"/><stop offset="1"/></linearGradient><radialGradient xlink:href="#a" id="c" gradientUnits="userSpaceOnUse" gradientTransform="matrix(1.7557 0 0 .9681 -874.853 -26.022)" cx="1157.683" cy="-200.014" fx="1157.683" fy="-200.014" r="95.106"/><radialGradient xlink:href="#a" id="d" gradientUnits="userSpaceOnUse" gradientTransform="matrix(1.7557 0 0 .9681 -874.853 -26.022)" cx="1157.683" cy="-200.014" fx="1157.683" fy="-200.014" r="95.106"/><radialGradient xlink:href="#a" id="e" gradientUnits="userSpaceOnUse" gradientTransform="matrix(1.7557 0 0 .9681 -874.853 -26.022)" cx="1157.683" cy="-200.014" fx="1157.683" fy="-200.014" r="95.106"/><radialGradient xlink:href="#a" id="f" gradientUnits="userSpaceOnUse" gradientTransform="matrix(1.7557 0 0 .9681 -874.853 -26.022)" cx="1157.683" cy="-200.014" fx="1157.683" fy="-200.014" r="95.106"/><radialGradient xlink:href="#b" id="g" gradientUnits="userSpaceOnUse" gradientTransform="matrix(1 0 0 40.90707 0 6337.031)" spreadMethod="reflect" cx="1157.688" cy="-159.797" fx="1157.688" fy="-159.797" r="3.5"/><radialGradient xlink:href="#a" id="h" gradientUnits="userSpaceOnUse" gradientTransform="matrix(1.7557 0 0 .9681 -874.853 -26.022)" cx="1157.683" cy="-200.014" fx="1157.683" fy="-200.014" r="95.106"/><radialGradient xlink:href="#a" id="i" gradientUnits="userSpaceOnUse" gradientTransform="matrix(1.7557 0 0 .9681 -874.853 -26.022)" cx="1157.683" cy="-200.014" fx="1157.683" fy="-200.014" r="95.106"/><radialGradient xlink:href="#a" id="j" gradientUnits="userSpaceOnUse" gradientTransform="matrix(1.7557 0 0 .9681 -874.853 -26.022)" cx="1157.683" cy="-200.014" fx="1157.683" fy="-200.014" r="95.106"/><radialGradient xlink:href="#a" id="k" gradientUnits="userSpaceOnUse" gradientTransform="matrix(1.7557 0 0 .9681 -874.853 -26.022)" cx="1157.683" cy="-200.014" fx="1157.683" fy="-200.014" r="95.106"/><radialGradient xlink:href="#a" id="l" gradientUnits="userSpaceOnUse" gradientTransform="matrix(1.7557 0 0 .9681 -874.853 -26.022)" cx="1157.683" cy="-200.014" fx="1157.683" fy="-200.014" r="95.106"/><radialGradient xlink:href="#a" id="m" gradientUnits="userSpaceOnUse" gradientTransform="matrix(1.7557 0 0 .9681 -874.853 -26.022)" cx="1157.683" cy="-200.014" fx="1157.683" fy="-200.014" r="95.106"/><radialGradient xlink:href="#a" id="n" gradientUnits="userSpaceOnUse" gradientTransform="matrix(1.7557 0 0 .9681 -874.853 -26.022)" cx="1157.683" cy="-200.014" fx="1157.683" fy="-200.014" r="95.106"/><radialGradient xlink:href="#a" id="o" gradientUnits="userSpaceOnUse" gradientTransform="matrix(1.7557 0 0 .9681 -874.853 -26.022)" cx="1157.683" cy="-200.014" fx="1157.683" fy="-200.014" r="95.106"/><radialGradient xlink:href="#a" id="p" gradientUnits="userSpaceOnUse" gradientTransform="matrix(1.7557 0 0 .9681 -874.853 -26.022)" cx="1157.683" cy="-200.014" fx="1157.683" fy="-200.014" r="95.106"/><radialGradient xlink:href="#a" id="q" gradientUnits="userSpaceOnUse" gradientTransform="matrix(1.7557 0 0 .9681 -874.853 -26.022)" cx="1157.683" cy="-200.014" fx="1157.683" fy="-200.014" r="95.106"/><radialGradient xlink:href="#a" id="r" gradientUnits="userSpaceOnUse" gradientTransform="matrix(1.7557 0 0 .9681 -874.853 -26.022)" cx="1157.683" cy="-200.014" fx="1157.683" fy="-200.014" r="95.106"/><radialGradient xlink:href="#a" id="s" gradientUnits="userSpaceOnUse" gradientTransform="matrix(1.7557 0 0 .9681 -874.853 -26.022)" cx="1157.683" cy="-200.014" fx="1157.683" fy="-200.014" r="95.106"/><radialGradient xlink:href="#a" id="t" gradientUnits="userSpaceOnUse" gradientTransform="matrix(1.7557 0 0 .9681 -874.853 -26.022)" cx="1157.683" cy="-200.014" fx="1157.683" fy="-200.014" r="95.106"/><radialGradient xlink:href="#a" id="u" gradientUnits="userSpaceOnUse" gradientTransform="matrix(1.7557 0 0 .9681 -874.853 -26.022)" cx="1157.683" cy="-200.014" fx="1157.683" fy="-200.014" r="95.106"/><linearGradient xlink:href="#a" id="v" gradientUnits="userSpaceOnUse" x1="1160.313" y1="-252.552" x2="1216.461" y2="-252.552"/><linearGradient xlink:href="#a" id="w" gradientUnits="userSpaceOnUse" x1="1098.905" y1="-252.552" x2="1155.053" y2="-252.552"/><linearGradient xlink:href="#a" id="x" gradientUnits="userSpaceOnUse" x1="1116.12" y1="-262.022" x2="1157.683" y2="-262.022"/><linearGradient xlink:href="#a" id="y" gradientUnits="userSpaceOnUse" x1="1157.683" y1="-262.022" x2="1199.246" y2="-262.022"/><linearGradient xlink:href="#a" id="z" gradientUnits="userSpaceOnUse" x1="1157.683" y1="-261.418" x2="1224.933" y2="-261.418"/><linearGradient xlink:href="#a" id="A" gradientUnits="userSpaceOnUse" x1="1161.402" y1="-246.227" x2="1216.461" y2="-246.227"/><linearGradient xlink:href="#a" id="B" gradientUnits="userSpaceOnUse" x1="1199.246" y1="-211.703" x2="1252.789" y2="-211.703"/><linearGradient xlink:href="#a" id="C" gradientUnits="userSpaceOnUse" x1="1062.577" y1="-211.703" x2="1116.12" y2="-211.703"/><linearGradient xlink:href="#a" id="D" gradientUnits="userSpaceOnUse" x1="1062.577" y1="-239.692" x2="1116.12" y2="-239.692"/><linearGradient xlink:href="#a" id="E" gradientUnits="userSpaceOnUse" x1="1090.433" y1="-261.418" x2="1157.683" y2="-261.418"/><linearGradient xlink:href="#a" id="F" gradientUnits="userSpaceOnUse" x1="1199.246" y1="-239.692" x2="1252.789" y2="-239.692"/><linearGradient xlink:href="#a" id="G" gradientUnits="userSpaceOnUse" x1="1216.461" y1="-229.001" x2="1252.789" y2="-229.001"/><linearGradient xlink:href="#a" id="H" gradientUnits="userSpaceOnUse" x1="1157.683" y1="-230.431" x2="1199.246" y2="-230.431"/><linearGradient xlink:href="#a" id="I" gradientUnits="userSpaceOnUse" x1="1116.12" y1="-230.431" x2="1157.683" y2="-230.431"/><linearGradient xlink:href="#a" id="J" gradientUnits="userSpaceOnUse" x1="1157.683" y1="-193.848" x2="1224.933" y2="-193.848"/><linearGradient xlink:href="#a" id="K" gradientUnits="userSpaceOnUse" x1="1090.433" y1="-193.848" x2="1157.683" y2="-193.848"/><linearGradient xlink:href="#a" id="L" gradientUnits="userSpaceOnUse" x1="1160.313" y1="-235.536" x2="1216.461" y2="-235.536"/><linearGradient xlink:href="#a" id="M" gradientUnits="userSpaceOnUse" x1="1098.905" y1="-235.536" x2="1155.053" y2="-235.536"/></defs><path style="text-indent:0;text-align:start;line-height:normal;text-transform:none;block-progression:tb;marker:none;-inkscape-font-specification:Sans" d="M100.5 158.094c-.79 1.223-2.375 3.562-4.375 3.562-2.39 0-4.365-.792-4.844-2.406-.12 3.992-.306 8.82.063 13.438.553 6.918 1.651 15.383 7.469 20.312 5.956 5.045 15.417 6.265 22.813 0 5.882-4.983 6.643-13.532 6.937-20.469.097-.779.109-1.6.063-2.406-.56.99-2.305 1.719-4.375 1.719-2.165 0-3.967-.785-4.438-1.844-.157.984-.173 1.804-.187 2.156-.13 3.05-.576 6.266-1.281 8.875-.705 2.61-1.8 4.589-2.469 5.156-2.195 1.86-4.147 2.438-5.969 2.344-1.821-.094-3.633-.921-5.312-2.344-.715-.605-1.864-2.644-2.657-5.28-.792-2.637-.88-5.847-1.125-8.907-.26-3.26-.383-9.994-.312-13.906z" font-weight="400" color="#000" fill="#595900" overflow="visible" font-family="Sans"/><path d="M1160.313-251.944l38.933-11.299 17.216 21.381-55.06-8.73-1.09-1.352" fill="url(#c)" transform="translate(-1061.844 272.719)"/><path d="M1153.964-250.592l-55.06 8.73 17.216-21.38 38.933 11.298-1.089 1.352" fill="url(#d)" transform="translate(-1061.844 272.719)"/><path d="M1155.053-251.944l-38.933-11.299 41.563-8.856v19.594l-2.63.56" fill="url(#e)" transform="translate(-1061.844 272.719)"/><path d="M1157.683-252.505v-19.594l41.563 8.856-38.933 11.299-2.63-.56" fill="url(#f)" transform="translate(-1061.844 272.719)"/><path style="text-indent:0;text-align:start;line-height:normal;text-transform:none;block-progression:tb;marker:none;-inkscape-font-specification:Sans" d="M100.464 158.259c-1.108.543-2.47 3.28-3.964 3.366a2.703 2.703 0 0 1-.313.031c.026 3.681.067 6.976.47 10.438 1.202 10.357 6.016 21.636 16.25 15.937a7.086 7.086 0 0 1-3 .5c-1.822-.094-3.634-.92-5.313-2.343-.715-.606-1.864-2.645-2.656-5.282-3.104-6.898-2.262-13.785-2.263-21.132z" font-weight="400" color="#000" fill="olive" overflow="visible" font-family="Sans"/><path style="marker:none" d="M100.578 158.501c0 1.973-2.106 3.572-4.705 3.572s-4.706-1.599-4.706-3.572c0-1.972 2.107-3.572 4.706-3.572s4.705 1.6 4.705 3.572z" color="#000" fill="#969600" overflow="visible"/><path style="text-indent:0;text-align:start;line-height:normal;text-transform:none;block-progression:tb;marker:none;-inkscape-font-specification:Sans" d="M1161.188-253.344c-.408.458-1.21.79-2.188.969-.09.02-.187.046-.281.063a6.492 6.492 0 0 1-1.094.093c-.269 0-.531-.032-.781-.062a7.018 7.018 0 0 1-.469-.063c-.969-.158-1.741-.474-2.188-.906v139.562c0 .866 1.568 1.97 3.5 1.97 1.933 0 3.5-1.104 3.5-1.97v-139.656z" font-weight="400" color="#000" fill="url(#g)" overflow="visible" font-family="Sans" transform="translate(-1061.844 272.719)"/><path d="M1157.683-265.066v-7.033l41.563 8.856 25.687 12.507-67.25-14.33" fill="url(#h)" transform="translate(-1061.844 272.719)"/><path d="M1161.402-250.592l55.06 8.73-55.06-8.73" fill="url(#i)" transform="translate(-1061.844 272.719)"/><path d="M1252.789-216.14l-36.327-25.722-17.216 21.382 25.687 38.935 27.856-34.595" fill="url(#j)" transform="translate(-1061.844 272.719)"/><path d="M1090.433-181.545l25.687-38.935-17.215-21.382-36.328 25.722 27.856 34.595" fill="url(#k)" transform="translate(-1061.844 272.719)"/><path d="M1062.577-216.14l36.327-25.722 17.216-21.38-25.687 12.506-27.856 34.596" fill="url(#l)" transform="translate(-1061.844 272.719)"/><path d="M1090.433-250.736l25.687-12.507 41.563-8.856v7.033l-67.25 14.33" fill="url(#m)" transform="translate(-1061.844 272.719)"/><path d="M1224.933-250.736l-25.687-12.507 17.216 21.381 36.327 25.722-27.856-34.596" fill="url(#n)" transform="translate(-1061.844 272.719)"/><path d="M1252.789-216.14l-36.327-25.722 36.327 25.722" fill="url(#o)" transform="translate(-1061.844 272.719)"/><path d="M1160.313-249.239l38.933 28.759-41.563 8.856v-37.055l2.63-.56" fill="url(#p)" transform="translate(-1061.844 272.719)"/><path d="M1157.683-248.679v37.055l-41.563-8.856 38.933-28.759 2.63.56" fill="url(#q)" transform="translate(-1061.844 272.719)"/><path d="M1224.933-181.545l-25.687-38.935-41.563 8.856v44.409l67.25-14.33" fill="url(#r)" transform="translate(-1061.844 272.719)"/><path d="M1157.683-167.215v-44.409l-41.563-8.856-25.687 38.935 67.25 14.33" fill="url(#s)" transform="translate(-1061.844 272.719)"/><path d="M1161.402-250.592l55.06 8.73-17.216 21.382-38.933-28.759 1.089-1.353" fill="url(#t)" transform="translate(-1061.844 272.719)"/><path d="M1155.053-249.239l-38.933 28.759-17.215-21.382 55.06-8.73 1.088 1.353" fill="url(#u)" transform="translate(-1061.844 272.719)"/><g stroke="#703c7c"><path d="M1160.313-251.944l38.933-11.299 17.216 21.381-55.06-8.73-1.09-1.352" opacity=".161" fill="url(#v)" transform="translate(-1061.844 272.719)"/><path d="M1153.964-250.592l-55.06 8.73 17.216-21.38 38.933 11.298-1.089 1.352" opacity=".161" fill="url(#w)" transform="translate(-1061.844 272.719)"/><path d="M1155.053-251.944l-38.933-11.299 41.563-8.856v19.594l-2.63.56" opacity=".161" fill="url(#x)" transform="translate(-1061.844 272.719)"/><path d="M1157.683-252.505v-19.594l41.563 8.856-38.933 11.299-2.63-.56" opacity=".161" fill="url(#y)" transform="translate(-1061.844 272.719)"/><path d="M1157.683-265.066v-7.033l41.563 8.856 25.687 12.507-67.25-14.33" opacity=".161" fill="url(#z)" transform="translate(-1061.844 272.719)"/><path d="M1161.402-250.592l55.06 8.73h0l-55.06-8.73h0" opacity=".161" fill="url(#A)" transform="translate(-1061.844 272.719)"/><path d="M1252.789-216.14l-36.327-25.722-17.216 21.382 25.687 38.935 27.856-34.595" opacity=".161" fill="url(#B)" transform="translate(-1061.844 272.719)"/><path d="M1090.433-181.545l25.687-38.935-17.215-21.382-36.328 25.722 27.856 34.595" opacity=".161" fill="url(#C)" transform="translate(-1061.844 272.719)"/><path d="M1062.577-216.14l36.327-25.722 17.216-21.38-25.687 12.506-27.856 34.596" opacity=".161" fill="url(#D)" transform="translate(-1061.844 272.719)"/><path d="M1090.433-250.736l25.687-12.507 41.563-8.856v7.033l-67.25 14.33" opacity=".161" fill="url(#E)" transform="translate(-1061.844 272.719)"/><path d="M1224.933-250.736l-25.687-12.507 17.216 21.381 36.327 25.722-27.856-34.596" opacity=".161" fill="url(#F)" transform="translate(-1061.844 272.719)"/><path d="M1252.789-216.14l-36.327-25.722h0l36.327 25.722h0" opacity=".161" fill="url(#G)" transform="translate(-1061.844 272.719)"/><path d="M1160.313-249.239l38.933 28.759-41.563 8.856v-37.055l2.63-.56" opacity=".161" fill="url(#H)" transform="translate(-1061.844 272.719)"/><path d="M1157.683-248.679v37.055l-41.563-8.856 38.933-28.759 2.63.56" opacity=".161" fill="url(#I)" transform="translate(-1061.844 272.719)"/><path d="M1224.933-181.545l-25.687-38.935-41.563 8.856v44.409l67.25-14.33" opacity=".161" fill="url(#J)" transform="translate(-1061.844 272.719)"/><path d="M1157.683-167.215v-44.409l-41.563-8.856-25.687 38.935 67.25 14.33" opacity=".161" fill="url(#K)" transform="translate(-1061.844 272.719)"/><path d="M1161.402-250.592l55.06 8.73-17.216 21.382-38.933-28.759 1.089-1.353" opacity=".161" fill="url(#L)" transform="translate(-1061.844 272.719)"/><path d="M1155.053-249.239l-38.933 28.759-17.215-21.382 55.06-8.73 1.088 1.353" opacity=".161" fill="url(#M)" transform="translate(-1061.844 272.719)"/></g><path d="M128.717 170.435a4.453 3.38 0 1 1-8.906 0 4.453 3.38 0 1 1 8.906 0z" style="marker:none" color="#000" fill="olive" overflow="visible"/><path style="marker:none" d="M99.29 19.382c0 1.013-1.566 1.833-3.499 1.833s-3.5-.82-3.5-1.833c0-1.012 1.567-1.833 3.5-1.833s3.5.82 3.5 1.833z" color="#000" fill="#fff" overflow="visible"/><path style="marker:none" d="M120.156 170.813c-.002.032 0 .06 0 .093 0 1.304 1.83 2.344 4.094 2.344 2.264 0 4.125-1.04 4.125-2.344 0-.033.003-.06 0-.094-.683 1.202-2.292 2.032-4.125 2.032-1.833 0-3.411-.83-4.094-2.031z" color="#000" fill="#949400" overflow="visible"/><path style="marker:none" d="M97.875 162.375l-.781.25s-.991 12.419 3.344 19.156c.229.357.464.665.687.969-1.443-3.125-2.35-6.943-2.781-10.656-.375-3.231-.442-6.33-.469-9.719z" color="#000" fill="#969600" overflow="visible"/><path style="marker:none" d="M120.57 173.108c-.07 5.048-.746 11.023-3.955 14.99.292-.265.573-.55.853-.844a14.944 14.944 0 0 0 1.743-2.228c2.098-3.25 2.881-7.14 3.1-11.046-.56.084-1.245-.705-1.74-.872z" color="#000" fill="olive" overflow="visible"/></svg>