<svg viewBox="0 0 248 248" xmlns="http://www.w3.org/2000/svg" xmlns:xlink="http://www.w3.org/1999/xlink"><defs><linearGradient id="a"><stop stop-color="#0a062b" offset="0"/><stop stop-color="#6c6a7d" stop-opacity=".496" offset=".347"/><stop stop-color="#fff" stop-opacity=".817" offset=".694"/><stop stop-color="#fff" offset="1"/></linearGradient><radialGradient id="b" cx="473.55" cy="576.51" r="108.85" gradientTransform="translate(-65.921 -86.254) scale(1.1392)" gradientUnits="userSpaceOnUse"><stop stop-color="#0aa8ff" offset="0"/><stop offset="1"/></radialGradient><linearGradient id="G" x1="397.65" x2="431.71" y1="520.9" y2="520.9" gradientTransform="rotate(90 414.68 520.9)" gradientUnits="userSpaceOnUse" xlink:href="#a"/><linearGradient id="I" x1="298.87" x2="397.65" y1="470.76" y2="536.83" gradientUnits="userSpaceOnUse" xlink:href="#a"/><linearGradient id="J" x1="398.42" x2="397.31" y1="446.51" y2="553.82" gradientUnits="userSpaceOnUse" xlink:href="#a"/><linearGradient id="K" x1="309.88" x2="426.95" y1="471.83" y2="556.29" gradientTransform="rotate(90 400.2 536.83)" gradientUnits="userSpaceOnUse" xlink:href="#a"/><linearGradient id="M" x1="472.26" x2="577.71" y1="571.23" y2="543.51" gradientUnits="userSpaceOnUse" xlink:href="#a"/><linearGradient id="N" x1="467.33" x2="577.71" y1="556.29" y2="545.1" gradientTransform="rotate(90 573.583 545.117)" gradientUnits="userSpaceOnUse" xlink:href="#a"/><linearGradient id="O" x1="373.17" x2="432.83" y1="584.64" y2="585.08" gradientTransform="rotate(90 410.93 585.08)" gradientUnits="userSpaceOnUse" xlink:href="#a"/><linearGradient id="P" x1="373.17" x2="432.83" y1="595.81" y2="585.08" gradientTransform="rotate(90 410.93 585.08)" gradientUnits="userSpaceOnUse" xlink:href="#a"/><linearGradient id="Q" x1="482.69" x2="586.93" y1="615" y2="467.73" gradientTransform="rotate(90 558.243 527.356)" gradientUnits="userSpaceOnUse" xlink:href="#a"/><linearGradient id="R" x1="359.73" x2="411.37" y1="555.53" y2="552.98" gradientUnits="userSpaceOnUse" xlink:href="#a"/><linearGradient id="S" x1="492.09" x2="531.98" y1="696.14" y2="623.36" gradientTransform="rotate(90 505.625 623.375)" gradientUnits="userSpaceOnUse" xlink:href="#a"/><linearGradient id="W" x1="530.88" x2="577.72" y1="446.51" y2="561.48" gradientUnits="userSpaceOnUse" xlink:href="#a"/><linearGradient id="X" x1="469.55" x2="600.09" y1="580.25" y2="565.67" gradientUnits="userSpaceOnUse" xlink:href="#a"/><linearGradient id="Y" x1="332.28" x2="464.84" y1="516.9" y2="552.34" gradientTransform="rotate(90 438.11 552.34)" gradientUnits="userSpaceOnUse" xlink:href="#a"/><linearGradient id="Z" x1="372.98" x2="429.59" y1="551.75" y2="552.98" gradientUnits="userSpaceOnUse" xlink:href="#a"/><linearGradient id="ab" x1="473.55" x2="461.87" y1="446.51" y2="568.81" gradientUnits="userSpaceOnUse" xlink:href="#a"/><linearGradient id="av" x1="497.43" x2="560.81" y1="477.79" y2="538.85" gradientTransform="matrix(0 -.60832 .60832 0 188.78 871.17)" gradientUnits="userSpaceOnUse" xlink:href="#a" spreadMethod="reflect"/><linearGradient id="ac" x1="445.9" x2="560.81" y1="614.62" y2="544.39" gradientTransform="rotate(90 543.793 544.407)" gradientUnits="userSpaceOnUse" xlink:href="#a"/><linearGradient id="af" x1="397.02" x2="464.84" y1="569.37" y2="562.71" gradientUnits="userSpaceOnUse" xlink:href="#a"/><linearGradient id="ag" x1="478.53" x2="557.15" y1="605.93" y2="558.79" gradientUnits="userSpaceOnUse" xlink:href="#a"/><linearGradient id="ah" x1="488.67" x2="536.13" y1="573.52" y2="562.78" gradientTransform="rotate(90 533.251 590.649)" gradientUnits="userSpaceOnUse" xlink:href="#a"/><linearGradient id="ai" x1="385.74" x2="526.74" y1="600.85" y2="556.56" gradientTransform="rotate(90 495.816 556.584)" gradientUnits="userSpaceOnUse" xlink:href="#a"/><linearGradient id="al" x1="496.51" x2="536.59" y1="446.51" y2="571.99" gradientUnits="userSpaceOnUse" xlink:href="#a"/><linearGradient id="am" x1="468.07" x2="536.59" y1="565.45" y2="558.79" gradientUnits="userSpaceOnUse" xlink:href="#a"/><linearGradient id="an" x1="419.72" x2="499.23" y1="569.7" y2="562.71" gradientUnits="userSpaceOnUse" xlink:href="#a"/><linearGradient id="ao" x1="441.93" x2="499.23" y1="587.5" y2="604.15" gradientTransform="rotate(90 480.54 594.86)" gradientUnits="userSpaceOnUse" xlink:href="#a"/><linearGradient id="F" x1="431.71" x2="493.61" y1="513.88" y2="513.88" gradientTransform="rotate(90 462.663 513.877)" gradientUnits="userSpaceOnUse" xlink:href="#a"/><linearGradient id="H" x1="493.61" x2="547.09" y1="515.47" y2="515.47" gradientTransform="rotate(90 520.342 515.458)" gradientUnits="userSpaceOnUse" xlink:href="#a"/><linearGradient id="aq" x1="479.23" x2="547.09" y1="519.51" y2="519.51" gradientTransform="matrix(0 -.60832 .60832 0 201.26 844.97)" gradientUnits="userSpaceOnUse" xlink:href="#a" spreadMethod="reflect"/><linearGradient id="at" x1="479.23" x2="560.81" y1="525.78" y2="525.78" gradientTransform="matrix(0 -.60832 .60832 0 201.85 858.1)" gradientUnits="userSpaceOnUse" xlink:href="#a" spreadMethod="reflect"/><linearGradient id="au" x1="458.39" x2="526.74" y1="736.13" y2="540.63" gradientTransform="rotate(-90 505.75 342.97) scale(.60832)" gradientUnits="userSpaceOnUse" xlink:href="#a" spreadMethod="reflect"/><linearGradient id="as" x1="369.15" x2="526.74" y1="689.75" y2="540.63" gradientTransform="rotate(-90 505.75 342.97) scale(.60832)" gradientUnits="userSpaceOnUse" xlink:href="#a" spreadMethod="reflect"/><linearGradient id="ar" x1="383.24" x2="533.79" y1="204.22" y2="546.5" gradientTransform="rotate(-90 505.75 342.97) scale(.60832)" gradientUnits="userSpaceOnUse" xlink:href="#a" spreadMethod="reflect"/><linearGradient id="ap" x1="464.84" x2="526.74" y1="540.63" y2="540.63" gradientTransform="rotate(-90 505.75 342.97) scale(.60832)" gradientUnits="userSpaceOnUse" xlink:href="#a" spreadMethod="reflect"/><linearGradient id="aw" x1="441.36" x2="526.16" y1="450.22" y2="545.91" gradientTransform="rotate(-90 505.75 342.97) scale(.60832)" gradientUnits="userSpaceOnUse" xlink:href="#a" spreadMethod="reflect"/><linearGradient id="aj" x1="465.59" x2="558.53" y1="547.43" y2="548.74" gradientTransform="rotate(-90 505.75 342.97) scale(.60832)" gradientUnits="userSpaceOnUse" xlink:href="#a" spreadMethod="reflect"/><linearGradient id="ak" x1="428.05" x2="499.23" y1="596.18" y2="594.86" gradientTransform="rotate(90 480.54 594.86)" gradientUnits="userSpaceOnUse" xlink:href="#a"/><linearGradient id="aa" x1="412.03" x2="499.23" y1="677.76" y2="594.86" gradientTransform="rotate(90 480.54 594.86)" gradientUnits="userSpaceOnUse" xlink:href="#a"/><linearGradient id="V" x1="417.47" x2="488.37" y1="606.18" y2="607.1" gradientTransform="rotate(90 480.54 594.86)" gradientUnits="userSpaceOnUse" xlink:href="#a"/><linearGradient id="ae" x1="442.24" x2="505.3" y1="610.56" y2="618.79" gradientTransform="rotate(90 480.54 594.86)" gradientUnits="userSpaceOnUse" xlink:href="#a"/><linearGradient id="ad" x1="467.63" x2="558.53" y1="534.47" y2="543.84" gradientTransform="rotate(-90 505.75 342.97) scale(.60832)" gradientUnits="userSpaceOnUse" xlink:href="#a" spreadMethod="reflect"/><linearGradient id="U" x1="490.67" x2="591.32" y1="536.43" y2="549.43" gradientTransform="rotate(-90 505.75 342.97) scale(.60832)" gradientUnits="userSpaceOnUse" xlink:href="#a" spreadMethod="reflect"/><linearGradient id="L" x1="424.21" x2="526.74" y1="648.28" y2="540.63" gradientTransform="rotate(-90 505.75 342.97) scale(.60832)" gradientUnits="userSpaceOnUse" xlink:href="#a" spreadMethod="reflect"/><linearGradient id="T" x1="431.38" x2="526.74" y1="539.45" y2="540.63" gradientTransform="rotate(-90 505.75 342.97) scale(.60832)" gradientUnits="userSpaceOnUse" xlink:href="#a" spreadMethod="reflect"/><linearGradient id="E" x1="129.94" x2="175.67" y1="37.637" y2="37.637" gradientTransform="translate(402.04 539.42)" gradientUnits="userSpaceOnUse" xlink:href="#a"/><linearGradient id="D" x1="77.188" x2="129.94" y1="78.621" y2="78.621" gradientTransform="translate(402.04 539.42)" gradientUnits="userSpaceOnUse" xlink:href="#a"/><linearGradient id="C" x1="-21.293" x2="27.948" y1="32.576" y2="32.576" gradientTransform="translate(402.04 539.42)" gradientUnits="userSpaceOnUse" xlink:href="#a"/><linearGradient id="B" x1="145.05" x2="167.39" y1="-12.051" y2="-12.051" gradientTransform="translate(402.04 539.42)" gradientUnits="userSpaceOnUse" xlink:href="#a"/><linearGradient id="A" x1="159.1" x2="167.39" y1="2.407" y2="2.407" gradientTransform="translate(402.04 539.42)" gradientUnits="userSpaceOnUse" xlink:href="#a"/><linearGradient id="z" x1="120.84" x2="167.39" y1="37.637" y2="37.637" gradientTransform="translate(402.04 539.42)" gradientUnits="userSpaceOnUse" xlink:href="#a"/><linearGradient id="y" x1="120.84" x2="167.39" y1="24.19" y2="24.19" gradientTransform="translate(402.04 539.42)" gradientUnits="userSpaceOnUse" xlink:href="#a"/><linearGradient id="x" x1="27.948" x2="77.188" y1="81.832" y2="81.832" gradientTransform="translate(402.04 539.42)" gradientUnits="userSpaceOnUse" xlink:href="#a"/><linearGradient id="w" x1="-21.293" x2="-.731" y1="-4.126" y2="-4.126" gradientTransform="translate(402.04 539.42)" gradientUnits="userSpaceOnUse" xlink:href="#a"/><linearGradient id="v" x1="77.188" x2="120.84" y1="76.583" y2="76.583" gradientTransform="translate(402.04 539.42)" gradientUnits="userSpaceOnUse" xlink:href="#a"/><linearGradient id="u" x1="-.731" x2="48.509" y1="31.697" y2="31.697" gradientTransform="translate(402.04 539.42)" gradientUnits="userSpaceOnUse" xlink:href="#a"/><linearGradient id="t" x1="-21.293" x2="27.948" y1="31.697" y2="31.697" gradientTransform="translate(402.04 539.42)" gradientUnits="userSpaceOnUse" xlink:href="#a"/><linearGradient id="s" x1="27.948" x2="77.188" y1="77.655" y2="77.655" gradientTransform="translate(402.04 539.42)" gradientUnits="userSpaceOnUse" xlink:href="#a"/><linearGradient id="r" x1="120.84" x2="159.1" y1="24.19" y2="24.19" gradientTransform="translate(402.04 539.42)" gradientUnits="userSpaceOnUse" xlink:href="#a"/><linearGradient id="q" x1="126.83" x2="159.1" y1="-13.588" y2="-13.588" gradientTransform="translate(402.04 539.42)" gradientUnits="userSpaceOnUse" xlink:href="#a"/><linearGradient id="p" x1="48.509" x2="85.87" y1="76.583" y2="76.583" gradientTransform="translate(402.04 539.42)" gradientUnits="userSpaceOnUse" xlink:href="#a"/><linearGradient id="o" x1="91.573" x2="126.83" y1="-23.319" y2="-23.319" gradientTransform="translate(402.04 539.42)" gradientUnits="userSpaceOnUse" xlink:href="#a"/><linearGradient id="n" x1="94.55" x2="159.11" y1="-10.958" y2="-10.958" gradientTransform="translate(402.04 539.42)" gradientUnits="userSpaceOnUse" xlink:href="#a"/><linearGradient id="m" x1="85.87" x2="126.83" y1="24.827" y2="24.827" gradientTransform="translate(402.04 539.42)" gradientUnits="userSpaceOnUse" xlink:href="#a"/><linearGradient id="l" x1="85.87" x2="126.83" y1="16.83" y2="16.83" gradientTransform="translate(402.04 539.42)" gradientUnits="userSpaceOnUse" xlink:href="#a"/><linearGradient id="k" x1="-21.294" x2="19.831" y1="-3.63" y2="-3.63" gradientTransform="translate(402.04 539.42)" gradientUnits="userSpaceOnUse" xlink:href="#a"/><linearGradient id="j" x1="-.731" x2="48.509" y1="20.046" y2="20.046" gradientTransform="translate(402.04 539.42)" gradientUnits="userSpaceOnUse" xlink:href="#a"/><linearGradient id="i" x1="-.731" x2="29.672" y1="-18.52" y2="-18.52" gradientTransform="translate(402.04 539.42)" gradientUnits="userSpaceOnUse" xlink:href="#a"/><linearGradient id="h" x1="19.83" x2="57.191" y1="-19.399" y2="-19.399" gradientTransform="translate(402.04 539.42)" gradientUnits="userSpaceOnUse" xlink:href="#a"/><linearGradient id="g" x1="48.509" x2="85.87" y1="22.271" y2="22.271" gradientTransform="translate(402.04 539.42)" gradientUnits="userSpaceOnUse" xlink:href="#a"/><linearGradient id="f" x1="19.83" x2="57.191" y1="20.046" y2="20.046" gradientTransform="translate(402.04 539.42)" gradientUnits="userSpaceOnUse" xlink:href="#a"/><linearGradient id="e" x1="19.831" x2="94.55" y1="-14.13" y2="-14.13" gradientTransform="translate(402.04 539.42)" gradientUnits="userSpaceOnUse" xlink:href="#a"/><linearGradient id="d" x1="57.191" x2="94.553" y1="16.83" y2="16.83" gradientTransform="translate(402.04 539.42)" gradientUnits="userSpaceOnUse" xlink:href="#a"/><linearGradient id="c" x1="57.191" x2="94.553" y1="-23.319" y2="-23.319" gradientTransform="translate(402.04 539.42)" gradientUnits="userSpaceOnUse" xlink:href="#a"/></defs><path d="M382.9 446.51h181.3c18.476 0 33.351 14.875 33.351 33.351v181.3c0 18.476-14.875 33.351-33.351 33.351H382.9c-18.476 0-33.351-14.875-33.351-33.351v-181.3c0-18.476 14.875-33.351 33.351-33.351z" color="#000" fill="url(#b)" transform="translate(-349.55 -446.51)"/><path d="M496.59 523.25l-37.361-4.451 34.382-9.845z" fill="url(#c)" opacity=".586" transform="translate(-349.55 -446.51)"/><path d="M496.59 523.05l-8.682 66.398-28.68-57.659z" fill="url(#d)" opacity=".586" transform="translate(-349.55 -446.51)"/><path d="M459.25 518.81l-36.844 8.594 36.844 4.375 36.812-8.594-36.812-4.375zm36.812 4.375l.531.063v-.188l-.531.125zm-73.656 4.219l-.531-.063v.188l.531-.125z" fill="url(#e)" opacity=".586" transform="translate(-349.55 -446.51)"/><path d="M459.23 531.79l-8.682 59.803-28.68-64.254z" fill="url(#f)" opacity=".586" transform="translate(-349.55 -446.51)"/><path d="M459.23 531.79l28.679 57.659-37.361 2.144z" fill="url(#g)" opacity=".586" transform="translate(-349.55 -446.51)"/><path d="M459.23 518.8l-37.361 8.739 9.842-15.032z" fill="url(#h)" opacity=".586" transform="translate(-349.55 -446.51)"/><path d="M421.87 527.54l-20.562 1.758 30.403-16.79z" fill="url(#i)" opacity=".586" transform="translate(-349.55 -446.51)"/><path d="M421.87 527.34l28.679 64.254-49.24-49.306z" fill="url(#j)" opacity=".586" transform="translate(-349.55 -446.51)"/><path d="M421.87 527.34l-.281.219.281-.031v-.188zm-.281.219l-20.281 1.75-20.281 14.719 20.28-1.75 20.282-14.72zm-40.562 16.469l-.281.031v.187l.28-.218z" fill="url(#k)" opacity=".586" transform="translate(-349.55 -446.51)"/><path d="M528.87 534.97l-40.958 54.481 8.682-66.398z" fill="url(#l)" opacity=".586" transform="translate(-349.55 -446.51)"/><path d="M528.87 534.97l-5.99 58.558-34.968-4.076z" fill="url(#m)" opacity=".586" transform="translate(-349.55 -446.51)"/><path d="M528.87 521.96l-31.812 1.25 31.812 11.75 31.75-1.25-31.75-11.75zm31.75 11.75l.531.188v-.22l-.531.032zm-63.562-10.5l-.469-.156v.187l.469-.03z" fill="url(#n)" opacity=".586" transform="translate(-349.55 -446.51)"/><path d="M528.87 521.98l-32.275 1.273-2.98-14.296z" fill="url(#o)" opacity=".586" transform="translate(-349.55 -446.51)"/><path d="M487.91 589.45l-8.682 53.108-28.68-50.965z" fill="url(#p)" opacity=".586" transform="translate(-349.55 -446.51)"/><path d="M561.14 533.89l-32.275-11.917 18.22-4.206z" fill="url(#q)" opacity=".586" transform="translate(-349.55 -446.51)"/><path d="M561.14 533.7l-38.265 59.831 5.99-58.558z" fill="url(#r)" opacity=".586" transform="translate(-349.55 -446.51)"/><path d="M450.55 591.59l28.679 50.965-49.24-42.611z" fill="url(#s)" opacity=".586" transform="translate(-349.55 -446.51)"/><path d="M401.31 542.29l28.679 57.659-49.24-55.901z" fill="url(#t)" opacity=".586" transform="translate(-349.55 -446.51)"/><path d="M401.31 542.29l49.24 49.306-20.562 8.353z" fill="url(#u)" opacity=".586" transform="translate(-349.55 -446.51)"/><path d="M522.88 593.53l-43.65 49.032 8.682-53.108z" fill="url(#v)" opacity=".586" transform="translate(-349.55 -446.51)"/><path d="M401.31 529.3l-20.562 14.948 16.898-17.898z" fill="url(#w)" opacity=".586" transform="translate(-349.55 -446.51)"/><path d="M429.99 599.95l49.24 42.611-46.401-32.713z" fill="url(#x)" opacity=".586" transform="translate(-349.55 -446.51)"/><path d="M569.43 549.96l-46.548 43.566 38.265-59.831z" fill="url(#y)" opacity=".586" transform="translate(-349.55 -446.51)"/><path d="M569.43 549.96l-37.442 54.196-9.106-10.63z" fill="url(#z)" opacity=".586" transform="translate(-349.55 -446.51)"/><path d="M569.43 549.96l-8.283-16.265v.198l8.283 3.075z" fill="url(#A)" opacity=".586" transform="translate(-349.55 -446.51)"/><path d="M569.43 536.97l-8.283-3.075-14.055-16.122z" fill="url(#B)" opacity=".586" transform="translate(-349.55 -446.51)"/><path d="M380.75 544.05l49.24 55.901-40.958-39.636z" fill="url(#C)" opacity=".586" transform="translate(-349.55 -446.51)"/><path d="M531.98 604.16l-52.756 38.402 43.65-49.032z" fill="url(#D)" opacity=".586" transform="translate(-349.55 -446.51)"/><path d="M577.71 553.04l-45.725 51.121 37.442-54.196z" fill="url(#E)" opacity=".586" transform="translate(-349.55 -446.51)"/><path d="M493.61 508.95l-34.382 9.845-27.52-6.293z" fill="url(#F)" transform="translate(-349.55 -446.51)"/><path d="M431.71 512.51l-30.403 16.79-3.664-2.95z" fill="url(#G)" transform="translate(-349.55 -446.51)"/><path d="M547.09 517.77l-18.22 4.206-35.255-13.023z" fill="url(#H)" transform="translate(-349.55 -446.51)"/><path d="M380.75 544.25l8.283 3.075 8.615-20.973z" fill="url(#I)" transform="translate(-349.55 -446.51)"/><path d="M380.75 544.06v.188l.125.03-.125-.218zm.125.219l8.156 16.03 8.156 3.063-8.156-16.062-8.156-3.031zm16.312 19.094l.125.218v-.187l-.125-.031z" fill="url(#J)" opacity=".772" transform="translate(-349.55 -446.51)"/><path d="M397.65 526.35l-8.615 20.973 22.338-4.952z" fill="url(#K)" transform="translate(-349.55 -446.51)"/><path d="M432.83 609.85l46.401 32.713-10.92-26.862z" color="#000" fill="url(#L)" transform="translate(-349.55 -446.51)"/><path d="M577.71 553.23l-8.283-16.265-8.615-3.176z" fill="url(#M)" transform="translate(-349.55 -446.51)"/><path d="M577.71 553.04l-8.283-3.075v-12.992l8.283 16.265z" fill="url(#N)" transform="translate(-349.55 -446.51)"/><path d="M389.03 560.31l43.797 49.535-35.514-46.46z" fill="url(#O)" transform="translate(-349.55 -446.51)"/><path d="M389.03 560.31l40.958 39.636 2.84 9.899z" fill="url(#P)" transform="translate(-349.55 -446.51)"/><path d="M560.81 533.79l8.615 3.176-22.338-19.197z" fill="url(#Q)" transform="translate(-349.55 -446.51)"/><path d="M389.03 547.32l8.283 16.265 14.055-21.217z" fill="url(#R)" transform="translate(-349.55 -446.51)"/><path d="M509.38 613.34l-30.152 29.219 52.756-38.402z" fill="url(#S)" transform="translate(-349.55 -446.51)"/><g color="#000"><path d="M468.31 615.7l10.92 26.862 30.152-29.219z" fill="url(#T)" transform="translate(-349.55 -446.51)"/><path d="M557.15 567.98l-47.767 45.356 22.604-9.183z" fill="url(#U)" transform="translate(-349.55 -446.51)"/><path d="M557.15 567.98l-25.164 36.173 45.725-51.121z" fill="url(#V)" transform="translate(-349.55 -446.51)"/></g><path d="M577.72 553.03l-.344.25.344-.031v-.219zm-.344.25l-20.219 1.719-20.28 14.719 20.28-1.719 20.22-14.719zm-40.5 16.438l-.281.031v.188l.281-.22z" fill="url(#W)" opacity=".772" transform="translate(-349.55 -446.51)"/><path d="M557.15 554.99l20.562-1.758-16.898-19.441z" fill="url(#X)" transform="translate(-349.55 -446.51)"/><path d="M411.37 542.37l18.22 19.944 35.255-11.126z" fill="url(#Y)" transform="translate(-349.55 -446.51)"/><path d="M397.31 563.58l32.275-1.273-18.22-19.944z" fill="url(#Z)" transform="translate(-349.55 -446.51)"/><path d="M397.31 563.39l35.514 46.46-3.24-34.543z" color="#000" fill="url(#aa)" transform="translate(-349.55 -446.51)"/><path d="M429.59 562.31l-31.812 1.25 31.812 11.75 31.812-1.25-31.812-11.75zm31.812 11.75l.469.156v-.187l-.469.03zm-63.625-10.5l-.469-.156v.187l.469-.031z" fill="url(#ab)" opacity=".772" transform="translate(-349.55 -446.51)"/><path d="M526.74 547.63l30.403 7.359 3.664-21.199z" fill="url(#ac)" transform="translate(-349.55 -446.51)"/><path d="M429.59 575.3l3.24 34.543 35.48 5.85z" color="#000" fill="url(#ad)" transform="translate(-349.55 -446.51)"/><path d="M429.59 575.3l38.72 40.393-6.445-41.667z" color="#000" fill="url(#ae)" transform="translate(-349.55 -446.51)"/><path d="M429.59 562.31l32.275 11.917 2.98-23.043z" fill="url(#af)" transform="translate(-349.55 -446.51)"/><path d="M536.59 569.94l20.562-14.948-30.403-7.359z" fill="url(#ag)" transform="translate(-349.55 -446.51)"/><path d="M536.59 569.74l-27.206 43.598 47.767-45.356z" fill="url(#ah)" transform="translate(-349.55 -446.51)"/><path d="M464.84 551.19l34.382 14.304 27.52-17.856z" fill="url(#ai)" transform="translate(-349.55 -446.51)"/><path d="M499.23 578.48l-30.917 37.215 41.072-2.357z" color="#000" fill="url(#aj)" transform="translate(-349.55 -446.51)"/><path d="M499.23 578.48l10.155 34.859 27.206-43.597z" color="#000" fill="url(#ak)" transform="translate(-349.55 -446.51)"/><path d="M499.22 565.49l-36.812 8.594 36.812 4.406 36.844-8.625-36.844-4.375zm36.844 4.375l.531.063v-.188l-.531.125zm-73.656 4.219l-.531-.063v.188l.531-.125z" fill="url(#al)" opacity=".772" transform="translate(-349.55 -446.51)"/><path d="M499.23 565.49l37.361 4.451-9.842-22.307z" fill="url(#am)" transform="translate(-349.55 -446.51)"/><path d="M461.86 574.23l37.361-8.739-34.382-14.304z" color="#000" fill="url(#an)" transform="translate(-349.55 -446.51)"/><path d="M461.86 574.03l6.445 41.667 30.917-37.215z" fill="url(#ao)" transform="translate(-349.55 -446.51)"/><g opacity=".841"><path d="M493.61 508.95l-61.901 3.552 47.516 17.563z" color="#000" fill="url(#ap)" transform="translate(-349.55 -446.51)"/><path d="M547.09 517.77l-53.474-8.817-14.385 21.115z" fill="url(#aq)" transform="translate(-349.55 -446.51)"/><path d="M431.71 512.51l-34.067 13.84 81.583 3.723z" color="#000" fill="url(#ar)" transform="translate(-349.55 -446.51)"/><path d="M397.65 526.35l13.723 16.021 67.86-12.298z" color="#000" fill="url(#as)" transform="translate(-349.55 -446.51)"/><path d="M560.81 533.79l-13.723-16.021-67.86 12.298z" fill="url(#at)" transform="translate(-349.55 -446.51)"/><path d="M411.37 542.37l53.475 8.817 14.385-21.115z" color="#000" fill="url(#au)" transform="translate(-349.55 -446.51)"/><path d="M526.74 547.63l34.067-13.84-81.583-3.723z" fill="url(#av)" transform="translate(-349.55 -446.51)"/><path d="M464.84 551.19l61.901-3.552-47.516-17.563z" color="#000" fill="url(#aw)" transform="translate(-349.55 -446.51)"/></g><g fill="#fff" color="#000"><path d="M175.33 34.92l-.878 60.328-28.32-31.89-8.017-9.48 34.99 44.589-41.31.877 2.165.059-11.235.234 50.439 1.112-27.502 35.05-.351.468-.293.292-6.905 8.836 17.905-21.24 18.432-20.774.878 60.972.878-58.573.702 46.168.702-47.982 34.933 41.428-30.837-39.38 27.151 30.544-29.667-35.869 48.801-1.053-9.772-.234 3.862-.059-43.3-.936 30.076-36.279-23.055 25.863 26.741-34.114-34.874 41.428-.76-48.625-.703 46.46-.877-58.222z"/><path d="M109.22 66.44l-.506 34.757-16.317-18.373-4.618-5.461 20.16 25.688-23.801.505 1.247.034-6.472.135 29.06.64-15.845 20.194-.203.27-.168.168-3.978 5.09 10.316-12.237 10.619-11.968.505 35.128.506-33.746.405 26.6.404-27.645 20.126 23.868-17.766-22.688 15.642 17.598-17.092-20.665 28.116-.606-5.63-.135 2.225-.034-24.947-.54 17.328-20.9-13.282 14.9 15.406-19.654-20.092 23.868-.438-28.015-.405 26.767-.505-33.543z"/><path d="M124 66.66l-37.023-.539 19.571-17.38 5.817-4.92-27.364 21.474-.538-25.353-.036 1.328-.144-6.894-.682 30.955-21.51-16.878-.287-.216-.18-.18-5.422-4.237 13.035 10.99L81.985 66.12l-37.418.539 35.946.538-28.333.431 29.446.431-25.424 21.438L80.37 70.573 61.625 87.235 83.638 69.03l.646 29.95.144-5.998.036 2.37.574-26.574 22.264 18.458L91.43 73.086l20.936 16.411-25.424-21.402 29.841-.466-28.513-.431 35.731-.539z"/></g></svg>