<svg xmlns="http://www.w3.org/2000/svg" width="241.83" height="405.093"><g stroke-linecap="round"><path opacity=".9" fill="#175309" d="M201.201 332.342l2.781-4.787-1.882 1.145z"/><path opacity=".9" fill="#1d6b0c" d="M205.171 256.668l-1.905.977L202.1 328.7l1.882-1.145z"/><path opacity=".9" fill="#217a0d" d="M202.482 253.431l.784 4.214 1.905-.977z"/><path opacity=".9" fill="#18580a" d="M202.482 253.431l2.823-4.761-1.908.957z"/><path opacity=".9" fill="#25880f" d="M151.215 345.551l-.864 3.756 50.85-16.965.899-3.642z"/><path opacity=".9" fill="#1e6d0c" d="M206.531 175.547l-1.932.776-1.202 73.304 1.908-.957z"/><path opacity=".9" fill="#2da512" d="M203.266 257.645l-51.581 14.368-.47 73.538L202.1 328.7z"/><path opacity=".9" fill="#20770d" d="M203.803 172.025l.796 4.298 1.932-.776z"/><path opacity=".9" fill="#195d0a" d="M203.803 172.025l2.867-4.731-1.935.755z"/><path opacity=".9" fill="#124307" d="M187.35 249.726l-51.661 13.922 15.17 3.993 51.623-14.21z"/><path opacity=".9" fill="#124107" d="M132.496 341.51l2.928 3.032 14.927 4.765-2.915-3.049z"/><path opacity=".9" fill="#1e6e0c" d="M207.935 91.826l-1.959.563-1.241 75.66 1.935-.755z"/><path opacity=".9" fill="#30b214" d="M150.859 267.641l.826 4.372 51.581-14.368-.784-4.214z"/><path opacity=".9" fill="#278f10" d="M151.738 263.71l-.879 3.931 51.623-14.21.915-3.804z"/><path opacity=".9" fill="#31b314" d="M147.436 346.258l2.915 3.049.864-3.756z"/><path opacity=".9" fill="#20750d" d="M205.167 88.003l.809 4.386 1.959-.563z"/><path opacity=".9" fill="#1b620b" d="M205.167 88.003l2.911-4.696-1.962.541z"/><path opacity=".9" fill="#30af13" d="M147.851 272.617l-15.159-4.051-.196 72.944 14.94 4.748z"/><path opacity=".9" fill="#1e6f0c" d="M209.384 5.381l-1.987.335-1.281 78.132 1.962-.541z"/><path opacity=".9" fill="#2ea713" d="M204.599 176.323l-52.376 11.433-.485 75.954 51.659-14.083z"/><path opacity=".9" fill="#0e3406" d="M188.421 169.089l-52.459 11.036 15.422 3.167 52.419-11.267z"/><path opacity=".9" fill="#1f710d" d="M206.576 1.238l.821 4.478 1.987-.335z"/><path opacity=".9" fill="#39d117" d="M151.685 272.013l-3.834.604-.415 73.641 3.779-.707z"/><path opacity=".9" fill="#30b014" d="M151.384 183.292l.839 4.464 52.376-11.433-.796-4.298z"/><path opacity=".9" fill="#299511" d="M152.278 179.178l-.894 4.114 52.419-11.267.932-3.976z"/><path opacity=".9" fill="#2fad13" d="M135.689 263.648l-2.997 4.918 15.159 4.051 3.008-4.976z"/><path opacity=".9" fill="#154d09" d="M132.715 260.332l2.974 3.316 15.17 3.993-2.961-3.339z"/><path opacity=".9" fill="#3cdd19" d="M151.685 272.013l-.826-4.372-3.008 4.976z"/><path opacity=".9" fill="#0a2504" d="M189.527 85.889l-53.283 7.953 15.683 2.284 53.24-8.123z"/><path opacity=".9" fill="#2ea913" d="M205.976 92.389l-53.196 8.296-.502 78.493 52.457-11.129z"/><path opacity=".9" fill="#33ba15" d="M147.898 264.302l2.961 3.339.879-3.931z"/><path opacity=".9" fill="#30b214" d="M148.328 188.236l-15.411-3.224-.202 75.32 15.183 3.97z"/><path opacity=".9" fill="#2fae13" d="M151.927 96.126l.853 4.559 53.196-8.296-.809-4.386z"/><path opacity=".9" fill="#2a9b11" d="M152.837 91.817l-.91 4.309 53.24-8.123.949-4.155z"/><path opacity=".9" fill="#061502" d="M190.668 0l-54.132 4.66 15.952 1.339 54.088-4.761z"/><path opacity=".9" fill="#3ad418" d="M152.223 187.756l-3.895.48-.43 76.066 3.84-.592z"/><path opacity=".9" fill="#2fab13" d="M207.397 5.716l-54.042 4.94-.518 81.161 53.279-7.969z"/><path opacity=".9" fill="#2da512" d="M135.962 180.125l-3.045 4.887 15.411 3.224 3.056-4.944z"/><path opacity=".9" fill="#18590a" d="M132.94 176.507l3.022 3.618 15.422 3.167-3.008-3.647z"/><path opacity=".9" fill="#2fab13" d="M152.488 5.999l.867 4.657 54.042-4.94-.821-4.478z"/><path opacity=".9" fill="#3cdc18" d="M152.223 187.756l-.839-4.464-3.056 4.944z"/><path opacity=".9" fill="#35c115" d="M148.376 179.645l3.008 3.647.894-4.114z"/><path opacity=".9" fill="#31b414" d="M148.82 101.033l-15.671-2.34-.209 77.814 15.436 3.138z"/><path opacity=".9" fill="#2a9b11" d="M136.244 93.842l-3.095 4.851 15.671 2.34 3.107-4.907z"/><path opacity=".9" fill="#1c660b" d="M133.173 89.903l3.071 3.939 15.683 2.284-3.057-3.974z"/><path opacity=".9" fill="#3bd718" d="M152.78 100.685l-3.96.348-.444 78.612 3.902-.467z"/><path opacity=".9" fill="#3cdb18" d="M152.78 100.685l-.853-4.559-3.107 4.907z"/><path opacity=".9" fill="#32b614" d="M149.329 10.864l-15.94-1.395-.216 80.434 15.697 2.249z"/><path opacity=".9" fill="#36c716" d="M148.87 92.152l3.057 3.974.91-4.309z"/><path opacity=".9" fill="#279110" d="M136.536 4.66l-3.147 4.809 15.94 1.395 3.159-4.865z"/><path opacity=".9" fill="#3bd918" d="M153.355 10.656l-4.026.208-.459 81.288 3.967-.335z"/><path opacity=".9" fill="#3bd818" d="M153.355 10.656l-.867-4.657-3.159 4.865z"/></g><g stroke-linecap="round"><path opacity=".9" fill="#5a270b" d="M144.463 351.271l2.973-5.013-2.114 1.244z"/><path opacity=".9" fill="#74320e" d="M147.851 272.617l-2.143 1.061-.386 73.824 2.114-1.244z"/><path opacity=".9" fill="#833910" d="M144.878 269.288l.83 4.39 2.143-1.061z"/><path opacity=".9" fill="#602a0b" d="M144.878 269.288l3.02-4.986-2.146 1.04z"/><path opacity=".9" fill="#8e3d11" d="M89.962 365.834l-.814 3.892 55.315-18.455.859-3.769z"/><path opacity=".9" fill="#76330e" d="M148.328 188.236l-2.177.846-.399 76.26 2.146-1.04z"/><path opacity=".9" fill="#ac4a14" d="M145.708 273.678L89.523 289.33l.439 76.504 55.36-18.332z"/><path opacity=".9" fill="#461e08" d="M129.705 265.26l-56.223 15.152 15.164 4.355 56.232-15.479z"/><path opacity=".9" fill="#81380f" d="M145.306 184.599l.845 4.483 2.177-.846z"/><path opacity=".9" fill="#662c0c" d="M145.306 184.599l3.07-4.954-2.18.823z"/><path opacity=".9" fill="#381807" d="M70.989 361.433l3.238 3.103 14.921 5.19-3.229-3.122z"/><path opacity=".9" fill="#ba5116" d="M88.646 284.767l.877 4.563 56.185-15.652-.83-4.39z"/><path opacity=".9" fill="#954112" d="M89.473 280.686l-.827 4.081 56.232-15.479.874-3.946z"/><path opacity=".9" fill="#78340e" d="M148.82 101.033l-2.212.614-.412 78.821 2.18-.823z"/><path opacity=".9" fill="#b64f16" d="M85.919 366.604l3.229 3.122.814-3.892z"/><path opacity=".9" fill="#7e370f" d="M145.749 97.069l.859 4.578 2.212-.614z"/><path opacity=".9" fill="#a64814" d="M85.418 289.988l-15.15-4.418.721 75.863 14.93 5.171z"/><path opacity=".9" fill="#af4c15" d="M146.151 189.082l-57.132 12.47.454 79.134 56.279-15.344z"/><path opacity=".9" fill="#371806" d="M129.882 181.404L72.711 193.43l15.416 3.46 57.179-12.291z"/><path opacity=".9" fill="#d55c19" d="M89.523 289.33l-4.105.658.501 76.616 4.043-.77z"/><path opacity=".9" fill="#a94914" d="M73.482 280.412l-3.214 5.158 15.15 4.418 3.228-5.221z"/><path opacity=".9" fill="#451e08" d="M70.186 277l3.296 3.412 15.164 4.355-3.285-3.436z"/><path opacity=".9" fill="#b95016" d="M88.127 196.89l.892 4.662 57.132-12.47-.845-4.483z"/><path opacity=".9" fill="#9c4313" d="M88.967 192.609l-.84 4.281 57.179-12.291.89-4.131z"/><path opacity=".9" fill="#e3621b" d="M89.523 289.33l-.877-4.563-3.228 5.221z"/><path opacity=".9" fill="#be5217" d="M85.361 281.331l3.285 3.436.827-4.081z"/><path opacity=".9" fill="#261105" d="M130.064 94.764l-58.151 8.68 15.676 2.499 58.16-8.874z"/><path opacity=".9" fill="#b14d15" d="M146.608 101.647l-58.111 9.062.47 81.9 57.229-12.141z"/><path opacity=".9" fill="#a94914" d="M84.842 202.077l-15.401-3.521.745 78.444 15.175 4.331z"/><path opacity=".9" fill="#b64f16" d="M87.589 105.943l.908 4.766 58.111-9.062-.859-4.578z"/><path opacity=".9" fill="#d95e1a" d="M89.019 201.552l-4.177.525.519 79.254 4.112-.645z"/><path opacity=".9" fill="#a04513" d="M72.711 193.43l-3.27 5.126 15.401 3.521 3.285-5.187z"/><path opacity=".9" fill="#52230a" d="M69.357 189.691l3.354 3.739 15.416 3.46-3.344-3.77z"/><path opacity=".9" fill="#e2621b" d="M89.019 201.552l-.892-4.662-3.285 5.187z"/><path opacity=".9" fill="#c65618" d="M84.783 193.12l3.344 3.77.84-4.281z"/><path opacity=".9" fill="#ac4a14" d="M84.246 111.09l-15.66-2.56.771 81.161 15.426 3.429z"/><path opacity=".9" fill="#964112" d="M71.913 103.444l-3.327 5.086 15.66 2.56 3.343-5.147z"/><path opacity=".9" fill="#dc5f1a" d="M88.497 110.709l-4.251.381.537 82.03 4.184-.511z"/><path opacity=".9" fill="#e0611b" d="M88.497 110.709l-.908-4.766-3.343 5.147z"/></g><g stroke-linecap="round"><path opacity=".9" fill="#38620d" d="M82.731 371.866l3.188-5.262-2.379 1.357z"/><path opacity=".9" fill="#487e11" d="M83.54 367.961l2.379-1.357-.502-76.616-2.416 1.159z"/><path opacity=".9" fill="#508d13" d="M82.118 286.563l.883 4.584 2.416-1.159z"/><path opacity=".9" fill="#549414" d="M82.731 371.866l.809-3.905-60.451 20.018-.752 4.037z"/><path opacity=".9" fill="#3c690e" d="M82.118 286.563l3.243-5.232-2.421 1.136z"/><path opacity=".9" fill="#498011" d="M82.94 282.467l2.421-1.136-.519-79.254-2.46.924z"/><path opacity=".9" fill="#66b318" d="M23.089 387.979l60.451-20.018-.539-76.814-61.435 17.113z"/><path opacity=".9" fill="#1a2e06" d="M22.337 392.016l-3.589-3.194-14.858-5.656 3.596 3.176z"/><path opacity=".9" fill="#2a490a" d="M20.631 303.489l61.487-16.926-15.16-4.393L5.54 298.721z"/><path opacity=".9" fill="#4f8b13" d="M81.484 198.318l.898 4.683 2.46-.924z"/><path opacity=".9" fill="#6aba19" d="M18.748 388.822l3.589 3.194.752-4.037z"/><path opacity=".9" fill="#6fc21a" d="M83.001 291.147l-.883-4.584-61.487 16.926.935 4.771z"/><path opacity=".9" fill="#599c15" d="M82.118 286.563l.822-4.096-61.547 16.779-.762 4.243zM3.89 383.166l14.858 5.656-1.595-79.841-15.073-4.837z"/><path opacity=".9" fill="#68b719" d="M21.393 299.246l61.547-16.779-.558-79.466-62.566 13.657z"/><path opacity=".9" fill="#7cda1d" d="M18.748 388.822l4.341-.843-1.523-79.719-4.413.721z"/><path opacity=".9" fill="#213908" d="M18.864 211.778l62.62-13.46-15.412-3.491-62.548 13.157z"/><path opacity=".9" fill="#5ea416" d="M17.153 308.981l3.478-5.492-15.091-4.768-3.46 5.423z"/><path opacity=".9" fill="#223b08" d="M20.631 303.489l-3.658-3.536-15.098-4.743 3.665 3.511z"/><path opacity=".9" fill="#6ec11a" d="M82.382 203.001l-.898-4.683-62.62 13.46.952 4.88z"/><path opacity=".9" fill="#84e81f" d="M21.566 308.26l-.935-4.771-3.478 5.492z"/><path opacity=".9" fill="#6fc21a" d="M16.973 299.953l3.658 3.536.762-4.243z"/><path opacity=".9" fill="#5b9f15" d="M1.875 295.21l15.098 4.743-1.652-82.719L0 213.372z"/><path opacity=".9" fill="#7fde1e" d="M16.973 299.953l4.42-.707-1.577-82.588-4.495.576z"/><path opacity=".9" fill="#589b15" d="M15.321 217.234l3.543-5.456-15.34-3.794L0 213.372z"/><path opacity=".9" fill="#84e81f" d="M19.816 216.658l-.952-4.88-3.543 5.456z"/></g><g stroke-linecap="round"><path opacity=".9" fill="#1a500a" d="M218.096 337.364l2.792-4.847-1.86 1.172z"/><path opacity=".9" fill="#22680d" d="M219.028 333.689l1.86-1.172 1.44-71.619-1.881.999z"/><path opacity=".9" fill="#26770f" d="M219.658 257.636l.789 4.261 1.881-.999z"/><path opacity=".9" fill="#1b550b" d="M219.658 257.636l2.833-4.821-1.884.979z"/><path opacity=".9" fill="#2b8511" d="M218.096 337.364l.932-3.675-50.829 17.237-.898 3.792z"/><path opacity=".9" fill="#226a0d" d="M220.607 253.794l1.884-.979 1.487-73.904-1.907.794z"/><path opacity=".9" fill="#34a215" d="M168.199 350.926l50.829-17.237 1.419-71.792-51.523 14.703z"/><path opacity=".9" fill="#26750f" d="M221.269 175.358l.802 4.347 1.907-.794z"/><path opacity=".9" fill="#1d5a0b" d="M221.269 175.358l2.877-4.79-1.91.773z"/><path opacity=".9" fill="#164409" d="M168.093 272.177l51.565-14.541-15.476-3.789-51.618 14.243z"/><path opacity=".9" fill="#154108" d="M167.301 354.718l-2.899-3.069-15.287-4.858 2.913 3.051z"/><path opacity=".9" fill="#236b0e" d="M222.236 171.341l1.91-.773 1.535-76.302-1.934.576z"/><path opacity=".9" fill="#39b016" d="M220.447 261.897l-.789-4.261-51.565 14.541.831 4.423z"/><path opacity=".9" fill="#2d8c12" d="M219.658 257.636l.949-3.842-51.601 14.413-.913 3.97z"/><path opacity=".9" fill="#39b116" d="M164.402 351.649l2.899 3.069.898-3.792z"/><path opacity=".9" fill="#25720e" d="M222.933 90.405l.814 4.437 1.934-.576z"/><path opacity=".9" fill="#39b116" d="M149.115 346.791l15.287 4.858.671-74.431-15.518-4.146z"/><path opacity=".9" fill="#35a515" d="M169.006 268.207l51.601-14.413 1.464-74.089-52.315 11.703z"/><path opacity=".9" fill="#113507" d="M168.911 186.892l52.358-11.534-15.737-3.004-52.414 11.295z"/><path opacity=".9" fill="#43cf1a" d="M164.402 351.649l3.797-.723.725-74.326-3.851.618z"/><path opacity=".9" fill="#38ae16" d="M222.071 179.705l-.802-4.347-52.358 11.534.845 4.516z"/><path opacity=".9" fill="#2f9213" d="M221.269 175.358l.967-4.017-52.395 11.392-.93 4.159z"/><path opacity=".9" fill="#39af16" d="M165.073 277.218l3.02-5.041-15.529-4.087-3.009 4.982z"/><path opacity=".9" fill="#194e0a" d="M168.093 272.177l-2.945-3.365-15.543-4.064 2.959 3.342z"/><path opacity=".9" fill="#47db1c" d="M168.924 276.6l-.831-4.423-3.02 5.041z"/><path opacity=".9" fill="#0c2505" d="M169.756 98.724l53.177-8.319-16.008-2.164-53.234 8.142z"/><path opacity=".9" fill="#36a715" d="M169.841 182.733l52.395-11.392 1.511-76.499-53.131 8.495z"/><path opacity=".9" fill="#3bb817" d="M165.148 268.812l2.945 3.365.913-3.97z"/><path opacity=".9" fill="#3ab417" d="M149.605 264.748l15.543 4.064.693-76.912-15.781-3.301z"/><path opacity=".9" fill="#37ac16" d="M223.747 94.842l-.814-4.437-53.177 8.319.86 4.613z"/><path opacity=".9" fill="#44d21b" d="M165.148 268.812l3.858-.605.75-76.799-3.915.492z"/><path opacity=".9" fill="#36a715" d="M165.841 191.9l3.07-5.008-15.793-3.243-3.058 4.95z"/><path opacity=".9" fill="#1d5b0b" d="M168.911 186.892l-2.991-3.68-15.808-3.214 3.006 3.651z"/><path opacity=".9" fill="#47db1c" d="M169.756 191.408l-.845-4.516-3.07 5.008z"/><path opacity=".9" fill="#3ebf18" d="M165.92 183.212l2.991 3.68.93-4.159z"/><path opacity=".9" fill="#3bb617" d="M150.112 179.998l15.808 3.214.716-79.518-16.054-2.398z"/><path opacity=".9" fill="#339d14" d="M166.636 103.694l3.12-4.97-16.065-2.341-3.109 4.913z"/><path opacity=".9" fill="#45d51b" d="M165.92 183.212l3.921-.479.775-79.396-3.98.357z"/><path opacity=".9" fill="#46d91c" d="M170.616 103.337l-.86-4.613-3.12 4.97z"/></g><g stroke-linecap="round"><path opacity=".9" fill="#4d0c48" d="M235.374 342.501l2.801-4.909-1.835 1.198z"/><path opacity=".9" fill="#65105f" d="M236.34 338.79l1.835-1.198 1.704-72.367-1.856 1.022z"/><path opacity=".9" fill="#74126d" d="M237.228 261.938l.795 4.309 1.856-1.022z"/><path opacity=".9" fill="#520d4d" d="M237.228 261.938l2.843-4.882-1.858 1.002z"/><path opacity=".9" fill="#83147b" d="M235.374 342.501l.966-3.711-50.757 17.638-.933 3.829z"/><path opacity=".9" fill="#671061" d="M238.213 258.058l1.858-1.002 1.76-74.703-1.881.813z"/><path opacity=".9" fill="#a01896" d="M185.583 356.428l50.757-17.638 1.683-72.543-51.447 15.05z"/><path opacity=".9" fill="#72116b" d="M239.143 178.769l.807 4.397 1.881-.813z"/><path opacity=".9" fill="#440a40" d="M185.738 276.822l51.49-14.884-15.831-3.876-51.558 14.575z"/><path opacity=".9" fill="#420a3e" d="M184.65 360.257l-2.882-3.089-15.648-4.972 2.898 3.07z"/><path opacity=".9" fill="#ad1ba3" d="M238.023 266.247l-.795-4.309-51.49 14.884.838 4.475z"/><path opacity=".9" fill="#891581" d="M237.228 261.938l.985-3.88-51.525 14.752-.95 4.012z"/><path opacity=".9" fill="#af1ba4" d="M181.768 357.168l2.882 3.089.933-3.829z"/><path opacity=".9" fill="#b31ba8" d="M166.12 352.196l15.648 4.972.938-75.239-15.889-4.245z"/><path opacity=".9" fill="#a21998" d="M186.688 272.81l51.525-14.752 1.737-74.892-52.236 11.984z"/><path opacity=".9" fill="#350832" d="M186.863 190.58l52.28-11.811-16.105-3.074-52.351 11.562z"/><path opacity=".9" fill="#cd1fc0" d="M181.768 357.168l3.815-.74.993-75.131-3.87.632z"/><path opacity=".9" fill="#ac1aa1" d="M239.95 183.166l-.807-4.397-52.28 11.811.851 4.57z"/><path opacity=".9" fill="#b11ba6" d="M182.706 281.929l3.032-5.107-15.899-4.185-3.022 5.047z"/><path opacity=".9" fill="#4f0c4a" d="M185.738 276.822l-2.926-3.392-15.916-4.161 2.943 3.368z"/><path opacity=".9" fill="#da21cc" d="M186.576 281.297l-.838-4.475-3.032 5.107z"/><path opacity=".9" fill="#b61cab" d="M182.812 273.43l2.926 3.392.95-4.012zM166.896 269.269l15.916 4.161.969-77.776-16.165-3.382z"/><path opacity=".9" fill="#d020c3" d="M182.812 273.43l3.876-.62 1.026-77.66-3.933.504z"/><path opacity=".9" fill="#a91a9e" d="M183.781 195.654l3.082-5.074-16.176-3.323-3.071 5.015z"/><path opacity=".9" fill="#d921cb" d="M187.714 195.15l-.851-4.57-3.082 5.074z"/></g><g stroke-linecap="round"><path opacity=".9" fill="#3c570d" d="M161.417 356.729l2.985-5.079-2.092 1.273z"/><path opacity=".9" fill="#4e7111" d="M165.073 277.218l-2.121 1.087-.642 74.618 2.092-1.273z"/><path opacity=".9" fill="#598013" d="M162.115 273.863l.837 4.442 2.121-1.087z"/><path opacity=".9" fill="#405d0e" d="M162.115 273.863l3.033-5.051-2.124 1.066z"/><path opacity=".9" fill="#608b14" d="M106.957 371.694l-.849 3.931 55.309-18.896.893-3.806z"/><path opacity=".9" fill="#507311" d="M165.841 191.9l-2.154.866-.663 77.112 2.124-1.066z"/><path opacity=".9" fill="#75a919" d="M162.952 278.305l-56.179 16.032.184 77.357 55.353-18.771z"/><path opacity=".9" fill="#577e13" d="M162.837 188.23l.85 4.536 2.154-.866z"/><path opacity=".9" fill="#31470a" d="M146.583 269.74l-56.232 15.516 15.538 4.463 56.226-15.856z"/><path opacity=".9" fill="#273808" d="M87.598 367.186l3.228 3.123 15.282 5.316-3.216-3.141z"/><path opacity=".9" fill="#7fb81b" d="M105.889 289.719l.884 4.618 56.179-16.032-.837-4.442z"/><path opacity=".9" fill="#659215" d="M106.752 285.595l-.862 4.124 56.225-15.856.909-3.985z"/><path opacity=".9" fill="#7db41a" d="M102.892 372.484l3.216 3.141.849-3.931z"/><path opacity=".9" fill="#74a819" d="M102.646 295.011l-15.524-4.526.476 76.701 15.294 5.298z"/><path opacity=".9" fill="#77ac19" d="M163.687 192.766l-57.124 12.78.189 80.049 56.272-15.717z"/><path opacity=".9" fill="#263708" d="M147.041 184.958l-57.18 12.321 15.802 3.546 57.174-12.595z"/><path opacity=".9" fill="#92d41f" d="M106.773 294.337l-4.127.674.246 77.473 4.065-.79z"/><path opacity=".9" fill="#77ab19" d="M90.351 285.256l-3.229 5.229 15.524 4.526 3.243-5.292z"/><path opacity=".9" fill="#30450a" d="M87.068 281.818l3.283 3.438 15.539 4.463-3.272-3.463z"/><path opacity=".9" fill="#7eb61b" d="M105.663 200.825l.9 4.721 57.124-12.78-.85-4.536z"/><path opacity=".9" fill="#9ce121" d="M106.773 294.337l-.884-4.618-3.243 5.292z"/><path opacity=".9" fill="#82bc1c" d="M102.618 286.256l3.272 3.463.862-4.124z"/><path opacity=".9" fill="#76ab19" d="M102.363 206.084l-15.788-3.611.493 79.345 15.55 4.438z"/><path opacity=".9" fill="#95d820" d="M106.563 205.546l-4.2.538.255 80.172 4.134-.661z"/><path opacity=".9" fill="#70a218" d="M89.861 197.279l-3.286 5.194 15.788 3.611 3.3-5.259z"/><path opacity=".9" fill="#9be121" d="M106.563 205.546l-.9-4.721-3.3 5.259z"/></g><g stroke-linecap="round"><path opacity=".9" fill="#255f0d" d="M99.689 377.818l3.203-5.334-2.36 1.389z"/><path opacity=".9" fill="#2f7b11" d="M100.532 373.873l2.36-1.389-.246-77.473-2.397 1.188z"/><path opacity=".9" fill="#358b13" d="M99.359 291.56l.89 4.639 2.397-1.188z"/><path opacity=".9" fill="#389114" d="M99.689 377.818l.843-3.945-60.509 20.52-.787 4.078z"/><path opacity=".9" fill="#44b118" d="M40.023 394.393l60.509-20.52-.283-77.674-61.496 17.549z"/><path opacity=".9" fill="#122f06" d="M39.236 398.471l-3.58-3.214-15.236-5.799 3.588 3.196z"/><path opacity=".9" fill="#1c4a0a" d="M37.811 308.917l61.548-17.357-15.536-4.502-61.494 16.968z"/><path opacity=".9" fill="#47b819" d="M35.656 395.257l3.58 3.214.787-4.078z"/><path opacity=".9" fill="#4ac01a" d="M100.249 296.199l-.89-4.639-61.548 17.357.942 4.831z"/><path opacity=".9" fill="#3d9e16" d="M20.42 389.458l15.236 5.799-1.342-80.769-15.464-4.962z"/><path opacity=".9" fill="#53d81e" d="M35.656 395.257l4.367-.864-1.27-80.645-4.439.74z"/><path opacity=".9" fill="#40a717" d="M34.314 314.488l3.497-5.571-15.482-4.891-3.479 5.5z"/><path opacity=".9" fill="#59e720" d="M38.753 313.748l-.942-4.831-3.497 5.571z"/></g><g stroke-linecap="round"><path opacity=".9" fill="#540f08" d="M178.771 362.315l2.997-5.147-2.069 1.304z"/><path opacity=".9" fill="#6e130a" d="M180.609 283.042l-.91 75.43 2.069-1.304.938-75.239z"/><path opacity=".9" fill="#7e160c" d="M179.766 278.548l.843 4.494 2.097-1.113z"/><path opacity=".9" fill="#89180d" d="M123.484 381.669l55.287-19.354.928-3.843-55.33 19.227z"/><path opacity=".9" fill="#a71d10" d="M124.454 299.469l-.085 78.23 55.33-19.227.91-75.43z"/><path opacity=".9" fill="#480d07" d="M107.637 290.221l15.927 4.573 56.202-16.246-15.904-4.221z"/><path opacity=".9" fill="#390a05" d="M107.827 376.222l15.657 5.447-3.201-3.161-15.671-5.429z"/><path opacity=".9" fill="#b62011" d="M124.454 299.469l56.155-16.427-.843-4.494-56.202 16.246z"/><path opacity=".9" fill="#b21f11" d="M120.283 378.508l3.201 3.161.885-3.97z"/><path opacity=".9" fill="#aa1e10" d="M104.392 295.521l.22 77.558 15.671 5.429.022-78.347z"/><path opacity=".9" fill="#d22514" d="M120.305 300.161l-.022 78.347 4.086-.809.085-78.23z"/><path opacity=".9" fill="#ae1f10" d="M104.392 295.521l15.913 4.64 3.259-5.367-15.927-4.573z"/><path opacity=".9" fill="#df2715" d="M124.454 299.469l-.89-4.675-3.259 5.367z"/></g><g stroke-linecap="round"><path opacity=".9" fill="#5c3b09" d="M117.064 383.916l3.219-5.408-2.339 1.423z"/><path opacity=".9" fill="#784d0b" d="M117.929 301.378l.015 78.553 2.339-1.423.022-78.347z"/><path opacity=".9" fill="#88570d" d="M117.033 296.682l.896 4.696 2.376-1.217z"/><path opacity=".9" fill="#8f5c0d" d="M56.57 405.093l60.494-21.177.88-3.985-60.551 21.041z"/><path opacity=".9" fill="#ae7010" d="M56.39 319.38l1.003 81.592 60.551-21.041-.015-78.553z"/><path opacity=".9" fill="#2f1e04" d="M40.95 399.126l15.62 5.967-3.57-3.234-15.629-5.949z"/><path opacity=".9" fill="#4b3007" d="M39.553 309.467l15.887 5.02 61.593-17.805-15.926-4.615z"/><path opacity=".9" fill="#b67511" d="M53 401.859l3.57 3.234.823-4.121z"/><path opacity=".9" fill="#be7a12" d="M56.39 319.38l61.539-18.002-.896-4.696-61.593 17.805z"/><path opacity=".9" fill="#a0670f" d="M36.054 315.047l1.317 80.863L53 401.859l-1.077-81.72z"/><path opacity=".9" fill="#d68a14" d="M51.923 320.139L53 401.859l4.393-.887-1.003-81.592z"/><path opacity=".9" fill="#a96d10" d="M36.054 315.047l15.869 5.092 3.517-5.652-15.887-5.02z"/><path opacity=".9" fill="#e59315" d="M56.39 319.38l-.95-4.893-3.517 5.652z"/></g></svg>