<svg xmlns="http://www.w3.org/2000/svg" xmlns:xlink="http://www.w3.org/1999/xlink" height="600" width="360"><defs><linearGradient id="a"><stop offset="0" stop-color="#fff"/><stop offset="1" stop-color="#fff" stop-opacity="0"/></linearGradient><clipPath clipPathUnits="userSpaceOnUse" id="b"><path d="M-360.426 343.612l29.9 11.268c12.255 4.618 1.904 55.757-17.786 114.235l-29.42 87.377c-21.322 63.323-41.439 77.582-54.71 72.58l-32.377-12.2c-13.271-5.002-18.974-28.991 6.799-90.637l35.563-85.061c23.801-56.929 49.775-102.18 62.03-97.562z" fill="#e3dbdb"/></clipPath><clipPath clipPathUnits="userSpaceOnUse" id="r"><path d="M-360.426 343.612l29.9 11.268c12.255 4.618 1.904 55.757-17.786 114.235l-29.42 87.377c-21.322 63.323-41.439 77.582-54.71 72.58l-32.377-12.2c-13.271-5.002-18.974-28.991 6.799-90.637l35.563-85.061c23.801-56.929 49.775-102.18 62.03-97.562z" fill="#e3dbdb"/></clipPath><clipPath clipPathUnits="userSpaceOnUse" id="q"><path d="M-360.426 343.612l29.9 11.268c12.255 4.618 1.904 55.757-17.786 114.235l-29.42 87.377c-21.322 63.323-41.439 77.582-54.71 72.58l-32.377-12.2c-13.271-5.002-18.974-28.991 6.799-90.637l35.563-85.061c23.801-56.929 49.775-102.18 62.03-97.562z" fill="#e3dbdb"/></clipPath><clipPath clipPathUnits="userSpaceOnUse" id="p"><path d="M-360.426 343.612l29.9 11.268c12.255 4.618 1.904 55.757-17.786 114.235l-29.42 87.377c-21.322 63.323-41.439 77.582-54.71 72.58l-32.377-12.2c-13.271-5.002-18.974-28.991 6.799-90.637l35.563-85.061c23.801-56.929 49.775-102.18 62.03-97.562z" fill="#e3dbdb"/></clipPath><clipPath clipPathUnits="userSpaceOnUse" id="o"><path d="M-360.426 343.612l29.9 11.268c12.255 4.618 1.904 55.757-17.786 114.235l-29.42 87.377c-21.322 63.323-41.439 77.582-54.71 72.58l-32.377-12.2c-13.271-5.002-18.974-28.991 6.799-90.637l35.563-85.061c23.801-56.929 49.775-102.18 62.03-97.562z" fill="#e3dbdb"/></clipPath><clipPath clipPathUnits="userSpaceOnUse" id="n"><path d="M-360.426 343.612l29.9 11.268c12.255 4.618 1.904 55.757-17.786 114.235l-29.42 87.377c-21.322 63.323-41.439 77.582-54.71 72.58l-32.377-12.2c-13.271-5.002-18.974-28.991 6.799-90.637l35.563-85.061c23.801-56.929 49.775-102.18 62.03-97.562z" fill="#e3dbdb"/></clipPath><clipPath clipPathUnits="userSpaceOnUse" id="m"><path d="M-360.426 343.612l29.9 11.268c12.255 4.618 1.904 55.757-17.786 114.235l-29.42 87.377c-21.322 63.323-41.439 77.582-54.71 72.58l-32.377-12.2c-13.271-5.002-18.974-28.991 6.799-90.637l35.563-85.061c23.801-56.929 49.775-102.18 62.03-97.562z" fill="#e3dbdb"/></clipPath><clipPath clipPathUnits="userSpaceOnUse" id="l"><path d="M-360.426 343.612l29.9 11.268c12.255 4.618 1.904 55.757-17.786 114.235l-29.42 87.377c-21.322 63.323-41.439 77.582-54.71 72.58l-32.377-12.2c-13.271-5.002-18.974-28.991 6.799-90.637l35.563-85.061c23.801-56.929 49.775-102.18 62.03-97.562z" fill="#e3dbdb"/></clipPath><clipPath clipPathUnits="userSpaceOnUse" id="k"><path d="M-360.426 343.612l29.9 11.268c12.255 4.618 1.904 55.757-17.786 114.235l-29.42 87.377c-21.322 63.323-41.439 77.582-54.71 72.58l-32.377-12.2c-13.271-5.002-18.974-28.991 6.799-90.637l35.563-85.061c23.801-56.929 49.775-102.18 62.03-97.562z" fill="#e3dbdb"/></clipPath><clipPath clipPathUnits="userSpaceOnUse" id="j"><path d="M-360.426 343.612l29.9 11.268c12.255 4.618 1.904 55.757-17.786 114.235l-29.42 87.377c-21.322 63.323-41.439 77.582-54.71 72.58l-32.377-12.2c-13.271-5.002-18.974-28.991 6.799-90.637l35.563-85.061c23.801-56.929 49.775-102.18 62.03-97.562z" fill="#e3dbdb"/></clipPath><clipPath clipPathUnits="userSpaceOnUse" id="i"><path d="M-360.426 343.612l29.9 11.268c12.255 4.618 1.904 55.757-17.786 114.235l-29.42 87.377c-21.322 63.323-41.439 77.582-54.71 72.58l-32.377-12.2c-13.271-5.002-18.974-28.991 6.799-90.637l35.563-85.061c23.801-56.929 49.775-102.18 62.03-97.562z" fill="#e3dbdb"/></clipPath><clipPath clipPathUnits="userSpaceOnUse" id="h"><path d="M-360.426 343.612l29.9 11.268c12.255 4.618 1.904 55.757-17.786 114.235l-29.42 87.377c-21.322 63.323-41.439 77.582-54.71 72.58l-32.377-12.2c-13.271-5.002-18.974-28.991 6.799-90.637l35.563-85.061c23.801-56.929 49.775-102.18 62.03-97.562z" fill="#e3dbdb"/></clipPath><clipPath clipPathUnits="userSpaceOnUse" id="g"><path d="M-360.426 343.612l29.9 11.268c12.255 4.618 1.904 55.757-17.786 114.235l-29.42 87.377c-21.322 63.323-41.439 77.582-54.71 72.58l-32.377-12.2c-13.271-5.002-18.974-28.991 6.799-90.637l35.563-85.061c23.801-56.929 49.775-102.18 62.03-97.562z" fill="#e3dbdb"/></clipPath><clipPath clipPathUnits="userSpaceOnUse" id="f"><path d="M-360.426 343.612l29.9 11.268c12.255 4.618 1.904 55.757-17.786 114.235l-29.42 87.377c-21.322 63.323-41.439 77.582-54.71 72.58l-32.377-12.2c-13.271-5.002-18.974-28.991 6.799-90.637l35.563-85.061c23.801-56.929 49.775-102.18 62.03-97.562z" fill="#e3dbdb"/></clipPath><clipPath clipPathUnits="userSpaceOnUse" id="e"><path d="M-360.426 343.612l29.9 11.268c12.255 4.618 1.904 55.757-17.786 114.235l-29.42 87.377c-21.322 63.323-41.439 77.582-54.71 72.58l-32.377-12.2c-13.271-5.002-18.974-28.991 6.799-90.637l35.563-85.061c23.801-56.929 49.775-102.18 62.03-97.562z" fill="#e3dbdb"/></clipPath><clipPath clipPathUnits="userSpaceOnUse" id="d"><path d="M-360.426 343.612l29.9 11.268c12.255 4.618 1.904 55.757-17.786 114.235l-29.42 87.377c-21.322 63.323-41.439 77.582-54.71 72.58l-32.377-12.2c-13.271-5.002-18.974-28.991 6.799-90.637l35.563-85.061c23.801-56.929 49.775-102.18 62.03-97.562z" fill="#e3dbdb"/></clipPath><clipPath clipPathUnits="userSpaceOnUse" id="c"><path d="M-360.426 343.612l29.9 11.268c12.255 4.618 1.904 55.757-17.786 114.235l-29.42 87.377c-21.322 63.323-41.439 77.582-54.71 72.58l-32.377-12.2c-13.271-5.002-18.974-28.991 6.799-90.637l35.563-85.061c23.801-56.929 49.775-102.18 62.03-97.562z" fill="#e3dbdb"/></clipPath><filter id="s" color-interpolation-filters="sRGB"><feGaussianBlur stdDeviation="3.596"/></filter><radialGradient xlink:href="#a" id="u" cx="291.834" cy="396.997" fx="291.834" fy="396.997" r="180.057" gradientTransform="matrix(1 0 0 1.3824 -111.776 147.867)" gradientUnits="userSpaceOnUse"/><filter id="v" color-interpolation-filters="sRGB"><feGaussianBlur stdDeviation=".899"/></filter><radialGradient xlink:href="#a" id="t" cx="406.216" cy="145.637" fx="406.216" fy="145.637" r="142.644" gradientTransform="matrix(-1.03392 1.49423 -1.12718 -.77995 710.772 129.32)" gradientUnits="userSpaceOnUse"/></defs><path d="M158.441 313.622l29.9 11.268c12.256 4.618 1.904 55.757-17.786 114.235l-29.42 87.377c-21.321 63.323-41.438 77.582-54.71 72.581l-32.377-12.201c-13.27-5.002-18.974-28.991 6.8-90.636l35.563-85.062c23.801-56.929 49.774-102.18 62.03-97.562z" fill="#540"/><path d="M155.41 311.602l29.9 11.268c12.256 4.618 1.905 55.757-17.785 114.235l-29.42 87.377c-21.322 63.323-41.439 77.582-54.71 72.58l-32.377-12.2c-13.271-5.002-18.974-28.991 6.799-90.637l35.563-85.061c23.802-56.929 49.775-102.18 62.03-97.562z" fill="#a80"/><path d="M229.937 6.266L330.834 44.29c41.357 15.585 27.774 97.77 11.628 195.37l-15.332 92.68C308.77 443.326 217.6 508.246 170.572 490.523L55.837 447.285C8.807 429.562-16.84 320.62 42.614 225.119l49.647-79.748C144.545 61.39 188.58-9.319 229.937 6.266z" fill="#28170b"/><path d="M151.97 483.092l-76.755-31.886-1.82 5.955 75.345 35.936s2.361-7.99 3.23-10.005z" opacity=".462" fill="#241c1c"/><g opacity=".107"><path clip-path="url(#b)" d="M-516.08 677.182c4.593-3.55 9.226-7.034 14.075-10.238 8.31-5.23 17.094-9.812 23.854-17.129 2.025-2.192 3.674-4.705 5.537-7.037 2.093-2.62 4.221-5.212 6.332-7.819 9.667-11.994 17.645-24.637 24.972-38.185 7.879-14.567 12.147-23.067 17.897-38.66 2.429-6.587 4.33-13.358 6.496-20.038 1.903-6.598 3.907-13.167 5.71-19.794 1.725-6.345 3.431-12.7 4.871-19.116 1.27-5.659 2.228-11.384 3.255-17.093 2.693-14.961 4.603-30.001 6.6-45.066 1.811-12.861 5.328-24.357 10.475-36.246 1.79-4.136 3.89-8.133 5.727-12.25 5.644-12.654 5.537-13.008 10.295-25.885 3.867-10.591 7.296-21.342 11.849-31.67 2.088-4.736 4.49-9.351 6.753-14.007l1.076-2.352.969.042-1.092 2.353c-2.292 4.652-4.724 9.263-6.836 13.999-4.602 10.314-8.057 21.063-11.921 31.663-4.735 12.802-4.69 13.31-10.292 25.892-1.833 4.116-3.929 8.111-5.716 12.246-5.11 11.818-8.677 23.447-10.495 36.226-2.016 15.065-3.932 30.109-6.65 45.07-1.037 5.71-2.013 11.435-3.291 17.096-1.449 6.416-3.156 12.772-4.885 19.118-1.806 6.626-3.812 13.197-5.717 19.796-2.168 6.68-4.073 13.453-6.503 20.043-5.725 15.527-10.036 24.147-17.848 38.671-2.885 5.365-5.832 10.703-9.026 15.89-5.146 8.358-10.017 14.551-15.82 22.315-2.105 2.607-4.228 5.199-6.315 7.82-1.861 2.336-3.508 4.853-5.531 7.05-6.741 7.325-15.505 11.918-23.806 17.148-4.83 3.202-9.447 6.681-14.006 10.25l-.994-.103z" opacity=".462" fill="#28170b" transform="translate(516.192 -32.23)"/><path clip-path="url(#c)" d="M-426.284 338.184l-69.7 285.873-1.011-5.05" fill="none" stroke="#000" transform="translate(516.192 -32.23)"/><path clip-path="url(#d)" d="M-390.929 326.063c-75.761 285.873-78.792 284.863-78.792 284.863" fill="none" stroke="#000" transform="translate(516.192 -32.23)"/><path clip-path="url(#e)" d="M-345.472 348.286l-89.904 279.812" fill="none" stroke="#000" transform="translate(516.192 -32.23)"/><path clip-path="url(#f)" d="M-306.076 349.296l-74.752 271.731" fill="none" stroke="#000" transform="translate(516.192 -32.23)"/><path clip-path="url(#g)" d="M-351.533 281.616L-457.6 661.433" fill="none" stroke="#000" transform="translate(516.192 -32.23)"/><path clip-path="url(#h)" d="M-380.828 252.321l-121.218 409.112" fill="none" stroke="#000" transform="translate(516.192 -32.23)"/><path clip-path="url(#i)" d="M-306.076 271.514l-97.985 377.797" fill="none" stroke="#000" transform="translate(516.192 -32.23)"/><path clip-path="url(#j)" d="M-338.401 252.321l-134.35 378.808v1.01" fill="none" stroke="#000" transform="translate(516.192 -32.23)"/><path clip-path="url(#k)" d="M-314.669 248.116c-.083.553-.108 1.118-.248 1.658-.218.84-.614 1.627-.824 2.469-.491 1.967-.693 4.006-1.276 5.948-.896 2.986-2.152 5.853-3.152 8.806-11.325 33.444 5.288-14.177-7.767 22.982-4.727 11.755-7.045 16.619-10.499 29.178-3.397 12.351-6.172 27.95-8.587 40.341-7.524 38.61-3.232 17.646-12.219 59.38-3.368 11.023-6.467 22.13-10.103 33.066-5.786 17.4-16.924 46.544-23.702 63.819-7 17.843-14.67 36.999-22.826 54.388-3.634 7.75-7.694 15.294-11.54 22.94a444.976 444.976 0 0 1-56.366 75.371c-6.889 7.424-16.756 16.803-24.169 23.974-6.91 6.74-14.396 12.866-21.307 19.604-2.291 2.235-4.4 4.64-6.555 7.001l-.476.526-.997-.075.492-.524c2.19-2.355 4.322-4.765 6.636-7.002 6.962-6.729 14.49-12.848 21.44-19.591 7.465-7.19 17.315-16.507 24.255-23.962a442.553 442.553 0 0 0 56.433-75.35c3.862-7.645 7.94-15.185 11.586-22.935 8.046-17.102 15.995-36.85 22.895-54.384 6.898-17.527 17.852-46.13 23.724-63.814 3.63-10.934 6.717-22.041 10.075-33.062 9.047-42.477 4.52-20.138 12.057-59.383 2.376-12.37 5.132-28.017 8.499-40.352 3.435-12.586 5.728-17.405 10.444-29.181 11.556-33.09-2.298 6.928 7.711-22.985.987-2.948 2.228-5.812 3.102-8.795.57-1.946.746-3.989 1.222-5.96.202-.837.597-1.618.81-2.452.136-.536.156-1.096.235-1.644h.997z" opacity=".462" fill="#28170b" transform="translate(516.192 -32.23)"/><path clip-path="url(#l)" d="M-353.058 264.641c-.295 5.03.293 10.083.198 15.105-.058 3.118-.374 6.226-.531 9.34-.226 4.48-.412 8.961-.618 13.441l-.812 15.7c-.89 13.801-.282 18.353-4.629 31.51-1.566 4.741-3.775 9.255-5.99 13.73-5.735 11.596-6.025 10.2-12.401 20.286-1.659 2.624-3.148 5.35-4.722 8.026-2.971 4.501-3.96 9.922-6.45 14.637-1.308 2.477-3.08 4.68-4.535 7.073-1.66 2.732-3.194 5.54-4.808 8.3-1.807 3.092-3.746 6.11-5.455 9.257-1.902 3.502-3.58 7.12-5.37 10.679-1.846 4.217-3.705 8.428-5.538 12.65-5.254 12.103-7.21 16.021-11.28 28.96-5.503 17.493-4.816 18.703-9.719 36.524-1.706 6.203-3.679 12.33-5.518 18.496a3121.893 3121.893 0 0 0-23.004 71.778c-1.805 5.875-3.459 11.797-5.318 17.655-1.715 5.4-3.603 10.744-5.404 16.117-1.963 4.635-3.796 9.327-5.888 13.905-12.335 26.996.403-2.937-10.178 21.092-3.459 7.855-6.33 15.933-9.231 24.004-2.48 7.285-5.612 14.503-5.722 22.321-.048 3.433.279 4.474.848 7.71.91 3.228.396 1.782 1.45 4.367l-.98.038c-1.036-2.601-.531-1.148-1.425-4.389-.56-3.249-.883-4.288-.829-7.733.125-7.83 3.27-15.051 5.765-22.345 2.92-8.072 5.802-16.156 9.28-24.01 10.577-23.881-2.08 5.723 10.245-21.086 2.103-4.575 3.945-9.266 5.917-13.899 1.809-5.37 3.707-10.713 5.426-16.114 1.864-5.857 3.515-11.78 5.32-17.655a3126.787 3126.787 0 0 1 23.015-71.776c1.84-6.165 3.812-12.29 5.517-18.494 4.843-17.624 4.265-19.221 9.677-36.531 4.088-13.076 5.955-16.747 11.24-28.967 1.826-4.224 3.672-8.438 5.508-12.657 1.784-3.561 3.457-7.181 5.352-10.685 1.703-3.147 3.637-6.164 5.438-9.257 1.608-2.762 3.133-5.572 4.79-8.305 1.448-2.39 3.216-4.588 4.522-7.058 2.494-4.72 3.504-10.14 6.476-14.649 1.581-2.676 3.075-5.406 4.743-8.029 6.444-10.134 6.674-8.6 12.468-20.268 2.22-4.47 4.43-8.979 6-13.716 4.367-13.18 3.744-17.664 4.63-31.497 2.458-49.66-.69 14.773 1.331-29.14.143-3.112.448-6.218.493-9.332.073-5.024-.525-10.076-.285-15.109h.991z" opacity=".462" fill="#28170b" transform="translate(516.192 -32.23)"/><path clip-path="url(#m)" d="M-434.135 706.902c5.783-8.426 7.753-18.562 9.53-28.432 2.757-15.316 2.286-14.207 3.948-30.912 1.932-18.584 2.198-27.747 6.979-46.098 4.101-15.741 13.109-39.935 18.812-54.952.238-.627 19.576-49.874 20.471-52.152 10.91-31.37 21.52-62.933 27.667-95.645 3.925-20.89 5.09-33.13 7.679-54.192 2.86-24.35 4.794-48.794 6.13-73.271.386-7.042.85-14.083.985-21.133.123-6.454-.138-12.91-.207-19.364h.712c.06 6.455.313 12.912.179 19.367-.147 7.051-.628 14.092-1.02 21.134-1.365 24.478-3.29 48.926-6.19 73.274-2.524 20.534-3.836 33.833-7.641 54.199-6.115 32.725-16.782 64.28-27.694 95.653-2.232 5.658-18.85 47.746-20.521 52.15-5.812 15.316-14.57 38.902-18.723 54.944-4.831 18.664-4.98 27.21-6.874 46.093-1.638 16.979-1.12 15.383-3.864 30.921-1.744 9.878-3.668 20.001-9.369 28.48l-.99-.064z" opacity=".462" fill="#28170b" transform="translate(516.192 -32.23)"/><path clip-path="url(#n)" d="M-476.685 765.961c1.162-1.85 3.427-2.535 4.633-4.375 2.004-3.057 3.576-8.602 4.54-11.665 1.118-3.547 2.154-7.119 3.23-10.679 1.354-4.278 2.741-8.547 4.06-12.836 1.652-5.365 3.376-10.709 4.851-16.124 3.579-13.136 5.594-23.457 8.394-36.883 5.691-27.292 4.014-19.206 9.559-48.311 2.106-9.917 4.178-19.842 6.318-29.751 5.62-26.023 8.92-39.574 13.958-65.863 6.594-34.41 11.572-69.053 16.557-103.722 4.253-32.235 8.898-64.408 14.344-96.465 1.729-10.176 3.639-20.321 5.355-30.5 3.358-19.914 5.97-37.3 9.033-57.182 4.348-30.837 2.23-16.07 6.34-44.306l.695.01c-4.195 28.235-2.038 13.468-6.45 44.305-2.869 18.435-5.987 38.846-9.085 57.183-1.72 10.178-3.633 20.323-5.366 30.499-5.458 32.056-10.115 64.229-14.388 96.463-4.998 34.667-9.973 69.312-16.552 103.725-5.007 26.192-8.342 39.928-13.9 65.864-2.122 9.909-4.17 19.834-6.255 29.751-5.416 28.742-3.884 21.336-9.46 48.315-2.838 13.732-4.721 23.48-8.346 36.89-1.464 5.414-3.164 10.761-4.799 16.126-1.307 4.29-2.683 8.558-4.025 12.837-1.06 3.56-2.08 7.133-3.178 10.683-.933 3.017-2.5 8.668-4.465 11.713-1.197 1.854-3.47 2.514-4.604 4.387l-.994-.089z" opacity=".462" fill="#28170b" transform="translate(516.192 -32.23)"/><path clip-path="url(#o)" d="M-461.53 715.76c2.792-5.205 6.449-9.871 9.865-14.666 10.464-14.69-2.772 3.524 8.71-12.189 11.584-17.469 23.444-35.113 30.512-55.01 1.98-5.574 3.43-11.322 5.146-16.984 1.904-6.775 3.804-13.552 5.712-20.326 4.606-16.362 7.904-26.99 11.436-43.803 4.293-20.439 5.908-34.059 8.798-54.997 1.314-9.521 2.58-19.049 3.871-28.573 3.135-26.42 7.891-52.643 10.525-79.126 1.744-17.537 2.39-35.186 2.869-52.793-.038-6.854.153-11.732-.573-18.36-.199-1.817-.614-3.604-.92-5.407l.925-.015c.295 1.805.699 3.597.887 5.417.682 6.6.47 11.557.474 18.368-.55 17.608-1.245 35.261-3.022 52.798-2.684 26.481-7.492 52.697-10.6 79.125-1.292 9.525-2.571 19.051-3.879 28.574-2.907 21.163-4.403 34.362-8.708 55.005-3.584 17.182-6.723 27.107-11.399 43.806-1.897 6.773-3.773 13.553-5.66 20.329-1.703 5.664-3.14 11.416-5.11 16.993-7.026 19.896-18.875 37.544-30.397 55.035-11.377 15.606 1.677-2.407-8.676 12.191-3.397 4.789-7.05 9.442-9.797 14.654l-.989-.046z" opacity=".462" fill="#28170b" transform="translate(516.192 -32.23)"/><path clip-path="url(#p)" d="M-451.796 719.399c.305-.97.584-1.947 1.045-2.862.42-.834.943-1.613 1.414-2.42.532-1.012 1.089-2.012 1.595-3.037 2.058-4.166 1.808-3.896 3.588-8.647.275-1.69.624-3.37.826-5.07.36-3.037.543-6.09.857-9.131.914-8.86 2.126-20.735 3.94-29.315.609-2.884 8.16-30.132 8.81-32.49 4.382-16.326 5.24-19.965 10.076-36.21 1.87-6.284 3.93-12.51 5.77-18.803 2.073-7.093 3.918-14.25 5.966-21.35 14.794-51.285.09 1.732 14.637-51.43 2.211-8.907 4.412-17.815 6.633-26.718 2.2-8.821 4.394-17.644 6.633-26.456 3.942-15.52 8.283-31.408 11.75-47.065 2.38-10.753 4.806-24.499 6.82-35.51 2.152-12.457 3.564-25.024 6.35-37.362l.917.02c-2.855 12.33-4.317 24.899-6.51 37.356-1.989 10.681-4.602 25.156-6.917 35.512-3.418 15.282-7.976 31.96-11.82 47.063-2.244 8.811-4.436 17.635-6.637 26.456-2.222 8.904-4.42 17.813-6.631 26.719-14.832 54.358.452-.989-14.557 51.433-2.033 7.101-3.863 14.26-5.927 21.353-1.832 6.293-3.89 12.52-5.758 18.802-4.95 16.651-5.581 19.477-10.053 36.21-.582 2.12-8.23 29.823-8.788 32.482-1.836 8.737-2.96 20.312-3.836 29.31-.296 3.043-.448 6.1-.794 9.138-.195 1.708-.553 3.392-.829 5.089-1.772 4.783-1.505 4.47-3.56 8.66-.503 1.027-1.057 2.029-1.585 3.043-.467.801-.985 1.575-1.4 2.405-.464.926-.727 1.885-1.026 2.863l-1-.038z" opacity=".462" fill="#28170b" transform="translate(516.192 -32.23)"/><path clip-path="url(#q)" d="M-475.917 680.77c.13-.667.192-1.351.388-2.002.376-1.252.93-2.446 1.324-3.693 2.054-6.49 3.527-13.035 6.424-19.247 1.254-2.69 2.776-5.245 4.163-7.867 10.345-16.838 16.52-35.673 24.004-53.835 19.937-48.383-3.357 10.169 17.43-42.629 3.286-8.37 6.594-16.733 9.858-25.113 10.911-28.01 9.891-26.494 21.82-54.236 9.047-21.041 13.855-30.325 22.31-51.514 3.112-7.798 5.865-15.734 8.798-23.601 2.528-6.885 5.085-13.759 7.583-20.655 5.982-16.514 8.589-23.746 13.89-40.52 6.38-20.192 12.228-40.567 18.23-60.872 15.183-46.217 33.866-91.173 51.997-136.283 5.652-14.114 10.6-28.49 15.75-42.79l.812.028c-5.198 14.295-10.173 28.676-15.86 42.789-18.232 45.069-36.952 90.016-52.011 136.275-6.004 20.307-11.861 40.68-18.24 60.874-5.243 16.597-7.958 24.19-13.897 40.523-2.509 6.897-5.089 13.769-7.633 20.653-2.945 7.867-5.716 15.802-8.837 23.602-8.799 21.997-12.93 29.649-22.335 51.513-11.844 27.53-10.99 26.427-21.783 54.236-3.252 8.38-6.545 16.743-9.817 25.115-20.881 53.282 2.658-6.177-17.344 42.632-7.443 18.162-13.56 37-23.852 53.85-1.382 2.62-2.897 5.173-4.145 7.858-2.887 6.213-4.349 12.75-6.366 19.247-.385 1.241-.93 2.43-1.295 3.678-.192.659-.247 1.35-.37 2.025l-.996-.04z" opacity=".462" fill="#28170b" transform="translate(516.192 -32.23)"/><path clip-path="url(#r)" d="M-505.735 707.132c1.724-1.678 3.197-3.493 4.334-5.625 1.459-2.733.778-2.318 2.46-5.195.828-1.418 1.79-2.755 2.685-4.133 2.243-3.073 6.975-9.37 8.67-12.531 4.527-8.435 7.91-19.287 10.815-28.006 8.487-26.505 4.18-13.4 12.913-39.317 5.77-17.068 13.45-33.37 20.478-49.925 2.381-5.607 11.115-27.235 13.476-32.706 2.224-5.156 4.623-10.235 6.934-15.352 2.337-4.75 4.67-9.502 7.01-14.25 2.35-4.766 4.912-9.431 7.062-14.29 9.797-22.14 16.008-45.621 22.502-68.869 4.242-15.864 7.412-32.021 12.15-47.756.74-2.455 3.035-9.1 3.968-11.828.625-1.52 1.17-3.075 1.877-4.558 1.02-2.14 2.345-4.12 3.412-6.237 1.491-2.956 2.721-5.95 3.841-9.062 1.93-9.054 4.293-17.995 7.023-26.844 1.857-5.163 1.718-5.552 4.35-10.095 1.375-2.375 3.154-4.506 4.475-6.91.967-1.76 1.745-4.14 2.422-6.005 1.418-4.725.772-2.312 1.927-7.24l.951.022c-1.152 4.935-.508 2.519-1.92 7.252-.685 1.895-1.444 4.242-2.428 6.025-1.327 2.403-3.113 4.529-4.496 6.9-2.661 4.562-2.492 4.883-4.366 10.079a314.845 314.845 0 0 0-6.982 26.849c-1.117 3.117-2.34 6.119-3.837 9.076-1.07 2.115-2.412 4.09-3.439 6.227-.711 1.48-1.257 3.034-1.886 4.551-.903 2.607-3.316 9.519-4.02 11.822-4.807 15.724-8.013 31.886-12.28 47.753-6.522 23.233-12.704 46.741-22.48 68.883-2.146 4.86-4.71 9.526-7.061 14.29-2.344 4.748-4.683 9.498-7.025 14.247-2.317 5.116-4.724 10.192-6.95 15.348-2.336 5.409-11.108 27.163-13.464 32.71-7.032 16.557-14.743 32.849-20.527 49.916-19.657 58.225 6.844-20.64-12.89 39.317-2.934 8.914-6.103 19.484-10.653 28.034-1.645 3.091-6.428 9.51-8.62 12.533-.885 1.375-1.836 2.71-2.657 4.124-1.61 2.774-1.049 2.554-2.455 5.204-1.134 2.137-2.597 3.963-4.31 5.658l-.99-.086z" opacity=".462" fill="#28170b" transform="translate(516.192 -32.23)"/></g><path d="M229.937 458.626l98.877 38.024c41.25 15.863 18.296 104.666-6.555 200.42l-20.383 78.538c-28.26 108.888-106.115 176.076-153.231 158.587l-91.04-33.793C10.487 882.913-16.84 772.98 42.613 677.48l49.647-79.748c52.284-83.982 96.424-154.968 137.676-139.105z" fill="#520" filter="url(#s)" transform="translate(0 -452.36)"/><path d="M212.012 461.967c-29.31 14.242-48.15 34.597-66.987 57.09-50.31 60.076-93.782 128.618-118.698 202.911-9.375 27.954-19.273 61.275-10.402 87.837 9.5 26.635 37.495 49.275 66.884 41.744 27.16-6.882 50.707-23.269 74.34-37.664 38.75-27.885 73.134-62.926 97.82-103.947 22.907-38.744 34.031-83.133 38.61-127.59 4.257-31.175 10.228-67.065-10.792-93.834-16.88-20.525-45.727-25.226-70.775-26.547z" opacity=".213" fill="url(#t)" transform="translate(0 -452.36)"/><path d="M229.937 458.626l98.877 38.024c41.25 15.863 18.296 104.666-6.555 200.42l-20.383 78.538c-28.26 108.888-106.115 176.076-153.231 158.587l-91.04-33.793C10.487 882.913-16.84 772.98 42.613 677.48l49.647-79.748c52.284-83.982 96.424-154.968 137.676-139.105z" opacity=".08" fill="url(#u)" filter="url(#v)" transform="translate(0 -452.36)"/></svg>