<svg xmlns="http://www.w3.org/2000/svg" xmlns:xlink="http://www.w3.org/1999/xlink" width="170.469" height="42.444"><defs><linearGradient id="a"><stop offset="0" stop-color="#fff"/><stop offset="1" stop-color="#707070"/></linearGradient><linearGradient xlink:href="#a" id="b" gradientUnits="userSpaceOnUse" gradientTransform="translate(238.531 2.143)" x1="10.593" y1="67.031" x2="53.03" y2="67.031"/><linearGradient xlink:href="#a" id="c" gradientUnits="userSpaceOnUse" gradientTransform="translate(-297.611 11.716) scale(.85718)" x1="10.593" y1="67.031" x2="53.03" y2="67.031"/><linearGradient xlink:href="#a" id="d" gradientUnits="userSpaceOnUse" gradientTransform="translate(151.656 2.143)" x1="55.03" y1="67.031" x2="97.468" y2="67.031"/><linearGradient xlink:href="#a" id="e" gradientUnits="userSpaceOnUse" gradientTransform="translate(-255.174 11.716) scale(.85718)" x1="10.593" y1="67.031" x2="53.03" y2="67.031"/><linearGradient xlink:href="#a" id="f" gradientUnits="userSpaceOnUse" gradientTransform="translate(65.219 2.143)" x1="99.03" y1="67.031" x2="141.468" y2="67.031"/><linearGradient xlink:href="#a" id="g" gradientUnits="userSpaceOnUse" gradientTransform="translate(-212.736 11.716) scale(.85718)" x1="10.593" y1="67.031" x2="53.03" y2="67.031"/><linearGradient xlink:href="#a" id="h" gradientUnits="userSpaceOnUse" gradientTransform="translate(-21.219 2.143)" x1="143.03" y1="67.031" x2="185.468" y2="67.031"/><linearGradient xlink:href="#a" id="i" gradientUnits="userSpaceOnUse" gradientTransform="translate(-170.299 11.716) scale(.85718)" x1="10.593" y1="67.031" x2="53.03" y2="67.031"/></defs><g color="#000"><path style="marker:none" fill="url(#b)" stroke="#000" stroke-linecap="round" stroke-linejoin="round" overflow="visible" d="M249.624 48.455h41.438v41.438h-41.438z" transform="translate(-121.531 -47.963)"/><path style="marker:none" transform="matrix(-1 0 0 1 -121.531 -47.963)" fill="url(#c)" overflow="visible" d="M-288.103 51.414h35.519v35.519h-35.519z"/><path d="M127.892 32.337v4.087h41.84v-4.087h-41.84z" style="text-indent:0;text-align:start;line-height:normal;text-transform:none;block-progression:tb;marker:none;-inkscape-font-specification:Sans" font-weight="400" fill="#0f0" stroke="#000" stroke-width="1.472" stroke-linecap="round" stroke-linejoin="bevel" overflow="visible" font-family="Sans"/><path d="M141.016 4.82a3.755 3.755 0 0 0-.531.093c-1.779.483-4.668 23.2 4.5 26.5h6.937c.227-.1.423-.217.563-.375.206-.307.004-.668-.22-.906a5.512 5.512 0 0 0-.5-.47c1.105-5.951 1.127-7.872 1.938-7.312.491.12 1.126.128 1.5-.25.302-.387-.077-.853-.375-1.125-.24-.24-.64-.385-.78-.687-.287-.613-.221-1.363 0-2 .345-.998 1.167-1.832 1.968-2.531.83-.725 1.96-.646 2.844-1.657.602-.962-.685-1.457-1.25-2-.851-.817-3.063-1.75-3.063-1.75-.178-1.009-1.075-.741-1.187.125-.94-1.083-1.864-.812-1.782.594-.004.272-.479 2.2-1.25 3.25-1.123 1.721-2.81 3.303-3.937 5.031-1.353 1.914-2.74 3.97-3.031 6.25-.145 1.126.06 2.352.687 3.344-2.035-.683-2.375-3.076-2.906-4.875-1.76-5.959 4.95-19.791-.125-19.25z" style="text-indent:0;text-align:start;line-height:normal;text-transform:none;block-progression:tb;marker:none;-inkscape-font-specification:Sans" font-weight="400" fill="#0f0" fill-rule="evenodd" stroke="#000" stroke-linecap="round" stroke-linejoin="round" overflow="visible" font-family="Sans"/><g><path style="marker:none" fill="url(#d)" stroke="#000" stroke-linecap="round" stroke-linejoin="round" overflow="visible" d="M207.187 48.455h41.438v41.438h-41.438z" transform="translate(-121.531 -47.963)"/><path transform="matrix(-1 0 0 1 -121.531 -47.963)" style="marker:none" fill="url(#e)" overflow="visible" d="M-245.665 51.414h35.519v35.519h-35.519z"/><path style="text-indent:0;text-align:start;line-height:normal;text-transform:none;block-progression:tb;marker:none;-inkscape-font-specification:Sans" d="M96.612 32.37l-.369 1.005.37.335-.37.67.37.671-.37.335.37 1.006H85.454V32.37h10.788zM116.137 32.37l.369 1.005-.37.335.37.67-.37.671.37.335-.37 1.006h11.158V32.37h-10.788z" font-weight="400" fill="#f95" stroke="#000" stroke-width="1.494" stroke-linecap="round" stroke-linejoin="round" overflow="visible" font-family="Sans"/><path style="text-indent:0;text-align:start;line-height:normal;text-transform:none;block-progression:tb;marker:none;-inkscape-font-specification:Sans" d="M98.578 4.827a3.755 3.755 0 0 0-.53.093c-1.78.483-4.669 23.2 4.5 26.5h6.937c.226-.099.423-.217.562-.375.206-.307.004-.668-.219-.906a5.512 5.512 0 0 0-.5-.469c1.105-5.952 1.126-7.873 1.938-7.312.49.12 1.126.128 1.5-.25.302-.388-.077-.854-.375-1.125-.24-.24-.64-.385-.781-.688-.286-.613-.22-1.362 0-2 .345-.998 1.167-1.831 1.968-2.53.83-.726 1.96-.646 2.844-1.657.603-.962-.685-1.457-1.25-2-.85-.818-3.062-1.75-3.062-1.75-.179-1.01-1.075-.742-1.188.125-.94-1.084-1.863-.813-1.781.594-.004.271-.48 2.2-1.25 3.25-1.123 1.72-2.81 3.303-3.938 5.031-1.353 1.914-2.739 3.97-3.03 6.25-.145 1.126.06 2.351.687 3.344-2.035-.684-2.376-3.077-2.907-4.875-1.759-5.96 4.951-19.792-.125-19.25z" font-weight="400" fill="#f95" fill-rule="evenodd" stroke="#000" stroke-linecap="round" stroke-linejoin="round" overflow="visible" font-family="Sans"/></g><g><path style="marker:none" fill="url(#f)" stroke="#000" stroke-linecap="round" stroke-linejoin="round" overflow="visible" d="M164.749 48.455h41.438v41.438h-41.438z" transform="translate(-121.531 -47.963)"/><path style="marker:none" transform="matrix(-1 0 0 1 -121.531 -47.963)" fill="url(#g)" overflow="visible" d="M-203.228 51.414h35.519v35.519h-35.519z"/><path d="M59.872 11.187c-.085.01-.178.024-.277.049-.927.252-2.434 12.096 2.346 13.817h3.618a.825.825 0 0 0 .293-.196c.107-.16.002-.348-.114-.472a2.876 2.876 0 0 0-.261-.245c.576-3.103.587-4.105 1.01-3.812.256.062.587.066.782-.13.158-.203-.04-.446-.195-.587-.126-.125-.334-.201-.408-.359-.149-.32-.114-.71 0-1.042.18-.521.61-.956 1.027-1.32.433-.378 1.022-.337 1.483-.864.314-.501-.357-.76-.652-1.043-.444-.426-1.597-.912-1.597-.912-.093-.526-.56-.387-.619.065-.49-.565-.972-.424-.929.31-.002.141-.25 1.147-.651 1.694-.586.898-1.466 1.723-2.053 2.623-.706.998-1.428 2.07-1.58 3.26-.076.586.031 1.225.358 1.742-1.061-.356-1.239-1.603-1.516-2.541-.917-3.107 2.582-10.32-.065-10.037z" style="text-indent:0;text-align:start;line-height:normal;text-transform:none;block-progression:tb;marker:none;-inkscape-font-specification:Sans" font-weight="400" fill="#d45500" fill-rule="evenodd" stroke="#000" stroke-linecap="round" stroke-linejoin="round" overflow="visible" font-family="Sans"/><path style="text-indent:0;text-align:start;line-height:normal;text-transform:none;block-progression:tb;marker:none;-inkscape-font-specification:Sans" d="M43.294 32.046v4.67H84.58v-4.67H43.294z" font-weight="400" fill="#d45500" stroke="#000" stroke-width="1.563" stroke-linecap="round" stroke-linejoin="round" overflow="visible" font-family="Sans"/></g><g><path style="marker:none" fill="url(#h)" stroke="#000" stroke-linecap="round" stroke-linejoin="round" overflow="visible" d="M122.312 48.455h41.438v41.438h-41.438z" transform="translate(-121.531 -47.963)"/><path transform="matrix(-1 0 0 1 -121.531 -47.963)" style="marker:none" fill="url(#i)" overflow="visible" d="M-160.79 51.414h35.519v35.519h-35.519z"/><path style="marker:none" d="M28.402 19.442c-1.296-.056-2.336 1.782-1.927 2.997.306 1.079 2.306 1.515 3.343 1.106.91-.322 1.47-1.54 1.278-2.48-.188-.911-1.755-1.644-2.694-1.623z" fill="#d35f5f" stroke="#000" stroke-linecap="round" stroke-linejoin="round" overflow="visible"/><path style="text-indent:0;text-align:start;line-height:normal;text-transform:none;block-progression:tb;marker:none;-inkscape-font-specification:Sans" d="M13.94 5.23a3.637 3.637 0 0 0-.515.091c-1.724.469-4.526 22.496 4.363 25.695h6.727c.22-.096.41-.21.546-.363.2-.298.004-.648-.213-.88a5.35 5.35 0 0 0-.484-.454c1.07-5.77 1.091-7.634 1.878-7.09.476.116 1.092.124 1.455-.242.292-.376-.075-.828-.364-1.091-.233-.233-.62-.373-.757-.667-.278-.594-.214-1.321 0-1.939.334-.968 1.132-1.776 1.908-2.454a2.48 2.48 0 0 1 .453-.31c.114-.063.232-.117.351-.168.32-.136.653-.247.98-.405a2.94 2.94 0 0 0 .974-.723c.584-.933-.664-1.413-1.212-1.94-.825-.792-2.97-1.696-2.97-1.696-.173-.979-1.042-.72-1.151.12-.91-1.05-1.807-.787-1.727.577-.004.263-.465 2.133-1.212 3.15-1.089 1.67-2.725 3.204-3.818 4.88-1.312 1.855-2.656 3.848-2.94 6.06-.139 1.091.06 2.279.667 3.241-1.973-.662-2.303-2.982-2.817-4.726-1.706-5.778 4.8-19.19-.122-18.665z" font-weight="400" fill="#d35f5f" fill-rule="evenodd" stroke="#000" stroke-linecap="round" stroke-linejoin="round" overflow="visible" font-family="Sans"/><path d="M.78 32.11v4.542h41.438v-4.543H.781z" style="text-indent:0;text-align:start;line-height:normal;text-transform:none;block-progression:tb;marker:none;-inkscape-font-specification:Sans" font-weight="400" fill="#d35f5f" stroke="#000" stroke-width="1.544" stroke-linecap="round" stroke-linejoin="round" overflow="visible" font-family="Sans"/><path d="M30.043 26.765c-1.296-.056-2.336 1.783-1.927 2.998.307 1.078 2.307 1.514 3.344 1.106.909-.322 1.47-1.54 1.278-2.48-.189-.912-1.755-1.645-2.695-1.624z" style="marker:none" fill="#d35f5f" stroke="#000" stroke-linecap="round" stroke-linejoin="round" overflow="visible"/><path style="marker:none" d="M34.21 26.955c-1.296-.056-2.336 1.782-1.927 2.997.307 1.079 2.307 1.515 3.344 1.106.909-.322 1.47-1.54 1.278-2.48-.189-.911-1.755-1.644-2.695-1.623z" fill="#d35f5f" stroke="#000" stroke-linecap="round" stroke-linejoin="round" overflow="visible"/><path d="M32.864 23.99c-1.14-.049-2.055 1.569-1.696 2.638.27.949 2.03 1.332 2.942.973.8-.283 1.293-1.356 1.125-2.182-.166-.802-1.544-1.447-2.37-1.429z" style="marker:none" fill="#d35f5f" stroke="#000" stroke-linecap="round" stroke-linejoin="round" overflow="visible"/></g></g></svg>