<svg version="1.1" viewBox="0 0 240 240" xmlns="http://www.w3.org/2000/svg" xmlns:xlink="http://www.w3.org/1999/xlink"><defs><linearGradient id="a"><stop stop-color="#666" offset="0"/><stop stop-color="#222" offset=".5"/><stop stop-color="#fff" offset="1"/></linearGradient><radialGradient id="u" cx="-47.638" cy="49.491" r="12.5" gradientTransform="matrix(2.6282 0 -1.4739e-7 2.1431 106.11 310.87)" gradientUnits="userSpaceOnUse"><stop stop-color="#f55" offset="0"/><stop stop-color="#ff5561" offset=".5"/><stop stop-color="#4b1920" offset="1"/></radialGradient><radialGradient id="t" cx="545" cy="7.3622" r="30" gradientTransform="matrix(.31845 0 0 .074074 230.91 421.47)" gradientUnits="userSpaceOnUse" spreadMethod="reflect"><stop stop-color="#ba7d2d" offset="0"/><stop stop-color="#ebad48" offset=".5"/><stop stop-color="#bf8232" offset="1"/></radialGradient><linearGradient id="w" x1="316.32" x2="328.28" y1="70.855" y2="21.366" gradientTransform="matrix(.95685 0 0 .67358 45.737 400.18)" gradientUnits="userSpaceOnUse" xlink:href="#a"/><radialGradient id="s" cx="307.72" cy="25.117" r="30" gradientTransform="matrix(1.4967 1.0021e-5 -5.4662e-7 .14514 -117.35 418.98)" gradientUnits="userSpaceOnUse" xlink:href="#a" spreadMethod="reflect"/><linearGradient id="v" x1="175" x2="175" y1="317.36" y2="262.36" gradientTransform="translate(0 134.35)" gradientUnits="userSpaceOnUse" spreadMethod="reflect"><stop stop-color="#3e3200" offset="0"/><stop stop-color="#4b3e00" offset=".26697"/><stop stop-color="#c8a000" offset=".3123"/><stop stop-color="#bf9900" offset=".63388"/><stop stop-color="#ffeeab" offset=".68152"/><stop stop-color="#ffce0b" offset="1"/></linearGradient><radialGradient id="r" cx="-12.931" cy="75.759" r="22.5" gradientTransform="matrix(7.1076 0 0 1.3211 105.61 346.81)" gradientUnits="userSpaceOnUse" xlink:href="#a" spreadMethod="reflect"/><radialGradient id="q" cx="9.4513" cy="175.68" r="1.0225" gradientTransform="matrix(2.0551 0 0 19.357 -19.884 -3223.4)" gradientUnits="userSpaceOnUse" xlink:href="#a" spreadMethod="reflect"/><radialGradient id="p" cx="9.4513" cy="175.68" r="1.0225" gradientTransform="matrix(2.0551 0 0 19.357 -16.839 -3223.4)" gradientUnits="userSpaceOnUse" xlink:href="#a" spreadMethod="reflect"/><radialGradient id="o" cx="9.4513" cy="175.68" r="1.0225" gradientTransform="matrix(2.0551 0 0 19.357 -13.794 -3223.4)" gradientUnits="userSpaceOnUse" xlink:href="#a" spreadMethod="reflect"/><radialGradient id="n" cx="9.4513" cy="175.68" r="1.0225" gradientTransform="matrix(2.0551 0 0 19.357 -10.749 -3223.4)" gradientUnits="userSpaceOnUse" xlink:href="#a" spreadMethod="reflect"/><radialGradient id="m" cx="9.4513" cy="175.68" r="1.0225" gradientTransform="matrix(-3.1623 0 0 25.809 90.784 -4106.7)" gradientUnits="userSpaceOnUse" xlink:href="#a" spreadMethod="reflect"/><radialGradient id="l" cx="9.4513" cy="175.68" r="1.0225" gradientTransform="matrix(-3.1623 0 0 25.809 86.099 -4106.7)" gradientUnits="userSpaceOnUse" xlink:href="#a" spreadMethod="reflect"/><radialGradient id="k" cx="9.4513" cy="175.68" r="1.0225" gradientTransform="matrix(-3.1623 0 0 25.809 81.413 -4106.7)" gradientUnits="userSpaceOnUse" xlink:href="#a" spreadMethod="reflect"/><radialGradient id="j" cx="9.4513" cy="175.68" r="1.0225" gradientTransform="matrix(-3.1623 0 0 25.809 76.728 -4106.7)" gradientUnits="userSpaceOnUse" xlink:href="#a" spreadMethod="reflect"/><radialGradient id="i" cx="10.077" cy="175.59" r="1.0225" gradientTransform="matrix(1 0 0 17.603 0 -2915.4)" gradientUnits="userSpaceOnUse" xlink:href="#a" spreadMethod="reflect"/><radialGradient id="h" cx="13.122" cy="175.59" r="1.0225" gradientTransform="matrix(1 0 0 17.603 0 -2915.4)" gradientUnits="userSpaceOnUse" xlink:href="#a" spreadMethod="reflect"/><radialGradient id="g" cx="16.167" cy="175.59" r="1.0225" gradientTransform="matrix(1 0 0 17.603 0 -2915.4)" gradientUnits="userSpaceOnUse" xlink:href="#a" spreadMethod="reflect"/><radialGradient id="f" cx="19.212" cy="175.59" r="1.0225" gradientTransform="matrix(1 0 0 17.603 0 -2915.4)" gradientUnits="userSpaceOnUse" xlink:href="#a" spreadMethod="reflect"/><radialGradient id="e" cx="-10.077" cy="175.59" r="1.0225" gradientTransform="matrix(1 0 0 17.603 0 -2915.4)" gradientUnits="userSpaceOnUse" xlink:href="#a"/><radialGradient id="d" cx="-13.122" cy="175.59" r="1.0225" gradientTransform="matrix(1 0 0 17.603 0 -2915.4)" gradientUnits="userSpaceOnUse" xlink:href="#a"/><radialGradient id="c" cx="-16.167" cy="175.59" r="1.0225" gradientTransform="matrix(1 0 0 17.603 0 -2915.4)" gradientUnits="userSpaceOnUse" xlink:href="#a"/><radialGradient id="b" cx="-19.212" cy="175.59" r="1.0225" gradientTransform="matrix(1 0 0 17.603 0 -2915.4)" gradientUnits="userSpaceOnUse" xlink:href="#a"/></defs><g transform="translate(8.5443 -159.73)"><g transform="matrix(.64279 .76604 -.76604 .64279 357.42 -183.59)"><g transform="matrix(.93073 0 0 .93073 9.734 119.36)"><path d="m280.08 313.36c-3.4533 5.6819-4.1858 12.719-6.8447 18.648-1.7214 6.7578-4.0638 13.779-6.2032 20.679-1.3381 3.0229-1.8786 6.2738-3.1381 9.3444-5.6154 19.699-12.155 39.288-18.126 58.945-12.234 39.305-24.468 78.609-36.702 117.91-0.19104 9.7988-0.87372 19.924-0.94286 29.454 6.7458-12.83 13.755-25.62 20.226-38.575 18.193-58.449 36.387-116.9 54.579-175.35 1.1-2.1031 1.2319-4.5075 2.3112-6.6467 1.6616-6.7888 4.2101-13.879 6.1803-20.636 2.111-6.0488 3.7704-12.507 5.8719-18.841-0.25415-6.3607-8.0345-0.11845-11.619 0.79704-2.2037 0.88757-4.1047 2.4322-5.592 4.2653z" color="#000000" fill="#333" opacity=".40465"/><g transform="matrix(.11587 .65715 .65715 -.11587 -118.3 351.84)"><g><path d="m-32.524 402.03c-4.6167 0-8.3333 5.9467-8.3333 13.333v20c0 7.3867 3.7167 13.333 8.3333 13.333h4.1667 4.1667 8.3333v-13.333-20-13.333h-8.3333-4.1667-4.1667z" color="#000000" fill="url(#u)"/><path d="m404.46 425.35-57.321 23.333v-46.667z" color="#000000" fill="url(#t)"/><path d="m404.55 425.35-57.411 23.333v-46.667z" color="#000000" fill="url(#w)" opacity=".57674"/><path d="m404.46 425.35c0 1.0668-15.773 7.2007-17.144 6.6673-1.3716-0.53338-1.3716-12.801 0-13.335 1.3716-0.53339 17.144 5.6005 17.144 6.6673z" color="#000000" fill="url(#s)"/><path d="m27.156 402.01v13.344 20 13.344h320.28c2.7478-1.4005 7.216-2.8129 5.5-6.375-0.5491-1.1398-0.85142-3.9362-5.4688-6.9688h-0.3125c2.7875-3.6235 8.5424-5.7299 7.8125-10.5 0-4.5796-4.1706-6.2122-7.8125-9.5 2.9263-3.113 5.6958-5.0702 5.2812-8.3438-0.30454-2.4046-5.2812-5-5.2812-5h-320z" color="#000000" fill="url(#v)"/><path d="m-17.857 402.05h69.244v46.632h-69.244z" color="#000000" fill="url(#r)"/></g><g transform="matrix(1.5387 0 0 1.3333 18.413 191.25)"><path transform="scale(-1,1)" d="m9.9384 157.59h0.27728c0.48967 0 0.88388 0.40547 0.88388 0.90914v34.182c0 0.50366-0.39421 0.90914-0.88388 0.90914h-0.27728c-0.48967 0-0.88388-0.40548-0.88388-0.90914v-34.182c0-0.50367 0.39421-0.90914 0.88388-0.90914z" color="#000000" fill="url(#q)"/><path transform="scale(-1,1)" d="m12.983 157.59h0.27728c0.48967 0 0.88388 0.40547 0.88388 0.90914v34.182c0 0.50366-0.39421 0.90914-0.88388 0.90914h-0.27728c-0.48967 0-0.88388-0.40548-0.88388-0.90914v-34.182c0-0.50367 0.39421-0.90914 0.88388-0.90914z" color="#000000" fill="url(#p)"/><path transform="scale(-1,1)" d="m16.029 157.59h0.27728c0.48967 0 0.88388 0.40547 0.88388 0.90914v34.182c0 0.50366-0.39421 0.90914-0.88388 0.90914h-0.27728c-0.48967 0-0.88388-0.40548-0.88388-0.90914v-34.182c0-0.50367 0.39421-0.90914 0.88388-0.90914z" color="#000000" fill="url(#o)"/><path transform="scale(-1,1)" d="m19.074 157.59h0.27728c0.48967 0 0.88388 0.40547 0.88388 0.90914v34.182c0 0.50366-0.39421 0.90914-0.88388 0.90914h-0.27728c-0.48967 0-0.88388-0.40548-0.88388-0.90914v-34.182c0-0.50367 0.39421-0.90914 0.88388-0.90914z" color="#000000" fill="url(#n)"/></g><g><path d="m44.894 401.37h-0.42667c-0.75348 0-1.3601 0.54063-1.3601 1.2122v45.576c0 0.67154 0.60659 1.2122 1.3601 1.2122h0.42667c0.75348 0 1.3601-0.54064 1.3601-1.2122v-45.576c0-0.67156-0.60659-1.2122-1.3601-1.2122z" color="#000000" fill="url(#m)"/><path d="m40.209 401.37h-0.42667c-0.75348 0-1.3601 0.54063-1.3601 1.2122v45.576c0 0.67154 0.60659 1.2122 1.3601 1.2122h0.42667c0.75348 0 1.3601-0.54064 1.3601-1.2122v-45.576c0-0.67156-0.60659-1.2122-1.3601-1.2122z" color="#000000" fill="url(#l)"/><path d="m35.523 401.37h-0.42667c-0.75348 0-1.3601 0.54063-1.3601 1.2122v45.576c0 0.67154 0.60659 1.2122 1.3601 1.2122h0.42667c0.75348 0 1.3601-0.54064 1.3601-1.2122v-45.576c0-0.67156-0.60659-1.2122-1.3601-1.2122z" color="#000000" fill="url(#k)"/><path d="m30.838 401.37h-0.42667c-0.75348 0-1.3601 0.54063-1.3601 1.2122v45.576c0 0.67154 0.60659 1.2122 1.3601 1.2122h0.42667c0.75348 0 1.3601-0.54064 1.3601-1.2122v-45.576c0-0.67156-0.60659-1.2122-1.3601-1.2122z" color="#000000" fill="url(#j)"/></g><g transform="matrix(1.5387 0 0 1.3333 60.317 191.25)" opacity=".37" stroke="#333" stroke-width=".69815"><path transform="scale(-1,1)" d="m9.9384 157.59h0.27728c0.48967 0 0.88388 0.40547 0.88388 0.90914v34.182c0 0.50366-0.39421 0.90914-0.88388 0.90914h-0.27728c-0.48967 0-0.88388-0.40548-0.88388-0.90914v-34.182c0-0.50367 0.39421-0.90914 0.88388-0.90914z" color="#000000" fill="url(#i)"/><path transform="scale(-1,1)" d="m12.983 157.59h0.27728c0.48967 0 0.88388 0.40547 0.88388 0.90914v34.182c0 0.50366-0.39421 0.90914-0.88388 0.90914h-0.27728c-0.48967 0-0.88388-0.40548-0.88388-0.90914v-34.182c0-0.50367 0.39421-0.90914 0.88388-0.90914z" color="#000000" fill="url(#h)"/><path transform="scale(-1,1)" d="m16.029 157.59h0.27728c0.48967 0 0.88388 0.40547 0.88388 0.90914v34.182c0 0.50366-0.39421 0.90914-0.88388 0.90914h-0.27728c-0.48967 0-0.88388-0.40548-0.88388-0.90914v-34.182c0-0.50367 0.39421-0.90914 0.88388-0.90914z" color="#000000" fill="url(#g)"/><path transform="scale(-1,1)" d="m19.074 157.59h0.27728c0.48967 0 0.88388 0.40547 0.88388 0.90914v34.182c0 0.50366-0.39421 0.90914-0.88388 0.90914h-0.27728c-0.48967 0-0.88388-0.40548-0.88388-0.90914v-34.182c0-0.50367 0.39421-0.90914 0.88388-0.90914z" color="#000000" fill="url(#f)"/></g><g transform="matrix(1.5387 0 0 1.3333 18.413 191.25)" stroke="#333" stroke-linecap="round" stroke-linejoin="round" stroke-width=".69815"><g opacity=".37" stroke="#333" stroke-linecap="round" stroke-linejoin="round" stroke-width=".69815"><g stroke="#333" stroke-linecap="round" stroke-linejoin="round" stroke-width=".69815"><path d="m-9.9384 157.59h-0.27728c-0.48967 0-0.88388 0.40547-0.88388 0.90914v34.182c0 0.50366 0.39421 0.90914 0.88388 0.90914h0.27728c0.48967 0 0.88388-0.40548 0.88388-0.90914v-34.182c0-0.50367-0.39421-0.90914-0.88388-0.90914z" color="#000000" fill="url(#e)"/><path d="m-12.983 157.59h-0.27728c-0.48967 0-0.88388 0.40547-0.88388 0.90914v34.182c0 0.50366 0.39421 0.90914 0.88388 0.90914h0.27728c0.48967 0 0.88388-0.40548 0.88388-0.90914v-34.182c0-0.50367-0.39421-0.90914-0.88388-0.90914z" color="#000000" fill="url(#d)"/><path d="m-16.029 157.59h-0.27728c-0.48967 0-0.88388 0.40547-0.88388 0.90914v34.182c0 0.50366 0.39421 0.90914 0.88388 0.90914h0.27728c0.48967 0 0.88388-0.40548 0.88388-0.90914v-34.182c0-0.50367-0.39421-0.90914-0.88388-0.90914z" color="#000000" fill="url(#c)"/><path d="m-19.074 157.59h-0.27728c-0.48967 0-0.88388 0.40547-0.88388 0.90914v34.182c0 0.50366 0.39421 0.90914 0.88388 0.90914h0.27728c0.48967 0 0.88388-0.40548 0.88388-0.90914v-34.182c0-0.50367-0.39421-0.90914-0.88388-0.90914z" color="#000000" fill="url(#b)"/></g></g></g></g></g></g></g></svg>
