<svg version="1.1" viewBox="0 0 93.254 155.63" xmlns="http://www.w3.org/2000/svg" xmlns:xlink="http://www.w3.org/1999/xlink"><defs><linearGradient id="b"><stop stop-color="#fff" offset="0"/><stop stop-color="#fff" offset=".22074"/><stop stop-color="#fff" offset=".48438"/><stop stop-color="#fff" stop-opacity="0" offset="1"/></linearGradient><linearGradient id="a"><stop stop-color="#434343" offset="0"/><stop offset=".5"/><stop stop-color="#161616" offset=".58871"/><stop offset="1"/></linearGradient><linearGradient id="g" x1="224.44" x2="233.38" y1="153.1" y2="186.45" gradientTransform="matrix(.44676 0 0 .44681 -79.52 32.701)" gradientUnits="userSpaceOnUse" spreadMethod="reflect"><stop stop-color="#f759ff" offset="0"/><stop stop-color="#47005e" offset="1"/></linearGradient><linearGradient id="m" x1="195.71" x2="321.43" y1="168.08" y2="168.08" gradientTransform="matrix(0 -.51551 -.51545 0 487.51 300.8)" gradientUnits="userSpaceOnUse" xlink:href="#a"/><linearGradient id="l" x1="195.71" x2="321.43" y1="168.08" y2="168.08" gradientTransform="matrix(0 -.51551 -.51545 0 487.51 372.76)" gradientUnits="userSpaceOnUse" xlink:href="#a"/><filter id="o" color-interpolation-filters="sRGB"><feGaussianBlur stdDeviation="0.3240161"/></filter><filter id="n" color-interpolation-filters="sRGB"><feGaussianBlur stdDeviation="0.3240161"/></filter><radialGradient id="f" cx="383.7" cy="241.48" r="35.621" gradientTransform="matrix(0 1 -1.0002 0 277.53 -275.9)" gradientUnits="userSpaceOnUse" xlink:href="#a"/><linearGradient id="k" x1="348.08" x2="419.32" y1="241.48" y2="241.48" gradientTransform="matrix(0 1 -1 0 277.48 -275.9)" gradientUnits="userSpaceOnUse" xlink:href="#a" spreadMethod="reflect"/><radialGradient id="e" cx="258.57" cy="168.08" r="62.857" gradientUnits="userSpaceOnUse" xlink:href="#a"/><radialGradient id="d" cx="383.7" cy="169.52" r="35.621" gradientTransform="matrix(0 1 -1.0002 0 205.55 -347.87)" gradientUnits="userSpaceOnUse" xlink:href="#a"/><linearGradient id="j" x1="348.08" x2="419.32" y1="169.52" y2="169.52" gradientTransform="matrix(0 1 -1 0 205.52 -347.87)" gradientUnits="userSpaceOnUse" xlink:href="#a" spreadMethod="reflect"/><radialGradient id="c" cx="258.57" cy="168.08" r="62.857" gradientTransform="matrix(.46603 0 0 .46609 -84.503 -42.491)" gradientUnits="userSpaceOnUse" xlink:href="#a"/><linearGradient id="i" x1="8.1918" x2="-56.126" y1="-87.594" y2="-20.254" gradientTransform="matrix(-1.0867 0 0 1.1973 75.306 64.583)" gradientUnits="userSpaceOnUse" xlink:href="#b" spreadMethod="reflect"/><linearGradient id="h" x1="8.1918" x2="-56.126" y1="-87.594" y2="-20.254" gradientTransform="matrix(-1.0847 0 0 1.1975 75.233 -7.3748)" gradientUnits="userSpaceOnUse" xlink:href="#b" spreadMethod="reflect"/></defs><g transform="translate(-354.25 -125.84)"><g><rect x="354.52" y="126.14" width="92.714" height="155.05" color="#000000" stroke="#000" stroke-linecap="round" stroke-linejoin="round" stroke-width=".55775"/><path transform="translate(364.88 131.66)" d="m36 73.281c-8.8325 1.89e-4 -17.665 3.3842-24.406 10.125-13.482 13.482-13.483 35.329 0 48.812s35.331 13.482 48.812 0c6.7408-6.7408 10.125-15.571 10.125-24.406s-3.3834-17.665-10.125-24.406c-6.7416-6.7416-15.574-10.125-24.406-10.125z" color="#000000" fill="url(#f)" stroke="url(#k)"/><path d="m400.88 271.86c-17.894 0-32.4-14.508-32.4-32.403 0-17.896 14.506-32.403 32.4-32.403s32.4 14.508 32.4 32.403c0 17.896-14.506 32.403-32.4 32.403z" color="#000000" fill="url(#l)" filter="url(#n)"/><path transform="matrix(.46603 0 0 .46609 280.37 161.12)" d="m321.43 168.08c0 34.715-28.142 62.857-62.857 62.857s-62.857-28.142-62.857-62.857 28.142-62.857 62.857-62.857 62.857 28.142 62.857 62.857z" color="#000000" fill="url(#e)"/></g><path transform="translate(364.88 131.66)" d="m35.656 85.625a3.1277 3.128 0 0 0-2.7812 3.1562v20.906a3.1277 3.128 0 1 0 6.25 0v-20.906a3.1277 3.128 0 0 0-3.1562-3.1562 3.1277 3.128 0 0 0-0.3125 0zm-8.25 3.9375a3.1282 3.1286 0 0 0-1.625 0.4375c-1.5521 0.8962-2.9622 1.9933-4.2188 3.25-1.2566 1.2567-2.3539 2.6665-3.25 4.2188-5.6205 9.736-2.2662 22.285 7.4688 27.906 9.7349 5.6211 22.286 2.2673 27.906-7.4688 5.6205-9.736 2.2662-22.285-7.4688-27.906a3.1355 3.1358 0 1 0-3.125 5.4375c6.8075 3.9308 9.1178 12.535 5.1875 19.344s-12.567 9.1183-19.375 5.1875c-6.8075-3.9308-9.0866-12.567-5.1562-19.375 1.2434-2.1539 3.0026-3.9127 5.1562-5.1562a3.1282 3.1286 0 0 0-1.5-5.875z" color="#000000" fill="url(#g)" stroke="#380038" stroke-linecap="round" stroke-linejoin="round" stroke-width=".7" style="block-progression:tb;text-indent:0;text-transform:none"/><g><path transform="translate(364.88 131.66)" d="m36 1.3125c-8.8325 1.887e-4 -17.665 3.3842-24.406 10.125-13.482 13.482-13.483 35.329 0 48.812s35.331 13.482 48.812 0c6.7408-6.7408 10.125-15.571 10.125-24.406s-3.3834-17.665-10.125-24.406c-6.7416-6.7416-15.574-10.125-24.406-10.125z" color="#000000" fill="url(#d)" stroke="url(#j)"/><path d="m400.88 199.91c-17.894 0-32.4-14.508-32.4-32.403 0-17.896 14.506-32.403 32.4-32.403s32.4 14.508 32.4 32.403c0 17.896-14.506 32.403-32.4 32.403z" color="#000000" fill="url(#m)" filter="url(#o)"/><path transform="translate(364.88 131.66)" d="m36 6.5625c-16.178 0-29.281 13.101-29.281 29.281s13.103 29.312 29.281 29.312 29.281-13.132 29.281-29.312-13.103-29.281-29.281-29.281z" color="#000000" fill="url(#c)"/></g><path transform="translate(364.88 131.66)" d="m35.969 13.656a3.1277 3.128 0 0 0-3.0938 3.1875v20.906a3.1277 3.128 0 1 0 6.25 0v-20.906a3.1277 3.128 0 0 0-3.1562-3.1875zm8.4688 3.9375a3.1282 3.1286 0 0 0-1.3438 5.875c6.8075 3.9308 9.1178 12.535 5.1875 19.344-3.9303 6.8083-12.567 9.1183-19.375 5.1875-6.8075-3.9308-9.0866-12.535-5.1562-19.344 1.2434-2.1539 3.0026-3.944 5.1562-5.1875a3.1282 3.1286 0 0 0-1.5-5.8438 3.1282 3.1286 0 0 0-1.625 0.4375c-1.5521 0.8962-2.9622 1.962-4.2188 3.2188-1.2566 1.2567-2.3539 2.6977-3.25 4.25-5.6205 9.736-2.2662 22.254 7.4688 27.875 9.7349 5.6211 22.286 2.2673 27.906-7.4688 5.6205-9.736 2.2662-22.254-7.4688-27.875a3.1282 3.1286 0 0 0-1.7812-0.46875z" color="#000000" fill="#4d4d4d" stroke="#000" stroke-width=".7" style="block-progression:tb;text-indent:0;text-transform:none"/><path transform="translate(364.88 131.66)" d="m35.75 80.781c-12.965 0-23.727 9.4075-25.812 21.781-0.17414 1.3528-0.28125 2.7502-0.28125 4.1562 0 1.8749 0.1381 3.7242 0.4375 5.5 0.01323 0.0651 0.01749 0.12258 0.03125 0.1875 0.32252 1.525 0.76846 2.9919 1.3438 4.4062 0.94531-11.926 25.884-12.157 39.438-10.656 5.8257 0.64497 10.521-2.826 10.031-6.3438-1.5734-11.308-13.208-19.031-25.188-19.031z" color="#000000" fill="url(#i)" opacity=".4"/><path transform="translate(364.88 131.66)" d="m35.75 8.8438c-12.941 0-23.669 9.4057-25.75 21.781-0.17381 1.353-0.28125 2.7187-0.28125 4.125 0 1.8751 0.13867 3.7239 0.4375 5.5 0.0132 0.06507-0.01374 0.12257 0 0.1875 0.32191 1.5252 0.8008 2.9917 1.375 4.4062 0.94352-11.927 29.673-11.729 39.344-10.656s10.52-2.8255 10.031-6.3438c-1.5704-11.309-13.199-19-25.156-19z" color="#000000" fill="url(#h)" opacity=".4"/></g></svg>
