<svg version="1.1" viewBox="0 0 256 256" xmlns="http://www.w3.org/2000/svg" xmlns:xlink="http://www.w3.org/1999/xlink"><defs><linearGradient id="d"><stop stop-color="#282828" offset="0"/><stop stop-opacity="0" offset="1"/></linearGradient><linearGradient id="c"><stop stop-color="#fff" offset="0"/><stop stop-color="#fff" stop-opacity="0" offset="1"/></linearGradient><linearGradient id="b"><stop stop-color="#efb362" offset="0"/><stop stop-color="#e27709" offset=".5"/><stop stop-color="#b64c00" offset="1"/></linearGradient><linearGradient id="a"><stop stop-color="#ffcf4e" offset="0"/><stop stop-color="#774213" offset="1"/></linearGradient><filter id="bd" x="-.045557" y="-.3798" width="1.0911" height="1.7596" color-interpolation-filters="sRGB"><feGaussianBlur stdDeviation="8.0810739"/></filter><filter id="bb" x="-.069368" y="-.13448" width="1.1387" height="1.269" color-interpolation-filters="sRGB"><feGaussianBlur stdDeviation="6.2452716"/></filter><filter id="ba" x="-.1044" y="-.0082068" width="1.2088" height="1.0164" color-interpolation-filters="sRGB"><feGaussianBlur stdDeviation="2.1378179"/></filter><filter id="e" color-interpolation-filters="sRGB"><feGaussianBlur stdDeviation="2.1378179"/></filter><filter id="az" color-interpolation-filters="sRGB"><feGaussianBlur stdDeviation="1.3311195"/></filter><filter id="ay" color-interpolation-filters="sRGB"><feGaussianBlur stdDeviation="2.3423286"/></filter><filter id="ax" color-interpolation-filters="sRGB"><feGaussianBlur stdDeviation="2.5498337"/></filter><filter id="aw" x="-.070224" y="-.19433" width="1.1404" height="1.3887" color-interpolation-filters="sRGB"><feGaussianBlur stdDeviation="18.732788"/></filter><filter id="av" color-interpolation-filters="sRGB"><feGaussianBlur stdDeviation="2.1547395"/></filter><filter id="au" x="-.10561" y="-.033098" width="1.2112" height="1.0662" color-interpolation-filters="sRGB"><feGaussianBlur stdDeviation="4.554375"/></filter><filter id="at" x="-.41317" y="-.02548" width="1.8263" height="1.051" color-interpolation-filters="sRGB"><feGaussianBlur stdDeviation="5.352162"/></filter><filter id="as" color-interpolation-filters="sRGB"><feGaussianBlur stdDeviation="2.2843241"/></filter><filter id="ar" color-interpolation-filters="sRGB"><feGaussianBlur stdDeviation="1.8129162"/></filter><filter id="aq" x="-.066625" y="-.15021" width="1.1333" height="1.3004" color-interpolation-filters="sRGB"><feGaussianBlur stdDeviation="5.7424067"/></filter><filter id="bf" x="-.095594" y="-.16114" width="1.1912" height="1.3223" color-interpolation-filters="sRGB"><feGaussianBlur stdDeviation="4.123285"/></filter><filter id="bc" color-interpolation-filters="sRGB"><feGaussianBlur stdDeviation="2.4498554"/></filter><radialGradient id="q" cx="-667.4" cy="1335.9" r="448.81" gradientTransform="matrix(1 0 0 .21095 -1e-5 1064.1)" gradientUnits="userSpaceOnUse" xlink:href="#d"/><radialGradient id="p" cx="-704.71" cy="1051.8" r="448.81" gradientTransform="matrix(.98934 .26509 -.21708 .81015 399.77 324.42)" gradientUnits="userSpaceOnUse" xlink:href="#b" spreadMethod="reflect"/><linearGradient id="ap" x1="-789.75" x2="-731.56" y1="628.64" y2="847.81" gradientTransform="matrix(.90741 0 0 .96637 -60.594 24.991)" gradientUnits="userSpaceOnUse" xlink:href="#c"/><radialGradient id="o" cx="-781.34" cy="1005" r="165.47" gradientTransform="matrix(1 0 0 2.082 0 -1081.4)" gradientUnits="userSpaceOnUse" xlink:href="#b"/><radialGradient id="n" cx="-1031.7" cy="961.7" r="81.541" gradientTransform="matrix(2.1554 0 0 3.925 1314.6 -3084.5)" gradientUnits="userSpaceOnUse" xlink:href="#c"/><radialGradient id="m" cx="-486.89" cy="933.16" r="90.914" gradientTransform="matrix(2.4042 -.20269 .97106 2.0073 -217.04 -1107)" gradientUnits="userSpaceOnUse" xlink:href="#c"/><linearGradient id="ao" x1="-689.29" x2="-728.64" y1="747.23" y2="615.81" gradientTransform="matrix(4.7507 .78558 -.47515 2.8734 3097.5 -679.56)" gradientUnits="userSpaceOnUse" xlink:href="#c"/><radialGradient id="l" cx="-655.52" cy="1014.7" r="29.704" gradientTransform="matrix(1 -3.0454e-6 3.2575e-5 10.696 -1.0428 -10105)" gradientUnits="userSpaceOnUse" xlink:href="#b"/><radialGradient id="k" cx="-721" cy="927.25" r="61.497" gradientTransform="matrix(1 -8.7602e-8 3.0291e-7 3.4083 -4.0406 -2229.7)" gradientUnits="userSpaceOnUse" xlink:href="#b"/><linearGradient id="an" x1="-989.46" x2="-881.68" y1="511.33" y2="600.58" gradientUnits="userSpaceOnUse" xlink:href="#b"/><linearGradient id="am" x1="-752.05" x2="-503.91" y1="711.13" y2="711.13" gradientTransform="matrix(.47909 0 0 .55118 -376.3 277.33)" gradientUnits="userSpaceOnUse" xlink:href="#d"/><linearGradient id="al" x1="-596.25" x2="-569.94" y1="654.09" y2="654.09" gradientTransform="matrix(.84355 0 0 .82386 -106.6 115.17)" gradientUnits="userSpaceOnUse" xlink:href="#a"/><linearGradient id="ak" x1="-573.04" x2="-566.16" y1="652.35" y2="652.35" gradientTransform="matrix(.84355 0 0 .82386 -107.17 115.2)" gradientUnits="userSpaceOnUse" xlink:href="#a"/><linearGradient id="aj" x1="-651.7" x2="-616.29" y1="648.79" y2="648.79" gradientTransform="matrix(.84355 0 0 .82386 -104.41 115.29)" gradientUnits="userSpaceOnUse" xlink:href="#a"/><linearGradient id="ai" x1="-658.85" x2="-634.64" y1="646.52" y2="646.52" gradientTransform="matrix(.84355 0 0 .82386 -103.9 115.4)" gradientUnits="userSpaceOnUse" xlink:href="#a"/><linearGradient id="ah" x1="-698.91" x2="-658.04" y1="631.35" y2="631.35" gradientTransform="matrix(.84355 0 0 .82386 -102.89 116.03)" gradientUnits="userSpaceOnUse" xlink:href="#a"/><linearGradient id="ag" x1="-683.07" x2="-641.12" y1="641.75" y2="641.75" gradientTransform="matrix(.84355 0 0 .82386 -103.35 115.59)" gradientUnits="userSpaceOnUse" xlink:href="#a"/><linearGradient id="af" x1="-698.91" x2="-663.17" y1="625.51" y2="625.51" gradientTransform="matrix(.84355 0 0 .82386 -102.79 116.29)" gradientUnits="userSpaceOnUse" xlink:href="#a"/><linearGradient id="ae" x1="-695.61" x2="-663.17" y1="620.85" y2="620.85" gradientTransform="matrix(.84355 0 0 .82386 -102.89 116.48)" gradientUnits="userSpaceOnUse" xlink:href="#a"/><linearGradient id="ad" x1="-550.96" x2="-537.35" y1="630.98" y2="630.98" gradientTransform="matrix(.84355 0 0 .82386 -108.16 116.04)" gradientUnits="userSpaceOnUse" xlink:href="#a"/><linearGradient id="ac" x1="-552.35" x2="-530.89" y1="640.98" y2="640.98" gradientTransform="matrix(.84355 0 0 .82386 -108.26 115.61)" gradientUnits="userSpaceOnUse" xlink:href="#a"/><linearGradient id="ab" x1="-567.73" x2="-543.78" y1="649.79" y2="649.79" gradientTransform="matrix(.84355 0 0 .82386 -107.68 115.35)" gradientUnits="userSpaceOnUse" xlink:href="#a"/><linearGradient id="aa" x1="-611.99" x2="-589.24" y1="652.98" y2="652.98" gradientTransform="matrix(.84355 0 0 .82386 -105.84 115.12)" gradientUnits="userSpaceOnUse" xlink:href="#a"/><linearGradient id="z" x1="-629.13" x2="-601.74" y1="652.81" y2="652.81" gradientTransform="matrix(.84355 0 0 .82386 -105.21 115.13)" gradientUnits="userSpaceOnUse" xlink:href="#a"/><linearGradient id="y" x1="-585.9" x2="-448.66" y1="610.95" y2="543.27" gradientTransform="translate(-1e-5)" gradientUnits="userSpaceOnUse" xlink:href="#a"/><linearGradient id="x" x1="-599.22" x2="-586.16" y1="676.25" y2="618.72" gradientTransform="translate(-1e-5)" gradientUnits="userSpaceOnUse" xlink:href="#a" spreadMethod="reflect"/><linearGradient id="w" x1="122.4" x2="-1103.7" y1="66.496" y2="606.24" gradientTransform="matrix(.43998 -.1421 .21544 .63411 -557.99 148.2)" gradientUnits="userSpaceOnUse" xlink:href="#b"/><linearGradient id="v" x1="122.4" x2="-1103.7" y1="66.496" y2="606.24" gradientTransform="matrix(.37616 -.15154 .18419 .67623 -584.92 123.1)" gradientUnits="userSpaceOnUse" xlink:href="#b"/><radialGradient id="j" cx="-422.99" cy="960.27" r="143.33" gradientTransform="matrix(1 0 0 2.1875 -6 -1199)" gradientUnits="userSpaceOnUse" xlink:href="#c"/><radialGradient id="i" cx="-677.48" cy="965.34" r="448.81" gradientTransform="matrix(.8065 .23669 -.17696 .72335 230.52 398.5)" gradientUnits="userSpaceOnUse" xlink:href="#b" spreadMethod="reflect"/><radialGradient id="h" cx="-534.05" cy="1018.1" r="96.818" gradientTransform="matrix(1.2947 0 0 3.3274 144.2 -2417.9)" gradientUnits="userSpaceOnUse" xlink:href="#c"/><radialGradient id="g" cx="-568.72" cy="1020.2" r="96.818" gradientTransform="matrix(1 0 0 3.4908 0 -2541.3)" gradientUnits="userSpaceOnUse" xlink:href="#b"/><radialGradient id="f" cx="-227.8" cy="1138.3" r="284.38" gradientTransform="matrix(1 0 0 .71608 0 243.69)" gradientUnits="userSpaceOnUse" xlink:href="#b"/><radialGradient id="u" cx="-908.25" cy="1017.5" r="202.38" gradientTransform="matrix(.9269 -5.358e-7 9.4427e-7 1.6335 -89.377 -638.9)" gradientUnits="userSpaceOnUse" xlink:href="#b"/><radialGradient id="t" cx="71.78" cy="134.5" r="46.469" gradientTransform="matrix(1 0 0 2.0672 0 -138.31)" gradientUnits="userSpaceOnUse" xlink:href="#b"/><radialGradient id="s" cx="71.78" cy="134.5" r="46.469" gradientTransform="matrix(.70888 0 0 1.9872 35.827 -123.5)" gradientUnits="userSpaceOnUse" xlink:href="#b"/><filter id="bg"><feGaussianBlur stdDeviation="1.573312"/></filter><radialGradient id="r" cx="71.056" cy="120.11" r="46.469" gradientTransform="matrix(.69801 0 0 1.9655 34.556 -122.2)" gradientUnits="userSpaceOnUse" xlink:href="#c"/><filter id="be"><feGaussianBlur stdDeviation="0.62640625"/></filter></defs><g transform="translate(977.49 -1051.3)"><g transform="matrix(.28501 0 0 .28501 -659.36 896.69)"><path d="m-781.99 1251.7c-203.68 0.3605-334.22 45.522-334.22 93.369 0 0.4431 0.038 0.8866 0.062 1.3282v0.056c-8e-4 0 7e-4 0.018 0 0.023-0.039 0.4274-0.062 0.8566-0.062 1.2882 0 36.236 86.546 67.969 216.09 85.504 0.35373 0.047 0.70813 0.097 1.0625 0.1447 0.25874 0.036 0.52217 0.069 0.78125 0.1051 65.986 9.04 157.09 6.9385 324.99 6.9385s354.7-37.475 354.7-92.692c0-52.067-160.83-103.07-409.96-91.367-10.567-0.8259-47.488-2.3093-55.987-2.966-42.372-3.2734-59.737-1.8-97.455-1.733z" fill="url(#q)"/><g><path d="m-746.4 620.6c-52.98 2.2949-107.49 2.5738-156.75 25.344-122.44 48.995-206.56 173.67-212.31 304.62-1.6646 272.76 177.3 447.57 403.34 404.59 72.333-0.4801 146.07 5.4972 217.22-9.9687 162.25-39.757 288.87-200.85 276-369.69-6.0699-148.42-107.64-296.15-256.09-331.38-50.11-12.532-102.89-12.841-153.56-3.4375-39.229-6.8939-77.638-20.135-117.84-20.094z" fill="url(#p)"/><path transform="matrix(3.5086 0 0 3.5086 -1116.2 542.41)" d="m109.62 33.531c-53.126 0.39264-87.156 49.576-87.156 101.69 0 0.48252 0.02555 0.95643 0.03125 1.4375v0.0625c-2.57e-4 9e-3 1.71e-4 0.02245 0 0.03125-0.01026 0.46551-0.03125 0.93641-0.03125 1.4062 0 35.43 18.176 66.896 46.344 86.781 0.64962 0.25386 1.3334 0.48943 2 0.71875-0.23801-0.42304-0.48498-0.8238-0.71875-1.25-25.929-19.972-42.438-50.145-42.438-83.906 0-0.46981-0.01-0.94074 0-1.4062 1.71e-4 -9e-3 -2.57e-4 -0.02275 0-0.03125v-0.0625c-0.0063-0.48107 0-0.95498 0-1.4375 0-52.112 34.031-101.29 87.156-101.69 0.0826 0.03018 0.14966 0.03974 0.21875 0.0625 0.12807-0.0528 0.24659-0.10419 0.375-0.15625-0.78065-0.62424-3.6011-2.0802-5.7812-2.25z" fill="url(#t)"/><path d="m-642.18 691.07c-40.488-2.369-79.257-15.492-118.82-22.933 11.154 5.4321 33.413 11.926 9.7911 4.5933-8.8173-2.853-31.228-11.061-34.755-9.2949 22.616 7.5046 46.014 12.631 68.396 20.804-51.716-10.025-102.48-33.29-156.26-26.769 61.679 0.67576 120.38 21.741 180.32 33.59-50.828-7.8246-132.08-37.474-180.82-13.469-34.396 18.18-69.736 54.069-86.32 87.663 14.868-28.071 57.574-55.497 85.46-72.746 35.89-24.945 97.608-16.147 139.09-4.5188 19.934 3.3351 40.245 4.2561 60.078 8.064-29.059-1.0208-61.638 25.458-86.532 42.276-75.677 62.253-121.8 226.45-123.37 319.97 3.1711-62.707 65.141-247.74 111.85-293.45 29.291-28.481 61.614-68.987 102.69-63.22 33.129 6.2515 20.444 45.074 19.088 68.244-8.2394 96.758-7.8443 195.35 14.086 290.4-22.836-112.97-17.619-230.71 9.17-342.51 29.678-20.351 65.582 0.94392 90.307 19.358 30.029 20.755 56.346 46.862 74.045 79.04 27.61 47.427 41.078 102.34 42.233 157 2.4687-80.74-43.598-151.23-84.998-216.77-13.132-29.558-47.662-35.264-73.367-49.331 13.321-3.9251 38.271 1.9114 55.928 2.7408 55.014 6.5242 112.7 30.385 141.14 80.694 10.972 16.275 22.706 44.772 30.161 55.095-19.752-64.54-71.356-122.49-139.43-135.74-24.231-4.3156-49.126-2.7677-73.406-6.6997 71.007 0.69716 146.85-7.8779 212.34 25.888-52.223-35.307-118-28.015-177.71-27.672-9.6854 0.0894-32.791-0.20674-10.125-1.0552 44.366-2.7377 88.764-5.0363 133.11-8.0525-44.389-3.0989-88.444 6.0003-132.72 6.678 37.636-3.0027 75.192-7.1175 112.53-12.754-33.273 1.799-66.178 8.2335-99.344 10.537 25.726-3.4832 51.966-5.8341 77.449-11.461-22.472 0.28898-45.04 4.7526-67.249 8.5142 11.909-1.1609 51.417-6.5519 46.913-7.9524-10.602 1.377-48.484 8.455-17.692 2.1509 38.189-7.7338-51.965 8.3516-10.413 0.66725 12.451-2.2726 20.885-4.9274 3.1666-1.7859-12.812 2.2762-29.352 5.8346-6.3622 0.36116 9.2349-2.826-37.97 7.2592-10.22 0.75269 10.307-3.3804-30.255 5.7683-20.187 1.1241-27.046 4.925-54.12 3.9637-82.193 4.0524-9.0358-0.35312-18.059-1.0408-27.043-2.0703z" fill="url(#f)" filter="url(#bc)" opacity=".58605"/><path d="m-790.63 648.8c-188.79 1.3235-309.77 167.16-309.77 342.82 0 1.6265-0.022 3.1966 0 4.8181v0.20948c-8e-4 0.0302 8e-4 0.0741 0 0.10457-0.036 1.5692 0 3.1297 0 4.7134 0 120.17 65.407 226.84 166.57 293.8 3.3339 1.924 6.7643 3.8156 10.163 5.6561 0.32787 0.1776 0.58621 0.3469 0.91467 0.5237 0.23982 0.132 0.47127 0.2872 0.71141 0.419 5.5612 3.048 11.397 5.768 17.379 8.1698-107.22-66.392-177.34-176.36-177.34-300.71 0-1.5835 0.065-3.1443 0.1016-4.7134 8e-4 -0.03-8e-4 -0.075 0-0.1045v-0.2095c-0.022-1.6217-0.1016-3.1917-0.1016-4.8183 0-175.66 120.98-341.5 309.77-342.82 6.9252-0.50927 112.98 20.299-18.395-7.8556z" fill="url(#u)"/></g><g><g><path transform="matrix(1.1804 0 0 1.0704 129.65 -70.255)" d="m-727 699.16c-54.51 15.572-83.619 59.375-110.9 98.811-20.95 31.006-32.943 47.071-73.281 194.32 36.237-109.17 65.321-176.14 119.7-231.1 19.837-24.3 42.277-44.738 67.063-60.277-0.8579-0.58257-1.7496-1.1717-2.5804-1.7515z" fill="url(#ap)" filter="url(#ay)" opacity=".23963"/><path transform="matrix(1 0 0 .86351 3.5443 97.424)" d="m-625.72 654.97c-188.7 1.6578-309.66 209.35-309.66 429.38 0 2.0371 0.0405 4.0626 0.0625 6.0937v0.25c-9e-4 0.037 6e-4 0.088 0 0.125-0.036 1.9655-0.0625 3.9538-0.0625 5.9375 11.746 65.781 7.5457 131.2 78.062 247.22-37.861-69.293-59.656-150.51-59.656-237.38 0-1.9837 0.0265-3.9721 0.0625-5.9376 6e-4 -0.038-9e-4 -0.058 0-0.094v-0.2813c-0.022-2.0309-0.0625-4.0563-0.0625-6.0937 0-220.03 120.95-427.72 309.66-429.38 9.5756 4.1568-6.9228-8.7808-18.406-9.8438z" fill="url(#o)" filter="url(#ax)"/><path transform="matrix(1.1578 0 0 1.0927 165.61 -67.665)" d="m-734.41 626.06c-14.353-0.12593-28.141 1.3704-47 1.5-102.92 0.70714-187.15 45.823-245.31 114.25-2.1118 14.323-3.2187 28.785-3.2187 43.312 0 1.7197 0.03 3.4417 0.062 5.1562v0.21875 0.0937c-0.052 1.6591-0.061 3.3255-0.062 5 0 56.873 19.013 110.89 53.219 159.56 0.053 0.064 0.1341 0.1235 0.1875 0.1875 27.397 32.824 62.041 63.627 102.97 91.812 64.054-64.8 113.87-140.58 144.47-225.16 23.046-63.69 33.604-127.96 32.812-191.06-14.97-3.6392-26.728-4.775-38.125-4.875z" fill="url(#n)" filter="url(#av)" opacity=".31876"/><path d="m-262.89 846.4c48.757 100.79-9.5763 190.74-130.29 200.92-120.71 10.177-258.1-63.277-306.86-164.07-48.757-100.79 9.5763-190.74 130.29-200.92 120.71-10.177 258.1 63.278 306.86 164.07z" fill="url(#m)" opacity=".31336"/><path transform="translate(-1e-5)" d="m-763.59 684c-67.177 5.102-125.64 29.549-173.16 66.875 60.578 63.719 162.17 123.08 297.62 147.66 59.22 9.7929 116.6 12.861 169.69 10.094 61.006 7.8704 119.6 8.6675 172.91 3.25-4.1329-0.63058-8.2306-1.2834-12.375-1.9688-195.37-32.307-359.47-118.56-454.69-225.91z" fill="url(#ao)" filter="url(#aw)" opacity=".26267"/><path transform="translate(-1e-5)" d="m-682.59 720.86c-48.674 29.065-65.524 78.843-81.75 123.97-12.274 35.35-17.66 53.611-18.781 206.28 2.6787-44.261 6.2717-81.535 10.094-114.37 1.2824-47.147 8.1022-65.593 15.969-88.25 14.222-39.553 28.934-82.72 65.125-112.34 3.9436-4.9376 8.0468-9.6781 12.312-14.25-0.97884-0.3424-2.0168-0.68456-2.9688-1.0312z" fill="#fff" filter="url(#au)" opacity=".28571"/><path transform="translate(-1e-5)" d="m-616.38 744.53c-0.27468-0.0558-0.5833 1.3369-1.1562 5.375-8.704 45.927-11.239 96.235-14.781 145-7.6902 108.17-9.6552 217.35-13.062 326.16 0.15517 9.2047-1.6413 19.29 0.5 27.594 3.0963-11.792 1.6403-26.523 2.6875-39.625 2.6762-72.935 5.0721-145.89 8.0938-218.78 3.5256-62.162 6.8655-124.57 13.125-185.81 1.6736-17.778 5.1429-35.374 6.125-52.969-0.82262-2.7084-1.0734-6.8445-1.5312-6.9375z" fill="#fff" filter="url(#at)" opacity=".35023"/><path transform="matrix(.95895 0 0 .78768 -26.792 142.04)" d="m-523.37 705.85c18.281 58.774-37.677 82.886-140.8 37.07-51.898-23.057-82.672-47.383-68.316-87.518l110.33 17.956z" fill="url(#an)" filter="url(#bb)"/><path transform="matrix(.86098 0 0 1.2639 -85.569 -156.62)" d="m-727.24 638.59c-6.8778 22.122 7.8863 35.51 32.75 48.219 49.405 25.253 76.196 11.958 67.438-20.438l-47.312-17.906-52.875-9.875z" fill="url(#am)" filter="url(#bf)" opacity=".58605"/><path transform="matrix(1.0307 0 0 .74143 15.769 353.82)" d="m-746.84 1332c-23.889-0.4429-47.868-0.326-71.39 4.0675-23.958 2.1348-50.222-4.9818-72.3 7.1774 39.06 25.106 87.418 25.958 132.38 28.348 67.529 1.513 135.11 0.073 202.63-0.908 36.656-2.4598 72.745-11.498 106.66-25.522-39.394-9.7419-80.203 4.1801-119.84-4.6661-36.731-3.556-75.172-3.6392-110.56 7.9-17.209-4.5936-37.263-22.835-59.703-16.507-2.6245 0.053-5.2492 0.095-7.8742 0.1096z" fill="#333" filter="url(#bd)" opacity=".28111"/></g><path d="m-589.46 730.09c0.29874-8.0581 0.66393-15.314 1.0982-22.141s0.93683-13.223 1.473-19.519v-1e-5c0.42739-4.8566 0.88362-9.7363 1.3303-14.79 0.44674-5.0539 0.88312-10.282 1.2644-15.779v-1e-5c0.72578-10.892 0.99267-22.282 0.82629-34.63-0.0717-4.8842-0.18648-9.9009-0.33498-15.107-4.9472-1.4245-10-2.5118-15.16-3.4019-0.49365-0.0859-0.98781-0.16968-1.4824-0.25204 0.0992 5.9562 0.16378 11.705 0.16618 17.328-4e-3 6.2726-0.12239 12.358-0.38708 18.299-0.26469 5.9411-0.67619 11.738-1.2298 17.423v1e-5c-0.57718 5.7368-1.2387 11.208-1.9278 16.499-0.68906 5.2909-1.4045 10.401-2.0905 15.487v1e-5c-1.5654 11.844-3.0126 23.997-3.9428 38.52 2.5763 0.34322 5.1418 0.65588 7.6967 0.93722 4.2635 0.46869 8.4908 0.85465 12.7 1.1271z" fill="url(#al)"/><path d="m-585.31 723.73c0.3843-13.36 1.0181-24.575 1.7833-35.513 0.34856-4.7874 0.72742-9.5973 1.1002-14.579 0.37276-4.982 0.73871-10.136 1.0552-15.561v-1e-5c0.59978-10.745 0.77335-22.015 0.53051-34.306-0.13665-6.5062-0.34758-13.266-0.61335-20.42-0.97115 1.6053-1.9431 3.2042-2.9177 4.7992 0.14852 5.206 0.26328 10.223 0.33501 15.107 0.16636 12.348-0.1006 23.738-0.82629 34.63v1e-5c-0.38127 5.4974-0.81766 10.726-1.2644 15.779-0.4467 5.0539-0.90294 9.9337-1.3303 14.79v1e-5c-0.5361 6.2968-1.0386 12.693-1.473 19.519-0.4343 6.8262-0.79947 14.082-1.0982 22.141 1.5812-2.1853 3.1557-4.3131 4.7191-6.3856z" fill="url(#ak)"/><path d="m-637.15 725.95c1.2195-13.156 3.374-24.453 5.6404-35.474 1.0798-5.1889 2.1964-10.4 3.2576-15.792 1.0613-5.3924 2.0656-10.967 2.9385-16.804v-1e-5c0.84264-5.7848 1.4954-11.677 1.9672-17.697 0.47175-6.0201 0.76304-12.168 0.9393-18.472 0.11503-4.2324 0.19594-8.5227 0.26749-12.902 0.0257-1.574 0.05-3.1595 0.0742-4.7584-0.12695 0.014-0.25385 0.0281-0.38068 0.0421-5.1903 0.57284-10.242 1.1717-15.086 1.8243-0.1507 5.4675-0.28786 10.786-0.47952 16.012-0.23549 6.304-0.59225 12.443-1.1606 18.44-0.56833 5.9977-1.3488 11.854-2.3641 17.587-1.6463 9.0772-3.737 17.449-5.9132 25.541-0.60091 2.2231-1.2065 4.4279-1.8077 6.6289v1e-5c-2.906 10.732-5.7487 21.729-7.6139 34.538 1.783 0.21104 3.5875 0.3941 5.4114 0.55501 4.6999 0.4096 9.4793 0.64318 14.31 0.73088z" fill="url(#aj)"/><path d="m-656.37 724.78c1.8652-12.809 4.7079-23.806 7.6139-34.538 0.60113-2.2011 1.2067-4.4058 1.8076-6.6289 2.1761-8.0916 4.2669-16.464 5.9132-25.541v-1e-5c1.0153-5.7338 1.7958-11.59 2.3641-17.588 0.56832-5.9977 0.92508-12.136 1.1606-18.44 0.19166-5.2262 0.32882-10.545 0.47952-16.012-1.8982-1.7558-3.7792-3.5198-5.6422-5.2922-0.19665 7.4245-0.31728 14.541-0.54277 21.485-0.11676 3.5167-0.27251 6.9783-0.48696 10.389-0.56328 8.8049-1.5332 17.274-3.0419 25.468-1.0812 5.7358-2.357 11.187-3.7411 16.445-1.3842 5.2585-2.8744 10.326-4.3544 15.366-2.5205 8.6493-5.0305 17.47-7.0688 27.275 1.7293 2.4967 3.5813 5.0346 5.5393 7.6128z" fill="url(#ai)"/><path d="m-674.13 706.59c2.1017-6.0221 4.2212-11.775 6.3048-17.47h1e-5c2.5929-7.0536 5.1246-14.197 7.2061-21.93 0.72129-2.6737 1.3859-5.4175 1.9825-8.2446 1.1261-5.445 1.9378-11.076 2.4714-16.916 0.53353-5.8398 0.78896-11.887 0.88203-18.162 0.12458-8.9309 7e-3 -18.246 0.15638-28.2-2.9968-0.52835-5.8764-0.95666-8.6737-1.2287-1.1339-0.11158-2.2281-0.18381-3.2923-0.21616 0.28486 9.9973 0.82996 19.278 1.0482 27.983v1e-5c0.0343 1.4592 0.062 2.9042 0.0806 4.3352 0.0734 6.1064-0.0671 11.929-0.55069 17.453-0.48371 5.5244-1.312 10.748-2.488 15.696-0.0404 0.17193-0.0811 0.34369-0.12208 0.51521v1e-5c-0.99452 4.107-2.1914 8.051-3.4826 11.906-1.2912 3.8554-2.6722 7.6294-4.0205 11.454-0.63104 1.8548-1.2818 3.7123-1.9484 5.5805v1e-5c-1.513 4.2455-3.1074 8.596-4.8456 12.846 1.1651 0.15074 2.0537 0.12059 2.5048-0.0392 0.63531 0.0888 1.278 0.32945 2.0591 1.0734h1e-5c1.0922 0.88596 2.3224 1.824 3.8485 2.9414 0.28931 0.20765 0.58235 0.41514 0.87952 0.6225z" fill="url(#ah)"/><path d="m-661.35 717.36c2.0382-9.8042 4.5482-18.625 7.0688-27.275 1.48-5.0398 2.9702-10.107 4.3544-15.366 1.3842-5.2585 2.66-10.709 3.7411-16.445v-1e-5c1.5088-8.1938 2.4786-16.663 3.0419-25.468 0.21445-3.411 0.37019-6.8727 0.48696-10.389 0.22549-6.9436 0.34612-14.06 0.54277-21.485-1.1462-0.0314-2.2811-0.0579-3.4043-0.0779-4.1524-0.086-8.0376-0.0563-11.691 0.171-0.0489 7.8938 0.0106 15.396-0.0961 22.63-0.0797 5.0947-0.26936 10.033-0.6361 14.824-0.36675 4.7907-0.91054 9.4337-1.6634 13.939-0.34627 2.08-0.7347 4.1317-1.1661 6.1562v2e-5c-1.1852 5.4566-2.6295 10.592-4.2337 15.521-1.6042 4.9292-3.3633 9.6545-5.157 14.338v1e-5c-1.1308 2.9652-2.2774 5.941-3.43 8.9577-1.6175 4.1976-3.2121 8.5076-4.8387 12.964 0.55128 0.28978 1.1344 0.59168 1.7522 0.91152 2.0699 1.0428 4.2928 2.0347 6.7109 3.012h1e-5c2.7591 1.1092 5.6304 2.1361 8.6171 3.0804z" fill="url(#ag)"/><path d="m-683.32 702.25c1.7383-4.2499 3.3327-8.6004 4.8457-12.846v-1e-5c0.66658-1.8683 1.3173-3.7258 1.9484-5.5806 1.3483-3.8242 2.7292-7.5983 4.0205-11.454 1.2912-3.8554 2.4881-7.7994 3.4826-11.906 0.0411-0.17156 0.0819-0.34329 0.12206-0.51524 1.176-4.948 2.0043-10.172 2.488-15.696 0.4837-5.5244 0.62414-11.347 0.55067-17.453-0.0184-1.431-0.0461-2.876-0.0806-4.3352v-1e-5c-0.21829-8.7051-0.76339-17.986-1.0482-27.983 0.9343-0.92092 1.9179-1.8013 2.9545-2.6434 1.4756-1.1953 3.0081-2.3383 4.5983-3.4398-0.18921 13.169 0.25157 25.127 0.21699 36.388-0.0103 2.5516-0.0506 5.0608-0.13065 7.5289v1e-5c-0.15306 4.8097-0.45001 9.4677-0.93869 13.982-0.48865 4.5145-1.1691 8.8851-2.0548 13.124v2e-5c-1.7673 8.3057-4.1998 15.821-6.8657 23.041v1e-5c-0.79724 2.1421-1.608 4.2658-2.4214 6.3867-1.2239 3.2037-2.4536 6.4311-3.6857 9.7131-0.80506 0.11343-1.5583 0.25011-2.2877 0.38645-0.98701 0.13203-1.8687 0.73352-2.7378 1.4496-0.62871 0.76692-1.6799 1.3875-2.9764 1.8526z" fill="url(#af)"/><path d="m-675.41 698.75c1.2321-3.2819 2.4618-6.5094 3.6857-9.7131 0.81334-2.1209 1.6241-4.2445 2.4214-6.3867 2.6659-7.2201 5.0984-14.736 6.8657-23.041v-1e-5c0.88571-4.2389 1.5662-8.6095 2.0548-13.124 0.48867-4.5145 0.78563-9.1724 0.93871-13.982v-1e-5c0.0801-2.4681 0.12042-4.9773 0.13064-7.5289 0.0344-11.261-0.40621-23.219-0.217-36.388-1.7825-1.0238-3.5476-2.0212-5.3078-2.9829-0.80905-0.44355-1.6093-0.87544-2.4052-1.2963 0.0656 7.4137 0.35784 14.425 0.66708 21.111 0.30924 6.6851 0.63241 13.042 0.77774 19.117 0.0178 0.79327 0.0332 1.5823 0.046 2.3672 0.0944 6.1957-0.0311 12.101-0.50516 17.71-0.47413 5.6083-1.298 10.917-2.4736 15.954-0.22122 0.93715-0.45264 1.8629-0.69335 2.7781v1e-5c-1.1237 4.3244-2.4531 8.4818-3.8521 12.58-1.399 4.0986-2.8602 8.1505-4.2612 12.29-0.1235 0.37929-0.24771 0.75885-0.3726 1.1387-0.48871 1.4888-0.98787 2.9854-1.5 4.4875 0.2174 0.1074 0.4001 0.19485 0.54272 0.26457 0.68626 0.58558 1.2374 1.194 1.8845 2.3244v1e-5c0.49182 0.74478 1.001 1.5097 1.573 2.3208z" fill="url(#ae)"/><path d="m-561.53 704.59c-0.18337-5.8271-0.10714-11.377-0.0259-16.846v-1e-5c0.0677-4.23 0.14889-8.4417 0.19593-12.769 0.0472-4.3276 0.0612-8.7723 0.0248-13.467-0.0786-9.2318-0.44729-19.237-1.0333-30.81-0.0471-0.9115-0.0945-1.8323-0.14308-2.7629-0.55906-10.831-1.209-22.984-1.733-37.195-2.08 0.80574-4.1232 1.7068-6.1673 2.6951 0.61392 12.872 1.1629 24.174 1.5625 34.531 0.4467 11.911 0.5871 22.471 0.42844 32.354-0.17561 10.012-0.4992 18.935-0.69278 27.808v1e-5c-0.13455 6.8533-0.20709 13.82-0.0576 21.393 1.5018-0.97608 2.9833-1.9377 4.462-2.8846 1.1633-0.75598 2.2082-1.4254 3.1789-2.0473z" fill="url(#ad)"/><path d="m-558.87 714.27c-0.33591-1.9631-0.44557-4.1495-0.43591-6.3962 9e-3 -2.2467 0.13924-4.5555 0.31647-6.8419 0.17725-2.2864 0.40268-4.5519 0.63096-6.7658 0.22826-2.2139 0.45982-4.3773 0.6692-6.4927 0.39322-3.9666 0.70373-7.7674 0.88426-11.552 0.21503-4.6339 0.24952-9.2704 0.14271-14.144-0.15745-7.109-0.62123-14.705-1.173-23.352v-1e-5c-0.12315-1.9142-0.24964-3.8808-0.37626-5.9059-0.53663-8.5288-1.0568-18.078-1.3244-29.094-1.0763-0.59853-2.2242-1.0888-3.5073-1.4339-2.7653-0.80089-5.5199-1.3453-8.3339-1.6682 0.41671 9.5642 0.77449 18.27 1.0358 26.418 0.37027 11.948 0.41814 22.599 0.15474 32.607-0.28377 10.133-0.71235 19.176-1.0074 28.159-0.2744 8.9941-0.44492 18.19-0.23895 28.708 2.2743-0.68002 4.5062-1.383 6.7169-2.1124 1.6991-0.57691 3.2112-1.0534 4.5821-1.5253 0.46478-0.16758 0.82822-0.23118 1.0943-0.22215 0.24265-0.0555 0.31667 0.53389 0.16954 1.6146z" fill="url(#ac)"/><path d="m-565.53 721.12c-0.41083-6.3546-0.56324-12.211-0.58697-17.779-0.0236-5.568 0.0818-10.848 0.22514-16.057 0.25647-8.7253 0.63209-17.449 0.83783-27.2 0.19017-9.6125 0.0878-19.902-0.27722-31.616-0.20446-6.3813-0.45781-13.163-0.72769-20.5-3.8489-1.6812-7.7662-2.9057-11.94-3.7313-1.3174-0.27548-2.6396-0.51825-3.9672-0.73208 0.26575 7.1538 0.47669 13.914 0.61335 20.42 0.24284 12.291 0.0693 23.561-0.53053 34.306-0.31642 5.4249-0.68237 10.579-1.0551 15.561-0.37279 4.982-0.75164 9.7919-1.1002 14.579v1e-5c-0.7652 10.938-1.399 22.154-1.7833 35.513 1.8221-0.16906 3.6374-0.35595 5.4468-0.56132 5.0598-0.58375 9.9877-1.2541 14.845-2.2039z" fill="url(#ab)"/><path d="m-609.1 727.97c0.93025-14.523 2.3775-26.676 3.9428-38.52v-1e-5c0.68595-5.0855 1.4014-10.196 2.0905-15.487 0.68905-5.2909 1.3506-10.762 1.9278-16.499v-1e-5c0.55361-5.6858 0.96512-11.482 1.2298-17.423 0.26471-5.9411 0.38291-12.026 0.3871-18.299-2e-3 -5.6231-0.0672-11.372-0.16618-17.328-3.5582 1.1637-7.1365 2.4005-10.724 3.6737-0.0116 4.5705-0.0424 9.0369-0.1114 13.436-0.10438 6.2974-0.32456 12.428-0.70691 18.426-0.38233 5.9985-0.92731 11.865-1.6355 17.626v1e-5c-0.73529 5.8127-1.5756 11.363-2.4561 16.734-0.88044 5.3702-1.7998 10.56-2.6859 15.726-0.11281 0.66754-0.22521 1.3362-0.33712 2.0063-1.025 6.1212-2.0076 12.358-2.8501 18.967-0.84257 6.6094-1.5446 13.592-2.0089 21.238 1.013-0.29 2.0273-0.584 3.0426-0.8818 3.6844-1.0848 7.3767-2.221 11.061-3.3952z" fill="url(#aa)"/><path d="m-622.57 732.26c0.46428-7.6466 1.1663-14.629 2.0089-21.238 0.84257-6.6095 1.8251-12.846 2.8501-18.967 0.11191-0.67007 0.22432-1.3387 0.33711-2.0063 0.88612-5.1664 1.8054-10.356 2.6859-15.726 0.88047-5.3702 1.7208-10.921 2.4561-16.734v-1e-5c0.70814-5.7604 1.2531-11.627 1.6354-17.626 0.38235-5.9985 0.60255-12.129 0.70692-18.426 0.069-4.3989 0.0997-8.8653 0.1114-13.436-2.0506-0.67232-4.1063-1.3316-6.1635-1.9828-2.3201-0.74545-4.6298-1.4844-6.9235-2.2197-0.0242 1.5989-0.0488 3.1844-0.0742 4.7584-0.0715 4.3795-0.15245 8.6699-0.26747 12.902-0.17627 6.3046-0.46755 12.452-0.9393 18.472-0.47174 6.0201-1.1245 11.912-1.9672 17.697v1e-5c-0.8729 5.8376-1.8773 11.412-2.9385 16.804-1.0613 5.3924-2.1779 10.603-3.2577 15.792v1e-5c-2.2664 11.021-4.4209 22.318-5.6404 35.474 3.6761 1.6408 7.3994 3.219 11.121 4.7419 1.4211 0.58154 2.8414 1.1549 4.2591 1.7201z" fill="url(#z)"/><path d="m-634.34 577.25c-2.923 0.58128-5.7077 2.1999-8.7532 1.7762-2.3244 0.0602-4.7696-0.6187-6.9226 0.56465-3.1217 0.97407-6.0982 2.6165-9.4429 2.5641-2.5617 0.31101-5.2058 0.29268-7.7213 0.79029-1.2106 0.85859 0.12792 2.1238 1.0148 2.5444 2.0018 0.91945 1.1667 1.5862-0.50427 2.1784-1.0978 0.14428-1.5152 1.7966-0.35877 2.1709 4.2766 0.76188 4.726 2.3402 4.2431 6.3629 0.84051 2.1903 5.7419 0.0677 5.077 3.0042-0.38024 1.1353 0.11597 2.8976 1.5998 2.5171 4.2883 0.636 8.3661 2.6037 12.811 2.1206 2.5205 1.1868 4.2478 5.2813 7.4549 4.3104 4.6092-0.51722 9.2308-0.92342 13.845-1.3864 4.4337 1.1221 8.8347 2.5274 13.279 3.5226 3.7426-0.92308 7.4434-2.5962 11.231-2.9848 5.3853 0.74748 10.737 1.8428 16.039 2.9529 2.1637-1.1436 2.4546-5.4061 5.7104-3.5709 2.9217 0.37142 5.7787 1.2554 8.6412 1.8032 1.603-0.53703 0.47711-2.6805 0.67694-3.8614 0.34682-2.3144 4.5542 0.65604 6.4077-0.6418 1.2258-2.571-2.6892-4.4877-4.0551-6.1472-3.3439-2.0361 0.0802-5.3116 0.0947-7.9789-1.2359-1.6373-4.0434-0.5413-5.772-1.2736-2.425 0.22087-4.2592-0.82975-5.7598-2.5892-1.2488-0.92519-2.1668-2.4543-3.6174-3.0235-4.3939-0.31937-8.8316-0.44708-13.198-0.88551-3.7271-1.4471-7.3905-3.1497-11.156-4.443-5.8205 0.28009-11.645 0.75432-17.463 0.91325-4.4672-0.43037-8.9327-0.90981-13.401-1.3097z" fill="url(#y)"/><path d="m-667.25 584.31c0.03 3.3925 0.1139 6.6749 0.21875 9.9062-0.0204-6.5e-4 -0.0422 6.2e-4 -0.0625 0 0.28486 9.9973 0.84421 19.264 1.0625 27.969 0.0343 1.4592 0.0439 2.9128 0.0625 4.3438 0.0734 6.1064-0.0477 11.944-0.53125 17.469-0.48371 5.5244-1.324 10.74-2.5 15.688-0.0404 0.17193-0.084 0.32848-0.125 0.5-0.99452 4.107-2.1775 8.0509-3.4688 11.906-1.2912 3.8554-2.683 7.6445-4.0312 11.469-0.63104 1.8548-1.2709 3.7255-1.9375 5.5938-1.513 4.2455-3.1055 8.5938-4.8438 12.844 0.0668 9e-3 0.12253-7e-3 0.1875 0-0.0334 0.0819-0.0603 0.16813-0.0937 0.25 0.18033-0.0647 0.32964-0.14807 0.5-0.21875 0.86582 0.0707 1.5375 0.0369 1.9062-0.0937 0.63531 0.0888 1.2814 0.34981 2.0625 1.0938 0.72376 0.58711 1.5466 1.2051 2.4375 1.875-0.66726 1.7996-1.3569 3.5899-2.0312 5.4375 0.55128 0.28978 1.1322 0.58641 1.75 0.90625 2.0699 1.0428 4.3006 2.0539 6.7188 3.0312 2.583 1.0384 5.2803 1.9811 8.0625 2.875 1.5959 2.3041 3.3019 4.6576 5.0938 7.0312-0.0234 0.15786-0.0394 0.31033-0.0625 0.46875 0.1438 0.017 0.29342 0.0146 0.4375 0.0312 0.023 0.0303 0.0395 0.0634 0.0625 0.0937 3e-3 -0.0207-3e-3 -0.0418 0-0.0625 1.6214 0.18682 3.2514 0.354 4.9062 0.5 4.548 0.39637 9.1725 0.62473 13.844 0.71875 3.5726 1.59 7.1674 3.1149 10.781 4.5938 1.2137 0.49669 2.4448 0.98398 3.6562 1.4688-5e-3 0.0851-0.0261 0.16472-0.0312 0.25 0.1256-0.036 0.24936-0.0889 0.375-0.125 0.0945 0.0377 0.18673 0.0873 0.28125 0.125 4e-3 -0.0638-4e-3 -0.1238 0-0.1875 0.79635-0.2292 1.6085-0.45351 2.4062-0.6875 3.5682-1.0506 7.1498-2.1464 10.719-3.2812 2.4385 0.32194 4.8619 0.60858 7.2812 0.875 4.0739 0.44785 8.1012 0.82381 12.125 1.0938-8.1e-4 0.0218 8.1e-4 0.0407 0 0.0625 0.0174-0.024 0.0451-0.0385 0.0625-0.0625 0.16655 0.0111 0.33351 0.0205 0.5 0.0312 0.0101-0.27293 0.021-0.51014 0.0312-0.78125 1.3486-1.8536 2.6959-3.6972 4.0312-5.4688 1.6854-0.15893 3.3566-0.34118 5.0312-0.53125 5.0598-0.58375 9.9868-1.2376 14.844-2.1875-0.1405-2.1732-0.22726-4.2787-0.3125-6.3438 0.37488-0.12176 0.75143-0.25175 1.125-0.375 1.6991-0.57691 3.2229-1.0594 4.5938-1.5312 0.43393-0.15646 0.77072-0.21805 1.0312-0.21875-0.16433-1.5216-0.22585-3.1297-0.21875-4.7812 9e-3 -2.2467 0.13527-4.5574 0.3125-6.8438 0.17725-2.2864 0.42797-4.5674 0.65625-6.7812 0.22826-2.2139 0.44687-4.3533 0.65625-6.4688 0.39322-3.9666 0.69447-7.778 0.875-11.562 0.21503-4.6339 0.26306-9.2822 0.15625-14.156-0.15745-7.109-0.63572-14.697-1.1875-23.344-0.12315-1.9142-0.24838-3.8812-0.375-5.9062-0.53663-8.5288-1.0449-18.078-1.3125-29.094-1.0763-0.59853-2.2169-1.0924-3.5-1.4375-0.24742-0.0717-0.5027-0.11992-0.75-0.1875-0.16035-3.6458-0.32319-7.3961-0.46875-11.344-2.08 0.80574-4.1121 1.6992-6.1562 2.6875 0.12426 2.6054 0.22551 4.8931 0.34375 7.375-0.43884-0.0617-0.871-0.13685-1.3125-0.1875 0.0819 1.8802 0.14167 3.5901 0.21875 5.4062-2.2234-0.72923-4.4912-1.3471-6.8438-1.8125-1.1513-0.24073-2.3098-0.43171-3.4688-0.625-3e-3 -0.0852 3e-3 -0.16469 0-0.25-0.0435 0.0719-0.0815 0.14686-0.125 0.21875-0.12503-0.0207-0.24987-0.0424-0.375-0.0625 8e-3 0.21367 0.0234 0.41203 0.0312 0.625-0.78254 1.2915-1.5588 2.59-2.3438 3.875-4.7979-1.3592-9.6903-2.4191-14.688-3.2812-0.24172-0.0421-0.47679-0.0839-0.71875-0.125-1e-3 -0.0635 1e-3 -0.12392 0-0.1875-0.12463 0.0408-0.25032 0.0841-0.375 0.125-0.12615-0.0212-0.24879-0.0415-0.375-0.0625 1e-3 0.0636-1e-3 0.12397 0 0.1875-3.2096 1.0579-6.4233 2.1981-9.6562 3.3438-1.9476-0.63715-3.8904-1.2566-5.8438-1.875-2.0494-0.65845-4.0958-1.3185-6.125-1.9688 4.8e-4 -0.0315-4.8e-4 -0.0622 0-0.0937-0.0849 9e-3 -0.16513 0.0218-0.25 0.0312-0.18691-0.0599-0.37579-0.12765-0.5625-0.1875-1e-3 0.0841 1e-3 0.16594 0 0.25-4.9254 0.54587-9.731 1.1006-14.344 1.7188-1.6578-1.5348-3.2752-3.0775-4.9062-4.625 3e-3 -0.10619-3e-3 -0.20619 0-0.3125-0.11558-3e-3 -0.2284 3e-3 -0.34375 0-0.064-0.0609-0.1235-0.12661-0.1875-0.1875-2e-3 0.0638 2e-3 0.12377 0 0.1875-0.96457-0.0252-1.9268-0.0769-2.875-0.0937-3.3824-0.0701-6.5783-0.0652-9.625 0.0625 0.0126-1.7397 5e-3 -3.471 0.0312-5.25-1.4776-0.26052-2.9189-0.48237-4.3438-0.6875 1e-3 -2.17-9e-4 -4.3251 0.0312-6.5625-0.062 0.043-0.12567 0.0819-0.1875 0.125-1.749-1.004-3.491-1.9935-5.2188-2.9375-0.80905-0.44355-1.6104-0.86036-2.4062-1.2812zm108.16 128.34c0.0592 0.54834 0.12977 1.105 0.21875 1.625 0.14713-1.0807 0.0864-1.6805-0.15625-1.625-0.0177-6e-4 -0.044-5e-5 -0.0625 0z" fill="url(#x)" opacity=".39171"/><g><path d="m-741.32 658.97c-38.678 30.04 107.52 119.4 179.12 96.275 159.89-48.276-95.878 12.181-179.12-96.275z" fill="url(#w)"/><path transform="matrix(1.0303 0 0 1 19.308 -2.0203)" d="m-756.66 673.16c23.713 64.107 103.03 109.6 164.25 84.938 136.7-51.482-93.079 30.722-164.25-84.938z" fill="url(#v)" filter="url(#aq)"/><path transform="matrix(.80462 0 0 .95951 -156.87 55.662)" d="m-534.88 690.16c-5.7194-1.4508-19.212 1.9513-12.719 9.75 3.0959 2.7485 8.7148 1.0258 10.125 5.7812 5.1231 4.8779 12.739 1.1172 18.906 3.0938 71.26 6.4478 137.13 47.67 178.31 105.43 54.078 73.582 75.584 168.83 63.349 258.86-11.929 83.899-58.01 163.07-126.78 212.68-17.863 13.386-37.735 23.948-57.728 33.78-4.288 3.2645-0.93693 11.111 4.5625 9.4688 13.24-2.7438 24.851-10.247 37.009-15.905 94.316-50.504 159.31-150.11 169.4-256.45 10.246-97.101-18.215-198.85-81.558-273.47-42.057-49.122-101.96-84.01-166.71-91.11-11.993-1.4522-24.093-2.0547-36.172-1.9082z" fill="url(#j)" filter="url(#as)" opacity=".34101"/></g></g><path transform="matrix(.82602 0 0 .96702 -138.32 72.99)" d="m-502.47 679.61c-5.8355 0.93435-11.643 1.9992-3.7812 5.6562 9.5516 5.5263 21.106 5.956 31.029 10.761 63.421 23.704 114.13 73.414 145.35 132.74 44.784 83.37 55.749 185.18 27.908 275.79-8.4753 27.674-21.397 53.897-36.158 78.643-1.9767 3.2591 1.6735 7.5021 4.8438 4.6874 7.0703-6.0825 10.466-15.231 15.659-22.833 41.439-71.06 53.141-157.64 37.379-238.11-14.751-77.996-54.883-153.01-118.62-201.43-30.386-22.76-65.986-39.626-103.61-45.9z" fill="url(#i)" filter="url(#ar)"/><g><path transform="translate(-1e-5)" d="m-553.72 733.88c-0.74557 0.035-1.5318 0.12905-2.4062 0.34375-4.1261 0.5556-10.702-2.1183-5.1875 3.0938 34.623 45.656 50.657 98.175 62.25 150.12 18.578 91.304 20.103 185.35 0.46875 276.62-12.621 54.545-31.821 109.46-70 156.38-17.261 20.169-39.405 40.961-70.875 46.156-23.06 1.4705-46.562 0.6723-69.781 1.375-12.582 1.0946-0.66646 5.557 6 4.1562 23.598-0.5083 47.315-0.2638 70.844-1.2188 31.409-3.9119 54.436-23.559 72.188-43.031 38.842-44.78 58.794-97.928 72.344-150.72 21.978-91.247 21.793-185.54 5.0625-277.31-10.919-54.69-26.759-110-61.031-158.66-2.3777-3.7224-4.656-7.5572-9.875-7.3125z" fill="url(#h)" filter="url(#e)" opacity=".3318"/><path transform="translate(-1e-5)" d="m-563.39 757.46c37.71 60.651 79.766 149.03 79.766 263.07 0 197.66-67.851 331.81-128.84 331.81-18.344 0-34.13 0.6474-47.938 0.7187 15.306 0.1867 33.208-0.7187 54.531-0.7187 60.992 0 128.84-134.15 128.84-331.81 0-114.04-36.022-204.44-73.736-265.09-11.271-1.9551-53.872-23.19-12.623 2.0203z" fill="url(#g)" filter="url(#e)"/><path transform="translate(-1e-5)" d="m-640.66 738.53c-0.0141 0.0926-0.0177 0.18904-0.0312 0.28125-13.717 112.41-17.211 555.78 3.7188 624.75-8.908-188.91-9.447-378.65 9.8125-567 2.4666-17.309 4.2625-35.333 11.375-51.469-7.8369-1.6918-16.127-3.8818-24.875-6.5625z" fill="url(#l)" filter="url(#ba)"/><path transform="translate(-1e-5)" d="m-683.98 718.22c-38.861 25.477-60.34 69.233-73.979 112.29-10.973 32.185-21.311 64.768-22.133 99.052-1.029 19.035-0.8089 38.106-0.48131 57.158 4.0501-63.814 15.018-128.64 45.562-185.47 14.989-28.105 33.062-54.661 53.844-78.812 2.1352-1.6586 5.4023-3.2369 0.8125-4.0625-1.1754-0.27283-2.632-1.465-3.625-0.15625z" fill="url(#k)" filter="url(#az)"/><path transform="matrix(3.5086 0 0 3.5086 -1116.2 542.41)" d="m113.53 41.688c-37.66 0.37744-61.781 47.656-61.781 97.75 0 0.46385 0.027231 0.91254 0.03125 1.375v0.0625c0 0.00884 1.14e-4 0.02287 0 0.03125-0.007239 0.44749-0.03125 0.89207-0.03125 1.3438 0 34.058 12.877 64.322 32.844 83.438 0.4605 0.24403 0.96495 0.46704 1.4375 0.6875-0.16872-0.40665-0.36554-0.80905-0.53125-1.2188-18.381-19.199-30.062-48.202-30.062-80.656 0-0.4516-0.007097-0.89628 0-1.3438 1.14e-4 -0.00884 0-0.02316 0-0.03125v-0.0625c-0.004418-0.46243 0-0.91117 0-1.375 0-50.094 24.122-97.373 61.781-97.75 0.05856 0.029014 0.10728 0.040623 0.15625 0.0625 0.09079-0.050755 0.15897-0.1062 0.25-0.15625-0.55339-0.60007-2.5483-1.993-4.0938-2.1562z" fill="url(#s)" filter="url(#be)"/><path transform="matrix(3.5086 0 0 3.5086 -1116.2 542.41)" d="m111.06 41.188c-37.082 0.37331-60.812 47.141-60.812 96.688 0 0.45878-0.003962 0.88634 0 1.3438v0.0625c0 0.00884 1.11e-4 0.02293 0 0.03125-0.007125 0.44262 0 0.897 0 1.3438 0 33.685 12.683 63.594 32.344 82.5 0.45344 0.24137 0.9097 0.46947 1.375 0.6875-0.16613-0.40221-0.33683-0.78227-0.5-1.1875-18.099-18.989-29.594-47.682-29.594-79.781 0-0.44667-0.006983-0.90119 0-1.3438 1.11e-4 -0.00884 0-0.02318 0-0.03125v-0.03125c-0.004361-0.45736 0-0.91625 0-1.375 0-49.546 23.73-96.314 60.812-96.688 0.05766 0.028695 0.10803 0.040862 0.15625 0.0625 0.0894-0.050199 0.19162-0.10675 0.28125-0.15625-0.5449-0.5935-2.5407-1.9636-4.0625-2.125z" fill="url(#r)" filter="url(#bg)"/></g></g></g></svg>
