<svg version="1.1" viewBox="0 0 313.34 357.79" xmlns="http://www.w3.org/2000/svg" xmlns:xlink="http://www.w3.org/1999/xlink"><defs><linearGradient id="a"><stop stop-opacity="0" offset="0"/><stop stop-opacity=".41739" offset=".76237"/><stop offset="1"/></linearGradient><radialGradient id="f" cx="520.11" cy="483.86" r="156.67" gradientTransform="matrix(-.025945 1.1122 -.98558 -.022411 945.48 -150.44)" gradientUnits="userSpaceOnUse" xlink:href="#a"/><radialGradient id="e" cx="521.24" cy="424.05" r="67.81" gradientTransform="matrix(.49581 0 0 .49581 262.8 213.8)" gradientUnits="userSpaceOnUse"><stop stop-color="#fff" offset="0"/><stop stop-color="#fff" stop-opacity="0" offset="1"/></radialGradient><filter id="g"><feGaussianBlur stdDeviation="0.34380159"/></filter><radialGradient id="d" cx="456.42" cy="423.47" r="180.75" gradientTransform="matrix(.90031 0 0 1.2218 45.301 -108.75)" gradientUnits="userSpaceOnUse" xlink:href="#a"/><radialGradient id="c" cx="655.08" cy="5333" r="180.75" gradientTransform="matrix(.0068455 -.08617 .080478 .0074292 416.94 440.82)" gradientUnits="userSpaceOnUse" xlink:href="#a" spreadMethod="reflect"/><radialGradient id="b" cx="452.37" cy="393.71" r="156.67" gradientTransform="matrix(2.3212 0 0 1.761 -600.26 -397.89)" gradientUnits="userSpaceOnUse"><stop stop-color="#e3dbdb" offset="0"/><stop stop-color="#e9ddaf" offset=".49018"/><stop stop-color="#f5873d" offset=".53344"/><stop stop-color="#662900" offset="1"/></radialGradient></defs><g transform="translate(-296.83 -269.14)"><path d="m570.46 311.46c20.609 14.289 27.379 40.535 33.233 63.576 7.7965 35.757 7.4373 72.794 4.6656 109.09-4.6342 34.021-13.837 70.523-39.475 95.016-36.229 23.525-76.304 45.499-120.41 47.708-46.25 1.7173-87.299-25.153-120.64-54.531-21.569-26.692-27.046-62.295-30.17-95.501-2.0466-49.447-2.2142-102.09 21.95-146.82 48.609-42.303 114.52-68.825 154.57-58.711 33.678 9.128 64.406 26.368 96.27 40.173z" fill="url(#b)"/><path d="m597.85 372.04c-8.72 23.466-26.057 30.919-38.728 37.59-87.607 46.12-122.86 38.479-222.89-2.1502-9.4908-7.1707-22.069-14.617-28.137-32.522-7.9012 23.154-12.285 52.594-10.961 82.477-2.1939 52.564 12.875 105.53 34.724 122.04 80.019 62.196 135.41 62.275 232.51 5.9225 24.173-14.029 48.134-66.309 45.387-127.87 1.3213-30.952-3.3978-61.847-11.908-85.482z" fill="url(#c)" opacity=".25"/><path d="m444.38 275.26c-0.77571-0.0139-1.5364 0.0288-2.279 0.26989-2.0981 0.18184-4.2461 0.16916-6.1474 0.86964-2.4955 0.44636-5.128 0.61759-7.7068 0.65973-1.2306 0.33788-2.3017 0.62176-3.6585 0.65972-1.9166 0.34447-3.6955 1.0398-5.8176 0.92961-1.3107 0.0733-2.9586 0.20495-4.1983 0.53978-0.13833 0.0436-0.28138 0.0759-0.41982 0.11995-0.0712 0.0245-0.14297 0.0636-0.20992 0.09-0.16391 0.0646-0.31543 0.13267-0.44981 0.20992 1.0797 0.18754 2.1868-0.12153 3.2986 0.03 1.696-0.10147 3.174-1.0024 5.0379-0.74969 0.64178-0.18076 1.3889-0.18256 0.2399 0.03-1.0381 0.47816-1.945 0.87095-3.2986 0.92962-2.1033 0.33708-4.1389 0.89688-5.7876 1.6793-1.4946 0.12742-3.1234-0.25294-4.4382 0.38983-0.94443-0.0191-1.8657 0.14513-2.7888 0.29988-9e-3 3e-3 -0.0212-3e-3 -0.03 0-6.6755 2.4508-13.43 5.2852-20.182 8.5165 1.0346-0.0631 2.069-0.11329 3.1187-0.20992-1.595 0.25976-3.1477 0.62304-4.5581 1.1695-0.26494 0.049-0.53931 0.1-0.80966 0.14993-2.5874 1.2699-5.158 2.6134-7.7368 3.9883 2.8581-0.47249 5.7364-1.1389 8.7564-1.1995 1.0199 0.19095 2.0642 0.29059 3.1187 0.32987 2.2385-0.71099 4.6539-0.78806 7.0771-0.59975 0.26709-0.048 0.54566-0.0679 0.80966-0.11995 3.0063-0.34771 5.6309-1.2928 8.0966-2.309 2.5405-0.44636 4.665-1.1492 6.4173-2.339 1.6068-0.8474 3.6038-1.2317 4.9779-2.2491 0.98191-0.23528 1.9192-0.52047 2.8488-0.80967-2.2739 0.28466-3.6609 1.2818-5.7276 1.7992-1.9216 1.353-4.9822 0.50253-7.4069 0.83965-2.6791 7.7e-4 -5.1091 0.41897-7.6168 0.89963-2.2136-0.0735-4.4508-0.0307-6.6272 0.20991 1.7575-0.32525 3.5025-0.74804 5.3378-0.92961 2.8046-0.81344 4.9193-2.3152 8.0366-2.6989 2.0101-0.22986 3.9512-0.82082 5.9975-0.68971 1.7525 0.0198 3.4377-0.3436 5.1878-0.06 2.2905-0.21517 4.5707-0.55391 6.7172-1.1095 0.3245-8e-3 0.63147-0.0499 0.92961-0.09-0.81847 0.38049-1.6423 0.71877-2.519 1.0496 0.1555-0.0462 0.32252-0.0754 0.4798-0.11995-2.4049 0.96607-4.2055 2.4063-6.7472 3.2386-1.9075 1.2575-4.6032 1.9788-7.0171 2.9088-3.1673 0.82561-6.6282 1.542-9.2062 2.9088-0.9795-0.13475-1.9806-0.25308-2.9688-0.32986-2.313 0.41605-4.7098 0.68791-7.0771 0.59975-0.16717 0.0531-0.34465 0.0895-0.50978 0.14993-2.1074 0.65501-4.4748 0.91276-6.7472 1.1695-2.4089 0.89808-5.0676 1.4106-7.5568 2.2191-1.2921 0.50804-2.667 0.83614-4.0483 1.1695-7e-3 4e-3 -0.0225-4e-3 -0.03 0-6.7144 3.8417-13.343 8.0271-19.822 12.505 1.4917-0.13497 3.0747-0.19946 4.1983-0.89962 3.9208-1.0815 7.1346-2.9603 10.646-4.4382 2.8846-0.27849 5.0549-1.6747 7.8867-2.1291 2.0616-1.0413 5.1298-0.89408 7.5269-1.5893 3.1291-0.7295 5.547-2.1948 8.0666-3.4786 2.1155-1.4198 5.1441-2.2692 7.7668-3.3886 3.8319-1.9547 9.0488-2.293 13.884-2.7888 4.2535-1.5409 9.4566-1.7632 13.165-3.8084 2.4314-1.5083 6.6075-0.57005 9.566-1.8292 2.8676-1.1408-1.4668 1.2144-2.8788 1.2895-2.8677 1.0897-5.9324 2.0937-9.0562 2.9388-3.0082 1.0929-4.0814 3.1244-7.167 4.1683-3.9718 1.1128-5.4004 3.9609-9.9259 4.4681-2.6354 0.78661-5.0805 1.7104-8.2166 1.7992-4.0584 0.98744-8.1921 2.172-10.616 4.4082-2.2202 1.8696-4.0048 3.9712-6.0275 5.8776 1.3693-0.20912 2.7843-0.28807 4.2582-0.32987 3.2672-0.94068 5.9826-2.1295 9.2662-2.9688 1.8464-2.4726 3.7808-5.1632 8.0966-6.4473 3.8051-1.9422 8.1317-3.5284 11.665-5.6077 5.043-1.3369 7.0152-4.7626 12.175-5.9075 3.2544-1.1682 7.4588-1.1094 9.8959-3.0587 1.6395-0.247 3.7511-0.5748 1.2595 0.2399-2.2538 1.595-4.1677 3.2954-6.0275 4.918-1.3389 1.255-3.4568 2.1616-5.3678 3.1787 2.3068-0.9447 4.4157-2.0662 6.2374-3.1787 1.9706-0.13152 4.2609-1.1661 5.3378-1.5294-2.2552 2.0399-3.3133 4.5548-5.6376 6.5973 1.5795-0.6382 3.4024-1.5649 4.918-2.519-1.4405 1.6118-2.7712 3.2513-5.3378 4.3782-3.1348 1.4681-4.2054 3.6839-6.7772 5.3978-1.8068 1.975-4.7747 3.5553-5.8176 5.7876-0.16424 0.0817-0.34205 0.159-0.50979 0.2399-0.34149 1.1337-0.9595 2.2757-1.4694 3.3886 0.40049-0.40445 0.81249-0.80705 1.1695-1.1995 2.8865-1.6058 5.0831-3.4586 8.0666-4.9779 1.5116-1.1312 3.3401-2.2627 5.0379-3.2386 1.9806-2.452 6.8083-3.4531 9.626-5.2478 1.1701-2.092 4.0962-3.504 5.5177-5.5177 1.0447-0.68415-0.29635 1.8249 0.03 2.519 0.0708 0.51641 0.0736 1.0498 0 1.5594 0.56578-1.0673 2.444-2.3794 3.1487-2.339-1.9515 2.3376-3.6362 4.6994-5.0979 7.137-0.36395 0.451-0.80631 0.89154-1.2895 1.3194 0.6581-0.93396 1.2438-1.8923 1.7693-2.8488-0.90376 1.2454-2.1238 2.4378-3.6285 3.4786-0.10579 0.53285-0.36779 1.0133-0.7197 1.4694-0.72303 0.58801-1.4209 1.1684-1.9792 1.7992-1.7601 1.3552-3.7565 2.6474-4.0483 4.4682-1.8774 2.6085-4.7081 5.2585-3.5385 8.2166 8e-3 0.16856-7e-3 0.34059 0 0.50978-0.22167 0.32599-0.42718 0.66757-0.65972 0.98959 0.23705 0.4145 0.41256 0.83068 0.59975 1.2595-0.16391 1.144-0.58355 2.2658-1.6193 3.2986-0.78828 0.96131-0.9265 1.9654-0.89962 2.9988 0.29639-0.80381 0.83377-1.5618 1.7693-2.279 0.22996-0.74144 0.77432-1.3886 1.4094-2.0092 0.32024 1.6963 0.0615 3.406-1.1995 4.9779-0.56286 2.6978-1.7332 5.3812-2.6089 8.0966 0.0996 1.673 0.021 3.3375-1.2595 4.918-0.13315 2.3766-0.2263 5.045-0.20991 7.257-1.0339 0.22538-1.9392 0.55704-2.7888 0.92961 0.35348-0.47003 0.62044-0.9712 0.65973-1.4994 0.26256-1.3254 0.24703-2.7045 0.56976-4.0483-0.80243 1.1108-1.7039 2.187-2.6689 3.2386-0.69161 1.0827-0.66587 2.1441-0.35985 3.2087-1.982 1.1342-3.6724 2.4859-5.8176 3.4786-0.70151 1.7594-2.9258 3.0002-4.6481 4.4082 1.2307-0.58411 2.4555-1.1404 3.6285-1.7693 1.5188-1.2024 4.0678-1.7858 4.9479-3.3286 0.54042-0.73022 1.3495-1.4169 2.1291-2.0991 0.53081 1.3523 1.3953 2.6927 1.7693 4.0183-0.22961 3.0411-1.4692 6.065-1.9792 9.1162-1.2116 1.5039 0.0537 3.1952-0.03 4.828 1.4436-0.98728 2.73-2.0404 3.4786-3.2986 0.64047-2.627 3.2404-5.0216 7.137-6.4473 0.99284-1.2369 2.2196-2.3903 3.4486-3.5385-0.10507 1.4506-1.74 2.7626-2.309 4.0783 1.0732 2.2383-2.1953 4.5471 0.09 6.7472-0.25771 2.6449 2.8968 5.029 2.399 7.6768 0.94862 2.7129-2.382 4.951-2.339 7.6168-1.1203 1.8561-0.0194 3.9466-2.9088 5.3978-1.4199 1.7795-3.5898 4.2374-0.92961 6.0575 1.0947 1.7919-0.0219 3.6023 0.80966 5.5177-0.90126 1.8574-1.074 3.8327-1.4094 5.7576-0.61442 1.2471 0.82087 1.661 2.279 1.6493 0.80175-0.11288 1.8784 0.34266 1.2595-0.77968 2.3-2.5404 0.12962-5.438 1.6493-8.1266 2.7029-3.2864 0.54213-7.352 5.0679-10.256 2.1439-1.5263 3.1722-3.2177 2.8788-5.2178 0.69323-1.797 2.9094-3.4695 1.4094-5.3378 0.0417-2.5923-2.3769-4.9793-0.92961-7.5569 0.40007-1.9537-0.1118-3.9718-1.2595-5.7576-0.9171-1.7529-0.51689-3.3375 0.29988-5.0679 0.0436-2.2128-2.8075-4.1214-2.1591-6.3574 0.15367-0.18265 0.33511-0.35319 0.4798-0.53978 2.2781-1.3922 2.1228-3.1197 1.7393-4.858 1.8223-1.4894 4.1315-2.8005 4.1683-4.798 0.47162-2.603 2.7652-4.683 4.678-6.9871 0.83302-2.6561 0.94991-5.2858 3.4186-7.5868 1.1115-1.6009 1.3773-3.402 2.339-5.0379 0.5806-1.8113 1.042-3.6411 1.8892-5.4277-0.13661-1.7452-2.075-3.383-0.7197-5.1279-0.32036-1.2639 0.0823-2.3403 0.68971-3.4486-1.548-3.0168-1.6426-6.2674 0.14994-9.2362 0.18785-1.7402 0.87743-3.3559 2.1591-4.9479 0.38229 2.1316 1.0516 4.0926 0.50979 6.1474 1.2739-1.423-0.29117-3.0277 0.89962-4.4981 2.1143 3.1874-0.83976 6.5849 1.1695 9.8059 2.4679 2.5208 3.6782 5.4839 2.429 8.3665-0.60086 2.2083-1.9174 4.1934-1.9192 6.4473 0.73214 1.898-0.0514 4.12 2.1891 5.8476 1.3305 2.3759 2.9323 4.6674 5.2478 6.7472-1.0967-1.6832-0.59101-3.4144 0.74969-5.0079 0.25671-2.2528 0.41541-4.4894 0.2399-6.7472 1.2687-1.9243 0.52122-4.0338 1.2895-5.9975-0.72-2.0962-2.46-4.0807-2.7888-6.2674-0.38284-1.8142 1.006-3.5423 0.59975-5.2778 0.15221 0.26417 0.33533 0.51172 0.4798 0.77968 0.61879 2.2012 1.0734 4.541 4.4981 5.9075 0.42572 0.43123 0.87782 0.86599 1.3194 1.2895 0.26172-1.413 0.56189-2.8408-0.2399-4.2582-0.21278-1.2233 0.0386-2.4288 0.17993-3.6285 0.75721 1.4168 2.7766 2.6514 2.1291 4.3182-0.27711 1.8622-0.14127 3.5701-0.11995 5.3978-6e-3 0.02 5e-3 0.04 0 0.06 1.0691 1.0295 2.1078 2.0555 2.9988 3.1487 2.1415 1.9511 3.4607 4.4094 2.9988 6.7472 0.32584 0.59842 0.56815 1.218 0.80966 1.8292-0.13216-0.20784-0.2901-0.3913-0.41983-0.59975-1.9744-1.9631-3.7914-4.0377-5.0079-6.2374 0.22762-1.6836-1.7873-3.2436-1.3794-4.888-0.65084-0.62676-1.2942-1.2612-1.9492-1.8892-0.22512 1.2154-0.44637 2.428 0.11995 3.6585-1.3847 2.7316 2.4084 5.1377 1.4694 7.8567-1.4508 1.7566-1.0522 3.8844-0.92961 5.8176 0.91081 2.3217 1.0336 4.6957 1.8592 7.077 1.6208 1.9867 1.3618 4.1999 2.0092 6.3574-0.0958 2.1636-1.2636 4.2137-0.03 6.2974-0.55968 1.7882 1.6618 3.1017 2.429 4.768 1.3383 0.84287 3.1723 1.7241 4.2882 2.8488 2.4141 2.2082 4.0544 4.6645 6.6872 6.8671 2.4934 2.0812 3.0894 4.6912 3.4486 7.167-1.0294 1.8967 0.21068 3.5982 1.3494 5.3978 0.0988 2.5355 1.5176 4.804 1.7393 7.287-1.554 1.9426 1.3642 3.3798 2.7289 5.0379 0.0419 2.2019 2.2816 3.8408 4.828 5.2778 0.81058 1.1796 1.7109 2.3159 2.6389 3.4486 2e-3 -0.77182 8e-3 -1.5432-0.41982-2.2491 0.10025-1.9974-2.267-3.9004-1.1995-5.8476-0.46349-2.3822-0.39594-4.8042 1.1995-7.0471 1.9248-1.7244 0.036-3.5375 1.0496-5.3078-0.10585-2.0257-2.3365-3.8527-1.7093-5.9675-0.91161-2.5803-3.2637-4.9089-5.7276-7.167-0.40879-1.4628-1.5184-2.726-2.6989-3.9584 1.5173 1.245 3.0166 2.4683 4.2582 3.6885 3.2947 1.5026 7.3289 2.7104 9.656 4.768 1.4507 1.7009 4.0618 2.8447 5.7576 4.4382 3.2522 0.94814 3.4846 3.3878 3.4186 5.2478 1.9555 2.2318 4.261 4.196 5.9675 6.4773 2.697 1.7804 3.959 4.0397 6.1474 5.9675 0.56111 2.0407 3.0472 3.6346 3.8384 5.6676 1.0164 0.71475 2.1676 1.4996 3.3286 2.2191 0.79034-0.32706 1.5814-0.65806 2.369-0.98959-0.37777-1.5863-1.3052-3.0285-2.7289-4.4382-0.49249-2.331-4.5229-3.754-3.9284-6.2674-3.2679-3.2503 2.3769-6.7283-0.92961-9.9558-2.0854-1.3827-1.1159-3.204-2.309-4.798-2.824-1.8929-3.871-4.69-6.9571-6.5972-1.0166-2.3548-1.4968-4.9664-3.3586-7.167-2.3609-1.5064-4.0828-3.4087-5.4877-5.3678-2.4318-1.3863-3.7845-3.3568-5.8476-4.828-1.7444-1.2228-4.0364-2.311-3.0587-4.0783-0.5549-2.141-1.2652-4.2268-1.7093-6.3873-1.6557-2.5792-6.094-4.6116-5.3678-7.6168 0.0369-0.17546 0.0637-0.33555 0.09-0.50979 1.2572 0.91157 2.3851 1.8746 3.1487 2.9988 1.6866 1.6183 1.4298 3.829 3.8384 5.1579-0.33065-1.6092-0.26396-3.2677-0.26989-4.828 0.69061-2.254-4.001-3.1867-4.4082-5.3378-1.3411-1.4815-3.2494-2.7358-3.6585-4.4682-0.60886-0.79468-1.3653-1.5134-2.2191-2.1891-0.12156-0.49904-0.0661-1.0103 0.2399-1.5594-0.70899-2.2057-0.42711-4.6069-2.6089-6.4773 0.74083-2.7818-1.3747-5.5467-3.5085-8.0367-3.6094-2.1393-6.5448-4.7047-7.6168-7.6768 0.23938 0.10226 0.49112 0.21604 0.77967 0.29987 1.6944 1.998 4.5776 3.5449 7.4669 4.9779 0.2026 0.0679 0.36212 0.15876 0.53978 0.2399 0.79984 0.90225 1.7904 1.7303 3.2386 2.399-0.0617-0.0901-0.11983-0.17951-0.17992-0.26988 0.58002 0.37186 1.2711 0.69433 2.2191 0.86963 4.6819 1.0825 5.0506 4.464 9.2961 5.7876 1.5534 0.98451 2.9749 2.0278 4.3482 3.0887-1.1126-0.71383-2.371-1.3536-3.6885-1.9792-1.9356-1.5201-5.1189-2.0981-6.6572-3.7784-2.4098-0.84125-3.0151-2.5885-5.0379-3.5685-0.10788-0.0459-0.19681-0.10235-0.29988-0.14994 1.2213 1.7845 2.7588 3.5058 4.828 5.0079 0.16679 1.4636 2.1955 2.7053 2.6389 4.0783 0.7754 1.9341 1.2043 4.1602 2.9088 5.9675 3.5612 1.4437 4.5502 4.0195 7.7968 5.6376 3.4672 0.83076 3.576 3.3187 6.3574 4.3782 2.5408 0.96691 5.384 1.6214 7.7068 2.8788 4.8879 0.85231 6.3992 3.942 9.9259 5.6976 2.7116 2.1552 5.3741 4.3306 8.1566 6.4773 2.1082 0.93361 1.9246 2.7619 4.3782 3.3886 1.2589 1.2371 3.1039 2.0283 5.1279 2.6689-0.91478-1.46-2.4004-2.7897-3.0587-4.3182-1.7125-1.9149-4.1716-3.4567-5.5777-5.4577-1.2597-0.54089-1.9741-1.2561-2.489-2.0092 0.87295 0.3505 1.8615 0.64341 2.7888 0.9596 1.5046 1.9364 4.2516 3.236 6.7772 4.6781 2.2809 3.0234 6.1767 5.6659 11.545 6.9571 1.447 1.9659 4.2973 2.9696 7.257 3.9584 5.4669 1.3773 9.1412 3.9525 13.764 6.0575 4.0231 1.2559 4.4439 4.1832 8.1566 5.5477 0.0119 4e-3 0.0181 0.0257 0.03 0.03-0.65251-2.541-1.2986-5.0996-2.0092-7.6768-1.2578-0.54339-2.5783-1.081-3.6885-1.7093-3.3972-1.4101-4.9397-3.7453-7.5568-5.6077-1.469-1.5409-2.4278-3.14-5.3378-3.9883-2.8484-2.1043-6.8669-3.7504-11.395-4.2582-2.9625-0.98804-5.0577-2.758-8.6664-3.2087-4.0775-2.3895-9.3456-3.7397-12.925-6.4173-1.3932-0.46326-2.8035-0.91574-4.1683-1.3794 0.36059 0.38491 0.65229 0.79787 0.9596 1.1995-2.1876-0.87793-4.3933-1.831-6.8072-2.5489-3.8398-0.74889-4.1968-3.499-7.227-4.6481-1.6926-0.96777-4.1003-1.8528-4.6781-3.2686-0.29819-0.19262-0.54538-0.39442-0.80966-0.59975-3.4496-1.1338-2.552-3.8883-5.3378-5.4877-0.42379-0.69063-0.98518-1.3042-1.6193-1.8892 0.67199 0.52314 1.344 1.0465 2.0392 1.5594 1.5561 1.9729 2.7024 4.0961 4.918 5.8176 0.0816 0.0268 0.15334 0.065 0.2399 0.09 4.2163 2.1192 7.0903 4.9907 11.935 6.5673 1.6327 1.4465 3.9242 2.3503 6.3574 3.1787-0.61536-0.65211-1.3408-1.2634-2.279-1.8292-2.2899-2.5615-4.1999-5.1369-5.4877-7.9467-2.0312-1.34-5.0958-1.8345-6.7472-3.4186-2.1208-0.91271-4.1657-1.5666-4.5281-3.2087-2.3439-2.2711-4.9692-4.5824-7.7668-6.6872-0.0827-0.24524-0.19751-0.46847-0.35985-0.65972 1.2613 1.1996 3.0205 2.1588 4.5881 3.2686 1.4702 2.3968 4.6012 4.4384 8.6064 5.4877 2.0537 1.7538 4.7312 3.0623 7.6168 4.2582 2.9361 0.88516 6.1566 1.4909 9.2661 2.339 4.5186-0.12863 6.204 2.6941 9.686 3.7484 2.7495 0.87974 5.6745 2.0144 7.257 3.8084 3.1486 0.83027 5.4136 2.2654 8.1866 3.4186 3.8107 2.6162 10.037 2.7025 15.024 4.1383 1.6494 0.0634 3.0875 0.38099 4.4382 0.80966-0.85883-2.1059-1.7991-4.1492-2.7888-6.1774-0.0279-0.0207-0.0624-0.0391-0.09-0.06-4.3339-0.98751-7.8002-2.7926-10.676-4.828-1.4927-2.4804-5.6372-3.4941-8.3365-5.3978-3.0713-0.58493-5.7713-1.5783-8.1266-2.8788-1.6222-1.4484-3.9023-2.2941-6.7172-2.7888-2.4256-1.0743-3.868-2.7472-6.7172-3.5985-1.6406-1.4681-4.491-1.9549-6.5973-3.0887-4.6696-2.7159-12.721-1.6902-16.763-4.9479-1.5882-1.8215-2.7998-3.5798-4.9779-5.2478-3.2798-2.1539-6.4316-4.5428-11.155-5.5777-2.6673-1.7107-6.7746-1.3979-9.656-2.8188-1.7787-1.319-3.9491-2.3808-6.3574-3.2087 0.30217 0.46183 0.6112 0.91063 0.9596 1.3494 1.6952 0.57097 2.5633 1.4891 3.4186 2.429 0.0605 0.0211 0.11762 0.0398 0.17992 0.06 1.8931 1.8617 5.995 2.5811 7.4969 4.6481 1.9838 0.96835 1.757 2.5979 3.6885 3.5685 2.4643 1.9962 3.7027 4.627 7.4669 5.9975 0.21729 0.35886 0.50218 0.69886 0.80967 1.0196-1.2658-1.1021-3.798-1.3481-4.888-2.6989-2.47-1.0006-2.5666-3.1001-4.798-4.3182-0.52462-2.6836-4.2184-4.4077-7.3769-6.1175-1.1638-0.6069-1.875-1.3855-2.5789-2.1591-1.6382-0.5703-2.6434-1.4526-3.4186-2.429-0.17493-0.0589-0.34611-0.12889-0.53977-0.17992-2.5801-0.74953-6.2137-1.7612-7.4969-2.9088 2.5014 0.40196 4.8858 0.98597 7.077 1.7393-0.95108-1.4536-1.8635-2.9386-3.9883-3.8684 3.0439 1.2566 6.5273 1.6678 9.8959 2.459 3.1963 0.22001 6.0516 1.0448 8.8763 1.9192 3.7693 0.73112 6.3138 2.4908 10.136 3.2087 4.0338 1.3766 8.1084 2.6348 11.215 4.708 2.6142 0.84474 3.9295 2.4153 5.9075 3.5685 3.1456 0.87226 6.7451 1.3095 8.3965 3.3286 3.9758 0.78204 5.4492 3.7653 9.9858 3.8984 4.1714 1.6877 9.0168 2.3161 13.434 3.6885 0.97313 0.0176 1.9218 0.0944 2.8488 0.2399-0.65304-0.44414-1.3353-0.86281-2.309-1.1095-1.958-0.41384-1.968-1.8114-3.3886-2.5489-1.657-0.91362-3.0295-2.1078-5.2478-2.5489-1.8434-0.80475-4.0652-1.2779-5.5177-2.399-3.2465-1.0676-5.2349-3.1965-8.7863-3.9883-1.9465-0.85097-4.2877-1.6591-6.0875-2.5489-3.2326-0.96883-6.9559-1.4326-9.716-2.8488-2.2905-0.99535-4.9092-1.759-7.5569-2.309-2.5321-0.17136-3.4925-1.893-5.6676-2.489-1.255-1.0067-3.0579-1.5237-4.858-2.0392 1.724 0.40939 3.6866 0.26906 5.2178 0.89963 1.9278 0.8782 4.1106 1.742 6.4773 2.0691 1.0814-0.0218 3.5236 0.43263 3.8684 0.2399-1.2259-0.5011-2.1762-1.1524-3.3286-1.7093-1.87-1.111-5.092-1.0809-6.7472-2.339-1.6939-0.39965-3.4586-0.63209-5.3078-0.83965-2.1791-0.41491-4.2562-0.89582-6.4173-1.3194-1.1147-0.26018-2.2681-0.72237-3.3886-1.1095-2.4076-1.1385-5.5497-1.8623-8.5164-2.1291 1.7702 0.0285 3.4897 0.44922 5.2778 0.29987 1.7523-0.45934 3.3944 0.21682 4.738 0.77968 1.4645 0.42338 2.7328 1.0636 4.3782 1.2295 0.85978 0.14653 2.0856 0.11477 0.77967-0.32986-1.7323-0.67111-3.2316-1.5977-5.3678-1.7393-1.3009-0.68848-3.2126-0.58874-4.6181-1.1395-1.6077-0.34142-2.9869-0.82528-4.2282-1.4994-1.534-0.23537-2.583-0.81494-3.5685-1.4994-1.3972-0.33476-2.823-0.52646-3.9584-1.1395-1.4349-0.65164-2.7869-1.6021-4.798-1.6193-1.322-0.51418-2.8749-0.61342-4.2882-1.0196-1.709 0.15658-3.4644 0.0482-5.0979-0.26988-1.4823-0.32372-3.0776 0.31514-4.6181 0.03-2.2517-0.0584-4.5219-0.0968-6.7772-0.11995-1.4612-0.14838-2.9288-0.40527-4.3482-0.7197-1.5997-0.21193-3.1749-0.61344-4.828-0.62974h-0.77967c-0.76589 0.0765-1.5633 0.0139-2.339 0zm121.72 40.453c0.73649 0.50089 1.4223 1.0398 2.399 1.3794 1.3725 0.29039 2.7433 0.73021 4.0183 1.2295-0.30435-0.29788-0.61734-0.57829-0.92961-0.86964-1.5624-0.80443-3.4545-1.4201-5.4877-1.7393zm-8.6664 37.814c0.0143 0.0228 0.046 0.0371 0.06 0.06 0.34791 2.3456 5.1775 3.4921 5.6676 5.9076 3.3329 1.8229 2.8806 4.8289 6.5972 6.4173 2.1436 1.906 1.231 4.6282 5.0379 5.8476 1.4267 1.7298 3.8396 3.2842 4.3482 5.1579 0.69847 1.734 3.7841 2.4623 5.6376 3.7484 0.92301-0.47645 1.84-0.96107 2.7588-1.4394-0.6309-0.75177-1.1847-1.5224-1.2895-2.429-2.9191-2.1052-1.5692-5.0538-4.1982-7.257-1.2279-1.5111-2.8255-2.8458-4.6481-4.1083 0.0607-2.2894-1.758-4.1732-5.2478-5.2478-2.9508-1.6068-6.0392-3.0812-8.6664-4.858-1.9262-0.66903-4.0746-1.1716-6.0575-1.7992zm-47.8-13.524c0.0736 0.358 0.15036 0.6976 0.26989 1.0496 2.1378 2.0353 3.3596 4.4047 3.9284 6.7772 1.5892 1.5895 1.0472 3.6368 3.1187 5.0379 0.48282 0.78837 1.0147 1.5977 1.5893 2.399 0.54206 0.30902 1.0957 0.59975 1.7693 0.83966 6.1624 1.2115 6.8812 5.72 12.025 7.5868 3.0151 0.94988 2.5155 2.8415 3.8084 4.3182 1.487 2.6462 3.3912 5.218 7.257 6.9571 2.5257 0.83833 3.3213 2.6459 5.1578 3.6585 0.17549 0.0543 0.36176 0.0968 0.53978 0.14994-0.7522-1.0822-1.5675-2.1472-2.8188-3.0887-2.5805-2.0192-4.3837-4.3759-7.257-6.2374-1.6233-2.765-4.0399-5.2344-6.1474-7.8867-0.78171-2.4748-3.9366-4.3383-5.3978-6.6872-0.45341-1.6045-2.5106-2.5983-3.8384-3.8384-2.491-1.52-4.1123-3.7141-7.3769-4.768-2.5875-1.819-3.764-4.1034-6.1174-6.0275-0.17529-0.0767-0.35714-0.15568-0.50979-0.2399zm39.464 38.774c1.1427 1.644 2.1446 3.335 4.2582 4.6781 0.84228 2.7216 4.7211 4.7434 8.8763 5.8476 0.71402 0.50702 1.4933 0.97447 2.2791 1.4394 0.33906-0.16113 0.68103-0.3181 1.0196-0.4798-3.1415-1.8148-3.6598-4.5069-5.3678-6.7172-2.1839-2.5786-6.9239-3.5326-11.065-4.768zm-40.093 21.141c-3e-3 0.96971-0.0199 1.9434 0.7197 2.8488 0.69055 1.6292 1.1791 3.369 2.9988 4.6181 0.76451-0.12964 1.573-0.19468 2.369-0.29988 1.4697-0.17136-2.5933-1.5347-1.8592-2.1291-1.4055-1.7039-2.8566-3.3638-4.2282-5.0379zm-41.023-63.843c0.0519 0.0797 0.0907 0.16031 0.14994 0.2399-0.0338 1.8739 2.1844 3.6249 0.9596 5.4577 1.9522 4.1549 0.0819 8.6684-3.5085 12.295 0.97127 1.8635 1.6857 4.1767 1.3194 6.2974 0.7647 3.1184 1.4152 6.308 1.4094 9.4761 0.28043 1.9072 0.69475 3.9698 1.8892 5.7576 0.17476 2.2706-0.61991 4.7146 1.7693 6.7472-0.0808 2.5137 0.36476 5.0067 1.4394 7.4669 2.7512 1.9814 2.7354 4.8908 3.2986 7.317 4.7408 1.5877 4.0611 5.1635 7.167 7.4369 0.0551 0.58249 0.24069 1.1399 0.4798 1.6793 0.0448-0.50184 0.054-0.98888-0.03-1.4394 0.16766-2.9214 2.685-5.8514 0.9596-8.7264 1.3189-2.5608 0.39533-5.2507-0.62974-7.7968-3.9808-2.7564-2.6896-6.5697-4.828-9.716-0.17695-2.2688-0.60934-4.5303-0.59975-6.7772 1.1903-2.2603 0.78251-4.5872 1.7693-6.8372-1.0414-1.8484-0.0888-3.9788-0.47981-5.9075-1.1835-2.6096-3.3796-4.8993-3.1187-7.6768-1.8981-2.2233-0.91188-4.8614-2.339-7.107-0.14065-2.8346-3.8971-4.7654-5.9076-7.167-0.42071-0.3277-0.79066-0.67929-1.1695-1.0196zm16.373 70.171c-0.12393 1.3886-0.492 2.8843 0.32986 3.9584 0.9251-0.066 1.8353-0.27828 2.7888-0.14994-1.3723-1.1927-2.5091-2.4333-3.1187-3.8084zm-26.389-102.89c-0.0651 0.0727-0.12921 0.1382-0.20991 0.20992-1.0567 1.7674-2.4739 3.8419-1.4094 5.7576-0.40001 0.7162-0.83503 1.4042-1.1995 2.0691-0.1606 2.4995 1.4406 4.999 0.59975 7.4969-0.21335 0.36616-0.39422 0.70937-0.56976 1.0796 0.0125 0.15924 0.0214 0.3182 0 0.4798 0.0216 2.7993-1.7924 5.3976-1.9492 8.2166-0.67688 2.3119-0.69485 4.744-0.7197 7.0771-0.71689 1.7419 0.47551 3.3772 1.0496 5.0379 0.67059-1.9394 0.0514-4.0319 0.44981-6.0275 2.1155-1.875 0.78042-4.2424 1.2895-6.3873 1.293-2.1482 1.8492-4.3866 1.4094-6.7172 0.66272-4.0083-1.5286-7.9555-0.20991-11.875 2.231-1.698-0.0904-3.7286 1.1995-5.6376 0.10971-0.26306 0.20147-0.5202 0.26989-0.77968zm-39.464 69.091c-2.3573 1.6122-5.1314 3.0679-6.7772 4.918-1.1518 1.8928-0.53887 3.8236-0.50979 5.7876-0.8763 3.6122-6.9319 6.3404-5.9375 10.256 0.37823 1.9286-1.3371 3.5894-1.3494 5.4577-1.3896 1.7675-3.0924 3.6761-3.3886 5.6976 1.0875-1.5943 1.5205-3.4843 3.6285-4.768 2.4099-1.0746 4.8071-2.4164 4.5881-4.3782 2.4299-1.5888 0.95754-3.545 1.8292-5.3978 1.3028-1.5976 2.348-3.1355 3.0287-4.858-3e-4 -1.6479 0.43919-3.3247 2.279-4.6481 0.0522-2.4463 3.0962-4.5515 2.369-7.0471 0.17066-0.33123 0.22254-0.68088 0.2399-1.0196zm-17.963 32.117c-0.43754 0.64144-0.97318 1.2512-1.7693 1.7393 0.80511 0.19992 2.2348 0.50761 1.7393-0.59975-0.0577-0.39003-0.0259-0.75833 0.03-1.1395zm7.4969-42.882c-1.9754 0.93758-3.9235 1.9108-5.4877 3.1187-1.7012 1.5615-1.9649 3.6046-3.8384 5.0679-1.5204 1.9773-4.1342 3.35-5.3078 5.3978-3.0767 1.75-5.2502 3.9773-6.5673 6.4173-2.2716 1.6216-3.2775 3.6969-4.4981 5.6676-0.10845 2.3814-2.2693 4.3634-3.8684 6.4773-0.74693 1.5706-1.5214 3.184-2.519 4.738 4.0597-2.1106 5.2306-5.3669 8.5464-7.7668 2.2886-1.1548 3.6994-2.6156 4.3482-4.3182 0.86317-1.9337 1.7499-3.888 3.5985-5.6077 0.77573-2.3653 3.8734-4.1942 5.6077-6.3574 2.4198-1.1664 2.8243-2.9357 3.7484-4.6481 1.4026-1.6869 3.6305-3.0545 4.0483-4.9779 0.12039-1.2541 1.0434-2.272 2.1891-3.2087zm16.523-21.891c-0.0756-1.2699-0.24467-2.5341-0.09-3.8084 1.2272-1.5811 0.76312-3.3085 0.7197-4.9779-0.2964 0.80381-0.35281 1.6636-0.2399 2.5489-0.44904 1.2211-1.6357 2.3844-2.0392 3.7184-0.0677 2.4308-0.65175 4.9281-0.06 7.4069-0.68795 0.84221-1.0673 1.7299-1.2895 2.6389 0.79217-1.1001 1.4735-2.251 2.0092-3.3886 0.17591-1.3909 0.54686-2.7654 0.98959-4.1383zm17.123-37.274c0.75795-1.0444 1.2708-2.1164 1.4394-3.2386-0.0776 0.15326-0.13663 0.31289-0.14993 0.44981-0.32824 0.9493-0.78252 1.866-1.2895 2.7888zm-27.978 12.835c-1.2015 1.2134-2.4089 2.4753-2.489 3.8684-0.20159 0.89549-0.7047 1.7097-1.2295 2.519 1.3445-0.60332 2.674-1.2189 3.2986-2.1891-0.65144-1.4378-0.21717-2.8079 0.41982-4.1983zm-3.7184 6.3873c-1.6036 0.71962-3.2311 1.4238-3.6585 2.6989-2.1958 1.4602-3.5801 3.2713-6.6872 4.2882-0.50058 0.35352-1.0944 0.68594-1.6793 1.0196-0.75741 1.1333-1.8174 2.1656-3.7784 2.8788-0.24729 0.16758-0.46194 0.33338-0.68972 0.50979 0.74721-1.3625 2.6895-2.374 4.4682-3.3886 1.0145-1.518 1.4999-3.2188 2.7289-4.678 2.3174-1.2375 2.7656-2.887 2.9688-4.678 1.8757-1.4819 1.6871-3.741 4.888-4.6481 1.5819-1.5451 4.2554-2.6343 6.6272-3.7784 0.0483-0.16021 0.11512-0.31864 0.14994-0.4798 0.25053-2.6304 2.361-4.963 4.768-7.107 3.5049-1.262 5.4818-3.3268 7.9467-5.1579 0.23449-0.17705 0.44842-0.35409 0.65973-0.53977-0.0892 0.036-0.18251 0.0857-0.26989 0.11995-1.8059 1.7386-4.7513 2.886-7.5269 4.1383-2.7369 1.0494-2.7284 3.1759-4.888 4.3782-1.932 2.3396-4.43 4.5341-8.0366 6.2374-4.3108 1.346-7.5203 3.6194-11.455 5.3078-1.8974 2.0346-4.2276 3.8596-7.6468 5.0679-4.1995 2.2381-9.1719 3.9487-13.464 6.0875-2.5808 0.44479-4.104 1.3679-5.3078 2.7888-4.4051 3.1675-9.9707 6.4458-10.915 10.616-1.3517 2.1286-2.8819 4.3738-5.6676 6.0575-1.8814 1.9388-0.57026 4.2253-2.429 6.1175-0.39481 2.0292-1.079 3.832-2.279 5.7876-1.5617 2.297-5.0347 4.052-5.8776 6.6272-1.9506 1.8411-4.4944 3.2909-6.6572 5.0979-3.8692 1.3714-6.1881 3.5592-8.7264 5.6676 0.17144-0.0908 0.32624-0.18461 0.50979-0.26989 3.38-1.5102 5.3442-3.6811 8.5165-5.2478 4.63-1.774 8.2016-4.7525 13.974-5.3678 4.0563-0.36028 6.209-2.723 10.076-3.3886 2.0402-1.3784 3.5493-2.9772 5.9675-4.2582 0.71481-0.24041 1.3204-0.52927 1.8892-0.83965 0.42382-0.66275 0.7313-1.3495 0.80966-2.0991-0.55663-2.7361 3.8384-4.3461 5.1579-6.7472 2.8154-1.3094 4.0326-3.132 6.0575-4.768 1.9271-2.1092 4.177-4.1749 5.5777-6.4473 3.3395-1.694 4.8268-4.1739 7.4069-6.1774-0.22007 0.4108-0.33449 0.82981-0.29987 1.3194-1.1805 2.0702-0.77317 4.5934-4.0783 5.9975-1.3059 2.5085-3.629 4.8416-6.7172 6.7472-3.4138 1.3731-6.2057 3.3324-8.2466 5.4277-1.3879 2.364-2.5083 5.0234-5.6676 6.7472-1.4383 2.2492-4.5274 4.0466-7.227 5.8176-1.3761 1.6374-3.3749 3.0644-3.4486 4.9479-1.1217 2.8949-6.0965 4.8536-5.6376 8.0367-0.8241 2.3441-0.83798 4.5861-1.4694 6.9271-1.1192 2.0869 0.74504 4.7336-2.429 6.4773-1.5555 1.4955-2.5401 3.3001-3.2386 4.9779 0.24792 0.13251 0.50126 0.25796 0.74969 0.38984 0.58771 0.073 1.2486 0.0456 1.7992 0.20991 1.2499-2.3991 4.4032-4.1747 6.9571-6.1474 2.03-1.9311 3.6119-4.0179 4.0483-6.3274 0.82636-1.9986 2.691-3.7825 2.5789-5.8776 0.66705-1.6801 0.72044-3.3121 2.339-4.798 0.90071-1.5889 0.76068-3.1177 0.44981-4.708-0.81466-3.2464 4.8951-5.0063 5.0079-8.0966 2.2641-2.2705 5.3078-4.119 8.6364-5.8176 2.886-2.3576 3.8998-5.3512 7.107-7.4669 2.3215-1.798 6.935-1.9636 7.9467-4.3782 3.0427-2.6272 1.9917-6.3982 6.7172-8.4265 0.52737-1.9395 3.7814-3.0794 4.678-5.0079 0.77471-1.9166 3.8805-3.086 4.3782-5.0979 0.14289-1.178 0.86625-2.2299 1.5594-3.2986zm-82.436 57.036c-2.279 1.2076-3.5654 2.8899-5.6376 4.1983 0.13264 0.085 0.25703 0.18499 0.38984 0.26988 1.529-1.4554 3.5929-2.755 5.0079-4.2582 0.0829-0.0682 0.15751-0.14147 0.2399-0.20991zm49.989-66.003c-1.7272 0.26378-3.3512 0.70824-4.798 1.4694-4.6202 0.54873-8.0333 2.5425-11.605 4.0783-3.6623 1.8429-8.3662 2.2815-12.805 3.1187-3.1655 0.77311-6.471 0.70131-9.596 1.6193-3.0889 2.0626-3.4875 5.7018-8.3066 7.167-2.0729 1.486-4.5681 2.743-7.227 3.8984-1.233 2.4386-2.4158 4.8942-3.5085 7.3769 4.9133-0.85107 9.6693-1.7926 14.064-3.2686-1.0012 1.3463-1.4761 2.7894-3.0287 4.0483-0.4055 2.2118-1.1239 4.3736-2.489 6.4773-2.1727 1.4356-2.4677 3.5146-5.0079 4.858-0.90964 1.1021-1.6102 2.2875-2.399 3.4486 2.2578-1.0882 4.587-2.1079 5.6676-3.7784 1.6366-1.0535 4.8248-0.56985 6.5673-1.8592 3.2938-0.63763 5.268-2.3226 8.1566-3.3286 3.066-1.4849 6.2505-2.9646 8.6964-4.798 3.1344-1.4684 7.783-1.6663 9.3861-4.0483 2.818-1.6012 5.9122-3.1822 6.8072-5.4877 2.7715-2.4597 5.4557-5.0272 9.8059-6.7172 4.3171-0.28171 3.8068-3.2929 4.5881-5.1579 1.7948-1.2477 2.9612-2.6986 4.0783-4.1683-3.7252 0.17128-6.9151 1.5754-10.736 1.5893-3.4993 1.2475-7.563 1.4415-11.365 2.1591-1.6963 1.3071-2.6665 2.8088-4.0183 4.1683-3.0236 2.0919-5.5304 4.4366-7.197 6.9871-2.6808 0.76489-4.8962 1.9994-8.0966 2.0991-3.1798 0.37058-5.4674 1.4118-7.4969 2.8188-0.61648 0.23659-1.2563 0.47676-1.8892 0.68971 0.42206-0.56501 0.91098-1.1177 1.6493-1.6193 0.74289-1.8202 3.43-2.4611 5.5777-3.5385 3.0916-1.2592 3.1674-3.8768 6.2974-4.9779 2.4391-0.83322 4.6036-2.014 6.4773-3.2986 3.0482-0.92247 5.7889-2.0909 8.5764-3.2986 0.0401-8e-3 0.0798-0.0224 0.11995-0.03 0.1501-0.11567 0.28735-0.21768 0.44981-0.32987 1.103-1.9861 3.5358-3.1424 6.2974-4.3482 3.4842-0.71501 4.6696-2.92 8.1266-3.8384 0.0624-0.058 0.11801-0.12157 0.17992-0.17992zm7.0471 4.9479c0.17922-8e-3 0.35799-0.0277 0.53978-0.03 5.3171-2.0325 11.54-3.7211 14.394-7.287 2.3895-1.5803 6.0969-2.4134 8.3065-4.0783 2.0303-3.1473 7.5206-4.7045 11.515-6.9571 0.7193-1.0161 1.9421-1.8037 3.2686-2.519-0.72244 0.2923-1.4598 0.55957-2.2191 0.80966-3.748 0.39574-5.8091 2.455-9.3861 2.8788-1.9069 1.7392-4.6762 3.0264-7.197 4.4082-3.7385 0.5738-4.3096 3.1108-7.4669 3.9883-2.6252 1.6487-5.5141 3.0267-8.1866 4.738-1.4832 1.2592-2.5115 2.6577-3.5685 4.0483zm-63.753 39.344c-1.3935 0.67159-2.7631 1.3613-3.7784 2.2491-1.8885 0.76332-3.3793 1.7409-4.798 2.7588-0.1826 0.62742-0.33396 1.2599-0.50979 1.8892 1.0719-0.96669 2.2227-1.8915 3.9284-2.5789 2.6525-1.0552 4.0218-2.646 5.1579-4.3182zm99.139-71.31c-0.80326 0.23844-1.5731 0.48521-2.309 0.77967 0.78262-0.24346 1.5658-0.49926 2.309-0.77967zm70.081 0.53977c2.8102 0.19128 4.9854 1.417 7.8567 1.5893 2.7453 0.96812 5.8855 1.4955 8.3065 2.7888-0.68059-0.20118-1.3457-0.4046-1.9792-0.65972-2.835-0.7582-6.3323-0.35716-8.8463-1.6193-1.2157-0.99743-4.8958-1.2662-5.3378-2.0991zm-12.115 5.5477c0.44166 0.0555 2.3402 2.0726 3.4786 2.8188 0.22352 0.20673 0.4302 0.43374 0.59975 0.65973-1.3789-1.1652-2.8346-2.2914-4.0783-3.4786zm6.1774 1.7693c2.0777 2.191 3.7269 4.4556 6.2374 6.4773 0.62838 0.52952 1.1297 1.0982 1.5893 1.6793-0.16203-0.0528-0.35212-0.10673-0.53977-0.14993-2.4726-1.4658-4.4818-3.1222-5.5177-5.0979-1.0543-0.63831-1.4399-2.4095-1.7693-2.9088zm-9.3561 3.0887c0.0826-0.0675 0.32288 0.18549 0.59975 0.89963 0.0907 1.9048 1.6283 3.5651 3.0587 5.2478 0.27505 0.60803 0.37265 1.2006 0.41982 1.7992-0.0112-0.0191-0.0191-0.0408-0.03-0.06-2.5038-1.9548-3.402-4.509-3.6885-6.8372-0.3557-0.59982-0.44246-0.98211-0.35985-1.0496zm-9.3861 0.50979c0.24299 1.8365 2.6514 3.4468 1.9792 5.3378-0.73938-1.7573-1.9365-3.5076-1.9792-5.3378zm-14.244 1.0796c-0.0447 0.57116-0.13739 1.1398-0.26988 1.7093-0.0445-0.29868-0.0916-0.60299-0.14994-0.89963 0.18498-0.18192 0.32614-0.47717 0.41982-0.80966zm-1.1995 5.7276c0.40675 2.3896-1.5488 4.7846-0.44981 7.167-0.6801 1.5683 0.70659 3.1085-0.89963 4.6181 0.0203 1.2321 0.34567 2.4504 0.53978 3.6885-0.47789-0.43386-1.0185-0.84837-1.5294-1.2595 0.29093-2.0028 0.49916-3.9911-0.50979-5.9675 0.26002-2.72 2.8789-5.1914 2.6389-8.0067 0.0774-0.08 0.14112-0.15916 0.20991-0.2399zm63.574 12.955c0.67794 0.44754 1.2753 0.93206 1.8292 1.4394-0.61477-0.47877-1.2125-0.96122-1.8292-1.4394zm-30.317 11.515c1.2354 1.9393 2.4944 3.8757 2.9388 5.9675 1.0444 1.7244 1.7811 3.5498 0.83965 5.3678-0.82825 1.9937 1.0136 3.9664 0.80967 5.9375 0.33725 1.1421 1.3064 2.1955 2.0092 3.2686 2.0659 1.802 2.1741 4.0835 3.6885 6.0875 0.60595 0.74394 1.1824 1.4945 1.6793 2.2491-1.6126-1.7356-2.6649-3.6925-4.858-5.2478 0.54333-1.1162 0.12887-2.1133-0.50979-3.0887-0.0652-0.0569-0.11067-0.12405-0.17993-0.17993-2.6041-2.7439-4.2293-6.2168-2.8488-9.2961 0.49131-1.3734-0.20268-2.9972-0.50979-4.4382-0.0273-0.22525-0.0729-0.4384-0.11995-0.65973-0.13199-0.21792-0.25025-0.44544-0.38984-0.65972-1.3285-1.6949-1.8494-3.5144-2.5489-5.3078zm-29.628 12.325c-0.25787 0.73162-0.70641 1.4537-1.4694 2.1291-1.8382 2.6153-0.47278 5.4333-1.6493 8.1266 0.53018 1.9819-0.55326 4.1471 2.1291 5.7576 0.50546 2.0316 4.212 3.3793 2.9988 5.5177 2.2994 3.1008 1.1242 6.4838 2.7289 9.716 0.12589 1.619 1.5726 3.2036-0.20991 4.6481-1.1906 2.8151-1.1253 5.6827-1.4994 8.5165-0.29951 2.2884 0.85062 4.4493 1.2595 6.6872 1.192 2.5813-2.5639 5.074-0.86964 7.6468 0.61179 1.3758-1.1792 2.661-0.44981 4.1383 0.7051 2.2734 1.5632 4.5884 2.279 6.9271-0.83753 0.64807 1.7782 0.33502 0.09-0.17992-1.6266-2.8962 2.4504-5.5208 1.0496-8.3665 0.93712-1.6662 1.3919-3.4522 0.74969-5.1878-0.24773-2.1139-1.7074-4.2882 0.03-6.4173 0.45819-2.2836-3.0541-3.8571-3.0587-6.0875-0.0417-2.2732 1.9828-4.3171 1.8592-6.6272-0.69184-1.824 0.81211-3.7186-0.62974-5.5177-0.41244-1.351 1.5136-2.7861 1.3794-3.8384-2.9315-1.7561-1.6654-4.2571-2.8188-6.3574-2.7955-2.599-1.457-5.7435-2.1591-8.5764-0.30276-1.5407-0.59774-3.0858-0.56976-4.5881-0.66688-2.1606 1.1106-4.4483-0.89963-6.4473 0.0365-0.55728-0.0841-1.075-0.26989-1.6193zm41.653 16.643c0.35216 0.37341 0.71326 0.73505 1.1395 1.0796 0.69419 1.3801 1.9467 2.5864 3.1187 3.8084-1.0697-0.87768-2.1508-1.7604-3.1487-2.6389-0.24856-0.78147-0.63962-1.5237-1.1095-2.2491zm-119.29 41.113c-0.27195 0.14068-0.57052 0.28983-0.86964 0.41982-1.3845 0.60593-3.5499 1.9525-3.4786 2.8788 0.88481 0.0202 1.833 0.66935 2.1591-0.38983 0.86366-0.93183 1.5493-1.9136 2.1891-2.9088z" fill="#d2c1ad"/><path d="m453.69 269.16c-39.723 0.6969-93.049 25.151-134.06 60.844-7.8564 14.543-13.141 29.916-16.625 45.75 40.338 27.995 89.316 52.744 144.28 51.094 54.562-2.2085 104.15-24.162 148.97-47.688 2.4476-1.8902 4.7565-3.8796 6.9688-5.9062-5.7581-22.603-12.667-47.857-32.75-61.781-31.864-13.804-62.603-31.06-96.281-40.188-6.2578-1.5802-13.144-2.2541-20.5-2.125z" fill="#f1e5d6"/><path d="m448.65 271.03c-0.67143 0.0367-1.3506-0.19795-2.017 0.0342-1.6399 0.33474-3.2855 0.94573-4.9433 1.1357-1.4413 0.25393-2.7526 1.2761-4.3035 0.85117-1.6773-0.2279-3.3338-0.9684-5.0721-0.46197-1.704 0.2134-4.0172-0.29685-5.1855 1.0119 0.93528 0.24812 1.6944-0.18452 2.552-0.45309 0.75296-0.20079 1.5209 0.0114 2.225 0.11696 0.30737 0.0502 1.2498-0.27648 1.0626-0.12395-1.1699 0.3084-2.1986 0.98898-3.4041 1.1663-1.1947 0.22279-2.2092 1.0724-3.4688 0.84468-1.3476 0.30623-2.7833 0.97649-4.1337 0.19684-1.1369-0.0962-2.3165-0.2231-3.3632 0.33264-1.1219 0.34272-2.1154 1.3287-3.3816 0.91585-1.0462-0.10769-2.0567 0.2311-3.0878 0.26923-0.85259 0.72605-2.0282 0.81862-2.9855 1.101-1.5415 0.49271-2.9114 1.2682-4.0685 2.3431-0.24312 0.29841 1.4525-5e-3 1.8994 0.41112 1.6099 0.24644 3.4055-0.50333 4.8176 0.62543 1.1256 0.56923 2.156-0.19926 3.3307-0.11032 1.5589-0.68075 3.2646-0.75626 4.9392-0.4859 1.7572-0.0242 3.1484-1.4248 4.8638-1.4418 1.4368-1.601 3.4465-2.4999 5.6021-2.6154 1.3056-0.78433 2.6452-1.2688 4.1762-1.1843 0.71603-0.17301 2.094 0.38378 0.5766 0.37985-2.2444-0.48817-4.4604 0.0249-6.6775 0.34214-2.1773 0.70976-4.5338 1.6249-6.3651 3.0755-1.3921 1.5233-3.8068 0.94818-5.0315 2.6795-0.8091 1.1103-1.8794 1.8705-3.2736 2.0704-1.0303-0.0969-2.1165 0.19107-3.2141 0.34837-1.5235-0.43101-2.8312 0.87804-4.2904 0.0599-1.7009 0.33548-3.4092 0.0451-5.0918 0.52168-1.6885-0.20191-3.2165 0.48877-4.71 1.0468-1.6159 0.0667-2.9882 1.2561-4.695 0.77921-0.81806 0.29929-1.9135-0.24347-2.549 0.46675-0.2746 0.28476-1.0608 0.36188-0.1406-0.17807 1.3974-0.89219 2.1117-2.6364 3.9227-2.8896 1.1749-0.95156 2.8082-0.90441 4.1447-1.5152 1.3761-0.42861 2.5492-1.3512 4.1126-1.113 1.4552-0.48746 2.847-1.0951 4.2628-1.6516 2.5106 0.89226 4.9986-1.1382 7.5509-0.33072 2.4577-0.40537 4.9359 0.0334 7.3779-0.35199 2.5034-0.91703 5.1386-1.4875 7.8391-1.1305 1.659-0.0744 3.3457-0.68217 4.8006-1.21 0.74121 0.22364 2.3519-0.71297 2.2918-0.56668-1.1347 0.84568-2.6615 0.74206-3.6003 1.9253-1.6721 0.81703-3.5277 1.885-5.4161 1.8514-2.2453-0.2804-4.522-0.36495-6.5793 0.65445-2.4762 0.0985-4.9374 0.38014-7.403 0.51018-2.8485-0.10914-6.0764-1.249-8.7023 0.55521-1.6583 1.5273-3.974 0.7359-5.9888 1.1609-2.2464-0.0712-3.4508 2.4152-5.2782 3.3606-2.2846 1.0209-4.823 1.8131-6.6877 3.4779-1.6252 0.79707-2.0206 2.9627-3.7732 3.7346-1.8692 2.6177-5.2744 3.1399-8.0564 4.3316-2.4448 1.242-5.2563 1.6958-7.8343 2.655-1.093 0.63286-2.8561-0.11159-3.3013 1.2848-0.59674 0.5319-1.2498 0.9872-1.866 1.5054-1.4876 0.68031-2.8442 1.7251-4.49 1.9304-0.45892 0.13656-2.0297 0.54802-0.6235 0.14001 1.2185-0.68355 2.43-0.86201 3.8309-0.73977 4.0636-0.989 8.5894-0.89309 12.188-3.3541 2.6069-0.7724 5.2867-1.1216 7.8586-1.9359 3.2778-0.0117 6.5954 0.11865 9.8889-0.28068 1.8395-0.93665 4.1092-0.50256 5.9315-1.6296 1.1952-0.53238 2.4005-1.2981 3.4686-1.8451 1.9884-1.8205 4.3751-3.0847 6.9015-3.8775 1.6278-0.71223 3.3-0.8765 4.3843-2.4453 1.8371-1.8308 4.5414-2.4866 6.3923-4.2881 2.088-1.284 4.3051-2.4494 6.7889-2.3597 1.7131-0.90866 3.7787-0.40098 5.2324-1.8518 2.7903-0.22407 5.6036-0.64993 8.1376-2.0009 0.63022-0.48052 2.7046-0.28842 2.5912-0.55206-2.2433 0.83539-4.3005 1.7227-6.5512 2.5648-3.5192 0.30403-7.2851-0.0203-10.194 2.3206-2.9791 0.67693-5.707 3.0157-8.905 2.1362-3.1222 1.4021-6.7058 0.82317-9.9295 1.7779-1.8305 1.0373-4.016 1.2482-5.7099 2.679-2.088 0.49905-3.5897 2.0376-5.4618 3.0724-1.3308 1.5978-3.6727 1.8458-4.7959 3.7995-1.5865 0.77196-1.7544 2.8972-3.8277 2.9056-1.6167 1.4847-3.5146 2.351-5.0723 3.8566-3.3212 2.0213-7.0274 3.2293-10.842 3.807-1.624 0.79946-3.0903 1.7261-5.0209 1.7901-1.3462 0.25638-2.1787 0.49007-2.7539 1.8127-2.6384 2.5124-6.0349 4.2502-9.5982 4.7615-3.5045-0.61758-5.8664 2.3794-8.8791 3.541-1.6274 0.87853-3.3164 1.5883-5.0084 2.1595-1.3534 1.755-3.6526 2.433-5.4241 3.6041-1.0421 1.346-3.7198 1.0232-4.467 2.6603-0.26551 0.33872 1.2682-1.0489 1.4977-0.70702 2.6923-1.8436 5.8978-2.6988 8.2634-5.0157 2.2385-1.2252 3.9103-3.8539 6.7874-3.6608 2.0694-1.1405 4.6927-0.27653 6.5474-1.9411 2.4704-0.59621 5.6479 0.4833 7.5323-1.8602 2.0804-1.4062 4.5527-2.3979 7.0544-2.6342 1.7765-1.3826 4.1696-1.2822 5.9454-2.4287 2.2924-0.44809 4.904 0.0307 7.0081-1.2888 2.2315-0.51188 4.1894-1.8965 6.5336-1.245 2.1125 0.11846 3.785-1.5576 5.8901-2.1028 3.5577-1.3776 7.0758-3.5603 8.7702-7.0036 2.8732-0.3374 5.3174-1.9438 8.0786-2.7257 2.1643-0.74089 4.4339-0.82668 6.4706-2.0054 2.359-0.48537 4.362-2.1927 6.796-2.3109 2.1868-0.64262 4.5124-0.4805 6.596-1.6783 2.3521-1.1072 5.1917-0.90182 7.145-2.863 2.3274-1.7284 4.8427-3.7088 6.7333-5.881 0.28611-1.0725 1.5483-1.8968-0.0443-0.91677-2.6001 0.96715-3.9832 3.5135-6.3397 4.8218-1.1736 1.3279-2.0428 2.9476-3.0705 4.2636-1.6478 1.0767-2.0634 3.3756-4.3458 3.4281-3.189 1.0961-6.5446 2.0263-9.1201 4.4372-2.3532 0.67239-3.8059 3.2836-6.4544 3.0611-2.3834 0.54371-4.7064 1.3555-7.0878 1.337-1.3747 0.66433-2.6185 1.6762-4.173 2.1601-1.5873 0.94805-3.5382 0.94611-5.288 1.6517-2.7011 0.38186-4.5988 2.5433-7.0016 3.4545-2.672 0.90583-4.3334 3.6242-6.4738 5.2087-2.2113 1.8475-5.2973-0.49062-7.7086 1.2917-1.8215-0.11565-3.1664 0.92677-4.512 1.9714-2.5997 0.98264-5.2966 1.3376-7.8081 2.5046-1.9444 0.34821-3.149 2.0866-5.239 2.0704-2.2836 1.1345-4.3621 2.5394-6.2032 4.2633-2.9187 0.82367-4.1804 3.8123-6.625 5.4208-2.0669 3.5378-6.0909 4.6768-9.0778 7.1418-3.903 0.6239-5.8228 4.4557-9.0241 6.1006-2.328 0.29654-3.7009 2.4685-5.9866 2.8237-0.26436 0.83401-1.5868 0.63972-1.7263 1.4597 1.7254-1.7352 3.7323-3.2006 6.1499-3.6166 2.15-2.057 5.417-2.3855 7.6729-4.1845 2.6929-2.2879 5.3573-4.8634 8.5973-6.3546 2.3438-2.4148 4.2109-5.2374 5.832-8.0656 1.7833-1.8685 4.1533-2.9776 6.434-4.0692 3.1852-0.82554 6.6664-1.2912 9.2927-3.3295 1.951-0.5973 3.7662-1.2433 5.3928-2.6034 2.6891-0.6619 5.449-0.38282 8.0614-1.0127 1.5402-0.38505 2.9664-0.22043 4.4948-0.26278 1.5074-0.36035 2.9214-1.0479 4.2128-1.7534 2.2799-0.25812 4.0186-2.0382 6.3662-1.9762 2.367-1.3129 4.9488-1.0744 7.3285-2.3432 2.0039 0.20384 3.2705-1.7818 5.3385-1.5404 3.4107-0.0131 5.4023-3.5026 8.6426-4.1014 1.5464-1.2629 3.3402-1.6959 5.0224-2.6629 2.4406-1.6221 4.1908-4.2632 7.2199-4.9294 2.3494-0.79104 5.4275-0.87804 6.9095-3.3302 2.3659-0.4245 3.2928-2.7856 5.2827-3.972 1.5658-1.8736 3.0885-3.7258 4.4232-5.7176 0.75006-1.5076 0.71096-1.4409-0.68234-0.54276-1.2519 0.93654-3.0668 0.90343-4.0664 2.3688-2.7652 1.4557-5.5334 3.2171-8.5914 4.4322-1.1967 1.1574-2.2422 2.4723-4.0746 1.9576-2.9048 0.98105-6.2422 1.941-8.057 4.589-1.8333 1.5987-3.9086 2.857-5.809 4.3428-3.7575 1.2751-7.7271 1.7026-11.423 3.1127-4.4315 1.3235-7.6971 4.937-12.194 6.1513-3.7428 1.7449-7.8374 3.8432-10.365 7.2929-1.1833 1.2915-1.7116 3.1638-3.4221 3.9826-2.5079 2.5905-4.2715 5.7776-5.4749 9.1436-1.5983 2.6946-3.6022 5.2217-6.3751 6.7635-1.6841 1.6903-2.152 4.7157-5.1342 4.4122-2.7863 1.4442-5.335 3.6629-6.8039 6.4657-2.5586 2.8042-5.6875 4.9725-8.8803 6.9875-3.8791 0.63508-5.9506 4.2865-8.7131 6.5878-1.1875 2.3743-3.174 3.9179-5.0424 5.6463-0.94056 1.8556-3.4469 3.0959-4.0621 4.5576 3.0168-0.77472 5.2342-3.2992 6.7766-5.8214 0.85608-1.8299 3.0258-2.5208 4.1733-3.9179 0.83723-3.1377 3.7188-5.187 6.2764-6.8939 1.8287-1.6508 3.4043-3.8267 6.2024-3.8279 2.7851-1.858 5.689-3.7636 8.7909-5.0168 2.0742-0.30229 4.0249-0.31293 5.9066-1.2325 1.6441-1.0532 3.4368-1.8057 5.2667-2.2444 1.525-1.3684 3.9785-0.56537 5.254-2.4684 2.439-1.2632 4.3269-3.0646 5.5018-5.5441 2.5682-2.0677 5.4898-3.7462 8.1463-5.6773 1.9806-2.6039 2.7325-5.916 5.2259-8.0628 2.4476-1.4013 3.5038-4.3939 6.1792-5.4978 1.637-2.4138 4.6405-2.5751 6.4204-4.8581 1.6305-1.3066 3.7036-2.0208 5.4544-3.197 2.8035-0.5629 4.6544-2.822 6.8532-4.4087 1.1288-2.3076 3.8431-2.968 5.2795-4.9596 2.0398-0.98662 4.3952-1.3005 5.6358-3.4916 3.3675-2.2679 5.8894-5.3185 9.2528-7.5179 2.2349-2.0283 5.4522-1.8673 7.7013-3.8801 2.4211-0.8904-0.97137 0.8985-1.6431 1.5725-1.4878 1.1153-2.6087 2.8594-4.3876 3.7985-1.2442 1.8217-3.1233 2.7919-4.2616 4.6815-2.0313 1.2985-2.804 3.889-5.1307 4.8754-2.398 2.2213-2.9192 5.4611-4.4663 8.2355-0.80482 2.7701-3.2424 4.6703-4.698 6.9912-2.283 3.0167-3.9268 6.8611-7.4376 8.6273-2.5289 2.8179-5.2414 5.5807-6.6853 9.1064-1.8097 1.7924-1.1764 4.9284-3.4112 6.4912-1.9018 2.5755-4.3876 4.9287-6.3782 7.2776-2.5114 1.2515-2.8609 4.7217-5.7366 5.3295-1.7806 0.61108-3.7711 1.2409-5.0862 2.7871-2.1196 0.8429-2.6919 3.6252-4.9228 4.3735-2.3497 1.4444-3.3063 4.4044-5.7918 5.6934-2.9622 2.679-6.6175 4.4698-9.3011 7.4412-2.0948 2.0128-5.5058 2.732-6.6191 5.74-2.3789 1.603-5.0777 2.6535-7.7022 3.8847 3.3229-1.6142 4.6892-5.953 8.3967-7.1862 1.0525-2.2421 4.303-2.5184 5.3781-4.3429 0.11143-3.0652 2.7914-4.8609 4.0164-7.3085 2.0724-1.764 2.9409-4.3548 4.3087-6.6351 2.3704-2.0793 5.9194-2.5376 7.6257-5.3947 1.994-1.6553 4.7086-1.9718 6.7152-3.7085 2.5905-0.7306 4.8933-2.2882 6.9938-3.9868 1.8572-1.1784 3.2674-2.9509 5.0922-4.1497 1.75-1.6521 3.3222-3.4567 5.1725-4.9494 1.3586-2.0488 3.9144-2.6146 5.8691-3.5048 2.0165-1.9475 4.2853-3.7235 7.0306-4.5267 2.484-1.3232 3.6814-4.1935 6.2832-5.2075 1.3544-1.544 2.4149-3.1736 3.2153-5.0363 1.2707-1.8651 2.68-3.6433 4.6632-4.8637 2.2635-3.0502 4.8637-5.5871 7.7073-8.0433 2.0014-1.6874 3.7154-3.4444 4.5338-5.9571 2.1558-1.5577 2.899-4.1783 3.7429-6.5517 0.10285-1.9259 1.732-3.1071 2.2481-4.8701-0.43462 0.81807-1.7931 2.984-3.0828 3.4569-2.8385 1.2108-3.6402 4.3873-5.9485 6.1214-1.867 1.8054-3.704 3.619-6.3623 4.0033-2.4073 1.0893-4.9 2.3904-6.6976 4.289-3.8486 1.6134-5.6988 5.4589-7.3951 9.0362-1.3396 1.4646-2.3787 3.2223-3.5609 4.8522-1.3907 1.1178-1.3052 3.0561-2.9738 3.8299-1.7503 1.8713-5.0512 2.1368-5.8194 4.9783-1.4722 2.0674-2.615 4.3502-4.8451 5.752 0.32064 2.9482-1.5107 5.6917-0.87793 8.5696-1.3396 2.9001-2.2055 6.0223-4.2396 8.5552-3.794 2.0608-5.6303 6.1385-7.5191 9.8805-1.2451 2.865-2.4601 5.826-3.7774 8.65-1.6248 1.5709-2.9822 3.6147-3.5634 5.7127-1.2203 1.4972-3.1922 2.6107-3.1427 4.7608-1.3425 3.3411-4.5666 5.6135-5.4417 9.2579-0.39088 0.77744-2.1247 2.9638-1.8529 2.6431 1.5486-1.2148 2.0033-3.2845 3.9317-4.089 2.382-1.7338 3.6642-4.5886 5.6877-6.6787 1.8503-1.0749 2.7077-3.3105 4.7872-3.9818 1.9514-2.4991 3.5824-5.0122 4.761-7.9793 0.61401-1.6356 0.0876-3.5758 2.2757-3.9078 1.5836-0.46942 3.3015-0.68948 4.3894-2.1985 2.1767-2.3133 4.963-3.9661 7.1692-6.2838 2.0127-1.8928 3.1992-4.4416 5.0434-6.4304 2.4078-2.2125 5.9748-3.5796 6.6608-7.1199 0.43489-2.2662 2.1045-3.7707 2.9094-5.8683 0.83708-3.02 3.2888-5.3264 5.9616-6.8613 1.662-2.2335 2.1163-5.1 3.1147-7.6452 0.4431-3.1692 2.5114-5.7971 3.7169-8.7013 1.4317-1.5395 1.8681-4.2931 4.2691-4.9229 1.1298-1.3372 2.1684-2.7845 3.6104-3.903 1.4629-1.3168 3.7289-1.2169 4.5851-3.2657 1.1328-1.9762 1.9153-4.3837 2.3793-6.6466 1.9803-1.6591 1.9155-5.3937 3.709-6.7432-0.94933 2.1516-0.23064 4.8188-2.1209 6.5977-1.0153 2.9228-2.2766 5.7431-3.6407 8.4738-0.79891 2.7366-0.44468 5.611-0.11052 8.3691-0.17344 2.1197-0.66538 4.2252-0.76201 6.2843-1.1758 2.9366-2.9556 5.6345-4.7537 8.2291-0.72698 1.8194-1.4779 3.7508-1.625 5.6465-1.656 2.0589-2.9426 4.6798-3.2218 7.434-0.37265 2.5731-1.1877 5.1487-1.1292 7.7333-0.49755 2.5806-2.6796 4.2165-3.9977 6.3101-1.3467 1.9767-2.1524 4.5357-4.5549 5.6831-1.665 1.8965-4.9093 1.0832-5.9704 3.6889-2.4295 2.0062-5.0734 3.6842-6.9978 6.2092-2.0648 1.764-1.9839 4.5726-3.7226 6.5606-0.90273 1.9455-2.827 3.2957-2.9478 5.5911-0.30844 2.2094-0.4406 4.6336-1.8329 6.5839-0.11348 3.0845-2.8644 5.6157-3.9026 7.8576 1.7909-2.6527 1.8039-6.5988 4.9879-8.1484 1.8056-2.0837 3.1225-4.5688 3.3824-7.3914-0.11246-2.2219 1.6679-3.7118 2.275-5.6113 0.61525-2.4719 0.27585-4.9635 0.86192-7.46 0.31622-3.8572 2.7669-7.2914 2.7678-11.228 0.82373-2.4909 2.2912-4.5478 3.0157-7.0745 1.0872-2.7868 0.28887-6.3236 2.7194-8.5724 0.32641-1.6096 1.4491-2.3693 2.8613-3.1756 1.8436-2.7256 4.9312-4.2952 6.1541-7.4342 1.4103-3.4676 4.5075-6.0946 5.2253-9.8658 1.8019-2.289 2.7937-5.125 4.6915-7.4038 0.32421-3.3505 3.5526-5.0505 4.7999-7.8852 1.8449-1.325 3.5081-2.9168 5.0902-4.6683 1.2595-2.2376 2.8086-4.3621 3.296-6.9722 1.3611-1.1815 1.2542-4.1288 2.423-4.7446 1.0445 2.3036-0.41939 4.8047 0.95227 7.0317-0.55275 2.7087-0.52494 5.6774-1.8946 8.1055-1.7891 1.9128-2.0909 4.8504-2.6452 7.3139-0.0276 2.9167-2.099 5.2092-2.4437 8.1009-2.0301 2.2197-1.2728 5.4256-2.6888 7.9091-0.83388 2.122-1.3503 4.216-1.0613 6.4512-0.0363 3.4216-2.777 5.9848-3.4273 9.3074-0.33567 2.8302-0.11465 5.8725-1.7877 8.3999-0.68531 2.5718-1.7867 4.9194-3.038 7.3086-0.61396 2.6024-1.833 5.2898-0.54985 7.9464 0.0243 2.7044 0.37296 5.2982 0.0364 7.9912-0.8176 2.8422-1.9309 5.5566-3.9704 7.7822-2.3557 2.401-2.0903 5.8577-2.279 8.9174-0.45824 2.5013-0.81012 5.0431-1.2958 7.5557-0.71766 1.3149 0.65979-1.2297 0.7118-1.854 1.2321-2.725 4.2942-4.4091 4.0924-7.7166-0.3872-2.9497 2.2563-4.8874 3.6553-7.1887 2.1728-1.6136 2.7124-4.3622 4.0148-6.5773 0.27507-2.6689 2.27-4.7181 2.4656-7.4548 1.1754-1.7809-0.54575-4.1408 0.883-6.0517 0.0734-2.3247 1.074-4.4418 1.6569-6.6395 1.4856-1.7408 2.9026-3.636 4.1348-5.5389 0.79721-1.8667 2.7514-3.5997 1.5514-5.7998-0.40397-2.1182-0.2863-4.1541-0.67112-6.2788-0.43924-3.0519 2e-3 -6.3712-0.79433-9.3278 1.6484-3.0006-0.0729-6.58 1.2328-9.6802 0.54497-1.6758 0.0545-3.4477 0.5784-5.1172 0.47188-3.1965 0.68565-6.343 1.0732-9.5184-0.43892-1.5364 0.82229-2.8856 1.1765-4.3978 0.97068-1.6173-0.0851-3.9584 1.8256-5.0442 0.59002-1.7644 2.2345-3.7024 2.308-5.2544-0.15128 1.8692 0.7158 3.5449 0.52354 5.4542 0.4822 2.6071 0.99822 5.3626 0.2516 7.9656 0.0591 1.6749-1.0337 3.4008-0.1824 5.0976-0.18272 2.9672-0.0806 5.8769 0.0599 8.7702-0.93543 3.0524 0.89622 6.2486-0.0554 9.2745-0.48482 2.7473-2.1739 5.5707-0.75281 8.4212 0.70916 1.8599 1.4053 3.8549 0.3054 5.6592-0.47537 3.7977-0.31369 7.5812 0.73358 11.194 0.5763 2.443-1.4046 4.4877-1.1438 6.9935 0.0459 2.8358-0.34253 5.6052-1.237 8.3686-0.47987 2.84 0.47861 5.6441 0.30629 8.5097-0.20568 2.6472-2.0219 5.4956-0.16118 8.0719 0.97922 2.5304 0.40675 5.3941 1.7407 7.8715 0.24161 2.0385 0.75944 3.9722 0.26951 5.9976 0.27841 1.0356 0.76545 3.7488 0.6897 3.7224 0.3553-2.3339 0.45728-4.814 0.59795-7.0781-1.3629-1.8247-1.08-3.9756-1.1046-6.0559-0.86725-2.6618-1.3542-5.3794-0.49351-8.1149 1.1623-2.0227 1.4225-4.2694 1.7592-6.5956 0.84928-2.0663 0.82272-4.4398 1.8424-6.4147-0.57519-2.836-0.1736-5.5837 0.87943-8.27-0.0231-2.1496-0.37492-4.2826 0.27935-6.4081-0.41025-1.535-1.0613-2.8801-0.74134-4.5331-0.47316-2.4234-1.023-4.8201-1.7224-7.2406-1.7459-2.476 0.5357-5.4385-0.26824-8.2056 1.1596-2.6173 0.70908-5.3742 0.62716-8.1355 0.0846-3.5651 0.0827-7.1842-0.89459-10.637-0.646-2.3754-1.0004-4.8247-1.8017-7.2192-0.33012-1.7982 0.29565-3.3824-0.026-5.1316-0.3282-3.5175 1.0525-6.9392 0.63796-10.466 0.9999 1.5378 0.56671 3.5277 2.1101 4.7963 2.2274 1.8764 0.0946 4.6536 1.1433 6.937 1.0114 4.2655 5.9583 6.3489 6.4766 10.828 1.7299 2.1145 1.7988 5.0229 1.1835 7.4959 0.37988 2.6239 1.1025 5.205 1.1714 7.8318-0.19531 2.119 0.99216 4.155 0.64453 6.3328 1.1874 1.7033 1.4158 3.6601 2.9047 5.1641 0.9612 1.36 0.46304 3.2407 1.519 4.6625 0.17319 2.7754 0.72646 5.5216 0.16217 8.2225-0.0609 2.3307 1.034 4.5308 2.5532 6.2052-0.26578 2.3166 1.5584 4.2068 2.278 6.2628 1.4542 2.0619 2.9348 4.1252 4.5613 6.0705 1.0801 2.2106 0.17175 4.68 1.3842 6.8758 0.30552 2.0278-0.64261 3.8902-0.20671 5.881-0.55145 3.1325-0.49505 6.3565 0.28444 9.4522-0.51611 1.7917 0.75685 3.4561-0.22123 5.1453 0.27849 1.6314-0.33847 2.0979-0.9419 0.41001-1.8164-1.8627-2.0449-4.4183-3.2463-6.6363-0.44854-3.7973 0.0987-7.7932-1.7814-11.27-0.17265-3.1468-3.0222-5.867-2.1711-9.2139-0.41993-3.0614-1.1813-6.0045-1.6988-9.0424-0.53198-1.5097-1.6127-2.9467-1.9921-4.5116-1.1675-1.0576-1.1921-2.9608-2.6304-3.8389-2.0096-1.6953-2.5112-4.3792-4.4143-6.2354-1.1891-2.4452-1.9201-5.0748-1.7974-7.8137-0.45962-1.911-0.32445-4.0195-1.5289-5.7731-0.39575-2.6436-2.2445-4.9276-1.9448-7.6424-0.0883-2.5489-0.58247-4.9334-1.2597-7.3932 0.11057-1.7914-0.56095-3.5121-0.49366-5.3083-0.43571-1.9746-0.49881-4.0344-0.28947-5.9979 0.13007-2.6179 1.3797-5.0543 0.61874-7.7224 0.0832-2.2319-0.98558-4.6643 0.5349-6.6801 0.0294-1.4077 0.37535-3.698 1.1882-4.2956 1.0394 2.317 2.6256 4.2423 4.749 5.6139 0.25276 2.8773 2.9989 4.6099 4.1452 7.0618 1.8149 1.7747 3.4789 3.5712 4.3115 5.9467 1.0264 1.8957 2.9296 3.2704 3.1209 5.5394 1.4035 2.33 2.8957 4.9713 5.5877 5.8514 3.7363 2.759 6.5318 6.5988 7.7073 11.167 1.0775 2.5363 3.0336 4.5009 4.153 6.9861 1.3584 2.1816 0.1756 5.058 2.0883 7.0918 0.96184 2.2376 1.7425 4.5717 3.4288 6.4255 1.623 2.4232 1.4833 5.6272 3.3258 7.9192 0.97811 1.6037 0.39627 3.7816 1.6996 5.401 0.92445 3.5803 1.9302 7.4655 0.67771 11.164 0.4788 3.9976 1.7494 7.8398 3.3906 11.518 1.9091 2.23 1.1729 5.2926 2.2357 7.9009-0.24742 1.0079 0.0532 3.1258-0.44101 1.0595-0.51116-2.8838-2.1242-5.4465-2.0672-8.3716-1.0882-2.2444-0.41044-5.0426-2.4292-6.7899-0.71544-2.125-2.8523-3.3511-4.1384-4.9403-1.0277-1.9752-2.4856-3.9411-2.6165-6.2879-2.9025-2.4731-2.4352-7.4518-6.3747-8.8779-1.3636-1.1952-1.8288-3.308-3.5358-4.2497-2.4161-2.2128-2.5364-6.2787-5.5337-7.9836-1.1551-3.6711-4.0022-6.9092-3.7124-11.002 0.0817-2.2985 1.3985-4.4168 0.75045-6.7716-0.89815-2.8973-3.0125-5.2459-3.1897-8.3588-0.51083-2.3567-1.9383-4.4122-2.4285-6.8678-0.97441-2.0644-2.8192-3.6771-2.688-6.1796-0.89181-1.8734-0.78487-4.0502-2.1629-5.6257-0.63614-1.7465-1.8551-3.4111-2.2219-5.2016-2.2327-1.5624-1.9638-4.4811-2.7046-6.7196-0.0695-1.0595-1.1962-2.8394-1.0661-3.1969 1.8663 1.0681 3.2212 2.7786 5.3094 3.5335 2.2074 1.8736 4.4575 3.6104 5.9908 6.0637 1.7012 1.118 2.7805 2.9155 4.6182 3.8495 1.0757 1.7418 1.6047 3.6982 3.5855 4.6075 1.5295 1.6076 3.7191 2.2564 5.5015 3.3 1.4908 2.1312 3.9062 3.6423 4.3416 6.4341 1.8952 2.1631 2.8354 4.8303 4.1198 7.3162 1.7587 1.728 3.3353 3.6788 5.0076 5.44 0.88066 2.326 2.3131 4.2651 3.7716 6.2383 1.4357 2.4134 4.447 4.0997 5.1145 7.0528 1.9085 3.2676 6.5837 4.7468 6.9134 8.9326 0.35056 3.0854 2.8687 5.3765 5.1249 7.2315 1.2121 0.96234 1.378 2.9879 2.8602 3.908 1.9752 3.4952 3.0476 7.7376 6.376 10.165 0.67898 3.44 4.2237 5.851 4.0165 9.6273 0.9185 3.1033 3.0913 5.6991 3.5589 8.9518-0.59233-1.0781-2.4477-2.523-3.2011-4.0468-1.1985-2.4818-4.1053-3.5305-5.4917-5.8442-1.4425-1.4902-2.2622-3.4054-3.531-5.001-1.3034-2.4925-0.51503-5.5933-2.9674-7.4159-1.1808-2.5857-1.5491-5.3604-3.6508-7.387-1.0933-1.8105-2.2556-3.3882-3.9243-4.7394-0.70531-2.4137-2.7402-4.0714-3.0069-6.5801-1.5821-2.0705-3.5024-3.5032-5.2868-5.3972-0.93093-1.0612-2.0999-2.0627-2.8406-3.2385-2.1081-0.91654-3.6674-2.645-5.6838-3.662-1.5882-0.50833-2.8466-1.9468-4.3407-2.7758-1.0652-1.8949-2.7278-3.2946-4.2464-4.8599-1.4368-2.8633-4.368-4.7896-5.3668-7.941-2.1029-1.3284-3.1972-3.6324-5.0805-5.2316-0.63762-2.6289-2.1117-4.9457-3.6216-7.1697-1.3507-1.7393-1.1221-4.214-2.4611-6.0385-2.2134-2.6336-4.136-5.5807-4.7908-8.9828-1.8857-1.9492-3.5726-3.9946-5.125-6.2265 1.84 2.3872 1.665 5.9171 4.603 7.3902 1.9878 2.8383 5.202 4.7723 6.6215 7.9412 0.31538 2.7214 3.285 4.4291 4.0991 7.0524 2.3456 1.8924 4.0299 4.5044 6.4772 6.2322 1.9092 0.69269 3.7387 1.7426 5.0681 3.3268 2.3404 1.9987 4.4632 4.555 7.4972 5.4812 2.7276 0.40738 3.677 3.4885 6.251 4.3871 2.8384 2.2566 5.2013 4.9433 8.215 6.969 1.5726 0.9142 2.73 2.23 4.0259 3.5304 2.5809 0.73461 3.5874 3.5838 6.0828 4.4217 1.6828 1.9486 5.1915 1.7459 5.5801 4.7684 2.0914 1.8187 3.5096 4.4679 6.4621 4.9781 3.3277 1.4654 6.689 3.3259 8.5177 6.6874 1.9225 2.0228 3.2487 4.6207 6.2579 5.0304 1.8757 2.0608 5.2287 2.6693 5.8277 5.7854 1.4768 1.8142 2.4034 4.1139 4.2187 5.5857 2.6299 1.0826 4.0112 4.5317 5.1581 6.3213-2.3878-1.1846-3.7259-3.7475-5.5447-5.5764-1.1201-1.6273-2.005-3.3548-3.4546-4.6929-0.99127-2.5456-3.734-4.2002-5.0068-6.6357-1.9974-2.6428-3.8789-5.5495-7.2905-6.4538-3.2169-1.4596-3.7799-5.4222-6.4962-7.4409-1.6322-1.752-3.3435-3.5443-4.9814-5.2032-2.5086-0.95848-4.9821-2.7656-4.8843-5.7012-0.50391-2.1609-2.0389-4.0366-2.3566-6.3388-1.34-2.8857-4.6127-4.3135-5.4261-7.4062-2.042-1.9828-3.1434-4.9551-6.2275-5.625-2.8134-1.6876-4.896-4.2345-7.2889-6.4283-2.7344-1.0641-4.6254-3.6327-7.5831-4.2571-2.8587-1.2815-6.4652-1.2172-8.5821-3.9412-4.2907-0.7818-4.9398-6.4195-9.1693-7.3228-1.8599-0.87246-3.5944-1.8578-4.6654-3.6274-1.6195-1.3156-3.0346-2.8668-4.7982-3.9905-2.54-1.4475-1.9657-5.4541-4.405-7.2076-1.999-1.9692 0.68999 1.406 0.99477 2.3877 0.89146 1.4871 2.6386 2.1494 3.5268 3.6771 1.5902 1.3786 3.5678 2.0873 4.9026 3.7863 4.2095 2.0426 7.8275 5.0806 11.863 7.3748 2.582 2.0778 5.115 4.2093 7.7619 6.2657 2.9854 1.1955 5.1036 3.829 7.007 6.1806 2.07 0.76856 3.9638 1.6527 6.0241 2.4853 1.9637 1.1245 4.308 1.4936 5.9716 3.1288 1.7161 1.6747 3.1369 3.7248 4.7987 5.4046 1.1854 1.9482 3.6523 2.8689 4.4792 5.1717 2.7513 1.6428 4.602 5.2552 8.1805 5.196 1.9008 0.46476 3.5123 2.101 5.557 1.9467 2.0836 1.8451 4.7673 3.0194 6.7877 4.9981 2.1457 0.91085 3.2342 3.3301 5.3233 4.3764 1.2996 2.0102 3.3235 3.098 4.5422 5.1754 2.1636 2.2164 3.6101 5.4575 6.8708 6.2939 2.1766 1.9128 3.432 4.7435 6.3577 5.7249 2.1434 1.4183 4.5913 2.4386 6.5611 4.1902 2.7046 2.9115 7.0432 2.741 10.374 4.5273 0.59426 0.8491 3.62 1.9772 1.2675 1.1278-2.1167-0.83326-4.2661-0.82204-5.8677-2.6024-4.283-1.6843-7.3553-5.0385-10.157-8.6202-1.509-1.7517-2.487-3.9982-4.5981-5.242-3.0325-2.6175-5.7392-5.5727-9.2337-7.533-2.6138-1.4594-4.5548-3.7557-7.575-4.568-1.6126-1.6447-4.1261-1.3758-5.8229-3.0866-3.2326-0.51837-5.9776-2.3205-9.0955-3.3086-2.1422-0.92696-4.2037 1.0658-6.3564 0.15605-1.7994-0.0481-3.4532-1.3823-5.3784-1.0345-2.332-2.1801-5.6487-3.6075-6.8292-6.8073-1.1646-1.9777-3.5477-2.6292-4.551-4.7059-1.6801-3.0448-5.2379-3.5785-7.9946-5.1713-2.9002-2.8319-4.9039-6.4243-7.761-9.1646-2.1291-0.77106-3.2984-2.9115-5.0373-4.2863-2.741-2.8505-5.76-5.664-7.1343-9.4952-1.8763-1.6387-3.8446-3.011-5.7787-4.5882-0.96066-2.4692-3.6736-3.3932-4.6245-5.8944-0.86165-0.93922-1.5915-2.706-2.21-3.3152 1.715 0.94993 3.8321 0.83536 5.2518 2.3241 1.7227 1.7127 4.0943 2.2563 6.3212 2.9387 2.2679 2.2122 5.7227 2.995 7.2648 5.955 2.137 1.6986 4.0397 3.8738 6.3638 5.0778 2.9822 0.91312 4.9286 3.6061 7.902 4.5044 2.1159 0.46271 3.4929 2.5088 5.8523 2.263 3.1416 0.0209 6.4181 0.88308 8.9586 2.7448 2.2341 2.3721 5.475 3.7732 8.7486 3.3168 2.7796 0.7028 5.3209 1.7586 8.0357 2.445 1.2171 2.0222 4.2665 2.0868 4.8793 4.5364 1.8067 2.3196 4.3026 3.6242 6.4234 5.5691 1.6682 1.487 4.1192 1.6933 5.7533 3.3656 4.0384 0.46129 6.3395 4.6449 10.445 4.9641 2.1343 1.0787 4.1696 2.7591 6.5343 3.7112 2.248 1.9653 5.7035 1.459 7.885 3.3382 3.2047 0.85865 5.0911 4.1208 7.0195 6.5852 1.0956 1.2074 2.8457 1.7534 3.9717 3.0097 0.49635 0.23399-0.71703-0.92802-0.49048-0.48581-2.3413-1.9827-5.7571-1.8049-8.3393-3.5385-2.7238-0.20705-3.5392-3.1303-5.7068-4.3012-1.3269-0.84427-2.8075-1.9061-4.0528-2.9299-2.5419-0.0665-4.5224-1.6172-6.6105-2.7623-2.6842-0.0418-3.531-2.9495-5.8276-3.7516-2.9597-1.5968-4.9238-4.6479-8.0749-6.0296-2.6068-1.9459-6.1513-2.1245-8.2088-4.9541-2.658-1.6732-5.4853-3.0442-8.3361-4.1565-1.0282-2.0373-3.2218-2.631-5.2746-2.8744-2.7532-1.549-5.8982-2.8588-8.218-5.0562-3.1617-2.9267-6.755-5.3361-10.821-6.736-1.6134-2.55-4.6757-2.7129-6.8329-4.535-1.2604-1.4808-3.0747-2.2344-4.9948-2.2609-2.4693-1.1618-4.3142-4.0231-7.3103-3.2736-2.3642-0.27228-4.8379-0.49991-6.7083-2.03-2.8266-1.4073-4.5774-4.3791-7.8198-4.9823-1.9263-0.67316-3.8595-2.4362-5.0799-3.4667 1.8765 0.95776 3.3093 2.4447 4.6768 3.9058 1.8074 2.0676 3.706 4.2202 5.8637 5.8794 2.388 0.88562 4.9476 2.0499 7.5292 1.9163 2.1448 2.3801 5.557 2.7307 7.7687 4.9858 1.963 0.60729 3.853 0.75155 5.7956 1.0956 2.3604 2.3261 5.731 3.1897 8.5504 4.6971 1.726-6e-3 2.6504 2.3031 4.4716 2.5674 2.0239 1.0944 4.4794 2.16 6.7465 1.9862 2.9312 0.0543 5.8573-0.83929 8.8221-0.0817 2.9155-0.60395 5.436 1.7413 8.4147 1.425 2.3212 1.2394 4.827 2.6206 7.5581 2.2251 2.6865 0.26497 4.7254 2.4187 7.011 3.3763 2.4732 0.40167 4.5756 1.8448 7.0746 2.136 1.8136 0.95215 4.0138 0.98701 5.5962 2.3978 2.1259 0.60038 2.8307 3.2761 5.218 3.4933 1.1594 1.1024 4.0513 1.5055 4.9448 2.0795-0.65154-0.62513-0.95287-1.5844-2.1277-1.6898-1.8903-0.78019-4.0976-1.0616-5.7918-2.0394-3.0131-2.5193-6.8255-3.9733-10.725-4.3852-1.7889-0.47875-3.7243-0.76975-5.5909-0.1507-2.1744-1.044-5.1357-0.98681-6.5102-3.3716-1.6061-1.5-3.6046-2.4276-4.966-4.2673-2.1493-1.3846-2.9592-4.208-5.6329-4.7499-2.1196-1.4372-4.6843-1.8038-6.7263-3.3883-3.2855-0.34116-6.6998-0.15596-9.8135-1.2799-2.1086-0.35371-3.498-2.489-5.8397-2.3198-2.6236-1.0353-5.7126-0.99157-7.8593-3.045-2.4187-0.50458-4.8238-1.226-7.1789-1.8498-2.776-1.3218-5.3539-2.7368-8.4891-2.9295-2.8101-1.2271-5.8184-2.063-7.8173-4.5321-2.4511-2.3415-5.3207-4.2287-8.6282-5.0392-0.28498-0.28837 1.7977 0.51586 2.2404 1.1145 1.5346 1.0817 3.5129 1.171 5.2059 1.3303 2.177 1.3272 4.5099 2.4022 6.9992 3.0166 1.7542 0.14484 2.7347 1.7383 4.3051 2.2422 2.0018 1.0804 4.4143 0.69465 6.3491 1.6673 2.3469 0.77799 4.8444 1.1657 7.0657 2.3611 3.6084 1.4809 7.7332 0.12146 11.257 1.9596 2.4504 0.30139 4.1051 2.3405 6.361 3.1002 1.8559 0.38998 3.5559 1.0928 5.492 0.80126 1.0857 0.15329 3.3601 0.71588 3.6616 1.0404-0.83238-0.59062-1.7541-0.98128-2.7231-1.2781-0.70056-0.6784-1.3254-1.2995-2.2341-1.7143-1.1739-0.94075-2.7963-0.74415-4.0312-1.5313-1.5759-0.17718-2.9433-1.0666-4.2993-1.8322-1.4629-1.4538-3.4934-1.9854-4.776-3.6624-1.974-0.43816-3.1941-2.0249-4.9268-2.9086-1.2528-0.50556-2.0628-1.7488-3.4737-2.0548-1.2881-0.0211-2.8609-0.19497-4.217-0.56726-1.2308-0.86786-2.5588-0.5777-3.9417-0.63967-1.9255-0.36013-3.961 0.23893-5.6345-1.126-1.6236-1.1584-3.7458-0.71416-5.5197-1.5082-1.6441 0.11577-3.0568-0.53418-4.37-1.3893-1.8954 0.70114-3.9104-0.39482-5.8635-0.16861-0.73187 0.22108 0.98079 0.76163 1.4537 0.83226 1.3231 0.30893 2.652-0.29364 3.9173-0.0817 0.86569 0.80585 1.9447 1.2331 3.0721 1.5209 1.8846 0.22037 3.4818 1.1539 5.2354 1.8169 1.7077 0.35659 3.303 0.93882 5.0534 0.5746 0.56086 0.31242 1.9321 0.0705 2.0574 0.0963-0.76949-0.12266-1.3676-0.79687-2.173-0.77562-0.82995-0.41094-1.6891-0.84162-2.5823-1.1036-0.96806-0.97063-2.6501-0.75607-3.6075-1.7389-0.88488-0.44151-1.8984-0.7253-2.8418-0.9575-1.2074 0.16255-2.2598-0.76915-3.465-0.37403-1.385-0.0116-2.8467 0.18326-4.0735-0.63276-0.84129-0.26914-2.7172-0.16233-2.9048-0.0723 1.4582-0.11585 2.9274-0.12583 4.3683 0.0702 1.7119 0.78369 3.5368 1.2925 5.4134 1.1842 0.78827 0.37515-0.50289-0.51901-0.9155-0.38214-1.1081-0.61323-2.3909-0.90312-3.6306-1.002-2.0268 0.0566-4.1863-0.17973-5.7674-1.5227-0.98713-0.74611-2.2563-0.76146-3.2961-1.4231-0.96634-0.3016-1.9342-0.0896-2.8922-0.32504-0.93718 0.0543-1.8332-0.43484-2.6444-0.87271-1.1521-0.49435-2.5087-0.07-3.7373-0.38963-0.8816-0.17838-1.7814 0.0833-2.5921 0.16741-1.3204-0.36482-2.6029 0.50149-3.9279 0.15787-1.448 0.15944-2.8299-0.30486-4.127-0.86764-1.102 0.0247-2.1636-0.30531-3.2868-0.32686" fill="#e4dace"/><path d="m597.85 353.86c-8.72 25.14-26.057 33.125-38.728 40.271-87.607 49.41-122.86 41.224-222.89-2.3036-9.4908-7.6822-22.069-15.66-28.137-34.842-7.9012 24.806-12.285 56.346-10.961 88.361-2.1939 56.314 12.875 113.06 34.724 130.74 80.019 66.633 135.41 66.718 232.51 6.345 24.173-15.03 48.134-71.039 45.387-137 1.3213-33.16-3.3979-66.259-11.908-91.58z" fill="url(#d)" opacity=".61638"/><circle transform="matrix(0 1.4574 -1.3316 0 993.21 -294.65)" cx="521.24" cy="424.05" r="34.345" fill="url(#e)" filter="url(#g)"/><path d="m453.68 274.33c-4.0206 0.0688-8.1863 0.40695-12.474 0.9696l3.009 2.31-3.4764-2.2529c-0.22448 0.0303-0.4468 0.0539-0.67192 0.0855l1.3438 1.2548-1.5776-1.2263c-1.1342 0.16138-2.2976 0.34778-3.4472 0.54184l2.2495 2.5666-2.6-2.5096c-1.4681 0.25167-2.9205 0.52325-4.4113 0.82702l2.6585 1.0552-3.4472-0.88406c-0.13505 0.0282-0.27378 0.0568-0.409 0.0855l9.3484 2.424-8.5889-1.4829 1.373 0.79851-1.9865-0.91258-2.1618-0.37074c-1.3166 0.29747-2.6421 0.60519-3.9731 0.9411l7.3327 1.3404-8.9102-0.94109c-4.219 1.1078-8.5002 2.4055-12.825 3.8784l4.7911 0.39926 21.443-0.28518-13.38 0.9411 15.162 1.2263-33.888 0.0855-0.29215 0.0285 26.526 4.0781 1.7236-0.28518-1.4607 0.34221 1.3146 0.19962 1.6068-0.51332-1.3731 0.54185 2.4832 0.39925 1.1101-0.25666-0.90564 0.28518 2.6 0.39925-2.863-0.3137-4.0023 1.2548 0.93485-0.0285-1.7528 0.85554 0.46742-0.057 1.3438-0.79851 4.4405-0.11407-5.7843 0.91258-44.259 25.866 31.522-10.267 17.879-12.405-14.899 11.436 10.722-3.5077 6.5731-4.8196 0.0292-0.0285 2.454-1.7966-3.1843 2.6522-2.5124 2.9088 4.3236-1.3974 0.90563-1.483-0.67192 1.3974 2.0158-0.6559-2.1326 0.88405-1.5191 3.1655 3.009-1.4829 2.6585-1.3118-3.6225 2.2814-3.418 3.3366-47.034 97.56c1.4165 0.51685 2.8185 0.99168 4.2068 1.483l22.67-40.952 25.065-60.715-13.964 40.667 22.115-39.897 0.55507-3.3366-0.32136 2.8803 0.35057-0.62739-0.37978 0.7985-0.90563 8.2703-1.1686 2.8803-0.29215 1.7681 1.4607-4.5914-1.5776 13.917 0.4382-1.3118 2.6-22.872-0.87642 17.767 2.2787-6.8729 0.75956-2.2814-0.70114 3.5933 5.6675 104.21c1.2908 4e-3 2.5671-0.0213 3.8562-0.057l-0.35057-64.85-5.2585-44.46 5.1709 27.491-0.11686-21.873-2.8045-11.55 2.7753 8.3843v-2.0248l0.26293 2.7378 0.93484 2.8233-1.0517-6.4166-1.1393-2.5666 1.0517 1.9392-0.8472-5.2473 1.4899 6.4166 1.1686 2.1674-0.46743-1.4544 1.4023 3.1655 50.657 93.226c1.3837-0.55968 2.7683-1.168 4.1776-1.7681l-18.843-39.754-27.403-45.258-9.7282-12.919 6.1933 7.0725-1.5776-2.5952-1.7236-1.9963 1.2854 1.2548-3.827-6.331 6.836 9.2684 10.225 9.9528-6.0765-12.862-3.4472-3.5362 3.0382 2.6807-2.5416-5.3614 3.418 6.1314 84.194 74.147c0.6446-0.35593 1.3022-0.7105 1.9573-1.0837l-83.668-77.911-7.0405-5.504-1.9573-1.2263 1.4315 0.82702-0.32135-0.25667 1.1978 0.76999 2.2787 1.2833-4.7911-4.4488 7.8877 6.2455 106.66 61.257c0.272-0.40121 0.55228-0.81046 0.81798-1.2263l-100.17-60.43-10.809-3.4792 9.6114 2.7662-2.4832-1.5115 4.2652 2.0248 20.537 5.8747-19.807-9.8673-4.0023-1.2263 2.4832 0.48481-2.5124-1.2548 4.9079 1.7111 80.922 15.771c-0.83066-0.64323-1.6865-1.2552-2.5708-1.8537-3.4878-1.475-6.9642-2.99-10.429-4.5344l-54.601-12.519-15.191-2.5096 5.5506 0.3137-13.438-3.08 19.836 3.4507 30.003 1.6826c-4.5785-2.0656-9.1683-4.0868-13.789-6.0458l-23.78-2.1103-6.4855 1.0552 5.4338-1.1407-1.373-0.1426-14.344 0.19963 9.2024-0.65591-5.6091-0.48481 14.227-0.11408 5.2293-0.37074 5.4338-1.1407c-4.7527-1.8315-9.5518-3.5629-14.402-5.1333l-5.1708 1.9392-2.2202 1.2263 1.5483-0.96961-7.7709 2.9374 11.13-5.5896-8.9102 2.2529 5.2293-1.9107-7.4495 1.1978 6.8068-1.6826-7.0698 0.19963 9.3484-0.99812c-2.3058-0.69489-4.6185-1.3786-6.9529-1.9963-0.66316-0.16346-1.3377-0.31393-2.0158-0.45629l-3.5641 3.1085 3.1259-3.2226c-0.37468-0.0758-0.76028-0.13012-1.1393-0.19962l-0.23371 0.28519 0.17528-0.28519c-4.8456-0.88381-10.034-1.263-15.513-1.1692zm23.839 4.734 2.1326-0.057-1.4899 0.54183 3.7978-0.59886h0.0584c-0.59268-0.18524-1.1876-0.36138-1.782-0.54186l-2.7169 0.65592zm4.3237 0.14259 0.55506-0.14259c-0.0586-0.0183-0.11664-0.0387-0.17529-0.057l-0.37977 0.19962zm-3.3596 2.6522 0.67192-0.25666 4.1192-2.2529c-0.1668-0.0532-0.32969-0.11831-0.49663-0.1711l-4.2944 2.6807zm14.811 4.0781-1.6068 0.34222-3.6225 0.0285-8.6181 0.59889 5.1416 0.45628 2.0742-0.0285-0.70113 0.17111 1.0517 0.0855 1.6068-0.25666 15.98-0.19963c-0.76107-0.30883-1.5157-0.63728-2.2787-0.9411l-7.1866 0.057 4.7034-0.76998-6.5439 0.45628zm6.5439-0.45628 0.55506-0.0285c-0.0319-0.0125-0.0557-0.0445-0.0876-0.057l-0.46741 0.0855zm-5.2585 8.584-6.3978-0.37075 9.6406 2.1959 42.565 7.0725c-1.1108-0.50892-2.2196-1.0303-3.3304-1.54l-42.477-7.3577zm-10.079 4.9622-2.3955-0.45629 1.5191 0.74146 14.315 4.4488-13.438-4.734zm13.438 4.734 60.473 21.189 20.946 5.9888c-0.50447-0.84846-1.0387-1.6853-1.5776-2.5096l-79.841-24.668zm60.473 21.189-54.98-15.771 6.3102 3.137 72.1 23.185c-0.48674-0.95899-0.96702-1.9163-1.4899-2.8518l-21.94-7.6999zm-48.67-12.634-24.218-7.7854 102.45 48.338c0.14929-0.39538 0.29386-0.79271 0.43821-1.1978-0.0281-0.0857-0.0594-0.17097-0.0876-0.25666l-78.585-39.098zm-24.218-7.7854-2.6292-1.2263-1.782-0.51332 1.1978 0.71294 3.2135 1.0266zm-10.517-0.6274-3.0967-1.7966 0.409 0.39925-2.6877-1.6826-0.87641-0.51332 0.52585 0.39925 3.4472 2.1959 3.5933 3.3081 92.403 72.293c0.106-0.0785 0.21549-0.14872 0.32135-0.22815l-91.439-72.322 100.85 63.453c9e-3 -0.0104 0.0206-0.0182 0.0292-0.0285l-101.64-64.023-1.8405-1.4544zm-1.1686 7.158-0.87642-0.76998 0.40899 0.85555 1.227 1.2833-0.75956-1.3689zm0.75956 1.3689 8.3844 15.001 65.001 63.253c0.60491-0.32611 1.201-0.66607 1.8113-0.99813l-75.196-77.256zm8.3844 15.001-3.5349-3.4222 2.6585 5.561 5.8136 6.6732-4.9371-8.8121zm4.9371 8.8121 1.0225 1.8537 50.16 57.264c0.0762-0.039 0.15748-0.075 0.23372-0.11408l-51.416-59.004zm1.0225 1.8537-6.1057-6.9869 1.7528 3.7359-8.063-10.922-8.2968-9.468 3.5349 5.8462 16.009 21.217 11.393 24.041 22.962 37.958c0.88605-0.39461 1.7906-0.81605 2.6877-1.2263l-25.095-44.916 31.58 41.893c0.22277-0.10782 0.44843-0.23348 0.67191-0.34222l-37.014-50.049-6.0181-10.78zm-12.416-14.174 6.3102 7.1866-0.73034-1.54-9.2024-10.58 3.6225 4.9336zm-3.6225-4.9336-3.681-4.9336-3.009-2.9374 0.43821 0.74147 6.2518 7.1295zm-9.7282-5.1332-0.93484-1.7111 1.3146 4.0781 42.01 93.967c0.0866-0.031 0.17623-0.0544 0.26293-0.0855l-42.652-96.249zm0.37977 2.367-2.1618-4.8481 3.009 13.004 29.798 89.49c0.25638-0.073 0.50254-0.15358 0.75956-0.22815l-31.405-97.418zm0.84721 8.1562-2.8338-8.5269 2.1034 13.147 21.151 87.208c0.26313-0.0571 0.52514-0.11231 0.78877-0.17111l-21.209-91.657zm-0.73035 4.6199-2.5416-10.495 4.0023 43.376 10.546 56.01c0.74485-0.10891 1.5019-0.21971 2.2495-0.34222l-14.256-88.549zm1.4607 32.881-4.6158-24.526 0.0876 16.968 7.6248 64.422c0.71106-0.0613 1.4203-0.12586 2.1326-0.19962l-5.2293-56.665zm-4.0023-43.376-0.49664-5.4755-0.26293-0.71297 0.0292 3.1655 0.73035 3.0229zm0.26293-7.1295-0.32136-1.3974-0.6427-1.1692 0.0876 0.6274 0.87642 1.9392zm-9.9619 3.6503-0.0584-1.3118-0.14607 2.4525 0.20449-1.1407zm-0.20449 1.1407-2.6 13.518-4.4405 88.862c0.2827 0.0287 0.56496 0.0586 0.84721 0.0855l6.1933-102.47zm-2.6 13.518 0.46742-9.0973-1.7236 5.1047-2.8922 25.581 4.1484-21.588zm-4.1484 21.588-0.58427 3.0514-7.0405 63.282c0.0394 6e-3 0.0775 0.0225 0.11685 0.0285l7.508-66.362zm-0.58427 3.0514 3.0382-27.32-3.0382 9.1543-13.672 80.278c0.56896 0.11053 1.1284 0.23814 1.6944 0.34221l11.978-62.455zm0-18.166 3.1551-18.48-30.266 95.65c0.42887 0.11443 0.85873 0.231 1.2854 0.34222l25.825-77.512zm3.4472-20.248 1.8113-10.523-33.099 71.723-11.218 32.739c1.4478 0.45887 2.874 0.88519 4.2944 1.3118l38.212-95.25zm-31.288 61.2 11.043-32.168-11.101 20.048-17.616 42.72c1.0456 0.3544 2.066 0.68783 3.0967 1.0267l14.578-31.627zm33.099-71.723 0.26293-0.6274 0.0292-0.17111-0.23371 0.45629-0.0584 0.34222zm-13 1.5115 0.67192-1.3689-0.55507 0.42778-0.14606 0.11406-0.99327 0.82703-0.67192 1.0837-4.4989 5.0477 3.5057-3.4507-1.2854 2.0533 2.045-2.7948 1.9281-1.9392zm-3.9731 4.734-8.881 12.263-46.392 75.944c0.16549 0.0646 0.33156 0.10682 0.49665 0.17111l54.776-88.378zm-8.881 12.263 6.6608-10.865 2.3955-3.9355-1.636 1.2833-4.4405 6.274 3.5641-3.5362-5.2001 5.8747-55.185 77.854c0.27093 0.10891 0.51892 0.23404 0.78878 0.34222l53.052-73.292zm1.3438-4.9051 1.636-2.3385-26.585 26.208-42.185 49.137c0.48287 0.2006 0.98115 0.40031 1.4607 0.59889l65.673-73.605zm-24.949 23.87 21.151-24.64-8.8226 6.9869-61.524 63.852c0.53898 0.22687 1.1011 0.45988 1.636 0.68444l47.56-46.884zm12.328-17.653 10.721-11.122-13.789 8.6125-70.902 59.061c0.45062 0.35118 0.8986 0.71308 1.3438 1.0552l72.626-57.607zm-3.0674-2.5096 13.468-11.179-7.1574 3.5077-34.034 25.01 27.724-17.339zm-27.724 17.339-22.29 13.974-28.104 21.56c0.30347 0.29303 0.60007 0.60024 0.90562 0.88407l49.488-36.418zm-22.29 13.974 40.958-31.427-12.913 6.3595-60.502 41.95c0.63448 0.77201 1.2714 1.511 1.9281 2.2244l30.528-19.107zm28.045-25.067 23.371-16.227-51.738 21.303-39.994 23.385c0.58035 1.495 1.2029 2.9078 1.8697 4.2492l66.491-32.71zm-28.367 5.0762 27.403-16.027-29.564 9.6391-35.203 16.997c-0.78196 1.891-1.5175 3.7891-2.2203 5.7036l39.585-16.312zm-2.1618-6.3881 73.356-35.448-3.5349 0.57036-9.1147 2.8803-89.774 36.018c-1.1486 2.1482-2.2429 4.3175-3.272 6.5021l32.34-10.523zm60.706-31.997 5.9888-2.3955 3.1259-0.48481 4.3529-1.3974-2.2495 0.0855-1.6944 0.37074 0.90563-0.37074-1.5775 0.057-4.9079 1.597-6.4271 1.4544 3.6517-0.57035-75.547 24.469c-0.5595 0.4104-1.109 0.84005-1.6652 1.2548l76.044-24.069zm-2.4832-1.0837-17.616 2.7663-35.057 8.2988c-0.85173 0.51868-1.6939 1.0393-2.5416 1.5685l55.214-12.634zm-17.616 2.7663 23.985-5.6751-5.0248 0.1426-42.711 7.3292c-1.6121 0.87698-3.217 1.7648-4.8203 2.6807l28.571-4.4774zm18.96-5.5325 13.175-2.2529-28.893-3.137c-4.7495 1.8795-9.5143 3.9836-14.286 6.2455l30.003-0.85555zm13.175-2.2529 0.55506 0.057 0.90563-0.22815-0.26293-0.057-1.1978 0.22815zm0.55506 0.057-8.7057 2.0533 4.9664-0.14258 5.3753-1.7396-1.636-0.1711zm1.636 0.1711 0.32135 0.0285 0.49664-0.19963-0.23371-0.0285-0.58428 0.19963zm0.32135 0.0285-4.1192 1.654h0.78877l5.9304-1.3689-2.6-0.28517zm2.6 0.28517 0.32135 0.0285 0.26292-0.0855-0.20449-0.0285-0.37978 0.0855zm-23.955 22.643 5.1708-2.1389 4.9956-3.8214-2.9798 0.96961-7.1866 4.9907zm5.1708-2.1389-15.629 12.006 15.366-7.5573 13.351-9.8387-13.088 5.3899zm13.088-5.3899 2.6877-1.1122 1.6944-1.3689-1.7528 0.54184-2.6293 1.9392zm4.3821-2.4811 1.0517-0.34222 2.6-2.7092-3.6517 3.0514zm3.6517-3.0514 0.46742-0.39925 0.70113-0.82702-1.1686 1.2263zm-2.6 2.7092-0.99326 0.99814 0.81798-0.3137 0.73035-0.88407-0.55507 0.19963zm-0.17528 0.68444-4.2068 4.8766 4.2944-2.1103 2.8045-3.964-2.8922 1.1978zm2.8922-1.1978-2.2495 3.7074 2.0742-1.0266 2.1618-3.5077-1.9865 0.82703zm1.9865-0.82703 0.29213-0.11407 0.11686-0.22815-0.23371 0.0855-0.17528 0.25666zm-2.1618 3.5077-0.90563 1.4544 1.3146-0.82702 0.52585-1.0837-0.93485 0.45629zm0.409 0.6274-0.17529 0.37073 1.6068-1.2833-1.4315 0.91259zm1.4315-0.91259 1.1393-0.68442 0.96406-0.96962-2.1034 1.654zm-2.7461 1.7396-2.3371 1.4544-0.99327 1.654 2.7753-2.1959 0.55506-0.91259zm-2.3371 1.4544 1.1686-1.8822-0.55507 0.25667-1.5775 2.2244 0.96405-0.59889zm-0.96405 0.59889-6.0765 3.8214-5.463 6.3595 9.8743-7.8425 1.6652-2.3385zm-6.0765 3.8214 3.3596-3.9355-1.8989 0.94109-5.0248 5.2188 3.5641-2.2244zm1.4607-2.9944 5.2877-5.504-1.7528 0.71295-8.881 7.4432 5.3461-2.6522zm-23.897-23.642-0.14606-0.0285h0.43821l18.726-1.3118-8.063-0.65592-6.1641 0.0855c-1.785 0.62215-3.5791 1.2583-5.3753 1.9392l0.58427-0.0285zm26.701-7.2436 0.61349 0.11407-1.3438-0.79851c-0.17447 0.0377-0.35111 0.0757-0.52585 0.11408l1.2562 0.57036z" fill="#fff"/><path d="m453.65 275.22c-37.675 0.65256-88.252 23.551-127.15 56.973-4.4679 8.1653-8.0653 16.602-10.937 25.253 5.7551 17.962 17.703 25.434 26.705 32.627 94.869 40.759 128.3 48.432 211.39 2.1654 12.007-6.6857 28.416-14.168 36.693-37.66-5.0241-15.484-12.239-30.364-25.934-39.738-30.222-12.926-59.376-29.084-91.318-37.631-5.9353-1.4797-12.466-2.1107-19.443-1.9898z" fill="url(#f)" opacity=".5"/></g></svg>
