<svg version="1.1" viewBox="0 0 472.75 474.15" xmlns="http://www.w3.org/2000/svg" xmlns:xlink="http://www.w3.org/1999/xlink"><defs><linearGradient id="j"><stop stop-color="#fff" offset="0"/><stop stop-color="#d4d4d4" offset=".64107"/><stop stop-color="#808080" offset="1"/></linearGradient><linearGradient id="b"><stop stop-color="#fff" offset="0"/><stop stop-color="#ccc" offset="1"/></linearGradient><linearGradient id="a"><stop stop-color="#fff" offset="0"/><stop stop-color="#717171" offset="1"/></linearGradient><linearGradient id="c"><stop stop-color="#1a1a1a" offset="0"/><stop stop-color="#717171" offset="1"/></linearGradient><linearGradient id="h" x1="65.67" x2="295.96" y1="521.02" y2="521.02" gradientTransform="translate(2,2)" gradientUnits="userSpaceOnUse" xlink:href="#c" spreadMethod="reflect"/><linearGradient id="g" x1="296.22" x2="296.22" y1="121.96" y2="361.42" gradientTransform="translate(0 285.87)" gradientUnits="userSpaceOnUse" xlink:href="#b"/><linearGradient id="f" x1="65.67" x2="295.96" y1="521.02" y2="521.02" gradientUnits="userSpaceOnUse" xlink:href="#c" spreadMethod="reflect"/><linearGradient id="e" x1="168.42" x2="168.42" y1="137.32" y2="383.37" gradientTransform="translate(0 285.87)" gradientUnits="userSpaceOnUse" xlink:href="#b"/><radialGradient id="d" cx="180.82" cy="521.02" r="88.004" gradientUnits="userSpaceOnUse" xlink:href="#c" spreadMethod="reflect"/><linearGradient id="y" x1="218.11" x2="218.11" y1="784.41" y2="829.75" gradientTransform="translate(-42.931 2.7994)" gradientUnits="userSpaceOnUse" xlink:href="#b"/><linearGradient id="x" x1="207.33" x2="240.16" y1="802.35" y2="802.35" gradientTransform="translate(-42.931 2.7994)" gradientUnits="userSpaceOnUse" xlink:href="#c"/><linearGradient id="w" x1="516.69" x2="633.87" y1="483.65" y2="483.65" gradientTransform="matrix(0 1.1619 -1.1619 0 742.76 -147.39)" gradientUnits="userSpaceOnUse" xlink:href="#a"/><linearGradient id="v" x1="362.19" x2="580.88" y1="479.18" y2="481.09" gradientUnits="userSpaceOnUse" xlink:href="#b"/><linearGradient id="u" x1="598.23" x2="627.81" y1="514.68" y2="378.55" gradientUnits="userSpaceOnUse" xlink:href="#a" spreadMethod="reflect"/><radialGradient id="r" cx="575.28" cy="483.65" r="58.589" gradientTransform="matrix(1.3319 0 0 1.3675 -190.92 -177.73)" gradientUnits="userSpaceOnUse" xlink:href="#c"/><radialGradient id="q" cx="575.28" cy="483.65" r="58.589" gradientTransform="matrix(1.3319 0 0 1.3675 -190.92 -177.73)" gradientUnits="userSpaceOnUse" xlink:href="#j"/><radialGradient id="p" cx="758.97" cy="527.46" r="4.8125" gradientTransform="matrix(1.0749 0 0 1.0749 -632.91 -45.942)" gradientUnits="userSpaceOnUse" xlink:href="#b" spreadMethod="reflect"/><radialGradient id="o" cx="650.82" cy="530.78" r="1.9467" gradientTransform="matrix(2.2469 0 0 2.2468 -1279.4 -671.56)" gradientUnits="userSpaceOnUse" xlink:href="#b"/><radialGradient id="n" cx="758.97" cy="527.46" r="4.8125" gradientTransform="matrix(.94175 0 0 .94175 -531.84 24.278)" gradientUnits="userSpaceOnUse" xlink:href="#a"/><radialGradient id="m" cx="182.92" cy="521.02" r="3.2645" gradientTransform="matrix(1 0 0 .99272 0 3.7918)" gradientUnits="userSpaceOnUse" xlink:href="#a"/><linearGradient id="t" x1="719.4" x2="591.12" y1="362.87" y2="546.79" gradientTransform="matrix(0 -1.0254 -1.0254 0 677.25 1110.4)" gradientUnits="userSpaceOnUse" xlink:href="#c" spreadMethod="reflect"/><radialGradient id="l" cx="182.91" cy="525.75" r="6.3438" gradientTransform="matrix(1 0 0 .33005 0 352.22)" gradientUnits="userSpaceOnUse" xlink:href="#a"/><linearGradient id="i" x1="148.16" x2="169.89" y1="510.93" y2="548.56" gradientUnits="userSpaceOnUse" xlink:href="#a" spreadMethod="reflect"/><linearGradient id="s" x1="229.35" x2="241.67" y1="522.28" y2="500.94" gradientUnits="userSpaceOnUse" xlink:href="#a" spreadMethod="reflect"/><radialGradient id="k" cx="445.33" cy="802.57" r="3.2344" gradientTransform="matrix(.7465 0 0 .7465 112.89 203.45)" gradientUnits="userSpaceOnUse" xlink:href="#j"/></defs><g transform="translate(-56.191 -463.16)"><g transform="translate(-34.82 17.719)"><g transform="translate(263.65 281.43)"><rect x="68.67" y="408.87" width="228.29" height="228.29" rx="24.244" ry="24.244" color="#000000" fill="#333" stroke="url(#h)" stroke-width="2"/><rect x="66.67" y="406.87" width="228.29" height="228.29" rx="24.244" ry="24.244" color="#000000" fill="url(#g)" stroke="url(#f)" stroke-width="2"/><rect x="92.298" y="435.45" width="177.04" height="174.01" rx="18.801" ry="18.479" color="#000000" fill="#333"/><rect x="93.813" y="434.02" width="174.01" height="174.01" rx="18.479" ry="18.479" color="#000000" fill="url(#e)" stroke="url(#d)" stroke-width="1.2"/></g><g fill="#333"><path transform="matrix(0 .72501 -.72501 0 815.9 676.06)" d="m201.43 510.93a25.714 25.714 0 0 1-25.714 25.714 25.714 25.714 0 0 1-25.714-25.714 25.714 25.714 0 0 1 25.714-25.714 25.714 25.714 0 0 1 25.714 25.714z" color="#000000" stroke="url(#i)" stroke-width="3.4733"/><path transform="matrix(.71351 0 0 .71351 320.09 438.9)" d="m201.43 510.93a25.714 25.714 0 0 1-25.714 25.714 25.714 25.714 0 0 1-25.714-25.714 25.714 25.714 0 0 1 25.714-25.714 25.714 25.714 0 0 1 25.714 25.714z" color="#000000" stroke="url(#i)" stroke-width="2.8031"/><path transform="matrix(.5286 0 0 .5286 352.59 533.37)" d="m201.43 510.93a25.714 25.714 0 0 1-25.714 25.714 25.714 25.714 0 0 1-25.714-25.714 25.714 25.714 0 0 1 25.714-25.714 25.714 25.714 0 0 1 25.714 25.714z" color="#000000" stroke="url(#s)" stroke-width="3.7836"/></g><path d="m445.47 800.22c-1.7716 0-3.25 1.4471-3.25 3.2188 0 1.7716 1.4784 3.25 3.25 3.25s3.2188-1.4784 3.2188-3.25c0-1.7716-1.4471-3.2188-3.2188-3.2188z" color="#000000" fill="url(#k)" style="block-progression:tb;text-indent:0;text-transform:none"/></g><g transform="translate(-7.3221 57.281)"><rect x="68.67" y="408.87" width="228.29" height="228.29" rx="24.244" ry="24.244" color="#000000" fill="#333" stroke="url(#h)" stroke-width="2"/><rect x="66.67" y="406.87" width="228.29" height="228.29" rx="24.244" ry="24.244" color="#000000" fill="url(#g)" stroke="url(#f)" stroke-width="2"/><rect x="92.298" y="435.45" width="177.04" height="174.01" rx="18.801" ry="18.479" color="#000000" fill="#333"/><rect x="93.813" y="434.02" width="174.01" height="174.01" rx="18.479" ry="18.479" color="#000000" fill="url(#e)" stroke="url(#d)" stroke-width="1.2"/><path d="m129.03 476.88c-10.144 11.888-16.281 27.303-16.281 44.156 0 37.596 30.467 68.062 68.062 68.062s68.062-30.467 68.062-68.062c0-16.848-6.111-32.27-16.25-44.156 8.6095 11.093 13.75 25.027 13.75 40.156 0 36.201-29.361 65.531-65.562 65.531s-65.531-29.33-65.531-65.531c0-15.134 5.1361-29.062 13.75-40.156z" color="#000000" fill="url(#w)"/><path transform="matrix(1.1188 0 0 1.1188 -462.79 -20.071)" d="m633.87 483.65a58.589 58.589 0 0 1-58.589 58.589 58.589 58.589 0 0 1-58.589-58.589 58.589 58.589 0 0 1 58.589-58.589 58.589 58.589 0 0 1 58.589 58.589z" color="#000000" fill="url(#v)"/><path transform="matrix(1.0254 0 0 1.0254 -409.09 25.077)" d="m633.87 483.65a58.589 58.589 0 0 1-58.589 58.589 58.589 58.589 0 0 1-58.589-58.589 58.589 58.589 0 0 1 58.589-58.589 58.589 58.589 0 0 1 58.589 58.589z" color="#000000" fill="url(#u)"/><path transform="matrix(.12258 0 0 .12258 112.4 461.74)" d="m633.87 483.65a58.589 58.589 0 0 1-58.589 58.589 58.589 58.589 0 0 1-58.589-58.589 58.589 58.589 0 0 1 58.589-58.589 58.589 58.589 0 0 1 58.589 58.589z" color="#000000" fill="url(#r)"/><path transform="matrix(.11801 0 0 .11801 115.03 463.95)" d="m633.87 483.65a58.589 58.589 0 0 1-58.589 58.589 58.589 58.589 0 0 1-58.589-58.589 58.589 58.589 0 0 1 58.589-58.589 58.589 58.589 0 0 1 58.589 58.589z" color="#000000" fill="url(#q)"/><path d="m182.11 515.85c-0.27116 0-0.50386 0.19911-0.50386 0.47027v3.3927h-3.3927c-0.27116 0-0.47027 0.2327-0.47027 0.50386v1.6124c0 0.27116 0.19911 0.47027 0.47027 0.47027h3.3927v3.4263c0 0.27116 0.2327 0.47027 0.50386 0.47027h1.6124c0.27116 0 0.50386-0.19911 0.50386-0.47027v-3.4263h3.3927c0.27116 0 0.47027-0.19911 0.47027-0.47027v-1.6124c0-0.27116-0.19911-0.50386-0.47027-0.50386h-3.3927v-3.3927c0-0.27116-0.2327-0.47027-0.50386-0.47027h-1.6124z" color="#000000" fill="url(#p)"/><path transform="matrix(.13793 0 0 .13793 76.388 454.31)" d="m633.87 483.65a58.589 58.589 0 0 1-58.589 58.589 58.589 58.589 0 0 1-58.589-58.589 58.589 58.589 0 0 1 58.589-58.589 58.589 58.589 0 0 1 58.589 58.589z" color="#000000" stroke="#333" stroke-width="18.257"/><path transform="matrix(.13793 0 0 .13793 130.56 454.31)" d="m633.87 483.65a58.589 58.589 0 0 1-58.589 58.589 58.589 58.589 0 0 1-58.589-58.589 58.589 58.589 0 0 1 58.589-58.589 58.589 58.589 0 0 1 58.589 58.589z" color="#000000" stroke="#333" stroke-width="18.257"/><path d="m182.23 516.65c-0.22936 0-0.426 0.16829-0.426 0.39762v0.71006 0.71001c-0.25876 0.62465-0.79544 1.1898-1.4201 1.4485h-0.73844-0.71006c-0.12312 0-0.21243 0.054-0.28401 0.14204-0.0709 0.0708-0.11336 0.16951-0.11336 0.28401v1.3632c0 0.0574 9e-3 0.11995 0.0285 0.17049 0.0197 0.0481 0.0496 0.0784 0.0852 0.11335 0.0714 0.0881 0.16093 0.14205 0.28403 0.14205h0.71004 0.73843c0.62466 0.25878 1.1613 0.82387 1.4201 1.4485v0.71001 0.71006c0 0.22937 0.1965 0.39762 0.42601 0.39762h1.3633c0.22937 0 0.42601-0.16829 0.42601-0.39762v-1.4201c0.25874-0.62465 0.82388-1.1897 1.4485-1.4485h0.71004 0.71004c0.12291 0 0.21244-0.0538 0.28402-0.14205 0.0356-0.0356 0.066-0.0655 0.0852-0.11335 0.0197-0.0508 0.0285-0.11313 0.0285-0.17049v-1.3632c0-0.11479-0.0431-0.21317-0.11336-0.28401-0.0714-0.0881-0.16117-0.14204-0.28401-0.14204h-0.71006-0.71004c-0.62463-0.25878-1.1897-0.82388-1.4485-1.4485v-1.4201c0-0.22937-0.19674-0.39762-0.426-0.39762h-1.3633z" color="#000000" fill="url(#o)"/><path d="m182.15 515.94h1.5366c0.25842 0 0.48019 0.19545 0.48019 0.46161v1.6486c0.29166 0.72519 0.92859 1.3812 1.6327 1.6816h0.80034 0.80032c0.13878 0 0.23965 0.0626 0.32011 0.16486 0.0797 0.0822 0.1281 0.19672 0.1281 0.32974v1.5827c0 0.0666-9e-3 0.13894-0.0319 0.19785-0.022 0.0559-0.0563 0.0907-0.0962 0.13194-0.0803 0.10203-0.18145 0.16486-0.32009 0.16486h-0.80034-0.80032c-0.70408 0.30039-1.341 0.95638-1.6327 1.6816v1.6486c0 0.26616-0.22178 0.4616-0.4802 0.4616h-1.5366c-0.25842 0-0.48019-0.19544-0.48019-0.4616v-0.82433-0.82429c-0.29166-0.72519-0.89656-1.3812-1.6007-1.6816h-0.83231-0.80035c-0.13866 0-0.23963-0.0626-0.32012-0.16486-0.0402-0.0415-0.0746-0.0762-0.0962-0.13194-0.0207-0.0588-0.032-0.13124-0.032-0.19785v-1.5827c0-0.13307 0.0483-0.24761 0.1281-0.32974 0.0803-0.10203 0.18144-0.16486 0.32012-0.16486h0.80032 0.83233c0.70409-0.30039 1.309-0.95639 1.6007-1.6816v-0.82428-0.82433c0-0.26616 0.22178-0.46161 0.48019-0.46161z" color="#000000" fill="#fff"/><path d="m182.21 516.49h1.4126c0.23757 0 0.44144 0.17444 0.44144 0.412v1.4715c0.26811 0.64727 0.85366 1.2328 1.5009 1.5009h0.73573 0.73575c0.12752 0 0.2203 0.0559 0.29429 0.14716 0.0733 0.0733 0.11773 0.17556 0.11773 0.29429v1.4126c0 0.0594-9e-3 0.12406-0.0293 0.17659-0.0202 0.0498-0.0518 0.0811-0.0884 0.11771-0.0739 0.0913-0.16682 0.14715-0.2943 0.14715h-0.73575-0.73573c-0.64727 0.26812-1.2328 0.85365-1.5009 1.5009v1.4715c0 0.23756-0.20387 0.412-0.44144 0.412h-1.4126c-0.23756 0-0.44143-0.17444-0.44143-0.412v-0.73576-0.73573c-0.26813-0.64727-0.82422-1.2328-1.4715-1.5009h-0.76517-0.73575c-0.12752 0-0.2203-0.0559-0.2943-0.14715-0.0369-0.0368-0.0683-0.068-0.0883-0.11771-0.0192-0.0525-0.0295-0.11717-0.0295-0.17659v-1.4126c0-0.11878 0.0445-0.22101 0.11773-0.29429 0.0739-0.0913 0.16681-0.14716 0.29429-0.14716h0.73575 0.76517c0.64727-0.26812 1.2034-0.85364 1.4715-1.5009v-0.73573-0.73577c0-0.23756 0.20388-0.412 0.44144-0.412z" color="#000000" fill="url(#n)"/><path d="m186.19 521c0-0.0756-0.0467-0.13292-0.0519-0.20727-0.52636-0.0317-1.1558-0.32669-1.9172-1.0881-0.74539-0.74539-0.99117-1.3938-1.0363-1.9172-0.0841-6e-3 -0.17342 0-0.25908 0-0.0856 0-0.17509-6e-3 -0.25908 0-0.0451 0.52338-0.29094 1.1718-1.0363 1.9172-0.76437 0.76438-1.3847 1.0568-1.9172 1.0881-4e-3 0.0744-0.0519 0.13154-0.0519 0.20727 0 0.0699 0.0476 0.13849 0.0519 0.20727 0.53328 0.036 1.151 0.37371 1.9172 1.1399 0.7644 0.76439 1.0568 1.3907 1.0882 1.9172 0.0674 4e-3 0.13877 0 0.20725 0 0.0685 0 0.13981 4e-3 0.20726 0 0.0313-0.5265 0.32375-1.1528 1.0882-1.9172 0.76142-0.76144 1.3908-1.0503 1.9172-1.0881 7e-3 -0.085 0.0519-0.17231 0.0519-0.25907z" color="#000000" fill="url(#m)"/><path d="m241.39 520.51c0 1.1866-0.0571 2.3617-0.125 3.5312-1.8295-31.535-27.975-56.531-59.969-56.531-31.994 0-58.139 24.996-59.969 56.531-0.0678-1.1694-0.0937-2.3448-0.0937-3.5312 0-33.181 26.882-60.094 60.063-60.094 33.181 0 60.094 26.913 60.094 60.094z" color="#000000" fill="url(#t)"/><path d="m120.78 520.03c-5e-3 0.33393-0.0312 0.66477-0.0312 1 0 33.181 26.882 60.062 60.062 60.062s60.094-26.882 60.094-60.062c0-0.33517-0.0258-0.66614-0.0312-1-0.53584 32.718-27.217 59.062-60.062 59.062-32.845 0-59.495-26.345-60.031-59.062z" color="#000000" fill="#fff"/><path d="m180.81 453.47c-21.068 0-39.79 9.9612-51.781 25.406 12.486-14.632 31.038-23.938 51.781-23.938 20.748 0 39.327 9.2994 51.812 23.938-11.991-15.45-30.741-25.406-51.812-25.406z" color="#000000" fill="#e6e6e6"/><path d="m182.91 514.37c-2.8488 0-5.285 1.7268-6.3438 4.1875 1.5138-1.8342 3.7798-3.0312 6.3438-3.0312 2.5482 0 4.8298 1.1852 6.3438 3-1.0649-2.4464-3.5053-4.1562-6.3438-4.1562z" color="#000000" fill="#fff"/><path d="m182.91 527.84c-2.8488 0-5.285-1.7268-6.3438-4.1875 1.5138 1.8342 3.7798 3.0312 6.3438 3.0312 2.5482 0 4.8298-1.1852 6.3438-3-1.0649 2.4464-3.5053 4.1562-6.3438 4.1562z" color="#000000" fill="url(#l)"/></g><g transform="translate(-32.677 60.853)"><g transform="translate(263.65)"><rect x="68.67" y="408.87" width="228.29" height="228.29" rx="24.244" ry="24.244" color="#000000" fill="#333" stroke="url(#h)" stroke-width="2"/><rect x="66.67" y="406.87" width="228.29" height="228.29" rx="24.244" ry="24.244" color="#000000" fill="url(#g)" stroke="url(#f)" stroke-width="2"/><rect x="92.298" y="435.45" width="177.04" height="174.01" rx="18.801" ry="18.479" color="#000000" fill="#333"/><rect x="93.813" y="434.02" width="174.01" height="174.01" rx="18.479" ry="18.479" color="#000000" fill="url(#e)" stroke="url(#d)" stroke-width="1.2"/></g></g><g transform="translate(-9.465 14.147)"><g transform="translate(0 281.43)"><rect x="68.67" y="408.87" width="228.29" height="228.29" rx="24.244" ry="24.244" color="#000000" fill="#333" stroke="url(#h)" stroke-width="2"/><rect x="66.67" y="406.87" width="228.29" height="228.29" rx="24.244" ry="24.244" color="#000000" fill="url(#g)" stroke="url(#f)" stroke-width="2"/><rect x="92.298" y="435.45" width="177.04" height="174.01" rx="18.801" ry="18.479" color="#000000" fill="#333"/><rect x="93.813" y="434.02" width="174.01" height="174.01" rx="18.479" ry="18.479" color="#000000" fill="url(#e)" stroke="url(#d)" stroke-width="1.2"/></g><g stroke="#4d4d4d"><rect x="160.87" y="785.45" width="40.406" height="40.406" rx="2.0203" ry="2.0203" color="#000000" fill="#333"/><rect x="160.61" y="784.95" width="40.406" height="40.406" rx="2.0203" ry="2.0203" color="#000000" fill="url(#y)"/><path d="m176.41 792.71v3.2812h-3.4375v4.6875h-7.3125v16.906h30.312v-16.906h-7.3438v-4.6875h-3.4062v-3.2812h-8.8125z" color="#000000" fill="url(#x)" stroke-width="2.5182"/></g><path d="m177.51 795.65v2.6395h-2.774v3.7707h-5.9011v13.6h24.462v-13.6h-5.9264v-3.7707h-2.7488v-2.6395h-7.1116z" color="#000000" fill="#333"/><g fill="#decd87" stroke="#333"><path d="m171.12 810.39h2.2224v4.8214h-2.2224v-4.8214" color="#000000"/><path d="m173.59 810.39h2.2224v4.8214h-2.2224v-4.8214" color="#000000"/><path d="m176.06 810.39h2.2224v4.8214h-2.2224v-4.8214" color="#000000"/><path d="m178.53 810.39h2.2224v4.8214h-2.2224v-4.8214" color="#000000"/><path d="m181 810.39h2.2224v4.8214h-2.2224v-4.8214" color="#000000"/><path d="m183.47 810.39h2.2224v4.8214h-2.2224v-4.8214" color="#000000"/><path d="m185.94 810.39h2.2224v4.8214h-2.2224v-4.8214" color="#000000"/><path d="m188.41 810.39h2.2224v4.8214h-2.2224v-4.8214" color="#000000"/></g><path d="m162.04 783.36c-1.1554 0-2.0645 0.36268-2.0645 0.80778v1.106c0-0.4451 0.90917-0.80778 2.0645-0.80778h37.549c1.1554 0 2.0968 0.36268 2.0968 0.80778v-1.106c0-0.4451-0.94143-0.80778-2.0968-0.80778h-37.549z" color="#000000" fill="#ccc"/></g></g></svg>
