<svg version="1.1" viewBox="0 0 512 512" xmlns="http://www.w3.org/2000/svg" xmlns:xlink="http://www.w3.org/1999/xlink"><defs><linearGradient id="a"><stop stop-color="#fff" offset="0"/><stop stop-color="#fff" stop-opacity="0" offset="1"/></linearGradient><linearGradient id="t" x1="1787.1" x2="751.47" y1="810.07" y2="118.16" gradientUnits="userSpaceOnUse"><stop stop-color="#1a1a1a" offset="0"/><stop stop-color="#1a1a1a" stop-opacity="0" offset="1"/></linearGradient><filter id="u" color-interpolation-filters="sRGB"><feGaussianBlur stdDeviation="2.3682202"/></filter><linearGradient id="s" x1="1156.9" x2="1201.6" y1="297" y2="297" gradientTransform="matrix(-1.2 0 0 -1.2 2594.4 653.39)" gradientUnits="userSpaceOnUse" xlink:href="#a"/><linearGradient id="r" x1="1156.2" x2="1198.7" y1="373.92" y2="373.92" gradientTransform="matrix(-1.2 0 0 -1.2 2590.4 822.63)" gradientUnits="userSpaceOnUse" xlink:href="#a"/><linearGradient id="q" x1="1216.7" x2="1258.3" y1="269.11" y2="269.11" gradientTransform="matrix(-1.2 0 0 -1.2 2722.4 592.04)" gradientUnits="userSpaceOnUse" xlink:href="#a"/><linearGradient id="p" x1="1155.5" x2="1196" y1="443.69" y2="443.69" gradientTransform="matrix(-1.2 0 0 -1.2 2586.7 976.13)" gradientUnits="userSpaceOnUse" xlink:href="#a"/><linearGradient id="o" x1="1213.2" x2="1252.9" y1="343" y2="343" gradientTransform="matrix(-1.2 0 0 -1.2 2712.7 754.59)" gradientUnits="userSpaceOnUse" xlink:href="#a"/><linearGradient id="n" x1="1269.7" x2="1308.7" y1="244.33" y2="244.33" gradientTransform="matrix(-1.2 0 0 -1.2 2836.2 537.52)" gradientUnits="userSpaceOnUse" xlink:href="#a"/><linearGradient id="m" x1="1210" x2="1248" y1="410.38" y2="410.38" gradientTransform="matrix(-1.2 0 0 -1.2 2703.9 902.84)" gradientUnits="userSpaceOnUse" xlink:href="#a"/><linearGradient id="l" x1="1264.1" x2="1301.4" y1="315.36" y2="315.36" gradientTransform="matrix(-1.2 0 0 -1.2 2822.1 693.8)" gradientUnits="userSpaceOnUse" xlink:href="#a"/><linearGradient id="k" x1="1259" x2="1294.7" y1="380.47" y2="380.47" gradientTransform="matrix(-1.2 0 0 -1.2 2809.1 837.02)" gradientUnits="userSpaceOnUse" xlink:href="#a"/><linearGradient id="j" x1="1102.6" x2="1192" y1="100.26" y2="100.26" gradientTransform="matrix(1.2 0 0 1.2 -229.46 121.43)" gradientUnits="userSpaceOnUse" xlink:href="#a"/><linearGradient id="i" x1="1044.8" x2="1128.9" y1="75.902" y2="75.902" gradientTransform="matrix(1.2 0 0 1.2 -217.37 126.13)" gradientUnits="userSpaceOnUse" xlink:href="#a"/><linearGradient id="h" x1="1165" x2="1249.1" y1="75.838" y2="75.838" gradientTransform="matrix(1.2 0 0 1.2 -241.41 126.13)" gradientUnits="userSpaceOnUse" xlink:href="#a"/><linearGradient id="g" x1="1106.9" x2="1186.4" y1="54.178" y2="54.178" gradientTransform="matrix(1.2 0 0 1.2 -229.33 130.32)" gradientUnits="userSpaceOnUse" xlink:href="#a"/><linearGradient id="f" x1="993.35" x2="1072.8" y1="54.256" y2="54.256" gradientTransform="matrix(1.2 0 0 1.2 -206.62 130.32)" gradientUnits="userSpaceOnUse" xlink:href="#a"/><linearGradient id="e" x1="1220.4" x2="1299.9" y1="54.143" y2="54.143" gradientTransform="matrix(1.2 0 0 1.2 -252.04 130.32)" gradientUnits="userSpaceOnUse" xlink:href="#a"/><linearGradient id="d" x1="1054.9" x2="1130.2" y1="34.803" y2="34.803" gradientTransform="matrix(1.2 0 0 1.2 -218.52 134.08)" gradientUnits="userSpaceOnUse" xlink:href="#a"/><linearGradient id="c" x1="1162.5" x2="1237.8" y1="34.754" y2="34.754" gradientTransform="matrix(1.2 0 0 1.2 -240.03 134.08)" gradientUnits="userSpaceOnUse" xlink:href="#a"/><linearGradient id="b" x1="1110.3" x2="1181.9" y1="17.308" y2="17.308" gradientTransform="matrix(1.2 0 0 1.2 -229.23 137.47)" gradientUnits="userSpaceOnUse" xlink:href="#a"/></defs><g transform="translate(-804.09 11.897)"><path transform="matrix(.79246 0 0 .79246 223.82 64.043)" d="m1352.3 421.02-187.63 123.56-426.74-264.28 203.64-68.644z" fill="url(#t)" filter="url(#u)"/><path d="m1145.9 144.09-0.1238 0.0247-44.676 14.041-0.3219 0.56958-1.7582 2.9222-4.3338-1.4858-49.479 15.552-2.4022 4.0366-4.73-1.8078-54.952 17.261-3.7889 6.2653 6.1911 64.016v0.22288l0.1733 0.0743 0.0246 0.0247 0.0492 0.0247 3.8632 2.625-2.1793 2.5012-0.0492 0.0495-0.0246 0.0743-0.84192 2.526-0.24772-0.12382 0.0499 0.59435-0.14867 0.24764 0.19811 0.0991 5.6216 58.345 0.0246 0.19812 0.17339 0.0991 3.6651 2.1297-2.0307 2.0059-0.0745 0.0743-0.0246 0.0991-0.81727 2.7488-0.22284-0.12382 0.0745 0.66864-0.14866 0.19812 0.17338 0.0991 5.2005 53.863 39.796 25.73 5.4978 0.91628 0.1733 2.7488 43.833 28.331 6.4635 0.71808 0.123 3.5661 52.823 33.457 52.426-33.457 0.1239-3.4918 6.0921-0.59431 43.66-28.529 0.1973-2.6498 5.4234-1.0154 39.376-25.73 5.5712-54.185-3.0701-5.4234 3.8632-2.2536 6.0666-58.89-3.5444-5.9282 4.3864-2.4421 6.6114-64.214-3.8142-6.2902-55.299-17.211-0.1487-0.0495-0.1237 0.0495-4.6579 1.8284-2.3739-4.1068-49.925-15.552-4.3833 1.5106-2.0801-3.5166-45.071-14.041-0.1239-0.0247z"/><g fill="#666"><path d="m1086.7 198.99 3.5524-5.9944-44.726-16.945-3.4159 5.709z"/><path d="m1262.6 220.83 3.6434-6.3575-55.729-18.924-3.5017 6.0375z"/><path d="m1143 179.43 3.3342-5.6705-44.945-15.262-3.214 5.4145z"/><path d="m1199.5 198.99 3.4824-5.9944-49.903-16.945-3.352 5.7091z"/><path d="m1206.7 245.37 3.9075-6.7674-56.141-21.27-3.7442 6.406z"/></g><path d="m1299.2 340.74-0.9933-3.2554-2.3454-2.3602z" fill="#222406"/><path d="m1149.5 420.19h-6.553l3.249 1.8892z" fill="#50550d"/><path d="m996.55 335.13-3.3334 5.6156 40.806 24.042 3.4638-5.8911z" fill="#333"/><path d="m992.44 332.74 4.1069 2.3875 40.936 23.766-4.0506-2.3551z"/><path d="m1258.8 364.79h-6.8026l-4.0557 55.402h6.553z" fill="#4d4d4d"/><path d="m1040.8 364.79h-6.8026l3.9426 55.402 6.553 1e-5z" fill="#1a1a1a"/><path d="m1252 364.79h6.8026l-3.4698-5.8911z" fill="#999"/><path d="m1034 364.79h6.8026l-3.3388-5.8911z" fill="#4d4d4d"/><path d="m1249.3 362.46 3.4891 5.9326-0.7381-3.6119z" fill="#303308"/><path d="m990.26 268.36-3.4818 5.8192 42.349 21.899 3.6243-6.1158z" fill="#333"/><path d="m1302.6 268.36 4.3835-2.8954-42.066 21.598-4.3314 2.9z" fill="#0e0e02"/><path d="m985.94 265.47 4.324 2.8954 42.492 21.602-4.266-2.9z" fill="#0f1003"/><path d="m983.41 195.55-2.5336 3.4443-1.1103 2.5932z" fill="#0f1002"/><path d="m1252.6 356.54h6.8397l4.6981-60.456h-7.112z" fill="#4d4d4d"/><path d="m1033.4 356.54h6.8398l-4.0301-60.456h-7.1119z" fill="#1a1a1a"/><path d="m1097 195.55-3.5728 6.0374 49.799 19.244 3.7221-6.3575z" fill="#666"/><path d="m1043.6 362.46-3.4833 5.9326 45.402 26.75 3.6255-6.2409z" fill="#333"/><path d="m1207.9 395.15-7.1843 3e-5 -2.2887 57.217 6.9065-1e-5z" fill="#4d4d4d"/><path d="m1092.7 395.15h-7.1844l2.1628 57.217h6.9066z" fill="#1a1a1a"/><path d="m1264.2 296.08-3.6308-6.1158-3.4812 6.1158z" fill="#999"/><path d="m1032.8 289.97-3.6243 6.1158h7.1119z" fill="#4d4d4d"/><path d="m1257.9 299.38-0.807-3.2976-2.8451-2.863z" fill="#262806"/><path d="m1035.5 299.38 3.6456-6.1605-2.9107 2.863z" fill="#282b07"/><path d="m983.41 195.55-3.644 6.0375 44.01 19.244 3.8005-6.3576z" fill="#666"/><path d="m1200.7 395.15 7.1843-3e-5 -3.6319-6.2408z" fill="#999"/><path d="m1085.6 395.15h7.1844l-3.5589-6.2409z" fill="#4d4d4d"/><path d="m1257.7 287.07h7.1526l5.1472-66.236h-7.451z" fill="#4d4d4d"/><path d="m1028.5 287.07h7.1526l-4.4152-66.236h-7.4509z" fill="#1a1a1a"/><path d="m1039.2 293.22-3.6456 6.1605 47.35 24.485 3.8017-6.4938z" fill="#333"/><path d="m1254.2 293.22 4.3214-2.8996-47.063 24.163-4.2297 2.8876z" fill="#0f0f02"/><path d="m1034.9 290.32 4.255 2.8996 47.506 24.151-4.1564-2.8875z" fill="#101103"/><path d="m1211.1 323.86h-7.5304l-2.5099 62.746h7.2258z" fill="#4d4d4d"/><path d="m1085.2 386.61h7.2257l-2.067-62.746h-7.5305z" fill="#1a1a1a"/><path d="m1034.2 217.33-3.0171 3.5008-0.8068 2.9052z" fill="#1d1f05"/><path d="m1143.9 429.12-0.07 59.093 7.3005-2e-5 0.3817-59.093z" fill="#4d4d4d"/><path d="m1096 392.89-3.6467 6.2874 50.821 29.943 3.8021-6.6346z" fill="#333"/><path d="m1203.5 323.86h7.5304l-3.809-6.4938z" fill="#999"/><path d="m1090.4 323.86-3.7288-6.4938-3.8017 6.4938z" fill="#4d4d4d"/><path transform="matrix(.79246 0 0 .79246 810.24 64.043)" d="m353.52 327.87-0.47702 4.6671 4.8268-8.2582z" fill="#383c0a"/><path d="m1143.2 429.12h7.6116l-3.8095-6.6346z" fill="#999"/><path d="m1079.9 245.37 3.9962-6.7674-49.643-21.27-3.8239 6.406z" fill="#666"/><path d="m1214.6 245.37h-7.9116l-2.7648 69.116h7.576z" fill="#4d4d4d"/><path d="m1082.5 314.48h7.5761l-2.277-69.116h-7.9117z" fill="#1a1a1a"/><g transform="matrix(.79246 0 0 .79246 223.82 64.043)" fill="#b3b3b3"><path d="m1357 349.17-4.2131-7.0863-51.103 29.99 4.3784 7.4339z"/><path d="m1365.7 265.17-4.4009-7.3432-53.016 27.259 4.5817 7.7175z"/><path d="m1298.4 384.06-4.403-7.4863-56.856 33.366 4.5831 7.8752z"/><path d="m1304.9 296.97-4.6086-7.7739-59.272 30.476 4.8065 8.1945z"/><path d="m1233.2 422.9-4.61-7.934-63.638 37.346 4.8073 8.3721z"/><path d="m1236.9 332.53-4.8361-8.2582-66.705 34.298 5.0535 8.7343z"/></g><path d="m1093.8 321.02-3.8251 6.5443 53.292 27.557 3.9964-6.9216z" fill="#333"/><path d="m1200.2 321.02 4.2132-2.8843-53.007 27.215-4.0678 2.8491z" fill="#0f1003"/><path d="m1089.7 318.13 4.1387 2.8843 53.464 27.18-3.9848-2.8491z" fill="#111203"/><path d="m1143.2 420.28h7.6583l0.4207-65.16h-8.0011z" fill="#4d4d4d"/><path d="m1087.4 248.64 4.0218-6.8223-3.6044 3.5454z" fill="#2d3008"/><path d="m1151.3 355.12-4.0047-6.9216-3.9964 6.9216z" fill="#999"/><g transform="matrix(.79246 0 0 .79246 223.82 64.043)" fill="#b3b3b3"><path d="m1088.3 173.57-4.4268-7.6186-69.662 23.879 4.6064 8.0225z"/><path d="m1295.8 148.55-4.3177-7.2042-55.847 21.383 4.4908 7.5643z"/><path d="m1164.1 138.46 4.2144 7.1556 56.03-19.582-4.0622-6.8324z"/><path d="m1093.3 162.73 4.4023 7.5643 62.214-21.743-4.237-7.2042z"/><path d="m1231.7 173.57-4.5166-7.6186-62.367 23.88 4.7056 8.0225z"/><path d="m1085.3 220.27 4.9409 8.5397 69.893-27.296-4.7339-8.0836z"/><path d="m1370.5 165.94-55.063 23.875 4.8126 8.0312 54.875-24.281-4.625-7.625z"/><path d="m1245.2 220.27 5.0527 8.5397 61.682-27.296-4.8344-8.0836z"/><path d="m1165.7 254.73 5.3264 9.128 69.842-30.907-5.0853-8.609z"/></g><path d="m1143.4 273.14 4.2119-7.2336-56.206-24.082-4.0218 6.8223z" fill="#666"/><path d="m1143.3 345.35h8.0526l0.4665-72.212h-8.4329z" fill="#4d4d4d"/><g transform="matrix(.79246 0 0 .79246 223.82 64.043)" fill="#ccc"><path d="m1159.9 145.61h8.4218l-4.2144-7.1556z"/><path d="m1160.1 197.85h9.4024l-4.7057-8.0225z"/><path d="m1240.1 170.29-4.4908-7.5643-4.3944 7.5643z"/><path d="m1097.7 170.29-4.4023-7.5643-4.4828 7.5643z"/><path d="m1320.2 197.85-4.8048-8.0225-4.5975 8.0225z"/><path d="m1014.3 189.83-4.7959 8.0225h9.4023z"/><path d="m1240.3 228.81h9.9835l-5.0527-8.5397z"/><path d="m1090.3 228.81-4.9409-8.5397-5.0427 8.5397z"/><path d="m1171.1 263.85-5.3264-9.128-5.315 9.128z"/></g><g transform="matrix(.79246 0 0 .79246 223.82 64.043)" fill="#ff0"><path transform="translate(740)" d="m424.12 138.46 56.182-19.258-56.693-17.649-56.204 17.649z"/><path transform="translate(740)" d="m495.6 162.73 55.847-21.383-62.659-19.506-56.16 19.506z"/><path transform="translate(740)" d="m353.3 162.73 62.379-21.383-56.7-19.506-62.119 19.506z"/><path transform="translate(740)" d="m575.4 189.83 55.072-23.88-69.619-21.673-55.777 21.673z"/><path transform="translate(740)" d="m274.25 189.83 69.662-23.879-56.377-21.673-69.019 21.673z"/><path transform="translate(740)" d="m424.83 189.83 62.367-23.88-62.998-21.673-62.398 21.673z"/><path transform="translate(740)" d="m505.19 220.27 61.901-26.84-70.408-24.222-62.337 24.222z"/><path transform="translate(740)" d="m345.31 220.27 70.1-26.84-63.008-24.222-69.737 24.222z"/><path transform="translate(740)" d="m425.73 254.73 70.083-30.388-70.882-27.248-70.127 27.248z"/></g><g transform="matrix(.79246 0 0 .79246 223.82 64.043)" fill="#00e400"><path transform="translate(740)" d="m617.03 349.17-50.938 30.338-5.4328 69.911 49.383-32.271z"/><path transform="translate(740)" d="m625.66 265.17-52.836 27.634-5.9285 76.289 51.168-30.031z"/><path transform="translate(740)" d="m558.44 384.06-56.676 33.755-3.2387 72.202 54.729-35.765z"/><path transform="translate(740)" d="m635.08 173.57-54.874 24.283-6.4952 83.582 53.082-27.254z"/><path transform="translate(740)" d="m564.87 296.97-59.074 30.897-3.5516 79.178 56.964-33.434z"/><path transform="translate(740)" d="m493.22 422.9-63.44 37.784-0.48169 74.568 60.994-39.859z"/><path transform="translate(740)" d="m571.92 201.51-61.683 27.296-3.9122 87.216 59.388-30.491z"/><path transform="translate(740)" d="m496.87 332.53-66.488 34.774-0.53101 82.225 63.805-37.449z"/><path transform="translate(740)" d="m500.9 232.95-69.842 30.907-0.58859 91.124 66.889-34.342z"/></g><g transform="matrix(.79246 0 0 .79246 223.82 64.043)" fill="#a00"><path transform="translate(740)" d="m237.46 417.14 49.898 32.271-4.9751-69.911-51.492-30.338z"/><path transform="translate(740)" d="m229.92 339.07 51.728 30.031-5.429-76.289-53.44-27.634z"/><path transform="translate(740)" d="m294.84 454.25 55.3 35.765-2.7292-72.202-57.292-33.755z"/><path transform="translate(740)" d="m221.71 254.18 53.693 27.254-5.948-83.582-55.536-24.283z"/><path transform="translate(740)" d="m289.42 373.61 57.588 33.434-2.9929-79.178-59.751-30.897z"/><path transform="translate(740)" d="m358.46 495.4 61.63 39.859 0.089-74.568-64.131-37.784z"/><path transform="translate(740)" d="m283.49 285.54 60.072 30.491-3.2967-87.216-62.427-27.296z"/><path transform="translate(740)" d="m355.69 412.08 64.504 37.449 0.0982-82.225-67.249-34.774z"/><path transform="translate(740)" d="m352.64 320.64 67.659 34.342 0.10879-91.124-70.685-30.907z"/></g><g opacity=".6"><path d="m1298.3 342.33-42.885 76.266 37.568-24.551z" fill="url(#k)"/><path d="m1305.1 275.83-44.706 79.061 38.927-22.847z" fill="url(#l)"/><path d="m1251.8 370.08-45.581 80.609 41.636-27.209z" fill="url(#m)"/><path d="m1312.5 203.3-46.687 82.06 40.383-20.734z" fill="url(#n)"/><path d="m1256.9 301.12-47.644 83.741 43.336-25.435z" fill="url(#o)"/><path d="m1200.1 400.96-48.63 85.474 46.402-30.323z" fill="url(#p)"/><path d="m1262.4 225.55-49.902 87.117 45.18-23.197z" fill="url(#q)"/><path d="m1202.9 329.42-50.985 89.008 48.541-28.49z" fill="url(#r)"/><path d="m1206.1 250.58-53.581 92.837 50.886-26.127z" fill="url(#s)"/></g><g><path d="m1189.1 159.38-43.13-13.426-42.758 13.426z" fill="url(#b)"/><path d="m1245.4 177.03-47.669-14.839-42.724 14.839z" fill="url(#c)"/><path d="m1137.8 177.04-43.135-14.839-47.258 14.839z" fill="url(#d)"/><path d="m1307.9 196.64-52.964-16.488-42.433 16.488z" fill="url(#e)"/><path d="m1080.8 196.66-42.89-16.488-52.507 16.488z" fill="url(#f)"/><path d="m1194.3 196.65-47.927-16.488-47.47 16.488z" fill="url(#g)"/><path d="m1257.5 218.57-53.564-18.427-47.424 18.427z" fill="url(#h)"/><path d="m1137.3 218.58-47.934-18.427-53.053 18.427z" fill="url(#i)"/><path d="m1200.9 243.24-53.924-20.729-53.35 20.729z" fill="url(#j)"/></g><g transform="matrix(.79246 0 0 .79246 -156.18 64.043)"><g transform="translate(479.52)" fill="#960000"><path transform="translate(740)" d="m237.46 417.14 49.898 32.271-56.468-100.25z"/><path transform="translate(740)" d="m229.92 339.07 51.728 30.031-58.869-103.92z"/><path transform="translate(740)" d="m294.84 454.25 55.3 35.765-60.022-105.96z"/><path transform="translate(740)" d="m221.71 254.18 53.693 27.254-61.484-107.87z"/><path transform="translate(740)" d="m289.42 373.61 57.588 33.434-62.743-110.07z"/><path transform="translate(740)" d="m358.46 495.4 61.63 39.859-64.042-112.35z"/><path transform="translate(740)" d="m283.49 285.54 60.072 30.491-65.724-114.51z"/><path transform="translate(740)" d="m355.69 412.08 64.504 37.449-67.151-117z"/><path transform="translate(740)" d="m352.64 320.64 67.659 34.342-70.576-122.03z"/></g></g></g></svg>
