<svg xmlns="http://www.w3.org/2000/svg" xmlns:xlink="http://www.w3.org/1999/xlink" width="256" height="220"><defs><linearGradient id="a"><stop offset="0" stop-color="#1a1a1a" stop-opacity="0"/><stop offset="1" stop-color="#1a1a1a" stop-opacity=".461"/></linearGradient><filter color-interpolation-filters="sRGB" id="d"><feGaussianBlur stdDeviation=".179"/></filter><filter color-interpolation-filters="sRGB" id="e"><feGaussianBlur stdDeviation="1.252"/></filter><filter color-interpolation-filters="sRGB" id="f"><feGaussianBlur stdDeviation=".589"/></filter><filter color-interpolation-filters="sRGB" id="g"><feGaussianBlur stdDeviation=".511"/></filter><filter id="c"><feGaussianBlur stdDeviation="3.903"/></filter><linearGradient xlink:href="#a" id="b" gradientUnits="userSpaceOnUse" gradientTransform="translate(-16.07 589.232)" x1="120.102" y1="-696.9" x2="777.469" y2="-334.151"/></defs><path d="M615.085 37.163c-17.324 5.323-35.486 8.588-52.246 15.303-5.89 5.935-18.067 1.83-26.402 6.643-13.608 4.31-28.063 6.57-41.083 12.31-6.313 5.576-18.79 2.18-27.514 6.93-13.047 3.996-26.633 6.51-39.305 11.535-8.361 9.835-10.278 21.523-.524 32.445 7.338 10.448 11.563 23.653 21.676 31.687 1.78 5.768 5.36 16.183 10.915 23.277 7.647 10.403 11.258 24.878 23.278 31.075-3.557 8.829 6.152 16.067 9.323 23.858 8.01 11.3 12.048 27.742 27.33 31.155 17.654 6.153 34.844 13.891 52.818 18.954 9.574 1.03 18.015 8.434 28.05 10.73 15.399 5.05 30.111 12.87 46.098 15.593 8.048 3.268 17.046 8.25 26.187 10.954 15.433 4.848 30.05 13.289 46.182 15.148 11.918-2.08 24.99.826 35.698-7.46 11.15-6.339 23.533-10.808 33.818-18.453 5.262-5.415 18.396-5.49 26.263-11.917 10.146-5.804 21.496-9.786 30.782-16.892 5.214-5.455 18.255-5.6 26.074-11.976 10.267-6.03 22.4-9.799 30.942-17.728 1.35-10.9-5.891-21.595-8.673-32.489-1.721-9.328-8.982-20.093-12.086-24.581 2.951-8.622-4.084-17.18-5.885-25.701-4.959-10.423-4.868-24.919-16.493-30.498 6.69-7.08-1.698-16.305-3.08-24.185-4.632-10.383-5.543-23.043-13.672-31.327-10.65-6.943-20.243-16.215-34.423-15.934-16.205-1.933-32.288-6.242-48.59-6.375-8.7-2.394-18.662-4.84-28.28-5.874-15.113-1.505-30.205-6.67-45.361-5.035-14.712-6.697-31.602-6.318-47.332-9.65-8.117-.97-16.316-3.631-24.485-1.522z" transform="matrix(.47909 0 0 .47909 -197.424 51.32)" fill="url(#b)" filter="url(#c)"/><path d="M156.483 5.202l-25.079 7.457a7.695 7.695 0 0 0-4.518 3.597l-.689-.265a7.767 7.767 0 0 0-4.824-.152l-25.614 7.647a7.691 7.691 0 0 0-4.442 3.596l-.383-.152a7.776 7.776 0 0 0-5.168-.264L60.15 34.312c-3.105.936-5.408 4.02-5.398 7.23-2.948 1.277-4.869 4.56-4.518 7.723l2.948 26.46a7.6 7.6 0 0 0 2.757 4.997 7.57 7.57 0 0 0-1.723 5.602l2.986 26.46a7.598 7.598 0 0 0 2.719 4.96 7.568 7.568 0 0 0-1.685 5.602l2.948 26.498c.236 2.077 1.39 4.035 3.101 5.262l20.216 14.574a7.764 7.764 0 0 0 5.169 1.4 7.601 7.601 0 0 0 2.833 3.975l20.178 14.574a7.764 7.764 0 0 0 5.169 1.4 7.601 7.601 0 0 0 2.833 4.013l20.216 14.574c2.493 1.794 6.12 1.873 8.69.19 2.329 1.64 5.618 1.823 8.118.453l23.317-12.946a7.637 7.637 0 0 0 3.522-4.277 7.793 7.793 0 0 0 5.858-.644l23.317-12.946a7.637 7.637 0 0 0 3.523-4.278 7.79 7.79 0 0 0 5.781-.681l21.977-12.227-.038-.038c1.328-.62 2.706-1.49 3.79-3.066 1.144-1.662 1.453-3.573 1.455-5.3h.115l1.531-27.217c.115-2.17-.776-4.374-2.373-5.867 1.649-1.31 2.704-3.326 2.833-5.414l1.608-28.731c.116-2.189-.791-4.41-2.412-5.905 1.649-1.31 2.704-3.326 2.833-5.414l1.646-28.731c.146-2.905-1.579-5.82-4.211-7.117a7.538 7.538 0 0 0-1.368-4.693 7.683 7.683 0 0 0-3.992-2.878l-22.513-6.965a7.763 7.763 0 0 0-4.633.038 7.683 7.683 0 0 0-4.059-2.99l-22.513-7.004a7.765 7.765 0 0 0-4.709.038 7.682 7.682 0 0 0-4.02-2.952l-21.9-6.814c-1.898-.664-3.73-.421-5.59-.038z" fill="#1a1a1a"/><path d="M378.656-200.219a.48.48 0 0 0-.062.031l-.75.22a.48.48 0 0 0-.031.905l22.093 8.094a.48.48 0 0 0 .313 0l.719-.25a.48.48 0 0 0 0-.906l-22.063-8.063a.48.48 0 0 0-.219-.03zm72 7.313a.48.48 0 0 0-.031.031L425.562-183a.48.48 0 0 0-.156-.094l-22.062-8.062a.48.48 0 0 0-.281 0l-.72.219a.48.48 0 0 0-.062.906l22.063 8.125a.48.48 0 0 0 .375 0l.594-.219a.48.48 0 0 0 .156.063l.812.25a.48.48 0 0 0 .344 0l.906-.313-.75.281a.48.48 0 0 0 .031.907l22 8.093a.48.48 0 0 0 .313 0l.812-.312a.48.48 0 0 0-.03-.906l-22.063-8.063a.48.48 0 0 0-.188-.031l24.469-9.438a.48.48 0 0 0-.031-.906l-1.156-.375a.48.48 0 0 0-.22-.031.48.48 0 0 0-.062 0zm-100.031 1.187a.48.48 0 0 0-.031.031.48.48 0 0 0-.031.032l-1.063.281a.48.48 0 0 0-.063.906l22.094 9.188a.48.48 0 0 0 .344 0l.875-.313a.48.48 0 0 0 .031-.906l-21.906-9.156a.48.48 0 0 0-.25-.063zm72 9.719a.48.48 0 0 0-.031.031l-25.5 9.813a.48.48 0 0 0-.156.062.48.48 0 0 0-.25-.312l-21.5-9.032a.48.48 0 0 0-.344 0l-.906.344a.48.48 0 0 0-.032.906l21.5 9a.48.48 0 0 0 .344 0l.906-.312a.48.48 0 0 0 .188-.063.48.48 0 0 0 .25.313l.812.312a.48.48 0 0 0 .375 0l25.5-9.843a.48.48 0 0 0 0-.907l-.812-.28a.48.48 0 0 0-.25-.032.48.48 0 0 0-.094 0zm-28.313 10.781a.48.48 0 0 0-.093.031l-25.531 9.782a.48.48 0 0 0 0 .906l.906.406a.48.48 0 0 0 .375 0l25.5-9.812a.48.48 0 0 0 0-.907l-.875-.375a.48.48 0 0 0-.281-.03zm4.97 0a.48.48 0 0 0-.094.031l-.875.375a.48.48 0 0 0 0 .907l21.937 9.187a.48.48 0 0 0 .375 0l.844-.375a.48.48 0 0 0 0-.906l-21.938-9.188a.48.48 0 0 0-.25-.03z" transform="translate(-352.507 271.09) scale(1.27344)" opacity=".72" fill="#fff" filter="url(#d)"/><path d="M159.587 4.538c-.394.01-.742.039-.742.039-.186.037-.369.09-.547.156l-22.374 6.755c-1.42.423-4.994 1.813-5.045 3.294-.052 1.48 3.423 2.942 4.81 3.462l19.954 7.34a3.6 3.6 0 0 0 2.421 0l23-7.926c1.394-.497 4.891-1.94 4.865-3.42-.025-1.48-3.572-2.887-4.983-3.335l-19.563-6.13c-.942-.297-1.402-.245-1.796-.235zm31.707 10.191a3.57 3.57 0 0 0-.82.196l-23 7.887c-1.377.483-4.878 1.885-4.886 3.345-.009 1.46 3.475 2.874 4.848 3.372l19.992 7.302a3.601 3.601 0 0 0 2.5-.04l23.077-8.863c1.36-.536 4.805-1.98 4.754-3.441-.05-1.461-3.595-2.835-4.988-3.276L192.7 14.886a3.577 3.577 0 0 0-1.406-.157zm-68.022.938c-.278.02-.554.072-.82.156L99.61 22.695c-1.38.43-4.923 1.773-4.999 3.217-.076 1.443 3.32 2.888 4.648 3.46l19.836 8.318c.799.333 1.72.361 2.538.078l23-7.888c1.377-.482 4.878-1.884 4.886-3.344.009-1.46-3.475-2.874-4.847-3.372l-19.993-7.302a3.577 3.577 0 0 0-1.406-.195zm99.846 9.371a3.57 3.57 0 0 0-.937.234l-23.077 8.903c-1.344.521-4.792 1.925-4.775 3.366.016 1.441 3.497 2.822 4.853 3.312l19.953 7.302c.84.303 1.796.274 2.617-.078l23.233-9.88c1.327-.572 4.723-2.017 4.647-3.46-.076-1.444-3.618-2.787-4.998-3.217l-20.11-6.326a3.577 3.577 0 0 0-1.406-.156zM86.801 26.912a3.568 3.568 0 0 0-.625.157L63.294 33.94c-1.372.41-4.926 1.717-5.035 3.145-.109 1.427 3.234 2.88 4.528 3.493l19.719 9.333a3.607 3.607 0 0 0 2.694.117l23-7.927c1.34-.479 4.82-1.829 4.863-3.252.042-1.424-3.358-2.829-4.668-3.386l-19.837-8.278a3.583 3.583 0 0 0-1.757-.274zm68.178.664a3.571 3.571 0 0 0-1.015.196l-22.96 7.887c-1.341.48-4.822 1.83-4.863 3.253-.042 1.423 3.357 2.828 4.667 3.385l19.837 8.318c.837.35 1.809.364 2.655.039l23.078-8.903c1.343-.521 4.792-1.925 4.775-3.366-.017-1.44-3.498-2.822-4.853-3.311l-19.954-7.302a3.576 3.576 0 0 0-1.367-.196zm31.668 11.871a3.574 3.574 0 0 0-1.132.234l-23.117 8.903c-1.307.517-4.736 1.868-4.753 3.274-.017 1.405 3.381 2.778 4.675 3.325l19.876 8.318a3.61 3.61 0 0 0 2.772 0l23.195-9.919c1.31-.557 4.71-1.962 4.668-3.385-.042-1.424-3.522-2.774-4.863-3.253l-19.954-7.302a3.576 3.576 0 0 0-1.367-.195zm-68.373.937a3.57 3.57 0 0 0-.82.195l-22.96 7.888c-1.333.459-4.823 1.774-4.898 3.181-.075 1.408 3.27 2.82 4.546 3.418l19.72 9.294a3.61 3.61 0 0 0 2.811.078l23.077-8.864c1.307-.517 4.737-1.868 4.754-3.274.017-1.405-3.381-2.778-4.675-3.325l-19.837-8.318a3.583 3.583 0 0 0-1.718-.273zm31.473 13.472a3.57 3.57 0 0 0-.937.234l-23.078 8.903c-1.298.497-4.738 1.813-4.788 3.202-.05 1.39 3.294 2.77 4.554 3.358l19.72 9.333c.91.425 2.005.44 2.928.039l23.194-9.919c1.274-.551 4.657-1.904 4.648-3.293-.008-1.388-3.406-2.73-4.687-3.267l-19.836-8.317a3.583 3.583 0 0 0-1.718-.273z" fill="#ff0"/><path d="M934.302-27.365a7.205 7.205 0 0 0-2.243.581L885.128-6.849a7.205 7.205 0 0 0-4.32 6.48l-.083 2.408a7.584 7.584 0 0 1 3.738-3.488l49.34-21.016a7.584 7.584 0 0 1 2.41-.581 7.584 7.584 0 0 1 5.73 2.077 7.205 7.205 0 0 0-7.641-6.396zm-77.333 33.64a7.205 7.205 0 0 0-.83.084 7.205 7.205 0 0 0-2.077.581L807.213 26.96a7.205 7.205 0 0 0-4.402 6.728v2.076a7.584 7.584 0 0 1 3.655-3.405l49.34-21.099a7.584 7.584 0 0 1 2.16-.581 7.584 7.584 0 0 1 6.146 2.16 7.205 7.205 0 0 0-7.143-6.562zM777.726 40.25a7.205 7.205 0 0 0-1.91.498L728.883 60.85a7.205 7.205 0 0 0-4.32 6.811l.084 1.661a7.584 7.584 0 0 1 3.488-3.156l49.424-21.098a7.584 7.584 0 0 1 2.74-.582 7.584 7.584 0 0 1 5.483 2.077 7.205 7.205 0 0 0-7.393-6.313 7.205 7.205 0 0 0-.664 0zm152.34 20.268a7.205 7.205 0 0 0-2.576.664l-45.353 21.181a7.205 7.205 0 0 0-4.07 6.396l-.083 2.41a7.584 7.584 0 0 1 3.489-3.323L929.235 65.5a7.584 7.584 0 0 1 2.658-.664 7.584 7.584 0 0 1 5.814 2.16 7.205 7.205 0 0 0-7.642-6.48zM855.224 96.4a7.205 7.205 0 0 0-.748.083 7.205 7.205 0 0 0-2.243.582l-45.353 21.181a7.205 7.205 0 0 0-4.07 6.645v1.994a7.584 7.584 0 0 1 3.406-3.24l47.679-22.26a7.584 7.584 0 0 1 2.408-.665 7.584 7.584 0 0 1 6.147 2.16 7.205 7.205 0 0 0-7.226-6.48zm-75.755 35.884a7.205 7.205 0 0 0-2.824.665l-45.353 21.18a7.205 7.205 0 0 0-4.07 6.812l.083 1.661a7.584 7.584 0 0 1 3.322-3.073l47.68-22.344a7.584 7.584 0 0 1 2.99-.665 7.584 7.584 0 0 1 5.482 2.16 7.205 7.205 0 0 0-7.31-6.396zm146.94 16.198a7.205 7.205 0 0 0-.747.083 7.205 7.205 0 0 0-2.741.747L879.23 171.74a7.205 7.205 0 0 0-3.904 6.23l-.083 2.74a7.584 7.584 0 0 1 3.323-3.488l46.017-23.59a7.584 7.584 0 0 1 2.907-.831 7.584 7.584 0 0 1 5.815 2.16 7.205 7.205 0 0 0-6.894-6.48zm-73.511 37.96a7.205 7.205 0 0 0-2.575.83l-43.609 22.345a7.205 7.205 0 0 0-3.904 6.479v2.326a7.584 7.584 0 0 1 3.24-3.323l45.934-23.59a7.584 7.584 0 0 1 2.658-.83 7.584 7.584 0 0 1 6.23 2.242 7.205 7.205 0 0 0-7.974-6.48zm-72.35 37.877a7.205 7.205 0 0 0-3.073.83l-43.691 22.428a7.205 7.205 0 0 0-3.904 6.645l.083 1.91a7.584 7.584 0 0 1 3.156-3.156l46.018-23.59a7.584 7.584 0 0 1 3.24-.83 7.584 7.584 0 0 1 5.565 2.16 7.205 7.205 0 0 0-7.393-6.397z" transform="matrix(.47909 0 0 .47909 -197.424 51.32)" opacity=".621" fill="#fff" filter="url(#e)"/><path d="M250.786 42.189a3.633 3.633 0 0 0-1.154.278l-23.639 10.068a3.633 3.633 0 0 0-2.188 3.263l-.677 27.061a3.633 3.633 0 0 0 5.174 3.383l22.842-10.705a3.633 3.633 0 0 0 2.07-3.104l1.472-26.424a3.633 3.633 0 0 0-3.9-3.82zm-37.487 16.156a3.633 3.633 0 0 0-1.035.279l-23.638 10.108a3.633 3.633 0 0 0-2.189 3.382l.16 27.658a3.633 3.633 0 0 0 5.173 3.263l22.842-10.705a3.633 3.633 0 0 0 2.07-3.223l.636-27.06a3.633 3.633 0 0 0-4.02-3.702zM176.09 74.542a3.633 3.633 0 0 0-1.313.279L151.1 84.928a3.633 3.633 0 0 0-2.189 3.463l.995 28.254a3.633 3.633 0 0 0 5.174 3.184l22.842-10.705a3.633 3.633 0 0 0 2.07-3.343l-.16-27.657a3.633 3.633 0 0 0-3.74-3.582zm72.626 9.75a3.633 3.633 0 0 0-1.273.318L224.56 95.315a3.633 3.633 0 0 0-2.07 3.223l-.636 27.061a3.633 3.633 0 0 0 5.292 3.303l22.047-11.302a3.633 3.633 0 0 0 1.95-3.024l1.472-26.464a3.633 3.633 0 0 0-3.9-3.82zm-36.213 17.191a3.633 3.633 0 0 0-1.154.319l-22.843 10.665a3.633 3.633 0 0 0-2.069 3.342l.16 27.658a3.633 3.633 0 0 0 5.292 3.184l22.047-11.302a3.633 3.633 0 0 0 1.95-3.144l.636-27.02a3.633 3.633 0 0 0-4.02-3.702zm-35.935 17.152a3.633 3.633 0 0 0-1.433.318l-22.842 10.705a3.633 3.633 0 0 0-2.07 3.422l.996 28.255a3.633 3.633 0 0 0 5.292 3.104l22.007-11.302a3.633 3.633 0 0 0 1.95-3.263l-.16-27.658a3.633 3.633 0 0 0-3.74-3.581zm70.04 7.8a3.633 3.633 0 0 0-1.394.398l-22.046 11.301a3.633 3.633 0 0 0-1.95 3.144l-.637 27.06a3.633 3.633 0 0 0 5.412 3.264l19.978-11.222v-.04c.847-.372 1.718-.921 2.347-1.87.657-.99.798-2.124.757-3.184h.04l1.392-25.031a3.633 3.633 0 0 0-3.9-3.82zm-34.901 18.146a3.633 3.633 0 0 0-1.273.398l-22.007 11.302a3.633 3.633 0 0 0-1.95 3.263l.16 27.658a3.633 3.633 0 0 0 5.411 3.144l21.211-11.9a3.633 3.633 0 0 0 1.83-3.103l.637-27.06a3.633 3.633 0 0 0-4.019-3.702zm-34.622 18.147a3.633 3.633 0 0 0-1.552.398l-22.046 11.302a3.633 3.633 0 0 0-1.95 3.342l.995 28.255a3.633 3.633 0 0 0 5.412 3.064l21.21-11.899a3.633 3.633 0 0 0 1.831-3.223l-.159-27.658a3.633 3.633 0 0 0-3.74-3.581z" fill="#d00b0b"/><path d="M531.108-22.88a7.205 7.205 0 0 0-.665.083 7.205 7.205 0 0 0-6.81 6.728 7.584 7.584 0 0 1 5.648-2.99 7.584 7.584 0 0 1 3.654.665l41.948 19.852a7.584 7.584 0 0 1 3.156 2.658l-.166-1.495a7.205 7.205 0 0 0-4.07-5.98l-39.87-18.856a7.205 7.205 0 0 0-2.825-.665zm65.62 32.395a7.205 7.205 0 0 0-6.81 6.728 7.584 7.584 0 0 1 5.648-2.99 7.584 7.584 0 0 1 3.655.665l41.947 19.769a7.584 7.584 0 0 1 3.073 2.658l-.083-1.246a7.205 7.205 0 0 0-4.153-6.147L600.217 10.18a7.205 7.205 0 0 0-3.488-.665zm66.12 32.312a7.205 7.205 0 0 0-6.728 6.728 7.584 7.584 0 0 1 5.648-3.073 7.584 7.584 0 0 1 3.655.664l41.947 19.77a7.584 7.584 0 0 1 2.908 2.409v-.748a7.205 7.205 0 0 0-4.07-6.313l-39.871-18.772a7.205 7.205 0 0 0-3.49-.665zM538.667 58.69a7.205 7.205 0 0 0-6.48 6.645 7.584 7.584 0 0 1 5.317-2.907 7.584 7.584 0 0 1 4.402.914l40.785 22.51a7.584 7.584 0 0 1 2.741 2.409l-.166-1.495a7.205 7.205 0 0 0-3.655-5.815L542.82 59.603a7.205 7.205 0 0 0-4.153-.914zm64.375 36.715a7.205 7.205 0 0 0-6.48 6.645 7.584 7.584 0 0 1 5.317-2.99 7.584 7.584 0 0 1 4.402.913l40.785 22.51a7.584 7.584 0 0 1 2.658 2.492l-.083-1.412a7.205 7.205 0 0 0-3.738-5.897l-38.708-21.348a7.205 7.205 0 0 0-4.153-.913zm64.291 36.63a7.205 7.205 0 0 0-6.479 6.646 7.584 7.584 0 0 1 5.4-3.073 7.584 7.584 0 0 1 4.402.913l40.784 22.51a7.584 7.584 0 0 1 2.575 2.493v-1.163a7.205 7.205 0 0 0-3.737-6.064L671.57 132.95a7.205 7.205 0 0 0-4.237-.914zm-119.612 8.224a7.205 7.205 0 0 0-6.895 6.728 7.584 7.584 0 0 1 5.815-3.073 7.584 7.584 0 0 1 4.32 1.163l39.538 25.251a7.584 7.584 0 0 1 2.409 2.492l-.166-1.91a7.205 7.205 0 0 0-3.323-5.565l-37.545-23.923a7.205 7.205 0 0 0-4.153-1.163zm62.381 40.95a7.205 7.205 0 0 0-6.977 6.73 7.584 7.584 0 0 1 5.897-3.157 7.584 7.584 0 0 1 4.32 1.163l39.621 25.251a7.584 7.584 0 0 1 2.243 2.243l-.083-1.412a7.205 7.205 0 0 0-3.24-5.732l-37.71-24.005a7.205 7.205 0 0 0-4.071-1.08zm62.464 41.035a7.205 7.205 0 0 0-6.894 6.562 7.584 7.584 0 0 1 5.815-3.074 7.584 7.584 0 0 1 4.319 1.163l39.621 25.252a7.584 7.584 0 0 1 2.243 2.242l-.083-1.245a7.205 7.205 0 0 0-3.322-5.815l-37.629-24.006a7.205 7.205 0 0 0-4.07-1.08z" transform="matrix(.47909 0 0 .47909 -197.424 51.32)" opacity=".593" fill="#fff" filter="url(#f)"/><path d="M320.906-178a2.853 2.853 0 0 0-2.687 3.156l2.125 19.125a2.853 2.853 0 0 0 1.469 2.188l15.312 8.469a2.853 2.853 0 0 0 4.219-2.72l-1.656-20.124a2.853 2.853 0 0 0-1.625-2.375l-15.782-7.469a2.853 2.853 0 0 0-1.375-.25zm24.938 12.156a2.853 2.853 0 0 0-2.688 3.063l1.656 20.125a2.853 2.853 0 0 0 1.47 2.281l15.343 8.5a2.853 2.853 0 0 0 4.219-2.656l-1.219-21.188a2.853 2.853 0 0 0-1.625-2.437l-15.781-7.438a2.853 2.853 0 0 0-1.375-.25zm24.906 12.125a2.853 2.853 0 0 0-2.688 3l1.22 21.156a2.853 2.853 0 0 0 1.468 2.344l15.344 8.5a2.853 2.853 0 0 0 4.219-2.594l-.782-22.218a2.853 2.853 0 0 0-1.625-2.5l-15.781-7.438a2.853 2.853 0 0 0-1.375-.25zM324-147.344a2.853 2.853 0 0 0-2.563 3.156l2.125 19.125a2.853 2.853 0 0 0 1.313 2.094l14.875 9.5a2.853 2.853 0 0 0 4.375-2.625l-1.656-20.156a2.853 2.853 0 0 0-1.469-2.281L325.656-147a2.853 2.853 0 0 0-1.656-.344zm24.219 13.781a2.853 2.853 0 0 0-2.563 3.063l1.656 20.125a2.853 2.853 0 0 0 1.313 2.188l14.906 9.5a2.853 2.853 0 0 0 4.375-2.563l-1.219-21.156a2.853 2.853 0 0 0-1.468-2.344l-15.344-8.469a2.853 2.853 0 0 0-1.656-.344zm24.219 13.75a2.853 2.853 0 0 0-2.563 3l1.219 21.157a2.853 2.853 0 0 0 1.312 2.25l14.875 9.5a2.853 2.853 0 0 0 4.375-2.5l-.75-22.188a2.853 2.853 0 0 0-1.469-2.406l-15.343-8.469a2.853 2.853 0 0 0-1.656-.344zm-45 3.126a2.853 2.853 0 0 0-2.75 3.156l2.093 19.125a2.853 2.853 0 0 0 1.156 2l14.438 10.531a2.853 2.853 0 0 0 4.531-2.531l-1.656-20.156a2.853 2.853 0 0 0-1.313-2.188l-14.875-9.5a2.853 2.853 0 0 0-1.625-.438zm23.468 15.374a2.853 2.853 0 0 0-2.75 3.094l1.688 20.156A2.853 2.853 0 0 0 351-76l14.438 10.531a2.853 2.853 0 0 0 4.53-2.469l-1.218-21.187a2.853 2.853 0 0 0-1.313-2.25l-14.906-9.5a2.853 2.853 0 0 0-1.625-.438zm23.5 15.407a2.853 2.853 0 0 0-2.75 3l1.219 21.156a2.853 2.853 0 0 0 1.156 2.156l14.438 10.532A2.853 2.853 0 0 0 393-51.47l-.75-22.187a2.853 2.853 0 0 0-1.313-2.313l-14.906-9.5a2.853 2.853 0 0 0-1.625-.437z" transform="translate(-352.507 271.09) scale(1.27344)" fill="#000084" filter="url(#g)"/></svg>