<svg viewBox="0 0 248 248" xmlns="http://www.w3.org/2000/svg" xmlns:xlink="http://www.w3.org/1999/xlink"><defs><linearGradient id="a"><stop stop-color="#ebebeb" offset="0"/><stop stop-color="#979797" offset="1"/></linearGradient><radialGradient id="b" cx="246.83" cy="272" r="34.608" gradientUnits="userSpaceOnUse"><stop offset="0"/><stop stop-opacity="0" offset="1"/></radialGradient><linearGradient id="c" x1="836.68" x2="871.01" y1="261.15" y2="100.19" gradientUnits="userSpaceOnUse" xlink:href="#a"/><linearGradient id="d" x1="1072.6" x2="687.27" y1="167.75" y2="503.48" gradientUnits="userSpaceOnUse" xlink:href="#a"/><linearGradient id="e" x1="822.93" x2="1047.4" y1="340.43" y2="473.05" gradientUnits="userSpaceOnUse" xlink:href="#a"/></defs><path transform="matrix(3.5997 0 0 1.9513 -763.321 -350.625)" d="M281.44 272a34.608 34.608 0 1 1-69.216 0 34.608 34.608 0 1 1 69.216 0z" fill="url(#b)"/><g fill="#CCC"><path d="M124.98 23.48c-1.128.005-3.375.25-3.375.25l-12.5 4.344-12.844 4.437-13.125 4.531-13.5 4.688-13.875 4.781-14.219 4.938-14.625 5.062-4.125 2.906-1.469 1.813-.687 1.687-.907 5.25 1.438 16.375 1.406 16.031 1.406 15.75 1.344 15.438 1.344 15.156 1.312 14.875 1.282 14.562 1.593 3.844 1.875 2.625-1.5-3.906 1.532 3.906 10.219 6.688 10.562 6.875 10.812 7.062 11.156 7.25 11.469 7.469 11.812 7.719 12.188 7.937v-.03l3.312 1.718 3.813 1.062 4.343-.968 13.75-7.72 13.375-7.468 13.031-7.281 12.656-7.094 12.344-6.906 12.031-6.719 11.688-6.562 2.97-1.782 2.405-2.625 1.313-3.843.469-14.688.5-14.938.53-15.281.5-15.531.532-15.875.531-16.156.563-16.5-.313-2.407-1-4.562-1.875-1.844-3.812-2.969-13.312-5.125-12.97-5-12.561-4.844-12.25-4.75-11.875-4.562-11.594-4.469-11.25-4.375s-2.56-.255-3.844-.25zm-3.281 83l1.281 6.125h-.031l-1.25-6.125zm-13.66 80.79l1 26.344-.625-15.625-.375-10.719zm18.062 42.562l-.906 4.063-.032.03.938-4.093z"/><path d="M121.6 23.73l-12.5 4.344-12.844 4.437-13.125 4.531-13.5 4.688-13.875 4.781-14.219 4.938-14.625 5.062 3.219.219 14.625-5.094 14.28-4.937 13.876-4.844 13.53-4.688L99.6 32.605l12.844-4.469 12.53-4.344 3.845-.062-3.407.03-3.812-.03z"/><path d="M128.82 23.73l-3.844.062 11.281 4.375 11.562 4.47 11.906 4.624 12.25 4.75 12.562 4.875 12.97 5.031 13.343 5.157 3.781-.22-13.312-5.124-12.969-5-12.562-4.844-12.25-4.75-11.875-4.562-11.594-4.47-11.25-4.374z"/></g><path d="M31.22 178.91l-1.965-2.537 1.61 3.833 1.884 2.635z" fill="#333"/><path d="M859.56 279.4l-12.531 4.344-12.844 4.469-13.156 4.562-13.531 4.688-13.875 4.843-14.281 4.938-14.625 5.094 10.938 5.28 11.281 5.438 11.625 5.625 12 5.782 12.375 5.968 12.75 6.157 13.188 6.375 15.031-6.282 14.594-6.093 14.188-5.907 13.75-5.718 13.375-5.594 12.969-5.406 12.656-5.282-13.344-5.156-12.969-5.031-12.562-4.875-12.25-4.75-11.906-4.625-11.562-4.469-11.281-4.375z" fill="url(#c)" transform="translate(-734.58 -255.61)"/><path d="M19.73 68.17l1.437 16.375 1.407 16.031 1.406 15.75 1.344 15.438 1.343 15.156 1.313 14.875 1.281 14.562 1.969 2.562-1.281-14.656-1.313-14.906-1.312-15.219-1.344-15.5-1.375-15.812-1.406-16.125-1.438-16.438-2.03-2.093z" fill="#666"/><path d="M31.23 178.92l1.531 3.906 10.22 6.688 10.561 6.875 10.812 7.062 11.156 7.25 11.47 7.469 11.811 7.719 12.188 7.937-1.344-4.125-12.219-7.906-11.844-7.687-11.5-7.438-11.188-7.25-10.844-7.031-10.562-6.844-10.25-6.625z" fill="#4d4d4d"/><path d="M215.48 180.14l-1.19 3.94 2.4-2.624 1.308-3.84z" fill="#666"/><path d="M215.48 180.14l-11.75 6.531-12.094 6.719-12.406 6.906-12.75 7.094-13.094 7.25-13.438 7.5-13.844 7.688-.906 4.124 13.78-7.718-2.78 1.656 13.375-7.469 13.03-7.281 12.657-7.094 12.344-6.906 12.03-6.719 11.689-6.562 2.968-1.782 1.188-3.937z" fill="gray"/><path d="M756.34 325.87l1.438 16.438 1.406 16.125 1.375 15.812 1.344 15.5 1.312 15.219 1.313 14.906 1.28 14.656 10.25 6.625 10.563 6.844 10.844 7.031 11.188 7.25 11.5 7.438 11.844 7.687 12.219 7.906-.594-15.688-.625-16.03-.594-16.376-.656-16.688-.625-17.094-.656-17.438-.688-17.844-13.062-6.625-12.656-6.406-12.25-6.219-11.906-6.031-11.5-5.844-11.188-5.656-10.875-5.5z" fill="url(#d)" transform="translate(-734.58 -255.61)"/><path d="M221.63 68.64l-2.688 2.125-.53 16.562-.5 16.219-.5 15.906-.5 15.625-.5 15.312-.47 15.031-.468 14.719 2.531-2.531.469-14.688.5-14.938.531-15.281.5-15.531.531-15.875.531-16.156.563-16.5z" fill="gray"/><path d="M953.53 326.37l-12.562 5.469-12.906 5.625-13.281 5.812-13.688 5.938-14.094 6.156-14.5 6.313-14.938 6.53.469 17.845.469 17.469.437 17.094.469 16.719.437 16.375.407 16.03.437 15.689 13.844-7.688 13.438-7.5 13.094-7.25 12.75-7.094 12.406-6.906 12.094-6.719 11.75-6.53.469-14.72.469-15.03.5-15.313.5-15.625.5-15.906.5-16.219.53-16.562z" fill="url(#e)" transform="translate(-734.58 -255.61)"/><path d="M21.32 61.24l-.687 1.672 2.155-3.486z" fill="gray"/><path d="M30.13 56.73l-3.199-.226-4.139 2.923 2.855.282z" fill="#CCC"/><path d="M21.77 70.26l.794-5.575-1.935-1.775-.908 5.25z" fill="#999"/><path d="M22.57 64.69l3.075-4.98-2.855-.281-2.155 3.486z" fill="#b3b3b3"/><path d="M221.63 68.65l-.31-2.421-.998-4.56.215 1.687z" fill="#666"/><path d="M30.13 56.73l-4.5 2.969 84 41.125 4.656-3.469z" fill="#f2f2f2"/><path d="M22.57 64.7l-.813 5.562 83.438 42.281 1.063-6.125z" fill="#CCC"/><path d="M220.32 61.66l-1.88-1.835 2.094 3.522z" fill="#999"/><path d="M25.63 59.7l-3.063 5 83.689 41.719 3.374-5.594z" fill="#FFF"/><path d="M210.85 57.08l4.153 3.018 3.443-.271-3.808-2.961z" fill="#b3b3b3"/><path d="M218.95 70.75l2.676-2.105-1.094-5.295-2.55 1.779z" fill="#999"/><path d="M215 60.1l2.986 5.03 2.55-1.779-2.093-3.522z" fill="#e6e6e6"/><path d="M138.97 226.22l-13.794 7.717-2.74 1.66 13.752-7.697z" fill="gray"/><path d="M210.85 57.07l-96.562 40.281 4.219 3.5 96.5-40.75z" fill="#f2f2f2"/><path d="M217.98 65.14l-96.281 41.344 1.281 6.125 95.97-41.844z" fill="#CCC"/><path d="M215.01 60.11l-96.5 40.75 3.187 5.625 96.281-41.344z" fill="#FFF"/><path d="M110.97 233.81l3.325 1.712 3.806 1.05-2.335-1.206zM122.44 235.6l2.74-1.66-5.16 1.47-1.919 1.167z" fill="#333"/><path d="M120.02 235.41l-4.252-.038 2.334 1.206z" fill="#393939"/><path d="M109.62 229.68l1.351 4.127 4.796 1.556-1.13-3.845z" fill="#595959"/><path d="M126.09 229.83l-5.39 1.75-.683 3.829 5.161-1.47z" fill="#646464"/><path d="M120.7 231.58l-6.067-.053 1.131 3.845 4.253.037z" fill="#777"/><path d="M105.2 112.54l4.437 117.16 5 1.812-4.03-117.44z" fill="#CCC"/><path d="M122.98 112.61l-5.844 1.5 3.563 117.47 5.406-1.75z" fill="#d2d2d2"/><path d="M110.6 114.07l4.031 117.44 6.063.063-3.563-117.47z" fill="#ececec"/><path d="M114.3 97.35l-4.678 3.475 4.218 3.32 4.658-3.287z" fill="#f9f9f9"/><path d="M105.21 112.54l5.392 1.536.879-5.977-5.204-1.682z" fill="#CCC"/><path d="M109.62 100.82l-3.35 5.59 5.204 1.683 2.364-3.952z" fill="#f9f9f9"/><path d="M122.96 112.61l-1.272-6.136-5.6 1.64 1.05 5.987z" fill="#CCC"/><path d="M121.69 106.47l-3.19-5.618-4.659 3.288 2.25 3.97z" fill="#FFF"/><path d="M110.6 114.07l6.54.027-1.048-5.986-4.614-.019z" fill="#f2f2f2"/><path d="M111.48 108.09l4.613.018-2.25-3.97z" fill="#FFF"/><path d="M78.33 187.24c.46 8.642 6.12 18.939 12.696 23.074 6.63 4.17 11.725.534 11.327-8.197-.4-8.78-6.193-19.269-12.885-23.349-6.636-4.046-11.6-.22-11.138 8.471M34.35 160c.67 8.301 5.921 17.961 11.774 21.642 5.899 3.71 10.213-.026 9.591-8.41-.625-8.43-5.99-18.257-11.937-21.883-5.9-3.597-10.1.305-9.428 8.65M53.49 142.02c.594 8.813 6.148 18.917 12.455 22.638 6.359 3.752 11.118-.369 10.58-9.277-.541-8.959-6.222-19.245-12.638-22.901-6.362-3.626-10.995.677-10.398 9.54M74.62 122.18c.499 9.39 6.392 19.979 13.218 23.729 6.886 3.783 12.163-.786 11.73-10.285-.435-9.556-6.471-20.345-13.424-24.018-6.892-3.64-12.026 1.129-11.524 10.574M51.19 109.54c-.677-9.128-6.25-19.219-12.398-22.466-6.098-3.221-10.411 1.541-9.683 10.568.724 8.977 6.174 18.891 12.222 22.213 6.096 3.35 10.533-1.237 9.86-10.315M158.84 62.19c7.172 2.947 18.907 2.972 26.106.054 7.144-2.896 7.034-7.567-.145-10.432-7.122-2.842-18.6-2.863-25.737-.048-7.192 2.836-7.338 7.503-.224 10.426M106.42 62.08c6.73 2.94 18.417 2.965 26.002.054 7.527-2.89 8.076-7.55 1.327-10.408-6.694-2.836-18.127-2.856-25.635-.048-7.565 2.83-8.368 7.486-1.693 10.402M54.21 61.97c6.29 2.934 17.931 2.958 25.898.054 7.906-2.883 9.11-7.533 2.789-10.385-6.27-2.83-17.658-2.85-25.534-.048-7.936 2.823-9.392 7.469-3.152 10.379M159.9 155.87c-.002 8.938 5.938 13.137 13.215 9.45 7.222-3.659 13.096-13.743 13.172-22.594.076-8.9-5.735-13.278-13.03-9.707-7.352 3.6-13.355 13.861-13.357 22.85"/><path d="M121.6 23.73c2.44.47 4.835.305 7.219 0 0 0-2.56-.238-3.844-.232-1.128.005-3.375.232-3.375.232z" fill="#CCC"/><path d="M70.73 47.48c-4.615-.009-9.437.693-13.375 2.094-5.3 1.885-7.685 4.581-6.844 7.031.641-1.835 2.964-3.651 6.844-5.031 3.938-1.401 8.76-2.103 13.375-2.094s9.021.742 12.156 2.156c2.154.972 3.404 2.16 3.844 3.406.667-1.952-.555-3.922-3.844-5.406-3.135-1.414-7.541-2.148-12.156-2.156zm50.5.094c-4.634-.01-9.37.69-13.125 2.093-4.812 1.8-6.878 4.326-6.031 6.688.562-1.717 2.572-3.394 6.031-4.688 3.754-1.404 8.491-2.102 13.125-2.093s9.153.738 12.5 2.156c2.566 1.087 4.055 2.433 4.531 3.844.713-2.094-.77-4.251-4.531-5.844-3.347-1.418-7.867-2.148-12.5-2.156zm50.688.093c-4.652-.009-9.306.687-12.875 2.094-4.27 1.684-6.025 4.02-5.281 6.25.53-1.564 2.279-3.066 5.281-4.25 3.569-1.407 8.223-2.103 12.875-2.094s9.314.736 12.875 2.157c2.983 1.19 4.72 2.697 5.25 4.25.757-2.218-.987-4.55-5.25-6.25-3.56-1.421-8.223-2.148-12.875-2.157zm-137.12 36.42c-3.672.27-5.982 4.278-5.719 10.594.28-5.559 2.8-8.843 6.5-8.593.997.067 2.076.396 3.219 1 6.148 3.247 11.729 13.34 12.406 22.469.025.331.02.649.031.968.055-.927.047-1.915-.031-2.968-.677-9.129-6.258-19.221-12.406-22.47-1.143-.603-2.222-.932-3.219-1a5.49 5.49 0 0 0-.781 0zm46.56 24.31c-4.219.242-6.932 4.476-6.719 11.25.337-5.6 2.932-9.032 6.719-9.25 1.443-.082 3.058.309 4.781 1.22 6.923 3.656 12.956 14.35 13.438 23.874a22.28 22.28 0 0 0 0-1.875c-.435-9.556-6.485-20.327-13.438-24-1.723-.91-3.338-1.301-4.781-1.219zM59.483 129.21c-3.864.094-6.332 3.979-6.031 10.344.254-5.176 2.588-8.26 6.031-8.343 1.32-.032 2.816.374 4.406 1.28 6.416 3.657 12.084 13.949 12.625 22.907.02-.636.042-1.304 0-2-.541-8.959-6.21-19.25-12.625-22.906-1.59-.907-3.086-1.314-4.406-1.281zm118.91.563c-1.57-.047-3.301.357-5.125 1.25-7.352 3.599-13.373 13.855-13.375 22.844 0 .333.015.649.031.969.437-8.728 6.273-18.351 13.344-21.812 1.824-.893 3.556-1.298 5.125-1.25 4.39.132 7.519 3.756 7.875 9.656.01-.227.03-.462.031-.688.057-6.675-3.198-10.827-7.906-10.969zm-138.69 18.25c-3.51-.028-5.678 3.478-5.375 9.344.245-4.645 2.287-7.369 5.375-7.344 1.213.01 2.587.444 4.062 1.344 5.948 3.625 11.312 13.445 11.938 21.875.012.16.023.311.032.468.04-.775.034-1.587-.032-2.468-.625-8.43-5.99-18.25-11.938-21.875-1.475-.9-2.849-1.335-4.062-1.344zm44.406 27.156c-3.67.25-6.008 3.83-5.781 9.75.342-5.085 2.879-7.946 6.531-7.75 1.391.074 2.966.582 4.625 1.594 6.645 4.05 12.403 14.414 12.875 23.156.028-.583.03-1.175 0-1.813-.4-8.78-6.183-19.264-12.875-23.344-1.66-1.011-3.234-1.52-4.625-1.594a6.073 6.073 0 0 0-.75 0z" fill="#999"/><g fill="#FFF"><path d="M88.22 203.34c.157 1.482 2.1 3.248 4.355 3.957 2.274.715 4.021.092 3.885-1.406-.137-1.505-2.124-3.304-4.42-4.004-2.276-.694-3.978-.038-3.82 1.453M43.36 175.42c.23 1.424 2.03 3.08 4.038 3.712 2.024.636 3.504-.005 3.29-1.443-.214-1.445-2.054-3.13-4.094-3.753-2.024-.617-3.465.053-3.234 1.484M63.05 157.49c.204 1.512 2.109 3.244 4.272 3.882 2.181.644 3.814-.063 3.63-1.59-.186-1.537-2.135-3.301-4.336-3.928-2.182-.622-3.77.116-3.566 1.636M84.82 137.67c.171 1.61 2.192 3.426 4.534 4.07 2.362.648 4.172-.135 4.023-1.764-.149-1.64-2.22-3.49-4.604-4.12-2.364-.624-4.125.194-3.953 1.814M45.93 114.55c-.232-1.565-2.144-3.296-4.253-3.853-2.091-.552-3.57.264-3.32 1.812.248 1.54 2.117 3.24 4.191 3.81 2.091.574 3.613-.212 3.382-1.769"/></g><g fill="#f2f2f2"><path d="M69.08 60.24c-1.583-.003-3.243.241-4.594.722-1.562.555-2.389 1.318-2.406 2.056 3.81.724 8.576.576 12.556-.46.037-.572-.428-1.136-1.4-1.574-1.075-.485-2.573-.741-4.156-.744zM120.26 60.34c-1.59-.003-3.219.24-4.506.722-1.43.535-2.162 1.258-2.144 1.969 3.824.822 8.59.763 12.534-.175.081-.645-.44-1.282-1.597-1.772-1.148-.487-2.698-.741-4.287-.744zM171.63 60.44c-1.596-.003-3.195.24-4.419.722-1.275.503-1.91 1.171-1.881 1.837 3.856.915 8.632.955 12.556.11.096-.695-.508-1.395-1.837-1.925-1.222-.488-2.824-.741-4.42-.744z"/></g><path d="M166.57 160.36c0 1.533 2.037 2.253 4.533 1.62 2.477-.627 4.492-2.356 4.518-3.874.026-1.526-1.967-2.277-4.47-1.665-2.521.617-4.58 2.377-4.581 3.919" fill="#FFF"/></svg>