<svg viewBox="0 0 512 512" xmlns="http://www.w3.org/2000/svg" xmlns:xlink="http://www.w3.org/1999/xlink"><defs><linearGradient id="a"><stop stop-color="#fff" offset="0"/><stop stop-color="#fff" stop-opacity="0" offset="1"/></linearGradient><linearGradient id="b" x1="1787.1" x2="751.47" y1="810.07" y2="118.16" gradientUnits="userSpaceOnUse"><stop stop-color="#1a1a1a" offset="0"/><stop stop-color="#1a1a1a" stop-opacity="0" offset="1"/></linearGradient><filter id="c" color-interpolation-filters="sRGB"><feGaussianBlur stdDeviation="2.368"/></filter><linearGradient id="l" x1="1156.9" x2="1201.6" y1="297" y2="297" gradientTransform="matrix(-1.2 0 0 -1.2 2594.4 653.39)" gradientUnits="userSpaceOnUse" xlink:href="#a"/><linearGradient id="k" x1="1156.2" x2="1198.7" y1="373.92" y2="373.92" gradientTransform="matrix(-1.2 0 0 -1.2 2590.4 822.63)" gradientUnits="userSpaceOnUse" xlink:href="#a"/><linearGradient id="j" x1="1216.7" x2="1258.3" y1="269.11" y2="269.11" gradientTransform="matrix(-1.2 0 0 -1.2 2722.4 592.04)" gradientUnits="userSpaceOnUse" xlink:href="#a"/><linearGradient id="i" x1="1155.5" x2="1196" y1="443.69" y2="443.69" gradientTransform="matrix(-1.2 0 0 -1.2 2586.7 976.13)" gradientUnits="userSpaceOnUse" xlink:href="#a"/><linearGradient id="h" x1="1213.2" x2="1252.9" y1="343" y2="343" gradientTransform="matrix(-1.2 0 0 -1.2 2712.7 754.59)" gradientUnits="userSpaceOnUse" xlink:href="#a"/><linearGradient id="g" x1="1269.7" x2="1308.7" y1="244.33" y2="244.33" gradientTransform="matrix(-1.2 0 0 -1.2 2836.2 537.52)" gradientUnits="userSpaceOnUse" xlink:href="#a"/><linearGradient id="f" x1="1210" x2="1248" y1="410.38" y2="410.38" gradientTransform="matrix(-1.2 0 0 -1.2 2703.9 902.84)" gradientUnits="userSpaceOnUse" xlink:href="#a"/><linearGradient id="e" x1="1264.1" x2="1301.4" y1="315.36" y2="315.36" gradientTransform="matrix(-1.2 0 0 -1.2 2822.1 693.8)" gradientUnits="userSpaceOnUse" xlink:href="#a"/><linearGradient id="d" x1="1259" x2="1294.7" y1="380.47" y2="380.47" gradientTransform="matrix(-1.2 0 0 -1.2 2809.1 837.02)" gradientUnits="userSpaceOnUse" xlink:href="#a"/><linearGradient id="u" x1="1102.6" x2="1192" y1="100.26" y2="100.26" gradientTransform="matrix(1.2 0 0 1.2 -229.46 121.43)" gradientUnits="userSpaceOnUse" xlink:href="#a"/><linearGradient id="t" x1="1044.8" x2="1128.9" y1="75.902" y2="75.902" gradientTransform="matrix(1.2 0 0 1.2 -217.37 126.13)" gradientUnits="userSpaceOnUse" xlink:href="#a"/><linearGradient id="s" x1="1165" x2="1249.1" y1="75.838" y2="75.838" gradientTransform="matrix(1.2 0 0 1.2 -241.41 126.13)" gradientUnits="userSpaceOnUse" xlink:href="#a"/><linearGradient id="r" x1="1106.9" x2="1186.4" y1="54.178" y2="54.178" gradientTransform="matrix(1.2 0 0 1.2 -229.33 130.32)" gradientUnits="userSpaceOnUse" xlink:href="#a"/><linearGradient id="q" x1="993.35" x2="1072.8" y1="54.256" y2="54.256" gradientTransform="matrix(1.2 0 0 1.2 -206.62 130.32)" gradientUnits="userSpaceOnUse" xlink:href="#a"/><linearGradient id="p" x1="1220.4" x2="1299.9" y1="54.143" y2="54.143" gradientTransform="matrix(1.2 0 0 1.2 -252.04 130.32)" gradientUnits="userSpaceOnUse" xlink:href="#a"/><linearGradient id="o" x1="1054.9" x2="1130.2" y1="34.803" y2="34.803" gradientTransform="matrix(1.2 0 0 1.2 -218.52 134.08)" gradientUnits="userSpaceOnUse" xlink:href="#a"/><linearGradient id="n" x1="1162.5" x2="1237.8" y1="34.754" y2="34.754" gradientTransform="matrix(1.2 0 0 1.2 -240.03 134.08)" gradientUnits="userSpaceOnUse" xlink:href="#a"/><linearGradient id="m" x1="1110.3" x2="1181.9" y1="17.308" y2="17.308" gradientTransform="matrix(1.2 0 0 1.2 -229.23 137.47)" gradientUnits="userSpaceOnUse" xlink:href="#a"/></defs><path transform="translate(-580.27 75.94) scale(.79246)" d="M1352.3 421.02l-187.63 123.56L737.93 280.3l203.64-68.644z" fill="url(#b)" filter="url(#c)"/><path d="M341.81 155.987l-.124.025-44.676 14.04-.322.57-1.758 2.922-4.334-1.485-49.479 15.552-2.402 4.036-4.73-1.808-54.952 17.261-3.789 6.266 6.191 64.016v.223l.174.074.024.025.05.024 3.863 2.625-2.18 2.502-.049.05-.024.073-.842 2.526-.248-.123.05.594-.149.248.198.099 5.622 58.345.024.198.174.099 3.665 2.13-2.03 2.005-.075.075-.025.099-.817 2.749-.223-.124.074.668-.148.199.173.099 5.2 53.863 39.797 25.73 5.498.916.173 2.749 43.833 28.33 6.463.719.123 3.566 52.823 33.457 52.426-33.457.124-3.492 6.092-.594 43.66-28.53.198-2.649 5.423-1.015 39.376-25.73 5.571-54.185-3.07-5.424 3.863-2.253 6.067-58.89-3.544-5.929 4.386-2.442 6.611-64.214-3.814-6.29-55.299-17.21-.149-.05-.123.05-4.658 1.828-2.374-4.107-49.925-15.552-4.383 1.51-2.08-3.516-45.071-14.041-.124-.025z"/><g fill="#666"><path d="M282.61 210.887l3.552-5.994-44.726-16.945-3.416 5.709zM458.51 232.727l3.643-6.357-55.729-18.924-3.501 6.037zM338.91 191.327l3.334-5.67-44.945-15.263-3.214 5.415zM395.41 210.887l3.482-5.994-49.903-16.945-3.352 5.709zM402.61 257.267l3.908-6.767-56.141-21.27-3.745 6.406z"/></g><path d="M495.11 352.637l-.993-3.255-2.346-2.36z" fill="#222406"/><path d="M345.41 432.087h-6.553l3.249 1.89z" fill="#50550d"/><path d="M192.46 347.027l-3.333 5.616 40.806 24.042 3.463-5.892z" fill="#333"/><path d="M188.35 344.637l4.107 2.388 40.936 23.766-4.05-2.356z"/><path d="M454.71 376.687h-6.803l-4.055 55.402h6.553z" fill="#4d4d4d"/><path d="M236.71 376.687h-6.803l3.943 55.402h6.553z" fill="#1a1a1a"/><path d="M447.91 376.687h6.803l-3.47-5.891z" fill="#999"/><path d="M229.91 376.687h6.803l-3.34-5.891z" fill="#4d4d4d"/><path d="M445.21 374.357l3.49 5.933-.739-3.612z" fill="#303308"/><path d="M186.17 280.257l-3.482 5.82 42.35 21.898 3.623-6.116z" fill="#333"/><path d="M498.51 280.257l4.383-2.895-42.066 21.598-4.33 2.9z" fill="#0e0e02"/><path d="M181.85 277.367l4.324 2.895 42.492 21.602-4.266-2.9z" fill="#0f1003"/><path d="M179.32 207.447l-2.534 3.444-1.11 2.594z" fill="#0f1002"/><path d="M448.51 368.437h6.84l4.698-60.456h-7.112z" fill="#4d4d4d"/><path d="M229.31 368.437h6.84l-4.03-60.456h-7.112z" fill="#1a1a1a"/><path d="M292.91 207.447l-3.573 6.037 49.8 19.244 3.721-6.357z" fill="#666"/><path d="M239.51 374.357l-3.483 5.933 45.402 26.75 3.625-6.241z" fill="#333"/><path d="M403.81 407.047h-7.184l-2.289 57.217h6.907z" fill="#4d4d4d"/><path d="M288.61 407.047h-7.184l2.162 57.217h6.907z" fill="#1a1a1a"/><path d="M460.11 307.977l-3.63-6.116-3.482 6.116z" fill="#999"/><path d="M228.71 301.867l-3.624 6.116h7.112z" fill="#4d4d4d"/><path d="M453.81 311.277l-.807-3.298-2.845-2.863z" fill="#262806"/><path d="M231.41 311.277l3.646-6.16-2.911 2.862z" fill="#282b07"/><path d="M179.32 207.447l-3.644 6.037 44.01 19.244 3.8-6.357z" fill="#666"/><path d="M396.61 407.047h7.184l-3.632-6.24z" fill="#999"/><path d="M281.51 407.047h7.184l-3.559-6.24zM453.61 298.967h7.153l5.147-66.236h-7.451z" fill="#4d4d4d"/><path d="M224.41 298.967h7.153l-4.416-66.236h-7.45z" fill="#1a1a1a"/><path d="M235.11 305.117l-3.646 6.16 47.35 24.486 3.802-6.494z" fill="#333"/><path d="M450.11 305.117l4.321-2.9-47.063 24.163-4.23 2.888z" fill="#0f0f02"/><path d="M230.81 302.217l4.255 2.9 47.506 24.15-4.156-2.887z" fill="#101103"/><path d="M407.01 335.757h-7.53l-2.51 62.746h7.225z" fill="#4d4d4d"/><path d="M281.11 398.507h7.226l-2.067-62.746h-7.53z" fill="#1a1a1a"/><path d="M230.11 229.227l-3.017 3.5-.807 2.906z" fill="#1d1f05"/><path d="M339.81 441.017l-.07 59.093h7.3l.382-59.093z" fill="#4d4d4d"/><path d="M291.91 404.787l-3.647 6.287 50.821 29.943 3.802-6.634z" fill="#333"/><path d="M399.41 335.757h7.53l-3.809-6.494z" fill="#999"/><path d="M286.31 335.757l-3.729-6.494-3.801 6.494z" fill="#4d4d4d"/><path d="M286.3 335.764l-.378 3.698 3.825-6.544z" fill="#383c0a"/><path d="M339.11 441.017h7.612l-3.81-6.635z" fill="#999"/><path d="M275.81 257.267l3.996-6.767-49.643-21.27-3.824 6.406z" fill="#666"/><path d="M410.51 257.267h-7.912l-2.764 69.116h7.576z" fill="#4d4d4d"/><path d="M278.41 326.377h7.576l-2.277-69.116h-7.912z" fill="#1a1a1a"/><g fill="#b3b3b3"><path d="M495.098 352.643l-3.338-5.615-40.498 23.766 3.47 5.89zM501.993 286.077l-3.488-5.82-42.013 21.602 3.63 6.116zM448.66 380.292l-3.49-5.932-45.055 26.44 3.632 6.242zM453.811 311.277l-3.652-6.16-46.97 24.15 3.808 6.494zM396.992 411.071l-3.654-6.287-50.43 29.595 3.81 6.635zM399.924 339.457l-3.833-6.545-52.86 27.18 4.004 6.922z"/></g><path d="M289.71 332.917l-3.825 6.544 53.292 27.557 3.996-6.921z" fill="#333"/><path d="M396.11 332.917l4.213-2.884-53.007 27.215-4.068 2.849z" fill="#0f1003"/><path d="M285.61 330.027l4.139 2.884 53.464 27.18-3.985-2.849z" fill="#111203"/><path d="M339.11 432.177h7.658l.421-65.16h-8.001z" fill="#4d4d4d"/><path d="M283.31 260.537l4.022-6.822-3.605 3.545z" fill="#2d3008"/><path d="M347.21 367.017l-4.005-6.922-3.996 6.922z" fill="#999"/><g fill="#b3b3b3"><path d="M282.164 213.487l-3.508-6.037-55.204 18.923 3.65 6.358zM446.6 193.66l-3.422-5.71-44.256 16.946 3.558 5.994zM342.233 185.664l3.34 5.67 44.401-15.517-3.22-5.415zM286.127 204.897l3.488 5.994 49.302-17.23-3.357-5.71zM395.803 213.487l-3.58-6.037-49.423 18.924 3.73 6.357zM279.787 250.495l3.915 6.768 55.388-21.631-3.752-6.406zM505.796 207.44l-43.635 18.92 3.814 6.365 43.486-19.242-3.665-6.042zM406.501 250.495l4.004 6.768 48.88-21.631-3.83-6.406zM343.5 277.803l4.222 7.234 55.347-24.493-4.03-6.822z"/></g><path d="M339.31 285.037l4.212-7.234-56.206-24.082-4.022 6.823z" fill="#666"/><path d="M339.21 357.247h8.053l.466-72.212h-8.433z" fill="#4d4d4d"/><g fill="#ccc"><path d="M338.904 191.33h6.674l-3.34-5.67zM339.063 232.728h7.45l-3.728-6.357zM402.46 210.888l-3.56-5.994-3.482 5.994zM289.613 210.888l-3.488-5.994-3.553 5.994zM465.936 232.728l-3.808-6.357-3.643 6.357zM223.522 226.373l-3.8 6.357h7.45zM402.618 257.263h7.912l-4.004-6.768zM283.75 257.263l-3.916-6.768-3.996 6.768zM347.78 285.03l-4.221-7.233-4.212 7.234z"/></g><g fill="#ff0"><path d="M342.249 185.664l44.522-15.261-44.927-13.986-44.54 13.986zM398.894 204.897l44.256-16.945-49.655-15.458-44.504 15.458zM286.127 204.897l49.432-16.945-44.932-15.458-49.227 15.458zM462.132 226.373l43.642-18.924-55.17-17.175-44.201 17.175zM223.483 226.373l55.204-18.923-44.677-17.175-54.694 17.175zM342.811 226.373l49.424-18.924-49.924-17.175-49.448 17.175zM406.493 250.495l49.054-21.27-55.795-19.194-49.4 19.195zM279.795 250.495l55.551-21.27-49.931-19.194-55.264 19.195zM343.524 277.803l55.538-24.08-56.17-21.594-55.574 21.593z"/></g><g fill="#00e400"><path d="M495.122 352.643l-40.366 24.042-4.306 55.402 39.134-25.574zM501.96 286.077l-41.87 21.898-4.698 60.456 40.549-23.798zM448.692 380.292l-44.914 26.75-2.566 57.217 43.37-28.342zM509.426 213.487l-43.486 19.244-5.147 66.235 42.066-21.598zM453.787 311.277l-46.814 24.484-2.814 62.746 45.142-26.495zM397.008 411.071l-50.274 29.943-.382 59.092 48.335-31.587zM459.374 235.629l-48.881 21.63-3.1 69.116 47.062-24.163zM399.9 339.457l-52.69 27.557-.42 65.16 50.563-29.677zM403.094 260.544l-55.347 24.492-.467 72.212 53.007-27.214z"/></g><g fill="#a00"><path d="M194.328 406.507l39.542 25.573-3.942-55.401-40.806-24.042zM188.353 344.64l40.992 23.798-4.302-60.456-42.35-21.899zM239.8 435.915l43.822 28.342-2.162-57.217-45.402-26.75zM181.847 277.367l42.55 21.598-4.714-66.235-44.01-19.244zM235.504 372.011l45.636 26.495-2.371-62.745-47.35-24.485zM290.216 468.525l48.839 31.586.07-59.092-50.82-29.942zM230.805 302.219l47.605 24.163-2.613-69.115-49.47-21.631zM288.02 402.497l51.117 29.677.078-65.16-53.292-27.557zM285.603 330.034l53.618 27.215.086-72.212-56.015-24.493z"/></g><g opacity=".6"><path d="M1298.3 342.33l-42.885 76.266 37.568-24.551z" fill="url(#d)" transform="translate(-804.09 11.897)"/><path d="M1305.1 275.83l-44.706 79.061 38.927-22.847z" fill="url(#e)" transform="translate(-804.09 11.897)"/><path d="M1251.8 370.08l-45.581 80.609 41.636-27.209z" fill="url(#f)" transform="translate(-804.09 11.897)"/><path d="M1312.5 203.3l-46.687 82.06 40.383-20.734z" fill="url(#g)" transform="translate(-804.09 11.897)"/><path d="M1256.9 301.12l-47.644 83.741 43.336-25.435z" fill="url(#h)" transform="translate(-804.09 11.897)"/><path d="M1200.1 400.96l-48.63 85.474 46.402-30.323z" fill="url(#i)" transform="translate(-804.09 11.897)"/><path d="M1262.4 225.55l-49.902 87.117 45.18-23.197z" fill="url(#j)" transform="translate(-804.09 11.897)"/><path d="M1202.9 329.42l-50.985 89.008 48.541-28.49z" fill="url(#k)" transform="translate(-804.09 11.897)"/><path d="M1206.1 250.58l-53.581 92.837 50.886-26.127z" fill="url(#l)" transform="translate(-804.09 11.897)"/></g><path d="M1189.1 159.38l-43.13-13.426-42.758 13.426z" fill="url(#m)" transform="translate(-804.09 11.897)"/><path d="M1245.4 177.03l-47.669-14.839-42.724 14.839z" fill="url(#n)" transform="translate(-804.09 11.897)"/><path d="M1137.8 177.04l-43.135-14.839-47.258 14.839z" fill="url(#o)" transform="translate(-804.09 11.897)"/><path d="M1307.9 196.64l-52.964-16.488-42.433 16.488z" fill="url(#p)" transform="translate(-804.09 11.897)"/><path d="M1080.8 196.66l-42.89-16.488-52.507 16.488z" fill="url(#q)" transform="translate(-804.09 11.897)"/><path d="M1194.3 196.65l-47.927-16.488-47.47 16.488z" fill="url(#r)" transform="translate(-804.09 11.897)"/><path d="M1257.5 218.57l-53.564-18.427-47.424 18.427z" fill="url(#s)" transform="translate(-804.09 11.897)"/><path d="M1137.3 218.58l-47.934-18.427-53.053 18.427z" fill="url(#t)" transform="translate(-804.09 11.897)"/><path d="M1200.9 243.24l-53.924-20.729-53.35 20.729z" fill="url(#u)" transform="translate(-804.09 11.897)"/><g><g fill="#960000"><path d="M194.328 406.507l39.543 25.573-44.75-79.444zM188.353 344.64l40.993 23.798-46.652-82.353zM239.8 435.915l43.823 28.342-47.565-83.969zM181.847 277.367l42.55 21.598-48.724-85.482zM235.505 372.011l45.636 26.495-49.722-87.226zM290.216 468.525l48.84 31.586-50.751-89.033zM230.805 302.219l47.605 24.163-52.084-90.745zM288.02 402.497l51.118 29.677-53.215-92.718zM285.604 330.034l53.617 27.215-55.929-96.704z"/></g></g></svg>