<svg xmlns="http://www.w3.org/2000/svg" viewBox="0 0 185.41 184.29"><path d="M109.78.008l2.72.84 18.75 7.188 1.5.937.031.375 1-.156 2.75.875 19.938 7.625 1.594 1 .063.5 1.187-.219 2.781.875 21.281 8.125 1.688 1.063.343 3.125-.75 34.812-.468 3-2.406.906-1.438.312 2.094.907 1.687 1.156.313 3.062-.719 33.844-.469 2.938-2.375.969-.937.218 1.594.782 1.656 1.218.344 3-.72 32.97-.437 2.843-2.343 1-28.844 7.5-2.75.344-2.032-.719-.53-.281-.25 1.719-2.438 1.03-30.094 7.845-2.844.375-2.031-.75-.563-1.313-.344 2.813-2.593 1.062-31.375 8.188-3 .375-1.97-.782-18.811-12.312-1.375-1.375-.188-1.312-1.531.187-1.844-.75L27 156.412l-1.156-2.532h-.031L27 156.411l-1.28-1.28-.188-1.25-1.438.155-1.75-.656-16.562-10.844-1.187-1.219-.47-2.843-1.124-32.094.25-2.844 2.594-.875.218-.063-1.687-1-1.219-1.156-.469-2.906-1.156-32.938.25-2.906 2.625-.844.531-.156-2.03-1.094-1.22-1.094-.5-3-1.18-33.8.282-3.031 2.625-.781 1.562-.594 30.938-5.094 2.969.875 1 .438.125-1.282 2.531-.78 1.625-.595 29.688-4.875 2.813.844.875.344.125-1.156 2.406-.719 1.719-.625 28.5-4.688z"/><path d="M128.52 7.178L109.782.003l2.701.854 18.767 7.181zM77.14 6.038l2.422-.735 1.706-.62-2.78 1.778z"/><path d="M77.14 6.038l1.348.423-1.122 3.374-.556-.9zM4.6 141.308l-.46-2.837.344 1.286 1.316 2.786z"/><path d="M4.14 138.478l-1.136-32.084.344 1.203 1.136 32.166zM132.74 8.988l-2.366.23-1.846-2.04 2.73.86z"/><path d="M132.74 8.988l.356 2.963-1.967.772-.755-3.505z" fill="#111"/><path d="M3.26 103.548l2.57-.894 1.528-.362-2.904 1.916zM3.26 103.548l1.194.66-1.113 3.39-.344-1.204zM96.78 13.918L78.486 6.46l2.78-1.778 18.34 7.405zM95.63 17.378L77.37 9.84l1.122-3.374 18.294 7.458zM3.15 100.448l-.467-2.908.344 1.18 1.336 2.889zM22.35 153.378l-16.549-10.83-1.316-2.786 16.544 10.78z"/><path d="M91.57 13.458l-18.226-7.47 2.826.859 18.26 7.476zM130.37 9.218l-28.94 4.96-1.82-2.082 28.913-4.917zM39.49 12.248l2.529-.76 1.637-.615-2.88 1.822z"/><path d="M39.49 12.248l1.287.447-1.132 3.44-.455-.936z"/><path d="M131.12 12.718l-28.927 5.017-.767-3.562 28.94-4.96z" fill="#333"/><path d="M2.69 97.538L1.524 64.61l.344 1.093 1.166 33.016zM1.79 61.678l2.606-.842 1.544-.482-2.944 1.892z"/><path d="M1.79 61.678l1.206.568-1.127 3.45-.344-1.094zM153.72 16.818l-19.93-7.631 2.738.862 19.958 7.637zM98.68 14.828l-1.894-.902 2.827-1.83 1.82 2.081zM21.18 114.208L4.457 104.2l2.904-1.915 16.776 9.95z"/><path d="M98.68 14.828l-.068 3.094-2.982-.542 1.156-3.454z" fill="#212121"/><path d="M1.67 58.498l-.475-2.982.344 1.068 1.356 2.997zM20.03 117.678l-16.689-10.09 1.113-3.39 16.723 10.01z"/><path d="M98.68 14.828l2.752-.65.767 3.561-3.587.183z" fill="#4a4a4a"/><path d="M24.08 154.048l-1.737-.674-1.321-2.837 2.867.775zM157.51 61.668l-2.366.324-1.929-2.18 2.73.772zM21.1 111.558l-16.735-9.952-1.336-2.89 16.73 9.898z"/><path d="M24.08 154.048l-.191-2.736 3.647-.26-.595 2.687z" fill="#262626"/><path d="M95.86 15.308l-2.478.246-1.812-2.094 2.859.865z"/><path d="M157.51 61.668l.341 2.972-1.94.92-.767-3.568z" fill="#0f0f0f"/><path d="M95.86 15.308l.395 3.018-2.102.805-.77-3.577z" fill="#161616"/><path d="M104.76 14.178l-2.84 1.845-1.446-.459 2.461-.773zM157.55 58.488l-2.375.84.85-2.876 1.944-.9zM1.2 55.518L.003 21.71l.344.976 1.197 33.9zM58.51 20.458l-17.732-7.77 2.88-1.823 17.782 7.716zM57.34 23.988l-17.697-7.854 1.132-3.441 17.732 7.77zM25.71 155.118l-.457-2.915.42 1.369 1.322 2.85zM160.88 105.018l20.668 10.05-2.73-.677-20.642-10.053z"/><path d="M57.19 111.448l-30.58 6.717-.78-3.615 30.593-6.658z" fill="#3c3c3c"/><path d="M182.37 155.098l-2.348.995.903-2.697 1.89-1.153zM38.36 13.088l17.694 7.791-2.997-.87-17.656-7.785z"/><path d="M22.93 118.408l.962 32.905-2.867-.775-.99-32.856z" fill="#1b1b1b"/><path d="M26.61 118.168l.924 32.888-3.647.26-.963-32.904z" fill="#444"/><path d="M4.47 17.308l-2.985 1.868-1.219-.472 2.643-.786zM158.41 21.738l-.445 33.81-1.945.9.426-33.888z"/><path d="M.35 22.688l-.344-.976.267-3.006 1.219.472zM93.38 15.558l-30.16 5.17-1.782-2.14 30.13-5.124z"/><path d="M94.15 19.128l-30.147 5.229-.784-3.637 30.16-5.17z" fill="#373737"/><path d="M19.9 71.338L2.988 62.255l2.944-1.893L22.9 69.387zM24.72 120.518l.948 33.048-.419-1.368-.95-32.961zM146 162.188l.406 1.031-.531-.281.125-.75zM158.07 18.688l-2.397.254-1.955-2.123 2.766.868z"/><path d="M18.74 74.868L1.862 65.701l1.127-3.45 16.912 9.084z"/><path d="M22.95 115.328l-1.771-1.117 2.957-1.974 1.697 2.312z" fill="#0b0b0b"/><path d="M158.07 18.688l.345 3.048-1.964.823-.778-3.617z" fill="#0e0e0e"/><path d="M183.52 119.278l-.708 32.964-1.892 1.153.69-33.037z"/><path d="M22.95 115.328l-.023 3.08-2.895-.726 1.147-3.47z" fill="#191919"/><path d="M19.82 68.608L2.896 59.584 1.54 56.588l16.919 8.963z"/><path d="M22.95 115.328l2.883-.78.78 3.615-3.686.245z" fill="#4c4c4c"/><path d="M22.86 112.148l-1.757-.592-1.342-2.945 2.904.712z"/><path d="M22.86 112.148l-.195-2.825 3.696-.24-.6 2.808z" fill="#2b2b2b"/><path d="M180.02 156.088l-28.825 7.52.86-2.727 28.869-7.49zM104.76 14.178l19.527 7.885-2.888 1.901-19.478-7.94zM28.85 115.038l-2.972 1.992-1.284-.712 2.618-.943z"/><path d="M101.92 16.018l19.478 7.941-1.202 3.562-19.442-8.026zM24.6 116.318l1.284.712-1.156 3.493-.421-1.281zM183.2 116.298l-2.365.425-2.016-2.329 2.73.677z"/><path d="M55.64 65.598l-31.021 6.043-1.718-2.257 30.988-5.995z" fill="#030303"/><path d="M161.48 62.988l20.964 9.122-2.765-.774-20.937-9.12zM60.37 21.398l-1.857-.934 2.93-1.877 1.783 2.139z"/><path d="M183.2 116.298l.325 2.98-1.91 1.079-.78-3.634z" fill="#0c0c0c"/><path d="M60.37 21.398l-.046 3.155-2.978-.565 1.167-3.524z" fill="#1d1d1d"/><path d="M62.32 26.198l.559 34.231-.535-1.092L61.78 25.2zM44.62 167.948l-17.624-11.533-1.323-2.85 17.621 11.48z"/><path d="M56.42 69.198l-31.007 6.103-.79-3.664 31.02-6.043z" fill="#3b3b3b"/><path d="M24.51 113.128l-.464-2.99.421 1.257 1.343 2.96z"/><path d="M60.37 21.398l2.856-.672.783 3.637-3.685.19z" fill="#4c4c4c"/><path d="M116.1 23.518l-19.411-7.956 2.868.867 19.444 7.962zM183.26 113.108l-2.378.942.916-2.819 1.915-1.059z"/><path d="M21.67 75.528l.989 33.798-2.904-.712-1.017-33.746z" fill="#1d1d1d"/><path d="M57.43 21.898l-2.597.262-1.774-2.151 2.997.87zM155.67 18.948l-29.452 5.283-1.929-2.169 29.425-5.237z"/><path d="M25.41 75.308l.949 33.78-3.697.24-.988-33.799z" fill="#474747"/><path d="M57.43 21.898l.436 3.076-2.246.84-.787-3.654z" fill="#1b1b1b"/><path d="M156.45 22.558l-29.438 5.344-.791-3.677 29.452-5.284z" fill="#313131"/><path d="M18.59 27.278L1.484 19.174l2.985-1.868 17.162 8.047zM62.11 22.158l2.574-.8 1.754-.607-2.945 1.892z"/><path d="M17.42 30.878L.35 22.687l1.142-3.51 17.106 8.104zM62.11 22.158l1.383.485-1.176 3.548-.54-.997zM146.79 123.318l-20.208-10.452 2.825-1.967 20.256 10.39z"/><path d="M145.57 126.868l-20.17-10.536 1.18-3.46 20.208 10.452z" fill="#080808"/><path d="M145.25 160.348l3.15.81.038 2.783-2.046-.71z"/><path d="M152.05 160.878l-.86 2.727-2.755.329-.038-2.784z" fill="#1f1f1f"/><path d="M24.04 110.138l-.976-33.858.423 1.165.974 33.95z"/><path d="M21.7 72.378l-1.793-1.045 2.999-1.95 1.718 2.257z" fill="#050505"/><path d="M18.74 74.868l1.162-3.533 1.793 1.045-.023 3.148z" fill="#191919"/><path d="M22.9 69.388l-3.08-.776 1.779.506 2.942-.202zM184.44 76.318l-.728 33.86-1.914 1.06.71-33.939z"/><path d="M25.41 75.308l-3.736.222.022-3.148 2.924-.738z" fill="#4d4d4d"/><path d="M180.83 116.718l-29.181 6.954-1.99-2.382 29.155-6.9z" fill="#050505"/><path d="M21.6 69.108l-1.778-.506-1.362-3.057 2.94.645zM144.02 162.968l2.028-1.202-.419 2.906-2.456 1.03zM153.06 74.158l22.281-4.687 4.344 1.875-29.562 6.25-.563-.282 2.625-.187.875-2.969z"/><path d="M21.6 69.108l-.2-2.918 3.748-.217-.606 2.933z" fill="#2f2f2f"/><path d="M181.61 120.358l-29.167 7.015-.795-3.694 29.181-6.954z" fill="#313131"/><path d="M54.83 22.158L23.37 27.55l-1.74-2.198 31.427-5.345zM162.09 19.838l21.268 8.138-2.801-.875-21.24-8.133zM23.36 73.278l2.656-.887 1.656-.465-3.014 1.967zM180.89 114.048l-29.205 6.915.872-2.852 29.25-6.881zM124.29 22.058l1.929 2.17-2.812.683-2.005-.951z"/><path d="M23.36 73.278l1.298.615-1.171 3.557-.423-1.165z"/><path d="M55.62 25.818l-31.446 5.454-.801-3.715 31.46-5.392z" fill="#3a3a3a"/><path d="M123.41 24.908l-.085 3.187-3.123-.577 1.203-3.562z" fill="#242424"/><path d="M179.68 71.338l2.765.774 1.676 1.145-2.397.355z"/><path d="M148.75 127.628l-.353 33.53-3.15-.81.319-33.478z" fill="#272727"/><path d="M123.41 24.908l2.812-.684.791 3.677-3.688.194z" fill="#484848"/><path d="M43.7 127.698l-17.823-10.667 2.972-1.992 17.878 10.603z"/><path d="M152.44 127.368l-.392 33.512-3.653.272.353-33.529z" fill="#404040"/><path d="M42.51 131.278l-17.787-10.754 1.157-3.493 17.823 10.667z"/><path d="M182.51 77.298l-.792-3.684 2.396-.355.329 3.058z" fill="#0b0b0b"/><path d="M23.22 68.068l1.363 3.074-1.315-1.144-.47-3.069zM46.46 168.678l-1.842-.728-1.327-2.904 3 .826z"/><path d="M20.39 31.468l1.016 34.727-2.94-.645-1.046-34.672z" fill="#1f1f1f"/><path d="M50.05 165.598l-.66 2.745-2.923.34-.169-2.807z" fill="#232323"/><path d="M120.54 25.428l-2.515.271-1.92-2.182 2.901.873zM182.71 67.928l1.938-.96-.46 3.02-2.41.886zM43.64 124.958L25.803 114.35l-1.343-2.96 17.833 10.55z"/><path d="M24.17 31.268l.975 34.71-3.748.216-1.015-34.727z" fill="#494949"/><path d="M120.54 25.428l.386 3.107-2.106.858-.795-3.694z" fill="#131313"/><path d="M146.38 128.198l-.328 33.568-2.028 1.203.307-33.644zM129.78 24.278l-2.902 1.917-1.555-.499 2.501-.814z"/><path d="M125.33 25.698l1.555.5-1.213 3.585-.742-1.02z"/><path d="M148.85 124.478l-2.068-1.16 2.874-2.03 1.99 2.383z" fill="#0e0e0e"/><path d="M147.22 79.608l-20.491-9.49 2.863-1.944 20.54 9.43zM113.9 170.778l30.12-7.814-.847 2.734-30.072 7.845z"/><path d="M148.85 124.478l-.101 3.142-3.184-.758 1.217-3.544z" fill="#272727"/><path d="M48.2 169.818l-.452-2.996.504 1.459 1.327 2.918zM20.41 28.248l-1.814-.969 3.04-1.925 1.74 2.2zM82.4 30.928l-18.906-8.285 2.945-1.892 18.959 8.226z"/><path d="M79.73 120.958l-31.201 7.098-1.8-2.415 31.17-7.044z" fill="#0a0a0a"/><path d="M145.98 83.218l-20.453-9.578 1.196-3.522 20.491 9.49z" fill="#060606"/><path d="M148.85 124.478l2.796-.807.795 3.694-3.692.255z" fill="#464646"/><path d="M20.41 28.248l-.022 3.218-2.97-.589 1.178-3.598z" fill="#181818"/><path d="M22.8 66.928l-1.003-34.79.425 1.04 1 34.888zM81.19 34.568l-18.868-8.374 1.177-3.548 18.906 8.286z"/><path d="M20.41 28.248l2.966-.695.8 3.715-3.788.198z" fill="#4e4e4e"/><path d="M80.52 124.628l-31.188 7.16-.805-3.732 31.201-7.099z" fill="#3a3a3a"/><path d="M185.39 32.168l-.748 34.794-1.938.96.729-34.876z"/><path d="M148.89 121.238l-2.075-.626-1.157-2.994 3.194.743z" fill="#040404"/><path d="M45.54 132.048l.75 33.827-3-.826-.781-33.775z" fill="#1c1c1c"/><path d="M148.89 121.238l-.038-2.877 3.703-.25-.873 2.852z" fill="#232323"/><path d="M146.01 125.158l-2.482.45-1.983-2.397 2.864.673zM61.03 23.068l18.867 8.308-3.046-.878-18.828-8.302z"/><path d="M49.34 131.788l.71 33.81-3.752.278-.75-33.827z" fill="#434343"/><path d="M146.01 125.158l.365 3.035-2.049 1.127-.798-3.712z" fill="#111"/><path d="M150.13 77.598l29.544-6.264 2.044 2.274-29.57 6.315z"/><path d="M182.51 77.298l-29.556 6.378-.806-3.746 29.57-6.316z" fill="#303030"/><path d="M22.09 29.048l2.694-.828 1.676-.6-3.057 1.941zM22.09 29.048l1.313.513-1.187 3.622-.424-1.041zM144.41 120.028l2.055-1.105-.425 2.99-2.49.976zM118.03 25.698l-30.735 5.514-1.89-2.231 30.704-5.465zM185.06 29.028l-2.427.28-2.075-2.213 2.801.875zM153.07 74.158l29.64-6.237-.931 2.945-29.594 6.275z"/><path d="M185.06 29.028l.333 3.139-1.957.877-.803-3.735z" fill="#0b0b0b"/><path d="M118.82 29.388l-30.721 5.577-.81-3.757 30.736-5.514z" fill="#353535"/><path d="M47.52 134.298l.733 33.98-.503-1.46-.737-33.887zM108.13 132.498l-19.656-10.907 2.93-2.019 19.708 10.841z"/><path d="M106.9 136.118l-19.618-10.995 1.192-3.53L108.13 132.5z" fill="#030303"/><path d="M42.7 83.578l-18.04-9.69 3.014-1.967 18.097 9.626zM107 170.218l3.149.845.088 2.83-2.005-.747zM24.66 73.888l18.04 9.69-1.209 3.646-18.003-9.78z"/><path d="M149.21 83.908l-.363 34.46-3.194-.744.328-34.405z" fill="#2a2a2a"/><path d="M45.58 128.878l-1.876-1.181 3.027-2.056 1.8 2.416z" fill="#0e0e0e"/><path d="M45.58 128.878l-.038 3.172-3.03-.774 1.192-3.58z" fill="#1c1c1c"/><path d="M113.9 170.778l-.8 2.765-2.867.35-.088-2.83z" fill="#202020"/><path d="M152.96 83.678l-.403 34.441-3.703.25.363-34.46z" fill="#424242"/><path d="M45.58 128.878l2.95-.821.805 3.733-3.793.26z" fill="#4b4b4b"/><path d="M42.64 80.768l-18.054-9.626-1.363-3.074 18.05 9.562zM86.03 122.148l19.619 10.937-3.008-.668-19.583-10.942zM45.51 125.608l-1.866-.642-1.346-3.018 3.04.76z"/><path d="M45.51 125.608l-.172-2.9 3.804-.256-.667 2.872z" fill="#282828"/><path d="M105.52 172.958l2.174-1.255-.387 2.959-2.572 1.07zM129.78 24.278l20.833 8.412-2.953 1.978-20.782-8.473zM144.41 120.028l.316-34.58 2.076-1.025-.337 34.5z"/><path d="M143.53 125.608l-30.459 7.259-1.954-2.453 30.43-7.203z" fill="#080808"/><path d="M146.41 38.338l-20.743-8.563 1.213-3.586 20.782 8.472z" fill="#040404"/><path d="M51.76 128.618l-3.042 2.074-1.384-.77 2.668-.996z"/><path d="M144.33 129.318l-30.445 7.322-.813-3.775 30.459-7.258z" fill="#353535"/><path d="M47.34 129.928l1.384.77-1.203 3.603-.507-1.367z"/><path d="M150.13 77.598l2.019 2.325-2.834.765-2.097-1.085z" fill="#080808"/><path d="M145.98 83.218l1.235-3.61 2.097 1.086-.103 3.214z" fill="#282828"/><path d="M48.25 168.278l18.806 12.252 1.33 2.974-18.808-12.308z"/><path d="M152.96 83.678l-3.743.232.103-3.213 2.834-.765z" fill="#474747"/><path d="M84.37 31.918l-1.968-.987L85.4 28.98l1.89 2.23z" fill="#010101"/><path d="M84.37 31.918l-.062 3.252-3.12-.602 1.214-3.637z" fill="#202020"/><path d="M142.28 34.248l-20.715-8.49 2.91.874 20.749 8.495z"/><path d="M107 170.218l-.093-34.1 3.183.79.059 34.155z" fill="#232323"/><path d="M80.04 81.178l-31.632 6.513-.816-3.786 31.646-6.449z" fill="#3a3a3a"/><path d="M143.55 122.888l-30.485 7.218.81-2.895 30.535-7.184zM47.27 126.648l-.459-3.077.508 1.342 1.347 3.034z"/><path d="M84.37 31.918l2.92-.707.81 3.757-3.792.202z" fill="#4b4b4b"/><path d="M146.08 73.718l3.239.674.038 2.974-2.105-.536z" fill="#080808"/><path d="M110.15 171.068l-.059-34.154 3.797-.266.017 34.136z" fill="#414141"/><path d="M182.63 29.308l-29.969 5.639-2.048-2.264 29.942-5.589z"/><path d="M153.07 74.158l-.885 2.983-2.83.218-.039-2.974z" fill="#272727"/><path d="M146.44 81.308l-2.516.377-2.011-2.34 2.903.774z"/><path d="M44.56 87.928l.772 34.776-3.04-.76-.804-34.72z" fill="#1f1f1f"/><path d="M183.44 33.048l-29.954 5.703-.817-3.8 29.969-5.638z" fill="#2f2f2f"/><path d="M81.38 32.458l-2.64.29-1.882-2.244 3.047.877z"/><path d="M146.44 81.308l.37 3.117-2.076 1.024-.81-3.764z" fill="#111"/><path d="M48.41 87.688l.73 34.757-3.805.256-.772-34.776z" fill="#454545"/><path d="M81.38 32.458l.43 3.169-2.257.895-.813-3.774z" fill="#191919"/><path d="M105.52 172.958l-.11-34.272 2.199-1.176.085 34.194zM86.23 32.738l2.62-.843 1.883-.597-3.013 1.968zM144.82 75.898l2.082-1.002-.43 3.077-2.524.918z"/><path d="M86.23 32.738l1.49.528-1.224 3.662-.634-1.065zM41.67 38.208l-18.263-8.652 3.057-1.942 18.32 8.59zM40.44 41.928l-18.225-8.745 1.188-3.622 18.263 8.652zM74.06 181.118l31.454-8.16-.785 2.773-31.401 8.191z"/><path d="M111.12 130.418l1.954 2.453-2.905.837-2.032-1.205z" fill="#0f0f0f"/><path d="M146.08 73.718l.337-35.372 3.275.617-.373 35.429z" fill="#2c2c2c"/><path d="M108.03 87.948l-19.924-9.91 2.971-1.995 19.978 9.846z"/><path d="M106.9 136.118l1.23-3.618 2.032 1.205-.079 3.205z" fill="#232323"/><path d="M46.56 89.978l.754 34.936-.507-1.341-.758-34.84z"/><path d="M106.78 91.638L86.895 81.636l1.208-3.595 19.924 9.91z" fill="#010101"/><path d="M149.31 74.388l.373-35.429 3.795-.207-.414 35.41z" fill="#444"/><path d="M113.88 136.648l-3.796.267.079-3.205 2.904-.837z" fill="#484848"/><path d="M44.6 84.688l-1.9-1.105 3.07-2.03 1.823 2.357z" fill="#080808"/><path d="M44.6 84.688l-.037 3.245-3.072-.704 1.209-3.646z" fill="#1c1c1c"/><path d="M44.6 84.688l2.993-.778.816 3.786-3.846.237z" fill="#4c4c4c"/><path d="M106.88 126.698l3.193.777.09 2.927-2.034-.66z"/><path d="M113.88 127.218l-.81 2.895-2.908.294-.09-2.927z" fill="#242424"/><path d="M102.65 132.418l3.009.669 1.544 1.323-2.608.477zM44.53 81.318l-1.89-.55-1.367-3.138 3.08.688z"/><path d="M105.41 138.678l-.817-3.793 2.608-.477.408 3.094z" fill="#161616"/><path d="M147.25 39.418l-.347 35.472-2.082 1.002.325-35.558z"/><path d="M44.53 81.318l-.176-3 3.858-.231-.674 3.006z" fill="#2c2c2c"/><path d="M149.79 35.668l-2.128-1.006 2.953-1.978 2.048 2.264z" fill="#020202"/><path d="M149.79 35.668l-.105 3.287-3.275-.617 1.252-3.676z" fill="#272727"/><path d="M143.92 81.688l-30.883 6.596-1.981-2.394 30.854-6.542z" fill="#020202"/><path d="M78.73 32.748l-32.104 5.76-1.847-2.297 32.07-5.707z"/><path d="M149.79 35.668l2.873-.72.817 3.8-3.795.207z" fill="#474747"/><path d="M141.91 79.348l-30.854 6.542 1.979-.444 30.91-6.553zM107.19 131.108l-2.608 1.013.796-2.905 2.205-1.154zM46.38 85.638l2.706-.937 1.78-.444-3.085 2.048z"/><path d="M113.04 88.278l30.883-6.596.81 3.763-30.87 6.662z" fill="#343434"/><path d="M46.38 85.638l1.4.667-1.22 3.671-.51-1.243zM67.76 142.088l-19.036-11.393 3.042-2.074 19.093 11.324z"/><path d="M79.55 36.518l-32.09 5.825-.828-3.84 32.104-5.76z" fill="#393939"/><path d="M66.51 145.788l-18.996-11.485 1.203-3.604 19.036 11.393zM67.06 180.528l3.145.883.143 2.88-1.959-.79z"/><path d="M74.06 181.118l-.732 2.804-2.988.373-.143-2.88z" fill="#202020"/><path d="M142.28 34.248l2.943.88 1.648 1.098-2.55.3z"/><path d="M113.86 82.408l30.961-6.515-.872 2.993-30.91 6.553z" fill="#030303"/><path d="M46.35 80.328l1.368 3.156-1.413-1.212-.466-3.16zM67.71 139.278l-19.051-11.33-1.347-3.034 19.049 11.269z"/><path d="M146.87 36.218l.375 3.201-2.105.917-.82-3.818z" fill="#101010"/><path d="M110.01 92.358l.06 35.122-3.192-.777-.096-35.066z" fill="#252525"/><path d="M43.56 42.558l.794 35.765-3.08-.689-.827-35.706z" fill="#212121"/><path d="M113.86 92.108l.018 35.103-3.808.261-.06-35.122z" fill="#434343"/><path d="M47.46 42.348l.75 35.745-3.858.232-.794-35.765z" fill="#484848"/><path d="M70.86 139.948l31.79-7.524 1.945 2.468-31.824 7.584z" fill="#0b0b0b"/><path d="M107.49 92.898l.088 35.165-2.205 1.154-.113-35.248zM107.92 42.118l-20.2-8.852 3.013-1.968 20.255 8.788z"/><path d="M72.77 142.478l31.824-7.584.817 3.793-31.808 7.65z" fill="#393939"/><path d="M106.66 45.868l-20.159-8.947 1.225-3.662 20.2 8.853z"/><path d="M43.59 39.238l-1.925-1.024 3.115-2.004 1.847 2.296z" fill="#010101"/><path d="M45.58 44.388l.776 35.935-.512-1.216-.779-35.832z"/><path d="M43.59 39.238l-.037 3.32-3.114-.63 1.226-3.714z" fill="#1b1b1b"/><path d="M67.06 180.528l-.542-34.746 3.178.827.509 34.801z" fill="#1e1e1e"/><path d="M110.09 89.078l-2.06-1.127 3.024-2.06 1.982 2.395z" fill="#090909"/><path d="M110.09 89.078l-.08 3.28-3.228-.721 1.247-3.686z" fill="#232323"/><path d="M43.59 39.238l3.037-.732.828 3.84-3.902.212z" fill="#4c4c4c"/><path d="M70.2 181.408l-.508-34.8 3.906-.28.465 34.784z" fill="#414141"/><path d="M73.47 136.718l31.906-7.507-.796 2.905-31.852 7.541z" fill="#010101"/><path d="M110.09 89.078l2.946-.792.824 3.829-3.85.242z" fill="#494949"/><path d="M85.21 33.718l20.161 8.877-3.096-.883-20.122-8.873z"/><path d="M110.08 85.678l-2.062-.567-1.267-3.166 3.238.704z" fill="#030303"/><path d="M110.08 85.678l-.091-3.029 3.862-.237-.822 3.032z" fill="#292929"/><path d="M107.08 89.718l-2.645.401-1.972-2.41 3.051.774zM144.32 36.518L113 42.411l-2.01-2.33 31.29-5.84z"/><path d="M107.08 89.718l.414 3.178-2.23 1.07-.829-3.847z" fill="#161616"/><path d="M45.4 40.088l2.746-.874 1.803-.588-3.131 2.021z"/><path d="M145.14 40.338l-31.304 5.96-.836-3.885 31.32-5.892z" fill="#333"/><path d="M45.4 40.088l1.418.56-1.237 3.74-.514-1.113zM107.07 86.318l-2.646.953.807-3.042 2.238-1.047z"/><path d="M70.86 139.948l1.912 2.528-3.02.868-1.991-1.253z" fill="#101010"/><path d="M66.51 145.788l1.242-3.695 1.991 1.252-.054 3.27z" fill="#1e1e1e"/><path d="M67.07 96.668L47.784 86.31l3.086-2.049 19.345 10.29z"/><path d="M65.81 100.428L46.565 89.974l1.22-3.67L67.07 96.66z"/><path d="M73.6 146.328l-3.906.279.054-3.27 3.02-.868z" fill="#4a4a4a"/><path d="M109.93 46.518l.062 36.133-3.238-.704-.098-36.073z" fill="#282828"/><path d="M66.36 136.188l3.188.812.146 2.98-1.984-.697zM46.35 80.328l19.299 10.224 1.37 3.223-19.302-10.291z"/><path d="M113.84 46.298l.019 36.113-3.862.237-.062-36.133z" fill="#464646"/><path d="M73.47 136.718l-.742 2.94-3.03.314-.146-2.98z" fill="#252525"/><path d="M107.38 46.998l.09 36.178-2.236 1.047-.117-36.267z"/><path d="M104.44 90.118l-32.287 6.896-1.938-2.467 32.252-6.838z" fill="#050505"/><path d="M110.01 43.158l-2.09-1.045 3.069-2.031 2.009 2.33z" fill="#030303"/><path d="M110.01 43.158l-.081 3.356-3.274-.645 1.265-3.756z" fill="#232323"/><path d="M105.26 93.968l-32.271 6.965-.844-3.916 32.287-6.896z" fill="#383838"/><path d="M110.01 43.158l2.988-.746.836 3.885-3.905.217z" fill="#494949"/><path d="M104.43 87.268L72.114 94.12l.751-3.082 32.372-6.812z" fill="#060606"/><path d="M69.03 101.188L69.553 137l-3.188-.812-.559-35.752z" fill="#202020"/><path d="M106.96 43.738l-2.683.321-2-2.346 3.095.884z"/><path d="M72.99 100.928l.478 35.791-3.918.273-.523-35.81z" fill="#434343"/><path d="M106.96 43.738l.42 3.267-2.263.958-.84-3.904z" fill="#151515"/><path d="M66.36 49.908L46.818 40.65l3.131-2.021 19.603 9.19zM65.08 53.748l-19.5-9.357 1.237-3.74 19.542 9.258z"/><path d="M69.08 97.838l-2.019-1.172 3.146-2.117 1.938 2.467z" fill="#0a0a0a"/><path d="M69.08 97.838l-.055 3.348-3.223-.754 1.26-3.766z" fill="#1e1e1e"/><path d="M69.08 97.838l3.065-.822.844 3.916-3.964.254z" fill="#4b4b4b"/><path d="M69.03 94.368l-2.012-.6-1.37-3.223 3.233.737z"/><path d="M69.03 94.368l-.149-3.086 3.976-.248-.751 3.082z" fill="#2a2a2a"/><path d="M104.28 44.058l-32.764 6.165-1.965-2.401 32.728-6.11z"/><path d="M105.12 47.958l-32.748 6.235-.856-3.974 32.764-6.165z" fill="#373737"/><path d="M68.35 54.418l.538 36.865-3.233-.737-.575-36.802z" fill="#232323"/><path d="M72.37 54.198l.492 36.844-3.976.248-.538-36.865z" fill="#474747"/><path d="M68.4 50.998l-2.047-1.086 3.192-2.088 1.966 2.401z" fill="#030303"/><path d="M68.4 50.998l-.055 3.428-3.27-.675 1.278-3.839z" fill="#1e1e1e"/><path d="M68.4 50.998l3.11-.773.857 3.974-4.022.227z" fill="#4b4b4b"/><g fill="#dbdb14"><path d="M81.27 4.687L109.786 0l18.738 7.175-28.913 4.918zM43.66 10.868L73.347 5.99l18.226 7.47-30.13 5.125zM104.76 14.173l29.022-4.983 19.93 7.63-29.425 5.238zM53.06 20.01l-31.426 5.345L4.472 17.31l30.932-5.084zM66.44 20.754l30.252-5.195 19.411 7.956-30.704 5.465zM129.78 24.276l29.535-5.31 21.24 8.133-29.942 5.59zM26.46 27.62l31.562-5.42 18.828 8.302-32.07 5.707zM90.74 31.295l30.829-5.542 20.715 8.49-31.289 5.84zM49.94 38.63l32.209-5.791 20.122 8.872-32.728 6.11z"/></g><g fill="#a70000"><path d="M4.48 139.758l-1.136-32.166 16.69 10.09.99 32.856zM3.03 98.718L1.864 65.702l16.878 9.168 1.018 33.746zM1.54 56.588l-1.197-33.9 17.07 8.191 1.046 34.672zM25.67 153.568l-.948-33.048 17.787 10.754.782 33.775zM24.46 111.398l-.974-33.95 18.003 9.779.804 34.72zM23.22 68.068L22.219 33.18l18.225 8.745.826 35.706zM48.25 168.278l-.733-33.979 18.996 11.485.542 34.746zM47.31 124.918l-.754-34.936L65.8 100.436l.558 35.752zM46.35 80.328l-.776-35.935 19.5 9.357.575 36.802z"/></g><g fill="#118d00"><path d="M152.05 160.878l.392-33.512 29.167-7.015-.69 33.037zM152.55 118.118l.403-34.44 29.556-6.38-.71 33.939zM153.07 74.158l.414-35.41 29.954-5.703-.728 34.876zM113.88 127.218l-.018-35.103 30.869-6.662-.316 34.581zM105.41 138.678l.11 34.272-31.454 8.16-.464-34.782zM113.86 82.408l-.018-36.113 31.304-5.96-.325 35.558zM73.47 136.718l-.478-35.79 32.271-6.965.113 35.248zM72.86 91.038l-.492-36.844 32.748-6.235.116 36.267zM144.33 129.318l-.307 33.644-30.12 7.815-.018-34.136z"/></g></svg>