<svg viewBox="0 0 420 224" xmlns="http://www.w3.org/2000/svg" xmlns:xlink="http://www.w3.org/1999/xlink"><defs><linearGradient id="c"><stop offset="0"/><stop stop-opacity="0" offset="1"/></linearGradient><linearGradient id="a"><stop stop-color="#fffcc5" offset="0"/><stop stop-color="#dbd7a7" offset=".78"/><stop stop-color="#716e49" offset="1"/></linearGradient><linearGradient id="b"><stop stop-color="#fff" offset="0"/><stop stop-color="#fff" stop-opacity=".383" offset="1"/></linearGradient><radialGradient id="f" cx="1071.8" cy="-103.91" r="100.5" gradientUnits="userSpaceOnUse" xlink:href="#a"/><linearGradient id="i" x1="1131.8" x2="1067.5" y1="-158.78" y2="-156.76" gradientTransform="matrix(-1 0 0 1 1171.4 195.75)" gradientUnits="userSpaceOnUse" xlink:href="#b"/><radialGradient id="j" cx="1003.6" cy="-113.35" r="33.912" gradientTransform="matrix(3.0372 0 0 1.6786 -1994.4 54.504)" gradientUnits="userSpaceOnUse" xlink:href="#b"/><filter id="n" x="-.275" y="-.445" width="1.55" height="1.889" color-interpolation-filters="sRGB"><feGaussianBlur stdDeviation="9.172"/></filter><filter id="m" x="-.128" y="-.113" width="1.256" height="1.226" color-interpolation-filters="sRGB"><feGaussianBlur stdDeviation="1.434"/></filter><radialGradient id="l" cx="1003.6" cy="-113.35" r="33.912" gradientTransform="matrix(-.67103 1.1652 -.73173 -.42141 738.97 -1134.1)" gradientUnits="userSpaceOnUse" xlink:href="#b"/><filter id="k" x="-.095" y="-.152" width="1.191" height="1.304" color-interpolation-filters="sRGB"><feGaussianBlur stdDeviation="2.605"/></filter><linearGradient id="q" x1="1131.8" x2="1067.5" y1="-158.78" y2="-156.76" gradientTransform="matrix(-.84725 0 0 1 1212.3 199.28)" gradientUnits="userSpaceOnUse" xlink:href="#b"/><radialGradient id="g" cx="1277.3" cy="-137.22" r="100.5" gradientTransform="translate(-641.67 73.934) scale(1.5022)" gradientUnits="userSpaceOnUse"><stop stop-color="#fff" offset="0"/><stop stop-color="#141414" offset=".5"/><stop offset="1"/></radialGradient><radialGradient id="e" cx="1071.8" cy="-5.688" r="100.5" gradientTransform="matrix(1 0 0 .15391 0 1.905)" gradientUnits="userSpaceOnUse" xlink:href="#c"/><radialGradient id="d" cx="1286.9" cy="-1.438" r="100.5" gradientTransform="matrix(1 0 0 .15391 0 7.269)" gradientUnits="userSpaceOnUse" xlink:href="#c"/><radialGradient id="o" cx="1003.6" cy="-113.35" r="33.912" gradientTransform="matrix(-3.5839 2.0691 -.50964 -.88272 3846.6 -2139.6)" gradientUnits="userSpaceOnUse" xlink:href="#b"/><filter id="p" x="-.043" y="-.107" width="1.085" height="1.215"><feGaussianBlur stdDeviation="2.129"/></filter><filter id="r" x="-.054" y="-.242" width="1.107" height="1.484"><feGaussianBlur stdDeviation="2.129"/></filter><radialGradient id="s" cx="1068" cy="-132.57" r="100" gradientTransform="matrix(1.2853 0 0 2.1607 -1061.4 258.52)" gradientUnits="userSpaceOnUse" xlink:href="#a" spreadMethod="reflect"/><radialGradient id="h" cx="1072.1" cy="-104.77" r="100" gradientTransform="matrix(1.2991 0 0 2.1839 -1289.9 262.74)" gradientUnits="userSpaceOnUse" spreadMethod="reflect"><stop stop-color="#e0541d" offset="0"/><stop stop-color="#e84d10" offset=".5"/><stop stop-color="#2c0d00" offset="1"/></radialGradient></defs><g color="#000"><path d="M1387.4 7.047c0 8.543-44.995 15.468-100.5 15.468s-100.5-6.925-100.5-15.468c0-8.542 44.995-15.468 100.5-15.468s100.5 6.925 100.5 15.468z" fill="url(#d)" transform="translate(-971.27 201.49)"/><path d="M1172.3 1.03c0 8.543-44.995 15.468-100.5 15.468S971.3 9.573 971.3 1.03c0-8.542 44.995-15.468 100.5-15.468s100.5 6.925 100.5 15.468z" fill="url(#e)" transform="translate(-971.27 201.49)"/><path d="M1172.3-97.437c0 55.505-44.995 100.5-100.5 100.5s-100.5-44.995-100.5-100.5 44.995-100.5 100.5-100.5 100.5 44.995 100.5 100.5z" fill="url(#f)" transform="translate(-971.27 201.49)"/><path d="M1387.4-95.417c0 55.505-44.995 100.5-100.5 100.5s-100.5-44.995-100.5-100.5 44.995-100.5 100.5-100.5 100.5 44.995 100.5 100.5z" fill="url(#g)" transform="translate(-971.27 201.49)"/></g><path d="M13.956 53.411c-19.367 32.768-17.597 76.513 4.548 107.52 8.46 13.534 24.867 18.451 39.433 22.314 30.058 6.758 61.96 6.521 91.706-1.703 13.611-3.972 27.994-10.223 34.967-23.412 20.373-30.774 21.338-72.87 2.653-104.65-.798 12.724-13.606 19.638-23.937 24.251C134.42 89.17 102.371 90.606 71.8 86.645c-18.296-2.973-37.864-7.283-51.837-20.279-3.387-3.452-6.062-7.974-6.008-12.95zm86.637 48.167c20.769-.598 39.16 18.744 37.506 39.455-.476 20.782-20.755 38.114-41.344 35.429-20.731-1.535-36.987-22.66-33.283-43.077 2.465-17.915 19.031-32.118 37.122-31.806z" fill="url(#h)"/><path d="M44.29 49.459a27.027 27.027 0 0 1 3.683-2.847c1.5-.969 3.185-1.907 5.038-2.779s3.862-1.679 6.032-2.44c2.17-.76 4.486-1.464 6.936-2.1s5.033-1.22 7.726-1.718c2.694-.497 5.505-.92 8.405-1.265 2.9-.345 5.898-.611 8.97-.79 3.07-.18 6.215-.272 9.42-.272 3.216 0 6.364.09 9.444.271 3.08.18 6.084.444 8.992.791 2.907.347 5.728.788 8.427 1.288 2.698.5 5.273 1.078 7.726 1.717 2.453.64 4.788 1.337 6.959 2.101s4.18 1.586 6.032 2.463c1.852.876 3.542 1.805 5.038 2.779a26.701 26.701 0 0 1 3.592 2.801c-13.255-15.212-33.479-24.987-56.21-24.987-22.736 0-42.956 9.775-56.21 24.987z" fill="url(#i)"/><g color="#000"><path transform="matrix(1.3561 0 0 1.8279 -1327.5 288.29)" d="M1029.4-140.83s-40.528 12.854-31.752 26.333c6.515 14.632 43.36 14.838 43.36 14.838l20.869-38.228z" fill="url(#j)" filter="url(#k)"/><path d="M151.61 56.223c-6.493 1.988-14.451 5.907-15.063 15.062 6.056 4.198 11.031 15.438 11.031 15.438 6.925-2.77 16.006-2.677 15.812-14.938 0 0-3.966-15.546-11.781-15.562z" fill="url(#l)" filter="url(#m)" opacity=".609"/><path transform="translate(-1167.1 228.45) scale(1.2052)" d="M1090.1-142.14c0 13.668-17.928 24.749-40.044 24.749-22.116 0-40.044-11.08-40.044-24.749s17.928-24.749 40.044-24.749c22.116 0 40.044 11.08 40.044 24.749z" fill="#fff" filter="url(#n)"/><path d="M115.66 122.88c-4.427.094-8.82 1.045-12.938 2.656.494 2.23.103 5.938 1.031 7.25 3.677-1.984 8.04-3.561 12.22-2.375 2.67 1.123 2.437 5.49-.47 6.125-2.34.934-4.894.698-7.343 1.063.36 2.055.032 4.994.875 6.5 3.232-.183 6.866-1.197 9.75.812 2.689 2.278.344 6.59-2.875 6.656-4.157 1.028-8.515.117-12.406-1.468.648 2.483-.19 6.193 1.312 7.906 6.609 1.416 13.828 1.154 19.938-1.938 3.261-1.808 5.281-5.525 4.813-9.25-.203-3.521-2.557-7.117-6.188-7.78-.311-1.2 2.923-1.842 3.125-3.595 2.181-4.208.16-10.17-4.5-11.625-2.016-.758-4.206-.952-6.344-.937zm-31.688 1.188c-2.618.72-6.32.5-8.25 1.812.257 1.96-.866 5.374.219 6.375 2.308-.083 5.753-1.495 7.375-.813l-.782 20.094c-2.415.195-5.925-.763-7.656.157.153 2.054-.676 5.083.125 6.53 7.997.343 16.003.594 24 .938-.197-2.182.88-5.552-.187-6.968-2.225-.337-5.612.325-7.094-.72.344-9.023.721-18.037 1.031-27.061-2.928-.072-5.853-.244-8.781-.344z" style="block-progression:tb;text-indent:0;text-transform:none"/><path d="M297.72 35.062A93.862 93.862 0 0 0 264.782 41c-7.6 4.243-9.056 9.589-16.188 17.061 11.25-3.56 23.646-5.562 36.656-5.562 2.302 0 4.584.066 6.844.187l10.562-17.5a94.62 94.62 0 0 0-4.938-.125zm15.156 1.219l-12 17.188c13.589 1.698 26.18 5.577 37.094 11.125l8.906-15.656a93.3 93.3 0 0 0-34-12.656zm38.438 15.562l-9.531 14.812c7.918 4.475 14.835 9.873 20.469 15.969l4.969-10.25c.958-1.988 1.134-3.896.78-5.719a94.393 94.393 0 0 0-16.687-14.812z" fill="url(#o)" filter="url(#p)"/></g><path d="M257.43 52.995a23.842 23.842 0 0 1 3.12-2.847 35.346 35.346 0 0 1 4.269-2.779 49.563 49.563 0 0 1 5.11-2.44 65.778 65.778 0 0 1 5.877-2.1 81.927 81.927 0 0 1 6.546-1.718 96.571 96.571 0 0 1 7.12-1.265c2.458-.345 4.998-.611 7.6-.79a115.95 115.95 0 0 1 7.982-.272c2.724 0 5.392.09 8.001.271 2.61.18 5.155.444 7.618.791 2.464.347 4.854.788 7.14 1.288 2.286.5 4.468 1.078 6.546 1.717a65.86 65.86 0 0 1 5.896 2.101 49.248 49.248 0 0 1 5.11 2.463c1.57.876 3.001 1.805 4.27 2.779a23.604 23.604 0 0 1 3.043 2.801c-11.23-15.212-29.425-21.098-48.685-21.098-19.263 0-35.334 5.886-46.563 21.098z" fill="url(#q)" filter="url(#r)"/><path d="M313.03 99.062c-14.109.379-27.509 9.58-32.875 22.656-5.783 13.264-2.782 29.747 7.344 40.094 9.743 10.487 25.808 14.336 39.25 9.437 13.932-4.736 24.196-18.435 24.75-33.156.926-14.306-7.368-28.59-20.188-34.969a37.043 37.043 0 0 0-16.906-4.062 34 34 0 0 0-1.375 0z" fill="url(#s)"/><path d="M313.56 117.12c-5.274.269-10.123 2.884-14.376 5.837-3.109 2.239-6.117 5.785-5.474 9.883.734 4.46 4.777 8.319 9.425 8.143.984.2 3.278-.523 3.482-.24-2.676 2.471-4.528 6.372-3.13 9.98 1.602 4.454 5.824 8.135 10.708 8.122 5.637.03 10.88-2.694 15.41-5.827 3.361-2.377 6.456-6.204 5.834-10.576-.72-4.745-4.437-9.32-9.428-9.775-1.826-.214-3.675.015-5.45.453 2.552-2.35 4.236-6.156 2.795-9.544-1.37-3.632-4.9-6.426-8.853-6.444-.314-.016-.628-.02-.943-.012zm-3.688 7.875c2.92.033 5.275 3.06 5.006 5.872-.577 2.641-3.467 4.16-5.996 4.27-2.911-.012-5.287-3.027-5.046-5.829.554-2.624 3.555-4.207 6.037-4.313zm8.813 13.688c3.58-.283 6.419 3.17 6.761 6.487.176 3.08-2.908 5.043-5.548 5.709-2.98.853-5.92-1.262-7.076-3.932-1.25-2.17-.582-5.116 1.542-6.474 1.272-.906 2.744-1.652 4.321-1.79z"/></svg>