<svg enable-background="new" viewBox="0 0 251.31 227.92" xmlns="http://www.w3.org/2000/svg" xmlns:xlink="http://www.w3.org/1999/xlink"><defs><linearGradient id="b"><stop stop-color="#fff" offset="0"/><stop stop-color="#fff" stop-opacity="0" offset="1"/></linearGradient><linearGradient id="a"><stop stop-color="#ffcaa6" offset="0"/><stop stop-color="#d54800" offset=".786"/><stop stop-color="#8d3d17" offset="1"/></linearGradient><filter id="i" x="0" y="0" width="1" height="1" color-interpolation-filters="sRGB"><feTurbulence baseFrequency="1" numOctaves="3" result="result0" type="fractalNoise"/><feColorMatrix result="result4" type="saturate" values="0"/><feComposite in="SourceGraphic" in2="result4" k1="1.25" k2=".5" k3=".5" operator="arithmetic" result="result2"/><feBlend in="result2" in2="SourceGraphic" result="result5"/><feComposite in="result5" in2="SourceGraphic" operator="in" result="result3"/></filter><filter id="h" color-interpolation-filters="sRGB"><feBlend in2="BackgroundImage" mode="multiply"/></filter><radialGradient id="d" cx="224.32" cy="98.154" r="100" gradientTransform="translate(-107.84 -26.469) scale(1.1233)" gradientUnits="userSpaceOnUse" xlink:href="#a"/><radialGradient id="c" cx="197.82" cy="221.03" r="99.943" gradientTransform="matrix(1 0 0 .14054 -13.435 194.06)" gradientUnits="userSpaceOnUse"><stop offset="0"/><stop stop-opacity="0" offset="1"/></radialGradient><radialGradient id="e" cx="127.99" cy="56.796" r="58.69" gradientTransform="translate(133.24 125.67) scale(.76146)" gradientUnits="userSpaceOnUse" xlink:href="#b"/><radialGradient id="f" cx="127.99" cy="56.796" r="58.69" gradientTransform="translate(114.59 39.618) scale(.79201)" gradientUnits="userSpaceOnUse" xlink:href="#b"/><radialGradient id="g" cx="148.95" cy="63.394" r="98.406" gradientTransform="matrix(1.6383 0 0 1.6094 -96.24 -38.448)" gradientUnits="userSpaceOnUse" xlink:href="#a"/></defs><g color="#000"><path d="M184.41 211.07c-39.897-.072-78.394 3.585-92.812 8.81-5.391 1.909-7.469 4-7.125 6.045 1.97 6.129 35.905 11.708 78.781 12.916 39.662 1.255 83.688-1.277 105.31-6.124 22.405-4.815 20.914-11.56-4.469-16.101-18.622-3.43-48.84-5.601-79.688-5.546z" enable-background="accumulate" fill="url(#c)" transform="translate(-80.19 -14.37)"/><path d="M117.66 15.125c-39.897-.515-78.394 25.535-92.812 62.75-5.391 13.598-7.469 28.496-7.125 43.062 1.97 43.655 35.905 83.393 78.781 92 39.662 8.937 83.688-9.096 105.31-43.625 22.405-34.293 20.914-82.344-4.469-114.69-18.622-24.432-48.84-39.895-79.688-39.5z" enable-background="accumulate" fill="url(#d)"/><path d="M230.68 124.23c-24.681 0-44.688 20.006-44.688 44.688s20.006 44.688 44.688 44.688 44.717-20.006 44.717-44.688-20.036-44.688-44.717-44.688z" enable-background="accumulate" fill="url(#e)" opacity=".377" transform="translate(-80.19 -14.37)"/><path d="M215.94 38.12c-25.672 0-46.48 20.809-46.48 46.48 0 25.672 20.809 46.48 46.48 46.48 25.672 0 46.511-20.809 46.511-46.48 0-25.672-20.839-46.48-46.511-46.48z" enable-background="accumulate" fill="url(#f)" opacity=".484" transform="translate(-80.19 -14.37)"/><path d="M144.34 21.406c3.377 6.53 5.811 14.419 7.406 23.188-9.402-2.227-18.628-5.852-27.875-9.406-11.864-4.56-23.785-8.969-36.25-9.781a60.1 60.1 0 0 0-4.687-.125c-1.522.019-3.057.105-4.594.25-3.51 2.247-7.975 3.895-11.562 5.406 7.05-2.378 13.914-3.002 20.656-2.563 11.84.772 23.445 5.013 35.28 9.563 9.627 3.7 19.402 7.552 29.563 9.812.717 4.617 1.207 9.487 1.5 14.5-10.932-2.132-22.378-3.328-33.844-3.562-1.374-.028-2.75-.03-4.125-.031-37.81-.02-75.414 10.34-95.125 32.406A105.646 105.646 0 0 0 19.37 97.5c18.035-24.723 59.397-36.59 100.5-35.75 11.59.237 23.098 1.498 34.062 3.719.005.114.027.23.032.344.232 5.993.163 12.203-.125 18.53-1.84-.256-3.702-.443-5.563-.468-.8-.011-1.604 0-2.406.031-7.704.306-15.42 2.568-22.656 6.875-25.843 15.381-61.664 46.988-84.219 85.906.678.863 1.389 1.721 2.094 2.563 22.198-38.84 58.194-70.727 83.75-85.938 9.28-5.524 19.286-7.54 28.875-6.125-.845 14.846-2.99 30.25-6.094 45.03-4.632 22.063-11.37 42.74-18.844 58.032-3.737 7.645-7.647 13.95-11.531 18.375-2.393 2.725-4.785 4.701-7.031 5.906 1.666.114 3.344.181 5.031.219 1.46-1.188 2.89-2.6 4.312-4.22 4.15-4.726 8.22-11.231 12.031-19.03 7.625-15.6 14.36-36.465 19.031-58.72 3.104-14.78 5.287-30.152 6.157-45.03 8.098 1.83 15.763 6.154 22.312 12.969 13.63 14.182 22.235 39.33 18.188 75.188 1.266-1.674 2.442-3.424 3.593-5.188 2.688-33.594-5.816-57.762-19.5-72-7.063-7.35-15.52-11.955-24.438-13.844.301-6.375.347-12.649.125-18.719 25.426 5.638 47.384 16.565 59.125 32.281-.35-2.155-.73-4.31-1.218-6.437-13.05-14.317-34.168-24.021-58.062-29.125a158.437 158.437 0 0 0-1.438-14.47c1.278.237 2.584.48 3.875.657 9.622 1.315 19.648.792 30.156-2.937-.816-.766-1.627-1.543-2.469-2.282-9.472 3.12-18.456 3.484-27.25 2.282a79.766 79.766 0 0 1-4.78-.782c-1.446-8.445-3.644-16.182-6.75-22.844-1.292-.385-2.595-.756-3.907-1.094z" enable-background="accumulate" fill="url(#g)" style="block-progression:tb;text-indent:0;text-transform:none"/><path d="M143.56 18.916c3.277 6.615 5.645 14.596 7.193 23.478-9.124-2.255-18.086-5.928-27.06-9.528-11.512-4.62-23.09-9.079-35.184-9.902a55.815 55.815 0 0 0-4.546-.124c-1.477.02-2.961.102-4.453.249-3.406 2.276-7.728 3.95-11.21 5.48 6.842-2.408 13.479-3.06 20.021-2.616 11.49.782 22.766 5.076 34.251 9.684 9.341 3.748 18.817 7.675 28.678 9.964.696 4.677 1.179 9.588 1.464 14.666-10.61-2.16-21.724-3.375-32.85-3.612-1.334-.028-2.652-.03-3.986-.03-38.474-.021-76.761 11.53-95.001 36.181-.934 1.32.036 1.668-.311 3.3-.213.884-.65 3.23-1.028 3.893l.156.093c15.829-27.833 58.1-41.219 100.11-40.323 11.246.24 22.429 1.518 33.068 3.768.005.115.027.227.03.342.226 6.071.156 12.366-.124 18.776-1.786-.26-3.58-.44-5.387-.467a42.076 42.076 0 0 0-2.335.031c-7.475.31-14.992 2.612-22.014 6.975-25.458 15.817-60.884 48.557-82.7 88.804.68.836 1.379 1.647 2.085 2.46 21.455-40.107 57.05-73.084 82.203-88.71 9.005-5.595 18.72-7.63 28.024-6.197-.82 15.038-2.904 30.646-5.916 45.617-4.495 22.348-11.025 43.268-18.278 58.757-3.626 7.744-7.44 14.139-11.21 18.62-2.322 2.76-4.64 4.758-6.819 5.978 1.617.116 3.252.18 4.889.218 1.417-1.203 2.823-2.625 4.203-4.266 4.027-4.787 7.946-11.374 11.645-19.274 7.4-15.8 13.962-36.932 18.496-59.473 3.012-14.973 5.104-30.546 5.948-45.617 7.858 1.854 15.316 6.238 21.672 13.14 13.607 14.778 22.02 41.302 17.25 79.307a100.005 100.005 0 0 0 3.55-4.546c3.556-36.042-4.815-61.824-18.59-76.785-6.854-7.444-15.075-12.13-23.727-14.043.292-6.458.34-12.814.125-18.963 26.85 6.214 49.758 18.771 60.189 37.023-.4-2.609-.88-5.213-1.464-7.753-12.35-16.196-34.092-27.043-58.88-32.57-.261-5.06-.71-9.962-1.37-14.666 1.24.24 2.483.475 3.736.654 9.337 1.332 19.073.82 29.269-2.958-.792-.776-1.58-1.556-2.398-2.304-9.192 3.159-17.903 3.521-26.436 2.304a74.52 74.52 0 0 1-4.64-.81c-1.401-8.555-3.523-16.387-6.538-23.135a99.192 99.192 0 0 0-3.799-1.09z" enable-background="accumulate" style="block-progression:tb;text-indent:0;text-transform:none"/></g><g transform="translate(-80.19 -14.37)" fill="none" filter="url(#h)" opacity=".345"><path d="M97.844 29.5h200v200h-200z"/><path d="M197.84 29.5c-14.481-.018-28.964 3.131-42.094 9.25-7.688 4.167-15.736 8.302-22.375 14.344-16.619 13.968-28.514 33.469-33.156 54.688-1.022 9.49-3.517 19.431-2.094 29.406 2.517 39.952 31.644 76.371 69.97 87.812 36.23 11.689 78.515.258 103.78-28.25 26.881-28.804 33.671-74.008 16.624-109.5-15.825-34.691-52.47-58.188-90.656-57.75z" color="#000" enable-background="accumulate"/><path d="M197.84 29.5c-15.038 0-29.301 3.305-42.094 9.25-.645.784-1.805 1.589-3.313 2.25-.936.411-1.888.695-2.78.875-24.784 13.656-43.149 37.499-49.439 65.906.404 1.03.454 2.557.063 4.188-.298 1.237-.788 2.295-1.375 3.062a100.734 100.734 0 0 0-1.063 14.469c0 55.228 44.772 100 100 100s100-44.772 100-100-44.772-100-100-100z" color="#000" enable-background="accumulate" filter="url(#i)"/></g></svg>