<svg viewBox="0 0 256 256" xmlns="http://www.w3.org/2000/svg" xmlns:xlink="http://www.w3.org/1999/xlink"><defs><linearGradient id="c"><stop stop-color="#fff" offset="0"/><stop stop-color="#fff" stop-opacity="0" offset="1"/></linearGradient><linearGradient id="a"><stop offset="0"/><stop stop-opacity="0" offset="1"/></linearGradient><linearGradient id="d"><stop stop-color="#fff" offset="0"/><stop stop-color="#484848" offset=".607"/><stop stop-color="#242424" offset=".782"/><stop offset="1"/></linearGradient><linearGradient id="b"><stop stop-color="#fff" offset="0"/><stop stop-color="#fff" offset=".238"/><stop stop-color="#fff" offset=".442"/><stop stop-color="#c8c8c8" offset=".727"/><stop stop-color="#969696" offset="1"/></linearGradient><filter id="A" color-interpolation-filters="sRGB"><feGaussianBlur stdDeviation=".387"/></filter><radialGradient id="e" cx="613.16" cy="665.47" r="100.01" gradientUnits="userSpaceOnUse" xlink:href="#a"/><radialGradient id="f" cx="-311.03" cy="-1.02" r="104.29" gradientTransform="translate(-224.9 30.452) scale(.34365)" gradientUnits="userSpaceOnUse" xlink:href="#b"/><radialGradient id="g" cx="1160.8" cy="738.28" r="27.416" gradientTransform="matrix(1.9546 1.1373 -1.6777 2.9287 458.98 -2785.3)" gradientUnits="userSpaceOnUse" xlink:href="#b"/><radialGradient id="h" cx="1138.7" cy="686.42" r="8.812" gradientTransform="matrix(2.7363 .73895 -4.2488 15.981 1266.1 -11221)" gradientUnits="userSpaceOnUse" xlink:href="#b"/><radialGradient id="i" cx="1242.4" cy="656" r="43.088" gradientTransform="matrix(2.4112 0 0 .50572 -1427.9 283.74)" gradientUnits="userSpaceOnUse" xlink:href="#b"/><radialGradient id="j" cx="1275.4" cy="648.63" r="39.687" gradientTransform="matrix(2.516 0 0 1.365 -1669.9 -234.82)" gradientUnits="userSpaceOnUse" xlink:href="#b"/><radialGradient id="k" cx="1260.8" cy="810.87" r="43.154" gradientTransform="matrix(.98454 0 0 .19311 315.39 638.18)" gradientUnits="userSpaceOnUse" xlink:href="#b"/><radialGradient id="l" cx="1201.1" cy="631.4" r="32.678" gradientTransform="matrix(.90348 1.5772 -1.6041 .93338 1424.4 -1824.3)" gradientUnits="userSpaceOnUse" xlink:href="#b"/><radialGradient id="m" cx="1317.1" cy="705.89" r="27.416" gradientTransform="matrix(1.6331 0 0 2.7551 -547.91 -1280.6)" gradientUnits="userSpaceOnUse" xlink:href="#b"/><radialGradient id="n" cx="1282.7" cy="750.49" r="44.362" gradientTransform="matrix(1.3967 -.49528 .23941 .68578 -398.56 862.76)" gradientUnits="userSpaceOnUse" xlink:href="#b"/><radialGradient id="o" cx="1293.3" cy="670.74" r="39.687" gradientTransform="matrix(1.2225 -.71134 .7423 1.2958 -493.67 712.28)" gradientUnits="userSpaceOnUse" xlink:href="#b"/><radialGradient id="p" cx="1210.3" cy="719.57" r="44.362" gradientTransform="matrix(1.5719 .31954 -.2396 1.1973 -218.92 -545.86)" gradientUnits="userSpaceOnUse" xlink:href="#b"/><radialGradient id="q" cx="1229.2" cy="684.07" r="44.385" gradientTransform="matrix(1.5391 .0479 -.02858 .93268 -344.76 -24.961)" gradientUnits="userSpaceOnUse" xlink:href="#b"/><radialGradient id="z" cx="447.12" cy="70.933" r="115.89" gradientTransform="matrix(-.99384 0 0 .98141 846.27 .274)" gradientUnits="userSpaceOnUse" xlink:href="#b" spreadMethod="reflect"/><radialGradient id="B" cx="-298.16" cy="181.32" r="104.29" gradientTransform="matrix(.96552 0 0 .9528 1586.9 662.41)" gradientUnits="userSpaceOnUse" xlink:href="#a"/><linearGradient id="y" x1="1226.6" x2="1276.7" y1="649.74" y2="710.1" gradientTransform="translate(-595.83 -352.23) scale(1.4895)" gradientUnits="userSpaceOnUse" xlink:href="#c"/><linearGradient id="x" x1="1216.5" x2="1182.8" y1="682.94" y2="715.08" gradientTransform="translate(-595.69 -353.51) scale(1.4895)" gradientUnits="userSpaceOnUse" xlink:href="#c"/><linearGradient id="w" x1="1253.3" x2="1300" y1="665.6" y2="677.02" gradientTransform="matrix(.91406 -.07595 .05218 1.3304 109.03 -147.77)" gradientUnits="userSpaceOnUse" xlink:href="#c"/><linearGradient id="v" x1="1198.7" x2="1214.7" y1="687.96" y2="738.68" gradientTransform="translate(-594.76 -351.16) scale(1.4895)" gradientUnits="userSpaceOnUse" xlink:href="#c"/><linearGradient id="u" x1="1283" x2="1335.5" y1="695.85" y2="692.57" gradientTransform="translate(-.889 1.452)" gradientUnits="userSpaceOnUse" xlink:href="#c"/><linearGradient id="t" x1="1496.4" x2="1517.8" y1="843.25" y2="797.79" gradientTransform="translate(-296.1 -7.64)" gradientUnits="userSpaceOnUse" xlink:href="#d"/><radialGradient id="C" cx="1246.3" cy="639.34" r="37.397" gradientTransform="matrix(1.9536 0 0 1.1573 -1189.5 -102.1)" gradientUnits="userSpaceOnUse" xlink:href="#d"/><linearGradient id="s" x1="514.3" x2="496.77" y1="210.21" y2="195.56" gradientTransform="translate(817.81 574.53)" gradientUnits="userSpaceOnUse" xlink:href="#d"/><linearGradient id="r" x1="1616.3" x2="1644.3" y1="673.86" y2="672.85" gradientTransform="translate(-296.1 -7.64)" gradientUnits="userSpaceOnUse" xlink:href="#d"/></defs><path transform="matrix(1.1577 0 0 .25483 -579.78 53.96)" d="M713.17 665.47a100.01 100.01 0 0 1-100.01 100.01 100.01 100.01 0 0 1-100.01-100.01 100.01 100.01 0 0 1 100.01-100.01 100.01 100.01 0 0 1 100.01 100.01z" fill="url(#e)" opacity=".8"/><path transform="matrix(1.1024 0 0 1.0879 514.1 53.72)" d="M-248.57 61.714a104.29 104.29 0 0 1-104.29 104.29 104.29 104.29 0 0 1-104.29-104.29 104.29 104.29 0 0 1 104.29-104.29 104.29 104.29 0 0 1 104.29 104.29z" fill="url(#f)"/><path d="M1431.9 722.44c-3.723 5.799-6.475 12.312-7.5 19.147 5.626 26.67 22.737 47.754 46.573 61.741-.985-7.297 3.479-13.124 7.41-18.785-7.821-12.945-14.23-26.732-19.716-40.829-11.248-4.158-19.904-11.574-26.767-21.274z" fill="url(#g)" transform="translate(-1410 -589.81)"/><path d="M1438.9 649.26c-15.968 22.16-23.147 73.155-11.863 101.34-4.277-10.896-1.355-19.928 4.453-29.415-1.748-15.647 1.635-30.716 7.41-45.129-1.432-8.847-1.51-17.967 0-26.797z" fill="url(#h)" transform="translate(-1410 -589.81)"/><path d="M1472.7 614.97c10.167-3.996 20.19-6.508 31.048-7.251 25.182-10.814 52.739-4.797 52.912-8.327-11.205-2.625-46.967-5.532-83.96 15.578z" fill="url(#i)" transform="translate(-1410 -589.81)"/><path d="M1548.5 599.91c11.535 3.64 19.88 11.611 26.767 21.274 13.8 5.247 26.988 12.142 39.432 20.097 3.834-2.83 6.664-3.49 10.518.292-12.668-19.406-49.579-43.968-76.718-41.664z" fill="url(#j)" transform="translate(-1410 -589.81)"/><path d="M1587 806.9s-29.879 10.336-43.969 9.444c-3.933 5.102-8.134 7.144-8.134 7.144.206 2.269 34.983-3.235 55.955-13.896-2.802 1.015-3.443-3.1-3.852-2.692z" fill="url(#k)" transform="translate(-1410 -589.81)"/><path d="M1439.7 648.09c-1.665 8.821-1.281 17.951 0 26.797 9.508-6.176 20.337-6.794 31.303-6.609 9.745-11.982 20.482-23.167 31.932-33.496-2.505-8.904-3.014-17.589 0-26.344-32.909-.111-45.986 17.003-63.236 39.652z" fill="url(#l)" transform="translate(-1410 -589.81)"/><path d="M1627.3 684.53c-8.651 7.742-17.859 14.834-27.216 21.682 1.318 15.638-2.068 30.585-7.41 45.129 6.769 7.921 13.392 15.975 19.716 24.262 9.955-5.626 19.276-12.577 26.766-21.274 4.263-14.95 6.596-30.435 7.5-45.943-4.97-8.989-12.082-16.693-19.356-23.854z" fill="url(#m)" transform="translate(-1410 -589.81)"/><path d="M1591.6 752.44c-13.691 6.414-28.403 7.968-43.295 8.102a442.384 442.384 0 0 1-24.342 32.59c6.452 7.923 12.538 16.204 19.357 23.81 14.926-1.086 29.738-3.947 44.058-8.284 9.868-9.038 17.419-20.318 23.938-31.957-6.3-8.306-12.966-16.325-19.716-24.262z" fill="url(#n)" transform="translate(-1410 -589.81)"/><path d="M1575.3 622.05c-8.51 7.627-17.73 14.312-26.767 21.274a668.685 668.685 0 0 1 12.216 41.824c14.307 3.76 26.912 10.979 38.714 19.735 9.402-6.792 18.516-13.999 27.216-21.682-2.208-14.124-6.265-27.967-11.946-41.055-12.374-8.095-25.702-14.701-39.432-20.097z" fill="url(#o)" transform="translate(-1410 -589.81)"/><path d="M1483.6 711.54c-7.451 11.071-15.684 21.498-23.938 31.957 5.332 14.17 12.048 27.805 19.716 40.829 14.162 3.913 28.707 6.507 43.295 8.148 8.66-10.432 16.676-21.401 24.342-32.59-8.87-12.146-14.408-25.96-19.357-40.06-14.702-2.674-29.4-5.372-44.058-8.283z" fill="url(#p)" transform="translate(-1410 -589.81)"/><path d="M1503.8 635.49c-11.523 10.255-22.117 21.583-31.932 33.496 4.443 13.559 7.992 27.364 11.992 41.055 14.655 2.925 29.357 5.608 44.058 8.283 8.797-12.566 19.772-23.019 31.348-32.907-3.6-14.073-7.7-28.023-12.216-41.824-14.321-3.129-28.734-6.043-43.25-8.102z" fill="url(#q)" transform="translate(-1410 -589.81)"/><path d="M1320.2 636.21c5.728 12.601 9.238 26.133 11.599 39.744 7.07 6.93 13.958 14.396 18.794 23.093 3.777-21.663-9.024-48.203-21.714-65.273-3.957-1.121-5.491.314-8.68 2.436z" fill="url(#r)" transform="translate(-1113.9 -582.17)"/><path d="M1342.4 749.03c-7.11 8.59-16.48 14.98-26 20.594-6.1 11.451-13.869 21.986-23.219 30.938.879.727 1.615 1.132 2.313 1.313 19.434-10.842 35.332-27.116 45.625-46.72.01-.02.023-.041.03-.062.968-2.464 1.422-4.534 1.25-6.063z" fill="url(#s)" transform="translate(-1113.9 -582.17)"/><path d="M29.9 86.88c-6.505 13.773-7.992 28.67-7.195 43.688 6.067 10.037 15.607 15.91 25.99 20.595 8.364-9.851 15.682-20.469 23.241-30.937-3.553-13.353-7.691-26.51-11.642-39.744-10.776-.916-20.899 1.243-30.393 6.398zM150.5 98.16c-11.783 9.029-21.34 20.217-30.437 31.857 4.073 14.009 10.92 26.629 18.794 38.78 14.625.781 28.532-2.555 42.036-7.844 6.135-13.89 7.527-28.69 7.195-43.688-11.032-9.248-24.084-14.689-37.588-19.105z"/><path d="M1183.5 778.18c-3.992 5.42-7.4 10.982-7.453 17.777 18.109 12.047 37.465 18.913 60.533 19.13 2.762-.952 5.23-4.093 7.293-5.914-6.547-8.082-10.953-14.195-17.165-22.57-14.566-1.654-29.068-4.421-43.208-8.423z" fill="url(#t)" transform="translate(-1113.9 -582.17)"/><path d="M1334.2 681.03c-7.503 6.548-17.973 15.114-26.032 20.958l.14 5.027c9.871-6.546 20.879-14.902 26.397-23.839z" fill="url(#u)" transform="translate(-1113.9 -582.17)"/><path d="M1189.8 707.67l-3.817 6.285c13.983 6.704 40.224 12.124 49.02 12.342l-3.923-10.636c-13.709-2.5-27.607-5.301-41.28-7.991z" fill="url(#v)" transform="translate(-1113.9 -582.17)"/><path d="M1320.5 636.58c.114.724 5.948 10.539 11.65 39.454 0 0-3.493-28.323-9.435-41.404-2.925.51-2.215 1.95-2.215 1.95z" fill="url(#w)" transform="translate(-1113.9 -582.17)"/><path d="M1143.9 669.79c5.46 15.616 18.15 29.178 35.33 38.774l4.98-6.843c-3.428-12.76-7.393-25.34-11.217-37.983-10.306-.895-20 1.174-29.092 6.052z" fill="url(#x)" transform="translate(-1113.9 -582.17)"/><path d="M1265.3 681.93c-11.325 8.613-20.492 19.325-29.232 30.442 1.393 4.202 2.891 8.351 4.608 12.428 23.02-.122 44.19-5.849 60.931-15.407l-.186-9.217c-10.61-8.825-23.145-14.035-36.121-18.247z" fill="url(#y)" transform="translate(-1113.9 -582.17)"/><path transform="matrix(.99433 0 0 1.0009 -294.35 -7.15)" d="M421.91 15.031c-19.631 0-38.112 4.887-54.25 13.5.224-.029.43-.023.594 0 7.29-1.698 14.684-3.012 22.094-3.625 12.423-5.84 26.492-9.49 40.219-8.405.802-1.114 3.706-.326 5.875-.564a116.454 116.454 0 0 0-14.531-.906zm22.688 2.219c-3.06.333-6.882 1.008-5.281 2.344 9.981 3.327 18.328 10.385 24.03 18.969 12.949 4.933 25.479 11.002 37.157 18.375 2.003-1.525 4.919-3.254 7.531-3.22a114.479 114.479 0 0 0-63.438-36.468zm-59.312 11.5c-8.818.555-17.677 2.078-26.094 4.781a114.16 114.16 0 0 0-34 34.25c-.996 7.198-.662 14.592.469 21.75 8.747-5.458 19.339-6.618 29.5-6.094 9.287-10.869 19.306-21.199 30.125-30.625-1.994-7.861-3.507-16.378 0-24.062zM463.348 43c-8.118 6.87-16.66 13.185-25.281 19.438 4.23 12.619 8.165 25.352 11.531 38.219 13.232 3.682 25.759 9.664 36.531 18.062 8.788-6.302 17.52-12.715 25.656-19.812-2.116-12.897-5.865-25.616-11.281-37.562-11.662-7.335-24.199-13.51-37.156-18.344zM389.91 56.375c-10.875 9.368-20.883 19.686-30.125 30.594 4.055 12.43 7.634 24.984 11.281 37.53 13.827 2.676 27.725 5.138 41.594 7.595 8.432-11.303 18.421-21.355 29.562-30.125-3.367-12.866-7.332-25.6-11.562-38.22a613.878 613.878 0 0 0-40.75-7.374zM320.785 75.28c-8.393 15.705-13.125 33.6-13.125 52.594 0 7.53.732 14.883 2.156 22 .655-4.198 1.957-7.634 4.594-13.938-1.328-13.845 1.203-28.003 7-40.688-1.024-6.534-1.331-13.34-.625-19.97zm194.31 30.25c-8.162 7.065-16.824 13.569-25.656 19.812a89.937 89.937 0 0 1-7 41.25c6.33 7.295 12.665 14.606 18.594 22.219 9.265-5.257 18.273-11.463 25.25-19.47 3.872-13.69 6.376-27.836 7.063-42.03-4.665-8.143-11.425-15.294-18.25-21.781zm20.428 21.906c-.107.387-.22.766-.313 1.156-.732 11.489-2.478 22.957-5.28 34.156a111.478 111.478 0 0 0 5.593-34.875v-.437zm-165.74 4.562c-7.203 9.973-14.525 19.81-22.531 29.188a235.401 235.401 0 0 0 18.594 37.375c13.347 3.58 27.065 5.872 40.812 7.406 8.155-9.547 15.749-19.541 22.969-29.78-8.101-11.171-13.947-23.66-18.25-36.656-13.861-2.482-27.769-4.862-41.594-7.532zm-53.125 10.844c-2.247 3.639-4.487 7.605-5.781 11.75 5.589 22.716 18.127 42.772 35.28 57.781.012.01.021-.01.032 0 2.346 1.613 4.782 3.142 7.344 4.438-1.09-6.547 3.306-12.168 6.937-17.22-7.303-11.851-13.425-24.393-18.562-37.28-10.16-3.935-19.402-10.31-25.25-19.47zM477.098 172c-12.79 5.593-26.854 7.799-40.812 7.438-7.247 10.223-14.835 20.245-22.969 29.812a805.102 805.102 0 0 0 18.25 21.75c14.056-1.079 28.083-3.5 41.562-7.563 9.171-8.328 16.519-18.525 22.531-29.219-5.904-7.632-12.22-14.934-18.562-22.219zm-5.018 54.33c-13.48 4.04-27.868 6.81-41.92 7.889-.985 3.3-3.68 5.045-7.995 6.589 17.107.005 37.197-4.835 53.264-13.063-.875-.338-2.55-.73-3.35-1.415z" color="#000" fill="url(#z)" filter="url(#A)" opacity=".8"/><path d="M1354 703.03c0 62.657-51.472 113.45-114.97 113.45-63.494 0-114.97-50.794-114.97-113.45 0-62.657 51.472-113.45 114.97-113.45 63.494 0 114.97 50.794 114.97 113.45z" fill="url(#B)" transform="translate(-1113.9 -582.17)"/><path d="M1209.2 600.39c-3.58 8.334-1.848 16.982 0 25.503 14.066 2.16 28.115 4.66 41.992 7.844 9.009-6.447 17.462-13.54 25.989-20.595-6.136-10.028-15.3-16.353-25.989-20.595-14.65-1.414-28.658 2.053-41.992 7.843z" fill="url(#C)" transform="translate(-1113.9 -582.17)"/></svg>