<svg xmlns="http://www.w3.org/2000/svg" xmlns:xlink="http://www.w3.org/1999/xlink" width="600" height="302"><defs><linearGradient id="a"><stop offset="0" stop-color="#fff"/><stop offset=".258" stop-color="#494949"/><stop offset=".726"/><stop offset="1"/></linearGradient><linearGradient id="b"><stop offset="0" stop-color="#9d9d9d"/><stop offset=".5" stop-color="#e9e9e9"/><stop offset="1" stop-color="#fff"/></linearGradient><radialGradient r="18.96" fy="671.233" fx="288.738" cy="671.233" cx="288.738" gradientTransform="matrix(1 0 0 .50192 0 338.327)" gradientUnits="userSpaceOnUse" id="Q" xlink:href="#a"/><radialGradient r="18.96" fy="690.266" fx="250.818" cy="690.266" cx="250.818" gradientTransform="matrix(1 0 0 .50192 0 347.807)" gradientUnits="userSpaceOnUse" id="R" xlink:href="#a"/><radialGradient r="18.96" fy="726.162" fx="335.559" cy="726.162" cx="335.559" gradientTransform="matrix(1 0 0 .50192 0 365.686)" gradientUnits="userSpaceOnUse" id="S" xlink:href="#a"/><radialGradient r="18.96" fy="706.04" fx="367.93" cy="706.04" cx="367.93" gradientTransform="matrix(1 0 0 .50192 0 355.663)" gradientUnits="userSpaceOnUse" id="T" xlink:href="#a"/><radialGradient gradientUnits="userSpaceOnUse" gradientTransform="matrix(1 0 0 1.13342 4 -23.802)" r="15.65" fy="223.363" fx="117.511" cy="223.363" cx="117.511" id="G" xlink:href="#a"/><radialGradient gradientUnits="userSpaceOnUse" gradientTransform="matrix(1 0 0 1.13342 4 -12.169)" r="15.65" fy="136.174" fx="134.068" cy="136.174" cx="134.068" id="F" xlink:href="#a"/><radialGradient gradientUnits="userSpaceOnUse" gradientTransform="matrix(1 0 0 1.13342 4 -17.985)" r="15.65" fy="179.769" fx="125.175" cy="179.769" cx="125.175" id="E" xlink:href="#a"/><radialGradient gradientUnits="userSpaceOnUse" gradientTransform="matrix(1 0 0 1.13342 4 -27.827)" r="15.65" fy="253.529" fx="182.202" cy="253.529" cx="182.202" id="J" xlink:href="#a"/><radialGradient gradientUnits="userSpaceOnUse" gradientTransform="matrix(1 0 0 1.13342 4 -16.194)" r="15.65" fy="166.339" fx="198.758" cy="166.339" cx="198.758" id="I" xlink:href="#a"/><radialGradient gradientUnits="userSpaceOnUse" gradientTransform="matrix(1 0 0 1.13342 4 -22.01)" r="15.65" fy="209.934" fx="189.865" cy="209.934" cx="189.865" id="H" xlink:href="#a"/><radialGradient r="11.024" fy="169.842" fx="283.462" cy="169.842" cx="283.462" gradientTransform="matrix(1 0 0 1.6446 0 -109.479)" gradientUnits="userSpaceOnUse" id="W" xlink:href="#a"/><radialGradient r="11.024" fy="148.323" fx="320.029" cy="148.323" cx="320.029" gradientTransform="matrix(1 0 0 1.6446 0 -95.608)" gradientUnits="userSpaceOnUse" id="X" xlink:href="#a"/><radialGradient r="11.024" fy="238.979" fx="304.185" cy="238.979" cx="304.185" gradientTransform="matrix(1 0 0 1.64459 0 -154.043)" gradientUnits="userSpaceOnUse" id="Y" xlink:href="#a"/><radialGradient r="11.024" fy="255.246" fx="269.715" cy="255.246" cx="269.715" gradientTransform="matrix(1 0 0 1.6446 0 -164.53)" gradientUnits="userSpaceOnUse" id="Z" xlink:href="#a"/><radialGradient r="11.024" fy="201.785" fx="294.872" cy="201.785" cx="294.872" gradientTransform="matrix(1 0 0 1.64459 0 -130.068)" gradientUnits="userSpaceOnUse" id="aa" xlink:href="#a"/><filter id="y" color-interpolation-filters="sRGB"><feGaussianBlur stdDeviation="2.215"/></filter><filter id="c" color-interpolation-filters="sRGB"><feGaussianBlur stdDeviation="2.215"/></filter><radialGradient r="11.024" fy="169.842" fx="283.462" cy="169.842" cx="283.462" gradientTransform="matrix(1 0 0 1.6446 0 -109.479)" gradientUnits="userSpaceOnUse" id="K" xlink:href="#a"/><radialGradient r="11.024" fy="148.323" fx="320.029" cy="148.323" cx="320.029" gradientTransform="matrix(1 0 0 1.6446 0 -95.608)" gradientUnits="userSpaceOnUse" id="L" xlink:href="#a"/><radialGradient r="11.024" fy="238.979" fx="304.185" cy="238.979" cx="304.185" gradientTransform="matrix(1 0 0 1.64459 0 -154.043)" gradientUnits="userSpaceOnUse" id="M" xlink:href="#a"/><radialGradient r="11.024" fy="255.246" fx="269.715" cy="255.246" cx="269.715" gradientTransform="matrix(1 0 0 1.6446 0 -164.53)" gradientUnits="userSpaceOnUse" id="N" xlink:href="#a"/><radialGradient r="11.024" fy="201.785" fx="294.872" cy="201.785" cx="294.872" gradientTransform="matrix(1 0 0 1.64459 0 -130.068)" gradientUnits="userSpaceOnUse" id="O" xlink:href="#a"/><linearGradient xlink:href="#b" id="U" gradientUnits="userSpaceOnUse" gradientTransform="matrix(1 0 0 -1 -4.568 293.984)" x1="343.838" y1="108.511" x2="257.564" y2="172.819"/><linearGradient xlink:href="#b" id="V" gradientUnits="userSpaceOnUse" x1="219.645" y1="309.588" x2="223.345" y2="153.056" gradientTransform="translate(.765 -4.26)"/><linearGradient xlink:href="#b" id="P" gradientUnits="userSpaceOnUse" x1="205.821" y1="17.378" x2="262.487" y2="145.207" gradientTransform="translate(.765 -4.26)"/><linearGradient xlink:href="#b" id="D" gradientUnits="userSpaceOnUse" x1="86.251" y1="157.069" x2="252.641" y2="135.818" gradientTransform="translate(.765 -4.26)"/><linearGradient xlink:href="#b" id="C" gradientUnits="userSpaceOnUse" x1="327.257" y1="248.973" x2="98.209" y2="77.992" gradientTransform="translate(.765 -4.26)"/><linearGradient xlink:href="#b" id="B" gradientUnits="userSpaceOnUse" x1="74.293" y1="236.146" x2="345.458" y2="82.491" gradientTransform="translate(.765 -4.26)"/><linearGradient xlink:href="#b" id="A" gradientUnits="userSpaceOnUse" x1="475.385" y1="56.419" x2="241.977" y2="153.556" gradientTransform="translate(.765 -4.26)"/><linearGradient xlink:href="#b" id="z" gradientUnits="userSpaceOnUse" x1="-.691" y1=".004" x2="253.141" y2="112.13" gradientTransform="translate(.765 -4.26)"/><linearGradient xlink:href="#b" id="d" gradientUnits="userSpaceOnUse" x1="641.268" y1="326.295" x2="527.192" y2="124.083"/><linearGradient xlink:href="#b" id="e" gradientUnits="userSpaceOnUse" x1="470.029" y1="233.507" x2="507.695" y2="233.507"/><linearGradient xlink:href="#b" id="f" gradientUnits="userSpaceOnUse" x1="762.402" y1="254.861" x2="591.683" y2="83.551"/><linearGradient xlink:href="#b" id="g" gradientUnits="userSpaceOnUse" x1="542.585" y1="140.515" x2="591.683" y2="83.551"/><linearGradient xlink:href="#b" id="h" gradientUnits="userSpaceOnUse" x1="855.974" y1="367.004" x2="584.354" y2="97.817" gradientTransform="matrix(1.01 0 0 1.01 -6.837 -1.74)"/><linearGradient xlink:href="#b" id="i" gradientUnits="userSpaceOnUse" x1="507.176" y1="319.162" x2="521.06" y2="319.162"/><linearGradient xlink:href="#b" id="j" gradientUnits="userSpaceOnUse" x1="551.98" y1="444.456" x2="591.683" y2="83.551"/><linearGradient xlink:href="#b" id="k" gradientUnits="userSpaceOnUse" x1="755.593" y1="273.762" x2="470.029" y2="150.35"/><linearGradient xlink:href="#b" id="l" gradientUnits="userSpaceOnUse" x1="685.733" y1="144.166" x2="615.254" y2="68.207"/><linearGradient xlink:href="#b" id="m" gradientUnits="userSpaceOnUse" x1="622.85" y1="174.327" x2="648.536" y2="119.305" gradientTransform="matrix(1.01 0 0 1.01 -5.458 -2.05)"/><radialGradient xlink:href="#a" id="n" gradientUnits="userSpaceOnUse" gradientTransform="matrix(.23691 0 0 .26852 217.805 210.546)" cx="198.758" cy="166.339" fx="198.758" fy="166.339" r="15.65"/><radialGradient xlink:href="#a" id="o" gradientUnits="userSpaceOnUse" gradientTransform="matrix(.23691 0 0 .26852 269.323 197.414)" cx="198.758" cy="166.339" fx="198.758" fy="166.339" r="15.65"/><radialGradient xlink:href="#a" id="p" gradientUnits="userSpaceOnUse" gradientTransform="matrix(.23691 0 0 .26852 326.397 184.282)" cx="198.758" cy="166.339" fx="198.758" fy="166.339" r="15.65"/><radialGradient xlink:href="#a" id="q" gradientUnits="userSpaceOnUse" gradientTransform="matrix(1 0 0 1.28306 0 -10.887)" cx="451.861" cy="52.591" fx="451.861" fy="52.591" r="12.751"/><radialGradient xlink:href="#a" id="r" gradientUnits="userSpaceOnUse" gradientTransform="matrix(1 0 0 1.28306 0 -10.887)" cx="400.343" cy="52.591" fx="400.343" fy="52.591" r="12.751"/><radialGradient xlink:href="#a" id="s" gradientUnits="userSpaceOnUse" gradientTransform="matrix(1 0 0 1.28306 0 -37.05)" cx="422.343" cy="145.021" fx="422.343" fy="145.021" r="12.751"/><radialGradient xlink:href="#a" id="t" gradientUnits="userSpaceOnUse" gradientTransform="matrix(1 0 0 1.28306 0 -37.05)" cx="473.861" cy="145.021" fx="473.861" fy="145.021" r="12.751"/><radialGradient xlink:href="#a" id="u" gradientUnits="userSpaceOnUse" gradientTransform="matrix(1 0 0 1.28306 0 -23.354)" cx="461.861" cy="96.634" fx="461.861" fy="96.634" r="12.751"/><radialGradient xlink:href="#a" id="v" gradientUnits="userSpaceOnUse" gradientTransform="matrix(1 0 0 1.28306 0 -23.354)" cx="410.343" cy="96.634" fx="410.343" fy="96.634" r="12.751"/><radialGradient xlink:href="#a" id="w" gradientUnits="userSpaceOnUse" gradientTransform="matrix(1 0 0 1.4107 -4 -22.254)" cx="888.887" cy="63.923" fx="888.887" fy="63.923" r="13.476"/><radialGradient xlink:href="#a" id="x" gradientUnits="userSpaceOnUse" gradientTransform="matrix(1 0 0 1.4107 -4 -60.416)" cx="865.212" cy="156.842" fx="865.212" fy="156.842" r="13.476"/></defs><g color="#000"><path d="M340.493 164.777l-100.237 22.464-3.517 6.107 1.77 1.978 80.45 69.143 15.954 4.115h120.219l100.236-22.464 3.518-6.107-1.77-1.977-80.481-69.143-15.923-4.116H340.493z" style="marker:none" transform="matrix(.91107 0 0 1.02138 6.736 -17.629)" opacity=".1" overflow="visible" filter="url(#c)" enable-background="accumulate"/><path d="M641.268 326.295l114.325-52.533H635.384L521.06 326.295z" style="marker:none" fill="url(#d)" overflow="visible" enable-background="accumulate" transform="translate(-167.635 -75.975) scale(.91107)"/><path d="M470.548 154.985l37.147 161.68-.52-4.636-37.146-161.68z" style="marker:none" fill="url(#e)" overflow="visible" enable-background="accumulate" transform="translate(-167.635 -75.975) scale(.91107)"/><path d="M711.891 83.55H591.683l13.365 9.631h120.208z" style="marker:none" fill="url(#f)" overflow="visible" enable-background="accumulate" transform="translate(-167.635 -75.975) scale(.91107)"/><path d="M470.03 150.35l114.324-52.533 7.329-14.266-114.325 52.533z" style="marker:none" fill="url(#g)" overflow="visible" enable-background="accumulate" transform="translate(-167.635 -75.975) scale(.91107)"/><path d="M527.442 160.444l-.473-4.223-6.205 17.22z" style="marker:none" fill="#b3b3b3" overflow="visible" enable-background="accumulate"/><path d="M762.402 254.861l-37.146-161.68-120.995-.808L641.78 255.67z" style="marker:none" fill="url(#h)" overflow="visible" enable-background="accumulate" transform="translate(-167.635 -75.975) scale(.91107)"/><path d="M507.175 312.03l.52 4.634 13.365 9.631z" style="marker:none" fill="url(#i)" overflow="visible" enable-background="accumulate" transform="translate(-167.635 -75.975) scale(.91107)"/><path d="M584.354 97.817l20.694-4.636-13.365-9.63z" style="marker:none" fill="url(#j)" overflow="visible" enable-background="accumulate" transform="translate(-167.635 -75.975) scale(.91107)"/><path d="M635.384 273.762h120.209l6.81-18.9H642.193z" style="marker:none" fill="url(#k)" overflow="visible" enable-background="accumulate" transform="translate(-167.635 -75.975) scale(.91107)"/><path d="M642.194 254.861l-37.146-161.68-20.694 4.636 37.146 161.68z" style="marker:none" fill="url(#l)" overflow="visible" enable-background="accumulate" transform="translate(-167.635 -75.975) scale(.91107)"/><path d="M417.45 156.221l-18.853 4.223 12.649 12.998z" style="marker:none" fill="#b3b3b3" overflow="visible" enable-background="accumulate"/><path d="M622.258 260.042L584.74 96.746l-115.468 53.058L506.79 313.1z" style="marker:none" fill="url(#m)" overflow="visible" enable-background="accumulate" transform="translate(-167.635 -75.975) scale(.91107)"/><path d="M398.597 160.444l-104.159 47.862 12.65 12.997 104.158-47.861z" style="marker:none" fill="#b3b3b3" overflow="visible" enable-background="accumulate"/><g stroke="#b3b3b3" stroke-width=".237"><path d="M325.26 235.773c-7.316 3.362-7.01 6.086.68 6.086 7.692 0 19.856-2.724 27.171-6.086 7.315-3.36 7.01-6.085-.681-6.085-7.692 0-19.856 2.724-27.17 6.085 0 0 0 0 0 0" style="marker:none" fill="url(#n)" overflow="visible" enable-background="accumulate" transform="translate(57.968 -5.47) scale(.91107)"/><path d="M376.777 222.642c-7.315 3.36-7.01 6.085.681 6.085 7.692 0 19.856-2.724 27.17-6.085 7.316-3.362 7.01-6.086-.68-6.086-7.692 0-19.856 2.724-27.171 6.085 0 0 0 0 0 0" style="marker:none" fill="url(#o)" overflow="visible" enable-background="accumulate" transform="translate(57.968 -5.47) scale(.91107)"/><path style="marker:none" d="M433.85 209.51c-7.314 3.36-7.009 6.085.682 6.085 7.691 0 19.856-2.724 27.17-6.085 7.315-3.362 7.01-6.086-.681-6.086s-19.856 2.724-27.17 6.086c0 0 0 0 0 0" fill="url(#p)" overflow="visible" enable-background="accumulate" transform="translate(57.968 -5.47) scale(.91107)"/></g><g stroke="#b3b3b3" stroke-width=".146"><path d="M439.752 52.591c2.066 8.995 9.163 16.287 15.85 16.287 6.689 0 10.435-7.292 8.368-16.287s-9.163-16.287-15.851-16.287c-6.688 0-10.434 7.292-8.367 16.287 0 0 0 0 0 0" style="marker:none" fill="url(#q)" overflow="visible" enable-background="accumulate" transform="translate(57.057 -7.449) scale(.91107)"/><path style="marker:none" d="M388.234 52.591c2.066 8.995 9.163 16.287 15.851 16.287 6.688 0 10.434-7.292 8.367-16.287-2.066-8.995-9.163-16.287-15.85-16.287-6.689 0-10.435 7.292-8.368 16.287 0 0 0 0 0 0" fill="url(#r)" overflow="visible" enable-background="accumulate" transform="translate(57.057 -7.449) scale(.91107)"/><path d="M410.234 145.021c2.066 8.995 9.163 16.287 15.851 16.287 6.688 0 10.434-7.292 8.367-16.287-2.066-8.995-9.163-16.287-15.85-16.287-6.689 0-10.435 7.292-8.368 16.287 0 0 0 0 0 0" style="marker:none" fill="url(#s)" overflow="visible" enable-background="accumulate" transform="translate(57.057 -7.449) scale(.91107)"/><path style="marker:none" d="M461.752 145.021c2.066 8.995 9.163 16.287 15.85 16.287 6.689 0 10.435-7.292 8.368-16.287s-9.163-16.287-15.851-16.287c-6.688 0-10.434 7.292-8.367 16.287 0 0 0 0 0 0" fill="url(#t)" overflow="visible" enable-background="accumulate" transform="translate(57.057 -7.449) scale(.91107)"/><path d="M449.752 96.634c2.066 8.995 9.163 16.287 15.85 16.287 6.689 0 10.435-7.292 8.368-16.287s-9.163-16.287-15.851-16.287c-6.688 0-10.434 7.292-8.367 16.287 0 0 0 0 0 0" style="marker:none" fill="url(#u)" overflow="visible" enable-background="accumulate" transform="translate(57.057 -7.449) scale(.91107)"/><path style="marker:none" d="M398.234 96.634c2.066 8.995 9.163 16.287 15.851 16.287 6.688 0 10.434-7.292 8.367-16.287-2.066-8.995-9.163-16.287-15.85-16.287-6.689 0-10.435 7.292-8.368 16.287 0 0 0 0 0 0" fill="url(#v)" overflow="visible" enable-background="accumulate" transform="translate(57.057 -7.449) scale(.91107)"/></g></g><g color="#000" stroke="#b3b3b3" stroke-width=".228"><path style="marker:none" d="M901.591 69.761c-2.28 9.923-9.816 15.354-16.832 12.13-7.017-3.225-10.856-13.882-8.577-23.805 2.28-9.923 9.816-15.354 16.833-12.13 7.016 3.225 10.856 13.882 8.576 23.805 0 0 0 0 0 0" fill="url(#w)" overflow="visible" enable-background="accumulate" transform="matrix(-.91107 0 0 .91107 1158.613 .395)"/><path d="M877.916 162.68c-2.28 9.922-9.816 15.353-16.832 12.129-7.017-3.224-10.857-13.882-8.577-23.805 2.28-9.923 9.816-15.353 16.833-12.13 7.016 3.225 10.856 13.883 8.576 23.806 0 0 0 0 0 0" style="marker:none" fill="url(#x)" overflow="visible" enable-background="accumulate" transform="matrix(-.91107 0 0 .91107 1158.613 .395)"/></g><g><path d="M55.726 159.022l-10.13 3.616-59.821 26.489 47.24 73.336 9.034 5.198 9.446 4.128 162.21 32.339 10.13-3.616 59.821-26.489-47.24-73.336-9.034-5.198-9.446-4.128-162.21-32.339z" opacity=".1" filter="url(#y)" transform="translate(19.541 -7.443)"/><path d="M113.769 66.445l139.637 65.114-10.665 17.738-139.636-65.114z" fill="url(#z)" stroke="#ccc" transform="translate(19.541 -7.443)"/><path d="M167.139 97.488l95.143 44.366 20.511 1.04z" fill="#fff"/><path d="M356.068 97.01l-92.816 53.327-9.846-18.778 92.816-53.327z" fill="url(#A)" stroke="#ececec" transform="translate(19.541 -7.443)"/><path d="M234.235 289.557l28.047-147.703 20.511 1.04-28.047 147.703z" fill="#e6e6e6" stroke="#f2f2f2"/><path d="M226.126 5.675L133.31 59.002l-14.796 7.287 92.817-53.327z" fill="#e6e6e6"/><path d="M75.057 231.887l28.048-147.704 139.636 65.114-28.047 147.704z" fill="url(#B)" transform="translate(19.541 -7.443)"/><path d="M375.61 89.567l-9.847-18.778 5.715 8.327z" fill="#dbdbdb"/><path d="M239.95 297.885L100.313 232.77l-5.715-8.327 139.637 65.113z" fill="#999"/><path d="M235.205 298.04l28.047-147.703 92.816-53.327-28.047 147.704z" fill="url(#C)" transform="translate(19.541 -7.443)"/><path d="M234.235 289.557l20.51 1.04-14.795 7.288z" fill="#b3b3b3"/><path d="M113.769 66.445l-10.664 17.738-4.132-10.45z" fill="url(#D)" transform="translate(19.541 -7.443)"/><g stroke="#b3b3b3" color="#000"><path style="marker:none" d="M140.515 186.922c-1.701 8.962-9.95 13.024-18.421 9.073-8.473-3.95-13.961-14.418-12.26-23.38 1.702-8.962 9.95-13.024 18.422-9.073 8.472 3.95 13.961 14.418 12.26 23.38 0 0 0 0 0 0" fill="url(#E)" overflow="visible" enable-background="accumulate" transform="translate(20.306 -11.703)"/><path d="M149.408 143.327c-1.702 8.962-9.95 13.024-18.422 9.074-8.472-3.951-13.96-14.419-12.259-23.38 1.702-8.962 9.95-13.025 18.422-9.074 8.472 3.95 13.96 14.418 12.26 23.38 0 0 0 0 0 0" style="marker:none" fill="url(#F)" overflow="visible" enable-background="accumulate" transform="translate(20.306 -11.703)"/><path d="M132.852 230.517c-1.702 8.961-9.95 13.024-18.422 9.073-8.472-3.95-13.96-14.418-12.26-23.38 1.703-8.962 9.95-13.024 18.423-9.073 8.472 3.95 13.96 14.418 12.259 23.38 0 0 0 0 0 0" style="marker:none" fill="url(#G)" overflow="visible" enable-background="accumulate" transform="translate(20.306 -11.703)"/><path d="M205.206 217.088c-1.702 8.961-9.95 13.024-18.422 9.073-8.472-3.95-13.96-14.418-12.26-23.38 1.703-8.962 9.95-13.024 18.423-9.074 8.472 3.951 13.96 14.419 12.259 23.38 0 0 0 0 0 0" style="marker:none" fill="url(#H)" overflow="visible" enable-background="accumulate" transform="translate(20.306 -11.703)"/><path style="marker:none" d="M214.099 173.493c-1.702 8.962-9.95 13.024-18.422 9.073-8.472-3.95-13.961-14.418-12.26-23.38 1.702-8.962 9.95-13.024 18.422-9.073 8.473 3.95 13.961 14.418 12.26 23.38 0 0 0 0 0 0" fill="url(#I)" overflow="visible" enable-background="accumulate" transform="translate(20.306 -11.703)"/><path style="marker:none" d="M197.542 260.682c-1.701 8.962-9.95 13.024-18.421 9.074-8.473-3.951-13.961-14.419-12.26-23.38 1.702-8.962 9.95-13.025 18.422-9.074 8.472 3.951 13.961 14.419 12.26 23.38 0 0 0 0 0 0" fill="url(#J)" overflow="visible" enable-background="accumulate" transform="translate(20.306 -11.703)"/></g><g stroke="gray" color="#000"><path d="M292.222 162.3c1.318-9.53-2.432-14.775-8.374-11.714-5.943 3.06-11.828 13.268-13.146 22.798-1.317 9.53 2.432 14.775 8.375 11.715 5.942-3.061 11.828-13.268 13.145-22.798 0 0 0 0 0 0" style="marker:none" fill="url(#K)" overflow="visible" enable-background="accumulate" transform="translate(22.306 -9.703)"/><path style="marker:none" d="M328.789 140.781c1.317-9.53-2.432-14.775-8.375-11.714-5.942 3.06-11.828 13.267-13.145 22.798-1.318 9.53 2.432 14.775 8.374 11.715 5.943-3.061 11.828-13.268 13.146-22.799 0 0 0 0 0 0" fill="url(#L)" overflow="visible" enable-background="accumulate" transform="translate(22.306 -9.703)"/><path d="M312.945 231.438c1.318-9.531-2.431-14.776-8.374-11.715-5.943 3.06-11.828 13.268-13.146 22.798-1.317 9.53 2.432 14.775 8.375 11.715 5.943-3.061 11.828-13.268 13.146-22.798 0 0 0 0 0 0" style="marker:none" fill="url(#M)" overflow="visible" enable-background="accumulate" transform="translate(22.306 -9.703)"/><path style="marker:none" d="M278.475 247.705c1.318-9.53-2.432-14.776-8.374-11.715-5.943 3.06-11.828 13.268-13.146 22.798-1.317 9.53 2.432 14.776 8.375 11.715 5.942-3.06 11.828-13.268 13.145-22.798 0 0 0 0 0 0" fill="url(#N)" overflow="visible" enable-background="accumulate" transform="translate(22.306 -9.703)"/><path style="marker:none" d="M303.632 194.243c1.317-9.53-2.432-14.775-8.374-11.715-5.943 3.061-11.829 13.268-13.146 22.799-1.317 9.53 2.432 14.775 8.375 11.714 5.942-3.06 11.827-13.267 13.145-22.798 0 0 0 0 0 0" fill="url(#O)" overflow="visible" enable-background="accumulate" transform="translate(22.306 -9.703)"/></g><path d="M90.467 213.993L118.514 66.29l4.132 10.45-28.048 147.705z" fill="#b3b3b3" stroke="#b3b3b3" stroke-width=".5" stroke-linecap="round" stroke-linejoin="round"/><path d="M263.252 150.337l-20.51-1.04 10.664-17.738z" fill="url(#P)" stroke="#fff" stroke-linecap="round" stroke-linejoin="round" transform="translate(19.541 -7.443)"/><path d="M226.126 5.675l139.637 65.114-92.816 53.327L133.31 59.002z" fill="#f9f9f9" stroke="#f2f2f2" stroke-linecap="round" stroke-linejoin="round"/><g color="#000" stroke="#999"><path d="M278.243 677.263c-8.72-4.067-11.09-10.062-5.293-13.392 5.795-3.33 17.563-2.734 26.282 1.332 8.72 4.067 11.09 10.062 5.294 13.392s-17.563 2.734-26.283-1.332c0 0 0 0 0 0" style="marker:none" fill="url(#Q)" overflow="visible" enable-background="accumulate" transform="translate(-59.837 -633.802)"/><path style="marker:none" d="M240.323 696.295c-8.72-4.066-11.09-10.061-5.294-13.391s17.564-2.734 26.283 1.332c8.72 4.066 11.09 10.062 5.294 13.392s-17.563 2.734-26.283-1.333c0 0 0 0 0 0" fill="url(#R)" overflow="visible" enable-background="accumulate" transform="translate(-59.837 -633.802)"/><path d="M325.064 732.192c-8.72-4.066-11.09-10.062-5.294-13.392s17.563-2.733 26.283 1.333c8.72 4.066 11.09 10.061 5.294 13.391s-17.563 2.734-26.283-1.332c0 0 0 0 0 0" style="marker:none" fill="url(#S)" overflow="visible" enable-background="accumulate" transform="translate(-59.837 -633.802)"/><path style="marker:none" d="M357.435 712.07c-8.72-4.067-11.09-10.063-5.294-13.393s17.563-2.733 26.283 1.333c8.72 4.066 11.09 10.062 5.294 13.392s-17.563 2.733-26.283-1.333c0 0 0 0 0 0" fill="url(#T)" overflow="visible" enable-background="accumulate" transform="translate(-59.837 -633.802)"/></g><path d="M263.252 150.337l-20.51-1.04-28.048 147.704 20.51 1.04z" fill="url(#U)" stroke="url(#V)" transform="translate(19.541 -7.443)"/><g stroke="gray" color="#000"><path style="marker:none" d="M292.222 162.3c1.318-9.53-2.432-14.775-8.374-11.714-5.943 3.06-11.828 13.268-13.146 22.798-1.317 9.53 2.432 14.775 8.375 11.715 5.942-3.061 11.828-13.268 13.145-22.798 0 0 0 0 0 0" fill="url(#W)" overflow="visible" enable-background="accumulate" transform="translate(22.306 -9.703)"/><path d="M328.789 140.781c1.317-9.53-2.432-14.775-8.375-11.714-5.942 3.06-11.828 13.267-13.145 22.798-1.318 9.53 2.432 14.775 8.374 11.715 5.943-3.061 11.828-13.268 13.146-22.799 0 0 0 0 0 0" style="marker:none" fill="url(#X)" overflow="visible" enable-background="accumulate" transform="translate(22.306 -9.703)"/><path style="marker:none" d="M312.945 231.438c1.318-9.531-2.431-14.776-8.374-11.715-5.943 3.06-11.828 13.268-13.146 22.798-1.317 9.53 2.432 14.775 8.375 11.715 5.943-3.061 11.828-13.268 13.146-22.798 0 0 0 0 0 0" fill="url(#Y)" overflow="visible" enable-background="accumulate" transform="translate(22.306 -9.703)"/><path d="M278.475 247.705c1.318-9.53-2.432-14.776-8.374-11.715-5.943 3.06-11.828 13.268-13.146 22.798-1.317 9.53 2.432 14.776 8.375 11.715 5.942-3.06 11.828-13.268 13.145-22.798 0 0 0 0 0 0" style="marker:none" fill="url(#Z)" overflow="visible" enable-background="accumulate" transform="translate(22.306 -9.703)"/><path d="M303.632 194.243c1.317-9.53-2.432-14.775-8.374-11.715-5.943 3.061-11.829 13.268-13.146 22.799-1.317 9.53 2.432 14.775 8.375 11.714 5.942-3.06 11.827-13.267 13.145-22.798 0 0 0 0 0 0" style="marker:none" fill="url(#aa)" overflow="visible" enable-background="accumulate" transform="translate(22.306 -9.703)"/></g></g></svg>