<svg xmlns="http://www.w3.org/2000/svg" xmlns:xlink="http://www.w3.org/1999/xlink" width="256" height="170"><defs><linearGradient id="d"><stop offset="0" stop-color="#fff"/><stop offset="1" stop-color="#fff" stop-opacity="0"/></linearGradient><linearGradient id="e"><stop offset="0" stop-color="#dde700"/><stop offset=".5" stop-color="#f6ff0b"/><stop offset="1" stop-color="#ffff10"/></linearGradient><linearGradient id="b"><stop offset="0" stop-color="#ff6868"/><stop offset=".758" stop-color="#ff1414"/><stop offset="1" stop-color="#9b0000"/></linearGradient><linearGradient id="c"><stop offset="0" stop-color="#000081"/><stop offset=".613" stop-color="#0000c5"/><stop offset="1" stop-color="#0000f4"/></linearGradient><linearGradient id="a"><stop offset="0" stop-color="#1a1a1a" stop-opacity="0"/><stop offset="1" stop-color="#1a1a1a" stop-opacity=".461"/></linearGradient><filter id="g" color-interpolation-filters="sRGB"><feGaussianBlur stdDeviation="2.176"/></filter><filter id="l" color-interpolation-filters="sRGB"><feGaussianBlur stdDeviation="1.061"/></filter><linearGradient xlink:href="#a" id="f" gradientUnits="userSpaceOnUse" x1="-647.448" y1="91.82" x2="499.82" y2="16.284"/><linearGradient xlink:href="#b" id="h" gradientUnits="userSpaceOnUse" gradientTransform="matrix(.98477 0 0 .98477 -264.125 -164.25)" x1="435.578" y1="-279.827" x2="626.344" y2="374.469"/><linearGradient xlink:href="#c" id="j" gradientUnits="userSpaceOnUse" gradientTransform="matrix(1.00795 0 0 .99223 -273.81 -167.96)" x1="236.031" y1="362.094" x2="428.507" y2="-262.856"/><filter id="n"><feGaussianBlur stdDeviation=".183"/></filter><radialGradient xlink:href="#d" id="k" gradientUnits="userSpaceOnUse" gradientTransform="matrix(.9067 0 0 .71966 60.28 62.277)" spreadMethod="reflect" cx="131.565" cy="-83.648" fx="131.565" fy="-83.648" r="210.156"/><linearGradient xlink:href="#e" id="i" gradientUnits="userSpaceOnUse" x1="428.507" y1="-262.856" x2="409.063" y2="214.406" gradientTransform="matrix(.37621 0 0 .37621 116.126 45.21)"/><filter id="m"><feGaussianBlur stdDeviation=".881"/></filter><filter id="q"><feGaussianBlur stdDeviation=".589"/></filter><filter id="p"><feGaussianBlur stdDeviation="1.252"/></filter><filter id="r"><feGaussianBlur stdDeviation=".511"/></filter><filter id="o"><feGaussianBlur stdDeviation=".179"/></filter></defs><path d="M399.696-208.399l-19.693 5.842a6.04 6.04 0 0 0-3.548 2.817l-.541-.207a6.114 6.114 0 0 0-3.788-.12l-20.115 5.99a6.037 6.037 0 0 0-3.487 2.818l-.3-.119a6.12 6.12 0 0 0-4.06-.207l-20.114 5.99c-2.439.733-4.247 3.15-4.24 5.664-2.315 1-3.822 3.57-3.547 6.049l2.315 20.727a5.95 5.95 0 0 0 2.165 3.915 5.92 5.92 0 0 0-1.353 4.388l2.345 20.728a5.948 5.948 0 0 0 2.135 3.885 5.919 5.919 0 0 0-1.323 4.388l2.315 20.758a5.966 5.966 0 0 0 2.435 4.121l15.875 11.417a6.108 6.108 0 0 0 4.059 1.097 5.955 5.955 0 0 0 2.225 3.114L365.3-63.928a6.108 6.108 0 0 0 4.058 1.097 5.955 5.955 0 0 0 2.225 3.144l15.875 11.416c1.958 1.405 4.806 1.467 6.825.149 1.828 1.284 4.411 1.429 6.374.355l18.31-10.141a5.986 5.986 0 0 0 2.767-3.35 6.133 6.133 0 0 0 4.6-.505l18.31-10.141a5.986 5.986 0 0 0 2.766-3.351 6.131 6.131 0 0 0 4.54-.534l17.258-9.578-.03-.03c1.043-.485 2.125-1.167 2.976-2.402.898-1.302 1.141-2.798 1.143-4.151h.09l1.203-21.32c.09-1.701-.61-3.427-1.864-4.597a5.956 5.956 0 0 0 2.225-4.24l1.262-22.507a5.947 5.947 0 0 0-1.894-4.626 5.956 5.956 0 0 0 2.225-4.24l1.293-22.508c.114-2.275-1.24-4.558-3.307-5.574a5.894 5.894 0 0 0-1.075-3.677 6.032 6.032 0 0 0-3.135-2.254l-17.678-5.456a6.11 6.11 0 0 0-3.638.03 6.032 6.032 0 0 0-3.187-2.343l-17.68-5.486a6.112 6.112 0 0 0-3.697.03 6.032 6.032 0 0 0-3.157-2.313l-17.198-5.338c-1.49-.52-2.93-.33-4.39-.03z" fill="#1a1a1a"/><path d="M-116.697 41.16l-62.233 14.923-62.285 14.903-62.233 14.923 60.626 51.72 60.657 51.72 60.605 51.699 89.422 28.484 89.37 28.463 89.421 28.484 44.931-25.319 44.962-25.319 44.963-25.319-51.252-56.126-51.271-56.146-51.283-56.127-81.473-13.66-81.454-13.642-81.473-13.66z" fill="url(#f)" filter="url(#g)" transform="matrix(.37621 0 0 .37621 116.126 45.21)"/><path d="M370.282-51.833L293.1-18.935l-77.212 32.897-77.181 32.928 3.2 92.23 3.2 92.23 3.201 92.23 69.18-38.899 69.211-38.898 69.211-38.898 4.8-86.23 4.802-86.259 4.77-86.229z" fill="url(#h)" transform="matrix(.37621 0 0 .37621 116.126 45.21)"/><path d="M179.5.781l-28.969 8.563-29.031 8.75-28.313 9.062 24.344 11.5L142.594 50.5l25.031 11.844 29.5-12.594 29.5-12.563 28.781-12.437-24.812-8.156-25.5-8L179.5.78z" fill="url(#i)"/><path d="M-60.962-47.945l7.074 79.176 9.008 80.06 8.978 80.03 61.421 44.092 61.39 44.061 61.423 44.093-3.276-92.929-3.276-92.928-3.276-92.929-67.123-31.224L4.258-17.636z" fill="url(#j)" transform="matrix(.37621 0 0 .37621 116.126 45.21)"/><path d="M253.219 30.531l-23.875 10.157L228.688 68l23.062-10.781 1.469-26.688zM95.094 32.5l2.719 24.594L117.53 68l-2.156-25.906L95.094 32.5zm128.719 10.656l-23.875 10.188.156 27.906 23.062-10.781.656-27.313zM120.093 44.5l2.126 25.906 19.75 10.875-1.563-27.219-20.312-9.562zm74.25 11.313L170.47 66l.969 28.531L194.5 83.72l-.156-27.906zm-49.25.656l1.563 27.218 19.688 10.907-.969-28.531-20.281-9.594zM98.376 63l2.75 24.594 19.125 12.219-2.156-25.907L98.375 63zm153.125.531l-23.063 10.813-.656 27.312L250 90.22l1.5-26.688zM122.687 76.625l2.126 25.906 19.124 12.219-1.562-27.219-19.688-10.906zm100.407.313L200.03 87.75l.156 27.906 22.25-11.406.657-27.313zm-76.156 13.28l1.562 27.25 19.156 12.22-1-28.563-19.719-10.906zm47.718.126l-23.062 10.812.969 28.531 22.25-11.406-.157-27.937zm-92.969 3.187l2.72 24.563 18.562 13.562-2.125-25.906-19.156-12.219zm148.094 3.031l-22.25 11.407-.687 27.312 21.437-12.031 1.5-26.688zM125.25 108.75l2.156 25.906 18.531 13.563-1.562-27.25-19.125-12.219zm97.125 1.969l-22.219 11.406.156 27.938 21.407-12.032.656-27.312zM148.812 124l1.563 27.219 18.563 13.531-1-28.531L148.813 124zm46.125.906l-22.218 11.406.969 28.532 21.437-12.031-.188-27.907z" opacity=".25" fill="url(#k)" filter="url(#l)"/><path d="M178.48.903l-27.938 8.43-29.04 8.747-27.123 8.184s-1.888.712-1.668 2.707l3.115 28.224 3.362 30.355 3.184 28.827c.165.81.247 1.324 1.128 2.218l21.965 16.018 22.914 16.706 20.63 15.045c1.584.75 3.118.663 4.638.355l24.086-13.543 26.441-14.86 25.064-14.087c1.204-.546 1.413-1.551 1.48-2.622l1.731-31.094 1.834-32.954 1.696-30.66c.278-2.77-2.302-3.045-2.302-3.045l-23.084-7.255-25.512-8.007-24.275-7.63s-1.414-.334-2.327-.059zm1.502.761l22.372 7.022-26.265 9.03-22.82-8.36 25.585-7.714s.688-.116 1.128.022zm24.923 7.892l22.96 7.207-26.405 10.17-22.831-8.36zm-54.551.741l22.82 8.36-26.265 9.016-22.69-9.499zm80.051 7.336l22.961 7.207-26.547 11.322-22.82-8.36zm-109.09 1.482l22.69 9.499-26.276 9.03-22.55-10.652zm54.386.529l22.832 8.359-26.406 10.17-22.69-9.5zm78.888 7.289l-1.646 29.65-25.618 12.004.729-30.344zM201.06 28.99l22.82 8.36-26.535 11.31-22.69-9.5zm-107.21.036l22.55 10.651 2.387 28.78-21.915-12.109zm52.66.705l22.69 9.511L142.794 49.4l-22.55-10.64zm78.628 9.805l-.729 30.344-25.63 11.992-.176-31.026zm-53.422.823l22.678 9.5-26.535 11.31-22.549-10.64zm-52.835.588l22.55 10.64 1.74 30.25-21.915-12.11zm76.783 11.204l.176 31.026-25.617 11.992-1.106-31.708zm-51.765.705l22.55 10.64 1.093 31.72-21.903-12.121zm-46.72 6.608l21.902 12.11 2.386 28.78L100.2 86.785zm155.634.446l-1.645 29.65-24.713 12.698.729-30.344zM121.491 73.007l21.903 12.11 1.74 30.25-21.268-13.58zm102.895.283l-.74 30.332-24.714 12.685-.176-31.026zm-78.594 13.25l21.915 12.109 1.093 31.72-21.268-13.58zm50.13.117l.177 31.026-24.713 12.685-1.093-31.707zm-95.417 3.245l21.268 13.567 2.375 28.792-20.621-15.048zM251.038 92.9l-1.57 28.076c.223 1.298-.343 2.017-1.45 2.34l-22.433 12.613.74-30.344zM124.09 105.068l21.268 13.567 1.74 30.25-20.621-15.037zm99.533 1.963l-.741 30.344-23.796 13.368-.176-31.026zm-75.937 13.203l21.268 13.567 1.105 31.72-20.633-15.049zm48.485.94l.188 31.027-23.796 13.367-1.105-31.708z" fill="#1a1a1a"/><path d="M364.605-51.396L301.01-24.333l-.063 3.031 63.47-27.062zm-420.816 5.47l.315 2.843L-1.96-17.614l-.252-2.813zM286.291-17.74L222.728 9.386l.032 2.906 63.469-27.063.062-2.968zm-275.97 3.843l.22 2.688L64.51 14.229l-.157-2.625zM207.885 15.98l-63.563 27.125.094 2.813 63.5-27.063zM76.82 18.104l.158 2.532 53.937 25.468-.094-2.5-54-25.5zM-47.46 35.167l.315 2.844L5.26 66.979l-.252-2.78zm407.472 1.125l-61.438 28.812-.063 3 61.312-28.718zM17.196 71.573l.22 2.625 52.375 28.969-.157-2.656zm267.22.5l-61.406 28.719.031 2.937 61.313-28.687zM81.76 107.854l.157 2.5 52.406 28.97-.094-2.47-52.47-29zm126.938-.062l-61.375 28.75.094 2.844 61.313-28.72-.032-2.874zM-38.68 116.26l.315 2.843 50.875 32.47-.252-2.782zm394.097 7.812l-59.25 30.375-.063 3.063 59.125-30.344.188-3.094zM24.008 156.948l.22 2.656 50.876 32.47-.158-2.626zm258.502 4.906l-59.22 30.407.032 2.906 59.125-30.344.063-2.969zM86.696 197.636l.158 2.5 50.875 32.437-.095-2.437-50.938-32.5zm122.782 1.968l-59.187 30.375.094 2.875 59.125-30.343-.032-2.907z" fill="#fff" filter="url(#m)" transform="matrix(.37621 0 0 .37621 116.126 45.21)"/><path d="M153.344 9.813l-.781.218 22.875 8.375.75-.25-22.844-8.343zm74.625 7.562l-26.063 10.25.844.281 26.406-10.156-1.187-.375zm-103.656 1.25l-1.094.313 22.875 9.5.906-.313-22.688-9.5zm54.374.531l-.75.219 22.844 8.406.75-.281-22.844-8.344zm25.375 9.344l-.78.313 22.78 8.375.813-.344-22.813-8.344zm-5.093.156l-26.406 10.157.843.343 26.406-10.187-.843-.313zm-49.469.563l-.938.343 22.25 9.344.938-.343-22.25-9.344zm20.094 10.625l-26.438 10.125.938.406L170.5 40.219l-.906-.375zm5.125 0l-.906.375 22.718 9.5.875-.375-22.687-9.5z" fill="#fff" filter="url(#n)"/><path d="M378.656-200.219a.48.48 0 0 0-.062.031l-.75.22a.48.48 0 0 0-.031.905l22.093 8.094a.48.48 0 0 0 .313 0l.719-.25a.48.48 0 0 0 0-.906l-22.063-8.063a.48.48 0 0 0-.219-.03zm72 7.313a.48.48 0 0 0-.031.031L425.562-183a.48.48 0 0 0-.156-.094l-22.062-8.062a.48.48 0 0 0-.281 0l-.72.219a.48.48 0 0 0-.062.906l22.063 8.125a.48.48 0 0 0 .375 0l.594-.219a.48.48 0 0 0 .156.063l.812.25a.48.48 0 0 0 .344 0l.906-.313-.75.281a.48.48 0 0 0 .031.906l22 8.094a.48.48 0 0 0 .313 0l.813-.312a.48.48 0 0 0-.032-.906l-22.062-8.063a.48.48 0 0 0-.188-.031l24.469-9.438a.48.48 0 0 0-.031-.906l-1.156-.375a.48.48 0 0 0-.22-.031.48.48 0 0 0-.062 0zm-100.031 1.187a.48.48 0 0 0-.031.031.48.48 0 0 0-.031.032l-1.063.281a.48.48 0 0 0-.063.906l22.094 9.188a.48.48 0 0 0 .344 0l.875-.313a.48.48 0 0 0 .031-.906l-21.906-9.156a.48.48 0 0 0-.25-.063zm72 9.719a.48.48 0 0 0-.031.031l-25.5 9.813a.48.48 0 0 0-.156.062.48.48 0 0 0-.25-.312l-21.5-9.031a.48.48 0 0 0-.344 0l-.906.343a.48.48 0 0 0-.032.906l21.5 9a.48.48 0 0 0 .344 0l.906-.312a.48.48 0 0 0 .188-.063.48.48 0 0 0 .25.313l.812.313a.48.48 0 0 0 .375 0l25.5-9.844a.48.48 0 0 0 0-.906l-.812-.282a.48.48 0 0 0-.25-.031.48.48 0 0 0-.094 0zm-28.313 10.781a.48.48 0 0 0-.093.031l-25.531 9.782a.48.48 0 0 0 0 .906l.906.406a.48.48 0 0 0 .375 0l25.5-9.812a.48.48 0 0 0 0-.906l-.875-.375a.48.48 0 0 0-.281-.032zm4.97 0a.48.48 0 0 0-.094.031l-.875.375a.48.48 0 0 0 0 .907l21.937 9.187a.48.48 0 0 0 .375 0l.844-.375a.48.48 0 0 0 0-.906l-21.938-9.188a.48.48 0 0 0-.25-.03z" fill="#fff" filter="url(#o)" opacity=".72"/><path d="M402.219-209.877c-.316.008-.594.031-.594.031-.149.03-.295.072-.438.125l-17.906 5.407c-1.136.338-3.996 1.45-4.037 2.635-.041 1.185 2.74 2.355 3.85 2.77l15.968 5.876a2.88 2.88 0 0 0 1.938 0l18.406-6.344c1.116-.398 3.915-1.552 3.894-2.737-.02-1.184-2.859-2.31-3.988-2.67l-15.656-4.905c-.754-.237-1.122-.196-1.437-.188zm25.375 8.156a2.857 2.857 0 0 0-.657.157l-18.406 6.312c-1.102.386-3.904 1.508-3.91 2.677-.007 1.168 2.78 2.3 3.879 2.698l16 5.844a2.882 2.882 0 0 0 2-.031l18.469-7.094c1.088-.43 3.845-1.585 3.805-2.754-.041-1.169-2.877-2.269-3.993-2.621l-16.062-5.063a2.862 2.862 0 0 0-1.125-.125zm-54.438.75a2.856 2.856 0 0 0-.656.125l-18.281 5.5c-1.104.345-3.94 1.42-4 2.574-.061 1.155 2.656 2.312 3.718 2.77l15.875 6.656c.64.267 1.377.29 2.032.063l18.406-6.313c1.103-.385 3.904-1.508 3.91-2.676.008-1.168-2.78-2.3-3.879-2.699l-16-5.843a2.863 2.863 0 0 0-1.125-.157zm79.906 7.5c-.256.029-.51.092-.75.188l-18.468 7.125c-1.075.417-3.835 1.54-3.822 2.693.014 1.154 2.8 2.259 3.884 2.65l15.969 5.844c.673.243 1.437.22 2.094-.062l18.593-7.906c1.062-.458 3.78-1.615 3.72-2.77-.061-1.155-2.897-2.23-4-2.574l-16.095-5.063a2.862 2.862 0 0 0-1.125-.125zm-109.093 1.5c-.17.027-.338.069-.5.125l-18.313 5.5c-1.098.328-3.942 1.375-4.03 2.517-.087 1.142 2.589 2.305 3.624 2.796l15.781 7.469c.67.308 1.462.343 2.156.093l18.407-6.343c1.073-.384 3.858-1.464 3.892-2.603.033-1.14-2.687-2.264-3.736-2.71l-15.875-6.625c-.44-.19-.93-.265-1.406-.219zm54.562.532a2.858 2.858 0 0 0-.812.156l-18.375 6.312c-1.073.384-3.859 1.464-3.892 2.603-.034 1.14 2.687 2.264 3.735 2.71l15.875 6.656c.67.28 1.448.292 2.125.031l18.47-7.125c1.074-.416 3.834-1.54 3.82-2.693-.013-1.153-2.799-2.259-3.883-2.65l-15.969-5.844a2.862 2.862 0 0 0-1.094-.156zm25.344 9.5a2.86 2.86 0 0 0-.906.187l-18.5 7.125c-1.046.414-3.791 1.495-3.804 2.62-.014 1.124 2.705 2.223 3.741 2.661l15.906 6.657c.7.295 1.52.295 2.22 0l18.562-7.938c1.048-.446 3.769-1.57 3.735-2.71-.033-1.139-2.818-2.219-3.892-2.602l-15.968-5.844a2.862 2.862 0 0 0-1.094-.156zm-54.719.75a2.857 2.857 0 0 0-.656.156l-18.375 6.312c-1.066.368-3.86 1.42-3.92 2.546-.06 1.126 2.617 2.257 3.639 2.736l15.781 7.437a2.89 2.89 0 0 0 2.25.063l18.469-7.094c1.046-.413 3.79-1.495 3.804-2.62.013-1.124-2.706-2.223-3.742-2.661l-15.875-6.657a2.867 2.867 0 0 0-1.375-.218zm25.188 10.78c-.257.029-.51.092-.75.188l-18.469 7.125c-1.039.398-3.792 1.452-3.832 2.563-.04 1.112 2.637 2.217 3.644 2.687l15.782 7.47c.73.34 1.605.351 2.343.03l18.563-7.937c1.02-.441 3.726-1.524 3.72-2.635-.007-1.111-2.726-2.186-3.751-2.615l-15.875-6.656a2.867 2.867 0 0 0-1.375-.22z" fill="#0f0"/><path d="M949.338-606.26a7.205 7.205 0 0 0-2.243.581l-46.931 19.935a7.205 7.205 0 0 0-4.32 6.48l-.082 2.408a7.584 7.584 0 0 1 3.737-3.488l49.34-21.016a7.584 7.584 0 0 1 2.41-.581 7.584 7.584 0 0 1 5.73 2.077 7.205 7.205 0 0 0-7.641-6.396zm-77.333 33.64a7.205 7.205 0 0 0-.83.084 7.205 7.205 0 0 0-2.077.581l-46.848 20.019a7.205 7.205 0 0 0-4.403 6.728v2.076a7.584 7.584 0 0 1 3.655-3.405l49.34-21.099a7.584 7.584 0 0 1 2.16-.581 7.584 7.584 0 0 1 6.147 2.16 7.205 7.205 0 0 0-7.144-6.562zm-79.243 33.974a7.205 7.205 0 0 0-1.91.498l-46.932 20.102a7.205 7.205 0 0 0-4.32 6.811l.084 1.661a7.584 7.584 0 0 1 3.489-3.156l49.423-21.098a7.584 7.584 0 0 1 2.74-.582 7.584 7.584 0 0 1 5.483 2.077 7.205 7.205 0 0 0-7.393-6.313 7.205 7.205 0 0 0-.664 0zm152.34 20.268a7.205 7.205 0 0 0-2.575.664l-45.353 21.181a7.205 7.205 0 0 0-4.07 6.396l-.084 2.41a7.584 7.584 0 0 1 3.49-3.323l47.761-22.345a7.584 7.584 0 0 1 2.658-.664 7.584 7.584 0 0 1 5.815 2.16 7.205 7.205 0 0 0-7.642-6.48zm-74.841 35.883a7.205 7.205 0 0 0-.748.083 7.205 7.205 0 0 0-2.242.582l-45.354 21.181a7.205 7.205 0 0 0-4.07 6.645v1.994a7.584 7.584 0 0 1 3.406-3.24l47.679-22.26a7.584 7.584 0 0 1 2.409-.665 7.584 7.584 0 0 1 6.146 2.16 7.205 7.205 0 0 0-7.226-6.48zm-75.755 35.884a7.205 7.205 0 0 0-2.824.665l-45.353 21.181a7.205 7.205 0 0 0-4.07 6.811l.083 1.662a7.584 7.584 0 0 1 3.323-3.074l47.678-22.344a7.584 7.584 0 0 1 2.99-.665 7.584 7.584 0 0 1 5.483 2.16 7.205 7.205 0 0 0-7.31-6.396zm146.94 16.198a7.205 7.205 0 0 0-.747.083 7.205 7.205 0 0 0-2.74.747l-43.693 22.428a7.205 7.205 0 0 0-3.904 6.23l-.083 2.74a7.584 7.584 0 0 1 3.323-3.488l46.017-23.59a7.584 7.584 0 0 1 2.908-.831 7.584 7.584 0 0 1 5.814 2.16 7.205 7.205 0 0 0-6.894-6.48zm-73.511 37.96a7.205 7.205 0 0 0-2.575.83l-43.609 22.345a7.205 7.205 0 0 0-3.904 6.479v2.326a7.584 7.584 0 0 1 3.24-3.323l45.934-23.59a7.584 7.584 0 0 1 2.658-.83 7.584 7.584 0 0 1 6.23 2.242 7.205 7.205 0 0 0-7.974-6.48zm-72.349 37.877a7.205 7.205 0 0 0-3.073.83l-43.692 22.428a7.205 7.205 0 0 0-3.904 6.645l.083 1.91a7.584 7.584 0 0 1 3.156-3.156l46.018-23.59a7.584 7.584 0 0 1 3.24-.83 7.584 7.584 0 0 1 5.565 2.16 7.205 7.205 0 0 0-7.393-6.397z" fill="#fff" filter="url(#p)" opacity=".621" transform="matrix(.37621 0 0 .37621 116.126 45.21)"/><path d="M473.75-179.75a2.853 2.853 0 0 0-.906.219l-18.563 7.906a2.853 2.853 0 0 0-1.719 2.563l-.53 21.25a2.853 2.853 0 0 0 4.062 2.656l17.937-8.406a2.853 2.853 0 0 0 1.625-2.438l1.156-20.75a2.853 2.853 0 0 0-3.062-3zm-29.438 12.688a2.853 2.853 0 0 0-.812.218l-18.563 7.938a2.853 2.853 0 0 0-1.718 2.656l.125 21.719a2.853 2.853 0 0 0 4.062 2.562l17.938-8.406a2.853 2.853 0 0 0 1.625-2.531l.5-21.25a2.853 2.853 0 0 0-3.157-2.906zm-29.218 12.718a2.853 2.853 0 0 0-1.032.219l-18.593 7.938a2.853 2.853 0 0 0-1.719 2.718l.781 22.188a2.853 2.853 0 0 0 4.063 2.5l17.937-8.406a2.853 2.853 0 0 0 1.625-2.625l-.125-21.72a2.853 2.853 0 0 0-2.937-2.812zm57.031 7.657a2.853 2.853 0 0 0-1 .25l-17.969 8.406a2.853 2.853 0 0 0-1.625 2.531l-.5 21.25a2.853 2.853 0 0 0 4.156 2.594l17.313-8.875a2.853 2.853 0 0 0 1.531-2.375l1.156-20.781a2.853 2.853 0 0 0-3.062-3zm-28.438 13.5a2.853 2.853 0 0 0-.906.25l-17.937 8.375a2.853 2.853 0 0 0-1.625 2.625l.125 21.718a2.853 2.853 0 0 0 4.156 2.5l17.312-8.875a2.853 2.853 0 0 0 1.532-2.468l.5-21.22a2.853 2.853 0 0 0-3.157-2.905zM415.47-119.72a2.853 2.853 0 0 0-1.125.25l-17.938 8.407a2.853 2.853 0 0 0-1.625 2.687l.781 22.188a2.853 2.853 0 0 0 4.157 2.437L417-92.625a2.853 2.853 0 0 0 1.531-2.562l-.125-21.72a2.853 2.853 0 0 0-2.937-2.812zm55 6.125a2.853 2.853 0 0 0-1.094.313l-17.313 8.875a2.853 2.853 0 0 0-1.53 2.469l-.5 21.25a2.853 2.853 0 0 0 4.25 2.562l15.687-8.812v-.032c.665-.292 1.35-.723 1.843-1.468.516-.777.627-1.668.594-2.5h.031l1.094-19.657a2.853 2.853 0 0 0-3.062-3zm-27.407 14.25a2.853 2.853 0 0 0-1 .313l-17.28 8.875a2.853 2.853 0 0 0-1.532 2.562l.125 21.719a2.853 2.853 0 0 0 4.25 2.469l16.656-9.344a2.853 2.853 0 0 0 1.438-2.437l.5-21.25a2.853 2.853 0 0 0-3.157-2.907zm-27.187 14.25a2.853 2.853 0 0 0-1.219.313l-17.312 8.875a2.853 2.853 0 0 0-1.532 2.625l.782 22.187a2.853 2.853 0 0 0 4.25 2.407l16.656-9.344a2.853 2.853 0 0 0 1.437-2.531l-.125-21.72a2.853 2.853 0 0 0-2.937-2.812z" fill="#d00b0b"/><path d="M546.144-601.775a7.205 7.205 0 0 0-.664.083 7.205 7.205 0 0 0-6.812 6.728 7.584 7.584 0 0 1 5.649-2.99 7.584 7.584 0 0 1 3.655.665l41.947 19.852a7.584 7.584 0 0 1 3.156 2.658l-.166-1.495a7.205 7.205 0 0 0-4.07-5.98l-39.87-18.856a7.205 7.205 0 0 0-2.825-.665zm65.62 32.395a7.205 7.205 0 0 0-6.81 6.728 7.584 7.584 0 0 1 5.648-2.99 7.584 7.584 0 0 1 3.655.665l41.947 19.769a7.584 7.584 0 0 1 3.074 2.658l-.083-1.246a7.205 7.205 0 0 0-4.154-6.147l-39.787-18.772a7.205 7.205 0 0 0-3.49-.665zm66.12 32.312a7.205 7.205 0 0 0-6.728 6.728 7.584 7.584 0 0 1 5.648-3.073 7.584 7.584 0 0 1 3.655.664l41.947 19.77a7.584 7.584 0 0 1 2.908 2.409v-.748a7.205 7.205 0 0 0-4.07-6.313l-39.871-18.772a7.205 7.205 0 0 0-3.489-.665zm-124.181 16.862a7.205 7.205 0 0 0-6.479 6.645 7.584 7.584 0 0 1 5.316-2.907 7.584 7.584 0 0 1 4.403.914l40.784 22.51a7.584 7.584 0 0 1 2.741 2.409l-.166-1.495a7.205 7.205 0 0 0-3.655-5.815l-38.79-21.347a7.205 7.205 0 0 0-4.154-.914zm64.375 36.715a7.205 7.205 0 0 0-6.48 6.645 7.584 7.584 0 0 1 5.317-2.99 7.584 7.584 0 0 1 4.402.913l40.785 22.51a7.584 7.584 0 0 1 2.658 2.492l-.083-1.412a7.205 7.205 0 0 0-3.738-5.897l-38.708-21.348a7.205 7.205 0 0 0-4.153-.913zm64.292 36.63a7.205 7.205 0 0 0-6.48 6.646 7.584 7.584 0 0 1 5.4-3.073 7.584 7.584 0 0 1 4.402.913l40.785 22.51a7.584 7.584 0 0 1 2.575 2.493v-1.163a7.205 7.205 0 0 0-3.738-6.064l-38.708-21.347a7.205 7.205 0 0 0-4.236-.914zm-119.613 8.224a7.205 7.205 0 0 0-6.894 6.728 7.584 7.584 0 0 1 5.814-3.073 7.584 7.584 0 0 1 4.32 1.163l39.538 25.251a7.584 7.584 0 0 1 2.409 2.492l-.166-1.91a7.205 7.205 0 0 0-3.323-5.565l-37.545-23.923a7.205 7.205 0 0 0-4.153-1.163zm62.381 40.95a7.205 7.205 0 0 0-6.977 6.73 7.584 7.584 0 0 1 5.897-3.157 7.584 7.584 0 0 1 4.32 1.163l39.621 25.251a7.584 7.584 0 0 1 2.243 2.243l-.083-1.412a7.205 7.205 0 0 0-3.24-5.732l-37.71-24.005a7.205 7.205 0 0 0-4.07-1.08zm62.465 41.035a7.205 7.205 0 0 0-6.895 6.562 7.584 7.584 0 0 1 5.815-3.074 7.584 7.584 0 0 1 4.32 1.163l39.62 25.252a7.584 7.584 0 0 1 2.243 2.242l-.083-1.245a7.205 7.205 0 0 0-3.322-5.815l-37.628-24.006a7.205 7.205 0 0 0-4.07-1.08z" fill="#fff" filter="url(#q)" opacity=".593" transform="matrix(.37621 0 0 .37621 116.126 45.21)"/><path d="M320.906-178a2.853 2.853 0 0 0-2.687 3.156l2.125 19.125a2.853 2.853 0 0 0 1.469 2.188l15.312 8.469a2.853 2.853 0 0 0 4.219-2.72l-1.656-20.124a2.853 2.853 0 0 0-1.625-2.375l-15.782-7.469a2.853 2.853 0 0 0-1.375-.25zm24.938 12.156a2.853 2.853 0 0 0-2.688 3.063l1.656 20.125a2.853 2.853 0 0 0 1.47 2.281l15.343 8.5a2.853 2.853 0 0 0 4.219-2.656l-1.219-21.188a2.853 2.853 0 0 0-1.625-2.437l-15.781-7.438a2.853 2.853 0 0 0-1.375-.25zm24.906 12.125a2.853 2.853 0 0 0-2.688 3l1.22 21.156a2.853 2.853 0 0 0 1.468 2.344l15.344 8.5a2.853 2.853 0 0 0 4.219-2.594l-.782-22.218a2.853 2.853 0 0 0-1.625-2.5l-15.781-7.438a2.853 2.853 0 0 0-1.375-.25zM324-147.344a2.853 2.853 0 0 0-2.563 3.156l2.125 19.125a2.853 2.853 0 0 0 1.313 2.094l14.875 9.5a2.853 2.853 0 0 0 4.375-2.625l-1.656-20.156a2.853 2.853 0 0 0-1.469-2.281L325.656-147a2.853 2.853 0 0 0-1.656-.344zm24.219 13.781a2.853 2.853 0 0 0-2.563 3.063l1.656 20.125a2.853 2.853 0 0 0 1.313 2.188l14.906 9.5a2.853 2.853 0 0 0 4.375-2.563l-1.219-21.156a2.853 2.853 0 0 0-1.468-2.344l-15.344-8.469a2.853 2.853 0 0 0-1.656-.344zm24.219 13.75a2.853 2.853 0 0 0-2.563 3l1.219 21.157a2.853 2.853 0 0 0 1.312 2.25l14.875 9.5a2.853 2.853 0 0 0 4.375-2.5l-.75-22.188a2.853 2.853 0 0 0-1.469-2.406l-15.343-8.469a2.853 2.853 0 0 0-1.656-.344zm-45 3.126a2.853 2.853 0 0 0-2.75 3.156l2.093 19.125a2.853 2.853 0 0 0 1.156 2l14.438 10.531a2.853 2.853 0 0 0 4.531-2.531l-1.656-20.156a2.853 2.853 0 0 0-1.313-2.188l-14.875-9.5a2.853 2.853 0 0 0-1.625-.438zm23.468 15.374a2.853 2.853 0 0 0-2.75 3.094l1.688 20.156A2.853 2.853 0 0 0 351-76l14.438 10.531a2.853 2.853 0 0 0 4.53-2.469l-1.218-21.187a2.853 2.853 0 0 0-1.313-2.25l-14.906-9.5a2.853 2.853 0 0 0-1.625-.438zm23.5 15.407a2.853 2.853 0 0 0-2.75 3l1.219 21.156a2.853 2.853 0 0 0 1.156 2.156l14.438 10.532A2.853 2.853 0 0 0 393-51.47l-.75-22.187a2.853 2.853 0 0 0-1.313-2.313l-14.906-9.5a2.853 2.853 0 0 0-1.625-.437z" fill="#000084" filter="url(#r)"/></svg>