<svg viewBox="0 0 512 512" xmlns="http://www.w3.org/2000/svg" xmlns:xlink="http://www.w3.org/1999/xlink"><defs><linearGradient id="c"><stop stop-color="#fff" offset="0"/><stop stop-color="#fff" stop-opacity="0" offset="1"/></linearGradient><linearGradient id="b"><stop offset="0"/><stop offset=".353"/><stop stop-color="gray" offset=".453"/><stop offset=".603"/><stop offset="1"/></linearGradient><linearGradient id="a"><stop stop-color="#bababa" offset="0"/><stop stop-color="#666" offset="1"/></linearGradient><linearGradient id="B" x1="488.09" x2="556.92" y1="586.97" y2="586.97" gradientTransform="translate(16.017 64.36) scale(.76407)" gradientUnits="userSpaceOnUse" xlink:href="#a"/><linearGradient id="A" x1="604.74" x2="673.49" y1="554.38" y2="554.38" gradientTransform="translate(16.017 64.36) scale(.76407)" gradientUnits="userSpaceOnUse" xlink:href="#a"/><linearGradient id="z" x1="445.76" x2="503.55" y1="503.58" y2="503.58" gradientTransform="translate(16.017 64.36) scale(.76407)" gradientUnits="userSpaceOnUse" xlink:href="#a"/><linearGradient id="y" x1="548.47" x2="605.39" y1="479.71" y2="479.71" gradientTransform="translate(16.017 64.36) scale(.76407)" gradientUnits="userSpaceOnUse" xlink:href="#a"/><linearGradient id="x" x1="640.97" x2="698.08" y1="458.03" y2="458.03" gradientTransform="translate(16.017 64.36) scale(.76407)" gradientUnits="userSpaceOnUse" xlink:href="#a"/><linearGradient id="w" x1="505.93" x2="554.66" y1="423.88" y2="423.88" gradientTransform="translate(16.017 64.36) scale(.76407)" gradientUnits="userSpaceOnUse" xlink:href="#a"/><linearGradient id="v" x1="589.33" x2="638.05" y1="407.09" y2="407.09" gradientTransform="translate(16.017 64.36) scale(.76407)" gradientUnits="userSpaceOnUse" xlink:href="#a"/><linearGradient id="u" x1="666.12" x2="715.02" y1="391.6" y2="391.6" gradientTransform="translate(16.017 64.36) scale(.76407)" gradientUnits="userSpaceOnUse" xlink:href="#a"/><linearGradient id="t" x1="548.68" x2="591.13" y1="367.14" y2="367.14" gradientTransform="translate(16.017 64.36) scale(.76407)" gradientUnits="userSpaceOnUse" xlink:href="#a"/><linearGradient id="s" x1="618.98" x2="661.54" y1="354.66" y2="354.66" gradientTransform="translate(16.017 64.36) scale(.76407)" gradientUnits="userSpaceOnUse" xlink:href="#a"/><linearGradient id="r" x1="684.61" x2="727.35" y1="343.01" y2="343.01" gradientTransform="translate(16.017 64.36) scale(.76407)" gradientUnits="userSpaceOnUse" xlink:href="#a"/><linearGradient id="q" x1="580.62" x2="618.34" y1="324.69" y2="324.69" gradientTransform="translate(16.017 64.36) scale(.76407)" gradientUnits="userSpaceOnUse" xlink:href="#a"/><linearGradient id="g" x1="405.24" x2="437.03" y1="289.57" y2="288.59" gradientTransform="translate(16.017 64.36) scale(.76407)" gradientUnits="userSpaceOnUse" xlink:href="#b"/><linearGradient id="i" x1="423.34" x2="458.09" y1="311.51" y2="311.56" gradientTransform="translate(16.017 64.36) scale(.76407)" gradientUnits="userSpaceOnUse" xlink:href="#b"/><linearGradient id="h" x1="341.96" x2="374.79" y1="298.29" y2="295.4" gradientTransform="translate(16.017 64.36) scale(.76407)" gradientUnits="userSpaceOnUse" xlink:href="#b"/><linearGradient id="j" x1="354.76" x2="390.55" y1="323.18" y2="319.76" gradientTransform="translate(16.017 64.36) scale(.76407)" gradientUnits="userSpaceOnUse" xlink:href="#b"/><linearGradient id="f" x1="370.25" x2="409.58" y1="353.31" y2="349.19" gradientTransform="translate(16.017 64.36) scale(.76407)" gradientUnits="userSpaceOnUse" xlink:href="#b"/><linearGradient id="k" x1="281.22" x2="318.89" y1="334.26" y2="329.89" gradientTransform="translate(16.017 64.36) scale(.76407)" gradientUnits="userSpaceOnUse" xlink:href="#b"/><linearGradient id="l" x1="289.77" x2="330.89" y1="367.62" y2="361.46" gradientTransform="translate(16.017 64.36) scale(.76407)" gradientUnits="userSpaceOnUse" xlink:href="#b"/><linearGradient id="e" x1="299.31" x2="345.79" y1="407.29" y2="400.67" gradientTransform="translate(16.017 64.36) scale(.76407)" gradientUnits="userSpaceOnUse" xlink:href="#b"/><linearGradient id="m" x1="201.85" x2="246.36" y1="380.32" y2="373.71" gradientTransform="translate(16.017 64.36) scale(.76407)" gradientUnits="userSpaceOnUse" xlink:href="#b"/><linearGradient id="n" x1="201.12" x2="251.25" y1="424.36" y2="414.78" gradientTransform="translate(16.017 64.36) scale(.76407)" gradientUnits="userSpaceOnUse" xlink:href="#b"/><linearGradient id="o" x1="94.145" x2="148.73" y1="442.95" y2="430.13" gradientTransform="translate(16.017 64.36) scale(.76407)" gradientUnits="userSpaceOnUse" xlink:href="#b"/><linearGradient id="p" x1="200.17" x2="257.62" y1="481.25" y2="469.45" gradientTransform="translate(16.017 64.36) scale(.76407)" gradientUnits="userSpaceOnUse" xlink:href="#b"/><linearGradient id="d" x1="327.26" x2="301.53" y1="272.96" y2="162.99" gradientTransform="translate(67.889 180.23)" gradientUnits="userSpaceOnUse"><stop offset="0"/><stop stop-color="#333" offset="1"/></linearGradient><linearGradient id="N" x1="168.96" x2="212.77" y1="427.74" y2="427.74" gradientTransform="rotate(90 202.865 431.745)" gradientUnits="userSpaceOnUse" xlink:href="#b"/><linearGradient id="M" x1="87.945" x2="129.9" y1="399.14" y2="399.14" gradientTransform="rotate(90 120.925 403.145)" gradientUnits="userSpaceOnUse" xlink:href="#b"/><linearGradient id="L" x1="169.68" x2="207.99" y1="385.23" y2="385.23" gradientTransform="rotate(90 200.835 389.225)" gradientUnits="userSpaceOnUse" xlink:href="#b"/><linearGradient id="K" x1="244.51" x2="280.23" y1="372.44" y2="372.44" gradientTransform="rotate(90 274.37 376.44)" gradientUnits="userSpaceOnUse" xlink:href="#b"/><linearGradient id="J" x1="170.24" x2="204.28" y1="352.29" y2="352.29" gradientTransform="rotate(90 199.26 356.29)" gradientUnits="userSpaceOnUse" xlink:href="#b"/><linearGradient id="I" x1="236.91" x2="268.84" y1="342.09" y2="342.09" gradientTransform="rotate(90 264.874 346.086)" gradientUnits="userSpaceOnUse" xlink:href="#b"/><linearGradient id="H" x1="298.69" x2="329" y1="332.6" y2="332.6" gradientTransform="rotate(90 325.842 336.598)" gradientUnits="userSpaceOnUse" xlink:href="#b"/><linearGradient id="G" x1="230.79" x2="259.67" y1="317.67" y2="317.67" gradientTransform="rotate(90 257.235 321.675)" gradientUnits="userSpaceOnUse" xlink:href="#b"/><linearGradient id="F" x1="286.9" x2="314.42" y1="309.86" y2="309.86" gradientTransform="rotate(90 312.661 313.859)" gradientUnits="userSpaceOnUse" xlink:href="#b"/><linearGradient id="E" x1="339.48" x2="366.03" y1="302.52" y2="302.52" gradientTransform="rotate(90 364.751 306.519)" gradientUnits="userSpaceOnUse" xlink:href="#b"/><linearGradient id="D" x1="277.16" x2="302.38" y1="291.05" y2="291.05" gradientTransform="rotate(90 301.767 295.053)" gradientUnits="userSpaceOnUse" xlink:href="#b"/><linearGradient id="C" x1="325.64" x2="349.94" y1="284.86" y2="284.86" gradientTransform="rotate(90 349.787 288.863)" gradientUnits="userSpaceOnUse" xlink:href="#b"/><linearGradient id="S" x1="531.14" x2="557.88" y1="358.09" y2="358.09" gradientTransform="rotate(90 544.51 358.09)" gradientUnits="userSpaceOnUse" xlink:href="#c"/><linearGradient id="P" x1="544.59" x2="567.88" y1="321.53" y2="321.53" gradientTransform="rotate(90 556.235 321.525)" gradientUnits="userSpaceOnUse" xlink:href="#c"/><linearGradient id="O" x1="463.94" x2="484.97" y1="307.77" y2="307.77" gradientTransform="rotate(90 474.455 307.775)" gradientUnits="userSpaceOnUse" xlink:href="#c"/><linearGradient id="Q" x1="494.04" x2="517.56" y1="330.3" y2="330.3" gradientTransform="rotate(90 505.8 330.3)" gradientUnits="userSpaceOnUse" xlink:href="#c"/><linearGradient id="R" x1="439.87" x2="463.71" y1="339.71" y2="339.71" gradientTransform="rotate(90 451.785 339.705)" gradientUnits="userSpaceOnUse" xlink:href="#c"/><linearGradient id="V" x1="512.75" x2="544.16" y1="408.19" y2="408.19" gradientTransform="rotate(90 528.455 408.185)" gradientUnits="userSpaceOnUse" xlink:href="#c"/><linearGradient id="T" x1="471.91" x2="499.01" y1="369.78" y2="369.78" gradientTransform="rotate(90 485.455 369.775)" gradientUnits="userSpaceOnUse" xlink:href="#c"/><linearGradient id="U" x1="407.56" x2="435.2" y1="382.45" y2="382.45" gradientTransform="rotate(90 421.382 382.449)" gradientUnits="userSpaceOnUse" xlink:href="#c"/><linearGradient id="W" x1="441.28" x2="473.25" y1="424.57" y2="424.57" gradientTransform="rotate(90 457.264 424.566)" gradientUnits="userSpaceOnUse" xlink:href="#c"/><linearGradient id="X" x1="362.12" x2="395.24" y1="442.62" y2="442.62" gradientTransform="rotate(90 378.682 442.618)" gradientUnits="userSpaceOnUse" xlink:href="#c"/><linearGradient id="Y" x1="486.14" x2="524.26" y1="481.03" y2="481.03" gradientTransform="rotate(90 505.199 481.031)" gradientUnits="userSpaceOnUse" xlink:href="#c"/><linearGradient id="Z" x1="395.77" x2="435.01" y1="505.75" y2="505.75" gradientTransform="rotate(90 415.39 505.75)" gradientUnits="userSpaceOnUse" xlink:href="#c"/></defs><path d="M236.431 98.96l-.479.282L.002 238.072l452.1 174.97 59.905-267.79-275.57-46.286zm.591 3.2l271.29 45.566-58.424 261.18-442.89-171.41 230.02-135.34z" color="#000" fill="#1a1a1a" fill-rule="evenodd" style="block-progression:tb;isolation:auto;mix-blend-mode:normal;text-decoration-color:#000;text-decoration-line:none;text-decoration-style:solid;text-indent:0;text-transform:none;white-space:normal"/><path d="M332.12 285.09l-16.875 11.166 30.576 5.58 15.66-11.777-29.361-4.969zm13.701 16.746l-17.59 13.229 33.9 6.709 16.09-14.023-32.4-5.914zm32.4 5.914l34.391 6.277 12.695-13.166-32.811-5.552-14.275 12.44zm34.391 6.277l-14.359 14.896 38.568 7.633 12.365-15.852-36.574-6.677zm36.574 6.678l38.971 7.113 8.824-14.826-36.906-6.246-10.889 13.96zm38.971 7.113l-10.064 16.906 44.271 8.762 7.402-18.074-41.609-7.594zm41.609 7.594l44.527 8.13 3.754-16.829-41.818-7.078-6.463 15.777zm-7.402 18.074l-8.563 20.912 51.148 11.045 5.026-22.533-47.611-9.424zm-8.563 20.912l-47.293-10.213-13.477 22.64 50.746 12.044L513.8 374.4zm-10.023 24.471l-11.889 29.025 60.066 15.811 7.074-31.723-55.252-13.113zm-11.889 29.025l-54.73-14.404-18.97 31.873 59.374 17.516 14.326-34.984zm-14.326 34.984l-17.605 42.984 72.701 24.367 10.693-47.943-65.789-19.408zm-17.605 42.984L395.11 484.13l-28.674 48.172 71.37 27.646 22.151-54.086zM395.11 484.13l23.078-38.768-53.855-15.889-27.422 35.15 58.2 19.506zm-58.199-19.506l-52.523-17.604-37.557 38.953 56.387 21.842 33.693-43.19zm-52.523-17.604l30.875-32.023-44.896-13.246-33.619 29.303 47.641 15.967zm-47.64-15.967l-43.409-14.549-42.783 32.174 45.67 17.691 40.521-35.316zm-43.409-14.549l35.795-26.918-38.002-11.21-37.508 24.817 39.715 13.311zm-39.715-13.31l-36.475-12.226-45.76 27.043 37.742 14.621 44.492-29.439zm37.508-24.819l32.05-21.205-33.792-8.894-33.393 19.734 35.135 10.365zm32.05-21.205l36.34 9.565 26.118-19.643-34.76-8.25-27.699 18.328zm27.698-18.328l24.182-16-31.225-6.742-25.438 15.033 32.48 7.709zm24.182-16l33.271 7.184 19.898-14.963-31.879-6.309-21.29 14.088zm21.291-14.088l18.893-12.5-28.902-5.275-20.02 11.832 30.03 5.943zm11.98 21.271l-22.693 17.066 37.287 8.85 20.932-18.244-35.525-7.672zm35.525 7.672l38.016 8.21 16.38-16.985-36.122-7.15-18.273 15.926zm38.016 8.21l-18.85 19.552 43.24 10.264 16.39-21.01-40.78-8.806zm40.78 8.806l43.854 9.47 11.584-19.46-41.27-8.169-14.169 18.158zm-16.39 21.01l-19.18 24.586 50.074 13.18 15.873-26.666-46.768-11.1zm-19.18 24.586l-45.99-12.104-25.832 26.79 49.07 14.478 22.752-29.164zm-45.99-12.104l21.93-22.746-40.098-9.518-24.219 21.107 42.387 11.156zm-42.387-11.156l-39.188-10.314-30.387 22.852 41.232 12.164 28.342-24.701z" fill="url(#d)" transform="translate(-67.889 -180.23)"/><path d="M266.01 363.39l-3.371.145-3.385.468-3.28.773-3.058 1.057-2.723 1.304-2.285 1.507-1.756 1.658-1.152 1.75-.491 1.774.2 1.732 1.492 11.054.894 1.664 1.558 1.48 2.165 1.23 2.694.93 3.113.587 3.402.215 3.554-.166 3.55-.537 3.4-.888 3.11-1.196 2.696-1.452 2.177-1.646 1.58-1.77.932-1.825.258-1.805-1.061-10.933-.41-1.675-1.061-1.528-1.663-1.331-2.197-1.086-2.644-.808-2.997-.501-3.24-.18z" fill="url(#e)" transform="translate(-67.889 -180.23)"/><path d="M315.58 325.91l-2.898.113-2.858.353-2.716.582-2.474.789-2.143.973-1.73 1.12-1.243 1.232-.706 1.295-.13 1.312.74 9.884.456 1.314 1.031 1.227 1.571 1.088 2.055.904 2.461.68 2.767.426 2.959.152 3.03-.127 2.975-.4 2.795-.658 2.503-.885 2.111-1.073 1.64-1.217 1.11-1.312.543-1.352-.035-1.34-.431-9.821-.606-1.24-1.149-1.131-1.64-.987-2.066-.804-2.414-.597-2.673-.37-2.835-.13z" fill="url(#f)" transform="translate(-67.889 -180.23)"/><path d="M338.62 280.54l-2.337.08-2.282.235-2.147.383-1.934.52-1.646.635-1.297.732-.894.798-.452.839.012.846.376 8.34.48.85.933.79 1.354.696 1.725.578 2.028.43 2.253.268 2.386.092 2.42-.086 2.359-.263 2.196-.427 1.948-.574 1.624-.694 1.235-.79.806-.849.348-.876-.18-8.324-.119-.84-.574-.8-1.006-.733-1.395-.637-1.729-.52-1.996-.384-2.19-.236-2.305-.079z" fill="url(#g)" transform="translate(-67.889 -180.23)"/><path d="M291.76 286.47l-2.415.084-2.4.247-2.299.408-2.115.549-1.85.674-1.516.775-1.122.848-.678.889-.204.898.79 8.529.284.901.766.839 1.219.74 1.63.614 1.977.46 2.249.284 2.425.1 2.507-.092 2.481-.278 2.357-.454 2.138-.607 1.833-.737 1.458-.837 1.03-.9.567-.93.09-.922-.578-8.482-.388-.85-.848-.777-1.268-.676-1.642-.552-1.95-.41-2.185-.25-2.343-.085z" fill="url(#h)" transform="translate(-67.889 -180.23)"/><path d="M353.31 297.37l-2.54.091-2.47.278-2.311.452-2.069.615-1.746.752-1.358.867-.913.95-.428.997.288 8.914.08 1.04.587 1.012 1.077.94 1.533.834 1.93.69 2.253.517 2.486.323 2.618.113 2.641-.101 2.558-.31 2.367-.508 2.083-.682 1.715-.827 1.285-.937.807-1.01.304-1.042-.056-8.928-.203-1-.7-.952-1.166-.872-1.579-.76-1.93-.619-2.212-.458-2.41-.282-2.52-.097z" fill="url(#i)" transform="translate(-67.889 -180.23)"/><path d="M302.57 304.36l-2.634.097-2.608.294-2.491.482-2.282.652-1.986.803-1.616.924-1.182 1.013-.696 1.064-.176 1.076.776 9.16.358 1.079.88 1.006 1.375.889 1.82.737 2.193.554 2.48.345 2.667.122 2.743-.106 2.707-.331 2.558-.54 2.305-.727 1.964-.882 1.546-1 1.072-1.078.562-1.111.04-1.102-.523-9.106-.482-1.018-.978-.93-1.432-.81-1.831-.66-2.158-.489-2.404-.303-2.567-.104z" fill="url(#j)" transform="translate(-67.889 -180.23)"/><path d="M248.6 311.8l-2.735.103-2.761.312-2.688.513-2.519.697-2.255.857-1.907.986-1.482 1.082-.997 1.137-.464 1.15.093 1.12 1.33 9.42.656 1.074 1.192.952 1.688.791 2.12.593 2.47.371 2.716.131 2.852-.113 2.871-.352 2.769-.578 2.556-.777 2.24-.942 1.838-1.068 1.37-1.152.854-1.187.31-1.177-1.046-9.329-.231-1.088-.766-.994-1.264-.865-1.711-.706-2.093-.524-2.395-.324-2.611-.113z" fill="url(#k)" transform="translate(-67.889 -180.23)"/><path d="M256.39 334.88l-3.02.12-3.042.38-2.955.622-2.762.85-2.467 1.044-2.08 1.206-1.609 1.323-1.068 1.394-.482 1.412.137 1.376 1.41 10.179.758 1.322 1.352 1.173 1.899.975 2.372.734 2.754.46 3.022.167 3.163-.136 3.175-.43 3.053-.707 2.805-.953 2.448-1.156 1.995-1.31 1.47-1.41.894-1.455.294-1.442-1.066-10.075-.304-1.334-.893-1.22-1.437-1.059-1.925-.867-2.337-.643-2.662-.398-2.892-.142z" fill="url(#l)" transform="translate(-67.889 -180.23)"/><path d="M192.89 344.51l-3.152.128-3.246.406-3.222.672-3.084.912-2.836 1.125-2.478 1.3-2.025 1.428-1.488 1.504-.885 1.524-.236 1.486 2.186 10.45.44 1.427 1.093 1.267 1.71 1.054 2.266.794 2.73.5 3.085.18 3.31-.143 3.397-.464 3.34-.763 3.15-1.028 2.829-1.247 2.401-1.414 1.88-1.522 1.297-1.57.673-1.553.033-1.482-1.782-10.297-.594-1.316-1.2-1.145-1.756-.934-2.241-.694-2.643-.431-2.952-.154z" fill="url(#m)" transform="translate(-67.889 -180.23)"/><path d="M195.13 375.36l-3.538.155-3.64.506-3.616.84-3.46 1.148-3.185 1.416-2.787 1.639-2.278 1.804-1.678 1.904-1 1.934-.268 1.89 2.468 11.36.494 1.814 1.231 1.613 1.931 1.344 2.558 1.017 3.083.64 3.485.237 3.737-.177 3.832-.587 3.765-.965 3.543-1.302 3.175-1.582 2.687-1.792 2.096-1.928 1.436-1.985.731-1.965.012-1.87-1.956-11.19-.691-1.663-1.367-1.448-1.987-1.183-2.526-.879-2.974-.546-3.313-.199z" fill="url(#n)" transform="translate(-67.889 -180.23)"/><path d="M118.21 388.36l-3.72.169-3.928.55-3.995.914-3.926 1.249-3.716 1.544-3.367 1.788-2.888 1.97-2.293 2.08-1.599 2.116-.825 2.067-.004 1.936 3.64 11.73.84 1.767 1.643 1.472 2.386 1.114 3.037.703 3.565.262 3.943-.192 4.15-.639 4.184-1.056 4.041-1.424 3.734-1.728 3.279-1.96 2.7-2.105 2.025-2.169 1.286-2.146.513-2.041-.262-1.864-2.995-11.456-1.015-1.58-1.731-1.293-2.38-.96-2.935-.598-3.387-.22z" fill="url(#o)" transform="translate(-67.889 -180.23)"/><path d="M198 414.82l-4.03.197-4.145.65-4.116 1.084-3.944 1.486-3.63 1.839-3.18 2.13-2.606 2.354-1.923 2.49-1.149 2.535-.313 2.482 2.837 12.4.563 2.38 1.41 2.122 2.214 1.773 2.937 1.341 3.543.853 4.002.319 4.29-.227 4.396-.764 4.313-1.264 4.048-1.707 3.619-2.073 3.049-2.346 2.367-2.52 1.605-2.594.799-2.562-.021-2.437-2.168-12.206-.82-2.174-1.588-1.89-2.286-1.543-2.896-1.146-3.397-.718-3.78-.264z" fill="url(#p)" transform="translate(-67.889 -180.23)"/><path d="M472 302.33l-2.583.097-2.401.291-2.131.478-1.785.647-1.369.796-.898.914-.39 1.003-.789 9.112.139 1.088.665 1.1 1.176 1.07 1.648.995 2.06.882 2.393.73 2.631.55 2.764.341 2.784.12 2.688-.105 2.48-.328 2.175-.536 1.778-.72 1.315-.875.805-.991.268-1.069 1.052-9.194-.279-1.067-.806-1.057-1.292-1.008-1.727-.921-2.089-.802-2.373-.653-2.566-.485-2.669-.299-2.674-.104z" fill="url(#q)" transform="translate(-67.889 -180.23)"/><path d="M551.42 315.36l-2.727.106-2.454.327-2.094.538-1.655.732-1.152.898-.603 1.037-1.601 9.548-.029 1.173.554 1.233 1.125 1.247 1.663 1.214 2.14 1.13 2.54 1.004 2.84.832 3.032.624 3.095.392 3.032.14 2.843-.119 2.537-.371 2.127-.608 1.632-.816 1.076-.992.482-1.124 1.939-9.715-.131-1.173-.73-1.21-1.29-1.2-1.79-1.143-2.22-1.045-2.559-.909-2.802-.741-2.942-.55-2.976-.341-2.902-.118z" fill="url(#r)" transform="translate(-67.889 -180.23)"/><path d="M502.24 323.67l-2.835.112-2.606.35-2.28.577-1.872.782-1.39.964-.856 1.111-.279 1.22-1.164 9.827.308 1.323.894 1.339 1.455 1.303 1.967 1.216 2.408 1.079 2.756.894 2.997.674 3.115.421 3.102.152 2.962-.127 2.698-.397 2.325-.652 1.858-.876 1.32-1.065.735-1.207 1.498-9.963.123-1.261-.485-1.301-1.066-1.288-1.595-1.227-2.058-1.122-2.44-.976-2.725-.797-2.911-.591-2.992-.366-2.967-.128z" fill="url(#s)" transform="translate(-67.889 -180.23)"/><path d="M449.6 332.57l-2.953.12-2.77.375-2.49.618-2.114.84-1.662 1.036-1.142 1.194-.573 1.312-.649 10.082.022 1.422.626 1.44 1.213 1.404 1.762 1.31 2.25 1.162 2.653.965 2.948.727 3.127.457 3.175.164 3.091-.135 2.879-.426 2.547-.7 2.113-.945 1.597-1.146 1.022-1.298.418-1.4.988-10.184-.205-1.4-.805-1.386-1.367-1.321-1.869-1.207-2.293-1.05-2.631-.859-2.87-.637-3.004-.394-3.034-.14z" fill="url(#t)" transform="translate(-67.889 -180.23)"/><path d="M539.33 349.83l-3.144.136-2.845.43-2.444.708-1.955.967-1.39 1.193-.765 1.377-1.692 10.61-.112 1.557.555 1.642 1.215 1.665 1.838 1.624 2.4 1.518 2.872 1.349 3.237 1.12 3.47.847 3.562.53 3.504.196 3.3-.153 2.956-.493 2.49-.81 1.929-1.093 1.29-1.325.608-1.503 2.135-10.809-.1-1.573-.786-1.62-1.433-1.604-2.011-1.527-2.506-1.395-2.902-1.215-3.187-.99-3.356-.738-3.402-.457-3.331-.164z" fill="url(#u)" transform="translate(-67.889 -180.23)"/><path d="M467.85 366.01l-.457 1.643-1.088 10.943.217 1.78c3.105 6.499 10.89 8.35 17.415 9.406 6.192.41 14.288.406 17.81-5.62l.258-1.755 1.525-11.06-.452-1.762c-3.72-5.986-11.18-7.656-17.705-8.603-6.082-.358-13.545-.311-17.523 5.028z" fill="url(#v)" transform="translate(-67.889 -180.23)"/><path d="M403.13 380.11l-.182 1.888-.366 11.297.518 1.967c3.933 6.606 12.045 8.074 19.143 8.524 6.066-.093 12.26-1.332 16.092-6.35l.66-1.912.816-11.37-.057-1.917c-2.476-6.588-10.097-8.383-16.36-9.37-7.085-.437-16.726-.034-20.264 7.243z" fill="url(#w)" transform="translate(-67.889 -180.23)"/><path d="M507.77 403.24l-1.749 11.882-.26 2.168c1.705 8.228 10.488 11.603 17.705 13.744 7.751 1.54 17.16 2.133 22.77-4.386l.805-2.11 2.356-12.12-.028-2.217c-2.695-7.802-11.23-10.816-18.55-12.75-9.211-.107-19.107-1.638-23.048 5.789z" fill="url(#x)" transform="translate(-67.889 -180.23)"/><path d="M436.72 419.09l-.763 2.331-.865 12.279.03 2.522c2.51 8.692 11.57 11.865 19.619 13.474 8.185.848 17.52-.207 21.885-7.993l.483-2.5 1.472-12.417-.354-2.514c-3.415-8.037-12.121-10.83-20.078-12.24-7.862-.754-16.527.244-21.43 7.058z" fill="url(#y)" transform="translate(-67.889 -180.23)"/><path d="M366.73 430.55c-5.284 2.183-8.94 5.659-10.128 11.274.133 5.183.013 10.37.495 15.534.92 3.352 3.171 5.522 5.701 7.729 9.793 6.204 21.716 5.977 31.662.373 2.85-1.948 4.428-4.49 5.654-7.617.459-5.173.481-10.375.648-15.563l-.609-2.75c-1.29-3.14-3.712-5.103-6.357-7.062-8.461-4.79-18.002-4.806-27.066-1.918z" fill="url(#z)" transform="translate(-67.889 -180.23)"/><path d="M499.45 463.53l-4.525.255-4.168.861-3.668 1.445-3.035 1.983-2.29 2.462-1.447 2.863-.533 3.168-1.702 13.429.401 3.423 1.35 3.497 2.27 3.432 3.124 3.23 3.866 2.889 4.464 2.419 4.881 1.838 5.094 1.172 5.085.446 4.856-.302 4.413-1.032 3.786-1.717 3-2.316 2.103-2.811 1.134-3.179 2.581-13.64.123-3.352-.867-3.438-1.798-3.39-2.639-3.216-3.362-2.93-3.947-2.543-4.383-2.074-4.66-1.544-4.776-.966-4.73-.362z" fill="url(#A)" transform="translate(-67.889 -180.23)"/><path d="M413.56 486.03c-11.869-.457-23.042 5.758-24.319 18.409l-.284 13.868c1.604 14.084 14.736 20.776 27.466 21.351 11.294.51 21.19-5.228 23.94-16.636l1.185-13.961c.116-15.25-14.76-22.522-27.988-23.031z" fill="url(#B)" transform="translate(-67.889 -180.23)"/><path d="M338.62 280.54l-2.337.08-2.282.235-2.147.383-1.934.52-1.646.635-1.297.732-.894.798-.452.839.012.846.48.82.939.763 1.364.673 1.739.557 2.044.416 2.271.258 2.406.088 2.441-.085 2.376-.255 2.216-.415 1.964-.555 1.637-.673 1.248-.762.813-.821.352-.848-.118-.84-.574-.8-1.006-.733-1.395-.637-1.728-.52-1.997-.384-2.19-.236-2.305-.079z" fill="url(#C)" transform="translate(-67.889 -180.23)"/><path d="M291.76 286.47l-2.415.084-2.4.247-2.299.408-2.115.549-1.85.674-1.516.775-1.122.848-.678.889-.204.898.283.872.769.81 1.226.717 1.642.592 1.992.443 2.267.275 2.446.095 2.528-.09 2.504-.27 2.377-.44 2.158-.59 1.85-.714 1.474-.809 1.04-.873.576-.898.09-.893-.387-.849-.848-.777-1.268-.676-1.642-.552-1.95-.41-2.185-.25-2.343-.085z" fill="url(#D)" transform="translate(-67.889 -180.23)"/><path d="M353.31 297.37l-2.54.091-2.47.278-2.311.452-2.069.615-1.746.752-1.358.867-.913.95-.428.997.079 1.008.59.978 1.086.91 1.546.808 1.946.667 2.272.5 2.51.31 2.64.11 2.666-.1 2.58-.302 2.39-.492 2.1-.662 1.731-.8 1.297-.91.815-.979.307-1.008-.202-1-.7-.952-1.166-.872-1.579-.76-1.93-.619-2.212-.458-2.41-.282-2.521-.097z" fill="url(#E)" transform="translate(-67.889 -180.23)"/><path d="M302.57 304.36l-2.634.097-2.608.294-2.491.482-2.282.652-1.986.803-1.616.924-1.182 1.013-.696 1.064-.176 1.076.358 1.045.885.973 1.385.86 1.833.716 2.211.534 2.503.334 2.692.116 2.768-.104 2.733-.322 2.583-.524 2.33-.706 1.983-.855 1.562-.97 1.085-1.045.57-1.076.042-1.067-.482-1.018-.978-.93-1.432-.81-1.831-.66-2.158-.489-2.404-.303-2.567-.104z" fill="url(#F)" transform="translate(-67.889 -180.23)"/><path d="M248.6 311.8l-2.735.103-2.761.312-2.688.513-2.519.697-2.255.857-1.907.986-1.482 1.082-.997 1.137-.464 1.15.093 1.12.655 1.042 1.198.922 1.7.765 2.137.575 2.49.358 2.743.127 2.88-.11 2.899-.345 2.8-.561 2.583-.754 2.266-.915 1.861-1.038 1.388-1.117.867-1.15.32-1.142-.232-1.088-.765-.994-1.264-.865-1.712-.706-2.092-.524-2.395-.324-2.612-.113z" fill="url(#G)" transform="translate(-67.889 -180.23)"/><path d="M315.58 325.91l-2.898.113-2.858.353-2.716.582-2.474.789-2.143.973-1.73 1.12-1.243 1.232-.706 1.295-.13 1.312.459 1.276 1.037 1.19 1.585 1.057 2.072.876 2.485.658 2.794.412 2.99.148 3.06-.124 3.006-.39 2.827-.641 2.53-.86 2.135-1.044 1.66-1.182 1.122-1.274.552-1.312-.033-1.3-.606-1.24-1.15-1.131-1.64-.987-2.065-.804-2.414-.597-2.673-.37-2.835-.13z" fill="url(#H)" transform="translate(-67.889 -180.23)"/><path d="M256.39 334.88l-3.02.12-3.042.38-2.955.622-2.762.85-2.467 1.044-2.08 1.206-1.609 1.323-1.068 1.394-.482 1.412.137 1.376.758 1.283 1.36 1.139 1.913.946 2.394.712 2.78.446 3.053.161 3.198-.133 3.212-.42 3.087-.688 2.84-.927 2.479-1.124 2.022-1.274 1.49-1.372.91-1.413.302-1.4-.304-1.334-.892-1.219-1.438-1.06-1.925-.866-2.337-.644-2.662-.398-2.892-.142z" fill="url(#I)" transform="translate(-67.889 -180.23)"/><path d="M192.89 344.51l-3.152.128-3.246.406-3.222.672-3.084.912-2.836 1.125-2.478 1.3-2.025 1.428-1.488 1.504-.885 1.524-.236 1.486.433 1.388 1.094 1.231 1.722 1.025 2.283.77 2.756.485 3.118.175 3.347-.142 3.438-.452 3.385-.743 3.19-1.001 2.87-1.214 2.436-1.377 1.911-1.48 1.323-1.526.69-1.511.042-1.439-.594-1.316-1.2-1.145-1.756-.934-2.241-.694-2.643-.431-2.952-.154z" fill="url(#J)" transform="translate(-67.889 -180.23)"/><path d="M266.01 363.39l-3.371.145-3.385.468-3.28.773-3.058 1.057-2.723 1.304-2.285 1.507-1.756 1.658-1.152 1.75-.491 1.774.2 1.732.895 1.621 1.568 1.44 2.185 1.198 2.722.905 3.148.568 3.442.21 3.597-.163 3.595-.527 3.446-.866 3.151-1.165 2.733-1.416 2.21-1.605 1.604-1.725.95-1.775.268-1.758-.41-1.675-1.061-1.528-1.663-1.331-2.197-1.087-2.644-.807-2.997-.501-3.24-.18z" fill="url(#K)" transform="translate(-67.889 -180.23)"/><path d="M195.13 375.36l-3.538.155-3.64.506-3.616.84-3.46 1.148-3.185 1.416-2.786 1.639-2.28 1.804-1.677 1.904-1 1.934-.268 1.89.485 1.766 1.233 1.573 1.943 1.31 2.581.99 3.118.624 3.526.23 3.785-.177 3.884-.571 3.819-.945 3.596-1.271 3.227-1.543 2.73-1.75 2.136-1.88 1.466-1.935.753-1.915.026-1.823-.691-1.664-1.367-1.448-1.987-1.183-2.526-.88-2.974-.545-3.313-.199z" fill="url(#L)" transform="translate(-67.889 -180.23)"/><path d="M118.21 388.36l-3.72.169-3.928.55-3.995.914-3.926 1.249-3.716 1.544-3.367 1.788-2.888 1.97-2.293 2.08-1.599 2.116-.825 2.067-.005 1.936.831 1.723 1.646 1.439 2.406 1.085 3.07.686 3.608.254 3.995-.19 4.213-.625 4.248-1.032 4.109-1.393 3.8-1.69 3.339-1.912 2.755-2.057 2.073-2.117 1.323-2.094.54-1.99-.247-1.82-1.015-1.58-1.731-1.293-2.379-.96-2.935-.598-3.388-.219z" fill="url(#M)" transform="translate(-67.889 -180.23)"/><path d="M198 414.82l-4.03.197-4.145.65-4.116 1.084-3.944 1.486-3.63 1.839-3.18 2.13-2.607 2.354-1.922 2.49-1.149 2.535-.313 2.482.55 2.328 1.414 2.076 2.23 1.734 2.969 1.313 3.587.831 4.058.312 4.355-.224 4.463-.75 4.385-1.24 4.117-1.672 3.684-2.03 3.107-2.298 2.418-2.467 1.644-2.536.826-2.508-.005-2.381-.82-2.175-1.587-1.889-2.287-1.543-2.896-1.146-3.397-.718-3.78-.264z" fill="url(#N)" transform="translate(-67.889 -180.23)"/><g fill="#ccc"><path d="M404.111 122.1l-2.583.097-2.401.291-2.131.478-1.785.647-1.369.796-.898.914-.39 1.003.142 1.055.678 1.064 1.19 1.036 1.668.964 2.081.854 2.418.707 2.658.53 2.792.33 2.81.114 2.711-.102 2.503-.32 2.192-.52 1.792-.7 1.324-.848.807-.96.266-1.034-.279-1.067-.806-1.057-1.292-1.008-1.727-.921-2.089-.801-2.373-.654-2.567-.485-2.668-.299-2.674-.104zM483.531 135.13l-2.727.106-2.454.327-2.094.539-1.655.73-1.152.9-.603 1.036-.02 1.136.566 1.195 1.146 1.209 1.687 1.176 2.168 1.097 2.573.971 2.875.806 3.066.606 3.129.378 3.064.134 2.87-.116 2.562-.362 2.143-.59 1.641-.795 1.08-.962.477-1.09-.132-1.174-.73-1.21-1.289-1.2-1.79-1.143-2.22-1.045-2.559-.909-2.803-.741-2.941-.55-2.976-.341-2.902-.118zM434.351 143.44l-2.835.112-2.606.35-2.28.577-1.872.782-1.39.964-.856 1.111-.279 1.22.317 1.283.909 1.298 1.475 1.264 1.994 1.18 2.439 1.045 2.789.869 3.03.652 3.15.407 3.135.147 2.992-.124 2.725-.388 2.346-.633 1.871-.854 1.328-1.034.735-1.171.122-1.261-.485-1.302-1.066-1.287-1.595-1.227-2.058-1.122-2.44-.976-2.725-.797-2.911-.591-2.992-.366-2.967-.128zM381.711 152.34l-2.953.12-2.77.375-2.49.618-2.114.84-1.662 1.036-1.142 1.194-.573 1.312.027 1.382.634 1.398 1.23 1.362 1.786 1.272 2.276 1.128 2.683.937 2.983.705 3.161.441 3.21.159 3.125-.132 2.907-.416 2.573-.684 2.13-.917 1.611-1.114 1.03-1.262.416-1.36-.204-1.4-.806-1.386-1.367-1.32-1.869-1.208-2.293-1.05-2.631-.859-2.87-.637-3.004-.394-3.034-.14zM471.441 169.6l-3.144.136-2.845.43-2.444.708-1.955.967-1.39 1.193-.765 1.377-.104 1.515.571 1.597 1.24 1.619 1.869 1.579 2.437 1.476 2.916 1.31 3.28 1.09 3.517.822 3.606.516 3.547.186 3.337-.149 2.986-.48 2.514-.791 1.942-1.064 1.295-1.29.604-1.464-.1-1.572-.786-1.621-1.433-1.604-2.011-1.527-2.506-1.395-2.902-1.215-3.187-.99-3.356-.738-3.402-.457-3.331-.164zM402.781 183c-4.266 2.727-3.656 6.272-.566 9.634 4.344 3.563 9.748 4.836 15.172 5.679 5.367.567 10.593-.028 15.404-2.491 4.235-3.088 2.81-6.736-.476-9.861-4.35-3.24-9.572-4.44-14.837-5.204-5.099-.523-10.056.084-14.698 2.243zM352.001 192.45c-5.88.064-11.771 1.228-15.892 5.653-1.674 2.722-.928 4.974.704 7.461 3.845 3.997 9.14 5.308 14.425 6.204 6.622.652 13.253-.176 18.652-4.24 2.214-2.308 2.35-4.576 1.214-7.41-4.427-5.956-12.13-7.279-19.103-7.668zM445.021 218.09c-5.347 2.503-6.38 6.65-3.517 11.554 4.14 4.97 10.112 7.182 16.15 8.903 6.458 1.483 12.869 1.3 19.073-.973 5.527-2.922 5.663-7.417 2.311-12.134-4.338-4.562-10.166-6.648-16.107-8.218-6.087-1.306-12.016-1.1-17.91.869zM368.831 238.86c-2.074 4.961.68 8.714 4.184 12.073 4.41 3.437 9.643 4.863 15.028 5.9 6.658.859 12.973-.162 18.746-3.545 4.089-3.293 4.507-7.188 2.393-11.728-4.487-6.196-11.702-8.479-18.921-9.758-7.862-.754-16.527.244-21.43 7.058zM295.551 251.94c-1.954 1.131-3.383 2.698-4.875 4.344-2.408 3.613-2.146 6.98-.569 10.815 1.937 3.17 4.898 4.978 8.044 6.754 8.3 3.589 16.995 3.205 25.383.28 3.394-1.432 5.818-3.729 8.009-6.592 2.028-3.866 1.29-7.208-.687-10.857-2.143-2.896-5.131-4.546-8.268-6.14-9.003-3.48-18.461-2.828-27.036 1.396zM431.561 283.3l-4.525.255-4.168.861-3.668 1.445-3.035 1.983-2.29 2.462-1.447 2.863-.533 3.168.424 3.364 1.388 3.433 2.323 3.373 3.19 3.174 3.945 2.839 4.552 2.378 4.972 1.806 5.188 1.15 5.175.438 4.937-.299 4.482-1.017 3.84-1.69 3.037-2.28 2.12-2.765 1.133-3.125.123-3.352-.867-3.438-1.798-3.39-2.639-3.217-3.362-2.929-3.947-2.543-4.383-2.074-4.66-1.545-4.776-.965-4.73-.363zM345.671 305.8c-11.877.136-23.042 5.758-24.319 18.409 1.724 14.129 15.335 19.852 27.978 21.024 12.559-.152 24.575-6.572 24.232-20.279-3.142-12.981-15.717-18.138-27.891-19.154z"/></g><g stroke="#fff" stroke-width="3"><path d="M472.61 303.69l-1.937.073-1.801.218-1.599.358-1.338.486-1.026.596-.674.687-.292.752.106.79.508.799.893.777 1.25.723 1.562.64 1.813.53 1.993.398 2.094.247 2.108.086 2.034-.077 1.877-.24 1.644-.39 1.344-.524.993-.637.605-.72.2-.775-.21-.8-.604-.793-.97-.756-1.295-.69-1.566-.602-1.78-.49-1.925-.364-2.001-.224-2.006-.078z" fill="url(#O)" transform="translate(-67.889 -180.23)"/><path d="M552.62 316.9l-2.045.08-1.841.245-1.57.404-1.241.548-.865.674-.452.778-.015.851.425.897.86.907 1.264.882 1.626.822 1.93.729 2.157.604 2.299.455 2.347.283 2.298.1 2.153-.087 1.92-.27 1.608-.444 1.231-.595.81-.722.357-.818-.098-.88-.547-.908-.968-.9-1.343-.857-1.664-.783-1.92-.682-2.101-.556-2.206-.413-2.232-.256-2.177-.088z" fill="url(#P)" transform="translate(-67.889 -180.23)"/><path d="M503.13 325.33l-2.127.084-1.954.263-1.71.432-1.403.586-1.044.723-.64.834-.21.915.237.962.682.974 1.107.948 1.495.885 1.829.784 2.091.651 2.274.49 2.361.305 2.352.11 2.244-.093 2.044-.291 1.759-.475 1.403-.64.997-.776.55-.878.092-.946-.364-.976-.799-.966-1.196-.92-1.544-.842-1.83-.732-2.043-.597-2.184-.444-2.244-.274-2.225-.096z" fill="url(#Q)" transform="translate(-67.889 -180.23)"/><path d="M450.15 334.35l-2.215.09-2.077.282-1.867.463-1.586.63-1.247.777-.856.895-.43.984.02 1.036.476 1.05.922 1.021 1.34.954 1.707.846 2.012.703 2.237.528 2.37.331 2.408.119 2.344-.099 2.18-.312 1.93-.513 1.598-.688 1.208-.835.772-.947.312-1.02-.153-1.05-.604-1.039-1.026-.99-1.4-.906-1.721-.788-1.973-.643-2.153-.478-2.253-.296-2.275-.105z" fill="url(#R)" transform="translate(-67.889 -180.23)"/><path d="M540.62 351.9l-2.358.102-2.133.322-1.834.532-1.466.725-1.042.894-.574 1.033-.079 1.136.43 1.198.93 1.214 1.4 1.185 1.828 1.106 2.187.983 2.46.817 2.638.617 2.704.387 2.66.14 2.503-.112 2.24-.36 1.886-.593 1.456-.798.971-.967.454-1.098-.075-1.18-.59-1.216-1.075-1.203-1.508-1.145-1.88-1.046-2.176-.911-2.39-.744-2.517-.553-2.552-.342-2.498-.123z" fill="url(#S)" transform="translate(-67.889 -180.23)"/><path d="M473.08 365.83c-1.48 1.626-1.267 3.149-.322 4.97 3.147 3.69 7.965 4.83 12.562 5.545 4.025.426 7.945-.021 11.553-1.868 2.419-1.743 2.472-3.796.95-6.152-3.284-3.39-7.92-4.491-12.435-5.146-4.307-.363-8.768-.02-12.308 2.651z" fill="url(#T)" transform="translate(-67.889 -180.23)"/><path d="M408.35 379.36c-.91 1.415-.817 2.65-.393 4.193 3.058 4.891 9.214 5.903 14.546 6.226 4.55-.078 9.268-.925 12.21-4.65.761-1.524.485-2.758-.116-4.258-2.725-3.783-7.327-4.915-11.7-5.604-5.17-.413-10.84.113-14.546 4.093z" fill="url(#U)" transform="translate(-67.889 -180.23)"/><path d="M516.79 400.79c-4.01 1.877-4.785 4.988-2.638 8.665 3.106 3.727 7.584 5.387 12.113 6.678 4.843 1.112 9.65.974 14.304-.73 4.145-2.192 4.248-5.563 1.734-9.1-3.254-3.423-7.625-4.987-12.08-6.164-4.565-.98-9.012-.826-13.433.651z" fill="url(#V)" transform="translate(-67.889 -180.23)"/><path d="M442.99 418.87c-3.236 3.867-1.182 7.59 1.999 10.638 3.307 2.578 7.232 3.648 11.27 4.424 4.126.587 8.06-.031 11.939-1.414 5.431-2.68 6.127-7.288 2.494-11.81-3.529-3.376-8.08-4.718-12.768-5.549-5.36-.592-10.7.214-14.933 3.71z" fill="url(#W)" transform="translate(-67.889 -180.23)"/><path d="M369.72 433.57c-2.49.945-4.374 2.54-6.129 4.476-1.806 2.71-1.609 5.234-.426 8.11 2.1 3.307 5.429 4.843 8.97 6.152 5.455 1.538 10.83.962 16.1-.875 2.545-1.075 4.363-2.797 6.006-4.945 1.522-2.899.968-5.406-.515-8.142-1.607-2.172-3.848-3.41-6.201-4.605-5.913-2.324-11.847-2.07-17.805-.171z" fill="url(#X)" transform="translate(-67.889 -180.23)"/><path d="M500.89 467.91l-3.393.191-3.127.646-2.75 1.084-2.277 1.487-1.717 1.847-1.086 2.147-.4 2.376.319 2.522 1.04 2.576 1.743 2.53 2.392 2.38 2.96 2.129 3.413 1.784 3.73 1.354 3.89.863 3.881.328 3.703-.224 3.362-.763 2.88-1.267 2.277-1.71 1.59-2.074.85-2.344.092-2.514-.65-2.578-1.35-2.543-1.978-2.412-2.521-2.197-2.96-1.908-3.288-1.555-3.495-1.159-3.582-.724-3.548-.272z" fill="url(#Y)" transform="translate(-67.889 -180.23)"/><path d="M410.39 491.17c-4.59.573-8.298 2.607-11.649 5.673-3.52 4.285-3.356 8.823-1.282 13.682 4.347 6.818 11.606 9.297 19.3 10.01 6.4.034 11.77-2.177 16.088-6.82 3.827-5.877 1.871-11.518-2.385-16.44-5.597-5.13-12.746-6.53-20.072-6.104z" fill="url(#Z)" transform="translate(-67.889 -180.23)"/></g><g fill="#4d4d4d" stroke="#333" stroke-width="2"><path d="M270.531 101.39l-1.753.06-1.711.176-1.61.288-1.451.39-1.235.476-.972.548-.67.6-.34.628.01.635.36.615.704.572 1.023.505 1.304.418 1.533.312 1.703.194 1.805.066 1.83-.064 1.783-.192 1.662-.31 1.473-.417 1.227-.505.936-.572.61-.615.264-.636-.088-.63-.431-.6-.755-.55-1.046-.478-1.296-.39-1.498-.288-1.643-.177-1.728-.06zM223.371 107.38l-1.81.063-1.802.185-1.723.306-1.586.412-1.388.506-1.137.58-.842.636-.508.667-.153.674.212.654.577.608.92.537 1.23.444 1.495.333 1.7.206 1.835.071 1.896-.068 1.878-.203 1.783-.329 1.618-.442 1.388-.536 1.105-.607.78-.654.432-.674.068-.67-.29-.636-.637-.583-.95-.507-1.232-.414-1.463-.307-1.639-.188-1.757-.064zM285.281 118.43l-1.905.068-1.852.208-1.734.34-1.551.46-1.31.565-1.018.65-.685.713-.321.748.059.755.442.734.815.683 1.16.606 1.459.5 1.704.375 1.882.233 1.98.081 2-.075 1.935-.226 1.792-.37 1.576-.495 1.298-.6.973-.683.61-.734.231-.756-.152-.75-.525-.714-.874-.654-1.184-.57-1.448-.464-1.659-.344-1.808-.211-1.89-.073zM234.201 125.51l-1.976.073-1.956.22-1.868.362-1.711.489-1.49.602-1.212.693-.886.76-.522.798-.132.807.269.783.663.73 1.039.646 1.374.536 1.659.4 1.877.251 2.02.088 2.075-.079 2.05-.242 1.937-.392 1.747-.53 1.488-.641 1.171-.728.814-.783.428-.807.031-.8-.362-.764-.733-.697-1.074-.608-1.373-.494-1.619-.368-1.803-.227-1.925-.078zM179.871 133.04l-2.052.077-2.07.234-2.016.385-1.89.523-1.69.642-1.43.74-1.112.812-.748.852-.348.863.07.84.49.781.9.692 1.274.574 1.603.43 1.868.27 2.057.094 2.16-.082 2.174-.259 2.1-.42 1.937-.566 1.7-.686 1.396-.779 1.04-.837.651-.863.24-.856-.174-.816-.574-.746-.948-.649-1.284-.53-1.57-.392-1.795-.243-1.96-.085zM247.261 147.35l-2.174.085-2.143.264-2.037.437-1.856.592-1.607.73-1.297.84-.932.923-.53.972-.097.984.343.957.778.893 1.189.792 1.555.657 1.863.494 2.095.309 2.243.11 2.296-.092 2.254-.294 2.12-.48 1.898-.644 1.6-.784 1.245-.886.842-.956.414-.984-.025-.975-.454-.93-.862-.848-1.23-.74-1.549-.603-1.81-.448-2.005-.278-2.127-.097zM187.621 156.45l-2.265.09-2.281.285-2.216.467-2.072.637-1.85.783-1.56.904-1.207.993-.801 1.046-.362 1.058.103 1.032.569.963 1.02.854 1.434.71 1.795.533 2.085.335 2.29.12 2.399-.099 2.409-.315 2.315-.516 2.13-.695 1.86-.843 1.516-.956 1.118-1.029.681-1.06.228-1.05-.229-1-.669-.914-1.078-.795-1.444-.65-1.752-.483-1.997-.299-2.169-.106zM123.591 166.22l-2.364.096-2.434.305-2.417.503-2.313.684-2.127.844-1.859.975-1.518 1.071-1.116 1.128-.664 1.143-.177 1.115.325 1.04.82.924 1.292.769 1.712.577 2.067.364 2.338.131 2.51-.106 2.58-.34 2.538-.557 2.393-.75 2.152-.91 1.827-1.034 1.433-1.11.992-1.144.517-1.134.033-1.078-.446-.988-.9-.858-1.317-.7-1.681-.521-1.982-.324-2.214-.115zM197.211 185.42l-2.528.109-2.539.351-2.46.58-2.293.792-2.043.978-1.713 1.13-1.318 1.244-.864 1.312-.368 1.33.15 1.3.672 1.216 1.176 1.08 1.639.899 2.041.678 2.36.426 2.583.157 2.697-.122 2.696-.395 2.585-.65 2.363-.873 2.05-1.063 1.657-1.203 1.203-1.294.712-1.331.202-1.319-.308-1.256-.796-1.146-1.247-.998-1.647-.815-1.983-.606-2.248-.376-2.43-.135zM125.671 197.6l-2.654.116-2.73.38-2.711.63-2.596.86-2.388 1.063-2.09 1.229-1.71 1.353-1.257 1.428-.75 1.45-.201 1.418.363 1.325.925 1.18 1.457.982 1.936.742 2.338.468 2.645.172 2.839-.132 2.913-.428 2.864-.709 2.697-.953 2.42-1.158 2.049-1.311 1.601-1.41 1.1-1.452.564-1.436.02-1.368-.519-1.248-1.025-1.086-1.49-.887-1.895-.66-2.23-.409-2.485-.149zM48.001 210.82l-2.79.126-2.946.413-2.996.685-2.945.937-2.787 1.159-2.525 1.34-2.166 1.478-1.72 1.56-1.199 1.587-.619 1.55-.004 1.452.624 1.293 1.234 1.079 1.805.813 2.302.515 2.706.19 2.996-.142 3.16-.469 3.186-.774 3.082-1.045 2.85-1.267 2.504-1.434 2.066-1.543 1.555-1.588.993-1.57.405-1.493-.186-1.365-.761-1.185-1.298-.97-1.785-.719-2.201-.449-2.54-.164zM128.331 237.82l-3.023.148-3.108.488-3.087.812-2.958 1.115-2.722 1.379-2.385 1.598-1.955 1.765-1.442 1.867-.862 1.902-.235 1.861.413 1.746 1.06 1.557 1.673 1.3 2.226.985 2.691.624 3.043.234 3.266-.168 3.348-.563 3.288-.93 3.088-1.254 2.763-1.522 2.33-1.724 1.814-1.85 1.233-1.902.62-1.88-.005-1.787-.614-1.63-1.191-1.418-1.715-1.157-2.172-.86-2.548-.538-2.835-.198z"/></g></svg>