<svg version="1.1" viewBox="0 0 145 240" xmlns="http://www.w3.org/2000/svg" xmlns:xlink="http://www.w3.org/1999/xlink"><defs><linearGradient id="a"><stop stop-color="#7c7c7c" stop-opacity=".49565" offset="0"/><stop stop-color="#fff" stop-opacity=".70435" offset=".084107"/><stop stop-color="#323232" stop-opacity=".39216" offset="1"/></linearGradient><filter id="aa" color-interpolation-filters="sRGB"><feGaussianBlur stdDeviation="0.37544928"/></filter><filter id="z" color-interpolation-filters="sRGB"><feGaussianBlur stdDeviation="0.82225905"/></filter><linearGradient id="y" x1="487.17" x2="427.34" y1="313.99" y2="273.56" gradientTransform="matrix(1 0 0 .85439 .48435 44.618)" gradientUnits="userSpaceOnUse" xlink:href="#a" spreadMethod="reflect"/><linearGradient id="x" x1="427.54" x2="501.78" y1="287.96" y2="287.16" gradientTransform="matrix(0 1.0315 -.88871 0 680.11 -146.42)" gradientUnits="userSpaceOnUse" xlink:href="#a" spreadMethod="reflect"/><linearGradient id="w" x1="463.54" x2="476.29" y1="411.73" y2="411.73" gradientTransform="translate(.48435 -.22435)" gradientUnits="userSpaceOnUse" xlink:href="#a"/><linearGradient id="v" x1="356.09" x2="423.8" y1="300.68" y2="300.68" gradientTransform="matrix(1 0 0 .9074 .48435 31.005)" gradientUnits="userSpaceOnUse" xlink:href="#a" spreadMethod="reflect"/><linearGradient id="u" x1="463.54" x2="490.62" y1="408.78" y2="408.78" gradientTransform="translate(.48435 -.22435)" gradientUnits="userSpaceOnUse" xlink:href="#a"/><linearGradient id="t" x1="474.85" x2="497.07" y1="403.26" y2="403.26" gradientTransform="translate(.48435 -.22435)" gradientUnits="userSpaceOnUse" xlink:href="#a"/><linearGradient id="s" x1="479.2" x2="508.93" y1="397.27" y2="393.69" gradientTransform="translate(.48435 -.22435)" gradientUnits="userSpaceOnUse" xlink:href="#a"/><linearGradient id="r" x1="352.45" x2="361.83" y1="400.32" y2="399.6" gradientTransform="translate(.48435 -.22435)" gradientUnits="userSpaceOnUse" xlink:href="#a"/><linearGradient id="q" x1="353.67" x2="378.7" y1="406.16" y2="406.16" gradientTransform="translate(.48435 -.22435)" gradientUnits="userSpaceOnUse" xlink:href="#a"/><linearGradient id="p" x1="364.27" x2="392.69" y1="411.18" y2="411.18" gradientTransform="translate(.48435 -.22435)" gradientUnits="userSpaceOnUse" xlink:href="#a"/><linearGradient id="o" x1="381.99" x2="410.61" y1="414.77" y2="414.77" gradientTransform="translate(.48435 -.22435)" gradientUnits="userSpaceOnUse" xlink:href="#a"/><linearGradient id="n" x1="404.69" x2="431.63" y1="416.5" y2="416.5" gradientTransform="translate(.48435 -.22435)" gradientUnits="userSpaceOnUse" xlink:href="#a"/><linearGradient id="m" x1="428.29" x2="455.8" y1="415.88" y2="415.88" gradientTransform="translate(.48435 -.22435)" gradientUnits="userSpaceOnUse" xlink:href="#a"/><linearGradient id="l" x1="447.37" x2="476.29" y1="413.16" y2="413.16" gradientTransform="translate(.48435 -.22435)" gradientUnits="userSpaceOnUse" xlink:href="#a"/><linearGradient id="k" x1="469.82" x2="494.86" y1="391.52" y2="391.52" gradientTransform="translate(.48435 -.22435)" gradientUnits="userSpaceOnUse" xlink:href="#a"/><linearGradient id="j" x1="351.45" x2="373.68" y1="394.36" y2="394.36" gradientTransform="translate(.48435 -.22435)" gradientUnits="userSpaceOnUse" xlink:href="#a"/><radialGradient id="c" cx="424.06" cy="324.34" r="56.797" gradientTransform="matrix(.75471 0 0 .36799 103.8 336.3)" gradientUnits="userSpaceOnUse" xlink:href="#a" spreadMethod="reflect"/><linearGradient id="i" x1="455.84" x2="484.26" y1="386.72" y2="386.72" gradientTransform="translate(.48435 -.22435)" gradientUnits="userSpaceOnUse" xlink:href="#a"/><linearGradient id="h" x1="437.92" x2="466.53" y1="383.44" y2="383.44" gradientTransform="translate(.48435 -.22435)" gradientUnits="userSpaceOnUse" xlink:href="#a"/><linearGradient id="g" x1="372.24" x2="401.16" y1="384.88" y2="384.88" gradientTransform="translate(.48435 -.22435)" gradientUnits="userSpaceOnUse" xlink:href="#a"/><linearGradient id="f" x1="357.9" x2="384.99" y1="389" y2="389" gradientTransform="translate(.48435 -.22435)" gradientUnits="userSpaceOnUse" xlink:href="#a"/><linearGradient id="e" x1="416.89" x2="443.83" y1="382.07" y2="382.07" gradientTransform="translate(.48435 -.22435)" gradientUnits="userSpaceOnUse" xlink:href="#a"/><linearGradient id="d" x1="392.72" x2="420.24" y1="382.51" y2="382.51" gradientTransform="translate(.48435 -.22435)" gradientUnits="userSpaceOnUse" xlink:href="#a"/><radialGradient id="b" cx="415.95" cy="529.44" r="57.698" gradientTransform="matrix(.45734 0 -9.1362e-8 1.8305 234.23 -481.88)" gradientUnits="userSpaceOnUse" xlink:href="#a" spreadMethod="reflect"/></defs><g transform="translate(-352.41 -271.96)"><g><path d="m400.64 469.63-6.4358-172.82 24.171-1.8686 1.3423 173.39-19.078 1.3" fill="url(#d)" opacity=".5"/><path d="m419.72 468.33-1.3423-173.39 24.939 0.61763-3.9131 173.2-19.684-0.42969" fill="url(#e)" opacity=".5"/><path d="m373.16 476.6-13.773-169.77 14.333-5.8922 10.753 171.56-11.312 4.0992" fill="url(#f)" opacity=".5"/><path d="m384.47 472.5-10.753-171.56 20.487-4.1294 6.4358 172.82-16.17 2.8728" fill="url(#g)" opacity=".5"/><path d="m439.4 468.76 3.9131-173.2 22.7 3.0294-8.6966 172.28-17.916-2.1075" fill="url(#h)" opacity=".5"/><path d="m457.32 470.87 8.6966-172.28 17.722 5.0757-12.431 170.74-13.987-3.5312" fill="url(#i)" opacity=".5"/><path d="m429.73 464.4-9.7188 3.75c-0.0835 2e-3 -0.16646-2e-3 -0.25 0l-9.4375-3.3125-9.25 4.5312c-0.16705 0.0194-0.33304 0.0425-0.5 0.0625l-7.875-2.5-8.0312 5.4062c-0.022 6e-3 -0.0405 0.0255-0.0625 0.0312l-5.625-1.9687-5.5 5.875c-1.6069 0.60327-3.5236 0.62063-5.25 1l0.59375 3.0312c-0.27179 0.45291-0.50784 0.94073-0.6875 1.4688 0.23621 4.0939 1.652 8.0909 2.3125 12.156 0.24893 4.3168 2.4991 8.2358 6.75 9.7188 11.554 5.0454 24.33 6.1857 36.781 6.9688 16.892 0.63953 34.119 0.0239 50.469-4.625 4.3005-1.5295 9.5061-2.9303 11.812-7.25 1.723-5.4382 4.0027-10.715 5.4688-16.219-0.10243-0.69651-0.30918-1.3288-0.59375-1.9062 0.34413-0.76424 0.2759-1.4254-1.0938-1.7188-1.6128-1.9656-2.9177-4.2751-4.4062-6.375l-4.1875 1.7188c-9e-3 -3e-3 -0.0219 3e-3 -0.0312 0l-6.9375-5.75-6.875 2.1875c-0.0101-2e-3 -0.0211 2e-3 -0.0312 0-0.0725-0.0134-0.14622-0.0179-0.21875-0.0312l-8.8438-4.9688-8.8125 2.9062c-0.0837-5e-3 -0.16626-0.0261-0.25-0.0312l-9.7188-4.1564z" color="#000000" fill="url(#c)"/><path d="m368.23 474.25 0.0312 0.13629c5e-3 -0.045-5e-3 -0.0913 0-0.13629-0.01 2e-3 -0.0213-2e-3 -0.0312 0zm113.03 2.6236c-0.0407 0.10174-0.0804 0.20789-0.125 0.30665 0.0481 0.11639 0.0642 0.2295 0.0937 0.34072 0.0579-0.23226 0.0899-0.44927 0.0312-0.64737zm-112.44 0.71552c-0.26594 0.48666-0.51091 1.0014-0.6875 1.5673 0.0271 0.51271 0.0697 1.0231 0.125 1.5332l0.5625-3.1006zm112.44 0.6133c-0.11093 0.37451-0.45963 0.67453-1.2188 0.85181-1.6128 2.1431-2.9177 4.6612-4.4062 6.9507l-4.1875-1.874c-9e-3 3e-3 -0.022-3e-3 -0.0312 0l-6.9375 6.2693-6.875-2.3851c-0.0101 2e-3 -0.0211-2e-3 -0.0312 0-0.0725 0.0146-0.14622 0.0196-0.21875 0.0341l-8.8438 5.4175-8.8125-3.1687c-0.0837 5e-3 -0.16626 0.0285-0.25 0.0341l-9.7188 4.5316-9.7188-4.0887c-0.0835-2e-3 -0.16646 2e-3 -0.25 0l-9.4375 3.6116-9.25-4.9405c-0.16705-0.0211-0.33304-0.0463-0.5-0.0682l-7.875 2.7258-8.0312-5.8945c-0.022-7e-3 -0.0405-0.0279-0.0625-0.0341l-5.625 2.1466-5.5-6.4056c-1.5976-0.65394-3.5001-0.68358-5.2188-1.0903 0.43825 3.885 1.6095 7.7061 2.1875 11.585 0.24893 4.7066 2.4991 8.9796 6.75 10.596 11.554 5.5011 24.33 6.7443 36.781 7.5981 16.892 0.69729 34.119 0.0261 50.469-5.0427 4.3005-1.6676 9.5061-3.195 11.812-7.9048 1.723-5.9294 4.0027-11.682 5.4688-17.683-0.0864-0.6403-0.24995-1.2249-0.46875-1.7718z" color="#000000" fill="url(#b)" filter="url(#aa)"/></g><path d="m470.3 484.33c0 5.5979-20.004 10.136-44.681 10.136s-44.681-4.538-44.681-10.136 20.004-10.136 44.681-10.136 44.681 4.538 44.681 10.136z" color="#000000" fill="#fff" fill-opacity=".52" filter="url(#z)"/><g><path d="m368.07 481.43-15.132-167.66 6.4492-6.9443 13.773 169.77-5.0902 4.8311" fill="url(#j)" opacity=".5"/><path d="m471.31 474.4 12.431-170.74 10.607 6.5098-14.666 168.75-8.3715-4.5289" fill="url(#k)" opacity=".5"/><path d="m465.02 492.84 10.753-162.67-20.487 4.1294-6.4357 161.41 16.17-2.8728" fill="url(#l)"/><path d="m448.85 495.71 6.4357-161.41-24.171 1.8686-1.3422 160.84 19.078-1.3" fill="url(#m)"/><path d="m429.78 497.01 1.3422-160.84-24.939-0.61763 3.9132 161.03 19.684 0.42969" fill="url(#n)"/><path d="m410.09 496.58-3.9132-161.03-22.7-3.0294 8.6966 161.95 17.916 2.1075" fill="url(#o)"/><path d="m392.18 494.47-8.6966-161.95-17.722-5.0757 12.431 163.5 13.987 3.5311" fill="url(#p)"/><path d="m378.19 490.94-12.431-163.5-10.607-6.5098 14.666 165.48 8.3715 4.5289" fill="url(#q)"/><path d="m369.82 486.41-14.666-165.48-2.2121-7.1588 15.132 167.66 1.746 4.9803" fill="url(#r)"/><path d="m479.68 478.93 14.666-168.75 2.2121 7.1588-15.132 166.58-1.746-4.9803" fill="url(#s)"/><path d="m481.43 483.91 15.132-166.58-6.4492 6.9443-13.773 164.46 5.0902-4.8311" fill="url(#t)"/><path d="m476.34 488.74 13.773-164.46-14.333 5.8922-10.753 162.67 11.312-4.0992" fill="url(#u)"/><path d="m424.89 272.69c-39.769 0-72 8.456-72 18.885 0 0.3164 0.0351 0.62318 0.0937 0.93576 2e-3 9e-3 -2e-3 0.019 0 0.0283-0.0587 0.31258-0.0937 0.61936-0.0937 0.93576 0 0.32591 0.0315 0.64226 0.0937 0.96411-0.0587 0.31258-0.0937 0.61935-0.0937 0.93576 0 0.32591 0.0315 0.64225 0.0937 0.96411-0.0554 0.30382-0.0937 0.62833-0.0937 0.93575 0 0.32591 0.0315 0.64226 0.0937 0.96411-0.0554 0.30383-0.0937 0.62833-0.0937 0.93576 0 0.32591 0.0315 0.64226 0.0937 0.96411-0.0554 0.30382-0.0937 0.62833-0.0937 0.93576 0 0.32591 0.0315 0.64225 0.0937 0.96411-0.0554 0.30382-0.0937 0.62833-0.0937 0.93575 0 0.32591 0.0315 0.64226 0.0937 0.96411-0.0554 0.30383-0.0937 0.62833-0.0937 0.93576 0 0.32591 0.0315 0.64226 0.0937 0.96411-0.0552 0.30331-0.0937 0.60051-0.0937 0.9074 0 0.32591 0.0315 0.67061 0.0937 0.99247-0.0552 0.3033-0.0937 0.6005-0.0937 0.9074 0 0.32591 0.0315 0.67061 0.0937 0.99246-0.0552 0.30331-0.0937 0.60051-0.0937 0.9074 0 0.32591 0.0315 0.67062 0.0937 0.99247-0.0552 0.30331-0.0937 0.60051-0.0937 0.9074 0 0.32591 0.0315 0.67061 0.0937 0.99247-0.0552 0.3033-0.0937 0.6005-0.0937 0.9074 0 0.32591 0.0315 0.64225 0.0937 0.96411-0.0587 0.31258-0.0937 0.61935-0.0937 0.93575 0 0.32591 0.0315 0.64226 0.0937 0.96411-0.0587 0.31258-0.0937 0.61936-0.0937 0.93576 0 10.429 32.231 18.885 72 18.885 39.769 0 72.031-8.456 72.031-18.885 0-0.3164-0.0351-0.62318-0.0937-0.93576 0.0622-0.32185 0.0937-0.6382 0.0937-0.96411s-0.0315-0.64225-0.0937-0.96411c0.0587-0.31258 0.0937-0.61935 0.0937-0.93575 0-0.3069-0.0385-0.6041-0.0937-0.9074 2e-3 -9e-3 -2e-3 -0.0192 0-0.0284-2e-3 -9e-3 2e-3 -0.019 0-0.0284 0.0554-0.30382 0.0937-0.62832 0.0937-0.93575 0-0.30689-0.0385-0.60409-0.0937-0.9074 2e-3 -9e-3 -2e-3 -0.0192 0-0.0284-2e-3 -9e-3 2e-3 -0.019 0-0.0283 0.0554-0.30383 0.0937-0.62833 0.0937-0.93576 0-0.30689-0.0385-0.60409-0.0937-0.9074 2e-3 -9e-3 -2e-3 -0.0192 0-0.0283-2e-3 -9e-3 2e-3 -0.019 0-0.0284 0.0554-0.30382 0.0937-0.62833 0.0937-0.93575 0-0.3069-0.0385-0.6041-0.0937-0.9074 2e-3 -9e-3 -2e-3 -0.0192 0-0.0284-2e-3 -9e-3 2e-3 -0.019 0-0.0284 0.0554-0.30382 0.0937-0.62832 0.0937-0.93575 0-0.30689-0.0385-0.60409-0.0937-0.9074 2e-3 -9e-3 -2e-3 -0.019 0-0.0284-2e-3 -9e-3 2e-3 -0.019 0-0.0284 0.0552-0.30331 0.0937-0.60051 0.0937-0.9074 0-0.30743-0.0384-0.63193-0.0937-0.93576 2e-3 -9e-3 -2e-3 -0.019 0-0.0284-2e-3 -9e-3 2e-3 -0.0192 0-0.0284 0.0552-0.30331 0.0937-0.60051 0.0937-0.9074 0-0.30742-0.0384-0.63193-0.0937-0.93575 2e-3 -9e-3 -2e-3 -0.019 0-0.0284-2e-3 -9e-3 2e-3 -0.0192 0-0.0284 0.0552-0.3033 0.0937-0.6005 0.0937-0.90739 0-0.30743-0.0384-0.63194-0.0937-0.93576 2e-3 -9e-3 -2e-3 -0.019 0-0.0284-2e-3 -9e-3 2e-3 -0.0192 0-0.0283 0.0552-0.30331 0.0937-0.60051 0.0937-0.9074 0-0.30743-0.0384-0.63193-0.0937-0.93576 2e-3 -9e-3 -2e-3 -0.019 0-0.0283-2e-3 -9e-3 2e-3 -0.0192 0-0.0284 0.0552-0.30331 0.0937-0.60051 0.0937-0.9074 0-0.30742-0.0384-0.63193-0.0937-0.93575 2e-3 -9e-3 -2e-3 -0.019 0-0.0284-2e-3 -9e-3 2e-3 -0.0192 0-0.0284 0.0552-0.3033 0.0937-0.6005 0.0937-0.90739 0-0.32591-0.0315-0.64226-0.0937-0.96412 0.0587-0.31258 0.0937-0.61935 0.0937-0.93575s-0.0351-0.62318-0.0937-0.93576c2e-3 -9e-3 -2e-3 -0.019 0-0.0283 0.0587-0.31258 0.0937-0.61936 0.0937-0.93576 0-10.429-32.262-18.885-72.031-18.885z" color="#000000" fill="url(#v)"/><path d="m465.02 492.84 10.753-162.67-10.753 162.67" fill="url(#w)"/><path d="m421.52 273.43c-34.731 0.44886-62.344 7.7766-62.344 16.744 0 0.13876 0.0181 0.27824 0.0312 0.41619 0.81089-9.198 28.103-16.633 62.312-17.096 1.1203-0.0152 2.2406 0 3.375 0 35.778 0 64.884 7.5963 65.719 17.096 0.0132-0.13795 0.0312-0.27743 0.0312-0.41619 0-9.2562-29.447-16.744-65.75-16.744-1.1344 0-2.2547-0.0145-3.375 0zm-68.594 17.48c-0.0127 0.14752-0.0312 0.29987-0.0312 0.4482 0 10.536 32.231 19.081 72 19.081 39.769 0 72.031-8.5449 72.031-19.081 0-0.14833-0.0185-0.30068-0.0312-0.4482-0.88409 9.866-32.787 17.8-72 17.8-39.213 0-71.086-7.934-71.969-17.8z" color="#000000" fill="url(#x)"/><path d="m424.89 272.18c-39.769 0-72 7.9621-72 17.782s32.231 17.782 72 17.782c39.769 0 72.031-7.9621 72.031-17.782s-32.262-17.782-72.031-17.782zm-3.375 1.1214c1.1203-0.0141 2.2406 0 3.375 0 36.303 0 65.75 7.3051 65.75 16.34s-29.447 16.367-65.75 16.367-65.719-7.3318-65.719-16.367c0-8.7528 27.613-15.902 62.344-16.34z" color="#000000" fill="url(#y)"/></g></g></svg>
