<svg version="1.1" viewBox="0 0 431.82 434.68" xmlns="http://www.w3.org/2000/svg" xmlns:xlink="http://www.w3.org/1999/xlink"><defs><linearGradient id="c"><stop stop-color="#fff" offset="0"/><stop stop-color="#fff" stop-opacity="0" offset=".5"/><stop stop-color="#fff" stop-opacity="0" offset="1"/></linearGradient><filter id="t" color-interpolation-filters="sRGB"><feGaussianBlur stdDeviation="16.78975"/></filter><linearGradient id="a"><stop stop-color="#2a2a2a" offset="0"/><stop stop-color="#fff" offset=".29677"/><stop stop-color="#aaa" offset=".7"/><stop stop-color="#333" offset="1"/></linearGradient><linearGradient id="b"><stop stop-color="#fff" stop-opacity=".46667" offset="0"/><stop stop-opacity=".18824" offset=".33139"/><stop stop-color="#fff" stop-opacity=".67826" offset=".6996"/><stop stop-opacity=".2" offset="1"/></linearGradient><filter id="v" color-interpolation-filters="sRGB"><feGaussianBlur stdDeviation="1.2133214"/></filter><radialGradient id="q" cx="861.9" cy="218.07" r="24.256" gradientTransform="matrix(.83635 0 0 7.8875 167.81 -828.44)" gradientUnits="userSpaceOnUse" xlink:href="#a"/><linearGradient id="s" x1="889.64" x2="831.71" y1="193.51" y2="93.172" gradientTransform="translate(26.767 673.55)" gradientUnits="userSpaceOnUse" xlink:href="#b" spreadMethod="reflect"/><radialGradient id="p" cx="851.48" cy="-71.971" r="97.797" fx="870.32" fy="-30.308" gradientTransform="matrix(1.5097 0 0 2.5473 -400.42 689.9)" gradientUnits="userSpaceOnUse" xlink:href="#a"/><radialGradient id="o" cx="854.17" cy="59.678" r="97.797" gradientTransform="matrix(1.5341 .0050205 -.0072304 2.2093 -420.9 600.83)" gradientUnits="userSpaceOnUse" xlink:href="#b"/><linearGradient id="r" x1="1845.3" x2="1868.1" y1="192.66" y2="192.66" gradientTransform="translate(-956.42 673.68)" gradientUnits="userSpaceOnUse" xlink:href="#a" spreadMethod="reflect"/><radialGradient id="n" cx="1851.3" cy="85.032" r="27.304" gradientTransform="matrix(.74019 -.088701 .035741 .29825 -485.22 980.15)" gradientUnits="userSpaceOnUse" xlink:href="#a" spreadMethod="reflect"/><radialGradient id="m" cx="1851.7" cy="96.527" r="27.107" gradientTransform="matrix(.73764 -.091455 .037143 .29958 -481.13 992.54)" gradientUnits="userSpaceOnUse" xlink:href="#a" spreadMethod="reflect"/><radialGradient id="l" cx="1851.3" cy="106.69" r="27.304" gradientTransform="matrix(.74019 -.088701 .035741 .29825 -485.99 995.35)" gradientUnits="userSpaceOnUse" xlink:href="#a" spreadMethod="reflect"/><radialGradient id="k" cx="1851.7" cy="118.18" r="27.107" gradientTransform="matrix(.71229 -.091461 .035869 .29958 -434 1007.7)" gradientUnits="userSpaceOnUse" xlink:href="#a" spreadMethod="reflect"/><radialGradient id="j" cx="862.46" cy="176.62" r="32.227" gradientTransform="matrix(.87683 0 0 5.3075 132.86 -87.259)" gradientUnits="userSpaceOnUse" xlink:href="#a"/><radialGradient id="i" cx="862.45" cy="162.84" r="36.099" gradientTransform="matrix(.89004 0 0 4.5206 121.48 100.24)" gradientUnits="userSpaceOnUse" xlink:href="#a"/><radialGradient id="h" cx="861.46" cy="259.98" r="12.484" gradientTransform="matrix(6.8239 0 0 1.7167 -4989.9 486.09)" gradientUnits="userSpaceOnUse" xlink:href="#a"/><radialGradient id="g" cx="855.21" cy="-72.339" r="97.797" fy="-38.238" gradientTransform="matrix(1.4662 -2.6409e-8 4.4559e-8 2.4738 593.41 29.84)" gradientUnits="userSpaceOnUse" xlink:href="#a"/><radialGradient id="f" cx="852.89" cy="70.258" r="97.797" gradientTransform="matrix(.38105 0 0 1.8177 562.06 632.56)" gradientUnits="userSpaceOnUse" xlink:href="#b"/><filter id="u" color-interpolation-filters="sRGB"><feGaussianBlur stdDeviation="0.63658819"/></filter><radialGradient id="e" cx="104.05" cy="344.25" r="176.78" gradientTransform="matrix(2.0202 0 0 .40404 -106.15 205.16)" gradientUnits="userSpaceOnUse" xlink:href="#c"/><radialGradient id="d" cx="897.61" cy="31.469" r="317.79" fx="943.83" fy="111.52" gradientTransform="matrix(1.4782 0 0 1.7617 -1124.4 6.357)" gradientUnits="userSpaceOnUse" xlink:href="#c"/></defs><g transform="translate(-30.203 -71.353)"><g><rect x="30.203" y="71.353" width="431.82" height="440.92" color="#000000"/><path transform="matrix(1 0 0 .85774 0 18.074)" d="m242.03 167.34-151.53 180.62 151.53 180.62 151.56-180.62-151.56-180.62z" color="#000000" fill="url(#d)" filter="url(#t)"/><path transform="matrix(1.0857 0 0 1.1243 130.67 -28.634)" d="m280.82 344.25a176.78 35.355 0 0 1-176.78 35.355 176.78 35.355 0 0 1-176.78-35.355 176.78 35.355 0 0 1 176.78-35.355 176.78 35.355 0 0 1 176.78 35.355z" color="#000000" fill="url(#e)"/><path d="m233.87 148.54-67.1 102.11 67.489-102.11zm0.85855 0-64.779 108.14 65.169-108.14zm0.80488 0-62.244 113.89 62.606-113.89zm0.7244 0-59.508 119.36 59.843-119.36zm0.65731 0-56.543 124.57 56.892-124.57zm0.61707 0-53.404 129.47 53.753-129.47zm0.60367 0-50.144 134.07 50.453-134.07zm0.53659 0-46.683 138.37 46.992-138.37zm0.50976 0-43.088 142.32 43.41-142.32zm0.50975 0-39.399 145.97 39.694-145.97zm0.46952 0-35.576 149.26 35.871-149.26zm0.45609 0-31.659 152.21 31.954-152.21zm0.42927 0-27.634 154.82 27.929-154.82zm0.42927 0-23.543 157.06 23.838-157.06zm0.41587 0-19.398 158.95 19.693-158.95zm0.41583 0-15.199 160.47 15.467-160.47zm0.40246 0-10.946 161.62 11.215-161.62zm0.38903 0-6.6671 162.39 6.9488-162.39zm0.41584 0-2.3878 162.79 2.6427-162.79zm0.37561 0 1.9317 162.81-1.6634-162.81zm0.38903 0 6.2378 162.48-5.9561-162.48zm0.40244 0 10.504 161.76-10.222-161.76zm0.40243 0 14.77 160.68-14.488-160.68zm0.40246 0 18.982 159.22-18.713-159.22zm0.41586 0 23.14 157.39-22.872-157.39zm0.41583 0 27.245 155.21-26.964-155.21zm0.42929 0 31.283 152.67-30.988-152.67zm0.45609 0 35.214 149.79-34.918-149.79zm0.46952 0 39.05 146.55-38.768-146.55zm0.48292 0 42.793 142.95-42.498-142.95zm0.49633 0 46.415 139.05-46.093-139.05zm0.53661 0 49.889 134.82-49.567-134.82zm0.56341 0 53.229 130.26-52.894-130.26zm0.61708 0 56.368 125.41-56.047-125.41zm0.64391 0 59.373 120.25-59.025-120.25zm0.71096 0 62.164 114.8-61.815-114.8zm0.75123 0 64.753 109.12-64.377-109.12zm1.1805 0.53265 66.778 102.61-65.853-101.8zm-20.954 0.3196-1.1402 1.0061-67.784 94.019zm23.583 2.0004 67.181 94.078-66.108-93.131zm-27.379 1.3494-1.3683 1.2073-66.617 83.969zm31.404 2.2016 66.027 84.076-64.712-82.916z" color="#000000" fill="#fff"/></g><g transform="matrix(.22425 0 0 -.21762 44.402 298.71)"><path d="m884.92 723.13c-2.1322 12.66-4.9986 34.056-6.6875 55.625s-2.2106 43.273 0.3125 56.594l0.96875-0.1875c-2.481-13.099-1.9674-34.779-0.28125-56.312s4.5305-42.941 6.6562-55.562l-0.96875-0.15625z" color="#000000" fill="#666" style="block-progression:tb;text-indent:0;text-transform:none"/><path d="m919.73 723.94c-0.38837 0.28704-0.77521 0.74248-1.2188 1.4062s-0.94734 1.5158-1.5 2.5625c-1.1053 2.0935-2.4105 4.955-3.8438 8.4062-2.8665 6.9024-6.2174 16.243-9.3125 26.938-6.1902 21.389-11.374 48.125-9.625 71.344l1-0.0625c-1.7337-23.014 3.424-49.682 9.5938-71 3.0849-10.659 6.4317-19.982 9.2812-26.844 1.4248-3.4308 2.7289-6.2601 3.8125-8.3125 0.54181-1.0262 1.023-1.8484 1.4375-2.4688s0.78154-1.0179 0.96875-1.1562l-0.59375-0.8125z" color="#000000" fill="#666" style="block-progression:tb;text-indent:0;text-transform:none"/><path d="m870.08 917.2a3.0003 3.0003 0 0 0-1.25 5.5625c0.8271 0.49772 1.5323 1.0149 2.125 1.5312 2.2886 1.9941 2.8437 4.639 4.6875 7.8438 0.9219 1.6024 2.3165 3.3007 4.4062 4.4375 2.0898 1.1368 4.7013 1.6875 8.0625 1.6875 3.3613 0 6.0056-0.54936 8.0938-1.6875s3.4575-2.8345 4.375-4.4375c1.835-3.206 2.4008-5.8514 4.6875-7.8438 0.5612-0.48899 1.3045-1.0187 2.1562-1.5312a3.0003 3.0003 0 0 0-1.5625-5.5625h-35.5a3.0003 3.0003 0 0 0-0.2812 0z" color="#000000" style="block-progression:tb;text-indent:0;text-transform:none"/><path d="m872.38 860.3h32.569c4.4162 0 7.9714 3.5552 7.9714 7.9714v46.691c0 4.4162-3.5552 7.9714-7.9714 7.9714h-32.569c-4.4162 0-7.9714-3.5552-7.9714-7.9714v-46.691c0-4.4162 3.5552-7.9714 7.9714-7.9714z" color="#000000" fill="url(#q)"/><g fill="#333"><path d="m866.58 859.38h43.53c1.3981 0 2.5235 1.2151 2.5235 2.7245 0 0 2.2284 6.9891 0 7.2653-17.383 2.9506-28.942 4.5408-46.054 6.1301-1.398 0-2.5234-1.2151-2.5234-2.7245v-10.671c0-1.5094 1.1254-2.7245 2.5234-2.7245z" color="#000000"/><path d="m910.63 875.68a2.7702 2.9909 0 0 0-0.20202 0.0312l-44.493 5.4205a2.7702 2.9909 0 1 0 0.60597 5.9189l44.521-5.3893a2.7784 2.9997 0 1 0-0.43276-5.9812z" color="#000000" style="block-progression:tb;text-indent:0;text-transform:none"/><path d="m910.53 886.49-44.493 5.4205a2.7721 2.993 0 1 0 0.60589 5.9501l44.521-5.4205a2.7738 2.9947 0 1 0-0.63478-5.9501z" color="#000000" style="block-progression:tb;text-indent:0;text-transform:none"/><path d="m910.63 897.27a2.7702 2.9909 0 0 0-0.20202 0.0312l-44.493 5.4205a2.7702 2.9909 0 1 0 0.60597 5.9189l44.521-5.3893a2.7784 2.9997 0 1 0-0.43276-5.9812z" color="#000000" style="block-progression:tb;text-indent:0;text-transform:none"/><path d="m910.53 908.08-44.493 5.4205a2.7721 2.993 0 1 0 0.60589 5.9501l44.521-5.4205a2.7738 2.9947 0 1 0-0.63478-5.9501z" color="#000000" style="block-progression:tb;text-indent:0;text-transform:none"/></g><g><path d="m880.17 773.2c-1.5141 0-2.75 1.2359-2.75 2.75v2.0625c0 1.5141 1.2359 2.7188 2.75 2.7188 6.3095-0.80975 2.2279 17.56 1.3438 17.656-4.29 0-7.75 3.46-7.75 7.75v24.781c0 4.29 3.46 7.75 7.75 7.75h12.531c4.29 0 7.7188-3.46 7.7188-7.75v-24.781c0-4.29-3.4288-7.75-7.7188-7.75-2.2509-2.7479-4.6616-17.717 1.3438-17.656 1.5141 0 2.7187-1.2046 2.7187-2.7188v-2.0625c0-1.5141-1.2046-2.75-2.7187-2.75z" color="#000000" fill="url(#s)"/><path d="m985.61 658.64c-7.1631-0.99466-14.418-1.8614-21.75-2.625-7.3322-0.76364-14.729-1.4166-22.219-1.9375-7.4896-0.52086-15.084-0.92118-22.719-1.1875-7.6352-0.26631-15.325-0.40625-23.094-0.40625-9.1931 0-18.302 0.19249-27.312 0.5625-9.0106 0.37002-17.916 0.90243-26.719 1.625-8.8031 0.72258-17.492 1.6298-26.062 2.6875-8.5395 1.0538-16.966 2.287-25.25 3.6562-0.05 0.78113-0.1562 1.5896-0.1562 2.3438 0 20.779 19.193 38.511 38.656 49.5 1.7375 1.9722 4.3331 4.0191 6.75 6.4062 0.078 0.0772 0.1411 0.17213 0.2188 0.25 0.5564 0.55574 0.9789 1.1231 1.5 1.7188 0.5542 0.63288 1.172 1.2207 1.6562 1.9062 0.162 0.22931 0.2232 0.51422 0.375 0.75 0.7425 1.1524 1.4257 2.3293 1.8438 3.6562 0.017 0.0543 0.046 0.10162 0.063 0.15625 7.9553-1.1578 16.186-2.0473 24.625-2.6562 8.4389-0.60899 17.086-0.9375 25.906-0.9375 7.4988 0 14.872 0.243 22.094 0.6875s14.291 1.0905 21.188 1.9375c0.077-0.20196 0.2263-0.36502 0.3125-0.5625 0.3444-0.79114 0.8187-1.4939 1.2812-2.2188 0.2966-0.4644 0.4786-0.99763 0.8125-1.4375 0.4351-0.5731 0.9563-1.058 1.4375-1.5938 0.4266-0.47614 0.7704-0.89343 1.2188-1.3438 0.2083-0.20946 0.3828-0.45186 0.5937-0.65625 2.3102-2.2381 4.7538-4.1886 6.4063-6.0625 19.468-10.988 38.656-28.716 38.656-49.5 0-1.5183-0.1135-3.1005-0.3125-4.7188z" color="#000000" fill="url(#p)"/><path d="m839.24 608.67c-11.727 3.2193-24.358 7.3898-32.688 16.25-8.9419 9.5121-15.302 24.211-16.062 36.094 8.2841-1.3692 16.71-2.6024 25.25-3.6562 8.5707-1.0577 17.259-1.9649 26.062-2.6875 8.8032-0.72257 17.708-1.255 26.719-1.625 9.0106-0.37001 18.119-0.5625 27.312-0.5625 7.769 0 15.458 0.13994 23.094 0.40625 7.6352 0.26632 15.229 0.66664 22.719 1.1875 7.4896 0.52087 14.886 1.1739 22.219 1.9375 7.3323 0.76365 14.587 1.6303 21.75 2.625-0.1814-1.4763-0.4459-3.0016-0.7812-4.5312-0.064-0.29169-0.1491-0.58326-0.2188-0.875-2.377-10.048-7.8462-20.802-14.906-28.312-8.3292-8.8602-20.961-13.031-32.688-16.25-15.762-4.3271-32.506-5.0705-48.891-5.0705s-34.746 1.3195-48.891 5.0705z" color="#000000" fill="url(#o)"/><path d="m864.55 858.26h47.145c1.5142 0 2.7331 1.219 2.7331 2.7331 0 0 2.4135 7.0111 0 7.2881-18.827 2.9598-31.345 4.5551-49.878 6.1494-1.5141 0-2.733-1.2189-2.733-2.733v-10.704c0-1.5141 1.2189-2.7331 2.733-2.7331z" color="#000000" fill="url(#r)"/><path d="m912.26 874.61a3.0003 3.0003 0 0 0-0.2188 0.0313l-48.188 5.4375a3.0003 3.0003 0 1 0 0.6563 5.9375l48.219-5.4062a3.0091 3.0091 0 1 0-0.4687-6z" color="#000000" fill="url(#n)" style="block-progression:tb;text-indent:0;text-transform:none"/><path d="m912.16 885.45-48.188 5.4375a3.0024 3.0024 0 1 0 0.6562 5.9688l48.219-5.4375a3.0041 3.0041 0 1 0-0.6875-5.9688z" color="#000000" fill="url(#m)" style="block-progression:tb;text-indent:0;text-transform:none"/><path d="m912.26 896.27a3.0003 3.0003 0 0 0-0.2188 0.0313l-48.188 5.4375a3.0003 3.0003 0 1 0 0.6563 5.9375l48.219-5.4062a3.0091 3.0091 0 1 0-0.4687-6z" color="#000000" fill="url(#l)" style="block-progression:tb;text-indent:0;text-transform:none"/><path d="m912.18 907.11-46.532 5.4375a2.8992 3.0024 0 1 0 0.6336 5.9688l46.562-5.4375a2.9009 3.0041 0 1 0-0.6639-5.9688z" color="#000000" fill="url(#k)" style="block-progression:tb;text-indent:0;text-transform:none"/><path d="m858.63 839.12h58.988c1.5141 0 2.733 1.2189 2.733 2.733v16.626c0 1.5141-1.2189 2.733-2.733 2.733h-58.988c-1.5141 0-2.733-1.2189-2.733-2.733v-16.626c0-1.5141 1.2189-2.733 2.733-2.733z" color="#000000" fill="url(#j)"/><path d="m854.76 833.2h66.732c1.5141 0 2.733 1.2189 2.733 2.733v0.91102c0 1.5141-1.2189 2.733-2.733 2.733h-66.732c-1.5141 0-2.733-1.2189-2.733-2.733v-0.91102c0-1.5141 1.2189-2.733 2.733-2.733z" color="#000000" fill="url(#i)"/><path d="m900.64 931.98s-8.2984 1.5946-12.5 1.625c-4.1837 0.0303-12.469-1.4375-12.469-1.4375 0.9221 1.5918 2.3009 3.2779 4.375 4.4062 2.0898 1.1368 4.7013 1.6875 8.0625 1.6875 3.3613 0 6.0056-0.54936 8.0938-1.6875s3.4575-2.8345 4.375-4.4375c0.029-0.05 0.034-0.10654 0.063-0.15625z" color="#000000" fill="url(#h)" style="block-progression:tb;text-indent:0;text-transform:none"/><path transform="matrix(1 0 0 1.1482 -956.42 670.21)" d="m1932-11.806c-58.008-7.9593-117.23-7.3869-175.02 2.1302-1.1604 15.001 9.2258 27.898 20.238 36.823 4.7556 4.2876 10.738 6.9915 15.593 11.021 4.7992 2.6811 7.5103 9.6909 11.17 11.779 27.416-3.8148 55.328-4.0135 82.804-0.67702 2.7272-5.5368 7.6425-9.7518 12.455-13.387 14.004-8.4263 28.126-20.06 32.263-36.601 0.833-3.629 0.9803-7.3991 0.4933-11.088z" color="#000000" fill="url(#g)" filter="url(#v)"/><path d="m935.52 726.17c-0.086 0.19748-0.2351 0.36054-0.3125 0.5625-6.8963-0.84701-13.966-1.493-21.188-1.9375s-14.595-0.6875-22.094-0.6875c-8.8204 0-17.467 0.32851-25.906 0.9375-8.4389 0.60898-16.67 1.4984-24.625 2.6562-0.016-0.0546-0.045-0.10195-0.063-0.15625 0.2695 0.85532 0.4742 1.7482 0.5625 2.6875v29.938c0 1.1566 0.012 2.3106 0.063 3.4375v0.125c-0.051 1.1265-0.063 2.25-0.063 3.4062v33.031c0 19.179 7.1644 34.625 16.062 34.625h60.344c8.8981 0 16.062-15.446 16.062-34.625v-33.031c0-1.1563-0.043-2.2797-0.094-3.4062 9e-4 -0.0205-9e-4 -0.042 0-0.0625-1e-3 -0.0206 0-0.0419 0-0.0625 0.051-1.1269 0.094-2.2809 0.094-3.4375v-26.25c0.015-0.39515 0-0.80795 0-1.2188v-2.0625c0.033-0.52132 0.099-1.0346 0.1875-1.5312 0.075-0.41902 0.1689-0.81747 0.2813-1.2188 0.1708-0.60033 0.4423-1.1556 0.6875-1.7188z" color="#000000" fill="url(#f)"/><path d="m839.24 608.67c-11.727 3.2193-24.358 7.3898-32.688 16.25-8.9419 9.5121-15.302 24.211-16.062 36.094 8.2841-1.3692 16.71-2.6024 25.25-3.6562 8.5707-1.0577 17.259-1.9649 26.062-2.6875 8.8032-0.72257 17.708-1.255 26.719-1.625 9.0106-0.37001 18.119-0.5625 27.312-0.5625 7.769 0 15.458 0.13994 23.094 0.40625 7.6352 0.26632 15.229 0.66664 22.719 1.1875 7.4896 0.52087 14.886 1.1739 22.219 1.9375 7.3323 0.76365 14.587 1.6303 21.75 2.625-0.1814-1.4763-0.4459-3.0016-0.7812-4.5312-0.064-0.29169-0.1491-0.58326-0.2188-0.875-2.377-10.048-7.8462-20.802-14.906-28.312-8.3292-8.8602-20.961-13.031-32.688-16.25-15.762-4.3271-32.506-5.0705-48.891-5.0705s-34.746 1.3195-48.891 5.0705z" color="#000000" fill="#fff" filter="url(#u)"/></g></g></g></svg>
