<svg version="1.1" viewBox="0 0 274.48 693.4" xmlns="http://www.w3.org/2000/svg" xmlns:xlink="http://www.w3.org/1999/xlink"><defs><linearGradient id="r" x1="27.987" x2="25.575" y1="-71.552" y2="-75.73" gradientTransform="matrix(3.0915 0 0 3.0915 124.91 17.03)" gradientUnits="userSpaceOnUse" xlink:href="#a" spreadMethod="reflect"/><linearGradient id="a"><stop stop-color="#626262" stop-opacity=".4902" offset="0"/><stop stop-color="#1f1f1f" stop-opacity="0" offset="0"/><stop stop-color="#fff" stop-opacity=".78431" offset="1"/></linearGradient><linearGradient id="q" x1="197.27" x2="191.11" y1="99.551" y2="97.238" gradientTransform="matrix(8.2967 0 0 8.2967 -1457.1 -1019.3)" gradientUnits="userSpaceOnUse" xlink:href="#a" spreadMethod="reflect"/><radialGradient id="m" cx="177.53" cy="126.89" r="16.219" gradientTransform="matrix(10.705 0 8.0332e-7 121.36 -1815.1 -14793)" gradientUnits="userSpaceOnUse" xlink:href="#a" spreadMethod="reflect"/><radialGradient id="l" cx="101.64" cy="126.72" r="16.219" gradientTransform="matrix(13.553 0 0 41.151 -1192.9 -5273.8)" gradientUnits="userSpaceOnUse" xlink:href="#a" spreadMethod="reflect"/><radialGradient id="k" cx="61.147" cy="89.286" r="14.142" gradientTransform="matrix(4.1179 6.9575 -18.996 10.967 977.78 -960.87)" gradientUnits="userSpaceOnUse" xlink:href="#a" spreadMethod="reflect"/><radialGradient id="j" cx="103.55" cy="140.24" r="10.814" gradientTransform="matrix(-11.13 -40.974 28.838 -7.8337 -2620.3 5683.8)" gradientUnits="userSpaceOnUse" xlink:href="#a" spreadMethod="reflect"/><radialGradient id="i" cx="184.96" cy="167.26" r="6.8732" gradientTransform="matrix(17.133 0 0 18.271 -3103.5 -2724.3)" gradientUnits="userSpaceOnUse" xlink:href="#a" spreadMethod="reflect"/><radialGradient id="h" cx="198.42" cy="141.42" r="3.3322" gradientTransform="matrix(11.901 0 0 2.4472 -2172.3 -193.05)" gradientUnits="userSpaceOnUse" xlink:href="#a"/><radialGradient id="g" cx="201.99" cy="156.77" r="4.8404" gradientTransform="matrix(16.367 0 0 64.473 -3098.5 -9869.3)" gradientUnits="userSpaceOnUse" xlink:href="#a"/><linearGradient id="p" x1="87.4" x2="94.046" y1="161.88" y2="161.94" gradientTransform="matrix(8.2744 0 0 8.2744 -640.34 -894.18)" gradientUnits="userSpaceOnUse" xlink:href="#a" spreadMethod="reflect"/><radialGradient id="f" cx="41.618" cy="63.513" r="14.142" gradientTransform="matrix(5.8977 5.8977 -4.2667 4.2667 -62.607 -356.35)" gradientUnits="userSpaceOnUse" xlink:href="#a" spreadMethod="reflect"/><radialGradient id="e" cx="88.748" cy="73.313" r="14.142" gradientTransform="matrix(-.060538 -14.969 4.8122 0 -293.67 1773.6)" gradientUnits="userSpaceOnUse" xlink:href="#a" spreadMethod="reflect"/><radialGradient id="d" cx="198.42" cy="171.52" r="2.375" gradientTransform="matrix(25.527 0 0 4.6409 -4876 -393.94)" gradientUnits="userSpaceOnUse" xlink:href="#a" spreadMethod="reflect"/><radialGradient id="c" cx="198.42" cy="138.2" r="8.4506" gradientTransform="matrix(17.842 0 0 3.1866 -3351.1 -314.01)" gradientUnits="userSpaceOnUse" xlink:href="#a"/><radialGradient id="b" cx="176.21" cy="159.69" r="12.3" gradientTransform="matrix(8.7542 -2.9965e-6 4.2662e-7 1.2464 -1547.9 214.8)" gradientUnits="userSpaceOnUse" xlink:href="#a" spreadMethod="reflect"/><radialGradient id="n" cx="309.35" cy="-51.267" r="10.484" gradientTransform="matrix(1 0 0 11.224 0 631.65)" gradientUnits="userSpaceOnUse" xlink:href="#a"/><radialGradient id="o" cx="110.13" cy="-78.72" r="17.375" gradientTransform="matrix(-.26158 6.4707 -6.8934 -.27867 -418.52 -716.7)" gradientUnits="userSpaceOnUse" xlink:href="#a"/></defs><g transform="translate(-257.05 -168.52)"><g transform="translate(205.05 393.89)" fill-rule="evenodd"><path d="m189.25-225.37c-55.683 0-101.08 6.7117-101.92 15.071 5.2498 7.8244 48.846 13.622 101.92 13.622 53.079 0 96.868-5.7977 102.12-13.622-0.0578 0.0886-0.22151 0.10635-0.28983 0.19323 0-8.4693-45.618-15.265-101.83-15.265zm0 0.8695c52.608 0 95.355 6.0938 95.355 13.719-5.3804 6.9698-46.026 12.173-95.355 12.173-49.678 0-90.442-5.2252-95.355-12.27 0.78927-7.5262 43.24-13.622 95.355-13.622z" color="#000000" fill="url(#r)" opacity=".32759"/><path d="m189.17-225.28c-56.36 0-101.89 6.6095-101.89 14.778s45.533 14.778 101.89 14.778c56.361 0 102.15-6.6095 102.15-14.778s-45.792-14.778-102.15-14.778zm0 0.77781c53.926 0 97.745 6.2408 97.745 14.001s-43.819 14.001-97.745 14.001-97.486-6.2408-97.486-14.001 43.559-14.001 97.486-14.001z" fill="url(#q)"/><path d="m189.25-225.37c-55.683 0-101.08 6.9866-101.92 15.697 5.2498 8.1527 48.846 14.232 101.92 14.232 53.079 0 96.868-6.0792 102.12-14.232-0.0578 0.0923-0.22121 0.11877-0.28983 0.20929 0-8.8246-45.618-15.906-101.83-15.906z" color="#000000" fill="url(#m)" opacity=".32759"/><path d="m87.359-210.92c-19.986 49.915-32.322 225.58-32.322 251.59 0 58.06 60.075 105.24 134.2 105.24 74.127 0 134.2-47.181 134.2-105.24 0-26.016-12.077-201.68-32.063-251.59-5.2498 7.5267-49.059 13.187-102.14 13.187-53.079 0-96.629-5.6607-101.88-13.187z" fill="url(#l)"/><path d="m326.05 441.84c0 11.434-61.254 20.703-136.81 20.703-75.561 0-136.81-9.2689-136.81-20.703 0-11.434 61.254-20.703 136.81-20.703 75.561 0 136.81 9.2689 136.81 20.703z" fill="url(#k)" opacity=".5"/><path d="m262.09 126.94c-23.002 16.671-62.1 40.91-61.541 51.974 1.5831 31.318 2.5858 44.263 2.5858 92.053 0 47.79-1.0026 90.988-2.5858 122.31-0.79184 15.659 79.137 28.219 78.09 36.976-1.0466 8.7572-59.297 13.705-89.467 13.705-30.17 0-88.421-4.9474-89.467-13.705-1.0466-8.7574 78.882-21.317 78.09-36.976-1.5833-31.318-2.5858-74.517-2.5858-122.31 0-47.79 1.0025-60.735 2.5858-92.053 0.55934-11.063-38.539-35.303-61.541-51.974 21.011 10.574 45.994 16.807 72.919 16.807 26.924 0 51.907-6.2337 72.919-16.807z" fill="url(#j)"/><path d="m118.91 128.33c22.584 16.593 63.383 42.255 62.834 53.267-1.5544 31.172-3.3615 62.328-3.3615 109.89 0 47.567-0.52008 70.965 1.0343 102.14 0.77747 15.586-107.56 40.413-106.53 49.13 0.83938 7.1197 38.372 11.486 68.523 12.929-20.271-1.5477-35.703-5.484-36.459-11.895-1.0275-8.7162 79.644-34.578 78.866-50.164-1.5543-31.172-2.5858-74.222-2.5858-121.79 0-43.461 2.3739-92.604 2.8443-101.62 1.7153 0.14 3.2188 0.25846 5.1715 0.25846 9.1905 1.1042 12.135-3.3371 17.602-9.6354-3.3827-1.0072-10.852 2.3953-17.602 2.3953-15.454-2.4237-25.594-14.939-34.391-21.203-3.9838-1.6126-32.203-11.797-35.942-13.705z" fill="url(#i)" opacity=".5"/><path d="m161.6 150.64c0-1.7997 12.343-3.2604 27.572-3.2604 15.23 0 27.572 1.4607 27.572 3.2604-5.5233 11.41-17.905 7.3951-27.572 7.3891-12.279 0.29958-20.946 3.2585-27.572-7.3891z" fill="url(#h)" opacity=".5"/><path d="m319.3-27.59c-2.2844 16.945 4.9783 60.686-6.4644 87.657-8.8451 20.849-13.5 44.23-45.251 50.681-21.648 8.0263-52.296-0.57123-79.383 1.2929-35.276 2.4277-83.431 13.853-115.58-23.789-17.408-17.66-12.981-59.205-15.773-85.847-1.2182 18.135-1.81 32.359-1.81 38.269 0 58.06 60.075 105.24 134.2 105.24 74.127 0 134.2-47.181 134.2-105.24 0-8.8575-1.5018-35.566-4.1372-68.264z" opacity=".2"/><path d="m255.72 128.42c-3.3231 1.9078-28.261 11.893-31.802 13.506-20.176 16.137-26.375 21.972-26.375 21.972s2.9008 60.31 2.9008 107.88c0 47.567-0.87484 90.564-2.2562 121.74-0.69091 15.586 69.05 28.088 68.136 36.804-0.89553 8.5473-49.54 13.454-76.259 13.641 0.59742 6e-3 1.4563 0 2.0305 0 26.325 0 77.15-4.9243 78.064-13.641 0.91324-8.7162-68.827-21.218-68.136-36.804 1.3814-31.172 2.2562-74.169 2.2562-121.74 0-47.567-0.87479-60.452-2.2562-91.624-0.48822-11.012 33.627-35.138 53.697-51.732z" fill="url(#g)" opacity=".5"/><path d="m189.23 421.14c-40.029 0.37318-80.602 1.0862-119.69 10.594-5.7469 2.3297-16.181 3.3517-17.093 10.865-0.3384 4.1378 0.12923 8.6374 4.8855 10.162 18.795 8.3046 39.734 9.6543 59.911 12.012 54.022 4.5167 108.61 4.4677 162.46-2.1145 14.589-2.4292 30.072-3.7006 43.154-11.137 3.9966-2.2946 3.3047-7.0739 2.9067-10.989-5.8827-7.3682-16.388-8.3625-24.967-10.767-36.647-7.4093-74.296-8.4243-111.56-8.625z" fill="url(#p)"/><path d="m326.48 441.9c0 10.986-61.444 19.891-137.24 19.891-75.795 0-137.24-8.9057-137.24-19.891 0-10.986 61.444-19.891 137.24-19.891 75.795 0 137.24 8.9057 137.24 19.891z" fill="url(#f)"/><path d="m326.05 447.33c0 11.434-61.254 20.703-136.81 20.703-75.561 0-136.81-9.269-136.81-20.703 0-11.434 61.254-20.703 136.81-20.703 75.561 0 136.81 9.2689 136.81 20.703z" fill="url(#e)"/><path d="m189.18 398.49c-4.6134 0-8.642 0.33014-12.282 0.66938-1.7344 1.6058-4.2542 3.1705-7.3695 4.6896 4.1843 0.99591 11.18 1.7865 19.652 1.7865 8.3914 0 15.446-0.80676 19.652-1.7865-3.1152-1.5192-5.6351-3.0838-7.3695-4.6896-3.611-0.33178-7.7268-0.66938-12.282-0.66938z" fill="url(#d)"/><path d="m158.19 138.87c-11.827-1.251-19.901-4.2849-23.308-5.4827-9.4292-3.3154-15.628-8.3344-15.628-9.2903 0-2.2228 31.301-10.204 69.924-10.204 38.623 0 69.924 7.9812 69.924 10.204 0 0.96024-6.1302 5.9909-15.628 9.2903-3.447 1.1973-11.658 4.2376-23.712 5.4827 5.6418-1.961 10.602-3.7207 13.473-5.3304-9.0561-0.17775-23.746-0.30451-44.056-0.30451-20.418 0-35.083 0.12495-44.056 0.30451 2.7938 1.6161 7.5547 3.4134 13.069 5.3304z" fill="url(#c)" opacity=".5"/><path d="m291.01 433.28c0 8.0028-45.567 14.49-101.78 14.49-56.21 0-101.78-6.4875-101.78-14.49 0-8.0028 45.567-14.49 101.78-14.49 56.21 0 101.78 6.4876 101.78 14.49z" fill="url(#b)" opacity=".5"/><path d="m72.621-143.17c-1.0965 7.0595-2.3583 14.263-3.3615 21.72-0.0662 0.51136-0.19076 1.0384-0.25846 1.5514-0.97572 7.31-1.7021 14.753-2.5858 22.238-1.1132 9.4608-2.1434 18.785-3.1029 28.185-1.0705 10.488-2.2323 20.858-3.1029 30.771-0.30051 3.4167-0.50018 6.5197-0.77574 9.8259-0.83274 9.9884-1.4658 19.859-2.0686 28.443-0.7091 10.123-1.4432 19.944-1.81 27.151-0.15647 4.9471-0.51716 15.161-0.51716 15.256 0 0.08607-2.37e-4 0.17334 0 0.25858-3.95e-4 0.10923 0 0.41206 0 0.51715 0 0.6934 0.24207 1.3779 0.25846 2.0686 0.0662 2.8359 0.1654 5.7562 0.51716 8.533 0.04149 0.33842-0.04973 0.69671 0 1.0343 0.11403 0.86931 0.3674 1.7143 0.51716 2.5858 0.3252 1.7443 0.59907 3.4561 1.0343 5.1715 0.1126 0.44435 0.39718 0.85095 0.51716 1.2929 0.04149 0.16478-0.04149 0.3525 0 0.51715 0.59908 2.1571 1.2985 4.3593 2.0686 6.4644 10.332 28.242 35.74 51.445 69.04 64.385 19.447 13.902 42.295 13.313 47.578 23.53 4.2218-0.18117-11.44-0.51715 12.67-0.51715 22.716 0.51044 8.4203 0.33097 12.67 0.51715 5.3183-10.221 28.146-9.6335 47.578-23.53 33.3-12.94 58.708-36.143 69.04-64.385 0.77034-2.1051 1.4694-4.3074 2.0686-6.4644 0.15891-0.609 0.37153-1.1975 0.51715-1.81 0.0415-0.1654-0.0415-0.35166 0-0.51715 0.66114-2.6707 1.1601-5.277 1.5515-8.0159 0.01-0.08356-0.01-0.17585 0-0.25858 0.35166-2.7768 0.44682-5.6971 0.51716-8.533 0.0247-0.68761 0.2535-1.3775 0.25846-2.0686 0-0.1572 8.8e-4 -0.60776 0-0.77573-0.0399-7.5729-2.2308-28.474-4.3958-52.75 3.3499 59.186-12.806 115.23-61.8 138.6-1.052 0.49681-2.033 1.0768-3.1029 1.5515-1.2653 0.55241-2.5717 1.0417-3.8787 1.5515-16.744 6.5305-36.977 9.5489-61.024 8.0159-40.24 0-82.137-16.523-106.79-42.148-14.903-15.489-23.404-34.286-21.72-54.818 7.8372-95.57 11.343-172.84 11.895-185.14z" opacity=".2"/><path d="m289.99-179.45c-0.39486 0.0454-0.90078 0.25015-1.125 0.0688 2.8051 9.7856 3.7052 20.043 5.125 30.137 7.2543 65.107 12.098 130.56 13.906 196.06 0.49081 3.1285-1.1886 14.323 1.9375 6.158-0.99169-22.398-2.0152-44.795-3.125-67.188-3.2894-54.965-5.2512-110.39-16.25-164.44 0.1986-0.74341-0.0739-0.83673-0.46875-0.79126z" fill="url(#n)"/><path d="m104.12-198.03c-16.232 77.995-22.824 141.44-26.177 221.53l14.367 18.214c-0.15078-82.565 10.802-159.6 20.383-237.32z" fill="url(#o)"/></g></g></svg>
