<svg version="1.1" viewBox="0 0 476.16 496.31" xmlns="http://www.w3.org/2000/svg" xmlns:xlink="http://www.w3.org/1999/xlink"><defs><linearGradient id="a"><stop offset="0"/><stop stop-color="#31370c" offset=".12513"/><stop stop-color="#919f20" offset=".36501"/><stop stop-color="#535d1b" offset="1"/></linearGradient><linearGradient id="c"><stop offset="0"/><stop stop-opacity="0" offset="1"/></linearGradient><linearGradient id="b"><stop stop-color="#ff4f19" offset="0"/><stop stop-color="#aa260c" offset=".67742"/><stop stop-color="#8c2100" offset="1"/></linearGradient><filter id="x" x="-.047262" y="-.37723" width="1.0945" height="1.7545" color-interpolation-filters="sRGB"><feGaussianBlur stdDeviation="5.4929819"/></filter><radialGradient id="i" cx="315.49" cy="113.53" r="153.85" gradientTransform="matrix(1 0 0 .22481 0 99.39)" gradientUnits="userSpaceOnUse" xlink:href="#b"/><filter id="w" x="-.23026" y="-.2506" width="1.4605" height="1.5012" color-interpolation-filters="sRGB"><feGaussianBlur stdDeviation="10.477712"/></filter><filter id="d" x="-.10078" y="-.27806" width="1.2016" height="1.5561" color-interpolation-filters="sRGB"><feGaussianBlur stdDeviation="11.082406"/></filter><filter id="v" x="-.15398" y="-.098305" width="1.308" height="1.1966" color-interpolation-filters="sRGB"><feGaussianBlur stdDeviation="6.7909184"/></filter><radialGradient id="h" cx="260.8" cy="303.51" r="203.56" gradientTransform="matrix(.90146 .042108 -.04736 1.0139 41.611 -13.569)" gradientUnits="userSpaceOnUse" xlink:href="#b" spreadMethod="reflect"/><filter id="u" x="-.1008" y="-.83993" width="1.2016" height="2.6799" color-interpolation-filters="sRGB"><feGaussianBlur stdDeviation="14.688056"/></filter><radialGradient id="g" cx="243.71" cy="440.58" r="226.43" gradientTransform="matrix(1 0 0 .26663 0 322.6)" gradientUnits="userSpaceOnUse" xlink:href="#c"/><filter id="t"><feGaussianBlur stdDeviation="2.4850014"/></filter><radialGradient id="f" cx="239.05" cy="136.45" r="177.79" gradientTransform="matrix(1 0 0 .46479 0 73.031)" gradientUnits="userSpaceOnUse" xlink:href="#c"/><radialGradient id="e" cx="255.28" cy="481.61" r="148.55" gradientTransform="matrix(1 0 0 .23766 -12.26 317.32)" gradientUnits="userSpaceOnUse" xlink:href="#c"/><filter id="s" x="-.029095" y="-.13705" width="1.0582" height="1.2741"><feGaussianBlur stdDeviation="3.50125"/></filter><filter id="ab"><feGaussianBlur stdDeviation="0.04639075"/></filter><filter id="y"><feGaussianBlur stdDeviation="0.2427114"/></filter><linearGradient id="q" x1="239.01" x2="266.6" y1="99.379" y2="99.379" gradientTransform="matrix(.91304 0 0 .77398 20.733 22.462)" gradientUnits="userSpaceOnUse" xlink:href="#a" spreadMethod="reflect"/><radialGradient id="n" cx="270.17" cy="114.97" r="6.9517" gradientTransform="matrix(1.0566 0 0 .22123 -29.06 51.684)" gradientUnits="userSpaceOnUse" xlink:href="#a"/><radialGradient id="m" cx="270.08" cy="251.66" r="222.2" gradientTransform="matrix(.99418 0 0 .47307 -20.263 -22.222)" gradientUnits="userSpaceOnUse" xlink:href="#a" spreadMethod="reflect"/><radialGradient id="l" cx="273.19" cy="117.44" r="7.531" gradientTransform="matrix(2.0115 .51035 -.33771 1.1934 -232.64 -157.46)" gradientUnits="userSpaceOnUse" xlink:href="#a"/><linearGradient id="p" x1="403.35" x2="379.9" y1="178.27" y2="123.22" gradientTransform="matrix(-1.7588 -.49719 -1.3095 .54628 1020.6 157.43)" gradientUnits="userSpaceOnUse" xlink:href="#a" spreadMethod="reflect"/><radialGradient id="k" cx="379.72" cy="178.81" r="19.724" gradientTransform="matrix(2.0295 .5438 -.49818 1.8592 -311.74 -346.34)" gradientUnits="userSpaceOnUse" xlink:href="#a" spreadMethod="reflect"/><radialGradient id="j" cx="264.82" cy="88.334" r="10.941" gradientTransform="matrix(.89675 0 0 1.4639 22.975 -39.804)" gradientUnits="userSpaceOnUse" xlink:href="#a"/><linearGradient id="r" x1="229.4" x2="230.15" y1="269.55" y2="122.09" gradientTransform="matrix(1 0 0 .87 -9.7698 43.411)" gradientUnits="userSpaceOnUse" xlink:href="#b"/><filter id="aa" x="-.10031" y="-.4783" width="1.2006" height="1.9566"><feGaussianBlur stdDeviation="8.5134292"/></filter><filter id="z" x="-.23091" y="-.081064" width="1.4618" height="1.1621"><feGaussianBlur stdDeviation="9.6200311"/></filter><radialGradient id="o" cx="183.3" cy="328.82" r="121.19" gradientTransform="matrix(-.31744 1.3991 .51786 .055625 359.86 -33.483)" gradientUnits="userSpaceOnUse" xlink:href="#b"/></defs><g transform="translate(-12.26 -52.687)"><g><path d="m188.2 110.89c-5.4541 0.0443-14.452 0.4351-23.708 2.1841-2.286 8.9626-3.5131 17.084-3.5131 17.084l32.466-19.198s-1.9726-0.0971-5.2451-0.0705z" color="#000000" fill="url(#p)"/><path d="m393.3 122.84c-3.991 0.49444-7.9372 1.0146-11.913 1.5575l-0.32189 0.61284 39.447 33.968s-16.224-34.025-27.213-36.138z" color="#000000" fill="url(#k)"/><path transform="translate(-21.342 52.687)" d="m253.34 419.09c-13.273-8e-3 -24.857 0.0937-31.469 0.0937-12.832 0-48.251-0.13661-59.844 0.1875-77.087 2.1553-104.5 9.8884-89.031 20.594 17.797 12.315 105.24 21.094 203.41 21.094 99.741-0.15343 159.41-10.08 137.72-21.094-7.0093-7.4284-38.346-16.74-108.41-20-15.493-0.72096-35.31-0.86507-52.375-0.875z" color="#000000" fill="url(#g)" filter="url(#u)"/></g><path d="m192.78 113.38c-10.256 3.1563-19.818 6.7039-28.728 10.607-88.247 38.655-112.52 112.16-113.05 185.39-0.79434 108.74 89.249 200.72 206.41 200.72 119.3-1.4596 197.65-84.092 200.72-200.72 1.8604-70.784-18.164-152.01-97.732-186.49-51.592-22.359-113.27-26.233-167.61-9.5089z" color="#000000" fill="url(#h)"/><g><path transform="matrix(1.091 0 0 1.2982 -23.576 -14.567)" d="m296.44 110.75c-13.391 0.11435-24.971 0.78125-31.875 0.78125-15.315 0-57.387-1.2396-71.781 1.8438-28.827 6.1748-53.145 17.178-73.062 32.312 9.4757-2.062 19.28-3.8721 29.406-5.4375 5.9235-0.91567 14.631-1.5144 24.75-1.9062 6.076-1.8886 12.368-3.5682 18.906-4.9688 14.394-3.0834 56.466-1.8438 71.781-1.8438 17.001 0 62.386-3.919 93.219 5.8438 13.643 0.41005 27.524 1.228 40.875 2.6875-10.229-8.363-21.972-15.408-35.406-20.75-17.247-6.8586-40.619-8.468-60.969-8.5625-1.9784-9e-3 -3.9308-0.0163-5.8438 0z" color="#000000" fill="url(#i)" filter="url(#x)"/><path transform="matrix(1 0 0 1.3635 12.26 16.67)" d="m381.66 125.69c-35.343 33.143-82.892 2.7007-136.78 3.4062-53.906 0-101.92 32.5-138.06-0.125 27.954 61.175 78.449 99.156 138.25 99.156 59.917-1.0022 109.89-42.898 136.59-102.44z" color="#000000" fill="url(#r)" filter="url(#d)"/><path transform="matrix(.94662 0 0 1.0793 25.389 41.364)" d="m347.78 121.47c-5.8863 3.1028-12.249 4.8748-19 5.75-21.048 17.523-52.124 29.037-88.062 29.375-39.089 0-72.81-12.327-94.438-32.719-0.73844-0.3292-1.4619-0.63177-2.1875-1 20.715 25.483 58.122 41.312 102.44 41.312 44.401-0.41747 81.458-17.917 101.25-42.719z" color="#000000" fill="#fff" filter="url(#aa)"/><path transform="translate(12.26 52.687)" d="m364.25 177.78c-33.793 3.0757-49.519 4.6118-83.312 7.6875 25.537 20.98 24.395 68.697 53.344 69.812 33.988-0.66311 32.918-3.4931 66.906-4.1562 6.6705-31.461-6.4447-54.53-36.938-73.344z" color="#000000" fill="#faa" filter="url(#w)" opacity=".8"/><path transform="matrix(1 0 0 1.0648 12.26 47.198)" d="m287.66 59.781c-6.222-8e-3 -12.148 0.15312-17.469 0.3125l-27.625 35.906-75.938-29.594c-3.3436 1.0054-6.6073 2.065-9.8125 3.2188l65.906 32.625-125.16 21.531-27.594 18.469c-0.93534 1.6603-1.8635 3.3296-2.75 5.0312l32.094-17.906 130.09-11.281s-10.028 13.663-13.094 21.531c-9.0446 23.216-14.75 73.5-14.75 73.5s15.504-44.284 28.469-63.344c7.4515-10.954 27.656-28.281 27.656-28.281s58.183 13.9 85.938 25c23.372 9.3474 67.25 34.781 67.25 34.781s-37.226-33.267-58.938-44.719c-22.934-12.097-73.562-24.375-73.562-24.375s21.62-10.803 64.154-13.776c-3.1602-3.222 30.891-10.575 27.376-13.488-43.392 0.89149-99.092 14.482-99.092 14.482z" color="#000000" fill="url(#f)" filter="url(#t)"/><path transform="matrix(1 0 0 -.56529 12.26 236.51)" d="m391.44 94.562c-35.343 38.095-82.892 62.22-136.78 63.031-53.906 0-101.92-21.749-138.06-59.25 27.954 70.316 78.449 113.97 138.25 113.97 59.917-1.1519 109.89-49.314 136.59-117.75z" color="#000000" fill="#601700" filter="url(#d)"/><path d="m145.43 199.31c-16.649 1.7676-28.454 13.289-39.031 41.219l-4.9688 41.5c0.11359 0.0888 2.4887-0.3469 49.25-37.469 6.9023-4.7299 18.152-7.075 30.844-8-13.261-9.855-25.379-22.393-36.094-37.25z" color="#000000" fill="#ff9d97" filter="url(#v)" opacity=".52155"/></g><path transform="translate(12.26 52.687)" d="m320.59 25.25c-0.64756-0.04846-2.5296 2.2121-4.25 3.2188-24.98 16.703-60.204 18.042-64.257 66.136-11.784-24.773-67.069-40.759-67.069-40.759-10.943 2.1694-21.719-1.6578-32.829 6.5287 0 0 13.725-0.33172 17.183 0.05631 28.905 6.4393 37.701 21.616 49.346 34.694-25.731-10.567-54.151-5.6488-121.53 20.531-22.429 8.7148-20.721 12.406-40.281 26.241-4.9617 6.9468 8.3566-0.11109 11.281-2.125 17.825-9.3858 14.038-9.3891 33.406-14.991 41.348-11.959 127.29-15.647 127.29-15.647-8.4716 7.9072-25.331 26.938-28 38.379-5.6787 20.138-8.91 41.099-10.375 61.938-0.21751 9.2199 4.5884-1.5678 5.6562-5.25 8.2973-20.628 29.417-52.871 42.665-70.902 7.4174-8.8353 13.864-8.5567 22.451-16.018 33.182 8.4566 66.921 15.629 98.281 29.719 19.297 8.8053 37.861 19.477 56.688 29.219 8.1476 3.3058-0.20355-5.4527-3.125-7.25-23.854-19.353-47.629-40.655-77.531-49.656-14.309-4.9976-28.925-9.1591-43.625-12.938 38.877-5.2556 53.467-32.899 92.714-34.479-15.414-10.918-28.881-7.9052-39.75-6.918-30.729 1.9148-37.122 21.739-67.589 25.835 6.8096-33.593 32.177-39.185 42.719-62.219 0.83987-2.4714 0.91979-3.3147 0.53125-3.3438z" color="#000000" fill="url(#m)"/><g><path transform="matrix(.79363 0 0 .54067 60.947 98.541)" d="m251 91.281c-3.6262-0.08409-7.2198 1.1206-8.6875 4.1875-17.671 20.806 41.476 11.106 14.812-2.7812-1.7675-0.85564-3.9493-1.3558-6.125-1.4062z" color="#000000" fill="url(#q)" filter="url(#y)"/><path transform="translate(12.26 52.687)" d="m250.75 71.062c-2.7932 0.07691-5.37 1.3486-5.8125 4.0938 0.00717 1.3915 1.404 2.7496 0.9375 4.0938-2.4333 7.0107-3.7142 10.259-6.1875 20.375-0.24504 2.996 6.8126 3.3316 9.5312 2.6875 3.1482-0.26281 7.915-1.8439 7.7812-4.4375-1.3184-8.8543-1.2188-9.7803-1.2188-16.25 0-1.8062 3.1617-3.8753 2.9375-5.625-0.40598-3.1681-4.3775-5.0364-7.9688-4.9375z" color="#000000" fill="url(#j)" fill-rule="evenodd" style="block-progression:tb;text-indent:0;text-transform:none"/><g><path transform="translate(12.26 52.687)" d="m387.44 401.12c-38.301 28.039-87.216 45.417-141.94 46.062-56.51 0-107.27-16.625-146.88-45.594 35.676 37.019 84.833 59.297 140.69 60.75 0.12508 0.00327 0.24986-0.00327 0.375 0 1.9274 0.03897 3.8713 0.09375 5.8125 0.09375 56.602-0.84686 106.2-24.508 141.94-61.312z" color="#000000" fill="url(#e)" filter="url(#s)"/><path transform="matrix(.89675 0 0 .84913 35.235 66.062)" d="m248.53 75.75c-0.14268 0.12319-0.2499 0.25995-0.28125 0.40625-0.21469 1.0019 2.4289 2.1304 5.9062 2.5312 3.4773 0.40081 6.5041-0.06056 6.7188-1.0625 0.0255-0.11922-9e-3 -0.25341-0.0625-0.375-0.82314 0.72689-3.4557 1.0312-6.4375 0.6875-3.0885-0.35599-5.489-1.2804-5.8438-2.1875z" color="#000000" fill="url(#n)" filter="url(#ab)" opacity=".8"/><path d="m263.04 122.93c-0.27836 0.33601-0.60476 0.43261-0.78465 0.87566-0.35569 0.27236-0.45104-0.55241-0.92477-0.31842-0.27513-0.0345-0.31854 0.17693 0 0.15921-0.34988 0.15347 0.51849 0.13508 0.028 0.29189-0.27904 0.0115-0.51329-0.61909-0.78466-0.31842-0.26205-0.17018-0.42983 0.45715-0.47639 0.31842-0.14015 0.30834-0.51122-0.33622-0.58849 0.15921-0.2953-0.2343-0.46169 0.56332-0.4764 0.15921-0.27383 0.0103-0.30504 0.96012-0.50442 0.39803-0.24857-0.069-0.69778 0.51861-0.22419 0.31842 0.20628 0.44799-0.30103-0.0813-0.14011 0.3715 0.58141 0.0669 4e-3 1.129 0 0.47763 0.42627-0.36743-0.3374-0.22494-0.42035-0.55724-0.25629 0.013-0.44817-0.48065-0.19617 0 0.24632 0.41919-0.62526 0.0914-0.22418 0.55724 0.40548 0.59779-0.72113 0.49675-0.98082 0.76952 0.35102 0.0195-0.14107 0.90334 0.22419 0.47764 0.53361 0.0978-0.33252 0.40249 0.25221 0.39802 0.23499 0.0577-0.0735 0.56461 0.30825 0.50417-0.51562 0.0409 0.23242 0.67541-0.25221 0.9022-0.0666 0.2758 0.32751 0.90402 0.25221 0.29189 0.12962-0.0661 0.78675-0.0851 0.36431-0.21228 0.27899 0.0741 0.72185 0.0635 0.42035 0.29188 0.28465 0.27567 0.47517 0.44248 0.44837 0.79606 0.24735 0.75128 0.84764-0.28573 1.177 0.42456 0.19071 0.37433 0.27676-0.45768 0.3643 0-0.38834 0.21015 0.19136 0.0206 0.22419 0.10615 0.21009-0.30312 0.62702-0.27526 0.58849 0.21228 0.37025-0.57072 0.35205 0.47532 0.72861 0.15921 0.039-0.0646 1.0463-0.48123 1.0369 0.18574 0.6201-0.27932-0.0362 1.1129 0.61652 0.4511 0.58902-0.066 1.1401-0.42161 1.6534-0.15921 0.54216-0.12983 0.26592-1.1941 0.8407-0.84912 0.1845-0.36591 0.40255 0.34219 0.75663 0.21228-0.0167 0.0301-4e-3 0.0645 0 0.0796 0.11419 0.0267 0.44489-0.098 0.42035 0.10614 0.12547-0.17631 0.42503-0.11229 0.56047 0.0531-0.50597 0.12136 0.30664 0.48329 0.39233 0 0.1456 0.54174 0.41733-0.35245 0.25221-0.37149 0.20432-0.42514 1.0714-0.74835 0.81267 0 0.41701 0.39742 0.43378-0.72967 0.89675-0.15921 0.53841 0.0797 0.11664-0.75586 0.33628-1.088-0.15236-0.28033-0.20637-0.3421-0.0561-0.61031 0.29129-0.0564 0.23752 0.96367 0.39233 0.50417-0.1291 0.38939 0.76155 0.3401 0.28023 0-0.30912-0.21848-0.44311-0.42285-0.22418-0.58377 0.39227-0.16421 0.9567 9e-3 0.98081-0.63685-0.2337-0.14207 0.28639-0.5384-0.084-0.39803 0.45389-0.2157 0.064-0.6089 0.14012-0.79605-0.64607-0.22759 0.44503-0.62764 0.61651-0.9022-0.29801-0.13293-0.19707-0.48816-0.56047-0.23882-0.36641-0.0885-0.24822 0.30035-0.39232 0.21228-0.37521-0.0267 0.70879 0.47868 0 0.26536-0.40275-0.20594-0.0451 0.54479-0.4764 0.21228-0.0176-0.31004-0.10175-0.50088 0.16814-0.63685 0.0439-0.30691-0.18022 0.10471-0.084-0.31842-0.22354 0.25026-0.911 0.23895-0.56046-0.34496 0.25581-0.32456-0.0433-0.35885-0.1121-0.31842 0.11253-0.29303-0.69556-0.1609-0.33628 0.13268-0.0783 0.43883-0.44928-0.50696-0.39232 0.0265-0.0945-0.19194-0.68414-0.86105-0.19617-0.42456-0.0354 0.38616 0.31586-0.33583 0-0.39803 0.34294-0.24364-0.2847 0.18561-0.3643-0.21229-0.29716 0.0863-0.28578 0.0121-0.30826 0.0531-0.50947-0.34262-0.18477 0.18229 0.084 0.23881 0.16929 0.89318-0.71448-0.72408-0.89675-0.13267 0.1777-0.91827-1.2596 0.45377-0.98082-0.61031 0.1149-0.7979-0.81081 0.24432-1.0369 0.13267-0.26467-0.22758-0.13331 0.51082-0.44837 0.10614-0.22459-0.0255-0.52169-0.0126-0.19617-0.26535-0.22252 0.0589-0.75551 0.1262-0.53244-0.29189-0.30087 0.15449-0.66183 0.29321-0.22419-0.0796 0.0157-0.022 4e-3 -0.0194 0-0.0265-0.10301 0.0185-0.42796 0.15778-0.47639-0.0531-0.63988-0.0649 0.48186 0.21106-0.16814 0.21228-0.25269 0.16847-0.42083-0.0667-0.53245-0.29189z" color="#000000" fill="#828f1f"/><path d="m263.2 121.44c-0.23917 0.30492-0.51958 0.39257-0.67414 0.79463-0.30559 0.24714-0.3875-0.5013-0.79451-0.28896-0.23637-0.0312-0.27368 0.16056 0 0.14448-0.3006 0.13927 0.44546 0.12264 0.024 0.26487-0.23973 0.0106-0.441-0.5618-0.67412-0.28895-0.22515-0.15443-0.3693 0.41484-0.40931 0.28895-0.12039 0.27982-0.43921-0.30511-0.5056 0.14448-0.2537-0.21262-0.39665 0.51119-0.40929 0.14448-0.23526 9e-3 -0.26207 0.87126-0.43337 0.3612-0.21356-0.0626-0.59949 0.47061-0.1926 0.28894 0.17722 0.40653-0.25863-0.0737-0.12038 0.33712 0.49952 0.0607 4e-3 1.0245 0 0.43342 0.36623-0.33341-0.28988-0.20413-0.36115-0.50566-0.22019 0.0119-0.38504-0.43616-0.16854 0 0.21163 0.38039-0.53719 0.083-0.1926 0.50566 0.34836 0.54247-0.61956 0.45078-0.84266 0.69831 0.30158 0.0177-0.1212 0.81974 0.19261 0.43344 0.45843 0.0887-0.28568 0.36523 0.21668 0.3612 0.20188 0.0522-0.0631 0.51234 0.26484 0.4575-0.443 0.0371 0.19968 0.61289-0.2167 0.8187-0.0572 0.25027 0.28138 0.82036 0.2167 0.26487 0.11132-0.06 0.67593-0.0773 0.31299-0.19263 0.2397 0.0673 0.62017 0.0576 0.36113 0.26487 0.24457 0.25016 0.40825 0.40153 0.38523 0.72239 0.21251 0.68176 0.72824-0.25928 1.0112 0.38527 0.16385 0.33968 0.23777-0.41531 0.31299 0-0.33366 0.19069 0.1644 0.0187 0.19261 0.0962 0.1805-0.27506 0.53868-0.24979 0.50559 0.19263 0.3181-0.5179 0.30247 0.43133 0.62598 0.14448 0.0335-0.0588 0.89896-0.43668 0.89082 0.16856 0.53276-0.25348-0.031 1.0099 0.52968 0.40934 0.50606-0.0599 0.97953-0.38258 1.4205-0.14448 0.46581-0.11785 0.22847-1.0836 0.72228-0.77053 0.15853-0.33205 0.34586 0.31053 0.65008 0.19263-0.0143 0.0273-4e-3 0.0586 0 0.0723 0.098 0.0243 0.38221-0.0888 0.36114 0.0963 0.10778-0.15999 0.36515-0.10195 0.48151 0.0482-0.4347 0.11016 0.26345 0.43856 0.33707 0 0.12509 0.49159 0.35856-0.31984 0.21668-0.33712 0.17555-0.38579 0.9205-0.67908 0.69821 0 0.35828 0.36065 0.37267-0.66215 0.77044-0.14447 0.46257 0.0723 0.10015-0.6859 0.2889-0.98726-0.13088-0.25439-0.17729-0.31045-0.0482-0.55383 0.25025-0.0512 0.20405 0.87449 0.33705 0.45751-0.11096 0.35334 0.65429 0.30862 0.24077 0-0.26559-0.19826-0.38071-0.38372-0.19261-0.52975 0.33702-0.149 0.82195 8e-3 0.84266-0.57791-0.20078-0.12886 0.24605-0.48858-0.0722-0.3612 0.38995-0.19574 0.0551-0.55254 0.12038-0.72238-0.55507-0.20651 0.38235-0.56956 0.52967-0.8187-0.25602-0.12064-0.16932-0.44299-0.48152-0.21672-0.31481-0.0803-0.21326 0.27254-0.33707 0.19264-0.32235-0.0243 0.60897 0.43438 0 0.2408-0.34602-0.18688-0.0387 0.49437-0.40929 0.19263-0.0151-0.28133-0.0873-0.45452 0.14446-0.57791 0.0378-0.2785-0.15483 0.0951-0.0722-0.28896-0.19204 0.2271-0.78268 0.21685-0.48151-0.31302 0.21977-0.29453-0.0373-0.32564-0.0963-0.28896 0.0967-0.26592-0.59758-0.14601-0.2889 0.12038-0.0673 0.39823-0.386-0.46003-0.33706 0.0241-0.0813-0.17417-0.58778-0.78137-0.16855-0.38528-0.0305 0.35044 0.27136-0.30473 0-0.36118 0.29464-0.2211-0.2446 0.16843-0.31298-0.19264-0.25531 0.0784-0.24552 0.0106-0.26485 0.0482-0.43769-0.31092-0.15874 0.16543 0.0722 0.2167 0.14546 0.81052-0.61385-0.65708-0.77043-0.12038 0.15267-0.83328-1.0822 0.41177-0.84267-0.55382 0.0987-0.72407-0.6966 0.22171-0.89082 0.12038-0.22738-0.20653-0.11449 0.46355-0.38522 0.0962-0.19296-0.0231-0.44819-0.012-0.16853-0.2408-0.19118 0.0534-0.64909 0.11454-0.45743-0.26488-0.25851 0.14018-0.56862 0.26607-0.19261-0.0721 0.0135-0.0199 4e-3 -0.0177 0-0.024-0.0885 0.0168-0.3677 0.14318-0.40931-0.0481-0.54974-0.0588 0.414 0.19153-0.14445 0.19263-0.2171 0.15289-0.36155-0.0605-0.45744-0.26487z" color="#000000" fill="url(#l)"/><path transform="translate(12.26 52.687)" d="m359.25 172.94c0.30204 1.0724 0.50857 2.1657 0.75 3.25 20.515 30.325 28.28 73.533 20.281 122.12h10.5c6.4808-51.843-5.3044-96.828-31.531-125.38z" color="#000000" fill="url(#o)" filter="url(#z)"/></g></g></g></svg>
