<svg viewBox="0 0 5000 3513.3" xmlns="http://www.w3.org/2000/svg" xmlns:xlink="http://www.w3.org/1999/xlink"><defs><linearGradient id="d"><stop stop-color="#fff" offset="0"/><stop stop-color="#fff" stop-opacity="0" offset="1"/></linearGradient><linearGradient id="c"><stop offset="0"/><stop stop-color="#272727" offset="1"/><stop stop-color="#626262" offset="1"/></linearGradient><linearGradient id="b"><stop stop-color="#ccc" offset="0"/><stop stop-color="#989898" offset=".726"/><stop stop-color="#a9a9a9" offset="1"/></linearGradient><linearGradient id="a"><stop offset="0"/><stop stop-color="#fff" offset=".936"/><stop stop-color="#929292" offset=".968"/><stop stop-color="#838383" offset=".984"/><stop stop-color="#404040" offset="1"/></linearGradient><filter id="r" color-interpolation-filters="sRGB"><feGaussianBlur stdDeviation=".506"/></filter><filter id="x" color-interpolation-filters="sRGB"><feGaussianBlur stdDeviation=".982"/></filter><filter id="n" color-interpolation-filters="sRGB"><feGaussianBlur stdDeviation=".324"/></filter><filter id="u" color-interpolation-filters="sRGB"><feGaussianBlur stdDeviation=".262"/></filter><filter id="z" x="-.049" y="-.102" width="1.098" height="1.204" color-interpolation-filters="sRGB"><feGaussianBlur stdDeviation=".849"/></filter><filter id="A" color-interpolation-filters="sRGB"><feGaussianBlur stdDeviation="1.262"/></filter><filter id="C" color-interpolation-filters="sRGB"><feGaussianBlur stdDeviation="1.184"/></filter><linearGradient id="e" x1="86.029" x2="86.029" y1="372.45" y2="408.53" gradientTransform="matrix(.45346 -.1215 .57496 .33196 -173.2 126.21)" gradientUnits="userSpaceOnUse"><stop stop-color="#dec800" offset="0"/><stop stop-color="#b5a10a" offset=".386"/><stop stop-color="#a49a00" offset=".703"/><stop stop-color="#e7cd00" offset="1"/></linearGradient><linearGradient id="f" x1="180.29" x2="65.686" y1="242.81" y2="250.54" gradientUnits="userSpaceOnUse" xlink:href="#a" spreadMethod="reflect"/><radialGradient id="g" cx="-56.265" cy="871.33" r="28.986" gradientTransform="matrix(.92913 -.25159 .20297 .74959 -39.356 -433.32)" gradientUnits="userSpaceOnUse" xlink:href="#a"/><radialGradient id="h" cx="-55.662" cy="904.6" r="4.836" gradientTransform="matrix(.46946 0 0 .22668 105.76 40.5)" gradientUnits="userSpaceOnUse" xlink:href="#b"/><radialGradient id="i" cx="-63.44" cy="906.61" r="4.836" gradientTransform="matrix(.46946 0 0 .22668 105.76 40.988)" gradientUnits="userSpaceOnUse" xlink:href="#b"/><linearGradient id="j" x1="-60.498" x2="-50.826" y1="903.97" y2="903.97" gradientTransform="translate(105.76 -179.12) scale(.46946)" gradientUnits="userSpaceOnUse" xlink:href="#b"/><linearGradient id="k" x1="-68.276" x2="-58.604" y1="906.03" y2="906.03" gradientTransform="translate(105.76 -179.12) scale(.46946)" gradientUnits="userSpaceOnUse" xlink:href="#b"/><radialGradient id="l" cx="447.29" cy="121.69" r="44.789" gradientTransform="matrix(1.7447 .54702 -.45573 1.4535 -288.6 -306.83)" gradientUnits="userSpaceOnUse"><stop stop-color="#dec800" offset="0"/><stop stop-color="#b5a10a" offset=".57"/><stop stop-color="#a49a00" offset=".7"/><stop stop-color="#e7cd00" offset="1"/></radialGradient><radialGradient id="m" cx="512.92" cy="92.354" r="24.127" gradientTransform="matrix(1 0 0 1.7504 0 -69.303)" gradientUnits="userSpaceOnUse" xlink:href="#c"/><linearGradient id="o" x1="991.68" x2="1078.3" y1="487.27" y2="611.02" gradientTransform="matrix(.43617 0 0 .4316 154.91 -141.89)" gradientUnits="userSpaceOnUse" xlink:href="#c" spreadMethod="reflect"/><linearGradient id="p" x1="964.84" x2="1036.7" y1="305.49" y2="466.42" gradientTransform="matrix(.43617 0 0 .4316 154.91 -141.89)" gradientUnits="userSpaceOnUse"><stop stop-opacity="0" offset="0"/><stop stop-opacity="0" offset="1"/></linearGradient><radialGradient id="q" cx="905.31" cy="574.71" r="46.652" gradientTransform="matrix(.8061 .48137 -.62643 1.049 535.56 -463.96)" gradientUnits="userSpaceOnUse"><stop offset="0"/><stop offset=".824"/><stop stop-color="#272727" offset=".929"/><stop offset="1"/></radialGradient><linearGradient id="s" x1="788.83" x2="802.36" y1="597.5" y2="569.43" gradientTransform="matrix(.44032 0 0 .42536 140.21 -148.59)" gradientUnits="userSpaceOnUse"><stop offset="0"/><stop stop-color="#272727" offset=".18"/><stop stop-color="#333" offset="1"/></linearGradient><linearGradient id="t" x1="823.94" x2="813.47" y1="605.56" y2="598.14" gradientTransform="translate(-247.31 -183.87) scale(1.3027)" gradientUnits="userSpaceOnUse" xlink:href="#c"/><radialGradient id="v" cx="592.4" cy="657.92" r="9.232" gradientUnits="userSpaceOnUse" xlink:href="#b"/><radialGradient id="w" cx="544.3" cy="87.041" r="30.547" gradientTransform="matrix(1 0 0 1.1676 0 -14.591)" gradientUnits="userSpaceOnUse"><stop stop-opacity=".748" offset="0"/><stop stop-opacity=".365" offset="1"/></radialGradient><radialGradient id="y" cx="499.13" cy="128.22" r="8.851" gradientTransform="matrix(1 0 0 2.7887 0 -229.35)" gradientUnits="userSpaceOnUse" xlink:href="#d"/><radialGradient id="B" cx="468.46" cy="39.494" r="39.411" gradientTransform="matrix(.06394 -.12941 .58385 .26728 446.4 120.58)" gradientUnits="userSpaceOnUse" xlink:href="#c" spreadMethod="reflect"/><linearGradient id="D" x1="53.569" x2="60.657" y1="253.14" y2="249.15" gradientUnits="userSpaceOnUse" xlink:href="#d" spreadMethod="reflect"/></defs><path d="M210.43 204.65c-57.848 15.388-111.64 29.673-147.97 39.406 0 0 20.245 11.776 20.344 11.75 37.652-10.895 81.278-22.909 127.62-35.375V204.65z" color="#000" fill="url(#e)" stroke="#000" stroke-width=".349" transform="translate(-1486.653 -3151.1) scale(24.755)"/><path d="M66.397 242.12c-.515-.014-.986.02-1.375.125l-.063.031c-.005-.004.006-.027 0-.031l-3.937 1.063c-.097.026-.167.061-.25.093h-.031c-.697.288-.69.605-.688.938v11.312c0 1.62 2.674 4.872 5.063 5.844.916.372 2.064-.652 2.969-.25 1.339.594 1.555 2.533 2.656 3.5 1.627 1.429 5.656 3.25 5.656 3.25 2.807 1.62 5.031 1.62 5.031 0v-10.906s-.04-.562.063-.813c.07-.17.343-.406.343-.406l4.438-1.313c.097-.026.199-.061.281-.093.012-.004.02-.028.031-.032 1.197-.492.77-1.63-1.062-2.687l-5.219-3.031c.04-.003.087.006.125 0h.031l5.5-1.47a.602.602 0 0 0 .094-.03c.42-.174.27-.566-.375-.938l-5-2.875c-.649-.375-1.56-.594-2.125-.5h-.031l-5.5 1.469a.621.621 0 0 0-.094.031c-.018.007-.015.023-.031.031l-1.531-.875c-1.48-.854-3.423-1.396-4.97-1.437zm-2.313 11.281a1 1 0 0 1 .063 0 1 1 0 0 1 .031 0 1 1 0 0 1 .063 0 1 1 0 0 1 .031 0 1 1 0 0 1 .063 0 1 1 0 0 1 .03 0 1 1 0 0 1 .532.188 1 1 0 0 1 .094.062 1 1 0 0 1 0 .031 1 1 0 0 1 .062.063c.363.42.742.814 1.094 1.156s.688.633 1.031.906.663.506 1 .719c.683.433 1.36.76 2.031 1 .333.119.636.196.97.281.675.174 1.339.288 2.03.375a1 1 0 0 1 .094 0 1 1 0 0 1 .094.031 1 1 0 0 1 .094 0 1 1 0 0 1 .093.063 1 1 0 0 1 .532.437 1 1 0 0 1 0 .032 1 1 0 0 1 .093.25 1 1 0 0 1 0 .03 1 1 0 0 1-.03.376 1 1 0 0 1-.063.187 1 1 0 0 1-.032.094 1 1 0 0 1-.062.094 1 1 0 0 1-.125.156 1 1 0 0 1-.188.094 1 1 0 0 1-.156.093 1 1 0 0 1-.281.063 1 1 0 0 1-.031 0 1 1 0 0 1-.063 0 1 1 0 0 1-.219-.031 17.332 17.332 0 0 1-2.062-.375c-.064-.016-.123-.046-.188-.063-.009-.002-.021.003-.03 0-.387-.102-.764-.201-1.157-.344-1.57-.57-3.173-1.496-4.781-3.03a18.441 18.441 0 0 1-1.219-1.282 1 1 0 0 1-.063-.063 1 1 0 0 1-.03-.062 1 1 0 0 1-.032-.031 1 1 0 0 1 0-.031 1 1 0 0 1-.031-.063 1 1 0 0 1-.032-.062 1 1 0 0 1 0-.032 1 1 0 0 1-.03-.062 1 1 0 0 1 0-.031 1 1 0 0 1 0-.063 1 1 0 0 1-.032-.031 1 1 0 0 1 0-.063 1 1 0 0 1 0-.03 1 1 0 0 1 0-.094 1 1 0 0 1 0-.032 1 1 0 0 1 .031-.156 1 1 0 0 1 0-.031 1 1 0 0 1 .031-.063 1 1 0 0 1 0-.03 1 1 0 0 1 .032-.063 1 1 0 0 1 0-.032 1 1 0 0 1 .062-.062 1 1 0 0 1 0-.031 1 1 0 0 1 .063-.031 1 1 0 0 1 0-.032 1 1 0 0 1 .062-.062 1 1 0 0 1 0-.031 1 1 0 0 1 .063-.032 1 1 0 0 1 .093-.093 1 1 0 0 1 .032-.031 1 1 0 0 1 .093-.032 1 1 0 0 1 .032 0 1 1 0 0 1 .031-.03 1 1 0 0 1 .187-.063z" color="#000" fill="url(#f)" opacity=".181" transform="translate(-1486.653 -3151.1) scale(24.755)"/><g fill="none" stroke="#000" stroke-linecap="round" stroke-linejoin="round"><g stroke-width=".459"><path d="M184.81 347.36v5.177M181.14 347.36v5.177M192.13 347.36v5.177" transform="matrix(-21.244 5.69241 -14.23313 -8.21767 10773.756 4266.736)"/></g><path d="M195.79 338.35v14.189" stroke-width=".76" transform="matrix(-21.244 5.69241 -14.23313 -8.21767 10773.756 4266.736)"/><g stroke-width=".459"><path d="M190.3 347.36v5.177M193.96 347.36v5.177M182.98 347.36v5.177M188.47 347.36v5.177M179.31 347.36v5.177" transform="matrix(-21.244 5.69241 -14.23313 -8.21767 10773.756 4266.736)"/></g><path d="M186.64 343.8v8.734" stroke-width=".596" transform="matrix(-21.244 5.69241 -14.23313 -8.21767 10773.756 4266.736)"/><g stroke-width=".459"><path d="M184.81 347.36v5.177M181.14 347.36v5.177M192.13 347.36v5.177" transform="matrix(-21.244 5.69241 -14.23313 -8.21767 11157.953 4163.755)"/></g><path d="M195.79 338.35v14.189" stroke-width=".76" transform="matrix(-21.244 5.69241 -14.23313 -8.21767 11157.953 4163.755)"/><g stroke-width=".459"><path d="M190.3 347.36v5.177M193.96 347.36v5.177M182.98 347.36v5.177M188.47 347.36v5.177M179.31 347.36v5.177" transform="matrix(-21.244 5.69241 -14.23313 -8.21767 11157.953 4163.755)"/></g><path d="M186.64 343.8v8.734" stroke-width=".596" transform="matrix(-21.244 5.69241 -14.23313 -8.21767 11157.953 4163.755)"/><g><g stroke-width=".459"><path d="M184.81 347.36v5.177M181.14 347.36v5.177M192.13 347.36v5.177" transform="matrix(-21.244 5.69241 -14.23313 -8.21767 11926.596 3957.793)"/></g><path d="M195.79 338.35v14.189" stroke-width=".76" transform="matrix(-21.244 5.69241 -14.23313 -8.21767 11926.596 3957.793)"/><g stroke-width=".459"><path d="M190.3 347.36v5.177M193.96 347.36v5.177M182.98 347.36v5.177M188.47 347.36v5.177M179.31 347.36v5.177" transform="matrix(-21.244 5.69241 -14.23313 -8.21767 11926.596 3957.793)"/></g><path d="M186.64 343.8v8.734" stroke-width=".596" transform="matrix(-21.244 5.69241 -14.23313 -8.21767 11926.596 3957.793)"/></g><g><g stroke-width=".459"><path d="M184.81 347.36v5.177M181.14 347.36v5.177M192.13 347.36v5.177" transform="matrix(-21.244 5.69241 -14.23313 -8.21767 11542.399 4060.774)"/></g><path d="M195.79 338.35v14.189" stroke-width=".76" transform="matrix(-21.244 5.69241 -14.23313 -8.21767 11542.399 4060.774)"/><g stroke-width=".459"><path d="M190.3 347.36v5.177M193.96 347.36v5.177M182.98 347.36v5.177M188.47 347.36v5.177M179.31 347.36v5.177" transform="matrix(-21.244 5.69241 -14.23313 -8.21767 11542.399 4060.774)"/></g><path d="M186.64 343.8v8.734" stroke-width=".596" transform="matrix(-21.244 5.69241 -14.23313 -8.21767 11542.399 4060.774)"/></g><g><g stroke-width=".459"><path d="M184.81 347.36v5.177M181.14 347.36v5.177M192.13 347.36v5.177" transform="matrix(-21.244 5.69241 -14.23313 -8.21767 10005.113 4472.697)"/></g><path d="M195.79 338.35v14.189" stroke-width=".76" transform="matrix(-21.244 5.69241 -14.23313 -8.21767 10005.113 4472.697)"/><g stroke-width=".459"><path d="M190.3 347.36v5.177M193.96 347.36v5.177M182.98 347.36v5.177M188.47 347.36v5.177M179.31 347.36v5.177" transform="matrix(-21.244 5.69241 -14.23313 -8.21767 10005.113 4472.697)"/></g><path d="M186.64 343.8v8.734" stroke-width=".596" transform="matrix(-21.244 5.69241 -14.23313 -8.21767 10005.113 4472.697)"/></g><g><g stroke-width=".459"><path d="M184.81 347.36v5.177M181.14 347.36v5.177M192.13 347.36v5.177" transform="matrix(-21.244 5.69241 -14.23313 -8.21767 9620.915 4575.678)"/></g><path d="M195.79 338.35v14.189" stroke-width=".76" transform="matrix(-21.244 5.69241 -14.23313 -8.21767 9620.915 4575.678)"/><g stroke-width=".459"><path d="M190.3 347.36v5.177M193.96 347.36v5.177M182.98 347.36v5.177M188.47 347.36v5.177M179.31 347.36v5.177" transform="matrix(-21.244 5.69241 -14.23313 -8.21767 9620.915 4575.678)"/></g><path d="M186.64 343.8v8.734" stroke-width=".596" transform="matrix(-21.244 5.69241 -14.23313 -8.21767 9620.915 4575.678)"/></g><g><g stroke-width=".459"><path d="M184.81 347.36v5.177M181.14 347.36v5.177M192.13 347.36v5.177" transform="matrix(-21.244 5.69241 -14.23313 -8.21767 10389.558 4369.717)"/></g><path d="M195.79 338.35v14.189" stroke-width=".76" transform="matrix(-21.244 5.69241 -14.23313 -8.21767 10389.558 4369.717)"/><g stroke-width=".459"><path d="M190.3 347.36v5.177M193.96 347.36v5.177M182.98 347.36v5.177M188.47 347.36v5.177M179.31 347.36v5.177" transform="matrix(-21.244 5.69241 -14.23313 -8.21767 10389.558 4369.717)"/></g><path d="M186.64 343.8v8.734" stroke-width=".596" transform="matrix(-21.244 5.69241 -14.23313 -8.21767 10389.558 4369.717)"/></g><g><g stroke-width=".459"><path d="M184.81 347.36v5.177M181.14 347.36v5.177M192.13 347.36v5.177" transform="matrix(-21.244 5.69241 -14.23313 -8.21767 9232.014 4678.907)"/></g><path d="M195.79 338.35v14.189" stroke-width=".76" transform="matrix(-21.244 5.69241 -14.23313 -8.21767 9232.014 4678.907)"/><g stroke-width=".459"><path d="M190.3 347.36v5.177M193.96 347.36v5.177M182.98 347.36v5.177M188.47 347.36v5.177M179.31 347.36v5.177" transform="matrix(-21.244 5.69241 -14.23313 -8.21767 9232.014 4678.907)"/></g><path d="M186.64 343.8v8.734" stroke-width=".596" transform="matrix(-21.244 5.69241 -14.23313 -8.21767 9232.014 4678.907)"/></g></g><path d="M66.397 242.12c-.515-.014-.986.02-1.375.125l-.063.031c-.005-.004.006-.027 0-.031l-3.937 1.063c-.097.026-.167.061-.25.093h-.031c-.697.288-.69.605-.688.938v11.312c0 1.62 2.674 4.872 5.063 5.844.916.372 2.064-.652 2.969-.25 1.339.594 1.555 2.533 2.656 3.5 1.627 1.429 5.656 3.25 5.656 3.25 2.807 1.62 5.031 1.62 5.031 0v-10.906s-.04-.562.063-.813c.07-.17.343-.406.343-.406l4.438-1.313c.097-.026.199-.061.281-.093.012-.004.02-.028.031-.032 1.197-.492.77-1.63-1.062-2.687l-5.219-3.031c.04-.003.087.006.125 0h.031l5.5-1.47a.602.602 0 0 0 .094-.03c.42-.174.27-.566-.375-.938l-5-2.875c-.649-.375-1.56-.594-2.125-.5h-.031l-5.5 1.469a.621.621 0 0 0-.094.031c-.018.007-.015.023-.031.031l-1.531-.875c-1.48-.854-3.423-1.396-4.97-1.437zm-2.25 11.281a1 1 0 0 1 .906.344c2.902 3.362 5.428 4.093 8.156 4.437a1 1 0 1 1-.25 1.969c-2.954-.373-6.231-1.38-9.437-5.094a1 1 0 0 1 .625-1.656z" color="#000" fill="url(#g)" transform="translate(-1486.653 -3151.1) scale(24.755)"/><path d="M834.475 2979.228l-24.857 6.66-47.462-27.401c-4.78 4.917-12.3 9.622-22.563 14.115l-11.429-6.598a64.59 64.59 0 0 0 15.046-9.184c4.59-3.78 6.297-7.206 5.124-10.276l20.168-5.404 65.972 38.088M1192.333 2873.277l11.697 6.753-87.127 23.346c-3.48-2.806-4.831-5.98-4.058-9.52.745-3.559 4.803-9.091 12.176-16.598 5.916-6.056 9.2-9.966 9.854-11.733.82-2.416-.05-4.359-2.578-5.825-2.809-1.621-6.464-2.46-10.965-2.517-4.472-.1-9.333.569-14.58 1.975-5.19 1.391-8.527 2.954-10.01 4.69-1.482 1.735-.62 3.728 2.581 5.976l-26.022 5.911c-5.458-4.397-5.803-8.51-1.037-12.337 4.766-3.828 12.987-7.306 24.663-10.435 12.796-3.429 24.599-5.114 35.407-5.055 10.808.05 18.811 1.59 24.01 4.59 2.958 1.709 4.72 3.624 5.286 5.745.597 2.089.1 4.586-1.524 7.493-1.065 1.928-3.698 4.994-7.895 9.2-4.198 4.206-6.761 6.938-7.689 8.197-.869 1.243-1.384 2.367-1.547 3.37l49.357-13.226M1506.227 2784.406l22.58-7.3c3.874 1.59 8.313 2.406 13.318 2.456s9.895-.567 14.672-1.847c5.13-1.374 8.448-3.098 9.956-5.169 1.567-2.086.676-4.095-2.67-6.027-3.167-1.83-7.359-2.827-12.571-2.996-5.214-.174-10.239.393-15.074 1.69-3.184.855-6.674 2.055-10.47 3.601l-7.52-6.66c6.807-1.753 11.21-3.547 13.194-5.392 1.953-1.862 1.631-3.544-.968-5.045-2.21-1.277-5.272-1.945-9.18-2.01-3.91-.074-8.017.48-12.322 1.634-4.245 1.139-7.125 2.54-8.639 4.21-1.512 1.668-1.16 3.417 1.06 5.246l-24.881 5c-2.382-2.72-3.16-5.189-2.337-7.405.854-2.248 3.467-4.528 7.843-6.837 4.404-2.342 10.174-4.469 17.31-6.38 12.206-3.272 23.967-4.756 35.283-4.454 9.3.248 15.983 1.527 20.046 3.872 5.767 3.33 4.147 7.653-4.86 12.971 8.237-1.525 15.971-2.07 23.202-1.634 7.29.421 12.922 1.778 16.896 4.073 5.767 3.329 6.525 7.28 2.273 11.855-4.251 4.574-12.569 8.52-24.953 11.838-11.735 3.144-23.168 4.768-34.298 4.871-11.161.075-20.125-1.3-26.891-4.16M1938.696 2683.158l-13.22-7.633-53.073 14.221-11.025-6.366 14.532-39.164 20.875-5.594 41.68 24.064 16.1-4.313 11.069 6.39-16.099 4.315 13.221 7.633-24.06 6.447m-24.29-14.025l-22.454-12.963-7.356 20.95 29.81-7.987M2275.364 2578.692l23.468-7.386c3.546 1.448 7.895 2.19 13.048 2.225 5.122.017 9.954-.584 14.495-1.8 5.189-1.39 8.522-3.18 9.997-5.368 1.446-2.206.018-4.551-4.285-7.035-4.033-2.33-8.85-3.59-14.448-3.781-5.57-.223-11.215.428-16.935 1.96-7.136 1.912-11.936 4.55-14.4 7.912l-21.646 4.55-21.458-23.156 65.722-17.61 11.787 6.805-46.881 12.562 7.267 7.486c4.138-2.297 9.098-4.218 14.877-5.767 11.027-2.954 22.406-4.286 34.135-3.994 11.729.292 20.836 2.31 27.32 6.053 5.407 3.122 7.137 6.738 5.188 10.846-2.637 5.606-11.444 10.416-26.421 14.43-11.971 3.207-23.359 4.882-34.165 5.024-10.805.149-19.693-1.175-26.666-3.955M2711.052 2434.37l-22.714 7.224c-3.1-1.29-6.485-1.95-10.157-1.976-3.673-.024-7.484.49-11.435 1.548-5.248 1.406-8.504 3.29-9.77 5.648-1.209 2.345 1.497 5.825 8.112 10.442 2.487-3.798 8.33-6.93 17.53-9.395 10.378-2.78 21.255-4.003 32.63-3.666 11.433.319 20.317 2.31 26.65 5.966 6.723 3.881 8.224 8.038 4.503 12.47-3.72 4.432-11.684 8.283-23.89 11.554-13.092 3.508-26.424 4.908-39.995 4.2-13.601-.725-26.272-4.477-38.016-11.256-12.04-6.952-16.327-13.14-12.86-18.565s12.22-10.018 26.256-13.778c9.848-2.64 19.39-4.009 28.627-4.11 9.265-.124 17.441 1.097 24.529 3.694m-28.872 30.959c4.093 2.364 9.118 3.694 15.074 3.992 5.926.282 11.277-.223 16.054-1.498 4.6-1.232 7.521-2.785 8.765-4.66 1.243-1.873-.223-4.009-4.364-6.407-4.272-2.465-9.046-3.827-14.32-4.08-5.304-.27-10.433.257-15.387 1.584-4.776 1.28-7.86 2.914-9.25 4.903-1.42 1.97-.277 4.027 3.428 6.166M3007.865 2351.937l-11.697-6.754 85.003-22.777 9.143 5.279c-3.522 3.898-5.638 8.708-6.347 14.43-.71 5.72.708 11.225 4.255 16.513 3.576 5.255 8.292 9.548 14.147 12.879l-23.971 6.423c-8.671-5.355-14.247-11.69-16.73-19.006-2.423-7.331-1.517-14.709 2.718-22.133l-56.523 15.145M3431.423 2253.412c-7.803.928-14.373 1.099-19.712.507-5.309-.624-9.398-1.762-12.266-3.418-4.9-2.83-5.588-6.068-2.063-9.715 3.585-3.662 11.598-7.161 24.041-10.495 12.325-3.302 23.476-4.94 33.454-4.91 10.037.012 17.506 1.433 22.406 4.262 3.048 1.76 4.204 3.748 3.469 5.966-.765 2.2-3.35 4.421-7.757 6.662 8.658-1.081 16.25-1.31 22.773-.685 6.583.611 11.711 1.975 15.386 4.098 6.066 3.502 7.163 7.375 3.29 11.62-3.811 4.23-12.057 8.042-24.735 11.44-11.795 3.16-23.181 4.885-34.162 5.175-12.964.342-22.672-1.351-29.124-5.077-3.556-2.052-5.072-4.399-4.552-7.039.49-2.657 3.675-5.455 9.55-8.393m-7.552-8.698c2.51 1.449 5.851 2.209 10.028 2.275 4.235.05 8.682-.544 13.34-1.794 4.718-1.265 7.79-2.68 9.216-4.25 1.396-1.587.84-3.105-1.67-4.554-2.36-1.361-5.659-2.07-9.894-2.121-4.205-.074-8.608.487-13.207 1.72-4.777 1.28-7.863 2.713-9.26 4.3-1.396 1.587-.914 3.06 1.446 4.423m25.844 16.867c3.466 2 7.91 3.096 13.33 3.285a55.12 55.12 0 0 0 16.094-1.85c5.13-1.373 8.449-3.047 9.959-5.017 1.477-1.988.455-3.999-3.07-6.034-3.078-1.777-7.253-2.742-12.526-2.895-5.303-.173-10.578.448-15.826 1.854-6.074 1.63-9.554 3.457-10.44 5.487-.827 2.015-.001 3.739 2.479 5.17"/><g fill="none" stroke="#000" stroke-linecap="round" stroke-linejoin="round"><g stroke-width=".459"><path d="M184.81 347.36v5.177M181.14 347.36v5.177M192.13 347.36v5.177" transform="matrix(-21.244 5.69241 -14.23313 -8.21767 12311.041 3854.813)"/></g><path d="M195.79 338.35v14.189" stroke-width=".76" transform="matrix(-21.244 5.69241 -14.23313 -8.21767 12311.041 3854.813)"/><g stroke-width=".459"><path d="M190.3 347.36v5.177M193.96 347.36v5.177M182.98 347.36v5.177M188.47 347.36v5.177M179.31 347.36v5.177" transform="matrix(-21.244 5.69241 -14.23313 -8.21767 12311.041 3854.813)"/></g><path d="M186.64 343.8v8.734" stroke-width=".596" transform="matrix(-21.244 5.69241 -14.23313 -8.21767 12311.041 3854.813)"/></g><g color="#000"><path d="M81.039 245.18c.984.568 1.153 1.198.377 1.406-.777.208-2.204-.084-3.189-.653-.984-.568-1.153-1.197-.376-1.405.776-.208 2.204.084 3.188.652z" fill="url(#h)" transform="translate(-1486.653 -3151.1) scale(24.755)"/><path d="M77.387 246.12c.984.568 1.153 1.198.377 1.406s-2.204-.084-3.189-.653c-.984-.568-1.153-1.197-.376-1.405s2.204.084 3.188.652z" fill="url(#i)" transform="translate(-1486.653 -3151.1) scale(24.755)"/><path d="M81.039 244.88c.984.568 1.153 1.198.377 1.406-.777.208-2.204-.084-3.189-.653-.984-.568-1.153-1.197-.376-1.405s2.204.084 3.188.652z" fill="url(#j)" transform="translate(-1486.653 -3151.1) scale(24.755)"/><path d="M77.387 245.85c.984.568 1.153 1.198.377 1.406s-2.204-.084-3.189-.653c-.984-.568-1.153-1.197-.376-1.405.776-.208 2.204.084 3.188.652z" fill="url(#k)" transform="translate(-1486.653 -3151.1) scale(24.755)"/></g><g color="#000"><path transform="translate(-9505.788 -1394.064) scale(24.755)" d="M531.56 58.156c-7.177.166-14.711 2.224-21.406 8.031-10.903 13.836-17.307 22.393-15.844 42.406v21.125c0 2.94-2.568 6.947-.438 9.094 5.353 5.395 20.743 14.988 30.97 17.75 7.48 2.02 13.814-7.973 20.844-12.219.009-.006.022.006.03 0 7.813-.443 16.042-4.462 22.782-11.812l.062-.063a44.26 44.26 0 0 0 2.5-2.593c7.917-8.93 11.723-20.416 11.188-30.844.266-2.438.402-4.87.344-7.282-.143-5.961-3.107-11.946-7-16.437a27.165 27.165 0 0 0-1.656-1.72c-7.127-4.123-12.002-5.286-19.311-9.525-6.46-2.391-11.854-4.983-16.033-5.537a45.76 45.76 0 0 0-7.031-.375z" fill="url(#l)"/><path d="M535.56 50.903c-9.966.47-20.474 4.46-28.844 11.719-10.903 13.836-17.307 22.424-15.844 42.437v21.125c0 2.355-1.659 5.405-1.219 7.625h.719c-.44-2.22 1.219-5.27 1.219-7.625v-21.125c-1.463-20.013 4.94-28.601 15.844-42.437 8.369-7.259 18.878-11.249 28.844-11.719-.238.007-.48-.011-.719 0z" fill="url(#m)" filter="url(#n)" opacity=".504" transform="translate(-9196.35 -1139.46) scale(24.755)"/><path transform="translate(-9505.788 -1394.064) scale(24.755)" d="M508.28 67.094c-3.443 3.8-6.467 7.984-8.938 12.469-1.911 2.855-1.295 3.353 1.313 4.844 6.951 3.973 14.007 8.01 21.844 9.875 1.254.324 2.253.115 3.094-.375a45.344 45.344 0 0 1 5.969-8.563c13.213-14.904 32.75-17.02 43.656-4.719 10.906 12.301 9.057 34.346-4.157 49.25-10.629 11.99-25.374 15.691-36.406 10.281-.145-.013-.33-.017-.468-.03-8.114 3.43-8.87 9.871-17.875 9.437-7.863-1.7-15.828-5.495-20.406-11.906-1.602-2.243-1.272-7.832-1.625-8.125-1.455-1.209-2.495 5.705-2.157 8.312.638 2.056 3.07 3.446 4.688 4.781 8.599 6.157 17.858 11.605 28.062 14.656 5.969 1.394 10.689-3.626 14.78-7.093 2.727-1.975 5.037-5.462 8.688-5.47 15.316-2.114 27.126-14.914 31.875-28.905 2.824-9.592 6.016-19.915 3.407-29.906-1.452-4.708-4.717-8.285-8.188-11.438-7.753-7.041-17.344-12.174-27.188-15.75-4.003-1.454-5.586-2.405-12.59-2.185-7.004.221-18.72 1.95-27.379 10.56z" fill="url(#o)" stroke="url(#p)" stroke-width=".384"/><path transform="matrix(10.60777 0 0 10.24733 -5460.82 -4655.66)" d="M935.01 609.38c19.871-23.202 22.684-57.534 6.284-76.684-16.4-19.149-45.804-15.864-65.674 7.338-19.871 23.202-22.684 57.534-6.284 76.684 16.4 19.149 45.804 15.864 65.675-7.338z" fill="url(#q)" filter="url(#r)"/><path transform="matrix(9.43834 0 0 9.11776 -4402.297 -4006.583)" d="M935.01 609.38c19.871-23.202 22.684-57.534 6.284-76.684-16.4-19.149-45.804-15.864-65.674 7.338-19.871 23.202-22.684 57.534-6.284 76.684 16.4 19.149 45.804 15.864 65.675-7.338z" fill="none" filter="url(#r)"/><g><path d="M484.68 92.45a.812.812 0 0 0-.647.385c-1.34 2.23-1.77 4.446-3.11 6.673a.781.781 0 0 0-.11.293v.013c-.091.127-.09.384.042.731 1.34 3.521 1.77 3.84 3.11 7.364.14.37.387.742.646 1.01.156.161.322.286.468.346l15.466 8.666c.389.16.528-.192.303-.784-1.337-3.51-2.675-5.319-4.004-8.826a2.603 2.603 0 0 0-.055-.133.827.827 0 0 0 .123-.16c1.33-2.222 2.668-4.44 4.004-6.659a.777.777 0 0 0-.302-1.077l-15.466-7.736a.856.856 0 0 0-.468-.106z" fill="url(#s)" transform="translate(-9196.35 -1139.46) scale(24.755)"/><path transform="matrix(10.90012 0 0 10.52979 -5725.452 -4817.805)" d="M817.61 585.23s-6.533 11.225-9.782 16.848c-.102.177-.23.35-.366.489.057.133.113.272.163.407 3.393 9.266 10.217 22.87 10.217 22.87l1.78-.488.138-38.982z" fill="url(#t)" filter="url(#u)"/><path transform="matrix(21.46259 11.97028 -13.80908 23.10533 514.294 -21087.038)" d="M600.15 665.67c-2.623 2.623-1.9-3.568-5.4-2.343-3.502 1.225.924 5.614-2.762 5.199s1.605-3.71-1.535-5.684c-3.14-1.973-3.814 4.224-5.787 1.083-1.973-3.14 3.902-1.058 3.486-4.743-.415-3.686-5.68-.349-4.454-3.85 1.225-3.5 3.26 2.391 5.882-.231s-3.268-4.658.232-5.883c3.501-1.225.164 4.04 3.85 4.455s1.603-5.46 4.743-3.487-3.056 2.646-1.083 5.787c1.974 3.14 5.269-2.15 5.684 1.535.415 3.686-3.975-.74-5.2 2.761s4.966 2.779 2.344 5.401z" fill="url(#v)"/><path transform="matrix(26.0571 0 0 25.1709 -10039.951 -957.349)" d="M563.75 109.74c-13.011 15.192-32.263 17.343-43.002 4.804-10.738-12.539-8.896-35.018 4.115-50.21 13.01-15.192 32.263-17.343 43.002-4.804 10.738 12.539 8.896 35.018-4.115 50.21z" fill="url(#w)" filter="url(#x)"/><path transform="matrix(10.13965 -18.76033 17.56243 10.8313 -4181.73 9927.511)" d="M497.7 105.5l-3.156 5.438c-4.143 12.626-2.596 26.122 5.219 34.938a25.01 25.01 0 0 0 6.187 5.062 32.374 32.374 0 0 1-2.437-2.813c-1.06-.853-2.087-1.778-3.032-2.843-8.724-9.841-9.443-25.921-2.78-39.781z" fill="url(#y)" filter="url(#z)" style="block-progression:tb;text-indent:0;text-transform:none"/><path transform="translate(-9505.788 -1394.064) scale(24.755)" d="M555.44 67.875c-9.097 0-18.859 4.498-26.562 13.188-11.983 13.516-14.982 32.716-7.969 45.844-5.906-13.475-2.529-32.057 9.25-45.344 7.904-8.915 17.905-13.544 27.25-13.625a27.76 27.76 0 0 0-1.969-.062z" fill="#ececec" filter="url(#A)"/><path d="M519.55 49.384c-11.136.13-16.12 1.733-24.013 9.583a60.184 60.184 0 0 0-8.131 11.358c-1.743 2.603-1.208 3.049 1.17 4.408 6.337 3.623 12.802 7.313 19.947 9.013.328.085.645.13.936.141a46.091 46.091 0 0 1 6.873-10.285c7.877-8.884 17.968-13.267 27.201-12.856 2.132-1.298 4.036-1.12 2.566-2.321-6.242-4.68-18.517-8.865-26.55-9.042z" fill="url(#B)" filter="url(#C)" transform="translate(-9196.35 -1139.46) scale(24.755)"/></g></g><path d="M66.397 242.12c-.515-.014-.986.02-1.375.125l-.063.031c-.005-.004.006-.027 0-.031l-3.937 1.063c-.097.026-.167.061-.25.093h-.031c-.697.288-.69.605-.688.938v11.312c0 1.62 2.674 4.872 5.063 5.844.916.372 2.064-.652 2.969-.25 1.339.594 1.555 2.533 2.656 3.5 1.627 1.429 5.656 3.25 5.656 3.25 2.807 1.62 5.031 1.62 5.031 0v-10.906s-.04-.562.063-.813c.07-.17.343-.406.343-.406l4.438-1.313c.097-.026.199-.061.281-.093.012-.004.02-.028.031-.032 1.197-.492.77-1.63-1.062-2.687l-5.219-3.031c.04-.003.087.006.125 0h.031l5.5-1.47a.602.602 0 0 0 .094-.03c.42-.174.27-.566-.375-.938l-5-2.875c-.649-.375-1.56-.594-2.125-.5h-.031l-5.5 1.469a.621.621 0 0 0-.094.031c-.018.007-.015.023-.031.031l-1.531-.875c-1.48-.854-3.423-1.396-4.97-1.437zm-2.25 11.281a1 1 0 0 1 .906.344c2.902 3.362 5.428 4.093 8.156 4.437a1 1 0 1 1-.25 1.969c-2.954-.373-6.231-1.38-9.437-5.094a1 1 0 0 1 .625-1.656z" color="#000" fill="url(#D)" opacity=".423" transform="translate(-1486.653 -3151.1) scale(24.755)"/></svg>