<svg xmlns="http://www.w3.org/2000/svg" xmlns:xlink="http://www.w3.org/1999/xlink" width="256" height="256" enable-background="new"><defs><linearGradient id="a"><stop offset="0" stop-color="#83807a"/><stop offset=".174" stop-color="#e0dcd7"/><stop offset=".5" stop-color="#b2b0ac"/><stop offset="1" stop-color="#87847f"/></linearGradient><linearGradient xlink:href="#a" id="z" gradientUnits="userSpaceOnUse" gradientTransform="matrix(1.4827 0 0 1.4827 -422.666 894.444)" x1="366" y1="93.862" x2="379" y2="93.862"/><linearGradient xlink:href="#a" id="C" gradientUnits="userSpaceOnUse" gradientTransform="matrix(1.4827 0 0 1.4827 -422.666 894.444)" x1="365.667" y1="22.362" x2="379" y2="22.362"/><radialGradient xlink:href="#a" id="E" gradientUnits="userSpaceOnUse" gradientTransform="matrix(1.2 0 0 8.4 -314.196 1137.187)" cx="374.459" cy="-37.777" fx="374.459" fy="-37.777" r="12.5"/><linearGradient xlink:href="#a" id="F" gradientUnits="userSpaceOnUse" gradientTransform="matrix(1.4827 0 0 1.4827 -422.666 894.444)" x1="371.537" y1="-47.638" x2="373.717" y2="-47.638"/><linearGradient xlink:href="#a" id="G" gradientUnits="userSpaceOnUse" gradientTransform="matrix(1.4827 0 0 1.4827 -422.666 894.444)" x1="359.36" y1="-47.638" x2="366.104" y2="-47.638"/><radialGradient xlink:href="#a" id="D" cx="132.985" cy="1017.982" fx="132.985" fy="1017.982" r="18.534" gradientTransform="matrix(0 -1.3489 .80934 0 -688.737 1199.243)" gradientUnits="userSpaceOnUse" spreadMethod="pad"/><linearGradient xlink:href="#a" id="B" gradientUnits="userSpaceOnUse" gradientTransform="matrix(1.4827 0 0 1.4827 -422.666 894.444)" x1="352.615" y1="20.513" x2="366" y2="21.523"/><linearGradient xlink:href="#a" id="y" gradientUnits="userSpaceOnUse" gradientTransform="matrix(1.4827 0 0 1.4827 -422.666 894.444)" x1="352.615" y1="92.862" x2="366" y2="92.862"/><linearGradient xlink:href="#a" id="A" gradientUnits="userSpaceOnUse" gradientTransform="matrix(1.4827 0 0 1.4827 -422.666 894.444)" x1="379" y1="21.523" x2="386.338" y2="21.523"/><linearGradient xlink:href="#a" id="x" gradientUnits="userSpaceOnUse" gradientTransform="matrix(1.4827 0 0 1.4827 -422.666 894.444)" x1="379" y1="92.862" x2="386.338" y2="92.862"/><linearGradient xlink:href="#b" id="H" gradientUnits="userSpaceOnUse" x1="173.205" y1="432.362" x2="103.923" y2="432.362"/><linearGradient id="b"><stop offset="0" stop-color="#666"/><stop offset=".411" stop-color="#7c7c7c"/><stop offset=".75" stop-color="#efefef"/><stop offset=".843" stop-color="#a9a9a9"/><stop offset="1" stop-color="#5f5f5f"/></linearGradient><linearGradient xlink:href="#c" id="I" x1="100.903" y1="443.071" x2="175.893" y2="443.071" gradientUnits="userSpaceOnUse"/><linearGradient id="c"><stop offset="0" stop-color="#fff"/><stop offset="1" stop-color="#fff" stop-opacity="0"/></linearGradient><linearGradient xlink:href="#d" id="J" gradientUnits="userSpaceOnUse" gradientTransform="matrix(1 0 0 .9214 0 36.69)" x1="47.635" y1="309.857" x2="225.167" y2="309.857"/><linearGradient id="d"><stop offset="0" stop-color="#b3b3b3"/><stop offset="1" stop-color="#595959"/></linearGradient><radialGradient xlink:href="#e" id="K" gradientUnits="userSpaceOnUse" gradientTransform="matrix(1 0 0 .90248 0 -28.672)" cx="51.962" cy="-294" fx="51.962" fy="-294" r="87.178"/><linearGradient id="e"><stop offset="0" stop-color="#fff"/><stop offset=".314" stop-color="#f4f4f4"/><stop offset="1" stop-color="#d9d9d9"/></linearGradient><linearGradient xlink:href="#e" id="L" gradientUnits="userSpaceOnUse" x1="82.272" y1="351.058" x2="190.526" y2="351.058"/><filter color-interpolation-filters="sRGB" id="M"><feGaussianBlur stdDeviation=".462"/></filter><radialGradient xlink:href="#f" id="N" gradientUnits="userSpaceOnUse" gradientTransform="matrix(1 0 0 2.45455 0 -1083.436)" cx="-97.5" cy="744.862" fx="-97.5" fy="744.862" r="27.5"/><linearGradient id="f"><stop offset="0" stop-color="#dcdcdc"/><stop offset="1" stop-color="#8c8c8c"/></linearGradient><radialGradient xlink:href="#g" id="O" gradientUnits="userSpaceOnUse" gradientTransform="matrix(4 0 0 2.45455 152.246 -1083.436)" spreadMethod="reflect" cx="-28.467" cy="743.428" fx="-28.467" fy="743.428" r="27.5"/><linearGradient id="g"><stop offset="0" stop-color="#333"/><stop offset=".329" stop-color="#fff"/><stop offset=".546" stop-color="#cecece"/><stop offset="1" stop-color="#333"/></linearGradient><linearGradient xlink:href="#h" id="P" gradientUnits="userSpaceOnUse" gradientTransform="matrix(1.1645 0 0 1.16158 161.512 -285.512)" x1="29.102" y1="598.052" x2="159.419" y2="598.052"/><linearGradient id="h"><stop offset="0" stop-color="#333"/><stop offset=".444" stop-color="#fff"/><stop offset=".778" stop-color="#cecece"/><stop offset="1" stop-color="#333"/></linearGradient><linearGradient xlink:href="#i" id="Q" gradientUnits="userSpaceOnUse" gradientTransform="matrix(1.17008 0 0 1.16158 160.957 -285.512)" x1="68.739" y1="588.155" x2="186.645" y2="588.155"/><linearGradient id="i"><stop offset="0" stop-color="#333"/><stop offset=".417" stop-color="#fff"/><stop offset=".5" stop-color="#cecece"/><stop offset="1" stop-color="#333"/></linearGradient><linearGradient xlink:href="#g" id="R" gradientUnits="userSpaceOnUse" gradientTransform="matrix(1.1645 0 0 1.16158 161.512 -285.512)" x1="125.942" y1="598.612" x2="190" y2="598.612"/><linearGradient xlink:href="#g" id="S" gradientUnits="userSpaceOnUse" gradientTransform="matrix(1.02493 0 0 1.02493 10.943 7.784)" x1="243.46" y1="662.305" x2="308.836" y2="662.305"/><linearGradient xlink:href="#g" id="T" gradientUnits="userSpaceOnUse" gradientTransform="matrix(1.02493 0 0 1.02493 10.943 7.784)" x1="243.46" y1="662.305" x2="308.836" y2="662.305"/><linearGradient xlink:href="#f" id="V" gradientUnits="userSpaceOnUse" gradientTransform="matrix(1 0 0 1.00361 0 -4.714)" x1="238.317" y1="751.72" x2="315.303" y2="751.72"/><linearGradient xlink:href="#g" id="W" gradientUnits="userSpaceOnUse" x1="238.007" y1="749.655" x2="315.553" y2="749.655"/><linearGradient xlink:href="#f" id="X" gradientUnits="userSpaceOnUse" gradientTransform="matrix(1 0 0 1.00361 0 -4.714)" x1="238.317" y1="751.72" x2="315.303" y2="751.72"/><linearGradient xlink:href="#g" id="Y" gradientUnits="userSpaceOnUse" x1="238.007" y1="749.655" x2="315.553" y2="749.655"/><linearGradient xlink:href="#f" id="Z" gradientUnits="userSpaceOnUse" gradientTransform="matrix(1 0 0 1.00361 0 -4.714)" x1="238.317" y1="751.72" x2="315.303" y2="751.72"/><linearGradient xlink:href="#g" id="aa" gradientUnits="userSpaceOnUse" x1="238.007" y1="749.655" x2="315.553" y2="749.655"/><linearGradient xlink:href="#f" id="ab" gradientUnits="userSpaceOnUse" gradientTransform="matrix(1 0 0 1.00361 0 -4.714)" x1="238.317" y1="751.72" x2="315.303" y2="751.72"/><linearGradient xlink:href="#g" id="ac" gradientUnits="userSpaceOnUse" x1="238.007" y1="749.655" x2="315.553" y2="749.655"/><linearGradient xlink:href="#f" id="ad" gradientUnits="userSpaceOnUse" gradientTransform="matrix(1 0 0 1.00361 0 -4.714)" x1="238.317" y1="751.72" x2="315.303" y2="751.72"/><linearGradient xlink:href="#g" id="ae" gradientUnits="userSpaceOnUse" x1="238.007" y1="749.655" x2="315.553" y2="749.655"/><linearGradient xlink:href="#f" id="af" gradientUnits="userSpaceOnUse" gradientTransform="matrix(1 0 0 1.00361 0 -4.714)" x1="238.317" y1="751.72" x2="315.303" y2="751.72"/><linearGradient xlink:href="#g" id="ag" gradientUnits="userSpaceOnUse" x1="238.007" y1="749.655" x2="315.553" y2="749.655"/><linearGradient xlink:href="#f" id="ah" gradientUnits="userSpaceOnUse" gradientTransform="matrix(1 0 0 1.00361 0 -4.714)" x1="238.317" y1="751.72" x2="315.303" y2="751.72"/><linearGradient xlink:href="#g" id="ai" gradientUnits="userSpaceOnUse" x1="238.007" y1="749.655" x2="315.553" y2="749.655"/><linearGradient xlink:href="#f" id="aj" gradientUnits="userSpaceOnUse" gradientTransform="matrix(1 0 0 1.00361 0 -4.714)" x1="238.317" y1="751.72" x2="315.303" y2="751.72"/><linearGradient xlink:href="#g" id="ak" gradientUnits="userSpaceOnUse" x1="238.007" y1="749.655" x2="315.553" y2="749.655"/><linearGradient xlink:href="#f" id="al" gradientUnits="userSpaceOnUse" gradientTransform="matrix(1 0 0 1.00361 0 -4.714)" x1="238.317" y1="751.72" x2="315.303" y2="751.72"/><linearGradient xlink:href="#g" id="am" gradientUnits="userSpaceOnUse" x1="238.007" y1="749.655" x2="315.553" y2="749.655"/><linearGradient xlink:href="#f" id="an" gradientUnits="userSpaceOnUse" gradientTransform="matrix(1 0 0 1.00361 0 -4.714)" x1="238.317" y1="751.72" x2="315.303" y2="751.72"/><linearGradient xlink:href="#g" id="ao" gradientUnits="userSpaceOnUse" x1="238.007" y1="749.655" x2="315.553" y2="749.655"/><linearGradient xlink:href="#f" id="ap" gradientUnits="userSpaceOnUse" gradientTransform="matrix(1 0 0 1.00361 0 -4.714)" x1="238.317" y1="751.72" x2="315.303" y2="751.72"/><linearGradient xlink:href="#g" id="aq" gradientUnits="userSpaceOnUse" x1="238.007" y1="749.655" x2="315.553" y2="749.655"/><linearGradient xlink:href="#f" id="ar" gradientUnits="userSpaceOnUse" gradientTransform="matrix(1 0 0 1.00361 0 -4.714)" x1="238.317" y1="751.72" x2="315.303" y2="751.72"/><linearGradient xlink:href="#g" id="as" gradientUnits="userSpaceOnUse" x1="238.007" y1="749.655" x2="315.553" y2="749.655"/><linearGradient xlink:href="#f" id="at" gradientUnits="userSpaceOnUse" gradientTransform="matrix(1 0 0 1.00361 0 -4.714)" x1="238.317" y1="751.72" x2="315.303" y2="751.72"/><linearGradient xlink:href="#g" id="au" gradientUnits="userSpaceOnUse" x1="238.007" y1="749.655" x2="315.553" y2="749.655"/><linearGradient xlink:href="#f" id="av" gradientUnits="userSpaceOnUse" gradientTransform="matrix(1 0 0 1.00361 0 -4.714)" x1="238.317" y1="751.72" x2="315.303" y2="751.72"/><linearGradient xlink:href="#g" id="aw" gradientUnits="userSpaceOnUse" x1="238.007" y1="749.655" x2="315.553" y2="749.655"/><linearGradient xlink:href="#f" id="ax" gradientUnits="userSpaceOnUse" gradientTransform="matrix(1 0 0 1.00361 0 -4.714)" x1="238.317" y1="751.72" x2="315.303" y2="751.72"/><linearGradient xlink:href="#g" id="ay" gradientUnits="userSpaceOnUse" x1="238.007" y1="749.655" x2="315.553" y2="749.655"/><linearGradient xlink:href="#f" id="az" gradientUnits="userSpaceOnUse" gradientTransform="matrix(1 0 0 1.00361 0 -4.714)" x1="238.317" y1="751.72" x2="315.303" y2="751.72"/><linearGradient xlink:href="#g" id="aA" gradientUnits="userSpaceOnUse" x1="238.007" y1="749.655" x2="315.553" y2="749.655"/><linearGradient xlink:href="#f" id="aB" gradientUnits="userSpaceOnUse" gradientTransform="matrix(1 0 0 1.00361 0 -4.714)" x1="238.317" y1="751.72" x2="315.303" y2="751.72"/><linearGradient xlink:href="#g" id="aC" gradientUnits="userSpaceOnUse" x1="238.007" y1="749.655" x2="315.553" y2="749.655"/><linearGradient xlink:href="#f" id="aD" gradientUnits="userSpaceOnUse" gradientTransform="matrix(1 0 0 1.00361 0 -4.714)" x1="238.317" y1="751.72" x2="315.303" y2="751.72"/><linearGradient xlink:href="#g" id="aE" gradientUnits="userSpaceOnUse" x1="238.007" y1="749.655" x2="315.553" y2="749.655"/><linearGradient xlink:href="#f" id="aF" gradientUnits="userSpaceOnUse" gradientTransform="matrix(1 0 0 1.00361 0 -4.714)" x1="238.317" y1="751.72" x2="315.303" y2="751.72"/><linearGradient xlink:href="#g" id="aG" gradientUnits="userSpaceOnUse" x1="238.007" y1="749.655" x2="315.553" y2="749.655"/><linearGradient xlink:href="#f" id="aH" gradientUnits="userSpaceOnUse" gradientTransform="matrix(1 0 0 1.00361 0 -4.714)" x1="238.317" y1="751.72" x2="315.303" y2="751.72"/><linearGradient xlink:href="#g" id="aI" gradientUnits="userSpaceOnUse" x1="238.007" y1="749.655" x2="315.553" y2="749.655"/><linearGradient xlink:href="#f" id="aJ" gradientUnits="userSpaceOnUse" gradientTransform="matrix(1 0 0 1.00361 0 -4.714)" x1="238.317" y1="751.72" x2="315.303" y2="751.72"/><linearGradient xlink:href="#g" id="aK" gradientUnits="userSpaceOnUse" x1="238.007" y1="749.655" x2="315.553" y2="749.655"/><linearGradient xlink:href="#f" id="aL" gradientUnits="userSpaceOnUse" gradientTransform="matrix(1 0 0 1.00361 0 -4.714)" x1="238.317" y1="751.72" x2="315.303" y2="751.72"/><linearGradient xlink:href="#g" id="aM" gradientUnits="userSpaceOnUse" x1="238.007" y1="749.655" x2="315.553" y2="749.655"/><linearGradient xlink:href="#f" id="aN" gradientUnits="userSpaceOnUse" gradientTransform="matrix(1 0 0 1.00361 0 -4.714)" x1="238.317" y1="751.72" x2="315.303" y2="751.72"/><linearGradient xlink:href="#g" id="aO" gradientUnits="userSpaceOnUse" x1="238.007" y1="749.655" x2="315.553" y2="749.655"/><linearGradient xlink:href="#f" id="aP" gradientUnits="userSpaceOnUse" gradientTransform="matrix(1 0 0 1.00361 0 -4.714)" x1="238.317" y1="751.72" x2="315.303" y2="751.72"/><linearGradient xlink:href="#g" id="aQ" gradientUnits="userSpaceOnUse" x1="238.007" y1="749.655" x2="315.553" y2="749.655"/><linearGradient xlink:href="#f" id="aR" gradientUnits="userSpaceOnUse" gradientTransform="matrix(1 0 0 1.00361 0 -4.714)" x1="238.317" y1="751.72" x2="315.303" y2="751.72"/><linearGradient xlink:href="#g" id="aS" gradientUnits="userSpaceOnUse" x1="238.007" y1="749.655" x2="315.553" y2="749.655"/><linearGradient xlink:href="#f" id="aT" gradientUnits="userSpaceOnUse" gradientTransform="matrix(1 0 0 1.00361 0 -4.714)" x1="238.317" y1="751.72" x2="315.303" y2="751.72"/><linearGradient xlink:href="#g" id="aU" gradientUnits="userSpaceOnUse" x1="238.007" y1="749.655" x2="315.553" y2="749.655"/><linearGradient xlink:href="#f" id="aV" gradientUnits="userSpaceOnUse" gradientTransform="matrix(1 0 0 1.00361 0 -4.714)" x1="238.317" y1="751.72" x2="315.303" y2="751.72"/><linearGradient xlink:href="#g" id="aW" gradientUnits="userSpaceOnUse" x1="238.007" y1="749.655" x2="315.553" y2="749.655"/><linearGradient xlink:href="#f" id="aX" gradientUnits="userSpaceOnUse" gradientTransform="matrix(1 0 0 1.00361 0 -4.714)" x1="238.317" y1="751.72" x2="315.303" y2="751.72"/><linearGradient xlink:href="#g" id="aY" gradientUnits="userSpaceOnUse" x1="238.007" y1="749.655" x2="315.553" y2="749.655"/><linearGradient xlink:href="#f" id="aZ" gradientUnits="userSpaceOnUse" gradientTransform="matrix(1 0 0 1.00361 0 -4.714)" x1="238.317" y1="751.72" x2="315.303" y2="751.72"/><linearGradient xlink:href="#g" id="ba" gradientUnits="userSpaceOnUse" x1="238.007" y1="749.655" x2="315.553" y2="749.655"/><linearGradient xlink:href="#f" id="bb" gradientUnits="userSpaceOnUse" gradientTransform="matrix(1 0 0 1.00361 0 -4.714)" x1="238.317" y1="751.72" x2="315.303" y2="751.72"/><linearGradient xlink:href="#g" id="bc" gradientUnits="userSpaceOnUse" x1="238.007" y1="749.655" x2="315.553" y2="749.655"/><linearGradient xlink:href="#f" id="bd" gradientUnits="userSpaceOnUse" gradientTransform="matrix(1 0 0 1.00361 0 -4.714)" x1="238.317" y1="751.72" x2="315.303" y2="751.72"/><linearGradient xlink:href="#g" id="be" gradientUnits="userSpaceOnUse" x1="238.007" y1="749.655" x2="315.553" y2="749.655"/><linearGradient xlink:href="#f" id="bf" gradientUnits="userSpaceOnUse" gradientTransform="matrix(1 0 0 1.00361 0 -4.714)" x1="238.317" y1="751.72" x2="315.303" y2="751.72"/><linearGradient xlink:href="#g" id="bg" gradientUnits="userSpaceOnUse" x1="238.007" y1="749.655" x2="315.553" y2="749.655"/><linearGradient xlink:href="#f" id="bh" gradientUnits="userSpaceOnUse" gradientTransform="matrix(1 0 0 1.00361 0 -4.714)" x1="238.317" y1="751.72" x2="315.303" y2="751.72"/><linearGradient xlink:href="#g" id="bi" gradientUnits="userSpaceOnUse" x1="238.007" y1="749.655" x2="315.553" y2="749.655"/><linearGradient xlink:href="#f" id="bj" gradientUnits="userSpaceOnUse" gradientTransform="matrix(1 0 0 1.00361 0 -4.714)" x1="238.317" y1="751.72" x2="315.303" y2="751.72"/><linearGradient xlink:href="#g" id="bk" gradientUnits="userSpaceOnUse" x1="238.007" y1="749.655" x2="315.553" y2="749.655"/><linearGradient xlink:href="#f" id="bl" gradientUnits="userSpaceOnUse" gradientTransform="matrix(1 0 0 1.00361 0 -4.714)" x1="238.317" y1="751.72" x2="315.303" y2="751.72"/><linearGradient xlink:href="#g" id="bm" gradientUnits="userSpaceOnUse" x1="238.007" y1="749.655" x2="315.553" y2="749.655"/><linearGradient xlink:href="#f" id="bn" gradientUnits="userSpaceOnUse" gradientTransform="matrix(1 0 0 1.00361 0 -4.714)" x1="238.317" y1="751.72" x2="315.303" y2="751.72"/><linearGradient xlink:href="#g" id="bo" gradientUnits="userSpaceOnUse" x1="238.007" y1="749.655" x2="315.553" y2="749.655"/><linearGradient xlink:href="#f" id="bp" gradientUnits="userSpaceOnUse" gradientTransform="matrix(1 0 0 1.00361 0 -4.714)" x1="238.317" y1="751.72" x2="315.303" y2="751.72"/><linearGradient xlink:href="#g" id="bq" gradientUnits="userSpaceOnUse" x1="238.007" y1="749.655" x2="315.553" y2="749.655"/><linearGradient xlink:href="#f" id="br" gradientUnits="userSpaceOnUse" gradientTransform="matrix(1 0 0 1.00361 0 -4.714)" x1="238.317" y1="751.72" x2="315.303" y2="751.72"/><linearGradient xlink:href="#g" id="bs" gradientUnits="userSpaceOnUse" x1="238.007" y1="749.655" x2="315.553" y2="749.655"/><linearGradient xlink:href="#f" id="bt" gradientUnits="userSpaceOnUse" gradientTransform="matrix(1 0 0 1.00361 0 -4.714)" x1="238.317" y1="751.72" x2="315.303" y2="751.72"/><linearGradient xlink:href="#g" id="bu" gradientUnits="userSpaceOnUse" x1="238.007" y1="749.655" x2="315.553" y2="749.655"/><linearGradient xlink:href="#f" id="bv" gradientUnits="userSpaceOnUse" gradientTransform="matrix(1 0 0 1.00361 0 -4.714)" x1="238.317" y1="751.72" x2="315.303" y2="751.72"/><linearGradient xlink:href="#g" id="bw" gradientUnits="userSpaceOnUse" x1="238.007" y1="749.655" x2="315.553" y2="749.655"/><linearGradient xlink:href="#f" id="bx" gradientUnits="userSpaceOnUse" gradientTransform="matrix(1 0 0 1.00361 0 -4.714)" x1="238.317" y1="751.72" x2="315.303" y2="751.72"/><linearGradient xlink:href="#g" id="by" gradientUnits="userSpaceOnUse" x1="238.007" y1="749.655" x2="315.553" y2="749.655"/><linearGradient xlink:href="#f" id="bz" gradientUnits="userSpaceOnUse" gradientTransform="matrix(1 0 0 1.00361 0 -4.714)" x1="238.317" y1="751.72" x2="315.303" y2="751.72"/><linearGradient xlink:href="#g" id="bA" gradientUnits="userSpaceOnUse" x1="238.007" y1="749.655" x2="315.553" y2="749.655"/><linearGradient xlink:href="#f" id="bB" gradientUnits="userSpaceOnUse" gradientTransform="matrix(1 0 0 1.00361 0 -4.714)" x1="238.317" y1="751.72" x2="315.303" y2="751.72"/><linearGradient xlink:href="#g" id="bC" gradientUnits="userSpaceOnUse" x1="238.007" y1="749.655" x2="315.553" y2="749.655"/><linearGradient xlink:href="#f" id="bD" gradientUnits="userSpaceOnUse" gradientTransform="matrix(1 0 0 1.00361 0 -4.714)" x1="238.317" y1="751.72" x2="315.303" y2="751.72"/><linearGradient xlink:href="#g" id="bE" gradientUnits="userSpaceOnUse" x1="238.007" y1="749.655" x2="315.553" y2="749.655"/><linearGradient xlink:href="#f" id="bF" gradientUnits="userSpaceOnUse" gradientTransform="matrix(1 0 0 1.00361 0 -4.714)" x1="238.317" y1="751.72" x2="315.303" y2="751.72"/><linearGradient xlink:href="#g" id="bG" gradientUnits="userSpaceOnUse" x1="238.007" y1="749.655" x2="315.553" y2="749.655"/><linearGradient xlink:href="#f" id="bH" gradientUnits="userSpaceOnUse" gradientTransform="matrix(1 0 0 1.00361 0 -4.714)" x1="238.317" y1="751.72" x2="315.303" y2="751.72"/><linearGradient xlink:href="#g" id="bI" gradientUnits="userSpaceOnUse" x1="238.007" y1="749.655" x2="315.553" y2="749.655"/><linearGradient xlink:href="#f" id="bJ" gradientUnits="userSpaceOnUse" gradientTransform="matrix(1 0 0 1.00361 0 -4.714)" x1="238.317" y1="751.72" x2="315.303" y2="751.72"/><linearGradient xlink:href="#g" id="bK" gradientUnits="userSpaceOnUse" x1="238.007" y1="749.655" x2="315.553" y2="749.655"/><linearGradient xlink:href="#f" id="bL" gradientUnits="userSpaceOnUse" gradientTransform="matrix(1 0 0 1.00361 0 -4.714)" x1="238.317" y1="751.72" x2="315.303" y2="751.72"/><linearGradient xlink:href="#g" id="bM" gradientUnits="userSpaceOnUse" x1="238.007" y1="749.655" x2="315.553" y2="749.655"/><linearGradient xlink:href="#f" id="bN" gradientUnits="userSpaceOnUse" gradientTransform="matrix(1 0 0 1.00361 0 -4.714)" x1="238.317" y1="751.72" x2="315.303" y2="751.72"/><linearGradient xlink:href="#g" id="bO" gradientUnits="userSpaceOnUse" x1="238.007" y1="749.655" x2="315.553" y2="749.655"/><linearGradient xlink:href="#f" id="bP" gradientUnits="userSpaceOnUse" gradientTransform="matrix(1 0 0 1.00361 0 -4.714)" x1="238.317" y1="751.72" x2="315.303" y2="751.72"/><linearGradient xlink:href="#g" id="bQ" gradientUnits="userSpaceOnUse" x1="238.007" y1="749.655" x2="315.553" y2="749.655"/><linearGradient xlink:href="#f" id="bR" gradientUnits="userSpaceOnUse" gradientTransform="matrix(1 0 0 1.00361 0 -4.714)" x1="238.317" y1="751.72" x2="315.303" y2="751.72"/><linearGradient xlink:href="#g" id="bS" gradientUnits="userSpaceOnUse" x1="238.007" y1="749.655" x2="315.553" y2="749.655"/><linearGradient xlink:href="#f" id="bT" gradientUnits="userSpaceOnUse" gradientTransform="matrix(1 0 0 1.00361 0 -4.714)" x1="238.317" y1="751.72" x2="315.303" y2="751.72"/><linearGradient xlink:href="#g" id="bU" gradientUnits="userSpaceOnUse" x1="238.007" y1="749.655" x2="315.553" y2="749.655"/><linearGradient y2="749.655" x2="315.553" y1="749.655" x1="238.007" gradientUnits="userSpaceOnUse" id="U" xlink:href="#g"/><linearGradient id="j"><stop offset="0" stop-color="#333"/><stop offset=".306" stop-color="#afafaf"/><stop offset=".654" stop-color="#fff"/><stop offset=".788" stop-color="#b1b1b1"/><stop offset="1" stop-color="#818181"/></linearGradient><linearGradient id="k"><stop offset="0" stop-color="#333"/><stop offset=".25" stop-color="#afafaf"/><stop offset=".375" stop-color="#fff"/><stop offset=".5" stop-color="#b1b1b1"/><stop offset="1" stop-color="#818181"/></linearGradient><linearGradient id="l"><stop offset="0" stop-color="#7e7e7e"/><stop offset=".288" stop-color="#b4b4b4"/><stop offset=".412" stop-color="#fff"/><stop offset=".83" stop-color="#909090"/><stop offset="1" stop-color="#666"/></linearGradient><linearGradient id="m"><stop offset="0" stop-color="#333"/><stop offset="0" stop-color="#afafaf"/><stop offset=".488" stop-color="#fff"/><stop offset=".775" stop-color="#b1b1b1"/><stop offset="1" stop-color="#818181"/></linearGradient><linearGradient id="n"><stop offset="0" stop-color="#999"/><stop offset=".25" stop-color="#737373"/><stop offset=".375" stop-color="#fff"/><stop offset=".5" stop-color="#686868"/><stop offset="1" stop-color="#333"/></linearGradient><linearGradient id="o"><stop offset="0" stop-color="#333"/><stop offset=".263" stop-color="#afafaf"/><stop offset=".375" stop-color="#fff"/><stop offset=".478" stop-color="#b1b1b1"/><stop offset="1" stop-color="#818181"/></linearGradient><linearGradient id="p"><stop offset="0" stop-color="#333"/><stop offset=".434" stop-color="#afafaf"/><stop offset=".559" stop-color="#fff"/><stop offset=".684" stop-color="#b1b1b1"/><stop offset="1" stop-color="#818181"/></linearGradient><linearGradient id="v"><stop offset="0" stop-color="#333"/><stop offset=".25" stop-color="#afafaf"/><stop offset=".375" stop-color="#fff"/><stop offset=".5" stop-color="#b1b1b1"/><stop offset="1" stop-color="#818181"/></linearGradient><linearGradient id="q"><stop offset="0" stop-color="#e6e6e6"/><stop offset="1" stop-color="#e6e6e6" stop-opacity="0"/></linearGradient><linearGradient id="r"><stop offset="0" stop-color="#7e7e7e"/><stop offset=".307" stop-color="#b4b4b4"/><stop offset=".432" stop-color="#fff"/><stop offset=".557" stop-color="#909090"/><stop offset="1" stop-color="#666"/></linearGradient><linearGradient id="s"><stop offset="0" stop-color="#7e7e7e"/><stop offset=".307" stop-color="#b4b4b4"/><stop offset=".904" stop-color="#fff"/><stop offset=".967" stop-color="#909090"/><stop offset="1" stop-color="#666"/></linearGradient><filter color-interpolation-filters="sRGB" id="cE"><feGaussianBlur stdDeviation="2.301"/></filter><linearGradient id="t"><stop offset="0" stop-color="#333"/><stop offset=".263" stop-color="#737373"/><stop offset=".388" stop-color="#fff"/><stop offset=".513" stop-color="#686868"/><stop offset="1" stop-color="#333"/></linearGradient><filter color-interpolation-filters="sRGB" id="cH"><feGaussianBlur stdDeviation=".169"/></filter><linearGradient id="u"><stop offset="0" stop-color="#7e7e7e"/><stop offset=".307" stop-color="#b4b4b4"/><stop offset=".7" stop-color="#fff"/><stop offset=".874" stop-color="#909090"/><stop offset="1" stop-color="#666"/></linearGradient><linearGradient id="w"><stop offset="0" stop-color="#333"/><stop offset=".133" stop-color="#737373"/><stop offset=".467" stop-color="#fff"/><stop offset=".6" stop-color="#686868"/><stop offset="1" stop-color="#333"/></linearGradient><filter id="cL" color-interpolation-filters="sRGB"><feGaussianBlur stdDeviation="4" result="result8"/><feOffset dx="4" dy="4" result="result11"/><feComposite in2="result11" result="result6" in="SourceGraphic" operator="in"/><feFlood result="result10" flood-opacity="1" flood-color="#000"/><feBlend in2="result10" in="result6" result="result12"/><feComposite in2="SourceGraphic" result="result2" operator="in"/></filter><filter color-interpolation-filters="sRGB" id="cN" x="-.325" width="1.651" y="-.325" height="1.651"><feGaussianBlur stdDeviation="5.763"/></filter><radialGradient xlink:href="#r" id="cD" gradientUnits="userSpaceOnUse" gradientTransform="matrix(-.42094 1.57096 -2.71035 -.72624 420.597 -465.004)" cx="296" cy="0" fx="296" fy="0" r="29.532"/><radialGradient xlink:href="#r" id="cF" gradientUnits="userSpaceOnUse" gradientTransform="matrix(1.43856 1.48192 -1.50054 1.45663 -120.27 -438.175)" cx="293.119" cy=".812" fx="293.119" fy=".812" r="29.467"/><linearGradient xlink:href="#t" id="cG" gradientUnits="userSpaceOnUse" x1="267.25" y1="0" x2="324.75" y2="0"/><radialGradient xlink:href="#v" id="cJ" gradientUnits="userSpaceOnUse" gradientTransform="matrix(6.23462 1.15456 -1.94963 10.52795 -575.264 -7358.414)" cx="340.211" cy="760.172" fx="340.211" fy="760.172" r="13.5"/><linearGradient xlink:href="#w" id="cK" gradientUnits="userSpaceOnUse" gradientTransform="matrix(1.96522 0 0 1.96522 -593.174 -530.636)" x1="339.643" y1="765.768" x2="339.643" y2="725.589"/><linearGradient xlink:href="#w" id="cM" gradientUnits="userSpaceOnUse" gradientTransform="matrix(1.96522 0 0 1.96522 -593.174 -530.636)" x1="339.643" y1="765.768" x2="339.643" y2="725.589"/><radialGradient xlink:href="#u" id="cI" gradientUnits="userSpaceOnUse" cx="296" cy="0" fx="296" fy="0" r="29.532" gradientTransform="matrix(0 .8605 -.8605 0 48.967 759.712)"/><radialGradient xlink:href="#s" id="cB" gradientUnits="userSpaceOnUse" cx="296" cy="0" fx="296" fy="0" r="28.48" gradientTransform="matrix(-1.17342 0 0 -1.17342 396.3 1014.422)"/><linearGradient xlink:href="#r" id="cC" gradientUnits="userSpaceOnUse" x1="248.083" y1="35.049" x2="360.063" y2="5.045" gradientTransform="matrix(-1.17342 0 0 -1.17342 396.3 1014.422)"/><linearGradient xlink:href="#r" id="cz" gradientUnits="userSpaceOnUse" x1="260.35" y1="31.461" x2="360.819" y2="4.54" gradientTransform="matrix(-1.17342 0 0 -1.17342 396.3 1014.422)"/><linearGradient xlink:href="#r" id="cA" gradientUnits="userSpaceOnUse" x1="248.083" y1="35.049" x2="360.063" y2="5.045" gradientTransform="matrix(-1.17342 0 0 -1.17342 396.3 1014.422)"/><radialGradient xlink:href="#n" id="cx" gradientUnits="userSpaceOnUse" gradientTransform="matrix(-6.26282 2.86432 3.1314 4.29647 515.533 11.547)" cx="131.863" cy="132.444" fx="131.863" fy="132.444" r="3.018"/><linearGradient xlink:href="#k" id="cy" gradientUnits="userSpaceOnUse" gradientTransform="matrix(1.11039 0 0 1.11039 -52.103 808.706)" x1="130.216" y1="126.269" x2="152.79" y2="123.635"/><radialGradient xlink:href="#q" id="cw" gradientUnits="userSpaceOnUse" gradientTransform="matrix(.38287 0 0 .13161 47.64 964.265)" cx="128" cy="52" fx="128" fy="52" r="32"/><radialGradient xlink:href="#o" id="cd" gradientUnits="userSpaceOnUse" gradientTransform="matrix(2.23762 .02272 -.0783 7.71064 -165.709 -436.717)" spreadMethod="reflect" cx="103.485" cy="186.946" fx="103.485" fy="186.946" r="14"/><radialGradient xlink:href="#n" id="cb" gradientUnits="userSpaceOnUse" gradientTransform="matrix(7.03165 3.21594 -3.5158 4.8239 -365.818 -104.284)" cx="131.863" cy="132.444" fx="131.863" fy="132.444" r="3.018"/><linearGradient xlink:href="#k" id="cc" gradientUnits="userSpaceOnUse" gradientTransform="matrix(1.11039 0 0 1.11039 -52.103 808.706)" x1="120.595" y1="131.687" x2="144.9" y2="123.585"/><radialGradient xlink:href="#l" id="bZ" gradientUnits="userSpaceOnUse" gradientTransform="matrix(1.151 0 0 2.56214 -54.777 598.502)" cx="137.122" cy="141.291" fx="137.122" fy="141.291" r="30"/><radialGradient xlink:href="#m" id="ca" gradientUnits="userSpaceOnUse" gradientTransform="matrix(.03394 -2.65477 .9778 .0125 -62.167 1335.66)" cx="142.084" cy="164.037" fx="143.152" fy="162.518" r="30.243"/><linearGradient xlink:href="#l" id="bY" gradientUnits="userSpaceOnUse" gradientTransform="matrix(1.11039 0 0 1.11039 -52.103 808.706)" x1="140.039" y1="123.585" x2="140.039" y2="138.168"/><radialGradient xlink:href="#k" id="bW" gradientUnits="userSpaceOnUse" gradientTransform="matrix(2.74892 -.73657 .28784 1.07422 -306.892 914.491)" cx="144.235" cy="125.586" fx="144.235" fy="125.586" r="21.813"/><radialGradient xlink:href="#k" id="bX" gradientUnits="userSpaceOnUse" gradientTransform="matrix(1.67039 -.16708 .15491 1.54876 -147.804 772.63)" cx="134" cy="133.369" fx="134" fy="133.369" r="22.056"/><linearGradient xlink:href="#j" id="bV" gradientUnits="userSpaceOnUse" gradientTransform="matrix(1.11039 0 0 1.11039 -52.103 808.706)" x1="103.682" y1="141.647" x2="164.243" y2="141.647"/><radialGradient xlink:href="#k" id="cv" gradientUnits="userSpaceOnUse" gradientTransform="matrix(.53366 0 0 .9262 13.45 820.791)" spreadMethod="reflect" cx="145.745" cy="134.633" fx="145.745" fy="134.633" r="12.001"/><radialGradient xlink:href="#k" id="cu" gradientUnits="userSpaceOnUse" gradientTransform="matrix(.53366 0 0 .9262 13.45 820.791)" spreadMethod="reflect" cx="145.745" cy="134.633" fx="145.745" fy="134.633" r="12.001"/><radialGradient xlink:href="#k" id="ct" gradientUnits="userSpaceOnUse" gradientTransform="matrix(.53366 0 0 .9262 13.45 820.791)" spreadMethod="reflect" cx="145.745" cy="134.633" fx="145.745" fy="134.633" r="12.001"/><radialGradient xlink:href="#k" id="cs" gradientUnits="userSpaceOnUse" gradientTransform="matrix(.53366 0 0 .9262 13.45 820.791)" spreadMethod="reflect" cx="145.745" cy="134.633" fx="145.745" fy="134.633" r="12.001"/><radialGradient xlink:href="#k" id="cr" gradientUnits="userSpaceOnUse" gradientTransform="matrix(.53366 0 0 .9262 13.45 820.791)" spreadMethod="reflect" cx="145.745" cy="134.633" fx="145.745" fy="134.633" r="12.001"/><radialGradient xlink:href="#k" id="cq" gradientUnits="userSpaceOnUse" gradientTransform="matrix(.53366 0 0 .9262 13.45 820.791)" spreadMethod="reflect" cx="145.745" cy="134.633" fx="145.745" fy="134.633" r="12.001"/><linearGradient xlink:href="#p" id="cp" gradientUnits="userSpaceOnUse" x1="122" y1="178.364" x2="146.002" y2="178.364" gradientTransform="matrix(1.01785 0 0 1.11039 -39.703 808.706)"/><linearGradient xlink:href="#p" id="co" gradientUnits="userSpaceOnUse" x1="122" y1="178.364" x2="146.002" y2="178.364" gradientTransform="matrix(1.01785 0 0 1.11039 -39.703 808.706)"/><linearGradient xlink:href="#p" id="cn" gradientUnits="userSpaceOnUse" x1="122" y1="178.364" x2="146.002" y2="178.364" gradientTransform="matrix(1.01785 0 0 1.11039 -39.703 808.706)"/><linearGradient xlink:href="#p" id="cm" gradientUnits="userSpaceOnUse" x1="122" y1="178.364" x2="146.002" y2="178.364" gradientTransform="matrix(1.01785 0 0 1.11039 -39.703 808.706)"/><linearGradient xlink:href="#p" id="cl" gradientUnits="userSpaceOnUse" x1="122" y1="178.364" x2="146.002" y2="178.364" gradientTransform="matrix(1.01785 0 0 1.11039 -39.703 808.706)"/><linearGradient xlink:href="#p" id="ck" gradientUnits="userSpaceOnUse" x1="122" y1="178.364" x2="146.002" y2="178.364" gradientTransform="matrix(1.01785 0 0 1.11039 -39.703 808.706)"/><linearGradient xlink:href="#k" id="cj" gradientUnits="userSpaceOnUse" x1="127.454" y1="176.362" x2="144.909" y2="176.362" gradientTransform="matrix(1.01785 0 0 1.11039 -39.703 808.706)"/><linearGradient xlink:href="#k" id="ci" gradientUnits="userSpaceOnUse" x1="127.454" y1="176.362" x2="144.909" y2="176.362" gradientTransform="matrix(1.01785 0 0 1.11039 -39.703 808.706)"/><linearGradient xlink:href="#k" id="ch" gradientUnits="userSpaceOnUse" x1="127.454" y1="176.362" x2="144.909" y2="176.362" gradientTransform="matrix(1.01785 0 0 1.11039 -39.703 808.706)"/><linearGradient xlink:href="#k" id="cg" gradientUnits="userSpaceOnUse" x1="127.454" y1="176.362" x2="144.909" y2="176.362" gradientTransform="matrix(1.01785 0 0 1.11039 -39.703 808.706)"/><linearGradient xlink:href="#k" id="cf" gradientUnits="userSpaceOnUse" x1="127.454" y1="176.362" x2="144.909" y2="176.362" gradientTransform="matrix(1.01785 0 0 1.11039 -39.703 808.706)"/><linearGradient xlink:href="#k" id="ce" gradientUnits="userSpaceOnUse" x1="127.454" y1="176.362" x2="144.909" y2="176.362" gradientTransform="matrix(1.01785 0 0 1.11039 -39.703 808.706)"/></defs><path d="M139.275 1050.664l7.413-4.705v-32.362l-7.413 2.965v34.102" fill="url(#x)" transform="translate(24.845 -799.185)"/><path d="M120 1050.664l-10.379-4.705v-32.362l10.379 2.965v34.102" fill="url(#y)" transform="translate(24.845 -799.185)"/><path d="M120 1016.562h19.275v34.102H120v-34.102" fill="url(#z)" transform="translate(24.845 -799.185)"/><path d="M139.275 992.84l7.413-3.515v-129.45l-7.413 2.487V992.84" fill="url(#A)" transform="translate(24.845 -799.185)"/><path d="M120 992.84l-10.379-3.515v-129.45L120 862.362V992.84" fill="url(#B)" transform="translate(24.845 -799.185)"/><path d="M120 862.362h19.275V992.84H120V862.362" fill="url(#C)" transform="translate(24.845 -799.185)"/><path d="M109.621 989.325a14.6 14.6 0 0 1 6.142 8.478 14.6 14.6 0 0 1-1.2 10.4 14.52 14.52 0 0 1-4.942 5.394l10.379 2.965h19.275l7.413-2.965a14.52 14.52 0 0 1-4.942-5.394 14.6 14.6 0 0 1-1.2-10.4 14.6 14.6 0 0 1 6.142-8.478l-7.413 3.514H120l-10.379-3.514" fill="url(#D)" transform="translate(24.845 -799.185)"/><path d="M109.621 859.875l9.885 2.487h19.769l7.413-2.487c-1.846-.988-3.295-2.667-4.076-4.61-.78-1.942-.866-4.084-.866-6.177v-26.97l-12.591-19.259h-2l-12.592 19.26v26.969c0 2.093-.085 4.235-.866 6.178-.78 1.942-2.23 3.621-4.076 4.61" fill="url(#E)" transform="translate(24.845 -799.185)"/><path d="M128.155 802.86v19l11 22v-23l-10-18z" fill="url(#F)" transform="translate(24.845 -799.185)"/><path d="M114.563 840.997l8.592-19.138 4-19-12.592 19.26v18.878" fill="url(#G)" transform="translate(24.845 -799.185)"/><g style="line-height:125%;-inkscape-font-specification:URW Palladio L Medium" font-size="12.843" font-weight="400" letter-spacing="0" word-spacing="0" fill="#f2f2f2" font-family="Ume P Gothic S4"><path d="M160 155.005v.88h-9.978v-.88h4.189l-4.189-3.866v-1.224l3.736 3.496 6.242-3.496v1.175l-5.583 2.936 1.044.979H160M152.954 143.554a4.647 4.647 0 0 0-1.08.294c-.309.13-.557.358-.746.685a2.113 2.113 0 0 0-.283 1.076c0 .49.069.873.206 1.15.137.277.334.481.591.612.258.13.54.196.85.196.342 0 .625-.115.848-.343a2.77 2.77 0 0 0 .514-.71c.12-.244.231-.513.334-.807l.257-.685c.172-.424.386-.824.643-1.199a3.145 3.145 0 0 1 1.003-.93 2.665 2.665 0 0 1 1.389-.367c.548 0 1.028.139 1.44.416.411.278.694.612.849 1.003.154.392.231.93.231 1.615 0 .457-.077.938-.231 1.444a2.407 2.407 0 0 1-.823 1.223c-.395.31-.986.498-1.775.563v-.88c.583-.033 1.012-.18 1.286-.441s.454-.563.54-.906c.086-.342.129-.676.129-1.003 0-.424-.043-.79-.129-1.1a1.355 1.355 0 0 0-.54-.76 1.638 1.638 0 0 0-.977-.293c-.377 0-.712.098-1.003.294a2.807 2.807 0 0 0-.72.685 3.25 3.25 0 0 0-.437.832l-.257.685c-.138.391-.3.775-.489 1.15a2.842 2.842 0 0 1-.823.978c-.36.278-.78.416-1.26.416-.549 0-1.011-.114-1.389-.342a1.99 1.99 0 0 1-.822-.954 3.312 3.312 0 0 1-.258-1.297v-.49c0-.424.12-.84.36-1.247.24-.408.558-.742.952-1.003.394-.261.934-.408 1.62-.44v.88M150.845 132.642c3.155 1.076 6.206 1.924 9.155 2.544v.93a68.467 68.467 0 0 1-9.155-2.545v3.573h-.823v-4.502h.823M160 120.897v.93h-4.937v4.257H160v.881h-9.978v-.88h4.166v-4.258h-4.166v-.93H160M150.897 113.068v2.74H160v.88h-9.103v2.741h-.875v-6.361h.875M160 110.915v1.125l-5.011-2.728-4.967 2.68v-1.077l3.954-2.153-3.954-2.154v-1.076l4.967 2.679 5.011-2.728v1.125l-3.992 2.154 3.992 2.153" style="-inkscape-font-specification:Ume P Gothic S4"/></g><g transform="matrix(0 -.97543 1.0252 0 24.845 -799.318)" style="line-height:125%;-inkscape-font-specification:URW Palladio L Medium" font-size="12.843" font-weight="400" letter-spacing="0" word-spacing="0" fill="#666" filter="url(#filter3844)" font-family="Ume P Gothic S4"><path d="M-978.115 131.834h-.903V122.1h.903v4.086l3.963-4.086h1.255l-3.584 3.644 3.584 6.089h-1.204l-3.01-5.447-1.004 1.02v4.427M-966.376 124.96a4.361 4.361 0 0 0-.3-1.053c-.134-.3-.369-.543-.703-.727a2.252 2.252 0 0 0-1.104-.276c-.501 0-.894.067-1.179.2a1.321 1.321 0 0 0-.627.577c-.133.251-.2.527-.2.828 0 .335.117.61.35.828.235.217.477.385.728.502.251.117.527.225.828.326l.702.25c.435.168.845.377 1.23.628.384.25.702.577.953.978.25.401.376.853.376 1.354 0 .536-.142 1.004-.427 1.405-.284.401-.627.677-1.028.828-.401.15-.953.226-1.655.226-.469 0-.962-.076-1.48-.226a2.476 2.476 0 0 1-1.255-.803c-.317-.384-.51-.961-.577-1.73h.904c.033.568.183.986.451 1.254.268.267.577.443.928.526.351.084.694.126 1.029.126.434 0 .81-.042 1.128-.126a1.39 1.39 0 0 0 .778-.526c.2-.268.3-.586.3-.954 0-.367-.1-.694-.3-.978a2.803 2.803 0 0 0-.702-.702 3.394 3.394 0 0 0-.853-.427l-.703-.25a10.22 10.22 0 0 1-1.179-.477 2.883 2.883 0 0 1-1.003-.803 1.895 1.895 0 0 1-.426-1.229c0-.535.117-.986.35-1.354.235-.368.561-.636.98-.803.417-.167.86-.25 1.329-.25h.501c.435 0 .861.116 1.28.35.418.235.76.544 1.028.928.267.385.418.912.451 1.58h-.903M-955.188 122.904c-1.104 3.077-1.974 6.053-2.609 8.93h-.953a64.265 64.265 0 0 1 2.609-8.93h-3.663v-.803h4.616v.803M-943.148 131.834h-.953v-4.816h-4.365v4.816h-.903V122.1h.903v4.064h4.365V122.1h.953v9.733M-935.121 122.954h-2.81v8.88h-.903v-8.88h-2.81v-.853h6.523v.853M-932.914 131.834h-1.154l2.797-4.889-2.747-4.844h1.104l2.207 3.857 2.208-3.857h1.103l-2.746 4.844 2.797 4.889h-1.154l-2.208-3.895-2.207 3.895" style="-inkscape-font-specification:Ume P Gothic S4"/></g><path d="M105.041 357.362c22.72.07 45.453-.14 68.164.106v184.894c-7.813 9.997-22.133 13.628-34.64 15-11.079-.626-31.773-6.998-34.137-15 0-59.68-.505-125.215-.505-184.894z" fill="url(#H)" fill-rule="evenodd" transform="matrix(.48117 0 0 .48117 -10.627 -108.781)"/><path style="text-indent:0;text-align:start;line-height:normal;text-transform:none;block-progression:tb;marker:none;-inkscape-font-specification:Sans" d="M101.58 539.571v-1.219c26.488 12.707 51.423 16.904 73.625 1.632l.01 1.628c-13.643 14.948-51.421 18.383-73.635-2.04 0 0 0 0 0 0m0-8.587v-1.22c26.488 12.707 51.423 16.905 73.625 1.633l.01 1.627c-13.643 14.948-51.421 18.384-73.635-2.04 0 0 0 0 0 0m0-8.586v-1.22c26.488 12.707 51.423 16.905 73.625 1.632l.01 1.628c-13.643 14.948-51.421 18.384-73.635-2.04 0 0 0 0 0 0m0-8.586v-1.22c26.488 12.707 51.423 16.904 73.625 1.632l.01 1.628c-13.642 14.948-51.421 18.383-73.635-2.04 0 0 0 0 0 0m0-8.587v-1.22c26.488 12.707 51.423 16.905 73.625 1.633l.01 1.627c-13.642 14.948-51.421 18.384-73.635-2.04 0 0 0 0 0 0m0-8.586v-1.22c26.488 12.707 51.423 16.905 73.625 1.633l.01 1.627c-13.642 14.948-51.421 18.384-73.635-2.04 0 0 0 0 0 0m0-8.586v-1.22c26.488 12.707 51.423 16.904 73.625 1.632l.01 1.628c-13.642 14.948-51.421 18.384-73.635-2.04 0 0 0 0 0 0m0-8.587v-1.22c26.488 12.707 51.423 16.905 73.625 1.633l.01 1.628c-13.642 14.948-51.42 18.383-73.635-2.04 0 0 0 0 0 0m0-8.587v-1.22c26.488 12.707 51.423 16.905 73.625 1.633l.01 1.627c-13.642 14.948-51.42 18.384-73.635-2.04 0 0 0 0 0 0m0-8.586v-1.22c26.488 12.707 51.423 16.904 73.625 1.632l.01 1.628c-13.642 14.948-51.42 18.384-73.635-2.04 0 0 0 0 0 0m0-8.587v-1.22c26.488 12.708 51.423 16.905 73.625 1.633l.01 1.628c-13.642 14.948-51.42 18.383-73.635-2.04 0 0 0 0 0 0m0-8.587v-1.22c26.488 12.707 51.423 16.905 73.625 1.633l.01 1.627c-13.642 14.948-51.42 18.384-73.635-2.04 0 0 0 0 0 0m0-8.586v-1.22c26.488 12.707 51.423 16.904 73.625 1.632l.01 1.628c-13.642 14.948-51.42 18.384-73.634-2.04 0 0 0 0 0 0m0-8.586v-1.22c26.488 12.707 51.422 16.904 73.624 1.632l.01 1.628c-13.642 14.948-51.42 18.383-73.634-2.04 0 0 0 0 0 0m0-8.587v-1.22c26.488 12.707 51.422 16.905 73.624 1.633l.01 1.627c-13.642 14.948-51.42 18.384-73.634-2.04 0 0 0 0 0 0m0-8.586v-1.22c26.488 12.707 51.422 16.905 73.624 1.633l.01 1.627c-13.642 14.948-51.42 18.384-73.634-2.04 0 0 0 0 0 0m0-8.586v-1.22c26.488 12.707 51.422 16.904 73.624 1.632l.01 1.628c-13.642 14.948-51.42 18.384-73.634-2.04 0 0 0 0 0 0m0-8.587v-1.22c26.488 12.707 51.422 16.905 73.624 1.633l.01 1.628c-13.642 14.948-51.42 18.383-73.634-2.04 0 0 0 0 0 0m0-8.587v-1.22c26.488 12.707 51.422 16.905 73.624 1.633l.01 1.627c-13.642 14.948-51.42 18.384-73.634-2.04 0 0 0 0 0 0m0-8.586v-1.22c26.488 12.707 51.422 16.904 73.624 1.632l.011 1.628c-13.643 14.948-51.422 18.384-73.635-2.04 0 0 0 0 0 0m0-8.587v-1.22c26.488 12.708 51.422 16.905 73.624 1.633l.011 1.628c-13.643 14.948-51.422 18.383-73.635-2.04 0 0 0 0 0 0m0-8.587v-1.22c26.488 12.707 51.422 16.905 73.624 1.633l.011 1.627c-13.643 14.948-51.421 18.384-73.635-2.04 0 0 0 0 0 0m0-8.586v-1.22c26.488 12.707 51.422 16.904 73.624 1.632l.011 1.628c-13.643 14.948-51.421 18.384-73.635-2.04 0 0 0 0 0 0m0-8.586v-1.22c26.488 12.707 51.423 16.904 73.624 1.632l.011 1.628c-13.643 14.948-51.421 18.383-73.635-2.04 0 0 0 0 0 0m0-8.587v-1.22c26.488 12.707 51.423 16.905 73.624 1.633l.011 1.627c-13.643 14.948-51.421 18.384-73.635-2.04 0 0 0 0 0 0" font-weight="400" color="#000" fill="url(#I)" stroke="#999" stroke-width="1.353" stroke-linecap="round" stroke-linejoin="round" overflow="visible" enable-background="accumulate" font-family="Sans" transform="matrix(.48117 0 0 .48117 -10.627 -108.781)"/><path d="M152.323 373.013c10.988.018 23.653-.28 28.468-2.045 7.706-2.821 20.333-18.55 24.782-23.438 4.448-4.887 19.593-19.695 19.593-25.338V299.243v-6.992l-17.437 6.906c-.71-.749-1.669-1.768-2.156-2.304-4.45-4.887-17.076-20.616-24.782-23.438-7.705-2.822-35.509-1.9-44.406-1.9-8.897 0-36.67-.922-44.375 1.9-7.705 2.822-20.364 18.55-24.812 23.438-.488.536-1.447 1.555-2.157 2.304l-17.41-7.366.004 7.452V322.192c0 5.643 15.114 20.45 19.562 25.338 4.45 4.888 17.108 20.617 24.813 23.438 7.705 2.822 35.478 1.9 44.375 1.9 3.336 0 9.344.134 15.937.145z" fill="url(#J)" fill-rule="evenodd" transform="matrix(.48117 0 0 .48117 -10.627 -108.781)"/><path transform="matrix(.24497 .26915 -.4243 .1554 -82.473 63.316)" d="M95.55-218.502c-7.567 4.37-34.85 2.962-43.588 2.962s-36.022 1.407-43.59-2.962c-7.567-4.369-19.99-28.7-24.359-36.268-4.369-7.567-19.23-30.492-19.23-39.23 0-8.738 14.861-31.663 19.23-39.23 4.369-7.567 16.792-31.9 24.36-36.268 7.567-4.37 34.85-2.962 43.589-2.962 8.737 0 36.021-1.407 43.589 2.962 7.567 4.369 19.99 28.7 24.359 36.268 4.369 7.567 19.23 30.492 19.23 39.23 0 8.738-14.861 31.663-19.23 39.23-4.369 7.567-16.792 31.9-24.36 36.268z" fill="url(#K)" fill-rule="evenodd"/><path d="M91.46 31.618C91.46 18.457 75.136 7.787 55 7.787s-36.46 10.67-36.46 23.831C18.54 44.78 34.864 55.45 55 55.45s36.46-10.67 36.46-23.832z" fill="none"/><path transform="matrix(.48117 0 0 .69669 -10.627 -181.41)" d="M92.89 342.362h87.019c1.084 0 1.956.033 1.956.073v17.354c0 .04-.872.073-1.956.073h-87.02c-1.084 0-1.956-.032-1.956-.073v-17.354c0-.04.872-.073 1.956-.073z" fill="url(#L)" fill-rule="evenodd" filter="url(#M)"/><path transform="matrix(0 .21093 -.44367 0 550.523 56.273)" d="M-70 744.862c0 37.28-12.312 67.5-27.5 67.5s-27.5-30.22-27.5-67.5c0-37.279 12.312-67.5 27.5-67.5s27.5 30.221 27.5 67.5z" fill="url(#N)"/><path transform="matrix(0 .21093 -.44603 0 552.124 73.674)" d="M-70 744.862c0 37.28-12.312 67.5-27.5 67.5s-27.5-30.22-27.5-67.5c0-37.279 12.312-67.5 27.5-67.5s27.5 30.221 27.5 67.5z" fill="url(#O)"/><path d="M204.413 32.304h30.016c.591 0 1.067.013 1.067.03v18.312c0 .016-.476.03-1.067.03h-30.016c-.59 0-1.066-.014-1.066-.03V32.334c0-.017.475-.03 1.066-.03z" fill="#fff"/><path d="M278.177 383.883v45.986l-59.3 6.092.86-43.4c17.192-11.102 37.957-13.056 58.44-8.678z" fill="url(#P)" transform="matrix(.39949 0 0 .39949 102.322 -121.052)"/><path d="M351.755 383.883l1.779 45.986h-75.357v-45.986c27.302-5.66 46.276-6.497 73.578 0z" fill="url(#Q)" transform="matrix(.39949 0 0 .39949 102.322 -121.052)"/><path d="M369.667 392.914v43.047l-17.912-6.092v-45.986c3.882.75 14.03 5.526 17.912 9.03z" fill="url(#R)" transform="matrix(.39949 0 0 .39949 102.322 -121.052)"/><path d="M260.488 922.39c-.197 2.078 1.402 4.18 2.233 5.124 24.86 6.77 55.779 6.251 64.756.983-.225-163.98-.042-323.837 0-487.823-23.08-4.504-45.286-3.764-66.989 0V922.39z" style="text-indent:0;text-align:start;line-height:normal;text-transform:none;block-progression:tb;marker:none;-inkscape-font-specification:Sans" font-weight="400" color="#000" fill="url(#S)" overflow="visible" enable-background="accumulate" font-family="Sans" transform="matrix(.39949 0 0 .39949 102.322 -121.052)"/><path d="M204.442 247.394c-.963-1.31 2.47-2.597 2.455-2.266l-.047 1.026c-.584.228-.68.496-.718.786-.105.813 8.512 1.754 12.838 2.021 4.61.285 13.918.404 13.85-.456l-.09-1.118c1.348.448 3.115 1.09 3.062 1.561-.157 1.4-10.63 1.407-15.957 1.135-5.205-.265-14.552-1.546-15.393-2.69m0-2.281c-.963-1.309 2.47-2.596 2.455-2.266l-.047 1.026c-.584.228-.68.497-.718.786-.105.813 8.512 1.755 12.838 2.022 4.61.284 13.918.403 13.85-.456l-.09-1.118c1.348.447 3.115 1.089 3.062 1.56-.157 1.4-10.63 1.407-15.957 1.135-5.205-.265-14.552-1.546-15.393-2.689m0-2.282c-.963-1.309 2.47-2.596 2.455-2.266l-.047 1.026c-.584.228-.68.497-.718.786-.105.813 8.512 1.755 12.838 2.022 4.61.284 13.918.404 13.85-.456l-.09-1.118c1.348.447 3.115 1.089 3.062 1.56-.157 1.4-10.63 1.407-15.957 1.136-5.205-.266-14.552-1.547-15.393-2.69m0-2.281c-.963-1.31 2.47-2.597 2.455-2.266l-.047 1.026c-.584.228-.68.496-.718.786-.105.812 8.512 1.754 12.838 2.021 4.61.285 13.918.404 13.85-.456l-.09-1.118c1.348.448 3.115 1.09 3.062 1.561-.157 1.4-10.63 1.407-15.957 1.135-5.205-.265-14.552-1.546-15.393-2.69m0-2.281c-.963-1.309 2.47-2.596 2.455-2.266l-.047 1.026c-.584.228-.68.497-.718.786-.105.813 8.512 1.755 12.838 2.022 4.61.284 13.918.403 13.85-.456l-.09-1.118c1.348.447 3.115 1.088 3.062 1.56-.157 1.4-10.63 1.407-15.957 1.135-5.205-.265-14.552-1.546-15.393-2.69m0-2.28c-.963-1.31 2.47-2.597 2.455-2.267l-.047 1.026c-.584.228-.68.497-.718.786-.105.813 8.512 1.755 12.838 2.022 4.61.284 13.918.403 13.85-.456l-.09-1.118c1.348.447 3.115 1.089 3.062 1.56-.157 1.4-10.63 1.407-15.957 1.136-5.205-.266-14.552-1.547-15.393-2.69m0-2.281c-.963-1.31 2.47-2.597 2.455-2.266l-.047 1.025c-.584.229-.68.497-.718.786-.105.813 8.512 1.755 12.838 2.022 4.61.285 13.918.404 13.85-.456l-.09-1.118c1.348.448 3.115 1.09 3.062 1.561-.157 1.4-10.63 1.406-15.957 1.135-5.205-.266-14.552-1.546-15.393-2.69m0-2.281c-.963-1.309 2.47-2.597 2.455-2.266l-.047 1.026c-.584.228-.68.497-.718.786-.105.813 8.512 1.755 12.838 2.021 4.61.285 13.918.404 13.85-.456l-.09-1.118c1.348.448 3.115 1.09 3.062 1.561-.157 1.4-10.63 1.407-15.957 1.135-5.205-.265-14.552-1.546-15.393-2.69m0-2.28c-.963-1.31 2.47-2.597 2.455-2.267l-.047 1.026c-.584.228-.68.497-.718.786-.105.813 8.512 1.755 12.838 2.022 4.61.284 13.918.403 13.85-.456l-.09-1.118c1.348.447 3.115 1.089 3.062 1.56-.157 1.4-10.63 1.407-15.957 1.135-5.205-.265-14.552-1.546-15.393-2.689m0-2.282c-.963-1.308 2.47-2.596 2.455-2.265l-.047 1.025c-.584.228-.68.497-.718.786-.105.813 8.512 1.755 12.838 2.022 4.61.284 13.918.404 13.85-.456l-.09-1.118c1.348.448 3.115 1.089 3.062 1.56-.157 1.4-10.63 1.407-15.957 1.136-5.205-.266-14.552-1.547-15.393-2.69m0-2.281c-.963-1.31 2.47-2.597 2.455-2.266l-.047 1.026c-.584.228-.68.497-.718.786-.105.813 8.512 1.754 12.838 2.021 4.61.285 13.918.404 13.85-.456l-.09-1.118c1.348.448 3.115 1.09 3.062 1.561-.157 1.4-10.63 1.407-15.957 1.135-5.205-.265-14.552-1.546-15.393-2.69m0-2.281c-.963-1.309 2.47-2.596 2.455-2.266l-.047 1.026c-.584.228-.68.497-.718.786-.105.813 8.512 1.755 12.838 2.022 4.61.284 13.918.403 13.85-.456l-.09-1.118c1.348.447 3.115 1.089 3.062 1.56-.157 1.4-10.63 1.407-15.957 1.135-5.205-.265-14.552-1.546-15.393-2.689m0-2.282c-.963-1.308 2.47-2.596 2.455-2.265l-.047 1.025c-.584.228-.68.497-.718.786-.105.813 8.512 1.755 12.838 2.022 4.61.284 13.918.404 13.85-.456l-.09-1.118c1.348.447 3.115 1.089 3.062 1.56-.157 1.4-10.63 1.407-15.957 1.136-5.205-.266-14.552-1.547-15.393-2.69m0-2.281c-.963-1.31 2.47-2.597 2.455-2.266l-.047 1.026c-.584.228-.68.496-.718.786-.105.812 8.512 1.754 12.838 2.021 4.61.285 13.918.404 13.85-.456l-.09-1.118c1.348.448 3.115 1.09 3.062 1.561-.157 1.4-10.63 1.407-15.957 1.135-5.205-.265-14.552-1.546-15.393-2.69m0-2.281c-.963-1.309 2.47-2.596 2.455-2.266l-.047 1.026c-.584.228-.68.497-.718.786-.105.813 8.512 1.755 12.838 2.022 4.61.284 13.918.403 13.85-.456l-.09-1.118c1.348.447 3.115 1.089 3.062 1.56-.157 1.4-10.63 1.407-15.957 1.135-5.205-.265-14.552-1.546-15.393-2.69m0-2.28c-.963-1.31 2.47-2.597 2.455-2.267l-.047 1.026c-.584.228-.68.497-.718.786-.105.813 8.512 1.755 12.838 2.022 4.61.284 13.918.404 13.85-.456l-.09-1.118c1.348.447 3.115 1.089 3.062 1.56-.157 1.4-10.63 1.407-15.957 1.136-5.205-.266-14.552-1.547-15.393-2.69m0-2.281c-.963-1.31 2.47-2.597 2.455-2.266l-.047 1.025c-.584.229-.68.497-.718.786-.105.813 8.512 1.755 12.838 2.022 4.61.285 13.918.404 13.85-.456l-.09-1.118c1.348.448 3.115 1.09 3.062 1.561-.157 1.4-10.63 1.406-15.957 1.135-5.205-.266-14.552-1.546-15.393-2.69m0-2.281c-.963-1.309 2.47-2.597 2.455-2.266l-.047 1.026c-.584.228-.68.497-.718.786-.105.813 8.512 1.755 12.838 2.021 4.61.285 13.918.404 13.85-.455l-.09-1.119c1.348.448 3.115 1.09 3.062 1.561-.157 1.4-10.63 1.407-15.957 1.135-5.205-.265-14.552-1.546-15.393-2.69m0-2.28c-.963-1.31 2.47-2.597 2.455-2.267l-.047 1.026c-.584.228-.68.497-.718.786-.105.813 8.512 1.755 12.838 2.022 4.61.284 13.918.403 13.85-.456l-.09-1.118c1.348.447 3.115 1.089 3.062 1.56-.157 1.4-10.63 1.407-15.957 1.136-5.205-.266-14.552-1.547-15.393-2.69m0-2.282c-.963-1.308 2.47-2.596 2.455-2.265l-.047 1.025c-.584.229-.68.497-.718.786-.105.813 8.512 1.755 12.838 2.022 4.61.284 13.918.404 13.85-.456l-.09-1.118c1.348.448 3.115 1.089 3.062 1.56-.157 1.4-10.63 1.407-15.957 1.136-5.205-.266-14.552-1.546-15.393-2.69m0-2.281c-.963-1.31 2.47-2.597 2.455-2.266l-.047 1.026c-.584.228-.68.497-.718.786-.105.813 8.512 1.754 12.838 2.021 4.61.285 13.918.404 13.85-.456l-.09-1.118c1.348.448 3.115 1.09 3.062 1.561-.157 1.4-10.63 1.407-15.957 1.135-5.205-.265-14.552-1.546-15.393-2.69m0-2.28c-.963-1.31 2.47-2.597 2.455-2.267l-.047 1.026c-.584.228-.68.497-.718.786-.105.813 8.512 1.755 12.838 2.022 4.61.284 13.918.403 13.85-.456l-.09-1.118c1.348.447 3.115 1.089 3.062 1.56-.157 1.4-10.63 1.407-15.957 1.135-5.205-.265-14.552-1.546-15.393-2.689m0-2.282c-.963-1.308 2.47-2.596 2.455-2.265l-.047 1.025c-.584.228-.68.497-.718.786-.105.813 8.512 1.755 12.838 2.022 4.61.284 13.918.404 13.85-.456l-.09-1.118c1.348.448 3.115 1.089 3.062 1.56-.157 1.4-10.63 1.407-15.957 1.136-5.205-.266-14.552-1.547-15.393-2.69m0-2.281c-.963-1.31 2.47-2.597 2.455-2.266l-.047 1.026c-.584.228-.68.496-.718.786-.105.813 8.512 1.754 12.838 2.021 4.61.285 13.918.404 13.85-.456l-.09-1.118c1.348.448 3.115 1.09 3.062 1.561-.157 1.4-10.63 1.407-15.957 1.135-5.205-.265-14.552-1.546-15.393-2.69m0-2.281c-.963-1.309 2.47-2.596 2.455-2.266l-.047 1.026c-.584.228-.68.497-.718.786-.105.813 8.512 1.755 12.838 2.022 4.61.284 13.918.403 13.85-.456l-.09-1.118c1.348.447 3.115 1.089 3.062 1.56-.157 1.4-10.63 1.407-15.957 1.135-5.205-.265-14.552-1.546-15.393-2.689m0-2.282c-.963-1.309 2.47-2.596 2.455-2.266l-.047 1.026c-.584.228-.68.497-.718.786-.105.813 8.512 1.755 12.838 2.022 4.61.284 13.918.404 13.85-.456l-.09-1.118c1.348.447 3.115 1.089 3.062 1.56-.157 1.4-10.63 1.407-15.957 1.136-5.205-.266-14.552-1.547-15.393-2.69m0-2.281c-.963-1.31 2.47-2.597 2.455-2.266l-.047 1.026c-.584.228-.68.496-.718.785-.105.813 8.512 1.755 12.838 2.022 4.61.285 13.918.404 13.85-.456l-.09-1.118c1.348.448 3.115 1.09 3.062 1.561-.157 1.4-10.63 1.406-15.957 1.135-5.205-.265-14.552-1.546-15.393-2.69m0-2.281c-.963-1.309 2.47-2.596 2.455-2.266l-.047 1.026c-.584.228-.68.497-.718.786-.105.813 8.512 1.755 12.838 2.021 4.61.285 13.918.404 13.85-.455l-.09-1.119c1.348.448 3.115 1.09 3.062 1.561-.157 1.4-10.63 1.407-15.957 1.135-5.205-.265-14.552-1.546-15.393-2.69m0-2.28c-.963-1.31 2.47-2.597 2.455-2.267l-.047 1.026c-.584.228-.68.497-.718.786-.105.813 8.512 1.755 12.838 2.022 4.61.284 13.918.403 13.85-.456l-.09-1.118c1.348.447 3.115 1.089 3.062 1.56-.157 1.4-10.63 1.407-15.957 1.136-5.205-.266-14.552-1.547-15.393-2.69m0-2.282c-.963-1.308 2.47-2.596 2.455-2.265l-.047 1.025c-.584.229-.68.497-.718.786-.105.813 8.512 1.755 12.838 2.022 4.61.284 13.918.404 13.85-.456l-.09-1.118c1.348.448 3.115 1.09 3.062 1.56-.157 1.4-10.63 1.407-15.957 1.136-5.205-.266-14.552-1.546-15.393-2.69m0-2.281c-.963-1.309 2.47-2.597 2.455-2.266l-.047 1.026c-.584.228-.68.497-.718.786-.105.813 8.512 1.755 12.838 2.021 4.61.285 13.918.404 13.85-.456l-.09-1.118c1.348.448 3.115 1.09 3.062 1.561-.157 1.4-10.63 1.407-15.957 1.135-5.205-.265-14.552-1.546-15.393-2.69m0-2.28c-.963-1.31 2.47-2.597 2.455-2.267l-.047 1.026c-.584.228-.68.497-.718.786-.105.813 8.512 1.755 12.838 2.022 4.61.284 13.918.403 13.85-.456l-.09-1.118c1.348.447 3.115 1.089 3.062 1.56-.157 1.4-10.63 1.407-15.957 1.135-5.205-.265-14.552-1.546-15.393-2.689m0-2.282c-.963-1.308 2.47-2.596 2.455-2.265l-.047 1.025c-.584.228-.68.497-.718.786-.105.813 8.512 1.755 12.838 2.022 4.61.284 13.918.404 13.85-.456l-.09-1.118c1.348.448 3.115 1.089 3.062 1.56-.157 1.4-10.63 1.407-15.957 1.136-5.205-.266-14.552-1.547-15.393-2.69m0-2.281c-.963-1.31 2.47-2.597 2.455-2.266l-.047 1.026c-.584.228-.68.496-.718.786-.105.813 8.512 1.754 12.838 2.021 4.61.285 13.918.404 13.85-.456l-.09-1.118c1.348.448 3.115 1.09 3.062 1.561-.157 1.4-10.63 1.407-15.957 1.135-5.205-.265-14.552-1.546-15.393-2.69m0-2.281c-.963-1.309 2.47-2.596 2.455-2.266l-.047 1.026c-.584.228-.68.497-.718.786-.105.813 8.512 1.755 12.838 2.022 4.61.284 13.918.403 13.85-.456l-.09-1.118c1.348.447 3.115 1.089 3.062 1.56-.157 1.4-10.63 1.407-15.957 1.135-5.205-.265-14.552-1.546-15.393-2.689m0-2.282c-.963-1.309 2.47-2.596 2.455-2.266l-.047 1.026c-.584.228-.68.497-.718.786-.105.813 8.512 1.755 12.838 2.022 4.61.284 13.918.404 13.85-.456l-.09-1.118c1.348.447 3.115 1.089 3.062 1.56-.157 1.4-10.63 1.407-15.957 1.136-5.205-.266-14.552-1.547-15.393-2.69m0-2.281c-.963-1.31 2.47-2.597 2.455-2.266l-.047 1.026c-.584.228-.68.496-.718.786-.105.812 8.512 1.754 12.838 2.021 4.61.285 13.918.404 13.85-.456l-.09-1.118c1.348.448 3.115 1.09 3.062 1.561-.157 1.4-10.63 1.407-15.957 1.135-5.205-.265-14.552-1.546-15.393-2.69m0-2.281c-.963-1.309 2.47-2.596 2.455-2.266l-.047 1.026c-.584.228-.68.497-.718.786-.105.813 8.512 1.755 12.838 2.022 4.61.284 13.918.403 13.85-.456l-.09-1.118c1.348.447 3.115 1.088 3.062 1.56-.157 1.4-10.63 1.407-15.957 1.135-5.205-.265-14.552-1.546-15.393-2.69m0-2.28c-.963-1.31 2.47-2.597 2.455-2.267l-.047 1.026c-.584.228-.68.497-.718.786-.105.813 8.512 1.755 12.838 2.022 4.61.284 13.918.403 13.85-.456l-.09-1.118c1.348.447 3.115 1.089 3.062 1.56-.157 1.4-10.63 1.407-15.957 1.136-5.205-.266-14.552-1.547-15.393-2.69m0-2.281c-.963-1.31 2.47-2.597 2.455-2.266l-.047 1.025c-.584.229-.68.497-.718.786-.105.813 8.512 1.755 12.838 2.022 4.61.285 13.918.404 13.85-.456l-.09-1.118c1.348.448 3.115 1.09 3.062 1.561-.157 1.4-10.63 1.406-15.957 1.135-5.205-.266-14.552-1.546-15.393-2.69m0-2.281c-.963-1.309 2.47-2.597 2.455-2.266l-.047 1.026c-.584.228-.68.497-.718.786-.105.813 8.512 1.755 12.838 2.021 4.61.285 13.918.404 13.85-.456l-.09-1.118c1.348.448 3.115 1.09 3.062 1.561-.157 1.4-10.63 1.407-15.957 1.135-5.205-.265-14.552-1.546-15.393-2.69m0-2.28c-.963-1.31 2.47-2.597 2.455-2.267l-.047 1.026c-.584.228-.68.497-.718.786-.105.813 8.512 1.755 12.838 2.022 4.61.284 13.918.403 13.85-.456l-.09-1.118c1.348.447 3.115 1.089 3.062 1.56-.157 1.4-10.63 1.407-15.957 1.135-5.205-.265-14.552-1.546-15.393-2.689m0-2.282c-.963-1.308 2.47-2.596 2.455-2.265l-.047 1.025c-.584.228-.68.497-.718.786-.105.813 8.512 1.755 12.838 2.022 4.61.284 13.918.404 13.85-.456l-.09-1.118c1.348.448 3.115 1.089 3.062 1.56-.157 1.4-10.63 1.407-15.957 1.136-5.205-.266-14.552-1.547-15.393-2.69m0-2.281c-.963-1.31 2.47-2.597 2.455-2.266l-.047 1.026c-.584.228-.68.497-.718.786-.105.813 8.512 1.754 12.838 2.021 4.61.285 13.918.404 13.85-.456l-.09-1.118c1.348.448 3.115 1.09 3.062 1.561-.157 1.4-10.63 1.407-15.957 1.135-5.205-.265-14.552-1.546-15.393-2.69m0-2.281c-.963-1.309 2.47-2.596 2.455-2.266l-.047 1.026c-.584.228-.68.497-.718.786-.105.813 8.512 1.755 12.838 2.022 4.61.284 13.918.403 13.85-.456l-.09-1.118c1.348.447 3.115 1.089 3.062 1.56-.157 1.4-10.63 1.407-15.957 1.135-5.205-.265-14.552-1.546-15.393-2.689m0-2.282c-.963-1.308 2.47-2.596 2.455-2.265l-.047 1.025c-.584.228-.68.497-.718.786-.105.813 8.512 1.755 12.838 2.022 4.61.284 13.918.404 13.85-.456l-.09-1.118c1.348.447 3.115 1.089 3.062 1.56-.157 1.4-10.63 1.407-15.957 1.136-5.205-.266-14.552-1.547-15.393-2.69m0-2.281c-.963-1.31 2.47-2.597 2.455-2.266l-.047 1.026c-.584.228-.68.496-.718.786-.105.812 8.512 1.754 12.838 2.021 4.61.285 13.918.404 13.85-.456l-.09-1.118c1.348.448 3.115 1.09 3.062 1.561-.157 1.4-10.63 1.407-15.957 1.135-5.205-.265-14.552-1.546-15.393-2.69m0-2.281c-.963-1.309 2.47-2.596 2.455-2.266l-.047 1.026c-.584.228-.68.497-.718.786-.105.813 8.512 1.755 12.838 2.022 4.61.284 13.918.403 13.85-.456l-.09-1.118c1.348.447 3.115 1.089 3.062 1.56-.157 1.4-10.63 1.407-15.957 1.135-5.205-.265-14.552-1.546-15.393-2.69m0-2.28c-.963-1.31 2.47-2.597 2.455-2.267l-.047 1.026c-.584.228-.68.497-.718.786-.105.813 8.512 1.755 12.838 2.022 4.61.284 13.918.404 13.85-.456l-.09-1.118c1.348.447 3.115 1.089 3.062 1.56-.157 1.4-10.63 1.407-15.957 1.136-5.205-.266-14.552-1.547-15.393-2.69m0-2.281c-.963-1.31 2.47-2.597 2.455-2.266l-.047 1.025c-.584.229-.68.497-.718.786-.105.813 8.512 1.755 12.838 2.022 4.61.285 13.918.404 13.85-.456l-.09-1.118c1.348.448 3.115 1.09 3.062 1.561-.157 1.4-10.63 1.406-15.957 1.135-5.205-.266-14.552-1.546-15.393-2.69m0-2.281c-.963-1.309 2.47-2.597 2.455-2.266l-.047 1.026c-.584.228-.68.497-.718.786-.105.813 8.512 1.755 12.838 2.021 4.61.285 13.918.404 13.85-.455l-.09-1.119c1.348.448 3.115 1.09 3.062 1.561-.157 1.4-10.63 1.407-15.957 1.135-5.205-.265-14.552-1.546-15.393-2.69m0-2.28c-.963-1.31 2.47-2.597 2.455-2.267l-.047 1.026c-.584.228-.68.497-.718.786-.105.813 8.512 1.755 12.838 2.022 4.61.284 13.918.403 13.85-.456l-.09-1.118c1.348.447 3.115 1.089 3.062 1.56-.157 1.4-10.63 1.407-15.957 1.136-5.205-.266-14.552-1.547-15.393-2.69" fill="#666"/><g transform="matrix(.40945 0 0 .40945 106.694 -117.943)" stroke="url(#U)" stroke-width=".5"><path d="M238.733 891.71c-2.352-3.208 6.031-6.364 5.995-5.554l-.113 2.514c-1.429.56-1.664 1.218-1.755 1.927-.255 1.993 20.79 4.301 31.355 4.955 11.259.698 33.991.99 33.824-1.117l-.217-2.74c3.292 1.096 7.607 2.669 7.478 3.825-.383 3.43-25.964 3.448-38.972 2.782-12.713-.65-35.541-3.79-37.595-6.592 0 0 0 0 0 0" fill="url(#V)" stroke="url(#W)"/><path d="M238.733 886.117c-2.352-3.208 6.031-6.364 5.995-5.554l-.113 2.515c-1.429.559-1.664 1.218-1.755 1.926-.255 1.993 20.79 4.302 31.355 4.956 11.259.697 33.991.99 33.824-1.118l-.217-2.74c3.292 1.097 7.607 2.669 7.478 3.825-.383 3.43-25.964 3.448-38.972 2.782-12.713-.65-35.541-3.79-37.595-6.592 0 0 0 0 0 0" fill="url(#X)" stroke="url(#Y)"/><path d="M238.733 880.524c-2.352-3.208 6.031-6.364 5.995-5.553l-.113 2.514c-1.429.56-1.664 1.218-1.755 1.926-.255 1.993 20.79 4.302 31.355 4.956 11.259.697 33.991.99 33.824-1.118l-.217-2.74c3.292 1.097 7.607 2.669 7.478 3.826-.383 3.43-25.964 3.447-38.972 2.781-12.713-.65-35.541-3.79-37.595-6.591 0 0 0 0 0 0" fill="url(#Z)" stroke="url(#aa)"/><path d="M238.733 874.932c-2.352-3.208 6.031-6.364 5.995-5.554l-.113 2.514c-1.429.56-1.664 1.218-1.755 1.927-.255 1.992 20.79 4.301 31.355 4.955 11.259.697 33.991.99 33.824-1.117l-.217-2.741c3.292 1.097 7.607 2.67 7.478 3.826-.383 3.43-25.964 3.447-38.972 2.782-12.713-.65-35.541-3.79-37.595-6.592 0 0 0 0 0 0" fill="url(#ab)" stroke="url(#ac)"/><path d="M238.733 869.339c-2.352-3.208 6.031-6.364 5.995-5.554l-.113 2.514c-1.429.56-1.664 1.218-1.755 1.927-.255 1.993 20.79 4.301 31.355 4.955 11.259.697 33.991.99 33.824-1.117l-.217-2.74c3.292 1.096 7.607 2.669 7.478 3.825-.383 3.43-25.964 3.448-38.972 2.782-12.713-.65-35.541-3.79-37.595-6.592 0 0 0 0 0 0" fill="url(#ad)" stroke="url(#ae)"/><path d="M238.733 863.746c-2.352-3.208 6.031-6.364 5.995-5.554l-.113 2.515c-1.429.559-1.664 1.217-1.755 1.926-.255 1.993 20.79 4.301 31.355 4.956 11.259.697 33.991.989 33.824-1.118l-.217-2.74c3.292 1.097 7.607 2.669 7.478 3.825-.383 3.43-25.964 3.448-38.972 2.782-12.713-.65-35.541-3.79-37.595-6.592 0 0 0 0 0 0" fill="url(#af)" stroke="url(#ag)"/><path d="M238.733 858.153c-2.352-3.208 6.031-6.364 5.995-5.553l-.113 2.514c-1.429.559-1.664 1.218-1.755 1.926-.255 1.993 20.79 4.302 31.355 4.956 11.259.697 33.991.99 33.824-1.118l-.217-2.74c3.292 1.097 7.607 2.669 7.478 3.826-.383 3.43-25.964 3.447-38.972 2.781-12.713-.65-35.541-3.79-37.595-6.592 0 0 0 0 0 0" fill="url(#ah)" stroke="url(#ai)"/><path d="M238.733 852.56c-2.352-3.207 6.031-6.363 5.995-5.553l-.113 2.514c-1.429.56-1.664 1.218-1.755 1.927-.255 1.992 20.79 4.3 31.355 4.955 11.259.697 33.991.99 33.824-1.118l-.217-2.74c3.292 1.097 7.607 2.67 7.478 3.826-.383 3.43-25.964 3.447-38.972 2.782-12.713-.65-35.541-3.79-37.595-6.592 0 0 0 0 0 0" fill="url(#aj)" stroke="url(#ak)"/><path d="M238.733 846.968c-2.352-3.208 6.031-6.364 5.995-5.554l-.113 2.514c-1.429.56-1.664 1.218-1.755 1.927-.255 1.992 20.79 4.301 31.355 4.955 11.259.697 33.991.99 33.824-1.117l-.217-2.74c3.292 1.096 7.607 2.668 7.478 3.825-.383 3.43-25.964 3.447-38.972 2.782-12.713-.65-35.541-3.79-37.595-6.592 0 0 0 0 0 0" fill="url(#al)" stroke="url(#am)"/><path d="M238.733 841.375c-2.352-3.208 6.031-6.364 5.995-5.554l-.113 2.515c-1.429.559-1.664 1.217-1.755 1.926-.255 1.993 20.79 4.301 31.355 4.956 11.259.697 33.991.989 33.824-1.118l-.217-2.74c3.292 1.096 7.607 2.669 7.478 3.825-.383 3.43-25.964 3.448-38.972 2.782-12.713-.65-35.541-3.79-37.595-6.592 0 0 0 0 0 0" fill="url(#an)" stroke="url(#ao)"/><path d="M238.733 835.782c-2.352-3.208 6.031-6.364 5.995-5.553l-.113 2.514c-1.429.559-1.664 1.218-1.755 1.926-.255 1.993 20.79 4.302 31.355 4.956 11.259.697 33.991.99 33.824-1.118l-.217-2.74c3.292 1.097 7.607 2.669 7.478 3.826-.383 3.43-25.964 3.447-38.972 2.781-12.713-.65-35.541-3.79-37.595-6.592 0 0 0 0 0 0" fill="url(#ap)" stroke="url(#aq)"/><path d="M238.733 830.19c-2.352-3.209 6.031-6.364 5.995-5.554l-.113 2.514c-1.429.56-1.664 1.218-1.755 1.927-.255 1.992 20.79 4.3 31.355 4.955 11.259.697 33.991.99 33.824-1.118l-.217-2.74c3.292 1.097 7.607 2.67 7.478 3.826-.383 3.43-25.964 3.447-38.972 2.782-12.713-.651-35.541-3.79-37.595-6.592 0 0 0 0 0 0" fill="url(#ar)" stroke="url(#as)"/><path d="M238.733 824.597c-2.352-3.208 6.031-6.364 5.995-5.554l-.113 2.514c-1.429.56-1.664 1.218-1.755 1.927-.255 1.992 20.79 4.301 31.355 4.955 11.259.697 33.991.99 33.824-1.117l-.217-2.74c3.292 1.096 7.607 2.668 7.478 3.825-.383 3.43-25.964 3.447-38.972 2.782-12.713-.65-35.541-3.79-37.595-6.592 0 0 0 0 0 0" fill="url(#at)" stroke="url(#au)"/><path d="M238.733 819.004c-2.352-3.208 6.031-6.364 5.995-5.554l-.113 2.514c-1.429.56-1.664 1.218-1.755 1.927-.255 1.993 20.79 4.301 31.355 4.955 11.259.698 33.991.99 33.824-1.117l-.217-2.74c3.292 1.096 7.607 2.669 7.478 3.825-.383 3.43-25.964 3.448-38.972 2.782-12.713-.65-35.541-3.79-37.595-6.592 0 0 0 0 0 0" fill="url(#av)" stroke="url(#aw)"/><path d="M238.733 813.411c-2.352-3.208 6.031-6.364 5.995-5.554l-.113 2.515c-1.429.559-1.664 1.218-1.755 1.926-.255 1.993 20.79 4.302 31.355 4.956 11.259.697 33.991.99 33.824-1.118l-.217-2.74c3.292 1.097 7.607 2.669 7.478 3.825-.383 3.43-25.964 3.448-38.972 2.782-12.713-.65-35.541-3.79-37.595-6.592 0 0 0 0 0 0" fill="url(#ax)" stroke="url(#ay)"/><path d="M238.733 807.819c-2.352-3.209 6.031-6.365 5.995-5.554l-.113 2.514c-1.429.56-1.664 1.218-1.755 1.926-.255 1.993 20.79 4.302 31.355 4.956 11.259.697 33.991.99 33.824-1.118l-.217-2.74c3.292 1.097 7.607 2.67 7.478 3.826-.383 3.43-25.964 3.447-38.972 2.782-12.713-.651-35.541-3.79-37.595-6.592 0 0 0 0 0 0" fill="url(#az)" stroke="url(#aA)"/><path d="M238.733 802.226c-2.352-3.208 6.031-6.364 5.995-5.554l-.113 2.514c-1.429.56-1.664 1.218-1.755 1.927-.255 1.992 20.79 4.301 31.355 4.955 11.259.697 33.991.99 33.824-1.117l-.217-2.74c3.292 1.096 7.607 2.668 7.478 3.825-.383 3.43-25.964 3.447-38.972 2.782-12.713-.65-35.541-3.79-37.595-6.592 0 0 0 0 0 0" fill="url(#aB)" stroke="url(#aC)"/><path d="M238.733 796.633c-2.352-3.208 6.031-6.364 5.995-5.554l-.113 2.514c-1.429.56-1.664 1.218-1.755 1.927-.255 1.993 20.79 4.301 31.355 4.955 11.259.697 33.991.99 33.824-1.117l-.217-2.74c3.292 1.096 7.607 2.669 7.478 3.825-.383 3.43-25.964 3.448-38.972 2.782-12.713-.65-35.541-3.79-37.595-6.592 0 0 0 0 0 0" fill="url(#aD)" stroke="url(#aE)"/><path d="M238.733 791.04c-2.352-3.208 6.031-6.364 5.995-5.554l-.113 2.515c-1.429.559-1.664 1.217-1.755 1.926-.255 1.993 20.79 4.301 31.355 4.956 11.259.697 33.991.99 33.824-1.118l-.217-2.74c3.292 1.097 7.607 2.669 7.478 3.825-.383 3.43-25.964 3.448-38.972 2.782-12.713-.65-35.541-3.79-37.595-6.592 0 0 0 0 0 0" fill="url(#aF)" stroke="url(#aG)"/><path d="M238.733 785.447c-2.352-3.208 6.031-6.364 5.995-5.553l-.113 2.514c-1.429.56-1.664 1.218-1.755 1.926-.255 1.993 20.79 4.302 31.355 4.956 11.259.697 33.991.99 33.824-1.118l-.217-2.74c3.292 1.097 7.607 2.669 7.478 3.826-.383 3.43-25.964 3.447-38.972 2.781-12.713-.65-35.541-3.79-37.595-6.592 0 0 0 0 0 0" fill="url(#aH)" stroke="url(#aI)"/><path d="M238.733 779.855c-2.352-3.208 6.031-6.364 5.995-5.554l-.113 2.514c-1.429.56-1.664 1.218-1.755 1.927-.255 1.992 20.79 4.3 31.355 4.955 11.259.697 33.991.99 33.824-1.118l-.217-2.74c3.292 1.097 7.607 2.67 7.478 3.826-.383 3.43-25.964 3.447-38.972 2.782-12.713-.65-35.541-3.79-37.595-6.592 0 0 0 0 0 0" fill="url(#aJ)" stroke="url(#aK)"/><path d="M238.733 774.262c-2.352-3.208 6.031-6.364 5.995-5.554l-.113 2.514c-1.429.56-1.664 1.218-1.755 1.927-.255 1.992 20.79 4.301 31.355 4.955 11.259.697 33.991.99 33.824-1.117l-.217-2.74c3.292 1.096 7.607 2.668 7.478 3.825-.383 3.43-25.964 3.447-38.972 2.782-12.713-.65-35.541-3.79-37.595-6.592 0 0 0 0 0 0" fill="url(#aL)" stroke="url(#aM)"/><path d="M238.733 768.67c-2.352-3.209 6.031-6.365 5.995-5.555l-.113 2.515c-1.429.559-1.664 1.217-1.755 1.926-.255 1.993 20.79 4.301 31.355 4.956 11.259.697 33.991.989 33.824-1.118l-.217-2.74c3.292 1.096 7.607 2.669 7.478 3.825-.383 3.43-25.964 3.448-38.972 2.782-12.713-.65-35.541-3.79-37.595-6.592 0 0 0 0 0 0" fill="url(#aN)" stroke="url(#aO)"/><path d="M238.733 763.076c-2.352-3.208 6.031-6.364 5.995-5.553l-.113 2.514c-1.429.559-1.664 1.218-1.755 1.926-.255 1.993 20.79 4.302 31.355 4.956 11.259.697 33.991.99 33.824-1.118l-.217-2.74c3.292 1.097 7.607 2.669 7.478 3.826-.383 3.43-25.964 3.447-38.972 2.781-12.713-.65-35.541-3.79-37.595-6.592 0 0 0 0 0 0" fill="url(#aP)" stroke="url(#aQ)"/><path d="M238.733 757.484c-2.352-3.209 6.031-6.364 5.995-5.554l-.113 2.514c-1.429.56-1.664 1.218-1.755 1.927-.255 1.992 20.79 4.3 31.355 4.955 11.259.697 33.991.99 33.824-1.118l-.217-2.74c3.292 1.097 7.607 2.67 7.478 3.826-.383 3.43-25.964 3.447-38.972 2.782-12.713-.651-35.541-3.79-37.595-6.592 0 0 0 0 0 0" fill="url(#aR)" stroke="url(#aS)"/><path d="M238.733 751.89c-2.352-3.207 6.031-6.363 5.995-5.553l-.113 2.514c-1.429.56-1.664 1.218-1.755 1.927-.255 1.992 20.79 4.301 31.355 4.955 11.259.697 33.991.99 33.824-1.117l-.217-2.74c3.292 1.096 7.607 2.668 7.478 3.825-.383 3.43-25.964 3.447-38.972 2.782-12.713-.65-35.541-3.79-37.595-6.592 0 0 0 0 0 0" fill="url(#aT)" stroke="url(#aU)"/><path d="M238.733 746.298c-2.352-3.208 6.031-6.364 5.995-5.554l-.113 2.514c-1.429.56-1.664 1.218-1.755 1.927-.255 1.993 20.79 4.301 31.355 4.955 11.259.698 33.991.99 33.824-1.117l-.217-2.74c3.292 1.096 7.607 2.669 7.478 3.825-.383 3.43-25.964 3.448-38.972 2.782-12.713-.65-35.541-3.79-37.595-6.592 0 0 0 0 0 0" fill="url(#aV)" stroke="url(#aW)"/><path d="M238.733 740.705c-2.352-3.208 6.031-6.364 5.995-5.554l-.113 2.515c-1.429.559-1.664 1.218-1.755 1.926-.255 1.993 20.79 4.302 31.355 4.956 11.259.697 33.991.99 33.824-1.118l-.217-2.74c3.292 1.097 7.607 2.669 7.478 3.825-.383 3.43-25.964 3.448-38.972 2.782-12.713-.65-35.541-3.79-37.595-6.592 0 0 0 0 0 0" fill="url(#aX)" stroke="url(#aY)"/><path d="M238.733 735.113c-2.352-3.209 6.031-6.365 5.995-5.554l-.113 2.514c-1.429.56-1.664 1.218-1.755 1.926-.255 1.993 20.79 4.302 31.355 4.956 11.259.697 33.991.99 33.824-1.118l-.217-2.74c3.292 1.097 7.607 2.67 7.478 3.826-.383 3.43-25.964 3.447-38.972 2.782-12.713-.651-35.541-3.79-37.595-6.592 0 0 0 0 0 0" fill="url(#aZ)" stroke="url(#ba)"/><path d="M238.733 729.52c-2.352-3.208 6.031-6.364 5.995-5.554l-.113 2.514c-1.429.56-1.664 1.218-1.755 1.927-.255 1.992 20.79 4.301 31.355 4.955 11.259.697 33.991.99 33.824-1.117l-.217-2.74c3.292 1.096 7.607 2.668 7.478 3.825-.383 3.43-25.964 3.447-38.972 2.782-12.713-.65-35.541-3.79-37.595-6.592 0 0 0 0 0 0" fill="url(#bb)" stroke="url(#bc)"/><path d="M238.733 723.927c-2.352-3.208 6.031-6.364 5.995-5.554l-.113 2.514c-1.429.56-1.664 1.218-1.755 1.927-.255 1.993 20.79 4.301 31.355 4.955 11.259.697 33.991.99 33.824-1.117l-.217-2.74c3.292 1.096 7.607 2.669 7.478 3.825-.383 3.43-25.964 3.448-38.972 2.782-12.713-.65-35.541-3.79-37.595-6.592 0 0 0 0 0 0" fill="url(#bd)" stroke="url(#be)"/><path d="M238.733 718.334c-2.352-3.208 6.031-6.364 5.995-5.554l-.113 2.515c-1.429.559-1.664 1.218-1.755 1.926-.255 1.993 20.79 4.301 31.355 4.956 11.259.697 33.991.99 33.824-1.118l-.217-2.74c3.292 1.097 7.607 2.669 7.478 3.825-.383 3.43-25.964 3.448-38.972 2.782-12.713-.65-35.541-3.79-37.595-6.592 0 0 0 0 0 0" fill="url(#bf)" stroke="url(#bg)"/><path d="M238.733 712.741c-2.352-3.208 6.031-6.364 5.995-5.553l-.113 2.514c-1.429.56-1.664 1.218-1.755 1.926-.255 1.993 20.79 4.302 31.355 4.956 11.259.697 33.991.99 33.824-1.118l-.217-2.74c3.292 1.097 7.607 2.669 7.478 3.826-.383 3.43-25.964 3.447-38.972 2.781-12.713-.65-35.541-3.79-37.595-6.592 0 0 0 0 0 0" fill="url(#bh)" stroke="url(#bi)"/><path d="M238.733 707.149c-2.352-3.208 6.031-6.364 5.995-5.554l-.113 2.514c-1.429.56-1.664 1.218-1.755 1.927-.255 1.992 20.79 4.3 31.355 4.955 11.259.697 33.991.99 33.824-1.118l-.217-2.74c3.292 1.097 7.607 2.67 7.478 3.826-.383 3.43-25.964 3.447-38.972 2.782-12.713-.65-35.541-3.79-37.595-6.592 0 0 0 0 0 0" fill="url(#bj)" stroke="url(#bk)"/><path d="M238.733 701.556c-2.352-3.208 6.031-6.364 5.995-5.554l-.113 2.514c-1.429.56-1.664 1.218-1.755 1.927-.255 1.992 20.79 4.301 31.355 4.955 11.259.697 33.991.99 33.824-1.117l-.217-2.74c3.292 1.096 7.607 2.668 7.478 3.825-.383 3.43-25.964 3.447-38.972 2.782-12.713-.65-35.541-3.79-37.595-6.592 0 0 0 0 0 0" fill="url(#bl)" stroke="url(#bm)"/><path d="M238.733 695.963c-2.352-3.208 6.031-6.364 5.995-5.554l-.113 2.515c-1.429.559-1.664 1.217-1.755 1.926-.255 1.993 20.79 4.301 31.355 4.956 11.259.697 33.991.989 33.824-1.118l-.217-2.74c3.292 1.096 7.607 2.669 7.478 3.825-.383 3.43-25.964 3.448-38.972 2.782-12.713-.65-35.541-3.79-37.595-6.592 0 0 0 0 0 0" fill="url(#bn)" stroke="url(#bo)"/><path d="M238.733 690.37c-2.352-3.208 6.031-6.364 5.995-5.553l-.113 2.514c-1.429.559-1.664 1.218-1.755 1.926-.255 1.993 20.79 4.302 31.355 4.956 11.259.697 33.991.99 33.824-1.118l-.217-2.74c3.292 1.097 7.607 2.669 7.478 3.826-.383 3.43-25.964 3.447-38.972 2.781-12.713-.65-35.541-3.79-37.595-6.592 0 0 0 0 0 0" fill="url(#bp)" stroke="url(#bq)"/><path d="M238.733 684.778c-2.352-3.209 6.031-6.364 5.995-5.554l-.113 2.514c-1.429.56-1.664 1.218-1.755 1.927-.255 1.992 20.79 4.3 31.355 4.955 11.259.697 33.991.99 33.824-1.118l-.217-2.74c3.292 1.097 7.607 2.67 7.478 3.826-.383 3.43-25.964 3.447-38.972 2.782-12.713-.651-35.541-3.79-37.595-6.592 0 0 0 0 0 0" fill="url(#br)" stroke="url(#bs)"/><path d="M238.733 679.185c-2.352-3.208 6.031-6.364 5.995-5.554l-.113 2.514c-1.429.56-1.664 1.218-1.755 1.927-.255 1.992 20.79 4.301 31.355 4.955 11.259.697 33.991.99 33.824-1.117l-.217-2.74c3.292 1.096 7.607 2.668 7.478 3.825-.383 3.43-25.964 3.447-38.972 2.782-12.713-.65-35.541-3.79-37.595-6.592 0 0 0 0 0 0" fill="url(#bt)" stroke="url(#bu)"/><path d="M238.733 673.592c-2.352-3.208 6.031-6.364 5.995-5.554l-.113 2.514c-1.429.56-1.664 1.218-1.755 1.927-.255 1.993 20.79 4.301 31.355 4.955 11.259.698 33.991.99 33.824-1.117l-.217-2.74c3.292 1.096 7.607 2.669 7.478 3.825-.383 3.43-25.964 3.448-38.972 2.782-12.713-.65-35.541-3.79-37.595-6.592 0 0 0 0 0 0" fill="url(#bv)" stroke="url(#bw)"/><path d="M238.733 668c-2.352-3.209 6.031-6.365 5.995-5.555l-.113 2.515c-1.429.559-1.664 1.218-1.755 1.926-.255 1.993 20.79 4.302 31.355 4.956 11.259.697 33.991.99 33.824-1.118l-.217-2.74c3.292 1.097 7.607 2.669 7.478 3.825-.383 3.43-25.964 3.448-38.972 2.782-12.713-.65-35.541-3.79-37.595-6.592 0 0 0 0 0 0" fill="url(#bx)" stroke="url(#by)"/><path d="M238.733 662.407c-2.352-3.209 6.031-6.365 5.995-5.554l-.113 2.514c-1.429.56-1.664 1.218-1.755 1.926-.255 1.993 20.79 4.302 31.355 4.956 11.259.697 33.991.99 33.824-1.118l-.217-2.74c3.292 1.097 7.607 2.67 7.478 3.826-.383 3.43-25.964 3.447-38.972 2.782-12.713-.651-35.541-3.79-37.595-6.592 0 0 0 0 0 0" fill="url(#bz)" stroke="url(#bA)"/><path d="M238.733 656.814c-2.352-3.208 6.031-6.364 5.995-5.554l-.113 2.514c-1.429.56-1.664 1.218-1.755 1.927-.255 1.992 20.79 4.301 31.355 4.955 11.259.697 33.991.99 33.824-1.117l-.217-2.74c3.292 1.096 7.607 2.668 7.478 3.825-.383 3.43-25.964 3.447-38.972 2.782-12.713-.65-35.541-3.79-37.595-6.592 0 0 0 0 0 0" fill="url(#bB)" stroke="url(#bC)"/><path d="M238.733 651.221c-2.352-3.208 6.031-6.364 5.995-5.554l-.113 2.514c-1.429.56-1.664 1.218-1.755 1.927-.255 1.993 20.79 4.301 31.355 4.955 11.259.697 33.991.99 33.824-1.117l-.217-2.74c3.292 1.096 7.607 2.669 7.478 3.825-.383 3.43-25.964 3.448-38.972 2.782-12.713-.65-35.541-3.79-37.595-6.592 0 0 0 0 0 0" fill="url(#bD)" stroke="url(#bE)"/><path d="M238.733 645.628c-2.352-3.208 6.031-6.364 5.995-5.554l-.113 2.515c-1.429.559-1.664 1.218-1.755 1.926-.255 1.993 20.79 4.301 31.355 4.956 11.259.697 33.991.99 33.824-1.118l-.217-2.74c3.292 1.097 7.607 2.669 7.478 3.825-.383 3.43-25.964 3.448-38.972 2.782-12.713-.65-35.541-3.79-37.595-6.592 0 0 0 0 0 0" fill="url(#bF)" stroke="url(#bG)"/><path d="M238.733 640.035c-2.352-3.208 6.031-6.364 5.995-5.553l-.113 2.514c-1.429.56-1.664 1.218-1.755 1.926-.255 1.993 20.79 4.302 31.355 4.956 11.259.697 33.991.99 33.824-1.118l-.217-2.74c3.292 1.097 7.607 2.669 7.478 3.826-.383 3.43-25.964 3.447-38.972 2.781-12.713-.65-35.541-3.79-37.595-6.592 0 0 0 0 0 0" fill="url(#bH)" stroke="url(#bI)"/><path d="M238.733 634.443c-2.352-3.208 6.031-6.364 5.995-5.554l-.113 2.514c-1.429.56-1.664 1.218-1.755 1.927-.255 1.992 20.79 4.3 31.355 4.955 11.259.697 33.991.99 33.824-1.117l-.217-2.741c3.292 1.097 7.607 2.67 7.478 3.826-.383 3.43-25.964 3.447-38.972 2.782-12.713-.65-35.541-3.79-37.595-6.592 0 0 0 0 0 0" fill="url(#bJ)" stroke="url(#bK)"/><path d="M238.733 628.85c-2.352-3.208 6.031-6.364 5.995-5.554l-.113 2.514c-1.429.56-1.664 1.218-1.755 1.927-.255 1.992 20.79 4.301 31.355 4.955 11.259.697 33.991.99 33.824-1.117l-.217-2.74c3.292 1.096 7.607 2.668 7.478 3.825-.383 3.43-25.964 3.448-38.972 2.782-12.713-.65-35.541-3.79-37.595-6.592 0 0 0 0 0 0" fill="url(#bL)" stroke="url(#bM)"/><path d="M238.733 623.257c-2.352-3.208 6.031-6.364 5.995-5.554l-.113 2.515c-1.429.559-1.664 1.217-1.755 1.926-.255 1.993 20.79 4.301 31.355 4.956 11.259.697 33.991.989 33.824-1.118l-.217-2.74c3.292 1.096 7.607 2.669 7.478 3.825-.383 3.43-25.964 3.448-38.972 2.782-12.713-.65-35.541-3.79-37.595-6.592 0 0 0 0 0 0" fill="url(#bN)" stroke="url(#bO)"/><path d="M238.733 617.664c-2.352-3.208 6.031-6.364 5.995-5.553l-.113 2.514c-1.429.559-1.664 1.218-1.755 1.926-.255 1.993 20.79 4.302 31.355 4.956 11.259.697 33.991.99 33.824-1.118l-.217-2.74c3.292 1.097 7.607 2.669 7.478 3.826-.383 3.43-25.964 3.447-38.972 2.781-12.713-.65-35.541-3.79-37.595-6.592 0 0 0 0 0 0" fill="url(#bP)" stroke="url(#bQ)"/><path d="M238.733 612.072c-2.352-3.209 6.031-6.364 5.995-5.554l-.113 2.514c-1.429.56-1.664 1.218-1.755 1.927-.255 1.992 20.79 4.3 31.355 4.955 11.259.697 33.991.99 33.824-1.118l-.217-2.74c3.292 1.097 7.607 2.67 7.478 3.826-.383 3.43-25.964 3.447-38.972 2.782-12.713-.651-35.541-3.79-37.595-6.592 0 0 0 0 0 0" fill="url(#bR)" stroke="url(#bS)"/><path d="M238.733 606.479c-2.352-3.208 4.781-6.498 4.745-5.688l.043 2.559c-.027-.032-.808 1.02-.66 2.016.294 1.987 20.789 4.301 31.354 4.955 11.259.697 33.22.908 33.824-1.117l.765-2.562c3.292 1.097 6.625 2.49 6.496 3.647-.383 3.43-25.964 3.447-38.972 2.782-12.713-.65-35.541-3.79-37.595-6.592h0" fill="url(#bT)" stroke="url(#bU)"/></g><path d="M65.401 964.245h62.967c1.013 0 1.632-.895 1.632 1.094 0 0-.439 1.332-1.11 1.703-2.124 1.173-7.773.851-7.773.851H72.26s-5.65.322-7.773-.851c-.671-.371-1.11-1.703-1.11-1.703-.446-.684 1.011-1.094 2.024-1.094z" fill="url(#bV)" stroke="#999" stroke-width=".54" stroke-linecap="round" stroke-linejoin="round" transform="translate(0 -796.362)"/><path d="M96.688 952.362c-12.469 0-22.732 3.862-24.22 8.869h48.44c-1.487-5.007-11.75-8.869-24.22-8.869z" fill="url(#bW)" stroke="url(#bX)" stroke-width=".54" transform="translate(0 -796.362)"/><path d="M96.688 952.362c-12.469 0-22.732 3.862-24.22 8.869h48.44c-1.487-5.007-11.75-8.869-24.22-8.869z" fill="url(#bY)" transform="translate(0 -796.362)"/><path d="M66.708 960.12h59.96c1.014 0 3.332 1.178 3.332 2.175V965.672H63.377V962.296c0-.997 2.318-2.174 3.331-2.174z" fill="url(#bZ)" stroke="url(#ca)" stroke-width=".54" stroke-linecap="round" stroke-linejoin="round" transform="translate(0 -796.362)"/><path d="M98.43 952.4c-.63.12-1.23.404-1.783.73-.827.487-1.777 1.011-2.249 1.8H90.35s-.077-.369 0-.527c.333-.688 1.799-1.425 1.799-1.425s.579-.321.9-.356c3.598-.392 5.819-.223 5.819-.223h-.438z" fill="url(#cb)" stroke="url(#cc)" stroke-width=".54" stroke-linecap="round" stroke-linejoin="round" transform="translate(0 -796.362)"/><path d="M89.655 966.52c4.743-.381 9.533-.39 14.275 0 2.796.23 8.304 1.373 8.304 1.373s-3.17 1.987-4.442 3.331c-.917.97-2.22 3.332-2.22 3.332l-1.11 34.422v8.883l-1.111 13.324-5.685 16.656h-2.06l-5.58-16.656-1.11-13.324v-8.883l-1.11-34.422s-1.304-2.362-2.221-3.332c-1.272-1.344-4.442-3.33-4.442-3.33s5.647-1.145 8.512-1.375z" fill="url(#cd)" transform="translate(0 -796.362)"/><path d="M104.895 973.522c-.572 3.67-4.59 4.853-7.189 6.586-2.387 1.59-6.107 2.22-8.142 2.22-.48 0-1.018-1.11-1.018-1.11v-2.22s-1.467.562-2.036 1.11c-.917.883-2.036 1.996-2.036 3.33 0 1.335.958 2.702 2.036 3.332 1.197.698 2.732.237 4.071 0 3.178-.563 6.468-1.407 9.161-3.331 3.818-2.729 9.28-6.126 9.16-11.104-.014-.585-.81-.615-1.11-1.11" fill="url(#ce)" transform="translate(0 -796.362)"/><path d="M104.357 1005.933c.972 5.3-3.775 6.487-6.801 8.48-2.215 1.457-5.725 2.119-7.668 2.119-.458 0-.963-1.06-.963-1.06v-2.12s-1.415.55-1.952 1.06c-.9.856-1.943 1.906-1.943 3.18 0 1.274.913 2.579 1.943 3.18 1.142.666 2.607.226 3.886 0 3.033-.537 6.174-1.344 8.744-3.18 3.645-2.604 8.859-5.848 8.744-10.6-.048-1.997-2.193-3.474-3.886-4.239" fill="url(#cf)" transform="translate(0 -796.362)"/><path d="M104.74 994.173c1.018 5.552-3.882 6.801-7.034 8.883-2.347 1.55-6.107 2.22-8.142 2.22-.48 0-.793-1.11-.793-1.11l-.052-2.22s-1.603.552-2.209 1.11c-.957.881-2.036 1.996-2.036 3.331s.958 2.701 2.036 3.331c1.197.699 2.732.237 4.071 0 3.178-.562 6.469-1.407 9.161-3.331 3.819-2.728 9.28-6.126 9.16-11.104-.05-2.093-2.298-3.64-4.07-4.441" fill="url(#cg)" transform="translate(0 -796.362)"/><path d="M104.234 1017.515c.227 2.566-3.765 6.32-6.713 8.327-1.923 1.309-4.996 2.082-6.662 2.082-.392 0-.832-1.041-.832-1.041l-.491-2.082s-.85.63-1.175 1.04c-.73.927-1.666 1.873-1.666 3.124 0 1.25.784 2.532 1.666 3.122.979.655 2.235.222 3.331 0 2.6-.527 5.292-1.319 7.495-3.123 3.124-2.557 7.297-6.137 7.495-10.408.074-1.608-.997-3.413-2.448-4.164" fill="url(#ch)" transform="translate(0 -796.362)"/><path d="M105.077 982.699c1.017 5.552-4.136 6.8-7.37 8.883-2.366 1.523-6.108 2.22-8.143 2.22-.48 0-1.018-1.11-1.018-1.11v-2.22s-1.467.562-2.036 1.11c-.917.883-2.036 1.996-2.036 3.33 0 1.335.958 2.702 2.036 3.332 1.197.699 2.732.237 4.071 0 3.178-.562 6.468-1.407 9.161-3.331 3.818-2.729 9.101-6.306 9.16-11.104.024-1.881-1.709-3.64-3.482-4.442" fill="url(#ci)" transform="translate(0 -796.362)"/><path d="M103.35 1028.965c.619 3.899-3.127 5.668-5.687 7.468-1.414.994-3.708 1.56-4.944 1.56-.292 0-.618-.78-.618-.78l-.596-1.586s-.492.497-.64.806c-.54 1.12-1.01 2.063-.839 3.635.398 1.296 2.241 2.288 3.331 2.221 1.93-.395 2.34-.488 3.331-1.11 3.147-1.974 5.552-2.221 7.773-7.984.649-1.684.2-4.778-.877-5.34" fill="url(#cj)" transform="translate(0 -796.362)"/><path d="M104.895 973.522c-.572 3.67-4.59 4.853-7.189 6.586-2.387 1.59-6.107 2.22-8.142 2.22-.48 0-1.018-1.11-1.018-1.11v-2.22s-1.467.562-2.036 1.11c-.917.883-2.036 1.996-2.036 3.33 0 1.335.958 2.702 2.036 3.332 1.197.698 2.732.237 4.071 0 3.178-.563 6.468-1.407 9.161-3.331 3.818-2.729 9.28-6.126 9.16-11.104-.014-.585-.81-.615-1.11-1.11" fill="url(#ck)" transform="translate(0 -796.362)"/><path d="M104.357 1005.933c.972 5.3-3.775 6.487-6.801 8.48-2.215 1.457-5.725 2.119-7.668 2.119-.458 0-.963-1.06-.963-1.06v-2.12s-1.415.55-1.952 1.06c-.9.856-1.943 1.906-1.943 3.18 0 1.274.913 2.579 1.943 3.18 1.142.666 2.607.226 3.886 0 3.033-.537 6.174-1.344 8.744-3.18 3.645-2.604 8.859-5.848 8.744-10.6-.048-1.997-2.193-3.474-3.886-4.239" fill="url(#cl)" transform="translate(0 -796.362)"/><path d="M104.74 994.173c1.018 5.552-3.882 6.801-7.034 8.883-2.347 1.55-6.107 2.22-8.142 2.22-.48 0-.793-1.11-.793-1.11l-.052-2.22s-1.603.552-2.209 1.11c-.957.881-2.036 1.996-2.036 3.331s.958 2.701 2.036 3.331c1.197.699 2.732.237 4.071 0 3.178-.562 6.469-1.407 9.161-3.331 3.819-2.728 9.28-6.126 9.16-11.104-.05-2.093-2.298-3.64-4.07-4.441" fill="url(#cm)" transform="translate(0 -796.362)"/><path d="M104.234 1017.515c.227 2.566-3.765 6.32-6.713 8.327-1.923 1.309-4.996 2.082-6.662 2.082-.392 0-.832-1.041-.832-1.041l-.491-2.082s-.85.63-1.175 1.04c-.73.927-1.666 1.873-1.666 3.124 0 1.25.784 2.532 1.666 3.122.979.655 2.235.222 3.331 0 2.6-.527 5.292-1.319 7.495-3.123 3.124-2.557 7.297-6.137 7.495-10.408.074-1.608-.997-3.413-2.448-4.164" fill="url(#cn)" transform="translate(0 -796.362)"/><path d="M105.077 982.699c1.017 5.552-4.136 6.8-7.37 8.883-2.366 1.523-6.108 2.22-8.143 2.22-.48 0-1.018-1.11-1.018-1.11v-2.22s-1.467.562-2.036 1.11c-.917.883-2.036 1.996-2.036 3.33 0 1.335.958 2.702 2.036 3.332 1.197.699 2.732.237 4.071 0 3.178-.562 6.468-1.407 9.161-3.331 3.818-2.729 9.101-6.306 9.16-11.104.024-1.881-1.709-3.64-3.482-4.442" fill="url(#co)" transform="translate(0 -796.362)"/><path d="M103.35 1028.965c.619 3.899-3.127 5.668-5.687 7.468-1.414.994-3.708 1.56-4.944 1.56-.292 0-.618-.78-.618-.78l-.596-1.586s-.492.497-.64.806c-.54 1.12-1.01 2.063-.839 3.635.398 1.296 2.241 2.288 3.331 2.221 1.93-.395 2.34-.488 3.331-1.11 3.147-1.974 5.552-2.221 7.773-7.984.649-1.684.2-4.778-.877-5.34" fill="url(#cp)" transform="translate(0 -796.362)"/><path d="M104.988 972.585c-.572 3.67-4.59 4.853-7.19 6.586-2.387 1.591-6.106 2.22-8.142 2.22-.48 0-1.018-1.11-1.018-1.11v-2.22s-1.467.562-2.035 1.11c-.918.883-2.036 1.996-2.036 3.33 0 1.335.957 2.702 2.036 3.332 1.196.699 2.731.237 4.07 0 3.178-.562 6.469-1.407 9.162-3.331 3.818-2.728 9.28-6.126 9.16-11.104-.014-.585-.811-.615-1.11-1.11" opacity=".281" fill="url(#cq)" transform="translate(0 -796.362)"/><path d="M104.45 1004.996c.971 5.3-3.775 6.487-6.802 8.48-2.215 1.458-5.725 2.12-7.668 2.12-.458 0-.963-1.06-.963-1.06v-2.12s-1.415.55-1.952 1.06c-.9.855-1.943 1.905-1.943 3.179 0 1.274.914 2.579 1.943 3.18 1.142.667 2.608.226 3.887 0 3.032-.537 6.174-1.344 8.744-3.18 3.645-2.604 8.858-5.848 8.744-10.599-.048-1.998-2.194-3.475-3.886-4.24" opacity=".281" fill="url(#cr)" transform="translate(0 -796.362)"/><path d="M104.833 993.236c1.018 5.552-3.883 6.802-7.034 8.883-2.348 1.55-6.107 2.22-8.143 2.22-.48 0-.792-1.11-.792-1.11l-.052-2.22s-1.603.552-2.21 1.11c-.957.881-2.035 1.997-2.035 3.331 0 1.335.957 2.702 2.036 3.331 1.196.699 2.731.238 4.07 0 3.178-.562 6.469-1.407 9.162-3.33 3.818-2.73 9.28-6.127 9.16-11.105-.05-2.093-2.298-3.64-4.071-4.441" opacity=".281" fill="url(#cs)" transform="translate(0 -796.362)"/><path d="M104.327 1016.578c.227 2.567-3.766 6.321-6.713 8.327-1.923 1.31-4.997 2.082-6.662 2.082-.393 0-.833-1.041-.833-1.041l-.49-2.082s-.851.63-1.176 1.041c-.73.926-1.665 1.872-1.665 3.123 0 1.25.783 2.532 1.665 3.122.98.655 2.236.223 3.332 0 2.599-.527 5.291-1.319 7.494-3.122 3.125-2.558 7.298-6.138 7.495-10.41.075-1.607-.997-3.412-2.447-4.163" opacity=".281" fill="url(#ct)" transform="translate(0 -796.362)"/><path d="M105.17 981.762c1.017 5.552-4.137 6.8-7.371 8.883-2.365 1.523-6.107 2.22-8.143 2.22-.48 0-1.018-1.11-1.018-1.11v-2.22s-1.467.562-2.035 1.11c-.918.883-2.036 1.996-2.036 3.331s.957 2.701 2.036 3.331c1.196.699 2.731.237 4.07 0 3.178-.562 6.469-1.407 9.162-3.331 3.818-2.728 9.1-6.306 9.16-11.104.024-1.881-1.71-3.64-3.482-4.441" opacity=".281" fill="url(#cu)" transform="translate(0 -796.362)"/><path d="M103.443 1028.028c.618 3.9-3.128 5.668-5.688 7.468-1.413.994-3.708 1.56-4.944 1.56-.291 0-.618-.78-.618-.78l-.596-1.586s-.491.497-.64.806c-.54 1.12-1.01 2.063-.838 3.635.397 1.296 2.24 2.288 3.33 2.221 1.93-.395 2.34-.488 3.332-1.11 3.146-1.974 5.552-2.22 7.773-7.984.648-1.684.199-4.778-.878-5.34" opacity=".281" fill="url(#cv)" transform="translate(0 -796.362)"/><path d="M108.899 971.109c0 2.326-5.485 4.211-12.252 4.211-6.766 0-12.252-1.885-12.252-4.212 0-2.326 5.486-4.211 12.252-4.211 6.274 0 11.535 1.63 12.186 3.774" opacity=".516" fill="url(#cw)" transform="translate(0 -796.362)"/><path d="M106.543 954.03l2.249-.291s-.893-.266-1.35-.352c-2.818-.526-7.31-.92-8.546-.98 2.862.164 5.398.273 7.647 1.622z" fill="url(#cx)" stroke="url(#cy)" stroke-width=".54" stroke-linecap="round" stroke-linejoin="round" transform="translate(0 -796.362)"/><path d="M15.818 1014.422c0-18.308 14.841-33.149 33.15-33.149 18.307 0 33.148 14.841 33.148 33.15 0 18.307-14.841 33.148-33.149 33.148s-33.149-14.841-33.149-33.149z" fill="url(#cz)" stroke="url(#cA)" stroke-width=".54" stroke-linecap="round" stroke-linejoin="round" transform="translate(0 -796.362)"/><path d="M15.818 1014.422c0-18.308 14.841-33.149 33.15-33.149 18.307 0 33.148 14.841 33.148 33.15 0 18.307-14.841 33.148-33.149 33.148s-33.149-14.841-33.149-33.149z" opacity=".595" fill="url(#cB)" stroke="url(#cC)" stroke-width=".54" stroke-linecap="round" stroke-linejoin="round" transform="translate(0 -796.362)"/><path transform="matrix(0 .93874 -.93874 0 48.967 -59.806)" d="M324.25 0c0 15.602-12.648 28.25-28.25 28.25S267.75 15.602 267.75 0 280.398-28.25 296-28.25 324.25-15.602 324.25 0z" fill="url(#cD)" filter="url(#cE)"/><path transform="rotate(90 42.809 6.158) scale(.86051)" d="M324.25 0c0 15.602-12.648 28.25-28.25 28.25S267.75 15.602 267.75 0 280.398-28.25 296-28.25 324.25-15.602 324.25 0z" opacity=".5" fill="url(#cF)" stroke="url(#cG)" stroke-width=".627" filter="url(#cH)"/><path d="M48.967 1038.731c-13.426 0-24.31-10.883-24.31-24.309 0-13.426 10.884-24.31 24.31-24.31 13.426 0 24.31 10.884 24.31 24.31 0 13.426-10.884 24.31-24.31 24.31z" opacity=".5" fill="url(#cI)" transform="translate(0 -796.362)"/><path transform="matrix(.53977 0 0 .53977 7.944 -280.892)" d="M72 903.125c-.656-.007-1.257.594-1.25 1.25V913.594c.18 5.55-1.234 5.531-5.531 5.531H56c-.656-.007-1.257.594-1.25 1.25v8c-.007.656.594 1.257 1.25 1.25H65.219c5.55-.18 5.531 1.234 5.531 5.531V944.375c-.007.656.594 1.257 1.25 1.25h8c.656.007 1.257-.594 1.25-1.25V935.156c-.18-5.55 1.234-5.531 5.531-5.531H96c.656.007 1.257-.594 1.25-1.25v-8c.007-.656-.594-1.257-1.25-1.25H86.781c-5.55.18-5.531-1.234-5.531-5.531V904.375c.007-.656-.594-1.257-1.25-1.25z" opacity=".655" fill="url(#cJ)" stroke="url(#cK)" stroke-width="1.2" filter="url(#cL)"/><path transform="matrix(.20241 0 0 .20241 33.584 30.953)" d="M72 903.125a1.238 1.238 0 0 0-1.25 1.25v14.75H56a1.238 1.238 0 0 0-1.25 1.25v8a1.238 1.238 0 0 0 1.25 1.25h14.75v14.75a1.238 1.238 0 0 0 1.25 1.25h8a1.238 1.238 0 0 0 1.25-1.25v-14.75H96a1.238 1.238 0 0 0 1.25-1.25v-8a1.238 1.238 0 0 0-1.25-1.25H81.25v-14.75a1.238 1.238 0 0 0-1.25-1.25h-8z" opacity=".797" fill="#fff" stroke="url(#cM)" stroke-width="1.2" filter="url(#cN)"/></svg>