<svg xmlns="http://www.w3.org/2000/svg" xmlns:xlink="http://www.w3.org/1999/xlink" width="188.313" height="188.313"><defs><linearGradient id="a"><stop offset="0"/><stop offset=".5" stop-color="#d4d4d4"/><stop offset="1"/></linearGradient><linearGradient xlink:href="#a" id="b" x1="288.262" y1="-232.476" x2="288.262" y2="56.541" gradientUnits="userSpaceOnUse" spreadMethod="reflect"/><linearGradient xlink:href="#a" id="d" x1="200.293" y1="-87.75" x2="384.844" y2="-87.75" gradientUnits="userSpaceOnUse" spreadMethod="reflect" gradientTransform="rotate(45 290.973 -87.76)"/><linearGradient xlink:href="#a" id="c" gradientUnits="userSpaceOnUse" gradientTransform="rotate(-30 290.969 -87.75)" spreadMethod="reflect" x1="242.969" y1="-163.25" x2="384.844" y2="-87.75"/><linearGradient xlink:href="#a" id="e" x1="197.597" y1="-87.756" x2="384.34" y2="-87.756" gradientUnits="userSpaceOnUse"/></defs><g font-weight="400" color="#000" font-family="Sans"><path d="M293.454-181.125l-1.704 4.083-6.444-3.941-1.35 4.207-6.745-3.355-.976 4.314-7.03-2.77-.586 4.367-7.243-2.13-.213 4.42-7.402-1.49.177 4.42-7.509-.853.568 4.385-7.544-.195.94 4.331-7.544.462 1.314 4.225-7.456 1.118 1.669 4.1-7.332 1.758 2.024 3.924-7.154 2.396 2.36 3.746-6.923 3.018 2.681 3.514-6.64 3.604 2.983 3.266-6.302 4.172 3.249 3-5.894 4.704 3.497 2.716-5.467 5.202 3.71 2.396-4.988 5.645 3.905 2.06-4.491 6.07 4.083 1.705-3.941 6.444 4.207 1.349-3.355 6.746 4.314.976-2.77 7.03 4.385.603-2.13 7.225 4.402.213-1.49 7.403 4.42-.178-.853 7.51 4.385-.569-.195 7.545 4.331-.94.462 7.544 4.225-1.314 1.118 7.456 4.1-1.669 1.758 7.332 3.941-2.024 2.397 7.154 3.727-2.361 3.018 6.923 3.515-2.68 3.604 6.639 3.284-2.982 4.172 6.302 3-3.249 4.704 5.894 2.698-3.498 5.202 5.468 2.396-3.71 5.645 4.988 2.06-3.905 6.07 4.491 1.705-4.083 6.444 3.941 1.349-4.225 6.763 3.373.852-3.764 7.332 2.876.266.107.036-.284.639-4.722 6.71 1.988.213-4.402 7.385 1.49-.178-4.42 7.51.853-.551-4.385 7.527.195-.941-4.331 7.544-.462-1.313-4.225 7.456-1.118-1.669-4.1 7.331-1.758-2.023-3.941 7.154-2.397-2.361-3.728 6.923-3.018-2.68-3.514 6.639-3.604-2.983-3.284 6.302-4.172-3.248-3 5.911-4.704-3.497-2.698 5.468-5.202-3.728-2.396 5.006-5.645-3.923-2.06 4.49-6.07-4.082-1.705 3.94-6.444-4.224-1.349 3.373-6.763-4.296-.977 2.751-7.012-4.384-.586 2.147-7.26-4.42-.213 1.491-7.385-4.42.178.852-7.51-4.384.55.195-7.526-4.332.94-.461-7.544-4.225 1.314-1.118-7.474-4.101 1.669-1.758-7.331-3.923 2.023-2.396-7.154-3.746 2.361-3.018-6.905-3.515 2.68-3.603-6.639-3.267 2.965-4.171-6.285-3 3.249-4.705-5.911-2.716 3.515-5.201-5.486-2.397 3.728-5.645-5.006-2.059 3.923-6.071-4.491zm-2.485 81.446c6.588 0 11.929 5.34 11.929 11.929 0 6.588-5.34 11.93-11.93 11.93-6.588 0-11.929-5.342-11.929-11.93s5.341-11.93 11.93-11.93z" style="text-indent:0;text-align:start;line-height:normal;text-transform:none;block-progression:tb;marker:none;-inkscape-font-specification:Sans" fill="url(#b)" stroke="#000" overflow="visible" transform="translate(-196.813 181.906)"/><path style="text-indent:0;text-align:start;line-height:normal;text-transform:none;block-progression:tb;marker:none;-inkscape-font-specification:Sans" d="M226.7-155.533l1.682 4.092-7.343 1.77 2.02 3.929-7.142 2.397 2.36 3.74-6.929 3.013 2.674 3.502-6.628 3.616 2.975 3.276-6.289 4.18 3.252 3-5.913 4.707 3.502 2.699-5.472 5.196 3.728 2.398-5.009 5.661 3.917 2.059-4.482 6.063 4.08 1.72-3.942 6.426 4.205 1.343-3.364 6.754 4.318.979-2.761 7.029 4.38.59-2.146 7.243 4.419.2-1.507 7.407 4.419-.176-.841 7.494 4.393-.553-.188 7.544 4.318-.928.464 7.518 4.218-1.305 1.117 7.469 4.092-1.682 1.77 7.343 3.93-2.021 2.397 7.142 3.74-2.36 3.013 6.93 3.527-2.674 3.603 6.615 3.263-2.962 4.18 6.288 3-3.25 4.708 5.911 2.698-3.502 5.197 5.473 2.398-3.728 5.66 5.009 2.06-3.917 6.062 4.481 1.72-4.08 6.427 3.942 1.356-4.217 6.753 3.364.966-4.306 7.03 2.762.59-4.381 7.243 2.146.213-4.43 7.406 1.506-.176-4.419 7.494.841-.565-4.38 7.544.188-.929-4.318 7.52-.465-1.306-4.217 7.468-1.118-1.682-4.092 7.344-1.77-2.034-3.941 7.168-2.398-2.059-3.263 7.218-3.15.263-.114-.175-.226-2.888-3.79 6.151-3.34-2.962-3.263 6.276-4.168-3.251-3 5.912-4.707-3.49-2.711 5.46-5.184-3.727-2.398 5.008-5.661-3.916-2.059 4.481-6.063-4.08-1.72 3.942-6.426-4.218-1.356 3.365-6.753-4.306-.967 2.762-7.029-4.381-.59 2.146-7.243-4.43-.213 1.505-7.406-4.418.176.854-7.507-4.381.565.188-7.544-4.33.941-.452-7.531-4.23 1.318-1.118-7.469-4.092 1.682-1.77-7.343-3.941 2.034-2.398-7.168-3.728 2.347-3.013-6.903-3.514 2.686-3.615-6.653-3.277 2.975-4.167-6.276-3 3.25-4.707-5.911-2.712 3.49-5.184-5.461-2.397 3.728-5.661-5.009-2.059 3.917-6.075-4.494-1.72 4.08-6.427-3.942-1.343 4.205-6.753-3.364-.98 4.318-7.016-2.749-.59 4.381-7.243-2.146-.213 4.405-7.394-1.493.176 4.418-7.506-.853.564 4.406-7.556-.201.941 4.33-7.531.452 1.318 4.23-7.469 1.118zm55.833 59.348c4.66-4.659 12.212-4.659 16.871 0 4.659 4.658 4.659 12.212 0 16.87-4.659 4.659-12.212 4.659-16.87 0-4.66-4.658-4.66-12.212 0-16.87z" opacity=".856" fill="url(#c)" overflow="visible" transform="translate(-196.813 181.906)"/><path d="M358.746-152.025l-4.092 1.682-1.77-7.343-3.929 2.02-2.398-7.142-3.74 2.36-3.013-6.929-3.502 2.674-3.615-6.628-3.276 2.975-4.18-6.289-3 3.251-4.707-5.912-2.7 3.502-5.196-5.472-2.398 3.728-5.66-5.009-2.06 3.917-6.062-4.482-1.72 4.08-6.427-3.942-1.343 4.205-6.753-3.364-.98 4.318-7.029-2.761-.59 4.38-7.242-2.146-.201 4.419-7.406-1.507.176 4.419-7.494-.841.552 4.393-7.544-.188.929 4.318-7.519.464 1.305 4.218-7.468 1.117 1.682 4.092-7.343 1.77 2.02 3.93-7.142 2.397 2.36 3.74-6.929 3.013 2.674 3.527-6.615 3.603 2.962 3.263-6.289 4.18 3.251 3-5.912 4.708 3.502 2.698-5.473 5.197 3.728 2.398-5.008 5.66 3.916 2.06-4.48 6.062 4.079 1.72-3.942 6.427 4.218 1.356-3.364 6.753 4.305.966-2.761 7.03 4.38.59-2.146 7.242 4.431.214-1.506 7.406 4.418-.176-.84 7.494 4.38-.565-.188 7.544 4.318-.929.464 7.52 4.218-1.306 1.117 7.468 4.092-1.682 1.77 7.344 3.942-2.034 2.397 7.168 3.264-2.059 3.15 7.218.113.263.226-.175 3.791-2.888 3.34 6.151 3.263-2.962 4.167 6.276 3-3.251 4.707 5.912 2.712-3.49 5.184 5.46 2.397-3.727 5.662 5.008 2.058-3.916 6.063 4.481 1.72-4.08 6.427 3.942 1.355-4.218 6.754 3.364.966-4.305 7.03 2.762.59-4.381L320.56.839l.214-4.43 7.406 1.505-.176-4.418 7.506.854-.565-4.381 7.544.188-.941-4.33 7.532-.452-1.319-4.23 7.47-1.118-1.683-4.092 7.343-1.77-2.033-3.941 7.167-2.398-2.347-3.728 6.904-3.013-2.686-3.514 6.653-3.615-2.975-3.277 6.276-4.167-3.251-3 5.912-4.707-3.49-2.712 5.46-5.184-3.727-2.397 5.008-5.661-3.916-2.059 4.493-6.075-4.08-1.72 3.942-6.427-4.205-1.343 3.364-6.753-4.318-.98 2.75-7.016-4.382-.59 2.147-7.243-4.406-.213 1.494-7.394-4.419.176.854-7.507-4.406.565.2-7.556-4.33.941-.452-7.531-4.23 1.318-1.117-7.469zm-59.348 55.833c4.658 4.66 4.658 12.212 0 16.871-4.659 4.659-12.212 4.659-16.87 0-4.66-4.659-4.66-12.212 0-16.87 4.658-4.66 12.211-4.66 16.87 0z" style="text-indent:0;text-align:start;line-height:normal;text-transform:none;block-progression:tb;marker:none;-inkscape-font-specification:Sans" opacity=".401" fill="url(#d)" stroke="url(#e)" overflow="visible" transform="translate(-196.813 181.906)"/></g></svg>