<svg xmlns="http://www.w3.org/2000/svg" xmlns:xlink="http://www.w3.org/1999/xlink" width="82.549" height="106.574"><defs><linearGradient id="b"><stop offset="0"/><stop offset="1" stop-opacity="0"/></linearGradient><linearGradient id="a"><stop offset="0"/><stop offset=".601" stop-color="#f2f2f2"/><stop offset="1" stop-color="#b3b3b3"/></linearGradient><linearGradient xlink:href="#a" id="e" x1="389.789" y1="377.766" x2="405.214" y2="377.766" gradientUnits="userSpaceOnUse" spreadMethod="reflect"/><linearGradient xlink:href="#a" id="g" x1="425.257" y1="335.353" x2="446.791" y2="335.353" gradientUnits="userSpaceOnUse"/><linearGradient xlink:href="#a" id="j" x1="344.487" y1="346.831" x2="464.484" y2="346.831" gradientUnits="userSpaceOnUse"/><linearGradient xlink:href="#a" id="f" x1="364.538" y1="197.932" x2="453.835" y2="287.229" gradientUnits="userSpaceOnUse"/><radialGradient xlink:href="#b" id="h" cx="414.692" cy="346.947" fx="414.692" fy="346.947" r="41.151" gradientTransform="matrix(.68882 0 0 .24567 125.781 242.9)" gradientUnits="userSpaceOnUse" spreadMethod="reflect"/><linearGradient xlink:href="#a" id="c" gradientUnits="userSpaceOnUse" spreadMethod="reflect" x1="389.789" y1="377.766" x2="405.214" y2="377.766"/><linearGradient xlink:href="#a" id="i" x1="403.933" y1="382.258" x2="415.623" y2="382.258" gradientUnits="userSpaceOnUse" spreadMethod="reflect" gradientTransform="matrix(1.02664 0 0 1 -10.919 0)"/><linearGradient xlink:href="#a" id="d" gradientUnits="userSpaceOnUse" spreadMethod="reflect" x1="389.789" y1="377.766" x2="405.214" y2="377.766"/><linearGradient xlink:href="#a" id="k" x1="382.657" y1="351.248" x2="421.297" y2="351.248" gradientUnits="userSpaceOnUse"/></defs><g stroke-linecap="round"><path d="M429.074 356.56l-5.922.68-6.37.733-6.384.732-6.804.781-7.754.891-5.2-2.522-.458-.222-.112.652.358 1.4.422.6-.399.672-.24 1.42.355 1.406.413.586-.39.66-.24 1.428.358 1.412.4.574-.378.649-.239 1.433.356 1.42.39.563-.369.633-.238 1.441.355 1.426.38.55-.36.622-.236 1.449.355 1.432.37.539-.35.609-.239 1.453.356 1.44.361.527-.342.596-.236 1.46.355 1.446.35.515-.332.584-.236 1.467.355 1.453.34.504-.322.57-.237 1.475.356 1.457.33.492-.314.559-.235 1.48.356 1.465.935 1.403 1.492 1.289.16.092.137.888.694 1.225 1.191 1.146.4.276 1.49 1.029 1.538.957 1.8.748c6.586 1.913 13.24 1.64 19.245-.65l1.765-.944 1.405-1.066.804-.627.393-.305 1.568-1.222.395-.307 1.36-1.533.83-1.62.269-1.658-.217-1.185.486-1.113.149-1.702-.438-1.671-.039-.063.246-.562.149-1.696-.44-1.666-.047-.074.254-.574.149-1.688-.438-1.66-.055-.088.26-.584.15-1.683-.439-1.655-.06-.095.265-.598.15-1.678-.439-1.648-.068-.108.273-.609.15-1.672-.439-1.642-.076-.118.281-.623.15-1.666-.44-1.636-.083-.125.29-.639.15-1.658-.442-1.631-.092-.139.297-.648.153-1.653-.442-1.625-.098-.15.303-.662.15-1.647-.44-1.617-.106-.16z" fill="url(#c)" transform="translate(-367.389 -303.9)"/><path d="M391.38 348.979l1.09.873.169.09-.252.156-.051.049-.856-.684-.1-.484z" fill="url(#d)" transform="translate(-367.389 -303.9)"/><path d="M391.514 349.617l.658.684-.135.125-.52-.785-.003-.024z" fill="url(#e)" transform="translate(-367.389 -303.9)"/><path d="M407.594 303.95c-2.05.068-4.1.21-6.139.429-1.988.214-3.97.496-5.935.863-1.87.35-3.73.763-5.563 1.272a52.212 52.212 0 0 0-5.027 1.646c-1.482.578-2.945 1.219-4.342 1.979-1.225.666-2.427 1.392-3.525 2.252-.94.735-1.85 1.535-2.598 2.464-.638.791-1.217 1.658-1.58 2.606-.325.846-.522 1.764-.506 2.67.016.905.242 1.818.598 2.65.401.94 1.02 1.787 1.695 2.553.801.908 1.762 1.675 2.752 2.373 1.17.824 2.442 1.503 3.734 2.117 1.488.707 3.04 1.282 4.606 1.791 1.749.569 3.537 1.02 5.336 1.405 1.949.415 3.921.728 5.9.97 2.083.255 4.179.417 6.275.504 2.148.09 4.301.094 6.45.02a83.767 83.767 0 0 0 6.412-.465 76.594 76.594 0 0 0 6.166-.936 64.632 64.632 0 0 0 5.726-1.373c1.727-.504 3.438-1.076 5.1-1.763 1.479-.612 2.938-1.289 4.32-2.096 1.193-.697 2.36-1.459 3.408-2.36.884-.76 1.731-1.589 2.399-2.544.566-.81 1.059-1.7 1.326-2.65.242-.862.33-1.787.225-2.675-.11-.912-.438-1.805-.871-2.615-.494-.923-1.187-1.74-1.926-2.48-.87-.872-1.88-1.604-2.916-2.272-1.205-.777-2.498-1.42-3.809-2-1.487-.658-3.027-1.196-4.582-1.672a55.227 55.227 0 0 0-5.219-1.299 68.84 68.84 0 0 0-5.703-.89 79.286 79.286 0 0 0-6.02-.46 84.57 84.57 0 0 0-6.167-.015z" fill="url(#f)" transform="translate(-367.389 -303.9)"/><path opacity=".9" fill="#050501" d="M7.076 10.956L9.673 8.49l-.654.57-2.148 2.075z"/><path d="M449.691 319.703s-1.56-.045-2.29.186c-.746.235-1.418.691-2.022 1.187-.737.605-1.337 1.367-1.9 2.135-.73.995-1.328 2.085-1.899 3.18-.758 1.454-1.403 2.968-2.02 4.488-.841 2.075-2.29 6.314-2.29 6.314l.33 18.389 2.326-3.363 2.027-2.932 1.893-2.734 1.875-2.713 1.982-2.865 2.235-3.229z" fill="url(#g)" transform="translate(-367.389 -303.9)"/><path d="M442.01 312.557s1.432 1.557 1.926 2.48c.433.81.762 1.703.87 2.615a6.942 6.942 0 0 1-.224 2.674c-.267.951-.76 1.84-1.326 2.65-.668.956-1.515 1.785-2.399 2.545-1.047.901-2.215 1.663-3.408 2.36-1.382.807-2.841 1.484-4.32 2.096-1.662.687-3.373 1.259-5.1 1.763-1.884.55-3.8.997-5.726 1.373-2.04.399-4.1.705-6.166.936-2.13.238-4.27.39-6.412.465-2.149.074-4.302.07-6.45-.02a78.724 78.724 0 0 1-6.275-.504 67.538 67.538 0 0 1-5.9-.97c-1.8-.384-3.587-.836-5.336-1.405-1.567-.509-3.118-1.084-4.606-1.79-1.292-.615-2.564-1.294-3.734-2.118-.99-.697-1.951-1.465-2.752-2.373-.676-.766-1.294-1.613-1.695-2.553-.356-.832-.582-1.745-.598-2.65-.016-.906.181-1.824.506-2.67.363-.948.858-1.347 1.58-2.605.045-.08-.205.181-.205.181s-1.486 2.028-2.125 3.108c-.839 1.415-1.553 2.903-2.235 4.4-.924 2.03-2.511 6.203-2.511 6.203s3.285-.6 4.947-.611c1.485-.01 2.98.16 4.428.488 1.455.33 2.872.851 4.226 1.479 1.505.697 2.93 1.572 4.291 2.52 1.636 1.137 3.162 2.434 4.63 3.782 1.88 1.729 5.331 5.504 5.331 5.504s5.064-2.78 7.715-3.914c2.213-.947 4.487-1.774 6.81-2.404a42.471 42.471 0 0 1 6.422-1.236c2.134-.237 4.292-.3 6.436-.198 2.301.11 4.597.419 6.855.873 2.642.532 7.79 2.162 7.79 2.162s1.449-4.24 2.29-6.314c.617-1.52 1.262-3.034 2.02-4.488.57-1.095 1.168-2.185 1.899-3.18.563-.768 1.163-1.53 1.9-2.135.604-.496 1.276-.952 2.021-1.187.731-.231 2.291-.186 2.291-.186s-3.434-3.628-5.302-5.281c-.755-.668-2.38-1.865-2.38-1.865z" fill="url(#h)" transform="translate(-367.389 -303.9)"/><path opacity=".9" fill="#141503" d="M22.56 41.764l-.357-1.376.056 1.654.357 1.379z"/><path d="M422.966 358.02l-2.798 1.09-3.138.872-3.376.631-3.511.37-3.532.103-3.434-.166-3.23-.426-2.605-.594a.324.324 0 0 0-.099-.006l-.978.11a.293.293 0 0 0-.149.06l-.006-.002a.296.296 0 0 0-.148-.023l-.13.014a.223.223 0 0 0-.045.008c-.012 0-.025 0-.038.002l-.232.025-.882-.416c-.307-.14-.567.26-.384.404l1.155.639a.654.654 0 0 0 .028.012l.004.002.024.015.795.405a.308.308 0 0 0 .038.015l2.235.764.032.008 2.577.574.026.006 2.84.36a.216.216 0 0 0 .026.001l3.015.133h.022l3.096-.103a.278.278 0 0 0 .022-.002l3.078-.342a.191.191 0 0 0 .024-.004l2.966-.568.024-.006 2.76-.784.027-.01 2.468-.976a.22.22 0 0 0 .032-.014l2.1-1.143a.245.245 0 0 0 .038-.025l1.155-1.49c.058-.045-1.893.476-1.893.476zm.098 4.132l-2.795 1.094-3.135.875-3.37.635-3.505.369-3.525.102-3.431-.166-3.226-.43-2.922-.67-2.522-.883-.737.26c-.134-.07 1.581 1.457 1.581 1.457a.29.29 0 0 0 .032.014l.034.02.85.435a.263.263 0 0 0 .038.017l2.23.77.032.008 2.575.576.026.006 2.835.363.024.002 3.012.133h.024l3.092-.103a.278.278 0 0 0 .022-.002l3.074-.34a.191.191 0 0 0 .024-.004l2.961-.57.027-.007 2.755-.787a.234.234 0 0 0 .026-.01l2.464-.978a.502.502 0 0 0 .032-.016l2.098-1.146a.306.306 0 0 0 .038-.024l1.19-1.511c.063-.05-1.928.511-1.928.511zm.098 4.121l-2.791 1.098-3.13.879-3.369.635-3.497.37-3.519.102-3.425-.17-3.224-.433-2.918-.672-2.516-.889-1.453-.302c-.139-.073 1.34 1.513 1.34 1.513a.284.284 0 0 0 .049.03l.836.431a.294.294 0 0 0 .036.016.272.272 0 0 0 .04.023l.906.467a.263.263 0 0 0 .038.018l2.228.771.032.008 2.57.58.027.006 2.831.366.024.002 3.008.134h.024l3.086-.101a.278.278 0 0 0 .022-.002l3.07-.342a.191.191 0 0 0 .024-.004l2.957-.572.026-.006 2.752-.787.028-.01 2.46-.985a.475.475 0 0 0 .032-.015l2.095-1.149a.318.318 0 0 0 .036-.023l1.227-1.532c.069-.053-1.962.545-1.962.545zm.096 4.112l-2.787 1.1-3.124.88-3.363.637-3.495.371-3.51.102-3.421-.172-3.219-.436-2.915-.676-2.515-.892-1.457-.32c-.268-.139 1.345 1.515 1.345 1.515.015.011.03.021.046.03l.77.398a.327.327 0 0 0 .042.015l.004.002a.28.28 0 0 0 .04.028l.96.498a.301.301 0 0 0 .039.015l2.226.778a.36.36 0 0 0 .032.01l2.566.582.028.006 2.828.369.024.002 3.003.137h.024l3.082-.104a.282.282 0 0 0 .022-.002l3.066-.34a.191.191 0 0 0 .024-.004l2.952-.574.026-.006 2.747-.791.028-.01 2.458-.986a.475.475 0 0 0 .032-.016l2.092-1.152a.313.313 0 0 0 .038-.024l1.262-1.553c.073-.057-2 .583-2 .583zm.095 4.097l-2.102.834a.156.156 0 0 0-.026.012l-.004.002-.648.256-3.12.885-3.358.638-3.49.371-3.506.1-3.417-.172-3.214-.44-2.908-.679-.734-.26-.01-.006-.02-.006-.002-.002-1.747-.623-1.446-.327c-.268-.144 1.332 1.505 1.332 1.505.014.012.03.022.046.031l.702.365a.287.287 0 0 0 .05.02c.015.012.031.024.048.033l1.015.527a.301.301 0 0 0 .038.016l2.222.781a.36.36 0 0 0 .032.01l2.562.588.028.006 2.826.37.024.001 2.997.139h.024l3.078-.102a.278.278 0 0 0 .022-.002l3.062-.341a.191.191 0 0 0 .024-.004l2.948-.575.026-.006 2.745-.793.028-.01 2.452-.99a.475.475 0 0 0 .032-.015l.582-.323.008-.004.002-.002.008-.004 1.49-.824a.253.253 0 0 0 .038-.025l1.294-1.571c.078-.06-2.034.616-2.034.616zm.096 4.086l-1.985.793-.006.002-.786.315-3.114.885-3.353.64-3.485.373-3.503.1-3.41-.176-3.21-.44-2.905-.685-.84-.303-.008-.002-.004-.002-.004-.002-1.65-.591-1.437-.335c-.266-.14 1.319 1.497 1.319 1.497a.287.287 0 0 0 .048.03l.636.335c.018.01.038.017.058.023a.29.29 0 0 0 .052.035l1.065.559a.301.301 0 0 0 .038.016l2.22.785a.36.36 0 0 0 .031.01l2.56.59.029.006 2.82.373.023.002 2.996.14h.024l3.074-.101a.278.278 0 0 0 .022-.002l3.056-.342a.191.191 0 0 0 .024-.004l2.943-.576.026-.006 2.742-.797.028-.01 2.448-.992a.475.475 0 0 0 .032-.016l.666-.371.008-.004.01-.006.008-.006 1.393-.773a.258.258 0 0 0 .039-.026l1.33-1.59c.082-.065-2.068.65-2.068.65zm.096 4.077l-1.873.75-.01.006-.02.008-.87.347-3.11.889-3.35.642-3.476.372-3.499.1-3.407-.177-3.204-.441-2.9-.69-.92-.333-.02-.006-.004-.002h-.002l-.002-.002-1.556-.563-1.427-.342c-.266-.14 1.309 1.489 1.309 1.489.014.011.03.022.046.03l.57.301c.02.01.043.019.066.024a.285.285 0 0 0 .056.039l1.117.592a.28.28 0 0 0 .04.017l2.215.79a.35.35 0 0 0 .032.01l2.557.593.028.006 2.817.375.024.002 2.99.14h.024l3.07-.099a.27.27 0 0 0 .024-.002l3.052-.344c.007 0 .015-.002.022-.004l2.94-.578.026-.006 2.735-.797.028-.01 2.446-.994c.012-.004.023-.01.034-.015l.74-.414a.783.783 0 0 1 .018-.012l.01-.004 1.316-.736a.343.343 0 0 0 .036-.026l1.365-1.611c.088-.068-2.103.686-2.103.686zm.096 4.062l-1.76.71-.012.005-.014.006-.983.395-3.106.892-3.343.643-3.473.373-3.493.1-3.402-.178-3.2-.446-2.896-.693-.999-.363a.166.166 0 0 0-.022-.008h-.004l-.018-.008-1.458-.532-1.413-.348c-.267-.145 1.293 1.48 1.293 1.48.014.011.03.022.046.03l.504.268a.293.293 0 0 0 .072.027.29.29 0 0 0 .062.045l1.169.621a.263.263 0 0 0 .038.018l2.214.793a.35.35 0 0 0 .032.01l2.552.596.028.006 2.814.379a.218.218 0 0 0 .026.002l2.985.142h.024l3.066-.1a.281.281 0 0 0 .024-.001l3.048-.344a.191.191 0 0 0 .024-.004l2.936-.578.024-.006 2.731-.801a.312.312 0 0 0 .03-.01l2.443-.998a.475.475 0 0 0 .032-.016l.81-.455a.783.783 0 0 1 .018-.012l.006-.004.016-.006 1.229-.69a.25.25 0 0 0 .038-.026l1.396-1.63c.007-.006-2.134.716-2.134.716zm.094 4.055l-1.644.664a.156.156 0 0 0-.026.011l-1.093.442-3.102.894-3.338.645-3.467.373-3.49.097-3.396-.18-3.194-.446-2.892-.696-1.074-.394a.264.264 0 0 0-.028-.008h-.004a.234.234 0 0 0-.028-.014l-1.364-.5-1.404-.355c-.268-.144 1.28 1.472 1.28 1.472a.28.28 0 0 0 .048.031l.437.235a.294.294 0 0 0 .08.029h.002c.02.02.043.037.069.05l1.217.651a.263.263 0 0 0 .038.018l2.211.797.032.01 2.549.6.028.005 2.81.381a.218.218 0 0 0 .025.002l2.982.145h.024l3.06-.1a.27.27 0 0 0 .024-.002l3.044-.344a.191.191 0 0 0 .024-.004l2.931-.58.026-.006 2.73-.802.027-.01 2.439-1.002a.243.243 0 0 0 .032-.018l.88-.498a.337.337 0 0 0 .024-.014l.002-.002.024-.011 1.145-.647a.306.306 0 0 0 .038-.023l1.415-1.638c.017-.014-2.153.742-2.153.742zm.097 4.04l-2.761 1.122-3.098.896-3.33.647-3.466.373-3.483.098-3.39-.182-3.19-.45-2.89-.7-2.493-.918-1.393-.363c-.267-.145 1.267 1.462 1.267 1.462.014.012.03.023.046.031l1.803.971a.275.275 0 0 0 .04.018l2.208.8.032.01 2.546.604.028.006 2.805.383a.216.216 0 0 0 .027.002l2.977.146h.024l3.056-.1a.27.27 0 0 0 .024-.001l3.04-.344a.191.191 0 0 0 .024-.004l2.927-.582.027-.006 2.723-.805.028-.01 2.436-1.004a.243.243 0 0 0 .032-.017l2.073-1.176a.245.245 0 0 0 .038-.025l1.432-1.647c.015-.011-2.17.766-2.17.766zm.094 4.03l-2.757 1.123-3.092.9-3.327.649-3.459.375-3.479.096-3.386-.184-3.184-.451-2.886-.705-2.49-.924-1.385-.367c-.265-.147 1.258 1.455 1.258 1.455.015.012.03.022.047.031l1.8.975a.268.268 0 0 0 .038.017l2.204.805a.393.393 0 0 0 .034.01l2.543.605.028.004 2.8.385.027.004 2.974.149h.024l3.051-.098a.278.278 0 0 0 .024-.002l3.036-.346a.191.191 0 0 0 .024-.004l2.924-.582.026-.006 2.719-.807a.2.2 0 0 0 .028-.011l2.432-1.008c.012-.004.023-.01.034-.016l2.072-1.18a.343.343 0 0 0 .036-.025l1.62-1.75c.016-.012-2.358.883-2.358.883zm.094 4.02l-2.753 1.126-3.086.9-3.323.651-3.454.375-3.473.096-3.381-.184-3.182-.455-2.882-.707-2.484-.93-1.467-.5c-.265-.147 1.337 1.57 1.337 1.57a.29.29 0 0 0 .048.034l1.796.979a.263.263 0 0 0 .038.017l2.202.81a.393.393 0 0 0 .034.01l2.54.61.029.004 2.797.387.026.004 2.97.148h.024l3.047-.097a.27.27 0 0 0 .024-.002l3.03-.344a.191.191 0 0 0 .024-.004l2.92-.584.026-.006 2.717-.809a.197.197 0 0 0 .03-.011l2.428-1.012a.475.475 0 0 0 .032-.016l2.066-1.183a.253.253 0 0 0 .038-.026l1.618-1.747c.015-.012-2.356.895-2.356.895z" fill="url(#i)" transform="translate(-367.389 -303.9)"/><path d="M372.336 328.137c-1.662.01-4.947.611-4.947.611l.757 18.197 5.038 2.444 4.46 2.164 4.215 2.043 4.243 2.058 4.539 2.201 5.199 2.522-.598-18.467s-3.451-3.775-5.332-5.504c-1.467-1.348-2.993-2.645-4.629-3.783-1.361-.948-2.786-1.822-4.29-2.52-1.355-.627-2.772-1.148-4.227-1.478a19.497 19.497 0 0 0-4.428-.488z" fill="url(#j)" transform="translate(-367.389 -303.9)"/><path d="M422.625 334.158a40.75 40.75 0 0 0-6.436.197c-2.166.24-4.317.666-6.421 1.237-2.324.63-4.598 1.457-6.811 2.404-2.651 1.135-7.715 3.914-7.715 3.914l.598 18.467 7.754-.89 6.804-.782 6.383-.732 6.371-.733 6.768-.777 7.68-.881-.33-18.389s-5.148-1.63-7.79-2.162a45.966 45.966 0 0 0-6.855-.873z" fill="url(#k)" transform="translate(-367.389 -303.9)"/></g></svg>