<svg xmlns="http://www.w3.org/2000/svg" xmlns:xlink="http://www.w3.org/1999/xlink" width="330.9" height="305.738"><defs><linearGradient id="c"><stop offset="0" stop-color="#2f0031"/><stop offset=".5" stop-color="#8f0077"/><stop offset="1" stop-color="#fb7dee"/></linearGradient><linearGradient id="b"><stop offset="0" stop-color="#333"/><stop offset=".5" stop-color="#fff"/><stop offset="1"/></linearGradient><linearGradient id="a"><stop offset="0" stop-color="#333"/><stop offset=".5" stop-color="#fff"/><stop offset="1"/></linearGradient><linearGradient xlink:href="#a" id="A" gradientUnits="userSpaceOnUse" spreadMethod="reflect" x1="-177.328" y1="343.594" x2="-24.666" y2="342.813"/><linearGradient xlink:href="#b" id="C" gradientUnits="userSpaceOnUse" x1="-105.991" y1="372.735" x2="-133.295" y2="188.418"/><linearGradient xlink:href="#a" id="D" gradientUnits="userSpaceOnUse" x1="-42.847" y1="299.911" x2="-43.146" y2="455.592" spreadMethod="reflect"/><radialGradient xlink:href="#a" id="E" gradientUnits="userSpaceOnUse" gradientTransform="matrix(0 -9.40545 .71519 0 -616.244 -724.345)" spreadMethod="reflect" cx="-120.378" cy="693.92" fx="-120.378" fy="693.92" r="76.071"/><radialGradient xlink:href="#b" id="F" gradientUnits="userSpaceOnUse" gradientTransform="matrix(16.42755 22.76018 -1.31743 5.47585 2215.436 1467.275)" cx="-117.662" cy="314.134" fx="-116.492" fy="328.717" r="76.071"/><radialGradient xlink:href="#a" id="G" gradientUnits="userSpaceOnUse" gradientTransform="matrix(1 0 0 .2009 0 344.06)" cx="-102.141" cy="433.484" fx="-102.141" fy="433.484" r="74.297"/><linearGradient xlink:href="#a" id="H" gradientUnits="userSpaceOnUse" gradientTransform="matrix(1 0 0 1.05552 0 -24.854)" x1="-179.2" y1="433.484" x2="-25.082" y2="433.484"/><radialGradient xlink:href="#c" id="f" gradientUnits="userSpaceOnUse" gradientTransform="matrix(-.04893 .02825 -.03285 -.0569 22.088 251.253)" spreadMethod="reflect" cx="-39.132" cy="149.74" fx="-39.132" fy="149.74" r="77.257"/><radialGradient xlink:href="#c" id="g" gradientUnits="userSpaceOnUse" gradientTransform="matrix(1 0 0 .85818 0 33.122)" cx="9.048" cy="233.546" fx="9.048" fy="233.546" r="33.764"/><radialGradient xlink:href="#c" id="h" gradientUnits="userSpaceOnUse" gradientTransform="matrix(.0267 0 0 .02735 95.862 288.362)" spreadMethod="reflect" cx="277.753" cy="-231.756" fx="277.753" fy="-231.756" r="97.838"/><radialGradient xlink:href="#c" id="z" gradientUnits="userSpaceOnUse" gradientTransform="matrix(1 0 0 1.02414 269.922 76.115)" cx="-179.178" cy="212.742" fx="-179.178" fy="212.742" r="23.329"/><radialGradient xlink:href="#a" id="B" cx="-119.643" cy="280.576" fx="-119.643" fy="280.576" r="76.071" gradientTransform="matrix(3.2135 0 0 1.07117 264.83 -19.968)" gradientUnits="userSpaceOnUse"/><linearGradient xlink:href="#c" id="e" gradientUnits="userSpaceOnUse" gradientTransform="matrix(.90004 0 0 .90004 -3.096 39.545)" x1="14.81" y1="393.319" x2="58.401" y2="462.069"/><linearGradient xlink:href="#c" id="d" x1="1.282" y1="442.147" x2="127.944" y2="443.319" gradientUnits="userSpaceOnUse"/><radialGradient xlink:href="#c" id="I" gradientUnits="userSpaceOnUse" gradientTransform="matrix(2.85168 0 0 10.0959 226.903 -2594.736)" spreadMethod="reflect" cx="-132.949" cy="287.506" fx="-132.949" fy="287.506" r="19.983"/><linearGradient xlink:href="#c" id="J" x1="-242.04" y1="274.14" x2="-171.332" y2="272.187" gradientUnits="userSpaceOnUse" gradientTransform="scale(-1 1) rotate(-12.095 .009 -1002.107)"/><radialGradient xlink:href="#c" id="i" gradientUnits="userSpaceOnUse" gradientTransform="matrix(1 0 0 1.02414 269.922 76.115)" cx="-179.178" cy="212.742" fx="-179.178" fy="212.742" r="23.329"/><radialGradient xlink:href="#c" id="j" gradientUnits="userSpaceOnUse" gradientTransform="matrix(1 0 0 1.02414 269.922 76.115)" cx="-179.178" cy="212.742" fx="-179.178" fy="212.742" r="23.329"/><radialGradient xlink:href="#c" id="k" gradientUnits="userSpaceOnUse" gradientTransform="matrix(1 0 0 1.02414 269.922 76.115)" cx="-179.178" cy="212.742" fx="-179.178" fy="212.742" r="23.329"/><radialGradient xlink:href="#c" id="l" gradientUnits="userSpaceOnUse" gradientTransform="matrix(1 0 0 1.02414 269.922 76.115)" cx="-179.178" cy="212.742" fx="-179.178" fy="212.742" r="23.329"/><radialGradient xlink:href="#c" id="m" gradientUnits="userSpaceOnUse" gradientTransform="matrix(1 0 0 1.02414 269.922 76.115)" cx="-179.178" cy="212.742" fx="-179.178" fy="212.742" r="23.329"/><radialGradient xlink:href="#c" id="n" gradientUnits="userSpaceOnUse" gradientTransform="matrix(1 0 0 1.02414 269.922 76.115)" cx="-179.178" cy="212.742" fx="-179.178" fy="212.742" r="23.329"/><radialGradient xlink:href="#c" id="o" gradientUnits="userSpaceOnUse" gradientTransform="matrix(1 0 0 1.02414 269.922 76.115)" cx="-179.178" cy="212.742" fx="-179.178" fy="212.742" r="23.329"/><radialGradient xlink:href="#c" id="p" gradientUnits="userSpaceOnUse" gradientTransform="matrix(1 0 0 1.02414 269.922 76.115)" cx="-179.178" cy="212.742" fx="-179.178" fy="212.742" r="23.329"/><radialGradient xlink:href="#c" id="q" gradientUnits="userSpaceOnUse" gradientTransform="matrix(1 0 0 1.02414 269.922 76.115)" cx="-179.178" cy="212.742" fx="-179.178" fy="212.742" r="23.329"/><radialGradient xlink:href="#c" id="r" gradientUnits="userSpaceOnUse" gradientTransform="matrix(1 0 0 1.02414 269.922 76.115)" cx="-179.178" cy="212.742" fx="-179.178" fy="212.742" r="23.329"/><radialGradient xlink:href="#c" id="s" gradientUnits="userSpaceOnUse" gradientTransform="matrix(1 0 0 1.02414 269.922 76.115)" cx="-179.178" cy="212.742" fx="-179.178" fy="212.742" r="23.329"/><radialGradient xlink:href="#c" id="t" gradientUnits="userSpaceOnUse" gradientTransform="matrix(1 0 0 1.02414 269.922 76.115)" cx="-179.178" cy="212.742" fx="-179.178" fy="212.742" r="23.329"/><radialGradient xlink:href="#c" id="u" gradientUnits="userSpaceOnUse" gradientTransform="matrix(1 0 0 1.02414 269.922 76.115)" cx="-179.178" cy="212.742" fx="-179.178" fy="212.742" r="23.329"/><radialGradient xlink:href="#c" id="v" gradientUnits="userSpaceOnUse" gradientTransform="matrix(1 0 0 1.02414 269.922 76.115)" cx="-179.178" cy="212.742" fx="-179.178" fy="212.742" r="23.329"/><radialGradient xlink:href="#c" id="w" gradientUnits="userSpaceOnUse" gradientTransform="matrix(1 0 0 1.02414 269.922 76.115)" cx="-179.178" cy="212.742" fx="-179.178" fy="212.742" r="23.329"/><radialGradient xlink:href="#c" id="x" gradientUnits="userSpaceOnUse" gradientTransform="matrix(1 0 0 1.02414 269.922 76.115)" cx="-179.178" cy="212.742" fx="-179.178" fy="212.742" r="23.329"/><radialGradient xlink:href="#c" id="y" gradientUnits="userSpaceOnUse" gradientTransform="matrix(1 0 0 1.02414 269.922 76.115)" cx="-179.178" cy="212.742" fx="-179.178" fy="212.742" r="23.329"/></defs><g color="#000"><path style="marker:none" d="M30.776 403.515c-5.87 0-11.79 1.2-16.656 2.76-11.71 3.588-16.889 3.08-31.687 3.531-4.243.447-7.448-.207-10.282-1.26v10.596c0 7.39-24.464 22.068-59.496 25.791-1.26.134-3.76 2.833-2.37 3.16 7.582 2.682 21.728-2.622 28.648.453 5.294 3.89 2.628 8.837 3.687 13.22-.054 3.972 5.817 8.06 14.344 8.076 13.434-1.003 24.148-6.216 29.219-12.266 3.327-3.844 4.88-8.136 2.25-12.198-1.83-2.705 1.71-2.216 4.375-.511 6.396 4.073 13.842 7.81 23.093 10.29 8.785 3.02 21.201 1.395 27.282-2.726 7.745-4.358 6.555-12.701-5.094-15.094-11.926-.875-23.3-8.724-21.996-14.711 0 0 1.337-4.532 15.465-11.138 4.007-1.86 13.048-5.269 5.03-7.564-1.903-.295-3.855-.41-5.812-.409z" fill="url(#d)" overflow="visible" transform="translate(204.115 -164.168)"/><path style="marker:none" d="M18.231 404.422c-10.839.451-20.738 5.8-31.754 4.853-4.995.397-10.042.209-14.851-.606-2.497 4.154 1.52 10.935-3.77 13.894-12.499 9.782-33.704 17.859-48.96 20.299-3.075 1.036 1.407.974 5.337.88 7.077 1.716 14.87-2.648 21.544.282 3.141 3.925-.826 10.965 4.67 13.838 8.708 5.656 20.18 1.824 28.576-2.531 5.03-2.891 6.916-10.644 5.365-16.792 11.601 2.02 35.522 18.825 49.017 11.37 5.76-2.14 11.245-9.135 5.253-11.975-6.25-3.183-22.192-6.752-27.374-12.277-2.834-1.808-2.463-5.32.787-6.553 4.59-4.39 12.238-4.778 15.948-9.957.73-5.041-6.56-4.706-9.788-4.725z" fill="url(#e)" overflow="visible" transform="translate(204.115 -164.168)"/><path style="marker:none" d="M161.063 122.692c-41.027 0-74.583 8.393-74.97 18.725l-.874 22.235-2.469 66.239h93.531V257.844l55.063-27.953.469-66.239.875-22.235c.386-10.332-30.599-18.725-71.625-18.725z" opacity=".624" overflow="visible"/><path style="marker:none" d="M101.969 81.656c-41.027 0-74.281 6.127-74.281 13.688v162.5l55.062-26.125h93.531V95.344c0-7.561-33.285-13.688-74.312-13.688zM176.281 257.844l-27.687 13.125-16.313 7.75c-2.337 1.108-8.76 2.61-17.687 4.187 35.013-2.887 61.687-16.951 61.687-23.719v-1.343z" fill="gray" overflow="visible"/><path style="marker:none" d="M43.676 228.482c-.015-.129-.072-.267-.169-.445-.303-2.549-4.41-2.277-4.176.313.275 1.994 2.85 2.243 3.911.686.348-.165.459-.339.434-.554zm-.241 8.58c.004-.117-.058-.24-.205-.397-.39-2.577-4.309-2.072-4.284.41-.073 2.065 2.722 2.509 3.73.89.194-.333.748-.552.759-.903zm-6.402 17.449c-.014-.151-.135-.338-.132-.482-.043-2.568-4.45-3.026-4.332-.204.16 2.325 3.03 2.355 4.32.89.122-.036.153-.114.144-.204zm-2.455-42.96c.008-.288-.152-.512-.65-.565-1.475-1.252-4.047-.026-3.345 2.01.18 2.019 2.97 2.044 3.418.18.092-.463.564-1.145.577-1.625zm-.096 24.14c-3.612-1.388-7.821.351-11.3-1.469-1.391-2.386 1.124-2.989 2.997-2.455 1.409.26 6.48-1.878 2.6-1.612-2.038.805-7.512 2.306-6.884-1.516.971-1.467 5.435-3.02 5.066-3.273-2.046.666-5.751 3.947-7.292 1.913.633-2.708 4.414-3.848 4.488-6.606-1.97 1.521-3.588 6.76-6.69 4.32-1.475-2.41 4.044-6.073 2.274-7.1-1.722 1.393-2.023 7.14-4.97 5.03-.468-.62-.522-2.155-.505-3.297 1.412-1.776 1.485-3.984.565-6.041-1.367 1.816-1.876 4.188-.746 6.257-.619 1.941-2.662 3.588-3.754.83-1.199-1.172.061-5.865-1.083-4.945-.136 2.1 1.818 7.605-1.528 7.268-1.227-.411-2.056-1.997-2.624-3.261.286 2.118-3.052 2.881-5.234 3.393-.834.583-2.652.178-3.767.097l-.53-.722c-.664-1.239-3.371-2.426-2.972-.169.675 1.14 1.875 1.649 3.093 2.106.361 1.498-1.177 1.592-2.286 1.649-.165-.182-.35-.384-.578-.614-1.358-1.292-3.43-2.742-5.367-2.238-1.27 1.795 1.823 2.958 3.201 3.417.829.102 1.923.497 2.671.662 2.594 3.428-3.114 2.544-4.933 1.925-1.311-.403-4.148.643-1.168.614 2.297-.891 8.386 1.246 5.018 3.767-1.322-.02-5.847.682-5.294 1.119 2.259.035 7.215-1.845 7.677 1.251-1.11 2.621-5.495 1.441-6.462 4.56 2.489-.687 5.21-4.89 7.822-2.117 1.233 2.993-4.899 4.33-4.356 5.945 2.002-1.421 4.445-5.388 7.051-4.008.376 2.583-2.862 4.505-2.828 7.329 1.134-1.989 3.022-8.2 5.8-4.609 1.64 2.394-2.247 5.828-.565 7.052.903-1.852.368-6.7 2.804-6.51 1.573 2.48 1.599 5.566 2.539 8.29-.554-2.388-.385-7.838 3.333-5.74.117 1.613.38 3.29 1.817 3.84.728.332.97-.71.939-1.168-.158-1.385-1.045-2.458-1.913-3.514-.15-1.726-.524-4.481 1.636-3.97 2.567 1.204 2.868 5.836 4.152 6.918-.466-1.49-2.722-6.936.216-6.004.022.183.118.434.301.794-.085.744.548 1.57 1.228 2.046 1.006 1.865 2.784 3.252 4.693 4.235l-1.637-3.152c-.339-.943-.949-1.678-1.709-2.239-.007-.02-.005-.038-.012-.06-.258-.462-1.037-1.164-1.72-1.6-.012-.575 0-1.305.36-1.865-.243-1.116 3.42 1.576 4.38 2.49.642.553 1.117.93 1.204.975-.048-.068-.304-.338-.866-.866-1.593-1.079-5.261-4.663-1.517-5.078.072.07.155.144.229.216.018.086.03.167.06.265.316.598.848.919 1.456 1.107 2.025 1.66 4.517 2.953 7.004 1.613l-.674-1.011c-1.262-1.493-3.192-1.849-5.126-1.998l-.06-.084c-.63-.454-1.793-1.06-2.371-.866-.27-.924-.58-2.22 1.143-2.239 3.268.245 6.53 1.575 9.916.987.533-.058 1.064-.15 1.588-.265zm-1.877 12.057c-.018-.106-.073-.214-.18-.349-.015-1.767-2.577-3.205-3.298-1.059-1.008 1.669.945 3.881 2.54 2.43.31-.311.904-.524.938-.914a.456.456 0 0 0 0-.108zm-6.005 7.557c-.006-.102-.05-.208-.144-.337.252-1.905-2.462-3.302-3.08-1.083-.894 1.468.698 3.59 2.237 2.395.325-.297 1.011-.531.987-.975zm-6.823-50.24c-.001-.313-.125-.557-.505-.65-1.26-1.367-3.778-.317-3.045 1.625.002 1.8 2.669 2.674 3.165.686.055-.438.388-1.14.385-1.66zM9.368 260.913a2.424 2.424 0 0 0-.036-.313c.202-1.91-2.737-3.378-3.2-1-.771 1.581.407 4.803 2.406 3.166.543-.495.857-1.133.83-1.853zm-.156-51.817c-.018-.171-.109-.305-.325-.397a1.433 1.433 0 0 0-2.467 1.444c.21 1.701 2.736 1.709 2.683-.12-.017-.28.138-.64.109-.927zm-4.14 10.59c-.065-.413-.255-.874-.626-1.396.163.288.36.8.626 1.396zM.704 261.683a2.352 2.352 0 0 0-.036-.446c.037-2.263-3.253-1.765-3.189.241-.132 2.443 3.124 2.33 3.225.205zm-15.583-10.157c.008-.508-.15-.922-.542-1.058-2.062-1.235-4.067 1.591-2.515 3.285 1.474 1.686 3.03-.7 3.057-2.227zm-2.6-24.415c-.016-.183-.136-.348-.445-.482-.97-1.58-3.668-1.086-3.345.987-.11 1.867 2.407 2.529 3.14.794.202-.41.687-.898.65-1.3zm-3.718 9.53a1.339 1.339 0 0 0-.096-.517l-.289-.18c-2.229-1.924-5.732 2.452-2.816 3.657 1.694.478 3.182-1.62 3.201-2.96z" fill="url(#f)" overflow="visible" transform="translate(52.851 -187.242)"/><path style="marker:none" d="M42.81 228.35c.11-1.702-3.042-1.743-2.684.024.277 1.355 2.23 1.027 2.683-.024zm-.338 8.472c-.203-2.162-3.89-.678-2.49 1.022.93.902 2.277-.135 2.49-1.022zm-6.317 17.484c.386-1.832-3.322-2.332-2.768-.216.316 1.231 2.17.978 2.768.216zm-2.527-42.586c-1.522-1.73-3.6 1.312-1.529 2.045 1.16.225 1.435-1.521 1.529-2.045zm-1.95 35.956c.259-1.17-1.717-2.467-1.961-.794-.566 1.127 1.074 2.255 1.78 1.046l.241-.168-.06-.084zm-2.912-7.064c-1.616-1.907-4.442-1.207-6.305-2.6-.548.32 1.2.926 1.456 1.228 1.377 1.091 3.18 2.07 4.993 1.577zm-3.093 14.549c.475-1.982-2.287-2.051-1.744-.037.27 1.133 1.39.714 1.744.037zm-3.188-23.622c-1.095-.437-1.57-1.74-1.372-2.84-1.228.117-2.814-1.025-1.962-2.298-1.368.094-2.752-1.011-2.78-2.287-1.377.388-2.62-1.028-2.815-1.961-.855 1.18-2.723.655-3.334.084-.63 2.098-3.585 1.879-4.524.132-.51-1.45-1.427.546-2.43.566-2.218.73-4.488 1.687-6.872 1.095.68 1.631-1 2.915-2.455 2.816 1.157 1.063 1.115 3.377-.734 3.61.948.778 1.062 2.275.193 3.165 1.418.29 2.52 2.101 1.648 3.273 1.065.35 2.026 1.29 1.865 2.49 1.298-.334 3.031.346 2.552 1.902 1.362-.42 2.618.964 3.176 1.865 1.626-1.083 2.531.842 2.912 2.202.266 1.127.375 1.54.927.41.81-.995 2.288-1.008 3.345-.422-.29-1.705-.372-4.96 2.142-4.79 1.164-.058 2.01 1.44 2.588 1.794.353-1.015 1.672-1.056 2.442-.806.045-1.037.644-2.69 1.962-1.974-.34-1.274.902-2.3 2.082-2.334-.477-1.125-.117-2.78 1.287-2.973-.544-.88-.278-2.07.157-2.72zm-1.974 15.018c-.515-1.384-1.913-2.528-2.828-3.273.758 1.34 1.867 2.574 2.973 3.706.393.436-.127-.33-.145-.433zM18.875 205.1c-.815-1.227-2.708-.11-1.842 1.18.206 1.032 1.85 1.09 1.71-.157-.04-.245.48-.914.132-1.023zm-4.212 11.071c.003-1.493-.528.857-.433 1.312-.015 1.755.543-.948.433-1.312zm-2.924 32.61c-.074-.69-.902-2.166-1.156-2.057.047.75.375 2.388 1.144 2.395a.754.754 0 0 0 .012-.337zm-3.153 12.034c.418-1.27-1.835-2.525-1.83-.686-.46.908.419 3.245 1.481 1.842.265-.327.413-.734.349-1.156zm-.217-51.515c-.347-1.28-2.046-.317-1.203.59-.062 1.123 1.62.83 1.191-.241-.182-.048.231-.334.012-.349zm-8.447 52.25c.392-1.67-2.263-1.027-1.649.336.175 1.068 1.816.672 1.649-.337zm-1.384-.759c-.013-.04-.022.017 0 0zM-5.06 222.96c-.209-.47-1.399-1.47-1.6-.89.205.546 2.57 2.013 1.6.89zm-2.635 3.08c-1.135-1.004-2.872-2.473-4.38-1.997.794 1.616 3.087 1.779 4.644 2.274zm-7.967 25.223c-1.465-1.373-3.065 1.792-1.179 2.298.808-.297 1.237-1.486 1.18-2.298zm-2.78-24.02c-.614-1.522-2.89-.526-1.949.964.882 1.206 1.876-.247 1.95-.963zm-3.55 9.35c-1.257-1.421-4.004 1.63-2.033 2.3 1.118.036 2.037-1.299 2.034-2.3z" fill="url(#g)" overflow="visible" transform="translate(52.851 -187.242)"/><path style="marker:none" d="M95.806 269.623c-.059 0-.118.005-.182.011-1.925-.07-1.924 2.94-.113 2.95 1.552-.069 2.112-2.977.295-2.96zm-6.987.102c-1.876.176-2.119 3.33-.08 3.312 1.624-.085 2.016-3.455.08-3.312zm3.436 3.71a1.084 1.084 0 0 0-.453.079c-1.857.735-.296 3.912 1.213 2.336.531-.74.216-2.361-.76-2.416zm-16.82 1.349c-2.15.027-1.668 3.528.328 3.097 1.442-.45 1.448-3.277-.329-3.097zm32.666 1.883c-1.54.232-2.305 2.588-.465 2.926 1.716.33 2.567-3.076.465-2.926zm-18.216 3.267c-.374.153.425 3.135-.034 3.879-.83 1.986-1.588-2.175-2.813-.057-.877.409-.332-3.5-1.293-1.928.407 1.035 1.513 4.395.136 4.287-.168-.974-2.19-2.49-.817-.714 1.867 1.635 2.127 5.786-1.338 5.115-1.625.208-4.25-.991-5.15-.658 1.296 2.423 4.747 1.07 6.34 2.995-.354 1.316-3.282.741-4.695.714-1.128-.098-3.013-.288-3.687.068 2.17 1.304 4.936-.897 6.965.715 1.079 2.463-3.417 2.818-5.161 2.654-2.202.283-.068 1.942.862.545 2.144-1.673 3.82 1.841 1.86 3.05-.701.178-2.319 1.604-.84.715 1.42-2.179 5.89.32 2.802 1.917-1.101.435-1.78 3.302-.408 1.26.368-2.273 4.923-3.677 4.004-.318-.409.665-2.519 3.78-.907 2.949.48-1.776 2.408-6.197 4.162-3.006.377 1.284-1.393 4.797-.17 4.64.278-1.598.108-5.889 2.53-4.912 1.038 1.559.062 4.063 1.474 5.286-.09-1.878-2.138-6.293 1.305-5.887.776.85 1.468 1.138 1.576-.193 1.536-.496 4.25.295 2.439-2.178-.543-1.153 1.075-1.772 1.588-1.917-2.288-1.43-.294-3.819 1.679-3.403-1.599-.307-3.145-.975-1.793-2.29 1.102-.74 5.154-.33 4.662-1.317-1.904.05-5.784 2.002-5.898-1.202.363-1.776 5.26-1.587 4.072-2.892-1.453 1.045-5.485 2.98-4.855-.454.363-1.197 4.013-2.148 2.745-2.983-1.28 1.406-3.144 2.923-4.57.998.308-.219.626-.48.873-.68.954-.576 1.92-3.244.08-3.086-.953.699-1.463 2.02-1.918 3.063-.088.351-.109.6-.09.771-1.609-.013-2.966-1.17-1.86-3.017.858-.693.788-3.656-.205-1.679-.402 2.029.117 5.263-2.416 5.966-2.097-1.597-.112-4.472-.896-6.578-.165-.198-.271-.267-.34-.238zm12.409 15.618c.366.078.74.25 1.077.545 1.03.68 3.515.138 1.021-.318a12.443 12.443 0 0 1-2.098-.227zm-1.68 3.403c.008.005.016.007.024.011.192-.052.148-.06-.023-.01zM70.887 280.57a1.54 1.54 0 0 0-.17.011c-1.94.212-1.774 3.243.17 3.187 1.698-.093 1.698-3.19 0-3.198zm42.387 7.656c-1.574.043-2.598 2.488-.703 2.904 1.776.506 3.03-2.985.703-2.904zm-44.304 2.632c-.048.003-.099.013-.148.022-4.151.48.439 5.49 1.339 1.339.157-.758-.47-1.402-1.191-1.361zm41.298 5.58c-1.198.21-2.335 1.725-.828 2.348 1.71 1.125 2.92-2.29.828-2.348zm-41.73 1.293c-.05.002-.105.013-.158.023-3.58.562.438 5.12 1.27 1.474.234-.779-.335-1.532-1.111-1.497zm33.394 1.055c-.07.004-.138.01-.205.023-1.411 1.048 1.186 2.2 2.28 1.962.394-1.209-1.019-2.052-2.075-1.985zm-5.105 5.92l-.51.523c-.663.908.325 2.17.998 2.824 1.377-.797.453-2.57-.488-3.346zm-21.233 5.445c-.056 0-.11.005-.17.012-1.627.308-2.037 2.853-.193 3.074 1.524.012 2.093-3.078.363-3.086zm19.373 2.19a1.02 1.02 0 0 0-.25.034c-1.518.594-.946 3.155.738 2.767 1.122-.441.7-2.787-.488-2.801zm-8.042 2.858c-.052.003-.102.012-.158.023-1.493.556-1.715 3.101.147 3.164 1.576-.113 1.648-3.291.011-3.187z" fill="url(#h)" overflow="visible" transform="matrix(2.3476 0 0 2.3476 8.292 -625.231)"/><path style="marker:none" d="M95.662 270.117c-1.455-.225-1.199 2.495.152 1.894.73-.36 1.017-2.105-.152-1.894z" fill="url(#i)" overflow="visible" transform="matrix(2.3476 0 0 2.3476 8.292 -625.231)"/><path style="marker:none" d="M88.817 270.216c-1.374.076-1.333 2.752.144 2.275.782-.36 1.072-2.415-.144-2.275z" fill="url(#j)" overflow="visible" transform="matrix(2.3476 0 0 2.3476 8.292 -625.231)"/><path style="marker:none" d="M92.133 273.928c-1.166.06-.681 2.334.35 1.742.523-.355.377-1.742-.35-1.742z" fill="url(#k)" overflow="visible" transform="matrix(2.3476 0 0 2.3476 8.292 -625.231)"/><path style="marker:none" d="M75.484 275.274c-1.567-.165-1.014 2.815.365 2.024.66-.445.706-2.169-.365-2.024z" fill="url(#l)" overflow="visible" transform="matrix(2.3476 0 0 2.3476 8.292 -625.231)"/><path style="marker:none" d="M68.965 291.353c-.893-.14-1.868.81-1.057 1.552.779 1.157 2.105-.187 1.727-1.194-.124-.236-.402-.404-.67-.358z" fill="url(#m)" overflow="visible" transform="matrix(2.3476 0 0 2.3476 8.292 -625.231)"/><path style="marker:none" d="M110.258 296.936c-.646.065-1.604 1.15-.563 1.438.97.773 1.816-1.528.563-1.438z" fill="url(#n)" overflow="visible" transform="matrix(2.3476 0 0 2.3476 8.292 -625.231)"/><path style="marker:none" d="M75.499 310.65c-1.201.054-1.367 2.343-.03 2.053.7-.233 1.143-2.185.03-2.053z" fill="url(#o)" overflow="visible" transform="matrix(2.3476 0 0 2.3476 8.292 -625.231)"/><path style="marker:none" d="M94.91 312.833c-1.071.247-.524 2.326.509 1.757.4-.466.194-1.73-.51-1.757z" fill="url(#p)" overflow="visible" transform="matrix(2.3476 0 0 2.3476 8.292 -625.231)"/><path d="M108.09 277.16c-1.064.096-1.517 2.044-.19 1.963.929-.004 1.5-2.188.19-1.962z" style="marker:none" fill="url(#q)" overflow="visible" transform="matrix(2.3476 0 0 2.3476 8.292 -625.231)"/><path d="M70.844 281.063c-1.48-.072-1.191 2.657.25 2.167.817-.312.804-2.208-.25-2.167z" style="marker:none" fill="url(#r)" overflow="visible" transform="matrix(2.3476 0 0 2.3476 8.292 -625.231)"/><path d="M97.746 282.165c-.821.796-1.377 1.956-1.65 3.066.964-.643 2.424-1.712 1.955-3.035-.08-.051-.23-.115-.305-.03z" style="marker:none" fill="url(#s)" overflow="visible" transform="matrix(2.3476 0 0 2.3476 8.292 -625.231)"/><path d="M87.744 283.64c-.294.511-1.06.54-.714 1.256.15.629-.232 1.309-.548 1.673.85 1.548.495 4.203-1.567 4.473-1.796.12-3.548-.25-5.279-.677 1.763 1.116 4.459.456 5.811 2.35-.011.845-.944 1.25-1.498 1.453.777 1.46-.704 2.845-2.084 3.034-.153.239.591.88.51 1.377.167.46-.126 1.123-.076 1.422.992.126 2.155.767 2.266 1.864 1.042-.499 2.605-.02 2.655 1.278.843-1.093 2.52-.619 2.989.585.316.038.964-.74 1.59-.502.57-.16.923.96 1.148.221.755-.982 2.332-.932 3.042 0 .087-.518.298-1.015.99-.989.613-.237 1.812.102 2.144-.426-.472-.764-1.126-1.867-.251-2.647.316-.39 1.098-.507.487-1.011-.704-1.058.159-2.462.943-2.974-1.024-.465-1.003-1.865-.152-2.487-1.217-.36-1.868-2.197-.882-3.111-1.4-.147-1.66-2.046-1.027-2.997-.91.032-1.674-.598-2.145-1.323.302.935-1.134.388-1.673.281-.615-.09-1.134-1.15-1.278-.046-.5.967-2.013 2.161-2.822.951-.524-.469-.545-1.478-.799-1.833-.86.181-1.163-.918-1.78-1.194z" style="marker:none" fill="url(#t)" overflow="visible" transform="matrix(2.3476 0 0 2.3476 8.292 -625.231)"/><path d="M113.171 288.722c-1.011.026-1.697 1.88-.388 1.955.992.244 2.124-2.145.388-1.955z" style="marker:none" fill="url(#u)" overflow="visible" transform="matrix(2.3476 0 0 2.3476 8.292 -625.231)"/><path d="M78.252 297.507c-.773.23.907-.016 0 0z" style="marker:none" fill="url(#v)" overflow="visible" transform="matrix(2.3476 0 0 2.3476 8.292 -625.231)"/><path d="M68.54 298.222c-.91-.113-1.539.911-.8 1.544.613.852 1.49.022 1.469-.791.066-.393-.262-.806-.67-.753z" style="marker:none" fill="url(#w)" overflow="visible" transform="matrix(2.3476 0 0 2.3476 8.292 -625.231)"/><path d="M101.93 299.279c-.392.49.813.863 1.156.95 1.038.336.036-.862-.464-.859a1.465 1.465 0 0 0-.692-.091z" style="marker:none" fill="url(#x)" overflow="visible" transform="matrix(2.3476 0 0 2.3476 8.292 -625.231)"/><path d="M96.712 305.516c-.43.593.388 1.86.753 1.704.21-.65-.214-1.331-.624-1.826l-.129.122z" style="marker:none" fill="url(#y)" overflow="visible" transform="matrix(2.3476 0 0 2.3476 8.292 -625.231)"/><path d="M86.893 315.693c-1.076.313-1.126 2.475.19 2.16.713-.344.857-2.248-.19-2.16z" style="marker:none" fill="url(#z)" overflow="visible" transform="matrix(2.3476 0 0 2.3476 8.292 -625.231)"/><path d="M-102.156 245.813c-41.027 0-74.281 6.126-74.281 13.687V423.344c0 7.56 33.254 24.281 74.28 24.281 41.028 0 74.313-16.72 74.313-24.281V259.5c0-7.56-33.285-13.688-74.312-13.688z" style="marker:none" fill="url(#A)" overflow="visible" transform="translate(204.115 -164.168)"/><path transform="matrix(.97653 0 0 .53988 218.806 -56.156)" d="M-43.571 280.576c0 14.005-34.059 25.358-76.072 25.358-42.013 0-76.071-11.353-76.071-25.358 0-14.004 34.058-25.357 76.071-25.357s76.072 11.353 76.072 25.357z" style="marker:none" fill="url(#B)" overflow="visible"/><path style="marker:none" d="M-43.571 280.576c0 14.005-34.059 25.358-76.072 25.358-42.013 0-76.071-11.353-76.071-25.358 0-14.004 34.058-25.357 76.071-25.357s76.072 11.353 76.072 25.357z" transform="matrix(.94086 0 0 .52016 214.539 -50.624)" fill="url(#C)" overflow="visible"/><path style="marker:none" d="M-43.571 280.576c0 14.005-34.059 25.358-76.072 25.358-42.013 0-76.071-11.353-76.071-25.358 0-14.004 34.058-25.357 76.071-25.357s76.072 11.353 76.072 25.357z" transform="matrix(.92609 0 0 .49594 212.772 -43.42)" fill="url(#D)" overflow="visible"/><path style="marker:none" d="M-43.571 280.576c0 14.005-34.059 25.358-76.072 25.358-42.013 0-76.071-11.353-76.071-25.358 0-14.004 34.058-25.357 76.071-25.357s76.072 11.353 76.072 25.357z" transform="matrix(.78954 0 0 .3771 196.435 -10.783)" fill="url(#E)" overflow="visible"/><path transform="matrix(.7701 0 0 .3209 194.108 6.132)" d="M-43.571 280.576c0 14.005-34.059 25.358-76.072 25.358-42.013 0-76.071-11.353-76.071-25.358 0-14.004 34.058-25.357 76.071-25.357s76.072 11.353 76.072 25.357z" style="marker:none" fill="url(#F)" overflow="visible"/><path d="M-176.438 416.219v4.222c0 7.98 33.255 25.63 74.282 25.63 41.027 0 74.312-17.65 74.312-25.63v-4.222c0 7.98-33.285 25.63-74.312 25.63s-74.281-17.65-74.281-25.63z" style="marker:none" fill="url(#G)" overflow="visible" transform="translate(204.115 -164.168)"/><path style="marker:none" d="M-176.438 417.773v4.223c0 7.98 33.255 25.629 74.282 25.629 41.027 0 74.312-17.649 74.312-25.63v-4.222c0 7.981-33.285 25.63-74.312 25.63s-74.281-17.649-74.281-25.63z" fill="url(#H)" overflow="visible" transform="translate(204.115 -164.168)"/><g><path style="marker:none" d="M-158.154 265.645c-3.586.23-4.535 4.308-4.775 7.246-2.791 17.801-.086 35.82-.68 53.718.204 6.519 1.131 12.985 2.095 19.427 2.087 3.747 7.221 1.424 9-1.453 3.413-3.82 4.495-9.424 2.792-14.244-.51-3.864 1.401-8.466 5.393-9.615 4.456.37 2.724 6.036 2.363 8.976-.479 4.137-.718 9.404 3.019 12.157 3.938 2.158 8.776-1.145 9.609-5.215 2.097-4.074 2.703-8.547 3.116-13.017-.43-3.866 3.564-9.652 7.223-5.398 1.68 2.86 6.325 3.715 5.842-.803 1.442-13.446 1.012-26.996 1.624-40.486.934-5.083-3.536-7.528-7.959-7.332-12.793-2.077-25.703-3.52-38.662-3.96z" fill="url(#I)" overflow="visible" transform="matrix(-1 0 0 1 -7.565 -163.616)"/><path style="marker:none" d="M-116.94 272.032c3.985 1.227 2.175 5.353-1.932 4.129-12.083-.471-24.822-1.26-36.5-4.45-.969-4.978 7.395-2.751 11.037-2.885 9.143.596 18.346 1.38 27.395 3.206z" fill="url(#J)" overflow="visible" transform="matrix(-1 0 0 1 -7.565 -163.616)"/></g></g></svg>