<svg viewBox="0 0 240 240" xmlns="http://www.w3.org/2000/svg" xmlns:xlink="http://www.w3.org/1999/xlink"><defs><linearGradient id="a"><stop stop-color="#666" offset="0"/><stop stop-color="#222" offset=".5"/><stop stop-color="#fff" offset="1"/></linearGradient><radialGradient id="b" cx="-47.638" cy="49.491" r="12.5" gradientTransform="matrix(2.6282 0 0 2.1431 106.11 310.87)" gradientUnits="userSpaceOnUse"><stop stop-color="#f55" offset="0"/><stop stop-color="#ff5561" offset=".5"/><stop stop-color="#4b1920" offset="1"/></radialGradient><radialGradient id="c" cx="545" cy="7.362" r="30" gradientTransform="matrix(.31845 0 0 .07407 230.91 421.47)" gradientUnits="userSpaceOnUse" spreadMethod="reflect"><stop stop-color="#ba7d2d" offset="0"/><stop stop-color="#ebad48" offset=".5"/><stop stop-color="#bf8232" offset="1"/></radialGradient><linearGradient id="d" x1="316.32" x2="328.28" y1="70.855" y2="21.366" gradientTransform="matrix(.95685 0 0 .67358 45.737 400.18)" gradientUnits="userSpaceOnUse" xlink:href="#a"/><radialGradient id="e" cx="307.72" cy="25.117" r="30" gradientTransform="matrix(1.4967 .00001 0 .14514 -117.35 418.98)" gradientUnits="userSpaceOnUse" xlink:href="#a" spreadMethod="reflect"/><linearGradient id="f" x1="175" x2="175" y1="317.36" y2="262.36" gradientTransform="translate(0 134.35)" gradientUnits="userSpaceOnUse" spreadMethod="reflect"><stop stop-color="#3e3200" offset="0"/><stop stop-color="#4b3e00" offset=".267"/><stop stop-color="#c8a000" offset=".312"/><stop stop-color="#bf9900" offset=".634"/><stop stop-color="#ffeeab" offset=".682"/><stop stop-color="#ffce0b" offset="1"/></linearGradient><radialGradient id="g" cx="-12.931" cy="75.759" r="22.5" gradientTransform="matrix(7.1076 0 0 1.3211 105.61 346.81)" gradientUnits="userSpaceOnUse" xlink:href="#a" spreadMethod="reflect"/><radialGradient id="h" cx="9.451" cy="175.68" r="1.022" gradientTransform="matrix(2.0551 0 0 19.357 -19.884 -3223.4)" gradientUnits="userSpaceOnUse" xlink:href="#a" spreadMethod="reflect"/><radialGradient id="i" cx="9.451" cy="175.68" r="1.022" gradientTransform="matrix(2.0551 0 0 19.357 -16.839 -3223.4)" gradientUnits="userSpaceOnUse" xlink:href="#a" spreadMethod="reflect"/><radialGradient id="j" cx="9.451" cy="175.68" r="1.022" gradientTransform="matrix(2.0551 0 0 19.357 -13.794 -3223.4)" gradientUnits="userSpaceOnUse" xlink:href="#a" spreadMethod="reflect"/><radialGradient id="k" cx="9.451" cy="175.68" r="1.022" gradientTransform="matrix(2.0551 0 0 19.357 -10.749 -3223.4)" gradientUnits="userSpaceOnUse" xlink:href="#a" spreadMethod="reflect"/><radialGradient id="l" cx="9.451" cy="175.68" r="1.022" gradientTransform="matrix(-3.1623 0 0 25.809 90.784 -4106.7)" gradientUnits="userSpaceOnUse" xlink:href="#a" spreadMethod="reflect"/><radialGradient id="m" cx="9.451" cy="175.68" r="1.022" gradientTransform="matrix(-3.1623 0 0 25.809 86.099 -4106.7)" gradientUnits="userSpaceOnUse" xlink:href="#a" spreadMethod="reflect"/><radialGradient id="n" cx="9.451" cy="175.68" r="1.022" gradientTransform="matrix(-3.1623 0 0 25.809 81.413 -4106.7)" gradientUnits="userSpaceOnUse" xlink:href="#a" spreadMethod="reflect"/><radialGradient id="o" cx="9.451" cy="175.68" r="1.022" gradientTransform="matrix(-3.1623 0 0 25.809 76.728 -4106.7)" gradientUnits="userSpaceOnUse" xlink:href="#a" spreadMethod="reflect"/><radialGradient id="p" cx="10.077" cy="175.59" r="1.022" gradientTransform="matrix(1 0 0 17.603 0 -2915.4)" gradientUnits="userSpaceOnUse" xlink:href="#a" spreadMethod="reflect"/><radialGradient id="q" cx="13.122" cy="175.59" r="1.022" gradientTransform="matrix(1 0 0 17.603 0 -2915.4)" gradientUnits="userSpaceOnUse" xlink:href="#a" spreadMethod="reflect"/><radialGradient id="r" cx="16.167" cy="175.59" r="1.022" gradientTransform="matrix(1 0 0 17.603 0 -2915.4)" gradientUnits="userSpaceOnUse" xlink:href="#a" spreadMethod="reflect"/><radialGradient id="s" cx="19.212" cy="175.59" r="1.022" gradientTransform="matrix(1 0 0 17.603 0 -2915.4)" gradientUnits="userSpaceOnUse" xlink:href="#a" spreadMethod="reflect"/><radialGradient id="t" cx="-10.077" cy="175.59" r="1.022" gradientTransform="matrix(1 0 0 17.603 0 -2915.4)" gradientUnits="userSpaceOnUse" xlink:href="#a"/><radialGradient id="u" cx="-13.122" cy="175.59" r="1.022" gradientTransform="matrix(1 0 0 17.603 0 -2915.4)" gradientUnits="userSpaceOnUse" xlink:href="#a"/><radialGradient id="v" cx="-16.167" cy="175.59" r="1.022" gradientTransform="matrix(1 0 0 17.603 0 -2915.4)" gradientUnits="userSpaceOnUse" xlink:href="#a"/><radialGradient id="w" cx="-19.212" cy="175.59" r="1.022" gradientTransform="matrix(1 0 0 17.603 0 -2915.4)" gradientUnits="userSpaceOnUse" xlink:href="#a"/></defs><path d="M224.93 128.022c-6.117.938-11.572 4.625-17.39 6.277-5.848 2.815-12.256 5.346-18.455 7.949-2.956.854-5.597 2.414-8.54 3.353-17.404 7.781-35.283 14.838-52.87 22.34-35.343 14.793-70.685 29.585-106.025 44.374-7.1 5.727-14.728 11.297-21.564 16.95 13.183-2.867 26.496-5.521 39.604-8.658l157.673-65.992c2.157-.474 3.95-1.818 6.121-2.329 5.835-2.876 12.414-5.301 18.41-7.939 5.576-2.114 11.174-4.794 16.947-7.085 4.383-3.987-4.723-5.8-7.52-7.808-1.95-1.04-4.19-1.471-6.386-1.435z" color="#000" fill="#333" opacity=".405"/><g color="#000"><path d="M-32.524 402.03c-4.617 0-8.333 5.947-8.333 13.333v20c0 7.387 3.716 13.333 8.333 13.333h16.667V402.03h-16.667z" fill="url(#b)" transform="scale(-.62106 .62106) rotate(50 262.488 -36.556)"/><path d="M404.46 425.35l-57.321 23.333v-46.667z" fill="url(#c)" transform="scale(-.62106 .62106) rotate(50 262.488 -36.556)"/><path d="M404.55 425.35l-57.411 23.333v-46.667z" fill="url(#d)" opacity=".577" transform="scale(-.62106 .62106) rotate(50 262.488 -36.556)"/><path d="M404.46 425.35c0 1.067-15.773 7.2-17.144 6.667-1.372-.533-1.372-12.8 0-13.335 1.372-.533 17.144 5.6 17.144 6.668z" fill="url(#e)" transform="scale(-.62106 .62106) rotate(50 262.488 -36.556)"/><path d="M27.156 402.01v46.688h320.28c2.748-1.4 7.216-2.813 5.5-6.375-.55-1.14-.851-3.936-5.469-6.969h-.312c2.787-3.623 8.542-5.73 7.812-10.5 0-4.58-4.17-6.212-7.812-9.5 2.926-3.113 5.696-5.07 5.28-8.344-.304-2.404-5.28-5-5.28-5h-320z" fill="url(#f)" transform="scale(-.62106 .62106) rotate(50 262.488 -36.556)"/><path d="M-17.857 402.05h69.244v46.632h-69.244z" fill="url(#g)" transform="scale(-.62106 .62106) rotate(50 262.488 -36.556)"/></g><g color="#000"><path transform="rotate(-50 -29.944 -69.83) scale(.95563 .82806)" d="M9.938 157.59h.278c.49 0 .884.405.884.91v34.181c0 .504-.395.91-.884.91h-.278a.895.895 0 0 1-.883-.91V158.5c0-.504.394-.909.883-.909z" fill="url(#h)"/><path transform="rotate(-50 -29.944 -69.83) scale(.95563 .82806)" d="M12.983 157.59h.277c.49 0 .884.405.884.91v34.181c0 .504-.394.91-.884.91h-.277a.895.895 0 0 1-.884-.91V158.5c0-.504.394-.909.884-.909z" fill="url(#i)"/><path transform="rotate(-50 -29.944 -69.83) scale(.95563 .82806)" d="M16.029 157.59h.277c.49 0 .884.405.884.91v34.181c0 .504-.394.91-.884.91h-.277a.895.895 0 0 1-.884-.91V158.5c0-.504.394-.909.884-.909z" fill="url(#j)"/><path transform="rotate(-50 -29.944 -69.83) scale(.95563 .82806)" d="M19.074 157.59h.277c.49 0 .884.405.884.91v34.181c0 .504-.394.91-.884.91h-.277a.895.895 0 0 1-.884-.91V158.5c0-.504.394-.909.884-.909z" fill="url(#k)"/></g><g color="#000"><path d="M44.894 401.37h-.427c-.753 0-1.36.54-1.36 1.212v45.576c0 .672.607 1.212 1.36 1.212h.427c.753 0 1.36-.54 1.36-1.212v-45.576c0-.671-.606-1.212-1.36-1.212z" fill="url(#l)" transform="scale(-.62106 .62106) rotate(50 262.488 -36.556)"/><path d="M40.209 401.37h-.427c-.753 0-1.36.54-1.36 1.212v45.576c0 .672.607 1.212 1.36 1.212h.427c.753 0 1.36-.54 1.36-1.212v-45.576c0-.671-.606-1.212-1.36-1.212z" fill="url(#m)" transform="scale(-.62106 .62106) rotate(50 262.488 -36.556)"/><path d="M35.523 401.37h-.427c-.753 0-1.36.54-1.36 1.212v45.576c0 .672.607 1.212 1.36 1.212h.427c.753 0 1.36-.54 1.36-1.212v-45.576c0-.671-.606-1.212-1.36-1.212z" fill="url(#n)" transform="scale(-.62106 .62106) rotate(50 262.488 -36.556)"/><path d="M30.838 401.37h-.427c-.753 0-1.36.54-1.36 1.212v45.576c0 .672.607 1.212 1.36 1.212h.427c.753 0 1.36-.54 1.36-1.212v-45.576c0-.671-.606-1.212-1.36-1.212z" fill="url(#o)" transform="scale(-.62106 .62106) rotate(50 262.488 -36.556)"/></g><g opacity=".37" stroke="#333" stroke-width=".698" color="#000"><path transform="rotate(-50 -16.931 -41.925) scale(.95563 .82806)" d="M9.938 157.59h.278c.49 0 .884.405.884.91v34.181c0 .504-.395.91-.884.91h-.278a.895.895 0 0 1-.883-.91V158.5c0-.504.394-.909.883-.909z" fill="url(#p)"/><path transform="rotate(-50 -16.931 -41.925) scale(.95563 .82806)" d="M12.983 157.59h.277c.49 0 .884.405.884.91v34.181c0 .504-.394.91-.884.91h-.277a.895.895 0 0 1-.884-.91V158.5c0-.504.394-.909.884-.909z" fill="url(#q)"/><path transform="rotate(-50 -16.931 -41.925) scale(.95563 .82806)" d="M16.029 157.59h.277c.49 0 .884.405.884.91v34.181c0 .504-.394.91-.884.91h-.277a.895.895 0 0 1-.884-.91V158.5c0-.504.394-.909.884-.909z" fill="url(#r)"/><path transform="rotate(-50 -16.931 -41.925) scale(.95563 .82806)" d="M19.074 157.59h.277c.49 0 .884.405.884.91v34.181c0 .504-.394.91-.884.91h-.277a.895.895 0 0 1-.884-.91V158.5c0-.504.394-.909.884-.909z" fill="url(#s)"/></g><g color="#000" opacity=".37" stroke="#333" stroke-linecap="round" stroke-linejoin="round" stroke-width=".698"><path d="M-9.938 157.59h-.278a.895.895 0 0 0-.884.91v34.181c0 .504.395.91.884.91h.278c.49 0 .883-.406.883-.91V158.5a.895.895 0 0 0-.883-.909z" fill="url(#t)" transform="rotate(130 32.563 -13.963) scale(.95563 -.82806)"/><path d="M-12.983 157.59h-.277a.895.895 0 0 0-.884.91v34.181c0 .504.394.91.884.91h.277c.49 0 .884-.406.884-.91V158.5a.895.895 0 0 0-.884-.909z" fill="url(#u)" transform="rotate(130 32.563 -13.963) scale(.95563 -.82806)"/><path d="M-16.029 157.59h-.277a.895.895 0 0 0-.884.91v34.181c0 .504.394.91.884.91h.277c.49 0 .884-.406.884-.91V158.5a.895.895 0 0 0-.884-.909z" fill="url(#v)" transform="rotate(130 32.563 -13.963) scale(.95563 -.82806)"/><path d="M-19.074 157.59h-.277a.895.895 0 0 0-.884.91v34.181c0 .504.394.91.884.91h.277c.49 0 .884-.406.884-.91V158.5a.895.895 0 0 0-.884-.909z" fill="url(#w)" transform="rotate(130 32.563 -13.963) scale(.95563 -.82806)"/></g></svg>