<svg xmlns="http://www.w3.org/2000/svg" xmlns:xlink="http://www.w3.org/1999/xlink" height="351.934" width="445.411"><defs><linearGradient id="d"><stop offset="0" stop-color="#3e3200"/><stop offset=".267" stop-color="#4b3e00"/><stop offset=".312" stop-color="#c8a000"/><stop offset=".634" stop-color="#bf9900"/><stop offset=".682" stop-color="#ffeeab"/><stop offset="1" stop-color="#ffce0b"/></linearGradient><linearGradient id="c"><stop offset="0" stop-color="#666"/><stop offset=".5" stop-color="#222"/><stop offset="1" stop-color="#fff"/></linearGradient><linearGradient id="b"><stop offset="0" stop-color="#ba7d2d"/><stop offset=".5" stop-color="#ebad48"/><stop offset="1" stop-color="#bf8232"/></linearGradient><linearGradient id="a"><stop offset="0" stop-color="#f55"/><stop offset=".5" stop-color="#ff5561"/><stop offset="1" stop-color="#4b1920"/></linearGradient><radialGradient xlink:href="#a" id="f" gradientUnits="userSpaceOnUse" gradientTransform="matrix(2.62822 0 0 2.1431 106.113 176.518)" cx="-47.638" cy="49.491" fx="-47.638" fy="49.491" r="12.5"/><radialGradient xlink:href="#b" id="g" gradientUnits="userSpaceOnUse" gradientTransform="matrix(.31845 0 0 .07407 230.908 287.122)" spreadMethod="reflect" cx="545" cy="7.362" fx="545" fy="7.362" r="30"/><linearGradient xlink:href="#c" id="h" gradientUnits="userSpaceOnUse" gradientTransform="matrix(.95685 0 0 .67358 45.737 265.835)" x1="316.32" y1="70.855" x2="328.285" y2="21.366"/><radialGradient xlink:href="#c" id="i" gradientUnits="userSpaceOnUse" gradientTransform="matrix(1.49673 .00001 0 .14514 -117.35 284.63)" spreadMethod="reflect" cx="307.721" cy="25.117" fx="307.721" fy="25.117" r="30"/><linearGradient xlink:href="#d" id="j" gradientUnits="userSpaceOnUse" spreadMethod="reflect" x1="175" y1="317.362" x2="175" y2="262.362"/><radialGradient xlink:href="#c" id="k" gradientUnits="userSpaceOnUse" gradientTransform="matrix(7.10755 0 0 1.32115 105.61 212.461)" spreadMethod="reflect" cx="-12.931" cy="75.759" fx="-12.931" fy="75.759" r="22.5"/><radialGradient xlink:href="#c" id="l" gradientUnits="userSpaceOnUse" gradientTransform="matrix(2.0551 0 0 19.35692 -19.884 -3223.425)" spreadMethod="reflect" cx="9.451" cy="175.683" fx="9.451" fy="175.683" r="1.023"/><radialGradient xlink:href="#c" id="m" gradientUnits="userSpaceOnUse" gradientTransform="matrix(2.0551 0 0 19.35692 -16.84 -3223.425)" spreadMethod="reflect" cx="9.451" cy="175.683" fx="9.451" fy="175.683" r="1.023"/><radialGradient xlink:href="#c" id="n" gradientUnits="userSpaceOnUse" gradientTransform="matrix(2.0551 0 0 19.35692 -13.794 -3223.425)" spreadMethod="reflect" cx="9.451" cy="175.683" fx="9.451" fy="175.683" r="1.023"/><radialGradient xlink:href="#c" id="o" gradientUnits="userSpaceOnUse" gradientTransform="matrix(2.0551 0 0 19.35692 -10.75 -3223.425)" spreadMethod="reflect" cx="9.451" cy="175.683" fx="9.451" fy="175.683" r="1.023"/><radialGradient xlink:href="#c" id="p" gradientUnits="userSpaceOnUse" gradientTransform="matrix(2.0551 0 0 19.35692 -47.032 -3223.425)" spreadMethod="reflect" cx="9.451" cy="175.683" fx="9.451" fy="175.683" r="1.023"/><radialGradient xlink:href="#c" id="q" gradientUnits="userSpaceOnUse" gradientTransform="matrix(2.0551 0 0 19.35692 -43.987 -3223.425)" spreadMethod="reflect" cx="9.451" cy="175.683" fx="9.451" fy="175.683" r="1.023"/><radialGradient xlink:href="#c" id="r" gradientUnits="userSpaceOnUse" gradientTransform="matrix(2.0551 0 0 19.35692 -40.942 -3223.425)" spreadMethod="reflect" cx="9.451" cy="175.683" fx="9.451" fy="175.683" r="1.023"/><radialGradient xlink:href="#c" id="s" gradientUnits="userSpaceOnUse" gradientTransform="matrix(2.0551 0 0 19.35692 -37.897 -3223.425)" spreadMethod="reflect" cx="9.451" cy="175.683" fx="9.451" fy="175.683" r="1.023"/><radialGradient xlink:href="#a" id="C" gradientUnits="userSpaceOnUse" gradientTransform="matrix(2.62822 0 0 2.1431 106.113 310.868)" cx="-47.638" cy="49.491" fx="-47.638" fy="49.491" r="12.5"/><radialGradient xlink:href="#b" id="D" gradientUnits="userSpaceOnUse" gradientTransform="matrix(.31845 0 0 .07407 230.908 421.472)" spreadMethod="reflect" cx="545" cy="7.362" fx="545" fy="7.362" r="30"/><linearGradient xlink:href="#c" id="E" gradientUnits="userSpaceOnUse" gradientTransform="matrix(.95685 0 0 .67358 45.737 400.185)" x1="316.32" y1="70.855" x2="328.285" y2="21.366"/><radialGradient xlink:href="#c" id="F" gradientUnits="userSpaceOnUse" gradientTransform="matrix(1.49673 .00001 0 .14514 -117.35 418.981)" spreadMethod="reflect" cx="307.721" cy="25.117" fx="307.721" fy="25.117" r="30"/><linearGradient xlink:href="#d" id="G" gradientUnits="userSpaceOnUse" gradientTransform="translate(0 134.351)" spreadMethod="reflect" x1="175" y1="317.362" x2="175" y2="262.362"/><radialGradient xlink:href="#c" id="H" gradientUnits="userSpaceOnUse" gradientTransform="matrix(7.10755 0 0 1.32115 105.61 346.812)" spreadMethod="reflect" cx="-12.931" cy="75.759" fx="-12.931" fy="75.759" r="22.5"/><radialGradient xlink:href="#c" id="I" gradientUnits="userSpaceOnUse" gradientTransform="matrix(2.0551 0 0 19.35692 -19.884 -3223.425)" spreadMethod="reflect" cx="9.451" cy="175.683" fx="9.451" fy="175.683" r="1.023"/><radialGradient xlink:href="#c" id="J" gradientUnits="userSpaceOnUse" gradientTransform="matrix(2.0551 0 0 19.35692 -16.84 -3223.425)" spreadMethod="reflect" cx="9.451" cy="175.683" fx="9.451" fy="175.683" r="1.023"/><radialGradient xlink:href="#c" id="K" gradientUnits="userSpaceOnUse" gradientTransform="matrix(2.0551 0 0 19.35692 -13.794 -3223.425)" spreadMethod="reflect" cx="9.451" cy="175.683" fx="9.451" fy="175.683" r="1.023"/><radialGradient xlink:href="#c" id="L" gradientUnits="userSpaceOnUse" gradientTransform="matrix(2.0551 0 0 19.35692 -10.75 -3223.425)" spreadMethod="reflect" cx="9.451" cy="175.683" fx="9.451" fy="175.683" r="1.023"/><radialGradient xlink:href="#c" id="Q" gradientUnits="userSpaceOnUse" gradientTransform="matrix(1 0 0 17.6035 0 -2915.395)" spreadMethod="reflect" cx="10.077" cy="175.589" fx="10.077" fy="175.589" r="1.023"/><radialGradient xlink:href="#c" id="R" gradientUnits="userSpaceOnUse" gradientTransform="matrix(1 0 0 17.6035 0 -2915.395)" spreadMethod="reflect" cx="13.122" cy="175.589" fx="13.122" fy="175.589" r="1.023"/><radialGradient xlink:href="#c" id="S" gradientUnits="userSpaceOnUse" gradientTransform="matrix(1 0 0 17.6035 0 -2915.395)" spreadMethod="reflect" cx="16.167" cy="175.589" fx="16.167" fy="175.589" r="1.023"/><radialGradient xlink:href="#c" id="T" gradientUnits="userSpaceOnUse" gradientTransform="matrix(1 0 0 17.6035 0 -2915.395)" spreadMethod="reflect" cx="19.212" cy="175.589" fx="19.212" fy="175.589" r="1.023"/><radialGradient xlink:href="#c" id="X" cx="-19.212" cy="175.589" fx="-19.212" fy="175.589" r="1.023" gradientTransform="matrix(1 0 0 17.60349 0 -2915.395)" gradientUnits="userSpaceOnUse"/><radialGradient xlink:href="#c" id="W" cx="-16.167" cy="175.589" fx="-16.167" fy="175.589" r="1.023" gradientTransform="matrix(1 0 0 17.60349 0 -2915.395)" gradientUnits="userSpaceOnUse"/><radialGradient xlink:href="#c" id="V" cx="-13.122" cy="175.589" fx="-13.122" fy="175.589" r="1.023" gradientTransform="matrix(1 0 0 17.60349 0 -2915.395)" gradientUnits="userSpaceOnUse"/><radialGradient xlink:href="#c" id="U" cx="-10.077" cy="175.589" fx="-10.077" fy="175.589" r="1.023" gradientTransform="matrix(1 0 0 17.6035 0 -2915.396)" gradientUnits="userSpaceOnUse"/><radialGradient xlink:href="#c" id="w" gradientUnits="userSpaceOnUse" gradientTransform="matrix(-1.53875 0 0 23.47132 18.413 -3830.295)" spreadMethod="reflect" cx="19.212" cy="175.589" fx="19.212" fy="175.589" r="1.023"/><radialGradient xlink:href="#c" id="v" gradientUnits="userSpaceOnUse" gradientTransform="matrix(-1.53875 0 0 23.47132 18.413 -3830.295)" spreadMethod="reflect" cx="16.167" cy="175.589" fx="16.167" fy="175.589" r="1.023"/><radialGradient xlink:href="#c" id="u" gradientUnits="userSpaceOnUse" gradientTransform="matrix(-1.53875 0 0 23.47132 18.413 -3830.295)" spreadMethod="reflect" cx="13.122" cy="175.589" fx="13.122" fy="175.589" r="1.023"/><radialGradient xlink:href="#c" id="t" gradientUnits="userSpaceOnUse" gradientTransform="matrix(-1.53875 0 0 23.47132 18.413 -3830.295)" spreadMethod="reflect" cx="10.077" cy="175.589" fx="10.077" fy="175.589" r="1.023"/><radialGradient xlink:href="#c" id="x" cx="10.077" cy="175.589" fx="10.077" fy="175.589" r="1.023" gradientTransform="matrix(1 0 0 17.6035 0 -2915.396)" gradientUnits="userSpaceOnUse"/><radialGradient xlink:href="#c" id="A" cx="19.212" cy="175.589" fx="19.212" fy="175.589" r="1.023" gradientTransform="matrix(1 0 0 17.60349 0 -2915.395)" gradientUnits="userSpaceOnUse"/><radialGradient xlink:href="#c" id="y" cx="13.122" cy="175.589" fx="13.122" fy="175.589" r="1.023" gradientTransform="matrix(1 0 0 17.60349 0 -2915.395)" gradientUnits="userSpaceOnUse"/><radialGradient xlink:href="#c" id="z" cx="16.167" cy="175.589" fx="16.167" fy="175.589" r="1.023" gradientTransform="matrix(1 0 0 17.60349 0 -2915.395)" gradientUnits="userSpaceOnUse"/><radialGradient xlink:href="#c" id="P" gradientUnits="userSpaceOnUse" gradientTransform="matrix(-3.16229 0 0 25.80922 76.728 -4106.65)" spreadMethod="reflect" cx="9.451" cy="175.683" fx="9.451" fy="175.683" r="1.023"/><radialGradient xlink:href="#c" id="O" gradientUnits="userSpaceOnUse" gradientTransform="matrix(-3.16229 0 0 25.80922 81.413 -4106.65)" spreadMethod="reflect" cx="9.451" cy="175.683" fx="9.451" fy="175.683" r="1.023"/><radialGradient xlink:href="#c" id="N" gradientUnits="userSpaceOnUse" gradientTransform="matrix(-3.16229 0 0 25.80922 86.099 -4106.65)" spreadMethod="reflect" cx="9.451" cy="175.683" fx="9.451" fy="175.683" r="1.023"/><radialGradient xlink:href="#c" id="M" gradientUnits="userSpaceOnUse" gradientTransform="matrix(-3.16229 0 0 25.80922 90.784 -4106.65)" spreadMethod="reflect" cx="9.451" cy="175.683" fx="9.451" fy="175.683" r="1.023"/><filter id="e" x="-.006" width="1.013" y="-.135" height="1.269"><feGaussianBlur stdDeviation="1.158"/></filter><filter id="B"><feGaussianBlur stdDeviation=".272"/></filter></defs><path style="marker:none" d="M81.469 169.719c-10.224 1.223-19.52 6.458-28.688 10.875-6.717 4.53 2.404 7.748 5.844 10.156 3.36 2.168 6.595 4.015 9.219 6.25 3.268 2.195 6.806.89 10.531 1.75 3.42-.584 6.616-.519 10.063 0h44.093c-1.8-1.935-4.477-2.888-6.969-4.25-5.353-3.33-11.282-6.852-16.093-10.188-2.522-1.816-5.642-3.008-7.875-5.156-6.935-2.244-12.39-9.513-20.125-9.437zm-52.156 69.969c-8.887 1.268-18.433-1.398-26.907 1.968-5.44 6.419-2.758 21.202 8.5 18.313 19.78.172 38.932-.009 58.75.031 33.361.118 67.486-.081 101.188 0l124.875 77.063c18.255 4.644 36.5 10.271 54.562 14.812-3.443-7.197-8.936-13.399-12.781-20.5-3.302-5.004-5.571-11.041-11.594-13.313l-98.719-60.906c1.806 1.022 3.617 1.986 5.47 2.844 51.24-.103 102.53.203 153.75-.156 18.627-3.409 37.82-6.464 56.03-9.875-19.431-3.38-38.95-7.06-58.437-10H86.5c-14.176-.566-28.799.576-43.25-.281-4.616.312-9.319.336-13.938 0zm178.875 5.75c3.15 1.798 6.247 3.762 9.343 5.75l-9.344-5.75z" opacity=".47" color="#000" fill="gray" overflow="visible" enable-background="accumulate" filter="url(#e)"/><path d="M-32.524 267.685c-4.616 0-8.333 5.946-8.333 13.333v20c0 7.387 3.717 13.333 8.333 13.333h16.667v-46.666h-16.667z" style="marker:none" color="#000" fill="url(#f)" overflow="visible" enable-background="accumulate" transform="matrix(1 0 0 1 40.857 -68.918)"/><path d="M404.464 291l-57.321 23.334v-46.667z" style="marker:none" color="#000" fill="url(#g)" overflow="visible" enable-background="accumulate" transform="matrix(1 0 0 1 40.857 -68.918)"/><path d="M404.554 291l-57.411 23.334v-46.667z" style="marker:none" opacity=".577" color="#000" fill="url(#h)" overflow="visible" enable-background="accumulate" transform="matrix(1 0 0 1 40.857 -68.918)"/><path d="M404.457 291c0 1.068-15.773 7.201-17.145 6.668-1.371-.533-1.371-12.801 0-13.334 1.372-.534 17.145 5.6 17.145 6.667z" style="marker:none" color="#000" fill="url(#i)" overflow="visible" enable-background="accumulate" transform="matrix(1 0 0 1 40.857 -68.918)"/><path style="marker:none" d="M27.156 267.657v46.688h320.281c2.748-1.401 7.217-2.813 5.5-6.375-.549-1.14-.85-3.937-5.468-6.97h-.313c2.788-3.623 8.543-5.73 7.813-10.5 0-4.579-4.17-6.211-7.813-9.5 2.927-3.112 5.696-5.07 5.281-8.343-.304-2.405-5.28-5-5.28-5h-320z" color="#000" fill="url(#j)" overflow="visible" enable-background="accumulate" transform="matrix(1 0 0 1 40.857 -68.918)"/><path d="M-17.857 267.702h69.244v46.632h-69.244z" style="marker:none" color="#000" fill="url(#k)" overflow="visible" enable-background="accumulate" transform="matrix(1 0 0 1 40.857 -68.918)"/><g color="#000"><path d="M9.938 157.59h.278c.49 0 .884.405.884.908v34.182c0 .504-.395.91-.884.91h-.278a.895.895 0 0 1-.883-.91v-34.182c0-.503.394-.909.883-.909z" style="marker:none" transform="matrix(-1.53875 0 0 1.33333 59.27 -12.02)" fill="url(#l)" overflow="visible" enable-background="accumulate"/><path d="M12.983 157.59h.278c.49 0 .884.405.884.908v34.182c0 .504-.395.91-.884.91h-.278a.895.895 0 0 1-.883-.91v-34.182c0-.503.394-.909.883-.909z" style="marker:none" transform="matrix(-1.53875 0 0 1.33333 59.27 -12.02)" fill="url(#m)" overflow="visible" enable-background="accumulate"/><path d="M16.029 157.59h.277c.49 0 .884.405.884.908v34.182c0 .504-.395.91-.884.91h-.277a.895.895 0 0 1-.884-.91v-34.182c0-.503.394-.909.884-.909z" style="marker:none" transform="matrix(-1.53875 0 0 1.33333 59.27 -12.02)" fill="url(#n)" overflow="visible" enable-background="accumulate"/><path d="M19.074 157.59h.277c.49 0 .884.405.884.908v34.182c0 .504-.394.91-.884.91h-.277a.895.895 0 0 1-.884-.91v-34.182c0-.503.394-.909.884-.909z" style="marker:none" transform="matrix(-1.53875 0 0 1.33333 59.27 -12.02)" fill="url(#o)" overflow="visible" enable-background="accumulate"/></g><g color="#000"><path d="M-17.21 157.59h.278c.49 0 .884.405.884.908v34.182c0 .504-.394.91-.884.91h-.277a.895.895 0 0 1-.884-.91v-34.182c0-.503.394-.909.884-.909z" style="marker:none" transform="matrix(-1.53875 0 0 1.33333 59.27 -12.02)" fill="url(#p)" overflow="visible" enable-background="accumulate"/><path d="M-14.164 157.59h.277c.49 0 .884.405.884.908v34.182c0 .504-.394.91-.884.91h-.277a.895.895 0 0 1-.884-.91v-34.182c0-.503.394-.909.884-.909z" style="marker:none" transform="matrix(-1.53875 0 0 1.33333 59.27 -12.02)" fill="url(#q)" overflow="visible" enable-background="accumulate"/><path d="M-11.12 157.59h.278c.49 0 .884.405.884.908v34.182c0 .504-.394.91-.884.91h-.277a.895.895 0 0 1-.884-.91v-34.182c0-.503.394-.909.884-.909z" style="marker:none" transform="matrix(-1.53875 0 0 1.33333 59.27 -12.02)" fill="url(#r)" overflow="visible" enable-background="accumulate"/><path d="M-8.074 157.59h.277c.49 0 .884.405.884.908v34.182c0 .504-.394.91-.884.91h-.277a.895.895 0 0 1-.884-.91v-34.182c0-.503.394-.909.884-.909z" style="marker:none" transform="matrix(-1.53875 0 0 1.33333 59.27 -12.02)" fill="url(#s)" overflow="visible" enable-background="accumulate"/></g><g stroke="#333" opacity=".37" color="#000"><path d="M3.12 267.018h-.426c-.753 0-1.36.54-1.36 1.212v45.576c0 .671.607 1.212 1.36 1.212h.427c.753 0 1.36-.54 1.36-1.212V268.23c0-.672-.607-1.212-1.36-1.212z" style="marker:none" fill="url(#t)" overflow="visible" enable-background="accumulate" transform="matrix(1 0 0 1 40.857 -68.918)"/><path d="M-1.565 267.018h-.427c-.753 0-1.36.54-1.36 1.212v45.576c0 .671.607 1.212 1.36 1.212h.427c.754 0 1.36-.54 1.36-1.212V268.23c0-.672-.606-1.212-1.36-1.212z" style="marker:none" fill="url(#u)" overflow="visible" enable-background="accumulate" transform="matrix(1 0 0 1 40.857 -68.918)"/><path d="M-6.25 267.018h-.427c-.754 0-1.36.54-1.36 1.212v45.576c0 .671.606 1.212 1.36 1.212h.427c.753 0 1.36-.54 1.36-1.212V268.23c0-.672-.607-1.212-1.36-1.212z" style="marker:none" fill="url(#v)" overflow="visible" enable-background="accumulate" transform="matrix(1 0 0 1 40.857 -68.918)"/><path d="M-10.936 267.018h-.427c-.753 0-1.36.54-1.36 1.212v45.576c0 .671.607 1.212 1.36 1.212h.427c.753 0 1.36-.54 1.36-1.212V268.23c0-.672-.607-1.212-1.36-1.212z" style="marker:none" fill="url(#w)" overflow="visible" enable-background="accumulate" transform="matrix(1 0 0 1 40.857 -68.918)"/></g><g color="#000" stroke-width=".698" stroke="#333" opacity=".37"><path d="M9.938 157.59h.278c.49 0 .884.405.884.908v34.182c0 .504-.395.91-.884.91h-.278a.895.895 0 0 1-.883-.91v-34.182c0-.503.394-.909.883-.909z" style="marker:none" transform="matrix(-1.53875 0 0 1.33333 101.174 -12.02)" fill="url(#x)" overflow="visible" enable-background="accumulate"/><path d="M12.983 157.59h.278c.49 0 .884.405.884.908v34.182c0 .504-.395.91-.884.91h-.278a.895.895 0 0 1-.883-.91v-34.182c0-.503.394-.909.883-.909z" style="marker:none" transform="matrix(-1.53875 0 0 1.33333 101.174 -12.02)" fill="url(#y)" overflow="visible" enable-background="accumulate"/><path d="M16.029 157.59h.277c.49 0 .884.405.884.908v34.182c0 .504-.395.91-.884.91h-.277a.895.895 0 0 1-.884-.91v-34.182c0-.503.394-.909.884-.909z" style="marker:none" transform="matrix(-1.53875 0 0 1.33333 101.174 -12.02)" fill="url(#z)" overflow="visible" enable-background="accumulate"/><path d="M19.074 157.59h.277c.49 0 .884.405.884.908v34.182c0 .504-.394.91-.884.91h-.277a.895.895 0 0 1-.884-.91v-34.182c0-.503.394-.909.884-.909z" style="marker:none" transform="matrix(-1.53875 0 0 1.33333 101.174 -12.02)" fill="url(#A)" overflow="visible" enable-background="accumulate"/></g><path style="marker:none" d="M143.094 198.75l11 12.938v21.03l-2.125 12.72h49.344l2.406-11.688-1.25-22.063-9.156-12.937h-50.22z" opacity=".47" color="#000" fill="gray" overflow="visible" filter="url(#B)" enable-background="accumulate"/><path style="marker:none" d="M-32.524 402.035c-4.616 0-8.333 5.946-8.333 13.333v20c0 7.387 3.717 13.333 8.333 13.333h16.667v-46.666h-16.667z" color="#000" fill="url(#C)" overflow="visible" enable-background="accumulate" transform="rotate(50 456.155 330.483)"/><path style="marker:none" d="M404.464 425.351l-57.321 23.333v-46.666z" color="#000" fill="url(#D)" overflow="visible" enable-background="accumulate" transform="rotate(50 456.155 330.483)"/><path style="marker:none" d="M404.554 425.351l-57.411 23.333v-46.666z" opacity=".577" color="#000" fill="url(#E)" overflow="visible" enable-background="accumulate" transform="rotate(50 456.155 330.483)"/><path style="marker:none" d="M404.457 425.351c0 1.067-15.773 7.2-17.145 6.667-1.371-.533-1.371-12.8 0-13.334 1.372-.534 17.145 5.6 17.145 6.667z" color="#000" fill="url(#F)" overflow="visible" enable-background="accumulate" transform="rotate(50 456.155 330.483)"/><path d="M27.156 402.007v46.688h320.281c2.748-1.4 7.217-2.813 5.5-6.375-.549-1.14-.85-3.936-5.468-6.969h-.313c2.788-3.623 8.543-5.73 7.813-10.5 0-4.58-4.17-6.212-7.813-9.5 2.927-3.113 5.696-5.07 5.281-8.344-.304-2.404-5.28-5-5.28-5h-320z" style="marker:none" color="#000" fill="url(#G)" overflow="visible" enable-background="accumulate" transform="rotate(50 456.155 330.483)"/><path style="marker:none" d="M-17.857 402.052h69.244v46.632h-69.244z" color="#000" fill="url(#H)" overflow="visible" enable-background="accumulate" transform="rotate(50 456.155 330.483)"/><g color="#000"><path transform="rotate(-130 118.723 -112.791) scale(1.53875 -1.33333)" style="marker:none" d="M9.938 157.59h.278c.49 0 .884.405.884.908v34.182c0 .504-.395.91-.884.91h-.278a.895.895 0 0 1-.883-.91v-34.182c0-.503.394-.909.883-.909z" fill="url(#I)" overflow="visible" enable-background="accumulate"/><path transform="rotate(-130 118.723 -112.791) scale(1.53875 -1.33333)" style="marker:none" d="M12.983 157.59h.278c.49 0 .884.405.884.908v34.182c0 .504-.395.91-.884.91h-.278a.895.895 0 0 1-.883-.91v-34.182c0-.503.394-.909.883-.909z" fill="url(#J)" overflow="visible" enable-background="accumulate"/><path transform="rotate(-130 118.723 -112.791) scale(1.53875 -1.33333)" style="marker:none" d="M16.029 157.59h.277c.49 0 .884.405.884.908v34.182c0 .504-.395.91-.884.91h-.277a.895.895 0 0 1-.884-.91v-34.182c0-.503.394-.909.884-.909z" fill="url(#K)" overflow="visible" enable-background="accumulate"/><path transform="rotate(-130 118.723 -112.791) scale(1.53875 -1.33333)" style="marker:none" d="M19.074 157.59h.277c.49 0 .884.405.884.908v34.182c0 .504-.394.91-.884.91h-.277a.895.895 0 0 1-.884-.91v-34.182c0-.503.394-.909.884-.909z" fill="url(#L)" overflow="visible" enable-background="accumulate"/></g><g color="#000"><path style="marker:none" d="M44.894 401.368h-.426c-.754 0-1.36.54-1.36 1.212v45.576c0 .671.606 1.212 1.36 1.212h.426c.754 0 1.36-.54 1.36-1.212V402.58c0-.671-.606-1.212-1.36-1.212z" fill="url(#M)" overflow="visible" enable-background="accumulate" transform="rotate(50 456.155 330.483)"/><path style="marker:none" d="M40.209 401.368h-.427c-.753 0-1.36.54-1.36 1.212v45.576c0 .671.607 1.212 1.36 1.212h.427c.753 0 1.36-.54 1.36-1.212V402.58c0-.671-.607-1.212-1.36-1.212z" fill="url(#N)" overflow="visible" enable-background="accumulate" transform="rotate(50 456.155 330.483)"/><path style="marker:none" d="M35.523 401.368h-.426c-.754 0-1.36.54-1.36 1.212v45.576c0 .671.606 1.212 1.36 1.212h.426c.754 0 1.36-.54 1.36-1.212V402.58c0-.671-.606-1.212-1.36-1.212z" fill="url(#O)" overflow="visible" enable-background="accumulate" transform="rotate(50 456.155 330.483)"/><path style="marker:none" d="M30.838 401.368h-.427c-.753 0-1.36.54-1.36 1.212v45.576c0 .671.607 1.212 1.36 1.212h.427c.753 0 1.36-.54 1.36-1.212V402.58c0-.671-.607-1.212-1.36-1.212z" fill="url(#P)" overflow="visible" enable-background="accumulate" transform="rotate(50 456.155 330.483)"/></g><g stroke-width=".698" stroke="#333" opacity=".37" color="#000"><path d="M9.938 157.59h.278c.49 0 .884.405.884.908v34.182c0 .504-.395.91-.884.91h-.278a.895.895 0 0 1-.883-.91v-34.182c0-.503.394-.909.883-.909z" style="marker:none" transform="rotate(-130 139.675 -103.021) scale(1.53875 -1.33333)" fill="url(#Q)" overflow="visible" enable-background="accumulate"/><path d="M12.983 157.59h.278c.49 0 .884.405.884.908v34.182c0 .504-.395.91-.884.91h-.278a.895.895 0 0 1-.883-.91v-34.182c0-.503.394-.909.883-.909z" style="marker:none" transform="rotate(-130 139.675 -103.021) scale(1.53875 -1.33333)" fill="url(#R)" overflow="visible" enable-background="accumulate"/><path d="M16.029 157.59h.277c.49 0 .884.405.884.908v34.182c0 .504-.395.91-.884.91h-.277a.895.895 0 0 1-.884-.91v-34.182c0-.503.394-.909.884-.909z" style="marker:none" transform="rotate(-130 139.675 -103.021) scale(1.53875 -1.33333)" fill="url(#S)" overflow="visible" enable-background="accumulate"/><path d="M19.074 157.59h.277c.49 0 .884.405.884.908v34.182c0 .504-.394.91-.884.91h-.277a.895.895 0 0 1-.884-.91v-34.182c0-.503.394-.909.884-.909z" style="marker:none" transform="rotate(-130 139.675 -103.021) scale(1.53875 -1.33333)" fill="url(#T)" overflow="visible" enable-background="accumulate"/></g><g stroke="#333" stroke-width=".698" stroke-linecap="round" stroke-linejoin="round"><g color="#000" opacity=".37"><path style="marker:none" d="M-9.938 157.59h-.278a.895.895 0 0 0-.884.908v34.182c0 .504.395.91.884.91h.278c.49 0 .883-.406.883-.91v-34.182a.895.895 0 0 0-.883-.909z" fill="url(#U)" overflow="visible" enable-background="accumulate" transform="rotate(50 241.882 254.602) scale(1.53875 1.33333)"/><path style="marker:none" d="M-12.983 157.59h-.278a.895.895 0 0 0-.884.908v34.182c0 .504.395.91.884.91h.278c.49 0 .883-.406.883-.91v-34.182a.895.895 0 0 0-.883-.909z" fill="url(#V)" overflow="visible" enable-background="accumulate" transform="rotate(50 241.882 254.602) scale(1.53875 1.33333)"/><path style="marker:none" d="M-16.029 157.59h-.277a.895.895 0 0 0-.884.908v34.182c0 .504.395.91.884.91h.277c.49 0 .884-.406.884-.91v-34.182a.895.895 0 0 0-.884-.909z" fill="url(#W)" overflow="visible" enable-background="accumulate" transform="rotate(50 241.882 254.602) scale(1.53875 1.33333)"/><path style="marker:none" d="M-19.074 157.59h-.277a.895.895 0 0 0-.884.908v34.182c0 .504.394.91.884.91h.277c.49 0 .884-.406.884-.91v-34.182a.895.895 0 0 0-.884-.909z" fill="url(#X)" overflow="visible" enable-background="accumulate" transform="rotate(50 241.882 254.602) scale(1.53875 1.33333)"/></g></g></svg>