<svg xmlns="http://www.w3.org/2000/svg" width="512" height="512"><g color="#000"><path d="M179.716 316.64s-1.268 20.937-1.268 31.418c0 10.482 1.194 20.938 1.268 31.42.075 10.476-.97 20.943-.82 31.419.149 10.488 1.716 31.42 1.716 31.42.085 1.557-1.11 2.815-2.487 2.815H167.92c-1.377 0-2.498-1.256-2.487-2.816 0 0 1.567-20.931 1.716-31.42.15-10.475-.895-20.942-.82-31.418.074-10.482 1.268-20.938 1.268-31.42 0-10.481-1.268-31.419-1.268-31.419.394-4.55 13.203-4.19 13.386 0z" style="marker:none" fill="gray" overflow="visible"/><path d="M153.6 294.785h25.353c1.378 0 20.393 2.748 20.393 4.308v2.99c0 1.56-19.015 4.308-20.393 4.308H153.6c-1.378 0-2.487-1.256-2.487-2.816V297.6c0-1.56 1.109-2.816 2.487-2.816z" style="marker:none" overflow="visible"/><path d="M168.37 303.804h9.307c1.378 0 2.412 1.258 2.487 2.816l.448 9.29c.075 1.558-1.11 2.816-2.487 2.816H167.92c-1.377 0-2.562-1.258-2.487-2.817l.448-9.289c.075-1.558 1.11-2.816 2.487-2.816z" style="marker:none" overflow="visible"/></g><g color="#000"><path d="M274.272 301.39c-.187 0-.373.005-.557.01l4.35 10.195c.267.624-.005 1.227-.507 1.547l-2.21 3.475-3.799 1.955-2.64.102c.118-1.042-.246-1.964-.753-2.85l-4.362-10.224c-2.983 2.856-4.883 6.923-5.162 11.428-.16 2.607.018 4.898.479 6.874-1.853.517-3.102 1.17-2.725 1.73 0 0 .784.776 1.94 2.136a2.895 2.895 0 0 0-.201 1.073c0 1.231.732 3.52 1.63 3.52 1.232-.577 1.067-1.304 1.57-.713 1.94 2.766 4.011 6.297 5.321 10.186 2.61 7.747 1.386 24.005 1.386 24.005.208.718.53 1.35 1.185 1.35h9.444c.656 0 1.184-.602 1.184-1.35V340.07c0-2.897 3.626-10.505 6.382-15.084v-.001c1.87-2.596 2.967-5.712 2.967-9.246 0-8.636-6.285-14.35-14.922-14.35zm-1.334 21.839c.357-.01.718.217.892.596l.306.665-.276.075a.334.334 0 0 0-.237.409l.304 1.136-1.337.62-.343-1.28a.334.334 0 0 0-.41-.237l-.55.149a.334.334 0 0 0-.237.409l.398 1.488-.913.422-.29-1.078a.333.333 0 0 0-.408-.236l-.553.147a.333.333 0 0 0-.236.41l.345 1.286-1.065.493-.328-1.226a.334.334 0 0 0-.41-.237l-.55.147a.335.335 0 0 0-.238.41l.385 1.435-1.15.532-.964-2.098c-.223-.485-.051-1.028.383-1.219l7.187-3.152a.787.787 0 0 1 .295-.066zm4.353 8.127l.705 1.532c.222.484.052 1.028-.383 1.218l-7.187 3.153c-.435.19-.964-.045-1.186-.53l-.623-1.356.191-.088.21.783a.334.334 0 0 0 .41.236l.552-.147a.335.335 0 0 0 .237-.41l-.266-.991 1.064-.493.25.931a.335.335 0 0 0 .41.237l.55-.148a.334.334 0 0 0 .238-.41l-.305-1.139.912-.422.195.73a.334.334 0 0 0 .41.235l.552-.147a.334.334 0 0 0 .237-.41l-.252-.938 1.337-.62.291 1.082c.048.18.23.284.41.236l.552-.147a.333.333 0 0 0 .235-.41l-.345-1.29z" style="marker:none" fill="gray" overflow="visible"/><path d="M281.334 356.058c-.502.001-1.201.267-1.781.46l-10.819 3.577c-1.031.34-2.533.731-2.533 1.817.005 1.588-.21 3.179.205 4.773.292 1.121 1.257 2.244 1.264 3.368.016 2.723-1.395 5.453-1.373 8.188.022 2.736 1.478 5.477 1.503 8.22.025 2.744-1.38 5.491-1.354 8.238.026 2.746 1.482 5.493 1.506 8.237.024 2.744-1.386 5.485-1.366 8.222.019 2.736 1.466 5.467 1.479 8.19.012 2.724-1.41 5.439-1.407 8.144.004 2.843 0 5.674-.009 8.49a9.15 9.15 0 0 0 18.3 0l-3.247-74.309s-.023-.763.019-1.06c.048-.344.208-.512.272-.826.206-1.012 0-3.098 0-3.098 0-.475-.27-.633-.66-.631zm-5.534 78.444a2.911 2.911 0 1 1 0 5.822 2.911 2.911 0 0 1 0-5.822z" style="marker:none" fill="#1a1a1a" overflow="visible"/></g><path d="M309.13 299.974c-.395.001-.664.222-.496.924l1.726 8.942c-.592 2.056-3.753 3.552-5.503 3.848-1.809.307-5.865-.18-6.274-1.574l-1.626-8.413c-.2-.986-.834-.918-1.312-.098-1.335 2.428-1.846 5.37-2.039 8.142-.166 2.394.283 4.442 2.554 8.409 2.272 3.967 4.173 8.232 4.173 12.112v89.395c0 3.86-3.836 10.485-3.911 14.253a9.218 9.218 0 1 0 18.436 0c-.48-4.853-4.499-10.866-4.499-14.253v-89.395c0-.664.432-7.347 3.42-12.04 2.988-4.694 3.49-6.52 3.49-8.481 0-4.235-3.045-8.834-7.004-11.444-.335-.158-.784-.328-1.134-.327zm-3.624 128.335c.87.01.798.808 1.636 1.043.837.235 1.19-.484 1.938-.041.748.444.286 1.099.894 1.721.608.622 1.274.176 1.7.934.426.758-.302 1.095-.087 1.938.216.843 1.015.79 1.005 1.66-.01.869-.808.796-1.043 1.634-.235.837.484 1.19.04 1.939-.443.748-1.098.286-1.72.893-.623.608-.177 1.274-.936 1.7-.758.426-1.094-.301-1.936-.086-.843.215-.79 1.015-1.66 1.005-.87-.01-.797-.808-1.634-1.043-.838-.235-1.191.484-1.94.041-.747-.444-.286-1.099-.894-1.721-.608-.622-1.274-.176-1.7-.934-.426-.758.302-1.095.086-1.938-.215-.843-1.015-.79-1.004-1.66.01-.869.809-.797 1.044-1.634.235-.837-.484-1.19-.04-1.939.443-.748 1.098-.287 1.72-.895.623-.607.176-1.272.935-1.698.758-.426 1.095.3 1.937.085.843-.215.789-1.014 1.659-1.004zM329.765 334.958h.404s1.023 1.322 1.023 1.566v48.096a.44.44 0 0 1-.44.44h-1.57a.44.44 0 0 1-.44-.44v-48.096c0-.244 1.023-1.566 1.023-1.566z" style="marker:none" color="#000" fill="gray" overflow="visible"/><path d="M329.975 383.093c-1.535 0-4.58.487-4.58.487-.317 0-.574.504-.592 1.141a.318.318 0 0 0-.012.004c-.372 0-.872 2.294-.872 2.294s-.176 2.257-.053 3.38c.143 1.306.967 2.47 1.138 3.772.144 1.097-.004 2.215-.106 3.316-.173 1.868-.86 7.248-.86 7.248-.038.242-2.454 19.69-2.368 20.138 0 0-.517 13.784 3.586 18.571 1.086 1.267 3.042 1.688 4.71 1.688 1.669 0 3.626-.421 4.712-1.688 4.103-4.787 3.586-18.571 3.586-18.571.086-.448-2.33-19.896-2.367-20.138 0 0-.687-5.38-.861-7.248-.102-1.1-.25-2.22-.106-3.316.171-1.302.99-2.467 1.136-3.772.125-1.122-.034-3.38-.034-3.38s-.503-2.228-.872-2.294l-.012-.003c-.017-.636-.277-1.109-.592-1.142 0 0-3.045-.487-4.58-.487z" style="marker:none" color="#000" overflow="visible"/><path d="M328.742 336.524v3.046l.811-3.317.212-1.295zM329.967 334.958l.089 1.215.482 3.236.161-2.995-.732-1.456"/><g color="#000"><path d="M139.11 242.59a1.847 1.847 0 0 0-.184.002 1.847 1.847 0 0 0-1.475.89l-1.57 2.522c-.018-.32-.209-.567-.425-.555l-2.655.15c-.217.012-.377.279-.359.599v.046l-1.844-2.329a1.847 1.847 0 1 0-2.896 2.292l3.263 4.123a1.847 1.847 0 0 0 1.536.698l.75 13.297a2.528 2.528 0 0 0-.936 1.97v139.836c0 .915.48 1.714 1.203 2.16v2.463c0 1.405.748 2.537 1.677 2.537s1.677-1.132 1.677-2.537v-2.463a2.531 2.531 0 0 0 1.202-2.16V266.295c0-.801-.368-1.513-.945-1.977l-.762-13.51a1.847 1.847 0 0 0 1.408-.863l2.81-4.51a1.847 1.847 0 0 0-1.477-2.845zm-4.154 25.034a.917.917 0 0 0 1.788 0 .95.95 0 0 1-.895 1.263.948.948 0 0 1-.893-1.263zm.254 137.234a.96.96 0 0 1 .904 1.277.928.928 0 0 0-1.81 0 .96.96 0 0 1 .905-1.278z" style="marker:none" fill="gray" overflow="visible"/><path d="M140.068 249.01l-42.92 3.59c-.3.025-.598.08-.887.164-9.362 2.739-13.98 9.597-16.173 16.048a4.442 4.442 0 0 0-.235 1.426v125.193h8.864V270.99c1.653-4.66 3.59-7.72 9.647-9.595l42.418-3.55s.426-.323.546-.552c.087-.166.103-.552.103-.552l-.535-6.627s-.084-.39-.193-.552c-.157-.232-.635-.552-.635-.552z" style="text-indent:0;text-align:start;line-height:normal;text-transform:none;block-progression:tb;marker:none;-inkscape-font-specification:Sans" font-weight="400" overflow="visible" font-family="Sans"/><path d="M79.853 395.431V422.2c0 11.57 7.513 12.736 7.513 12.736l46.44 9.568c11.093 2.972 12.926-5.164 12.926-12.593 0-19.723-19.942-27.673-32.613-31.393-15.789-5.501-25.402-5.087-25.402-5.087zm17.092 6.184s4.37-.136 12.263 2.319c6.02 1.767 24.914 7.26 24.914 16.471 0 3.53.053 6.704-5.218 5.292l-32.407-6.762s-3.571-.555-3.571-6.053v-8.598c.593-1.885 1.93-2.778 4.019-2.67z" style="text-indent:0;text-align:start;line-height:normal;text-transform:none;block-progression:tb;marker:none;-inkscape-font-specification:Sans" font-weight="400" overflow="visible" font-family="Sans"/></g><g color="#000"><path d="M347.687 333.369a.404.404 0 0 0-.404.405v8.308c0 .225-.581.391-.593.833l-1.318 50.843s.02.913-.249 1.235c-.212.255-1.296.234-1.679.368-.765.267-.725 1.173-.374 1.602.275.335 1.257.427 1.653.427h.335c-.126 3.38-.698 17.22-1.843 24.953-.067.455.018.893-.063 1.345-.08.445-.409 1.345-.409 1.345-.255 5.895.221 12.858 0 18.753-.028.745 1.155 1.346 2.248 1.346h6.868c1.093 0 2.276-.601 2.248-1.346-.221-5.895.255-12.858 0-18.753 0 0-.329-.9-.409-1.345-.081-.452.004-.89-.063-1.345-1.145-7.733-1.716-21.573-1.843-24.953h.259c.417 0 1.434-.076 1.727-.427.356-.426.391-1.335-.374-1.602-.382-.134-1.468-.113-1.68-.368-.27-.322-.247-1.235-.247-1.235l-1.319-50.843c-.011-.442-.592-.608-.592-.833v-8.308a.405.405 0 0 0-.406-.405h-1.473z" style="marker:none" overflow="visible"/><path d="M347.687 333.369a.404.404 0 0 0-.404.405v8.308a.186.186 0 0 1-.047.112h2.377a.186.186 0 0 1-.047-.112v-8.308a.405.405 0 0 0-.406-.405h-1.473z" style="marker:none" fill="#333" overflow="visible"/></g><g color="#000"><path d="M510.617 374.442c0-1.09-.957-1.968-2.145-1.968H496.46c-1.188 0-2.145.878-2.145 1.968v1.461c0 1.09.957 1.968 2.145 1.968h2.52v6.521h6.634v-6.521h2.858c1.188 0 2.145-.878 2.145-1.968v-1.461zM469.732 399.476c-2.523-1.529-1.158-3.108-7.964-4.887-1.41-.368-5.73-1.78-9.557-1.886-13.146-.367-26.595-.788-41.406-3.234-2.024-.335-3.276.006-4.56.419-.955.308-5.047-.054-3.958-.908l3.26-2.557c1.088-.854 19.811.606 20.812.524 12.66-1.046 25.348-3.216 37.983-2.297 13.615.989 14.246.09 18.825-.083.791-.13.621.257.535.858-1.376 9.259-5.181 19.156-13.97 14.05z" style="marker:none" fill="gray" overflow="visible"/><path d="M509.88 400.473c-.016-7.81-.039-14.089-.039-21.813a.587.587 0 0 0-.585-.59h-.628a.587.587 0 0 0-.585.59v.842h-18.607c-.499 0-.9.4-.9.9v5.588c-2.042.515-5.143 1.09-7.055 2.797-4.28 3.817-13.34 12.948-22.075 12.948H422.98c-14.44 0-23.16 2.904-23.16 14.222v28.276c0 .498.401.9.9.9h108.155c.499 0 .928-.402.928-.9 0-14.58.083-29.177.078-43.76zm-36.997 22.166c0 4.534-5.228 8.183-11.72 8.183h-35.946c-6.493 0-11.72-3.65-11.72-8.183 0-4.534 5.227-8.184 11.72-8.184h35.946c6.492 0 11.72 3.65 11.72 8.184z" style="marker:none" overflow="visible"/><path d="M406.171 435.657v4.954c0 1.384-.808 2.498-1.812 2.498h-4.245c-1.004 0-1.813-1.114-1.813-2.498v-4.954c0-1.384.809-2.498 1.813-2.498h4.245c1.004 0 1.812 1.114 1.812 2.498zM509.841 380.401c0-.498-.4-.9-.899-.9H492.11v16.588c0 1.384.535 2.498 1.198 2.498h9.335c.664 0 2.583-1.478 3.054-2.779 1.722-4.76 3.457-8.45 4.144-13.55V380.4z" style="marker:none" fill="#b3b3b3" overflow="visible"/><path d="M478.9 404.575a3.264 3.264 0 0 0-1.31-2.598c-.406-.328-.882-.093-.882-.093v1.338a1.802 1.802 0 0 0-2.32.508v-1.682s-.504-.203-.834.082a3.262 3.262 0 0 0-1.118 2.445 3.23 3.23 0 1 0 6.464 0zm-.525.621v.042c-.003.1-.03.2-.084.293l-.516.895a.618.618 0 0 1-.846.226l-.049-.028a.616.616 0 0 1-.218-.214 1.804 1.804 0 0 0 .967-1.83.613.613 0 0 1 .387.077l.049.029c.191.11.301.305.31.51zm-3.629 1.044a.619.619 0 0 1-.29.384l-.05.028a.617.617 0 0 1-.845-.226l-.517-.895a.617.617 0 0 1 .227-.845l.048-.029a.618.618 0 0 1 .716.07 1.802 1.802 0 0 0 .711 1.514zM496.15 430.791a3.264 3.264 0 0 1-1.309 2.598c-.406.328-.882.093-.882.093v-1.338a1.802 1.802 0 0 1-2.32-.508v1.682s-.503.203-.834-.082a3.262 3.262 0 0 1-1.118-2.445 3.23 3.23 0 1 1 6.464 0zm-.524-.621a.619.619 0 0 0-.083-.335l-.517-.895a.618.618 0 0 0-.846-.226l-.048.028a.616.616 0 0 0-.22.214 1.804 1.804 0 0 1 .968 1.83.613.613 0 0 0 .387-.077l.049-.029a.616.616 0 0 0 .31-.51zm-3.628-1.044a.619.619 0 0 0-.292-.384l-.049-.028a.617.617 0 0 0-.845.226l-.516.895a.617.617 0 0 0 .226.845l.048.029c.236.136.522.1.716-.07a1.802 1.802 0 0 1 .711-1.514zM409.602 429.592a3.264 3.264 0 0 1-1.31 2.598c-.406.327-.882.092-.882.092v-1.338a1.802 1.802 0 0 1-2.32-.508v1.682s-.503.203-.834-.081a3.262 3.262 0 0 1-1.118-2.445 3.23 3.23 0 1 1 6.464 0zm-.525-.622a.618.618 0 0 0-.083-.335l-.517-.894a.618.618 0 0 0-.846-.227l-.048.028a.616.616 0 0 0-.22.214 1.804 1.804 0 0 1 .968 1.831.613.613 0 0 0 .387-.078l.05-.029a.616.616 0 0 0 .309-.51zm-3.628-1.044a.619.619 0 0 0-.292-.384l-.049-.028a.617.617 0 0 0-.845.227l-.516.895a.617.617 0 0 0 .226.844l.048.03c.236.135.522.099.716-.07a1.802 1.802 0 0 1 .711-1.514zM404.433 422.125a1.431 1.431 0 1 1 0-2.862 1.431 1.431 0 0 1 0 2.862zM483.773 431.665a1.431 1.431 0 1 1 0-2.862 1.431 1.431 0 0 1 0 2.862z" style="marker:none" fill="gray" overflow="visible"/><path d="M473.258 445.132l-.578-3.906c-.048-.322-.55-.827-.865-.745l-5.358 1.391c-.315.082-.586.261-.586.586v2.674h7.387z" style="marker:none" fill="#b3b3b3" overflow="visible"/><path d="M410.92 409.735a1.066 1.066 0 1 1 0-2.133 1.066 1.066 0 0 1 0 2.133z" style="marker:none" fill="gray" overflow="visible"/><path d="M413.294 385.307l-1.507 23.32a.586.586 0 0 1-.623.55l-.338-.021a.588.588 0 0 1-.546-.629l1.507-23.32a.586.586 0 0 1 .622-.551l.338.022a.588.588 0 0 1 .547.629z" style="marker:none" fill="#b3b3b3" overflow="visible"/></g><g><path d="M-.225 419.815c.042 1.305 1.236 1.863 3.216 2.21l4.677-2.63c1.736-.5 4.067-.986 8.087 1.559 10.181 7.541 20.467 14.246 31.375 15.98 2.814.732 5.481 1.7 7.015 4.482l1.676 3.206c1.486.614 2.585.825 4.706-.235 4.724-12.713 7.202-24.254 8.824-35.934.045-1.082.853-2.961 1.631-3.858l2.83-2.582-22.005-33.383-33.972-6.27c-6.41 14.28-10.579 23.776-18.06 57.327a2.238 2.238 0 0 0 0 .128zm17.59-20.957c3.852-16.021 13.232-14.739 26.252-6.741 8.55 5.887 26.174 17.157 13.639 29.074-2.888 2.725-4.555 3.726-8.2.842-6.701-7.63-14.182-13.614-24.548-16.518-3.778-1.051-6.982-1.54-7.142-6.657z"/><path d="M18.96 362.568l32.847 6.062 22.005 33.383v-1.816h.515l1.145-1.307-1.131-.452 1.13-1.29-1.13-.455 1.13-1.289-1.13-.454 1.13-1.29-1.13-.453 1.13-1.29-1.13-.453 1.13-1.29-1.13-.453 1.13-1.29-1.13-.454 1.13-1.29-1.13-.453 1.13-1.29-1.13-.453 1.13-1.29-1.13-.453 1.13-1.29-1.13-.453 1.13-1.29-1.13-.454 1.13-1.29-1.13-.453 1.13-1.29-1.13-.453 1.13-1.29-1.13-.453 1.13-1.29-1.13-.453 1.13-1.29-1.13-.454 1.13-1.29-1.13-.453 1.13-1.29-1.13-.453 1.13-1.291-1.13-.452 1.13-1.291-1.13-.453 1.13-1.29-1.13-.453 1.13-1.29-1.13-.454 1.13-1.29-1.13-.454 1.13-1.29-1.13-.453 1.13-1.29-1.13-.453 1.13-1.29-1.13-.453 1.13-1.29-1.13-.454 1.13-1.289-1.13-.454 1.13-1.29-1.13-.453 1.13-1.29-1.13-.453 1.13-1.29-1.13-.453 1.13-1.29-1.13-.454 1.13-1.29-1.13-.453 1.13-1.29-1.13-.453 1.13-1.29-1.13-.453 1.13-1.29-1.13-.453 1.13-1.29-1.13-.454 1.13-1.29-1.13-.453 1.13-1.29-1.13-.453 1.13-1.29-1.13-.453 1.13-1.291-1.13-.452 1.13-1.291-1.13-.453 1.13-1.29-1.13-.454 1.13-1.29-1.13-.454 1.13-1.29-1.13-.453 1.13-1.29-1.13-.453 1.13-1.29-1.13-.453 1.13-1.29-1.13-.453 1.13-1.29-1.13-.454 1.13-1.29-1.13-.453 1.13-1.29-1.13-.453 1.13-1.29-1.13-.453 1.13-1.29-1.13-.453 1.13-1.29-1.13-.454 1.13-1.29-1.13-.453 1.13-1.29-1.13-.453 1.13-1.29-1.13-.453 1.13-1.29-1.13-.454 1.13-1.29-1.13-.453 1.13-1.29-1.13-.453 1.13-1.291-1.13-.452 1.13-1.291-1.13-.452 1.13-1.291-1.13-.453 1.13-1.29-1.13-.454 1.13-1.29-1.13-.454 1.13-1.29-1.13-.453 1.13-1.29-1.13-.453 1.13-1.29-1.13-.453 1.13-1.29-1.13-.453 1.13-1.29-1.13-.454 1.13-1.29-1.13-.453 1.13-1.29-1.13-.453 1.13-1.29-1.13-.453 1.13-1.29-1.13-.453 1.13-1.29-1.13-.454 1.13-1.29-1.13-.453 1.13-1.29-1.13-.453 1.13-1.29-1.13-.453 1.13-1.29-1.13-.453 1.13-1.29-1.13-.454 1.13-1.29-1.13-.453 1.13-1.29-1.13-.453 1.13-1.291-1.13-.452 1.13-1.291-1.13-.454 1.13-1.29-1.13-.453 1.13-1.29-1.13-.453 1.13-1.29-1.13-.454 1.13-1.29-1.13-.453 1.13-1.29-1.13-.453 1.13-1.29-1.13-.453 1.13-1.29-1.13-.454 1.13-1.289-1.13-.454 1.13-1.29-1.13-.453 1.13-1.29-1.13-.453 1.13-1.29-1.13-.453 1.13-1.29-1.13-.454 1.13-1.29-1.13-.453 1.13-1.29-1.13-.453 1.13-1.29-1.13-.453 1.13-1.29-1.13-.453 1.13-1.29-1.13-.454 1.13-1.29-1.13-.453 1.13-1.29-1.13-.453 1.13-1.291-1.13-.452 1.13-1.291-1.13-.452 1.13-1.292-1.13-.452 1.13-1.29-1.13-.454 1.13-1.29-1.13-.454 1.13-1.29-1.13-.453 1.13-1.29-1.13-.453 1.13-1.29-1.13-.453 1.13-1.29-1.13-.453 1.13-1.29-1.13-.454 1.13-1.29-1.13-.453 1.13-1.29-1.13-.453 1.13-1.29-1.13-.453 1.13-1.29-1.13-.454 1.13-1.289-1.13-.454 1.13-1.29-1.13-.453 1.13-1.29-1.13-.453 1.13-1.29-1.13-.453 1.13-1.29-1.13-.454 1.13-1.29-1.13-.453 1.13-1.29c-1.72-.833-2.444-.552-3.833-.518-7.3 4.22-14.885 11.901-18.358 17.943L18.96 362.568zm44.177-163.864a.9.9 0 0 1 .014-.15c1.032-5.738 1.799-8.433 2.262-8.896.874-.874 1.311-1.658 3.317-1.658 1.015.23 1.633 1.439 1.218 2.395-1.383 2.822-2.788 5.634-4.18 8.452-.171.44-.485.861-.97.972-.744.228-1.67-.367-1.661-1.115z" style="marker:none" color="#000" fill="gray" overflow="visible"/><path d="M63.93 393.937l1.551 1.925-.892 2.306-2.443.38-1.55-1.925.891-2.306zM45.936 374.729l.774 2.348-1.646 1.844-2.42-.503-.775-2.348 1.646-1.845zM26.593 368.208l.853 2.32-1.583 1.9-2.436-.422-.854-2.32 1.583-1.9z" style="marker:none" color="#000" fill="gray" overflow="visible"/></g><g color="#000"><path d="M374.486 336.998c-.241 0-.353.21-.436.436l-4.728 12.913h-.006v8.963l1.11.587c-.414.852-.614 1.458-.645 2.232-.036.855.18 1.743.508 2.517l-.973.587v9.523l6.27 2.642v-8.773h1.314v9.065l6.27-2.934v-9.523l-.973-.587c.327-.774.543-1.662.508-2.517-.031-.774-.231-1.38-.645-2.232l1.11-.587v-8.963h-.006l-4.728-12.913c-.083-.226-.195-.436-.436-.436h-1.42V354.7h-.675v-17.702z" style="marker:none" fill="#b3b3b3" overflow="visible"/><path d="M368.713 373.768c-.433-.214-1.465.034-1.6.586-.851 3.455-3.534 5.501-5.338 5.28-.776-.094-1.106 1.438-.864 2.182.428 1.315 2.93.96 3.506 2.217.259.563-.168 1.577-.272 1.84-5.12 12.836-7.157 26.675-4.237 44.8.749 4.789-.398 5.835 1.537 12.678.695 2.462 4.107 1.507 7.055 1.774a1.68 1.68 0 0 0 1.83-1.525l.71-7.829a1.68 1.68 0 0 0-.958-1.677c-4.778-23.08-1.683-36.802 6-51.865.13-3.964.55-4.54-.848-5.233z" style="marker:none" overflow="visible"/><path d="M383.773 373.768c.433-.214 1.465.034 1.6.586.851 3.455 3.534 5.501 5.338 5.28.776-.094 1.106 1.438.864 2.182-.428 1.315-2.93.96-3.506 2.217-.259.563.168 1.577.272 1.84 5.12 12.836 7.157 26.675 4.237 44.8-.749 4.789.398 5.835-1.537 12.678-.696 2.462-4.107 1.507-7.055 1.774a1.68 1.68 0 0 1-1.83-1.525l-.71-7.829a1.68 1.68 0 0 1 .958-1.677c4.778-23.08 1.683-36.802-6-51.865-.13-3.964-.55-4.54.848-5.233z" style="marker:none" overflow="visible"/><path d="M375.906 346.031c-1.862.87-3.195 2.409-3.218 4.469.165 2.4 1.215 3.47 3.218 4.469v-8.938zm.688.157v8.656c1.698-.912 2.886-2.322 2.906-4.344-.144-2.293-1.077-3.363-2.906-4.312z" style="marker:none" fill="gray" overflow="visible"/></g><g color="#000"><path d="M225.504 294.376l-19.23 4.966s-.168.069-.237.125c-.293.24-.34.214-.72.882-.706 1.238-1.57 3.186-1.578 3.23-.075.362.206.438.561.455l16.235-.38.912-.858c.028-.002 3.208-.002 6.795-.002v5.154l-6.795.02c-.035 0-.912-.859-.912-.859l-16.235-.38c-.355.018-.636.095-.561.456.009.044.872 1.992 1.578 3.23.38.668.427.64.72.88.07.058.237.127.237.127l19.23 4.966h2.738v124.775c0 .357.288.645.645.645h4.032v3.144c0 .1.08.18.18.18h.715c.1 0 .18-.08.18-.18v-3.144h4.032a.644.644 0 0 0 .646-.645V316.388h1.673c.035 0 .063-.124.063-.124v-12.478c.916.028 1.94-.041 3.006-.221.656-.111 1.367-.331 2.088-.614l6.436-.104s-1.145-.834-2.72-1.77c1.575-.936 2.72-1.769 2.72-1.769l-6.436-.103c-.721-.284-1.432-.503-2.088-.614-1.066-.18-2.09-.25-3.005-.222l-.001-3.869c0-.069-.028-.124-.063-.124h-14.841z" style="marker:none" fill="gray" overflow="visible"/><path d="M233.828 304.769c-.203 0-.358.045-.465.136-.106.092-.161.225-.161.398 0 .174.055.305.161.397.107.092.262.138.465.138s.358-.046.465-.138c.107-.092.16-.223.16-.397 0-.173-.053-.306-.16-.398-.107-.091-.262-.136-.465-.136zm0 .21c.166 0 .29.026.372.08a.273.273 0 0 1 .124.244c0 .109-.04.19-.124.245-.082.054-.206.082-.372.082-.165 0-.289-.028-.372-.082a.274.274 0 0 1-.125-.245c0-.108.043-.19.125-.244.083-.054.207-.08.372-.08zm-4.344.264v.11h2.775v-.11h-2.775zm.002.624v.11h1.73v-.11h-1.73zm0 .626v.108h1.73v-.108h-1.73zm0 .625v.108h1.73v-.108h-1.73zm0 .624v.11h1.73v-.11h-1.73zm0 .625v.109h1.73v-.11h-1.73zm0 .625v.109h1.73v-.11h-1.73zm0 .624v.11h1.73v-.11h-1.73zm0 .625v.109h1.73v-.109h-1.73zm0 .625v.109h1.73v-.109h-1.73zm4.743.316l.058.37h-.92v-.341h-.137v.887h.138v-.338h1.067v-.21l-.057-.368h-.15zm-4.745.31v.11h2.775v-.11h-2.775zm.002.625v.11h1.73v-.11h-1.73zm0 .625v.11h1.73v-.11h-1.73zm0 .624v.11h1.73v-.11h-1.73zm0 .626v.11h1.73v-.11h-1.73zm0 .625v.108h1.73v-.108h-1.73zm0 .624v.11h1.73v-.11h-1.73zm0 .625v.11h1.73v-.11h-1.73zm0 .625v.109h1.73v-.11h-1.73zm0 .624v.11h1.73v-.11h-1.73zm3.744.213v.98h.138v-.73l.312.39c.075.093.12.148.136.165.06.063.112.106.157.13a.29.29 0 0 0 .392-.107.69.69 0 0 0 .092-.383c0-.06-.006-.126-.02-.199a1.97 1.97 0 0 0-.059-.234h-.164c.036.083.063.158.08.23a.883.883 0 0 1 .026.209c0 .092-.02.168-.06.225a.183.183 0 0 1-.157.086.215.215 0 0 1-.12-.04.813.813 0 0 1-.149-.14c-.03-.035-.1-.12-.208-.257a36.757 36.757 0 0 0-.258-.325h-.138zm-3.746.412v.11h2.775v-.11h-2.775zm.002.625v.109h1.73v-.109h-1.73zm0 .624v.11h1.73v-.11h-1.73zm0 .625v.11h1.73v-.11h-1.73zm0 .625v.11h1.73v-.11h-1.73zm0 .625v.11h1.73v-.11h-1.73zm0 .625v.11h1.73v-.11h-1.73zm0 .625v.109h1.73v-.11h-1.73zm0 .624v.11h1.73v-.11h-1.73zm0 .625v.11h1.73v-.11h-1.73zm3.781.195a1.743 1.743 0 0 0-.06.414c0 .193.033.34.098.445a.31.31 0 0 0 .277.158c.077 0 .141-.029.194-.085a.438.438 0 0 0 .105-.235c.018.09.049.162.094.21a.223.223 0 0 0 .17.072c.096 0 .173-.046.229-.138a.711.711 0 0 0 .083-.374c0-.061-.004-.13-.012-.2a2.51 2.51 0 0 0-.04-.22h-.144c.02.079.036.152.045.217.01.065.014.126.014.184a.47.47 0 0 1-.05.24.157.157 0 0 1-.142.085.156.156 0 0 1-.139-.084.468.468 0 0 1-.047-.234v-.187h-.134v.18c0 .113-.02.202-.06.265a.183.183 0 0 1-.166.093.191.191 0 0 1-.176-.101.595.595 0 0 1-.061-.299c0-.075.006-.148.02-.217a.839.839 0 0 1 .059-.189h-.157zm-3.783.43v.109h2.775v-.109h-2.775zm.002.624v.11h1.73v-.11h-1.73zm0 .625v.11h1.73v-.11h-1.73zm0 .625v.11h1.73v-.11h-1.73zm0 .624v.11h1.73v-.11h-1.73zm0 .626v.108h1.73v-.108h-1.73zm0 .625v.108h1.73v-.108h-1.73zm0 .624v.11h1.73v-.11h-1.73zm0 .625v.109h1.73v-.11h-1.73zm0 .625v.109h1.73v-.11h-1.73zm4.03.112v.695h-.286v.21h.285v.22h.135v-.22h.785v-.264l-.762-.64h-.158zm.134.17l.644.527h-.644v-.526zm-4.166.342v.11h2.775v-.11h-2.775zm.002.625v.109h1.73v-.109h-1.73zm0 .625v.109h1.73v-.109h-1.73zm0 .624v.11h1.73v-.11h-1.73zm0 .625v.11h1.73v-.11h-1.73zm0 .625v.11h1.73v-.11h-1.73zm0 .625v.11h1.73v-.11h-1.73zm0 .625v.108h1.73v-.108h-1.73zm0 .625v.109h1.73v-.11h-1.73zm0 .624v.11h1.73v-.11h-1.73zm3.774.15a1.546 1.546 0 0 0-.052.407c0 .188.035.333.106.437a.35.35 0 0 0 .303.156.357.357 0 0 0 .3-.154c.074-.101.11-.236.11-.408a.693.693 0 0 0-.024-.18h.296v.624h.136v-.817h-.604a1.057 1.057 0 0 1 .06.335c0 .12-.024.216-.073.286a.233.233 0 0 1-.201.103.23.23 0 0 1-.2-.103.493.493 0 0 1-.072-.286 1.058 1.058 0 0 1 .077-.4h-.162zm-3.776.475v.109h2.775v-.11h-2.775zm.002.625v.109h1.73v-.109h-1.73zm0 .624v.11h1.73v-.11h-1.73zm0 .625v.109h1.73v-.109h-1.73zm0 .625v.11h1.73v-.11h-1.73zm0 .624v.11h1.73v-.11h-1.73zm0 .626v.108h1.73v-.108h-1.73zm0 .624v.11h1.73v-.11h-1.73zm0 .625v.11h1.73v-.11h-1.73zm0 .625v.109h1.73v-.11h-1.73zm4.346.111c-.202 0-.357.046-.464.14-.107.095-.16.234-.16.413 0 .155.036.278.111.372a.363.363 0 0 0 .298.141.368.368 0 0 0 .3-.136.563.563 0 0 0 .11-.368.528.528 0 0 0-.038-.203.385.385 0 0 0-.107-.15c.147.01.256.05.328.123.073.073.11.179.11.316a1.025 1.025 0 0 1-.059.318h.149c.016-.057.028-.115.036-.17.009-.052.01-.103.01-.156a.642.642 0 0 0-.169-.468.604.604 0 0 0-.455-.172zm-.215.246c.087 0 .156.027.206.082.044.048.07.11.075.188v.037a.31.31 0 0 1-.075.22.267.267 0 0 1-.206.084.264.264 0 0 1-.205-.084.31.31 0 0 1-.075-.22c0-.094.025-.17.075-.225a.265.265 0 0 1 .205-.082zm-4.133.267v.11h2.775v-.11h-2.775zm.002.625v.11h1.73v-.11h-1.73zm0 .625v.109h1.73v-.109h-1.73zm0 .624v.11h1.73v-.11h-1.73zm0 .625v.11h1.73v-.11h-1.73zm0 .625v.11h1.73v-.11h-1.73zm0 .625v.11h1.73v-.11h-1.73zm0 .625v.11h1.73v-.11h-1.73zm0 .625v.108h1.73v-.108h-1.73zm0 .624v.11h1.73v-.11h-1.73zm4.813.113v.74l-1.069-.525v.218l1.136.56h.07v-.993h-.137zm-4.815.512v.11h2.775v-.11h-2.775zm.002.625v.109h1.73v-.11h-1.73zm0 .624v.11h1.73v-.11h-1.73zm0 .625v.11h1.73v-.11h-1.73zm0 .625v.109h1.73v-.109h-1.73zm0 .624v.11h1.73v-.11h-1.73zm0 .625v.11h1.73v-.11h-1.73zm0 .625v.11h1.73v-.11h-1.73zm0 .625v.11h1.73v-.11h-1.73zm0 .625v.11h1.73v-.11h-1.73zm4.084.06a.307.307 0 0 0-.27.137c-.062.092-.093.22-.093.39 0 .171.031.302.093.393.063.091.153.139.27.139a.26.26 0 0 0 .195-.087.445.445 0 0 0 .107-.234c.017.09.05.16.099.21a.23.23 0 0 0 .174.073c.096 0 .173-.04.229-.128a.681.681 0 0 0 .083-.365v-.055a.616.616 0 0 0-.083-.305.26.26 0 0 0-.229-.132.233.233 0 0 0-.174.075.408.408 0 0 0-.099.21.447.447 0 0 0-.107-.235.26.26 0 0 0-.195-.085zm0 .209a.2.2 0 0 1 .171.084.394.394 0 0 1 .063.235c0 .1-.021.178-.063.234a.2.2 0 0 1-.171.086.202.202 0 0 1-.172-.086.392.392 0 0 1-.06-.234c0-.1.019-.178.06-.235a.2.2 0 0 1 .172-.084zm.56.035c.063 0 .11.023.146.073.035.05.052.12.052.21s-.017.16-.052.211a.168.168 0 0 1-.146.078.168.168 0 0 1-.145-.078.364.364 0 0 1-.054-.21c0-.09.019-.16.054-.211a.167.167 0 0 1 .145-.073zm-4.646.32v.11h2.775v-.11h-2.775zm.002.625v.11h1.73v-.11h-1.73zm0 .625v.11h1.73v-.11h-1.73zm0 .625v.109h1.73v-.109h-1.73zm0 .624v.11h1.73v-.11h-1.73zm0 .625v.11h1.73v-.11h-1.73zm0 .625v.11h1.73v-.11h-1.73zm0 .624v.11h1.73v-.11h-1.73zm0 .626v.11h1.73v-.11h-1.73zm0 .625v.108h1.73v-.108h-1.73zm4.562.025a.369.369 0 0 0-.3.137.569.569 0 0 0-.108.367c0 .074.011.141.036.203.024.06.06.112.107.152-.148-.01-.258-.052-.33-.125-.073-.072-.108-.18-.108-.317a.86.86 0 0 1 .059-.316h-.149a1.402 1.402 0 0 0-.048.326.63.63 0 0 0 .17.463.613.613 0 0 0 .455.176c.204 0 .359-.047.465-.14.107-.095.16-.233.16-.411a.582.582 0 0 0-.111-.374.362.362 0 0 0-.298-.141zm0 .21c.087 0 .156.026.206.08a.306.306 0 0 1 .074.192v.033a.31.31 0 0 1-.074.221.265.265 0 0 1-.206.084.266.266 0 0 1-.206-.084.313.313 0 0 1-.075-.221c0-.094.025-.169.075-.224.05-.055.119-.08.206-.08zm-4.564.389v.11h2.775v-.11h-2.775zm.002.625v.11h1.73v-.11h-1.73zm0 .625v.109h1.73v-.11h-1.73zm0 .624v.11h1.73v-.11h-1.73zm0 .625v.11h1.73v-.11h-1.73zm0 .625v.109h1.73v-.109h-1.73zm0 .624v.11h1.73v-.11h-1.73zm0 .625v.11h1.73v-.11h-1.73zm0 .625v.11h1.73v-.11h-1.73zm0 .625v.11h1.73v-.11h-1.73zm4.743.104l.058.37h-.92v-.342h-.137v.89h.138v-.341h1.067v-.21l-.057-.367h-.15zm-4.745.52v.11h2.775v-.11h-2.775zm.002.626v.109h1.73v-.11h-1.73zm4.346.107c-.202 0-.357.045-.464.136-.107.092-.16.224-.16.397 0 .172.053.305.16.396.107.092.262.136.464.136.204 0 .359-.044.465-.136.107-.091.16-.224.16-.396 0-.173-.053-.305-.16-.397-.106-.09-.261-.136-.465-.136zm0 .209c.166 0 .29.028.373.082a.268.268 0 0 1 .122.242c0 .108-.04.19-.122.244-.082.054-.207.082-.373.082-.165 0-.29-.028-.372-.082-.082-.054-.123-.136-.123-.244a.27.27 0 0 1 .123-.242c.083-.054.207-.082.372-.082zm-4.346.308v.11h1.73v-.11h-1.73zm0 .625v.11h1.73v-.11h-1.73zm0 .625v.109h1.73v-.109h-1.73zm0 .624v.11h1.73v-.11h-1.73zm0 .625v.11h1.73v-.11h-1.73zm0 .625v.11h1.73v-.11h-1.73zm0 .624v.11h1.73v-.11h-1.73zm0 .626v.11h1.73v-.11h-1.73zm4.743.08l.058.37h-.92v-.34h-.137v.887h.138v-.34h1.067v-.21l-.057-.367h-.15zm-4.745.545v.108h2.775v-.108h-2.775zm.001.624v.11h1.731v-.11h-1.73zm4.744.176l.058.372h-.92v-.343h-.137v.89h.138v-.341h1.067v-.208l-.057-.37h-.15zm-4.744.449v.11h1.731v-.11h-1.73zm0 .625v.109h1.731v-.11h-1.73zm0 .624v.11h1.731v-.11h-1.73zm0 .625v.11h1.731v-.11h-1.73zm0 .625v.109h1.731v-.109h-1.73zm0 .624v.11h1.731v-.11h-1.73zm0 .625v.11h1.731v-.11h-1.73zm0 .625v.11h1.731v-.11h-1.73zm4.744.057l.058.37h-.92v-.34h-.137v.887h.138v-.34h1.067v-.21l-.057-.367h-.15zm-4.745.568v.11h2.775v-.11h-2.775zm.001.625v.11h1.73v-.11h-1.73zm3.745.076v.98h.138v-.728l.312.39c.075.092.12.147.136.164.06.063.112.104.157.127a.287.287 0 0 0 .392-.103.69.69 0 0 0 .092-.383c0-.06-.006-.129-.02-.202a1.968 1.968 0 0 0-.059-.234h-.164c.036.083.063.16.08.233a.86.86 0 0 1 .026.205c0 .092-.02.169-.06.226a.183.183 0 0 1-.157.086.214.214 0 0 1-.12-.039.795.795 0 0 1-.149-.14 8.041 8.041 0 0 1-.208-.258 35.267 35.267 0 0 0-.258-.324h-.138zm-3.745.549v.109h1.73v-.11h-1.73zm0 .624v.11h1.73v-.11h-1.73zm0 .625v.11h1.73v-.11h-1.73zm0 .625v.109h1.73v-.109h-1.73zm0 .624v.11h1.73v-.11h-1.73zm0 .625v.11h1.73v-.11h-1.73zm0 .625v.11h1.73v-.11h-1.73zm0 .624v.11h1.73v-.11h-1.73zm4.744.034l.058.371h-.92v-.342h-.137v.889h.138v-.34h1.067v-.211l-.057-.367h-.15zm-4.745.592v.11h2.775v-.11h-2.775zm.001.625v.108h1.73v-.108h-1.73zm3.782.056a1.765 1.765 0 0 0-.06.414c0 .193.033.34.098.445.065.105.158.16.277.16.077 0 .141-.03.194-.086a.432.432 0 0 0 .105-.232c.018.09.049.16.094.209a.224.224 0 0 0 .17.072c.096 0 .173-.046.229-.139a.715.715 0 0 0 .083-.375c0-.061-.004-.128-.012-.197a2.575 2.575 0 0 0-.04-.224h-.144c.02.078.036.153.045.218.01.066.014.127.014.184a.462.462 0 0 1-.05.238c-.033.056-.08.086-.142.086a.152.152 0 0 1-.139-.08.476.476 0 0 1-.047-.236v-.188h-.134v.18c0 .113-.02.202-.06.265a.186.186 0 0 1-.166.096.193.193 0 0 1-.176-.103.602.602 0 0 1-.061-.3c0-.076.006-.145.019-.214a.878.878 0 0 1 .06-.193h-.157zm-3.782.568v.11h1.73v-.11h-1.73zm0 .625v.11h1.73v-.11h-1.73zm0 .625v.109h1.73v-.11h-1.73zm0 .624v.11h1.73v-.11h-1.73zm0 .625v.11h1.73v-.11h-1.73zm0 .625v.109h1.73v-.109h-1.73zm0 .624v.11h1.73v-.11h-1.73zm0 .625v.11h1.73v-.11h-1.73zm4.744.01l.058.371h-.92v-.342h-.137v.889h.138v-.34h1.067v-.21l-.057-.367h-.15zm-4.745.615v.11h2.775v-.11h-2.775zm4.031.603v.696h-.285v.208h.285v.221h.135v-.221h.785v-.263l-.762-.64h-.158zm-4.03.022v.11h1.73v-.11h-1.73zm4.165.148l.644.526h-.644v-.526zm-4.165.477v.108h1.73v-.108h-1.73zm0 .625v.109h1.73v-.11h-1.73zm0 .624v.11h1.73v-.11h-1.73zm0 .625v.109h1.73v-.11h-1.73zm0 .625v.109h1.73v-.109h-1.73zm0 .624v.11h1.73v-.11h-1.73zm0 .625v.109h1.73v-.109h-1.73zm4.744.611l.058.371h-.92v-.342h-.137v.889h.138v-.34h1.067v-.21l-.057-.368h-.15zm-4.744.014v.11h1.73v-.11h-1.73zm-.001.624v.11h2.775v-.11h-2.775zm.001.626v.108h1.73v-.108h-1.73zm3.775.011a1.547 1.547 0 0 0-.052.406c0 .188.035.334.106.437a.35.35 0 0 0 .303.157c.126 0 .226-.05.3-.15.074-.101.11-.237.11-.409a.68.68 0 0 0-.024-.183h.296v.628h.136v-.817h-.604a1.057 1.057 0 0 1 .06.335c0 .12-.024.212-.073.281a.237.237 0 0 1-.201.107.233.233 0 0 1-.2-.107.477.477 0 0 1-.072-.28c0-.074.006-.146.019-.212a.962.962 0 0 1 .058-.193h-.162zm-3.775.614v.108h1.73v-.108h-1.73zm0 .624v.11h1.73v-.11h-1.73zm0 .625v.109h1.73v-.11h-1.73zm0 .625v.109h1.73v-.11h-1.73zm0 .624v.11h1.73v-.11h-1.73zm0 .625v.109h1.73v-.109h-1.73zm4.327.617a.66.66 0 0 0-.47.164.575.575 0 0 0-.174.44.826.826 0 0 0 .08.367h.185a.663.663 0 0 1-.094-.346c0-.13.041-.231.124-.303a.516.516 0 0 1 .35-.11c.149 0 .265.037.348.11a.381.381 0 0 1 .125.304.763.763 0 0 1-.094.346h.188a.809.809 0 0 0 .077-.354c0-.192-.057-.343-.172-.453-.115-.11-.273-.165-.473-.165zm-4.327.008v.109h1.73v-.109h-1.73zm0 .624v.11h1.73v-.11h-1.73zm-.001.625v.11h2.775v-.11h-2.775zm3.715.06v.203h.694c.12 0 .214.03.283.09a.31.31 0 0 1 .105.247c0 .087-.028.15-.085.192-.057.042-.144.063-.262.063h-.735v.203h.694c.12 0 .215.03.284.09.07.06.104.144.104.248 0 .086-.028.15-.085.191-.057.042-.145.063-.262.063h-.735v.203h.741c.165 0 .293-.035.382-.105a.352.352 0 0 0 .135-.296.464.464 0 0 0-.065-.248.528.528 0 0 0-.2-.18.394.394 0 0 0 .197-.14.374.374 0 0 0 .068-.226.465.465 0 0 0-.054-.23.457.457 0 0 0-.167-.165h.191v-.203h-1.228zm-3.714.565v.11h1.73v-.11h-1.73zm0 .625v.11h1.73v-.11h-1.73zm0 .625v.108h1.73v-.108h-1.73zm0 .624v.11h1.73v-.11h-1.73zm0 .625v.11h1.73v-.11h-1.73zm0 .625v.109h1.73v-.11h-1.73zm0 .624v.11h1.73v-.11h-1.73zm0 .625v.11h1.73v-.11h-1.73zm0 .625v.109h1.73v-.109h-1.73zm-.001.624v.11h2.775v-.11h-2.775zm.001.625v.11h1.73v-.11h-1.73zm0 .626v.108h1.73v-.108h-1.73zm0 .624v.11h1.73v-.11h-1.73zm0 .625v.11h1.73v-.11h-1.73zm0 .625v.109h1.73v-.11h-1.73zm0 .624v.11h1.73v-.11h-1.73zm0 .625v.11h1.73v-.11h-1.73zm0 .625v.109h1.73v-.109h-1.73zm0 .624v.11h1.73v-.11h-1.73zm-.001.625v.11h2.775v-.11h-2.775zm.001.625v.11h1.73v-.11h-1.73zm0 .624v.11h1.73v-.11h-1.73zm0 .626v.11h1.73v-.11h-1.73zm0 .625v.108h1.73v-.108h-1.73zm0 .624v.11h1.73v-.11h-1.73zm0 .625v.11h1.73v-.11h-1.73zm0 .625v.109h1.73v-.11h-1.73zm0 .624v.11h1.73v-.11h-1.73zm0 .625v.11h1.73v-.11h-1.73zm-.001.625v.109h2.775v-.109h-2.775zm.001.624v.11h1.73v-.11h-1.73zm0 .625v.11h1.73v-.11h-1.73zm0 .625v.11h1.73v-.11h-1.73zm0 .625v.11h1.73v-.11h-1.73zm0 .625v.11h1.73v-.11h-1.73zm0 .625v.109h1.73v-.11h-1.73zm0 .624v.11h1.73v-.11h-1.73zm0 .625v.11h1.73v-.11h-1.73zm0 .625v.109h1.73v-.109h-1.73zm-.001.624v.11h2.775v-.11h-2.775z" style="text-indent:0;text-align:start;line-height:normal;text-transform:none;block-progression:tb;marker:none;-inkscape-font-specification:Sans" font-weight="400" overflow="visible" font-family="Sans"/><path d="M225.327 306.493a.177.177 0 0 0-.177.177v33.835c0 .098.079.177.177.177h5.001v-34.189h-5.001zm11.258 0v34.19h4.534a.177.177 0 0 0 .177-.178V306.67a.177.177 0 0 0-.177-.177h-4.534z" style="marker:none" fill="#b3b3b3" overflow="visible"/><path d="M230.62 438.075a1.01 1.01 0 1 0 0 2.02 1.01 1.01 0 0 0 0-2.02zm5.673.098a1.01 1.01 0 1 0 0 2.02 1.01 1.01 0 0 0 0-2.02zM226.516 337.124a.77.77 0 1 0 0 1.54.77.77 0 0 0 0-1.54zm13.414.074a.77.77 0 1 0 0 1.541.77.77 0 0 0 0-1.54zM226.516 322.963a.77.77 0 1 0 0 1.541.77.77 0 0 0 0-1.541zm13.414.075a.77.77 0 1 0 0 1.54.77.77 0 0 0 0-1.54zM226.516 308.212a.77.77 0 1 0 0 1.541.77.77 0 0 0 0-1.541zm13.414.075a.77.77 0 1 0 0 1.54.77.77 0 0 0 0-1.54zM224.868 332.622a2.447 2.447 0 1 0 .4 4.861v-4.829a2.463 2.463 0 0 0-.4-.032zM242.366 319.024c-.076 0-.137.08-.137.177v1.51h-1.008c-.069 0-.125.028-.125.063v.827c0 .035.056.064.125.064h1.008v1.509c0 .098.061.177.137.177h1.787c.075 0 .136-.079.136-.177 0 0 .369-1.313.369-1.986 0-.674-.369-1.987-.369-1.987-.018-.096-.06-.177-.136-.177z" style="marker:none" overflow="visible"/></g></svg>