<svg xmlns="http://www.w3.org/2000/svg" xmlns:xlink="http://www.w3.org/1999/xlink" width="256" height="256"><defs><linearGradient id="g"><stop offset="0" stop-color="#7e7e7e"/><stop offset=".307" stop-color="#b4b4b4"/><stop offset=".7" stop-color="#fff"/><stop offset=".874" stop-color="#909090"/><stop offset="1" stop-color="#666"/></linearGradient><linearGradient id="n"><stop offset="0" stop-color="#7e7e7e"/><stop offset=".307" stop-color="#b4b4b4"/><stop offset=".904" stop-color="#fff"/><stop offset=".967" stop-color="#909090"/><stop offset="1" stop-color="#666"/></linearGradient><linearGradient id="m"><stop offset="0" stop-color="#333"/><stop offset=".434" stop-color="#afafaf"/><stop offset=".559" stop-color="#fff"/><stop offset=".684" stop-color="#b1b1b1"/><stop offset="1" stop-color="#818181"/></linearGradient><linearGradient id="b"><stop offset="0" stop-color="#333"/><stop offset=".263" stop-color="#afafaf"/><stop offset=".375" stop-color="#fff"/><stop offset=".478" stop-color="#b1b1b1"/><stop offset="1" stop-color="#818181"/></linearGradient><linearGradient id="l"><stop offset="0" stop-color="#333"/><stop offset=".306" stop-color="#afafaf"/><stop offset=".654" stop-color="#fff"/><stop offset=".788" stop-color="#b1b1b1"/><stop offset="1" stop-color="#818181"/></linearGradient><linearGradient id="e"><stop offset="0" stop-color="#7e7e7e"/><stop offset=".288" stop-color="#b4b4b4"/><stop offset=".412" stop-color="#fff"/><stop offset=".83" stop-color="#909090"/><stop offset="1" stop-color="#666"/></linearGradient><linearGradient id="i"><stop offset="0" stop-color="#333"/><stop offset="0" stop-color="#afafaf"/><stop offset=".488" stop-color="#fff"/><stop offset=".775" stop-color="#b1b1b1"/><stop offset="1" stop-color="#818181"/></linearGradient><linearGradient id="j"><stop offset="0" stop-color="#333"/><stop offset=".074" stop-color="#737373"/><stop offset=".259" stop-color="#fff"/><stop offset=".815" stop-color="#686868"/><stop offset="1" stop-color="#333"/></linearGradient><linearGradient id="k"><stop offset="0" stop-color="#333"/><stop offset=".133" stop-color="#737373"/><stop offset=".467" stop-color="#fff"/><stop offset=".6" stop-color="#686868"/><stop offset="1" stop-color="#333"/></linearGradient><linearGradient id="h"><stop offset="0" stop-color="#333"/><stop offset=".263" stop-color="#737373"/><stop offset=".388" stop-color="#fff"/><stop offset=".513" stop-color="#686868"/><stop offset="1" stop-color="#333"/></linearGradient><linearGradient id="f"><stop offset="0" stop-color="#7e7e7e"/><stop offset=".307" stop-color="#b4b4b4"/><stop offset=".432" stop-color="#fff"/><stop offset=".557" stop-color="#909090"/><stop offset="1" stop-color="#666"/></linearGradient><linearGradient id="d"><stop offset="0" stop-color="#e6e6e6"/><stop offset="1" stop-color="#e6e6e6" stop-opacity="0"/></linearGradient><linearGradient id="c"><stop offset="0" stop-color="#999"/><stop offset=".25" stop-color="#737373"/><stop offset=".375" stop-color="#fff"/><stop offset=".5" stop-color="#686868"/><stop offset="1" stop-color="#333"/></linearGradient><linearGradient id="a"><stop offset="0" stop-color="#333"/><stop offset=".25" stop-color="#afafaf"/><stop offset=".375" stop-color="#fff"/><stop offset=".5" stop-color="#b1b1b1"/><stop offset="1" stop-color="#818181"/></linearGradient><linearGradient xlink:href="#a" id="y" gradientUnits="userSpaceOnUse" x1="127.454" y1="176.362" x2="144.909" y2="176.362"/><linearGradient xlink:href="#a" id="z" gradientUnits="userSpaceOnUse" x1="127.454" y1="176.362" x2="144.909" y2="176.362"/><linearGradient xlink:href="#a" id="A" gradientUnits="userSpaceOnUse" x1="127.454" y1="176.362" x2="144.909" y2="176.362"/><linearGradient xlink:href="#a" id="B" gradientUnits="userSpaceOnUse" x1="127.454" y1="176.362" x2="144.909" y2="176.362"/><linearGradient xlink:href="#a" id="C" gradientUnits="userSpaceOnUse" x1="127.454" y1="176.362" x2="144.909" y2="176.362"/><linearGradient xlink:href="#a" id="D" gradientUnits="userSpaceOnUse" x1="127.454" y1="176.362" x2="144.909" y2="176.362"/><linearGradient xlink:href="#a" id="x" gradientUnits="userSpaceOnUse" x1="127.454" y1="176.362" x2="144.909" y2="176.362"/><radialGradient xlink:href="#a" id="M" gradientUnits="userSpaceOnUse" gradientTransform="matrix(.5243 0 0 .83413 52.13 11.727)" spreadMethod="reflect" cx="145.745" cy="134.633" fx="145.745" fy="134.633" r="12.001"/><radialGradient xlink:href="#a" id="N" gradientUnits="userSpaceOnUse" gradientTransform="matrix(.5243 0 0 .83413 52.13 11.727)" spreadMethod="reflect" cx="145.745" cy="134.633" fx="145.745" fy="134.633" r="12.001"/><radialGradient xlink:href="#a" id="O" gradientUnits="userSpaceOnUse" gradientTransform="matrix(.5243 0 0 .83413 52.13 11.727)" spreadMethod="reflect" cx="145.745" cy="134.633" fx="145.745" fy="134.633" r="12.001"/><radialGradient xlink:href="#a" id="P" gradientUnits="userSpaceOnUse" gradientTransform="matrix(.5243 0 0 .83413 52.13 11.727)" spreadMethod="reflect" cx="145.745" cy="134.633" fx="145.745" fy="134.633" r="12.001"/><radialGradient xlink:href="#a" id="Q" gradientUnits="userSpaceOnUse" gradientTransform="matrix(.5243 0 0 .83413 52.13 11.727)" spreadMethod="reflect" cx="145.745" cy="134.633" fx="145.745" fy="134.633" r="12.001"/><radialGradient xlink:href="#a" id="R" gradientUnits="userSpaceOnUse" gradientTransform="matrix(.5243 0 0 .83413 52.13 11.727)" spreadMethod="reflect" cx="145.745" cy="134.633" fx="145.745" fy="134.633" r="12.001"/><radialGradient xlink:href="#a" id="L" gradientUnits="userSpaceOnUse" gradientTransform="matrix(.5243 0 0 .83413 52.13 11.727)" spreadMethod="reflect" cx="145.745" cy="134.633" fx="145.745" fy="134.633" r="12.001"/><radialGradient xlink:href="#d" id="S" cx="128" cy="52" fx="128" fy="52" r="32" gradientTransform="matrix(1 0 0 .125 0 45.5)" gradientUnits="userSpaceOnUse"/><filter id="ab"><feGaussianBlur stdDeviation="2.301"/></filter><filter id="V" x="-.38" width="1.76" y="-.38" height="1.76"><feGaussianBlur stdDeviation="4.118"/></filter><linearGradient xlink:href="#m" id="E" x1="122" y1="178.364" x2="146.002" y2="178.364" gradientUnits="userSpaceOnUse"/><filter id="ak" x="-.325" width="1.651" y="-.325" height="1.651"><feGaussianBlur stdDeviation="5.763"/></filter><filter id="ae"><feGaussianBlur stdDeviation=".169"/></filter><filter id="ai" color-interpolation-filters="sRGB"><feGaussianBlur stdDeviation="4" result="result8"/><feOffset dx="4" dy="4" result="result11"/><feComposite in2="result11" result="result6" in="SourceGraphic" operator="in"/><feFlood result="result10" flood-opacity="1" flood-color="#000"/><feBlend in2="result10" in="result6" result="result12"/><feComposite in2="SourceGraphic" result="result2" operator="in"/></filter><linearGradient xlink:href="#m" id="F" gradientUnits="userSpaceOnUse" x1="122" y1="178.364" x2="146.002" y2="178.364"/><linearGradient xlink:href="#m" id="G" gradientUnits="userSpaceOnUse" x1="122" y1="178.364" x2="146.002" y2="178.364"/><linearGradient xlink:href="#m" id="H" gradientUnits="userSpaceOnUse" x1="122" y1="178.364" x2="146.002" y2="178.364"/><linearGradient xlink:href="#m" id="I" gradientUnits="userSpaceOnUse" x1="122" y1="178.364" x2="146.002" y2="178.364"/><linearGradient xlink:href="#m" id="J" gradientUnits="userSpaceOnUse" x1="122" y1="178.364" x2="146.002" y2="178.364"/><linearGradient xlink:href="#m" id="K" gradientUnits="userSpaceOnUse" x1="122" y1="178.364" x2="146.002" y2="178.364"/><radialGradient xlink:href="#c" id="T" gradientUnits="userSpaceOnUse" gradientTransform="matrix(-13.92324 6.36783 6.96158 9.55173 1112.25 -1272.926)" cx="131.863" cy="132.444" fx="131.863" fy="132.444" r="3.018"/><linearGradient xlink:href="#a" id="U" gradientUnits="userSpaceOnUse" x1="130.216" y1="126.269" x2="152.79" y2="123.635" gradientTransform="translate(-149.695 499.285) scale(2.46856)"/><radialGradient xlink:href="#b" id="w" gradientUnits="userSpaceOnUse" gradientTransform="matrix(4.97458 .05051 -.17406 17.14198 -402.258 -2269.485)" spreadMethod="reflect" cx="103.485" cy="186.946" fx="103.485" fy="186.946" r="14"/><radialGradient xlink:href="#c" id="u" gradientUnits="userSpaceOnUse" gradientTransform="matrix(15.63246 7.14955 -7.81619 10.7243 -847.133 -1530.435)" cx="131.863" cy="132.444" fx="131.863" fy="132.444" r="3.018"/><linearGradient xlink:href="#a" id="v" gradientUnits="userSpaceOnUse" x1="120.595" y1="131.687" x2="144.9" y2="123.585" gradientTransform="translate(-149.695 499.285) scale(2.46856)"/><radialGradient xlink:href="#e" id="s" gradientUnits="userSpaceOnUse" gradientTransform="matrix(2.55886 0 -.00001 5.69605 -155.64 31.97)" cx="137.122" cy="141.291" fx="137.122" fy="141.291" r="30"/><radialGradient xlink:href="#i" id="t" gradientUnits="userSpaceOnUse" gradientTransform="matrix(.07544 -5.90197 2.1738 .02779 -172.068 1670.787)" cx="142.084" cy="164.037" fx="143.152" fy="162.518" r="30.243"/><linearGradient xlink:href="#e" id="r" gradientUnits="userSpaceOnUse" x1="140.039" y1="123.585" x2="140.039" y2="138.168" gradientTransform="translate(-149.695 499.285) scale(2.46856)"/><radialGradient xlink:href="#a" id="p" gradientUnits="userSpaceOnUse" gradientTransform="matrix(6.11128 -1.63751 .6399 2.38816 -716.13 734.462)" cx="144.235" cy="125.586" fx="144.235" fy="125.586" r="21.813"/><radialGradient xlink:href="#a" id="q" gradientUnits="userSpaceOnUse" gradientTransform="matrix(3.71353 -.37145 .3444 3.44314 -362.453 419.08)" cx="134" cy="133.369" fx="134" fy="133.369" r="22.056"/><linearGradient xlink:href="#l" id="o" gradientUnits="userSpaceOnUse" x1="103.682" y1="141.647" x2="164.243" y2="141.647" gradientTransform="translate(-149.695 499.285) scale(2.46856)"/><linearGradient xlink:href="#f" id="W" gradientUnits="userSpaceOnUse" x1="260.35" y1="31.461" x2="360.819" y2="4.54"/><linearGradient xlink:href="#f" id="X" gradientUnits="userSpaceOnUse" x1="248.083" y1="35.049" x2="360.063" y2="5.045"/><radialGradient xlink:href="#n" id="Y" gradientUnits="userSpaceOnUse" cx="296" cy="0" fx="296" fy="0" r="28.48"/><linearGradient xlink:href="#f" id="Z" gradientUnits="userSpaceOnUse" x1="248.083" y1="35.049" x2="360.063" y2="5.045"/><radialGradient xlink:href="#f" id="aa" gradientUnits="userSpaceOnUse" gradientTransform="matrix(-.42094 1.57096 -2.71035 -.72624 420.597 -465.004)" cx="296" cy="0" fx="296" fy="0" r="29.532"/><radialGradient xlink:href="#f" id="ac" gradientUnits="userSpaceOnUse" gradientTransform="matrix(1.43856 1.48192 -1.50054 1.45663 -120.27 -438.175)" cx="293.119" cy=".812" fx="293.119" fy=".812" r="29.467"/><linearGradient xlink:href="#h" id="ad" gradientUnits="userSpaceOnUse" x1="267.25" y1="0" x2="324.75" y2="0"/><radialGradient xlink:href="#g" id="af" gradientUnits="userSpaceOnUse" cx="296" cy="0" fx="296" fy="0" r="29.532"/><radialGradient xlink:href="#j" id="ag" gradientUnits="userSpaceOnUse" gradientTransform="matrix(6.23462 1.15456 -1.94963 10.52795 -575.264 -7358.414)" cx="340.211" cy="760.172" fx="340.211" fy="760.172" r="13.5"/><linearGradient xlink:href="#k" id="ah" gradientUnits="userSpaceOnUse" gradientTransform="matrix(1.96522 0 0 1.96522 -593.174 -530.636)" x1="339.643" y1="765.768" x2="339.643" y2="725.589"/><linearGradient xlink:href="#k" id="aj" gradientUnits="userSpaceOnUse" gradientTransform="matrix(1.96522 0 0 1.96522 -593.174 -530.636)" x1="339.643" y1="765.768" x2="339.643" y2="725.589"/></defs><path fill="#221c24" d="M0 0h256v256H0z"/><path d="M111.536 845.073H251.52c2.252 0 3.629-1.989 3.629 2.433 0 0-.976 2.96-2.469 3.785-4.72 2.608-17.28 1.893-17.28 1.893H126.784s-12.56.715-17.28-1.893c-1.493-.825-2.469-3.785-2.469-3.785-.992-1.521 2.25-2.433 4.501-2.433z" fill="url(#o)" stroke="#999" stroke-width="1.2" stroke-linecap="round" stroke-linejoin="round" transform="translate(0 -796.362)"/><path d="M181.092 818.655c-27.72 0-50.539 8.587-53.846 19.717h107.691c-3.307-11.13-26.124-19.717-53.845-19.717z" fill="url(#p)" stroke="url(#q)" stroke-width="1.2" transform="translate(0 -796.362)"/><path d="M181.092 818.655c-27.72 0-50.539 8.587-53.846 19.717h107.691c-3.307-11.13-26.124-19.717-53.845-19.717z" fill="url(#r)" transform="translate(0 -796.362)"/><path d="M114.44 835.904h133.303c2.252 0 7.406 2.616 7.406 4.835V848.247H107.035V840.739c0-2.219 5.154-4.835 7.406-4.835z" fill="url(#s)" stroke="url(#t)" stroke-width="1.2" stroke-linecap="round" stroke-linejoin="round" transform="translate(0 -796.362)"/><path d="M184.964 818.74c-1.403.264-2.733.898-3.964 1.622-1.84 1.082-3.95 2.249-5 4h-9s-.17-.818 0-1.168c.74-1.532 4-3.17 4-3.17s1.287-.714 2-.791c8-.87 12.937-.496 12.937-.496l-.973.002z" fill="url(#u)" stroke="url(#v)" stroke-width="1.2" stroke-linecap="round" stroke-linejoin="round" transform="translate(0 -796.362)"/><path d="M165.456 850.129c10.544-.846 21.192-.866 31.735 0 6.216.51 18.46 3.055 18.46 3.055s-7.046 4.417-9.873 7.405c-2.04 2.156-4.938 7.406-4.938 7.406l-2.468 76.525v19.749l-2.469 29.623-12.637 37.028h-4.582l-12.403-37.028-2.469-29.623V944.52l-2.469-76.525s-2.898-5.25-4.937-7.406c-2.827-2.988-9.874-7.405-9.874-7.405s12.555-2.544 18.924-3.055z" fill="url(#w)" transform="translate(0 -796.362)"/><g transform="matrix(2.26283 0 0 2.46856 -122.127 -297.077)" fill="url(#x)"><path d="M142.063 148.431c-.562 3.306-4.51 4.37-7.063 5.931-2.346 1.433-6 2-8 2-.471 0-1-1-1-1v-2s-1.441.507-2 1c-.901.796-2 1.798-2 3s.94 2.433 2 3c1.176.63 2.684.214 4 0 3.121-.506 6.355-1.267 9-3 3.751-2.457 9.118-5.517 9-10-.014-.526-.797-.554-1.09-1" fill="url(#y)"/><path d="M141.534 177.62c.955 4.773-3.709 5.842-6.682 7.637-2.176 1.313-5.625 1.909-7.534 1.909-.45 0-.946-.955-.946-.955v-1.909s-1.39.495-1.917.955c-.885.77-1.91 1.716-1.91 2.863s.898 2.322 1.91 2.864c1.122.6 2.562.204 3.818 0 2.98-.484 6.066-1.21 8.59-2.864 3.582-2.345 8.704-5.266 8.591-9.545-.047-1.8-2.155-3.13-3.818-3.818" fill="url(#z)"/><path d="M141.91 167.03c1 5-3.814 6.125-6.91 8-2.306 1.395-6 2-8 2-.471 0-.778-1-.778-1l-.052-2s-1.574.496-2.17 1c-.94.793-2 1.797-2 3 0 1.201.94 2.432 2 3 1.176.628 2.684.213 4 0 3.121-.507 6.355-1.268 9-3 3.752-2.458 9.118-5.518 9-10-.05-1.886-2.258-3.28-4-4" fill="url(#A)"/><path d="M141.413 188.05c.223 2.312-3.699 5.693-6.595 7.5-1.89 1.179-4.909 1.875-6.545 1.875-.386 0-.818-.938-.818-.938l-.482-1.874s-.836.567-1.154.937c-.718.834-1.637 1.686-1.637 2.812 0 1.127.77 2.28 1.637 2.812.961.59 2.195.2 3.272 0 2.554-.474 5.2-1.188 7.364-2.812 3.069-2.303 7.169-5.527 7.363-9.374.073-1.448-.98-3.073-2.405-3.75" fill="url(#B)"/><path d="M142.241 156.696c1 5-4.063 6.123-7.241 8-2.324 1.372-6 2-8 2-.471 0-1-1-1-1v-2s-1.441.506-2 1c-.901.795-2 1.798-2 3s.94 2.433 2 3c1.176.629 2.684.213 4 0 3.121-.507 6.355-1.268 9-3 3.751-2.457 8.941-5.68 9-10 .023-1.695-1.68-3.279-3.421-4" fill="url(#C)"/><path d="M140.545 198.362c.608 3.512-3.073 5.105-5.588 6.726-1.389.895-3.643 1.405-4.857 1.405-.286 0-.607-.703-.607-.703l-.586-1.428s-.483.448-.629.726c-.53 1.01-.992 1.858-.824 3.274.391 1.167 2.202 2.06 3.273 2 1.895-.356 2.299-.44 3.273-1 3.091-1.777 5.454-2 7.636-7.19.638-1.516.196-4.303-.862-4.81" fill="url(#D)"/></g><g transform="matrix(2.26283 0 0 2.46856 -122.127 -297.077)" fill="url(#E)"><path d="M142.063 148.431c-.562 3.306-4.51 4.37-7.063 5.931-2.346 1.433-6 2-8 2-.471 0-1-1-1-1v-2s-1.441.507-2 1c-.901.796-2 1.798-2 3s.94 2.433 2 3c1.176.63 2.684.214 4 0 3.121-.506 6.355-1.267 9-3 3.751-2.457 9.118-5.517 9-10-.014-.526-.797-.554-1.09-1" fill="url(#F)"/><path d="M141.534 177.62c.955 4.773-3.709 5.842-6.682 7.637-2.176 1.313-5.625 1.909-7.534 1.909-.45 0-.946-.955-.946-.955v-1.909s-1.39.495-1.917.955c-.885.77-1.91 1.716-1.91 2.863s.898 2.322 1.91 2.864c1.122.6 2.562.204 3.818 0 2.98-.484 6.066-1.21 8.59-2.864 3.582-2.345 8.704-5.266 8.591-9.545-.047-1.8-2.155-3.13-3.818-3.818" fill="url(#G)"/><path d="M141.91 167.03c1 5-3.814 6.125-6.91 8-2.306 1.395-6 2-8 2-.471 0-.778-1-.778-1l-.052-2s-1.574.496-2.17 1c-.94.793-2 1.797-2 3 0 1.201.94 2.432 2 3 1.176.628 2.684.213 4 0 3.121-.507 6.355-1.268 9-3 3.752-2.458 9.118-5.518 9-10-.05-1.886-2.258-3.28-4-4" fill="url(#H)"/><path d="M141.413 188.05c.223 2.312-3.699 5.693-6.595 7.5-1.89 1.179-4.909 1.875-6.545 1.875-.386 0-.818-.938-.818-.938l-.482-1.874s-.836.567-1.154.937c-.718.834-1.637 1.686-1.637 2.812 0 1.127.77 2.28 1.637 2.812.961.59 2.195.2 3.272 0 2.554-.474 5.2-1.188 7.364-2.812 3.069-2.303 7.169-5.527 7.363-9.374.073-1.448-.98-3.073-2.405-3.75" fill="url(#I)"/><path d="M142.241 156.696c1 5-4.063 6.123-7.241 8-2.324 1.372-6 2-8 2-.471 0-1-1-1-1v-2s-1.441.506-2 1c-.901.795-2 1.798-2 3s.94 2.433 2 3c1.176.629 2.684.213 4 0 3.121-.507 6.355-1.268 9-3 3.751-2.457 8.941-5.68 9-10 .023-1.695-1.68-3.279-3.421-4" fill="url(#J)"/><path d="M140.545 198.362c.608 3.512-3.073 5.105-5.588 6.726-1.389.895-3.643 1.405-4.857 1.405-.286 0-.607-.703-.607-.703l-.586-1.428s-.483.448-.629.726c-.53 1.01-.992 1.858-.824 3.274.391 1.167 2.202 2.06 3.273 2 1.895-.356 2.299-.44 3.273-1 3.091-1.777 5.454-2 7.636-7.19.638-1.516.196-4.303-.862-4.81" fill="url(#K)"/></g><g transform="matrix(2.26283 0 0 2.46856 -121.922 -299.16)" opacity=".281" fill="url(#L)"><path d="M142.063 148.431c-.562 3.306-4.51 4.37-7.063 5.931-2.346 1.433-6 2-8 2-.471 0-1-1-1-1v-2s-1.441.507-2 1c-.901.796-2 1.798-2 3s.94 2.433 2 3c1.176.63 2.684.214 4 0 3.121-.506 6.355-1.267 9-3 3.751-2.457 9.118-5.517 9-10-.014-.526-.797-.554-1.09-1" fill="url(#M)"/><path d="M141.534 177.62c.955 4.773-3.709 5.842-6.682 7.637-2.176 1.313-5.625 1.909-7.534 1.909-.45 0-.946-.955-.946-.955v-1.909s-1.39.495-1.917.955c-.885.77-1.91 1.716-1.91 2.863s.898 2.322 1.91 2.864c1.122.6 2.562.204 3.818 0 2.98-.484 6.066-1.21 8.59-2.864 3.582-2.345 8.704-5.266 8.591-9.545-.047-1.8-2.155-3.13-3.818-3.818" fill="url(#N)"/><path d="M141.91 167.03c1 5-3.814 6.125-6.91 8-2.306 1.395-6 2-8 2-.471 0-.778-1-.778-1l-.052-2s-1.574.496-2.17 1c-.94.793-2 1.797-2 3 0 1.201.94 2.432 2 3 1.176.628 2.684.213 4 0 3.121-.507 6.355-1.268 9-3 3.752-2.458 9.118-5.518 9-10-.05-1.886-2.258-3.28-4-4" fill="url(#O)"/><path d="M141.413 188.05c.223 2.312-3.699 5.693-6.595 7.5-1.89 1.179-4.909 1.875-6.545 1.875-.386 0-.818-.938-.818-.938l-.482-1.874s-.836.567-1.154.937c-.718.834-1.637 1.686-1.637 2.812 0 1.127.77 2.28 1.637 2.812.961.59 2.195.2 3.272 0 2.554-.474 5.2-1.188 7.364-2.812 3.069-2.303 7.169-5.527 7.363-9.374.073-1.448-.98-3.073-2.405-3.75" fill="url(#P)"/><path d="M142.241 156.696c1 5-4.063 6.123-7.241 8-2.324 1.372-6 2-8 2-.471 0-1-1-1-1v-2s-1.441.506-2 1c-.901.795-2 1.798-2 3s.94 2.433 2 3c1.176.629 2.684.213 4 0 3.121-.507 6.355-1.268 9-3 3.751-2.457 8.941-5.68 9-10 .023-1.695-1.68-3.279-3.421-4" fill="url(#Q)"/><path d="M140.545 198.362c.608 3.512-3.073 5.105-5.588 6.726-1.389.895-3.643 1.405-4.857 1.405-.286 0-.607-.703-.607-.703l-.586-1.428s-.483.448-.629.726c-.53 1.01-.992 1.858-.824 3.274.391 1.167 2.202 2.06 3.273 2 1.895-.356 2.299-.44 3.273-1 3.091-1.777 5.454-2 7.636-7.19.638-1.516.196-4.303-.862-4.81" fill="url(#R)"/></g><path d="M160 52a32 4 0 1 1-.173-.415" transform="matrix(.85119 0 0 2.34077 72.048 -57.75)" opacity=".516" fill="url(#S)"/><path d="M203 822.362l5-.646s-1.984-.592-3-.782c-6.267-1.169-16.253-2.044-19-2.178 6.362.363 12 .606 17 3.606z" fill="url(#T)" stroke="url(#U)" stroke-width="1.2" stroke-linecap="round" stroke-linejoin="round" transform="translate(0 -796.362)"/><path transform="matrix(.37143 0 0 .37143 211.714 -330.996)" d="M335.906 727.375a1 1 0 0 0-.906 1v7h-7a1 1 0 0 0-1 1v8a1 1 0 0 0 1 1h7v7a1 1 0 0 0 1 1h8a1 1 0 0 0 1-1v-7h7a1 1 0 0 0 1-1v-8a1 1 0 0 0-1-1h-7v-7a1 1 0 0 0-1-1h-8a1 1 0 0 0-.094 0z" opacity=".756" fill="#f2f2f2" stroke="#fff" stroke-width="1.315" filter="url(#V)"/><g><path transform="matrix(-2.6087 0 0 -2.6087 847.174 160.262)" d="M324.25 0c0 15.602-12.648 28.25-28.25 28.25S267.75 15.602 267.75 0 280.398-28.25 296-28.25 324.25-15.602 324.25 0z" fill="url(#W)" stroke="url(#X)" stroke-width=".46" stroke-linecap="round" stroke-linejoin="round"/><path d="M324.25 0c0 15.602-12.648 28.25-28.25 28.25S267.75 15.602 267.75 0 280.398-28.25 296-28.25 324.25-15.602 324.25 0z" transform="matrix(-2.6087 0 0 -2.6087 847.174 160.262)" opacity=".595" fill="url(#Y)" stroke="url(#Z)" stroke-width=".46" stroke-linecap="round" stroke-linejoin="round"/><path transform="matrix(0 2.08696 -2.08696 0 75 -457.477)" d="M324.25 0c0 15.602-12.648 28.25-28.25 28.25S267.75 15.602 267.75 0 280.398-28.25 296-28.25 324.25-15.602 324.25 0z" fill="url(#aa)" filter="url(#ab)"/><path transform="matrix(0 1.91304 -1.91304 0 75 -405.999)" d="M324.25 0c0 15.602-12.648 28.25-28.25 28.25S267.75 15.602 267.75 0 280.398-28.25 296-28.25 324.25-15.602 324.25 0z" opacity=".5" fill="url(#ac)" stroke="url(#ad)" stroke-width=".627" filter="url(#ae)"/><path d="M324.25 0c0 15.602-12.648 28.25-28.25 28.25S267.75 15.602 267.75 0 280.398-28.25 296-28.25 324.25-15.602 324.25 0z" transform="matrix(0 1.91304 -1.91304 0 75 -405.999)" opacity=".5" fill="url(#af)"/><path d="M72 903.125c-.656-.007-1.257.594-1.25 1.25V913.594c.18 5.55-1.234 5.531-5.531 5.531H56c-.656-.007-1.257.594-1.25 1.25v8c-.007.656.594 1.257 1.25 1.25H65.219c5.55-.18 5.531 1.234 5.531 5.531V944.375c-.007.656.594 1.257 1.25 1.25h8c.656.007 1.257-.594 1.25-1.25V935.156c-.18-5.55 1.234-5.531 5.531-5.531H96c.656.007 1.257-.594 1.25-1.25v-8c.007-.656-.594-1.257-1.25-1.25H86.781c-5.55.18-5.531-1.234-5.531-5.531V904.375c.007-.656-.594-1.257-1.25-1.25z" transform="matrix(1.2 0 0 1.2 -16.2 -948.987)" opacity=".655" fill="url(#ag)" stroke="url(#ah)" stroke-width="1.2" filter="url(#ai)"/><path d="M72 903.125a1.238 1.238 0 0 0-1.25 1.25v14.75H56a1.238 1.238 0 0 0-1.25 1.25v8a1.238 1.238 0 0 0 1.25 1.25h14.75v14.75a1.238 1.238 0 0 0 1.25 1.25h8a1.238 1.238 0 0 0 1.25-1.25v-14.75H96a1.238 1.238 0 0 0 1.25-1.25v-8a1.238 1.238 0 0 0-1.25-1.25H81.25v-14.75a1.238 1.238 0 0 0-1.25-1.25h-8z" transform="matrix(.45 0 0 .45 40.8 -255.706)" opacity=".797" fill="#fff" stroke="url(#aj)" stroke-width="1.2" filter="url(#ak)"/></g></svg>