<svg xmlns="http://www.w3.org/2000/svg" xmlns:xlink="http://www.w3.org/1999/xlink" width="512" height="280"><defs><linearGradient id="a"><stop offset="0" stop-color="#4d4d4d"/><stop offset="1" stop-color="#4d4d4d" stop-opacity="0"/></linearGradient><linearGradient xlink:href="#a" id="b" gradientUnits="userSpaceOnUse" gradientTransform="matrix(.97916 0 0 .97916 8.445 -.695)" x1="229.923" y1="7.166" x2="327.542" y2="7.166"/><linearGradient xlink:href="#a" id="c" gradientUnits="userSpaceOnUse" gradientTransform="matrix(.97916 0 0 .97916 8.445 -.695)" x1="92.781" y1="7.166" x2="199.675" y2="7.166"/></defs><path d="M99.776 180.59c5.91 3.411 7.933 10.965 4.521 16.874-3.412 5.91-10.965 7.933-16.874 4.522a12.405 12.405 0 0 1-2.486-1.878 12.362 12.362 0 0 0 13.995-5.742 12.362 12.362 0 0 0-2.025-14.99c.982.273 1.945.68 2.869 1.214z" fill="olive" stroke="#1a1a1a" stroke-width="1.00015605" stroke-linecap="round" stroke-linejoin="round"/><path d="M478.753 121.916l27.638 49.45H171.518v-49.45z" fill="#b3b3b3" stroke="#1a1a1a" stroke-width="1.00015605" stroke-linecap="round" stroke-linejoin="round"/><path d="M501.84 165.186l4.553 6.184H171.512v-6.184H501.84z" fill="#e6e6e6" stroke="#1a1a1a" stroke-width="1.00015605" stroke-linecap="round" stroke-linejoin="round"/><g fill="none" stroke="#1a1a1a" stroke-width="1.833" stroke-linecap="round" stroke-linejoin="round"><path d="M378.593 123.376l24.099 41.741M410.713 123.376l24.1 41.741M346.473 123.376l24.099 41.741M314.352 123.376l24.1 41.741M282.232 123.376l24.099 41.741M250.112 123.376l24.099 41.741M185.87 123.376l24.1 41.741M442.834 123.376l24.099 41.741M217.991 123.376l24.1 41.741" stroke-width=".93818439"/></g><g stroke="#1a1a1a" stroke-width="1.833" stroke-linecap="round" stroke-linejoin="round"><path d="M343.48 190.924h-9.437l-10.114-8.453h9.438z" fill="#8c8c00" stroke-width="1.0000481399999999"/><path d="M365.442 182.47l-10.114 8.454h-17.7l-10.115-8.453z" fill="#ff0" stroke-width="1.0000481399999999"/></g><path d="M167.654 113.754H46.847v59.234h120.807z" fill="olive" stroke="#1a1a1a" stroke-width="1.00015605" stroke-linecap="round" stroke-linejoin="round"/><g stroke="#1a1a1a" stroke-width="1.833" stroke-linecap="round" stroke-linejoin="round"><path d="M444.438 119.492l5.797 21.84h-31.984l4.194-21.84zm6.633 24.824l-10.11 29.938h-45.948l4.518-9.019 14.56-1.398 4.16-4.688v-14.833z" fill="#e6e6e6" stroke-width="1.0000481399999999"/><path d="M444.438 119.485h2.445l5.79 21.845h-2.445zM451.073 144.312h2.445l-10.107 29.948h-2.445z" fill="#666" stroke-width="1.0000481399999999"/></g><path d="M415.354 116.82l-3.587 10.644H64.413V116.82zm-16.31 48.366l-3.588 10.644H64.413v-10.644z" fill="#bdbd00" stroke="#1a1a1a" stroke-width="1.00015605" stroke-linecap="round" stroke-linejoin="round"/><path d="M413.867 103.446l13.35 6.547v5.524l-6.121 11.457H344.68l-1.756-1.45-.665-1.176-1.194-2.114-1.449-.528-.818-.307-1.432.528-.819.307-1.193 2.063-.665 1.16-2.012 1.67-.938.768-1.159-.75-2.029-1.62-.682-1.177-1.193-2.114-1.45-.528-.8-.307-2.251.835-1.194 2.063-.665 1.16-2.011 1.67-.921.75-1.176-.733-2.046-1.62-.665-1.176-1.194-2.114-1.449-.528-.801-.307-1.45.528-.8.307-1.194 2.063-.665 1.16-2.012 1.67-.904.717-1.193-.7-2.046-1.62-.665-1.176-1.193-2.114-1.45-.528-.818-.307-.801.307-1.45.528-1.193 2.063-.665 1.16-2.011 1.67-.853.7-1.245-.683-2.028-1.62-.682-1.176-1.194-2.114-1.449-.528-.801-.307-1.45.528-.8.307-1.194 2.063-.665 1.16-2.012 1.67-.835.682-1.262-.665-2.046-1.62-.665-1.176-1.193-2.114-1.45-.528-.8-.307-.82.307-1.431.528-1.194 2.063-.665 1.16-2.012 1.67-.818.665-1.279-.648-2.045-1.62-.665-1.176-1.194-2.114-1.449-.528-.597-.222-1.023.222-1.449.528-1.193 2.063-.665 1.16-2.012 1.67-.784.631-1.313-.614-2.029-1.62-.682-1.176-1.193-2.114-.819-.307-.63-.221-.802-.307-.801.307-.938.34-1.705 2.251-.665 1.16-2.012 1.67-.767.614h-.562l-.768-.597-2.046-1.62-.664-1.176-1.109-1.96-1.534-.682-.801-.307-.819.307-1.62.852-1.005 1.74-.665 1.159-2.012 1.67-.733.597h-.614l-.75-.58-2.046-1.62-.665-1.176-.835-1.466-.358-.648-1.45-.528-.818-.307-.801.307-1.45.528-.477.819-.716 1.244-.665 1.16-2.012 1.67-.699.58h-.665l-.733-.563-2.029-1.62-.682-1.176-.545-.988-.648-1.126-1.45-.528-.8-.307-.802.307-1.449.528-.767 1.33-.427.733-.664 1.16-2.012 1.67-.682.546-.716.017-.7-.546-2.045-1.62-.665-1.176-.426-.75-.768-1.364-.937-.34-1.313-.495-.818.307-.904.324-1.722 2.267-.665 1.16-2.012 1.67-.665.529-.767.017-.665-.529-2.046-1.62-.665-1.176-1.04-1.824-1.602-.818-.819-.307-.801.307-1.45.528-.306.546-1.023 1.79-.528.887-2.012 1.67-.631.512-.818.017-.648-.512-2.03-1.62-.408-.715-.904-1.603-.563-.972-1.449-.528-.801-.307-.801.307-1.45.528-.716 1.262-.75 1.279-.392.682-2.012 1.67-.614.495h-.87l-.613-.478-2.046-1.62-.29-.51-.375-.666-1.193-2.114-1.45-.528-.8-.307-1.45.528-.801.307-1.194 2.063-.665 1.16-2.011 1.67-.58.46-.92.018-.597-.46-1.74-1.382-.852-1.193-1.313-2.336-1.449-.528-.818-.307-1.432.528-.819.307-1.193 2.063-.358.631-.307.529-.75.63-1.262 1.04-.545.444-.972.017-.58-.444-1.142-.903-.887-.716-.665-1.177-1.21-2.114-1.45-.528-.8-.307-.802.307-1.45.528-1.193 2.063-.665 1.16-.971.8-1.04.87-.529.427-1.023.017-.546-.427-.545-.443-1.006-.784-.494-.392-.665-1.177-1.194-2.114-1.449-.528-.801-.307-1.45.528-.8.307-1.194 2.063-.665 1.16-1.125.937-.46.358-.938.784-1.075.017-.46-.375-.784-.613-1.313-1.04-.665-1.177-1.193-2.114-1.45-.528-.818-.307-1.432.528-.818.307-1.194 2.063-.665 1.16-2.012 1.67-.477.392h-1.125l-.495-.375-2.028-1.62-.665-1.176-1.21-2.114-1.45-.528-.494-18.26zm-81.751 61.684l.596.495 2.03 1.67.681 1.194 1.194 2.114 1.449.529.801.29 1.45-.53.8-.289 1.194-2.08.665-1.16 2.012-1.653.187-.154H400.5l-10.928 20.494s-135.117-6.008-202.273 0c-47.063 3.753-84.08 21.488-121.373 51.113v-65.827l1.193-.443.818-.29 1.177-2.046.682-1.193.733-.631.784-.682.63-.529.461-.392h.904l.63.512 1.313 1.09.682.563.938 1.654.938 1.654 1.449.529.801.29 1.45-.53.8-.289 1.194-2.08.665-1.16 1.143-.988.87-.733.596-.512h.903l.597.495 1.262 1.023.784.647.665 1.194.614 1.074.58 1.04 1.449.529.818.29.801-.29 1.432-.529 1.194-2.08.818-1.279 1.876-1.602.58-.512h.92l.58.495 2.045 1.67.665 1.194 1.211 2.114 2.25.818 1.433-.528.818-.29 1.193-2.08.665-1.16 2.012-1.721.597-.512h.903l.597.495 2.029 1.67.682 1.194 1.193 2.114 1.45.529.801.29.818-.29 1.432-.529 1.194-2.08.665-1.16 2.012-1.721.596-.512h.904l.597.495 2.046 1.67.665 1.194 1.193 2.114 1.45.529.818.29 1.432-.53.801-.289.392-.665.801-1.415.682-1.16 2.012-1.721.58-.512h.92l.58.495 2.046 1.67.665 1.194 1.21 2.114 1.433.529.818.29 1.705-.614.546-.205 1.193-2.08.665-1.16 2.012-1.721.596-.512h.904l.597.495 2.029 1.67.682 1.194 1.193 2.114 1.45.529.8.29 1.45-.53.801-.289 1.194-2.08.664-1.16 2.012-1.721.597-.512h.904l.596.495 2.046 1.67.665 1.194 1.194 2.114 1.449.529.818.29 1.432-.53.802-.289 1.193-2.08.682-1.16 2.012-1.721.58-.512h.92l.58.495 2.046 1.67.665 1.194 1.21 2.114 1.432.529.819.29 1.432-.53.818-.289 1.194-2.08.665-1.16 2.011-1.721.597-.512h.904l.596.495 2.03 1.67.681 1.194 1.194 2.114 1.449.529.801.29 1.45-.53.8-.289 1.194-2.08.665-1.16 2.012-1.721.597-.512h.903l.597.495 2.046 1.67.665 1.194 1.193 2.114 1.45.529.818.29 1.432-.53.801-.289 1.194-2.08.682-1.16 2.011-1.721.58-.512h.92l.58.495 2.046 1.67.665 1.194 1.21 2.114 1.433.529.818.29 1.432-.53.819-.289 1.193-2.08.665-1.16 2.012-1.721.597-.512h.903l.597.495 2.029 1.67.682 1.194 1.193 2.114 1.45.529.8.29 1.45-.53.801-.289 1.194-2.08.665-1.16 2.012-1.721.596-.512h.904l.597.495 2.045 1.67.665 1.194 1.194 2.114 1.449.529.818.29 1.433-.53.8-.289 1.194-2.08.682-1.16 2.012-1.721.58-.512h.92l.58.495 2.046 1.67.665 1.194 1.193 2.114 1.45.529.818.29 1.432-.53.818-.289 1.194-2.08.665-1.16 2.012-1.721.596-.512h.904l.597.495 2.028 1.67.682 1.194 1.194 2.114 1.45.529.8.29 1.45-.53.8-.289 1.194-2.08.665-1.16 2.012-1.721.597-.512h.903l.597.495 2.046 1.67.665 1.194 1.193 2.114 1.45.529.818.29.801-.29 1.432-.529 1.194-2.08.682-1.16 2.012-1.721.58-.512h.92l.58.495 2.046 1.67.665 1.194 1.193 2.114 1.45.529.817.29 1.433-.53.818-.289 1.193-2.08.665-1.16 2.012-1.721.597-.512zm-238.502 14.1c-6.672 0-12.088 5.399-12.088 12.07 0 6.673 5.416 12.089 12.088 12.089 6.671 0 12.07-5.416 12.07-12.088 0-6.672-5.399-12.071-12.07-12.071z" fill="#ff0" stroke="#1a1a1a" stroke-width="1.00015605" stroke-linecap="round" stroke-linejoin="round"/><path d="M65.838 103.499v133.548c-91.573-9.326-68.197-113.475 0-133.548z" stroke="#1a1a1a" stroke-width="1.00015605" stroke-linecap="round" stroke-linejoin="round"/><path d="M210.124 132.235l-4.17-4.677h-57.937v37.414h57.936l4.171-4.677v-28.06z" fill="#1a1a1a"/><path d="M152.195 132.247v5.096h-15.652l-2.642 2.229v13.386l2.642 2.23h15.652v5.096H94.26l-4.177-3.504v-21.03l4.177-3.503h57.934z" stroke="#1a1a1a" stroke-width="1.00015605" stroke-linecap="round" stroke-linejoin="round"/><path d="M152.195 127.562v6.799h-15.652l-2.642 2.974v17.86l2.642 2.974h15.652v6.8H94.26l-4.177-4.675v-28.058l4.177-4.674h57.934z" fill="#1a1a1a"/><path d="M243.553-21.814h14.076c5.526 0 9.976 4.547 9.976 10.196v35.88c0 5.648-4.45 10.196-9.976 10.196h-14.076c-5.526 0-9.975-4.548-9.975-10.196v-35.88c0-5.649 4.449-10.196 9.975-10.196z" fill="url(#b)" stroke="#1a1a1a" stroke-width="1.795" stroke-linecap="round" stroke-linejoin="round" transform="matrix(-.55719 0 0 .55719 241.838 142.955)"/><path d="M112.549-21.814h18.704c7.344 0 13.257 4.547 13.257 10.196v35.88c0 5.648-5.913 10.196-13.257 10.196H112.55c-7.344 0-13.257-4.548-13.257-10.196v-35.88c0-5.649 5.913-10.196 13.257-10.196z" fill="url(#c)" stroke="#1a1a1a" stroke-width="1.795" stroke-linejoin="round" transform="matrix(-.55719 0 0 .55719 241.838 142.955)"/><path d="M207.228 127.575l4.16 4.683v28.014l-4.16 4.683h-1.663l3.904-4.683v-28.014l-3.904-4.683h1.663zm-55.762 0v37.38h-1.919v-37.38h1.919z"/><path d="M134.181 128.427h-3.507v36.1h3.507z" stroke="#1a1a1a" stroke-width="1.00015605" stroke-linejoin="round"/><path d="M133.327.978l-16.35 16.349L239.652 140 116.978 262.673l16.349 16.35L256 156.348l122.658 122.673 16.364-16.349L272.35 140 395.022 17.327 378.658.977 256 123.652 133.327.978z" fill="red" stroke="#333" stroke-width=".55719"/></svg>