<svg xmlns="http://www.w3.org/2000/svg" xmlns:xlink="http://www.w3.org/1999/xlink" width="549.505" height="319.18"><defs><linearGradient id="a"><stop offset="0" stop-color="#fff"/><stop offset=".5" stop-color="#b82a9b"/><stop offset="1" stop-color="#2b0022"/></linearGradient><radialGradient xlink:href="#a" id="I" gradientUnits="userSpaceOnUse" gradientTransform="matrix(.69845 0 0 1.95845 1005.189 -61.611)" spreadMethod="reflect" cx="153.324" cy="83.256" fx="153.324" fy="83.256" r="129.516"/><linearGradient xlink:href="#a" id="J" gradientUnits="userSpaceOnUse" gradientTransform="matrix(0 -.90387 .90387 0 947.78 13.598)" spreadMethod="reflect" x1="-67.052" y1="186.648" x2="239.428" y2="276.272"/><radialGradient xlink:href="#a" id="K" gradientUnits="userSpaceOnUse" gradientTransform="rotate(45 881.815 1171.418) scale(2.14984 .74331)" spreadMethod="reflect" cx="81.429" cy="186.648" fx="81.429" fy="186.648" r="148.48"/><radialGradient xlink:href="#a" id="L" gradientUnits="userSpaceOnUse" gradientTransform="matrix(0 3.08506 -.77952 0 1106.831 -499.402)" spreadMethod="reflect" cx="171.638" cy="-12.402" fx="171.638" fy="-12.402" r="134.207"/><radialGradient xlink:href="#a" id="M" gradientUnits="userSpaceOnUse" gradientTransform="rotate(45 621.084 1136.429) scale(1.47938 .68369)" spreadMethod="reflect" cx="153.337" cy="69.498" fx="153.337" fy="69.498" r="127.578"/><radialGradient xlink:href="#a" id="N" gradientUnits="userSpaceOnUse" gradientTransform="matrix(0 3.08506 -.77952 0 1106.831 -499.402)" spreadMethod="reflect" cx="171.638" cy="-12.402" fx="171.638" fy="-12.402" r="134.207"/><radialGradient xlink:href="#a" id="O" gradientUnits="userSpaceOnUse" gradientTransform="rotate(45 590.538 1203.777) scale(1.47938 .68369)" spreadMethod="reflect" cx="153.337" cy="149.498" fx="153.337" fy="149.498" r="127.578"/><radialGradient xlink:href="#a" id="P" gradientUnits="userSpaceOnUse" gradientTransform="matrix(0 3.08506 -.77952 0 1106.831 -499.402)" spreadMethod="reflect" cx="171.638" cy="-12.402" fx="171.638" fy="-12.402" r="134.207"/><radialGradient xlink:href="#a" id="Q" gradientUnits="userSpaceOnUse" gradientTransform="matrix(1.04608 1.04608 -.48344 .48344 946.812 -147.642)" spreadMethod="reflect" cx="153.337" cy="-10.502" fx="153.337" fy="-10.502" r="127.578"/><radialGradient xlink:href="#a" id="R" gradientUnits="userSpaceOnUse" gradientTransform="matrix(0 3.08506 -.77952 0 1106.831 -499.402)" spreadMethod="reflect" cx="171.638" cy="-12.402" fx="171.638" fy="-12.402" r="134.207"/><radialGradient xlink:href="#a" id="S" gradientUnits="userSpaceOnUse" gradientTransform="matrix(1.04608 1.04608 -.48344 .48344 1062.838 -23.669)" spreadMethod="reflect" cx="153.337" cy="229.498" fx="153.337" fy="229.498" r="127.578"/><radialGradient xlink:href="#a" id="b" gradientUnits="userSpaceOnUse" gradientTransform="matrix(.69845 0 0 1.95845 46.234 -79.797)" spreadMethod="reflect" cx="153.324" cy="83.256" fx="153.324" fy="83.256" r="129.516"/><linearGradient xlink:href="#a" id="c" gradientUnits="userSpaceOnUse" gradientTransform="matrix(0 -.90387 .90387 0 -11.175 -4.587)" spreadMethod="reflect" x1="-67.052" y1="186.648" x2="239.428" y2="276.272"/><radialGradient xlink:href="#a" id="d" gradientUnits="userSpaceOnUse" gradientTransform="rotate(45 424.288 4.766) scale(2.14984 .74331)" spreadMethod="reflect" cx="81.429" cy="186.648" fx="81.429" fy="186.648" r="148.48"/><radialGradient xlink:href="#a" id="e" gradientUnits="userSpaceOnUse" gradientTransform="matrix(0 3.08506 -.77952 0 147.877 -517.587)" spreadMethod="reflect" cx="171.638" cy="-12.402" fx="171.638" fy="-12.402" r="134.207"/><radialGradient xlink:href="#a" id="f" gradientUnits="userSpaceOnUse" gradientTransform="rotate(45 163.555 -30.224) scale(1.47938 .68369)" spreadMethod="reflect" cx="153.337" cy="69.498" fx="153.337" fy="69.498" r="127.578"/><radialGradient xlink:href="#a" id="g" gradientUnits="userSpaceOnUse" gradientTransform="matrix(0 3.08506 -.77952 0 147.877 -517.587)" spreadMethod="reflect" cx="171.638" cy="-12.402" fx="171.638" fy="-12.402" r="134.207"/><radialGradient xlink:href="#a" id="h" gradientUnits="userSpaceOnUse" gradientTransform="rotate(45 133.01 37.124) scale(1.47938 .68369)" spreadMethod="reflect" cx="153.337" cy="149.498" fx="153.337" fy="149.498" r="127.578"/><radialGradient xlink:href="#a" id="i" gradientUnits="userSpaceOnUse" gradientTransform="matrix(0 3.08506 -.77952 0 147.877 -517.587)" spreadMethod="reflect" cx="171.638" cy="-12.402" fx="171.638" fy="-12.402" r="134.207"/><radialGradient xlink:href="#a" id="j" gradientUnits="userSpaceOnUse" gradientTransform="matrix(1.04608 1.04608 -.48344 .48344 -12.143 -165.828)" spreadMethod="reflect" cx="153.337" cy="-10.502" fx="153.337" fy="-10.502" r="127.578"/><radialGradient xlink:href="#a" id="k" gradientUnits="userSpaceOnUse" gradientTransform="matrix(0 3.08506 -.77952 0 147.877 -517.587)" spreadMethod="reflect" cx="171.638" cy="-12.402" fx="171.638" fy="-12.402" r="134.207"/><radialGradient xlink:href="#a" id="l" gradientUnits="userSpaceOnUse" gradientTransform="matrix(1.04608 1.04608 -.48344 .48344 103.884 -41.854)" spreadMethod="reflect" cx="153.337" cy="229.498" fx="153.337" fy="229.498" r="127.578"/><radialGradient xlink:href="#a" id="m" gradientUnits="userSpaceOnUse" gradientTransform="matrix(.69845 0 0 1.95845 452.316 -53.533)" spreadMethod="reflect" cx="153.324" cy="83.256" fx="153.324" fy="83.256" r="129.516"/><linearGradient xlink:href="#a" id="n" gradientUnits="userSpaceOnUse" gradientTransform="matrix(0 -.90387 .90387 0 394.906 21.676)" spreadMethod="reflect" x1="-67.052" y1="186.648" x2="239.428" y2="276.272"/><radialGradient xlink:href="#a" id="o" gradientUnits="userSpaceOnUse" gradientTransform="rotate(45 595.626 508.081) scale(2.14984 .74331)" spreadMethod="reflect" cx="81.429" cy="186.648" fx="81.429" fy="186.648" r="148.48"/><radialGradient xlink:href="#a" id="p" gradientUnits="userSpaceOnUse" gradientTransform="matrix(0 3.08506 -.77952 0 553.958 -491.323)" spreadMethod="reflect" cx="171.638" cy="-12.402" fx="171.638" fy="-12.402" r="134.207"/><radialGradient xlink:href="#a" id="q" gradientUnits="userSpaceOnUse" gradientTransform="rotate(45 334.894 473.091) scale(1.47938 .68369)" spreadMethod="reflect" cx="153.337" cy="69.498" fx="153.337" fy="69.498" r="127.578"/><radialGradient xlink:href="#a" id="r" gradientUnits="userSpaceOnUse" gradientTransform="matrix(0 3.08506 -.77952 0 553.958 -491.323)" spreadMethod="reflect" cx="171.638" cy="-12.402" fx="171.638" fy="-12.402" r="134.207"/><radialGradient xlink:href="#a" id="s" gradientUnits="userSpaceOnUse" gradientTransform="rotate(45 304.348 540.44) scale(1.47938 .68369)" spreadMethod="reflect" cx="153.337" cy="149.498" fx="153.337" fy="149.498" r="127.578"/><radialGradient xlink:href="#a" id="t" gradientUnits="userSpaceOnUse" gradientTransform="matrix(0 3.08506 -.77952 0 553.958 -491.323)" spreadMethod="reflect" cx="171.638" cy="-12.402" fx="171.638" fy="-12.402" r="134.207"/><radialGradient xlink:href="#a" id="u" gradientUnits="userSpaceOnUse" gradientTransform="matrix(1.04608 1.04608 -.48344 .48344 393.939 -139.564)" spreadMethod="reflect" cx="153.337" cy="-10.502" fx="153.337" fy="-10.502" r="127.578"/><radialGradient xlink:href="#a" id="v" gradientUnits="userSpaceOnUse" gradientTransform="matrix(0 3.08506 -.77952 0 553.958 -491.323)" spreadMethod="reflect" cx="171.638" cy="-12.402" fx="171.638" fy="-12.402" r="134.207"/><radialGradient xlink:href="#a" id="w" gradientUnits="userSpaceOnUse" gradientTransform="matrix(1.04608 1.04608 -.48344 .48344 509.965 -15.59)" spreadMethod="reflect" cx="153.337" cy="229.498" fx="153.337" fy="229.498" r="127.578"/><radialGradient xlink:href="#a" id="x" gradientUnits="userSpaceOnUse" gradientTransform="matrix(.69845 0 0 1.95845 46.234 -79.797)" spreadMethod="reflect" cx="153.324" cy="83.256" fx="153.324" fy="83.256" r="129.516"/><linearGradient xlink:href="#a" id="y" gradientUnits="userSpaceOnUse" gradientTransform="matrix(0 -.90387 .90387 0 -11.175 -4.587)" spreadMethod="reflect" x1="-67.052" y1="186.648" x2="239.428" y2="276.272"/><radialGradient xlink:href="#a" id="z" gradientUnits="userSpaceOnUse" gradientTransform="rotate(45 424.288 4.766) scale(2.14984 .74331)" spreadMethod="reflect" cx="81.429" cy="186.648" fx="81.429" fy="186.648" r="148.48"/><radialGradient xlink:href="#a" id="A" gradientUnits="userSpaceOnUse" gradientTransform="matrix(0 3.08506 -.77952 0 147.877 -517.587)" spreadMethod="reflect" cx="171.638" cy="-12.402" fx="171.638" fy="-12.402" r="134.207"/><radialGradient xlink:href="#a" id="B" gradientUnits="userSpaceOnUse" gradientTransform="rotate(45 163.555 -30.224) scale(1.47938 .68369)" spreadMethod="reflect" cx="153.337" cy="69.498" fx="153.337" fy="69.498" r="127.578"/><radialGradient xlink:href="#a" id="C" gradientUnits="userSpaceOnUse" gradientTransform="matrix(0 3.08506 -.77952 0 147.877 -517.587)" spreadMethod="reflect" cx="171.638" cy="-12.402" fx="171.638" fy="-12.402" r="134.207"/><radialGradient xlink:href="#a" id="D" gradientUnits="userSpaceOnUse" gradientTransform="rotate(45 133.01 37.124) scale(1.47938 .68369)" spreadMethod="reflect" cx="153.337" cy="149.498" fx="153.337" fy="149.498" r="127.578"/><radialGradient xlink:href="#a" id="E" gradientUnits="userSpaceOnUse" gradientTransform="matrix(0 3.08506 -.77952 0 147.877 -517.587)" spreadMethod="reflect" cx="171.638" cy="-12.402" fx="171.638" fy="-12.402" r="134.207"/><radialGradient xlink:href="#a" id="F" gradientUnits="userSpaceOnUse" gradientTransform="matrix(1.04608 1.04608 -.48344 .48344 -12.143 -165.828)" spreadMethod="reflect" cx="153.337" cy="-10.502" fx="153.337" fy="-10.502" r="127.578"/><radialGradient xlink:href="#a" id="G" gradientUnits="userSpaceOnUse" gradientTransform="matrix(0 3.08506 -.77952 0 147.877 -517.587)" spreadMethod="reflect" cx="171.638" cy="-12.402" fx="171.638" fy="-12.402" r="134.207"/><radialGradient xlink:href="#a" id="H" gradientUnits="userSpaceOnUse" gradientTransform="matrix(1.04608 1.04608 -.48344 .48344 103.884 -41.854)" spreadMethod="reflect" cx="153.337" cy="229.498" fx="153.337" fy="229.498" r="127.578"/></defs><g color="#000"><path d="M505.858 254.883a387.604 387.604 0 0 0-10.03.137c-.111.003-.203-.003-.313 0-.114.003-.23.01-.344.013-1.41.038-2.847.086-4.25.137l-1.25.05c-.544.022-1.083.04-1.625.063l-1.094.05c-.732.034-1.46.063-2.187.1-1.236.063-2.47.14-3.688.212-.917.055-1.782.102-2.687.163l-.719.05c-.152.01-.317.027-.469.037-.979.068-1.945.139-2.906.213-.132.01-.274.027-.406.037-.968.076-1.897.144-2.844.225-.039.003-.086.01-.125.013a309.189 309.189 0 0 0-6.156.587 249.622 249.622 0 0 0-5.344.613c-.343.043-.694.093-1.031.137-.134.018-.274.033-.407.05-.603.08-1.228.168-1.812.25-.849.12-1.665.238-2.469.363l-.093.012c-5.452.687-11.794 2.193-16.188 3.95l-118.375 47.35c-4.355 1.742-5.57 3.243-3.625 3.938.011.004.02.009.031.012.179.127.375.253.625.375l.032.013c.177.085.381.167.593.25.101.04.204.074.313.112.615.22 1.329.439 2.187.638.08.018.169.032.25.05.357.08.73.161 1.125.237.396.077.848.14 1.282.213.285.047.51.104.812.15.627.095 1.305.175 2 .262.53.067 1.088.126 1.656.188.412.045.818.095 1.25.137.509.05 1.027.092 1.563.138.438.037.888.077 1.344.112.378.03.734.06 1.125.088.567.04 1.157.077 1.75.112.73.044 1.513.075 2.28.113.334.016.66.035 1 .05 1.148.051 2.308.1 3.532.137l.438.013h.062c1.354.04 2.777.066 4.219.087.122.002.22.011.344.013.48.007.978.008 1.468.012 1.137.011 2.253.025 3.438.025 1.188 0 2.399-.014 3.594-.025a411.243 411.243 0 0 0 6.438-.112c.076-.002.141.002.218 0 1.524-.04 3.046-.095 4.562-.15.58-.021 1.141-.04 1.72-.063a426.64 426.64 0 0 0 2.312-.1c.758-.034 1.496-.061 2.25-.1.427-.021.855-.052 1.28-.075.81-.043 1.637-.09 2.438-.137.825-.05 1.623-.096 2.438-.15.512-.034 1.023-.065 1.531-.1.94-.066 1.89-.141 2.813-.213 1.953-.15 3.854-.313 5.718-.487.367-.034.731-.065 1.094-.1a268.01 268.01 0 0 0 8.219-.912c.117-.015.227-.023.344-.038.98-.126 1.944-.256 2.875-.388.855-.12 1.659-.248 2.468-.375l.188-.025c5.405-.698 11.661-2.19 16-3.925l118.375-47.35c4.392-1.756 5.576-3.262 3.562-3.95-.044-.031-.107-.056-.156-.087-.362-.23-.837-.45-1.437-.663-.336-.119-.717-.237-1.125-.35a32.642 32.642 0 0 0-2.72-.612c-.383-.071-.8-.132-1.218-.2-.23-.038-.446-.076-.687-.113-.023-.003-.04-.009-.063-.012a79.203 79.203 0 0 0-2.281-.313c-.444-.053-.936-.1-1.406-.15a118.76 118.76 0 0 0-1.47-.15c-.251-.023-.49-.052-.75-.075-.133-.011-.27-.026-.405-.037-.804-.069-1.638-.128-2.5-.188-.055-.004-.102-.009-.157-.012-.56-.039-1.165-.065-1.75-.1a205.783 205.783 0 0 0-6.656-.3c-.231-.007-.453-.019-.687-.025-1.39-.04-2.832-.067-4.313-.088-1.6-.022-3.236-.037-4.937-.037z" style="marker:none" opacity=".77" fill="gray" overflow="visible"/><path style="marker:none" d="M153.308-119.26c-49.154 0-91.761 9.296-113.062 22.875-9.715 4.466-16.438 14.258-16.438 25.687V237.21a28.218 28.218 0 0 0 16.344 25.656c21.269 13.61 63.928 22.906 113.156 22.906 49.2 0 91.866-9.277 113.156-22.875a28.205 28.205 0 0 0 16.375-25.687V-70.698a28.197 28.197 0 0 0-16.468-25.718c-21.323-13.567-63.937-22.844-113.063-22.844z" fill="url(#b)" overflow="visible" transform="translate(291.204 208.377) scale(.38444)"/><path style="marker:none" d="M280.902-76.734c0 23.487-57.119 42.526-127.578 42.526-70.46 0-127.579-19.04-127.579-42.526 0-23.486 57.12-42.526 127.579-42.526 70.46 0 127.578 19.04 127.578 42.526z" fill="url(#c)" stroke="url(#d)" stroke-width="4.843" stroke-linecap="round" stroke-linejoin="round" overflow="visible" transform="translate(291.204 208.377) scale(.38444)"/><path style="marker:none" d="M25.759 13.213V83.26c0 23.488 57.1 42.522 127.565 42.522s127.592-19.034 127.592-42.522V13.213c0 .367-.027.73-.055 1.094-.023.302-.04.603-.082.903-.015.11-.037.218-.055.329-.047.291-.1.585-.164.875-.03.137-.075.274-.11.41-.041.167-.089.327-.136.493a16.074 16.074 0 0 1-.876 2.38c-.004.008.004.02 0 .028-.094.204-.198.4-.3.602-.119.233-.255.452-.384.684-.065.117-.123.24-.191.356a21.621 21.621 0 0 1-1.341 2.025 27.535 27.535 0 0 1-2.162 2.572c-.19.201-.376.402-.574.602-.233.234-.468.451-.712.684-.102.097-.197.204-.3.3-.398.37-.805.73-1.232 1.095-.437.373-.874.754-1.341 1.122-.466.367-.955.733-1.45 1.095-.241.175-.491.345-.739.52a56.35 56.35 0 0 1-1.15.793c-.566.379-1.151.75-1.75 1.122-.239.148-.496.291-.74.438-.842.508-1.697 1.037-2.599 1.532-.974.535-1.995 1.04-3.037 1.56-.29.144-.58.294-.876.437-.473.23-.964.458-1.45.685-1.045.486-2.124.979-3.229 1.45-.695.296-1.389.585-2.106.875l-.548.22c-.421.167-.856.326-1.286.492-.516.2-1.032.378-1.56.574a145.758 145.758 0 0 1-5.226 1.834c-.896.296-1.813.588-2.736.875-.441.138-.866.275-1.313.41-.494.15-.977.292-1.478.439-.733.215-1.469.42-2.216.629-.222.062-.434.13-.657.191-.093.026-.18.057-.274.083-.883.243-1.778.476-2.681.711-.713.186-1.41.367-2.134.547-.3.075-.601.145-.903.22-.396.096-.806.178-1.204.273-.63.15-1.25.318-1.888.465-20.563 4.727-45.477 7.497-72.347 7.497-26.87 0-51.789-2.77-72.347-7.497a225.256 225.256 0 0 1-3.256-.766c-.58-.143-1.152-.293-1.724-.438-.758-.193-1.5-.404-2.244-.602-.611-.163-1.231-.326-1.833-.493-1.21-.334-2.414-.663-3.585-1.012-.62-.185-1.225-.386-1.833-.575-.286-.088-.565-.184-.848-.273-.723-.228-1.455-.45-2.162-.684-.812-.269-1.59-.546-2.38-.821-.172-.06-.35-.104-.52-.164-.785-.277-1.564-.565-2.326-.849-.863-.32-1.684-.628-2.518-.957-.753-.298-1.487-.598-2.216-.903-.147-.062-.291-.13-.438-.192a114.42 114.42 0 0 1-2.025-.875c-1.018-.455-1.99-.9-2.955-1.369-.294-.142-.586-.293-.875-.437-1.042-.52-2.064-1.025-3.038-1.56-.901-.495-1.757-1.024-2.6-1.532-.244-.148-.498-.29-.738-.438a62.473 62.473 0 0 1-2.517-1.642c-.131-.09-.254-.183-.383-.273-.247-.174-.5-.346-.74-.52a50.256 50.256 0 0 1-1.34-1.013c-.036-.028-.073-.053-.11-.082-.466-.368-.904-.749-1.34-1.122a39.064 39.064 0 0 1-.93-.82c-.102-.093-.202-.181-.301-.274-.106-.098-.198-.203-.301-.301-.241-.23-.482-.453-.712-.684-.197-.199-.386-.403-.574-.602-.12-.128-.24-.255-.356-.383a30.4 30.4 0 0 1-.657-.74c-.312-.366-.62-.723-.903-1.094-.088-.115-.16-.24-.246-.355a21.795 21.795 0 0 1-1.34-2.025c-.069-.117-.127-.239-.192-.356-.13-.232-.266-.45-.383-.684-.1-.198-.182-.403-.274-.602-.005-.011-.022-.016-.027-.027-.17-.369-.325-.751-.466-1.122-.128-.34-.251-.67-.355-1.013-.025-.081-.032-.164-.055-.246-.047-.164-.095-.328-.137-.492-.035-.138-.079-.272-.11-.41-.064-.291-.116-.585-.164-.876-.017-.11-.04-.22-.054-.329-.042-.3-.06-.601-.082-.903a14.412 14.412 0 0 1-.055-1.094z" fill="url(#e)" stroke="url(#f)" stroke-width="4.843" stroke-linecap="round" stroke-linejoin="round" overflow="visible" transform="translate(291.204 208.377) scale(.38444)"/><path style="marker:none" d="M25.759 93.213v70.048c0 23.488 57.1 42.522 127.565 42.522s127.592-19.034 127.592-42.522V93.213c0 .367-.027.73-.055 1.094-.023.302-.04.603-.082.903-.015.11-.037.218-.055.329-.047.291-.1.585-.164.875-.03.137-.075.274-.11.41-.041.167-.089.327-.136.493a16.066 16.066 0 0 1-.876 2.38c-.004.008.004.02 0 .028-.094.204-.198.4-.3.602-.119.233-.255.452-.384.684-.065.117-.123.239-.191.356a21.615 21.615 0 0 1-1.341 2.025 27.533 27.533 0 0 1-2.162 2.572c-.19.201-.376.402-.574.602-.233.234-.468.451-.712.684-.102.097-.197.204-.3.3-.398.37-.805.73-1.232 1.095-.437.373-.874.754-1.341 1.122a49.54 49.54 0 0 1-1.45 1.095c-.241.175-.491.345-.739.52-.377.265-.757.53-1.15.793-.566.379-1.151.75-1.75 1.122-.239.148-.496.291-.74.438-.842.508-1.697 1.037-2.599 1.532-.974.535-1.995 1.04-3.037 1.56-.29.144-.58.294-.876.437-.473.23-.964.458-1.45.685-1.045.486-2.124.979-3.229 1.45a118.349 118.349 0 0 1-2.654 1.094c-.421.168-.856.327-1.286.493-.516.199-1.032.378-1.56.574a145.654 145.654 0 0 1-5.226 1.834c-.896.296-1.813.588-2.736.875-.441.138-.866.275-1.313.41-.494.15-.977.292-1.478.439-.733.215-1.469.42-2.216.629-.222.062-.434.13-.657.191-.093.026-.18.057-.274.083-.883.243-1.778.476-2.681.71-.713.187-1.41.368-2.134.548-.3.075-.601.145-.903.22-.396.096-.806.177-1.204.273-.63.15-1.25.318-1.888.465-20.563 4.727-45.477 7.497-72.347 7.497-26.87 0-51.789-2.77-72.347-7.497a225.633 225.633 0 0 1-3.256-.766c-.58-.143-1.152-.293-1.724-.438-.757-.193-1.5-.404-2.244-.602-.611-.163-1.231-.326-1.833-.493-1.209-.334-2.414-.663-3.585-1.012-.62-.185-1.224-.386-1.833-.575-.285-.088-.565-.184-.848-.273-.723-.228-1.455-.45-2.162-.684-.812-.269-1.59-.546-2.38-.821-.172-.06-.35-.104-.52-.164-.785-.277-1.564-.565-2.326-.849-.862-.32-1.684-.628-2.518-.957-.753-.298-1.487-.598-2.216-.903-.147-.062-.291-.13-.438-.192-.68-.287-1.367-.582-2.025-.875-1.018-.455-1.99-.9-2.955-1.369-.294-.142-.586-.293-.875-.437-1.042-.52-2.064-1.025-3.038-1.56-.901-.495-1.757-1.024-2.599-1.532-.245-.148-.5-.29-.739-.438a62.459 62.459 0 0 1-2.517-1.642c-.131-.09-.254-.183-.383-.274-.247-.173-.5-.345-.739-.52a50.256 50.256 0 0 1-1.34-1.012c-.037-.028-.074-.053-.11-.082-.467-.368-.905-.749-1.341-1.122a39.093 39.093 0 0 1-.93-.82c-.102-.093-.202-.182-.301-.274-.106-.098-.198-.203-.301-.301-.241-.23-.482-.453-.712-.684-.196-.199-.386-.403-.574-.602-.12-.128-.24-.255-.356-.383a30.375 30.375 0 0 1-.657-.74c-.312-.366-.62-.723-.903-1.094-.088-.116-.16-.24-.246-.355a21.784 21.784 0 0 1-1.34-2.025c-.069-.117-.127-.239-.192-.356-.13-.232-.266-.45-.383-.684-.1-.198-.182-.403-.274-.602-.005-.011-.022-.016-.027-.027a17.88 17.88 0 0 1-.466-1.122c-.128-.34-.251-.67-.355-1.013-.025-.081-.031-.164-.055-.246-.047-.164-.095-.328-.137-.492-.035-.138-.078-.272-.11-.41-.064-.291-.116-.585-.163-.876-.018-.11-.04-.22-.055-.329-.042-.3-.06-.601-.082-.903a14.412 14.412 0 0 1-.055-1.094z" fill="url(#g)" stroke="url(#h)" stroke-width="4.843" stroke-linecap="round" stroke-linejoin="round" overflow="visible" transform="translate(291.204 208.377) scale(.38444)"/><path style="marker:none" d="M25.759-66.787V3.26c0 23.488 57.1 42.522 127.564 42.522 70.465 0 127.592-19.034 127.592-42.522v-70.048c0 .431-.016.858-.054 1.286-.014.155-.036.31-.055.465-.028.23-.07.455-.11.684-.022.135-.027.276-.054.41-.08.405-.188.803-.301 1.204-.126.444-.272.875-.438 1.314-.165.438-.342.88-.547 1.313-.135.286-.286.565-.438.848-.08.15-.162.29-.246.438a21.403 21.403 0 0 1-1.45 2.217c-.086.116-.158.24-.247.355-.023.03-.058.052-.082.082-.262.34-.534.704-.82 1.04-.035.04-.076.07-.11.11a30.137 30.137 0 0 1-2.38 2.462c-.432.405-.874.805-1.342 1.204-.436.374-.873.754-1.34 1.122-.036.029-.073.054-.11.082-.37.29-.76.589-1.149.876-.063.047-.127.09-.192.137a53.704 53.704 0 0 1-1.888 1.313c-.571.382-1.146.747-1.75 1.122-.398.247-.82.495-1.232.739-.686.406-1.383.806-2.107 1.204-.011.006-.016.021-.027.027a85.983 85.983 0 0 1-3.01 1.56c-.29.144-.58.294-.876.438-.473.229-.964.457-1.45.684a108.951 108.951 0 0 1-3.64 1.614l-.328.137c-.729.305-1.463.605-2.216.903-.071.028-.147.054-.219.082-.764.3-1.538.582-2.326.875-.842.314-1.703.626-2.572.93-2.609.916-5.339 1.793-8.181 2.628-.948.278-1.9.552-2.873.82-.093.026-.18.057-.274.083-.884.243-1.778.476-2.681.711-1.999.52-4.039 1.024-6.13 1.505-20.562 4.728-45.476 7.497-72.346 7.497-26.873 0-51.784-2.768-72.347-7.497-1.043-.24-2.073-.49-3.092-.739a213.43 213.43 0 0 1-3.038-.766c-.91-.237-1.79-.466-2.681-.711-.085-.024-.162-.06-.246-.083-.972-.268-1.953-.542-2.9-.82-.945-.278-1.873-.562-2.792-.849-.922-.287-1.84-.579-2.736-.875-.812-.269-1.59-.546-2.38-.821-.172-.06-.35-.104-.52-.164-.785-.277-1.564-.565-2.326-.849-.863-.32-1.685-.628-2.518-.957-.753-.298-1.487-.598-2.216-.903-.147-.062-.292-.13-.438-.192-.68-.287-1.367-.582-2.025-.875-1.018-.455-1.99-.9-2.955-1.369-.294-.142-.586-.293-.875-.437a86.03 86.03 0 0 1-3.01-1.56c-.011-.006-.017-.021-.028-.027a74.736 74.736 0 0 1-2.107-1.204c-.411-.244-.833-.492-1.23-.74a61.984 61.984 0 0 1-3.421-2.27 49.494 49.494 0 0 1-1.56-1.177c-.036-.028-.073-.053-.11-.082-.466-.368-.904-.748-1.34-1.122a39.066 39.066 0 0 1-.93-.82c-.143-.13-.273-.254-.41-.384-.426-.399-.842-.8-1.232-1.204a29.416 29.416 0 0 1-2.107-2.408c-.02-.026-.034-.055-.055-.082a23.553 23.553 0 0 1-.903-1.286 21.642 21.642 0 0 1-.793-1.286c-.246-.431-.478-.85-.684-1.286a17.615 17.615 0 0 1-.548-1.313 16.19 16.19 0 0 1-.355-1.013c-.031-.1-.054-.2-.082-.3-.114-.402-.222-.8-.301-1.205-.027-.135-.032-.274-.055-.41-.039-.227-.082-.456-.11-.684-.018-.155-.04-.31-.054-.465a14.406 14.406 0 0 1-.055-1.286z" fill="url(#i)" stroke="url(#j)" stroke-width="4.843" stroke-linecap="round" stroke-linejoin="round" overflow="visible" transform="translate(291.204 208.377) scale(.38444)"/><path d="M25.759 173.213v70.048c0 23.488 57.1 42.522 127.565 42.522s127.592-19.034 127.592-42.522v-70.048c0 .431-.017.857-.055 1.286-.014.154-.036.31-.055.465-.028.23-.07.455-.11.684-.022.135-.027.276-.054.41-.08.405-.187.803-.3 1.204-.126.444-.273.875-.439 1.314-.165.438-.342.88-.547 1.313-.135.286-.286.565-.438.848-.08.15-.161.29-.246.438a21.417 21.417 0 0 1-1.45 2.217c-.086.116-.158.24-.246.355-.024.03-.059.052-.082.082-.263.34-.535.704-.821 1.04-.035.04-.075.07-.11.11a30.136 30.136 0 0 1-2.38 2.462c-.432.405-.874.805-1.341 1.204-.437.373-.874.754-1.34 1.122-.037.029-.074.054-.11.082-.37.29-.76.589-1.15.876l-.191.136a53.667 53.667 0 0 1-1.888 1.314c-.572.382-1.146.746-1.751 1.122-.398.246-.82.495-1.232.739-.685.406-1.382.806-2.107 1.203-.01.007-.016.022-.027.028a85.986 85.986 0 0 1-3.01 1.56c-.29.144-.58.294-.875.437-.473.23-.964.458-1.45.684a108.96 108.96 0 0 1-3.64 1.615l-.328.137c-.73.305-1.463.605-2.217.903-.071.028-.147.053-.218.082-.764.3-1.538.582-2.326.875-.842.314-1.703.626-2.572.93-2.61.916-5.34 1.793-8.182 2.627-.948.279-1.9.552-2.873.821-.093.026-.18.057-.274.082-.883.243-1.778.477-2.681.712-1.998.52-4.038 1.024-6.13 1.505-20.562 4.728-45.476 7.497-72.346 7.497-26.873 0-51.783-2.768-72.347-7.497-1.042-.24-2.072-.49-3.092-.74-1.024-.25-2.037-.505-3.037-.765a199.63 199.63 0 0 1-2.682-.712c-.085-.023-.161-.058-.246-.082a193.24 193.24 0 0 1-2.9-.82c-.944-.278-1.873-.562-2.792-.849-.922-.287-1.84-.58-2.736-.875-.812-.269-1.59-.546-2.38-.821-.172-.06-.35-.104-.52-.164-.785-.277-1.563-.565-2.326-.849-.862-.32-1.684-.628-2.517-.957-.754-.298-1.488-.599-2.217-.903-.147-.062-.291-.13-.438-.192-.68-.288-1.366-.582-2.024-.876-1.02-.454-1.99-.9-2.956-1.368-.294-.142-.586-.293-.875-.437a86.01 86.01 0 0 1-3.01-1.56c-.011-.007-.016-.021-.027-.028a74.715 74.715 0 0 1-2.107-1.203c-.412-.244-.834-.493-1.232-.74a61.994 61.994 0 0 1-3.42-2.27 49.481 49.481 0 0 1-1.56-1.177l-.11-.082c-.466-.368-.903-.749-1.34-1.122a39.07 39.07 0 0 1-.93-.82c-.142-.13-.272-.254-.41-.384-.426-.399-.842-.8-1.232-1.204a29.419 29.419 0 0 1-2.107-2.408c-.02-.026-.034-.055-.055-.082a23.55 23.55 0 0 1-.903-1.286 21.639 21.639 0 0 1-.793-1.286 19.18 19.18 0 0 1-.684-1.286 17.615 17.615 0 0 1-.547-1.313c-.129-.34-.252-.67-.356-1.013-.03-.1-.054-.2-.082-.3-.114-.402-.221-.8-.301-1.205-.027-.135-.032-.274-.055-.41-.038-.227-.082-.456-.11-.684-.018-.156-.04-.31-.054-.465a14.407 14.407 0 0 1-.055-1.286z" style="marker:none" fill="url(#k)" stroke="url(#l)" stroke-width="4.843" stroke-linecap="round" stroke-linejoin="round" overflow="visible" transform="translate(291.204 208.377) scale(.38444)"/></g><g color="#000"><path d="M223.156 93.273c-18.588.146-36.538-.133-59.157 1.825-8.356.698-22.139 2.833-26.723 6.031-28.243 15.785-68.341 32.312-100.517 48.348-5.639 3.152 2.351 3.679 6.959 4.52 11.41 1.582 26.215 2.142 45.375.713 9.553-.695 19.239-1.22 30.515-3.037 10.146-1.925 17.196-5.107 25.292-7.673 42.386-14.657 82.236-29.577 128.202-43.907 9.36-3.336 2.918-4.564-1.634-5.295-13.15-1.558-31.178-1.427-48.312-1.525z" style="marker:none" opacity=".77" fill="gray" overflow="visible"/><path d="M558.255-92.815c-19.875-.006-39.051.285-56.62.96-17.568.674-33.523 1.751-47.38 3.402-13.856 1.65-25.622 3.883-35.218 6.709-9.595 2.826-17.035 6.244-22.465 10.037-5.222 2.606-8.86 6.64-10.772 11.47-1.912 4.83-2.125 10.44-.492 16.144 7.332 25.616 12.926 51.057 17.648 76.565 4.722 25.509 8.548 51.107 12.083 77.112 3.535 26.005 6.753 52.443 10.346 79.349 1.797 13.453 3.69 27.016 5.809 40.63 2.119 13.613 4.462 27.279 7.21 40.868 1.221 6.034 4.223 11.216 8.323 15.248 4.1 4.032 9.284 6.93 14.757 8.462 6.265 2.657 13.683 4.966 21.649 7.051 7.966 2.086 16.46 3.952 24.973 5.573 8.513 1.62 17.026 2.988 25.412 3.953 8.385.965 16.646 1.516 25.15 1.515 8.498 0 16.742-.552 25.102-1.52 8.36-.969 16.84-2.344 25.32-3.974 8.48-1.631 16.942-3.511 24.881-5.613 7.94-2.1 15.336-4.426 21.589-7.098 5.47-1.54 10.652-4.454 14.751-8.503 4.099-4.05 7.1-9.249 8.325-15.293 2.75-13.587 5.096-27.251 7.218-40.864 2.122-13.612 4.018-27.175 5.816-40.627 3.598-26.905 6.82-53.343 10.355-79.346 3.535-26.004 7.358-51.6 12.072-77.103 4.713-25.502 10.295-50.934 17.606-76.534 1.631-5.712 1.408-11.32-.527-16.143-1.935-4.822-5.606-8.84-10.876-11.425-5.468-3.77-12.953-7.164-22.594-9.969-9.641-2.805-21.453-5.02-35.348-6.66-13.896-1.641-29.883-2.715-47.47-3.393-17.587-.678-36.769-.978-56.633-.983z" style="marker:none" fill="url(#m)" overflow="visible" transform="translate(-147.125 36.618) scale(.38444)"/><path d="M731.308-50.58c-.863 2.926-2.67 5.64-5.337 8.136-2.667 2.495-6.196 4.775-10.553 6.89-8.714 4.232-20.765 7.833-35.875 11.06-15.11 3.229-33.294 6.089-53.81 8.208-20.516 2.12-43.351 3.438-67.343 3.436-23.99-.002-46.815-1.324-67.313-3.438-20.497-2.114-38.654-4.959-53.736-8.166-15.081-3.207-27.102-6.78-35.794-10.992-4.346-2.105-7.866-4.376-10.527-6.867-2.661-2.49-4.467-5.202-5.333-8.131-.865-2.93-.752-5.942.322-8.943 1.074-3.001 3.11-5.988 6.148-8.841 3.038-2.853 7.08-5.571 12.192-8.04 5.11-2.467 11.294-4.684 18.587-6.597 7.293-1.913 15.7-3.52 25.191-4.823 9.492-1.304 20.07-2.306 31.603-3.06 11.533-.756 24.022-1.264 37.215-1.592 13.194-.328 27.09-.479 41.336-.475 14.245.004 28.148.162 41.354.495 13.205.333 25.71.844 37.264 1.6 11.554.754 22.157 1.754 31.674 3.05 9.518 1.298 17.952 2.896 25.272 4.798 7.32 1.901 13.531 4.105 18.667 6.56 5.136 2.453 9.201 5.157 12.258 7.997 3.058 2.84 5.11 5.815 6.195 8.808 1.086 2.992 1.206 5.999.343 8.926 0 0 0 0 0 0z" style="marker:none" fill="url(#n)" stroke="url(#o)" stroke-width="4.843" stroke-linecap="round" stroke-linejoin="round" overflow="visible" transform="translate(-147.125 36.618) scale(.38444)"/><path d="M406.25 38.96c4.137 23.219 7.59 46.542 10.806 70.204.405 2.976 1.72 5.698 3.863 8.172 2.143 2.473 5.116 4.701 8.85 6.755 7.467 4.107 17.992 7.529 30.836 10.588 12.844 3.059 27.98 5.759 44.542 7.768 16.563 2.008 34.535 3.264 53.369 3.264 18.833 0 36.804-1.257 53.368-3.276 16.564-2.018 31.703-4.737 44.553-7.82 12.851-3.083 23.387-6.534 30.864-10.663 3.739-2.065 6.717-4.302 8.863-6.782 2.146-2.48 3.463-5.206 3.867-8.181 3.215-23.66 6.665-46.982 10.796-70.196-.065.365-.158.72-.25 1.078-.078.295-.15.59-.246.881-.035.107-.077.21-.115.316-.1.28-.207.562-.325.838-.056.13-.127.257-.187.386-.073.158-.15.307-.23.463a15.567 15.567 0 0 1-1.332 2.197c-.006.007 0 .02-.005.027-.134.184-.278.359-.42.54-.165.21-.346.402-.521.608-.09.104-.172.214-.263.317a21.792 21.792 0 0 1-1.761 1.764 29.007 29.007 0 0 1-2.727 2.172c-.236.167-.468.334-.712.5-.287.192-.574.368-.873.558-.125.08-.244.17-.371.25-.486.3-.98.591-1.498.885-.53.3-1.061.609-1.623.902-.56.291-1.147.58-1.74.865-.288.139-.586.27-.882.407a71.6 71.6 0 0 1-1.37.621c-.675.295-1.37.582-2.08.87-.283.114-.586.222-.874.335-.998.392-2.014.807-3.079 1.187-1.15.41-2.35.79-3.577 1.187-.342.11-.684.226-1.032.336-.557.175-1.134.349-1.706.521-1.23.372-2.5.752-3.798 1.113-.817.227-1.633.45-2.476.672-.214.057-.427.112-.643.168-.496.13-1.005.25-1.51.377-.606.154-1.21.289-1.83.44a265.73 265.73 0 0 1-6.143 1.431c-1.054.234-2.132.464-3.217.692-.519.11-1.02.22-1.546.328-.58.12-1.148.232-1.738.35-.862.173-1.727.336-2.607.506-.26.05-.512.107-.774.157-.11.021-.213.047-.323.068-1.04.197-2.093.387-3.157.58-.84.153-1.66.303-2.515.452-.354.062-.707.12-1.063.181-.466.08-.947.146-1.417.226-.742.126-1.477.27-2.229.394-12.123 1.993-25.562 3.714-39.949 4.94a538.774 538.774 0 0 1-45.627 1.94 540.63 540.63 0 0 1-45.622-1.936c-14.383-1.222-27.816-2.935-39.927-4.914-1.293-.21-2.572-.418-3.834-.635-.683-.118-1.357-.242-2.03-.362-.892-.158-1.768-.333-2.643-.494-.72-.132-1.448-.263-2.156-.397-1.422-.27-2.837-.53-4.213-.807-.728-.147-1.441-.31-2.156-.458-.336-.07-.666-.147-.998-.218-.85-.18-1.707-.35-2.537-.533-.954-.21-1.87-.427-2.797-.64-.202-.047-.408-.077-.608-.124-.921-.214-1.836-.437-2.73-.655-1.013-.247-1.976-.48-2.954-.732-.884-.228-1.746-.457-2.602-.689-.173-.047-.343-.1-.515-.147-.798-.22-1.604-.442-2.376-.665a158.618 158.618 0 0 1-3.47-1.036c-.347-.108-.692-.224-1.032-.334-1.224-.393-2.423-.77-3.57-1.178-1.064-.377-2.08-.79-3.075-1.179-.29-.113-.589-.218-.872-.333a81.797 81.797 0 0 1-2.988-1.267c-.156-.07-.303-.144-.457-.215-.294-.135-.594-.267-.88-.404a61 61 0 0 1-1.606-.796c-.044-.023-.088-.042-.131-.064-.561-.291-1.092-.599-1.62-.897-.39-.22-.758-.437-1.13-.66-.123-.076-.244-.147-.366-.222-.128-.08-.244-.167-.37-.247-.295-.187-.589-.367-.871-.557-.243-.163-.478-.332-.711-.498a32.351 32.351 0 0 1-1.262-.934c-.393-.307-.778-.605-1.14-.922-.113-.098-.21-.208-.32-.307a21.917 21.917 0 0 1-1.758-1.759c-.092-.103-.174-.213-.263-.317-.175-.206-.356-.397-.52-.606-.139-.177-.26-.365-.39-.545-.008-.01-.027-.012-.034-.022-.24-.333-.47-.682-.682-1.023-.194-.313-.38-.616-.549-.936-.04-.076-.061-.157-.1-.234-.078-.154-.157-.307-.23-.462-.06-.13-.13-.255-.186-.387a14.523 14.523 0 0 1-.325-.837c-.037-.105-.08-.21-.115-.316-.096-.29-.168-.586-.245-.88a13.926 13.926 0 0 1-.25-1.078s0 0 0 0 0 0 0 0z" style="marker:none" fill="url(#p)" stroke="url(#q)" stroke-width="4.843" stroke-linecap="round" stroke-linejoin="round" overflow="visible" transform="translate(-147.125 36.618) scale(.38444)"/><path d="M418.414 119.27c3.157 23.759 6.123 47.898 9.431 72.41.416 3.082 1.76 5.908 3.94 8.477 2.178 2.57 5.194 4.885 8.941 7.019 7.496 4.269 17.937 7.819 30.2 10.973 6.13 1.578 12.71 3.047 19.6 4.389a399.316 399.316 0 0 0 21.482 3.582c7.398 1.025 14.999 1.856 22.763 2.431 7.764.576 15.693.896 23.808.896 8.116 0 16.042-.32 23.802-.898a356.07 356.07 0 0 0 22.745-2.441 394.246 394.246 0 0 0 21.46-3.603c6.883-1.352 13.457-2.832 19.583-4.421 12.252-3.18 22.688-6.758 30.184-11.049 3.747-2.145 6.763-4.47 8.943-7.045 2.18-2.576 3.525-5.405 3.942-8.487 3.311-24.511 6.28-48.651 9.436-72.41-.05.374-.127.738-.205 1.103-.064.303-.123.606-.206.902-.031.11-.068.215-.102.323-.088.288-.182.576-.288.858-.05.134-.114.264-.169.396-.066.16-.136.314-.208.473a15.367 15.367 0 0 1-1.23 2.249c-.004.007.003.02-.003.028-.125.189-.26.367-.394.553-.154.215-.325.41-.49.622-.084.106-.16.22-.247.325a20.866 20.866 0 0 1-1.668 1.806 27.476 27.476 0 0 1-2.601 2.225c-.226.172-.447.343-.682.512-.274.198-.549.378-.836.573-.12.082-.233.174-.355.255-.466.309-.94.607-1.437.908-.507.308-1.017.625-1.556.925-.538.3-1.101.595-1.67.887-.277.142-.563.277-.847.417-.432.213-.867.428-1.315.638-.648.302-1.314.596-1.995.892-.271.117-.562.227-.838.344-.956.402-1.93.828-2.949 1.217-1.1.421-2.247.811-3.42 1.218-.326.113-.652.233-.984.345-.532.18-1.082.358-1.627.535-1.172.381-2.38.771-3.615 1.141-.776.233-1.55.461-2.35.69l-.61.172c-.47.133-.953.256-1.43.387-.575.158-1.147.296-1.732.451a245.162 245.162 0 0 1-8.814 2.176c-.487.112-.956.226-1.448.337-.544.122-1.076.237-1.627.358-.807.177-1.615.344-2.436.518-.243.052-.478.11-.722.161-.102.022-.199.048-.301.07-.97.202-1.95.396-2.94.594-.78.156-1.543.31-2.335.463-.329.064-.656.122-.986.185-.432.083-.878.15-1.313.23-.687.13-1.367.278-2.062.405a441.608 441.608 0 0 1-36.39 5.05 423.253 423.253 0 0 1-40.718 1.98c-14.142 0-27.782-.727-40.726-1.975a445.888 445.888 0 0 1-36.394-5.021c-1.196-.217-2.381-.428-3.553-.651-.633-.12-1.26-.248-1.885-.37-.83-.162-1.644-.342-2.46-.506-.67-.136-1.35-.27-2.01-.407-1.327-.276-2.65-.543-3.94-.826-.681-.15-1.35-.318-2.021-.47-.315-.072-.625-.151-.937-.223-.798-.184-1.605-.36-2.386-.546-.898-.215-1.76-.439-2.636-.658-.19-.047-.385-.078-.574-.126-.87-.22-1.734-.448-2.58-.671-.959-.253-1.872-.493-2.799-.751-.839-.233-1.657-.469-2.47-.707-.165-.048-.327-.103-.49-.151-.759-.225-1.526-.453-2.262-.682-1.14-.353-2.228-.698-3.311-1.063-.33-.11-.66-.23-.985-.342-1.17-.404-2.318-.791-3.418-1.209-1.018-.387-1.992-.81-2.947-1.21-.277-.116-.565-.224-.837-.341a76.574 76.574 0 0 1-2.869-1.3c-.15-.073-.291-.147-.44-.22-.281-.139-.57-.274-.845-.415a57.261 57.261 0 0 1-1.543-.816l-.126-.066c-.539-.299-1.048-.614-1.555-.92a41.95 41.95 0 0 1-1.084-.677c-.119-.077-.235-.15-.352-.227-.123-.081-.233-.171-.355-.254-.283-.191-.564-.375-.835-.57-.232-.167-.458-.34-.68-.51a30.546 30.546 0 0 1-1.207-.957c-.375-.315-.743-.62-1.088-.944-.108-.101-.2-.213-.304-.315a20.945 20.945 0 0 1-1.666-1.801c-.087-.106-.164-.219-.247-.325-.165-.21-.337-.406-.49-.62-.13-.182-.243-.374-.365-.558-.007-.01-.025-.012-.032-.022a16.98 16.98 0 0 1-.633-1.048c-.18-.32-.351-.63-.505-.958-.037-.078-.055-.16-.09-.24-.071-.157-.143-.313-.208-.472-.055-.134-.118-.26-.169-.395-.106-.282-.2-.57-.288-.857-.033-.108-.07-.215-.1-.323-.084-.297-.143-.6-.208-.902a14.321 14.321 0 0 1-.204-1.102s0 0 0 0 0 0 0 0z" style="marker:none" fill="url(#r)" stroke="url(#s)" stroke-width="4.843" stroke-linecap="round" stroke-linejoin="round" overflow="visible" transform="translate(-147.125 36.618) scale(.38444)"/><path d="M388.545-40.529c6.469 23.265 11.553 46.406 15.898 69.6.546 2.916 2.004 5.586 4.294 8.012 2.29 2.427 5.415 4.614 9.326 6.628 7.824 4.028 18.814 7.383 32.494 10.386 13.68 3.003 30.047 5.659 48.316 7.637a556.83 556.83 0 0 0 59.586 3.217c21.162 0 41.324-1.238 59.605-3.225 18.28-1.987 34.664-4.66 48.365-7.687 13.7-3.027 24.713-6.41 32.553-10.46 3.92-2.024 7.053-4.22 9.348-6.653 2.295-2.432 3.755-5.105 4.3-8.02 4.336-23.19 9.409-46.321 15.858-69.573-.119.43-.254.851-.414 1.271-.058.152-.124.304-.187.454-.094.225-.202.442-.307.663-.062.13-.106.27-.172.4-.198.389-.424.768-.657 1.148-.258.42-.535.825-.835 1.235-.3.408-.612.819-.953 1.217-.224.262-.465.515-.707.773-.128.135-.255.261-.387.395a25.93 25.93 0 0 1-2.185 1.974c-.125.103-.237.214-.365.316-.034.026-.078.042-.112.069-.38.297-.775.616-1.18.907-.05.035-.102.058-.15.092a39.394 39.394 0 0 1-3.288 2.097c-.587.34-1.184.676-1.81 1.007-.586.31-1.174.63-1.794.932-.048.024-.095.044-.144.067-.491.24-1.007.485-1.52.72-.083.037-.167.072-.251.11a80.025 80.025 0 0 1-2.474 1.068c-.747.31-1.494.603-2.28.906-.517.199-1.063.397-1.596.593-.889.326-1.79.648-2.726.966-.014.005-.024.02-.038.024-1.25.426-2.545.834-3.877 1.246-.374.116-.748.237-1.128.352-.609.183-1.24.365-1.865.546-1.513.44-3.07.872-4.679 1.297l-.421.11c-.938.245-1.881.488-2.85.73-.092.022-.189.042-.28.065-.983.243-1.976.47-2.99.709-1.084.255-2.193.51-3.312.761a356.495 356.495 0 0 1-10.566 2.188c-1.227.235-2.461.468-3.723.698-.12.022-.235.05-.356.071-1.146.208-2.306.409-3.48.612-2.597.451-5.254.894-7.983 1.321-13.417 2.102-28.405 3.915-44.565 5.205a648.869 648.869 0 0 1-51.481 2.04 650.617 650.617 0 0 1-51.465-2.043c-16.15-1.289-31.121-3.095-44.52-5.185-1.359-.212-2.7-.432-4.027-.65-1.332-.218-2.646-.439-3.945-.663-1.182-.205-2.321-.4-3.475-.609-.11-.02-.212-.051-.321-.071-1.26-.229-2.527-.46-3.752-.693-1.22-.233-2.419-.472-3.604-.71-1.19-.239-2.372-.48-3.527-.724-1.045-.22-2.05-.45-3.066-.674-.22-.05-.446-.082-.665-.131-1.01-.226-2.01-.46-2.99-.69-1.108-.26-2.161-.506-3.23-.771-.968-.24-1.91-.48-2.845-.725-.189-.049-.375-.105-.563-.154-.872-.23-1.752-.464-2.597-.698a181.956 181.956 0 0 1-3.79-1.088c-.378-.113-.755-.235-1.126-.35-1.329-.409-2.623-.815-3.869-1.237-.014-.005-.024-.02-.038-.024-.93-.316-1.835-.637-2.72-.96-.532-.195-1.076-.392-1.592-.59a95.654 95.654 0 0 1-4.454-1.828 71.68 71.68 0 0 1-2.055-.96c-.049-.024-.096-.044-.144-.067-.619-.302-1.205-.62-1.79-.928-.43-.228-.838-.451-1.249-.683-.192-.108-.368-.212-.556-.32a46.614 46.614 0 0 1-1.68-1.014 37.869 37.869 0 0 1-2.958-2.068c-.03-.023-.052-.05-.081-.073-.473-.373-.902-.75-1.333-1.134a26.12 26.12 0 0 1-1.212-1.15 22.62 22.62 0 0 1-1.092-1.166 20.11 20.11 0 0 1-.952-1.216 18.131 18.131 0 0 1-.662-.948c-.06-.095-.113-.19-.171-.285-.233-.38-.46-.76-.657-1.148-.066-.13-.11-.268-.172-.4-.104-.22-.214-.44-.307-.663-.063-.151-.13-.3-.188-.454a14.47 14.47 0 0 1-.415-1.272s0 0 0 0z" style="marker:none" fill="url(#t)" stroke="url(#u)" stroke-width="4.843" stroke-linecap="round" stroke-linejoin="round" overflow="visible" transform="translate(-147.125 36.618) scale(.38444)"/><path d="M429.28 202.147c1.712 12.302 3.538 24.682 5.583 37.083 2.045 12.4 4.308 24.822 6.936 37.154.66 3.102 2.276 5.917 4.73 8.46 2.453 2.543 5.745 4.818 9.711 6.88 7.933 4.126 18.578 7.44 30.186 10.333a388.423 388.423 0 0 0 17.922 3.99 402.726 402.726 0 0 0 18.267 3.222c6.064.919 12.068 1.66 18.046 2.176 5.978.514 11.932.8 18.017.8 6.086-.001 12.033-.288 18-.805 5.966-.517 11.954-1.263 18-2.188a394.704 394.704 0 0 0 18.207-3.245 382.567 382.567 0 0 0 17.863-4.024c11.571-2.918 22.188-6.262 30.104-10.41 3.959-2.073 7.246-4.357 9.696-6.906 2.45-2.55 4.064-5.368 4.725-8.469 2.628-12.33 4.893-24.75 6.94-37.15 2.047-12.398 3.875-24.778 5.59-37.08-.064.455-.144.901-.247 1.345-.038.16-.084.32-.126.478-.063.237-.141.465-.216.699-.044.137-.07.285-.118.42-.143.41-.315.808-.494 1.207-.197.442-.415.866-.654 1.295-.239.428-.49.858-.77 1.274-.184.273-.384.537-.586.806-.106.141-.213.273-.324.413a21.765 21.765 0 0 1-1.854 2.053c-.107.106-.202.223-.312.328-.03.028-.07.044-.098.071-.327.308-.667.64-1.018.942-.042.036-.09.059-.132.095a32.058 32.058 0 0 1-2.867 2.165c-.514.351-1.037.697-1.587 1.038-.513.319-1.029.647-1.573.958-.042.024-.084.044-.127.068-.431.246-.884.497-1.334.738-.073.039-.147.074-.22.113a64.77 64.77 0 0 1-2.17 1.092c-.655.316-1.309.615-1.995.924-.451.202-.928.404-1.393.603-.774.332-1.558.659-2.37.982-.012.006-.02.02-.032.025-1.084.432-2.204.845-3.35 1.262-.322.117-.643.24-.97.355-.522.186-1.063.37-1.597.552-1.294.443-2.617.879-3.977 1.306l-.357.11c-.791.248-1.585.492-2.398.734-.077.023-.158.042-.235.065-.823.244-1.652.47-2.495.71-.9.255-1.82.511-2.742.761-2.771.751-5.639 1.479-8.588 2.181-.984.234-1.969.466-2.97.695-.095.021-.187.049-.282.07-.91.207-1.825.405-2.748.607-2.04.448-4.107.886-6.208 1.309-10.328 2.079-21.303 3.862-32.621 5.13-11.319 1.268-22.98 2.003-35.059 2.004-12.08 0-23.749-.735-35.08-1.997-11.33-1.263-22.32-3.037-32.664-5.102-1.049-.209-2.09-.426-3.124-.642a370.39 370.39 0 0 1-3.093-.657c-.932-.202-1.834-.395-2.751-.602-.088-.02-.169-.052-.256-.072-1.002-.227-2.017-.455-3.001-.687-.981-.232-1.95-.47-2.912-.706a293.09 293.09 0 0 1-2.876-.72c-.857-.22-1.684-.45-2.523-.675-.183-.049-.369-.08-.55-.13-.836-.225-1.667-.46-2.485-.689-.924-.26-1.806-.506-2.706-.772-.813-.24-1.608-.482-2.4-.727-.16-.05-.318-.106-.478-.156-.74-.23-1.489-.466-2.21-.701-1.115-.365-2.183-.72-3.25-1.097-.325-.114-.65-.237-.97-.353-1.147-.414-2.27-.824-3.354-1.252-.012-.006-.02-.02-.032-.026-.81-.32-1.599-.646-2.372-.975-.465-.198-.942-.398-1.394-.6a77.915 77.915 0 0 1-3.914-1.865 58.258 58.258 0 0 1-1.81-.984c-.042-.024-.084-.044-.126-.068-.545-.31-1.06-.636-1.574-.954a43.595 43.595 0 0 1-1.1-.702c-.168-.111-.323-.218-.488-.33a37.862 37.862 0 0 1-1.473-1.046 30.894 30.894 0 0 1-2.574-2.139c-.025-.024-.044-.052-.07-.076-.407-.387-.773-.78-1.14-1.178-.361-.392-.705-.794-1.026-1.197-.322-.405-.629-.8-.91-1.216a17.68 17.68 0 0 1-.77-1.272 16.274 16.274 0 0 1-.523-.993c-.047-.1-.086-.2-.131-.3-.179-.398-.35-.796-.494-1.205-.048-.138-.074-.283-.118-.421-.074-.231-.153-.464-.215-.698-.043-.16-.089-.317-.126-.479a15.074 15.074 0 0 1-.247-1.343s0 0 0 0 0 0 0 0z" style="marker:none" fill="url(#v)" stroke="url(#w)" stroke-width="4.843" stroke-linecap="round" stroke-linejoin="round" overflow="visible" transform="translate(-147.125 36.618) scale(.38444)"/></g><g color="#000"><path d="M506.038 93.292c-2.369 0-4.692.01-7.032.025-.246.002-.503.01-.75.012-.762.005-1.52.005-2.28.013-1.32.012-2.647.03-3.97.05-.815.012-1.619.021-2.437.037-.36.007-.734.017-1.094.025-.86.018-1.727.04-2.594.063-1.506.04-3.008.081-4.53.137-.195.007-.4.018-.595.025h-.062c-.969.037-1.962.08-2.938.125-.735.034-1.448.062-2.187.1-.485.025-.982.06-1.469.088a352.543 352.543 0 0 0-7.344.487c-.58.045-1.17.09-1.75.138-.646.053-1.262.105-1.906.162-.107.01-.205.015-.312.025-.996.09-2.016.19-3 .288-.11.01-.234.026-.344.037-1.102.11-2.17.217-3.25.338-.268.03-.546.069-.813.1-.23.026-.459.048-.687.075-.486.057-.959.116-1.438.175-.343.042-.691.081-1.03.125-1.086.137-2.12.279-3.157.425-3.62.427-7.512 1.088-11.031 1.862-3.52.774-6.643 1.659-8.782 2.538-38.409 15.783-63.323 31.567-101.75 47.35-2.133.876-3.568 1.61-4.406 2.2-.815.573-1.034 1.011-.562 1.275.013.007.016.017.03.025.047.104.09.209.188.312.005.006.026.007.032.013.07.07.155.141.25.212.029.022.093.04.125.063.17.117.32.245.562.362.029.014.064.024.094.038.198.093.442.181.687.275.042.015.083.034.125.05.118.043.216.081.344.125.137.046.32.09.469.137.339.105.658.208 1.062.313.014.004.018.009.032.012.533.137 1.158.267 1.812.4.052.01.073.027.125.038l.313.062c.203.04.41.074.625.113.192.034.423.065.625.1.379.064.743.125 1.156.187.631.094 1.289.188 2 .275.194.024.363.052.562.075.523.06 1.06.12 1.625.175h.032c.59.058 1.208.111 1.843.163l.657.05c.316.023.672.04 1 .062l.156.013c.525.034 1.041.07 1.594.1.131.007.242.018.375.025.691.035 1.423.06 2.156.087.154.006.313.007.469.013.96.033 1.943.069 2.968.087.396.007.814.008 1.22.013.81.01 1.59.025 2.437.025.846 0 1.734-.016 2.593-.025.234-.003.485-.01.72-.013.107-.002.204.002.312 0h.218c1.119-.018 2.28-.054 3.407-.087 1.06-.032 2.097-.057 3.156-.1.155-.006.314-.019.469-.025.891-.038 1.77-.08 2.656-.125.551-.029 1.109-.057 1.656-.088.987-.056 1.968-.111 2.938-.175.842-.055 1.675-.115 2.5-.175.315-.023.625-.051.937-.075a348.974 348.974 0 0 0 7.563-.662c.479-.047.94-.09 1.406-.138.229-.023.43-.04.656-.062.991-.103 1.975-.208 2.906-.313l.094-.012c1.234-.14 2.374-.272 3.5-.413.094-.012.189-.026.281-.037.55-.07 1.039-.131 1.563-.2a235.596 235.596 0 0 0 4.375-.625c.69-.107 1.33-.206 1.969-.313.7-.117 1.357-.23 2-.35 1.763-.264 3.667-.686 5.687-1.25a71.091 71.091 0 0 0 6.625-2.212c40.485-15.784 94.498-31.568 135-47.35 2.26-.88 3.587-1.776 3.938-2.55.344-.762-.284-1.398-1.72-1.825-.024-.007-.036-.018-.062-.025-.304-.145-.61-.29-1-.425-.027-.01-.065-.016-.093-.025a17.334 17.334 0 0 0-.875-.275c-.166-.048-.355-.092-.532-.138a29.264 29.264 0 0 0-1.312-.312c-.117-.025-.224-.051-.344-.075a47.03 47.03 0 0 0-1.906-.338h-.063c-.345-.055-.666-.111-1.03-.162-.349-.05-.73-.092-1.095-.138a104.217 104.217 0 0 0-4.906-.487c-.343-.027-.649-.064-1-.088-.542-.038-1.127-.067-1.687-.1a196.608 196.608 0 0 0-6.47-.275c-.315-.01-.649-.016-.968-.025-.806-.023-1.612-.045-2.437-.062-.77-.017-1.529-.038-2.313-.05-1.222-.02-2.464-.038-3.719-.05-.725-.007-1.483-.007-2.218-.013-.235-.002-.452-.011-.688-.012-2.26-.015-4.576-.025-6.937-.025z" style="marker:none" opacity=".77" fill="gray" overflow="visible"/><path d="M153.284-119.156c-12.29 0-24.197.143-35.909.607-11.71.464-23.23 1.274-34.378 2.716-11.148 1.442-21.916 3.534-31.776 6.345-9.86 2.81-18.799 6.34-26.122 10.312-6.635 2.783-12.493 7.042-16.615 12.075-4.12 5.033-6.48 10.815-6.328 16.53C4.886 32.066 42.74 134.702 45.418 237.333c.15 5.697 1.142 10.518 2.798 14.353 1.655 3.835 3.999 6.71 7.057 8.404 3.317 2.825 7.685 5.554 13.336 8.31 5.65 2.754 12.601 5.536 20.918 8.12 8.317 2.582 18.008 4.949 28.792 6.655 10.784 1.706 22.656 2.727 34.965 2.728 12.302 0 24.171-1.018 34.955-2.72 10.783-1.704 20.477-4.067 28.798-6.648 8.32-2.58 15.277-5.362 20.934-8.116 5.657-2.754 10.031-5.483 13.353-8.307 3.07-1.69 5.419-4.567 7.077-8.41 1.658-3.842 2.651-8.674 2.8-14.382 2.67-102.639 40.502-205.274 43.224-307.906.151-5.725-2.208-11.516-6.335-16.555-4.128-5.039-9.996-9.3-16.649-12.076-7.328-3.967-16.269-7.49-26.13-10.294-9.861-2.805-20.627-4.89-31.771-6.329-11.144-1.438-22.66-2.245-34.365-2.709-11.706-.463-23.607-.607-35.89-.608z" style="marker:none" fill="url(#x)" overflow="visible" transform="translate(291.367 46.742) scale(.38444)"/><path d="M301.82-77.123c-.029 2.928-1.341 5.553-3.743 7.889-2.4 2.336-5.888 4.389-10.237 6.243-4.348 1.854-9.556 3.514-15.411 5.073-5.856 1.56-12.357 3.022-19.33 4.432a624.528 624.528 0 0 1-22.205 4.05 620.301 620.301 0 0 1-24.318 3.53c-8.398 1.043-17.06 1.921-25.947 2.532-8.887.61-18 .95-27.33.95-9.331 0-18.444-.34-27.331-.95-8.888-.611-17.55-1.49-25.948-2.532a621.266 621.266 0 0 1-24.321-3.529 625.618 625.618 0 0 1-22.208-4.048c-6.974-1.409-13.476-2.87-19.332-4.428-5.856-1.559-11.065-3.218-15.415-5.07-4.35-1.854-7.837-3.905-10.239-6.241-2.402-2.336-3.715-4.961-3.744-7.889-.029-2.927 1.23-6.017 3.646-9.138 2.414-3.12 5.982-6.269 10.492-9.27 4.51-3 9.957-5.849 16.088-8.399 6.131-2.55 12.943-4.799 20.185-6.678 7.243-1.88 14.913-3.392 22.815-4.56 7.903-1.169 16.035-1.997 24.289-2.58 8.253-.583 16.628-.925 25.118-1.133 8.49-.208 17.097-.287 25.906-.287 8.81 0 17.416.08 25.905.288 8.49.209 16.864.55 25.116 1.134 8.253.583 16.384 1.412 24.285 2.58 7.9 1.168 15.57 2.678 22.811 4.557 7.241 1.879 14.051 4.127 20.181 6.675 6.13 2.55 11.577 5.397 16.086 8.396 4.508 3 8.076 6.146 10.49 9.267 2.415 3.12 3.674 6.21 3.646 9.136z" style="marker:none" fill="url(#y)" stroke="url(#z)" stroke-width="4.843" stroke-linecap="round" stroke-linejoin="round" overflow="visible" transform="translate(291.367 46.742) scale(.38444)"/><path d="M13.14 12.646c3.664 23.32 8.142 46.655 12.618 70.004.563 2.936 2.002 5.463 4.166 7.641 2.165 2.178 5.054 4.012 8.55 5.629 3.496 1.617 7.6 3.021 12.231 4.336 4.632 1.314 9.792 2.542 15.427 3.745a482.156 482.156 0 0 0 18.29 3.515 493.357 493.357 0 0 0 20.87 3.172 399.802 399.802 0 0 0 23.113 2.335c8.03.568 16.361.887 24.896.887 8.534 0 16.865-.319 24.897-.887a399.71 399.71 0 0 0 23.115-2.336c7.354-.953 14.33-2.04 20.875-3.174a482.3 482.3 0 0 0 18.295-3.517c5.637-1.203 10.799-2.431 15.432-3.747 4.632-1.315 8.738-2.72 12.235-4.336 3.497-1.617 6.387-3.451 8.552-5.63 2.165-2.177 3.604-4.705 4.167-7.64 4.475-23.35 8.95-46.685 12.613-70.004-.058.366-.147.72-.238 1.074-.075.293-.144.588-.241.873-.036.105-.079.205-.117.309a11.8 11.8 0 0 1-.336.817c-.058.127-.132.248-.195.372-.077.152-.158.295-.242.445-.212.38-.432.75-.687 1.115-.226.323-.471.651-.73.962-.005.006.003.02-.003.027-.143.171-.298.331-.45.499-.177.193-.372.366-.56.554-.096.095-.183.197-.282.29a19.254 19.254 0 0 1-1.888 1.58 27.37 27.37 0 0 1-2.907 1.882c-.25.143-.495.285-.754.425-.304.162-.607.308-.923.467-.132.066-.256.144-.39.21-.513.25-1.032.49-1.575.73-.554.246-1.108.502-1.693.738-.584.235-1.192.466-1.804.692-.298.11-.605.213-.91.321-.464.165-.93.33-1.408.49-.691.232-1.4.455-2.122.678-.288.089-.595.17-.887.257-1.01.302-2.034.63-3.101.92-1.153.313-2.347.596-3.562.897-.339.084-.676.173-1.02.256-.549.133-1.117.263-1.678.394-1.206.282-2.444.572-3.704.845-.792.172-1.58.341-2.393.51-.206.044-.41.086-.618.128-.477.099-.966.187-1.449.285-.58.117-1.158.216-1.748.332a426.203 426.203 0 0 1-8.82 1.644c-.483.086-.949.175-1.438.26-.54.095-1.067.183-1.612.277-.799.137-1.598.267-2.41.403-.24.04-.47.087-.712.128-.1.016-.195.039-.297.055-.956.16-1.922.312-2.895.47-.768.124-1.517.247-2.295.37-.322.051-.644.098-.968.149-.423.066-.861.118-1.287.184-.673.104-1.338.228-2.018.332-10.962 1.668-22.82 3.23-35.355 4.383-12.535 1.154-25.75 1.867-39.46 1.867s-26.926-.713-39.463-1.866c-12.536-1.153-24.394-2.714-35.354-4.381-1.17-.178-2.331-.35-3.48-.53-.622-.098-1.236-.202-1.851-.3-.814-.13-1.616-.278-2.419-.41-.66-.107-1.33-.213-1.982-.322-1.31-.218-2.618-.424-3.896-.645-.676-.117-1.34-.25-2.006-.368-.313-.055-.62-.118-.931-.174-.794-.141-1.599-.273-2.379-.416-.896-.164-1.759-.337-2.637-.503-.19-.036-.386-.056-.576-.092-.873-.166-1.742-.34-2.596-.508-.966-.19-1.889-.367-2.829-.56-.85-.175-1.682-.35-2.51-.528-.168-.036-.333-.078-.5-.114-.774-.167-1.558-.336-2.313-.506a216.57 216.57 0 0 1-3.41-.788c-.341-.083-.682-.174-1.02-.257-1.213-.3-2.41-.584-3.561-.897-1.067-.29-2.091-.617-3.102-.92-.293-.088-.598-.166-.886-.256a95.588 95.588 0 0 1-3.06-.996c-.16-.056-.312-.115-.47-.171-.304-.108-.614-.211-.91-.321a67.146 67.146 0 0 1-1.668-.641l-.137-.051c-.585-.237-1.14-.492-1.694-.738-.408-.18-.796-.36-1.187-.546-.13-.062-.258-.121-.386-.184-.136-.066-.258-.143-.392-.21-.311-.157-.622-.306-.922-.467-.257-.138-.507-.283-.755-.424a31.368 31.368 0 0 1-1.345-.803c-.419-.267-.831-.525-1.22-.804-.12-.087-.224-.187-.342-.275a19.554 19.554 0 0 1-1.888-1.58c-.099-.093-.186-.195-.281-.29-.189-.188-.384-.361-.56-.554-.15-.164-.278-.34-.419-.508-.007-.01-.028-.01-.036-.018-.258-.31-.504-.639-.73-.962a12.898 12.898 0 0 1-.583-.888c-.042-.073-.063-.153-.104-.227-.082-.148-.166-.294-.241-.445-.064-.125-.137-.244-.196-.371a11.81 11.81 0 0 1-.335-.818c-.038-.103-.082-.205-.118-.309-.097-.285-.166-.58-.24-.873-.092-.355-.181-.708-.239-1.074 0 0 0 0 0 0z" style="marker:none" fill="url(#A)" stroke="url(#B)" stroke-width="4.843" stroke-linecap="round" stroke-linejoin="round" overflow="visible" transform="translate(291.367 46.742) scale(.38444)"/><path d="M27.663 92.603c4.46 23.353 8.801 46.722 12.21 70.105a17.09 17.09 0 0 0 3.159 7.747c1.643 2.247 3.843 4.19 6.558 5.953 2.715 1.764 5.948 3.356 9.698 4.888s8.019 3.008 12.821 4.473c4.803 1.465 10.14 2.918 16.008 4.317a300.038 300.038 0 0 0 19.14 3.912 281.143 281.143 0 0 0 21.95 2.87c7.721.697 15.808 1.087 24.094 1.088 8.287 0 16.374-.39 24.096-1.088a281.127 281.127 0 0 0 21.955-2.87 300.043 300.043 0 0 0 19.145-3.914c5.869-1.399 11.209-2.853 16.013-4.318 4.804-1.466 9.076-2.942 12.827-4.475 3.751-1.533 6.985-3.125 9.702-4.889 2.716-1.764 4.917-3.706 6.56-5.954a17.083 17.083 0 0 0 3.159-7.747c3.408-23.384 7.749-46.752 12.206-70.106-.07.367-.165.72-.261 1.075-.08.293-.155.588-.251.872-.036.105-.078.205-.116.309-.1.274-.207.549-.324.815-.055.126-.123.247-.182.37-.072.152-.147.295-.224.444a14.504 14.504 0 0 1-1.281 2.066c-.005.006 0 .02-.005.027-.127.17-.263.329-.398.495-.155.192-.324.363-.489.55-.083.094-.16.196-.246.29a18.804 18.804 0 0 1-1.632 1.566 24.482 24.482 0 0 1-2.48 1.866c-.212.141-.42.283-.64.42-.258.162-.514.307-.78.464-.113.066-.219.144-.332.21-.433.248-.871.486-1.329.725-.467.244-.935.498-1.428.733-.491.235-1.003.464-1.519.69-.25.11-.509.212-.765.32-.39.164-.783.33-1.186.49a73.49 73.49 0 0 1-1.786.679c-.242.089-.501.169-.747.257-.852.304-1.716.633-2.617.926-.973.316-1.982.602-3.011.907-.287.085-.573.176-.865.26-.465.135-.947.268-1.424.401-1.025.287-2.079.583-3.153.863-.676.177-1.35.35-2.045.524l-.53.132c-.407.1-.826.192-1.24.293-.5.12-.995.223-1.503.344a312.184 312.184 0 0 1-7.632 1.71c-.421.09-.827.182-1.254.271-.47.1-.931.192-1.409.29-.698.145-1.398.28-2.11.424-.211.043-.414.092-.626.134-.089.018-.172.041-.261.059-.841.167-1.691.328-2.55.495-.678.13-1.34.261-2.03.391-.285.054-.57.104-.857.158-.376.07-.764.125-1.143.195-.598.11-1.19.242-1.795.351-9.767 1.77-20.567 3.446-32.195 4.686-11.627 1.24-24.08 2.01-37.012 2.01-12.933 0-25.387-.77-37.014-2.01-11.627-1.239-22.428-2.914-32.192-4.683-1.042-.188-2.074-.37-3.093-.562-.55-.103-1.095-.213-1.638-.317-.72-.138-1.428-.293-2.135-.431-.582-.114-1.17-.225-1.744-.34-1.15-.23-2.297-.447-3.413-.678-.591-.123-1.17-.262-1.75-.386-.273-.058-.541-.123-.812-.181-.69-.148-1.389-.286-2.065-.435-.777-.17-1.524-.35-2.283-.523-.164-.037-.333-.058-.497-.095-.753-.173-1.502-.352-2.237-.526-.83-.197-1.622-.38-2.428-.579-.728-.18-1.44-.36-2.147-.542-.143-.037-.284-.08-.426-.117-.661-.172-1.33-.345-1.972-.518a162.28 162.28 0 0 1-2.897-.803c-.29-.084-.578-.176-.864-.26-1.028-.306-2.039-.592-3.011-.907-.9-.293-1.766-.622-2.617-.926-.248-.089-.503-.168-.747-.257a73.515 73.515 0 0 1-2.575-.997c-.135-.056-.263-.115-.397-.171-.255-.108-.516-.21-.765-.32a53.023 53.023 0 0 1-1.404-.639l-.115-.05c-.493-.236-.961-.49-1.429-.734-.344-.18-.672-.358-1.002-.543-.11-.062-.218-.12-.326-.182-.115-.066-.218-.142-.332-.21-.263-.155-.526-.303-.78-.463-.218-.137-.43-.28-.64-.42l-.4-.27c-.248-.172-.506-.35-.744-.526-.357-.265-.709-.52-1.041-.797-.104-.086-.194-.186-.295-.273a18.93 18.93 0 0 1-1.632-1.567c-.086-.093-.163-.194-.247-.289-.164-.186-.334-.358-.489-.55-.131-.162-.247-.338-.371-.504-.007-.01-.025-.009-.031-.018a15.829 15.829 0 0 1-.653-.956 14.493 14.493 0 0 1-.53-.884c-.039-.072-.06-.153-.098-.226-.077-.147-.154-.293-.225-.443-.059-.125-.127-.243-.182-.37a14.225 14.225 0 0 1-.324-.816c-.038-.102-.08-.204-.116-.308-.097-.285-.171-.58-.25-.873a14.34 14.34 0 0 1-.263-1.074s0 0 0 0z" style="marker:none" fill="url(#C)" stroke="url(#D)" stroke-width="4.843" stroke-linecap="round" stroke-linejoin="round" overflow="visible" transform="translate(291.367 46.742) scale(.38444)"/><path d="M4.988-67.195C5.729-43.91 8.215-20.608 11.63 2.708c.43 2.932 1.961 5.48 4.41 7.688 2.45 2.208 5.816 4.078 9.917 5.725 4.102 1.646 8.94 3.073 14.36 4.397 5.42 1.323 11.423 2.546 17.892 3.73a648.62 648.62 0 0 0 20.715 3.425 653.09 653.09 0 0 0 23.009 3.044c8.005.909 16.323 1.682 24.9 2.222 8.578.54 17.415.842 26.465.842s17.888-.302 26.466-.842 16.897-1.314 24.903-2.223c8.006-.909 15.699-1.95 23.013-3.045a648.785 648.785 0 0 0 20.719-3.427c6.47-1.185 12.475-2.408 17.896-3.732 5.422-1.324 10.26-2.751 14.364-4.398 4.103-1.647 7.47-3.517 9.92-5.725 2.45-2.207 3.982-4.757 4.41-7.688 3.415-23.316 5.9-46.616 6.64-69.902-.013.43-.05.851-.117 1.268-.025.15-.06.3-.092.45-.047.221-.114.434-.176.652-.036.129-.048.268-.09.395-.125.381-.289.75-.46 1.12-.19.408-.409.798-.654 1.192a12.69 12.69 0 0 1-.803 1.163c-.197.249-.415.487-.634.73-.115.127-.233.245-.354.371-.353.366-.73.723-1.134 1.075-.294.256-.608.508-.929.758-.12.093-.224.198-.348.291-.033.024-.081.037-.114.061-.369.272-.751.565-1.151.829-.048.031-.104.05-.152.082-.51.332-1.035.65-1.594.97-.539.309-1.111.608-1.693.905-.59.3-1.193.597-1.827.887-.592.272-1.184.552-1.813.815-.048.02-.098.037-.147.058-.498.207-1.02.42-1.54.621l-.256.096a82.67 82.67 0 0 1-2.508.914c-.755.264-1.511.513-2.303.769-.521.169-1.072.335-1.608.5-.893.277-1.797.548-2.73.816-.015.004-.023.018-.037.022-1.248.358-2.538.698-3.855 1.044-.37.097-.738.2-1.113.296-.6.154-1.221.306-1.834.458-1.485.368-3 .731-4.557 1.089-.137.031-.271.06-.408.092-.906.207-1.814.412-2.742.615-.088.02-.181.036-.27.055-.94.206-1.889.396-2.851.599-1.028.216-2.076.434-3.128.648a541.89 541.89 0 0 1-9.784 1.891c-1.12.206-2.24.411-3.38.615-.109.019-.212.044-.321.063-1.035.184-2.079.361-3.13.543-2.323.403-4.678.802-7.074 1.191-11.78 1.914-24.368 3.671-37.521 4.957-13.153 1.285-26.874 2.07-41.1 2.07-14.227 0-27.948-.785-41.1-2.07-13.154-1.285-25.743-3.042-37.524-4.955-1.195-.194-2.38-.395-3.557-.592a688.857 688.857 0 0 1-3.519-.598c-1.06-.184-2.086-.358-3.13-.543-.099-.018-.189-.048-.288-.065-1.14-.204-2.294-.407-3.413-.613-1.116-.205-2.217-.414-3.311-.622a552.737 552.737 0 0 1-3.273-.63c-.975-.19-1.914-.39-2.87-.583-.208-.042-.422-.069-.63-.11-.95-.195-1.898-.396-2.83-.592-1.053-.222-2.061-.431-3.088-.656a332.26 332.26 0 0 1-2.742-.615c-.183-.042-.362-.09-.544-.132-.846-.195-1.704-.392-2.529-.59a236.871 236.871 0 0 1-3.726-.917c-.373-.096-.745-.2-1.113-.296a180.447 180.447 0 0 1-3.856-1.044c-.014-.004-.022-.018-.036-.022-.932-.267-1.84-.54-2.73-.814-.537-.166-1.088-.333-1.609-.501a104.692 104.692 0 0 1-4.519-1.566 72.054 72.054 0 0 1-2.089-.834l-.147-.057c-.629-.263-1.22-.544-1.813-.815-.436-.2-.85-.397-1.266-.602-.194-.096-.372-.189-.561-.285a40.771 40.771 0 0 1-1.693-.904c-1.053-.602-2.055-1.227-2.934-1.875-.029-.021-.049-.046-.077-.068-.46-.342-.869-.693-1.278-1.05-.402-.35-.782-.71-1.134-1.074a14.939 14.939 0 0 1-.988-1.1c-.298-.379-.558-.771-.803-1.164-.19-.305-.372-.6-.529-.914-.046-.092-.081-.185-.125-.278-.171-.37-.335-.738-.46-1.12-.042-.128-.054-.265-.09-.394-.062-.216-.13-.433-.176-.653-.031-.15-.067-.297-.092-.45a9.854 9.854 0 0 1-.118-1.267s0 0 0 0z" style="marker:none" fill="url(#E)" stroke="url(#F)" stroke-width="4.843" stroke-linecap="round" stroke-linejoin="round" overflow="visible" transform="translate(291.367 46.742) scale(.38444)"/><path d="M41.268 172.675c3.128 23.388 5.208 46.79 5.424 70.207.028 2.944.551 5.588 1.533 8.005.982 2.416 2.424 4.61 4.368 6.699 1.944 2.088 4.392 4.076 7.43 6.053 3.037 1.976 6.666 3.944 10.966 5.913 4.3 1.97 9.273 3.941 14.945 5.831 5.672 1.89 12.045 3.695 19.056 5.265 7.01 1.57 14.66 2.9 22.783 3.826a226.467 226.467 0 0 0 25.527 1.443c8.81 0 17.405-.516 25.529-1.441a217.04 217.04 0 0 0 22.788-3.825c7.013-1.57 13.388-3.376 19.063-5.267 5.674-1.89 10.65-3.862 14.952-5.832 4.302-1.97 7.933-3.939 10.973-5.916 3.039-1.977 5.49-3.965 7.434-6.054 1.945-2.09 3.388-4.284 4.37-6.7.983-2.417 1.507-5.06 1.534-8.005.215-23.418 2.294-46.821 5.421-70.209-.058.432-.127.854-.212 1.27-.03.15-.067.3-.102.448-.05.221-.111.433-.17.65-.035.127-.057.267-.094.393a17.29 17.29 0 0 1-.376 1.108c-.149.403-.311.788-.488 1.176-.176.386-.36.773-.563 1.144-.133.244-.278.477-.423.714-.076.125-.153.24-.232.364a18.397 18.397 0 0 1-1.317 1.79c-.075.092-.142.195-.22.286-.02.024-.048.035-.069.059-.23.265-.468.553-.714.81-.03.03-.062.049-.092.08-.314.324-.634.635-.974.948-.328.3-.674.593-1.026.884-.357.295-.72.586-1.103.871-.357.267-.714.544-1.093.804-.03.02-.059.037-.088.057-.3.204-.615.414-.929.615-.05.033-.102.062-.153.094a41.77 41.77 0 0 1-1.515.91c-.457.265-.915.514-1.397.772-.317.17-.653.338-.98.506-.546.28-1.1.555-1.676.83-.009.004-.014.018-.022.022-.77.366-1.57.716-2.392 1.075-.231.1-.462.207-.697.307-.377.16-.767.32-1.155.478-.938.386-1.904.77-2.907 1.151l-.263.099c-.584.22-1.174.44-1.78.659-.057.02-.118.039-.176.06-.614.22-1.238.427-1.875.647-.681.236-1.38.474-2.086.71-2.12.705-4.359 1.407-6.715 2.104-.786.233-1.578.465-2.39.696-.078.022-.15.05-.229.072-.738.21-1.487.412-2.247.62-1.68.46-3.41.92-5.195 1.372a278.816 278.816 0 0 1-29.97 5.863 262.99 262.99 0 0 1-35.958 2.498c-12.66 0-24.835-.954-35.957-2.498a278.93 278.93 0 0 1-29.966-5.862c-.89-.225-1.766-.456-2.63-.683-.868-.23-1.722-.457-2.564-.688-.766-.21-1.503-.409-2.247-.62-.071-.02-.135-.053-.206-.073-.811-.231-1.627-.462-2.412-.694-.783-.231-1.55-.466-2.306-.699-.759-.233-1.512-.466-2.245-.7-.664-.212-1.299-.432-1.942-.645-.14-.046-.283-.075-.422-.121-.637-.213-1.268-.433-1.885-.646-.697-.242-1.36-.468-2.03-.71-.606-.22-1.195-.44-1.779-.66-.118-.044-.234-.096-.351-.14-.545-.207-1.093-.417-1.619-.625-.813-.323-1.587-.634-2.355-.961-.234-.1-.467-.208-.697-.308a80.149 80.149 0 0 1-2.391-1.074c-.01-.005-.014-.019-.023-.023a65.16 65.16 0 0 1-1.675-.829c-.328-.168-.664-.336-.98-.505a50.292 50.292 0 0 1-2.735-1.566c-.433-.27-.85-.547-1.259-.825-.03-.02-.059-.037-.088-.057-.379-.26-.736-.536-1.093-.804-.263-.196-.513-.39-.764-.59-.117-.094-.225-.186-.34-.28-.351-.291-.697-.584-1.025-.885a22.593 22.593 0 0 1-1.8-1.83c-.019-.02-.032-.045-.05-.066a19.348 19.348 0 0 1-.805-1.025c-.256-.342-.501-.695-.731-1.051-.23-.357-.451-.706-.655-1.078a17.398 17.398 0 0 1-.564-1.144c-.136-.3-.268-.59-.388-.9-.036-.091-.065-.184-.099-.275-.135-.365-.265-.73-.377-1.109-.037-.127-.059-.264-.093-.393-.058-.214-.12-.43-.17-.65-.035-.149-.072-.295-.103-.447a18.79 18.79 0 0 1-.212-1.27s0 0 0 0z" style="marker:none" fill="url(#G)" stroke="url(#H)" stroke-width="4.843" stroke-linecap="round" stroke-linejoin="round" overflow="visible" transform="translate(291.367 46.742) scale(.38444)"/></g><g color="#000"><path d="M219.639 255.265c-1.363 0-2.734.004-4.094.013-.915.006-1.838.015-2.75.025-.437.004-.876.007-1.312.012-1.163.014-2.345.03-3.5.05-1.516.027-3.034.063-4.532.1-1.003.025-2.006.058-3 .088-1.094.032-2.169.061-3.25.1-.19.007-.403.018-.593.025-.071.002-.148.01-.219.012-1.565.058-3.126.118-4.656.188-.526.024-1.042.05-1.563.075-.728.035-1.437.061-2.156.1-.544.029-1.056.056-1.594.087-.381.022-.778.053-1.156.075-1.518.09-3.034.184-4.5.288-.038.003-.088.01-.125.012l-.656.05c-.914.066-1.798.129-2.688.2-.524.042-1.047.082-1.562.125-.599.05-1.195.11-1.782.163-.983.088-1.96.18-2.906.275l-.75.075c-.885.09-1.776.191-2.625.287a208.38 208.38 0 0 0-5.656.713l-.219.025c-5.816.68-12.062 2.101-15.781 3.675-33.819 14.306-65.746 27.856-102.531 43.35-2.042.86-3.356 1.686-3.938 2.4-.582.713-.458 1.318.406 1.737l.063.063c.132.126.29.25.469.375.007.005.024.007.031.012.216.15.469.302.75.45.112.059.222.117.344.175.186.09.383.174.594.263.23.097.521.192.78.287.123.045.216.093.345.138.228.08.44.159.687.237.062.02.124.043.188.063.44.135.906.269 1.406.4.16.042.302.083.469.125.006.002.025-.002.03 0 .18.044.408.08.595.125.487.114.994.229 1.53.337.115.023.197.052.313.075.364.071.74.132 1.125.2.556.099 1.117.196 1.72.288.128.02.243.043.374.062.7.103 1.458.195 2.219.288.216.026.403.062.625.087.572.066 1.144.129 1.75.188h.031a137.222 137.222 0 0 0 4.625.35c.426.025.842.052 1.281.075.312.016.62.035.938.05.403.018.805.034 1.219.05.153.006.314.007.468.012.973.034 1.97.069 3 .088 1.191.021 2.418.025 3.688.025.846 0 1.702-.003 2.562-.013l.72-.012c.107-.002.204.002.312 0 .087-.001.162.002.25 0 1.114-.019 2.274-.054 3.406-.088.772-.023 1.534-.045 2.312-.075.3-.011.606-.025.907-.037a326.995 326.995 0 0 0 4.188-.2h.062c2.17-.119 4.325-.254 6.5-.413l1.03-.075c.563-.042 1.128-.093 1.688-.137.7-.056 1.398-.116 2.094-.175.814-.07 1.599-.14 2.406-.213.282-.025.563-.049.844-.075.147-.014.29-.024.438-.037.887-.084 1.78-.175 2.656-.263.351-.035.682-.064 1.031-.1.432-.044.852-.092 1.281-.137 1.941-.205 3.86-.417 5.72-.638l.093-.012c.013-.002.018.002.031 0 .513-.061 1.057-.126 1.563-.188.376-.046.722-.09 1.093-.137l.688-.088c2.59-.329 5.07-.666 7.406-1.012.679-.1 1.346-.199 2-.3.967-.15 1.903-.311 2.813-.463l.093-.012a100.755 100.755 0 0 0 9.032-1.725c2.989-.715 5.8-1.539 8.062-2.4 40.683-15.494 76.504-29.044 114.219-43.35 4.162-1.58 5.012-2.999 2.562-3.675-.026-.007-.035-.018-.062-.025a8.097 8.097 0 0 0-.844-.35c-.022-.008-.04-.018-.062-.025-.225-.077-.49-.151-.75-.225-.138-.04-.26-.087-.407-.125-.158-.041-.33-.085-.5-.125-.375-.09-.82-.166-1.25-.25a45.937 45.937 0 0 0-1.406-.25c-.315-.052-.6-.113-.937-.163-.305-.045-.647-.082-.97-.125a88.785 88.785 0 0 0-1.968-.237c-.065-.007-.122-.018-.187-.025-.933-.102-1.923-.199-2.97-.288-.32-.027-.669-.049-1-.075-.348-.027-.67-.061-1.03-.087a256.019 256.019 0 0 0-5.875-.338l-.47-.025c-.414-.019-.856-.032-1.28-.05-.708-.03-1.423-.062-2.157-.087-.881-.031-1.77-.062-2.687-.088a473.674 473.674 0 0 0-8.469-.162c-.334-.004-.663-.01-1-.013a640.454 640.454 0 0 0-5.75-.025z" style="marker:none" opacity=".77" fill="gray" overflow="visible"/><path d="M1112.233-100.966c-14.186 0-27.898.43-40.851 1.28-12.953.85-25.146 2.127-36.303 3.846-11.156 1.72-21.276 3.884-30.092 6.454-8.817 2.57-16.33 5.543-22.285 8.794-10.936 4.352-18.127 13.726-17.563 24.086 5.07 93.037 10.138 181.145 15.207 281.898.281 5.592 2.24 10.928 5.366 15.566a35.762 35.762 0 0 0 12.387 11.307c5.51 3.948 12.336 7.831 20.234 11.51 7.899 3.68 16.87 7.152 26.684 10.166a231.616 231.616 0 0 0 31.743 7.35 227.407 227.407 0 0 0 35.479 2.794c12.3 0 24.191-1.006 35.464-2.786a231.729 231.729 0 0 0 31.739-7.337c9.813-3.01 18.787-6.48 26.688-10.156 7.902-3.675 14.731-7.556 20.247-11.502a35.665 35.665 0 0 0 12.414-11.314c3.13-4.646 5.09-9.992 5.371-15.595 5.067-100.757 10.134-188.867 15.201-281.904.565-10.379-6.627-19.773-17.598-24.114-5.96-3.247-13.48-6.217-22.3-8.782-8.82-2.566-18.943-4.727-30.1-6.443-11.157-1.716-23.35-2.99-36.299-3.84-12.95-.848-26.656-1.277-40.833-1.278z" style="marker:none" fill="url(#I)" overflow="visible" transform="translate(-355.975 204.04) scale(.38444)"/><path d="M1257.456-62.096c-.285 5.333-4.617 10.175-12.152 14.536-7.536 4.361-18.273 8.278-31.411 11.722-13.139 3.445-28.678 6.418-45.863 8.56-17.185 2.142-36.015 3.42-55.778 3.42-19.763-.001-38.594-1.279-55.779-3.42-17.185-2.143-32.724-5.115-45.863-8.56-13.138-3.444-23.876-7.36-31.41-11.72-7.536-4.36-11.868-9.202-12.154-14.536-.285-5.333 3.509-10.653 10.67-15.527 7.16-4.874 17.687-9.266 30.825-12.792 13.139-3.526 28.888-6.186 46.448-7.934 17.559-1.748 36.928-2.619 57.262-2.619 20.334 0 39.703.871 57.262 2.62 17.56 1.748 33.309 4.407 46.447 7.933 13.139 3.525 23.666 7.917 30.827 12.79 7.16 4.874 10.955 10.193 10.67 15.527z" style="marker:none" fill="url(#J)" stroke="url(#K)" stroke-width="4.843" stroke-linecap="round" stroke-linejoin="round" overflow="visible" transform="translate(-355.975 204.04) scale(.38444)"/><path d="M971.437 18.716c1.135 20.86 2.271 41.718 3.407 62.78.286 5.296 4.399 10.236 11.538 14.832 7.14 4.597 17.305 8.885 29.737 12.742 12.432 3.857 27.131 7.279 43.384 9.76 16.253 2.48 34.06 3.981 52.75 3.982 18.69 0 36.498-1.5 52.754-3.981 16.255-2.48 30.958-5.902 43.394-9.76 12.435-3.858 22.604-8.146 29.746-12.743 7.143-4.597 11.258-9.536 11.543-14.833 1.136-21.062 2.271-41.92 3.407-62.78-.018.328-.065.651-.114.976-.04.268-.074.536-.134.802-.022.098-.051.194-.076.291-.066.259-.138.519-.224.775-.04.12-.096.24-.14.361-.054.147-.114.288-.175.434-.154.373-.318.738-.513 1.106-.172.325-.363.66-.566.982v.024c-.114.178-.238.348-.36.525-.142.203-.302.393-.455.595-.077.102-.148.209-.228.31a20.024 20.024 0 0 1-1.572 1.756 28.069 28.069 0 0 1-2.497 2.222c-.218.173-.432.346-.66.519-.265.202-.533.389-.812.589-.117.084-.226.176-.345.26a44.71 44.71 0 0 1-1.402.943c-.496.321-.993.65-1.522.967a60.94 60.94 0 0 1-1.64.944c-.273.152-.554.298-.834.449-.425.23-.853.46-1.295.686-.638.328-1.296.65-1.969.973-.267.128-.555.252-.828.38-.945.441-1.904.904-2.913 1.337-1.09.467-2.228.91-3.39 1.368-.324.127-.647.26-.977.386-.527.203-1.073.405-1.614.606-1.164.431-2.363.87-3.59 1.292-.771.266-1.541.526-2.337.787l-.607.198c-.467.151-.949.295-1.424.446-.572.18-1.143.343-1.726.522a221.44 221.44 0 0 1-8.794 2.502c-.486.13-.954.258-1.447.385-.544.141-1.076.274-1.628.413-.807.204-1.616.398-2.439.598-.244.06-.478.124-.723.182-.102.025-.198.054-.3.078-.973.233-1.956.457-2.949.684-.783.179-1.548.354-2.344.53-.33.072-.66.14-.992.213-.433.094-.883.175-1.32.268-.691.147-1.373.31-2.073.454-11.277 2.326-23.698 4.29-36.95 5.671a405.929 405.929 0 0 1-41.945 2.166c-14.613 0-28.696-.786-41.948-2.167-13.252-1.38-25.673-3.345-36.948-5.67-1.204-.249-2.396-.494-3.573-.75-.637-.14-1.265-.284-1.894-.425-.831-.187-1.648-.39-2.466-.58-.672-.156-1.353-.313-2.016-.472-1.33-.32-2.655-.632-3.944-.961-.683-.175-1.35-.363-2.021-.54-.315-.083-.623-.173-.935-.256-.798-.213-1.605-.42-2.385-.637-.896-.25-1.756-.505-2.629-.759-.19-.055-.385-.096-.574-.15-.867-.255-1.728-.518-2.572-.777a197.13 197.13 0 0 1-2.787-.87c-.835-.269-1.65-.54-2.458-.813-.164-.055-.324-.116-.486-.172a169.2 169.2 0 0 1-2.25-.782c-1.132-.405-2.213-.8-3.288-1.214-.327-.126-.654-.259-.976-.386-1.161-.457-2.301-.9-3.39-1.368-1.008-.433-1.969-.895-2.913-1.337-.274-.128-.56-.25-.829-.38a81.687 81.687 0 0 1-2.831-1.422c-.148-.078-.287-.158-.432-.237-.278-.15-.563-.297-.834-.448a61.798 61.798 0 0 1-1.516-.874l-.124-.07c-.529-.318-1.026-.646-1.522-.968a45.105 45.105 0 0 1-1.06-.707c-.115-.08-.229-.156-.343-.236-.12-.084-.226-.175-.344-.26-.275-.197-.55-.389-.813-.588-.225-.172-.443-.347-.66-.52a33.12 33.12 0 0 1-1.165-.967c-.36-.317-.715-.625-1.044-.945-.103-.1-.188-.208-.288-.309a20.321 20.321 0 0 1-1.572-1.756c-.08-.102-.15-.208-.227-.31-.153-.202-.314-.392-.454-.595-.12-.173-.22-.352-.33-.526-.007-.01-.026-.014-.032-.023a14.848 14.848 0 0 1-.567-.982c-.157-.298-.31-.587-.44-.888-.032-.072-.043-.146-.073-.218-.06-.145-.12-.288-.174-.434-.045-.121-.1-.24-.14-.361a11.357 11.357 0 0 1-.224-.775c-.025-.096-.055-.194-.077-.29-.06-.267-.094-.535-.134-.803a10.485 10.485 0 0 1-.114-.976s0 0 0 0z" style="marker:none" fill="url(#L)" stroke="url(#M)" stroke-width="4.843" stroke-linecap="round" stroke-linejoin="round" overflow="visible" transform="translate(-355.975 204.04) scale(.38444)"/><path d="M975.328 90.485c1.136 21.123 2.272 42.48 3.407 64.277.286 5.482 4.29 10.757 11.233 15.798 6.943 5.04 16.823 9.88 28.903 14.283 12.08 4.404 26.36 8.362 42.147 11.238a287.126 287.126 0 0 0 51.235 4.623c18.153 0 35.45-1.747 51.24-4.621 15.79-2.875 30.073-6.834 42.157-11.238 12.083-4.404 21.967-9.243 28.912-14.284 6.946-5.042 10.952-10.317 11.237-15.799a38735.52 38735.52 0 0 1 3.407-64.278c-.018.332-.064.66-.112.99-.039.272-.073.544-.132.815-.022.1-.05.196-.075.296-.065.263-.135.527-.218.789-.04.123-.094.246-.138.37-.052.15-.11.293-.17.442-.15.382-.31.755-.5 1.133-.169.333-.355.677-.553 1.008-.01.007 0 .018 0 .025-.11.183-.232.358-.351.54-.138.21-.294.406-.443.614-.075.105-.144.215-.222.32a20.957 20.957 0 0 1-1.53 1.819 29.02 29.02 0 0 1-2.432 2.316c-.212.182-.42.363-.642.543-.259.212-.52.408-.791.619-.114.088-.22.184-.335.272-.442.335-.892.662-1.365.993-.483.34-.966.686-1.481 1.021-.514.335-1.052.67-1.596 1-.265.162-.54.317-.811.478-.414.243-.83.488-1.26.73-.621.35-1.26.692-1.915 1.038-.26.137-.541.27-.806.407-.92.472-1.853.967-2.834 1.432-1.06.503-2.167.981-3.298 1.475-.315.138-.629.28-.95.417-.512.22-1.043.438-1.57.656-1.131.467-2.297.943-3.49 1.401a167.593 167.593 0 0 1-2.864 1.072c-.454.165-.922.323-1.385.487-.556.197-1.111.377-1.678.572a207.429 207.429 0 0 1-8.55 2.744c-.474.142-.93.283-1.409.423-.528.155-1.046.302-1.582.456-.785.224-1.572.439-2.372.66-.236.064-.464.135-.702.2-.1.027-.193.059-.293.086-.945.256-1.9.504-2.866.755-.762.198-1.506.391-2.28.586-.32.08-.64.156-.963.236-.422.104-.86.195-1.285.298-.671.163-1.334.343-2.014.503-10.964 2.58-23.038 4.773-35.919 6.317a343.362 343.362 0 0 1-40.77 2.426c-14.203 0-27.891-.883-40.773-2.427-12.88-1.544-24.955-3.739-35.916-6.318-1.17-.275-2.33-.548-3.474-.832-.619-.153-1.23-.314-1.84-.47-.81-.206-1.603-.429-2.398-.64-.654-.172-1.316-.345-1.96-.52-1.293-.353-2.582-.7-3.836-1.062-.663-.192-1.312-.399-1.965-.593-.306-.092-.606-.19-.909-.281-.775-.235-1.56-.464-2.318-.702-.872-.273-1.708-.553-2.557-.83-.184-.06-.375-.107-.558-.167-.843-.279-1.68-.566-2.501-.85-.928-.319-1.813-.624-2.71-.949-.813-.294-1.604-.588-2.391-.886-.159-.06-.315-.126-.473-.186-.734-.28-1.476-.567-2.187-.85a140.05 140.05 0 0 1-3.198-1.315c-.32-.136-.636-.28-.95-.417-1.13-.494-2.238-.973-3.298-1.475-.98-.466-1.914-.96-2.833-1.432-.267-.138-.545-.27-.806-.407a80.82 80.82 0 0 1-2.755-1.517c-.144-.083-.279-.168-.42-.251-.27-.16-.548-.317-.811-.477a61.92 61.92 0 0 1-1.476-.926l-.12-.075c-.515-.335-1-.682-1.482-1.021-.356-.25-.693-.493-1.03-.745-.113-.084-.224-.164-.335-.248-.117-.088-.22-.183-.335-.272-.268-.208-.535-.41-.791-.618-.22-.18-.432-.364-.642-.544a33.852 33.852 0 0 1-1.134-1.011c-.352-.33-.697-.651-1.017-.985-.1-.104-.183-.215-.28-.32a21.288 21.288 0 0 1-1.53-1.82c-.08-.104-.148-.213-.223-.319-.15-.208-.306-.404-.443-.614-.116-.177-.214-.362-.322-.54-.006-.01-.024-.015-.03-.025-.199-.33-.385-.674-.553-1.008a13.864 13.864 0 0 1-.43-.91c-.03-.074-.041-.148-.07-.222-.059-.148-.118-.295-.17-.443-.045-.125-.098-.245-.138-.37a12.058 12.058 0 0 1-.219-.789c-.024-.098-.053-.197-.074-.296-.06-.27-.093-.543-.132-.815-.048-.33-.094-.657-.112-.99 0 0 0 0 0 0z" style="marker:none" fill="url(#N)" stroke="url(#O)" stroke-width="4.843" stroke-linecap="round" stroke-linejoin="round" overflow="visible" transform="translate(-355.975 204.04) scale(.38444)"/><path d="M967.545-53.075c1.136 21.137 2.272 42.035 3.408 62.9.285 5.247 4.507 10.043 11.843 14.412 7.337 4.37 17.787 8.35 30.571 11.887 12.784 3.538 27.903 6.63 44.62 8.866 16.719 2.237 35.038 3.58 54.265 3.58 19.227.001 37.548-1.343 54.269-3.579 16.72-2.236 31.843-5.329 44.63-8.866 12.788-3.538 23.242-7.519 30.581-11.889 7.34-4.37 11.563-9.165 11.849-14.412a90060.73 90060.73 0 0 0 3.407-62.9c-.021.39-.061.775-.125 1.16-.023.14-.056.28-.085.418-.043.207-.102.408-.157.613-.032.12-.045.248-.082.368-.11.362-.252.716-.4 1.073-.163.394-.35.775-.56 1.163-.207.387-.429.777-.682 1.158-.166.251-.35.495-.536.744-.097.13-.197.253-.3.383a19.656 19.656 0 0 1-1.745 1.929c-.102.1-.19.209-.295.31-.028.026-.07.043-.097.07-.312.294-.637.609-.977.9-.04.034-.088.058-.128.093a31.998 31.998 0 0 1-2.803 2.118c-.506.347-1.023.69-1.568 1.032-.51.32-1.02.646-1.564.96-.042.025-.085.046-.127.07-.43.249-.883.504-1.335.75-.074.04-.148.076-.222.116a68.4 68.4 0 0 1-2.186 1.122c-.661.327-1.325.638-2.022.959-.458.211-.945.423-1.419.632-.79.348-1.591.69-2.423 1.032-.013.005-.02.019-.032.024-1.112.456-2.267.897-3.452 1.341-.333.125-.665.254-1.003.378-.542.198-1.103.396-1.66.592-1.345.474-2.727.942-4.155 1.403l-.374.12c-.831.266-1.667.528-2.525.79-.081.025-.168.047-.25.072-.869.264-1.75.512-2.645.771-.957.277-1.936.554-2.923.825a264.825 264.825 0 0 1-9.274 2.362c-1.072.253-2.15.503-3.25.75-.104.024-.204.052-.309.075-.999.224-2.01.439-3.03.656-2.256.482-4.558.952-6.915 1.404-11.591 2.226-24.359 4.092-37.981 5.4a452.447 452.447 0 0 1-43.121 2.048c-15.024 0-29.501-.741-43.123-2.049-13.621-1.308-26.388-3.173-37.98-5.399-1.175-.226-2.337-.46-3.487-.692a335.86 335.86 0 0 1-3.429-.712c-1.029-.22-2.022-.43-3.03-.656-.095-.021-.182-.053-.278-.075a307.569 307.569 0 0 1-3.28-.75c-1.069-.252-2.12-.51-3.16-.769-1.045-.26-2.086-.522-3.102-.787-.921-.24-1.805-.488-2.702-.733-.195-.053-.396-.093-.59-.146-.891-.246-1.776-.5-2.643-.752-.98-.283-1.916-.554-2.864-.843-.858-.261-1.694-.524-2.526-.79-.168-.054-.332-.114-.5-.168-.775-.25-1.558-.507-2.31-.762-1.163-.394-2.274-.78-3.378-1.184-.337-.124-.672-.254-1.003-.378a123.188 123.188 0 0 1-3.452-1.341c-.013-.006-.02-.02-.032-.024-.83-.341-1.636-.686-2.424-1.033-.474-.208-.96-.42-1.418-.631a82.01 82.01 0 0 1-3.955-1.94 61.375 61.375 0 0 1-1.81-1.007c-.043-.024-.086-.045-.128-.07-.543-.314-1.054-.64-1.563-.96a45.36 45.36 0 0 1-1.088-.704c-.166-.11-.318-.217-.48-.328a38.83 38.83 0 0 1-1.446-1.034 30.712 30.712 0 0 1-2.493-2.076c-.025-.023-.042-.049-.066-.072a22.63 22.63 0 0 1-1.082-1.117c-.34-.37-.662-.746-.959-1.121a16.827 16.827 0 0 1-.835-1.127 14.55 14.55 0 0 1-.683-1.157c-.162-.301-.317-.592-.452-.896-.04-.09-.07-.179-.108-.268-.148-.357-.289-.711-.399-1.072-.037-.122-.05-.247-.082-.369-.054-.203-.115-.408-.157-.612-.03-.14-.062-.278-.085-.418-.064-.386-.104-.77-.125-1.161 0 0 0 0 0 0z" style="marker:none" fill="url(#P)" stroke="url(#Q)" stroke-width="4.843" stroke-linecap="round" stroke-linejoin="round" overflow="visible" transform="translate(-355.975 204.04) scale(.38444)"/><path d="M979.22 164.079c1.135 21.926 2.271 44.322 3.407 67.394.286 5.803 4.181 11.605 10.927 17.308 6.745 5.703 16.341 11.336 28.07 16.512 11.727 5.175 25.588 9.88 40.91 13.3 15.321 3.418 32.105 5.504 49.72 5.504 17.616 0 34.4-2.083 49.725-5.501 15.324-3.419 29.188-8.124 40.92-13.3 11.731-5.176 21.33-10.81 28.078-16.513 6.749-5.703 10.646-11.506 10.931-17.308 1.136-23.073 2.272-45.47 3.407-67.396-.02.405-.059.806-.12 1.21-.021.145-.052.292-.08.438-.04.216-.095.429-.146.645-.03.127-.044.26-.078.387-.102.382-.234.759-.371 1.139-.152.42-.326.829-.52 1.246-.193.416-.398.837-.632 1.251-.154.273-.325.54-.496.811-.09.143-.183.278-.277.42a22.783 22.783 0 0 1-1.613 2.135c-.094.112-.175.231-.273.343-.026.03-.063.051-.089.08-.288.33-.588.683-.901 1.01-.038.04-.081.069-.119.108a34.937 34.937 0 0 1-2.585 2.418c-.466.4-.943.797-1.445 1.195-.47.372-.94.752-1.44 1.122l-.118.082a62.64 62.64 0 0 1-1.23.884c-.068.047-.136.09-.205.138a67.769 67.769 0 0 1-2.013 1.339c-.609.39-1.22.766-1.862 1.155-.422.255-.87.514-1.306.768-.727.423-1.465.842-2.23 1.261-.012.007-.018.022-.03.028-1.023.56-2.086 1.108-3.176 1.66-.306.156-.611.316-.923.47-.498.248-1.015.495-1.526.741-1.238.596-2.51 1.186-3.823 1.771-.115.052-.228.101-.344.152-.765.339-1.534.674-2.323 1.009-.075.031-.154.06-.229.092-.8.338-1.609.66-2.433.993-.88.357-1.78.714-2.687 1.066a211.246 211.246 0 0 1-8.525 3.089c-.986.334-1.977.664-2.987.99-.097.032-.188.068-.284.099-.919.296-1.847.583-2.785.872a251.01 251.01 0 0 1-6.355 1.876c-10.65 2.986-22.377 5.54-34.887 7.339a278.73 278.73 0 0 1-39.595 2.83 278.76 278.76 0 0 1-39.596-2.832c-12.51-1.799-24.236-4.354-34.887-7.34a254.81 254.81 0 0 1-3.204-.926 248.3 248.3 0 0 1-3.15-.95c-.947-.292-1.86-.574-2.785-.872-.088-.029-.168-.068-.256-.097-1.01-.327-2.03-.658-3.015-.992-.982-.333-1.948-.671-2.905-1.01-.96-.34-1.917-.685-2.852-1.03-.846-.314-1.659-.634-2.484-.952-.179-.069-.364-.123-.542-.192-.82-.32-1.633-.647-2.43-.97-.902-.366-1.761-.715-2.634-1.085a162.06 162.06 0 0 1-2.322-1.008c-.155-.068-.306-.143-.46-.211-.713-.319-1.434-.644-2.125-.965a133.73 133.73 0 0 1-3.109-1.488c-.31-.154-.618-.315-.922-.47-1.09-.552-2.155-1.1-3.177-1.66-.012-.007-.018-.021-.03-.028a98.323 98.323 0 0 1-2.23-1.261c-.436-.254-.884-.513-1.306-.768a80.225 80.225 0 0 1-3.641-2.327 62.279 62.279 0 0 1-1.669-1.188c-.039-.029-.078-.055-.117-.083-.5-.37-.971-.75-1.44-1.122a47.544 47.544 0 0 1-1.003-.816c-.153-.128-.294-.25-.443-.379-.46-.394-.91-.79-1.333-1.186a33.799 33.799 0 0 1-2.3-2.35c-.023-.026-.039-.053-.061-.08-.36-.413-.68-.825-1-1.242-.314-.41-.61-.824-.886-1.236a19.782 19.782 0 0 1-.773-1.23c-.234-.415-.439-.835-.632-1.251-.15-.324-.295-.637-.42-.962-.036-.095-.065-.19-.1-.285-.137-.38-.269-.757-.372-1.139-.034-.128-.046-.258-.076-.387-.051-.214-.108-.43-.148-.645-.027-.146-.057-.291-.08-.438-.06-.403-.098-.804-.12-1.21 0 0 0 0 0 0z" style="marker:none" fill="url(#R)" stroke="url(#S)" stroke-width="4.843" stroke-linecap="round" stroke-linejoin="round" overflow="visible" transform="translate(-355.975 204.04) scale(.38444)"/></g></svg>