<svg xmlns="http://www.w3.org/2000/svg" xmlns:xlink="http://www.w3.org/1999/xlink" width="530" height="320"><defs><linearGradient id="d"><stop offset="0" stop-color="#c61915"/><stop offset=".25" stop-color="#bc322a"/><stop offset=".5" stop-color="#c6564b"/><stop offset="1" stop-color="#e6b2a5"/></linearGradient><linearGradient id="c"><stop offset="0" stop-opacity="0"/><stop offset="1"/></linearGradient><linearGradient id="b"><stop offset="0" stop-color="#88601c"/><stop offset=".25" stop-color="#bf874c"/><stop offset=".5" stop-color="#ffb971"/><stop offset="1" stop-color="#69431c"/></linearGradient><linearGradient id="a"><stop offset="0"/><stop offset="1" stop-color="#fff"/></linearGradient><linearGradient xlink:href="#a" id="e" gradientUnits="userSpaceOnUse" gradientTransform="matrix(1.42915 0 0 1.42926 -297.044 -320.723)" x1="304.069" y1="721.8" x2="311.771" y2="721.8"/><linearGradient xlink:href="#a" id="f" gradientUnits="userSpaceOnUse" gradientTransform="matrix(1.42915 0 0 1.42926 -297.044 -320.723)" x1="303.474" y1="715.091" x2="311.176" y2="715.091"/><linearGradient xlink:href="#a" id="g" gradientUnits="userSpaceOnUse" gradientTransform="matrix(1.42915 0 0 1.42926 -297.044 -320.723)" x1="302.879" y1="708.381" x2="310.581" y2="708.381"/><linearGradient xlink:href="#a" id="h" gradientUnits="userSpaceOnUse" gradientTransform="matrix(1.42915 0 0 1.42926 -297.044 -320.723)" x1="302.284" y1="701.671" x2="309.987" y2="701.671"/><linearGradient xlink:href="#a" id="i" gradientUnits="userSpaceOnUse" gradientTransform="matrix(1.42915 0 0 1.42926 -297.044 -320.723)" x1="301.689" y1="694.962" x2="309.392" y2="694.962"/><linearGradient xlink:href="#a" id="j" gradientUnits="userSpaceOnUse" gradientTransform="matrix(1.42915 0 0 1.42926 -297.044 -320.723)" x1="301.094" y1="688.252" x2="308.797" y2="688.252"/><linearGradient xlink:href="#a" id="k" gradientUnits="userSpaceOnUse" gradientTransform="matrix(1.42915 0 0 1.42926 -297.044 -320.723)" x1="300.499" y1="681.542" x2="308.202" y2="681.542"/><linearGradient xlink:href="#a" id="l" gradientUnits="userSpaceOnUse" x1="651.018" y1="337.177" x2="675.582" y2="256.119" gradientTransform="matrix(1.1351 .8684 -.86834 1.1352 -297.044 -206.382)"/><linearGradient xlink:href="#a" id="m" gradientUnits="userSpaceOnUse" x1="315.744" y1="592.958" x2="318.448" y2="592.958" gradientTransform="matrix(1.42915 0 0 1.42926 -297.044 -206.382)"/><linearGradient xlink:href="#a" id="n" gradientUnits="userSpaceOnUse" x1="322.438" y1="589.304" x2="325.142" y2="589.304" gradientTransform="matrix(1.42915 0 0 1.42926 -297.044 -206.382)"/><linearGradient xlink:href="#a" id="o" gradientUnits="userSpaceOnUse" x1="329.031" y1="585.478" x2="331.735" y2="585.478" gradientTransform="matrix(1.42915 0 0 1.42926 -297.044 -206.382)"/><linearGradient xlink:href="#a" id="p" gradientUnits="userSpaceOnUse" x1="335.624" y1="581.651" x2="338.327" y2="581.651" gradientTransform="matrix(1.42915 0 0 1.42926 -297.044 -206.382)"/><linearGradient xlink:href="#a" id="q" gradientUnits="userSpaceOnUse" x1="342.216" y1="577.825" x2="344.92" y2="577.825" gradientTransform="matrix(1.42915 0 0 1.42926 -297.044 -206.382)"/><linearGradient xlink:href="#a" id="r" gradientUnits="userSpaceOnUse" x1="348.809" y1="573.999" x2="351.512" y2="573.999" gradientTransform="matrix(1.42915 0 0 1.42926 -297.044 -206.382)"/><radialGradient xlink:href="#b" id="s" gradientUnits="userSpaceOnUse" gradientTransform="matrix(.3582 -.22491 .03807 .06064 139.787 686.06)" spreadMethod="reflect" cx="430.743" cy="642.865" fx="430.743" fy="642.865" r="99.638"/><linearGradient xlink:href="#a" id="t" gradientUnits="userSpaceOnUse" x1="219.641" y1="572.381" x2="260.874" y2="572.381" gradientTransform="matrix(.20518 .059 -.05498 .22021 234.657 578.033)"/><linearGradient xlink:href="#a" id="u" gradientUnits="userSpaceOnUse" x1="219.641" y1="572.381" x2="260.874" y2="572.381" gradientTransform="matrix(.20518 .059 -.05498 .22021 234.657 588.497)"/><linearGradient xlink:href="#a" id="v" gradientUnits="userSpaceOnUse" x1="219.641" y1="572.381" x2="260.874" y2="572.381" gradientTransform="matrix(.20518 .059 -.05498 .22021 234.657 598.834)"/><linearGradient xlink:href="#a" id="w" gradientUnits="userSpaceOnUse" x1="219.641" y1="572.381" x2="260.874" y2="572.381" gradientTransform="matrix(.20518 .059 -.05498 .22021 234.657 609.426)"/><linearGradient xlink:href="#a" id="x" gradientUnits="userSpaceOnUse" x1="219.641" y1="572.381" x2="260.874" y2="572.381" gradientTransform="matrix(.20518 .059 -.05498 .22021 234.657 620.073)"/><linearGradient xlink:href="#a" id="y" gradientUnits="userSpaceOnUse" x1="219.641" y1="572.381" x2="260.874" y2="572.381" gradientTransform="matrix(.20518 .059 -.05498 .22021 234.657 630.721)"/><linearGradient xlink:href="#a" id="z" gradientUnits="userSpaceOnUse" x1="219.641" y1="572.381" x2="260.874" y2="572.381" gradientTransform="matrix(.20518 .059 -.05498 .22021 234.657 641.73)"/><linearGradient xlink:href="#a" id="A" gradientUnits="userSpaceOnUse" x1="219.641" y1="572.381" x2="260.874" y2="572.381" gradientTransform="matrix(.20518 .059 -.05498 .22021 243.473 572)"/><linearGradient xlink:href="#a" id="B" gradientUnits="userSpaceOnUse" x1="219.641" y1="572.381" x2="260.874" y2="572.381" gradientTransform="matrix(.20518 .059 -.05498 .22021 243.473 582.464)"/><linearGradient xlink:href="#a" id="C" gradientUnits="userSpaceOnUse" x1="219.641" y1="572.381" x2="260.874" y2="572.381" gradientTransform="matrix(.20518 .059 -.05498 .22021 243.473 592.8)"/><linearGradient xlink:href="#a" id="D" gradientUnits="userSpaceOnUse" x1="219.641" y1="572.381" x2="260.874" y2="572.381" gradientTransform="matrix(.20518 .059 -.05498 .22021 243.473 603.393)"/><linearGradient xlink:href="#a" id="E" gradientUnits="userSpaceOnUse" x1="219.641" y1="572.381" x2="260.874" y2="572.381" gradientTransform="matrix(.20518 .059 -.05498 .22021 243.473 614.04)"/><linearGradient xlink:href="#a" id="F" gradientUnits="userSpaceOnUse" x1="219.641" y1="572.381" x2="260.874" y2="572.381" gradientTransform="matrix(.20518 .059 -.05498 .22021 243.473 624.688)"/><linearGradient xlink:href="#a" id="G" gradientUnits="userSpaceOnUse" x1="219.641" y1="572.381" x2="260.874" y2="572.381" gradientTransform="matrix(.20518 .059 -.05498 .22021 243.473 635.697)"/><linearGradient xlink:href="#a" id="H" gradientUnits="userSpaceOnUse" x1="219.641" y1="572.381" x2="260.874" y2="572.381" gradientTransform="matrix(.20518 .059 -.05498 .22021 252.289 565.967)"/><linearGradient xlink:href="#a" id="I" gradientUnits="userSpaceOnUse" x1="219.641" y1="572.381" x2="260.874" y2="572.381" gradientTransform="matrix(.20518 .059 -.05498 .22021 252.289 576.431)"/><linearGradient xlink:href="#a" id="J" gradientUnits="userSpaceOnUse" x1="219.641" y1="572.381" x2="260.874" y2="572.381" gradientTransform="matrix(.20518 .059 -.05498 .22021 252.289 586.768)"/><linearGradient xlink:href="#a" id="K" gradientUnits="userSpaceOnUse" x1="219.641" y1="572.381" x2="260.874" y2="572.381" gradientTransform="matrix(.20518 .059 -.05498 .22021 252.289 597.36)"/><linearGradient xlink:href="#a" id="L" gradientUnits="userSpaceOnUse" x1="219.641" y1="572.381" x2="260.874" y2="572.381" gradientTransform="matrix(.20518 .059 -.05498 .22021 252.289 608.008)"/><linearGradient xlink:href="#a" id="M" gradientUnits="userSpaceOnUse" x1="219.641" y1="572.381" x2="260.874" y2="572.381" gradientTransform="matrix(.20518 .059 -.05498 .22021 252.289 618.655)"/><linearGradient xlink:href="#a" id="N" gradientUnits="userSpaceOnUse" x1="219.641" y1="572.381" x2="260.874" y2="572.381" gradientTransform="matrix(.20518 .059 -.05498 .22021 252.289 629.664)"/><linearGradient xlink:href="#a" id="O" gradientUnits="userSpaceOnUse" x1="219.641" y1="572.381" x2="260.874" y2="572.381" gradientTransform="matrix(.20518 .059 -.05498 .22021 261.105 559.934)"/><linearGradient xlink:href="#a" id="P" gradientUnits="userSpaceOnUse" x1="219.641" y1="572.381" x2="260.874" y2="572.381" gradientTransform="matrix(.20518 .059 -.05498 .22021 261.105 570.398)"/><linearGradient xlink:href="#a" id="Q" gradientUnits="userSpaceOnUse" x1="219.641" y1="572.381" x2="260.874" y2="572.381" gradientTransform="matrix(.20518 .059 -.05498 .22021 261.105 580.735)"/><linearGradient xlink:href="#a" id="R" gradientUnits="userSpaceOnUse" x1="219.641" y1="572.381" x2="260.874" y2="572.381" gradientTransform="matrix(.20518 .059 -.05498 .22021 261.105 591.327)"/><linearGradient xlink:href="#a" id="S" gradientUnits="userSpaceOnUse" x1="219.641" y1="572.381" x2="260.874" y2="572.381" gradientTransform="matrix(.20518 .059 -.05498 .22021 261.105 601.975)"/><linearGradient xlink:href="#a" id="T" gradientUnits="userSpaceOnUse" x1="219.641" y1="572.381" x2="260.874" y2="572.381" gradientTransform="matrix(.20518 .059 -.05498 .22021 261.105 612.622)"/><linearGradient xlink:href="#a" id="U" gradientUnits="userSpaceOnUse" x1="219.641" y1="572.381" x2="260.874" y2="572.381" gradientTransform="matrix(.20518 .059 -.05498 .22021 261.105 623.631)"/><linearGradient xlink:href="#a" id="V" gradientUnits="userSpaceOnUse" x1="219.641" y1="572.381" x2="260.874" y2="572.381" gradientTransform="matrix(.20518 .059 -.05498 .22021 269.92 553.901)"/><linearGradient xlink:href="#a" id="W" gradientUnits="userSpaceOnUse" x1="219.641" y1="572.381" x2="260.874" y2="572.381" gradientTransform="matrix(.20518 .059 -.05498 .22021 269.92 564.365)"/><linearGradient xlink:href="#a" id="X" gradientUnits="userSpaceOnUse" x1="219.641" y1="572.381" x2="260.874" y2="572.381" gradientTransform="matrix(.20518 .059 -.05498 .22021 269.92 574.702)"/><linearGradient xlink:href="#a" id="Y" gradientUnits="userSpaceOnUse" x1="219.641" y1="572.381" x2="260.874" y2="572.381" gradientTransform="matrix(.20518 .059 -.05498 .22021 269.92 585.294)"/><linearGradient xlink:href="#a" id="Z" gradientUnits="userSpaceOnUse" x1="219.641" y1="572.381" x2="260.874" y2="572.381" gradientTransform="matrix(.20518 .059 -.05498 .22021 269.92 595.942)"/><linearGradient xlink:href="#a" id="aa" gradientUnits="userSpaceOnUse" x1="219.641" y1="572.381" x2="260.874" y2="572.381" gradientTransform="matrix(.20518 .059 -.05498 .22021 269.92 606.59)"/><linearGradient xlink:href="#a" id="ab" gradientUnits="userSpaceOnUse" x1="219.641" y1="572.381" x2="260.874" y2="572.381" gradientTransform="matrix(.20518 .059 -.05498 .22021 269.92 617.598)"/><linearGradient xlink:href="#a" id="ac" gradientUnits="userSpaceOnUse" x1="219.641" y1="572.381" x2="260.874" y2="572.381" gradientTransform="matrix(.20518 .059 -.05498 .22021 278.737 558.333)"/><linearGradient xlink:href="#a" id="ad" gradientUnits="userSpaceOnUse" x1="219.641" y1="572.381" x2="260.874" y2="572.381" gradientTransform="matrix(.20518 .059 -.05498 .22021 278.737 568.67)"/><linearGradient xlink:href="#a" id="ae" gradientUnits="userSpaceOnUse" x1="219.641" y1="572.381" x2="260.874" y2="572.381" gradientTransform="matrix(.20518 .059 -.05498 .22021 278.737 579.261)"/><linearGradient xlink:href="#a" id="af" gradientUnits="userSpaceOnUse" x1="219.641" y1="572.381" x2="260.874" y2="572.381" gradientTransform="matrix(.20518 .059 -.05498 .22021 278.737 589.909)"/><linearGradient xlink:href="#a" id="ag" gradientUnits="userSpaceOnUse" x1="219.641" y1="572.381" x2="260.874" y2="572.381" gradientTransform="matrix(.20518 .059 -.05498 .22021 278.737 600.557)"/><linearGradient xlink:href="#a" id="ah" gradientUnits="userSpaceOnUse" x1="219.641" y1="572.381" x2="260.874" y2="572.381" gradientTransform="matrix(.20518 .059 -.05498 .22021 278.737 611.565)"/><linearGradient xlink:href="#a" id="ai" gradientUnits="userSpaceOnUse" x1="219.641" y1="572.381" x2="260.874" y2="572.381" gradientTransform="matrix(.20518 .059 -.05498 .22021 287.553 541.835)"/><linearGradient xlink:href="#a" id="aj" gradientUnits="userSpaceOnUse" x1="219.641" y1="572.381" x2="260.874" y2="572.381" gradientTransform="matrix(.20518 .059 -.05498 .22021 287.553 552.3)"/><linearGradient xlink:href="#a" id="ak" gradientUnits="userSpaceOnUse" x1="219.641" y1="572.381" x2="260.874" y2="572.381" gradientTransform="matrix(.20518 .059 -.05498 .22021 287.553 562.636)"/><linearGradient xlink:href="#a" id="al" gradientUnits="userSpaceOnUse" x1="219.641" y1="572.381" x2="260.874" y2="572.381" gradientTransform="matrix(.20518 .059 -.05498 .22021 287.553 573.228)"/><linearGradient xlink:href="#a" id="am" gradientUnits="userSpaceOnUse" x1="219.641" y1="572.381" x2="260.874" y2="572.381" gradientTransform="matrix(.20518 .059 -.05498 .22021 287.553 583.876)"/><linearGradient xlink:href="#a" id="an" gradientUnits="userSpaceOnUse" x1="219.641" y1="572.381" x2="260.874" y2="572.381" gradientTransform="matrix(.20518 .059 -.05498 .22021 287.553 594.524)"/><linearGradient xlink:href="#a" id="ao" gradientUnits="userSpaceOnUse" x1="219.641" y1="572.381" x2="260.874" y2="572.381" gradientTransform="matrix(.20518 .059 -.05498 .22021 287.553 605.532)"/><linearGradient xlink:href="#a" id="ap" gradientUnits="userSpaceOnUse" x1="219.641" y1="572.381" x2="260.874" y2="572.381" gradientTransform="matrix(.20518 .059 -.05498 .22021 296.369 535.802)"/><linearGradient xlink:href="#a" id="aq" gradientUnits="userSpaceOnUse" x1="219.641" y1="572.381" x2="260.874" y2="572.381" gradientTransform="matrix(.20518 .059 -.05498 .22021 296.369 546.267)"/><linearGradient xlink:href="#a" id="ar" gradientUnits="userSpaceOnUse" x1="219.641" y1="572.381" x2="260.874" y2="572.381" gradientTransform="matrix(.20518 .059 -.05498 .22021 296.369 556.603)"/><linearGradient xlink:href="#a" id="as" gradientUnits="userSpaceOnUse" x1="219.641" y1="572.381" x2="260.874" y2="572.381" gradientTransform="matrix(.20518 .059 -.05498 .22021 296.369 567.195)"/><linearGradient xlink:href="#a" id="at" gradientUnits="userSpaceOnUse" x1="219.641" y1="572.381" x2="260.874" y2="572.381" gradientTransform="matrix(.20518 .059 -.05498 .22021 296.369 577.843)"/><linearGradient xlink:href="#a" id="au" gradientUnits="userSpaceOnUse" x1="219.641" y1="572.381" x2="260.874" y2="572.381" gradientTransform="matrix(.20518 .059 -.05498 .22021 296.369 588.49)"/><linearGradient xlink:href="#a" id="av" gradientUnits="userSpaceOnUse" x1="219.641" y1="572.381" x2="260.874" y2="572.381" gradientTransform="matrix(.20518 .059 -.05498 .22021 296.369 599.5)"/><linearGradient xlink:href="#a" id="aw" gradientUnits="userSpaceOnUse" gradientTransform="matrix(.23991 .18354 -.18353 .23993 86.067 527.584)" x1="597.143" y1="305.545" x2="1150.762" y2="33.915"/><linearGradient xlink:href="#a" id="ax" gradientUnits="userSpaceOnUse" gradientTransform="matrix(.11305 .01472 -.01471 .11306 118.384 678.217)" x1="563.584" y1="281.576" x2="711.175" y2="325.137"/><radialGradient xlink:href="#c" id="ay" gradientUnits="userSpaceOnUse" gradientTransform="matrix(.1854 .26495 -4.81959 3.37321 3031.587 -1458.998)" cx="486.628" cy="561.65" fx="486.628" fy="561.65" r="99.608"/><linearGradient xlink:href="#a" id="az" gradientUnits="userSpaceOnUse" gradientTransform="matrix(1.1351 .8526 -.86834 1.11452 -297.044 -189.524)" x1="570.5" y1="255.671" x2="695.681" y2="279.715"/></defs><path d="M483.435 27.09c-2.374.026-4.819.54-7.37 2.337l-72.913 39.174S349.028 95.97 322.4 110.654c-18.888 10.417-36.831 22.823-55.984 32.625-15.144 7.75-39.51 18.384-57.285 25.95-18.28-14.394-37.25-27.478-56.236-40.302l-4.78 1.878-1.473 5.131-9.411-.041-1.484 5.173-9.412-.042-1.472 5.132-9.411-.042-1.484 5.173-9.412-.041-1.46 5.09-9.497-.21-1.472 5.132-9.412-.041 2.357 5.173-10.394-.042-4.51 1.71c-.007-.006-.038.008-.044 0l-1.085 4.715.42 8.97h-5.002l3.01 8.97h-4.735l3.067 8.927H61.02l3.054 8.97h-4.778l3.054 8.97h-4.779l3.055 8.969h-4.779l3.066 8.928h-4.778l-.846 4.506c23.708 29.876 56.378 50.79 87.33 73.425 5.984-7.89 6.509-11.654.338-.709l1.692-.918-.144.501 4.577-2.253 4.588-2.294-.155-.084.192-.667 1.32-.71-.108.376 4.576-2.253 4.589-2.295-.155-.083.168-.584 1.376-.751-.096.334 4.577-2.253 4.588-2.295-.155-.083.144-.5 1.32-.71-.06.209 4.576-2.253 4.589-2.295-.155-.083.12-.418 1.376-.75-.047.166 4.531-2.253 4.589-2.294-.155-.084.096-.334 1.376-.75-.024.083 4.577-2.253 4.588-2.295-.155-.083.072-.25 2.584-1.377 3.336-1.669 4.577-2.253-.143-.125.036-.125 4.162-2.21 1.827-.919 4.576-2.253-.143-.125 1.174-.667 9.752-37.422.335-1.168h-.044l.155-.543.26-.125-.143-.125 1.304-4.547 1.304-4.548-.315.167.107-.375.519-.25-.155-.084 1.304-4.547 1.305-4.548-.62.292.132-.459.834-.417-.143-.125 1.305-4.547 1.304-4.548-.89.46.07-.251.576-.292-.384-.376.267-1.084-.903.5a387.864 387.864 0 0 0-2.138-2.044c15.21-11.789 87.523-42.16 106.581-51.607C381.518 128 435.521 94.44 500.746 65.14c4.111-1.846 4.938-3.042 5.298-7.259 3.017-18.273-2.938-28.612-18.406-30.497-1.373-.162-2.78-.307-4.203-.292z" opacity=".3"/><path d="M137.515 710.456h5.717l5.292.922h-5.717l-5.292-.922" fill="url(#e)" transform="translate(-105.725 -480.467)"/><path d="M136.665 700.866h5.717l5.291.922h-5.716l-5.292-.922" fill="url(#f)" transform="translate(-105.725 -480.467)"/><path d="M135.815 691.276h5.717l5.291.923h-5.716l-5.292-.923" fill="url(#g)" transform="translate(-105.725 -480.467)"/><path d="M134.965 681.687h5.717l5.291.922h-5.717l-5.291-.922" fill="url(#h)" transform="translate(-105.725 -480.467)"/><path d="M134.115 672.097h5.716l5.292.922h-5.717l-5.291-.922" fill="url(#i)" transform="translate(-105.725 -480.467)"/><path d="M133.264 662.507h5.717l5.292.922h-5.717l-5.292-.922" fill="url(#j)" transform="translate(-105.725 -480.467)"/><path d="M132.414 652.917h5.717l5.291.922h-5.716l-5.292-.922" fill="url(#k)" transform="translate(-105.725 -480.467)"/><path style="marker:none" d="M134.16 638.247c35.759 31.003 70.702 60.389 112.166 81.881l.015 73.729c-37.445-24.234-76.123-46.62-108.4-78.606l-.425-4.795 5.291.922-6.142-10.512 5.292.922-6.142-10.512 5.292.923-6.142-10.512 5.292.922-6.142-10.512 5.291.922-6.141-10.512 5.291.922-6.142-10.512 5.292.922-3.283-10.512z" color="#000" fill="url(#l)" overflow="visible" transform="translate(-105.725 -480.467)"/><path d="M158.066 631.016v25.727l-3.864-5.541v-25.727l3.864 5.541" fill="url(#m)" transform="translate(-105.725 -480.467)"/><path d="M167.633 625.793v25.727l-3.864-5.541v-25.727l3.864 5.541" fill="url(#n)" transform="translate(-105.725 -480.467)"/><path d="M177.054 620.324v25.727l-3.864-5.54v-25.727l3.864 5.54" fill="url(#o)" transform="translate(-105.725 -480.467)"/><path d="M186.476 614.856v25.727l-3.864-5.541v-25.727l3.864 5.54" fill="url(#p)" transform="translate(-105.725 -480.467)"/><path d="M195.898 609.387v25.727l-3.864-5.54v-25.727l3.864 5.54" fill="url(#q)" transform="translate(-105.725 -480.467)"/><path d="M205.32 603.919v25.726l-3.864-5.54v-25.727l3.864 5.54" fill="url(#r)" transform="translate(-105.725 -480.467)"/><path style="marker:none" d="M254.113 649.416s47.112-23.482 69.215-37.677c16.341-10.494 30.72-23.793 46.62-34.945 22.414-15.721 68.7-45.017 68.7-45.017l61.678-41.942c3.257-3.078 7.202-2.634 10.99-2.17 16.008 2.019 24.914 13.079 27.139 32.642.849 4.515.4 5.797-3.18 7.774-56.823 31.368-101.238 67.29-130.495 85.39-17.347 10.732-87.91 46.713-93.352 57.353z" color="#000" fill="url(#s)" fill-rule="evenodd" overflow="visible" transform="translate(-105.725 -480.467)"/><path style="marker:none" d="M140.768 237.937l70.018-48.005 1.804 74.354-71.822 48.366z" color="#000" fill="#333" fill-rule="evenodd" overflow="visible"/><path style="marker:none" d="M150.036 243.659l-3.927 2.433-3.926 2.433v-9.732l3.926 2.433z" color="#000" fill-rule="evenodd" stroke="#333" stroke-width=".154" overflow="visible"/><path style="marker:none" d="M255.581 724.01l-3.926-2.433-3.927-2.433 3.927-2.432 3.926-2.433v4.865z" color="#000" fill="url(#t)" fill-rule="evenodd" stroke="#333" stroke-width=".154" overflow="visible" transform="translate(-105.725 -480.467)"/><path style="marker:none" d="M150.036 254.123l-3.927 2.433-3.926 2.433v-9.732l3.926 2.433z" color="#000" fill-rule="evenodd" stroke="#333" stroke-width=".154" overflow="visible"/><path style="marker:none" d="M255.581 734.475l-3.926-2.433-3.927-2.433 3.927-2.433 3.926-2.433v4.866z" color="#000" fill="url(#u)" fill-rule="evenodd" stroke="#333" stroke-width=".154" overflow="visible" transform="translate(-105.725 -480.467)"/><path style="marker:none" d="M150.036 264.46l-3.927 2.432-3.926 2.433v-9.731l3.926 2.433z" color="#000" fill-rule="evenodd" stroke="#333" stroke-width=".154" overflow="visible"/><path style="marker:none" d="M255.581 744.811l-3.926-2.433-3.927-2.433 3.927-2.433 3.926-2.433v4.866z" color="#000" fill="url(#v)" fill-rule="evenodd" stroke="#333" stroke-width=".154" overflow="visible" transform="translate(-105.725 -480.467)"/><path style="marker:none" d="M150.036 275.051l-3.927 2.433-3.926 2.433v-9.732l3.926 2.433z" color="#000" fill-rule="evenodd" stroke="#333" stroke-width=".154" overflow="visible"/><path style="marker:none" d="M255.581 755.403l-3.926-2.433-3.927-2.433 3.927-2.433 3.926-2.433v4.866z" color="#000" fill="url(#w)" fill-rule="evenodd" stroke="#333" stroke-width=".154" overflow="visible" transform="translate(-105.725 -480.467)"/><path style="marker:none" d="M150.036 285.7l-3.927 2.432-3.926 2.433v-9.732l3.926 2.433z" color="#000" fill-rule="evenodd" stroke="#333" stroke-width=".154" overflow="visible"/><path style="marker:none" d="M255.581 766.05l-3.926-2.432-3.927-2.433 3.927-2.433 3.926-2.433v4.866z" color="#000" fill="url(#x)" fill-rule="evenodd" stroke="#333" stroke-width=".154" overflow="visible" transform="translate(-105.725 -480.467)"/><path style="marker:none" d="M150.036 296.347l-3.927 2.433-3.926 2.433v-9.732l3.926 2.433z" color="#000" fill-rule="evenodd" stroke="#333" stroke-width=".154" overflow="visible"/><path style="marker:none" d="M255.581 776.699l-3.926-2.433-3.927-2.433 3.927-2.433 3.926-2.433v4.866z" color="#000" fill="url(#y)" fill-rule="evenodd" stroke="#333" stroke-width=".154" overflow="visible" transform="translate(-105.725 -480.467)"/><path style="marker:none" d="M150.036 307.356l-3.927 2.433-3.926 2.433v-9.732l3.926 2.433z" color="#000" fill-rule="evenodd" stroke="#333" stroke-width=".154" overflow="visible"/><path style="marker:none" d="M255.581 787.707l-3.926-2.433-3.927-2.432 3.927-2.433 3.926-2.433v4.866z" color="#000" fill="url(#z)" fill-rule="evenodd" stroke="#333" stroke-width=".154" overflow="visible" transform="translate(-105.725 -480.467)"/><path style="marker:none" d="M158.851 237.626l-3.926 2.433-3.926 2.433v-9.732l3.926 2.433z" color="#000" fill-rule="evenodd" stroke="#333" stroke-width=".154" overflow="visible"/><path style="marker:none" d="M264.397 717.977l-3.926-2.432-3.927-2.433 3.927-2.433 3.926-2.433v4.866z" color="#000" fill="url(#A)" fill-rule="evenodd" stroke="#333" stroke-width=".154" overflow="visible" transform="translate(-105.725 -480.467)"/><path style="marker:none" d="M158.851 248.09l-3.926 2.433-3.926 2.433v-9.732l3.926 2.433z" color="#000" fill-rule="evenodd" stroke="#333" stroke-width=".154" overflow="visible"/><path style="marker:none" d="M264.397 728.442l-3.926-2.433-3.927-2.433 3.927-2.433 3.926-2.433v4.866z" color="#000" fill="url(#B)" fill-rule="evenodd" stroke="#333" stroke-width=".154" overflow="visible" transform="translate(-105.725 -480.467)"/><path style="marker:none" d="M158.851 258.427l-3.926 2.433-3.926 2.432v-9.731l3.926 2.433z" color="#000" fill-rule="evenodd" stroke="#333" stroke-width=".154" overflow="visible"/><path style="marker:none" d="M264.397 738.778l-3.926-2.433-3.927-2.433 3.927-2.433 3.926-2.433v4.866z" color="#000" fill="url(#C)" fill-rule="evenodd" stroke="#333" stroke-width=".154" overflow="visible" transform="translate(-105.725 -480.467)"/><path style="marker:none" d="M158.851 269.018l-3.926 2.433-3.926 2.433v-9.731l3.926 2.432z" color="#000" fill-rule="evenodd" stroke="#333" stroke-width=".154" overflow="visible"/><path style="marker:none" d="M264.397 749.37l-3.926-2.433-3.927-2.433 3.927-2.433 3.926-2.433v4.866z" color="#000" fill="url(#D)" fill-rule="evenodd" stroke="#333" stroke-width=".154" overflow="visible" transform="translate(-105.725 -480.467)"/><path style="marker:none" d="M158.851 279.666l-3.926 2.433-3.926 2.433V274.8l3.926 2.433z" color="#000" fill-rule="evenodd" stroke="#333" stroke-width=".154" overflow="visible"/><path style="marker:none" d="M264.397 760.018l-3.926-2.433-3.927-2.433 3.927-2.433 3.926-2.433v4.866z" color="#000" fill="url(#E)" fill-rule="evenodd" stroke="#333" stroke-width=".154" overflow="visible" transform="translate(-105.725 -480.467)"/><path style="marker:none" d="M158.851 290.314l-3.926 2.433L151 295.18v-9.732l3.926 2.433z" color="#000" fill-rule="evenodd" stroke="#333" stroke-width=".154" overflow="visible"/><path style="marker:none" d="M264.397 770.666l-3.926-2.433-3.927-2.433 3.927-2.433 3.926-2.433v4.866z" color="#000" fill="url(#F)" fill-rule="evenodd" stroke="#333" stroke-width=".154" overflow="visible" transform="translate(-105.725 -480.467)"/><path style="marker:none" d="M158.851 301.323l-3.926 2.433-3.926 2.433v-9.732l3.926 2.433z" color="#000" fill-rule="evenodd" stroke="#333" stroke-width=".154" overflow="visible"/><path style="marker:none" d="M264.397 781.675l-3.926-2.433-3.927-2.433 3.927-2.433 3.926-2.433v4.866z" color="#000" fill="url(#G)" fill-rule="evenodd" stroke="#333" stroke-width=".154" overflow="visible" transform="translate(-105.725 -480.467)"/><path style="marker:none" d="M167.667 231.593l-3.926 2.433-3.926 2.433v-9.732l3.926 2.433z" color="#000" fill-rule="evenodd" stroke="#333" stroke-width=".154" overflow="visible"/><path style="marker:none" d="M273.213 711.945l-3.926-2.433-3.927-2.433 3.927-2.433 3.926-2.433v4.866z" color="#000" fill="url(#H)" fill-rule="evenodd" stroke="#333" stroke-width=".154" overflow="visible" transform="translate(-105.725 -480.467)"/><path style="marker:none" d="M167.667 242.057l-3.926 2.433-3.926 2.433v-9.732l3.926 2.433z" color="#000" fill-rule="evenodd" stroke="#333" stroke-width=".154" overflow="visible"/><path style="marker:none" d="M273.213 722.409l-3.926-2.433-3.927-2.433 3.927-2.433 3.926-2.433v4.866z" color="#000" fill="url(#I)" fill-rule="evenodd" stroke="#333" stroke-width=".154" overflow="visible" transform="translate(-105.725 -480.467)"/><path style="marker:none" d="M167.667 252.394l-3.926 2.433-3.926 2.433v-9.732l3.926 2.433z" color="#000" fill-rule="evenodd" stroke="#333" stroke-width=".154" overflow="visible"/><path style="marker:none" d="M273.213 732.745l-3.926-2.433-3.927-2.433 3.927-2.432 3.926-2.433v4.865z" color="#000" fill="url(#J)" fill-rule="evenodd" stroke="#333" stroke-width=".154" overflow="visible" transform="translate(-105.725 -480.467)"/><path style="marker:none" d="M167.667 262.986l-3.926 2.432-3.926 2.433v-9.731l3.926 2.433z" color="#000" fill-rule="evenodd" stroke="#333" stroke-width=".154" overflow="visible"/><path style="marker:none" d="M273.213 743.337l-3.926-2.433-3.927-2.433 3.927-2.433 3.926-2.433v4.866z" color="#000" fill="url(#K)" fill-rule="evenodd" stroke="#333" stroke-width=".154" overflow="visible" transform="translate(-105.725 -480.467)"/><path style="marker:none" d="M167.667 273.633l-3.926 2.433-3.926 2.433v-9.732l3.926 2.433z" color="#000" fill-rule="evenodd" stroke="#333" stroke-width=".154" overflow="visible"/><path style="marker:none" d="M273.213 753.985l-3.926-2.433-3.927-2.433 3.927-2.433 3.926-2.433v4.866z" color="#000" fill="url(#L)" fill-rule="evenodd" stroke="#333" stroke-width=".154" overflow="visible" transform="translate(-105.725 -480.467)"/><path style="marker:none" d="M167.667 284.281l-3.926 2.433-3.926 2.433v-9.732l3.926 2.433z" color="#000" fill-rule="evenodd" stroke="#333" stroke-width=".154" overflow="visible"/><path style="marker:none" d="M273.213 764.633l-3.926-2.433-3.927-2.433 3.927-2.433 3.926-2.433v4.866z" color="#000" fill="url(#M)" fill-rule="evenodd" stroke="#333" stroke-width=".154" overflow="visible" transform="translate(-105.725 -480.467)"/><path style="marker:none" d="M167.667 295.29l-3.926 2.433-3.926 2.433v-9.732l3.926 2.433z" color="#000" fill-rule="evenodd" stroke="#333" stroke-width=".154" overflow="visible"/><path style="marker:none" d="M273.213 775.642l-3.926-2.433-3.927-2.433 3.927-2.433 3.926-2.433v4.866z" color="#000" fill="url(#N)" fill-rule="evenodd" stroke="#333" stroke-width=".154" overflow="visible" transform="translate(-105.725 -480.467)"/><path style="marker:none" d="M176.483 225.56l-3.926 2.433-3.926 2.433v-9.732l3.926 2.433z" color="#000" fill-rule="evenodd" stroke="#333" stroke-width=".154" overflow="visible"/><path style="marker:none" d="M282.029 705.912l-3.926-2.433-3.927-2.433 3.927-2.433 3.926-2.433v4.866z" color="#000" fill="url(#O)" fill-rule="evenodd" stroke="#333" stroke-width=".154" overflow="visible" transform="translate(-105.725 -480.467)"/><path style="marker:none" d="M176.483 236.024l-3.926 2.433-3.926 2.433v-9.732l3.926 2.433z" color="#000" fill-rule="evenodd" stroke="#333" stroke-width=".154" overflow="visible"/><path style="marker:none" d="M282.029 716.376l-3.926-2.433-3.927-2.433 3.927-2.433 3.926-2.433v4.866z" color="#000" fill="url(#P)" fill-rule="evenodd" stroke="#333" stroke-width=".154" overflow="visible" transform="translate(-105.725 -480.467)"/><path style="marker:none" d="M176.483 246.36l-3.926 2.434-3.926 2.433v-9.732l3.926 2.433z" color="#000" fill-rule="evenodd" stroke="#333" stroke-width=".154" overflow="visible"/><path style="marker:none" d="M282.029 726.712l-3.926-2.432-3.927-2.433 3.927-2.433 3.926-2.433v4.866z" color="#000" fill="url(#Q)" fill-rule="evenodd" stroke="#333" stroke-width=".154" overflow="visible" transform="translate(-105.725 -480.467)"/><path style="marker:none" d="M176.483 256.953l-3.926 2.433-3.926 2.432v-9.731l3.926 2.433z" color="#000" fill-rule="evenodd" stroke="#333" stroke-width=".154" overflow="visible"/><path style="marker:none" d="M282.029 737.304l-3.926-2.433-3.927-2.433 3.927-2.433 3.926-2.432v4.865z" color="#000" fill="url(#R)" fill-rule="evenodd" stroke="#333" stroke-width=".154" overflow="visible" transform="translate(-105.725 -480.467)"/><path style="marker:none" d="M176.483 267.6l-3.926 2.433-3.926 2.433v-9.731l3.926 2.432z" color="#000" fill-rule="evenodd" stroke="#333" stroke-width=".154" overflow="visible"/><path style="marker:none" d="M282.029 747.952l-3.926-2.433-3.927-2.433 3.927-2.433 3.926-2.433v4.866z" color="#000" fill="url(#S)" fill-rule="evenodd" stroke="#333" stroke-width=".154" overflow="visible" transform="translate(-105.725 -480.467)"/><path style="marker:none" d="M176.483 278.248l-3.926 2.433-3.926 2.433v-9.732l3.926 2.433z" color="#000" fill-rule="evenodd" stroke="#333" stroke-width=".154" overflow="visible"/><path style="marker:none" d="M282.029 758.6l-3.926-2.433-3.927-2.433 3.927-2.433 3.926-2.433v4.866z" color="#000" fill="url(#T)" fill-rule="evenodd" stroke="#333" stroke-width=".154" overflow="visible" transform="translate(-105.725 -480.467)"/><path style="marker:none" d="M176.483 289.257l-3.926 2.433-3.926 2.433v-9.732l3.926 2.433z" color="#000" fill-rule="evenodd" stroke="#333" stroke-width=".154" overflow="visible"/><path style="marker:none" d="M282.029 769.609l-3.926-2.433-3.927-2.433 3.927-2.433 3.926-2.433v4.866z" color="#000" fill="url(#U)" fill-rule="evenodd" stroke="#333" stroke-width=".154" overflow="visible" transform="translate(-105.725 -480.467)"/><path style="marker:none" d="M185.3 219.527l-3.927 2.433-3.926 2.433v-9.732l3.926 2.433z" color="#000" fill-rule="evenodd" stroke="#333" stroke-width=".154" overflow="visible"/><path style="marker:none" d="M290.845 699.879l-3.926-2.433-3.927-2.433 3.927-2.433 3.926-2.433v4.866z" color="#000" fill="url(#V)" fill-rule="evenodd" stroke="#333" stroke-width=".154" overflow="visible" transform="translate(-105.725 -480.467)"/><path style="marker:none" d="M185.3 229.991l-3.927 2.433-3.926 2.433v-9.732l3.926 2.433z" color="#000" fill-rule="evenodd" stroke="#333" stroke-width=".154" overflow="visible"/><path style="marker:none" d="M290.845 710.343l-3.926-2.433-3.927-2.433 3.927-2.433 3.926-2.433v4.866z" color="#000" fill="url(#W)" fill-rule="evenodd" stroke="#333" stroke-width=".154" overflow="visible" transform="translate(-105.725 -480.467)"/><path style="marker:none" d="M185.3 240.328l-3.927 2.433-3.926 2.433v-9.732l3.926 2.433z" color="#000" fill-rule="evenodd" stroke="#333" stroke-width=".154" overflow="visible"/><path style="marker:none" d="M290.845 720.68l-3.926-2.433-3.927-2.433 3.927-2.433 3.926-2.433v4.866z" color="#000" fill="url(#X)" fill-rule="evenodd" stroke="#333" stroke-width=".154" overflow="visible" transform="translate(-105.725 -480.467)"/><path style="marker:none" d="M185.3 250.92l-3.927 2.433-3.926 2.433v-9.732l3.926 2.433z" color="#000" fill-rule="evenodd" stroke="#333" stroke-width=".154" overflow="visible"/><path style="marker:none" d="M290.845 731.271l-3.926-2.433-3.927-2.432 3.927-2.433 3.926-2.433v4.866z" color="#000" fill="url(#Y)" fill-rule="evenodd" stroke="#333" stroke-width=".154" overflow="visible" transform="translate(-105.725 -480.467)"/><path style="marker:none" d="M185.3 261.567L181.372 264l-3.926 2.433v-9.731l3.926 2.433z" color="#000" fill-rule="evenodd" stroke="#333" stroke-width=".154" overflow="visible"/><path style="marker:none" d="M290.845 741.92l-3.926-2.434-3.927-2.433 3.927-2.433 3.926-2.433v4.866z" color="#000" fill="url(#Z)" fill-rule="evenodd" stroke="#333" stroke-width=".154" overflow="visible" transform="translate(-105.725 -480.467)"/><path style="marker:none" d="M185.3 272.215l-3.927 2.433-3.926 2.433v-9.732l3.926 2.433z" color="#000" fill-rule="evenodd" stroke="#333" stroke-width=".154" overflow="visible"/><path style="marker:none" d="M290.845 752.567l-3.926-2.433-3.927-2.433 3.927-2.433 3.926-2.433v4.866z" color="#000" fill="url(#aa)" fill-rule="evenodd" stroke="#333" stroke-width=".154" overflow="visible" transform="translate(-105.725 -480.467)"/><path style="marker:none" d="M185.3 283.224l-3.927 2.433-3.926 2.433v-9.732l3.926 2.433z" color="#000" fill-rule="evenodd" stroke="#333" stroke-width=".154" overflow="visible"/><path style="marker:none" d="M290.845 763.576l-3.926-2.433-3.927-2.433 3.927-2.433 3.926-2.433v4.866z" color="#000" fill="url(#ab)" fill-rule="evenodd" stroke="#333" stroke-width=".154" overflow="visible" transform="translate(-105.725 -480.467)"/><path style="marker:none" d="M194.115 213.494l-3.926 2.433-3.926 2.433v-9.732l3.926 2.433z" color="#000" fill-rule="evenodd" stroke="#333" stroke-width=".154" overflow="visible"/><path style="marker:none" d="M193.936 213.379l-3.927-2.433-3.926-2.433 3.926-2.433 3.927-2.433v4.866z" color="#000" fill="#4d4d4d" fill-rule="evenodd" stroke="#333" stroke-width=".154" overflow="visible"/><path style="marker:none" d="M194.115 223.958l-3.926 2.433-3.926 2.433v-9.732l3.926 2.433z" color="#000" fill-rule="evenodd" stroke="#333" stroke-width=".154" overflow="visible"/><path style="marker:none" d="M299.66 704.31l-3.925-2.433-3.927-2.433 3.927-2.433 3.926-2.433v4.866z" color="#000" fill="url(#ac)" fill-rule="evenodd" stroke="#333" stroke-width=".154" overflow="visible" transform="translate(-105.725 -480.467)"/><path style="marker:none" d="M194.115 234.295l-3.926 2.433-3.926 2.433v-9.732l3.926 2.433z" color="#000" fill-rule="evenodd" stroke="#333" stroke-width=".154" overflow="visible"/><path style="marker:none" d="M299.66 714.647l-3.925-2.433-3.927-2.433 3.927-2.433 3.926-2.433v4.866z" color="#000" fill="url(#ad)" fill-rule="evenodd" stroke="#333" stroke-width=".154" overflow="visible" transform="translate(-105.725 -480.467)"/><path style="marker:none" d="M194.115 244.887l-3.926 2.433-3.926 2.433v-9.732l3.926 2.433z" color="#000" fill-rule="evenodd" stroke="#333" stroke-width=".154" overflow="visible"/><path style="marker:none" d="M299.66 725.238l-3.925-2.432-3.927-2.433 3.927-2.433 3.926-2.433v4.866z" color="#000" fill="url(#ae)" fill-rule="evenodd" stroke="#333" stroke-width=".154" overflow="visible" transform="translate(-105.725 -480.467)"/><path style="marker:none" d="M194.115 255.535l-3.926 2.433-3.926 2.432v-9.731l3.926 2.433z" color="#000" fill-rule="evenodd" stroke="#333" stroke-width=".154" overflow="visible"/><path style="marker:none" d="M299.66 735.886l-3.925-2.433-3.927-2.433 3.927-2.433 3.926-2.433v4.866z" color="#000" fill="url(#af)" fill-rule="evenodd" stroke="#333" stroke-width=".154" overflow="visible" transform="translate(-105.725 -480.467)"/><path style="marker:none" d="M194.115 266.182l-3.926 2.433-3.926 2.433v-9.732l3.926 2.433z" color="#000" fill-rule="evenodd" stroke="#333" stroke-width=".154" overflow="visible"/><path style="marker:none" d="M299.66 746.534l-3.925-2.433-3.927-2.433 3.927-2.433 3.926-2.433v4.866z" color="#000" fill="url(#ag)" fill-rule="evenodd" stroke="#333" stroke-width=".154" overflow="visible" transform="translate(-105.725 -480.467)"/><path style="marker:none" d="M194.115 277.191l-3.926 2.433-3.926 2.433v-9.732l3.926 2.433z" color="#000" fill-rule="evenodd" stroke="#333" stroke-width=".154" overflow="visible"/><path style="marker:none" d="M299.66 757.543l-3.925-2.433-3.927-2.433 3.927-2.433 3.926-2.433v4.866z" color="#000" fill="url(#ah)" fill-rule="evenodd" stroke="#333" stroke-width=".154" overflow="visible" transform="translate(-105.725 -480.467)"/><path style="marker:none" d="M202.931 207.461l-3.926 2.433-3.926 2.433v-9.732l3.926 2.433z" color="#000" fill-rule="evenodd" stroke="#333" stroke-width=".154" overflow="visible"/><path style="marker:none" d="M308.477 687.813l-3.927-2.433-3.926-2.433 3.926-2.433 3.927-2.433v4.866z" color="#000" fill="url(#ai)" fill-rule="evenodd" stroke="#333" stroke-width=".154" overflow="visible" transform="translate(-105.725 -480.467)"/><path style="marker:none" d="M202.931 217.925l-3.926 2.433-3.926 2.433v-9.732l3.926 2.433z" color="#000" fill-rule="evenodd" stroke="#333" stroke-width=".154" overflow="visible"/><path style="marker:none" d="M308.477 698.277l-3.927-2.433-3.926-2.433 3.926-2.433 3.927-2.433v4.866z" color="#000" fill="url(#aj)" fill-rule="evenodd" stroke="#333" stroke-width=".154" overflow="visible" transform="translate(-105.725 -480.467)"/><path style="marker:none" d="M202.931 228.262l-3.926 2.433-3.926 2.433v-9.732l3.926 2.433z" color="#000" fill-rule="evenodd" stroke="#333" stroke-width=".154" overflow="visible"/><path style="marker:none" d="M308.477 708.614l-3.927-2.433-3.926-2.433 3.926-2.433 3.927-2.433v4.866z" color="#000" fill="url(#ak)" fill-rule="evenodd" stroke="#333" stroke-width=".154" overflow="visible" transform="translate(-105.725 -480.467)"/><path style="marker:none" d="M202.931 238.854l-3.926 2.433-3.926 2.433v-9.732l3.926 2.433z" color="#000" fill-rule="evenodd" stroke="#333" stroke-width=".154" overflow="visible"/><path style="marker:none" d="M308.477 719.206l-3.927-2.433-3.926-2.433 3.926-2.433 3.927-2.433v4.866z" color="#000" fill="url(#al)" fill-rule="evenodd" stroke="#333" stroke-width=".154" overflow="visible" transform="translate(-105.725 -480.467)"/><path style="marker:none" d="M202.931 249.502l-3.926 2.433-3.926 2.433v-9.732l3.926 2.433z" color="#000" fill-rule="evenodd" stroke="#333" stroke-width=".154" overflow="visible"/><path style="marker:none" d="M308.477 729.853l-3.927-2.433-3.926-2.433 3.926-2.432 3.927-2.433v4.865z" color="#000" fill="url(#am)" fill-rule="evenodd" stroke="#333" stroke-width=".154" overflow="visible" transform="translate(-105.725 -480.467)"/><path style="marker:none" d="M202.931 260.15l-3.926 2.432-3.926 2.433v-9.731l3.926 2.433z" color="#000" fill-rule="evenodd" stroke="#333" stroke-width=".154" overflow="visible"/><path style="marker:none" d="M308.477 740.501l-3.927-2.433-3.926-2.433 3.926-2.433 3.927-2.433v4.866z" color="#000" fill="url(#an)" fill-rule="evenodd" stroke="#333" stroke-width=".154" overflow="visible" transform="translate(-105.725 -480.467)"/><path style="marker:none" d="M202.931 271.158l-3.926 2.433-3.926 2.433v-9.732l3.926 2.433z" color="#000" fill-rule="evenodd" stroke="#333" stroke-width=".154" overflow="visible"/><path style="marker:none" d="M308.477 751.51l-3.927-2.433-3.926-2.433 3.926-2.433 3.927-2.433v4.866z" color="#000" fill="url(#ao)" fill-rule="evenodd" stroke="#333" stroke-width=".154" overflow="visible" transform="translate(-105.725 -480.467)"/><path style="marker:none" d="M211.747 201.428l-3.926 2.433-3.926 2.433v-9.732l3.926 2.433z" color="#000" fill-rule="evenodd" stroke="#333" stroke-width=".154" overflow="visible"/><path style="marker:none" d="M317.293 681.78l-3.927-2.433-3.926-2.433 3.926-2.433 3.927-2.433v4.866z" color="#000" fill="url(#ap)" fill-rule="evenodd" stroke="#333" stroke-width=".154" overflow="visible" transform="translate(-105.725 -480.467)"/><path style="marker:none" d="M211.747 211.892l-3.926 2.433-3.926 2.433v-9.731l3.926 2.433z" color="#000" fill-rule="evenodd" stroke="#333" stroke-width=".154" overflow="visible"/><path style="marker:none" d="M317.293 692.244l-3.927-2.433-3.926-2.433 3.926-2.433 3.927-2.433v4.866z" color="#000" fill="url(#aq)" fill-rule="evenodd" stroke="#333" stroke-width=".154" overflow="visible" transform="translate(-105.725 -480.467)"/><path style="marker:none" d="M211.747 222.23l-3.926 2.432-3.926 2.433v-9.732l3.926 2.433z" color="#000" fill-rule="evenodd" stroke="#333" stroke-width=".154" overflow="visible"/><path style="marker:none" d="M317.293 702.58l-3.927-2.432-3.926-2.433 3.926-2.433 3.927-2.433v4.866z" color="#000" fill="url(#ar)" fill-rule="evenodd" stroke="#333" stroke-width=".154" overflow="visible" transform="translate(-105.725 -480.467)"/><path style="marker:none" d="M211.747 232.82l-3.926 2.434-3.926 2.433v-9.732l3.926 2.433z" color="#000" fill-rule="evenodd" stroke="#333" stroke-width=".154" overflow="visible"/><path style="marker:none" d="M317.293 713.173l-3.927-2.433-3.926-2.433 3.926-2.433 3.927-2.433v4.866z" color="#000" fill="url(#as)" fill-rule="evenodd" stroke="#333" stroke-width=".154" overflow="visible" transform="translate(-105.725 -480.467)"/><path style="marker:none" d="M211.747 243.469l-3.926 2.433-3.926 2.433v-9.732l3.926 2.433z" color="#000" fill-rule="evenodd" stroke="#333" stroke-width=".154" overflow="visible"/><path style="marker:none" d="M317.293 723.82l-3.927-2.433-3.926-2.432 3.926-2.433 3.927-2.433v4.866z" color="#000" fill="url(#at)" fill-rule="evenodd" stroke="#333" stroke-width=".154" overflow="visible" transform="translate(-105.725 -480.467)"/><path style="marker:none" d="M211.747 254.117l-3.926 2.432-3.926 2.433v-9.731l3.926 2.433z" color="#000" fill-rule="evenodd" stroke="#333" stroke-width=".154" overflow="visible"/><path style="marker:none" d="M317.293 734.468l-3.927-2.433-3.926-2.433 3.926-2.433 3.927-2.433v4.866z" color="#000" fill="url(#au)" fill-rule="evenodd" stroke="#333" stroke-width=".154" overflow="visible" transform="translate(-105.725 -480.467)"/><path style="marker:none" d="M211.747 265.125l-3.926 2.433-3.926 2.433v-9.732l3.926 2.433z" color="#000" fill-rule="evenodd" stroke="#333" stroke-width=".154" overflow="visible"/><path style="marker:none" d="M317.293 745.477l-3.927-2.433-3.926-2.433 3.926-2.433 3.927-2.433v4.866z" color="#000" fill="url(#av)" fill-rule="evenodd" stroke="#333" stroke-width=".154" overflow="visible" transform="translate(-105.725 -480.467)"/><path d="M176.566 706.16l24.345 17.247.003 15.582-22.91-16.613z" style="marker:none" color="#000" fill="url(#aw)" overflow="visible" transform="translate(-105.725 -480.467)"/><path style="marker:none" d="M181.663 719.508l13.636 1.042.517 5.093-13.048-.979z" color="#000" fill="url(#ax)" overflow="visible" transform="translate(-105.725 -480.467)"/><path d="M254.113 649.416s47.112-23.482 69.215-37.677c16.341-10.494 30.72-23.793 46.62-34.945 22.414-15.721 68.7-45.017 68.7-45.017l61.678-41.942c3.257-3.078 7.202-2.634 10.99-2.17 16.008 2.019 24.914 13.079 27.139 32.642.849 4.515.4 5.797-3.18 7.774-56.823 31.368-101.238 67.29-130.495 85.39-17.347 10.732-87.91 46.713-93.352 57.353z" style="marker:none" color="#000" fill="url(#ay)" fill-rule="evenodd" overflow="visible" transform="translate(-105.725 -480.467)"/><path style="marker:none" d="M205.72 596.358c37.516 22.727 75.18 46.205 111.346 75.565l-70.726 47.58c-45.228-21.611-81.857-48.291-112.146-81.237l4.022-1.854 10.428.073-3.864-5.541 13.286.072-3.864-5.54 13.43.317-3.863-5.54 13.285.072-3.864-5.541 13.286.072-3.864-5.54 13.286.071-3.864-5.54 13.286.072-3.864-5.54z" color="#000" fill="url(#az)" overflow="visible" transform="translate(-105.725 -480.467)"/></svg>