<svg version="1.1" viewBox="0 0 619.43 601.99" xmlns="http://www.w3.org/2000/svg" xmlns:xlink="http://www.w3.org/1999/xlink"><defs><radialGradient id="ad" cx="336.2" cy="679.92" r="23.458" gradientTransform="matrix(.91245 .24449 -.23839 .88969 177.3 -410.18)" gradientUnits="userSpaceOnUse" xlink:href="#a"/><linearGradient id="a"><stop stop-color="#353535" offset="0"/><stop stop-color="#c8c8c8" offset=".48387"/><stop stop-color="#474747" offset="1"/></linearGradient><filter id="cj" color-interpolation-filters="sRGB"><feGaussianBlur stdDeviation="0.67100872"/></filter><linearGradient id="bf" x1="309.39" x2="349.01" y1="648.17" y2="648.17" gradientTransform="translate(-15.998 -412.64)" gradientUnits="userSpaceOnUse" xlink:href="#a"/><filter id="ck" x="-.1171" y="-.55206" width="1.2342" height="2.1041" color-interpolation-filters="sRGB"><feGaussianBlur stdDeviation="0.28753026"/></filter><linearGradient id="be" x1="317.27" x2="325.31" y1="651.29" y2="655.57" gradientTransform="translate(-14.6 -410.76)" gradientUnits="userSpaceOnUse" xlink:href="#a"/><filter id="cl" x="-.17902" y="-.13289" width="1.358" height="1.2658" color-interpolation-filters="sRGB"><feGaussianBlur stdDeviation="0.55926041"/></filter><radialGradient id="ae" cx="290.47" cy="698.1" r="4.854" gradientTransform="matrix(2.3162 0 0 12.599 -382.53 -8093.8)" gradientUnits="userSpaceOnUse" xlink:href="#a"/><filter id="cn" x="-.71523" y="-.11855" width="2.4305" height="1.2371" color-interpolation-filters="sRGB"><feGaussianBlur stdDeviation="1.1268538"/></filter><linearGradient id="bd" x1="342.16" x2="321.72" y1="647.22" y2="647.73" gradientTransform="translate(-15.493 -411.65)" gradientUnits="userSpaceOnUse" xlink:href="#a"/><filter id="cm" x="-.12708" y="-.19077" width="1.2542" height="1.3815" color-interpolation-filters="sRGB"><feGaussianBlur stdDeviation="0.96630433"/></filter><filter id="o" x="-.74746" y="-.74746" width="2.4949" height="2.4949" color-interpolation-filters="sRGB"><feGaussianBlur stdDeviation="3.7817795"/></filter><radialGradient id="ac" cx="389.93" cy="738.48" r="12.728" gradientTransform="matrix(5.0821 0 0 5.6602 -1607.2 -3853.5)" gradientUnits="userSpaceOnUse" xlink:href="#a"/><filter id="cq" color-interpolation-filters="sRGB"><feGaussianBlur stdDeviation="0.80940151"/></filter><filter id="cr" x="-.18505" y="-.05534" width="1.3701" height="1.1107" color-interpolation-filters="sRGB"><feGaussianBlur stdDeviation="0.76236159"/></filter><linearGradient id="bc" x1="144.74" x2="437.63" y1="728" y2="728" gradientTransform="translate(-15.493 -412.01)" gradientUnits="userSpaceOnUse" xlink:href="#a"/><filter id="bp" color-interpolation-filters="sRGB"><feGaussianBlur stdDeviation="0.39302808"/></filter><linearGradient id="bb" x1="328.25" x2="350.78" y1="745.85" y2="745.85" gradientTransform="translate(-15.493 -412.01)" gradientUnits="userSpaceOnUse" xlink:href="#a"/><filter id="cg" color-interpolation-filters="sRGB"><feGaussianBlur stdDeviation="0.57936569"/></filter><radialGradient id="ab" cx="423.25" cy="669.84" r="11.318" gradientTransform="matrix(10.686 5.6749e-7 -8.4321e-6 147.71 -4116.6 -98662)" gradientUnits="userSpaceOnUse" xlink:href="#d"/><linearGradient id="d"><stop stop-color="#811a00" offset="0"/><stop stop-color="#ef6d4c" offset=".5"/><stop stop-color="#ea856c" offset="1"/></linearGradient><filter id="bt" color-interpolation-filters="sRGB"><feGaussianBlur stdDeviation="0.20416615"/></filter><radialGradient id="aa" cx="306.6" cy="635.86" r="9.125" gradientTransform="matrix(6.8398 -1.135 .28811 1.7362 -1960.6 -538.32)" gradientUnits="userSpaceOnUse" xlink:href="#a"/><filter id="bx" color-interpolation-filters="sRGB"><feGaussianBlur stdDeviation="0.30406423"/></filter><filter id="l" color-interpolation-filters="sRGB"><feGaussianBlur stdDeviation="0.33770455"/></filter><radialGradient id="af" cx="426.37" cy="756.23" r="16.67" gradientTransform="matrix(7.9806 6.4302 -2.4289 3.0145 -1057.7 -4166)" gradientUnits="userSpaceOnUse" xlink:href="#c"/><linearGradient id="c"><stop offset="0"/><stop stop-color="#363636" offset=".5"/><stop offset="1"/></linearGradient><filter id="cc" color-interpolation-filters="sRGB"><feGaussianBlur stdDeviation="0.4902613"/></filter><radialGradient id="z" cx="391.22" cy="736.8" r="19.458" gradientTransform="matrix(1.1836 0 0 1.1836 -87.673 -547.85)" gradientUnits="userSpaceOnUse" xlink:href="#c"/><filter id="cf" color-interpolation-filters="sRGB"><feGaussianBlur stdDeviation="0.37761083"/></filter><linearGradient id="ba" x1="334.59" x2="348.24" y1="711.31" y2="694.51" gradientTransform="translate(-15.493 -412.01)" gradientUnits="userSpaceOnUse" xlink:href="#c"/><filter id="bs" color-interpolation-filters="sRGB"><feGaussianBlur stdDeviation="0.37738965"/></filter><radialGradient id="y" cx="341.46" cy="685.07" r="23.181" gradientTransform="matrix(.98845 0 0 .96328 -11.847 -385.93)" gradientUnits="userSpaceOnUse" xlink:href="#c"/><filter id="bq" color-interpolation-filters="sRGB"><feGaussianBlur stdDeviation="0.22621833"/></filter><radialGradient id="x" cx="340.67" cy="697.29" r="25.761" gradientTransform="matrix(.81266 -.46919 .3446 .59686 -191.96 28.936)" gradientUnits="userSpaceOnUse" xlink:href="#c"/><filter id="br" color-interpolation-filters="sRGB"><feGaussianBlur stdDeviation="0.2516626"/></filter><linearGradient id="az" x1="186.34" x2="406.13" y1="608.91" y2="648.37" gradientTransform="matrix(1.3461 -.18899 .14781 1.0528 -217.38 -391.75)" gradientUnits="userSpaceOnUse" xlink:href="#a" spreadMethod="reflect"/><filter id="p" color-interpolation-filters="sRGB"><feGaussianBlur stdDeviation="0.86774557"/></filter><linearGradient id="ay" x1="251.82" x2="302.49" y1="730.36" y2="642.6" gradientTransform="translate(-18.171 -415.85)" gradientUnits="userSpaceOnUse" xlink:href="#a"/><radialGradient id="w" cx="279.15" cy="673.49" r="6.8566" gradientTransform="matrix(9.9936 0 0 6.3498 -2524.1 -4013.8)" gradientUnits="userSpaceOnUse" xlink:href="#a"/><filter id="by" color-interpolation-filters="sRGB"><feGaussianBlur stdDeviation="0.13557676"/></filter><filter id="e" color-interpolation-filters="sRGB"><feGaussianBlur stdDeviation="0.45090364"/></filter><radialGradient id="ag" cx="288.28" cy="649.32" r="5.5609" gradientTransform="matrix(1.5504 .6484 -1.3537 1.6984 719.96 -640.71)" gradientUnits="userSpaceOnUse" xlink:href="#a"/><radialGradient id="ah" cx="310.5" cy="674.56" r="6.1567" gradientTransform="matrix(1.8143 2.0228 -3.201 1.6293 1891.1 -1050.7)" gradientUnits="userSpaceOnUse" xlink:href="#a"/><filter id="m" color-interpolation-filters="sRGB"><feGaussianBlur stdDeviation="0.14712307"/></filter><linearGradient id="bg" x1="303.4" x2="317.82" y1="653.93" y2="653.93" gradientUnits="userSpaceOnUse" xlink:href="#a"/><linearGradient id="bh" x1="251.82" x2="302.49" y1="730.36" y2="642.6" gradientTransform="matrix(.6132 0 0 .6132 144.39 223.68)" gradientUnits="userSpaceOnUse" xlink:href="#a"/><filter id="cp" x="-.26672" y="-.40095" width="1.5334" height="1.8019" color-interpolation-filters="sRGB"><feGaussianBlur stdDeviation="2.2988639"/></filter><filter id="n" color-interpolation-filters="sRGB"><feGaussianBlur stdDeviation="0.24327615"/></filter><radialGradient id="ai" cx="304.89" cy="662.84" r="7.0476" gradientTransform="matrix(2.9178 .78183 -1.1469 4.2803 175.49 -2412.7)" gradientUnits="userSpaceOnUse" xlink:href="#a"/><radialGradient id="aj" cx="288.78" cy="649.25" r="7.0227" gradientTransform="matrix(7.5836 1.4645 -3.2639 8.7791 217.86 -5473.5)" gradientUnits="userSpaceOnUse" xlink:href="#a"/><radialGradient id="v" cx="300.73" cy="662.61" r="43.747" gradientTransform="matrix(1.7911 -.47993 .37144 1.3862 -499.52 -523.47)" gradientUnits="userSpaceOnUse" xlink:href="#a"/><linearGradient id="ax" x1="342.16" x2="321.72" y1="647.22" y2="647.73" gradientTransform="matrix(.95108 0 0 1.1028 .12143 -479.42)" gradientUnits="userSpaceOnUse" xlink:href="#a"/><linearGradient id="aw" x1="356.4" x2="349.82" y1="641.5" y2="641.34" gradientTransform="translate(-16.162 -412.9)" gradientUnits="userSpaceOnUse" xlink:href="#c"/><filter id="ce" color-interpolation-filters="sRGB"><feGaussianBlur stdDeviation="0.21227835"/></filter><filter id="ci" color-interpolation-filters="sRGB"><feGaussianBlur stdDeviation="0.3553125"/></filter><radialGradient id="ak" cx="359.52" cy="640.5" r="17.813" gradientTransform="matrix(7.8402 6.4937 -.18379 .2219 -2344.5 -1836.7)" gradientUnits="userSpaceOnUse" xlink:href="#c" spreadMethod="reflect"/><filter id="cd" color-interpolation-filters="sRGB"><feGaussianBlur stdDeviation="0.11921669"/></filter><linearGradient id="av" x1="353.29" x2="357.33" y1="645.01" y2="640.62" gradientTransform="matrix(.95215 0 0 1 .99766 -410.89)" gradientUnits="userSpaceOnUse" xlink:href="#c"/><radialGradient id="u" cx="361.35" cy="664.15" r="21.952" gradientTransform="matrix(.99615 -.087701 .25309 2.8747 -183.74 -1640.7)" gradientUnits="userSpaceOnUse" xlink:href="#d" spreadMethod="reflect"/><filter id="bu" color-interpolation-filters="sRGB"><feGaussianBlur stdDeviation="1.0083692"/></filter><radialGradient id="al" cx="388.42" cy="685.09" r="43.28" gradientTransform="matrix(3.0177 -.90039 .11835 .39667 -858.34 757.61)" gradientUnits="userSpaceOnUse" xlink:href="#d" spreadMethod="reflect"/><filter id="bw" x="-.10311" y="-.14351" width="1.2062" height="1.287" color-interpolation-filters="sRGB"><feGaussianBlur stdDeviation="3.7187141"/></filter><radialGradient id="t" cx="393.08" cy="700.85" r="79.807" gradientTransform="matrix(3.0675 -.77867 .1475 .58108 -895.77 161.53)" gradientUnits="userSpaceOnUse" xlink:href="#d"/><filter id="bv" color-interpolation-filters="sRGB"><feGaussianBlur stdDeviation="1.2180542"/></filter><radialGradient id="s" cx="347.25" cy="644.04" r="21.812" gradientTransform="matrix(4.581 0 0 1.4161 -1257.8 -684.74)" gradientUnits="userSpaceOnUse" xlink:href="#d"/><filter id="cb" color-interpolation-filters="sRGB"><feGaussianBlur stdDeviation="0.28554951"/></filter><linearGradient id="au" x1="267.21" x2="314.11" y1="718.25" y2="718.25" gradientTransform="translate(-15.493 -413.44)" gradientUnits="userSpaceOnUse" xlink:href="#a" spreadMethod="reflect"/><radialGradient id="am" cx="253.93" cy="720.58" r="49.697" gradientTransform="matrix(8.3535 0 0 4.4786 -1831.7 -2511.1)" gradientUnits="userSpaceOnUse" xlink:href="#a" spreadMethod="reflect"/><filter id="ca" color-interpolation-filters="sRGB"><feGaussianBlur stdDeviation="0.9272027"/></filter><linearGradient id="at" x1="279.36" x2="321.52" y1="735.43" y2="704.07" gradientTransform="matrix(.79647 0 0 .91814 47.241 -352.46)" gradientUnits="userSpaceOnUse" xlink:href="#a" spreadMethod="reflect"/><filter id="bz" color-interpolation-filters="sRGB"><feGaussianBlur stdDeviation="1.2294708"/></filter><radialGradient id="r" cx="387.83" cy="650.83" r="84.709" gradientTransform="matrix(4.6968 -1.1687 .14359 .57706 -1572.5 331.67)" gradientUnits="userSpaceOnUse" xlink:href="#d"/><linearGradient id="as" x1="467.14" x2="470.14" y1="639.48" y2="655.99" gradientTransform="translate(-15.493 -412.01)" gradientUnits="userSpaceOnUse" xlink:href="#c"/><radialGradient id="q" cx="234.93" cy="695.22" r="51.521" gradientTransform="matrix(2.4797 .73141 -.26417 .89559 -194.94 -509.69)" gradientUnits="userSpaceOnUse" xlink:href="#a" spreadMethod="reflect"/><linearGradient id="ar" x1="257.74" x2="277.55" y1="714.7" y2="715.37" gradientTransform="matrix(.75684 0 0 .75684 55.184 -226.29)" gradientUnits="userSpaceOnUse" xlink:href="#c" spreadMethod="reflect"/><linearGradient id="bi" x1="261.74" x2="198.2" y1="726.1" y2="838.42" gradientTransform="matrix(.63239 0 0 .54858 113.39 -75.943)" gradientUnits="userSpaceOnUse" xlink:href="#c"/><linearGradient id="aq" x1="234.14" x2="344.8" y1="747.3" y2="747.3" gradientTransform="translate(-15.493 -412.01)" gradientUnits="userSpaceOnUse" xlink:href="#a"/><filter id="ch" color-interpolation-filters="sRGB"><feGaussianBlur stdDeviation="0.34710937"/></filter><filter id="co" color-interpolation-filters="sRGB"><feGaussianBlur stdDeviation="1.9468406"/></filter><linearGradient id="bj" x1="257.8" x2="304.48" y1="666.99" y2="720.8" gradientTransform="matrix(1.0968 0 0 .95147 -4.5429 -364.49)" gradientUnits="userSpaceOnUse" xlink:href="#a"/><linearGradient id="i"><stop stop-color="#2f0031" offset="0"/><stop stop-color="#8f0077" offset=".5"/><stop stop-color="#fb7dee" offset="1"/></linearGradient><linearGradient id="b"><stop stop-color="#333" offset="0"/><stop stop-color="#fff" offset=".5"/><stop offset="1"/></linearGradient><radialGradient id="h" cx="-119.64" cy="280.58" r="76.071" gradientTransform="matrix(3.2135 0 0 1.0712 264.83 -19.968)" gradientUnits="userSpaceOnUse" xlink:href="#b"/><linearGradient id="k" x1="-105.99" x2="-133.3" y1="372.73" y2="188.42" gradientUnits="userSpaceOnUse" xlink:href="#b"/><linearGradient id="j" x1="-42.847" x2="-43.146" y1="299.91" y2="455.59" gradientUnits="userSpaceOnUse" xlink:href="#b" spreadMethod="reflect"/><radialGradient id="g" cx="-120.38" cy="693.92" r="76.071" gradientTransform="matrix(-5.9806e-8 -9.4055 .71519 0 -616.24 -724.34)" gradientUnits="userSpaceOnUse" xlink:href="#b" spreadMethod="reflect"/><radialGradient id="f" cx="-117.66" cy="314.13" r="76.071" fx="-116.49" fy="328.72" gradientTransform="matrix(16.428 22.76 -1.3174 5.4758 2215.4 1467.3)" gradientUnits="userSpaceOnUse" xlink:href="#b"/><radialGradient id="ap" cx="-132.95" cy="287.51" r="19.983" gradientTransform="matrix(2.8517 0 3.7942e-8 10.096 226.9 -2594.7)" gradientUnits="userSpaceOnUse" xlink:href="#i" spreadMethod="reflect"/><linearGradient id="bo" x1="-242.04" x2="-171.33" y1="274.14" y2="272.19" gradientTransform="matrix(-1.0811 -.16285 -.23167 .75997 -219.84 44.231)" gradientUnits="userSpaceOnUse" xlink:href="#i"/><linearGradient id="bn" x1="-179.2" x2="-25.082" y1="433.48" y2="433.48" gradientTransform="matrix(1.6348 0 0 1.8297 307.01 -486.18)" gradientUnits="userSpaceOnUse" xlink:href="#b"/><radialGradient id="ao" cx="-102.14" cy="433.48" r="74.297" gradientTransform="matrix(1.6348 0 0 .34823 307.01 153.31)" gradientUnits="userSpaceOnUse" xlink:href="#b"/><linearGradient id="bm" x1="-177.33" x2="-24.666" y1="343.59" y2="342.81" gradientTransform="matrix(1.6348 0 0 1.7334 307.01 -443.1)" gradientUnits="userSpaceOnUse" xlink:href="#b" spreadMethod="reflect"/><linearGradient id="bl" x1="-179.2" x2="-25.082" y1="433.48" y2="433.48" gradientTransform="matrix(1.6348 0 0 1.8297 896.62 -539.9)" gradientUnits="userSpaceOnUse" xlink:href="#b"/><radialGradient id="an" cx="-102.14" cy="433.48" r="74.297" gradientTransform="matrix(1.6348 0 0 .34823 896.62 99.589)" gradientUnits="userSpaceOnUse" xlink:href="#b"/><linearGradient id="bk" x1="-177.33" x2="-24.666" y1="343.59" y2="342.81" gradientTransform="matrix(1.6348 0 0 1.7334 896.62 -496.81)" gradientUnits="userSpaceOnUse" xlink:href="#b" spreadMethod="reflect"/></defs><g transform="translate(25.658 136.02)"><g transform="matrix(.73198 0 0 .73198 -153.52 -57.086)"><path d="m729.63-70.696c-67.072 0-121.44 10.016-121.44 22.377v26.668 214.52 24.471l90.018-42.71h152.91v-196.28-26.668c0-12.361-54.417-22.377-121.49-22.377z" color="#000000" fill="#808080"/><path d="m851.12 234.71-45.265 22.751-26.668 13.434c-3.8202 1.9218-14.321 4.5236-28.916 7.2587 57.241-5.004 100.85-29.385 100.85-41.115v-2.3293z" color="#000000" fill="#808080"/><path d="m729.61-70.716c-67.072 0-121.44 10.62-121.44 23.726v28.276 227.46 28.276c0 13.106 54.366 42.09 121.44 42.09 67.072 0 121.49-28.984 121.49-42.09v-28.276-227.46-28.276c0-13.106-54.417-23.726-121.49-23.726z" color="#000000" fill="url(#bk)"/><path transform="matrix(1.5965 0 0 .88262 920.64 -296)" d="m-43.571 280.58a76.071 25.357 0 0 1-76.071 25.357 76.071 25.357 0 0 1-76.071-25.357 76.071 25.357 0 0 1 76.071-25.357 76.071 25.357 0 0 1 76.071 25.357z" color="#000000" fill="url(#h)" stroke-width="0"/><path transform="matrix(1.5382 0 0 .85038 913.66 -286.95)" d="m-43.571 280.58a76.071 25.357 0 0 1-76.071 25.357 76.071 25.357 0 0 1-76.071-25.357 76.071 25.357 0 0 1 76.071-25.357 76.071 25.357 0 0 1 76.071 25.357z" color="#000000" fill="url(#k)" stroke-width="0"/><path transform="matrix(1.514 0 0 .81078 910.78 -275.17)" d="m-43.571 280.58a76.071 25.357 0 0 1-76.071 25.357 76.071 25.357 0 0 1-76.071-25.357 76.071 25.357 0 0 1 76.071-25.357 76.071 25.357 0 0 1 76.071 25.357z" color="#000000" fill="url(#j)"/><path transform="matrix(1.2908 0 0 .6165 884.07 -221.82)" d="m-43.571 280.58a76.071 25.357 0 0 1-76.071 25.357 76.071 25.357 0 0 1-76.071-25.357 76.071 25.357 0 0 1 76.071-25.357 76.071 25.357 0 0 1 76.071 25.357z" color="#000000" fill="url(#g)" stroke-width="0"/><path transform="matrix(1.259 0 0 .52463 880.26 -194.17)" d="m-43.571 280.58a76.071 25.357 0 0 1-76.071 25.357 76.071 25.357 0 0 1-76.071-25.357 76.071 25.357 0 0 1 76.071-25.357 76.071 25.357 0 0 1 76.071 25.357z" color="#000000" fill="url(#f)"/><path d="m608.18 224.67v7.3187c0 13.834 54.366 44.427 121.44 44.427 67.072 0 121.49-30.593 121.49-44.427v-7.3187c0 13.834-54.417 44.427-121.49 44.427-67.072 0-121.44-30.593-121.44-44.427z" color="#000000" fill="url(#an)"/><path d="m608.18 227.37v7.3187c0 13.834 54.366 44.427 121.44 44.427 67.072 0 121.49-30.593 121.49-44.427v-7.3187c0 13.834-54.417 44.427-121.49 44.427-67.072 0-121.44-30.593-121.44-44.427z" color="#000000" fill="url(#bl)"/></g><g transform="translate(-23.514 -12.661)"><path d="m140.02-16.979c-67.072 0-121.44 10.016-121.44 22.377v26.668 214.52 24.471l90.018-42.71h152.91v-196.28-26.668c0-12.361-54.417-22.377-121.49-22.377z" color="#000000" fill="#808080"/><path d="m261.51 288.43-45.265 22.751-26.668 13.434c-3.8202 1.9218-14.321 4.5236-28.916 7.2587 57.241-5.004 100.85-29.385 100.85-41.115v-2.3293z" color="#000000" fill="#808080"/><path d="m140.01-16.999c-67.072 0-121.44 10.62-121.44 23.726v28.276 227.46 28.276c0 13.106 54.366 42.09 121.44 42.09 67.072 0 121.49-28.984 121.49-42.09v-28.276-227.46-28.276c0-13.106-54.417-23.726-121.49-23.726z" color="#000000" fill="url(#bm)"/><path transform="matrix(1.5965 0 0 .88262 331.03 -242.28)" d="m-43.571 280.58a76.071 25.357 0 0 1-76.071 25.357 76.071 25.357 0 0 1-76.071-25.357 76.071 25.357 0 0 1 76.071-25.357 76.071 25.357 0 0 1 76.071 25.357z" color="#000000" fill="url(#h)" stroke-width="0"/><path transform="matrix(1.5382 0 0 .85038 324.06 -233.24)" d="m-43.571 280.58a76.071 25.357 0 0 1-76.071 25.357 76.071 25.357 0 0 1-76.071-25.357 76.071 25.357 0 0 1 76.071-25.357 76.071 25.357 0 0 1 76.071 25.357z" color="#000000" fill="url(#k)" stroke-width="0"/><path transform="matrix(1.514 0 0 .81078 321.17 -221.46)" d="m-43.571 280.58a76.071 25.357 0 0 1-76.071 25.357 76.071 25.357 0 0 1-76.071-25.357 76.071 25.357 0 0 1 76.071-25.357 76.071 25.357 0 0 1 76.071 25.357z" color="#000000" fill="url(#j)"/><path transform="matrix(1.2908 0 0 .6165 294.46 -168.1)" d="m-43.571 280.58a76.071 25.357 0 0 1-76.071 25.357 76.071 25.357 0 0 1-76.071-25.357 76.071 25.357 0 0 1 76.071-25.357 76.071 25.357 0 0 1 76.071 25.357z" color="#000000" fill="url(#g)" stroke-width="0"/><path transform="matrix(1.259 0 0 .52463 290.66 -140.45)" d="m-43.571 280.58a76.071 25.357 0 0 1-76.071 25.357 76.071 25.357 0 0 1-76.071-25.357 76.071 25.357 0 0 1 76.071-25.357 76.071 25.357 0 0 1 76.071 25.357z" color="#000000" fill="url(#f)"/><path d="m18.568 278.39v7.3187c0 13.834 54.366 44.427 121.44 44.427 67.072 0 121.49-30.593 121.49-44.427v-7.3187c0 13.834-54.417 44.427-121.49 44.427-67.072 0-121.44-30.593-121.44-44.427z" color="#000000" fill="url(#ao)"/><path d="m18.568 281.08v7.3187c0 13.834 54.366 44.427 121.44 44.427 67.072 0 121.49-30.593 121.49-44.427v-7.3187c0 13.834-54.417 44.427-121.49 44.427-67.072 0-121.44-30.593-121.44-44.427z" color="#000000" fill="url(#bn)"/><g transform="matrix(-1.6348 0 0 1.6348 -39.048 -417.96)"><path d="m-158.15 265.65c-3.5866 0.22877-4.5355 4.3071-4.7751 7.2457-2.7914 17.801-0.0859 35.82-0.67993 53.718 0.2041 6.5189 1.1312 12.985 2.0946 19.427 2.0869 3.7466 7.2216 1.4237 8.9996-1.4528 3.4134-3.8196 4.4955-9.4245 2.7925-14.244-0.50932-3.8639 1.4015-8.4664 5.393-9.6154 4.4565 0.37059 2.724 6.0356 2.3629 8.9762-0.47863 4.1364-0.71797 9.4039 3.019 12.157 3.938 2.158 8.7767-1.145 9.6093-5.2146 2.0969-4.0745 2.7029-8.5468 3.1165-13.018-0.43138-3.8652 3.5634-9.6518 7.2226-5.3971 1.6797 2.86 6.3252 3.7144 5.8416-0.80352 1.4421-13.446 1.0121-26.996 1.6245-40.486 0.93399-5.0831-3.5363-7.5285-7.9587-7.3322-12.794-2.0769-25.703-3.5208-38.662-3.9605z" color="#000000" fill="url(#ap)"/><path d="m-155.89 268.78c-4.5192-0.61416-8.5519 4.616-2.875 5.5139 14.036 2.3622 28.77 3.2709 43.094 3.2293 5.2304-0.95399 3.0925-6.2663-1.8868-6.0911-12.629-1.6462-25.506-2.3623-38.332-2.652z" color="#000000" fill="url(#bo)" stroke-width="0"/><path d="m-159.75 272.8c-4.2215 0.1393 5.771 1.4324 3.9375 1.3125 11.505 2.1318 23.616 3.1117 35.156 3.1562-9.9381-3.1256-21.085-3.1564-31.594-4.0938-2.5006-0.0518-4.9944-0.5345-7.5-0.375z" color="#000000" fill="#fff" stroke-width="0"/></g></g><g transform="matrix(-2.2584 0 0 2.2584 1087.6 -326.82)"><g><path d="m328.48 321.12c0 16.14-24.404 29.224-54.508 29.224s-54.508-13.084-54.508-29.224c0-16.14 24.404-29.224 54.508-29.224s54.508 13.084 54.508 29.224z" color="#000000" fill="url(#bj)"/><path d="m244.32 295.99c-11.621 3.0007-9.7812 0.52256-9.7812 10.031 0 4.3664 4.8044-1.312 6.7812 0.65625 3.8907 3.8738 7.673 10.953 15.625 13.062 23.833 6.3233 49.329 13.276 56.344 18.906 6.5374-1.8967 12.265-4.4168 16.875-7.4062v-21.562c0-6.0079-5.1356-12.824-10.781-10.844l-19.781 6.9375c-34.415 1.355-38.359 8.6973-55.281-9.7812z" color="#000000" filter="url(#co)"/><path d="m219.51 320.37c-8e-3 0.20917-0.0312 0.41477-0.0312 0.625 0 16.14 24.396 29.219 54.5 29.219s54.5-13.079 54.5-29.219c0-0.21023-0.023-0.41583-0.0312-0.625-0.62434 15.849-24.757 28.594-54.469 28.594s-53.844-12.744-54.469-28.594z" color="#000000" fill="url(#aq)" filter="url(#ch)"/><path d="m305.4 319.35c0 9.3056-14.071 16.849-31.428 16.849-17.357 0-31.428-7.5437-31.428-16.849s14.071-16.849 31.428-16.849c17.357 0 31.428 7.5437 31.428 16.849z" color="#000000" fill="url(#bi)"/><path d="m255.44 309.53c-0.38117 0.96115-0.59128 1.9699-0.59128 3.0037 0 6.935 9.0954 12.559 20.316 12.559 11.052 0 20.048-5.4606 20.316-12.251-24.311 0.98887-29.819 5.5898-40.042-3.3112z" color="#000000" fill="url(#ar)"/><path d="m242.9 289.83c18.212 19.794 22.445 11.92 59.482 10.468l21.287-7.4326c6.076-2.1215 11.617 5.1811 11.617 11.617v25.001c0 6.4357-16.114 24.237-16.31 17.804l-0.23089-7.5761c4.5888-6.4911-30.235-15.996-62.256-24.452-8.558-2.26-12.641-9.843-16.828-13.993-2.1275-2.1084-7.306 3.9643-7.306-0.71305 0-10.186-1.9618-7.5096 10.545-10.724z" color="#000000" fill="url(#q)"/><path d="m461.99 227.32 18.645-0.7313c3.2154-0.12611 5.5445-4.2339 7.7246-3.8759s4.2109 5.1817 4.4927 7.0901c0.28178 1.9084-0.26842 7.1132-2.252 8.086-1.9836 0.97275-5.4005-2.2866-8.5151-1.4781l-18.061 4.6884c-6.2292 1.617-11.946-1.3759-12.509-5.1928-0.56355-3.8168 4.0442-8.3342 10.475-8.5864z" color="#000000" fill="url(#as)"/><path d="m437.28 203.63c-43.213 4.698-87.168 19.113-132.15 19.868-6.4152 0.92593-10.808 6.835-9.8826 13.25l2.4234 16.807 8.6165-2.2386c-6.0187 2.4057-8.9206 9.2143-6.5149 15.233l12.18 30.466c2.4057 6.0186 9.1514 8.9207 15.17 6.5149 10.414-20.136 89.255-30.415 98.733-42.327 3.6641-4.6052 42.973-2.111 38.301-30.754-0.53799-7.7725-3.8606-24.688-26.874-26.82z" color="#000000" fill="url(#r)"/><path d="m253.04 291.93c-1.2452 0.3689-2.3081 0.67273-3.2188 0.90625-2.2711 1.8945-4.0493 4.0123-5.2188 6.3125 0.0206 0.76863 0.0312 1.5908 0.0312 2.625 0 4.2945 4.1493-1.2795 5.8438 0.65625 3.335 3.81 6.5588 10.769 13.375 12.844 10.206 3.1068 20.765 6.3551 29.531 9.5312 11.383-3.5299 19.188-10.808 19.188-19.219 0-2.8048-0.8892-5.4816-2.4688-7.9375l-9.6875 3.9062c-29.499 1.3327-32.87 8.5489-47.375-9.625z" color="#000000" fill="url(#at)" filter="url(#bz)"/><path transform="matrix(.91919 0 0 .88348 7.9166 -328.81)" d="m260.41 703.97c-3.6756 2.5514-6.2087 5.6118-7.1875 8.9375 0.7459-0.17311 1.4283-0.12961 1.9375 0.375 4.1873 4.1496 8.2545 11.709 16.812 13.969 9.3876 2.4791 19.007 5.068 27.812 7.625 15.242-2.3913 26.375-9.93 26.375-18.875 0-2.0871-0.62699-4.0812-1.75-5.9688l-6.5312 2.2812c-35.63 1.3963-40.905 8.7234-57.469-8.3438z" color="#000000" fill="url(#am)" filter="url(#ca)"/><path d="m249.1 294.53c-0.50363 1.27-0.78125 2.6028-0.78125 3.9688 0 9.1631 12.018 16.594 26.844 16.594 14.603 0 26.489-7.215 26.844-16.188-32.122 1.3066-39.4 7.3857-52.906-4.375z" color="#000000" fill="url(#au)"/><path d="m322.97 223.11 31.802-3.8186c2.8819 0.70964 6.8415 3.0389 9.7681 4.6991 1.3706 0.77749 0.89596 2.032-0.4999 2.3251l-30.458 6.3961c-1.3959 0.29313-3.4292-0.43828-4.5846-1.4666l-6.5278-5.81c-1.1554-1.0284-0.92019-2.1546 0.49987-2.3251z" color="#000000" fill="url(#s)" filter="url(#cb)"/><path d="m450.57 209.21c-42.798 7.2814-85.714 23.194-130.53 27.125-6.3388 1.2826-10.335 6.813-9 12.406l3.5 14.656 8.4375-2.5938c-5.8483 2.5595-8.317 8.7702-5.5312 13.906l13.219 24.344c18.563-17.256 86.437-26.846 95.188-37.844 3.6641-4.6052 42.985-2.1071 38.312-30.75-0.368-5.3166-2.053-14.91-10.438-21.125-1.0209-0.0739-2.0515-0.1149-3.1562-0.125z" color="#000000" fill="url(#t)" filter="url(#bv)"/><path transform="matrix(1.1199 0 0 .9905 -60.286 -411.53)" d="m415.58 643.3c-22.079 2.9-44.537 11.798-67.521 12.264-3.2777 0.57155-5.5224 4.2191-5.0493 8.1791l1.2382 10.374 4.4024-1.3819c-3.0751 1.485-4.5578 5.6878-3.3287 9.403l6.2232 18.806c1.2291 3.7152 4.6757 5.5065 7.7508 4.0215 5.3206-12.43 45.603-18.774 50.446-26.127 1.8721-2.8427 21.956-1.303 19.569-18.984-0.27487-4.7978-1.9725-15.239-13.73-16.555z" color="#000000" fill="url(#al)" filter="url(#bw)"/><path d="m336.68 234.68c-5.5614 0.48772-11.133 0.86689-16.732 0.95207-5.3263 0.69644-8.9762 5.1373-8.2075 9.9626l2.0405 12.649 7.1192-1.7001c-4.9971 1.8095-7.3935 6.9317-5.3961 11.459l10.112 22.918c1.9974 4.527 7.6088 6.7058 12.606 4.8963 1.837-3.2179 6.5558-6.0392 12.425-8.6706-6e-3 -2.3605 0.12958-4.5407 0-7.0045-0.28488-5.4178-0.8989-11.053-1.9952-16.627-0.54813-2.7869-1.2351-5.5592-2.0405-8.2965-0.80539-2.7373-1.7578-5.4298-2.8567-8.0585-1.0989-2.6288-2.335-5.1893-3.7636-7.6505-0.97522-1.68-2.1671-3.2495-3.3102-4.8283z" color="#000000" fill="url(#u)" filter="url(#bu)"/><path d="m330.1 221.94 24.728-3.4154c2.2409 0.63471 5.3197 2.718 7.5953 4.2029 1.0657 0.69539 0.69666 1.8174-0.38869 2.0796l-23.683 5.7207c-1.0854 0.26218-2.6664-0.392-3.5648-1.3118l-5.0757-5.1965c-0.8984-0.91978-0.7155-1.9271 0.38869-2.0796z" color="#000000" fill="url(#av)"/><path transform="matrix(.9407 0 0 1 4.9277 -412.01)" d="m345.64 632.83 25.97-3.4154c2.3535 0.63471 5.587 2.718 7.977 4.2029 1.1192 0.69539 0.73167 1.8174-0.40823 2.0796l-24.873 5.7207c-1.1399 0.26218-2.8004-0.392-3.744-1.3118l-5.3308-5.1965c-0.94355-0.91978-0.75146-1.9271 0.40822-2.0796z" color="#000000" fill="url(#ak)" filter="url(#cd)"/><path transform="matrix(.96776 0 0 1 -6.3014 -412.01)" d="m263.88 711.16c-0.0196 0.25642-0.0625 0.52225-0.0625 0.78125 0 9.1631 12.018 16.594 26.844 16.594 14.603 0 26.489-7.215 26.844-16.188-0.0762 3e-3 -0.14283-3e-3 -0.21875 0-1.7407 8.1251-13.005 14.406-26.625 14.406-14.276 0-25.935-6.9019-26.781-15.594z" color="#000000" fill="#1a1a1a" filter="url(#ci)"/></g><path d="m329.07 222.02v2l5.3438 5.1875 3.7188 1.3125 24.875-5.7188v-2l-24.875 5.7188-3.7188-1.3125-5.3438-5.1875z" fill="url(#aw)" filter="url(#ce)"/><g><path d="m314.63 234.05c-2.7704-0.0164-4.1652 1.4278-4.1652 1.4278-2.8155 0.12163-3.0422 2.983-3.7788 5.9572-1.0166 0.60849-2.1056 2.7526-3.023 3.3331 2.0255 1.6938 4.4449 2.6881 7.0439 2.6881 4.2257 0 7.9587-2.6289 10.313-6.6514-1.3459-2.0573-3.0458-5.9102-3.9232-6.3068-0.67077-0.31507-1.5434-0.44256-2.4668-0.44803z" color="#000000" fill="url(#ax)"/><path d="m294.35 216.77c-2.9129-0.0149-6.3438 0.9375-6.3438 0.9375-2.9603 0.11029-1.413 4.4906-2.1875 7.1875-11.684 6.031-16.794 9.915-22.969 25.406l-11.594 5.0625c-5.8735 2.6306-9.9688 6.9393-9.9688 13.375v21.469c0.54884-0.13221 0.97637-0.21634 1.5938-0.375 18.212 19.794 22.463 11.92 59.5 10.469l18.844-6.5938c3.4721-9.2776-3.83-28.66 6.5625-30.438 5.5382-15.75-13.301-31.96-25.688-39.312-1.4165-0.8408-3.991-6.327-5.1562-6.7812-0.70529-0.28569-1.6228-0.40129-2.5938-0.40625z" color="#000000" fill="url(#v)"/><path transform="matrix(2.6524 0 0 3.6801 -478.83 -2137)" d="m287.97 643.55c-1.1819 0.11485-1.2086 2.5004-2.5515 3.8433-2.0463 2.0463-2.7886 1.9191-1.7654 2.9422s4.93 2.6287 6.9763 0.77651c2.18-1.9733 4.5813-3.3263 3.5581-4.3494-0.25579-0.25579-2.7813-2.0625-3.1904-2.0966-0.15342-0.0128-2.8583-1.1324-3.0271-1.116z" color="#000000" fill="url(#aj)" filter="url(#e)"/><path transform="matrix(.92399 0 0 1.015 6.8795 -422.36)" d="m299.12 653.09c-0.23625 0.0523-0.42566 0.36097-0.46875 0.875l-0.0625 0.9375c-0.0689 0.82244 0.21055 1.8356 0.65625 2.2812l2.625 2.5938c0.4457 0.4457 0.8373 0.13494 0.90625-0.6875l0.0937-0.90625c0.0689-0.82244-0.2418-1.8356-0.6875-2.2812l-2.5938-2.5938c-0.16714-0.16714-0.327-0.25015-0.46875-0.21875zm-0.125 5.9688c-0.25253 0.0559-0.42269 0.38807-0.46875 0.9375l-0.0937 0.96875c-0.0737 0.87908 0.24236 1.9611 0.71875 2.4375l2.7812 2.7812c0.47639 0.47639 0.9263 0.16033 1-0.71875l0.0937-0.96875c0.0737-0.87908-0.27361-1.9611-0.75-2.4375l-2.7812-2.7812c-0.17865-0.17865-0.34848-0.25231-0.5-0.21875zm8.3438 0.125c-0.25253 0.0559-0.45394 0.38807-0.5 0.9375l-0.0625 0.96875c-0.0737 0.87908 0.24236 1.9611 0.71875 2.4375l2.7812 2.7812c0.47639 0.47639 0.9263 0.16033 1-0.71875l0.0625-0.96875c0.0737-0.87908-0.24236-1.9611-0.71875-2.4375l-2.7812-2.7812c-0.17865-0.17865-0.34848-0.25231-0.5-0.21875zm0 6.0625c-0.25253 0.0559-0.45394 0.38807-0.5 0.9375l-0.0625 0.96875c-0.0737 0.87908 0.24236 1.9611 0.71875 2.4375l2.7812 2.7812c0.47639 0.47639 0.9263 0.16033 1-0.71875l0.0625-0.96875c0.0737-0.87908-0.24236-1.9611-0.71875-2.4375l-2.7812-2.7812c-0.17865-0.17865-0.34848-0.25231-0.5-0.21875z" color="#000000" fill="url(#ai)" filter="url(#n)"/><path d="m283.63 241.09c-0.23625 0.0523-0.42565 0.36097-0.46875 0.875l-0.0625 0.9375c-0.0689 0.82244 0.21055 1.8356 0.65625 2.2812l2.625 2.5938c0.4457 0.4457 0.8373 0.13494 0.90625-0.6875l0.0937-0.90625c0.0689-0.82244-0.2418-1.8356-0.6875-2.2812l-2.5938-2.5938c-0.16714-0.16714-0.327-0.25015-0.46875-0.21875zm-0.125 5.9688c-0.25252 0.0559-0.42269 0.38807-0.46875 0.9375l-0.0937 0.96875c-0.0737 0.87908 0.24237 1.9611 0.71875 2.4375l2.7812 2.7812c0.47639 0.47639 0.9263 0.16033 1-0.71875l0.0937-0.96875c0.0737-0.87908-0.27361-1.9611-0.75-2.4375l-2.7812-2.7812c-0.17865-0.17865-0.34847-0.25231-0.5-0.21875zm8.3438 0.125c-0.25253 0.0559-0.45394 0.38807-0.5 0.9375l-0.0625 0.96875c-0.0737 0.87908 0.24236 1.9611 0.71875 2.4375l2.7812 2.7812c0.47639 0.47639 0.9263 0.16033 1-0.71875l0.0625-0.96875c0.0737-0.87908-0.24236-1.9611-0.71875-2.4375l-2.7812-2.7812c-0.17865-0.17865-0.34848-0.25231-0.5-0.21875zm0 6.0625c-0.25253 0.0559-0.45394 0.38807-0.5 0.9375l-0.0625 0.96875c-0.0737 0.87908 0.24236 1.9611 0.71875 2.4375l2.7812 2.7812c0.47639 0.47639 0.9263 0.16033 1-0.71875l0.0625-0.96875c0.0737-0.87908-0.24236-1.9611-0.71875-2.4375l-2.7812-2.7812c-0.17865-0.17865-0.34848-0.25231-0.5-0.21875z" color="#000000" filter="url(#n)"/><path transform="matrix(1.3503 0 0 1.1426 -128.9 -500.59)" d="m306.22 639.14c-0.67878 0.83658-1.1781 1.7741-1.4688 2.8438 1.7605 1.5681 3.9998 3.2731 6.5 4.9375 6.7959 4.5241 13.091 7.0224 14.062 5.5625 0.40275-0.60499-0.20219-1.809-1.5-3.3125-2.5969-0.47539-7.151-2.6365-11.969-5.8438-2.1096-1.4044-4.0244-2.8352-5.625-4.1875z" color="#000000" fill="url(#bh)" filter="url(#cp)"/><path transform="matrix(1.0749 0 0 1.0646 -41.974 -456.02)" d="m304.41 646.06c-0.27693 0.0613-0.51199 0.42872-0.5625 1.0312l-0.0625 1.0938c-0.0808 0.96405 0.25882 2.1338 0.78125 2.6562l3.0625 3.0625c0.52243 0.52243 1.0129 0.1828 1.0938-0.78125l0.0625-1.0938c0.0808-0.96405-0.25882-2.1651-0.78125-2.6875l-3.0625-3.0312c-0.19591-0.19591-0.36509-0.2868-0.53125-0.25zm8.1875 6.8125c-0.30569 0.0677-0.53799 0.49114-0.59375 1.1562l-0.0937 1.1875c-0.0892 1.0642 0.2983 2.3608 0.875 2.9375l3.375 3.375c0.5767 0.5767 1.0983 0.18918 1.1875-0.875l0.0937-1.1875c0.0892-1.0642-0.2983-2.392-0.875-2.9688l-3.375-3.3438c-0.21626-0.21626-0.41033-0.32188-0.59375-0.28125z" color="#000000" fill="url(#bg)" filter="url(#m)"/><path d="m285.88 232.04c-0.27693 0.0613-0.51199 0.42872-0.5625 1.0312l-0.0625 1.0938c-0.0808 0.96405 0.25882 2.1338 0.78125 2.6562l3.0625 3.0625c0.52244 0.52243 1.0129 0.1828 1.0938-0.78125l0.0625-1.0938c0.0808-0.96405-0.25881-2.1651-0.78125-2.6875l-3.0625-3.0312c-0.19591-0.19591-0.36509-0.2868-0.53125-0.25zm8.1875 6.8125c-0.30569 0.0677-0.53799 0.49114-0.59375 1.1562l-0.0937 1.1875c-0.0892 1.0642 0.29829 2.3608 0.875 2.9375l3.375 3.375c0.57669 0.5767 1.0983 0.18918 1.1875-0.875l0.0937-1.1875c0.0892-1.0642-0.2983-2.392-0.875-2.9688l-3.375-3.3438c-0.21626-0.21626-0.41033-0.32188-0.59375-0.28125z" color="#000000" filter="url(#m)"/><path transform="matrix(1.3402 0 0 1.202 -122.35 -545.1)" d="m315.12 664.47c-1.391 0.13778-3.2095 1.1158-4.7812 2.6875-2.395 2.395-3.3537 5.3025-2.1562 6.5s4.105 0.20748 6.5-2.1875 3.385-5.3025 2.1875-6.5c-0.29937-0.29937-0.70866-0.46003-1.1875-0.5-0.17957-0.015-0.36379-0.0197-0.5625 0z" color="#000000" fill="url(#ah)" filter="url(#e)"/><path transform="matrix(1.3015 0 0 1.7968 -104.15 -925.16)" d="m291 645.11c-1.1819 0.11485-2.7196 0.93836-4.0625 2.2812-2.0463 2.0463-2.8982 4.5393-1.875 5.5625s3.5162 0.20256 5.5625-1.8438 2.8982-4.5393 1.875-5.5625c-0.25579-0.25579-0.62212-0.40335-1.0312-0.4375-0.15342-0.0128-0.29991-0.0164-0.46875 0z" color="#000000" fill="url(#ag)" filter="url(#e)"/><path d="m275.51 233.1c-1.1819 0.11485-2.7196 0.93836-4.0625 2.2812-2.0463 2.0463-2.8982 4.5393-1.875 5.5625s3.5162 0.20256 5.5625-1.8438 2.8982-4.5393 1.875-5.5625c-0.25579-0.25579-0.62212-0.40335-1.0312-0.4375-0.15343-0.0128-0.29992-0.0164-0.46875 0z" color="#000000" filter="url(#e)"/><path d="m300.88 251.57c-1.391 0.13778-3.2095 1.1158-4.7812 2.6875-2.395 2.395-3.3537 5.3025-2.1562 6.5s4.105 0.20748 6.5-2.1875c2.395-2.395 3.385-5.3025 2.1875-6.5-0.29937-0.29937-0.70866-0.46003-1.1875-0.5-0.17957-0.015-0.36379-0.0197-0.5625 0z" color="#000000" filter="url(#e)"/><path d="m263.44 257.21c-3.609 0-6.5313 1.8008-6.5313 4.0312s2.9223 4.0312 6.5313 4.0312 6.5312-1.8008 6.5312-4.0312-2.9223-4.0312-6.5312-4.0312z" color="#000000" fill="url(#w)" filter="url(#by)"/><path d="m245.77 261.68c-1.107 1.3643-1.9323 2.9118-2.4062 4.6562 2.871 2.5572 6.4851 5.3481 10.562 8.0625 11.083 7.378 21.353 11.412 22.938 9.0312 0.65681-0.98661-0.32103-2.9231-2.4375-5.375-4.2351-0.77526-11.675-4.3322-19.531-9.5625-3.4403-2.2903-6.5147-4.6071-9.125-6.8125z" color="#000000" fill="url(#ay)" filter="url(#p)"/><path d="m321.44 240.21c-5.9 10.273-10.176 23.096-20.281 27.688-9.4158 6.2147-32.204 7.6585-32.204 7.6585v27.466s17.648-2.1005 33.423-2.7188l18.844-6.5938c3.4721-9.2776-3.83-28.66 6.5625-30.438 2.8036-7.9731-0.65253-16.062-6.3438-23.062z" color="#000000" fill="url(#az)" filter="url(#p)"/><path d="m331.47 259.87c-7.7446 0.14347-16.326 4.2117-22.781 11.562-10.329 11.761-11.32 27.508-2.2188 35.156 9.1016 7.6479 24.858 4.2925 35.187-7.4688 10.329-11.761 11.32-27.477 2.2188-35.125-3.4131-2.8679-7.7595-4.2111-12.406-4.125z" color="#000000" fill="url(#x)" filter="url(#br)"/><path d="m330.85 259.46c-7.6552 0.13957-16.088 4.0994-22.469 11.25-9.8777 11.069-11.139 25.726-3.0625 33.406-6.0604-8.0352-4.3052-21.255 4.7812-31.438 10.21-11.441 25.785-14.69 34.781-7.25 0.33737 0.27899 0.65941 0.57451 0.96875 0.875-0.76991-1.0414-1.6879-1.9913-2.7188-2.8438-3.3736-2.7898-7.6882-4.0837-12.281-4z" color="#000000" fill="url(#y)" filter="url(#bq)"/><path d="m329.6 272.43c-4.0394 0.0504-8.6302 1.6302-12.094 5.0938-6.1575 6.1574-6.3993 15.913-2.5938 19.719 0.56193 0.56194 1.272 1.0265 2.0625 1.4062l23.219 21.688 20.844 19.5c5.455 5.0985 14.318 5.1433 19.156-0.53125l8.125-9.5312c4.8385-5.6745 5.6045-14.662-0.53125-18.938l-24-16.719-25.531-17.781c-0.30875-0.52082-0.63089-1.0059-1.0312-1.4062-1.6649-1.6649-4.4832-2.5392-7.625-2.5z" color="#000000" fill="url(#ba)" filter="url(#bs)"/><path d="m365.86 316.14c8.5059-8.5059 21.973-8.829 27.23-3.5721 5.2569 5.2569 4.9338 18.725-3.5721 27.23-8.5059 8.5059-21.973 8.829-27.23 3.5721-5.2569-5.2569-4.9338-18.725 3.5721-27.23z" color="#000000" fill="url(#z)" filter="url(#cf)"/><path transform="matrix(.80228 0 0 .80228 61.778 -266.16)" d="m383.8 730.33c7.3622-7.3623 19.019-7.6419 23.569-3.0918 4.5501 4.5501 4.2704 16.207-3.0918 23.569-7.3623 7.3622-19.019 7.6419-23.569 3.0918-4.5501-4.5501-4.2704-16.207 3.0918-23.569z" color="#000000" fill="url(#af)" filter="url(#cc)"/><path d="m374.02 346.79c5.3759-0.0647 11.498-2.1167 16.107-6.5625 8.1947-7.9037 8.5599-22.175 3.4953-27.06-0.34963-0.33722-0.7232-0.67124-1.1441-0.95824 0.0404 0.0374 0.081 0.0781 0.12043 0.11615 5.0646 4.8848 4.6994 19.156-3.4953 27.06-7.6424 7.3711-19.445 8.133-25.109 4.2395 2.2259 2.0822 5.9003 3.2148 10.026 3.1651z" color="#000000" filter="url(#l)"/><path transform="matrix(-.93803 0 0 -.98401 745.06 1055.1)" d="m388.98 758.98c5.3759-0.0647 11.498-2.1167 16.107-6.5625 8.1947-7.9037 8.5599-22.175 3.4953-27.06-0.34963-0.33722-0.7232-0.67124-1.1441-0.95824 0.0404 0.0374 0.081 0.0781 0.12043 0.11615 5.0646 4.8848 4.6994 19.156-3.4953 27.06-7.6424 7.3711-19.445 8.133-25.109 4.2395 2.2259 2.0822 5.9003 3.2148 10.026 3.1651z" color="#000000" filter="url(#l)"/><path d="m294.73 217.65c-2.913-0.0149-6.3438 0.9375-6.3438 0.9375-2.9603 0.11029-1.413 4.4906-2.1875 7.1875-1.0689 0.55175-2.0353 1.0674-3 1.5938 2.1297 1.5359 4.6736 2.4375 7.4062 2.4375 4.443 0 8.3681-2.3838 10.844-6.0312-1.4152-1.8655-3.2025-5.3592-4.125-5.7188-0.70529-0.28569-1.6228-0.40129-2.5938-0.40625z" color="#000000" fill="url(#aa)" filter="url(#bx)"/></g><path d="m383.57 212.74c-0.57043 0.11359-1.148 0.19893-1.7188 0.3125 2.0967 0.96762 3.8935 1.8084 5.2812 2.625 2.0245 1.1913 3.6218 2.5254 5.7188 5.0312 9.7411 11.641 11.141 28.618 10.5 41.094-0.20008 3.8915-0.59848 7.2551-1 9.9688 0.36585-0.11324 0.70181-0.23082 1.0625-0.34375 0.37753-2.6648 0.74703-5.8892 0.9375-9.5938 0.64766-12.597-0.73394-29.781-10.75-41.75-2.1442-2.5623-3.8549-4.0373-5.9688-5.2812-1.1658-0.686-2.5171-1.3424-4.0625-2.0625z" color="#000000" fill="url(#ab)" filter="url(#bt)" style="block-progression:tb;text-indent:0;text-transform:none"/><g><path d="m335.29 319.02c-1.4628 7.0457-7.6103 13.346-16.719 17.969 0.67339 0.95404 0.76286 1.8606 0.15625 2.7188l0.25 7.5625c0.19604 6.4327 16.312-11.346 16.312-17.781v-10.469z" color="#000000" fill="url(#bb)" filter="url(#cg)"/><path d="m232.26 294.49c-0.0723 1.2478 0.0937 3.1004 0.0937 6.0625 0 4.6773 5.185-1.3896 7.3125 0.71875 4.1873 4.1496 8.2545 11.709 16.812 13.969 28.547 7.5388 59.316 15.923 62.406 22.25 3.6463-6.4844-30.753-15.891-62.406-24.25-8.558-2.26-12.625-9.8191-16.812-13.969-2.1275-2.1084-7.3125 3.9586-7.3125-0.71875 0-1.7268-0.061-2.9836-0.0937-4.0625z" color="#000000" fill="url(#bc)" filter="url(#bp)"/><path d="m363.19 315.46c-2.6831 1.557-4.9597 4.7374-5.6562 9.3438-0.41925 2.7727-0.15434 5.8756 0.5625 8.9062-0.34698-2.5815-0.29873-5.2949 0.25-8.0312 0.0131-0.0653 0.0489-0.15347 0.0625-0.21875 0.011-0.0817 0.019-0.16892 0.0312-0.25 0.3817-2.5244 1.2081-4.6091 2.3438-6.25 0.0273-0.0396 0.0661-0.0861 0.0937-0.125 0.67615-1.2121 1.471-2.3299 2.3125-3.375z" color="#000000" fill="#808080" filter="url(#cr)"/><path d="m379.94 311.12c-4.522 0.0578-9.6538 1.8725-13.531 5.8438-6.8932 7.06-7.1665 18.262-2.9062 22.625 0.77674 0.79554 1.7811 1.4333 2.9375 1.9062-0.35976-0.25805-0.70247-0.53902-1-0.84375-4.2602-4.3633-3.9869-15.565 2.9062-22.625 3.8774-3.9712 9.0404-5.786 13.562-5.8438 2.0606-0.0263 3.9734 0.35519 5.5938 1.0312-1.8908-1.3836-4.5875-2.1318-7.5625-2.0938z" color="#000000" fill="url(#ac)" filter="url(#cq)"/><path transform="matrix(.76471 0 0 .42283 37.551 -24.287)" d="m285.36 685.58c0 3.3532-2.7183 6.0714-6.0714 6.0714-3.3532 0-6.0714-2.7183-6.0714-6.0714 0-3.3532 2.7183-6.0714 6.0714-6.0714 3.3532 0 6.0714 2.7183 6.0714 6.0714z" color="#000000" fill="#fff" filter="url(#o)"/><path transform="matrix(.88375 0 0 .8834 17.33 -331.14)" d="m265.88 676.66c-1.1441-0.0121-2.0524 0.33601-2.4688 1.0938-0.83278 1.5155 0.65356 4.01 3.3125 5.5625 2.6589 1.5525 5.4797 1.578 6.3125 0.0625 0.83279-1.5155-0.65357-3.9788-3.3125-5.5312-1.3295-0.77624-2.6996-1.1754-3.8438-1.1875z" color="#000000" fill="#fff" filter="url(#o)"/><path d="m315.19 235.3c-2.913-0.0149-4.3795 1.2946-4.3795 1.2946-2.9603 0.11029-3.1987 2.7049-3.9732 5.4018-1.0689 0.55175-2.2139 2.496-3.1786 3.0223 2.1297 1.5359 4.6736 2.4375 7.4062 2.4375 4.443 0 8.3681-2.3838 10.844-6.0312-1.4152-1.8655-3.2025-5.3592-4.125-5.7188-0.70529-0.28569-1.6228-0.40129-2.5938-0.40625z" color="#000000" fill="url(#bd)" filter="url(#cm)"/><path transform="matrix(1.526 0 0 1.1388 -161.76 -509.25)" d="m282.69 690.25c-1.0427 0-1.9062 5.071-1.9062 11.375s0.86352 11.438 1.9062 11.438 1.875-5.1335 1.875-11.438-0.83227-11.375-1.875-11.375z" color="#000000" fill="url(#ae)" filter="url(#cn)"/><path d="m310.81 235.48c-1.003-5e-3 -2.8754 1.6237-4.5378 4.0136-1.8998 2.7313-2.777 5.4185-1.9501 5.9833 0.43482 0.29701 1.259-0.0638 2.2126-0.85475 0.0297-0.0338 0.0452-0.0777 0.075-0.11149 0.45767-0.51953 0.9296-1.0166 1.3876-1.375 0.0228-0.0178 0.0523-0.0201 0.075-0.0372 0.17378-0.20203 0.31435-0.41094 0.48753-0.63178 0.68196-2.4512 1.0727-4.7747 2.9252-5.686 0.0735-0.57344-0.0266-1.0025-0.30002-1.1892-0.10336-0.0706-0.23172-0.1108-0.37502-0.11149z" color="#000000" fill="url(#be)" filter="url(#cl)"/><path d="m316.15 235.53c0 0.34518-1.3192 0.625-2.9464 0.625s-2.9464-0.27982-2.9464-0.625 1.3192-0.625 2.9464-0.625 2.9464 0.27982 2.9464 0.625z" color="#000000" fill="url(#bf)" filter="url(#ck)"/><path d="m331.91 261.43c-7.6552 0.13957-16.088 4.0994-22.469 11.25-9.8777 11.069-11.139 25.726-3.0625 33.406-0.3288-0.43592-0.65469-0.87848-0.9375-1.3438-0.0496-0.0666-0.0765-0.1514-0.125-0.21875-5.8002-8.0569-3.9777-21.065 5-31.125 6.381-7.1506 14.845-11.11 22.5-11.25 4.4148-0.0805 8.5331 1.1187 11.844 3.6875-0.15479-0.13791-0.30835-0.2736-0.46875-0.40625-3.3736-2.7898-7.6882-4.0837-12.281-4zm14.094 6.0312c0.31132 0.26293 0.61783 0.53233 0.90625 0.8125-0.0789-0.1067-0.16805-0.20747-0.25-0.3125-0.21049-0.16896-0.43894-0.34244-0.65625-0.5z" color="#000000" fill="url(#ad)" filter="url(#cj)"/></g></g></g></svg>
