<svg xmlns="http://www.w3.org/2000/svg" xmlns:xlink="http://www.w3.org/1999/xlink" width="641.406" height="289.356"><defs><linearGradient id="k"><stop offset="0" stop-color="#dec800"/><stop offset=".57" stop-color="#b5a10a"/><stop offset=".7" stop-color="#a49a00"/><stop offset="1" stop-color="#e7cd00"/></linearGradient><linearGradient id="i"><stop offset="0" stop-color="#fff"/><stop offset="1" stop-color="#fff" stop-opacity="0"/></linearGradient><linearGradient id="f"><stop offset="0" stop-opacity=".748"/><stop offset="1" stop-opacity=".365"/></linearGradient><linearGradient id="g"><stop offset="0"/><stop offset=".18" stop-color="#272727"/><stop offset="1" stop-color="#333"/></linearGradient><linearGradient id="a"><stop offset="0" stop-color="#2e3449"/><stop offset="1" stop-color="#1a1d29"/></linearGradient><linearGradient id="c"><stop offset="0"/><stop offset=".824"/><stop offset=".929" stop-color="#272727"/><stop offset="1"/></linearGradient><linearGradient id="h"><stop offset="0" stop-opacity="0"/><stop offset="1" stop-opacity="0"/></linearGradient><linearGradient id="d"><stop offset="0"/><stop offset="1" stop-color="#272727"/><stop offset="1" stop-color="#626262"/></linearGradient><linearGradient id="b"><stop offset="0" stop-color="#dec800"/><stop offset=".386" stop-color="#b5a10a"/><stop offset=".703" stop-color="#a49a00"/><stop offset="1" stop-color="#e7cd00"/></linearGradient><linearGradient id="e"><stop offset="0" stop-color="#ccc"/><stop offset=".726" stop-color="#989898"/><stop offset="1" stop-color="#a9a9a9"/></linearGradient><linearGradient id="j"><stop offset="0" stop-color="#5f5f5f"/><stop offset=".936" stop-color="#929292"/><stop offset="1" stop-color="#e4e4e4"/></linearGradient><filter id="A" color-interpolation-filters="sRGB"><feGaussianBlur stdDeviation=".506"/></filter><radialGradient xlink:href="#a" id="l" cx="350.163" cy="141.057" fx="350.163" fy="141.057" r="259.766" gradientTransform="matrix(1.23459 0 0 .55696 -126.313 42.572)" gradientUnits="userSpaceOnUse"/><linearGradient xlink:href="#b" id="m" gradientUnits="userSpaceOnUse" gradientTransform="translate(-128 -360)" x1="86.029" y1="372.448" x2="86.029" y2="408.531"/><linearGradient xlink:href="#b" id="n" gradientUnits="userSpaceOnUse" gradientTransform="matrix(.45346 -.1215 .57496 .33196 -160.704 136.49)" x1="86.029" y1="372.448" x2="86.029" y2="408.531"/><filter id="H"><feGaussianBlur stdDeviation=".982"/></filter><filter id="w"><feGaussianBlur stdDeviation=".324"/></filter><filter id="D"><feGaussianBlur stdDeviation=".262"/></filter><radialGradient xlink:href="#c" id="z" gradientUnits="userSpaceOnUse" gradientTransform="matrix(.8061 .48137 -.62643 1.04902 535.556 -463.959)" cx="905.313" cy="574.705" fx="905.313" fy="574.705" r="46.652"/><linearGradient xlink:href="#d" id="C" gradientUnits="userSpaceOnUse" gradientTransform="translate(-247.31 -183.87) scale(1.30271)" x1="823.936" y1="605.559" x2="813.471" y2="598.137"/><radialGradient xlink:href="#e" id="E" gradientUnits="userSpaceOnUse" cx="592.399" cy="657.919" fx="592.399" fy="657.919" r="9.232"/><linearGradient xlink:href="#e" id="F" gradientUnits="userSpaceOnUse" x1="523.925" y1="91.697" x2="557.833" y2="91.697"/><radialGradient xlink:href="#f" id="G" gradientUnits="userSpaceOnUse" gradientTransform="matrix(1 0 0 1.16763 0 -14.59)" cx="544.302" cy="87.041" fx="544.302" fy="87.041" r="30.547"/><linearGradient xlink:href="#g" id="B" gradientUnits="userSpaceOnUse" gradientTransform="matrix(.44032 0 0 .42536 140.21 -148.595)" x1="788.83" y1="597.503" x2="802.363" y2="569.428"/><linearGradient xlink:href="#d" id="x" gradientUnits="userSpaceOnUse" gradientTransform="matrix(.43617 0 0 .4316 154.913 -141.892)" spreadMethod="reflect" x1="991.682" y1="487.275" x2="1078.286" y2="611.018"/><linearGradient xlink:href="#h" id="y" gradientUnits="userSpaceOnUse" gradientTransform="matrix(.43617 0 0 .4316 154.913 -141.892)" x1="964.844" y1="305.487" x2="1036.719" y2="466.425"/><radialGradient xlink:href="#d" id="L" gradientUnits="userSpaceOnUse" gradientTransform="matrix(.06394 -.12941 .58385 .26728 446.401 120.585)" spreadMethod="reflect" cx="468.456" cy="39.494" fx="468.456" fy="39.494" r="39.411"/><radialGradient xlink:href="#i" id="I" cx="499.134" cy="128.217" fx="499.134" fy="128.217" r="8.851" gradientTransform="matrix(1 0 0 2.78875 0 -229.349)" gradientUnits="userSpaceOnUse"/><filter id="J" x="-.049" width="1.098" y="-.102" height="1.204"><feGaussianBlur stdDeviation=".849"/></filter><radialGradient xlink:href="#d" id="v" cx="512.924" cy="92.354" fx="512.924" fy="92.354" r="24.127" gradientTransform="matrix(1 0 0 1.7504 0 -69.303)" gradientUnits="userSpaceOnUse"/><filter id="K"><feGaussianBlur stdDeviation="1.262"/></filter><linearGradient xlink:href="#e" id="t" gradientUnits="userSpaceOnUse" gradientTransform="matrix(.46946 0 0 .46946 105.764 -179.117)" x1="-68.276" y1="906.028" x2="-58.604" y2="906.028"/><linearGradient xlink:href="#e" id="s" gradientUnits="userSpaceOnUse" gradientTransform="matrix(.46946 0 0 .46946 105.764 -179.117)" x1="-60.498" y1="903.967" x2="-50.826" y2="903.967"/><radialGradient xlink:href="#e" id="r" gradientUnits="userSpaceOnUse" gradientTransform="matrix(.46946 0 0 .22668 105.764 40.988)" cx="-63.44" cy="906.612" fx="-63.44" fy="906.612" r="4.836"/><radialGradient xlink:href="#e" id="q" gradientUnits="userSpaceOnUse" gradientTransform="matrix(.46946 0 0 .22668 105.764 40.5)" cx="-55.662" cy="904.599" fx="-55.662" fy="904.599" r="4.836"/><radialGradient xlink:href="#j" id="p" gradientUnits="userSpaceOnUse" gradientTransform="matrix(.92913 -.2516 .20297 .74959 -39.356 -433.325)" cx="-56.265" cy="871.333" fx="-56.265" fy="871.333" r="28.986"/><radialGradient xlink:href="#k" id="u" gradientUnits="userSpaceOnUse" gradientTransform="matrix(1.74467 .54702 -.45573 1.45348 -288.604 -306.83)" cx="447.286" cy="121.691" fx="447.286" fy="121.691" r="44.789"/><filter id="M"><feGaussianBlur stdDeviation="1.184"/></filter></defs><g transform="translate(12.5 10.285)"><rect style="marker:none" width="641.406" height="289.356" x="-12.5" y="-10.285" ry="2.269" color="#000" fill="url(#l)" overflow="visible" enable-background="accumulate"/><path d="M-46.527 12.36h955.906c.218 0 .393.01.393.023V47.77c0 .013-.175.023-.393.023H-46.527c-.218 0-.394-.01-.394-.023V12.383c0-.013.176-.023.394-.023z" style="marker:none" color="#000" fill="url(#m)" overflow="visible" enable-background="accumulate" transform="translate(-230.983 -8.93)"/><path style="text-align:start;line-height:0%;-inkscape-font-specification:Arial Bold" d="M-272.829 28.106h-2.214v-3.335c-.809.303-1.762.526-2.86.671v-.803a11.416 11.416 0 0 0 1.883-.428c.678-.212 1.142-.459 1.395-.74h1.796v4.635M-239.907 27.284v.822h-7.761c.084-.31.336-.605.756-.882.42-.279 1.25-.648 2.49-1.108.998-.372 1.61-.623 1.836-.756.305-.182.457-.363.457-.541 0-.198-.134-.349-.402-.454-.262-.107-.627-.16-1.095-.16-.462 0-.83.055-1.103.167-.273.11-.43.296-.473.554l-2.206-.088c.131-.487.544-.837 1.237-1.049.693-.212 1.56-.318 2.6-.318 1.14 0 2.036.123 2.687.368.652.246.977.551.977.917 0 .207-.094.406-.283.595-.184.187-.478.383-.883.589-.268.136-.751.332-1.45.588-.698.257-1.142.427-1.331.51a2.986 2.986 0 0 0-.45.246h4.397M-211.433 26.881l2.143-.104c.069.219.252.385.552.5.3.116.662.174 1.087.174.457 0 .84-.07 1.15-.208.316-.138.474-.325.474-.56 0-.223-.15-.4-.45-.53-.299-.13-.664-.194-1.095-.194-.284 0-.622.022-1.016.066l.244-.721c.599.006 1.056-.046 1.371-.155.315-.111.473-.258.473-.44 0-.156-.116-.28-.347-.372-.231-.093-.538-.139-.922-.139-.378 0-.701.053-.97.158-.267.105-.43.258-.488.46l-2.04-.139c.141-.28.354-.502.638-.668.289-.168.688-.299 1.197-.393a9.396 9.396 0 0 1 1.726-.145c1.088 0 1.96.139 2.616.416.541.226.812.482.812.768 0 .405-.554.728-1.663.97.662.056 1.19.183 1.584.38.4.198.599.436.599.716 0 .405-.37.75-1.111 1.035-.74.286-1.663.429-2.766.429-1.045 0-1.912-.12-2.6-.36-.688-.24-1.088-.556-1.198-.944M-174.47 28.106v-.929h-4.728v-.774l5.012-2.932h1.86v2.928h1.434v.778h-1.435v.929h-2.143m0-1.707v-1.577l-2.655 1.577h2.655M-142.963 26.919l2.207-.091c.063.199.25.358.56.475.31.116.666.173 1.07.173.463 0 .855-.074 1.175-.223.32-.151.48-.378.48-.68 0-.284-.16-.496-.48-.636-.315-.143-.728-.215-1.237-.215-.636 0-1.206.113-1.71.337l-1.797-.104 1.135-2.402h5.855v.828h-4.177l-.346.784a7.7 7.7 0 0 1 1.513-.148c.982 0 1.815.143 2.498.428.682.286 1.024.656 1.024 1.112 0 .38-.276.719-.827 1.017-.752.407-1.794.61-3.129.61-1.066 0-1.936-.114-2.608-.342-.672-.23-1.074-.537-1.206-.923M-101.226 24.62l-2.143.095c-.053-.177-.19-.307-.41-.39-.22-.085-.507-.127-.859-.127-.467 0-.864.084-1.19.252-.32.168-.522.518-.606 1.049.551-.26 1.237-.39 2.056-.39.925 0 1.715.14 2.372.421.662.282.993.645.993 1.09 0 .472-.347.851-1.04 1.137-.694.285-1.584.428-2.671.428-1.167 0-2.125-.18-2.877-.542-.75-.363-1.126-.957-1.126-1.782 0-.846.391-1.456 1.174-1.83.782-.373 1.799-.56 3.05-.56.876 0 1.601.099 2.174.296.578.195.946.48 1.103.853m-5.02 1.93c0 .288.166.51.497.668.331.155.71.233 1.135.233.41 0 .751-.064 1.024-.192s.41-.338.41-.63c0-.3-.147-.52-.441-.658-.294-.14-.662-.21-1.103-.21-.426 0-.786.066-1.08.2-.294.133-.441.33-.441.59M-74.492 24.375v-.822h7.572v.642a8.971 8.971 0 0 0-1.907 1.058c-.646.46-1.14.949-1.481 1.468-.336.516-.502.978-.496 1.385h-2.136c.037-.638.365-1.289.985-1.952.625-.664 1.458-1.257 2.498-1.78h-5.035M-38.326 25.615c-.573-.096-.99-.229-1.253-.396-.258-.17-.386-.356-.386-.558 0-.344.299-.628.898-.853.604-.225 1.46-.337 2.569-.337 1.098 0 1.949.112 2.553.337.61.225.914.509.914.853 0 .214-.14.405-.418.573-.278.166-.67.293-1.174.381.641.103 1.127.253 1.458.45.336.198.504.426.504.684 0 .426-.341.772-1.024 1.039-.678.267-1.581.4-2.71.4-1.052 0-1.926-.11-2.625-.33-.825-.261-1.237-.618-1.237-1.071 0-.25.155-.479.465-.687.31-.21.798-.371 1.466-.485m.457-.89c0 .176.123.313.37.412.252.098.586.148 1 .148.42 0 .757-.05 1.01-.148.251-.101.378-.24.378-.416 0-.166-.127-.298-.379-.397-.247-.1-.575-.15-.985-.15-.425 0-.764.05-1.016.15-.252.101-.378.234-.378.4m-.205 1.978c0 .243.155.433.465.57.315.136.706.204 1.174.204.457 0 .835-.065 1.134-.195.3-.132.45-.322.45-.57 0-.216-.153-.39-.457-.52-.305-.132-.691-.198-1.159-.198-.54 0-.945.075-1.213.224-.263.149-.394.31-.394.485M-5.801 27.039l2.143-.095c.053.174.19.303.41.387.22.084.512.126.875.126.457 0 .845-.084 1.166-.252.32-.168.525-.516.614-1.045-.556.258-1.252.387-2.088.387-.909 0-1.694-.14-2.356-.418-.656-.282-.985-.647-.985-1.096 0-.468.347-.845 1.04-1.13.699-.288 1.587-.432 2.664-.432 1.171 0 2.133.182 2.884.545.751.36 1.127.956 1.127 1.785 0 .844-.392 1.453-1.175 1.826-.782.374-1.801.56-3.057.56-.903 0-1.634-.095-2.19-.286-.557-.193-.915-.48-1.072-.862m5.011-1.934c0-.285-.165-.507-.496-.664a2.579 2.579 0 0 0-1.135-.236c-.41 0-.75.065-1.024.195a.654.654 0 0 0-.402.633c0 .298.147.517.441.658.294.138.662.208 1.103.208.426 0 .783-.068 1.072-.202.294-.134.441-.332.441-.592" font-size="10.201" font-weight="700" letter-spacing="0" word-spacing="11" font-family="Arial"/><g font-size="10.201" font-weight="700" letter-spacing="0" word-spacing="11" font-family="Arial"><path d="M29.288 28.106h-2.214v-3.335c-.81.303-1.763.526-2.86.671v-.803a11.416 11.416 0 0 0 1.883-.428c.677-.212 1.142-.459 1.394-.74h1.797v4.635M36.348 23.471c1.12 0 1.994.16 2.624.479.751.377 1.127 1.004 1.127 1.88 0 .873-.378 1.5-1.135 1.882-.625.315-1.497.473-2.616.473-1.124 0-2.03-.172-2.718-.517-.688-.346-1.032-.962-1.032-1.848 0-.87.378-1.495 1.134-1.877.625-.315 1.497-.472 2.616-.472m0 .734c-.268 0-.507.034-.717.104a.888.888 0 0 0-.488.365c-.153.229-.229.614-.229 1.155 0 .542.068.915.205 1.118a.984.984 0 0 0 .512.403c.21.067.45.101.717.101.268 0 .507-.034.717-.1a.903.903 0 0 0 .489-.37c.152-.226.228-.61.228-1.152 0-.541-.068-.913-.204-1.114a.978.978 0 0 0-.52-.406 2.212 2.212 0 0 0-.71-.104" style="text-align:start;line-height:0%;-inkscape-font-specification:Arial Bold"/></g><g font-size="10.201" font-weight="700" letter-spacing="0" word-spacing="11" font-family="Arial"><path d="M63.523 28.106H61.31v-3.335c-.809.303-1.762.526-2.86.671v-.803a11.416 11.416 0 0 0 1.883-.428c.678-.212 1.142-.459 1.395-.74h1.796v4.635M71.624 28.106h-2.215v-3.335c-.809.303-1.762.526-2.86.671v-.803a11.416 11.416 0 0 0 1.883-.428c.678-.212 1.143-.459 1.395-.74h1.797v4.635" style="text-align:start;line-height:0%;-inkscape-font-specification:Arial Bold"/></g><g font-size="10.201" font-weight="700" letter-spacing="0" word-spacing="11" font-family="Arial"><path d="M97.758 28.106h-2.214v-3.335c-.809.303-1.762.526-2.86.671v-.803a11.416 11.416 0 0 0 1.883-.428c.678-.212 1.143-.459 1.395-.74h1.796v4.635M108.554 27.284v.822h-7.762c.084-.31.336-.605.757-.882.42-.279 1.25-.648 2.49-1.108.998-.372 1.61-.623 1.836-.756.304-.182.457-.363.457-.541 0-.198-.134-.349-.402-.454-.263-.107-.628-.16-1.095-.16-.463 0-.83.055-1.104.167-.273.11-.43.296-.472.554l-2.207-.088c.132-.487.544-.837 1.237-1.049.694-.212 1.56-.318 2.6-.318 1.14 0 2.036.123 2.688.368.651.246.977.551.977.917 0 .207-.095.406-.284.595-.184.187-.478.383-.882.589-.268.136-.752.332-1.45.588-.699.257-1.143.427-1.332.51a2.987 2.987 0 0 0-.45.246h4.398" style="text-align:start;line-height:0%;-inkscape-font-specification:Arial Bold"/></g><g font-size="10.201" font-weight="700" letter-spacing="0" word-spacing="11" font-family="Arial"><path d="M131.994 28.106h-2.215v-3.335c-.809.303-1.762.526-2.86.671v-.803a11.416 11.416 0 0 0 1.883-.428c.678-.212 1.143-.459 1.395-.74h1.797v4.635M135.232 26.881l2.144-.104c.068.219.252.385.551.5.3.116.662.174 1.088.174.457 0 .84-.07 1.15-.208.315-.138.473-.325.473-.56 0-.223-.15-.4-.45-.53-.299-.13-.664-.194-1.095-.194-.283 0-.622.022-1.016.066l.244-.721c.599.006 1.056-.046 1.371-.155.315-.111.473-.258.473-.44 0-.156-.116-.28-.347-.372-.23-.093-.538-.139-.922-.139-.378 0-.701.053-.969.158-.268.105-.43.258-.488.46l-2.041-.139c.142-.28.354-.502.638-.668.289-.168.688-.299 1.198-.393a9.396 9.396 0 0 1 1.725-.145c1.088 0 1.96.139 2.616.416.542.226.812.482.812.768 0 .405-.554.728-1.663.97.662.056 1.19.183 1.584.38.4.198.6.436.6.716 0 .405-.371.75-1.112 1.035-.74.286-1.663.429-2.766.429-1.045 0-1.912-.12-2.6-.36-.688-.24-1.087-.556-1.198-.944" style="text-align:start;line-height:0%;-inkscape-font-specification:Arial Bold"/></g><g font-size="10.201" font-weight="700" letter-spacing="0" word-spacing="11" font-family="Arial"><path d="M166.229 28.106h-2.214v-3.335c-.81.303-1.763.526-2.86.671v-.803a11.416 11.416 0 0 0 1.882-.428c.678-.212 1.143-.459 1.395-.74h1.797v4.635M173.888 28.106v-.929h-4.728v-.774l5.012-2.932h1.86v2.928h1.433v.778h-1.434v.929h-2.143m0-1.707v-1.577l-2.656 1.577h2.656" style="text-align:start;line-height:0%;-inkscape-font-specification:Arial Bold"/></g><g font-size="10.201" font-weight="700" letter-spacing="0" word-spacing="11" font-family="Arial"><path d="M200.464 28.106h-2.214v-3.335c-.81.303-1.763.526-2.86.671v-.803a11.416 11.416 0 0 0 1.883-.428c.677-.212 1.142-.459 1.394-.74h1.797v4.635M203.813 26.919l2.206-.091c.063.199.25.358.56.475.31.116.667.173 1.071.173.463 0 .854-.074 1.174-.223.32-.151.481-.378.481-.68 0-.284-.16-.496-.48-.636-.316-.143-.728-.215-1.238-.215-.635 0-1.205.113-1.71.337l-1.796-.104 1.134-2.402h5.855v.828h-4.176l-.347.784a7.7 7.7 0 0 1 1.513-.148c.982 0 1.815.143 2.498.428.683.286 1.024.656 1.024 1.112 0 .38-.275.719-.827 1.017-.751.407-1.794.61-3.128.61-1.067 0-1.936-.114-2.609-.342-.672-.23-1.074-.537-1.205-.923" style="text-align:start;line-height:0%;-inkscape-font-specification:Arial Bold"/></g><path style="text-align:start;line-height:0%;-inkscape-font-specification:Arial Bold" d="M237.086 28.106h-2.215v-3.335c-.809.303-1.762.526-2.86.671v-.803a11.416 11.416 0 0 0 1.883-.428c.678-.212 1.143-.459 1.395-.74h1.797v4.635M247.905 24.62l-2.144.095c-.052-.177-.189-.307-.41-.39-.22-.085-.506-.127-.858-.127-.468 0-.864.084-1.19.252-.32.168-.523.518-.607 1.049.552-.26 1.237-.39 2.057-.39.924 0 1.715.14 2.372.421.661.282.992.645.992 1.09 0 .472-.346.851-1.04 1.137-.693.285-1.584.428-2.67.428-1.167 0-2.126-.18-2.877-.542-.751-.363-1.127-.957-1.127-1.782 0-.846.391-1.456 1.174-1.83.783-.373 1.8-.56 3.05-.56.877 0 1.602.099 2.175.296.577.195.945.48 1.103.853m-5.02 1.93c0 .288.166.51.497.668.33.155.709.233 1.134.233.41 0 .752-.064 1.025-.192.273-.128.41-.338.41-.63 0-.3-.148-.52-.442-.658-.294-.14-.662-.21-1.103-.21-.425 0-.785.066-1.08.2-.294.133-.44.33-.44.59" font-size="10.201" font-weight="700" letter-spacing="0" word-spacing="11" font-family="Arial"/><g font-size="10.201" font-weight="700" letter-spacing="0" word-spacing="11" font-family="Arial"><path d="M268.934 28.106h-2.214v-3.335c-.809.303-1.762.526-2.86.671v-.803a11.416 11.416 0 0 0 1.883-.428c.678-.212 1.143-.459 1.395-.74h1.796v4.635M272.252 24.375v-.822h7.572v.642a8.971 8.971 0 0 0-1.907 1.058c-.646.46-1.14.949-1.481 1.468-.336.516-.502.978-.496 1.385h-2.136c.037-.638.365-1.289.985-1.952.625-.664 1.458-1.257 2.498-1.78h-5.035" style="text-align:start;line-height:0%;-inkscape-font-specification:Arial Bold"/></g><g font-size="10.201" font-weight="700" letter-spacing="0" word-spacing="11" font-family="Arial"><path d="M303.17 28.106h-2.215v-3.335c-.809.303-1.762.526-2.86.671v-.803a11.416 11.416 0 0 0 1.883-.428c.678-.212 1.143-.459 1.395-.74h1.797v4.635M308.386 25.615c-.573-.096-.99-.229-1.253-.396-.257-.17-.386-.356-.386-.558 0-.344.3-.628.898-.853.604-.225 1.46-.337 2.57-.337 1.097 0 1.948.112 2.552.337.61.225.914.509.914.853 0 .214-.139.405-.417.573-.279.166-.67.293-1.174.381.64.103 1.126.253 1.457.45.337.198.505.426.505.684 0 .426-.342.772-1.025 1.039-.677.267-1.581.4-2.71.4-1.051 0-1.926-.11-2.624-.33-.825-.261-1.237-.618-1.237-1.071 0-.25.155-.479.464-.687.31-.21.799-.371 1.466-.485m.457-.89c0 .176.123.313.37.412.253.098.586.148 1.001.148.42 0 .757-.05 1.009-.148.252-.101.378-.24.378-.416 0-.166-.126-.298-.378-.397-.247-.1-.575-.15-.985-.15-.426 0-.765.05-1.017.15-.252.101-.378.234-.378.4m-.205 1.978c0 .243.155.433.465.57.315.136.707.204 1.174.204.457 0 .835-.065 1.135-.195.3-.132.449-.322.45-.57-.001-.216-.153-.39-.458-.52-.305-.132-.69-.198-1.158-.198-.541 0-.946.075-1.214.224-.262.149-.394.31-.394.485" style="text-align:start;line-height:0%;-inkscape-font-specification:Arial Bold"/></g><g font-size="10.201" font-weight="700" letter-spacing="0" word-spacing="11" font-family="Arial"><path d="M337.405 28.106h-2.214v-3.335c-.81.303-1.763.526-2.86.671v-.803a11.416 11.416 0 0 0 1.882-.428c.678-.212 1.143-.459 1.395-.74h1.797v4.635M340.77 27.039l2.143-.095c.052.174.189.303.41.387.22.084.512.126.874.126.457 0 .846-.084 1.166-.252.32-.168.526-.516.615-1.045-.557.258-1.253.387-2.088.387-.909 0-1.694-.14-2.356-.418-.657-.282-.985-.647-.985-1.096 0-.468.347-.845 1.04-1.13.699-.288 1.586-.432 2.663-.432 1.172 0 2.133.182 2.884.545.752.36 1.127.956 1.127 1.785 0 .844-.391 1.453-1.174 1.826-.783.374-1.802.56-3.057.56-.904 0-1.634-.095-2.19-.286-.558-.193-.915-.48-1.073-.862m5.012-1.934c0-.285-.165-.507-.496-.664a2.579 2.579 0 0 0-1.135-.236c-.41 0-.751.065-1.024.195a.654.654 0 0 0-.402.633c0 .298.147.517.441.658.294.138.662.208 1.103.208.426 0 .783-.068 1.072-.202.294-.134.441-.332.441-.592" style="text-align:start;line-height:0%;-inkscape-font-specification:Arial Bold"/></g><g font-size="10.201" font-weight="700" letter-spacing="0" word-spacing="11" font-family="Arial"><path d="M374.327 27.284v.822h-7.762c.084-.31.337-.605.757-.882.42-.279 1.25-.648 2.49-1.108.998-.372 1.61-.623 1.836-.756.305-.182.457-.363.457-.541 0-.198-.134-.349-.402-.454-.263-.107-.628-.16-1.095-.16-.463 0-.83.055-1.103.167-.274.11-.431.296-.473.554l-2.207-.088c.132-.487.544-.837 1.238-1.049.693-.212 1.56-.318 2.6-.318 1.14 0 2.035.123 2.687.368.651.246.977.551.977.917 0 .207-.095.406-.284.595-.184.187-.478.383-.882.589-.268.136-.751.332-1.45.588-.699.257-1.143.427-1.332.51a2.987 2.987 0 0 0-.449.246h4.397M379.575 23.471c1.119 0 1.994.16 2.624.479.751.377 1.127 1.004 1.127 1.88 0 .873-.378 1.5-1.135 1.882-.625.315-1.497.473-2.616.473-1.124 0-2.03-.172-2.719-.517-.688-.346-1.032-.962-1.032-1.848 0-.87.378-1.495 1.135-1.877.625-.315 1.497-.472 2.616-.472m0 .734c-.268 0-.507.034-.717.104a.888.888 0 0 0-.489.365c-.152.229-.228.614-.228 1.155 0 .542.068.915.205 1.118a.984.984 0 0 0 .512.403c.21.067.45.101.717.101.268 0 .507-.034.717-.1a.903.903 0 0 0 .489-.37c.152-.226.228-.61.228-1.152 0-.541-.068-.913-.205-1.114a.978.978 0 0 0-.52-.406 2.212 2.212 0 0 0-.709-.104" style="text-align:start;line-height:0%;-inkscape-font-specification:Arial Bold"/></g><g font-size="10.201" font-weight="700" letter-spacing="0" word-spacing="11" font-family="Arial"><path d="M408.562 27.284v.822h-7.761c.084-.31.336-.605.756-.882.42-.279 1.25-.648 2.49-1.108.998-.372 1.61-.623 1.836-.756.305-.182.457-.363.457-.541 0-.198-.134-.349-.402-.454-.262-.107-.628-.16-1.095-.16-.462 0-.83.055-1.103.167-.273.11-.431.296-.473.554l-2.206-.088c.13-.487.543-.837 1.237-1.049.693-.212 1.56-.318 2.6-.318 1.14 0 2.036.123 2.687.368.651.246.977.551.977.917 0 .207-.094.406-.283.595-.184.187-.479.383-.883.589-.268.136-.751.332-1.45.588a28.97 28.97 0 0 0-1.332.51 2.987 2.987 0 0 0-.449.246h4.397M415.733 28.106h-2.214v-3.335c-.81.303-1.763.526-2.86.671v-.803a11.416 11.416 0 0 0 1.883-.428c.677-.212 1.142-.459 1.394-.74h1.797v4.635" style="text-align:start;line-height:0%;-inkscape-font-specification:Arial Bold"/></g><g font-size="10.201" font-weight="700" letter-spacing="0" word-spacing="11" font-family="Arial"><path d="M442.797 27.284v.822h-7.761c.084-.31.336-.605.756-.882.42-.279 1.25-.648 2.49-1.108.998-.372 1.61-.623 1.836-.756.305-.182.457-.363.457-.541 0-.198-.134-.349-.402-.454-.262-.107-.627-.16-1.095-.16-.462 0-.83.055-1.103.167-.273.11-.43.296-.473.554l-2.206-.088c.131-.487.544-.837 1.237-1.049.693-.212 1.56-.318 2.6-.318 1.14 0 2.036.123 2.687.368.652.246.977.551.977.917 0 .207-.094.406-.283.595-.184.187-.478.383-.883.589-.268.136-.751.332-1.45.588-.698.257-1.142.427-1.331.51a2.987 2.987 0 0 0-.45.246h4.397M451.78 27.284v.822h-7.761c.084-.31.336-.605.756-.882.42-.279 1.25-.648 2.49-1.108.998-.372 1.61-.623 1.836-.756.305-.182.457-.363.457-.541 0-.198-.134-.349-.402-.454-.262-.107-.627-.16-1.095-.16-.462 0-.83.055-1.103.167-.273.11-.43.296-.473.554l-2.206-.088c.131-.487.544-.837 1.237-1.049.693-.212 1.56-.318 2.6-.318 1.14 0 2.036.123 2.687.368.652.246.977.551.977.917 0 .207-.094.406-.283.595-.184.187-.478.383-.883.589-.268.136-.751.332-1.45.588-.698.257-1.142.427-1.331.51a2.988 2.988 0 0 0-.45.246h4.397" style="text-align:start;line-height:0%;-inkscape-font-specification:Arial Bold"/></g><g font-size="10.201" font-weight="700" letter-spacing="0" word-spacing="11" font-family="Arial"><path style="text-align:start;line-height:0%;-inkscape-font-specification:Arial Bold" d="M477.033 27.284v.822h-7.762c.084-.31.336-.605.756-.882.42-.279 1.25-.648 2.49-1.108.999-.372 1.61-.623 1.836-.756.305-.182.457-.363.457-.541 0-.198-.133-.349-.401-.454-.263-.107-.628-.16-1.096-.16-.462 0-.83.055-1.103.167-.273.11-.43.296-.473.554l-2.206-.088c.131-.487.544-.837 1.237-1.049.694-.212 1.56-.318 2.6-.318 1.14 0 2.036.123 2.687.368.652.246.978.551.978.917 0 .207-.095.406-.284.595-.184.187-.478.383-.883.589-.268.136-.75.332-1.45.588-.698.257-1.142.427-1.331.51a2.988 2.988 0 0 0-.45.246h4.398M478.459 26.881l2.143-.104c.068.219.252.385.552.5.3.116.662.174 1.087.174.457 0 .84-.07 1.15-.208.316-.138.473-.325.473-.56 0-.223-.15-.4-.449-.53-.3-.13-.664-.194-1.095-.194-.284 0-.623.022-1.017.066l.245-.721c.599.006 1.056-.046 1.37-.155.316-.111.474-.258.474-.44 0-.156-.116-.28-.347-.372-.231-.093-.539-.139-.922-.139-.378 0-.701.053-.97.158-.267.105-.43.258-.488.46l-2.04-.139c.141-.28.354-.502.638-.668.289-.168.688-.299 1.197-.393a9.396 9.396 0 0 1 1.726-.145c1.087 0 1.96.139 2.616.416.541.226.812.482.812.768 0 .405-.554.728-1.663.97.662.056 1.19.183 1.584.38.4.198.599.436.599.716 0 .405-.37.75-1.111 1.035-.74.286-1.663.429-2.766.429-1.045 0-1.912-.12-2.6-.36-.689-.24-1.088-.556-1.198-.944"/></g><g font-size="10.201" font-weight="700" letter-spacing="0" word-spacing="11" font-family="Arial"><path d="M511.268 27.284v.822h-7.762c.084-.31.336-.605.757-.882.42-.279 1.25-.648 2.49-1.108.998-.372 1.61-.623 1.836-.756.304-.182.457-.363.457-.541 0-.198-.134-.349-.402-.454-.263-.107-.628-.16-1.095-.16-.463 0-.83.055-1.104.167-.273.11-.43.296-.472.554l-2.207-.088c.132-.487.544-.837 1.237-1.049.694-.212 1.56-.318 2.6-.318 1.14 0 2.036.123 2.688.368.651.246.977.551.977.917 0 .207-.095.406-.284.595-.184.187-.478.383-.882.589-.268.136-.752.332-1.45.588-.699.257-1.143.427-1.332.51a2.986 2.986 0 0 0-.45.246h4.398M517.115 28.106v-.929h-4.728v-.774l5.011-2.932h1.86v2.928h1.434v.778h-1.434v.929h-2.143m0-1.707v-1.577l-2.656 1.577h2.656" style="text-align:start;line-height:0%;-inkscape-font-specification:Arial Bold"/></g><g font-size="10.201" font-weight="700" letter-spacing="0" word-spacing="11" font-family="Arial"><path d="M545.503 27.284v.822h-7.762c.084-.31.337-.605.757-.882.42-.279 1.25-.648 2.49-1.108.998-.372 1.61-.623 1.836-.756.305-.182.457-.363.457-.541 0-.198-.134-.349-.402-.454-.263-.107-.628-.16-1.095-.16-.463 0-.83.055-1.103.167-.274.11-.431.296-.473.554L538 24.838c.132-.487.544-.837 1.238-1.049.693-.212 1.56-.318 2.6-.318 1.14 0 2.035.123 2.687.368.651.246.977.551.977.917 0 .207-.095.406-.284.595-.184.187-.478.383-.882.589-.268.136-.751.332-1.45.588-.699.257-1.143.427-1.332.51a2.988 2.988 0 0 0-.449.246h4.397M547.04 26.919l2.206-.091c.063.199.25.358.56.475.31.116.666.173 1.071.173.462 0 .854-.074 1.174-.223.32-.151.48-.378.48-.68 0-.284-.16-.496-.48-.636-.315-.143-.728-.215-1.237-.215-.636 0-1.206.113-1.71.337l-1.797-.104 1.135-2.402h5.855v.828h-4.176l-.347.784a7.701 7.701 0 0 1 1.513-.148c.982 0 1.815.143 2.498.428.683.286 1.024.656 1.024 1.112 0 .38-.276.719-.827 1.017-.752.407-1.794.61-3.129.61-1.066 0-1.935-.114-2.608-.342-.672-.23-1.074-.537-1.206-.923" style="text-align:start;line-height:0%;-inkscape-font-specification:Arial Bold"/></g><g font-size="10.201" font-weight="700" letter-spacing="0" word-spacing="11" font-family="Arial"><path d="M579.738 27.284v.822h-7.761c.084-.31.336-.605.756-.882.42-.279 1.25-.648 2.49-1.108.998-.372 1.61-.623 1.836-.756.305-.182.457-.363.457-.541 0-.198-.134-.349-.402-.454-.262-.107-.628-.16-1.095-.16-.462 0-.83.055-1.103.167-.273.11-.431.296-.473.554l-2.206-.088c.13-.487.543-.837 1.237-1.049.693-.212 1.56-.318 2.6-.318 1.14 0 2.036.123 2.687.368.651.246.977.551.977.917 0 .207-.095.406-.283.595-.184.187-.479.383-.883.589-.268.136-.751.332-1.45.588-.699.257-1.143.427-1.332.51a2.991 2.991 0 0 0-.449.246h4.397M588.745 24.62l-2.143.095c-.053-.177-.19-.307-.41-.39-.22-.085-.507-.127-.86-.127-.467 0-.863.084-1.189.252-.32.168-.523.518-.607 1.049.552-.26 1.237-.39 2.057-.39.924 0 1.715.14 2.372.421.662.282.993.645.993 1.09 0 .472-.347.851-1.04 1.137-.694.285-1.584.428-2.672.428-1.166 0-2.125-.18-2.876-.542-.751-.363-1.127-.957-1.127-1.782 0-.846.392-1.456 1.174-1.83.783-.373 1.8-.56 3.05-.56.877 0 1.602.099 2.175.296.578.195.945.48 1.103.853m-5.02 1.93c0 .288.166.51.497.668.33.155.71.233 1.135.233.41 0 .75-.064 1.024-.192.273-.128.41-.338.41-.63 0-.3-.147-.52-.442-.658-.294-.14-.662-.21-1.103-.21-.425 0-.785.066-1.08.2-.294.133-.44.33-.44.59" style="text-align:start;line-height:0%;-inkscape-font-specification:Arial Bold"/></g><g font-size="10.201" font-weight="700" letter-spacing="0" word-spacing="11" font-family="Arial"><path d="M613.973 27.284v.822h-7.761c.084-.31.336-.605.756-.882.42-.279 1.25-.648 2.49-1.108.998-.372 1.61-.623 1.836-.756.305-.182.457-.363.457-.541 0-.198-.134-.349-.402-.454-.262-.107-.627-.16-1.095-.16-.462 0-.83.055-1.103.167-.273.11-.43.296-.473.554l-2.206-.088c.131-.487.543-.837 1.237-1.049.693-.212 1.56-.318 2.6-.318 1.14 0 2.036.123 2.687.368.652.246.977.551.977.917 0 .207-.095.406-.283.595-.184.187-.478.383-.883.589-.268.136-.751.332-1.45.588-.698.257-1.142.427-1.331.51a2.986 2.986 0 0 0-.45.246h4.397M615.478 24.375v-.822h7.573v.642a8.972 8.972 0 0 0-1.907 1.058c-.646.46-1.14.949-1.481 1.468-.337.516-.502.978-.497 1.385h-2.135c.037-.638.365-1.289.985-1.952.625-.664 1.457-1.257 2.498-1.78h-5.036" style="text-align:start;line-height:0%;-inkscape-font-specification:Arial Bold"/></g><g fill="none" stroke="#000" stroke-linecap="round" stroke-linejoin="round"><path d="M184.807 347.358v5.177M181.144 347.358v5.177M192.131 347.358v5.177" stroke-width=".459" transform="matrix(-1.89248 0 0 -1 641.283 356.487)"/><path d="M195.793 338.346v14.189" stroke-width=".76" transform="matrix(-1.89248 0 0 -1 641.283 356.487)"/><path d="M190.3 347.358v5.177M193.962 347.358v5.177M182.975 347.358v5.177M188.469 347.358v5.177M179.313 347.358v5.177" stroke-width=".459" transform="matrix(-1.89248 0 0 -1 641.283 356.487)"/><path d="M186.638 343.801v8.734" stroke-width=".596" transform="matrix(-1.89248 0 0 -1 641.283 356.487)"/><path d="M184.807 347.358v5.177M181.144 347.358v5.177M192.131 347.358v5.177" stroke-width=".459" transform="matrix(-1.89248 0 0 -1 607.048 356.487)"/><path d="M195.793 338.346v14.189" stroke-width=".76" transform="matrix(-1.89248 0 0 -1 607.048 356.487)"/><path d="M190.3 347.358v5.177M193.962 347.358v5.177M182.975 347.358v5.177M188.469 347.358v5.177M179.313 347.358v5.177" stroke-width=".459" transform="matrix(-1.89248 0 0 -1 607.048 356.487)"/><path d="M186.638 343.801v8.734" stroke-width=".596" transform="matrix(-1.89248 0 0 -1 607.048 356.487)"/><path d="M184.807 347.358v5.177M181.144 347.358v5.177M192.131 347.358v5.177" stroke-width=".459" transform="matrix(-1.89248 0 0 -1 846.694 356.487)"/><path d="M195.793 338.346v14.189" stroke-width=".76" transform="matrix(-1.89248 0 0 -1 846.694 356.487)"/><path d="M190.3 347.358v5.177M193.962 347.358v5.177M182.975 347.358v5.177M188.469 347.358v5.177M179.313 347.358v5.177" stroke-width=".459" transform="matrix(-1.89248 0 0 -1 846.694 356.487)"/><path d="M186.638 343.801v8.734" stroke-width=".596" transform="matrix(-1.89248 0 0 -1 846.694 356.487)"/><g><path d="M184.807 347.358v5.177M181.144 347.358v5.177M192.131 347.358v5.177" stroke-width=".459" transform="matrix(-1.89248 0 0 -1 538.577 356.487)"/><path d="M195.793 338.346v14.189" stroke-width=".76" transform="matrix(-1.89248 0 0 -1 538.577 356.487)"/><path d="M190.3 347.358v5.177M193.962 347.358v5.177M182.975 347.358v5.177M188.469 347.358v5.177M179.313 347.358v5.177" stroke-width=".459" transform="matrix(-1.89248 0 0 -1 538.577 356.487)"/><path d="M186.638 343.801v8.734" stroke-width=".596" transform="matrix(-1.89248 0 0 -1 538.577 356.487)"/></g><g><path d="M184.807 347.358v5.177M181.144 347.358v5.177M192.131 347.358v5.177" stroke-width=".459" transform="matrix(-1.89248 0 0 -1 504.342 356.487)"/><path d="M195.793 338.346v14.189" stroke-width=".76" transform="matrix(-1.89248 0 0 -1 504.342 356.487)"/><path d="M190.3 347.358v5.177M193.962 347.358v5.177M182.975 347.358v5.177M188.469 347.358v5.177M179.313 347.358v5.177" stroke-width=".459" transform="matrix(-1.89248 0 0 -1 504.342 356.487)"/><path d="M186.638 343.801v8.734" stroke-width=".596" transform="matrix(-1.89248 0 0 -1 504.342 356.487)"/></g><g><path d="M184.807 347.358v5.177M181.144 347.358v5.177M192.131 347.358v5.177" stroke-width=".459" transform="matrix(-1.89248 0 0 -1 196.225 356.487)"/><path d="M195.793 338.346v14.189" stroke-width=".76" transform="matrix(-1.89248 0 0 -1 196.225 356.487)"/><path d="M190.3 347.358v5.177M193.962 347.358v5.177M182.975 347.358v5.177M188.469 347.358v5.177M179.313 347.358v5.177" stroke-width=".459" transform="matrix(-1.89248 0 0 -1 196.225 356.487)"/><path d="M186.638 343.801v8.734" stroke-width=".596" transform="matrix(-1.89248 0 0 -1 196.225 356.487)"/></g><g><path d="M184.807 347.358v5.177M181.144 347.358v5.177M192.131 347.358v5.177" stroke-width=".459" transform="matrix(-1.89248 0 0 -1 230.46 356.487)"/><path d="M195.793 338.346v14.189" stroke-width=".76" transform="matrix(-1.89248 0 0 -1 230.46 356.487)"/><path d="M190.3 347.358v5.177M193.962 347.358v5.177M182.975 347.358v5.177M188.469 347.358v5.177M179.313 347.358v5.177" stroke-width=".459" transform="matrix(-1.89248 0 0 -1 230.46 356.487)"/><path d="M186.638 343.801v8.734" stroke-width=".596" transform="matrix(-1.89248 0 0 -1 230.46 356.487)"/></g><g><path d="M184.807 347.358v5.177M181.144 347.358v5.177M192.131 347.358v5.177" stroke-width=".459" transform="matrix(-1.89248 0 0 -1 572.812 356.487)"/><path d="M195.793 338.346v14.189" stroke-width=".76" transform="matrix(-1.89248 0 0 -1 572.812 356.487)"/><path d="M190.3 347.358v5.177M193.962 347.358v5.177M182.975 347.358v5.177M188.469 347.358v5.177M179.313 347.358v5.177" stroke-width=".459" transform="matrix(-1.89248 0 0 -1 572.812 356.487)"/><path d="M186.638 343.801v8.734" stroke-width=".596" transform="matrix(-1.89248 0 0 -1 572.812 356.487)"/></g><g><path d="M184.807 347.358v5.177M181.144 347.358v5.177M192.131 347.358v5.177" stroke-width=".459" transform="matrix(-1.89248 0 0 -1 435.871 356.487)"/><path d="M195.793 338.346v14.189" stroke-width=".76" transform="matrix(-1.89248 0 0 -1 435.871 356.487)"/><path d="M190.3 347.358v5.177M193.962 347.358v5.177M182.975 347.358v5.177M188.469 347.358v5.177M179.313 347.358v5.177" stroke-width=".459" transform="matrix(-1.89248 0 0 -1 435.871 356.487)"/><path d="M186.638 343.801v8.734" stroke-width=".596" transform="matrix(-1.89248 0 0 -1 435.871 356.487)"/></g><g><path d="M184.807 347.358v5.177M181.144 347.358v5.177M192.131 347.358v5.177" stroke-width=".459" transform="matrix(-1.89248 0 0 -1 298.93 356.487)"/><path d="M195.793 338.346v14.189" stroke-width=".76" transform="matrix(-1.89248 0 0 -1 298.93 356.487)"/><path d="M190.3 347.358v5.177M193.962 347.358v5.177M182.975 347.358v5.177M188.469 347.358v5.177M179.313 347.358v5.177" stroke-width=".459" transform="matrix(-1.89248 0 0 -1 298.93 356.487)"/><path d="M186.638 343.801v8.734" stroke-width=".596" transform="matrix(-1.89248 0 0 -1 298.93 356.487)"/></g><g><path d="M184.807 347.358v5.177M181.144 347.358v5.177M192.131 347.358v5.177" stroke-width=".459" transform="matrix(-1.89248 0 0 -1 264.695 356.487)"/><path d="M195.793 338.346v14.189" stroke-width=".76" transform="matrix(-1.89248 0 0 -1 264.695 356.487)"/><path d="M190.3 347.358v5.177M193.962 347.358v5.177M182.975 347.358v5.177M188.469 347.358v5.177M179.313 347.358v5.177" stroke-width=".459" transform="matrix(-1.89248 0 0 -1 264.695 356.487)"/><path d="M186.638 343.801v8.734" stroke-width=".596" transform="matrix(-1.89248 0 0 -1 264.695 356.487)"/></g><g><path d="M184.807 347.358v5.177M181.144 347.358v5.177M192.131 347.358v5.177" stroke-width=".459" transform="matrix(-1.89248 0 0 -1 470.107 356.487)"/><path d="M195.793 338.346v14.189" stroke-width=".76" transform="matrix(-1.89248 0 0 -1 470.107 356.487)"/><path d="M190.3 347.358v5.177M193.962 347.358v5.177M182.975 347.358v5.177M188.469 347.358v5.177M179.313 347.358v5.177" stroke-width=".459" transform="matrix(-1.89248 0 0 -1 470.107 356.487)"/><path d="M186.638 343.801v8.734" stroke-width=".596" transform="matrix(-1.89248 0 0 -1 470.107 356.487)"/></g><g><path d="M184.807 347.358v5.177M181.144 347.358v5.177M192.131 347.358v5.177" stroke-width=".459" transform="matrix(-1.89248 0 0 -1 367.401 356.487)"/><path d="M195.793 338.346v14.189" stroke-width=".76" transform="matrix(-1.89248 0 0 -1 367.401 356.487)"/><path d="M190.3 347.358v5.177M193.962 347.358v5.177M182.975 347.358v5.177M188.469 347.358v5.177M179.313 347.358v5.177" stroke-width=".459" transform="matrix(-1.89248 0 0 -1 367.401 356.487)"/><path d="M186.638 343.801v8.734" stroke-width=".596" transform="matrix(-1.89248 0 0 -1 367.401 356.487)"/></g><g><path d="M184.807 347.358v5.177M181.144 347.358v5.177M192.131 347.358v5.177" stroke-width=".459" transform="matrix(-1.89248 0 0 -1 333.166 356.487)"/><path d="M195.793 338.346v14.189" stroke-width=".76" transform="matrix(-1.89248 0 0 -1 333.166 356.487)"/><path d="M190.3 347.358v5.177M193.962 347.358v5.177M182.975 347.358v5.177M188.469 347.358v5.177M179.313 347.358v5.177" stroke-width=".459" transform="matrix(-1.89248 0 0 -1 333.166 356.487)"/><path d="M186.638 343.801v8.734" stroke-width=".596" transform="matrix(-1.89248 0 0 -1 333.166 356.487)"/></g><g><path d="M184.807 347.358v5.177M181.144 347.358v5.177M192.131 347.358v5.177" stroke-width=".459" transform="matrix(-1.89248 0 0 -1 675.518 356.487)"/><path d="M195.793 338.346v14.189" stroke-width=".76" transform="matrix(-1.89248 0 0 -1 675.518 356.487)"/><path d="M190.3 347.358v5.177M193.962 347.358v5.177M182.975 347.358v5.177M188.469 347.358v5.177M179.313 347.358v5.177" stroke-width=".459" transform="matrix(-1.89248 0 0 -1 675.518 356.487)"/><path d="M186.638 343.801v8.734" stroke-width=".596" transform="matrix(-1.89248 0 0 -1 675.518 356.487)"/></g><g><path d="M184.807 347.358v5.177M181.144 347.358v5.177M192.131 347.358v5.177" stroke-width=".459" transform="matrix(-1.89248 0 0 -1 401.636 356.487)"/><path d="M195.793 338.346v14.189" stroke-width=".76" transform="matrix(-1.89248 0 0 -1 401.636 356.487)"/><path d="M190.3 347.358v5.177M193.962 347.358v5.177M182.975 347.358v5.177M188.469 347.358v5.177M179.313 347.358v5.177" stroke-width=".459" transform="matrix(-1.89248 0 0 -1 401.636 356.487)"/><path d="M186.638 343.801v8.734" stroke-width=".596" transform="matrix(-1.89248 0 0 -1 401.636 356.487)"/></g><g><path d="M184.807 347.358v5.177M181.144 347.358v5.177M192.131 347.358v5.177" stroke-width=".459" transform="matrix(-1.89248 0 0 -1 127.755 356.487)"/><path d="M195.793 338.346v14.189" stroke-width=".76" transform="matrix(-1.89248 0 0 -1 127.755 356.487)"/><path d="M190.3 347.358v5.177M193.962 347.358v5.177M182.975 347.358v5.177M188.469 347.358v5.177M179.313 347.358v5.177" stroke-width=".459" transform="matrix(-1.89248 0 0 -1 127.755 356.487)"/><path d="M186.638 343.801v8.734" stroke-width=".596" transform="matrix(-1.89248 0 0 -1 127.755 356.487)"/></g><g><path d="M184.807 347.358v5.177M181.144 347.358v5.177M192.131 347.358v5.177" stroke-width=".459" transform="matrix(-1.89248 0 0 -1 93.52 356.487)"/><path d="M195.793 338.346v14.189" stroke-width=".76" transform="matrix(-1.89248 0 0 -1 93.52 356.487)"/><path d="M190.3 347.358v5.177M193.962 347.358v5.177M182.975 347.358v5.177M188.469 347.358v5.177M179.313 347.358v5.177" stroke-width=".459" transform="matrix(-1.89248 0 0 -1 93.52 356.487)"/><path d="M186.638 343.801v8.734" stroke-width=".596" transform="matrix(-1.89248 0 0 -1 93.52 356.487)"/></g><g><path d="M184.807 347.358v5.177M181.144 347.358v5.177M192.131 347.358v5.177" stroke-width=".459" transform="matrix(-1.89248 0 0 -1 983.635 356.487)"/><path d="M195.793 338.346v14.189" stroke-width=".76" transform="matrix(-1.89248 0 0 -1 983.635 356.487)"/><path d="M190.3 347.358v5.177M193.962 347.358v5.177M182.975 347.358v5.177M188.469 347.358v5.177M179.313 347.358v5.177" stroke-width=".459" transform="matrix(-1.89248 0 0 -1 983.635 356.487)"/><path d="M186.638 343.801v8.734" stroke-width=".596" transform="matrix(-1.89248 0 0 -1 983.635 356.487)"/></g><g><path d="M184.807 347.358v5.177M181.144 347.358v5.177M192.131 347.358v5.177" stroke-width=".459" transform="matrix(-1.89248 0 0 -1 880.929 356.487)"/><path d="M195.793 338.346v14.189" stroke-width=".76" transform="matrix(-1.89248 0 0 -1 880.929 356.487)"/><path d="M190.3 347.358v5.177M193.962 347.358v5.177M182.975 347.358v5.177M188.469 347.358v5.177M179.313 347.358v5.177" stroke-width=".459" transform="matrix(-1.89248 0 0 -1 880.929 356.487)"/><path d="M186.638 343.801v8.734" stroke-width=".596" transform="matrix(-1.89248 0 0 -1 880.929 356.487)"/></g><g><path d="M184.807 347.358v5.177M181.144 347.358v5.177M192.131 347.358v5.177" stroke-width=".459" transform="matrix(-1.89248 0 0 -1 161.99 356.487)"/><path d="M195.793 338.346v14.189" stroke-width=".76" transform="matrix(-1.89248 0 0 -1 161.99 356.487)"/><path d="M190.3 347.358v5.177M193.962 347.358v5.177M182.975 347.358v5.177M188.469 347.358v5.177M179.313 347.358v5.177" stroke-width=".459" transform="matrix(-1.89248 0 0 -1 161.99 356.487)"/><path d="M186.638 343.801v8.734" stroke-width=".596" transform="matrix(-1.89248 0 0 -1 161.99 356.487)"/></g><g><path d="M184.807 347.358v5.177M181.144 347.358v5.177M192.131 347.358v5.177" stroke-width=".459" transform="matrix(-1.89248 0 0 -1 1017.87 356.487)"/><path d="M195.793 338.346v14.189" stroke-width=".76" transform="matrix(-1.89248 0 0 -1 1017.87 356.487)"/><path d="M190.3 347.358v5.177M193.962 347.358v5.177M182.975 347.358v5.177M188.469 347.358v5.177M179.313 347.358v5.177" stroke-width=".459" transform="matrix(-1.89248 0 0 -1 1017.87 356.487)"/><path d="M186.638 343.801v8.734" stroke-width=".596" transform="matrix(-1.89248 0 0 -1 1017.87 356.487)"/></g><g><path d="M184.807 347.358v5.177M181.144 347.358v5.177M192.131 347.358v5.177" stroke-width=".459" transform="matrix(-1.89248 0 0 -1 949.4 356.487)"/><path d="M195.793 338.346v14.189" stroke-width=".76" transform="matrix(-1.89248 0 0 -1 949.4 356.487)"/><path d="M190.3 347.358v5.177M193.962 347.358v5.177M182.975 347.358v5.177M188.469 347.358v5.177M179.313 347.358v5.177" stroke-width=".459" transform="matrix(-1.89248 0 0 -1 949.4 356.487)"/><path d="M186.638 343.801v8.734" stroke-width=".596" transform="matrix(-1.89248 0 0 -1 949.4 356.487)"/></g><g><path d="M184.807 347.358v5.177M181.144 347.358v5.177M192.131 347.358v5.177" stroke-width=".459" transform="matrix(-1.89248 0 0 -1 915.164 356.487)"/><path d="M195.793 338.346v14.189" stroke-width=".76" transform="matrix(-1.89248 0 0 -1 915.164 356.487)"/><path d="M190.3 347.358v5.177M193.962 347.358v5.177M182.975 347.358v5.177M188.469 347.358v5.177M179.313 347.358v5.177" stroke-width=".459" transform="matrix(-1.89248 0 0 -1 915.164 356.487)"/><path d="M186.638 343.801v8.734" stroke-width=".596" transform="matrix(-1.89248 0 0 -1 915.164 356.487)"/></g><g><path d="M184.807 347.358v5.177M181.144 347.358v5.177M192.131 347.358v5.177" stroke-width=".459" transform="matrix(-1.89248 0 0 -1 812.459 356.487)"/><path d="M195.793 338.346v14.189" stroke-width=".76" transform="matrix(-1.89248 0 0 -1 812.459 356.487)"/><path d="M190.3 347.358v5.177M193.962 347.358v5.177M182.975 347.358v5.177M188.469 347.358v5.177M179.313 347.358v5.177" stroke-width=".459" transform="matrix(-1.89248 0 0 -1 812.459 356.487)"/><path d="M186.638 343.801v8.734" stroke-width=".596" transform="matrix(-1.89248 0 0 -1 812.459 356.487)"/></g><g><path d="M184.807 347.358v5.177M181.144 347.358v5.177M192.131 347.358v5.177" stroke-width=".459" transform="matrix(-1.89248 0 0 -1 743.988 356.487)"/><path d="M195.793 338.346v14.189" stroke-width=".76" transform="matrix(-1.89248 0 0 -1 743.988 356.487)"/><path d="M190.3 347.358v5.177M193.962 347.358v5.177M182.975 347.358v5.177M188.469 347.358v5.177M179.313 347.358v5.177" stroke-width=".459" transform="matrix(-1.89248 0 0 -1 743.988 356.487)"/><path d="M186.638 343.801v8.734" stroke-width=".596" transform="matrix(-1.89248 0 0 -1 743.988 356.487)"/></g><g><path d="M184.807 347.358v5.177M181.144 347.358v5.177M192.131 347.358v5.177" stroke-width=".459" transform="matrix(-1.89248 0 0 -1 709.753 356.487)"/><path d="M195.793 338.346v14.189" stroke-width=".76" transform="matrix(-1.89248 0 0 -1 709.753 356.487)"/><path d="M190.3 347.358v5.177M193.962 347.358v5.177M182.975 347.358v5.177M188.469 347.358v5.177M179.313 347.358v5.177" stroke-width=".459" transform="matrix(-1.89248 0 0 -1 709.753 356.487)"/><path d="M186.638 343.801v8.734" stroke-width=".596" transform="matrix(-1.89248 0 0 -1 709.753 356.487)"/></g><g><path d="M184.807 347.358v5.177M181.144 347.358v5.177M192.131 347.358v5.177" stroke-width=".459" transform="matrix(-1.89248 0 0 -1 778.223 356.487)"/><path d="M195.793 338.346v14.189" stroke-width=".76" transform="matrix(-1.89248 0 0 -1 778.223 356.487)"/><path d="M190.3 347.358v5.177M193.962 347.358v5.177M182.975 347.358v5.177M188.469 347.358v5.177M179.313 347.358v5.177" stroke-width=".459" transform="matrix(-1.89248 0 0 -1 778.223 356.487)"/><path d="M186.638 343.801v8.734" stroke-width=".596" transform="matrix(-1.89248 0 0 -1 778.223 356.487)"/></g></g><path style="marker:none" d="M524 134c-.007-.004-.089.036-.188.063C384 172.47 173.175 228.03 74.97 254.343c0 0 20.245 11.777 20.344 11.75 123.054-35.607 309.399-82.913 448.875-120.28.098-.027.163-.059.156-.063z" transform="translate(-12.5 -10.285)" color="#000" fill="url(#n)" stroke="#000" stroke-width=".349" overflow="visible" enable-background="accumulate"/><g><path d="M93.764 247.635l-1.004.27-1.918-1.108c-.193.2-.497.39-.911.57l-.462-.266a2.61 2.61 0 0 0 .608-.37c.185-.154.254-.292.207-.416l.815-.218 2.665 1.538M108.22 243.362l.473.273-3.52.943c-.14-.113-.195-.241-.164-.384.03-.144.194-.368.492-.67.239-.245.372-.403.398-.475.033-.097-.002-.176-.104-.235a.903.903 0 0 0-.443-.102 2.12 2.12 0 0 0-.59.08c-.209.056-.344.12-.403.19-.06.07-.026.15.104.24l-1.051.24c-.22-.178-.235-.344-.042-.499.192-.154.524-.295.996-.421a5.44 5.44 0 0 1 1.43-.204c.437.002.76.064.97.185.12.069.19.146.214.232.024.084.003.185-.062.303-.043.078-.15.201-.319.371-.17.17-.273.28-.31.332a.342.342 0 0 0-.063.136l1.994-.535M120.9 239.769l.912-.295c.157.064.336.097.538.1.202.001.4-.024.593-.075.207-.056.341-.126.402-.21.063-.084.027-.165-.108-.243a1.084 1.084 0 0 0-.508-.12 2.08 2.08 0 0 0-.609.067c-.128.035-.27.083-.423.146l-.303-.27c.275-.07.453-.142.533-.217.079-.075.066-.143-.04-.204a.771.771 0 0 0-.37-.08 1.808 1.808 0 0 0-.498.065c-.171.046-.288.103-.349.17-.061.068-.047.138.043.212l-1.005.202c-.096-.11-.128-.21-.095-.299.035-.09.14-.183.317-.276.178-.095.411-.18.7-.258a4.983 4.983 0 0 1 1.425-.18c.375.01.645.062.81.157.232.134.167.309-.197.523.333-.061.645-.083.937-.065.295.017.522.071.683.164.233.135.263.294.092.479-.172.185-.508.344-1.008.478a5.543 5.543 0 0 1-1.386.197c-.45.003-.813-.053-1.086-.168M138.366 235.684l-.534-.308-2.144.574-.446-.257.587-1.582.844-.226 1.683.972.65-.174.448.258-.65.175.534.308-.972.26m-.982-.566l-.907-.524-.297.846 1.204-.322M151.97 231.462l.948-.298c.144.058.32.088.528.09.206 0 .402-.024.585-.073.21-.056.344-.129.404-.217.058-.09 0-.184-.173-.284a1.235 1.235 0 0 0-.584-.153 2.277 2.277 0 0 0-.684.08c-.288.076-.482.183-.582.319l-.874.184-.867-.936 2.655-.711.476.275-1.894.507.294.303c.167-.093.367-.17.6-.233.446-.12.906-.174 1.38-.162.474.012.842.094 1.103.245.219.126.289.272.21.438-.106.226-.462.42-1.067.583-.484.13-.944.197-1.38.203-.437.005-.796-.048-1.078-.16M169.575 225.628l-.918.291a1.077 1.077 0 0 0-.41-.08 1.734 1.734 0 0 0-.462.063c-.212.057-.343.133-.395.228-.048.095.06.236.328.422.1-.153.337-.28.708-.38.42-.112.859-.161 1.318-.147.462.013.821.093 1.077.24.272.157.332.325.182.504-.15.18-.472.335-.965.467a5.165 5.165 0 0 1-1.616.17 3.39 3.39 0 0 1-1.535-.455c-.487-.28-.66-.53-.52-.75.14-.22.494-.405 1.06-.557a4.66 4.66 0 0 1 1.157-.166c.374-.005.705.045.99.15m-1.165 1.25c.165.096.368.15.609.162.239.011.455-.01.648-.06.186-.05.304-.113.354-.19.05-.075-.008-.161-.176-.258a1.26 1.26 0 0 0-.579-.165c-.214-.01-.421.01-.621.064-.193.052-.318.118-.374.198-.057.08-.011.163.139.25M181.556 222.298l-.472-.273 3.434-.92.369.213a1.036 1.036 0 0 0-.256.583.957.957 0 0 0 .172.667c.144.212.334.386.571.52l-.968.26c-.35-.216-.576-.472-.676-.768-.098-.296-.061-.594.11-.894l-2.284.612M198.67 218.315c-.316.038-.581.045-.797.02a1.316 1.316 0 0 1-.495-.137c-.198-.114-.226-.245-.084-.393.145-.148.469-.289.972-.424.497-.133.948-.2 1.351-.198.405 0 .707.058.905.172.123.071.17.152.14.241-.03.09-.135.179-.313.27.35-.044.656-.054.92-.028.266.024.473.08.621.165.245.142.29.298.133.47-.154.17-.487.325-.999.462a5.936 5.936 0 0 1-1.38.209c-.524.014-.916-.055-1.176-.205-.144-.083-.205-.178-.184-.285.02-.107.148-.22.385-.339m-.305-.35c.102.058.237.088.405.091.172.002.351-.022.54-.072.19-.052.314-.109.372-.172.056-.064.034-.126-.068-.184a.825.825 0 0 0-.4-.086 1.91 1.91 0 0 0-.533.07c-.193.051-.318.11-.374.173-.056.064-.037.124.058.18m1.044.68c.14.081.32.125.539.133.221.007.438-.018.65-.075.207-.055.341-.123.402-.202.06-.08.019-.162-.124-.244-.124-.072-.293-.11-.506-.117a2.186 2.186 0 0 0-.639.075c-.245.066-.386.14-.422.222-.033.08 0 .15.1.208M214.237 214.836l.917-.292c.124.052.26.078.409.079.148.001.305-.02.469-.065.207-.055.335-.13.384-.225.049-.095-.059-.235-.322-.422-.105.154-.346.281-.725.383-.412.11-.848.16-1.309.147-.46-.014-.818-.095-1.077-.244-.269-.156-.328-.323-.178-.502.152-.18.472-.336.96-.467a5.163 5.163 0 0 1 1.62-.17c.55.03 1.062.181 1.538.457.486.28.658.53.518.748-.14.22-.495.405-1.064.558-.41.11-.796.167-1.158.171a2.737 2.737 0 0 1-.982-.156m1.16-1.25a1.334 1.334 0 0 0-.606-.161 2.08 2.08 0 0 0-.65.06c-.187.05-.304.112-.353.189-.048.075.013.161.182.259.171.099.364.154.578.164.213.01.42-.011.62-.065.193-.051.316-.117.37-.197.056-.08.01-.163-.14-.25" style="text-align:start;line-height:0%;-inkscape-font-specification:Arial Bold" font-size="10.201" font-weight="700" letter-spacing="0" word-spacing="11" font-family="Arial"/><g font-size="10.201" font-weight="700" letter-spacing="0" word-spacing="11" font-family="Arial"><path style="text-align:start;line-height:0%;-inkscape-font-specification:Arial Bold" d="M230.762 210.927l-1.004.269-1.917-1.107c-.193.198-.497.389-.912.57l-.461-.267a2.61 2.61 0 0 0 .607-.37c.186-.153.255-.292.207-.416l.815-.218 2.665 1.539M231.299 208.53c.507-.136.995-.189 1.465-.16a3.585 3.585 0 0 1 1.592.487c.502.29.691.545.568.763-.103.18-.408.34-.915.475a4.77 4.77 0 0 1-1.53.159c-.51-.031-1.021-.194-1.53-.488-.5-.289-.688-.542-.565-.761.102-.18.407-.339.915-.475m.422.244a.671.671 0 0 0-.266.121c-.056.048-.06.108-.011.181.062.094.249.232.56.411.312.18.557.296.736.347.178.05.333.074.464.071.134-.003.262-.021.383-.054a.701.701 0 0 0 .267-.12c.056-.049.06-.11.01-.182-.061-.094-.248-.23-.559-.41-.311-.18-.556-.295-.734-.345a1.603 1.603 0 0 0-.47-.072c-.132.002-.259.02-.38.052"/></g><g font-size="10.201" font-weight="700" letter-spacing="0" word-spacing="11" font-family="Arial"><path style="text-align:start;line-height:0%;-inkscape-font-specification:Arial Bold" d="M246.287 206.767l-1.005.269-1.917-1.107c-.193.199-.497.389-.911.57l-.462-.266a2.61 2.61 0 0 0 .608-.371c.185-.153.254-.291.207-.415l.815-.219 2.665 1.539M249.96 205.783l-1.004.269-1.918-1.107c-.193.199-.496.389-.911.57l-.462-.266a2.61 2.61 0 0 0 .608-.371c.185-.153.254-.292.207-.416l.815-.218 2.665 1.539"/></g><g font-size="10.201" font-weight="700" letter-spacing="0" word-spacing="11" font-family="Arial"><path style="text-align:start;line-height:0%;-inkscape-font-specification:Arial Bold" d="M261.81 202.607l-1.003.27-1.917-1.108c-.193.199-.497.39-.912.57l-.462-.266a2.61 2.61 0 0 0 .608-.371c.186-.153.255-.291.207-.415l.815-.218 2.665 1.538M266.234 201.023l.472.273-3.52.943c-.14-.114-.195-.242-.163-.385.03-.144.194-.367.492-.67.239-.245.371-.403.398-.474.033-.098-.002-.176-.105-.236a.903.903 0 0 0-.442-.101 2.12 2.12 0 0 0-.59.08c-.21.056-.344.119-.404.189-.06.07-.025.15.104.241l-1.05.239c-.221-.178-.235-.344-.043-.498.193-.155.525-.295.997-.422a5.44 5.44 0 0 1 1.43-.204c.437.002.76.064.97.185.12.07.19.147.213.232.024.085.004.186-.061.303-.043.078-.15.202-.32.372-.169.17-.272.28-.31.33a.342.342 0 0 0-.062.137l1.994-.534"/></g><g font-size="10.201" font-weight="700" letter-spacing="0" word-spacing="11" font-family="Arial"><path style="text-align:start;line-height:0%;-inkscape-font-specification:Arial Bold" d="M277.335 198.448l-1.004.269-1.917-1.107c-.193.198-.497.388-.912.57l-.461-.267a2.61 2.61 0 0 0 .608-.37c.185-.153.254-.292.207-.416l.814-.218 2.665 1.539M278.1 197.647l.912-.295c.156.065.336.098.538.1.202.002.4-.023.592-.075.208-.056.342-.125.403-.209.063-.084.027-.165-.108-.243a1.083 1.083 0 0 0-.508-.121 2.08 2.08 0 0 0-.609.068c-.129.034-.27.083-.423.145l-.304-.269c.275-.07.453-.143.533-.217.08-.076.066-.144-.039-.204a.77.77 0 0 0-.37-.081 1.808 1.808 0 0 0-.498.066c-.172.046-.288.102-.35.17-.06.067-.046.138.043.212l-1.005.202c-.096-.11-.127-.21-.094-.3.034-.09.14-.182.317-.276.178-.094.41-.18.699-.257a4.983 4.983 0 0 1 1.425-.18c.376.01.646.061.81.156.233.135.168.31-.196.524.332-.062.645-.084.937-.066.294.017.522.072.683.165.232.134.263.294.091.478-.171.185-.507.345-1.008.479a5.543 5.543 0 0 1-1.385.196c-.451.004-.813-.052-1.086-.168"/></g><g font-size="10.201" font-weight="700" letter-spacing="0" word-spacing="11" font-family="Arial"><path style="text-align:start;line-height:0%;-inkscape-font-specification:Arial Bold" d="M292.86 194.288l-1.004.269-1.918-1.107c-.193.199-.497.389-.911.57l-.462-.266a2.61 2.61 0 0 0 .608-.371c.185-.153.254-.292.207-.416l.815-.218 2.665 1.539M296.333 193.357l-.534-.308-2.144.574-.446-.257.587-1.582.844-.226 1.683.972.65-.174.448.258-.65.174.534.309-.972.26m-.981-.566l-.908-.524-.297.846 1.205-.322"/></g><g font-size="10.201" font-weight="700" letter-spacing="0" word-spacing="11" font-family="Arial"><path style="text-align:start;line-height:0%;-inkscape-font-specification:Arial Bold" d="M308.384 190.128l-1.004.27-1.917-1.108c-.193.199-.497.389-.912.57l-.461-.266a2.61 2.61 0 0 0 .607-.371c.186-.153.255-.291.207-.415l.815-.219 2.665 1.539M309.22 189.327l.948-.298c.143.058.319.088.527.09.207 0 .402-.024.586-.073.21-.056.344-.129.404-.217.058-.09 0-.184-.174-.284a1.235 1.235 0 0 0-.583-.153 2.277 2.277 0 0 0-.684.08c-.289.076-.482.183-.582.319l-.874.184-.867-.936 2.655-.711.476.275-1.894.507.294.303c.167-.093.367-.17.6-.233.446-.12.906-.173 1.38-.162.473.012.841.094 1.103.245.218.126.288.272.21.438-.107.226-.463.42-1.068.583-.483.13-.943.197-1.38.203-.436.006-.795-.048-1.077-.16"/></g><path d="M324.99 185.678l-1.004.27-1.917-1.108c-.193.2-.497.39-.911.57l-.462-.266a2.61 2.61 0 0 0 .608-.37c.185-.154.254-.292.207-.416l.815-.218 2.665 1.538M327.892 183.207l-.917.291a1.077 1.077 0 0 0-.41-.08 1.734 1.734 0 0 0-.462.063c-.212.057-.344.133-.395.228-.049.095.06.236.328.422.1-.153.336-.28.708-.38.419-.112.858-.161 1.318-.147.462.012.82.093 1.077.24.271.157.332.325.181.504-.15.18-.472.335-.965.467a5.165 5.165 0 0 1-1.615.17 3.39 3.39 0 0 1-1.536-.455c-.486-.28-.66-.53-.52-.75.14-.22.494-.405 1.061-.557a4.66 4.66 0 0 1 1.157-.166c.374-.005.704.045.99.15m-1.166 1.25c.165.096.368.15.609.162.24.01.456-.01.649-.061.185-.05.303-.112.354-.188.05-.076-.009-.162-.177-.259a1.26 1.26 0 0 0-.578-.165c-.214-.01-.422.01-.622.064-.193.052-.317.118-.373.198-.058.08-.012.163.138.25" style="text-align:start;line-height:0%;-inkscape-font-specification:Arial Bold" font-size="10.201" font-weight="700" letter-spacing="0" word-spacing="11" font-family="Arial"/><g font-size="10.201" font-weight="700" letter-spacing="0" word-spacing="11" font-family="Arial"><path style="text-align:start;line-height:0%;-inkscape-font-specification:Arial Bold" d="M339.433 181.809l-1.004.269-1.918-1.107c-.193.198-.496.388-.911.57l-.462-.267a2.61 2.61 0 0 0 .608-.37c.185-.153.255-.292.207-.416l.815-.218 2.665 1.539M338.792 180.167l-.473-.273 3.434-.92.37.213a1.036 1.036 0 0 0-.257.583.957.957 0 0 0 .172.667c.144.212.335.386.571.52l-.968.26c-.35-.216-.576-.472-.676-.768-.098-.296-.061-.594.11-.894l-2.283.612"/></g><g font-size="10.201" font-weight="700" letter-spacing="0" word-spacing="11" font-family="Arial"><path style="text-align:start;line-height:0%;-inkscape-font-specification:Arial Bold" d="M354.957 177.649l-1.004.269-1.917-1.107c-.193.199-.497.389-.912.57l-.461-.266a2.61 2.61 0 0 0 .607-.371c.186-.153.255-.292.207-.416l.815-.218 2.665 1.539M355.89 176.188c-.315.038-.58.045-.796.02a1.316 1.316 0 0 1-.495-.137c-.198-.115-.226-.245-.084-.393.145-.148.469-.29.972-.424.497-.133.948-.2 1.351-.198.405 0 .707.058.905.172.123.071.17.151.14.241-.03.089-.135.179-.313.27.35-.045.656-.054.92-.028.266.024.473.08.621.165.245.142.29.298.133.47-.154.17-.487.324-.999.462a5.936 5.936 0 0 1-1.38.209c-.524.013-.916-.055-1.176-.205-.144-.083-.205-.178-.184-.285.02-.107.148-.22.386-.339m-.306-.351c.102.058.237.089.406.092.17.002.35-.022.538-.073.191-.05.315-.108.373-.171.056-.064.034-.126-.068-.184a.825.825 0 0 0-.4-.086 1.91 1.91 0 0 0-.533.07c-.193.051-.318.109-.374.173-.056.064-.037.124.058.179m1.044.681c.14.081.32.125.539.133.221.007.438-.018.65-.075.207-.055.341-.123.402-.203.06-.08.019-.161-.124-.243-.124-.072-.293-.111-.506-.117a2.186 2.186 0 0 0-.639.075c-.245.065-.386.14-.422.221-.033.082 0 .151.1.21"/></g><g font-size="10.201" font-weight="700" letter-spacing="0" word-spacing="11" font-family="Arial"><path style="text-align:start;line-height:0%;-inkscape-font-specification:Arial Bold" d="M370.481 173.49l-1.004.268-1.917-1.107c-.193.199-.497.389-.911.57l-.462-.266a2.61 2.61 0 0 0 .608-.371c.185-.153.254-.291.207-.415l.814-.219 2.665 1.54M371.393 172.726l.918-.292c.124.052.26.078.409.079.148.001.304-.02.469-.065.207-.055.335-.13.384-.225.048-.095-.06-.235-.323-.422-.104.154-.345.281-.724.383-.412.11-.848.16-1.31.147-.459-.014-.818-.095-1.076-.244-.269-.156-.328-.323-.178-.502.151-.18.471-.336.96-.467a5.163 5.163 0 0 1 1.62-.17c.549.03 1.061.181 1.538.457.485.28.658.53.518.748-.14.22-.495.405-1.064.558-.41.11-.796.167-1.159.171a2.737 2.737 0 0 1-.982-.156m1.161-1.25a1.335 1.335 0 0 0-.607-.161 2.08 2.08 0 0 0-.65.06c-.186.05-.303.112-.352.189-.048.075.012.161.181.259.172.099.365.153.579.164.213.01.42-.011.62-.065.193-.051.316-.117.37-.197.056-.08.01-.163-.14-.25"/></g><g font-size="10.201" font-weight="700" letter-spacing="0" word-spacing="11" font-family="Arial"><path style="text-align:start;line-height:0%;-inkscape-font-specification:Arial Bold" d="M386.752 168.73l.472.273-3.52.943c-.14-.113-.194-.242-.163-.385.03-.143.194-.367.492-.67.239-.245.371-.403.398-.474.033-.098-.002-.176-.104-.235a.903.903 0 0 0-.443-.102 2.12 2.12 0 0 0-.59.08c-.209.056-.344.119-.404.19-.06.07-.025.15.105.24l-1.052.24c-.22-.178-.234-.344-.042-.5.193-.154.525-.294.997-.42a5.44 5.44 0 0 1 1.43-.205c.437.003.76.064.97.186.12.069.19.146.214.232.024.084.003.185-.062.302-.043.078-.15.202-.32.372-.169.17-.272.28-.31.331a.342.342 0 0 0-.062.136l1.994-.534M386.94 166.827c.506-.136.995-.19 1.464-.16a3.585 3.585 0 0 1 1.592.487c.502.29.691.544.568.763-.102.18-.407.338-.915.474a4.77 4.77 0 0 1-1.53.16c-.51-.032-1.02-.195-1.53-.489-.5-.288-.688-.542-.565-.76.103-.181.408-.34.915-.475m.422.243a.671.671 0 0 0-.265.122c-.057.048-.061.108-.012.18.062.095.25.232.56.412.312.18.557.295.736.346.178.05.333.074.464.071.134-.003.262-.02.383-.053a.701.701 0 0 0 .268-.12c.055-.05.058-.11.01-.182-.062-.094-.248-.231-.56-.41-.311-.18-.556-.296-.733-.346a1.603 1.603 0 0 0-.47-.072c-.132.002-.26.02-.381.052"/></g><g font-size="10.201" font-weight="700" letter-spacing="0" word-spacing="11" font-family="Arial"><path style="text-align:start;line-height:0%;-inkscape-font-specification:Arial Bold" d="M402.276 164.57l.473.273-3.52.943c-.14-.113-.195-.241-.164-.384.03-.144.194-.368.492-.67.239-.246.372-.404.398-.475.033-.098-.001-.176-.104-.235a.903.903 0 0 0-.443-.102 2.12 2.12 0 0 0-.589.08c-.21.056-.344.12-.404.19-.06.07-.025.15.104.24l-1.051.24c-.22-.178-.235-.344-.042-.499.192-.154.524-.295.996-.421a5.44 5.44 0 0 1 1.43-.205c.437.003.76.065.97.186.12.069.191.146.214.232.024.084.003.185-.062.303-.043.077-.15.201-.319.371-.17.17-.273.28-.31.331a.342.342 0 0 0-.063.137l1.994-.535M406 163.972l-1.004.269-1.917-1.107c-.193.199-.497.389-.911.57l-.462-.266a2.61 2.61 0 0 0 .608-.371c.185-.153.254-.292.207-.416l.814-.218 2.665 1.539"/></g><g font-size="10.201" font-weight="700" letter-spacing="0" word-spacing="11" font-family="Arial"><path style="text-align:start;line-height:0%;-inkscape-font-specification:Arial Bold" d="M417.8 160.41l.473.273-3.52.943c-.14-.113-.195-.241-.163-.384.03-.144.194-.367.491-.67.24-.245.372-.403.398-.475.034-.097-.001-.176-.104-.235a.903.903 0 0 0-.443-.102 2.12 2.12 0 0 0-.589.08c-.21.056-.344.12-.404.19-.06.07-.025.15.104.241l-1.05.239c-.221-.178-.235-.344-.043-.499.193-.154.525-.295.997-.421a5.44 5.44 0 0 1 1.43-.204c.436.002.76.064.97.185.12.07.19.147.213.232.024.085.004.185-.061.303-.043.078-.15.202-.32.372-.169.17-.272.28-.31.33a.342.342 0 0 0-.062.137l1.993-.534M421.874 159.319l.472.273-3.52.943c-.14-.113-.194-.242-.163-.385.03-.143.194-.367.492-.67.239-.245.372-.403.398-.474.033-.098-.002-.176-.104-.235a.903.903 0 0 0-.443-.102 2.12 2.12 0 0 0-.59.08c-.209.056-.344.119-.403.19-.06.07-.026.15.104.24l-1.051.24c-.22-.178-.235-.344-.042-.499.192-.155.524-.295.996-.422a5.44 5.44 0 0 1 1.43-.204c.437.003.76.064.97.186.12.069.19.146.214.232.024.084.003.185-.062.302-.043.078-.15.202-.319.372-.17.17-.273.28-.31.331a.342.342 0 0 0-.063.136l1.994-.534"/></g><g font-size="10.201" font-weight="700" letter-spacing="0" word-spacing="11" font-family="Arial"><path d="M433.325 156.25l.472.274-3.52.943c-.14-.114-.194-.242-.163-.385.03-.144.194-.367.492-.67.239-.245.371-.403.398-.474.033-.098-.002-.176-.104-.236a.903.903 0 0 0-.443-.101 2.12 2.12 0 0 0-.59.08c-.209.056-.344.119-.404.189-.06.07-.025.15.105.241l-1.052.24c-.22-.179-.234-.345-.041-.5.192-.154.524-.294.996-.42a5.44 5.44 0 0 1 1.43-.205c.437.002.76.064.97.185.12.07.19.147.214.232.024.085.003.186-.062.303-.043.078-.15.202-.319.372-.17.17-.273.28-.31.33a.342.342 0 0 0-.063.137l1.994-.534M433.74 155.944l.912-.295c.157.064.336.097.538.099.202.002.4-.023.593-.075.207-.055.341-.125.402-.208.063-.085.027-.166-.108-.244a1.084 1.084 0 0 0-.508-.121 2.08 2.08 0 0 0-.609.068c-.128.035-.27.083-.423.146l-.303-.27c.275-.07.452-.143.533-.217.079-.075.066-.143-.04-.204a.77.77 0 0 0-.37-.081 1.808 1.808 0 0 0-.498.066c-.172.046-.288.103-.349.17-.061.067-.047.138.043.212l-1.005.202c-.097-.11-.128-.21-.095-.3.035-.09.14-.182.317-.275.178-.095.411-.181.7-.258a4.983 4.983 0 0 1 1.425-.18c.375.01.645.062.81.156.232.135.167.31-.197.524.333-.061.645-.083.937-.066.295.017.522.072.683.165.233.134.263.294.092.479-.172.184-.508.344-1.008.478a5.543 5.543 0 0 1-1.386.197c-.45.003-.813-.053-1.086-.168" style="text-align:start;line-height:0%;-inkscape-font-specification:Arial Bold"/></g><g font-size="10.201" font-weight="700" letter-spacing="0" word-spacing="11" font-family="Arial"><path style="text-align:start;line-height:0%;-inkscape-font-specification:Arial Bold" d="M448.85 152.091l.472.273-3.52.943c-.14-.113-.195-.242-.164-.385.03-.143.194-.367.492-.67.24-.245.372-.403.398-.474.033-.098-.001-.176-.104-.235a.903.903 0 0 0-.443-.102 2.12 2.12 0 0 0-.589.08c-.21.056-.344.119-.404.19-.06.07-.025.15.104.24l-1.051.24c-.22-.178-.235-.344-.042-.5.192-.154.525-.294.996-.42a5.44 5.44 0 0 1 1.43-.205c.437.003.76.064.97.186.12.069.19.146.214.232.024.084.003.185-.062.302-.043.078-.149.202-.319.372-.17.17-.273.28-.31.331a.342.342 0 0 0-.063.136l1.994-.534M451.973 151.653l-.534-.308-2.144.575-.445-.258.587-1.582.843-.226 1.684.972.65-.174.447.258-.65.175.534.308-.972.26m-.981-.566l-.907-.524-.297.847 1.204-.323"/></g><g font-size="10.201" font-weight="700" letter-spacing="0" word-spacing="11" font-family="Arial"><path style="text-align:start;line-height:0%;-inkscape-font-specification:Arial Bold" d="M464.374 147.931l.472.273-3.52.943c-.14-.113-.195-.241-.163-.384.03-.144.194-.368.492-.67.238-.245.371-.403.398-.475.033-.097-.002-.176-.105-.235a.903.903 0 0 0-.443-.102 2.12 2.12 0 0 0-.589.08c-.21.056-.344.12-.404.19-.06.07-.025.15.104.24l-1.05.24c-.221-.178-.235-.344-.043-.499.193-.154.525-.295.997-.421a5.44 5.44 0 0 1 1.43-.205c.437.003.76.065.97.186.12.069.19.146.213.232.024.084.004.185-.061.303-.043.078-.15.201-.32.371-.169.17-.272.28-.31.331a.342.342 0 0 0-.062.137l1.994-.535M464.86 147.623l.948-.298c.144.059.32.088.527.09.207 0 .403-.024.586-.073.21-.056.344-.128.404-.217.058-.089 0-.184-.173-.284a1.235 1.235 0 0 0-.584-.153 2.277 2.277 0 0 0-.684.08c-.288.077-.482.183-.582.32l-.874.183-.867-.935 2.655-.712.476.275-1.894.508.294.302c.167-.093.367-.17.6-.233.446-.12.906-.173 1.38-.161.474.011.841.093 1.103.244.219.126.289.272.21.438-.107.227-.462.421-1.067.583-.484.13-.944.197-1.38.203-.437.006-.796-.047-1.078-.16"/></g><g font-size="10.201" font-weight="700" letter-spacing="0" word-spacing="11" font-family="Arial"><path style="text-align:start;line-height:0%;-inkscape-font-specification:Arial Bold" d="M479.898 143.772l.473.272-3.52.943c-.14-.113-.195-.241-.164-.384.03-.144.194-.367.492-.67.239-.245.372-.403.398-.475.033-.097-.002-.176-.104-.235a.903.903 0 0 0-.443-.102 2.12 2.12 0 0 0-.59.08c-.209.056-.344.12-.403.19-.06.07-.026.15.104.241l-1.051.239c-.22-.178-.235-.344-.042-.499.192-.154.524-.295.996-.421a5.44 5.44 0 0 1 1.43-.204c.437.002.76.064.97.185.12.07.19.147.214.232.024.085.003.185-.062.303-.043.078-.15.202-.319.372-.17.17-.273.28-.31.33a.342.342 0 0 0-.063.137l1.994-.534M482.45 141.793l-.917.292a1.079 1.079 0 0 0-.41-.08 1.733 1.733 0 0 0-.462.062c-.212.057-.344.133-.395.229-.049.094.06.235.328.421.1-.153.336-.28.708-.38.42-.111.859-.16 1.318-.147.462.013.82.093 1.077.24.271.158.332.326.182.505-.15.179-.472.334-.965.466a5.165 5.165 0 0 1-1.616.17 3.39 3.39 0 0 1-1.536-.455c-.486-.28-.66-.53-.52-.75.14-.219.494-.404 1.061-.556a4.66 4.66 0 0 1 1.157-.166c.374-.006.704.044.99.149m-1.166 1.25c.166.096.369.15.61.162.239.011.455-.009.648-.06.185-.05.304-.113.354-.189.05-.076-.009-.162-.177-.259a1.26 1.26 0 0 0-.578-.165c-.214-.01-.421.01-.622.064-.193.052-.317.118-.373.198-.058.08-.011.163.138.25"/></g><g font-size="10.201" font-weight="700" letter-spacing="0" word-spacing="11" font-family="Arial"><path style="text-align:start;line-height:0%;-inkscape-font-specification:Arial Bold" d="M495.422 139.612l.473.273-3.52.943c-.14-.114-.195-.242-.164-.385.03-.144.194-.367.492-.67.24-.245.372-.403.398-.474.033-.098-.001-.176-.104-.236a.903.903 0 0 0-.443-.101 2.12 2.12 0 0 0-.589.08c-.21.056-.344.119-.404.189-.06.07-.025.15.104.241l-1.051.24c-.22-.179-.234-.345-.042-.5.193-.154.525-.294.996-.42a5.44 5.44 0 0 1 1.43-.205c.437.002.76.064.97.185.12.07.191.147.214.232.024.085.004.186-.062.303-.043.078-.149.202-.318.372-.17.17-.274.28-.311.331a.342.342 0 0 0-.062.136l1.993-.534M494.432 138.463l-.473-.273 3.434-.92.37.213a1.036 1.036 0 0 0-.257.583.957.957 0 0 0 .172.667c.145.213.335.386.572.52l-.969.26c-.35-.216-.575-.472-.676-.768-.097-.296-.06-.594.11-.894l-2.283.612"/></g><g fill="none" stroke="#000" stroke-linecap="round" stroke-linejoin="round"><path d="M184.807 347.358v5.177M181.144 347.358v5.177M192.131 347.358v5.177" stroke-width=".459" transform="matrix(-.85817 .22995 -.57496 -.33196 697.086 245.575)"/><path d="M195.793 338.346v14.189" stroke-width=".76" transform="matrix(-.85817 .22995 -.57496 -.33196 697.086 245.575)"/><path d="M190.3 347.358v5.177M193.962 347.358v5.177M182.975 347.358v5.177M188.469 347.358v5.177M179.313 347.358v5.177" stroke-width=".459" transform="matrix(-.85817 .22995 -.57496 -.33196 697.086 245.575)"/><path d="M186.638 343.801v8.734" stroke-width=".596" transform="matrix(-.85817 .22995 -.57496 -.33196 697.086 245.575)"/><path d="M184.807 347.358v5.177M181.144 347.358v5.177M192.131 347.358v5.177" stroke-width=".459" transform="matrix(-.85817 .22995 -.57496 -.33196 681.562 249.735)"/><path d="M195.793 338.346v14.189" stroke-width=".76" transform="matrix(-.85817 .22995 -.57496 -.33196 681.562 249.735)"/><path d="M190.3 347.358v5.177M193.962 347.358v5.177M182.975 347.358v5.177M188.469 347.358v5.177M179.313 347.358v5.177" stroke-width=".459" transform="matrix(-.85817 .22995 -.57496 -.33196 681.562 249.735)"/><path d="M186.638 343.801v8.734" stroke-width=".596" transform="matrix(-.85817 .22995 -.57496 -.33196 681.562 249.735)"/><path d="M184.807 347.358v5.177M181.144 347.358v5.177M192.131 347.358v5.177" stroke-width=".459" transform="matrix(-.85817 .22995 -.57496 -.33196 790.232 220.617)"/><path d="M195.793 338.346v14.189" stroke-width=".76" transform="matrix(-.85817 .22995 -.57496 -.33196 790.232 220.617)"/><path d="M190.3 347.358v5.177M193.962 347.358v5.177M182.975 347.358v5.177M188.469 347.358v5.177M179.313 347.358v5.177" stroke-width=".459" transform="matrix(-.85817 .22995 -.57496 -.33196 790.232 220.617)"/><path d="M186.638 343.801v8.734" stroke-width=".596" transform="matrix(-.85817 .22995 -.57496 -.33196 790.232 220.617)"/><g><path d="M184.807 347.358v5.177M181.144 347.358v5.177M192.131 347.358v5.177" stroke-width=".459" transform="matrix(-.85817 .22995 -.57496 -.33196 650.513 258.055)"/><path d="M195.793 338.346v14.189" stroke-width=".76" transform="matrix(-.85817 .22995 -.57496 -.33196 650.513 258.055)"/><path d="M190.3 347.358v5.177M193.962 347.358v5.177M182.975 347.358v5.177M188.469 347.358v5.177M179.313 347.358v5.177" stroke-width=".459" transform="matrix(-.85817 .22995 -.57496 -.33196 650.513 258.055)"/><path d="M186.638 343.801v8.734" stroke-width=".596" transform="matrix(-.85817 .22995 -.57496 -.33196 650.513 258.055)"/></g><g><path d="M184.807 347.358v5.177M181.144 347.358v5.177M192.131 347.358v5.177" stroke-width=".459" transform="matrix(-.85817 .22995 -.57496 -.33196 634.989 262.214)"/><path d="M195.793 338.346v14.189" stroke-width=".76" transform="matrix(-.85817 .22995 -.57496 -.33196 634.989 262.214)"/><path d="M190.3 347.358v5.177M193.962 347.358v5.177M182.975 347.358v5.177M188.469 347.358v5.177M179.313 347.358v5.177" stroke-width=".459" transform="matrix(-.85817 .22995 -.57496 -.33196 634.989 262.214)"/><path d="M186.638 343.801v8.734" stroke-width=".596" transform="matrix(-.85817 .22995 -.57496 -.33196 634.989 262.214)"/></g><g><path d="M184.807 347.358v5.177M181.144 347.358v5.177M192.131 347.358v5.177" stroke-width=".459" transform="matrix(-.85817 .22995 -.57496 -.33196 495.27 299.652)"/><path d="M195.793 338.346v14.189" stroke-width=".76" transform="matrix(-.85817 .22995 -.57496 -.33196 495.27 299.652)"/><path d="M190.3 347.358v5.177M193.962 347.358v5.177M182.975 347.358v5.177M188.469 347.358v5.177M179.313 347.358v5.177" stroke-width=".459" transform="matrix(-.85817 .22995 -.57496 -.33196 495.27 299.652)"/><path d="M186.638 343.801v8.734" stroke-width=".596" transform="matrix(-.85817 .22995 -.57496 -.33196 495.27 299.652)"/></g><g><path d="M184.807 347.358v5.177M181.144 347.358v5.177M192.131 347.358v5.177" stroke-width=".459" transform="matrix(-.85817 .22995 -.57496 -.33196 510.794 295.492)"/><path d="M195.793 338.346v14.189" stroke-width=".76" transform="matrix(-.85817 .22995 -.57496 -.33196 510.794 295.492)"/><path d="M190.3 347.358v5.177M193.962 347.358v5.177M182.975 347.358v5.177M188.469 347.358v5.177M179.313 347.358v5.177" stroke-width=".459" transform="matrix(-.85817 .22995 -.57496 -.33196 510.794 295.492)"/><path d="M186.638 343.801v8.734" stroke-width=".596" transform="matrix(-.85817 .22995 -.57496 -.33196 510.794 295.492)"/></g><g><path d="M184.807 347.358v5.177M181.144 347.358v5.177M192.131 347.358v5.177" stroke-width=".459" transform="matrix(-.85817 .22995 -.57496 -.33196 666.037 253.895)"/><path d="M195.793 338.346v14.189" stroke-width=".76" transform="matrix(-.85817 .22995 -.57496 -.33196 666.037 253.895)"/><path d="M190.3 347.358v5.177M193.962 347.358v5.177M182.975 347.358v5.177M188.469 347.358v5.177M179.313 347.358v5.177" stroke-width=".459" transform="matrix(-.85817 .22995 -.57496 -.33196 666.037 253.895)"/><path d="M186.638 343.801v8.734" stroke-width=".596" transform="matrix(-.85817 .22995 -.57496 -.33196 666.037 253.895)"/></g><g><path d="M184.807 347.358v5.177M181.144 347.358v5.177M192.131 347.358v5.177" stroke-width=".459" transform="matrix(-.85817 .22995 -.57496 -.33196 603.94 270.534)"/><path d="M195.793 338.346v14.189" stroke-width=".76" transform="matrix(-.85817 .22995 -.57496 -.33196 603.94 270.534)"/><path d="M190.3 347.358v5.177M193.962 347.358v5.177M182.975 347.358v5.177M188.469 347.358v5.177M179.313 347.358v5.177" stroke-width=".459" transform="matrix(-.85817 .22995 -.57496 -.33196 603.94 270.534)"/><path d="M186.638 343.801v8.734" stroke-width=".596" transform="matrix(-.85817 .22995 -.57496 -.33196 603.94 270.534)"/></g><g><path d="M184.807 347.358v5.177M181.144 347.358v5.177M192.131 347.358v5.177" stroke-width=".459" transform="matrix(-.85817 .22995 -.57496 -.33196 541.842 287.173)"/><path d="M195.793 338.346v14.189" stroke-width=".76" transform="matrix(-.85817 .22995 -.57496 -.33196 541.842 287.173)"/><path d="M190.3 347.358v5.177M193.962 347.358v5.177M182.975 347.358v5.177M188.469 347.358v5.177M179.313 347.358v5.177" stroke-width=".459" transform="matrix(-.85817 .22995 -.57496 -.33196 541.842 287.173)"/><path d="M186.638 343.801v8.734" stroke-width=".596" transform="matrix(-.85817 .22995 -.57496 -.33196 541.842 287.173)"/></g><g><path d="M184.807 347.358v5.177M181.144 347.358v5.177M192.131 347.358v5.177" stroke-width=".459" transform="matrix(-.85817 .22995 -.57496 -.33196 526.318 291.332)"/><path d="M195.793 338.346v14.189" stroke-width=".76" transform="matrix(-.85817 .22995 -.57496 -.33196 526.318 291.332)"/><path d="M190.3 347.358v5.177M193.962 347.358v5.177M182.975 347.358v5.177M188.469 347.358v5.177M179.313 347.358v5.177" stroke-width=".459" transform="matrix(-.85817 .22995 -.57496 -.33196 526.318 291.332)"/><path d="M186.638 343.801v8.734" stroke-width=".596" transform="matrix(-.85817 .22995 -.57496 -.33196 526.318 291.332)"/></g><g><path d="M184.807 347.358v5.177M181.144 347.358v5.177M192.131 347.358v5.177" stroke-width=".459" transform="matrix(-.85817 .22995 -.57496 -.33196 619.464 266.374)"/><path d="M195.793 338.346v14.189" stroke-width=".76" transform="matrix(-.85817 .22995 -.57496 -.33196 619.464 266.374)"/><path d="M190.3 347.358v5.177M193.962 347.358v5.177M182.975 347.358v5.177M188.469 347.358v5.177M179.313 347.358v5.177" stroke-width=".459" transform="matrix(-.85817 .22995 -.57496 -.33196 619.464 266.374)"/><path d="M186.638 343.801v8.734" stroke-width=".596" transform="matrix(-.85817 .22995 -.57496 -.33196 619.464 266.374)"/></g><g><path d="M184.807 347.358v5.177M181.144 347.358v5.177M192.131 347.358v5.177" stroke-width=".459" transform="matrix(-.85817 .22995 -.57496 -.33196 572.891 278.853)"/><path d="M195.793 338.346v14.189" stroke-width=".76" transform="matrix(-.85817 .22995 -.57496 -.33196 572.891 278.853)"/><path d="M190.3 347.358v5.177M193.962 347.358v5.177M182.975 347.358v5.177M188.469 347.358v5.177M179.313 347.358v5.177" stroke-width=".459" transform="matrix(-.85817 .22995 -.57496 -.33196 572.891 278.853)"/><path d="M186.638 343.801v8.734" stroke-width=".596" transform="matrix(-.85817 .22995 -.57496 -.33196 572.891 278.853)"/></g><g><path d="M184.807 347.358v5.177M181.144 347.358v5.177M192.131 347.358v5.177" stroke-width=".459" transform="matrix(-.85817 .22995 -.57496 -.33196 557.367 283.013)"/><path d="M195.793 338.346v14.189" stroke-width=".76" transform="matrix(-.85817 .22995 -.57496 -.33196 557.367 283.013)"/><path d="M190.3 347.358v5.177M193.962 347.358v5.177M182.975 347.358v5.177M188.469 347.358v5.177M179.313 347.358v5.177" stroke-width=".459" transform="matrix(-.85817 .22995 -.57496 -.33196 557.367 283.013)"/><path d="M186.638 343.801v8.734" stroke-width=".596" transform="matrix(-.85817 .22995 -.57496 -.33196 557.367 283.013)"/></g><g><path d="M184.807 347.358v5.177M181.144 347.358v5.177M192.131 347.358v5.177" stroke-width=".459" transform="matrix(-.85817 .22995 -.57496 -.33196 712.61 241.416)"/><path d="M195.793 338.346v14.189" stroke-width=".76" transform="matrix(-.85817 .22995 -.57496 -.33196 712.61 241.416)"/><path d="M190.3 347.358v5.177M193.962 347.358v5.177M182.975 347.358v5.177M188.469 347.358v5.177M179.313 347.358v5.177" stroke-width=".459" transform="matrix(-.85817 .22995 -.57496 -.33196 712.61 241.416)"/><path d="M186.638 343.801v8.734" stroke-width=".596" transform="matrix(-.85817 .22995 -.57496 -.33196 712.61 241.416)"/></g><g><path d="M184.807 347.358v5.177M181.144 347.358v5.177M192.131 347.358v5.177" stroke-width=".459" transform="matrix(-.85817 .22995 -.57496 -.33196 588.416 274.693)"/><path d="M195.793 338.346v14.189" stroke-width=".76" transform="matrix(-.85817 .22995 -.57496 -.33196 588.416 274.693)"/><path d="M190.3 347.358v5.177M193.962 347.358v5.177M182.975 347.358v5.177M188.469 347.358v5.177M179.313 347.358v5.177" stroke-width=".459" transform="matrix(-.85817 .22995 -.57496 -.33196 588.416 274.693)"/><path d="M186.638 343.801v8.734" stroke-width=".596" transform="matrix(-.85817 .22995 -.57496 -.33196 588.416 274.693)"/></g><g><path d="M184.807 347.358v5.177M181.144 347.358v5.177M192.131 347.358v5.177" stroke-width=".459" transform="matrix(-.85817 .22995 -.57496 -.33196 464.22 307.971)"/><path d="M195.793 338.346v14.189" stroke-width=".76" transform="matrix(-.85817 .22995 -.57496 -.33196 464.22 307.971)"/><path d="M190.3 347.358v5.177M193.962 347.358v5.177M182.975 347.358v5.177M188.469 347.358v5.177M179.313 347.358v5.177" stroke-width=".459" transform="matrix(-.85817 .22995 -.57496 -.33196 464.22 307.971)"/><path d="M186.638 343.801v8.734" stroke-width=".596" transform="matrix(-.85817 .22995 -.57496 -.33196 464.22 307.971)"/></g><g><path d="M184.807 347.358v5.177M181.144 347.358v5.177M192.131 347.358v5.177" stroke-width=".459" transform="matrix(-.85817 .22995 -.57496 -.33196 448.696 312.131)"/><path d="M195.793 338.346v14.189" stroke-width=".76" transform="matrix(-.85817 .22995 -.57496 -.33196 448.696 312.131)"/><path d="M190.3 347.358v5.177M193.962 347.358v5.177M182.975 347.358v5.177M188.469 347.358v5.177M179.313 347.358v5.177" stroke-width=".459" transform="matrix(-.85817 .22995 -.57496 -.33196 448.696 312.131)"/><path d="M186.638 343.801v8.734" stroke-width=".596" transform="matrix(-.85817 .22995 -.57496 -.33196 448.696 312.131)"/></g><g><path d="M184.807 347.358v5.177M181.144 347.358v5.177M192.131 347.358v5.177" stroke-width=".459" transform="matrix(-.85817 .22995 -.57496 -.33196 852.33 203.978)"/><path d="M195.793 338.346v14.189" stroke-width=".76" transform="matrix(-.85817 .22995 -.57496 -.33196 852.33 203.978)"/><path d="M190.3 347.358v5.177M193.962 347.358v5.177M182.975 347.358v5.177M188.469 347.358v5.177M179.313 347.358v5.177" stroke-width=".459" transform="matrix(-.85817 .22995 -.57496 -.33196 852.33 203.978)"/><path d="M186.638 343.801v8.734" stroke-width=".596" transform="matrix(-.85817 .22995 -.57496 -.33196 852.33 203.978)"/></g><g><path d="M184.807 347.358v5.177M181.144 347.358v5.177M192.131 347.358v5.177" stroke-width=".459" transform="matrix(-.85817 .22995 -.57496 -.33196 805.757 216.457)"/><path d="M195.793 338.346v14.189" stroke-width=".76" transform="matrix(-.85817 .22995 -.57496 -.33196 805.757 216.457)"/><path d="M190.3 347.358v5.177M193.962 347.358v5.177M182.975 347.358v5.177M188.469 347.358v5.177M179.313 347.358v5.177" stroke-width=".459" transform="matrix(-.85817 .22995 -.57496 -.33196 805.757 216.457)"/><path d="M186.638 343.801v8.734" stroke-width=".596" transform="matrix(-.85817 .22995 -.57496 -.33196 805.757 216.457)"/></g><g><path d="M184.807 347.358v5.177M181.144 347.358v5.177M192.131 347.358v5.177" stroke-width=".459" transform="matrix(-.85817 .22995 -.57496 -.33196 479.745 303.812)"/><path d="M195.793 338.346v14.189" stroke-width=".76" transform="matrix(-.85817 .22995 -.57496 -.33196 479.745 303.812)"/><path d="M190.3 347.358v5.177M193.962 347.358v5.177M182.975 347.358v5.177M188.469 347.358v5.177M179.313 347.358v5.177" stroke-width=".459" transform="matrix(-.85817 .22995 -.57496 -.33196 479.745 303.812)"/><path d="M186.638 343.801v8.734" stroke-width=".596" transform="matrix(-.85817 .22995 -.57496 -.33196 479.745 303.812)"/></g><g><path d="M184.807 347.358v5.177M181.144 347.358v5.177M192.131 347.358v5.177" stroke-width=".459" transform="matrix(-.85817 .22995 -.57496 -.33196 867.854 199.818)"/><path d="M195.793 338.346v14.189" stroke-width=".76" transform="matrix(-.85817 .22995 -.57496 -.33196 867.854 199.818)"/><path d="M190.3 347.358v5.177M193.962 347.358v5.177M182.975 347.358v5.177M188.469 347.358v5.177M179.313 347.358v5.177" stroke-width=".459" transform="matrix(-.85817 .22995 -.57496 -.33196 867.854 199.818)"/><path d="M186.638 343.801v8.734" stroke-width=".596" transform="matrix(-.85817 .22995 -.57496 -.33196 867.854 199.818)"/></g><g><path d="M184.807 347.358v5.177M181.144 347.358v5.177M192.131 347.358v5.177" stroke-width=".459" transform="matrix(-.85817 .22995 -.57496 -.33196 836.806 208.138)"/><path d="M195.793 338.346v14.189" stroke-width=".76" transform="matrix(-.85817 .22995 -.57496 -.33196 836.806 208.138)"/><path d="M190.3 347.358v5.177M193.962 347.358v5.177M182.975 347.358v5.177M188.469 347.358v5.177M179.313 347.358v5.177" stroke-width=".459" transform="matrix(-.85817 .22995 -.57496 -.33196 836.806 208.138)"/><path d="M186.638 343.801v8.734" stroke-width=".596" transform="matrix(-.85817 .22995 -.57496 -.33196 836.806 208.138)"/></g><g><path d="M184.807 347.358v5.177M181.144 347.358v5.177M192.131 347.358v5.177" stroke-width=".459" transform="matrix(-.85817 .22995 -.57496 -.33196 821.281 212.297)"/><path d="M195.793 338.346v14.189" stroke-width=".76" transform="matrix(-.85817 .22995 -.57496 -.33196 821.281 212.297)"/><path d="M190.3 347.358v5.177M193.962 347.358v5.177M182.975 347.358v5.177M188.469 347.358v5.177M179.313 347.358v5.177" stroke-width=".459" transform="matrix(-.85817 .22995 -.57496 -.33196 821.281 212.297)"/><path d="M186.638 343.801v8.734" stroke-width=".596" transform="matrix(-.85817 .22995 -.57496 -.33196 821.281 212.297)"/></g><g><path d="M184.807 347.358v5.177M181.144 347.358v5.177M192.131 347.358v5.177" stroke-width=".459" transform="matrix(-.85817 .22995 -.57496 -.33196 774.708 224.777)"/><path d="M195.793 338.346v14.189" stroke-width=".76" transform="matrix(-.85817 .22995 -.57496 -.33196 774.708 224.777)"/><path d="M190.3 347.358v5.177M193.962 347.358v5.177M182.975 347.358v5.177M188.469 347.358v5.177M179.313 347.358v5.177" stroke-width=".459" transform="matrix(-.85817 .22995 -.57496 -.33196 774.708 224.777)"/><path d="M186.638 343.801v8.734" stroke-width=".596" transform="matrix(-.85817 .22995 -.57496 -.33196 774.708 224.777)"/></g><g><path d="M184.807 347.358v5.177M181.144 347.358v5.177M192.131 347.358v5.177" stroke-width=".459" transform="matrix(-.85817 .22995 -.57496 -.33196 743.66 233.096)"/><path d="M195.793 338.346v14.189" stroke-width=".76" transform="matrix(-.85817 .22995 -.57496 -.33196 743.66 233.096)"/><path d="M190.3 347.358v5.177M193.962 347.358v5.177M182.975 347.358v5.177M188.469 347.358v5.177M179.313 347.358v5.177" stroke-width=".459" transform="matrix(-.85817 .22995 -.57496 -.33196 743.66 233.096)"/><path d="M186.638 343.801v8.734" stroke-width=".596" transform="matrix(-.85817 .22995 -.57496 -.33196 743.66 233.096)"/></g><g><path d="M184.807 347.358v5.177M181.144 347.358v5.177M192.131 347.358v5.177" stroke-width=".459" transform="matrix(-.85817 .22995 -.57496 -.33196 728.135 237.256)"/><path d="M195.793 338.346v14.189" stroke-width=".76" transform="matrix(-.85817 .22995 -.57496 -.33196 728.135 237.256)"/><path d="M190.3 347.358v5.177M193.962 347.358v5.177M182.975 347.358v5.177M188.469 347.358v5.177M179.313 347.358v5.177" stroke-width=".459" transform="matrix(-.85817 .22995 -.57496 -.33196 728.135 237.256)"/><path d="M186.638 343.801v8.734" stroke-width=".596" transform="matrix(-.85817 .22995 -.57496 -.33196 728.135 237.256)"/></g><g><path d="M184.807 347.358v5.177M181.144 347.358v5.177M192.131 347.358v5.177" stroke-width=".459" transform="matrix(-.85817 .22995 -.57496 -.33196 759.184 228.936)"/><path d="M195.793 338.346v14.189" stroke-width=".76" transform="matrix(-.85817 .22995 -.57496 -.33196 759.184 228.936)"/><path d="M190.3 347.358v5.177M193.962 347.358v5.177M182.975 347.358v5.177M188.469 347.358v5.177M179.313 347.358v5.177" stroke-width=".459" transform="matrix(-.85817 .22995 -.57496 -.33196 759.184 228.936)"/><path d="M186.638 343.801v8.734" stroke-width=".596" transform="matrix(-.85817 .22995 -.57496 -.33196 759.184 228.936)"/></g></g></g><text style="line-height:125%;-inkscape-font-specification:URW Palladio L Medium" transform="matrix(.38392 0 0 .38392 196.6 -133.465)" font-size="40" font-weight="500" letter-spacing="0" word-spacing="0" fill="#b3b3b3" font-family="URW Palladio L"><textPath xlink:href="#o" style="-inkscape-font-specification:URW Palladio L Bold" font-size="12" font-weight="700">METRAS 5m</textPath></text><text transform="matrix(.38392 0 0 .38392 196.718 -133.582)" style="line-height:125%;-inkscape-font-specification:URW Palladio L Medium" font-size="40" font-weight="500" letter-spacing="0" word-spacing="0" fill="#ff0" font-family="URW Palladio L"><textPath style="-inkscape-font-specification:URW Palladio L Bold" xlink:href="#o" font-size="12" font-weight="700">METRAS 5m</textPath></text><g fill="none" stroke="#000" stroke-linecap="round" stroke-linejoin="round"><path d="M184.807 347.358v5.177M181.144 347.358v5.177M192.131 347.358v5.177" stroke-width=".459" transform="matrix(-.85817 .22995 -.57496 -.33196 432.99 316.304)"/><path d="M195.793 338.346v14.189" stroke-width=".76" transform="matrix(-.85817 .22995 -.57496 -.33196 432.99 316.304)"/><path d="M190.3 347.358v5.177M193.962 347.358v5.177M182.975 347.358v5.177M188.469 347.358v5.177M179.313 347.358v5.177" stroke-width=".459" transform="matrix(-.85817 .22995 -.57496 -.33196 432.99 316.304)"/><path d="M186.638 343.801v8.734" stroke-width=".596" transform="matrix(-.85817 .22995 -.57496 -.33196 432.99 316.304)"/></g><path d="M66.388 242.12a4.922 4.922 0 0 0-1.38.137l-.046.016c-.006-.004-.01-.012-.015-.016l-3.91 1.043c-.097.026-.193.06-.276.092l-.03.015c-.697.288-.679.606-.677.94l.001 11.31c0 1.62 2.687 4.87 5.075 5.841.916.373 2.055-.646 2.959-.245 1.34.594 1.567 2.528 2.668 3.495 1.627 1.43 5.626 3.235 5.626 3.235 2.807 1.62 5.044 1.62 5.044 0v-10.885s-.04-.56.062-.81c.07-.17.356-.422.356-.422l4.442-1.313a2.68 2.68 0 0 0 .276-.092c.012-.004.02-.011.03-.015 1.198-.493.775-1.64-1.057-2.699l-5.243-3.02c.04-.003.085-.009.122-.015l.031.015 5.504-1.472c.04-.01.06-.017.092-.03.42-.174.277-.578-.368-.95l-4.983-2.883c-.649-.375-1.566-.585-2.13-.49h-.031l-5.504 1.456c-.04.01-.06.032-.092.046-.019.007-.03.022-.046.03l-1.518-.874c-1.48-.853-3.437-1.4-4.983-1.44z" style="marker:none" color="#000" fill="url(#p)" overflow="visible" enable-background="accumulate"/><path d="M81.039 245.178c.984.569 1.153 1.198.376 1.406-.776.208-2.204-.084-3.188-.652-.984-.569-1.153-1.198-.377-1.406.777-.208 2.204.084 3.189.652z" style="marker:none" color="#000" fill="url(#q)" overflow="visible" enable-background="accumulate"/><path style="marker:none" d="M77.387 246.123c.985.568 1.153 1.198.377 1.406-.776.208-2.204-.084-3.188-.653-.985-.568-1.153-1.197-.377-1.405.776-.208 2.204.084 3.188.652z" color="#000" fill="url(#r)" overflow="visible" enable-background="accumulate"/><path style="marker:none" d="M81.039 244.881c.984.569 1.153 1.198.376 1.406-.776.208-2.204-.084-3.188-.652-.984-.569-1.153-1.198-.377-1.406.777-.208 2.204.084 3.189.652z" color="#000" fill="url(#s)" overflow="visible" enable-background="accumulate"/><path d="M77.387 245.849c.985.568 1.153 1.198.377 1.406-.776.208-2.204-.084-3.188-.653-.985-.568-1.153-1.197-.377-1.406.776-.208 2.204.085 3.188.653z" style="marker:none" color="#000" fill="url(#t)" overflow="visible" enable-background="accumulate"/><path style="marker:none" d="M531.563 58.156c-7.178.166-14.711 2.224-21.407 8.032-10.902 13.836-17.306 22.393-15.844 42.406v21.125c0 2.94-2.567 6.946-.437 9.094 5.352 5.394 20.743 14.988 30.969 17.75 7.48 2.02 13.814-7.974 20.843-12.22.01-.005.023.007.032 0 7.812-.442 16.04-4.46 22.78-11.812.022-.02.042-.042.063-.062a44.262 44.262 0 0 0 2.5-2.594c7.918-8.93 11.723-20.416 11.188-30.844.266-2.438.402-4.87.344-7.281-.143-5.962-3.107-11.947-7-16.438a27.154 27.154 0 0 0-1.657-1.718c-7.127-4.124-12.001-5.287-19.31-9.526-6.46-2.391-11.854-4.983-16.033-5.537a45.76 45.76 0 0 0-7.032-.375z" transform="translate(-12.5 -10.285)" color="#000" fill="url(#u)" overflow="visible" enable-background="accumulate"/><path style="marker:none" d="M535.555 50.903c-9.966.47-20.474 4.46-28.844 11.719-10.902 13.836-17.306 22.424-15.843 42.437v21.125c0 2.355-1.66 5.405-1.22 7.625h.72c-.44-2.22 1.218-5.27 1.218-7.625V105.06c-1.463-20.013 4.942-28.601 15.844-42.437 8.37-7.26 18.878-11.25 28.844-11.72-.238.008-.48-.01-.719 0z" opacity=".504" color="#000" fill="url(#v)" overflow="visible" filter="url(#w)" enable-background="accumulate"/><path style="marker:none" d="M508.281 67.094c-3.443 3.8-6.467 7.984-8.937 12.469-1.912 2.854-1.295 3.353 1.312 4.843 6.951 3.974 14.007 8.01 21.844 9.875 1.254.324 2.254.115 3.094-.375a45.347 45.347 0 0 1 5.968-8.562c13.214-14.904 32.751-17.02 43.657-4.719 10.905 12.3 9.057 34.346-4.157 49.25-10.628 11.989-25.374 15.69-36.406 10.281-.145-.014-.33-.017-.468-.031-8.114 3.431-8.87 9.872-17.875 9.438-7.863-1.7-15.828-5.496-20.407-11.907-1.602-2.243-1.271-7.831-1.625-8.125-1.454-1.208-2.494 5.705-2.156 8.313.638 2.056 3.07 3.445 4.688 4.781 8.599 6.157 17.858 11.605 28.062 14.656 5.97 1.393 10.69-3.626 14.781-7.093 2.727-1.975 5.036-5.463 8.688-5.47 15.316-2.114 27.125-14.914 31.875-28.905 2.824-9.592 6.015-19.915 3.406-29.907-1.452-4.708-4.717-8.285-8.188-11.437-7.753-7.041-17.343-12.174-27.187-15.75-4.003-1.454-5.586-2.405-12.59-2.185-7.004.22-18.721 1.95-27.379 10.56z" transform="translate(-12.5 -10.285)" color="#000" fill="url(#x)" stroke="url(#y)" stroke-width=".384" overflow="visible" enable-background="accumulate"/><path transform="matrix(.4285 0 0 .41395 150.901 -142.039)" style="marker:none" d="M935.008 609.378c19.871-23.202 22.685-57.534 6.284-76.683-16.4-19.15-45.803-15.865-65.674 7.337-19.87 23.202-22.684 57.534-6.284 76.684 16.4 19.149 45.804 15.864 65.674-7.338z" color="#000" fill="url(#z)" overflow="visible" filter="url(#A)" enable-background="accumulate"/><path id="o" d="M935.008 609.378c19.871-23.202 22.685-57.534 6.284-76.683-16.4-19.15-45.803-15.865-65.674 7.337-19.87 23.202-22.684 57.534-6.284 76.684 16.4 19.149 45.804 15.864 65.674-7.338z" style="marker:none" transform="matrix(.38127 0 0 .36832 193.663 -115.815)" color="#000" fill="none" stroke="none" stroke-width=".886" visibility="visible" display="inline" overflow="visible" filter="url(#A)" enable-background="accumulate"/><path style="marker:none" d="M484.677 92.45a.812.812 0 0 0-.647.385c-1.34 2.23-1.77 4.446-3.11 6.673a.781.781 0 0 0-.11.293v.013c-.091.127-.09.384.042.73 1.34 3.522 1.77 3.841 3.11 7.365.14.37.387.742.646 1.01.156.161.322.286.468.346l15.466 8.666c.389.16.528-.192.303-.784-1.337-3.51-2.675-5.319-4.004-8.826a2.603 2.603 0 0 0-.055-.133.827.827 0 0 0 .123-.16c1.33-2.222 2.668-4.44 4.005-6.659a.777.777 0 0 0-.303-1.077l-15.466-7.736a.856.856 0 0 0-.468-.106z" color="#000" fill="url(#B)" overflow="visible" enable-background="accumulate"/><path style="marker:none" d="M817.614 585.23s-6.533 11.225-9.782 16.848c-.102.177-.23.349-.366.488.058.134.114.273.163.407 3.393 9.266 10.217 22.87 10.217 22.87l1.78-.488.139-38.982z" transform="matrix(.44032 0 0 .42536 140.21 -148.595)" color="#000" fill="url(#C)" overflow="visible" filter="url(#D)" enable-background="accumulate"/><path transform="matrix(.867 .48355 -.55783 .93336 392.266 -805.797)" d="M600.146 665.666c-2.623 2.623-1.9-3.568-5.4-2.343-3.502 1.225.924 5.614-2.762 5.199-3.686-.415 1.605-3.71-1.535-5.684-3.14-1.973-3.814 4.224-5.787 1.083-1.973-3.14 3.902-1.058 3.486-4.743-.415-3.686-5.68-.349-4.454-3.85 1.225-3.5 3.26 2.391 5.882-.231 2.623-2.623-3.268-4.658.232-5.883 3.501-1.225.164 4.04 3.85 4.455 3.685.415 1.603-5.46 4.743-3.487 3.14 1.973-3.056 2.646-1.083 5.787 1.974 3.14 5.269-2.15 5.684 1.535.415 3.686-3.974-.74-5.2 2.761-1.224 3.501 4.967 2.778 2.344 5.401z" style="marker:none" color="#000" fill="url(#E)" overflow="visible" enable-background="accumulate"/><text style="line-height:125%;-inkscape-font-specification:URW Palladio L Medium" transform="translate(1.774)" font-size="40" font-weight="500" letter-spacing="0" word-spacing="0" fill="url(#F)" font-family="URW Palladio L"><textPath xlink:href="#o" font-size="4">METRAS 7.7M</textPath></text><path transform="matrix(1.05257 0 0 1.0168 -34.078 7.357)" style="marker:none" d="M563.746 109.744c-13.011 15.192-32.264 17.343-43.002 4.804-10.739-12.538-8.896-35.018 4.115-50.21 13.01-15.192 32.263-17.343 43.001-4.804 10.739 12.538 8.897 35.018-4.114 50.21z" color="#000" fill="url(#G)" overflow="visible" filter="url(#H)" enable-background="accumulate"/><path d="M497.704 105.499l-3.156 5.437c-4.143 12.627-2.596 26.123 5.219 34.938a25.01 25.01 0 0 0 6.187 5.062 32.372 32.372 0 0 1-2.437-2.812c-1.06-.854-2.087-1.779-3.031-2.844-8.725-9.841-9.444-25.921-2.782-39.781z" style="text-indent:0;text-align:start;line-height:normal;text-transform:none;block-progression:tb;marker:none;-inkscape-font-specification:Sans" transform="matrix(.4096 -.75784 .70945 .43754 202.572 447.061)" font-weight="400" color="#000" fill="url(#I)" overflow="visible" enable-background="accumulate" font-family="Sans" filter="url(#J)"/><path style="marker:none" d="M555.438 67.875c-9.097 0-18.86 4.498-26.563 13.188-11.983 13.516-14.982 32.716-7.969 45.843-5.906-13.475-2.529-32.057 9.25-45.344 7.904-8.914 17.905-13.543 27.25-13.624a27.76 27.76 0 0 0-1.968-.063z" transform="translate(-12.5 -10.285)" color="#000" fill="#ececec" overflow="visible" enable-background="accumulate" filter="url(#K)"/><path style="marker:none" d="M519.546 49.384c-11.136.129-16.12 1.733-24.013 9.583a60.176 60.176 0 0 0-8.131 11.358c-1.743 2.603-1.208 3.049 1.17 4.408 6.337 3.623 12.802 7.313 19.947 9.013.328.085.645.129.936.141a46.082 46.082 0 0 1 6.873-10.284c7.877-8.885 17.968-13.268 27.201-12.856 2.132-1.299 4.036-1.12 2.566-2.322-6.242-4.679-18.517-8.865-26.55-9.041z" color="#000" fill="url(#L)" overflow="visible" enable-background="accumulate" filter="url(#M)"/></g></svg>