<svg version="1.1" viewBox="0 0 327.61 401.93" xmlns="http://www.w3.org/2000/svg" xmlns:xlink="http://www.w3.org/1999/xlink"><defs><linearGradient id="a"><stop offset="0"/><stop stop-opacity="0" offset="1"/></linearGradient><linearGradient id="e"><stop stop-color="#858585" offset="0"/><stop stop-color="#ececec" offset=".85741"/><stop stop-color="#d1d1d1" offset=".94114"/><stop stop-color="#e6e6e6" offset=".96548"/><stop stop-color="#b4b4b4" offset="1"/></linearGradient><linearGradient id="f"><stop stop-color="#fff" offset="0"/><stop stop-color="#fff" stop-opacity="0" offset="1"/></linearGradient><linearGradient id="b"><stop stop-color="#858585" offset="0"/><stop stop-color="#ececec" offset=".3234"/><stop stop-color="#d1d1d1" offset=".73515"/><stop stop-color="#e6e6e6" offset=".87846"/><stop stop-color="#b4b4b4" offset="1"/></linearGradient><filter id="ah" color-interpolation-filters="sRGB"><feGaussianBlur stdDeviation="1.2769531"/></filter><filter id="ag" color-interpolation-filters="sRGB"><feGaussianBlur stdDeviation="0.35615005"/></filter><filter id="af" color-interpolation-filters="sRGB"><feGaussianBlur stdDeviation="0.35615005"/></filter><linearGradient id="ae" x1="-776.97" x2="-719.61" y1="-121.89" y2="249.34" gradientUnits="userSpaceOnUse" xlink:href="#b"/><linearGradient id="ad" x1="-963.59" x2="-874.04" y1="-141.55" y2="346.57" gradientUnits="userSpaceOnUse" xlink:href="#e"/><linearGradient id="ac" x1="-1021.2" x2="-975.93" y1="-10.065" y2="-15.422" gradientUnits="userSpaceOnUse" xlink:href="#b"/><radialGradient id="i" cx="-1040.7" cy="-343.01" r="68.429" gradientTransform="matrix(1 0 0 1.6 0 205.8)" gradientUnits="userSpaceOnUse"><stop stop-color="#858585" offset="0"/><stop stop-color="#ececec" offset="0"/><stop stop-color="#d1d1d1" offset=".73515"/><stop stop-color="#e6e6e6" offset=".87846"/><stop stop-color="#b4b4b4" offset="1"/></radialGradient><radialGradient id="ai" cx="-1040.7" cy="-343.01" r="68.429" gradientTransform="matrix(1 0 0 1.6 0 205.8)" gradientUnits="userSpaceOnUse" xlink:href="#b"/><linearGradient id="ab" x1="-938.98" x2="-914.95" y1="84.7" y2="84.342" gradientUnits="userSpaceOnUse" xlink:href="#b"/><radialGradient id="h" cx="-982" cy="-67.196" r="5.5971" gradientTransform="matrix(1 0 0 1.8186 0 55.008)" gradientUnits="userSpaceOnUse" xlink:href="#f"/><radialGradient id="g" cx="-917.6" cy="28.013" r="5.5964" gradientTransform="matrix(1.2778 0 0 2.3246 254.92 -37.106)" gradientUnits="userSpaceOnUse" xlink:href="#f"/><linearGradient id="aa" x1="-963.59" x2="-874.04" y1="-141.55" y2="346.57" gradientTransform="translate(3.0305 3.0305)" gradientUnits="userSpaceOnUse" xlink:href="#e"/><linearGradient id="c" x1="-716.77" x2="-687.27" y1="46.257" y2="46.257" gradientUnits="userSpaceOnUse" xlink:href="#b"/><radialGradient id="d" cx="-700.07" cy="42.898" r="14.75" gradientTransform="matrix(.89559 .078509 -.089657 1.2673 -76.371 49.645)" gradientUnits="userSpaceOnUse"><stop stop-color="#858585" offset="0"/><stop stop-color="#ececec" offset="0"/><stop stop-color="#d1d1d1" offset=".73515"/><stop stop-color="#e6e6e6" offset=".87846"/><stop stop-color="#b4b4b4" offset="1"/></radialGradient><linearGradient id="z" x1="-712.02" x2="-688.27" y1="41.507" y2="22.007" gradientTransform="matrix(.99307 .11754 -.11754 .99307 980.49 211.58)" gradientUnits="userSpaceOnUse" xlink:href="#b"/><linearGradient id="y" x1="-744.82" x2="-738.18" y1="43.532" y2="43.532" gradientUnits="userSpaceOnUse" xlink:href="#a"/><linearGradient id="x" x1="-743.94" x2="-737.29" y1="51.123" y2="51.123" gradientUnits="userSpaceOnUse" xlink:href="#a"/><linearGradient id="w" x1="-736.99" x2="-730.35" y1="42.618" y2="42.618" gradientUnits="userSpaceOnUse" xlink:href="#a"/><linearGradient id="v" x1="-757.84" x2="-751.19" y1="68.133" y2="68.133" gradientUnits="userSpaceOnUse" xlink:href="#a"/><linearGradient id="u" x1="-760.49" x2="-753.85" y1="45.358" y2="45.358" gradientUnits="userSpaceOnUse" xlink:href="#a"/><linearGradient id="t" x1="-758.72" x2="-752.08" y1="60.541" y2="60.541" gradientUnits="userSpaceOnUse" xlink:href="#a"/><linearGradient id="s" x1="-759.61" x2="-752.96" y1="52.95" y2="52.95" gradientUnits="userSpaceOnUse" xlink:href="#a"/><linearGradient id="r" x1="-752.66" x2="-746.01" y1="44.445" y2="44.445" gradientUnits="userSpaceOnUse" xlink:href="#a"/><linearGradient id="q" x1="-750.89" x2="-744.24" y1="59.628" y2="59.628" gradientUnits="userSpaceOnUse" xlink:href="#a"/><linearGradient id="p" x1="-751.77" x2="-745.13" y1="52.036" y2="52.036" gradientUnits="userSpaceOnUse" xlink:href="#a"/><linearGradient id="o" x1="-776.16" x2="-769.52" y1="47.185" y2="47.185" gradientUnits="userSpaceOnUse" xlink:href="#a"/><linearGradient id="n" x1="-775.27" x2="-768.63" y1="54.776" y2="54.776" gradientUnits="userSpaceOnUse" xlink:href="#a"/><linearGradient id="m" x1="-768.32" x2="-761.68" y1="46.272" y2="46.272" gradientUnits="userSpaceOnUse" xlink:href="#a"/><linearGradient id="l" x1="-767.44" x2="-760.8" y1="53.863" y2="53.863" gradientUnits="userSpaceOnUse" xlink:href="#a"/><linearGradient id="k" x1="-766.55" x2="-759.91" y1="61.455" y2="61.455" gradientUnits="userSpaceOnUse" xlink:href="#a"/><linearGradient id="j" x1="-783.99" x2="-777.35" y1="48.098" y2="48.098" gradientUnits="userSpaceOnUse" xlink:href="#a"/></defs><g transform="translate(987.61 126.08)"><path d="m-982.34-121.94c38.571-3.2894 72.634-7.0901 120.86-0.62042 2.2001 0.29513 6.7988 2.4297 8.7669 3.4743 30.729 16.309 157.09 66.79 178.61 89.081 20.036 20.754 17.142 87.19 1.2332 125.62-5.7616 13.919-38.631 77.352-20.218 136.26 0.81406 2.6043-2.4424 3.9455-5.0817 4.9252-52.799 19.598-107.17 30.964-162.66 36.429-2.8017 0.27591-10.322-6.6161-11.143-9.2183 0 0-62.815-147.85-99.374-230.74-6.7666-15.341-4.2443-28.53-6.628-50.757-1.4052-13.103-3.8113-24.074-5.082-37.314-0.33354-3.4753-4.0782-8.6173-4.5082-13.269-0.29068-3.1446 1.6463-6.1889 1.3517-9.377-2.0703-22.41-1.2135-39.573-1.2135-39.573-0.82064-2.6022 2.2766-4.686 5.0817-4.9252z" color="#000000" fill="url(#ae)"/><g><g><path d="m-984.06-121.56c-2.1863 0.74639-4.0278 2.4925-3.375 4.5625 0 0-0.85157 17.153 1.2188 39.562 0.29452 3.1881-1.6344 6.2304-1.3438 9.375 0.42997 4.6514 4.1665 9.806 4.5 13.281 3.6034 28.192 2.0597 65.389 11.719 88.062 36.56 82.887 99.375 230.72 99.375 230.72 0.41426 1.3136 2.5151 3.724 4.875 5.75-14.403-56.274-9.4215-119.66-7.8125-146.84 2.4581-41.523 4.6605-123.06-15.375-143.81-14.387-14.903-57.551-64.523-93.781-100.66z" color="#000000" fill="url(#ad)"/><path d="m-979.84-122.16c-0.83551 0.0714-1.6631 0.14738-2.5 0.21875-0.0303 3e-3 -0.0634-3e-3 -0.0937 0 9e-3 0.0214 0.0306 0.0389 0.0312 0.0625 0 0 103.25 98.509 104.94 103.5 20.036 20.754 17.833 102.29 15.375 143.81-1.567 26.47-2.1129 91.519 11.125 146.75 0.86547-0.0965 1.7288-0.21303 2.5938-0.3125-13.892-55.829-12.466-119.56-10.875-146.44 2.4581-41.523 4.6605-123.06-15.375-143.81-1.6918-4.9911-104.94-103.5-104.94-103.5-3e-3 -0.11863-0.1135-0.21687-0.28125-0.28125z" color="#000000" fill="#808080" filter="url(#ag)" opacity=".87442"/><path d="m-869.12-123.5c32.89 17.282 163.42 69.495 185.75 92.625 20.896 21.645 17.874 90.916 1.2812 131-5.9021 14.258-39.082 78.352-22.062 138.84 0.86404-0.30991 1.7275-0.62918 2.5938-0.9375-16.418-60.216 16.441-123.72 22.312-137.91 16.592-40.084 19.615-109.35-1.2812-131-22.162-22.957-150.85-74.55-184.94-92.219-1.2195-0.13812-2.4513-0.27581-3.6562-0.40625z" color="#000000" fill="#808080" filter="url(#af)"/><rect transform="matrix(.99486 -.10126 .10126 .99486 0 0)" x="-691.03" y="-30.079" width="12.202" height="6.25" rx="1.6667" ry="1.6667" color="#000000" fill="#800000"/></g><path d="m-979.22-57.625c-0.81939 0.4253-1.849 0.63157-2.7812 0.59375l5.3125 71.188c1.0093 5.5987 2.2781 10.883 3.9688 15.625l-6.5-87.406z" color="#000000" fill="url(#ac)" style="block-progression:tb;text-indent:0;text-transform:none"/></g><g stroke-linecap="round" stroke-linejoin="round" stroke-width="3"><path d="m-782.98 48.367c-0.14846-1.2734 0.76352-2.4261 2.037-2.5746 1.2735-0.14847 2.4262 0.76358 2.5746 2.037 0.14847 1.2735-0.76351 2.4262-2.037 2.5747-1.2735 0.14847-2.4262-0.76358-2.5746-2.0371z" color="#000000" stroke="url(#j)"/><path d="m-765.54 61.723c-0.14847-1.2735 0.76352-2.4262 2.037-2.5746 1.2735-0.14847 2.4262 0.76352 2.5746 2.037 0.14847 1.2735-0.76352 2.4262-2.037 2.5746-1.2735 0.14847-2.4262-0.76352-2.5746-2.037z" color="#000000" stroke="url(#k)"/><path d="m-766.42 54.132c-0.14847-1.2735 0.76352-2.4262 2.037-2.5746 1.2735-0.14847 2.4262 0.76352 2.5746 2.037 0.14847 1.2735-0.76352 2.4262-2.037 2.5746-1.2735 0.14847-2.4262-0.76352-2.5746-2.037z" color="#000000" stroke="url(#l)"/><path d="m-767.31 46.54c-0.14847-1.2735 0.76352-2.4262 2.037-2.5746 1.2735-0.14847 2.4262 0.76352 2.5746 2.037 0.14847 1.2735-0.76352 2.4262-2.037 2.5746-1.2735 0.14847-2.4262-0.76352-2.5746-2.037z" color="#000000" stroke="url(#m)"/><path d="m-774.26 55.045c-0.14847-1.2735 0.76352-2.4262 2.037-2.5746 1.2735-0.14847 2.4262 0.76352 2.5746 2.037 0.14847 1.2735-0.76352 2.4262-2.037 2.5746-1.2735 0.14847-2.4262-0.76352-2.5746-2.037z" color="#000000" stroke="url(#n)"/><path d="m-775.14 47.454c-0.14847-1.2735 0.76352-2.4262 2.037-2.5746 1.2735-0.14847 2.4262 0.76352 2.5746 2.037 0.14847 1.2735-0.76352 2.4262-2.037 2.5746-1.2735 0.14847-2.4262-0.76352-2.5746-2.037z" color="#000000" stroke="url(#o)"/><path d="m-750.76 52.305c-0.14847-1.2735 0.76352-2.4262 2.037-2.5746 1.2735-0.14847 2.4262 0.76352 2.5746 2.037 0.14847 1.2735-0.76352 2.4262-2.037 2.5746-1.2735 0.14847-2.4262-0.76352-2.5746-2.037z" color="#000000" stroke="url(#p)"/><path d="m-749.87 59.897c-0.14847-1.2735 0.76352-2.4262 2.037-2.5746 1.2735-0.14847 2.4262 0.76352 2.5746 2.037 0.14847 1.2735-0.76352 2.4262-2.037 2.5746-1.2735 0.14847-2.4262-0.76352-2.5746-2.037z" color="#000000" stroke="url(#q)"/><path d="m-751.64 44.714c-0.14847-1.2735 0.76352-2.4262 2.037-2.5746 1.2735-0.14847 2.4262 0.76352 2.5746 2.037 0.14847 1.2735-0.76352 2.4262-2.037 2.5746-1.2735 0.14847-2.4262-0.76352-2.5746-2.037z" color="#000000" stroke="url(#r)"/><path d="m-758.59 53.219c-0.14847-1.2735 0.76352-2.4262 2.037-2.5746 1.2735-0.14847 2.4262 0.76352 2.5746 2.037 0.14847 1.2735-0.76352 2.4262-2.037 2.5746-1.2735 0.14847-2.4262-0.76352-2.5746-2.037z" color="#000000" stroke="url(#s)"/><path d="m-757.7 60.81c-0.14847-1.2735 0.76352-2.4262 2.037-2.5746 1.2735-0.14847 2.4262 0.76352 2.5746 2.037 0.14847 1.2735-0.76352 2.4262-2.037 2.5746-1.2735 0.14847-2.4262-0.76352-2.5746-2.037z" color="#000000" stroke="url(#t)"/><path d="m-759.48 45.627c-0.14847-1.2735 0.76352-2.4262 2.037-2.5746 1.2735-0.14847 2.4262 0.76352 2.5746 2.037 0.14846 1.2735-0.76352 2.4262-2.037 2.5746-1.2735 0.14847-2.4262-0.76352-2.5746-2.037z" color="#000000" stroke="url(#u)"/><path d="m-756.82 68.402c-0.14847-1.2735 0.76352-2.4262 2.037-2.5746 1.2735-0.14847 2.4262 0.76352 2.5746 2.037 0.14847 1.2735-0.76352 2.4262-2.037 2.5746-1.2735 0.14847-2.4262-0.76352-2.5746-2.037z" color="#000000" stroke="url(#v)"/><path d="m-735.97 42.887c-0.14846-1.2734 0.76352-2.4261 2.037-2.5746 1.2735-0.14847 2.4262 0.76358 2.5746 2.037 0.14847 1.2735-0.76352 2.4262-2.037 2.5747-1.2735 0.14847-2.4262-0.76358-2.5746-2.0371z" color="#000000" stroke="url(#w)"/><path d="m-742.92 51.392c-0.14847-1.2735 0.76351-2.4262 2.037-2.5746 1.2735-0.14847 2.4262 0.76352 2.5746 2.037 0.14847 1.2735-0.76352 2.4262-2.037 2.5746-1.2735 0.14847-2.4262-0.76352-2.5746-2.037z" color="#000000" stroke="url(#x)"/><path d="m-743.81 43.8c-0.14847-1.2735 0.76352-2.4262 2.037-2.5746 1.2735-0.14847 2.4262 0.76352 2.5746 2.037 0.14847 1.2735-0.76352 2.4262-2.037 2.5746-1.2735 0.14847-2.4262-0.76352-2.5746-2.037z" color="#000000" stroke="url(#y)"/></g><g><g transform="matrix(.80272 -.21341 .077263 .27704 79.834 45.196)"><path transform="translate(4.6391 3.5736)" d="m-974.29-343.01a66.429 107.48 0 0 1-66.429 107.48 66.429 107.48 0 0 1-66.429-107.48 66.429 107.48 0 0 1 66.429-107.48 66.429 107.48 0 0 1 66.429 107.48z" color="#000000" fill="url(#i)"/><path d="m-1010-434.59-57.171 89.6-0.543 7.4033h45.938l-39.843 94.247 50.459-94.247-0.2136-7.4033h-46.829z" fill="#800000" fill-rule="evenodd" stroke="#800000" stroke-width=".97624"/><g transform="matrix(1.0346 .34025 -.086328 1.9813 -249.97 -165.64)"><path d="m-778.12 129.44h3.7891v16.543c-2e-5 2.8776-0.32554 5.1628-0.97656 6.8555-0.65107 1.6927-1.8294 3.0729-3.5352 4.1406-1.6927 1.0547-3.9193 1.582-6.6797 1.582-2.6823 0-4.8763-0.46224-6.582-1.3867-1.7057-0.92448-2.9232-2.2591-3.6524-4.0039-0.72917-1.7578-1.0938-4.1536-1.0938-7.1875v-16.543h3.7891v16.523c0 2.487 0.22786 4.3229 0.6836 5.5078 0.46874 1.1719 1.263 2.0768 2.3828 2.7148 1.1328 0.63802 2.513 0.95703 4.1406 0.95703 2.7864 0 4.7721-0.63151 5.957-1.8945 1.1849-1.263 1.7773-3.6914 1.7773-7.2852v-16.523"/><path d="m-768.01 158.08v-28.633h10.801c1.901 3e-5 3.3528 0.0912 4.3555 0.27344 1.4062 0.23441 2.5846 0.68362 3.5352 1.3477 0.9505 0.65107 1.7122 1.569 2.2852 2.7539 0.58591 1.1849 0.87888 2.487 0.87891 3.9062-3e-5 2.4349-0.77477 4.4987-2.3242 6.1914-1.5495 1.6797-4.349 2.5195-8.3984 2.5195h-7.3438v11.641h-3.7891m3.7891-15.02h7.4023c2.4479 1e-5 4.1862-0.45572 5.2148-1.3672 1.0286-0.91144 1.543-2.194 1.543-3.8477-2e-5 -1.1979-0.30601-2.22-0.91797-3.0664-0.59898-0.85936-1.3932-1.4258-2.3828-1.6992-0.63804-0.16925-1.8164-0.25388-3.5352-0.25391h-7.3242v10.234"/><path d="m-742.58 148.88 3.5742-0.3125c0.16927 1.4323 0.55989 2.6107 1.1719 3.5352 0.62499 0.91147 1.5885 1.6536 2.8906 2.2266 1.3021 0.5599 2.7669 0.83984 4.3945 0.83984 1.4453 0 2.7213-0.21484 3.8281-0.64453 1.1068-0.42968 1.9271-1.0156 2.4609-1.7578 0.54685-0.75521 0.82029-1.5755 0.82031-2.4609-2e-5 -0.89843-0.26044-1.6797-0.78125-2.3438-0.52085-0.67707-1.3802-1.2435-2.5781-1.6992-0.76825-0.29947-2.4675-0.76171-5.0977-1.3867-2.6302-0.638-4.4727-1.237-5.5273-1.7969-1.3672-0.71613-2.3893-1.6016-3.0664-2.6562-0.66407-1.0677-0.9961-2.2591-0.99609-3.5742-1e-5 -1.4453 0.41015-2.793 1.2305-4.043 0.82031-1.263 2.0182-2.22 3.5938-2.8711 1.5755-0.65102 3.3268-0.97654 5.2539-0.97657 2.1224 3e-5 3.9909 0.34508 5.6055 1.0352 1.6276 0.67711 2.8776 1.6797 3.75 3.0078 0.87237 1.3282 1.3411 2.8321 1.4062 4.5117l-3.6328 0.27344c-0.19534-1.8099-0.8594-3.1771-1.9922-4.1016-1.1198-0.92446-2.78-1.3867-4.9805-1.3867-2.2917 2e-5 -3.9648 0.4232-5.0195 1.2695-1.0417 0.83336-1.5625 1.8425-1.5625 3.0273-1e-5 1.0287 0.37109 1.875 1.1133 2.5391 0.72916 0.66409 2.6302 1.3477 5.7031 2.0508 3.0859 0.69012 5.2018 1.2956 6.3476 1.8164 1.6666 0.76825 2.8971 1.7448 3.6914 2.9297 0.79424 1.1719 1.1914 2.526 1.1914 4.0625-2e-5 1.5234-0.43622 2.9622-1.3086 4.3164-0.87242 1.3411-2.1289 2.3893-3.7695 3.1445-1.6276 0.74218-3.4636 1.1133-5.5078 1.1133-2.5912 0-4.7656-0.37761-6.5234-1.1328-1.7448-0.75521-3.1185-1.888-4.1211-3.3984-0.98959-1.5234-1.5104-3.2422-1.5625-5.1562"/></g></g><g><path d="m-914.22 40.312c-1.2088 0.57923-2.7292 0.84179-4 0.65625l2.9062 121.56c1.3992 3.2605 2.8201 6.5919 4.1875 9.7812l-3.0938-132z" color="#000000" fill="url(#ab)"/><path d="m-982.66-77.375c-1.6884 0-2.8416 0.66752-3.625 1.8125-1e-3 0.01022 1e-3 0.02104 0 0.03125-0.3346 2.5101-1.5136 4.9547-1.2812 7.4688 0.32584 3.5249 2.5464 7.347 3.75 10.5 1.2083 0.92512 4.0128 0.63173 5.3438-0.5625 2.1913-1.9662 2.3212-5.0829 1.8438-8.625-0.49282-3.6561-6.0312-10.625-6.0312-10.625z" color="#000000" fill="url(#h)" opacity=".46977"/><path d="m-918.44 15.003c-2.1575 0-3.631 0.85297-4.6321 2.316-1e-3 0.01306 1e-3 0.02689 0 0.03993-0.42756 3.2074-1.9342 6.3312-1.6372 9.5437 0.41636 4.5041 3.2538 9.3881 4.7918 13.417 1.544 1.1821 5.1179 0.82122 6.8186-0.70478 2.8-2.5124 2.9758-6.509 2.3657-11.035-0.62973-4.6718-7.7068-13.577-7.7068-13.577z" color="#000000" fill="url(#g)" opacity=".55814"/><path d="m-981.04-118.53c-0.97167 0.33173-1.8532 0.86389-2.5 1.5312 35.911 35.992 78.063 84.429 92.25 99.125 20.036 20.754 17.833 102.29 15.375 143.81-1.5294 25.835-6.0782 84.377 5.8438 138.44 0.0911 0.21436 1.125 2.6562 1.125 2.6562 0.41426 1.3136 2.5151 3.724 4.875 5.75-14.403-56.274-9.4215-119.66-7.8125-146.84 2.4581-41.523 4.6605-123.06-15.375-143.81-14.387-14.903-57.551-64.523-93.781-100.66z" color="#000000" fill="url(#aa)" filter="url(#ah)"/></g></g><g><path d="m-918.02-57.398-4.1417 0.96933-0.52878 53.55h2.6032v-51.842l2.5757-2.1151z" color="#000000" style="block-progression:tb;text-indent:0;text-transform:none"/><path d="m-924.04-63.711-4.1417 0.96933-0.52879 51.55h2.6032v-49.842l2.5757-2.1151z" color="#000000" style="block-progression:tb;text-indent:0;text-transform:none"/><path d="m-930.06-70.025-4.1417 0.96933-0.52878 49.55h2.6032v-47.842l2.5757-2.1151z" color="#000000" style="block-progression:tb;text-indent:0;text-transform:none"/><path d="m-936.63-76.338-3.606 0.96933-0.52879 47.55h2.6032v-45.842l2.04-2.1151z" color="#000000" style="block-progression:tb;text-indent:0;text-transform:none"/><path d="m-942.83-82.652-3.4274 0.96933-0.52878 45.55h2.6032v-43.842l1.8614-2.1151z" color="#000000" style="block-progression:tb;text-indent:0;text-transform:none"/><path d="m-949.57-88.965-2.7131 0.96933-0.52879 43.55h2.6032v-41.842l1.1471-2.1151z" color="#000000" style="block-progression:tb;text-indent:0;text-transform:none"/><path d="m-955.95-95.278-2.356 0.96933-0.52878 41.55h2.6032v-39.842l0.78999-2.1151z" color="#000000" style="block-progression:tb;text-indent:0;text-transform:none"/></g><g><path d="m-953.67 68.569v5c0.82009 1.8941 1.5821 3.6884 2.4062 5.5938l0.15625-4.75c-0.84945-1.9583-1.721-3.9062-2.5625-5.8438z" color="#000000" style="block-progression:tb;text-indent:0;text-transform:none"/><path d="m-947.64 80.444v7.0938c0.76967 1.7818 1.5418 3.5581 2.3125 5.3438l0.15625-6.7812c-0.83457-1.929-1.6387-3.7396-2.4688-5.6562z" color="#000000" style="block-progression:tb;text-indent:0;text-transform:none"/><path d="m-941.61 92.381v9.125c0.74815 1.7355 1.5032 3.4539 2.25 5.1875l0.15625-8.7812c-0.79844-1.8496-1.6092-3.6865-2.4062-5.5313z" color="#000000" style="block-progression:tb;text-indent:0;text-transform:none"/><path d="m-935.58 104.38v11.125c0.71137 1.6531 1.4482 3.3224 2.1562 4.9688l0.15625-10.719c-0.77354-1.7953-1.5378-3.5784-2.3125-5.375z" color="#000000" style="block-progression:tb;text-indent:0;text-transform:none"/><path d="m-929.58 116.32v13.125c0.69318 1.6134 1.3434 3.1483 2.0312 4.75l0.0625-0.0312 0.15625-12.594c-0.74796-1.7389-1.4986-3.5042-2.25-5.25z" color="#000000" style="block-progression:tb;text-indent:0;text-transform:none"/><path d="m-924 129.49v13.125c0.69318 1.6134 1.3434 3.1483 2.0312 4.75l0.0625-0.0312 0.15625-12.594c-0.74796-1.7389-1.4986-3.5042-2.25-5.25z" color="#000000" style="block-progression:tb;text-indent:0;text-transform:none"/><path d="m-918.19 142.76v13.125c0.69318 1.6134 1.3434 3.1483 2.0312 4.75l0.0625-0.0312 0.15625-12.594c-0.74796-1.7389-1.4986-3.5042-2.25-5.25z" color="#000000" style="block-progression:tb;text-indent:0;text-transform:none"/></g><rect transform="matrix(.99486 -.10126 .10126 .99486 0 0)" x="-690" y="-40.161" width="12.202" height="6.25" rx="1.6667" ry="1.6667" color="#000000" fill="#008000"/><g transform="matrix(.9259 .131 -.11833 1.1056 -57.586 85.47)" stroke="url(#c)"><g transform="matrix(.98332 -.002702 -.0029146 .96086 -10.876 5.7412)" stroke="url(#c)"><path d="m-687.62 40.953c0 10.355-4.3986 18.85-14.75 18.75-10.718-0.10326-15.689-8.6619-14.75-18.75 0.96328-10.345 4.3947-18.75 14.75-18.75s14.75 8.3947 14.75 18.75z" color="#000000" stroke="url(#c)" stroke-width="2"/></g></g><path transform="translate(-987.61 -126.08)" d="m278.41 153.69c-1.8275-0.23964-3.7302-0.15777-5.5227 0.2714-6.2106 1.487-9.0288 8.2869-9.6023 13.885-0.87489 8.5396-3.0202 19.683 10.049 23.712-3.5428-3.6122-6.5901-10.822-6.1115-17.587 0.73035-10.323 5.2571-18.344 14.531-17.531 3.8076 0.33378 8.4062 4.8125 8.4062 4.8125s-6.2782-6.845-11.75-7.5625z" color="#000000" fill="url(#z)"/><path d="m-693.98 50.204c-0.73037 10.323-5.2583 18.347-14.532 17.534-9.2741-0.81299-12.618-9.5268-11.888-19.85 0.73035-10.323 5.2582-18.347 14.532-17.534 9.2741 0.81299 12.618 9.5268 11.888 19.85z" color="#000000" fill="url(#d)"/><g transform="matrix(.84035 .12591 -.1074 1.0627 -118.14 85.049)" fill="#800000" stroke="#000" stroke-linecap="round" stroke-linejoin="round"><g transform="matrix(.98332 -.002702 -.0029146 .96086 -10.876 5.7412)" fill="#800000" stroke="#000" stroke-linecap="round" stroke-linejoin="round"><path transform="matrix(1.1917 -.14119 .13061 1.022 -1052.2 -95.62)" d="m275.22 152.44c-3.7047-0.0301-6.5661 1.7172-8.6562 4.5312-2.3888 3.2161-3.8213 7.7389-4.7812 12.75-0.95547 4.9875-0.64146 9.8277 1.1562 13.656s5.1069 6.5868 9.75 7.2812c4.5001 0.67307 8.1238-1.0938 10.625-4.3125s3.938-7.8104 4.5-12.938c0.56194-5.1269 0.17022-9.959-1.5625-13.75s-4.8716-6.4716-9.375-7.0938c-0.56296-0.0778-1.127-0.1207-1.6562-0.125zm-0.0312 1.9375c0.46631 8e-3 0.9617 0.0549 1.4688 0.125 4.0566 0.56043 6.587 2.7659 8.0938 6.0625s1.9383 7.7708 1.4062 12.625c-0.53203 4.8541-1.9182 9.0754-4.0938 11.875s-5.11 4.2614-9.1562 3.6562c-4.2061-0.6291-6.9435-2.9663-8.5-6.2812s-1.8868-7.7149-1-12.344c0.92923-4.8505 2.3205-9.0981 4.4062-11.906 1.825-2.4571 4.1108-3.8715 7.375-3.8125z" color="#000000" fill="#000" stroke="none" style="block-progression:tb;text-indent:0;text-transform:none"/></g></g><path d="m-693.98 50.204c-0.73037 10.323-5.2583 18.347-14.532 17.534-9.2741-0.81299-12.618-9.5268-11.888-19.85 0.73035-10.323 5.2582-18.347 14.532-17.534 9.2741 0.81299 12.618 9.5268 11.888 19.85z" color="#000000" fill="url(#d)"/></g></svg>
