<svg version="1.1" viewBox="0 0 512 340" xmlns="http://www.w3.org/2000/svg" xmlns:xlink="http://www.w3.org/1999/xlink"><defs><linearGradient id="b"><stop stop-color="#53d900" offset="0"/><stop stop-color="#2c5000" offset="1"/></linearGradient><linearGradient id="a"><stop stop-color="#fff" offset="0"/><stop offset="1"/></linearGradient><filter id="x" color-interpolation-filters="sRGB"><feGaussianBlur stdDeviation="1.9320534"/></filter><linearGradient id="w" x1="334.83" x2="658.63" y1="199.5" y2="473.18" gradientTransform="translate(4.4103 -11.911)" gradientUnits="userSpaceOnUse" xlink:href="#b"/><linearGradient id="v" x1="80.266" x2="687.57" y1="701.4" y2="330.15" gradientTransform="translate(4.4103 -11.911)" gradientUnits="userSpaceOnUse" xlink:href="#a"/><linearGradient id="u" x1="932.03" x2="538.74" y1="268.11" y2="424.21" gradientTransform="translate(4.4103 -11.911)" gradientUnits="userSpaceOnUse" xlink:href="#a" spreadMethod="reflect"/><linearGradient id="t" x1="434.59" x2="527.64" y1="370.07" y2="399.53" gradientTransform="translate(4.4103 -11.911)" gradientUnits="userSpaceOnUse" xlink:href="#a"/><linearGradient id="s" x1="416.89" x2="507.57" y1="313.65" y2="590.57" gradientTransform="translate(4.4103 -11.911)" gradientUnits="userSpaceOnUse" xlink:href="#a" spreadMethod="reflect"/><linearGradient id="r" x1="402.17" x2="406.36" y1="365.79" y2="390.87" gradientTransform="translate(4.4103 -11.911)" gradientUnits="userSpaceOnUse" xlink:href="#a"/><linearGradient id="q" x1="315.89" x2="291.72" y1="346.72" y2="377.25" gradientTransform="translate(4.4103 -11.911)" gradientUnits="userSpaceOnUse" xlink:href="#a"/><linearGradient id="p" x1="307.36" x2="326.72" y1="348.96" y2="372.84" gradientTransform="translate(4.4103 -11.911)" gradientUnits="userSpaceOnUse" xlink:href="#a"/><linearGradient id="o" x1="405.75" x2="378.19" y1="367.97" y2="395.74" gradientTransform="translate(4.4103 -11.911)" gradientUnits="userSpaceOnUse" xlink:href="#a"/><linearGradient id="n" x1="207.37" x2="243.91" y1="597.19" y2="367.23" gradientTransform="translate(4.4103 -11.911)" gradientUnits="userSpaceOnUse" xlink:href="#a"/><linearGradient id="m" x1="458" x2="538.97" y1="400.65" y2="429.75" gradientTransform="translate(4.4103 -11.911)" gradientUnits="userSpaceOnUse" xlink:href="#b"/><linearGradient id="l" x1="491.74" x2="405.92" y1="269.46" y2="572.64" gradientTransform="translate(4.4103 -11.911)" gradientUnits="userSpaceOnUse" xlink:href="#b"/><linearGradient id="k" x1="437.97" x2="446.55" y1="263" y2="440.97" gradientTransform="translate(4.4103 -11.911)" gradientUnits="userSpaceOnUse" xlink:href="#b"/><linearGradient id="j" x1="534.06" x2="651.29" y1="290.03" y2="364.4" gradientTransform="translate(4.4103 -11.911)" gradientUnits="userSpaceOnUse" xlink:href="#b"/><linearGradient id="i" x1="388.93" x2="129.45" y1="388.83" y2="-60.607" gradientTransform="translate(4.4103 -11.911)" gradientUnits="userSpaceOnUse" xlink:href="#b" spreadMethod="reflect"/><radialGradient id="c" cx="411.19" cy="333.44" r="238.77" gradientTransform="matrix(1.6294 0 0 .9458 -278.92 19.457)" gradientUnits="userSpaceOnUse"><stop stop-color="#1a1a1a" offset="0"/><stop stop-color="#1a1a1a" stop-opacity="0" offset="1"/></radialGradient><linearGradient id="h" x1="382.56" x2="430.4" y1="425.54" y2="444.44" gradientUnits="userSpaceOnUse" xlink:href="#a"/><linearGradient id="g" x1="383.31" x2="413.39" y1="462.19" y2="465.63" gradientUnits="userSpaceOnUse" xlink:href="#a"/><linearGradient id="f" x1="351.5" x2="329.06" y1="384.18" y2="500.14" gradientTransform="translate(-203.93 -195.2)" gradientUnits="userSpaceOnUse" xlink:href="#a"/><linearGradient id="e" x1="402.15" x2="363.98" y1="333.78" y2="507.68" gradientTransform="translate(4.4103 -11.911)" gradientUnits="userSpaceOnUse" xlink:href="#a"/><linearGradient id="d" x1="246.56" x2="291.9" y1="539.63" y2="427.51" gradientTransform="translate(4.4103 -11.911)" gradientUnits="userSpaceOnUse" xlink:href="#a"/></defs><g transform="translate(-203.93 -195.2)"><g><path d="m566 234.81-3.3438 0.9375-225.72 88.625 1.0938 21.188-4.5312 1.9375-0.28125 0.125-22.562 52.281 0.28125 4.4375-93.031 52.625 0.9375 3.2812 185.94 58.406 2.3125-0.28125 2.2188 0.0625 99.312-82.562 26.375 6.125 8.4688-0.96875 163.41-161.66-49.375-31.344-3.75-1.6562-87.75-11.562z" fill="url(#c)" filter="url(#x)"/><path d="m338.25 298.33 224.99-91.223-3.3218 0.96201-226.09 91.424z" fill="#305a00"/><path d="m538.47 333.87 160.38-114.84-135.61-11.915-224.99 91.223z" fill="url(#i)"/><path d="m698.85 219.03-160.38 114.84 6.0418 3.3519 158.09-116.49z" fill="url(#j)"/><path d="m338.41 374.5-3.568-72.766-1.0133-2.2408 3.5677 72.159z" fill="#305a00"/><path d="m333.82 299.5 1.0133 2.2408 3.4089-3.4033z" fill="#326400"/><path d="m535.71 338.04-200.88-36.3 3.568 72.766 193.8 46.302z" fill="url(#k)"/><path d="m538.47 333.87-200.22-35.532-3.4089 3.4033 200.88 36.3z" fill="url(#l)"/><path d="m535.71 338.04-3.5108 82.768 8.4734-1.0097 3.835-82.578z" fill="url(#m)"/><path d="m544.51 337.22-6.0418-3.3519-2.7558 4.171z" fill="#51d300"/></g><path d="m348.98 316.07-1.1519-0.0254 168.55 32.073 0.88004-0.0524z" fill="#161616"/><g><path d="m347.82 316.03-1.4688 0.25-138 61.125 0.28125 4.5625 5.9688 54.281 0.96875 3.375 186.22 60.25 2.3125-0.28125 2.2188 0.0625 110.06-94.219 1.9375-56.344-1.0625-1.0312-168.28-32-1.1562-0.0312z" fill="url(#n)"/><path d="m280.06 381.45-64.617 32.523 2.2077 22.496 189.17 60.136-0.52721-23.165 54.798-43.034z"/><path d="m217.79 415.21 181.01 54.498 51.959-40.817-171.68-44.517z" fill="url(#d)"/><path d="m399.28 491.67-0.47873-21.97-181.01-54.498 2.0886 19.442z" fill="url(#e)"/></g><path d="m247.05 413.12 12.175 3.5499 74.402-39.968-11.498-2.7781z" fill="#a05a2c"/><path d="m333.78 379.63-0.15052-2.9329-74.402 39.968 0.28488 3.2463z" fill="#9c8664"/><path d="m296.72 416.95 12.859 3.6351 59.876-35.232-12.172-2.9409z" fill="#a05a2c"/><path d="m369.56 388.36-0.10431-3.0057-59.876 35.232 0.20953 3.2804z" fill="#907a57"/><path d="m259.51 419.91-0.28488-3.2463-12.175-3.5499 0.30053 3.2177z" fill="#d38d5f"/><path d="m336.15 428.1 13.725 3.8798 57.557-37.447-12.907-3.1185z" fill="#a05a2c"/><path d="m407.48 397.61-0.0522-3.0821-57.557 37.447 0.1513 3.371z" fill="#856e4b"/><path d="m309.79 423.87-0.20953-3.2804-12.859-3.6351 0.22723 3.2512z" fill="#d38d5f"/><path d="m366.78 448.03 14.864 4.3341 66.089-48.093-13.71-3.3126z" fill="#a05a2c"/><path d="m447.73 407.43 7e-3 -3.1624-66.089 48.093 0.10556 3.5274z" fill="#7a6340"/><path d="m350.02 435.35-0.1513-3.371-13.725-3.8798 0.1716 3.3402z" fill="#d38d5f"/><path d="m381.75 455.89-0.10556-3.5274-14.864-4.3341 0.12946 3.4939z" fill="#d38d5f"/><path d="m208.34 377.39 1.6036-0.18634 137.89-61.163-1.4903 0.2387z" fill="#808080"/><path transform="translate(203.93 195.2)" d="m6 182-1.0312 1.5938-0.28125 3.1562 0.75 0.9375 1.5312-1.5625 187.06 50.969 2.4062-1.6875 2.3438-1.5625-192.78-51.844z" fill="url(#f)"/><path d="m401.68 495.47-2.305 1.438-182.27-58.668-1.9441-2.4934-5.8004-52.851-0.73128-0.92731 5.974 54.287 0.97395 3.3674 186.21 60.248 0.7803-3.3144-1.2507-61.869-0.95862-4.0661-2.3879 1.6865 2.4712 2.9925z" fill="#4d4d4d"/><path d="m401.31 434.68 3.7295-4.2712-2.3261-1.353-2.3621 1.5581z" fill="url(#h)"/><path d="m316.15 344.1 0.13684 2.335 2.9598-0.26303-0.13351-2.3333z" fill="#333"/><path d="m319.12 343.84 33.077 7.1961 2.9845-0.86524-36.417-7.8787z" fill="#898989"/><path d="m319.12 343.84 0.13351 2.3333 33.044 7.2513-0.10061-2.3886z" fill="#333"/><path d="m352.75 354.46-0.10049-2.3962-0.45483-1.032 0.10061 2.3886z" fill="#202020"/><path d="m352.65 352.07 1.7172-0.21378 0.81247-1.6834-2.9845 0.86524z" fill="#525252"/><path d="m352.65 352.07-18.32 9.371 0.37259 0.49738 19.664-10.082z" fill="#2d2d2d"/><path d="m334.7 361.93-0.37259-0.49738-3.1721-0.31601z" fill="#242424"/><path d="m389.06 373.98 0.0649 2.5576 17.28-10.258-0.0428-2.4852z" fill="#333"/><path d="m404.46 362.76-18.646 10.898 3.2437 0.31418 17.302-10.186z" fill="url(#o)"/><path d="m389.68 374.55-0.62305-0.57309-3.2437-0.31418z" fill="#262626"/><path d="m318.76 342.29-4.2792 0.87433 1.6714 0.93481 2.9631-0.26129z" fill="url(#p)"/><path d="m297.23 352.94 0.16214 2.399 18.899-8.9014-0.13684-2.335z" fill="#333"/><path d="m314.48 343.17-20.373 9.4557 3.1203 0.31646 18.924-8.8374z" fill="url(#q)"/><path d="m297.44 353.39-0.21411-0.44864-3.1203-0.31646z" fill="#222"/><path d="m209.94 377.2-1.6036 0.18634 0.28787 4.5732 0.27225-3.1696z" fill="#666"/><path d="m517.26 348.06-0.88004 0.0524 1.9344 0.96238z" fill="#313131"/><path d="m457.43 390.1-54.714 38.963 2.3261 1.353 113.28-81.335-1.9344-0.96238-58.953 41.981z" fill="#808080"/><path d="m406.36 363.79 3.0983-0.29901-0.70016-1.7314-4.298 1.0036z" fill="url(#r)"/><path d="m406.36 363.79 0.0428 2.4852 3.0947-0.30099-0.0391-2.4832z" fill="#333"/><path d="m409.46 363.49 38.235 8.3182 3.1482-0.94498-42.084-9.1047z" fill="#949494"/><path d="m409.46 363.49 0.0391 2.4832 38.191 8.3808 5e-3 -2.5458z" fill="#333"/><path d="m448.55 375.56 6e-3 -2.5544-0.86712-1.1931-5e-3 2.5458z" fill="#3f3f3f"/><path d="m448.56 373 2.0207-0.19265 0.26032-1.9454-3.1482 0.94498z" fill="#616161"/><path d="m448.56 373-16.394 10.851 0.83439 0.63592 17.581-11.679z" fill="#3d3d3d"/><path d="m433 384.49-0.83439-0.63592-3.296-0.3118z" fill="#272727"/><path d="m516.37 405.42 1.9496-56.341-113.28 81.335 1.2727 69.225z" fill="url(#s)"/><path d="m404.09 499.6 2.2241 0.0392-3.7515-3.0846-0.7803 3.3144z" fill="#1a1a1a"/><g><path d="m401.31 434.68 1.2507 61.869 3.7515 3.0846-1.2727-69.225z" fill="url(#g)"/><path d="m518.32 349.09-20.688 14.844 0.53125 45.906c1.0462 2.7186 3.5562 4.2582 8.9062 3.5625l9.3125-7.9688 1.9375-56.344z" fill="url(#t)"/><path d="m347.82 316.03-72.656 32.25-65.623 29.342 192.78 51.844 55.123-39.373 58.938-41.969zm-29.062 26.25 36.438 7.9062-0.8125 1.6562-19.688 10.094-40.594-9.3125 20.375-9.4688zm90 19.5 42.094 9.0938-0.28125 1.9375-17.562 11.688-47.188-10.844 18.656-10.875z" fill="url(#u)"/><path d="m347.82 316.03-17.717 7.4446 168.13 37.572 18.155-12.929z" fill="url(#v)"/><path d="m702.6 220.73-158.09 116.49-3.835 82.578 156.21-148.45z" fill="url(#w)"/></g></g></svg>
