<svg xmlns="http://www.w3.org/2000/svg" xmlns:xlink="http://www.w3.org/1999/xlink" width="428.662" height="471.811"><defs><linearGradient id="d"><stop offset="0" stop-color="#120a09"/><stop offset=".41" stop-color="#130a09"/><stop offset=".591" stop-color="#431414"/><stop offset="1" stop-color="#fff"/></linearGradient><linearGradient id="a"><stop offset="0" stop-color="#b01c2d"/><stop offset=".366" stop-color="#771d1f"/><stop offset=".462" stop-color="#5e1a1a"/><stop offset=".869" stop-color="#0f0908"/><stop offset="1" stop-color="#a7acaf"/></linearGradient><linearGradient id="e"><stop offset="0" stop-color="#49582d"/><stop offset="1" stop-color="#283608"/></linearGradient><linearGradient id="c"><stop offset="0" stop-color="#1a1f11"/><stop offset="1" stop-color="#afd56a"/></linearGradient><linearGradient id="b"><stop offset="0" stop-color="#f9f9f9"/><stop offset="1" stop-color="#f9f9f9" stop-opacity="0"/></linearGradient><radialGradient xlink:href="#a" id="j" gradientUnits="userSpaceOnUse" gradientTransform="matrix(1.44433 -.40624 .31003 1.10227 -368.266 225.83)" cx="625.714" cy="299.587" fx="625.714" fy="299.587" r="104.161"/><radialGradient xlink:href="#a" id="f" gradientUnits="userSpaceOnUse" gradientTransform="matrix(1.41325 .0355 -.02865 1.14014 1196.242 46.616)" cx="-552.041" cy="300.12" fx="-552.041" fy="300.12" r="107.21"/><radialGradient xlink:href="#b" id="h" cx="413.087" cy="370.705" fx="413.087" fy="370.705" r="31.683" gradientTransform="matrix(1.80964 .4849 -.27255 1.01719 -233.416 -206.674)" gradientUnits="userSpaceOnUse"/><radialGradient xlink:href="#b" id="l" gradientUnits="userSpaceOnUse" gradientTransform="matrix(1.64146 0 0 2.11893 -408.658 -338.576)" cx="647.204" cy="294.1" fx="647.204" fy="294.1" r="17.538"/><filter id="m" x="-.294" width="1.589" y="-.203" height="1.405" color-interpolation-filters="sRGB"><feGaussianBlur stdDeviation="4.12"/></filter><filter id="i" x="-.187" width="1.375" y="-.333" height="1.667" color-interpolation-filters="sRGB"><feGaussianBlur stdDeviation="4.949"/></filter><linearGradient xlink:href="#c" id="n" gradientUnits="userSpaceOnUse" gradientTransform="translate(10.9 -6.793)" x1="688.39" y1="196.613" x2="260.153" y2="207.113"/><filter id="o" color-interpolation-filters="sRGB"><feGaussianBlur stdDeviation=".792"/></filter><filter id="q" x="-.134" width="1.269" y="-.252" height="1.505" color-interpolation-filters="sRGB"><feGaussianBlur stdDeviation="3.677"/></filter><radialGradient xlink:href="#b" id="p" gradientUnits="userSpaceOnUse" gradientTransform="matrix(1.83056 .62646 -.12497 .36516 -299.757 -65.516)" cx="406.918" cy="318.131" fx="406.918" fy="318.131" r="30.73"/><radialGradient xlink:href="#d" id="t" cx="589.748" cy="266.173" fx="589.748" fy="266.173" r="32.851" gradientTransform="matrix(1 0 0 .5321 0 124.545)" gradientUnits="userSpaceOnUse"/><radialGradient xlink:href="#d" id="r" cx="405.9" cy="304.357" fx="405.9" fy="304.357" r="32.851" gradientTransform="matrix(1 0 0 .5321 0 142.411)" gradientUnits="userSpaceOnUse"/><filter id="s" x="-.125" width="1.251" y="-.236" height="1.472" color-interpolation-filters="sRGB"><feGaussianBlur stdDeviation="3.436"/></filter><filter id="u" x="-.125" width="1.251" y="-.236" height="1.472" color-interpolation-filters="sRGB"><feGaussianBlur stdDeviation="3.436"/></filter><radialGradient xlink:href="#e" id="A" cx="530.47" cy="34.665" fx="530.47" fy="34.665" r="10.968" gradientTransform="matrix(1 0 0 .73588 0 9.156)" gradientUnits="userSpaceOnUse"/><radialGradient xlink:href="#e" id="C" cx="536.22" cy="21.54" fx="536.22" fy="21.54" r="10.968" gradientTransform="matrix(.82992 0 0 .66893 90.443 5.022)" gradientUnits="userSpaceOnUse"/><radialGradient xlink:href="#b" id="g" gradientUnits="userSpaceOnUse" gradientTransform="matrix(1.80964 .4849 -.27255 1.01719 -233.416 -206.674)" cx="413.087" cy="370.705" fx="413.087" fy="370.705" r="31.683"/><radialGradient xlink:href="#b" id="k" gradientUnits="userSpaceOnUse" gradientTransform="matrix(1.64146 0 0 2.11893 -408.658 -338.576)" cx="647.204" cy="294.1" fx="647.204" fy="294.1" r="17.538"/><linearGradient xlink:href="#c" id="v" gradientUnits="userSpaceOnUse" gradientTransform="translate(2)" x1="534.179" y1="78.169" x2="435.789" y2="21.755"/><linearGradient xlink:href="#e" id="w" gradientUnits="userSpaceOnUse" gradientTransform="translate(5.95 -5.379)" x1="488.986" y1="204.391" x2="358.44" y2="187.314"/><linearGradient xlink:href="#e" id="y" gradientUnits="userSpaceOnUse" gradientTransform="translate(2.48 -5.202)" x1="629.7" y1="181.764" x2="289.851" y2="106.704"/><radialGradient xlink:href="#e" id="F" cx="538.169" cy="16.499" fx="538.169" fy="16.499" r="10.252" gradientTransform="matrix(1 0 0 .91682 1.768 -2.517)" gradientUnits="userSpaceOnUse"/><radialGradient xlink:href="#e" id="E" cx="499.975" cy="97.626" fx="499.975" fy="97.626" r="7.206" gradientTransform="matrix(1.8326 -.01735 .03136 3.31287 -417.312 -211.122)" gradientUnits="userSpaceOnUse"/><filter id="z"><feGaussianBlur stdDeviation="1.27"/></filter><filter id="x"><feGaussianBlur stdDeviation="1.715"/></filter><filter id="B" x="-.073" width="1.146" y="-.1" height="1.2"><feGaussianBlur stdDeviation=".673"/></filter><filter id="D"><feGaussianBlur stdDeviation=".344"/></filter></defs><path d="M345.75 273.031c-46.096 3.56-76.451 52.188-73.049 95.753.47 44.217 26.473 93.124 72.664 102.69 44.284 8.881 91.122-12.4 119.859-45.851 24.436-29.484 32.121-79.585 2.123-107.988-15.252-14.223-36.996-21.028-57.65-18.441-4.545-4.586-10.194-3.919-15.74-7.122-14.71-8.493-19.217-19.063-48.207-19.04z" fill="url(#f)" transform="translate(-272.442 -1.686)"/><path style="marker:none" d="M444.77 361.519c0 6.248-19.521 38.558-28.638 22.627-6.879-12.02-33.296-21.329-34.648-27.577-1.322-6.107 13.893 6 31.113-.353 20.122-7.425 32.173-.946 32.173 5.303z" color="#000" fill="url(#g)" overflow="visible" enable-background="accumulate" transform="translate(-272.442 -1.686)"/><path d="M444.77 361.519c0 6.248-19.521 38.558-28.638 22.627-6.879-12.02-33.296-21.329-34.648-27.577-1.322-6.107 13.893 6 31.113-.353 20.122-7.425 32.173-.946 32.173 5.303z" style="marker:none" color="#000" fill="url(#h)" overflow="visible" filter="url(#i)" enable-background="accumulate" transform="translate(-272.442 -1.686)"/><path d="M633.75 214.719c-23.47 1.462-41.271 24.693-65.75 20.062-13.268-2.7-29.308 1.36-40.483 7.297-12.59 6.688-22.685 17.49-28.642 30.61-11.571 26.75-5.596 58.01 8.969 82.375 17.61 31.938 50.455 58.277 88.094 58.968 28.507-.63 58.317-10.332 78-31.719 17.264-20.173 25.215-47.007 27-73.125 1.673-31.516-9.165-66.347-36.407-84.593-9.104-5.984-19.827-9.771-30.781-9.875z" style="marker:none" color="#000" fill="url(#j)" overflow="visible" enable-background="accumulate" transform="translate(-272.442 -1.686)"/><path d="M671.044 289.112c-1.307 12.428-11.165 22.627-20.928 22.627-17.325-.608-12.28-10.463-9.13-22.7 2.52-9.796.527-22.134 9.388-24.933 5.274.272 14.58-3.26 17.34.709 3.693 5.309 4.096 17.018 3.33 24.297z" style="marker:none" color="#000" fill="url(#k)" overflow="visible" enable-background="accumulate" transform="translate(-272.442 -1.686)"/><path style="marker:none" d="M671.044 289.112c-1.307 12.428-11.165 22.627-20.928 22.627-17.325-.608-12.28-10.463-9.13-22.7 2.52-9.796.527-22.134 9.388-24.933 5.274.272 14.58-3.26 17.34.709 3.693 5.309 4.096 17.018 3.33 24.297z" color="#000" fill="url(#l)" overflow="visible" filter="url(#m)" enable-background="accumulate" transform="translate(-272.442 -1.686)"/><path style="text-indent:0;text-align:start;line-height:normal;text-transform:none;block-progression:tb;marker:none;-inkscape-font-specification:Sans" d="M534.968 6.96c-4.168 1.186-5.884 6.42-8.242 10.056-2.67 4.119-4.927 8.551-6.59 13.17-2.381 6.617-9.126 15.052-4.749 20.556.733.921 2.437.434 3.531 0 5.704-2.259 9.266-8.08 13.412-12.601 4.134-4.508 8.447-9.03 11.362-14.407 2.072-3.822 6.096-8.454 4.177-12.354-2.007-4.079-8.528-5.663-12.9-4.42z" font-weight="400" color="#000" fill="url(#n)" overflow="visible" filter="url(#o)" enable-background="accumulate" font-family="Sans" transform="translate(-272.442 -1.686)"/><path style="marker:none" d="M435.931 310.077c-5.907 4.587-8.632 7.927-25.81 11.49-19.31 4.006-45.749-38.075-34.294-34.471 5.657 1.78 16.068 7.848 34.295 15.38 14.603 6.034 36.448-.66 25.81 7.6z" opacity=".102" color="#000" fill="url(#p)" overflow="visible" filter="url(#q)" enable-background="accumulate" transform="translate(-272.442 -1.686)"/><path d="M435.931 310.077c-5.907 4.587-8.632 7.927-25.81 11.49-19.31 4.006-45.749-38.075-34.294-34.471 5.657 1.78 16.068 7.848 34.295 15.38 14.603 6.034 36.448-.66 25.81 7.6z" style="marker:none" opacity=".819" color="#000" fill="url(#r)" overflow="visible" filter="url(#s)" enable-background="accumulate" transform="translate(-272.442 -1.686)"/><path d="M619.78 271.893c-5.908 4.587-8.634 7.928-25.81 11.49-19.31 4.006-45.75-38.075-34.295-34.47 5.657 1.78 16.068 7.847 34.295 15.379 14.603 6.034 36.447-.66 25.81 7.601z" style="marker:none" transform="matrix(-1 0 0 1 905.287 -24.313)" opacity=".819" color="#000" fill="url(#t)" overflow="visible" filter="url(#u)" enable-background="accumulate"/><path d="M542.563 1.688c-.838.012-1.745.12-2.688.28-4.582 3.355-15.138 4.29-15.656 11.095-.845 11.759-11.695 21.809-13.032 31-2.443 5.235-5.487 12.524-8.28 21.5-45.31 58.152-71.192 117.847-85.748 163.004-13.247 41.097-17.839 73.84-22.215 75.005-.775.207-1.456 1.206-1.226 1.744-.172 1.034 6.745 5.495 10.157 5.652 5.14.235 10.14-1.72 11.065-3.303.583-.999-2-1.69-2.322-2.095 0 0-.131-.505-.265-1.495-.34-2.524-.701-8.2 1.042-16.671 2.426-11.79 4.685-30.41 11.085-50.651a559.857 559.857 0 0 1 27.097-69.228c11.923-25.354 26.993-52.43 45.986-79.556-.396 2.575-.946 4.842-1.063 7.312-.54 4.399-.915 8.93-1.063 13.625-.334 10.646.843 21.906 3.9 33.479 3.058 11.572 7.998 23.457 15.19 35.352 7.192 11.894 16.638 23.8 28.707 35.413 11.399 10.967 20.178 18.46 39.142 32.257.94.683.837 3.593 1.82 4.19 11.78 4.54 24.542-10.607 11.683-10.826-17.123-10.384-34.794-20.843-46.347-31.846-11.553-11.002-20.522-22.195-27.312-33.34-6.79-11.146-11.4-22.244-14.235-33.056-2.834-10.812-3.893-21.339-3.579-31.341.465-14.813 3.256-28.225 6.563-39.25a414.49 414.49 0 0 1 16.5-19.72 34.767 34.767 0 0 0 2.062-2c6.168-.493 11.96-1.405 15.313-16.5.6-2.431 6.475-3.047 5.843-7.03-.769-4.855 1.946-10.55 1.47-15.063-.49-4.641-3.73-8.028-9.595-7.937z" style="text-indent:0;text-align:start;line-height:normal;text-transform:none;block-progression:tb;marker:none;-inkscape-font-specification:Sans" font-weight="400" color="#000" fill="url(#v)" overflow="visible" enable-background="accumulate" font-family="Sans" transform="translate(-272.442 -1.686)"/><path style="text-indent:0;text-align:start;line-height:normal;text-transform:none;block-progression:tb;marker:none;-inkscape-font-specification:Sans" d="M510.16 59.576C420.684 175.394 404.345 298.5 404.345 298.5l3.531-.063c.07-.662 13.757-122.301 102.988-237.8z" font-weight="400" color="#000" fill="url(#w)" overflow="visible" filter="url(#x)" enable-background="accumulate" font-family="Sans" transform="translate(-272.442 -1.686)"/><path style="text-indent:0;text-align:start;line-height:normal;text-transform:none;block-progression:tb;marker:none;-inkscape-font-specification:Sans" d="M504.003 80.358c-1.518 2.168-3 4.333-4.468 6.5-.596 4.648-1.167 11.9-1.352 16.882-1.607 43.304 18.697 98.613 91 137.406l.969-1.594c-69.75-39.507-89.93-93.736-88.438-136.312.258-7.342 1.182-16.295 2.29-22.882z" font-weight="400" color="#000" fill="url(#y)" overflow="visible" filter="url(#z)" enable-background="accumulate" font-family="Sans" transform="translate(-272.442 -1.686)"/><path style="text-indent:0;text-align:start;line-height:normal;text-transform:none;block-progression:tb;marker:none;-inkscape-font-specification:Sans" d="M519.75 26.594c-.737 5.545-.552 10.207 2.156 11.812 4.197 2.487 4.794 3.649 7.688 4.094 5.786.89 11.843-1.031 11.843-1.031l-.25-.782s-5.822.194-11.343-.656c-2.76-.425-5.268-.26-7.032-2.531-1.763-2.271-2.967-5.379-2.25-10.781z" transform="matrix(.9193 0 0 .85421 -229.634 3.493)" font-weight="400" color="#000" fill="url(#A)" overflow="visible" enable-background="accumulate" font-family="Sans" opacity=".77" filter="url(#B)"/><path style="text-indent:0;text-align:start;line-height:normal;text-transform:none;block-progression:tb;marker:none;-inkscape-font-specification:Sans" d="M526.564 12.094c-.612 5.04.982 7.54 2.584 9.8 1.603 2.26 5.068 2.294 7.47 2.698 4.802.81 7.944 1.023 7.944 1.023l-.207-.71s-7.63-1.038-12.213-1.81c-2.29-.386-1.396-.79-2.86-2.854-1.463-2.065-2.64-3.123-2.044-8.034z" transform="matrix(1.23704 0 0 1.14059 -398.417 -4.19)" font-weight="400" opacity=".77" color="#000" fill="url(#C)" overflow="visible" filter="url(#D)" enable-background="accumulate" font-family="Sans"/><path d="M510.207 71.127c-1.75 3.25-12.75 17-12.75 17-2.176 11.744-.5 30.75-.5 30.75 2.775-7.778 2.454-20.462 5.073-30.455 2.618-9.993 8.177-17.295 8.177-17.295z" fill="url(#E)" transform="translate(-272.442 -1.686)"/><path style="text-indent:0;text-align:start;line-height:normal;text-transform:none;block-progression:tb;marker:none;-inkscape-font-specification:Sans" d="M543.144 3.212c-.612.008-1.273.076-1.962.179-3.345 2.128-11.05 2.72-11.429 7.039-.018.226-.036.45-.068.674v.02c2.59 6.528 7.229 10.885 12.524 10.885 1.147 0 2.258-.228 3.33-.614 1.331-.942 3.898-1.605 3.536-3.59-.562-3.08 1.42-6.693 1.072-9.557-.358-2.944-2.723-5.093-7.003-5.036z" font-weight="400" color="#000" fill="url(#F)" overflow="visible" enable-background="accumulate" font-family="Sans" opacity=".88" transform="translate(-272.442 -1.686)"/><path style="marker:none" d="M122.64 301.337c-.478.397-1.53 1.9-1.363 2.29-.172 1.034 6.744 5.5 10.156 5.656 5.14.236 10.138-1.73 11.063-3.312.34-.583-.388-1.03-1.125-1.407-2.605.402-5.531.75-8.688.75-4.104 0-7.084-2.362-10.043-3.977z" opacity=".819" color="#000" fill="#2a3415" overflow="visible" enable-background="accumulate"/><path style="text-indent:0;text-align:start;line-height:normal;text-transform:none;block-progression:tb;marker:none;-inkscape-font-specification:Sans" d="M328.433 238.97c-.597-1.158-2.854-3.173-3.774-1.022-2.845 6.65-10.643 8.149-13.757 8.179.195.785.404 1.515.844 1.781 3.68 1.419 7.47.932 10.53-.437.022-.01.042-.022.063-.032a88.738 88.738 0 0 0 3.875-2.562c.022-.02.041-.042.063-.063 2.115-1.974 3.108-3.998 2.156-5.843z" font-weight="400" color="#000" fill="#273114" overflow="visible" enable-background="accumulate" font-family="Sans"/></svg>