<svg xmlns="http://www.w3.org/2000/svg" xmlns:xlink="http://www.w3.org/1999/xlink" width="744.094" height="1052.362"><defs><linearGradient id="a"><stop offset="0"/><stop offset=".5" stop-color="#2f0202"/><stop offset="1" stop-color="#ff0d0d"/></linearGradient><radialGradient xlink:href="#a" id="g" cx="513.878" cy="421.418" fx="513.878" fy="421.418" r="59.547" gradientTransform="matrix(2.0515 0 0 2.36587 -543.27 -534.779)" gradientUnits="userSpaceOnUse"/><linearGradient xlink:href="#a" id="h" x1="652.884" y1="467.156" x2="562.286" y2="375.728" gradientUnits="userSpaceOnUse"/><linearGradient xlink:href="#a" id="e" x1="542.165" y1="407.888" x2="642.96" y2="387.888" gradientUnits="userSpaceOnUse"/><linearGradient xlink:href="#a" id="d" x1="496.585" y1="320.685" x2="575.023" y2="320.685" gradientUnits="userSpaceOnUse"/><linearGradient xlink:href="#a" id="b" x1="393.897" y1="272.973" x2="484.013" y2="349.402" gradientUnits="userSpaceOnUse"/><linearGradient xlink:href="#a" id="c" x1="437.509" y1="466.71" x2="391.152" y2="311.71" gradientUnits="userSpaceOnUse"/><linearGradient xlink:href="#a" id="i" x1="499.822" y1="486.121" x2="498.335" y2="408.263" gradientUnits="userSpaceOnUse"/><linearGradient xlink:href="#a" id="j" x1="367.682" y1="492.808" x2="409.023" y2="399.951" gradientUnits="userSpaceOnUse"/><linearGradient xlink:href="#a" id="l" x1="521.25" y1="588.458" x2="519.362" y2="404.886" gradientUnits="userSpaceOnUse"/><linearGradient xlink:href="#a" id="f" x1="497.469" y1="425.728" x2="462.121" y2="307.871" gradientUnits="userSpaceOnUse"/><radialGradient xlink:href="#a" id="k" gradientUnits="userSpaceOnUse" gradientTransform="matrix(2.10292 0 0 1.76224 -564.961 -390.086)" spreadMethod="reflect" cx="512.6" cy="661.342" fx="512.6" fy="661.342" r="128.469"/><linearGradient xlink:href="#a" id="m" gradientUnits="userSpaceOnUse" x1="521.25" y1="588.458" x2="519.362" y2="404.886" gradientTransform="matrix(1 0 0 3.06986 0 -878.552)"/><linearGradient xlink:href="#a" id="o" gradientUnits="userSpaceOnUse" gradientTransform="matrix(1 0 0 2.44646 0 -536.354)" x1="652.884" y1="467.156" x2="562.286" y2="375.728"/><linearGradient xlink:href="#a" id="n" x1="522.519" y1="-275.947" x2="500.295" y2="728.653" gradientUnits="userSpaceOnUse" gradientTransform="matrix(1 0 0 .89419 0 65.54)"/></defs><g font-weight="400" color="#000" font-family="Sans"><path style="text-indent:0;text-align:start;line-height:normal;text-transform:none;block-progression:tb;marker:none;-inkscape-font-specification:Sans" d="M459.571 271.214l-.062.25-16.781 16.782-20.782 12-.062.03-.031.063-16.97 16.97-.062.03-.03.063-12 20.781-.032.063v.062l-6.219 23.188-.031.062V362.527l-.407-.281-9.937 14.093-.094.125v.157c-1.605 16.021-.434 22.375 3.25 36.218 4.17 38.788 10.114 77.528 21.719 114.813 16.136 38.811 59.818 78.483 93.969 88.937 84.536-2.479 121.543-79.446 134.656-145.468 4.436-25.128 7.733-50.46 10-75.875l1.406-5.25.032-.063v-24.282l-.157-.155-16.968-16.97-11.938-20.687-.031-.03-.032-.063-16.968-16.97-.063-.03-.031-.032-20.813-12-.03-.062h-.063l-23.188-6.219h-19.656l-2.875-2.875-.063-.031-.062-.032-20.781-12-.063-.03-.062-.032-23.157-6.219H459.76z" overflow="visible"/><path style="text-indent:0;text-align:start;line-height:normal;text-transform:none;block-progression:tb;marker:none;-inkscape-font-specification:Sans" d="M463.21 274.357h23.594l22.937 6.156 20.781 12 2.063 2.063H529.334l-.155.125-16.97 16.969-17.655 10.187h-9.032l-.062.031-23.188 6.22h-.062l-.063.03-20.78 12-.188.125-.063.188-2.219 8.281v-7.719l6.188-23.03v-.032l11.937-20.656.063-.063v-.062z" fill="url(#b)" overflow="visible"/><path style="text-indent:0;text-align:start;line-height:normal;text-transform:none;block-progression:tb;marker:none;-inkscape-font-specification:Sans" d="M461.866 275.513l-5.75 21.375v.032l-11.937 20.656-.032.062-.031.063-6.219 23.187v11.563l-3 11.156v.031l-11.937 20.657-.032.062-.03.063-6.188 23.187-.032.063v13.093l-9.406-16.28-.031-.063-.032-.032-16.843-16.843v-23.657l6.218-23.156v-.031l11.938-20.656 16.781-16.782.063-.03.062-.063 20.656-11.907.063-.031.062-.062z" fill="url(#c)" overflow="visible"/><path style="text-indent:0;text-align:start;line-height:normal;text-transform:none;block-progression:tb;marker:none;-inkscape-font-specification:Sans" d="M529.741 295.576h3.844l13.75 13.719.031.062.031.031 11.938 20.688.031.062.032.032 15.625 15.625-21.22-5.657-20.812-12-.031-.03h-.063l-23.187-6.22-.063-.03h-13.062l16.25-9.376.031-.062.063-.032z" fill="url(#d)" overflow="visible"/><path style="text-indent:0;text-align:start;line-height:normal;text-transform:none;block-progression:tb;marker:none;-inkscape-font-specification:Sans" d="M535.022 295.576h18.532l23 6.187h.03l20.563 11.875 16.97 16.97 11.937 20.687.031.03.031.063 16.844 16.844v23.625l-6.219 23.156v.032l-11.843 20.562-.094.125-16.781 16.781-.094.063-20.688 11.937-.062.032-.063.031-15.625 15.625 5.72-21.312v-.032l11.937-20.656.03-.062.032-.063 6.219-23.187v-24.25l-6.219-23.188-.031-.062-.031-.063-11.938-20.687v-.063l-.062-.031-.032-.063-.031-.031-.031-.094-.094-.031-16.781-16.75-.032-.063-.03-.03-11.938-20.688-.032-.063-.03-.062z" fill="url(#e)" overflow="visible"/><path style="text-indent:0;text-align:start;line-height:normal;text-transform:none;block-progression:tb;marker:none;-inkscape-font-specification:Sans" d="M485.71 322.857h7.125l-1.313.75-.031.031-.062.032-16.97 16.968-.03.063-.032.062-12 20.782-.062.062v.063l-6.22 23.187v22.313l-11.03-19.125-6.188-23.032v-12.437l3.125-11.656 20.5-11.844h.031z" fill="url(#f)" overflow="visible"/><path style="text-indent:0;text-align:start;line-height:normal;text-transform:none;block-progression:tb;marker:none;-inkscape-font-specification:Sans" d="M494.835 322.857h14.625l23.125 6.219h.031l20.688 11.937.03.032.063.031 22.813 6.094v23.625l-6.188 23.031v.031l-11.875 20.563-.03.031-.032.063-16.781 16.78-.125.095-20.688 11.906-.031.031-.063.063-16.812 16.812h-3.844l-13.719-13.719-12-20.78-.062-.063-.032-.063-16.812-16.812v-23.782l6.187-23.03v-.032l11.875-20.563.032-.031.031-.063 16.781-16.78.063-.032.062-.063z" fill="url(#g)" overflow="visible"/><path style="text-indent:0;text-align:start;line-height:normal;text-transform:none;block-progression:tb;marker:none;-inkscape-font-specification:Sans" d="M577.21 348.607l11.031 19.094v.031l6.188 23.031v24l-6.188 23.032v.031l-11.937 20.656-.032.063-.031.062-6.125 22.813h-23.469l-23.156-6.219h-.031l-20.657-11.938-2.062-2.062h3.25l.156-.156 16.844-16.875.062-.032.063-.062 20.687-11.906.032-.032.062-.062 16.969-16.969.031-.031.063-.063 12-20.78.031-.063v-.063l6.219-23.187v-.125z" fill="url(#h)" overflow="visible"/><path style="text-indent:0;text-align:start;line-height:normal;text-transform:none;block-progression:tb;marker:none;-inkscape-font-specification:Sans" d="M437.897 356.326v8.812l6.22 23.188.03.062.032.063 11.937 20.687v.032l.063.062.031.031.031.063 16.907 16.875.03.062.032.032 11.938 20.687.03.063.032.031 13.125 13.125H479.773l-22.907-6.156-20.687-11.906-.063-.063-.062-.031-16.781-16.781-.032-.063-.03-.031-1.532-2.657v-14.656l6.156-23.062 12-20.782.031-.062v-.063z" fill="url(#i)" overflow="visible"/><path style="text-indent:0;text-align:start;line-height:normal;text-transform:none;block-progression:tb;marker:none;-inkscape-font-specification:Sans" d="M389.366 365.576v22.407l.156.124 16.907 16.875.03.063.032.03 10.188 17.657v9.063l.031.062 6.187 23.188.032.062.031.063 11.063 19.156-19.157-11.063-16.78-16.78-12-20.782-3.063-11.375c-3.672-39.715-3.263 8.85-3.094-35.406z" fill="url(#j)" overflow="visible"/><path style="text-indent:0;text-align:start;line-height:normal;text-transform:none;block-progression:tb;marker:none;-inkscape-font-specification:Sans" d="M640.71 404.107c-.652 6.586-.832 13.77-1.969 19.969-7.095 77.114-39.685 184.773-125.562 195.344-79.435-10.173-110.889-88.404-122.938-152.625a903.703 903.703 0 0 1-6.469-45.907l1.375 5.188.032.062.03.063 12 20.781.032.063.032.03 17 16.97.03.062.063.031 20.657 11.938.03.062h.095l.125.032 23.062 6.187 20.781 12 .063.032h.062l23.188 6.218h24.25l23.187-6.219h.063l.062-.03 20.688-11.938h.218l.032-.188.031-.062 16.781-16.813.063-.031.031-.032 20.688-11.937.062-.031.031-.032 16.97-16.968.062-.063.03-.031 12-20.813.032-.031v-.062z" fill="url(#k)" overflow="visible"/><path style="text-indent:0;text-align:start;line-height:normal;text-transform:none;block-progression:tb;marker:none;-inkscape-font-specification:Sans" d="M417.679 424.45l.75 1.313.03.063.032.031 16.969 17 .062.031.032.032 20.812 12 .032.031.062.031 23.188 6.188.062.031h19.625l2.844 2.844.062.062.063.032 20.781 12 .063.031h.062l23.188 6.219.062.031h22.188l-19.063 11-23.031 6.188h-24l-23.031-6.188h-.032l-20.656-11.937-.063-.032-.062-.031-23-6.156-11.875-20.594-6.156-23.063z" fill="url(#l)" overflow="visible"/><path style="text-indent:0;text-align:start;line-height:normal;text-transform:none;block-progression:tb;marker:none;-inkscape-font-specification:Sans" d="M419.5 467.063l4.344 50.156 10.75 57.281c18.73 23.313 44.15 40.495 78.594 44.906 17.198-2.117 32.258-8.12 45.406-17h-12.125l-.063-.093-23.187-19.094h-.063l-.062-.094-20.782-36.844-.062-.093-.063-.188-2.843-8.719h-19.625l-.063-.093-23.187-19-.063-.094-.031-.094-20.813-36.844-.03-.094-.063-.093-1.875-5.719-14.094-8.188z" fill="url(#m)" overflow="visible"/><path style="text-indent:0;text-align:start;line-height:normal;text-transform:none;block-progression:tb;marker:none;-inkscape-font-specification:Sans" d="M571.75 474.302c-.37-.14-.57.515-.781.821a.243.243 0 0 0-.032.066c-.02.064.025.153-.03.197-.048.036-.126 0-.188 0-.01 0-.022-.003-.032 0-7.965 2.188-13.643 8.569-20.687 12.549-.02.011-.04.027-.063.033-.02.005-.042-.003-.062 0-8.01 1.102-15.178 5.435-23.188 6.537-.02.003-.041 0-.062 0H502.5c-.02 0-.042.003-.063 0-8.01-1.102-15.177-5.435-23.187-6.537-.02-.003-.043.005-.063 0-.023-.006-.042-.022-.062-.033-7.077-4-13.223-9.395-20.781-12.615-.383-.163-.879-.555-1.22-.328-16.307 10.834 0 54.5 0 54.5l16.813 43.397.032.164.062.164 8.438 37.68c9.345 4.088 19.558 7.007 30.718 8.51 2.61-.338 5.145-.76 7.657-1.282l20.343-30.223.125-.23 16.782-43.331.03-.164.032-.099s9.886-35.13 11.875-53.088c.002-.022 0-.044 0-.066.287-5.558 7.454-14.463 1.719-16.622z" fill="url(#n)" overflow="visible"/><path style="text-indent:0;text-align:start;line-height:normal;text-transform:none;block-progression:tb;marker:none;-inkscape-font-specification:Sans" d="M594.438 442.78l-6.594 4.267-.032.035-.062.035-16.781 18.811-.032.07-.03.21h-.22l-10.28 6.643-1.438 6.12-.063.139-.031.07-16.969 41.539-.062.14-.032.07-20.687 29.126-.063.174-.062.07-16.844 41.294-.156.35h-3.25l2.062 5.07 15.313 21.643c23.452-4.48 42.793-17.212 58.593-35.14l11.532-48.741v-.07l6.187-56.364v-35.56z" fill="url(#o)" overflow="visible"/></g></svg>