<svg xmlns="http://www.w3.org/2000/svg" xmlns:xlink="http://www.w3.org/1999/xlink" width="313.335" height="357.791"><defs><linearGradient id="e"><stop offset="0" stop-opacity="0"/><stop offset=".742" stop-opacity=".417"/><stop offset="1"/></linearGradient><linearGradient id="a"><stop offset="0" stop-color="#e3dbdb"/><stop offset=".49" stop-color="#e9ddaf"/><stop offset=".533" stop-color="#f5873d"/><stop offset="1" stop-color="#662900"/></linearGradient><linearGradient id="b"><stop offset="0" stop-color="#fff"/><stop offset="1" stop-color="#fff" stop-opacity="0"/></linearGradient><linearGradient id="d"><stop offset="0" stop-opacity="0"/><stop offset=".762" stop-opacity=".417"/><stop offset="1"/></linearGradient><linearGradient id="c"><stop offset="0" stop-color="#1c1610"/><stop offset=".5" stop-color="#ea7413"/><stop offset="1" stop-color="#b65a0d"/></linearGradient><radialGradient xlink:href="#d" id="k" gradientUnits="userSpaceOnUse" gradientTransform="matrix(-.02594 1.11216 -.98558 -.02241 945.485 -150.441)" cx="520.115" cy="483.865" fx="520.115" fy="483.865" r="156.668"/><radialGradient xlink:href="#b" id="i" gradientUnits="userSpaceOnUse" gradientTransform="translate(262.804 213.801) scale(.49581)" cx="521.239" cy="424.047" fx="521.239" fy="424.047" r="67.81"/><filter id="j"><feGaussianBlur stdDeviation=".344"/></filter><radialGradient xlink:href="#d" id="h" gradientUnits="userSpaceOnUse" gradientTransform="matrix(.90031 0 0 1.22178 45.3 -108.748)" cx="456.418" cy="423.469" fx="456.418" fy="423.469" r="180.746"/><radialGradient xlink:href="#d" id="g" gradientUnits="userSpaceOnUse" gradientTransform="matrix(.00685 -.08617 .08048 .00743 416.936 440.82)" spreadMethod="reflect" cx="655.084" cy="5332.99" fx="655.084" fy="5332.99" r="180.747"/><radialGradient xlink:href="#a" id="f" gradientUnits="userSpaceOnUse" gradientTransform="matrix(2.32116 0 0 1.76096 -600.264 -397.892)" cx="452.365" cy="393.711" fx="452.365" fy="393.711" r="156.668"/></defs><g transform="translate(-296.828 -269.136)"><path d="M570.464 311.461c20.608 14.288 27.379 40.535 33.232 63.576 7.797 35.756 7.437 72.794 4.666 109.088-4.635 34.021-13.837 70.522-39.475 95.016-36.229 23.525-76.304 45.499-120.409 47.707-46.25 1.718-87.299-25.153-120.639-54.531-21.569-26.692-27.046-62.295-30.17-95.501-2.047-49.447-2.214-102.087 21.95-146.817 48.609-42.303 114.524-68.824 154.575-58.711 33.678 9.128 64.405 26.368 96.27 40.173z" fill="url(#f)"/><path d="M597.854 372.04c-8.72 23.466-26.057 30.919-38.728 37.589-87.607 46.12-122.861 38.479-222.887-2.15-9.49-7.171-22.068-14.617-28.136-32.522-7.902 23.154-12.285 52.594-10.961 82.477-2.194 52.564 12.875 105.531 34.723 122.038 80.019 62.196 135.411 62.275 232.51 5.922 24.173-14.028 48.134-66.309 45.387-127.872 1.322-30.953-3.397-61.847-11.908-85.482z" opacity=".25" fill="url(#g)"/><path d="M444.382 275.263c-.776-.01-1.537.03-2.279.27-2.099.182-4.247.169-6.148.87-2.495.446-5.128.617-7.707.66-1.23.337-2.301.621-3.658.659-1.917.345-3.696 1.04-5.818.93-1.31.07-2.958.205-4.198.54l-.42.12c-.07.02-.143.06-.21.09a2.88 2.88 0 0 0-.45.21c1.08.187 2.187-.122 3.299.03 1.696-.102 3.174-1.003 5.038-.75.642-.181 1.389-.183.24.03-1.038.478-1.945.871-3.299.929-2.103.338-4.139.897-5.787 1.68-1.495.127-3.124-.253-4.439.39-.944-.02-1.865.145-2.788.299h-.03a232.214 232.214 0 0 0-20.182 8.517c1.035-.06 2.069-.113 3.119-.21-1.595.26-3.148.623-4.558 1.17-.265.05-.54.1-.81.149a260.425 260.425 0 0 0-7.737 3.989c2.858-.473 5.737-1.139 8.757-1.2 1.019.191 2.064.291 3.118.33 2.239-.711 4.654-.788 7.077-.6.267-.05.546-.07.81-.12 3.006-.347 5.631-1.292 8.097-2.309 2.54-.446 4.665-1.149 6.417-2.339 1.607-.847 3.604-1.231 4.978-2.249.982-.235 1.919-.52 2.849-.809-2.274.284-3.661 1.282-5.728 1.799-1.922 1.353-4.982.502-7.407.84-2.679 0-5.109.419-7.617.899-2.213-.07-4.45-.03-6.627.21 1.758-.325 3.503-.748 5.338-.93 2.804-.813 4.919-2.315 8.037-2.698 2.01-.23 3.951-.821 5.997-.69 1.753.02 3.438-.344 5.188-.06 2.29-.215 4.571-.554 6.717-1.11.325 0 .632-.05.93-.09-.819.381-1.643.719-2.519 1.05.155-.05.322-.07.48-.12-2.405.966-4.206 2.406-6.748 3.239-1.907 1.257-4.603 1.978-7.017 2.908-3.167.826-6.628 1.542-9.206 2.909a50.738 50.738 0 0 0-2.969-.33c-2.313.416-4.709.688-7.077.6-.167.05-.344.09-.51.15-2.107.655-4.474.913-6.747 1.17-2.409.898-5.067 1.41-7.557 2.219-1.292.508-2.667.836-4.048 1.169h-.03a276.16 276.16 0 0 0-19.822 12.505c1.492-.135 3.075-.2 4.199-.9 3.92-1.081 7.134-2.96 10.645-4.438 2.885-.278 5.055-1.675 7.887-2.129 2.061-1.041 5.13-.894 7.527-1.589 3.129-.73 5.547-2.195 8.066-3.479 2.116-1.42 5.144-2.269 7.767-3.388 3.832-1.955 9.049-2.293 13.884-2.789 4.254-1.541 9.457-1.763 13.165-3.809 2.431-1.508 6.607-.57 9.566-1.829 2.868-1.141-1.467 1.214-2.879 1.29a97.165 97.165 0 0 1-9.056 2.938c-3.008 1.093-4.081 3.125-7.167 4.169-3.972 1.112-5.4 3.96-9.926 4.468-2.635.786-5.081 1.71-8.217 1.799-4.058.987-8.192 2.172-10.615 4.408-2.22 1.87-4.005 3.971-6.028 5.878 1.37-.209 2.785-.288 4.259-.33 3.267-.941 5.982-2.13 9.266-2.969 1.846-2.473 3.781-5.163 8.096-6.447 3.805-1.942 8.132-3.529 11.666-5.608 5.043-1.337 7.015-4.762 12.174-5.907 3.255-1.169 7.459-1.11 9.896-3.059 1.64-.247 3.751-.575 1.26.24-2.254 1.595-4.168 3.295-6.028 4.918-1.339 1.255-3.457 2.161-5.367 3.178a44.218 44.218 0 0 0 6.237-3.178c1.971-.132 4.261-1.166 5.338-1.53-2.255 2.04-3.314 4.555-5.638 6.598a32.933 32.933 0 0 0 4.918-2.519c-1.441 1.611-2.771 3.251-5.338 4.378-3.135 1.468-4.205 3.684-6.777 5.398-1.807 1.975-4.775 3.555-5.818 5.787-.164.08-.342.159-.509.24-.342 1.134-.96 2.276-1.47 3.389.401-.405.813-.807 1.17-1.2 2.886-1.606 5.083-3.458 8.066-4.978 1.512-1.131 3.341-2.263 5.038-3.238 1.981-2.452 6.809-3.454 9.626-5.248 1.17-2.092 4.097-3.504 5.518-5.518 1.045-.684-.296 1.825.03 2.519.07.516.07 1.05 0 1.559.566-1.067 2.444-2.379 3.149-2.339a56.268 56.268 0 0 0-5.098 7.137c-.364.451-.806.892-1.29 1.32a30.12 30.12 0 0 0 1.77-2.849c-.904 1.245-2.124 2.438-3.629 3.479-.106.532-.368 1.013-.72 1.469-.723.588-1.42 1.168-1.979 1.799-1.76 1.355-3.756 2.648-4.048 4.468-1.877 2.609-4.708 5.259-3.539 8.217v.51c-.221.326-.427.667-.659.989.237.415.412.831.599 1.26-.163 1.144-.583 2.266-1.619 3.298-.788.962-.926 1.966-.899 2.999.296-.804.833-1.562 1.769-2.279.23-.741.774-1.389 1.409-2.009.32 1.696.06 3.406-1.199 4.978-.563 2.698-1.733 5.381-2.609 8.096.1 1.673.02 3.338-1.26 4.918-.133 2.377-.226 5.045-.21 7.257a14.588 14.588 0 0 0-2.788.93c.353-.47.62-.971.659-1.499.263-1.326.247-2.705.57-4.049a35.98 35.98 0 0 1-2.669 3.239c-.691 1.083-.666 2.144-.36 3.209-1.982 1.134-3.672 2.486-5.817 3.478-.702 1.76-2.926 3-4.648 4.408 1.23-.584 2.455-1.14 3.628-1.769 1.519-1.202 4.068-1.786 4.948-3.329.541-.73 1.35-1.416 2.129-2.099.531 1.353 1.396 2.693 1.769 4.019-.229 3.041-1.469 6.065-1.979 9.116-1.211 1.504.05 3.195-.03 4.828 1.444-.987 2.73-2.041 3.479-3.299.64-2.627 3.24-5.021 7.137-6.447.993-1.237 2.219-2.39 3.448-3.539-.105 1.451-1.739 2.763-2.309 4.079 1.074 2.238-2.195 4.547.09 6.747-.257 2.645 2.897 5.029 2.399 7.677.949 2.713-2.382 4.951-2.339 7.617-1.12 1.856-.02 3.946-2.908 5.397-1.42 1.78-3.59 4.238-.93 6.058 1.095 1.792-.02 3.602.81 5.517-.902 1.858-1.074 3.833-1.41 5.758-.614 1.247.821 1.661 2.279 1.649.802-.112 1.879.343 1.26-.779 2.3-2.541.129-5.438 1.649-8.127 2.703-3.286.542-7.352 5.068-10.256 2.144-1.526 3.172-3.217 2.879-5.217.693-1.797 2.909-3.47 1.409-5.338.04-2.593-2.377-4.98-.929-7.557.4-1.954-.112-3.972-1.26-5.758-.917-1.753-.517-3.337.3-5.068.04-2.212-2.807-4.121-2.159-6.357.154-.183.335-.353.48-.54 2.278-1.392 2.122-3.119 1.739-4.858 1.822-1.489 4.131-2.8 4.168-4.798.472-2.603 2.765-4.683 4.678-6.987.833-2.656.95-5.286 3.419-7.587 1.111-1.601 1.377-3.402 2.339-5.038.58-1.811 1.042-3.641 1.889-5.427-.137-1.746-2.075-3.383-.72-5.128-.32-1.264.08-2.34.69-3.449-1.548-3.016-1.642-6.267.15-9.236.188-1.74.877-3.356 2.159-4.948.382 2.132 1.052 4.093.51 6.148 1.274-1.423-.291-3.028.9-4.499 2.114 3.188-.84 6.585 1.169 9.806 2.468 2.521 3.678 5.484 2.429 8.367-.601 2.208-1.917 4.193-1.919 6.447.732 1.898-.05 4.12 2.189 5.848 1.33 2.376 2.932 4.667 5.248 6.747-1.097-1.683-.591-3.414.749-5.008.257-2.253.416-4.489.24-6.747 1.269-1.924.522-4.034 1.29-5.998-.72-2.096-2.46-4.08-2.789-6.267-.383-1.814 1.006-3.542.6-5.278.152.264.335.512.48.78.618 2.201 1.073 4.541 4.498 5.907.425.432.877.866 1.319 1.29.262-1.413.562-2.841-.24-4.258-.213-1.224.04-2.429.18-3.629.757 1.417 2.777 2.652 2.129 4.318-.277 1.863-.141 3.57-.12 5.398v.06c1.069 1.03 2.108 2.056 2.999 3.149 2.142 1.951 3.461 4.409 2.999 6.747.326.598.568 1.218.809 1.829-.132-.208-.29-.391-.419-.6-1.975-1.963-3.792-4.037-5.008-6.237.227-1.683-1.788-3.243-1.38-4.888-.651-.627-1.294-1.261-1.949-1.889-.225 1.215-.446 2.428.12 3.658-1.385 2.732 2.408 5.138 1.469 7.857-1.45 1.757-1.052 3.885-.929 5.818.911 2.321 1.033 4.695 1.859 7.077 1.621 1.986 1.362 4.2 2.009 6.357-.1 2.164-1.263 4.214-.03 6.297-.559 1.789 1.662 3.102 2.429 4.768 1.339.843 3.172 1.725 4.288 2.849 2.415 2.208 4.055 4.665 6.688 6.867 2.493 2.082 3.089 4.692 3.448 7.167-1.029 1.897.211 3.599 1.35 5.398.1 2.536 1.517 4.804 1.739 7.287-1.554 1.943 1.364 3.38 2.729 5.038.04 2.202 2.281 3.841 4.828 5.278.81 1.18 1.711 2.316 2.639 3.448 0-.771 0-1.543-.42-2.249.1-1.997-2.267-3.9-1.2-5.847-.463-2.382-.396-4.804 1.2-7.047 1.925-1.725.04-3.538 1.049-5.308-.105-2.026-2.336-3.853-1.709-5.968-.911-2.58-3.264-4.908-5.727-7.167-.409-1.462-1.519-2.726-2.699-3.958 1.517 1.245 3.016 2.468 4.258 3.689 3.295 1.502 7.329 2.71 9.656 4.768 1.451 1.7 4.062 2.844 5.757 4.438 3.253.948 3.485 3.387 3.419 5.248 1.956 2.231 4.261 4.196 5.968 6.477 2.697 1.78 3.959 4.04 6.147 5.967.561 2.041 3.047 3.635 3.838 5.668 1.017.715 2.168 1.5 3.329 2.219a408.1 408.1 0 0 0 2.369-.99c-.378-1.586-1.305-3.028-2.729-4.438-.492-2.331-4.523-3.754-3.928-6.267-3.268-3.25 2.377-6.728-.93-9.956-2.085-1.383-1.116-3.204-2.309-4.798-2.824-1.893-3.871-4.69-6.957-6.597-1.017-2.355-1.497-4.967-3.359-7.167-2.36-1.507-4.082-3.409-5.487-5.368-2.432-1.386-3.785-3.357-5.848-4.828-1.744-1.223-4.036-2.311-3.059-4.078-.554-2.141-1.265-4.227-1.709-6.388-1.656-2.579-6.094-4.611-5.368-7.616.04-.176.06-.336.09-.51 1.258.911 2.385 1.874 3.149 2.999 1.687 1.618 1.43 3.828 3.838 5.157-.33-1.609-.264-3.267-.269-4.828.69-2.254-4.001-3.186-4.409-5.337-1.341-1.482-3.249-2.736-3.658-4.469-.609-.794-1.365-1.513-2.219-2.189-.122-.499-.07-1.01.24-1.559-.709-2.206-.427-4.607-2.609-6.477.741-2.782-1.375-5.547-3.509-8.037-3.609-2.139-6.545-4.705-7.617-7.677.24.103.492.216.78.3 1.695 1.998 4.578 3.545 7.467 4.978.203.07.362.159.54.24.8.902 1.79 1.73 3.238 2.399l-.179-.27c.58.372 1.271.694 2.219.87 4.682 1.082 5.05 4.464 9.296 5.787 1.553.985 2.975 2.028 4.348 3.089-1.113-.714-2.371-1.354-3.689-1.979-1.935-1.52-5.118-2.098-6.657-3.779-2.41-.841-3.015-2.588-5.038-3.568-.108-.05-.196-.102-.3-.15 1.222 1.784 2.759 3.506 4.828 5.008.167 1.463 2.196 2.705 2.639 4.078.776 1.934 1.205 4.16 2.909 5.968 3.561 1.443 4.55 4.019 7.797 5.637 3.467.831 3.576 3.319 6.357 4.379 2.541.966 5.384 1.621 7.707 2.878 4.888.853 6.399 3.942 9.926 5.698 2.712 2.155 5.374 4.331 8.157 6.477 2.108.934 1.924 2.762 4.378 3.389 1.259 1.237 3.104 2.028 5.128 2.669-.915-1.46-2.401-2.79-3.059-4.318-1.713-1.915-4.172-3.457-5.578-5.458-1.26-.541-1.974-1.256-2.489-2.009.873.35 1.862.643 2.789.959 1.505 1.937 4.252 3.236 6.777 4.678 2.281 3.024 6.177 5.666 11.545 6.957 1.447 1.966 4.298 2.97 7.257 3.959 5.467 1.377 9.142 3.952 13.765 6.057 4.023 1.256 4.444 4.183 8.156 5.548.01 0 .02.03.03.03-.652-2.541-1.298-5.1-2.009-7.677-1.258-.543-2.578-1.081-3.688-1.709-3.398-1.41-4.94-3.745-7.557-5.608-1.469-1.541-2.428-3.14-5.338-3.988-2.848-2.104-6.867-3.751-11.395-4.258-2.963-.988-5.058-2.758-8.667-3.209-4.077-2.39-9.345-3.74-12.924-6.417-1.393-.464-2.804-.916-4.169-1.38.361.385.653.798.96 1.2-2.187-.878-4.393-1.831-6.807-2.549-3.84-.749-4.197-3.499-7.227-4.648-1.693-.968-4.1-1.853-4.678-3.269-.298-.193-.546-.394-.81-.6-3.449-1.133-2.552-3.888-5.338-5.487-.423-.691-.985-1.305-1.619-1.89a96.738 96.738 0 0 0 2.039 1.56c1.556 1.973 2.703 4.096 4.918 5.817.08.03.154.06.24.09 4.216 2.12 7.09 4.991 11.935 6.568 1.633 1.446 3.924 2.35 6.357 3.178a10.57 10.57 0 0 0-2.279-1.829c-2.289-2.561-4.199-5.137-5.487-7.947-2.031-1.34-5.096-1.834-6.747-3.418-2.121-.913-4.166-1.567-4.529-3.209-2.343-2.271-4.969-4.582-7.766-6.687a1.944 1.944 0 0 0-.36-.66c1.261 1.2 3.02 2.159 4.588 3.269 1.47 2.397 4.601 4.438 8.606 5.487 2.054 1.754 4.731 3.063 7.617 4.259 2.936.885 6.157 1.491 9.266 2.339 4.519-.129 6.204 2.694 9.686 3.748 2.75.88 5.675 2.015 7.257 3.809 3.149.83 5.414 2.265 8.187 3.418 3.811 2.616 10.037 2.703 15.024 4.138 1.649.06 3.087.381 4.438.81a101.098 101.098 0 0 0-2.789-6.177l-.09-.06c-4.334-.988-7.8-2.793-10.676-4.828-1.492-2.481-5.637-3.494-8.336-5.398-3.071-.585-5.771-1.578-8.127-2.879-1.622-1.448-3.902-2.294-6.717-2.789-2.426-1.074-3.868-2.747-6.717-3.598-1.641-1.468-4.491-1.955-6.597-3.089-4.67-2.716-12.721-1.69-16.764-4.948-1.588-1.821-2.799-3.58-4.977-5.248-3.28-2.154-6.432-4.542-11.156-5.577-2.667-1.711-6.774-1.398-9.656-2.819-1.778-1.319-3.949-2.381-6.357-3.209.302.462.611.911.959 1.35 1.696.571 2.564 1.489 3.419 2.429l.18.06c1.893 1.861 5.995 2.581 7.497 4.648 1.984.968 1.757 2.598 3.688 3.568 2.465 1.996 3.703 4.627 7.467 5.998.217.359.502.699.81 1.019-1.266-1.102-3.798-1.348-4.888-2.699-2.47-1-2.567-3.1-4.798-4.318-.525-2.683-4.219-4.408-7.377-6.117-1.164-.607-1.875-1.386-2.579-2.159-1.638-.571-2.643-1.453-3.419-2.429-.174-.06-.346-.129-.539-.18-2.58-.75-6.214-1.761-7.497-2.909 2.501.402 4.886.986 7.077 1.739-.951-1.453-1.864-2.938-3.988-3.868 3.043 1.256 6.527 1.668 9.895 2.459 3.197.22 6.052 1.045 8.877 1.919 3.769.731 6.313 2.491 10.135 3.209 4.034 1.376 8.109 2.634 11.216 4.708 2.614.844 3.929 2.415 5.907 3.568 3.146.872 6.745 1.31 8.397 3.329 3.976.782 5.449 3.765 9.986 3.898 4.171 1.688 9.016 2.316 13.434 3.689.973.02 1.922.09 2.849.24-.653-.445-1.335-.863-2.309-1.11-1.958-.414-1.968-1.811-3.389-2.549-1.657-.914-3.029-2.108-5.248-2.549-1.843-.805-4.065-1.278-5.517-2.399-3.247-1.068-5.235-3.196-8.787-3.988-1.946-.851-4.287-1.659-6.087-2.549-3.233-.969-6.956-1.433-9.716-2.849-2.29-.995-4.909-1.759-7.557-2.309-2.532-.171-3.492-1.893-5.667-2.489-1.255-1.007-3.058-1.524-4.858-2.039 1.724.409 3.686.269 5.217.9 1.928.878 4.111 1.742 6.478 2.069 1.081-.02 3.523.432 3.868.24-1.226-.502-2.176-1.153-3.329-1.71-1.87-1.111-5.092-1.081-6.747-2.339-1.694-.399-3.458-.632-5.308-.839-2.179-.415-4.256-.896-6.417-1.32-1.115-.26-2.268-.722-3.388-1.109-2.408-1.139-5.55-1.863-8.517-2.13 1.77.03 3.49.45 5.278.3 1.752-.459 3.394.217 4.738.78 1.464.423 2.733 1.064 4.378 1.23.86.146 2.086.114.78-.33-1.732-.671-3.232-1.598-5.368-1.74-1.301-.688-3.213-.588-4.618-1.139-1.608-.342-2.987-.825-4.228-1.5-1.534-.235-2.583-.814-3.569-1.499-1.397-.335-2.823-.526-3.958-1.139-1.435-.652-2.787-1.603-4.798-1.62-1.322-.514-2.875-.613-4.288-1.019-1.709.156-3.465.05-5.098-.27-1.483-.324-3.078.315-4.618.03-2.252-.06-4.522-.1-6.778-.12a38.013 38.013 0 0 1-4.348-.72c-1.599-.212-3.175-.613-4.828-.63h-.779c-.766.08-1.564.01-2.339 0zm121.719 40.453c.736.501 1.422 1.04 2.399 1.38 1.372.29 2.743.73 4.018 1.229-.304-.298-.617-.578-.929-.869-1.563-.805-3.455-1.42-5.488-1.74zm-8.666 37.815c.01.02.05.04.06.06.347 2.345 5.177 3.492 5.667 5.907 3.333 1.823 2.881 4.829 6.597 6.418 2.144 1.906 1.231 4.628 5.038 5.847 1.427 1.73 3.84 3.284 4.349 5.158.698 1.734 3.784 2.462 5.637 3.748.923-.476 1.84-.961 2.759-1.439-.631-.752-1.185-1.522-1.289-2.429-2.92-2.105-1.57-5.054-4.199-7.257-1.228-1.511-2.825-2.846-4.648-4.108.06-2.29-1.758-4.173-5.248-5.248-2.95-1.607-6.039-3.081-8.666-4.858-1.926-.669-4.075-1.172-6.057-1.799zm-47.801-13.525c.07.358.151.698.27 1.05 2.138 2.035 3.36 4.405 3.929 6.777 1.589 1.59 1.047 3.637 3.118 5.038a39.728 39.728 0 0 0 1.59 2.399c.542.309 1.095.6 1.769.84 6.162 1.211 6.881 5.72 12.025 7.586 3.015.95 2.515 2.842 3.808 4.319 1.487 2.646 3.392 5.218 7.257 6.957 2.526.838 3.322 2.646 5.158 3.658.176.06.362.1.54.15-.752-1.082-1.567-2.147-2.819-3.088-2.58-2.02-4.384-4.376-7.257-6.238-1.623-2.765-4.04-5.234-6.147-7.887-.782-2.474-3.937-4.338-5.398-6.687-.453-1.604-2.511-2.598-3.838-3.838-2.491-1.52-4.113-3.714-7.377-4.768-2.588-1.819-3.764-4.104-6.118-6.028-.175-.08-.357-.155-.51-.24zm39.464 38.774c1.143 1.644 2.145 3.335 4.258 4.678.843 2.722 4.721 4.744 8.877 5.848.714.507 1.493.974 2.279 1.439.339-.161.681-.318 1.019-.48-3.141-1.814-3.66-4.506-5.368-6.717-2.183-2.578-6.923-3.532-11.065-4.768zm-40.093 21.141c0 .97-.02 1.944.719 2.849.691 1.629 1.179 3.369 2.999 4.618.765-.129 1.573-.194 2.369-.3 1.47-.171-2.593-1.534-1.859-2.129-1.406-1.704-2.857-3.363-4.228-5.038zm-41.023-63.843c.05.08.09.16.15.24-.03 1.874 2.184 3.625.959 5.458 1.952 4.154.08 8.668-3.508 12.295.971 1.863 1.685 4.176 1.319 6.297.765 3.118 1.415 6.308 1.41 9.476.28 1.907.694 3.97 1.889 5.758.175 2.27-.62 4.714 1.769 6.747a17.074 17.074 0 0 0 1.439 7.467c2.752 1.981 2.736 4.89 3.299 7.317 4.741 1.587 4.061 5.163 7.167 7.436.06.583.241 1.14.48 1.68.04-.502.05-.989-.03-1.44.168-2.921 2.685-5.851.96-8.726 1.318-2.561.395-5.251-.63-7.797-3.981-2.756-2.69-6.569-4.828-9.716-.177-2.268-.61-4.53-.6-6.777 1.19-2.26.783-4.587 1.769-6.837-1.041-1.848-.09-3.979-.479-5.908-1.184-2.609-3.38-4.899-3.119-7.676-1.898-2.224-.912-4.862-2.339-7.107-.141-2.835-3.897-4.766-5.908-7.167-.42-.328-.79-.68-1.169-1.02zm16.373 70.171c-.124 1.388-.492 2.884.33 3.958.925-.07 1.835-.278 2.789-.15-1.373-1.192-2.509-2.433-3.119-3.808zm-26.389-102.887c-.06.07-.129.138-.21.21-1.057 1.767-2.474 3.841-1.409 5.757-.4.716-.835 1.404-1.2 2.069-.16 2.5 1.441 4.999.6 7.497-.214.366-.394.71-.57 1.08.01.159.02.318 0 .479.02 2.8-1.792 5.398-1.949 8.217-.677 2.312-.695 4.744-.72 7.077-.717 1.742.476 3.377 1.05 5.038.67-1.939.05-4.032.45-6.027 2.115-1.875.78-4.243 1.289-6.388 1.293-2.148 1.849-4.386 1.409-6.717.663-4.008-1.528-7.956-.209-11.875 2.231-1.698-.09-3.729 1.199-5.638.11-.263.202-.52.27-.779zm-39.464 69.091c-2.357 1.612-5.131 3.068-6.777 4.918-1.152 1.893-.539 3.823-.51 5.787-.876 3.613-6.932 6.341-5.937 10.256.378 1.929-1.337 3.589-1.35 5.458-1.389 1.767-3.092 3.676-3.388 5.697 1.087-1.594 1.52-3.484 3.628-4.768 2.41-1.074 4.807-2.416 4.588-4.378 2.43-1.588.958-3.545 1.83-5.397 1.302-1.598 2.348-3.136 3.028-4.858 0-1.648.44-3.325 2.279-4.648.05-2.447 3.097-4.552 2.369-7.048.171-.331.223-.68.24-1.019zm-17.962 32.116c-.438.642-.973 1.252-1.769 1.74.805.2 2.234.507 1.739-.6-.06-.39-.03-.758.03-1.14zm7.497-42.882c-1.976.938-3.924 1.911-5.488 3.119-1.701 1.562-1.965 3.605-3.838 5.068-1.521 1.977-4.135 3.35-5.308 5.398-3.077 1.75-5.25 3.977-6.567 6.417-2.272 1.622-3.278 3.697-4.499 5.668-.108 2.381-2.269 4.363-3.868 6.477-.747 1.571-1.521 3.184-2.519 4.738 4.06-2.111 5.231-5.367 8.547-7.767 2.288-1.155 3.699-2.615 4.348-4.318.863-1.934 1.75-3.888 3.598-5.608.776-2.365 3.874-4.194 5.608-6.357 2.42-1.166 2.824-2.936 3.748-4.648 1.403-1.687 3.631-3.055 4.049-4.978.12-1.254 1.043-2.272 2.189-3.209zm16.523-21.891c-.08-1.27-.245-2.534-.09-3.808 1.227-1.581.763-3.308.72-4.978-.297.804-.353 1.664-.24 2.549-.449 1.221-1.636 2.384-2.04 3.718-.07 2.431-.651 4.929-.06 7.407-.687.843-1.067 1.73-1.289 2.639a21.67 21.67 0 0 0 2.009-3.388c.176-1.391.547-2.766.99-4.139zm17.123-37.274c.758-1.044 1.27-2.116 1.439-3.239-.08.154-.137.313-.15.45-.328.949-.782 1.866-1.289 2.789zm-27.979 12.835c-1.201 1.213-2.409 2.475-2.489 3.868-.201.895-.704 1.71-1.229 2.519 1.344-.603 2.674-1.219 3.299-2.189-.652-1.438-.218-2.808.419-4.198zm-3.718 6.387c-1.604.72-3.231 1.424-3.659 2.699-2.195 1.46-3.58 3.271-6.687 4.288-.5.354-1.094.686-1.679 1.02-.758 1.133-1.818 2.165-3.779 2.878-.247.168-.461.334-.689.51.747-1.362 2.689-2.374 4.468-3.388 1.014-1.518 1.5-3.219 2.729-4.678 2.317-1.238 2.765-2.887 2.969-4.678 1.875-1.482 1.687-3.741 4.887-4.649 1.582-1.545 4.256-2.634 6.628-3.778.05-.16.115-.319.15-.48.25-2.63 2.361-4.963 4.768-7.107 3.505-1.262 5.481-3.327 7.946-5.158.235-.177.449-.354.66-.539l-.27.119c-1.806 1.739-4.751 2.886-7.527 4.139-2.737 1.049-2.728 3.176-4.888 4.378-1.932 2.34-4.43 4.534-8.036 6.237-4.311 1.346-7.521 3.62-11.456 5.308-1.897 2.035-4.227 3.86-7.646 5.068-4.2 2.238-9.172 3.949-13.465 6.088-2.58.444-4.104 1.367-5.308 2.788-4.405 3.168-9.97 6.446-10.915 10.616-1.352 2.129-2.882 4.374-5.668 6.057-1.881 1.939-.57 4.226-2.429 6.118-.394 2.029-1.079 3.832-2.279 5.787-1.561 2.298-5.034 4.052-5.877 6.628-1.951 1.841-4.495 3.291-6.657 5.098-3.87 1.371-6.189 3.559-8.727 5.667.172-.09.326-.184.51-.27 3.38-1.51 5.344-3.681 8.516-5.247 4.63-1.774 8.202-4.753 13.975-5.368 4.056-.361 6.209-2.723 10.075-3.389 2.041-1.378 3.55-2.977 5.968-4.258.715-.24 1.32-.529 1.889-.84.424-.662.731-1.349.81-2.099-.557-2.736 3.838-4.346 5.158-6.747 2.815-1.309 4.032-3.132 6.057-4.768 1.927-2.109 4.177-4.175 5.578-6.447 3.339-1.694 4.827-4.174 7.407-6.178-.22.411-.335.83-.3 1.32-1.181 2.07-.773 4.593-4.078 5.997-1.306 2.509-3.629 4.842-6.718 6.747-3.413 1.373-6.205 3.333-8.246 5.428-1.388 2.364-2.508 5.023-5.668 6.747-1.438 2.249-4.527 4.047-7.227 5.818-1.376 1.637-3.375 3.064-3.448 4.948-1.122 2.895-6.097 4.853-5.638 8.036-.824 2.345-.838 4.587-1.469 6.928-1.12 2.086.745 4.733-2.429 6.477-1.556 1.495-2.541 3.3-3.239 4.978.248.132.501.258.75.39.587.07 1.248.05 1.799.21 1.25-2.4 4.403-4.175 6.957-6.148 2.03-1.931 3.612-4.018 4.048-6.327.827-1.999 2.691-3.783 2.579-5.878.667-1.68.721-3.312 2.339-4.798.901-1.589.761-3.118.45-4.708-.815-3.246 4.895-5.006 5.008-8.096 2.264-2.271 5.308-4.12 8.636-5.818 2.886-2.358 3.9-5.351 7.107-7.467 2.322-1.798 6.935-1.964 7.947-4.378 3.043-2.627 1.992-6.398 6.717-8.427.528-1.939 3.782-3.079 4.678-5.008.775-1.916 3.881-3.086 4.379-5.097.142-1.178.866-2.23 1.559-3.299zM327.55 378.78c-2.279 1.208-3.565 2.89-5.637 4.198.132.08.257.185.389.27 1.529-1.455 3.593-2.755 5.008-4.258.08-.07.158-.141.24-.21zm49.989-66.002c-1.727.263-3.351.708-4.798 1.469-4.62.549-8.033 2.543-11.605 4.078-3.662 1.843-8.366 2.282-12.804 3.119-3.166.773-6.471.701-9.596 1.619-3.089 2.063-3.488 5.702-8.307 7.167-2.073 1.486-4.568 2.743-7.227 3.899a152.641 152.641 0 0 0-3.509 7.377c4.914-.851 9.67-1.793 14.065-3.269-1.002 1.346-1.477 2.79-3.029 4.048-.406 2.212-1.124 4.374-2.489 6.478-2.173 1.435-2.468 3.514-5.008 4.858-.91 1.102-1.61 2.287-2.399 3.448 2.258-1.088 4.587-2.108 5.668-3.778 1.636-1.054 4.824-.57 6.567-1.859 3.294-.638 5.268-2.323 8.156-3.329 3.066-1.485 6.251-2.965 8.697-4.798 3.134-1.468 7.783-1.666 9.386-4.048 2.818-1.602 5.912-3.183 6.807-5.488 2.772-2.46 5.456-5.027 9.806-6.717 4.317-.282 3.807-3.293 4.588-5.158 1.795-1.248 2.961-2.699 4.078-4.168-3.725.171-6.915 1.575-10.735 1.589-3.499 1.247-7.563 1.441-11.365 2.159-1.697 1.307-2.667 2.809-4.019 4.168-3.023 2.092-5.53 4.437-7.197 6.987-2.68.765-4.896 2-8.096 2.1-3.18.37-5.468 1.411-7.497 2.818-.617.237-1.257.477-1.889.69.422-.565.911-1.118 1.649-1.619.743-1.82 3.43-2.461 5.578-3.539 3.091-1.259 3.167-3.877 6.297-4.978 2.439-.833 4.604-2.014 6.477-3.298 3.048-.923 5.789-2.091 8.577-3.299.04 0 .08-.02.12-.03.15-.116.287-.218.449-.33 1.103-1.986 3.536-3.142 6.298-4.348 3.484-.715 4.669-2.92 8.126-3.838.06-.06.118-.122.18-.18zm7.047 4.948c.18 0 .358-.03.54-.03 5.317-2.033 11.54-3.721 14.394-7.287 2.39-1.581 6.097-2.414 8.307-4.079 2.03-3.147 7.52-4.704 11.515-6.957.719-1.016 1.942-1.803 3.269-2.519-.723.293-1.46.56-2.219.81-3.748.396-5.81 2.455-9.387 2.879-1.906 1.739-4.676 3.026-7.197 4.408-3.738.574-4.309 3.111-7.466 3.988-2.626 1.649-5.515 3.027-8.187 4.738-1.483 1.26-2.512 2.658-3.569 4.049zm-63.753 39.343c-1.394.672-2.763 1.362-3.778 2.249-1.889.764-3.38 1.741-4.798 2.759-.183.628-.334 1.26-.51 1.889 1.072-.966 2.222-1.891 3.928-2.579 2.653-1.055 4.022-2.646 5.158-4.318zm99.139-71.31c-.804.238-1.573.485-2.309.78.782-.244 1.566-.5 2.309-.78zm70.081.54c2.81.191 4.985 1.417 7.856 1.589 2.746.968 5.886 1.496 8.307 2.789-.681-.201-1.346-.405-1.979-.66-2.835-.758-6.333-.357-8.847-1.619-1.215-.998-4.895-1.266-5.337-2.099zm-12.115 5.547c.441.06 2.34 2.073 3.478 2.819.224.207.43.434.6.66-1.379-1.165-2.835-2.291-4.078-3.479zm6.177 1.77c2.078 2.191 3.727 4.455 6.237 6.477.629.529 1.13 1.098 1.59 1.679a8.213 8.213 0 0 0-.54-.15c-2.473-1.465-4.482-3.122-5.518-5.098-1.054-.638-1.44-2.409-1.769-2.908zm-9.356 3.088c.08-.07.323.186.6.9.09 1.905 1.628 3.565 3.058 5.248.275.608.373 1.2.42 1.799l-.03-.06c-2.504-1.955-3.402-4.509-3.688-6.837-.356-.6-.443-.982-.36-1.05zm-9.386.51c.243 1.837 2.651 3.447 1.979 5.338-.739-1.757-1.936-3.508-1.979-5.338zm-14.244 1.08c-.05.571-.138 1.14-.27 1.709a13.84 13.84 0 0 0-.15-.9c.185-.182.326-.477.42-.809zm-1.2 5.727c.407 2.39-1.548 4.785-.45 7.167-.68 1.569.707 3.109-.899 4.618.02 1.233.345 2.451.54 3.689-.478-.434-1.019-.848-1.53-1.26.291-2.002.499-3.991-.51-5.967.26-2.72 2.879-5.191 2.639-8.007.08-.08.141-.159.21-.24zm63.574 12.955c.678.447 1.275.932 1.829 1.439-.615-.478-1.212-.961-1.829-1.439zm-30.318 11.515c1.236 1.939 2.495 3.876 2.939 5.968 1.045 1.724 1.781 3.549.84 5.367-.828 1.994 1.013 3.967.81 5.938.337 1.142 1.306 2.195 2.009 3.269 2.066 1.802 2.174 4.083 3.688 6.087a27.906 27.906 0 0 1 1.679 2.249c-1.612-1.735-2.664-3.692-4.858-5.248.544-1.116.129-2.113-.509-3.088-.07-.06-.111-.124-.18-.18-2.604-2.744-4.23-6.217-2.849-9.296.491-1.374-.203-2.998-.51-4.439a7.338 7.338 0 0 0-.12-.659c-.132-.218-.25-.446-.39-.66-1.328-1.695-1.849-3.514-2.549-5.308zm-29.627 12.325c-.258.732-.707 1.454-1.47 2.129-1.838 2.615-.472 5.433-1.649 8.127.53 1.982-.553 4.147 2.129 5.757.506 2.032 4.212 3.38 2.999 5.518 2.299 3.101 1.124 6.484 2.729 9.716.126 1.619 1.572 3.204-.21 4.648-1.191 2.815-1.125 5.683-1.5 8.517-.299 2.288.851 4.449 1.26 6.687 1.192 2.581-2.564 5.074-.87 7.647.612 1.375-1.179 2.661-.449 4.138.705 2.273 1.563 4.588 2.279 6.927-.838.648 1.778.335.09-.18-1.627-2.896 2.45-5.521 1.049-8.366.937-1.667 1.392-3.453.75-5.188-.248-2.114-1.708-4.289.03-6.418.458-2.283-3.054-3.857-3.059-6.087-.04-2.273 1.983-4.317 1.859-6.627-.692-1.824.812-3.719-.629-5.518-.413-1.351 1.513-2.786 1.379-3.838-2.931-1.757-1.665-4.258-2.819-6.358-2.795-2.599-1.457-5.743-2.159-8.576-.303-1.541-.598-3.086-.57-4.588-.667-2.161 1.111-4.449-.899-6.448.04-.557-.08-1.075-.27-1.619zm41.652 16.643c.353.374.714.735 1.14 1.08.694 1.38 1.947 2.586 3.119 3.808-1.07-.878-2.151-1.76-3.149-2.639-.249-.781-.64-1.524-1.11-2.249zm-119.29 41.113c-.272.141-.57.29-.87.42-1.384.606-3.55 1.952-3.478 2.879.885.02 1.833.669 2.159-.39.864-.932 1.549-1.914 2.189-2.909z" fill="#d2c1ad"/><path d="M453.687 269.156c-39.723.697-93.048 25.151-134.062 60.844-7.856 14.543-13.141 29.916-16.625 45.75 40.338 27.995 89.316 52.744 144.281 51.094 54.562-2.209 104.151-24.163 148.969-47.688 2.448-1.89 4.757-3.879 6.969-5.906-5.758-22.603-12.667-47.857-32.75-61.781-31.865-13.805-62.603-31.06-96.282-40.188-6.257-1.58-13.143-2.254-20.5-2.125z" fill="#f1e5d6"/><path d="M448.647 271.03c-.671.04-1.351-.197-2.017.04-1.64.334-3.285.945-4.943 1.135-1.442.254-2.753 1.276-4.304.852-1.677-.228-3.334-.969-5.072-.462-1.704.213-4.017-.297-5.185 1.011.935.249 1.694-.184 2.552-.453.753-.2 1.52.01 2.225.117.307.05 1.249-.276 1.062-.124-1.17.309-2.198.989-3.404 1.167-1.195.223-2.209 1.072-3.469.844-1.347.307-2.783.977-4.133.197-1.137-.1-2.317-.223-3.364.333-1.121.343-2.115 1.329-3.381.916-1.046-.108-2.057.231-3.088.269-.853.726-2.028.819-2.985 1.101-1.542.493-2.912 1.268-4.069 2.343-.243.298 1.452 0 1.899.411 1.61.247 3.406-.503 4.818.626 1.126.569 2.156-.2 3.331-.111 1.559-.68 3.264-.756 4.939-.486 1.757-.02 3.148-1.424 4.864-1.441 1.437-1.601 3.446-2.5 5.602-2.616 1.305-.784 2.645-1.269 4.176-1.184.716-.173 2.094.384.577.38-2.245-.488-4.461.03-6.678.342-2.177.71-4.534 1.625-6.365 3.075-1.392 1.524-3.807.949-5.031 2.68-.81 1.11-1.88 1.87-3.274 2.07-1.03-.1-2.117.191-3.214.349-1.524-.431-2.831.878-4.291.06-1.701.335-3.409.05-5.091.521-1.689-.202-3.217.489-4.71 1.047-1.616.07-2.989 1.256-4.695.779-.818.3-1.914-.243-2.549.467-.275.285-1.061.362-.141-.178 1.397-.892 2.112-2.636 3.923-2.89 1.175-.951 2.808-.904 4.144-1.515 1.376-.428 2.55-1.351 4.113-1.113 1.455-.487 2.847-1.095 4.263-1.651 2.51.892 4.998-1.139 7.551-.331 2.457-.405 4.936.03 7.378-.352 2.503-.917 5.138-1.488 7.839-1.131 1.659-.07 3.345-.682 4.8-1.21.742.224 2.352-.713 2.292-.566-1.135.845-2.661.742-3.6 1.925-1.672.817-3.528 1.885-5.416 1.851-2.246-.28-4.522-.365-6.58.655-2.476.1-4.937.38-7.403.51-2.848-.109-6.076-1.249-8.702.555-1.658 1.528-3.974.736-5.989 1.161-2.246-.07-3.45 2.415-5.278 3.361-2.285 1.021-4.823 1.813-6.688 3.478-1.625.797-2.02 2.962-3.773 3.734-1.869 2.618-5.274 3.14-8.056 4.332-2.445 1.242-5.256 1.696-7.834 2.655-1.093.633-2.857-.112-3.302 1.285-.597.532-1.25.987-1.866 1.505-1.487.68-2.844 1.725-4.49 1.93-.459.137-2.029.548-.623.14 1.218-.683 2.43-.862 3.831-.739 4.063-.989 8.589-.893 12.188-3.354 2.606-.773 5.286-1.122 7.858-1.936 3.278-.01 6.595.118 9.889-.281 1.839-.937 4.109-.503 5.932-1.63 1.195-.532 2.4-1.298 3.468-1.845 1.988-1.82 4.375-3.084 6.902-3.877 1.627-.712 3.3-.877 4.384-2.445 1.837-1.831 4.541-2.487 6.392-4.289 2.088-1.284 4.305-2.449 6.789-2.359 1.713-.909 3.779-.401 5.233-1.852 2.79-.224 5.603-.65 8.137-2.001.63-.481 2.705-.288 2.591-.552-2.243.835-4.3 1.723-6.551 2.565-3.519.304-7.285-.02-10.194 2.32-2.979.677-5.707 3.016-8.905 2.137-3.122 1.402-6.705.823-9.929 1.777-1.831 1.038-4.016 1.249-5.71 2.679-2.088.5-3.59 2.038-5.462 3.073-1.331 1.598-3.673 1.846-4.796 3.799-1.586.772-1.754 2.898-3.827 2.906-1.617 1.485-3.515 2.351-5.073 3.857-3.321 2.021-7.027 3.229-10.842 3.807-1.624.799-3.09 1.726-5.02 1.79-1.347.256-2.179.49-2.754 1.812-2.639 2.513-6.035 4.251-9.599 4.762-3.504-.618-5.866 2.379-8.879 3.541a32.28 32.28 0 0 1-5.008 2.159c-1.354 1.756-3.653 2.433-5.424 3.605-1.042 1.345-3.72 1.023-4.467 2.66-.266.339 1.268-1.049 1.498-.707 2.692-1.844 5.897-2.699 8.263-5.016 2.238-1.225 3.91-3.854 6.787-3.661 2.07-1.14 4.693-.276 6.548-1.941 2.47-.596 5.648.483 7.532-1.86 2.08-1.406 4.553-2.398 7.054-2.634 1.777-1.383 4.17-1.282 5.946-2.429 2.292-.448 4.904.03 7.008-1.289 2.231-.512 4.189-1.896 6.533-1.245 2.113.119 3.785-1.557 5.891-2.102 3.557-1.378 7.075-3.561 8.77-7.004 2.873-.337 5.317-1.944 8.078-2.726 2.165-.741 4.434-.826 6.471-2.005 2.359-.485 4.362-2.193 6.796-2.311 2.187-.643 4.512-.481 6.596-1.678 2.352-1.107 5.191-.902 7.145-2.863 2.327-1.729 4.843-3.709 6.733-5.881.286-1.073 1.548-1.897-.04-.917-2.6.967-3.983 3.513-6.34 4.822-1.173 1.328-2.043 2.947-3.07 4.263-1.648 1.077-2.064 3.376-4.346 3.428-3.189 1.097-6.545 2.027-9.12 4.438-2.353.672-3.806 3.283-6.455 3.061-2.383.543-4.706 1.355-7.087 1.337-1.375.664-2.619 1.676-4.173 2.16-1.588.948-3.539.946-5.288 1.652-2.702.381-4.599 2.543-7.002 3.454-2.672.906-4.334 3.624-6.474 5.209-2.211 1.847-5.297-.491-7.708 1.291-1.822-.115-3.167.927-4.512 1.972-2.6.982-5.297 1.337-7.809 2.504-1.944.349-3.149 2.087-5.239 2.071-2.283 1.134-4.362 2.539-6.203 4.263-2.918.824-4.18 3.812-6.625 5.421-2.067 3.538-6.091 4.677-9.078 7.142-3.903.624-5.822 4.455-9.024 6.1-2.328.297-3.701 2.469-5.986 2.824-.265.834-1.587.64-1.727 1.46 1.726-1.735 3.733-3.201 6.15-3.617 2.15-2.057 5.417-2.385 7.673-4.184 2.693-2.288 5.357-4.864 8.597-6.355 2.344-2.415 4.211-5.237 5.832-8.066 1.784-1.868 4.154-2.977 6.434-4.069 3.186-.825 6.667-1.291 9.293-3.329 1.951-.598 3.766-1.244 5.393-2.604 2.689-.662 5.449-.383 8.061-1.012 1.541-.385 2.967-.221 4.495-.263 1.508-.361 2.921-1.048 4.213-1.754 2.28-.258 4.019-2.038 6.366-1.976 2.367-1.313 4.949-1.074 7.329-2.343 2.004.204 3.27-1.782 5.338-1.54 3.411-.01 5.402-3.503 8.643-4.102 1.546-1.263 3.34-1.696 5.022-2.663 2.441-1.622 4.191-4.263 7.22-4.929 2.349-.791 5.427-.878 6.909-3.33 2.366-.425 3.293-2.786 5.283-3.972 1.566-1.874 3.089-3.726 4.423-5.718.75-1.507.711-1.441-.682-.543-1.252.937-3.067.904-4.066 2.369-2.765 1.456-5.534 3.217-8.592 4.432-1.196 1.158-2.242 2.473-4.074 1.958-2.905.981-6.243 1.941-8.057 4.589-1.834 1.599-3.909 2.857-5.809 4.343-3.758 1.275-7.727 1.702-11.423 3.113-4.431 1.323-7.697 4.937-12.194 6.151-3.743 1.745-7.838 3.843-10.365 7.293-1.183 1.291-1.712 3.164-3.422 3.982-2.508 2.591-4.272 5.778-5.475 9.144-1.598 2.695-3.602 5.222-6.375 6.764-1.684 1.69-2.152 4.715-5.134 4.412-2.787 1.444-5.335 3.663-6.804 6.465-2.559 2.805-5.688 4.973-8.881 6.988-3.879.635-5.95 4.286-8.713 6.588-1.187 2.374-3.174 3.918-5.042 5.646-.941 1.856-3.447 3.096-4.062 4.558 3.017-.775 5.234-3.3 6.776-5.822.856-1.83 3.026-2.521 4.174-3.918.837-3.137 3.718-5.187 6.276-6.894 1.829-1.65 3.404-3.826 6.202-3.827 2.786-1.858 5.69-3.764 8.791-5.017 2.075-.303 4.025-.313 5.907-1.233a17.249 17.249 0 0 1 5.267-2.244c1.525-1.369 3.978-.565 5.254-2.469 2.439-1.263 4.327-3.064 5.502-5.544 2.568-2.067 5.489-3.746 8.146-5.677 1.98-2.604 2.732-5.916 5.226-8.063 2.447-1.401 3.504-4.394 6.179-5.498 1.637-2.413 4.641-2.575 6.42-4.858 1.631-1.306 3.704-2.02 5.455-3.197 2.803-.562 4.654-2.822 6.853-4.408 1.129-2.308 3.843-2.968 5.279-4.96 2.04-.987 4.396-1.3 5.636-3.492 3.368-2.267 5.89-5.318 9.253-7.517 2.235-2.029 5.452-1.868 7.701-3.881 2.422-.89-.971.899-1.643 1.573-1.487 1.115-2.608 2.859-4.387 3.798-1.244 1.822-3.123 2.792-4.262 4.682-2.031 1.298-2.804 3.889-5.131 4.875-2.398 2.222-2.919 5.461-4.466 8.236-.805 2.77-3.242 4.67-4.698 6.991-2.283 3.017-3.927 6.861-7.437 8.627-2.529 2.818-5.242 5.581-6.686 9.107-1.809 1.792-1.176 4.928-3.411 6.491-1.902 2.575-4.388 4.929-6.378 7.277-2.511 1.252-2.861 4.722-5.737 5.33-1.78.611-3.771 1.241-5.086 2.787-2.119.843-2.692 3.625-4.923 4.374-2.349 1.444-3.306 4.404-5.791 5.693-2.963 2.679-6.618 4.47-9.301 7.441-2.095 2.013-5.506 2.732-6.62 5.74-2.378 1.603-5.077 2.654-7.702 3.885 3.323-1.614 4.689-5.953 8.397-7.186 1.053-2.242 4.303-2.519 5.378-4.343.112-3.065 2.791-4.861 4.016-7.309 2.073-1.764 2.941-4.355 4.309-6.635 2.371-2.079 5.92-2.537 7.626-5.394 1.994-1.656 4.709-1.972 6.715-3.709 2.591-.731 4.893-2.288 6.994-3.987 1.857-1.178 3.267-2.951 5.092-4.149 1.75-1.652 3.322-3.457 5.173-4.95 1.358-2.049 3.914-2.614 5.869-3.505 2.016-1.947 4.285-3.723 7.03-4.526 2.484-1.323 3.682-4.194 6.284-5.208 1.354-1.544 2.414-3.173 3.215-5.036 1.271-1.865 2.68-3.643 4.663-4.864 2.264-3.05 4.864-5.587 7.707-8.043 2.002-1.687 3.716-3.444 4.534-5.957 2.156-1.558 2.899-4.178 3.743-6.552.103-1.926 1.732-3.107 2.248-4.87-.434.818-1.793 2.984-3.083 3.457-2.838 1.211-3.64 4.387-5.948 6.121-1.867 1.806-3.704 3.619-6.362 4.004-2.408 1.089-4.9 2.39-6.698 4.289-3.849 1.613-5.699 5.459-7.395 9.036-1.34 1.465-2.379 3.222-3.561 4.852-1.391 1.118-1.305 3.056-2.974 3.83-1.75 1.871-5.051 2.137-5.819 4.978-1.473 2.068-2.615 4.351-4.845 5.752.32 2.949-1.511 5.692-.878 8.57-1.34 2.9-2.206 6.022-4.24 8.555-3.794 2.061-5.63 6.139-7.519 9.881-1.245 2.865-2.46 5.826-3.777 8.65-1.625 1.571-2.983 3.614-3.564 5.712-1.22 1.498-3.192 2.611-3.142 4.761-1.343 3.341-4.567 5.614-5.442 9.258-.391.777-2.125 2.964-1.853 2.643 1.548-1.215 2.003-3.284 3.932-4.089 2.382-1.734 3.664-4.589 5.687-6.679 1.851-1.074 2.708-3.31 4.787-3.981 1.952-2.5 3.583-5.013 4.761-7.98.615-1.635.09-3.575 2.276-3.907 1.584-.47 3.302-.69 4.39-2.199 2.176-2.313 4.963-3.966 7.169-6.284 2.012-1.893 3.199-4.441 5.043-6.43 2.408-2.213 5.975-3.58 6.661-7.12.435-2.266 2.104-3.771 2.909-5.868.837-3.02 3.289-5.327 5.962-6.862 1.662-2.233 2.116-5.1 3.115-7.645.443-3.169 2.511-5.797 3.716-8.701 1.432-1.54 1.869-4.293 4.27-4.923 1.129-1.337 2.168-2.785 3.61-3.903 1.463-1.317 3.729-1.217 4.585-3.266 1.133-1.976 1.915-4.384 2.379-6.646 1.981-1.66 1.916-5.394 3.709-6.744-.949 2.152-.23 4.819-2.121 6.598-1.015 2.923-2.276 5.743-3.64 8.474-.799 2.736-.445 5.611-.111 8.369-.173 2.12-.665 4.225-.762 6.284-1.176 2.937-2.955 5.635-4.754 8.229-.726 1.82-1.477 3.751-1.624 5.647-1.656 2.059-2.943 4.679-3.222 7.434-.373 2.573-1.188 5.148-1.129 7.733-.498 2.581-2.68 4.217-3.998 6.31-1.347 1.977-2.153 4.536-4.555 5.683-1.665 1.897-4.909 1.083-5.97 3.689-2.43 2.006-5.074 3.684-6.998 6.209-2.065 1.764-1.984 4.573-3.723 6.561-.903 1.945-2.827 3.296-2.948 5.591-.308 2.209-.44 4.634-1.833 6.584-.113 3.084-2.864 5.616-3.902 7.858 1.791-2.653 1.804-6.599 4.988-8.149 1.805-2.084 3.122-4.569 3.382-7.391-.112-2.222 1.668-3.712 2.275-5.612.615-2.471.276-4.963.862-7.46.316-3.857 2.767-7.291 2.768-11.227.824-2.491 2.291-4.548 3.016-7.075 1.087-2.787.289-6.324 2.719-8.572.326-1.61 1.449-2.37 2.861-3.176 1.844-2.725 4.932-4.295 6.154-7.434 1.411-3.468 4.508-6.095 5.226-9.866 1.802-2.289 2.793-5.125 4.691-7.404.324-3.35 3.553-5.05 4.8-7.885 1.845-1.325 3.508-2.917 5.09-4.668 1.26-2.238 2.809-4.362 3.296-6.973 1.361-1.181 1.255-4.128 2.423-4.744 1.045 2.303-.419 4.805.953 7.032-.553 2.708-.525 5.677-1.895 8.105-1.789 1.913-2.091 4.85-2.645 7.314-.03 2.917-2.099 5.209-2.444 8.101-2.03 2.22-1.273 5.425-2.689 7.909-.834 2.122-1.35 4.216-1.061 6.451-.04 3.422-2.777 5.985-3.427 9.308-.336 2.83-.115 5.872-1.788 8.4-.685 2.571-1.787 4.919-3.038 7.308-.614 2.603-1.833 5.29-.55 7.947.02 2.704.373 5.298.04 7.991-.817 2.842-1.93 5.556-3.97 7.782-2.356 2.401-2.09 5.858-2.279 8.917-.458 2.502-.81 5.043-1.296 7.556-.717 1.315.66-1.23.712-1.854 1.232-2.725 4.294-4.409 4.093-7.717-.388-2.949 2.256-4.887 3.655-7.188 2.173-1.614 2.712-4.363 4.015-6.578.275-2.669 2.27-4.718 2.465-7.454 1.176-1.781-.546-4.141.883-6.052.07-2.325 1.074-4.442 1.657-6.64a53.064 53.064 0 0 0 4.135-5.539c.797-1.866 2.751-3.599 1.551-5.799-.404-2.119-.286-4.155-.671-6.279-.439-3.052 0-6.371-.794-9.328 1.648-3.001-.07-6.58 1.233-9.68.545-1.676.05-3.448.578-5.117.472-3.197.686-6.343 1.073-9.519-.439-1.536.823-2.885 1.177-4.398.97-1.617-.08-3.958 1.825-5.044.59-1.764 2.235-3.702 2.308-5.254-.151 1.869.716 3.545.524 5.454.482 2.607.998 5.363.251 7.966.06 1.675-1.033 3.4-.182 5.097-.183 2.967-.08 5.877.06 8.77-.935 3.053.896 6.249-.06 9.275-.485 2.747-2.174 5.571-.753 8.421.709 1.86 1.405 3.855.305 5.659-.475 3.798-.314 7.581.734 11.195.576 2.443-1.405 4.487-1.144 6.993a25.438 25.438 0 0 1-1.237 8.369c-.48 2.84.479 5.644.306 8.51-.205 2.647-2.022 5.495-.161 8.071.979 2.531.407 5.395 1.741 7.872.241 2.038.759 3.972.269 5.997.279 1.036.766 3.749.69 3.723.355-2.334.457-4.814.598-7.078-1.363-1.825-1.08-3.976-1.105-6.056-.867-2.662-1.354-5.38-.493-8.115 1.162-2.023 1.422-4.269 1.759-6.596.849-2.066.823-4.439 1.842-6.414-.575-2.836-.173-5.584.88-8.27-.02-2.15-.375-4.283.279-6.408-.41-1.535-1.061-2.881-.741-4.534-.473-2.423-1.023-4.82-1.723-7.24-1.746-2.476.536-5.439-.268-8.206 1.16-2.617.709-5.374.627-8.135.08-3.565.08-7.185-.894-10.637-.646-2.375-1.001-4.825-1.802-7.219-.33-1.798.296-3.383-.03-5.132-.328-3.517 1.052-6.939.638-10.466 1 1.538.567 3.528 2.11 4.796 2.227 1.877.09 4.654 1.143 6.937 1.012 4.266 5.959 6.349 6.477 10.828 1.73 2.114 1.799 5.023 1.183 7.496.38 2.624 1.103 5.205 1.172 7.832-.195 2.119.992 4.155.644 6.333 1.188 1.703 1.416 3.66 2.905 5.164.961 1.36.463 3.24 1.519 4.662.173 2.776.727 5.522.162 8.223-.06 2.33 1.034 4.53 2.553 6.205-.265 2.316 1.559 4.207 2.278 6.263 1.455 2.062 2.935 4.125 4.562 6.07 1.08 2.211.171 4.68 1.384 6.876.305 2.028-.643 3.89-.207 5.881-.551 3.132-.495 6.356.285 9.452-.516 1.792.756 3.456-.222 5.145.279 1.632-.338 2.098-.941.41-1.817-1.862-2.045-4.418-3.247-6.636-.448-3.797.1-7.793-1.781-11.269-.173-3.147-3.022-5.867-2.171-9.214-.42-3.062-1.182-6.005-1.699-9.043-.532-1.509-1.613-2.946-1.992-4.511-1.168-1.058-1.192-2.961-2.63-3.839-2.01-1.695-2.512-4.379-4.415-6.236-1.189-2.445-1.92-5.074-1.797-7.813-.46-1.911-.325-4.02-1.529-5.773-.396-2.644-2.245-4.928-1.945-7.643-.09-2.549-.582-4.933-1.26-7.393.111-1.791-.561-3.512-.493-5.308-.436-1.975-.499-4.035-.29-5.998.13-2.618 1.38-5.054.619-7.723.08-2.231-.986-4.664.535-6.68.03-1.407.375-3.698 1.188-4.295 1.04 2.317 2.626 4.242 4.749 5.614.253 2.877 2.999 4.61 4.145 7.061 1.815 1.775 3.479 3.572 4.312 5.947 1.026 1.896 2.929 3.271 3.121 5.54 1.403 2.33 2.896 4.971 5.587 5.851 3.737 2.759 6.532 6.599 7.708 11.167 1.077 2.537 3.033 4.501 4.153 6.987 1.358 2.181.175 5.057 2.088 7.091.962 2.238 1.743 4.572 3.429 6.426 1.623 2.423 1.483 5.627 3.326 7.919.978 1.604.396 3.782 1.699 5.401.925 3.58 1.931 7.466.678 11.164.479 3.998 1.749 7.84 3.391 11.518 1.909 2.23 1.172 5.293 2.235 7.901-.247 1.008.05 3.126-.441 1.06-.511-2.884-2.124-5.447-2.067-8.372-1.088-2.244-.41-5.042-2.429-6.79-.716-2.125-2.852-3.351-4.139-4.94-1.027-1.975-2.485-3.941-2.616-6.288-2.903-2.473-2.435-7.452-6.375-8.878-1.363-1.195-1.829-3.308-3.536-4.25-2.416-2.212-2.536-6.278-5.533-7.983-1.155-3.671-4.002-6.909-3.713-11.002.08-2.298 1.399-4.417.751-6.772-.898-2.897-3.013-5.245-3.19-8.358-.511-2.357-1.938-4.413-2.428-6.868-.975-2.065-2.82-3.677-2.688-6.18-.892-1.873-.785-4.05-2.163-5.626-.636-1.746-1.855-3.411-2.222-5.201-2.233-1.563-1.964-4.481-2.705-6.72-.07-1.059-1.196-2.839-1.066-3.197 1.866 1.068 3.221 2.779 5.31 3.534 2.207 1.874 4.457 3.61 5.99 6.064 1.702 1.118 2.781 2.915 4.619 3.849 1.075 1.742 1.604 3.698 3.585 4.608 1.53 1.607 3.719 2.256 5.502 3.3 1.49 2.131 3.906 3.642 4.341 6.434 1.895 2.163 2.836 4.83 4.12 7.316 1.759 1.728 3.335 3.679 5.008 5.44.88 2.326 2.313 4.265 3.771 6.238 1.436 2.414 4.447 4.1 5.115 7.053 1.908 3.268 6.583 4.747 6.913 8.933.351 3.085 2.869 5.376 5.125 7.231 1.212.963 1.378 2.988 2.86 3.908 1.975 3.495 3.048 7.738 6.376 10.165.679 3.44 4.224 5.851 4.017 9.628.918 3.103 3.091 5.699 3.559 8.951-.593-1.078-2.448-2.523-3.202-4.046-1.198-2.482-4.105-3.531-5.491-5.845-1.443-1.49-2.262-3.405-3.531-5.001-1.304-2.492-.515-5.593-2.968-7.416-1.181-2.585-1.549-5.36-3.651-7.387-1.093-1.81-2.255-3.388-3.924-4.739-.705-2.414-2.74-4.071-3.007-6.58-1.582-2.071-3.502-3.503-5.286-5.397-.931-1.061-2.1-2.063-2.841-3.239-2.108-.916-3.667-2.645-5.684-3.662-1.588-.508-2.847-1.947-4.341-2.775-1.065-1.895-2.727-3.295-4.246-4.86-1.437-2.864-4.368-4.79-5.367-7.941-2.103-1.329-3.197-3.633-5.08-5.232-.638-2.629-2.112-4.946-3.622-7.17-1.351-1.739-1.122-4.214-2.461-6.038-2.213-2.634-4.136-5.581-4.791-8.983a49.699 49.699 0 0 1-5.125-6.227c1.84 2.388 1.665 5.918 4.603 7.391 1.988 2.838 5.202 4.772 6.622 7.941.315 2.721 3.285 4.429 4.099 7.052 2.345 1.893 4.03 4.505 6.477 6.233 1.909.692 3.739 1.742 5.068 3.326 2.34 1.999 4.463 4.555 7.497 5.481 2.728.408 3.677 3.489 6.251 4.388 2.839 2.256 5.202 4.943 8.215 6.969 1.573.914 2.73 2.23 4.026 3.53 2.581.735 3.588 3.584 6.083 4.422 1.683 1.948 5.191 1.746 5.58 4.768 2.091 1.819 3.51 4.468 6.462 4.978 3.328 1.466 6.689 3.326 8.518 6.688 1.922 2.022 3.248 4.62 6.258 5.03 1.875 2.061 5.228 2.669 5.827 5.785 1.477 1.815 2.404 4.114 4.219 5.586 2.63 1.083 4.011 4.532 5.158 6.321-2.387-1.184-3.726-3.747-5.544-5.576-1.12-1.627-2.005-3.355-3.455-4.693-.991-2.546-3.734-4.2-5.007-6.636-1.997-2.642-3.879-5.549-7.29-6.454-3.217-1.459-3.78-5.422-6.496-7.44a252.14 252.14 0 0 0-4.982-5.204c-2.508-.958-4.982-2.765-4.884-5.701-.504-2.161-2.039-4.037-2.357-6.339-1.34-2.885-4.612-4.313-5.426-7.406-2.042-1.983-3.143-4.955-6.227-5.625-2.814-1.687-4.896-4.234-7.289-6.428-2.735-1.064-4.626-3.633-7.583-4.257-2.859-1.282-6.465-1.217-8.582-3.941-4.291-.782-4.94-6.42-9.17-7.323-1.86-.873-3.594-1.858-4.665-3.628-1.62-1.315-3.035-2.866-4.798-3.99-2.54-1.448-1.966-5.454-4.405-7.208-1.999-1.969.69 1.406.994 2.388.892 1.487 2.639 2.149 3.527 3.677 1.59 1.379 3.568 2.087 4.903 3.786 4.209 2.043 7.827 5.081 11.863 7.375 2.582 2.078 5.115 4.21 7.762 6.266 2.985 1.196 5.104 3.829 7.007 6.181 2.07.768 3.964 1.652 6.024 2.485 1.964 1.124 4.308 1.494 5.972 3.129 1.716 1.674 3.137 3.724 4.798 5.404 1.186 1.948 3.653 2.869 4.48 5.172 2.751 1.643 4.601 5.255 8.18 5.196 1.901.465 3.512 2.101 5.557 1.947 2.084 1.845 4.767 3.019 6.788 4.998 2.145.911 3.234 3.33 5.323 4.376 1.3 2.01 3.324 3.098 4.542 5.176 2.164 2.216 3.61 5.457 6.871 6.293 2.177 1.913 3.432 4.744 6.358 5.725 2.143 1.419 4.591 2.439 6.561 4.191 2.705 2.911 7.043 2.741 10.374 4.527.594.849 3.62 1.977 1.268 1.128-2.117-.834-4.266-.822-5.868-2.603-4.283-1.684-7.355-5.038-10.157-8.62-1.509-1.752-2.487-3.998-4.598-5.242-3.033-2.617-5.74-5.573-9.234-7.533-2.614-1.459-4.555-3.756-7.575-4.568-1.613-1.645-4.126-1.376-5.823-3.087-3.233-.518-5.978-2.32-9.095-3.308-2.143-.927-4.204 1.066-6.357.156-1.799-.05-3.453-1.382-5.378-1.035-2.332-2.18-5.649-3.607-6.829-6.807-1.165-1.978-3.548-2.629-4.551-4.706-1.68-3.045-5.238-3.578-7.995-5.171-2.9-2.832-4.904-6.424-7.761-9.165-2.129-.771-3.298-2.911-5.037-4.286-2.741-2.85-5.76-5.664-7.135-9.495-1.876-1.639-3.844-3.011-5.778-4.588-.961-2.47-3.674-3.394-4.625-5.895-.861-.939-1.591-2.706-2.21-3.315 1.715.95 3.832.835 5.252 2.324 1.723 1.713 4.094 2.256 6.321 2.939 2.268 2.212 5.723 2.995 7.265 5.955 2.137 1.698 4.04 3.874 6.364 5.078 2.982.913 4.928 3.606 7.902 4.504 2.116.463 3.493 2.509 5.852 2.263 3.142.02 6.418.883 8.959 2.745 2.234 2.372 5.475 3.773 8.748 3.317 2.78.703 5.321 1.758 8.036 2.445 1.217 2.022 4.267 2.086 4.879 4.536 1.807 2.32 4.303 3.624 6.424 5.569 1.668 1.487 4.119 1.694 5.753 3.366 4.038.461 6.34 4.645 10.445 4.964 2.134 1.079 4.17 2.759 6.534 3.711 2.248 1.965 5.704 1.459 7.885 3.338 3.205.859 5.092 4.121 7.02 6.586 1.095 1.207 2.846 1.753 3.972 3.009.496.234-.717-.928-.491-.486-2.341-1.982-5.757-1.805-8.339-3.538-2.724-.207-3.539-3.13-5.707-4.301a43.34 43.34 0 0 1-4.053-2.93c-2.542-.07-4.522-1.617-6.61-2.763-2.684-.04-3.531-2.949-5.828-3.751-2.96-1.597-4.924-4.648-8.075-6.03-2.607-1.946-6.151-2.124-8.209-4.954-2.658-1.673-5.485-3.044-8.336-4.156-1.028-2.038-3.222-2.631-5.274-2.875-2.753-1.549-5.899-2.859-8.218-5.056-3.162-2.927-6.755-5.336-10.821-6.736-1.614-2.55-4.676-2.713-6.833-4.535-1.261-1.481-3.075-2.234-4.995-2.261-2.469-1.162-4.314-4.023-7.31-3.273-2.364-.273-4.838-.5-6.709-2.03-2.826-1.408-4.577-4.379-7.819-4.983-1.927-.673-3.86-2.436-5.08-3.466 1.876.957 3.309 2.444 4.676 3.905 1.808 2.068 3.706 4.221 5.864 5.88 2.388.885 4.948 2.05 7.529 1.916 2.145 2.38 5.557 2.731 7.769 4.986 1.963.607 3.853.752 5.796 1.096 2.36 2.326 5.731 3.189 8.55 4.697 1.726 0 2.65 2.303 4.472 2.567 2.024 1.094 4.479 2.16 6.746 1.986 2.931.06 5.857-.839 8.822-.08 2.916-.603 5.436 1.742 8.415 1.426 2.321 1.239 4.827 2.62 7.558 2.225 2.686.265 4.725 2.418 7.011 3.376 2.473.402 4.576 1.845 7.075 2.136 1.813.952 4.013.987 5.596 2.398 2.126.6 2.831 3.276 5.218 3.493 1.159 1.102 4.051 1.506 4.945 2.08-.652-.626-.953-1.585-2.128-1.69-1.89-.78-4.098-1.062-5.792-2.04-3.013-2.519-6.825-3.973-10.725-4.385-1.788-.479-3.724-.77-5.591-.15-2.174-1.044-5.135-.987-6.51-3.372-1.606-1.5-3.604-2.428-4.966-4.267-2.149-1.385-2.959-4.208-5.633-4.75-2.119-1.438-4.684-1.804-6.726-3.389-3.286-.341-6.7-.156-9.813-1.28-2.109-.353-3.498-2.489-5.84-2.319-2.624-1.036-5.713-.992-7.86-3.045-2.418-.505-4.823-1.226-7.178-1.85-2.776-1.322-5.354-2.737-8.49-2.93-2.81-1.227-5.818-2.063-7.817-4.532-2.451-2.341-5.32-4.229-8.628-5.039-.285-.288 1.798.516 2.24 1.114 1.535 1.082 3.513 1.172 5.206 1.331 2.177 1.327 4.51 2.402 6.999 3.016 1.755.145 2.735 1.739 4.306 2.243 2.001 1.08 4.414.694 6.349 1.667 2.347.778 4.844 1.165 7.065 2.361 3.609 1.481 7.734.121 11.257 1.959 2.451.302 4.105 2.341 6.361 3.101 1.856.39 3.556 1.092 5.492.801 1.086.153 3.36.716 3.662 1.04-.833-.59-1.754-.981-2.723-1.278-.701-.678-1.326-1.299-2.235-1.714-1.173-.941-2.796-.744-4.031-1.531-1.576-.178-2.943-1.067-4.299-1.833-1.463-1.453-3.493-1.985-4.776-3.662-1.974-.438-3.194-2.025-4.927-2.909-1.253-.505-2.063-1.748-3.474-2.054-1.288-.02-2.86-.195-4.217-.568-1.23-.868-2.558-.577-3.941-.639-1.926-.36-3.961.239-5.635-1.126-1.623-1.159-3.746-.715-5.519-1.509-1.645.116-3.057-.534-4.37-1.389-1.896.701-3.911-.395-5.864-.168-.732.221.981.761 1.454.832 1.323.309 2.652-.294 3.917-.08.866.806 1.945 1.233 3.072 1.521 1.885.22 3.482 1.154 5.236 1.817 1.707.357 3.303.939 5.053.575.561.312 1.932.07 2.057.1-.769-.123-1.367-.797-2.173-.776-.83-.411-1.689-.841-2.582-1.103-.968-.971-2.65-.756-3.607-1.739-.885-.442-1.899-.726-2.842-.958-1.208.163-2.26-.769-3.465-.374-1.385-.01-2.847.184-4.074-.633-.841-.269-2.717-.162-2.905-.07 1.459-.116 2.928-.126 4.369.07 1.712.784 3.537 1.293 5.413 1.185.788.375-.503-.519-.915-.383-1.108-.613-2.391-.903-3.631-1.002-2.027.06-4.186-.179-5.767-1.522-.987-.746-2.257-.762-3.296-1.423-.967-.302-1.935-.09-2.893-.325-.937.05-1.833-.435-2.644-.873-1.152-.494-2.509-.07-3.737-.39-.882-.178-1.782.08-2.592.168-1.321-.365-2.603.501-3.928.158-1.448.159-2.83-.305-4.127-.868-1.102.02-2.164-.305-3.287-.327" fill="#e4dace"/><path d="M597.854 353.857c-8.72 25.14-26.057 33.125-38.728 40.271-87.607 49.41-122.861 41.224-222.887-2.304-9.49-7.682-22.068-15.66-28.136-34.842-7.902 24.806-12.285 56.346-10.961 88.361-2.194 56.315 12.875 113.059 34.723 130.744 80.019 66.633 135.411 66.718 232.51 6.345 24.173-15.03 48.134-71.039 45.387-136.995 1.322-33.16-3.397-66.259-11.908-91.58z" opacity=".616" fill="url(#h)"/><circle transform="matrix(0 1.45742 -1.33165 0 993.208 -294.649)" cx="521.239" cy="424.047" r="34.345" fill="url(#i)" filter="url(#j)"/><path d="M453.676 274.328c-4.02.07-8.186.407-12.474.97l3.009 2.31-3.476-2.253c-.225.03-.447.05-.672.08l1.343 1.255-1.577-1.226c-1.134.161-2.298.348-3.447.542l2.249 2.566-2.6-2.509c-1.468.251-2.92.523-4.411.827l2.658 1.055-3.447-.884-.409.09 9.349 2.424-8.589-1.482 1.373.798-1.987-.913-2.162-.37c-1.316.297-2.642.605-3.973.941l7.333 1.34-8.91-.941a187.815 187.815 0 0 0-12.825 3.879l4.791.399 21.443-.285-13.38.941 15.162 1.226-33.888.08-.292.03 26.526 4.078 1.723-.285-1.46.342 1.314.2 1.607-.514-1.373.542 2.483.399 1.11-.256-.905.285 2.6.399-2.863-.313-4.002 1.254.934-.03-1.752.855.467-.06 1.344-.798 4.44-.114-5.784.912-44.259 25.866 31.522-10.266 17.879-12.406-14.899 11.436 10.721-3.508 6.573-4.819.03-.03 2.454-1.796-3.184 2.652-2.512 2.909 4.323-1.398.906-1.483-.672 1.398 2.016-.656-2.133.884-1.519 3.165 3.009-1.482 2.659-1.312-3.623 2.281-3.418 3.337-47.034 97.56c1.416.517 2.818.992 4.206 1.483l22.67-40.952 25.066-60.715-13.964 40.667 22.115-39.897.555-3.337-.322 2.881.351-.628-.38.799-.906 8.27-1.168 2.881-.292 1.768 1.46-4.592-1.577 13.917.438-1.312 2.6-22.871-.876 17.766 2.278-6.872.76-2.282-.701 3.593 5.667 104.206c1.291 0 2.567-.02 3.857-.06l-.351-64.851-5.259-44.459 5.171 27.491-.117-21.873-2.804-11.55 2.775 8.384v-2.025l.263 2.738.935 2.823-1.052-6.416-1.139-2.567 1.052 1.94-.848-5.248 1.49 6.417 1.169 2.167-.467-1.454 1.402 3.165 50.657 93.226c1.383-.56 2.768-1.168 4.177-1.768l-18.843-39.754-27.402-45.259-9.729-12.918 6.194 7.072-1.578-2.595-1.723-1.996 1.285 1.255-3.827-6.332 6.836 9.269 10.225 9.953-6.077-12.862-3.447-3.536 3.038 2.68-2.541-5.361 3.418 6.131 84.194 74.148c.645-.356 1.302-.711 1.958-1.084l-83.669-77.912-7.041-5.504-1.957-1.226 1.432.827-.322-.257 1.198.77 2.279 1.284-4.791-4.449 7.887 6.245 106.66 61.257c.272-.401.553-.81.818-1.226l-100.174-60.43-10.809-3.479 9.611 2.766-2.483-1.511 4.265 2.025 20.537 5.874-19.807-9.867-4.002-1.226 2.483.485-2.512-1.255 4.908 1.711 80.922 15.77a48.769 48.769 0 0 0-2.571-1.853 590.834 590.834 0 0 1-10.429-4.535l-54.601-12.519-15.191-2.51 5.551.314-13.439-3.08 19.837 3.451 30.002 1.682a740.147 740.147 0 0 0-13.79-6.033l-23.78-2.11-6.485 1.055 5.434-1.14-1.373-.143-14.344.2 9.202-.656-5.609-.485 14.227-.114 5.229-.371 5.434-1.141c-4.753-1.831-9.552-3.563-14.402-5.133l-5.171 1.939-2.22 1.227 1.548-.97-7.771 2.937 11.13-5.589-8.91 2.253 5.23-1.911-7.45 1.198 6.807-1.683-7.07.2 9.348-.998c-2.305-.695-4.618-1.379-6.952-1.997a60.42 60.42 0 0 0-2.016-.456l-3.564 3.109 3.126-3.223c-.375-.08-.761-.13-1.14-.2l-.233.286.175-.286c-4.846-.883-10.035-1.263-15.513-1.169zm23.839 4.734l2.132-.06-1.489.542 3.797-.599h.06c-.593-.185-1.188-.361-1.782-.542l-2.717.656zm4.323.143l.556-.143-.176-.06-.38.2zm-3.359 2.652l.672-.257 4.119-2.253c-.167-.05-.33-.118-.497-.171zm14.811 4.078l-1.606.342-3.623.03-8.618.599 5.142.456 2.074-.03-.701.172 1.051.08 1.607-.257 15.98-.199c-.761-.309-1.516-.637-2.279-.941l-7.186.06 4.703-.77-6.544.456zm6.544-.456l.555-.03c-.03-.01-.06-.04-.09-.06l-.468.09zm-5.258 8.584l-6.398-.371 9.64 2.196 42.565 7.072c-1.111-.509-2.22-1.03-3.33-1.54zm-10.079 4.962l-2.396-.456 1.52.741 14.314 4.449zm13.438 4.734l60.473 21.189 20.946 5.989a68.226 68.226 0 0 0-1.577-2.51zm60.473 21.189l-54.98-15.771 6.31 3.137 72.1 23.186c-.487-.959-.968-1.917-1.49-2.852zm-48.67-12.634l-24.219-7.785 102.453 48.338c.15-.395.294-.793.439-1.198-.03-.08-.06-.171-.09-.256l-78.585-39.099zm-24.219-7.785l-2.629-1.226-1.782-.514 1.198.713zm-10.517-.628l-3.096-1.796.409.399-2.688-1.682-.876-.514.526.399 3.447 2.196 3.593 3.308 92.403 72.294c.106-.08.216-.149.322-.228l-91.44-72.322 100.847 63.453c0-.01.02-.02.03-.03l-101.635-64.023-1.841-1.454zm-1.168 7.159l-.877-.77.409.855 1.227 1.283zm.759 1.368l8.385 15.001 65.001 63.253c.605-.326 1.201-.666 1.811-.998zm8.385 15.001l-3.535-3.422 2.658 5.561 5.814 6.673zm4.937 8.812l1.022 1.854 50.161 57.264c.08-.04.157-.07.233-.114zm1.022 1.854l-6.105-6.987 1.753 3.736-8.063-10.923-8.297-9.468 3.535 5.846 16.009 21.218 11.393 24.041 22.962 37.957c.886-.394 1.791-.816 2.688-1.226l-25.095-44.916 31.581 41.893c.222-.108.448-.233.671-.342l-37.014-50.049zm-12.415-14.174l6.31 7.187-.731-1.54-9.202-10.58zm-3.623-4.933l-3.681-4.934-3.009-2.937.438.741zm-9.728-5.134l-.935-1.711 1.315 4.078 42.009 93.967c.09-.03.176-.05.263-.08l-42.652-96.249zm.38 2.367l-2.162-4.848 3.009 13.004 29.798 89.49c.256-.07.502-.153.759-.228zm.847 8.156l-2.834-8.526 2.103 13.146 21.151 87.209c.263-.06.525-.113.789-.171zm-.731 4.62l-2.541-10.494 4.002 43.376 10.546 56.009c.745-.109 1.502-.219 2.25-.342zm1.461 32.882l-4.616-24.526.09 16.969 7.625 64.422c.711-.06 1.42-.126 2.132-.2l-5.229-56.665zm-4.002-43.376l-.497-5.476-.263-.713.03 3.166.731 3.023zm.263-7.13l-.322-1.397-.642-1.169.09.627.877 1.939zm-9.962 3.651l-.06-1.312-.146 2.452.205-1.14zm-.205 1.14l-2.6 13.518-4.44 88.862.847.09 6.193-102.466zm-2.6 13.518l.468-9.097-1.724 5.104-2.892 25.581zm-4.148 21.588l-.584 3.051-7.041 63.282c.04 0 .08.02.117.03l7.508-66.362zm-.584 3.051l3.038-27.32-3.038 9.154-13.672 80.279c.569.11 1.128.238 1.694.342zm0-18.166l3.155-18.479-30.266 95.649c.429.115.859.231 1.286.343zm3.447-20.247l1.811-10.524-33.099 71.723-11.218 32.739c1.447.459 2.874.885 4.294 1.312zm-31.288 61.199l11.043-32.168-11.102 20.048-17.616 42.72c1.046.355 2.066.688 3.097 1.027zm33.099-71.723l.263-.627.03-.171-.233.456zm-13 1.512l.672-1.369-.555.428-.146.114-.994.827-.671 1.084-4.499 5.047 3.505-3.45-1.285 2.053 2.045-2.795zm-3.973 4.734l-8.881 12.263-46.392 75.943c.166.06.332.107.497.171zm-8.881 12.263l6.661-10.866 2.395-3.935-1.636 1.283-4.44 6.274 3.564-3.536-5.2 5.875-55.185 77.854c.271.109.519.234.789.342zm1.344-4.905l1.636-2.339-26.585 26.208-42.185 49.137c.483.2.981.4 1.461.599zm-24.949 23.869l21.151-24.639-8.823 6.987-61.524 63.852c.539.226 1.101.459 1.636.684zm12.328-17.652l10.722-11.123-13.789 8.613-70.902 59.061c.45.351.898.713 1.344 1.055zm-3.067-2.51l13.467-11.179-7.157 3.508-34.034 25.01zm-27.724 17.339l-22.29 13.974-28.104 21.559c.303.293.6.601.906.885zm-22.29 13.974l40.958-31.427-12.913 6.359-60.502 41.951c.635.772 1.272 1.51 1.928 2.224zm28.045-25.068l23.371-16.226-51.738 21.303-39.993 23.384a51.22 51.22 0 0 0 1.869 4.25zm-28.367 5.077l27.403-16.028-29.564 9.64-35.203 16.996a150.008 150.008 0 0 0-2.22 5.704zm-2.161-6.388l73.356-35.448-3.535.57-9.115 2.88-89.774 36.019a142.649 142.649 0 0 0-3.272 6.502zm60.706-31.998l5.989-2.395 3.126-.485 4.353-1.397-2.25.09-1.694.371.905-.371-1.577.06-4.908 1.597-6.427 1.454 3.652-.57-75.548 24.469c-.559.41-1.109.84-1.665 1.254l76.044-24.069zm-2.483-1.083l-17.616 2.766-35.057 8.299a247.92 247.92 0 0 0-2.541 1.568zm-17.616 2.766l23.984-5.675-5.024.142-42.711 7.329a263.677 263.677 0 0 0-4.82 2.681zm18.96-5.533l13.175-2.253-28.892-3.137c-4.75 1.88-9.515 3.984-14.286 6.246zm13.175-2.253l.555.06.906-.228-.263-.06zm.555.06l-8.706 2.054 4.967-.143 5.375-1.74zm1.636.171l.321.03.497-.2-.234-.03zm.321.03l-4.119 1.654h.789l5.931-1.369zm2.601.285l.321.03.263-.09-.205-.03zm-23.956 22.644l5.171-2.139 4.996-3.822-2.98.97zm5.171-2.139l-15.629 12.006 15.366-7.558 13.351-9.838zm13.088-5.39l2.687-1.112 1.695-1.369-1.753.542zm4.382-2.481l1.052-.343 2.6-2.709zm3.652-3.052l.467-.399.701-.827zm-2.6 2.709l-.994.999.818-.314.731-.884zm-.176.685l-4.207 4.876 4.295-2.11 2.804-3.964zm2.892-1.198l-2.249 3.707 2.074-1.026 2.162-3.508zm1.987-.827l.292-.114.117-.228-.234.09-.175.257zm-2.162 3.508l-.905 1.454 1.314-.827.526-1.083zm.409.627l-.175.371 1.607-1.283zm1.432-.912l1.139-.685.964-.969zm-2.746 1.739l-2.338 1.455-.993 1.654 2.775-2.196zm-2.338 1.455l1.169-1.883-.555.257-1.578 2.225zm-.964.599l-6.076 3.821-5.463 6.36 9.874-7.843zm-6.076 3.821l3.359-3.936-1.898.942-5.025 5.218zm1.461-2.994l5.287-5.504-1.753.713-8.881 7.443zm-23.897-23.642l-.146-.03h.438l18.726-1.312-8.063-.656-6.164.08a211.743 211.743 0 0 0-5.376 1.94l.585-.03zm26.701-7.244l.614.115-1.344-.799c-.175.04-.351.08-.526.114z" fill="#fff"/><path d="M453.65 275.216c-37.676.653-88.252 23.551-127.152 56.973-4.468 8.166-8.065 16.602-10.937 25.253 5.755 17.962 17.703 25.434 26.705 32.628 94.869 40.759 128.295 48.432 211.386 2.165 12.007-6.686 28.416-14.168 36.693-37.66-5.024-15.484-12.239-30.364-25.934-39.738-30.222-12.926-59.376-29.084-91.318-37.631-5.935-1.48-12.466-2.111-19.443-1.99z" opacity=".5" fill="url(#k)"/></g></svg>