<svg xmlns:osb="http://www.openswatchbook.org/uri/2009/osb" xmlns="http://www.w3.org/2000/svg" xmlns:xlink="http://www.w3.org/1999/xlink" width="288.973" height="253.343"><defs><linearGradient id="c"><stop offset="0" stop-color="#da53c6"/><stop offset=".677" stop-color="#b1299e"/><stop offset="1" stop-color="#cb7dcb"/></linearGradient><linearGradient id="b"><stop offset="0" stop-color="#e8ff42"/><stop offset="1" stop-color="#e8ff42" stop-opacity="0"/></linearGradient><linearGradient osb:paint="gradient" id="a"><stop offset="0" stop-color="#c22aab"/><stop offset=".75" stop-color="#b2b244"/><stop offset="1" stop-color="#a67f72"/></linearGradient><linearGradient xlink:href="#a" id="w" gradientUnits="userSpaceOnUse" gradientTransform="matrix(.68122 .17441 -.09934 .73665 147.192 -128.4)" x1="64.795" y1="415.388" x2="70.905" y2="383.647"/><linearGradient xlink:href="#a" id="v" gradientUnits="userSpaceOnUse" gradientTransform="matrix(.8142 -.18377 .12542 .804 65.64 -130.235)" x1="37.189" y1="411.725" x2="30.51" y2="372.348"/><radialGradient xlink:href="#b" id="o" gradientUnits="userSpaceOnUse" gradientTransform="matrix(.8254 0 0 .71152 -162.38 -102.968)" cx="453.466" cy="346.649" fx="453.466" fy="346.649" r="72.333"/><radialGradient xlink:href="#b" id="m" gradientUnits="userSpaceOnUse" gradientTransform="matrix(1 0 0 .97722 -392.65 -198.126)" cx="582.451" cy="400.421" fx="582.451" fy="400.421" r="37.482"/><radialGradient xlink:href="#b" id="k" gradientUnits="userSpaceOnUse" gradientTransform="matrix(1 0 0 .63567 -392.65 -79.265)" cx="466.121" cy="345.79" fx="466.121" fy="345.79" r="73.472"/><radialGradient xlink:href="#b" id="h" gradientUnits="userSpaceOnUse" gradientTransform="matrix(1 0 0 1.55783 -392.65 -364.939)" cx="538.442" cy="282.688" fx="538.442" fy="282.688" r="39.611"/><radialGradient xlink:href="#c" id="j" cx="130.321" cy="145.016" fx="130.321" fy="145.016" r="78.809" gradientTransform="matrix(1 0 0 .95097 -47.216 6.598)" gradientUnits="userSpaceOnUse"/><radialGradient xlink:href="#c" id="g" cx="192.042" cy="78.38" fx="192.042" fy="78.38" r="51.215" gradientTransform="matrix(1 0 0 1.53017 -47.216 -42.068)" gradientUnits="userSpaceOnUse"/><radialGradient xlink:href="#c" id="n" cx="268.466" cy="142.183" fx="268.466" fy="142.183" r="68.223" gradientTransform="matrix(1 0 0 1.1668 -47.216 -24.228)" gradientUnits="userSpaceOnUse"/><radialGradient xlink:href="#c" id="q" cx="197.519" cy="173.215" fx="197.519" fy="173.215" r="36.638" gradientTransform="matrix(.75896 .0102 -.01332 .99148 2.495 .6)" gradientUnits="userSpaceOnUse"/><radialGradient xlink:href="#b" id="z" cx="195.496" cy="171.513" fx="195.496" fy="171.513" r="41.915" gradientTransform="matrix(1 0 0 .68335 -47.216 53.797)" gradientUnits="userSpaceOnUse"/><radialGradient xlink:href="#b" id="i" cx="147.018" cy="197.401" fx="147.018" fy="197.401" r="37.482" gradientTransform="matrix(1 0 0 .97722 -47.216 3.984)" gradientUnits="userSpaceOnUse"/><linearGradient xlink:href="#d" id="p" gradientUnits="userSpaceOnUse" gradientTransform="matrix(.68122 .17441 -.09934 .73665 147.192 -128.4)" x1="64.795" y1="415.388" x2="70.905" y2="383.647"/><linearGradient osb:paint="gradient" id="d"><stop offset="0" stop-color="#c22aab"/><stop offset=".75" stop-color="#b24489"/><stop offset="1" stop-color="#a67f72"/></linearGradient><linearGradient xlink:href="#d" id="r" gradientUnits="userSpaceOnUse" gradientTransform="matrix(.68122 .17441 -.09934 .73665 147.192 -128.4)" x1="59.964" y1="443.272" x2="44.556" y2="345.319"/><radialGradient xlink:href="#c" id="l" gradientUnits="userSpaceOnUse" gradientTransform="matrix(.62643 .6457 -.27851 .50448 1.24 -279.21)" cx="458.124" cy="345.078" fx="458.124" fy="345.078" r="76.164"/><radialGradient xlink:href="#c" id="f" gradientUnits="userSpaceOnUse" gradientTransform="matrix(-.50114 .73684 -.38901 -.46618 465.354 7.426)" cx="457.854" cy="345.063" fx="457.854" fy="345.063" r="75.918"/><radialGradient xlink:href="#c" id="s" cx="148.284" cy="169.587" fx="148.284" fy="169.587" r="41.915" gradientTransform="matrix(1 0 0 .71749 0 47.91)" gradientUnits="userSpaceOnUse"/><radialGradient xlink:href="#c" id="e" cx="653.316" cy="515.214" fx="653.316" fy="515.214" r="28.537" gradientTransform="matrix(1 0 0 .8761 0 63.832)" gradientUnits="userSpaceOnUse"/><radialGradient xlink:href="#c" id="u" cx="359.286" cy="397.005" fx="359.286" fy="397.005" r="1.071" gradientTransform="matrix(1 0 0 8.33333 0 -2911.37)" gradientUnits="userSpaceOnUse"/><radialGradient xlink:href="#b" id="x" cx="388.151" cy="433.391" fx="388.151" fy="433.391" r="1.768" gradientTransform="matrix(1 0 0 3 0 -866.782)" gradientUnits="userSpaceOnUse"/><radialGradient xlink:href="#b" id="y" cx="388.151" cy="433.391" fx="388.151" fy="433.391" r="1.768" gradientTransform="matrix(1 0 0 3 0 -866.782)" gradientUnits="userSpaceOnUse"/><radialGradient xlink:href="#b" id="t" cx="546.998" cy="306.365" fx="546.998" fy="306.365" r="14.647" gradientTransform="matrix(1 0 0 .86207 0 42.257)" gradientUnits="userSpaceOnUse"/></defs><path transform="matrix(1.19739 0 0 1.19739 -633.278 -464.256)" d="M681.853 515.214a28.537 25.001 0 1 1-57.074 0 28.537 25.001 0 1 1 57.074 0z" fill="url(#e)"/><path d="M57.722 231.332c-5.709-10.09-5.562-30.234-3.82-42.503 1.74-12.269 5.882-20.112 11.503-29.515 5.62-9.403 13.744-19.858 22.09-25.917 8.347-6.058 16.259-10.026 25.728-10.601 9.47-.575 18.796-4.127 28.044 7.75 9.247 11.877 5.2 44.215 1.342 61.206-3.857 16.99-12.392 28.906-19.556 38.653-7.165 9.746-12.686 17.776-20.979 20.401-8.292 2.625-14.975-.426-22.64-3.617-7.663-3.192-16.004-5.767-21.712-15.857z" fill="url(#f)"/><path d="M154.02 1.493c11.754 3.163 21.84 17.482 29.275 29.043 6.373 9.91 12.052 21.38 12.24 33.162.227 14.094-9.284 26.628-13.362 40.121-3.17 10.492-2.08 22.94-8.627 31.73-7.472 10.033-19.672 22.542-31.877 19.803-20.41-4.58-24.989-33.858-34.046-52.712-6.16-12.823-13.485-26.254-13.512-40.48-.02-10.467 4.31-20.93 9.826-29.826 6.84-11.027 18.402-22.875 27.71-27.343 9.31-4.469 10.619-6.662 22.373-3.498z" fill="url(#g)"/><path d="M160.938 134.932c9.89-1.15 23.252-22.44 23.558-26.368-2.417 12.219-23.747 22.05-22.189 18.283 11.662-11.803 20.644-30.028 23.096-50.695-3.559 19.265-13.232 38.671-25.958 46.379 11.39-18.014 19.434-40.385 23.586-64.137-4.281 22.06-18.077 55.886-26.85 61.954 10.046-26.459 17.079-55.459 20.152-85.43-5.29 28.942-9.829 59.35-22.212 83.91 1.45-32.385 10.33-62.954 12.112-95.274-3.914 32.957-10.577 65.07-14.31 98.079-1.514-35.956-1.64-72.045-4.208-107.899l-3.306 110.15c-4.477-35.642-9.435-71.15-14.64-106.577 3.461 32.664 7.554 65.226 12.883 97.296-2.814 6.073-6.65-24.945-10.068-31.42-4.209-12.239-13.323-50.156-13.64-50.066 4.809 30.618 14.709 59.047 21.153 88.801-12.101-23.963-22.205-50.925-28.85-79.35 2.917 28.466 14.235 52.368 24.885 75.612 3.47 15.729-10.663-11.575-12.875-16.023-5.696-10.489-13.994-35.02-15.743-38.95 7.099 24.579 17.175 47.793 31.11 65.251-12.942-5.708-31.887-35.836-32.442-40.368 1.907 21.076 24.254 37.142 28.31 44.004-7.921-.06-27.689-13.45-24.718-14.9 14.677 15.894 33.063 24.231 51.164 17.738z" opacity=".55" fill="url(#h)"/><path d="M136.284 181.492c3.32 5.988-2.528 22.657-4.463 24.534 5.44-6.653-.374-24.725-1.728-22.223-1.555 11.601-5.036 26.473-14.886 36.819 8.677-10.351 13.573-27.012 12.561-37.424-4.915 14.151-12.01 31.198-22.802 43.828 9.855-11.967 21.56-37.898 21.257-45.403-9.87 17.076-21.732 37.158-36.208 51.894 13.058-15.518 27.182-35.9 35.131-53.448-16.385 14.884-28.87 37.745-45.09 52.785 15.707-16.5 28.81-37.908 44.615-54.331-19.43 14.793-37.307 34.164-57.102 48.327l56.372-49.724c-20.441 13.012-41.003 25.7-61.621 38.214 18.479-12.28 37.155-24.167 56.064-35.154 2.064-4.201-15.702 7.156-20.449 8.075-8.079 2.986-31.55 14.415-31.63 14.2 17.942-10.644 36.758-17.512 54.896-26.873-17.35 3.705-35.477 9.822-53 18.494 16.065-10.758 33.072-14.87 49.47-19.069 9.613-4.913-10.292-.883-13.499-.176-7.753 1.4-23.891 7.463-26.643 8.2 15.688-6.748 31.842-11.25 46.513-11.11-8.124-4.698-31.417-2.11-34.01-.447 11.793-8.105 29.071-2.692 34.274-3.426-3.173-4.369-18.027-9.514-17.609-7.235 14.146 1.232 21.878 6.2 25.658 19.066z" opacity=".55" fill="url(#i)"/><path d="M27.05 202.766c12.662 8.956 8.766 11.406 22.574 12.589 13.809 1.182 23.477 6.65 37.08 1.255 13.602-5.394 24.986-39.666 35.003-51.518 10.017-11.853 39.707-12.047 39.707-12.047s-21.877-22.751-38.993-36.627c-8.12-6.583-24.598-29.194-30.307-36.548-6.142-7.911-12.016-10.078-20.045-9.786-15.493.563-26.024 10.84-36.571 18.728-10.547 7.889-14.595 15.035-19.556 28.136-2.48 6.551-7.926 12.117-9.008 21.22-6.211 20.19 1.295 50.602 20.117 64.598z" fill="url(#j)"/><path d="M142.604 143.938c-3.685 14.108-17.537 21.362-28.956 28.54-4.947 3.507-9.717 12.76-13.802 13.647 4.265-8.764 11.763-15.464 18.577-22.254 5.904-5.64 11.94-11.2 17.038-17.603-9.025-1.894-16.133 5.35-23.838 8.625-14.237 8.218-29.306 14.859-44.186 21.765-4.913 2.984-9.417 6.607-13.554 10.589 7.35-12.52 22.584-15.414 34.547-21.667 10.228-5.88 20.244-12.158 31.067-16.929 2.39-1.204 9.55-4.365 8.246-4.303-23.139 7.903-47.59 11.888-70.024 21.81-8.959 5.058-17.973 10.028-27.175 14.634 16.038-9.687 31.857-21.34 50.836-24.256 14.292-4.045 28.442-8.65 42.202-14.262C83.44 150.023 42.853 158.311 5.6 175.74c35.718-19.738 76.329-27.291 115.97-34.86-37.748 5.745-77.011 7.134-112.408 22.875-4.526 2.175-3.483 1.45.198-.342 29.7-14.646 63.335-16.144 95.518-20.982 2.726-.45 9.928-1.404 9.868-1.789-35.54 2.62-71.764 1.824-106.423 11.2-7.365 3.92 3.698-.906 6.183-1.547 33.552-11.039 69.36-8.887 103.985-13.433-39.508.42-79.364-1.919-118.49 4.916 32.939-7.955 67.028-4.051 100.525-5.609 2.576-.096 11.254.482 10.57-.555-36.169-2.476-72.363-4.555-108.524-7.144 41.825 1.825 83.615 4.364 125.416 6.653-40.66-5.893-81.667-10.427-121.515-20.783 41.155 8.642 83.054 12.765 124.707 18.186-35.894-8.623-73.238-12.95-107.152-28.34 35.325 14.146 73.245 19.34 110.256 27.169-27.61-9.907-54.884-20.916-81.093-34.118-3.314-2.266-1.62-4.402 1.123-1.534 18.005 10.76 39.48 13.531 57.612 24.028 8.493 2.396 16.13 8.357 25.302 7.888-13.29-10.45-27.11-20.702-37.913-33.78 10.856 7.585 19.45 18.56 31.748 24.184 7.356 4.272 15.894 10.391 15.883 19.833-.332 2.577-2.039 4.901-4.34 6.082z" opacity=".55" fill="url(#k)"/><path d="M234.19 247.201c-7.518 6.707-21.053 7.046-30.703 5.129-9.649-1.918-15.655-7.637-23.67-14.768-8.015-7.132-16.912-18.045-22.774-28.49-5.862-10.446-10.184-21.46-12.085-33.266-1.901-11.806 1.06-36.342 1.06-36.342s31.354-6.383 44.904-2c13.551 4.382 23.413 16.218 31.744 25.155 8.331 8.937 15.278 17.236 18.523 27.074 3.244 9.837 2.272 19.622 1.09 29.328-1.182 9.706-.57 21.474-8.089 28.18z" fill="url(#l)"/><path d="M153.32 177.778c-3.32 5.988 2.528 22.657 4.463 24.534-5.44-6.654-2.126-22.761-.772-20.26 1.555 11.602 7.536 24.51 17.386 34.855-8.677-10.35-15.002-24.154-13.99-34.566 4.915 14.151 13.44 28.34 24.23 40.97-9.853-11.966-22.094-34.326-21.792-41.831 9.871 17.077 22.268 33.587 36.744 48.323-13.058-15.518-27.182-31.257-35.131-48.806 16.385 14.885 28.87 33.103 45.09 48.143-15.707-16.5-32.56-37.73-48.365-54.153 19.43 14.793 41.058 33.986 60.852 48.149-18.79-16.575-40.438-32.792-59.229-49.367 20.441 13.012 43.86 25.342 64.478 37.857-18.479-12.28-40.37-24.346-59.278-35.333-2.064-4.201 18.916 7.334 23.663 8.254 8.079 2.986 31.55 14.415 31.63 14.2-17.942-10.644-38.365-17.512-56.503-26.873 17.35 3.705 37.085 9.822 54.607 18.494-16.064-10.758-33.072-14.871-49.47-19.069-9.612-4.913 10.292-.883 13.5-.176 7.752 1.4 23.89 7.462 26.642 8.2-15.687-6.748-31.841-11.25-46.512-11.11 8.123-4.698 31.416-2.11 34.01-.447-11.794-8.106-29.072-2.693-34.275-3.426 3.173-4.369 18.027-9.514 17.609-7.235-14.146 1.232-25.806 7.808-29.586 20.673z" opacity=".55" fill="url(#m)"/><path d="M288.775 148.281c-3.566 18.622-12.252 30.835-21.133 44.73-6.191 9.685-11.212 22.816-22.114 26.463-12.089 4.044-26.358-2.048-37.243-8.682-7.334-4.471-12.117-26.917-17.174-34.077-3.365-4.765-5.82-9.72-9.208-14.324-9.964-13.545-28.376-26.932-28.376-26.932s10.412-12.32 23.26-26.787c4.15-4.672 6.903-14.13 11.393-24.21 3.988-8.95 8.515-15.14 13.048-17.64 8.628-4.761 16.473-4.995 24.548-3.277 9.735 2.07 16.022 9.526 25.427 15.656 12.931 8.428 26.722 17.682 30.881 30.907 2.456 7.81.296 13.847.296 13.847s7.935 16.285 6.395 24.326z" fill="url(#n)"/><path d="M157.735 155.524c4.162 12.46 15.617 18.89 25.501 25.176 4.373 2.23 7.554 6.053 10.885 9.726 1.586 2.08 8.62 8.118 4.131 2.17-9.329-12.765-21.377-22.631-32.852-32.952-1.364-8.257 8.752-1.22 12.104.291 10.914 4.596 21.44 10.347 32.412 14.873 4.85 2.048 9.759 3.941 14.739 5.583 2.746 2.146 7.89 7.44 9.91 6.77-7.877-10.168-20.927-11.417-31.485-16.615-7.22-4.176-14.505-8.25-22.147-11.489-2.842-1.407-9.856-4.192-10.043-4.766 18.114 4.562 36.853 6.016 54.686 11.882 9.799 3.878 18.849 9.645 28.592 13.67-14.346-7.513-28.095-18.49-44.58-19.15a264.022 264.022 0 0 1-37.443-9.669c33.586 2.81 67.685 6.309 99.468 19.256-30.524-15.438-64.608-18.364-97.727-20.925 29.842.819 60.528-2.478 89.432 7.572 2.362.808 7.25 2.897 2.298.406-12.533-5.803-26.362-7.055-39.814-8.057-16.265-.888-32.565-.06-48.83-.976 29.507-1.99 59.24-8.108 88.75-2.845 2.276.891 6.194 2.867 1.56 1.16-12.659-4.963-26.323-5.039-39.616-4.948-17.714.472-35.356 2.634-53.063 3.185 26.378-4.367 52.656-10.38 79.396-11.511 5.146-.205 10.3-.219 15.445.01-25.751-3.31-51.07 4.664-76.517 7.501-5.448.817-10.867 2.049-16.334 2.593 29.857-7.902 59.752-15.639 89.56-23.759-32.895 7.715-65.635 16.187-98.428 24.396 30.828-11.669 62.18-22.244 91.41-38.267-30.032 14.143-61.48 24.188-92.56 35.159 26.278-13.964 54.836-23.944 77.913-44.12-24.268 19.07-52.792 29.814-79.923 42.92 18.14-14.426 36.596-28.444 53.764-44.248 2.294-2.918 1.267-4.856-1.302-1.67-4.426 4.225-8.696 8.774-14.09 11.497-12.949 8.451-24.59 18.982-36.35 29.206-3.594 3.895-8.36 5.229-8.36 5.229l-5.996 4.917s1.684 9.03 5.504 10.82z" opacity=".55" fill="url(#o)"/><path d="M157.887 150.227c0 2.054-1.872 6.846-2.106 11.662-.25 5.138 1.127 10.304.821 12.203-.592 3.68 7.386 4.319 6.327 7.102-1.058 2.782-9.076 1.162-10.476 2.718-1.4 1.556-2.938 2.417-4.553 2.417-1.615 0-3.153-.861-4.553-2.417-1.4-1.556-8.378 2.115-9.436-.668-1.059-2.783 5.494-4.862 4.902-8.542-.313-1.946 2.132-8.377 2.357-13.856.2-4.876-.947-7.582-1.386-10.145-.77-4.499-2.446-3.375-2.483-7.097-.033-3.34.382-3.879 3.357-5.966 4.306-3.019 12.41-2.679 16.716.34 2.975 2.087 2.051 2.371 2.197 6.306.137 3.72-1.684 1.696-1.684 5.943z" style="marker:none" color="#000" fill="url(#p)" overflow="visible"/><path style="marker:none" d="M134.681 185.853s-1.748 1.542-6.615 2.838c-4.394 1.17-11.693 2.105-16.084 2.11-.175 2.368.204 4.821.589 5.448.385.626 1.236 1.133 2.254 1.343 1.896.385 4.532 2.282 4.532 2.282s7.787 7.516 12.447 10.152c1.997 1.13 4.558 1.074 6.478 2.331 1.855 1.215 2.647 3.728 4.566 4.839.863.5 1.168-.31 2.706.07.83.205 2.341 1.76 2.341 1.76l1.726-1.703s2.783-.894 3.743-1.28c2.71-1.09 4.11-1.413 7.643-3.698 1.856-1.201 3.479-4.454 4.786-4.856 3.173-.975 12.636-9.271 15.892-10.035.825-.196 1.527-.587 1.934-1.078.804-.966.875-3.242-.298-2.953-2.797-1.576-8-2.227-11.086-3.464-4.679-1.874-7.278-4.166-11.27-5.729z" color="#000" fill="url(#q)" overflow="visible"/><path style="marker:none" d="M148.517 134.889c-6.204 0-11.24 2.84-11.24 6.343 0 .94-.326 1.835.323 2.637.204-.224 1.106-.459 1.355-.667a9.145 9.145 0 0 1 1.372-.93 12.303 12.303 0 0 1 1.663-.776 15.368 15.368 0 0 1 1.906-.59 17.89 17.89 0 0 1 2.105-.372 19.904 19.904 0 0 1 2.272-.124c.775 0 1.526.04 2.257.124a17.9 17.9 0 0 1 2.105.373c.672.16 1.324.361 1.921.59.598.227 1.154.488 1.663.775.508.287.968.593 1.372.93.345.288 1.593.433 1.852.752.797-.87.314-1.673.314-2.722 0-3.502-5.036-6.343-11.24-6.343z" color="#000" fill="url(#r)" overflow="visible"/><path d="M157.504 140.047s7.285 7.407 7.384 11.082c1.608 7.566 6.336 15.327 1.704 22.512-1.018 3.748-9.748 3.385-9.748 3.385l-7.605-6.505-8.175 6.644s-11.284-.76-11.568-6.256c-2.467-7.128-.523-12.739 1.208-19.76 1.137-2.33 8.1-9.366 6.623-11.382-11.104 3.239-15.078 4.94-18.82 8.853-8.318 9.106-9.542 12.385-11.962 23.66-.999 4.654 2.405 11.24 6.27 14.441 4.037 2.024 6.239-3.845 9.724-3.27 2.754 4.466 14.186 2.781 14.654 9.398 7.324 14.122 5.015-2.206 11.235 6.733l.678-18.414-.252 18.315s3.905-6.078 4.905-.75c.998 5.316 9.577-13.94 19.34-13.872 2.567.019 5.142 1.466 8.174 3.316 3.646 2.225 4.373-2.028 7.057-9.889 1.43-4.184 2.559-6.902 1.37-11.151-2.766-8.302-8.15-13.378-14.815-20.178-14.517-10.299-17.38-6.912-17.38-6.912z" fill="url(#s)"/><g fill="#d4aa00"><path d="M150.977 148.638a1.018 1.126 90 1 1 2.252 0 1.018 1.126 90 1 1-2.252 0zM150.834 144.03a1.018 1.126 90 1 1 2.253 0 1.018 1.126 90 1 1-2.253 0zM152.055 146.174a1.018 1.126 90 1 1 2.253 0 1.018 1.126 90 1 1-2.253 0zM152.192 150.674a1.018 1.126 90 1 1 2.252 0 1.018 1.126 90 1 1-2.252 0zM154.58 152.066a1.018 1.126 90 1 1 2.253 0 1.018 1.126 90 1 1-2.253 0zM154.717 146.87a1.018 1.126 90 1 1 2.252 0 1.018 1.126 90 1 1-2.252 0zM153.49 148.638a1.018 1.126 90 1 1 2.252 0 1.018 1.126 90 1 1-2.252 0zM149.536 146.549a1.018 1.126 90 1 1 2.253 0 1.018 1.126 90 1 1-2.253 0zM153.94 144.245a1.018 1.126 90 1 1 2.253 0 1.018 1.126 90 1 1-2.253 0z"/></g><g fill="#d4aa00"><path d="M146.006 147.909a1.155.935 0 1 0-2.31 0 1.155.935 0 1 0 2.31 0zM146.152 143.679a1.155.935 0 1 0-2.311 0 1.155.935 0 1 0 2.31 0zM144.9 145.646a1.155.935 0 1 0-2.312 0 1.155.935 0 1 0 2.311 0z"/><path d="M144.76 149.778a1.155.935 0 1 0-2.312 0 1.155.935 0 1 0 2.311 0zM142.309 151.057a1.155.935 0 1 0-2.311 0 1.155.935 0 1 0 2.31 0zM142.169 146.286a1.155.935 0 1 0-2.311 0 1.155.935 0 1 0 2.31 0zM143.427 147.909a1.155.935 0 1 0-2.31 0 1.155.935 0 1 0 2.31 0zM147.484 145.99a1.155.935 0 1 0-2.311 0 1.155.935 0 1 0 2.31 0zM142.965 143.875a1.155.935 0 1 0-2.31 0 1.155.935 0 1 0 2.31 0z"/></g><path d="M561.645 306.365a14.647 12.627 0 1 1-29.295 0 14.647 12.627 0 1 1 29.295 0z" transform="matrix(.24574 0 0 1.03603 14.054 -161.164)" opacity=".623" fill="url(#t)"/><path d="M126.976 162.44a.564.564 0 0 0-.344.407s-1.276 4.004.156 8.125c.716 2.06 2.122 4.143 4.657 5.719 2.535 1.575 6.195 2.643 11.375 2.75a.564.564 0 1 0 0-1.125c-5.037-.104-8.465-1.154-10.782-2.594-2.316-1.44-3.542-3.27-4.187-5.125-1.29-3.71-.156-7.438-.156-7.438a.564.564 0 0 0-.72-.718z" style="text-indent:0;text-align:start;line-height:normal;text-transform:none;block-progression:tb;marker:none;-inkscape-font-specification:Sans" font-weight="400" opacity=".211" color="#000" fill="#112b00" overflow="visible" font-family="Sans"/><path d="M125.6 171.566a.564.564 0 0 0-.437.687s.467 2.178 2.72 4.375c2.251 2.197 6.311 4.462 13.405 4.844a.579.579 0 1 0 .063-1.156c-6.882-.37-10.643-2.505-12.688-4.5-2.045-1.996-2.375-3.782-2.375-3.782a.564.564 0 0 0-.687-.468z" style="text-indent:0;text-align:start;line-height:normal;text-transform:none;block-progression:tb;marker:none;-inkscape-font-specification:Sans" font-weight="400" opacity=".211" color="#000" fill="#112b00" overflow="visible" font-family="Sans"/><path d="M129.1 178.503a.564.564 0 0 0-.312 1.031c3.585 2.733 5.814 3.497 10.22 3.594.477.01.958.04 1.437.031a.578.578 0 0 0 0-1.156c-.465.008-.941.01-1.407 0-4.292-.094-6.068-.711-9.562-3.375a.564.564 0 0 0-.375-.125zM169.6 162.94a.564.564 0 0 0-.53.75s1.175 3.896-.094 7.626c-.635 1.864-1.85 3.695-4.156 5.03-2.307 1.336-5.726 2.192-10.782 2a.564.564 0 1 0-.062 1.126c5.201.197 8.861-.683 11.406-2.156 2.545-1.474 3.95-3.55 4.656-5.625 1.413-4.15.125-8.313.125-8.313a.564.564 0 0 0-.562-.437z" style="text-indent:0;text-align:start;line-height:normal;text-transform:none;block-progression:tb;marker:none;-inkscape-font-specification:Sans" font-weight="400" opacity=".211" color="#000" fill="#112b00" overflow="visible" font-family="Sans"/><path d="M170.976 171.16a.564.564 0 0 0-.5.53s-.19 2.154-2.188 4.313c-1.997 2.16-5.804 4.313-13.312 4a.564.564 0 1 0-.063 1.125c7.742.322 11.983-1.927 14.22-4.344 2.235-2.417 2.468-5 2.468-5a.564.564 0 0 0-.625-.625z" style="text-indent:0;text-align:start;line-height:normal;text-transform:none;block-progression:tb;marker:none;-inkscape-font-specification:Sans" font-weight="400" opacity=".211" color="#000" fill="#112b00" overflow="visible" font-family="Sans"/><path d="M166.788 179.16a.564.564 0 0 0-.187.093c-3.654 2.44-5.46 2.955-9.75 2.781-.464-.02-.942-.057-1.406-.093a.564.564 0 1 0-.094 1.125c.476.037.96.073 1.437.093 4.403.178 6.69-.465 10.438-2.968a.564.564 0 0 0-.438-1.032z" style="text-indent:0;text-align:start;line-height:normal;text-transform:none;block-progression:tb;marker:none;-inkscape-font-specification:Sans" font-weight="400" opacity=".211" color="#000" fill="#112b00" overflow="visible" font-family="Sans"/><path transform="matrix(1 0 0 1.12819 -211.22 -274.494)" d="M360.357 397.005a1.071 8.929 0 1 1-2.143 0 1.071 8.929 0 1 1 2.143 0z" opacity=".805" fill="url(#u)"/><path d="M143.407 164.4c2.013.675 3.004-3.709 3.825-1.407.481 1.349.465 5.626.66 8.987.183 3.168-.12 6.226-.2 7.63-.245 6.552.662 4.937.662 4.937s-2.277.189-3.69-1.6c-2.945-6.784-2.457-4.32-8.645-11.75-1.026-1.465-.385-5.052-.385-5.052s.075-2.854.38-4.226c2.613-1.278 2.67.681 4.85 1.388 1.153.197 1.403.711 2.543 1.093z" fill="url(#v)"/><path d="M152.838 164.844c-.878.663-1.22-.35-2.213-.436-1.308-.148-1.031-2.561-2.331-2.163-.325.704-.191 4.21-.05 5.172.115 5.023-.02 9.25.327 13.96-.169 2.855-.157 3.133-.157 3.133l2.036-.21c.917-.094 2.37-1.152 4.122-5.051 1.502-3.345 4.46-6.004 5.652-8.915.657-1.042.199-2.395.44-3.819.319-1.88.48-1.83.2-3.412-.741-1.57-2.94.725-3.563 1.544-1.439.188-1.422 1.946-2.538.534-.466-.475-1.348-.007-1.925-.337z" fill="url(#w)"/><g fill="#d4aa00"><g opacity=".33"><path d="M135.404 168.677c0-.233.504-.422 1.126-.422.622 0 1.126.189 1.126.422 0 .233-.504.422-1.126.422-.622 0-1.126-.189-1.126-.422zM135.262 166.766c0-.233.504-.423 1.126-.423.622 0 1.126.19 1.126.423 0 .233-.504.422-1.126.422-.622 0-1.126-.189-1.126-.422zM136.483 167.655c0-.233.504-.423 1.126-.423.622 0 1.126.19 1.126.423 0 .233-.504.422-1.126.422-.622 0-1.126-.189-1.126-.422zM139.008 170.1c0-.234.504-.423 1.126-.423.622 0 1.126.19 1.126.423 0 .233-.504.422-1.126.422-.622 0-1.126-.19-1.126-.422zM139.144 167.944c0-.234.504-.423 1.126-.423.622 0 1.126.19 1.126.423 0 .233-.504.422-1.126.422-.622 0-1.126-.19-1.126-.422z"/><path d="M137.917 168.677c0-.233.504-.422 1.126-.422.622 0 1.126.189 1.126.422 0 .233-.504.422-1.126.422-.622 0-1.126-.189-1.126-.422zM138.368 166.855c0-.234.504-.423 1.126-.423.622 0 1.126.19 1.126.423 0 .233-.504.422-1.126.422-.622 0-1.126-.19-1.126-.422z"/></g><g opacity=".33"><path d="M139.6 172.249c0-.234.505-.423 1.127-.423.621 0 1.126.19 1.126.423 0 .233-.505.422-1.126.422-.622 0-1.127-.19-1.127-.422zM141.483 169.083c0-.233.504-.422 1.126-.422.622 0 1.126.19 1.126.422 0 .234-.504.423-1.126.423-.622 0-1.126-.19-1.126-.423zM140.012 173.807c0-.233.504-.422 1.126-.422.622 0 1.126.19 1.126.422 0 .234-.504.423-1.126.423-.622 0-1.126-.19-1.126-.423zM143.204 173.671c0-.233.504-.422 1.126-.422.622 0 1.126.189 1.126.422 0 .233-.504.422-1.126.422-.622 0-1.126-.189-1.126-.422zM142.113 172.249c0-.234.505-.423 1.127-.423s1.126.19 1.126.423c0 .233-.504.422-1.126.422-.622 0-1.127-.19-1.127-.422zM137 171.739c0-.233.504-.422 1.126-.422.621 0 1.126.189 1.126.422 0 .233-.505.422-1.126.422-.622 0-1.127-.189-1.127-.422zM142.564 170.426c0-.233.504-.422 1.126-.422.622 0 1.126.189 1.126.422 0 .233-.504.422-1.126.422-.622 0-1.126-.189-1.126-.422z"/></g><g opacity=".33"><path d="M146.288 175.869c0-.233-.504-.422-1.126-.422-.622 0-1.126.189-1.126.422 0 .233.504.422 1.126.422.622 0 1.126-.189 1.126-.422zM146.152 177.736c0-.233-.505-.422-1.127-.422-.621 0-1.126.189-1.126.422 0 .233.505.422 1.126.422.622 0 1.127-.189 1.127-.422zM143.627 176.158c0-.233-.505-.422-1.126-.422-.622 0-1.127.189-1.127.422 0 .233.505.422 1.127.422.621 0 1.126-.189 1.126-.422z"/><path d="M144.854 176.891c0-.233-.505-.422-1.127-.422s-1.126.19-1.126.422c0 .234.504.423 1.126.423.622 0 1.127-.19 1.127-.423zM144.403 175.069c0-.233-.504-.422-1.126-.422-.622 0-1.126.189-1.126.422 0 .233.504.422 1.126.422.622 0 1.126-.189 1.126-.422z"/></g></g><g fill="#b18a56"><g opacity=".33"><path d="M152.993 168.499c0-.234.504-.423 1.126-.423.622 0 1.127.19 1.127.423 0 .233-.505.422-1.127.422s-1.126-.19-1.126-.422zM152.851 166.587c0-.233.504-.422 1.126-.422.622 0 1.126.189 1.126.422 0 .233-.504.422-1.126.422-.622 0-1.126-.189-1.126-.422zM154.208 169.343c0-.233.504-.422 1.126-.422.622 0 1.127.189 1.127.422 0 .233-.505.422-1.127.422s-1.126-.189-1.126-.422zM156.597 169.921c0-.233.504-.422 1.126-.422.622 0 1.126.189 1.126.422 0 .233-.504.422-1.126.422-.622 0-1.126-.189-1.126-.422zM156.733 167.765c0-.233.504-.422 1.126-.422.622 0 1.127.189 1.127.422 0 .233-.505.422-1.127.422s-1.126-.189-1.126-.422zM155.957 166.676c0-.233.504-.422 1.126-.422.622 0 1.126.189 1.126.422 0 .233-.504.422-1.126.422-.622 0-1.126-.189-1.126-.422z"/></g><g opacity=".33"><path d="M150.85 172.963c0-.233.505-.422 1.127-.422.621 0 1.126.189 1.126.422 0 .233-.505.422-1.126.422-.622 0-1.127-.189-1.127-.422zM152.137 171.587c0-.233.504-.422 1.126-.422.622 0 1.126.189 1.126.422 0 .233-.504.422-1.126.422-.622 0-1.126-.189-1.126-.422zM152.376 169.887c0-.233.504-.422 1.126-.422.622 0 1.126.189 1.126.422 0 .233-.504.422-1.126.422-.622 0-1.126-.189-1.126-.422zM154.454 174.385c0-.233.504-.422 1.126-.422.622 0 1.126.189 1.126.422 0 .233-.504.423-1.126.423-.622 0-1.126-.19-1.126-.423zM155.751 172.765c0-.233.504-.422 1.126-.422.622 0 1.126.189 1.126.422 0 .233-.504.422-1.126.422-.622 0-1.126-.189-1.126-.422zM152.203 175.106c0-.234.504-.423 1.126-.423.622 0 1.126.19 1.126.423 0 .233-.504.422-1.126.422-.622 0-1.126-.19-1.126-.422zM154.707 171.14c0-.233.504-.422 1.126-.422.622 0 1.126.19 1.126.422 0 .234-.504.423-1.126.423-.622 0-1.126-.19-1.126-.423z"/></g><g opacity=".33"><path d="M154.51 178.052c0-.233-.505-.422-1.127-.422s-1.126.189-1.126.422c0 .233.504.422 1.126.422.622 0 1.127-.189 1.127-.422zM154.652 176.14c0-.232-.504-.422-1.126-.422-.622 0-1.126.19-1.126.423 0 .233.504.422 1.126.422.622 0 1.126-.189 1.126-.422zM153.43 177.03c0-.233-.503-.423-1.125-.423s-1.126.19-1.126.423c0 .233.504.422 1.126.422.622 0 1.126-.189 1.126-.422zM153.295 178.897c0-.234-.505-.423-1.127-.423s-1.126.19-1.126.423c0 .233.504.422 1.126.422.622 0 1.127-.19 1.127-.422zM150.906 179.475c0-.234-.504-.423-1.126-.423-.622 0-1.126.19-1.126.423 0 .233.504.422 1.126.422.622 0 1.126-.19 1.126-.422zM151.635 175.158c0-.233-.504-.422-1.126-.422-.622 0-1.126.189-1.126.422 0 .233.504.422 1.126.422.622 0 1.126-.189 1.126-.422z"/></g></g><path transform="matrix(1 0 0 .51216 -246.177 -83.013)" d="M389.919 433.391a1.768 5.303 0 1 1-3.536 0 1.768 5.303 0 1 1 3.536 0z" opacity=".33" fill="url(#x)"/><path d="M389.919 433.391a1.768 5.303 0 1 1-3.536 0 1.768 5.303 0 1 1 3.536 0z" transform="matrix(1 0 0 .51216 -233.929 -82.887)" opacity=".33" fill="url(#y)"/><path d="M129.103 142.358c-5.197 1.854-7.979 3.515-10.594 6.25-8.318 9.107-9.549 12.412-11.968 23.688-1 4.653 2.416 11.236 6.28 14.437 2.636 1.321 4.5-.707 6.438-2.125-3.366-4.791-5.312-10.479-5.312-16.562 0-10.685 6.008-20.098 15.156-25.688zm41.438 1.719c7.689 5.697 12.593 14.319 12.593 23.969 0 6.6-2.308 12.718-6.218 17.75 1.371.598 2.793 1.428 4.343 2.375 3.647 2.224 4.379-2.015 7.063-9.875 1.429-4.185 2.563-6.908 1.375-11.157-2.767-8.302-8.147-13.388-14.813-20.187a84.068 84.068 0 0 0-4.343-2.875zm-29.72 54.25c.786.684 1.33.654 1.813.344-.612-.095-1.211-.221-1.812-.344zm15.438 0c-.826.17-1.651.322-2.5.437.287 1.453 1.177.962 2.5-.437zm-8.218.781c.126.17.24.276.375.469l.03-.469c-.135 0-.27.002-.405 0zm.812 0v.375s.198-.253.281-.375h-.28z" opacity=".433" fill="url(#z)"/></svg>