<svg xmlns="http://www.w3.org/2000/svg" xmlns:xlink="http://www.w3.org/1999/xlink" width="283.074" height="837.751"><defs><linearGradient id="f"><stop offset="0" stop-color="#0d3821"/><stop offset="1" stop-opacity="0"/></linearGradient><linearGradient id="e"><stop offset="0" stop-color="#072f1a"/><stop offset=".255" stop-color="#122317"/><stop offset=".804" stop-color="#06301a"/><stop offset="1" stop-color="#315e41"/></linearGradient><linearGradient id="a"><stop offset="0"/><stop offset=".2" stop-color="#2b0000"/><stop offset=".661" stop-color="#f7a1bc" stop-opacity="0"/><stop offset="1" stop-color="#fff" stop-opacity="0"/></linearGradient><linearGradient id="d"><stop offset="0" stop-opacity="0"/><stop offset=".832" stop-opacity="0"/><stop offset=".903" stop-opacity=".33"/><stop offset="1"/></linearGradient><linearGradient id="b"><stop offset="0" stop-color="#e6789d"/><stop offset=".41" stop-color="#f4979c"/><stop offset=".723" stop-color="#f7a1bc"/><stop offset="1" stop-color="#fff"/></linearGradient><linearGradient id="c"><stop offset="0" stop-color="#932748"/><stop offset="1" stop-color="#d04d75" stop-opacity="0"/></linearGradient><filter id="v" x="-.119" width="1.238" y="-.021" height="1.042" color-interpolation-filters="sRGB"><feGaussianBlur stdDeviation=".517"/></filter><filter id="w" color-interpolation-filters="sRGB"><feGaussianBlur stdDeviation=".244"/></filter><filter id="A" color-interpolation-filters="sRGB"><feGaussianBlur stdDeviation=".277"/></filter><filter id="L" x="-.321" width="1.643" y="-.062" height="1.124" color-interpolation-filters="sRGB"><feGaussianBlur stdDeviation="3.466"/></filter><filter id="N" color-interpolation-filters="sRGB"><feGaussianBlur stdDeviation=".696"/></filter><filter id="M" color-interpolation-filters="sRGB"><feGaussianBlur stdDeviation=".381"/></filter><filter id="P" x="-.304" width="1.607" y="-.037" height="1.074" color-interpolation-filters="sRGB"><feGaussianBlur stdDeviation="2.355"/></filter><filter id="F" x="-.161" width="1.323" y="-.039" height="1.077" color-interpolation-filters="sRGB"><feGaussianBlur stdDeviation="1.103"/></filter><filter id="H" x="-.179" width="1.357" y="-.055" height="1.11" color-interpolation-filters="sRGB"><feGaussianBlur stdDeviation="4.263"/></filter><filter id="D" x="-.276" width="1.551" y="-.05" height="1.099" color-interpolation-filters="sRGB"><feGaussianBlur stdDeviation="3.848"/></filter><radialGradient xlink:href="#a" id="o" gradientUnits="userSpaceOnUse" gradientTransform="matrix(8.90178 .0609 -.02766 4.044 -3599.29 -632.905)" cx="453.619" cy="233.316" fx="453.619" fy="233.316" r="25.562"/><radialGradient xlink:href="#b" id="p" gradientUnits="userSpaceOnUse" gradientTransform="matrix(8.82927 .71184 -.99636 12.35833 -3341.264 -2863.03)" cx="453.059" cy="231.794" fx="453.059" fy="231.794" r="25.562"/><radialGradient xlink:href="#c" id="q" gradientUnits="userSpaceOnUse" gradientTransform="matrix(2.825 -.11284 .03166 .79264 -313.926 33.686)" cx="166.948" cy="292.049" fx="166.948" fy="292.049" r="76.922"/><radialGradient xlink:href="#b" id="r" gradientUnits="userSpaceOnUse" gradientTransform="matrix(2.0601 .80114 -.81844 2.78604 -394.45 -777.337)" cx="482.13" cy="190.289" fx="482.13" fy="190.289" r="19.768"/><radialGradient xlink:href="#b" id="s" gradientUnits="userSpaceOnUse" gradientTransform="matrix(2.94844 -.19438 1.02577 15.55974 -1290.581 -4214.518)" spreadMethod="reflect" cx="492.452" cy="297.615" fx="492.452" fy="297.615" r="18.696"/><radialGradient xlink:href="#b" id="t" gradientUnits="userSpaceOnUse" gradientTransform="matrix(3.47002 -13.3964 3.36949 -.77897 -1705.751 6662.311)" cx="466.769" cy="135.327" fx="466.769" fy="135.327" r="19.768"/><radialGradient xlink:href="#c" id="u" gradientUnits="userSpaceOnUse" gradientTransform="matrix(.55434 .04009 -.42622 5.89386 289.547 -796.834)" spreadMethod="reflect" cx="462.98" cy="158.609" fx="462.98" fy="158.609" r="5.205"/><radialGradient xlink:href="#c" id="x" gradientUnits="userSpaceOnUse" gradientTransform="matrix(-6.3213 0 0 47.8881 3554.746 -7612.273)" cx="495.871" cy="163.399" fx="495.871" fy="163.399" r="2.509"/><radialGradient xlink:href="#b" id="y" gradientUnits="userSpaceOnUse" gradientTransform="matrix(11.13742 -.27657 .68433 27.55821 -5034.191 -3943.576)" cx="473.112" cy="160.061" fx="473.112" fy="160.061" r="11.69"/><radialGradient xlink:href="#c" id="z" gradientUnits="userSpaceOnUse" gradientTransform="matrix(7.60596 4.94241 -2.23278 2.97467 -3001.892 -2613.409)" cx="464.662" cy="182.977" fx="464.662" fy="182.977" r="9.206"/><radialGradient xlink:href="#b" id="B" gradientUnits="userSpaceOnUse" gradientTransform="matrix(8.09643 0 0 13.26684 -3575.506 -1936.058)" cx="504.616" cy="169.547" fx="504.616" fy="169.547" r="18.526"/><radialGradient xlink:href="#c" id="C" gradientUnits="userSpaceOnUse" gradientTransform="matrix(1.65522 0 0 17.9036 -379.814 -2624.279)" spreadMethod="reflect" cx="465.731" cy="160.485" fx="465.731" fy="160.485" r="5.205"/><linearGradient xlink:href="#b" id="E" gradientUnits="userSpaceOnUse" gradientTransform="translate(-255.342 -83.55) scale(1.51378)" spreadMethod="reflect" x1="496.293" y1="183.096" x2="498.885" y2="120.951"/><radialGradient xlink:href="#c" id="G" gradientUnits="userSpaceOnUse" gradientTransform="matrix(3.05586 0 0 17.9036 -926.677 -2609.79)" spreadMethod="reflect" cx="462.98" cy="158.609" fx="462.98" fy="158.609" r="5.205"/><linearGradient xlink:href="#c" id="I" gradientUnits="userSpaceOnUse" gradientTransform="matrix(3.5954 0 0 3.42172 -1295.652 -319.261)" x1="508.296" y1="130.639" x2="492.467" y2="128.017"/><radialGradient xlink:href="#c" id="J" gradientUnits="userSpaceOnUse" gradientTransform="matrix(-15.12302 -.56892 -9.6241 43.2795 9482.916 -6581.354)" cx="498.025" cy="164.347" fx="498.025" fy="164.347" r="2.509"/><radialGradient xlink:href="#c" id="K" gradientUnits="userSpaceOnUse" gradientTransform="matrix(6.13626 -6.82762 2.91916 2.4753 -3378.482 3131.314)" cx="491.069" cy="191.813" fx="491.069" fy="191.813" r="12.183"/><linearGradient xlink:href="#b" id="O" gradientUnits="userSpaceOnUse" gradientTransform="translate(-2.28 -1.768)" x1="518.504" y1="200.857" x2="439.932" y2="189.487"/><radialGradient xlink:href="#d" id="Q" gradientUnits="userSpaceOnUse" gradientTransform="matrix(4.97911 -.47153 .31648 3.34187 -2019.032 -71.046)" cx="486.845" cy="161.468" fx="486.845" fy="161.468" r="25.863"/><filter id="j"><feGaussianBlur stdDeviation="1.631"/></filter><filter id="i"><feGaussianBlur stdDeviation="1.77"/></filter><radialGradient xlink:href="#e" id="k" gradientUnits="userSpaceOnUse" gradientTransform="matrix(-1.45805 -.37013 -.7422 4.41328 887.614 -2251.32)" spreadMethod="reflect" cx="117.824" cy="666.949" fx="117.824" fy="666.949" r="81.962"/><radialGradient xlink:href="#f" id="l" gradientUnits="userSpaceOnUse" gradientTransform="matrix(.86393 0 0 1.6632 -24.404 -220.612)" cx="212.813" cy="386.041" fx="212.813" fy="386.041" r="33.313"/><radialGradient xlink:href="#e" id="g" gradientUnits="userSpaceOnUse" gradientTransform="matrix(1.6842 -.67992 .89406 5.84036 -1110.57 -2865.646)" cx="329.31" cy="639.45" fx="329.31" fy="639.45" r="47.246"/><radialGradient xlink:href="#e" id="h" gradientUnits="userSpaceOnUse" gradientTransform="matrix(-.47356 -3.48509 2.30073 -.35166 -1854.908 2424.42)" spreadMethod="reflect" cx="426.625" cy="844.508" fx="426.625" fy="844.508" r="81.962"/><radialGradient xlink:href="#e" id="m" gradientUnits="userSpaceOnUse" gradientTransform="matrix(-1.06416 -2.14648 1.95083 -.3065 106.827 1575.47)" cx="391.612" cy="514.031" fx="391.612" fy="514.031" r="70.939"/><radialGradient xlink:href="#f" id="n" gradientUnits="userSpaceOnUse" gradientTransform="matrix(-.67541 -1.39694 1.94476 -.31773 -50.143 1272.631)" cx="434.278" cy="391.446" fx="434.278" fy="391.446" r="70.939"/></defs><g color="#000"><path d="M302.19 477.955s43.432 91.924 56.375 114c14.102 24.051 22.727 100.608 26.625 181.687 2.988-21.937 6.181-45.341 9.906-70.312.077-8.861.217-15.636.531-18.719 12.552-123.049-92.146-207.969-93.437-206.656z" style="marker:none" fill="url(#g)" overflow="visible" enable-background="accumulate" transform="translate(-292.909 -88.986)"/><path transform="translate(4)" d="M4.938 386.438c-.075.002-.132.022-.188.03-1.694.258 2.625 5.97 2.625 5.97s43.751 65.64 58.375 106.937c13.957 39.415 22.543 84.187 26.281 129.531.524 6.356.964 12.673 1.313 18.938 4.465-31.8 9.593-66.204 15.937-101.844 3.898-21.897 7.528-44.16 10.75-66.406-1.257-5.128-2.68-9.843-4.187-13.75-7.35-19.056-17.444-24.357-28.469-36.281-31.197-33.742-69.937-40.568-82.188-43.094a1.162 1.162 0 0 0-.25-.031z" style="text-indent:0;text-align:start;line-height:normal;text-transform:none;block-progression:tb;marker:none;-inkscape-font-specification:Sans" font-weight="400" fill="url(#h)" overflow="visible" enable-background="accumulate" font-family="Sans"/></g><path d="M138.06 199.977c-3.09.172-6.08 2.025-7.926 4.913-1.846 2.887-2.51 6.751-1.761 10.242 15.528 76.793 2.503 209.545-19.094 330.864-21.597 121.319-29.262 229.152-43.717 263.857-1.355 2.892-1.643 6.434-.779 9.57.864 3.137 2.87 5.824 5.417 7.262a9.281 9.281 0 0 0 8.257.453c2.653-1.153 4.866-3.609 5.98-6.636 16.977-40.76 23.549-146.793 45.404-269.564 21.856-122.77 36.263-255.842 18.97-341.366-.524-2.79-1.92-5.346-3.867-7.084-1.948-1.738-4.432-2.644-6.884-2.511z" style="text-indent:0;text-align:start;line-height:normal;text-transform:none;block-progression:tb;marker:none;-inkscape-font-specification:Sans" font-weight="400" color="#000" fill="#204c31" overflow="visible" enable-background="accumulate" font-family="Sans"/><path d="M437.469 283.219c-3.09.171-6.08 2.025-7.926 4.912s-2.51 6.752-1.762 10.243c15.529 76.793 2.503 209.545-19.094 330.863-21.596 121.32-27.14 231.98-41.595 266.686-1.772 3.77-1.658 8.641.288 12.293 1.946 3.65 5.647 5.938 9.337 5.77-2.344-1.574-4.128-4.243-4.86-7.274-.732-3.031-.405-6.39.892-9.153 14.454-34.706 19.998-145.367 41.595-266.686 21.597-121.32 34.622-254.07 19.094-330.864-.75-3.49-.085-7.355 1.76-10.242 1.846-2.888 4.837-4.741 7.927-4.913h.094c-1.73-1.167-3.752-1.742-5.75-1.635z" style="text-indent:0;text-align:start;line-height:normal;text-transform:none;block-progression:tb;marker:none;-inkscape-font-specification:Sans" font-weight="400" opacity=".789" color="#000" fill="#08311b" overflow="visible" enable-background="accumulate" font-family="Sans" filter="url(#i)" transform="translate(-296.909 -88.986)"/><path transform="matrix(1.04773 0 0 1.16297 -309.49 -142.5)" style="text-indent:0;text-align:start;line-height:normal;text-transform:none;block-progression:tb;marker:none;-inkscape-font-specification:Sans" d="M439.969 288.219c-3.09.147-6.08 1.741-7.926 4.224s-2.51 5.805-1.762 8.807c15.529 66.032 2.503 180.181-19.094 284.5-21.596 104.319-31.642 202.513-46.096 232.355-1.773 3.241-1.659 7.43.287 10.57 1.946 3.14 5.647 5.106 9.338 4.962a10.624 10.624 0 0 1-4.86-6.255 10.624 10.624 0 0 1 .89-7.87c14.455-29.843 24.5-128.037 46.098-232.356 21.597-104.318 34.622-218.467 19.094-284.5-.75-3.001-.085-6.324 1.76-8.807 1.846-2.483 4.837-4.076 7.927-4.224h.094a10.57 10.57 0 0 0-5.75-1.406z" font-weight="400" color="#000" fill="#2c6944" overflow="visible" enable-background="accumulate" font-family="Sans" filter="url(#j)"/><path d="M195.685 393.68z" fill-rule="evenodd"/><g color="#000"><path style="text-indent:0;text-align:start;line-height:normal;text-transform:none;block-progression:tb;marker:none;-inkscape-font-specification:Sans" d="M147.344 357.031a25.191 25.191 0 0 0-5.156.688c-32.073 7.76-28.377 86.924-37.97 132.187-4.698 44.117-30.112 191.066-30.112 191.066s-10.058 16.39-9.502 22.89c.906 10.59 15.684 14.905 22.94 3.927 1.538-2.328 6.419-25.861 6.419-25.861s28.46-153.782 41.967-186.294c27.21-83.66 43.744-78.84 52.289-96.915v-.094a.082.082 0 0 1 0-.031.082.082 0 0 1 0-.031c-11.294-22.975-23.425-42.09-40.875-41.532z" transform="matrix(1 0 0 1.29417 0 -95.96)" font-weight="400" fill="url(#k)" overflow="visible" enable-background="accumulate" font-family="Sans"/><path style="text-indent:0;text-align:start;line-height:normal;text-transform:none;block-progression:tb;marker:none;-inkscape-font-specification:Sans" d="M147.344 366.094c-.418.017-.83.055-1.25.094a19.97 19.97 0 0 0-2.594.437c-.433.11-.874.238-1.313.375a17.772 17.772 0 0 0-2.906 1.188c-.467.245-.924.524-1.375.812-.45.288-.881.585-1.312.906-.869.658-1.725 1.401-2.531 2.219-.07.081-.147.175-.22.25-.08.083-.17.165-.25.25-.212.22-.418.452-.624.688-.034.039-.06.085-.094.125-.06.08-.124.143-.188.218-.08.094-.171.186-.25.281-.24.29-.453.572-.687.875-.005.007.005.025 0 .032-.222.288-.44.605-.656.906-.132.183-.277.343-.406.531-.01.015-.022.048-.032.063-22.292 71.122 3.293 92.597 27.063 98.469 14.667-36.493 24.534-38.42 30.5-54.75V420v-.063a.326.326 0 0 1 0-.062.082.082 0 0 1 0-.031.082.082 0 0 1 0-.031 499.814 499.814 0 0 0-2.125-5.47c-.004-.01.004-.02 0-.03a380.087 380.087 0 0 0-2.156-5.344c-.004-.01.004-.021 0-.031-.72-1.75-1.457-3.47-2.188-5.157-.004-.01.004-.02 0-.031a227.922 227.922 0 0 0-2.219-4.938c-.005-.01.005-.02 0-.03a182.005 182.005 0 0 0-2.281-4.72c-.004-.008.004-.022 0-.03a140.826 140.826 0 0 0-2.313-4.438c-.005-.01.005-.023 0-.031a86.16 86.16 0 0 0-1.187-2.094c-.004-.008.004-.024 0-.031-.404-.696-.818-1.365-1.219-2.032-.402-.67-.81-1.326-1.219-1.969-.005-.007.005-.023 0-.03a79.679 79.679 0 0 0-1.218-1.844c-.279-.413-.562-.82-.844-1.22-.137-.186-.27-.374-.406-.562-.003-.003-.001-.023 0-.031-.005-.007.005-.024 0-.031-.416-.576-.86-1.112-1.281-1.656a51.67 51.67 0 0 0-2.281-2.75c-.319-.36-.648-.69-.97-1.032-.066-.07-.12-.15-.187-.219-.166-.173-.333-.331-.5-.5-.448-.448-.889-.9-1.344-1.312-.444-.402-.892-.79-1.344-1.156l-.03-.031c-.117-.095-.227-.19-.345-.282-.352-.278-.705-.526-1.062-.781-.056-.04-.1-.086-.156-.125-.413-.29-.83-.554-1.25-.813a21.825 21.825 0 0 0-2.938-1.5c-.332-.14-.663-.284-1-.406-.292-.105-.58-.19-.875-.281-.071-.022-.147-.041-.219-.063-.25-.073-.496-.156-.75-.218-.061-.016-.125-.017-.187-.031-.258-.061-.521-.108-.781-.157-.255-.048-.524-.119-.781-.156-.073-.01-.147-.022-.22-.031-.37-.049-.718-.07-1.093-.094-.292-.02-.58-.027-.875-.031-.337-.006-.69-.014-1.031 0z" font-weight="400" fill="url(#l)" overflow="visible" enable-background="accumulate" font-family="Sans" opacity=".789"/><path style="marker:none" d="M465.745 480.798c-10.635 2.706-18.33 4.608-25.45 14.37 7.156-4.388 16.5-5.457 24.549-3.577 12.064 3.722 20.67 13.9 27.435 24.05 5.583 9.538 9.09 20.955 18.476 27.652 9.673 7.866 22.155 11.69 34.477 12.201 5.19-1.655 4.262-8.413 6.983-12.198 4.497-10.897 2.998-23.384.156-35.402-4.383-17.904-15.636-31.402-34.456-28.42-16.856 2.672-36.081-2.768-52.17 1.325z" fill="url(#m)" overflow="visible" enable-background="accumulate" transform="matrix(1 0 0 1.62244 -309.151 -427.724)"/><path d="M465.745 480.798c-10.635 2.706-18.33 4.608-25.45 14.37 7.156-4.388 16.5-5.457 24.549-3.577 12.064 3.722 20.67 13.9 27.435 24.05 5.583 9.538 9.09 20.955 18.476 27.652 9.673 7.866 22.155 11.69 34.477 12.201 5.19-1.655 4.262-8.413 6.983-12.198 4.497-10.897 2.998-23.384.156-35.402-4.383-17.904-15.636-31.402-34.456-28.42-16.856 2.672-36.081-2.768-52.17 1.325z" style="marker:none" fill="url(#n)" overflow="visible" enable-background="accumulate" transform="matrix(1 0 0 1.62244 -309.151 -427.724)"/></g><g color="#000"><path style="marker:none" d="M522.664 213.746c6.1 73.108 4.162 121.793-71.719 120.1-74.772-1.668-95.005-38.125-87.656-118.962 4.103-45.128 11.957-95.092 30.83-120.564 4.459-6.017 9.3 2.95 19.929 3.982 4.932.478 8.58-3.119 14.323-4.15 8.36-1.501 18.612 2.665 22.574 2.909 6.777.416 16.88 3.602 23.908 3.48 11.081-.193 14.766-7.815 25.927 7.872 15.293 21.497 18.804 68.43 21.884 105.333z" opacity=".381" fill="url(#o)" overflow="visible" enable-background="accumulate" transform="translate(-296.909 -88.986)"/><path d="M522.591 213.701c6.1 73.108 4.163 121.794-71.718 120.1-74.773-1.668-95.006-38.124-87.657-118.961 4.103-45.128 11.957-95.092 30.83-120.564 4.46-6.018 9.3 2.95 19.93 3.981 4.931.479 8.58-3.118 14.322-4.15 8.361-1.5 18.613 2.666 22.575 2.91 6.777.415 16.879 3.602 23.907 3.48 11.082-.194 14.766-7.816 25.927 7.872 15.294 21.497 18.805 68.429 21.884 105.332z" style="marker:none" fill="url(#p)" overflow="visible" enable-background="accumulate" transform="translate(-296.909 -88.986)"/><path style="marker:none" d="M170.281 178.531c-27.029.477-51.742 7.462-71.062 18.75 10.44 31.435 35.931 46.474 83.312 47.531 44.569.995 63.627-15.4 70.531-43.906-20.713-13.855-48.821-22.375-79.812-22.375-.995 0-1.98-.017-2.969 0z" transform="translate(-28.565)" fill="url(#q)" overflow="visible" enable-background="accumulate"/><path d="M431.325 93.552c-83.12 100.364-96.5 184.534 28.04 186.397 2.287.01 4.59.024 6.782 0 22.852-.255 40.566-2.413 54.257-6.277-6.613-3.739-12.98-7.543-10.245-10.358 3.277-3.373-38.37-.988-32.287-6.09-14.981-7.158 57.07-126.09-14.174-163.725-7.823-4.133-24.109-3.805-32.373.053z" style="marker:none" fill="url(#r)" overflow="visible" enable-background="accumulate" transform="translate(-296.909 -88.986)"/><path style="marker:none" d="M445.637 181.89s-65.612 33.276-45.65 57.082c7.58.804 15.451 1.08 22.91.697 32.45-1.664 56.61-6.6 74.507-14.344 5.962-22.916 2.167-50.021-4.681-80.285-3.263-14.42-6.737-30.004-11.356-45.521-1.934.452-4.046.952-6.574.996-7.028.122-23.289-14.239-31.684-7.376-22.914 18.731 2.528 88.75 2.528 88.75z" fill="url(#s)" overflow="visible" enable-background="accumulate" transform="translate(-296.909 -88.986)"/><path style="marker:none" d="M448.747 92.946c-2.644-3.132-7.91-3.86-11.65-3.94-5.256-.185-7.58 1.034-13.596 1.114-6.516.444-9.639.953-13.252 5.63-35.33 45.724-26.386 158.578 1.564 173.343 2.684 2.548 5.77 4.998 9.28 7.294 216.907 56.965 8.047-98.771 34.955-137.505 6.64-26.07 2.7-34.089-7.3-45.936z" fill="url(#t)" overflow="visible" enable-background="accumulate" transform="translate(-296.909 -88.986)"/><path style="marker:none" d="M481.938 123.875c-2.7 8.145-7.227 21.93-8.106 31.595-1.31 14.415.169 24.34 6 30.312 4.67-6.553 4.394-17.314 3.281-30.656-.762-9.13 1.504-23.66-1.175-31.25z" transform="matrix(3.1875 0 0 3.1875 -1409.451 -376.738)" fill="url(#u)" overflow="visible" filter="url(#v)" enable-background="accumulate"/><path d="M470.053 120.385c-.391-.003-.775.153-1.125.625-5.921 7.99-8.432 22.739-9.72 36.896-.144 1.585-.269 3.117-.343 4.594-.893 17.71 3.394 27.702 16.375 31.25 1.956-1.093 3.638-3.524 4.344-5.531 1.147-3.265-2.094-6.728-2.063-10.188.034-3.86 4.6-8.074 2.5-11.312-.852-1.314-4.034.524-4.594-.938-1.222-3.196 5.366-4.913 6.125-8.25 1.21-5.312-1.004-10.653-3.537-15.476-1.677-3.194-6.783 1.13-7.947-2.283-1.312-3.846.72-8.27 2.307-13.208.57-1.771-1.048-4.925-1.298-5.429-.694-.377-.509-.746-1.024-.75z" style="marker:none" transform="matrix(3.1875 0 0 3.1875 -1395.895 -377.445)" fill="#d5597d" overflow="visible" filter="url(#w)" enable-background="accumulate"/><path d="M428.38 92.457c-11.683 34.734-41.341 183.368-10.555 224.21 4.668 5.947 8.377 8.833 11.681 15.159l6.563.952c-3.553-6.801-8.03-12.077-12.512-17.786-4.481-5.709-9.043-13.077-13.045-26.355-8.005-26.557 1.008-128.335 17.868-196.18z" style="text-indent:0;text-align:start;line-height:normal;text-transform:none;block-progression:tb;marker:none;-inkscape-font-specification:Sans" font-weight="400" fill="url(#x)" overflow="visible" enable-background="accumulate" font-family="Sans" transform="translate(-296.909 -88.986)"/><path style="marker:none" d="M397.596 92.247c-1.247-.01-2.471.488-3.586 1.992-18.873 25.472-26.676 75.5-30.78 120.627-.459 5.053-.858 9.935-1.095 14.643-2.845 56.453 10.817 88.298 52.195 99.61 6.235-3.484 11.597-11.232 13.846-17.632 3.656-10.405-6.673-21.444-6.574-32.472.11-12.304 14.663-25.736 7.968-36.059-2.714-4.186-12.86 1.672-14.642-2.988-3.896-10.187 17.102-15.663 19.523-26.297 3.856-16.933-3.287-31.224-11.361-46.6-2.705-5.15-3.374-15.996-8.048-21.274-4.561-5.152-13.138-4.733-14.97-10.107-4.182-12.26 9.418-17.81 4.895-36.27-.374-1.527-.895-3.375-1.693-4.981-2.212-1.203-4.035-2.178-5.678-2.192z" fill="url(#y)" overflow="visible" enable-background="accumulate" transform="translate(-296.909 -88.986)"/><path transform="translate(-28.565)" d="M94.219 171.938c3.451 37.134 18.818 59.176 51.781 68.187 6.234-3.483 11.595-11.226 13.844-17.625 2.8-7.972-2.612-16.324-5.25-24.75-11.643-8.932-26.1-14.246-41.719-14.344a71.637 71.637 0 0 0-4.25.094c-5.716.306-9.504-10.832-14.406-11.563z" style="marker:none" fill="url(#z)" overflow="visible" enable-background="accumulate"/><path style="marker:none" d="M482.308 139.01c-1.717 3.661-5.104 5.52-6.197 9.015-1.177 3.763.387 7.926-.067 11.849-.359 3.102-2.094 6.003-2.088 9.126.014 7.055 5.277 13.558 4.796 20.596-.02.305-.158.606-.34.902-.504.827 1.397 3.565 2.937 3.635 3.55.163 7.893-.647 11.472-1.144 14.002-1.947 17.68-15.115 15.677-35.802-1.12-11.563-2.077-26.318-6.875-33.062-3.501-4.922-6.799.468-9.865-.142-2.552-.21-3.671 4.582-5.283 8.576-1.162 2.88-2.875 4.892-4.167 6.452z" transform="matrix(3.24296 0 0 3.1875 -1422.498 -377.445)" fill="#d96080" overflow="visible" filter="url(#A)" enable-background="accumulate"/><path d="M451.57 140.43c-5.569 11.668-22.528 18.581-27.851 31.563-6.224 15.18.1 32.974-2.717 49.144-1.356 7.777-6.586 14.828-6.771 22.716-.513 21.873 13.283 42.035 15.803 63.774.666 5.747-4.072 12.986-.212 17.352 10.714 12.114 36.985 7.718 48.593 6.131 45.406-6.206 54.328-52.596 47.833-118.535-3.63-36.86-6.735-83.89-22.295-105.386-11.355-15.688-19.344-6.125-29.288-8.069-10.243-2.157-15.598 25.941-23.096 41.31z" style="marker:none" fill="url(#B)" overflow="visible" enable-background="accumulate" transform="translate(-296.909 -88.986)"/><path d="M387.234 122.219c-8.04 25.962-12.29 58.945-14.906 89.75-3.903 45.948.51 77.59 17.875 96.625 13.907-20.89 16.284-54.628 12.969-97.156-2.27-29.105-7.958-65.022-15.938-89.22z" style="marker:none" opacity=".5" fill="url(#C)" overflow="visible" filter="url(#D)" enable-background="accumulate" transform="translate(-296.909 -88.986)"/><path style="marker:none" d="M489.943 157.038c-1.442 11.917-1.45 28.934 1.233 36.399 1.002.288 2.464 1.075 3.449.938 4.287-.596 7.48-2.383 9.844-5.156.787-8.208 1.058-20.009.853-30.888-.422-22.465-6.282-32.367-6.282-32.367s-7.732 19.796-9.097 31.074z" transform="matrix(5.08023 0 0 3.08247 -2351.588 -358.394)" fill="url(#E)" overflow="visible" filter="url(#F)" enable-background="accumulate"/><path d="M489.438 136.719c-14.843 25.962-22.67 58.914-27.5 89.719-7.206 45.948.94 77.59 33 96.625 25.675-20.89 24.152-55.19 18.03-97.72-4.188-29.103-8.797-64.427-23.53-88.624z" style="marker:none" opacity=".5" fill="url(#G)" overflow="visible" filter="url(#H)" enable-background="accumulate" transform="translate(-296.909 -88.986)"/><path d="M484.156 124.813c7.542 59.758 11.55 149.452 7.969 172.843-1.79 11.696-3.777 18.16-5.781 23.188-1.297 3.253-3.781 9.781-3.781 9.781s12.5-26.375 11.986-49.51c2.411-60.484-6.477-156.303-10.393-156.303z" style="text-indent:0;text-align:start;line-height:normal;text-transform:none;block-progression:tb;marker:none;-inkscape-font-specification:Sans" font-weight="400" opacity=".66" fill="url(#I)" overflow="visible" enable-background="accumulate" font-family="Sans" transform="translate(-296.909 -88.986)"/><path d="M387.75 116.594c-23.388 94.288-22.056 131.66-.844 191.156l2.469.781c-1.334-5.58-3.005-9.91-4.688-14.594-19.827-58.248-12.153-115.171 3.063-177.343z" style="text-indent:0;text-align:start;line-height:normal;text-transform:none;block-progression:tb;marker:none;-inkscape-font-specification:Sans" font-weight="400" opacity=".66" fill="url(#J)" overflow="visible" enable-background="accumulate" font-family="Sans" transform="translate(-296.909 -88.986)"/><path transform="translate(-28.565)" d="M259.719 163.125c-3.191 2.587-6.426 5.155-9.531 5.125-19.911-.194-32.618 11.087-54.375 14.875-11.966 2.083-33.143-6.517-46.313-5.906 4.139 13.744 10.544 27.263 12.188 41.437.666 5.747-4.08 12.978-.22 17.344 10.714 12.114 36.987 7.711 48.595 6.125 35.663-4.874 48.799-34.545 49.656-79z" style="marker:none" fill="url(#K)" overflow="visible" enable-background="accumulate"/><path style="marker:none" d="M420.448 193.7c.043 7.366-.179 14.73-.844 22 6.777 11.274 21.144 37.278 17.125 14.345-11.51-14.49-11.38-17.446-16.28-36.344z" fill="#d5597d" overflow="visible" filter="url(#L)" enable-background="accumulate" transform="translate(-296.909 -88.986)"/><g transform="translate(-449.03 -91.829)" opacity=".578" filter="url(#M)" fill="#d5597d"><path style="marker:none" d="M571.698 193.008c.043 7.366-.18 14.73-.844 22 6.59 10.877 21.85 37.62 18.375 18.594-11.261-16.99-12.63-21.695-17.531-40.594z" opacity=".293" overflow="visible" filter="url(#N)" enable-background="accumulate"/><path d="M572.605 199.223c.026 4.376-.106 8.752-.501 13.072 3.916 6.463 14.62 24.604 15.375 16.842-8.84-9.36-11.961-18.685-14.874-29.914z" style="marker:none" overflow="visible" enable-background="accumulate"/></g><path d="M513.532 151.17c-3.902 20.604-5.768 44.157-7.78 64.593-3.637 36.913-2.442 67.679 7.28 88.72 11.512-21.156 10.553-53.362 7.282-92.563-1.603-19.21-3.344-41.108-6.782-60.75z" style="marker:none" opacity=".419" fill="url(#O)" overflow="visible" filter="url(#P)" enable-background="accumulate" transform="translate(-296.909 -88.986)"/><path style="marker:none" d="M362.215 257.062c3.632 51.308 28.673 75.159 89.091 76.5 58.727 1.304 74.95-28.167 75.784-74.764-15.952 29.743-47.217 42.12-81.921 42.12-35.74 0-67.381-12.654-82.954-43.856z" opacity=".209" fill="url(#Q)" overflow="visible" enable-background="accumulate" transform="translate(-296.909 -88.986)"/></g></svg>