<svg width="256" height="256" viewBox="0 0 67.733 67.733" xmlns="http://www.w3.org/2000/svg"><g stroke-linecap="round"><path d="M45.874 56.294l.734-3.212-.568 2.392-.315 3.525z" fill="#040200" stroke="#040200" stroke-width=".22355"/><path d="M27.512 66.11l-2.054-1.385 2.935 1.79 2.336.635z" stroke="#000" stroke-width=".22355"/><path d="M42.034 64.825l2.336-2.61-1.525 2.036-2.716 1.936z" fill="#120a01" stroke="#120a01" stroke-width=".22355"/><path d="M39.087 66.58l2.947-1.755-1.905 1.362-3.217.999z" fill="#0e0801" stroke="#0e0801" stroke-width=".22355"/><path d="M33.865 33.302l-2.282-.136-1.102.492 2.213-.613z" stroke="#000" stroke-width=".22355"/><path d="M32.477 67.472l-.087-.456 1.359.51.116-.295z" fill="#0c0601" stroke="#0c0601" stroke-width=".22355"/><path d="M33.749 67.526l1.149-.497.139.459-1.172-.257z" fill="#0e0601" stroke="#0e0601" stroke-width=".22355"/><path d="M33.865 33.302l1.388-.241 2.37.642-1.31-.51z" fill="#040200" stroke="#040200" stroke-width=".22355"/><path d="M22.006 58.856l-.315-2.707 1.196 3.313.328 2.625z" fill="#4c2605" stroke="#4c2605" stroke-width=".22355"/><path d="M46.37 50.773l.238-3.166-.063 2.307.063 3.168z" fill="#120801" stroke="#120801" stroke-width=".22355"/><path d="M33.865 33.302l-3.047.045-2.175.608 2.94-.789z" fill="#1c0e02" stroke="#1c0e02" stroke-width=".22355"/><path d="M42.845 36.394l-2.626-1.972 2.054 1.386 2.242 2.64z" fill="#040200" stroke="#040200" stroke-width=".22355"/><path d="M44.533 59.594l1.341-3.3-.15 2.705-1.354 3.215z" fill="#6e3607" stroke="#6e3607" stroke-width=".22355"/><path d="M33.865 33.302l2.448-.11 3.025.826-2.336-.633z" fill="#221002" stroke="#221002" stroke-width=".22355"/><path d="M45.874 45.206l-.15-3.527.316 2.707.568 3.221z" fill="#1e1002" stroke="#1e1002" stroke-width=".22355"/><path d="M28.393 66.515l-1.082-1.287 2.794 1.605 1.312.507z" fill="#4a2605" stroke="#4a2605" stroke-width=".22355"/><path d="M21.123 52.928l.062-2.307.9 2.993-.394 2.535z" fill="#5c2e06" stroke="#5c2e06" stroke-width=".22355"/><path d="M23.215 62.087l-.328-2.625 1.86 3.22.71 2.043z" fill="#824008" stroke="#824008" stroke-width=".22355"/><path d="M23.36 38.321l1.525-2.036-1.67 2.758-1.21 2.493z" fill="#1a0e02" stroke="#1a0e02" stroke-width=".22355"/><path d="M39.977 65.304l-.89 1.276-2.94.79 1.103-.493z" fill="#562c05" stroke="#562c05" stroke-width=".22355"/><path d="M25.458 64.725l-.711-2.044 2.564 2.547 1.082 1.287z" fill="#7e4008" stroke="#7e4008" stroke-width=".22355"/><path d="M33.865 33.302l-3.346.266-2.92.778 3.22-.999z" fill="#402004" stroke="#402004" stroke-width=".22355"/><path d="M42.568 62.789l1.965-3.195-.163 2.62-2.336 2.611z" fill="#9e4e0a" stroke="#9e4e0a" stroke-width=".22355"/><path d="M45.311 53.753l1.06-2.98.237 2.31-.734 3.211z" fill="#7e3e08" stroke="#7e3e08" stroke-width=".22355"/><path d="M44.37 39.17l-1.525-2.776 1.67 2.054 1.21 3.23z" fill="#3a1c04" stroke="#3a1c04" stroke-width=".22355"/><path d="M33.865 33.302l3.137.083 3.217 1.037-3.007-.813z" fill="#462404" stroke="#462404" stroke-width=".22355"/><path d="M21.123 47.453l.568-2.392.393 3.376-.899 2.184z" fill="#6a3607" stroke="#6a3607" stroke-width=".22355"/><path d="M27.6 34.346l2.919-.778-3.007 1.212-2.627 1.505z" fill="#482404" stroke="#482404" stroke-width=".22355"/><path d="M39.977 65.304l2.591-2.515-.534 2.036-2.947 1.755z" fill="#944a09" stroke="#944a09" stroke-width=".22355"/><path d="M30.105 66.833l.045-1.239 2.24 1.422.087.456z" fill="#7c3e08" stroke="#7c3e08" stroke-width=".22355"/><path d="M40.13 34.856l-2.918-1.247 3.007.813 2.626 1.972z" fill="#562c05" stroke="#562c05" stroke-width=".22355"/><path d="M34.898 67.03l2.104-1.393.248 1.24-2.213.61z" fill="#824208" stroke="#824208" stroke-width=".22355"/><path d="M21.69 56.15l.394-2.536 1.56 2.935-.757 2.913z" fill="#c4620c" stroke="#c4620c" stroke-width=".22355"/><path d="M45.311 48.578l.563-3.372.734 2.401-.237 3.166z" fill="#8e4609" stroke="#8e4609" stroke-width=".22355"/><path d="M22.006 41.536l1.21-2.493-.33 3.434-1.195 2.584z" fill="#783c07" stroke="#783c07" stroke-width=".22355"/><path d="M33.865 33.302l-3.136.488-3.217.99 3.007-1.212z" fill="#663406" stroke="#663406" stroke-width=".22355"/><path d="M32.39 67.016l1.16-1.27 1.348 1.283-1.149.497z" fill="#904809" stroke="#904809" stroke-width=".22355"/><path d="M33.865 33.302l3.347.307 2.917 1.247-3.217-1.028z" fill="#6e3607" stroke="#6e3607" stroke-width=".22355"/><path d="M24.885 36.285l2.627-1.505-2.054 2.113-2.243 2.15z" fill="#7a3c08" stroke="#7a3c08" stroke-width=".22355"/><path d="M43.621 56.67l1.69-2.917.563 2.541-1.341 3.3z" fill="#e4720e" stroke="#e4720e" stroke-width=".22355"/><path d="M44.533 42.609l-.163-3.438 1.355 2.508.15 3.527z" fill="#9a4c0a" stroke="#9a4c0a" stroke-width=".22355"/><path d="M21.185 50.62l.9-2.183.99 2.982-.99 2.195z" fill="#be5e0c" stroke="#be5e0c" stroke-width=".22355"/><path d="M42.034 36.993l-1.905-2.137 2.716 1.538 1.525 2.777z" fill="#924809" stroke="#924809" stroke-width=".22355"/><path d="M22.887 59.462l.758-2.913 1.763 3.403-.661 2.73z" fill="#ff8010" stroke="#ff8010" stroke-width=".22355"/><path d="M27.31 65.228l.305-2.015 2.535 2.381-.045 1.239z" fill="#e0700e" stroke="#e0700e" stroke-width=".22355"/><path d="M33.865 33.302l-2.448.68-3.024 1.207 2.336-1.4z" fill="#8c4609" stroke="#8c4609" stroke-width=".22355"/><path d="M33.865 33.302l3.047.526 2.175 1.424-2.94-1.241z" fill="#924809" stroke="#924809" stroke-width=".22355"/><path d="M27.512 34.78l3.217-.99-2.336 1.4-2.935 1.703z" fill="#9e4e0a" stroke="#9e4e0a" stroke-width=".22355"/><path d="M37.002 65.637l2.49-2.352.485 2.019-2.727 1.573z" fill="#ee780f" stroke="#ee780f" stroke-width=".22355"/><path d="M24.747 62.681l.661-2.73 2.207 3.262-.304 2.015z" fill="#ff8a11" stroke="#ff8a11" stroke-width=".22355"/><path d="M41.75 60.052l1.871-3.382.912 2.924-1.965 3.195z" fill="#ff8e12" stroke="#ff8e12" stroke-width=".22355"/><path d="M21.69 45.061l1.197-2.584.758 3.686-1.56 2.274z" fill="#de6e0e" stroke="#de6e0e" stroke-width=".22355"/><path d="M44.162 51.549l1.149-2.971 1.06 2.195-1.06 2.98z" fill="#de700e" stroke="#de700e" stroke-width=".22355"/><path d="M39.087 35.252l-2.175-1.424 3.217 1.028 1.905 2.137z" fill="#ac560b" stroke="#ac560b" stroke-width=".22355"/><path d="M33.865 33.302l-1.388.812-2.372 1.393 1.312-1.525z" fill="#a8540b" stroke="#a8540b" stroke-width=".22355"/><path d="M39.492 63.285l2.258-3.233.818 2.737-2.59 2.515z" fill="#ff9413" stroke="#ff9413" stroke-width=".22355"/><path d="M23.215 39.043l2.243-2.15-.711 2.903-1.86 2.68z" fill="#d0680d" stroke="#d0680d" stroke-width=".22355"/><path d="M33.865 33.302l2.283.709 1.102 1.538-2.213-1.42z" fill="#ac560b" stroke="#ac560b" stroke-width=".22355"/><path d="M43.621 46.284l.912-3.675 1.341 2.597-.563 3.372z" fill="#fc7e10" stroke="#fc7e10" stroke-width=".22355"/><path d="M22.084 53.614l.99-2.195 1.684 2.792-1.113 2.338z" fill="#ff8210" stroke="#ff8210" stroke-width=".22355"/><path d="M30.15 65.594l1.256-1.99 2.144 2.142-1.16 1.27z" fill="#ff8a11" stroke="#ff8a11" stroke-width=".22355"/><path d="M33.865 33.302l-.116.863-1.36 1.518.088-1.57z" fill="#b85c0c" stroke="#b85c0c" stroke-width=".22355"/><path d="M33.865 33.302l1.172.827-.139 1.57-1.149-1.534z" fill="#ba5c0c" stroke="#ba5c0c" stroke-width=".22355"/><path d="M33.55 65.746l2.034-2.117 1.418 2.008-2.104 1.392z" fill="#ff8c12" stroke="#ff8c12" stroke-width=".22355"/><path d="M42.568 39.906l-.534-2.913 2.336 2.178.163 3.438z" fill="#ec760f" stroke="#ec760f" stroke-width=".22355"/><path d="M42.358 54.316l1.804-2.767 1.149 2.204-1.69 2.917z" fill="#ff9212" stroke="#ff9212" stroke-width=".22355"/><path d="M22.084 48.437l1.56-2.274 1.114 3.094-1.684 2.162z" fill="#ff8e12" stroke="#ff8e12" stroke-width=".22355"/><path d="M28.393 35.19l3.024-1.208-1.312 1.525-2.794 1.91z" fill="#e8740f" stroke="#e8740f" stroke-width=".22355"/><path d="M25.458 36.893l2.935-1.704-1.082 2.229-2.564 2.378z" fill="#fc7e10" stroke="#fc7e10" stroke-width=".22355"/><path d="M23.645 56.55l1.113-2.339 2.101 2.935-1.45 2.806z" fill="#ffa214" stroke="#ffa214" stroke-width=".22355"/><path d="M39.977 37.496L37.25 35.55l-1.102-1.538 2.94 1.24z" fill="#f47a0f" stroke="#f47a0f" stroke-width=".22355"/><path d="M22.887 42.477l1.86-2.68.661 3.51-1.763 2.856z" fill="#ff9212" stroke="#ff9212" stroke-width=".22355"/><path d="M27.615 63.213l1.422-2.61 2.37 3.002-1.257 1.99z" fill="#ffb617" stroke="#ffb617" stroke-width=".22355"/><path d="M39.977 37.496l-.89-2.244 2.947 1.741.534 2.913z" fill="#f81" stroke="#f81" stroke-width=".22355"/><path d="M42.358 49.364l1.263-3.08 1.69 2.294-1.15 2.97z" fill="#ff9c14" stroke="#ff9c14" stroke-width=".22355"/><path d="M42.358 54.316l1.263 2.354-1.871 3.382-1.578-2.825z" fill="#ffb016" stroke="#ffb016" stroke-width=".22355"/><path d="M25.408 59.952l1.451-2.806 2.178 3.456-1.422 2.611z" fill="#ffba17" stroke="#ffba17" stroke-width=".22355"/><path d="M35.584 63.63l2.352-2.974 1.556 2.629-2.49 2.352z" fill="#ffbe18" stroke="#ffbe18" stroke-width=".22355"/><path d="M41.75 43.405l.818-3.499 1.965 2.703-.912 3.675z" fill="#ffa014" stroke="#ffa014" stroke-width=".22355"/><path d="M37.936 60.656l2.236-3.43 1.578 2.826-2.258 3.233z" fill="#ffc418" stroke="#ffc418" stroke-width=".22355"/><path d="M30.105 35.507l2.372-1.393-.087 1.57-2.24 2.078z" fill="#ff8e12" stroke="#ff8e12" stroke-width=".22355"/><path d="M31.406 63.605l2.043-2.63 2.135 2.654-2.034 2.117z" fill="#ffc819" stroke="#ffc819" stroke-width=".22355"/><path d="M23.074 51.419l1.684-2.162 1.697 2.79-1.697 2.164z" fill="#ffac15" stroke="#ffac15" stroke-width=".22355"/><path d="M34.898 35.699l.139-1.57 2.213 1.42-.248 2.253z" fill="#ff9012" stroke="#ff9012" stroke-width=".22355"/><path d="M32.39 35.683l1.359-1.518 1.149 1.534-1.348 2.19z" fill="#ff9613" stroke="#ff9613" stroke-width=".22355"/><path d="M23.645 46.163l1.763-2.857 1.451 3.452-2.101 2.5z" fill="#ffb016" stroke="#ffb016" stroke-width=".22355"/><path d="M24.747 39.796l2.564-2.378.304 2.91-2.207 2.978z" fill="#ffae16" stroke="#ffae16" stroke-width=".22355"/><path d="M42.358 54.316l-1.82-2.184 1.82-2.768 1.804 2.185z" fill="#ffb817" stroke="#ffb817" stroke-width=".22355"/><path d="M27.31 37.418l2.795-1.911.045 2.255-2.535 2.567z" fill="#ffae16" stroke="#ffae16" stroke-width=".22355"/><path d="M24.758 54.211l1.697-2.164 2.213 2.785-1.809 2.314z" fill="#ffc018" stroke="#ffc018" stroke-width=".22355"/><path d="M39.492 40.4l.485-2.904 2.591 2.41-.818 3.499z" fill="#ffba17" stroke="#ffba17" stroke-width=".22355"/><path d="M42.358 49.364l-2.186-2.526 1.578-3.433 1.871 2.879z" fill="#ffbc18" stroke="#ffbc18" stroke-width=".22355"/><path d="M29.037 60.602l2.03-2.716 2.382 3.09-2.043 2.629z" fill="#ffe01c" stroke="#ffe01c" stroke-width=".22355"/><path d="M37.002 37.802l.248-2.253 2.727 1.947-.485 2.904z" fill="#ffb617" stroke="#ffb617" stroke-width=".22355"/><path d="M33.45 60.976l2.367-3.06 2.12 2.74-2.353 2.973z" fill="#ffe41c" stroke="#ffe41c" stroke-width=".22355"/><path d="M26.86 57.146l1.808-2.314 2.398 3.054-2.03 2.716z" fill="#ffd41a" stroke="#ffd41a" stroke-width=".22355"/><path d="M38.25 54.89l2.288-2.758 1.82 2.184-2.186 2.91z" fill="#ffca19" stroke="#ffca19" stroke-width=".22355"/><path d="M35.817 57.915l2.432-3.024 1.923 2.336-2.236 3.429z" fill="#ffdc1b" stroke="#ffdc1b" stroke-width=".22355"/><path d="M24.758 49.257l2.101-2.5 1.809 2.898-2.213 2.392z" fill="#ffcc19" stroke="#ffcc19" stroke-width=".22355"/><path d="M25.408 43.306l2.207-2.977 1.422 3.288-2.178 3.14zM30.15 37.762l2.24-2.079 1.16 2.207-2.144 2.671z" fill="#ffca19" stroke="#ffca19" stroke-width=".22355"/><path d="M38.25 49.713l1.922-2.875 2.186 2.526-1.82 2.768z" fill="#ffd61b" stroke="#ffd61b" stroke-width=".22355"/><path d="M33.55 37.89l1.348-2.191 2.104 2.103-1.418 2.784z" fill="#ffcc19" stroke="#ffcc19" stroke-width=".22355"/><path d="M37.936 43.67l1.556-3.27 2.258 3.005-1.578 3.433z" fill="#ffd61b" stroke="#ffd61b" stroke-width=".22355"/><path d="M31.066 57.886l2.352-2.68 2.399 2.71-2.368 3.06z" fill="#fff21e" stroke="#fff21e" stroke-width=".22355"/><path d="M26.455 52.047l2.213-2.392 2.269 2.772-2.27 2.405z" fill="#ffe21c" stroke="#ffe21c" stroke-width=".22355"/><path d="M27.615 40.329l2.535-2.567 1.256 2.799-2.37 3.056z" fill="#ffde1c" stroke="#ffde1c" stroke-width=".22355"/><path d="M28.668 54.832l2.269-2.405 2.481 2.779-2.352 2.68z" fill="#ffee1e" stroke="#ffee1e" stroke-width=".22355"/><path d="M35.913 52.458l2.336-2.745 2.29 2.419-2.29 2.759z" fill="#ffe81d" stroke="#ffe81d" stroke-width=".22355"/><path d="M35.584 40.586l1.418-2.784 2.49 2.598-1.556 3.27z" fill="#ffe41d" stroke="#ffe41d" stroke-width=".22355"/><path d="M33.418 55.206l2.495-2.748 2.336 2.433-2.432 3.024z" fill="#fff21e" stroke="#fff21e" stroke-width=".22355"/><path d="M26.86 46.758l2.177-3.141 2.03 3.181-2.4 2.857z" fill="#ffe01c" stroke="#ffe01c" stroke-width=".22355"/><path d="M35.817 46.827l2.12-3.156 2.235 3.167-1.923 2.875z" fill="#ffe81d" stroke="#ffe81d" stroke-width=".22355"/><path d="M31.406 40.561l2.144-2.671 2.034 2.696-2.135 3.069z" fill="#fff21e" stroke="#fff21e" stroke-width=".22355"/><path d="M28.668 49.655l2.398-2.857 2.352 2.933-2.481 2.696z" fill="#fff61f" stroke="#fff61f" stroke-width=".22355"/><path d="M30.937 52.427l2.481-2.696 2.495 2.727-2.495 2.748z" fill="#fffc1f" stroke="#fffc1f" stroke-width=".22355"/><path d="M29.037 43.617l2.37-3.056 2.042 3.094-2.383 3.143z" fill="#fff61f" stroke="#fff61f" stroke-width=".22355"/><path d="M33.418 49.731l2.399-2.904 2.432 2.886-2.336 2.745zM33.45 43.655l2.134-3.07 2.352 3.086-2.12 3.156z" fill="#fffa1f" stroke="#fffa1f" stroke-width=".22355"/><path d="M31.066 46.798l2.383-3.143 2.368 3.172-2.399 2.904z" fill="#fffe20" stroke="#fffe20" stroke-width=".22355"/><g><path d="M273.6 190.51l-7.25-14.12 1.58 1.83 6.8 13.59z" fill="#070d02" stroke="#070d02" transform="matrix(.29193 0 0 .45432 -49.917 -65.292)"/><path d="M298.84 192.02l6.51-13.48 2.61-1.8-7.27 14z" fill="#112304" stroke="#112304" transform="matrix(.29193 0 0 .45432 -49.917 -65.292)"/><path d="M266.35 176.39l-12.18-32.49 13.76 34.32z" fill="#091302" stroke="#091302" transform="matrix(.29193 0 0 .45432 -49.917 -65.292)"/><path d="M273.92 191.42l-6.89-13.63 5.53 1.59 5.29 13.18z" fill="#30600c" stroke="#30600c" transform="matrix(.29193 0 0 .45432 -49.917 -65.292)"/><path d="M305.35 178.54l14.02-34.09-11.41 32.29z" fill="#152905" stroke="#152905" transform="matrix(.29193 0 0 .45432 -49.917 -65.292)"/><path d="M295.31 192.7l4.78-13.09 6.4-1.49-6.63 13.52z" fill="#39720e" stroke="#39720e" transform="matrix(.29193 0 0 .45432 -49.917 -65.292)"/><path d="M276.23 192.25l-5.47-13.21 8.64 1.1 2.98 12.9z" fill="#50a114" stroke="#50a114" transform="matrix(.29193 0 0 .45432 -49.917 -65.292)"/><path d="M290.53 193.1l2.32-12.84 9.22-.96-4.98 13.12z" fill="#57ad16" stroke="#57ad16" transform="matrix(.29193 0 0 .45432 -49.917 -65.292)"/><path d="M267.03 177.79l-8.48-31.78 14.01 33.37z" fill="#34690d" stroke="#34690d" transform="matrix(.29193 0 0 .45432 -49.917 -65.292)"/><path d="M280.2 192.86l-3.23-12.91 10.44.45.22 12.78z" fill="#63c619" stroke="#63c619" transform="matrix(.29193 0 0 .45432 -49.917 -65.292)"/><path d="M285.22 193.16l-.49-12.78 10.64-.28-2.58 12.86z" fill="#65cb19" stroke="#65cb19" transform="matrix(.29193 0 0 .45432 -49.917 -65.292)"/><path d="M300.09 179.61l13.73-33.13-7.33 31.64z" fill="#3e7c0f" stroke="#3e7c0f" transform="matrix(.29193 0 0 .45432 -49.917 -65.292)"/><path d="M270.76 179.04l-3.49-31.37 12.13 32.47z" fill="#56ad16" stroke="#56ad16" transform="matrix(.29193 0 0 .45432 -49.917 -65.292)"/><path d="M292.85 180.26l11.35-32.27-2.13 31.31z" fill="#5db917" stroke="#5db917" transform="matrix(.29193 0 0 .45432 -49.917 -65.292)"/><path d="M276.97 179.95l2.04-31.32 8.4 31.77z" fill="#6ad41a" stroke="#6ad41a" transform="matrix(.29193 0 0 .45432 -49.917 -65.292)"/><path d="M284.73 180.38l7.24-31.64 3.4 31.36z" fill="#6cd81b" stroke="#6cd81b" transform="matrix(.29193 0 0 .45432 -49.917 -65.292)"/></g><g><path d="M278.54 187.21l-.78-.91-5.01-9.76 1.09 1.27z" fill="#070d02" stroke="#070d02" transform="matrix(.29193 0 0 .38502 -49.917 -51.906)"/><path d="M296.5 186.46l-1.29.89 4.51-9.32 1.8-1.25z" fill="#112304" stroke="#112304" transform="matrix(.29193 0 0 .38502 -49.917 -51.906)"/><path d="M272.75 176.54l-8.42-22.47 9.51 23.74z" fill="#091302" stroke="#091302" transform="matrix(.29193 0 0 .38502 -49.917 -51.906)"/><path d="M280.7 187.72l-2.72-.78-4.77-9.43 3.83 1.1z" fill="#30600c" stroke="#30600c" transform="matrix(.29193 0 0 .38502 -49.917 -51.906)"/><path d="M299.72 178.03l9.69-23.58-7.89 22.33z" fill="#152905" stroke="#152905" transform="matrix(.29193 0 0 .38502 -49.917 -51.906)"/><path d="M295.92 187.09l-3.15.73 3.31-9.05 4.43-1.03z" fill="#39720e" stroke="#39720e" transform="matrix(.29193 0 0 .38502 -49.917 -51.906)"/><path d="M283.83 188.05l-4.25-.54-3.79-9.14 5.98.77z" fill="#50a114" stroke="#50a114" transform="matrix(.29193 0 0 .38502 -49.917 -51.906)"/><path d="M294 187.63l-4.53.47 1.6-8.88 6.38-.66z" fill="#57ad16" stroke="#57ad16" transform="matrix(.29193 0 0 .38502 -49.917 -51.906)"/><path d="M273.21 177.51l-5.86-21.98 9.69 23.08z" fill="#34690d" stroke="#34690d" transform="matrix(.29193 0 0 .38502 -49.917 -51.906)"/><path d="M287.46 188.15l-5.13-.22-2.24-8.93 7.22.31z" fill="#63c619" stroke="#63c619" transform="matrix(.29193 0 0 .38502 -49.917 -51.906)"/><path d="M291.03 188l-5.23.14-.34-8.84 7.36-.19z" fill="#65cb19" stroke="#65cb19" transform="matrix(.29193 0 0 .38502 -49.917 -51.906)"/><path d="M296.08 178.77l9.49-22.91-5.06 21.88z" fill="#3e7c0f" stroke="#3e7c0f" transform="matrix(.29193 0 0 .38502 -49.917 -51.906)"/><path d="M275.79 178.37l-2.41-21.69 8.39 22.46z" fill="#56ad16" stroke="#56ad16" transform="matrix(.29193 0 0 .38502 -49.917 -51.906)"/><path d="M291.07 179.22l7.85-22.32-1.47 21.66z" fill="#5db917" stroke="#5db917" transform="matrix(.29193 0 0 .38502 -49.917 -51.906)"/><path d="M280.09 179l1.41-21.66 5.81 21.97z" fill="#6ad41a" stroke="#6ad41a" transform="matrix(.29193 0 0 .38502 -49.917 -51.906)"/><path d="M285.46 179.3l5.01-21.88 2.35 21.69z" fill="#6cd81b" stroke="#6cd81b" transform="matrix(.29193 0 0 .38502 -49.917 -51.906)"/></g><g><path d="M265.36 185.04l7.71 15.41-1.27-1.48-8.23-16.01z" fill="#070d02" stroke="#070d02" transform="matrix(.2537 0 0 .2707 -38.954 -28.812)"/><path d="M310.76 183.36l-8.24 15.87-2.11 1.45 7.38-15.28z" fill="#112304" stroke="#112304" transform="matrix(.2537 0 0 .2707 -38.954 -28.812)"/><path d="M263.57 182.96l-13.81-36.84 15.6 38.92z" fill="#091302" stroke="#091302" transform="matrix(.2537 0 0 .2707 -38.954 -28.812)"/><path d="M270.61 186.35l6 14.94-4.46-1.28-7.81-15.47z" fill="#30600c" stroke="#30600c" transform="matrix(.2537 0 0 .2707 -38.954 -28.812)"/><path d="M307.79 185.4l15.9-38.66-12.93 36.62z" fill="#152905" stroke="#152905" transform="matrix(.2537 0 0 .2707 -38.954 -28.812)"/><path d="M309.09 184.92l-7.51 15.34-5.17 1.2 5.42-14.84z" fill="#39720e" stroke="#39720e" transform="matrix(.2537 0 0 .2707 -38.954 -28.812)"/><path d="M278.36 187.22l3.39 14.62-6.97-.9-6.21-14.98z" fill="#50a114" stroke="#50a114" transform="matrix(.2537 0 0 .2707 -38.954 -28.812)"/><path d="M304.08 186.26l-5.65 14.88-7.44.77 2.63-14.56z" fill="#57ad16" stroke="#57ad16" transform="matrix(.2537 0 0 .2707 -38.954 -28.812)"/><path d="M264.34 184.54l-9.62-36.03 15.89 37.84z" fill="#34690d" stroke="#34690d" transform="matrix(.2537 0 0 .2707 -38.954 -28.812)"/><path d="M287.45 187.51l.25 14.49-8.42-.37-3.66-14.64z" fill="#63c619" stroke="#63c619" transform="matrix(.2537 0 0 .2707 -38.954 -28.812)"/><path d="M296.48 187.17l-2.92 14.59-8.59.22-.56-14.5z" fill="#65cb19" stroke="#65cb19" transform="matrix(.2537 0 0 .2707 -38.954 -28.812)"/><path d="M301.83 186.62l15.57-37.58-8.31 35.88z" fill="#3e7c0f" stroke="#3e7c0f" transform="matrix(.2537 0 0 .2707 -38.954 -28.812)"/><path d="M268.57 185.96l-3.96-35.56 13.75 36.82z" fill="#56ad16" stroke="#56ad16" transform="matrix(.2537 0 0 .2707 -38.954 -28.812)"/><path d="M293.62 187.35l12.87-36.6-2.41 35.51z" fill="#5db917" stroke="#5db917" transform="matrix(.2537 0 0 .2707 -38.954 -28.812)"/><path d="M275.62 186.99l2.3-35.51 9.53 36.03z" fill="#6ad41a" stroke="#6ad41a" transform="matrix(.2537 0 0 .2707 -38.954 -28.812)"/><path d="M284.41 187.48l8.22-35.87 3.85 35.56z" fill="#6cd81b" stroke="#6cd81b" transform="matrix(.2537 0 0 .2707 -38.954 -28.812)"/></g><g><path d="M271.91 210.78l-8.19-16.08 1.22 2.1 7.84 15.48z" fill="#010300" stroke="#010300" transform="matrix(.29193 0 0 .23377 -49.917 -19.547)"/><path d="M300.03 212.73l7.2-15.22 3.52-2.02-8.22 15.8z" fill="#172d06" stroke="#172d06" transform="matrix(.29193 0 0 .23377 -49.917 -19.547)"/><path d="M249.54 157.75l15.4 39.05-1.22-2.1z" fill="#040801" stroke="#040801" transform="matrix(.29193 0 0 .23377 -49.917 -19.547)"/><path d="M271.98 211.83l-7.92-15.53 5.77 1.86 6.26 14.99z" fill="#2b570b" stroke="#2b570b" transform="matrix(.29193 0 0 .23377 -49.917 -19.547)"/><path d="M323.22 158.98l-12.47 36.51-3.52 2.02z" fill="#1a3406" stroke="#1a3406" transform="matrix(.29193 0 0 .23377 -49.917 -19.547)"/><path d="M295.82 213.47l5.12-14.8 7.72-1.63-7.35 15.27z" fill="#3d7b0f" stroke="#3d7b0f" transform="matrix(.29193 0 0 .23377 -49.917 -19.547)"/><path d="M274.35 212.78l-6.46-15.03 9.45 1.33 3.73 14.65z" fill="#4d9a13" stroke="#4d9a13" transform="matrix(.29193 0 0 .23377 -49.917 -19.547)"/><path d="M290.28 213.88l2.26-14.54 10.75-1-5.37 14.83z" fill="#59b216" stroke="#59b216" transform="matrix(.29193 0 0 .23377 -49.917 -19.547)"/><path d="M253.85 160.18l15.98 37.98-5.77-1.86z" fill="#305f0c" stroke="#305f0c" transform="matrix(.29193 0 0 .23377 -49.917 -19.547)"/><path d="M278.66 213.51l-4-14.67 11.68.6.63 14.5z" fill="#62c418" stroke="#62c418" transform="matrix(.29193 0 0 .23377 -49.917 -19.547)"/><path d="M284.26 213.9l-.95-14.51 12.14-.21-2.56 14.57z" fill="#66cc1a" stroke="#66cc1a" transform="matrix(.29193 0 0 .23377 -49.917 -19.547)"/><path d="M316.31 161.23l-7.65 35.81-7.72 1.63z" fill="#428511" stroke="#428511" transform="matrix(.29193 0 0 .23377 -49.917 -19.547)"/><path d="M263.21 162.15l14.13 36.93-9.45-1.33z" fill="#53a615" stroke="#53a615" transform="matrix(.29193 0 0 .23377 -49.917 -19.547)"/><path d="M304.95 162.84l-1.66 35.5-10.75 1z" fill="#5fbf18" stroke="#5fbf18" transform="matrix(.29193 0 0 .23377 -49.917 -19.547)"/><path d="M276.21 163.34l10.13 36.1-11.68-.6z" fill="#68d11a" stroke="#68d11a" transform="matrix(.29193 0 0 .23377 -49.917 -19.547)"/><path d="M290.87 163.59l4.58 35.59-12.14.21z" fill="#6dda1b" stroke="#6dda1b" transform="matrix(.29193 0 0 .23377 -49.917 -19.547)"/></g><g><path d="M273.67 223.42l-7.21-14 1.72 1.82 6.71 13.48z" fill="#081002" stroke="#081002" transform="matrix(.29193 0 0 .22498 -50.024 -16.715)"/><path d="M298.85 224.86l6.51-13.39 2.45-1.8-7.22 13.92z" fill="#102004" stroke="#102004" transform="matrix(.29193 0 0 .22498 -50.024 -16.715)"/><path d="M268.18 211.24l-1.72-1.82-11.98-32.23z" fill="#0b1603" stroke="#0b1603" transform="matrix(.29193 0 0 .22498 -50.024 -16.715)"/><path d="M274.06 224.33l-6.81-13.52 5.62 1.57 5.18 13.07z" fill="#31630c" stroke="#31630c" transform="matrix(.29193 0 0 .22498 -50.024 -16.715)"/><path d="M307.81 209.67l-2.45 1.8 13.89-33.89z" fill="#132605" stroke="#132605" transform="matrix(.29193 0 0 .22498 -50.024 -16.715)"/><path d="M295.4 225.55l4.82-13.01 6.24-1.49-6.62 13.44z" fill="#38700e" stroke="#38700e" transform="matrix(.29193 0 0 .22498 -50.024 -16.715)"/><path d="M276.42 225.15l-5.37-13.11 8.67 1.08 2.87 12.79z" fill="#51a314" stroke="#51a314" transform="matrix(.29193 0 0 .22498 -50.024 -16.715)"/><path d="M290.69 225.96l2.4-12.76 9.08-.97-5.02 13.04z" fill="#56ac15" stroke="#56ac15" transform="matrix(.29193 0 0 .22498 -50.024 -16.715)"/><path d="M272.87 212.38l-5.62-1.57-8.26-31.53z" fill="#366c0d" stroke="#366c0d" transform="matrix(.29193 0 0 .22498 -50.024 -16.715)"/><path d="M280.42 225.74l-3.12-12.81 10.4.42.11 12.69z" fill="#64c719" stroke="#64c719" transform="matrix(.29193 0 0 .22498 -50.024 -16.715)"/><path d="M285.42 226.03l-.38-12.69 10.54-.3-2.66 12.78z" fill="#65ca19" stroke="#65ca19" transform="matrix(.29193 0 0 .22498 -50.024 -16.715)"/><path d="M306.46 211.05l-6.24 1.49 13.68-32.93z" fill="#3d790f" stroke="#3d790f" transform="matrix(.29193 0 0 .22498 -50.024 -16.715)"/><path d="M279.72 213.12l-8.67-1.08-3.27-31.13z" fill="#57af16" stroke="#57af16" transform="matrix(.29193 0 0 .22498 -50.024 -16.715)"/><path d="M302.17 212.23l-9.08.97 11.38-32.07z" fill="#5cb817" stroke="#5cb817" transform="matrix(.29193 0 0 .22498 -50.024 -16.715)"/><path d="M287.7 213.35l-10.4-.42 2.21-31.1z" fill="#6ad51b" stroke="#6ad51b" transform="matrix(.29193 0 0 .22498 -50.024 -16.715)"/><path d="M295.58 213.04l-10.54.3 7.36-31.43z" fill="#6cd81b" stroke="#6cd81b" transform="matrix(.29193 0 0 .22498 -50.024 -16.715)"/></g><g><path d="M281.69 221.5l-1.6-4.56 8.69-.25z" fill="#1f3e08" stroke="#1f3e08" transform="matrix(.34487 0 0 .47744 -65.715 -70.145)"/><path d="M294.79 221.58l-8.2-4.9 8.57.35z" fill="#1e3c08" stroke="#1e3c08" transform="matrix(.34487 0 0 .47744 -65.715 -70.145)"/><path d="M269.42 222.29l5.24-4.69 7.49-.8z" fill="#183006" stroke="#183006" transform="matrix(.34487 0 0 .47744 -65.715 -70.145)"/><path d="M306.72 222.52l-13.56-5.65 7.15.89z" fill="#162c05" stroke="#162c05" transform="matrix(.34487 0 0 .47744 -65.715 -70.145)"/><path d="M259.83 223.84l11.29-5.26 5.14-1.24z" fill="#0a1403" stroke="#0a1403" transform="matrix(.34487 0 0 .47744 -65.715 -70.145)"/><path d="M315.66 224.17l-16.85-6.69 4.64 1.29z" fill="#070e02" stroke="#070e02" transform="matrix(.34487 0 0 .47744 -65.715 -70.145)"/></g></g></svg>