<svg viewBox="0 0 603.36 416.3" xmlns="http://www.w3.org/2000/svg" xmlns:xlink="http://www.w3.org/1999/xlink"><defs><linearGradient id="c"><stop stop-color="#120a09" offset="0"/><stop stop-color="#130a09" offset=".41"/><stop stop-color="#431414" offset=".591"/><stop stop-color="#fff" offset="1"/></linearGradient><linearGradient id="a"><stop stop-color="#b61629" offset="0"/><stop stop-color="#821215" offset=".366"/><stop stop-color="#690f0f" offset=".462"/><stop offset=".869"/><stop stop-color="#983440" offset="1"/></linearGradient><linearGradient id="d"><stop stop-color="#233600" offset="0"/><stop stop-color="#5d9400" offset=".5"/><stop offset="1"/></linearGradient><linearGradient id="b"><stop stop-color="#f9f9f9" offset="0"/><stop stop-color="#f9f9f9" stop-opacity="0" offset="1"/></linearGradient><filter id="j" x="-.294" y="-.203" width="1.589" height="1.405" color-interpolation-filters="sRGB"><feGaussianBlur stdDeviation="4.12"/></filter><filter id="g" x="-.187" y="-.333" width="1.375" height="1.667" color-interpolation-filters="sRGB"><feGaussianBlur stdDeviation="4.949"/></filter><filter id="l" color-interpolation-filters="sRGB"><feGaussianBlur stdDeviation=".792"/></filter><filter id="n" x="-.134" y="-.252" width="1.269" height="1.505" color-interpolation-filters="sRGB"><feGaussianBlur stdDeviation="3.677"/></filter><filter id="s" x="-.125" y="-.236" width="1.251" height="1.472" color-interpolation-filters="sRGB"><feGaussianBlur stdDeviation="3.436"/></filter><filter id="p" x="-.125" y="-.236" width="1.251" height="1.472" color-interpolation-filters="sRGB"><feGaussianBlur stdDeviation="3.436"/></filter><filter id="w" color-interpolation-filters="sRGB"><feGaussianBlur stdDeviation="1.27"/></filter><filter id="u" color-interpolation-filters="sRGB"><feGaussianBlur stdDeviation="1.715"/></filter><filter id="y" x="-.073" y="-.1" width="1.146" height="1.2" color-interpolation-filters="sRGB"><feGaussianBlur stdDeviation=".673"/></filter><filter id="A" color-interpolation-filters="sRGB"><feGaussianBlur stdDeviation=".344"/></filter><radialGradient id="e" cx="-552.04" cy="300.12" r="107.21" gradientTransform="matrix(1.5527 .41604 -.33564 1.2526 1265.6 245.35)" gradientUnits="userSpaceOnUse" xlink:href="#a"/><radialGradient id="f" cx="413.09" cy="370.7" r="31.683" gradientTransform="matrix(1.6225 .93674 -.52653 .91198 -161.55 -343.23)" gradientUnits="userSpaceOnUse" xlink:href="#b"/><radialGradient id="h" cx="625.71" cy="299.59" r="104.16" gradientTransform="matrix(1.6629 0 0 1.2691 -501.96 3.561)" gradientUnits="userSpaceOnUse" xlink:href="#a"/><radialGradient id="i" cx="647.2" cy="294.1" r="17.538" gradientTransform="matrix(1.5855 .42484 -.54842 2.0467 -300.92 -514.93)" gradientUnits="userSpaceOnUse" xlink:href="#b"/><linearGradient id="k" x1="688.39" x2="260.15" y1="196.61" y2="207.11" gradientTransform="translate(10.899 -6.793)" gradientUnits="userSpaceOnUse"><stop stop-color="#1a1f11" offset="0"/><stop stop-color="#afd56a" offset="1"/></linearGradient><radialGradient id="m" cx="406.92" cy="318.13" r="30.73" gradientTransform="matrix(1.8306 .62646 -.12497 .36516 -299.76 -65.516)" gradientUnits="userSpaceOnUse" xlink:href="#b"/><radialGradient id="o" cx="589.75" cy="266.17" r="32.851" gradientTransform="matrix(-.96593 -.25882 -.13772 .51396 848.5 331.12)" gradientUnits="userSpaceOnUse" xlink:href="#c"/><linearGradient id="q" x1="522.87" x2="435.79" y1="136.86" y2="21.755" gradientTransform="rotate(15 141.624 -1026.257)" gradientUnits="userSpaceOnUse" xlink:href="#d" spreadMethod="reflect"/><radialGradient id="r" cx="405.9" cy="304.36" r="32.851" gradientTransform="matrix(.96593 .25882 -.13772 .51396 -299.58 65.417)" gradientUnits="userSpaceOnUse" xlink:href="#c"/><linearGradient id="t" x1="488.99" x2="358.44" y1="204.39" y2="187.31" gradientTransform="translate(5.95 -5.379)" gradientUnits="userSpaceOnUse" xlink:href="#d"/><linearGradient id="v" x1="629.7" x2="289.85" y1="181.76" y2="106.7" gradientTransform="translate(2.48 -5.202)" gradientUnits="userSpaceOnUse" xlink:href="#d"/><radialGradient id="x" cx="530.47" cy="34.665" r="10.968" gradientTransform="matrix(.88797 .23793 -.16269 .60718 -224.74 -48.505)" gradientUnits="userSpaceOnUse" xlink:href="#d"/><radialGradient id="z" cx="536.22" cy="21.54" r="10.968" gradientTransform="matrix(.99165 .26571 -.19747 .73697 -277.17 -72.675)" gradientUnits="userSpaceOnUse" xlink:href="#d"/><linearGradient id="B" x1="502.98" x2="493.48" y1="137.42" y2="74.184" gradientTransform="rotate(15 272.442 1.685)" gradientUnits="userSpaceOnUse" xlink:href="#d"/><radialGradient id="C" cx="538.17" cy="16.499" r="10.252" gradientTransform="matrix(.96593 .25882 -.23729 .88558 -260.36 -74.115)" gradientUnits="userSpaceOnUse" xlink:href="#d"/></defs><path d="M597.16 206.474c-6.48 1.026-15.863.109-21.843 3.325-10.291 5.564-27.334 9.006-35.93 13.268a497.093 497.093 0 0 0-24.316 9.303c-84.475 22.199-154.36 47.65-203.12 67.556-30.771 12.563-54.832 23.728-68.223 29.392-1.008-.486-1.956-1.02-2.573-1.748-5.074-6-.111-11.685-23.799-15.422-40.544-4.242-105.04 15.3-137.83 36.758-35.72 21.394-54.438 48.353-24.534 58.94 28.906 10.01 84.549 5.79 135.32-6.633 44.025-11.066 91.202-34.24 89.9-51.822-.808-8.496-12.146-14.446-29.889-16.155 2.416-1.413 5.802-3.229 10.493-5.401 11.608-5.375 28.685-14.07 50.438-23.008s48.177-19.2 78.613-29.891a1723.62 1723.62 0 0 1 102.29-32.373c-1.01.478-2.014.97-3.026 1.483a66.778 66.778 0 0 0-3.598 1.842 295.534 295.534 0 0 0-11.965 6.43c-8.965 5.094-17.205 10.677-24.157 16.656-6.952 5.978-12.623 12.359-16.462 19.028-3.84 6.668-5.842 13.628-5.47 20.79.25 4.817.877 8.634 2.722 13.706-.063-.02-.117-.042-.178-.063-8.628-3.018-25.044-3.136-39.015-1.717-15.741 1.6-32.81 5.507-48.386 11.067-31.29 11.41-51.925 27.257-59.927 40.896-11.698 17.686-6.386 34.651 23.782 39.85 23.79 3.382 56.075 2.545 89.607-5.229 30.567-7.501 58.952-19.41 81.734-31.78 27.1-14.99 46.692-33.207 39.348-45.532-2.549-4.064-8.194-7.275-17.053-8.741-14.753-1.688-36.431 2.526-53.405 2.919-4.511-5.979-8.645-11.944-9.015-17.56-.45-6.802 1.372-13.366 4.929-19.621 3.556-6.255 8.866-12.211 15.38-17.794 6.514-5.583 14.24-10.792 22.663-15.578 12.474-7.086 25.709-13.2 37.41-18.091a1381.622 1381.622 0 0 1 29.566-7.383c1.054-.202 2.145-.43 3.294-.687 5.439.56 10.928.855 25.99-5.994 2.476-1.096 7.781-.634 10.519-2.638 3.335-2.442 10.189-4.831 13.486-7.07 3.389-2.303 3.506-4.36-1.355-5.074-.695-.102-1.52-.158-2.422-.203z" fill="#333" opacity=".77"/><path d="M273.02 282.76c-45.446-8.492-87.353 30.622-95.342 73.584-10.991 42.832 1.468 96.803 43.61 118 40.476 20.04 91.227 11.606 127.64-13.267 31.234-22.154 51.625-68.559 30.001-103.76-11.052-17.686-30.293-29.887-50.913-32.733-3.204-5.607-8.833-6.424-13.362-10.953-12.009-12.011-13.628-23.387-41.635-30.869z" fill="url(#e)" transform="translate(-173.89 -71.186)"/><g color="#000"><path d="M287.59 358.49c-.58.057-.921.494-.969 1.469-.31 6.385 22.81 22.233 26.344 35.625 4.683 17.747 31.883-8.402 33.5-14.438 1.617-6.036-8.329-15.432-29.688-13.47-15.422 1.419-26.056-9.492-29.188-9.187z" fill="url(#f)" filter="url(#g)" transform="translate(-173.89 -71.186)"/><path d="M287.59 358.49c-.58.057-.921.494-.969 1.469-.31 6.385 22.81 22.233 26.344 35.625 4.683 17.747 31.883-8.402 33.5-14.438s-8.329-15.432-29.688-13.47c-15.422 1.419-26.056-9.492-29.188-9.187z" fill="url(#f)" transform="translate(-173.89 -71.186)"/><path d="M566.3 300.97c-23.049-4.662-46.256 13.17-68.702 2.361-12.117-6.042-28.661-6.271-40.992-3.43-13.892 3.202-26.439 11.024-35.589 22.155-18.101 22.844-20.42 54.585-12.657 81.889 8.745 35.408 33.653 69.35 69.83 79.76 27.699 6.77 59.005 5.113 83.552-10.45 21.897-15.017 36.523-38.88 45.006-63.645 9.774-30.01 8.32-66.458-13.271-91.134-7.246-8.136-16.622-14.57-27.177-17.505z" fill="url(#h)" transform="translate(-173.89 -71.186)"/><path d="M566.03 341.3c-9.283.41-10.529 12.847-15.5 21.656-6.21 11.005-13.64 19.241 2.938 24.312 9.43 2.527 21.583-4.771 26.062-16.438 2.623-6.833 5.255-18.26 3.062-24.344-1.64-4.548-11.539-3.56-16.562-5.187z" fill="url(#i)" filter="url(#j)" transform="translate(-173.89 -71.186)"/><path d="M579.54 370.82c-4.48 11.666-16.641 18.967-26.071 16.44-16.577-5.071-9.154-13.286-2.945-24.29 4.971-8.81 6.239-21.243 15.522-21.653 5.024 1.628 14.926.625 16.566 5.173 2.194 6.084-.448 17.498-3.071 24.33z" fill="url(#i)" transform="translate(-173.89 -71.186)"/></g><g color="#000"><path transform="rotate(15 455.852 -694.318)" d="M534.97 6.96c-4.169 1.186-5.885 6.42-8.243 10.056-2.67 4.119-4.926 8.551-6.589 13.17-2.381 6.616-9.127 15.051-4.75 20.555.733.921 2.438.434 3.532 0 5.703-2.259 9.265-8.08 13.411-12.6 4.134-4.508 8.447-9.031 11.362-14.408 2.072-3.821 6.096-8.454 4.177-12.354-2.007-4.078-8.529-5.663-12.9-4.42z" fill="url(#k)" filter="url(#l)" style="block-progression:tb;text-indent:0;text-transform:none"/><path transform="rotate(15 455.852 -694.318)" d="M435.93 310.08c-5.907 4.587-8.633 7.928-25.809 11.49-19.31 4.005-45.75-38.076-34.295-34.471 5.657 1.78 16.068 7.848 34.295 15.38 14.603 6.035 36.448-.66 25.809 7.601z" fill="url(#m)" filter="url(#n)" opacity=".102"/><path transform="translate(98.55 -69.5)" d="M275.72 306.41c-5.925.255-17.57 3.41-37.125 5.969-15.667 2.05-35.044-10.077-26.906.656 4.518 5.96 6.3 9.894 21.969 17.781 17.616 8.867 54.06-24.923 42.062-24.406z" fill="url(#o)" filter="url(#p)" opacity=".819"/><path transform="translate(98.55 -69.5)" d="M258.25 69.5c-5.294 2.054-15.738.217-18 6.656-3.86 11.14-16.924 18.031-20.594 26.562-3.715 4.425-8.54 10.678-13.562 18.625-58.816 44.444-99.284 95.4-125.03 135.25-23.432 36.268-36.346 66.725-40.875 66.72-.802-.002-1.708.795-1.625 1.374-.434.954 5.088 7.028 8.344 8.063 4.903 1.558 10.229.977 11.53-.313.823-.814-1.48-2.151-1.687-2.625 0 0-.001-.51.125-1.5.324-2.527 1.437-8.113 5.313-15.844 5.395-10.76 12.423-28.167 23.844-46.062a559.224 559.224 0 0 1 44.062-59.844c18.078-21.404 39.665-43.682 65.03-64.969-1.048 2.386-2.184 4.457-2.937 6.813a149.716 149.716 0 0 0-4.53 12.875c-3.079 10.197-4.866 21.374-4.907 33.344-.042 11.969 1.662 24.743 5.531 38.094 3.869 13.35 9.91 27.284 18.562 41.625 8.172 13.544 14.691 23.047 29.438 41.28.731.904-.108 3.701.688 4.532 10.204 7.434 26.458-3.898 14.094-7.438-13.852-14.462-28.22-29.132-36.531-42.75-8.312-13.618-14.076-26.758-17.75-39.28-3.674-12.524-5.248-24.449-5.188-35.626.06-11.177 1.764-21.607 4.656-31.188 4.283-14.187 10.452-26.425 16.5-36.219a414.24 414.24 0 0 1 21.031-14.78c.82-.406 1.648-.862 2.5-1.376 6.086 1.12 11.917 1.713 19.062-12 1.209-2.193 7.048-1.27 7.47-5.28.512-4.89 4.604-9.674 5.312-14.157.727-4.61-1.532-8.726-7.22-10.156-.812-.204-1.702-.318-2.655-.406z" fill="url(#q)" style="block-progression:tb;text-indent:0;text-transform:none"/><path transform="translate(98.55 -69.5)" d="M24.375 301.84c-6.667-.09 7.354 41.723 25.812 42.781 17.513 1.004 21.013-1.536 27.906-4.438 12.414-5.226-10.425-4.391-22.969-14-15.656-11.993-24.122-20.567-29.125-23.75-.633-.402-1.18-.587-1.625-.593z" fill="url(#r)" filter="url(#s)" opacity=".819"/><path transform="rotate(15 455.852 -694.318)" d="M510.16 59.576c-89.478 115.82-105.82 238.92-105.82 238.92l3.531-.063c.07-.662 13.757-122.3 102.99-237.8z" fill="url(#t)" filter="url(#u)" style="block-progression:tb;text-indent:0;text-transform:none"/><path transform="rotate(15 455.852 -694.318)" d="M504 80.358c-1.518 2.168-3 4.333-4.469 6.5-.595 4.648-1.167 11.899-1.351 16.882-1.607 43.304 18.697 98.613 91 137.41l.968-1.594c-69.749-39.508-89.93-93.736-88.438-136.31.258-7.342 1.182-16.295 2.29-22.882z" fill="url(#v)" filter="url(#w)" style="block-progression:tb;text-indent:0;text-transform:none"/><path transform="translate(98.55 -69.5)" d="M232.94 89.562c-1.88 4.4-2.769 8.281-.719 10.25 3.177 3.05 3.467 4.132 5.938 5.188 4.941 2.111 10.75 1.968 10.75 1.968l-.063-.687s-5.223-1.236-9.937-3.25c-2.358-1.008-4.593-1.457-5.656-3.75s-1.457-5.15.375-9.438l-.688-.281z" fill="url(#x)" filter="url(#y)" opacity=".77" style="block-progression:tb;text-indent:0;text-transform:none"/><path transform="translate(98.55 -69.5)" d="M241.84 74.75c-2.219 5.358-1.029 8.622.219 11.625s5.375 4.16 8.125 5.375c5.5 2.43 9.187 3.656 9.187 3.656l-.031-.844s-8.816-3.588-14.062-5.906c-2.623-1.159-1.454-1.319-2.594-4.062-1.14-2.744-2.224-4.28-.062-9.5l-.782-.344z" fill="url(#z)" filter="url(#A)" opacity=".77" style="block-progression:tb;text-indent:0;text-transform:none"/></g><path d="M477.69 135.04c-2.531 2.686-10.268 8.378-10.268 8.378-5.142 10.78-7.971 26.852-7.971 26.852-3.855 18.349.606-9.543 12.26-22.292 6.97-7.625 5.98-12.938 5.98-12.938z" fill="url(#B)" transform="translate(-173.89 -71.186)"/><g color="#000"><path transform="translate(98.55 -69.5)" d="M259.16 71.188c-3.782 1.19-11.392-.229-12.875 3.844-.077.214-.161.447-.25.656.813 6.977 4.167 12.38 9.281 13.75a9.781 9.781 0 0 0 3.375.281c1.53-.565 4.18-.552 4.344-2.562.255-3.121 3.095-6.081 3.5-8.938.417-2.937-1.288-5.635-5.438-6.687a14.824 14.824 0 0 0-1.937-.344z" fill="url(#C)" opacity=".88" style="block-progression:tb;text-indent:0;text-transform:none"/><path d="M139.02 253.314c-.565.26-1.97 1.44-1.91 1.86-.434.953 5.091 7.057 8.347 8.091 4.903 1.558 10.24.954 11.543-.336.48-.475-.109-1.094-.723-1.65-2.62-.286-5.537-.707-8.586-1.524-3.964-1.062-6.231-4.115-8.67-6.44z" fill="#2a3415" opacity=".819"/><path d="M353.94 246.334c-.277-1.274-1.936-3.804-3.38-1.965-4.47 5.687-12.39 5.117-15.406 4.34-.014.809 0 1.568.354 1.939 3.189 2.323 6.974 2.834 10.286 2.303l.069-.014a88.684 88.684 0 0 0 4.406-1.472c.026-.014.05-.03.076-.045 2.554-1.36 4.038-3.057 3.596-5.086z" fill="#273114" style="block-progression:tb;text-indent:0;text-transform:none"/></g></svg>