<svg xmlns="http://www.w3.org/2000/svg" xmlns:xlink="http://www.w3.org/1999/xlink" height="197.903" width="216.478"><defs><linearGradient id="a"><stop offset="0" stop-color="#508c2a"/><stop offset="1" stop-color="#233e12"/></linearGradient><radialGradient xlink:href="#a" id="c" gradientUnits="userSpaceOnUse" gradientTransform="matrix(.69139 0 0 .63206 27.24 -9.997)" cx="88.267" cy="1.173" fx="88.267" fy="1.173" r="108.239"/><radialGradient xlink:href="#a" id="b" gradientUnits="userSpaceOnUse" gradientTransform="matrix(.69139 0 0 .63206 27.24 -9.997)" cx="88.267" cy="1.173" fx="88.267" fy="1.173" r="108.239"/><radialGradient xlink:href="#a" id="d" gradientUnits="userSpaceOnUse" gradientTransform="matrix(.68606 0 0 .7342 26.745 -16.863)" cx="105.843" cy="31.031" fx="105.843" fy="31.031" r="103.484"/><linearGradient xlink:href="#a" id="e" x1="-5.826" y1="-30.754" x2="-9.678" y2="-16.377" gradientUnits="userSpaceOnUse" spreadMethod="reflect"/></defs><path d="M105.612-126.12c-6.177 7.13-6.256 19.17-15.199 23.496-6.381 3.832-9.683-10.484-7.713-.038 2.046 8.067 1.613 27.763-11.042 19.422-4.577-.538-12.18-13.394-12.816-8.625C64.958-78.2 73.657-64.53 73.572-49.12c-4.085 8.872-18.511-.93-20.492-7.707-4.015-5.677-7.833-17.17-11.064-20.21 3.53 7.93-1.682 24.559-11.688 14.532-2.709-3.283-6.71-9.883-7.74-1.957-9.393 5.395-21.817-3.203-26.33-11.85-3.017-1.172 3.604 12.032 5.619 15.342 4.527 6.977 8.866 17.252.203 19.83 9.6-.457 19.537 17.13 4.95 16.819-5.339 1.042-18.986 5.059-6.01 4.59C13.504-17.475 22.968-8.167 31.39.654 27.092 9.05 12.883 2.324 9.765 13.009c-8.686 6.126-19.716 6.797-29.737 9.3 10.982 2.112 29.59-1.672 33.955 10.61 5.43 2.15 14.128 4.248 7.572 11.548-3.168 3.787-7.474 9.395-.162 4.43 7.255-4.277 14.668-8.963 23.404-6.727C52.181 41.007 61.7 41.653 56 51.548c-3.026 7.233-12.077 13.91-13.6 20.034C61.245 57.556 79.386 42.41 96.056 25.867c8.02-3.63 7.535 37.85 15.01 34.279-.679-4.529-11.662-41.482-2.035-32.203 16.098 15.555 34.123 28.963 50.765 43.84 2.481-1.063-7.797-11.817-10.558-15.616-5.026-6.688-10.61-25.95 3.499-23.34 12.224-.515 20.166-10.994 30.218-16.506 2.83-2.028 17.072-8.886 12.737-9.569-7.759 6.612-18.718-1.638-17.406-9.67-5.088.568-18.572-.323-8.22-6.17 4.228-4.147 22.678-7.277 10.248-11.504-10.633-9.533.943-21.94 1.407-32.941 1.427-5.903 4.894-23.83-1.617-11.304-7.018 5.143-14.128-4.51-18.186 4.799-9.838 7.734-13.975-8.634-15.992-13.24 1.567 10.01-4.947 25.992-14.727 26.333-7.767-9.908 2.054-22.1 5.07-32.102 2.985-4.84 7.737-19.311 4.613-20.4C143.818-89 128.845-81.53 121.478-87.753c-4.087-4.617 2.038-18.72-7.506-13.58-9.367-4.22-7.641-16.406-8.36-24.787z" fill="url(#b)" transform="translate(19.972 126.12)"/><path d="M105.612-126.12c-6.177 7.13-6.256 19.17-15.199 23.496-6.381 3.832-9.683-10.484-7.713-.038 2.046 8.067 1.613 27.763-11.042 19.422-4.577-.538-12.18-13.394-12.816-8.625C64.958-78.2 73.657-64.53 73.572-49.12c-4.085 8.872-18.511-.93-20.492-7.707-4.015-5.677-7.833-17.17-11.064-20.21 3.53 7.93-1.682 24.559-11.688 14.532-2.709-3.283-6.71-9.883-7.74-1.957-9.393 5.395-21.817-3.203-26.33-11.85-3.017-1.172 3.604 12.032 5.619 15.342 4.527 6.977 8.866 17.252.203 19.83 9.6-.457 19.537 17.13 4.95 16.819-5.339 1.042-18.986 5.059-6.01 4.59C13.504-17.475 22.968-8.167 31.39.654 27.092 9.05 12.883 2.324 9.765 13.009c-8.686 6.126-19.716 6.797-29.737 9.3 10.982 2.112 29.59-1.672 33.955 10.61 5.43 2.15 14.128 4.248 7.572 11.548-3.168 3.787-7.474 9.395-.162 4.43 7.255-4.277 14.668-8.963 23.404-6.727C52.181 41.007 61.7 41.653 56 51.548c-3.026 7.233-12.077 13.91-13.6 20.034C61.245 57.556 79.386 42.41 96.056 25.867c8.02-3.63 7.535 37.85 15.01 34.279-.679-4.529-11.662-41.482-2.035-32.203 16.098 15.555 34.123 28.963 50.765 43.84 2.481-1.063-7.797-11.817-10.558-15.616-5.026-6.688-10.61-25.95 3.499-23.34 12.224-.515 20.166-10.994 30.218-16.506 2.83-2.028 17.072-8.886 12.737-9.569-7.759 6.612-18.718-1.638-17.406-9.67-5.088.568-18.572-.323-8.22-6.17 4.228-4.147 22.678-7.277 10.248-11.504-10.633-9.533.943-21.94 1.407-32.941 1.427-5.903 4.894-23.83-1.617-11.304-7.018 5.143-14.128-4.51-18.186 4.799-9.838 7.734-13.975-8.634-15.992-13.24 1.567 10.01-4.947 25.992-14.727 26.333-7.767-9.908 2.054-22.1 5.07-32.102 2.985-4.84 7.737-19.311 4.613-20.4C143.818-89 128.845-81.53 121.478-87.753c-4.087-4.617 2.038-18.72-7.506-13.58-9.367-4.22-7.641-16.406-8.36-24.787z" fill="url(#c)" transform="translate(19.972 126.12)"/><path d="M104.875-123.625c-2.06 3.13-3.438 6.959-5.031 10.656-1.928 4.472-4.291 8.787-9 11.094-.008.004-.023-.004-.031 0-.013.007-.02.024-.032.031-1.804 1.052-3.615.861-4.969.125-1.043-.567-1.816-1.383-2.468-2.156.065.362.101.542.187 1 .005.028-.005.034 0 .062C84.59-98.599 85-91.68 83.5-86.563c-.753 2.57-2.025 4.768-4.156 5.72-2.131.95-4.861.484-8.156-1.688-1.366-.29-2.643-1.17-3.938-2.313-1.414-1.249-2.823-2.788-4.094-4.125-1.27-1.337-2.468-2.478-3.156-2.906-.242-.15-.212-.142-.219-.156-.005.015-.025.042-.031.062 6.075 13.501 14.774 27.206 14.688 42.844a.861.861 0 0 1-.094.375c-1.127 2.447-3.11 3.719-5.313 3.969s-4.597-.418-6.875-1.563c-4.455-2.24-8.526-6.25-9.75-10-.048-.068-.077-.18-.125-.25-2.037-2.948-3.966-7.108-5.781-10.968-.9-1.917-1.785-3.75-2.625-5.282.332 3.524-.288 7.35-1.844 10.219-1.135 2.093-2.838 3.738-5.031 4.063-2.193.324-4.67-.727-7.281-3.344a.861.861 0 0 1-.032-.032c-1.402-1.699-3.13-4.177-4.343-5.062-.304-.221-.582-.32-.719-.344-.137-.024-.116-.018-.219.063-.205.162-.722 1.042-.968 2.937a.861.861 0 0 1-.407.625c-5.01 2.878-10.826 1.988-15.843-.656-4.2-2.213-7.832-5.67-10.313-9.375.29.935.56 1.85 1.094 3.094 1.504 3.506 3.658 7.625 4.625 9.219.004.006.027.024.031.03 2.292 3.54 4.552 7.892 5.156 11.876.304 1.998.195 3.94-.656 5.593-.49.95-1.302 1.74-2.281 2.407 1.657.43 3.258 1.112 4.656 2.187 2.17 1.67 3.941 3.913 4.938 6.219.996 2.306 1.235 4.758.062 6.688-1.162 1.912-3.646 3.06-7.406 3-.024.004-.07-.005-.094 0-2.63.526-7.235 1.787-9.5 2.78-.052.024-.044.04-.094.063.804.063 1.991.058 3.594 0a.861.861 0 0 1 .188.032C14.004-18.245 23.595-8.773 32.03.063a.861.861 0 0 1 .157 1c-1.184 2.312-3.132 3.611-5.25 4.375-2.12.763-4.432 1.027-6.657 1.375-2.224.347-4.355.775-6.031 1.687-1.676.912-2.964 2.272-3.688 4.75a.861.861 0 0 1-.312.469c-7.302 5.15-16.004 6.535-24.375 8.219 4.376.272 9.103.403 13.719 1 3.342.432 6.512 1.202 9.187 2.687 2.556 1.42 4.62 3.559 5.813 6.594 2.625 1.014 6.02 2.032 8.219 3.875 1.14.955 1.993 2.253 1.968 3.812-.024 1.554-.89 3.192-2.593 5.094-.007.007.006.024 0 .031h.03a42.167 42.167 0 0 0-3.062 4.157c.555-.289.78-.32 1.782-1a.861.861 0 0 1 .03-.032c7.204-4.246 14.864-9.132 23.938-6.875 3.721-.568 7.9-.748 10.782.657 1.468.715 2.629 1.961 2.874 3.687.243 1.703-.344 3.76-1.78 6.281-.013.03-.02.064-.032.094-1.605 3.777-4.665 7.256-7.469 10.563-1.863 2.198-3.521 4.299-4.687 6.28 17.848-13.435 35.04-27.88 50.875-43.593a.861.861 0 0 1 .25-.156c1.281-.58 2.662-.196 3.594.75.931.945 1.63 2.345 2.25 4.062 1.238 3.436 2.155 8.2 3.062 12.938.907 4.737 1.78 9.462 2.875 12.687.547 1.613 1.187 2.821 1.75 3.438.282.308.515.478.719.531.017.004.045-.004.062 0-.244-1.255-.868-3.792-1.75-7.375-.975-3.962-2.118-8.74-2.937-13.094-.82-4.354-1.35-8.227-1-10.718.087-.623.231-1.18.5-1.657.269-.477.732-.908 1.312-1.031.58-.123 1.162.048 1.719.344.557.295 1.112.728 1.75 1.343 15.542 15.017 32.89 28.083 49.125 42.438-.613-1.117-1.679-2.62-2.938-4.219-2.562-3.253-5.76-6.842-7.218-8.844-.006-.007-.026-.023-.031-.03-2.656-3.544-5.322-10.059-5.594-15.626-.136-2.788.327-5.389 1.937-7.187 1.581-1.766 4.213-2.528 7.813-1.907 5.875-.247 10.752-2.884 15.469-6.218 4.686-3.313 9.178-7.276 14.28-10.094.018-.012.077-.05.094-.063 1.634-1.153 5.708-3.275 9-5.28.569-.347.788-.578 1.282-.907-3.351 1.205-6.908.555-9.719-1.219-3.506-2.211-5.898-6.109-5.688-10.187-2.726.207-6.616.131-9.312-.75-.743-.243-1.39-.547-1.906-1-.516-.454-.906-1.16-.813-1.906.094-.748.558-1.404 1.25-2.063.654-.623 1.59-1.264 2.813-1.969.043-.042.111-.083.156-.125 1.249-1.158 3.14-2.08 5.219-3 2.153-.952 4.454-1.866 6.187-2.75.867-.441 1.602-.862 2.063-1.25.46-.388.588-.673.594-.781.005-.108-.04-.342-.594-.75-.554-.408-1.555-.894-3.063-1.406a.861.861 0 0 1-.281-.157c-2.785-2.497-4.194-5.297-4.625-8.156-.43-2.858.078-5.762.906-8.656 1.657-5.788 4.593-11.6 4.813-16.813a.861.861 0 0 1 .031-.156c.704-2.912 1.935-8.914 2.156-12.437.049-.773.018-1.35-.031-1.781-.082.092-.12.119-.219.25-.474.628-1.136 1.707-1.937 3.25a.861.861 0 0 1-.25.28c-1.914 1.403-3.9 1.82-5.75 1.782-1.85-.038-3.583-.487-5.125-.781-1.543-.295-2.873-.427-3.969-.032-1.096.396-2.107 1.307-3.063 3.5a.861.861 0 0 1-.25.344c-2.598 2.043-5.032 2.573-7.125 1.969-2.092-.604-3.715-2.216-5.03-4.156-1.429-2.107-2.477-4.554-3.345-6.782-.275 4.075-1.434 8.422-3.343 12.22-2.74 5.448-7.024 9.844-12.375 10.03a.861.861 0 0 1-.719-.343c-4.098-5.228-3.532-11.16-1.625-16.813 1.907-5.653 5.133-11.216 6.594-16.062a.861.861 0 0 1 .093-.188c1.396-2.261 3.323-7.097 4.47-11.375-1.192 1.715-2.706 3.216-4.563 4.25-4.547 2.533-10.53 2.907-14.563-.5a.861.861 0 0 1-.093-.094c-1.237-1.397-1.596-3.315-1.75-5.28-.155-1.967-.074-4.018-.157-5.688-.082-1.67-.408-2.866-.843-3.219-.218-.176-.504-.263-1.094-.188-.59.076-1.456.357-2.594.97a.861.861 0 0 1-.75.03c-4.984-2.245-7.056-6.709-7.906-11.468-.698-3.904-.69-7.956-.844-11.594z" fill="url(#d)" transform="translate(19.972 126.12)"/><path style="text-indent:0;text-align:start;line-height:normal;text-transform:none;block-progression:tb;marker:none;-inkscape-font-specification:Sans" d="M105.705-123.348c-1.11 17.161-2.363 34.313-3.562 51.469-6.767-8.505-14.552-17.645-15.344-28.97-2.403 6.016 4.035 15.221 7.971 21.175 8.757 7.118 7.228 17.16 6.079 27.317-.23 5.324-.016 10.273-2.865 2.76-8.642-14.116-21.217-25.17-32.81-36.782 4.138 7.569 15.093 14.842 21.085 22.868 6.251 8.02 15.862 16.692 13.698 27.879-.725 16.724-1.184 33.519.217 50.221C85.58 7.04 74.91-6.109 62.727-16.837c-8.904-5.376-8.42-16.459-10.748-25.416-2.356-5.3-2.156-21.314-4.398-20.525 1.54 13.253 4.16 26.408 7.75 39.242-6.117-7.107-17.735-10.94-20.482-19.784-.796-4.703-7.149-18.559-7.697-16.638 1.123 5.687 9.125 15.928 5.842 18.134C20.81-51.608 8.6-61.456-2.232-72.754 7.934-60.42 20.465-50.351 32.893-40.411c-6.698-.416-24.334-3.12-25.023-.77 10.63 1.591 23.715-1.974 31.987 6.265 4.074 3.887 14.124 9.97 14.267 12.784-15.727-.021-31.841-6.808-47.297-1.702-8.333 6.099 7.014-3.179 10.79-.914 13.055-.14 25.787 3.983 38.838 3.556C70.405-9.163 82.43 5.448 98.362 14.964c-9.86.366-20.112 4.001-29.722 1.166-9.877-2.837-20.866-3.579-29.421-9.703-4.248-.746 8.903 6.887 12.734 6.645 4.75 1.708 18.478 3.613 16.787 4.758-10.841-.099-22.34 3.703-32.56-.794-7.258-1.155-16.127-4.231-22.1-5.384 6.244 4.721 22.642 4.946 24.553 7.8-14.818.5-29.646.665-44.459 1.325 16.122 1.069 32.303 1.032 48.438.281-6.2 7.649-8.541 20.185-18.72 23.531 6.417 1.669 11.623-10.098 15.151-15.78 4.095-13.402 20.446-6.533 30.918-9.664 7.441-1.365-.738 10.605-.47 15.586-1.56 7.892-5.532 16.687-8.942 22.64 8.167-8.552 9.026-21.249 12.41-32.095.718-11.658 15.93-6.09 24.033-9.14 7.376-.38 3.424 14.436 7.002 19.954 1.961 7.063 3.568 17.997 6.632 22.56-.547-6.833-4.958-15.713-5.973-23.786.042-6.63-8.75-22.539 3.307-18.732 7.688.16 16.322-.781 20.277 7.551 8.843 11.835 12.72 26.784 22.125 38.156-3.822-7.6-9.803-17.617-13.924-26.407-2.605-6.604-10.363-15.916-12.825-18.912 7.298 1.053 16.565-3.714 21.592 3.51 3.525 4.076 11.427 12.5 15.782 8.31-7.262 1.993-18.033-11.085-17.067-12.669 17.496-1.364 35.022-3.392 52.098-7.55-17.78 3.275-35.71 5.969-53.781 6.906 8.919-5.073 16.475-14.962 27.827-12.865 4.801.905 11.348-4.206 2.54-1.122-9.997-1.727-17.93 3.445-25.427 9.313-5.116 6.295-18.56 5.573-21.54 4.602 5.195.164 14.263-13.672 6.151-4.827-6.79 6.613-16.277 5.228-24.828 4.749-10.838.841 5.14-7.872 7.544-11.815 6.438-4.945 11.307-15.022 20.402-10.227 9.868 1.758 20.152 2.212 29.956-.183-5.047-1.071-13.612 1.771-20.062.432-6.481-.94-22.883-.853-11.124-8.042 6.415-4.003 10.386-14.928 18.751-12.077 10.282 2.561 19.812 7.5 30.153 9.843-5.241-3.304-14.785-5.266-21.67-8.294-4.969-2.681-17.953-1.838-8.059-7.921 10.64-10.819 22.084-21.06 31.073-33.347-4.862 4.503-14.044 15.465-16.264 15.961 2.482-4.447 3.24-15.816.457-4.54-2.58 11.464-13.836 17.462-20.923 25.968-7.284 8.268-1.19-10.593-.895-15.577.681-6.49 4.318-15.549 2-20.562-.511 13.784-5.535 27.003-5.844 40.812-4.93 4.187-12.54 13.654-15.928 14.377 1.4-11.822 5.517-23.124 6.96-34.94-2.85 4.315-2.79 13.418-5.022 19.453-3.154 7.104-.095 17.054-7.37 21.615a1234.075 1234.075 0 0 1-19.921 18.183c-1.53-18.923-.823-37.942.125-56.875 14.055-6.955 21.61-21.81 30.465-34.027 2.516-2.67 7.53-12.157 1.934-4.59-9.396 12.996-17.13 28.383-31.191 37-2.347-5.11.667-17.97.448-26.04 9.36-4.893 11.92-16.37 15.022-25.644.734-8.595-3.873 11.397-6.436 14.531-1.8 5.42-11.057 15.14-8.113 3.68.968-15.115 1.87-30.238 2.277-45.38z" font-weight="400" color="#000" fill="url(#e)" overflow="visible" font-family="Sans" transform="translate(19.972 126.12)"/></svg>