<svg xmlns:osb="http://www.openswatchbook.org/uri/2009/osb" xmlns="http://www.w3.org/2000/svg" xmlns:xlink="http://www.w3.org/1999/xlink" width="744.094" height="1052.362"><defs><linearGradient id="aq"><stop offset="0" stop-color="#245a00"/><stop offset=".548" stop-color="#245a00" stop-opacity=".498"/><stop offset="1" stop-color="#245a00" stop-opacity="0"/></linearGradient><linearGradient id="ap" osb:paint="solid"><stop offset="0" stop-color="#4a0"/></linearGradient><linearGradient id="ao" osb:paint="solid"><stop offset="0" stop-color="#4a0"/></linearGradient><linearGradient id="an" osb:paint="solid"><stop offset="0" stop-color="#4a0"/></linearGradient><linearGradient id="am" osb:paint="solid"><stop offset="0" stop-color="#4a0"/></linearGradient><linearGradient id="al" osb:paint="solid"><stop offset="0" stop-color="#4a0"/></linearGradient><linearGradient id="ak" osb:paint="solid"><stop offset="0" stop-color="#112b00"/></linearGradient><linearGradient id="aj" osb:paint="solid"><stop offset="0" stop-color="#250"/></linearGradient><linearGradient id="ai" osb:paint="solid"><stop offset="0" stop-color="#112b00"/></linearGradient><linearGradient id="ah" osb:paint="solid"><stop offset="0" stop-color="#112b00"/></linearGradient><linearGradient id="ag" osb:paint="solid"><stop offset="0" stop-color="#112b00"/></linearGradient><linearGradient id="af" osb:paint="solid"><stop offset="0" stop-color="#112b00"/></linearGradient><linearGradient id="ae" osb:paint="solid"><stop offset="0" stop-color="#112b00"/></linearGradient><linearGradient id="ad" osb:paint="solid"><stop offset="0" stop-color="#112b00"/></linearGradient><linearGradient id="ac" osb:paint="solid"><stop offset="0" stop-color="#112b00"/></linearGradient><linearGradient id="ab" osb:paint="solid"><stop offset="0" stop-color="#112b00"/></linearGradient><linearGradient id="aa" osb:paint="solid"><stop offset="0" stop-color="#112b00"/></linearGradient><linearGradient id="Z" osb:paint="solid"><stop offset="0" stop-color="#112b00"/></linearGradient><linearGradient id="Y" osb:paint="solid"><stop offset="0" stop-color="#112b00"/></linearGradient><linearGradient id="X" osb:paint="solid"><stop offset="0" stop-color="#112b00"/></linearGradient><linearGradient id="W" osb:paint="solid"><stop offset="0" stop-color="#112b00"/></linearGradient><linearGradient id="V" osb:paint="solid"><stop offset="0" stop-color="#112b00"/></linearGradient><linearGradient id="U" osb:paint="solid"><stop offset="0" stop-color="#112b00"/></linearGradient><linearGradient id="T" osb:paint="solid"><stop offset="0" stop-color="#112b00"/></linearGradient><linearGradient id="S" osb:paint="solid"><stop offset="0" stop-color="#112b00"/></linearGradient><linearGradient id="R" osb:paint="solid"><stop offset="0" stop-color="#112b00"/></linearGradient><linearGradient id="Q" osb:paint="solid"><stop offset="0" stop-color="#112b00"/></linearGradient><linearGradient id="P" osb:paint="solid"><stop offset="0" stop-color="#112b00"/></linearGradient><linearGradient id="O" osb:paint="solid"><stop offset="0" stop-color="#112b00"/></linearGradient><linearGradient id="N"><stop offset="0" stop-color="#112b00"/></linearGradient><linearGradient id="M" osb:paint="solid"><stop offset="0" stop-color="#112b00"/></linearGradient><linearGradient id="L"><stop offset="0" stop-color="#112b00"/></linearGradient><linearGradient id="K"><stop offset="0" stop-color="#112b00"/></linearGradient><linearGradient id="J"><stop offset="0" stop-color="#112b00"/></linearGradient><linearGradient id="I" osb:paint="solid"><stop offset="0" stop-color="#112b00"/></linearGradient><linearGradient id="H" osb:paint="solid"><stop offset="0" stop-color="#112b00"/></linearGradient><linearGradient id="G" osb:paint="solid"><stop offset="0" stop-color="#112b00"/></linearGradient><linearGradient id="F" osb:paint="solid"><stop offset="0" stop-color="#112b00"/></linearGradient><linearGradient id="E" osb:paint="solid"><stop offset="0" stop-color="#112b00"/></linearGradient><linearGradient id="D" osb:paint="solid"><stop offset="0" stop-color="#112b00"/></linearGradient><linearGradient id="C" osb:paint="solid"><stop offset="0" stop-color="#112b00"/></linearGradient><linearGradient id="B" osb:paint="solid"><stop offset="0" stop-color="#112b00"/></linearGradient><linearGradient id="A" osb:paint="solid"><stop offset="0" stop-color="#112b00"/></linearGradient><linearGradient id="z" osb:paint="solid"><stop offset="0" stop-color="#112b00"/></linearGradient><linearGradient id="y" osb:paint="solid"><stop offset="0" stop-color="#112b00"/></linearGradient><linearGradient id="x" osb:paint="solid"><stop offset="0" stop-color="#112b00"/></linearGradient><linearGradient id="w" osb:paint="solid"><stop offset="0" stop-color="#112b00"/></linearGradient><linearGradient id="v" osb:paint="solid"><stop offset="0" stop-color="#112b00"/></linearGradient><linearGradient id="u" osb:paint="solid"><stop offset="0" stop-color="#112b00"/></linearGradient><linearGradient id="t"><stop offset="0" stop-color="#112b00"/></linearGradient><linearGradient id="s"><stop offset="0" stop-color="#112b00"/></linearGradient><linearGradient id="r"><stop offset="0" stop-color="#112b00"/></linearGradient><linearGradient id="q"><stop offset="0" stop-color="#112b00"/></linearGradient><linearGradient id="p" osb:paint="solid"><stop offset="0" stop-color="#e5ffd5"/></linearGradient><linearGradient id="o" osb:paint="solid"><stop offset="0" stop-color="#e5ffd5"/></linearGradient><linearGradient id="n" osb:paint="solid"><stop offset="0" stop-color="#4a0"/></linearGradient><linearGradient id="j"><stop offset="0" stop-opacity="0"/><stop offset=".752" stop-opacity=".392"/><stop offset="1" stop-color="#fff" stop-opacity=".392"/><stop offset="1" stop-color="#acf57f" stop-opacity=".392"/><stop offset="1" stop-opacity=".392"/></linearGradient><linearGradient id="g"><stop offset="0" stop-opacity="0"/><stop offset=".853" stop-opacity=".392"/><stop offset="1" stop-color="#fff" stop-opacity=".392"/><stop offset="1" stop-color="#acf57f" stop-opacity=".392"/><stop offset="1" stop-opacity=".392"/></linearGradient><linearGradient id="d"><stop offset="0" stop-color="#250"/><stop offset="1" stop-color="#250" stop-opacity="0"/></linearGradient><linearGradient id="h"><stop offset="0"/><stop offset="1" stop-opacity="0"/></linearGradient><linearGradient id="f"><stop offset="0" stop-opacity="0"/><stop offset=".782" stop-opacity=".392"/><stop offset="1" stop-color="#fff" stop-opacity=".392"/><stop offset="1" stop-color="#acf57f" stop-opacity=".392"/><stop offset="1" stop-opacity=".392"/></linearGradient><linearGradient id="e"><stop offset="0" stop-opacity=".392"/><stop offset=".501" stop-opacity=".392"/><stop offset="1" stop-color="#fff" stop-opacity=".392"/><stop offset="1" stop-color="#acf57f" stop-opacity=".392"/><stop offset="1" stop-opacity=".392"/></linearGradient><linearGradient id="l"><stop offset="0" stop-color="#250"/><stop offset="1" stop-color="#250" stop-opacity="0"/></linearGradient><linearGradient id="c"><stop offset="0" stop-color="#250"/><stop offset="1" stop-color="#250" stop-opacity="0"/></linearGradient><linearGradient id="k"><stop offset="0" stop-color="#250"/><stop offset="1" stop-color="#250" stop-opacity="0"/></linearGradient><linearGradient id="i"><stop offset="0" stop-color="#250"/><stop offset="1" stop-color="#250" stop-opacity="0"/></linearGradient><linearGradient id="m"><stop offset="0" stop-color="#250"/><stop offset="1" stop-color="#250" stop-opacity="0"/></linearGradient><linearGradient id="a" osb:paint="gradient"><stop offset="0" stop-color="#a1e374"/><stop offset=".75" stop-color="#79d53a"/><stop offset="1" stop-color="#51c800"/></linearGradient><linearGradient id="b" osb:paint="gradient"><stop offset="0" stop-color="#1c4700"/><stop offset="1" stop-color="#59e200"/></linearGradient><linearGradient xlink:href="#d" id="as" gradientUnits="userSpaceOnUse" gradientTransform="matrix(1.05573 0 0 .71956 363.452 95.133)" x1="124.761" y1="640.177" x2="158.873" y2="651.408"/><linearGradient xlink:href="#b" id="az" gradientUnits="userSpaceOnUse" gradientTransform="matrix(.51464 0 0 .41673 452.432 236.86)" x1="139.079" y1="310.356" x2="205.37" y2="310.356"/><filter id="aZ" x="-.38" width="1.759" y="-.44" height="1.881"><feGaussianBlur stdDeviation="4.634"/></filter><radialGradient xlink:href="#d" id="aD" cx="543.614" cy="352.206" fx="543.614" fy="352.206" r="39.157" gradientTransform="matrix(1.12843 0 0 .87126 -72.524 67.582)" gradientUnits="userSpaceOnUse"/><linearGradient xlink:href="#b" id="aA" x1="538.919" y1="417.208" x2="544.921" y2="383.28" gradientUnits="userSpaceOnUse" gradientTransform="matrix(.87299 0 0 .87299 68.4 57.128)"/><filter id="bM" x="-.199" width="1.398" y="-.088" height="1.176"><feGaussianBlur stdDeviation="3.576"/></filter><filter id="bF" x="-.181" width="1.362" y="-.1" height="1.2"><feGaussianBlur stdDeviation="2.791"/></filter><filter id="ca" x="-.201" width="1.401" y="-.087" height="1.175"><feGaussianBlur stdDeviation="3.02"/></filter><filter id="bp" x="-.181" width="1.362" y="-.1" height="1.2"><feGaussianBlur stdDeviation="2.791"/></filter><filter id="bx" x="-.179" width="1.358" y="-.102" height="1.204"><feGaussianBlur stdDeviation="3.795"/></filter><filter id="bU" x="-.185" width="1.37" y="-.097" height="1.194"><feGaussianBlur stdDeviation="2.28"/></filter><linearGradient xlink:href="#a" id="bn" gradientUnits="userSpaceOnUse" gradientTransform="matrix(.68122 .17441 -.09934 .73665 539.84 78.846)" x1="64.795" y1="415.388" x2="70.905" y2="383.647"/><linearGradient xlink:href="#a" id="bm" gradientUnits="userSpaceOnUse" gradientTransform="matrix(.8142 -.18377 .12542 .804 458.29 77.012)" x1="37.189" y1="411.725" x2="30.51" y2="372.348"/><filter id="bf" x="-.31" width="1.62" y="-.83" height="2.661"><feGaussianBlur stdDeviation="1.612"/></filter><filter id="bd" x="-.231" width="1.462" y="-.39" height="1.78"><feGaussianBlur stdDeviation="1.612"/></filter><filter id="bb" x="-.223" width="1.447" y="-.227" height="1.454"><feGaussianBlur stdDeviation="1.612"/></filter><filter id="bl" x="-.305" width="1.61" y="-.955" height="2.91"><feGaussianBlur stdDeviation="1.612"/></filter><filter id="bh" x="-.224" width="1.447" y="-.234" height="1.467"><feGaussianBlur stdDeviation="1.612"/></filter><filter id="bj" x="-.224" width="1.448" y="-.387" height="1.773"><feGaussianBlur stdDeviation="1.612"/></filter><filter id="ay" x="-.612" width="2.223" y="-.698" height="2.396"><feGaussianBlur stdDeviation="14.546"/></filter><filter id="ch" x="-2.097" width="5.194" y="-.252" height="1.503"><feGaussianBlur stdDeviation="1.872"/></filter><filter id="cj" x="-.702" width="2.404" y="-.234" height="1.468"><feGaussianBlur stdDeviation="1.034"/></filter><filter id="aP" x="-.162" width="1.325" y="-.108" height="1.217"><feGaussianBlur stdDeviation="3.03"/></filter><filter id="aF" x="-.163" width="1.327" y="-.109" height="1.218"><feGaussianBlur stdDeviation="3.051"/></filter><radialGradient xlink:href="#f" id="cn" gradientUnits="userSpaceOnUse" gradientTransform="matrix(.85433 1.1432 -1.33397 .43548 521.462 -343.111)" cx="452.702" cy="329.114" fx="452.702" fy="329.114" r="75.918"/><radialGradient xlink:href="#f" id="cm" gradientUnits="userSpaceOnUse" gradientTransform="matrix(1 0 0 .99045 0 3.294)" cx="457.854" cy="345.063" fx="457.854" fy="345.063" r="75.918"/><linearGradient xlink:href="#d" id="co" gradientUnits="userSpaceOnUse" gradientTransform="matrix(1.05573 0 0 .71956 363.452 95.133)" x1="124.761" y1="640.177" x2="158.873" y2="651.408"/><radialGradient xlink:href="#i" id="cp" gradientUnits="userSpaceOnUse" gradientTransform="matrix(1 0 0 1.55783 0 -157.692)" cx="538.442" cy="282.688" fx="538.442" fy="282.688" r="39.611"/><radialGradient xlink:href="#f" id="cq" gradientUnits="userSpaceOnUse" gradientTransform="matrix(.87932 -2.24388 3.56754 1.39803 -872.64 1109.601)" cx="548.035" cy="260.484" fx="548.035" fy="260.484" r="51.215"/><radialGradient xlink:href="#k" id="cr" gradientUnits="userSpaceOnUse" gradientTransform="matrix(1 0 0 .63567 0 127.982)" cx="466.121" cy="345.79" fx="466.121" fy="345.79" r="73.472"/><radialGradient xlink:href="#g" id="cs" gradientUnits="userSpaceOnUse" gradientTransform="matrix(-.08828 -2.08095 2.7262 -.11566 -410.012 1368.357)" cx="472.395" cy="344.723" fx="472.395" fy="344.723" r="78.442"/><radialGradient xlink:href="#l" id="ct" gradientUnits="userSpaceOnUse" gradientTransform="matrix(1 0 0 .97722 0 9.12)" cx="582.451" cy="400.421" fx="582.451" fy="400.421" r="37.482"/><radialGradient xlink:href="#f" id="cv" gradientUnits="userSpaceOnUse" gradientTransform="matrix(1.74327 -.44177 .37632 1.05753 -479.681 182.629)" cx="453.707" cy="375.212" fx="453.707" fy="375.212" r="76.535"/><radialGradient xlink:href="#h" id="cu" gradientUnits="userSpaceOnUse" gradientTransform="matrix(1 0 0 .98335 0 5.744)" cx="457.752" cy="345.078" fx="457.752" fy="345.078" r="76.535"/><radialGradient xlink:href="#m" id="cw" gradientUnits="userSpaceOnUse" gradientTransform="matrix(.8254 0 0 .71152 230.268 104.279)" cx="453.466" cy="346.649" fx="453.466" fy="346.649" r="72.333"/><radialGradient xlink:href="#j" id="cy" gradientUnits="userSpaceOnUse" gradientTransform="matrix(2.21418 .1451 -.10077 1.5377 -526.172 -242.404)" cx="453.445" cy="339.019" fx="453.445" fy="339.019" r="72.706"/><radialGradient xlink:href="#e" id="cx" gradientUnits="userSpaceOnUse" gradientTransform="matrix(2.21418 -.46623 .31752 1.50793 -659.624 38.983)" cx="446.395" cy="336.056" fx="446.395" fy="336.056" r="72.706"/><linearGradient xlink:href="#b" id="cz" gradientUnits="userSpaceOnUse" gradientTransform="matrix(.51464 0 0 .41673 452.432 236.86)" x1="139.079" y1="310.356" x2="205.37" y2="310.356"/><linearGradient xlink:href="#b" id="cA" gradientUnits="userSpaceOnUse" gradientTransform="matrix(.87299 0 0 .87299 68.4 57.128)" x1="538.919" y1="417.208" x2="544.921" y2="383.28"/><radialGradient xlink:href="#a" id="cB" gradientUnits="userSpaceOnUse" gradientTransform="matrix(.73724 0 0 .54433 412.989 184.288)" cx="173.31" cy="347.678" fx="173.31" fy="347.678" r="64.024"/><radialGradient xlink:href="#d" id="cC" gradientUnits="userSpaceOnUse" gradientTransform="matrix(1.12843 0 0 .87126 -72.524 67.582)" cx="543.614" cy="352.206" fx="543.614" fy="352.206" r="39.157"/><radialGradient xlink:href="#a" id="cE" gradientUnits="userSpaceOnUse" gradientTransform="matrix(1 0 0 1.4992 0 -98.702)" cx="230.214" cy="197.719" fx="230.214" fy="197.719" r="22.393"/><radialGradient xlink:href="#a" id="cF" gradientUnits="userSpaceOnUse" gradientTransform="matrix(1 0 0 1.4992 0 -98.702)" cx="230.214" cy="197.719" fx="230.214" fy="197.719" r="22.393"/><radialGradient xlink:href="#a" id="cG" gradientUnits="userSpaceOnUse" gradientTransform="matrix(1 0 0 1.4992 0 -98.702)" cx="230.214" cy="197.719" fx="230.214" fy="197.719" r="22.393"/><radialGradient xlink:href="#a" id="cH" gradientUnits="userSpaceOnUse" gradientTransform="matrix(1 0 0 1.4992 0 -98.702)" cx="230.214" cy="197.719" fx="230.214" fy="197.719" r="22.393"/><radialGradient xlink:href="#a" id="cI" gradientUnits="userSpaceOnUse" gradientTransform="matrix(1 0 0 1.4992 0 -98.702)" cx="230.214" cy="197.719" fx="230.214" fy="197.719" r="22.393"/><radialGradient xlink:href="#a" id="cJ" gradientUnits="userSpaceOnUse" gradientTransform="matrix(1 0 0 1.4992 0 -98.702)" cx="230.214" cy="197.719" fx="230.214" fy="197.719" r="22.393"/><radialGradient xlink:href="#a" id="cK" gradientUnits="userSpaceOnUse" gradientTransform="matrix(1 0 0 1.4992 0 -98.702)" cx="230.214" cy="197.719" fx="230.214" fy="197.719" r="22.393"/><radialGradient xlink:href="#a" id="cL" gradientUnits="userSpaceOnUse" gradientTransform="matrix(1 0 0 1.4992 0 -98.702)" cx="230.214" cy="197.719" fx="230.214" fy="197.719" r="22.393"/><radialGradient xlink:href="#a" id="cM" gradientUnits="userSpaceOnUse" gradientTransform="matrix(1 0 0 1.4992 0 -98.702)" cx="230.214" cy="197.719" fx="230.214" fy="197.719" r="22.393"/><radialGradient xlink:href="#a" id="cD" gradientUnits="userSpaceOnUse" gradientTransform="matrix(1 0 0 1.4992 0 -98.702)" cx="230.214" cy="197.719" fx="230.214" fy="197.719" r="22.393"/><radialGradient xlink:href="#a" id="cO" gradientUnits="userSpaceOnUse" gradientTransform="matrix(1 0 0 1.4992 0 -98.702)" cx="230.214" cy="197.719" fx="230.214" fy="197.719" r="22.393"/><radialGradient xlink:href="#a" id="cP" gradientUnits="userSpaceOnUse" gradientTransform="matrix(1 0 0 1.4992 0 -98.702)" cx="230.214" cy="197.719" fx="230.214" fy="197.719" r="22.393"/><radialGradient xlink:href="#a" id="cQ" gradientUnits="userSpaceOnUse" gradientTransform="matrix(1 0 0 1.4992 0 -98.702)" cx="230.214" cy="197.719" fx="230.214" fy="197.719" r="22.393"/><radialGradient xlink:href="#a" id="cR" gradientUnits="userSpaceOnUse" gradientTransform="matrix(1 0 0 1.4992 0 -98.702)" cx="230.214" cy="197.719" fx="230.214" fy="197.719" r="22.393"/><radialGradient xlink:href="#a" id="cS" gradientUnits="userSpaceOnUse" gradientTransform="matrix(1 0 0 1.4992 0 -98.702)" cx="230.214" cy="197.719" fx="230.214" fy="197.719" r="22.393"/><radialGradient xlink:href="#a" id="cT" gradientUnits="userSpaceOnUse" gradientTransform="matrix(1 0 0 1.4992 0 -98.702)" cx="230.214" cy="197.719" fx="230.214" fy="197.719" r="22.393"/><radialGradient xlink:href="#a" id="cU" gradientUnits="userSpaceOnUse" gradientTransform="matrix(1 0 0 1.4992 0 -98.702)" cx="230.214" cy="197.719" fx="230.214" fy="197.719" r="22.393"/><radialGradient xlink:href="#a" id="cV" gradientUnits="userSpaceOnUse" gradientTransform="matrix(1 0 0 1.4992 0 -98.702)" cx="230.214" cy="197.719" fx="230.214" fy="197.719" r="22.393"/><radialGradient xlink:href="#a" id="cW" gradientUnits="userSpaceOnUse" gradientTransform="matrix(1 0 0 1.4992 0 -98.702)" cx="230.214" cy="197.719" fx="230.214" fy="197.719" r="22.393"/><radialGradient xlink:href="#a" id="cN" gradientUnits="userSpaceOnUse" gradientTransform="matrix(1 0 0 1.4992 0 -98.702)" cx="230.214" cy="197.719" fx="230.214" fy="197.719" r="22.393"/><radialGradient xlink:href="#a" id="cX" gradientUnits="userSpaceOnUse" gradientTransform="matrix(1 0 0 .86207 0 42.257)" cx="546.998" cy="306.365" fx="546.998" fy="306.365" r="14.647"/><linearGradient xlink:href="#a" id="cY" gradientUnits="userSpaceOnUse" gradientTransform="matrix(.8142 -.18377 .12542 .804 458.29 77.012)" x1="37.189" y1="411.725" x2="30.51" y2="372.348"/><linearGradient xlink:href="#a" id="cZ" gradientUnits="userSpaceOnUse" gradientTransform="matrix(.68122 .17441 -.09934 .73665 539.84 78.846)" x1="64.795" y1="415.388" x2="70.905" y2="383.647"/><linearGradient xlink:href="#n" id="cl" x1="499.014" y1="378.247" x2="582.843" y2="378.247" gradientUnits="userSpaceOnUse"/><linearGradient xlink:href="#o" id="ck" x1="383.902" y1="433.391" x2="392.4" y2="433.391" gradientUnits="userSpaceOnUse"/><linearGradient xlink:href="#p" id="ci" x1="383.902" y1="433.391" x2="392.4" y2="433.391" gradientUnits="userSpaceOnUse"/><linearGradient xlink:href="#q" id="cg" x1="353.221" y1="397.005" x2="365.35" y2="397.005" gradientUnits="userSpaceOnUse"/><linearGradient xlink:href="#r" id="cf" x1="167.369" y1="162.005" x2="183.346" y2="162.005" gradientUnits="userSpaceOnUse"/><linearGradient xlink:href="#s" id="ce" x1="167.369" y1="162.005" x2="183.346" y2="162.005" gradientUnits="userSpaceOnUse"/><linearGradient xlink:href="#t" id="cd" x1="167.369" y1="162.005" x2="183.346" y2="162.005" gradientUnits="userSpaceOnUse"/><linearGradient xlink:href="#u" id="cc" x1="167.369" y1="162.005" x2="183.346" y2="162.005" gradientUnits="userSpaceOnUse"/><linearGradient xlink:href="#v" id="cb" x1="167.369" y1="162.005" x2="183.346" y2="162.005" gradientUnits="userSpaceOnUse"/><linearGradient xlink:href="#w" id="bZ" x1="167.369" y1="162.005" x2="183.346" y2="162.005" gradientUnits="userSpaceOnUse"/><linearGradient xlink:href="#x" id="bY" x1="167.663" y1="162.005" x2="183.051" y2="162.005" gradientUnits="userSpaceOnUse"/><linearGradient xlink:href="#y" id="bX" x1="167.663" y1="162.005" x2="183.051" y2="162.005" gradientUnits="userSpaceOnUse"/><linearGradient xlink:href="#z" id="bW" x1="167.663" y1="162.005" x2="183.051" y2="162.005" gradientUnits="userSpaceOnUse"/><linearGradient xlink:href="#A" id="bV" x1="167.663" y1="162.005" x2="183.051" y2="162.005" gradientUnits="userSpaceOnUse"/><linearGradient xlink:href="#B" id="bT" x1="167.663" y1="162.005" x2="183.051" y2="162.005" gradientUnits="userSpaceOnUse"/><linearGradient xlink:href="#C" id="bS" x1="167.147" y1="162.005" x2="183.567" y2="162.005" gradientUnits="userSpaceOnUse"/><linearGradient xlink:href="#D" id="bR" x1="167.147" y1="162.005" x2="183.567" y2="162.005" gradientUnits="userSpaceOnUse"/><linearGradient xlink:href="#E" id="bQ" x1="167.147" y1="162.005" x2="183.567" y2="162.005" gradientUnits="userSpaceOnUse"/><linearGradient xlink:href="#F" id="bP" x1="167.147" y1="162.005" x2="183.567" y2="162.005" gradientUnits="userSpaceOnUse"/><linearGradient xlink:href="#G" id="bO" x1="167.147" y1="162.005" x2="183.567" y2="162.005" gradientUnits="userSpaceOnUse"/><linearGradient xlink:href="#H" id="bN" x1="167.147" y1="162.005" x2="183.567" y2="162.005" gradientUnits="userSpaceOnUse"/><linearGradient xlink:href="#I" id="bL" x1="167.147" y1="162.005" x2="183.567" y2="162.005" gradientUnits="userSpaceOnUse"/><linearGradient xlink:href="#J" id="bK" x1="167.46" y1="162.005" x2="183.254" y2="162.005" gradientUnits="userSpaceOnUse"/><linearGradient xlink:href="#K" id="bJ" x1="167.46" y1="162.005" x2="183.254" y2="162.005" gradientUnits="userSpaceOnUse"/><linearGradient xlink:href="#L" id="bI" x1="167.46" y1="162.005" x2="183.254" y2="162.005" gradientUnits="userSpaceOnUse"/><linearGradient xlink:href="#M" id="bH" x1="167.46" y1="162.005" x2="183.254" y2="162.005" gradientUnits="userSpaceOnUse"/><linearGradient xlink:href="#N" id="bG" x1="167.46" y1="162.005" x2="183.254" y2="162.005" gradientUnits="userSpaceOnUse"/><linearGradient xlink:href="#O" id="bE" x1="167.46" y1="162.005" x2="183.254" y2="162.005" gradientUnits="userSpaceOnUse"/><linearGradient xlink:href="#P" id="bD" x1="167.06" y1="162.005" x2="183.655" y2="162.005" gradientUnits="userSpaceOnUse"/><linearGradient xlink:href="#Q" id="bC" x1="167.06" y1="162.005" x2="183.655" y2="162.005" gradientUnits="userSpaceOnUse"/><linearGradient xlink:href="#R" id="bB" x1="167.06" y1="162.005" x2="183.655" y2="162.005" gradientUnits="userSpaceOnUse"/><linearGradient xlink:href="#S" id="bA" x1="167.06" y1="162.005" x2="183.655" y2="162.005" gradientUnits="userSpaceOnUse"/><linearGradient xlink:href="#T" id="bz" x1="167.06" y1="162.005" x2="183.655" y2="162.005" gradientUnits="userSpaceOnUse"/><linearGradient xlink:href="#U" id="by" x1="167.06" y1="162.005" x2="183.655" y2="162.005" gradientUnits="userSpaceOnUse"/><linearGradient xlink:href="#V" id="bw" x1="167.06" y1="162.005" x2="183.655" y2="162.005" gradientUnits="userSpaceOnUse"/><linearGradient xlink:href="#W" id="bv" x1="167.46" y1="162.005" x2="183.254" y2="162.005" gradientUnits="userSpaceOnUse"/><linearGradient xlink:href="#X" id="bu" x1="167.46" y1="162.005" x2="183.254" y2="162.005" gradientUnits="userSpaceOnUse"/><linearGradient xlink:href="#Y" id="bt" x1="167.46" y1="162.005" x2="183.254" y2="162.005" gradientUnits="userSpaceOnUse"/><linearGradient xlink:href="#Z" id="bs" x1="167.46" y1="162.005" x2="183.254" y2="162.005" gradientUnits="userSpaceOnUse"/><linearGradient xlink:href="#aa" id="br" x1="167.46" y1="162.005" x2="183.254" y2="162.005" gradientUnits="userSpaceOnUse"/><linearGradient xlink:href="#ab" id="bq" x1="167.46" y1="162.005" x2="183.254" y2="162.005" gradientUnits="userSpaceOnUse"/><linearGradient xlink:href="#ac" id="bo" x1="167.46" y1="162.005" x2="183.254" y2="162.005" gradientUnits="userSpaceOnUse"/><linearGradient xlink:href="#ad" id="bk" x1="543.045" y1="388.409" x2="564.59" y2="388.409" gradientUnits="userSpaceOnUse"/><linearGradient xlink:href="#ae" id="bi" x1="542.565" y1="383.404" x2="568.686" y2="383.404" gradientUnits="userSpaceOnUse"/><linearGradient xlink:href="#af" id="bg" x1="541.628" y1="378.467" x2="567.782" y2="378.467" gradientUnits="userSpaceOnUse"/><linearGradient xlink:href="#ag" id="be" x1="516.757" y1="388.079" x2="538.104" y2="388.079" gradientUnits="userSpaceOnUse"/><linearGradient xlink:href="#ah" id="bc" x1="513.364" y1="383.759" x2="538.98" y2="383.759" gradientUnits="userSpaceOnUse"/><linearGradient xlink:href="#ai" id="ba" x1="514.325" y1="378.173" x2="540.51" y2="378.173" gradientUnits="userSpaceOnUse"/><linearGradient xlink:href="#a" id="aY" x1="529.618" y1="306.365" x2="564.378" y2="306.365" gradientUnits="userSpaceOnUse"/><linearGradient xlink:href="#a" id="aX" x1="167.333" y1="162.005" x2="183.381" y2="162.005" gradientUnits="userSpaceOnUse"/><linearGradient xlink:href="#a" id="aW" x1="167.333" y1="162.005" x2="183.381" y2="162.005" gradientUnits="userSpaceOnUse"/><linearGradient xlink:href="#a" id="aV" x1="167.333" y1="162.005" x2="183.381" y2="162.005" gradientUnits="userSpaceOnUse"/><linearGradient xlink:href="#a" id="aU" x1="167.333" y1="162.005" x2="183.381" y2="162.005" gradientUnits="userSpaceOnUse"/><linearGradient xlink:href="#a" id="aT" x1="167.333" y1="162.005" x2="183.381" y2="162.005" gradientUnits="userSpaceOnUse"/><linearGradient xlink:href="#a" id="aS" x1="167.333" y1="162.005" x2="183.381" y2="162.005" gradientUnits="userSpaceOnUse"/><linearGradient xlink:href="#a" id="aR" x1="167.333" y1="162.005" x2="183.381" y2="162.005" gradientUnits="userSpaceOnUse"/><linearGradient xlink:href="#a" id="aQ" x1="167.333" y1="162.005" x2="183.381" y2="162.005" gradientUnits="userSpaceOnUse"/><linearGradient xlink:href="#a" id="aO" x1="167.333" y1="162.005" x2="183.381" y2="162.005" gradientUnits="userSpaceOnUse"/><linearGradient xlink:href="#a" id="aN" x1="167.356" y1="162.005" x2="183.358" y2="162.005" gradientUnits="userSpaceOnUse"/><linearGradient xlink:href="#a" id="aM" x1="167.356" y1="162.005" x2="183.358" y2="162.005" gradientUnits="userSpaceOnUse"/><linearGradient xlink:href="#a" id="aL" x1="167.356" y1="162.005" x2="183.358" y2="162.005" gradientUnits="userSpaceOnUse"/><linearGradient xlink:href="#a" id="aK" x1="167.356" y1="162.005" x2="183.358" y2="162.005" gradientUnits="userSpaceOnUse"/><linearGradient xlink:href="#a" id="aJ" x1="167.356" y1="162.005" x2="183.358" y2="162.005" gradientUnits="userSpaceOnUse"/><linearGradient xlink:href="#a" id="aI" x1="167.356" y1="162.005" x2="183.358" y2="162.005" gradientUnits="userSpaceOnUse"/><linearGradient xlink:href="#a" id="aH" x1="167.356" y1="162.005" x2="183.358" y2="162.005" gradientUnits="userSpaceOnUse"/><linearGradient xlink:href="#a" id="aG" x1="167.356" y1="162.005" x2="183.358" y2="162.005" gradientUnits="userSpaceOnUse"/><linearGradient xlink:href="#a" id="aE" x1="167.356" y1="162.005" x2="183.358" y2="162.005" gradientUnits="userSpaceOnUse"/><linearGradient xlink:href="#a" id="aC" x1="498.821" y1="376.834" x2="583.045" y2="376.834" gradientUnits="userSpaceOnUse"/><linearGradient xlink:href="#aj" id="aB" x1="529.844" y1="346.668" x2="552.551" y2="346.668" gradientUnits="userSpaceOnUse"/><linearGradient xlink:href="#ak" id="ax" x1="597.333" y1="515.214" x2="709.299" y2="515.214" gradientUnits="userSpaceOnUse"/><linearGradient xlink:href="#al" id="aw" x1="545.676" y1="348.918" x2="682.122" y2="348.918" gradientUnits="userSpaceOnUse"/><linearGradient xlink:href="#am" id="av" x1="536.616" y1="401.882" x2="636.397" y2="401.882" gradientUnits="userSpaceOnUse"/><linearGradient xlink:href="#an" id="au" x1="396.945" y1="351.75" x2="554.563" y2="351.75" gradientUnits="userSpaceOnUse"/><linearGradient xlink:href="#ao" id="at" x1="486.26" y1="285.114" x2="588.689" y2="285.114" gradientUnits="userSpaceOnUse"/><linearGradient xlink:href="#ap" id="ar" x1="445.126" y1="394.074" x2="539.914" y2="394.074" gradientUnits="userSpaceOnUse"/></defs><path d="M450.37 438.579c-5.708-10.091-5.561-30.234-3.82-42.503 1.742-12.269 5.883-20.112 11.504-29.515 5.62-9.404 13.744-19.858 22.09-25.917 8.347-6.058 16.259-10.026 25.728-10.601 9.47-.575 18.796-4.127 28.044 7.75 9.247 11.877 5.2 44.215 1.343 61.206-3.858 16.99-12.393 28.905-19.557 38.652-7.165 9.747-12.686 17.777-20.979 20.402-8.292 2.624-14.975-.426-22.64-3.618-7.663-3.191-16.004-5.766-21.712-15.856z" fill="url(#ar)" stroke="#112b00" stroke-width=".725" transform="translate(5.714 -204.286)"/><path style="text-indent:0;text-align:start;line-height:normal;text-transform:none;block-progression:tb;marker:none;-inkscape-font-specification:Sans" d="M536.058 376.34c-3.77 106.407-37.726 213.494-110.324 308.206-20.483 26.298-44.149 51.686-71.757 74.675-17.76 3.66-3.763 24.905 5.437 8.927 47.684-37.425 82.817-81.828 111.058-127.372 43.652-71.954 68.101-149.01 76.148-226.58-4.418-11.296 15.382-35.071-7.906-37.675l-2.656-.18z" font-weight="400" color="#000" fill="url(#as)" overflow="visible" enable-background="accumulate" font-family="Sans" transform="translate(5.714 -204.286)"/><path d="M546.669 208.74c11.754 3.163 21.84 17.482 29.275 29.043 6.373 9.91 12.052 21.38 12.241 33.161.226 14.095-9.285 26.629-13.362 40.122-3.171 10.492-2.08 22.94-8.628 31.73-7.472 10.033-19.672 22.542-31.877 19.803-20.41-4.58-24.989-33.858-34.046-52.713-6.16-12.822-13.484-26.254-13.512-40.478-.02-10.468 4.31-20.931 9.827-29.827 6.84-11.027 18.401-22.875 27.71-27.344 9.309-4.468 10.618-6.66 22.372-3.497z" fill="url(#at)" stroke="#112b00" transform="translate(5.714 -204.286)"/><path d="M559.008 137.893c10.154-1.047 23.87-20.422 24.184-23.996-2.48 11.12-24.378 20.066-22.778 16.638 11.972-10.74 21.193-27.327 23.71-46.134-3.654 17.532-16.031 41.662-29.096 48.677 11.693-16.393 22.398-43.222 26.66-64.838-4.395 20.076-23.1 64.16-32.106 69.681 10.312-24.078 22.075-63.77 25.23-91.045-5.43 26.339-11.138 59.044-23.85 81.395 1.487-29.472 11.652-62.324 13.481-91.737-4.017 29.992-12.843 68.367-16.676 98.407-1.553-32.722.303-74.715-2.334-107.343-1.13 33.413 1.709 71.91.578 105.324-4.597-32.435-13.658-69.833-19.002-102.073 3.554 29.726 12.223 74.61 17.694 103.795C541.814 140.171 529.9 90.8 529.9 90.8l-14.004-45.562 25.731 91.935-33.632-83.335s18.337 52.996 29.27 74.15c3.562 14.313-14.67-15.872-16.94-19.92-5.848-9.546-14.366-31.87-16.162-35.446 7.287 22.367 17.632 43.493 31.938 59.38-13.287-5.194-32.736-32.612-33.305-36.737 1.957 19.18 24.898 33.801 29.062 40.047-8.131-.055-28.425-12.24-25.375-13.56 15.067 14.464 33.943 22.051 52.525 16.142zM534.661 184.453c3.274 5.988-2.491 22.657-4.399 24.534 5.362-6.653 2.096-22.76.761-20.259-1.532 11.602-7.428 24.509-17.137 34.855 8.553-10.351 14.787-24.155 13.79-34.566-4.845 14.15-13.247 28.34-23.884 40.97 9.713-11.967 21.78-34.327 21.48-41.832-9.73 17.077-21.949 33.587-36.218 48.323 12.872-15.518 26.793-31.257 34.63-48.805-16.152 14.884-28.459 33.102-44.446 48.142 15.482-16.5 33.501-38.444 49.081-54.867-2.247 1.737-2.256-1.457-4.591.402-17.563 13.985-39.577 35.96-56.8 48.461l55.567-49.724c-20.149 13.012-40.417 25.7-60.74 38.215 18.215-12.281 36.624-24.168 55.262-35.155 2.035-4.201-15.477 7.156-20.156 8.075-7.963 2.986-31.1 14.415-31.178 14.2 17.686-10.643 36.232-17.512 54.111-26.873-17.102 3.705-34.97 9.822-52.242 18.494 15.835-10.758 32.599-14.87 48.762-19.069 9.476-4.913-10.144-.883-13.305-.176-7.642 1.4-23.55 7.463-26.262 8.2 15.463-6.747 31.386-11.25 45.847-11.109-8.007-4.699-30.968-2.11-33.524-.447 11.625-8.106 28.656-2.693 33.785-3.427-3.128-4.368-17.77-9.514-17.357-7.235 13.944 1.233 25.437 7.808 29.163 20.673z" opacity=".55" fill="#447821"/><path d="M419.7 410.013c12.66 8.956 8.765 11.406 22.574 12.589 13.808 1.182 23.477 6.65 37.08 1.255 13.602-5.394 24.985-39.666 35.002-51.518 10.017-11.853 39.707-12.047 39.707-12.047s-21.877-22.751-38.993-36.627c-8.12-6.583-24.598-29.194-30.307-36.548-6.142-7.911-12.016-10.078-20.045-9.786-15.493.563-26.024 10.84-36.57 18.728-10.548 7.888-14.596 15.035-19.557 28.136-2.48 6.551-7.926 12.117-9.008 21.22-6.211 20.19 1.295 50.602 20.117 64.598z" fill="url(#au)" stroke="#112b00" transform="translate(5.714 -204.286)"/><path d="M545.03 153.724c-22.668 8.824-48.934 28.893-48.934 28.893s14.47-10.637 20.513-16.077c5.236-4.518 17.565-5.818 22.087-10.949-8.004-1.518-14.307 4.286-21.14 6.91-12.626 6.584-25.99 11.905-39.186 17.437-4.356 2.392-8.35 5.294-12.02 8.484 6.52-10.03 20.029-12.349 30.638-17.358 9.07-4.712 17.952-9.741 27.55-13.564 2.12-.964 8.47-3.497 7.313-3.448-20.52 6.332-42.203 9.525-62.098 17.474-7.945 4.053-15.94 8.034-24.1 11.725 14.223-7.761 28.252-17.097 45.082-19.433 12.675-3.242 25.224-6.932 37.426-11.427-35.6 6.208-71.592 12.849-104.63 26.813 31.676-15.815 67.69-21.866 102.845-27.93-33.476 4.603-68.295 5.716-99.685 18.327-4.014 1.742-3.089 1.163.176-.274 26.338-11.734 56.166-12.934 84.706-16.81 2.417-.361 8.804-1.125 8.751-1.433-31.518 2.098-63.641 1.461-94.377 8.972-6.531 3.14 3.279-.725 5.483-1.239 29.754-8.844 61.51-7.12 92.215-10.762-35.036.337-70.381-1.537-105.079 3.939 29.211-6.374 59.442-3.246 89.148-4.494 2.284-.077 9.98.386 9.373-.445-32.075-1.984-64.173-3.65-96.24-5.723 37.09 1.461 74.15 3.496 111.22 5.33-36.058-4.722-72.423-8.354-107.76-16.651 36.496 6.924 73.653 10.227 110.591 14.57-31.831-6.908-64.948-10.375-95.024-22.706 31.327 11.334 64.955 15.496 97.777 21.768-24.485-7.938-71.915-27.335-71.915-27.335s54.155 18.877 62.947 23.325c7.531 1.92 3.445 1.393 11.579 1.017-11.786-8.373-24.041-16.586-33.622-27.064 9.627 6.077 29.367 24.683 40.272 29.188 6.523 3.423 1.977-1.487 1.967 6.077-.294 2.065-1.807 3.927-3.848 4.873z" opacity=".55" fill="#447821"/><path d="M626.84 454.448c-7.519 6.706-21.054 7.046-30.704 5.129-9.649-1.918-15.654-7.637-23.67-14.768-8.015-7.132-16.912-18.045-22.774-28.49-5.862-10.446-10.184-21.46-12.085-33.266-1.901-11.806 1.06-36.342 1.06-36.342s31.354-6.383 44.904-2c13.551 4.382 23.413 16.218 31.744 25.155 8.331 8.936 15.279 17.236 18.523 27.074 3.245 9.837 2.272 19.621 1.09 29.327-1.182 9.706-.57 21.475-8.089 28.181z" fill="url(#av)" stroke="#112b00" stroke-width=".708" transform="translate(5.714 -204.286)"/><path d="M551.684 181.567c-3.321 6.221 2.528 23.54 4.463 25.49-5.44-6.912-2.127-23.648-.772-21.048 1.554 12.054 7.536 25.464 17.386 36.214-8.677-10.755-15.002-25.097-13.99-35.915 4.915 14.703 13.439 29.446 24.23 42.569-9.854-12.434-22.095-35.666-21.793-43.463 9.871 17.742 22.268 34.896 36.745 50.207-13.059-16.123-27.182-32.476-35.132-50.709 16.385 15.465 28.87 34.393 45.09 50.02-15.707-17.143-29.345-35.676-45.15-52.74 19.43 15.371 37.843 31.787 57.638 46.502-15.883-14.556-37.302-31.525-53.185-46.08-2.908-2.666 2.22-.878-.687-3.542 20.44 13.52 38.503 24.66 59.12 37.664-18.478-12.76-37.154-25.11-56.063-36.526-2.064-4.365 15.702 7.435 20.448 8.39 8.08 3.103 31.551 14.977 31.63 14.754-17.942-11.059-36.757-18.195-54.896-27.921 17.35 3.85 35.478 10.205 53 19.215-16.064-11.178-33.071-15.45-49.469-19.812-9.613-5.105 10.292-.918 13.499-.183 7.752 1.454 23.891 7.753 26.642 8.52-15.687-7.012-31.841-11.69-46.512-11.543 8.124-4.882 31.417-2.193 34.01-.465-11.793-8.422-29.072-2.798-34.275-3.56 3.174-4.54 18.028-9.885 17.61-7.517-14.147 1.28-25.807 8.112-29.587 21.48z" opacity=".55" fill="#447821"/><path d="M681.424 355.528c-3.566 18.622-12.252 30.835-21.133 44.73-6.191 9.685-11.212 22.815-22.114 26.462-12.088 4.045-26.358-2.047-37.243-8.681-7.334-4.471-12.117-26.917-17.173-34.077-3.365-4.765-5.821-9.72-9.208-14.324-9.965-13.545-28.377-26.932-28.377-26.932s10.412-12.32 23.261-26.787c4.15-4.672 6.902-14.13 11.393-24.21 3.987-8.95 8.514-15.14 13.047-17.641 8.629-4.76 16.473-4.994 24.548-3.276 9.735 2.07 16.022 9.526 25.427 15.656 12.931 8.428 26.723 17.682 30.881 30.907 2.456 7.81.297 13.847.297 13.847s7.934 16.285 6.394 24.326z" fill="url(#aw)" stroke="#112b00" transform="translate(5.714 -204.286)"/><path d="M556.214 158.485c7.98-1.578 20.183 4.411 20.183 4.411l13.037 4.516s9.962 3.227 15.046 4.869c2.805 2.146 30.172 17.84 30.172 17.84l-31.78-20.185s-15.173-4.678-22.974-7.917c-2.902-1.408-10.063-4.193-10.254-4.767 18.494 4.562 37.625 6.016 55.83 11.882 10.005 3.878 19.245 9.645 29.192 13.67-14.646-7.513-28.683-18.49-45.513-19.15a274.135 274.135 0 0 1-38.228-9.668c34.29 2.808 69.103 6.308 101.552 19.255-31.164-15.437-65.962-18.364-99.774-20.925 30.467.819 61.796-2.478 91.305 7.572 2.411.808 7.402 2.897 2.346.406-12.796-5.803-26.914-7.054-40.648-8.057-16.606-.888-35.015-1.07-51.62-1.986 30.124-1.99 62.247-7.098 92.377-1.835 2.322.891 6.323 2.867 1.591 1.16-12.923-4.963-26.874-5.038-40.445-4.948-18.085.472-36.096 2.635-54.174 3.185 26.93-4.367 53.759-10.38 81.059-11.51a191.056 191.056 0 0 1 15.768.01c-26.29-3.311-52.14 4.663-78.12 7.5-5.561.817-11.094 2.05-16.676 2.593 30.483-7.902 61.004-15.638 91.437-23.759-33.585 7.715-68.273 16.44-101.752 24.649 31.473-11.67 62.218-23.255 94.587-38.52-92.786 37.882-62.768 24.188-94.5 35.159 26.83-13.964 55.985-23.944 79.545-44.12-24.775 19.07-53.897 29.814-81.596 42.921 9.681-11.785 39.176-34.422 39.176-34.422s-25.106 18.983-37.111 29.206c-3.67 3.895-11.122 5.963-5.254 1.657 11.368-10.283 21.508-22.795 21.508-22.795l-26.497 24.658s-3.48-2.561-4.415 6.626c-.278 4.353 5.62 10.82 5.62 10.82z" opacity=".55" fill="#447821"/><path transform="matrix(.77187 0 0 .77187 43.082 -242.063)" d="M681.853 515.214c0 13.807-12.776 25-28.537 25-15.76 0-28.537-11.193-28.537-25 0-13.808 12.777-25.002 28.537-25.002s28.537 11.194 28.537 25.002z" fill="url(#ax)" stroke="#112b00" stroke-linecap="round" stroke-linejoin="round" filter="url(#ay)"/><path d="M550.536 357.474c0 2.054-1.872 6.846-2.106 11.662-.25 5.138 1.127 10.304.821 12.203-.592 3.68 7.386 4.319 6.328 7.102-1.059 2.782-9.077 1.161-10.477 2.718-1.4 1.556-2.938 2.417-4.553 2.417-1.615 0-3.153-.861-4.553-2.417-1.4-1.557-8.378 2.115-9.436-.668-1.059-2.783 5.494-4.862 4.902-8.542-.313-1.947 2.132-8.377 2.357-13.856.2-4.876-.947-7.582-1.386-10.145-.77-4.499-2.446-3.375-2.483-7.098-.033-3.339.382-3.878 3.357-5.965 4.306-3.019 12.41-2.679 16.716.34 2.976 2.087 2.051 2.371 2.197 6.306.137 3.72-1.684 1.696-1.684 5.943z" fill="url(#az)" transform="translate(5.714 -204.286)"/><path d="M527.33 393.1s-1.748 1.542-6.615 2.837c-4.394 1.17-11.693 2.106-16.084 2.11-.175 2.37.204 4.822.589 5.449.385.626 1.236 1.133 2.254 1.343 1.896.385 4.532 2.282 4.532 2.282s7.787 7.516 12.447 10.152c1.997 1.13 4.558 1.074 6.478 2.331 1.855 1.215 2.647 3.728 4.566 4.839.863.499 1.168-.31 2.706.07.83.205 2.341 1.759 2.341 1.759l1.726-1.703s2.783-.893 3.743-1.28c2.71-1.09 4.11-1.412 7.643-3.698 1.856-1.2 3.479-4.453 4.786-4.855 3.173-.975 12.636-9.272 15.892-10.035.825-.196 1.527-.588 1.934-1.078.804-.966.875-3.242-.298-2.953-2.797-1.576-8-2.227-11.086-3.464-4.679-1.874-7.278-4.166-11.27-5.729z" fill="url(#aA)" stroke="#112b00" stroke-width=".304" transform="translate(5.714 -204.286)"/><path d="M541.166 342.136c-6.204 0-11.24 2.84-11.24 6.343 0 .94-.326 1.835.323 2.637.204-.224 1.106-.46 1.355-.667a9.145 9.145 0 0 1 1.372-.93 12.303 12.303 0 0 1 1.663-.776 15.368 15.368 0 0 1 1.906-.59 17.89 17.89 0 0 1 2.105-.372 19.904 19.904 0 0 1 2.272-.124c.776 0 1.526.04 2.257.124a17.9 17.9 0 0 1 2.105.373c.672.16 1.324.361 1.921.589.598.228 1.154.489 1.663.775.508.287.968.594 1.372.931.345.288 1.593.433 1.852.752.797-.871.314-1.673.314-2.722 0-3.502-5.036-6.343-11.24-6.343z" fill="url(#aB)" transform="translate(5.714 -204.286)"/><path d="M550.153 347.294s7.286 7.407 7.384 11.082c1.608 7.565 6.336 15.327 1.704 22.512-1.018 3.748-9.748 3.385-9.748 3.385l-7.605-6.505-8.175 6.644s-11.283-.76-11.568-6.256c-2.467-7.128-.523-12.739 1.208-19.76 1.137-2.33 8.1-9.366 6.623-11.382-11.103 3.239-15.078 4.939-18.82 8.852-8.318 9.107-9.542 12.385-11.962 23.661-.999 4.654 2.405 11.24 6.27 14.441 4.037 2.024 6.239-3.845 9.724-3.27 2.754 4.466 14.186 2.781 14.654 9.398 7.324 14.122 5.015-2.206 11.235 6.733l.679-18.414-.252 18.315s3.904-6.078 4.904-.75c.998 5.316 9.577-13.94 19.34-13.872 2.567.019 5.142 1.466 8.174 3.316 3.646 2.225 4.373-2.029 7.058-9.889 1.428-4.184 2.558-6.902 1.37-11.151-2.767-8.302-8.15-13.379-14.816-20.178-14.516-10.299-17.38-6.912-17.38-6.912z" fill="url(#aC)" stroke="url(#aD)" stroke-width=".393" transform="translate(5.714 -204.286)"/><path transform="matrix(-.16596 0 0 -.15 579.569 175.9)" d="M182.143 162.005a6.786 6.786 0 1 1-13.572 0 6.786 6.786 0 0 1 13.572 0z" opacity=".698" fill="url(#aE)" filter="url(#aF)"/><path transform="matrix(-.16596 0 0 -.15 579.426 171.292)" d="M182.143 162.005a6.786 6.786 0 1 1-13.572 0 6.786 6.786 0 0 1 13.572 0z" opacity=".698" fill="url(#aG)" filter="url(#aF)"/><path transform="matrix(-.16596 0 0 -.15 580.647 173.435)" d="M182.143 162.005a6.786 6.786 0 1 1-13.572 0 6.786 6.786 0 0 1 13.572 0z" opacity=".698" fill="url(#aH)" filter="url(#aF)"/><path transform="matrix(-.16596 0 0 -.15 580.784 177.935)" d="M182.143 162.005a6.786 6.786 0 1 1-13.572 0 6.786 6.786 0 0 1 13.572 0z" opacity=".698" fill="url(#aI)" filter="url(#aF)"/><path transform="matrix(-.16596 0 0 -.15 583.172 179.328)" d="M182.143 162.005a6.786 6.786 0 1 1-13.572 0 6.786 6.786 0 0 1 13.572 0z" opacity=".698" fill="url(#aJ)" filter="url(#aF)"/><path d="M182.143 162.005a6.786 6.786 0 1 1-13.572 0 6.786 6.786 0 0 1 13.572 0z" transform="matrix(-.16596 0 0 -.15 583.309 174.131)" opacity=".698" fill="url(#aK)" filter="url(#aF)"/><path transform="matrix(-.16596 0 0 -.15 582.082 175.9)" d="M182.143 162.005a6.786 6.786 0 1 1-13.572 0 6.786 6.786 0 0 1 13.572 0z" opacity=".698" fill="url(#aL)" filter="url(#aF)"/><path d="M182.143 162.005a6.786 6.786 0 1 1-13.572 0 6.786 6.786 0 0 1 13.572 0z" transform="matrix(-.16596 0 0 -.15 578.128 173.81)" opacity=".698" fill="url(#aM)" filter="url(#aF)"/><path transform="matrix(-.16596 0 0 -.15 582.532 171.506)" d="M182.143 162.005a6.786 6.786 0 1 1-13.572 0 6.786 6.786 0 0 1 13.572 0z" opacity=".698" fill="url(#aN)" filter="url(#aF)"/><path d="M182.143 162.005a6.786 6.786 0 1 1-13.572 0 6.786 6.786 0 0 1 13.572 0z" transform="matrix(.17028 0 0 -.13773 513.354 173.183)" opacity=".405" fill="url(#aO)" filter="url(#aP)"/><path d="M182.143 162.005a6.786 6.786 0 1 1-13.572 0 6.786 6.786 0 0 1 13.572 0z" transform="matrix(.17028 0 0 -.13773 513.5 168.953)" opacity=".405" fill="url(#aQ)" filter="url(#aP)"/><path d="M182.143 162.005a6.786 6.786 0 1 1-13.572 0 6.786 6.786 0 0 1 13.572 0z" transform="matrix(.17028 0 0 -.13773 512.247 170.92)" opacity=".405" fill="url(#aR)" filter="url(#aP)"/><path d="M182.143 162.005a6.786 6.786 0 1 1-13.572 0 6.786 6.786 0 0 1 13.572 0z" transform="matrix(.17028 0 0 -.13773 512.108 175.052)" opacity=".405" fill="url(#aS)" filter="url(#aP)"/><path d="M182.143 162.005a6.786 6.786 0 1 1-13.572 0 6.786 6.786 0 0 1 13.572 0z" transform="matrix(.17028 0 0 -.13773 509.657 176.33)" opacity=".405" fill="url(#aT)" filter="url(#aP)"/><path transform="matrix(.17028 0 0 -.13773 509.517 171.56)" d="M182.143 162.005a6.786 6.786 0 1 1-13.572 0 6.786 6.786 0 0 1 13.572 0z" opacity=".405" fill="url(#aU)" filter="url(#aP)"/><path d="M182.143 162.005a6.786 6.786 0 1 1-13.572 0 6.786 6.786 0 0 1 13.572 0z" transform="matrix(.17028 0 0 -.13773 510.776 173.183)" opacity=".405" fill="url(#aV)" filter="url(#aP)"/><path transform="matrix(.17028 0 0 -.13773 514.832 171.264)" d="M182.143 162.005a6.786 6.786 0 1 1-13.572 0 6.786 6.786 0 0 1 13.572 0z" opacity=".405" fill="url(#aW)" filter="url(#aP)"/><path d="M182.143 162.005a6.786 6.786 0 1 1-13.572 0 6.786 6.786 0 0 1 13.572 0z" transform="matrix(.17028 0 0 -.13773 510.314 169.15)" opacity=".405" fill="url(#aX)" filter="url(#aP)"/><path d="M561.645 306.365c0 6.973-6.558 12.626-14.647 12.626-8.09 0-14.648-5.653-14.648-12.626 0-6.974 6.558-12.627 14.648-12.627 8.089 0 14.647 5.653 14.647 12.627z" transform="matrix(.24574 0 0 1.03603 412.417 -158.203)" opacity=".623" fill="url(#aY)" filter="url(#aZ)"/><path d="M519.625 369.688a.564.564 0 0 0-.344.406s-1.275 4.004.157 8.125c.715 2.06 2.12 4.143 4.656 5.719 2.535 1.575 6.195 2.643 11.375 2.75a.564.564 0 1 0 0-1.125c-5.037-.104-8.465-1.155-10.782-2.594-2.316-1.44-3.542-3.27-4.187-5.125-1.29-3.71-.156-7.438-.156-7.438a.564.564 0 0 0-.719-.719z" style="text-indent:0;text-align:start;line-height:normal;text-transform:none;block-progression:tb;marker:none;-inkscape-font-specification:Sans" font-weight="400" opacity=".33" color="#000" fill="url(#ba)" stroke="#112b00" stroke-width="1.128" overflow="visible" filter="url(#bb)" enable-background="accumulate" font-family="Sans" transform="translate(5.714 -204.286)"/><path d="M518.25 378.813a.564.564 0 0 0-.438.687s.467 2.178 2.72 4.375c2.251 2.197 6.311 4.462 13.405 4.844a.579.579 0 1 0 .063-1.156c-6.882-.37-10.642-2.505-12.688-4.5-2.045-1.996-2.375-3.782-2.375-3.782a.564.564 0 0 0-.687-.469z" style="text-indent:0;text-align:start;line-height:normal;text-transform:none;block-progression:tb;marker:none;-inkscape-font-specification:Sans" font-weight="400" opacity=".33" color="#000" fill="url(#bc)" stroke="#112b00" stroke-width="1.128" overflow="visible" filter="url(#bd)" enable-background="accumulate" font-family="Sans" transform="translate(5.714 -204.286)"/><path d="M521.75 385.75a.564.564 0 0 0-.313 1.031c3.585 2.733 5.814 3.497 10.22 3.594.477.009.958.04 1.437.031a.578.578 0 1 0 0-1.156c-.464.008-.941.009-1.407 0-4.292-.094-6.067-.711-9.562-3.375a.564.564 0 0 0-.375-.125z" style="text-indent:0;text-align:start;line-height:normal;text-transform:none;block-progression:tb;marker:none;-inkscape-font-specification:Sans" font-weight="400" opacity=".33" color="#000" fill="url(#be)" stroke="#112b00" stroke-width="1.128" overflow="visible" filter="url(#bf)" enable-background="accumulate" font-family="Sans" transform="translate(5.714 -204.286)"/><path d="M562.25 370.188a.564.564 0 0 0-.531.75s1.175 3.895-.094 7.625c-.634 1.864-1.85 3.695-4.156 5.03-2.307 1.336-5.726 2.192-10.781 2a.564.564 0 1 0-.063 1.126c5.201.197 8.861-.683 11.406-2.156 2.545-1.474 3.95-3.55 4.657-5.625 1.412-4.15.125-8.313.125-8.313a.564.564 0 0 0-.563-.438z" style="text-indent:0;text-align:start;line-height:normal;text-transform:none;block-progression:tb;marker:none;-inkscape-font-specification:Sans" font-weight="400" opacity=".33" color="#000" fill="url(#bg)" stroke="#112b00" stroke-width="1.128" overflow="visible" filter="url(#bh)" enable-background="accumulate" font-family="Sans" transform="translate(5.714 -204.286)"/><path d="M563.625 378.406a.564.564 0 0 0-.5.531s-.19 2.153-2.188 4.313c-1.997 2.16-5.804 4.312-13.312 4a.564.564 0 1 0-.063 1.125c7.742.322 11.984-1.927 14.22-4.344 2.235-2.417 2.468-5 2.468-5a.564.564 0 0 0-.625-.625z" style="text-indent:0;text-align:start;line-height:normal;text-transform:none;block-progression:tb;marker:none;-inkscape-font-specification:Sans" font-weight="400" opacity=".33" color="#000" fill="url(#bi)" stroke="#112b00" stroke-width="1.128" overflow="visible" filter="url(#bj)" enable-background="accumulate" font-family="Sans" transform="translate(5.714 -204.286)"/><path d="M559.438 386.406a.564.564 0 0 0-.188.094c-3.654 2.44-5.46 2.955-9.75 2.781-.464-.02-.942-.057-1.406-.093a.564.564 0 1 0-.094 1.125c.476.037.96.073 1.438.093 4.402.178 6.689-.465 10.437-2.969a.564.564 0 0 0-.438-1.03z" style="text-indent:0;text-align:start;line-height:normal;text-transform:none;block-progression:tb;marker:none;-inkscape-font-specification:Sans" font-weight="400" opacity=".33" color="#000" fill="url(#bk)" stroke="#112b00" stroke-width="1.128" overflow="visible" filter="url(#bl)" enable-background="accumulate" font-family="Sans" transform="translate(5.714 -204.286)"/><path d="M536.056 371.647c2.013.674 3.004-3.709 3.825-1.407.481 1.349.465 5.626.66 8.987.183 3.168-.12 6.226-.2 7.63-.245 6.552.662 4.937.662 4.937s-2.277.189-3.69-1.6c-2.945-6.784-2.457-4.32-8.644-11.751-1.027-1.464-.385-5.05-.385-5.05s.074-2.855.379-4.227c2.613-1.278 2.67.681 4.85 1.388 1.153.197 1.403.711 2.543 1.093z" fill="url(#bm)" stroke="#55d400" stroke-width=".39" transform="translate(5.714 -204.286)"/><path d="M545.487 372.091c-.878.663-1.22-.35-2.213-.436-1.308-.148-1.031-2.562-2.331-2.163-.325.704-.191 4.21-.05 5.172.115 5.023-.02 9.25.327 13.96-.169 2.855-.156 3.133-.156 3.133l2.035-.21c.918-.094 2.371-1.152 4.122-5.051 1.502-3.345 4.46-6.005 5.652-8.915.658-1.043.199-2.395.44-3.819.319-1.88.48-1.83.2-3.412-.741-1.57-2.94.725-3.563 1.544-1.439.188-1.422 1.946-2.538.534-.466-.475-1.348-.007-1.925-.337z" fill="url(#bn)" stroke="#55d400" stroke-width=".352" transform="translate(5.714 -204.286)"/><path d="M182.143 162.005a6.786 6.786 0 1 1-13.572 0 6.786 6.786 0 0 1 13.572 0z" transform="matrix(-.16596 0 0 -.06223 563.996 181.72)" opacity=".33" fill="url(#bo)" filter="url(#bp)"/><path d="M182.143 162.005a6.786 6.786 0 1 1-13.572 0 6.786 6.786 0 0 1 13.572 0z" transform="matrix(-.16596 0 0 -.06223 563.854 179.809)" opacity=".33" fill="url(#bq)" filter="url(#bp)"/><path d="M182.143 162.005a6.786 6.786 0 1 1-13.572 0 6.786 6.786 0 0 1 13.572 0z" transform="matrix(-.16596 0 0 -.06223 565.075 180.698)" opacity=".33" fill="url(#br)" filter="url(#bp)"/><path d="M182.143 162.005a6.786 6.786 0 1 1-13.572 0 6.786 6.786 0 0 1 13.572 0z" transform="matrix(-.16596 0 0 -.06223 567.6 183.142)" opacity=".33" fill="url(#bs)" filter="url(#bp)"/><path transform="matrix(-.16596 0 0 -.06223 567.736 180.987)" d="M182.143 162.005a6.786 6.786 0 1 1-13.572 0 6.786 6.786 0 0 1 13.572 0z" opacity=".33" fill="url(#bt)" filter="url(#bp)"/><path d="M182.143 162.005a6.786 6.786 0 1 1-13.572 0 6.786 6.786 0 0 1 13.572 0z" transform="matrix(-.16596 0 0 -.06223 566.509 181.72)" opacity=".33" fill="url(#bu)" filter="url(#bp)"/><path d="M182.143 162.005a6.786 6.786 0 1 1-13.572 0 6.786 6.786 0 0 1 13.572 0z" transform="matrix(-.16596 0 0 -.06223 566.96 179.898)" opacity=".33" fill="url(#bv)" filter="url(#bp)"/><path transform="matrix(-.16596 0 0 -.06223 568.192 185.291)" d="M182.143 162.005a6.786 6.786 0 1 1-13.572 0 6.786 6.786 0 0 1 13.572 0z" opacity=".33" fill="url(#bw)" filter="url(#bx)"/><path transform="matrix(-.16596 0 0 -.06223 570.075 182.126)" d="M182.143 162.005a6.786 6.786 0 1 1-13.572 0 6.786 6.786 0 0 1 13.572 0z" opacity=".33" fill="url(#by)" filter="url(#bx)"/><path transform="matrix(-.16596 0 0 -.06223 568.604 186.85)" d="M182.143 162.005a6.786 6.786 0 1 1-13.572 0 6.786 6.786 0 0 1 13.572 0z" opacity=".33" fill="url(#bz)" filter="url(#bx)"/><path transform="matrix(-.16596 0 0 -.06223 571.796 186.714)" d="M182.143 162.005a6.786 6.786 0 1 1-13.572 0 6.786 6.786 0 0 1 13.572 0z" opacity=".33" fill="url(#bA)" filter="url(#bx)"/><path transform="matrix(-.16596 0 0 -.06223 570.705 185.291)" d="M182.143 162.005a6.786 6.786 0 1 1-13.572 0 6.786 6.786 0 0 1 13.572 0z" opacity=".33" fill="url(#bB)" filter="url(#bx)"/><path d="M182.143 162.005a6.786 6.786 0 1 1-13.572 0 6.786 6.786 0 0 1 13.572 0z" transform="matrix(-.16596 0 0 -.06223 565.591 184.782)" opacity=".33" fill="url(#bC)" filter="url(#bx)"/><path transform="matrix(-.16596 0 0 -.06223 571.156 183.469)" d="M182.143 162.005a6.786 6.786 0 1 1-13.572 0 6.786 6.786 0 0 1 13.572 0z" opacity=".33" fill="url(#bD)" filter="url(#bx)"/><path d="M182.143 162.005a6.786 6.786 0 1 1-13.572 0 6.786 6.786 0 0 1 13.572 0z" transform="matrix(-.16596 0 0 -.06223 581.585 181.541)" opacity=".33" fill="url(#bE)" filter="url(#bF)"/><path d="M182.143 162.005a6.786 6.786 0 1 1-13.572 0 6.786 6.786 0 0 1 13.572 0z" transform="matrix(-.16596 0 0 -.06223 581.443 179.63)" opacity=".33" fill="url(#bG)" filter="url(#bF)"/><path d="M182.143 162.005a6.786 6.786 0 1 1-13.572 0 6.786 6.786 0 0 1 13.572 0z" transform="matrix(-.16596 0 0 -.06223 582.8 182.386)" opacity=".33" fill="url(#bH)" filter="url(#bF)"/><path d="M182.143 162.005a6.786 6.786 0 1 1-13.572 0 6.786 6.786 0 0 1 13.572 0z" transform="matrix(-.16596 0 0 -.06223 585.189 182.964)" opacity=".33" fill="url(#bI)" filter="url(#bF)"/><path transform="matrix(-.16596 0 0 -.06223 585.325 180.808)" d="M182.143 162.005a6.786 6.786 0 1 1-13.572 0 6.786 6.786 0 0 1 13.572 0z" opacity=".33" fill="url(#bJ)" filter="url(#bF)"/><path d="M182.143 162.005a6.786 6.786 0 1 1-13.572 0 6.786 6.786 0 0 1 13.572 0z" transform="matrix(-.16596 0 0 -.06223 584.549 179.719)" opacity=".33" fill="url(#bK)" filter="url(#bF)"/><path transform="matrix(-.16596 0 0 -.06223 579.442 186.006)" d="M182.143 162.005a6.786 6.786 0 1 1-13.572 0 6.786 6.786 0 0 1 13.572 0z" opacity=".33" fill="url(#bL)" filter="url(#bM)"/><path transform="matrix(-.16596 0 0 -.06223 580.729 184.63)" d="M182.143 162.005a6.786 6.786 0 1 1-13.572 0 6.786 6.786 0 0 1 13.572 0z" opacity=".33" fill="url(#bN)" filter="url(#bM)"/><path transform="matrix(-.16596 0 0 -.06223 580.967 182.93)" d="M182.143 162.005a6.786 6.786 0 1 1-13.572 0 6.786 6.786 0 0 1 13.572 0z" opacity=".33" fill="url(#bO)" filter="url(#bM)"/><path transform="matrix(-.16596 0 0 -.06223 583.046 187.428)" d="M182.143 162.005a6.786 6.786 0 1 1-13.572 0 6.786 6.786 0 0 1 13.572 0z" opacity=".33" fill="url(#bP)" filter="url(#bM)"/><path d="M182.143 162.005a6.786 6.786 0 1 1-13.572 0 6.786 6.786 0 0 1 13.572 0z" transform="matrix(-.16596 0 0 -.06223 584.343 185.808)" opacity=".33" fill="url(#bQ)" filter="url(#bM)"/><path transform="matrix(-.16596 0 0 -.06223 580.795 188.149)" d="M182.143 162.005a6.786 6.786 0 1 1-13.572 0 6.786 6.786 0 0 1 13.572 0z" opacity=".33" fill="url(#bR)" filter="url(#bM)"/><path transform="matrix(-.16596 0 0 -.06223 583.299 184.183)" d="M182.143 162.005a6.786 6.786 0 1 1-13.572 0 6.786 6.786 0 0 1 13.572 0z" opacity=".33" fill="url(#bS)" filter="url(#bM)"/><path transform="matrix(.16596 0 0 -.06223 514.423 188.912)" d="M182.143 162.005a6.786 6.786 0 1 1-13.572 0 6.786 6.786 0 0 1 13.572 0z" opacity=".33" fill="url(#bT)" filter="url(#bU)"/><path transform="matrix(.16596 0 0 -.06223 514.286 190.779)" d="M182.143 162.005a6.786 6.786 0 1 1-13.572 0 6.786 6.786 0 0 1 13.572 0z" opacity=".33" fill="url(#bV)" filter="url(#bU)"/><path d="M182.143 162.005a6.786 6.786 0 1 1-13.572 0 6.786 6.786 0 0 1 13.572 0z" transform="matrix(.16596 0 0 -.06223 511.762 189.2)" opacity=".33" fill="url(#bW)" filter="url(#bU)"/><path transform="matrix(.16596 0 0 -.06223 512.988 189.934)" d="M182.143 162.005a6.786 6.786 0 1 1-13.572 0 6.786 6.786 0 0 1 13.572 0z" opacity=".33" fill="url(#bX)" filter="url(#bU)"/><path transform="matrix(.16596 0 0 -.06223 512.538 188.112)" d="M182.143 162.005a6.786 6.786 0 1 1-13.572 0 6.786 6.786 0 0 1 13.572 0z" opacity=".33" fill="url(#bY)" filter="url(#bU)"/><path d="M182.143 162.005a6.786 6.786 0 1 1-13.572 0 6.786 6.786 0 0 1 13.572 0z" transform="matrix(.16596 0 0 -.06223 522.644 191.095)" opacity=".33" fill="url(#bZ)" filter="url(#ca)"/><path d="M182.143 162.005a6.786 6.786 0 1 1-13.572 0 6.786 6.786 0 0 1 13.572 0z" transform="matrix(.16596 0 0 -.06223 522.787 189.184)" opacity=".33" fill="url(#cb)" filter="url(#ca)"/><path d="M182.143 162.005a6.786 6.786 0 1 1-13.572 0 6.786 6.786 0 0 1 13.572 0z" transform="matrix(.16596 0 0 -.06223 521.566 190.073)" opacity=".33" fill="url(#cc)" filter="url(#ca)"/><path d="M182.143 162.005a6.786 6.786 0 1 1-13.572 0 6.786 6.786 0 0 1 13.572 0z" transform="matrix(.16596 0 0 -.06223 521.43 191.94)" opacity=".33" fill="url(#cd)" filter="url(#ca)"/><path d="M182.143 162.005a6.786 6.786 0 1 1-13.572 0 6.786 6.786 0 0 1 13.572 0z" transform="matrix(.16596 0 0 -.06223 519.04 192.517)" opacity=".33" fill="url(#ce)" filter="url(#ca)"/><path d="M182.143 162.005a6.786 6.786 0 1 1-13.572 0 6.786 6.786 0 0 1 13.572 0z" transform="matrix(.16596 0 0 -.06223 519.77 188.201)" opacity=".33" fill="url(#cf)" filter="url(#ca)"/><path transform="matrix(1 0 0 1.12819 187.143 -271.533)" d="M360.357 397.005c0 4.931-.48 8.929-1.071 8.929-.592 0-1.072-3.998-1.072-8.929s.48-8.929 1.072-8.929c.591 0 1.071 3.998 1.071 8.929z" opacity=".805" fill="url(#cg)" stroke="#112b00" stroke-linecap="round" stroke-linejoin="round" filter="url(#ch)"/><path transform="matrix(1 0 0 .51216 152.186 -80.052)" d="M389.919 433.391c0 2.93-.792 5.304-1.768 5.304s-1.768-2.375-1.768-5.304c0-2.929.792-5.303 1.768-5.303s1.768 2.374 1.768 5.303z" opacity=".33" fill="url(#ci)" filter="url(#cj)"/><path d="M389.919 433.391c0 2.93-.792 5.304-1.768 5.304s-1.768-2.375-1.768-5.304c0-2.929.792-5.303 1.768-5.303s1.768 2.374 1.768 5.303z" transform="matrix(1 0 0 .51216 164.435 -79.925)" opacity=".33" fill="url(#ck)" filter="url(#cj)"/><path d="M521.752 349.605c-5.196 1.854-7.978 3.515-10.593 6.25-8.32 9.107-9.55 12.412-11.97 23.687-.998 4.654 2.417 11.237 6.282 14.438 2.635 1.32 4.499-.707 6.438-2.125-3.367-4.791-5.313-10.479-5.313-16.563 0-10.684 6.008-20.097 15.156-25.687zm41.438 1.719c7.689 5.697 12.594 14.319 12.594 23.968 0 6.602-2.309 12.718-6.22 17.75 1.372.599 2.794 1.43 4.345 2.375 3.646 2.225 4.378-2.014 7.062-9.875 1.429-4.184 2.563-6.907 1.375-11.156-2.767-8.302-8.147-13.388-14.812-20.187a84.068 84.068 0 0 0-4.344-2.875zm-29.719 54.25c.785.684 1.329.654 1.813.343-.613-.094-1.212-.22-1.813-.343zm15.438 0c-.827.169-1.652.322-2.5.437.286 1.453 1.176.962 2.5-.437zm-8.22.781c.127.17.242.276.376.469l.031-.469c-.136 0-.27.002-.406 0zm.813 0v.375s.198-.253.282-.375h-.282z" opacity=".433" fill="url(#cl)" transform="translate(5.714 -204.286)"/><g><path d="M532.68 361.49c-2.43 17.635-17.623 36.647-28.357 45.909-10.734 9.262-20.31 10.935-32.377 12.022-12.068 1.087-27.164-.334-39.173-6.262-12.009-5.927-22.065-13.24-30.98-25.975-8.915-12.735-19.928-22.43-19.334-46.733.595-24.304 28.401-49.478 44.562-60.277 16.16-10.8 32.718-10.195 46.425-9.443 13.708.75 24.66.834 34.053 9.963 9.393 9.13 13.1 21.413 17.581 35.21 4.481 13.796 10.03 27.951 7.6 45.586z" fill="#4a0" transform="matrix(-.50114 .73684 -.39276 -.47067 513.583 9.08)" stroke="#112b00"/><path d="M532.68 361.49c-2.43 17.635-17.623 36.647-28.357 45.909-10.734 9.262-20.31 10.935-32.377 12.022-12.068 1.087-27.164-.334-39.173-6.262-12.009-5.927-22.065-13.24-30.98-25.975-8.915-12.735-19.928-22.43-19.334-46.733.595-24.304 28.401-49.478 44.562-60.277 16.16-10.8 32.718-10.195 46.425-9.443 13.708.75 24.66.834 34.053 9.963 9.393 9.13 13.1 21.413 17.581 35.21 4.481 13.796 10.03 27.951 7.6 45.586z" fill="url(#cn)" transform="matrix(-.50114 .73684 -.39276 -.47067 513.583 9.08)"/><path d="M536.058 376.34c-3.77 106.407-37.726 213.494-110.324 308.206-20.483 26.298-44.149 51.686-71.757 74.675-17.76 3.66-3.763 24.905 5.437 8.927 47.684-37.425 82.817-81.828 111.058-127.372 43.652-71.954 68.101-149.01 76.148-226.58-4.418-11.296 15.382-35.071-7.906-37.675l-2.656-.18z" style="text-indent:0;text-align:start;line-height:normal;text-transform:none;block-progression:tb;marker:none;-inkscape-font-specification:Sans" font-weight="400" color="#000" fill="url(#co)" overflow="visible" enable-background="accumulate" font-family="Sans" transform="translate(-345.714 -207.143)"/><path d="M200.955 1.597c11.754 3.163 21.84 17.482 29.275 29.043 6.373 9.91 12.051 21.38 12.24 33.162.227 14.094-9.284 26.628-13.362 40.121-3.17 10.492-2.08 22.94-8.627 31.73-7.473 10.033-19.672 22.542-31.878 19.803-20.41-4.58-24.988-33.858-34.045-52.712-6.16-12.823-13.485-26.254-13.513-40.48-.02-10.467 4.31-20.93 9.827-29.826 6.84-11.027 18.402-22.875 27.71-27.343 9.31-4.468 10.619-6.662 22.373-3.498z" fill="#4a0" stroke="#112b00"/><path d="M553.587 342.18c9.89-1.152 23.252-22.442 23.558-26.369-2.417 12.219-23.747 22.05-22.189 18.283 11.662-11.803 20.644-30.029 23.096-50.695-3.559 19.265-13.232 38.67-25.958 46.379 11.39-18.014 19.435-40.385 23.586-64.137-4.281 22.06-18.077 55.886-26.85 61.954 10.046-26.459 17.079-55.459 20.152-85.43-5.29 28.942-9.829 59.35-22.212 83.91 1.45-32.385 10.33-62.954 12.112-95.274-3.914 32.957-10.577 65.069-14.31 98.078-1.514-35.956-1.639-72.045-4.208-107.898l-3.305 110.15c-4.477-35.642-9.436-71.15-14.641-106.577 3.461 32.664 7.554 65.226 12.883 97.296-2.814 6.073-6.65-24.945-10.068-31.42-4.209-12.24-13.323-50.156-13.64-50.066 4.81 30.617 14.709 59.047 21.154 88.801-12.102-23.963-22.206-50.925-28.851-79.35 2.917 28.466 14.235 52.368 24.885 75.612 3.47 15.729-10.663-11.575-12.874-16.023-5.697-10.489-13.995-35.02-15.744-38.95 7.099 24.579 17.175 47.793 31.11 65.251-12.942-5.708-31.887-35.836-32.442-40.369 1.907 21.077 24.254 37.142 28.31 44.005-7.921-.06-27.689-13.45-24.718-14.9 14.677 15.894 33.063 24.231 51.164 17.738z" opacity=".55" fill="url(#cp)" transform="translate(-345.714 -207.143)"/><path d="M546.669 208.74c11.754 3.163 21.84 17.482 29.275 29.043 6.373 9.91 12.052 21.38 12.241 33.161.226 14.095-9.285 26.629-13.362 40.122-3.171 10.492-2.08 22.94-8.628 31.73-7.472 10.033-19.672 22.542-31.877 19.803-20.41-4.58-24.989-33.858-34.046-52.713-6.16-12.822-13.484-26.254-13.512-40.478-.02-10.468 4.31-20.931 9.827-29.827 6.84-11.027 18.401-22.875 27.71-27.344 9.309-4.468 10.618-6.66 22.372-3.497z" fill="url(#cq)" transform="translate(-345.714 -207.143)"/><path d="M183.218 181.596c3.322 5.988-2.527 22.657-4.462 24.534 5.44-6.653 2.126-22.76.772-20.259-1.555 11.602-7.536 24.509-17.386 34.855 8.677-10.351 15.002-24.155 13.99-34.567-4.915 14.151-13.44 28.34-24.231 40.971 9.854-11.967 22.095-34.327 21.793-41.832-9.871 17.077-22.268 33.587-36.744 48.323 13.058-15.518 27.181-31.257 35.131-48.805-16.385 14.884-28.87 33.102-45.09 48.142 15.707-16.5 29.88-34.158 45.686-50.581-19.43 14.793-38.379 30.414-58.173 44.577 18.79-16.575 37.58-33.15 56.372-49.724-20.441 13.012-41.004 25.7-61.621 38.214 18.479-12.28 37.155-24.167 56.063-35.154 2.064-4.201-15.701 7.156-20.448 8.075-8.079 2.986-31.55 14.415-31.63 14.2 17.942-10.644 36.757-17.512 54.896-26.873-17.35 3.705-35.478 9.822-53 18.494 16.064-10.758 33.072-14.87 49.469-19.069 9.613-4.913-10.291-.883-13.498-.176-7.753 1.4-23.892 7.463-26.643 8.2 15.687-6.748 31.841-11.25 46.512-11.11-8.123-4.698-31.417-2.11-34.01-.447 11.793-8.105 29.072-2.692 34.275-3.426-3.173-4.369-18.027-9.514-17.609-7.235 14.146 1.233 25.806 7.808 29.586 20.673z" opacity=".55" fill="#250"/><path d="M73.985 202.87c12.662 8.956 8.766 11.406 22.574 12.589 13.809 1.182 23.477 6.65 37.08 1.255 13.602-5.394 24.986-39.666 35.003-51.518 10.017-11.853 39.707-12.047 39.707-12.047s-21.877-22.751-38.993-36.627c-8.12-6.583-24.598-29.194-30.307-36.548-6.142-7.911-12.016-10.078-20.045-9.786-15.493.563-26.024 10.84-36.571 18.728-10.547 7.889-14.596 15.035-19.557 28.137-2.48 6.55-7.925 12.116-9.008 21.22-6.21 20.19 1.295 50.601 20.117 64.597z" fill="#4a0" stroke="#112b00"/><path d="M535.254 351.185c-3.686 14.108-17.538 21.362-28.957 28.539-4.947 3.508-9.717 12.76-13.802 13.648 4.265-8.764 11.763-15.464 18.578-22.254 5.903-5.64 11.939-11.2 17.037-17.603-9.025-1.894-16.133 5.35-23.838 8.625-14.237 8.217-29.306 14.859-44.186 21.765-4.913 2.984-9.417 6.607-13.554 10.589 7.35-12.52 22.584-15.414 34.547-21.667 10.228-5.88 20.244-12.158 31.067-16.929 2.39-1.204 9.55-4.366 8.246-4.303-23.138 7.903-47.59 11.888-70.023 21.81-8.96 5.058-17.974 10.028-27.176 14.634 16.038-9.687 31.857-21.34 50.836-24.256 14.292-4.045 28.442-8.651 42.202-14.262-40.143 7.749-80.729 16.037-117.983 33.466 35.718-19.738 76.329-27.291 115.97-34.86-37.748 5.745-77.011 7.134-112.407 22.875-4.527 2.175-3.484 1.45.198-.343 29.7-14.645 63.334-16.143 95.517-20.981 2.726-.451 9.928-1.404 9.868-1.789-35.54 2.62-71.764 1.824-106.423 11.2-7.364 3.92 3.698-.906 6.183-1.547 33.552-11.039 69.361-8.887 103.985-13.433-39.508.42-79.364-1.919-118.49 4.916 32.939-7.956 67.028-4.051 100.525-5.61 2.576-.095 11.254.483 10.57-.554-36.169-2.476-72.363-4.555-108.524-7.144 41.825 1.825 83.615 4.363 125.416 6.653-40.66-5.893-81.666-10.427-121.515-20.783 41.156 8.642 83.055 12.765 124.707 18.186-35.894-8.623-73.238-12.95-107.152-28.341 35.325 14.147 73.245 19.342 110.256 27.17-27.61-9.907-54.884-20.916-81.093-34.118-3.314-2.266-1.62-4.402 1.123-1.535 18.005 10.762 39.48 13.532 57.612 24.029 8.493 2.396 16.13 8.357 25.302 7.888-13.29-10.451-27.109-20.702-37.913-33.78 10.856 7.585 19.451 18.56 31.748 24.184 7.356 4.272 15.894 10.39 15.883 19.832-.332 2.578-2.039 4.902-4.34 6.083z" opacity=".55" fill="url(#cr)" transform="translate(-345.714 -207.143)"/><path d="M419.7 410.013c12.66 8.956 8.765 11.406 22.574 12.589 13.808 1.182 23.477 6.65 37.08 1.255 13.602-5.394 27.128-41.095 37.145-52.947 10.017-11.853 27.029-24.368 27.029-24.368s-22.234-18.466-37.922-33.055c-7.187-6.685-13.14-18.215-18.993-25.048-7.088-8.275-13.41-11.417-21.895-11.108-15.493.563-26.024 10.84-36.57 18.728-10.548 7.888-14.596 15.035-19.557 28.136-2.48 6.551-7.926 12.117-9.008 21.22-6.211 20.19 1.295 50.602 20.117 64.598z" fill="url(#cs)" transform="translate(-345.714 -207.143)"/><path d="M532.68 361.49c-3.882 18.046-17.463 35.886-28.357 45.909-10.894 10.023-20.217 10.611-32.377 12.022-12.16 1.41-27.342-.765-39.173-6.262-11.83-5.496-22.414-13.683-30.98-25.975-8.565-12.293-19.334-46.733-19.334-46.733s28.314-48.312 44.562-60.277c16.248-11.966 32.93-9.88 46.425-9.443 13.496.436 25.226 1.857 34.053 9.963 8.826 8.106 13.332 21.572 17.581 35.21 4.25 13.637 11.482 27.54 7.6 45.586z" fill="#4a0" transform="matrix(.62643 .6457 -.28185 .51054 49.328 -281.195)" stroke="#112b00"/><path d="M545.97 385.025c-3.321 5.987 2.527 22.657 4.463 24.534-5.44-6.654-2.127-22.761-.773-20.26 1.555 11.602 7.536 24.51 17.386 34.855-8.677-10.35-15.002-24.154-13.99-34.566 4.915 14.15 13.44 28.34 24.231 40.97-9.854-11.966-22.095-34.326-21.793-41.831 9.871 17.076 22.268 33.587 36.744 48.322-13.058-15.517-27.181-31.256-35.131-48.805 16.385 14.885 28.87 33.102 45.09 48.143-15.707-16.5-29.88-34.159-45.686-50.581 19.43 14.793 38.379 30.414 58.174 44.577l-56.372-49.724c20.44 13.012 41.003 25.699 61.62 38.214-18.479-12.28-37.155-24.168-56.063-35.155-2.064-4.2 15.701 7.156 20.448 8.075 8.079 2.987 31.55 14.415 31.63 14.2-17.942-10.643-36.757-17.511-54.896-26.872 17.35 3.705 35.478 9.821 53 18.494-16.064-10.759-33.071-14.871-49.469-19.07-9.613-4.912 10.291-.882 13.498-.175 7.753 1.4 23.892 7.462 26.643 8.2-15.687-6.748-31.841-11.25-46.512-11.11 8.123-4.698 31.417-2.11 34.01-.447-11.793-8.106-29.072-2.693-34.275-3.426 3.173-4.369 18.027-9.514 17.609-7.235-14.146 1.232-25.806 7.808-29.586 20.673z" opacity=".55" fill="url(#ct)" transform="translate(-345.714 -207.143)"/><path d="M532.68 361.49c-3.882 18.046-17.463 35.886-28.357 45.909-10.894 10.023-20.217 10.611-32.377 12.022-12.16 1.41-27.342-.765-39.173-6.262-11.83-5.496-22.414-13.683-30.98-25.975-8.565-12.293-19.334-46.733-19.334-46.733s28.314-48.312 44.562-60.277c16.248-11.966 32.93-9.88 46.425-9.443 13.496.436 25.226 1.857 34.053 9.963 8.826 8.106 13.332 21.572 17.581 35.21 4.25 13.637 11.482 27.54 7.6 45.586z" fill="url(#cv)" transform="matrix(.62643 .6457 -.28185 .51054 49.328 -281.195)"/><path d="M335.71 148.385c-3.566 18.622-12.252 30.835-21.133 44.73-6.192 9.685-11.213 22.816-22.114 26.463-12.089 4.044-26.359-2.048-37.243-8.682-7.334-4.471-12.117-26.917-17.174-34.077-3.365-4.765-5.82-9.72-9.208-14.324-9.964-13.545-28.377-26.932-28.377-26.932s10.413-12.32 23.262-26.787c4.15-4.672 6.902-14.13 11.392-24.21 3.988-8.95 8.515-15.14 13.048-17.64 8.628-4.761 16.473-4.995 24.547-3.277 9.736 2.07 16.023 9.526 25.428 15.656 12.931 8.428 26.722 17.682 30.881 30.907 2.456 7.81.296 13.847.296 13.847s7.935 16.285 6.395 24.326z" fill="#4a0" stroke="#112b00"/><path d="M550.384 362.771c4.163 12.46 15.617 18.89 25.502 25.176 4.372 2.23 7.554 6.053 10.884 9.726 1.586 2.08 8.62 8.117 4.132 2.17-9.33-12.765-21.377-22.632-32.853-32.952-1.364-8.257 8.752-1.22 12.104.291 10.914 4.596 21.44 10.347 32.413 14.872 4.85 2.049 9.758 3.942 14.738 5.584 2.747 2.146 7.89 7.439 9.91 6.77-7.876-10.168-20.926-11.417-31.485-16.615-7.22-4.176-14.505-8.25-22.147-11.489-2.841-1.408-9.855-4.192-10.043-4.766 18.115 4.562 36.853 6.016 54.686 11.882 9.799 3.878 18.849 9.645 28.592 13.67-14.346-7.513-28.095-18.49-44.58-19.15a264.022 264.022 0 0 1-37.443-9.669c33.586 2.809 67.685 6.309 99.468 19.256-30.524-15.438-64.608-18.364-97.727-20.925 29.843.819 60.529-2.478 89.432 7.572 2.362.808 7.25 2.897 2.298.406-12.533-5.804-26.362-7.055-39.814-8.057-16.265-.889-32.565-.06-48.83-.977 29.507-1.99 59.24-8.107 88.75-2.844 2.276.89 6.194 2.867 1.56 1.16-12.659-4.963-26.323-5.039-39.616-4.948-17.714.472-35.355 2.634-53.062 3.185 26.377-4.367 52.655-10.38 79.395-11.511 5.146-.206 10.3-.219 15.445.01-25.751-3.31-51.07 4.664-76.517 7.5-5.448.818-10.867 2.05-16.334 2.594 29.857-7.902 59.752-15.639 89.56-23.759-32.895 7.714-65.634 16.187-98.427 24.396 30.827-11.669 62.178-22.244 91.41-38.268-30.033 14.144-61.48 24.189-92.56 35.16 26.277-13.965 54.835-23.944 77.912-44.12-24.267 19.07-52.792 29.814-79.923 42.92 18.14-14.426 36.596-28.444 53.764-44.248 2.294-2.918 1.267-4.856-1.302-1.67-4.426 4.225-8.695 8.774-14.09 11.497-12.949 8.451-24.59 18.982-36.35 29.206-3.594 3.894-10.179.963-4.431-3.343 11.135-10.284 14.869-26.342 23.21-38.867-6.922 9.894-12.84 20.596-19.882 30.373-5.09 6.68-12.338 12.796-13.253 21.983-.272 4.352 1.684 9.03 5.504 10.82z" opacity=".55" fill="url(#cw)" transform="translate(-345.714 -207.143)"/><path d="M510.636 362.786c-1.35 9.5-11.962 26.954-20.062 39.194-6.344 9.586-11.212 22.816-22.113 26.463-12.089 4.044-27.089-.977-37.243-8.682-11.414-8.66-12.358-26.015-20.668-37.686-9.819-13.791-34.09-37.647-34.09-37.647s24.82-27.807 33.104-44.679c2.4-4.886 3.095-8.602 5.852-13.755 2.966-5.543 10.05-11.094 15.417-12.883 18.853-6.285 29.25 5.676 41.874 14.345 12.887 8.849 33.807 22.4 33.738 36.264-.044 8.882-.775 9.204-.775 9.204s4.374 7.81 5.832 15.648c1.068 5.742.484 4.714-.866 14.214z" fill="url(#cy)" transform="translate(-176.072 -208.841)" opacity=".6"/><path d="M681.853 515.214c0 13.807-12.776 25-28.537 25-15.76 0-28.537-11.193-28.537-25 0-13.808 12.777-25.002 28.537-25.002s28.537 11.194 28.537 25.002z" transform="matrix(.77187 0 0 .77187 -308.347 -244.92)" fill="#112b00" stroke="#112b00" stroke-linecap="round" stroke-linejoin="round" filter="url(#ay)"/><path d="M550.536 357.474c0 2.054-1.872 6.846-2.106 11.662-.25 5.138 1.127 10.304.821 12.203-.592 3.68 7.386 4.319 6.328 7.102-1.059 2.782-9.077 1.161-10.477 2.718-1.4 1.556-2.938 2.417-4.553 2.417-1.615 0-3.153-.861-4.553-2.417-1.4-1.557-8.378 2.115-9.436-.668-1.059-2.783 5.494-4.862 4.902-8.542-.313-1.947 2.132-8.377 2.357-13.856.2-4.876-.947-7.582-1.386-10.145-.77-4.499-2.446-3.375-2.483-7.098-.033-3.339.382-3.878 3.357-5.965 4.306-3.019 12.41-2.679 16.716.34 2.976 2.087 2.051 2.371 2.197 6.306.137 3.72-1.684 1.696-1.684 5.943z" fill="url(#cz)" transform="translate(-345.714 -207.143)"/><path d="M527.33 393.1s-1.748 1.542-6.615 2.837c-4.394 1.17-11.693 2.106-16.084 2.11-.175 2.37.204 4.822.589 5.449.385.626 1.236 1.133 2.254 1.343 1.896.385 4.532 2.282 4.532 2.282s7.787 7.516 12.447 10.152c1.997 1.13 4.558 1.074 6.478 2.331 1.855 1.215 2.647 3.728 4.566 4.839.863.499 1.168-.31 2.706.07.83.205 2.341 1.759 2.341 1.759l1.726-1.703s2.783-.893 3.743-1.28c2.71-1.09 4.11-1.412 7.643-3.698 1.856-1.2 3.479-4.453 4.786-4.855 3.173-.975 12.636-9.272 15.892-10.035.825-.196 1.527-.588 1.934-1.078.804-.966.875-3.242-.298-2.953-2.797-1.576-8-2.227-11.086-3.464-4.679-1.874-7.278-4.166-11.27-5.729z" fill="url(#cA)" stroke="#112b00" stroke-width=".304" transform="translate(-345.714 -207.143)"/><path d="M195.452 134.993c-6.204 0-11.24 2.84-11.24 6.343 0 .94-.327 1.835.323 2.637.204-.224 1.106-.459 1.355-.667a9.145 9.145 0 0 1 1.372-.93 12.303 12.303 0 0 1 1.662-.776 15.368 15.368 0 0 1 1.907-.59 17.89 17.89 0 0 1 2.104-.372 19.904 19.904 0 0 1 2.273-.124c.775 0 1.526.04 2.257.124a17.9 17.9 0 0 1 2.104.373c.672.16 1.324.361 1.922.59.598.227 1.154.488 1.662.775.509.287.97.593 1.373.93.345.288 1.593.433 1.851.752.798-.87.315-1.673.315-2.722 0-3.502-5.036-6.343-11.24-6.343z" fill="#250"/><path d="M550.153 347.294s7.286 7.407 7.384 11.082c1.608 7.565 6.336 15.327 1.704 22.512-1.018 3.748-9.748 3.385-9.748 3.385l-7.605-6.505-8.175 6.644s-11.283-.76-11.568-6.256c-2.467-7.128-.523-12.739 1.208-19.76 1.137-2.33 8.1-9.366 6.623-11.382-11.103 3.239-15.078 4.939-18.82 8.852-8.318 9.107-9.542 12.385-11.962 23.661-.999 4.654 2.405 11.24 6.27 14.441 4.037 2.024 6.239-3.845 9.724-3.27 2.754 4.466 14.186 2.781 14.654 9.398 7.324 14.122 5.015-2.206 11.235 6.733l.679-18.414-.252 18.315s3.904-6.078 4.904-.75c.998 5.316 9.577-13.94 19.34-13.872 2.567.019 5.142 1.466 8.174 3.316 3.646 2.225 4.373-2.029 7.058-9.889 1.428-4.184 2.558-6.902 1.37-11.151-2.767-8.302-8.15-13.379-14.816-20.178-14.516-10.299-17.38-6.912-17.38-6.912z" fill="url(#cB)" stroke="url(#cC)" stroke-width=".393" transform="translate(-345.714 -207.143)"/><g transform="matrix(-.16596 0 0 -.15 238.394 177.81)" opacity=".698" fill="url(#cD)" filter="url(#aF)"><path transform="translate(61.786 31.786)" d="M182.143 162.005a6.786 6.786 0 1 1-13.572 0 6.786 6.786 0 0 1 13.572 0z" fill="url(#cE)"/><path transform="translate(62.643 62.5)" d="M182.143 162.005a6.786 6.786 0 1 1-13.572 0 6.786 6.786 0 0 1 13.572 0z" fill="url(#cF)"/><path transform="translate(55.286 48.214)" d="M182.143 162.005a6.786 6.786 0 1 1-13.572 0 6.786 6.786 0 0 1 13.572 0z" fill="url(#cG)"/><path transform="translate(54.464 18.214)" d="M182.143 162.005a6.786 6.786 0 1 1-13.572 0 6.786 6.786 0 0 1 13.572 0z" fill="url(#cH)"/><path transform="translate(40.071 8.929)" d="M182.143 162.005a6.786 6.786 0 1 1-13.572 0 6.786 6.786 0 0 1 13.572 0z" fill="url(#cI)"/><path d="M182.143 162.005a6.786 6.786 0 1 1-13.572 0 6.786 6.786 0 0 1 13.572 0z" transform="translate(39.25 43.571)" fill="url(#cJ)"/><path transform="translate(46.643 31.786)" d="M182.143 162.005a6.786 6.786 0 1 1-13.572 0 6.786 6.786 0 0 1 13.572 0z" fill="url(#cK)"/><path d="M182.143 162.005a6.786 6.786 0 1 1-13.572 0 6.786 6.786 0 0 1 13.572 0z" transform="translate(70.464 45.714)" fill="url(#cL)"/><path transform="translate(43.929 61.071)" d="M182.143 162.005a6.786 6.786 0 1 1-13.572 0 6.786 6.786 0 0 1 13.572 0z" fill="url(#cM)"/></g><g transform="matrix(.17028 0 0 -.13773 151.405 174.703)" opacity=".405" fill="url(#cN)" filter="url(#aP)"><path d="M182.143 162.005a6.786 6.786 0 1 1-13.572 0 6.786 6.786 0 0 1 13.572 0z" transform="translate(61.786 31.786)" fill="url(#cO)"/><path d="M182.143 162.005a6.786 6.786 0 1 1-13.572 0 6.786 6.786 0 0 1 13.572 0z" transform="translate(62.643 62.5)" fill="url(#cP)"/><path d="M182.143 162.005a6.786 6.786 0 1 1-13.572 0 6.786 6.786 0 0 1 13.572 0z" transform="translate(55.286 48.214)" fill="url(#cQ)"/><path d="M182.143 162.005a6.786 6.786 0 1 1-13.572 0 6.786 6.786 0 0 1 13.572 0z" transform="translate(54.464 18.214)" fill="url(#cR)"/><path d="M182.143 162.005a6.786 6.786 0 1 1-13.572 0 6.786 6.786 0 0 1 13.572 0z" transform="translate(40.071 8.929)" fill="url(#cS)"/><path transform="translate(39.25 43.571)" d="M182.143 162.005a6.786 6.786 0 1 1-13.572 0 6.786 6.786 0 0 1 13.572 0z" fill="url(#cT)"/><path d="M182.143 162.005a6.786 6.786 0 1 1-13.572 0 6.786 6.786 0 0 1 13.572 0z" transform="translate(46.643 31.786)" fill="url(#cU)"/><path transform="translate(70.464 45.714)" d="M182.143 162.005a6.786 6.786 0 1 1-13.572 0 6.786 6.786 0 0 1 13.572 0z" fill="url(#cV)"/><path d="M182.143 162.005a6.786 6.786 0 1 1-13.572 0 6.786 6.786 0 0 1 13.572 0z" transform="translate(43.929 61.071)" fill="url(#cW)"/></g><path transform="matrix(.24574 0 0 1.03603 60.989 -161.06)" d="M561.645 306.365c0 6.973-6.558 12.626-14.647 12.626-8.09 0-14.648-5.653-14.648-12.626 0-6.974 6.558-12.627 14.648-12.627 8.089 0 14.647 5.653 14.647 12.627z" opacity=".623" fill="url(#cX)" filter="url(#aZ)"/><path style="text-indent:0;text-align:start;line-height:normal;text-transform:none;block-progression:tb;marker:none;-inkscape-font-specification:Sans" d="M519.625 369.688a.564.564 0 0 0-.344.406s-1.275 4.004.157 8.125c.715 2.06 2.12 4.143 4.656 5.719 2.535 1.575 6.195 2.643 11.375 2.75a.564.564 0 1 0 0-1.125c-5.037-.104-8.465-1.155-10.782-2.594-2.316-1.44-3.542-3.27-4.187-5.125-1.29-3.71-.156-7.438-.156-7.438a.564.564 0 0 0-.719-.719z" font-weight="400" opacity=".33" color="#000" fill="#112b00" stroke="#112b00" stroke-width="1.128" overflow="visible" filter="url(#bb)" enable-background="accumulate" font-family="Sans" transform="translate(-345.714 -207.143)"/><path style="text-indent:0;text-align:start;line-height:normal;text-transform:none;block-progression:tb;marker:none;-inkscape-font-specification:Sans" d="M518.25 378.813a.564.564 0 0 0-.438.687s.467 2.178 2.72 4.375c2.251 2.197 6.311 4.462 13.405 4.844a.579.579 0 1 0 .063-1.156c-6.882-.37-10.642-2.505-12.688-4.5-2.045-1.996-2.375-3.782-2.375-3.782a.564.564 0 0 0-.687-.469z" font-weight="400" opacity=".33" color="#000" fill="#112b00" stroke="#112b00" stroke-width="1.128" overflow="visible" filter="url(#bd)" enable-background="accumulate" font-family="Sans" transform="translate(-345.714 -207.143)"/><path style="text-indent:0;text-align:start;line-height:normal;text-transform:none;block-progression:tb;marker:none;-inkscape-font-specification:Sans" d="M521.75 385.75a.564.564 0 0 0-.313 1.031c3.585 2.733 5.814 3.497 10.22 3.594.477.009.958.04 1.437.031a.578.578 0 1 0 0-1.156c-.464.008-.941.009-1.407 0-4.292-.094-6.067-.711-9.562-3.375a.564.564 0 0 0-.375-.125z" font-weight="400" opacity=".33" color="#000" fill="#112b00" stroke="#112b00" stroke-width="1.128" overflow="visible" filter="url(#bf)" enable-background="accumulate" font-family="Sans" transform="translate(-345.714 -207.143)"/><path style="text-indent:0;text-align:start;line-height:normal;text-transform:none;block-progression:tb;marker:none;-inkscape-font-specification:Sans" d="M562.25 370.188a.564.564 0 0 0-.531.75s1.175 3.895-.094 7.625c-.634 1.864-1.85 3.695-4.156 5.03-2.307 1.336-5.726 2.192-10.781 2a.564.564 0 1 0-.063 1.126c5.201.197 8.861-.683 11.406-2.156 2.545-1.474 3.95-3.55 4.657-5.625 1.412-4.15.125-8.313.125-8.313a.564.564 0 0 0-.563-.438z" font-weight="400" opacity=".33" color="#000" fill="#112b00" stroke="#112b00" stroke-width="1.128" overflow="visible" filter="url(#bh)" enable-background="accumulate" font-family="Sans" transform="translate(-345.714 -207.143)"/><path style="text-indent:0;text-align:start;line-height:normal;text-transform:none;block-progression:tb;marker:none;-inkscape-font-specification:Sans" d="M563.625 378.406a.564.564 0 0 0-.5.531s-.19 2.153-2.188 4.313c-1.997 2.16-5.804 4.312-13.312 4a.564.564 0 1 0-.063 1.125c7.742.322 11.984-1.927 14.22-4.344 2.235-2.417 2.468-5 2.468-5a.564.564 0 0 0-.625-.625z" font-weight="400" opacity=".33" color="#000" fill="#112b00" stroke="#112b00" stroke-width="1.128" overflow="visible" filter="url(#bj)" enable-background="accumulate" font-family="Sans" transform="translate(-345.714 -207.143)"/><path style="text-indent:0;text-align:start;line-height:normal;text-transform:none;block-progression:tb;marker:none;-inkscape-font-specification:Sans" d="M559.438 386.406a.564.564 0 0 0-.188.094c-3.654 2.44-5.46 2.955-9.75 2.781-.464-.02-.942-.057-1.406-.093a.564.564 0 1 0-.094 1.125c.476.037.96.073 1.438.093 4.402.178 6.689-.465 10.437-2.969a.564.564 0 0 0-.438-1.03z" font-weight="400" opacity=".33" color="#000" fill="#112b00" stroke="#112b00" stroke-width="1.128" overflow="visible" filter="url(#bl)" enable-background="accumulate" font-family="Sans" transform="translate(-345.714 -207.143)"/><path d="M536.056 371.647c2.013.674 3.004-3.709 3.825-1.407.481 1.349.465 5.626.66 8.987.183 3.168-.12 6.226-.2 7.63-.245 6.552.662 4.937.662 4.937s-2.277.189-3.69-1.6c-2.945-6.784-2.457-4.32-8.644-11.751-1.027-1.464-.385-5.05-.385-5.05s.074-2.855.379-4.227c2.613-1.278 2.67.681 4.85 1.388 1.153.197 1.403.711 2.543 1.093z" fill="url(#cY)" stroke="#55d400" stroke-width=".39" transform="translate(-345.714 -207.143)"/><path d="M545.487 372.091c-.878.663-1.22-.35-2.213-.436-1.308-.148-1.031-2.562-2.331-2.163-.325.704-.191 4.21-.05 5.172.115 5.023-.02 9.25.327 13.96-.169 2.855-.156 3.133-.156 3.133l2.035-.21c.918-.094 2.371-1.152 4.122-5.051 1.502-3.345 4.46-6.005 5.652-8.915.658-1.043.199-2.395.44-3.819.319-1.88.48-1.83.2-3.412-.741-1.57-2.94.725-3.563 1.544-1.439.188-1.422 1.946-2.538.534-.466-.475-1.348-.007-1.925-.337z" fill="url(#cZ)" stroke="#55d400" stroke-width=".352" transform="translate(-345.714 -207.143)"/><g transform="matrix(-.16596 0 0 -.06223 222.821 180.84)" opacity=".33" fill="#112b00" filter="url(#bp)"><path d="M243.929 193.79a6.786 6.786 0 1 1-13.572 0 6.786 6.786 0 0 1 13.572 0zM244.786 224.505a6.786 6.786 0 1 1-13.572 0 6.786 6.786 0 0 1 13.572 0zM237.429 210.22a6.786 6.786 0 1 1-13.572 0 6.786 6.786 0 0 1 13.572 0zM222.214 170.934a6.786 6.786 0 1 1-13.571 0 6.786 6.786 0 0 1 13.571 0zM221.393 205.576a6.786 6.786 0 1 1-13.572 0 6.786 6.786 0 0 1 13.572 0zM228.786 193.79a6.786 6.786 0 1 1-13.572 0 6.786 6.786 0 0 1 13.572 0zM226.071 223.076a6.786 6.786 0 1 1-13.571 0 6.786 6.786 0 0 1 13.571 0z"/></g><g transform="matrix(-.16596 0 0 -.06223 227.018 184.412)" opacity=".33" fill="#112b00" filter="url(#bx)"><path d="M243.929 193.79a6.786 6.786 0 1 1-13.572 0 6.786 6.786 0 0 1 13.572 0zM232.587 244.653a6.786 6.786 0 1 1-13.572 0 6.786 6.786 0 0 1 13.572 0zM241.45 168.741a6.786 6.786 0 1 1-13.572 0 6.786 6.786 0 0 1 13.571 0zM222.214 170.934a6.786 6.786 0 1 1-13.571 0 6.786 6.786 0 0 1 13.571 0zM228.786 193.79a6.786 6.786 0 1 1-13.572 0 6.786 6.786 0 0 1 13.572 0zM259.601 201.98a6.786 6.786 0 1 1-13.571 0 6.786 6.786 0 0 1 13.571 0zM226.071 223.076a6.786 6.786 0 1 1-13.571 0 6.786 6.786 0 0 1 13.571 0z"/></g><g transform="matrix(-.16596 0 0 -.06223 240.41 180.662)" opacity=".33" fill="#112b00" filter="url(#bF)"><path d="M243.929 193.79a6.786 6.786 0 1 1-13.572 0 6.786 6.786 0 0 1 13.572 0zM244.786 224.505a6.786 6.786 0 1 1-13.572 0 6.786 6.786 0 0 1 13.572 0z"/><path d="M236.607 180.22a6.786 6.786 0 1 1-13.571 0 6.786 6.786 0 0 1 13.571 0zM222.214 170.934a6.786 6.786 0 1 1-13.571 0 6.786 6.786 0 0 1 13.571 0zM221.393 205.576a6.786 6.786 0 1 1-13.572 0 6.786 6.786 0 0 1 13.572 0zM226.071 223.076a6.786 6.786 0 1 1-13.571 0 6.786 6.786 0 0 1 13.571 0z"/></g><g transform="matrix(-.16596 0 0 -.06223 238.268 185.127)" opacity=".33" fill="#112b00" filter="url(#bM)"><path d="M243.929 193.79a6.786 6.786 0 1 1-13.572 0 6.786 6.786 0 0 1 13.572 0zM236.178 215.897a6.786 6.786 0 1 1-13.572 0 6.786 6.786 0 0 1 13.572 0zM234.739 243.219a6.786 6.786 0 1 1-13.572 0 6.786 6.786 0 0 1 13.572 0zM222.214 170.934a6.786 6.786 0 1 1-13.571 0 6.786 6.786 0 0 1 13.571 0zM214.399 196.968a6.786 6.786 0 1 1-13.571 0 6.786 6.786 0 0 1 13.57 0zM235.78 159.357a6.786 6.786 0 1 1-13.572 0 6.786 6.786 0 0 1 13.572 0zM220.691 223.076a6.786 6.786 0 1 1-13.57 0 6.786 6.786 0 0 1 13.57 0z"/></g><g transform="matrix(.16596 0 0 -.06223 153.819 189.055)" opacity=".33" fill="#112b00" filter="url(#bU)"><path d="M237.429 210.22a6.786 6.786 0 1 1-13.572 0 6.786 6.786 0 0 1 13.572 0zM236.607 180.22a6.786 6.786 0 1 1-13.571 0 6.786 6.786 0 0 1 13.571 0zM221.393 205.576a6.786 6.786 0 1 1-13.572 0 6.786 6.786 0 0 1 13.572 0zM228.786 193.79a6.786 6.786 0 1 1-13.572 0 6.786 6.786 0 0 1 13.572 0zM226.071 223.076a6.786 6.786 0 1 1-13.571 0 6.786 6.786 0 0 1 13.571 0z"/></g><g transform="matrix(.16596 0 0 -.06223 160.962 190.216)" opacity=".33" fill="#112b00" filter="url(#ca)"><path d="M243.929 193.79a6.786 6.786 0 1 1-13.572 0 6.786 6.786 0 0 1 13.572 0zM244.786 224.505a6.786 6.786 0 1 1-13.572 0 6.786 6.786 0 0 1 13.572 0zM237.429 210.22a6.786 6.786 0 1 1-13.572 0 6.786 6.786 0 0 1 13.572 0z"/><path d="M236.607 180.22a6.786 6.786 0 1 1-13.571 0 6.786 6.786 0 0 1 13.571 0zM222.214 170.934a6.786 6.786 0 1 1-13.571 0 6.786 6.786 0 0 1 13.571 0zM226.61 240.293a6.786 6.786 0 1 1-13.572 0 6.786 6.786 0 0 1 13.571 0z"/></g><path d="M360.357 397.005c0 4.931-.48 8.929-1.071 8.929-.592 0-1.072-3.998-1.072-8.929s.48-8.929 1.072-8.929c.591 0 1.071 3.998 1.071 8.929z" transform="matrix(1 0 0 1.12819 -164.286 -274.39)" opacity=".805" fill="#112b00" stroke="#112b00" stroke-linecap="round" stroke-linejoin="round" filter="url(#ch)"/><path d="M389.919 433.391c0 2.93-.792 5.304-1.768 5.304s-1.768-2.375-1.768-5.304c0-2.929.792-5.303 1.768-5.303s1.768 2.374 1.768 5.303z" transform="matrix(1 0 0 .51216 -199.242 -82.909)" opacity=".33" fill="#e5ffd5" filter="url(#cj)"/><path transform="matrix(1 0 0 .51216 -186.994 -82.783)" d="M389.919 433.391c0 2.93-.792 5.304-1.768 5.304s-1.768-2.375-1.768-5.304c0-2.929.792-5.303 1.768-5.303s1.768 2.374 1.768 5.303z" opacity=".33" fill="#e5ffd5" filter="url(#cj)"/><path d="M176.038 142.462c-5.197 1.854-7.979 3.515-10.594 6.25-8.318 9.107-9.549 12.412-11.969 23.688-.998 4.653 2.417 11.236 6.282 14.437 2.635 1.321 4.499-.707 6.437-2.125-3.366-4.791-5.312-10.479-5.312-16.562 0-10.685 6.007-20.098 15.156-25.688zm41.437 1.719c7.69 5.697 12.594 14.319 12.594 23.969 0 6.6-2.308 12.718-6.219 17.75 1.372.598 2.793 1.428 4.344 2.375 3.646 2.224 4.379-2.015 7.063-9.875 1.429-4.185 2.563-6.908 1.375-11.157-2.767-8.301-8.147-13.387-14.813-20.187a84.068 84.068 0 0 0-4.344-2.875zm-29.718 54.25c.785.684 1.328.654 1.812.344-.612-.095-1.212-.221-1.812-.344zm15.437 0c-.827.17-1.652.322-2.5.437.287 1.454 1.177.962 2.5-.437zm-8.219.781c.127.17.241.276.375.469l.032-.469c-.136 0-.27.002-.407 0zm.813 0v.375s.197-.253.281-.375h-.281z" opacity=".433" fill="#4a0"/></g></svg>