<svg viewBox="0 0 3052 1794.7" xmlns="http://www.w3.org/2000/svg" xmlns:xlink="http://www.w3.org/1999/xlink"><defs><linearGradient id="a"><stop stop-color="#465c13" offset="0"/><stop stop-color="#b2de2c" offset=".5"/><stop stop-color="#70941e" offset="1"/></linearGradient><linearGradient id="b"><stop stop-color="#ef004b" offset="0"/><stop stop-color="#bf0032" offset=".774"/><stop stop-color="#9e0112" offset="1"/></linearGradient><filter id="i" x="-.109" y="-.068" width="1.219" height="1.135" color-interpolation-filters="sRGB"><feGaussianBlur stdDeviation="1.627"/></filter><radialGradient id="c" cx="-14.741" cy="-1140.1" r="735.87" gradientTransform="matrix(2.1501 -.57611 .31308 1.1684 480.16 162.98)" gradientUnits="userSpaceOnUse" xlink:href="#a"/><radialGradient id="d" cx="224.16" cy="-1014.5" r="698.04" gradientTransform="matrix(3.1209 .04052 -.01307 1.0063 -359.12 -2.715)" gradientUnits="userSpaceOnUse" xlink:href="#a"/><radialGradient id="e" cx="748.82" cy="134.96" r="60.859" gradientTransform="matrix(8.645 2.2032 -1.833 6.5063 -6405.9 -3244)" gradientUnits="userSpaceOnUse" xlink:href="#b"/><radialGradient id="g" cx="667.97" cy="146.75" r="17.857" gradientTransform="matrix(1.1506 -.00106 .00059 1.4004 -102.2 -58.275)" gradientUnits="userSpaceOnUse" xlink:href="#b" spreadMethod="reflect"/><radialGradient id="j" cx="759.83" cy="117.51" r="60.859" gradientTransform="matrix(7.3279 0 0 7.9279 -4823.4 -1705.1)" gradientUnits="userSpaceOnUse" xlink:href="#b"/><filter id="h" x="-.162" y="-.1" width="1.325" height="1.2"><feGaussianBlur stdDeviation="2.414"/></filter><radialGradient id="k" cx="753.12" cy="-724.1" r="439.25" gradientTransform="matrix(.94993 0 0 1.0378 37.709 27.383)" gradientUnits="userSpaceOnUse" xlink:href="#b"/><radialGradient id="f" cx="-204.99" cy="-758.79" r="489.24" gradientTransform="matrix(1.0069 0 0 .83311 1.456 -114.74)" gradientUnits="userSpaceOnUse" xlink:href="#b"/></defs><g color="#000"><path d="M1596.34 783.9c-85.863 23.184-179.35 155.16-251.27 111.04-66.26 41.37-131.44 105.6-197.5 134.32 86.006 117.06-102.01 67.1-164.28 68.413-46.151 6.875-176.5-39.611-103.67 27.382-75.837 29.236-217.03 34.091-254.09 75.155 45.321 26.343 215.37 78.481 97.097 108.03-106.87 41.445 166.38-25.613 45.809 19.018-123.93 44.519-268.08 89.121-340.31 207.78-64.503 112.74 72.817 194.35 169.02 207.97 219.84 45.453 449.79-2.67 650.92-96.036-31.133 99.377 77.658 155.63 164.42 146.83 276.19 1.153 547.56-91.683 786.17-226.4 71.597-45.71 153.88-98.157 184.42-179.79 35.564-39.789 219.72-34.757 116.96-87.967-75.528-47.348 148.79-77.388 28.237-62.048-49.971 19.047-168.53 18.274-165.4-27.985 39.712-6.529 197.59-46.369 76.825-42.113 123.58-49.729 253.56-81.615 376.61-132.77-75.96 28.55-81.098-34.813-12.484-52.497 73.529-38.267 301.19-83.704 234.09-68.304-108.94 20.642-219.86-15.215-328.72 10.34-109.71-3.84-215.78 21.048-319.77 50.244-34.72-19.67-137.62 48.915-131.09-5.063 27.731-30.329 161.28-96.287 115.2-116.83-73.786 2.872-197.43 31.086-158.3-13.33-141.29 81.984-292.58 154.98-456.08 177.21 29.451-50.19 42.621-106.52-31.392-51.152-142.81 42.208 122.46-142.08 42.782-123.68-72.243 40.231-122.35-14.72-174.21-57.773zm541.45 89.668c-22.58 2.597-3.363 9.106 0 0z" fill="gray" opacity=".5"/><path d="M560.28 0c-34.413 78.457-64.235 159.18-84.197 242.59-32.468-33.982-65.761-79.929-64.544-5.519-24.35 45.11 11.77 148.12-43.728 167.88-49.631 14.258 62.364 83.814 74.899 129.71 62.696 75.922-76.548 23.791-120.15 29.025-40.211-4.174-239.99-32.014-188.02-16.6 35.392 29.84 93.046 64.937 32.199 77.38-53.46 30.55-144.53 66.47-166.74 105.14 86.336 51.831 180 93.638 255.52 161.31-23.619 32.241-94.414 92.513-12.563 61.887 61.735-23.099 111.79-2.585 58.865 49.305-15.47 36.744 72.176-24.768 101.79-21.11 65.759-11.912 191.14-29.836 221.46 30.735 12.198 41.58-54.89 130.28 15.694 67.975 8.103 26.555-30.742 107.64-17.901 120.04 47.862-42.819 50.569 75.91 79.359 107.27 21.691 35.211 48.015 128.87 71.553 122.89 22.591-43.23 46.325-124.07 75.068-140.29 20.958 29.023 85.765 102.9 72.267 97.618-2.564-41.545-46.953-154.16 23.741-93.707 31.784 12.577 119.88 82.478 71.661 11.52-59.138-83.553 72.006-8.77 114.2-6.306 94.551 48.018-.906-60.242-16.405-100.37-24.827-35.805-41.305-64.34 12.85-37.808 71.074 32.493-64.01-104.99 19.63-73.747 64.212-1.453 167.28 22.299 208.28 9.79-38.046-72.222-80.581-141.96-123.91-211.11 30.779-9.86 137.51-22.205 53.204-30.718-33.664-10.27-157.8-13.79-74.799-51.356 103.68-62.469 201.27-134.23 298.59-206.02-46.607-14.643-112.64-17.699-58.808-74.794 14.753-47.427 76.059-122.31 57.352-153.62-44.482-11.045-119.51 9.863-87.304-59.073 1.445-58.685 29.49-140.8 12.33-184.91-61.441-14.559-141.15 27.722-183.06 26.085-1.705-33.659 3.225-104.48-20.223-31.895-52.327 122.96-128.01 256.91-266.88 293.84-18.859-42.753-31.39-121.98-54.618-138.45-23.204 35.157-56.22 114.91-79.342 35.231-29.861-66.4 10.149-191.22-21.605-224.44-64.468 106.07-146.28-23.23-216.78-60.94-9.86-7.895-19.554-16.002-28.952-24.444z" fill="#2f410e"/><path d="M-304.42-1936.1c-33.508 75.266-62.579 152.76-82.05 232.91-31.462-32.284-64.028-77.012-62.897-5.299-23.655 43.15 11.32 142.72-42.613 161.18-48.488 13.46 60.633 80.357 72.989 124.53 60.891 73.183-74.962 22.616-117.09 27.867-38.059-4.105-236.69-30.734-183.22-15.937 34.626 28.7 90.598 62.403 31.378 74.291-52.036 29.303-140.8 63.786-162.49 100.94 84.103 49.757 175.22 89.772 249 154.87-23.273 31.177-90.923 68.031-8.634 48.217 65.642-15.806 105.51 8.223 53.755 58.537-14.863 35.252 70.435-23.852 99.195-20.268 64.127-11.303 185.75-28.865 215.81 29.51 11.688 40.38-53.366 125.04 15.294 65.261 7.827 25.418-29.686 102.82-17.444 115.25 46.447-41.267 49.324 72.787 77.335 102.99 21.15 33.83 46.789 123.72 69.728 117.99 22.025-41.535 45.168-119.16 73.153-134.69 20.44 27.887 83.604 98.825 70.424 93.722-2.78-40.33-45.401-148.02 23.135-89.966 30.728 11.842 116.77 79.328 69.834 11.06-57.46-80.48 70.539-8.126 111.29-6.054 51.05 24.473 50.759 8.293 21.672-32.078-14.894-34.222-53.198-127.45-58.954-110.93 34.632 11.597 77.478 30.757 41.613-19.077-60.812-80.922 71.689-24.608 113.51-34.31 39.522-3.885 138.86 35.693 83.39-29.522-32.508-58.09-67.6-114.69-103.35-170.83 29.999-9.467 134-21.321 51.848-29.492-32.6-9.877-153.74-13.136-72.891-49.306 100.95-59.922 196.1-128.84 290.97-197.8-44.92-14.143-109.91-16.565-57.308-71.81 14.377-45.487 74.209-117.68 55.889-147.49-42.81-10.862-116.36 10.038-85.077-56.714 1.41-56.301 28.762-135.45 12.016-177.53-59.001-15.271-138.46 28.43-178.39 25.044-1.645-32.434 3.104-100.26-19.707-30.622-51.112 118.75-125.7 247.17-260.08 282.11-18.375-41.04-30.61-117.16-53.225-132.92-22.642 33.756-54.761 110.35-77.318 33.824-29.14-63.493 10.149-184.71-21.054-215.48-62.962 101.86-142.52-22.346-211.25-58.508-9.606-7.576-19.052-15.36-28.213-23.468z" fill="url(#c)" transform="translate(873.74 1970.9)"/></g><path d="M570.35 92.9c-35.903 37.635 53.16 168.73-43.832 119.61 69.788 23.645 157.77 185.51 16.668 136.8-54.502-27.894-142.54-55.457-36.251-4.234 79.203-.591 192.38 82.707 142.63 145.6-67.509-17.395-172.1-73.251-200.93-48.023 81.905 35.313 310.52 66.677 255.94 177.27-113.31-21.207-134.3-56.96-243.47-67.232 79.06 60.23 190.28 66.165 283.05 101.92 56.059 67.104 41.658 132.21-45.588 77.488-165.01-48.171-330.02-96.342-495.03-144.51 87.52 65.67 202.97 71.029 302.12 111.71 110.35 58.97 334.09 25.137 342.37 180.43-238.21-63.16-478.41-127.64-717.47-191.02 77.64 68.84 207.97 66.39 306.47 108.26 148.01 40.888 297.04 78.248 447.23 110.25 66.162 54.103 67.842 126.36-22.128 79.924-204.29-48.354-408.58-96.71-612.88-145.06 120.78 83.355 275.82 77.619 412.07 120.16 140.73 35.789 296.58 27.374 399.65 134.14-98.637-97.898 73.043-156.23 123.92-222.98 67.921-113.69-238.12 186.14-131.06 102.05-97.882 96.168-150.25-106.11-32.988-128.65 118.03-98.89 225.05-211.65 339.62-315.6 53.482-35.616 89.086-126.28 12.509-39.218-61.887 61.689-141.52 124.27-225.35 209.04-81.99 54.786-163.77 210.93-241.2 202.77-95.808-125.25 109.57-187.35 167.58-277.79 92.091-87.374 184.18-174.75 276.27-262.12-25.338-57.081-83.755 87.486-113.98 77.503-130.5 122.13-257.09 248.46-379.34 378.85-123.21-133.77 103.89-220.49 170-317.45 104.97-101.96 209.94-203.93 314.9-305.89-131.12 45.69-198.5 182.54-304.9 264.46-86.155 61.635-176.18 236.72-254.41 230.27-87.018-117.79 133.76-192.56 131.48-265.15-64.549 32.52-165.32 261.46-201.61 87.538 2.374-42.528 146.93-145.55 79.11-126.23-27.689 58.868-116.63 143.7-119.85 21.843-36.896-104.55-69.43-210.57-101.34-316.72zm56.406 36.356c-65.567 77.763 39.722 27.527 0 0zm566.9 29.973c-16.931 10.681 4.749 13.365 0 0zm-494.95 20.746c-33.918 31.588-85.659 144.66-18.625 50.597 8.015-9.325 51.978-40.622 18.625-50.597zm107.73 26.839c-30.137 45.02-104.48 116.88-116.46 156.73 40.885-50.032 106.14-87.78 116.46-156.73zm621.89 411.64c-27.866 13.451-2.008 11.36 0 0zm-1086.8 356.92c-32.505 40.264 53.573-9.595 0 0zm710.5 142.58l.435.696-.435-.696zm-72.945 153.11c21.29 17.572 24.541-5.115 0 0z" fill="#5c801b"/><path d="M2144.04 226.3c-93.984 52.767-205.03-28.472-299.72 19.326-68.449 11.971-174.46.989-232.46 51.441-29.589 39.849-64.441 54.474-110.31 28.315-33.239 123.27-108.54 229.01-201.39 313.61-29.777 70.661-65.189-5.967-92.76-2.95-20.018 47.819-43.787 72.675-83.081 24.625-55.363-32.747-124.59-98.064-168.86-108.06-8.466 69.422-34.387 122.97-110.19 127.08-40.224 26.949-186.6-1.414-113.17 66.309 45.838 45.465 108.38 74.215 143.7 129.72-5.777 51.056 26.026 132.04-18.865 161.44-26.675 17.68-129.33 45.236-42.128 41.16 79.637 10.56 163.34.625 240.03 27.61 70.685 35.884-73.66 104.92-69.237 143.86 35.478-3.025-44.674 54.895-61.362 78.357-25.909 28.88-110.11 92.109-28.202 50.826-11.598 39.908-46.536 84.52-73.94 136.59-196.74 261.38 9.273 132.59 119.37 16.356-15.596 48.178-53.248 179.82-52.303 161.21 37.575-59.753 71.002-122.03 106.96-182.77 8.608 39.93 33.163 133.16 47.236 46.573 14.315-48.628 27.468-95.183 83.513-66.861 93.393 22.435 80.979-115.59 145.13-159.83 29.131-45.501 65.969-82.96 122-54.336-37.795-48.035-27.868-91.674 40.142-74.517 107.57 2.55 211.66 35.387 310.71 75.737-15.848-45.933-7.953-65.89 48.373-49.301 55.522-4.23 38.599 10.78 63.945-21.144-27.282-42.065-60.891-84.21 8.198-94.542 74.559-36.025 141.89-86.027 201.99-143.17-43.076-26.403-114.46-77.66-124.37-113.66 29.602-27.508 87.641-88.348 14.37-49.751-100.41 39.934-108.81 27.76-203.56-44.703 208.04-108.41 30.932-67.157 43.107-79.758 67.658-83.463 175.07-150 240.5-235.74-62.642 26.509-102.73-15.768-72.891-79.696 31.991-75.026 114.46-102.92 179.52-139.36z" color="#000" fill="#364b10"/><path d="M1215.7-1717c-89.285 49.847-194.77-26.896-284.73 18.257-65.026 11.309-142.94 6.602-198.04 54.263-28.11 37.644-61.219 51.459-104.8 26.748-31.577 116.45-103.11 216.34-191.32 296.25-28.288 66.751-61.929-5.636-88.121-2.786-19.017 45.172-41.598 68.653-78.927 23.261-52.52-30.709-118.58-93.319-160.42-102.08-8.042 65.581-32.667 116.17-104.68 120.05-38.213 25.458-177.27-1.336-107.52 62.64 43.546 42.949 102.96 70.109 136.52 122.54-5.488 48.231 24.725 124.73-17.921 152.51-25.341 16.702-122.86 42.733-40.022 38.883 75.655 9.976 155.17.59 228.03 26.083 67.15 33.898-69.976 99.114-65.775 135.9 33.704-2.858-42.44 51.857-58.294 74.02-24.613 27.283-104.61 87.012-26.792 48.014-11.018 37.7-56.423 108.18-82.457 157.38-24.258 49.208-96.643 173.94-91.284 150.01 82.6-38.489 154.52-96.708 216.9-162.9-14.816 45.512-50.585 169.87-49.688 152.29 35.696-56.447 67.452-115.28 101.61-172.66 8.178 37.721 31.504 125.79 44.874 43.996 13.6-45.937 26.094-89.917 79.337-63.162 88.723 21.194 76.93-109.2 137.87-150.98 27.674-42.983 62.67-78.369 115.9-51.33-35.905-45.377-26.474-86.602 38.134-70.394 102.19 2.41 201.07 33.429 295.17 71.546-15.056-43.391-13.256-71.691 40.254-56.019 52.746-3.996 30.669 10.184 54.747-19.974-25.918-39.737-57.846-79.55 7.788-89.311 70.83-34.032 134.79-81.267 191.89-135.25-40.922-24.942-120.95-52.579-130.36-86.585 28.121-25.986 81.902-71.314 12.294-34.852-95.393 37.724-96.007 10.759-186.02-57.695 211.18-124.46-.76-32.376 53.166-92.808 64.275-78.845 149.22-137.93 211.38-218.92-59.51 25.042-97.59-14.896-69.246-75.286 30.391-70.875 108.73-97.221 170.55-131.65z" color="#000" fill="url(#d)" transform="translate(873.74 1970.9)"/><path d="M1852.23 366.8c-20.349 40.784-84.208 72.013-93.242 4.526 34.772 84.296-127.69 252.14-122.58 87.604 1.01-80.784-55.793-52.204-23.228 9.917 48.745 72-11.06 189.72-86.686 185.36-11.13-67.151-31.21-133.11-46.977-199.62-55.814 85.523 76.012 188.97 7.447 274.75-32.724 39.828-86.066 92.32-85.704 8.433 1.086-50.882-53.292-156.34-45.887-48.5 54.816 72.365 39.27 228.32-55.914 225.82-14.117-48.144-34.75-202.29-78.195-171.28 15.907 97.01 109.01 202.45 25.692 293.98-66.315 85.235-62.761-103.65-92.903-142.32-27.918-49.31-32.381-203.35-93.941-183.06 43.174 134.29 87.778 268.73 138.36 400.72-27.201 42.834-69.985 181.74-94.992 59.984-52.8-151.18-105.6-302.36-158.4-453.53-54.394 76.436 47.838 159.83 55.076 241.91 31.976 103.52 96.841 196.11 113.15 303.9 4.591 34.473-52.121 193.17 3.331 102.78-27.32-92.616 192.55-16.045 71.73-62.36-101.94-26.906 32.65-181.28 105.81-106.97 113.51 17.261-26.83-24.304-66.872-36.126-31.743-101.44 106.81-131.93 181.53-84.154 159.13 40.464 318.26 80.933 477.4 121.38-62.994-77.514-178.26-52.689-262.82-90.345-113.75-26.15-227.88-50.66-342.31-73.675 37.498-110.45 142.57-120.71 235.88-73.179 149.66 36.413 299.31 72.826 448.97 109.24 38.465-59.138-143.4-42.243-189.34-72.307-136.67-29.736-273.85-57.118-411.4-82.427 44.53-118.78 152.7-104.24 250.35-70.043 39.04 17.068 112.97 16.84 35.703-12.76-67.26-8.686-254.57-7.338-136.37-101.55 69.781-55.487 170.37 24.981 197.7-5.947-47.478-20.5-213.98-8.21-107.65-82.77 92.103-94.003 188.4-183.77 285.33-272.75l-19.02-2.398-19.038-2.245zm11.902 40.939c-3.088 47.224 116.88-13.427 0 0zm-104.57 91.577c24.944 44.096 140.82 3.392 39.333 2.382-13.123.247-26.455.776-39.333-2.382zm-104.33 95.574c59.164 20.232 131.17 38.849 191.99 29.994-61.202-23.867-128.47-17.326-191.99-29.994zm-589.02 806.47l-.388.816.388-.816z" fill="#5c801b"/><g color="#000"><path d="M254.5-874.24c17.309-111.99-421.48-345.4-814.07-188.47-126.54 81.957-131.68 107.7-152.18 214.57-10.784 56.216.107 319.58 159.4 444.01 118.23 92.359 490.59 180.44 666.69 76.856 162.63-126.11 68.187-81.298 140.16-546.97z" fill="url(#e)" transform="translate(873.74 1970.9)"/><path d="M1117.99 1074.34c-7.517-14.474-21.84-23.469-36.672-27.42-7.238-1.927-14.675-2.68-22.068-2.593.601-.557 1.047-.742 1.644-1.32 6.54-6.32 13.802-14.246 14.651-26.294.522-7.41-2.998-15.655-8.92-21.87l.236-.058c-.173-.203-.484-.32-.66-.523-.222-.221-.256-.578-.486-.797l-.174.274c-12.609-14.318-30.564-26.525-51.875-31.701-21.67-5.264-48.76-.865-65.766 18.927-.178-.694.124-1.35-.088-2.042-.057-.214-.12-.427-.187-.64-5.591-15.246-18.823-25.875-33.097-30.818-14.274-4.944-29.664-5.247-43.972-2.018-7.076 1.596-14.032 4.276-20.318 7.748-6.479-15.264-20.062-25.753-34.941-31.054-15.103-5.38-31.804-6.078-47.374-3.244-1.458.266-2.753.93-4.198 1.262.513-2.81 2.172-5.136 2.2-8.105a14.03 14.03 0 0 0-.15-2.254c-.028-.181.393-.714-3.959-9.257-.063-.16-.293-.21-.36-.37-.386-.724-.082-1.166-.563-1.924l-.41.33c-12.256-25.623-43.202-30.809-71.415-30-14.51.415-29.096-1.953-40.849 6.966-6.357 4.824-11.078 11.509-14.219 19.082-18.52-16.552-44.41-30.515-70.11-29.82-16.61.45-33.237 4.53-46.955 13.843-13.718 9.312-23.704 24.336-25.944 42.363a13.87 13.87 0 0 0-.049.7c-.03.473.157.87.138 1.34-7.622-11.53-18.255-20.704-31.064-25.59-15.532-5.926-32.772-7.483-49.244-5.304-16.472 2.18-32.656 8.256-44.496 19.654-8.196 7.89-12.18 18.924-13.578 30.842-6.666-10.982-10.177-.985-21.818-5.19-14.119-5.101-29.337-5.735-43.748-2.99-14.412 2.744-28.423 9.001-38.017 20.123-9.409 10.907-19.138 8.23-13.845 23.818l-.236.058c.043.146.08.282.125.427.05.147.074.282.125.428l.236-.058c2.682 8.34 7.71 15.34 13.954 20.86-14.695-4.562-16.105 2.454-30.745 5.845-15.059 3.488-29.496 10.445-39.175 22.24-9.498 11.578-12.691 28.41-6.792 44.529.031.085-.206.186-.174.271.08.22.099.422.187.641l.236-.058c5.534 15.783 18.877 26.937 33.646 31.83.593.197 1.248.054 1.844.234-9.276 3.328-32.225.629-39.135 7.679-10.489 10.7-15.932 26.257-13.347 42.93.013.072.048.138.063.216 3.07 19.953 17.16 35.045 34.025 41.821 16.93 6.802 35.653 6.864 53.068 2.76 13.627-3.211 25.943-9.844 36.136-18.744.265 2.483-.54 4.788.104 7.308l-.237.059c.036.147.089.276.126.43.02.078.042.14.063.216l.237-.058c4.454 18.181 18.186 31.781 34.21 38.108 7.602 3.002 15.433 4.407 23.527 4.985-6.461 2.97-12.543 6.406-17.774 11.248-.756.7-1.092 1.763-1.806 2.507-.383-1.482-.255-2.908-.775-4.393-.32-.773-.708-1.521-1.16-2.236-15.956-28.561-52.357-39.621-84.72-36.455-38.167 5.486-64.779 28.136-64.038 61.359.005.073.058.142.063.215-2.002 18.411 24.918 47.645 31.14 47.58 17.067 8.612 37.047 10.426 55.985 7.541 19.05-2.902 37.514-10.547 50.612-23.909 4.237 17.491 16.314 31.308 31.481 38.322.33.15.74.05 1.073.199-3.772 2.376-7.841 4.176-11.06 7.304-2.342 2.274-3.287 5.697-5.167 8.376-7.14-10.554-17.065-18.98-28.77-22.947-14.954-5.068-31.39-5.308-46.526-2.077-15.137 3.232-29.404 10.102-39.3 21.813-9.713 11.496-13.245 28.188-7.565 44.49l-.236.057c.045.146.077.28.126.431.05.145.073.28.125.431l.237-.058c5.276 15.936 18.316 27.338 33.06 32.433 15.03 5.194 31.496 5.018 46.577 1.377 14.452-3.48 27.844-10.312 37.767-20.979 6.442 12.386 17.142 21.976 29.544 27.34 15.639 6.763 33.09 7.452 49.954 5.13-1.317 4.797-3.1 9.463-3.058 14.732-.002.105-.175.17-.173.274l.236-.058c-.098 22.837 12.986 41.2 30.877 50.158 17.952 8.989 39.308 10.326 59.063 6.785 19.755-3.54 38.672-12.109 51.283-26.824 4.688-5.47 7.684-12.064 9.647-19.103 1.89 1.91 2.767 4.717 4.9 6.357 15.568 11.978 35.827 17.144 56.066 17.378 12.4.143 24.744-2.107 36.617-5.798-2.265 5.131-4.992 9.971-5.773 15.859-.023.232-.04.465-.05.697-1.398 18.006 5.54 34.183 17.268 45.255 11.728 11.073 27.331 17.444 43.633 19.978 10.578 1.644 21.704 1.139 32.595-.455-8.644 11.208-13.149 25.63-9.747 41.36l-.236.057c.027.15.098.282.126.431 3.911 18.92 17.884 33.131 34.236 39.936 16.48 6.86 34.856 7.549 52.197 4.12 10.16-2.007 19.65-6.08 28.465-11.127-.221 8.581 1.833 17.411 7.253 25.718l-.236.058c.094.156.27.217.362.373.088.135.035.29.126.431l.236-.058c7.752 12.608 20.892 20.474 34.476 23.376 13.912 2.973 28.356 1.692 41.353-2.609 12.997-4.3 24.849-11.61 32.695-22.71 7.728-10.933 10.048-26.132 4.24-40.234l.236-.058c-.091-.23-.33-.35-.423-.581-3.862-9.523-11.113-16.518-19.312-21.835 5.725-.232 11.536-.23 17.082-1.452 16.223-3.573 31.681-11.188 42.364-23.484 10.683-12.295 15.383-29.997 9.183-47.637-.197-.49-.422-.97-.673-1.44-7.076-14.914-20.915-24.843-35.875-29.906-8.275-2.8-16.953-4.165-25.657-4.46 10.239-12.611 15.273-29.646 9.544-47.267a14.518 14.518 0 0 0-.798-1.867c-10.979-22.72-34.923-33.923-59.839-36.388 1.48-.23 3.047.094 4.51-.193 17.233-3.371 32.932-11.497 44.919-23.425.496 3.284-.153 6.528 1.089 9.816.057.142.066.282.126.431l.236-.058c5.9 15.716 19.602 26.691 34.53 31.384 5.181 1.628 10.54 1.793 15.887 2.28-4.091 2.917-8.018 5.987-10.96 10.258-7.09 10.297-8.001 24.537-1.96 37.61l-.237.059c.12.298.363.5.486.797.103.213.077.428.187.64l.236-.059c5.16 11.81 15.473 20.355 26.714 24.597 11.738 4.43 24.424 5.305 36.385 2.968 11.96-2.338 23.96-8.134 31.327-18.707 6.896-9.896 7.25-23.317 2.162-36.055l.473-.116c-.119-.463-.476-.771-.61-1.225-.183-.432-.176-.853-.375-1.283l-.236.058c-4.235-12.596-14.175-22.384-25.62-26.929-2.786-1.107-5.768-1.121-8.635-1.772 7.44-3.927 14.249-8.952 19.616-15.367 9.696-11.588 13.792-28.412 7.801-44.547-.04-.144-.081-.288-.125-.431-6.432-15.613-20.59-26.043-35.651-30.878-11.934-3.832-24.513-4.025-36.733-2.424 15.752-4.285 30.698-11.197 41.243-22.979 12.293-13.735 17.348-34.128 9.565-54.148-.32-.772-.708-1.52-1.16-2.236-.96-1.551-2.603-2.465-3.677-3.908 5.508 4.12 11.574 7.696 18.01 9.55 14.36 4.137 29.542 3.394 43.522-.393 13.98-3.781 27.103-10.856 36.272-21.756s13.244-26.653 7.84-41.806c-.02-.072-.042-.143-.063-.215-5.97-15.584-19.867-26.158-34.642-30.898-14.775-4.74-30.615-4.68-45.205-1.026-7.824 1.924-15.158 5.096-21.9 9.282.315-5.464-.028-11.108-1.604-16.794 11.261 1.162 22.586.509 33.217-2.67 14.45-4.321 27.867-12.061 36.595-24.127 8.728-12.066 11.196-29.038 3.939-44.742-.057-.215-.12-.428-.187-.64zm44.979 211.47l-.237.058c-4.24-14.16-14.464-25.36-26.979-30.72-12.979-5.558-27.24-5.698-40.359-2.677-13.118 3.018-25.56 9.358-34.766 19.094-8.941 9.458-14.218 22.692-12.839 36.848l-.236.058c.007.162.119.269.126.43.03.247-.08.453-.05.699l.237-.058c1.291 17.543 10.997 32.248 24.729 39.524 14.039 7.438 30.26 8.2 45.082 4.953 14.82-3.251 28.833-10.59 38.34-22.494 9.205-11.528 12.646-28.015 7.153-44.16l.237-.058c-.063-.238-.357-.344-.424-.581-.11-.309.103-.607-.013-.914zm-161.49-216.04c-.388.505-1.038.74-1.407 1.263-7.284 10.324-8.23 24.126-4.217 37.706-7.79-1.851-15.643-2.872-23.675-2.885 9.456-10.201 14.723-24.421 12.863-39.375 5.409 1.537 10.696 3.033 16.437 3.291zm33.603 162.93c-9.047-8.718-19.962-14.968-32.331-18.633 7.51-2.86 14.245-6.697 20.503-11.46.02 6.133.362 12.313 3.112 18.486l-.236.058c.064.163.293.204.362.373 1.895 4.511 5.496 7.607 8.59 11.18zm-96.115-211.96c.186.888.047 1.804.276 2.682-.913-.237-1.82-.488-2.742-.7.734-.762 1.773-1.182 2.466-1.982zm42.163 306.13c-9.579 2.93-18.071 7.901-25.51 14.297-.549-4.86-1.783-9.735-3.77-14.657 9.724 1.566 19.482 1.638 29.28.36zm-45.275-110.79c-8.858 3.424-17.159 7.93-23.903 14.589-11.728 11.581-17.759 28.634-14.89 47.207.013.071.048.137.063.216.744 4.887 2.15 9.623 4.057 13.898-7.78-1.632-15.52-2.346-23.488-2.244 9.352-14.297 11.884-33.12 2.95-51.604a15.052 15.052 0 0 0-1.396-2.177c-8.863-12.332-21.548-20.648-35.935-25.767 2.815-.365 5.66-.11 8.422-.697 17.044-3.626 33.341-11.34 44.793-23.852 1.63-1.781 2.1-4.357 3.473-6.355 5.122 16.782 17.7 29.534 32.813 35.93.98.415 2.047.485 3.041.857zm-25.388-86.115c-1.412 1.632-2.29 3.636-3.486 5.441-.04-.144-.081-.288-.126-.431-.865-1.91-2.62-3.063-3.69-4.822 2.437.156 4.857-.152 7.301-.192zm-51.993-90.342c-10.974 10.79-16.603 26.819-13.571 43.903.046.242-.096.456-.05.698l.237-.058c.912 5.731 4.094 10.258 6.686 15.086-7.404-1.089-14.837-1.252-22.279-.708 11.69-12.303 18.143-30.03 13.207-48.627a14.464 14.464 0 0 0-.923-2.294c-5.985-13.334-16.953-22.373-29.682-28.68 5.659-2.138 10.662-4.902 15.621-8.197l.237-.058c5.456 14.112 17.28 24.056 30.517 28.933zm4.554 367.63c-16.074 2.604-31.517 8.91-42.764 20.374-11.262 11.479-16.734 28.385-12.884 46.255l-.236.058c.04.221.146.419.186.64 3.742 19.05 17.661 33.354 34.062 40.208 11.235 4.695 23.392 5.642 35.526 5.241-7.326 10.81-11.294 24.197-7.53 38.522.038.147.084.278.126.431 3.485 14.305 13.69 24.28 25.385 31.342-7.14.473-14.292 1.623-20.968 3.782-3.333 1.081-6.156 3.1-9.318 4.585 1.145-7.257 1.128-14.87-1.27-22.606a14.519 14.519 0 0 0-.798-1.867c-14.043-29.783-50.544-39.72-82.341-36.124 2.167-2.374 4.762-4.184 6.613-6.897 5.72-8.228 14.59-19.948 12.964-36.421-.476-4.82-3.324-9.828-6.674-14.171l.647-.39c-.389-.575-1.042-.916-1.446-1.479-.082-.114-.044-.317-.126-.43l-.236.057c-10.096-13.817-24.848-23.38-41.507-29.209 4.718-.144 9.48.435 14.129-.267 20.277-3.06 39.847-11.188 53.739-25.366 6.873-7.015 11.83-15.836 14.365-25.535 1.349.767 2.612 1.793 4.013 2.451 8.323 3.91 17.213 5.816 26.344 6.812zm-87.531-285.11c-8.83 10.414-12.55 24.634-10.246 39.648-18.08-21.318-47.705-32.069-76.695-31.554-.896.02-1.777.362-2.667.425 3.906-10.483 5.542-22.035 1.004-33.936a14.562 14.562 0 0 0-.736-1.653c-7.295-13.708-19.877-22.564-34.005-27.846 5.66-.154 11.435.066 16.97-.965 11.07-2.06 21.21-6.569 30.707-12.137-1.457 5.922-2.992 11.884-2.233 18.425 2.286 19.769 15.173 35.346 31.372 43.162 14.375 6.935 30.687 8.044 46.53 6.43zm22.372 82.732c-1.18.096-2.395-.175-3.564-.04-8.047.925-15.954 2.854-23.434 5.764 3.571-5.988 6.13-12.822 6.656-20.659 5.69 6.542 12.555 11.484 20.342 14.935zm-57.516-190.97c-3.966 1.259-7.585 2.981-11.274 4.835a49.914 49.914 0 0 0 1.327-11.098c2.787 2.842 6.649 4.089 9.947 6.263zm-23.888-51.419c-.797 4.506.291 9.431.855 14.228-4.805-5.376-10.431-9.761-16.815-13.282 5.352.282 10.629-.23 15.96-.947zm94.473 360.18c-2.829 5.04-4.24 10.527-5.35 16.442-19.033-11.639-43.144-16.304-65.695-13.863-3.103.338-6 1.401-9.058 1.997 6.087-9.219 10.47-19.217 10.487-30.998 5.505 7.988 12.733 14.522 21.229 18.842 14.735 7.492 31.818 8.859 48.386 7.578zm-148.42-370.29c-7.024-.446-14.161-.528-20.957.342 2.196-2.905 4.776-6.458 7.097-10.455 2.146 2.009 3.762 4.599 6.146 6.28 2.355 1.663 5.183 2.445 7.714 3.833zm73.479 290.86c-2.72 6.555-4.84 13.483-4.749 21.107.005.073.058.142.063.216.001 1.017.287 1.896.338 2.895-5.011-6.313-10.742-11.949-17.452-16.333 7.572-1.639 14.945-4.332 21.801-7.884zm-118.13-181.33c-5.11.106-10.342-.062-15.25.772-15.47 2.63-30.483 9.026-41.282 20.238-5.799 6.022-9.514 13.718-11.564 22.095-6.467-11.224-16.397-18.867-27.724-24.578 17.188-3.542 33.5-11.114 45.092-23.697 11.592-12.583 17.288-30.974 11.412-49.56a14.52 14.52 0 0 0-.798-1.866c-3.475-7.392-8.763-13.464-14.812-18.587 8.63.4 17.249-.308 25.803-1.993-5.665 10.03-9.062 21.454-6.76 34.207.046.244-.097.455-.05.7l.237-.059c3.078 19.597 16.679 34.531 33.252 41.782.773.34 1.66.233 2.442.546zm92.864 380.75c-.872.006-1.749-.3-2.617-.273-5.67.178-11.212 1.416-16.77 2.52 1.802-3.282 3.4-6.683 4.605-10.3 2.821 2.132 5.508 4.501 8.638 6.126 1.916.995 4.157 1.096 6.144 1.927zm-30.857-82.249c-3.523 6.282-5.24 13.244-6.12 20.756-11.702-8.828-25.496-15.145-40.404-18.479 9.143 1.51 18.506 2.122 27.81 1.41 6.34-.486 12.54-2.222 18.714-3.687zm-59.745-189.05c-1.769 4.253-4.119 8.12-4.865 12.884-.04.163-.077.326-.11.49-2.11 16.734 3.117 32.071 13.142 43.29 2.996 3.353 6.953 5.752 10.57 8.4-12.485 1.762-24.313 6.182-34.918 12.487 6.754-12.61 10.088-27.297 4.264-42.76a14.518 14.518 0 0 0-.798-1.867c-14.59-26.982-47.09-36.345-77.332-34.606 3.487-2.59 7.514-4.428 10.462-7.615 6.051-6.544 10.219-14.813 12.373-23.67 5.949 13.24 16.838 23.484 29.682 28.68 11.914 4.82 24.813 5.248 37.532 4.29zm99.34 448.14l-.235.058c-5.318-15.45-18.324-26.517-32.686-31.15-14.581-4.703-30.21-4.004-44.42-.074-14.21 3.928-27.555 11.354-36.072 23.311-8.359 11.735-10.145 28.204-2.831 43.324.037.073.025.143.063.216.103.213.076.428.187.64l.236-.059c6.318 13.691 18.945 23.116 32.51 27.068 13.856 4.037 28.533 3.384 42.04-.257 13.506-3.643 26.221-10.427 34.852-21.407 8.498-10.811 11.555-26.239 6.308-40.971-.03-.082.206-.185.174-.274-.05-.144-.074-.28-.126-.43zm-90.643-257.53c-7.725-1.428-15.527-2.535-23.314-2.516-15.734.04-31.463 3.724-45.211 11.121 2.541-2.093 5.722-3.399 7.934-5.847 8.139-9.01 12.834-20.882 13.003-33.68a62.365 62.365 0 0 0 21.679 21.252c8.012 4.693 16.732 7.72 25.909 9.67zm-117.33-393.29c-6.7-.248-13.252-.276-19.823.75 2.957-5.422 5.89-10.714 6.707-17.004 2.82 5.136 5.791 10.298 10 14.27.905.854 2.165 1.186 3.116 1.984zm66.348 307.28c-3.553 7.792-5.583 16.544-5.394 25.849.005.073.058.142.063.216.027 1.084.316 2.046.4 3.11-5.881-8.387-13.443-14.743-22.426-19.464.323-.08.683.048 1.01-.018 9.254-2 18.174-5.277 26.348-9.69zm67.124 265.61c-1.103-5.311-3.284-11.277-7.722-16.893-19.852-25.151-55.194-35.725-88.059-33.114-16.433 1.305-32.64 6.166-45.857 15.864-12.928 9.487-22.023 24.046-24.474 41.314-6.889-11.986-17.91-20.91-30.452-24.365-14.543-4.008-29.787-2.905-43.447 1.52-13.66 4.425-26.374 12.436-33.915 24.614-7.468 12.063-7.83 28.507.845 42.878.08.137.036.29.126.432l.236-.059c7.375 12.62 20.285 20.668 33.592 23.823 13.47 3.194 27.365 2.163 40.058-1.831 12.692-3.995 24.443-11.06 32.172-21.894 2.809-3.938 3.879-8.854 5.152-13.643 4.054 8.787 10.24 16.249 17.829 21.97 15.29 11.528 34.969 16.713 54.695 17.027s39.846-4.246 56.747-14.19c16.902-9.944 30.578-26.345 33.48-46.968.056-.465.09-.933.099-1.4.166-4.652 0-9.761-1.105-15.084zm-182.67-470.27c-15.645 2.256-30.772 7.659-42.442 18.002-12.043 10.678-19.484 26.929-17.894 44.738.005.073.058.142.063.216.104 1.227.582 2.282.762 3.479a71.236 71.236 0 0 0-21.188-11.747c-15.487-5.397-32.47-6.387-48.508-3.653-13.16 2.244-25.387 7.973-35.639 16.101a50.554 50.554 0 0 0-4.905-15.066c-.389-.683-.835-1.34-1.333-1.963-10.214-14.132-25.872-22.085-42.826-25.906 11.11-4.173 21.668-9.98 29.246-18.882 4.109-4.828 6.64-10.764 8.488-16.985-.26 4.275-1.502 8.284-.591 12.75.034.171-.149.314-.112.485l.237-.058c3.325 18.682 16.307 32.913 32.155 39.76 15.98 6.905 33.898 7.574 50.714 4.256 16.816-3.319 32.868-10.77 44.27-23.037 11.402-12.267 17.044-30.424 11.188-48.59-.198-.489-.422-.969-.673-1.438-6.856-15.033-20.634-25.203-35.59-30.665-14.954-5.462-31.312-6.804-46.975-4.487-15.664 2.317-30.896 8.247-42.067 19.286-5.357 5.293-9.203 12.028-11.602 19.355.028-4.999.706-10.005-1.105-15.083a13.96 13.96 0 0 0-.125-.428c-3.236-8.347-8.712-14.868-15.31-20.298 13.027 3.823 26.778 4.189 39.684 1.24 14.218-3.25 27.662-10.013 37.356-20.649 4.523-4.962 7.814-11.149 9.785-17.762 6.053 11.585 15.993 20.685 27.562 25.764 16.546 7.263 35.257 8.104 52.92 4.859.805-.146 1.503-.63 2.304-.796-4.622 9.918-6.99 20.818-4.107 32.866.005.021-.241.037-.236.058.029.155.096.274.125.428 3.238 15.428 13.914 26.295 26.37 33.85zm84.317 309.74c-9.146 8.483-16.318 18.931-19.321 32.025-18.101-15.079-42.94-21.204-67.082-19.48 1.161-3.616 2.592-6.922 2.935-10.806.754.388 1.213 1.222 1.982 1.575 17.098 7.85 36.704 8.701 55.063 5.248 9.179-1.728 18.2-4.476 26.423-8.562zm-67.41-193.58c-2.088 1.662-4.657 2.663-6.527 4.584-11.525 11.844-17.46 29.27-13.519 47.558.015.071.046.138.063.216 3.615 16.981 15.484 28.83 29.263 36.805-13.208 2.288-25.462 7.365-35.827 15.459 2.07-9.364 1.793-19.561-2.084-29.739a14.804 14.804 0 0 0-1.097-2.022c-13.275-23.362-40.116-33.952-67.065-35.069 9.949-4.24 19.255-9.545 26.356-17.484 9.198-10.284 12.648-24.727 10.782-39.55 4.71 4.67 9.172 9.713 15.083 12.561 13.777 6.64 29.303 7.752 44.573 6.683zm-45.147 133.03c-1.038 4.118-1.329 8.488-1.302 12.925-3.102-1.671-6.006-3.76-9.335-5.037 3.809-2.26 7.314-5.02 10.637-7.888zm-43.767 150.8c-4.96-15.001-17.303-25.847-31.016-30.644-13.713-4.797-28.485-4.676-41.941-1.142-13.455 3.533-26.101 10.506-34.553 21.562-8.451 11.056-11.465 26.832-5.585 41.71.153.27.315.536.486.797 6.295 13.219 18.652 22.144 31.724 26.115s26.969 3.792 39.735.54c12.766-3.253 24.65-9.472 33.096-19.602 8.446-10.128 12.346-24.688 8.178-38.91-.04-.144-.082-.288-.126-.43z" fill="maroon"/><path d="M230.37-884.14c-21.339-41.391-112.21-20.057-89.622 28.461 18.285 44.731 111.26 18.642 89.622-28.461zm29.541 111.64c-17.182-45.027-111.16-23.69-89.262 24.478 17.06 42.226 104.66 18.823 89.262-24.478zm15.682 101.53c-11.731-44.668-87.573-25.218-82.189 16.552 3.09 56.588 101.25 34.04 82.189-16.552zm-94.722-291.5c-20.713-24.638-66.934-45.183-92.594-13.881-26.201 39.206 31.802 84.265 71.282 56.469 12.594-10.303 37.504-27.076 21.312-42.588zm-25.565 145.36c-24.394-43.356-122.54-34.598-112.26 23.033 11.036 62.283 134.08 37.67 112.26-23.033zm4.109 106.21c-26.703-43.544-126.6-36.681-116.95 23.498 9.764 64.948 141.52 39.973 116.95-23.498zM94.764-903.72c-19.375-43.705-115.86-35.455-105.31 19.032 8.536 58.019 122.56 36.512 105.31-19.032zm86.779 305.14c-18.627-45.432-114.39-25.298-94.957 24.961 16.813 46.517 112.6 22.73 94.957-24.961zM58.593-984.17c-15.987-43.741-106.73-25.574-87.456 21.975 16.086 43.222 101.02 22.414 87.456-21.975zm131 476.63c-9.927-38.433-85.063-22.597-65.02 17.139 12.785 33.285 84.165 23.921 65.02-17.139zM18.983-824.36c-20.804-46.191-124.92-34.512-108.94 23.131 12.782 57.457 126.96 33.118 108.94-23.131zm-57.408-184.52c-18.291-45.233-117.52-31.424-100.28 22.376 13.709 51.524 116.49 28.858 100.28-22.376zm101.77 374.76c-28.603-37.26-117.12-32.075-114.11 22.799 3.885 71.997 148.49 44.685 114.11-22.799zm53.992 207.58c-20.335-43.144-115.81-29.982-101.46 22.666 12.823 54.629 120.35 31.238 101.46-22.666zm-163.86-486.65c-19.765-44.282-118.18-39.453-111.46 17.107 7.28 61.52 127.24 42.278 111.46-17.107zM64.187-511.3c-21.933-45.686-123.94-35.101-110.73 22.198 11.045 59.808 129.64 36.073 110.73-22.198zM-6.676-719.31c-27.325-38.42-117.6-34.508-116.53 19.728.073 74.645 149.25 48.442 116.53-19.728zm-119.72-350.19c-15.815-26.379-102.28-37.276-98.814 8.269 3.78 47.144 100.6 59.149 100.89 4.051-.688-4.065.226-8.655-2.074-12.32zm195.33 739.64c-17.524-45.551-113.21-16.74-82.308 29.182 21.19 36.709 100.02 12.165 82.308-29.182zM-161.366-972c-20.777-45.692-124.13-37.675-112.71 20.623 9.017 61.737 132.44 38.812 112.71-20.623zm46.718 184.4c-25.122-42.032-117.02-47.5-125.42 8.397-6.326 52.723 76.476 69.05 110.74 33.474 10.97-10.254 24.415-29.348 14.67-41.87zm58.822 196.31c-24.983-47.178-129.44-41.206-126.28 18.462 3.401 74.517 149.22 52.366 126.28-18.462zm32.452 212.88c-21.371-45.615-123.57-35.37-110.56 21.925 11.738 58.935 128.47 35.925 110.56-21.925zm-216.15-678.84c-24.91-43.226-119.18-47.692-125.99 9.912-3.382 57.17 88.643 66.415 118.45 24.246 6.718-9.246 16.75-25.209 7.535-34.158zm37.688 192.58c-22.153-41.947-116.86-31.198-104.79 22.568 11.017 57.636 126.13 33.613 104.79-22.568zm50.092 179.44c-30.583-43.892-132.01-38.188-130.32 22.892 1.798 71.554 141.56 59.813 134.91-8.9-.819-4.637-1.02-10.325-4.592-13.992zm60.187 213.16c-27.505-41.13-119.04-46.17-126.32 11.37-4.132 57.197 90.237 67.827 119.64 23.954 6.685-9.788 15.403-25.916 6.687-35.324zm-100.35-79.562c-26.786-45.696-125.39-53.395-136.12 7.364-6.96 74.217 127.5 72.245 138.57 6.238.111-4.809 4.571-10.467-2.448-13.602zm-119.07-405.34c-21.346-45.695-123.69-34.827-109.36 22.548 11.795 58.429 127.42 34.663 109.36-22.548zm30.827 202.97c-24.782-46.192-128.71-32.623-115.91 25.306 13.422 63.946 139.29 36.972 115.91-25.306zm113.22 420.06c-14.873-45.766-107.45-21.53-84.154 24.595 17.186 39.758 100.53 19.273 84.154-24.595zm-170.63-520.27c-23.942-43.148-121.39-36.212-115.99 19.825 5.783 68.543 139.37 44.519 115.99-19.825zm-55.326-179.99c-19.998-45.959-123.3-37.823-111.83 20.176 9.124 60.712 129.87 38.148 111.83-20.176zm83.065 387.16c-23.353-43.127-120.5-33.977-112.83 21.109 7.194 65.637 136.44 41.223 112.83-21.109zm62.607 220.58c-30.703-39.338-121.45-39.819-128.14 17.316-6.476 70.281 125.13 70.091 133.81 5.577.239-7.713-.728-16.571-5.667-22.892zm-99.374-103.17c-27.784-37.496-115.51-33.862-114.56 20.389-.279 73.753 148.67 47.407 114.56-20.389zm-118.9-389.11c-19.697-43.45-116.87-33.79-105.24 20.159 9.913 58.168 123.06 35.216 105.24-20.159zm27.758 221.14c-24.22-42.977-121.34-36.151-114.2 20.759 6.999 66.464 138.01 42.005 114.2-20.759zm-32.13-105.74c-20.616-45.167-121.82-32.907-106.68 23.035 13.07 56.659 125.39 32.917 106.68-23.035zm-62.492-212.36c-14.566-35.647-103.04-11.216-89.564 19.969 13.514 45.373 102.64 24.488 89.564-19.969zm104.61 415.77c-26.15-42.879-124.84-35.155-115.94 23.478 10.225 64.678 140.75 40.879 115.94-23.478zm23.524 198.81c-17.142-44.038-105.88-16.232-79.368 27.084 20.275 35.97 95.78 13.919 79.368-27.084zm-199.34-530.85c-17.777-46.036-104.17-20.754-84.868 29.099 15.573 47.686 101.88 18.755 84.868-29.099zm7.741 94.322c-26.083-36.468-112.52-28.303-104.05 24.221 9.449 62.32 133 32.882 104.05-24.221zm98.474 351.29c-14.334-43.443-97.65-22.072-80.455 21.624 17.545 37.082 92.408 19.168 80.455-21.624zm-74.287-231.92c-23.558-42.514-119.2-39.535-116.5 17.202 2.479 68.536 139.12 47.629 116.5-17.202zm10.88 118.98c-17.392-45.219-114.44-27.482-95.693 23.308 14.865 48.296 111.78 25.125 95.693-23.308z" fill="url(#f)" transform="translate(873.74 1970.9)"/><path d="M1093.91 1083.36c-17.38-24.907-79.125-13.63-58.149 21.379 15.731 26.143 74.433 4.313 58.149-21.379zm27.753 111.33c-20.214-30.524-85.758-1.954-48.217 27.19 18.275 15.166 68.039-9.258 48.217-27.19zm18.158 104.96c-12.917-31.025-60.409-7.614-48.787 20.963 8.585 27.469 64.84 9.584 48.787-20.963zm-104.02-300.82c-13.952-23.584-66.066-26.276-59.585 8.761 4.327 34.737 52.611 34.498 66.7 6.529 14.324-6.195-4.576-10.206-7.114-15.29zm-16.161 153.26c-21.237-29.139-93.361-27.562-81.417 18.612 14.089 41.69 96.605 18.305 81.417-18.612zm4.845 108.95c-22.183-26.938-89.89-30.83-87.174 13.425 6.078 52.095 106.13 28.571 87.174-13.425zm-67.43-201.1c-19.106-26.534-85.332-23.808-73.372 17.105 12.075 39.725 90.473 14.397 73.372-17.105zm89.024 314.41c-22.144-33.264-94.14-5.64-54.206 28.9 20.78 14.73 70.534-6.827 54.206-28.9zM916.88 973.6c-18.167-24.264-75.469-4.269-48.755 24.492 16.69 22.679 71.468-3.628 48.755-24.492zm125.2 484.52c-34.888-11.362-27.338 36.58 2.336 29.377 23.296 5.723 12.365-32.486-2.336-29.377zm-159.53-315.7c-18.513-30.137-94.488-25.583-77.667 18.635 14.04 38.939 91.914 14.569 77.667-18.635zM822.5 950.36c-18.179-26.493-84.505-19.549-67.985 19.317 14.32 34.299 84.95 10.138 67.984-19.317zm108.97 393c-21.974-27.958-92.793-29.588-86.108 16.228 9.18 46.855 102.93 27.027 86.107-16.228zm53.048 209.11c-18.45-29.25-89.813-19.895-68.892 20.484 15.707 31.004 82.046 9.976 68.892-20.484zm-169.28-503.86c-20.51-27.061-88.539-26.787-79.24 16.661 11.421 42.163 95.391 20.065 79.24-16.661zm115.12 415.77c-19.947-30.126-94.99-25.946-79.234 19.252 13.907 39.153 93.614 16.1 79.234-19.252zm-70.103-209.4c-22.252-30.639-99.482-30.23-87.39 18.667 13.49 45.071 103.87 21.093 87.39-18.667zm-124.55-363.45c-8.337-10.732-79.492-21.731-67.663 6.739 15.201 28.83 74.893 35.432 67.663-6.739zm199.75 757.92c-16.84-26.618-78.304-5.454-48.714 23.775 16.605 18.616 65.401-2.322 48.714-23.775zm-235.54-661.62c-21.584-28.218-93.407-26.007-80.759 19.158 13.592 43.487 99.945 16.56 80.76-19.158zm109.88 394.42c-21.89-33.778-104.44-32.613-95.404 16.865 9.145 51.154 111.5 30.828 95.404-16.865zm-63.415-204.44c-22.368-29.553-96.018-33.539-92.554 13.805 9.637 48.574 91.291 35.948 98.166-7.402l-4.954-5.652-.658-.75zm97.363 422.5c-19.372-29.688-93.609-26.188-79.386 17.877 14.036 39.996 92.732 17.133 79.386-17.877zm-224.64-700.38c-22.48-31.083-98.6-33.402-92.57 15.46 12.11 46.564 90.804 33.252 98.182-9.057l-4.954-5.652-.658-.75zm41.985 200.28c-20.45-28.245-91.417-21.473-72.088 21.506 16.832 33.406 88.335 9.532 72.088-21.506zm54.046 188.59c-23.238-32.548-102.75-35.683-102.37 12.68 3.322 60.524 120.55 41.172 102.37-12.68zm56.751 214.1c-23.395-28.252-93.235-33.745-93.34 12.819 7.124 50.721 94.223 39.019 99.12-6.694l-5.17-5.478-.61-.647zm-220.99-498.92c-19.632-30.038-93.569-25.641-78.133 18.748 14.383 39.07 92.03 15.387 78.133-18.748zm120.09 415.73c-24.38-32.827-102.17-40.268-103.75 11.369 7.548 55.065 101.27 43.924 108.76-5.293l-4.777-5.784-.24-.291zm-86.25-204.01c-19.057-33.846-101.03-27.466-85.93 18.544 14.688 42.84 98.61 20.373 85.93-18.544zm114.73 428.13c-16.124-30.541-78.684-6.265-48.378 23.22 15.613 15.063 61.628.858 48.377-23.22zm-174.07-533.11c-21.077-31.331-99.85-26.664-83.955 20.182 14.456 42.793 100.52 18.034 83.954-20.182zm-57.965-188.33c-20.465-28.83-93.246-25.787-79.659 18.651 12.434 42.192 97.411 16.352 79.66-18.651zm87.447 401.35c-20.07-31.039-97.948-24.517-80.606 20.536 14.853 41.086 97.64 15.526 80.606-20.536zm67.14 230.88c-25.01-30.965-99.515-36.912-100.84 12.777 4.505 59.586 120.13 37.748 100.84-12.777zm-100.51-106.64c-21.074-28.54-92.135-31.067-86.62 14.468 7.442 49.344 103.73 26.765 86.62-14.468zm-125.72-406.8c-19.856-28.079-90.668-21.521-72.047 20.788 15.867 35.076 88.398 9.925 72.047-20.788zm30.615 229.73c-20.042-29.456-93.739-28.228-83.393 16.975 10.812 45.697 100.55 21.452 83.393-16.975zm-101.98-333.16c-9.382-4.248-69.724 8.105-51.027 22.693 15.974 24.406 74.54-3.66 51.027-22.693zm68.577 222.98c-18.34-29.041-91.137-23.66-75.57 18.12 13.394 38.457 89.811 15.66 75.57-18.12zm43.944 210.41c-22.862-28.54-96.57-27.953-84.718 20.131 14.677 43.406 103.46 19.953 84.718-20.131zM458.59 1571c-19.367-25.144-74.07 4.207-39.023 27.052 15.42 12.673 59.454-6.35 39.023-27.052zM256.1 1026.02c-17.973-31.614-80.1 2.748-48.367 36.566 18.211 23.019 67.681-14.665 48.367-36.566zm10.563 101.17c-19.883-23.869-83.967-21.977-72.987 18.423 12.64 39.455 86.452 16.698 76.283-15.22l-3.296-3.205zm97.365 354.1c-21.237-28.281-73.666 9.943-33.98 27.227 14.72 8.435 52.592-9.75 33.98-27.227zm-72.977-234.64c-22.574-26.787-90.954-28.879-85.046 16.439 9.953 49.076 105.86 23.187 85.046-16.439zm11.557 121.68c-16.964-28.447-84.885-14.734-62.067 21.635 17.481 27.634 77.613 3.273 62.067-21.635z" fill="#ff8080"/><path d="M1008.92 1152.56c-.936-2.293-3.272-4.066-5.959-4.524-5.672-1.12-8.658-1.69-12.515-1.186-.964.126-2.17.34-3.649 1.047-1.478.706-3.718 2.396-4.445 5.056-.728 2.659.461 4.773 1.355 5.95.893 1.177 1.746 1.873 2.482 2.342 2.943 1.874 5.281 2.336 8.657 2.491 3.375.155 7.717-.401 11.447-3.21 2.567-1.863 3.667-5.193 2.628-7.962zm3.451 110.24c-.481-1.36-1.43-2.58-2.686-3.452-4.17-3.11-8.792-4.335-13.17-4.735-4.38-.4-8.49-.055-12.105 1.034-1.808.541-3.524 1.03-5.602 2.956-1.04.964-2.356 2.455-2.746 4.554s.516 4.471 1.604 5.91c2.176 2.877 4.47 3.527 6.665 4.183 2.193.656 4.387.993 7.416 1.32.178.053.357.098.538.143 3.427.21 6.393-.391 9.287-1.037 1.438-.353 2.788-.61 4.147-1.124 1.365-.492 2.6-.565 4.856-2.837 1.862-1.843 2.567-4.559 1.797-6.914zm-101.8 79.883c-.481-1.36-1.43-2.579-2.686-3.452-4.011-2.868-8.433-3.78-12.55-4.15-4.117-.368-7.955-.139-11.4.692-1.722.416-3.398.836-5.476 2.252-1.036.717-2.311 1.747-3.158 3.706-.847 1.959-.58 4.79.442 6.554 2.044 3.527 4.435 3.996 6.497 4.667 2.062.67 4.093 1.024 6.919 1.4a8.864 8.864 0 0 0 1.574.201c2.256-.07 5.104-.353 8.042-.836 1.47-.243 3.135-.496 4.686-.982 1.552-.486 3.24-.93 5.52-3.401 1.697-1.822 2.312-4.4 1.59-6.652zm-13.436 118.67a6.473 6.473 0 0 0-.37-.624c-1.106-2.285-3.638-3.951-6.416-4.223-3.693-.455-5.999-.633-8.289-.495-1.146.066-1.878-.44-4.905 1.207-.753.423-1.695 1.187-2.616 2.477-.92 1.29-1.672 3.299-1.379 5.02.587 3.44 2.782 4.527 3.761 5.105 1.959 1.156 2.788 1.03 3.81 1.215 1.025.188 2.045.376 3.15.407 2.209.06 4.703-.243 7.504-.979 4.201-1.033 6.99-5.447 5.74-9.147zm-56.333-209.34c-.441-1.263-1.278-2.41-2.397-3.27-4.193-3.205-9.204-4.304-13.668-4.655-4.463-.352-8.37.162-12.064 1.255-1.847.544-3.642 1.12-5.643 2.735-1.001.805-2.2 1.867-2.909 3.666-.709 1.8-.747 4.382.111 6.15 1.717 3.539 4.36 4.312 6.58 5.11 2.218.8 4.748 1.318 7.746 1.725.426.037.856.043 1.285.02 2.95-.048 6.276-.394 9.784-1.117 1.755-.358 3.477-.781 5.35-1.547.935-.387 1.876-.738 3.237-1.892 1.36-1.153 3.49-4.063 2.751-7.296a5.972 5.972 0 0 0-.164-.887zm-56.767 126.78c-.092-.724-.336-1.347-.612-1.958a7.196 7.196 0 0 0-1.984-2.422c-4.538-3.932-9.84-5.151-15.447-5.968-5.607-.817-11.469-.854-16.662-.062-2.597.393-5.069.979-7.549 2.125-2.478 1.154-5.569 3.2-6.647 7.009-1.077 3.81.883 7.368 3.047 9.562 2.165 2.193 4.741 3.84 8.195 5.536a8.65 8.65 0 0 0 2.444.748c5.784.922 12.484.49 19.317-.822 3.416-.654 6.692-1.46 9.913-3.193 1.61-.866 3.192-1.959 4.61-4.168 1.063-1.658 1.656-4.218 1.381-6.39zm-55.472-204.68a6.152 6.152 0 0 0-.493-1.292 7.07 7.07 0 0 0-1.364-1.836c-4.178-4.42-9.789-5.983-15.073-6.714-5.284-.732-10.653-.543-15.295.404-2.321.474-4.507.967-6.761 2.23-2.255 1.262-5.277 4.022-5.406 8.18-.129 4.156 2.727 6.764 5.122 8.314 2.395 1.55 5.142 2.594 8.613 3.64.68.198 1.393.313 2.113.345 7.716.232 17.957.157 25.919-6.68 2.03-1.632 3.056-4.206 2.626-6.591zm65.986 422.53c0-.004-.697-2.395-.698-2.4-.003-.005-.487-1.103-.785-1.474-.299-.373-.663-.544-.909-.767-.493-.445-.887-.757-1.2-.95-.624-.382-.819-.585-1.159-.727a8.809 8.809 0 0 0-2.9-.447c-.082.013-.161.04-.243.06-.093-.067-.192-.124-.29-.182-.452 0-.797-.058-1.284-.02-.09.023-.144.03-.243.06l-.243.06c-.26.064-1.02-.256-1.325-.24-5.279.348-9.097 6.239-6.779 10.456.382.683.732.26 1.16.727-.157-.341-.908-2.14-.907-2.138 0 .002-.284-2.926-.285-2.924l.875-2.197c-.002.004 2.166-2.18 2.16-2.175-.005.004.828-.48 1.162-.644.672-.321 1.096-.597 1.411-.682.642-.158.928.055 1.285.02-.358.08-.693.17-1.452.46-.374.167-1.406.682-1.411.683-.005.003-2.199 1.95-2.201 1.953-.002.003-1.376 3.646-1.376 3.649 0 .003.944 3.728.946 3.731a36 36 0 0 0 .661.807c1.547 1.166 3.03 2.485 4.057 2.546.311.065.14.167.29.182l.242-.06c.055-.006.306.201.29.183.21.023.32-.087.506-.05.087-.022.193.168.29.182.403.057 1.354-.095 1.781-.058.428.036.519.14 1.783-.059.637-.082 1.436-.01 3.361-1.221.481-.305 1.574-1.164 1.577-1.168.004-.004 1.371-2.273 1.373-2.277.002-.004.504-2.817.504-2.822zm-58.106-98.255a6.983 6.983 0 0 0-1.405-2.059c-4.19-4.868-10.398-6.91-16.024-7.703-5.626-.793-10.973-.51-15.752.706-2.395.59-4.672 1.5-6.887 2.936-2.213 1.438-4.948 4.064-4.908 8.1.04 4.035 2.84 6.741 5.37 8.273 2.531 1.533 5.515 2.66 9.111 3.561.343.043.69.062 1.036.059 4.402.47 9.173.267 13.969-.648 4.796-.912 9.813-1.892 13.94-6.354 1.763-1.877 2.37-4.565 1.548-6.874zm-43.432-214.38a6.812 6.812 0 0 0-1.155-2.098c-4.496-5.617-11.416-7.607-18.301-8.936-6.885-1.33-14.272-1.534-20.888-.753-3.309.389-6.342.986-9.331 2.183-2.988 1.205-6.196 3.052-7.973 6.766-1.777 3.714-.629 8.234 1.55 11.173 2.18 2.938 5.03 5.245 9.103 7.674.757.447 1.6.777 2.485.971 7.231 1.673 15.29 1.337 23.004-.273 7.714-1.607 15.246-4.138 20.124-10.32 1.535-1.795 2.063-4.24 1.381-6.39zm-56.52 128.11a6.811 6.811 0 0 0-1.156-2.098c-3.895-4.744-9.239-6.594-15.111-8.307s-12.525-2.701-18.687-2.706c-6.162-.005-12.291.246-17.502 5.1-2.606 2.427-4.21 6.532-3.793 9.976.416 3.445 2.169 6.36 4.539 9.322.438.511.955.967 1.53 1.353 7.825 5.268 17.662 5.57 26.393 4.208 8.732-1.36 16.832-3.947 22.238-9.973 1.764-1.877 2.37-4.566 1.549-6.875zm-81.378-204.85c-.135-.953-.329-1.917-.74-2.622-.826-1.41-1.984-2.014-2.772-2.524a7.381 7.381 0 0 0-.62-.585c-4.687-2.382-9.529-2.976-13.839-2.8-4.31.174-7.944.92-11.287 2.702-1.667.902-3.863 1.93-5.192 5.175-.664 1.622-.601 3.966.32 5.888.919 1.923 2.276 3.296 3.555 3.997 5.117 2.807 8.709 2.02 14.877 1.492.342-.01.67-.083.995-.163.45-.11 3.248-.493 5.929-1.183 1.345-.33 2.654-.653 4.77-1.91 1.063-.613 3.062-1.358 3.99-4.755.231-.85.143-1.79.006-2.743zm-56.1-105.43c-.278-.928-.691-1.702-1.197-2.32-1.485-1.816-2.312-1.78-3.187-2-.317-.08-.93-.668-1.159-.728-.854-.223-1.325-.114-1.823-.163-3.608-1.31-7.205-2.487-10.44-2.433-4.177.07-7.827.742-11.238 2.95-1.705 1.106-4.044 3.117-4.367 6.872-.322 3.754 3.005 6.783 5.289 7.83 4.567 2.092 8.235 1.733 14.048 1.168a8.777 8.777 0 0 0 1.492-.24l.244-.06c.095-.031.272.006.505-.05.037-.014.162-.04.244-.06.895-.22 2.251-.48 3.444-.773 1.194-.288 1.844-.238 4.106-1.346.567-.273 1.38-.6 2.699-2.033.66-.714 1.345-1.865 1.624-3.688.14-.912-.005-1.996-.284-2.924zm79.946 445.41c-.299-.915-.81-1.77-1.487-2.503-3.94-4.124-9.12-6.04-14.739-7.68-5.618-1.642-11.782-2.56-17.65-2.645-5.87-.083-11.875.08-17.088 4.576-2.606 2.248-4.173 5.948-3.916 9.311.257 3.363 1.86 6.352 4 9.18a7.532 7.532 0 0 0 2.152 1.938c7.547 4.386 16.46 4.965 24.529 3.823 8.07-1.143 15.495-3.916 21.322-7.999 2.67-1.812 3.88-5.178 2.877-8.002zm-63.327-233.34c-.854-2.518-3.38-4.498-6.29-4.928-6.079-.951-9.936-1.36-13.717-.764-1.89.301-4.571.387-7.18 4.125-1.304 1.867-1.546 4.891-.802 6.754.744 1.862 1.786 2.778 2.687 3.452 3.606 2.694 6.385 2.73 9.983 2.734 3.599.004 7.699-.928 11.696-3.25 2.982-1.645 4.537-5.13 3.624-8.121zm-40.719 123.52c-.163-.784-.49-1.568-.906-2.139a7.348 7.348 0 0 0-1.572-1.574c-4.077-3.102-8.868-4.221-13.129-4.513-4.261-.293-8.044.193-11.526 1.396-1.741.6-3.627 1.228-5.56 3.18-.968.975-1.92 2.444-2.249 4.472-.328 2.03.46 4.256 1.562 5.69 2.207 2.866 4.461 3.376 6.624 3.96 2.162.583 4.52 1.109 7.416 1.32l.243-.06c3.223.141 5.884-.363 9.038-.997 1.578-.313 2.944-.62 4.853-1.462.955-.421 2.318-.86 3.86-2.677 1.158-1.363 1.817-4.256 1.341-6.612zm-88.978-178.04c-.616-2.63-2.57-4.025-3.679-4.663-.513-.299-.738-.363-1.118-.505-.111-.055-.179-.135-.289-.183-.314-.109-.819-.216-1.078-.286l.04.221c-3.603-1.443-7.148-2.203-10.398-2.21-3.661-.01-6.813.435-9.91 1.819-1.549.694-3.472 1.331-5.067 4.47-.797 1.57-.989 4.012-.179 5.968a7.943 7.943 0 0 0 3.266 3.815c4.119 2.517 7.052 2.021 11.104 1.87l.04.22c.454.053.394-.17.75-.11.243.023.338.141.538.144 1.241.023 2.34-.173 3.275-.299 1.302-.17 2.633-.327 3.98-.643 1.342-.33 2.222-.353 4.561-1.652.586-.322 1.502-.667 2.491-1.77.99-1.102 2.288-3.58 1.672-6.21zm5.129 101.29c-.47-1.629-1.402-2.853-2.19-3.532-.37-.319-.553-.34-.868-.545-.094-.073-.189-.11-.29-.182a14.089 14.089 0 0 0-1.407-.687l-.208.26c-3.52-2.068-7.228-3.702-10.727-3.987-4.106-.334-7.878.15-11.277 1.357-1.699.604-3.397 1.313-5.271 3.36-.937 1.023-2.023 2.504-2.248 4.474-.224 1.97.72 4.074 1.77 5.427 2.096 2.707 4.31 3.412 6.375 4 2.065.59 4.15.739 6.837.957.093.067.192.124.29.182 3.129.136 5.735-.247 9.078-.775 1.672-.262 3.015-.377 5.599-1.586.646-.3 1.496-.584 2.532-1.55 1.036-.962 2.38-2.924 2.333-5.4-.011-.616-.171-1.233-.329-1.775zm-145.58-126.68c-.073-.79-.285-1.53-.66-2.178a7.347 7.347 0 0 0-2.233-2.382c-7.77-5.419-16.27-5.111-22.832-2.953-1.641.538-3.38 1.226-5.312 3.139-.968.953-1.964 2.23-2.289 4.252-.325 2.021.248 4.338 1.314 5.728 2.131 2.78 4.384 3.434 6.374 4 1.99.568 4.245.726 6.837.957.178.053.357.099.539.143 2.643.05 5.117-.308 8.043-.836 1.462-.263 2.833-.481 4.64-1.217.906-.364 2.11-.861 3.653-2.415 1.16-1.162 2.138-3.877 1.92-6.248z" fill="#fff" style="block-progression:tb;text-indent:0;text-transform:none"/><path transform="matrix(8.3394 0 0 6.0581 -4579.86 435.8)" d="M678.57 146.97c0 15.957-7.995 28.893-17.857 28.893-9.862 0-17.857-12.936-17.857-28.893s7.995-28.893 17.857-28.893c9.862 0 17.857 12.936 17.857 28.893z" fill="url(#g)" filter="url(#h)"/><path transform="matrix(5.6942 0 0 4.378 -2820.16 679.1)" d="M678.57 146.97c0 15.957-7.995 28.893-17.857 28.893-9.862 0-17.857-12.936-17.857-28.893s7.995-28.893 17.857-28.893c9.862 0 17.857 12.936 17.857 28.893z" fill="maroon" filter="url(#i)"/></g><g color="#000"><path d="M673.84-1230.6c-194.64 1.975-405.23 360.23-388.21 615.82 11.067 147.73 70.997 319.06 220.21 376.75 187.4 61.565 370.95-73.77 496.52-210.28 132.51-138.94 249.44-309.7 171.87-492.33-84.225-183.13-300.51-292-500.39-289.97z" fill="url(#j)" transform="translate(792.928 2019.387)"/><path d="M1443.278 800.287c-15.766 2.92-27.859 13.292-35.198 25.421-3.582 5.92-6.076 12.32-7.748 18.897-.393-.677-.47-1.12-.885-1.8-4.551-7.435-10.48-15.926-21.916-19.797-7.035-2.381-15.834-1.393-23.244 2.25v-.225c-.239.101-.426.347-.664.45-.269.14-.621.077-.886.225l.221.225c-16.825 7.475-32.883 20.237-42.946 37.795-10.233 17.854-12.42 43.015 2.657 63.216-.71-.024-1.274-.458-1.993-.45a15.472 15.724 0 0 0-.663 0c-16.056 1.012-29.467 9.994-37.633 21.372-8.167 11.378-12.116 24.946-12.397 38.47-.14 6.688.796 13.55 2.656 20.022-16.283 1.794-29.642 11.124-38.297 22.947-8.785 12-13.427 26.629-14.389 41.169-.09 1.361.244 2.682.221 4.05-2.591-1.183-4.445-3.256-7.305-4.05a15.472 15.724 0 0 0-2.214-.45c-.181-.02-6.21-2.997-15.496-1.35-.17.018-.273.205-.443.225-.791.154-1.146-.23-1.992 0l.221.45c-27.662 4.236-45.878 28.765-51.801 53.992-3.046 12.974-2.945 26.864 2.878 39.594 3.149 6.886 8.485 12.802 15.053 17.548-20.39 12.14-34.413 33.948-39.847 56.917-3.512 14.844-3.522 30.644 2.213 45.22 5.736 14.573 17.874 27.316 34.755 33.97a15.472 15.724 0 0 0 .664.224c.45.15.878.086 1.329.224-12.948 3.775-24.336 10.83-32.1 20.922-9.414 12.24-15.015 27.124-16.823 42.294-1.81 15.17.215 31.094 8.412 44.544 5.673 9.31 15.385 15.7 26.565 20.022-12.192 3.07-22.836 9.663-29.664 18.897-8.282 11.2-12.51 24.53-13.282 38.02-.773 13.49 1.941 27.534 10.404 38.92 8.3 11.166 22.869 18.207 39.183 17.548v.225c.15 0 .291.002.442 0 .154-.007.29.007.443 0v-.225c8.694-.22 16.65-2.866 23.466-6.974-7.899 11.85-11.75 25.735-11.954 39.594-.209 14.256 3.08 28.86 12.175 40.494 8.926 11.42 24.426 18.606 41.397 17.548.09-.006.131.231.221.225.232-.014.431.022.664 0v-.225c16.56-.822 30.504-9.767 38.74-21.597.331-.475.348-1.092.664-1.574 1.01 9.086 3.244 17.919 8.412 25.87 7.843 12.07 21.577 20.924 38.297 22.948.074.007.147-.007.22 0 20.003 2.44 37.929-6.146 48.482-19.347 10.593-13.252 15.102-29.838 15.275-46.343.135-12.915-3.344-25.553-9.52-36.895 2.463.407 4.497 1.718 7.085 1.8v.224c.154.007.288-.007.443 0 .076.002.145-.001.22 0 .015 0-.014-.225 0-.225 18.622.756 35.02-7.9 44.94-20.472 4.706-5.964 7.923-12.545 10.405-19.572 1.333 6.498 3.207 12.78 6.64 18.672.497.852 1.444 1.425 1.993 2.25-1.522-.043-2.869-.526-4.427-.45a15.472 15.724 0 0 0-2.435.45c-31.38 6.757-50.711 36.172-55.343 65.691-2.316 14.76-.878 30.423 6.198 44.094 7.048 13.616 20.423 24.58 37.855 28.571.072.014.152-.014.221 0 5.593 1.3 11.082 1.633 16.382 1.35-1.632 1.854-3.99 3.156-5.313 5.174-7.712 11.765-10.785 25.607-10.404 39.144.38 13.537 4.229 27.221 13.725 37.795 9.363 10.425 24.834 16.246 41.175 13.723.078-.014.144.015.221 0 .156-.021.287.029.443 0v-.224c14.908-2.04 27.082-11.086 34.09-22.272 7.125-11.37 9.953-24.576 9.52-37.57-.433-12.994-4.091-26.126-12.618-36.67-7.622-9.424-20.124-15.124-33.87-15.748 12.375-12.906 18.875-30.153 20.588-47.693 1.723-17.643-1.274-35.995-11.07-51.068 17.903.77 34.118-6.363 44.497-17.997.227-.255.22-.643.443-.9 1.398 3.96 2.17 8.034 4.427 11.698 1.64 2.664 4.722 4.388 6.863 6.749-11.89 3.6-22.387 10.22-29 19.572-8.449 11.949-12.585 26.46-13.061 40.719-.476 14.259 2.771 28.688 11.733 40.494 8.796 11.588 24.08 19.04 41.175 18.222v.224c.152-.002.29.003.442 0 .154-.007.288.007.443 0v-.224c16.647-.555 30.758-9.166 39.183-20.922 8.588-11.983 12.33-26.63 12.397-40.944.065-13.716-3.345-27.36-11.29-38.92 13.495-2.507 25.3-9.513 33.427-19.122 10.25-12.118 15.06-27.414 16.824-42.97 4.32 2.41 8.404 5.198 13.504 6.525.1.029.12.2.221.224v-.224c22.036 5.997 42.882-.852 55.786-14.398 12.948-13.592 19.313-32.184 20.588-50.618 1.275-18.434-2.508-37.426-13.725-52.418-4.17-5.572-9.827-9.936-16.16-13.498 2.295-1.183 5.214-1.233 7.305-2.7 15.268-10.705 25.073-27.332 30.107-45.219 3.085-10.959 3.845-22.487 3.1-33.97 4.419 3.337 8.445 7.008 13.946 9.224a15.472 15.724 0 0 0 .663.225c17.06 5.9 34.335 3.934 47.816-3.6 13.482-7.534 23.344-19.721 29.664-33.52 4.102-8.955 6.257-18.951 7.306-29.021 8.772 10.566 21.632 18.293 37.633 19.347.022.001-.022.223 0 .225.15.014.291-.015.442 0 19.203 1.428 36.251-7.284 46.71-20.022 10.541-12.838 15.573-28.955 16.382-45.22.474-9.53-1.203-18.998-3.984-28.12 8.236 2.417 17.254 2.88 26.565.224v.225c.17-.043.272-.184.442-.225.152-.043.291.043.443 0v-.224c14.02-3.612 24.74-13.227 30.771-24.522 6.177-11.567 8.372-24.706 7.305-37.345s-5.31-25.04-14.168-34.87c-8.724-9.683-22.854-15.673-37.855-14.173v-.225c-.246.02-.42.201-.663.225-10.115.96-18.596 5.579-25.68 11.473 1.137-5.136 2.52-10.288 2.657-15.523.4-15.31-3.28-30.988-12.618-43.644-9.338-12.656-25.319-21.404-43.832-20.472a15.472 15.724 0 0 0-1.55.225c-16.088 2.413-28.967 12.116-37.412 24.072-4.671 6.613-8.05 13.955-10.404 21.597-9.748-12.343-25.007-21.216-43.389-20.697a15.472 15.724 0 0 0-1.992.225c-24.554 3.855-41.065 22.188-49.366 43.644.129-1.372.814-2.677.886-4.05.838-16.153-3.282-32.177-11.954-45.894 3.29.41 6.27 1.825 9.74 1.575.153-.01.29.012.443 0 .022-.002-.022-.223 0-.225 16.582-1.164 30.44-10.474 38.519-22.497 2.804-4.173 4.236-8.882 5.977-13.498 1.846 4.383 3.879 8.66 7.305 12.373 8.26 8.954 21.8 13.446 35.862 11.473v.225c.32-.025.568-.192.885-.225.23-.037.435.04.664 0v-.225c12.633-1.52 23.338-8.452 30.107-17.323 7.068-9.262 10.927-20.285 11.511-31.496s-2.164-23.352-10.626-32.62c-7.92-8.676-20.8-12.464-34.313-11.248v-.45c-.473-.014-.858.223-1.328.225-.46.054-.866-.068-1.328 0v.225c-13.173.496-24.99 6.776-32.1 15.748-1.73 2.185-2.453 4.825-3.763 7.2-2.026-7.615-5.262-14.953-10.183-21.373-8.89-11.597-24.167-19.584-41.175-18.447a15.472 15.724 0 0 0-.442 0c-16.61 1.663-30.048 11.518-38.298 23.622-6.537 9.591-9.712 20.695-11.068 31.946-.396-15.077-3.523-30.119-12.397-42.519-10.346-14.456-28.844-24.216-50.03-22.497a15.472 15.724 0 0 0-2.435.45c-1.727.45-3 1.67-4.65 2.25 5.29-3.819 10.185-8.272 13.505-13.498 7.407-11.663 10.297-25.318 9.962-38.695-.335-13.376-4.047-26.844-12.397-37.795-8.35-10.951-22.598-18.642-38.52-17.772a15.472 15.724 0 0 0-.22 0c-16.472 1.26-29.988 10.847-38.076 22.722-8.089 11.875-11.795 25.937-11.733 39.819.036 7.436 1.32 14.76 3.763 21.822-5.203-1.694-10.737-2.85-16.603-2.925 3.798-9.685 5.858-19.897 5.313-30.146-.741-13.93-5.03-27.832-14.611-38.694-9.582-10.862-25.388-17.444-42.282-15.073a15.472 15.724 0 0 0-.664 0zm214.95 14.848v.225c-14.686.095-27.934 6.262-36.084 15.973-8.452 10.071-11.976 22.681-12.175 35.095-.2 12.414 2.966 25.087 10.183 35.77 7.01 10.377 18.54 18.481 32.542 20.922v.225c.155.034.288-.032.443 0 .244.04.42.189.664.225v-.225c17.252 3.395 33.763-1.405 44.053-11.698 10.52-10.524 15.112-24.711 15.496-38.694.384-13.984-3.379-28.308-12.618-39.82-8.948-11.146-24.056-18.464-40.954-17.771v-.225c-.244-.01-.422.228-.664.225-.323.017-.562-.249-.886-.225zm-247.05 87.288c.397.475.467 1.112.885 1.575 8.243 9.13 21.35 13.542 35.42 13.498-3.639 6.43-6.49 13.128-8.412 20.247-7.606-11.025-20.09-19.376-34.977-21.597 2.77-4.399 5.472-8.7 7.084-13.723zm165.37 12.373c-10.57 5.766-19.2 13.827-25.679 23.847-.978-7.4-3.085-14.365-6.198-21.147 5.929 1.57 11.979 2.866 18.595 2.025v.225c.173-.017.27-.207.442-.225 4.808-.513 8.654-2.905 12.84-4.725zm-227.57 30.371c.902.068 1.754.426 2.656.45-.449.748-.904 1.486-1.328 2.25-.558-.848-.717-1.878-1.328-2.7zm305.72 41.844c.55 9.252 3.338 18.069 7.748 26.321-4.824-.77-9.827-.939-15.053-.45 3.823-8.218 6.21-16.852 7.305-25.871zm-117.77 11.473c1.202 8.742 3.582 17.268 8.412 24.972 8.4 13.397 23.438 23.159 42.061 25.421.074.009.147-.009.221 0 4.898.604 9.807.585 14.39 0-3.425 6.477-5.954 13.155-7.749 20.247-11.587-11.993-29.167-19.11-49.145-15.973a15.472 15.724 0 0 0-2.435.675c-14.017 4.667-25.064 13.764-33.427 25.196.314-2.59 1.24-5.048 1.328-7.649.547-16.052-3.03-32.5-12.397-45.894-1.332-1.906-3.709-2.99-5.313-4.724 17.427-.198 32.732-8.05 42.504-19.797.634-.762.955-1.69 1.55-2.475zm-89.213.225c1.242 1.674 2.968 2.971 4.427 4.5a15.472 15.724 0 0 0-.442 0c-2.05.272-3.582 1.53-5.535 2.024.73-2.12 1.007-4.347 1.55-6.524zm-99.618 22.722c7.815 12.524 21.96 21.664 39.183 23.397.247.025.416.203.664.225v-.225c5.753.675 10.88-.976 16.16-2.025-2.81 6.284-4.734 12.832-5.977 19.572-9.106-13.549-24.695-23.86-43.832-24.297a15.472 15.724 0 0 0-2.435.225c-14.301 1.857-25.638 9.242-34.755 18.897-.717-5.57-2.2-10.722-4.206-15.973.021-.002-.022-.223 0-.225 14.928-1.185 27.342-9.097 35.198-19.572zm356.19 91.112c-1.305 14.927 1.118 30.254 9.519 43.194 8.412 12.957 23.441 22.185 41.618 23.397v.225c.225.021.44-.022.664 0 19.29 1.612 36.414-7.029 46.93-19.797 7.205-8.748 11.009-19.282 13.505-30.146 8.7 9.293 20.689 16.277 35.42 16.648.152.004.29-.003.442 0 14.646.612 26.705-5.857 36.305-14.398-1.24 6.454-1.828 13.093-1.328 19.572.25 3.234 1.531 6.26 2.214 9.448-6.738-2.893-14.095-4.848-22.137-4.724a15.472 15.724 0 0 0-1.993.225c-32.105 4.744-50.376 34.539-54.458 63.666-1.778-2.537-2.91-5.306-5.091-7.65-6.588-7.201-15.801-18.1-32.1-20.921-4.769-.826-10.282.404-15.274 2.25l-.221-.675c-.648.196-1.132.687-1.771.9-.129.043-.314-.043-.443 0v.224c-15.745 5.376-28.489 15.982-38.076 29.246.982-4.22 2.673-8.294 3.1-12.598 1.861-18.773-1.34-38.23-11.734-54.217-5.142-7.91-12.485-14.59-21.252-19.347 1.061-.998 2.352-1.852 3.321-2.924 5.754-6.369 9.708-13.758 12.84-21.597zm-296.2 3.825c7.96 10.526 20.812 17.504 35.862 19.347-24.888 10.515-42.311 34.002-48.702 59.842-.197.8-.043 1.669-.221 2.474-9.198-6.177-19.967-10.617-32.542-9.673a15.472 15.724 0 0 0-1.771.224c-14.975 2.921-26.518 11.786-34.977 22.947 1.196-5.059 2.78-10.122 3.1-15.298.637-10.349-1.306-20.508-4.428-30.37 5.374 2.824 10.768 5.729 17.267 6.748 19.638 3.09 37.747-4.306 49.145-16.648 10.115-10.952 15.062-25.13 17.267-39.594zm85.228 1.574c-.184 1.07-.738 2.079-.885 3.15a80.944 80.944 0 0 0 0 22.272c-4.936-4.716-10.93-8.755-18.374-11.248 7.671-3.353 14.076-8.16 19.259-14.173zm-198.13 1.575c.27 3.843 1.078 7.497 1.992 11.248a54.159 54.159 0 0 0-10.405-4.05c3.408-1.735 5.53-4.836 8.413-7.198zm-55.343 7.874c4.163 1.873 9.18 2.183 13.946 2.925-6.334 2.869-11.907 6.723-16.824 11.473 1.545-4.674 2.303-9.486 2.878-14.398zm370.36 9.449c4.196 3.812 9.162 6.484 14.611 8.998-15.765 13.866-26 34.038-29 54.667-.413 2.84-.072 5.683-.221 8.55-7.458-7.784-16.074-14.26-27.45-17.324 9.024-2.814 17.053-7.532 23.244-13.948 10.737-11.127 16.117-25.92 18.817-40.944zm-392.94 35.77c-2.1 6.112-3.875 12.42-4.649 18.672-2.284-2.7-5.103-5.907-8.412-8.999 2.45-1.384 5.336-2.147 7.527-3.824 2.165-1.659 3.593-3.964 5.534-5.85zm298.41 10.124c5.686 4.109 11.874 7.78 19.259 9.673.072.015.153-.014.221 0 .984.263 1.9.237 2.878.45-7.29 2.81-14.095 6.433-19.923 11.248.213-7.138-.636-14.374-2.435-21.372zm-203.22 57.817c-1.112 4.56-2.517 9.154-2.878 13.723-1.135 14.397 1.476 29.366 9.74 41.844 4.439 6.7 10.99 11.987 18.596 15.973-12.378 2.83-22.12 9.657-30.328 18.222.666-16.158-2.776-32.582-12.176-46.118-9.4-13.536-25.811-23.347-45.16-22.947a15.472 15.724 0 0 0-1.993.224c-7.965 1.169-15.087 4.286-21.473 8.324 2.438-7.55 3.802-15.375 4.206-23.397 8.342 7.619 18.57 13.59 31.435 14.848.247.022.417.204.664.225v-.225c19.66 2.343 37.318-5.853 48.26-18.672.51-.597.62-1.411 1.106-2.025zm389.84 16.198c-.199.774-.705 1.473-.885 2.25-1.175 5.073-1.296 10.307-1.55 15.522-2.743-2.446-5.648-4.744-8.855-6.749 2.73-1.95 5.656-3.718 7.97-6.074 1.415-1.441 2.045-3.402 3.32-4.949zm-86.778 6.074c5.231 4.75 11.548 8.074 18.595 10.798-11.308 8.093-20.687 18.689-27.45 31.046 3.632-7.717 6.447-15.861 7.97-24.297 1.037-5.747.833-11.695.885-17.548zm-196.8 4.05c3.688 2.669 6.864 5.753 11.29 7.648a15.472 15.724 0 0 0 .443.225c15.663 6.201 31.719 5.536 44.939-.45 3.95-1.79 7.207-4.677 10.626-7.2-1.265 11.528.195 23.16 3.763 34.196-10.575-9.253-23.97-16.011-40.29-14.848a15.472 15.724 0 0 0-1.992.224c-29.53 5.954-46.295 32.35-51.801 59.617-1.673-3.762-2.492-7.808-4.87-11.248-4.883-7.06-11.88-12.896-19.924-17.098 14.203-1.848 26.685-8.852 34.755-18.897 7.487-9.317 10.965-20.644 13.061-32.17zm456.47 27.895v.225c-16.188.716-29.968 9.386-37.855 20.922-8.007 11.712-11.045 25.752-10.626 39.369.42 13.617 4.42 27.373 13.946 38.02 9.349 10.449 24.832 16.296 41.175 13.723.077-.014.144.014.221 0 .233-.036.431.043.664 0v-.225c14.725-2.059 26.83-10.816 33.87-21.822 7.19-11.242 10.048-24.425 9.74-37.345-.307-12.92-3.841-25.95-12.397-36.445-8.423-10.334-22.599-17.037-38.076-16.198-.089.005-.132-.23-.22-.224-.154.007-.29-.007-.444 0zm-270.3 13.723c-3.215 6.481-6.138 13.113-7.97 20.022-3.7 13.962-3.879 28.864 0 42.97-1.417-2.796-1.923-5.955-3.763-8.55-6.768-9.548-17.12-16.784-29.443-20.246 9.798-2.5 18.611-7.256 25.68-13.723 6.436-5.89 11.431-12.84 15.495-20.472zm-407.77 2.25c-1.831 5.877-3.415 11.679-3.985 17.772-4.535-4.025-8.95-7.996-14.832-10.349 5.632-1.171 11.323-2.47 16.16-5.174 1.04-.582 1.66-1.613 2.657-2.25zm312.58 20.697a63.767 63.767 0 0 0 23.687 11.473c.072.014.153-.014.221 0 1.054.257 2.052.25 3.1.45-9.5 3.045-17.437 8.105-24.13 14.848.014-.307.21-.593.22-.9a87.294 87.294 0 0 0-3.099-25.87zm272.51 9.224c-5.392-.397-11.673-.007-18.152 2.474-29.01 11.094-47.622 39.696-52.908 69.515-2.643 14.91-1.8 30.54 4.427 44.77 6.092 13.92 17.994 25.751 34.091 32.394-13.214 3.007-24.452 10.471-30.77 20.697-7.327 11.858-9.884 25.661-8.855 38.92 1.028 13.258 5.745 26.606 15.717 36.445 9.876 9.745 25.675 14.322 41.618 10.35.153-.037.289.043.442 0v-.225c13.942-3.274 24.783-12.638 30.992-23.622 6.285-11.118 8.59-23.706 7.748-35.995-.842-12.29-4.874-24.537-13.504-34.195-3.135-3.51-7.63-5.731-11.954-8.1 9.452-1.32 18.13-4.874 25.458-10.123 14.77-10.576 24.452-26.683 29.442-44.094s5.367-36.432-.22-53.992c-5.589-17.561-18.183-33.933-37.413-41.844a15.472 15.724 0 0 0-1.328-.45c-4.454-1.352-9.43-2.527-14.832-2.925zm-497.65 40.269c-1.537 14.457.084 29.269 7.305 42.294 7.453 13.443 21.382 24.247 38.961 27.446.072.014.15-.015.221 0 1.211.225 2.344.075 3.542.224-6.44 4.304-11.996 9.665-16.382 15.748-8.892 12.336-13.884 27.14-15.053 42.07-.96 12.25 1.669 24.574 7.084 35.77a53.784 53.784 0 0 0-15.717.45 15.472 15.724 0 0 0-2.214.674c-16.077 5.4-27.479 17.225-35.198 31.27-1.39-10.931-4.491-21.796-11.29-30.82-3.686-4.893-8.82-8.675-14.389-11.923 4.068 1.338 7.646 3.476 12.176 3.824.174.015.269.213.443.225v-.225c18.836 1.887 35.666-5.941 46.045-18.222 10.466-12.383 15.37-28.098 16.16-43.869.79-15.77-2.593-31.933-11.733-45.219-9.14-13.286-25.337-22.988-44.274-22.497a15.472 15.724 0 0 0-1.55.225c-16.15 2.189-29.246 11.774-38.075 23.622-8.83 11.848-14.013 26.005-15.496 40.494-1.484 14.489.625 29.53 8.633 42.294 3.84 6.12 9.432 11.273 15.939 15.298-4.822-1.32-9.497-3.216-14.832-2.925a15.472 15.724 0 0 0-.443 0c-8.831.71-16.43 3.878-23.244 8.324 6.788-10.563 10.408-22.662 10.626-34.87.24-13.448-3.098-27.12-11.069-38.47-3.718-5.295-8.913-9.815-14.832-13.273 12.628-2.37 23.78-8.828 31.435-17.772 10.947-12.792 16.205-29.167 17.267-45.669.05-.751-.25-1.496-.22-2.25 8.48 6.666 18.447 11.586 30.77 12.148.022.001-.021.224 0 .225.157.014.288-.014.443 0 15.672 1.122 28.705-5.532 38.962-14.623zm319.22 5.399c6.022 10.306 14.409 19.37 26.343 25.42-18.866 12.149-30.684 32.589-34.755 54.443-3.216-1.966-6.07-4.09-9.74-5.4.551-.568 1.469-.76 1.992-1.35 11.645-13.128 17.126-30.294 18.153-47.467.513-8.587.036-17.297-1.992-25.646zm-203 9.674c1.11 2.28 1.466 4.818 2.878 6.974 8.702 13.285 24.125 23.058 42.725 24.297.075.005.146-.005.22 0 17.263 1.19 31.527-6.27 42.505-16.423-.928 12.304 1.064 24.484 6.42 35.77-8.554-4.26-18.47-6.653-29.221-5.85a15.472 15.724 0 0 0-2.214.45c-25.72 5.726-42.327 26.785-49.81 50.393-1.732-9.92-4.644-19.545-10.625-27.896-7.748-10.818-20.88-17.615-35.641-19.797 5.629-2.968 11.56-5.62 15.717-10.124 9.687-10.498 14.45-23.977 17.046-37.795zm117.77 74.464c3.732 1.986 7.883 3.375 12.175 4.499-2.351 2.318-5.059 4.353-7.084 6.974-1.277-3.962-3.112-7.785-5.092-11.473zm135.26 77.839c-15.669.514-29.078 8.653-36.969 19.572-7.891 10.918-11.285 24.049-11.069 36.895.216 12.846 3.947 25.864 12.618 36.22 8.671 10.356 23.194 17.11 38.962 15.748a15.472 15.724 0 0 0 .886-.225c14.264-2.16 25.82-10.808 32.763-21.372 6.942-10.564 10.07-22.934 9.961-35.095-.108-12.162-3.291-24.31-11.069-34.42-7.776-10.11-20.914-17.337-35.64-17.323a15.472 15.724 0 0 0-.444 0zm-312.14 118.56c-16.164 1.005-29.724 10.11-37.855 21.597-8.13 11.486-11.806 25.115-11.954 38.695-.148 13.58 3.24 27.417 12.175 38.47 8.81 10.899 23.882 17.837 40.29 16.423.077-.007.145.007.221 0 .153-.015.288.014.443 0v-.225c15.439-1.065 28.45-9.782 36.084-20.922 7.756-11.32 11.078-24.733 11.069-38.02-.007-13.286-3.49-26.746-11.733-37.795-8.244-11.05-22.5-18.834-38.52-18.222a15.472 15.724 0 0 0-.22 0z" fill="maroon"/><path d="M659.05-1203.6c-45.051 8.21-46.035 94.309 6.197 86.838 47.55-4.637 44.44-93.83-6.197-86.838zm114.86 2.7c-47.576 3.582-49.294 92.436 2.434 85.488 44.841-4.199 43.05-87.932-2.434-85.488zm101.8 12.373c-45.933-1.159-45.166 71.127-3.54 77.164 55.393 11.905 56.936-80.97 3.54-77.164zm-304.07 8.548c-28.72 11.99-59.547 47.66-35.409 78.514 31.645 33.381 88.95-6.39 71.481-48.593-6.96-13.834-17.242-40.264-36.073-29.92zm134.33 60.292c-47.675 10.41-62.535 99.706-4.426 105.51 62.783 6.334 68.243-109.14 4.426-105.51zm103.57 23.847c-48.405 12.41-65.511 102.76-5.09 109.78 65.055 8.152 72.236-115.15 5.09-109.78zm-201.61 7.424c-46.819 5.87-61.775 93.562-6.64 98.311 58.07 7.447 64.389-99.23 6.64-98.31zm315.36 2.025c-48.31 4.759-51.614 94.886 1.55 90.662 48.925-2.87 48.708-93.966-1.55-90.662zm-401.67 9.224c-46.049 2.855-50.063 88.024.443 83.238 45.572-3.077 45.65-83.773-.443-83.238zm491.52 7.199c-39.482-1.145-42.038 69.58 1.106 62.09 35.188-2.72 43.104-68.44-1.106-62.09zm-346.56 69.29c-49.561 6.493-63.018 101.84-3.54 102.59 58.535 3.536 62.155-104.01 3.54-102.59zm-191.87 3.15c-48.038 4.511-58.276 96.072-2.213 94.711 53.025 1.179 55.554-95.83 2.213-94.712zm386.18 6.748c-42.787 15.72-58.809 95.55-5.09 107.08 70.467 15.19 78.443-120.1 5.09-107.08zm213.34 5.85c-46.505 6.865-56.476 94.932-2.213 95.836 55.814 2.768 58.769-98.638 2.213-95.836zm-509 19.347c-47.47 6.065-66.188 94.58-9.959 103.26 61.154 9.466 71.071-101.89 9.959-103.26zm414.5 5.849c-49.341 7.624-63.354 100.82-4.869 103.94 60.394 5.685 65.648-105.62 4.869-103.94zm-217.76 8.998c-43.603 14.287-61.275 95.351-8.63 108.43 72.117 19.254 82.253-119.81 8.63-108.43zm-366.7 15.523c-40.23 4.252-64.167 80.01-15.491 89.762 46.435 8.85 81.035-73.894 27.884-88.413-4.09-.442-8.307-2.44-12.393-1.35zm760.84 18.222c-48.163 3.75-43.069 96.055 8.63 80.54 40.493-9.29 35.517-85.546-8.63-80.54zm-674.98 38.02c-49.071 6.598-65.884 100.32-6.86 105.29 61.776 7.983 68.958-107.4 6.86-105.29zm189.22 6.3c-46.569 11.398-73.686 91.475-21.688 113.38 49.424 19.255 84.868-49.943 58.646-89.537-7.298-12.382-22.546-29.246-36.958-23.847zm203.6-1.35c-51.507 9.942-70.556 104.11-12.172 116.76 72.786 16.27 86.035-118.76 12.172-116.76zm213.34 26.32c-49.138 7.146-63.524 100.42-5.09 103.71 59.715 4.846 65.226-104.62 5.09-103.71zm-707.07 15.974c-47.671 10.9-74.383 93.334-20.36 114.28 54.418 17.795 85.214-61.413 51.564-98.761-7.335-8.35-20.37-21.377-31.204-15.523zm194.97 16.423c-45.781 8.787-57.902 95.553-3.098 98.76 58.29 5.15 62.436-103.14 3.098-98.76zm185.23 2.024c-49.663 15.76-68.254 107.18-8.852 121.48 69.543 16.925 91.41-110.05 23.458-121.93-4.674-.474-10.216-1.768-14.606.45zm220.2 1.8c-46.264 13.745-72.882 93.61-19.032 114.96 54.267 18.467 86.956-62.462 51.564-99.886-7.866-8.46-21.373-20.366-32.532-15.073zm-100.69 68.39c-50.503 11.925-81.368 97.366-25.229 122.61 70.035 25.381 100.08-94.36 38.95-121.26-4.62-1.343-9.024-6.762-13.721-1.35zm-419.81.675c-49.21 7.102-63.03 100.67-4.205 102.81 59.241 4.663 63.758-104.02 4.205-102.81zM663.5-717.22c-50.506 10.02-62.093 105.69-3.098 109.33 64.956 4.649 68.807-113.94 3.098-109.33zm432.65 8.324c-47.741 1.343-46.328 89.712 3.762 80.989 42.486-4.95 42.502-84.157-3.762-80.99zm-543.08 16.648c-47.366 10.063-63.82 98.265-8.41 107.98 67.581 12.612 76.117-112.06 8.41-107.98zm-187 2.475c-49.144 5.838-65.831 99.548-7.082 104.39 60.812 7.622 67.706-105.29 7.082-104.39zm393.7 26.546c-47.207 9.546-61.45 98.059-6.418 105.51 65.11 10.608 72.235-110.31 6.418-105.51zm227.94 1.574c-45.292 17.044-67.32 97.391-13.721 118.11 66.348 23.933 97.435-92.817 37.179-117.21-7.393-2.208-16.179-3.643-23.458-.9zm-123.27 61.416c-42.821 14.933-60.154 93.665-7.524 106.86 71.173 19.336 81.114-119.56 7.524-106.86zm-404.1 4.725c-46.649 6.22-60.407 94.888-5.533 98.536 58.542 6.264 63.256-100.01 5.533-98.536zm220.2 32.62c-47.268 10.354-63.749 98.238-7.082 106.63 65.862 10.996 73.365-111.51 7.082-106.63zm-109.77 1.125c-48.527 6.59-60.731 99.506-3.098 100.56 57.834 3.074 61.587-102.67 3.098-100.56zm-219.98.45c-44.867 3.32-52.639 87.546-1.992 84.587 47.038-.24 48.04-84.673 1.992-84.588zm426.45 14.847c-47.631 12.091-63.618 101.6-4.869 108.88 64.903 7.674 72.928-114.23 4.869-108.88zm197.62 30.596c-46.61 3.803-40.837 89.691 7.303 77.39 39.562-8.67 36.203-81.332-7.303-77.39zm-560.12 39.37c-48.691 3.848-52.076 94.645.664 90.436 49.76-1.466 49.602-93.136-.664-90.437zm92.948 17.547c-41.423 13.69-54.074 92.452-1.328 98.536 62.441 7.752 63.364-109.43 1.328-98.536zm362.72 3.6c-45.369 1.467-44.522 80.878 1.77 76.939 39.987-5.96 40.471-76.981-1.77-76.939zm-241.66 5.85c-46.663 9.886-66.511 95.467-11.065 107.76 66.789 15.54 79.062-111.04 11.065-107.76zm117.51 21.146c-47.81 3.719-53.737 94.37-.221 90.887 50.182-.68 50.827-92.613.221-90.887zm-192.53 91.562c-46.525 2.85-49.316 88.635.885 83.688 44.691-2.315 45.491-85.429-.885-83.688zm110.87 9.899c-46.395 4.133-45.928 90.442 4.205 82.113 42.812-5.067 41.674-84.862-4.205-82.113z" fill="url(#k)" transform="translate(792.928 2019.387)"/><path d="M1448.738 830.387c-28.188 8.965-31.966 66.635 6.834 57.096 28.99-7.183 21.851-64.886-6.834-57.096zm114.13 4.205c-34.287 10.024-22.263 75.539 14.807 49.793 18.992-12.28 7.223-62.73-14.807-49.793zm105.7 11.065c-33.037 3.424-21.708 51.597 8.657 48.687 28.573-.504 24.663-55.016-8.657-48.687zm-315.28 14.385c-26.095 6.268-41.078 51.783-5.695 55.104 34.582 5.153 45.823-37.724 22.154-57.456-2.58-14.304-10.945 1.416-16.46 2.351zm144.2 53.998c-33.192 11.29-48.805 75.654-1.367 77.013 43.617-1.704 40.634-80.926 1.367-77.013zm106.39 23.9c-31.291 12.699-51.138 71.73-7.745 80.777 51.763 8.094 52.814-86.716 7.745-80.776zm-210.26 7.746c-30.17 10.074-43.272 69.506-.911 69.49 41.239-.427 35.403-76.5.911-69.49zm324.85 2.435c-37.392 11.026-27.816 82.019 15.035 55.547 19.165-14.614 10.165-64.313-15.035-55.547zm-417.8 10.844c-27.753 9.83-22.055 65.817 12.074 49.572 25.871-8.93 13.476-64.312-12.074-49.572zm497.76 14.385c-19.263 27.996 28.838 33.71 28.931 5.532 11.064-19.177-28.441-19.373-28.931-5.532zm-342.85 59.752c-33.509 8.616-47.162 77.165-.456 73.694 40.948-2.371 35.911-77.733.456-73.694zm-199.79 3.54c-29.909 9.263-38.961 69.875 2.506 65.285 36.533-3.82 29.977-72.704-2.506-65.284zm405.49 5.09c-32.226 12.249-50.627 74.625-4.784 80.555 47.439 3.987 50.561-84.274 4.784-80.554zm214.59 7.082c-32.638 8.79-40.557 74.492 3.417 66.391 33.68-5.903 29.13-70.172-3.417-66.39zm-526.92 19.696c-31.012 11.184-46.911 71.578-2.734 74.58 43.44.784 42.046-79.396 2.734-74.58zm428.96 5.533c-33.839 9.89-47.632 77.516-.227 75.243 41.124-2.198 37.795-78.845.227-75.243zm-218.92 7.967c-34.882 11.802-52.837 80.39-2.734 82.325 46.741-.298 45.054-86.646 2.734-82.325zm-380.66 16.376c-28.793 3.293-50.456 64.014-9.568 61.743 31.46-6.018 52.02-57.24 9.568-61.743zm779.55 19.032c-29.712 8.044-23.874 68.023 11.39 49.35 21.926-9.906 13.296-58.595-11.39-49.35zm-695.04 37.62c-32.385 11.837-47.315 76.098-.683 76.572 45.235-.798 39.743-84.34.683-76.571zm407.09 4.648c-37.828 10.67-56.318 84.174-6.379 88.964 51.584 5.13 56.27-90.889 6.379-88.964zm-212.54 3.32c-33.86 12.186-55.21 76.462-8.657 85.644 49.208 4.026 56.414-71.647 16.174-88.964l-6.636 2.93-.881.39zm431.24 23.015c-33.278 9.494-47.537 76.229-1.595 75.022 41.97-2.095 38.583-77.795 1.595-75.022zm-729.89 17.926c-35.365 11.89-55.691 78.788-7.062 86.087 47.855 1.314 53.694-71.913 14.58-89.406l-6.636 2.93-.882.39zm203.43 14.606c-32.143 10.824-42.462 75.506 3.645 69.489 36.267-6.28 30.195-75.864-3.645-69.49zm195 .885c-36.96 12.182-58.881 81.878-12.074 94.054 59.25 12.72 68.413-96.242 12.074-94.054zm220.29 5.09c-32.848 13.434-54.748 73.94-9.796 86.087 50.686 6.81 60.078-73.454 17.086-89.628l-6.52 3.167-.77.373zm-534.43 66.833c-33.679 9.634-46.999 76.335-.456 74.136 41.156-2.642 36.73-77.623.456-74.136zm430.1 1.106c-37.501 13.123-63.17 80.173-13.668 94.94 54.982 7.559 66.489-78.43 20.73-97.817l-6.723 2.739-.34.138zm-217.55 23.68c-37.221 8.137-50.534 82.476-2.506 80.996 44.871-1.937 43.11-82.169 2.506-80.997zm440.8 9.073c-33.331 6.392-24.747 68.15 10.935 48.908 18.259-9.946 15.472-54.426-10.935-48.908zm-556.3 16.376c-35.271 10.58-49.48 81.639-.456 79.669 44.77-1.744 41.302-84.465.456-79.67zm-195.69 2.655c-32.71 10.685-47.063 76.011-.911 75.464 43.709-.106 38.94-82.146.911-75.464zm408.46 26.335c-34.751 9.763-46.954 80.51.683 76.792 43.215-2.537 38.196-82.563-.683-76.792zm238.97.221c-35.853 14.164-59.3 78.69-11.618 92.726 34.18 8.711 52.865-98.1 11.618-92.726zm-126.89 61.523c-32.574 11.3-51.899 73.66-6.606 80.554 49.432 6.172 50.5-85.056 6.606-80.554zm-422.81 6.197c-31.84 10.34-42.331 74.829 2.962 69.268 37.65-4.992 30.59-75.817-2.962-69.268zm229.17 32.31c-33.215 10.148-49.538 75.817-3.417 78.34 46.709 2.24 44.613-83.611 3.417-78.34zm-346.04 4.204c-27.329 9.477-26.253 65.807 9.796 51.121 27.37-7.848 14.175-67.044-9.796-51.12zm231.68-3.098c-32.409 8.748-44.508 74.691-.456 71.702 40.33-1.924 36.465-75.587.456-71.702zm213.68 15.491c-32.999 12.886-49.945 78.397-.683 80.333 45.414-1.78 43.855-86.578.683-80.333zm198.19 32.531c-28.889 10.666-13.536 66.771 16.858 41.605 15.905-10.393 7.993-54.364-16.858-41.605zm-574.53 38.507c-34.807 7.755-29.271 76.926 10.935 57.54 26.562-10.192 14.809-68.998-10.935-57.54zm100.23 16.82c-27.78 11.453-41.179 68.768.456 69.488 41.113-.996 36.67-72.338 3.423-71.582l-3.879 2.094zm365.17 5.31c-32.363 11.513-7.899 67.897 18.225 37.18 11.646-10.871 3.08-49.16-18.225-37.18zm-243.98 3.984c-31.238 13.084-49.506 73.178-4.328 79.669 49.769 3.877 47.548-87.865 4.328-79.67zm120.28 21.245c-31.509 7.68-34.401 71.457 6.15 60.637 30.847-8.349 21.603-67.975-6.15-60.637zm-200.01 92.504c-30.386 8.154-24.866 67.375 10.479 51.12 22.868-9.26 14.874-61.908-10.479-51.12zm114.13 10.18c-28.92 9.388-21.808 67.245 12.529 48.908 22.166-10.061 12.472-60.846-12.529-48.908z" fill="#ff8080"/><path d="M1660.458 1054.047c-11.965 2.661-16.531 16.388-16.312 27.171.44 8.837 11.275 15.287 19 9.973 8.36-5.699 10.75-16.89 9.875-26.368-.756-6.136-6.044-11.42-12.562-10.776zm-103.91 36.866c-12.843 2.693-18.022 17.897-16.406 29.517 1.417 8.565 12.201 14.378 19.625 8.8 8.908-6.507 11.397-19.265 9.063-29.517-1.446-5.336-6.647-9.159-12.281-8.8zm215.62 4.076c-9.406 1.196-13.265 12.346-12.344 20.502 2.087 8.687 15.725 12.007 20.5 3.674 5.68-7.022 5.73-20.491-4.219-23.713-1.277-.374-2.597-.597-3.937-.463zm-318.03 72.219c-13.374 2.525-18.958 17.28-20 29.24-1.24 9.348 7.653 19.889 17.625 16.272 13.784-4.761 17.918-21.99 14.812-34.797-1.53-5.41-6.167-11.198-12.438-10.714zm210.12 3.612c-12.824 2.585-17.821 16.761-20.25 27.943-2.14 8.695 1.369 20.823 11.5 22.076 12.715 1.384 22.734-10.654 23.204-22.463 2.351-9.594 1.35-23.522-9.798-27.03-1.508-.416-3.083-.672-4.656-.526zm212.22 45.172c-10.944.572-15.498 17.598-5.312 22.663 4.22 2.797 9.512 1.278 13-1.79 4.726-3.166 5.6-10.696 2.968-15.47-2.218-3.558-6.396-5.891-10.656-5.403zm-324.5 8.83c-13.93 3.082-19.998 17.96-23.25 30.136-2.701 9.466-1.929 23.326 9.031 27.233 12.757 3.976 26.071-6.518 28.188-18.927 3.375-11.964 3.553-27.275-6.312-36.28-2.204-1.578-4.933-2.423-7.656-2.16zm217.84 16.334c-15.365 3.584-22.288 21.624-19.625 35.785 1.883 8.658 12.821 14.475 20.625 8.985 11.451-7.063 14.486-22.63 11.625-34.828-1.572-5.471-6.378-10.558-12.625-9.943zm-107.22 63.697c-13.454 2.727-19.695 16.907-24.094 28.344-3.543 9.132-2.086 21.812 7.844 26.306 11.279 5.377 25.209-2.411 28.438-13.863 4.685-11.768 5.22-26.784-3-37.144-2.297-2.507-5.755-3.966-9.188-3.644zm-219.09 18.279c-11.951 2.906-16.357 17.422-14.219 28.19 1.574 8.042 11.408 12.95 18.625 8.645 9.019-5.415 9.584-17.605 8.719-26.862-1.11-6.225-6.571-10.835-13.125-9.973zm95.312 60.3c-9.693 1.285-12.151 12.3-13.812 20.132-.924 9.826 12.594 16.993 19.969 10.035 8.345-6.76 9.366-22.291.188-28.684-1.88-1.107-4.15-1.666-6.344-1.482zm240.84 4.076c-12.932 2.434-18.943 15.833-23.438 26.646-4.039 9.206-2.948 22.783 7.656 27.016 10.1 4.336 22.38-1.58 26-11.67 5.678-11.925 5.971-27.237-1.344-38.472-2.28-2.409-5.552-3.783-8.875-3.52zm-131.84 61.351c-12.497 3.003-17.926 18.24-15 29.61 2.564 8.46 14.482 11.834 20.75 5.095 6.95-6.763 9.189-17.873 6.688-27.078-1.787-5.001-7.115-8.126-12.438-7.627zm-192.94 31.524c-9.92 1.546-14.318 12.755-15.094 21.521-.787 8.214 6.845 16.57 15.469 14.11 10.063-3.136 12.515-15.554 11.906-24.7-.415-6.23-5.803-11.505-12.281-10.93zm99.781 20.81c-8.012.598-12.777 8.584-15.875 14.975-3.317 8.23-.666 20.766 9.313 22.601 9.801 1.52 16.494-8.179 17.75-16.704 2.614-7.507.926-18.785-8.22-20.656-.983-.163-1.97-.305-2.968-.216z" fill="#fff" style="block-progression:tb;text-indent:0;text-transform:none"/></g><path transform="matrix(3.6332 0 0 3.6811 -1491.36 781.6)" d="M678.57 146.97c0 15.957-7.995 28.893-17.857 28.893-9.862 0-17.857-12.936-17.857-28.893s7.995-28.893 17.857-28.893c9.862 0 17.857 12.936 17.857 28.893z" color="#000" fill="#500" filter="url(#i)"/></svg>