<svg version="1.1" viewBox="0 0 603.36 416.3" xmlns="http://www.w3.org/2000/svg" xmlns:xlink="http://www.w3.org/1999/xlink"><defs><linearGradient id="e"><stop stop-color="#120a09" offset="0"/><stop stop-color="#130a09" offset=".40981"/><stop stop-color="#431414" offset=".59132"/><stop stop-color="#fff" offset="1"/></linearGradient><linearGradient id="f"><stop stop-color="#b61629" offset="0"/><stop stop-color="#821215" offset=".36594"/><stop stop-color="#690f0f" offset=".46249"/><stop offset=".86935"/><stop stop-color="#983440" offset="1"/></linearGradient><linearGradient id="a"><stop stop-color="#233600" offset="0"/><stop stop-color="#5d9400" offset=".5"/><stop offset="1"/></linearGradient><linearGradient id="b"><stop stop-color="#f9f9f9" offset="0"/><stop stop-color="#f9f9f9" stop-opacity="0" offset="1"/></linearGradient><filter id="ac" x="-.2945" y="-.20252" width="1.589" height="1.405" color-interpolation-filters="sRGB"><feGaussianBlur stdDeviation="4.119804"/></filter><filter id="ab" x="-.18745" y="-.33349" width="1.3749" height="1.667" color-interpolation-filters="sRGB"><feGaussianBlur stdDeviation="4.9491935"/></filter><filter id="aa" color-interpolation-filters="sRGB"><feGaussianBlur stdDeviation="0.79150079"/></filter><filter id="z" x="-.13432" y="-.25244" width="1.2686" height="1.5049" color-interpolation-filters="sRGB"><feGaussianBlur stdDeviation="3.6771777"/></filter><filter id="y" x="-.12549" y="-.23585" width="1.251" height="1.4717" color-interpolation-filters="sRGB"><feGaussianBlur stdDeviation="3.435539"/></filter><filter id="x" x="-.12549" y="-.23585" width="1.251" height="1.4717" color-interpolation-filters="sRGB"><feGaussianBlur stdDeviation="3.435539"/></filter><filter id="w" color-interpolation-filters="sRGB"><feGaussianBlur stdDeviation="1.27031"/></filter><filter id="v" color-interpolation-filters="sRGB"><feGaussianBlur stdDeviation="1.7148438"/></filter><filter id="u" x="-.073196" y="-.10003" width="1.1464" height="1.2001" color-interpolation-filters="sRGB"><feGaussianBlur stdDeviation="0.672775"/></filter><filter id="t" color-interpolation-filters="sRGB"><feGaussianBlur stdDeviation="0.34362549"/></filter><radialGradient id="n" cx="-552.04" cy="300.12" r="107.21" gradientTransform="matrix(1.5527 .41604 -.33564 1.2526 1265.6 245.35)" gradientUnits="userSpaceOnUse" xlink:href="#f"/><radialGradient id="d" cx="413.09" cy="370.7" r="31.683" gradientTransform="matrix(1.6225 .93674 -.52653 .91198 -161.55 -343.23)" gradientUnits="userSpaceOnUse" xlink:href="#b"/><radialGradient id="m" cx="625.71" cy="299.59" r="104.16" gradientTransform="matrix(1.6629 1.9092e-8 0 1.2691 -501.96 3.561)" gradientUnits="userSpaceOnUse" xlink:href="#f"/><radialGradient id="c" cx="647.2" cy="294.1" r="17.538" gradientTransform="matrix(1.5855 .42484 -.54842 2.0467 -300.92 -514.93)" gradientUnits="userSpaceOnUse" xlink:href="#b"/><linearGradient id="s" x1="688.39" x2="260.15" y1="196.61" y2="207.11" gradientTransform="translate(10.899 -6.7929)" gradientUnits="userSpaceOnUse"><stop stop-color="#1a1f11" offset="0"/><stop stop-color="#afd56a" offset="1"/></linearGradient><radialGradient id="l" cx="406.92" cy="318.13" r="30.73" gradientTransform="matrix(1.8306 .62646 -.12497 .36516 -299.76 -65.516)" gradientUnits="userSpaceOnUse" xlink:href="#b"/><radialGradient id="k" cx="589.75" cy="266.17" r="32.851" gradientTransform="matrix(-.96593 -.25882 -.13772 .51396 848.5 331.12)" gradientUnits="userSpaceOnUse" xlink:href="#e"/><linearGradient id="r" x1="522.87" x2="435.79" y1="136.86" y2="21.755" gradientTransform="matrix(.96593 .25882 -.25882 .96593 -260.79 -71.624)" gradientUnits="userSpaceOnUse" xlink:href="#a" spreadMethod="reflect"/><radialGradient id="j" cx="405.9" cy="304.36" r="32.851" gradientTransform="matrix(.96593 .25882 -.13772 .51396 -299.58 65.417)" gradientUnits="userSpaceOnUse" xlink:href="#e"/><linearGradient id="q" x1="488.99" x2="358.44" y1="204.39" y2="187.31" gradientTransform="translate(5.9497 -5.3787)" gradientUnits="userSpaceOnUse" xlink:href="#a"/><linearGradient id="p" x1="629.7" x2="289.85" y1="181.76" y2="106.7" gradientTransform="translate(2.4801 -5.2019)" gradientUnits="userSpaceOnUse" xlink:href="#a"/><radialGradient id="i" cx="530.47" cy="34.665" r="10.968" gradientTransform="matrix(.88797 .23793 -.16269 .60718 -224.74 -48.505)" gradientUnits="userSpaceOnUse" xlink:href="#a"/><radialGradient id="h" cx="536.22" cy="21.54" r="10.968" gradientTransform="matrix(.99165 .26571 -.19747 .73697 -277.17 -72.675)" gradientUnits="userSpaceOnUse" xlink:href="#a"/><linearGradient id="o" x1="502.98" x2="493.48" y1="137.42" y2="74.184" gradientTransform="matrix(.96593 .25882 -.25882 .96593 9.7195 -70.456)" gradientUnits="userSpaceOnUse" xlink:href="#a"/><radialGradient id="g" cx="538.17" cy="16.499" r="10.252" gradientTransform="matrix(.96593 .25882 -.23729 .88558 -260.36 -74.115)" gradientUnits="userSpaceOnUse" xlink:href="#a"/></defs><g transform="translate(-173.89 -71.186)"><path d="m771.05 277.66c-6.4804 1.0261-15.863 0.10859-21.843 3.3247-10.291 5.5643-27.334 9.0063-35.93 13.268-6.27 2.2103-14.706 5.3338-24.316 9.303-84.475 22.199-154.36 47.651-203.12 67.556-30.771 12.563-54.832 23.728-68.223 29.392-1.0082-0.48609-1.9563-1.0191-2.573-1.7482-5.0744-5.9993-0.11117-11.685-23.799-15.422-40.544-4.2416-105.04 15.301-137.83 36.759-35.72 21.394-54.438 48.353-24.534 58.94 28.906 10.01 84.549 5.79 135.32-6.6339 44.025-11.066 91.202-34.24 89.9-51.822-0.80844-8.4952-12.146-14.446-29.889-16.155 2.416-1.4128 5.8016-3.2286 10.493-5.4008 11.608-5.3749 28.685-14.069 50.438-23.008s48.177-19.2 78.613-29.891c30.368-10.667 64.736-21.762 102.29-32.373-1.0097 0.47836-2.0141 0.97026-3.0265 1.4829-1.2513 0.60064-2.4551 1.2053-3.5977 1.8419-4.0328 2.0522-8.0111 4.1849-11.965 6.431-8.9652 5.0932-17.205 10.676-24.157 16.655-6.9521 5.9786-12.623 12.359-16.462 19.028-3.8395 6.6687-5.8423 13.628-5.4697 20.791 0.2505 4.8161 0.87688 8.633 2.7214 13.705-0.0621-0.0201-0.11618-0.0419-0.17783-0.0624-8.6279-3.0183-25.044-3.1364-39.015-1.717-15.741 1.5992-32.81 5.5072-48.386 11.067-31.29 11.41-51.925 27.257-59.927 40.896-11.698 17.686-6.3856 34.651 23.782 39.85 23.791 3.3816 56.075 2.5447 89.607-5.2291 30.567-7.5011 58.952-19.41 81.734-31.78 27.1-14.99 46.692-33.207 39.348-45.532-2.5485-4.0638-8.1932-7.2748-17.053-8.7411-14.753-1.6878-36.431 2.5261-53.405 2.9189-4.5107-5.9789-8.6442-11.944-9.015-17.56-0.44902-6.8021 1.3728-13.366 4.929-19.621 3.5562-6.2552 8.8668-12.211 15.381-17.794 6.5138-5.583 14.239-10.792 22.662-15.578 12.474-7.0864 25.709-13.199 37.411-18.091 9.6261-2.515 19.482-4.9849 29.565-7.3831 1.0541-0.20225 2.1451-0.43039 3.2939-0.68681 5.4392 0.55924 10.928 0.85526 25.991-5.9939 2.4752-1.0957 7.7809-0.63437 10.518-2.6379 3.3356-2.4418 10.189-4.8316 13.486-7.0709 3.3894-2.3026 3.5068-4.3587-1.355-5.073-0.69454-0.10204-1.5197-0.15874-2.4217-0.20292z" fill="#333" opacity=".77"/><path d="m273.02 282.76c-45.446-8.4919-87.353 30.622-95.342 73.584-10.991 42.832 1.4684 96.803 43.61 118 40.476 20.04 91.227 11.606 127.64-13.267 31.234-22.154 51.625-68.559 30.001-103.76-11.052-17.686-30.293-29.887-50.913-32.733-3.2037-5.6066-8.8327-6.4236-13.362-10.953-12.009-12.011-13.628-23.387-41.635-30.869z" fill="url(#n)"/><g><path d="m287.59 358.49c-0.5799 0.0566-0.92126 0.49359-0.96875 1.4688-0.31097 6.3855 22.81 22.233 26.344 35.625 4.6827 17.747 31.883-8.402 33.5-14.438 1.6172-6.0355-8.3291-15.432-29.688-13.469-15.422 1.4178-26.056-9.4932-29.188-9.1875z" color="#000000" fill="url(#d)" filter="url(#ab)"/><path d="m287.59 358.49c-0.5799 0.0566-0.92126 0.49359-0.96875 1.4688-0.31097 6.3855 22.81 22.233 26.344 35.625 4.6827 17.747 31.883-8.402 33.5-14.438s-8.3291-15.432-29.688-13.469c-15.422 1.4178-26.056-9.4932-29.188-9.1875z" color="#000000" fill="url(#d)"/><path d="m566.3 300.97c-23.049-4.6625-46.256 13.17-68.702 2.3615-12.117-6.0427-28.661-6.2715-40.992-3.4298-13.892 3.2016-26.439 11.023-35.589 22.154-18.101 22.844-20.42 54.585-12.657 81.889 8.7446 35.408 33.653 69.351 69.83 79.76 27.699 6.77 59.005 5.1132 83.552-10.45 21.897-15.017 36.523-38.88 45.006-63.645 9.7736-30.01 8.3197-66.458-13.271-91.134-7.2457-8.1358-16.622-14.57-27.177-17.505z" color="#000000" fill="url(#m)"/><path d="m566.03 341.3c-9.2831 0.4104-10.529 12.847-15.5 21.656-6.2099 11.005-13.64 19.241 2.9375 24.312 9.4304 2.5269 21.583-4.7711 26.062-16.438 2.6234-6.8328 5.2559-18.26 3.0625-24.344-1.6395-4.5476-11.539-3.5594-16.562-5.1875z" color="#000000" fill="url(#c)" filter="url(#ac)"/><path d="m579.54 370.82c-4.4793 11.666-16.641 18.967-26.071 16.44-16.577-5.0712-9.1544-13.286-2.9446-24.29 4.971-8.8095 6.2385-21.243 15.522-21.653 5.0238 1.6281 14.926 0.62525 16.566 5.1729 2.1934 6.0841-0.44847 17.498-3.0719 24.331z" color="#000000" fill="url(#c)"/></g><g><path transform="matrix(.96593 .25882 -.25882 .96593 9.7195 -70.456)" d="m534.97 6.9602c-4.1689 1.1855-5.8846 6.4195-8.2426 10.056-2.6706 4.1186-4.9268 8.5509-6.5892 13.169-2.3816 6.6171-9.1269 15.052-4.7494 20.556 0.73268 0.92126 2.4369 0.43347 3.5312 0 5.7032-2.259 9.2654-8.0804 13.411-12.601 4.1337-4.5076 8.4466-9.0305 11.362-14.407 2.0723-3.8213 6.0964-8.4539 4.1768-12.354-2.0072-4.0783-8.5283-5.6628-12.9-4.4194z" color="#000000" fill="url(#s)" filter="url(#aa)" style="block-progression:tb;text-indent:0;text-transform:none"/><path transform="matrix(.96593 .25882 -.25882 .96593 9.7195 -70.456)" d="m435.93 310.08c-5.9069 4.5872-8.6328 7.9276-25.809 11.49-19.31 4.0055-45.75-38.076-34.295-34.471 5.6569 1.78 16.068 7.8477 34.295 15.38 14.603 6.0345 36.448-0.65994 25.809 7.6014z" color="#000000" fill="url(#l)" filter="url(#z)" opacity=".10233"/><path transform="translate(272.44 1.6857)" d="m275.72 306.41c-5.9248 0.25522-17.57 3.4109-37.125 5.9688-15.667 2.0493-35.044-10.077-26.906 0.65625 4.5184 5.9597 6.2996 9.8942 21.969 17.781 17.616 8.8669 54.06-24.923 42.062-24.406z" color="#000000" fill="url(#k)" filter="url(#x)" opacity=".8186"/><path transform="translate(272.44 1.6857)" d="m258.25 69.5c-5.2943 2.0543-15.738 0.21741-18 6.6562-3.8594 11.14-16.924 18.031-20.594 26.562-3.7152 4.4251-8.5408 10.678-13.562 18.625-58.816 44.444-99.284 95.399-125.03 135.25-23.432 36.268-36.346 66.725-40.875 66.719-0.80151-1e-3 -1.7084 0.79602-1.625 1.375-0.43404 0.95408 5.0881 7.0281 8.3438 8.0625 4.9034 1.5579 10.229 0.97762 11.531-0.3125 0.82201-0.81406-1.4799-2.1512-1.6875-2.625 0 0-0.0016-0.50961 0.125-1.5 0.32407-2.5271 1.4364-8.1128 5.3125-15.844 5.3951-10.761 12.423-28.167 23.844-46.062 11.421-17.895 25.984-38.44 44.062-59.844 18.078-21.404 39.665-43.682 65.031-64.969-1.0488 2.3854-2.1852 4.4566-2.9375 6.8125-1.6607 4.1086-3.1738 8.3784-4.5312 12.875-3.0781 10.197-4.8647 21.374-4.9062 33.344-0.0415 11.969 1.6626 24.743 5.5312 38.094 3.8687 13.351 9.9098 27.284 18.562 41.625 8.1716 13.544 14.691 23.047 29.438 41.281 0.73089 0.90375-0.10804 3.7007 0.6875 4.5312 10.204 7.4336 26.458-3.8978 14.094-7.4375-13.852-14.462-28.22-29.132-36.531-42.75-8.3114-13.618-14.076-26.758-17.75-39.281-3.6739-12.523-5.248-24.448-5.1875-35.625 0.0606-11.177 1.7641-21.607 4.6562-31.188 4.2827-14.187 10.452-26.425 16.5-36.219 6.7191-5.0351 13.72-9.9799 21.031-14.781 0.82031-0.40491 1.6476-0.86164 2.5-1.375 6.0856 1.1196 11.917 1.7122 19.062-12 1.2086-2.1936 7.0476-1.27 7.4688-5.2812 0.51322-4.8886 4.6046-9.6731 5.3125-14.156 0.72789-4.6099-1.5314-8.7263-7.2188-10.156-0.81248-0.20428-1.7032-0.3178-2.6562-0.40625z" color="#000000" fill="url(#r)" style="block-progression:tb;text-indent:0;text-transform:none"/><path transform="translate(272.44 1.6857)" d="m24.375 301.84c-6.667-0.09 7.3539 41.723 25.812 42.781 17.513 1.0041 21.013-1.5355 27.906-4.4375 12.414-5.2265-10.425-4.3916-22.969-14-15.656-11.993-24.122-20.567-29.125-23.75-0.63323-0.40289-1.1805-0.58775-1.625-0.59375z" color="#000000" fill="url(#j)" filter="url(#y)" opacity=".8186"/><path transform="matrix(.96593 .25882 -.25882 .96593 9.7195 -70.456)" d="m510.16 59.576c-89.478 115.82-105.82 238.92-105.82 238.92l3.5312-0.0625c0.0705-0.66265 13.757-122.3 102.99-237.8z" color="#000000" fill="url(#q)" filter="url(#v)" style="block-progression:tb;text-indent:0;text-transform:none"/><path transform="matrix(.96593 .25882 -.25882 .96593 9.7195 -70.456)" d="m504 80.358c-1.5183 2.1685-3.0002 4.333-4.4688 6.5-0.59539 4.6483-1.1669 11.899-1.3517 16.882-1.6066 43.304 18.697 98.613 91 137.41l0.96875-1.5938c-69.749-39.508-89.93-93.736-88.438-136.31 0.25744-7.3419 1.1822-16.295 2.2892-22.882z" color="#000000" fill="url(#p)" filter="url(#w)" style="block-progression:tb;text-indent:0;text-transform:none"/><path transform="translate(272.44 1.6857)" d="m232.94 89.562c-1.8804 4.4002-2.769 8.2813-0.71875 10.25 3.1765 3.0502 3.4668 4.1318 5.9375 5.1875 4.9414 2.1115 10.75 1.9688 10.75 1.9688l-0.0625-0.6875s-5.2229-1.2354-9.9375-3.25c-2.3573-1.0073-4.5923-1.4563-5.6562-3.75s-1.457-5.1507 0.375-9.4375l-0.6875-0.28125z" color="#000000" fill="url(#i)" filter="url(#u)" opacity=".77" style="block-progression:tb;text-indent:0;text-transform:none"/><path transform="translate(272.44 1.6857)" d="m241.84 74.75c-2.2189 5.3579-1.0288 8.6216 0.21875 11.625s5.3754 4.1604 8.125 5.375c5.4993 2.4293 9.1875 3.6562 9.1875 3.6562l-0.0313-0.84375s-8.8156-3.5885-14.062-5.9062c-2.6234-1.1589-1.4542-1.3192-2.5938-4.0625-1.1395-2.7434-2.2242-4.2802-0.0625-9.5l-0.7812-0.34375z" color="#000000" fill="url(#h)" filter="url(#t)" opacity=".77" style="block-progression:tb;text-indent:0;text-transform:none"/></g><path d="m477.69 135.04c-2.5315 2.6863-10.268 8.3778-10.268 8.3778-5.1416 10.78-7.9714 26.852-7.9714 26.852-3.855 18.349 0.60601-9.5425 12.26-22.292 6.9697-7.6248 5.9797-12.938 5.9797-12.938z" fill="url(#o)"/><g><path transform="translate(272.44 1.6857)" d="m259.16 71.188c-3.7818 1.1903-11.392-0.22888-12.875 3.8438-0.0767 0.21399-0.16116 0.44757-0.25 0.65625 0.81282 6.9769 4.1668 12.38 9.2812 13.75 1.1084 0.29698 2.2396 0.37723 3.375 0.28125 1.5298-0.56515 4.1797-0.55208 4.3438-2.5625 0.25467-3.1208 3.0948-6.0812 3.5-8.9375 0.41665-2.9371-1.2881-5.6353-5.4375-6.6875-0.59277-0.15031-1.2458-0.26432-1.9375-0.34375z" color="#000000" fill="url(#g)" opacity=".88" style="block-progression:tb;text-indent:0;text-transform:none"/><path d="m312.91 324.5c-0.56474 0.25988-1.97 1.4401-1.9096 1.8592-0.43405 0.95408 5.0906 7.0578 8.3462 8.0922 4.9034 1.5579 10.24 0.95367 11.543-0.33645 0.4795-0.47487-0.10816-1.094-0.72271-1.6495-2.6203-0.28617-5.5365-0.70705-8.5856-1.524-3.9642-1.0622-6.2317-4.1151-8.6712-6.4414z" color="#000000" fill="#2a3415" opacity=".8186"/><path d="m527.83 317.52c-0.27748-1.2736-1.9358-3.8037-3.3808-1.965-4.4691 5.6869-12.389 5.1171-15.405 4.3399-0.0144 0.80871-1e-3 1.568 0.35397 1.9389 3.1887 2.323 6.9742 2.834 10.286 2.3031 0.0232-4e-3 0.0455-0.0103 0.0685-0.014 1.4716-0.4525 2.9561-0.94144 4.4062-1.4723 0.0265-0.0138 0.0503-0.0302 0.0765-0.0442 2.5536-1.3599 4.0372-3.0578 3.5952-5.0866z" color="#000000" fill="#273114" style="block-progression:tb;text-indent:0;text-transform:none"/></g></g></svg>
