<svg version="1.1" viewBox="0 0 400 480" xmlns="http://www.w3.org/2000/svg" xmlns:xlink="http://www.w3.org/1999/xlink"><defs><linearGradient id="b"><stop stop-color="#292900" offset="0"/><stop stop-color="#bcbc00" offset="1"/></linearGradient><linearGradient id="ab"><stop offset="0"/><stop stop-opacity="0" offset="1"/></linearGradient><linearGradient id="a"><stop stop-color="#fff" offset="0"/><stop stop-color="#fff" stop-opacity="0" offset="1"/></linearGradient><linearGradient id="d"><stop stop-color="#ff7a7a" offset="0"/><stop stop-color="#e10000" offset=".11111"/><stop stop-color="#4e0000" offset="1"/></linearGradient><filter id="ad" color-interpolation-filters="sRGB"><feGaussianBlur stdDeviation="1.6338965"/></filter><filter id="ac" color-interpolation-filters="sRGB"><feGaussianBlur stdDeviation="1.6338965"/></filter><radialGradient id="t" cx="64.506" cy="95.518" r="185.71" fx="64.647" fy="58.605" gradientTransform="matrix(-.84189 .48008 .34464 .60438 535.02 36.976)" gradientUnits="userSpaceOnUse" xlink:href="#d" spreadMethod="reflect"/><radialGradient id="s" cx="48.391" cy="113.4" r="168.79" gradientTransform="matrix(-.89259 0 0 .68259 606.58 56.77)" gradientUnits="userSpaceOnUse" xlink:href="#a"/><radialGradient id="r" cx="81.752" cy="162.47" r=".037824" gradientTransform="matrix(2.9354 0 0 2.0191 157.57 -204.88)" gradientUnits="userSpaceOnUse" xlink:href="#a"/><radialGradient id="q" cx="142.52" cy="167.05" r=".027809" gradientTransform="matrix(2.9354 0 0 8.0504 157.57 -1186.7)" gradientUnits="userSpaceOnUse" xlink:href="#a"/><radialGradient id="p" cx="536.22" cy="54.839" r="47.25" gradientTransform="matrix(1 0 0 .27444 0 39.789)" gradientUnits="userSpaceOnUse" xlink:href="#a"/><radialGradient id="c" cx="23.234" cy="41.705" r="40.911" fy="66.374" gradientTransform="matrix(1 0 0 .33333 0 27.803)" gradientUnits="userSpaceOnUse" xlink:href="#ab"/><linearGradient id="aa" x1="46.219" x2="258.82" y1="-171.18" y2="-171.18" gradientTransform="matrix(1.2108 0 0 1.2108 474.57 8.0444)" gradientUnits="userSpaceOnUse" xlink:href="#b"/><linearGradient id="z" x1="-108.73" x2="8.2521" y1="-35.411" y2="-277.55" gradientTransform="translate(484.87 24.244)" gradientUnits="userSpaceOnUse" xlink:href="#b"/><radialGradient id="o" cx="243.93" cy="-387.64" r="17.143" gradientTransform="matrix(3.2908 3.0857e-8 -1.2053e-8 3.2908 -561.24 904.36)" gradientUnits="userSpaceOnUse" xlink:href="#b"/><radialGradient id="n" cx="178.33" cy="-223.29" r="122.59" gradientTransform="matrix(3.8861 1.0413 -2.241 8.3637 -542.32 1598.3)" gradientUnits="userSpaceOnUse" xlink:href="#b"/><linearGradient id="y" x1="525.45" x2="579.39" y1="83.45" y2="51.906" gradientUnits="userSpaceOnUse" xlink:href="#b"/><radialGradient id="m" cx="33.73" cy="125.41" r="185.71" fx="33.872" fy="88.498" gradientTransform="matrix(.51147 .29166 -.20938 .36718 732.65 12.92)" gradientUnits="userSpaceOnUse" xlink:href="#d" spreadMethod="reflect"/><radialGradient id="l" cx="48.391" cy="113.4" r="168.79" gradientTransform="matrix(.54227 0 0 .4147 687.65 23.033)" gradientUnits="userSpaceOnUse" xlink:href="#a"/><radialGradient id="k" cx="81.752" cy="162.47" r=".037824" gradientTransform="matrix(1.7833 0 0 1.2267 505.65 -134.01)" gradientUnits="userSpaceOnUse" xlink:href="#a"/><radialGradient id="j" cx="142.52" cy="167.05" r=".027809" gradientTransform="matrix(1.7833 0 0 4.8908 505.65 -730.49)" gradientUnits="userSpaceOnUse" xlink:href="#a"/><radialGradient id="i" cx="54.047" cy="112.42" r="73.271" gradientTransform="matrix(.54317 0 0 .13282 707.2 39.171)" gradientUnits="userSpaceOnUse" xlink:href="#a"/><radialGradient id="h" cx="537.34" cy="44.018" r="59.053" gradientTransform="matrix(.60753 0 0 .15979 409.92 10.164)" gradientUnits="userSpaceOnUse" xlink:href="#a"/><linearGradient id="x" x1="46.219" x2="258.82" y1="-171.18" y2="-171.18" gradientTransform="matrix(.73562 0 0 .73562 698.24 -4.6571)" gradientUnits="userSpaceOnUse" xlink:href="#b"/><linearGradient id="w" x1="-108.73" x2="8.2521" y1="-35.411" y2="-277.55" gradientTransform="matrix(.60753 0 0 .60753 704.5 5.1845)" gradientUnits="userSpaceOnUse" xlink:href="#b"/><radialGradient id="g" cx="243.93" cy="-387.64" r="17.143" gradientTransform="matrix(3.2908 3.0857e-8 -1.2053e-8 3.2908 -561.24 904.36)" gradientUnits="userSpaceOnUse" xlink:href="#b"/><radialGradient id="f" cx="178.33" cy="-223.29" r="122.59" gradientTransform="matrix(2.3609 .63261 -1.3615 5.0812 80.445 961.47)" gradientUnits="userSpaceOnUse" xlink:href="#b"/><radialGradient id="e" cx="541.55" cy="84.986" r="10.363" gradientTransform="matrix(2.4001 0 0 .58586 -555.52 -9.9078)" gradientUnits="userSpaceOnUse" xlink:href="#b"/><radialGradient id="v" cx="720.15" cy="73.236" r="63.89" gradientTransform="matrix(1.142 0 0 .77727 -102.61 11.312)" gradientUnits="userSpaceOnUse" xlink:href="#a"/><radialGradient id="u" cx="540.74" cy="103.42" r="90.308" gradientTransform="matrix(1 0 0 .34172 0 68.079)" gradientUnits="userSpaceOnUse" xlink:href="#a"/></defs><g transform="translate(-634.21 298.39)"><g transform="translate(2.4253 -1.1824)"><path d="m1015.8-59.231c-15.624 4.714-27.363 13.543-41.227 19.956-49.287 25.684-95.076 53.032-131.54 82.482-18.593 14.622-35.58 29.551-50.919 44.672-29.738-0.20454-64.951 0.45141-93.047 12.662-35.354 14.01-43.84 36.952-32.987 52.395 5.8746 12.678 24.884 22.294 52.685 24.021 30.977 2.7553 69.886-2.1971 98.453-15.551 36.968-16.161 58.466-42.41 42.473-59.925-9.6963-10.086-33.992-13.375-58.359-13.384 54.823-51.186 127.56-101.21 221.19-140.84-15.453 5.2651 15.037-4.989-3.0465-6.1633-1.1066-0.23502-2.3796-0.30438-3.6785-0.32104z" filter="url(#ac)" opacity=".36058"/><path d="m879.89-112.07c-11.817-0.7454-9.8388 6.7647-8.1925 5.6465-4.507-1.9403 5.6953 5.2956 6.7821 7.1116 27.72 27.689 36.823 60.851 33.884 94.945-17.664 0.34762-37.628 2.6254-53.157 9.7658-25.558 10.695-30.566 27.53-21.953 38.75 4.9523 10.356 23.592 16.866 46.844 16.978 21.589 0.7411 46.632-3.8173 65.094-12.764 26.049-12.03 41.023-31.123 28.324-43.51-7.733-7.2818-26.144-9.1672-44.018-9.234-14.099 1.5744-16.062-2.0226-13.35-8.0949 2.2278-26.845-3.6456-52.857-20.593-76.051-5.634-7.8604-10.85-15.915-17.909-23.334l-1.7543-0.20832z" filter="url(#ad)" opacity=".36058"/><g transform="matrix(-.44432 0 0 .44432 1122.9 -75.732)"><g><path d="m371.38 138.4c-0.7689 62.734 24.733 114.48 78.686 150.24 53.416 30.714 151.01 29.27 198.85-33.586 37.762-49.608 56.731-101.21 39.568-160.58-12.234-34.9-47.815-68.226-83.712-74.655-43.991-10.312-89.832-8.0633-134.38-3.2124-35.739 5.0336-72.546 29.809-86.48 65.446-8.7321 19.899-12.756 34.788-12.532 56.346z" fill="url(#t)"/><path d="m631.05 97.75c-3.5054 73.581 4.1815 18.577-13.191-13.834-75.901 63.64-148.59 17.123-159.76-0.15466-2.0668-2.7432-9.502-8.6742-7.2444-10.37 30.41 22.79 69.472 33.477 106.09 26.969 22.658-4.0457 48.256-14.352 55.309-21.199 19.232-18.671 17.793 7.004 18.794 18.589z" fill="url(#u)"/><path d="m452.12 121.81c-0.16918 3.993-33.099 84.104-30.899 73.962 0.5557-1.7517-12.254-162.62 30.899-73.962z" fill="url(#s)"/><path d="m397.43 123.08c0.29608 0.20368 0.29608 0.20368 0 0z" fill="url(#r)"/><path d="m575.84 158.02c0.35988-0.53547 0.0147 0.95589 0 0z" fill="url(#q)"/><path d="m489.04 67.806c-1.7294-19.883 31.215-27.466 53.319-25.682 16.092 0.59367 39.915 4.1228 41.116 18.702-24.147-20.082-79.309-19.99-94.435 6.9802z" fill="url(#p)"/><path transform="matrix(1.6363 0 0 2.0712 503.01 -17.927)" d="m64.145 41.705a40.911 13.637 0 0 1-40.911 13.637 40.911 13.637 0 0 1-40.911-13.637 40.911 13.637 0 0 1 40.911-13.637 40.911 13.637 0 0 1 40.911 13.637z" fill="url(#c)"/><path d="m772.17-471.54c-3.1457 0.11018-5.7273 1.2766-7.0001 3.4811-53.279 77.476-105.53 158.18-138.56 229.91-38.763 85.207-70.434 182.21-90.321 287.57v0.03784c-1.6873 8.9422-3.2647 17.966-4.7677 27.017-3.6476 0.94941-6.092 2.6356-6.092 4.5406 0 2.9578 5.8538 5.3352 13.054 5.3352s13.054-2.3774 13.054-5.3352c0-1.8335-2.2556-3.4617-5.6758-4.4271 1.1203-6.2018 2.2745-12.396 3.4811-18.541v-0.03784c19.931-101.51 51.311-194.9 89.526-276.83l0.22703-0.52974c41.564-88.973 91.151-164.79 144.92-227.9l2.573-3.0271c1.809-0.53993 3.2699-1.547 4.1244-3.0271 2.5456-4.4091-1.1185-11.289-8.1731-15.362-3.5273-2.0365-7.2221-2.9859-10.368-2.8757z" color="#000000" fill="url(#aa)" fill-rule="evenodd" style="block-progression:tb;text-indent:0;text-transform:none"/><path d="m772.17-471.54c-3.1457 0.11018-5.7273 1.2766-7.0001 3.4811-53.279 77.476-105.53 158.18-138.56 229.91-38.763 85.207-70.434 182.21-90.321 287.57v0.03784c-1.6873 8.9422-3.2647 17.966-4.7677 27.017-3.6476 0.94941-6.092 2.6356-6.092 4.5406 0 2.9578 5.8538 5.3352 13.054 5.3352 0.6391 0 1.2394-0.0395 1.8541-0.0757-6.3295-0.36507-11.238-2.5589-11.238-5.2596 0-1.9051 2.4444-3.5912 6.092-4.5406 1.503-9.0508 3.0804-18.074 4.7676-27.017v-0.03784c19.887-105.36 51.558-202.37 90.321-287.57 32.518-70.615 82.599-148.94 135.02-225.31 0.82569-1.203 0.42858-3.0933 1.2548-4.2948 1.0915-1.8905 5.4602-3.3212 8.007-3.6734-0.81714-0.0983-1.621-0.14022-2.3838-0.11345z" color="#000000" fill="url(#z)" fill-rule="evenodd" style="block-progression:tb;text-indent:0;text-transform:none"/><path transform="matrix(.57907 .33433 -.20895 .36192 553.56 -399.7)" d="m262.14-394.78a17.143 17.143 0 0 1-17.143 17.143 17.143 17.143 0 0 1-17.143-17.143 17.143 17.143 0 0 1 17.143-17.143 17.143 17.143 0 0 1 17.143 17.143z" fill="url(#o)"/></g><path d="m764.93-465.64c-0.42071 0.65691-0.71602 1.3951-0.81356 2.2648-0.50178 4.4743 3.825 9.9132 9.6643 12.128 2.1695 0.82278 4.2236 1.086 5.9981 0.86369-1.0941-0.12792-2.2403-0.40675-3.4248-0.85597-1.9987-0.75801-3.8266-1.8986-5.3372-3.2403-3.9905-2.6756-6.6245-6.7946-6.2284-10.326 0.0314-0.27964 0.0747-0.57592 0.14159-0.83416z" fill="#ff0"/><path d="m786.25-449.3c-92.437 98.66-151.81 222.38-194.29 345.95-19.801 58.876-35.762 119-47.744 179.91l2.8773 0.9375c0.43542-18.961 6.818-41.479 11.509-61.844 40.08-167.64 118.12-341.52 230.8-465.84z" color="#000000" fill="url(#n)" fill-rule="evenodd" style="block-progression:tb;text-indent:0;text-transform:none"/><path d="m525.52 80.531c0.66949 2.6984 6.1905 4.8529 12.941 4.8529 6.7012 0 12.276-2.1128 13.011-4.7825 0.0246 0.13416 0.0703 0.28536 0.0703 0.42199 0 2.9578-5.8812 5.3452-13.082 5.3452-7.2005 0-13.011-2.3874-13.011-5.3452 0-0.1674 0.0334-0.32866 0.0703-0.49232z" color="#000000" fill="url(#y)" fill-rule="evenodd" style="block-progression:tb;text-indent:0;text-transform:none"/></g><g><path d="m832.06 74.539c0.46713 38.113-15.026 69.548-47.804 91.275-32.452 18.659-98.308 19.298-127.38-18.889-22.941-30.138-27.9-63.002-17.473-99.071 7.4326-21.203 29.049-41.45 50.857-45.355 26.726-6.2649 54.576-4.8987 81.643-1.9516 21.712 3.058 44.074 18.11 52.539 39.761 5.305 12.089 7.7499 21.135 7.6135 34.232z" fill="url(#m)"/><path d="m671.43 117.28c-15.336-43.237 6.9251-74.507 13.953-77.219 45.049 34.652 90.699 14.639 98.859-0.11392 1.2789-2.0205 4.4829-7.6383 4.4829-7.6383s-16.729 23.211-66.353 16.097c-14.021-2.9799-27.584-10.278-40.703-18.097-31.596 25.844-20.248 67.067-10.239 86.971z" fill="url(#v)"/><path d="m781.48 62.548c0.10278 2.4259 20.109 51.096 18.772 44.934-0.33761-1.0642 7.445-98.794-18.772-44.934z" fill="url(#l)"/><path d="m651.37 65.233c0.17988 0.12374 0.17988 0.12374 0 0z" fill="url(#k)"/><path d="m759.76 86.459c0.21863-0.32531 9e-3 0.58073 0 0z" fill="url(#j)"/><path d="m701.5 37.506c11.426 16.389 48.942 22.669 69.105 3.6253-17.465 9.9978-50.24 9.4268-69.105-3.6253z" fill="url(#i)"/><path d="m776.74 23.973c-25.622-12.378-65.17-8.3447-79.554 0.93208 13.522-19.134 71.578-16.378 79.554-0.93208z" fill="url(#h)"/><path transform="matrix(1.0801 0 0 1.3672 712.54 -27.419)" d="m64.145 41.705a40.911 13.637 0 0 1-40.911 13.637 40.911 13.637 0 0 1-40.911-13.637 40.911 13.637 0 0 1 40.911-13.637 40.911 13.637 0 0 1 40.911 13.637z" fill="url(#c)"/><path d="m879.04-296.02c-1.9111 0.0669-3.4795 0.77555-4.2528 2.1149-32.369 47.069-64.115 96.099-84.182 139.68-23.55 51.766-42.791 110.7-54.872 174.71v0.02299c-1.0251 5.4327-1.9834 10.915-2.8965 16.413-2.216 0.5768-3.7011 1.6012-3.7011 2.7586 0 1.797 3.5564 3.2413 7.9309 3.2413 4.3745 0 7.9309-1.4443 7.9309-3.2413 0-1.1139-1.3704-2.1031-3.4482-2.6896 0.68062-3.7678 1.3818-7.5312 2.1149-11.264v-0.02299c12.109-61.669 31.173-118.41 54.39-168.18l0.13793-0.32184c25.252-54.054 55.377-100.12 88.044-138.46l1.5632-1.839c1.099-0.32802 1.9866-0.93988 2.5057-1.839 1.5465-2.6787-0.67952-6.8587-4.9654-9.3331-2.1429-1.2372-4.3876-1.814-6.2987-1.7471z" color="#000000" fill="url(#x)" fill-rule="evenodd" style="block-progression:tb;text-indent:0;text-transform:none"/><path d="m879.04-296.02c-1.9111 0.0669-3.4795 0.77555-4.2528 2.1149-32.369 47.069-64.115 96.099-84.182 139.68-23.55 51.766-42.791 110.7-54.872 174.71v0.02299c-1.0251 5.4327-1.9834 10.915-2.8965 16.413-2.216 0.5768-3.7011 1.6012-3.7011 2.7586 0 1.797 3.5564 3.2413 7.9309 3.2413 0.38828 0 0.75295-0.024 1.1264-0.04599-3.8454-0.22179-6.8274-1.5546-6.8274-3.1953 0-1.1574 1.4851-2.1818 3.7011-2.7586 0.91309-5.4986 1.8714-10.981 2.8965-16.413v-0.02299c12.082-64.01 31.323-122.94 54.872-174.71 19.756-42.901 50.182-90.483 82.027-136.88 0.50164-0.73086 0.26038-1.8793 0.76235-2.6092 0.6631-1.1485 3.3172-2.0177 4.8645-2.2317-0.49644-0.0597-0.98484-0.0852-1.4482-0.0689z" color="#000000" fill="url(#w)" fill-rule="evenodd" style="block-progression:tb;text-indent:0;text-transform:none"/><path transform="matrix(.3518 .20311 -.12695 .21988 746.23 -252.38)" d="m262.14-394.78a17.143 17.143 0 0 1-17.143 17.143 17.143 17.143 0 0 1-17.143-17.143 17.143 17.143 0 0 1 17.143-17.143 17.143 17.143 0 0 1 17.143 17.143z" fill="url(#g)"/></g><path d="m874.64-292.44c-0.2556 0.3991-0.43501 0.84759-0.49426 1.376-0.30485 2.7183 2.3238 6.0225 5.8714 7.3679 1.318 0.49986 2.566 0.6598 3.644 0.52472-0.6647-0.0777-1.361-0.24712-2.0807-0.52003-1.2142-0.46051-2.3247-1.1535-3.2425-1.9686-2.4244-1.6255-4.0246-4.1279-3.784-6.2732 0.0191-0.16989 0.0454-0.34989 0.086-0.50678z" fill="#ff0"/><path d="m887.59-282.51c-56.158 59.939-92.227 135.1-118.04 210.17-12.03 35.769-21.727 72.297-29.006 109.3l1.748 0.56956c0.26453-11.519 4.1421-25.2 6.9921-37.572 24.35-101.85 71.759-207.49 140.22-283.01z" color="#000000" fill="url(#f)" fill-rule="evenodd" style="block-progression:tb;text-indent:0;text-transform:none"/><path d="m743.12 37.809c-0.5611 1.188-3.1122 2.0574-6.1721 2.0574-3.0361 0-5.5847-0.85841-6.1721-2.0326-0.0684 0.1523-0.12394 0.31093-0.12394 0.47096 0 1.4254 2.8261 2.5779 6.296 2.5779 3.4698 0 6.296-1.1525 6.296-2.5779 0-0.16916-0.048-0.33538-0.12394-0.49575z" color="#000000" fill="url(#e)" fill-rule="evenodd" style="block-progression:tb;text-indent:0;text-transform:none"/></g></g></svg>
