<svg width="541.87mm" height="304.8mm" version="1.1" viewBox="0 0 1920 1080" xmlns="http://www.w3.org/2000/svg"><defs><clipPath id="a"><rect x="-243.45" y="301.14" width="672.02" height="378.01" fill="#520"/></clipPath></defs><g transform="translate(747.14 -56.624)"><g transform="matrix(2.857 0 0 2.857 -51.585 -803.75)" clip-path="url(#a)" fill-rule="evenodd" shape-rendering="auto"><path d="m671 363.54c-31.002 161.41-73.532 259.02-121.2 318.66-4.8825 6.1089-9.8188 11.819-14.802 17.159-47.868 51.29-100.24 69.415-154.52 78.286-6.5349 1.068-13.097 2.0019-19.683 2.8434-57.99 7.41-117.49 6.7796-172.01 28.256-3.0957 1.2193-6.1754 2.5099-9.2379 3.8773-55.11 24.606-102.85 74.735-135.31 177.63-1.1143 3.5325-2.2106 7.1271-3.2886 10.785 0 0 15.001 4.4214 18.472 5.4447 0.45434 0.1339 0.71125 0.2096 0.71125 0.2096 29.372-99.668 70.08-146.39 117.43-170.93 3.3457-1.7334 6.7246-3.3561 10.135-4.8788 50.714-22.643 110.25-22.505 172.1-30.114 1.1753-0.14458 2.3514-0.29196 3.5283-0.44235 63.118-8.0653 128.83-25.755 186.29-87.322 1.1442-1.226 2.285-2.4688 3.4224-3.7288 54.88-60.795 101.83-161.5 135.58-331.63 0.67788-3.4174 1.3504-6.8628 2.0176-10.336 0 0-19.641-3.7715-19.641-3.7715" color="#000000" color-rendering="auto" fill="#001801" image-rendering="auto" opacity=".92971" solid-color="#000000" style="block-progression:tb;isolation:auto;mix-blend-mode:normal;text-decoration-color:#000000;text-decoration-line:none;text-decoration-style:solid;text-indent:0;text-transform:none;white-space:normal"/><path d="m658.69 358.43c-30.882 160.56-73.26 257.58-120.74 316.81-4.8637 6.0673-9.781 11.738-14.745 17.041-47.636 50.895-99.758 68.861-153.77 77.659-6.4995 1.0588-13.026 1.9846-19.576 2.819-57.673 7.3471-116.84 6.7397-171.07 28.099-3.0788 1.2127-6.1417 2.4962-9.1874 3.856-54.829 24.48-102.33 74.341-134.61 176.62-1.0966 3.4764-2.1245 7.0311-3.1252 10.651 0.08579 0.0287 14.952 4.4146 18.369 5.4217 0.44795 0.12935 0.70159 0.20143 0.70241 0.19899 29.245-99.097 69.775-145.5 116.93-169.87 3.3288-1.7202 6.6907-3.3304 10.084-4.8413 50.441-22.462 109.65-22.327 171.17-29.889 1.1689-0.14367 2.3386-0.29012 3.5091-0.43956 62.785-8.0158 128.16-25.596 185.32-86.751 1.1389-1.2183 2.2745-2.4533 3.4066-3.7054 54.649-60.435 101.4-160.56 134.99-329.73 0.66712-3.3632 1.2806-6.7644 1.8786-10.196-0.0897-0.0195-19.532-3.7559-19.532-3.7559" color="#000000" color-rendering="auto" fill="#002206" image-rendering="auto" opacity=".93245" solid-color="#000000" style="block-progression:tb;isolation:auto;mix-blend-mode:normal;text-decoration-color:#000000;text-decoration-line:none;text-decoration-style:solid;text-indent:0;text-transform:none;white-space:normal"/><path d="m646.38 353.33c-30.762 159.7-72.987 256.13-120.29 314.96-4.8448 6.0258-9.7432 11.658-14.688 16.923-47.405 50.501-99.271 68.308-153.02 77.032-6.4642 1.0495-12.955 1.9673-19.469 2.7946-57.355 7.2842-116.19 6.6998-170.13 27.942-3.0619 1.206-6.1079 2.4824-9.1368 3.8347-54.548 24.354-101.81 73.947-133.92 175.62-1.079 3.4203-2.0383 6.935-2.9619 10.517 0.17157 0.0573 14.904 4.408 18.266 5.3988 0.44155 0.12478 0.69193 0.19322 0.69357 0.18835 29.118-98.525 69.471-144.61 116.43-168.8 3.3119-1.7069 6.6568-3.3046 10.033-4.8038 50.168-22.281 109.06-22.149 170.24-29.663 1.1624-0.14275 2.3257-0.28827 3.4898-0.43676 62.452-7.9662 127.48-25.436 184.35-86.18 1.1336-1.2106 2.264-2.4378 3.3909-3.6821 54.418-60.074 100.96-159.62 134.4-327.84 0.65636-3.3089 1.2107-6.666 1.7396-10.055-0.17937-0.0391-19.423-3.7403-19.423-3.7403" color="#000000" color-rendering="auto" fill="#002512" image-rendering="auto" opacity=".90675" solid-color="#000000" style="block-progression:tb;isolation:auto;mix-blend-mode:normal;text-decoration-color:#000000;text-decoration-line:none;text-decoration-style:solid;text-indent:0;text-transform:none;white-space:normal"/><path d="m634.07 348.23c-30.643 158.85-72.714 254.68-119.83 313.1-4.826 5.9842-9.7053 11.577-14.631 16.805-47.173 50.106-98.783 67.754-152.28 76.405-6.4288 1.0403-12.885 1.95-19.363 2.7702-57.038 7.2213-115.55 6.6598-169.18 27.785-3.045 1.1993-6.0742 2.4687-9.0862 3.8134-54.268 24.228-101.29 73.553-133.22 174.61-1.0613 3.3642-1.9521 6.839-2.7985 10.383 0.25736 0.086 14.856 4.4012 18.162 5.3758 0.43516 0.12022 0.68228 0.18502 0.68473 0.17771 28.992-97.954 69.166-143.72 115.92-167.74 3.295-1.6936 6.6229-3.2789 9.9821-4.7664 49.895-22.1 108.46-21.971 169.32-29.438 1.156-0.14183 2.3129-0.28642 3.4706-0.43396 62.119-7.9167 126.8-25.277 183.39-85.609 1.1284-1.2029 2.2534-2.4224 3.3751-3.6587 54.188-59.714 100.53-158.68 133.81-325.94 0.6456-3.2547 1.1409-6.5677 1.6006-9.9142-0.26906-0.0586-19.315-3.7247-19.315-3.7247" color="#000000" color-rendering="auto" fill="#003e12" image-rendering="auto" opacity=".90584" solid-color="#000000" style="block-progression:tb;isolation:auto;mix-blend-mode:normal;text-decoration-color:#000000;text-decoration-line:none;text-decoration-style:solid;text-indent:0;text-transform:none;white-space:normal"/><path d="m621.75 343.12c-30.523 158-72.441 253.23-119.38 311.25-4.8072 5.9427-9.6675 11.496-14.574 16.687-46.941 49.711-98.296 67.201-151.53 75.779-6.3934 1.031-12.814 1.9327-19.256 2.7458-56.721 7.1584-114.9 6.6199-168.24 27.628-3.0281 1.1927-6.0404 2.4549-9.0357 3.7921-53.987 24.101-100.77 73.158-132.53 173.61-1.0436 3.3082-1.8659 6.7429-2.6351 10.249 0.34314 0.11468 14.808 4.3945 18.059 5.3529 0.42876 0.11565 0.67262 0.17681 0.67589 0.16707 28.865-97.383 68.862-142.84 115.42-166.68 3.278-1.6803 6.589-3.2532 9.9312-4.7289 49.622-21.919 107.86-21.793 168.39-29.212 1.1496-0.14092 2.3001-0.28457 3.4513-0.43116 61.786-7.8672 126.13-25.117 182.42-85.038 1.1231-1.1952 2.2429-2.4069 3.3594-3.6353 53.957-59.354 100.09-157.74 133.22-324.05 0.63484-3.2004 1.071-6.4693 1.4616-9.7734-0.35874-0.0782-19.206-3.7091-19.206-3.7091" color="#000000" color-rendering="auto" fill="#00380e" image-rendering="auto" opacity=".94231" solid-color="#000000" style="block-progression:tb;isolation:auto;mix-blend-mode:normal;text-decoration-color:#000000;text-decoration-line:none;text-decoration-style:solid;text-indent:0;text-transform:none;white-space:normal"/><path d="m609.44 338.02c-30.403 157.14-72.169 251.78-118.93 309.4-4.7884 5.9012-9.6297 11.415-14.517 16.569-46.709 49.316-97.809 66.647-150.78 75.152-6.3581 1.0218-12.743 1.9154-19.149 2.7214-56.403 7.0955-114.25 6.58-167.3 27.472-3.0112 1.186-6.0066 2.4412-8.9851 3.7708-53.706 23.975-100.24 72.764-131.84 172.6-1.0259 3.2521-1.7797 6.6469-2.4717 10.115 0.42892 0.14335 14.76 4.3878 17.956 5.3299 0.42237 0.11108 0.66296 0.1686 0.66706 0.15642 28.738-96.811 68.557-141.95 114.92-165.62 3.2611-1.6671 6.5551-3.2274 9.8802-4.6914 49.349-21.738 107.27-21.616 167.46-28.986 1.1432-0.14 2.2872-0.28272 3.432-0.42837 61.453-7.8176 125.45-24.958 181.45-84.466 1.1178-1.1875 2.2324-2.3914 3.3436-3.6119 53.726-58.994 99.659-156.8 132.63-322.15 0.62408-3.1462 1.0012-6.3709 1.3225-9.6327-0.44843-0.0977-19.098-3.6935-19.098-3.6935" color="#000000" color-rendering="auto" fill="#003912" image-rendering="auto" opacity=".92638" solid-color="#000000" style="block-progression:tb;isolation:auto;mix-blend-mode:normal;text-decoration-color:#000000;text-decoration-line:none;text-decoration-style:solid;text-indent:0;text-transform:none;white-space:normal"/><path d="m597.13 332.92c-30.283 156.29-71.896 250.33-118.47 307.55-4.7696 5.8596-9.5918 11.334-14.46 16.451-46.478 48.921-97.322 66.094-150.03 74.525-6.3227 1.0125-12.672 1.8982-19.043 2.697-56.086 7.0326-113.61 6.5401-166.35 27.315-2.9943 1.1793-5.9729 2.4274-8.9346 3.7495-53.426 23.849-99.723 72.37-131.14 171.6-1.0082 3.196-1.6936 6.5508-2.3083 9.9809 0.51471 0.17203 14.711 4.3811 17.853 5.307 0.41597 0.10651 0.65331 0.16039 0.65822 0.14578 28.611-96.24 68.252-141.06 114.42-164.56 3.2442-1.6538 6.5212-3.2017 9.8292-4.654 49.076-21.557 106.67-21.438 166.53-28.761 1.1368-0.13908 2.2744-0.28087 3.4128-0.42557 61.12-7.7681 124.78-24.799 180.48-83.895 1.1126-1.1798 2.2218-2.3759 3.3278-3.5885 53.496-58.634 99.224-155.86 132.04-320.26 0.61332-3.0919 0.93133-6.2725 1.1835-9.4919-0.53811-0.11725-18.989-3.6779-18.989-3.6779" color="#000000" color-rendering="auto" fill="#003b1a" image-rendering="auto" opacity=".94905" solid-color="#000000" style="block-progression:tb;isolation:auto;mix-blend-mode:normal;text-decoration-color:#000000;text-decoration-line:none;text-decoration-style:solid;text-indent:0;text-transform:none;white-space:normal"/><path d="m584.82 327.81c-30.164 155.44-71.623 248.88-118.02 305.69-4.7508 5.8181-9.554 11.253-14.403 16.333-46.246 48.527-96.834 65.54-149.28 73.898-6.2874 1.0033-12.601 1.8809-18.936 2.6725-55.769 6.9697-112.96 6.5002-165.41 27.158-2.9774 1.1726-5.9391 2.4137-8.884 3.7282-53.145 23.723-99.202 71.976-130.45 170.59-0.99051 3.14-1.6074 6.4548-2.145 9.8468 0.60049 0.2007 14.663 4.3744 17.749 5.284 0.40958 0.10195 0.64365 0.15219 0.64938 0.13514 28.485-95.669 67.948-140.17 113.92-163.5 3.2273-1.6405 6.4872-3.1759 9.7783-4.6165 48.803-21.376 106.08-21.26 165.6-28.535 1.1304-0.13817 2.2616-0.27902 3.3935-0.42277 60.787-7.7185 124.1-24.639 179.51-83.324 1.1073-1.1721 2.2113-2.3604 3.3121-3.5652 53.265-58.273 98.79-154.93 131.45-318.37 0.60255-3.0377 0.86147-6.1741 1.0445-9.3512-0.6278-0.13679-18.881-3.6623-18.881-3.6623" color="#000000" color-rendering="auto" fill="#003a18" image-rendering="auto" opacity=".96085" solid-color="#000000" style="block-progression:tb;isolation:auto;mix-blend-mode:normal;text-decoration-color:#000000;text-decoration-line:none;text-decoration-style:solid;text-indent:0;text-transform:none;white-space:normal"/><path d="m572.51 322.71c-30.044 154.58-71.35 247.43-117.57 303.84-4.732 5.7766-9.5162 11.173-14.346 16.215-46.014 48.132-96.347 64.987-148.53 73.272-6.252 0.99401-12.53 1.8636-18.829 2.6481-55.451 6.9068-112.31 6.4603-164.47 27.001-2.9605 1.166-5.9054 2.3999-8.8334 3.707-52.864 23.597-98.681 71.581-129.75 169.59-0.97283 3.0839-1.5212 6.3587-1.9816 9.7128 0.68628 0.22937 14.615 4.3677 17.646 5.2611 0.40318 0.0974 0.634 0.14398 0.64054 0.1245 28.358-95.098 67.643-139.28 113.41-162.44 3.2104-1.6272 6.4533-3.1502 9.7273-4.579 48.53-21.195 105.48-21.082 164.67-28.31 1.124-0.13725 2.2487-0.27718 3.3743-0.41998 60.454-7.669 123.43-24.48 178.55-82.753 1.102-1.1644 2.2008-2.3449 3.2963-3.5418 53.034-57.913 98.356-153.99 130.86-316.47 0.59179-2.9834 0.79162-6.0757 0.90549-9.2104-0.71748-0.15633-18.772-3.6468-18.772-3.6468" color="#000000" color-rendering="auto" fill="#00401e" image-rendering="auto" opacity=".96453" solid-color="#000000" style="block-progression:tb;isolation:auto;mix-blend-mode:normal;text-decoration-color:#000000;text-decoration-line:none;text-decoration-style:solid;text-indent:0;text-transform:none;white-space:normal"/><path d="m560.2 317.6c-29.924 153.73-71.077 245.98-117.11 301.99-4.7132 5.735-9.4784 11.092-14.289 16.097-45.782 47.737-95.86 64.433-147.78 72.645-6.2166 0.98476-12.459 1.8463-18.723 2.6237-55.134 6.8439-111.67 6.4204-163.53 26.845-2.9436 1.1593-5.8716 2.3862-8.7829 3.6857-52.583 23.471-98.16 71.187-129.06 168.58-0.95514 3.0278-1.435 6.2626-1.8182 9.5788 0.77206 0.25805 14.567 4.361 17.543 5.2381 0.39679 0.0928 0.62434 0.13577 0.6317 0.11385 28.231-94.526 67.339-138.39 112.91-161.38 3.1934-1.614 6.4194-3.1245 9.6764-4.5415 48.257-21.014 104.89-20.904 163.74-28.084 1.1175-0.13634 2.2359-0.27533 3.355-0.41718 60.121-7.6195 122.75-24.32 177.58-82.182 1.0967-1.1567 2.1903-2.3294 3.2806-3.5184 52.803-57.553 97.921-153.05 130.27-314.58 0.58104-2.9292 0.72178-5.9774 0.76649-9.0696-0.80716-0.17587-18.664-3.6312-18.664-3.6312" color="#000000" color-rendering="auto" fill="#004421" image-rendering="auto" opacity=".98987" solid-color="#000000" style="block-progression:tb;isolation:auto;mix-blend-mode:normal;text-decoration-color:#000000;text-decoration-line:none;text-decoration-style:solid;text-indent:0;text-transform:none;white-space:normal"/><path d="m547.89 312.5c-29.804 152.88-70.805 244.53-116.66 300.14-4.6944 5.6935-9.4405 11.011-14.232 15.979-45.551 47.342-95.373 63.88-147.03 72.018-6.1813 0.9755-12.388 1.829-18.616 2.5993-54.816 6.781-111.02 6.3804-162.58 26.688-2.9267 1.1526-5.8379 2.3724-8.7323 3.6644-52.303 23.345-97.638 70.793-128.36 167.58-0.93745 2.9718-1.3488 6.1666-1.6548 9.4447 0.85785 0.28672 14.519 4.3543 17.439 5.2152 0.39039 0.0882 0.61468 0.12756 0.62286 0.10321 28.104-93.955 67.034-137.5 112.41-160.32 3.1765-1.6007 6.3855-3.0987 9.6254-4.5041 47.985-20.833 104.29-20.726 162.81-27.858 1.1111-0.13541 2.223-0.27348 3.3357-0.41438 59.788-7.5699 122.07-24.161 176.61-81.611 1.0915-1.149 2.1798-2.3139 3.2648-3.495 52.573-57.193 97.487-152.11 129.68-312.68 0.57028-2.875 0.65193-5.879 0.62747-8.9289-0.89684-0.19542-18.555-3.6156-18.555-3.6156" color="#000000" color-rendering="auto" fill="#003b24" image-rendering="auto" opacity=".98647" solid-color="#000000" style="block-progression:tb;isolation:auto;mix-blend-mode:normal;text-decoration-color:#000000;text-decoration-line:none;text-decoration-style:solid;text-indent:0;text-transform:none;white-space:normal"/><path d="m535.58 307.4c-29.684 152.02-70.532 243.08-116.2 298.29-4.6756 5.6519-9.4027 10.93-14.175 15.861-45.319 46.947-94.885 63.326-146.28 71.391-6.1459 0.96625-12.317 1.8117-18.509 2.5749-54.499 6.7181-110.38 6.3405-161.64 26.531-2.9098 1.146-5.8041 2.3587-8.6818 3.6431-52.022 23.218-97.117 70.399-127.67 166.57-0.91976 2.9157-1.2627 6.0705-1.4914 9.3107 0.94364 0.31539 14.47 4.3476 17.336 5.1922 0.38399 0.0837 0.60503 0.11936 0.61402 0.0926 27.978-93.384 66.729-136.61 111.91-159.26 3.1596-1.5874 6.3516-3.073 9.5744-4.4666 47.712-20.652 103.7-20.548 161.88-27.633 1.1047-0.1345 2.2102-0.27163 3.3165-0.41158 59.455-7.5204 121.4-24.002 175.64-81.04 1.0862-1.1413 2.1692-2.2984 3.2491-3.4716 52.342-56.833 97.052-151.17 129.09-310.79 0.55952-2.8207 0.58208-5.7806 0.48846-8.7881-0.98653-0.21495-18.446-3.6-18.446-3.6" color="#000000" color-rendering="auto" fill="#004b29" image-rendering="auto" opacity=".96614" solid-color="#000000" style="block-progression:tb;isolation:auto;mix-blend-mode:normal;text-decoration-color:#000000;text-decoration-line:none;text-decoration-style:solid;text-indent:0;text-transform:none;white-space:normal"/><path d="m523.27 302.29c-29.565 151.17-70.259 241.63-115.75 296.43-4.6567 5.6104-9.3649 10.849-14.118 15.743-45.087 46.553-94.398 62.773-145.53 70.765-6.1105 0.95699-12.246 1.7944-18.403 2.5505-54.182 6.6552-109.73 6.3006-160.7 26.374-2.8929 1.1393-5.7703 2.3449-8.6312 3.6218-51.741 23.092-96.596 70.004-126.97 165.56-0.90207 2.8596-1.1765 5.9745-1.3281 9.1767 1.0294 0.34405 14.422 4.3409 17.233 5.1693 0.3776 0.0791 0.59537 0.11115 0.60519 0.0819 27.851-92.812 66.425-135.72 111.41-158.2 3.1427-1.5742 6.3177-3.0473 9.5235-4.4291 47.439-20.471 103.1-20.371 160.96-27.407 1.0983-0.13359 2.1974-0.26979 3.2972-0.40879 59.122-7.4708 120.72-23.842 174.67-80.468 1.0809-1.1336 2.1587-2.2829 3.2333-3.4482 52.111-56.473 96.618-150.23 128.5-308.89 0.54876-2.7665 0.51223-5.6822 0.34944-8.6474-1.0762-0.2345-18.338-3.5844-18.338-3.5844" color="#000000" color-rendering="auto" fill="#003e27" image-rendering="auto" opacity=".97347" solid-color="#000000" style="block-progression:tb;isolation:auto;mix-blend-mode:normal;text-decoration-color:#000000;text-decoration-line:none;text-decoration-style:solid;text-indent:0;text-transform:none;white-space:normal"/><path d="m510.96 297.19c-29.445 150.32-69.986 240.19-115.3 294.58-4.6379 5.5688-9.327 10.768-14.061 15.625-44.855 46.158-93.911 62.219-144.79 70.138-6.0752 0.94774-12.175 1.7771-18.296 2.5261-53.864 6.5923-109.08 6.2607-159.76 26.218-2.876 1.1326-5.7366 2.3312-8.5807 3.6005-51.46 22.966-96.075 69.61-126.28 164.56-0.88439 2.8035-1.0903 5.8784-1.1647 9.0426 1.1152 0.37273 14.374 4.3342 17.129 5.1463 0.3712 0.0745 0.58572 0.10294 0.59635 0.0713 27.724-92.241 66.12-134.83 110.9-157.14 3.1257-1.5609 6.2838-3.0215 9.4725-4.3916 47.166-20.29 102.5-20.193 160.03-27.182 1.0918-0.13266 2.1845-0.26793 3.278-0.40599 58.789-7.4213 120.05-23.683 173.71-79.897 1.0756-1.1259 2.1482-2.2674 3.2175-3.4248 51.881-56.112 96.184-149.29 127.91-307 0.538-2.7122 0.44238-5.5838 0.21043-8.5066-1.1659-0.25404-18.229-3.5688-18.229-3.5688" color="#000000" color-rendering="auto" fill="#004f2d" image-rendering="auto" opacity=".97611" solid-color="#000000" style="block-progression:tb;isolation:auto;mix-blend-mode:normal;text-decoration-color:#000000;text-decoration-line:none;text-decoration-style:solid;text-indent:0;text-transform:none;white-space:normal"/><path d="m498.65 292.09c-29.325 149.46-69.713 238.74-114.84 292.73-4.6191 5.5273-9.2892 10.688-14.004 15.507-44.624 45.763-93.424 61.666-144.04 69.511-6.0398 0.93849-12.104 1.7598-18.189 2.5017-53.547 6.5294-108.44 6.2208-158.81 26.061-2.8591 1.126-5.7028 2.3174-8.5301 3.5792-51.18 22.84-95.553 69.216-125.58 163.55-0.8667 2.7475-1.0041 5.7824-1.0013 8.9086 1.201 0.4014 14.326 4.3275 17.026 5.1234 0.36481 0.07 0.57606 0.0947 0.58751 0.0607 27.598-91.67 65.816-133.94 110.4-156.07 3.1088-1.5476 6.2499-2.9958 9.4216-4.3542 46.893-20.109 101.91-20.015 159.1-26.956 1.0854-0.13175 2.1717-0.26608 3.2587-0.40319 58.456-7.3718 119.37-23.523 172.74-79.326 1.0704-1.1182 2.1377-2.252 3.2018-3.4015 51.65-55.752 95.749-148.35 127.32-305.1 0.52724-2.658 0.37253-5.4854 0.0714-8.3658-1.2556-0.27358-18.121-3.5532-18.121-3.5532" color="#000000" color-rendering="auto" fill="#00502f" image-rendering="auto" opacity=".988" solid-color="#000000" style="block-progression:tb;isolation:auto;mix-blend-mode:normal;text-decoration-color:#000000;text-decoration-line:none;text-decoration-style:solid;text-indent:0;text-transform:none;white-space:normal"/><path d="m486.34 286.98c-29.205 148.61-69.441 237.29-114.39 290.88-4.6003 5.4858-9.2514 10.607-13.948 15.389-44.392 45.368-92.936 61.112-143.29 68.884-6.0044 0.92924-12.034 1.7425-18.083 2.4772-53.23 6.4665-107.79 6.1809-157.87 25.904-2.8422 1.1193-5.6691 2.3037-8.4795 3.5579-50.899 22.714-95.032 68.822-124.89 162.55-0.84901 2.6914-0.91795 5.6863-0.83792 8.7746 1.2868 0.43007 14.278 4.3208 16.923 5.1004 0.35841 0.0654 0.5664 0.0865 0.57867 0.05 27.471-91.098 65.511-133.05 109.9-155.01 3.0919-1.5343 6.216-2.97 9.3706-4.3167 46.62-19.928 101.31-19.837 158.17-26.73 1.079-0.13084 2.1588-0.26424 3.2394-0.4004 58.123-7.3222 118.7-23.364 171.77-78.755 1.0651-1.1105 2.1271-2.2365 3.186-3.3781 51.419-55.392 95.315-147.41 126.73-303.21 0.51648-2.6037 0.30268-5.387-0.0676-8.2251-1.3453-0.29312-18.012-3.5376-18.012-3.5376" color="#000000" color-rendering="auto" fill="#005e34" image-rendering="auto" opacity=".95682" solid-color="#000000" style="block-progression:tb;isolation:auto;mix-blend-mode:normal;text-decoration-color:#000000;text-decoration-line:none;text-decoration-style:solid;text-indent:0;text-transform:none;white-space:normal"/><path d="m474.02 281.88c-29.085 147.76-69.168 235.84-113.94 289.03-4.5815 5.4442-9.2136 10.526-13.891 15.271-44.16 44.973-92.449 60.559-142.54 68.258-5.9691 0.91999-11.963 1.7252-17.976 2.4528-52.912 6.4036-107.14 6.141-156.93 25.747-2.8253 1.1126-5.6353 2.29-8.429 3.5366-50.618 22.588-94.511 68.427-124.19 161.54-0.83132 2.6353-0.83177 5.5903-0.67454 8.6405 1.3726 0.45875 14.229 4.314 16.82 5.0775 0.35202 0.0608 0.55675 0.0783 0.56983 0.0394 27.344-90.527 65.206-132.16 109.4-153.95 3.075-1.521 6.1821-2.9443 9.3196-4.2792 46.347-19.747 100.72-19.659 157.24-26.505 1.0726-0.12991 2.146-0.26238 3.2202-0.39759 57.79-7.2727 118.02-23.205 170.8-78.184 1.0598-1.1028 2.1166-2.221 3.1703-3.3547 51.188-55.032 94.881-146.47 126.14-301.31 0.50572-2.5495 0.23283-5.2886-0.20662-8.0843-1.435-0.31266-17.904-3.522-17.904-3.522" color="#000000" color-rendering="auto" fill="#005336" image-rendering="auto" opacity=".97026" solid-color="#000000" style="block-progression:tb;isolation:auto;mix-blend-mode:normal;text-decoration-color:#000000;text-decoration-line:none;text-decoration-style:solid;text-indent:0;text-transform:none;white-space:normal"/><path d="m461.71 276.78c-28.966 146.9-68.895 234.39-113.48 287.17-4.5627 5.4027-9.1757 10.445-13.834 15.153-43.928 44.579-91.962 60.005-141.79 67.631-5.9337 0.91074-11.892 1.7079-17.869 2.4284-52.595 6.3407-106.5 6.1011-155.99 25.591-2.8084 1.106-5.6016 2.2762-8.3784 3.5153-50.338 22.462-93.99 68.033-123.5 160.54-0.81364 2.5793-0.74559 5.4942-0.51117 8.5065 1.4584 0.48742 14.181 4.3073 16.716 5.0545 0.34562 0.0563 0.54709 0.0701 0.561 0.0287 27.217-89.956 64.902-131.27 108.89-152.89 3.0581-1.5078 6.1481-2.9186 9.2687-4.2418 46.074-19.566 100.12-19.481 156.31-26.279 1.0662-0.129 2.1332-0.26054 3.2009-0.3948 57.456-7.2232 117.34-23.045 169.83-77.613 1.0546-1.0951 2.1061-2.2055 3.1545-3.3313 50.958-54.672 94.446-145.53 125.55-299.42 0.49496-2.4952 0.16298-5.1903-0.34563-7.9436-1.5246-0.3322-17.795-3.5064-17.795-3.5064" color="#000000" color-rendering="auto" fill="#004b37" image-rendering="auto" opacity=".95947" solid-color="#000000" style="block-progression:tb;isolation:auto;mix-blend-mode:normal;text-decoration-color:#000000;text-decoration-line:none;text-decoration-style:solid;text-indent:0;text-transform:none;white-space:normal"/><path d="m449.4 271.67c-28.846 146.05-68.622 232.94-113.03 285.32-4.5438 5.3612-9.1379 10.364-13.777 15.035-43.697 44.184-91.475 59.452-141.04 67.004-5.8984 0.90148-11.821 1.6906-17.763 2.404-52.278 6.2778-105.85 6.0611-155.04 25.434-2.7915 1.0993-5.5678 2.2624-8.3279 3.494-50.057 22.335-93.468 67.639-122.8 159.53-0.79595 2.5232-0.65941 5.3982-0.34778 8.3725 1.5441 0.51609 14.133 4.3006 16.613 5.0316 0.33923 0.0517 0.53744 0.0619 0.55216 0.0181 27.091-89.384 64.597-130.38 108.39-151.83 3.0411-1.4945 6.1142-2.8928 9.2177-4.2043 45.801-19.385 99.526-19.303 155.38-26.054 1.0598-0.12809 2.1203-0.25869 3.1816-0.39201 57.123-7.1736 116.67-22.886 168.87-77.041 1.0493-1.0874 2.0956-2.19 3.1388-3.3079 50.727-54.312 94.012-144.6 124.96-297.52 0.4842-2.441 0.0931-5.0919-0.48465-7.8028-1.6143-0.35175-17.686-3.4908-17.686-3.4908" color="#000000" color-rendering="auto" fill="#00553d" image-rendering="auto" opacity=".9815" solid-color="#000000" style="block-progression:tb;isolation:auto;mix-blend-mode:normal;text-decoration-color:#000000;text-decoration-line:none;text-decoration-style:solid;text-indent:0;text-transform:none;white-space:normal"/><path d="m437.09 266.57c-28.726 145.19-68.35 231.49-112.57 283.47-4.525 5.3196-9.1001 10.283-13.72 14.917-43.465 43.789-90.988 58.898-140.29 66.378-5.863 0.89223-11.75 1.6733-17.656 2.3796-51.96 6.2149-105.2 6.0212-154.1 25.277-2.7746 1.0926-5.534 2.2487-8.2773 3.4727-49.776 22.209-92.947 67.245-122.11 158.53-0.77826 2.4671-0.57323 5.3021-0.1844 8.2384 1.6299 0.54476 14.085 4.2939 16.51 5.0086 0.33283 0.0471 0.52777 0.0537 0.54331 7e-3 26.964-88.813 64.293-129.49 107.89-150.77 3.0242-1.4812 6.0803-2.8671 9.1668-4.1668 45.528-19.204 98.93-19.126 154.45-25.828 1.0533-0.12716 2.1075-0.25684 3.1624-0.3892 56.79-7.1241 115.99-22.726 167.9-76.47 1.044-1.0797 2.085-2.1745 3.123-3.2846 50.496-53.951 93.578-143.66 124.37-295.63 0.47344-2.3868 0.0233-4.9935-0.62366-7.662-1.704-0.37128-17.578-3.4752-17.578-3.4752" color="#000000" color-rendering="auto" fill="#00633e" image-rendering="auto" opacity=".94227" solid-color="#000000" style="block-progression:tb;isolation:auto;mix-blend-mode:normal;text-decoration-color:#000000;text-decoration-line:none;text-decoration-style:solid;text-indent:0;text-transform:none;white-space:normal"/><path d="m424.78 261.47c-28.606 144.34-68.077 230.04-112.12 281.62-4.5062 5.2781-9.0622 10.203-13.663 14.799-43.233 43.394-90.5 58.345-139.54 65.751-5.8276 0.88297-11.679 1.656-17.549 2.3552-51.643 6.152-104.56 5.9813-153.16 25.12-2.7577 1.086-5.5003 2.235-8.2268 3.4514-49.495 22.083-92.426 66.85-121.41 157.52-0.76058 2.411-0.48705 5.206-0.021 8.1044 1.7157 0.57343 14.037 4.2872 16.406 4.9857 0.32643 0.0426 0.51812 0.0455 0.53448-3e-3 26.837-88.242 63.988-128.6 107.39-149.71 3.0073-1.468 6.0464-2.8414 9.1158-4.1293 45.255-19.023 98.334-18.948 153.52-25.603 1.0469-0.12625 2.0946-0.25499 3.1431-0.38641 56.457-7.0745 115.32-22.567 166.93-75.899 1.0388-1.072 2.0745-2.159 3.1072-3.2612 50.265-53.591 93.143-142.72 123.78-293.73 0.46268-2.3325-0.0466-4.8951-0.76268-7.5213-1.7937-0.39083-17.469-3.4596-17.469-3.4596" color="#000000" color-rendering="auto" fill="#005e44" image-rendering="auto" opacity=".95649" solid-color="#000000" style="block-progression:tb;isolation:auto;mix-blend-mode:normal;text-decoration-color:#000000;text-decoration-line:none;text-decoration-style:solid;text-indent:0;text-transform:none;white-space:normal"/><path d="m412.47 256.36c-28.486 143.49-67.804 228.59-111.67 279.77-4.4874 5.2365-9.0244 10.122-13.606 14.681-43.002 42.999-90.013 57.791-138.79 65.124-5.7923 0.87372-11.608 1.6388-17.443 2.3308-51.325 6.0891-103.91 5.9414-152.22 24.964-2.7408 1.0793-5.4665 2.2212-8.1762 3.4301-49.215 21.957-91.905 66.456-120.72 156.52-0.74289 2.355-0.40087 5.11 0.14236 7.9704 1.8015 0.6021 13.988 4.2805 16.303 4.9627 0.32004 0.038 0.50847 0.0373 0.52564-0.0139 26.71-87.67 63.683-127.71 106.89-148.65 2.9904-1.4547 6.0125-2.8156 9.0648-4.0919 44.983-18.841 97.739-18.77 152.6-25.377 1.0405-0.12533 2.0818-0.25315 3.1239-0.38361 56.124-7.025 114.64-22.408 165.96-75.328 1.0335-1.0644 2.064-2.1435 3.0915-3.2378 50.035-53.231 92.709-141.78 123.19-291.84 0.45192-2.2783-0.11642-4.7967-0.90169-7.3805-1.8834-0.41037-17.361-3.444-17.361-3.444" color="#000000" color-rendering="auto" fill="#00654b" image-rendering="auto" opacity=".95907" solid-color="#000000" style="block-progression:tb;isolation:auto;mix-blend-mode:normal;text-decoration-color:#000000;text-decoration-line:none;text-decoration-style:solid;text-indent:0;text-transform:none;white-space:normal"/><path d="m400.16 251.26c-28.367 142.63-67.531 227.14-111.21 277.91-4.4686 5.195-8.9866 10.041-13.549 14.563-42.77 42.604-89.526 57.238-138.05 64.497-5.7569 0.86447-11.537 1.6215-17.336 2.3064-51.008 6.0262-103.27 5.9015-151.27 24.807-2.7238 1.0726-5.4328 2.2074-8.1256 3.4088-48.934 21.831-91.383 66.062-120.02 155.51-0.72519 2.2989-0.31469 5.0139 0.30574 7.8364 1.8873 0.63077 13.94 4.2738 16.2 4.9398 0.31364 0.0334 0.49881 0.0291 0.5168-0.0245 26.584-87.099 63.379-126.83 106.38-147.59 2.9734-1.4414 5.9786-2.7899 9.0139-4.0544 44.71-18.66 97.143-18.592 151.67-25.151 1.0341-0.12442 2.069-0.2513 3.1046-0.38082 55.791-6.9755 113.97-22.248 164.99-74.757 1.0282-1.0566 2.0535-2.128 3.0757-3.2144 49.804-52.871 92.274-140.84 122.6-289.94 0.44116-2.224-0.18628-4.6984-1.0407-7.2398-1.9731-0.42991-17.252-3.4285-17.252-3.4285" color="#000000" color-rendering="auto" fill="#005a49" image-rendering="auto" opacity=".97293" solid-color="#000000" style="block-progression:tb;isolation:auto;mix-blend-mode:normal;text-decoration-color:#000000;text-decoration-line:none;text-decoration-style:solid;text-indent:0;text-transform:none;white-space:normal"/><path d="m387.85 246.16c-28.247 141.78-67.258 225.69-110.76 276.06-4.4498 5.1535-8.9488 9.9601-13.492 14.445-42.538 42.21-89.039 56.684-137.3 63.871-5.7216 0.85521-11.466 1.6042-17.229 2.282-50.691 5.9634-102.62 5.8616-150.33 24.65-2.7069 1.066-5.399 2.1937-8.0751 3.3876-48.653 21.705-90.862 65.668-119.33 154.51-0.70751 2.2428-0.22851 4.9179 0.46911 7.7023 1.9731 0.65944 13.892 4.2671 16.096 4.9168 0.30725 0.0289 0.48915 0.0209 0.50796-0.0351 26.457-86.528 63.074-125.94 105.88-146.53 2.9565-1.4281 5.9447-2.7642 8.9629-4.0169 44.437-18.479 96.548-18.414 150.74-24.926 1.0277-0.1235 2.0561-0.24944 3.0854-0.37802 55.458-6.9259 113.29-22.089 164.02-74.186 1.023-1.049 2.043-2.1126 3.06-3.191 49.573-52.511 91.84-139.9 122.01-288.05 0.4304-2.1698-0.25613-4.6-1.1797-7.099-2.0628-0.44945-17.144-3.4129-17.144-3.4129" color="#000000" color-rendering="auto" fill="#00674a" image-rendering="auto" opacity=".94307" solid-color="#000000" style="block-progression:tb;isolation:auto;mix-blend-mode:normal;text-decoration-color:#000000;text-decoration-line:none;text-decoration-style:solid;text-indent:0;text-transform:none;white-space:normal"/><path d="m375.54 241.05c-28.127 140.93-66.986 224.25-110.31 274.21-4.431 5.1119-8.9109 9.8793-13.435 14.327-42.306 41.815-88.551 56.131-136.55 63.244-5.6862 0.84596-11.395 1.5869-17.123 2.2575-50.373 5.9005-101.97 5.8217-149.39 24.493-2.69 1.0593-5.3652 2.18-8.0245 3.3663-48.373 21.579-90.341 65.273-118.64 153.5-0.68982 2.1868-0.14233 4.8218 0.6325 7.5683 2.0588 0.68812 13.844 4.2604 15.993 4.8939 0.30086 0.0243 0.4795 0.0127 0.49913-0.0458 26.33-85.956 62.77-125.05 105.38-145.47 2.9396-1.4149 5.9108-2.7384 8.912-3.9794 44.164-18.298 95.952-18.236 149.81-24.7 1.0213-0.12258 2.0433-0.2476 3.0661-0.37522 55.125-6.8764 112.61-21.93 163.06-73.615 1.0177-1.0413 2.0324-2.0971 3.0442-3.1676 49.343-52.15 91.406-138.96 121.42-286.16 0.41964-2.1155-0.32598-4.5016-1.3187-6.9582-2.1524-0.469-17.035-3.3973-17.035-3.3973" color="#000000" color-rendering="auto" fill="#00714f" image-rendering="auto" opacity=".96138" solid-color="#000000" style="block-progression:tb;isolation:auto;mix-blend-mode:normal;text-decoration-color:#000000;text-decoration-line:none;text-decoration-style:solid;text-indent:0;text-transform:none;white-space:normal"/><path d="m363.23 235.95c-28.007 140.07-66.713 222.8-109.85 272.36-4.4122 5.0704-8.8731 9.7985-13.378 14.209-42.075 41.42-88.064 55.577-135.8 62.617-5.6508 0.83671-11.324 1.5696-17.016 2.2331-50.056 5.8376-101.33 5.7817-148.45 24.337-2.6731 1.0526-5.3315 2.1662-7.974 3.345-48.092 21.452-89.82 64.879-117.94 152.49-0.67213 2.1307-0.0562 4.7258 0.79588 7.4342 2.1446 0.71679 13.796 4.2537 15.89 4.8709 0.29445 0.0197 0.46984 4e-3 0.49028-0.0564 26.203-85.385 62.465-124.16 104.88-144.41 2.9227-1.4016 5.8769-2.7127 8.861-3.942 43.891-18.117 95.356-18.058 148.88-24.474 1.0148-0.12167 2.0305-0.24575 3.0468-0.37243 54.792-6.8268 111.94-21.77 162.09-73.043 1.0124-1.0336 2.0219-2.0816 3.0284-3.1443 49.112-51.79 90.971-138.02 120.83-284.26 0.40888-2.0613-0.39583-4.4032-1.4578-6.8175-2.2421-0.48853-16.926-3.3817-16.926-3.3817" color="#000000" color-rendering="auto" fill="#006351" image-rendering="auto" opacity=".96585" solid-color="#000000" style="block-progression:tb;isolation:auto;mix-blend-mode:normal;text-decoration-color:#000000;text-decoration-line:none;text-decoration-style:solid;text-indent:0;text-transform:none;white-space:normal"/><path d="m350.92 230.85c-27.888 139.22-66.44 221.35-109.4 270.51-4.3934 5.0288-8.8353 9.7176-13.321 14.091-41.843 41.025-87.577 55.024-135.05 61.99-5.6155 0.82746-11.254 1.5523-16.909 2.2087-49.739 5.7747-100.68 5.7418-147.5 24.18-2.6562 1.046-5.2977 2.1525-7.9234 3.3237-47.811 21.326-89.298 64.485-117.25 151.49-0.65445 2.0746 0.03 4.6297 0.95926 7.3002 2.2304 0.74546 13.748 4.247 15.787 4.848 0.28806 0.0152 0.46018-4e-3 0.48145-0.0671 26.077-84.814 62.16-123.27 104.38-143.35 2.9058-1.3883 5.843-2.687 8.81-3.9045 43.618-17.936 94.761-17.881 147.95-24.249 1.0084-0.12075 2.0176-0.2439 3.0276-0.36962 54.459-6.7773 111.26-21.611 161.12-72.472 1.0071-1.0259 2.0114-2.0661 3.0127-3.1209 48.881-51.43 90.537-137.08 120.24-282.37 0.39812-2.007-0.46568-4.3048-1.5968-6.6767-2.3318-0.50808-16.818-3.3661-16.818-3.3661" color="#000000" color-rendering="auto" fill="#007b57" image-rendering="auto" opacity=".94001" solid-color="#000000" style="block-progression:tb;isolation:auto;mix-blend-mode:normal;text-decoration-color:#000000;text-decoration-line:none;text-decoration-style:solid;text-indent:0;text-transform:none;white-space:normal"/><path d="m338.61 225.74c-27.768 138.37-66.167 219.9-108.94 268.65-4.3746 4.9873-8.7974 9.6368-13.264 13.973-41.611 40.63-87.09 54.47-134.3 61.364-5.5801 0.81821-11.183 1.535-16.803 2.1843-49.421 5.7118-100.03 5.7019-146.56 24.023-2.6393 1.0393-5.264 2.1387-7.8728 3.3024-47.53 21.2-88.777 64.09-116.55 150.48-0.63676 2.0186 0.11621 4.5337 1.1226 7.1662 2.3162 0.77414 13.699 4.2403 15.683 4.825 0.28167 0.0106 0.45053-0.012 0.47261-0.0777 25.95-84.242 61.856-122.38 103.87-142.28 2.8888-1.375 5.809-2.6612 8.7591-3.867 43.345-17.755 94.165-17.703 147.02-24.023 1.002-0.11983 2.0048-0.24205 3.0083-0.36683 54.126-6.7278 110.59-21.451 160.15-71.901 1.0019-1.0182 2.0009-2.0506 2.9969-3.0975 48.65-51.07 90.103-136.14 119.65-280.47 0.38736-1.9528-0.53553-4.2064-1.7358-6.536-2.4215-0.52762-16.709-3.3505-16.709-3.3505" color="#000000" color-rendering="auto" fill="#00765b" image-rendering="auto" opacity=".99013" solid-color="#000000" style="block-progression:tb;isolation:auto;mix-blend-mode:normal;text-decoration-color:#000000;text-decoration-line:none;text-decoration-style:solid;text-indent:0;text-transform:none;white-space:normal"/><path d="m326.3 220.64c-27.648 137.51-65.894 218.45-108.49 266.8-4.3557 4.9458-8.7596 9.556-13.207 13.855-41.379 40.236-86.602 53.917-133.55 60.737-5.5447 0.80895-11.112 1.5177-16.696 2.1599-49.104 5.6489-99.387 5.662-145.62 23.866-2.6224 1.0326-5.2302 2.125-7.8223 3.2811-47.25 21.074-88.256 63.696-115.86 149.48-0.61907 1.9625 0.20239 4.4376 1.286 7.0322 2.402 0.8028 13.651 4.2336 15.58 4.8021 0.27527 6e-3 0.44087-0.0202 0.46377-0.0883 25.823-83.671 61.551-121.49 103.37-141.22 2.8719-1.3618 5.7751-2.6355 8.7081-3.8296 43.072-17.574 93.569-17.525 146.09-23.798 0.99558-0.11892 1.9919-0.24021 2.989-0.36403 53.793-6.6782 109.91-21.292 159.18-71.33 0.99659-1.0105 1.9903-2.0351 2.9812-3.0741 48.42-50.71 89.668-135.21 119.06-278.58 0.3766-1.8986-0.60538-4.108-1.8748-6.3952-2.5112-0.54716-16.601-3.3349-16.601-3.3349" color="#000000" color-rendering="auto" fill="#006d55" image-rendering="auto" opacity=".91555" solid-color="#000000" style="block-progression:tb;isolation:auto;mix-blend-mode:normal;text-decoration-color:#000000;text-decoration-line:none;text-decoration-style:solid;text-indent:0;text-transform:none;white-space:normal"/><path d="m313.98 215.54c-27.528 136.66-65.622 217-108.04 264.95-4.3369 4.9042-8.7218 9.4752-13.15 13.737-41.148 39.841-86.115 53.364-132.8 60.11-5.5094 0.7997-11.041 1.5004-16.589 2.1355-48.786 5.586-98.741 5.6221-144.68 23.71-2.6055 1.026-5.1965 2.1112-7.7717 3.2598-46.969 20.948-87.735 63.302-115.16 148.47-0.60138 1.9064 0.28857 4.3416 1.4494 6.8981 2.4878 0.83147 13.603 4.2268 15.477 4.7791 0.26887 1e-3 0.43122-0.0284 0.45493-0.099 25.697-83.1 61.247-120.6 102.87-140.16 2.855-1.3485 5.7412-2.6098 8.6572-3.7921 42.799-17.393 92.974-17.347 145.16-23.572 0.98916-0.118 1.9791-0.23835 2.9698-0.36123 53.46-6.6287 109.24-21.133 158.22-70.759 0.99131-1.0028 1.9798-2.0196 2.9654-3.0507 48.189-50.35 89.234-134.27 118.47-276.68 0.36583-1.8443-0.67523-4.0097-2.0138-6.2545-2.6008-0.5667-16.492-3.3193-16.492-3.3193" color="#000000" color-rendering="auto" fill="#00745d" image-rendering="auto" opacity=".99159" solid-color="#000000" style="block-progression:tb;isolation:auto;mix-blend-mode:normal;text-decoration-color:#000000;text-decoration-line:none;text-decoration-style:solid;text-indent:0;text-transform:none;white-space:normal"/><path d="m301.67 210.43c-27.408 135.81-65.349 215.55-107.58 263.1-4.3181 4.8627-8.684 9.3943-13.093 13.619-40.916 39.446-85.628 52.81-132.05 59.483-5.474 0.79045-10.97 1.4831-16.482 2.1111-48.469 5.5231-98.094 5.5822-143.73 23.553-2.5886 1.0193-5.1627 2.0975-7.7212 3.2385-46.688 20.822-87.213 62.908-114.47 147.47-0.58369 1.8503 0.37475 4.2455 1.6128 6.7641 2.5736 0.86014 13.555 4.2201 15.373 4.7562 0.26248-3e-3 0.42156-0.0366 0.4461-0.10963 25.57-82.528 60.942-119.71 102.37-139.1 2.8381-1.3352 5.7073-2.584 8.6062-3.7546 42.526-17.212 92.378-17.169 144.24-23.346 0.98274-0.11708 1.9663-0.23651 2.9505-0.35844 53.127-6.5792 108.56-20.973 157.25-70.188 0.98604-0.99508 1.9693-2.0041 2.9497-3.0274 47.958-49.989 88.799-133.33 117.88-274.79 0.35507-1.7901-0.74508-3.9113-2.1528-6.1137-2.6905-0.58625-16.384-3.3037-16.384-3.3037" color="#000000" color-rendering="auto" fill="#007962" image-rendering="auto" solid-color="#000000" style="block-progression:tb;isolation:auto;mix-blend-mode:normal;text-decoration-color:#000000;text-decoration-line:none;text-decoration-style:solid;text-indent:0;text-transform:none;white-space:normal"/><path d="m289.36 205.33c-27.289 134.95-65.076 214.1-107.13 261.25-4.2993 4.8212-8.6461 9.3135-13.036 13.502-40.684 39.051-85.141 52.257-131.3 58.857-5.4387 0.78119-10.899 1.4658-16.376 2.0867-48.152 5.4602-97.448 5.5423-142.79 23.396-2.5717 1.0126-5.129 2.0837-7.6706 3.2172-46.408 20.696-86.692 62.513-113.77 146.46-0.56601 1.7943 0.46092 4.1495 1.7762 6.6301 2.6593 0.88882 13.507 4.2134 15.27 4.7332 0.25608-8e-3 0.4119-0.0448 0.43725-0.12028 25.443-81.957 60.638-118.82 101.86-138.04 2.8212-1.3219 5.6734-2.5583 8.5552-3.7171 42.253-17.031 91.783-16.991 143.31-23.121 0.97632-0.11617 1.9534-0.23466 2.9313-0.35564 52.794-6.5296 107.88-20.814 156.28-69.616 0.98078-0.98738 1.9588-1.9886 2.9339-3.004 47.728-49.629 88.365-132.39 117.29-272.89 0.34432-1.7358-0.81492-3.8129-2.2918-5.9729-2.7802-0.60578-16.275-3.2881-16.275-3.2881" color="#000000" color-rendering="auto" fill="#00886c" image-rendering="auto" opacity=".99905" solid-color="#000000" style="block-progression:tb;isolation:auto;mix-blend-mode:normal;text-decoration-color:#000000;text-decoration-line:none;text-decoration-style:solid;text-indent:0;text-transform:none;white-space:normal"/><path d="m277.05 200.23c-27.169 134.1-64.803 212.65-106.68 259.39-4.2805 4.7796-8.6083 9.2327-12.979 13.384-40.452 38.656-84.653 51.703-130.56 58.23-5.4033 0.77194-10.828 1.4485-16.269 2.0622-47.834 5.3973-96.801 5.5024-141.85 23.239-2.5548 1.006-5.0952 2.07-7.6201 3.1959-46.127 20.569-86.171 62.119-113.08 145.46-0.54832 1.7382 0.54711 4.0534 1.9395 6.496 2.7451 0.91749 13.458 4.2067 15.167 4.7103 0.24969-0.0122 0.40225-0.053 0.42842-0.13091 25.316-81.386 60.333-117.93 101.36-136.98 2.8042-1.3087 5.6395-2.5325 8.5043-3.6796 41.981-16.85 91.187-16.813 142.38-22.895 0.96991-0.11524 1.9406-0.2328 2.912-0.35284 52.461-6.4801 107.21-20.654 155.31-69.045 0.97551-0.97968 1.9482-1.9731 2.9182-2.9806 47.497-49.269 87.931-131.45 116.7-271 0.33356-1.6816-0.88477-3.7145-2.4308-5.8322-2.8699-0.62533-16.166-3.2725-16.166-3.2725" color="#000000" color-rendering="auto" fill="#008d6e" image-rendering="auto" opacity=".99582" solid-color="#000000" style="block-progression:tb;isolation:auto;mix-blend-mode:normal;text-decoration-color:#000000;text-decoration-line:none;text-decoration-style:solid;text-indent:0;text-transform:none;white-space:normal"/><path d="m264.74 195.12c-27.049 133.25-64.531 211.2-106.22 257.54-4.2617 4.7381-8.5705 9.1518-12.922 13.266-40.221 38.262-84.166 51.15-129.81 57.603-5.3679 0.76268-10.757 1.4312-16.162 2.0378-47.517 5.3344-96.155 5.4624-140.91 23.083-2.5379 0.99928-5.0614 2.0562-7.5695 3.1746-45.846 20.443-85.65 61.725-112.38 144.45-0.53063 1.6821 0.63329 3.9574 2.1029 6.362 2.8309 0.94616 13.41 4.2 15.063 4.6873 0.2433-0.0168 0.39259-0.0612 0.41958-0.14156 25.19-80.815 60.028-117.04 100.86-135.92 2.7873-1.2954 5.6056-2.5068 8.4533-3.6422 41.708-16.669 90.591-16.636 141.45-22.67 0.96349-0.11433 1.9277-0.23096 2.8927-0.35004 52.127-6.4306 106.53-20.495 154.34-68.474 0.97023-0.97199 1.9377-1.9576 2.9024-2.9572 47.266-48.909 87.496-130.51 116.11-269.1 0.3228-1.6273-0.95462-3.6161-2.5699-5.6914-2.9596-0.64487-16.058-3.2569-16.058-3.2569" color="#000000" color-rendering="auto" fill="#008974" image-rendering="auto" opacity=".99375" solid-color="#000000" style="block-progression:tb;isolation:auto;mix-blend-mode:normal;text-decoration-color:#000000;text-decoration-line:none;text-decoration-style:solid;text-indent:0;text-transform:none;white-space:normal"/><path d="m252.43 190.02c-26.929 132.39-64.258 209.75-105.77 255.69-4.2428 4.6965-8.5326 9.071-12.865 13.148-39.989 37.867-83.679 50.596-129.06 56.976-5.3326 0.75344-10.686 1.4139-16.056 2.0134-47.2 5.2715-95.509 5.4225-139.96 22.926-2.521 0.99261-5.0277 2.0425-7.5189 3.1533-45.565 20.317-85.128 61.331-111.69 143.45-0.51295 1.6261 0.71946 3.8613 2.2663 6.228 2.9167 0.97484 13.362 4.1933 14.96 4.6644 0.23689-0.0214 0.38293-0.0694 0.41074-0.1522 25.063-80.243 59.724-116.15 100.36-134.86 2.7704-1.2821 5.5717-2.4811 8.4024-3.6047 41.435-16.488 89.996-16.458 140.52-22.444 0.95707-0.11342 1.9149-0.22911 2.8735-0.34725 51.794-6.381 105.86-20.336 153.38-67.903 0.96496-0.96429 1.9272-1.9422 2.8866-2.9338 47.035-48.549 87.062-129.57 115.52-267.21 0.31204-1.5731-1.0245-3.5177-2.7089-5.5507-3.0493-0.66441-15.949-3.2414-15.949-3.2414" color="#000000" color-rendering="auto" fill="#00886d" image-rendering="auto" opacity=".99379" solid-color="#000000" style="block-progression:tb;isolation:auto;mix-blend-mode:normal;text-decoration-color:#000000;text-decoration-line:none;text-decoration-style:solid;text-indent:0;text-transform:none;white-space:normal"/><path d="m240.12 184.92c-26.809 131.54-63.985 208.31-105.31 253.84-4.224 4.655-8.4948 8.9902-12.808 13.03-39.757 37.472-83.192 50.043-128.31 56.35-5.2972 0.74419-10.615 1.3966-15.949 1.989-46.882 5.2086-94.862 5.3826-139.02 22.769-2.5041 0.98594-4.9939 2.0287-7.4684 3.132-45.285 20.191-84.607 60.936-110.99 142.44-0.49526 1.57 0.80565 3.7653 2.4297 6.0939 3.0025 1.0035 13.314 4.1866 14.857 4.6414 0.2305-0.0259 0.37328-0.0776 0.4019-0.16285 24.936-79.672 59.419-115.26 99.856-133.8 2.7535-1.2688 5.5378-2.4553 8.3514-3.5672 41.162-16.307 89.4-16.28 139.59-22.219 0.95065-0.1125 1.9021-0.22727 2.8542-0.34446 51.461-6.3315 105.18-20.176 152.41-67.332 0.95969-0.95659 1.9167-1.9267 2.8709-2.9104 46.805-48.188 86.628-128.63 114.93-265.31 0.30128-1.5188-1.0943-3.4194-2.8479-5.4099-3.139-0.68395-15.841-3.2258-15.841-3.2258" color="#000000" color-rendering="auto" fill="#00907a" image-rendering="auto" opacity=".99792" solid-color="#000000" style="block-progression:tb;isolation:auto;mix-blend-mode:normal;text-decoration-color:#000000;text-decoration-line:none;text-decoration-style:solid;text-indent:0;text-transform:none;white-space:normal"/><path d="m227.81 179.81c-26.69 130.69-63.712 206.86-104.86 251.98-4.2052 4.6135-8.457 8.9094-12.751 12.912-39.525 37.077-82.704 49.489-127.56 55.723-5.2618 0.73493-10.544 1.3793-15.842 1.9646-46.565 5.1457-94.216 5.3427-138.08 22.612-2.4872 0.97927-4.9602 2.015-7.4178 3.1107-45.004 20.065-84.086 60.542-110.3 141.44-0.47757 1.5139 0.89183 3.6692 2.5931 5.9599 3.0883 1.0322 13.266 4.1799 14.754 4.6185 0.22411-0.0305 0.36362-0.0858 0.39307-0.17348 24.809-79.101 59.115-114.37 99.353-132.74 2.7366-1.2556 5.5039-2.4296 8.3005-3.5298 40.889-16.126 88.805-16.102 138.66-21.993 0.94423-0.11158 1.8892-0.22541 2.835-0.34165 51.128-6.2819 104.51-20.017 151.44-66.761 0.95442-0.9489 1.9062-1.9112 2.8551-2.887 46.574-47.828 86.193-127.69 114.34-263.42 0.29052-1.4646-1.1642-3.321-2.9869-5.2691-3.2286-0.7035-15.732-3.2102-15.732-3.2102" color="#000000" color-rendering="auto" fill="#008b76" image-rendering="auto" opacity=".9982" solid-color="#000000" style="block-progression:tb;isolation:auto;mix-blend-mode:normal;text-decoration-color:#000000;text-decoration-line:none;text-decoration-style:solid;text-indent:0;text-transform:none;white-space:normal"/><path d="m215.5 174.71c-26.57 129.83-63.439 205.41-104.41 250.13-4.1864 4.5719-8.4192 8.8285-12.694 12.794-39.294 36.682-82.217 48.936-126.81 55.096-5.2265 0.72568-10.473 1.362-15.736 1.9402-46.248 5.0828-93.57 5.3028-137.14 22.456-2.4703 0.97261-4.9264 2.0012-7.3673 3.0895-44.723 19.939-83.565 60.148-109.6 140.43-0.45988 1.4578 0.978 3.5732 2.7564 5.8259 3.174 1.0608 13.217 4.1732 14.65 4.5955 0.21772-0.0351 0.35397-0.094 0.38423-0.18413 24.683-78.529 58.81-113.48 98.851-131.68 2.7196-1.2423 5.47-2.4039 8.2495-3.4923 40.616-15.945 88.209-15.924 137.73-21.767 0.93782-0.11067 1.8764-0.22357 2.8157-0.33886 50.795-6.2324 103.83-19.857 150.47-66.19 0.94915-0.9412 1.8956-1.8957 2.8394-2.8637 46.343-47.468 85.759-126.75 113.75-261.52 0.27976-1.4104-1.234-3.2226-3.1259-5.1284-3.3183-0.72303-15.624-3.1946-15.624-3.1946" color="#000000" color-rendering="auto" fill="#00896f" image-rendering="auto" opacity=".9792" solid-color="#000000" style="block-progression:tb;isolation:auto;mix-blend-mode:normal;text-decoration-color:#000000;text-decoration-line:none;text-decoration-style:solid;text-indent:0;text-transform:none;white-space:normal"/><path d="m203.19 169.61c-26.45 128.98-63.167 203.96-103.95 248.28-4.1676 4.5304-8.3813 8.7477-12.637 12.676-39.062 36.288-81.73 48.382-126.06 54.47-5.1911 0.71643-10.403 1.3448-15.629 1.9158-45.93 5.0199-92.923 5.2629-136.19 22.299-2.4534 0.96594-4.8926 1.9875-7.3167 3.0682-44.442 19.813-83.043 59.754-108.91 139.42-0.44219 1.4018 1.0642 3.4771 2.9198 5.6918 3.2598 1.0895 13.169 4.1665 14.547 4.5726 0.21131-0.0396 0.34431-0.10225 0.37539-0.19477 24.556-77.958 58.505-112.59 98.349-130.62 2.7027-1.229 5.436-2.3781 8.1985-3.4548 40.343-15.764 87.613-15.746 136.8-21.542 0.9314-0.10975 1.8636-0.22172 2.7964-0.33606 50.462-6.1829 103.15-19.698 149.5-65.618 0.94388-0.93351 1.8851-1.8802 2.8236-2.8403 46.113-47.108 85.325-125.82 113.16-259.63 0.269-1.3561-1.3039-3.1242-3.2649-4.9876-3.408-0.74258-15.515-3.179-15.515-3.179" color="#000000" color-rendering="auto" fill="#008c78" image-rendering="auto" opacity=".97172" solid-color="#000000" style="block-progression:tb;isolation:auto;mix-blend-mode:normal;text-decoration-color:#000000;text-decoration-line:none;text-decoration-style:solid;text-indent:0;text-transform:none;white-space:normal"/><path d="m190.88 164.5c-26.33 128.12-62.894 202.51-103.5 246.43-4.1488 4.4888-8.3435 8.6669-12.58 12.558-38.83 35.893-81.243 47.829-125.31 53.843-5.1558 0.70717-10.332 1.3275-15.522 1.8914-45.613 4.957-92.277 5.223-135.25 22.142-2.4365 0.95927-4.8589 1.9737-7.2662 3.0469-44.162 19.686-82.522 59.359-108.21 138.42-0.4245 1.3457 1.1504 3.381 3.0832 5.5578 3.3456 1.1182 13.121 4.1598 14.444 4.5496 0.20492-0.0442 0.33466-0.11046 0.36655-0.20542 24.429-77.387 58.201-111.71 97.847-129.55 2.6858-1.2158 5.4021-2.3524 8.1476-3.4174 40.07-15.583 87.018-15.568 135.88-21.316 0.92498-0.10883 1.8507-0.21987 2.7772-0.33326 50.129-6.1333 102.48-19.539 148.53-65.047 0.93861-0.92581 1.8746-1.8647 2.8078-2.8169 45.882-46.748 84.89-124.88 112.57-257.73 0.25824-1.3019-1.3737-3.0258-3.404-4.8469-3.4977-0.76212-15.406-3.1634-15.406-3.1634" color="#000000" color-rendering="auto" fill="#00a381" image-rendering="auto" opacity=".97298" solid-color="#000000" style="block-progression:tb;isolation:auto;mix-blend-mode:normal;text-decoration-color:#000000;text-decoration-line:none;text-decoration-style:solid;text-indent:0;text-transform:none;white-space:normal"/><path d="m178.57 159.4c-26.21 127.27-62.621 201.06-103.05 244.58-4.13 4.4473-8.3057 8.586-12.523 12.44-38.598 35.498-80.756 47.275-124.56 53.216-5.1204 0.69792-10.261 1.3102-15.416 1.867-45.295 4.8941-91.63 5.183-134.31 21.985-2.4196 0.9526-4.8251 1.96-7.2156 3.0256-43.881 19.56-82.001 58.965-107.52 137.41-0.40682 1.2896 1.2365 3.285 3.2466 5.4238 3.4314 1.1469 13.073 4.1531 14.34 4.5267 0.19853-0.0488 0.325-0.11866 0.35772-0.21605 24.302-76.815 57.896-110.82 97.345-128.49 2.6689-1.2025 5.3682-2.3266 8.0966-3.3799 39.797-15.402 86.422-15.391 134.95-21.091 0.91856-0.10792 1.8379-0.21802 2.7579-0.33047 49.796-6.0838 101.8-19.379 147.57-64.476 0.93334-0.91811 1.8641-1.8492 2.7921-2.7935 45.651-46.388 84.456-123.94 111.98-255.84 0.24748-1.2476-1.4436-2.9274-3.543-4.7061-3.5874-0.78166-15.298-3.1478-15.298-3.1478" color="#000000" color-rendering="auto" fill="#009b7e" image-rendering="auto" opacity=".95911" solid-color="#000000" style="block-progression:tb;isolation:auto;mix-blend-mode:normal;text-decoration-color:#000000;text-decoration-line:none;text-decoration-style:solid;text-indent:0;text-transform:none;white-space:normal"/><path d="m166.25 154.3c-26.091 126.42-62.348 199.61-102.59 242.72-4.1112 4.4058-8.2678 8.5052-12.466 12.322-38.367 35.103-80.268 46.722-123.82 52.589-5.085 0.68866-10.19 1.2929-15.309 1.8426-44.978 4.8312-90.984 5.1431-133.37 21.829-2.4027 0.94593-4.7914 1.9462-7.165 3.0043-43.6 19.434-81.48 58.571-106.83 136.41-0.38913 1.2336 1.3227 3.1889 3.41 5.2897 3.5172 1.1755 13.025 4.1464 14.237 4.5037 0.19213-0.0533 0.31534-0.12687 0.34887-0.2267 24.176-76.244 57.592-109.93 96.842-127.43 2.6519-1.1892 5.3343-2.3009 8.0456-3.3424 39.524-15.221 85.826-15.213 134.02-20.865 0.91214-0.107 1.825-0.21617 2.7387-0.32767 49.463-6.0342 101.13-19.22 146.6-63.905 0.92807-0.91042 1.8535-1.8337 2.7763-2.7701 45.42-46.027 84.021-123 111.39-253.95 0.23672-1.1934-1.5134-2.829-3.682-4.5654-3.6771-0.8012-15.189-3.1322-15.189-3.1322" color="#000000" color-rendering="auto" fill="#009585" image-rendering="auto" opacity=".98975" solid-color="#000000" style="block-progression:tb;isolation:auto;mix-blend-mode:normal;text-decoration-color:#000000;text-decoration-line:none;text-decoration-style:solid;text-indent:0;text-transform:none;white-space:normal"/><path d="m153.94 149.19c-25.971 125.56-62.075 198.16-102.14 240.87-4.0924 4.3642-8.23 8.4244-12.409 12.204-38.135 34.708-79.781 46.168-123.07 51.963-5.0497 0.67941-10.119 1.2756-15.202 1.8181-44.661 4.7683-90.338 5.1032-132.42 21.672-2.3858 0.93926-4.7576 1.9325-7.1145 2.983-43.32 19.308-80.958 58.177-106.13 135.4-0.37144 1.1775 1.4089 3.0929 3.5733 5.1557 3.603 1.2042 12.976 4.1397 14.134 4.4808 0.18574-0.0579 0.30569-0.13508 0.34004-0.23735 24.049-75.673 57.287-109.04 96.34-126.37 2.635-1.1759 5.3004-2.2752 7.9947-3.3049 39.251-15.04 85.231-15.035 133.09-20.639 0.90572-0.10608 1.8122-0.21432 2.7194-0.32487 49.13-5.9847 100.45-19.06 145.63-63.334 0.9228-0.90272 1.843-1.8182 2.7606-2.7468 45.19-45.667 83.587-122.06 110.8-252.05 0.22596-1.1391-1.5833-2.7307-3.821-4.4246-3.7668-0.82075-15.081-3.1166-15.081-3.1166" color="#000000" color-rendering="auto" fill="#00ae8e" image-rendering="auto" opacity=".97673" solid-color="#000000" style="block-progression:tb;isolation:auto;mix-blend-mode:normal;text-decoration-color:#000000;text-decoration-line:none;text-decoration-style:solid;text-indent:0;text-transform:none;white-space:normal"/><path d="m141.63 144.09c-25.851 124.71-61.803 196.71-101.68 239.02-4.0735 4.3227-8.1922 8.3436-12.352 12.086-37.903 34.313-79.294 45.615-122.32 51.336-5.0143 0.67016-10.048 1.2583-15.096 1.7937-44.343 4.7054-89.691 5.0633-131.48 21.515-2.3689 0.93259-4.7239 1.9187-7.0639 2.9617-43.039 19.182-80.437 57.782-105.44 134.4-0.35376 1.1214 1.4951 2.9968 3.7367 5.0217 3.6888 1.2329 12.928 4.133 14.03 4.4578 0.17934-0.0625 0.29603-0.14328 0.3312-0.24798 23.922-75.101 56.982-108.15 95.838-125.31 2.6181-1.1626 5.2665-2.2494 7.9437-3.2674 38.979-14.859 84.635-14.857 132.16-20.414 0.89931-0.10516 1.7994-0.21247 2.7001-0.32207 48.797-5.9352 99.775-18.901 144.66-62.763 0.91752-0.89503 1.8325-1.8028 2.7448-2.7234 44.959-45.307 83.153-121.12 110.21-250.16 0.2152-1.0849-1.6531-2.6323-3.96-4.2838-3.8564-0.84028-14.972-3.101-14.972-3.101" color="#000000" color-rendering="auto" fill="#009e89" image-rendering="auto" opacity=".96552" solid-color="#000000" style="block-progression:tb;isolation:auto;mix-blend-mode:normal;text-decoration-color:#000000;text-decoration-line:none;text-decoration-style:solid;text-indent:0;text-transform:none;white-space:normal"/><path d="m129.32 138.99c-25.731 123.86-61.53 195.26-101.23 237.17-4.0547 4.2812-8.1544 8.2627-12.295 11.968-37.672 33.919-78.807 45.061-121.57 50.709-4.979 0.66091-9.977 1.241-14.989 1.7693-44.026 4.6425-89.045 5.0234-130.54 21.358-2.352 0.92593-4.6901 1.905-7.0134 2.9404-42.758 19.056-79.916 57.388-104.74 133.39-0.33607 1.0653 1.5813 2.9008 3.9001 4.8876 3.7745 1.2615 12.88 4.1262 13.927 4.4349 0.17294-0.067 0.28637-0.15149 0.32236-0.25863 23.796-74.53 56.678-107.26 95.336-124.25 2.6012-1.1494 5.2326-2.2237 7.8928-3.23 38.706-14.678 84.04-14.679 131.23-20.188 0.89289-0.10425 1.7865-0.21063 2.6809-0.31928 48.464-5.8856 99.099-18.742 143.69-62.191 0.91225-0.88733 1.822-1.7873 2.7291-2.7 44.728-44.947 82.718-120.18 109.62-248.26 0.20444-1.0306-1.723-2.5339-4.099-4.1431-3.9461-0.85983-14.864-3.0854-14.864-3.0854" color="#000000" color-rendering="auto" fill="#00aa91" image-rendering="auto" opacity=".97007" solid-color="#000000" style="block-progression:tb;isolation:auto;mix-blend-mode:normal;text-decoration-color:#000000;text-decoration-line:none;text-decoration-style:solid;text-indent:0;text-transform:none;white-space:normal"/><path d="m117.01 133.88c-25.611 123-61.257 193.81-100.78 235.32-4.0359 4.2396-8.1165 8.1819-12.238 11.85-37.44 33.524-78.319 44.508-120.82 50.082-4.9436 0.65166-9.9061 1.2237-14.882 1.7449-43.709 4.5796-88.399 4.9835-129.6 21.202-2.3351 0.91926-4.6564 1.8912-6.9628 2.9191-42.477 18.93-79.395 56.994-104.05 132.39-0.31838 1.0093 1.6674 2.8047 4.0635 4.7536 3.8603 1.2902 12.832 4.1196 13.824 4.4119 0.16655-0.0716 0.27672-0.1597 0.31352-0.26927 23.669-73.959 56.373-106.37 94.834-123.19 2.5843-1.1361 5.1987-2.198 7.8418-3.1925 38.433-14.497 83.444-14.501 130.3-19.963 0.88647-0.10334 1.7737-0.20878 2.6616-0.31648 48.131-5.8361 98.424-18.582 142.73-61.62 0.90698-0.87963 1.8114-1.7718 2.7133-2.6766 44.497-44.587 82.284-119.24 109.04-246.37 0.19368-0.9764-1.7928-2.4355-4.238-4.0023-4.0358-0.87937-14.755-3.0698-14.755-3.0698" color="#000000" color-rendering="auto" fill="#00ab96" image-rendering="auto" opacity=".94428" solid-color="#000000" style="block-progression:tb;isolation:auto;mix-blend-mode:normal;text-decoration-color:#000000;text-decoration-line:none;text-decoration-style:solid;text-indent:0;text-transform:none;white-space:normal"/><path d="m104.7 128.78c-25.492 122.15-60.984 192.37-100.32 233.46-4.0171 4.1981-8.0787 8.1011-12.181 11.732-37.208 33.129-77.832 43.954-120.07 49.456-4.9082 0.6424-9.8352 1.2064-14.776 1.7205-43.391 4.5167-87.752 4.9436-128.65 21.045-2.3182 0.91259-4.6226 1.8775-6.9122 2.8978-42.197 18.803-78.873 56.6-103.35 131.38-0.30069 0.9532 1.7536 2.7087 4.2269 4.6196 3.9461 1.3189 12.784 4.1128 13.721 4.389 0.16016-0.0762 0.26707-0.16791 0.30469-0.27992 23.542-73.387 56.069-105.48 94.332-122.13 2.5673-1.1228 5.1648-2.1722 7.7908-3.155 38.16-14.316 82.848-14.324 129.37-19.737 0.88005-0.10241 1.7608-0.20693 2.6424-0.31368 47.798-5.7866 97.748-18.423 141.76-61.049 0.90171-0.87194 1.8009-1.7563 2.6975-2.6532 44.267-44.226 81.85-118.3 108.45-244.47 0.18292-0.92216-1.8627-2.3371-4.3771-3.8616-4.1255-0.89891-14.646-3.0542-14.646-3.0542" color="#000000" color-rendering="auto" fill="#00ab91" image-rendering="auto" opacity=".96539" solid-color="#000000" style="block-progression:tb;isolation:auto;mix-blend-mode:normal;text-decoration-color:#000000;text-decoration-line:none;text-decoration-style:solid;text-indent:0;text-transform:none;white-space:normal"/><path d="m92.39 123.67c-25.372 121.3-60.712 190.92-99.869 231.61-3.9983 4.1565-8.0409 8.0202-12.124 11.614-36.976 32.734-77.345 43.401-119.32 48.829-4.8729 0.63315-9.7643 1.1891-14.669 1.6961-43.074 4.4538-87.106 4.9036-127.71 20.888-2.3013 0.90593-4.5888 1.8638-6.8617 2.8765-41.916 18.677-78.352 56.205-102.66 130.38-0.283 0.89713 1.8398 2.6126 4.3902 4.4855 4.0319 1.3476 12.736 4.1061 13.617 4.366 0.15375-0.0807 0.2574-0.17611 0.29584-0.29055 23.415-72.816 55.764-104.59 93.829-121.07 2.5504-1.1096 5.1309-2.1465 7.7399-3.1176 37.887-14.135 82.253-14.146 128.44-19.511 0.87363-0.1015 1.748-0.20508 2.6231-0.31089 47.465-5.737 97.072-18.264 140.79-60.478 0.89644-0.86424 1.7904-1.7408 2.6818-2.6298 44.036-43.866 81.415-117.36 107.86-242.58 0.17216-0.86791-1.9325-2.2388-4.5161-3.7208-4.2152-0.91845-14.538-3.0386-14.538-3.0386" color="#000000" color-rendering="auto" fill="#00ae8f" image-rendering="auto" opacity=".94219" solid-color="#000000" style="block-progression:tb;isolation:auto;mix-blend-mode:normal;text-decoration-color:#000000;text-decoration-line:none;text-decoration-style:solid;text-indent:0;text-transform:none;white-space:normal"/><path d="m80.079 118.57c-25.252 120.44-60.439 189.47-99.416 229.76-3.9795 4.115-8.003 7.9394-12.067 11.496-36.745 32.339-76.858 42.847-118.57 48.202-4.8375 0.6239-9.6934 1.1718-14.562 1.6717-42.757 4.3909-86.459 4.8637-126.77 20.731-2.2844 0.89926-4.5551 1.85-6.8111 2.8552-41.635 18.551-77.831 55.811-101.96 129.37-0.26532 0.84106 1.926 2.5166 4.5536 4.3515 4.1177 1.3762 12.687 4.0994 13.514 4.3431 0.14736-0.0853 0.24775-0.18432 0.28701-0.3012 23.289-72.245 55.459-103.7 93.327-120.01 2.5335-1.0963 5.097-2.1208 7.6889-3.0801 37.614-13.954 81.657-13.968 127.51-19.286 0.86721-0.10059 1.7352-0.20324 2.6038-0.30809 47.132-5.6875 96.396-18.104 139.82-59.907 0.89117-0.85655 1.7799-1.7253 2.666-2.6065 43.805-43.506 80.981-116.42 107.27-240.68 0.1614-0.81366-2.0024-2.1404-4.6551-3.58-4.3049-0.93798-14.429-3.023-14.429-3.023" color="#000000" color-rendering="auto" fill="#00c1a6" image-rendering="auto" opacity=".95647" solid-color="#000000" style="block-progression:tb;isolation:auto;mix-blend-mode:normal;text-decoration-color:#000000;text-decoration-line:none;text-decoration-style:solid;text-indent:0;text-transform:none;white-space:normal"/><path d="m67.769 113.47c-25.132 119.59-60.166 188.02-98.962 227.91-3.9607 4.0734-7.9652 7.8586-12.01 11.378-36.513 31.945-76.37 42.294-117.82 47.575-4.8021 0.61464-9.6224 1.1545-14.456 1.6473-42.439 4.328-85.813 4.8238-125.83 20.575-2.2675 0.89259-4.5213 1.8362-6.7606 2.8339-41.355 18.425-77.31 55.417-101.27 128.37-0.24763 0.78499 2.0122 2.4205 4.717 4.2175 4.2035 1.4049 12.639 4.0927 13.411 4.3201 0.14097-0.0899 0.2381-0.19253 0.27817-0.31184 23.162-71.673 55.155-102.81 92.825-118.95 2.5166-1.083 5.063-2.095 7.638-3.0426 37.341-13.773 81.061-13.79 126.59-19.06 0.86079-0.0997 1.7223-0.20138 2.5846-0.30529 46.799-5.6379 95.721-17.945 138.85-59.336 0.8859-0.84885 1.7693-1.7098 2.6503-2.5831 43.575-43.146 80.547-115.49 106.68-238.79 0.15064-0.75942-2.0722-2.042-4.7941-3.4393-4.3945-0.95753-14.321-3.0075-14.321-3.0075" color="#000000" color-rendering="auto" fill="#00b296" image-rendering="auto" opacity=".95733" solid-color="#000000" style="block-progression:tb;isolation:auto;mix-blend-mode:normal;text-decoration-color:#000000;text-decoration-line:none;text-decoration-style:solid;text-indent:0;text-transform:none;white-space:normal"/><path d="m55.458 108.36c-25.013 118.74-59.893 186.57-98.508 226.06-3.9418 4.0319-7.9274 7.7778-11.953 11.26-36.281 31.55-75.883 41.74-117.07 46.949-4.7668 0.60539-9.5515 1.1372-14.349 1.6228-42.122 4.2651-85.167 4.7839-124.88 20.418-2.2506 0.88592-4.4876 1.8225-6.71 2.8126-41.074 18.299-76.788 55.023-100.57 127.36-0.22994 0.72892 2.0984 2.3244 4.8804 4.0834 4.2892 1.4336 12.591 4.086 13.307 4.2972 0.13457-0.0945 0.22843-0.20074 0.26933-0.32249 23.035-71.102 54.85-101.92 92.323-117.89 2.4996-1.0697 5.0291-2.0693 7.587-3.0051 37.068-13.592 80.466-13.612 125.66-18.835 0.85438-0.0987 1.7095-0.19953 2.5653-0.30249 46.465-5.5884 95.045-17.785 137.89-58.764 0.88063-0.84115 1.7588-1.6943 2.6345-2.5597 43.344-42.786 80.112-114.55 106.09-236.89 0.13988-0.70517-2.1421-1.9436-4.9331-3.2985-4.4842-0.97707-14.212-2.9919-14.212-2.9919" color="#000000" color-rendering="auto" fill="#00c0a7" image-rendering="auto" opacity=".93836" solid-color="#000000" style="block-progression:tb;isolation:auto;mix-blend-mode:normal;text-decoration-color:#000000;text-decoration-line:none;text-decoration-style:solid;text-indent:0;text-transform:none;white-space:normal"/><path d="m43.147 103.26c-24.893 117.88-59.62 185.12-98.054 224.2-3.923 3.9904-7.8895 7.6969-11.896 11.142-36.049 31.155-75.396 41.187-116.33 46.322-4.7314 0.59614-9.4806 1.1199-14.242 1.5984-41.804 4.2022-84.52 4.744-123.94 20.261-2.2336 0.87925-4.4538 1.8088-6.6594 2.7914-40.793 18.173-76.267 54.628-99.878 126.35-0.21226 0.67285 2.1845 2.2284 5.0438 3.9494 4.375 1.4622 12.543 4.0793 13.204 4.2742 0.12818-0.099 0.21878-0.20894 0.26049-0.33312 22.908-70.531 54.546-101.03 91.821-116.83 2.4827-1.0565 4.9952-2.0436 7.5361-2.9677 36.795-13.411 79.87-13.434 124.73-18.609 0.84796-0.0978 1.6967-0.19769 2.546-0.2997 46.132-5.5389 94.369-17.626 136.92-58.193 0.87536-0.83345 1.7483-1.6788 2.6188-2.5363 43.113-42.426 79.678-113.61 105.5-235 0.12912-0.65093-2.2119-1.8452-5.0721-3.1578-4.5739-0.99661-14.104-2.9763-14.104-2.9763" color="#000000" color-rendering="auto" fill="#00bea9" image-rendering="auto" opacity=".94278" solid-color="#000000" style="block-progression:tb;isolation:auto;mix-blend-mode:normal;text-decoration-color:#000000;text-decoration-line:none;text-decoration-style:solid;text-indent:0;text-transform:none;white-space:normal"/><path d="m30.836 98.158c-24.773 117.03-59.348 183.67-97.601 222.35-3.9042 3.9488-7.8517 7.6161-11.839 11.024-35.818 30.76-74.909 40.633-115.58 45.695-4.696 0.58688-9.4097 1.1026-14.136 1.574-41.487 4.1393-83.874 4.7041-123 20.104-2.2168 0.87258-4.42 1.795-6.6089 2.7701-40.512 18.047-75.746 54.234-99.183 125.35-0.19456 0.61678 2.2707 2.1324 5.2071 3.8154 4.4608 1.4909 12.495 4.0726 13.101 4.2513 0.12178-0.10358 0.20913-0.21715 0.25166-0.34377 22.782-69.959 54.241-100.14 91.319-115.76 2.4658-1.0432 4.9613-2.0178 7.4851-2.9302 36.522-13.23 79.275-13.256 123.8-18.383 0.84154-0.0969 1.6838-0.19583 2.5268-0.2969 45.799-5.4893 93.694-17.467 135.95-57.622 0.87009-0.82575 1.7378-1.6633 2.603-2.5129 42.882-42.065 79.243-112.67 104.91-233.1 0.11836-0.59668-2.2818-1.7468-5.2111-3.017-4.6636-1.0162-13.995-2.9607-13.995-2.9607" color="#000000" color-rendering="auto" fill="#00b9a3" image-rendering="auto" opacity=".93627" solid-color="#000000" style="block-progression:tb;isolation:auto;mix-blend-mode:normal;text-decoration-color:#000000;text-decoration-line:none;text-decoration-style:solid;text-indent:0;text-transform:none;white-space:normal"/><path d="m18.525 93.054c-24.653 116.18-59.075 182.22-97.147 220.5-3.8854 3.9073-7.8139 7.5352-11.782 10.906-35.586 30.365-74.421 40.08-114.83 45.068-4.6607 0.57764-9.3388 1.0853-14.029 1.5496-41.17 4.0764-83.228 4.6642-122.06 19.948-2.1998 0.86591-4.3863 1.7812-6.5583 2.7488-40.232 17.92-75.225 53.84-98.488 124.34-0.17687 0.56071 2.3569 2.0363 5.3705 3.6814 4.5466 1.5196 12.446 4.0659 12.997 4.2283 0.11538-0.10816 0.19947-0.22536 0.24281-0.35441 22.655-69.388 53.936-99.253 90.816-114.7 2.4489-1.0299 4.9274-1.9921 7.4341-2.8927 36.249-13.049 78.679-13.079 122.87-18.158 0.83512-0.096 1.671-0.19399 2.5075-0.2941 45.466-5.4398 93.018-17.307 134.98-57.051 0.86482-0.81806 1.7272-1.6478 2.5872-2.4896 42.652-41.705 78.809-111.73 104.32-231.21 0.1076-0.54244-2.3516-1.6484-5.3502-2.8762-4.7533-1.0357-13.886-2.9451-13.886-2.9451" color="#000000" color-rendering="auto" fill="#00b298" image-rendering="auto" opacity=".94152" solid-color="#000000" style="block-progression:tb;isolation:auto;mix-blend-mode:normal;text-decoration-color:#000000;text-decoration-line:none;text-decoration-style:solid;text-indent:0;text-transform:none;white-space:normal"/><path d="m6.2145 87.951c-24.533 115.32-58.802 180.77-96.693 218.65-3.8666 3.8658-7.7761 7.4544-11.726 10.788-35.354 29.971-73.934 39.526-114.08 44.442-4.6253 0.56838-9.2679 1.068-13.922 1.5252-40.852 4.0135-82.581 4.6242-121.11 19.791-2.183 0.85924-4.3525 1.7675-6.5078 2.7275-39.951 17.794-74.703 53.446-97.794 123.34-0.15919 0.50464 2.4431 1.9402 5.5339 3.5473 4.6324 1.5483 12.398 4.0592 12.894 4.2054 0.10899-0.11272 0.18981-0.23356 0.23398-0.36505 22.528-68.817 53.632-98.364 90.314-113.64 2.432-1.0166 4.8935-1.9664 7.3832-2.8552 35.977-12.868 78.083-12.901 121.94-17.932 0.82871-0.0951 1.6581-0.19214 2.4883-0.29131 45.133-5.3902 92.342-17.148 134.01-56.48 0.85954-0.81036 1.7167-1.6324 2.5715-2.4662 42.421-41.345 78.375-110.79 103.73-229.31 0.09684-0.4882-2.4215-1.5501-5.4892-2.7355-4.843-1.0552-13.778-2.9295-13.778-2.9295" color="#000000" color-rendering="auto" fill="#00c2a1" image-rendering="auto" opacity=".86023" solid-color="#000000" style="block-progression:tb;isolation:auto;mix-blend-mode:normal;text-decoration-color:#000000;text-decoration-line:none;text-decoration-style:solid;text-indent:0;text-transform:none;white-space:normal"/><path d="m-6.0963 82.847c-24.414 114.47-58.529 179.32-96.239 216.8-3.8478 3.8242-7.7382 7.3736-11.669 10.67-35.122 29.576-73.447 38.973-113.33 43.815-4.59 0.55913-9.1969 1.0508-13.816 1.5008-40.535 3.9506-81.935 4.5843-120.17 19.634-2.166 0.85257-4.3188 1.7538-6.4572 2.7062-39.67 17.668-74.182 53.051-97.099 122.33-0.1415 0.44857 2.5292 1.8442 5.6973 3.4133 4.7182 1.5769 12.35 4.0525 12.791 4.1824 0.1026-0.11729 0.18016-0.24177 0.22514-0.37569 22.401-68.246 53.327-97.475 89.812-112.58 2.415-1.0034 4.8596-1.9406 7.3322-2.8178 35.704-12.687 77.488-12.723 121.01-17.707 0.82229-0.0942 1.6453-0.19029 2.469-0.2885 44.8-5.3407 91.666-16.988 133.05-55.909 0.85428-0.80267 1.7062-1.6169 2.5557-2.4428 42.19-40.985 77.94-109.85 103.14-227.42 0.08608-0.43396-2.4913-1.4517-5.6282-2.5947-4.9326-1.0748-13.669-2.9139-13.669-2.9139" color="#000000" color-rendering="auto" fill="#00ae99" image-rendering="auto" opacity=".95123" solid-color="#000000" style="block-progression:tb;isolation:auto;mix-blend-mode:normal;text-decoration-color:#000000;text-decoration-line:none;text-decoration-style:solid;text-indent:0;text-transform:none;white-space:normal"/><path d="m-18.407 77.744c-24.294 113.61-58.256 177.87-95.786 214.94-3.829 3.7827-7.7004 7.2928-11.612 10.552-34.891 29.181-72.96 38.419-112.58 43.188-4.5546 0.54988-9.126 1.0335-13.709 1.4764-40.218 3.8877-81.288 4.5444-119.23 19.477-2.1491 0.84591-4.285 1.74-6.4067 2.6849-39.389 17.542-73.661 52.657-96.404 121.33-0.12381 0.3925 2.6154 1.7481 5.8607 3.2792 4.804 1.6056 12.302 4.0458 12.688 4.1595 0.0962-0.12186 0.1705-0.24998 0.2163-0.38634 22.275-67.674 53.023-96.585 89.31-111.52 2.3981-0.99008 4.8257-1.9149 7.2813-2.7803 35.431-12.506 76.892-12.545 120.08-17.481 0.81587-0.0932 1.6325-0.18844 2.4497-0.28571 44.467-5.2912 90.991-16.829 132.08-55.338 0.849-0.79497 1.6957-1.6014 2.54-2.4194 41.96-40.625 77.506-108.91 102.55-225.52 0.07532-0.37971-2.5612-1.3533-5.7672-2.454-5.0223-1.0943-13.561-2.8983-13.561-2.8983" color="#000000" color-rendering="auto" fill="#00cbaa" image-rendering="auto" opacity=".90059" solid-color="#000000" style="block-progression:tb;isolation:auto;mix-blend-mode:normal;text-decoration-color:#000000;text-decoration-line:none;text-decoration-style:solid;text-indent:0;text-transform:none;white-space:normal"/><path d="m-30.718 72.641c-24.174 112.76-57.984 176.43-95.332 213.09-3.8102 3.7411-7.6626 7.2119-11.555 10.434-34.659 28.786-72.473 37.866-111.83 42.562-4.5192 0.54062-9.0551 1.0162-13.602 1.452-39.9 3.8248-80.642 4.5045-118.28 19.321-2.1322 0.83924-4.2513 1.7262-6.3561 2.6636-39.109 17.416-73.14 52.263-95.709 120.32-0.10613 0.33643 2.7016 1.6521 6.024 3.1452 4.8897 1.6343 12.254 4.0391 12.584 4.1365 0.0898-0.12643 0.16084-0.2582 0.20746-0.39698 22.148-67.103 52.718-95.696 88.808-110.46 2.3812-0.97681 4.7918-1.8891 7.2303-2.7428 35.158-12.324 76.296-12.367 119.15-17.255 0.80945-0.0923 1.6196-0.1866 2.4305-0.28292 44.134-5.2416 90.315-16.67 131.11-54.766 0.84373-0.78727 1.6852-1.5859 2.5242-2.396 41.729-40.265 77.072-107.97 101.96-223.63 0.06456-0.32547-2.631-1.2549-5.9062-2.3132-5.112-1.1139-13.452-2.8827-13.452-2.8827" color="#000000" color-rendering="auto" fill="#00c8a6" image-rendering="auto" opacity=".87407" solid-color="#000000" style="block-progression:tb;isolation:auto;mix-blend-mode:normal;text-decoration-color:#000000;text-decoration-line:none;text-decoration-style:solid;text-indent:0;text-transform:none;white-space:normal"/><path d="m-43.029 67.537c-24.054 111.91-57.711 174.98-94.878 211.24-3.7914 3.6996-7.6247 7.1311-11.498 10.316-34.427 28.391-71.985 37.312-111.08 41.935-4.4839 0.53137-8.9842 0.99887-13.496 1.4276-39.583 3.7619-79.996 4.4646-117.34 19.164-2.1153 0.83258-4.2175 1.7125-6.3055 2.6423-38.828 17.29-72.618 51.869-95.015 119.32-0.0884 0.28036 2.7878 1.556 6.1874 3.0112 4.9755 1.663 12.205 4.0324 12.481 4.1136 0.0834-0.13099 0.15119-0.2664 0.19863-0.40762 22.021-66.532 52.413-94.806 88.306-109.4 2.3643-0.96354 4.7578-1.8634 7.1793-2.7054 34.885-12.143 75.701-12.189 118.23-17.03 0.80303-0.0914 1.6068-0.18475 2.4112-0.28012 43.801-5.1921 89.639-16.51 130.14-54.195 0.83846-0.77958 1.6746-1.5704 2.5084-2.3726 41.498-39.904 76.637-107.03 101.37-221.74 0.0538-0.27122-2.7009-1.1565-6.0452-2.1724-5.2017-1.1334-13.344-2.8671-13.344-2.8671" color="#000000" color-rendering="auto" fill="#00bfa8" image-rendering="auto" opacity=".88239" solid-color="#000000" style="block-progression:tb;isolation:auto;mix-blend-mode:normal;text-decoration-color:#000000;text-decoration-line:none;text-decoration-style:solid;text-indent:0;text-transform:none;white-space:normal"/><path d="m-55.339 62.434c-23.934 111.05-57.438 173.53-94.424 209.39-3.7725 3.6581-7.5869 7.0503-11.441 10.198-34.195 27.997-71.498 36.759-110.33 41.308-4.4485 0.52212-8.9133 0.98158-13.389 1.4032-39.265 3.699-79.349 4.4247-116.4 19.007-2.0984 0.82591-4.1837 1.6988-6.255 2.621-38.547 17.164-72.097 51.474-94.32 118.31-0.0708 0.22429 2.874 1.46 6.3508 2.8772 5.0613 1.6916 12.157 4.0256 12.378 4.0906 0.077-0.13556 0.14153-0.27461 0.18978-0.41826 21.895-65.96 52.109-93.917 87.803-108.34 2.3474-0.95027 4.724-1.8377 7.1284-2.6679 34.612-11.962 75.105-12.011 117.3-16.804 0.79662-0.0905 1.594-0.18289 2.392-0.27732 43.468-5.1426 88.963-16.351 129.17-53.624 0.8332-0.77188 1.6641-1.5549 2.4927-2.3493 41.267-39.544 76.203-106.1 100.78-219.84 0.04304-0.21698-2.7707-1.0581-6.1842-2.0317-5.2914-1.1529-13.235-2.8515-13.235-2.8515" color="#000000" color-rendering="auto" fill="#00d5a5" image-rendering="auto" opacity=".88224" solid-color="#000000" style="block-progression:tb;isolation:auto;mix-blend-mode:normal;text-decoration-color:#000000;text-decoration-line:none;text-decoration-style:solid;text-indent:0;text-transform:none;white-space:normal"/><path d="m-67.65 57.33c-23.815 110.2-57.165 172.08-93.971 207.53-3.7537 3.6165-7.5491 6.9694-11.384 10.08-33.964 27.602-71.011 36.205-109.58 40.681-4.4132 0.51286-8.8424 0.96428-13.282 1.3787-38.948 3.6361-78.703 4.3847-115.46 18.85-2.0815 0.81924-4.15 1.685-6.2044 2.5997-38.267 17.038-71.576 51.08-93.625 117.31-0.0531 0.16821 2.9601 1.3639 6.5142 2.7431 5.1471 1.7203 12.109 4.0189 12.274 4.0677 0.0706-0.14013 0.13187-0.28282 0.18095-0.42891 21.768-65.389 51.804-93.027 87.301-107.28 2.3304-0.93699 4.69-1.8119 7.0774-2.6304 34.339-11.781 74.51-11.834 116.37-16.579 0.7902-0.0896 1.5811-0.18105 2.3727-0.27452 43.135-5.093 88.288-16.191 128.2-53.053 0.82792-0.76419 1.6536-1.5394 2.4769-2.3259 41.037-39.184 75.769-105.16 100.19-217.95 0.03228-0.16273-2.8406-0.95975-6.3233-1.8909-5.3811-1.1725-13.126-2.8359-13.126-2.8359" color="#000000" color-rendering="auto" fill="#00d2b1" image-rendering="auto" opacity=".86507" solid-color="#000000" style="block-progression:tb;isolation:auto;mix-blend-mode:normal;text-decoration-color:#000000;text-decoration-line:none;text-decoration-style:solid;text-indent:0;text-transform:none;white-space:normal"/><path d="m-79.961 52.227c-23.695 109.35-56.893 170.63-93.517 205.68-3.7349 3.575-7.5113 6.8886-11.327 9.9622-33.732 27.207-70.524 35.652-108.84 40.055-4.3778 0.50361-8.7714 0.94699-13.176 1.3543-38.631 3.5732-78.057 4.3448-114.51 18.694-2.0646 0.81257-4.1162 1.6713-6.1539 2.5784-37.986 16.911-71.055 50.686-92.93 116.3-0.0354 0.11214 3.0463 1.2679 6.6776 2.6091 5.2329 1.749 12.061 4.0122 12.171 4.0447 0.0642-0.1447 0.12222-0.29103 0.17211-0.43955 21.641-64.818 51.5-92.138 86.799-106.22 2.3135-0.92372 4.6561-1.7862 7.0265-2.5929 34.066-11.6 73.914-11.656 115.44-16.353 0.78378-0.0887 1.5683-0.1792 2.3534-0.27173 42.802-5.0435 87.612-16.032 127.24-52.482 0.82265-0.75649 1.6431-1.5239 2.4612-2.3025 40.806-38.824 75.334-104.22 99.598-216.05 0.02152-0.10849-2.9104-0.86136-6.4623-1.7502-5.4708-1.192-13.018-2.8203-13.018-2.8203" color="#000000" color-rendering="auto" fill="#00c6b7" image-rendering="auto" opacity=".92307" solid-color="#000000" style="block-progression:tb;isolation:auto;mix-blend-mode:normal;text-decoration-color:#000000;text-decoration-line:none;text-decoration-style:solid;text-indent:0;text-transform:none;white-space:normal"/><path d="m-92.272 47.123c-23.575 108.49-56.62 169.18-93.063 203.83-3.7161 3.5334-7.4734 6.8078-11.27 9.8442-33.5 26.812-70.036 35.098-108.09 39.428-4.3424 0.49435-8.7005 0.92969-13.069 1.3299-38.313 3.5104-77.41 4.3049-113.57 18.537-2.0477 0.8059-4.0825 1.6575-6.1033 2.5571-37.705 16.785-70.533 50.292-92.236 115.3-0.0177 0.0561 3.1325 1.1718 6.8409 2.4751 5.3187 1.7776 12.013 4.0055 12.068 4.0218 0.0578-0.14926 0.11256-0.29923 0.16327-0.45019 21.514-64.246 51.195-91.249 86.297-105.16 2.2966-0.91044 4.6222-1.7605 6.9755-2.5555 33.793-11.419 73.318-11.478 114.51-16.128 0.77736-0.0877 1.5554-0.17735 2.3342-0.26892 42.469-4.9939 86.936-15.873 126.27-51.911 0.81738-0.74879 1.6325-1.5084 2.4454-2.2791 40.575-38.464 74.9-103.28 99.008-214.16 0.01076-0.05424-2.9803-0.76298-6.6013-1.6094-5.5604-1.2116-12.909-2.8048-12.909-2.8048" color="#000000" color-rendering="auto" fill="#00c1ab" image-rendering="auto" opacity=".96209" solid-color="#000000" style="block-progression:tb;isolation:auto;mix-blend-mode:normal;text-decoration-color:#000000;text-decoration-line:none;text-decoration-style:solid;text-indent:0;text-transform:none;white-space:normal"/><path d="m-104.58 42.02c-23.455 107.64-56.347 167.73-92.609 201.98-3.6973 3.4919-7.4356 6.727-11.213 9.7263-33.268 26.417-69.549 34.545-107.34 38.801-4.3071 0.48511-8.6296 0.9124-12.962 1.3055-37.996 3.4474-76.764 4.265-112.63 18.38-2.0308 0.79923-4.0487 1.6438-6.0528 2.5358-37.424 16.659-70.012 49.897-91.541 114.29 0 0 3.2187 1.0758 7.0043 2.341 5.4044 1.8063 11.964 3.9988 11.964 3.9988 0.0514-0.15383 0.10291-0.30744 0.15443-0.46083 21.388-63.675 50.89-90.359 85.795-104.1 2.2797-0.89717 4.5883-1.7347 6.9245-2.518 33.52-11.238 72.723-11.3 113.58-15.902 0.77094-0.0868 1.5426-0.1755 2.3149-0.26613 42.136-4.9444 86.261-15.713 125.3-51.339 0.81211-0.7411 1.622-1.493 2.4297-2.2557 40.344-38.103 74.465-102.34 98.418-212.26 0 0-3.0501-0.6646-6.7403-1.4687-5.6501-1.2311-12.801-2.7892-12.801-2.7892" color="#000000" color-rendering="auto" fill="#00dcb7" image-rendering="auto" opacity=".94068" solid-color="#000000" style="block-progression:tb;isolation:auto;mix-blend-mode:normal;text-decoration-color:#000000;text-decoration-line:none;text-decoration-style:solid;text-indent:0;text-transform:none;white-space:normal"/></g></g></svg>
