<svg version="1.1" viewBox="0 0 102.66 182.39" xmlns="http://www.w3.org/2000/svg" xmlns:xlink="http://www.w3.org/1999/xlink"><defs><radialGradient id="b" cx="460.73" cy="313.51" r="121.28" gradientTransform="matrix(.3661 0 0 .64345 -291.77 -920.42)" gradientUnits="userSpaceOnUse" spreadMethod="reflect"><stop stop-color="#fff" offset="0"/><stop stop-color="#fff" stop-opacity="0" offset="1"/></radialGradient><radialGradient id="a" cx="-123.45" cy="-816.53" r="22.984" gradientTransform="matrix(1.7715 0 0 3.2439 95.248 1831.2)" gradientUnits="userSpaceOnUse"><stop stop-color="#fff" offset="0"/><stop stop-color="#fff" stop-opacity="0" offset="1"/></radialGradient></defs><g transform="translate(174.61 911.08)"><path d="m-71.95-780.96c0 28.869-22.981 52.272-51.328 52.272-23.867 0-43.93-16.59-49.676-39.064-1.0786-4.219-1.6527-8.6453-1.6527-13.208 0-28.869 51.328-130.12 51.328-130.12s51.328 101.25 51.328 130.12z" fill="#005dff" fill-opacity=".61714"/><path d="m-74.958-783.2c0 24.619-21.371 44.577-47.733 44.577-26.362 0-47.733-19.958-47.733-44.577s47.733-110.96 47.733-110.96 47.733 86.343 47.733 110.96z" fill="#3e3ec1" fill-opacity=".53714"/><path d="m-78.289-781.55c0 24.704-19.879 44.731-44.401 44.731-24.522 0-44.401-20.027-44.401-44.731 0-24.705 44.401-111.35 44.401-111.35s44.401 86.641 44.401 111.35z" fill="url(#b)"/><path d="m-101.84-846.75c9.4187 22.427 17.059 44.003 17.059 55.006 0 28.703-23.263 51.974-51.966 51.974-0.57834 0-1.1523-0.0163-1.7261-0.035 4.6977 1.6998 9.7596 2.6285 15.044 2.6285 24.426 0 44.229-19.795 44.229-44.22 0-12.406-11.412-40.6-22.64-65.354z" fill="#fff" fill-opacity=".61714"/><path d="m-123.56-892.11s-28.506 58.733-40.606 141.02c11.708 5.1019 25.783 8.0934 40.964 8.0934 14.96 0 28.865-2.8993 40.472-7.8662-11.984-82.415-40.829-141.25-40.829-141.25z" fill="url(#a)"/></g></svg>
