<?xml version="1.0" encoding="UTF-8" standalone="no"?>
<svg
   xmlns:dc="http://purl.org/dc/elements/1.1/"
   xmlns:cc="http://creativecommons.org/ns#"
   xmlns:rdf="http://www.w3.org/1999/02/22-rdf-syntax-ns#"
   xmlns:svg="http://www.w3.org/2000/svg"
   xmlns="http://www.w3.org/2000/svg"
   xmlns:xlink="http://www.w3.org/1999/xlink"
   xmlns:sodipodi="http://sodipodi.sourceforge.net/DTD/sodipodi-0.dtd"
   xmlns:inkscape="http://www.inkscape.org/namespaces/inkscape"
   width="408.47717"
   height="408.47717"
   id="svg8317"
   version="1.1"
   inkscape:version="0.92.3 (2405546, 2018-03-11)"
   sodipodi:docname="xxx.svg">
  <metadata
     id="metadata9526">
    <rdf:RDF>
      <cc:Work
         rdf:about="">
        <dc:format>image/svg+xml</dc:format>
        <dc:type
           rdf:resource="http://purl.org/dc/dcmitype/StillImage" />
        <dc:title></dc:title>
      </cc:Work>
    </rdf:RDF>
  </metadata>
  <defs
     id="defs9524">
    <linearGradient
       inkscape:collect="always"
       id="linearGradient12547">
      <stop
         style="stop-color:#008000;stop-opacity:1;"
         offset="0"
         id="stop12549" />
      <stop
         id="stop12559"
         offset="0.28184429"
         style="stop-color:#00ff00;stop-opacity:1" />
      <stop
         style="stop-color:#008000;stop-opacity:0;"
         offset="1"
         id="stop12551" />
    </linearGradient>
    <radialGradient
       inkscape:collect="always"
       xlink:href="#linearGradient12547"
       id="radialGradient12579"
       gradientUnits="userSpaceOnUse"
       gradientTransform="matrix(0.6464466,0,0,0.6464466,350.50001,164.33767)"
       cx="991.36371"
       cy="464.81711"
       fx="991.36371"
       fy="464.81711"
       r="52.325901" />
    <radialGradient
       inkscape:collect="always"
       xlink:href="#linearGradient12547"
       id="radialGradient12587"
       gradientUnits="userSpaceOnUse"
       gradientTransform="matrix(0.62905746,0,0,0.62905746,367.73897,172.42044)"
       cx="991.36371"
       cy="464.81711"
       fx="991.36371"
       fy="464.81711"
       r="52.325901" />
    <radialGradient
       inkscape:collect="always"
       xlink:href="#linearGradient12547"
       id="radialGradient12595"
       gradientUnits="userSpaceOnUse"
       gradientTransform="matrix(0.93311152,0,0,0.93311152,66.310812,31.09091)"
       cx="991.36371"
       cy="464.81711"
       fx="991.36371"
       fy="464.81711"
       r="52.325901" />
    <filter
       inkscape:collect="always"
       style="color-interpolation-filters:sRGB"
       id="filter12679"
       x="-0.14941929"
       width="1.2988386"
       y="-0.04742663"
       height="1.0948533">
      <feGaussianBlur
         inkscape:collect="always"
         stdDeviation="3.5583207"
         id="feGaussianBlur12681" />
    </filter>
    <linearGradient
       inkscape:collect="always"
       xlink:href="#linearGradient12547"
       id="linearGradient12691"
       x1="920.39062"
       y1="419.71622"
       x2="1031.1075"
       y2="487.71851"
       gradientUnits="userSpaceOnUse" />
  </defs>
  <sodipodi:namedview
     pagecolor="#ffffff"
     bordercolor="#666666"
     borderopacity="1"
     objecttolerance="10"
     gridtolerance="10"
     guidetolerance="10"
     inkscape:pageopacity="0"
     inkscape:pageshadow="2"
     inkscape:window-width="1366"
     inkscape:window-height="721"
     id="namedview9522"
     showgrid="false"
     inkscape:zoom="0.35355339"
     inkscape:cx="114.78155"
     inkscape:cy="131.95275"
     inkscape:window-x="0"
     inkscape:window-y="0"
     inkscape:window-maximized="1"
     inkscape:current-layer="g12745"
     inkscape:snap-bbox="true"
     inkscape:bbox-nodes="true"
     inkscape:snap-bbox-edge-midpoints="true"
     inkscape:bbox-paths="true"
     inkscape:snap-bbox-midpoints="true"
     inkscape:snap-nodes="true"
     inkscape:object-paths="true"
     inkscape:snap-intersection-paths="true"
     inkscape:object-nodes="true"
     fit-margin-top="0"
     fit-margin-left="0"
     fit-margin-right="0"
     fit-margin-bottom="0" />
  <g
     inkscape:groupmode="layer"
     id="Wed Apr 15 15:17:06 2015"
     transform="translate(-755.76141,-335.76141)">
    <g
       id="Sphere.001"
       style="fill:none;stroke:#000000">
      <!-- start Sphere.001 -->
      <g
         id="g12745">
        <circle
           r="204.23859"
           cy="540"
           cx="960"
           id="path12535"
           style="opacity:1;fill:#008000;fill-opacity:1;fill-rule:evenodd;stroke:none;stroke-width:5.95905161;stroke-linecap:round;stroke-linejoin:round;stroke-miterlimit:4;stroke-dasharray:none" />
        <path
           inkscape:connector-curvature="0"
           id="path12528"
           d="m 948.98242,356.91934 0.11524,1.83203 0.004,0.0645 h 21.79688 l 0.004,-0.0645 0.0566,-0.88867 0.0586,-0.94336 h -22.03516 z m -0.99804,0.0625 -21.86133,2.76367 0.35742,1.86329 11.45312,-1.44727 10.16993,-1.28516 -0.004,-0.0605 -0.11523,-1.83399 z m 24.03124,0 -0.11523,1.83399 -0.004,0.0605 21.625,2.73438 0.008,-0.0469 0.004,-0.0156 0.0586,-0.30274 0.28515,-1.5 -21.86133,-2.76367 z m -22.85156,2.83399 0.29492,4.68164 0.004,0.0625 h 21.07422 l 0.004,-0.0625 0.12109,-1.91993 0.17383,-2.76171 h -21.67188 z m -0.99804,0.0625 -21.49805,2.71679 0.89062,4.66797 20.90625,-2.64062 -0.004,-0.0625 -0.29492,-4.68164 z m 23.66796,0 -0.29492,4.68164 -0.004,0.0625 20.90625,2.64062 0.36718,-1.92383 0.52539,-2.74414 -21.5,-2.71679 z m -46.69336,0.0547 -21.34179,5.47852 0.58594,1.80469 21.11328,-5.41992 -0.0117,-0.0605 -0.34571,-1.80274 z m 69.71876,0 -0.34376,1.80274 -0.006,0.0351 -0.006,0.0254 9.35348,2.40234 11.7559,3.01758 0.5879,-1.80469 -21.34181,-5.47852 z m -69.17383,2.84961 -10.49414,2.69336 -10.4961,2.69336 1.44922,4.46289 0.0195,0.0586 20.41211,-5.23829 -0.002,-0.01 -0.01,-0.0527 -0.8789,-4.60742 z m 68.63086,0 -0.88086,4.60742 v 0.002 l -0.0117,0.0586 20.41205,5.24024 0.02,-0.0586 1.4492,-4.46289 -20.98827,-5.38672 z m -44.79102,2.77735 0.46875,7.4414 0.004,0.0625 h 20.0039 l 0.004,-0.0625 0.22656,-3.60742 0.24219,-3.83398 h -20.94922 z m -0.99805,0.0625 -20.78125,2.62695 1.40821,7.38477 19.8457,-2.50782 -0.004,-0.0625 -0.46875,-7.4414 z m 22.94532,0 -0.46875,7.4414 -0.004,0.0625 19.8457,2.50782 0.002,-0.01 0.01,-0.0527 1.39649,-7.32227 -20.78125,-2.62695 z m -68.625,0.0976 -20.48633,8.11328 0.78125,1.66016 0.0273,0.0566 20.26367,-8.02344 -0.0195,-0.0605 -0.5664,-1.7461 z m 114.30464,0 -0.5195,1.60547 -0.047,0.14063 -0.019,0.0605 20.2637,8.02344 0.027,-0.0566 0.3399,-0.7207 0.4433,-0.93946 -20.4863,-8.11328 v 0 z m -90.38863,2.7168 -20.29101,5.20898 1.2539,3.85743 1.05078,3.23242 0.0195,0.0586 19.375,-4.97265 -0.002,-0.01 -0.01,-0.0527 -1.39649,-7.32227 z m 66.47266,0 -1.39649,7.32227 -0.002,0.01 -0.01,0.0469 v 0.004 l 19.37496,4.97461 0.02,-0.0586 2.3046,-7.08985 -20.29095,-5.20898 z m -89.49219,0.043 -10.07422,3.98828 -10.07422,3.98828 1.99805,4.24609 0.0273,0.0566 19.5918,-7.75782 -0.0195,-0.0605 -0.82031,-2.52735 -0.62891,-1.93359 z m 112.51176,0 -1.1895,3.66211 -0.2598,0.79883 -0.019,0.0605 19.5918,7.75586 2.0254,-4.30078 -20.1484,-7.97656 z m -110.73442,5.47461 -19.4746,7.71094 3.17382,6.74609 0.0274,0.0566 18.59765,-7.36328 -0.0195,-0.0606 -2.30469,-7.08984 z m 108.95702,0 -2.3047,7.08984 -0.019,0.0606 18.5976,7.36133 3.2012,-6.80078 -19.4746,-7.71094 z m -64.41795,0.10937 0.63476,10.06446 0.004,0.0625 h 18.60156 l 0.004,-0.0625 0.30859,-4.87891 0.32617,-5.18555 h -19.8789 z m -0.99805,0.0625 -19.7207,2.49219 1.44336,7.5625 0.44726,2.34375 0.0117,0.0606 18.45703,-2.33203 -0.004,-0.0625 -0.63477,-10.06446 z m 21.875,0 -0.63477,10.06446 -0.004,0.0625 9.22851,1.16797 9.22852,1.16406 0.71094,-3.72656 1.1914,-6.24024 -9.86132,-1.24609 -9.85938,-1.2461 z m -89.48242,0.13086 -19.3086,10.61524 1.01758,1.60351 19.09961,-10.5 -0.0273,-0.0566 -0.78125,-1.66211 z m 157.08982,0 -0.7812,1.66211 -0.027,0.0566 19.0996,10.5 1.0176,-1.60351 -19.3086,-10.61524 z m -110.18552,2.54883 -19.25391,4.94336 3.13672,9.65039 18.01953,-4.62695 z m 63.28124,0 -1.89062,9.90625 -0.0117,0.0606 14.3379,3.68164 3.6797,0.94531 1.8847,-5.79687 1.2539,-3.85352 -11.98823,-3.07812 -7.26563,-1.86524 z m -108.95117,0.0762 -18.98828,10.43946 2.51367,3.96093 0.0332,0.0527 18.46679,-10.15039 -0.0273,-0.0566 -0.76172,-1.6211 -1.23633,-2.625 z m 154.62115,0 -1.9981,4.2461 -0.012,0.0234 -0.01,0.0117 -0.01,0.0215 18.4667,10.15039 0.033,-0.0527 2.5136,-3.96093 -18.9882,-10.43946 z m -129.1563,5.17578 -18.48047,7.31641 4.29492,9.125 0.0273,0.0566 17.29493,-6.84766 -0.0195,-0.0586 -1.99804,-6.15234 -1.11914,-3.43946 z m 103.6914,0 -3.1172,9.5918 -0.02,0.0586 17.2949,6.84766 0.027,-0.0566 4.2949,-9.125 -18.4805,-7.31641 z m -126.70508,0.0332 -18.35546,10.09179 4.02734,6.34766 17.5293,-9.63672 -0.0254,-0.0566 -3.17579,-6.74609 z m 149.71878,0 -3.1758,6.74609 -0.025,0.0566 17.5293,9.63672 0.033,-0.0527 3.9941,-6.29493 -9.1777,-5.04687 -9.1777,-5.04492 z m -84.09768,3.09961 0.78711,12.51562 0.004,0.0625 h 16.89454 l 0.004,-0.0625 0.38086,-6.06836 0.40625,-6.44726 h -18.47656 z m -0.99805,0.0625 -18.33203,2.31836 0.77344,4.05468 1.57617,8.26172 0.0117,0.0606 16.76172,-2.11719 -0.004,-0.0625 -0.78711,-12.51562 z m 20.47266,0 -0.78711,12.51562 -0.004,0.0625 16.76172,2.11914 0.0117,-0.0625 1.8457,-9.67187 0.50391,-2.64453 -18.33203,-2.31836 z m -108.9336,0.15625 -17.82812,12.95117 1.17187,1.41406 0.041,0.0488 17.63086,-12.81055 -0.0176,-0.0293 -0.0156,-0.0254 -0.98243,-1.54882 z m 197.39647,0 -0.9844,1.54882 -0.033,0.0527 17.6309,12.8125 0.041,-0.0488 0.666,-0.80469 0.5059,-0.60937 -17.8262,-12.95117 z m -128.24998,2.34961 -17.89649,4.59375 3.875,11.92578 0.0195,0.0586 16.36328,-4.19922 -0.0117,-0.0625 -2.34961,-12.3164 z m 59.10156,0 -2.34961,12.3164 -0.0117,0.0606 16.36323,4.20117 0.02,-0.0586 3.875,-11.92578 -17.8965,-4.59375 z m -126.69531,0.0996 -17.5293,12.73632 2.98828,3.61524 0.0391,0.0469 0.002,0.002 17.04687,-12.38672 -0.0332,-0.0527 -2.51367,-3.96093 z m 194.28903,0 -2.5136,3.96093 -0.033,0.0527 17.0468,12.38672 v -0.004 l 3.0273,-3.66016 -17.5293,-12.73632 z m -168.37497,1.9414 -8.71094,4.78906 -8.70898,4.78711 5.4375,8.56836 16.30273,-8.96289 -0.0273,-0.0566 -4.29297,-9.125 z m 142.46097,0 -1.4239,3.02734 -2.8691,6.09766 -0.027,0.0566 16.3027,8.96289 0.033,-0.0527 5.4043,-8.51563 -17.4199,-9.57617 z m -119.63089,2.86133 -17.17773,6.80273 5.36523,11.40235 15.70703,-6.22071 z m 96.79879,0 -3.4785,10.70508 -0.3965,1.2207 -0.019,0.0606 15.707,6.21875 5.3672,-11.40235 -17.1797,-6.80273 z m -142.45699,0.0586 -16.94727,12.31055 4.75195,5.74414 0.041,0.0488 16.18164,-11.75781 -0.0332,-0.0527 -3.99414,-6.29297 z m 188.11719,0 -3.9942,6.29297 -0.033,0.0527 16.1816,11.75781 0.041,-0.0488 4.752,-5.74414 -16.9473,-12.31055 z m -102.44337,6.04883 0.93165,14.8125 h 14.90624 l 0.004,-0.0625 0.44922,-7.15234 0.47852,-7.59766 h -16.76954 z m -0.99804,0.0625 -16.63672,2.10352 2.76953,14.51562 0.0117,0.0625 14.78711,-1.86914 -0.004,-0.0625 -0.92773,-14.75 z m 18.76562,0 -0.92773,14.75 -0.004,0.0625 14.78711,1.86914 0.0117,-0.0625 1.00195,-5.25195 1.76758,-9.26367 -8.31836,-1.05274 -8.31836,-1.05078 z m -126.67773,0.16795 -16.0625,15.08203 1.33789,1.25781 0.0469,0.043 15.88672,-14.91992 -0.0391,-0.0488 -1.16992,-1.41406 z m 234.58982,0 -1.1699,1.41406 -0.039,0.0488 15.8887,14.91797 0.033,-0.0312 0.012,-0.01 1.3379,-1.25781 z m -183.77732,0.89062 -16.19141,8.90235 6.75195,10.63867 14.80469,-8.13867 -0.0273,-0.0566 -2.07422,-4.40821 -3.26367,-6.9375 z m 132.96482,0 -5.3379,11.34571 -0.027,0.0566 14.8047,8.13867 6.7539,-10.64062 -16.1934,-8.9004 z m -155.97654,0.0215 -16.08008,11.68359 6.42774,7.77149 0.041,0.0488 6.33203,-4.60157 8.7168,-6.33398 -0.0332,-0.0527 -5.4043,-8.51562 z m 178.98824,0 -0.4062,0.64062 -4.9981,7.875 -0.033,0.0527 15.0489,10.93555 0.041,-0.0488 6.4277,-7.77149 -4.9941,-3.6289 -11.086,-8.05469 z m -116.49605,1.21094 -8.1211,2.08398 -8.12109,2.08399 4.56836,14.05664 0.0195,0.0586 14.43555,-3.70508 -0.0117,-0.0625 -2.76953,-14.51562 z m 54.0039,0 -2.76953,14.51562 -0.0117,0.0625 14.43555,3.70508 0.0195,-0.0586 2.98243,-9.17383 1.5859,-4.88281 -16.24216,-4.16797 z m -142.44726,0.11328 -15.79688,14.83203 3.42969,3.22266 0.0352,0.0312 7.67968,-7.21289 7.68164,-7.2129 -0.0391,-0.0469 -2.99023,-3.61328 z m 230.89061,0 -3.0293,3.66015 15.3613,14.42774 0.047,-0.0449 3.418,-3.21094 -7.8984,-7.41602 -7.8985,-7.41601 z m -159.64061,4.36523 -15.58985,6.17188 6.31836,13.42968 13.85742,-5.48632 z m 88.39061,0 -4.56835,14.05469 -0.0195,0.0606 13.85935,5.48632 0.027,-0.0566 6.2911,-13.37304 -15.5899,-6.17188 z m -155.97264,0.0684 -15.26954,14.33985 1.21876,1.14453 4.21484,3.95898 0.0469,0.043 14.58008,-13.69336 -0.0391,-0.0488 -4.75195,-5.74414 z m 223.55464,0 -3.707,4.48242 -1.0449,1.26172 -0.039,0.0488 14.5801,13.69336 0.023,-0.0215 0.024,-0.0215 5.4336,-5.10547 -15.2696,-14.33789 z m -28.2578,3.65625 -3.4902,5.50195 -3.2285,5.0879 -0.033,0.0527 13.666,9.92969 0.041,-0.0488 7.9922,-9.66211 -4.7774,-3.47266 -10.1699,-7.38867 z m -167.03903,0.002 -14.94727,10.85938 7.99219,9.66211 0.041,0.0488 13.66601,-9.92969 -0.0332,-0.0527 -6.71875,-10.5879 z m 22.82812,2.8711 -14.69336,8.07812 7.91797,12.47852 0.0352,0.0547 13.06055,-7.18164 -0.0274,-0.0566 -6.29297,-13.37305 z m 121.38281,0 -6.293,13.37305 -0.027,0.0566 13.0605,7.18164 0.035,-0.0547 2.7559,-4.33984 5.1621,-8.13868 -14.6934,-8.07812 z m -167.0371,0.0352 -7.24414,6.80468 -7.2461,6.80274 7.35156,6.90429 0.0469,0.043 13.55859,-12.73437 -0.0391,-0.0488 -1.875,-2.26758 -4.55273,-5.5039 z m 212.6914,0 -6.4277,7.77148 -0.039,0.0488 13.5605,12.73242 0.033,-0.0293 0.012,-0.0117 7.3515,-6.90625 -14.4902,-13.60546 z m -113.73632,2.34765 1.05468,16.73633 0.004,0.0625 h 12.66406 l 0.004,-0.0625 0.51172,-8.11524 0.54296,-8.62109 h -14.78124 z m -0.99805,0.0625 -14.66211,1.85352 3.14258,16.4707 0.0117,0.0625 12.5664,-1.58789 -0.004,-0.0625 -1.05469,-16.73633 z m 16.77734,0 -1.05469,16.73633 -0.004,0.0625 12.5664,1.58789 0.0117,-0.0625 1.14453,-5.99609 1.99805,-10.47461 -7.33203,-0.92774 -7.33008,-0.92578 z m -142.42969,0.16797 -14.04687,16.97656 1.48633,1.08008 0.0508,0.0371 13.89258,-16.79492 -0.0449,-0.043 -1.3379,-1.25586 z m 268.08202,0 -1.3398,1.25977 -0.043,0.0391 13.8945,16.79492 0.051,-0.0371 1.4844,-1.08008 -14.0469,-16.97656 z m -158.0742,1.87305 -7.15821,1.83789 -7.15625,1.83594 5.20313,16.00781 12.26562,-3.14844 -0.0117,-0.0625 -3.14258,-16.4707 z m 48.0664,0 -3.14258,16.4707 -0.0117,0.0625 12.26757,3.14844 0.0195,-0.0586 5.18164,-15.94921 -14.31446,-3.67383 z m -155.96093,0.11328 -6.90625,8.34765 -6.90625,8.34766 3.79492,2.75781 0.0508,0.0371 13.43164,-16.23828 -0.0449,-0.041 -2.05274,-1.92774 -1.36718,-1.2832 z m 263.85543,0 -3.4199,3.21094 -0.045,0.043 13.4316,16.23633 0.051,-0.0371 3.7949,-2.75781 -13.8125,-16.69531 z m -171.22653,3.87109 -6.86914,2.7207 -6.87109,2.71876 7.13867,15.17382 0.0273,0.0566 11.77539,-4.66211 -0.0195,-0.0605 -5.18164,-15.94727 z m 78.59766,0 -5.18164,15.94727 -0.0195,0.0605 11.77531,4.66211 0.027,-0.0566 7.1406,-15.17187 -13.74214,-5.44141 z m -167.0293,0.0684 -13.35351,16.14063 6.03125,4.38086 0.0508,0.0371 12.75,-15.41211 -0.0449,-0.043 -1.03515,-0.97071 -4.39844,-4.13281 z m 255.46097,0 -3.5117,3.29883 -1.9219,1.80469 -0.045,0.043 12.75,15.41211 0.051,-0.0371 6.0313,-4.38086 -13.3535,-16.14063 z m -203.96097,0.0762 -13.56445,9.85547 9.45898,11.43555 12.0586,-8.75977 -0.0332,-0.0527 -6.69531,-10.54883 -1.22461,-1.92969 z m 152.46097,0 -1.8711,2.94922 -6.0488,9.5293 -0.033,0.0527 12.0586,8.75977 0.039,-0.0469 9.4199,-11.38867 -13.5644,-9.85547 z m -175.46878,0.0117 -6.73438,6.32422 -6.73437,6.32422 9.18555,8.62695 12.31445,-11.56445 -0.0391,-0.0488 -2.27539,-2.75195 -5.7168,-6.91016 z m 198.47658,0 -7.9922,9.66211 -0.039,0.0488 12.3145,11.56445 0.045,-0.043 9.1406,-8.58398 -6.7343,-6.32422 -6.7344,-6.32422 z m -153.18361,5.70899 -12.95117,7.12109 9.01953,14.21094 11.09765,-6.10157 -0.0117,-0.0273 -0.0137,-0.0293 -7.14062,-15.17382 z m 107.89061,0 -7.1406,15.17382 -0.027,0.0566 11.0996,6.10157 0.033,-0.0527 8.9863,-14.1582 -12.9512,-7.12109 z m -175.46483,0.0352 -12.67188,15.31641 8.16016,5.92773 0.0508,0.0371 11.85742,-14.33398 -0.0449,-0.043 -1.38086,-1.29688 -5.9707,-5.60742 z m 243.03903,0 -4.7168,4.43164 -2.6347,2.47266 -0.045,0.043 11.8574,14.33203 0.051,-0.0352 8.1601,-5.92773 -12.6719,-15.31641 z m -212.08591,4.73828 -6.11328,5.73829 -6.11133,5.74023 2.60157,2.44141 8.17187,7.67578 0.0469,0.043 10.86523,-10.20313 -0.041,-0.0488 -2.51954,-3.04492 -6.90039,-8.3418 z m 181.13281,0 -9.4512,11.42579 -0.01,0.01 10.8652,10.20313 0.027,-0.0254 0.019,-0.0176 10.7734,-10.11719 -6.1113,-5.74023 -6.1133,-5.73829 z m -96.83593,1.07227 1.16015,18.44141 0.004,0.0625 h 10.21094 l 0.004,-0.0625 0.5625,-8.94141 0.59765,-9.5 h -12.53906 z m -0.99805,0.0625 -12.4414,1.57226 3.46289,18.1504 0.0117,0.0625 10.13086,-1.28125 -0.004,-0.0625 -1.16016,-18.44141 z m 14.53516,0 -1.16016,18.44141 -0.004,0.0625 10.13086,1.28125 0.0117,-0.0625 1.25586,-6.58008 2.20703,-11.57032 -6.2207,-0.78515 -6.2207,-0.78711 z m -155.94336,0.1543 -11.80664,18.60546 1.60937,0.88477 0.0547,0.0293 4.5332,-7.14453 7.14454,-11.25782 -0.0234,-0.0176 -0.0254,-0.0195 -1.48633,-1.08007 z m 297.35158,0 -1.4844,1.08007 -0.051,0.0371 11.6778,18.40235 0.055,-0.0293 0.5722,-0.31445 1.0371,-0.57032 -11.8066,-18.60546 z m -216.41603,1.59375 -11.95508,8.6875 10.6875,12.91992 0.041,0.0488 10.2461,-7.44532 -0.0332,-0.0527 z m 135.48043,0 -1.7129,2.69921 -7.2734,11.45899 v 0 l -0.035,0.0527 10.2461,7.44532 0.041,-0.0488 6.127,-7.40625 4.5625,-5.51367 -5.9785,-4.34375 -5.9786,-4.34375 z m -88.43161,0.0117 -6.07226,1.5586 -6.07227,1.55859 5.18164,15.94922 0.52735,1.625 0.0195,0.0586 9.89062,-2.5371 -0.0117,-0.0625 -3.46289,-18.1504 z m 41.38282,0 -3.46289,18.1504 -0.0117,0.0605 9.89062,2.53906 0.0195,-0.0586 5.71094,-17.57226 -7.62695,-1.95899 -4.51953,-1.16016 z m 92.70119,0 -9.1407,8.58399 -0.047,0.043 10.7695,13.01758 0.051,-0.0371 10.1445,-7.3711 -11.7773,-14.23633 z m -226.78518,0.002 -11.77734,14.23633 10.14453,7.36914 0.0508,0.0371 10.76953,-13.01758 -0.0469,-0.043 -9.14063,-8.58203 z m -32.93554,0.0976 -11.61133,18.29688 4.16406,2.29101 11.29297,-17.79101 -2.27735,-1.65625 z m 292.65822,0.002 -3.8477,2.79492 11.291,17.79101 4.166,-2.28906 -9.1464,-14.41601 z m -180.11721,3.32617 -11.66016,4.61719 7.86719,16.71679 0.0273,0.0566 9.49414,-3.75781 -0.0195,-0.0605 -3.13477,-9.64843 -2.57422,-7.92383 z m 67.57422,0 -4.77344,14.69141 -0.93555,2.88085 -0.0195,0.0605 9.49414,3.75781 0.0137,-0.0273 0.0137,-0.0293 7.86724,-16.71679 -11.66021,-4.61719 z m -175.45899,0.0566 -11.2246,17.6875 6.5332,3.58984 0.0547,0.0293 10.71875,-16.88672 -0.0508,-0.0371 -6.03126,-4.38281 z m 283.34378,0 -6.0313,4.38281 -0.051,0.0371 10.7188,16.88672 0.055,-0.0293 4.7754,-2.62304 1.7578,-0.9668 -5.6113,-8.84375 -5.6133,-8.84375 z m -188.02346,4.98438 -10.98828,6.04101 9.93359,15.6543 8.94922,-4.91992 -0.0273,-0.0566 -7.73632,-16.43945 -0.13086,-0.27929 z m 92.70316,0 -0.7793,1.6582 -7.08792,15.06054 -0.0273,0.0566 8.94912,4.91992 0.033,-0.0527 9.9003,-15.60156 -5.4941,-3.02148 -5.4941,-3.01953 z m -181.1309,0.0234 -10.65039,16.78321 2.58203,1.41992 6.31055,3.46875 9.96875,-15.70703 -0.0508,-0.0371 -8.16016,-5.92774 z m 269.5586,0 -6.0371,4.38672 -2.1231,1.54102 -0.051,0.0371 9.9687,15.70703 0.055,-0.0293 3.4863,-1.91601 5.3516,-2.94336 -5.3242,-8.39258 -5.3262,-8.39063 z m -54.3125,0.82031 -10.6875,12.92188 -0.039,0.0488 9.2305,8.66992 0.027,-0.0254 0.019,-0.0176 12.2226,-11.48047 -5.3867,-5.05859 -5.3867,-5.0586 z m -183.94141,0.002 -9.08008,10.97265 -1.60937,1.94727 11.95703,8.68555 0.0508,0.0371 9.5,-11.48438 -0.0449,-0.043 -10.77344,-10.11523 z m 23.00781,0 -10.77343,10.11719 3.52148,3.30664 8.70117,8.17187 0.0469,0.043 9.23047,-8.66992 -0.0391,-0.0488 -10.6875,-12.91992 z m 183.9414,0 -10.8183,10.1582 9.5,11.48438 0.051,-0.0371 11.9571,-8.68555 -1.6094,-1.94727 -9.0801,-10.97265 z m 22.2832,5.73047 -10.1953,7.41015 9.0527,14.26172 0.055,-0.0293 4.7735,-2.62304 6.2148,-3.41602 -4.9512,-7.80078 -4.9492,-7.80273 z m -251.51561,0.002 -9.90039,15.60156 10.98828,6.03906 0.0547,0.0293 9.05273,-14.26367 -0.0508,-0.0371 -10.14453,-7.36914 z m 67.57422,0 -8.63086,6.26953 -1.51367,1.09961 11.8164,14.28516 8.26172,-6.00196 -0.0332,-0.0527 -9.90039,-15.59961 z m 116.36919,0 -9.9024,15.59961 -0.033,0.0527 8.2617,6.00196 0.039,-0.0469 11.7773,-14.23828 -5.0703,-3.68555 -5.0722,-3.68359 z m -63.22857,2.63477 1.24805,19.83789 0.004,0.0644 h 7.58204 l 0.004,-0.0644 0.60547,-9.61914 0.64258,-10.21875 h -10.08594 z m -0.99805,0.0625 -10.00586,1.26562 2.71876,14.25586 1.00585,5.26953 0.01,0.0508 0.002,0.01 7.52149,-0.95117 -0.004,-0.0606 -1.24805,-19.83984 z m 12.08204,0 -1.24805,19.83984 -0.004,0.0606 7.52149,0.95117 0.004,-0.0195 0.008,-0.041 3.72461,-19.52539 -5.00391,-0.63281 -5.00195,-0.63281 z m -167.00586,0.13281 -9.38086,19.9375 1.76562,0.69922 9.2793,-19.72071 -0.0547,-0.0312 v -0.002 l -1.60937,-0.88281 z m 321.92964,0 -1.6093,0.88476 -0.055,0.0312 9.2812,19.72071 0.051,-0.0215 0.01,-0.002 0.3886,-0.1543 1.3184,-0.52148 -9.3809,-19.9375 z m -177.9941,1.32031 -9.76953,2.50781 3.51172,10.80078 2.63281,8.10352 0.0195,0.0586 7.3418,-1.88476 -0.0117,-0.0625 -3.72461,-19.52344 z m 34.0586,0 -3.72461,19.52344 -0.004,0.0254 -0.008,0.0371 7.3418,1.88476 3.99414,-12.28711 2.16992,-6.67578 -6.04297,-1.55273 -3.72656,-0.95508 z m -175.45118,0.0781 -9.22656,19.60742 4.41992,1.75 8.97266,-19.06836 z m 316.84378,0 -4.1641,2.28906 6.1016,12.96484 2.8711,6.10156 1.4121,-0.55859 3.0058,-1.18945 z m -250.34768,0.88281 -9.41992,11.38867 13.5664,9.85547 0.0508,0.0371 8.07227,-9.75781 -0.0449,-0.043 -12.22461,-11.48047 z m 183.85158,0.002 -12.2246,11.47852 -0.045,0.043 8.0722,9.75781 0.051,-0.0371 13.5664,-9.85547 -9.4199,-11.38672 z m -119.6758,1.85352 -9.37695,3.71289 8.46484,17.98437 0.0273,0.0566 3.52539,-1.39453 3.52149,-1.39648 -0.0176,-0.0586 -6.14447,-18.90455 z m 55.5,0 -6.14453,18.90429 -0.0195,0.0606 7.04883,2.78906 0.0273,-0.0566 5.43164,-11.54101 3.0332,-6.44336 -9.37695,-3.71289 z m -181.12891,0.0332 -8.91797,18.95508 6.99024,2.76758 8.51562,-18.09961 -0.0547,-0.0312 v -0.002 l -6.53125,-3.58984 h -0.002 z m 306.75581,0 -6.5312,3.5918 -0.01,0.002 -0.049,0.0293 5.791,12.30664 2.7266,5.79101 2.332,-0.92187 4.6563,-1.84375 -4.459,-9.47852 -4.459,-9.47656 v 0 z m -268.12885,0.99609 -8.98438,14.15821 12.95117,7.11914 0.0547,0.0293 7.98633,-12.58203 -0.0508,-0.0371 -11.95703,-8.6875 z m 229.50385,0 -11.957,8.6875 -0.051,0.0371 7.9864,12.58203 0.055,-0.0293 11.3379,-6.23242 1.6132,-0.88672 -4.4922,-7.08008 -4.4922,-7.07813 z m -183.85151,0.0117 -4.57031,4.29297 -4.57031,4.29102 13.46875,12.64843 0.0469,0.043 7.44336,-6.99023 -0.041,-0.0488 -3.20898,-3.87891 -8.56836,-10.35742 z m 138.19921,0 -11.7773,14.23633 -0.024,0.0273 -0.01,0.0117 -0.01,0.01 7.4434,6.98828 13.5156,-12.68945 -9.1406,-8.58399 z m -215.01171,3.09766 -8.46289,17.98633 9.37695,3.71093 0.0586,0.0234 7.91992,-16.83203 -8.89063,-4.88867 h -0.002 z m 107.88281,0 -8.83789,4.85937 10.65039,16.78125 0.0332,0.0527 6.64257,-3.65039 -8.48828,-18.04297 z m 76.0586,0 -8.48828,18.04297 6.64257,3.65039 0.0332,-0.0527 10.65041,-16.78125 -8.83791,-4.85937 z m 107.8828,0 -8.8379,4.85742 -0.055,0.0312 5.3848,11.44727 2.5351,5.38476 0.059,-0.0234 9.3769,-3.71093 -4.2305,-8.99414 -4.2324,-8.99219 z m -282.05272,5.37109 -3.9336,8.35938 -3.93359,8.35937 11.71679,4.63867 7.19336,-15.28515 -0.0547,-0.0312 v -0.002 l -10.98828,-6.03906 z m 272.28122,0 -10.9883,6.04102 -0.055,0.0312 7.1933,15.28515 0.1192,-0.0469 11.5976,-4.5918 -7.8672,-16.71875 z m -183.85349,0.0234 -8.1582,5.92773 12.66992,15.31641 0.0391,0.0469 6.13281,-4.45508 -0.0332,-0.0527 -10.65039,-16.7832 z m 95.42579,0 -10.6504,16.7832 -0.0332,0.0527 6.1328,4.45508 0.039,-0.0469 12.6699,-15.31641 -4.0781,-2.96484 -4.0801,-2.96289 z m -149.64649,0.80859 -7.91797,12.47852 14.69336,8.07812 0.0547,0.0293 6.78711,-10.69141 -0.0508,-0.0371 -7.65625,-5.5625 z m 203.86719,0 -10.7246,7.79297 -2.8418,2.06446 -0.051,0.0371 6.7871,10.69141 0.055,-0.0293 14.6953,-8.07812 v -0.002 l -7.9199,-12.47657 z m -180.85743,0.0117 -7.99414,9.66211 14.94922,10.86133 0.0508,0.0371 6.50781,-7.86914 -0.0449,-0.043 -2.65039,-2.49023 -10.81836,-10.15821 z m 157.84763,0 -13.5136,12.69141 6.5078,7.86719 0.051,-0.0352 14.9492,-10.86133 -7.9942,-9.66211 z m -203.14255,5.71094 -3.57031,7.58594 -3.57032,7.58593 11.73047,4.64454 2.07032,0.82031 6.3457,-13.48633 -0.0547,-0.0312 -12.95117,-7.11914 z m 248.43755,0 -12.9512,7.11914 -0.055,0.0312 6.3477,13.48438 13.7988,-5.4629 -7.1406,-15.17187 z m -180.86138,0.0352 -7.35156,6.90234 14.49023,13.60742 0.0449,0.043 5.52734,-5.18945 -0.041,-0.0488 -12.66992,-15.31445 z m 113.28518,0 -12.7031,15.35547 -0.01,0.008 5.5274,5.18945 10.9043,-10.24023 3.6308,-3.41016 -7.3515,-6.90234 z m -60.37112,0.4707 1.31641,20.90625 0.004,0.0625 h 4.8164 l 0.004,-0.0625 0.55859,-8.87695 0.75782,-12.0293 h -7.45704 z m -0.99804,0.0625 -7.39649,0.93359 3.92578,20.57618 0.0117,0.0625 4.7793,-0.60352 -0.004,-0.0625 -1.3164,-20.90625 z m 9.45312,0 -1.3164,20.90625 -0.004,0.0625 4.7793,0.60352 0.0117,-0.0625 2.75781,-14.45313 1.16797,-6.12305 -7.39649,-0.93359 z m -175.43945,0.0977 -6.81055,20.95703 1.7793,0.45508 0.0606,0.0156 6.73437,-20.72852 -0.0352,-0.0137 -0.0234,-0.01 -1.70508,-0.67578 z m 341.42769,0 -1.707,0.67578 -0.059,0.0234 6.7364,20.72852 0.061,-0.0156 0.8437,-0.21485 0.9336,-0.24023 -6.8086,-20.95703 z m -183.82027,1.02343 -3.60937,0.92774 -3.61133,0.92578 6.49219,19.98242 4.66601,-1.19726 -0.0117,-0.0625 -3.92578,-20.57618 z m 26.21094,0 -3.92578,20.57618 -0.0117,0.0625 4.66406,1.19726 3.98633,-12.26367 2.50781,-7.71875 -7.2207,-1.85352 z m -181.12109,0.0449 -6.69727,20.60743 4.54297,1.16797 0.0605,0.0156 3.25782,-10.02148 3.2539,-10.01954 -0.01,-0.004 -4.4082,-1.7461 z m 336.03322,0 -4.3613,1.72657 -0.059,0.0234 6.5117,20.04102 0.061,-0.0156 2.1543,-0.55274 2.3887,-0.61328 -6.6953,-20.60938 z m -330.68166,2.11915 -6.47266,19.92187 4.74219,1.2168 2.47656,0.63672 0.0625,0.0156 6.18164,-19.02344 -0.0586,-0.0234 -6.93164,-2.74414 z m 141.38672,0 -6.93164,2.74414 8.91992,18.95312 0.0273,0.0566 4.47656,-1.77148 -0.0195,-0.0605 -4.21679,-12.98242 -2.25586,-6.93945 z m 42.55468,0 -6.49218,19.98046 4.47656,1.77344 0.0273,-0.0566 8.91992,-18.95312 -6.93164,-2.74414 z m 141.38676,0 -6.9297,2.74414 -0.059,0.0234 6.1816,19.02344 0.061,-0.0156 3.4199,-0.87696 3.8008,-0.97656 -6.4746,-19.92187 z m -250.16996,0.90625 -6.71875,10.58789 5.00977,2.7539 11.23632,6.17774 5.47266,-8.6211 -0.0508,-0.0371 -8.48633,-6.16601 -6.46289,-4.69531 z m 175.01176,0 -11.6465,8.46093 -3.3028,2.40039 -0.051,0.0371 5.4726,8.6211 0.055,-0.0293 16.1914,-8.90234 -3.3594,-5.29297 -3.3593,-5.29492 z m -242.24809,2.23046 -6.14258,18.9043 9.76758,2.50781 0.0606,0.0156 4.33984,-13.35352 1.41016,-4.33789 -5.43359,-2.15234 -4.00196,-1.58399 z m 309.48439,0 -9.375,3.71094 -0.059,0.0234 5.748,17.69141 0.061,-0.0137 9.7676,-2.50781 -3.0704,-9.45312 -3.0722,-9.45118 z m -183.85548,0.0332 -4.4961,2.4707 -2.0371,1.12109 11.25781,17.73829 4.2207,-2.32032 -0.0273,-0.0566 -8.66992,-18.42773 -0.24805,-0.52539 z m 58.22656,0 -8.91797,18.95312 -0.0273,0.0566 4.2207,2.32032 6.12305,-9.64844 5.13476,-8.08985 -2.0371,-1.12109 -4.4961,-2.4707 z m -139.44726,0.60937 -6.29297,13.37305 15.64843,6.19531 5.39258,-11.45898 -0.0547,-0.0312 -14.69336,-8.07813 z m 220.66798,0 -14.6934,8.07813 -0.055,0.0312 5.3926,11.45703 5.6621,-2.24024 9.9863,-3.95312 -6.2929,-13.37305 z m -175.01369,0.0352 -6.42773,7.76953 16.13086,11.7207 4.83398,-5.84179 -0.0469,-0.043 -14.49024,-13.60547 z m 129.35939,0 -9.9766,9.36719 -4.5136,4.23828 -0.047,0.043 4.834,5.84179 0.051,-0.0371 16.0801,-11.68359 -6.4277,-7.76953 z m -209.0547,3.42578 -4.08398,12.56641 -1.62696,5.00781 12.14649,3.11719 0.0605,0.0156 5.22071,-16.06641 -0.0586,-0.0234 -11.6582,-4.61719 z m 288.75,0 -11.6582,4.61719 -0.059,0.0234 5.2227,16.06641 0.058,-0.0156 7.3477,-1.88477 4.7988,-1.23242 -5.7109,-17.57422 z m -180.86719,0.0566 -6.03125,4.38281 10.13477,12.25 3.21875,3.89063 0.0391,0.0469 3.89648,-2.83007 -0.0332,-0.0527 -8.42773,-13.28125 -2.79688,-4.40625 z m 72.98438,0 -4.09375,6.45117 -7.13086,11.23633 -0.0332,0.0527 3.89648,2.83007 0.0391,-0.0469 13.35344,-16.14063 -3.01555,-2.1914 -3.01562,-2.19141 z m -168.21875,4.95313 -5.18164,15.94726 14.375,3.68945 4.60547,-14.17382 -0.0586,-0.0234 -13.74023,-5.43945 z m 263.45316,0 -13.7403,5.43945 -0.059,0.0234 4.6055,14.17382 4.8437,-1.24218 9.5313,-2.44922 -2.5898,-7.97266 -2.5918,-7.97265 z m -175.01957,0.0664 -2.71875,2.55274 -2.7168,2.55078 3.55664,3.33984 11.7129,11 0.0469,0.043 3.51172,-3.29688 -0.041,-0.0488 -3.86914,-4.67774 -9.48242,-11.46289 z m 86.58597,0 -13.35159,16.14063 -0.0176,0.0215 -0.0176,0.0195 -0.006,0.008 3.51172,3.29688 0.0273,-0.0254 15.28717,-14.35742 -4.875,-4.57813 -0.5586,-0.52539 z m -138.00003,0.0547 -5.33985,11.3457 17.18165,6.80078 0.0586,0.0234 4.3457,-9.23828 -5.29297,-2.91016 -10.95312,-6.02148 z m 189.41403,0 -16.1914,8.90039 -0.057,0.0312 4.3496,9.23828 0.041,-0.0176 0.016,-0.006 17.1797,-6.80273 -5.3379,-11.34375 z m -166.40231,0.0215 -5.4043,8.51563 17.47461,9.60742 4.06055,-6.40234 -0.0508,-0.0371 -16.08008,-11.6836 z m 143.39061,0 -12.6777,9.21094 -3.4024,2.47266 -0.051,0.0371 4.0605,6.40234 0.057,-0.0312 17.418,-9.57617 -2.7012,-4.25781 -2.7031,-4.25782 z m -188.68944,5.68946 -4.56641,14.05468 16.24024,4.16993 0.0605,0.0156 3.91407,-12.04492 -0.0586,-0.0234 -15.58984,-6.17187 z m 233.98824,0 -15.5898,6.17187 -0.059,0.0234 3.9141,12.04492 0.061,-0.0156 16.2422,-4.16993 -4.5684,-14.05468 z m -166.40621,0.0684 -2.37695,2.87109 -2.375,2.87305 16.99609,12.34961 3.07031,-3.71289 -0.0449,-0.043 -15.26953,-14.33789 z m 98.82421,0 -15.26952,14.33789 -0.0449,0.043 3.07031,3.71289 0.0508,-0.0371 16.94531,-12.3125 -2.375,-2.87305 -2.377,-2.87109 z m -51.7578,0.4707 1.36132,21.62695 0.004,0.0625 h 1.96094 l 0.004,-0.0625 0.66015,-10.48633 0.70117,-11.14062 h -4.6914 z m -0.99805,0.0625 -4.6543,0.58789 2.95703,15.49609 1.10352,5.79102 0.0117,0.0606 1.94726,-0.2461 -0.004,-0.0625 -1.36133,-21.62695 z m 6.6875,0 -1.36133,21.62695 -0.004,0.0625 1.94726,0.2461 0.0117,-0.0606 1.42969,-7.49414 2.63086,-13.79297 -2.32617,-0.29297 -2.32813,-0.29492 z m -181.11523,0.0547 -4.12891,21.64257 1.03516,0.13086 0.78515,0.0996 0.0625,0.008 4.08399,-21.41016 -1.83789,-0.4707 z m 355.54298,0 -1.7774,0.45507 -0.06,0.0156 4.084,21.41016 0.062,-0.008 1.8203,-0.23047 -4.1289,-21.64257 z m -352.73439,0.7207 -1.16016,6.07813 -2.90039,15.20703 2.8125,0.35547 1.8418,0.23437 0.0625,0.008 3.94922,-20.70117 -0.0605,-0.0156 -4.54492,-1.16602 z m 165.98242,0 -2.27148,0.58203 -2.27149,0.58399 6.06836,18.68164 0.64649,1.98828 1.90039,-0.48828 -0.0117,-0.0606 -4.06055,-21.28711 z m 17.96094,0 -4.06055,21.28711 -0.0117,0.0606 1.51172,0.38867 0.38672,0.0996 6.7168,-20.66992 -4.54297,-1.16602 z m 165.98243,0 -4.5449,1.16602 -0.061,0.0156 3.9492,20.70117 0.062,-0.008 4.6543,-0.58984 -4.0605,-21.28516 z m -344.34962,1.43164 -1.96289,10.28711 -1.96289,10.28906 7.39648,0.9336 0.0625,0.008 3.74805,-19.64844 -0.0606,-0.0156 -7.2207,-1.85352 z m 338.77342,0 -7.2207,1.85352 -0.061,0.0156 3.748,19.64844 0.062,-0.008 v 0.002 l 3.4531,-0.4375 3.9434,-0.49805 -3.9258,-20.57617 z m -183.86326,0.043 -4.35938,1.72656 9.22656,19.60938 0.0273,0.0566 1.82226,-0.72266 -6.71679,-20.66992 z m 28.95117,0 -6.69531,20.61133 -0.0195,0.0586 1.82226,0.72266 0.0273,-0.0566 9.22656,-19.60938 -4.35938,-1.72656 h -0.002 z m -92.05664,0.85156 -4.29492,9.125 18.54101,7.33985 3.22852,-6.85938 -0.0547,-0.0293 -17.41992,-9.57617 z m 155.16403,0 -17.4199,9.57617 -0.055,0.0293 3.2285,6.85938 11.4239,-4.52149 7.1171,-2.81836 -4.2949,-9.125 z m -238.71677,1.22461 -1.07031,5.60547 -2.6543,13.91797 10.06836,1.27344 3.48633,-18.27344 -0.0605,-0.0156 -9.76954,-2.50781 z m 322.26957,0 -9.7696,2.50781 -0.061,0.0156 3.4863,18.27344 10.0684,-1.27344 -3.7246,-19.52344 z m -180.87699,0.0762 -4.10937,2.25977 11.64453,18.35156 1.71875,-0.94531 -0.0117,-0.0254 -0.0137,-0.0312 -9.22852,-19.60938 z m 39.48438,0 -9.22852,19.60938 -0.0254,0.0566 1.71875,0.94531 0.0332,-0.0527 11.61133,-18.29883 -4.10937,-2.25977 z m -120.15625,1.56055 -3.87305,11.92578 17.95703,4.60938 3.1543,-9.71094 -0.0586,-0.0234 -17.17968,-6.80078 z m 200.82816,0 -17.1797,6.80078 -0.059,0.0234 3.1562,9.71094 8.043,-2.06446 9.9141,-2.54492 -1.9375,-5.96289 -1.9375,-5.96289 z m -155.16605,0.0566 -3.9961,6.29492 6.48243,3.5625 11.875,6.5293 0.0527,0.0293 h 0.002 l 2.58008,-4.06641 -0.0508,-0.0371 -13.58984,-9.875 -3.35547,-2.4375 z m 109.50585,0 -16.94726,12.3125 -0.0508,0.0371 2.58006,4.06641 0.055,-0.0293 7.7246,-4.24609 10.6329,-5.84571 -1.9981,-3.14843 -1.9961,-3.14649 z m -205.08788,1.08008 -1.73243,9.07422 -1.73047,9.07422 9.50196,1.20117 2.93945,0.37109 0.0625,0.008 3.16602,-16.59375 v -0.002 l -0.0625,-0.0156 -12.14453,-3.11719 z m 300.66798,0 -12.1446,3.11719 -0.061,0.0156 1.582,8.29688 1.584,8.29882 0.061,-0.008 12.4414,-1.57226 -3.4629,-18.14844 z m -175.03127,0.0996 -3.79492,2.75781 13.81446,16.69727 0.0391,0.0469 1.58789,-1.15234 -0.0332,-0.0527 -11.61329,-18.29687 z m 49.39454,0 -2.09375,3.30078 -9.51954,14.99609 h 0.002 l -0.0352,0.0527 1.58594,1.15429 0.0137,-0.0156 0.0273,-0.0332 13.81446,-16.69727 -3.79492,-2.75781 z m -161.85352,3.2832 -1.57031,8.23438 -1.57227,8.23632 11.08399,1.4004 3.57812,0.45312 0.0625,0.008 2.79297,-14.64258 -0.0606,-0.0156 -14.31445,-3.67383 z m 274.31445,0 -14.3769,3.69141 2.7929,14.64062 0.062,-0.008 14.6641,-1.85352 -3.1426,-16.4707 z m -166.41992,0.11133 -3.41992,3.21289 15.84375,14.875 1.42969,-1.3418 -0.041,-0.0488 -3.93164,-4.75391 -9.88086,-11.94336 z m 58.52539,0.002 -13.84765,16.73633 -0.008,0.008 1.42969,1.3418 15.84375,-14.87695 -0.30469,-0.28711 -3.11328,-2.92188 z m -111.50781,2.56055 -3.11524,9.5918 19.25196,4.94336 0.0605,0.0156 2.34376,-7.20898 -0.006,-0.002 -0.0527,-0.0215 -18.48242,-7.31836 z m 164.48824,0 -18.4824,7.31836 -0.059,0.0234 2.3438,7.20898 0.061,-0.0156 19.252,-4.94336 -3.1153,-9.5918 z m -23.0156,0.0332 -4.8047,2.64258 -13.5508,7.44922 -0.055,0.0312 2.0507,4.35742 19.5332,-7.73437 -3.1718,-6.7461 v 0 z m -118.45702,0.002 -1.58789,3.37304 -1.58593,3.3711 16.76562,6.64062 2.76758,1.09375 0.65625,-1.39453 1.39453,-2.96289 z m -62.58203,1.23046 -1.38476,7.25977 -1.38477,7.25781 12.81055,1.61914 3.82617,0.48243 0.0625,0.008 2.37305,-12.44141 -0.0606,-0.0156 -16.24219,-4.16993 z m 243.62115,0 -16.2422,4.16993 -0.061,0.0156 2.3731,12.44141 0.062,-0.008 16.6367,-2.10157 -2.7695,-14.51758 z m -88.44341,0.11133 -15.79688,14.83594 -0.0469,0.043 1.25,1.50976 0.0508,-0.0351 17.5332,-12.73828 -1.49414,-1.80664 -1.49609,-1.8086 z m -66.73242,0.002 -2.99024,3.61328 15.9707,11.60351 1.56055,1.13477 0.0508,0.0371 1.25,-1.51172 -0.0469,-0.043 -15.79492,-14.83398 z m -71.17188,4.32226 -1.17383,6.1582 -1.17578,6.15821 13.98047,1.76562 4.35156,0.55078 0.0606,0.008 1.60742,-8.42383 0.30664,-1.60547 -0.0605,-0.0156 v -0.002 l -17.89649,-4.59375 z m 209.07421,0 -17.8965,4.5957 -0.061,0.0156 1.914,10.0293 0.062,-0.008 18.3301,-2.3164 -2.3496,-12.31641 z m -141.48241,0.0996 -2.51172,3.96289 19.04297,10.46875 1.05273,-1.65625 -0.0508,-0.0371 -17.5332,-12.73828 z m 73.89062,0 -13.58008,9.86719 -3.95312,2.87109 -0.0508,0.0371 1.05078,1.65625 7.97461,-4.38281 11.07226,-6.08594 v -0.002 l -2.51367,-3.96094 z m -99.71679,1.91016 -1.15235,3.54492 -1.15234,3.54492 13.42773,3.44727 6.86133,1.76172 0.0625,0.0156 1.48828,-4.58008 -0.0586,-0.0234 -19.47656,-7.71093 z m 125.54298,0 -19.4766,7.71093 -0.059,0.0234 1.4903,4.58008 0.061,-0.0156 9.6309,-2.47266 10.6582,-2.73633 -2.3047,-7.08984 z m -63.68947,1.75976 0.91797,14.58399 0.91797,-14.58399 z m -181.10742,0.0625 -1.38477,21.99219 h 1.83594 0.0625 l 1.36914,-21.75195 -0.0625,-0.01 -1.82031,-0.23047 z m 180.10937,0 -1.82226,0.23047 2.74023,14.36133 -0.44336,-7.04688 z m 3.83204,0 -0.91797,14.58594 2.74023,-14.35547 -0.91016,-0.11523 z m 180.10938,0 -1.8203,0.23047 -0.062,0.008 1.3691,21.75391 h 1.8985 l -1.3848,-21.99219 z m -361.17384,0.3628 -1.36133,21.62891 h 4.69141 0.0625 l 1.32422,-21.03125 -0.0625,-0.008 -4.6543,-0.58985 z m 358.29684,0 -4.6543,0.58985 -0.062,0.008 1.3243,21.03125 h 4.7539 l -0.8008,-12.73047 -0.5606,-8.89844 z m -183.8691,0.0566 -1.77735,0.45508 4.51563,13.89844 z m 9.4414,0 -2.74023,14.35743 4.51758,-13.90235 z m -90.33008,0.60938 -1.30078,6.81641 -0.58984,3.08789 13.14844,1.66211 6.57422,0.83007 0.0605,0.008 1.42188,-7.44727 -0.0605,-0.0156 -19.25391,-4.94141 z m 171.21878,0 -19.2539,4.94141 -0.061,0.0156 1.4219,7.44727 0.061,-0.008 19.7227,-2.49218 -1.8906,-9.9043 z m -259.0469,0.0566 -1.31641,20.90625 h 7.45703 0.0625 l 1.25586,-19.96289 z m 346.875,0 -7.459,0.94336 1.2559,19.96289 h 7.5195 l -0.6582,-10.45312 z m -213.37695,0.0195 -1.9961,4.24414 17.29883,6.85156 2.90625,1.14844 0.83594,-1.77344 -0.041,-0.0234 -0.0137,-0.008 -18.99023,-10.43945 z m 79.8789,0 -4.40429,2.42188 -14.63868,8.04882 0.56641,1.20704 0.26758,0.5664 20.20703,-8 z m -47.38867,0.0781 -1.70703,0.67773 6.22266,13.21875 -1.44922,-4.45703 z m 14.89844,0 -4.51367,13.89648 6.2207,-13.2207 -1.70508,-0.67578 h -0.002 z m -172.4336,0.9707 -1.24804,19.83789 h 10.08594 0.0625 l 1.16796,-18.56641 -0.0625,-0.008 -0.63086,-0.0801 -9.375,-1.18359 z m 329.96878,0 -9.375,1.18359 -0.6309,0.0801 -0.062,0.008 1.168,18.56641 h 10.1484 l -0.623,-9.91797 -0.625,-9.91992 z m -175.04495,0.13086 -1.60937,0.88476 7.83203,12.33985 z m 20.1211,0 -6.22266,13.22461 7.83203,-12.33985 z m -163.98243,1.26576 -1.16015,18.44141 h 12.53906 0.0625 l 1.0625,-16.86133 -0.0625,-0.008 -12.44141,-1.57227 z m 307.84378,0 -12.4395,1.57227 -0.018,0.002 -0.045,0.006 1.0606,16.86133 h 12.6015 l -0.5801,-9.2207 -0.58,-9.22071 z m -166.43557,0.1543 -1.48633,1.08008 9.32422,11.27148 z m 25.02929,0.002 -7.83203,12.33985 9.31641,-11.26177 -1.48438,-1.07813 z m -152.93945,1.54878 -1.05469,16.73633 h 14.7793 0.0625 l 0.9375,-14.875 -0.0625,-0.008 -14.66211,-1.85352 z m 280.84763,0 -14.6621,1.85352 -0.062,0.008 0.9375,14.875 h 14.8418 l -0.5273,-8.36719 -0.5274,-8.36914 z m -155.19333,0.16602 -1.33789,1.25781 10.65234,10.00195 z m 29.53906,0 -9.31445,11.25976 10.65234,-10.00195 -1.27539,-1.19922 -0.0625,-0.0586 z m -80.09375,0.81445 -0.69922,3.66211 -0.69922,3.66016 10.15235,1.2832 10.63086,1.34375 0.0625,0.008 0.90234,-4.73242 -0.0606,-0.0156 -20.28906,-5.20898 z m 130.64842,0 -20.289,5.20898 -0.061,0.0156 0.9024,4.73242 0.062,-0.008 20.7832,-2.62695 -1.3985,-7.32227 z m -107.62889,0.0449 -1.45117,4.46094 20.99024,5.38867 0.0605,0.0156 0.60742,-1.86524 -0.0586,-0.0234 -20.14844,-7.97656 z m 84.60939,0 -20.14845,7.97656 -0.0586,0.0234 0.60742,1.86524 0.0605,-0.0156 9.96876,-2.55859 11.02157,-2.83008 -1.4512,-4.46094 z m -167.00978,0.96096 -0.92969,14.75 h 16.76954 0.0625 l 0.79687,-12.64062 -0.0625,-0.008 -16.63672,-2.10156 z m 249.41018,0 -16.6367,2.10156 -0.062,0.008 0.7968,12.64062 h 16.8321 l -0.4649,-7.375 -0.4648,-7.375 z m -141.49807,0.16602 -1.16992,1.41406 11.82227,8.58984 z m 33.58594,0 -10.64649,10 2.27344,-1.65235 9.54297,-6.93359 z m -123.80469,2.06836 -0.78906,12.51562 h 18.47851 0.0625 l 0.64063,-10.19141 -0.0469,-0.006 -0.0156,-0.002 -18.33008,-2.3164 z m 214.02342,0 -18.3301,2.3164 -0.062,0.008 0.6407,10.19141 h 18.541 l -0.3945,-6.25781 -0.3946,-6.25781 z m -125.56248,0.15429 -0.98438,1.55078 9.17774,5.04688 3.63281,1.99805 -8.20703,-5.96485 z m 37.10156,0 -11.83398,8.59766 12.81836,-7.04688 -0.49219,-0.77539 z m -62.55469,2.08008 -0.43945,2.30469 -0.43945,2.30273 16.35742,2.06641 5.14258,0.65039 0.0625,0.008 0.36719,-1.92773 -0.0606,-0.0156 -20.99024,-5.38867 z m 88.00781,0 -20.99023,5.38867 -0.0606,0.0156 0.36719,1.92773 0.0625,-0.008 21.49994,-2.7168 -0.8789,-4.60742 z m -131.62695,0.21484 -0.63476,10.06641 h 19.87695 0.0625 l 0.24024,-3.7832 0.23632,-3.78321 -0.0469,-0.006 -0.0156,-0.002 -19.71875,-2.49219 z m 175.24805,0 -19.7207,2.49219 -0.016,0.002 -0.047,0.006 0.4766,7.56641 h 19.9394 l -0.3164,-5.0332 -0.3164,-5.03321 z m -107.64258,0.13282 -0.7793,1.66015 13.59571,5.38477 -12.81445,-7.04492 h -0.002 z m 40.0332,0 -12.81054,7.04297 13.5918,-5.38282 -0.7793,-1.66015 h -0.002 z m -86.86132,2.49218 -0.47071,7.44141 h 20.94922 0.0625 l 0.30274,-4.80664 -0.0625,-0.008 -20.78125,-2.62696 z m 133.6934,0 -20.7832,2.62696 -0.062,0.008 0.3027,4.80664 h 21.0117 l -0.2344,-3.7207 -0.2343,-3.72071 z m -88.01372,0.0996 -0.42578,1.30664 -0.14258,0.43946 14.15821,3.63476 z m 42.33204,0 -13.58594,5.37891 14.1543,-3.63281 z m -66.17383,2.66016 -0.29492,4.68164 h 21.66992 0.0625 l 0.125,-1.95703 z m 90.01561,0 -21.56249,2.72461 0.125,1.95703 h 21.73239 l -0.1465,-2.33984 z m -66.99022,0.0547 -0.17188,0.90039 -0.17187,0.90234 14.50195,1.83203 -2.64844,-0.67969 z m 43.96484,0 -14.1582,3.63476 14.50195,-1.83203 z m -44.43359,2.79492 -0.11719,1.83203 h 14.61914 z m 44.90234,0 -14.50195,1.83203 h 14.61914 l -0.0586,-0.91602 -0.0586,-0.91601 z m -205.86133,2.83203 1.38477,21.99219 1.82031,-0.23047 0.0625,-0.008 -1.36914,-21.75372 z m 2.90039,0 1.36133,21.62891 4.6543,-0.58985 0.0625,-0.008 -1.32422,-21.03106 z m 5.75586,0 1.31641,20.90625 7.45898,-0.94336 -1.25586,-19.96289 z m 8.52149,0 1.24804,19.83789 9.375,-1.18359 0.63086,-0.0801 0.0625,-0.008 -1.16796,-18.5662 z m 11.15039,0 1.16015,18.44141 10.01954,-1.26563 2.42187,-0.30664 0.0605,-0.008 -1.0605,-16.86114 z m 13.60351,0 1.05469,16.73633 14.66211,-1.85352 0.0625,-0.008 -0.9375,-14.875 h -14.8418 z m 15.84375,0 0.92969,14.75 16.63672,-2.10156 0.0625,-0.008 -0.79687,-12.64044 z m 17.83399,0 0.78906,12.51562 18.33008,-2.3164 0.0625,-0.008 -0.64063,-10.19122 z m 19.54297,0 0.63281,10.06641 19.7207,-2.49219 0.0156,-0.002 0.0469,-0.006 -0.47656,-7.56641 h -19.93945 z m 20.9414,0 0.46875,7.44141 20.78321,-2.62696 0.0625,-0.008 -0.30274,-4.80664 h -21.01172 z m 22.01368,0 0.29492,4.68164 21.5625,-2.72461 -0.125,-1.95703 z m 22.73437,0 0.11719,1.83203 14.50195,-1.83203 z m 30.51758,0 14.50195,1.83203 0.0586,-0.91601 0.0586,-0.91602 h -14.61914 z m 15.62109,0 -0.125,1.95703 21.56249,2.72461 0.1484,-2.3418 0.1465,-2.33984 h -21.66989 z m 22.73439,0 -0.3027,4.80664 0.062,0.008 20.7832,2.62696 0.2343,-3.72071 0.2344,-3.7207 h -20.9492 -0.062 z m 22.0137,0 -0.2403,3.7832 -0.2363,3.78321 0.062,0.008 19.7207,2.49219 0.3164,-5.03321 0.3164,-5.0332 h -19.9394 z m 20.9414,0 -0.6407,10.19141 0.062,0.008 18.3301,2.3164 0.3946,-6.25781 0.3945,-6.25781 h -18.4785 -0.062 z m 19.5429,0 -0.7968,12.64062 0.062,0.008 16.6367,2.10156 0.4648,-7.375 0.4649,-7.375 h -16.7696 -0.062 z m 17.834,0 -0.9375,14.875 0.062,0.008 14.6621,1.85352 0.5274,-8.36914 0.5273,-8.36719 h -14.7793 -0.062 z m 15.8438,0 -1.0625,16.86133 0.064,0.008 12.4395,1.57227 0.58,-9.22071 0.5801,-9.2207 h -12.539 -0.062 z m 13.6035,0 -1.168,18.56641 0.062,0.008 10.0059,1.26367 0.625,-9.91992 0.623,-9.91797 h -10.0859 -0.062 z m 11.1504,0 -1.2559,19.96289 7.459,0.94336 0.6582,-10.45313 0.6582,-10.45312 h -7.457 -0.062 z m 8.5215,0 -1.3243,21.03125 0.062,0.008 4.6543,0.58985 0.5606,-8.89844 0.8008,-12.73047 h -4.6914 -0.062 z m 5.7558,0 -1.3691,21.75195 1.8828,0.23828 1.3848,-21.99023 h -1.836 -0.062 z m -189.33592,0.99219 -14.50195,1.83203 0.34375,1.80273 11.08594,-2.8457 z m 15.64844,0 14.1582,3.63476 0.17188,-0.90039 0.17187,-0.90234 z m -0.24805,0.96875 13.58985,5.38086 0.42578,-1.30664 0.14258,-0.43946 z m -15.15234,0.002 -14.15821,3.63281 0.56836,1.7461 z m 0.375,0.92578 -13.59571,5.38477 0.7793,1.66015 h 0.002 l 12.81445,-7.04492 z m 14.40625,0.002 12.81054,7.04297 h 0.002 l 0.7793,-1.66015 -13.5918,-5.38282 z m -30.52539,0.0586 -0.0625,0.008 -21.5,2.7168 0.8789,4.60742 20.99024,-5.38867 0.0606,-0.0156 -0.36719,-1.92773 z m 46.64062,0 -0.36719,1.92773 0.0606,0.0156 20.99018,5.38867 0.4395,-2.30469 0.4394,-2.30273 -21.49994,-2.7168 -0.0625,-0.008 z m -16.60351,0.81445 11.83398,8.59766 0.49219,-0.77539 0.49219,-0.77539 z m -13.44141,0.002 -12.81055,7.04493 0.98438,1.55078 4.73828,-3.44336 z m 0.58008,0.81641 -11.81836,8.58789 1.16992,1.41406 z m 12.29101,0.002 10.64649,10 1.16992,-1.41406 z m -0.6914,0.72657 9.31445,11.25976 0.0625,-0.0586 1.27539,-1.19922 -10.65234,-10.00195 z m -10.91211,0.002 -10.65039,10 1.27539,1.19922 0.0625,0.0586 9.3125,-11.25781 z m -40.41992,0.48633 -0.0625,0.008 -20.78321,2.62695 1.39844,7.32227 20.28906,-5.20898 0.0606,-0.0156 -0.90234,-4.73242 z m 91.75395,0 -0.9024,4.73242 0.061,0.0156 20.289,5.20898 0.6992,-3.66211 0.6993,-3.66016 -20.7832,-2.62695 -0.062,-0.008 z m -68.58208,0.0469 -0.0605,0.0156 -9.96876,2.55859 -11.02148,2.83008 1.45117,4.46094 17.30078,-6.84961 2.84766,-1.12695 0.0586,-0.0234 -0.60742,-1.86524 z m 45.41016,0 -0.60742,1.86524 0.0586,0.0234 20.14844,7.97656 0.9101,-2.79688 0.5411,-1.66406 -20.99027,-5.38867 -0.0605,-0.0156 z m -27.37891,0.0879 -9.32617,11.27344 1.48633,1.08008 z m 9.35352,0.006 7.83593,12.34571 L 974,557.70688 Z m -0.8418,0.54297 6.22266,13.22461 1.60937,-0.88476 z m -7.67773,0.002 -7.83008,12.33789 1.60937,0.88476 z m 6.77148,0.41992 4.51758,13.90429 1.70703,-0.67578 z m -5.86719,0.01 -0.6914,1.46875 -5.5293,11.74805 1.70703,0.67773 2.31836,-7.13476 z m 4.91602,0.30078 2.74023,14.35743 1.77735,-0.45508 z m -3.96289,0.004 -4.51563,13.89844 1.77735,0.45508 z m 0.98437,0.18164 -2.44922,12.83399 -0.29101,1.52539 v 0.002 l 1.82226,0.23047 0.58008,-9.22852 0.33789,-5.36328 z m 1.9961,0.002 0.91797,14.58985 1.82226,-0.23047 z m -0.99805,0.0675 -0.66211,10.50586 -0.25586,4.07813 h 1.83594 L 960,547.97012 Z m -67.7168,1.08789 -19.7832,2.5 1.89062,9.9043 17.88672,-4.58984 1.36719,-0.35157 0.0605,-0.0156 -1.42188,-7.44727 z m 135.4336,0 -1.4219,7.44727 0.061,0.0156 19.2539,4.94141 1.3008,-6.81641 0.5898,-3.08789 -15.9004,-2.00976 -3.8223,-0.48242 -0.061,-0.008 z m -89.44727,0.084 -20.20508,8 1.49219,3.17578 0.50391,1.06836 18.99023,-10.43945 0.0547,-0.0312 -0.83594,-1.77344 z m 43.46094,0 -0.83399,1.77344 19.04297,10.4707 0.50395,-1.06836 1.4921,-3.17578 -17.29878,-6.85156 z m -110.22461,2.54101 -0.0625,0.008 -18.33008,2.3164 2.34961,12.31641 17.89649,-4.5957 0.0605,-0.0156 -1.91406,-10.0293 z m 176.98824,0 -1.914,10.0293 0.061,0.0156 v 0.002 l 17.8965,4.59375 1.1738,-6.1582 1.1758,-6.15821 -18.3301,-2.3164 -0.062,-0.008 z m -108.90621,0.10938 -19.04492,10.46875 2.51172,3.96289 13.58008,-9.86719 3.95312,-2.87109 0.0508,-0.0371 -1.05078,-1.65625 z m 40.82617,0 -1.05078,1.65625 0.0195,0.0156 0.0293,0.0215 17.5332,12.73828 2.51367,-3.96094 v -0.002 l -18.99023,-10.43945 -0.0547,-0.0293 z m -65.14062,0.20703 -0.0606,0.0156 -9.63086,2.47266 -10.6582,2.73633 2.30469,7.08984 16.76757,-6.63867 2.70899,-1.07226 0.0586,-0.0234 -1.49023,-4.58008 z m 89.45316,0 -1.4903,4.58008 0.059,0.0234 19.4766,7.71093 1.1523,-3.54492 1.1524,-3.54492 -20.2891,-5.20899 -0.061,-0.0156 z m -152.60746,2.13281 -0.0625,0.008 -16.63672,2.10157 2.76953,14.51758 16.24219,-4.16993 0.0606,-0.0156 -2.37305,-12.44141 z m 215.76176,0 -2.3731,12.43946 v 0.002 l 0.061,0.0156 16.2422,4.16993 1.3847,-7.25977 1.3848,-7.25781 -16.6367,-2.10157 -0.062,-0.008 z m -89.10746,0.125 -1.25,1.51172 0.0469,0.043 15.79492,14.83398 2.99024,-3.61328 -15.9707,-11.60351 -1.61133,-1.17188 z m -37.54688,0.002 -0.0508,0.0351 -17.53125,12.73828 2.99024,3.61328 4.33593,-4.07226 11.45899,-10.76172 0.0469,-0.043 -1.25,-1.50976 z m -106.80078,2.10742 -0.0625,0.008 -14.66211,1.85352 1.57031,8.23632 1.57227,8.23438 14.375,-3.69141 -2.79297,-14.64062 z m 251.14842,0 -2.7929,14.64062 v 0.002 l 8.6601,2.22265 5.7168,1.4668 1.5723,-8.23438 1.5703,-8.23632 -14.6641,-1.85352 -0.062,-0.008 z m -142.41209,0.13276 -15.84375,14.87695 3.41992,3.21094 13.8125,-16.69727 0.0332,-0.041 0.008,-0.008 z m 33.67578,0 -1.42969,1.3418 0.041,0.0488 13.8125,16.69727 1.71094,-1.60742 1.70898,-1.60547 -15.79687,-14.83398 -0.0469,-0.041 z m -82.88477,0.97461 -19.3125,4.95898 3.11524,9.5918 18.48242,-7.31836 0.0586,-0.0234 -2.34376,-7.20898 z m 132.09378,0 -2.3438,7.20898 0.059,0.0234 18.4824,7.31641 3.1153,-9.58985 -17.8848,-4.59179 -1.4277,-0.36719 z m -108.91604,0.0371 -19.5332,7.73437 3.17382,6.7461 4.80469,-2.64258 13.55078,-7.44922 0.0547,-0.0312 -2.05078,-4.35742 z m 85.73824,0 -2.0507,4.35742 18.4121,10.12305 3.1718,-6.7461 -16.7656,-6.64062 z m -184.16207,0.8418 -0.0625,0.008 -12.44141,1.57226 3.4629,18.14844 8.18164,-2.09961 3.96289,-1.01758 0.0625,-0.0156 -3.16602,-16.5957 z m 282.58787,0 -1.584,8.29882 -1.582,8.29688 0.061,0.0156 12.1446,3.11719 1.7324,-9.07422 1.7305,-9.07422 -12.4414,-1.57226 -0.061,-0.008 z m -155.93357,0.125 -13.85352,16.74609 3.79492,2.75781 2.09375,-3.30078 9.51954,-14.99609 0.0332,-0.0527 -1.58594,-1.15429 h -0.002 z m 29.27734,0.002 -1.58594,1.15234 0.0332,0.0527 11.61133,18.29687 3.79492,-2.75781 -13.81446,-16.69727 -0.0391,-0.0469 z m -169.42969,1.57812 -0.0625,0.008 -10.00586,1.26562 3.72461,19.52344 9.76954,-2.50781 0.0605,-0.0156 -3.48633,-18.27344 z m 309.58202,0 -3.4863,18.27344 0.061,0.0156 9.7696,2.50781 1.0703,-5.60547 2.6543,-13.91797 -9.375,-1.18555 -0.6309,-0.0801 -0.062,-0.008 z m -166.99803,0.10938 -11.64453,18.35156 4.10937,2.25977 9.25391,-19.66602 z m 24.41406,0 -1.71875,0.94531 0.0117,0.0254 0.0137,0.0312 9.22852,19.60938 4.10937,-2.25977 -10.32422,-16.26953 -1.28711,-2.0293 -0.0332,-0.0527 z m -178.06055,1.28906 -0.0625,0.008 v -0.002 l -7.39648,0.93555 3.92578,20.57617 7.2207,-1.85352 0.0606,-0.0156 -3.74805,-19.64844 z m 331.70702,0 -3.748,19.64844 0.061,0.0156 7.2207,1.85352 1.9629,-10.28711 1.9629,-10.28906 -7.3965,-0.9336 -0.062,-0.008 z m -175.43553,0.082 -0.0273,0.0566 -9.22656,19.60938 4.35938,1.72656 h 0.002 l 3.12695,-9.625 3.58789,-11.04492 -1.82226,-0.72266 z m 19.16406,0 -1.82226,0.72071 0.0195,0.0605 6.69726,20.60938 4.35938,-1.72461 -9.22656,-19.60938 -0.0273,-0.0566 z m -183.88867,0.98438 -0.0625,0.008 -4.6543,0.58984 4.06055,21.28516 4.54492,-1.16602 0.0605,-0.0156 -3.94922,-20.70117 z m 348.61324,0 -3.9492,20.70117 0.061,0.0156 4.5449,1.16602 1.1602,-6.07813 2.9003,-15.20703 -4.6543,-0.58984 -0.062,-0.008 z m -181.11324,0.0469 -6.7168,20.66992 4.54297,1.16602 2.95703,-15.49609 1.10352,-5.79102 0.0117,-0.0606 -1.51172,-0.38867 -0.38672,-0.0996 z m 13.61328,0 -1.89844,0.48828 0.0117,0.0606 4.06055,21.28711 2.27148,-0.58203 2.27149,-0.58399 -6.06836,-18.68164 -0.62696,-1.92773 -0.0195,-0.0605 h -0.002 z m -93.13867,0.11328 -8.04297,2.06446 -9.91211,2.54492 3.87305,11.92578 17.17968,-6.80078 0.0586,-0.0234 -3.15625,-9.71094 z m 172.66403,0 -3.1562,9.70899 0.059,0.0234 v 0.002 l 17.1797,6.80078 1.9375,-5.96289 1.9375,-5.96289 -17.9571,-4.60938 z m -126.66794,0.0625 -0.0547,0.0293 -7.72461,4.24609 -10.63282,5.84571 3.9961,6.29492 9.86328,-7.16797 7.08203,-5.14453 0.0508,-0.0371 -2.58008,-4.06641 z m 80.67184,0 -2.58004,4.06641 0.0508,0.0371 16.94724,12.3125 1.9961,-3.14649 1.9981,-3.14843 -18.3575,-10.0918 -0.055,-0.0293 z m -220.35348,0.5 -0.0625,0.008 -1.82031,0.23047 4.12891,21.64257 1.77734,-0.45507 0.0606,-0.0156 -4.08399,-21.41016 z m 176.0918,0 -0.0117,0.0606 -1.42969,7.49414 -2.63086,13.79297 4.6543,0.58789 1.36133,-21.62695 0.004,-0.0625 -1.94726,-0.2461 z m 7.85156,0 -1.94726,0.2461 1.36523,21.68945 2.32813,-0.29492 2.32617,-0.29297 -4.06055,-21.28711 -0.0117,-0.0606 z m 176.09182,0 -4.084,21.41016 0.06,0.0156 1.7774,0.45507 4.1289,-21.64257 -1.8203,-0.23047 -0.062,-0.008 z m -180.99807,0.3086 -0.004,0.0625 -0.66015,10.48633 -0.70117,11.14062 h 4.6914 l -1.36523,-21.68945 h -1.96094 z m -62.35547,2.06054 -18.54101,7.33985 4.29492,9.125 6.26367,-3.44336 11.15625,-6.13281 0.0527,-0.0293 h 0.002 l -3.22852,-6.85938 z m 126.67184,0 -3.2285,6.85938 0.055,0.0293 17.4199,9.57617 4.2949,-9.125 -18.4824,-7.31836 -0.059,-0.0215 z m -168.59567,1.92774 -16.30078,4.18555 2.28321,7.02734 2.2832,7.02734 14.07422,-5.57226 1.51562,-0.59961 0.0586,-0.0234 -3.91407,-12.04492 z m 210.51957,0 -3.9141,12.04492 0.059,0.0234 15.5898,6.17187 4.5684,-14.05468 -15.0586,-3.86524 -1.2441,-0.32031 z m -142.42777,0.0781 -16.99609,12.34961 2.375,2.87305 2.37695,2.87109 15.26953,-14.33789 0.0449,-0.043 -3.07031,-3.71289 z m 74.33594,0 -3.07031,3.71289 0.0449,0.043 15.26954,14.33789 2.377,-2.87109 2.375,-2.87305 -9.8633,-7.16797 -7.08207,-5.14453 -0.0508,-0.0371 z m -159.70117,4.35743 -14.375,3.6914 2.58984,7.97266 2.5918,7.97265 11.81445,-4.67773 1.92578,-0.76172 0.0586,-0.0234 -4.60547,-14.17382 z m 245.0664,0 -4.6055,14.17382 0.059,0.0234 13.7403,5.43945 2.5918,-7.97265 2.5898,-7.97266 -14.375,-3.6914 z m -155.94531,0.084 -0.0273,0.0254 -0.0195,0.0176 -15.26758,14.33984 4.875,4.57813 0.55859,0.52539 13.35156,-16.14063 0.0176,-0.0215 0.0176,-0.0195 0.006,-0.008 -3.51172,-3.29688 z m 66.82422,0 -3.51172,3.29688 0.041,0.0488 13.35161,16.14063 2.7187,-2.55274 2.7168,-2.55078 -15.26954,-14.33984 -0.0469,-0.043 z m -116.2207,1.26172 -17.23633,6.82617 5.33789,11.34375 15.10937,-8.30664 1.08204,-0.59375 0.0566,-0.0312 -4.34961,-9.23828 z m 165.61519,0 -4.3457,9.23828 0.055,0.0312 16.1914,8.90039 5.3399,-11.3457 -17.2403,-6.82422 z m -142.4316,0.0254 -17.47461,9.60742 5.4043,8.51563 12.67773,-9.21094 3.40235,-2.47266 0.0508,-0.0371 -4.06055,-6.40234 z m 119.2519,0 -4.0624,6.40234 0.051,0.0371 16.0801,11.6836 2.7031,-4.25782 2.7012,-4.25781 -9.6914,-5.32812 -7.7266,-4.24805 -0.055,-0.0312 z m -197.50581,2.56836 -0.0605,0.0156 -5.77344,1.48243 -6.37305,1.63476 5.71094,17.57422 11.6582,-4.61719 0.0586,-0.0234 -5.22071,-16.06641 z m 275.75781,0 -5.2207,16.06641 0.059,0.0234 10.2988,4.07813 1.3594,0.53906 5.7109,-17.57422 -12.1465,-3.11719 -0.061,-0.0156 z m -167.00976,0.0801 -13.39258,16.1875 6.03125,4.38281 4.09375,-6.45117 7.13086,-11.23633 0.0332,-0.0527 -3.89648,-2.83007 z m 58.26172,0 -3.89648,2.83007 0.0332,0.0527 11.22461,17.6875 3.01562,-2.19141 3.01559,-2.1914 -13.35348,-16.14063 -0.0391,-0.0469 z m 121.92574,3.30273 -2.4726,7.60938 -3.2754,10.08398 9.4336,3.73438 3.0722,-9.45118 3.0704,-9.45312 -9.7676,-2.50781 -0.061,-0.0156 z m -302.11324,0.002 -0.0606,0.0137 -9.76758,2.50781 3.07032,9.45312 3.07226,9.45118 8.44727,-3.34375 0.92773,-0.36719 0.0586,-0.0234 -5.74805,-17.69141 z m 175.44336,0.0605 -4.21875,2.32031 0.0273,0.0586 8.91797,18.95312 4.4961,-2.4707 2.0371,-1.12109 -11.25781,-17.74024 h -0.002 z m -48.77539,0.002 -0.0332,0.0527 -6.63671,10.45898 -4.58789,7.22657 6.5332,3.59179 8.91797,-18.95312 0.0273,-0.0566 -4.2207,-2.32032 z m 125.36717,1.15235 -5.3926,11.45898 0.055,0.0312 v 0.002 l 14.6934,8.07617 6.2929,-13.37305 -15.5917,-6.17187 -0.057,-0.0234 z m -201.95702,0.002 -0.0566,0.0215 -5.60546,2.21875 -9.98633,3.95312 6.29297,13.37305 14.69336,-8.07813 0.0547,-0.0312 -2.85351,-6.06445 -2.53907,-5.39258 z m 46.00196,0.041 -16.13086,11.7207 6.42773,7.76953 9.97657,-9.36719 4.51367,-4.23828 0.0469,-0.043 -4.83398,-5.84179 z m 109.95316,0 -4.834,5.84179 0.027,0.0254 0.02,0.0176 14.4902,13.60547 6.4277,-7.76953 -12.6777,-9.21094 -3.4024,-2.47265 -0.051,-0.0371 z m -216.83402,1.51367 -0.0605,0.0156 -3.41992,0.87696 -3.80078,0.97656 6.47461,19.92187 6.32031,-2.50195 0.60937,-0.24219 0.0586,-0.0234 -6.18164,-19.02344 z m 323.71482,0 -3.0918,9.51172 -3.0898,9.51172 v 0.002 l 0.057,0.0215 6.9297,2.74414 6.4746,-19.92187 -7.2207,-1.85352 -0.061,-0.0156 z m -181.11912,0.0371 -0.0273,0.0566 -3.79883,8.07226 -5.12109,10.88086 6.93164,2.74414 6.47265,-19.92187 0.0195,-0.0586 -4.47656,-1.77344 z m 38.52344,0 -4.47656,1.77148 0.0195,0.0605 4.21679,12.98242 2.25586,6.93945 6.93164,-2.74414 -0.0391,-0.082 -8.9082,-18.92773 z m -97.24024,1.32812 -0.0547,0.0293 -16.19141,8.90234 6.71875,10.58789 11.64648,-8.46093 3.30274,-2.40039 0.0508,-0.0371 -5.47266,-8.6211 z m 155.95702,0 -5.4707,8.6211 0.049,0.0371 14.9493,10.86132 3.3593,-5.29492 3.3594,-5.29297 -16.1914,-8.90234 -0.055,-0.0293 z m -248.08788,0.75391 -0.0605,0.0156 -2.1543,0.55274 -2.38867,0.61328 6.69531,20.60938 3.81836,-1.51172 0.54297,-0.21485 0.0586,-0.0234 -6.51172,-20.04102 z m 156.27735,0 -3.98633,12.26367 -2.50781,7.71875 7.2207,1.85352 3.92578,-20.57618 0.0117,-0.0625 -4.66406,-1.19726 z m 27.66406,0 -4.66406,1.19726 0.0117,0.0625 3.92578,20.57618 3.60937,-0.92774 3.61133,-0.92578 -6.49219,-19.98242 h -0.002 z m 156.27737,0 -3.2578,10.02148 -3.2539,10.01954 0.01,0.004 0.049,0.0195 4.3613,1.72657 6.6953,-20.60938 -4.543,-1.16602 -0.061,-0.0156 z m -178.29495,1.38476 -0.0117,0.0625 -2.75781,14.45313 -1.16797,6.12305 7.39649,0.93359 1.3164,-20.90625 0.004,-0.0625 -4.7793,-0.60352 z m 16.3711,0 -4.7793,0.60352 1.32031,20.96875 7.39649,-0.93359 -3.92578,-20.57618 -0.0117,-0.0625 z m -183.8711,0.0469 -0.0605,0.0156 -0.84375,0.21485 -0.9336,0.24023 6.81055,20.95703 1.13867,-0.45117 0.56641,-0.22461 0.0586,-0.0234 -6.73633,-20.72852 z m 351.36915,0 -6.7344,20.72852 0.035,0.0137 0.023,0.01 1.4746,0.58399 0.2324,0.0918 6.8086,-20.95703 -1.7773,-0.45508 -0.062,-0.0156 z m -178.0918,0.61914 -0.004,0.0625 -0.55859,8.87695 -0.75782,12.0293 h 7.45704 l -1.32032,-20.96875 h -4.8164 z m 119.9668,0.83789 -6.3457,13.48633 0.039,0.0234 0.016,0.008 12.9512,7.11914 3.5703,-7.58594 3.5703,-7.58593 -11.7305,-4.64454 -2.0117,-0.79687 -0.059,-0.0234 z m -235.11915,0.002 -0.0566,0.0215 -13.74219,5.44141 7.14063,15.17187 7.26367,-3.99219 5.6875,-3.12695 0.0547,-0.0312 -6.34766,-13.48438 z m 68.10157,0.0469 -0.0449,0.043 -10.85937,10.19726 -3.63086,3.41016 7.35156,6.90234 6.01367,-7.26953 6.65625,-8.04492 0.0332,-0.041 0.008,-0.008 -5.52734,-5.18945 z m 98.91798,0 -5.5274,5.18945 0.041,0.0488 12.6699,15.31445 7.3515,-6.90234 -14.4902,-13.60742 -0.045,-0.043 z m -144.56252,5.72461 -0.0547,0.0293 -14.69532,8.07812 v 0.002 l 7.91993,12.47657 10.72461,-7.79297 2.84179,-2.06446 0.0508,-0.0371 -6.78711,-10.69141 z m 190.20702,0 -6.7871,10.69141 0.051,0.0371 13.5664,9.85743 7.9199,-12.47657 v -0.002 l -14.6953,-8.07812 -0.055,-0.0293 z m -23.1855,0.0137 -6.5078,7.86914 13.5136,12.69141 7.9942,-9.66211 -14.9492,-10.86133 -0.051,-0.0371 z m -143.83597,0.002 -0.0508,0.0352 -14.94922,10.86133 7.99414,9.66211 13.51367,-12.69141 -6.50781,-7.86719 z m -60.37305,0.0449 -11.71679,4.63867 7.86719,16.71875 10.98828,-6.04102 0.0547,-0.0312 -7.19336,-15.28515 z m 264.58202,0 -7.1933,15.28515 0.055,0.0312 v 0.002 l 10.9883,6.03906 7.8672,-16.71875 -6.7246,-2.66407 -4.9922,-1.9746 z m -175.45311,0.043 -12.70898,15.36329 8.1582,5.92773 10.65039,-16.7832 0.0332,-0.0527 -6.13281,-4.45508 z m 86.32421,0 -6.1328,4.45508 0.0332,0.0527 10.6504,16.7832 4.0801,-2.96289 4.0781,-2.96484 -5.627,-6.80274 -7.082,-8.56055 z m -188.10155,4.96485 -9.43555,3.73437 8.46289,17.98633 4.88477,-2.68359 3.95312,-2.17383 0.0547,-0.0312 -5.38477,-11.44727 -2.53515,-5.38476 z m 289.87885,0 -7.9199,16.83203 v 0 l 0.053,0.0312 8.8379,4.85742 1.7656,-3.75195 6.6973,-14.23438 -9.4356,-3.73437 z m -181.12299,0.0273 -10.68555,16.83594 8.83789,4.85742 8.49023,-18.04297 z m 72.36718,0 -6.64257,3.65039 8.48828,18.04297 8.8379,-4.85937 -0.461,-0.72657 z m -146.91406,3.4961 -0.0547,0.0293 -12.95117,7.11914 8.98438,14.15821 11.95703,-8.6875 0.0508,-0.0371 -7.98633,-12.58203 z m 221.46097,0 -7.9864,12.58203 0.051,0.0371 11.957,8.6875 8.9844,-14.15821 -12.9511,-7.11914 -0.055,-0.0293 z m -46.0059,0.0195 -7.4434,6.99023 0.041,0.0488 11.7773,14.23633 4.5703,-4.29297 4.5703,-4.29102 -13.4687,-12.64843 -0.047,-0.043 z m -129.44921,0.002 -13.51562,12.68945 9.14062,8.58399 11.77734,-14.23633 0.0234,-0.0273 0.01,-0.0117 0.008,-0.01 -7.44336,-6.98828 z m -90.58398,0.55859 -0.043,0.0176 -0.0137,0.006 -2.27539,0.90039 -4.65626,1.84375 8.91993,18.95508 2.70703,-1.48828 3.82422,-2.10352 0.0547,-0.0312 -8.51757,-18.09961 z m 126.67382,0.002 -0.0273,0.0566 -8.46484,17.98437 9.37695,3.71289 6.14453,-18.90429 0.0195,-0.0606 -7.04883,-2.78906 z m 57.26954,0 -3.52539,1.39453 -3.52149,1.39648 0.0176,0.0586 6.14453,18.90429 9.37695,-3.71289 -8.46484,-17.98437 -0.0273,-0.0566 z m 126.67383,0 -8.5176,18.09765 0.055,0.0312 v 0.002 l 6.5312,3.58984 v 0 l 4.459,-9.47656 4.459,-9.47852 -6.9317,-2.74414 -0.057,-0.0215 z m -243.03712,2.32812 -0.0508,0.0371 -13.5664,9.85547 9.41992,11.38672 12.22461,-11.47852 0.0449,-0.043 -8.07227,-9.75781 z m 175.45702,0 -8.0722,9.75781 0.045,0.043 12.2246,11.47852 9.4199,-11.38672 -13.6172,-9.89258 z m -108.36327,0.77149 -0.0195,0.0586 -3.97461,12.22852 -2.16992,6.67578 6.04297,1.55273 3.72656,0.95508 3.72461,-19.52344 0.0117,-0.0625 -7.3418,-1.88476 z m 41.26954,0 -7.3418,1.88476 0.0117,0.0625 3.72461,19.52344 3.72656,-0.95508 6.04297,-1.55273 -6.16406,-18.96289 z m 142.59373,0.0351 -8.9707,19.06836 v 0 l 0.053,0.0312 4.1094,2.25781 9.2265,-19.60742 -4.3613,-1.72656 -0.059,-0.0234 z m -326.45897,0.002 -0.0566,0.0215 -1.35547,0.53711 -3.00586,1.18945 9.22656,19.60742 4.16407,-2.28906 -6.10157,-12.96484 -2.87109,-6.10156 z m 150.91992,2.03515 -0.004,0.0195 -0.008,0.041 -3.72461,19.52539 10.00586,1.26562 1.24805,-19.83984 0.004,-0.0606 -7.52149,-0.95117 z m 24.6211,0 -7.52149,0.95117 1.25196,19.90039 5.00195,-0.63281 5.00391,-0.63281 -3.72461,-19.52539 -0.0117,-0.0606 z m -180.89258,0.082 -0.0566,0.0234 -0.38867,0.1543 -1.31836,0.52148 9.38086,19.93946 1.60937,-0.88672 0.0547,-0.0312 -9.28125,-19.72071 z m 337.16213,0 -9.2793,19.72071 0.055,0.0312 v 0.002 l 1.6093,0.88281 9.3809,-19.9375 -1.707,-0.67578 -0.059,-0.0234 z m -172.37112,0.92969 -0.004,0.0644 -0.60547,9.61914 -0.64258,10.21875 h 10.08594 l -1.25195,-19.90234 h -7.58204 z m -120.82421,0.86719 -0.0547,0.0293 -10.98828,6.03906 7.95312,12.5332 1.94727,3.07031 7.99219,-5.80859 2.15234,-1.5625 0.0508,-0.0371 -9.05273,-14.26367 z m 249.23043,0 -9.0527,14.26172 10.1953,7.4082 9.9004,-15.59961 -6.0078,-3.30273 -4.9805,-2.73828 -0.055,-0.0293 z m -181.12692,0.0156 -0.0391,0.0469 -11.77734,14.23828 10.14453,7.37109 1.03515,-1.63281 8.86524,-13.96875 0.0332,-0.0527 -8.26172,-6.00196 z m 113.02342,0 -8.2617,6.00196 0.033,0.0527 9.9024,15.59961 5.0722,-3.68359 5.0703,-3.68555 -5.334,-6.44922 -6.4433,-7.78906 -0.039,-0.0469 z m -158.66795,5.74414 -0.0508,0.0371 -11.95703,8.68555 10.68945,12.91992 10.81836,-10.1582 -9.5,-11.48438 z m 204.31255,0 -9.5,11.48438 0.045,0.043 10.7734,10.11523 9.0801,-10.97265 1.6094,-1.94727 -12.0078,-8.72266 z m -181.127,0.004 -0.0274,0.0254 -0.0195,0.0176 -12.22265,11.48047 10.77343,10.11719 10.6875,-12.92188 0.0391,-0.0488 -9.23047,-8.66992 z m 157.9414,0 -9.2305,8.66992 0.039,0.0488 10.6875,12.92188 5.3867,-5.0586 5.3867,-5.05859 -12.2226,-11.48047 -0.047,-0.043 z m -215.50781,0.78906 -0.0547,0.0293 -3.48632,1.91601 -5.35157,2.94336 10.65039,16.78321 6.03711,-4.38672 2.12305,-1.54102 0.0508,-0.0371 -9.96875,-15.70703 z m 89.13086,0 -9.93359,15.6543 10.98828,6.04101 0.77929,-1.6582 7.08789,-15.06054 0.0273,-0.0566 -8.94922,-4.91992 z m 94.81245,0 -8.94917,4.91992 0.0273,0.0566 7.86727,16.71874 5.4941,-3.01953 5.4941,-3.02148 -3.9804,-6.27149 -5.9199,-9.33007 -0.033,-0.0527 z m 89.1309,0 -9.9687,15.70703 0.051,0.0371 8.1602,5.92774 5.3262,-8.39063 5.3242,-8.39258 -8.8379,-4.85937 -0.055,-0.0293 z m -174.08983,5.34571 -0.0137,0.0273 -7.88086,16.74609 11.66016,4.61719 4.77344,-14.69141 0.93555,-2.88085 0.0195,-0.0605 -9.49414,-3.75781 z m 75.10546,0 -9.49414,3.75781 0.0195,0.0605 5.71094,17.57226 2.49219,-0.98633 9.16608,-3.63086 -7.86725,-16.71679 -0.0273,-0.0566 z m -183.86132,0.0273 -0.0156,0.008 -0.0391,0.0215 -6.5332,3.58984 11.2246,17.6875 2.07813,-1.50977 3.95313,-2.87304 0.0508,-0.0371 -10.71875,-16.88672 z m 292.61719,0 -10.7188,16.88672 0.051,0.0371 6.0313,4.38281 5.6133,-8.84375 5.6113,-8.84375 -6.5332,-3.58984 -0.055,-0.0293 z m -261.28321,3.14648 -10.19531,7.40821 11.77734,14.23633 2.12696,-1.99805 7.01367,-6.58594 0.0469,-0.043 -10.76953,-13.01758 z m 46.00781,0 -0.041,0.0488 -6.12696,7.40625 -4.5625,5.51367 11.95704,8.6875 1.71289,-2.69921 7.27343,-11.45899 0.0332,-0.0527 z m 137.9336,0 -10.2461,7.44532 0.035,0.0527 8.9843,14.1582 5.9786,-4.34375 5.9785,-4.34375 -10.6895,-12.91992 -0.041,-0.0488 z m 46.0078,0 -10.7695,13.01758 0.027,0.0254 0.019,0.0176 9.1407,8.58399 5.8887,-7.11915 5.8886,-7.11914 -10.1445,-7.36914 -0.051,-0.0371 z m -142.08202,0.89454 -0.0195,0.0586 -5.70899,17.57422 12.14453,3.11719 2.57813,-13.51368 0.88476,-4.63672 0.0117,-0.0605 -9.89062,-2.53906 z m 54.21484,0 -9.89062,2.5371 0.0117,0.0625 3.46289,18.1504 4.51953,-1.16016 7.62695,-1.95899 -5.71094,-17.57226 -0.0195,-0.0586 z m -180.88086,0.0625 -4.16601,2.28906 11.61133,18.29883 3.8457,-2.79688 z m 307.54884,0 -11.293,17.79101 3.8457,2.79492 5.8067,-9.14843 5.8046,-9.14844 -4.1093,-2.25977 -0.055,-0.0293 z m -245.7461,1.94335 -0.0274,0.0254 -0.0195,0.0176 -10.77344,10.11719 12.22461,11.47852 9.41993,-11.38672 0.0312,-0.0391 0.01,-0.01 -10.86523,-10.20313 z m 183.9414,0 -10.8652,10.20313 0.041,0.0488 9.4199,11.38672 6.1133,-5.73829 6.1113,-5.74023 -10.7734,-10.11719 -0.047,-0.043 z m -108.20508,0.71875 -0.0117,0.0625 -1.25586,6.58008 -2.20703,11.57032 12.4414,1.57226 1.16016,-18.44141 0.004,-0.0625 -10.13086,-1.28125 z m 32.46876,0 -10.13086,1.28125 1.16406,18.50391 6.2207,-0.78711 6.2207,-0.78515 -3.46289,-18.1504 -0.0117,-0.0625 z m -175.05274,0.11133 -0.0547,0.0293 -0.57226,0.31445 -1.03711,0.57032 11.80664,18.60546 1.10156,-0.80078 0.38477,-0.27929 0.0508,-0.0371 -11.67969,-18.40235 z m 317.63676,0 -11.6778,18.40235 0.051,0.0371 1.4844,1.08007 11.8066,-18.60546 -1.6093,-0.88477 -0.055,-0.0293 z m -163.92387,1.23242 -0.004,0.0625 -0.5625,8.94141 -0.59765,9.5 h 12.53906 l -1.16406,-18.50391 h -10.21094 z m -52.77148,3.01758 -9.01953,14.21094 12.95117,7.12109 7.14062,-15.17382 0.0274,-0.0566 -11.09961,-6.10157 z m 115.75385,0 -11.0976,6.10157 0.012,0.0273 0.014,0.0293 7.1406,15.17382 12.9512,-7.12109 -8.9863,-14.1582 -0.033,-0.0527 z m 68.1036,0.0156 -11.8574,14.33398 0.045,0.043 7.3515,6.9043 12.6719,-15.31641 -8.1601,-5.92773 -0.051,-0.0371 z m -251.96097,0.002 -0.0508,0.0352 -8.16016,5.92773 12.67188,15.31641 4.7168,-4.43164 2.67968,-2.51563 -11.85742,-14.33203 z m 45.64453,5.74414 -9.45898,11.43555 13.56445,9.85547 1.87109,-2.94922 6.04883,-9.5293 0.0332,-0.0527 -12.0586,-8.75977 z m 160.67184,0 -12.0586,8.75977 0.033,0.0527 7.9199,12.47852 13.5644,-9.85547 -4.2871,-5.1836 -5.1719,-6.25195 z m -183.85738,0.004 -9.18555,8.62695 13.46875,12.64844 7.99219,-9.66211 0.0391,-0.0488 -12.31445,-11.56445 z m 207.04298,0 -12.3145,11.56445 0.039,0.0488 7.9922,9.66211 1.664,-1.5625 11.8047,-11.08594 -5.832,-5.47851 -3.3535,-3.14844 z m -149.39455,0.76172 -0.0273,0.0566 -7.13867,15.17382 13.74023,5.43946 5.18164,-15.94727 0.0195,-0.0605 -11.77539,-4.66211 z m 91.74605,0 -11.77534,4.66211 0.0195,0.0605 5.18164,15.94727 13.7422,-5.44141 -7.1406,-15.17187 -0.027,-0.0566 z m -180.87495,0.043 -0.0508,0.0371 -2.6836,1.94922 -3.34765,2.43164 13.35351,16.14063 5.47852,-5.14649 -12.75,-15.41211 z m 270.00385,0 -12.75,15.41211 5.4786,5.14649 13.3535,-16.14063 z m -168.14643,4.92969 -5.20313,16.00781 14.31446,3.67383 3.14258,-16.4707 0.0117,-0.0625 -12.26562,-3.14844 z m 66.29101,0 -12.26757,3.14844 0.0117,0.0625 3.14258,16.4707 7.15821,-1.83789 7.15625,-1.83594 -5.18164,-15.94921 -0.0195,-0.0586 z m -175.04101,0.0781 -3.8457,2.79492 13.8125,16.69531 3.46484,-3.2539 z m 283.78903,0 -13.4316,16.23828 0.031,0.0293 2.9473,2.76562 0.4863,0.45703 6.9063,-8.34765 6.9062,-8.34766 -3.4316,-2.49414 -0.4141,-0.30078 z m -161.79098,3.25781 -0.0117,0.0625 -1.14453,5.99609 -1.99805,10.47461 14.66211,1.85352 1.05469,-16.73633 0.004,-0.0625 -12.5664,-1.58789 z m 39.79296,0 -12.5664,1.58789 1.05859,16.79883 7.33008,-0.92578 7.33203,-0.92774 -3.14258,-16.4707 -0.0117,-0.0625 z m 126.65622,0.125 -13.8945,16.79492 0.047,0.043 1.3379,1.25586 14.0449,-16.97656 -1.3008,-0.94727 -0.1836,-0.13281 -0.051,-0.0371 z m -293.10348,0.002 -1.31445,0.95313 -0.22266,0.16211 14.04687,16.97656 1.3379,-1.25586 0.0449,-0.043 -13.89258,-16.79297 z m 79.11914,0.0937 -0.0371,0.0547 -7.91602,12.47852 14.69336,8.07812 6.29297,-13.37305 0.0274,-0.0566 -13.06055,-7.18164 z m 134.86324,0 -13.0586,7.18164 6.3184,13.42969 14.6934,-8.07812 -4.5684,-7.20118 -3.3496,-5.27734 -0.035,-0.0547 z m 46.0059,0.0215 -6.7793,6.36718 -6.7793,6.36719 0.039,0.0488 6.4277,7.76953 12.3672,-11.61133 2.123,-1.99414 -4.7168,-4.43164 -2.6347,-2.47265 -0.045,-0.043 v 0 z m -226.87695,0.002 -0.0274,0.0234 -0.0176,0.0176 -7.35156,6.90625 14.49024,13.60546 6.42773,-7.77148 0.0391,-0.0488 -13.56054,-12.73242 z m 107.10742,1.40625 -0.004,0.0625 -0.51172,8.11524 -0.54296,8.62109 h 14.78124 l -1.05859,-16.79883 h -12.66406 z m -84.10156,1.48242 -0.041,0.0488 -7.99219,9.66211 14.94727,10.86133 3.49023,-5.50195 3.22852,-5.0879 0.0332,-0.0527 -13.66601,-9.92969 z m 180.86719,0 -13.666,9.92969 0.033,0.0527 6.7187,10.58985 10.1699,-7.38867 4.7774,-3.47266 -3.5605,-4.30664 -4.4317,-5.35547 -0.041,-0.0488 z m -143.89844,4.69532 -6.32032,13.42968 15.58985,6.17188 4.56836,-14.05469 0.0195,-0.0605 -13.85742,-5.48632 z m 106.93164,0 -13.85742,5.48632 4.58592,14.11524 15.5899,-6.17188 -6.2911,-13.37304 -0.027,-0.0566 z m -175.03321,0.0469 -5.48047,5.14844 15.26954,14.33789 3.70703,-4.48242 1.04492,-1.26172 0.0391,-0.0488 -14.58008,-13.69336 z m 243.13281,0 -14.5801,13.69336 0.039,0.0488 4.7519,5.74414 15.2696,-14.33985 -5.4336,-5.10351 -0.047,-0.043 z m -197.48828,5.72461 -6.7539,10.64062 16.19336,8.9004 5.33789,-11.34571 0.0273,-0.0566 -14.80469,-8.13867 z m 151.84378,0 -14.8047,8.13867 0.027,0.0566 5.3379,11.34571 16.1934,-8.9004 -6.7539,-10.64062 z m -175.02737,0.0156 -0.041,0.0488 -6.42774,7.77149 16.08008,11.68359 0.40625,-0.64062 4.99805,-7.875 0.0332,-0.0527 -15.04883,-10.93555 z m 198.21097,0 -15.0489,10.93555 0.033,0.0527 5.4043,8.51562 11.086,-8.05469 4.9941,-3.6289 -6.4277,-7.77149 -0.041,-0.0488 z m -137.76175,0.01 -0.0195,0.0586 -2.98242,9.17383 -1.58594,4.88281 16.24219,4.16797 2.76953,-14.51562 0.0117,-0.0625 -14.43555,-3.70508 z m 77.3125,0 -14.43555,3.70508 0.0117,0.0625 2.76953,14.51562 8.1211,-2.08398 8.12107,-2.08399 -4.56834,-14.05664 -0.0195,-0.0586 z m -166.43359,0.084 -0.0332,0.0293 -0.0137,0.0137 -3.41797,3.21094 15.79688,14.83203 3.02929,-3.66015 -15.36132,-14.42579 z m 255.55464,0 -7.6796,7.21289 -7.6817,7.2129 3.0293,3.66015 7.8985,-7.41601 7.8984,-7.41602 -3.418,-3.21094 -0.012,-0.0117 -0.035,-0.0312 z m -151.01558,3.8086 -0.0117,0.0625 -1.00195,5.25195 -1.76758,9.26367 16.63672,2.10352 0.92773,-14.75 0.004,-0.0625 -14.78711,-1.86914 z m 46.47656,0 -14.78711,1.86914 0.93164,14.8125 8.31836,-1.05078 8.31836,-1.05274 -2.76953,-14.51562 -0.0117,-0.0625 z m -155.21289,0.13281 -0.0332,0.0312 -0.0117,0.01 -1.33789,1.25781 16.0625,15.08203 0.46094,-0.55664 0.70898,-0.85742 0.0391,-0.0488 -5.18359,-4.86719 -10.70508,-10.05078 z m 263.94731,0 -15.8868,14.91797 0.039,0.0488 1.1699,1.41406 16.0625,-15.08398 -1.3379,-1.25586 -0.047,-0.041 z m -139.42387,1.79883 -0.9336,14.8125 h 16.76954 l -0.93165,-14.8125 z m -52.75977,2.71484 -5.36718,11.40235 17.17968,6.80273 3.47852,-10.70508 0.39648,-1.2207 0.0195,-0.0605 -15.70703,-6.21875 z m 120.42384,0 -15.707,6.22071 3.8945,11.98437 17.1777,-6.80273 z m -166.42579,0.043 -0.041,0.0488 -4.75195,5.74414 16.94727,12.31055 3.99414,-6.29297 0.0332,-0.0527 -16.18164,-11.75781 z m 212.42579,0 -16.1816,11.75781 0.033,0.0527 3.9962,6.29492 16.9453,-12.3125 -1.9688,-2.38086 -2.7832,-3.36328 -0.041,-0.0488 z m -189.42579,2.87891 -5.4375,8.56836 17.41992,9.57617 4.29297,-9.125 0.0273,-0.0566 -16.30273,-8.96289 z m 166.42579,0 -16.3027,8.96289 0.027,0.0566 4.293,9.125 8.7109,-4.78906 8.709,-4.78711 -1.711,-2.69727 -3.6933,-5.81836 -0.033,-0.0527 z m -126.76563,3.60742 -0.0195,0.0586 -3.875,11.92578 17.89649,4.59375 0.77344,-4.05468 1.57617,-8.26172 0.0117,-0.0606 -16.36328,-4.20117 z m 87.10543,0 -16.36325,4.19922 0.0117,0.0625 2.34961,12.3164 8.94922,-2.29492 8.94732,-2.29883 -3.1856,-9.80664 z m -155.19723,0.0781 -0.002,0.004 -0.0391,0.0449 -2.98828,3.61524 17.5293,12.73632 0.87305,-1.375 1.64062,-2.58593 0.0332,-0.0527 -17.04687,-12.38672 z m 223.28903,0 -17.0468,12.38672 0.033,0.0527 2.5136,3.96093 17.5293,-12.73632 -2.3574,-2.85157 -0.6308,-0.76367 -0.039,-0.0469 v -0.002 z m -137.85153,4.3086 -0.0117,0.0625 -1.8457,9.67187 -0.50391,2.64453 18.33203,2.31836 0.78711,-12.51562 0.004,-0.0625 -16.76172,-2.11914 z m 52.41406,0.002 -16.76172,2.11719 0.79102,12.57812 18.33203,-2.31836 -2.34961,-12.3164 -0.0117,-0.0606 z m -141.51953,0.125 -0.041,0.0488 -0.66601,0.80469 -0.50586,0.60937 17.82812,12.95117 1.01563,-1.60351 -8.81445,-6.4043 -8.81641,-6.40625 z m 230.625,0 -17.6309,12.8125 0.033,0.0527 0.9844,1.54882 17.8262,-12.95117 -1.1719,-1.41406 -0.041,-0.0488 z m -181.31641,1.26758 -0.0273,0.0566 -4.29492,9.125 18.48242,7.31641 1.42578,-4.38477 1.68945,-5.20703 0.0195,-0.0586 -17.29493,-6.84766 z m 132.00781,0 -17.2949,6.84766 0.02,0.0586 v 0 l 3.1191,9.5918 18.4805,-7.31641 -4.3223,-9.18164 z m -155.1914,0.0254 -4.02734,6.34766 18.35546,10.09179 3.20118,-6.80273 z m 178.375,0 -17.5293,9.63672 0.025,0.0566 3.1758,6.74609 9.1777,-5.04492 9.1777,-5.04687 -3.9941,-6.29493 -0.033,-0.0527 z m -97.63477,0.76172 -0.004,0.0625 -0.38086,6.06836 -0.40625,6.44726 h 18.47656 l -0.79101,-12.57812 h -16.89454 z m -39.30859,6.36914 -1.88476,5.79687 -1.25391,3.85352 11.98828,3.07812 7.26563,1.86524 1.44335,-7.5625 0.44727,-2.34375 0.0117,-0.0605 -14.33789,-3.68164 -3.67969,-0.94531 z m 95.51176,0 -18.01762,4.62695 0.0117,0.0605 1.89062,9.90625 7.26563,-1.86524 11.98827,-3.07812 -3.1172,-9.58984 -0.019,-0.0606 v 0 z m -141.50785,0.0645 -2.54688,4.01367 18.98828,10.43946 1.99805,-4.2461 0.0117,-0.0234 0.006,-0.0117 0.01,-0.0215 -18.46679,-10.15039 z m 187.50385,0 -18.4667,10.15039 0.027,0.0566 1.9981,4.2461 18.9882,-10.43946 -1.3476,-2.125 -1.1993,-1.88867 z m -23,2.86719 -18.5976,7.36328 0.019,0.0605 2.3047,7.08984 19.4766,-7.71094 -3.1758,-6.74609 -0.027,-0.0566 z m -141.50385,0.002 -3.20117,6.80078 19.4746,7.71094 2.30469,-7.08984 0.0195,-0.0605 -18.59765,-7.36133 z m 41.99609,1.88086 -0.0117,0.0605 -0.69922,3.66601 -1.1914,6.24024 19.7207,2.49219 0.63477,-10.06446 0.004,-0.0625 -9.22851,-1.16797 -9.22852,-1.16406 z m 57.51172,0 -18.45703,2.33203 0.63867,10.12696 9.85938,-1.2461 9.86132,-1.24609 -1.89062,-9.90625 -0.0117,-0.0605 z m -125.5918,0.10938 -1.01758,1.60351 19.3086,10.61524 0.78125,-1.66211 0.0273,-0.0566 -19.09961,-10.5 z m 193.67184,0 -19.0996,10.5 0.027,0.0566 0.7812,1.66211 19.3086,-10.61524 -1.0176,-1.60351 z m -106.13668,2.28515 -0.004,0.0625 -0.30859,4.87891 -0.32617,5.18555 h 19.8789 l -0.63867,-10.12696 h -18.60156 z m -41.90234,3.39649 -0.0195,0.0586 -2.30468,7.08985 20.29101,5.20898 0.0859,-0.45117 1.31055,-6.8711 0.002,-0.01 0.01,-0.0469 v -0.004 l -19.375,-4.97461 z m 102.40622,0 -19.37498,4.97265 0.002,0.01 0.01,0.0527 1.39649,7.32227 20.29099,-5.20898 -2.3046,-7.08985 -0.02,-0.0586 z m 23.1778,0.0352 -19.5938,7.75782 0.019,0.0605 1.4493,4.46094 20.1484,-7.97656 -1.9961,-4.24609 -0.027,-0.0566 z m -148.75981,0.002 -2.02539,4.30078 20.14844,7.97656 1.31445,-4.04883 0.13477,-0.41211 0.0195,-0.0605 -19.5918,-7.75586 z m 43.53321,5.12304 -1.40821,7.38477 20.78125,2.62695 0.46875,-7.4414 0.004,-0.0625 -19.8457,-2.50782 z m 61.6914,0.002 -19.8457,2.50586 0.47266,7.5039 20.78125,-2.62695 -1.39649,-7.32227 -0.0117,-0.0605 z m -107.67578,0.082 -0.0273,0.0566 -0.33985,0.7207 -0.44335,0.93946 20.48828,8.11132 0.5664,-1.74414 0.0195,-0.0605 -20.26367,-8.02344 z m 153.66018,0 -20.2637,8.02344 0.019,0.0605 0.5664,1.7461 20.4864,-8.11328 -0.8086,-1.7168 z m -86.83205,2.48633 -0.004,0.0625 -0.22656,3.60742 -0.24219,3.83398 h 20.94922 l -0.47266,-7.5039 h -20.0039 z m -43.83399,0.37304 -0.0195,0.0586 -1.44922,4.46289 20.98828,5.38672 0.88086,-4.60742 0.0117,-0.0606 -20.41211,-5.24024 z m 107.67184,0 -10.207,2.61914 -10.20507,2.6211 0.0117,0.0606 0.88086,4.60742 20.98831,-5.38672 -1.3145,-4.05078 -0.1543,-0.47071 z m -86.27731,5.42774 -0.0117,0.0606 -0.35547,1.86328 -0.52539,2.74414 21.5,2.71679 0.29492,-4.68164 0.004,-0.0625 -20.90625,-2.64062 z m 64.88282,0 -20.90625,2.64062 0.29882,4.74414 21.5,-2.71679 -0.88086,-4.60742 -0.0117,-0.0606 z m -88.05469,0.0469 -0.34766,1.06836 -0.24023,0.73633 21.34179,5.47852 0.3125,-1.62696 0.0332,-0.17578 h -0.002 l 0.0117,-0.0606 -15.6914,-4.02929 -5.41797,-1.39063 z m 111.22848,0 -21.11129,5.41797 0.0117,0.0625 0.34376,1.80274 21.34183,-5.47852 -0.2891,-0.89062 z m -66.15231,2.65625 -0.004,0.0625 -0.12109,1.91993 -0.17383,2.76171 h 21.67188 l -0.29883,-4.74414 H 949.4628 Z m -22.98242,2.94922 -0.35742,1.86524 21.86133,2.76367 0.11523,-1.83399 0.004,-0.0605 -21.62305,-2.73438 z m 67.04101,0.002 -10.8125,1.36524 -10.8125,1.36719 0.11914,1.89453 21.86133,-2.76367 -0.34375,-1.80274 -0.0117,-0.0606 z m -44.41992,2.79297 -0.004,0.0645 -0.0566,0.88867 -0.0586,0.94336 h 22.03516 l -0.11914,-1.89649 H 949.1015 Z"
           style="color:#000000;font-style:normal;font-variant:normal;font-weight:normal;font-stretch:normal;font-size:medium;line-height:normal;font-family:sans-serif;text-indent:0;text-align:start;text-decoration:none;text-decoration-line:none;text-decoration-style:solid;text-decoration-color:#000000;letter-spacing:normal;word-spacing:normal;text-transform:none;writing-mode:lr-tb;direction:ltr;baseline-shift:baseline;text-anchor:start;white-space:normal;clip-rule:nonzero;display:inline;overflow:visible;visibility:visible;opacity:1;isolation:auto;mix-blend-mode:normal;color-interpolation:sRGB;color-interpolation-filters:linearRGB;solid-color:#000000;solid-opacity:1;fill:#000000;fill-opacity:1;fill-rule:nonzero;stroke:none;stroke-width:1px;stroke-linecap:round;stroke-linejoin:miter;stroke-miterlimit:4;stroke-dasharray:none;stroke-dashoffset:0;stroke-opacity:1;color-rendering:auto;image-rendering:auto;shape-rendering:auto;text-rendering:auto;enable-background:accumulate" />
        <g
           id="g12573"
           transform="translate(-79.19596,200.81832)">
          <circle
             style="opacity:1;fill:url(#radialGradient12579);fill-opacity:1;fill-rule:evenodd;stroke:none;stroke-width:20;stroke-linecap:round;stroke-linejoin:round;stroke-miterlimit:4;stroke-dasharray:none"
             id="circle12575"
             cx="991.36371"
             cy="464.81711"
             r="33.825901" />
          <circle
             r="6.8206973"
             cy="464.81711"
             cx="991.36371"
             id="circle12577"
             style="opacity:1;fill:#008000;fill-opacity:1;fill-rule:evenodd;stroke:none;stroke-width:20;stroke-linecap:round;stroke-linejoin:round;stroke-miterlimit:4;stroke-dasharray:none" />
        </g>
        <g
           transform="translate(-147.07821,86.267021)"
           id="g12581">
          <circle
             r="32.915997"
             cy="464.81711"
             cx="991.36371"
             id="circle12583"
             style="opacity:1;fill:url(#radialGradient12587);fill-opacity:1;fill-rule:evenodd;stroke:none;stroke-width:20;stroke-linecap:round;stroke-linejoin:round;stroke-miterlimit:4;stroke-dasharray:none" />
          <circle
             style="opacity:1;fill:#008000;fill-opacity:1;fill-rule:evenodd;stroke:none;stroke-width:20;stroke-linecap:round;stroke-linejoin:round;stroke-miterlimit:4;stroke-dasharray:none"
             id="circle12585"
             cx="991.36371"
             cy="464.81711"
             r="6.8206973" />
        </g>
        <g
           id="g12589"
           transform="matrix(0.83615254,0,0,0.83615254,50.709558,56.360108)">
          <circle
             style="opacity:1;fill:url(#radialGradient12595);fill-opacity:1;fill-rule:evenodd;stroke:none;stroke-width:20;stroke-linecap:round;stroke-linejoin:round;stroke-miterlimit:4;stroke-dasharray:none"
             id="circle12591"
             cx="991.36371"
             cy="464.81711"
             r="48.825901" />
          <circle
             r="6.8206973"
             cy="464.81711"
             cx="991.36371"
             id="circle12593"
             style="opacity:1;fill:#008000;fill-opacity:1;fill-rule:evenodd;stroke:none;stroke-width:20;stroke-linecap:round;stroke-linejoin:round;stroke-miterlimit:4;stroke-dasharray:none" />
        </g>
        <g
           transform="matrix(0.37971573,0,0,0.37971573,745.84033,277.23672)"
           style="fill:none;fill-opacity:1;stroke:#008000;stroke-width:14.70588207;stroke-miterlimit:4;stroke-dasharray:none"
           id="g12603">
          <path
             style="fill:none;fill-opacity:1;fill-rule:evenodd;stroke:#008000;stroke-width:14.70588207;stroke-linecap:butt;stroke-linejoin:miter;stroke-miterlimit:4;stroke-dasharray:none;stroke-opacity:1"
             d="M 564,192 V 1192"
             id="path12599"
             inkscape:connector-curvature="0" />
          <path
             inkscape:connector-curvature="0"
             id="path12601"
             d="M 1064,692 H 64"
             style="fill:none;fill-opacity:1;fill-rule:evenodd;stroke:#008000;stroke-width:14.70588207;stroke-linecap:butt;stroke-linejoin:miter;stroke-miterlimit:4;stroke-dasharray:none;stroke-opacity:1" />
        </g>
        <path
           inkscape:connector-curvature="0"
           id="circle12653"
           d="m 960,343.38785 c -108.55184,0 -196.61215,88.0603 -196.61215,196.61215 0,108.55185 88.06031,196.61215 196.61215,196.61215 108.5519,0 196.6122,-88.0603 196.6122,-196.61215 0,-108.55185 -88.0603,-196.61215 -196.6122,-196.61215 z m 0,5.69289 c 105.4751,0 190.9193,85.44408 190.9193,190.91926 0,105.47518 -85.4442,190.91926 -190.9193,190.91926 -105.47518,0 -190.91926,-85.44408 -190.91926,-190.91926 0,-105.47518 85.44408,-190.91926 190.91926,-190.91926 z"
           style="color:#000000;font-style:normal;font-variant:normal;font-weight:normal;font-stretch:normal;font-size:medium;line-height:normal;font-family:sans-serif;text-indent:0;text-align:start;text-decoration:none;text-decoration-line:none;text-decoration-style:solid;text-decoration-color:#000000;letter-spacing:normal;word-spacing:normal;text-transform:none;writing-mode:lr-tb;direction:ltr;baseline-shift:baseline;text-anchor:start;white-space:normal;clip-rule:nonzero;display:inline;overflow:visible;visibility:visible;opacity:1;isolation:auto;mix-blend-mode:normal;color-interpolation:sRGB;color-interpolation-filters:linearRGB;solid-color:#000000;solid-opacity:1;fill:#000000;fill-opacity:1;fill-rule:evenodd;stroke:none;stroke-width:6;stroke-linecap:round;stroke-linejoin:round;stroke-miterlimit:4;stroke-dasharray:none;stroke-dashoffset:0;stroke-opacity:1;color-rendering:auto;image-rendering:auto;shape-rendering:auto;text-rendering:auto;enable-background:accumulate" />
        <path
           style="fill:url(#linearGradient12691);fill-opacity:1;fill-rule:evenodd;stroke:none;stroke-width:1px;stroke-linecap:butt;stroke-linejoin:miter;stroke-opacity:1;filter:url(#filter12679)"
           d="m 960,540.00001 34.85938,-180.06698 63.84002,25.47656 z"
           id="path12683"
           inkscape:connector-curvature="0"
           sodipodi:nodetypes="cccc" />
        <path
           sodipodi:nodetypes="cccc"
           inkscape:connector-curvature="0"
           id="path12657"
           d="m 960,540.00001 34.85938,-180.06698 9.08802,2.12674 z"
           style="fill:#00ff00;fill-rule:evenodd;stroke:none;stroke-width:1px;stroke-linecap:butt;stroke-linejoin:miter;stroke-opacity:1" />
      </g>
    </g>
    <!-- end Sphere.001 -->
  </g>
</svg>
